<?xml version='1.0' encoding='utf-8'?>
<svg xmlns="http://www.w3.org/2000/svg" xmlns:inkscape="http://www.inkscape.org/namespaces/inkscape" version="1.1" width="693.5735114812851mm" height="263.0678036212921mm" viewBox="0.2247127423004649 0.004708915348011544 8191.549574515399 3107.000582169304" preserveAspectRatio="none">
    <g id="ViewLayer_LineSet" inkscape:groupmode="lineset" inkscape:label="ViewLayer_LineSet">
        <g inkscape:groupmode="layer" id="strokes" inkscape:label="strokes">
            <path fill="none" stroke-width="3.0" stroke-linecap="butt" stroke-opacity="1.0" stroke="rgb(0, 0, 0)" stroke-linejoin="round" d=" M 1140.441, 1055.649 1137.922, 1053.067 1135.535, 1050.363 1133.286, 1047.543 1131.181, 1044.614 1129.224, 1041.584 1127.420, 1038.460 1125.775, 1035.250 1124.291, 1031.963 1122.973, 1028.605 1121.825, 1025.186 1120.848, 1021.714 1120.045, 1018.198 1119.419, 1014.645 1118.970, 1011.066 1118.701, 1007.469 1118.611, 1003.863 1118.701, 1000.258 1118.970, 996.660 1119.419, 993.081 1120.045, 989.529 1120.848, 986.013 1121.825, 982.540 1122.973, 979.122 1124.291, 975.764 1125.775, 972.476 1127.420, 969.266 1129.224, 966.143 1131.181, 963.113 1133.286, 960.184 1135.535, 957.364 1137.922, 954.659 1140.441, 952.077 1143.085, 949.624 1145.848, 947.305 1148.723, 945.128 1151.703, 943.095 1154.781, 941.214 1157.949, 939.490 1161.198, 937.925 1164.522, 936.524 1167.912, 935.290 1171.359, 934.227 1174.854, 933.337 1178.389, 932.622 1181.956, 932.084 1185.545, 931.726 1189.148, 931.546 1192.755, 931.546 1196.357, 931.726 1199.946, 932.084 1203.513, 932.622 1207.048, 933.337 1210.544, 934.227 1213.990, 935.290 1217.380, 936.524 1220.704, 937.925 1223.953, 939.490 1227.121, 941.214 1230.199, 943.095 1233.179, 945.128 1236.054, 947.305 1238.818, 949.624 1241.462, 952.077 1243.980, 954.659 1246.367, 957.364 1248.616, 960.184 1250.721, 963.113 1252.678, 966.143 1254.482, 969.266 1256.127, 972.476 1257.611, 975.764 1258.929, 979.122 1260.077, 982.540 1261.054, 986.013 1261.857, 989.529 1262.483, 993.081 1262.932, 996.660 1263.202, 1000.258 1263.291, 1003.863 1263.202, 1007.469 1262.932, 1011.066 1262.483, 1014.645 1261.857, 1018.198 1261.054, 1021.714 1260.077, 1025.186 1258.929, 1028.605 1257.611, 1031.963 1256.127, 1035.250 1254.482, 1038.460 1252.678, 1041.584 1250.721, 1044.614 1248.616, 1047.543 1246.367, 1050.363 1243.980, 1053.067 1241.462, 1055.649 1238.818, 1058.103 1236.054, 1060.421 1233.179, 1062.599 1230.199, 1064.631 1227.121, 1066.512 1223.953, 1068.236 1220.704, 1069.802 1217.380, 1071.203 1213.990, 1072.436 1210.544, 1073.500 1207.048, 1074.390 1203.513, 1075.104 1199.946, 1075.642 1196.357, 1076.001 1192.755, 1076.181 1189.148, 1076.181 1185.545, 1076.001 1181.956, 1075.642 1178.389, 1075.104 1174.854, 1074.390 1171.359, 1073.500 1167.912, 1072.436 1164.522, 1071.203 1161.198, 1069.802 1157.949, 1068.236 1154.781, 1066.512 1151.703, 1064.631 1148.723, 1062.599 1145.848, 1060.421 1143.085, 1058.103 1140.441, 1055.649 " />
            <path fill="none" stroke-width="3.0" stroke-linecap="butt" stroke-opacity="1.0" stroke="rgb(0, 0, 0)" stroke-linejoin="round" d=" M 8061.258, 608.413 8059.506, 598.568 8057.754, 588.722 8056.002, 578.877 8054.250, 569.031 8052.498, 559.186 8050.746, 549.341 8048.994, 539.496 8047.242, 529.650 8045.490, 519.805 8043.738, 509.960 8041.986, 500.114 8040.234, 490.269 8038.482, 480.424 8036.730, 470.578 8034.978, 460.733 8033.226, 450.888 8031.474, 441.042 8029.722, 431.197 8027.970, 421.352 8026.218, 411.506 8024.466, 401.661 8022.714, 391.816 8020.962, 381.970 8019.210, 372.125 8017.458, 362.280 8015.707, 352.434 8013.955, 342.589 8012.203, 332.744 8010.451, 322.898 8008.699, 313.053 8006.947, 303.208 8005.195, 293.362 8003.442, 283.517 8001.690, 273.672 7999.938, 263.826 7998.187, 253.981 7996.435, 244.136 7994.683, 234.290 7992.931, 224.445 7991.179, 214.600 7989.427, 204.754 7987.675, 194.909 7985.923, 185.064 7984.171, 175.218 7982.833, 167.700 7983.089, 157.703 7983.346, 147.707 7983.602, 137.710 7983.858, 127.713 7984.115, 117.717 7984.371, 107.720 7984.627, 97.723 7984.883, 87.726 7985.128, 78.167 7983.362, 68.324 7981.596, 58.481 7979.830, 48.639 7978.064, 38.796 7976.298, 28.953 7975.342, 23.626 7965.342, 23.626 7955.342, 23.626 7945.342, 23.626 7935.342, 23.626 7925.342, 23.626 7915.342, 23.626 7905.342, 23.626 7895.342, 23.626 7885.342, 23.626 7875.342, 23.626 7865.342, 23.626 7855.342, 23.626 7845.342, 23.626 7835.342, 23.626 7825.342, 23.626 7815.342, 23.626 7805.342, 23.626 7795.342, 23.626 7785.342, 23.626 7775.342, 23.626 7765.342, 23.626 7755.342, 23.626 7745.342, 23.626 7735.342, 23.626 7725.342, 23.626 7715.342, 23.626 7705.342, 23.626 7695.342, 23.626 7685.342, 23.626 7675.342, 23.626 7665.342, 23.626 7655.342, 23.626 7645.342, 23.626 7635.342, 23.626 7625.342, 23.626 7615.342, 23.626 7605.342, 23.626 7595.342, 23.626 7585.342, 23.626 7575.342, 23.626 7565.342, 23.626 7555.342, 23.626 7545.342, 23.626 7535.342, 23.626 7525.342, 23.626 7515.342, 23.626 7505.342, 23.626 7495.342, 23.626 7485.342, 23.626 7475.342, 23.626 7465.342, 23.626 7455.342, 23.626 7445.342, 23.626 7435.342, 23.626 7425.342, 23.626 7415.342, 23.626 7405.342, 23.626 7395.342, 23.626 7385.342, 23.626 7375.342, 23.626 7365.342, 23.626 7355.342, 23.626 7345.342, 23.626 7335.342, 23.626 7325.342, 23.626 7315.342, 23.626 7305.342, 23.626 7295.342, 23.626 7285.342, 23.626 7275.342, 23.626 7265.342, 23.626 7255.342, 23.626 7245.342, 23.626 7235.342, 23.626 7225.342, 23.626 7215.342, 23.626 7205.342, 23.626 7195.342, 23.626 7185.342, 23.626 7175.342, 23.626 7165.342, 23.626 7155.342, 23.626 7145.342, 23.626 7135.342, 23.626 7125.342, 23.626 7115.342, 23.626 7105.342, 23.626 7095.342, 23.626 7085.342, 23.626 7075.342, 23.626 7065.342, 23.626 7055.342, 23.626 7045.342, 23.626 7035.342, 23.626 7025.342, 23.626 7015.342, 23.626 7005.342, 23.626 6995.342, 23.626 6985.342, 23.626 6975.342, 23.626 6965.342, 23.626 6955.342, 23.626 6945.342, 23.626 6935.342, 23.626 6925.342, 23.626 6915.342, 23.626 6905.342, 23.626 6895.342, 23.626 6885.342, 23.626 6875.342, 23.626 6865.342, 23.626 6855.342, 23.626 6845.342, 23.626 6835.342, 23.626 6825.342, 23.626 6815.342, 23.626 6805.342, 23.626 6795.342, 23.626 6785.342, 23.626 6775.342, 23.626 6765.342, 23.626 6755.342, 23.626 6745.342, 23.626 6735.342, 23.626 6725.342, 23.626 6715.342, 23.626 6705.342, 23.626 6695.342, 23.626 6685.342, 23.626 6675.342, 23.626 6665.342, 23.626 6655.342, 23.626 6645.342, 23.626 6635.342, 23.626 6625.342, 23.626 6615.342, 23.626 6605.342, 23.626 6591.271, 23.626 6581.271, 23.626 6571.271, 23.626 6561.271, 23.626 6551.271, 23.626 6541.271, 23.626 6531.271, 23.626 6521.271, 23.626 6511.271, 23.626 6505.291, 23.626 6495.291, 23.626 6485.291, 23.626 6475.291, 23.626 6465.291, 23.626 6455.291, 23.626 6445.291, 23.626 6435.291, 23.626 6425.291, 23.626 6415.291, 23.626 6405.291, 23.626 6395.291, 23.626 6385.291, 23.626 6375.291, 23.626 6365.291, 23.626 6355.291, 23.626 6345.291, 23.626 6335.291, 23.626 6325.291, 23.626 6315.291, 23.626 6305.291, 23.626 6295.291, 23.626 6285.291, 23.626 6275.291, 23.626 6265.291, 23.626 6255.291, 23.626 6245.291, 23.626 6235.291, 23.626 6225.291, 23.626 6215.291, 23.626 6205.291, 23.626 6195.291, 23.626 6191.207, 23.626 6192.855, 33.490 6194.504, 43.353 6196.152, 53.216 6197.801, 63.079 6199.449, 72.942 6201.098, 82.805 6202.746, 92.669 6204.395, 102.532 6206.043, 112.395 6207.692, 122.258 6209.405, 132.506 6211.389, 142.307 6213.373, 152.108 6215.356, 161.910 6217.340, 171.711 6219.324, 181.512 6221.308, 191.313 6223.292, 201.115 6225.275, 210.916 6227.259, 220.717 6229.243, 230.518 6231.227, 240.320 6233.211, 250.121 6235.195, 259.922 6237.178, 269.723 6239.162, 279.524 6241.146, 289.326 6243.130, 299.127 6245.114, 308.928 6247.098, 318.729 6249.082, 328.531 6251.065, 338.332 6253.049, 348.133 6255.033, 357.934 6257.017, 367.736 6259.000, 377.537 6260.984, 387.338 6262.968, 397.139 6264.952, 406.941 6266.936, 416.742 6268.920, 426.543 6270.904, 436.344 6272.888, 446.146 6274.872, 455.947 6276.855, 465.748 6278.839, 475.549 6280.823, 485.351 6282.807, 495.152 6284.791, 504.953 6286.774, 514.754 6288.758, 524.556 6290.742, 534.357 6292.726, 544.158 6294.710, 553.959 6296.694, 563.760 6298.678, 573.562 6300.662, 583.363 6302.646, 593.164 6304.629, 602.966 6306.613, 612.767 6308.597, 622.568 6310.581, 632.369 6312.564, 642.170 6314.548, 651.972 6316.532, 661.773 6318.516, 671.574 6320.500, 681.375 6322.484, 691.177 6324.468, 700.978 6326.287, 709.968 6325.921, 719.961 6325.556, 729.954 6325.190, 739.948 6324.825, 749.941 6324.459, 759.934 6324.094, 769.927 6323.729, 779.921 6323.363, 789.914 6322.997, 799.907 6322.632, 809.901 6322.266, 819.894 6321.901, 829.887 6321.535, 839.881 6321.169, 849.874 6320.804, 859.867 6320.438, 869.861 6320.073, 879.854 6319.708, 889.847 6319.342, 899.841 6318.977, 909.834 6318.611, 919.827 6318.246, 929.821 6317.880, 939.814 6317.514, 949.807 6317.149, 959.801 6316.783, 969.794 6316.418, 979.787 6316.052, 989.780 6315.687, 999.774 6315.321, 1009.767 6314.956, 1019.760 6314.590, 1029.754 6314.225, 1039.747 6313.859, 1049.740 6313.494, 1059.734 6313.128, 1069.727 6312.762, 1079.720 6312.397, 1089.714 6312.031, 1099.707 6311.666, 1109.700 6311.300, 1119.693 6310.935, 1129.687 6310.569, 1139.680 6310.045, 1154.008 " />
            <path fill="none" stroke-width="3.0" stroke-linecap="butt" stroke-opacity="1.0" stroke="rgb(0, 0, 0)" stroke-linejoin="round" d=" M 8086.184, 1642.469 8085.261, 1632.512 8084.338, 1622.554 8083.416, 1612.597 8082.493, 1602.640 8081.570, 1592.682 8080.647, 1582.725 8079.724, 1572.768 8078.801, 1562.810 8077.878, 1552.853 8076.956, 1542.896 8076.033, 1532.938 8075.110, 1522.981 8074.187, 1513.024 8073.264, 1503.067 8072.341, 1493.109 8071.418, 1483.152 8070.496, 1473.194 8069.573, 1463.237 8068.650, 1453.280 8067.727, 1443.323 8066.804, 1433.365 8065.881, 1423.408 8064.958, 1413.451 8064.036, 1403.493 8063.113, 1393.536 8062.190, 1383.579 8061.267, 1373.621 8060.344, 1363.664 8059.421, 1353.707 8058.499, 1343.749 8057.576, 1333.792 8056.653, 1323.835 8055.730, 1313.877 8054.807, 1303.920 8053.884, 1293.963 8052.961, 1284.005 8052.039, 1274.048 8051.116, 1264.091 8050.193, 1254.133 8049.270, 1244.176 8048.347, 1234.219 8047.424, 1224.261 8046.501, 1214.304 8045.579, 1204.347 8044.656, 1194.389 8043.733, 1184.432 8042.810, 1174.475 8041.887, 1164.517 8040.964, 1154.560 8040.042, 1144.603 8039.119, 1134.645 8038.196, 1124.688 8037.273, 1114.731 8036.350, 1104.773 8035.427, 1094.816 8034.504, 1084.859 8033.582, 1074.901 8032.207, 1060.075 8031.006, 1051.645 8031.687, 1041.668 8032.368, 1031.692 8033.049, 1021.715 8033.730, 1011.738 8034.411, 1001.761 8035.092, 991.785 8035.773, 981.808 8036.454, 971.831 8037.135, 961.854 8037.816, 951.877 8038.497, 941.901 8039.178, 931.924 8039.858, 921.947 8040.540, 911.970 8041.220, 901.993 8041.901, 892.017 8042.582, 882.040 8043.263, 872.063 8043.944, 862.086 8044.625, 852.110 8045.306, 842.133 8045.987, 832.156 8046.668, 822.179 8047.349, 812.202 8048.030, 802.226 8048.711, 792.249 8049.392, 782.272 8050.073, 772.295 8050.753, 762.318 8051.435, 752.342 8052.115, 742.365 8052.796, 732.388 8053.477, 722.411 8054.158, 712.435 8054.839, 702.458 8055.520, 692.481 8056.201, 682.504 8056.882, 672.527 8057.563, 662.551 8058.244, 652.574 8058.925, 642.597 8059.606, 632.620 8060.287, 622.643 8061.258, 608.413 " />
            <path fill="none" stroke-width="3.0" stroke-linecap="butt" stroke-opacity="1.0" stroke="rgb(0, 0, 0)" stroke-linejoin="round" d=" M 8160.081, 2684.816 8158.672, 2674.916 8157.262, 2665.016 8155.853, 2655.116 8154.443, 2645.215 8153.034, 2635.315 8151.625, 2625.415 8150.215, 2615.515 8148.806, 2605.615 8147.396, 2595.715 8145.987, 2585.814 8144.577, 2575.914 8143.168, 2566.014 8141.758, 2556.114 8140.349, 2546.214 8138.939, 2536.314 8137.530, 2526.413 8136.121, 2516.513 8134.711, 2506.613 8133.302, 2496.713 8131.892, 2486.813 8130.483, 2476.912 8129.073, 2467.012 8127.664, 2457.112 8126.254, 2447.212 8124.845, 2437.312 8123.436, 2427.412 8122.026, 2417.511 8120.617, 2407.611 8119.207, 2397.711 8117.798, 2387.811 8116.388, 2377.911 8114.979, 2368.011 8113.569, 2358.110 8112.160, 2348.210 8110.750, 2338.310 8109.341, 2328.410 8107.932, 2318.510 8106.522, 2308.609 8105.113, 2298.709 8103.703, 2288.809 8102.294, 2278.909 8100.884, 2269.009 8099.475, 2259.109 8098.065, 2249.208 8096.656, 2239.308 8095.247, 2229.408 8093.837, 2219.508 8092.428, 2209.608 8091.018, 2199.708 8089.609, 2189.807 8088.199, 2179.907 8086.790, 2170.007 8085.380, 2160.107 8083.971, 2150.207 8082.562, 2140.307 8081.152, 2130.406 8079.743, 2120.506 8078.333, 2110.606 8076.924, 2100.706 8075.514, 2090.806 8074.105, 2080.906 8072.695, 2071.005 8071.286, 2061.105 8069.876, 2051.205 8068.467, 2041.305 8067.058, 2031.405 8064.989, 2016.875 8065.554, 2006.891 8066.119, 1996.907 8066.685, 1986.923 8067.250, 1976.939 8067.815, 1966.955 8068.380, 1956.971 8068.945, 1946.987 8069.511, 1937.003 8070.076, 1927.019 8070.641, 1917.035 8071.206, 1907.051 8071.771, 1897.067 8072.336, 1887.083 8072.902, 1877.099 8073.467, 1867.115 8074.032, 1857.130 8074.597, 1847.146 8075.163, 1837.162 8075.728, 1827.178 8076.293, 1817.194 8076.858, 1807.210 8077.423, 1797.226 8077.988, 1787.242 8078.554, 1777.258 8079.119, 1767.274 8079.684, 1757.290 8080.249, 1747.306 8080.814, 1737.322 8081.380, 1727.338 8081.945, 1717.354 8082.510, 1707.370 8083.075, 1697.386 8083.641, 1687.402 8084.206, 1677.418 8084.771, 1667.434 8085.336, 1657.450 8085.901, 1647.466 8086.184, 1642.469 " />
            <path fill="none" stroke-width="3.0" stroke-linecap="butt" stroke-opacity="1.0" stroke="rgb(0, 0, 0)" stroke-linejoin="round" d=" M 645.808, 1112.425 649.341, 1121.780 652.875, 1131.135 656.409, 1140.490 659.943, 1149.845 663.476, 1159.199 667.010, 1168.554 670.544, 1177.909 674.077, 1187.264 677.611, 1196.619 681.145, 1205.974 684.679, 1215.328 688.212, 1224.683 691.746, 1234.038 695.280, 1243.393 698.813, 1252.748 702.347, 1262.103 705.881, 1271.457 709.415, 1280.812 712.948, 1290.167 716.482, 1299.522 720.016, 1308.877 723.549, 1318.232 727.083, 1327.586 730.617, 1336.941 734.151, 1346.296 737.684, 1355.651 741.218, 1365.006 744.752, 1374.361 748.285, 1383.715 751.819, 1393.070 755.353, 1402.425 758.886, 1411.780 762.420, 1421.135 765.954, 1430.490 769.488, 1439.844 773.021, 1449.199 776.555, 1458.554 780.089, 1467.909 783.622, 1477.264 787.156, 1486.619 790.690, 1495.973 794.224, 1505.328 797.757, 1514.683 801.291, 1524.038 804.825, 1533.393 808.358, 1542.748 811.892, 1552.102 815.426, 1561.457 818.960, 1570.812 822.493, 1580.167 826.027, 1589.522 829.561, 1598.877 833.094, 1608.231 836.628, 1617.586 840.162, 1626.941 843.695, 1636.296 847.229, 1645.651 850.763, 1655.006 854.297, 1664.360 857.830, 1673.715 861.364, 1683.070 864.898, 1692.425 868.431, 1701.780 871.965, 1711.135 875.499, 1720.489 879.053, 1729.897 880.241, 1739.826 881.429, 1749.755 882.617, 1759.685 883.806, 1769.614 884.994, 1779.543 886.182, 1789.472 887.371, 1799.401 888.559, 1809.330 889.747, 1819.259 890.936, 1829.188 892.124, 1839.118 893.312, 1849.047 894.500, 1858.976 895.689, 1868.905 896.877, 1878.834 898.065, 1888.763 899.254, 1898.693 900.442, 1908.622 901.630, 1918.551 902.819, 1928.480 903.310, 1932.582 906.038, 1942.203 908.767, 1951.823 911.496, 1961.444 914.224, 1971.064 916.953, 1980.685 919.682, 1990.305 922.411, 1999.926 925.139, 2009.546 927.868, 2019.167 930.597, 2028.787 933.326, 2038.408 936.054, 2048.028 938.783, 2057.649 939.163, 2058.989 944.135, 2067.666 949.108, 2076.342 954.080, 2085.018 959.052, 2093.695 964.024, 2102.371 968.996, 2111.047 973.968, 2119.723 978.940, 2128.400 983.912, 2137.076 988.884, 2145.752 993.856, 2154.429 998.828, 2163.105 1003.801, 2171.781 1008.773, 2180.458 1013.745, 2189.134 1018.717, 2197.810 1023.689, 2206.487 1028.661, 2215.163 1033.633, 2223.839 1038.605, 2232.516 1043.577, 2241.192 1048.549, 2249.868 1053.521, 2258.544 1058.494, 2267.221 1063.466, 2275.897 1068.438, 2284.573 1073.410, 2293.250 1078.382, 2301.926 1083.354, 2310.602 1088.326, 2319.279 1093.298, 2327.955 1098.270, 2336.631 1103.242, 2345.307 1108.214, 2353.984 1113.186, 2362.660 1118.158, 2371.336 1123.131, 2380.013 1128.103, 2388.689 1133.075, 2397.365 1138.047, 2406.042 1143.019, 2414.718 1147.991, 2423.394 1152.963, 2432.071 1157.935, 2440.747 1162.907, 2449.423 1167.879, 2458.100 1172.851, 2466.776 1178.350, 2476.370 1183.156, 2485.139 1187.963, 2493.908 1189.000, 2495.801 1192.886, 2505.015 1196.773, 2514.229 1200.659, 2523.443 1204.545, 2532.657 1208.431, 2541.871 1212.317, 2551.085 1216.203, 2560.299 1220.090, 2569.513 1223.976, 2578.727 1227.862, 2587.941 1231.748, 2597.155 1235.634, 2606.369 1239.521, 2615.583 1243.407, 2624.797 1247.293, 2634.011 1251.179, 2643.225 1255.065, 2652.439 1258.951, 2661.653 1262.838, 2670.867 1266.724, 2680.081 1270.610, 2689.295 1274.496, 2698.509 1278.382, 2707.723 1282.268, 2716.937 1286.155, 2726.151 1290.041, 2735.365 1293.927, 2744.579 1297.813, 2753.793 1301.699, 2763.007 1305.585, 2772.221 1309.471, 2781.435 1313.358, 2790.649 1317.244, 2799.863 1321.130, 2809.077 1325.016, 2818.291 1328.902, 2827.505 1332.788, 2836.719 1336.675, 2845.933 1340.561, 2855.147 1344.447, 2864.361 1348.051, 2872.906 1349.945, 2882.725 1351.839, 2892.544 1353.734, 2902.363 1355.628, 2912.182 1357.522, 2922.001 1359.416, 2931.820 1361.310, 2941.639 1363.204, 2951.458 1365.098, 2961.277 1366.993, 2971.096 1368.887, 2980.915 1370.781, 2990.734 1372.675, 3000.553 1374.569, 3010.372 1376.463, 3020.191 1378.357, 3030.010 1380.251, 3039.829 1382.146, 3049.648 1384.040, 3059.467 1385.934, 3069.286 1387.828, 3079.105 1388.653, 3083.384 " />
            <path fill="none" stroke-width="3.0" stroke-linecap="butt" stroke-opacity="1.0" stroke="rgb(0, 0, 0)" stroke-linejoin="round" d=" M 599.006, 1030.991 603.989, 1039.662 608.972, 1048.332 613.955, 1057.002 618.938, 1065.672 623.920, 1074.342 628.903, 1083.012 633.886, 1091.682 638.869, 1100.352 643.852, 1109.022 645.808, 1112.425 " />
            <path fill="none" stroke-width="3.0" stroke-linecap="butt" stroke-opacity="1.0" stroke="rgb(0, 0, 0)" stroke-linejoin="round" d=" M 123.300, 341.596 128.037, 350.403 132.775, 359.209 137.512, 368.016 142.250, 376.822 146.987, 385.629 151.725, 394.436 156.462, 403.242 161.200, 412.049 165.937, 420.855 170.675, 429.662 175.412, 438.469 180.150, 447.275 184.887, 456.082 189.625, 464.888 194.362, 473.695 199.100, 482.501 203.837, 491.308 208.575, 500.115 213.312, 508.921 218.050, 517.728 222.787, 526.534 227.525, 535.341 232.262, 544.147 237.000, 552.954 241.737, 561.761 246.475, 570.567 251.212, 579.374 255.950, 588.180 260.688, 596.987 265.425, 605.793 270.163, 614.600 274.900, 623.407 279.638, 632.213 284.375, 641.020 289.113, 649.826 293.850, 658.633 298.588, 667.440 303.325, 676.246 308.063, 685.053 312.800, 693.859 317.538, 702.666 322.275, 711.473 327.013, 720.279 331.750, 729.086 336.488, 737.892 341.225, 746.699 345.963, 755.506 350.700, 764.312 355.438, 773.119 360.175, 781.925 364.913, 790.732 369.650, 799.539 374.388, 808.345 379.125, 817.152 383.863, 825.958 388.600, 834.765 393.738, 844.315 401.136, 851.043 408.534, 857.771 415.932, 864.500 423.331, 871.228 430.729, 877.956 438.127, 884.684 445.525, 891.412 452.923, 898.140 460.321, 904.868 467.719, 911.596 475.118, 918.324 482.516, 925.052 489.914, 931.780 497.312, 938.509 504.710, 945.237 512.108, 951.965 519.507, 958.693 526.905, 965.421 534.303, 972.149 541.701, 978.877 549.099, 985.605 556.497, 992.333 563.896, 999.061 571.294, 1005.789 578.692, 1012.518 586.090, 1019.246 593.488, 1025.974 599.006, 1030.991 " />
            <path fill="none" stroke-width="3.0" stroke-linecap="butt" stroke-opacity="1.0" stroke="rgb(0, 0, 0)" stroke-linejoin="round" d=" M 3104.401, 2892.930 3101.882, 2890.348 3099.496, 2887.644 3097.247, 2884.824 3095.141, 2881.895 3093.184, 2878.865 3091.381, 2875.741 3089.735, 2872.531 3088.251, 2869.243 3086.934, 2865.886 3085.785, 2862.467 3084.808, 2858.995 3084.005, 2855.478 3083.379, 2851.926 3082.931, 2848.347 3082.661, 2844.750 3082.571, 2841.144 3082.661, 2837.538 3082.931, 2833.941 3083.379, 2830.362 3084.005, 2826.810 3084.808, 2823.294 3085.785, 2819.821 3086.934, 2816.402 3088.251, 2813.044 3089.735, 2809.757 3091.381, 2806.547 3093.184, 2803.424 3095.141, 2800.393 3097.247, 2797.465 3099.496, 2794.645 3101.882, 2791.940 3104.401, 2789.358 3107.045, 2786.905 3109.808, 2784.586 3112.683, 2782.408 3115.663, 2780.376 3118.741, 2778.496 3121.909, 2776.771 3125.159, 2775.206 3128.482, 2773.805 3131.872, 2772.571 3135.319, 2771.507 3138.814, 2770.618 3142.350, 2769.903 3145.916, 2769.365 3149.505, 2769.006 3153.108, 2768.826 3156.715, 2768.826 3160.317, 2769.006 3163.906, 2769.365 3167.473, 2769.903 3171.009, 2770.618 3174.504, 2771.507 3177.951, 2772.571 3181.340, 2773.805 3184.664, 2775.206 3187.914, 2776.771 3191.081, 2778.496 3194.159, 2780.376 3197.139, 2782.408 3200.015, 2784.586 3202.778, 2786.905 3205.422, 2789.358 3207.940, 2791.940 3210.327, 2794.645 3212.576, 2797.465 3214.681, 2800.393 3216.638, 2803.424 3218.442, 2806.547 3220.088, 2809.757 3221.571, 2813.044 3222.889, 2816.402 3224.038, 2819.821 3225.014, 2823.294 3225.817, 2826.810 3226.444, 2830.362 3226.892, 2833.941 3227.162, 2837.538 3227.251, 2841.144 3227.162, 2844.750 3226.892, 2848.347 3226.444, 2851.926 3225.817, 2855.478 3225.014, 2858.995 3224.038, 2862.467 3222.889, 2865.886 3221.571, 2869.243 3220.088, 2872.531 3218.442, 2875.741 3216.638, 2878.865 3214.681, 2881.895 3212.576, 2884.824 3210.327, 2887.644 3207.940, 2890.348 3205.422, 2892.930 3202.778, 2895.384 3200.015, 2897.702 3197.139, 2899.880 3194.159, 2901.912 3191.081, 2903.793 3187.914, 2905.518 3184.664, 2907.083 3181.340, 2908.484 3177.951, 2909.717 3174.504, 2910.780 3171.009, 2911.671 3167.473, 2912.385 3163.906, 2912.923 3160.317, 2913.282 3156.715, 2913.462 3153.108, 2913.462 3149.505, 2913.282 3145.916, 2912.923 3142.350, 2912.385 3138.814, 2911.671 3135.319, 2910.780 3131.872, 2909.717 3128.482, 2908.484 3125.159, 2907.083 3121.909, 2905.518 3118.741, 2903.793 3115.663, 2901.912 3112.683, 2899.880 3109.808, 2897.702 3107.045, 2895.384 3104.401, 2892.930 " />
            <path fill="none" stroke-width="3.0" stroke-linecap="butt" stroke-opacity="1.0" stroke="rgb(0, 0, 0)" stroke-linejoin="round" d=" M 1388.653, 3083.384 1398.653, 3083.384 1408.653, 3083.384 1418.653, 3083.384 1428.653, 3083.384 1438.653, 3083.384 1448.653, 3083.384 1458.653, 3083.384 1468.653, 3083.384 1478.653, 3083.384 1488.653, 3083.384 1498.653, 3083.384 1508.653, 3083.384 1518.653, 3083.384 1528.653, 3083.384 1538.653, 3083.384 1548.653, 3083.384 1558.653, 3083.384 1568.653, 3083.384 1578.653, 3083.384 1588.653, 3083.384 1598.653, 3083.384 1608.653, 3083.384 1618.653, 3083.384 1628.653, 3083.384 1638.653, 3083.384 1648.653, 3083.384 1658.653, 3083.384 1668.653, 3083.384 1678.653, 3083.384 1688.653, 3083.384 1698.653, 3083.384 1708.653, 3083.384 1718.653, 3083.384 1728.653, 3083.384 1738.653, 3083.384 1748.653, 3083.384 1758.653, 3083.384 1768.653, 3083.384 1778.653, 3083.384 1788.653, 3083.384 1798.653, 3083.384 1808.653, 3083.384 1818.653, 3083.384 1828.653, 3083.384 1838.653, 3083.384 1848.653, 3083.384 1858.653, 3083.384 1868.653, 3083.384 1878.653, 3083.384 1888.653, 3083.384 1898.653, 3083.384 1908.653, 3083.384 1918.653, 3083.384 1928.653, 3083.384 1938.653, 3083.384 1948.653, 3083.384 1958.653, 3083.384 1968.653, 3083.384 1978.653, 3083.384 1988.653, 3083.384 1998.653, 3083.384 2008.653, 3083.384 2018.653, 3083.384 2028.653, 3083.384 2038.653, 3083.384 2048.653, 3083.384 2058.653, 3083.384 2068.653, 3083.384 2078.653, 3083.384 2088.653, 3083.384 2098.653, 3083.384 2108.653, 3083.384 2118.653, 3083.384 2128.653, 3083.384 2138.653, 3083.384 2148.653, 3083.384 2158.653, 3083.384 2168.653, 3083.384 2178.653, 3083.384 2188.653, 3083.384 2198.653, 3083.384 2208.653, 3083.384 2218.653, 3083.384 2228.653, 3083.384 2238.653, 3083.384 2248.653, 3083.384 2258.653, 3083.384 2268.653, 3083.384 2278.653, 3083.384 2288.653, 3083.384 2298.653, 3083.384 2308.653, 3083.384 2318.653, 3083.384 2328.653, 3083.384 2338.653, 3083.384 2348.653, 3083.384 2358.653, 3083.384 2368.653, 3083.384 2378.653, 3083.384 2388.653, 3083.384 2398.653, 3083.384 2408.653, 3083.384 2418.653, 3083.384 2428.653, 3083.384 2438.653, 3083.384 2448.653, 3083.384 2458.653, 3083.384 2468.653, 3083.384 2478.653, 3083.384 2488.653, 3083.384 2498.653, 3083.384 2508.653, 3083.384 2518.653, 3083.384 2528.653, 3083.384 2538.653, 3083.384 2548.653, 3083.384 2558.653, 3083.384 2568.653, 3083.384 2578.653, 3083.384 2588.653, 3083.384 2598.653, 3083.384 2608.653, 3083.384 2621.611, 3083.384 2627.410, 3083.384 2633.306, 3083.384 2639.283, 3083.384 2645.327, 3083.384 2651.421, 3083.384 2657.549, 3083.384 2663.693, 3083.384 2669.837, 3083.384 2679.837, 3083.384 2689.837, 3083.384 2699.837, 3083.384 2709.837, 3083.384 2719.837, 3083.384 2729.837, 3083.384 2739.837, 3083.384 2749.837, 3083.384 2759.837, 3083.384 2769.837, 3083.384 2779.837, 3083.384 2782.016, 3083.384 2787.366, 3083.384 2797.366, 3083.384 2807.366, 3083.384 2817.366, 3083.384 2827.366, 3083.384 2837.366, 3083.384 2847.366, 3083.384 2857.366, 3083.384 2858.078, 3083.384 2862.835, 3083.384 2867.599, 3083.384 2872.354, 3083.384 2877.088, 3083.384 2881.787, 3083.384 2886.438, 3083.384 2891.026, 3083.384 2895.538, 3083.384 2899.961, 3083.384 2904.280, 3083.384 2914.280, 3083.384 2924.280, 3083.384 2934.280, 3083.384 2944.280, 3083.384 2954.280, 3083.384 2964.280, 3083.384 2974.280, 3083.384 2984.280, 3083.384 2989.392, 3083.384 2999.392, 3083.384 3009.392, 3083.384 3019.392, 3083.384 3029.392, 3083.384 3039.392, 3083.384 3049.392, 3083.384 3059.392, 3083.384 3069.392, 3083.384 3079.392, 3083.384 3089.392, 3083.384 3099.392, 3083.384 3109.392, 3083.384 3119.392, 3083.384 3129.392, 3083.384 3139.392, 3083.384 3149.392, 3083.384 3159.392, 3083.384 3169.392, 3083.384 3179.392, 3083.384 3189.392, 3083.384 3199.392, 3083.384 3209.392, 3083.384 3219.392, 3083.384 3229.392, 3083.384 3239.392, 3083.384 3249.392, 3083.384 3259.392, 3083.384 3269.392, 3083.384 3279.392, 3083.384 3290.536, 3083.384 3292.214, 3083.384 3294.059, 3083.384 3296.065, 3083.384 3298.226, 3083.384 3300.536, 3083.384 3302.987, 3083.384 3305.572, 3083.384 3308.281, 3083.384 3318.281, 3083.384 3328.281, 3083.384 3338.281, 3083.384 3348.281, 3083.384 3358.281, 3083.384 3368.281, 3083.384 3378.281, 3083.384 3383.581, 3083.384 3385.966, 3083.384 3388.488, 3083.384 3391.137, 3083.384 3393.903, 3083.384 3396.774, 3083.384 3399.741, 3083.384 3402.791, 3083.384 3405.913, 3083.384 3409.095, 3083.384 3412.325, 3083.384 3415.592, 3083.384 3418.883, 3083.384 3422.188, 3083.384 3432.188, 3083.384 3442.188, 3083.384 3452.188, 3083.384 3462.188, 3083.384 3472.188, 3083.384 3482.188, 3083.384 3492.188, 3083.384 3502.188, 3083.384 3512.188, 3083.384 3522.188, 3083.384 3532.188, 3083.384 3542.188, 3083.384 3552.188, 3083.384 3562.188, 3083.384 3572.188, 3083.384 3582.188, 3083.384 3592.188, 3083.384 3602.188, 3083.384 3612.188, 3083.384 3622.188, 3083.384 3632.188, 3083.384 3642.188, 3083.384 3652.188, 3083.384 3662.188, 3083.384 3672.188, 3083.384 3682.188, 3083.384 3692.188, 3083.384 3696.142, 3083.384 3694.058, 3073.603 3691.974, 3063.823 3689.890, 3054.043 3687.806, 3044.262 3685.722, 3034.482 3683.638, 3024.701 3681.554, 3014.921 3679.469, 3005.140 3677.385, 2995.360 3675.301, 2985.580 3673.217, 2975.799 3671.133, 2966.019 3669.049, 2956.238 3666.965, 2946.458 3664.881, 2936.678 3662.797, 2926.897 3660.713, 2917.117 3658.629, 2907.336 3656.544, 2897.556 3655.265, 2891.551 " />
            <path fill="none" stroke-width="3.0" stroke-linecap="butt" stroke-opacity="1.0" stroke="rgb(0, 0, 0)" stroke-linejoin="round" d=" M 3096.734, 1270.678 3097.060, 1260.684 3097.386, 1250.689 3097.713, 1240.694 3098.039, 1230.700 3098.365, 1220.705 3098.692, 1210.710 3099.018, 1200.716 3099.344, 1190.721 3099.671, 1180.726 3099.837, 1175.619 3097.053, 1166.014 3094.269, 1156.409 3091.485, 1146.805 3088.701, 1137.200 3085.917, 1127.595 3083.133, 1117.991 3080.349, 1108.386 3077.564, 1098.781 3074.781, 1089.177 3071.996, 1079.572 3069.212, 1069.968 3066.428, 1060.363 3063.644, 1050.759 3060.860, 1041.154 3058.076, 1031.549 3055.292, 1021.945 3052.508, 1012.340 3049.723, 1002.735 3046.939, 993.131 3044.155, 983.526 3041.371, 973.921 3038.587, 964.317 3035.803, 954.712 3033.019, 945.108 3030.235, 935.503 3027.450, 925.898 3024.666, 916.294 3021.882, 906.689 3019.098, 897.084 3016.314, 887.480 3013.530, 877.875 3010.746, 868.271 3007.962, 858.666 3005.177, 849.062 3002.394, 839.457 2999.609, 829.852 2996.825, 820.248 2994.041, 810.643 2991.257, 801.038 2988.473, 791.434 2985.689, 781.829 2982.905, 772.225 2980.121, 762.620 2977.336, 753.015 2974.552, 743.411 2971.768, 733.806 2968.984, 724.201 2966.200, 714.597 2963.416, 704.992 2960.632, 695.387 2957.848, 685.783 2955.063, 676.178 2952.279, 666.574 2949.495, 656.969 2946.711, 647.365 2943.927, 637.760 2941.143, 628.155 2938.359, 618.551 2935.575, 608.946 2931.837, 596.051 2931.321, 586.064 2931.303, 585.724 2926.289, 577.072 2922.090, 569.828 2917.359, 561.017 2912.629, 552.207 2907.898, 543.397 2903.168, 534.586 2898.437, 525.776 2893.707, 516.966 2888.976, 508.156 2884.245, 499.345 2879.515, 490.535 2874.784, 481.724 2870.054, 472.914 2865.323, 464.104 2860.593, 455.293 2855.862, 446.483 2851.131, 437.673 2846.401, 428.863 2841.670, 420.052 2836.940, 411.242 2832.209, 402.432 2827.479, 393.621 2822.748, 384.811 2818.018, 376.001 2813.287, 367.190 2808.556, 358.380 2803.826, 349.570 2799.095, 340.759 2794.365, 331.949 2789.634, 323.139 2784.904, 314.328 2780.173, 305.518 2775.442, 296.708 2770.712, 287.897 2765.981, 279.087 2761.251, 270.277 2756.520, 261.467 2751.790, 252.656 2747.059, 243.846 2742.328, 235.036 2737.598, 226.225 2732.022, 215.841 2729.058, 206.291 2726.094, 196.740 2723.130, 187.189 2720.165, 177.639 2717.201, 168.088 2714.237, 158.538 2711.273, 148.987 2708.308, 139.437 2705.344, 129.886 2702.380, 120.335 2699.416, 110.785 2696.452, 101.234 2695.531, 98.268 2696.387, 88.304 2697.244, 78.341 2698.101, 68.378 2698.957, 58.415 2699.814, 48.451 2700.670, 38.488 2701.527, 28.525 2701.948, 23.626 2691.948, 23.626 2681.948, 23.626 2676.630, 23.626 2666.630, 23.626 2656.630, 23.626 2646.630, 23.626 2636.630, 23.626 2626.630, 23.626 2616.630, 23.626 2606.630, 23.626 2596.630, 23.626 2586.630, 23.626 2576.630, 23.626 2566.630, 23.626 2556.630, 23.626 2546.630, 23.626 2536.630, 23.626 2526.630, 23.626 2516.630, 23.626 2506.630, 23.626 2496.630, 23.626 2486.630, 23.626 2476.630, 23.626 2466.630, 23.626 2456.630, 23.626 2446.630, 23.626 2436.630, 23.626 2426.630, 23.626 2416.630, 23.626 2406.630, 23.626 2396.630, 23.626 2386.630, 23.626 2376.630, 23.626 2366.630, 23.626 2356.630, 23.626 2346.630, 23.626 2336.630, 23.626 2326.630, 23.626 2316.630, 23.626 2306.630, 23.626 2296.630, 23.626 2286.630, 23.626 2276.630, 23.626 2266.630, 23.626 2256.630, 23.626 2246.630, 23.626 2236.630, 23.626 2226.630, 23.626 2216.630, 23.626 2206.630, 23.626 2196.630, 23.626 2186.630, 23.626 2176.630, 23.626 2166.630, 23.626 2156.630, 23.626 2146.630, 23.626 2136.630, 23.626 2126.630, 23.626 2116.630, 23.626 2106.630, 23.626 2096.630, 23.626 2086.630, 23.626 2076.630, 23.626 2066.630, 23.626 2056.630, 23.626 2046.630, 23.626 2036.630, 23.626 2026.630, 23.626 2016.630, 23.626 2006.630, 23.626 1996.630, 23.626 1986.630, 23.626 1976.630, 23.626 1966.630, 23.626 1956.630, 23.626 1946.630, 23.626 1936.630, 23.626 1926.630, 23.626 1917.828, 23.626 1914.831, 23.626 1911.870, 23.626 1908.955, 23.626 1906.094, 23.626 1896.094, 23.626 1886.094, 23.626 1876.094, 23.626 1866.094, 23.626 1856.094, 23.626 1846.094, 23.626 1836.094, 23.626 1826.094, 23.626 1816.094, 23.626 1806.094, 23.626 1796.094, 23.626 1786.094, 23.626 1776.094, 23.626 1766.094, 23.626 1755.744, 23.626 1752.644, 23.626 1749.602, 23.626 1746.627, 23.626 1743.729, 23.626 1733.729, 23.626 1723.729, 23.626 1713.729, 23.626 1703.729, 23.626 1693.729, 23.626 1683.729, 23.626 1673.729, 23.626 1663.729, 23.626 1653.729, 23.626 1643.729, 23.626 1633.729, 23.626 1623.729, 23.626 1613.729, 23.626 1603.729, 23.626 1593.729, 23.626 1583.729, 23.626 1573.729, 23.626 1563.729, 23.626 1553.729, 23.626 1543.729, 23.626 1533.729, 23.626 1523.729, 23.626 1513.729, 23.626 1503.729, 23.626 1493.729, 23.626 1483.729, 23.626 1473.729, 23.626 1463.729, 23.626 1453.729, 23.626 1443.729, 23.626 1433.729, 23.626 1423.729, 23.626 1413.729, 23.626 1403.729, 23.626 1393.729, 23.626 1383.729, 23.626 1373.729, 23.626 1363.729, 23.626 1353.729, 23.626 1343.729, 23.626 1333.729, 23.626 1323.729, 23.626 1313.729, 23.626 1303.729, 23.626 1293.729, 23.626 1283.729, 23.626 1273.729, 23.626 1263.729, 23.626 1253.729, 23.626 1243.729, 23.626 1233.729, 23.626 1223.729, 23.626 1213.729, 23.626 1203.729, 23.626 1193.729, 23.626 1183.729, 23.626 1173.729, 23.626 1163.729, 23.626 1153.729, 23.626 1143.729, 23.626 1133.729, 23.626 1123.729, 23.626 1113.729, 23.626 1103.729, 23.626 1093.729, 23.626 1083.729, 23.626 1073.729, 23.626 1063.729, 23.626 1053.729, 23.626 1043.729, 23.626 1033.729, 23.626 1023.729, 23.626 1013.729, 23.626 1003.729, 23.626 993.729, 23.626 983.729, 23.626 973.729, 23.626 963.729, 23.626 953.729, 23.626 943.729, 23.626 933.729, 23.626 923.729, 23.626 913.729, 23.626 903.729, 23.626 893.729, 23.626 883.729, 23.626 873.729, 23.626 863.729, 23.626 853.729, 23.626 843.729, 23.626 833.729, 23.626 823.729, 23.626 813.729, 23.626 803.729, 23.626 793.729, 23.626 783.729, 23.626 773.729, 23.626 763.729, 23.626 753.729, 23.626 743.729, 23.626 733.729, 23.626 723.729, 23.626 713.729, 23.626 703.729, 23.626 693.729, 23.626 683.729, 23.626 673.729, 23.626 663.729, 23.626 653.729, 23.626 643.729, 23.626 633.729, 23.626 623.729, 23.626 613.729, 23.626 603.729, 23.626 593.729, 23.626 583.729, 23.626 573.729, 23.626 563.729, 23.626 553.729, 23.626 543.729, 23.626 533.729, 23.626 523.729, 23.626 513.729, 23.626 503.729, 23.626 493.729, 23.626 483.729, 23.626 473.729, 23.626 463.729, 23.626 453.729, 23.626 443.729, 23.626 433.729, 23.626 423.729, 23.626 413.729, 23.626 403.729, 23.626 393.729, 23.626 383.729, 23.626 373.729, 23.626 363.729, 23.626 353.729, 23.626 343.729, 23.626 333.729, 23.626 323.729, 23.626 313.729, 23.626 303.729, 23.626 287.051, 23.626 285.474, 23.626 275.474, 23.626 265.474, 23.626 255.474, 23.626 245.474, 23.626 235.474, 23.626 225.474, 23.626 215.474, 23.626 205.474, 23.626 195.474, 23.626 185.474, 23.626 175.474, 23.626 165.474, 23.626 155.474, 23.626 145.474, 23.626 135.474, 23.626 125.474, 23.626 115.474, 23.626 105.474, 23.626 95.474, 23.626 85.474, 23.626 75.474, 23.626 65.474, 23.626 55.474, 23.626 45.474, 23.626 35.474, 23.626 23.846, 23.626 " />
            <path fill="none" stroke-width="3.0" stroke-linecap="butt" stroke-opacity="1.0" stroke="rgb(0, 0, 0)" stroke-linejoin="round" d=" M 2678.093, 1680.049 2675.575, 1677.467 2673.188, 1674.762 2670.939, 1671.942 2668.833, 1669.014 2666.877, 1665.984 2665.073, 1662.860 2663.427, 1659.650 2661.944, 1656.363 2660.626, 1653.005 2659.478, 1649.586 2658.500, 1646.114 2657.698, 1642.597 2657.072, 1639.045 2656.623, 1635.465 2656.354, 1631.869 2656.264, 1628.263 2656.354, 1624.657 2656.623, 1621.061 2657.072, 1617.482 2657.698, 1613.929 2658.500, 1610.412 2659.478, 1606.940 2660.626, 1603.521 2661.944, 1600.163 2663.427, 1596.876 2665.073, 1593.666 2666.877, 1590.542 2668.833, 1587.512 2670.939, 1584.583 2673.188, 1581.764 2675.575, 1579.060 2678.093, 1576.478 2680.737, 1574.024 2683.500, 1571.705 2686.376, 1569.527 2689.356, 1567.496 2692.434, 1565.615 2695.601, 1563.889 2698.851, 1562.324 2702.175, 1560.923 2705.564, 1559.690 2709.011, 1558.626 2712.507, 1557.736 2716.042, 1557.022 2719.609, 1556.484 2723.198, 1556.125 2726.800, 1555.946 2730.407, 1555.946 2734.010, 1556.125 2737.599, 1556.484 2741.166, 1557.022 2744.701, 1557.736 2748.197, 1558.626 2751.643, 1559.690 2755.033, 1560.923 2758.356, 1562.324 2761.606, 1563.889 2764.774, 1565.615 2767.852, 1567.496 2770.832, 1569.527 2773.707, 1571.705 2776.470, 1574.024 2779.114, 1576.478 2781.633, 1579.060 2784.020, 1581.764 2786.269, 1584.583 2788.374, 1587.512 2790.331, 1590.542 2792.135, 1593.666 2793.780, 1596.876 2795.264, 1600.163 2796.581, 1603.521 2797.730, 1606.940 2798.707, 1610.412 2799.510, 1613.929 2800.136, 1617.482 2800.584, 1621.061 2800.854, 1624.657 2800.944, 1628.263 2800.854, 1631.869 2800.584, 1635.465 2800.136, 1639.045 2799.510, 1642.597 2798.707, 1646.114 2797.730, 1649.586 2796.581, 1653.005 2795.264, 1656.363 2793.780, 1659.650 2792.135, 1662.860 2790.331, 1665.984 2788.374, 1669.014 2786.269, 1671.942 2784.020, 1674.762 2781.633, 1677.467 2779.114, 1680.049 2776.470, 1682.502 2773.707, 1684.821 2770.832, 1686.999 2767.852, 1689.031 2764.774, 1690.911 2761.606, 1692.637 2758.356, 1694.202 2755.033, 1695.603 2751.643, 1696.837 2748.197, 1697.900 2744.701, 1698.789 2741.166, 1699.505 2737.599, 1700.042 2734.010, 1700.401 2730.407, 1700.580 2726.800, 1700.580 2723.198, 1700.401 2719.609, 1700.042 2716.042, 1699.505 2712.507, 1698.789 2709.011, 1697.900 2705.564, 1696.837 2702.175, 1695.603 2698.851, 1694.202 2695.601, 1692.637 2692.434, 1690.911 2689.356, 1689.031 2686.376, 1686.999 2683.500, 1684.821 2680.737, 1682.502 2678.093, 1680.049 " />
            <path fill="none" stroke-width="3.0" stroke-linecap="butt" stroke-opacity="1.0" stroke="rgb(0, 0, 0)" stroke-linejoin="round" d=" M 3587.459, 2496.269 3582.947, 2487.344 3578.436, 2478.420 3573.924, 2469.496 3569.412, 2460.571 3564.900, 2451.647 3560.389, 2442.723 3555.877, 2433.798 3551.365, 2424.874 3546.854, 2415.949 3542.342, 2407.025 3537.830, 2398.101 3533.319, 2389.176 3528.807, 2380.252 3524.295, 2371.327 3519.784, 2362.403 3515.272, 2353.479 3510.760, 2344.554 3506.249, 2335.630 3501.737, 2326.705 3497.225, 2317.781 3492.983, 2309.390 3492.843, 2299.391 3492.703, 2289.392 3492.563, 2279.393 3492.423, 2269.394 3492.282, 2259.395 3492.142, 2249.396 3492.002, 2239.397 3491.888, 2231.273 " />
            <path fill="none" stroke-width="3.0" stroke-linecap="butt" stroke-opacity="1.0" stroke="rgb(0, 0, 0)" stroke-linejoin="round" d=" M 7143.596, 2892.930 7141.077, 2890.348 7138.690, 2887.644 7136.441, 2884.824 7134.336, 2881.895 7132.379, 2878.865 7130.576, 2875.741 7128.930, 2872.531 7127.446, 2869.243 7126.129, 2865.886 7124.980, 2862.467 7124.003, 2858.995 7123.201, 2855.478 7122.574, 2851.926 7122.125, 2848.347 7121.856, 2844.750 7121.766, 2841.144 7121.856, 2837.538 7122.125, 2833.941 7122.574, 2830.362 7123.201, 2826.810 7124.003, 2823.294 7124.980, 2819.821 7126.129, 2816.402 7127.446, 2813.044 7128.930, 2809.757 7130.576, 2806.547 7132.379, 2803.424 7134.336, 2800.393 7136.441, 2797.465 7138.690, 2794.645 7141.077, 2791.940 7143.596, 2789.358 7146.240, 2786.905 7149.003, 2784.586 7151.878, 2782.408 7154.858, 2780.376 7157.936, 2778.496 7161.104, 2776.771 7164.354, 2775.206 7167.677, 2773.805 7171.067, 2772.571 7174.513, 2771.507 7178.009, 2770.618 7181.544, 2769.903 7185.111, 2769.365 7188.700, 2769.006 7192.303, 2768.826 7195.910, 2768.826 7199.512, 2769.006 7203.101, 2769.365 7206.668, 2769.903 7210.204, 2770.618 7213.699, 2771.507 7217.146, 2772.571 7220.535, 2773.805 7223.859, 2775.206 7227.108, 2776.771 7230.276, 2778.496 7233.354, 2780.376 7236.334, 2782.408 7239.209, 2784.586 7241.973, 2786.905 7244.617, 2789.358 7247.136, 2791.940 7249.522, 2794.645 7251.771, 2797.465 7253.876, 2800.393 7255.833, 2803.424 7257.637, 2806.547 7259.283, 2809.757 7260.766, 2813.044 7262.083, 2816.402 7263.232, 2819.821 7264.209, 2823.294 7265.012, 2826.810 7265.638, 2830.362 7266.087, 2833.941 7266.356, 2837.538 7266.446, 2841.144 7266.356, 2844.750 7266.087, 2848.347 7265.638, 2851.926 7265.012, 2855.478 7264.209, 2858.995 7263.232, 2862.467 7262.083, 2865.886 7260.766, 2869.243 7259.283, 2872.531 7257.637, 2875.741 7255.833, 2878.865 7253.876, 2881.895 7251.771, 2884.824 7249.522, 2887.644 7247.136, 2890.348 7244.617, 2892.930 7241.973, 2895.384 7239.209, 2897.702 7236.334, 2899.880 7233.354, 2901.912 7230.276, 2903.793 7227.108, 2905.518 7223.859, 2907.083 7220.535, 2908.484 7217.146, 2909.717 7213.699, 2910.780 7210.204, 2911.671 7206.668, 2912.385 7203.101, 2912.923 7199.512, 2913.282 7195.910, 2913.462 7192.303, 2913.462 7188.700, 2913.282 7185.111, 2912.923 7181.544, 2912.385 7178.009, 2911.671 7174.513, 2910.780 7171.067, 2909.717 7167.677, 2908.484 7164.354, 2907.083 7161.104, 2905.518 7157.936, 2903.793 7154.858, 2901.912 7151.878, 2899.880 7149.003, 2897.702 7146.240, 2895.384 7143.596, 2892.930 " />
            <path fill="none" stroke-width="3.0" stroke-linecap="butt" stroke-opacity="1.0" stroke="rgb(0, 0, 0)" stroke-linejoin="round" d=" M 6453.130, 3083.384 6463.130, 3083.384 6473.130, 3083.384 6483.130, 3083.384 6493.130, 3083.384 6503.130, 3083.384 6513.130, 3083.384 6523.130, 3083.384 6533.130, 3083.384 6543.130, 3083.384 6553.130, 3083.384 6563.130, 3083.384 6573.130, 3083.384 6583.130, 3083.384 6593.130, 3083.384 6603.130, 3083.384 6613.130, 3083.384 6623.130, 3083.384 6633.130, 3083.384 6643.130, 3083.384 6653.130, 3083.384 6663.130, 3083.384 6673.130, 3083.384 6676.763, 3083.384 6679.707, 3083.384 6682.651, 3083.384 6685.583, 3083.384 6688.492, 3083.384 6691.365, 3083.384 6701.365, 3083.384 6711.365, 3083.384 6721.365, 3083.384 6731.365, 3083.384 6741.365, 3083.384 6751.365, 3083.384 6761.365, 3083.384 6771.365, 3083.384 6781.365, 3083.384 6791.365, 3083.384 6801.365, 3083.384 6811.365, 3083.384 6821.365, 3083.384 6831.365, 3083.384 6841.365, 3083.384 6851.365, 3083.384 6861.365, 3083.384 6871.365, 3083.384 6881.365, 3083.384 6889.620, 3083.384 6893.292, 3083.384 6896.919, 3083.384 6900.487, 3083.384 6903.984, 3083.384 6907.396, 3083.384 6910.711, 3083.384 6913.916, 3083.384 6916.998, 3083.384 6919.946, 3083.384 6922.750, 3083.384 6925.397, 3083.384 6927.878, 3083.384 6937.878, 3083.384 6947.878, 3083.384 6957.878, 3083.384 6967.878, 3083.384 6977.354, 3083.384 6979.959, 3083.384 6982.395, 3083.384 6992.395, 3083.384 7002.395, 3083.384 7012.395, 3083.384 7022.395, 3083.384 7032.395, 3083.384 7042.395, 3083.384 7052.395, 3083.384 7062.395, 3083.384 7072.395, 3083.384 7082.395, 3083.384 7092.395, 3083.384 7102.395, 3083.384 7112.395, 3083.384 7122.395, 3083.384 7132.395, 3083.384 7142.395, 3083.384 7152.395, 3083.384 7162.395, 3083.384 7172.395, 3083.384 7182.395, 3083.384 7192.395, 3083.384 7202.395, 3083.384 7212.395, 3083.384 7222.395, 3083.384 7232.395, 3083.384 7242.395, 3083.384 7252.395, 3083.384 7262.395, 3083.384 7272.395, 3083.384 7282.395, 3083.384 7292.395, 3083.384 7302.395, 3083.384 7312.395, 3083.384 7322.395, 3083.384 7332.395, 3083.384 7338.397, 3083.384 7341.661, 3083.384 7345.027, 3083.384 7348.482, 3083.384 7358.482, 3083.384 7368.482, 3083.384 7378.482, 3083.384 7388.482, 3083.384 7394.444, 3083.384 7398.005, 3083.384 7401.666, 3083.384 7405.417, 3083.384 7409.245, 3083.384 7419.245, 3083.384 7429.245, 3083.384 7439.245, 3083.384 7449.245, 3083.384 7459.245, 3083.384 7469.245, 3083.384 7479.245, 3083.384 7489.245, 3083.384 7499.245, 3083.384 7509.245, 3083.384 7518.022, 3083.384 7522.062, 3083.384 7526.205, 3083.384 7530.435, 3083.384 7534.739, 3083.384 7539.102, 3083.384 7543.509, 3083.384 7547.946, 3083.384 7552.398, 3083.384 7556.852, 3083.384 7561.292, 3083.384 7565.708, 3083.384 7570.084, 3083.384 7574.411, 3083.384 7578.674, 3083.384 7582.863, 3083.384 7592.863, 3083.384 7602.863, 3083.384 7612.863, 3083.384 7622.863, 3083.384 7632.863, 3083.384 7642.863, 3083.384 7652.863, 3083.384 7662.863, 3083.384 7672.863, 3083.384 7682.863, 3083.384 7692.863, 3083.384 7702.863, 3083.384 7712.863, 3083.384 7722.863, 3083.384 7732.863, 3083.384 7742.863, 3083.384 7752.863, 3083.384 7762.863, 3083.384 7772.863, 3083.384 7782.863, 3083.384 7792.863, 3083.384 7802.863, 3083.384 7812.863, 3083.384 7822.863, 3083.384 7832.863, 3083.384 7842.863, 3083.384 7852.863, 3083.384 7862.863, 3083.384 7872.863, 3083.384 7882.863, 3083.384 7892.863, 3083.384 7902.863, 3083.384 7912.863, 3083.384 7922.863, 3083.384 7932.863, 3083.384 7942.863, 3083.384 7952.863, 3083.384 7962.863, 3083.384 7972.863, 3083.384 7982.863, 3083.384 7992.863, 3083.384 8002.863, 3083.384 8012.863, 3083.384 8022.863, 3083.384 8032.863, 3083.384 8042.863, 3083.384 8052.863, 3083.384 8062.863, 3083.384 8072.863, 3083.384 8082.863, 3083.384 8092.863, 3083.384 8102.863, 3083.384 8112.863, 3083.384 8122.863, 3083.384 8132.863, 3083.384 8142.863, 3083.384 8152.863, 3083.384 8168.153, 3083.384 " />
            <path fill="none" stroke-width="3.0" stroke-linecap="butt" stroke-opacity="1.0" stroke="rgb(0, 0, 0)" stroke-linejoin="round" d=" M 6363.682, 1851.415 6363.007, 1861.392 6362.332, 1871.369 6361.657, 1881.346 6360.982, 1891.324 6360.307, 1901.301 6359.632, 1911.278 6358.957, 1921.255 6358.282, 1931.232 6357.606, 1941.210 6356.931, 1951.187 6356.256, 1961.164 6355.581, 1971.141 6354.906, 1981.118 6354.231, 1991.095 6353.556, 2001.073 6352.881, 2011.050 6352.206, 2021.027 6351.531, 2031.004 6350.856, 2040.981 6350.181, 2050.959 6349.506, 2060.936 6348.831, 2070.913 6348.156, 2080.890 6347.480, 2090.867 6346.806, 2100.845 6346.130, 2110.822 6345.456, 2120.799 6344.780, 2130.776 6344.105, 2140.753 6343.430, 2150.731 6342.755, 2160.708 6342.080, 2170.685 6341.423, 2180.390 6342.773, 2190.298 6344.122, 2200.207 6345.471, 2210.115 6346.821, 2220.024 6348.170, 2229.933 6349.519, 2239.841 6350.869, 2249.750 6352.218, 2259.658 6353.567, 2269.567 6354.917, 2279.475 6356.266, 2289.384 6357.615, 2299.292 6358.964, 2309.201 6360.313, 2319.110 6361.663, 2329.018 6363.012, 2338.927 6364.361, 2348.835 6365.710, 2358.744 6367.060, 2368.652 6368.409, 2378.561 6369.758, 2388.469 6371.107, 2398.378 6372.457, 2408.287 6373.806, 2418.195 6375.155, 2428.104 6376.505, 2438.012 6377.854, 2447.921 6379.203, 2457.829 6380.553, 2467.738 6381.902, 2477.646 6383.251, 2487.555 6384.601, 2497.464 6385.950, 2507.372 6387.299, 2517.281 6388.648, 2527.189 6389.998, 2537.098 6391.347, 2547.006 6392.696, 2556.915 6394.045, 2566.823 6395.395, 2576.732 6396.744, 2586.641 6398.093, 2596.549 6399.442, 2606.458 6400.792, 2616.366 6402.141, 2626.275 6403.490, 2636.183 6404.840, 2646.092 6406.189, 2656.000 6407.538, 2665.909 6408.888, 2675.818 6410.237, 2685.726 6411.586, 2695.635 6412.936, 2705.543 6414.285, 2715.452 6415.634, 2725.360 6416.983, 2735.269 6418.333, 2745.177 6419.682, 2755.086 6421.031, 2764.995 6422.380, 2774.903 6423.729, 2784.812 6425.079, 2794.720 6426.428, 2804.629 6427.777, 2814.537 6429.126, 2824.446 6430.476, 2834.354 6431.825, 2844.263 6433.174, 2854.172 6434.524, 2864.080 6435.873, 2873.989 6437.222, 2883.897 6438.572, 2893.806 6439.921, 2903.714 6441.270, 2913.623 6442.620, 2923.531 6443.969, 2933.440 6445.318, 2943.348 6446.667, 2953.257 6448.017, 2963.166 6449.366, 2973.074 6450.715, 2982.983 6452.064, 2992.891 6453.414, 3002.800 6454.763, 3012.708 6456.882, 3028.268 " />
            <path fill="none" stroke-width="3.0" stroke-linecap="butt" stroke-opacity="1.0" stroke="rgb(0, 0, 0)" stroke-linejoin="round" d=" M 6948.831, 1038.272 6946.641, 1036.779 6944.528, 1035.179 6942.499, 1033.475 6940.556, 1031.673 6938.706, 1029.776 " />
            <path fill="none" stroke-width="3.0" stroke-linecap="butt" stroke-opacity="1.0" stroke="rgb(0, 0, 0)" stroke-linejoin="round" d=" M 6938.706, 1029.776 6936.952, 1027.789 6935.300, 1025.718 6933.753, 1023.565 6932.315, 1021.339 " />
            <path fill="none" stroke-width="3.0" stroke-linecap="butt" stroke-opacity="1.0" stroke="rgb(0, 0, 0)" stroke-linejoin="round" d=" M 6958.249, 1043.101 6955.807, 1042.071 6953.419, 1040.921 6951.091, 1039.654 " />
            <path fill="none" stroke-width="3.0" stroke-linecap="butt" stroke-opacity="1.0" stroke="rgb(0, 0, 0)" stroke-linejoin="round" d=" M 6932.315, 1021.339 6930.990, 1019.044 6929.781, 1016.686 6928.691, 1014.271 6927.723, 1011.804 6926.879, 1009.292 6926.161, 1006.740 6925.571, 1004.157 " />
            <path fill="none" stroke-width="3.0" stroke-linecap="butt" stroke-opacity="1.0" stroke="rgb(0, 0, 0)" stroke-linejoin="round" d=" M 6968.437, 1045.966 6965.839, 1045.442 6963.271, 1044.788 6960.739, 1044.007 6958.249, 1043.101 " />
            <path fill="none" stroke-width="3.0" stroke-linecap="butt" stroke-opacity="1.0" stroke="rgb(0, 0, 0)" stroke-linejoin="round" d=" M 6310.045, 1154.008 6311.535, 1163.896 6313.024, 1173.785 6314.514, 1183.673 6316.004, 1193.562 6317.493, 1203.450 6318.983, 1213.339 6320.473, 1223.227 6321.962, 1233.115 6323.452, 1243.004 6324.941, 1252.892 6326.431, 1262.781 6327.921, 1272.669 6329.411, 1282.558 6330.900, 1292.446 6332.390, 1302.334 6333.879, 1312.223 6334.769, 1318.129 6335.311, 1328.114 6335.852, 1338.099 6336.394, 1348.085 6336.935, 1358.070 6337.476, 1368.055 6338.018, 1378.041 6338.559, 1388.026 6339.100, 1398.011 6339.642, 1407.997 6340.183, 1417.982 6340.724, 1427.967 6341.266, 1437.953 6341.807, 1447.938 6342.348, 1457.923 6342.890, 1467.909 6343.431, 1477.894 6343.973, 1487.879 6344.514, 1497.865 6345.055, 1507.850 6345.597, 1517.835 6346.138, 1527.821 6346.679, 1537.806 6347.221, 1547.791 6347.762, 1557.777 6348.303, 1567.762 6348.845, 1577.747 6349.386, 1587.733 6349.927, 1597.718 6350.469, 1607.703 6351.010, 1617.689 6351.552, 1627.674 6352.093, 1637.659 6352.634, 1647.645 6353.176, 1657.630 6353.717, 1667.615 6354.258, 1677.601 6354.800, 1687.586 6355.341, 1697.571 6355.882, 1707.557 6356.424, 1717.542 6356.965, 1727.527 6357.507, 1737.513 6358.048, 1747.498 6358.589, 1757.483 6359.131, 1767.469 6359.672, 1777.454 6360.213, 1787.439 6360.755, 1797.425 6361.296, 1807.410 6361.837, 1817.395 6362.379, 1827.381 6362.920, 1837.366 6363.682, 1851.415 " />
            <path fill="none" stroke-width="3.0" stroke-linecap="butt" stroke-opacity="1.0" stroke="rgb(0, 0, 0)" stroke-linejoin="round" d=" M 6992.060, 1044.788 6989.492, 1045.442 6986.895, 1045.966 6984.274, 1046.361 6981.637, 1046.625 6978.990, 1046.757 6976.341, 1046.757 6973.694, 1046.625 6971.057, 1046.361 6968.437, 1045.966 " />
            <path fill="none" stroke-width="3.0" stroke-linecap="butt" stroke-opacity="1.0" stroke="rgb(0, 0, 0)" stroke-linejoin="round" d=" M 6925.571, 1004.157 6925.111, 1001.547 6924.782, 998.918 6924.584, 996.275 6924.518, 993.625 6924.584, 990.977 6924.782, 988.334 6925.111, 985.705 6925.571, 983.095 6926.161, 980.511 6926.879, 977.961 6927.723, 975.448 6928.691, 972.982 6929.781, 970.566 6930.990, 968.208 6932.315, 965.913 6933.753, 963.687 6935.300, 961.535 6936.952, 959.463 6938.706, 957.476 6940.556, 955.580 6942.499, 953.777 6944.528, 952.073 6946.641, 950.474 6948.831, 948.980 6951.091, 947.599 6953.419, 946.332 6955.807, 945.182 6958.249, 944.152 6960.739, 943.245 6963.271, 942.465 6965.839, 941.811 6968.437, 941.285 6971.057, 940.891 6973.694, 940.626 6976.341, 940.495 6978.990, 940.495 6981.637, 940.626 6984.274, 940.891 6986.895, 941.285 6989.492, 941.811 " />
            <path fill="none" stroke-width="3.0" stroke-linecap="butt" stroke-opacity="1.0" stroke="rgb(0, 0, 0)" stroke-linejoin="round" d=" M 7008.690, 1036.779 7006.501, 1038.272 7004.239, 1039.654 7001.912, 1040.921 6999.524, 1042.071 6997.083, 1043.101 6994.593, 1044.007 6992.060, 1044.788 " />
            <path fill="none" stroke-width="3.0" stroke-linecap="butt" stroke-opacity="1.0" stroke="rgb(0, 0, 0)" stroke-linejoin="round" d=" M 7014.775, 1031.673 7012.833, 1033.475 7010.803, 1035.179 7008.690, 1036.779 " />
            <path fill="none" stroke-width="3.0" stroke-linecap="butt" stroke-opacity="1.0" stroke="rgb(0, 0, 0)" stroke-linejoin="round" d=" M 7030.549, 998.918 7030.220, 1001.547 7029.760, 1004.157 7029.170, 1006.740 7028.453, 1009.292 7027.608, 1011.804 7026.640, 1014.271 7025.550, 1016.686 7024.341, 1019.044 7023.016, 1021.339 7021.579, 1023.565 7020.032, 1025.718 7018.379, 1027.789 7016.625, 1029.776 7014.775, 1031.673 " />
            <path fill="none" stroke-width="3.0" stroke-linecap="butt" stroke-opacity="1.0" stroke="rgb(0, 0, 0)" stroke-linejoin="round" d=" M 7030.748, 990.977 7030.813, 993.625 " />
            <path fill="none" stroke-width="3.0" stroke-linecap="butt" stroke-opacity="1.0" stroke="rgb(0, 0, 0)" stroke-linejoin="round" d=" M 7030.549, 988.334 7030.748, 990.977 " />
            <path fill="none" stroke-width="3.0" stroke-linecap="butt" stroke-opacity="1.0" stroke="rgb(0, 0, 0)" stroke-linejoin="round" d=" M 7030.220, 985.705 7030.549, 988.334 " />
            <path fill="none" stroke-width="3.0" stroke-linecap="butt" stroke-opacity="1.0" stroke="rgb(0, 0, 0)" stroke-linejoin="round" d=" M 7008.690, 950.474 7010.803, 952.073 7012.833, 953.777 7014.775, 955.580 7016.625, 957.476 7018.379, 959.463 7020.032, 961.535 7021.579, 963.687 7023.016, 965.913 7024.341, 968.208 7025.550, 970.566 7026.640, 972.982 7027.608, 975.448 7028.453, 977.961 7029.170, 980.511 7029.760, 983.095 7030.220, 985.705 " />
            <path fill="none" stroke-width="3.0" stroke-linecap="butt" stroke-opacity="1.0" stroke="rgb(0, 0, 0)" stroke-linejoin="round" d=" M 7006.501, 948.980 7008.690, 950.474 " />
            <path fill="none" stroke-width="3.0" stroke-linecap="butt" stroke-opacity="1.0" stroke="rgb(0, 0, 0)" stroke-linejoin="round" d=" M 6992.060, 942.465 6994.593, 943.245 6997.083, 944.152 6999.524, 945.182 7001.912, 946.332 7004.239, 947.599 7006.501, 948.980 " />
            <path fill="none" stroke-width="3.0" stroke-linecap="butt" stroke-opacity="1.0" stroke="rgb(0, 0, 0)" stroke-linejoin="round" d=" M 6989.492, 941.811 6992.060, 942.465 " />
            <path fill="none" stroke-width="3.0" stroke-linecap="butt" stroke-opacity="1.0" stroke="rgb(0, 0, 0)" stroke-linejoin="round" d=" M 23.846, 23.626 26.832, 33.170 29.817, 42.715 32.802, 52.259 35.787, 61.803 38.772, 71.347 41.757, 80.891 44.742, 90.435 47.728, 99.979 50.713, 109.523 53.698, 119.067 56.683, 128.611 59.668, 138.155 62.653, 147.699 65.639, 157.243 68.624, 166.787 71.609, 176.331 74.594, 185.875 77.579, 195.419 80.564, 204.963 83.549, 214.507 86.535, 224.052 89.520, 233.595 92.505, 243.140 95.490, 252.684 98.475, 262.228 101.460, 271.772 104.445, 281.316 107.431, 290.860 110.416, 300.404 113.401, 309.948 116.386, 319.492 119.371, 329.036 123.300, 341.596 " />
            <path fill="none" stroke-width="3.0" stroke-linecap="butt" stroke-opacity="1.0" stroke="rgb(0, 0, 0)" stroke-linejoin="round" d=" M 3134.713, 1459.236 3132.739, 1449.433 3130.764, 1439.630 3128.789, 1429.827 3126.815, 1420.024 3124.840, 1410.221 3122.866, 1400.418 3120.891, 1390.615 3118.917, 1380.811 3116.942, 1371.008 3114.968, 1361.205 3112.993, 1351.402 3111.019, 1341.599 3109.044, 1331.796 3107.069, 1321.993 3105.095, 1312.190 3103.120, 1302.386 3101.146, 1292.583 3099.171, 1282.780 3097.197, 1272.977 3096.734, 1270.678 " />
            <path fill="none" stroke-width="3.0" stroke-linecap="butt" stroke-opacity="1.0" stroke="rgb(0, 0, 0)" stroke-linejoin="round" d=" M 3339.291, 1867.827 3334.813, 1858.885 3330.336, 1849.944 3325.859, 1841.002 3321.382, 1832.060 3316.905, 1823.118 3312.428, 1814.176 3307.951, 1805.234 3303.474, 1796.293 3298.997, 1787.351 3294.520, 1778.409 3290.043, 1769.467 3285.566, 1760.526 3281.089, 1751.584 3276.611, 1742.642 3272.134, 1733.700 3267.657, 1724.758 3263.180, 1715.817 3258.703, 1706.875 3254.226, 1697.933 3249.749, 1688.991 3245.272, 1680.049 3240.795, 1671.108 3236.318, 1662.166 3231.841, 1653.224 3227.364, 1644.282 3222.886, 1635.340 3218.409, 1626.399 3213.932, 1617.457 3209.455, 1608.515 3204.978, 1599.573 3200.501, 1590.631 3196.024, 1581.689 3191.547, 1572.748 3187.070, 1563.806 3182.593, 1554.864 3178.116, 1545.922 3173.639, 1536.980 3169.162, 1528.039 3164.685, 1519.097 3160.208, 1510.155 3155.730, 1501.213 3151.253, 1492.271 3146.776, 1483.330 3142.299, 1474.388 3137.822, 1465.446 3134.713, 1459.236 " />
            <path fill="none" stroke-width="3.0" stroke-linecap="butt" stroke-opacity="1.0" stroke="rgb(0, 0, 0)" stroke-linejoin="round" d=" M 3491.888, 2231.273 3488.017, 2222.053 3484.146, 2212.833 3480.274, 2203.613 3476.403, 2194.392 3472.532, 2185.172 3468.661, 2175.952 3464.790, 2166.732 3460.918, 2157.511 3457.047, 2148.291 3453.176, 2139.071 3449.304, 2129.850 3445.433, 2120.630 3441.562, 2111.410 3437.691, 2102.190 3433.820, 2092.969 3429.948, 2083.749 3426.077, 2074.529 3422.206, 2065.309 3418.334, 2056.088 3414.463, 2046.868 3410.592, 2037.648 3406.721, 2028.427 3402.849, 2019.207 3398.978, 2009.987 3395.107, 2000.767 3391.236, 1991.546 3387.365, 1982.326 3383.493, 1973.106 3379.622, 1963.886 3375.751, 1954.665 3371.879, 1945.445 3368.008, 1936.225 3364.137, 1927.005 3360.266, 1917.784 3356.394, 1908.564 3352.523, 1899.344 3348.652, 1890.123 3344.781, 1880.903 3340.909, 1871.683 3339.291, 1867.827 " />
            <path fill="none" stroke-width="3.0" stroke-linecap="butt" stroke-opacity="1.0" stroke="rgb(0, 0, 0)" stroke-linejoin="round" d=" M 3655.265, 2891.551 3653.574, 2881.695 3651.884, 2871.839 3650.193, 2861.983 3648.502, 2852.127 3646.812, 2842.271 3645.121, 2832.415 3643.430, 2822.559 3641.740, 2812.703 3640.049, 2802.847 3638.358, 2792.991 3636.667, 2783.135 3634.977, 2773.279 3633.286, 2763.423 3631.595, 2753.567 3629.905, 2743.710 3628.214, 2733.854 3626.523, 2723.998 3624.833, 2714.142 3623.142, 2704.286 3621.451, 2694.430 3619.760, 2684.574 3618.070, 2674.718 3616.379, 2664.862 3614.688, 2655.006 3612.998, 2645.150 3611.307, 2635.294 3609.616, 2625.438 3607.926, 2615.582 3606.235, 2605.726 3604.544, 2595.870 3602.854, 2586.014 3601.163, 2576.158 3599.472, 2566.302 3597.781, 2556.446 3596.091, 2546.590 3594.400, 2536.734 3592.709, 2526.878 3591.019, 2517.021 3589.328, 2507.165 3587.459, 2496.269 " />
            <path fill="none" stroke-width="3.0" stroke-linecap="butt" stroke-opacity="1.0" stroke="rgb(0, 0, 0)" stroke-linejoin="round" d=" M 6456.882, 3028.268 6456.203, 3038.245 6455.523, 3048.222 6454.844, 3058.199 6454.165, 3068.176 6453.486, 3078.153 6453.130, 3083.384 " />
            <path fill="none" stroke-width="3.0" stroke-linecap="butt" stroke-opacity="1.0" stroke="rgb(0, 0, 0)" stroke-linejoin="round" d=" M 6951.091, 1039.654 6948.831, 1038.272 " />
            <path fill="none" stroke-width="3.0" stroke-linecap="butt" stroke-opacity="1.0" stroke="rgb(0, 0, 0)" stroke-linejoin="round" d=" M 7030.748, 996.275 7030.549, 998.918 " />
            <path fill="none" stroke-width="3.0" stroke-linecap="butt" stroke-opacity="1.0" stroke="rgb(0, 0, 0)" stroke-linejoin="round" d=" M 7030.813, 993.625 7030.748, 996.275 " />
            <path fill="none" stroke-width="3.0" stroke-linecap="butt" stroke-opacity="1.0" stroke="rgb(0, 0, 0)" stroke-linejoin="round" d=" M 8168.153, 3083.384 8167.951, 3073.386 8167.749, 3063.388 8167.546, 3053.390 8167.344, 3043.392 8167.141, 3033.394 8166.938, 3023.396 8166.736, 3013.398 8166.534, 3003.400 8166.331, 2993.402 8166.128, 2983.404 8165.926, 2973.406 8165.724, 2963.408 8165.521, 2953.410 8165.319, 2943.412 8165.116, 2933.415 8164.914, 2923.417 8164.711, 2913.419 8164.509, 2903.421 8164.306, 2893.423 8164.104, 2883.425 8163.901, 2873.427 8163.699, 2863.429 8163.496, 2853.431 8163.294, 2843.433 8163.091, 2833.435 8162.889, 2823.437 8162.686, 2813.439 8162.484, 2803.441 8162.281, 2793.443 8162.079, 2783.445 8161.876, 2773.447 8161.674, 2763.449 8161.471, 2753.451 8161.269, 2743.453 8161.066, 2733.456 8160.864, 2723.458 8160.661, 2713.460 8160.459, 2703.462 8160.256, 2693.464 8160.081, 2684.816 " />
        </g>
    </g>
<g id="slice-labels"><text x="605.5822142857143" y="533.5856666666666" text-anchor="middle" dominant-baseline="middle" font-family="Arial, sans-serif" font-size="59.05322771162998" font-weight="bold" fill="black" stroke="none" stroke-width="7.086387325395597" paint-order="stroke fill">Slice23 (Front)</text><text x="1769.0546428571429" y="533.5856666666666" text-anchor="middle" dominant-baseline="middle" font-family="Arial, sans-serif" font-size="59.05322771162998" font-weight="bold" fill="black" stroke="none" stroke-width="7.086387325395597" paint-order="stroke fill">Slice23 (Front)</text><text x="2932.5270714285716" y="533.5856666666666" text-anchor="middle" dominant-baseline="middle" font-family="Arial, sans-serif" font-size="59.05322771162998" font-weight="bold" fill="black" stroke="none" stroke-width="7.086387325395597" paint-order="stroke fill">Slice23 (Front)</text><text x="4095.9995000000004" y="533.5856666666666" text-anchor="middle" dominant-baseline="middle" font-family="Arial, sans-serif" font-size="59.05322771162998" font-weight="bold" fill="black" stroke="none" stroke-width="7.086387325395597" paint-order="stroke fill">Slice23 (Front)</text><text x="5259.471928571429" y="533.5856666666666" text-anchor="middle" dominant-baseline="middle" font-family="Arial, sans-serif" font-size="59.05322771162998" font-weight="bold" fill="black" stroke="none" stroke-width="7.086387325395597" paint-order="stroke fill">Slice23 (Front)</text><text x="6422.944357142857" y="533.5856666666666" text-anchor="middle" dominant-baseline="middle" font-family="Arial, sans-serif" font-size="59.05322771162998" font-weight="bold" fill="black" stroke="none" stroke-width="7.086387325395597" paint-order="stroke fill">Slice23 (Front)</text><text x="7586.416785714287" y="533.5856666666666" text-anchor="middle" dominant-baseline="middle" font-family="Arial, sans-serif" font-size="59.05322771162998" font-weight="bold" fill="black" stroke="none" stroke-width="7.086387325395597" paint-order="stroke fill">Slice23 (Front)</text><text x="605.5822142857143" y="1553.5049999999999" text-anchor="middle" dominant-baseline="middle" font-family="Arial, sans-serif" font-size="59.05322771162998" font-weight="bold" fill="black" stroke="none" stroke-width="7.086387325395597" paint-order="stroke fill">Slice23 (Front)</text><text x="1769.0546428571429" y="1553.5049999999999" text-anchor="middle" dominant-baseline="middle" font-family="Arial, sans-serif" font-size="59.05322771162998" font-weight="bold" fill="black" stroke="none" stroke-width="7.086387325395597" paint-order="stroke fill">Slice23 (Front)</text><text x="2932.5270714285716" y="1553.5049999999999" text-anchor="middle" dominant-baseline="middle" font-family="Arial, sans-serif" font-size="59.05322771162998" font-weight="bold" fill="black" stroke="none" stroke-width="7.086387325395597" paint-order="stroke fill">Slice23 (Front)</text><text x="4095.9995000000004" y="1553.5049999999999" text-anchor="middle" dominant-baseline="middle" font-family="Arial, sans-serif" font-size="59.05322771162998" font-weight="bold" fill="black" stroke="none" stroke-width="7.086387325395597" paint-order="stroke fill">Slice23 (Front)</text><text x="5259.471928571429" y="1553.5049999999999" text-anchor="middle" dominant-baseline="middle" font-family="Arial, sans-serif" font-size="59.05322771162998" font-weight="bold" fill="black" stroke="none" stroke-width="7.086387325395597" paint-order="stroke fill">Slice23 (Front)</text><text x="6422.944357142857" y="1553.5049999999999" text-anchor="middle" dominant-baseline="middle" font-family="Arial, sans-serif" font-size="59.05322771162998" font-weight="bold" fill="black" stroke="none" stroke-width="7.086387325395597" paint-order="stroke fill">Slice23 (Front)</text><text x="7586.416785714287" y="1553.5049999999999" text-anchor="middle" dominant-baseline="middle" font-family="Arial, sans-serif" font-size="59.05322771162998" font-weight="bold" fill="black" stroke="none" stroke-width="7.086387325395597" paint-order="stroke fill">Slice23 (Front)</text><text x="605.5822142857143" y="2573.4243333333334" text-anchor="middle" dominant-baseline="middle" font-family="Arial, sans-serif" font-size="59.05322771162998" font-weight="bold" fill="black" stroke="none" stroke-width="7.086387325395597" paint-order="stroke fill">Slice23 (Front)</text><text x="1769.0546428571429" y="2573.4243333333334" text-anchor="middle" dominant-baseline="middle" font-family="Arial, sans-serif" font-size="59.05322771162998" font-weight="bold" fill="black" stroke="none" stroke-width="7.086387325395597" paint-order="stroke fill">Slice23 (Front)</text><text x="2932.5270714285716" y="2573.4243333333334" text-anchor="middle" dominant-baseline="middle" font-family="Arial, sans-serif" font-size="59.05322771162998" font-weight="bold" fill="black" stroke="none" stroke-width="7.086387325395597" paint-order="stroke fill">Slice23 (Front)</text><text x="4095.9995000000004" y="2573.4243333333334" text-anchor="middle" dominant-baseline="middle" font-family="Arial, sans-serif" font-size="59.05322771162998" font-weight="bold" fill="black" stroke="none" stroke-width="7.086387325395597" paint-order="stroke fill">Slice23 (Front)</text><text x="5259.471928571429" y="2573.4243333333334" text-anchor="middle" dominant-baseline="middle" font-family="Arial, sans-serif" font-size="59.05322771162998" font-weight="bold" fill="black" stroke="none" stroke-width="7.086387325395597" paint-order="stroke fill">Slice23 (Front)</text><text x="6422.944357142857" y="2573.4243333333334" text-anchor="middle" dominant-baseline="middle" font-family="Arial, sans-serif" font-size="59.05322771162998" font-weight="bold" fill="black" stroke="none" stroke-width="7.086387325395597" paint-order="stroke fill">Slice23 (Front)</text><text x="7586.416785714287" y="2573.4243333333334" text-anchor="middle" dominant-baseline="middle" font-family="Arial, sans-serif" font-size="59.05322771162998" font-weight="bold" fill="black" stroke="none" stroke-width="7.086387325395597" paint-order="stroke fill">Slice23 (Front)</text></g></svg>