<?xml version='1.0' encoding='utf-8'?>
<svg xmlns="http://www.w3.org/2000/svg" xmlns:inkscape="http://www.inkscape.org/namespaces/inkscape" version="1.1" width="461.3823809623718mm" height="170.96852445602417mm" viewBox="0.23361754882133212 0.00462035121393356 5448.552764902357 2018.9997592975722" preserveAspectRatio="none">
    <g id="ViewLayer_LineSet" inkscape:groupmode="lineset" inkscape:label="ViewLayer_LineSet">
        <g inkscape:groupmode="layer" id="strokes" inkscape:label="strokes">
            <path fill="none" stroke-width="3.0" stroke-linecap="butt" stroke-opacity="1.0" stroke="rgb(0, 0, 0)" stroke-linejoin="round" d=" M 3525.426, 1995.278 3532.612, 1995.386 3536.988, 1995.386 3546.988, 1995.386 3556.988, 1995.386 3566.988, 1995.386 3576.988, 1995.386 3586.988, 1995.386 3596.988, 1995.386 3606.988, 1995.386 3616.988, 1995.386 3626.988, 1995.386 3636.988, 1995.386 3646.988, 1995.386 3656.988, 1995.386 3666.988, 1995.386 3676.988, 1995.386 3686.988, 1995.386 3696.988, 1995.386 3706.988, 1995.386 3716.988, 1995.386 3726.988, 1995.386 3736.988, 1995.386 3746.988, 1995.386 3756.988, 1995.386 3766.988, 1995.386 3776.988, 1995.386 3786.988, 1995.386 3796.988, 1995.386 3806.988, 1995.386 3816.988, 1995.386 3826.988, 1995.386 3836.988, 1995.386 3846.988, 1995.386 3856.988, 1995.386 3866.988, 1995.386 3876.988, 1995.386 3886.988, 1995.386 3896.988, 1995.386 3906.988, 1995.386 3916.988, 1995.386 3926.988, 1995.386 3936.988, 1995.386 3946.988, 1995.386 3956.988, 1995.386 3966.988, 1995.386 3976.988, 1995.386 3986.988, 1995.386 3996.988, 1995.386 4006.988, 1995.386 4016.988, 1995.386 4026.988, 1995.386 4036.988, 1995.386 4046.988, 1995.386 4056.988, 1995.386 4066.988, 1995.386 4076.988, 1995.386 4086.988, 1995.386 4096.988, 1995.386 4106.988, 1995.386 4116.988, 1995.386 4126.988, 1995.386 4136.988, 1995.386 4146.988, 1995.386 4156.988, 1995.386 4166.988, 1995.386 4176.988, 1995.386 4186.988, 1995.386 4196.988, 1995.386 4206.988, 1995.386 4216.988, 1995.386 4226.988, 1995.386 4236.988, 1995.386 4246.988, 1995.386 4256.988, 1995.386 4266.988, 1995.386 4276.988, 1995.386 4286.988, 1995.386 4296.988, 1995.386 4306.988, 1995.386 4316.988, 1995.386 4326.988, 1995.386 4336.988, 1995.386 4346.988, 1995.386 4356.988, 1995.386 4366.988, 1995.386 4376.988, 1995.386 4386.988, 1995.386 4396.988, 1995.386 4406.988, 1995.386 4416.988, 1995.386 4426.988, 1995.386 4436.988, 1995.386 4446.988, 1995.386 4456.988, 1995.386 4466.988, 1995.386 4476.988, 1995.386 4486.988, 1995.386 4496.988, 1995.386 4506.988, 1995.386 4516.988, 1995.386 4526.988, 1995.386 4543.911, 1995.386 4553.911, 1995.386 4563.911, 1995.386 4573.911, 1995.386 4583.911, 1995.386 4593.911, 1995.386 4603.911, 1995.386 4613.911, 1995.386 4623.911, 1995.386 4633.911, 1995.386 4643.911, 1995.386 4653.911, 1995.386 4663.911, 1995.386 4673.911, 1995.386 4683.911, 1995.386 4693.911, 1995.386 4703.911, 1995.386 4713.911, 1995.386 4723.911, 1995.386 4733.911, 1995.386 4743.911, 1995.386 4753.911, 1995.386 4763.911, 1995.386 4773.911, 1995.386 4783.911, 1995.386 4793.911, 1995.386 4803.911, 1995.386 4813.911, 1995.386 4823.911, 1995.386 4833.911, 1995.386 4843.911, 1995.386 4853.911, 1995.386 4863.911, 1995.386 4873.911, 1995.386 4883.911, 1995.386 4893.911, 1995.386 4903.911, 1995.386 4913.911, 1995.386 4923.911, 1995.386 4933.911, 1995.386 4943.911, 1995.386 4953.911, 1995.386 4963.911, 1995.386 4973.911, 1995.386 4987.944, 1995.386 4997.944, 1995.386 5007.944, 1995.386 5017.944, 1995.386 5027.944, 1995.386 5037.944, 1995.386 5047.944, 1995.386 5057.944, 1995.386 5067.944, 1995.386 5077.944, 1995.386 5087.944, 1995.386 5097.944, 1995.386 5107.944, 1995.386 5117.944, 1995.386 5127.944, 1995.386 5137.944, 1995.386 5147.944, 1995.386 5157.944, 1995.386 5167.944, 1995.386 5177.944, 1995.386 5187.944, 1995.386 5197.944, 1995.386 5207.944, 1995.386 5217.944, 1995.386 5227.944, 1995.386 5237.944, 1995.386 5247.944, 1995.386 5257.944, 1995.386 5267.944, 1995.386 5277.944, 1995.386 5287.944, 1995.386 5297.944, 1995.386 5307.944, 1995.386 5317.944, 1995.386 5327.944, 1995.386 5337.944, 1995.386 5347.944, 1995.386 5357.944, 1995.386 5367.944, 1995.386 5377.944, 1995.386 5387.944, 1995.386 5397.944, 1995.386 5407.944, 1995.386 5417.944, 1995.386 5425.168, 1995.386 5424.563, 1985.405 5423.958, 1975.423 5423.354, 1965.441 5422.749, 1955.459 5422.144, 1945.478 5421.539, 1935.496 5420.934, 1925.514 5420.329, 1915.533 5419.724, 1905.551 5419.119, 1895.569 5418.514, 1885.588 5417.909, 1875.606 5417.304, 1865.624 5416.699, 1855.643 5416.095, 1845.661 5415.490, 1835.679 5414.885, 1825.698 5414.280, 1815.716 5414.155, 1813.656 " />
            <path fill="none" stroke-width="3.0" stroke-linecap="butt" stroke-opacity="1.0" stroke="rgb(0, 0, 0)" stroke-linejoin="round" d=" M 5414.155, 1813.656 5410.195, 1804.474 5406.235, 1795.291 5402.275, 1786.109 5398.315, 1776.926 5394.355, 1767.744 5390.396, 1758.561 5386.436, 1749.379 5382.476, 1740.196 5378.516, 1731.014 5374.556, 1721.831 5370.596, 1712.649 5366.636, 1703.466 5362.676, 1694.283 5358.716, 1685.101 5354.756, 1675.918 5350.796, 1666.736 5346.836, 1657.553 5342.876, 1648.371 5338.916, 1639.188 5334.956, 1630.006 5330.996, 1620.823 5327.036, 1611.641 5323.076, 1602.458 5319.116, 1593.276 5315.156, 1584.093 5311.196, 1574.911 5307.237, 1565.728 5303.277, 1556.546 5299.317, 1547.363 5295.357, 1538.180 5291.397, 1528.998 5287.437, 1519.815 5284.256, 1512.440 5279.577, 1503.603 5274.898, 1494.765 5270.219, 1485.927 5265.540, 1477.090 5260.860, 1468.252 5256.181, 1459.414 5251.501, 1450.577 5246.822, 1441.739 5242.143, 1432.901 5237.464, 1424.064 5232.785, 1415.226 5228.105, 1406.388 5223.426, 1397.551 5218.747, 1388.713 5214.067, 1379.875 5209.388, 1371.037 5204.709, 1362.200 5200.030, 1353.362 5195.351, 1344.524 5190.671, 1335.687 5185.992, 1326.849 5181.313, 1318.011 5176.633, 1309.174 5171.954, 1300.336 5167.275, 1291.498 5162.596, 1282.661 5157.917, 1273.823 5153.237, 1264.985 5148.558, 1256.148 5143.879, 1247.310 5139.200, 1238.472 5134.520, 1229.635 5129.466, 1220.088 " />
            <path fill="none" stroke-width="3.0" stroke-linecap="butt" stroke-opacity="1.0" stroke="rgb(0, 0, 0)" stroke-linejoin="round" d=" M 3376.460, 1633.135 3379.463, 1642.674 3382.466, 1652.212 3385.469, 1661.750 3388.472, 1671.289 3391.476, 1680.827 3394.479, 1690.366 3397.482, 1699.904 3400.485, 1709.442 3403.488, 1718.981 3406.491, 1728.519 3409.494, 1738.058 3412.497, 1747.596 3415.500, 1757.135 3418.504, 1766.673 3421.507, 1776.211 3424.893, 1786.968 3426.267, 1796.873 3427.640, 1806.778 3429.013, 1816.684 3430.386, 1826.589 3431.760, 1836.494 3433.133, 1846.399 3434.507, 1856.305 3435.096, 1860.559 3438.752, 1869.867 3442.408, 1879.175 3446.064, 1888.482 3449.719, 1897.790 3453.375, 1907.098 3457.031, 1916.406 3460.687, 1925.714 3464.343, 1935.021 3467.998, 1944.329 3471.654, 1953.637 3475.310, 1962.945 3478.966, 1972.253 3482.621, 1981.560 3484.124, 1985.388 3493.703, 1988.260 3503.281, 1991.133 3512.860, 1994.005 3517.466, 1995.386 3524.957, 1995.386 " />
            <path fill="none" stroke-width="3.0" stroke-linecap="butt" stroke-opacity="1.0" stroke="rgb(0, 0, 0)" stroke-linejoin="round" d=" M 3524.957, 1995.386 3525.426, 1995.278 " />
            <path fill="none" stroke-width="3.0" stroke-linecap="butt" stroke-opacity="1.0" stroke="rgb(0, 0, 0)" stroke-linejoin="round" d=" M 3803.151, 708.566 3801.301, 710.463 3799.359, 712.265 3797.329, 713.969 3795.217, 715.568 3793.028, 717.061 3790.767, 718.442 3788.440, 719.710 3786.052, 720.860 3783.611, 721.889 3781.121, 722.795 3778.589, 723.576 3776.021, 724.230 " />
            <path fill="none" stroke-width="3.0" stroke-linecap="butt" stroke-opacity="1.0" stroke="rgb(0, 0, 0)" stroke-linejoin="round" d=" M 3806.557, 704.508 3804.905, 706.579 3803.151, 708.566 " />
            <path fill="none" stroke-width="3.0" stroke-linecap="butt" stroke-opacity="1.0" stroke="rgb(0, 0, 0)" stroke-linejoin="round" d=" M 3810.866, 697.836 3809.541, 700.130 3808.104, 702.356 3806.557, 704.508 " />
            <path fill="none" stroke-width="3.0" stroke-linecap="butt" stroke-opacity="1.0" stroke="rgb(0, 0, 0)" stroke-linejoin="round" d=" M 3814.133, 690.596 3813.165, 693.063 3812.075, 695.478 3810.866, 697.836 " />
            <path fill="none" stroke-width="3.0" stroke-linecap="butt" stroke-opacity="1.0" stroke="rgb(0, 0, 0)" stroke-linejoin="round" d=" M 5129.466, 1220.088 5128.414, 1210.144 5127.362, 1200.199 5126.310, 1190.255 5125.258, 1180.310 5124.206, 1170.366 5123.153, 1160.421 5122.102, 1150.477 5121.049, 1140.532 5119.998, 1130.588 5118.945, 1120.643 5117.894, 1110.699 5116.841, 1100.754 5115.790, 1090.810 5114.737, 1080.865 5113.685, 1070.921 5112.633, 1060.976 5111.581, 1051.032 5110.529, 1041.087 5109.477, 1031.143 5108.425, 1021.198 5107.373, 1011.254 5106.637, 1004.292 5104.607, 994.500 5102.577, 984.708 5100.547, 974.917 5098.517, 965.125 5096.487, 955.333 5094.458, 945.541 5092.428, 935.749 5090.398, 925.957 5088.368, 916.166 5086.338, 906.374 5084.309, 896.582 5082.279, 886.790 5080.249, 876.998 5078.219, 867.206 5076.189, 857.415 5074.159, 847.623 5072.129, 837.831 5070.100, 828.039 5068.070, 818.247 5066.040, 808.455 5064.010, 798.664 5061.980, 788.872 5059.951, 779.080 5057.921, 769.288 5055.891, 759.496 5053.861, 749.705 5051.831, 739.913 5049.801, 730.121 5047.771, 720.329 5045.742, 710.537 5043.712, 700.745 5041.682, 690.954 5039.652, 681.162 5037.623, 671.370 5035.593, 661.578 5033.563, 651.786 5031.533, 641.995 5029.503, 632.203 5027.474, 622.411 5025.443, 612.619 5023.414, 602.827 5021.384, 593.035 5019.354, 583.244 5017.324, 573.452 5015.294, 563.660 5013.265, 553.868 5011.235, 544.076 5010.206, 539.114 5008.875, 529.202 5007.545, 519.291 5006.214, 509.380 5004.883, 499.469 5003.553, 489.558 5002.222, 479.647 5000.892, 469.736 4999.561, 459.825 4998.230, 449.914 4996.900, 440.003 4995.569, 430.092 4994.238, 420.181 4992.908, 410.270 4991.577, 400.358 4990.247, 390.447 4988.916, 380.536 4987.585, 370.625 4986.255, 360.714 4984.924, 350.803 4983.593, 340.892 4982.263, 330.981 4980.932, 321.070 4979.602, 311.159 4978.271, 301.248 4976.940, 291.337 4975.610, 281.426 4974.279, 271.514 4972.948, 261.603 4971.618, 251.692 4970.287, 241.781 4968.957, 231.870 4967.626, 221.959 4966.295, 212.048 4964.964, 202.137 4963.634, 192.226 4962.303, 182.315 4960.973, 172.404 4959.642, 162.493 4958.312, 152.582 4956.522, 139.257 4954.210, 129.528 4951.897, 119.799 4949.584, 110.070 4947.272, 100.341 4944.959, 90.612 4942.646, 80.883 4940.334, 71.154 4938.021, 61.425 4935.709, 51.697 4933.396, 41.968 4931.083, 32.239 4929.036, 23.623 4919.036, 23.623 4909.036, 23.623 4899.036, 23.623 4889.036, 23.623 4879.036, 23.623 4869.036, 23.623 4859.036, 23.623 4849.036, 23.623 4839.036, 23.623 4829.036, 23.623 4819.036, 23.623 4809.036, 23.623 4799.036, 23.623 4789.036, 23.623 4779.036, 23.623 4769.036, 23.623 4759.036, 23.623 4749.036, 23.623 4739.036, 23.623 4729.036, 23.623 4719.036, 23.623 4709.036, 23.623 4699.036, 23.623 4689.036, 23.623 4679.036, 23.623 4669.036, 23.623 4659.036, 23.623 4649.036, 23.623 4639.036, 23.623 4629.036, 23.623 4619.036, 23.623 4609.036, 23.623 4599.036, 23.623 4589.036, 23.623 4579.036, 23.623 4569.036, 23.623 4559.036, 23.623 4549.036, 23.623 4539.036, 23.623 4529.036, 23.623 4519.036, 23.623 4509.036, 23.623 4499.036, 23.623 4489.036, 23.623 4479.036, 23.623 4469.036, 23.623 4460.292, 23.623 4458.872, 23.623 4457.462, 23.623 4456.067, 23.623 4454.690, 23.623 4453.335, 23.623 4452.007, 23.623 4450.709, 23.623 4449.446, 23.623 4448.220, 23.623 4438.220, 23.623 4428.220, 23.623 4418.220, 23.623 4408.220, 23.623 4398.220, 23.623 4388.220, 23.623 4378.220, 23.623 4368.220, 23.623 4358.220, 23.623 4348.220, 23.623 4338.220, 23.623 4328.220, 23.623 4318.220, 23.623 4308.220, 23.623 4298.220, 23.623 4288.220, 23.623 4278.220, 23.623 4268.220, 23.623 4258.220, 23.623 4248.220, 23.623 4238.220, 23.623 4228.220, 23.623 4218.220, 23.623 4208.220, 23.623 4198.220, 23.623 4188.220, 23.623 4178.220, 23.623 4168.220, 23.623 4158.220, 23.623 4148.220, 23.623 4138.220, 23.623 4128.220, 23.623 4118.220, 23.623 4114.789, 23.623 4113.064, 23.623 4111.370, 23.623 4109.709, 23.623 4108.087, 23.623 4098.087, 23.623 4088.087, 23.623 4078.087, 23.623 4068.087, 23.623 4058.087, 23.623 4048.087, 23.623 4038.087, 23.623 4028.087, 23.623 4018.087, 23.623 4008.087, 23.623 3998.087, 23.623 3988.087, 23.623 3978.087, 23.623 3968.087, 23.623 3958.087, 23.623 3948.087, 23.623 3938.087, 23.623 3928.087, 23.623 3918.087, 23.623 3908.087, 23.623 3898.087, 23.623 3888.087, 23.623 3878.087, 23.623 3868.087, 23.623 3858.087, 23.623 3848.087, 23.623 3838.087, 23.623 3828.087, 23.623 3818.087, 23.623 3808.087, 23.623 3798.087, 23.623 3788.087, 23.623 3778.087, 23.623 3768.087, 23.623 3758.087, 23.623 3748.087, 23.623 3738.087, 23.623 3728.087, 23.623 3718.087, 23.623 3708.087, 23.623 3698.087, 23.623 3688.087, 23.623 3678.087, 23.623 3668.087, 23.623 3658.087, 23.623 3648.087, 23.623 3638.087, 23.623 3628.087, 23.623 3618.087, 23.623 3608.087, 23.623 3598.087, 23.623 3588.087, 23.623 3578.087, 23.623 3568.087, 23.623 3558.087, 23.623 3548.087, 23.623 3538.087, 23.623 3528.087, 23.623 3518.087, 23.623 3508.087, 23.623 3498.087, 23.623 3488.087, 23.623 3478.087, 23.623 3468.087, 23.623 3458.087, 23.623 3448.087, 23.623 3438.087, 23.623 3428.087, 23.623 3418.087, 23.623 3408.087, 23.623 3398.087, 23.623 3388.087, 23.623 3378.087, 23.623 3368.087, 23.623 3358.087, 23.623 3348.087, 23.623 3338.087, 23.623 3328.087, 23.623 3318.087, 23.623 3308.087, 23.623 3298.087, 23.623 3288.087, 23.623 3278.087, 23.623 3268.087, 23.623 3258.087, 23.623 3248.087, 23.623 3238.087, 23.623 3228.087, 23.623 3218.087, 23.623 3208.087, 23.623 3198.087, 23.623 3188.087, 23.623 3178.087, 23.623 3165.376, 23.623 3155.376, 23.623 3145.376, 23.623 3135.376, 23.623 3125.376, 23.623 3115.376, 23.623 3105.376, 23.623 3095.376, 23.623 3085.376, 23.623 3075.376, 23.623 3065.376, 23.623 3055.376, 23.623 3045.376, 23.623 3035.376, 23.623 3025.376, 23.623 3015.376, 23.623 3005.376, 23.623 2995.376, 23.623 2985.376, 23.623 2975.376, 23.623 2965.376, 23.623 2955.376, 23.623 2945.376, 23.623 2935.376, 23.623 2925.376, 23.623 2920.524, 23.623 2924.076, 32.971 2927.628, 42.319 2931.180, 51.667 2934.732, 61.015 2938.284, 70.362 2941.836, 79.710 2945.388, 89.058 2948.940, 98.406 2952.492, 107.754 2956.044, 117.102 2959.596, 126.450 2963.148, 135.798 2966.389, 144.326 2970.960, 153.220 2975.531, 162.115 2980.102, 171.009 2984.672, 179.903 2989.243, 188.797 2993.814, 197.692 2998.385, 206.586 3002.956, 215.480 3007.527, 224.374 3012.097, 233.268 3016.668, 242.163 3021.239, 251.057 3025.810, 259.951 3030.381, 268.845 3034.952, 277.740 3039.522, 286.634 3044.093, 295.528 3048.664, 304.422 3053.235, 313.317 3057.806, 322.211 3062.377, 331.105 3066.948, 339.999 3071.518, 348.893 3076.089, 357.788 3080.660, 366.682 3085.231, 375.576 3089.802, 384.470 3094.373, 393.365 3097.925, 400.276 " />
            <path fill="none" stroke-width="3.0" stroke-linecap="butt" stroke-opacity="1.0" stroke="rgb(0, 0, 0)" stroke-linejoin="round" d=" M 3817.337, 672.421 3817.271, 675.070 3817.073, 677.712 3816.744, 680.341 3816.284, 682.951 3815.694, 685.534 3814.977, 688.085 3814.133, 690.596 " />
            <path fill="none" stroke-width="3.0" stroke-linecap="butt" stroke-opacity="1.0" stroke="rgb(0, 0, 0)" stroke-linejoin="round" d=" M 3776.021, 724.230 3773.424, 724.755 3770.804, 725.150 3768.167, 725.414 3765.521, 725.546 3762.871, 725.546 3760.225, 725.414 " />
            <path fill="none" stroke-width="3.0" stroke-linecap="butt" stroke-opacity="1.0" stroke="rgb(0, 0, 0)" stroke-linejoin="round" d=" M 3810.866, 647.005 3812.075, 649.364 3813.165, 651.779 3814.133, 654.246 3814.977, 656.757 3815.694, 659.308 3816.284, 661.891 3816.744, 664.500 3817.073, 667.130 3817.271, 669.772 3817.337, 672.421 " />
            <path fill="none" stroke-width="3.0" stroke-linecap="butt" stroke-opacity="1.0" stroke="rgb(0, 0, 0)" stroke-linejoin="round" d=" M 3809.541, 644.711 3810.866, 647.005 " />
            <path fill="none" stroke-width="3.0" stroke-linecap="butt" stroke-opacity="1.0" stroke="rgb(0, 0, 0)" stroke-linejoin="round" d=" M 3804.905, 638.262 3806.557, 640.334 3808.104, 642.486 3809.541, 644.711 " />
            <path fill="none" stroke-width="3.0" stroke-linecap="butt" stroke-opacity="1.0" stroke="rgb(0, 0, 0)" stroke-linejoin="round" d=" M 3803.151, 636.275 3804.905, 638.262 " />
            <path fill="none" stroke-width="3.0" stroke-linecap="butt" stroke-opacity="1.0" stroke="rgb(0, 0, 0)" stroke-linejoin="round" d=" M 3797.329, 630.873 3799.359, 632.576 3801.301, 634.379 3803.151, 636.275 " />
            <path fill="none" stroke-width="3.0" stroke-linecap="butt" stroke-opacity="1.0" stroke="rgb(0, 0, 0)" stroke-linejoin="round" d=" M 3795.217, 629.273 3797.329, 630.873 " />
            <path fill="none" stroke-width="3.0" stroke-linecap="butt" stroke-opacity="1.0" stroke="rgb(0, 0, 0)" stroke-linejoin="round" d=" M 3786.052, 623.983 3788.440, 625.132 3790.767, 626.399 3793.028, 627.781 3795.217, 629.273 " />
            <path fill="none" stroke-width="3.0" stroke-linecap="butt" stroke-opacity="1.0" stroke="rgb(0, 0, 0)" stroke-linejoin="round" d=" M 3776.021, 620.613 3778.589, 621.266 3781.121, 622.046 3783.611, 622.954 3786.052, 623.983 " />
            <path fill="none" stroke-width="3.0" stroke-linecap="butt" stroke-opacity="1.0" stroke="rgb(0, 0, 0)" stroke-linejoin="round" d=" M 3713.416, 688.085 3712.698, 685.534 3712.108, 682.951 3711.648, 680.341 3711.319, 677.712 3711.121, 675.070 " />
            <path fill="none" stroke-width="3.0" stroke-linecap="butt" stroke-opacity="1.0" stroke="rgb(0, 0, 0)" stroke-linejoin="round" d=" M 3723.487, 706.579 3721.835, 704.508 3720.289, 702.356 3718.851, 700.130 3717.526, 697.836 " />
            <path fill="none" stroke-width="3.0" stroke-linecap="butt" stroke-opacity="1.0" stroke="rgb(0, 0, 0)" stroke-linejoin="round" d=" M 3737.625, 718.442 3735.365, 717.061 3733.175, 715.568 3731.063, 713.969 3729.033, 712.265 3727.091, 710.463 3725.241, 708.566 3723.487, 706.579 " />
            <path fill="none" stroke-width="3.0" stroke-linecap="butt" stroke-opacity="1.0" stroke="rgb(0, 0, 0)" stroke-linejoin="round" d=" M 3742.340, 720.860 3739.952, 719.710 " />
            <path fill="none" stroke-width="3.0" stroke-linecap="butt" stroke-opacity="1.0" stroke="rgb(0, 0, 0)" stroke-linejoin="round" d=" M 3747.271, 722.795 3744.781, 721.889 3742.340, 720.860 " />
            <path fill="none" stroke-width="3.0" stroke-linecap="butt" stroke-opacity="1.0" stroke="rgb(0, 0, 0)" stroke-linejoin="round" d=" M 3757.588, 725.150 3754.968, 724.755 3752.371, 724.230 3749.803, 723.576 3747.271, 722.795 " />
            <path fill="none" stroke-width="3.0" stroke-linecap="butt" stroke-opacity="1.0" stroke="rgb(0, 0, 0)" stroke-linejoin="round" d=" M 3760.225, 725.414 3757.588, 725.150 " />
            <path fill="none" stroke-width="3.0" stroke-linecap="butt" stroke-opacity="1.0" stroke="rgb(0, 0, 0)" stroke-linejoin="round" d=" M 3097.925, 400.276 3099.536, 410.146 3101.147, 420.015 3102.759, 429.884 3104.370, 439.753 3105.982, 449.623 3107.593, 459.492 3109.205, 469.361 3110.816, 479.231 3112.427, 489.100 3114.039, 498.969 3115.650, 508.839 3117.262, 518.708 3118.873, 528.577 3120.485, 538.447 3122.096, 548.316 3123.708, 558.185 3125.319, 568.054 3126.930, 577.924 3128.542, 587.793 3130.153, 597.662 3131.765, 607.532 3133.376, 617.401 3134.988, 627.270 3136.599, 637.140 3138.210, 647.009 3139.822, 656.878 3141.012, 664.166 3144.704, 673.459 3148.397, 682.752 3152.090, 692.046 3155.782, 701.339 3159.475, 710.632 3163.168, 719.925 3166.861, 729.219 3170.553, 738.512 3174.246, 747.805 3177.939, 757.098 3181.631, 766.391 3185.324, 775.685 3189.017, 784.978 3192.709, 794.271 3196.402, 803.564 3200.095, 812.858 3203.788, 822.151 3207.480, 831.444 3211.173, 840.737 3214.865, 850.031 3218.558, 859.324 3222.251, 868.617 3225.944, 877.910 3229.636, 887.203 3233.329, 896.497 3237.022, 905.790 3240.714, 915.083 3244.407, 924.376 3248.100, 933.670 3251.792, 942.963 3255.485, 952.256 3259.178, 961.549 3262.871, 970.842 3266.765, 980.644 3268.423, 990.506 3270.081, 1000.368 3271.739, 1010.229 3273.397, 1020.091 3275.055, 1029.952 3276.713, 1039.814 3278.371, 1049.676 3280.029, 1059.537 3281.687, 1069.399 3283.344, 1079.260 3285.002, 1089.122 3286.660, 1098.984 3288.318, 1108.845 3289.976, 1118.707 3291.634, 1128.568 3293.292, 1138.430 3294.950, 1148.292 3296.608, 1158.153 3298.266, 1168.015 3299.923, 1177.877 3301.581, 1187.738 3303.239, 1197.600 3304.897, 1207.461 3306.555, 1217.323 3308.213, 1227.185 3309.871, 1237.046 3311.529, 1246.908 3313.187, 1256.769 3314.844, 1266.631 3316.502, 1276.493 3318.160, 1286.354 3319.818, 1296.216 3321.476, 1306.077 3323.134, 1315.939 3324.792, 1325.801 3326.450, 1335.662 3328.108, 1345.524 3329.766, 1355.386 3331.424, 1365.247 3333.082, 1375.109 3334.740, 1384.970 3336.397, 1394.832 3338.055, 1404.694 3339.713, 1414.555 3341.371, 1424.417 3343.029, 1434.278 3344.687, 1444.140 3346.345, 1454.002 3348.003, 1463.863 3349.661, 1473.725 3351.318, 1483.586 3352.976, 1493.448 3354.634, 1503.310 3356.292, 1513.171 3357.950, 1523.033 3359.608, 1532.895 3361.266, 1542.756 3362.924, 1552.618 3364.582, 1562.479 3366.240, 1572.341 3367.897, 1582.203 3369.555, 1592.064 3371.213, 1601.926 3372.871, 1611.787 3374.529, 1621.649 3376.460, 1633.135 " />
            <path fill="none" stroke-width="3.0" stroke-linecap="butt" stroke-opacity="1.0" stroke="rgb(0, 0, 0)" stroke-linejoin="round" d=" M 3716.317, 649.364 3717.526, 647.005 3718.851, 644.711 3720.289, 642.486 3721.835, 640.334 " />
            <path fill="none" stroke-width="3.0" stroke-linecap="butt" stroke-opacity="1.0" stroke="rgb(0, 0, 0)" stroke-linejoin="round" d=" M 3713.416, 656.757 3714.260, 654.246 3715.228, 651.779 3716.317, 649.364 " />
            <path fill="none" stroke-width="3.0" stroke-linecap="butt" stroke-opacity="1.0" stroke="rgb(0, 0, 0)" stroke-linejoin="round" d=" M 3712.698, 659.308 3713.416, 656.757 " />
            <path fill="none" stroke-width="3.0" stroke-linecap="butt" stroke-opacity="1.0" stroke="rgb(0, 0, 0)" stroke-linejoin="round" d=" M 3712.108, 661.891 3712.698, 659.308 " />
            <path fill="none" stroke-width="3.0" stroke-linecap="butt" stroke-opacity="1.0" stroke="rgb(0, 0, 0)" stroke-linejoin="round" d=" M 3711.648, 664.500 3712.108, 661.891 " />
            <path fill="none" stroke-width="3.0" stroke-linecap="butt" stroke-opacity="1.0" stroke="rgb(0, 0, 0)" stroke-linejoin="round" d=" M 3711.319, 667.130 3711.648, 664.500 " />
            <path fill="none" stroke-width="3.0" stroke-linecap="butt" stroke-opacity="1.0" stroke="rgb(0, 0, 0)" stroke-linejoin="round" d=" M 3711.121, 675.070 3711.055, 672.421 3711.121, 669.772 3711.319, 667.130 " />
            <path fill="none" stroke-width="3.0" stroke-linecap="butt" stroke-opacity="1.0" stroke="rgb(0, 0, 0)" stroke-linejoin="round" d=" M 3773.424, 620.087 3776.021, 620.613 " />
            <path fill="none" stroke-width="3.0" stroke-linecap="butt" stroke-opacity="1.0" stroke="rgb(0, 0, 0)" stroke-linejoin="round" d=" M 3770.804, 619.692 3773.424, 620.087 " />
            <path fill="none" stroke-width="3.0" stroke-linecap="butt" stroke-opacity="1.0" stroke="rgb(0, 0, 0)" stroke-linejoin="round" d=" M 3757.588, 619.692 3760.225, 619.428 3762.871, 619.296 3765.521, 619.296 3768.167, 619.428 3770.804, 619.692 " />
            <path fill="none" stroke-width="3.0" stroke-linecap="butt" stroke-opacity="1.0" stroke="rgb(0, 0, 0)" stroke-linejoin="round" d=" M 3727.091, 634.379 3729.033, 632.576 3731.063, 630.873 3733.175, 629.273 3735.365, 627.781 " />
            <path fill="none" stroke-width="3.0" stroke-linecap="butt" stroke-opacity="1.0" stroke="rgb(0, 0, 0)" stroke-linejoin="round" d=" M 3721.835, 640.334 3723.487, 638.262 3725.241, 636.275 3727.091, 634.379 " />
            <path fill="none" stroke-width="3.0" stroke-linecap="butt" stroke-opacity="1.0" stroke="rgb(0, 0, 0)" stroke-linejoin="round" d=" M 3742.340, 623.983 3744.781, 622.954 3747.271, 622.046 3749.803, 621.266 3752.371, 620.613 3754.968, 620.087 3757.588, 619.692 3760.225, 619.428 " />
            <path fill="none" stroke-width="3.0" stroke-linecap="butt" stroke-opacity="1.0" stroke="rgb(0, 0, 0)" stroke-linejoin="round" d=" M 3739.952, 625.132 3742.340, 623.983 " />
            <path fill="none" stroke-width="3.0" stroke-linecap="butt" stroke-opacity="1.0" stroke="rgb(0, 0, 0)" stroke-linejoin="round" d=" M 3737.625, 626.399 3739.952, 625.132 " />
            <path fill="none" stroke-width="3.0" stroke-linecap="butt" stroke-opacity="1.0" stroke="rgb(0, 0, 0)" stroke-linejoin="round" d=" M 3735.365, 627.781 3737.625, 626.399 " />
            <path fill="none" stroke-width="3.0" stroke-linecap="butt" stroke-opacity="1.0" stroke="rgb(0, 0, 0)" stroke-linejoin="round" d=" M 3754.968, 620.087 3757.588, 619.692 " />
            <path fill="none" stroke-width="3.0" stroke-linecap="butt" stroke-opacity="1.0" stroke="rgb(0, 0, 0)" stroke-linejoin="round" d=" M 1763.439, 1995.386 1773.439, 1995.386 1783.439, 1995.386 1793.439, 1995.386 1803.439, 1995.386 1813.439, 1995.386 1823.439, 1995.386 1833.439, 1995.386 1843.439, 1995.386 1853.439, 1995.386 1863.439, 1995.386 1873.439, 1995.386 1883.439, 1995.386 1893.439, 1995.386 1903.439, 1995.386 1913.439, 1995.386 1923.439, 1995.386 1933.439, 1995.386 1943.439, 1995.386 1953.439, 1995.386 1963.439, 1995.386 1973.439, 1995.386 1983.439, 1995.386 1993.439, 1995.386 2003.439, 1995.386 2013.772, 1995.386 2023.772, 1995.386 2033.772, 1995.386 2043.772, 1995.386 2053.772, 1995.386 2063.772, 1995.386 2068.150, 1995.386 2070.900, 1985.772 2073.651, 1976.158 2076.401, 1966.543 2079.151, 1956.929 2081.902, 1947.315 2084.652, 1937.700 2087.402, 1928.086 2090.153, 1918.472 2092.903, 1908.857 2095.654, 1899.243 2098.404, 1889.629 2101.154, 1880.014 2103.905, 1870.400 2106.655, 1860.785 2109.405, 1851.171 2112.156, 1841.557 2114.906, 1831.942 2117.656, 1822.328 2120.407, 1812.714 2123.157, 1803.099 2125.907, 1793.485 2128.658, 1783.871 2131.408, 1774.256 2134.159, 1764.642 2136.909, 1755.028 2139.659, 1745.413 2142.410, 1735.799 2145.160, 1726.185 2147.910, 1716.570 2150.661, 1706.956 2153.411, 1697.342 2156.162, 1687.727 2158.912, 1678.113 2161.662, 1668.499 2164.413, 1658.884 2167.163, 1649.270 2169.913, 1639.656 2172.664, 1630.041 2175.414, 1620.427 2178.165, 1610.813 2180.915, 1601.198 2183.665, 1591.584 2186.416, 1581.970 2189.166, 1572.355 2191.916, 1562.741 2194.667, 1553.127 2197.417, 1543.512 2200.167, 1533.898 2202.918, 1524.284 2205.668, 1514.669 2208.418, 1505.055 2211.169, 1495.441 2213.919, 1485.826 2216.670, 1476.212 2219.420, 1466.598 2222.170, 1456.983 2224.921, 1447.369 2227.671, 1437.755 2230.421, 1428.140 2233.172, 1418.526 2235.922, 1408.912 2238.672, 1399.297 2241.423, 1389.683 2244.173, 1380.069 2246.924, 1370.454 2249.674, 1360.840 2252.424, 1351.226 2255.175, 1341.611 2257.925, 1331.997 2259.875, 1325.181 " />
            <path fill="none" stroke-width="3.0" stroke-linecap="butt" stroke-opacity="1.0" stroke="rgb(0, 0, 0)" stroke-linejoin="round" d=" M 1758.924, 1995.386 1763.425, 1995.385 1773.425, 1995.382 1783.425, 1995.378 1793.425, 1995.375 1803.425, 1995.372 1813.425, 1995.369 1823.425, 1995.366 1833.425, 1995.362 1843.425, 1995.359 1853.425, 1995.356 1863.425, 1995.353 1873.425, 1995.350 1883.425, 1995.346 1893.425, 1995.343 1899.386, 1995.341 1909.386, 1995.338 1919.386, 1995.335 1929.386, 1995.332 1939.386, 1995.328 1949.386, 1995.325 1959.386, 1995.322 1969.386, 1995.319 1979.386, 1995.316 1989.386, 1995.312 1999.386, 1995.309 2009.418, 1995.306 2009.450, 1995.305 2009.749, 1995.294 2010.078, 1995.293 2010.417, 1995.293 2010.764, 1995.293 2011.119, 1995.293 2011.479, 1995.292 2011.845, 1995.292 2012.214, 1995.292 2012.586, 1995.291 2012.959, 1995.291 2013.332, 1995.291 2013.332, 1995.291 2013.772, 1995.386 " />
            <path fill="none" stroke-width="3.0" stroke-linecap="butt" stroke-opacity="1.0" stroke="rgb(0, 0, 0)" stroke-linejoin="round" d=" M 403.704, 1995.386 413.704, 1995.386 423.704, 1995.386 433.704, 1995.386 443.704, 1995.386 453.704, 1995.386 463.704, 1995.386 473.704, 1995.386 483.704, 1995.386 493.704, 1995.386 503.704, 1995.386 513.704, 1995.386 523.704, 1995.386 533.704, 1995.386 543.704, 1995.386 553.704, 1995.386 563.704, 1995.386 573.704, 1995.386 583.704, 1995.386 593.704, 1995.386 603.704, 1995.386 613.704, 1995.386 623.704, 1995.386 633.704, 1995.386 643.704, 1995.386 653.704, 1995.386 663.704, 1995.386 673.704, 1995.386 683.704, 1995.386 693.704, 1995.386 703.704, 1995.386 713.704, 1995.386 723.704, 1995.386 733.704, 1995.386 743.704, 1995.386 753.704, 1995.386 763.704, 1995.386 773.704, 1995.386 783.704, 1995.386 793.704, 1995.386 803.704, 1995.386 813.704, 1995.386 823.704, 1995.386 833.704, 1995.386 843.704, 1995.386 853.704, 1995.386 863.704, 1995.386 873.704, 1995.386 883.704, 1995.386 893.704, 1995.386 903.704, 1995.386 913.704, 1995.386 923.704, 1995.386 933.704, 1995.386 943.704, 1995.386 953.704, 1995.386 963.704, 1995.386 973.704, 1995.386 983.704, 1995.386 993.704, 1995.386 1003.704, 1995.386 1013.704, 1995.386 1023.704, 1995.386 1033.704, 1995.386 1043.704, 1995.386 1053.704, 1995.386 1063.704, 1995.386 1073.704, 1995.386 1083.704, 1995.386 1093.704, 1995.386 1103.704, 1995.386 1113.704, 1995.386 1123.704, 1995.386 1133.704, 1995.386 1143.704, 1995.386 1153.704, 1995.386 1163.704, 1995.386 1173.704, 1995.386 1183.704, 1995.386 1193.704, 1995.386 1203.704, 1995.386 1213.704, 1995.386 1223.704, 1995.386 1233.704, 1995.386 1243.704, 1995.386 1253.704, 1995.386 1263.704, 1995.386 1273.704, 1995.386 1283.704, 1995.386 1293.704, 1995.386 1303.704, 1995.386 1313.704, 1995.386 1323.704, 1995.386 1333.704, 1995.386 1343.704, 1995.386 1353.704, 1995.386 1363.704, 1995.386 1373.704, 1995.386 1383.704, 1995.386 1393.704, 1995.386 1403.704, 1995.386 1413.704, 1995.386 1423.704, 1995.386 1433.704, 1995.386 1443.704, 1995.386 1453.704, 1995.386 1463.704, 1995.386 1473.704, 1995.386 1483.704, 1995.386 1493.704, 1995.386 1503.704, 1995.386 1513.704, 1995.386 1523.704, 1995.386 1533.704, 1995.386 1543.704, 1995.386 1553.704, 1995.386 1563.704, 1995.386 1573.704, 1995.386 1583.704, 1995.386 1593.704, 1995.386 1603.704, 1995.386 1613.704, 1995.386 1623.704, 1995.386 1633.704, 1995.386 1643.704, 1995.386 1653.704, 1995.386 1663.704, 1995.386 1673.704, 1995.386 1683.704, 1995.386 1693.704, 1995.386 1703.704, 1995.386 1713.704, 1995.386 1723.704, 1995.386 1733.704, 1995.386 1751.117, 1995.386 1752.293, 1995.386 1753.524, 1995.386 1754.807, 1995.386 1756.137, 1995.386 1757.511, 1995.386 1758.924, 1995.386 " />
            <path fill="none" stroke-width="3.0" stroke-linecap="butt" stroke-opacity="1.0" stroke="rgb(0, 0, 0)" stroke-linejoin="round" d=" M 1561.088, 426.389 1558.570, 428.971 1555.926, 431.424 1553.163, 433.742 1550.288, 435.920 1547.308, 437.951 1544.231, 439.832 1541.064, 441.556 1537.814, 443.121 1534.491, 444.522 1531.102, 445.755 1527.656, 446.819 1524.161, 447.709 1520.626, 448.423 1517.059, 448.961 1513.471, 449.320 1509.869, 449.500 1506.262, 449.500 1502.660, 449.320 1499.071, 448.961 1495.505, 448.423 1491.970, 447.709 1488.475, 446.819 1485.029, 445.755 1481.640, 444.522 1478.317, 443.121 1475.067, 441.556 1471.900, 439.832 1468.822, 437.951 1465.842, 435.920 1462.968, 433.742 1460.205, 431.424 1457.561, 428.971 1455.043, 426.389 1452.656, 423.684 1450.408, 420.865 1448.302, 417.937 1446.346, 414.907 1444.543, 411.784 1442.897, 408.574 1441.414, 405.287 1440.096, 401.930 1438.947, 398.511 1437.971, 395.040 1437.168, 391.523 1436.542, 387.972 1436.094, 384.393 1435.824, 380.796 1435.734, 377.191 1435.824, 373.586 1436.094, 369.989 1436.542, 366.410 1437.168, 362.859 1437.971, 359.343 1438.947, 355.871 1440.096, 352.453 1441.414, 349.095 1442.897, 345.808 1444.543, 342.598 1446.346, 339.475 1448.302, 336.446 1450.408, 333.517 1452.656, 330.697 1455.043, 327.993 1457.561, 325.411 1460.205, 322.958 1462.968, 320.640 1465.842, 318.463 1468.822, 316.431 1471.900, 314.550 1475.067, 312.826 1478.317, 311.261 1481.640, 309.860 1485.029, 308.626 1488.475, 307.564 1491.970, 306.673 1495.505, 305.959 1499.071, 305.422 1502.660, 305.063 1506.262, 304.882 1509.869, 304.882 1513.471, 305.063 1517.059, 305.422 1520.626, 305.959 1524.161, 306.673 1527.656, 307.564 1531.102, 308.626 1534.491, 309.860 1537.814, 311.261 1541.064, 312.826 1544.231, 314.550 1547.308, 316.431 1550.288, 318.463 1553.163, 320.640 1555.926, 322.958 1558.570, 325.411 1561.088, 327.993 1563.474, 330.697 1565.723, 333.517 1567.828, 336.446 1569.785, 339.475 1571.588, 342.598 1573.234, 345.808 1574.717, 349.095 1576.035, 352.453 1577.183, 355.871 1578.160, 359.343 1578.963, 362.859 1579.589, 366.410 1580.037, 369.989 1580.307, 373.586 1580.397, 377.191 1580.307, 380.796 1580.037, 384.393 1579.589, 387.972 1578.963, 391.523 1578.160, 395.040 1577.183, 398.511 1576.035, 401.930 1574.717, 405.287 1573.234, 408.574 1571.588, 411.784 1569.785, 414.907 1567.828, 417.937 1565.723, 420.865 1563.474, 423.684 1561.088, 426.389 " />
            <path fill="none" stroke-width="3.0" stroke-linecap="butt" stroke-opacity="1.0" stroke="rgb(0, 0, 0)" stroke-linejoin="round" d=" M 23.852, 1995.386 33.852, 1995.386 43.852, 1995.386 45.183, 1995.386 55.183, 1995.386 65.183, 1995.386 75.183, 1995.386 85.183, 1995.386 95.183, 1995.386 105.183, 1995.386 115.183, 1995.386 125.183, 1995.386 135.183, 1995.386 145.183, 1995.386 155.183, 1995.386 165.183, 1995.386 175.183, 1995.386 185.183, 1995.386 195.183, 1995.386 205.183, 1995.386 215.183, 1995.386 225.183, 1995.386 235.183, 1995.386 245.183, 1995.386 255.183, 1995.386 265.183, 1995.386 275.183, 1995.386 285.183, 1995.386 295.183, 1995.386 305.183, 1995.386 315.183, 1995.386 325.183, 1995.386 335.183, 1995.386 345.183, 1995.386 355.183, 1995.386 365.183, 1995.386 375.183, 1995.386 385.183, 1995.386 395.183, 1995.386 403.704, 1995.386 " />
            <path fill="none" stroke-width="3.0" stroke-linecap="butt" stroke-opacity="1.0" stroke="rgb(0, 0, 0)" stroke-linejoin="round" d=" M 282.123, 464.142 281.505, 474.123 280.887, 484.104 280.268, 494.085 279.650, 504.066 279.032, 514.047 278.414, 524.027 277.796, 534.008 277.177, 543.989 276.559, 553.970 275.941, 563.951 275.323, 573.932 274.704, 583.913 274.086, 593.894 273.468, 603.875 272.850, 613.855 272.231, 623.836 271.613, 633.817 270.995, 643.798 270.868, 645.843 267.379, 655.215 263.889, 664.586 260.400, 673.958 256.910, 683.329 253.421, 692.700 249.931, 702.072 246.442, 711.443 242.952, 720.815 239.463, 730.186 235.973, 739.557 235.136, 741.806 234.865, 751.802 234.594, 761.798 234.324, 771.795 234.053, 781.791 233.782, 791.787 233.511, 801.784 233.241, 811.780 232.970, 821.776 232.699, 831.773 232.428, 841.769 232.157, 851.765 231.887, 861.762 231.616, 871.758 231.345, 881.754 231.074, 891.751 230.804, 901.747 230.533, 911.743 230.262, 921.740 229.991, 931.736 229.721, 941.732 229.450, 951.729 229.179, 961.725 228.908, 971.721 228.638, 981.718 228.367, 991.714 228.096, 1001.710 227.825, 1011.707 227.554, 1021.703 227.284, 1031.699 227.013, 1041.696 226.742, 1051.692 226.471, 1061.688 226.201, 1071.685 225.930, 1081.681 225.659, 1091.677 225.388, 1101.674 225.118, 1111.670 224.847, 1121.666 224.576, 1131.663 224.305, 1141.659 224.035, 1151.655 223.764, 1161.652 223.493, 1171.648 223.222, 1181.644 222.951, 1191.641 222.681, 1201.637 222.410, 1211.633 222.139, 1221.630 221.868, 1231.626 221.598, 1241.622 221.327, 1251.619 221.056, 1261.615 220.785, 1271.611 220.515, 1281.608 220.244, 1291.604 219.973, 1301.600 219.693, 1311.938 217.896, 1321.775 216.099, 1331.612 214.301, 1341.449 212.504, 1351.287 210.707, 1361.124 208.910, 1370.961 207.112, 1380.798 205.315, 1390.635 203.518, 1400.472 201.721, 1410.310 199.923, 1420.147 198.126, 1429.984 196.329, 1439.821 194.531, 1449.658 192.734, 1459.495 190.937, 1469.333 189.140, 1479.170 187.342, 1489.007 186.916, 1491.343 184.059, 1500.926 181.203, 1510.510 178.347, 1520.093 175.490, 1529.676 172.634, 1539.260 169.778, 1548.843 166.921, 1558.427 164.065, 1568.010 161.209, 1577.593 158.352, 1587.177 155.496, 1596.760 152.640, 1606.344 149.783, 1615.927 146.927, 1625.510 144.071, 1635.094 141.214, 1644.677 138.358, 1654.260 135.502, 1663.844 132.645, 1673.427 129.789, 1683.011 126.932, 1692.594 124.076, 1702.177 121.220, 1711.761 118.363, 1721.344 115.507, 1730.928 112.651, 1740.511 109.794, 1750.094 106.938, 1759.678 104.082, 1769.261 101.225, 1778.844 98.369, 1788.428 95.513, 1798.011 92.656, 1807.595 89.800, 1817.178 86.944, 1826.761 84.087, 1836.345 81.231, 1845.928 78.375, 1855.512 75.518, 1865.095 72.662, 1874.678 69.806, 1884.262 66.949, 1893.845 64.093, 1903.428 61.237, 1913.012 58.165, 1923.318 53.866, 1932.347 49.567, 1941.376 45.268, 1950.405 40.970, 1959.434 36.671, 1968.463 32.372, 1977.492 28.073, 1986.521 23.852, 1995.386 " />
            <path fill="none" stroke-width="3.0" stroke-linecap="butt" stroke-opacity="1.0" stroke="rgb(0, 0, 0)" stroke-linejoin="round" d=" M 2259.875, 1325.181 2259.330, 1315.196 2258.784, 1305.211 2258.239, 1295.225 2257.693, 1285.240 2257.148, 1275.255 2256.603, 1265.270 2256.057, 1255.285 2255.512, 1245.300 2254.966, 1235.315 2254.421, 1225.330 2253.875, 1215.345 2253.330, 1205.359 2252.785, 1195.374 2252.239, 1185.389 2251.694, 1175.404 2251.148, 1165.419 2250.603, 1155.434 2250.058, 1145.449 2249.512, 1135.464 2248.967, 1125.479 2248.421, 1115.493 2247.876, 1105.508 2247.331, 1095.523 2246.785, 1085.538 2246.240, 1075.553 2245.694, 1065.568 2245.149, 1055.583 2244.604, 1045.598 2244.058, 1035.612 2243.513, 1025.627 2242.968, 1015.642 2242.422, 1005.657 2241.877, 995.672 2241.331, 985.687 2240.786, 975.702 2240.240, 965.717 2239.695, 955.732 2239.150, 945.746 2238.604, 935.761 2238.059, 925.776 2237.513, 915.791 2236.968, 905.806 2236.423, 895.821 2235.877, 885.836 2235.332, 875.851 2234.786, 865.865 2234.241, 855.880 2233.696, 845.895 2233.150, 835.910 2232.605, 825.925 2232.059, 815.940 2231.514, 805.955 2230.969, 795.970 2230.423, 785.985 2229.878, 776.000 2229.332, 766.014 2228.787, 756.029 2228.241, 746.044 2227.696, 736.059 2227.151, 726.074 2226.605, 716.089 2226.060, 706.104 2225.515, 696.119 2225.081, 688.176 2228.742, 678.870 2232.403, 669.565 2236.064, 660.259 2239.725, 650.953 2243.386, 641.648 2247.048, 632.342 2250.709, 623.036 2254.370, 613.731 2258.031, 604.425 2261.692, 595.119 2265.354, 585.813 2269.015, 576.508 2272.676, 567.202 2276.337, 557.896 2279.998, 548.591 2283.659, 539.285 2287.320, 529.979 2290.981, 520.674 2294.643, 511.368 2298.304, 502.062 2301.965, 492.757 2305.626, 483.451 2309.287, 474.145 2312.948, 464.839 2316.610, 455.534 2320.271, 446.228 2323.932, 436.922 2327.593, 427.617 2331.254, 418.311 2334.915, 409.005 2338.576, 399.700 2342.238, 390.394 2345.899, 381.088 2349.560, 371.782 2353.221, 362.477 2356.882, 353.171 2360.543, 343.865 2364.205, 334.560 2367.866, 325.254 2371.527, 315.948 2375.188, 306.643 2378.849, 297.337 2382.510, 288.031 2386.171, 278.726 2389.833, 269.420 2393.494, 260.114 2397.155, 250.808 2400.816, 241.503 2404.477, 232.197 2408.138, 222.891 2411.800, 213.586 2415.461, 204.280 2419.122, 194.974 2422.783, 185.669 2426.444, 176.363 2430.105, 167.057 2433.766, 157.752 2437.427, 148.446 2441.089, 139.140 2444.750, 129.834 2448.411, 120.529 2451.047, 113.830 " />
            <path fill="none" stroke-width="3.0" stroke-linecap="butt" stroke-opacity="1.0" stroke="rgb(0, 0, 0)" stroke-linejoin="round" d=" M 2451.047, 113.830 2452.042, 103.879 2453.037, 93.929 2454.032, 83.979 2455.028, 74.028 2456.023, 64.078 2457.018, 54.128 2458.014, 44.177 2459.009, 34.227 2460.070, 23.623 2450.070, 23.623 2440.070, 23.623 2430.070, 23.623 2420.070, 23.623 2410.070, 23.623 2400.070, 23.623 2390.070, 23.623 2380.070, 23.623 2370.070, 23.623 2360.070, 23.623 2350.070, 23.623 2340.070, 23.623 2330.070, 23.623 2320.070, 23.623 2310.070, 23.623 2300.070, 23.623 2290.070, 23.623 2280.070, 23.623 2270.070, 23.623 2260.070, 23.623 2250.070, 23.623 2240.070, 23.623 2230.070, 23.623 2220.070, 23.623 2210.070, 23.623 2200.070, 23.623 2190.070, 23.623 2180.070, 23.623 2170.070, 23.623 2160.070, 23.623 2150.070, 23.623 2140.070, 23.623 2130.070, 23.623 2120.070, 23.623 2110.070, 23.623 2100.070, 23.623 2090.070, 23.623 2080.070, 23.623 2070.070, 23.623 2060.070, 23.623 2050.070, 23.623 2040.070, 23.623 2026.021, 23.623 2022.871, 23.623 2019.763, 23.623 2016.707, 23.623 2013.714, 23.623 2010.794, 23.623 2007.958, 23.623 2005.215, 23.623 2002.576, 23.623 2000.050, 23.623 1997.647, 23.623 1995.374, 23.623 1985.374, 23.623 1975.374, 23.623 1965.374, 23.623 1955.374, 23.623 1945.374, 23.623 1935.374, 23.623 1925.374, 23.623 1915.374, 23.623 1905.374, 23.623 1895.374, 23.623 1885.374, 23.623 1875.374, 23.623 1865.374, 23.623 1855.374, 23.623 1845.374, 23.623 1835.374, 23.623 1825.374, 23.623 1815.374, 23.623 1805.374, 23.623 1795.374, 23.623 1785.374, 23.623 1775.374, 23.623 1765.374, 23.623 1755.374, 23.623 1745.374, 23.623 1735.374, 23.623 1725.374, 23.623 1715.374, 23.623 1705.374, 23.623 1695.374, 23.623 1685.374, 23.623 1675.374, 23.623 1665.374, 23.623 1655.374, 23.623 1645.374, 23.623 1635.374, 23.623 1625.374, 23.623 1615.374, 23.623 1605.374, 23.623 1595.374, 23.623 1585.374, 23.623 1575.374, 23.623 1565.374, 23.623 1555.374, 23.623 1545.374, 23.623 1535.374, 23.623 1525.374, 23.623 1515.374, 23.623 1505.374, 23.623 1495.374, 23.623 1485.374, 23.623 1475.374, 23.623 1465.374, 23.623 1455.374, 23.623 1445.374, 23.623 1435.374, 23.623 1425.374, 23.623 1415.374, 23.623 1405.374, 23.623 1395.374, 23.623 1387.840, 23.623 1385.104, 23.623 1382.290, 23.623 1379.408, 23.623 1376.464, 23.623 1373.468, 23.623 1370.428, 23.623 1360.428, 23.623 1350.428, 23.623 1340.428, 23.623 1330.428, 23.623 1320.428, 23.623 1310.428, 23.623 1300.428, 23.623 1290.428, 23.623 1280.428, 23.623 1270.428, 23.623 1260.428, 23.623 1250.428, 23.623 1240.428, 23.623 1230.428, 23.623 1220.428, 23.623 1210.428, 23.623 1203.306, 23.623 1200.393, 23.623 1197.388, 23.623 1194.302, 23.623 1191.146, 23.623 1187.927, 23.623 1184.657, 23.623 1174.657, 23.623 1164.657, 23.623 1154.657, 23.623 1144.657, 23.623 1134.657, 23.623 1124.657, 23.623 1114.657, 23.623 1112.536, 23.623 1109.247, 23.623 1105.910, 23.623 1102.535, 23.623 1101.341, 23.623 1099.132, 23.623 1095.712, 23.623 1085.712, 23.623 1075.712, 23.624 1065.712, 23.624 1055.712, 23.624 1045.712, 23.625 1035.712, 23.625 1029.157, 23.625 1019.157, 23.626 1009.157, 23.626 999.157, 23.626 989.157, 23.627 979.157, 23.627 969.157, 23.627 959.157, 23.628 949.157, 23.628 939.157, 23.629 929.157, 23.629 919.157, 23.629 909.157, 23.630 899.157, 23.630 889.157, 23.630 879.157, 23.631 869.157, 23.631 859.157, 23.631 849.157, 23.632 839.157, 23.632 829.157, 23.633 819.157, 23.633 809.157, 23.633 799.157, 23.634 789.157, 23.634 779.157, 23.634 769.157, 23.635 759.157, 23.635 749.157, 23.635 739.157, 23.636 729.157, 23.636 719.157, 23.636 709.157, 23.637 699.157, 23.637 689.157, 23.638 679.157, 23.638 669.157, 23.638 659.157, 23.639 649.157, 23.639 639.157, 23.639 629.157, 23.640 619.157, 23.640 609.157, 23.641 599.157, 23.641 589.157, 23.641 579.157, 23.642 569.157, 23.642 559.157, 23.642 549.157, 23.643 539.157, 23.643 529.157, 23.643 519.157, 23.644 509.157, 23.644 499.157, 23.644 484.523, 23.645 483.101, 23.645 482.874, 23.658 482.648, 23.659 482.420, 23.659 482.192, 23.659 481.963, 23.660 481.736, 23.660 481.510, 23.660 481.287, 23.661 481.066, 23.661 480.849, 23.662 480.637, 23.662 480.429, 23.662 480.226, 23.663 480.028, 23.663 479.836, 23.663 479.651, 23.664 479.472, 23.664 479.300, 23.665 " />
            <path fill="none" stroke-width="3.0" stroke-linecap="butt" stroke-opacity="1.0" stroke="rgb(0, 0, 0)" stroke-linejoin="round" d=" M 479.300, 23.665 479.024, 23.623 469.024, 23.623 459.244, 23.623 455.514, 32.901 451.783, 42.179 448.053, 51.457 444.322, 60.735 440.592, 70.014 436.861, 79.292 433.131, 88.570 429.401, 97.848 425.670, 107.126 421.940, 116.404 418.209, 125.682 414.479, 134.960 410.748, 144.239 407.018, 153.517 403.287, 162.795 399.557, 172.073 395.826, 181.351 392.096, 190.629 388.365, 199.907 384.635, 209.185 380.904, 218.463 377.174, 227.742 373.443, 237.020 369.713, 246.298 365.982, 255.576 362.252, 264.854 358.521, 274.132 354.791, 283.410 351.060, 292.688 347.330, 301.966 343.599, 311.245 339.869, 320.523 336.138, 329.801 332.408, 339.079 328.677, 348.357 324.947, 357.635 321.216, 366.913 317.486, 376.191 313.755, 385.470 310.025, 394.748 306.294, 404.026 302.564, 413.304 298.833, 422.582 295.103, 431.860 291.373, 441.138 287.642, 450.416 283.912, 459.694 282.123, 464.142 " />
            <path fill="none" stroke-width="3.0" stroke-linecap="butt" stroke-opacity="1.0" stroke="rgb(0, 0, 0)" stroke-linejoin="round" d=" M 3747.271, 722.795 3749.803, 723.576 3752.371, 724.230 3754.968, 724.755 3757.588, 725.150 3760.225, 725.414 " />
            <path fill="none" stroke-width="3.0" stroke-linecap="butt" stroke-opacity="1.0" stroke="rgb(0, 0, 0)" stroke-linejoin="round" d=" M 3739.952, 719.710 3742.340, 720.860 3744.781, 721.889 " />
            <path fill="none" stroke-width="3.0" stroke-linecap="butt" stroke-opacity="1.0" stroke="rgb(0, 0, 0)" stroke-linejoin="round" d=" M 3744.781, 622.954 3742.340, 623.983 3739.952, 625.132 " />
            <path fill="none" stroke-width="3.0" stroke-linecap="butt" stroke-opacity="1.0" stroke="rgb(0, 0, 0)" stroke-linejoin="round" d=" M 3747.271, 622.046 3749.803, 621.266 3752.371, 620.613 3754.968, 620.087 " />
            <path fill="none" stroke-width="3.0" stroke-linecap="butt" stroke-opacity="1.0" stroke="rgb(0, 0, 0)" stroke-linejoin="round" d=" M 3757.588, 619.692 3754.968, 620.087 " />
            <path fill="none" stroke-width="3.0" stroke-linecap="butt" stroke-opacity="1.0" stroke="rgb(0, 0, 0)" stroke-linejoin="round" d=" M 1343.494, 1047.715 1340.975, 1050.297 1338.332, 1052.750 1335.569, 1055.069 1332.694, 1057.246 1329.714, 1059.278 1326.637, 1061.159 1323.469, 1062.883 1320.220, 1064.448 1316.897, 1065.849 1313.508, 1067.083 1310.061, 1068.145 1306.567, 1069.035 1303.031, 1069.750 1299.465, 1070.288 1295.876, 1070.647 1292.275, 1070.826 1288.668, 1070.826 1285.066, 1070.647 1281.477, 1070.288 1277.911, 1069.750 1274.376, 1069.035 1270.881, 1068.145 1267.435, 1067.083 1264.045, 1065.849 1260.722, 1064.448 1257.473, 1062.883 1254.305, 1061.159 1251.228, 1059.278 1248.248, 1057.246 1245.373, 1055.069 1242.611, 1052.750 1239.967, 1050.297 1237.449, 1047.715 1235.062, 1045.011 1232.814, 1042.191 1230.708, 1039.264 1228.751, 1036.233 1226.948, 1033.110 1225.303, 1029.901 1223.819, 1026.614 1222.502, 1023.257 1221.353, 1019.838 1220.377, 1016.366 1219.574, 1012.850 1218.948, 1009.298 1218.499, 1005.719 1218.230, 1002.123 1218.140, 998.517 1218.230, 994.912 1218.499, 991.316 1218.948, 987.737 1219.574, 984.186 1220.377, 980.670 1221.353, 977.197 1222.502, 973.779 1223.819, 970.421 1225.303, 967.134 1226.948, 963.925 1228.751, 960.801 1230.708, 957.772 1232.814, 954.844 1235.062, 952.024 1237.449, 949.320 1239.967, 946.738 1242.611, 944.285 1245.373, 941.967 1248.248, 939.789 1251.228, 937.757 1254.305, 935.877 1257.473, 934.152 1260.722, 932.587 1264.045, 931.186 1267.435, 929.953 1270.881, 928.889 1274.376, 928.000 1277.911, 927.285 1281.477, 926.747 1285.066, 926.388 1288.668, 926.209 1292.275, 926.209 1295.876, 926.388 1299.465, 926.747 1303.031, 927.285 1306.567, 928.000 1310.061, 928.889 1313.508, 929.953 1316.897, 931.186 1320.220, 932.587 1323.469, 934.152 1326.637, 935.877 1329.714, 937.757 1332.694, 939.789 1335.569, 941.967 1338.332, 944.285 1340.975, 946.738 1343.494, 949.320 1345.880, 952.024 1348.129, 954.844 1350.234, 957.772 1352.191, 960.801 1353.994, 963.925 1355.639, 967.134 1357.123, 970.421 1358.440, 973.779 1359.589, 977.197 1360.566, 980.670 1361.368, 984.186 1361.995, 987.737 1362.443, 991.316 1362.713, 994.912 1362.802, 998.517 1362.713, 1002.123 1362.443, 1005.719 1361.995, 1009.298 1361.368, 1012.850 1360.566, 1016.366 1359.589, 1019.838 1358.440, 1023.257 1357.123, 1026.614 1355.639, 1029.901 1353.994, 1033.110 1352.191, 1036.233 1350.234, 1039.264 1348.129, 1042.191 1345.880, 1045.011 1343.494, 1047.715 " />
            <path fill="none" stroke-width="3.0" stroke-linecap="butt" stroke-opacity="1.0" stroke="rgb(0, 0, 0)" stroke-linejoin="round" d=" M 3739.952, 625.132 3742.340, 623.983 " />
            <path fill="none" stroke-width="3.0" stroke-linecap="butt" stroke-opacity="1.0" stroke="rgb(0, 0, 0)" stroke-linejoin="round" d=" M 3744.781, 721.889 3742.340, 720.860 " />
            <path fill="none" stroke-width="3.0" stroke-linecap="butt" stroke-opacity="1.0" stroke="rgb(0, 0, 0)" stroke-linejoin="round" d=" M 1758.924, 1995.386 1763.439, 1995.386 " />
            <path fill="none" stroke-width="3.0" stroke-linecap="butt" stroke-opacity="1.0" stroke="rgb(0, 0, 0)" stroke-linejoin="round" d=" M 3714.260, 690.596 3713.416, 688.085 " />
            <path fill="none" stroke-width="3.0" stroke-linecap="butt" stroke-opacity="1.0" stroke="rgb(0, 0, 0)" stroke-linejoin="round" d=" M 3715.228, 693.063 3714.260, 690.596 " />
            <path fill="none" stroke-width="3.0" stroke-linecap="butt" stroke-opacity="1.0" stroke="rgb(0, 0, 0)" stroke-linejoin="round" d=" M 3716.317, 695.478 3715.228, 693.063 " />
            <path fill="none" stroke-width="3.0" stroke-linecap="butt" stroke-opacity="1.0" stroke="rgb(0, 0, 0)" stroke-linejoin="round" d=" M 3717.526, 697.836 3716.317, 695.478 " />
            <path fill="none" stroke-width="3.0" stroke-linecap="butt" stroke-opacity="1.0" stroke="rgb(0, 0, 0)" stroke-linejoin="round" d=" M 3739.952, 719.710 3737.625, 718.442 " />
            <path fill="none" stroke-width="3.0" stroke-linecap="butt" stroke-opacity="1.0" stroke="rgb(0, 0, 0)" stroke-linejoin="round" d=" M 3747.271, 722.795 3749.803, 723.576 " />
            <path fill="none" stroke-width="3.0" stroke-linecap="butt" stroke-opacity="1.0" stroke="rgb(0, 0, 0)" stroke-linejoin="round" d=" M 3760.225, 725.414 3757.588, 725.150 " />
        </g>
    </g>
<g id="slice-labels"><text x="563.9836" y="516.56375" text-anchor="middle" dominant-baseline="middle" font-family="Arial, sans-serif" font-size="59.045949121965165" font-weight="bold" fill="black" stroke="none" stroke-width="7.08551389463582" paint-order="stroke fill">Slice36 (Back)</text><text x="1644.2468" y="516.56375" text-anchor="middle" dominant-baseline="middle" font-family="Arial, sans-serif" font-size="59.045949121965165" font-weight="bold" fill="black" stroke="none" stroke-width="7.08551389463582" paint-order="stroke fill">Slice36 (Back)</text><text x="2724.5099999999998" y="516.56375" text-anchor="middle" dominant-baseline="middle" font-family="Arial, sans-serif" font-size="59.045949121965165" font-weight="bold" fill="black" stroke="none" stroke-width="7.08551389463582" paint-order="stroke fill">Slice36 (Back)</text><text x="3804.7731999999996" y="516.56375" text-anchor="middle" dominant-baseline="middle" font-family="Arial, sans-serif" font-size="59.045949121965165" font-weight="bold" fill="black" stroke="none" stroke-width="7.08551389463582" paint-order="stroke fill">Slice36 (Back)</text><text x="4885.0364" y="516.56375" text-anchor="middle" dominant-baseline="middle" font-family="Arial, sans-serif" font-size="59.045949121965165" font-weight="bold" fill="black" stroke="none" stroke-width="7.08551389463582" paint-order="stroke fill">Slice36 (Back)</text><text x="563.9836" y="1502.44525" text-anchor="middle" dominant-baseline="middle" font-family="Arial, sans-serif" font-size="59.045949121965165" font-weight="bold" fill="black" stroke="none" stroke-width="7.08551389463582" paint-order="stroke fill">Slice36 (Back)</text><text x="1644.2468" y="1502.44525" text-anchor="middle" dominant-baseline="middle" font-family="Arial, sans-serif" font-size="59.045949121965165" font-weight="bold" fill="black" stroke="none" stroke-width="7.08551389463582" paint-order="stroke fill">Slice36 (Back)</text><text x="2724.5099999999998" y="1502.44525" text-anchor="middle" dominant-baseline="middle" font-family="Arial, sans-serif" font-size="59.045949121965165" font-weight="bold" fill="black" stroke="none" stroke-width="7.08551389463582" paint-order="stroke fill">Slice36 (Back)</text><text x="3804.7731999999996" y="1502.44525" text-anchor="middle" dominant-baseline="middle" font-family="Arial, sans-serif" font-size="59.045949121965165" font-weight="bold" fill="black" stroke="none" stroke-width="7.08551389463582" paint-order="stroke fill">Slice36 (Back)</text><text x="4885.0364" y="1502.44525" text-anchor="middle" dominant-baseline="middle" font-family="Arial, sans-serif" font-size="59.045949121965165" font-weight="bold" fill="black" stroke="none" stroke-width="7.08551389463582" paint-order="stroke fill">Slice36 (Back)</text></g></svg>