<?xml version='1.0' encoding='utf-8'?>
<svg xmlns="http://www.w3.org/2000/svg" xmlns:inkscape="http://www.inkscape.org/namespaces/inkscape" version="1.1" width="220.8690599501133mm" height="173.2841649055481mm" viewBox="-0.04893355261750898 0.004057182303405682 2609.1188671052346 2047.000885635393" preserveAspectRatio="none">
    <g id="ViewLayer_LineSet" inkscape:groupmode="lineset" inkscape:label="ViewLayer_LineSet">
        <g inkscape:groupmode="layer" id="strokes" inkscape:label="strokes">
            <path fill="none" stroke-width="3.0" stroke-linecap="butt" stroke-opacity="1.0" stroke="rgb(0, 0, 0)" stroke-linejoin="round" d=" M 2432.085, 1191.214 2430.586, 1181.327 2429.087, 1171.440 2427.589, 1161.553 2426.090, 1151.666 2424.591, 1141.779 2423.092, 1131.892 2421.593, 1122.005 2420.094, 1112.118 2418.595, 1102.231 2417.096, 1092.344 2415.598, 1082.457 2414.099, 1072.570 2412.600, 1062.683 2411.101, 1052.796 2409.602, 1042.909 2408.103, 1033.022 2406.676, 1023.606 2404.495, 1013.847 2402.315, 1004.088 2400.134, 994.328 2397.954, 984.569 2395.773, 974.810 2393.592, 965.050 2391.412, 955.291 2389.231, 945.531 2387.051, 935.772 2384.870, 926.013 2382.689, 916.253 2380.509, 906.494 2378.328, 896.735 2376.148, 886.975 2373.967, 877.216 2371.786, 867.457 2369.606, 857.697 2367.425, 847.938 2365.245, 838.179 2363.064, 828.419 2360.884, 818.660 2358.703, 808.901 2356.522, 799.141 2354.342, 789.382 2352.161, 779.622 2349.980, 769.863 2347.800, 760.104 2345.619, 750.344 2343.439, 740.585 2341.258, 730.826 2339.078, 721.066 2336.897, 711.307 2334.716, 701.548 2332.536, 691.788 2330.355, 682.029 2328.175, 672.270 2325.994, 662.510 2323.813, 652.751 2321.633, 642.991 2319.452, 633.232 2317.272, 623.473 2315.091, 613.713 2312.910, 603.954 2310.730, 594.195 2308.577, 584.560 2309.802, 574.635 2311.027, 564.711 2312.252, 554.786 2313.477, 544.861 2314.702, 534.937 2315.927, 525.012 2317.152, 515.087 2318.377, 505.162 2319.602, 495.238 2320.827, 485.313 2322.052, 475.388 2323.277, 465.464 2324.501, 455.539 2325.727, 445.614 2326.951, 435.690 2328.176, 425.765 2329.401, 415.840 2330.626, 405.916 2331.851, 395.991 2333.076, 386.066 2334.301, 376.141 2335.526, 366.217 2336.751, 356.292 2337.976, 346.367 2339.201, 336.443 2340.426, 326.518 2341.651, 316.593 2342.876, 306.669 2344.101, 296.744 2345.326, 286.819 2346.551, 276.895 2347.776, 266.970 2349.000, 257.045 2349.456, 253.353 2345.093, 244.355 2340.730, 235.357 2336.367, 226.359 2332.005, 217.360 2327.642, 208.362 2323.279, 199.364 2318.916, 190.366 2314.553, 181.368 2310.190, 172.370 2305.827, 163.372 2301.464, 154.374 2297.101, 145.376 2292.738, 136.378 2288.375, 127.380 2284.012, 118.382 2279.650, 109.384 2275.287, 100.386 2270.924, 91.388 2266.561, 82.390 2262.198, 73.392 2257.835, 64.394 2253.472, 55.396 2249.109, 46.397 2244.746, 37.399 2240.383, 28.401 2238.070, 23.630 2228.070, 23.630 2218.070, 23.630 2211.039, 23.630 2201.039, 23.631 2191.039, 23.631 2181.039, 23.631 2171.039, 23.631 2161.039, 23.631 2151.039, 23.631 2141.039, 23.631 2132.169, 23.631 2132.169, 23.631 2131.810, 23.726 2131.523, 23.726 2131.240, 23.726 2130.962, 23.726 2130.690, 23.726 2130.425, 23.726 " />
            <path fill="none" stroke-width="3.0" stroke-linecap="butt" stroke-opacity="1.0" stroke="rgb(0, 0, 0)" stroke-linejoin="round" d=" M 2130.425, 23.726 2130.132, 23.684 2120.132, 23.684 2110.132, 23.683 2100.132, 23.683 2090.132, 23.683 2080.132, 23.682 2070.132, 23.682 2060.132, 23.681 2050.132, 23.681 2040.132, 23.681 2030.132, 23.680 2020.132, 23.680 2010.132, 23.679 2000.132, 23.679 1990.132, 23.678 1980.132, 23.678 1970.132, 23.678 1960.132, 23.677 1950.132, 23.677 1940.132, 23.676 1930.132, 23.676 1920.132, 23.675 1910.132, 23.675 1900.132, 23.675 1890.132, 23.674 1880.132, 23.674 1870.132, 23.673 1860.132, 23.673 1850.132, 23.672 1840.132, 23.672 1830.132, 23.672 1820.132, 23.671 1810.132, 23.671 1800.132, 23.670 1790.132, 23.670 1780.132, 23.670 1770.132, 23.669 1760.132, 23.669 1750.132, 23.668 1740.132, 23.668 1730.132, 23.667 1720.132, 23.667 1710.132, 23.667 1700.132, 23.666 1690.132, 23.666 1680.132, 23.665 1670.132, 23.665 1660.132, 23.664 1650.132, 23.664 1640.132, 23.664 1630.132, 23.663 1620.132, 23.663 1610.132, 23.662 1600.132, 23.662 1590.132, 23.661 1580.132, 23.661 1570.132, 23.661 1560.132, 23.660 1550.132, 23.660 1540.132, 23.659 1530.132, 23.659 1520.132, 23.658 1510.132, 23.658 1500.132, 23.658 1490.132, 23.657 1480.132, 23.657 1470.132, 23.656 1460.132, 23.656 1450.132, 23.656 1440.132, 23.655 1430.132, 23.655 1420.132, 23.654 1410.132, 23.654 1400.132, 23.653 1390.132, 23.653 1380.132, 23.653 1370.132, 23.652 1360.132, 23.652 1350.132, 23.651 1340.132, 23.651 1330.132, 23.650 1320.132, 23.650 1310.132, 23.650 1300.132, 23.649 1290.132, 23.649 1280.132, 23.648 1270.132, 23.648 1260.132, 23.647 1250.132, 23.647 1240.132, 23.647 1230.132, 23.646 1220.132, 23.646 1210.132, 23.645 1200.132, 23.645 1190.132, 23.645 1180.132, 23.644 1170.132, 23.644 1160.132, 23.643 1150.132, 23.643 1140.132, 23.642 1130.132, 23.642 1120.132, 23.641 1110.132, 23.641 1100.132, 23.641 1090.132, 23.640 1080.132, 23.640 1059.441, 23.639 " />
            <path fill="none" stroke-width="3.0" stroke-linecap="butt" stroke-opacity="1.0" stroke="rgb(0, 0, 0)" stroke-linejoin="round" d=" M 1481.758, 893.339 1484.327, 893.992 1486.859, 894.774 1489.350, 895.681 1491.792, 896.710 1494.181, 897.860 1496.508, 899.127 " />
            <path fill="none" stroke-width="3.0" stroke-linecap="butt" stroke-opacity="1.0" stroke="rgb(0, 0, 0)" stroke-linejoin="round" d=" M 1473.902, 892.154 1476.539, 892.418 1479.160, 892.813 1481.758, 893.339 " />
            <path fill="none" stroke-width="3.0" stroke-linecap="butt" stroke-opacity="1.0" stroke="rgb(0, 0, 0)" stroke-linejoin="round" d=" M 1437.550, 1679.351 1435.031, 1676.768 1432.644, 1674.064 1430.395, 1671.242 1428.288, 1668.313 1426.331, 1665.283 1424.527, 1662.158 1422.881, 1658.948 1421.398, 1655.660 1420.080, 1652.301 1418.931, 1648.881 1417.954, 1645.409 1417.151, 1641.892 1416.524, 1638.338 1416.076, 1634.758 1415.806, 1631.162 1415.716, 1627.554 1415.806, 1623.948 1416.076, 1620.351 1416.524, 1616.771 1417.151, 1613.218 1417.954, 1609.701 1418.931, 1606.228 1420.080, 1602.808 1421.398, 1599.450 1422.881, 1596.161 1424.527, 1592.951 1426.331, 1589.826 1428.288, 1586.796 1430.395, 1583.866 1432.644, 1581.046 1435.031, 1578.341 1437.550, 1575.758 1440.195, 1573.305 1442.958, 1570.985 1445.834, 1568.807 1448.815, 1566.775 1451.893, 1564.894 1455.062, 1563.168 1458.312, 1561.603 1461.636, 1560.202 1465.027, 1558.968 1468.474, 1557.904 1471.970, 1557.014 1475.506, 1556.300 1479.074, 1555.762 1482.664, 1555.403 1486.267, 1555.223 1489.874, 1555.223 1493.478, 1555.403 1497.068, 1555.762 1500.635, 1556.300 1504.171, 1557.014 1507.667, 1557.904 1511.114, 1558.968 1514.505, 1560.202 1517.829, 1561.603 1521.079, 1563.168 1524.248, 1564.894 1527.326, 1566.775 1530.307, 1568.807 1533.183, 1570.985 1535.947, 1573.305 1538.591, 1575.758 1541.110, 1578.341 1543.497, 1581.046 1545.747, 1583.866 1547.853, 1586.796 1549.810, 1589.826 1551.614, 1592.951 1553.260, 1596.161 1554.743, 1599.450 1556.061, 1602.808 1557.210, 1606.228 1558.188, 1609.701 1558.990, 1613.218 1559.617, 1616.771 1560.065, 1620.351 1560.335, 1623.948 1560.425, 1627.554 1560.335, 1631.162 1560.065, 1634.758 1559.617, 1638.338 1558.990, 1641.892 1558.188, 1645.409 1557.210, 1648.881 1556.061, 1652.301 1554.743, 1655.660 1553.260, 1658.948 1551.614, 1662.158 1549.810, 1665.283 1547.853, 1668.313 1545.747, 1671.242 1543.497, 1674.064 1541.110, 1676.768 1538.591, 1679.351 1535.947, 1681.805 1533.183, 1684.123 1530.307, 1686.302 1527.326, 1688.335 1524.248, 1690.215 1521.079, 1691.941 1517.829, 1693.506 1514.505, 1694.908 1511.114, 1696.142 1507.667, 1697.205 1504.171, 1698.095 1500.635, 1698.810 1497.068, 1699.348 1493.478, 1699.707 1489.874, 1699.886 1486.267, 1699.886 1482.664, 1699.707 1479.074, 1699.348 1475.506, 1698.810 1471.970, 1698.095 1468.474, 1697.205 1465.027, 1696.142 1461.636, 1694.908 1458.312, 1693.506 1455.062, 1691.941 1451.893, 1690.215 1448.815, 1688.335 1445.834, 1686.302 1442.958, 1684.123 1440.195, 1681.805 1437.550, 1679.351 " />
            <path fill="none" stroke-width="3.0" stroke-linecap="butt" stroke-opacity="1.0" stroke="rgb(0, 0, 0)" stroke-linejoin="round" d=" M 23.577, 2023.379 33.577, 2023.378 43.577, 2023.378 53.577, 2023.378 63.577, 2023.378 73.577, 2023.378 83.577, 2023.378 93.577, 2023.377 103.577, 2023.377 113.577, 2023.377 123.577, 2023.377 133.577, 2023.377 143.577, 2023.377 153.577, 2023.376 163.577, 2023.376 173.577, 2023.376 183.577, 2023.376 193.577, 2023.376 203.577, 2023.375 213.577, 2023.375 223.577, 2023.375 233.577, 2023.375 243.577, 2023.375 253.577, 2023.375 263.577, 2023.374 273.577, 2023.374 283.577, 2023.374 293.577, 2023.374 303.577, 2023.374 313.577, 2023.374 323.577, 2023.373 333.577, 2023.373 343.577, 2023.373 353.577, 2023.373 363.577, 2023.373 373.577, 2023.372 383.577, 2023.372 393.577, 2023.372 403.577, 2023.372 413.577, 2023.372 423.577, 2023.372 433.577, 2023.371 443.577, 2023.371 453.577, 2023.371 462.769, 2023.371 465.806, 2023.371 466.723, 2023.371 468.732, 2023.371 471.538, 2023.371 474.212, 2023.371 476.744, 2023.371 486.744, 2023.371 489.944, 2023.371 499.944, 2023.370 509.944, 2023.370 519.944, 2023.370 529.944, 2023.370 539.944, 2023.370 549.944, 2023.370 559.944, 2023.369 569.944, 2023.369 579.944, 2023.369 589.944, 2023.369 599.944, 2023.369 609.944, 2023.368 619.944, 2023.368 629.944, 2023.368 639.944, 2023.368 649.944, 2023.368 659.944, 2023.368 669.944, 2023.367 679.944, 2023.367 689.944, 2023.367 699.944, 2023.367 709.944, 2023.367 719.944, 2023.366 729.944, 2023.366 739.944, 2023.366 749.944, 2023.366 759.944, 2023.366 769.944, 2023.366 779.944, 2023.365 789.944, 2023.365 799.944, 2023.365 809.944, 2023.365 819.944, 2023.365 829.944, 2023.365 839.944, 2023.364 849.944, 2023.364 859.944, 2023.364 869.944, 2023.364 879.944, 2023.364 889.944, 2023.363 899.944, 2023.363 909.944, 2023.363 919.944, 2023.363 929.944, 2023.363 939.944, 2023.363 949.944, 2023.362 959.944, 2023.362 969.944, 2023.362 979.944, 2023.362 989.944, 2023.362 999.944, 2023.361 1009.944, 2023.361 1019.944, 2023.361 1029.944, 2023.361 1039.944, 2023.361 1049.944, 2023.361 1059.944, 2023.360 1069.944, 2023.360 1079.944, 2023.360 1088.808, 2023.360 1098.808, 2023.360 1108.808, 2023.359 1118.808, 2023.359 1128.808, 2023.359 1138.808, 2023.359 1148.808, 2023.359 1158.808, 2023.359 1168.808, 2023.358 1178.808, 2023.358 1188.808, 2023.358 1198.808, 2023.358 1208.808, 2023.358 1218.808, 2023.357 1228.808, 2023.357 1239.101, 2023.357 1249.101, 2023.357 1259.101, 2023.357 1269.101, 2023.357 1279.101, 2023.356 1289.101, 2023.356 1299.101, 2023.356 1301.659, 2023.356 1311.659, 2023.356 1321.659, 2023.356 1331.659, 2023.355 1341.659, 2023.355 1351.659, 2023.355 1361.659, 2023.355 1371.659, 2023.355 1381.659, 2023.354 1391.659, 2023.354 1398.386, 2023.354 1408.386, 2023.354 1418.386, 2023.354 1428.386, 2023.354 1438.386, 2023.353 1446.964, 2023.353 " />
            <path fill="none" stroke-width="3.0" stroke-linecap="butt" stroke-opacity="1.0" stroke="rgb(0, 0, 0)" stroke-linejoin="round" d=" M 1446.964, 2023.353 1447.910, 2023.353 1450.013, 2023.353 1450.341, 2023.353 1451.477, 2023.353 1453.099, 2023.353 " />
            <path fill="none" stroke-width="3.0" stroke-linecap="butt" stroke-opacity="1.0" stroke="rgb(0, 0, 0)" stroke-linejoin="round" d=" M 464.206, 965.834 461.925, 975.570 459.643, 985.306 457.362, 995.043 455.081, 1004.779 452.800, 1014.515 450.519, 1024.252 448.238, 1033.988 445.956, 1043.724 443.675, 1053.461 441.394, 1063.197 439.113, 1072.933 436.832, 1082.670 434.551, 1092.406 432.269, 1102.142 429.988, 1111.879 427.707, 1121.615 425.426, 1131.351 423.145, 1141.088 420.864, 1150.824 418.582, 1160.560 416.301, 1170.297 414.020, 1180.033 411.739, 1189.769 409.458, 1199.506 407.177, 1209.242 404.895, 1218.978 402.614, 1228.715 400.333, 1238.451 398.052, 1248.187 395.771, 1257.924 393.490, 1267.660 391.208, 1277.396 390.295, 1281.296 386.064, 1290.357 381.833, 1299.418 377.602, 1308.479 373.372, 1317.540 369.141, 1326.601 364.910, 1335.662 360.679, 1344.723 356.448, 1353.784 352.218, 1362.845 347.987, 1371.906 343.756, 1380.967 339.525, 1390.028 335.295, 1399.089 331.064, 1408.150 326.833, 1417.210 322.602, 1426.271 318.372, 1435.332 314.141, 1444.393 309.910, 1453.454 305.679, 1462.515 301.449, 1471.576 297.218, 1480.637 292.987, 1489.698 290.038, 1496.014 287.158, 1505.590 284.279, 1515.167 281.399, 1524.743 278.520, 1534.320 275.640, 1543.896 272.761, 1553.473 269.881, 1563.049 267.002, 1572.626 264.122, 1582.202 261.243, 1591.779 258.363, 1601.355 255.484, 1610.931 252.604, 1620.508 249.725, 1630.084 246.845, 1639.661 243.966, 1649.237 241.086, 1658.814 238.207, 1668.390 235.327, 1677.967 232.448, 1687.543 229.568, 1697.120 226.689, 1706.696 223.809, 1716.272 222.707, 1719.938 " />
            <path fill="none" stroke-width="3.0" stroke-linecap="butt" stroke-opacity="1.0" stroke="rgb(0, 0, 0)" stroke-linejoin="round" d=" M 1453.099, 2023.353 1456.212, 2023.353 1459.345, 2023.353 1462.490, 2023.353 1465.637, 2023.353 1468.778, 2023.353 1471.905, 2023.353 1472.055, 2023.353 1475.009, 2023.353 1485.009, 2023.352 1493.433, 2023.352 1503.433, 2023.352 1513.433, 2023.352 1523.433, 2023.352 1533.433, 2023.352 1543.433, 2023.351 1553.433, 2023.351 1563.433, 2023.351 1573.433, 2023.351 1583.433, 2023.351 1593.433, 2023.351 1603.433, 2023.350 1613.433, 2023.350 1623.433, 2023.350 1633.433, 2023.350 1643.433, 2023.350 1653.433, 2023.350 1663.433, 2023.349 1673.433, 2023.349 1683.433, 2023.349 1693.433, 2023.349 1703.433, 2023.349 1713.433, 2023.348 1723.433, 2023.348 1733.433, 2023.348 1743.433, 2023.348 1753.433, 2023.348 1763.433, 2023.348 1773.433, 2023.347 1783.433, 2023.347 1793.433, 2023.347 1803.433, 2023.347 1813.433, 2023.347 1823.433, 2023.347 1833.433, 2023.346 1843.433, 2023.346 1853.433, 2023.346 1863.433, 2023.346 1873.433, 2023.346 1883.433, 2023.346 1893.433, 2023.345 1903.433, 2023.345 1913.433, 2023.345 1923.433, 2023.345 1933.433, 2023.345 1943.433, 2023.344 1953.433, 2023.344 1963.433, 2023.344 1973.433, 2023.344 1983.433, 2023.344 1993.433, 2023.344 2003.433, 2023.343 2013.433, 2023.343 2023.433, 2023.343 2033.433, 2023.343 2043.433, 2023.343 2053.433, 2023.343 2063.433, 2023.342 2073.433, 2023.342 2083.433, 2023.342 2093.433, 2023.342 2103.433, 2023.342 2113.433, 2023.342 2123.964, 2023.341 2133.964, 2023.341 2143.964, 2023.341 2153.964, 2023.341 2163.964, 2023.341 2173.964, 2023.341 2183.964, 2023.340 2193.964, 2023.340 2203.964, 2023.340 2213.964, 2023.340 2223.964, 2023.340 2233.964, 2023.339 2243.964, 2023.339 2253.964, 2023.339 2263.964, 2023.339 2273.964, 2023.339 2283.964, 2023.339 2293.964, 2023.338 2303.964, 2023.338 2313.964, 2023.338 2323.964, 2023.338 2333.964, 2023.338 2343.964, 2023.338 2353.964, 2023.337 2363.964, 2023.337 2370.022, 2023.337 2371.192, 2023.337 2371.351, 2023.337 " />
            <path fill="none" stroke-width="3.0" stroke-linecap="butt" stroke-opacity="1.0" stroke="rgb(0, 0, 0)" stroke-linejoin="round" d=" M 1436.785, 986.724 1434.755, 985.021 1432.812, 983.219 1430.961, 981.320 1429.208, 979.333 1427.555, 977.261 1426.008, 975.109 1424.570, 972.883 1423.244, 970.587 1422.035, 968.229 1420.945, 965.812 1419.977, 963.345 1419.132, 960.832 1418.415, 958.281 1417.825, 955.697 1417.365, 953.087 1417.035, 950.457 1416.837, 947.813 1416.771, 945.164 1416.837, 942.514 " />
            <path fill="none" stroke-width="3.0" stroke-linecap="butt" stroke-opacity="1.0" stroke="rgb(0, 0, 0)" stroke-linejoin="round" d=" M 1463.319, 997.910 1460.698, 997.514 1458.100, 996.990 1455.532, 996.336 1452.999, 995.554 1450.508, 994.648 1448.066, 993.618 1445.678, 992.468 1443.350, 991.200 1441.088, 989.818 1438.898, 988.326 " />
            <path fill="none" stroke-width="3.0" stroke-linecap="butt" stroke-opacity="1.0" stroke="rgb(0, 0, 0)" stroke-linejoin="round" d=" M 1471.254, 998.306 1468.604, 998.306 1465.957, 998.173 1463.319, 997.910 " />
            <path fill="none" stroke-width="3.0" stroke-linecap="butt" stroke-opacity="1.0" stroke="rgb(0, 0, 0)" stroke-linejoin="round" d=" M 1416.837, 942.514 1417.035, 939.872 " />
            <path fill="none" stroke-width="3.0" stroke-linecap="butt" stroke-opacity="1.0" stroke="rgb(0, 0, 0)" stroke-linejoin="round" d=" M 1486.859, 995.554 1484.327, 996.336 1481.758, 996.990 1479.160, 997.514 1476.539, 997.910 1473.902, 998.173 " />
            <path fill="none" stroke-width="3.0" stroke-linecap="butt" stroke-opacity="1.0" stroke="rgb(0, 0, 0)" stroke-linejoin="round" d=" M 1417.035, 939.872 1417.365, 937.241 " />
            <path fill="none" stroke-width="3.0" stroke-linecap="butt" stroke-opacity="1.0" stroke="rgb(0, 0, 0)" stroke-linejoin="round" d=" M 1417.365, 937.241 1417.825, 934.631 1418.415, 932.047 1419.132, 929.495 1419.977, 926.983 1420.945, 924.516 " />
            <path fill="none" stroke-width="3.0" stroke-linecap="butt" stroke-opacity="1.0" stroke="rgb(0, 0, 0)" stroke-linejoin="round" d=" M 1420.945, 924.516 1422.035, 922.099 1423.244, 919.741 1424.570, 917.445 " />
            <path fill="none" stroke-width="3.0" stroke-linecap="butt" stroke-opacity="1.0" stroke="rgb(0, 0, 0)" stroke-linejoin="round" d=" M 1424.570, 917.445 1426.008, 915.219 " />
            <path fill="none" stroke-width="3.0" stroke-linecap="butt" stroke-opacity="1.0" stroke="rgb(0, 0, 0)" stroke-linejoin="round" d=" M 2371.351, 2023.337 2372.461, 2023.336 2373.824, 2023.336 2375.277, 2023.336 2376.813, 2023.336 2378.425, 2023.336 2380.108, 2023.336 2390.108, 2023.336 2400.108, 2023.336 2410.108, 2023.336 2420.108, 2023.336 2430.108, 2023.336 2440.108, 2023.335 2450.108, 2023.335 2460.108, 2023.335 2470.108, 2023.335 2480.108, 2023.335 2490.108, 2023.335 2500.108, 2023.334 2510.108, 2023.334 2520.108, 2023.334 2530.108, 2023.334 2540.108, 2023.334 2550.108, 2023.333 2560.108, 2023.333 2570.108, 2023.333 2580.108, 2023.333 2585.444, 2023.333 " />
            <path fill="none" stroke-width="3.0" stroke-linecap="butt" stroke-opacity="1.0" stroke="rgb(0, 0, 0)" stroke-linejoin="round" d=" M 1426.008, 915.219 1427.555, 913.066 1429.208, 910.994 1430.961, 909.007 1432.812, 907.110 1434.755, 905.307 1436.785, 903.603 1438.898, 902.003 1441.088, 900.509 1443.350, 899.127 1445.678, 897.860 1448.066, 896.710 " />
            <path fill="none" stroke-width="3.0" stroke-linecap="butt" stroke-opacity="1.0" stroke="rgb(0, 0, 0)" stroke-linejoin="round" d=" M 1494.181, 992.468 1491.792, 993.618 1489.350, 994.648 1486.859, 995.554 " />
            <path fill="none" stroke-width="3.0" stroke-linecap="butt" stroke-opacity="1.0" stroke="rgb(0, 0, 0)" stroke-linejoin="round" d=" M 1510.651, 979.333 1508.897, 981.320 1507.046, 983.219 1505.103, 985.021 1503.073, 986.724 1500.960, 988.326 1498.770, 989.818 1496.508, 991.200 " />
            <path fill="none" stroke-width="3.0" stroke-linecap="butt" stroke-opacity="1.0" stroke="rgb(0, 0, 0)" stroke-linejoin="round" d=" M 1521.444, 958.281 1520.726, 960.832 1519.882, 963.345 1518.913, 965.812 1517.823, 968.229 1516.614, 970.587 " />
            <path fill="none" stroke-width="3.0" stroke-linecap="butt" stroke-opacity="1.0" stroke="rgb(0, 0, 0)" stroke-linejoin="round" d=" M 1522.823, 950.457 1522.494, 953.087 1522.034, 955.697 1521.444, 958.281 " />
            <path fill="none" stroke-width="3.0" stroke-linecap="butt" stroke-opacity="1.0" stroke="rgb(0, 0, 0)" stroke-linejoin="round" d=" M 1522.034, 934.631 1522.494, 937.241 1522.823, 939.872 1523.021, 942.514 1523.087, 945.164 " />
            <path fill="none" stroke-width="3.0" stroke-linecap="butt" stroke-opacity="1.0" stroke="rgb(0, 0, 0)" stroke-linejoin="round" d=" M 1448.066, 896.710 1450.508, 895.681 1452.999, 894.774 1455.532, 893.992 1458.100, 893.339 1460.698, 892.813 1463.319, 892.418 1465.957, 892.154 1468.604, 892.022 1471.254, 892.022 1473.902, 892.154 " />
            <path fill="none" stroke-width="3.0" stroke-linecap="butt" stroke-opacity="1.0" stroke="rgb(0, 0, 0)" stroke-linejoin="round" d=" M 1521.444, 932.047 1522.034, 934.631 " />
            <path fill="none" stroke-width="3.0" stroke-linecap="butt" stroke-opacity="1.0" stroke="rgb(0, 0, 0)" stroke-linejoin="round" d=" M 1513.851, 915.219 1515.289, 917.445 1516.614, 919.741 1517.823, 922.099 1518.913, 924.516 1519.882, 926.983 1520.726, 929.495 1521.444, 932.047 " />
            <path fill="none" stroke-width="3.0" stroke-linecap="butt" stroke-opacity="1.0" stroke="rgb(0, 0, 0)" stroke-linejoin="round" d=" M 1512.303, 913.066 1513.851, 915.219 " />
            <path fill="none" stroke-width="3.0" stroke-linecap="butt" stroke-opacity="1.0" stroke="rgb(0, 0, 0)" stroke-linejoin="round" d=" M 2548.747, 1860.414 2547.073, 1850.555 2545.400, 1840.696 2543.727, 1830.837 2542.053, 1820.978 2540.380, 1811.119 2538.706, 1801.260 2537.033, 1791.401 2535.360, 1781.542 2533.686, 1771.683 2532.013, 1761.824 2530.339, 1751.965 2528.666, 1742.107 2526.992, 1732.247 2525.319, 1722.389 2523.646, 1712.530 2521.972, 1702.671 2520.299, 1692.812 2518.625, 1682.953 2516.952, 1673.094 2515.278, 1663.235 2513.386, 1652.086 2512.808, 1642.103 2512.230, 1632.120 2511.653, 1622.137 2511.075, 1612.153 2510.497, 1602.170 2509.919, 1592.187 2509.342, 1582.203 2508.764, 1572.220 2508.186, 1562.237 2507.608, 1552.254 2507.030, 1542.270 2506.452, 1532.287 2505.875, 1522.304 2505.297, 1512.320 2504.719, 1502.337 2504.141, 1492.354 2503.563, 1482.370 2502.986, 1472.387 2502.408, 1462.404 2501.830, 1452.421 2501.252, 1442.437 2500.674, 1432.454 2500.096, 1422.471 2499.519, 1412.487 2499.182, 1406.666 2498.604, 1396.682 2498.025, 1386.699 2497.447, 1376.716 2496.869, 1366.732 2496.290, 1356.739 2492.674, 1347.415 2489.057, 1338.092 2485.441, 1328.769 2481.825, 1319.446 2478.208, 1310.123 2474.592, 1300.799 2470.976, 1291.476 2467.359, 1282.153 2463.743, 1272.830 2460.127, 1263.507 2456.510, 1254.184 2452.894, 1244.860 2449.278, 1235.537 2445.661, 1226.214 2442.045, 1216.891 2438.428, 1207.568 2434.812, 1198.244 2432.085, 1191.214 " />
            <path fill="none" stroke-width="3.0" stroke-linecap="butt" stroke-opacity="1.0" stroke="rgb(0, 0, 0)" stroke-linejoin="round" d=" M 1057.782, 23.755 1047.782, 23.750 1037.782, 23.746 1027.782, 23.741 1017.783, 23.737 1007.783, 23.732 997.783, 23.728 987.783, 23.723 977.783, 23.718 967.783, 23.714 957.783, 23.709 947.783, 23.705 937.783, 23.700 927.783, 23.695 917.783, 23.691 907.783, 23.686 897.783, 23.682 887.783, 23.677 877.783, 23.672 867.783, 23.668 857.783, 23.663 847.783, 23.659 837.783, 23.654 827.783, 23.650 817.783, 23.645 807.839, 23.640 " />
            <path fill="none" stroke-width="3.0" stroke-linecap="butt" stroke-opacity="1.0" stroke="rgb(0, 0, 0)" stroke-linejoin="round" d=" M 1059.441, 23.639 1059.358, 23.657 1058.945, 23.746 1058.385, 23.746 1057.782, 23.755 " />
            <path fill="none" stroke-width="3.0" stroke-linecap="butt" stroke-opacity="1.0" stroke="rgb(0, 0, 0)" stroke-linejoin="round" d=" M 1507.046, 907.110 1508.897, 909.007 1510.651, 910.994 1512.303, 913.066 " />
            <path fill="none" stroke-width="3.0" stroke-linecap="butt" stroke-opacity="1.0" stroke="rgb(0, 0, 0)" stroke-linejoin="round" d=" M 1496.508, 899.127 1498.770, 900.509 1500.960, 902.003 1503.073, 903.603 1505.103, 905.307 1507.046, 907.110 " />
            <path fill="none" stroke-width="3.0" stroke-linecap="butt" stroke-opacity="1.0" stroke="rgb(0, 0, 0)" stroke-linejoin="round" d=" M 489.944, 2023.371 488.257, 2023.371 483.154, 2023.371 473.154, 2023.371 463.154, 2023.371 453.154, 2023.371 443.154, 2023.372 433.154, 2023.372 423.154, 2023.372 413.154, 2023.372 403.154, 2023.372 393.154, 2023.372 383.154, 2023.373 373.154, 2023.373 363.154, 2023.373 353.154, 2023.373 343.154, 2023.373 333.154, 2023.373 323.154, 2023.374 313.154, 2023.374 303.154, 2023.374 293.154, 2023.374 283.154, 2023.374 273.154, 2023.374 263.154, 2023.375 253.154, 2023.375 243.154, 2023.375 233.154, 2023.375 223.154, 2023.375 213.154, 2023.375 203.154, 2023.376 193.154, 2023.376 183.154, 2023.376 173.154, 2023.376 163.154, 2023.376 153.154, 2023.376 143.154, 2023.377 133.154, 2023.377 123.154, 2023.377 113.154, 2023.377 103.154, 2023.377 93.154, 2023.377 83.154, 2023.378 73.154, 2023.378 63.154, 2023.378 53.154, 2023.378 43.154, 2023.378 33.154, 2023.378 23.577, 2023.379 " />
            <path fill="none" stroke-width="3.0" stroke-linecap="butt" stroke-opacity="1.0" stroke="rgb(0, 0, 0)" stroke-linejoin="round" d=" M 2585.444, 2023.333 2575.444, 2023.333 2565.444, 2023.333 2555.444, 2023.333 2545.444, 2023.334 2535.444, 2023.334 2525.444, 2023.334 2515.444, 2023.334 2505.444, 2023.334 2495.444, 2023.335 2485.444, 2023.335 2475.444, 2023.335 2465.444, 2023.335 2455.444, 2023.335 2445.444, 2023.336 2435.444, 2023.336 2425.444, 2023.336 2415.444, 2023.336 2405.444, 2023.336 2395.444, 2023.337 2385.444, 2023.337 2375.444, 2023.337 2371.351, 2023.337 " />
            <path fill="none" stroke-width="3.0" stroke-linecap="butt" stroke-opacity="1.0" stroke="rgb(0, 0, 0)" stroke-linejoin="round" d=" M 1880.207, 1244.985 1877.688, 1242.402 1875.301, 1239.697 1873.052, 1236.876 1870.946, 1233.947 1868.988, 1230.917 1867.184, 1227.793 1865.538, 1224.582 1864.055, 1221.293 1862.737, 1217.935 1861.588, 1214.515 1860.611, 1211.043 1859.808, 1207.525 1859.181, 1203.973 1858.733, 1200.393 1858.463, 1196.795 1858.373, 1193.189 1858.463, 1189.582 1858.733, 1185.984 1859.181, 1182.404 1859.808, 1178.852 1860.611, 1175.334 1861.588, 1171.862 1862.737, 1168.442 1864.055, 1165.083 1865.538, 1161.795 1867.184, 1158.584 1868.988, 1155.460 1870.946, 1152.430 1873.052, 1149.501 1875.301, 1146.680 1877.688, 1143.975 1880.207, 1141.392 1882.852, 1138.938 1885.615, 1136.620 1888.491, 1134.441 1891.472, 1132.409 1894.550, 1130.528 1897.719, 1128.803 1900.969, 1127.237 1904.294, 1125.836 1907.684, 1124.602 1911.131, 1123.538 1914.627, 1122.648 1918.163, 1121.934 1921.731, 1121.396 1925.321, 1121.036 1928.924, 1120.856 1932.531, 1120.856 1936.135, 1121.036 1939.724, 1121.396 1943.292, 1121.934 1946.828, 1122.648 1950.324, 1123.538 1953.772, 1124.602 1957.162, 1125.836 1960.486, 1127.237 1963.737, 1128.803 1966.905, 1130.528 1969.983, 1132.409 1972.964, 1134.441 1975.840, 1136.620 1978.604, 1138.938 1981.248, 1141.392 1983.767, 1143.975 1986.154, 1146.680 1988.404, 1149.501 1990.510, 1152.430 1992.467, 1155.460 1994.271, 1158.584 1995.917, 1161.795 1997.401, 1165.083 1998.719, 1168.442 1999.868, 1171.862 2000.845, 1175.334 2001.647, 1178.852 2002.274, 1182.404 2002.722, 1185.984 2002.992, 1189.582 2003.082, 1193.189 2002.992, 1196.795 2002.722, 1200.393 2002.274, 1203.973 2001.647, 1207.525 2000.845, 1211.043 1999.868, 1214.515 1998.719, 1217.935 1997.401, 1221.293 1995.917, 1224.582 1994.271, 1227.793 1992.467, 1230.917 1990.510, 1233.947 1988.404, 1236.876 1986.154, 1239.697 1983.767, 1242.402 1981.248, 1244.985 1978.604, 1247.439 1975.840, 1249.757 1972.964, 1251.936 1969.983, 1253.968 1966.905, 1255.849 1963.737, 1257.574 1960.486, 1259.139 1957.162, 1260.541 1953.772, 1261.775 1950.324, 1262.838 1946.828, 1263.729 1943.292, 1264.444 1939.724, 1264.981 1936.135, 1265.341 1932.531, 1265.521 1928.924, 1265.521 1925.321, 1265.341 1921.731, 1264.981 1918.163, 1264.444 1914.627, 1263.729 1911.131, 1262.838 1907.684, 1261.775 1904.294, 1260.541 1900.969, 1259.139 1897.719, 1257.574 1894.550, 1255.849 1891.472, 1253.968 1888.491, 1251.936 1885.615, 1249.757 1882.852, 1247.439 1880.207, 1244.985 " />
            <path fill="none" stroke-width="3.0" stroke-linecap="butt" stroke-opacity="1.0" stroke="rgb(0, 0, 0)" stroke-linejoin="round" d=" M 2211.039, 23.630 2201.039, 23.631 2191.039, 23.631 2181.039, 23.631 2171.039, 23.631 2161.039, 23.631 2151.039, 23.631 2141.039, 23.631 2131.039, 23.631 2121.039, 23.631 2111.039, 23.631 2101.039, 23.631 2091.039, 23.631 2081.039, 23.631 2071.039, 23.631 2061.039, 23.632 2051.039, 23.632 2041.039, 23.632 2031.039, 23.632 2021.039, 23.632 2011.039, 23.632 2001.039, 23.632 1991.039, 23.632 1981.039, 23.632 1971.039, 23.632 1961.039, 23.632 1951.039, 23.632 1941.039, 23.632 1931.039, 23.632 1921.039, 23.633 1911.039, 23.633 1901.039, 23.633 1891.039, 23.633 1881.039, 23.633 1871.039, 23.633 1861.039, 23.633 1851.039, 23.633 1841.039, 23.633 1831.039, 23.633 1821.039, 23.633 1811.039, 23.633 1801.039, 23.633 1791.039, 23.633 1781.039, 23.634 1771.039, 23.634 1761.039, 23.634 1751.039, 23.634 1741.039, 23.634 1731.039, 23.634 1721.039, 23.634 1711.039, 23.634 1701.039, 23.634 1691.039, 23.634 1681.039, 23.634 1671.039, 23.634 1661.039, 23.634 1651.039, 23.634 1641.039, 23.635 1631.039, 23.635 1621.039, 23.635 1611.039, 23.635 1601.039, 23.635 1591.039, 23.635 1581.039, 23.635 1571.039, 23.635 1561.039, 23.635 1551.039, 23.635 1541.039, 23.635 1531.039, 23.635 1521.039, 23.635 1511.039, 23.635 1501.039, 23.635 1491.039, 23.635 1481.039, 23.636 1471.039, 23.636 1461.039, 23.636 1451.039, 23.636 1441.039, 23.636 1431.039, 23.636 1421.039, 23.636 1411.039, 23.636 1401.039, 23.636 1391.039, 23.636 1381.039, 23.636 1371.039, 23.636 1361.039, 23.636 1351.039, 23.637 1341.039, 23.637 1331.039, 23.637 1321.039, 23.637 1311.039, 23.637 1301.039, 23.637 1291.039, 23.637 1281.039, 23.637 1271.039, 23.637 1261.039, 23.637 1251.039, 23.637 1241.039, 23.637 1231.039, 23.637 1221.039, 23.637 1211.039, 23.638 1201.039, 23.638 1191.039, 23.638 1181.039, 23.638 1171.039, 23.638 1161.039, 23.638 1151.039, 23.638 1141.039, 23.638 1131.039, 23.638 1121.039, 23.638 1111.039, 23.638 1101.039, 23.638 1091.039, 23.638 1081.039, 23.638 1071.039, 23.639 1061.039, 23.639 1051.039, 23.639 1041.039, 23.639 1031.039, 23.639 1021.039, 23.639 1011.039, 23.639 1001.039, 23.639 991.039, 23.639 981.039, 23.639 971.039, 23.639 961.039, 23.639 951.039, 23.639 941.039, 23.639 931.039, 23.640 921.039, 23.640 911.039, 23.640 901.039, 23.640 891.039, 23.640 881.039, 23.640 871.039, 23.640 861.039, 23.640 851.039, 23.640 841.039, 23.640 831.039, 23.640 807.839, 23.640 " />
            <path fill="none" stroke-width="3.0" stroke-linecap="butt" stroke-opacity="1.0" stroke="rgb(0, 0, 0)" stroke-linejoin="round" d=" M 2211.039, 23.630 2201.039, 23.631 2191.039, 23.631 2181.039, 23.631 2171.039, 23.631 2161.039, 23.631 2151.039, 23.631 2141.039, 23.631 2131.039, 23.631 2121.039, 23.631 2111.039, 23.631 2101.039, 23.631 2091.039, 23.631 2081.039, 23.631 2071.039, 23.631 2061.039, 23.632 2051.039, 23.632 2041.039, 23.632 2031.039, 23.632 2021.039, 23.632 2011.039, 23.632 2001.039, 23.632 1991.039, 23.632 1981.039, 23.632 1971.039, 23.632 1961.039, 23.632 1951.039, 23.632 1941.039, 23.632 1931.039, 23.632 1921.039, 23.633 1911.039, 23.633 1901.039, 23.633 1891.039, 23.633 1881.039, 23.633 1871.039, 23.633 1861.039, 23.633 1851.039, 23.633 1841.039, 23.633 1831.039, 23.633 1821.039, 23.633 1811.039, 23.633 1801.039, 23.633 1791.039, 23.633 1781.039, 23.634 1771.039, 23.634 1761.039, 23.634 1751.039, 23.634 1741.039, 23.634 1731.039, 23.634 1721.039, 23.634 1711.039, 23.634 1701.039, 23.634 1691.039, 23.634 1681.039, 23.634 1671.039, 23.634 1661.039, 23.634 1651.039, 23.634 1641.039, 23.635 1631.039, 23.635 1621.039, 23.635 1611.039, 23.635 1601.039, 23.635 1591.039, 23.635 1581.039, 23.635 1571.039, 23.635 1561.039, 23.635 1551.039, 23.635 1541.039, 23.635 1531.039, 23.635 1521.039, 23.635 1511.039, 23.635 1501.039, 23.635 1491.039, 23.635 1481.039, 23.636 1471.039, 23.636 1461.039, 23.636 1451.039, 23.636 1441.039, 23.636 1431.039, 23.636 1421.039, 23.636 1411.039, 23.636 1401.039, 23.636 1391.039, 23.636 1381.039, 23.636 1371.039, 23.636 1361.039, 23.636 1351.039, 23.637 1341.039, 23.637 1331.039, 23.637 1321.039, 23.637 1311.039, 23.637 1301.039, 23.637 1291.039, 23.637 1281.039, 23.637 1271.039, 23.637 1261.039, 23.637 1251.039, 23.637 1241.039, 23.637 1231.039, 23.637 1221.039, 23.637 1211.039, 23.638 1201.039, 23.638 1191.039, 23.638 1181.039, 23.638 1171.039, 23.638 1161.039, 23.638 1151.039, 23.638 1141.039, 23.638 1131.039, 23.638 1121.039, 23.638 1111.039, 23.638 1101.039, 23.638 1091.039, 23.638 1081.039, 23.638 1071.039, 23.639 1061.039, 23.639 1051.039, 23.639 1041.039, 23.639 1031.039, 23.639 1021.039, 23.639 1011.039, 23.639 1001.039, 23.639 991.039, 23.639 981.039, 23.639 971.039, 23.639 961.039, 23.639 951.039, 23.639 941.039, 23.639 931.039, 23.640 921.039, 23.640 911.039, 23.640 901.039, 23.640 891.039, 23.640 881.039, 23.640 871.039, 23.640 861.039, 23.640 851.039, 23.640 841.039, 23.640 831.039, 23.640 807.839, 23.640 " />
            <path fill="none" stroke-width="3.0" stroke-linecap="butt" stroke-opacity="1.0" stroke="rgb(0, 0, 0)" stroke-linejoin="round" d=" M 60.086, 1953.367 55.462, 1962.234 50.838, 1971.101 46.214, 1979.968 41.591, 1988.834 36.967, 1997.701 32.343, 2006.568 27.719, 2015.435 23.577, 2023.379 " />
            <path fill="none" stroke-width="3.0" stroke-linecap="butt" stroke-opacity="1.0" stroke="rgb(0, 0, 0)" stroke-linejoin="round" d=" M 222.707, 1719.938 216.991, 1728.143 211.275, 1736.348 205.559, 1744.553 199.842, 1752.758 194.126, 1760.964 188.410, 1769.169 182.694, 1777.374 176.977, 1785.579 171.261, 1793.784 165.545, 1801.989 159.829, 1810.195 154.112, 1818.400 148.396, 1826.605 142.680, 1834.810 136.964, 1843.015 131.248, 1851.220 125.531, 1859.426 119.815, 1867.631 114.099, 1875.836 108.383, 1884.041 102.666, 1892.246 96.950, 1900.451 91.234, 1908.657 85.518, 1916.862 79.801, 1925.067 74.085, 1933.272 68.369, 1941.477 62.653, 1949.682 60.086, 1953.367 " />
            <path fill="none" stroke-width="3.0" stroke-linecap="butt" stroke-opacity="1.0" stroke="rgb(0, 0, 0)" stroke-linejoin="round" d=" M 23.577, 2023.379 33.577, 2023.378 43.577, 2023.378 53.577, 2023.378 63.577, 2023.378 73.577, 2023.378 83.577, 2023.378 93.577, 2023.377 103.577, 2023.377 113.577, 2023.377 123.577, 2023.377 133.577, 2023.377 143.577, 2023.377 153.577, 2023.376 163.577, 2023.376 173.577, 2023.376 183.577, 2023.376 193.577, 2023.376 203.577, 2023.376 213.577, 2023.375 223.577, 2023.375 233.577, 2023.375 243.577, 2023.375 253.577, 2023.375 263.577, 2023.375 273.577, 2023.374 283.577, 2023.374 293.577, 2023.374 303.577, 2023.374 313.577, 2023.374 323.577, 2023.374 333.577, 2023.373 343.577, 2023.373 353.577, 2023.373 363.577, 2023.373 373.577, 2023.373 383.577, 2023.373 393.577, 2023.372 403.577, 2023.372 413.577, 2023.372 423.577, 2023.372 433.577, 2023.372 443.577, 2023.371 453.577, 2023.371 463.577, 2023.371 476.744, 2023.371 " />
            <path fill="none" stroke-width="3.0" stroke-linecap="butt" stroke-opacity="1.0" stroke="rgb(0, 0, 0)" stroke-linejoin="round" d=" M 23.577, 2023.379 33.577, 2023.378 43.577, 2023.378 53.577, 2023.378 63.577, 2023.378 73.577, 2023.378 83.577, 2023.378 93.577, 2023.377 103.577, 2023.377 113.577, 2023.377 123.577, 2023.377 133.577, 2023.377 143.577, 2023.377 153.577, 2023.376 163.577, 2023.376 173.577, 2023.376 183.577, 2023.376 193.577, 2023.376 203.577, 2023.376 213.577, 2023.375 223.577, 2023.375 233.577, 2023.375 243.577, 2023.375 253.577, 2023.375 263.577, 2023.375 273.577, 2023.374 283.577, 2023.374 293.577, 2023.374 303.577, 2023.374 313.577, 2023.374 323.577, 2023.374 333.577, 2023.373 343.577, 2023.373 353.577, 2023.373 363.577, 2023.373 373.577, 2023.373 383.577, 2023.373 393.577, 2023.372 403.577, 2023.372 413.577, 2023.372 423.577, 2023.372 433.577, 2023.372 443.577, 2023.372 453.577, 2023.371 463.577, 2023.371 473.577, 2023.371 483.577, 2023.371 488.257, 2023.371 " />
            <path fill="none" stroke-width="3.0" stroke-linecap="butt" stroke-opacity="1.0" stroke="rgb(0, 0, 0)" stroke-linejoin="round" d=" M 23.577, 2023.379 33.577, 2023.378 43.577, 2023.378 53.577, 2023.378 63.577, 2023.378 73.577, 2023.378 83.577, 2023.378 93.577, 2023.377 103.577, 2023.377 113.577, 2023.377 123.577, 2023.377 133.577, 2023.377 143.577, 2023.377 153.577, 2023.376 163.577, 2023.376 173.577, 2023.376 183.577, 2023.376 193.577, 2023.376 203.577, 2023.376 213.577, 2023.375 223.577, 2023.375 233.577, 2023.375 243.577, 2023.375 253.577, 2023.375 263.577, 2023.374 273.577, 2023.374 283.577, 2023.374 293.577, 2023.374 303.577, 2023.374 313.577, 2023.374 323.577, 2023.373 333.577, 2023.373 343.577, 2023.373 353.577, 2023.373 363.577, 2023.373 373.577, 2023.373 383.577, 2023.372 393.577, 2023.372 403.577, 2023.372 413.577, 2023.372 423.577, 2023.372 433.577, 2023.371 443.577, 2023.371 453.577, 2023.371 466.723, 2023.371 " />
            <path fill="none" stroke-width="3.0" stroke-linecap="butt" stroke-opacity="1.0" stroke="rgb(0, 0, 0)" stroke-linejoin="round" d=" M 557.764, 701.849 554.424, 711.275 551.083, 720.701 547.743, 730.126 544.402, 739.552 541.062, 748.977 537.721, 758.403 534.381, 767.828 531.040, 777.254 527.700, 786.679 524.359, 796.105 521.019, 805.531 517.678, 814.956 514.338, 824.382 510.997, 833.807 507.657, 843.233 504.316, 852.658 500.976, 862.084 497.635, 871.509 494.295, 880.935 490.954, 890.360 487.614, 899.786 484.273, 909.212 480.933, 918.637 477.592, 928.063 474.252, 937.488 470.911, 946.914 467.571, 956.339 464.206, 965.834 " />
            <path fill="none" stroke-width="3.0" stroke-linecap="butt" stroke-opacity="1.0" stroke="rgb(0, 0, 0)" stroke-linejoin="round" d=" M 805.334, 27.790 801.886, 37.177 798.438, 46.564 794.991, 55.951 791.543, 65.338 788.095, 74.725 784.648, 84.112 781.200, 93.499 777.753, 102.885 774.305, 112.272 770.857, 121.659 767.410, 131.046 763.962, 140.433 760.514, 149.820 757.067, 159.207 753.619, 168.594 750.172, 177.981 746.724, 187.368 743.276, 196.755 739.829, 206.141 736.381, 215.528 732.933, 224.915 729.486, 234.302 726.038, 243.689 722.591, 253.076 719.143, 262.463 715.695, 271.850 712.248, 281.237 708.800, 290.624 705.352, 300.010 701.905, 309.397 698.457, 318.784 695.009, 328.171 691.562, 337.558 688.114, 346.945 684.667, 356.332 681.219, 365.719 677.771, 375.106 674.324, 384.492 670.876, 393.879 667.428, 403.266 663.981, 412.653 660.533, 422.040 657.086, 431.427 653.638, 440.814 650.190, 450.201 646.743, 459.588 643.295, 468.975 639.847, 478.361 636.400, 487.748 632.952, 497.135 629.505, 506.522 626.057, 515.909 622.609, 525.296 619.162, 534.683 615.714, 544.070 612.266, 553.457 608.819, 562.844 605.371, 572.230 601.923, 581.617 598.476, 591.004 595.028, 600.391 591.581, 609.778 588.133, 619.165 584.685, 628.552 581.238, 637.939 577.790, 647.326 574.342, 656.713 570.895, 666.099 567.447, 675.486 564.000, 684.873 560.552, 694.260 557.764, 701.849 " />
            <path fill="none" stroke-width="3.0" stroke-linecap="butt" stroke-opacity="1.0" stroke="rgb(0, 0, 0)" stroke-linejoin="round" d=" M 807.839, 23.640 805.334, 27.790 " />
            <path fill="none" stroke-width="3.0" stroke-linecap="butt" stroke-opacity="1.0" stroke="rgb(0, 0, 0)" stroke-linejoin="round" d=" M 1059.441, 23.639 1049.441, 23.639 1039.441, 23.639 1029.441, 23.639 1019.441, 23.639 1009.441, 23.639 999.441, 23.639 989.441, 23.639 979.441, 23.639 969.441, 23.639 959.441, 23.640 949.441, 23.640 939.441, 23.640 929.441, 23.640 919.441, 23.640 909.441, 23.640 899.441, 23.640 889.441, 23.640 879.441, 23.640 869.441, 23.640 859.441, 23.640 849.441, 23.640 839.441, 23.640 829.441, 23.640 819.441, 23.640 807.839, 23.640 " />
            <path fill="none" stroke-width="3.0" stroke-linecap="butt" stroke-opacity="1.0" stroke="rgb(0, 0, 0)" stroke-linejoin="round" d=" M 1438.898, 988.326 1436.785, 986.724 " />
            <path fill="none" stroke-width="3.0" stroke-linecap="butt" stroke-opacity="1.0" stroke="rgb(0, 0, 0)" stroke-linejoin="round" d=" M 1301.659, 2023.356 1311.659, 2023.356 1321.659, 2023.356 1331.659, 2023.355 1341.659, 2023.355 1351.659, 2023.355 1361.659, 2023.355 1371.659, 2023.355 1381.659, 2023.355 1391.659, 2023.354 1401.659, 2023.354 1411.659, 2023.354 1421.659, 2023.354 1431.659, 2023.354 1441.659, 2023.353 1450.013, 2023.353 " />
            <path fill="none" stroke-width="3.0" stroke-linecap="butt" stroke-opacity="1.0" stroke="rgb(0, 0, 0)" stroke-linejoin="round" d=" M 1473.902, 998.173 1471.254, 998.306 " />
            <path fill="none" stroke-width="3.0" stroke-linecap="butt" stroke-opacity="1.0" stroke="rgb(0, 0, 0)" stroke-linejoin="round" d=" M 1496.508, 991.200 1494.181, 992.468 " />
            <path fill="none" stroke-width="3.0" stroke-linecap="butt" stroke-opacity="1.0" stroke="rgb(0, 0, 0)" stroke-linejoin="round" d=" M 1512.303, 977.261 1510.651, 979.333 " />
            <path fill="none" stroke-width="3.0" stroke-linecap="butt" stroke-opacity="1.0" stroke="rgb(0, 0, 0)" stroke-linejoin="round" d=" M 1513.851, 975.109 1512.303, 977.261 " />
            <path fill="none" stroke-width="3.0" stroke-linecap="butt" stroke-opacity="1.0" stroke="rgb(0, 0, 0)" stroke-linejoin="round" d=" M 1515.289, 972.883 1513.851, 975.109 " />
            <path fill="none" stroke-width="3.0" stroke-linecap="butt" stroke-opacity="1.0" stroke="rgb(0, 0, 0)" stroke-linejoin="round" d=" M 1516.614, 970.587 1515.289, 972.883 " />
            <path fill="none" stroke-width="3.0" stroke-linecap="butt" stroke-opacity="1.0" stroke="rgb(0, 0, 0)" stroke-linejoin="round" d=" M 1523.021, 947.813 1522.823, 950.457 " />
            <path fill="none" stroke-width="3.0" stroke-linecap="butt" stroke-opacity="1.0" stroke="rgb(0, 0, 0)" stroke-linejoin="round" d=" M 1523.087, 945.164 1523.021, 947.813 " />
            <path fill="none" stroke-width="3.0" stroke-linecap="butt" stroke-opacity="1.0" stroke="rgb(0, 0, 0)" stroke-linejoin="round" d=" M 1088.808, 2023.360 1098.808, 2023.360 1108.808, 2023.359 1118.808, 2023.359 1128.808, 2023.359 1138.808, 2023.359 1148.808, 2023.359 1158.808, 2023.359 1168.808, 2023.358 1178.808, 2023.358 1188.808, 2023.358 1198.808, 2023.358 1208.808, 2023.358 1218.808, 2023.358 1228.808, 2023.357 1238.808, 2023.357 1248.808, 2023.357 1258.808, 2023.357 1268.808, 2023.357 1278.808, 2023.356 1288.808, 2023.356 1298.808, 2023.356 1308.808, 2023.356 1318.808, 2023.356 1328.808, 2023.356 1338.808, 2023.355 1348.808, 2023.355 1358.808, 2023.355 1368.808, 2023.355 1378.808, 2023.355 1388.808, 2023.354 1398.808, 2023.354 1408.808, 2023.354 1418.808, 2023.354 1428.808, 2023.354 1438.808, 2023.354 1448.808, 2023.353 1458.808, 2023.353 1468.808, 2023.353 1478.808, 2023.353 1488.808, 2023.353 1498.808, 2023.353 1508.808, 2023.352 1518.808, 2023.352 1528.808, 2023.352 1538.808, 2023.352 1548.808, 2023.352 1558.808, 2023.351 1568.808, 2023.351 1578.808, 2023.351 1588.808, 2023.351 1598.808, 2023.351 1608.808, 2023.351 1618.808, 2023.350 1628.808, 2023.350 1638.808, 2023.350 1648.808, 2023.350 1658.808, 2023.350 1668.808, 2023.350 1678.808, 2023.349 1688.808, 2023.349 1698.808, 2023.349 1708.808, 2023.349 1718.808, 2023.349 1728.808, 2023.348 1738.808, 2023.348 1748.808, 2023.348 1758.808, 2023.348 1768.808, 2023.348 1778.808, 2023.348 1788.808, 2023.347 1798.808, 2023.347 1808.808, 2023.347 1818.808, 2023.347 1828.808, 2023.347 1838.808, 2023.347 1848.808, 2023.346 1858.808, 2023.346 1868.808, 2023.346 1878.808, 2023.346 1888.808, 2023.346 1898.808, 2023.345 1908.808, 2023.345 1918.808, 2023.345 1928.808, 2023.345 1938.808, 2023.345 1948.808, 2023.345 1958.808, 2023.344 1968.808, 2023.344 1978.808, 2023.344 1988.808, 2023.344 1998.808, 2023.344 2008.808, 2023.344 2018.808, 2023.343 2028.808, 2023.343 2038.808, 2023.343 2048.808, 2023.343 2058.808, 2023.343 2068.808, 2023.342 2078.808, 2023.342 2088.808, 2023.342 2098.808, 2023.342 2108.808, 2023.342 2118.808, 2023.342 2128.808, 2023.341 2138.808, 2023.341 2148.808, 2023.341 2158.808, 2023.341 2168.808, 2023.341 2178.808, 2023.341 2188.808, 2023.340 2198.808, 2023.340 2208.808, 2023.340 2218.808, 2023.340 2228.808, 2023.340 2238.808, 2023.339 2248.808, 2023.339 2258.808, 2023.339 2268.808, 2023.339 2278.808, 2023.339 2288.808, 2023.339 2298.808, 2023.338 2308.808, 2023.338 2318.808, 2023.338 2328.808, 2023.338 2338.808, 2023.338 2348.808, 2023.338 2371.192, 2023.337 " />
            <path fill="none" stroke-width="3.0" stroke-linecap="butt" stroke-opacity="1.0" stroke="rgb(0, 0, 0)" stroke-linejoin="round" d=" M 1472.055, 2023.353 1462.055, 2023.353 1452.055, 2023.353 1451.477, 2023.353 " />
            <path fill="none" stroke-width="3.0" stroke-linecap="butt" stroke-opacity="1.0" stroke="rgb(0, 0, 0)" stroke-linejoin="round" d=" M 2543.017, 1940.247 2543.732, 1930.273 2544.448, 1920.299 2545.164, 1910.324 2545.880, 1900.350 2546.596, 1890.376 2547.312, 1880.401 2548.028, 1870.427 2548.747, 1860.414 " />
            <path fill="none" stroke-width="3.0" stroke-linecap="butt" stroke-opacity="1.0" stroke="rgb(0, 0, 0)" stroke-linejoin="round" d=" M 2371.351, 2023.337 2381.351, 2023.337 2391.351, 2023.337 2401.351, 2023.336 2411.351, 2023.336 2421.351, 2023.336 2431.351, 2023.336 2441.351, 2023.336 2451.351, 2023.335 2461.351, 2023.335 2471.351, 2023.335 2481.351, 2023.335 2491.351, 2023.335 2501.351, 2023.335 2511.351, 2023.334 2521.351, 2023.334 2531.351, 2023.334 2541.351, 2023.334 2551.351, 2023.334 2561.351, 2023.333 2571.351, 2023.333 2581.351, 2023.333 2585.444, 2023.333 " />
            <path fill="none" stroke-width="3.0" stroke-linecap="butt" stroke-opacity="1.0" stroke="rgb(0, 0, 0)" stroke-linejoin="round" d=" M 2585.444, 2023.333 2580.896, 2014.427 2576.348, 2005.521 2571.800, 1996.615 2567.252, 1987.709 2562.705, 1978.803 2558.157, 1969.897 2553.609, 1960.991 2549.061, 1952.085 2544.513, 1943.179 2543.017, 1940.247 " />
        </g>
    </g>
<g id="slice-labels"><text x="450.55483333333325" y="523.56725" text-anchor="middle" dominant-baseline="middle" font-family="Arial, sans-serif" font-size="59.06485704424148" font-weight="bold" fill="black" stroke="none" stroke-width="7.087782845308978" paint-order="stroke fill">Slice44 (Back)</text><text x="1304.5104999999999" y="523.56725" text-anchor="middle" dominant-baseline="middle" font-family="Arial, sans-serif" font-size="59.06485704424148" font-weight="bold" fill="black" stroke="none" stroke-width="7.087782845308978" paint-order="stroke fill">Slice44 (Back)</text><text x="2158.4661666666666" y="523.56725" text-anchor="middle" dominant-baseline="middle" font-family="Arial, sans-serif" font-size="59.06485704424148" font-weight="bold" fill="black" stroke="none" stroke-width="7.087782845308978" paint-order="stroke fill">Slice44 (Back)</text><text x="450.55483333333325" y="1523.44175" text-anchor="middle" dominant-baseline="middle" font-family="Arial, sans-serif" font-size="59.06485704424148" font-weight="bold" fill="black" stroke="none" stroke-width="7.087782845308978" paint-order="stroke fill">Slice44 (Back)</text><text x="1304.5104999999999" y="1523.44175" text-anchor="middle" dominant-baseline="middle" font-family="Arial, sans-serif" font-size="59.06485704424148" font-weight="bold" fill="black" stroke="none" stroke-width="7.087782845308978" paint-order="stroke fill">Slice44 (Back)</text><text x="2158.4661666666666" y="1523.44175" text-anchor="middle" dominant-baseline="middle" font-family="Arial, sans-serif" font-size="59.06485704424148" font-weight="bold" fill="black" stroke="none" stroke-width="7.087782845308978" paint-order="stroke fill">Slice44 (Back)</text></g></svg>