<?xml version='1.0' encoding='utf-8'?>
<svg xmlns="http://www.w3.org/2000/svg" xmlns:inkscape="http://www.inkscape.org/namespaces/inkscape" version="1.1" width="163.38610211014748mm" height="106.71799564361572mm" viewBox="0.47536022732385064 0.0053772379717749175 1929.0702795453524 1259.9992455240565" preserveAspectRatio="none">
    <g id="ViewLayer_LineSet" inkscape:groupmode="lineset" inkscape:label="ViewLayer_LineSet">
        <g inkscape:groupmode="layer" id="strokes" inkscape:label="strokes">
            <path fill="none" stroke-width="3.0" stroke-linecap="butt" stroke-opacity="1.0" stroke="rgb(0, 0, 0)" stroke-linejoin="round" d=" M 1718.135, 588.442 1713.148, 579.773 1708.162, 571.105 1703.176, 562.437 1698.190, 553.769 1693.203, 545.101 1688.217, 536.432 1683.231, 527.764 1678.245, 519.096 1673.258, 510.428 1668.272, 501.760 1663.286, 493.092 1658.300, 484.423 1653.313, 475.755 1648.327, 467.087 1643.341, 458.419 1638.355, 449.751 1633.369, 441.083 1628.382, 432.414 1626.612, 429.337 1622.966, 420.025 1619.320, 410.713 1615.674, 401.402 1612.028, 392.090 1608.382, 382.779 1604.736, 373.467 1601.089, 364.155 1597.443, 354.844 1593.797, 345.532 1590.151, 336.220 1586.505, 326.909 1582.859, 317.597 1579.213, 308.286 1575.567, 298.974 1571.921, 289.662 1568.275, 280.351 1564.629, 271.039 1560.983, 261.727 1557.337, 252.416 1553.691, 243.104 1550.045, 233.793 1546.399, 224.481 1542.753, 215.169 1539.107, 205.858 1535.460, 196.546 1531.814, 187.234 1528.168, 177.923 1526.546, 173.778 1523.339, 164.306 1520.133, 154.834 1516.927, 145.362 1513.721, 135.890 1510.515, 126.418 1507.309, 116.946 1504.103, 107.474 1500.897, 98.001 1497.691, 88.529 1494.484, 79.057 1491.278, 69.585 1488.072, 60.113 1484.866, 50.641 1481.660, 41.169 1478.454, 31.697 1475.720, 23.619 1465.720, 23.619 1455.720, 23.619 1445.720, 23.619 1435.720, 23.619 1425.720, 23.619 1415.720, 23.619 1405.720, 23.619 1395.720, 23.619 1385.720, 23.619 1375.720, 23.619 1365.720, 23.619 1355.720, 23.619 1345.720, 23.619 1335.720, 23.619 1325.720, 23.619 1315.720, 23.619 1305.720, 23.619 1295.720, 23.619 1285.720, 23.619 1275.720, 23.619 1265.720, 23.619 1255.720, 23.619 1245.720, 23.619 1235.720, 23.619 1225.720, 23.619 1215.720, 23.619 1205.720, 23.619 1195.720, 23.619 1189.079, 23.619 1185.428, 23.619 1181.730, 23.619 1177.999, 23.619 1174.248, 23.619 1170.490, 23.619 1166.741, 23.619 1163.014, 23.619 1159.324, 23.619 1155.684, 23.619 1152.109, 23.619 1148.612, 23.619 1145.206, 23.619 1135.206, 23.619 1125.206, 23.619 1115.206, 23.619 1105.206, 23.619 1095.206, 23.619 1085.206, 23.619 1075.206, 23.619 1065.206, 23.619 1055.206, 23.619 1045.206, 23.619 1035.206, 23.619 1025.206, 23.619 1015.206, 23.619 1005.206, 23.619 995.206, 23.619 985.206, 23.619 975.206, 23.619 965.206, 23.619 955.206, 23.619 945.206, 23.619 935.206, 23.619 925.206, 23.619 915.206, 23.619 905.206, 23.619 895.206, 23.619 885.206, 23.619 875.206, 23.619 865.206, 23.619 855.206, 23.619 845.206, 23.619 835.206, 23.619 825.206, 23.619 820.173, 23.619 817.284, 23.619 814.286, 23.619 811.196, 23.619 808.026, 23.619 804.791, 23.619 801.505, 23.619 798.184, 23.619 794.842, 23.619 791.493, 23.619 788.150, 23.619 784.828, 23.619 781.539, 23.619 778.295, 23.619 775.108, 23.619 771.987, 23.619 761.987, 23.619 751.987, 23.619 741.987, 23.619 731.987, 23.619 721.987, 23.619 711.987, 23.619 701.987, 23.619 691.987, 23.619 681.987, 23.619 671.987, 23.619 661.987, 23.619 651.987, 23.619 641.987, 23.619 631.987, 23.619 621.987, 23.619 611.987, 23.619 601.987, 23.619 591.987, 23.619 581.987, 23.619 571.987, 23.619 561.987, 23.619 551.987, 23.619 541.987, 23.619 531.987, 23.619 524.326, 23.619 " />
            <path fill="none" stroke-width="3.0" stroke-linecap="butt" stroke-opacity="1.0" stroke="rgb(0, 0, 0)" stroke-linejoin="round" d=" M 1051.326, 871.385 1053.962, 871.649 1056.581, 872.043 1059.178, 872.568 1061.745, 873.222 1064.277, 874.003 1066.766, 874.909 1069.207, 875.938 1071.594, 877.087 1073.921, 878.354 1076.181, 879.736 1078.370, 881.228 1080.482, 882.827 1082.511, 884.531 1084.453, 886.332 1086.303, 888.229 1088.056, 890.215 1089.708, 892.286 " />
            <path fill="none" stroke-width="3.0" stroke-linecap="butt" stroke-opacity="1.0" stroke="rgb(0, 0, 0)" stroke-linejoin="round" d=" M 1089.708, 892.286 1091.254, 894.437 1092.691, 896.663 1094.016, 898.957 " />
            <path fill="none" stroke-width="3.0" stroke-linecap="butt" stroke-opacity="1.0" stroke="rgb(0, 0, 0)" stroke-linejoin="round" d=" M 1094.016, 898.957 1095.224, 901.314 1096.314, 903.729 1097.282, 906.195 1098.126, 908.706 1098.843, 911.257 1099.433, 913.839 " />
            <path fill="none" stroke-width="3.0" stroke-linecap="butt" stroke-opacity="1.0" stroke="rgb(0, 0, 0)" stroke-linejoin="round" d=" M 1099.433, 913.839 1099.893, 916.448 1100.222, 919.077 1100.420, 921.719 1100.486, 924.367 1100.420, 927.015 1100.222, 929.657 " />
            <path fill="none" stroke-width="3.0" stroke-linecap="butt" stroke-opacity="1.0" stroke="rgb(0, 0, 0)" stroke-linejoin="round" d=" M 1043.385, 871.385 1046.031, 871.253 1048.680, 871.253 1051.326, 871.385 " />
            <path fill="none" stroke-width="3.0" stroke-linecap="butt" stroke-opacity="1.0" stroke="rgb(0, 0, 0)" stroke-linejoin="round" d=" M 1035.533, 872.568 1038.129, 872.043 1040.749, 871.649 1043.385, 871.385 " />
            <path fill="none" stroke-width="3.0" stroke-linecap="butt" stroke-opacity="1.0" stroke="rgb(0, 0, 0)" stroke-linejoin="round" d=" M 1740.145, 1236.391 1750.145, 1236.391 1760.145, 1236.391 1770.145, 1236.391 1780.145, 1236.391 1790.145, 1236.391 1800.145, 1236.391 1810.145, 1236.391 1820.145, 1236.391 1830.145, 1236.391 1840.145, 1236.391 1850.145, 1236.391 1860.145, 1236.391 1870.145, 1236.391 1880.145, 1236.391 1890.145, 1236.391 1900.145, 1236.391 1905.932, 1236.391 " />
            <path fill="none" stroke-width="3.0" stroke-linecap="butt" stroke-opacity="1.0" stroke="rgb(0, 0, 0)" stroke-linejoin="round" d=" M 1099.893, 932.286 1099.433, 934.895 1098.843, 937.478 1098.126, 940.027 1097.282, 942.539 1096.314, 945.005 1095.224, 947.420 1094.016, 949.777 1092.691, 952.071 1091.254, 954.297 1089.708, 956.447 1088.056, 958.519 1086.303, 960.505 " />
            <path fill="none" stroke-width="3.0" stroke-linecap="butt" stroke-opacity="1.0" stroke="rgb(0, 0, 0)" stroke-linejoin="round" d=" M 24.089, 1236.391 34.089, 1236.391 44.089, 1236.391 54.089, 1236.391 64.089, 1236.391 74.089, 1236.391 84.089, 1236.391 94.089, 1236.391 104.089, 1236.391 114.089, 1236.391 124.089, 1236.391 134.089, 1236.391 144.089, 1236.391 154.089, 1236.391 164.089, 1236.391 174.089, 1236.391 184.089, 1236.391 194.089, 1236.391 204.089, 1236.391 214.089, 1236.391 224.089, 1236.391 234.089, 1236.391 240.285, 1236.391 242.085, 1236.391 243.853, 1236.391 245.582, 1236.391 247.265, 1236.391 248.897, 1236.391 250.472, 1236.391 260.472, 1236.391 270.472, 1236.391 280.472, 1236.391 290.472, 1236.391 300.472, 1236.391 310.472, 1236.391 320.472, 1236.391 330.472, 1236.391 340.472, 1236.391 350.472, 1236.391 360.472, 1236.391 370.472, 1236.391 380.472, 1236.391 390.471, 1236.391 400.472, 1236.391 410.472, 1236.391 420.472, 1236.391 430.472, 1236.391 440.471, 1236.391 450.472, 1236.391 460.472, 1236.391 470.472, 1236.391 480.472, 1236.391 490.471, 1236.391 499.486, 1236.391 501.966, 1236.391 504.356, 1236.391 506.649, 1236.391 508.839, 1236.391 510.916, 1236.391 512.874, 1236.391 514.706, 1236.391 516.407, 1236.391 526.407, 1236.391 536.407, 1236.391 546.407, 1236.391 556.407, 1236.391 566.407, 1236.391 576.407, 1236.391 586.407, 1236.391 596.407, 1236.391 606.407, 1236.391 616.407, 1236.391 626.407, 1236.391 636.407, 1236.391 646.407, 1236.391 656.407, 1236.391 666.407, 1236.391 676.407, 1236.391 686.407, 1236.391 696.407, 1236.391 706.407, 1236.391 716.407, 1236.391 726.407, 1236.391 736.407, 1236.391 746.407, 1236.391 756.407, 1236.391 766.407, 1236.391 776.407, 1236.391 786.407, 1236.391 796.407, 1236.391 806.407, 1236.391 816.407, 1236.391 826.407, 1236.391 836.407, 1236.391 846.407, 1236.391 856.407, 1236.391 866.407, 1236.391 876.407, 1236.391 886.407, 1236.391 896.407, 1236.391 906.407, 1236.391 916.407, 1236.391 926.407, 1236.391 936.407, 1236.391 946.407, 1236.391 956.407, 1236.391 966.407, 1236.391 976.407, 1236.391 986.407, 1236.391 996.407, 1236.391 1006.407, 1236.391 1016.407, 1236.391 1026.407, 1236.391 1036.407, 1236.391 1046.407, 1236.391 1056.407, 1236.391 1066.407, 1236.391 1076.407, 1236.391 1086.407, 1236.391 1096.407, 1236.391 1106.407, 1236.391 1116.407, 1236.391 1126.407, 1236.391 1136.407, 1236.391 1146.407, 1236.391 1156.407, 1236.391 1166.407, 1236.391 1176.407, 1236.391 1186.407, 1236.391 1196.407, 1236.391 1206.407, 1236.391 1216.407, 1236.391 1226.407, 1236.391 1236.407, 1236.391 1246.407, 1236.391 1256.407, 1236.391 1266.407, 1236.391 1276.407, 1236.391 1286.407, 1236.391 1296.407, 1236.391 1304.784, 1236.391 1306.714, 1236.391 1308.748, 1236.391 1310.881, 1236.391 1313.107, 1236.391 1323.107, 1236.391 1333.107, 1236.390 1343.107, 1236.389 1353.107, 1236.388 1363.107, 1236.388 1373.107, 1236.387 1383.107, 1236.386 1393.107, 1236.385 1403.107, 1236.385 1413.107, 1236.384 1423.107, 1236.383 1433.107, 1236.383 1443.107, 1236.382 1453.107, 1236.381 1463.107, 1236.380 1473.107, 1236.380 1483.107, 1236.379 1493.107, 1236.378 1503.107, 1236.377 1513.107, 1236.377 1523.107, 1236.376 1533.107, 1236.375 1543.107, 1236.375 1553.107, 1236.374 1563.107, 1236.373 1573.107, 1236.372 1583.107, 1236.372 1593.107, 1236.371 1603.107, 1236.370 1613.107, 1236.369 1623.107, 1236.369 1633.107, 1236.368 1643.107, 1236.367 1653.107, 1236.367 1663.107, 1236.366 1673.107, 1236.365 1683.107, 1236.364 1693.107, 1236.364 1705.118, 1236.363 1706.055, 1236.347 1707.062, 1236.347 1708.141, 1236.347 1709.288, 1236.347 1710.497, 1236.346 1711.764, 1236.346 1713.084, 1236.346 1714.452, 1236.346 1715.863, 1236.346 1717.312, 1236.345 1718.792, 1236.345 1720.300, 1236.345 1721.828, 1236.344 1723.373, 1236.344 1724.929, 1236.344 1726.490, 1236.343 1728.052, 1236.343 1729.611, 1236.343 1731.160, 1236.343 1732.696, 1236.342 1734.215, 1236.342 1735.712, 1236.342 1737.184, 1236.341 1738.627, 1236.341 1740.145, 1236.391 " />
            <path fill="none" stroke-width="3.0" stroke-linecap="butt" stroke-opacity="1.0" stroke="rgb(0, 0, 0)" stroke-linejoin="round" d=" M 1025.503, 875.938 1027.945, 874.909 1030.434, 874.003 1032.965, 873.222 1035.533, 872.568 " />
            <path fill="none" stroke-width="3.0" stroke-linecap="butt" stroke-opacity="1.0" stroke="rgb(0, 0, 0)" stroke-linejoin="round" d=" M 1003.457, 894.437 1005.003, 892.286 1006.655, 890.215 1008.408, 888.229 1010.257, 886.332 1012.199, 884.531 1014.229, 882.827 1016.341, 881.228 1018.529, 879.736 1020.790, 878.354 1023.117, 877.087 1025.503, 875.938 " />
            <path fill="none" stroke-width="3.0" stroke-linecap="butt" stroke-opacity="1.0" stroke="rgb(0, 0, 0)" stroke-linejoin="round" d=" M 1084.453, 962.402 1082.511, 964.204 1080.482, 965.906 1078.370, 967.506 1076.181, 968.998 1073.921, 970.380 1071.594, 971.647 " />
            <path fill="none" stroke-width="3.0" stroke-linecap="butt" stroke-opacity="1.0" stroke="rgb(0, 0, 0)" stroke-linejoin="round" d=" M 999.486, 901.314 1000.695, 898.957 1002.019, 896.663 1003.457, 894.437 " />
            <path fill="none" stroke-width="3.0" stroke-linecap="butt" stroke-opacity="1.0" stroke="rgb(0, 0, 0)" stroke-linejoin="round" d=" M 1071.594, 971.647 1069.207, 972.796 1066.766, 973.825 1064.277, 974.731 1061.745, 975.512 1059.178, 976.166 " />
            <path fill="none" stroke-width="3.0" stroke-linecap="butt" stroke-opacity="1.0" stroke="rgb(0, 0, 0)" stroke-linejoin="round" d=" M 1059.178, 976.166 1056.581, 976.691 1053.962, 977.086 1051.326, 977.349 1048.680, 977.481 " />
            <path fill="none" stroke-width="3.0" stroke-linecap="butt" stroke-opacity="1.0" stroke="rgb(0, 0, 0)" stroke-linejoin="round" d=" M 1048.680, 977.481 1046.031, 977.481 1043.385, 977.349 1040.749, 977.086 " />
            <path fill="none" stroke-width="3.0" stroke-linecap="butt" stroke-opacity="1.0" stroke="rgb(0, 0, 0)" stroke-linejoin="round" d=" M 994.489, 929.657 994.291, 927.015 994.225, 924.367 994.291, 921.719 994.489, 919.077 994.818, 916.448 995.278, 913.839 995.867, 911.257 996.585, 908.706 997.429, 906.195 998.397, 903.729 999.486, 901.314 " />
            <path fill="none" stroke-width="3.0" stroke-linecap="butt" stroke-opacity="1.0" stroke="rgb(0, 0, 0)" stroke-linejoin="round" d=" M 524.326, 23.619 520.473, 32.847 516.620, 42.075 512.767, 51.303 508.914, 60.531 505.062, 69.759 501.209, 78.987 497.356, 88.215 493.503, 97.443 489.650, 106.671 485.798, 115.899 481.945, 125.127 478.092, 134.355 474.239, 143.583 472.262, 148.318 467.444, 157.080 462.625, 165.842 457.806, 174.605 452.987, 183.367 448.168, 192.129 443.350, 200.892 438.531, 209.654 433.712, 218.417 428.893, 227.179 424.074, 235.941 419.255, 244.704 414.437, 253.466 409.618, 262.228 404.799, 270.991 399.980, 279.753 395.161, 288.515 390.343, 297.278 385.524, 306.040 380.705, 314.803 375.886, 323.565 371.067, 332.327 366.607, 340.438 " />
            <path fill="none" stroke-width="3.0" stroke-linecap="butt" stroke-opacity="1.0" stroke="rgb(0, 0, 0)" stroke-linejoin="round" d=" M 999.486, 947.420 998.397, 945.005 997.429, 942.539 996.585, 940.027 " />
            <path fill="none" stroke-width="3.0" stroke-linecap="butt" stroke-opacity="1.0" stroke="rgb(0, 0, 0)" stroke-linejoin="round" d=" M 1003.457, 954.297 1002.019, 952.071 1000.695, 949.777 999.486, 947.420 " />
            <path fill="none" stroke-width="3.0" stroke-linecap="butt" stroke-opacity="1.0" stroke="rgb(0, 0, 0)" stroke-linejoin="round" d=" M 1023.117, 971.647 1020.790, 970.380 1018.529, 968.998 1016.341, 967.506 1014.229, 965.906 1012.199, 964.204 1010.257, 962.402 1008.408, 960.505 1006.655, 958.519 1005.003, 956.447 1003.457, 954.297 " />
            <path fill="none" stroke-width="3.0" stroke-linecap="butt" stroke-opacity="1.0" stroke="rgb(0, 0, 0)" stroke-linejoin="round" d=" M 366.607, 340.438 363.507, 349.946 360.407, 359.453 357.308, 368.961 354.208, 378.468 351.109, 387.976 348.009, 397.483 344.909, 406.991 341.810, 416.498 338.710, 426.006 335.610, 435.513 332.511, 445.021 329.411, 454.528 326.311, 464.036 323.212, 473.543 320.112, 483.050 317.012, 492.558 313.913, 502.065 310.813, 511.573 307.713, 521.080 304.614, 530.588 301.514, 540.095 298.414, 549.603 295.315, 559.110 292.215, 568.618 289.116, 578.125 286.016, 587.633 282.916, 597.140 279.817, 606.648 276.717, 616.155 273.617, 625.663 270.518, 635.170 267.418, 644.678 264.318, 654.185 261.219, 663.693 258.119, 673.200 255.019, 682.708 251.920, 692.215 248.820, 701.723 245.720, 711.230 242.621, 720.737 239.521, 730.245 236.422, 739.752 233.322, 749.260 230.222, 758.767 227.123, 768.275 224.023, 777.782 220.923, 787.290 217.824, 796.797 214.724, 806.305 211.624, 815.812 208.525, 825.320 205.425, 834.827 202.325, 844.335 199.226, 853.842 196.126, 863.350 193.026, 872.857 189.927, 882.365 186.827, 891.872 183.728, 901.380 180.628, 910.887 177.528, 920.395 174.429, 929.902 171.329, 939.410 168.229, 948.917 165.130, 958.424 162.373, 966.881 157.808, 975.778 153.242, 984.675 148.677, 993.573 144.112, 1002.470 139.547, 1011.367 134.982, 1020.264 130.417, 1029.161 125.852, 1038.058 121.287, 1046.956 116.722, 1055.853 112.157, 1064.750 107.592, 1073.647 103.027, 1082.544 98.461, 1091.442 93.896, 1100.339 89.331, 1109.236 84.766, 1118.133 80.201, 1127.030 75.636, 1135.928 71.071, 1144.825 66.506, 1153.722 61.941, 1162.619 57.376, 1171.516 52.811, 1180.414 48.246, 1189.311 43.680, 1198.208 39.115, 1207.105 34.550, 1216.002 29.985, 1224.899 24.089, 1236.391 " />
            <path fill="none" stroke-width="3.0" stroke-linecap="butt" stroke-opacity="1.0" stroke="rgb(0, 0, 0)" stroke-linejoin="round" d=" M 1032.965, 975.512 1030.434, 974.731 1027.945, 973.825 1025.503, 972.796 " />
            <path fill="none" stroke-width="3.0" stroke-linecap="butt" stroke-opacity="1.0" stroke="rgb(0, 0, 0)" stroke-linejoin="round" d=" M 1097.850, 290.633 1100.367, 293.215 1102.753, 295.918 1105.001, 298.737 1107.106, 301.665 1109.063, 304.694 1110.865, 307.817 1112.511, 311.026 1113.994, 314.313 1115.311, 317.669 1116.459, 321.087 1117.436, 324.558 1118.238, 328.073 1118.864, 331.625 1119.313, 335.202 1119.582, 338.798 1119.672, 342.403 1119.582, 346.007 1119.313, 349.603 1118.864, 353.181 1118.238, 356.732 1117.436, 360.247 1116.459, 363.718 1115.311, 367.136 1113.994, 370.493 1112.511, 373.780 1110.865, 376.988 1109.063, 380.111 1107.106, 383.140 1105.001, 386.068 1102.753, 388.887 1100.367, 391.591 1097.850, 394.172 1095.206, 396.624 1092.444, 398.942 1089.570, 401.119 1086.591, 403.151 1083.514, 405.031 1080.347, 406.755 1077.098, 408.320 1073.776, 409.721 1070.387, 410.954 1066.942, 412.017 1063.447, 412.906 1059.913, 413.621 1056.347, 414.158 1052.760, 414.517 1049.158, 414.697 1045.552, 414.697 1041.951, 414.517 1038.363, 414.158 1034.798, 413.621 1031.263, 412.906 1027.769, 412.017 1024.323, 410.954 1020.935, 409.721 1017.612, 408.320 1014.364, 406.755 1011.197, 405.031 1008.120, 403.151 1005.141, 401.119 1002.267, 398.942 999.504, 396.624 996.861, 394.172 994.343, 391.591 991.958, 388.887 989.709, 386.068 987.604, 383.140 985.648, 380.111 983.845, 376.988 982.200, 373.780 980.717, 370.493 979.400, 367.136 978.251, 363.718 977.275, 360.247 976.472, 356.732 975.846, 353.181 975.398, 349.603 975.129, 346.007 975.039, 342.403 975.129, 338.798 975.398, 335.202 975.846, 331.625 976.472, 328.073 977.275, 324.558 978.251, 321.087 979.400, 317.669 980.717, 314.313 982.200, 311.026 983.845, 307.817 985.648, 304.694 987.604, 301.665 989.709, 298.737 991.958, 295.918 994.343, 293.215 996.861, 290.633 999.504, 288.181 1002.267, 285.863 1005.141, 283.686 1008.120, 281.655 1011.197, 279.774 1014.364, 278.050 1017.612, 276.485 1020.935, 275.085 1024.323, 273.852 1027.769, 272.789 1031.263, 271.899 1034.798, 271.185 1038.363, 270.647 1041.951, 270.288 1045.552, 270.109 1049.158, 270.109 1052.760, 270.288 1056.347, 270.647 1059.913, 271.185 1063.447, 271.899 1066.942, 272.789 1070.387, 273.852 1073.776, 275.085 1077.098, 276.485 1080.347, 278.050 1083.514, 279.774 1086.591, 281.655 1089.570, 283.686 1092.444, 285.863 1095.206, 288.181 1097.850, 290.633 " />
            <path fill="none" stroke-width="3.0" stroke-linecap="butt" stroke-opacity="1.0" stroke="rgb(0, 0, 0)" stroke-linejoin="round" d=" M 994.818, 932.286 994.489, 929.657 " />
            <path fill="none" stroke-width="3.0" stroke-linecap="butt" stroke-opacity="1.0" stroke="rgb(0, 0, 0)" stroke-linejoin="round" d=" M 995.278, 934.895 994.818, 932.286 " />
            <path fill="none" stroke-width="3.0" stroke-linecap="butt" stroke-opacity="1.0" stroke="rgb(0, 0, 0)" stroke-linejoin="round" d=" M 995.867, 937.478 995.278, 934.895 " />
            <path fill="none" stroke-width="3.0" stroke-linecap="butt" stroke-opacity="1.0" stroke="rgb(0, 0, 0)" stroke-linejoin="round" d=" M 996.585, 940.027 995.867, 937.478 " />
            <path fill="none" stroke-width="3.0" stroke-linecap="butt" stroke-opacity="1.0" stroke="rgb(0, 0, 0)" stroke-linejoin="round" d=" M 1025.503, 972.796 1023.117, 971.647 " />
            <path fill="none" stroke-width="3.0" stroke-linecap="butt" stroke-opacity="1.0" stroke="rgb(0, 0, 0)" stroke-linejoin="round" d=" M 1035.533, 976.166 1032.965, 975.512 " />
            <path fill="none" stroke-width="3.0" stroke-linecap="butt" stroke-opacity="1.0" stroke="rgb(0, 0, 0)" stroke-linejoin="round" d=" M 1038.129, 976.691 1035.533, 976.166 " />
            <path fill="none" stroke-width="3.0" stroke-linecap="butt" stroke-opacity="1.0" stroke="rgb(0, 0, 0)" stroke-linejoin="round" d=" M 1040.749, 977.086 1038.129, 976.691 " />
            <path fill="none" stroke-width="3.0" stroke-linecap="butt" stroke-opacity="1.0" stroke="rgb(0, 0, 0)" stroke-linejoin="round" d=" M 1086.303, 960.505 1084.453, 962.402 " />
            <path fill="none" stroke-width="3.0" stroke-linecap="butt" stroke-opacity="1.0" stroke="rgb(0, 0, 0)" stroke-linejoin="round" d=" M 1100.222, 929.657 1099.893, 932.286 " />
            <path fill="none" stroke-width="3.0" stroke-linecap="butt" stroke-opacity="1.0" stroke="rgb(0, 0, 0)" stroke-linejoin="round" d=" M 1905.932, 1236.391 1903.148, 1226.787 1900.364, 1217.182 1897.580, 1207.577 1894.797, 1197.972 1892.013, 1188.368 1889.229, 1178.763 1886.445, 1169.158 1883.662, 1159.554 1880.878, 1149.949 1878.094, 1140.344 1875.310, 1130.739 1872.527, 1121.135 1869.743, 1111.530 1866.959, 1101.925 1864.175, 1092.320 1861.391, 1082.716 1858.608, 1073.111 1855.824, 1063.506 1853.040, 1053.902 1850.256, 1044.297 1847.473, 1034.692 1844.689, 1025.087 1841.905, 1015.483 1839.121, 1005.878 1836.338, 996.273 1833.554, 986.669 1830.770, 977.064 1827.986, 967.459 1825.203, 957.854 1822.419, 948.250 1819.635, 938.645 1816.851, 929.040 1814.068, 919.436 1811.284, 909.831 1808.500, 900.226 1805.716, 890.621 1802.932, 881.017 1800.149, 871.412 1797.365, 861.807 1794.581, 852.202 1791.797, 842.598 1789.014, 832.993 1786.230, 823.388 1783.446, 813.784 1780.662, 804.179 1777.879, 794.574 1775.095, 784.969 1772.311, 775.365 1769.527, 765.760 1766.744, 756.155 1763.960, 746.551 1761.176, 736.946 1758.392, 727.341 1755.609, 717.736 1752.825, 708.132 1750.041, 698.527 1747.257, 688.922 1744.474, 679.318 1741.690, 669.713 1738.906, 660.108 1736.122, 650.503 1733.338, 640.899 1730.555, 631.294 1727.771, 621.689 1724.987, 612.084 1722.203, 602.480 1718.135, 588.442 " />
        </g>
    </g>
<g id="slice-labels"><text x="494.54975" y="326.812" text-anchor="middle" dominant-baseline="middle" font-family="Arial, sans-serif" font-size="59.03405690507056" font-weight="bold" fill="black" stroke="none" stroke-width="7.084086828608467" paint-order="stroke fill">Slice51 (Back)</text><text x="1435.47125" y="326.812" text-anchor="middle" dominant-baseline="middle" font-family="Arial, sans-serif" font-size="59.03405690507056" font-weight="bold" fill="black" stroke="none" stroke-width="7.084086828608467" paint-order="stroke fill">Slice51 (Back)</text><text x="494.54975" y="933.1980000000002" text-anchor="middle" dominant-baseline="middle" font-family="Arial, sans-serif" font-size="59.03405690507056" font-weight="bold" fill="black" stroke="none" stroke-width="7.084086828608467" paint-order="stroke fill">Slice51 (Back)</text><text x="1435.47125" y="933.1980000000002" text-anchor="middle" dominant-baseline="middle" font-family="Arial, sans-serif" font-size="59.03405690507056" font-weight="bold" fill="black" stroke="none" stroke-width="7.084086828608467" paint-order="stroke fill">Slice51 (Back)</text></g></svg>