<?xml version='1.0' encoding='utf-8'?>
<svg xmlns="http://www.w3.org/2000/svg" xmlns:inkscape="http://www.inkscape.org/namespaces/inkscape" version="1.1" width="289.42601759545505mm" height="299.96948623657227mm" viewBox="-0.22440855546786764 0.004598620380765084 3418.4698171109358 3542.9998027592387" preserveAspectRatio="none">
    <g id="ViewLayer_LineSet" inkscape:groupmode="lineset" inkscape:label="ViewLayer_LineSet">
        <g inkscape:groupmode="layer" id="strokes" inkscape:label="strokes">
            <path fill="none" stroke-width="3.0" stroke-linecap="butt" stroke-opacity="1.0" stroke="rgb(0, 0, 0)" stroke-linejoin="round" d=" M 2341.047, 3205.998 2338.528, 3208.580 2335.884, 3211.034 2333.121, 3213.352 2330.246, 3215.531 2327.265, 3217.562 2324.187, 3219.443 2321.019, 3221.168 2317.769, 3222.733 2314.446, 3224.134 2311.056, 3225.368 2307.609, 3226.432 2304.113, 3227.321 2300.578, 3228.036 2297.011, 3228.574 2293.422, 3228.933 2289.819, 3229.113 2286.212, 3229.113 2282.609, 3228.933 2279.020, 3228.574 2275.453, 3228.036 2271.917, 3227.321 2268.422, 3226.432 2264.975, 3225.368 2261.585, 3224.134 2258.261, 3222.733 2255.011, 3221.168 2251.844, 3219.443 2248.766, 3217.562 2245.785, 3215.531 2242.910, 3213.352 2240.147, 3211.034 2237.502, 3208.580 2234.984, 3205.998 2232.597, 3203.293 2230.348, 3200.474 2228.242, 3197.544 2226.285, 3194.514 2224.482, 3191.391 2222.836, 3188.180 2221.352, 3184.893 2220.035, 3181.535 2218.886, 3178.115 2217.909, 3174.644 2217.106, 3171.127 2216.480, 3167.574 2216.031, 3163.995 2215.762, 3160.398 2215.672, 3156.792 2215.762, 3153.186 2216.031, 3149.589 2216.480, 3146.009 2217.106, 3142.457 2217.909, 3138.940 2218.886, 3135.468 2220.035, 3132.049 2221.352, 3128.691 2222.836, 3125.403 2224.482, 3122.193 2226.285, 3119.069 2228.242, 3116.040 2230.348, 3113.110 2232.597, 3110.290 2234.984, 3107.585 2237.502, 3105.003 2240.147, 3102.550 2242.910, 3100.231 2245.785, 3098.053 2248.766, 3096.021 2251.844, 3094.141 2255.011, 3092.416 2258.261, 3090.851 2261.585, 3089.449 2264.975, 3088.215 2268.422, 3087.152 2271.917, 3086.262 2275.453, 3085.547 2279.020, 3085.010 2282.609, 3084.651 2286.212, 3084.471 2289.819, 3084.471 2293.422, 3084.651 2297.011, 3085.010 2300.578, 3085.547 2304.113, 3086.262 2307.609, 3087.152 2311.056, 3088.215 2314.446, 3089.449 2317.769, 3090.851 2321.019, 3092.416 2324.187, 3094.141 2327.265, 3096.021 2330.246, 3098.053 2333.121, 3100.231 2335.884, 3102.550 2338.528, 3105.003 2341.047, 3107.585 2343.434, 3110.290 2345.683, 3113.110 2347.788, 3116.040 2349.746, 3119.069 2351.549, 3122.193 2353.195, 3125.403 2354.678, 3128.691 2355.996, 3132.049 2357.145, 3135.468 2358.122, 3138.940 2358.925, 3142.457 2359.551, 3146.009 2360.000, 3149.589 2360.269, 3153.186 2360.359, 3156.792 2360.269, 3160.398 2360.000, 3163.995 2359.551, 3167.574 2358.925, 3171.127 2358.122, 3174.644 2357.145, 3178.115 2355.996, 3181.535 2354.678, 3184.893 2353.195, 3188.180 2351.549, 3191.391 2349.746, 3194.514 2347.788, 3197.544 2345.683, 3200.474 2343.434, 3203.293 2341.047, 3205.998 " />
            <path fill="none" stroke-width="3.0" stroke-linecap="butt" stroke-opacity="1.0" stroke="rgb(0, 0, 0)" stroke-linejoin="round" d=" M 2177.877, 3519.382 2187.877, 3519.382 2197.877, 3519.382 2207.877, 3519.382 2217.877, 3519.382 2227.877, 3519.382 2237.877, 3519.382 2247.877, 3519.382 2257.877, 3519.382 2267.877, 3519.382 2277.877, 3519.382 2287.877, 3519.382 2297.877, 3519.382 2307.877, 3519.382 2317.877, 3519.382 2327.877, 3519.382 2337.877, 3519.382 2347.877, 3519.382 2357.877, 3519.382 2367.877, 3519.382 2377.877, 3519.382 2387.877, 3519.382 2397.877, 3519.382 2407.877, 3519.382 2417.877, 3519.382 2427.877, 3519.382 2437.877, 3519.382 2447.877, 3519.382 2457.877, 3519.382 2467.877, 3519.382 2477.877, 3519.382 2487.877, 3519.382 2497.877, 3519.382 2507.877, 3519.382 2517.877, 3519.382 2527.877, 3519.382 2537.877, 3519.382 2547.877, 3519.382 2557.877, 3519.382 2567.877, 3519.382 2577.877, 3519.382 2587.877, 3519.382 2597.877, 3519.382 2607.877, 3519.382 2617.877, 3519.382 2627.877, 3519.382 2637.877, 3519.382 2647.877, 3519.382 2657.877, 3519.382 2667.877, 3519.382 2677.877, 3519.382 2687.877, 3519.382 2697.877, 3519.382 2707.877, 3519.382 2718.482, 3519.382 2728.482, 3519.382 2738.482, 3519.382 2748.482, 3519.382 2758.482, 3519.382 2768.482, 3519.382 2778.482, 3519.382 2788.482, 3519.382 2798.482, 3519.382 2808.482, 3519.382 2818.482, 3519.382 2828.482, 3519.382 2838.482, 3519.382 2848.482, 3519.382 2858.482, 3519.382 2868.482, 3519.382 2878.482, 3519.382 2888.482, 3519.382 2898.483, 3519.382 2908.482, 3519.382 2918.482, 3519.382 2928.482, 3519.382 2938.482, 3519.382 2948.483, 3519.382 2958.482, 3519.382 2968.482, 3519.382 2978.482, 3519.382 2988.482, 3519.382 2998.482, 3519.382 3008.482, 3519.382 3012.756, 3519.382 3015.378, 3519.382 3018.106, 3519.382 3023.840, 3519.382 3033.840, 3519.382 3043.840, 3519.382 3053.840, 3519.382 3063.840, 3519.382 3073.840, 3519.382 3083.840, 3519.382 3093.840, 3519.382 3103.840, 3519.382 3113.840, 3519.382 3123.840, 3519.382 3133.840, 3519.382 3143.840, 3519.382 3153.840, 3519.382 3163.840, 3519.382 3173.840, 3519.382 3183.840, 3519.382 3193.840, 3519.382 3203.840, 3519.382 3213.840, 3519.382 3223.840, 3519.382 3233.840, 3519.382 3243.840, 3519.382 3253.840, 3519.382 3263.840, 3519.382 3273.840, 3519.382 3283.840, 3519.382 3293.840, 3519.382 3303.840, 3519.382 3313.840, 3519.382 3323.840, 3519.382 3333.840, 3519.382 3343.840, 3519.382 3353.840, 3519.382 3363.840, 3519.382 3373.840, 3519.382 3383.840, 3519.382 3394.623, 3519.382 3390.969, 3510.074 3387.315, 3500.765 3383.661, 3491.457 3380.007, 3482.148 3376.353, 3472.840 3372.699, 3463.531 3369.046, 3454.222 3365.392, 3444.914 3361.738, 3435.605 3358.084, 3426.297 3354.430, 3416.988 3350.776, 3407.680 3347.123, 3398.371 3344.684, 3392.158 3339.150, 3383.828 3333.617, 3375.499 3328.084, 3367.169 3322.550, 3358.840 3317.017, 3350.510 3311.484, 3342.180 3305.950, 3333.851 3300.417, 3325.521 3294.884, 3317.192 3289.350, 3308.862 3283.817, 3300.533 3278.283, 3292.203 3272.750, 3283.873 3267.217, 3275.544 3261.683, 3267.214 3256.150, 3258.885 3250.617, 3250.555 3245.083, 3242.226 3239.550, 3233.896 3234.017, 3225.566 3228.483, 3217.237 3222.950, 3208.907 3217.417, 3200.578 3213.211, 3194.247 3209.263, 3185.059 3205.315, 3175.871 3201.367, 3166.684 3197.419, 3157.496 3193.471, 3148.308 3189.523, 3139.121 3185.575, 3129.933 3181.627, 3120.745 3177.679, 3111.557 3173.731, 3102.370 3169.783, 3093.182 3165.835, 3083.994 3161.887, 3074.807 3157.939, 3065.619 3153.991, 3056.431 3150.044, 3047.244 3146.096, 3038.056 3142.148, 3028.868 3138.200, 3019.681 3134.252, 3010.493 3130.304, 3001.305 3126.356, 2992.117 3122.408, 2982.930 3118.380, 2973.556 " />
            <path fill="none" stroke-width="3.0" stroke-linecap="butt" stroke-opacity="1.0" stroke="rgb(0, 0, 0)" stroke-linejoin="round" d=" M 3018.106, 3519.382 3020.822, 3519.335 3023.840, 3519.382 3026.747, 3519.294 3036.747, 3519.296 3046.747, 3519.299 3056.747, 3519.301 3066.747, 3519.303 3076.747, 3519.306 3086.747, 3519.308 3096.747, 3519.311 3106.747, 3519.313 3116.747, 3519.315 3126.747, 3519.318 3136.747, 3519.320 3146.747, 3519.323 3156.747, 3519.325 3166.747, 3519.328 3176.747, 3519.330 3186.747, 3519.332 3196.747, 3519.335 3206.747, 3519.337 3216.747, 3519.340 3226.747, 3519.342 3236.747, 3519.344 3246.747, 3519.347 3256.747, 3519.349 3266.747, 3519.352 3276.747, 3519.354 3286.747, 3519.356 3296.747, 3519.359 3306.747, 3519.361 3316.747, 3519.364 3326.747, 3519.366 3336.747, 3519.369 3346.747, 3519.371 3356.747, 3519.373 3366.747, 3519.376 3376.747, 3519.378 3386.747, 3519.381 3394.623, 3519.382 " />
            <path fill="none" stroke-width="3.0" stroke-linecap="butt" stroke-opacity="1.0" stroke="rgb(0, 0, 0)" stroke-linejoin="round" d=" M 2714.953, 3519.347 2718.482, 3519.382 " />
            <path fill="none" stroke-width="3.0" stroke-linecap="butt" stroke-opacity="1.0" stroke="rgb(0, 0, 0)" stroke-linejoin="round" d=" M 2177.877, 3519.382 2180.263, 3519.274 2190.263, 3519.276 2200.263, 3519.277 2210.263, 3519.278 2220.263, 3519.280 2230.263, 3519.281 2240.263, 3519.282 2250.263, 3519.284 2260.263, 3519.285 2270.263, 3519.287 2280.263, 3519.288 2290.263, 3519.289 2300.263, 3519.291 2310.263, 3519.292 2320.263, 3519.293 2330.263, 3519.295 2340.263, 3519.296 2350.263, 3519.297 2360.263, 3519.299 2370.263, 3519.300 2380.263, 3519.302 2390.263, 3519.303 2400.263, 3519.304 2410.263, 3519.306 2420.263, 3519.307 2430.263, 3519.308 2440.263, 3519.310 2450.263, 3519.311 2460.263, 3519.313 2470.263, 3519.314 2480.263, 3519.315 2490.263, 3519.317 2500.263, 3519.318 2510.263, 3519.319 2520.263, 3519.321 2530.263, 3519.322 2540.263, 3519.323 2550.263, 3519.325 2560.263, 3519.326 2570.263, 3519.328 2580.263, 3519.329 2590.263, 3519.330 2600.263, 3519.332 2610.263, 3519.333 2620.263, 3519.334 2630.263, 3519.336 2640.263, 3519.337 2650.263, 3519.339 2660.263, 3519.340 2670.263, 3519.341 2680.263, 3519.343 2690.263, 3519.344 2700.263, 3519.345 2711.647, 3519.347 " />
            <path fill="none" stroke-width="3.0" stroke-linecap="butt" stroke-opacity="1.0" stroke="rgb(0, 0, 0)" stroke-linejoin="round" d=" M 2177.877, 3519.382 2187.877, 3519.382 2197.877, 3519.381 2207.877, 3519.380 2217.877, 3519.380 2227.877, 3519.379 2237.877, 3519.378 2247.877, 3519.378 2257.877, 3519.377 2267.877, 3519.376 2277.877, 3519.376 2287.877, 3519.375 2297.877, 3519.374 2307.877, 3519.374 2317.877, 3519.373 2327.877, 3519.372 2337.877, 3519.372 2347.877, 3519.371 2357.877, 3519.370 2367.877, 3519.370 2377.877, 3519.369 2387.877, 3519.368 2397.877, 3519.368 2407.877, 3519.367 2417.877, 3519.366 2427.877, 3519.366 2437.877, 3519.365 2447.877, 3519.364 2457.877, 3519.364 2467.877, 3519.363 2477.877, 3519.362 2487.877, 3519.362 2497.877, 3519.361 2507.877, 3519.360 2517.877, 3519.360 2527.877, 3519.359 2537.877, 3519.358 2547.877, 3519.358 2557.877, 3519.357 2567.877, 3519.356 2577.877, 3519.356 2587.877, 3519.355 2597.877, 3519.354 2607.877, 3519.354 2617.877, 3519.353 2627.877, 3519.352 2637.877, 3519.352 2647.877, 3519.351 2657.877, 3519.350 2667.877, 3519.350 2677.877, 3519.349 2687.877, 3519.348 2697.877, 3519.348 2711.647, 3519.347 2714.953, 3519.347 " />
            <path fill="none" stroke-width="3.0" stroke-linecap="butt" stroke-opacity="1.0" stroke="rgb(0, 0, 0)" stroke-linejoin="round" d=" M 2172.449, 3519.382 2175.254, 3519.274 2177.877, 3519.382 " />
            <path fill="none" stroke-width="3.0" stroke-linecap="butt" stroke-opacity="1.0" stroke="rgb(0, 0, 0)" stroke-linejoin="round" d=" M 2167.058, 3519.382 2169.895, 3519.274 2172.449, 3519.382 " />
            <path fill="none" stroke-width="3.0" stroke-linecap="butt" stroke-opacity="1.0" stroke="rgb(0, 0, 0)" stroke-linejoin="round" d=" M 2164.248, 3519.274 2167.058, 3519.382 " />
            <path fill="none" stroke-width="3.0" stroke-linecap="butt" stroke-opacity="1.0" stroke="rgb(0, 0, 0)" stroke-linejoin="round" d=" M 2161.336, 3519.273 2164.248, 3519.274 2154.249, 3519.365 2152.307, 3519.382 " />
            <path fill="none" stroke-width="3.0" stroke-linecap="butt" stroke-opacity="1.0" stroke="rgb(0, 0, 0)" stroke-linejoin="round" d=" M 2155.381, 3519.274 2158.378, 3519.274 2161.336, 3519.273 " />
            <path fill="none" stroke-width="3.0" stroke-linecap="butt" stroke-opacity="1.0" stroke="rgb(0, 0, 0)" stroke-linejoin="round" d=" M 2152.307, 3519.382 2155.381, 3519.274 2161.336, 3519.273 2152.307, 3519.382 " />
            <path fill="none" stroke-width="3.0" stroke-linecap="butt" stroke-opacity="1.0" stroke="rgb(0, 0, 0)" stroke-linejoin="round" d=" M 2146.077, 3519.382 2149.302, 3519.273 2152.307, 3519.382 " />
            <path fill="none" stroke-width="3.0" stroke-linecap="butt" stroke-opacity="1.0" stroke="rgb(0, 0, 0)" stroke-linejoin="round" d=" M 2143.173, 3519.273 2146.077, 3519.382 " />
            <path fill="none" stroke-width="3.0" stroke-linecap="butt" stroke-opacity="1.0" stroke="rgb(0, 0, 0)" stroke-linejoin="round" d=" M 2140.110, 3519.273 2143.173, 3519.273 2133.991, 3519.382 " />
            <path fill="none" stroke-width="3.0" stroke-linecap="butt" stroke-opacity="1.0" stroke="rgb(0, 0, 0)" stroke-linejoin="round" d=" M 2133.991, 3519.382 2137.062, 3519.273 2140.110, 3519.273 2133.991, 3519.382 " />
            <path fill="none" stroke-width="3.0" stroke-linecap="butt" stroke-opacity="1.0" stroke="rgb(0, 0, 0)" stroke-linejoin="round" d=" M 2131.038, 3519.272 2133.991, 3519.382 " />
            <path fill="none" stroke-width="3.0" stroke-linecap="butt" stroke-opacity="1.0" stroke="rgb(0, 0, 0)" stroke-linejoin="round" d=" M 2125.125, 3519.382 2128.080, 3519.273 2131.038, 3519.272 2125.125, 3519.382 " />
            <path fill="none" stroke-width="3.0" stroke-linecap="butt" stroke-opacity="1.0" stroke="rgb(0, 0, 0)" stroke-linejoin="round" d=" M 2122.160, 3519.337 2125.125, 3519.382 " />
            <path fill="none" stroke-width="3.0" stroke-linecap="butt" stroke-opacity="1.0" stroke="rgb(0, 0, 0)" stroke-linejoin="round" d=" M 2867.127, 2285.109 2866.981, 2275.110 2866.835, 2265.111 2866.689, 2255.112 2866.543, 2245.113 2866.397, 2235.115 2866.251, 2225.116 2866.105, 2215.117 2865.990, 2207.244 2858.885, 2200.206 2851.781, 2193.168 2850.130, 2191.532 " />
            <path fill="none" stroke-width="3.0" stroke-linecap="butt" stroke-opacity="1.0" stroke="rgb(0, 0, 0)" stroke-linejoin="round" d=" M 1159.927, 3206.601 1157.408, 3209.184 1154.764, 3211.637 1152.001, 3213.955 1149.125, 3216.133 1146.145, 3218.166 1143.067, 3220.046 1139.899, 3221.772 1136.649, 3223.337 1133.325, 3224.738 1129.936, 3225.971 1126.489, 3227.035 1122.993, 3227.925 1119.458, 3228.639 1115.891, 3229.177 1112.302, 3229.536 1108.699, 3229.716 1105.092, 3229.716 1101.489, 3229.536 1097.900, 3229.177 1094.333, 3228.639 1090.797, 3227.925 1087.302, 3227.035 1083.855, 3225.971 1080.465, 3224.738 1077.141, 3223.337 1073.891, 3221.772 1070.724, 3220.046 1067.646, 3218.166 1064.665, 3216.133 1061.790, 3213.955 1059.026, 3211.637 1056.382, 3209.184 1053.864, 3206.601 1051.477, 3203.897 1049.228, 3201.077 1047.122, 3198.148 1045.165, 3195.118 1043.362, 3191.993 1041.716, 3188.784 1040.232, 3185.496 1038.915, 3182.138 1037.766, 3178.719 1036.789, 3175.246 1035.986, 3171.730 1035.359, 3168.177 1034.911, 3164.598 1034.642, 3161.001 1034.552, 3157.395 1034.642, 3153.789 1034.911, 3150.192 1035.359, 3146.612 1035.986, 3143.060 1036.789, 3139.544 1037.766, 3136.071 1038.915, 3132.652 1040.232, 3129.294 1041.716, 3126.006 1043.362, 3122.797 1045.165, 3119.673 1047.122, 3116.642 1049.228, 3113.714 1051.477, 3110.893 1053.864, 3108.189 1056.382, 3105.606 1059.026, 3103.154 1061.790, 3100.834 1064.665, 3098.657 1067.646, 3096.624 1070.724, 3094.744 1073.891, 3093.018 1077.141, 3091.453 1080.465, 3090.052 1083.855, 3088.818 1087.302, 3087.755 1090.797, 3086.865 1094.333, 3086.151 1097.900, 3085.613 1101.489, 3085.254 1105.092, 3085.074 1108.699, 3085.074 1112.302, 3085.254 1115.891, 3085.613 1119.458, 3086.151 1122.993, 3086.865 1126.489, 3087.755 1129.936, 3088.818 1133.325, 3090.052 1136.649, 3091.453 1139.899, 3093.018 1143.067, 3094.744 1146.145, 3096.624 1149.125, 3098.657 1152.001, 3100.834 1154.764, 3103.154 1157.408, 3105.606 1159.927, 3108.189 1162.314, 3110.893 1164.563, 3113.714 1166.668, 3116.642 1168.625, 3119.673 1170.429, 3122.797 1172.075, 3126.006 1173.558, 3129.294 1174.876, 3132.652 1176.025, 3136.071 1177.002, 3139.544 1177.804, 3143.060 1178.431, 3146.612 1178.879, 3150.192 1179.149, 3153.789 1179.239, 3157.395 1179.149, 3161.001 1178.879, 3164.598 1178.431, 3168.177 1177.804, 3171.730 1177.002, 3175.246 1176.025, 3178.719 1174.876, 3182.138 1173.558, 3185.496 1172.075, 3188.784 1170.429, 3191.993 1168.625, 3195.118 1166.668, 3198.148 1164.563, 3201.077 1162.314, 3203.897 1159.927, 3206.601 " />
            <path fill="none" stroke-width="3.0" stroke-linecap="butt" stroke-opacity="1.0" stroke="rgb(0, 0, 0)" stroke-linejoin="round" d=" M 1273.931, 3519.273 1283.931, 3519.273 1293.931, 3519.274 1303.931, 3519.275 1313.931, 3519.276 1323.931, 3519.276 1333.931, 3519.277 1343.931, 3519.278 1353.931, 3519.279 1363.931, 3519.279 1373.931, 3519.280 1383.931, 3519.281 1393.931, 3519.282 1403.931, 3519.282 1413.931, 3519.283 1423.931, 3519.284 1433.931, 3519.285 1443.931, 3519.285 1453.931, 3519.286 1463.931, 3519.287 1473.931, 3519.288 1483.931, 3519.288 1493.931, 3519.289 1503.931, 3519.290 1513.931, 3519.291 1523.931, 3519.292 1533.931, 3519.292 1543.931, 3519.293 1553.931, 3519.294 1563.931, 3519.295 1573.931, 3519.295 1583.931, 3519.296 1593.931, 3519.297 1603.931, 3519.298 1613.931, 3519.298 1623.931, 3519.299 1633.931, 3519.300 1643.931, 3519.301 1653.931, 3519.301 1663.931, 3519.302 1673.931, 3519.303 1683.931, 3519.304 1693.931, 3519.304 1703.931, 3519.305 1713.931, 3519.306 1723.931, 3519.307 1733.931, 3519.307 1743.931, 3519.308 1753.931, 3519.309 1763.931, 3519.310 1773.931, 3519.310 1783.931, 3519.311 1793.931, 3519.312 1803.931, 3519.313 1813.931, 3519.313 1823.931, 3519.314 1833.931, 3519.315 1843.931, 3519.316 1853.931, 3519.316 1863.931, 3519.317 1873.931, 3519.318 1883.931, 3519.319 1893.931, 3519.319 1903.931, 3519.320 1913.931, 3519.321 1923.931, 3519.322 1933.931, 3519.322 1943.931, 3519.323 1953.931, 3519.324 1963.931, 3519.325 1973.931, 3519.326 1983.931, 3519.326 1993.931, 3519.327 2003.931, 3519.328 2013.931, 3519.329 2023.931, 3519.329 2033.931, 3519.330 2043.931, 3519.331 2053.931, 3519.332 2063.931, 3519.332 2073.931, 3519.333 2083.931, 3519.334 2093.931, 3519.335 2103.931, 3519.335 2122.160, 3519.337 2112.160, 3519.337 2102.160, 3519.338 2092.160, 3519.338 2082.160, 3519.339 2072.160, 3519.339 2062.160, 3519.340 2052.160, 3519.340 2042.160, 3519.341 2032.160, 3519.342 2022.160, 3519.342 2012.160, 3519.343 2002.160, 3519.343 1992.160, 3519.344 1982.160, 3519.344 1972.160, 3519.345 1962.160, 3519.345 1952.160, 3519.346 1942.160, 3519.346 1932.160, 3519.347 1922.160, 3519.347 1912.160, 3519.348 1902.160, 3519.348 1892.160, 3519.349 1882.160, 3519.350 1872.160, 3519.350 1862.160, 3519.351 1852.160, 3519.351 1842.160, 3519.352 1832.160, 3519.352 1822.160, 3519.353 1812.160, 3519.353 1802.160, 3519.354 1792.160, 3519.354 1782.160, 3519.355 1772.160, 3519.355 1762.160, 3519.356 1752.160, 3519.357 1742.160, 3519.357 1732.160, 3519.358 1722.160, 3519.358 1712.160, 3519.359 1702.160, 3519.359 1692.160, 3519.360 1682.160, 3519.360 1672.160, 3519.361 1662.160, 3519.361 1652.160, 3519.362 1642.160, 3519.362 1632.160, 3519.363 1622.160, 3519.363 1612.160, 3519.364 1602.160, 3519.365 1592.160, 3519.365 1582.160, 3519.366 1572.160, 3519.366 1562.160, 3519.367 1552.160, 3519.367 1542.160, 3519.368 1532.160, 3519.368 1522.160, 3519.369 1512.160, 3519.369 1502.160, 3519.370 1492.160, 3519.370 1482.160, 3519.371 1472.160, 3519.372 1462.160, 3519.372 1452.160, 3519.373 1442.160, 3519.373 1432.160, 3519.374 1422.160, 3519.374 1412.160, 3519.375 1402.160, 3519.375 1392.160, 3519.376 1382.160, 3519.376 1372.160, 3519.377 1362.160, 3519.377 1352.160, 3519.378 1342.160, 3519.378 1332.160, 3519.379 1322.160, 3519.380 1312.160, 3519.380 1302.160, 3519.381 1292.160, 3519.381 1282.160, 3519.382 1268.187, 3519.382 " />
            <path fill="none" stroke-width="3.0" stroke-linecap="butt" stroke-opacity="1.0" stroke="rgb(0, 0, 0)" stroke-linejoin="round" d=" M 1268.187, 3519.382 1271.065, 3519.272 1273.931, 3519.273 1268.187, 3519.382 " />
            <path fill="none" stroke-width="3.0" stroke-linecap="butt" stroke-opacity="1.0" stroke="rgb(0, 0, 0)" stroke-linejoin="round" d=" M 1265.175, 3519.273 1268.187, 3519.382 " />
            <path fill="none" stroke-width="3.0" stroke-linecap="butt" stroke-opacity="1.0" stroke="rgb(0, 0, 0)" stroke-linejoin="round" d=" M 1259.136, 3519.272 1262.171, 3519.272 1265.175, 3519.273 " />
            <path fill="none" stroke-width="3.0" stroke-linecap="butt" stroke-opacity="1.0" stroke="rgb(0, 0, 0)" stroke-linejoin="round" d=" M 1256.123, 3519.382 1259.136, 3519.272 1265.175, 3519.273 1256.123, 3519.382 " />
            <path fill="none" stroke-width="3.0" stroke-linecap="butt" stroke-opacity="1.0" stroke="rgb(0, 0, 0)" stroke-linejoin="round" d=" M 1253.009, 3519.273 1256.123, 3519.382 " />
            <path fill="none" stroke-width="3.0" stroke-linecap="butt" stroke-opacity="1.0" stroke="rgb(0, 0, 0)" stroke-linejoin="round" d=" M 1247.031, 3519.382 1249.937, 3519.273 1253.009, 3519.273 " />
            <path fill="none" stroke-width="3.0" stroke-linecap="butt" stroke-opacity="1.0" stroke="rgb(0, 0, 0)" stroke-linejoin="round" d=" M 1240.826, 3519.382 1243.814, 3519.273 1247.031, 3519.382 " />
            <path fill="none" stroke-width="3.0" stroke-linecap="butt" stroke-opacity="1.0" stroke="rgb(0, 0, 0)" stroke-linejoin="round" d=" M 1237.780, 3519.274 1240.826, 3519.382 " />
            <path fill="none" stroke-width="3.0" stroke-linecap="butt" stroke-opacity="1.0" stroke="rgb(0, 0, 0)" stroke-linejoin="round" d=" M 1231.950, 3519.382 1234.818, 3519.273 1237.780, 3519.274 1231.950, 3519.382 " />
            <path fill="none" stroke-width="3.0" stroke-linecap="butt" stroke-opacity="1.0" stroke="rgb(0, 0, 0)" stroke-linejoin="round" d=" M 1226.303, 3519.382 1229.048, 3519.274 1231.950, 3519.382 " />
            <path fill="none" stroke-width="3.0" stroke-linecap="butt" stroke-opacity="1.0" stroke="rgb(0, 0, 0)" stroke-linejoin="round" d=" M 1220.946, 3519.382 1223.537, 3519.274 1226.303, 3519.382 " />
            <path fill="none" stroke-width="3.0" stroke-linecap="butt" stroke-opacity="1.0" stroke="rgb(0, 0, 0)" stroke-linejoin="round" d=" M 1218.349, 3519.274 1220.946, 3519.382 " />
            <path fill="none" stroke-width="3.0" stroke-linecap="butt" stroke-opacity="1.0" stroke="rgb(0, 0, 0)" stroke-linejoin="round" d=" M 485.071, 3519.382 495.071, 3519.381 505.071, 3519.379 515.071, 3519.378 525.071, 3519.377 535.071, 3519.375 545.071, 3519.374 555.071, 3519.372 565.071, 3519.371 575.071, 3519.369 585.071, 3519.368 595.071, 3519.366 605.071, 3519.365 615.071, 3519.363 625.071, 3519.362 635.071, 3519.360 645.071, 3519.359 655.071, 3519.357 665.071, 3519.356 675.071, 3519.354 685.071, 3519.353 695.071, 3519.351 705.071, 3519.350 715.071, 3519.348 725.071, 3519.347 735.071, 3519.345 745.071, 3519.344 755.071, 3519.342 765.071, 3519.341 775.071, 3519.340 785.071, 3519.338 795.071, 3519.337 805.071, 3519.335 815.071, 3519.334 825.071, 3519.332 835.071, 3519.331 845.071, 3519.329 855.071, 3519.328 865.071, 3519.326 875.071, 3519.325 885.071, 3519.323 895.071, 3519.322 905.071, 3519.320 915.071, 3519.319 925.071, 3519.317 935.071, 3519.316 945.071, 3519.314 955.071, 3519.313 965.071, 3519.311 975.071, 3519.310 985.071, 3519.308 995.071, 3519.307 1005.071, 3519.305 1015.071, 3519.304 1025.071, 3519.302 1035.071, 3519.301 1045.071, 3519.300 1055.071, 3519.298 1065.071, 3519.297 1075.071, 3519.295 1085.071, 3519.294 1095.071, 3519.292 1105.071, 3519.291 1115.071, 3519.289 1125.071, 3519.288 1135.071, 3519.286 1145.071, 3519.285 1155.071, 3519.283 1165.071, 3519.282 1175.071, 3519.280 1185.071, 3519.279 1195.071, 3519.277 1205.071, 3519.276 1215.894, 3519.274 1218.349, 3519.274 1208.349, 3519.276 1198.349, 3519.277 1188.349, 3519.279 1178.349, 3519.280 1168.349, 3519.282 1158.349, 3519.283 1148.349, 3519.285 1138.349, 3519.286 1128.349, 3519.288 1118.349, 3519.289 1108.349, 3519.290 1098.349, 3519.292 1088.349, 3519.293 1078.349, 3519.295 1068.349, 3519.296 1058.349, 3519.298 1048.349, 3519.299 1038.349, 3519.301 1028.349, 3519.302 1018.349, 3519.304 1008.349, 3519.305 998.349, 3519.307 988.349, 3519.308 978.349, 3519.310 968.349, 3519.311 958.349, 3519.313 948.349, 3519.314 938.349, 3519.316 928.349, 3519.317 918.349, 3519.319 908.349, 3519.320 898.349, 3519.321 888.349, 3519.323 878.349, 3519.324 868.349, 3519.326 858.349, 3519.327 848.349, 3519.329 838.348, 3519.330 828.349, 3519.332 818.349, 3519.333 808.349, 3519.335 798.349, 3519.336 788.349, 3519.338 778.349, 3519.339 768.348, 3519.341 758.349, 3519.342 748.349, 3519.344 738.349, 3519.345 728.348, 3519.347 718.349, 3519.348 708.349, 3519.350 698.348, 3519.351 688.349, 3519.352 678.349, 3519.354 668.349, 3519.355 658.348, 3519.357 648.349, 3519.358 638.349, 3519.360 628.348, 3519.361 618.349, 3519.363 608.349, 3519.364 598.349, 3519.366 588.348, 3519.367 578.349, 3519.369 568.349, 3519.370 558.348, 3519.372 548.348, 3519.373 538.349, 3519.375 528.349, 3519.376 518.348, 3519.378 508.349, 3519.379 498.348, 3519.381 485.071, 3519.382 " />
            <path fill="none" stroke-width="3.0" stroke-linecap="butt" stroke-opacity="1.0" stroke="rgb(0, 0, 0)" stroke-linejoin="round" d=" M 482.551, 3519.331 485.071, 3519.382 " />
            <path fill="none" stroke-width="3.0" stroke-linecap="butt" stroke-opacity="1.0" stroke="rgb(0, 0, 0)" stroke-linejoin="round" d=" M 479.800, 3519.331 482.551, 3519.331 473.857, 3519.382 " />
            <path fill="none" stroke-width="3.0" stroke-linecap="butt" stroke-opacity="1.0" stroke="rgb(0, 0, 0)" stroke-linejoin="round" d=" M 473.857, 3519.382 476.933, 3519.330 479.800, 3519.331 473.857, 3519.382 " />
            <path fill="none" stroke-width="3.0" stroke-linecap="butt" stroke-opacity="1.0" stroke="rgb(0, 0, 0)" stroke-linejoin="round" d=" M 160.194, 3519.382 170.194, 3519.381 180.194, 3519.379 190.194, 3519.377 200.194, 3519.376 210.194, 3519.374 220.194, 3519.372 230.194, 3519.371 240.194, 3519.369 250.194, 3519.367 260.194, 3519.366 270.194, 3519.364 280.194, 3519.362 290.194, 3519.361 300.194, 3519.359 310.194, 3519.357 320.194, 3519.355 330.194, 3519.354 340.194, 3519.352 350.194, 3519.350 360.194, 3519.349 370.194, 3519.347 380.194, 3519.345 390.194, 3519.344 400.194, 3519.342 410.194, 3519.340 420.194, 3519.339 430.194, 3519.337 440.194, 3519.335 450.194, 3519.334 460.194, 3519.332 470.900, 3519.330 473.857, 3519.382 " />
            <path fill="none" stroke-width="3.0" stroke-linecap="butt" stroke-opacity="1.0" stroke="rgb(0, 0, 0)" stroke-linejoin="round" d=" M 148.155, 3519.382 149.542, 3519.382 152.307, 3519.382 156.366, 3519.382 157.675, 3519.382 160.194, 3519.382 170.194, 3519.382 180.194, 3519.382 190.194, 3519.382 200.194, 3519.382 210.194, 3519.382 220.194, 3519.382 230.194, 3519.382 240.194, 3519.382 250.194, 3519.382 260.194, 3519.382 270.194, 3519.382 280.194, 3519.382 290.194, 3519.382 300.194, 3519.382 310.194, 3519.382 320.194, 3519.382 330.194, 3519.382 340.194, 3519.382 350.194, 3519.382 360.194, 3519.382 370.194, 3519.382 380.194, 3519.382 390.194, 3519.382 400.194, 3519.382 410.194, 3519.382 420.194, 3519.382 430.194, 3519.382 440.194, 3519.382 450.194, 3519.382 460.194, 3519.382 470.194, 3519.382 473.857, 3519.382 483.857, 3519.382 485.071, 3519.382 495.071, 3519.382 505.071, 3519.382 515.071, 3519.382 525.071, 3519.382 535.071, 3519.382 545.071, 3519.382 555.071, 3519.382 565.071, 3519.382 575.071, 3519.382 585.071, 3519.382 595.071, 3519.382 605.071, 3519.382 615.071, 3519.382 625.071, 3519.382 635.071, 3519.382 645.071, 3519.382 655.071, 3519.382 665.071, 3519.382 675.071, 3519.382 685.071, 3519.382 695.071, 3519.382 705.071, 3519.382 715.071, 3519.382 725.071, 3519.382 735.071, 3519.382 745.071, 3519.382 755.071, 3519.382 765.071, 3519.382 775.071, 3519.382 785.071, 3519.382 795.071, 3519.382 805.071, 3519.382 815.071, 3519.382 825.071, 3519.382 835.071, 3519.382 845.071, 3519.382 855.071, 3519.382 865.071, 3519.382 875.071, 3519.382 885.071, 3519.382 895.071, 3519.382 905.071, 3519.382 915.071, 3519.382 925.071, 3519.382 935.071, 3519.382 945.071, 3519.382 955.071, 3519.382 965.071, 3519.382 975.071, 3519.382 985.071, 3519.382 995.071, 3519.382 1005.071, 3519.382 1015.071, 3519.382 1025.071, 3519.382 1035.071, 3519.382 1045.071, 3519.382 1055.071, 3519.382 1065.071, 3519.382 1075.071, 3519.382 1085.071, 3519.382 1095.071, 3519.382 1105.071, 3519.382 1115.071, 3519.382 1125.071, 3519.382 1135.071, 3519.382 1145.071, 3519.382 1155.071, 3519.382 1165.071, 3519.382 1175.071, 3519.382 1185.071, 3519.382 1195.071, 3519.382 1205.071, 3519.382 1220.946, 3519.382 1226.303, 3519.382 1231.950, 3519.382 1240.826, 3519.382 1247.031, 3519.382 " />
            <path fill="none" stroke-width="3.0" stroke-linecap="butt" stroke-opacity="1.0" stroke="rgb(0, 0, 0)" stroke-linejoin="round" d=" M 145.519, 3519.382 146.885, 3519.343 148.155, 3519.382 " />
            <path fill="none" stroke-width="3.0" stroke-linecap="butt" stroke-opacity="1.0" stroke="rgb(0, 0, 0)" stroke-linejoin="round" d=" M 142.698, 3519.382 144.152, 3519.342 145.519, 3519.382 " />
            <path fill="none" stroke-width="3.0" stroke-linecap="butt" stroke-opacity="1.0" stroke="rgb(0, 0, 0)" stroke-linejoin="round" d=" M 140.075, 3519.382 141.485, 3519.341 142.698, 3519.382 " />
            <path fill="none" stroke-width="3.0" stroke-linecap="butt" stroke-opacity="1.0" stroke="rgb(0, 0, 0)" stroke-linejoin="round" d=" M 157.675, 3519.382 159.065, 3519.345 160.194, 3519.382 " />
            <path fill="none" stroke-width="3.0" stroke-linecap="butt" stroke-opacity="1.0" stroke="rgb(0, 0, 0)" stroke-linejoin="round" d=" M 155.144, 3519.345 156.366, 3519.382 " />
            <path fill="none" stroke-width="3.0" stroke-linecap="butt" stroke-opacity="1.0" stroke="rgb(0, 0, 0)" stroke-linejoin="round" d=" M 149.542, 3519.382 151.038, 3519.344 152.307, 3519.382 153.789, 3519.344 155.144, 3519.345 152.307, 3519.382 " />
            <path fill="none" stroke-width="3.0" stroke-linecap="butt" stroke-opacity="1.0" stroke="rgb(0, 0, 0)" stroke-linejoin="round" d=" M 1865.500, 1296.385 1863.848, 1298.457 1862.095, 1300.444 1860.244, 1302.341 1858.301, 1304.143 1856.271, 1305.847 " />
            <path fill="none" stroke-width="3.0" stroke-linecap="butt" stroke-opacity="1.0" stroke="rgb(0, 0, 0)" stroke-linejoin="round" d=" M 2850.130, 2191.532 2845.895, 2182.473 2841.661, 2173.414 2837.426, 2164.355 2833.191, 2155.296 2828.957, 2146.237 2824.722, 2137.178 2820.488, 2128.119 2816.253, 2119.059 2812.018, 2110.000 2807.783, 2100.941 2803.549, 2091.882 2799.314, 2082.823 2795.080, 2073.764 2790.845, 2064.705 2786.610, 2055.646 2782.376, 2046.586 2778.141, 2037.527 2773.906, 2028.468 2769.672, 2019.409 2765.437, 2010.350 2761.203, 2001.291 2756.968, 1992.232 2752.733, 1983.172 2748.499, 1974.113 2744.264, 1965.054 2740.029, 1955.995 2735.795, 1946.936 2731.560, 1937.877 2727.325, 1928.818 2723.091, 1919.759 2718.856, 1910.699 2714.622, 1901.640 2710.387, 1892.581 2706.152, 1883.522 2701.917, 1874.463 2697.683, 1865.404 2693.448, 1856.345 2689.214, 1847.286 2684.979, 1838.226 2680.744, 1829.167 2676.510, 1820.108 2672.275, 1811.049 2668.041, 1801.990 2663.806, 1792.931 2659.571, 1783.872 2655.336, 1774.812 2651.102, 1765.753 2648.743, 1760.706 2647.207, 1750.825 2645.670, 1740.944 2644.831, 1735.544 2643.761, 1725.602 2642.691, 1715.659 2641.621, 1705.717 2640.552, 1695.774 2639.481, 1685.831 2638.412, 1675.889 2637.342, 1665.946 2636.272, 1656.004 2635.202, 1646.061 2634.132, 1636.118 2633.062, 1626.176 2631.992, 1616.233 2630.923, 1606.291 2629.853, 1596.348 2628.783, 1586.405 2627.713, 1576.463 2626.643, 1566.520 2625.573, 1556.578 2624.503, 1546.635 2623.434, 1536.692 2622.364, 1526.750 2622.114, 1524.431 2622.829, 1514.457 2623.543, 1504.482 2624.257, 1494.508 2624.971, 1484.533 2625.686, 1474.559 2626.400, 1464.584 2627.114, 1454.610 2627.829, 1444.635 2628.543, 1434.661 2629.226, 1425.125 " />
            <path fill="none" stroke-width="3.0" stroke-linecap="butt" stroke-opacity="1.0" stroke="rgb(0, 0, 0)" stroke-linejoin="round" d=" M 1869.810, 1289.712 1868.485, 1292.007 1867.047, 1294.233 1865.500, 1296.385 " />
            <path fill="none" stroke-width="3.0" stroke-linecap="butt" stroke-opacity="1.0" stroke="rgb(0, 0, 0)" stroke-linejoin="round" d=" M 1851.969, 1308.940 1849.708, 1310.322 1847.380, 1311.589 1844.993, 1312.739 " />
            <path fill="none" stroke-width="3.0" stroke-linecap="butt" stroke-opacity="1.0" stroke="rgb(0, 0, 0)" stroke-linejoin="round" d=" M 1876.019, 1269.584 1875.689, 1272.214 1875.229, 1274.823 1874.639, 1277.407 1873.922, 1279.958 1873.078, 1282.471 1872.109, 1284.938 1871.020, 1287.353 1869.810, 1289.712 " />
            <path fill="none" stroke-width="3.0" stroke-linecap="butt" stroke-opacity="1.0" stroke="rgb(0, 0, 0)" stroke-linejoin="round" d=" M 1844.993, 1312.739 1842.551, 1313.769 1840.060, 1314.675 1837.528, 1315.456 1834.960, 1316.110 " />
            <path fill="none" stroke-width="3.0" stroke-linecap="butt" stroke-opacity="1.0" stroke="rgb(0, 0, 0)" stroke-linejoin="round" d=" M 1834.960, 1316.110 1832.362, 1316.635 1829.741, 1317.030 1827.104, 1317.294 1824.458, 1317.426 " />
            <path fill="none" stroke-width="3.0" stroke-linecap="butt" stroke-opacity="1.0" stroke="rgb(0, 0, 0)" stroke-linejoin="round" d=" M 1875.229, 1253.761 1875.689, 1256.371 1876.019, 1259.000 1876.217, 1261.642 1876.283, 1264.292 1876.217, 1266.942 " />
            <path fill="none" stroke-width="3.0" stroke-linecap="butt" stroke-opacity="1.0" stroke="rgb(0, 0, 0)" stroke-linejoin="round" d=" M 1824.458, 1317.426 1821.808, 1317.426 1819.161, 1317.294 1816.524, 1317.030 1813.903, 1316.635 1811.305, 1316.110 1808.737, 1315.456 1806.205, 1314.675 1803.715, 1313.769 1801.273, 1312.739 " />
            <path fill="none" stroke-width="3.0" stroke-linecap="butt" stroke-opacity="1.0" stroke="rgb(0, 0, 0)" stroke-linejoin="round" d=" M 2629.226, 1425.125 2627.553, 1415.266 2625.880, 1405.407 2624.207, 1395.548 2622.534, 1385.689 2620.861, 1375.830 2619.188, 1365.971 2617.515, 1356.112 2615.842, 1346.253 2614.169, 1336.394 2612.496, 1326.534 2610.823, 1316.676 2609.150, 1306.816 2607.477, 1296.957 2605.804, 1287.098 2604.131, 1277.239 2602.458, 1267.380 2601.280, 1260.433 2602.393, 1250.495 2603.505, 1240.557 2604.618, 1230.619 2605.731, 1220.681 2606.844, 1210.744 2607.957, 1200.806 2609.070, 1190.868 2610.183, 1180.930 2611.296, 1170.992 2612.409, 1161.054 2613.522, 1151.116 2614.418, 1143.109 " />
            <path fill="none" stroke-width="3.0" stroke-linecap="butt" stroke-opacity="1.0" stroke="rgb(0, 0, 0)" stroke-linejoin="round" d=" M 1874.639, 1251.177 1875.229, 1253.761 " />
            <path fill="none" stroke-width="3.0" stroke-linecap="butt" stroke-opacity="1.0" stroke="rgb(0, 0, 0)" stroke-linejoin="round" d=" M 1863.848, 1230.128 1865.500, 1232.200 1867.047, 1234.352 1868.485, 1236.578 1869.810, 1238.873 1871.020, 1241.231 1872.109, 1243.647 1873.078, 1246.114 1873.922, 1248.626 1874.639, 1251.177 " />
            <path fill="none" stroke-width="3.0" stroke-linecap="butt" stroke-opacity="1.0" stroke="rgb(0, 0, 0)" stroke-linejoin="round" d=" M 1842.551, 1214.816 1844.993, 1215.846 1847.380, 1216.995 1849.708, 1218.262 1851.969, 1219.645 1854.159, 1221.138 1856.271, 1222.738 1858.301, 1224.442 1860.244, 1226.244 1862.095, 1228.141 1863.848, 1230.128 " />
            <path fill="none" stroke-width="3.0" stroke-linecap="butt" stroke-opacity="1.0" stroke="rgb(0, 0, 0)" stroke-linejoin="round" d=" M 211.052, 2684.950 210.379, 2694.927 209.707, 2704.904 209.034, 2714.882 208.361, 2724.859 207.688, 2734.836 207.016, 2744.814 206.343, 2754.791 206.294, 2755.516 205.621, 2765.493 204.949, 2775.471 204.276, 2785.448 203.603, 2795.425 202.930, 2805.403 202.258, 2815.380 201.585, 2825.357 200.912, 2835.335 200.240, 2845.312 199.567, 2855.289 198.894, 2865.267 198.221, 2875.244 197.549, 2885.221 197.159, 2891.003 194.494, 2900.641 191.828, 2910.279 189.163, 2919.917 186.498, 2929.556 183.833, 2939.194 181.168, 2948.832 178.502, 2958.471 175.837, 2968.109 173.172, 2977.747 170.507, 2987.385 167.842, 2997.024 165.176, 3006.662 162.511, 3016.300 159.846, 3025.939 157.181, 3035.577 154.516, 3045.215 151.850, 3054.854 149.185, 3064.492 146.520, 3074.130 143.855, 3083.768 141.190, 3093.407 138.524, 3103.045 135.859, 3112.683 133.194, 3122.322 130.529, 3131.960 127.864, 3141.598 125.198, 3151.237 122.533, 3160.875 119.868, 3170.513 117.203, 3180.151 114.538, 3189.790 111.872, 3199.428 109.207, 3209.066 106.542, 3218.705 103.877, 3228.343 101.212, 3237.981 98.546, 3247.619 95.881, 3257.258 93.216, 3266.896 90.551, 3276.534 87.886, 3286.173 85.220, 3295.811 82.555, 3305.449 79.890, 3315.087 77.225, 3324.726 74.560, 3334.364 71.894, 3344.002 69.229, 3353.641 66.564, 3363.279 63.899, 3372.917 61.234, 3382.556 58.568, 3392.194 55.903, 3401.832 53.238, 3411.470 50.573, 3421.109 47.908, 3430.747 45.242, 3440.385 42.577, 3450.024 39.912, 3459.662 37.247, 3469.300 34.582, 3478.938 31.916, 3488.577 29.251, 3498.215 26.586, 3507.853 23.398, 3519.382 33.398, 3519.382 43.398, 3519.382 53.398, 3519.382 63.398, 3519.382 73.398, 3519.382 83.398, 3519.382 93.398, 3519.382 103.398, 3519.382 113.398, 3519.382 123.398, 3519.382 133.398, 3519.382 140.075, 3519.382 142.698, 3519.382 " />
            <path fill="none" stroke-width="3.0" stroke-linecap="butt" stroke-opacity="1.0" stroke="rgb(0, 0, 0)" stroke-linejoin="round" d=" M 640.667, 2125.339 634.578, 2133.271 628.488, 2141.203 622.399, 2149.135 616.309, 2157.067 610.220, 2164.999 604.130, 2172.931 598.041, 2180.863 591.951, 2188.795 585.862, 2196.727 579.772, 2204.660 573.683, 2212.592 567.593, 2220.524 561.504, 2228.456 555.414, 2236.388 549.325, 2244.320 543.235, 2252.252 537.146, 2260.184 531.056, 2268.116 524.967, 2276.048 518.877, 2283.980 512.788, 2291.913 506.698, 2299.845 500.609, 2307.777 494.519, 2315.709 488.430, 2323.641 482.340, 2331.573 476.251, 2339.505 470.161, 2347.437 464.072, 2355.369 457.982, 2363.301 451.893, 2371.234 445.803, 2379.166 439.714, 2387.098 433.624, 2395.030 427.535, 2402.962 421.445, 2410.894 415.356, 2418.826 409.266, 2426.758 403.177, 2434.690 397.087, 2442.622 390.998, 2450.554 384.908, 2458.486 378.819, 2466.419 372.730, 2474.351 366.640, 2482.283 360.551, 2490.215 354.461, 2498.147 348.372, 2506.079 342.282, 2514.011 336.193, 2521.943 330.103, 2529.875 324.014, 2537.807 317.924, 2545.740 311.835, 2553.672 305.745, 2561.604 299.656, 2569.536 293.566, 2577.468 287.477, 2585.400 281.387, 2593.332 275.298, 2601.264 269.208, 2609.196 263.119, 2617.128 257.029, 2625.060 250.940, 2632.992 244.850, 2640.925 238.761, 2648.857 232.671, 2656.789 226.582, 2664.721 220.492, 2672.653 211.052, 2684.950 210.379, 2694.927 209.707, 2704.904 209.034, 2714.882 208.361, 2724.859 207.688, 2734.836 207.016, 2744.814 206.343, 2754.791 205.670, 2764.768 204.998, 2774.746 204.325, 2784.723 203.652, 2794.700 202.979, 2804.678 202.307, 2814.655 201.634, 2824.632 200.961, 2834.610 200.288, 2844.587 199.616, 2854.564 198.943, 2864.542 198.270, 2874.519 197.598, 2884.496 197.159, 2891.003 " />
            <path fill="none" stroke-width="3.0" stroke-linecap="butt" stroke-opacity="1.0" stroke="rgb(0, 0, 0)" stroke-linejoin="round" d=" M 813.406, 1706.131 810.341, 1715.650 807.276, 1725.169 804.212, 1734.688 801.147, 1744.206 798.082, 1753.725 795.018, 1763.244 791.953, 1772.763 788.888, 1782.282 785.824, 1791.801 782.759, 1801.319 779.694, 1810.838 776.630, 1820.357 773.565, 1829.876 770.500, 1839.395 767.435, 1848.913 764.371, 1858.432 761.306, 1867.951 758.241, 1877.470 755.177, 1886.989 752.112, 1896.507 749.047, 1906.026 745.983, 1915.545 742.918, 1925.064 739.853, 1934.583 736.788, 1944.101 733.724, 1953.620 730.659, 1963.139 727.594, 1972.658 724.530, 1982.177 721.998, 1990.039 717.374, 1998.906 712.750, 2007.773 708.126, 2016.640 703.502, 2025.506 698.879, 2034.373 694.530, 2042.712 689.069, 2051.089 683.608, 2059.466 678.147, 2067.844 672.686, 2076.221 667.225, 2084.598 661.764, 2092.975 656.303, 2101.353 650.842, 2109.730 645.381, 2118.107 640.667, 2125.339 " />
            <path fill="none" stroke-width="3.0" stroke-linecap="butt" stroke-opacity="1.0" stroke="rgb(0, 0, 0)" stroke-linejoin="round" d=" M 2614.418, 1143.109 2611.670, 1133.494 2608.921, 1123.879 2606.172, 1114.264 2603.423, 1104.650 2600.674, 1095.035 2597.926, 1085.420 2595.177, 1075.805 2592.428, 1066.191 2589.679, 1056.576 2586.930, 1046.961 2584.181, 1037.346 2581.432, 1027.732 2578.684, 1018.117 2575.935, 1008.502 2573.186, 998.887 2570.437, 989.272 2567.688, 979.658 2564.939, 970.043 2562.190, 960.428 2559.442, 950.813 2556.693, 941.199 2553.944, 931.584 2550.627, 919.984 2549.128, 910.097 2547.629, 900.210 2546.129, 890.323 2544.630, 880.436 2543.131, 870.549 2541.631, 860.662 2540.132, 850.775 2538.632, 840.888 2537.133, 831.001 2535.634, 821.114 2534.134, 811.227 2532.635, 801.340 2531.135, 791.453 2529.636, 781.566 2529.176, 778.529 2526.995, 768.770 2524.815, 759.010 2522.634, 749.251 2520.454, 739.492 2518.273, 729.732 2516.093, 719.973 2513.913, 710.213 2511.732, 700.454 2509.552, 690.695 2507.372, 680.935 2505.191, 671.176 2503.011, 661.417 2500.830, 651.657 2498.650, 641.898 2496.469, 632.138 2494.289, 622.379 2492.109, 612.619 2489.928, 602.860 2487.748, 593.101 2485.567, 583.341 2483.387, 573.582 2481.207, 563.823 2479.026, 554.063 2476.846, 544.304 2474.666, 534.544 2472.485, 524.785 2470.305, 515.025 2468.124, 505.266 2465.944, 495.507 2463.763, 485.747 2461.583, 475.988 2459.403, 466.229 2457.222, 456.469 2455.042, 446.710 2452.862, 436.950 2450.681, 427.191 2448.501, 417.431 2446.320, 407.672 2444.140, 397.913 2441.959, 388.153 2439.779, 378.394 2437.599, 368.635 2435.418, 358.875 2433.238, 349.116 2431.057, 339.356 2428.877, 329.597 2426.697, 319.837 2424.516, 310.078 2422.336, 300.319 2420.156, 290.559 2417.975, 280.800 2415.795, 271.041 2413.614, 261.281 2411.434, 251.522 2409.253, 241.762 2407.073, 232.003 2404.893, 222.244 2402.677, 212.329 2402.053, 202.348 2401.429, 192.368 2400.805, 182.387 2400.181, 172.407 2399.556, 162.427 2398.932, 152.446 2398.308, 142.465 2397.684, 132.485 2397.060, 122.504 2396.436, 112.524 2395.811, 102.543 2395.187, 92.563 2394.563, 82.583 2393.939, 72.602 2393.314, 62.621 2392.690, 52.641 2392.197, 44.745 2391.318, 34.784 2390.439, 24.823 2390.334, 23.627 2380.334, 23.627 2370.334, 23.627 2360.334, 23.627 2350.334, 23.627 2340.334, 23.627 2330.334, 23.627 2320.334, 23.627 2310.334, 23.627 2300.334, 23.627 2290.334, 23.627 2280.334, 23.627 2270.334, 23.627 2260.334, 23.627 2250.334, 23.627 2240.334, 23.627 2230.334, 23.627 2220.334, 23.627 2210.334, 23.627 2200.334, 23.627 2190.334, 23.627 2180.334, 23.627 2170.334, 23.627 2160.334, 23.627 2150.334, 23.627 2140.334, 23.627 2130.334, 23.627 2120.334, 23.627 2110.334, 23.627 2100.334, 23.627 2090.334, 23.627 2080.334, 23.627 2070.334, 23.627 2060.334, 23.627 2050.334, 23.627 2040.334, 23.627 2030.334, 23.627 2020.334, 23.627 2010.334, 23.627 2000.334, 23.627 1990.334, 23.627 1980.334, 23.627 1970.334, 23.627 1960.334, 23.627 1950.334, 23.627 1940.334, 23.627 1930.334, 23.627 1920.334, 23.627 1910.334, 23.627 1900.334, 23.627 1890.334, 23.627 1880.334, 23.627 1870.334, 23.627 1860.334, 23.627 1850.334, 23.627 1840.334, 23.627 1830.334, 23.627 1820.334, 23.627 1810.334, 23.627 1800.334, 23.627 1790.334, 23.627 1780.334, 23.627 1770.334, 23.627 1760.334, 23.627 1750.334, 23.627 1740.334, 23.627 1730.334, 23.627 1720.334, 23.627 1710.334, 23.627 1700.334, 23.627 1690.334, 23.627 1680.334, 23.627 1670.334, 23.627 1660.334, 23.627 1650.334, 23.627 1640.334, 23.627 1630.334, 23.627 1620.334, 23.627 1610.334, 23.627 1600.334, 23.627 1590.334, 23.627 1580.334, 23.627 1570.334, 23.627 1560.334, 23.627 1550.334, 23.627 1540.334, 23.627 1530.334, 23.627 1520.334, 23.627 1510.334, 23.627 1500.334, 23.627 1490.334, 23.627 1480.334, 23.627 1470.334, 23.627 1460.334, 23.627 1450.334, 23.627 1440.334, 23.627 1430.334, 23.627 1420.334, 23.627 1406.542, 23.627 1396.542, 23.627 1386.542, 23.627 1376.542, 23.627 1370.193, 23.627 " />
            <path fill="none" stroke-width="3.0" stroke-linecap="butt" stroke-opacity="1.0" stroke="rgb(0, 0, 0)" stroke-linejoin="round" d=" M 1829.741, 1211.555 1832.362, 1211.950 1834.960, 1212.474 1837.528, 1213.128 1840.060, 1213.910 1842.551, 1214.816 " />
            <path fill="none" stroke-width="3.0" stroke-linecap="butt" stroke-opacity="1.0" stroke="rgb(0, 0, 0)" stroke-linejoin="round" d=" M 1801.273, 1312.739 1798.885, 1311.589 1796.557, 1310.322 1794.296, 1308.940 " />
            <path fill="none" stroke-width="3.0" stroke-linecap="butt" stroke-opacity="1.0" stroke="rgb(0, 0, 0)" stroke-linejoin="round" d=" M 1827.104, 1211.291 1829.741, 1211.555 " />
            <path fill="none" stroke-width="3.0" stroke-linecap="butt" stroke-opacity="1.0" stroke="rgb(0, 0, 0)" stroke-linejoin="round" d=" M 1787.964, 1224.442 1789.994, 1222.738 1792.106, 1221.138 1794.296, 1219.645 1796.557, 1218.262 1798.885, 1216.995 1801.273, 1215.846 1803.715, 1214.816 1806.205, 1213.910 1808.737, 1213.128 1811.305, 1212.474 1813.903, 1211.950 1816.524, 1211.555 1819.161, 1211.291 1821.808, 1211.158 1824.458, 1211.158 1827.104, 1211.291 " />
            <path fill="none" stroke-width="3.0" stroke-linecap="butt" stroke-opacity="1.0" stroke="rgb(0, 0, 0)" stroke-linejoin="round" d=" M 1794.296, 1308.940 1792.106, 1307.447 1789.994, 1305.847 1787.964, 1304.143 " />
            <path fill="none" stroke-width="3.0" stroke-linecap="butt" stroke-opacity="1.0" stroke="rgb(0, 0, 0)" stroke-linejoin="round" d=" M 993.405, 1204.242 991.031, 1213.957 988.657, 1223.671 986.283, 1233.385 983.910, 1243.099 981.536, 1252.813 979.162, 1262.527 976.788, 1272.241 974.414, 1281.956 972.040, 1291.670 969.666, 1301.384 967.292, 1311.098 964.919, 1320.812 962.545, 1330.526 960.171, 1340.240 957.797, 1349.955 955.423, 1359.669 953.049, 1369.383 950.675, 1379.097 948.301, 1388.811 945.928, 1398.525 943.554, 1408.240 941.180, 1417.954 939.840, 1423.435 935.038, 1432.207 930.236, 1440.978 925.434, 1449.750 920.632, 1458.521 915.830, 1467.293 911.028, 1476.064 906.226, 1484.836 901.424, 1493.607 896.622, 1502.379 891.820, 1511.151 887.018, 1519.922 882.216, 1528.694 877.414, 1537.465 872.612, 1546.237 867.810, 1555.009 865.706, 1558.852 862.360, 1568.275 859.013, 1577.699 855.667, 1587.122 852.321, 1596.546 848.974, 1605.969 845.628, 1615.393 842.282, 1624.816 838.935, 1634.240 835.589, 1643.663 832.242, 1653.087 828.896, 1662.510 825.550, 1671.934 822.203, 1681.357 818.857, 1690.781 815.511, 1700.204 813.406, 1706.131 " />
            <path fill="none" stroke-width="3.0" stroke-linecap="butt" stroke-opacity="1.0" stroke="rgb(0, 0, 0)" stroke-linejoin="round" d=" M 1779.218, 1234.352 1780.765, 1232.200 1782.417, 1230.128 1784.171, 1228.141 1786.021, 1226.244 1787.964, 1224.442 " />
            <path fill="none" stroke-width="3.0" stroke-linecap="butt" stroke-opacity="1.0" stroke="rgb(0, 0, 0)" stroke-linejoin="round" d=" M 1784.171, 1300.444 1782.417, 1298.457 1780.765, 1296.385 1779.218, 1294.233 1777.780, 1292.007 1776.455, 1289.712 1775.246, 1287.353 1774.156, 1284.938 1773.187, 1282.471 1772.344, 1279.958 " />
            <path fill="none" stroke-width="3.0" stroke-linecap="butt" stroke-opacity="1.0" stroke="rgb(0, 0, 0)" stroke-linejoin="round" d=" M 1770.246, 1269.584 1770.048, 1266.942 1769.982, 1264.292 1770.048, 1261.642 1770.246, 1259.000 1770.576, 1256.371 " />
            <path fill="none" stroke-width="3.0" stroke-linecap="butt" stroke-opacity="1.0" stroke="rgb(0, 0, 0)" stroke-linejoin="round" d=" M 1770.576, 1256.371 1771.036, 1253.761 " />
            <path fill="none" stroke-width="3.0" stroke-linecap="butt" stroke-opacity="1.0" stroke="rgb(0, 0, 0)" stroke-linejoin="round" d=" M 1771.036, 1253.761 1771.626, 1251.177 " />
            <path fill="none" stroke-width="3.0" stroke-linecap="butt" stroke-opacity="1.0" stroke="rgb(0, 0, 0)" stroke-linejoin="round" d=" M 1771.626, 1277.407 1771.036, 1274.823 1770.576, 1272.214 1770.246, 1269.584 " />
            <path fill="none" stroke-width="3.0" stroke-linecap="butt" stroke-opacity="1.0" stroke="rgb(0, 0, 0)" stroke-linejoin="round" d=" M 1771.626, 1251.177 1772.344, 1248.626 1773.187, 1246.114 1774.156, 1243.647 1775.246, 1241.231 1776.455, 1238.873 1777.780, 1236.578 1779.218, 1234.352 " />
            <path fill="none" stroke-width="3.0" stroke-linecap="butt" stroke-opacity="1.0" stroke="rgb(0, 0, 0)" stroke-linejoin="round" d=" M 1276.282, 207.811 1274.653, 217.677 1273.024, 227.543 1271.395, 237.410 1269.766, 247.276 1268.136, 257.143 1266.507, 267.009 1264.878, 276.875 1263.249, 286.742 1261.620, 296.608 1259.990, 306.475 1258.361, 316.341 1256.732, 326.208 1255.103, 336.074 1253.474, 345.940 1251.845, 355.807 1250.215, 365.673 1248.586, 375.539 1248.229, 377.700 1246.327, 387.518 1244.424, 397.335 1242.522, 407.153 1240.619, 416.970 1238.717, 426.787 1236.814, 436.604 1234.911, 446.422 1233.009, 456.239 1231.106, 466.057 1229.204, 475.874 1227.301, 485.691 1225.398, 495.509 1223.496, 505.326 1221.593, 515.143 1219.691, 524.961 1217.788, 534.778 1215.885, 544.595 1213.983, 554.413 1212.080, 564.230 1210.178, 574.047 1208.275, 583.865 1206.372, 593.682 1204.470, 603.499 1202.567, 613.317 1200.665, 623.134 1198.762, 632.951 1196.859, 642.769 1194.957, 652.586 1193.054, 662.403 1191.152, 672.221 1189.249, 682.038 1187.347, 691.855 1185.444, 701.673 1183.541, 711.490 1181.639, 721.307 1179.736, 731.125 1177.834, 740.942 1175.931, 750.759 1174.028, 760.577 1172.126, 770.394 1170.223, 780.211 1168.321, 790.029 1166.418, 799.846 1164.516, 809.663 1162.613, 819.481 1160.710, 829.298 1158.808, 839.115 1156.905, 848.933 1155.003, 858.750 1153.100, 868.567 1151.197, 878.385 1149.295, 888.202 1147.392, 898.020 1145.490, 907.837 1143.587, 917.654 1141.057, 930.709 1136.655, 939.688 1132.253, 948.667 1127.851, 957.646 1123.449, 966.625 1119.047, 975.604 1114.645, 984.583 1110.242, 993.562 1105.840, 1002.541 1101.438, 1011.520 1097.036, 1020.499 1092.634, 1029.478 1088.232, 1038.457 1083.830, 1047.436 1079.428, 1056.415 1075.026, 1065.394 1070.624, 1074.373 1066.222, 1083.352 1064.499, 1086.865 " />
            <path fill="none" stroke-width="3.0" stroke-linecap="butt" stroke-opacity="1.0" stroke="rgb(0, 0, 0)" stroke-linejoin="round" d=" M 1370.193, 23.627 1366.328, 32.850 1362.464, 42.073 1361.121, 45.277 1356.494, 54.142 1351.866, 63.007 1347.239, 71.872 1342.612, 80.737 1337.984, 89.602 1333.357, 98.467 1328.730, 107.332 1324.102, 116.197 1319.475, 125.062 1314.848, 133.927 1310.220, 142.792 1305.593, 151.657 1300.966, 160.522 1296.339, 169.387 1291.711, 178.252 1287.084, 187.117 1282.457, 195.982 1277.829, 204.847 1276.282, 207.811 " />
            <path fill="none" stroke-width="3.0" stroke-linecap="butt" stroke-opacity="1.0" stroke="rgb(0, 0, 0)" stroke-linejoin="round" d=" M 3344.684, 3392.158 3339.150, 3383.828 3333.617, 3375.499 3328.084, 3367.169 3322.550, 3358.840 3317.017, 3350.510 3311.484, 3342.180 3305.950, 3333.851 3300.417, 3325.521 3294.884, 3317.192 3289.350, 3308.862 3283.817, 3300.533 3278.283, 3292.203 3272.750, 3283.873 3267.217, 3275.544 3261.683, 3267.214 3256.150, 3258.885 3250.617, 3250.555 3245.083, 3242.225 3243.227, 3239.431 3237.694, 3231.101 3232.160, 3222.772 3226.627, 3214.442 3221.094, 3206.113 3215.560, 3197.783 3213.211, 3194.247 3209.263, 3185.059 3205.315, 3175.871 3201.367, 3166.684 3197.419, 3157.496 3193.471, 3148.308 3189.523, 3139.121 3185.575, 3129.933 3181.627, 3120.745 3177.679, 3111.557 3173.731, 3102.370 3169.783, 3093.182 3165.835, 3083.994 3161.887, 3074.807 3157.940, 3065.619 3155.230, 3059.314 3151.282, 3050.127 3147.334, 3040.939 3143.386, 3031.751 3139.439, 3022.563 3135.491, 3013.376 3131.543, 3004.188 3127.595, 2995.000 3123.647, 2985.813 3119.699, 2976.625 3118.380, 2973.556 " />
            <path fill="none" stroke-width="3.0" stroke-linecap="butt" stroke-opacity="1.0" stroke="rgb(0, 0, 0)" stroke-linejoin="round" d=" M 3344.684, 3392.158 3339.150, 3383.828 3333.617, 3375.499 3328.084, 3367.169 3322.550, 3358.840 3317.017, 3350.510 3311.484, 3342.180 3305.950, 3333.851 3300.417, 3325.521 3294.884, 3317.192 3289.350, 3308.862 3283.817, 3300.533 3278.283, 3292.203 3272.750, 3283.873 3267.217, 3275.544 3261.683, 3267.214 3256.150, 3258.885 3250.617, 3250.555 3245.083, 3242.225 3243.227, 3239.431 3237.694, 3231.101 3232.160, 3222.772 3226.627, 3214.442 3221.094, 3206.113 3215.560, 3197.783 3213.211, 3194.247 3209.263, 3185.059 3205.315, 3175.871 3201.367, 3166.684 3197.419, 3157.496 3193.471, 3148.308 3189.523, 3139.121 3185.575, 3129.933 3181.627, 3120.745 3177.679, 3111.557 3173.731, 3102.370 3169.783, 3093.182 3165.835, 3083.994 3161.887, 3074.807 3157.940, 3065.619 3155.230, 3059.314 3151.282, 3050.127 3147.334, 3040.939 3143.386, 3031.751 3139.439, 3022.563 3135.491, 3013.376 3131.543, 3004.188 3127.595, 2995.000 3123.647, 2985.813 3119.699, 2976.625 3118.380, 2973.556 " />
            <path fill="none" stroke-width="3.0" stroke-linecap="butt" stroke-opacity="1.0" stroke="rgb(0, 0, 0)" stroke-linejoin="round" d=" M 211.052, 2684.950 210.379, 2694.927 209.707, 2704.904 209.034, 2714.882 208.361, 2724.859 207.688, 2734.836 207.016, 2744.814 206.343, 2754.791 206.294, 2755.516 205.621, 2765.493 204.949, 2775.471 204.276, 2785.448 203.603, 2795.425 202.930, 2805.403 202.258, 2815.380 201.585, 2825.357 200.912, 2835.335 200.240, 2845.312 199.567, 2855.289 198.894, 2865.267 198.221, 2875.244 197.549, 2885.221 197.159, 2891.003 " />
            <path fill="none" stroke-width="3.0" stroke-linecap="butt" stroke-opacity="1.0" stroke="rgb(0, 0, 0)" stroke-linejoin="round" d=" M 1858.026, 631.210 1855.507, 633.792 1852.863, 636.245 1850.099, 638.564 1847.224, 640.742 1844.243, 642.774 1841.166, 644.656 1837.998, 646.380 1834.748, 647.945 1831.424, 649.346 1828.034, 650.580 1824.587, 651.643 1821.092, 652.533 1817.556, 653.249 1813.989, 653.786 1810.400, 654.145 1806.797, 654.325 1803.190, 654.325 1799.588, 654.145 1795.998, 653.786 1792.432, 653.249 1788.896, 652.533 1785.400, 651.643 1781.953, 650.580 1778.564, 649.346 1775.240, 647.945 1771.990, 646.380 1768.822, 644.656 1765.744, 642.774 1762.764, 640.742 1759.888, 638.564 1757.125, 636.245 1754.481, 633.792 1751.962, 631.210 1749.576, 628.505 1747.326, 625.685 1745.221, 622.757 1743.264, 619.727 1741.460, 616.602 1739.815, 613.393 1738.331, 610.104 1737.013, 606.747 1735.864, 603.328 1734.887, 599.855 1734.085, 596.338 1733.458, 592.786 1733.010, 589.207 1732.740, 585.610 1732.650, 582.003 1732.740, 578.397 1733.010, 574.801 1733.458, 571.222 1734.085, 567.669 1734.887, 564.153 1735.864, 560.680 1737.013, 557.260 1738.331, 553.902 1739.815, 550.615 1741.460, 547.405 1743.264, 544.281 1745.221, 541.251 1747.326, 538.322 1749.576, 535.502 1751.962, 532.798 1754.481, 530.216 1757.125, 527.761 1759.888, 525.443 1762.764, 523.265 1765.744, 521.233 1768.822, 519.352 1771.990, 517.627 1775.240, 516.062 1778.564, 514.661 1781.953, 513.427 1785.400, 512.364 1788.896, 511.474 1792.432, 510.759 1795.998, 510.221 1799.588, 509.862 1803.190, 509.683 1806.797, 509.683 1810.400, 509.862 1813.989, 510.221 1817.556, 510.759 1821.092, 511.474 1824.587, 512.364 1828.034, 513.427 1831.424, 514.661 1834.748, 516.062 1837.998, 517.627 1841.166, 519.352 1844.243, 521.233 1847.224, 523.265 1850.099, 525.443 1852.863, 527.761 1855.507, 530.216 1858.026, 532.798 1860.412, 535.502 1862.661, 538.322 1864.767, 541.251 1866.724, 544.281 1868.527, 547.405 1870.173, 550.615 1871.657, 553.902 1872.974, 557.260 1874.123, 560.680 1875.100, 564.153 1875.903, 567.669 1876.529, 571.222 1876.978, 574.801 1877.247, 578.397 1877.337, 582.003 1877.247, 585.610 1876.978, 589.207 1876.529, 592.786 1875.903, 596.338 1875.100, 599.855 1874.123, 603.328 1872.974, 606.747 1871.657, 610.104 1870.173, 613.393 1868.527, 616.602 1866.724, 619.727 1864.767, 622.757 1862.661, 625.685 1860.412, 628.505 1858.026, 631.210 " />
            <path fill="none" stroke-width="3.0" stroke-linecap="butt" stroke-opacity="1.0" stroke="rgb(0, 0, 0)" stroke-linejoin="round" d=" M 145.519, 3519.382 148.155, 3519.382 142.698, 3519.382 145.519, 3519.382 " />
            <path fill="none" stroke-width="3.0" stroke-linecap="butt" stroke-opacity="1.0" stroke="rgb(0, 0, 0)" stroke-linejoin="round" d=" M 1247.031, 3519.382 1253.009, 3519.273 1243.009, 3519.363 1240.826, 3519.382 1247.031, 3519.382 " />
            <path fill="none" stroke-width="3.0" stroke-linecap="butt" stroke-opacity="1.0" stroke="rgb(0, 0, 0)" stroke-linejoin="round" d=" M 1247.031, 3519.382 1256.123, 3519.382 1266.123, 3519.382 1268.187, 3519.382 1278.187, 3519.382 1288.187, 3519.382 1298.187, 3519.382 1308.187, 3519.382 1318.187, 3519.382 1328.187, 3519.382 1338.187, 3519.382 1348.187, 3519.382 1358.187, 3519.382 1368.187, 3519.382 1378.187, 3519.382 1388.187, 3519.382 1398.187, 3519.382 1408.187, 3519.382 1418.187, 3519.382 1428.187, 3519.382 1438.187, 3519.382 1448.187, 3519.382 1458.187, 3519.382 1468.187, 3519.382 1478.187, 3519.382 1488.187, 3519.382 1498.187, 3519.382 1508.187, 3519.382 1518.187, 3519.382 1528.187, 3519.382 1538.187, 3519.382 1548.187, 3519.382 1558.187, 3519.382 1568.187, 3519.382 1578.187, 3519.382 1588.187, 3519.382 1598.187, 3519.382 1608.187, 3519.382 1618.187, 3519.382 1628.187, 3519.382 1638.187, 3519.382 1648.187, 3519.382 1658.187, 3519.382 1668.187, 3519.382 1678.187, 3519.382 1688.187, 3519.382 1698.187, 3519.382 1708.187, 3519.382 1718.187, 3519.382 1728.187, 3519.382 1738.187, 3519.382 1748.187, 3519.382 1758.187, 3519.382 1768.187, 3519.382 1778.187, 3519.382 1788.187, 3519.382 1798.187, 3519.382 1808.187, 3519.382 1818.187, 3519.382 1828.187, 3519.382 1838.187, 3519.382 1848.187, 3519.382 1858.187, 3519.382 1868.187, 3519.382 1878.187, 3519.382 1888.187, 3519.382 1898.187, 3519.382 1908.187, 3519.382 1918.187, 3519.382 1928.187, 3519.382 1938.187, 3519.382 1948.187, 3519.382 1958.187, 3519.382 1968.187, 3519.382 1978.187, 3519.382 1988.187, 3519.382 1998.187, 3519.382 2008.187, 3519.382 2018.187, 3519.382 2028.187, 3519.382 2038.187, 3519.382 2048.187, 3519.382 2058.187, 3519.382 2068.187, 3519.382 2078.187, 3519.382 2088.187, 3519.382 2098.187, 3519.382 2108.187, 3519.382 2125.125, 3519.382 2133.991, 3519.382 " />
            <path fill="none" stroke-width="3.0" stroke-linecap="butt" stroke-opacity="1.0" stroke="rgb(0, 0, 0)" stroke-linejoin="round" d=" M 2172.449, 3519.382 2167.058, 3519.382 2157.058, 3519.382 2152.307, 3519.382 2142.307, 3519.382 2133.991, 3519.382 2143.991, 3519.382 2146.077, 3519.382 2152.307, 3519.382 " />
            <path fill="none" stroke-width="3.0" stroke-linecap="butt" stroke-opacity="1.0" stroke="rgb(0, 0, 0)" stroke-linejoin="round" d=" M 2167.058, 3519.382 2172.449, 3519.382 2177.877, 3519.382 2167.877, 3519.382 2167.058, 3519.382 2177.058, 3519.382 2187.058, 3519.381 2197.058, 3519.381 2207.058, 3519.380 2217.058, 3519.379 2227.058, 3519.379 2237.058, 3519.378 2247.058, 3519.377 2257.058, 3519.377 2267.058, 3519.376 2277.058, 3519.375 2287.058, 3519.375 2297.058, 3519.374 2307.058, 3519.373 2317.058, 3519.373 2327.058, 3519.372 2337.058, 3519.371 2347.058, 3519.371 2357.058, 3519.370 2367.058, 3519.369 2377.058, 3519.369 2387.058, 3519.368 2397.058, 3519.368 2407.058, 3519.367 2417.058, 3519.366 2427.058, 3519.366 2437.058, 3519.365 2447.058, 3519.364 2457.058, 3519.364 2467.058, 3519.363 2477.058, 3519.362 2487.058, 3519.362 2497.058, 3519.361 2507.058, 3519.360 2517.058, 3519.360 2527.058, 3519.359 2537.058, 3519.358 2547.058, 3519.358 2557.058, 3519.357 2567.058, 3519.357 2577.058, 3519.356 2587.058, 3519.355 2597.058, 3519.355 2607.058, 3519.354 2617.058, 3519.353 2627.058, 3519.353 2637.058, 3519.352 2647.058, 3519.351 2657.058, 3519.351 2667.058, 3519.350 2677.058, 3519.349 2687.058, 3519.349 2697.058, 3519.348 2707.058, 3519.347 2714.953, 3519.347 2704.953, 3519.348 2694.953, 3519.348 2684.953, 3519.349 2674.953, 3519.350 2664.953, 3519.350 2654.953, 3519.351 2644.953, 3519.352 2634.953, 3519.352 2624.953, 3519.353 2614.953, 3519.354 2604.953, 3519.354 2594.953, 3519.355 2584.953, 3519.356 2574.953, 3519.356 2564.953, 3519.357 2554.953, 3519.358 2544.953, 3519.358 2534.953, 3519.359 2524.953, 3519.359 2514.953, 3519.360 2504.953, 3519.361 2494.953, 3519.361 2484.953, 3519.362 2474.953, 3519.363 2464.953, 3519.363 2454.953, 3519.364 2444.953, 3519.365 2434.953, 3519.365 2424.953, 3519.366 2414.953, 3519.367 2404.953, 3519.367 2394.953, 3519.368 2384.953, 3519.369 2374.953, 3519.369 2364.953, 3519.370 2354.953, 3519.371 2344.953, 3519.371 2334.953, 3519.372 2324.953, 3519.373 2314.953, 3519.373 2304.953, 3519.374 2294.953, 3519.375 2284.953, 3519.375 2274.953, 3519.376 2264.953, 3519.377 2254.953, 3519.377 2244.953, 3519.378 2234.953, 3519.379 2224.953, 3519.379 2214.953, 3519.380 2204.953, 3519.381 2194.953, 3519.381 2184.953, 3519.382 2177.877, 3519.382 " />
            <path fill="none" stroke-width="3.0" stroke-linecap="butt" stroke-opacity="1.0" stroke="rgb(0, 0, 0)" stroke-linejoin="round" d=" M 3118.380, 2973.556 3115.035, 2964.132 3111.690, 2954.708 3108.345, 2945.284 3105.000, 2935.860 3101.655, 2926.436 3098.311, 2917.012 3094.966, 2907.588 3091.621, 2898.164 3088.276, 2888.740 3084.931, 2879.316 3081.586, 2869.892 3078.241, 2860.468 3074.896, 2851.044 3071.551, 2841.620 3068.206, 2832.196 3064.861, 2822.772 3061.516, 2813.348 3058.171, 2803.924 3054.826, 2794.500 3051.481, 2785.076 3048.136, 2775.652 3044.792, 2766.228 3041.447, 2756.804 3039.938, 2752.553 3036.593, 2743.129 3033.248, 2733.705 3029.903, 2724.281 3026.558, 2714.857 3023.213, 2705.433 3019.868, 2696.009 3016.523, 2686.585 3013.178, 2677.161 3009.833, 2667.737 3006.488, 2658.313 3003.143, 2648.889 2999.515, 2638.667 2999.515, 2638.667 2999.515, 2638.668 3002.860, 2648.092 3006.205, 2657.516 3009.550, 2666.940 3012.895, 2676.364 3016.240, 2685.788 3019.585, 2695.212 3022.930, 2704.636 3026.275, 2714.060 3029.620, 2723.484 3032.965, 2732.908 3036.310, 2742.332 3039.655, 2751.756 3043.000, 2761.180 3046.344, 2770.604 3049.689, 2780.028 3053.034, 2789.452 3056.379, 2798.876 3059.724, 2808.300 3063.069, 2817.724 3066.414, 2827.148 3069.759, 2836.572 3073.104, 2845.996 3076.449, 2855.420 3079.794, 2864.844 3083.139, 2874.268 3086.484, 2883.692 3089.829, 2893.116 3093.174, 2902.540 3096.519, 2911.964 3099.864, 2921.388 3103.208, 2930.812 3106.553, 2940.236 3109.898, 2949.660 3113.243, 2959.084 3116.588, 2968.508 3118.380, 2973.556 " />
            <path fill="none" stroke-width="3.0" stroke-linecap="butt" stroke-opacity="1.0" stroke="rgb(0, 0, 0)" stroke-linejoin="round" d=" M 1064.499, 1086.865 1059.318, 1095.419 1054.138, 1103.972 1048.957, 1112.526 1043.776, 1121.079 1038.596, 1129.632 1033.415, 1138.186 1028.234, 1146.739 1023.054, 1155.292 1017.873, 1163.846 1012.692, 1172.399 1007.511, 1180.953 1002.331, 1189.506 997.150, 1198.059 993.405, 1204.242 " />
            <path fill="none" stroke-width="3.0" stroke-linecap="butt" stroke-opacity="1.0" stroke="rgb(0, 0, 0)" stroke-linejoin="round" d=" M 1772.344, 1279.958 1771.626, 1277.407 " />
            <path fill="none" stroke-width="3.0" stroke-linecap="butt" stroke-opacity="1.0" stroke="rgb(0, 0, 0)" stroke-linejoin="round" d=" M 1786.021, 1302.341 1784.171, 1300.444 " />
            <path fill="none" stroke-width="3.0" stroke-linecap="butt" stroke-opacity="1.0" stroke="rgb(0, 0, 0)" stroke-linejoin="round" d=" M 1787.964, 1304.143 1786.021, 1302.341 " />
            <path fill="none" stroke-width="3.0" stroke-linecap="butt" stroke-opacity="1.0" stroke="rgb(0, 0, 0)" stroke-linejoin="round" d=" M 1854.159, 1307.447 1851.969, 1308.940 " />
            <path fill="none" stroke-width="3.0" stroke-linecap="butt" stroke-opacity="1.0" stroke="rgb(0, 0, 0)" stroke-linejoin="round" d=" M 1856.271, 1305.847 1854.159, 1307.447 " />
            <path fill="none" stroke-width="3.0" stroke-linecap="butt" stroke-opacity="1.0" stroke="rgb(0, 0, 0)" stroke-linejoin="round" d=" M 1876.217, 1266.942 1876.019, 1269.584 " />
            <path fill="none" stroke-width="3.0" stroke-linecap="butt" stroke-opacity="1.0" stroke="rgb(0, 0, 0)" stroke-linejoin="round" d=" M 2172.449, 3519.382 2177.877, 3519.382 " />
            <path fill="none" stroke-width="3.0" stroke-linecap="butt" stroke-opacity="1.0" stroke="rgb(0, 0, 0)" stroke-linejoin="round" d=" M 2999.514, 2638.666 2996.008, 2629.301 2992.501, 2619.936 2988.994, 2610.571 2985.488, 2601.206 2981.981, 2591.841 2978.474, 2582.476 2974.968, 2573.111 2971.461, 2563.746 2967.954, 2554.381 2964.448, 2545.016 2960.941, 2535.651 2957.434, 2526.286 2953.927, 2516.921 2950.421, 2507.556 2946.914, 2498.191 2943.407, 2488.826 2939.901, 2479.461 2936.394, 2470.096 2932.887, 2460.731 2929.381, 2451.366 2925.874, 2442.001 2922.367, 2432.635 2918.861, 2423.271 2915.354, 2413.906 2911.847, 2404.541 2908.341, 2395.176 2904.834, 2385.811 2901.327, 2376.446 2897.821, 2367.081 2894.314, 2357.716 2890.807, 2348.351 2887.301, 2338.986 2883.794, 2329.621 2880.287, 2320.256 2876.781, 2310.891 2873.274, 2301.526 2869.767, 2292.161 2867.127, 2285.109 " />
            <path fill="none" stroke-width="3.0" stroke-linecap="butt" stroke-opacity="1.0" stroke="rgb(0, 0, 0)" stroke-linejoin="round" d=" M 3118.380, 2973.556 3115.035, 2964.132 3111.690, 2954.708 3108.345, 2945.284 3105.000, 2935.860 3101.655, 2926.436 3098.311, 2917.012 3094.966, 2907.588 3091.621, 2898.164 3088.276, 2888.740 3084.931, 2879.316 3081.586, 2869.892 3078.241, 2860.468 3074.896, 2851.044 3071.551, 2841.620 3068.206, 2832.196 3064.861, 2822.772 3061.516, 2813.348 3058.171, 2803.924 3054.826, 2794.500 3051.481, 2785.076 3048.136, 2775.652 3044.792, 2766.228 3041.447, 2756.804 3038.102, 2747.380 3034.757, 2737.956 3031.412, 2728.533 3028.067, 2719.109 3024.722, 2709.685 3021.377, 2700.261 3018.032, 2690.837 3014.687, 2681.413 3011.342, 2671.989 3007.997, 2662.565 3004.652, 2653.141 3001.307, 2643.717 2999.514, 2638.666 " />
        </g>
    </g>
<g id="slice-labels"><text x="585.2688333333333" y="606.2528333333332" text-anchor="middle" dominant-baseline="middle" font-family="Arial, sans-serif" font-size="59.056003449048085" font-weight="bold" fill="black" stroke="none" stroke-width="7.08672041388577" paint-order="stroke fill">Slice46 (Back)</text><text x="1709.0104999999999" y="606.2528333333332" text-anchor="middle" dominant-baseline="middle" font-family="Arial, sans-serif" font-size="59.056003449048085" font-weight="bold" fill="black" stroke="none" stroke-width="7.08672041388577" paint-order="stroke fill">Slice46 (Back)</text><text x="2832.7521666666667" y="606.2528333333332" text-anchor="middle" dominant-baseline="middle" font-family="Arial, sans-serif" font-size="59.056003449048085" font-weight="bold" fill="black" stroke="none" stroke-width="7.08672041388577" paint-order="stroke fill">Slice46 (Back)</text><text x="585.2688333333333" y="1771.5045" text-anchor="middle" dominant-baseline="middle" font-family="Arial, sans-serif" font-size="59.056003449048085" font-weight="bold" fill="black" stroke="none" stroke-width="7.08672041388577" paint-order="stroke fill">Slice46 (Back)</text><text x="1709.0104999999999" y="1771.5045" text-anchor="middle" dominant-baseline="middle" font-family="Arial, sans-serif" font-size="59.056003449048085" font-weight="bold" fill="black" stroke="none" stroke-width="7.08672041388577" paint-order="stroke fill">Slice46 (Back)</text><text x="2832.7521666666667" y="1771.5045" text-anchor="middle" dominant-baseline="middle" font-family="Arial, sans-serif" font-size="59.056003449048085" font-weight="bold" fill="black" stroke="none" stroke-width="7.08672041388577" paint-order="stroke fill">Slice46 (Back)</text><text x="585.2688333333333" y="2936.756166666667" text-anchor="middle" dominant-baseline="middle" font-family="Arial, sans-serif" font-size="59.056003449048085" font-weight="bold" fill="black" stroke="none" stroke-width="7.08672041388577" paint-order="stroke fill">Slice46 (Back)</text><text x="1709.0104999999999" y="2936.756166666667" text-anchor="middle" dominant-baseline="middle" font-family="Arial, sans-serif" font-size="59.056003449048085" font-weight="bold" fill="black" stroke="none" stroke-width="7.08672041388577" paint-order="stroke fill">Slice46 (Back)</text><text x="2832.7521666666667" y="2936.756166666667" text-anchor="middle" dominant-baseline="middle" font-family="Arial, sans-serif" font-size="59.056003449048085" font-weight="bold" fill="black" stroke="none" stroke-width="7.08672041388577" paint-order="stroke fill">Slice46 (Back)</text></g></svg>