<?xml version='1.0' encoding='utf-8'?>
<svg xmlns="http://www.w3.org/2000/svg" xmlns:inkscape="http://www.inkscape.org/namespaces/inkscape" version="1.1" width="522.8867002725601mm" height="223.77359056472778mm" viewBox="0.08091064299478035 0.004907888477646338 6175.83817871401 2643.0001842230445" preserveAspectRatio="none">
    <g id="ViewLayer_LineSet" inkscape:groupmode="lineset" inkscape:label="ViewLayer_LineSet">
        <g inkscape:groupmode="layer" id="strokes" inkscape:label="strokes">
            <path fill="none" stroke-width="3.0" stroke-linecap="butt" stroke-opacity="1.0" stroke="rgb(0, 0, 0)" stroke-linejoin="round" d=" M 5330.112, 23.752 5320.112, 23.755 5316.070, 23.756 " />
            <path fill="none" stroke-width="3.0" stroke-linecap="butt" stroke-opacity="1.0" stroke="rgb(0, 0, 0)" stroke-linejoin="round" d=" M 2186.995, 577.768 2184.476, 580.350 2181.832, 582.803 2179.069, 585.122 2176.193, 587.300 2173.213, 589.332 2170.135, 591.212 2166.967, 592.938 2163.717, 594.502 2160.393, 595.904 2157.004, 597.137 2153.557, 598.200 2150.061, 599.091 2146.526, 599.806 2142.959, 600.343 2139.370, 600.702 2135.767, 600.882 2132.160, 600.882 2128.557, 600.702 2124.968, 600.343 2121.402, 599.806 2117.866, 599.091 2114.370, 598.200 2110.923, 597.137 2107.534, 595.904 2104.210, 594.502 2100.960, 592.938 2097.792, 591.212 2094.714, 589.332 2091.734, 587.300 2088.859, 585.122 2086.095, 582.803 2083.451, 580.350 2080.933, 577.768 2078.546, 575.063 2076.297, 572.243 2074.191, 569.313 2072.234, 566.284 2070.431, 563.161 2068.785, 559.950 2067.302, 556.662 2065.984, 553.304 2064.835, 549.885 2063.858, 546.413 2063.055, 542.896 2062.429, 539.344 2061.980, 535.765 2061.711, 532.168 2061.621, 528.562 2061.711, 524.956 2061.980, 521.359 2062.429, 517.780 2063.055, 514.228 2063.858, 510.710 2064.835, 507.239 2065.984, 503.820 2067.302, 500.462 2068.785, 497.174 2070.431, 493.964 2072.234, 490.840 2074.191, 487.810 2076.297, 484.881 2078.546, 482.061 2080.933, 479.357 2083.451, 476.774 2086.095, 474.321 2088.859, 472.003 2091.734, 469.824 2094.714, 467.793 2097.792, 465.912 2100.960, 464.186 2104.210, 462.621 2107.534, 461.220 2110.923, 459.987 2114.370, 458.923 2117.866, 458.033 2121.402, 457.319 2124.968, 456.781 2128.557, 456.422 2132.160, 456.242 2135.767, 456.242 2139.370, 456.422 2142.959, 456.781 2146.526, 457.319 2150.061, 458.033 2153.557, 458.923 2157.004, 459.987 2160.393, 461.220 2163.717, 462.621 2166.967, 464.186 2170.135, 465.912 2173.213, 467.793 2176.193, 469.824 2179.069, 472.003 2181.832, 474.321 2184.476, 476.774 2186.995, 479.357 2189.381, 482.061 2191.630, 484.881 2193.736, 487.810 2195.693, 490.840 2197.497, 493.964 2199.142, 497.174 2200.626, 500.462 2201.943, 503.820 2203.092, 507.239 2204.069, 510.710 2204.872, 514.228 2205.498, 517.780 2205.947, 521.359 2206.216, 524.956 2206.306, 528.562 2206.216, 532.168 2205.947, 535.765 2205.498, 539.344 2204.872, 542.896 2204.069, 546.413 2203.092, 549.885 2201.943, 553.304 2200.626, 556.662 2199.142, 559.950 2197.497, 563.161 2195.693, 566.284 2193.736, 569.313 2191.630, 572.243 2189.381, 575.063 2186.995, 577.768 " />
            <path fill="none" stroke-width="3.0" stroke-linecap="butt" stroke-opacity="1.0" stroke="rgb(0, 0, 0)" stroke-linejoin="round" d=" M 1602.708, 24.825 1592.936, 24.828 1582.936, 24.831 1572.936, 24.834 1570.561, 24.835 1560.561, 24.838 1550.561, 24.841 1540.561, 24.843 1530.561, 24.846 1521.990, 24.849 1519.832, 24.850 " />
            <path fill="none" stroke-width="3.0" stroke-linecap="butt" stroke-opacity="1.0" stroke="rgb(0, 0, 0)" stroke-linejoin="round" d=" M 1521.990, 24.849 1525.052, 24.848 1527.976, 24.847 " />
            <path fill="none" stroke-width="3.0" stroke-linecap="butt" stroke-opacity="1.0" stroke="rgb(0, 0, 0)" stroke-linejoin="round" d=" M 1564.350, 24.837 1564.409, 24.837 1570.561, 24.835 1580.561, 24.832 1587.079, 24.830 1590.092, 24.829 1592.936, 24.828 1593.065, 24.828 1595.308, 24.828 " />
            <path fill="none" stroke-width="3.0" stroke-linecap="butt" stroke-opacity="1.0" stroke="rgb(0, 0, 0)" stroke-linejoin="round" d=" M 2254.208, 24.638 2244.208, 24.641 2234.208, 24.644 2224.208, 24.647 2214.208, 24.650 2204.208, 24.653 2194.208, 24.656 2184.208, 24.658 2174.208, 24.661 2164.208, 24.664 2154.208, 24.667 2144.208, 24.670 2134.208, 24.673 2124.208, 24.676 2114.208, 24.678 2104.208, 24.681 2094.208, 24.684 2084.208, 24.687 2074.208, 24.690 2064.208, 24.693 2054.208, 24.696 2044.209, 24.698 2034.209, 24.701 2024.209, 24.704 2014.209, 24.707 2004.209, 24.710 1994.209, 24.713 1984.209, 24.716 1974.209, 24.719 1964.209, 24.721 1954.209, 24.724 1944.209, 24.727 1934.209, 24.730 1924.209, 24.733 1914.209, 24.736 1904.209, 24.739 1894.209, 24.741 1884.209, 24.744 1874.209, 24.747 1864.209, 24.750 1854.209, 24.753 1844.209, 24.756 1834.209, 24.759 1824.209, 24.762 1814.209, 24.764 1804.209, 24.767 1794.209, 24.770 1784.209, 24.773 1770.788, 24.777 1760.788, 24.780 1750.788, 24.783 1740.788, 24.786 1730.788, 24.789 1720.788, 24.791 1710.788, 24.794 1700.788, 24.797 1690.788, 24.800 1680.788, 24.803 1670.788, 24.806 1660.788, 24.809 1650.788, 24.812 1640.788, 24.814 1630.788, 24.817 1620.788, 24.820 1610.788, 24.823 1604.366, 24.825 1603.256, 24.825 " />
            <path fill="none" stroke-width="3.0" stroke-linecap="butt" stroke-opacity="1.0" stroke="rgb(0, 0, 0)" stroke-linejoin="round" d=" M 1604.366, 24.825 1607.001, 24.824 1617.001, 24.821 1627.001, 24.818 1637.001, 24.815 1647.001, 24.812 1657.001, 24.810 1667.001, 24.807 1677.001, 24.804 1687.001, 24.801 1697.001, 24.798 1707.001, 24.795 1717.001, 24.792 1727.001, 24.790 1737.001, 24.787 1747.001, 24.784 1757.001, 24.781 1767.001, 24.778 1770.788, 24.777 1780.788, 24.774 1790.788, 24.771 1800.788, 24.768 1810.788, 24.765 1820.788, 24.763 1830.788, 24.760 1840.788, 24.757 1850.788, 24.754 1853.710, 24.753 1863.710, 24.750 1873.710, 24.747 1883.710, 24.745 1893.710, 24.742 1903.710, 24.739 1913.710, 24.736 1923.710, 24.733 1933.710, 24.730 1943.710, 24.727 1953.710, 24.724 1963.710, 24.721 1973.710, 24.719 1983.710, 24.716 1993.710, 24.713 2003.710, 24.710 2013.710, 24.707 2023.710, 24.704 2033.710, 24.701 2043.710, 24.698 2053.710, 24.696 2063.710, 24.693 2073.710, 24.690 2083.710, 24.687 2093.710, 24.684 2103.710, 24.681 2113.710, 24.678 2123.710, 24.676 2133.710, 24.673 2143.710, 24.670 2153.710, 24.667 2163.710, 24.664 2173.710, 24.661 2183.710, 24.658 2193.710, 24.656 2203.710, 24.653 2213.710, 24.650 2223.710, 24.647 2233.710, 24.644 2243.710, 24.641 2253.710, 24.638 2263.710, 24.635 2273.710, 24.632 2283.710, 24.630 2293.710, 24.627 2303.710, 24.624 2313.710, 24.621 2323.710, 24.618 2333.710, 24.615 2343.710, 24.612 2353.710, 24.609 2363.710, 24.607 2373.710, 24.604 2383.710, 24.601 2393.710, 24.598 2403.710, 24.595 2413.710, 24.592 2420.354, 24.590 " />
            <path fill="none" stroke-width="3.0" stroke-linecap="butt" stroke-opacity="1.0" stroke="rgb(0, 0, 0)" stroke-linejoin="round" d=" M 5985.092, 1921.755 5984.707, 1911.762 5984.322, 1901.770 5983.938, 1891.777 5983.553, 1881.785 5983.167, 1871.792 5982.783, 1861.799 5982.398, 1851.807 5982.013, 1841.814 5981.628, 1831.822 5981.243, 1821.829 5980.858, 1811.836 5980.473, 1801.844 5980.088, 1791.851 5979.704, 1781.859 5979.318, 1771.866 5978.934, 1761.873 5978.549, 1751.881 5978.164, 1741.888 5977.779, 1731.896 5977.394, 1721.903 5977.009, 1711.911 5976.624, 1701.918 5976.239, 1691.925 5975.854, 1681.933 5975.469, 1671.940 5975.084, 1661.948 5974.700, 1651.955 5974.315, 1641.962 5973.930, 1631.970 5973.545, 1621.977 5973.160, 1611.985 5972.775, 1601.992 5972.390, 1591.999 5972.005, 1582.007 5971.621, 1572.014 5971.235, 1562.022 5970.851, 1552.029 5970.466, 1542.036 5970.081, 1532.044 5969.696, 1522.051 5969.311, 1512.059 5968.926, 1502.066 5968.541, 1492.073 5968.156, 1482.081 5967.771, 1472.088 5967.386, 1462.096 5967.001, 1452.103 5966.617, 1442.111 5966.231, 1432.118 5965.847, 1422.125 5965.462, 1412.133 5965.077, 1402.140 5964.692, 1392.148 5964.307, 1382.155 5963.922, 1372.162 5963.537, 1362.170 5963.152, 1352.177 5962.768, 1342.185 5962.383, 1332.192 5961.908, 1319.877 5959.794, 1310.103 5957.681, 1300.328 5955.567, 1290.554 5953.454, 1280.780 5951.340, 1271.006 5949.226, 1261.232 5947.112, 1251.458 5944.999, 1241.684 5942.885, 1231.910 5940.771, 1222.136 5938.658, 1212.362 5936.544, 1202.588 5934.431, 1192.814 5932.317, 1183.040 5930.203, 1173.266 5928.089, 1163.491 5925.976, 1153.717 5923.862, 1143.943 5921.749, 1134.169 5919.635, 1124.395 5917.521, 1114.621 5915.408, 1104.847 5913.294, 1095.073 5911.180, 1085.299 5909.066, 1075.525 5906.953, 1065.751 5904.839, 1055.977 5902.726, 1046.203 5900.612, 1036.429 5898.498, 1026.655 5896.384, 1016.880 5894.271, 1007.106 5892.157, 997.332 5890.043, 987.558 5887.930, 977.784 5885.816, 968.010 5883.703, 958.236 5881.589, 948.462 5879.475, 938.688 5877.361, 928.914 5875.248, 919.140 5873.134, 909.366 5871.021, 899.592 5868.907, 889.818 5866.793, 880.044 5864.680, 870.270 5862.566, 860.495 5860.452, 850.721 5858.338, 840.947 5857.097, 835.205 5856.007, 825.264 5854.918, 815.324 5853.829, 805.383 5852.740, 795.443 5851.651, 785.502 5850.562, 775.562 5849.473, 765.621 5848.383, 755.681 5847.294, 745.740 5846.205, 735.800 5845.116, 725.859 5844.027, 715.919 5842.938, 705.978 5841.849, 696.038 5840.760, 686.097 5839.670, 676.156 5838.581, 666.216 5837.492, 656.276 5836.403, 646.335 5835.314, 636.395 5834.225, 626.454 5833.136, 616.513 5832.046, 606.573 5830.957, 596.632 5829.868, 586.692 5828.779, 576.751 5827.690, 566.811 5826.601, 556.870 5825.512, 546.930 5824.422, 536.990 5823.333, 527.049 5822.244, 517.108 5821.155, 507.168 5820.066, 497.227 5818.977, 487.287 5817.888, 477.346 5816.798, 467.406 5815.709, 457.465 5814.620, 447.525 5813.531, 437.584 5812.442, 427.644 5811.353, 417.703 5810.264, 407.763 5809.174, 397.822 5808.085, 387.882 5806.996, 377.941 5805.907, 368.001 5804.818, 358.060 5803.729, 348.120 5802.640, 338.179 5801.550, 328.239 5800.461, 318.298 5799.372, 308.358 5798.283, 298.417 5797.388, 290.250 " />
            <path fill="none" stroke-width="3.0" stroke-linecap="butt" stroke-opacity="1.0" stroke="rgb(0, 0, 0)" stroke-linejoin="round" d=" M 55.732, 2480.103 59.295, 2470.759 62.858, 2461.416 66.421, 2452.072 69.984, 2442.728 73.546, 2433.384 77.109, 2424.041 80.672, 2414.697 84.235, 2405.353 86.645, 2399.033 90.208, 2389.690 93.771, 2380.346 97.333, 2371.002 100.896, 2361.658 104.459, 2352.315 108.022, 2342.971 111.585, 2333.627 115.148, 2324.283 118.711, 2314.940 122.274, 2305.596 125.837, 2296.252 129.400, 2286.908 131.120, 2282.397 " />
            <path fill="none" stroke-width="3.0" stroke-linecap="butt" stroke-opacity="1.0" stroke="rgb(0, 0, 0)" stroke-linejoin="round" d=" M 6152.297, 2619.383 6147.708, 2610.498 6143.119, 2601.613 6140.217, 2595.994 6135.628, 2587.109 6131.039, 2578.225 6126.450, 2569.340 6122.250, 2561.210 6126.839, 2570.094 6131.428, 2578.979 6136.018, 2587.864 6140.606, 2596.749 6145.196, 2605.634 6149.785, 2614.518 6152.297, 2619.383 " />
            <path fill="none" stroke-width="3.0" stroke-linecap="butt" stroke-opacity="1.0" stroke="rgb(0, 0, 0)" stroke-linejoin="round" d=" M 554.957, 1144.323 550.235, 1153.138 545.514, 1161.953 540.792, 1170.769 536.070, 1179.584 531.349, 1188.399 529.774, 1191.339 525.242, 1200.254 520.711, 1209.168 516.179, 1218.082 511.648, 1226.997 507.116, 1235.911 502.585, 1244.825 498.053, 1253.740 493.522, 1262.654 488.990, 1271.568 484.458, 1280.483 479.927, 1289.397 475.395, 1298.311 470.864, 1307.225 466.332, 1316.140 461.801, 1325.054 457.269, 1333.969 453.058, 1342.253 451.796, 1352.173 450.535, 1362.093 449.274, 1372.013 448.012, 1381.933 446.751, 1391.854 445.489, 1401.774 444.228, 1411.694 442.967, 1421.614 441.705, 1431.534 440.444, 1441.454 439.182, 1451.374 437.921, 1461.295 436.660, 1471.215 435.398, 1481.135 434.137, 1491.055 432.875, 1500.975 431.614, 1510.895 430.353, 1520.815 429.091, 1530.735 427.830, 1540.656 426.568, 1550.576 425.307, 1560.496 424.046, 1570.416 422.784, 1580.336 421.523, 1590.256 420.261, 1600.176 419.000, 1610.096 417.739, 1620.017 416.477, 1629.937 415.216, 1639.857 413.955, 1649.777 412.693, 1659.697 411.432, 1669.617 410.170, 1679.537 408.909, 1689.457 407.648, 1699.378 406.386, 1709.298 405.125, 1719.218 403.863, 1729.138 402.602, 1739.058 401.341, 1748.978 400.057, 1759.074 395.427, 1767.937 390.796, 1776.801 386.166, 1785.664 381.536, 1794.528 376.905, 1803.391 372.275, 1812.255 367.645, 1821.118 363.015, 1829.982 358.384, 1838.845 353.754, 1847.708 349.124, 1856.572 344.494, 1865.435 339.863, 1874.299 335.233, 1883.162 330.603, 1892.026 325.972, 1900.889 321.342, 1909.753 316.712, 1918.616 312.082, 1927.479 307.451, 1936.343 302.821, 1945.206 298.191, 1954.070 293.561, 1962.933 288.930, 1971.797 284.300, 1980.660 279.670, 1989.523 275.039, 1998.387 270.409, 2007.250 265.779, 2016.114 261.149, 2024.977 256.518, 2033.841 251.888, 2042.704 247.258, 2051.568 242.628, 2060.431 237.997, 2069.294 233.367, 2078.158 228.737, 2087.021 224.106, 2095.885 219.476, 2104.748 214.846, 2113.612 210.216, 2122.475 205.585, 2131.338 200.955, 2140.202 196.325, 2149.065 191.694, 2157.929 187.064, 2166.792 182.434, 2175.656 177.804, 2184.519 173.173, 2193.383 168.543, 2202.246 163.913, 2211.109 159.852, 2218.883 " />
            <path fill="none" stroke-width="3.0" stroke-linecap="butt" stroke-opacity="1.0" stroke="rgb(0, 0, 0)" stroke-linejoin="round" d=" M 745.711, 45.305 744.380, 55.216 743.049, 65.127 741.703, 75.143 739.541, 84.906 737.378, 94.669 735.215, 104.433 733.053, 114.196 730.890, 123.959 728.728, 133.723 726.565, 143.486 724.402, 153.250 722.240, 163.013 720.077, 172.776 717.914, 182.540 715.752, 192.303 713.589, 202.066 711.427, 211.830 709.264, 221.593 707.101, 231.356 704.939, 241.120 702.776, 250.883 700.613, 260.646 698.451, 270.410 696.288, 280.173 694.126, 289.937 691.963, 299.700 689.800, 309.463 687.638, 319.227 685.475, 328.990 683.312, 338.753 681.150, 348.517 678.987, 358.280 676.825, 368.043 674.662, 377.807 672.499, 387.570 670.337, 397.333 668.174, 407.097 666.011, 416.860 663.849, 426.623 661.686, 436.387 659.523, 446.150 657.361, 455.913 655.198, 465.677 653.036, 475.440 650.873, 485.204 648.710, 494.967 646.548, 504.730 644.385, 514.494 642.222, 524.257 640.060, 534.020 637.897, 543.784 635.735, 553.547 633.572, 563.310 631.409, 573.074 629.247, 582.837 627.084, 592.600 624.922, 602.364 622.759, 612.127 620.596, 621.890 618.434, 631.654 616.271, 641.417 614.108, 651.180 611.946, 660.944 609.783, 670.707 607.620, 680.471 604.354, 695.219 603.004, 705.128 601.655, 715.036 600.306, 724.945 598.957, 734.854 597.608, 744.762 596.259, 754.671 595.860, 757.596 594.808, 767.540 593.757, 777.485 592.705, 787.429 591.653, 797.374 590.601, 807.318 589.549, 817.263 588.497, 827.208 587.446, 837.152 586.394, 847.097 585.342, 857.041 584.290, 866.986 583.238, 876.930 582.187, 886.875 581.135, 896.819 580.083, 906.764 579.031, 916.708 577.979, 926.653 576.927, 936.597 575.876, 946.542 574.824, 956.486 573.772, 966.431 572.720, 976.375 571.668, 986.320 570.617, 996.265 569.565, 1006.209 568.513, 1016.154 567.461, 1026.098 566.409, 1036.043 565.358, 1045.987 564.306, 1055.932 563.254, 1065.876 562.202, 1075.821 561.150, 1085.765 560.098, 1095.710 559.047, 1105.654 557.995, 1115.599 556.943, 1125.543 555.891, 1135.488 554.957, 1144.323 " />
            <path fill="none" stroke-width="3.0" stroke-linecap="butt" stroke-opacity="1.0" stroke="rgb(0, 0, 0)" stroke-linejoin="round" d=" M 4296.303, 2619.374 4306.303, 2619.374 4316.303, 2619.375 4326.303, 2619.375 4336.303, 2619.376 4346.303, 2619.376 4356.303, 2619.376 4366.303, 2619.377 4376.303, 2619.377 4386.303, 2619.377 4396.303, 2619.378 4406.303, 2619.378 4416.303, 2619.378 4426.303, 2619.379 4436.303, 2619.379 4446.303, 2619.379 4456.303, 2619.380 4466.303, 2619.380 4476.303, 2619.380 4486.303, 2619.381 4496.303, 2619.381 4506.303, 2619.381 4516.303, 2619.382 4526.303, 2619.382 4536.303, 2619.382 4539.111, 2619.383 4549.111, 2619.383 4559.111, 2619.383 4569.111, 2619.383 4579.111, 2619.383 4589.111, 2619.383 4599.111, 2619.383 4609.111, 2619.383 4619.111, 2619.383 4629.111, 2619.383 4639.111, 2619.383 4649.111, 2619.383 4659.111, 2619.383 4669.111, 2619.383 4679.111, 2619.383 4689.111, 2619.383 4699.111, 2619.383 4701.212, 2619.383 4711.212, 2619.383 4721.212, 2619.383 4731.212, 2619.383 4741.212, 2619.383 4751.212, 2619.383 4761.212, 2619.383 4771.212, 2619.383 4781.212, 2619.383 4791.212, 2619.383 4801.212, 2619.383 4811.212, 2619.383 4821.212, 2619.383 4831.212, 2619.383 4841.212, 2619.383 4851.212, 2619.383 4861.212, 2619.383 4871.212, 2619.383 4881.212, 2619.383 4891.212, 2619.383 4901.212, 2619.383 4911.212, 2619.383 4921.212, 2619.383 4931.212, 2619.383 4941.212, 2619.383 4951.212, 2619.383 4961.212, 2619.383 4971.212, 2619.383 4981.212, 2619.383 4991.212, 2619.383 5001.212, 2619.383 5011.212, 2619.383 5021.212, 2619.383 5031.212, 2619.383 5041.212, 2619.383 5051.212, 2619.383 5061.212, 2619.383 5071.212, 2619.383 5081.212, 2619.383 5091.212, 2619.383 5101.212, 2619.383 5111.212, 2619.383 5121.212, 2619.383 5131.212, 2619.383 5141.212, 2619.383 5151.212, 2619.383 5161.212, 2619.383 5171.212, 2619.383 5181.212, 2619.383 5191.212, 2619.383 5201.212, 2619.383 5211.212, 2619.383 5221.212, 2619.383 5231.212, 2619.383 5241.212, 2619.383 5251.212, 2619.383 5261.212, 2619.383 5271.212, 2619.383 5281.212, 2619.383 5291.212, 2619.383 5301.212, 2619.383 5311.212, 2619.383 5321.212, 2619.383 5331.212, 2619.383 5341.212, 2619.383 5351.212, 2619.383 5361.212, 2619.383 5371.212, 2619.383 5381.212, 2619.383 5391.212, 2619.383 5401.212, 2619.383 5411.212, 2619.383 5421.212, 2619.383 5431.212, 2619.383 5441.212, 2619.383 5451.212, 2619.383 5461.212, 2619.383 5471.212, 2619.383 5481.212, 2619.383 5491.212, 2619.383 5501.212, 2619.383 5511.212, 2619.383 5521.212, 2619.383 5531.212, 2619.383 5541.212, 2619.383 5551.212, 2619.383 5561.212, 2619.383 5571.212, 2619.383 5581.212, 2619.383 5591.212, 2619.383 5601.212, 2619.383 5611.212, 2619.383 5621.212, 2619.383 5631.212, 2619.383 5641.212, 2619.383 5651.212, 2619.383 5661.212, 2619.383 5671.212, 2619.383 5681.212, 2619.383 5691.212, 2619.383 5701.212, 2619.383 5711.212, 2619.383 5721.212, 2619.383 5731.212, 2619.383 5749.475, 2619.383 5759.475, 2619.383 5769.475, 2619.383 5779.475, 2619.383 5789.475, 2619.383 5799.475, 2619.383 5809.475, 2619.383 5819.475, 2619.383 5829.475, 2619.383 5839.475, 2619.383 5849.475, 2619.383 5859.475, 2619.383 5869.475, 2619.383 5879.475, 2619.383 5889.475, 2619.383 5899.475, 2619.383 5909.475, 2619.383 5919.475, 2619.383 5929.475, 2619.383 5939.475, 2619.383 5950.324, 2619.383 5960.324, 2619.383 5970.324, 2619.383 5980.324, 2619.383 5990.324, 2619.383 6000.324, 2619.383 6010.324, 2619.383 6020.324, 2619.383 6030.324, 2619.383 6038.088, 2619.383 6048.088, 2619.383 6058.088, 2619.383 6068.088, 2619.383 6078.088, 2619.383 6088.088, 2619.383 6098.088, 2619.383 6108.088, 2619.383 6118.088, 2619.383 6128.088, 2619.383 6138.088, 2619.383 6142.432, 2619.383 6152.297, 2619.383 " />
            <path fill="none" stroke-width="3.0" stroke-linecap="butt" stroke-opacity="1.0" stroke="rgb(0, 0, 0)" stroke-linejoin="round" d=" M 4295.061, 2619.383 4296.303, 2619.374 " />
            <path fill="none" stroke-width="3.0" stroke-linecap="butt" stroke-opacity="1.0" stroke="rgb(0, 0, 0)" stroke-linejoin="round" d=" M 4295.061, 2619.383 4293.765, 2609.468 4293.004, 2603.650 4292.635, 2600.827 4293.931, 2610.743 4295.061, 2619.383 " />
            <path fill="none" stroke-width="3.0" stroke-linecap="butt" stroke-opacity="1.0" stroke="rgb(0, 0, 0)" stroke-linejoin="round" d=" M 4140.489, 1875.377 4143.120, 1885.024 4145.750, 1894.672 4148.381, 1904.320 4151.012, 1913.968 4153.643, 1923.615 4156.273, 1933.263 4158.904, 1942.911 4161.535, 1952.559 4164.165, 1962.206 4166.796, 1971.854 4169.427, 1981.502 4172.057, 1991.150 4174.688, 2000.797 4177.319, 2010.445 4179.949, 2020.093 4182.580, 2029.741 4185.211, 2039.389 4187.841, 2049.036 4190.472, 2058.684 4193.103, 2068.332 4195.733, 2077.980 4198.364, 2087.627 4200.995, 2097.275 4203.625, 2106.923 4206.256, 2116.571 4208.887, 2126.218 4211.518, 2135.866 4214.148, 2145.514 4216.779, 2155.162 4219.410, 2164.810 4222.041, 2174.457 4224.671, 2184.105 4227.302, 2193.753 4229.933, 2203.401 4232.563, 2213.048 4235.194, 2222.696 4237.825, 2232.344 4238.954, 2236.486 " />
            <path fill="none" stroke-width="3.0" stroke-linecap="butt" stroke-opacity="1.0" stroke="rgb(0, 0, 0)" stroke-linejoin="round" d=" M 4238.954, 2236.486 4247.687, 2241.357 4256.420, 2246.229 4265.153, 2251.101 4273.886, 2255.973 4282.619, 2260.845 4285.620, 2262.519 " />
            <path fill="none" stroke-width="3.0" stroke-linecap="butt" stroke-opacity="1.0" stroke="rgb(0, 0, 0)" stroke-linejoin="round" d=" M 4651.991, 884.650 4650.444, 886.802 4648.792, 888.874 4647.039, 890.860 4645.188, 892.758 4643.246, 894.561 4641.215, 896.263 4639.103, 897.864 4636.913, 899.357 4634.652, 900.739 4632.325, 902.007 4629.937, 903.156 4627.495, 904.186 4625.004, 905.092 4622.472, 905.873 4619.904, 906.527 4617.306, 907.052 4614.686, 907.447 4612.049, 907.710 4609.402, 907.843 4606.752, 907.843 4604.105, 907.710 4601.468, 907.447 4598.848, 907.052 " />
            <path fill="none" stroke-width="3.0" stroke-linecap="butt" stroke-opacity="1.0" stroke="rgb(0, 0, 0)" stroke-linejoin="round" d=" M 4657.053, 875.355 4655.963, 877.771 4654.754, 880.129 4653.429, 882.424 4651.991, 884.650 " />
            <path fill="none" stroke-width="3.0" stroke-linecap="butt" stroke-opacity="1.0" stroke="rgb(0, 0, 0)" stroke-linejoin="round" d=" M 4660.962, 849.418 4661.161, 852.060 4661.227, 854.710 4661.161, 857.359 4660.962, 860.001 4660.633, 862.632 4660.173, 865.241 4659.583, 867.825 4658.865, 870.375 4658.021, 872.888 4657.053, 875.355 " />
            <path fill="none" stroke-width="3.0" stroke-linecap="butt" stroke-opacity="1.0" stroke="rgb(0, 0, 0)" stroke-linejoin="round" d=" M 3867.002, 494.323 3871.357, 503.325 3875.713, 512.327 3880.068, 521.329 3884.423, 530.330 3888.779, 539.332 3893.134, 548.334 3897.489, 557.336 3901.844, 566.337 3906.200, 575.339 3910.555, 584.341 3914.910, 593.343 3919.266, 602.344 3923.621, 611.346 3927.976, 620.348 3932.332, 629.349 3936.687, 638.351 3941.042, 647.353 3943.665, 652.773 3944.121, 662.763 3944.577, 672.753 3944.824, 678.147 3944.135, 688.124 3943.445, 698.100 3942.756, 708.076 3942.067, 718.052 3941.377, 728.028 3940.688, 738.005 3939.999, 747.981 3939.310, 757.957 3938.620, 767.933 3937.931, 777.910 3937.242, 787.886 3936.552, 797.862 3935.863, 807.838 3935.174, 817.814 3934.485, 827.791 3933.795, 837.767 3933.106, 847.743 3932.417, 857.719 3931.940, 864.618 3932.023, 874.617 3932.105, 884.617 3932.188, 894.617 3932.271, 904.616 3932.353, 914.616 3932.436, 924.615 3932.518, 934.615 3932.601, 944.615 3932.683, 954.615 3932.766, 964.614 3932.848, 974.614 3932.931, 984.614 3933.013, 994.613 3933.096, 1004.613 3933.178, 1014.612 3933.261, 1024.612 3933.343, 1034.612 3933.426, 1044.611 3933.509, 1054.611 3933.591, 1064.611 3933.674, 1074.610 3933.756, 1084.610 3933.839, 1094.610 3933.921, 1104.609 3934.004, 1114.609 3934.086, 1124.609 3934.169, 1134.608 3934.251, 1144.608 3934.334, 1154.608 3934.416, 1164.607 3934.499, 1174.607 3934.581, 1184.607 3934.664, 1194.606 3934.747, 1204.606 3934.829, 1214.606 3934.912, 1224.605 3934.994, 1234.605 3935.077, 1244.605 3935.159, 1254.604 3935.242, 1264.604 3935.324, 1274.604 3935.407, 1284.603 3935.489, 1294.603 3935.572, 1304.603 3935.654, 1314.602 3935.737, 1324.602 3935.819, 1334.602 3935.927, 1347.568 3938.802, 1357.145 3941.677, 1366.723 3944.553, 1376.300 3947.428, 1385.878 3950.304, 1395.456 3953.179, 1405.033 3956.055, 1414.611 3958.930, 1424.189 3961.806, 1433.766 3964.681, 1443.344 3967.556, 1452.922 3970.432, 1462.500 3973.307, 1472.077 3976.183, 1481.655 3979.058, 1491.233 3981.934, 1500.810 3984.809, 1510.388 3987.685, 1519.965 3990.560, 1529.543 3993.436, 1539.121 3996.311, 1548.698 3999.187, 1558.276 4002.062, 1567.854 4004.938, 1577.432 4007.813, 1587.009 4010.688, 1596.587 4013.564, 1606.165 4016.439, 1615.742 4019.148, 1624.765 4023.506, 1633.765 4027.864, 1642.766 4032.222, 1651.766 4036.580, 1660.767 4040.937, 1669.767 4045.295, 1678.768 4049.653, 1687.768 4054.011, 1696.769 4058.369, 1705.769 4062.727, 1714.770 4067.084, 1723.770 4071.442, 1732.771 4075.800, 1741.771 4080.158, 1750.772 4084.516, 1759.772 4088.874, 1768.773 4093.232, 1777.773 4097.589, 1786.774 4101.947, 1795.774 4106.305, 1804.775 4110.663, 1813.775 4115.021, 1822.776 4119.379, 1831.776 4123.736, 1840.777 4128.094, 1849.777 4132.452, 1858.778 4136.810, 1867.779 4140.489, 1875.377 " />
            <path fill="none" stroke-width="3.0" stroke-linecap="butt" stroke-opacity="1.0" stroke="rgb(0, 0, 0)" stroke-linejoin="round" d=" M 4660.633, 846.788 4660.962, 849.418 " />
            <path fill="none" stroke-width="3.0" stroke-linecap="butt" stroke-opacity="1.0" stroke="rgb(0, 0, 0)" stroke-linejoin="round" d=" M 4645.188, 816.661 4647.039, 818.559 4648.792, 820.546 4650.444, 822.617 4651.991, 824.769 4653.429, 826.995 4654.754, 829.291 4655.963, 831.649 4657.053, 834.065 4658.021, 836.532 4658.865, 839.044 4659.583, 841.594 4660.173, 844.178 4660.633, 846.788 " />
            <path fill="none" stroke-width="3.0" stroke-linecap="butt" stroke-opacity="1.0" stroke="rgb(0, 0, 0)" stroke-linejoin="round" d=" M 4598.848, 907.052 4596.250, 906.527 4593.682, 905.873 4591.149, 905.092 4588.659, 904.186 4586.217, 903.156 4583.830, 902.007 4581.502, 900.739 4579.241, 899.357 " />
            <path fill="none" stroke-width="3.0" stroke-linecap="butt" stroke-opacity="1.0" stroke="rgb(0, 0, 0)" stroke-linejoin="round" d=" M 4634.652, 808.680 4636.913, 810.062 4639.103, 811.555 4641.215, 813.156 4643.246, 814.859 4645.188, 816.661 " />
            <path fill="none" stroke-width="3.0" stroke-linecap="butt" stroke-opacity="1.0" stroke="rgb(0, 0, 0)" stroke-linejoin="round" d=" M 4627.495, 805.234 4629.937, 806.264 4632.325, 807.413 4634.652, 808.680 " />
            <path fill="none" stroke-width="3.0" stroke-linecap="butt" stroke-opacity="1.0" stroke="rgb(0, 0, 0)" stroke-linejoin="round" d=" M 5763.834, 23.627 5753.834, 23.630 5743.834, 23.633 5733.834, 23.636 5723.834, 23.639 5713.834, 23.642 5703.834, 23.645 5693.834, 23.647 5683.834, 23.650 5673.834, 23.653 5663.834, 23.656 5653.834, 23.659 5643.834, 23.662 5633.834, 23.665 5623.834, 23.667 5613.834, 23.670 5603.834, 23.673 5593.834, 23.676 5583.834, 23.679 5573.834, 23.682 5563.834, 23.685 5553.834, 23.688 5543.834, 23.690 5533.834, 23.693 5523.834, 23.696 5513.834, 23.699 5503.834, 23.702 5493.834, 23.705 5483.834, 23.708 5473.834, 23.711 5463.834, 23.714 5453.834, 23.716 5443.834, 23.719 5433.834, 23.722 5423.834, 23.725 5413.834, 23.728 5403.834, 23.731 5393.834, 23.734 5383.834, 23.737 5373.834, 23.740 5363.834, 23.742 5353.834, 23.745 5343.834, 23.748 5337.752, 23.750 5337.631, 23.750 " />
            <path fill="none" stroke-width="3.0" stroke-linecap="butt" stroke-opacity="1.0" stroke="rgb(0, 0, 0)" stroke-linejoin="round" d=" M 5337.427, 23.750 5336.960, 23.750 5336.585, 23.750 5336.174, 23.750 5335.662, 23.750 " />
            <path fill="none" stroke-width="3.0" stroke-linecap="butt" stroke-opacity="1.0" stroke="rgb(0, 0, 0)" stroke-linejoin="round" d=" M 4614.686, 801.973 4617.306, 802.368 4619.904, 802.893 4622.472, 803.547 4625.004, 804.328 4627.495, 805.234 " />
            <path fill="none" stroke-width="3.0" stroke-linecap="butt" stroke-opacity="1.0" stroke="rgb(0, 0, 0)" stroke-linejoin="round" d=" M 5337.631, 23.750 5335.438, 23.750 5335.246, 23.750 " />
            <path fill="none" stroke-width="3.0" stroke-linecap="butt" stroke-opacity="1.0" stroke="rgb(0, 0, 0)" stroke-linejoin="round" d=" M 5334.313, 23.751 5333.730, 23.751 5333.215, 23.751 " />
            <path fill="none" stroke-width="3.0" stroke-linecap="butt" stroke-opacity="1.0" stroke="rgb(0, 0, 0)" stroke-linejoin="round" d=" M 5333.215, 23.751 5332.816, 23.751 5332.147, 23.752 5331.287, 23.752 5331.112, 23.752 5330.112, 23.752 " />
            <path fill="none" stroke-width="3.0" stroke-linecap="butt" stroke-opacity="1.0" stroke="rgb(0, 0, 0)" stroke-linejoin="round" d=" M 4606.752, 801.576 4609.402, 801.576 4612.049, 801.709 4614.686, 801.973 " />
            <path fill="none" stroke-width="3.0" stroke-linecap="butt" stroke-opacity="1.0" stroke="rgb(0, 0, 0)" stroke-linejoin="round" d=" M 4567.362, 888.874 4565.709, 886.802 4564.163, 884.650 4562.725, 882.424 " />
            <path fill="none" stroke-width="3.0" stroke-linecap="butt" stroke-opacity="1.0" stroke="rgb(0, 0, 0)" stroke-linejoin="round" d=" M 4579.241, 899.357 4577.051, 897.864 4574.938, 896.263 4572.909, 894.561 4570.966, 892.758 4569.115, 890.860 " />
            <path fill="none" stroke-width="3.0" stroke-linecap="butt" stroke-opacity="1.0" stroke="rgb(0, 0, 0)" stroke-linejoin="round" d=" M 4558.132, 872.888 4557.289, 870.375 4556.571, 867.825 4555.981, 865.241 4555.521, 862.632 4555.191, 860.001 4554.993, 857.359 4554.927, 854.710 4554.993, 852.060 4555.191, 849.418 4555.521, 846.788 4555.981, 844.178 4556.571, 841.594 4557.289, 839.044 4558.132, 836.532 4559.101, 834.065 4560.190, 831.649 4561.400, 829.291 " />
            <path fill="none" stroke-width="3.0" stroke-linecap="butt" stroke-opacity="1.0" stroke="rgb(0, 0, 0)" stroke-linejoin="round" d=" M 4562.725, 882.424 4561.400, 880.129 4560.190, 877.771 4559.101, 875.355 4558.132, 872.888 " />
            <path fill="none" stroke-width="3.0" stroke-linecap="butt" stroke-opacity="1.0" stroke="rgb(0, 0, 0)" stroke-linejoin="round" d=" M 4561.400, 829.291 4562.725, 826.995 4564.163, 824.769 4565.709, 822.617 " />
            <path fill="none" stroke-width="3.0" stroke-linecap="butt" stroke-opacity="1.0" stroke="rgb(0, 0, 0)" stroke-linejoin="round" d=" M 4581.502, 808.680 4583.830, 807.413 4586.217, 806.264 4588.659, 805.234 4591.149, 804.328 4593.682, 803.547 " />
            <path fill="none" stroke-width="3.0" stroke-linecap="butt" stroke-opacity="1.0" stroke="rgb(0, 0, 0)" stroke-linejoin="round" d=" M 4579.241, 810.062 4581.502, 808.680 " />
            <path fill="none" stroke-width="3.0" stroke-linecap="butt" stroke-opacity="1.0" stroke="rgb(0, 0, 0)" stroke-linejoin="round" d=" M 4569.115, 818.559 4570.966, 816.661 4572.909, 814.859 4574.938, 813.156 4577.051, 811.555 4579.241, 810.062 " />
            <path fill="none" stroke-width="3.0" stroke-linecap="butt" stroke-opacity="1.0" stroke="rgb(0, 0, 0)" stroke-linejoin="round" d=" M 4567.362, 820.546 4569.115, 818.559 " />
            <path fill="none" stroke-width="3.0" stroke-linecap="butt" stroke-opacity="1.0" stroke="rgb(0, 0, 0)" stroke-linejoin="round" d=" M 4565.709, 822.617 4567.362, 820.546 " />
            <path fill="none" stroke-width="3.0" stroke-linecap="butt" stroke-opacity="1.0" stroke="rgb(0, 0, 0)" stroke-linejoin="round" d=" M 4593.682, 803.547 4596.250, 802.893 4598.848, 802.368 4601.468, 801.973 4604.105, 801.709 4606.752, 801.576 " />
            <path fill="none" stroke-width="3.0" stroke-linecap="butt" stroke-opacity="1.0" stroke="rgb(0, 0, 0)" stroke-linejoin="round" d=" M 3792.139, 24.195 3782.139, 24.198 3772.139, 24.201 3762.139, 24.204 3752.139, 24.207 3742.139, 24.210 3732.139, 24.213 3722.139, 24.215 3720.842, 24.216 3722.051, 34.142 3723.261, 44.069 3724.470, 53.996 3725.680, 63.922 3726.889, 73.849 3728.099, 83.775 3729.308, 93.702 3730.518, 103.628 3731.727, 113.555 3732.937, 123.482 3734.146, 133.408 3735.355, 143.335 3736.565, 153.261 3737.774, 163.188 3738.984, 173.115 3740.193, 183.041 3741.403, 192.968 3742.612, 202.895 3743.822, 212.821 3745.031, 222.748 3745.906, 229.925 3750.070, 239.017 3754.234, 248.108 3758.398, 257.200 3762.562, 266.292 3766.726, 275.384 3770.890, 284.475 3775.054, 293.567 3779.219, 302.659 3783.383, 311.751 3787.547, 320.843 3791.711, 329.934 3795.875, 339.026 3800.039, 348.118 3804.203, 357.209 3808.367, 366.301 3812.531, 375.393 3816.695, 384.485 3820.859, 393.577 3825.023, 402.668 3829.188, 411.760 3833.352, 420.852 3837.516, 429.944 3841.680, 439.036 3845.844, 448.127 3850.008, 457.219 3854.172, 466.311 3858.336, 475.403 3862.500, 484.494 3867.002, 494.323 " />
            <path fill="none" stroke-width="3.0" stroke-linecap="butt" stroke-opacity="1.0" stroke="rgb(0, 0, 0)" stroke-linejoin="round" d=" M 3792.969, 24.232 3792.716, 24.276 3792.476, 24.277 " />
            <path fill="none" stroke-width="3.0" stroke-linecap="butt" stroke-opacity="1.0" stroke="rgb(0, 0, 0)" stroke-linejoin="round" d=" M 3792.476, 24.277 3792.139, 24.195 " />
            <path fill="none" stroke-width="3.0" stroke-linecap="butt" stroke-opacity="1.0" stroke="rgb(0, 0, 0)" stroke-linejoin="round" d=" M 1715.203, 1173.209 1712.685, 1175.791 1710.040, 1178.244 1707.277, 1180.563 1704.402, 1182.741 1701.421, 1184.773 1698.344, 1186.654 1695.176, 1188.379 1691.926, 1189.944 1688.602, 1191.345 1685.212, 1192.578 1681.766, 1193.642 1678.270, 1194.532 1674.734, 1195.247 1671.168, 1195.784 1667.578, 1196.143 1663.976, 1196.324 1660.369, 1196.324 1656.766, 1196.143 1653.177, 1195.784 1649.610, 1195.247 1646.074, 1194.532 1642.579, 1193.642 1639.132, 1192.578 1635.742, 1191.345 1632.419, 1189.944 1629.169, 1188.379 1626.001, 1186.654 1622.923, 1184.773 1619.943, 1182.741 1617.067, 1180.563 1614.304, 1178.244 1611.660, 1175.791 1609.141, 1173.209 1606.755, 1170.504 1604.506, 1167.685 1602.400, 1164.755 1600.443, 1161.725 1598.639, 1158.602 1596.994, 1155.391 1595.510, 1152.104 1594.192, 1148.746 1593.044, 1145.326 1592.067, 1141.854 1591.264, 1138.338 1590.637, 1134.786 1590.189, 1131.206 1589.919, 1127.609 1589.830, 1124.003 1589.919, 1120.397 1590.189, 1116.800 1590.637, 1113.221 1591.264, 1109.668 1592.067, 1106.152 1593.044, 1102.680 1594.192, 1099.261 1595.510, 1095.903 1596.994, 1092.615 1598.639, 1089.405 1600.443, 1086.281 1602.400, 1083.252 1604.506, 1080.323 1606.755, 1077.502 1609.141, 1074.798 1611.660, 1072.215 1614.304, 1069.762 1617.067, 1067.444 1619.943, 1065.266 1622.923, 1063.234 1626.001, 1061.352 1629.169, 1059.627 1632.419, 1058.062 1635.742, 1056.661 1639.132, 1055.427 1642.579, 1054.365 1646.074, 1053.474 1649.610, 1052.759 1653.177, 1052.223 1656.766, 1051.863 1660.369, 1051.683 1663.976, 1051.683 1667.578, 1051.863 1671.168, 1052.223 1674.734, 1052.759 1678.270, 1053.474 1681.766, 1054.365 1685.212, 1055.427 1688.602, 1056.661 1691.926, 1058.062 1695.176, 1059.627 1698.344, 1061.352 1701.421, 1063.234 1704.402, 1065.266 1707.277, 1067.444 1710.040, 1069.762 1712.685, 1072.215 1715.203, 1074.798 1717.590, 1077.502 1719.839, 1080.323 1721.944, 1083.252 1723.901, 1086.281 1725.705, 1089.405 1727.351, 1092.615 1728.834, 1095.903 1730.152, 1099.261 1731.301, 1102.680 1732.278, 1106.152 1733.080, 1109.668 1733.707, 1113.221 1734.155, 1116.800 1734.425, 1120.397 1734.515, 1124.003 1734.425, 1127.609 1734.155, 1131.206 1733.707, 1134.786 1733.080, 1138.338 1732.278, 1141.854 1731.301, 1145.326 1730.152, 1148.746 1728.834, 1152.104 1727.351, 1155.391 1725.705, 1158.602 1723.901, 1161.725 1721.944, 1164.755 1719.839, 1167.685 1717.590, 1170.504 1715.203, 1173.209 " />
            <path fill="none" stroke-width="3.0" stroke-linecap="butt" stroke-opacity="1.0" stroke="rgb(0, 0, 0)" stroke-linejoin="round" d=" M 2315.987, 1651.563 2317.360, 1641.658 2318.734, 1631.752 2320.107, 1621.847 2321.480, 1611.942 2322.853, 1602.037 2324.227, 1592.131 2325.600, 1582.226 2326.973, 1572.321 2328.346, 1562.416 2329.719, 1552.510 2331.093, 1542.605 2332.466, 1532.700 2333.839, 1522.795 2335.212, 1512.889 2336.585, 1502.984 2337.958, 1493.079 2339.332, 1483.173 2340.705, 1473.268 2342.078, 1463.363 2343.451, 1453.458 2344.825, 1443.552 2346.198, 1433.647 2347.571, 1423.742 2348.944, 1413.837 2350.317, 1403.931 2351.691, 1394.026 2352.831, 1385.803 2355.833, 1376.265 2358.836, 1366.726 2361.839, 1357.188 2364.842, 1347.649 2367.845, 1338.111 2370.848, 1328.573 2373.851, 1319.034 2376.854, 1309.495 2379.856, 1299.957 2382.859, 1290.418 2385.862, 1280.880 2388.865, 1271.341 2391.868, 1261.803 2394.871, 1252.265 2397.873, 1242.726 2400.876, 1233.188 2403.879, 1223.649 2406.882, 1214.110 2409.885, 1204.572 2412.888, 1195.034 2415.890, 1185.495 2418.893, 1175.957 2421.896, 1166.418 2424.899, 1156.880 2427.902, 1147.341 2430.905, 1137.802 2433.907, 1128.264 2436.910, 1118.726 2439.913, 1109.187 2442.916, 1099.649 2445.919, 1090.110 2448.922, 1080.572 2451.925, 1071.033 2454.927, 1061.495 2457.930, 1051.956 2460.933, 1042.418 2463.936, 1032.879 2466.939, 1023.341 2469.942, 1013.802 2472.945, 1004.264 2475.947, 994.725 2478.950, 985.187 2481.953, 975.648 2484.956, 966.110 2487.959, 956.571 2490.962, 947.033 2493.964, 937.494 2496.967, 927.956 2499.970, 918.417 2502.973, 908.879 2505.976, 899.340 2508.979, 889.802 2511.981, 880.263 2514.984, 870.725 2517.987, 861.186 2520.990, 851.648 2523.993, 842.109 2527.746, 830.187 2529.318, 820.311 2529.585, 818.633 " />
            <path fill="none" stroke-width="3.0" stroke-linecap="butt" stroke-opacity="1.0" stroke="rgb(0, 0, 0)" stroke-linejoin="round" d=" M 2162.406, 2042.554 2166.062, 2033.246 2169.718, 2023.938 2173.374, 2014.631 2177.030, 2005.323 2180.686, 1996.015 2184.342, 1986.708 2187.998, 1977.400 2191.655, 1968.092 2195.311, 1958.785 2198.967, 1949.477 2202.623, 1940.169 2206.279, 1930.861 2209.935, 1921.554 2213.591, 1912.246 2217.247, 1902.938 2220.903, 1893.631 2224.559, 1884.323 2228.215, 1875.015 2231.871, 1865.708 2235.527, 1856.400 2239.183, 1847.092 2242.839, 1837.784 2246.495, 1828.477 2250.151, 1819.169 2253.808, 1809.861 2257.464, 1800.554 2261.120, 1791.246 2264.776, 1781.938 2268.432, 1772.631 2272.088, 1763.323 2275.744, 1754.015 2279.400, 1744.708 2283.056, 1735.400 2286.712, 1726.092 2290.368, 1716.784 2294.024, 1707.477 2297.680, 1698.169 2301.336, 1688.861 2304.992, 1679.554 2308.648, 1670.246 2312.304, 1660.938 2315.987, 1651.563 " />
            <path fill="none" stroke-width="3.0" stroke-linecap="butt" stroke-opacity="1.0" stroke="rgb(0, 0, 0)" stroke-linejoin="round" d=" M 2529.585, 818.633 2531.498, 808.817 2533.411, 799.002 2535.324, 789.187 2535.942, 786.020 2537.173, 776.096 2538.405, 766.172 2539.636, 756.248 2540.868, 746.324 2542.100, 736.400 2543.331, 726.476 2544.562, 716.552 2545.794, 706.629 2547.026, 696.705 2548.257, 686.781 2549.489, 676.857 2550.720, 666.933 2551.952, 657.009 2553.183, 647.085 2554.415, 637.161 2555.646, 627.238 2556.878, 617.314 2558.110, 607.390 2559.341, 597.466 2560.573, 587.542 2561.804, 577.618 2563.036, 567.694 2564.267, 557.771 2565.499, 547.846 2566.730, 537.923 2567.962, 527.999 2569.193, 518.075 2570.425, 508.151 2571.656, 498.227 2572.888, 488.303 2574.120, 478.379 2575.351, 468.456 2576.583, 458.532 2577.814, 448.608 2579.046, 438.684 2580.277, 428.760 2581.509, 418.836 2582.740, 408.912 2583.972, 398.988 2585.203, 389.064 2586.646, 377.437 2588.875, 367.688 2591.104, 357.940 2593.333, 348.191 2595.561, 338.443 2597.790, 328.694 2600.019, 318.946 2602.247, 309.197 2604.476, 299.449 2606.705, 289.700 2608.933, 279.952 2609.745, 276.400 " />
            <path fill="none" stroke-width="3.0" stroke-linecap="butt" stroke-opacity="1.0" stroke="rgb(0, 0, 0)" stroke-linejoin="round" d=" M 2609.745, 276.400 2611.552, 266.564 2613.358, 256.729 2615.164, 246.893 2616.970, 237.057 2618.776, 227.222 2620.583, 217.386 2622.389, 207.551 2624.195, 197.715 2626.001, 187.880 2627.808, 178.044 2629.614, 168.209 2631.133, 159.937 2633.204, 150.154 2635.275, 140.371 2635.491, 139.348 2640.158, 130.503 2641.061, 128.792 2645.358, 119.762 2649.654, 110.732 2653.950, 101.702 2658.247, 92.672 2662.543, 83.642 2666.840, 74.612 2671.136, 65.582 2675.432, 56.552 2679.729, 47.522 2684.025, 38.492 2688.322, 29.462 2690.676, 24.513 " />
            <path fill="none" stroke-width="3.0" stroke-linecap="butt" stroke-opacity="1.0" stroke="rgb(0, 0, 0)" stroke-linejoin="round" d=" M 23.703, 2619.383 33.703, 2619.383 43.703, 2619.383 53.703, 2619.383 63.703, 2619.383 73.703, 2619.383 83.703, 2619.383 93.703, 2619.383 103.703, 2619.383 113.703, 2619.383 123.703, 2619.383 133.703, 2619.383 143.703, 2619.383 153.703, 2619.383 163.703, 2619.383 173.703, 2619.383 183.703, 2619.383 193.703, 2619.383 203.703, 2619.383 213.703, 2619.383 223.703, 2619.383 233.703, 2619.383 243.703, 2619.383 253.703, 2619.383 263.703, 2619.383 273.703, 2619.383 283.703, 2619.383 293.703, 2619.383 303.703, 2619.383 313.703, 2619.383 323.703, 2619.383 333.703, 2619.383 343.703, 2619.383 353.703, 2619.383 363.703, 2619.383 368.266, 2619.383 378.266, 2619.383 388.266, 2619.383 398.266, 2619.383 408.266, 2619.383 418.266, 2619.383 428.266, 2619.383 438.266, 2619.383 448.266, 2619.383 458.266, 2619.383 468.266, 2619.383 478.266, 2619.383 488.266, 2619.383 498.266, 2619.383 508.266, 2619.383 518.266, 2619.383 528.266, 2619.383 538.266, 2619.383 548.266, 2619.383 558.266, 2619.383 568.266, 2619.383 578.266, 2619.383 588.266, 2619.383 598.266, 2619.383 608.266, 2619.383 618.266, 2619.383 628.266, 2619.383 638.266, 2619.383 648.266, 2619.383 658.266, 2619.383 668.266, 2619.383 678.266, 2619.383 688.266, 2619.383 698.266, 2619.383 708.266, 2619.383 718.266, 2619.383 728.266, 2619.383 738.266, 2619.383 748.266, 2619.383 758.266, 2619.383 768.266, 2619.383 778.266, 2619.383 788.266, 2619.383 798.266, 2619.383 808.266, 2619.383 818.266, 2619.383 828.266, 2619.383 838.266, 2619.383 848.266, 2619.383 858.266, 2619.383 868.266, 2619.383 878.266, 2619.383 888.266, 2619.383 898.266, 2619.383 908.266, 2619.383 918.266, 2619.383 928.266, 2619.383 938.266, 2619.383 948.266, 2619.383 958.266, 2619.383 968.266, 2619.383 974.926, 2619.383 984.926, 2619.383 994.926, 2619.383 1004.926, 2619.383 1014.926, 2619.383 1024.926, 2619.383 1034.926, 2619.383 1044.926, 2619.383 1054.926, 2619.383 1064.926, 2619.383 1074.926, 2619.383 1084.926, 2619.383 1094.926, 2619.383 1104.926, 2619.383 1114.926, 2619.383 1124.926, 2619.383 1134.926, 2619.383 1144.926, 2619.383 1154.926, 2619.383 1164.926, 2619.383 1174.926, 2619.383 1184.926, 2619.383 1194.926, 2619.383 1204.926, 2619.383 1214.926, 2619.383 1224.926, 2619.383 1234.926, 2619.383 1244.926, 2619.383 1254.926, 2619.383 1264.926, 2619.383 1274.926, 2619.383 1284.926, 2619.383 1294.926, 2619.383 1304.926, 2619.383 1314.926, 2619.383 1324.926, 2619.383 1334.926, 2619.383 1344.926, 2619.383 1354.926, 2619.383 1364.926, 2619.383 1374.926, 2619.383 1384.926, 2619.383 1394.926, 2619.383 1403.206, 2619.383 1413.206, 2619.383 1423.206, 2619.383 1433.206, 2619.383 1443.206, 2619.383 1453.206, 2619.383 1463.206, 2619.383 1473.206, 2619.383 1476.938, 2619.383 1486.938, 2619.383 1496.938, 2619.383 1506.938, 2619.383 1516.938, 2619.383 1526.938, 2619.383 1536.938, 2619.383 1546.938, 2619.383 1556.938, 2619.383 1566.938, 2619.383 1576.938, 2619.383 1586.938, 2619.383 1596.938, 2619.383 1606.938, 2619.383 1616.938, 2619.383 1626.938, 2619.383 1636.938, 2619.383 1646.938, 2619.383 1656.938, 2619.383 1666.938, 2619.383 1676.938, 2619.383 1686.938, 2619.383 1696.938, 2619.383 1706.938, 2619.383 1716.938, 2619.383 1726.938, 2619.383 1739.493, 2619.383 1749.493, 2619.383 1759.493, 2619.383 1769.493, 2619.383 1779.493, 2619.383 1789.493, 2619.383 1799.493, 2619.383 1809.493, 2619.383 1819.493, 2619.383 1829.493, 2619.383 1839.493, 2619.383 1849.493, 2619.383 1859.493, 2619.383 1869.493, 2619.383 1879.493, 2619.383 1889.493, 2619.383 1899.493, 2619.383 1909.493, 2619.383 1919.493, 2619.383 1929.493, 2619.383 1939.493, 2619.383 1949.493, 2619.383 1959.493, 2619.383 1969.493, 2619.383 1979.493, 2619.383 1989.493, 2619.383 1999.493, 2619.383 2009.493, 2619.383 2019.493, 2619.383 2029.493, 2619.383 2037.511, 2619.383 2041.293, 2610.126 2045.076, 2600.869 2048.859, 2591.612 2052.642, 2582.356 2056.424, 2573.099 2058.976, 2566.854 2060.912, 2557.043 2062.847, 2547.232 2064.782, 2537.421 2066.718, 2527.610 2068.653, 2517.800 2070.589, 2507.989 2072.524, 2498.178 2074.459, 2488.367 2076.395, 2478.556 2078.330, 2468.745 2080.266, 2458.934 2082.201, 2449.123 2084.137, 2439.312 2086.072, 2429.501 2088.008, 2419.690 2089.943, 2409.879 2091.878, 2400.068 2093.814, 2390.258 2095.749, 2380.447 2097.685, 2370.636 2099.620, 2360.825 2101.555, 2351.014 2103.491, 2341.203 2105.426, 2331.392 2107.362, 2321.581 2109.297, 2311.770 2111.232, 2301.959 2113.168, 2292.148 2115.103, 2282.337 2117.039, 2272.527 2118.974, 2262.716 2120.910, 2252.905 2122.845, 2243.094 2124.781, 2233.283 2126.716, 2223.472 2128.651, 2213.661 2130.587, 2203.850 2132.522, 2194.039 2134.458, 2184.228 2136.393, 2174.417 2138.328, 2164.606 2140.264, 2154.796 2142.199, 2144.985 2144.135, 2135.174 2146.070, 2125.363 2148.005, 2115.552 2149.941, 2105.741 2151.876, 2095.930 2153.812, 2086.119 2155.747, 2076.308 2157.683, 2066.497 2159.618, 2056.686 2162.406, 2042.554 " />
            <path fill="none" stroke-width="3.0" stroke-linecap="butt" stroke-opacity="1.0" stroke="rgb(0, 0, 0)" stroke-linejoin="round" d=" M 55.732, 2480.103 53.491, 2489.849 51.250, 2499.594 49.009, 2509.340 46.768, 2519.086 44.526, 2528.831 42.285, 2538.577 40.044, 2548.323 37.803, 2558.068 35.562, 2567.814 33.321, 2577.559 31.080, 2587.305 28.838, 2597.051 26.597, 2606.796 24.356, 2616.542 23.703, 2619.383 " />
            <path fill="none" stroke-width="3.0" stroke-linecap="butt" stroke-opacity="1.0" stroke="rgb(0, 0, 0)" stroke-linejoin="round" d=" M 2690.676, 24.513 2680.676, 24.516 2670.676, 24.519 2660.676, 24.521 2650.676, 24.524 2640.676, 24.527 2630.676, 24.530 2620.676, 24.533 2610.676, 24.536 2600.676, 24.538 2590.676, 24.541 2580.676, 24.544 2570.676, 24.547 2560.676, 24.550 2550.676, 24.552 2540.676, 24.555 2529.375, 24.559 2527.640, 24.559 2517.640, 24.562 2507.640, 24.565 2497.640, 24.568 2487.640, 24.571 2477.640, 24.574 2467.640, 24.577 2457.640, 24.580 2447.640, 24.583 2437.640, 24.585 2427.640, 24.588 2420.354, 24.590 2410.354, 24.593 2400.354, 24.596 2390.354, 24.599 2380.354, 24.602 2370.354, 24.605 2360.354, 24.608 2350.354, 24.611 2340.354, 24.613 2330.354, 24.616 2320.354, 24.619 2310.354, 24.622 2300.354, 24.625 2290.354, 24.628 2280.354, 24.631 2270.354, 24.634 2264.996, 24.635 2254.996, 24.638 2254.208, 24.638 2244.208, 24.641 2236.657, 24.643 2226.657, 24.646 2216.657, 24.649 2215.713, 24.649 2205.713, 24.652 2195.713, 24.655 2185.713, 24.658 2175.713, 24.661 2165.713, 24.664 2155.713, 24.667 2148.103, 24.669 2138.103, 24.672 2128.103, 24.675 2118.555, 24.677 2108.555, 24.680 2098.555, 24.683 2088.555, 24.686 2087.679, 24.686 2085.975, 24.687 2075.975, 24.690 2065.975, 24.692 2055.975, 24.695 2045.975, 24.698 2035.975, 24.701 2025.975, 24.704 2015.975, 24.707 2005.975, 24.710 1995.975, 24.713 1985.975, 24.716 1975.975, 24.719 1965.975, 24.721 1955.975, 24.724 1945.975, 24.727 1935.975, 24.730 1925.975, 24.733 1915.975, 24.736 1905.975, 24.739 1895.975, 24.741 1885.975, 24.744 1883.041, 24.745 1873.041, 24.748 1863.041, 24.751 1853.041, 24.754 1843.041, 24.757 1833.041, 24.760 1823.041, 24.762 1813.041, 24.765 1812.163, 24.766 1802.163, 24.769 1792.163, 24.771 1782.163, 24.774 1772.163, 24.777 1762.163, 24.780 1752.163, 24.783 1742.163, 24.786 1732.163, 24.789 1722.163, 24.792 1712.163, 24.794 1710.879, 24.795 1700.879, 24.798 1690.879, 24.801 1680.879, 24.803 1670.879, 24.806 1660.879, 24.809 1650.879, 24.812 1640.879, 24.815 1630.879, 24.818 1626.723, 24.819 " />
            <path fill="none" stroke-width="3.0" stroke-linecap="butt" stroke-opacity="1.0" stroke="rgb(0, 0, 0)" stroke-linejoin="round" d=" M 1520.968, 24.953 1510.968, 24.954 1500.968, 24.956 1490.968, 24.958 1480.968, 24.959 1470.968, 24.960 1460.968, 24.962 1450.968, 24.964 1440.968, 24.965 1430.968, 24.967 1420.968, 24.968 1410.968, 24.970 1400.968, 24.971 1390.968, 24.973 1380.968, 24.974 1370.968, 24.976 1360.968, 24.978 1350.968, 24.979 1340.968, 24.980 1330.968, 24.982 1320.968, 24.984 1310.968, 24.985 1300.968, 24.987 1290.968, 24.988 1280.968, 24.990 1270.968, 24.991 1260.968, 24.993 1250.968, 24.994 1240.968, 24.996 1230.968, 24.997 1220.968, 24.999 1210.968, 25.000 1200.968, 25.002 1190.968, 25.003 1180.968, 25.005 1170.968, 25.007 1160.968, 25.008 1150.968, 25.010 1140.968, 25.011 1130.968, 25.013 1120.968, 25.014 1110.968, 25.016 1100.968, 25.017 1090.968, 25.019 1080.968, 25.021 1070.968, 25.022 1060.968, 25.023 1050.968, 25.025 1040.968, 25.027 1030.968, 25.028 1020.968, 25.030 1010.968, 25.031 1000.968, 25.033 990.968, 25.034 980.968, 25.036 970.968, 25.037 960.968, 25.039 950.968, 25.040 940.968, 25.042 930.968, 25.043 920.968, 25.045 910.968, 25.047 900.968, 25.048 890.968, 25.050 880.968, 25.051 870.968, 25.053 860.968, 25.054 850.968, 25.056 840.968, 25.057 830.968, 25.059 820.968, 25.060 810.968, 25.062 800.968, 25.063 790.968, 25.065 780.968, 25.066 770.968, 25.068 760.968, 25.070 750.371, 25.071 " />
            <path fill="none" stroke-width="3.0" stroke-linecap="butt" stroke-opacity="1.0" stroke="rgb(0, 0, 0)" stroke-linejoin="round" d=" M 1596.069, 24.828 1595.308, 24.828 1585.308, 24.831 1575.308, 24.833 1565.308, 24.836 1564.409, 24.837 1554.409, 24.840 1544.444, 24.842 1539.803, 24.844 1535.126, 24.845 1530.427, 24.847 1527.976, 24.847 1525.722, 24.848 1519.832, 24.850 1509.832, 24.853 1499.832, 24.855 1489.832, 24.858 1479.832, 24.861 1469.832, 24.864 1459.832, 24.867 1449.832, 24.870 1439.832, 24.873 1429.832, 24.875 1419.832, 24.878 1409.832, 24.881 1399.832, 24.884 1389.832, 24.887 1379.832, 24.890 1369.832, 24.893 1359.832, 24.896 1349.832, 24.899 1339.832, 24.902 1329.832, 24.904 1319.832, 24.907 1309.832, 24.910 1299.832, 24.913 1289.832, 24.916 1279.832, 24.919 1269.832, 24.922 1259.832, 24.925 1249.832, 24.927 1239.832, 24.930 1229.832, 24.933 1219.832, 24.936 1209.832, 24.939 1199.832, 24.942 1189.832, 24.945 1179.832, 24.948 1169.832, 24.950 1159.832, 24.953 1149.832, 24.956 1139.832, 24.959 1129.832, 24.962 1119.832, 24.965 1109.832, 24.968 1099.832, 24.970 1089.832, 24.973 1079.832, 24.976 1069.832, 24.979 1059.832, 24.982 1049.832, 24.985 1039.832, 24.988 1029.832, 24.991 1019.832, 24.994 1009.832, 24.997 999.832, 24.999 989.832, 25.002 979.832, 25.005 969.832, 25.008 959.832, 25.011 949.832, 25.014 939.832, 25.017 929.832, 25.020 919.832, 25.022 909.832, 25.025 899.832, 25.028 889.832, 25.031 879.832, 25.034 869.832, 25.037 859.832, 25.040 849.832, 25.042 839.832, 25.045 829.832, 25.048 819.832, 25.051 809.832, 25.054 799.832, 25.057 789.832, 25.060 779.832, 25.063 769.832, 25.066 759.832, 25.068 750.371, 25.071 " />
            <path fill="none" stroke-width="3.0" stroke-linecap="butt" stroke-opacity="1.0" stroke="rgb(0, 0, 0)" stroke-linejoin="round" d=" M 1525.722, 24.848 1525.715, 24.848 1520.968, 24.953 " />
            <path fill="none" stroke-width="3.0" stroke-linecap="butt" stroke-opacity="1.0" stroke="rgb(0, 0, 0)" stroke-linejoin="round" d=" M 2215.713, 24.649 2205.713, 24.652 2195.713, 24.655 2185.713, 24.658 2175.713, 24.661 2165.713, 24.664 2155.713, 24.667 2145.713, 24.669 2135.713, 24.672 2125.713, 24.675 2115.713, 24.678 2105.713, 24.681 2095.713, 24.684 2085.713, 24.687 2075.713, 24.689 2065.713, 24.692 2055.713, 24.695 2045.713, 24.698 2035.713, 24.701 2025.713, 24.704 2015.713, 24.707 2005.713, 24.710 1995.713, 24.712 1985.713, 24.715 1975.713, 24.718 1965.713, 24.721 1955.713, 24.724 1945.713, 24.727 1935.713, 24.730 1925.713, 24.733 1915.713, 24.735 1905.713, 24.738 1895.713, 24.741 1885.713, 24.744 1875.713, 24.747 1865.713, 24.750 1855.713, 24.753 1845.713, 24.756 1835.713, 24.759 1825.713, 24.761 1815.713, 24.764 1805.713, 24.767 1795.713, 24.770 1785.713, 24.773 1775.713, 24.776 1765.713, 24.779 1755.713, 24.781 1745.713, 24.784 1735.713, 24.787 1725.713, 24.790 1715.713, 24.793 1705.713, 24.796 1695.713, 24.799 1685.713, 24.802 1675.713, 24.804 1665.713, 24.807 1655.713, 24.810 1645.713, 24.813 1635.713, 24.816 1625.713, 24.819 1609.653, 24.823 1605.131, 24.825 1603.256, 24.825 1602.708, 24.825 1600.537, 24.826 1596.069, 24.828 1595.887, 24.828 1585.887, 24.831 1575.887, 24.833 1565.887, 24.836 1564.350, 24.837 1554.350, 24.840 1544.444, 24.842 " />
            <path fill="none" stroke-width="3.0" stroke-linecap="butt" stroke-opacity="1.0" stroke="rgb(0, 0, 0)" stroke-linejoin="round" d=" M 1626.723, 24.819 1626.316, 24.819 1625.722, 24.819 1625.218, 24.819 1623.115, 24.820 1623.091, 24.820 1622.637, 24.820 1621.512, 24.820 1621.454, 24.820 1618.420, 24.821 1615.666, 24.822 1614.087, 24.823 " />
            <path fill="none" stroke-width="3.0" stroke-linecap="butt" stroke-opacity="1.0" stroke="rgb(0, 0, 0)" stroke-linejoin="round" d=" M 1614.087, 24.823 1613.631, 24.823 1611.729, 24.823 1611.707, 24.823 1610.859, 24.823 1609.653, 24.823 " />
            <path fill="none" stroke-width="3.0" stroke-linecap="butt" stroke-opacity="1.0" stroke="rgb(0, 0, 0)" stroke-linejoin="round" d=" M 4238.954, 2236.486 4247.687, 2241.357 4256.420, 2246.229 4265.153, 2251.101 4268.872, 2253.176 4277.605, 2258.048 4285.620, 2262.519 " />
            <path fill="none" stroke-width="3.0" stroke-linecap="butt" stroke-opacity="1.0" stroke="rgb(0, 0, 0)" stroke-linejoin="round" d=" M 4238.954, 2236.486 4247.687, 2241.357 4256.420, 2246.229 4265.153, 2251.101 4268.872, 2253.176 4277.605, 2258.048 4285.620, 2262.519 " />
            <path fill="none" stroke-width="3.0" stroke-linecap="butt" stroke-opacity="1.0" stroke="rgb(0, 0, 0)" stroke-linejoin="round" d=" M 4292.635, 2600.827 4293.004, 2603.650 " />
            <path fill="none" stroke-width="3.0" stroke-linecap="butt" stroke-opacity="1.0" stroke="rgb(0, 0, 0)" stroke-linejoin="round" d=" M 4295.061, 2619.383 4305.061, 2619.383 4315.061, 2619.383 4325.061, 2619.383 4335.061, 2619.383 4345.061, 2619.383 4355.061, 2619.383 4365.061, 2619.383 4375.061, 2619.383 4385.061, 2619.383 4395.061, 2619.383 4405.061, 2619.383 4415.061, 2619.383 4425.061, 2619.383 4435.061, 2619.383 4445.061, 2619.383 4455.061, 2619.383 4465.061, 2619.383 4475.061, 2619.383 4485.061, 2619.383 4495.061, 2619.383 4505.061, 2619.383 4515.061, 2619.383 4525.061, 2619.383 4535.061, 2619.383 4545.061, 2619.383 4555.061, 2619.383 4565.061, 2619.383 4575.061, 2619.383 4585.061, 2619.383 4595.061, 2619.383 4605.061, 2619.383 4615.061, 2619.383 4625.061, 2619.383 4635.061, 2619.383 4645.061, 2619.383 4655.061, 2619.383 4665.061, 2619.383 4675.061, 2619.383 4685.061, 2619.383 4695.061, 2619.383 4705.061, 2619.383 4715.061, 2619.383 4725.061, 2619.383 4735.061, 2619.383 4745.061, 2619.383 4755.061, 2619.383 4765.061, 2619.383 4775.061, 2619.383 4785.061, 2619.383 4795.061, 2619.383 4805.061, 2619.383 4815.061, 2619.383 4825.061, 2619.383 4835.061, 2619.383 4845.061, 2619.383 4855.061, 2619.383 4865.061, 2619.383 4875.061, 2619.383 4885.061, 2619.383 4895.061, 2619.383 4905.061, 2619.383 4915.061, 2619.383 4925.061, 2619.383 4935.061, 2619.383 4945.061, 2619.383 4955.061, 2619.383 4965.061, 2619.383 4975.061, 2619.383 4985.061, 2619.383 4995.061, 2619.383 5005.061, 2619.383 5015.061, 2619.383 5025.061, 2619.383 5035.061, 2619.383 5045.061, 2619.383 5055.061, 2619.383 5065.061, 2619.383 5075.061, 2619.383 5085.061, 2619.383 5095.061, 2619.383 5105.061, 2619.383 5115.061, 2619.383 5125.061, 2619.383 5135.061, 2619.383 5145.061, 2619.383 5155.061, 2619.383 5165.061, 2619.383 5175.061, 2619.383 5185.061, 2619.383 5195.061, 2619.383 5205.061, 2619.383 5215.061, 2619.383 5225.061, 2619.383 5235.061, 2619.383 5245.061, 2619.383 5255.061, 2619.383 5265.061, 2619.383 5275.061, 2619.383 5285.061, 2619.383 5295.061, 2619.383 5305.061, 2619.383 5315.061, 2619.383 5325.061, 2619.383 5335.061, 2619.383 5345.061, 2619.383 5355.061, 2619.383 5365.061, 2619.383 5375.061, 2619.383 5385.061, 2619.383 5395.061, 2619.383 5405.061, 2619.383 5415.061, 2619.383 5425.061, 2619.383 5435.061, 2619.383 5445.061, 2619.383 5455.061, 2619.383 5465.061, 2619.383 5475.061, 2619.383 5485.061, 2619.383 5495.061, 2619.383 5505.061, 2619.383 5515.061, 2619.383 5525.061, 2619.383 5535.061, 2619.383 5545.061, 2619.383 5555.061, 2619.383 5565.061, 2619.383 5575.061, 2619.383 5585.061, 2619.383 5595.061, 2619.383 5605.061, 2619.383 5615.061, 2619.383 5625.061, 2619.383 5635.061, 2619.383 5645.061, 2619.383 5655.061, 2619.383 5665.061, 2619.383 5675.061, 2619.383 5685.061, 2619.383 5695.061, 2619.383 5705.061, 2619.383 5715.061, 2619.383 5725.061, 2619.383 5735.061, 2619.383 5745.061, 2619.383 5755.061, 2619.383 5765.061, 2619.383 5775.061, 2619.383 5785.061, 2619.383 5795.061, 2619.383 5805.061, 2619.383 5815.061, 2619.383 5825.061, 2619.383 5835.061, 2619.383 5845.061, 2619.383 5855.061, 2619.383 5865.061, 2619.383 5875.061, 2619.383 5885.061, 2619.383 5895.061, 2619.383 5905.061, 2619.383 5915.061, 2619.383 5925.061, 2619.383 5935.061, 2619.383 5945.061, 2619.383 5955.061, 2619.383 5965.061, 2619.383 5975.061, 2619.383 5985.061, 2619.383 5995.061, 2619.383 6005.061, 2619.383 6015.061, 2619.383 6025.061, 2619.383 6035.061, 2619.383 6045.061, 2619.383 6055.061, 2619.383 6065.061, 2619.383 6075.061, 2619.383 6085.061, 2619.383 6095.061, 2619.383 6105.061, 2619.383 6115.061, 2619.383 6125.061, 2619.383 6152.297, 2619.383 " />
            <path fill="none" stroke-width="3.0" stroke-linecap="butt" stroke-opacity="1.0" stroke="rgb(0, 0, 0)" stroke-linejoin="round" d=" M 1607.001, 24.824 1617.001, 24.821 1627.001, 24.818 1637.001, 24.815 1647.001, 24.812 1657.001, 24.810 1667.001, 24.807 1677.001, 24.804 1687.001, 24.801 1697.001, 24.798 1707.001, 24.795 1717.001, 24.792 1727.001, 24.790 1737.001, 24.787 1747.001, 24.784 1757.001, 24.781 1767.001, 24.778 1777.001, 24.775 1787.001, 24.772 1797.001, 24.770 1807.001, 24.767 1817.001, 24.764 1827.001, 24.761 1837.001, 24.758 1847.001, 24.755 1857.001, 24.752 1867.001, 24.750 1877.001, 24.747 1887.001, 24.744 1897.001, 24.741 1907.001, 24.738 1917.001, 24.735 1927.001, 24.732 1937.001, 24.729 1947.001, 24.726 1957.001, 24.724 1967.001, 24.721 1977.001, 24.718 1987.001, 24.715 1997.001, 24.712 2007.001, 24.709 2017.001, 24.706 2027.001, 24.703 2037.001, 24.701 2047.001, 24.698 2057.001, 24.695 2067.001, 24.692 2077.001, 24.689 2087.001, 24.686 2097.001, 24.683 2107.001, 24.680 2117.001, 24.678 2127.001, 24.675 2137.001, 24.672 2147.001, 24.669 2157.001, 24.666 2167.001, 24.663 2177.001, 24.660 2187.001, 24.657 2197.001, 24.655 2207.001, 24.652 2217.001, 24.649 2227.001, 24.646 2236.657, 24.643 " />
            <path fill="none" stroke-width="3.0" stroke-linecap="butt" stroke-opacity="1.0" stroke="rgb(0, 0, 0)" stroke-linejoin="round" d=" M 6038.997, 2385.146 6037.841, 2375.213 6036.686, 2365.280 6035.530, 2355.347 6034.375, 2345.414 6033.219, 2335.481 6032.064, 2325.548 6030.908, 2315.615 6029.753, 2305.682 6028.597, 2295.749 6027.442, 2285.816 6026.287, 2275.883 6025.131, 2265.950 6023.976, 2256.017 6022.820, 2246.084 6021.665, 2236.151 6021.354, 2233.483 6020.199, 2223.550 6019.043, 2213.617 6017.888, 2203.684 6016.732, 2193.751 6015.577, 2183.818 6014.421, 2173.885 6013.266, 2163.952 6012.110, 2154.019 6010.955, 2144.086 6009.800, 2134.153 6008.644, 2124.220 6007.489, 2114.287 6006.333, 2104.354 6005.178, 2094.421 6004.022, 2084.488 6002.867, 2074.555 6001.711, 2064.622 6000.556, 2054.689 5999.400, 2044.756 5998.245, 2034.823 5997.089, 2024.890 5995.934, 2014.957 5994.778, 2005.023 5993.623, 1995.091 5992.467, 1985.157 5991.312, 1975.224 5990.157, 1965.291 5989.001, 1955.358 5987.846, 1945.425 5986.690, 1935.492 5985.535, 1925.559 5985.092, 1921.755 " />
            <path fill="none" stroke-width="3.0" stroke-linecap="butt" stroke-opacity="1.0" stroke="rgb(0, 0, 0)" stroke-linejoin="round" d=" M 6021.354, 2233.483 6020.199, 2223.550 6019.043, 2213.617 6017.888, 2203.684 6016.732, 2193.751 6015.577, 2183.818 6014.421, 2173.885 6013.266, 2163.952 6012.110, 2154.019 6010.955, 2144.086 6009.800, 2134.153 6008.644, 2124.220 6007.489, 2114.287 6006.333, 2104.354 6005.178, 2094.421 6004.022, 2084.488 6002.867, 2074.555 6001.711, 2064.622 6000.556, 2054.689 5999.400, 2044.756 5998.245, 2034.823 5997.430, 2027.814 " />
            <path fill="none" stroke-width="3.0" stroke-linecap="butt" stroke-opacity="1.0" stroke="rgb(0, 0, 0)" stroke-linejoin="round" d=" M 6122.250, 2561.210 6116.879, 2552.775 6111.507, 2544.340 6106.136, 2535.905 6100.765, 2527.470 6095.393, 2519.035 6090.022, 2510.600 6084.650, 2502.165 6079.279, 2493.730 6078.136, 2491.934 6083.507, 2500.369 6088.878, 2508.804 6094.250, 2517.239 6099.621, 2525.674 6104.993, 2534.109 6110.364, 2542.544 6115.735, 2550.979 6121.107, 2559.414 6122.250, 2561.210 " />
            <path fill="none" stroke-width="3.0" stroke-linecap="butt" stroke-opacity="1.0" stroke="rgb(0, 0, 0)" stroke-linejoin="round" d=" M 6122.250, 2561.210 6116.879, 2552.775 6111.507, 2544.340 6106.136, 2535.905 6100.765, 2527.470 6095.393, 2519.035 6090.022, 2510.600 6088.505, 2508.219 6083.134, 2499.784 6078.136, 2491.934 " />
            <path fill="none" stroke-width="3.0" stroke-linecap="butt" stroke-opacity="1.0" stroke="rgb(0, 0, 0)" stroke-linejoin="round" d=" M 4140.489, 1875.377 4143.120, 1885.024 4145.750, 1894.672 4148.381, 1904.320 4151.012, 1913.968 4153.643, 1923.615 4156.273, 1933.263 4158.904, 1942.911 4161.535, 1952.559 4164.165, 1962.206 4166.796, 1971.854 4169.427, 1981.502 4172.057, 1991.150 4174.688, 2000.797 4177.319, 2010.445 4179.949, 2020.093 4182.053, 2027.807 4184.684, 2037.454 4187.314, 2047.102 4189.945, 2056.750 4192.576, 2066.398 4195.206, 2076.045 4197.837, 2085.693 4200.468, 2095.341 4203.098, 2104.989 4205.729, 2114.636 4208.360, 2124.284 4210.990, 2133.932 4213.621, 2143.580 4216.252, 2153.228 4218.882, 2162.875 4221.513, 2172.523 4224.144, 2182.171 4226.774, 2191.819 4229.405, 2201.466 4232.036, 2211.114 4234.667, 2220.762 4237.297, 2230.410 4238.954, 2236.486 " />
            <path fill="none" stroke-width="3.0" stroke-linecap="butt" stroke-opacity="1.0" stroke="rgb(0, 0, 0)" stroke-linejoin="round" d=" M 4182.053, 2027.807 4184.684, 2037.454 4187.314, 2047.102 4189.945, 2056.750 4192.576, 2066.398 4195.206, 2076.045 4197.837, 2085.693 4200.468, 2095.341 4203.098, 2104.989 4205.729, 2114.636 4208.360, 2124.284 4210.990, 2133.932 4213.621, 2143.580 4216.252, 2153.228 4218.882, 2162.875 4221.513, 2172.523 4224.144, 2182.171 4226.774, 2191.819 4229.405, 2201.466 4232.036, 2211.114 4234.667, 2220.762 4237.297, 2230.410 4238.954, 2236.486 " />
            <path fill="none" stroke-width="3.0" stroke-linecap="butt" stroke-opacity="1.0" stroke="rgb(0, 0, 0)" stroke-linejoin="round" d=" M 159.852, 2218.883 155.730, 2227.994 151.609, 2237.105 150.148, 2240.334 146.026, 2249.445 141.905, 2258.557 137.783, 2267.668 133.661, 2276.779 131.120, 2282.397 " />
            <path fill="none" stroke-width="3.0" stroke-linecap="butt" stroke-opacity="1.0" stroke="rgb(0, 0, 0)" stroke-linejoin="round" d=" M 55.732, 2480.103 59.295, 2470.759 62.858, 2461.416 66.421, 2452.072 69.984, 2442.728 73.547, 2433.384 77.109, 2424.041 80.672, 2414.697 84.235, 2405.353 87.798, 2396.009 91.361, 2386.666 94.924, 2377.322 98.487, 2367.978 102.050, 2358.634 105.613, 2349.291 109.175, 2339.947 112.738, 2330.603 116.301, 2321.259 119.864, 2311.916 123.427, 2302.572 126.990, 2293.228 131.120, 2282.397 " />
            <path fill="none" stroke-width="3.0" stroke-linecap="butt" stroke-opacity="1.0" stroke="rgb(0, 0, 0)" stroke-linejoin="round" d=" M 86.645, 2399.033 83.082, 2408.377 79.519, 2417.721 75.956, 2427.065 72.393, 2436.408 68.830, 2445.752 65.268, 2455.096 61.705, 2464.440 58.142, 2473.784 55.732, 2480.103 59.295, 2470.759 62.858, 2461.416 66.421, 2452.072 69.984, 2442.728 73.547, 2433.384 77.109, 2424.041 80.672, 2414.697 84.235, 2405.353 87.798, 2396.009 91.361, 2386.666 94.924, 2377.322 98.487, 2367.978 102.050, 2358.634 105.613, 2349.291 109.175, 2339.947 112.738, 2330.603 116.301, 2321.259 119.864, 2311.916 123.427, 2302.572 126.990, 2293.228 131.120, 2282.397 " />
            <path fill="none" stroke-width="3.0" stroke-linecap="butt" stroke-opacity="1.0" stroke="rgb(0, 0, 0)" stroke-linejoin="round" d=" M 6038.997, 2385.146 6037.841, 2375.213 6036.686, 2365.280 6035.530, 2355.347 6034.375, 2345.414 6033.219, 2335.481 6032.064, 2325.548 6030.908, 2315.615 6029.753, 2305.682 6028.597, 2295.749 6027.442, 2285.816 6026.287, 2275.883 6025.131, 2265.950 6023.976, 2256.017 6022.820, 2246.084 6021.665, 2236.151 6020.509, 2226.218 6019.354, 2216.285 6018.198, 2206.352 6017.042, 2196.419 6015.887, 2186.486 6014.732, 2176.553 6013.576, 2166.620 6012.421, 2156.687 6011.265, 2146.754 6010.110, 2136.821 6008.955, 2126.888 6007.799, 2116.955 6006.644, 2107.022 6005.488, 2097.089 6004.333, 2087.156 6003.177, 2077.223 6002.021, 2067.290 6000.866, 2057.357 5999.710, 2047.424 5998.555, 2037.491 5997.430, 2027.814 5996.274, 2017.881 5995.119, 2007.948 5993.963, 1998.015 5992.808, 1988.082 5991.652, 1978.149 5990.497, 1968.216 5989.341, 1958.283 5988.186, 1948.350 5987.030, 1938.417 5985.875, 1928.484 5985.092, 1921.755 " />
            <path fill="none" stroke-width="3.0" stroke-linecap="butt" stroke-opacity="1.0" stroke="rgb(0, 0, 0)" stroke-linejoin="round" d=" M 131.120, 2282.397 135.241, 2273.286 139.363, 2264.175 143.485, 2255.064 147.606, 2245.953 150.148, 2240.334 " />
            <path fill="none" stroke-width="3.0" stroke-linecap="butt" stroke-opacity="1.0" stroke="rgb(0, 0, 0)" stroke-linejoin="round" d=" M 159.852, 2218.883 155.730, 2227.994 151.609, 2237.105 147.487, 2246.216 143.365, 2255.327 139.244, 2264.439 135.122, 2273.550 131.120, 2282.397 " />
            <path fill="none" stroke-width="3.0" stroke-linecap="butt" stroke-opacity="1.0" stroke="rgb(0, 0, 0)" stroke-linejoin="round" d=" M 750.371, 25.071 748.127, 34.816 745.882, 44.561 745.711, 45.305 " />
            <path fill="none" stroke-width="3.0" stroke-linecap="butt" stroke-opacity="1.0" stroke="rgb(0, 0, 0)" stroke-linejoin="round" d=" M 1625.218, 24.819 1635.218, 24.816 1645.218, 24.814 1655.218, 24.811 1665.218, 24.808 1675.218, 24.805 1685.218, 24.802 1695.218, 24.799 1705.218, 24.796 1715.218, 24.793 1725.218, 24.791 1735.218, 24.788 1745.218, 24.785 1755.218, 24.782 1765.218, 24.779 1775.218, 24.776 1785.218, 24.773 1795.218, 24.771 1805.218, 24.768 1815.218, 24.765 1825.218, 24.762 1835.218, 24.759 1845.218, 24.756 1855.218, 24.753 1865.218, 24.750 1875.218, 24.748 1883.041, 24.745 " />
            <path fill="none" stroke-width="3.0" stroke-linecap="butt" stroke-opacity="1.0" stroke="rgb(0, 0, 0)" stroke-linejoin="round" d=" M 1613.631, 24.823 1615.666, 24.822 " />
            <path fill="none" stroke-width="3.0" stroke-linecap="butt" stroke-opacity="1.0" stroke="rgb(0, 0, 0)" stroke-linejoin="round" d=" M 2118.555, 24.677 2108.555, 24.680 2098.555, 24.683 2088.555, 24.686 2078.555, 24.689 2068.555, 24.692 2058.555, 24.695 2048.555, 24.698 2038.555, 24.700 2028.555, 24.703 2018.555, 24.706 2008.555, 24.709 1998.555, 24.712 1988.555, 24.715 1978.555, 24.718 1968.555, 24.720 1958.555, 24.723 1948.555, 24.726 1938.555, 24.729 1928.555, 24.732 1918.555, 24.735 1908.555, 24.738 1898.555, 24.740 1888.555, 24.743 1878.555, 24.746 1868.555, 24.749 1858.555, 24.752 1848.555, 24.755 1838.555, 24.758 1828.555, 24.761 1818.555, 24.763 1808.555, 24.766 1798.555, 24.769 1788.555, 24.772 1778.555, 24.775 1768.555, 24.778 1758.555, 24.781 1748.555, 24.784 1738.555, 24.787 1728.555, 24.789 1718.555, 24.792 1708.555, 24.795 1698.555, 24.798 1688.555, 24.801 1678.555, 24.804 1668.555, 24.807 1658.555, 24.810 1648.555, 24.812 1638.555, 24.815 1628.555, 24.818 1622.637, 24.820 " />
            <path fill="none" stroke-width="3.0" stroke-linecap="butt" stroke-opacity="1.0" stroke="rgb(0, 0, 0)" stroke-linejoin="round" d=" M 1625.722, 24.819 1635.722, 24.816 1645.722, 24.813 1655.722, 24.811 1665.722, 24.808 1675.722, 24.805 1685.722, 24.802 1695.722, 24.799 1705.722, 24.796 1715.722, 24.793 1725.722, 24.791 1735.722, 24.788 1745.722, 24.785 1755.722, 24.782 1765.722, 24.779 1775.722, 24.776 1785.722, 24.773 1795.722, 24.771 1805.722, 24.768 1812.163, 24.766 " />
            <path fill="none" stroke-width="3.0" stroke-linecap="butt" stroke-opacity="1.0" stroke="rgb(0, 0, 0)" stroke-linejoin="round" d=" M 2264.996, 24.635 2254.996, 24.638 2244.996, 24.641 2234.996, 24.644 2224.996, 24.646 2214.996, 24.649 2204.996, 24.652 2194.996, 24.655 2184.996, 24.658 2174.996, 24.661 2164.996, 24.664 2154.996, 24.667 2144.996, 24.669 2134.996, 24.672 2124.996, 24.675 2114.996, 24.678 2104.996, 24.681 2094.996, 24.684 2084.996, 24.687 2074.996, 24.690 2064.996, 24.692 2054.996, 24.695 2044.996, 24.698 2034.996, 24.701 2024.996, 24.704 2014.996, 24.707 2004.996, 24.710 1994.996, 24.713 1984.996, 24.716 1974.996, 24.718 1964.996, 24.721 1954.996, 24.724 1944.996, 24.727 1934.996, 24.730 1924.996, 24.733 1914.996, 24.736 1904.996, 24.739 1894.996, 24.741 1884.996, 24.744 1874.996, 24.747 1864.996, 24.750 1853.710, 24.753 1843.710, 24.756 1833.710, 24.759 1823.710, 24.762 1813.710, 24.765 1803.710, 24.768 1793.710, 24.770 1783.710, 24.773 1773.710, 24.776 1763.710, 24.779 1753.710, 24.782 1743.710, 24.785 1733.710, 24.788 1723.710, 24.791 1713.710, 24.793 1703.710, 24.796 1693.710, 24.799 1683.710, 24.802 1673.710, 24.805 1663.710, 24.808 1653.710, 24.811 1643.710, 24.813 1633.710, 24.816 1623.710, 24.819 1613.710, 24.822 1603.710, 24.825 1593.710, 24.828 1587.079, 24.830 " />
            <path fill="none" stroke-width="3.0" stroke-linecap="butt" stroke-opacity="1.0" stroke="rgb(0, 0, 0)" stroke-linejoin="round" d=" M 1623.115, 24.820 1633.115, 24.817 1643.115, 24.814 1653.115, 24.811 1663.115, 24.808 1673.115, 24.805 1683.115, 24.802 1693.115, 24.800 1703.115, 24.797 1713.115, 24.794 1723.115, 24.791 1733.115, 24.788 1743.115, 24.785 1753.115, 24.782 1763.115, 24.780 1773.115, 24.777 1783.115, 24.774 1793.115, 24.771 1803.115, 24.768 1813.115, 24.765 1823.115, 24.762 1833.115, 24.759 1843.115, 24.757 1853.115, 24.754 1863.115, 24.751 1873.115, 24.748 1883.115, 24.745 1893.115, 24.742 1903.115, 24.739 1913.115, 24.736 1923.115, 24.734 1933.115, 24.731 1943.115, 24.728 1953.115, 24.725 1963.115, 24.722 1973.115, 24.719 1983.115, 24.716 1993.115, 24.713 2003.115, 24.710 2013.115, 24.708 2023.115, 24.705 2033.115, 24.702 2043.115, 24.699 2053.115, 24.696 2063.115, 24.693 2073.115, 24.690 2085.975, 24.687 " />
            <path fill="none" stroke-width="3.0" stroke-linecap="butt" stroke-opacity="1.0" stroke="rgb(0, 0, 0)" stroke-linejoin="round" d=" M 1611.729, 24.823 1621.454, 24.820 " />
            <path fill="none" stroke-width="3.0" stroke-linecap="butt" stroke-opacity="1.0" stroke="rgb(0, 0, 0)" stroke-linejoin="round" d=" M 1621.512, 24.820 1611.707, 24.823 " />
            <path fill="none" stroke-width="3.0" stroke-linecap="butt" stroke-opacity="1.0" stroke="rgb(0, 0, 0)" stroke-linejoin="round" d=" M 2087.679, 24.686 2077.679, 24.689 2067.679, 24.692 2057.679, 24.695 2047.679, 24.698 2037.679, 24.701 2027.679, 24.703 2017.679, 24.706 2007.679, 24.709 1997.679, 24.712 1987.679, 24.715 1977.679, 24.718 1967.679, 24.721 1957.679, 24.724 1947.679, 24.727 1937.679, 24.729 1927.679, 24.732 1917.679, 24.735 1907.679, 24.738 1897.679, 24.741 1887.679, 24.744 1877.679, 24.747 1867.679, 24.750 1857.679, 24.752 1847.679, 24.755 1837.679, 24.758 1827.679, 24.761 1817.679, 24.764 1807.679, 24.767 1797.679, 24.770 1787.679, 24.772 1777.679, 24.775 1767.679, 24.778 1757.679, 24.781 1747.679, 24.784 1737.679, 24.787 1727.679, 24.790 1717.679, 24.792 1707.679, 24.795 1697.679, 24.798 1687.679, 24.801 1677.679, 24.804 1667.679, 24.807 1657.679, 24.810 1647.679, 24.813 1637.679, 24.816 1623.091, 24.820 " />
            <path fill="none" stroke-width="3.0" stroke-linecap="butt" stroke-opacity="1.0" stroke="rgb(0, 0, 0)" stroke-linejoin="round" d=" M 2148.103, 24.669 2138.103, 24.672 2128.103, 24.675 2118.103, 24.677 2108.103, 24.680 2098.103, 24.683 2088.103, 24.686 2078.103, 24.689 2068.103, 24.692 2058.103, 24.695 2048.103, 24.698 2038.103, 24.700 2028.103, 24.703 2018.103, 24.706 2008.103, 24.709 1998.103, 24.712 1988.103, 24.715 1978.103, 24.718 1968.103, 24.720 1958.103, 24.723 1948.103, 24.726 1938.103, 24.729 1928.103, 24.732 1918.103, 24.735 1908.103, 24.738 1898.103, 24.741 1888.103, 24.743 1878.103, 24.746 1868.103, 24.749 1858.103, 24.752 1848.103, 24.755 1838.103, 24.758 1828.103, 24.761 1818.103, 24.764 1808.103, 24.767 1798.103, 24.769 1788.103, 24.772 1778.103, 24.775 1768.103, 24.778 1758.103, 24.781 1748.103, 24.784 1738.103, 24.787 1728.103, 24.790 1718.103, 24.792 1708.103, 24.795 1698.103, 24.798 1688.103, 24.801 1678.103, 24.804 1668.103, 24.807 1658.103, 24.810 1648.103, 24.812 1638.103, 24.815 1628.103, 24.818 1618.103, 24.821 1610.859, 24.823 " />
            <path fill="none" stroke-width="3.0" stroke-linecap="butt" stroke-opacity="1.0" stroke="rgb(0, 0, 0)" stroke-linejoin="round" d=" M 1626.316, 24.819 1636.316, 24.816 1646.316, 24.813 1656.316, 24.811 1666.316, 24.808 1676.316, 24.805 1686.316, 24.802 1696.316, 24.799 1706.316, 24.796 1710.879, 24.795 " />
            <path fill="none" stroke-width="3.0" stroke-linecap="butt" stroke-opacity="1.0" stroke="rgb(0, 0, 0)" stroke-linejoin="round" d=" M 4285.620, 2262.519 4285.827, 2272.516 4286.034, 2282.514 4286.242, 2292.512 4286.449, 2302.510 4286.656, 2312.508 4286.864, 2322.506 4287.071, 2332.504 4287.278, 2342.501 4287.485, 2352.499 4287.693, 2362.497 4287.900, 2372.495 4288.107, 2382.493 4288.315, 2392.491 4288.522, 2402.488 4288.729, 2412.486 4288.937, 2422.484 4289.144, 2432.482 4289.352, 2442.480 4289.559, 2452.478 4289.766, 2462.476 4289.974, 2472.473 4290.181, 2482.471 4290.388, 2492.469 4290.596, 2502.467 4290.803, 2512.465 4291.010, 2522.463 4291.218, 2532.461 4291.425, 2542.458 4291.632, 2552.456 4291.840, 2562.454 4292.047, 2572.452 4292.254, 2582.450 4292.461, 2592.448 4292.635, 2600.827 " />
            <path fill="none" stroke-width="3.0" stroke-linecap="butt" stroke-opacity="1.0" stroke="rgb(0, 0, 0)" stroke-linejoin="round" d=" M 4569.115, 890.860 4567.362, 888.874 " />
            <path fill="none" stroke-width="3.0" stroke-linecap="butt" stroke-opacity="1.0" stroke="rgb(0, 0, 0)" stroke-linejoin="round" d=" M 5330.112, 23.752 5320.112, 23.755 5316.070, 23.756 5306.070, 23.759 5296.070, 23.762 5286.070, 23.766 5276.070, 23.769 5266.070, 23.772 5256.070, 23.775 5246.070, 23.778 5236.070, 23.781 5226.070, 23.784 5216.070, 23.788 5206.070, 23.791 5196.070, 23.794 5186.070, 23.797 5176.070, 23.800 5166.070, 23.803 5156.070, 23.806 5146.070, 23.809 5136.070, 23.812 5126.070, 23.816 5116.070, 23.819 5106.070, 23.822 5096.070, 23.825 5086.070, 23.828 5076.070, 23.831 5066.070, 23.834 5056.070, 23.837 5046.070, 23.841 5036.070, 23.844 5026.070, 23.847 5016.070, 23.850 5006.070, 23.853 4996.070, 23.856 4986.070, 23.859 4976.070, 23.862 4966.070, 23.865 4956.070, 23.869 4946.070, 23.872 4936.070, 23.875 4926.070, 23.878 4916.070, 23.881 4906.070, 23.884 4896.070, 23.887 4886.070, 23.890 4876.070, 23.894 4866.070, 23.897 4856.070, 23.900 4846.070, 23.903 4836.070, 23.906 4826.070, 23.909 4816.070, 23.912 4806.070, 23.916 4796.070, 23.919 4786.070, 23.922 4776.070, 23.925 4766.070, 23.928 4756.070, 23.931 4746.070, 23.934 4736.070, 23.937 4726.070, 23.940 4716.070, 23.944 4706.070, 23.947 4696.070, 23.950 4686.070, 23.953 4676.070, 23.956 4666.070, 23.959 4656.070, 23.962 4646.070, 23.965 4636.070, 23.969 4626.070, 23.972 4616.070, 23.975 4606.070, 23.978 4596.070, 23.981 4586.070, 23.984 4576.070, 23.987 4566.070, 23.990 4556.070, 23.993 4546.070, 23.997 4536.070, 24.000 4526.070, 24.003 4516.070, 24.006 4506.070, 24.009 4496.070, 24.012 4486.070, 24.015 4476.070, 24.019 4466.070, 24.022 4456.070, 24.025 4446.070, 24.028 4436.070, 24.031 4426.070, 24.034 4416.070, 24.037 4406.070, 24.040 4396.070, 24.043 4386.070, 24.047 4376.070, 24.050 4366.070, 24.053 4356.070, 24.056 4346.070, 24.059 4336.070, 24.062 4326.070, 24.065 4316.070, 24.068 4306.070, 24.072 4296.070, 24.075 4286.070, 24.078 4276.070, 24.081 4266.070, 24.084 4256.070, 24.087 4246.070, 24.090 4236.070, 24.094 4226.070, 24.096 4216.070, 24.100 4206.070, 24.103 4196.070, 24.106 4186.070, 24.109 4176.070, 24.112 4166.070, 24.115 4156.070, 24.118 4146.070, 24.122 4136.070, 24.125 4126.070, 24.128 4116.070, 24.131 4106.070, 24.134 4096.070, 24.137 4086.070, 24.140 4076.070, 24.143 4066.070, 24.146 4056.070, 24.150 4046.070, 24.153 4036.070, 24.156 4026.070, 24.159 4016.070, 24.162 4006.070, 24.165 3996.070, 24.168 3986.070, 24.171 3976.070, 24.175 3966.070, 24.178 3956.070, 24.181 3946.070, 24.184 3936.070, 24.187 3926.070, 24.190 3916.070, 24.193 3906.070, 24.197 3896.070, 24.199 3886.070, 24.203 3876.070, 24.206 3866.070, 24.209 3856.070, 24.212 3846.070, 24.215 3836.070, 24.218 3826.070, 24.221 3816.070, 24.225 3792.969, 24.232 " />
            <path fill="none" stroke-width="3.0" stroke-linecap="butt" stroke-opacity="1.0" stroke="rgb(0, 0, 0)" stroke-linejoin="round" d=" M 5335.246, 23.750 5334.810, 23.751 5334.313, 23.751 " />
            <path fill="none" stroke-width="3.0" stroke-linecap="butt" stroke-opacity="1.0" stroke="rgb(0, 0, 0)" stroke-linejoin="round" d=" M 5335.662, 23.750 5335.438, 23.750 " />
            <path fill="none" stroke-width="3.0" stroke-linecap="butt" stroke-opacity="1.0" stroke="rgb(0, 0, 0)" stroke-linejoin="round" d=" M 5337.631, 23.750 5337.427, 23.750 " />
            <path fill="none" stroke-width="3.0" stroke-linecap="butt" stroke-opacity="1.0" stroke="rgb(0, 0, 0)" stroke-linejoin="round" d=" M 5335.246, 23.750 5333.215, 23.751 " />
            <path fill="none" stroke-width="3.0" stroke-linecap="butt" stroke-opacity="1.0" stroke="rgb(0, 0, 0)" stroke-linejoin="round" d=" M 5337.427, 23.750 5335.662, 23.750 " />
            <path fill="none" stroke-width="3.0" stroke-linecap="butt" stroke-opacity="1.0" stroke="rgb(0, 0, 0)" stroke-linejoin="round" d=" M 5763.834, 23.627 5753.834, 23.630 5743.834, 23.633 5733.834, 23.636 5723.834, 23.639 5713.834, 23.642 5703.834, 23.645 5693.834, 23.647 5683.834, 23.650 5673.834, 23.653 5663.834, 23.656 5653.834, 23.659 5643.834, 23.662 5633.834, 23.665 5623.834, 23.667 5613.834, 23.670 5603.834, 23.673 5593.834, 23.676 5583.834, 23.679 5573.834, 23.682 5563.834, 23.685 5553.834, 23.688 5543.834, 23.690 5533.834, 23.693 5523.834, 23.696 5513.834, 23.699 5503.834, 23.702 5493.834, 23.705 5483.834, 23.708 5473.834, 23.711 5463.834, 23.713 5453.834, 23.716 5443.834, 23.719 5433.834, 23.722 5423.834, 23.725 5413.834, 23.728 5403.834, 23.731 5393.834, 23.734 5383.834, 23.736 5373.834, 23.739 5363.834, 23.742 5353.834, 23.745 5343.834, 23.748 5330.112, 23.752 " />
            <path fill="none" stroke-width="3.0" stroke-linecap="butt" stroke-opacity="1.0" stroke="rgb(0, 0, 0)" stroke-linejoin="round" d=" M 5763.834, 23.627 5753.834, 23.630 5743.834, 23.633 5733.834, 23.636 5723.834, 23.639 5713.834, 23.642 5703.834, 23.645 5693.834, 23.647 5683.834, 23.650 5673.834, 23.653 5663.834, 23.656 5653.834, 23.659 5643.834, 23.662 5633.834, 23.665 5623.834, 23.667 5613.834, 23.670 5603.834, 23.673 5593.834, 23.676 5583.834, 23.679 5573.834, 23.682 5563.834, 23.685 5553.834, 23.688 5543.834, 23.690 5533.834, 23.693 5523.834, 23.696 5513.834, 23.699 5503.834, 23.702 5493.834, 23.705 5483.834, 23.708 5473.834, 23.711 5463.834, 23.713 5453.834, 23.716 5443.834, 23.719 5433.834, 23.722 5423.834, 23.725 5413.834, 23.728 5403.834, 23.731 5393.834, 23.734 5383.834, 23.736 5373.834, 23.739 5363.834, 23.742 5353.834, 23.745 5343.834, 23.748 5330.112, 23.752 " />
            <path fill="none" stroke-width="3.0" stroke-linecap="butt" stroke-opacity="1.0" stroke="rgb(0, 0, 0)" stroke-linejoin="round" d=" M 5316.070, 23.756 5306.070, 23.759 5296.070, 23.762 5286.070, 23.765 5276.070, 23.768 5266.070, 23.771 5256.070, 23.773 5246.070, 23.776 5236.070, 23.779 5226.070, 23.782 5216.070, 23.785 5206.070, 23.788 5196.070, 23.791 5186.070, 23.794 5176.070, 23.797 5166.070, 23.800 5156.070, 23.802 5146.070, 23.805 5136.070, 23.808 5126.070, 23.811 5116.070, 23.814 5106.070, 23.817 5096.070, 23.820 5086.070, 23.823 5076.070, 23.825 5066.070, 23.828 5056.070, 23.831 5046.070, 23.834 5036.070, 23.837 5026.070, 23.840 5016.070, 23.843 5006.070, 23.845 4996.070, 23.848 4986.070, 23.851 4976.070, 23.854 4966.070, 23.857 4956.070, 23.860 4946.070, 23.863 4936.070, 23.866 4926.070, 23.869 4916.070, 23.872 4906.070, 23.874 4896.070, 23.877 4886.070, 23.880 4876.070, 23.883 4866.070, 23.886 4856.070, 23.889 4846.070, 23.892 4836.070, 23.895 4826.070, 23.897 4816.070, 23.900 4806.070, 23.903 4796.070, 23.906 4786.070, 23.909 4776.070, 23.912 4766.070, 23.915 4756.070, 23.917 4746.070, 23.920 4736.070, 23.923 4726.070, 23.926 4716.070, 23.929 4706.070, 23.932 4696.070, 23.935 4686.070, 23.938 4676.070, 23.941 4666.070, 23.944 4656.070, 23.946 4646.070, 23.949 4636.070, 23.952 4626.070, 23.955 4616.070, 23.958 4606.070, 23.961 4596.070, 23.964 4586.070, 23.967 4576.070, 23.969 4566.070, 23.972 4556.070, 23.975 4546.070, 23.978 4536.070, 23.981 4526.070, 23.984 4516.070, 23.987 4506.070, 23.990 4496.070, 23.992 4486.070, 23.995 4476.070, 23.998 4466.070, 24.001 4456.070, 24.004 4446.070, 24.007 4436.070, 24.010 4426.070, 24.013 4416.070, 24.016 4406.070, 24.018 4396.070, 24.021 4386.070, 24.024 4376.070, 24.027 4366.070, 24.030 4356.070, 24.033 4346.070, 24.036 4336.070, 24.039 4326.070, 24.042 4316.070, 24.044 4306.070, 24.047 4296.070, 24.050 4286.070, 24.053 4276.070, 24.056 4266.070, 24.059 4256.070, 24.062 4246.070, 24.064 4236.070, 24.067 4226.070, 24.070 4216.070, 24.073 4206.070, 24.076 4196.070, 24.079 4186.070, 24.082 4176.070, 24.085 4166.070, 24.088 4156.070, 24.090 4146.070, 24.093 4136.070, 24.096 4126.070, 24.099 4116.070, 24.102 4106.070, 24.105 4096.070, 24.108 4086.070, 24.111 4076.070, 24.114 4066.070, 24.116 4056.070, 24.119 4046.070, 24.122 4036.070, 24.125 4026.070, 24.128 4016.070, 24.131 4006.070, 24.134 3996.070, 24.136 3986.070, 24.139 3976.070, 24.142 3966.070, 24.145 3956.070, 24.148 3946.070, 24.151 3936.070, 24.154 3926.070, 24.157 3916.070, 24.160 3906.070, 24.162 3896.070, 24.165 3886.070, 24.168 3876.070, 24.171 3866.070, 24.174 3856.070, 24.177 3846.070, 24.180 3836.070, 24.183 3826.070, 24.186 3816.070, 24.188 3806.070, 24.191 3796.070, 24.194 3786.070, 24.197 3776.070, 24.200 3766.070, 24.203 3756.070, 24.206 3746.070, 24.208 3720.842, 24.216 " />
            <path fill="none" stroke-width="3.0" stroke-linecap="butt" stroke-opacity="1.0" stroke="rgb(0, 0, 0)" stroke-linejoin="round" d=" M 5797.388, 290.250 5796.140, 280.328 5794.891, 270.406 5793.642, 260.485 5792.394, 250.563 5791.145, 240.641 5789.896, 230.719 5788.648, 220.798 5787.399, 210.876 5786.150, 200.954 5784.902, 191.032 5783.653, 181.111 5782.404, 171.189 5781.156, 161.267 5779.907, 151.345 5778.659, 141.424 5777.410, 131.502 5776.161, 121.580 5774.913, 111.659 5773.664, 101.737 5772.416, 91.815 5771.167, 81.893 5769.918, 71.972 5768.669, 62.050 5767.421, 52.128 5766.172, 42.207 5764.924, 32.285 5763.834, 23.627 " />
            <path fill="none" stroke-width="3.0" stroke-linecap="butt" stroke-opacity="1.0" stroke="rgb(0, 0, 0)" stroke-linejoin="round" d=" M 6038.997, 2385.146 6037.841, 2375.213 6036.686, 2365.280 6035.530, 2355.347 6034.375, 2345.414 6033.219, 2335.481 6032.064, 2325.548 6030.908, 2315.615 6029.753, 2305.682 6028.597, 2295.749 6027.442, 2285.816 6026.287, 2275.883 6025.131, 2265.950 6023.976, 2256.017 6022.820, 2246.084 6021.665, 2236.151 6020.509, 2226.218 6019.354, 2216.285 6018.198, 2206.352 6017.042, 2196.419 6015.887, 2186.486 6014.732, 2176.553 6013.576, 2166.620 6012.421, 2156.687 6011.265, 2146.754 6010.110, 2136.821 6008.955, 2126.888 6007.799, 2116.955 6006.644, 2107.022 6005.488, 2097.089 6004.333, 2087.156 6003.177, 2077.223 6002.021, 2067.290 6000.866, 2057.357 5999.710, 2047.424 5998.555, 2037.491 5997.400, 2027.558 5996.244, 2017.625 5995.089, 2007.692 5993.933, 1997.759 5992.778, 1987.826 5991.623, 1977.893 5990.467, 1967.960 5989.312, 1958.027 5988.156, 1948.094 5987.000, 1938.161 5985.845, 1928.227 5985.092, 1921.755 " />
            <path fill="none" stroke-width="3.0" stroke-linecap="butt" stroke-opacity="1.0" stroke="rgb(0, 0, 0)" stroke-linejoin="round" d=" M 6078.136, 2491.934 6074.694, 2482.545 6071.253, 2473.156 6067.812, 2463.767 6064.371, 2454.378 6060.929, 2444.988 6057.488, 2435.599 6054.047, 2426.210 6050.605, 2416.821 6047.164, 2407.431 6043.723, 2398.042 6040.282, 2388.653 6038.997, 2385.146 " />
        </g>
    </g>
<g id="slice-labels"><text x="534.4191666666666" y="456.253" text-anchor="middle" dominant-baseline="middle" font-family="Arial, sans-serif" font-size="59.05523027880589" font-weight="bold" fill="black" stroke="none" stroke-width="7.086627633456706" paint-order="stroke fill">Slice36 (Front)</text><text x="1555.8514999999998" y="456.253" text-anchor="middle" dominant-baseline="middle" font-family="Arial, sans-serif" font-size="59.05523027880589" font-weight="bold" fill="black" stroke="none" stroke-width="7.086627633456706" paint-order="stroke fill">Slice36 (Front)</text><text x="2577.283833333333" y="456.253" text-anchor="middle" dominant-baseline="middle" font-family="Arial, sans-serif" font-size="59.05523027880589" font-weight="bold" fill="black" stroke="none" stroke-width="7.086627633456706" paint-order="stroke fill">Slice36 (Front)</text><text x="3598.716166666666" y="456.253" text-anchor="middle" dominant-baseline="middle" font-family="Arial, sans-serif" font-size="59.05523027880589" font-weight="bold" fill="black" stroke="none" stroke-width="7.086627633456706" paint-order="stroke fill">Slice36 (Front)</text><text x="4620.1485" y="456.253" text-anchor="middle" dominant-baseline="middle" font-family="Arial, sans-serif" font-size="59.05523027880589" font-weight="bold" fill="black" stroke="none" stroke-width="7.086627633456706" paint-order="stroke fill">Slice36 (Front)</text><text x="5641.5808333333325" y="456.253" text-anchor="middle" dominant-baseline="middle" font-family="Arial, sans-serif" font-size="59.05523027880589" font-weight="bold" fill="black" stroke="none" stroke-width="7.086627633456706" paint-order="stroke fill">Slice36 (Front)</text><text x="534.4191666666666" y="1321.5049999999999" text-anchor="middle" dominant-baseline="middle" font-family="Arial, sans-serif" font-size="59.05523027880589" font-weight="bold" fill="black" stroke="none" stroke-width="7.086627633456706" paint-order="stroke fill">Slice36 (Front)</text><text x="1555.8514999999998" y="1321.5049999999999" text-anchor="middle" dominant-baseline="middle" font-family="Arial, sans-serif" font-size="59.05523027880589" font-weight="bold" fill="black" stroke="none" stroke-width="7.086627633456706" paint-order="stroke fill">Slice36 (Front)</text><text x="2577.283833333333" y="1321.5049999999999" text-anchor="middle" dominant-baseline="middle" font-family="Arial, sans-serif" font-size="59.05523027880589" font-weight="bold" fill="black" stroke="none" stroke-width="7.086627633456706" paint-order="stroke fill">Slice36 (Front)</text><text x="3598.716166666666" y="1321.5049999999999" text-anchor="middle" dominant-baseline="middle" font-family="Arial, sans-serif" font-size="59.05523027880589" font-weight="bold" fill="black" stroke="none" stroke-width="7.086627633456706" paint-order="stroke fill">Slice36 (Front)</text><text x="4620.1485" y="1321.5049999999999" text-anchor="middle" dominant-baseline="middle" font-family="Arial, sans-serif" font-size="59.05523027880589" font-weight="bold" fill="black" stroke="none" stroke-width="7.086627633456706" paint-order="stroke fill">Slice36 (Front)</text><text x="5641.5808333333325" y="1321.5049999999999" text-anchor="middle" dominant-baseline="middle" font-family="Arial, sans-serif" font-size="59.05523027880589" font-weight="bold" fill="black" stroke="none" stroke-width="7.086627633456706" paint-order="stroke fill">Slice36 (Front)</text><text x="534.4191666666666" y="2186.757" text-anchor="middle" dominant-baseline="middle" font-family="Arial, sans-serif" font-size="59.05523027880589" font-weight="bold" fill="black" stroke="none" stroke-width="7.086627633456706" paint-order="stroke fill">Slice36 (Front)</text><text x="1555.8514999999998" y="2186.757" text-anchor="middle" dominant-baseline="middle" font-family="Arial, sans-serif" font-size="59.05523027880589" font-weight="bold" fill="black" stroke="none" stroke-width="7.086627633456706" paint-order="stroke fill">Slice36 (Front)</text><text x="2577.283833333333" y="2186.757" text-anchor="middle" dominant-baseline="middle" font-family="Arial, sans-serif" font-size="59.05523027880589" font-weight="bold" fill="black" stroke="none" stroke-width="7.086627633456706" paint-order="stroke fill">Slice36 (Front)</text><text x="3598.716166666666" y="2186.757" text-anchor="middle" dominant-baseline="middle" font-family="Arial, sans-serif" font-size="59.05523027880589" font-weight="bold" fill="black" stroke="none" stroke-width="7.086627633456706" paint-order="stroke fill">Slice36 (Front)</text><text x="4620.1485" y="2186.757" text-anchor="middle" dominant-baseline="middle" font-family="Arial, sans-serif" font-size="59.05523027880589" font-weight="bold" fill="black" stroke="none" stroke-width="7.086627633456706" paint-order="stroke fill">Slice36 (Front)</text><text x="5641.5808333333325" y="2186.757" text-anchor="middle" dominant-baseline="middle" font-family="Arial, sans-serif" font-size="59.05523027880589" font-weight="bold" fill="black" stroke="none" stroke-width="7.086627633456706" paint-order="stroke fill">Slice36 (Front)</text></g></svg>