<?xml version='1.0' encoding='utf-8'?>
<svg xmlns="http://www.w3.org/2000/svg" xmlns:inkscape="http://www.inkscape.org/namespaces/inkscape" version="1.1" width="522.8867002725601mm" height="223.77359056472778mm" viewBox="0.09090678858879997 0.004907888477646338 6175.839186422822 2643.0001842230445" preserveAspectRatio="none">
    <g id="ViewLayer_LineSet" inkscape:groupmode="lineset" inkscape:label="ViewLayer_LineSet">
        <g inkscape:groupmode="layer" id="strokes" inkscape:label="strokes">
            <path fill="none" stroke-width="3.0" stroke-linecap="butt" stroke-opacity="1.0" stroke="rgb(0, 0, 0)" stroke-linejoin="round" d=" M 97.874, 2491.934 92.503, 2500.369 87.132, 2508.804 81.760, 2517.239 76.389, 2525.674 71.018, 2534.109 65.646, 2542.544 60.275, 2550.979 54.903, 2559.414 53.760, 2561.210 49.171, 2570.094 44.582, 2578.979 39.993, 2587.864 35.404, 2596.749 30.815, 2605.634 26.225, 2614.518 23.713, 2619.383 33.578, 2619.383 " />
            <path fill="none" stroke-width="3.0" stroke-linecap="butt" stroke-opacity="1.0" stroke="rgb(0, 0, 0)" stroke-linejoin="round" d=" M 33.578, 2619.383 43.578, 2619.383 53.578, 2619.383 63.578, 2619.383 73.578, 2619.383 83.578, 2619.383 93.578, 2619.383 103.578, 2619.383 113.578, 2619.383 123.578, 2619.383 133.578, 2619.383 137.922, 2619.383 147.922, 2619.383 157.922, 2619.383 167.922, 2619.383 177.922, 2619.383 187.922, 2619.383 197.922, 2619.383 207.922, 2619.383 217.922, 2619.383 225.686, 2619.383 235.686, 2619.383 245.686, 2619.383 255.686, 2619.383 265.686, 2619.383 275.686, 2619.383 285.686, 2619.383 295.686, 2619.383 305.686, 2619.383 315.686, 2619.383 325.686, 2619.383 335.686, 2619.383 345.686, 2619.383 355.686, 2619.383 365.686, 2619.383 375.686, 2619.383 385.686, 2619.383 395.686, 2619.383 405.686, 2619.383 415.686, 2619.383 426.536, 2619.383 436.536, 2619.383 446.536, 2619.383 456.536, 2619.383 466.536, 2619.383 476.536, 2619.383 486.536, 2619.383 496.536, 2619.383 506.536, 2619.383 516.536, 2619.383 526.536, 2619.383 536.536, 2619.383 546.536, 2619.383 556.536, 2619.383 566.536, 2619.383 576.536, 2619.383 586.536, 2619.383 596.536, 2619.383 606.536, 2619.383 616.536, 2619.383 626.536, 2619.383 636.536, 2619.383 646.536, 2619.383 656.536, 2619.383 666.536, 2619.383 676.536, 2619.383 686.536, 2619.383 696.536, 2619.383 706.536, 2619.383 716.536, 2619.383 726.536, 2619.383 736.536, 2619.383 746.536, 2619.383 756.536, 2619.383 766.536, 2619.383 776.536, 2619.383 786.536, 2619.383 796.536, 2619.383 806.536, 2619.383 816.536, 2619.383 826.536, 2619.383 836.536, 2619.383 846.536, 2619.383 856.536, 2619.383 866.536, 2619.383 876.536, 2619.383 886.536, 2619.383 896.536, 2619.383 906.536, 2619.383 916.536, 2619.383 926.536, 2619.383 936.536, 2619.383 946.536, 2619.383 956.536, 2619.383 966.536, 2619.383 976.536, 2619.383 986.536, 2619.383 996.536, 2619.383 1006.536, 2619.383 1016.536, 2619.383 1026.536, 2619.383 1036.536, 2619.383 1046.536, 2619.383 1056.536, 2619.383 1066.536, 2619.383 1076.536, 2619.383 1086.536, 2619.383 1096.536, 2619.383 1106.536, 2619.383 1116.536, 2619.383 1126.536, 2619.383 1136.536, 2619.383 1146.536, 2619.383 1156.536, 2619.383 1166.536, 2619.383 1176.536, 2619.383 1186.536, 2619.383 1196.536, 2619.383 1206.536, 2619.383 1216.536, 2619.383 1226.536, 2619.383 1236.536, 2619.383 1246.536, 2619.383 1256.536, 2619.383 1266.536, 2619.383 1276.536, 2619.383 1286.536, 2619.383 1296.536, 2619.383 1306.536, 2619.383 1316.536, 2619.383 1326.536, 2619.383 1336.536, 2619.383 1346.536, 2619.383 1356.536, 2619.383 1366.536, 2619.383 1376.536, 2619.383 1386.536, 2619.383 1396.536, 2619.383 1406.536, 2619.383 1416.536, 2619.383 1426.536, 2619.383 1436.536, 2619.383 1446.536, 2619.383 1456.536, 2619.383 1474.798, 2619.383 1484.798, 2619.383 1494.798, 2619.383 1504.798, 2619.383 1514.798, 2619.383 1524.798, 2619.383 1534.798, 2619.383 1544.798, 2619.383 1554.798, 2619.383 1564.798, 2619.383 1574.798, 2619.383 1584.798, 2619.383 1594.798, 2619.383 1604.798, 2619.383 1614.798, 2619.383 1624.798, 2619.383 1634.798, 2619.383 1636.899, 2619.383 " />
            <path fill="none" stroke-width="3.0" stroke-linecap="butt" stroke-opacity="1.0" stroke="rgb(0, 0, 0)" stroke-linejoin="round" d=" M 1636.899, 2619.383 1646.899, 2619.383 1656.899, 2619.383 1666.899, 2619.383 1676.899, 2619.383 1686.899, 2619.383 1696.899, 2619.383 1706.899, 2619.383 1716.899, 2619.383 1726.899, 2619.383 1736.899, 2619.383 1746.899, 2619.383 1756.899, 2619.383 1766.899, 2619.383 1776.899, 2619.383 1786.899, 2619.383 1796.899, 2619.383 1806.899, 2619.383 1816.899, 2619.383 1826.899, 2619.383 1836.899, 2619.383 1846.899, 2619.383 1856.899, 2619.383 1866.899, 2619.383 1876.899, 2619.383 1879.656, 2619.383 1879.825, 2619.383 1880.950, 2619.383 1882.245, 2609.468 1883.375, 2600.827 " />
            <path fill="none" stroke-width="3.0" stroke-linecap="butt" stroke-opacity="1.0" stroke="rgb(0, 0, 0)" stroke-linejoin="round" d=" M 1883.375, 2600.827 1883.582, 2590.830 1883.789, 2580.832 1883.997, 2570.834 1884.204, 2560.836 1884.411, 2550.838 1884.619, 2540.840 1884.826, 2530.842 1885.033, 2520.845 1885.241, 2510.847 1885.448, 2500.849 1885.656, 2490.851 1885.863, 2480.853 1886.070, 2470.855 1886.277, 2460.858 1886.485, 2450.860 1886.692, 2440.862 1886.900, 2430.864 1887.107, 2420.866 1887.314, 2410.868 1887.521, 2400.870 1887.729, 2390.873 1887.936, 2380.875 1888.144, 2370.877 1888.351, 2360.879 1888.558, 2350.881 1888.766, 2340.883 1888.973, 2330.885 1889.180, 2320.888 1889.388, 2310.890 1889.595, 2300.892 1889.802, 2290.894 1890.010, 2280.896 1890.217, 2270.898 1890.391, 2262.519 1899.124, 2257.647 1907.857, 2252.775 1916.590, 2247.903 1925.323, 2243.031 1934.056, 2238.159 1937.056, 2236.486 " />
            <path fill="none" stroke-width="3.0" stroke-linecap="butt" stroke-opacity="1.0" stroke="rgb(0, 0, 0)" stroke-linejoin="round" d=" M 1937.056, 2236.486 1939.687, 2226.838 1942.318, 2217.190 1944.948, 2207.542 1947.579, 2197.895 1950.210, 2188.247 1952.840, 2178.599 1955.471, 2168.951 1958.102, 2159.303 1960.732, 2149.656 1963.363, 2140.008 1965.994, 2130.360 1968.625, 2120.712 1971.255, 2111.065 1973.886, 2101.417 1976.517, 2091.769 1979.147, 2082.121 1981.778, 2072.474 1984.409, 2062.826 1987.039, 2053.178 1989.670, 2043.530 1992.301, 2033.883 1994.932, 2024.235 1997.562, 2014.587 2000.193, 2004.939 2002.824, 1995.291 2005.454, 1985.644 2008.085, 1975.996 2010.716, 1966.348 2013.346, 1956.700 2015.977, 1947.053 2018.608, 1937.405 2021.238, 1927.757 2023.869, 1918.109 2026.500, 1908.461 2029.131, 1898.814 2031.761, 1889.166 2034.392, 1879.518 2035.521, 1875.377 2039.879, 1866.376 2044.237, 1857.375 2048.595, 1848.375 2052.953, 1839.375 2057.311, 1830.374 2061.668, 1821.373 2066.026, 1812.373 2070.384, 1803.372 2074.742, 1794.372 2079.100, 1785.371 2083.458, 1776.371 2087.815, 1767.370 2092.173, 1758.370 2096.531, 1749.369 2100.889, 1740.369 2105.247, 1731.368 2109.605, 1722.368 2113.963, 1713.367 2118.321, 1704.367 2122.678, 1695.366 2127.036, 1686.366 2131.394, 1677.365 2135.752, 1668.365 2140.110, 1659.364 2144.468, 1650.364 2148.825, 1641.363 2153.183, 1632.363 2156.862, 1624.765 " />
            <path fill="none" stroke-width="3.0" stroke-linecap="butt" stroke-opacity="1.0" stroke="rgb(0, 0, 0)" stroke-linejoin="round" d=" M 1532.765, 894.561 1530.822, 892.758 1528.972, 890.860 1527.218, 888.874 1525.566, 886.802 1524.019, 884.650 1522.581, 882.424 1521.256, 880.129 1520.047, 877.771 1518.957, 875.355 1517.989, 872.888 1517.145, 870.375 1516.427, 867.825 1515.838, 865.241 1515.377, 862.632 1515.048, 860.001 1514.850, 857.359 1514.784, 854.710 " />
            <path fill="none" stroke-width="3.0" stroke-linecap="butt" stroke-opacity="1.0" stroke="rgb(0, 0, 0)" stroke-linejoin="round" d=" M 1541.358, 900.739 1539.097, 899.357 1536.907, 897.864 1534.795, 896.263 " />
            <path fill="none" stroke-width="3.0" stroke-linecap="butt" stroke-opacity="1.0" stroke="rgb(0, 0, 0)" stroke-linejoin="round" d=" M 318.914, 835.205 316.800, 844.979 314.686, 854.753 312.573, 864.527 310.459, 874.301 308.345, 884.075 306.232, 893.849 304.118, 903.623 302.004, 913.397 299.891, 923.171 297.777, 932.945 295.663, 942.719 293.550, 952.494 291.436, 962.268 289.322, 972.042 287.209, 981.816 285.095, 991.590 282.981, 1001.364 280.868, 1011.138 278.754, 1020.912 276.640, 1030.686 274.527, 1040.460 272.413, 1050.234 270.299, 1060.008 268.186, 1069.782 266.072, 1079.556 263.958, 1089.330 261.845, 1099.105 259.731, 1108.879 257.617, 1118.653 255.504, 1128.427 253.390, 1138.201 251.276, 1147.975 249.163, 1157.749 247.049, 1167.523 244.935, 1177.297 242.822, 1187.071 240.708, 1196.845 238.594, 1206.619 236.480, 1216.393 234.367, 1226.167 232.253, 1235.942 230.139, 1245.716 228.026, 1255.490 225.912, 1265.264 223.798, 1275.038 221.685, 1284.812 219.571, 1294.586 217.457, 1304.360 215.344, 1314.134 214.102, 1319.877 213.717, 1329.869 213.332, 1339.862 212.947, 1349.854 212.562, 1359.847 212.177, 1369.839 211.793, 1379.832 211.408, 1389.825 211.023, 1399.817 210.638, 1409.810 210.253, 1419.802 209.868, 1429.795 209.483, 1439.788 209.098, 1449.780 208.713, 1459.773 208.328, 1469.765 207.943, 1479.758 207.559, 1489.751 207.174, 1499.743 206.789, 1509.736 206.404, 1519.728 206.019, 1529.721 205.634, 1539.714 205.249, 1549.706 204.864, 1559.699 204.479, 1569.691 204.094, 1579.684 203.710, 1589.677 203.325, 1599.669 202.940, 1609.662 202.555, 1619.654 202.170, 1629.647 201.785, 1639.639 201.400, 1649.632 201.015, 1659.625 200.630, 1669.617 200.245, 1679.610 199.860, 1689.602 199.476, 1699.595 199.091, 1709.588 198.706, 1719.580 198.321, 1729.573 197.936, 1739.565 197.551, 1749.558 197.166, 1759.551 196.781, 1769.543 196.396, 1779.536 196.011, 1789.528 195.626, 1799.521 195.242, 1809.513 194.857, 1819.506 194.472, 1829.499 194.087, 1839.491 193.702, 1849.484 193.317, 1859.476 192.932, 1869.469 192.547, 1879.462 192.162, 1889.454 191.777, 1899.447 191.392, 1909.439 190.918, 1921.755 " />
            <path fill="none" stroke-width="3.0" stroke-linecap="butt" stroke-opacity="1.0" stroke="rgb(0, 0, 0)" stroke-linejoin="round" d=" M 1551.006, 905.092 1548.516, 904.186 1546.074, 903.156 1543.686, 902.007 " />
            <path fill="none" stroke-width="3.0" stroke-linecap="butt" stroke-opacity="1.0" stroke="rgb(0, 0, 0)" stroke-linejoin="round" d=" M 1571.905, 907.710 1569.258, 907.843 1566.608, 907.843 1563.961, 907.710 1561.325, 907.447 1558.704, 907.052 1556.106, 906.527 1553.538, 905.873 " />
            <path fill="none" stroke-width="3.0" stroke-linecap="butt" stroke-opacity="1.0" stroke="rgb(0, 0, 0)" stroke-linejoin="round" d=" M 1514.850, 852.060 1515.048, 849.418 " />
            <path fill="none" stroke-width="3.0" stroke-linecap="butt" stroke-opacity="1.0" stroke="rgb(0, 0, 0)" stroke-linejoin="round" d=" M 1515.048, 849.418 1515.377, 846.788 " />
            <path fill="none" stroke-width="3.0" stroke-linecap="butt" stroke-opacity="1.0" stroke="rgb(0, 0, 0)" stroke-linejoin="round" d=" M 1594.508, 900.739 1592.181, 902.007 1589.793, 903.156 1587.351, 904.186 1584.861, 905.092 1582.328, 905.873 1579.760, 906.527 1577.163, 907.052 1574.542, 907.447 " />
            <path fill="none" stroke-width="3.0" stroke-linecap="butt" stroke-opacity="1.0" stroke="rgb(0, 0, 0)" stroke-linejoin="round" d=" M 1515.377, 846.788 1515.838, 844.178 1516.427, 841.594 1517.145, 839.044 1517.989, 836.532 1518.957, 834.065 1520.047, 831.649 1521.256, 829.291 1522.581, 826.995 1524.019, 824.769 1525.566, 822.617 1527.218, 820.546 1528.972, 818.559 1530.822, 816.661 1532.765, 814.859 " />
            <path fill="none" stroke-width="3.0" stroke-linecap="butt" stroke-opacity="1.0" stroke="rgb(0, 0, 0)" stroke-linejoin="round" d=" M 1532.765, 814.859 1534.795, 813.156 1536.907, 811.555 1539.097, 810.062 1541.358, 808.680 1543.686, 807.413 1546.074, 806.264 1548.516, 805.234 1551.006, 804.328 1553.538, 803.547 1556.106, 802.893 1558.704, 802.368 1561.325, 801.973 1563.961, 801.709 " />
            <path fill="none" stroke-width="3.0" stroke-linecap="butt" stroke-opacity="1.0" stroke="rgb(0, 0, 0)" stroke-linejoin="round" d=" M 838.379, 23.750 838.258, 23.750 828.258, 23.747 818.258, 23.744 808.258, 23.741 798.258, 23.738 788.258, 23.735 778.258, 23.732 768.258, 23.730 758.258, 23.727 748.258, 23.724 738.258, 23.721 728.258, 23.718 718.258, 23.715 708.258, 23.712 698.258, 23.709 688.258, 23.707 678.258, 23.704 668.258, 23.701 658.258, 23.698 648.258, 23.695 638.258, 23.692 628.258, 23.689 618.258, 23.687 608.258, 23.684 598.258, 23.681 588.258, 23.678 578.258, 23.675 568.258, 23.672 558.258, 23.669 548.258, 23.667 538.258, 23.664 528.258, 23.661 518.258, 23.658 508.258, 23.655 498.258, 23.652 488.258, 23.649 478.258, 23.646 468.258, 23.643 458.258, 23.641 448.258, 23.638 438.258, 23.635 428.258, 23.632 418.258, 23.629 412.176, 23.627 " />
            <path fill="none" stroke-width="3.0" stroke-linecap="butt" stroke-opacity="1.0" stroke="rgb(0, 0, 0)" stroke-linejoin="round" d=" M 845.898, 23.752 844.898, 23.752 844.724, 23.752 843.863, 23.752 " />
            <path fill="none" stroke-width="3.0" stroke-linecap="butt" stroke-opacity="1.0" stroke="rgb(0, 0, 0)" stroke-linejoin="round" d=" M 841.697, 23.751 841.201, 23.751 840.764, 23.750 " />
            <path fill="none" stroke-width="3.0" stroke-linecap="butt" stroke-opacity="1.0" stroke="rgb(0, 0, 0)" stroke-linejoin="round" d=" M 1606.895, 890.860 1605.044, 892.758 1603.102, 894.561 1601.072, 896.263 " />
            <path fill="none" stroke-width="3.0" stroke-linecap="butt" stroke-opacity="1.0" stroke="rgb(0, 0, 0)" stroke-linejoin="round" d=" M 1613.285, 882.424 1611.848, 884.650 1610.301, 886.802 1608.648, 888.874 " />
            <path fill="none" stroke-width="3.0" stroke-linecap="butt" stroke-opacity="1.0" stroke="rgb(0, 0, 0)" stroke-linejoin="round" d=" M 2156.862, 1624.765 2159.738, 1615.187 2162.613, 1605.609 2165.489, 1596.032 2168.364, 1586.454 2171.240, 1576.876 2174.115, 1567.299 2176.990, 1557.721 2179.866, 1548.143 2182.741, 1538.566 2185.617, 1528.988 2188.492, 1519.410 2191.368, 1509.833 2194.243, 1500.255 2197.118, 1490.677 2199.994, 1481.100 2202.869, 1471.522 2205.745, 1461.944 2208.620, 1452.367 2211.496, 1442.789 2214.371, 1433.211 2217.247, 1423.634 2220.122, 1414.056 2222.998, 1404.478 2225.873, 1394.901 2228.749, 1385.323 2231.624, 1375.745 2234.500, 1366.168 2237.375, 1356.590 2240.084, 1347.568 " />
            <path fill="none" stroke-width="3.0" stroke-linecap="butt" stroke-opacity="1.0" stroke="rgb(0, 0, 0)" stroke-linejoin="round" d=" M 2240.084, 1347.568 2240.166, 1337.568 2240.249, 1327.568 2240.331, 1317.568 2240.414, 1307.569 2240.496, 1297.569 2240.579, 1287.569 2240.662, 1277.570 2240.744, 1267.570 2240.827, 1257.571 2240.909, 1247.571 2240.992, 1237.571 2241.074, 1227.572 2241.157, 1217.572 2241.239, 1207.572 2241.322, 1197.573 2241.404, 1187.573 2241.487, 1177.573 2241.569, 1167.574 2241.652, 1157.574 2241.734, 1147.574 2241.817, 1137.575 2241.900, 1127.575 2241.982, 1117.575 2242.065, 1107.576 2242.147, 1097.576 2242.230, 1087.576 2242.312, 1077.577 2242.395, 1067.577 2242.477, 1057.577 2242.560, 1047.578 2242.642, 1037.578 2242.725, 1027.578 2242.807, 1017.579 2242.890, 1007.579 2242.972, 997.579 2243.055, 987.580 2243.138, 977.580 2243.220, 967.580 2243.303, 957.581 2243.385, 947.581 2243.468, 937.581 2243.550, 927.582 2243.633, 917.582 2243.715, 907.583 2243.798, 897.583 2243.880, 887.583 2243.963, 877.583 2244.070, 864.618 " />
            <path fill="none" stroke-width="3.0" stroke-linecap="butt" stroke-opacity="1.0" stroke="rgb(0, 0, 0)" stroke-linejoin="round" d=" M 1621.017, 852.060 1621.083, 854.710 1621.017, 857.359 1620.819, 860.001 1620.489, 862.632 1620.029, 865.241 " />
            <path fill="none" stroke-width="3.0" stroke-linecap="butt" stroke-opacity="1.0" stroke="rgb(0, 0, 0)" stroke-linejoin="round" d=" M 1614.610, 829.291 1615.820, 831.649 1616.910, 834.065 1617.878, 836.532 1618.722, 839.044 1619.439, 841.594 1620.029, 844.178 1620.489, 846.788 1620.819, 849.418 1621.017, 852.060 " />
            <path fill="none" stroke-width="3.0" stroke-linecap="butt" stroke-opacity="1.0" stroke="rgb(0, 0, 0)" stroke-linejoin="round" d=" M 1613.285, 826.995 1614.610, 829.291 " />
            <path fill="none" stroke-width="3.0" stroke-linecap="butt" stroke-opacity="1.0" stroke="rgb(0, 0, 0)" stroke-linejoin="round" d=" M 1598.959, 811.555 1601.072, 813.156 1603.102, 814.859 1605.044, 816.661 1606.895, 818.559 1608.648, 820.546 1610.301, 822.617 1611.848, 824.769 1613.285, 826.995 " />
            <path fill="none" stroke-width="3.0" stroke-linecap="butt" stroke-opacity="1.0" stroke="rgb(0, 0, 0)" stroke-linejoin="round" d=" M 1596.770, 810.062 1598.959, 811.555 " />
            <path fill="none" stroke-width="3.0" stroke-linecap="butt" stroke-opacity="1.0" stroke="rgb(0, 0, 0)" stroke-linejoin="round" d=" M 1594.508, 808.680 1596.770, 810.062 " />
            <path fill="none" stroke-width="3.0" stroke-linecap="butt" stroke-opacity="1.0" stroke="rgb(0, 0, 0)" stroke-linejoin="round" d=" M 1584.861, 804.328 1587.351, 805.234 1589.793, 806.264 1592.181, 807.413 1594.508, 808.680 " />
            <path fill="none" stroke-width="3.0" stroke-linecap="butt" stroke-opacity="1.0" stroke="rgb(0, 0, 0)" stroke-linejoin="round" d=" M 2244.070, 864.618 2243.381, 854.641 2242.691, 844.665 2242.002, 834.689 2241.313, 824.713 2240.624, 814.736 2239.934, 804.760 2239.245, 794.784 2238.556, 784.808 2237.866, 774.832 2237.177, 764.855 2236.488, 754.879 2235.799, 744.903 2235.109, 734.927 2234.420, 724.951 2233.731, 714.974 2233.042, 704.998 2232.352, 695.022 2231.663, 685.046 2231.187, 678.147 2231.643, 668.158 2232.099, 658.168 2232.345, 652.773 " />
            <path fill="none" stroke-width="3.0" stroke-linecap="butt" stroke-opacity="1.0" stroke="rgb(0, 0, 0)" stroke-linejoin="round" d=" M 2232.345, 652.773 2236.701, 643.772 2241.056, 634.770 2245.411, 625.768 2249.767, 616.766 2254.122, 607.765 2258.477, 598.763 2262.833, 589.761 2267.188, 580.760 2271.543, 571.758 2275.898, 562.756 2280.254, 553.754 2284.609, 544.752 2288.964, 535.751 2293.320, 526.749 2297.675, 517.747 2302.030, 508.746 2306.386, 499.744 2309.008, 494.323 2313.172, 485.232 2317.336, 476.140 2321.500, 467.048 2325.665, 457.956 2329.829, 448.865 2333.993, 439.773 2338.157, 430.681 2342.321, 421.589 2346.485, 412.498 2350.649, 403.406 2354.813, 394.314 2358.977, 385.222 2363.141, 376.130 2367.305, 367.039 2371.469, 357.947 2375.634, 348.855 2379.798, 339.763 2383.962, 330.672 2388.126, 321.580 2392.290, 312.488 2396.454, 303.396 2400.618, 294.304 2404.782, 285.213 2408.947, 276.121 2413.111, 267.029 2417.275, 257.937 2421.439, 248.845 2425.603, 239.754 2430.104, 229.925 2431.314, 219.998 2432.523, 210.072 2433.733, 200.145 2434.942, 190.218 2436.152, 180.292 2437.361, 170.365 2438.571, 160.439 2439.780, 150.512 2440.990, 140.585 2442.199, 130.659 2443.409, 120.732 2444.618, 110.806 2445.828, 100.879 2447.037, 90.952 2448.247, 81.026 2449.456, 71.099 2450.666, 61.173 2451.875, 51.246 2453.084, 41.320 2454.294, 31.393 2455.168, 24.216 2445.168, 24.213 2435.168, 24.210 2425.168, 24.207 2415.168, 24.204 2405.168, 24.201 2395.168, 24.199 2385.168, 24.196 2383.871, 24.195 " />
            <path fill="none" stroke-width="3.0" stroke-linecap="butt" stroke-opacity="1.0" stroke="rgb(0, 0, 0)" stroke-linejoin="round" d=" M 1582.328, 803.547 1584.861, 804.328 " />
            <path fill="none" stroke-width="3.0" stroke-linecap="butt" stroke-opacity="1.0" stroke="rgb(0, 0, 0)" stroke-linejoin="round" d=" M 1579.760, 802.893 1582.328, 803.547 " />
            <path fill="none" stroke-width="3.0" stroke-linecap="butt" stroke-opacity="1.0" stroke="rgb(0, 0, 0)" stroke-linejoin="round" d=" M 1563.961, 801.709 1566.608, 801.576 1569.258, 801.576 1571.905, 801.709 1574.542, 801.973 1577.163, 802.368 1579.760, 802.893 " />
            <path fill="none" stroke-width="3.0" stroke-linecap="butt" stroke-opacity="1.0" stroke="rgb(0, 0, 0)" stroke-linejoin="round" d=" M 2383.871, 24.195 2383.534, 24.277 " />
            <path fill="none" stroke-width="3.0" stroke-linecap="butt" stroke-opacity="1.0" stroke="rgb(0, 0, 0)" stroke-linejoin="round" d=" M 2383.534, 24.277 2383.294, 24.276 2383.041, 24.232 " />
            <path fill="none" stroke-width="3.0" stroke-linecap="butt" stroke-opacity="1.0" stroke="rgb(0, 0, 0)" stroke-linejoin="round" d=" M 3823.180, 1385.803 3824.553, 1395.709 3825.926, 1405.614 3827.299, 1415.519 3828.673, 1425.425 3830.046, 1435.330 3831.419, 1445.235 3832.792, 1455.140 3834.165, 1465.046 3835.539, 1474.951 3836.912, 1484.856 3838.285, 1494.761 3839.658, 1504.667 3841.031, 1514.572 3842.405, 1524.477 3843.778, 1534.382 3845.151, 1544.288 3846.524, 1554.193 3847.897, 1564.098 3849.271, 1574.004 3850.644, 1583.909 3852.017, 1593.814 3853.390, 1603.719 3854.763, 1613.625 3856.137, 1623.530 3857.510, 1633.435 3858.883, 1643.340 3860.023, 1651.563 3863.679, 1660.871 3867.335, 1670.178 3870.991, 1679.486 3874.647, 1688.794 3878.303, 1698.101 3881.959, 1707.409 3885.615, 1716.717 3889.272, 1726.025 3892.928, 1735.332 3896.584, 1744.640 3900.240, 1753.948 3903.896, 1763.255 3907.552, 1772.563 3911.208, 1781.871 3914.864, 1791.178 3918.520, 1800.486 3922.176, 1809.794 3925.832, 1819.102 3929.488, 1828.409 3933.145, 1837.717 3936.801, 1847.025 3940.457, 1856.332 3944.113, 1865.640 3947.769, 1874.948 3951.425, 1884.255 3955.081, 1893.563 3958.737, 1902.871 3962.393, 1912.178 3966.049, 1921.486 3969.705, 1930.794 3973.361, 1940.102 3977.017, 1949.409 3980.673, 1958.717 3984.329, 1968.025 3987.985, 1977.332 3991.642, 1986.640 3995.298, 1995.948 3998.954, 2005.255 4002.610, 2014.563 4006.266, 2023.871 4009.922, 2033.178 4013.604, 2042.554 4015.540, 2052.365 4017.475, 2062.176 4019.411, 2071.987 4021.346, 2081.797 4023.281, 2091.608 4025.217, 2101.419 4027.152, 2111.230 4029.088, 2121.041 4031.023, 2130.852 4032.959, 2140.663 4034.894, 2150.474 4036.829, 2160.285 4038.765, 2170.096 4040.700, 2179.907 4042.636, 2189.718 4044.571, 2199.529 4046.507, 2209.339 4048.442, 2219.150 4050.377, 2228.961 4052.313, 2238.772 4054.248, 2248.583 4056.184, 2258.394 4058.119, 2268.205 4060.054, 2278.016 4061.990, 2287.827 4063.925, 2297.638 4065.861, 2307.449 4067.796, 2317.260 4069.732, 2327.070 4071.667, 2336.881 4073.602, 2346.692 4075.538, 2356.503 4077.473, 2366.314 4079.409, 2376.125 4081.344, 2385.936 4083.280, 2395.747 4085.215, 2405.558 4087.150, 2415.369 4089.086, 2425.180 4091.021, 2434.991 4092.957, 2444.802 4094.892, 2454.612 4096.828, 2464.423 4098.763, 2474.234 4100.698, 2484.045 4102.634, 2493.856 4104.569, 2503.667 4106.504, 2513.478 4108.440, 2523.289 4110.375, 2533.100 4112.311, 2542.911 4114.246, 2552.722 4117.034, 2566.854 4120.817, 2576.111 4124.600, 2585.368 4128.382, 2594.625 4132.165, 2603.882 4135.948, 2613.139 4138.500, 2619.383 4148.500, 2619.383 4158.500, 2619.383 4168.500, 2619.383 4178.500, 2619.383 4188.500, 2619.383 4198.500, 2619.383 4208.500, 2619.383 4218.500, 2619.383 4228.500, 2619.383 4238.500, 2619.383 4248.500, 2619.383 4258.500, 2619.383 4268.500, 2619.383 4278.500, 2619.383 4288.500, 2619.383 4298.500, 2619.383 4308.500, 2619.383 4318.500, 2619.383 4328.500, 2619.383 4338.500, 2619.383 4348.500, 2619.383 4358.500, 2619.383 4368.500, 2619.383 4378.500, 2619.383 4388.500, 2619.383 4398.500, 2619.383 4408.500, 2619.383 4418.500, 2619.383 4428.500, 2619.383 4436.517, 2619.383 4446.517, 2619.383 4456.517, 2619.383 4466.517, 2619.383 4476.517, 2619.383 4486.517, 2619.383 4496.517, 2619.383 4506.517, 2619.383 4516.517, 2619.383 4526.517, 2619.383 4536.517, 2619.383 4546.517, 2619.383 4556.517, 2619.383 4566.517, 2619.383 4576.517, 2619.383 4586.517, 2619.383 4596.517, 2619.383 4606.517, 2619.383 4616.517, 2619.383 4626.517, 2619.383 4636.517, 2619.383 4646.517, 2619.383 4656.517, 2619.383 4666.517, 2619.383 4676.517, 2619.383 4686.517, 2619.383 4699.073, 2619.383 4709.073, 2619.383 4719.073, 2619.383 4729.073, 2619.383 4739.073, 2619.383 4749.073, 2619.383 4759.073, 2619.383 4769.073, 2619.383 4772.804, 2619.383 4782.804, 2619.383 4792.804, 2619.383 4802.804, 2619.383 4812.804, 2619.383 4822.804, 2619.383 4832.804, 2619.383 4842.804, 2619.383 4852.804, 2619.383 4862.804, 2619.383 4872.804, 2619.383 4882.804, 2619.383 4892.804, 2619.383 4902.804, 2619.383 4912.804, 2619.383 4922.804, 2619.383 4932.804, 2619.383 4942.804, 2619.383 4952.804, 2619.383 4962.804, 2619.383 4972.804, 2619.383 4982.804, 2619.383 4992.804, 2619.383 5002.804, 2619.383 5012.804, 2619.383 5022.804, 2619.383 5032.804, 2619.383 5042.804, 2619.383 5052.804, 2619.383 5062.804, 2619.383 5072.804, 2619.383 5082.804, 2619.383 5092.804, 2619.383 5102.804, 2619.383 5112.804, 2619.383 5122.804, 2619.383 5132.804, 2619.383 5142.804, 2619.383 5152.804, 2619.383 5162.804, 2619.383 5172.804, 2619.383 5182.804, 2619.383 5192.804, 2619.383 5201.085, 2619.383 5211.085, 2619.383 5221.085, 2619.383 5231.085, 2619.383 5241.085, 2619.383 5251.085, 2619.383 5261.085, 2619.383 5271.085, 2619.383 5281.085, 2619.383 5291.085, 2619.383 5301.085, 2619.383 5311.085, 2619.383 5321.085, 2619.383 5331.085, 2619.383 5341.085, 2619.383 5351.085, 2619.383 5361.085, 2619.383 5371.085, 2619.383 5381.085, 2619.383 5391.085, 2619.383 5401.085, 2619.383 5411.085, 2619.383 5421.085, 2619.383 5431.085, 2619.383 5441.085, 2619.383 5451.085, 2619.383 5461.085, 2619.383 5471.085, 2619.383 5481.085, 2619.383 5491.085, 2619.383 5501.085, 2619.383 5511.085, 2619.383 5521.085, 2619.383 5531.085, 2619.383 5541.085, 2619.383 5551.085, 2619.383 5561.085, 2619.383 5571.085, 2619.383 5581.085, 2619.383 5591.085, 2619.383 5601.085, 2619.383 5611.085, 2619.383 5621.085, 2619.383 5631.085, 2619.383 5641.085, 2619.383 5651.085, 2619.383 5661.085, 2619.383 5671.085, 2619.383 5681.085, 2619.383 5691.085, 2619.383 5701.085, 2619.383 5711.085, 2619.383 5721.085, 2619.383 5731.085, 2619.383 5741.085, 2619.383 5751.085, 2619.383 5761.085, 2619.383 5771.085, 2619.383 5781.085, 2619.383 5791.085, 2619.383 5801.085, 2619.383 5807.744, 2619.383 5817.744, 2619.383 5827.744, 2619.383 5837.744, 2619.383 5847.744, 2619.383 5857.744, 2619.383 5867.744, 2619.383 5877.744, 2619.383 5887.744, 2619.383 5897.744, 2619.383 5907.744, 2619.383 5917.744, 2619.383 5927.744, 2619.383 5937.744, 2619.383 5947.744, 2619.383 5957.744, 2619.383 5967.744, 2619.383 5977.744, 2619.383 5987.744, 2619.383 5997.744, 2619.383 6007.744, 2619.383 6017.744, 2619.383 6027.744, 2619.383 6037.744, 2619.383 6047.744, 2619.383 6057.744, 2619.383 6067.744, 2619.383 6077.744, 2619.383 6087.744, 2619.383 6097.744, 2619.383 6107.744, 2619.383 6117.744, 2619.383 6127.744, 2619.383 6137.744, 2619.383 6147.744, 2619.383 6152.308, 2619.383 6150.066, 2609.638 6147.825, 2599.892 6145.584, 2590.146 6143.343, 2580.401 6141.102, 2570.655 6138.861, 2560.910 6136.620, 2551.164 6134.378, 2541.418 6132.137, 2531.673 6129.896, 2521.927 6127.655, 2512.181 6125.414, 2502.436 6123.173, 2492.690 6120.932, 2482.944 6120.278, 2480.103 6116.715, 2470.759 6113.152, 2461.416 6109.589, 2452.072 6106.026, 2442.728 6102.464, 2433.384 6098.901, 2424.041 6095.338, 2414.697 6091.775, 2405.353 6088.212, 2396.009 6084.649, 2386.666 6081.086, 2377.322 6077.523, 2367.978 6073.960, 2358.634 6070.397, 2349.291 6066.835, 2339.947 6063.272, 2330.603 6059.709, 2321.259 6056.146, 2311.916 6052.583, 2302.572 6049.021, 2293.228 6044.890, 2282.397 6040.769, 2273.286 6036.647, 2264.175 6032.525, 2255.064 6028.404, 2245.953 6024.282, 2236.842 6020.161, 2227.731 6016.158, 2218.883 6011.528, 2210.020 6006.898, 2201.156 6002.268, 2192.293 5997.637, 2183.429 5993.007, 2174.566 5988.376, 2165.702 5983.747, 2156.839 5979.116, 2147.975 5974.486, 2139.112 5969.855, 2130.249 5965.225, 2121.385 5960.595, 2112.522 5955.965, 2103.658 5951.334, 2094.795 5946.704, 2085.931 5942.074, 2077.068 5937.444, 2068.205 5932.813, 2059.341 5928.183, 2050.478 5923.553, 2041.614 5918.922, 2032.751 5914.292, 2023.887 5909.662, 2015.024 5905.032, 2006.160 5900.401, 1997.297 5895.771, 1988.434 5891.141, 1979.570 5886.511, 1970.707 5881.880, 1961.843 5877.250, 1952.980 5872.620, 1944.116 5867.989, 1935.253 5863.359, 1926.389 5858.729, 1917.526 5854.099, 1908.663 5849.468, 1899.799 5844.838, 1890.936 5840.208, 1882.072 5835.578, 1873.209 5830.947, 1864.345 5826.317, 1855.482 5821.687, 1846.619 5817.057, 1837.755 5812.426, 1828.892 5807.796, 1820.028 5803.166, 1811.165 5798.535, 1802.301 5793.905, 1793.438 5789.275, 1784.574 5784.645, 1775.711 5780.014, 1766.848 5775.953, 1759.074 " />
            <path fill="none" stroke-width="3.0" stroke-linecap="butt" stroke-opacity="1.0" stroke="rgb(0, 0, 0)" stroke-linejoin="round" d=" M 3648.264, 830.187 3651.267, 839.725 3654.270, 849.264 3657.273, 858.802 3660.275, 868.341 3663.278, 877.879 3666.281, 887.418 3669.284, 896.956 3672.287, 906.495 3675.290, 916.033 3678.292, 925.572 3681.295, 935.110 3684.298, 944.649 3687.301, 954.187 3690.304, 963.726 3693.307, 973.264 3696.310, 982.803 3699.312, 992.341 3702.315, 1001.880 3705.318, 1011.418 3708.321, 1020.957 3711.324, 1030.495 3714.327, 1040.034 3717.330, 1049.572 3720.332, 1059.111 3723.335, 1068.649 3726.338, 1078.188 3729.341, 1087.726 3732.344, 1097.265 3735.347, 1106.803 3738.349, 1116.342 3741.352, 1125.880 3744.355, 1135.419 3747.358, 1144.957 3750.361, 1154.495 3753.364, 1164.034 3756.366, 1173.573 3759.369, 1183.111 3762.372, 1192.650 3765.375, 1202.188 3768.378, 1211.727 3771.381, 1221.265 3774.384, 1230.803 3777.386, 1240.342 3780.389, 1249.880 3783.392, 1259.419 3786.395, 1268.958 3789.398, 1278.496 3792.401, 1288.035 3795.404, 1297.573 3798.406, 1307.111 3801.409, 1316.650 3804.412, 1326.188 3807.415, 1335.727 3810.418, 1345.266 3813.421, 1354.804 3816.423, 1364.343 3819.426, 1373.881 3823.180, 1385.803 " />
            <path fill="none" stroke-width="3.0" stroke-linecap="butt" stroke-opacity="1.0" stroke="rgb(0, 0, 0)" stroke-linejoin="round" d=" M 3991.534, 580.350 3989.016, 577.768 3986.629, 575.063 3984.380, 572.243 3982.274, 569.313 3980.317, 566.284 3978.514, 563.161 3976.868, 559.950 3975.385, 556.662 3974.067, 553.304 3972.918, 549.885 3971.941, 546.413 3971.138, 542.896 3970.512, 539.344 3970.063, 535.765 3969.794, 532.168 3969.704, 528.562 3969.794, 524.956 3970.063, 521.359 3970.512, 517.780 3971.138, 514.228 3971.941, 510.710 3972.918, 507.239 3974.067, 503.820 3975.385, 500.462 3976.868, 497.174 3978.514, 493.964 3980.317, 490.840 3982.274, 487.810 3984.380, 484.881 3986.629, 482.061 3989.016, 479.357 3991.534, 476.774 3994.178, 474.321 3996.942, 472.003 3999.817, 469.824 4002.797, 467.793 4005.875, 465.912 4009.043, 464.186 4012.293, 462.621 4015.617, 461.220 4019.006, 459.987 4022.453, 458.923 4025.949, 458.033 4029.484, 457.319 4033.051, 456.781 4036.640, 456.422 4040.243, 456.242 4043.850, 456.242 4047.453, 456.422 4051.042, 456.781 4054.609, 457.319 4058.145, 458.033 4061.640, 458.923 4065.087, 459.987 4068.476, 461.220 4071.800, 462.621 4075.050, 464.186 4078.218, 465.912 4081.296, 467.793 4084.276, 469.824 4087.152, 472.003 4089.915, 474.321 4092.559, 476.774 4095.078, 479.357 4097.464, 482.061 4099.713, 484.881 4101.819, 487.810 4103.776, 490.840 4105.580, 493.964 4107.225, 497.174 4108.708, 500.462 4110.026, 503.820 4111.175, 507.239 4112.152, 510.710 4112.955, 514.228 4113.582, 517.780 4114.030, 521.359 4114.299, 524.956 4114.389, 528.562 4114.299, 532.168 4114.030, 535.765 4113.582, 539.344 4112.955, 542.896 4112.152, 546.413 4111.175, 549.885 4110.026, 553.304 4108.708, 556.662 4107.225, 559.950 4105.580, 563.161 4103.776, 566.284 4101.819, 569.313 4099.713, 572.243 4097.464, 575.063 4095.078, 577.768 4092.559, 580.350 4089.915, 582.803 4087.152, 585.122 4084.276, 587.300 4081.296, 589.332 4078.218, 591.212 4075.050, 592.938 4071.800, 594.502 4068.476, 595.904 4065.087, 597.137 4061.640, 598.200 4058.145, 599.091 4054.609, 599.806 4051.042, 600.343 4047.453, 600.702 4043.850, 600.882 4040.243, 600.882 4036.640, 600.702 4033.051, 600.343 4029.484, 599.806 4025.949, 599.091 4022.453, 598.200 4019.006, 597.137 4015.617, 595.904 4012.293, 594.502 4009.043, 592.938 4005.875, 591.212 4002.797, 589.332 3999.817, 587.300 3996.942, 585.122 3994.178, 582.803 3991.534, 580.350 " />
            <path fill="none" stroke-width="3.0" stroke-linecap="butt" stroke-opacity="1.0" stroke="rgb(0, 0, 0)" stroke-linejoin="round" d=" M 3485.334, 24.513 3489.630, 33.543 3493.927, 42.573 3498.223, 51.603 3502.520, 60.633 3506.816, 69.663 3511.112, 78.693 3515.409, 87.723 3519.705, 96.753 3524.001, 105.783 3528.298, 114.813 3532.594, 123.843 3534.949, 128.792 3539.616, 137.636 3540.519, 139.348 3542.590, 149.131 3544.661, 158.914 3544.877, 159.937 3546.684, 169.773 3548.490, 179.608 3550.296, 189.444 3552.102, 199.279 3553.909, 209.115 3555.715, 218.950 3557.521, 228.786 3559.327, 238.621 3561.134, 248.457 3562.940, 258.292 3564.746, 268.128 3566.265, 276.400 3568.494, 286.148 3570.722, 295.896 3572.951, 305.645 3575.180, 315.394 3577.408, 325.142 3579.637, 334.890 3581.866, 344.639 3584.094, 354.387 3586.323, 364.136 3588.552, 373.885 3589.364, 377.437 3590.595, 387.361 3591.827, 397.284 3593.059, 407.208 3594.290, 417.132 3595.521, 427.056 3596.753, 436.980 3597.985, 446.904 3599.216, 456.828 3600.448, 466.751 3601.679, 476.676 3602.911, 486.599 3604.142, 496.523 3605.374, 506.447 3606.605, 516.371 3607.837, 526.295 3609.069, 536.219 3610.300, 546.143 3611.531, 556.066 3612.763, 565.990 3613.995, 575.914 3615.226, 585.838 3616.458, 595.762 3617.689, 605.686 3618.921, 615.610 3620.152, 625.534 3621.384, 635.457 3622.615, 645.381 3623.847, 655.305 3625.079, 665.229 3626.310, 675.153 3627.542, 685.077 3628.773, 695.001 3630.005, 704.925 3631.236, 714.848 3632.468, 724.772 3633.699, 734.696 3634.931, 744.620 3636.162, 754.544 3637.394, 764.468 3638.625, 774.392 3640.068, 786.020 3641.982, 795.835 3643.895, 805.650 3645.808, 815.465 3646.425, 818.633 3647.997, 828.508 3648.264, 830.187 " />
            <path fill="none" stroke-width="3.0" stroke-linecap="butt" stroke-opacity="1.0" stroke="rgb(0, 0, 0)" stroke-linejoin="round" d=" M 4569.009, 24.824 4559.009, 24.821 4549.009, 24.818 4539.009, 24.815 4529.009, 24.812 4519.009, 24.810 4509.009, 24.807 4499.009, 24.804 4489.009, 24.801 4479.009, 24.798 4469.009, 24.795 4459.009, 24.792 4449.009, 24.790 4439.009, 24.787 4429.009, 24.784 4419.009, 24.781 4409.009, 24.778 4405.224, 24.777 4395.224, 24.774 4385.224, 24.771 4375.224, 24.768 4365.224, 24.765 4355.224, 24.763 4345.224, 24.760 4335.224, 24.757 4325.224, 24.754 4322.302, 24.753 4312.302, 24.750 4302.302, 24.747 4292.302, 24.745 4282.302, 24.742 4272.302, 24.739 4262.302, 24.736 4252.302, 24.733 4242.302, 24.730 4232.302, 24.727 4222.302, 24.724 4212.302, 24.721 4202.302, 24.719 4192.302, 24.716 4182.302, 24.713 4172.302, 24.710 4162.302, 24.707 4152.302, 24.704 4142.302, 24.701 4132.302, 24.698 4122.302, 24.696 4112.302, 24.693 4102.302, 24.690 4092.302, 24.687 4082.302, 24.684 4072.302, 24.681 4062.302, 24.678 4052.302, 24.676 4042.302, 24.673 4032.302, 24.670 4022.302, 24.667 4012.302, 24.664 4002.302, 24.661 3992.302, 24.658 3982.302, 24.656 3972.302, 24.653 3962.302, 24.650 3952.302, 24.647 3942.302, 24.644 3932.302, 24.641 3922.302, 24.638 3912.302, 24.635 3902.302, 24.632 3892.302, 24.630 3882.302, 24.627 3872.302, 24.624 3862.302, 24.621 3852.302, 24.618 3842.302, 24.615 3832.302, 24.612 3822.302, 24.609 3812.302, 24.607 3802.302, 24.604 3792.302, 24.601 3782.302, 24.598 3772.302, 24.595 3762.302, 24.592 3755.660, 24.590 3745.660, 24.587 3735.660, 24.584 3725.660, 24.582 3715.660, 24.579 3705.660, 24.576 3695.660, 24.573 3685.660, 24.570 3675.660, 24.567 3665.660, 24.564 3655.660, 24.562 3645.660, 24.559 3635.660, 24.556 3630.876, 24.554 3620.876, 24.552 3610.876, 24.549 3600.876, 24.546 3590.876, 24.543 3580.876, 24.540 3570.876, 24.537 3560.876, 24.534 3550.876, 24.531 3540.876, 24.529 3530.876, 24.526 3520.876, 24.523 3510.876, 24.520 3500.876, 24.517 3490.876, 24.514 3485.334, 24.513 " />
            <path fill="none" stroke-width="3.0" stroke-linecap="butt" stroke-opacity="1.0" stroke="rgb(0, 0, 0)" stroke-linejoin="round" d=" M 5775.953, 1759.074 5774.692, 1749.154 5773.431, 1739.234 5772.169, 1729.314 5770.908, 1719.393 5769.646, 1709.473 5768.385, 1699.553 5767.124, 1689.633 5765.862, 1679.713 5764.601, 1669.793 5763.339, 1659.873 5762.078, 1649.953 5760.817, 1640.033 5759.555, 1630.112 5758.294, 1620.192 5757.033, 1610.272 5755.771, 1600.352 5754.510, 1590.432 5753.249, 1580.512 5751.987, 1570.592 5750.726, 1560.672 5749.464, 1550.751 5748.203, 1540.831 5746.941, 1530.911 5745.680, 1520.991 5744.418, 1511.071 5743.157, 1501.151 5741.896, 1491.231 5740.634, 1481.310 5739.373, 1471.390 5738.112, 1461.470 5736.850, 1451.550 5735.589, 1441.630 5734.328, 1431.710 5733.066, 1421.790 5731.805, 1411.870 5730.543, 1401.949 5729.282, 1392.029 5728.021, 1382.109 5726.759, 1372.189 5725.498, 1362.269 5724.236, 1352.349 5722.953, 1342.253 5718.421, 1333.339 5713.890, 1324.424 5709.358, 1315.510 5704.827, 1306.596 5700.295, 1297.681 5695.763, 1288.767 5691.232, 1279.853 5686.700, 1270.938 5682.169, 1262.024 5677.637, 1253.110 5673.105, 1244.196 5668.574, 1235.281 5664.042, 1226.367 5659.511, 1217.453 5654.979, 1208.538 5650.448, 1199.624 5646.236, 1191.339 5641.515, 1182.524 5636.793, 1173.709 5632.072, 1164.894 5627.350, 1156.079 5622.629, 1147.264 5621.054, 1144.323 " />
            <path fill="none" stroke-width="3.0" stroke-linecap="butt" stroke-opacity="1.0" stroke="rgb(0, 0, 0)" stroke-linejoin="round" d=" M 5621.054, 1144.323 5620.002, 1134.379 5618.950, 1124.434 5617.898, 1114.490 5616.847, 1104.545 5615.794, 1094.601 5614.743, 1084.656 5613.691, 1074.712 5612.639, 1064.767 5611.587, 1054.822 5610.536, 1044.878 5609.484, 1034.933 5608.432, 1024.989 5607.380, 1015.044 5606.328, 1005.100 5605.276, 995.155 5604.225, 985.211 5603.173, 975.266 5602.121, 965.322 5601.069, 955.377 5600.018, 945.433 5598.965, 935.488 5597.914, 925.544 5596.862, 915.599 5595.810, 905.655 5594.758, 895.710 5593.707, 885.766 5592.655, 875.821 5591.603, 865.876 5590.551, 855.932 5589.499, 845.987 5588.447, 836.043 5587.396, 826.098 5586.344, 816.154 5585.292, 806.209 5584.240, 796.265 5583.188, 786.320 5582.136, 776.376 5581.084, 766.431 5580.150, 757.596 5578.801, 747.687 5577.452, 737.779 5576.103, 727.870 5574.753, 717.962 5573.404, 708.053 5572.055, 698.144 5571.657, 695.219 5569.494, 685.456 5567.332, 675.693 5565.169, 665.929 5563.006, 656.166 5560.844, 646.402 5558.681, 636.639 5556.519, 626.876 5554.356, 617.112 5552.193, 607.349 5550.030, 597.586 5547.868, 587.822 5545.705, 578.059 5543.542, 568.296 5541.380, 558.532 5539.217, 548.769 5537.055, 539.006 5534.892, 529.242 5532.729, 519.479 5530.567, 509.716 5528.404, 499.952 5526.242, 490.189 5524.079, 480.426 5521.917, 470.662 5519.754, 460.899 5517.591, 451.135 5515.428, 441.372 5513.266, 431.609 5511.103, 421.845 5508.940, 412.082 5506.778, 402.319 5504.615, 392.555 5502.453, 382.792 5500.290, 373.029 5498.127, 363.265 5495.965, 353.502 5493.802, 343.739 5491.640, 333.975 5489.477, 324.212 5487.314, 314.448 5485.152, 304.685 5482.989, 294.922 5480.826, 285.158 5478.664, 275.395 5476.501, 265.632 5474.338, 255.868 5472.176, 246.105 5470.013, 236.342 5467.851, 226.578 5465.688, 216.815 5463.525, 207.052 5461.363, 197.288 5459.200, 187.525 5457.038, 177.761 5454.875, 167.998 5452.712, 158.235 5450.549, 148.471 5448.387, 138.708 5446.224, 128.945 5444.062, 119.181 5441.899, 109.418 5439.736, 99.655 5437.574, 89.891 5434.307, 75.143 " />
            <path fill="none" stroke-width="3.0" stroke-linecap="butt" stroke-opacity="1.0" stroke="rgb(0, 0, 0)" stroke-linejoin="round" d=" M 5425.639, 25.071 5415.639, 25.068 5405.639, 25.065 5395.639, 25.062 5385.639, 25.060 5375.639, 25.057 5365.639, 25.054 5355.639, 25.051 5345.639, 25.048 5335.639, 25.045 5325.639, 25.042 5315.639, 25.040 5305.639, 25.037 5295.639, 25.034 5285.639, 25.031 5275.639, 25.028 5265.639, 25.025 5255.639, 25.022 5245.639, 25.019 5235.639, 25.017 5225.639, 25.014 5215.639, 25.011 5205.639, 25.008 5195.639, 25.005 5185.639, 25.002 5175.639, 24.999 5165.639, 24.996 5155.639, 24.993 5145.639, 24.991 5135.639, 24.988 5125.639, 24.985 5115.639, 24.982 5105.639, 24.979 5095.639, 24.976 5085.639, 24.973 5075.639, 24.970 5065.639, 24.968 5055.639, 24.965 5045.639, 24.962 5035.639, 24.959 5025.639, 24.956 5015.639, 24.953 5005.639, 24.950 4995.639, 24.948 4985.639, 24.945 4975.639, 24.942 4965.639, 24.939 4955.639, 24.936 4945.639, 24.933 4935.639, 24.930 4925.639, 24.927 4915.639, 24.925 4905.639, 24.922 4895.639, 24.919 4885.639, 24.916 4875.639, 24.913 4865.639, 24.910 4855.639, 24.907 4845.639, 24.904 4835.639, 24.901 4825.639, 24.899 4815.639, 24.896 4805.639, 24.893 4795.639, 24.890 4785.639, 24.887 4775.639, 24.884 4765.639, 24.881 4755.639, 24.878 4745.639, 24.875 4735.639, 24.873 4725.639, 24.870 4715.639, 24.867 4705.639, 24.864 4695.639, 24.861 4685.639, 24.858 4675.639, 24.855 4665.639, 24.853 4657.086, 24.850 4656.178, 24.850 4654.021, 24.849 4644.021, 24.846 4634.021, 24.843 4624.021, 24.840 4614.021, 24.837 4605.447, 24.835 " />
            <path fill="none" stroke-width="3.0" stroke-linecap="butt" stroke-opacity="1.0" stroke="rgb(0, 0, 0)" stroke-linejoin="round" d=" M 4654.021, 24.849 4650.958, 24.848 4648.035, 24.847 4647.907, 24.847 4644.876, 24.847 4644.760, 24.847 4641.875, 24.846 4633.373, 24.843 4623.373, 24.840 4613.373, 24.837 4611.657, 24.837 4611.598, 24.837 4605.447, 24.835 4595.447, 24.832 4588.932, 24.830 4578.932, 24.827 4568.932, 24.824 4558.932, 24.821 4548.932, 24.818 4538.932, 24.815 4528.932, 24.812 4518.932, 24.810 4508.932, 24.807 4498.932, 24.804 4488.932, 24.801 4478.932, 24.798 4468.932, 24.795 4458.932, 24.792 4448.932, 24.790 4438.932, 24.787 4428.932, 24.784 4418.932, 24.781 4408.932, 24.778 4398.932, 24.775 4388.932, 24.772 4378.932, 24.769 4368.932, 24.767 4358.932, 24.764 4348.932, 24.761 4338.932, 24.758 4328.932, 24.755 4322.302, 24.753 " />
            <path fill="none" stroke-width="3.0" stroke-linecap="butt" stroke-opacity="1.0" stroke="rgb(0, 0, 0)" stroke-linejoin="round" d=" M 5434.307, 75.143 5432.976, 65.232 5431.645, 55.321 5430.299, 45.305 5428.055, 35.560 5425.811, 25.815 5425.639, 25.071 " />
            <path fill="none" stroke-width="3.0" stroke-linecap="butt" stroke-opacity="1.0" stroke="rgb(0, 0, 0)" stroke-linejoin="round" d=" M 4588.932, 24.830 4585.918, 24.829 4583.074, 24.828 4582.945, 24.828 4580.703, 24.828 4580.023, 24.828 4577.160, 24.827 4574.364, 24.826 4573.289, 24.826 4573.277, 24.826 4572.800, 24.825 4572.754, 24.825 4571.644, 24.825 4561.644, 24.822 4551.644, 24.819 4541.644, 24.816 4531.644, 24.813 4521.644, 24.810 4511.644, 24.808 4501.644, 24.805 4491.644, 24.802 4481.644, 24.799 4471.644, 24.796 4461.644, 24.793 4451.644, 24.790 4441.644, 24.787 4431.644, 24.785 4421.644, 24.782 4411.644, 24.779 4405.224, 24.777 " />
            <path fill="none" stroke-width="3.0" stroke-linecap="butt" stroke-opacity="1.0" stroke="rgb(0, 0, 0)" stroke-linejoin="round" d=" M 4571.644, 24.825 4569.009, 24.824 " />
            <path fill="none" stroke-width="3.0" stroke-linecap="butt" stroke-opacity="1.0" stroke="rgb(0, 0, 0)" stroke-linejoin="round" d=" M 4463.326, 1175.791 4460.807, 1173.209 4458.420, 1170.504 4456.171, 1167.685 4454.066, 1164.755 4452.109, 1161.725 4450.305, 1158.602 4448.660, 1155.391 4447.176, 1152.104 4445.858, 1148.746 4444.709, 1145.326 4443.732, 1141.854 4442.930, 1138.338 4442.303, 1134.786 4441.855, 1131.206 4441.585, 1127.609 4441.496, 1124.003 4441.585, 1120.397 4441.855, 1116.800 4442.303, 1113.221 4442.930, 1109.668 4443.732, 1106.152 4444.709, 1102.680 4445.858, 1099.261 4447.176, 1095.903 4448.660, 1092.615 4450.305, 1089.405 4452.109, 1086.281 4454.066, 1083.252 4456.171, 1080.323 4458.420, 1077.502 4460.807, 1074.798 4463.326, 1072.215 4465.970, 1069.762 4468.733, 1067.444 4471.608, 1065.266 4474.589, 1063.234 4477.667, 1061.352 4480.834, 1059.627 4484.084, 1058.062 4487.408, 1056.661 4490.798, 1055.427 4494.245, 1054.365 4497.740, 1053.474 4501.276, 1052.759 4504.843, 1052.223 4508.432, 1051.863 4512.035, 1051.683 4515.642, 1051.683 4519.244, 1051.863 4522.833, 1052.223 4526.400, 1052.759 4529.936, 1053.474 4533.432, 1054.365 4536.878, 1055.427 4540.268, 1056.661 4543.592, 1058.062 4546.841, 1059.627 4550.009, 1061.352 4553.087, 1063.234 4556.067, 1065.266 4558.943, 1067.444 4561.706, 1069.762 4564.351, 1072.215 4566.869, 1074.798 4569.256, 1077.502 4571.505, 1080.323 4573.610, 1083.252 4575.567, 1086.281 4577.371, 1089.405 4579.017, 1092.615 4580.500, 1095.903 4581.818, 1099.261 4582.967, 1102.680 4583.944, 1106.152 4584.747, 1109.668 4585.373, 1113.221 4585.821, 1116.800 4586.091, 1120.397 4586.181, 1124.003 4586.091, 1127.609 4585.821, 1131.206 4585.373, 1134.786 4584.747, 1138.338 4583.944, 1141.854 4582.967, 1145.326 4581.818, 1148.746 4580.500, 1152.104 4579.017, 1155.391 4577.371, 1158.602 4575.567, 1161.725 4573.610, 1164.755 4571.505, 1167.685 4569.256, 1170.504 4566.869, 1173.209 4564.351, 1175.791 4561.706, 1178.244 4558.943, 1180.563 4556.067, 1182.741 4553.087, 1184.773 4550.009, 1186.654 4546.841, 1188.379 4543.592, 1189.944 4540.268, 1191.345 4536.878, 1192.578 4533.432, 1193.642 4529.936, 1194.532 4526.400, 1195.247 4522.833, 1195.784 4519.244, 1196.143 4515.642, 1196.324 4512.035, 1196.324 4508.432, 1196.143 4504.843, 1195.784 4501.276, 1195.247 4497.740, 1194.532 4494.245, 1193.642 4490.798, 1192.578 4487.408, 1191.345 4484.084, 1189.944 4480.834, 1188.379 4477.667, 1186.654 4474.589, 1184.773 4471.608, 1182.741 4468.733, 1180.563 4465.970, 1178.244 4463.326, 1175.791 " />
            <path fill="none" stroke-width="3.0" stroke-linecap="butt" stroke-opacity="1.0" stroke="rgb(0, 0, 0)" stroke-linejoin="round" d=" M 3485.334, 24.513 3495.334, 24.516 3505.334, 24.519 3515.334, 24.521 3525.334, 24.524 3535.334, 24.527 3545.334, 24.530 3555.334, 24.533 3565.334, 24.536 3575.334, 24.538 3585.334, 24.541 3595.334, 24.544 3605.334, 24.547 3615.334, 24.550 3625.334, 24.552 3635.334, 24.555 3646.635, 24.559 3648.371, 24.559 3658.371, 24.562 3668.371, 24.565 3678.371, 24.568 3688.371, 24.571 3698.371, 24.574 3708.371, 24.577 3718.371, 24.580 3728.371, 24.583 3738.371, 24.585 3748.371, 24.588 3755.660, 24.590 " />
            <path fill="none" stroke-width="3.0" stroke-linecap="butt" stroke-opacity="1.0" stroke="rgb(0, 0, 0)" stroke-linejoin="round" d=" M 4648.035, 24.847 4645.583, 24.847 4640.885, 24.845 4636.208, 24.844 4631.567, 24.842 4621.567, 24.840 4611.598, 24.837 " />
            <path fill="none" stroke-width="3.0" stroke-linecap="butt" stroke-opacity="1.0" stroke="rgb(0, 0, 0)" stroke-linejoin="round" d=" M 4573.289, 24.826 4580.124, 24.828 4579.941, 24.828 4575.473, 24.826 4573.302, 24.825 4572.754, 24.825 " />
            <path fill="none" stroke-width="3.0" stroke-linecap="butt" stroke-opacity="1.0" stroke="rgb(0, 0, 0)" stroke-linejoin="round" d=" M 23.713, 2619.383 33.713, 2619.383 43.713, 2619.383 53.713, 2619.383 63.713, 2619.383 73.713, 2619.383 83.713, 2619.383 93.713, 2619.383 103.713, 2619.383 113.713, 2619.383 123.713, 2619.383 133.713, 2619.383 143.713, 2619.383 153.713, 2619.383 163.713, 2619.383 173.713, 2619.383 183.713, 2619.383 193.713, 2619.383 203.713, 2619.383 213.713, 2619.383 223.713, 2619.383 233.713, 2619.383 243.713, 2619.383 253.713, 2619.383 263.713, 2619.383 273.713, 2619.383 283.713, 2619.383 293.713, 2619.383 303.713, 2619.383 313.713, 2619.383 323.713, 2619.383 333.713, 2619.383 343.713, 2619.383 353.713, 2619.383 363.713, 2619.383 373.713, 2619.383 383.713, 2619.383 393.713, 2619.383 403.713, 2619.383 413.713, 2619.383 423.713, 2619.383 433.713, 2619.383 443.713, 2619.383 453.713, 2619.383 463.713, 2619.383 473.713, 2619.383 483.713, 2619.383 493.713, 2619.383 503.713, 2619.383 513.713, 2619.383 523.713, 2619.383 533.713, 2619.383 543.713, 2619.383 553.713, 2619.383 563.713, 2619.383 573.713, 2619.383 583.713, 2619.383 593.713, 2619.383 603.713, 2619.383 613.713, 2619.383 623.713, 2619.383 633.713, 2619.383 643.713, 2619.383 653.713, 2619.383 663.713, 2619.383 673.713, 2619.383 683.713, 2619.383 693.713, 2619.383 703.713, 2619.383 713.713, 2619.383 723.713, 2619.383 733.713, 2619.383 743.713, 2619.383 753.713, 2619.383 763.713, 2619.383 773.713, 2619.383 783.713, 2619.383 793.713, 2619.383 803.713, 2619.383 813.713, 2619.383 823.713, 2619.383 833.713, 2619.383 843.713, 2619.383 853.713, 2619.383 863.713, 2619.383 873.713, 2619.383 883.713, 2619.383 893.713, 2619.383 903.713, 2619.383 913.713, 2619.383 923.713, 2619.383 933.713, 2619.383 943.713, 2619.383 953.713, 2619.383 963.713, 2619.383 973.713, 2619.383 983.713, 2619.383 993.713, 2619.383 1003.713, 2619.383 1013.713, 2619.383 1023.713, 2619.383 1033.713, 2619.383 1043.713, 2619.383 1053.713, 2619.383 1063.713, 2619.383 1073.713, 2619.383 1083.713, 2619.383 1093.713, 2619.383 1103.713, 2619.383 1113.713, 2619.383 1123.713, 2619.383 1133.713, 2619.383 1143.713, 2619.383 1153.713, 2619.383 1163.713, 2619.383 1173.713, 2619.383 1183.713, 2619.383 1193.713, 2619.383 1203.713, 2619.383 1213.713, 2619.383 1223.713, 2619.383 1233.713, 2619.383 1243.713, 2619.383 1253.713, 2619.383 1263.713, 2619.383 1273.713, 2619.383 1283.713, 2619.383 1293.713, 2619.383 1303.713, 2619.383 1313.713, 2619.383 1323.713, 2619.383 1333.713, 2619.383 1343.713, 2619.383 1353.713, 2619.383 1363.713, 2619.383 1373.713, 2619.383 1383.713, 2619.383 1393.713, 2619.383 1403.713, 2619.383 1413.713, 2619.383 1423.713, 2619.383 1433.713, 2619.383 1443.713, 2619.383 1453.713, 2619.383 1463.713, 2619.383 1473.713, 2619.383 1483.713, 2619.383 1493.713, 2619.383 1503.713, 2619.383 1513.713, 2619.383 1523.713, 2619.383 1533.713, 2619.383 1543.713, 2619.383 1553.713, 2619.383 1563.713, 2619.383 1573.713, 2619.383 1583.713, 2619.383 1593.713, 2619.383 1603.713, 2619.383 1613.713, 2619.383 1623.713, 2619.383 1633.713, 2619.383 1643.713, 2619.383 1653.713, 2619.383 1663.713, 2619.383 1673.713, 2619.383 1683.713, 2619.383 1693.713, 2619.383 1703.713, 2619.383 1713.713, 2619.383 1723.713, 2619.383 1733.713, 2619.383 1743.713, 2619.383 1753.713, 2619.383 1763.713, 2619.383 1773.713, 2619.383 1783.713, 2619.383 1793.713, 2619.383 1803.713, 2619.383 1813.713, 2619.383 1823.713, 2619.383 1833.713, 2619.383 1843.713, 2619.383 1853.713, 2619.383 1879.656, 2619.383 " />
            <path fill="none" stroke-width="3.0" stroke-linecap="butt" stroke-opacity="1.0" stroke="rgb(0, 0, 0)" stroke-linejoin="round" d=" M 3646.635, 24.559 3636.635, 24.556 3626.635, 24.553 3616.635, 24.550 3606.635, 24.547 3596.635, 24.544 3586.635, 24.542 3576.635, 24.539 3566.635, 24.536 3556.635, 24.533 3546.635, 24.530 3536.635, 24.527 3526.635, 24.525 3516.635, 24.522 3506.635, 24.519 3496.635, 24.516 3485.334, 24.513 " />
            <path fill="none" stroke-width="3.0" stroke-linecap="butt" stroke-opacity="1.0" stroke="rgb(0, 0, 0)" stroke-linejoin="round" d=" M 2455.168, 24.216 2445.168, 24.213 2435.168, 24.210 2425.168, 24.207 2415.168, 24.204 2405.168, 24.201 2395.168, 24.198 2385.168, 24.196 2375.168, 24.193 2365.168, 24.190 2355.168, 24.187 2345.168, 24.184 2335.168, 24.181 2325.168, 24.178 2315.168, 24.176 2305.168, 24.173 2295.168, 24.170 2285.168, 24.167 2275.168, 24.164 2265.168, 24.161 2255.168, 24.158 2245.168, 24.155 2235.168, 24.152 2225.168, 24.150 2215.168, 24.147 2205.168, 24.144 2195.168, 24.141 2185.168, 24.138 2175.168, 24.135 2165.168, 24.132 2155.168, 24.129 2145.168, 24.126 2135.168, 24.124 2125.168, 24.121 2115.168, 24.118 2105.168, 24.115 2095.168, 24.112 2085.168, 24.109 2075.168, 24.106 2065.168, 24.104 2055.168, 24.101 2045.168, 24.098 2035.168, 24.095 2025.168, 24.092 2015.168, 24.089 2005.168, 24.086 1995.168, 24.083 1985.168, 24.080 1975.168, 24.078 1965.168, 24.075 1955.168, 24.072 1945.168, 24.069 1935.168, 24.066 1925.168, 24.063 1915.168, 24.060 1905.168, 24.057 1895.168, 24.054 1885.168, 24.052 1875.168, 24.049 1865.168, 24.046 1855.168, 24.043 1845.168, 24.040 1835.168, 24.037 1825.168, 24.034 1815.168, 24.031 1805.168, 24.029 1795.168, 24.026 1785.168, 24.023 1775.168, 24.020 1765.168, 24.017 1755.168, 24.014 1745.168, 24.011 1735.168, 24.008 1725.168, 24.006 1715.168, 24.003 1705.168, 24.000 1695.168, 23.997 1685.168, 23.994 1675.168, 23.991 1665.168, 23.988 1655.168, 23.985 1645.168, 23.982 1635.168, 23.979 1625.168, 23.977 1615.168, 23.974 1605.168, 23.971 1595.168, 23.968 1585.168, 23.965 1575.168, 23.962 1565.168, 23.959 1555.168, 23.957 1545.168, 23.954 1535.168, 23.951 1525.168, 23.948 1515.168, 23.945 1505.168, 23.942 1495.168, 23.939 1485.168, 23.936 1475.168, 23.934 1465.168, 23.931 1455.168, 23.928 1445.168, 23.925 1435.168, 23.922 1425.168, 23.919 1415.168, 23.916 1405.168, 23.913 1395.168, 23.910 1385.168, 23.907 1375.168, 23.905 1365.168, 23.902 1355.168, 23.899 1345.168, 23.896 1335.168, 23.893 1325.168, 23.890 1315.168, 23.887 1305.168, 23.885 1295.168, 23.882 1285.168, 23.879 1275.168, 23.876 1265.168, 23.873 1255.168, 23.870 1245.168, 23.867 1235.168, 23.864 1225.168, 23.862 1215.168, 23.859 1205.168, 23.856 1195.168, 23.853 1185.168, 23.850 1175.168, 23.847 1165.168, 23.844 1155.168, 23.841 1145.168, 23.838 1135.168, 23.835 1125.168, 23.833 1115.168, 23.830 1105.168, 23.827 1095.168, 23.824 1085.168, 23.821 1075.168, 23.818 1065.168, 23.815 1055.168, 23.812 1045.168, 23.810 1035.168, 23.807 1025.168, 23.804 1015.168, 23.801 1005.168, 23.798 995.168, 23.795 985.168, 23.792 975.168, 23.790 965.168, 23.787 955.168, 23.784 945.168, 23.781 935.168, 23.778 925.168, 23.775 915.168, 23.772 905.168, 23.769 895.168, 23.766 885.168, 23.763 859.940, 23.756 " />
            <path fill="none" stroke-width="3.0" stroke-linecap="butt" stroke-opacity="1.0" stroke="rgb(0, 0, 0)" stroke-linejoin="round" d=" M 137.014, 2385.146 133.572, 2394.536 130.131, 2403.925 126.690, 2413.314 123.249, 2422.703 119.807, 2432.093 116.366, 2441.482 112.925, 2450.871 109.483, 2460.260 106.042, 2469.650 102.601, 2479.039 99.160, 2488.428 97.874, 2491.934 " />
            <path fill="none" stroke-width="3.0" stroke-linecap="butt" stroke-opacity="1.0" stroke="rgb(0, 0, 0)" stroke-linejoin="round" d=" M 190.918, 1921.755 189.763, 1931.688 188.607, 1941.621 187.452, 1951.554 186.296, 1961.487 185.141, 1971.420 183.985, 1981.353 182.830, 1991.286 181.674, 2001.219 180.519, 2011.152 179.363, 2021.085 178.208, 2031.018 177.052, 2040.951 175.897, 2050.884 174.742, 2060.817 173.586, 2070.750 172.431, 2080.683 171.275, 2090.616 170.120, 2100.549 168.964, 2110.482 167.809, 2120.415 166.653, 2130.348 165.498, 2140.281 164.342, 2150.214 163.187, 2160.147 162.031, 2170.080 160.876, 2180.013 159.720, 2189.946 158.565, 2199.879 157.410, 2209.812 156.254, 2219.745 155.099, 2229.679 153.943, 2239.612 152.788, 2249.545 151.632, 2259.478 150.477, 2269.411 149.321, 2279.344 148.166, 2289.277 147.010, 2299.210 145.855, 2309.143 144.699, 2319.076 143.544, 2329.009 142.388, 2338.942 141.233, 2348.875 140.078, 2358.808 138.922, 2368.741 137.767, 2378.674 137.014, 2385.146 " />
            <path fill="none" stroke-width="3.0" stroke-linecap="butt" stroke-opacity="1.0" stroke="rgb(0, 0, 0)" stroke-linejoin="round" d=" M 378.622, 290.250 377.533, 300.190 376.444, 310.131 375.355, 320.072 374.265, 330.012 373.176, 339.952 372.087, 349.893 370.998, 359.833 369.909, 369.774 368.820, 379.715 367.731, 389.655 366.641, 399.595 365.552, 409.536 364.463, 419.477 363.374, 429.417 362.285, 439.358 361.196, 449.298 360.107, 459.239 359.017, 469.179 357.928, 479.120 356.839, 489.060 355.750, 499.001 354.661, 508.941 353.572, 518.882 352.483, 528.822 351.393, 538.763 350.304, 548.703 349.215, 558.644 348.126, 568.584 347.037, 578.525 345.948, 588.465 344.859, 598.406 343.770, 608.346 342.680, 618.287 341.591, 628.227 340.502, 638.168 339.413, 648.108 338.324, 658.049 337.235, 667.989 336.146, 677.930 335.056, 687.870 333.967, 697.811 332.878, 707.751 331.789, 717.692 330.700, 727.632 329.611, 737.573 328.522, 747.513 327.432, 757.454 326.343, 767.394 325.254, 777.335 324.165, 787.276 323.076, 797.216 321.987, 807.156 320.898, 817.097 319.808, 827.037 318.914, 835.205 " />
            <path fill="none" stroke-width="3.0" stroke-linecap="butt" stroke-opacity="1.0" stroke="rgb(0, 0, 0)" stroke-linejoin="round" d=" M 412.176, 23.627 410.927, 33.549 409.679, 43.471 408.430, 53.393 407.182, 63.314 405.933, 73.236 404.684, 83.158 403.436, 93.079 402.187, 103.001 400.938, 112.923 399.690, 122.845 398.441, 132.766 397.192, 142.688 395.944, 152.610 394.695, 162.532 393.447, 172.453 392.198, 182.375 390.949, 192.297 389.701, 202.219 388.452, 212.140 387.203, 222.062 385.955, 231.984 384.706, 241.906 383.457, 251.827 382.209, 261.749 380.960, 271.671 379.712, 281.593 378.622, 290.250 " />
            <path fill="none" stroke-width="3.0" stroke-linecap="butt" stroke-opacity="1.0" stroke="rgb(0, 0, 0)" stroke-linejoin="round" d=" M 838.583, 23.750 838.379, 23.750 " />
            <path fill="none" stroke-width="3.0" stroke-linecap="butt" stroke-opacity="1.0" stroke="rgb(0, 0, 0)" stroke-linejoin="round" d=" M 839.425, 23.750 839.050, 23.750 838.583, 23.750 " />
            <path fill="none" stroke-width="3.0" stroke-linecap="butt" stroke-opacity="1.0" stroke="rgb(0, 0, 0)" stroke-linejoin="round" d=" M 840.348, 23.750 839.836, 23.750 839.425, 23.750 " />
            <path fill="none" stroke-width="3.0" stroke-linecap="butt" stroke-opacity="1.0" stroke="rgb(0, 0, 0)" stroke-linejoin="round" d=" M 840.573, 23.750 840.348, 23.750 " />
            <path fill="none" stroke-width="3.0" stroke-linecap="butt" stroke-opacity="1.0" stroke="rgb(0, 0, 0)" stroke-linejoin="round" d=" M 840.573, 23.750 838.379, 23.750 " />
            <path fill="none" stroke-width="3.0" stroke-linecap="butt" stroke-opacity="1.0" stroke="rgb(0, 0, 0)" stroke-linejoin="round" d=" M 840.764, 23.750 840.573, 23.750 " />
            <path fill="none" stroke-width="3.0" stroke-linecap="butt" stroke-opacity="1.0" stroke="rgb(0, 0, 0)" stroke-linejoin="round" d=" M 842.795, 23.751 842.280, 23.751 841.697, 23.751 " />
            <path fill="none" stroke-width="3.0" stroke-linecap="butt" stroke-opacity="1.0" stroke="rgb(0, 0, 0)" stroke-linejoin="round" d=" M 840.348, 23.750 838.583, 23.750 " />
            <path fill="none" stroke-width="3.0" stroke-linecap="butt" stroke-opacity="1.0" stroke="rgb(0, 0, 0)" stroke-linejoin="round" d=" M 842.795, 23.751 840.764, 23.750 " />
            <path fill="none" stroke-width="3.0" stroke-linecap="butt" stroke-opacity="1.0" stroke="rgb(0, 0, 0)" stroke-linejoin="round" d=" M 843.863, 23.752 843.194, 23.751 842.795, 23.751 " />
            <path fill="none" stroke-width="3.0" stroke-linecap="butt" stroke-opacity="1.0" stroke="rgb(0, 0, 0)" stroke-linejoin="round" d=" M 845.898, 23.752 835.898, 23.749 825.898, 23.746 815.898, 23.743 805.898, 23.740 795.898, 23.738 785.898, 23.735 775.898, 23.732 765.898, 23.729 755.898, 23.726 745.898, 23.723 735.898, 23.720 725.898, 23.717 715.898, 23.715 705.898, 23.712 695.898, 23.709 685.898, 23.706 675.898, 23.703 665.898, 23.700 655.898, 23.697 645.898, 23.694 635.898, 23.692 625.898, 23.689 615.898, 23.686 605.898, 23.683 595.898, 23.680 585.898, 23.677 575.898, 23.674 565.898, 23.671 555.898, 23.668 545.898, 23.666 535.898, 23.663 525.898, 23.660 515.898, 23.657 505.898, 23.654 495.898, 23.651 485.898, 23.648 475.898, 23.646 465.898, 23.643 455.898, 23.640 445.898, 23.637 435.898, 23.634 425.898, 23.631 412.176, 23.627 " />
            <path fill="none" stroke-width="3.0" stroke-linecap="butt" stroke-opacity="1.0" stroke="rgb(0, 0, 0)" stroke-linejoin="round" d=" M 845.898, 23.752 835.898, 23.749 825.898, 23.746 815.898, 23.743 805.898, 23.740 795.898, 23.738 785.898, 23.735 775.898, 23.732 765.898, 23.729 755.898, 23.726 745.898, 23.723 735.898, 23.720 725.898, 23.717 715.898, 23.715 705.898, 23.712 695.898, 23.709 685.898, 23.706 675.898, 23.703 665.898, 23.700 655.898, 23.697 645.898, 23.694 635.898, 23.692 625.898, 23.689 615.898, 23.686 605.898, 23.683 595.898, 23.680 585.898, 23.677 575.898, 23.674 565.898, 23.671 555.898, 23.668 545.898, 23.666 535.898, 23.663 525.898, 23.660 515.898, 23.657 505.898, 23.654 495.898, 23.651 485.898, 23.648 475.898, 23.646 465.898, 23.643 455.898, 23.640 445.898, 23.637 435.898, 23.634 425.898, 23.631 412.176, 23.627 " />
            <path fill="none" stroke-width="3.0" stroke-linecap="butt" stroke-opacity="1.0" stroke="rgb(0, 0, 0)" stroke-linejoin="round" d=" M 1514.784, 854.710 1514.850, 852.060 " />
            <path fill="none" stroke-width="3.0" stroke-linecap="butt" stroke-opacity="1.0" stroke="rgb(0, 0, 0)" stroke-linejoin="round" d=" M 1534.795, 896.263 1532.765, 894.561 " />
            <path fill="none" stroke-width="3.0" stroke-linecap="butt" stroke-opacity="1.0" stroke="rgb(0, 0, 0)" stroke-linejoin="round" d=" M 1543.686, 902.007 1541.358, 900.739 " />
            <path fill="none" stroke-width="3.0" stroke-linecap="butt" stroke-opacity="1.0" stroke="rgb(0, 0, 0)" stroke-linejoin="round" d=" M 1553.538, 905.873 1551.006, 905.092 " />
            <path fill="none" stroke-width="3.0" stroke-linecap="butt" stroke-opacity="1.0" stroke="rgb(0, 0, 0)" stroke-linejoin="round" d=" M 1574.542, 907.447 1571.905, 907.710 " />
            <path fill="none" stroke-width="3.0" stroke-linecap="butt" stroke-opacity="1.0" stroke="rgb(0, 0, 0)" stroke-linejoin="round" d=" M 1596.770, 899.357 1594.508, 900.739 " />
            <path fill="none" stroke-width="3.0" stroke-linecap="butt" stroke-opacity="1.0" stroke="rgb(0, 0, 0)" stroke-linejoin="round" d=" M 1598.959, 897.864 1596.770, 899.357 " />
            <path fill="none" stroke-width="3.0" stroke-linecap="butt" stroke-opacity="1.0" stroke="rgb(0, 0, 0)" stroke-linejoin="round" d=" M 1601.072, 896.263 1598.959, 897.864 " />
            <path fill="none" stroke-width="3.0" stroke-linecap="butt" stroke-opacity="1.0" stroke="rgb(0, 0, 0)" stroke-linejoin="round" d=" M 1608.648, 888.874 1606.895, 890.860 " />
            <path fill="none" stroke-width="3.0" stroke-linecap="butt" stroke-opacity="1.0" stroke="rgb(0, 0, 0)" stroke-linejoin="round" d=" M 1614.610, 880.129 1613.285, 882.424 " />
            <path fill="none" stroke-width="3.0" stroke-linecap="butt" stroke-opacity="1.0" stroke="rgb(0, 0, 0)" stroke-linejoin="round" d=" M 1615.820, 877.771 1614.610, 880.129 " />
            <path fill="none" stroke-width="3.0" stroke-linecap="butt" stroke-opacity="1.0" stroke="rgb(0, 0, 0)" stroke-linejoin="round" d=" M 1616.910, 875.355 1615.820, 877.771 " />
            <path fill="none" stroke-width="3.0" stroke-linecap="butt" stroke-opacity="1.0" stroke="rgb(0, 0, 0)" stroke-linejoin="round" d=" M 1617.878, 872.888 1616.910, 875.355 " />
            <path fill="none" stroke-width="3.0" stroke-linecap="butt" stroke-opacity="1.0" stroke="rgb(0, 0, 0)" stroke-linejoin="round" d=" M 1618.722, 870.375 1617.878, 872.888 " />
            <path fill="none" stroke-width="3.0" stroke-linecap="butt" stroke-opacity="1.0" stroke="rgb(0, 0, 0)" stroke-linejoin="round" d=" M 1619.439, 867.825 1618.722, 870.375 " />
            <path fill="none" stroke-width="3.0" stroke-linecap="butt" stroke-opacity="1.0" stroke="rgb(0, 0, 0)" stroke-linejoin="round" d=" M 1620.029, 865.241 1619.439, 867.825 " />
            <path fill="none" stroke-width="3.0" stroke-linecap="butt" stroke-opacity="1.0" stroke="rgb(0, 0, 0)" stroke-linejoin="round" d=" M 859.940, 23.756 849.940, 23.753 845.898, 23.752 " />
            <path fill="none" stroke-width="3.0" stroke-linecap="butt" stroke-opacity="1.0" stroke="rgb(0, 0, 0)" stroke-linejoin="round" d=" M 2383.041, 24.232 2373.041, 24.229 2363.041, 24.226 2353.041, 24.222 2343.041, 24.219 2333.041, 24.216 2323.041, 24.213 2313.041, 24.210 2303.041, 24.207 2293.041, 24.204 2283.041, 24.200 2273.041, 24.198 2263.041, 24.194 2253.041, 24.191 2243.041, 24.188 2233.041, 24.185 2223.041, 24.182 2213.041, 24.179 2203.041, 24.176 2193.041, 24.172 2183.041, 24.169 2173.041, 24.166 2163.041, 24.163 2153.041, 24.160 2143.041, 24.157 2133.041, 24.154 2123.041, 24.151 2113.041, 24.147 2103.041, 24.144 2093.041, 24.141 2083.041, 24.138 2073.041, 24.135 2063.041, 24.132 2053.041, 24.129 2043.041, 24.125 2033.041, 24.123 2023.041, 24.119 2013.041, 24.116 2003.041, 24.113 1993.041, 24.110 1983.041, 24.107 1973.041, 24.104 1963.041, 24.101 1953.041, 24.097 1943.041, 24.094 1933.041, 24.091 1923.041, 24.088 1913.041, 24.085 1903.041, 24.082 1893.041, 24.079 1883.041, 24.076 1873.041, 24.073 1863.041, 24.069 1853.041, 24.066 1843.041, 24.063 1833.041, 24.060 1823.041, 24.057 1813.041, 24.054 1803.041, 24.051 1793.041, 24.048 1783.041, 24.044 1773.041, 24.041 1763.041, 24.038 1753.041, 24.035 1743.041, 24.032 1733.041, 24.029 1723.041, 24.026 1713.041, 24.022 1703.041, 24.020 1693.041, 24.016 1683.041, 24.013 1673.041, 24.010 1663.041, 24.007 1653.041, 24.004 1643.041, 24.001 1633.041, 23.998 1623.041, 23.994 1613.041, 23.991 1603.041, 23.988 1593.041, 23.985 1583.041, 23.982 1573.041, 23.979 1563.041, 23.976 1553.041, 23.973 1543.041, 23.969 1533.041, 23.966 1523.041, 23.963 1513.041, 23.960 1503.041, 23.957 1493.041, 23.954 1483.041, 23.951 1473.041, 23.948 1463.041, 23.945 1453.041, 23.941 1443.041, 23.938 1433.041, 23.935 1423.041, 23.932 1413.041, 23.929 1403.041, 23.926 1393.041, 23.923 1383.041, 23.920 1373.041, 23.917 1363.041, 23.913 1353.041, 23.910 1343.041, 23.907 1333.041, 23.904 1323.041, 23.901 1313.041, 23.898 1303.041, 23.895 1293.041, 23.891 1283.041, 23.888 1273.041, 23.885 1263.041, 23.882 1253.041, 23.879 1243.041, 23.876 1233.041, 23.873 1223.041, 23.870 1213.041, 23.866 1203.041, 23.863 1193.041, 23.860 1183.041, 23.857 1173.041, 23.854 1163.041, 23.851 1153.041, 23.848 1143.041, 23.845 1133.041, 23.842 1123.041, 23.838 1113.041, 23.835 1103.041, 23.832 1093.041, 23.829 1083.041, 23.826 1073.041, 23.823 1063.041, 23.820 1053.041, 23.817 1043.041, 23.813 1033.041, 23.810 1023.041, 23.807 1013.041, 23.804 1003.041, 23.801 993.041, 23.798 983.041, 23.795 973.041, 23.792 963.041, 23.788 953.041, 23.785 943.041, 23.782 933.041, 23.779 923.041, 23.776 913.041, 23.773 903.041, 23.770 893.041, 23.767 883.041, 23.763 859.940, 23.756 849.940, 23.753 845.898, 23.752 " />
            <path fill="none" stroke-width="3.0" stroke-linecap="butt" stroke-opacity="1.0" stroke="rgb(0, 0, 0)" stroke-linejoin="round" d=" M 4611.657, 24.837 4621.657, 24.840 4631.567, 24.842 " />
            <path fill="none" stroke-width="3.0" stroke-linecap="butt" stroke-opacity="1.0" stroke="rgb(0, 0, 0)" stroke-linejoin="round" d=" M 4580.703, 24.828 4579.941, 24.828 4573.277, 24.826 " />
            <path fill="none" stroke-width="3.0" stroke-linecap="butt" stroke-opacity="1.0" stroke="rgb(0, 0, 0)" stroke-linejoin="round" d=" M 4583.074, 24.828 4573.302, 24.825 4572.800, 24.825 " />
            <path fill="none" stroke-width="3.0" stroke-linecap="butt" stroke-opacity="1.0" stroke="rgb(0, 0, 0)" stroke-linejoin="round" d=" M 4633.373, 24.843 4643.373, 24.846 4644.760, 24.847 " />
            <path fill="none" stroke-width="3.0" stroke-linecap="butt" stroke-opacity="1.0" stroke="rgb(0, 0, 0)" stroke-linejoin="round" d=" M 5425.639, 25.071 5415.639, 25.068 5405.639, 25.065 5395.639, 25.062 5385.639, 25.060 5375.639, 25.057 5365.639, 25.054 5355.639, 25.051 5345.639, 25.048 5335.639, 25.045 5325.639, 25.042 5315.639, 25.040 5305.639, 25.037 5295.639, 25.034 5285.639, 25.031 5275.639, 25.028 5265.639, 25.025 5255.639, 25.022 5245.639, 25.019 5235.639, 25.016 5225.639, 25.014 5215.639, 25.011 5205.639, 25.008 5195.639, 25.005 5185.639, 25.002 5175.639, 24.999 5165.639, 24.996 5155.639, 24.993 5145.639, 24.990 5135.639, 24.988 5125.639, 24.985 5115.639, 24.982 5105.639, 24.979 5095.639, 24.976 5085.639, 24.973 5075.639, 24.970 5065.639, 24.968 5055.639, 24.965 5045.639, 24.962 5035.639, 24.959 5025.639, 24.956 5015.639, 24.953 5005.639, 24.950 4995.639, 24.948 4985.639, 24.945 4975.639, 24.942 4965.639, 24.939 4955.639, 24.936 4945.639, 24.933 4935.639, 24.930 4925.639, 24.927 4915.639, 24.924 4905.639, 24.921 4895.639, 24.919 4885.639, 24.916 4875.639, 24.913 4865.639, 24.910 4855.639, 24.907 4845.639, 24.904 4835.639, 24.901 4825.639, 24.898 4815.639, 24.896 4805.639, 24.893 4795.639, 24.890 4785.639, 24.887 4775.639, 24.884 4765.639, 24.881 4755.639, 24.878 4745.639, 24.875 4735.639, 24.873 4725.639, 24.870 4715.639, 24.867 4705.639, 24.864 4695.639, 24.861 4685.639, 24.858 4675.639, 24.855 4665.639, 24.852 4656.178, 24.850 " />
        </g>
    </g>
<g id="slice-labels"><text x="534.42925" y="456.253" text-anchor="middle" dominant-baseline="middle" font-family="Arial, sans-serif" font-size="59.05523027880589" font-weight="bold" fill="black" stroke="none" stroke-width="7.086627633456706" paint-order="stroke fill">Slice35 (Back)</text><text x="1555.86175" y="456.253" text-anchor="middle" dominant-baseline="middle" font-family="Arial, sans-serif" font-size="59.05523027880589" font-weight="bold" fill="black" stroke="none" stroke-width="7.086627633456706" paint-order="stroke fill">Slice35 (Back)</text><text x="2577.2942500000004" y="456.253" text-anchor="middle" dominant-baseline="middle" font-family="Arial, sans-serif" font-size="59.05523027880589" font-weight="bold" fill="black" stroke="none" stroke-width="7.086627633456706" paint-order="stroke fill">Slice35 (Back)</text><text x="3598.7267500000007" y="456.253" text-anchor="middle" dominant-baseline="middle" font-family="Arial, sans-serif" font-size="59.05523027880589" font-weight="bold" fill="black" stroke="none" stroke-width="7.086627633456706" paint-order="stroke fill">Slice35 (Back)</text><text x="4620.15925" y="456.253" text-anchor="middle" dominant-baseline="middle" font-family="Arial, sans-serif" font-size="59.05523027880589" font-weight="bold" fill="black" stroke="none" stroke-width="7.086627633456706" paint-order="stroke fill">Slice35 (Back)</text><text x="5641.59175" y="456.253" text-anchor="middle" dominant-baseline="middle" font-family="Arial, sans-serif" font-size="59.05523027880589" font-weight="bold" fill="black" stroke="none" stroke-width="7.086627633456706" paint-order="stroke fill">Slice35 (Back)</text><text x="534.42925" y="1321.5049999999999" text-anchor="middle" dominant-baseline="middle" font-family="Arial, sans-serif" font-size="59.05523027880589" font-weight="bold" fill="black" stroke="none" stroke-width="7.086627633456706" paint-order="stroke fill">Slice35 (Back)</text><text x="1555.86175" y="1321.5049999999999" text-anchor="middle" dominant-baseline="middle" font-family="Arial, sans-serif" font-size="59.05523027880589" font-weight="bold" fill="black" stroke="none" stroke-width="7.086627633456706" paint-order="stroke fill">Slice35 (Back)</text><text x="2577.2942500000004" y="1321.5049999999999" text-anchor="middle" dominant-baseline="middle" font-family="Arial, sans-serif" font-size="59.05523027880589" font-weight="bold" fill="black" stroke="none" stroke-width="7.086627633456706" paint-order="stroke fill">Slice35 (Back)</text><text x="3598.7267500000007" y="1321.5049999999999" text-anchor="middle" dominant-baseline="middle" font-family="Arial, sans-serif" font-size="59.05523027880589" font-weight="bold" fill="black" stroke="none" stroke-width="7.086627633456706" paint-order="stroke fill">Slice35 (Back)</text><text x="4620.15925" y="1321.5049999999999" text-anchor="middle" dominant-baseline="middle" font-family="Arial, sans-serif" font-size="59.05523027880589" font-weight="bold" fill="black" stroke="none" stroke-width="7.086627633456706" paint-order="stroke fill">Slice35 (Back)</text><text x="5641.59175" y="1321.5049999999999" text-anchor="middle" dominant-baseline="middle" font-family="Arial, sans-serif" font-size="59.05523027880589" font-weight="bold" fill="black" stroke="none" stroke-width="7.086627633456706" paint-order="stroke fill">Slice35 (Back)</text><text x="534.42925" y="2186.757" text-anchor="middle" dominant-baseline="middle" font-family="Arial, sans-serif" font-size="59.05523027880589" font-weight="bold" fill="black" stroke="none" stroke-width="7.086627633456706" paint-order="stroke fill">Slice35 (Back)</text><text x="1555.86175" y="2186.757" text-anchor="middle" dominant-baseline="middle" font-family="Arial, sans-serif" font-size="59.05523027880589" font-weight="bold" fill="black" stroke="none" stroke-width="7.086627633456706" paint-order="stroke fill">Slice35 (Back)</text><text x="2577.2942500000004" y="2186.757" text-anchor="middle" dominant-baseline="middle" font-family="Arial, sans-serif" font-size="59.05523027880589" font-weight="bold" fill="black" stroke="none" stroke-width="7.086627633456706" paint-order="stroke fill">Slice35 (Back)</text><text x="3598.7267500000007" y="2186.757" text-anchor="middle" dominant-baseline="middle" font-family="Arial, sans-serif" font-size="59.05523027880589" font-weight="bold" fill="black" stroke="none" stroke-width="7.086627633456706" paint-order="stroke fill">Slice35 (Back)</text><text x="4620.15925" y="2186.757" text-anchor="middle" dominant-baseline="middle" font-family="Arial, sans-serif" font-size="59.05523027880589" font-weight="bold" fill="black" stroke="none" stroke-width="7.086627633456706" paint-order="stroke fill">Slice35 (Back)</text><text x="5641.59175" y="2186.757" text-anchor="middle" dominant-baseline="middle" font-family="Arial, sans-serif" font-size="59.05523027880589" font-weight="bold" fill="black" stroke="none" stroke-width="7.086627633456706" paint-order="stroke fill">Slice35 (Back)</text></g></svg>