<?xml version='1.0' encoding='utf-8'?>
<svg xmlns="http://www.w3.org/2000/svg" xmlns:inkscape="http://www.inkscape.org/namespaces/inkscape" version="1.1" width="382.5705789923668mm" height="185.565523147583mm" viewBox="-0.055079433814999135 0.004920052892749993 4519.13015886763 2192.0001598942144" preserveAspectRatio="none">
    <g id="ViewLayer_LineSet" inkscape:groupmode="lineset" inkscape:label="ViewLayer_LineSet">
        <g inkscape:groupmode="layer" id="strokes" inkscape:label="strokes">
            <path fill="none" stroke-width="3.0" stroke-linecap="butt" stroke-opacity="1.0" stroke="rgb(0, 0, 0)" stroke-linejoin="round" d=" M 77.508, 2078.812 72.349, 2087.379 67.190, 2095.945 62.031, 2104.512 56.873, 2113.079 51.714, 2121.645 46.555, 2130.212 41.396, 2138.778 36.237, 2147.345 31.079, 2155.912 25.920, 2164.478 23.570, 2168.380 33.570, 2168.380 43.570, 2168.380 53.570, 2168.380 63.570, 2168.380 73.570, 2168.380 83.570, 2168.380 93.570, 2168.380 103.570, 2168.380 113.570, 2168.380 123.570, 2168.380 133.570, 2168.380 143.570, 2168.380 153.570, 2168.380 163.570, 2168.380 173.570, 2168.380 183.570, 2168.380 193.570, 2168.380 203.570, 2168.380 213.570, 2168.380 223.570, 2168.380 233.570, 2168.380 243.570, 2168.380 253.570, 2168.380 263.570, 2168.380 266.888, 2168.380 276.888, 2168.380 286.888, 2168.380 289.389, 2168.380 299.389, 2168.380 309.389, 2168.380 319.389, 2168.380 329.389, 2168.380 339.389, 2168.380 349.389, 2168.380 359.389, 2168.380 369.389, 2168.380 379.389, 2168.380 389.389, 2168.380 399.389, 2168.380 409.389, 2168.380 419.389, 2168.380 429.389, 2168.380 439.389, 2168.380 449.389, 2168.380 459.389, 2168.380 469.389, 2168.380 479.389, 2168.380 489.389, 2168.380 499.389, 2168.380 509.389, 2168.380 519.389, 2168.380 529.389, 2168.380 539.389, 2168.380 549.389, 2168.380 559.389, 2168.380 569.389, 2168.380 579.389, 2168.380 589.389, 2168.380 599.389, 2168.380 609.389, 2168.380 619.389, 2168.380 629.389, 2168.380 639.389, 2168.380 649.389, 2168.380 659.389, 2168.380 669.389, 2168.380 679.389, 2168.380 689.389, 2168.380 699.389, 2168.380 709.389, 2168.380 719.389, 2168.380 729.389, 2168.380 739.389, 2168.380 749.389, 2168.380 759.389, 2168.380 769.389, 2168.380 779.389, 2168.380 789.389, 2168.380 799.389, 2168.380 809.389, 2168.380 819.389, 2168.380 829.389, 2168.380 839.389, 2168.380 849.389, 2168.380 859.389, 2168.380 869.389, 2168.380 879.389, 2168.380 889.389, 2168.380 899.389, 2168.380 909.389, 2168.380 919.389, 2168.380 929.389, 2168.380 939.389, 2168.380 949.389, 2168.380 959.389, 2168.380 969.389, 2168.380 979.389, 2168.380 989.389, 2168.380 999.389, 2168.380 1009.389, 2168.380 1019.389, 2168.380 1029.390, 2168.380 1039.390, 2168.380 1049.390, 2168.380 1059.390, 2168.380 1069.389, 2168.380 1079.389, 2168.380 1089.389, 2168.380 1099.389, 2168.380 1109.389, 2168.380 1119.389, 2168.380 1129.389, 2168.380 1139.389, 2168.380 1149.389, 2168.380 1159.389, 2168.380 1169.389, 2168.380 1179.389, 2168.380 1189.389, 2168.380 1199.389, 2168.380 1209.389, 2168.380 1219.389, 2168.380 1229.389, 2168.380 1239.389, 2168.380 1249.389, 2168.380 1259.389, 2168.380 1269.389, 2168.380 1279.389, 2168.380 1289.389, 2168.380 1299.389, 2168.380 1309.389, 2168.380 1319.389, 2168.380 1329.389, 2168.380 1339.389, 2168.380 1349.389, 2168.380 1359.389, 2168.380 1369.389, 2168.380 1379.389, 2168.380 1389.389, 2168.380 1399.389, 2168.380 1409.389, 2168.380 1419.389, 2168.380 1429.389, 2168.380 1439.389, 2168.380 1449.389, 2168.380 1459.389, 2168.380 1469.389, 2168.380 1479.389, 2168.380 1489.389, 2168.380 1499.390, 2168.380 1509.390, 2168.380 1519.390, 2168.380 1529.390, 2168.380 1539.390, 2168.380 1549.390, 2168.380 1559.390, 2168.380 1569.390, 2168.380 1579.390, 2168.380 1589.390, 2168.380 1599.390, 2168.380 1609.390, 2168.380 1619.390, 2168.380 1629.390, 2168.380 1639.390, 2168.380 1649.390, 2168.380 1659.390, 2168.380 1669.390, 2168.380 1679.390, 2168.380 1689.390, 2168.380 1699.390, 2168.380 1709.390, 2168.380 1719.390, 2168.380 1729.390, 2168.380 1739.390, 2168.380 1749.390, 2168.380 1759.390, 2168.380 1769.390, 2168.380 1779.390, 2168.380 1789.390, 2168.380 1799.390, 2168.380 1809.390, 2168.380 1819.390, 2168.380 1829.390, 2168.380 1849.161, 2168.380 1851.814, 2158.738 1854.466, 2149.096 1857.119, 2139.455 1859.771, 2129.813 1862.424, 2120.171 1865.077, 2110.529 1867.729, 2100.888 1870.382, 2091.246 1873.035, 2081.604 1875.687, 2071.962 1878.340, 2062.320 1880.992, 2052.679 1883.645, 2043.037 1886.298, 2033.395 1888.950, 2023.753 1891.603, 2014.112 1894.255, 2004.470 1896.908, 1994.828 1899.561, 1985.186 1902.213, 1975.545 1904.866, 1965.903 1907.519, 1956.261 1910.171, 1946.619 1912.824, 1936.978 1915.476, 1927.336 1918.129, 1917.694 1920.782, 1908.052 1923.434, 1898.410 1926.087, 1888.769 1928.739, 1879.127 1931.392, 1869.485 1932.487, 1865.506 1936.737, 1856.453 1940.986, 1847.401 1945.236, 1838.349 1949.486, 1829.297 1953.736, 1820.245 1957.986, 1811.193 1962.235, 1802.141 1966.485, 1793.089 1970.735, 1784.037 1974.985, 1774.985 1979.235, 1765.933 1983.484, 1756.881 1987.734, 1747.829 1991.984, 1738.777 1996.234, 1729.725 1997.912, 1726.151 " />
            <path fill="none" stroke-width="3.0" stroke-linecap="butt" stroke-opacity="1.0" stroke="rgb(0, 0, 0)" stroke-linejoin="round" d=" M 253.721, 732.796 250.589, 742.292 249.990, 744.107 249.545, 754.098 249.101, 764.088 248.656, 774.078 248.212, 784.068 247.767, 794.058 247.323, 804.048 246.879, 814.038 246.434, 824.028 245.990, 834.019 245.545, 844.009 245.101, 853.999 244.656, 863.989 244.212, 873.979 243.767, 883.969 243.323, 893.959 242.878, 903.949 242.434, 913.939 241.990, 923.930 241.545, 933.920 241.101, 943.910 240.656, 953.900 240.212, 963.890 239.767, 973.880 239.323, 983.870 238.878, 993.860 238.434, 1003.850 237.990, 1013.841 237.545, 1023.831 237.101, 1033.821 236.656, 1043.811 236.212, 1053.801 235.767, 1063.791 235.323, 1073.781 234.878, 1083.771 234.434, 1093.762 233.989, 1103.752 233.545, 1113.742 233.101, 1123.732 232.656, 1133.722 232.212, 1143.712 231.767, 1153.702 231.323, 1163.692 230.970, 1171.613 231.768, 1181.581 232.566, 1191.549 233.364, 1201.517 234.162, 1211.485 234.960, 1221.453 235.758, 1231.422 236.556, 1241.390 237.354, 1251.358 238.152, 1261.326 238.949, 1271.294 239.747, 1281.262 240.545, 1291.230 241.343, 1301.198 242.141, 1311.166 242.939, 1321.135 243.737, 1331.103 244.535, 1341.071 245.333, 1351.039 246.131, 1361.007 246.929, 1370.975 247.726, 1380.943 248.524, 1390.911 249.322, 1400.879 250.120, 1410.848 250.918, 1420.816 251.716, 1430.784 252.514, 1440.752 253.312, 1450.720 253.594, 1454.245 250.880, 1463.870 248.167, 1473.494 245.453, 1483.119 242.740, 1492.744 240.026, 1502.369 237.313, 1511.994 234.599, 1521.618 231.886, 1531.243 229.172, 1540.868 226.458, 1550.493 223.745, 1560.117 221.031, 1569.742 218.318, 1579.367 215.604, 1588.992 212.891, 1598.617 210.177, 1608.242 207.464, 1617.866 204.750, 1627.491 202.037, 1637.116 199.323, 1646.741 196.609, 1656.365 193.896, 1665.990 191.182, 1675.615 188.469, 1685.240 185.755, 1694.865 183.042, 1704.489 180.328, 1714.114 177.615, 1723.739 174.901, 1733.364 172.188, 1742.989 169.474, 1752.613 166.760, 1762.238 164.047, 1771.863 161.333, 1781.488 158.620, 1791.113 155.906, 1800.737 153.193, 1810.362 150.479, 1819.987 147.766, 1829.612 145.052, 1839.237 142.339, 1848.861 139.625, 1858.486 136.911, 1868.111 134.198, 1877.736 131.484, 1887.361 128.771, 1896.985 126.057, 1906.610 123.344, 1916.235 120.630, 1925.860 117.917, 1935.484 115.203, 1945.109 112.490, 1954.734 109.776, 1964.359 107.062, 1973.984 104.349, 1983.608 101.635, 1993.233 98.922, 2002.858 96.208, 2012.483 93.495, 2022.108 90.781, 2031.732 88.068, 2041.357 85.354, 2050.982 82.641, 2060.607 79.927, 2070.232 77.508, 2078.812 " />
            <path fill="none" stroke-width="3.0" stroke-linecap="butt" stroke-opacity="1.0" stroke="rgb(0, 0, 0)" stroke-linejoin="round" d=" M 491.765, 23.630 488.703, 33.150 485.640, 42.669 484.622, 45.834 483.805, 55.801 482.987, 65.767 482.169, 75.733 481.352, 85.700 480.534, 95.667 479.716, 105.633 478.899, 115.600 478.081, 125.566 477.263, 135.532 476.446, 145.499 475.628, 155.466 474.810, 165.432 473.993, 175.399 473.175, 185.365 472.357, 195.332 471.540, 205.298 470.722, 215.265 470.207, 221.547 466.307, 230.756 462.408, 239.964 458.509, 249.173 454.609, 258.381 450.710, 267.590 446.811, 276.798 442.912, 286.007 439.012, 295.215 435.113, 304.424 431.214, 313.632 427.315, 322.841 423.415, 332.049 419.516, 341.257 415.617, 350.466 411.717, 359.674 407.818, 368.883 403.919, 378.091 400.020, 387.300 396.120, 396.508 392.221, 405.717 388.322, 414.925 384.423, 424.134 380.523, 433.342 376.624, 442.550 372.725, 451.759 368.826, 460.967 364.926, 470.176 361.027, 479.384 357.128, 488.593 353.228, 497.801 349.329, 507.010 345.430, 516.218 341.531, 525.427 337.631, 534.635 333.732, 543.844 329.833, 553.052 325.934, 562.260 322.034, 571.469 318.135, 580.677 314.236, 589.886 310.336, 599.094 306.437, 608.303 302.538, 617.511 298.639, 626.720 294.739, 635.928 290.840, 645.137 286.941, 654.345 283.042, 663.553 279.142, 672.762 275.243, 681.970 271.344, 691.179 267.445, 700.387 263.545, 709.596 259.646, 718.804 253.721, 732.796 " />
            <path fill="none" stroke-width="3.0" stroke-linecap="butt" stroke-opacity="1.0" stroke="rgb(0, 0, 0)" stroke-linejoin="round" d=" M 1997.912, 1726.151 1999.154, 1716.228 2000.397, 1706.306 2001.640, 1696.383 2002.882, 1686.461 2004.125, 1676.538 2005.368, 1666.616 2006.610, 1656.693 2007.853, 1646.771 2009.096, 1636.848 2010.338, 1626.926 2011.581, 1617.003 2012.823, 1607.081 2014.066, 1597.158 2015.309, 1587.236 2016.551, 1577.313 2017.794, 1567.391 2019.142, 1556.625 " />
            <path fill="none" stroke-width="3.0" stroke-linecap="butt" stroke-opacity="1.0" stroke="rgb(0, 0, 0)" stroke-linejoin="round" d=" M 2019.142, 1556.625 2024.463, 1548.158 2029.783, 1539.690 2035.104, 1531.223 2040.424, 1522.756 2045.745, 1514.289 2051.065, 1505.822 2056.386, 1497.355 2061.707, 1488.888 2067.027, 1480.421 2072.347, 1471.953 2073.628, 1469.916 2077.504, 1460.698 2081.380, 1451.480 2085.257, 1442.262 2089.133, 1433.044 2093.009, 1423.826 2096.885, 1414.607 2100.762, 1405.389 2104.638, 1396.171 2108.514, 1386.953 2112.391, 1377.735 2116.267, 1368.517 2120.144, 1359.299 2124.020, 1350.080 2127.896, 1340.862 2131.951, 1331.220 " />
            <path fill="none" stroke-width="3.0" stroke-linecap="butt" stroke-opacity="1.0" stroke="rgb(0, 0, 0)" stroke-linejoin="round" d=" M 2805.464, 1752.372 2803.352, 1750.773 2801.321, 1749.069 2799.378, 1747.266 2797.528, 1745.368 2795.774, 1743.381 2794.121, 1741.309 2792.574, 1739.157 2791.136, 1736.930 2789.811, 1734.635 " />
            <path fill="none" stroke-width="3.0" stroke-linecap="butt" stroke-opacity="1.0" stroke="rgb(0, 0, 0)" stroke-linejoin="round" d=" M 2822.097, 1760.383 2819.564, 1759.601 2817.074, 1758.695 2814.631, 1757.665 2812.243, 1756.515 2809.916, 1755.248 2807.654, 1753.866 2805.464, 1752.372 " />
            <path fill="none" stroke-width="3.0" stroke-linecap="butt" stroke-opacity="1.0" stroke="rgb(0, 0, 0)" stroke-linejoin="round" d=" M 2338.782, 1471.595 2339.452, 1481.573 2340.121, 1491.551 2340.790, 1501.528 2341.459, 1511.506 2342.129, 1521.483 2342.798, 1531.461 2343.467, 1541.439 2344.136, 1551.416 2344.806, 1561.394 2345.475, 1571.371 2346.144, 1581.349 2346.813, 1591.326 2347.483, 1601.304 2348.152, 1611.282 2348.821, 1621.259 2349.490, 1631.237 2350.160, 1641.214 2350.829, 1651.192 2351.498, 1661.169 2352.167, 1671.147 2352.837, 1681.125 2353.506, 1691.102 2354.175, 1701.080 2354.844, 1711.057 2355.144, 1715.520 2357.264, 1725.293 2359.384, 1735.065 2361.504, 1744.838 2363.625, 1754.611 2365.745, 1764.383 2367.865, 1774.156 2369.985, 1783.928 2372.105, 1793.701 2374.225, 1803.474 2376.345, 1813.246 2378.465, 1823.019 2380.585, 1832.792 2382.706, 1842.564 2384.826, 1852.337 2386.946, 1862.110 2389.066, 1871.882 2391.186, 1881.655 2393.306, 1891.428 2395.427, 1901.201 2397.547, 1910.973 2399.667, 1920.746 2401.787, 1930.518 2403.907, 1940.291 2406.027, 1950.064 2408.147, 1959.836 2410.268, 1969.609 2412.388, 1979.382 2414.508, 1989.154 2416.628, 1998.927 2419.006, 2009.890 " />
            <path fill="none" stroke-width="3.0" stroke-linecap="butt" stroke-opacity="1.0" stroke="rgb(0, 0, 0)" stroke-linejoin="round" d=" M 2789.811, 1734.635 2788.602, 1732.276 2787.511, 1729.861 2786.543, 1727.393 " />
            <path fill="none" stroke-width="3.0" stroke-linecap="butt" stroke-opacity="1.0" stroke="rgb(0, 0, 0)" stroke-linejoin="round" d=" M 2832.522, 1762.221 2829.884, 1761.956 2827.263, 1761.562 2824.666, 1761.037 2822.097, 1760.383 " />
            <path fill="none" stroke-width="3.0" stroke-linecap="butt" stroke-opacity="1.0" stroke="rgb(0, 0, 0)" stroke-linejoin="round" d=" M 2785.699, 1724.881 2784.981, 1722.330 2784.392, 1719.746 2783.931, 1717.135 2783.602, 1714.506 2783.404, 1711.863 2783.338, 1709.213 2783.404, 1706.563 " />
            <path fill="none" stroke-width="3.0" stroke-linecap="butt" stroke-opacity="1.0" stroke="rgb(0, 0, 0)" stroke-linejoin="round" d=" M 2419.006, 2009.890 2421.651, 2019.533 2424.296, 2029.177 2426.941, 2038.821 2429.586, 2048.465 2432.230, 2058.109 2434.875, 2067.753 2437.520, 2077.397 2440.165, 2087.041 2442.810, 2096.685 2445.455, 2106.329 2448.100, 2115.972 2450.744, 2125.616 2453.389, 2135.260 2456.034, 2144.904 2458.679, 2154.548 2461.324, 2164.192 2462.472, 2168.380 " />
            <path fill="none" stroke-width="3.0" stroke-linecap="butt" stroke-opacity="1.0" stroke="rgb(0, 0, 0)" stroke-linejoin="round" d=" M 2462.472, 2168.380 2472.472, 2168.380 2482.472, 2168.380 2492.472, 2168.380 2502.472, 2168.380 2512.472, 2168.380 2522.472, 2168.380 2532.472, 2168.380 2542.472, 2168.380 2552.472, 2168.380 2562.472, 2168.380 2572.472, 2168.380 2582.472, 2168.380 2592.472, 2168.380 2602.472, 2168.380 2612.472, 2168.380 2622.472, 2168.380 2632.472, 2168.380 2642.472, 2168.380 2652.472, 2168.380 2662.472, 2168.380 2672.472, 2168.380 2682.472, 2168.380 2692.472, 2168.380 2696.920, 2168.380 " />
            <path fill="none" stroke-width="3.0" stroke-linecap="butt" stroke-opacity="1.0" stroke="rgb(0, 0, 0)" stroke-linejoin="round" d=" M 2840.466, 1762.221 2837.819, 1762.353 2835.169, 1762.353 2832.522, 1762.221 " />
            <path fill="none" stroke-width="3.0" stroke-linecap="butt" stroke-opacity="1.0" stroke="rgb(0, 0, 0)" stroke-linejoin="round" d=" M 2696.920, 2168.380 2698.231, 2168.380 2699.522, 2168.380 2700.789, 2168.380 2702.029, 2168.380 2703.238, 2168.380 2704.411, 2168.380 2705.547, 2168.380 2706.641, 2168.380 2707.691, 2168.380 2708.693, 2168.380 2709.645, 2168.380 2710.544, 2168.380 2711.388, 2168.380 2712.175, 2168.380 " />
            <path fill="none" stroke-width="3.0" stroke-linecap="butt" stroke-opacity="1.0" stroke="rgb(0, 0, 0)" stroke-linejoin="round" d=" M 2783.404, 1706.563 2783.602, 1703.920 " />
            <path fill="none" stroke-width="3.0" stroke-linecap="butt" stroke-opacity="1.0" stroke="rgb(0, 0, 0)" stroke-linejoin="round" d=" M 2783.602, 1703.920 2783.931, 1701.290 " />
            <path fill="none" stroke-width="3.0" stroke-linecap="butt" stroke-opacity="1.0" stroke="rgb(0, 0, 0)" stroke-linejoin="round" d=" M 2131.951, 1331.220 2137.816, 1323.121 2143.682, 1315.021 2149.547, 1306.922 2155.413, 1298.823 2161.278, 1290.724 2167.143, 1282.625 2173.009, 1274.525 2178.874, 1266.426 2184.740, 1258.327 2190.605, 1250.228 2196.470, 1242.128 2202.336, 1234.029 2208.201, 1225.930 2214.066, 1217.831 2219.932, 1209.732 2225.797, 1201.632 2231.663, 1193.533 2237.528, 1185.434 2243.393, 1177.335 2249.259, 1169.236 2250.617, 1167.359 2254.636, 1176.516 2258.656, 1185.673 2262.674, 1194.830 2266.693, 1203.987 2270.712, 1213.144 2274.731, 1222.300 2278.750, 1231.457 2282.769, 1240.614 2286.788, 1249.771 2290.807, 1258.928 2294.826, 1268.085 2298.845, 1277.242 2302.864, 1286.398 2306.883, 1295.555 2311.035, 1305.015 2312.678, 1314.879 2314.321, 1324.743 2315.964, 1334.607 2317.607, 1344.471 2319.250, 1354.335 2320.893, 1364.199 2322.536, 1374.063 2324.179, 1383.927 2325.823, 1393.791 2327.466, 1403.656 2329.109, 1413.520 2330.752, 1423.384 2332.395, 1433.248 2334.038, 1443.112 2335.681, 1452.976 2337.324, 1462.840 2338.782, 1471.595 " />
            <path fill="none" stroke-width="3.0" stroke-linecap="butt" stroke-opacity="1.0" stroke="rgb(0, 0, 0)" stroke-linejoin="round" d=" M 2783.931, 1701.290 2784.392, 1698.680 2784.981, 1696.096 2785.699, 1693.545 2786.543, 1691.032 " />
            <path fill="none" stroke-width="3.0" stroke-linecap="butt" stroke-opacity="1.0" stroke="rgb(0, 0, 0)" stroke-linejoin="round" d=" M 2855.914, 1758.695 2853.424, 1759.601 2850.891, 1760.383 2848.322, 1761.037 2845.725, 1761.562 " />
            <path fill="none" stroke-width="3.0" stroke-linecap="butt" stroke-opacity="1.0" stroke="rgb(0, 0, 0)" stroke-linejoin="round" d=" M 2786.543, 1691.032 2787.511, 1688.565 " />
            <path fill="none" stroke-width="3.0" stroke-linecap="butt" stroke-opacity="1.0" stroke="rgb(0, 0, 0)" stroke-linejoin="round" d=" M 2867.524, 1752.372 2865.334, 1753.866 2863.072, 1755.248 2860.744, 1756.515 2858.357, 1757.665 2855.914, 1758.695 " />
            <path fill="none" stroke-width="3.0" stroke-linecap="butt" stroke-opacity="1.0" stroke="rgb(0, 0, 0)" stroke-linejoin="round" d=" M 2787.511, 1688.565 2788.602, 1686.149 " />
            <path fill="none" stroke-width="3.0" stroke-linecap="butt" stroke-opacity="1.0" stroke="rgb(0, 0, 0)" stroke-linejoin="round" d=" M 2788.602, 1686.149 2789.811, 1683.790 2791.136, 1681.495 2792.574, 1679.269 2794.121, 1677.116 " />
            <path fill="none" stroke-width="3.0" stroke-linecap="butt" stroke-opacity="1.0" stroke="rgb(0, 0, 0)" stroke-linejoin="round" d=" M 2712.175, 2168.380 2712.944, 2168.269 2713.610, 2168.269 2714.286, 2168.350 " />
            <path fill="none" stroke-width="3.0" stroke-linecap="butt" stroke-opacity="1.0" stroke="rgb(0, 0, 0)" stroke-linejoin="round" d=" M 2794.121, 1677.116 2795.774, 1675.044 2797.528, 1673.057 2799.378, 1671.160 2801.321, 1669.357 2803.352, 1667.654 2805.464, 1666.053 2807.654, 1664.560 " />
            <path fill="none" stroke-width="3.0" stroke-linecap="butt" stroke-opacity="1.0" stroke="rgb(0, 0, 0)" stroke-linejoin="round" d=" M 2807.654, 1664.560 2809.916, 1663.178 2812.243, 1661.910 2814.631, 1660.761 " />
            <path fill="none" stroke-width="3.0" stroke-linecap="butt" stroke-opacity="1.0" stroke="rgb(0, 0, 0)" stroke-linejoin="round" d=" M 2814.631, 1660.761 2817.074, 1659.730 2819.564, 1658.824 2822.097, 1658.043 " />
            <path fill="none" stroke-width="3.0" stroke-linecap="butt" stroke-opacity="1.0" stroke="rgb(0, 0, 0)" stroke-linejoin="round" d=" M 946.831, 23.741 943.895, 23.738 933.895, 23.736 923.895, 23.733 913.895, 23.731 903.895, 23.729 893.895, 23.726 883.895, 23.724 873.895, 23.721 863.895, 23.719 853.895, 23.717 843.895, 23.714 833.895, 23.712 823.895, 23.709 813.895, 23.707 803.895, 23.705 793.895, 23.702 783.895, 23.700 773.895, 23.698 763.895, 23.695 753.895, 23.693 743.895, 23.690 733.895, 23.688 723.895, 23.686 713.895, 23.683 703.895, 23.681 693.895, 23.678 683.895, 23.676 673.895, 23.674 663.895, 23.671 653.895, 23.669 643.895, 23.666 633.895, 23.664 623.895, 23.662 613.895, 23.659 603.895, 23.657 593.895, 23.654 583.895, 23.652 573.895, 23.650 563.895, 23.647 553.895, 23.645 543.895, 23.642 533.895, 23.640 523.895, 23.638 513.895, 23.635 503.895, 23.633 491.765, 23.630 " />
            <path fill="none" stroke-width="3.0" stroke-linecap="butt" stroke-opacity="1.0" stroke="rgb(0, 0, 0)" stroke-linejoin="round" d=" M 1029.904, 23.746 1019.904, 23.728 1009.904, 23.710 999.904, 23.691 989.904, 23.673 980.120, 23.655 970.120, 23.636 966.593, 23.630 966.139, 23.654 964.521, 23.740 962.290, 23.740 959.949, 23.741 957.503, 23.741 954.961, 23.741 952.329, 23.741 949.617, 23.741 946.831, 23.741 " />
            <path fill="none" stroke-width="3.0" stroke-linecap="butt" stroke-opacity="1.0" stroke="rgb(0, 0, 0)" stroke-linejoin="round" d=" M 1956.748, 23.705 1951.200, 23.670 1941.200, 23.670 1931.200, 23.670 1921.200, 23.669 1911.200, 23.669 1901.200, 23.668 1891.200, 23.668 1881.200, 23.667 1871.200, 23.667 1861.200, 23.667 1851.200, 23.666 1841.200, 23.666 1831.200, 23.665 1821.200, 23.665 1811.200, 23.664 1801.200, 23.664 1791.200, 23.663 1781.200, 23.663 1771.200, 23.662 1761.200, 23.662 1751.200, 23.662 1741.200, 23.661 1731.200, 23.661 1721.200, 23.660 1711.200, 23.660 1701.200, 23.659 1691.200, 23.659 1681.200, 23.658 1671.200, 23.658 1661.200, 23.657 1651.200, 23.657 1641.200, 23.657 1631.200, 23.656 1621.200, 23.656 1611.200, 23.655 1601.200, 23.655 1591.200, 23.655 1581.200, 23.654 1571.200, 23.654 1561.200, 23.653 1551.200, 23.653 1541.200, 23.652 1531.200, 23.652 1521.200, 23.651 1511.200, 23.651 1501.200, 23.650 1491.200, 23.650 1481.200, 23.650 1471.200, 23.649 1461.200, 23.649 1451.200, 23.648 1441.200, 23.648 1431.200, 23.647 1421.200, 23.647 1411.200, 23.646 1401.200, 23.646 1391.200, 23.646 1381.200, 23.645 1371.200, 23.645 1361.200, 23.644 1351.200, 23.644 1341.200, 23.643 1331.200, 23.643 1321.200, 23.643 1311.200, 23.642 1301.200, 23.642 1291.200, 23.641 1281.200, 23.641 1271.200, 23.640 1261.200, 23.640 1251.200, 23.639 1241.200, 23.639 1231.200, 23.638 1221.200, 23.638 1211.200, 23.637 1201.200, 23.637 1191.200, 23.637 1181.200, 23.636 1171.200, 23.636 1161.200, 23.635 1151.200, 23.635 1141.200, 23.635 1131.200, 23.634 1121.200, 23.634 1111.200, 23.633 1101.200, 23.633 1091.200, 23.632 1081.200, 23.632 1071.200, 23.631 1061.200, 23.631 1051.200, 23.630 1040.399, 23.630 1039.958, 23.658 1038.603, 23.744 1036.632, 23.744 1034.523, 23.744 1032.283, 23.744 1029.904, 23.746 " />
            <path fill="none" stroke-width="3.0" stroke-linecap="butt" stroke-opacity="1.0" stroke="rgb(0, 0, 0)" stroke-linejoin="round" d=" M 2894.854, 979.178 2892.335, 976.595 2889.948, 973.890 2887.698, 971.070 2885.593, 968.141 2883.635, 965.110 2881.831, 961.986 2880.186, 958.776 2878.702, 955.488 2877.384, 952.129 2876.235, 948.709 2875.258, 945.237 2874.455, 941.719 2873.829, 938.167 2873.380, 934.588 2873.111, 930.990 2873.021, 927.384 2873.111, 923.777 2873.380, 920.179 2873.829, 916.600 2874.455, 913.048 2875.258, 909.530 2876.235, 906.058 2877.384, 902.638 2878.702, 899.279 2880.186, 895.991 2881.831, 892.781 2883.635, 889.657 2885.593, 886.626 2887.698, 883.697 2889.948, 880.877 2892.335, 878.172 2894.854, 875.589 2897.498, 873.135 2900.262, 870.817 2903.137, 868.638 2906.118, 866.606 2909.197, 864.725 2912.365, 863.000 2915.615, 861.435 2918.939, 860.033 2922.329, 858.800 2925.777, 857.736 2929.272, 856.846 2932.809, 856.131 2936.376, 855.593 2939.965, 855.234 2943.569, 855.054 2947.176, 855.054 2950.779, 855.234 2954.369, 855.593 2957.936, 856.131 2961.472, 856.846 2964.968, 857.736 2968.416, 858.800 2971.805, 860.033 2975.130, 861.435 2978.380, 863.000 2981.548, 864.725 2984.627, 866.606 2987.607, 868.638 2990.483, 870.817 2993.247, 873.135 2995.891, 875.589 2998.410, 878.172 3000.797, 880.877 3003.046, 883.697 3005.152, 886.626 3007.110, 889.657 3008.913, 892.781 3010.559, 895.991 3012.043, 899.279 3013.361, 902.638 3014.510, 906.058 3015.487, 909.530 3016.290, 913.048 3016.916, 916.600 3017.365, 920.179 3017.634, 923.777 3017.724, 927.384 3017.634, 930.990 3017.365, 934.588 3016.916, 938.167 3016.290, 941.719 3015.487, 945.237 3014.510, 948.709 3013.361, 952.129 3012.043, 955.488 3010.559, 958.776 3008.913, 961.986 3007.110, 965.110 3005.152, 968.141 3003.046, 971.070 3000.797, 973.890 2998.410, 976.595 2995.891, 979.178 2993.247, 981.632 2990.483, 983.950 2987.607, 986.129 2984.627, 988.161 2981.548, 990.042 2978.380, 991.767 2975.130, 993.332 2971.805, 994.734 2968.416, 995.968 2964.968, 997.031 2961.472, 997.921 2957.936, 998.636 2954.369, 999.174 2950.779, 999.533 2947.176, 999.713 2943.569, 999.713 2939.965, 999.533 2936.376, 999.174 2932.809, 998.636 2929.272, 997.921 2925.777, 997.031 2922.329, 995.968 2918.939, 994.734 2915.615, 993.332 2912.365, 991.767 2909.197, 990.042 2906.118, 988.161 2903.137, 986.129 2900.262, 983.950 2897.498, 981.632 2894.854, 979.178 " />
            <path fill="none" stroke-width="3.0" stroke-linecap="butt" stroke-opacity="1.0" stroke="rgb(0, 0, 0)" stroke-linejoin="round" d=" M 2822.097, 1658.043 2824.666, 1657.389 2827.263, 1656.864 2829.884, 1656.469 " />
            <path fill="none" stroke-width="3.0" stroke-linecap="butt" stroke-opacity="1.0" stroke="rgb(0, 0, 0)" stroke-linejoin="round" d=" M 2829.884, 1656.469 2832.522, 1656.205 2835.169, 1656.073 2837.819, 1656.073 2840.466, 1656.205 2843.104, 1656.469 " />
            <path fill="none" stroke-width="3.0" stroke-linecap="butt" stroke-opacity="1.0" stroke="rgb(0, 0, 0)" stroke-linejoin="round" d=" M 2843.104, 1656.469 2845.725, 1656.864 " />
            <path fill="none" stroke-width="3.0" stroke-linecap="butt" stroke-opacity="1.0" stroke="rgb(0, 0, 0)" stroke-linejoin="round" d=" M 2845.725, 1656.864 2848.322, 1657.389 2850.891, 1658.043 2853.424, 1658.824 2855.914, 1659.730 2858.357, 1660.761 2860.744, 1661.910 2863.072, 1663.178 " />
            <path fill="none" stroke-width="3.0" stroke-linecap="butt" stroke-opacity="1.0" stroke="rgb(0, 0, 0)" stroke-linejoin="round" d=" M 2863.072, 1663.178 2865.334, 1664.560 2867.524, 1666.053 2869.636, 1667.654 " />
            <path fill="none" stroke-width="3.0" stroke-linecap="butt" stroke-opacity="1.0" stroke="rgb(0, 0, 0)" stroke-linejoin="round" d=" M 2869.636, 1667.654 2871.667, 1669.357 " />
            <path fill="none" stroke-width="3.0" stroke-linecap="butt" stroke-opacity="1.0" stroke="rgb(0, 0, 0)" stroke-linejoin="round" d=" M 2871.667, 1669.357 2873.610, 1671.160 2875.460, 1673.057 2877.214, 1675.044 2878.867, 1677.116 2880.414, 1679.269 2881.852, 1681.495 2883.177, 1683.790 2884.386, 1686.149 " />
            <path fill="none" stroke-width="3.0" stroke-linecap="butt" stroke-opacity="1.0" stroke="rgb(0, 0, 0)" stroke-linejoin="round" d=" M 2884.386, 1686.149 2885.476, 1688.565 " />
            <path fill="none" stroke-width="3.0" stroke-linecap="butt" stroke-opacity="1.0" stroke="rgb(0, 0, 0)" stroke-linejoin="round" d=" M 2885.476, 1688.565 2886.445, 1691.032 2887.289, 1693.545 2888.007, 1696.096 " />
            <path fill="none" stroke-width="3.0" stroke-linecap="butt" stroke-opacity="1.0" stroke="rgb(0, 0, 0)" stroke-linejoin="round" d=" M 2887.289, 1724.881 2886.445, 1727.393 2885.476, 1729.861 2884.386, 1732.276 2883.177, 1734.635 2881.852, 1736.930 2880.414, 1739.157 2878.867, 1741.309 2877.214, 1743.381 2875.460, 1745.368 2873.610, 1747.266 " />
            <path fill="none" stroke-width="3.0" stroke-linecap="butt" stroke-opacity="1.0" stroke="rgb(0, 0, 0)" stroke-linejoin="round" d=" M 4183.046, 2168.380 4184.577, 2168.380 4186.132, 2168.380 4187.707, 2168.380 4189.296, 2168.380 4190.895, 2168.380 4192.499, 2168.380 4194.104, 2168.380 4204.104, 2168.380 4214.104, 2168.380 4224.104, 2168.380 4234.104, 2168.380 4244.104, 2168.380 4254.104, 2168.380 4264.104, 2168.380 4274.104, 2168.380 4284.104, 2168.380 4294.104, 2168.380 4304.104, 2168.380 4314.104, 2168.380 4324.104, 2168.380 4334.104, 2168.380 4344.104, 2168.380 4354.104, 2168.380 4364.104, 2168.380 4374.104, 2168.380 4384.104, 2168.380 4394.104, 2168.380 4404.104, 2168.380 4414.104, 2168.380 4424.104, 2168.380 4434.104, 2168.380 4444.104, 2168.380 4454.104, 2168.380 4464.104, 2168.380 4474.104, 2168.380 4484.104, 2168.380 4495.450, 2168.380 " />
            <path fill="none" stroke-width="3.0" stroke-linecap="butt" stroke-opacity="1.0" stroke="rgb(0, 0, 0)" stroke-linejoin="round" d=" M 2714.286, 2168.350 2724.286, 2168.351 2734.286, 2168.351 2744.286, 2168.351 2754.286, 2168.351 2764.286, 2168.351 2774.286, 2168.352 2784.286, 2168.352 2794.286, 2168.352 2804.286, 2168.352 2814.286, 2168.352 2824.286, 2168.353 2834.286, 2168.353 2844.286, 2168.353 2854.286, 2168.353 2864.286, 2168.353 2874.286, 2168.354 2884.286, 2168.354 2894.286, 2168.354 2904.286, 2168.354 2914.286, 2168.354 2924.286, 2168.355 2934.286, 2168.355 2944.286, 2168.355 2954.286, 2168.355 2964.286, 2168.355 2974.286, 2168.356 2984.286, 2168.356 2994.286, 2168.356 3004.286, 2168.356 3014.286, 2168.356 3024.286, 2168.357 3034.286, 2168.357 3044.286, 2168.357 3054.286, 2168.357 3064.286, 2168.357 3074.286, 2168.358 3084.286, 2168.358 3094.286, 2168.358 3104.286, 2168.358 3114.286, 2168.358 3124.286, 2168.359 3134.286, 2168.359 3144.286, 2168.359 3154.286, 2168.359 3164.286, 2168.359 3174.286, 2168.360 3184.286, 2168.360 3194.286, 2168.360 3204.286, 2168.360 3214.286, 2168.360 3224.286, 2168.361 3234.286, 2168.361 3244.286, 2168.361 3254.286, 2168.361 3264.286, 2168.361 3274.286, 2168.362 3284.286, 2168.362 3294.286, 2168.362 3304.286, 2168.362 3314.286, 2168.362 3324.286, 2168.363 3334.286, 2168.363 3344.286, 2168.363 3354.286, 2168.363 3364.286, 2168.363 3374.286, 2168.364 3384.286, 2168.364 3394.286, 2168.364 3404.286, 2168.364 3414.286, 2168.364 3424.286, 2168.365 3434.286, 2168.365 3444.286, 2168.365 3454.286, 2168.365 3464.286, 2168.365 3474.286, 2168.366 3484.286, 2168.366 3494.286, 2168.366 3504.286, 2168.366 3514.286, 2168.366 3524.286, 2168.367 3534.286, 2168.367 3544.286, 2168.367 3554.286, 2168.367 3564.286, 2168.367 3574.286, 2168.368 3584.286, 2168.368 3594.286, 2168.368 3604.286, 2168.368 3614.286, 2168.368 3624.286, 2168.369 3634.286, 2168.369 3644.286, 2168.369 3654.286, 2168.369 3664.286, 2168.369 3674.286, 2168.370 3684.286, 2168.370 3694.286, 2168.370 3704.286, 2168.370 3714.286, 2168.370 3724.286, 2168.371 3734.286, 2168.371 3744.286, 2168.371 3754.286, 2168.371 3764.286, 2168.371 3774.286, 2168.372 3784.286, 2168.372 3794.286, 2168.372 3804.286, 2168.372 3814.286, 2168.372 3824.286, 2168.373 3834.286, 2168.373 3844.286, 2168.373 3854.286, 2168.373 3864.286, 2168.373 3874.286, 2168.374 3884.286, 2168.374 3894.286, 2168.374 3904.286, 2168.374 3914.286, 2168.374 3924.286, 2168.375 3934.286, 2168.375 3944.286, 2168.375 3954.286, 2168.375 3964.286, 2168.375 3974.286, 2168.376 3984.286, 2168.376 3994.286, 2168.376 4004.286, 2168.376 4014.286, 2168.376 4024.286, 2168.377 4034.286, 2168.377 4044.286, 2168.377 4054.286, 2168.377 4064.286, 2168.377 4074.286, 2168.378 4084.286, 2168.378 4094.286, 2168.378 4104.286, 2168.378 4114.286, 2168.378 4124.286, 2168.379 4134.286, 2168.379 4144.286, 2168.379 4154.286, 2168.379 4164.286, 2168.380 4183.046, 2168.380 " />
            <path fill="none" stroke-width="3.0" stroke-linecap="butt" stroke-opacity="1.0" stroke="rgb(0, 0, 0)" stroke-linejoin="round" d=" M 2889.057, 1717.135 2888.596, 1719.746 2888.007, 1722.330 2887.289, 1724.881 " />
            <path fill="none" stroke-width="3.0" stroke-linecap="butt" stroke-opacity="1.0" stroke="rgb(0, 0, 0)" stroke-linejoin="round" d=" M 2888.007, 1696.096 2888.596, 1698.680 2889.057, 1701.290 2889.386, 1703.920 2889.584, 1706.563 2889.650, 1709.213 2889.584, 1711.863 2889.386, 1714.506 " />
            <path fill="none" stroke-width="3.0" stroke-linecap="butt" stroke-opacity="1.0" stroke="rgb(0, 0, 0)" stroke-linejoin="round" d=" M 4495.450, 2168.380 4494.375, 2158.438 4493.298, 2148.496 4492.223, 2138.554 4491.147, 2128.612 4490.071, 2118.670 4488.995, 2108.728 4487.919, 2098.786 4486.843, 2088.844 4485.768, 2078.902 4484.692, 2068.960 4483.616, 2059.018 4482.540, 2049.076 4481.464, 2039.134 4480.388, 2029.192 4479.312, 2019.250 4478.237, 2009.309 4477.161, 1999.367 4476.085, 1989.425 4475.009, 1979.483 4473.933, 1969.541 4472.857, 1959.599 4471.782, 1949.657 4470.706, 1939.715 4469.630, 1929.773 4468.554, 1919.831 4467.478, 1909.889 4466.402, 1899.947 4465.327, 1890.005 4464.250, 1880.063 4463.175, 1870.121 4462.099, 1860.179 4461.023, 1850.237 4459.947, 1840.295 4458.872, 1830.353 4457.795, 1820.411 4456.720, 1810.469 4455.644, 1800.527 4454.568, 1790.585 4453.492, 1780.643 4452.417, 1770.702 4451.340, 1760.760 4450.265, 1750.818 4449.805, 1746.573 4445.898, 1737.368 4441.991, 1728.163 4438.083, 1718.958 4434.176, 1709.753 4430.269, 1700.548 4426.361, 1691.343 4422.454, 1682.138 4418.547, 1672.933 4414.640, 1663.728 4410.732, 1654.523 4406.825, 1645.318 4402.917, 1636.113 4399.010, 1626.908 4395.103, 1617.703 4391.195, 1608.498 4387.288, 1599.293 4383.381, 1590.088 4379.474, 1580.883 4375.566, 1571.678 4371.659, 1562.473 4367.751, 1553.268 4363.844, 1544.062 4359.937, 1534.857 4356.029, 1525.652 4352.122, 1516.447 4348.215, 1507.242 4344.308, 1498.037 4340.400, 1488.832 4336.493, 1479.627 4332.585, 1470.422 4328.678, 1461.217 4324.771, 1452.012 4320.863, 1442.807 4316.956, 1433.602 4313.049, 1424.397 4309.142, 1415.192 4305.234, 1405.987 4301.327, 1396.782 4297.419, 1387.577 4293.512, 1378.372 4289.605, 1369.167 4285.697, 1359.962 4281.790, 1350.757 4277.883, 1341.552 4274.910, 1334.548 " />
            <path fill="none" stroke-width="3.0" stroke-linecap="butt" stroke-opacity="1.0" stroke="rgb(0, 0, 0)" stroke-linejoin="round" d=" M 4274.910, 1334.548 4272.990, 1324.734 4271.071, 1314.920 4269.151, 1305.106 4267.232, 1295.292 4265.312, 1285.478 4263.393, 1275.664 4261.473, 1265.850 4259.554, 1256.036 4257.634, 1246.222 4255.714, 1236.408 4253.795, 1226.594 4251.875, 1216.780 4249.956, 1206.966 4248.036, 1197.151 4246.117, 1187.337 4244.197, 1177.523 4242.277, 1167.709 4240.358, 1157.895 4238.438, 1148.081 4237.924, 1145.449 4234.342, 1136.113 4230.760, 1126.776 4227.178, 1117.440 4223.596, 1108.103 4220.014, 1098.767 4216.432, 1089.430 4212.850, 1080.094 4209.269, 1070.757 4205.687, 1061.421 4202.104, 1052.084 4198.522, 1042.748 4194.941, 1033.411 4191.359, 1024.075 4187.777, 1014.738 4184.195, 1005.402 4180.613, 996.065 4177.031, 986.729 4173.449, 977.392 4169.867, 968.056 4166.285, 958.719 4162.704, 949.383 4159.122, 940.047 4155.540, 930.710 4151.958, 921.374 4148.376, 912.037 4144.794, 902.701 4141.212, 893.364 4137.630, 884.028 4134.048, 874.691 4130.466, 865.355 4126.884, 856.018 4123.302, 846.682 4119.721, 837.345 4116.139, 828.009 4112.557, 818.672 4108.975, 809.336 4105.393, 799.999 4101.896, 790.885 4100.571, 780.973 4099.246, 771.061 4097.921, 761.149 4096.597, 751.237 4095.272, 741.325 4093.947, 731.413 4092.622, 721.502 4091.297, 711.590 4089.972, 701.678 4088.647, 691.766 4087.323, 681.854 4085.998, 671.942 4084.673, 662.031 4083.348, 652.119 4082.023, 642.207 4080.698, 632.295 4079.374, 622.383 4078.049, 612.471 4076.724, 602.559 4075.399, 592.648 4074.074, 582.736 4072.749, 572.824 4071.424, 562.912 4070.099, 553.000 4068.775, 543.088 4067.887, 536.446 " />
            <path fill="none" stroke-width="3.0" stroke-linecap="butt" stroke-opacity="1.0" stroke="rgb(0, 0, 0)" stroke-linejoin="round" d=" M 4067.887, 536.446 4065.481, 526.740 4063.076, 517.033 4060.671, 507.327 4058.265, 497.621 4055.860, 487.914 4053.454, 478.208 4051.049, 468.501 4048.644, 458.795 4046.238, 449.089 4043.833, 439.382 4041.427, 429.676 4039.022, 419.969 4036.617, 410.263 4034.211, 400.557 4031.806, 390.850 4029.285, 380.676 " />
            <path fill="none" stroke-width="3.0" stroke-linecap="butt" stroke-opacity="1.0" stroke="rgb(0, 0, 0)" stroke-linejoin="round" d=" M 4029.285, 380.676 4025.029, 371.627 4020.773, 362.578 4016.517, 353.529 4012.261, 344.480 4008.005, 335.431 4003.749, 326.382 3999.493, 317.332 3995.237, 308.283 3990.981, 299.234 3986.725, 290.185 3982.469, 281.136 3978.213, 272.087 3973.957, 263.038 3969.701, 253.988 3965.446, 244.939 3961.190, 235.890 3956.934, 226.841 3952.678, 217.792 3948.422, 208.743 3944.166, 199.693 3939.910, 190.644 3935.654, 181.595 3931.398, 172.546 3927.142, 163.497 3922.886, 154.448 3918.630, 145.399 3915.179, 138.060 3911.388, 128.806 3907.598, 119.553 3903.808, 110.299 3900.017, 101.045 3896.227, 91.791 3892.437, 82.537 3888.646, 73.284 3884.856, 64.030 3881.065, 54.776 3877.275, 45.522 3873.484, 36.269 3869.694, 27.015 3868.308, 23.630 3858.308, 23.630 3848.308, 23.630 3838.308, 23.630 3828.308, 23.630 3818.308, 23.630 3808.308, 23.630 3798.308, 23.630 3788.308, 23.630 3778.308, 23.630 3768.308, 23.630 3758.308, 23.630 3748.308, 23.630 3738.308, 23.630 3728.308, 23.630 3718.308, 23.630 3708.308, 23.630 3698.308, 23.630 3688.308, 23.630 3678.308, 23.630 3668.308, 23.630 3658.308, 23.630 3648.308, 23.630 3638.308, 23.630 3628.308, 23.630 3618.308, 23.630 3608.308, 23.630 3598.308, 23.630 3588.308, 23.630 3578.308, 23.630 3568.308, 23.630 3558.308, 23.630 3548.308, 23.630 3538.308, 23.630 3528.308, 23.630 3518.308, 23.630 3508.308, 23.630 3498.308, 23.630 3488.308, 23.630 3478.308, 23.630 3468.308, 23.630 3458.308, 23.630 3448.308, 23.630 3438.308, 23.630 3428.308, 23.630 3418.308, 23.630 3408.308, 23.630 3398.308, 23.630 3388.308, 23.630 3377.844, 23.630 3376.313, 23.630 " />
            <path fill="none" stroke-width="3.0" stroke-linecap="butt" stroke-opacity="1.0" stroke="rgb(0, 0, 0)" stroke-linejoin="round" d=" M 3376.313, 23.630 3374.751, 23.736 3373.267, 23.735 3371.813, 23.735 3370.393, 23.735 3369.012, 23.735 3367.673, 23.735 3366.379, 23.735 3365.136, 23.735 3363.946, 23.735 3362.812, 23.735 3361.738, 23.734 3360.706, 23.720 3350.706, 23.717 3340.706, 23.713 3330.706, 23.710 3320.706, 23.707 3310.706, 23.703 3300.706, 23.699 3290.706, 23.696 3280.706, 23.693 3270.706, 23.689 3260.706, 23.686 3250.706, 23.682 3240.706, 23.679 3230.706, 23.675 3220.706, 23.672 3210.706, 23.668 3200.706, 23.665 3190.706, 23.661 3180.706, 23.658 3170.706, 23.654 3160.706, 23.651 3150.706, 23.647 3140.706, 23.644 3130.706, 23.640 3120.706, 23.637 3110.706, 23.633 3101.325, 23.630 " />
            <path fill="none" stroke-width="3.0" stroke-linecap="butt" stroke-opacity="1.0" stroke="rgb(0, 0, 0)" stroke-linejoin="round" d=" M 1962.376, 23.630 1956.748, 23.705 " />
            <path fill="none" stroke-width="3.0" stroke-linecap="butt" stroke-opacity="1.0" stroke="rgb(0, 0, 0)" stroke-linejoin="round" d=" M 3101.325, 23.630 3099.631, 23.745 3097.958, 23.693 3087.958, 23.693 3077.958, 23.692 3067.958, 23.692 3057.958, 23.691 3047.958, 23.691 3037.958, 23.690 3027.958, 23.689 3017.958, 23.689 3007.958, 23.688 2997.958, 23.688 2987.958, 23.687 2977.958, 23.687 2967.958, 23.686 2957.958, 23.686 2947.958, 23.685 2937.958, 23.684 2927.958, 23.684 2917.958, 23.683 2907.958, 23.683 2897.958, 23.682 2887.958, 23.682 2877.958, 23.681 2867.958, 23.680 2857.958, 23.680 2847.958, 23.679 2837.958, 23.679 2827.958, 23.678 2817.958, 23.678 2807.958, 23.677 2797.958, 23.677 2787.958, 23.676 2777.958, 23.676 2767.958, 23.675 2757.958, 23.674 2747.958, 23.674 2737.958, 23.673 2727.958, 23.673 2717.958, 23.672 2707.958, 23.672 2697.958, 23.671 2687.958, 23.670 2677.958, 23.670 2667.958, 23.669 2657.958, 23.669 2647.958, 23.668 2637.958, 23.668 2627.958, 23.667 2617.958, 23.667 2607.958, 23.666 2597.958, 23.666 2587.958, 23.665 2577.958, 23.664 2567.958, 23.664 2557.958, 23.663 2547.958, 23.663 2537.958, 23.662 2527.958, 23.662 2517.958, 23.661 2507.958, 23.660 2497.958, 23.660 2487.958, 23.659 2477.958, 23.659 2467.958, 23.658 2457.958, 23.658 2447.958, 23.657 2437.958, 23.656 2427.958, 23.656 2417.958, 23.656 2407.958, 23.655 2397.958, 23.654 2387.958, 23.654 2377.958, 23.653 2367.958, 23.653 2357.958, 23.652 2347.958, 23.652 2337.958, 23.651 2327.958, 23.650 2317.958, 23.650 2307.958, 23.649 2297.958, 23.649 2287.958, 23.648 2277.958, 23.648 2267.958, 23.647 2257.958, 23.646 2247.958, 23.646 2237.958, 23.645 2227.958, 23.645 2217.958, 23.644 2207.958, 23.644 2197.958, 23.643 2187.958, 23.643 2177.958, 23.642 2167.958, 23.641 2157.958, 23.641 2147.958, 23.640 2137.958, 23.640 2127.958, 23.639 2117.958, 23.639 2107.958, 23.638 2097.958, 23.637 2087.958, 23.637 2077.958, 23.636 2067.958, 23.636 2057.958, 23.635 2047.958, 23.635 2037.958, 23.634 2027.958, 23.634 2017.958, 23.633 2007.958, 23.633 1997.958, 23.632 1987.958, 23.631 1977.958, 23.631 1962.376, 23.630 " />
            <path fill="none" stroke-width="3.0" stroke-linecap="butt" stroke-opacity="1.0" stroke="rgb(0, 0, 0)" stroke-linejoin="round" d=" M 4237.924, 1145.449 4234.342, 1136.113 4230.760, 1126.776 4227.178, 1117.440 4223.596, 1108.103 4220.014, 1098.767 4216.432, 1089.430 4212.850, 1080.094 4209.269, 1070.757 4205.687, 1061.421 4202.104, 1052.084 4198.522, 1042.748 4194.941, 1033.411 4191.359, 1024.075 4187.777, 1014.738 4184.195, 1005.402 4180.613, 996.065 4177.031, 986.729 4173.449, 977.392 4169.867, 968.056 4166.286, 958.719 4162.704, 949.383 4159.122, 940.047 4155.540, 930.710 4151.958, 921.374 4148.376, 912.037 4144.794, 902.701 4141.212, 893.364 4137.630, 884.028 4134.048, 874.691 4130.466, 865.355 4126.884, 856.018 4123.303, 846.682 4119.721, 837.345 4116.139, 828.009 4112.557, 818.672 4108.975, 809.336 4105.393, 799.999 4101.896, 790.885 4100.571, 780.973 4099.247, 771.061 4097.921, 761.149 4096.597, 751.237 4095.272, 741.325 4093.947, 731.413 4092.622, 721.502 4091.297, 711.590 4089.972, 701.678 4088.647, 691.766 4087.323, 681.854 4085.998, 671.942 4084.673, 662.031 4083.348, 652.119 4082.023, 642.207 4080.698, 632.295 4079.374, 622.383 4078.049, 612.471 4076.724, 602.559 4075.399, 592.648 4074.074, 582.736 4072.749, 572.824 4071.424, 562.912 4070.099, 553.000 4068.775, 543.088 4067.887, 536.446 " />
            <path fill="none" stroke-width="3.0" stroke-linecap="butt" stroke-opacity="1.0" stroke="rgb(0, 0, 0)" stroke-linejoin="round" d=" M 4067.887, 536.446 4065.481, 526.740 4063.076, 517.033 4060.671, 507.327 4058.265, 497.621 4055.860, 487.914 4053.454, 478.208 4051.049, 468.501 4048.644, 458.795 4046.238, 449.089 4043.833, 439.382 4041.427, 429.676 4039.022, 419.969 4036.617, 410.263 4034.211, 400.557 4031.806, 390.850 4029.285, 380.676 4025.029, 371.627 4020.773, 362.578 4016.517, 353.529 4012.261, 344.480 4008.005, 335.431 4003.749, 326.382 3999.493, 317.332 3995.237, 308.283 3990.981, 299.234 3986.725, 290.185 3982.469, 281.136 3978.213, 272.087 3973.958, 263.038 3969.702, 253.988 3965.446, 244.939 3961.190, 235.890 3956.934, 226.841 3952.678, 217.792 3948.422, 208.743 3944.166, 199.694 3939.910, 190.644 3935.654, 181.595 3931.398, 172.546 3927.142, 163.497 3922.886, 154.448 3918.630, 145.399 3915.179, 138.060 " />
            <path fill="none" stroke-width="3.0" stroke-linecap="butt" stroke-opacity="1.0" stroke="rgb(0, 0, 0)" stroke-linejoin="round" d=" M 4029.285, 380.676 4025.029, 371.627 4020.773, 362.578 4016.517, 353.529 4012.261, 344.480 4008.005, 335.431 4003.749, 326.382 3999.493, 317.332 3995.237, 308.283 3990.981, 299.234 3986.725, 290.185 3982.469, 281.136 3978.213, 272.087 3973.958, 263.038 3969.702, 253.988 3965.446, 244.939 3961.190, 235.890 3956.934, 226.841 3952.678, 217.792 3948.422, 208.743 3944.166, 199.694 3939.910, 190.644 3935.654, 181.595 3931.398, 172.546 3927.142, 163.497 3922.886, 154.448 3918.630, 145.399 3915.179, 138.060 " />
            <path fill="none" stroke-width="3.0" stroke-linecap="butt" stroke-opacity="1.0" stroke="rgb(0, 0, 0)" stroke-linejoin="round" d=" M 1091.874, 753.249 1089.355, 750.667 1086.968, 747.962 1084.719, 745.142 1082.613, 742.212 1080.656, 739.182 1078.852, 736.058 1077.206, 732.847 1075.722, 729.559 1074.404, 726.201 1073.255, 722.781 1072.278, 719.309 1071.475, 715.791 1070.849, 712.239 1070.401, 708.659 1070.131, 705.061 1070.041, 701.455 1070.131, 697.849 1070.401, 694.251 1070.849, 690.671 1071.475, 687.119 1072.278, 683.601 1073.255, 680.129 1074.404, 676.710 1075.722, 673.351 1077.206, 670.063 1078.852, 666.852 1080.656, 663.728 1082.613, 660.698 1084.719, 657.769 1086.968, 654.948 1089.355, 652.243 1091.874, 649.660 1094.519, 647.207 1097.282, 644.888 1100.158, 642.710 1103.138, 640.678 1106.217, 638.797 1109.385, 637.071 1112.635, 635.506 1115.960, 634.104 1119.350, 632.871 1122.797, 631.808 1126.293, 630.917 1129.829, 630.202 1133.396, 629.665 1136.986, 629.306 1140.589, 629.126 1144.196, 629.126 1147.800, 629.306 1151.389, 629.665 1154.957, 630.202 1158.493, 630.917 1161.988, 631.808 1165.436, 632.871 1168.826, 634.104 1172.150, 635.506 1175.400, 637.071 1178.569, 638.797 1181.647, 640.678 1184.628, 642.710 1187.504, 644.888 1190.267, 647.207 1192.912, 649.660 1195.430, 652.243 1197.817, 654.948 1200.067, 657.769 1202.173, 660.698 1204.130, 663.728 1205.934, 666.852 1207.580, 670.063 1209.063, 673.351 1210.381, 676.710 1211.530, 680.129 1212.507, 683.601 1213.310, 687.119 1213.936, 690.671 1214.385, 694.251 1214.655, 697.849 1214.745, 701.455 1214.655, 705.061 1214.385, 708.659 1213.936, 712.239 1213.310, 715.791 1212.507, 719.309 1211.530, 722.781 1210.381, 726.201 1209.063, 729.559 1207.580, 732.847 1205.934, 736.058 1204.130, 739.182 1202.173, 742.212 1200.067, 745.142 1197.817, 747.962 1195.430, 750.667 1192.912, 753.249 1190.267, 755.703 1187.504, 758.021 1184.628, 760.201 1181.647, 762.232 1178.569, 764.113 1175.400, 765.838 1172.150, 767.404 1168.826, 768.805 1165.436, 770.039 1161.988, 771.103 1158.493, 771.993 1154.957, 772.707 1151.389, 773.245 1147.800, 773.604 1144.196, 773.785 1140.589, 773.785 1136.986, 773.604 1133.396, 773.245 1129.829, 772.707 1126.293, 771.993 1122.797, 771.103 1119.350, 770.039 1115.960, 768.805 1112.635, 767.404 1109.385, 765.838 1106.217, 764.113 1103.138, 762.232 1100.158, 760.201 1097.282, 758.021 1094.519, 755.703 1091.874, 753.249 " />
            <path fill="none" stroke-width="3.0" stroke-linecap="butt" stroke-opacity="1.0" stroke="rgb(0, 0, 0)" stroke-linejoin="round" d=" M 2786.543, 1727.393 2785.699, 1724.881 " />
            <path fill="none" stroke-width="3.0" stroke-linecap="butt" stroke-opacity="1.0" stroke="rgb(0, 0, 0)" stroke-linejoin="round" d=" M 2843.104, 1761.956 2840.466, 1762.221 " />
            <path fill="none" stroke-width="3.0" stroke-linecap="butt" stroke-opacity="1.0" stroke="rgb(0, 0, 0)" stroke-linejoin="round" d=" M 2845.725, 1761.562 2843.104, 1761.956 " />
            <path fill="none" stroke-width="3.0" stroke-linecap="butt" stroke-opacity="1.0" stroke="rgb(0, 0, 0)" stroke-linejoin="round" d=" M 2869.636, 1750.773 2867.524, 1752.372 " />
            <path fill="none" stroke-width="3.0" stroke-linecap="butt" stroke-opacity="1.0" stroke="rgb(0, 0, 0)" stroke-linejoin="round" d=" M 2871.667, 1749.069 2869.636, 1750.773 " />
            <path fill="none" stroke-width="3.0" stroke-linecap="butt" stroke-opacity="1.0" stroke="rgb(0, 0, 0)" stroke-linejoin="round" d=" M 2873.610, 1747.266 2871.667, 1749.069 " />
            <path fill="none" stroke-width="3.0" stroke-linecap="butt" stroke-opacity="1.0" stroke="rgb(0, 0, 0)" stroke-linejoin="round" d=" M 2889.386, 1714.506 2889.057, 1717.135 " />
        </g>
    </g>
<g id="slice-labels"><text x="582.5550000000001" y="559.8175" text-anchor="middle" dominant-baseline="middle" font-family="Arial, sans-serif" font-size="59.06269986776812" font-weight="bold" fill="black" stroke="none" stroke-width="7.087523984132174" paint-order="stroke fill">Slice39 (Back)</text><text x="1700.5249999999999" y="559.8175" text-anchor="middle" dominant-baseline="middle" font-family="Arial, sans-serif" font-size="59.06269986776812" font-weight="bold" fill="black" stroke="none" stroke-width="7.087523984132174" paint-order="stroke fill">Slice39 (Back)</text><text x="2818.4950000000003" y="559.8175" text-anchor="middle" dominant-baseline="middle" font-family="Arial, sans-serif" font-size="59.06269986776812" font-weight="bold" fill="black" stroke="none" stroke-width="7.087523984132174" paint-order="stroke fill">Slice39 (Back)</text><text x="3936.465" y="559.8175" text-anchor="middle" dominant-baseline="middle" font-family="Arial, sans-serif" font-size="59.06269986776812" font-weight="bold" fill="black" stroke="none" stroke-width="7.087523984132174" paint-order="stroke fill">Slice39 (Back)</text><text x="582.5550000000001" y="1632.1925" text-anchor="middle" dominant-baseline="middle" font-family="Arial, sans-serif" font-size="59.06269986776812" font-weight="bold" fill="black" stroke="none" stroke-width="7.087523984132174" paint-order="stroke fill">Slice39 (Back)</text><text x="1700.5249999999999" y="1632.1925" text-anchor="middle" dominant-baseline="middle" font-family="Arial, sans-serif" font-size="59.06269986776812" font-weight="bold" fill="black" stroke="none" stroke-width="7.087523984132174" paint-order="stroke fill">Slice39 (Back)</text><text x="2818.4950000000003" y="1632.1925" text-anchor="middle" dominant-baseline="middle" font-family="Arial, sans-serif" font-size="59.06269986776812" font-weight="bold" fill="black" stroke="none" stroke-width="7.087523984132174" paint-order="stroke fill">Slice39 (Back)</text><text x="3936.465" y="1632.1925" text-anchor="middle" dominant-baseline="middle" font-family="Arial, sans-serif" font-size="59.06269986776812" font-weight="bold" fill="black" stroke="none" stroke-width="7.087523984132174" paint-order="stroke fill">Slice39 (Back)</text></g></svg>