<?xml version='1.0' encoding='utf-8'?>
<svg xmlns="http://www.w3.org/2000/svg" xmlns:inkscape="http://www.inkscape.org/namespaces/inkscape" version="1.1" width="271.2991664148867mm" height="318.77072834968567mm" viewBox="-0.14699659911975616 0.005006814726023379 3204.3139931982396 3764.999986370548" preserveAspectRatio="none">
    <g id="ViewLayer_LineSet" inkscape:groupmode="lineset" inkscape:label="ViewLayer_LineSet">
        <g inkscape:groupmode="layer" id="strokes" inkscape:label="strokes">
            <path fill="none" stroke-width="3.0" stroke-linecap="butt" stroke-opacity="1.0" stroke="rgb(0, 0, 0)" stroke-linejoin="round" d=" M 1225.073, 3576.948 1222.554, 3574.366 1220.167, 3571.662 1217.918, 3568.842 1215.812, 3565.913 1213.855, 3562.883 1212.052, 3559.759 1210.406, 3556.549 1208.923, 3553.261 1207.605, 3549.904 1206.456, 3546.484 1205.479, 3543.012 1204.676, 3539.495 1204.050, 3535.943 1203.602, 3532.364 1203.332, 3528.767 1203.242, 3525.161 1203.332, 3521.555 1203.602, 3517.958 1204.050, 3514.379 1204.676, 3510.827 1205.479, 3507.310 1206.456, 3503.838 1207.605, 3500.418 1208.923, 3497.061 1210.406, 3493.773 1212.052, 3490.563 1213.855, 3487.439 1215.812, 3484.409 1217.918, 3481.480 1220.167, 3478.660 1222.554, 3475.956 1225.073, 3473.374 1227.717, 3470.920 1230.480, 3468.601 1233.355, 3466.423 1236.335, 3464.392 1239.413, 3462.510 1242.581, 3460.786 1245.831, 3459.220 1249.155, 3457.819 1252.544, 3456.586 1255.991, 3455.523 1259.487, 3454.632 1263.022, 3453.917 1266.589, 3453.380 1270.178, 3453.021 1273.781, 3452.841 1277.388, 3452.841 1280.991, 3453.021 1284.580, 3453.380 1288.147, 3453.917 1291.682, 3454.632 1295.178, 3455.523 1298.625, 3456.586 1302.014, 3457.819 1305.338, 3459.220 1308.588, 3460.786 1311.756, 3462.510 1314.834, 3464.392 1317.814, 3466.423 1320.689, 3468.601 1323.452, 3470.920 1326.097, 3473.374 1328.615, 3475.956 1331.002, 3478.660 1333.251, 3481.480 1335.356, 3484.409 1337.314, 3487.439 1339.117, 3490.563 1340.763, 3493.773 1342.246, 3497.061 1343.564, 3500.418 1344.713, 3503.838 1345.690, 3507.310 1346.493, 3510.827 1347.119, 3514.379 1347.567, 3517.958 1347.837, 3521.555 1347.927, 3525.161 1347.837, 3528.767 1347.567, 3532.364 1347.119, 3535.943 1346.493, 3539.495 1345.690, 3543.012 1344.713, 3546.484 1343.564, 3549.904 1342.246, 3553.261 1340.763, 3556.549 1339.117, 3559.759 1337.314, 3562.883 1335.356, 3565.913 1333.251, 3568.842 1331.002, 3571.662 1328.615, 3574.366 1326.097, 3576.948 1323.452, 3579.402 1320.689, 3581.721 1317.814, 3583.898 1314.834, 3585.930 1311.756, 3587.811 1308.588, 3589.536 1305.338, 3591.102 1302.014, 3592.503 1298.625, 3593.736 1295.178, 3594.800 1291.682, 3595.689 1288.147, 3596.404 1284.580, 3596.942 1280.991, 3597.301 1277.388, 3597.481 1273.781, 3597.481 1270.178, 3597.301 1266.589, 3596.942 1263.022, 3596.404 1259.487, 3595.689 1255.991, 3594.800 1252.544, 3593.736 1249.155, 3592.503 1245.831, 3591.102 1242.581, 3589.536 1239.413, 3587.811 1236.335, 3585.930 1233.355, 3583.898 1230.480, 3581.721 1227.717, 3579.402 1225.073, 3576.948 " />
            <path fill="none" stroke-width="3.0" stroke-linecap="butt" stroke-opacity="1.0" stroke="rgb(0, 0, 0)" stroke-linejoin="round" d=" M 23.475, 3741.383 33.475, 3741.383 43.475, 3741.383 53.475, 3741.383 63.475, 3741.383 73.475, 3741.383 83.475, 3741.383 93.475, 3741.383 103.475, 3741.383 113.475, 3741.383 123.475, 3741.383 133.475, 3741.383 143.475, 3741.383 153.475, 3741.383 163.475, 3741.383 173.475, 3741.383 183.475, 3741.383 193.475, 3741.383 203.475, 3741.383 208.501, 3741.383 211.483, 3741.383 214.555, 3741.383 217.710, 3741.383 220.940, 3741.383 224.241, 3741.383 227.603, 3741.383 231.018, 3741.383 234.474, 3741.383 237.961, 3741.383 241.467, 3741.383 244.977, 3741.383 248.478, 3741.383 251.954, 3741.383 255.390, 3741.383 258.767, 3741.383 262.069, 3741.383 272.069, 3741.383 282.069, 3741.383 292.069, 3741.383 302.069, 3741.383 312.069, 3741.383 322.069, 3741.383 332.069, 3741.383 342.069, 3741.383 352.069, 3741.383 362.069, 3741.383 372.069, 3741.383 382.069, 3741.383 392.069, 3741.383 402.069, 3741.383 412.069, 3741.383 422.069, 3741.383 432.069, 3741.383 442.069, 3741.383 452.069, 3741.383 462.069, 3741.383 472.069, 3741.383 482.069, 3741.383 492.069, 3741.383 502.069, 3741.383 512.069, 3741.383 522.069, 3741.383 532.069, 3741.383 542.069, 3741.383 552.069, 3741.383 562.069, 3741.383 572.069, 3741.383 582.069, 3741.383 592.069, 3741.383 602.069, 3741.383 612.069, 3741.383 622.069, 3741.383 632.069, 3741.383 642.069, 3741.383 652.069, 3741.383 662.069, 3741.383 672.069, 3741.383 682.069, 3741.383 692.069, 3741.383 702.069, 3741.383 712.069, 3741.383 722.069, 3741.383 732.069, 3741.383 742.069, 3741.383 752.069, 3741.383 762.069, 3741.383 772.069, 3741.383 782.069, 3741.383 792.069, 3741.383 802.069, 3741.383 812.069, 3741.383 822.069, 3741.383 832.069, 3741.383 842.069, 3741.383 851.986, 3741.383 857.729, 3741.383 863.314, 3741.383 868.721, 3741.383 878.721, 3741.383 888.721, 3741.383 898.721, 3741.383 908.721, 3741.383 918.721, 3741.383 928.721, 3741.383 938.721, 3741.383 948.721, 3741.383 958.721, 3741.383 968.721, 3741.383 978.721, 3741.383 988.721, 3741.383 998.721, 3741.383 1008.721, 3741.383 1018.721, 3741.383 1028.721, 3741.383 1038.721, 3741.383 1048.721, 3741.383 1052.747, 3741.383 1062.747, 3741.383 1072.747, 3741.383 1082.747, 3741.383 1092.747, 3741.383 1102.747, 3741.383 1112.747, 3741.383 1122.747, 3741.383 1132.747, 3741.383 1142.747, 3741.383 1152.747, 3741.383 1162.747, 3741.383 1172.747, 3741.383 1182.747, 3741.383 1192.747, 3741.383 1202.747, 3741.383 1212.747, 3741.383 1222.747, 3741.383 1232.747, 3741.383 1242.747, 3741.383 1252.747, 3741.383 1262.747, 3741.383 1272.747, 3741.383 1281.577, 3741.383 1284.136, 3741.383 1286.804, 3741.383 1289.574, 3741.383 1292.438, 3741.383 1295.389, 3741.383 1298.418, 3741.383 1301.517, 3741.383 1304.677, 3741.383 1307.889, 3741.383 1311.144, 3741.383 1314.433, 3741.383 1317.745, 3741.383 1321.073, 3741.383 1324.405, 3741.383 1327.734, 3741.383 1331.049, 3741.383 1334.341, 3741.383 1337.600, 3741.383 1347.600, 3741.383 1357.600, 3741.383 1367.600, 3741.383 1377.600, 3741.383 1387.600, 3741.383 1397.600, 3741.383 1407.600, 3741.383 1417.600, 3741.383 1427.600, 3741.383 1437.600, 3741.383 1447.600, 3741.383 1457.600, 3741.383 1467.600, 3741.383 1477.600, 3741.383 1487.600, 3741.383 1497.600, 3741.383 1507.600, 3741.383 1517.600, 3741.383 1527.600, 3741.383 1537.600, 3741.383 1547.600, 3741.383 1557.600, 3741.383 1567.600, 3741.383 1577.600, 3741.383 1587.600, 3741.383 1597.600, 3741.383 1607.600, 3741.383 1617.600, 3741.383 1627.600, 3741.383 1637.600, 3741.383 1647.600, 3741.383 1657.600, 3741.383 1667.600, 3741.383 1677.600, 3741.383 1687.600, 3741.383 1697.600, 3741.383 1707.600, 3741.383 1717.600, 3741.383 1727.600, 3741.383 1737.600, 3741.383 1747.600, 3741.383 1757.600, 3741.383 1767.600, 3741.383 1777.600, 3741.383 1787.600, 3741.383 1797.600, 3741.383 1807.600, 3741.383 1817.600, 3741.383 1827.600, 3741.383 1837.600, 3741.383 1847.600, 3741.383 1857.600, 3741.383 1867.600, 3741.383 1877.600, 3741.383 1887.600, 3741.383 1897.600, 3741.383 1907.600, 3741.383 1917.600, 3741.383 1932.777, 3741.383 1936.059, 3741.383 1939.371, 3741.383 1942.704, 3741.383 1946.047, 3741.383 1949.392, 3741.383 1952.728, 3741.383 1956.047, 3741.383 1959.338, 3741.383 1962.593, 3741.383 1965.802, 3741.383 1968.956, 3741.383 1972.046, 3741.383 1975.063, 3741.383 1977.999, 3741.383 1980.846, 3741.383 1983.596, 3741.383 1986.241, 3741.383 1996.241, 3741.383 2006.241, 3741.383 2016.241, 3741.383 2026.241, 3741.383 2036.241, 3741.383 2046.241, 3741.383 2056.241, 3741.383 2066.241, 3741.383 2076.241, 3741.383 2086.241, 3741.383 2096.241, 3741.383 2106.241, 3741.383 2116.241, 3741.383 2126.241, 3741.383 2136.241, 3741.383 2146.241, 3741.383 2156.241, 3741.383 2166.241, 3741.383 2176.241, 3741.383 2186.241, 3741.383 2196.241, 3741.383 2206.241, 3741.383 2216.241, 3741.383 2226.241, 3741.383 2236.241, 3741.383 2246.241, 3741.383 2256.241, 3741.383 2266.241, 3741.383 2276.241, 3741.383 2286.241, 3741.383 2296.241, 3741.383 2306.241, 3741.383 2316.762, 3741.383 2321.656, 3741.383 2326.701, 3741.383 2336.701, 3741.383 2346.701, 3741.383 2356.701, 3741.383 2366.701, 3741.383 2376.701, 3741.383 2386.701, 3741.383 2395.016, 3741.383 2400.427, 3741.383 2405.983, 3741.383 2411.666, 3741.383 2417.455, 3741.383 2423.330, 3741.383 2429.272, 3741.383 2435.262, 3741.383 2441.280, 3741.383 2447.307, 3741.383 2453.326, 3741.383 2459.318, 3741.383 2465.266, 3741.383 2471.154, 3741.383 2476.966, 3741.383 2482.688, 3741.383 2488.305, 3741.383 2493.802, 3741.383 2499.169, 3741.383 2504.394, 3741.383 2509.465, 3741.383 2514.372, 3741.383 2524.372, 3741.383 2534.372, 3741.383 2544.372, 3741.383 2554.372, 3741.383 2564.372, 3741.383 2574.372, 3741.383 2584.372, 3741.383 2594.372, 3741.383 2604.372, 3741.383 2614.372, 3741.383 2624.372, 3741.383 2634.372, 3741.383 2644.372, 3741.383 2654.372, 3741.383 2664.372, 3741.383 2674.372, 3741.383 2684.372, 3741.383 2694.372, 3741.383 2704.372, 3741.383 2714.372, 3741.383 2724.372, 3741.383 2734.372, 3741.383 2744.372, 3741.383 2754.372, 3741.383 2764.372, 3741.383 2774.372, 3741.383 2784.372, 3741.383 2794.372, 3741.383 2804.372, 3741.383 2814.372, 3741.383 2824.372, 3741.383 2834.372, 3741.383 2844.372, 3741.383 2854.372, 3741.383 2864.372, 3741.383 2874.372, 3741.383 2884.372, 3741.383 2894.372, 3741.383 2904.372, 3741.383 2914.372, 3741.383 2924.372, 3741.383 2934.372, 3741.383 2944.372, 3741.383 2954.372, 3741.383 2964.372, 3741.383 2974.372, 3741.383 2984.372, 3741.383 2994.372, 3741.383 3004.372, 3741.383 3014.372, 3741.383 3024.372, 3741.383 3034.372, 3741.383 3044.372, 3741.383 3054.372, 3741.383 3064.372, 3741.383 3074.372, 3741.383 3084.372, 3741.383 3094.372, 3741.383 3104.372, 3741.383 3114.372, 3741.383 3124.372, 3741.383 3134.372, 3741.383 3144.372, 3741.383 3154.372, 3741.383 3164.372, 3741.383 3180.545, 3741.383 " />
            <path fill="none" stroke-width="3.0" stroke-linecap="butt" stroke-opacity="1.0" stroke="rgb(0, 0, 0)" stroke-linejoin="round" d=" M 1058.840, 1221.761 1054.668, 1230.849 1050.497, 1239.938 1046.325, 1249.026 1042.154, 1258.114 1037.982, 1267.203 1033.811, 1276.291 1029.640, 1285.379 1025.468, 1294.468 1021.297, 1303.556 1017.125, 1312.645 1012.954, 1321.733 1008.782, 1330.822 1004.611, 1339.910 1000.439, 1348.998 996.268, 1358.087 992.096, 1367.175 987.925, 1376.263 983.753, 1385.352 979.582, 1394.440 975.410, 1403.529 971.239, 1412.617 967.067, 1421.705 962.896, 1430.794 958.724, 1439.882 954.553, 1448.970 950.381, 1458.059 946.210, 1467.147 942.039, 1476.236 937.867, 1485.324 933.696, 1494.412 929.524, 1503.501 925.353, 1512.589 921.181, 1521.677 917.010, 1530.766 912.838, 1539.854 908.667, 1548.943 904.495, 1558.031 900.324, 1567.119 896.152, 1576.208 891.981, 1585.296 887.809, 1594.385 883.638, 1603.473 879.466, 1612.562 875.295, 1621.650 871.123, 1630.738 866.952, 1639.827 862.781, 1648.915 858.609, 1658.003 854.438, 1667.092 850.266, 1676.180 846.095, 1685.269 841.923, 1694.357 837.752, 1703.445 833.580, 1712.534 829.409, 1721.622 825.237, 1730.710 821.066, 1739.799 816.894, 1748.887 812.723, 1757.976 808.551, 1767.064 804.380, 1776.152 800.208, 1785.241 796.037, 1794.329 791.865, 1803.418 787.694, 1812.506 783.522, 1821.594 779.380, 1830.619 774.371, 1839.275 769.362, 1847.930 764.354, 1856.585 759.345, 1865.240 754.336, 1873.895 749.327, 1882.551 744.319, 1891.206 739.310, 1899.861 734.301, 1908.516 729.292, 1917.171 724.284, 1925.827 719.275, 1934.482 714.266, 1943.137 709.257, 1951.792 704.249, 1960.447 699.240, 1969.102 694.231, 1977.758 689.222, 1986.413 684.214, 1995.068 679.205, 2003.723 674.196, 2012.378 668.074, 2022.957 663.035, 2031.594 657.996, 2040.232 652.957, 2048.869 647.918, 2057.507 642.879, 2066.144 637.840, 2074.782 634.835, 2079.933 629.782, 2088.563 624.729, 2097.192 619.676, 2105.822 614.623, 2114.451 609.570, 2123.081 604.517, 2131.710 599.464, 2140.340 594.412, 2148.969 589.359, 2157.599 584.306, 2166.228 579.253, 2174.858 574.200, 2183.487 569.147, 2192.117 564.094, 2200.746 559.041, 2209.376 553.989, 2218.005 548.936, 2226.635 543.883, 2235.265 538.830, 2243.894 533.777, 2252.523 528.724, 2261.153 523.671, 2269.782 518.618, 2278.412 513.565, 2287.042 509.094, 2294.679 505.623, 2304.057 502.152, 2313.435 498.681, 2322.814 495.210, 2332.192 491.740, 2341.570 488.269, 2350.949 484.798, 2360.327 481.327, 2369.705 477.856, 2379.084 474.385, 2388.462 470.914, 2397.840 467.444, 2407.219 463.973, 2416.597 460.502, 2425.975 457.031, 2435.354 453.560, 2444.732 450.089, 2454.110 446.619, 2463.489 443.148, 2472.867 439.677, 2482.245 436.206, 2491.624 432.735, 2501.002 429.264, 2510.380 425.793, 2519.759 422.323, 2529.137 418.852, 2538.515 415.381, 2547.894 411.910, 2557.272 408.439, 2566.650 404.968, 2576.029 401.498, 2585.407 398.027, 2594.785 394.556, 2604.164 391.085, 2613.542 387.614, 2622.920 384.143, 2632.299 380.673, 2641.677 377.202, 2651.055 373.731, 2660.434 370.260, 2669.812 366.789, 2679.190 363.318, 2688.569 359.847, 2697.947 356.377, 2707.325 352.906, 2716.704 349.435, 2726.082 345.964, 2735.461 342.493, 2744.839 339.022, 2754.217 335.552, 2763.596 332.081, 2772.974 328.610, 2782.352 325.139, 2791.731 321.668, 2801.109 318.197, 2810.487 314.727, 2819.866 311.256, 2829.244 307.785, 2838.622 304.314, 2848.001 300.843, 2857.379 297.372, 2866.757 293.901, 2876.136 290.431, 2885.514 286.960, 2894.892 283.489, 2904.271 280.018, 2913.649 276.547, 2923.027 273.076, 2932.406 269.606, 2941.784 266.135, 2951.162 262.664, 2960.541 259.193, 2969.919 255.722, 2979.297 252.251, 2988.676 248.781, 2998.054 245.310, 3007.432 241.839, 3016.811 238.368, 3026.189 234.897, 3035.567 231.426, 3044.946 227.955, 3054.324 224.485, 3063.702 221.014, 3073.081 217.543, 3082.459 214.072, 3091.837 210.601, 3101.216 207.130, 3110.594 203.660, 3119.972 200.189, 3129.351 196.718, 3138.729 193.247, 3148.107 189.776, 3157.486 186.305, 3166.864 181.310, 3180.362 178.602, 3189.988 175.894, 3199.614 173.185, 3209.241 170.477, 3218.867 167.769, 3228.493 165.061, 3238.119 162.353, 3247.746 159.644, 3257.372 156.936, 3266.998 154.228, 3276.625 151.520, 3286.251 148.812, 3295.877 146.103, 3305.504 143.395, 3315.130 140.687, 3324.756 137.979, 3334.382 135.270, 3344.009 132.562, 3353.635 129.854, 3363.261 127.146, 3372.888 124.438, 3382.514 121.729, 3392.140 119.021, 3401.766 116.313, 3411.393 113.605, 3421.019 110.897, 3430.645 108.188, 3440.272 105.480, 3449.898 102.772, 3459.524 100.064, 3469.151 97.356, 3478.777 94.647, 3488.403 91.939, 3498.029 89.231, 3507.656 86.523, 3517.282 83.815, 3526.908 81.106, 3536.535 78.398, 3546.161 75.690, 3555.787 72.982, 3565.414 70.273, 3575.040 67.565, 3584.666 64.857, 3594.292 62.149, 3603.919 59.441, 3613.545 56.732, 3623.171 54.024, 3632.798 51.316, 3642.424 48.608, 3652.050 45.900, 3661.677 43.191, 3671.303 40.483, 3680.929 37.775, 3690.555 35.067, 3700.182 32.359, 3709.808 29.650, 3719.434 26.942, 3729.061 23.475, 3741.383 " />
            <path fill="none" stroke-width="3.0" stroke-linecap="butt" stroke-opacity="1.0" stroke="rgb(0, 0, 0)" stroke-linejoin="round" d=" M 1043.513, 2769.807 1041.663, 2767.910 1039.910, 2765.923 1038.257, 2763.851 1036.710, 2761.699 1035.273, 2759.473 " />
            <path fill="none" stroke-width="3.0" stroke-linecap="butt" stroke-opacity="1.0" stroke="rgb(0, 0, 0)" stroke-linejoin="round" d=" M 1079.299, 2784.892 1076.653, 2784.760 1074.016, 2784.496 1071.395, 2784.101 1068.798, 2783.576 1066.230, 2782.922 1063.697, 2782.141 1061.207, 2781.235 1058.765, 2780.205 1056.377, 2779.056 1054.050, 2777.788 1051.788, 2776.406 1049.599, 2774.913 1047.486, 2773.313 1045.456, 2771.610 " />
            <path fill="none" stroke-width="3.0" stroke-linecap="butt" stroke-opacity="1.0" stroke="rgb(0, 0, 0)" stroke-linejoin="round" d=" M 1033.948, 2757.178 1032.739, 2754.820 1031.648, 2752.405 1030.680, 2749.937 1029.836, 2747.425 1029.119, 2744.874 1028.529, 2742.290 1028.069, 2739.681 " />
            <path fill="none" stroke-width="3.0" stroke-linecap="butt" stroke-opacity="1.0" stroke="rgb(0, 0, 0)" stroke-linejoin="round" d=" M 1027.739, 2737.051 1027.541, 2734.408 1027.475, 2731.759 1027.541, 2729.110 " />
            <path fill="none" stroke-width="3.0" stroke-linecap="butt" stroke-opacity="1.0" stroke="rgb(0, 0, 0)" stroke-linejoin="round" d=" M 1097.552, 2782.141 1095.020, 2782.922 1092.452, 2783.576 1089.854, 2784.101 1087.233, 2784.496 1084.596, 2784.760 1081.950, 2784.892 1079.299, 2784.892 " />
            <path fill="none" stroke-width="3.0" stroke-linecap="butt" stroke-opacity="1.0" stroke="rgb(0, 0, 0)" stroke-linejoin="round" d=" M 1027.541, 2729.110 1027.739, 2726.467 " />
            <path fill="none" stroke-width="3.0" stroke-linecap="butt" stroke-opacity="1.0" stroke="rgb(0, 0, 0)" stroke-linejoin="round" d=" M 1027.739, 2726.467 1028.069, 2723.838 " />
            <path fill="none" stroke-width="3.0" stroke-linecap="butt" stroke-opacity="1.0" stroke="rgb(0, 0, 0)" stroke-linejoin="round" d=" M 1028.069, 2723.838 1028.529, 2721.228 1029.119, 2718.644 1029.836, 2716.094 1030.680, 2713.581 1031.648, 2711.114 1032.739, 2708.698 1033.948, 2706.340 1035.273, 2704.045 1036.710, 2701.819 1038.257, 2699.667 1039.910, 2697.595 1041.663, 2695.608 1043.513, 2693.712 1045.456, 2691.909 1047.486, 2690.205 1049.599, 2688.605 1051.788, 2687.112 1054.050, 2685.730 1056.377, 2684.463 1058.765, 2683.313 1061.207, 2682.284 1063.697, 2681.377 1066.230, 2680.596 " />
            <path fill="none" stroke-width="3.0" stroke-linecap="butt" stroke-opacity="1.0" stroke="rgb(0, 0, 0)" stroke-linejoin="round" d=" M 1107.199, 2777.788 1104.872, 2779.056 1102.484, 2780.205 1100.042, 2781.235 " />
            <path fill="none" stroke-width="3.0" stroke-linecap="butt" stroke-opacity="1.0" stroke="rgb(0, 0, 0)" stroke-linejoin="round" d=" M 1121.339, 2765.923 1119.586, 2767.910 1117.735, 2769.807 1115.793, 2771.610 1113.763, 2773.313 1111.650, 2774.913 " />
            <path fill="none" stroke-width="3.0" stroke-linecap="butt" stroke-opacity="1.0" stroke="rgb(0, 0, 0)" stroke-linejoin="round" d=" M 1129.601, 2752.405 1128.511, 2754.820 1127.302, 2757.178 1125.977, 2759.473 1124.539, 2761.699 " />
            <path fill="none" stroke-width="3.0" stroke-linecap="butt" stroke-opacity="1.0" stroke="rgb(0, 0, 0)" stroke-linejoin="round" d=" M 1947.021, 3576.948 1944.502, 3574.366 1942.116, 3571.662 1939.867, 3568.842 1937.761, 3565.913 1935.804, 3562.883 1934.000, 3559.759 1932.355, 3556.549 1930.871, 3553.261 1929.553, 3549.904 1928.405, 3546.484 1927.428, 3543.012 1926.625, 3539.495 1925.999, 3535.943 1925.550, 3532.364 1925.281, 3528.767 1925.191, 3525.161 1925.281, 3521.555 1925.550, 3517.958 1925.999, 3514.379 1926.625, 3510.827 1927.428, 3507.310 1928.405, 3503.838 1929.553, 3500.418 1930.871, 3497.061 1932.355, 3493.773 1934.000, 3490.563 1935.804, 3487.439 1937.761, 3484.409 1939.867, 3481.480 1942.116, 3478.660 1944.502, 3475.956 1947.021, 3473.374 1949.665, 3470.920 1952.428, 3468.601 1955.304, 3466.423 1958.284, 3464.392 1961.362, 3462.510 1964.530, 3460.786 1967.780, 3459.220 1971.103, 3457.819 1974.493, 3456.586 1977.940, 3455.523 1981.435, 3454.632 1984.971, 3453.917 1988.538, 3453.380 1992.127, 3453.021 1995.729, 3452.841 1999.337, 3452.841 2002.939, 3453.021 2006.528, 3453.380 2010.095, 3453.917 2013.631, 3454.632 2017.126, 3455.523 2020.573, 3456.586 2023.963, 3457.819 2027.286, 3459.220 2030.536, 3460.786 2033.704, 3462.510 2036.782, 3464.392 2039.762, 3466.423 2042.638, 3468.601 2045.401, 3470.920 2048.045, 3473.374 2050.564, 3475.956 2052.950, 3478.660 2055.199, 3481.480 2057.305, 3484.409 2059.262, 3487.439 2061.066, 3490.563 2062.711, 3493.773 2064.195, 3497.061 2065.513, 3500.418 2066.661, 3503.838 2067.638, 3507.310 2068.441, 3510.827 2069.067, 3514.379 2069.516, 3517.958 2069.785, 3521.555 2069.875, 3525.161 2069.785, 3528.767 2069.516, 3532.364 2069.067, 3535.943 2068.441, 3539.495 2067.638, 3543.012 2066.661, 3546.484 2065.513, 3549.904 2064.195, 3553.261 2062.711, 3556.549 2061.066, 3559.759 2059.262, 3562.883 2057.305, 3565.913 2055.199, 3568.842 2052.950, 3571.662 2050.564, 3574.366 2048.045, 3576.948 2045.401, 3579.402 2042.638, 3581.721 2039.762, 3583.898 2036.782, 3585.930 2033.704, 3587.811 2030.536, 3589.536 2027.286, 3591.102 2023.963, 3592.503 2020.573, 3593.736 2017.126, 3594.800 2013.631, 3595.689 2010.095, 3596.404 2006.528, 3596.942 2002.939, 3597.301 1999.337, 3597.481 1995.729, 3597.481 1992.127, 3597.301 1988.538, 3596.942 1984.971, 3596.404 1981.435, 3595.689 1977.940, 3594.800 1974.493, 3593.736 1971.103, 3592.503 1967.780, 3591.102 1964.530, 3589.536 1961.362, 3587.811 1958.284, 3585.930 1955.304, 3583.898 1952.428, 3581.721 1949.665, 3579.402 1947.021, 3576.948 " />
            <path fill="none" stroke-width="3.0" stroke-linecap="butt" stroke-opacity="1.0" stroke="rgb(0, 0, 0)" stroke-linejoin="round" d=" M 1133.510, 2737.051 1133.180, 2739.681 1132.720, 2742.290 1132.130, 2744.874 1131.413, 2747.425 1130.569, 2749.937 1129.601, 2752.405 " />
            <path fill="none" stroke-width="3.0" stroke-linecap="butt" stroke-opacity="1.0" stroke="rgb(0, 0, 0)" stroke-linejoin="round" d=" M 1066.230, 2680.596 1068.798, 2679.942 " />
            <path fill="none" stroke-width="3.0" stroke-linecap="butt" stroke-opacity="1.0" stroke="rgb(0, 0, 0)" stroke-linejoin="round" d=" M 1068.798, 2679.942 1071.395, 2679.417 1074.016, 2679.022 1076.653, 2678.758 1079.299, 2678.626 1081.950, 2678.626 " />
            <path fill="none" stroke-width="3.0" stroke-linecap="butt" stroke-opacity="1.0" stroke="rgb(0, 0, 0)" stroke-linejoin="round" d=" M 1081.950, 2678.626 1084.596, 2678.758 1087.233, 2679.022 1089.854, 2679.417 1092.452, 2679.942 1095.020, 2680.596 " />
            <path fill="none" stroke-width="3.0" stroke-linecap="butt" stroke-opacity="1.0" stroke="rgb(0, 0, 0)" stroke-linejoin="round" d=" M 1095.020, 2680.596 1097.552, 2681.377 1100.042, 2682.284 1102.484, 2683.313 " />
            <path fill="none" stroke-width="3.0" stroke-linecap="butt" stroke-opacity="1.0" stroke="rgb(0, 0, 0)" stroke-linejoin="round" d=" M 1102.484, 2683.313 1104.872, 2684.463 " />
            <path fill="none" stroke-width="3.0" stroke-linecap="butt" stroke-opacity="1.0" stroke="rgb(0, 0, 0)" stroke-linejoin="round" d=" M 1104.872, 2684.463 1107.199, 2685.730 1109.461, 2687.112 1111.650, 2688.605 " />
            <path fill="none" stroke-width="3.0" stroke-linecap="butt" stroke-opacity="1.0" stroke="rgb(0, 0, 0)" stroke-linejoin="round" d=" M 1111.650, 2688.605 1113.763, 2690.205 " />
            <path fill="none" stroke-width="3.0" stroke-linecap="butt" stroke-opacity="1.0" stroke="rgb(0, 0, 0)" stroke-linejoin="round" d=" M 1113.763, 2690.205 1115.793, 2691.909 " />
            <path fill="none" stroke-width="3.0" stroke-linecap="butt" stroke-opacity="1.0" stroke="rgb(0, 0, 0)" stroke-linejoin="round" d=" M 1115.793, 2691.909 1117.735, 2693.712 1119.586, 2695.608 1121.339, 2697.595 1122.992, 2699.667 1124.539, 2701.819 1125.977, 2704.045 1127.302, 2706.340 1128.511, 2708.698 " />
            <path fill="none" stroke-width="3.0" stroke-linecap="butt" stroke-opacity="1.0" stroke="rgb(0, 0, 0)" stroke-linejoin="round" d=" M 2273.551, 2783.576 2270.954, 2784.101 2268.333, 2784.496 2265.696, 2784.760 2263.049, 2784.892 2260.399, 2784.892 2257.752, 2784.760 2255.115, 2784.496 2252.495, 2784.101 2249.897, 2783.576 2247.329, 2782.922 2244.797, 2782.141 2242.307, 2781.235 2239.865, 2780.205 2237.477, 2779.056 2235.150, 2777.788 2232.888, 2776.406 2230.699, 2774.913 2228.586, 2773.313 2226.556, 2771.610 2224.613, 2769.807 " />
            <path fill="none" stroke-width="3.0" stroke-linecap="butt" stroke-opacity="1.0" stroke="rgb(0, 0, 0)" stroke-linejoin="round" d=" M 2224.613, 2769.807 2222.763, 2767.910 2221.010, 2765.923 2219.357, 2763.851 " />
            <path fill="none" stroke-width="3.0" stroke-linecap="butt" stroke-opacity="1.0" stroke="rgb(0, 0, 0)" stroke-linejoin="round" d=" M 2213.838, 2754.820 2212.748, 2752.405 2211.780, 2749.937 2210.936, 2747.425 2210.218, 2744.874 2209.629, 2742.290 " />
            <path fill="none" stroke-width="3.0" stroke-linecap="butt" stroke-opacity="1.0" stroke="rgb(0, 0, 0)" stroke-linejoin="round" d=" M 1133.180, 2723.838 1133.510, 2726.467 1133.708, 2729.110 1133.774, 2731.759 1133.708, 2734.408 1133.510, 2737.051 " />
            <path fill="none" stroke-width="3.0" stroke-linecap="butt" stroke-opacity="1.0" stroke="rgb(0, 0, 0)" stroke-linejoin="round" d=" M 2208.839, 2737.051 2208.641, 2734.408 2208.575, 2731.759 2208.641, 2729.110 2208.839, 2726.467 2209.168, 2723.838 2209.629, 2721.228 2210.218, 2718.644 2210.936, 2716.094 2211.780, 2713.581 2212.748, 2711.114 " />
            <path fill="none" stroke-width="3.0" stroke-linecap="butt" stroke-opacity="1.0" stroke="rgb(0, 0, 0)" stroke-linejoin="round" d=" M 2308.401, 2757.178 2307.076, 2759.473 2305.638, 2761.699 2304.092, 2763.851 2302.439, 2765.923 2300.686, 2767.910 2298.835, 2769.807 2296.893, 2771.610 2294.863, 2773.313 2292.750, 2774.913 2290.560, 2776.406 2288.299, 2777.788 2285.972, 2779.056 2283.584, 2780.205 2281.142, 2781.235 2278.652, 2782.141 2276.119, 2782.922 2273.551, 2783.576 " />
            <path fill="none" stroke-width="3.0" stroke-linecap="butt" stroke-opacity="1.0" stroke="rgb(0, 0, 0)" stroke-linejoin="round" d=" M 2212.748, 2711.114 2213.838, 2708.698 " />
            <path fill="none" stroke-width="3.0" stroke-linecap="butt" stroke-opacity="1.0" stroke="rgb(0, 0, 0)" stroke-linejoin="round" d=" M 1128.511, 2708.698 1129.601, 2711.114 1130.569, 2713.581 1131.413, 2716.094 1132.130, 2718.644 1132.720, 2721.228 1133.180, 2723.838 " />
            <path fill="none" stroke-width="3.0" stroke-linecap="butt" stroke-opacity="1.0" stroke="rgb(0, 0, 0)" stroke-linejoin="round" d=" M 2213.838, 2708.698 2215.047, 2706.340 " />
            <path fill="none" stroke-width="3.0" stroke-linecap="butt" stroke-opacity="1.0" stroke="rgb(0, 0, 0)" stroke-linejoin="round" d=" M 2216.372, 2704.045 2217.810, 2701.819 2219.357, 2699.667 2221.010, 2697.595 2222.763, 2695.608 2224.613, 2693.712 " />
            <path fill="none" stroke-width="3.0" stroke-linecap="butt" stroke-opacity="1.0" stroke="rgb(0, 0, 0)" stroke-linejoin="round" d=" M 2215.047, 2706.340 2216.372, 2704.045 " />
            <path fill="none" stroke-width="3.0" stroke-linecap="butt" stroke-opacity="1.0" stroke="rgb(0, 0, 0)" stroke-linejoin="round" d=" M 2224.613, 2693.712 2226.556, 2691.909 2228.586, 2690.205 2230.699, 2688.605 2232.888, 2687.112 2235.150, 2685.730 2237.477, 2684.463 2239.865, 2683.313 2242.307, 2682.284 2244.797, 2681.377 2247.329, 2680.596 2249.897, 2679.942 " />
            <path fill="none" stroke-width="3.0" stroke-linecap="butt" stroke-opacity="1.0" stroke="rgb(0, 0, 0)" stroke-linejoin="round" d=" M 2252.495, 2679.417 2255.115, 2679.022 2257.752, 2678.758 2260.399, 2678.626 " />
            <path fill="none" stroke-width="3.0" stroke-linecap="butt" stroke-opacity="1.0" stroke="rgb(0, 0, 0)" stroke-linejoin="round" d=" M 2249.897, 2679.942 2252.495, 2679.417 " />
            <path fill="none" stroke-width="3.0" stroke-linecap="butt" stroke-opacity="1.0" stroke="rgb(0, 0, 0)" stroke-linejoin="round" d=" M 2260.399, 2678.626 2263.049, 2678.626 2265.696, 2678.758 2268.333, 2679.022 2270.954, 2679.417 2273.551, 2679.942 2276.119, 2680.596 2278.652, 2681.377 2281.142, 2682.284 2283.584, 2683.313 2285.972, 2684.463 2288.299, 2685.730 2290.560, 2687.112 2292.750, 2688.605 2294.863, 2690.205 " />
            <path fill="none" stroke-width="3.0" stroke-linecap="butt" stroke-opacity="1.0" stroke="rgb(0, 0, 0)" stroke-linejoin="round" d=" M 1734.762, 1796.934 1732.244, 1794.352 1729.857, 1791.647 1727.608, 1788.827 1725.502, 1785.898 1723.545, 1782.868 1721.742, 1779.744 1720.096, 1776.534 1718.612, 1773.246 1717.295, 1769.888 1716.146, 1766.469 1715.169, 1762.998 1714.366, 1759.480 1713.740, 1755.928 1713.291, 1752.349 1713.022, 1748.752 1712.932, 1745.147 1713.022, 1741.540 1713.291, 1737.943 1713.740, 1734.364 1714.366, 1730.812 1715.169, 1727.295 1716.146, 1723.823 1717.295, 1720.404 1718.612, 1717.046 1720.096, 1713.759 1721.742, 1710.548 1723.545, 1707.425 1725.502, 1704.395 1727.608, 1701.465 1729.857, 1698.645 1732.244, 1695.940 1734.762, 1693.358 1737.406, 1690.906 1740.170, 1688.587 1743.045, 1686.408 1746.025, 1684.377 1749.103, 1682.496 1752.271, 1680.771 1755.521, 1679.206 1758.844, 1677.805 1762.234, 1676.571 1765.681, 1675.508 1769.176, 1674.617 1772.712, 1673.904 1776.279, 1673.366 1779.868, 1673.007 1783.471, 1672.826 1787.078, 1672.826 1790.680, 1673.007 1794.270, 1673.366 1797.836, 1673.904 1801.372, 1674.617 1804.868, 1675.508 1808.314, 1676.571 1811.704, 1677.805 1815.028, 1679.206 1818.278, 1680.771 1821.445, 1682.496 1824.523, 1684.377 1827.504, 1686.408 1830.379, 1688.587 1833.142, 1690.906 1835.786, 1693.358 1838.305, 1695.940 1840.692, 1698.645 1842.941, 1701.465 1845.046, 1704.395 1847.003, 1707.425 1848.807, 1710.548 1850.453, 1713.759 1851.936, 1717.046 1853.254, 1720.404 1854.403, 1723.823 1855.380, 1727.295 1856.182, 1730.812 1856.809, 1734.364 1857.257, 1737.943 1857.527, 1741.540 1857.617, 1745.147 1857.527, 1748.752 1857.257, 1752.349 1856.809, 1755.928 1856.182, 1759.480 1855.380, 1762.998 1854.403, 1766.469 1853.254, 1769.888 1851.936, 1773.246 1850.453, 1776.534 1848.807, 1779.744 1847.003, 1782.868 1845.046, 1785.898 1842.941, 1788.827 1840.692, 1791.647 1838.305, 1794.352 1835.786, 1796.934 1833.142, 1799.387 1830.379, 1801.705 1827.504, 1803.884 1824.523, 1805.916 1821.445, 1807.796 1818.278, 1809.522 1815.028, 1811.087 1811.704, 1812.487 1808.314, 1813.722 1804.868, 1814.785 1801.372, 1815.675 1797.836, 1816.389 1794.270, 1816.927 1790.680, 1817.286 1787.078, 1817.466 1783.471, 1817.466 1779.868, 1817.286 1776.279, 1816.927 1772.712, 1816.389 1769.176, 1815.675 1765.681, 1814.785 1762.234, 1813.722 1758.844, 1812.487 1755.521, 1811.087 1752.271, 1809.522 1749.103, 1807.796 1746.025, 1805.916 1743.045, 1803.884 1740.170, 1801.705 1737.406, 1799.387 1734.762, 1796.934 " />
            <path fill="none" stroke-width="3.0" stroke-linecap="butt" stroke-opacity="1.0" stroke="rgb(0, 0, 0)" stroke-linejoin="round" d=" M 2294.863, 2690.205 2296.893, 2691.909 2298.835, 2693.712 2300.686, 2695.608 2302.439, 2697.595 2304.092, 2699.667 2305.638, 2701.819 " />
            <path fill="none" stroke-width="3.0" stroke-linecap="butt" stroke-opacity="1.0" stroke="rgb(0, 0, 0)" stroke-linejoin="round" d=" M 2310.700, 2711.114 2311.668, 2713.581 2312.512, 2716.094 2313.230, 2718.644 2313.820, 2721.228 2314.280, 2723.838 2314.610, 2726.467 2314.808, 2729.110 2314.874, 2731.759 2314.808, 2734.408 2314.610, 2737.051 2314.280, 2739.681 2313.820, 2742.290 2313.230, 2744.874 2312.512, 2747.425 2311.668, 2749.937 2310.700, 2752.405 2309.610, 2754.820 " />
            <path fill="none" stroke-width="3.0" stroke-linecap="butt" stroke-opacity="1.0" stroke="rgb(0, 0, 0)" stroke-linejoin="round" d=" M 2309.610, 2708.698 2310.700, 2711.114 " />
            <path fill="none" stroke-width="3.0" stroke-linecap="butt" stroke-opacity="1.0" stroke="rgb(0, 0, 0)" stroke-linejoin="round" d=" M 2305.638, 2701.819 2307.076, 2704.045 2308.401, 2706.340 2309.610, 2708.698 " />
            <path fill="none" stroke-width="3.0" stroke-linecap="butt" stroke-opacity="1.0" stroke="rgb(0, 0, 0)" stroke-linejoin="round" d=" M 2779.098, 2733.045 2778.165, 2723.088 2777.233, 2713.132 2776.301, 2703.176 2775.368, 2693.219 2774.436, 2683.263 2773.504, 2673.306 2772.571, 2663.350 2771.639, 2653.393 2770.707, 2643.437 2769.774, 2633.480 2768.842, 2623.524 2767.910, 2613.568 2766.977, 2603.611 2766.045, 2593.655 2765.113, 2583.698 2764.180, 2573.742 2763.248, 2563.785 2762.316, 2553.829 2761.383, 2543.872 2760.451, 2533.916 2759.519, 2523.959 2758.529, 2513.389 2755.806, 2503.766 2753.084, 2494.144 2750.362, 2484.522 2747.639, 2474.899 2744.917, 2465.277 2742.194, 2455.655 2739.472, 2446.033 2736.749, 2436.410 2734.027, 2426.788 2731.304, 2417.166 2728.582, 2407.543 2725.860, 2397.921 2723.137, 2388.299 2720.415, 2378.677 2717.692, 2369.054 2714.970, 2359.432 2712.248, 2349.810 2709.525, 2340.187 2706.803, 2330.565 2704.080, 2320.943 2701.358, 2311.321 2698.635, 2301.698 2695.913, 2292.076 2693.191, 2282.454 2690.468, 2272.831 2687.746, 2263.209 2685.023, 2253.587 2682.301, 2243.964 2679.579, 2234.342 2676.856, 2224.720 2674.134, 2215.098 2671.411, 2205.475 2668.689, 2195.853 2665.967, 2186.231 2663.244, 2176.609 2660.522, 2166.986 2657.799, 2157.364 2655.077, 2147.742 2652.354, 2138.119 2649.632, 2128.497 2646.910, 2118.875 2644.187, 2109.252 2641.465, 2099.630 2638.742, 2090.008 2636.020, 2080.386 2633.298, 2070.763 2630.575, 2061.141 2627.853, 2051.519 2625.130, 2041.896 2622.408, 2032.274 2619.686, 2022.652 2616.963, 2013.030 2614.241, 2003.407 2611.518, 1993.785 2608.796, 1984.163 2606.073, 1974.540 2603.351, 1964.918 2600.629, 1955.296 2597.906, 1945.674 2595.184, 1936.051 2592.461, 1926.429 2589.739, 1916.807 2587.017, 1907.184 2584.294, 1897.562 2581.572, 1887.940 2578.849, 1878.318 2576.127, 1868.695 2573.405, 1859.073 2570.682, 1849.451 2567.960, 1839.828 2565.237, 1830.206 2562.515, 1820.584 2559.792, 1810.961 2557.070, 1801.339 2554.348, 1791.717 2551.625, 1782.095 2548.903, 1772.472 2546.180, 1762.850 2543.458, 1753.228 2540.736, 1743.605 2538.013, 1733.983 2535.291, 1724.361 2532.568, 1714.739 2529.846, 1705.116 2527.123, 1695.494 2524.401, 1685.872 2521.678, 1676.250 2518.956, 1666.627 2516.234, 1657.005 2513.511, 1647.383 2510.789, 1637.760 2508.066, 1628.138 2505.344, 1618.516 2502.622, 1608.893 2499.899, 1599.271 2497.177, 1589.649 2494.454, 1580.027 2490.050, 1564.458 " />
            <path fill="none" stroke-width="3.0" stroke-linecap="butt" stroke-opacity="1.0" stroke="rgb(0, 0, 0)" stroke-linejoin="round" d=" M 1357.580, 23.627 1355.229, 33.347 1352.877, 43.066 1350.526, 52.786 1348.174, 62.505 1345.823, 72.225 1343.471, 81.945 1341.120, 91.664 1338.768, 101.384 1336.417, 111.104 1334.065, 120.823 1331.714, 130.542 1329.362, 140.262 1327.011, 149.982 1324.659, 159.701 1322.308, 169.421 1319.956, 179.140 1317.605, 188.860 1315.253, 198.580 1312.902, 208.299 1310.550, 218.019 1308.198, 227.739 1305.847, 237.458 1303.495, 247.177 1301.144, 256.897 1298.792, 266.617 1296.441, 276.336 1294.089, 286.056 1291.738, 295.776 1289.386, 305.495 1287.035, 315.215 1284.683, 324.934 1282.332, 334.654 1279.980, 344.374 1277.629, 354.093 1275.277, 363.813 1272.926, 373.532 1270.574, 383.252 1268.223, 392.971 1265.552, 404.011 1263.101, 413.706 1260.650, 423.401 1258.200, 433.096 1255.749, 442.792 1253.298, 452.487 1250.847, 462.182 1248.397, 471.877 1245.946, 481.572 1243.495, 491.267 1241.045, 500.962 1238.594, 510.657 1236.143, 520.352 1233.692, 530.047 1231.242, 539.742 1228.791, 549.437 1226.340, 559.132 1223.889, 568.827 1221.439, 578.522 1218.988, 588.217 1216.537, 597.912 1214.087, 607.607 1211.636, 617.302 1209.185, 626.997 1206.734, 636.692 1204.284, 646.387 1201.833, 656.083 1199.382, 665.778 1196.931, 675.473 1194.481, 685.168 1192.030, 694.863 1189.579, 704.558 1187.129, 714.253 1184.678, 723.948 1182.227, 733.643 1179.776, 743.338 1177.326, 753.033 1174.875, 762.728 1172.424, 772.423 1169.973, 782.118 1167.523, 791.813 1165.072, 801.508 1162.621, 811.203 1160.170, 820.898 1157.720, 830.594 1155.269, 840.288 1152.818, 849.983 1150.368, 859.678 1147.917, 869.374 1145.466, 879.069 1143.015, 888.764 1140.565, 898.459 1138.114, 908.154 1135.663, 917.849 1133.212, 927.544 1130.762, 937.239 1128.311, 946.934 1125.860, 956.629 1123.410, 966.324 1120.959, 976.019 1118.508, 985.714 1116.057, 995.409 1113.607, 1005.104 1111.156, 1014.799 1108.705, 1024.494 1106.254, 1034.189 1103.804, 1043.885 1101.353, 1053.580 1098.902, 1063.275 1096.452, 1072.969 1094.001, 1082.665 1091.550, 1092.360 1089.099, 1102.055 1086.649, 1111.750 1084.198, 1121.445 1081.747, 1131.140 1079.296, 1140.835 1076.846, 1150.530 1074.395, 1160.225 1071.944, 1169.920 1069.494, 1179.615 1067.043, 1189.310 1064.592, 1199.005 1062.141, 1208.700 1058.840, 1221.761 " />
            <path fill="none" stroke-width="3.0" stroke-linecap="butt" stroke-opacity="1.0" stroke="rgb(0, 0, 0)" stroke-linejoin="round" d=" M 2490.050, 1564.458 2486.940, 1554.953 2483.831, 1545.449 2480.722, 1535.945 2477.613, 1526.440 2474.504, 1516.936 2471.395, 1507.431 2468.285, 1497.927 2465.176, 1488.423 2462.067, 1478.918 2458.958, 1469.414 2455.849, 1459.910 2452.740, 1450.405 2449.630, 1440.901 2446.521, 1431.396 2443.412, 1421.892 2440.303, 1412.388 2437.194, 1402.883 2434.084, 1393.379 2430.975, 1383.875 2427.866, 1374.370 2424.757, 1364.866 2421.648, 1355.362 2418.539, 1345.857 2415.429, 1336.353 2412.320, 1326.848 2409.211, 1317.344 2406.102, 1307.840 2402.993, 1298.335 2399.884, 1288.831 2396.774, 1279.326 2393.665, 1269.822 2390.556, 1260.318 2387.447, 1250.813 2384.338, 1241.309 2381.229, 1231.805 2378.119, 1222.300 2375.010, 1212.796 2371.901, 1203.292 2368.792, 1193.787 2365.683, 1184.283 2362.573, 1174.779 2359.464, 1165.274 2356.355, 1155.770 2353.246, 1146.265 2350.137, 1136.761 2347.028, 1127.257 2343.918, 1117.752 2340.809, 1108.248 2337.700, 1098.743 2334.591, 1089.239 2331.482, 1079.735 2328.373, 1070.230 2325.263, 1060.726 2322.154, 1051.222 2319.045, 1041.717 2315.936, 1032.213 2312.827, 1022.708 2309.718, 1013.204 2306.608, 1003.700 2303.499, 994.196 2300.390, 984.691 2297.281, 975.187 2294.172, 965.682 2291.062, 956.178 2287.953, 946.674 2284.844, 937.169 2281.735, 927.665 2278.626, 918.160 2275.517, 908.656 2272.407, 899.152 2269.298, 889.647 2266.189, 880.143 2263.080, 870.639 2259.971, 861.134 2256.862, 851.630 2253.752, 842.125 2250.643, 832.621 2247.534, 823.117 2244.425, 813.612 2241.316, 804.108 2238.207, 794.604 2235.097, 785.099 2231.988, 775.595 2228.879, 766.091 2225.770, 756.586 2222.661, 747.082 2217.212, 730.426 2214.440, 720.817 2211.669, 711.209 2208.898, 701.601 2206.127, 691.992 2203.355, 682.384 2200.584, 672.776 2197.813, 663.167 2195.042, 653.559 2192.271, 643.951 2189.499, 634.342 2186.728, 624.734 2183.957, 615.125 2181.185, 605.517 2178.414, 595.909 2175.643, 586.301 2172.872, 576.692 2170.100, 567.084 2167.329, 557.476 2164.558, 547.867 2161.787, 538.259 2159.015, 528.651 2156.244, 519.042 2153.473, 509.434 2150.701, 499.825 2147.930, 490.217 2145.159, 480.609 2142.388, 471.000 2139.616, 461.392 2136.845, 451.784 2134.074, 442.176 2131.303, 432.567 2128.531, 422.959 2125.760, 413.351 2122.989, 403.742 2120.218, 394.134 2117.446, 384.526 2114.675, 374.917 2111.904, 365.309 2109.133, 355.700 2106.361, 346.092 2103.590, 336.484 2100.819, 326.875 2098.048, 317.267 2095.276, 307.659 2092.505, 298.051 2089.734, 288.442 2086.963, 278.834 2084.191, 269.226 2081.420, 259.617 2078.649, 250.009 2075.877, 240.400 2073.106, 230.792 2070.335, 221.184 2067.564, 211.575 2064.792, 201.967 2062.021, 192.359 2059.250, 182.750 2056.479, 173.142 2053.708, 163.534 2050.936, 153.926 2048.165, 144.317 2045.394, 134.709 2042.622, 125.100 2039.851, 115.492 2037.080, 105.884 2034.309, 96.275 2031.537, 86.667 2028.766, 77.059 2025.995, 67.450 2023.224, 57.842 2020.452, 48.234 2017.681, 38.625 2013.366, 23.665 " />
            <path fill="none" stroke-width="3.0" stroke-linecap="butt" stroke-opacity="1.0" stroke="rgb(0, 0, 0)" stroke-linejoin="round" d=" M 957.859, 2293.290 955.341, 2290.707 952.954, 2288.003 950.705, 2285.183 948.599, 2282.254 946.642, 2279.224 944.839, 2276.099 943.193, 2272.890 941.710, 2269.602 940.392, 2266.244 939.243, 2262.825 938.266, 2259.353 937.464, 2255.837 936.837, 2252.284 936.389, 2248.705 936.119, 2245.108 936.029, 2241.502 936.119, 2237.896 936.389, 2234.299 936.837, 2230.720 937.464, 2227.167 938.266, 2223.651 939.243, 2220.178 940.392, 2216.760 941.710, 2213.401 943.193, 2210.114 944.839, 2206.904 946.642, 2203.781 948.599, 2200.750 950.705, 2197.821 952.954, 2195.001 955.341, 2192.297 957.859, 2189.714 960.503, 2187.262 963.267, 2184.942 966.142, 2182.765 969.122, 2180.732 972.200, 2178.852 975.368, 2177.126 978.618, 2175.561 981.942, 2174.160 985.331, 2172.926 988.778, 2171.863 992.274, 2170.973 995.809, 2170.259 999.376, 2169.722 1002.965, 2169.362 1006.568, 2169.182 1010.175, 2169.182 1013.778, 2169.362 1017.367, 2169.722 1020.934, 2170.259 1024.469, 2170.973 1027.965, 2171.863 1031.411, 2172.926 1034.801, 2174.160 1038.125, 2175.561 1041.375, 2177.126 1044.543, 2178.852 1047.620, 2180.732 1050.601, 2182.765 1053.476, 2184.942 1056.239, 2187.262 1058.884, 2189.714 1061.402, 2192.297 1063.789, 2195.001 1066.038, 2197.821 1068.143, 2200.750 1070.101, 2203.781 1071.904, 2206.904 1073.550, 2210.114 1075.033, 2213.401 1076.351, 2216.760 1077.500, 2220.178 1078.477, 2223.651 1079.279, 2227.167 1079.906, 2230.720 1080.354, 2234.299 1080.624, 2237.896 1080.714, 2241.502 1080.624, 2245.108 1080.354, 2248.705 1079.906, 2252.284 1079.279, 2255.837 1078.477, 2259.353 1077.500, 2262.825 1076.351, 2266.244 1075.033, 2269.602 1073.550, 2272.890 1071.904, 2276.099 1070.101, 2279.224 1068.143, 2282.254 1066.038, 2285.183 1063.789, 2288.003 1061.402, 2290.707 1058.884, 2293.290 1056.239, 2295.743 1053.476, 2298.061 1050.601, 2300.239 1047.620, 2302.272 1044.543, 2304.152 1041.375, 2305.878 1038.125, 2307.443 1034.801, 2308.844 1031.411, 2310.077 1027.965, 2311.141 1024.469, 2312.031 1020.934, 2312.745 1017.367, 2313.283 1013.778, 2313.642 1010.175, 2313.822 1006.568, 2313.822 1002.965, 2313.642 999.376, 2313.283 995.809, 2312.745 992.274, 2312.031 988.778, 2311.141 985.331, 2310.077 981.942, 2308.844 978.618, 2307.443 975.368, 2305.878 972.200, 2304.152 969.122, 2302.272 966.142, 2300.239 963.267, 2298.061 960.503, 2295.743 957.859, 2293.290 " />
            <path fill="none" stroke-width="3.0" stroke-linecap="butt" stroke-opacity="1.0" stroke="rgb(0, 0, 0)" stroke-linejoin="round" d=" M 2138.959, 2292.686 2136.440, 2290.104 2134.053, 2287.399 2131.805, 2284.580 2129.699, 2281.651 2127.742, 2278.620 2125.938, 2275.497 2124.293, 2272.287 2122.809, 2268.999 2121.491, 2265.641 2120.343, 2262.222 2119.366, 2258.750 2118.563, 2255.233 2117.937, 2251.681 2117.488, 2248.102 2117.219, 2244.505 2117.129, 2240.899 2117.219, 2237.293 2117.488, 2233.696 2117.937, 2230.116 2118.563, 2226.565 2119.366, 2223.047 2120.343, 2219.575 2121.491, 2216.157 2122.809, 2212.799 2124.293, 2209.510 2125.938, 2206.300 2127.742, 2203.177 2129.699, 2200.147 2131.805, 2197.218 2134.053, 2194.398 2136.440, 2191.693 2138.959, 2189.111 2141.603, 2186.658 2144.366, 2184.339 2147.242, 2182.161 2150.222, 2180.130 2153.300, 2178.249 2156.468, 2176.524 2159.718, 2174.959 2163.042, 2173.557 2166.431, 2172.324 2169.878, 2171.261 2173.373, 2170.370 2176.909, 2169.656 2180.476, 2169.118 2184.065, 2168.759 2187.667, 2168.579 2191.275, 2168.579 2194.877, 2168.759 2198.466, 2169.118 2202.033, 2169.656 2205.569, 2170.370 2209.064, 2171.261 2212.511, 2172.324 2215.901, 2173.557 2219.225, 2174.959 2222.474, 2176.524 2225.642, 2178.249 2228.720, 2180.130 2231.700, 2182.161 2234.576, 2184.339 2237.339, 2186.658 2239.983, 2189.111 2242.502, 2191.693 2244.888, 2194.398 2247.137, 2197.218 2249.243, 2200.147 2251.200, 2203.177 2253.004, 2206.300 2254.649, 2209.510 2256.133, 2212.799 2257.450, 2216.157 2258.599, 2219.575 2259.576, 2223.047 2260.379, 2226.565 2261.005, 2230.116 2261.454, 2233.696 2261.723, 2237.293 2261.813, 2240.899 2261.723, 2244.505 2261.454, 2248.102 2261.005, 2251.681 2260.379, 2255.233 2259.576, 2258.750 2258.599, 2262.222 2257.450, 2265.641 2256.133, 2268.999 2254.649, 2272.287 2253.004, 2275.497 2251.200, 2278.620 2249.243, 2281.651 2247.137, 2284.580 2244.888, 2287.399 2242.502, 2290.104 2239.983, 2292.686 2237.339, 2295.140 2234.576, 2297.458 2231.700, 2299.637 2228.720, 2301.668 2225.642, 2303.549 2222.474, 2305.274 2219.225, 2306.839 2215.901, 2308.240 2212.511, 2309.474 2209.064, 2310.537 2205.569, 2311.427 2202.033, 2312.142 2198.466, 2312.680 2194.877, 2313.039 2191.275, 2313.219 2187.667, 2313.219 2184.065, 2313.039 2180.476, 2312.680 2176.909, 2312.142 2173.373, 2311.427 2169.878, 2310.537 2166.431, 2309.474 2163.042, 2308.240 2159.718, 2306.839 2156.468, 2305.274 2153.300, 2303.549 2150.222, 2301.668 2147.242, 2299.637 2144.366, 2297.458 2141.603, 2295.140 2138.959, 2292.686 " />
            <path fill="none" stroke-width="3.0" stroke-linecap="butt" stroke-opacity="1.0" stroke="rgb(0, 0, 0)" stroke-linejoin="round" d=" M 1028.069, 2739.681 1027.739, 2737.051 " />
            <path fill="none" stroke-width="3.0" stroke-linecap="butt" stroke-opacity="1.0" stroke="rgb(0, 0, 0)" stroke-linejoin="round" d=" M 1035.273, 2759.473 1033.948, 2757.178 " />
            <path fill="none" stroke-width="3.0" stroke-linecap="butt" stroke-opacity="1.0" stroke="rgb(0, 0, 0)" stroke-linejoin="round" d=" M 1045.456, 2771.610 1043.513, 2769.807 " />
            <path fill="none" stroke-width="3.0" stroke-linecap="butt" stroke-opacity="1.0" stroke="rgb(0, 0, 0)" stroke-linejoin="round" d=" M 1100.042, 2781.235 1097.552, 2782.141 " />
            <path fill="none" stroke-width="3.0" stroke-linecap="butt" stroke-opacity="1.0" stroke="rgb(0, 0, 0)" stroke-linejoin="round" d=" M 1109.461, 2776.406 1107.199, 2777.788 " />
            <path fill="none" stroke-width="3.0" stroke-linecap="butt" stroke-opacity="1.0" stroke="rgb(0, 0, 0)" stroke-linejoin="round" d=" M 1111.650, 2774.913 1109.461, 2776.406 " />
            <path fill="none" stroke-width="3.0" stroke-linecap="butt" stroke-opacity="1.0" stroke="rgb(0, 0, 0)" stroke-linejoin="round" d=" M 1122.992, 2763.851 1121.339, 2765.923 " />
            <path fill="none" stroke-width="3.0" stroke-linecap="butt" stroke-opacity="1.0" stroke="rgb(0, 0, 0)" stroke-linejoin="round" d=" M 1124.539, 2761.699 1122.992, 2763.851 " />
            <path fill="none" stroke-width="3.0" stroke-linecap="butt" stroke-opacity="1.0" stroke="rgb(0, 0, 0)" stroke-linejoin="round" d=" M 1999.201, 23.664 1989.201, 23.664 1979.201, 23.663 1969.201, 23.663 1959.201, 23.662 1949.201, 23.662 1939.201, 23.661 1929.201, 23.660 1919.201, 23.660 1909.201, 23.659 1899.201, 23.659 1889.201, 23.658 1879.201, 23.657 1869.201, 23.657 1859.201, 23.656 1849.201, 23.656 1839.201, 23.655 1829.201, 23.655 1819.201, 23.654 1809.201, 23.653 1799.201, 23.653 1789.201, 23.652 1779.201, 23.652 1769.201, 23.651 1759.201, 23.650 1749.201, 23.650 1739.201, 23.649 1729.201, 23.649 1719.201, 23.648 1709.201, 23.647 1699.201, 23.647 1689.201, 23.646 1679.201, 23.646 1669.201, 23.645 1659.201, 23.645 1649.201, 23.644 1639.201, 23.644 1629.201, 23.643 1619.201, 23.642 1609.201, 23.642 1599.201, 23.641 1589.201, 23.641 1579.201, 23.640 1569.201, 23.639 1559.201, 23.639 1549.201, 23.638 1539.201, 23.638 1529.201, 23.637 1519.201, 23.636 1509.201, 23.636 1499.201, 23.635 1489.201, 23.635 1479.201, 23.634 1469.201, 23.634 1459.201, 23.633 1449.201, 23.632 1439.201, 23.632 1429.201, 23.631 1419.201, 23.631 1409.201, 23.630 1399.201, 23.630 1389.201, 23.629 1379.201, 23.628 1369.201, 23.628 1357.580, 23.627 " />
            <path fill="none" stroke-width="3.0" stroke-linecap="butt" stroke-opacity="1.0" stroke="rgb(0, 0, 0)" stroke-linejoin="round" d=" M 2013.366, 23.665 2003.366, 23.665 1993.366, 23.664 1983.366, 23.663 1973.366, 23.663 1963.366, 23.662 1953.366, 23.662 1943.366, 23.661 1933.366, 23.660 1923.366, 23.660 1913.366, 23.659 1903.366, 23.659 1893.366, 23.658 1883.366, 23.658 1873.366, 23.657 1863.366, 23.656 1853.366, 23.656 1843.366, 23.655 1833.366, 23.655 1823.366, 23.654 1813.366, 23.654 1803.366, 23.653 1793.366, 23.652 1783.366, 23.652 1773.366, 23.651 1763.366, 23.651 1753.366, 23.650 1743.366, 23.649 1733.366, 23.649 1723.366, 23.648 1713.366, 23.648 1703.366, 23.647 1693.366, 23.646 1683.366, 23.646 1673.366, 23.646 1663.366, 23.645 1653.366, 23.644 1643.366, 23.644 1633.366, 23.643 1623.366, 23.643 1613.366, 23.642 1603.366, 23.641 1593.366, 23.641 1583.366, 23.640 1573.366, 23.640 1563.366, 23.639 1553.366, 23.638 1543.366, 23.638 1533.366, 23.637 1523.366, 23.637 1513.366, 23.636 1503.366, 23.635 1493.366, 23.635 1483.366, 23.635 1473.366, 23.634 1463.366, 23.633 1453.366, 23.633 1443.366, 23.632 1433.366, 23.632 1423.366, 23.631 1413.366, 23.630 1403.366, 23.630 1393.366, 23.629 1383.366, 23.629 1373.366, 23.628 1357.580, 23.627 " />
            <path fill="none" stroke-width="3.0" stroke-linecap="butt" stroke-opacity="1.0" stroke="rgb(0, 0, 0)" stroke-linejoin="round" d=" M 2013.366, 23.665 2003.366, 23.665 1999.201, 23.664 " />
            <path fill="none" stroke-width="3.0" stroke-linecap="butt" stroke-opacity="1.0" stroke="rgb(0, 0, 0)" stroke-linejoin="round" d=" M 2209.168, 2739.681 2208.839, 2737.051 " />
            <path fill="none" stroke-width="3.0" stroke-linecap="butt" stroke-opacity="1.0" stroke="rgb(0, 0, 0)" stroke-linejoin="round" d=" M 2209.629, 2742.290 2209.168, 2739.681 " />
            <path fill="none" stroke-width="3.0" stroke-linecap="butt" stroke-opacity="1.0" stroke="rgb(0, 0, 0)" stroke-linejoin="round" d=" M 2215.047, 2757.178 2213.838, 2754.820 " />
            <path fill="none" stroke-width="3.0" stroke-linecap="butt" stroke-opacity="1.0" stroke="rgb(0, 0, 0)" stroke-linejoin="round" d=" M 2216.372, 2759.473 2215.047, 2757.178 " />
            <path fill="none" stroke-width="3.0" stroke-linecap="butt" stroke-opacity="1.0" stroke="rgb(0, 0, 0)" stroke-linejoin="round" d=" M 2217.810, 2761.699 2216.372, 2759.473 " />
            <path fill="none" stroke-width="3.0" stroke-linecap="butt" stroke-opacity="1.0" stroke="rgb(0, 0, 0)" stroke-linejoin="round" d=" M 2219.357, 2763.851 2217.810, 2761.699 " />
            <path fill="none" stroke-width="3.0" stroke-linecap="butt" stroke-opacity="1.0" stroke="rgb(0, 0, 0)" stroke-linejoin="round" d=" M 2309.610, 2754.820 2308.401, 2757.178 " />
            <path fill="none" stroke-width="3.0" stroke-linecap="butt" stroke-opacity="1.0" stroke="rgb(0, 0, 0)" stroke-linejoin="round" d=" M 3180.545, 3741.383 3176.846, 3732.092 3173.147, 3722.802 3169.448, 3713.511 3165.749, 3704.220 3162.051, 3694.929 3158.352, 3685.639 3154.653, 3676.348 3150.954, 3667.057 3147.255, 3657.766 3143.556, 3648.476 3139.857, 3639.185 3136.158, 3629.894 3132.459, 3620.603 3128.760, 3611.313 3125.061, 3602.022 3121.363, 3592.731 3117.664, 3583.440 3113.965, 3574.150 3110.266, 3564.859 3106.567, 3555.568 3102.868, 3546.277 3099.169, 3536.987 3095.470, 3527.696 3091.771, 3518.405 3088.072, 3509.114 3084.374, 3499.824 3080.675, 3490.533 3076.976, 3481.242 3073.277, 3471.951 3069.578, 3462.661 3065.879, 3453.370 3062.180, 3444.079 3058.481, 3434.788 3054.782, 3425.497 3051.083, 3416.207 3047.384, 3406.916 3043.686, 3397.625 3039.987, 3388.335 3036.288, 3379.044 3032.589, 3369.753 3028.890, 3360.462 3025.191, 3351.171 3021.492, 3341.881 3017.793, 3332.590 3014.094, 3323.299 3010.395, 3314.008 3006.696, 3304.718 3002.998, 3295.427 2999.299, 3286.136 2995.600, 3276.845 2991.901, 3267.555 2988.202, 3258.264 2984.503, 3248.973 2980.804, 3239.682 2977.105, 3230.392 2973.406, 3221.101 2969.707, 3211.810 2966.008, 3202.519 2962.310, 3193.229 2958.611, 3183.938 2954.912, 3174.647 2951.213, 3165.356 2947.514, 3156.066 2943.815, 3146.775 2940.116, 3137.484 2936.417, 3128.193 2932.718, 3118.903 2929.019, 3109.612 2925.321, 3100.321 2921.622, 3091.030 2917.923, 3081.740 2914.224, 3072.449 2910.525, 3063.158 2906.826, 3053.867 2903.127, 3044.577 2899.428, 3035.286 2895.729, 3025.995 2892.030, 3016.704 2888.331, 3007.414 2884.633, 2998.123 2880.934, 2988.832 2877.235, 2979.541 2873.536, 2970.251 2869.837, 2960.960 2866.138, 2951.669 2862.439, 2942.378 2858.740, 2933.088 2855.041, 2923.797 2851.342, 2914.506 2847.643, 2905.215 2843.945, 2895.925 2840.246, 2886.634 2836.547, 2877.343 2832.848, 2868.052 2829.149, 2858.762 2825.450, 2849.471 2821.751, 2840.180 2818.052, 2830.889 2814.353, 2821.599 2810.654, 2812.308 2806.955, 2803.017 2803.257, 2793.726 2799.558, 2784.436 2795.859, 2775.145 2792.160, 2765.854 2788.461, 2756.563 2784.762, 2747.273 2779.098, 2733.045 " />
        </g>
    </g>
<g id="slice-labels"><text x="549.6533333333333" y="488.3465" text-anchor="middle" dominant-baseline="middle" font-family="Arial, sans-serif" font-size="59.05498296318493" font-weight="bold" fill="black" stroke="none" stroke-width="7.086597955582192" paint-order="stroke fill">Slice47 (Back)</text><text x="1602.01" y="488.3465" text-anchor="middle" dominant-baseline="middle" font-family="Arial, sans-serif" font-size="59.05498296318493" font-weight="bold" fill="black" stroke="none" stroke-width="7.086597955582192" paint-order="stroke fill">Slice47 (Back)</text><text x="2654.366666666667" y="488.3465" text-anchor="middle" dominant-baseline="middle" font-family="Arial, sans-serif" font-size="59.05498296318493" font-weight="bold" fill="black" stroke="none" stroke-width="7.086597955582192" paint-order="stroke fill">Slice47 (Back)</text><text x="549.6533333333333" y="1417.7855" text-anchor="middle" dominant-baseline="middle" font-family="Arial, sans-serif" font-size="59.05498296318493" font-weight="bold" fill="black" stroke="none" stroke-width="7.086597955582192" paint-order="stroke fill">Slice47 (Back)</text><text x="1602.01" y="1417.7855" text-anchor="middle" dominant-baseline="middle" font-family="Arial, sans-serif" font-size="59.05498296318493" font-weight="bold" fill="black" stroke="none" stroke-width="7.086597955582192" paint-order="stroke fill">Slice47 (Back)</text><text x="2654.366666666667" y="1417.7855" text-anchor="middle" dominant-baseline="middle" font-family="Arial, sans-serif" font-size="59.05498296318493" font-weight="bold" fill="black" stroke="none" stroke-width="7.086597955582192" paint-order="stroke fill">Slice47 (Back)</text><text x="549.6533333333333" y="2347.2245" text-anchor="middle" dominant-baseline="middle" font-family="Arial, sans-serif" font-size="59.05498296318493" font-weight="bold" fill="black" stroke="none" stroke-width="7.086597955582192" paint-order="stroke fill">Slice47 (Back)</text><text x="1602.01" y="2347.2245" text-anchor="middle" dominant-baseline="middle" font-family="Arial, sans-serif" font-size="59.05498296318493" font-weight="bold" fill="black" stroke="none" stroke-width="7.086597955582192" paint-order="stroke fill">Slice47 (Back)</text><text x="2654.366666666667" y="2347.2245" text-anchor="middle" dominant-baseline="middle" font-family="Arial, sans-serif" font-size="59.05498296318493" font-weight="bold" fill="black" stroke="none" stroke-width="7.086597955582192" paint-order="stroke fill">Slice47 (Back)</text><text x="549.6533333333333" y="3276.6634999999997" text-anchor="middle" dominant-baseline="middle" font-family="Arial, sans-serif" font-size="59.05498296318493" font-weight="bold" fill="black" stroke="none" stroke-width="7.086597955582192" paint-order="stroke fill">Slice47 (Back)</text><text x="1602.01" y="3276.6634999999997" text-anchor="middle" dominant-baseline="middle" font-family="Arial, sans-serif" font-size="59.05498296318493" font-weight="bold" fill="black" stroke="none" stroke-width="7.086597955582192" paint-order="stroke fill">Slice47 (Back)</text><text x="2654.366666666667" y="3276.6634999999997" text-anchor="middle" dominant-baseline="middle" font-family="Arial, sans-serif" font-size="59.05498296318493" font-weight="bold" fill="black" stroke="none" stroke-width="7.086597955582192" paint-order="stroke fill">Slice47 (Back)</text></g></svg>