<?xml version='1.0' encoding='utf-8'?>
<svg xmlns="http://www.w3.org/2000/svg" xmlns:inkscape="http://www.inkscape.org/namespaces/inkscape" version="1.1" width="724.86301445961mm" height="154.75170993804932mm" viewBox="-0.701943516857618 0.0050606778285882115 8562.423887033714 1827.9998786443427" preserveAspectRatio="none">
    <g id="ViewLayer_LineSet" inkscape:groupmode="lineset" inkscape:label="ViewLayer_LineSet">
        <g inkscape:groupmode="layer" id="strokes" inkscape:label="strokes">
            <path fill="none" stroke-width="3.0" stroke-linecap="butt" stroke-opacity="1.0" stroke="rgb(0, 0, 0)" stroke-linejoin="round" d=" M 93.460, 985.239 93.664, 995.237 93.868, 1005.234 94.072, 1015.232 94.276, 1025.230 94.480, 1035.228 94.684, 1045.226 94.888, 1055.224 95.092, 1065.222 95.296, 1075.220 95.500, 1085.218 95.704, 1095.216 95.908, 1105.214 96.112, 1115.212 96.316, 1125.209 96.520, 1135.207 96.724, 1145.205 96.873, 1152.490 95.111, 1162.333 93.349, 1172.177 91.587, 1182.020 89.825, 1191.864 88.063, 1201.707 86.301, 1211.551 84.540, 1221.395 82.778, 1231.238 81.016, 1241.082 79.254, 1250.925 77.492, 1260.769 76.185, 1268.072 " />
            <path fill="none" stroke-width="3.0" stroke-linecap="butt" stroke-opacity="1.0" stroke="rgb(0, 0, 0)" stroke-linejoin="round" d=" M 22.923, 1804.380 32.923, 1804.380 42.923, 1804.380 52.923, 1804.380 62.923, 1804.380 70.575, 1804.380 71.994, 1804.380 72.400, 1804.380 " />
            <path fill="none" stroke-width="3.0" stroke-linecap="butt" stroke-opacity="1.0" stroke="rgb(0, 0, 0)" stroke-linejoin="round" d=" M 72.400, 1804.380 72.633, 1804.348 72.890, 1804.312 73.278, 1804.324 83.278, 1804.326 93.278, 1804.328 103.278, 1804.329 113.278, 1804.331 123.278, 1804.333 133.278, 1804.335 143.278, 1804.337 153.278, 1804.339 163.278, 1804.341 173.278, 1804.343 183.278, 1804.345 193.278, 1804.346 203.278, 1804.348 213.278, 1804.350 214.839, 1804.351 224.839, 1804.352 234.839, 1804.354 244.839, 1804.356 254.839, 1804.358 264.839, 1804.360 274.839, 1804.362 284.839, 1804.364 294.839, 1804.366 304.839, 1804.368 314.839, 1804.370 324.839, 1804.371 334.839, 1804.373 344.839, 1804.375 354.839, 1804.377 364.839, 1804.379 370.322, 1804.380 372.387, 1804.380 382.387, 1804.380 392.387, 1804.380 402.387, 1804.380 412.387, 1804.380 422.387, 1804.380 432.387, 1804.380 442.387, 1804.380 452.387, 1804.380 462.387, 1804.380 472.387, 1804.380 482.387, 1804.380 492.387, 1804.380 502.387, 1804.380 512.387, 1804.380 522.387, 1804.380 532.387, 1804.380 542.387, 1804.380 552.387, 1804.380 562.387, 1804.380 572.387, 1804.380 582.387, 1804.380 592.387, 1804.380 602.387, 1804.380 612.387, 1804.380 622.387, 1804.380 632.387, 1804.380 642.387, 1804.380 652.387, 1804.380 662.387, 1804.380 672.387, 1804.380 682.387, 1804.380 692.387, 1804.380 702.387, 1804.380 712.387, 1804.380 722.387, 1804.380 732.387, 1804.380 742.387, 1804.380 752.387, 1804.380 762.387, 1804.380 772.387, 1804.380 782.387, 1804.380 792.387, 1804.380 802.387, 1804.380 812.387, 1804.380 822.387, 1804.380 832.387, 1804.380 842.387, 1804.380 852.387, 1804.380 862.387, 1804.380 872.387, 1804.380 882.387, 1804.380 892.387, 1804.380 902.387, 1804.380 912.387, 1804.380 922.387, 1804.380 932.387, 1804.380 942.387, 1804.380 952.387, 1804.380 962.387, 1804.380 972.387, 1804.380 982.387, 1804.380 992.387, 1804.380 1002.387, 1804.380 1012.387, 1804.380 1022.387, 1804.380 1032.387, 1804.380 1042.387, 1804.380 1052.387, 1804.380 1062.387, 1804.380 1072.387, 1804.380 1082.387, 1804.380 1092.387, 1804.380 1102.387, 1804.380 1112.387, 1804.380 1122.387, 1804.380 1132.387, 1804.380 1142.387, 1804.380 1152.387, 1804.380 1162.387, 1804.380 1172.387, 1804.380 1182.387, 1804.380 1192.387, 1804.380 1202.387, 1804.380 1212.387, 1804.380 1222.387, 1804.380 1232.387, 1804.380 1242.387, 1804.380 1252.387, 1804.380 1262.387, 1804.380 1272.387, 1804.380 1282.387, 1804.380 1292.387, 1804.380 1302.387, 1804.380 1312.387, 1804.380 1322.387, 1804.380 1332.387, 1804.380 1342.387, 1804.380 1352.387, 1804.380 1362.387, 1804.380 1372.387, 1804.380 1382.387, 1804.380 1392.387, 1804.380 1402.387, 1804.380 1412.387, 1804.380 1422.387, 1804.380 1432.387, 1804.380 1442.387, 1804.380 1452.387, 1804.380 1462.387, 1804.380 1472.387, 1804.380 1482.387, 1804.380 1492.387, 1804.380 1502.387, 1804.380 1512.387, 1804.380 1522.387, 1804.380 1532.387, 1804.380 1542.387, 1804.380 1552.387, 1804.380 1562.387, 1804.380 1572.387, 1804.380 1582.387, 1804.380 1592.387, 1804.380 1602.387, 1804.380 1624.193, 1804.380 1625.130, 1804.380 1626.119, 1804.380 1627.154, 1804.380 1628.234, 1804.380 1629.355, 1804.380 1630.215, 1804.380 1630.511, 1804.380 1631.701, 1804.380 1641.701, 1804.380 1651.701, 1804.380 1661.701, 1804.380 1671.701, 1804.380 1681.701, 1804.380 1691.701, 1804.380 1701.701, 1804.380 1711.701, 1804.380 1721.701, 1804.380 1731.701, 1804.380 1741.701, 1804.380 1751.701, 1804.380 1761.701, 1804.380 1771.701, 1804.380 1781.701, 1804.380 1790.572, 1804.380 " />
            <path fill="none" stroke-width="3.0" stroke-linecap="butt" stroke-opacity="1.0" stroke="rgb(0, 0, 0)" stroke-linejoin="round" d=" M 1790.572, 1804.380 1792.057, 1794.491 1793.543, 1784.602 1795.029, 1774.713 1796.514, 1764.824 1798.000, 1754.935 1799.486, 1745.046 1800.971, 1735.157 1802.457, 1725.268 1803.943, 1715.379 1805.428, 1705.490 1806.914, 1695.601 1808.400, 1685.712 1809.885, 1675.823 1811.371, 1665.934 1812.857, 1656.045 1813.965, 1648.670 1814.780, 1638.703 1815.596, 1628.736 1816.412, 1618.770 1817.228, 1608.803 1818.044, 1598.836 1818.859, 1588.870 1819.675, 1578.903 1820.491, 1568.936 1821.307, 1558.970 1822.123, 1549.003 1822.939, 1539.036 1823.755, 1529.070 1824.570, 1519.103 1825.386, 1509.136 1826.202, 1499.170 1827.018, 1489.203 1827.834, 1479.236 1828.649, 1469.270 1829.465, 1459.303 1830.281, 1449.336 1831.097, 1439.370 1831.913, 1429.403 1832.729, 1419.436 1833.544, 1409.470 1834.360, 1399.503 1835.176, 1389.536 1835.992, 1379.570 1836.808, 1369.603 1837.624, 1359.636 1838.439, 1349.670 1839.255, 1339.703 1840.071, 1329.736 1840.887, 1319.770 1841.703, 1309.803 1842.519, 1299.836 1842.913, 1295.011 " />
            <path fill="none" stroke-width="3.0" stroke-linecap="butt" stroke-opacity="1.0" stroke="rgb(0, 0, 0)" stroke-linejoin="round" d=" M 884.835, 466.908 882.316, 464.325 879.929, 461.621 877.680, 458.799 875.574, 455.871 873.617, 452.841 871.813, 449.716 870.167, 446.506 868.683, 443.217 867.365, 439.860 866.217, 436.440 865.240, 432.967 864.436, 429.450 863.810, 425.897 863.362, 422.318 863.092, 418.720 863.002, 415.113 863.092, 411.507 863.362, 407.910 863.810, 404.330 864.436, 400.778 865.240, 397.261 866.217, 393.788 867.365, 390.368 868.683, 387.010 870.167, 383.721 871.813, 380.511 873.617, 377.387 875.574, 374.356 877.680, 371.428 879.929, 368.607 882.316, 365.903 884.835, 363.320 887.479, 360.866 890.243, 358.547 893.119, 356.369 896.099, 354.337 899.178, 352.455 902.346, 350.730 905.596, 349.165 908.921, 347.763 912.310, 346.530 915.758, 345.466 919.254, 344.577 922.789, 343.861 926.357, 343.323 929.946, 342.964 933.549, 342.785 937.157, 342.785 940.760, 342.964 944.350, 343.323 947.917, 343.861 951.453, 344.577 954.949, 345.466 958.396, 346.530 961.786, 347.763 965.111, 349.165 968.361, 350.730 971.529, 352.455 974.608, 354.337 977.588, 356.369 980.464, 358.547 983.228, 360.866 985.872, 363.320 988.391, 365.903 990.778, 368.607 993.027, 371.428 995.133, 374.356 997.090, 377.387 998.894, 380.511 1000.539, 383.721 1002.024, 387.010 1003.342, 390.368 1004.490, 393.788 1005.467, 397.261 1006.270, 400.778 1006.897, 404.330 1007.345, 407.910 1007.615, 411.507 1007.705, 415.113 1007.615, 418.720 1007.345, 422.318 1006.897, 425.897 1006.270, 429.450 1005.467, 432.967 1004.490, 436.440 1003.342, 439.860 1002.024, 443.217 1000.539, 446.506 998.894, 449.716 997.090, 452.841 995.133, 455.871 993.027, 458.799 990.778, 461.621 988.391, 464.325 985.872, 466.908 983.228, 469.362 980.464, 471.681 977.588, 473.858 974.608, 475.891 971.529, 477.772 968.361, 479.497 965.111, 481.062 961.786, 482.464 958.396, 483.698 954.949, 484.761 951.453, 485.651 947.917, 486.366 944.350, 486.904 940.760, 487.263 937.157, 487.443 933.549, 487.443 929.946, 487.263 926.357, 486.904 922.789, 486.366 919.254, 485.651 915.758, 484.761 912.310, 483.698 908.921, 482.464 905.596, 481.062 902.346, 479.497 899.178, 477.772 896.099, 475.891 893.119, 473.858 890.243, 471.681 887.479, 469.362 884.835, 466.908 " />
            <path fill="none" stroke-width="3.0" stroke-linecap="butt" stroke-opacity="1.0" stroke="rgb(0, 0, 0)" stroke-linejoin="round" d=" M 224.263, 23.630 222.439, 33.462 220.614, 43.294 218.789, 53.126 216.965, 62.958 215.140, 72.791 213.316, 82.623 211.491, 92.455 209.667, 102.287 207.842, 112.119 206.018, 121.951 204.193, 131.783 202.369, 141.616 200.544, 151.448 198.720, 161.280 196.895, 171.112 195.071, 180.944 193.246, 190.776 191.422, 200.608 189.597, 210.441 187.772, 220.273 185.948, 230.105 184.123, 239.937 182.299, 249.769 180.474, 259.601 178.650, 269.433 176.825, 279.266 175.001, 289.098 173.176, 298.930 171.352, 308.762 169.527, 318.594 167.703, 328.426 165.878, 338.258 164.054, 348.091 162.229, 357.923 160.404, 367.755 158.580, 377.587 156.755, 387.419 154.931, 397.251 153.106, 407.083 150.986, 418.509 149.976, 428.458 148.966, 438.407 147.957, 448.356 146.947, 458.305 145.937, 468.254 144.927, 478.203 143.917, 488.151 142.907, 498.100 141.897, 508.049 140.887, 517.998 139.878, 527.947 138.868, 537.896 137.858, 547.845 136.848, 557.793 135.838, 567.742 134.828, 577.691 133.818, 587.640 132.809, 597.589 131.799, 607.538 130.789, 617.487 129.779, 627.436 128.769, 637.385 127.759, 647.333 126.749, 657.282 125.740, 667.231 124.730, 677.180 123.720, 687.129 122.710, 697.078 121.700, 707.027 120.690, 716.976 119.680, 726.924 118.671, 736.873 117.661, 746.822 116.651, 756.771 115.641, 766.720 114.631, 776.669 113.621, 786.618 112.611, 796.567 111.601, 806.515 110.592, 816.464 109.582, 826.413 108.572, 836.362 107.562, 846.311 106.552, 856.260 105.542, 866.209 104.532, 876.158 103.523, 886.107 102.513, 896.055 101.503, 906.004 100.493, 915.953 99.483, 925.902 98.473, 935.851 97.463, 945.800 96.454, 955.749 95.444, 965.698 94.434, 975.646 93.460, 985.239 " />
            <path fill="none" stroke-width="3.0" stroke-linecap="butt" stroke-opacity="1.0" stroke="rgb(0, 0, 0)" stroke-linejoin="round" d=" M 1936.659, 340.944 1938.671, 331.149 1940.682, 321.353 1942.693, 311.557 1944.705, 301.762 1946.716, 291.966 1948.727, 282.171 1950.739, 272.375 1952.750, 262.579 1954.761, 252.784 1956.773, 242.988 1958.784, 233.192 1960.795, 223.397 1962.807, 213.601 1964.818, 203.806 1966.829, 194.010 1968.841, 184.214 1970.852, 174.419 1972.863, 164.623 1974.875, 154.827 1976.886, 145.032 1978.897, 135.236 1980.909, 125.440 1982.920, 115.645 1984.931, 105.849 1986.943, 96.053 1988.954, 86.258 1990.965, 76.462 1992.977, 66.667 1994.988, 56.871 1996.999, 47.075 1999.011, 37.280 2001.022, 27.484 2001.813, 23.630 1991.813, 23.630 1981.813, 23.630 1971.813, 23.630 1961.813, 23.630 1951.813, 23.630 1941.813, 23.630 1931.813, 23.630 1921.813, 23.630 1911.813, 23.630 1901.813, 23.630 1891.813, 23.630 1881.813, 23.630 1871.813, 23.630 1861.813, 23.630 1851.813, 23.630 1843.071, 23.630 1841.512, 23.630 1839.958, 23.630 1838.413, 23.630 1836.884, 23.630 1835.376, 23.630 1833.894, 23.630 1823.894, 23.630 1813.894, 23.630 1803.894, 23.630 1793.894, 23.630 1783.894, 23.630 1773.894, 23.630 1763.894, 23.630 1753.894, 23.630 1743.894, 23.630 1733.894, 23.630 1723.894, 23.630 1713.894, 23.630 1703.894, 23.630 1693.894, 23.630 1683.894, 23.630 1673.894, 23.630 1663.894, 23.630 1653.894, 23.630 1643.894, 23.630 1633.894, 23.630 1623.894, 23.630 1613.894, 23.630 1603.894, 23.630 1593.894, 23.630 1589.707, 23.630 1586.886, 23.630 1584.123, 23.630 1581.427, 23.630 1578.808, 23.630 1576.274, 23.630 1573.836, 23.630 1571.501, 23.630 1561.501, 23.630 1551.501, 23.631 1541.501, 23.631 1531.501, 23.631 1521.501, 23.632 1511.501, 23.632 1501.501, 23.633 1491.501, 23.633 1481.501, 23.633 1471.501, 23.634 1461.501, 23.634 1451.501, 23.635 1441.501, 23.635 1431.501, 23.635 1421.501, 23.636 1411.501, 23.636 1401.501, 23.637 1391.501, 23.637 1381.501, 23.637 1371.501, 23.638 1361.501, 23.638 1351.501, 23.639 1341.501, 23.639 1331.501, 23.639 1321.501, 23.640 1311.501, 23.640 1301.501, 23.641 1291.501, 23.641 1281.501, 23.641 1271.501, 23.642 1261.501, 23.642 1251.501, 23.643 1241.501, 23.643 1231.501, 23.643 1221.501, 23.644 1211.501, 23.644 1201.501, 23.645 1191.501, 23.645 1181.501, 23.645 1171.501, 23.646 1161.501, 23.646 1151.501, 23.647 1141.501, 23.647 1131.501, 23.647 1121.501, 23.648 1111.501, 23.648 1101.501, 23.649 1091.501, 23.649 1081.501, 23.649 1071.501, 23.650 1061.501, 23.650 1051.501, 23.651 1041.501, 23.651 1031.501, 23.651 1021.501, 23.652 1011.501, 23.652 1001.501, 23.653 991.501, 23.653 981.501, 23.653 971.501, 23.654 961.501, 23.654 951.501, 23.655 941.501, 23.655 931.501, 23.655 921.501, 23.656 911.501, 23.656 901.501, 23.656 891.501, 23.657 881.501, 23.657 871.501, 23.658 861.501, 23.658 851.501, 23.658 841.501, 23.659 831.501, 23.659 821.501, 23.660 811.501, 23.660 801.501, 23.661 791.501, 23.661 781.501, 23.661 771.501, 23.662 761.501, 23.662 751.501, 23.662 741.501, 23.663 723.736, 23.664 721.885, 23.726 " />
            <path fill="none" stroke-width="3.0" stroke-linecap="butt" stroke-opacity="1.0" stroke="rgb(0, 0, 0)" stroke-linejoin="round" d=" M 721.885, 23.726 719.971, 23.726 717.953, 23.726 715.840, 23.727 713.636, 23.727 " />
            <path fill="none" stroke-width="3.0" stroke-linecap="butt" stroke-opacity="1.0" stroke="rgb(0, 0, 0)" stroke-linejoin="round" d=" M 713.636, 23.727 711.283, 23.630 708.920, 23.630 706.490, 23.630 703.998, 23.630 701.453, 23.630 698.862, 23.630 696.235, 23.630 693.579, 23.630 690.902, 23.630 688.213, 23.630 685.519, 23.630 682.829, 23.630 680.151, 23.630 677.494, 23.630 674.863, 23.630 672.268, 23.630 669.715, 23.630 659.715, 23.630 649.715, 23.630 639.715, 23.630 629.715, 23.630 619.715, 23.630 609.715, 23.630 599.715, 23.630 589.715, 23.630 579.715, 23.630 569.715, 23.630 559.715, 23.630 549.715, 23.630 539.715, 23.630 529.715, 23.630 519.715, 23.630 509.715, 23.630 499.715, 23.630 489.715, 23.630 479.715, 23.630 469.715, 23.630 459.715, 23.630 449.715, 23.630 439.715, 23.630 429.715, 23.630 419.715, 23.630 409.715, 23.630 399.715, 23.630 389.715, 23.630 379.715, 23.630 369.715, 23.630 359.715, 23.630 349.715, 23.630 339.715, 23.630 329.715, 23.630 319.715, 23.630 309.715, 23.630 299.715, 23.630 289.715, 23.630 279.715, 23.630 269.715, 23.630 259.715, 23.630 249.715, 23.630 239.715, 23.630 229.715, 23.630 224.263, 23.630 " />
            <path fill="none" stroke-width="3.0" stroke-linecap="butt" stroke-opacity="1.0" stroke="rgb(0, 0, 0)" stroke-linejoin="round" d=" M 1842.913, 1295.011 1845.222, 1285.281 1847.531, 1275.552 1849.840, 1265.822 1852.149, 1256.092 1854.458, 1246.362 1856.767, 1236.632 1859.076, 1226.903 1861.385, 1217.173 1863.694, 1207.443 1866.003, 1197.713 1868.312, 1187.984 1870.621, 1178.254 1872.930, 1168.524 1875.239, 1158.794 1877.547, 1149.064 1879.856, 1139.335 1882.165, 1129.605 1884.474, 1119.875 1886.783, 1110.145 1889.092, 1100.415 1891.401, 1090.686 1893.710, 1080.956 1896.019, 1071.226 1898.328, 1061.496 1900.637, 1051.766 1902.946, 1042.037 1905.255, 1032.307 1907.563, 1022.577 1909.872, 1012.847 1912.181, 1003.117 1914.490, 993.388 1916.799, 983.658 1919.108, 973.928 1921.417, 964.198 1923.726, 954.469 1926.035, 944.739 1928.344, 935.009 1930.653, 925.279 1932.962, 915.549 1935.271, 905.820 1936.564, 900.370 " />
            <path fill="none" stroke-width="3.0" stroke-linecap="butt" stroke-opacity="1.0" stroke="rgb(0, 0, 0)" stroke-linejoin="round" d=" M 1936.564, 900.370 1937.680, 890.432 1938.796, 880.495 1939.912, 870.557 1941.028, 860.620 1942.144, 850.682 1943.260, 840.745 1944.377, 830.807 1945.493, 820.870 1946.609, 810.932 1947.725, 800.995 1948.841, 791.057 1949.957, 781.120 1951.073, 771.182 1952.189, 761.245 1953.305, 751.307 1954.421, 741.369 1955.537, 731.432 1956.654, 721.494 1957.770, 711.557 1958.886, 701.619 1960.002, 691.682 1961.118, 681.744 1962.217, 671.958 1961.447, 661.988 1960.677, 652.018 1959.908, 642.047 1959.138, 632.077 1958.368, 622.107 1957.598, 612.136 1956.828, 602.166 1956.059, 592.196 1955.289, 582.225 1954.519, 572.255 1953.749, 562.285 1952.979, 552.314 1952.209, 542.344 1951.440, 532.374 1950.670, 522.403 1949.900, 512.433 1949.130, 502.463 1948.360, 492.492 1947.591, 482.522 1946.821, 472.552 1946.051, 462.582 1945.281, 452.611 1944.511, 442.641 1943.742, 432.671 1942.972, 422.700 1942.202, 412.730 1941.432, 402.760 1940.662, 392.789 1939.892, 382.819 1939.123, 372.849 1938.353, 362.878 1937.583, 352.908 1936.659, 340.944 " />
            <path fill="none" stroke-width="3.0" stroke-linecap="butt" stroke-opacity="1.0" stroke="rgb(0, 0, 0)" stroke-linejoin="round" d=" M 5836.798, 198.072 5831.850, 206.761 5826.902, 215.451 5821.954, 224.141 5817.005, 232.831 5812.057, 241.521 5807.109, 250.211 5802.161, 258.901 5797.212, 267.591 5792.264, 276.281 5787.316, 284.971 5782.368, 293.661 5777.419, 302.351 5772.471, 311.041 5767.523, 319.731 5762.575, 328.421 5757.626, 337.111 5752.679, 345.801 5747.730, 354.490 5742.782, 363.180 5737.834, 371.870 5732.886, 380.560 5727.938, 389.250 5722.989, 397.940 5718.041, 406.630 5713.093, 415.320 5708.145, 424.010 5703.196, 432.700 5698.248, 441.390 5693.300, 450.080 5688.352, 458.770 5683.403, 467.460 5678.455, 476.150 5673.507, 484.839 5668.559, 493.529 5663.610, 502.219 5658.662, 510.909 5653.714, 519.599 5648.766, 528.289 5643.817, 536.979 5638.869, 545.669 5633.921, 554.359 5628.973, 563.049 5624.024, 571.739 5619.076, 580.429 5614.128, 589.119 5609.180, 597.809 5604.231, 606.499 5599.284, 615.189 5594.335, 623.879 5589.387, 632.568 5584.439, 641.258 5579.491, 649.948 5575.760, 656.500 5573.379, 666.213 5570.999, 675.925 5568.618, 685.638 5566.237, 695.350 5563.856, 705.063 5561.476, 714.775 5559.095, 724.488 5556.714, 734.200 5554.333, 743.913 5551.953, 753.625 5549.572, 763.338 5547.191, 773.050 5544.811, 782.762 5542.430, 792.475 5540.049, 802.187 5537.668, 811.900 5535.288, 821.612 5532.907, 831.325 5530.526, 841.037 5528.146, 850.750 5525.765, 860.462 5523.384, 870.175 5521.003, 879.887 5518.623, 889.600 5516.242, 899.312 5513.861, 909.025 5511.480, 918.737 5509.100, 928.450 5506.719, 938.162 5504.338, 947.875 5501.958, 957.587 5499.577, 967.299 5497.196, 977.012 5494.815, 986.724 5492.435, 996.437 5490.054, 1006.149 5487.673, 1015.862 5485.292, 1025.574 5482.912, 1035.287 5480.531, 1044.999 5478.150, 1054.712 5475.770, 1064.424 5473.389, 1074.137 5471.008, 1083.849 5468.627, 1093.562 5466.247, 1103.274 5463.866, 1112.987 5461.485, 1122.699 5459.104, 1132.412 5456.724, 1142.124 5455.095, 1148.769 5451.255, 1158.002 5449.365, 1162.547 5447.910, 1172.440 5446.455, 1182.334 5445.000, 1192.227 5443.544, 1202.121 5442.089, 1212.015 5440.634, 1221.908 5439.179, 1231.802 5437.724, 1241.695 5436.270, 1251.589 5434.814, 1261.482 5433.359, 1271.376 5431.904, 1281.270 5430.449, 1291.163 5428.994, 1301.057 5427.539, 1310.950 5426.084, 1320.844 5424.629, 1330.737 5423.174, 1340.631 5421.719, 1350.525 5420.264, 1360.418 5418.809, 1370.312 5417.354, 1380.205 5415.899, 1390.099 5414.444, 1399.992 5412.989, 1409.886 5411.534, 1419.780 5410.079, 1429.673 5408.624, 1439.567 5407.168, 1449.460 5405.713, 1459.354 5404.259, 1469.248 5402.804, 1479.141 5401.349, 1489.035 5399.894, 1498.928 5398.438, 1508.822 5396.983, 1518.715 5395.528, 1528.609 5394.073, 1538.503 5392.618, 1548.396 5391.163, 1558.290 5389.708, 1568.183 5388.253, 1578.077 5386.798, 1587.970 5385.343, 1597.864 5383.888, 1607.758 5382.433, 1617.651 5380.978, 1627.545 5379.523, 1637.438 5378.068, 1647.332 5376.613, 1657.225 5375.158, 1667.119 5373.703, 1677.013 5372.248, 1686.906 5370.793, 1696.800 5369.338, 1706.693 5367.883, 1716.587 5366.428, 1726.481 5364.973, 1736.374 5363.518, 1746.268 5362.062, 1756.161 5360.607, 1766.055 5359.152, 1775.948 5357.697, 1785.842 5356.607, 1793.254 5353.096, 1802.618 5352.436, 1804.380 5362.436, 1804.380 5372.280, 1804.380 5379.802, 1804.380 5389.802, 1804.380 5392.728, 1804.380 5402.728, 1804.380 5412.728, 1804.380 5422.728, 1804.380 5432.728, 1804.380 5442.728, 1804.380 5452.728, 1804.380 5462.728, 1804.380 5472.728, 1804.380 5482.728, 1804.380 5492.728, 1804.380 5502.728, 1804.380 5512.728, 1804.380 5522.728, 1804.380 5532.728, 1804.380 5542.728, 1804.380 5552.728, 1804.380 5562.728, 1804.380 5572.728, 1804.380 5582.728, 1804.380 5592.728, 1804.380 5602.728, 1804.380 5612.728, 1804.380 5622.728, 1804.380 5632.728, 1804.380 5642.728, 1804.380 5652.728, 1804.380 5662.728, 1804.380 5672.728, 1804.380 5682.728, 1804.380 5692.728, 1804.380 5702.728, 1804.380 5712.728, 1804.380 5722.728, 1804.380 5732.728, 1804.380 5742.728, 1804.380 5752.728, 1804.380 5762.728, 1804.380 5772.728, 1804.380 5782.728, 1804.380 5792.728, 1804.380 5802.728, 1804.380 5812.728, 1804.380 5822.728, 1804.380 5832.728, 1804.380 5842.728, 1804.380 5852.728, 1804.380 5862.728, 1804.380 5872.728, 1804.380 5882.728, 1804.380 5892.728, 1804.380 5902.728, 1804.380 5912.728, 1804.380 5922.728, 1804.380 5932.728, 1804.380 5942.728, 1804.380 5952.728, 1804.380 5962.728, 1804.380 5972.728, 1804.380 5982.728, 1804.380 5992.728, 1804.380 6002.728, 1804.380 6012.728, 1804.380 6022.728, 1804.380 6032.728, 1804.380 6042.728, 1804.380 6052.728, 1804.380 6062.728, 1804.380 6072.728, 1804.380 6082.728, 1804.380 6092.728, 1804.380 6102.728, 1804.380 6112.728, 1804.380 6122.728, 1804.380 6132.728, 1804.380 6142.728, 1804.380 6152.728, 1804.380 6162.728, 1804.380 6172.728, 1804.380 6182.728, 1804.380 6192.728, 1804.380 6202.728, 1804.380 6212.728, 1804.380 6222.728, 1804.380 6232.728, 1804.380 6242.728, 1804.380 6252.728, 1804.380 6262.728, 1804.380 6272.728, 1804.380 6282.728, 1804.380 6292.728, 1804.380 6302.728, 1804.380 6312.728, 1804.380 6322.728, 1804.380 6332.728, 1804.380 6342.728, 1804.380 6352.728, 1804.380 6362.728, 1804.380 6372.728, 1804.380 6382.728, 1804.380 6392.728, 1804.380 6402.728, 1804.380 6412.728, 1804.380 6422.728, 1804.380 6432.728, 1804.380 6442.728, 1804.380 6452.728, 1804.380 6462.728, 1804.380 6472.728, 1804.380 6482.728, 1804.380 6492.728, 1804.380 6502.728, 1804.380 6512.728, 1804.380 6522.728, 1804.380 6532.728, 1804.380 6542.728, 1804.380 6552.728, 1804.380 6562.728, 1804.380 6572.728, 1804.380 6582.728, 1804.380 6592.728, 1804.380 6602.728, 1804.380 6612.728, 1804.380 6622.728, 1804.380 6632.728, 1804.380 6642.728, 1804.380 6652.728, 1804.380 6662.728, 1804.380 6672.728, 1804.380 6682.728, 1804.380 6692.728, 1804.380 6702.728, 1804.380 6712.728, 1804.380 6722.728, 1804.380 6732.728, 1804.380 6742.728, 1804.380 6752.728, 1804.380 6762.728, 1804.380 6772.728, 1804.380 6782.728, 1804.380 6792.728, 1804.380 6802.728, 1804.380 6812.728, 1804.380 6822.728, 1804.380 6832.728, 1804.380 6842.728, 1804.380 6852.728, 1804.380 6862.728, 1804.380 6872.728, 1804.380 6882.728, 1804.380 6892.728, 1804.380 6902.728, 1804.380 6912.728, 1804.380 6922.728, 1804.380 6932.728, 1804.380 6942.728, 1804.380 6952.728, 1804.380 6962.728, 1804.380 6972.728, 1804.380 6982.728, 1804.380 6992.728, 1804.380 7002.728, 1804.380 7012.728, 1804.380 7022.728, 1804.380 7032.728, 1804.380 7042.728, 1804.380 7052.728, 1804.380 7062.728, 1804.380 7072.728, 1804.380 7082.728, 1804.380 7092.728, 1804.380 7102.728, 1804.380 7112.728, 1804.380 7122.728, 1804.380 7132.728, 1804.380 7142.728, 1804.380 7162.497, 1804.380 7163.417, 1804.380 7164.383, 1804.380 7165.395, 1804.380 7166.449, 1804.380 7167.541, 1804.380 7168.669, 1804.380 7169.830, 1804.380 7179.830, 1804.380 7189.830, 1804.380 7199.830, 1804.380 7209.830, 1804.380 7219.830, 1804.380 7229.830, 1804.380 7239.830, 1804.380 7249.830, 1804.380 7259.830, 1804.380 7269.830, 1804.380 7279.830, 1804.380 7289.830, 1804.380 7299.830, 1804.380 7309.830, 1804.380 7319.830, 1804.380 7329.830, 1804.380 7339.830, 1804.380 7349.830, 1804.380 7359.830, 1804.380 7369.830, 1804.380 7379.830, 1804.380 7389.830, 1804.380 7399.830, 1804.380 7409.830, 1804.380 7419.830, 1804.380 7429.830, 1804.380 7439.830, 1804.380 7449.830, 1804.380 7459.830, 1804.380 7471.287, 1804.380 7471.802, 1804.380 7472.339, 1804.380 7472.897, 1804.380 7473.476, 1804.380 7474.071, 1804.380 7474.683, 1804.380 7475.308, 1804.380 7475.946, 1804.380 7476.594, 1804.380 7477.251, 1804.380 7477.915, 1804.380 7478.583, 1804.380 7479.254, 1804.380 7479.925, 1804.380 7480.596, 1804.380 7481.264, 1804.380 7481.927, 1804.380 7482.583, 1804.380 7483.230, 1804.380 7483.868, 1804.380 7484.494, 1804.380 7485.106, 1804.380 7495.106, 1804.380 7505.106, 1804.380 7515.106, 1804.380 7525.106, 1804.380 7535.106, 1804.380 7545.106, 1804.380 7555.106, 1804.380 7565.106, 1804.380 7575.106, 1804.380 7585.106, 1804.380 7595.106, 1804.380 7605.106, 1804.380 7615.106, 1804.380 7625.106, 1804.380 7635.106, 1804.380 7645.106, 1804.380 7655.106, 1804.380 7665.106, 1804.380 7675.106, 1804.380 7685.106, 1804.380 7695.106, 1804.380 7705.106, 1804.380 7715.106, 1804.380 7725.106, 1804.380 7735.106, 1804.380 7745.106, 1804.380 7755.106, 1804.380 7765.106, 1804.380 7775.106, 1804.380 7785.106, 1804.380 7795.106, 1804.380 7800.104, 1804.380 " />
            <path fill="none" stroke-width="3.0" stroke-linecap="butt" stroke-opacity="1.0" stroke="rgb(0, 0, 0)" stroke-linejoin="round" d=" M 6836.561, 1053.421 6834.618, 1051.618 6832.767, 1049.720 6831.013, 1047.733 6829.361, 1045.661 6827.813, 1043.509 6826.375, 1041.283 6825.050, 1038.987 6823.841, 1036.629 6822.751, 1034.213 6821.783, 1031.745 6820.939, 1029.233 6820.221, 1026.682 6819.631, 1024.098 6819.171, 1021.487 6818.841, 1018.858 6818.643, 1016.215 " />
            <path fill="none" stroke-width="3.0" stroke-linecap="butt" stroke-opacity="1.0" stroke="rgb(0, 0, 0)" stroke-linejoin="round" d=" M 6849.871, 1062.017 6847.483, 1060.867 6845.155, 1059.600 6842.894, 1058.218 6840.704, 1056.724 6838.591, 1055.125 " />
            <path fill="none" stroke-width="3.0" stroke-linecap="butt" stroke-opacity="1.0" stroke="rgb(0, 0, 0)" stroke-linejoin="round" d=" M 6862.502, 1065.914 6859.905, 1065.388 6857.336, 1064.735 6854.804, 1063.953 " />
            <path fill="none" stroke-width="3.0" stroke-linecap="butt" stroke-opacity="1.0" stroke="rgb(0, 0, 0)" stroke-linejoin="round" d=" M 6875.706, 1066.573 6873.059, 1066.705 6870.408, 1066.705 6867.761, 1066.573 6865.124, 1066.308 6862.502, 1065.914 " />
            <path fill="none" stroke-width="3.0" stroke-linecap="butt" stroke-opacity="1.0" stroke="rgb(0, 0, 0)" stroke-linejoin="round" d=" M 6818.577, 1013.565 6818.643, 1010.916 6818.841, 1008.273 6819.171, 1005.643 " />
            <path fill="none" stroke-width="3.0" stroke-linecap="butt" stroke-opacity="1.0" stroke="rgb(0, 0, 0)" stroke-linejoin="round" d=" M 6900.573, 1058.218 6898.312, 1059.600 6895.984, 1060.867 6893.596, 1062.017 6891.153, 1063.046 6888.663, 1063.953 6886.130, 1064.735 6883.562, 1065.388 6880.963, 1065.914 6878.343, 1066.308 " />
            <path fill="none" stroke-width="3.0" stroke-linecap="butt" stroke-opacity="1.0" stroke="rgb(0, 0, 0)" stroke-linejoin="round" d=" M 6819.171, 1005.643 6819.631, 1003.033 " />
            <path fill="none" stroke-width="3.0" stroke-linecap="butt" stroke-opacity="1.0" stroke="rgb(0, 0, 0)" stroke-linejoin="round" d=" M 6819.631, 1003.033 6820.221, 1000.449 " />
            <path fill="none" stroke-width="3.0" stroke-linecap="butt" stroke-opacity="1.0" stroke="rgb(0, 0, 0)" stroke-linejoin="round" d=" M 6820.221, 1000.449 6820.939, 997.897 " />
            <path fill="none" stroke-width="3.0" stroke-linecap="butt" stroke-opacity="1.0" stroke="rgb(0, 0, 0)" stroke-linejoin="round" d=" M 6820.939, 997.897 6821.783, 995.384 6822.751, 992.917 6823.841, 990.502 6825.050, 988.143 6826.375, 985.848 6827.813, 983.621 6829.361, 981.469 6831.013, 979.397 6832.767, 977.410 6834.618, 975.513 6836.561, 973.710 6838.591, 972.006 6840.704, 970.406 6842.894, 968.912 6845.155, 967.530 6847.483, 966.263 " />
            <path fill="none" stroke-width="3.0" stroke-linecap="butt" stroke-opacity="1.0" stroke="rgb(0, 0, 0)" stroke-linejoin="round" d=" M 6917.091, 1041.283 6915.653, 1043.509 6914.105, 1045.661 6912.453, 1047.733 6910.699, 1049.720 6908.849, 1051.618 6906.906, 1053.421 6904.875, 1055.125 6902.763, 1056.724 6900.573, 1058.218 " />
            <path fill="none" stroke-width="3.0" stroke-linecap="butt" stroke-opacity="1.0" stroke="rgb(0, 0, 0)" stroke-linejoin="round" d=" M 8455.194, 49.872 8458.479, 40.427 8461.763, 30.981 8464.318, 23.630 8454.318, 23.630 8444.318, 23.630 8434.318, 23.630 8424.318, 23.630 8414.318, 23.630 8404.318, 23.630 8394.318, 23.630 8390.301, 23.630 8380.301, 23.630 8370.301, 23.630 8360.301, 23.630 8350.301, 23.630 8340.301, 23.630 8330.301, 23.630 8320.301, 23.630 8310.301, 23.630 8300.301, 23.630 8290.301, 23.630 8280.301, 23.630 8270.301, 23.630 8260.301, 23.630 8250.301, 23.630 8240.301, 23.630 8230.301, 23.630 8220.301, 23.630 8210.301, 23.630 8200.301, 23.630 8190.301, 23.630 8180.301, 23.630 8170.301, 23.630 8160.301, 23.630 8150.301, 23.630 8140.301, 23.630 8130.301, 23.630 8120.301, 23.630 8110.301, 23.630 8100.301, 23.630 8090.301, 23.630 8080.301, 23.630 8070.301, 23.630 8060.301, 23.630 8050.301, 23.630 8040.301, 23.630 8030.301, 23.630 8020.301, 23.630 8010.301, 23.630 8000.301, 23.630 7990.301, 23.630 7980.301, 23.630 7970.301, 23.630 7960.301, 23.630 7950.301, 23.630 7940.301, 23.630 7930.301, 23.630 7920.301, 23.630 7910.301, 23.630 7900.301, 23.630 7890.301, 23.630 7880.301, 23.630 7870.301, 23.630 7860.301, 23.630 7850.301, 23.630 7840.301, 23.630 7830.301, 23.630 7820.301, 23.630 7810.301, 23.630 7800.301, 23.630 7790.301, 23.630 7780.301, 23.630 7770.301, 23.630 7760.301, 23.630 7750.301, 23.630 7740.301, 23.630 7730.301, 23.630 7720.301, 23.630 7710.301, 23.630 7700.301, 23.630 7690.301, 23.630 7680.301, 23.630 7670.301, 23.630 7660.301, 23.630 7650.301, 23.630 7640.301, 23.630 7630.301, 23.630 7620.301, 23.630 7610.301, 23.630 7600.301, 23.630 7590.301, 23.630 7580.301, 23.630 7570.301, 23.630 7560.301, 23.630 7550.301, 23.630 7540.301, 23.630 7530.301, 23.630 7520.301, 23.630 7510.301, 23.630 7500.301, 23.630 7490.301, 23.630 7480.301, 23.630 7470.301, 23.630 7460.301, 23.630 7450.301, 23.630 7440.301, 23.630 7430.301, 23.630 7420.301, 23.630 7410.301, 23.630 7400.301, 23.630 7390.301, 23.630 7380.301, 23.630 7370.301, 23.630 7360.301, 23.630 7350.301, 23.630 7340.301, 23.630 7330.301, 23.630 7320.301, 23.630 7310.301, 23.630 7300.301, 23.630 7290.301, 23.630 7280.301, 23.630 7270.301, 23.630 7260.301, 23.630 7250.301, 23.630 7240.301, 23.630 7230.301, 23.630 7220.301, 23.630 7210.301, 23.630 7200.301, 23.630 7190.301, 23.630 7180.301, 23.630 7170.301, 23.630 7160.301, 23.630 7150.301, 23.630 7140.301, 23.630 7130.301, 23.630 7120.301, 23.630 7110.301, 23.630 7100.301, 23.630 7090.301, 23.630 7080.301, 23.630 7070.301, 23.630 7060.301, 23.630 7050.301, 23.630 7040.301, 23.630 7030.301, 23.630 7020.301, 23.630 7010.301, 23.630 7000.301, 23.630 6990.301, 23.630 6980.301, 23.630 6970.301, 23.630 6960.301, 23.630 6950.301, 23.630 6940.301, 23.630 6930.301, 23.630 6920.301, 23.630 6910.301, 23.630 6900.301, 23.630 6890.301, 23.630 6880.301, 23.630 6870.301, 23.630 6860.301, 23.630 6850.301, 23.630 6840.301, 23.630 6830.301, 23.630 6820.301, 23.630 6810.301, 23.630 6800.301, 23.630 6790.301, 23.630 6780.301, 23.630 6770.301, 23.630 6760.301, 23.630 6750.301, 23.630 6740.301, 23.630 6730.301, 23.630 6720.301, 23.630 6710.301, 23.630 6700.301, 23.630 6690.301, 23.630 6680.301, 23.630 6670.301, 23.630 6660.301, 23.630 6650.301, 23.630 6640.301, 23.630 6630.301, 23.630 6620.301, 23.630 6610.301, 23.630 6600.301, 23.630 6590.301, 23.630 6580.301, 23.630 6570.301, 23.630 6560.301, 23.630 6550.301, 23.630 6523.066, 23.630 6521.936, 23.630 6520.766, 23.630 6510.766, 23.630 6500.766, 23.630 6490.766, 23.630 6480.766, 23.630 6470.766, 23.630 6460.766, 23.630 6450.766, 23.630 6440.766, 23.630 6430.766, 23.630 6420.766, 23.630 6410.766, 23.630 6400.766, 23.630 6390.766, 23.630 6380.766, 23.630 6370.766, 23.630 6360.766, 23.630 6350.766, 23.630 6340.766, 23.630 6330.766, 23.630 6320.766, 23.630 6310.766, 23.630 6300.766, 23.630 6290.766, 23.630 6280.766, 23.630 6270.766, 23.630 6260.766, 23.630 6250.766, 23.630 6240.766, 23.630 6230.766, 23.630 6220.766, 23.630 6210.766, 23.630 6200.766, 23.630 6190.766, 23.630 6180.766, 23.630 6170.766, 23.630 6160.766, 23.630 6150.766, 23.630 6140.766, 23.630 6130.766, 23.630 6120.766, 23.630 6110.766, 23.630 6100.766, 23.630 6090.766, 23.630 6080.766, 23.630 6070.766, 23.630 6060.766, 23.630 6050.766, 23.630 6040.766, 23.630 6030.766, 23.630 6020.766, 23.630 6010.766, 23.630 6000.766, 23.630 5986.372, 23.630 5986.292, 23.630 5986.207, 23.630 5986.117, 23.630 5986.023, 23.630 5985.924, 23.630 5985.821, 23.630 5985.715, 23.630 5985.605, 23.630 5985.492, 23.630 5985.376, 23.630 5985.258, 23.630 5985.138, 23.630 5985.015, 23.630 5984.892, 23.630 5984.768, 23.630 5974.768, 23.630 5964.768, 23.630 5954.768, 23.630 5944.768, 23.630 5934.768, 23.630 5934.039, 23.630 5928.788, 23.630 " />
            <path fill="none" stroke-width="3.0" stroke-linecap="butt" stroke-opacity="1.0" stroke="rgb(0, 0, 0)" stroke-linejoin="round" d=" M 6854.804, 963.177 6857.336, 962.396 6859.905, 961.741 6862.502, 961.217 6865.124, 960.822 6867.761, 960.558 6870.408, 960.425 6873.059, 960.425 6875.706, 960.558 6878.343, 960.822 6880.963, 961.217 6883.562, 961.741 6886.130, 962.396 6888.663, 963.177 6891.153, 964.083 6893.596, 965.113 " />
            <path fill="none" stroke-width="3.0" stroke-linecap="butt" stroke-opacity="1.0" stroke="rgb(0, 0, 0)" stroke-linejoin="round" d=" M 6847.483, 966.263 6849.871, 965.113 6852.313, 964.083 6854.804, 963.177 " />
            <path fill="none" stroke-width="3.0" stroke-linecap="butt" stroke-opacity="1.0" stroke="rgb(0, 0, 0)" stroke-linejoin="round" d=" M 5928.788, 23.630 5923.004, 31.787 5917.220, 39.945 5911.436, 48.102 5905.651, 56.259 5899.867, 64.417 5894.083, 72.574 5888.764, 80.075 5884.733, 89.227 5880.703, 98.379 5876.672, 107.531 5872.642, 116.682 5868.611, 125.834 5864.581, 134.986 5860.551, 144.138 5856.520, 153.290 5852.490, 162.441 5848.459, 171.593 5844.429, 180.745 5840.398, 189.897 5836.798, 198.072 " />
            <path fill="none" stroke-width="3.0" stroke-linecap="butt" stroke-opacity="1.0" stroke="rgb(0, 0, 0)" stroke-linejoin="round" d=" M 6924.625, 1008.273 6924.823, 1010.916 6924.889, 1013.565 6924.823, 1016.215 6924.625, 1018.858 6924.296, 1021.487 6923.835, 1024.098 6923.246, 1026.682 6922.528, 1029.233 6921.684, 1031.745 6920.715, 1034.213 6919.625, 1036.629 6918.416, 1038.987 6917.091, 1041.283 " />
            <path fill="none" stroke-width="3.0" stroke-linecap="butt" stroke-opacity="1.0" stroke="rgb(0, 0, 0)" stroke-linejoin="round" d=" M 7800.104, 1804.380 7806.930, 1797.073 7813.757, 1789.765 7820.583, 1782.458 7827.410, 1775.151 7834.237, 1767.844 7841.063, 1760.536 7847.890, 1753.229 7854.717, 1745.922 7861.543, 1738.614 7868.370, 1731.307 7875.197, 1724.000 7882.023, 1716.692 7888.850, 1709.385 7895.677, 1702.078 7902.503, 1694.770 7909.330, 1687.463 7916.157, 1680.156 7922.983, 1672.849 7929.810, 1665.541 7936.637, 1658.234 7943.463, 1650.927 7950.290, 1643.619 7957.117, 1636.312 7963.943, 1629.005 7970.770, 1621.697 7977.597, 1614.390 7984.423, 1607.083 7991.250, 1599.775 7998.077, 1592.468 8004.903, 1585.161 8011.730, 1577.854 8018.557, 1570.546 8025.383, 1563.239 8032.210, 1555.932 8039.037, 1548.624 8045.863, 1541.317 8052.690, 1534.010 8059.517, 1526.702 8066.343, 1519.395 8073.170, 1512.088 8079.997, 1504.780 8086.823, 1497.473 8091.075, 1492.922 8096.045, 1484.244 8101.015, 1475.567 8105.985, 1466.889 8110.955, 1458.212 8115.925, 1449.534 8120.895, 1440.857 8125.865, 1432.179 8130.835, 1423.502 8135.805, 1414.824 8140.775, 1406.147 8145.614, 1397.698 " />
            <path fill="none" stroke-width="3.0" stroke-linecap="butt" stroke-opacity="1.0" stroke="rgb(0, 0, 0)" stroke-linejoin="round" d=" M 6924.296, 1005.643 6924.625, 1008.273 " />
            <path fill="none" stroke-width="3.0" stroke-linecap="butt" stroke-opacity="1.0" stroke="rgb(0, 0, 0)" stroke-linejoin="round" d=" M 6923.835, 1003.033 6924.296, 1005.643 " />
            <path fill="none" stroke-width="3.0" stroke-linecap="butt" stroke-opacity="1.0" stroke="rgb(0, 0, 0)" stroke-linejoin="round" d=" M 6915.653, 983.621 6917.091, 985.848 6918.416, 988.143 6919.625, 990.502 6920.715, 992.917 6921.684, 995.384 6922.528, 997.897 6923.246, 1000.449 6923.835, 1003.033 " />
            <path fill="none" stroke-width="3.0" stroke-linecap="butt" stroke-opacity="1.0" stroke="rgb(0, 0, 0)" stroke-linejoin="round" d=" M 6906.906, 973.710 6908.849, 975.513 6910.699, 977.410 6912.453, 979.397 6914.105, 981.469 6915.653, 983.621 " />
            <path fill="none" stroke-width="3.0" stroke-linecap="butt" stroke-opacity="1.0" stroke="rgb(0, 0, 0)" stroke-linejoin="round" d=" M 8145.614, 1397.698 8147.294, 1387.840 8148.975, 1377.983 8150.655, 1368.125 8152.336, 1358.267 8154.017, 1348.409 8155.697, 1338.552 8157.378, 1328.694 8159.059, 1318.836 8160.739, 1308.978 8162.420, 1299.121 8164.101, 1289.263 8165.781, 1279.405 8167.462, 1269.547 8169.143, 1259.690 8170.823, 1249.832 8172.504, 1239.974 8174.185, 1230.116 8175.865, 1220.258 8177.546, 1210.401 8179.227, 1200.543 8180.907, 1190.685 8182.588, 1180.827 8184.269, 1170.970 8185.949, 1161.112 8187.630, 1151.254 8189.311, 1141.396 8190.991, 1131.539 8192.672, 1121.681 8194.353, 1111.823 8196.033, 1101.965 8197.714, 1092.108 8199.333, 1082.611 " />
            <path fill="none" stroke-width="3.0" stroke-linecap="butt" stroke-opacity="1.0" stroke="rgb(0, 0, 0)" stroke-linejoin="round" d=" M 6904.875, 972.006 6906.906, 973.710 " />
            <path fill="none" stroke-width="3.0" stroke-linecap="butt" stroke-opacity="1.0" stroke="rgb(0, 0, 0)" stroke-linejoin="round" d=" M 8199.333, 1082.611 8205.885, 1075.056 8212.438, 1067.502 8218.989, 1059.948 8225.542, 1052.393 8232.094, 1044.839 8238.646, 1037.284 8245.198, 1029.730 8251.751, 1022.176 8258.303, 1014.621 8264.855, 1007.067 8271.407, 999.513 8277.960, 991.958 8284.512, 984.404 8291.064, 976.850 8297.616, 969.295 8304.169, 961.741 8310.721, 954.187 8317.273, 946.632 8323.825, 939.078 8330.378, 931.524 8336.930, 923.969 8343.482, 916.415 8350.034, 908.861 8356.587, 901.306 8363.139, 893.752 8369.691, 886.198 8376.243, 878.643 8382.796, 871.089 8389.348, 863.535 8395.900, 855.980 8402.452, 848.426 8409.005, 840.872 8415.557, 833.317 8422.109, 825.763 8425.108, 822.305 8429.617, 813.379 8434.126, 804.453 8438.635, 795.528 8443.144, 786.602 8447.652, 777.676 8452.162, 768.750 8456.671, 759.825 8461.180, 750.899 8465.688, 741.973 8470.197, 733.047 8474.706, 724.121 8479.215, 715.196 8483.725, 706.270 8488.233, 697.344 8492.742, 688.418 8497.251, 679.493 8501.760, 670.567 8506.269, 661.641 8510.777, 652.715 8515.286, 643.789 8519.796, 634.864 8524.305, 625.938 8528.813, 617.012 8533.322, 608.086 8538.097, 598.634 " />
            <path fill="none" stroke-width="3.0" stroke-linecap="butt" stroke-opacity="1.0" stroke="rgb(0, 0, 0)" stroke-linejoin="round" d=" M 6893.596, 965.113 6895.984, 966.263 6898.312, 967.530 6900.573, 968.912 6902.763, 970.406 6904.875, 972.006 " />
            <path fill="none" stroke-width="3.0" stroke-linecap="butt" stroke-opacity="1.0" stroke="rgb(0, 0, 0)" stroke-linejoin="round" d=" M 1033.605, 1055.120 1031.086, 1052.538 1028.699, 1049.833 1026.450, 1047.012 1024.344, 1044.083 1022.387, 1041.052 1020.583, 1037.928 1018.937, 1034.718 1017.453, 1031.430 1016.135, 1028.072 1014.986, 1024.651 1014.009, 1021.180 1013.207, 1017.663 1012.580, 1014.109 1012.131, 1010.530 1011.862, 1006.932 1011.772, 1003.326 1011.862, 999.719 1012.131, 996.122 1012.580, 992.543 1013.207, 988.990 1014.009, 985.473 1014.986, 982.001 1016.135, 978.581 1017.453, 975.222 1018.937, 971.934 1020.583, 968.724 1022.387, 965.600 1024.344, 962.569 1026.450, 959.640 1028.699, 956.819 1031.086, 954.115 1033.605, 951.532 1036.250, 949.079 1039.013, 946.759 1041.889, 944.582 1044.870, 942.549 1047.948, 940.668 1051.116, 938.943 1054.366, 937.378 1057.690, 935.976 1061.080, 934.742 1064.528, 933.679 1068.024, 932.788 1071.560, 932.074 1075.127, 931.536 1078.717, 931.177 1082.320, 930.997 1085.927, 930.997 1089.530, 931.177 1093.120, 931.536 1096.688, 932.074 1100.224, 932.788 1103.719, 933.679 1107.167, 934.742 1110.557, 935.976 1113.880, 937.378 1117.131, 938.943 1120.300, 940.668 1123.378, 942.549 1126.358, 944.582 1129.234, 946.759 1131.997, 949.079 1134.642, 951.532 1137.161, 954.115 1139.548, 956.819 1141.797, 959.640 1143.903, 962.569 1145.860, 965.600 1147.664, 968.724 1149.310, 971.934 1150.794, 975.222 1152.112, 978.581 1153.260, 982.001 1154.238, 985.473 1155.040, 988.990 1155.667, 992.543 1156.115, 996.122 1156.385, 999.719 1156.475, 1003.326 1156.385, 1006.932 1156.115, 1010.530 1155.667, 1014.109 1155.040, 1017.663 1154.238, 1021.180 1153.260, 1024.651 1152.112, 1028.072 1150.794, 1031.430 1149.310, 1034.718 1147.664, 1037.928 1145.860, 1041.052 1143.903, 1044.083 1141.797, 1047.012 1139.548, 1049.833 1137.161, 1052.538 1134.642, 1055.120 1131.997, 1057.573 1129.234, 1059.893 1126.358, 1062.071 1123.378, 1064.104 1120.300, 1065.984 1117.131, 1067.710 1113.880, 1069.275 1110.557, 1070.676 1107.167, 1071.910 1103.719, 1072.973 1100.224, 1073.864 1096.688, 1074.578 1093.120, 1075.116 1089.530, 1075.475 1085.927, 1075.655 1082.320, 1075.655 1078.717, 1075.475 1075.127, 1075.116 1071.560, 1074.578 1068.024, 1073.864 1064.528, 1072.973 1061.080, 1071.910 1057.690, 1070.676 1054.366, 1069.275 1051.116, 1067.710 1047.948, 1065.984 1044.870, 1064.104 1041.889, 1062.071 1039.013, 1059.893 1036.250, 1057.573 1033.605, 1055.120 " />
            <path fill="none" stroke-width="3.0" stroke-linecap="butt" stroke-opacity="1.0" stroke="rgb(0, 0, 0)" stroke-linejoin="round" d=" M 1936.564, 900.370 1934.255, 910.100 1931.946, 919.829 1929.637, 929.559 1927.328, 939.289 1925.019, 949.019 1922.710, 958.748 1920.401, 968.478 1918.093, 978.208 1915.784, 987.938 1913.475, 997.668 1911.166, 1007.397 1908.857, 1017.127 1906.548, 1026.857 1904.239, 1036.587 1901.930, 1046.317 1899.621, 1056.046 1897.312, 1065.776 1895.003, 1075.506 1892.694, 1085.236 1890.385, 1094.966 1888.076, 1104.695 1885.767, 1114.425 1883.458, 1124.155 1881.150, 1133.885 1878.841, 1143.615 1876.532, 1153.344 1874.223, 1163.074 1871.914, 1172.804 1869.605, 1182.534 1867.296, 1192.263 1864.987, 1201.993 1862.678, 1211.723 1860.369, 1221.453 1858.060, 1231.183 1855.751, 1240.912 1853.443, 1250.642 1851.134, 1260.372 1848.825, 1270.102 1846.516, 1279.832 1844.207, 1289.561 1842.913, 1295.011 " />
            <path fill="none" stroke-width="3.0" stroke-linecap="butt" stroke-opacity="1.0" stroke="rgb(0, 0, 0)" stroke-linejoin="round" d=" M 59.345, 1553.116 57.910, 1563.013 56.476, 1572.910 55.041, 1582.806 53.607, 1592.703 52.172, 1602.599 50.738, 1612.496 49.303, 1622.392 47.868, 1632.289 46.434, 1642.186 44.999, 1652.082 43.565, 1661.979 42.130, 1671.875 40.696, 1681.772 39.261, 1691.668 37.827, 1701.565 36.392, 1711.462 34.958, 1721.358 33.523, 1731.255 32.089, 1741.151 30.654, 1751.048 29.220, 1760.944 27.785, 1770.841 26.351, 1780.738 24.916, 1790.634 23.481, 1800.531 22.923, 1804.380 " />
            <path fill="none" stroke-width="3.0" stroke-linecap="butt" stroke-opacity="1.0" stroke="rgb(0, 0, 0)" stroke-linejoin="round" d=" M 76.185, 1268.072 75.595, 1278.054 75.005, 1288.037 74.416, 1298.020 73.826, 1308.002 73.236, 1317.985 72.646, 1327.967 72.057, 1337.950 71.467, 1347.932 70.877, 1357.915 70.287, 1367.898 69.697, 1377.880 69.108, 1387.863 68.518, 1397.845 67.928, 1407.828 67.338, 1417.811 66.749, 1427.793 66.159, 1437.776 65.569, 1447.758 64.979, 1457.741 64.390, 1467.724 63.800, 1477.706 63.210, 1487.689 62.620, 1497.671 62.031, 1507.654 61.441, 1517.637 60.851, 1527.619 60.261, 1537.602 59.672, 1547.584 59.345, 1553.116 " />
            <path fill="none" stroke-width="3.0" stroke-linecap="butt" stroke-opacity="1.0" stroke="rgb(0, 0, 0)" stroke-linejoin="round" d=" M 6818.643, 1016.215 6818.577, 1013.565 " />
            <path fill="none" stroke-width="3.0" stroke-linecap="butt" stroke-opacity="1.0" stroke="rgb(0, 0, 0)" stroke-linejoin="round" d=" M 6838.591, 1055.125 6836.561, 1053.421 " />
            <path fill="none" stroke-width="3.0" stroke-linecap="butt" stroke-opacity="1.0" stroke="rgb(0, 0, 0)" stroke-linejoin="round" d=" M 6852.313, 1063.046 6849.871, 1062.017 " />
            <path fill="none" stroke-width="3.0" stroke-linecap="butt" stroke-opacity="1.0" stroke="rgb(0, 0, 0)" stroke-linejoin="round" d=" M 6854.804, 1063.953 6852.313, 1063.046 " />
            <path fill="none" stroke-width="3.0" stroke-linecap="butt" stroke-opacity="1.0" stroke="rgb(0, 0, 0)" stroke-linejoin="round" d=" M 6878.343, 1066.308 6875.706, 1066.573 " />
            <path fill="none" stroke-width="3.0" stroke-linecap="butt" stroke-opacity="1.0" stroke="rgb(0, 0, 0)" stroke-linejoin="round" d=" M 8470.599, 283.599 8469.941, 273.621 8469.283, 263.643 8468.626, 253.664 8467.968, 243.686 8467.311, 233.708 8466.653, 223.729 8465.995, 213.751 8465.338, 203.773 8464.680, 193.794 8464.022, 183.816 8463.364, 173.838 8462.707, 163.859 8462.050, 153.881 8461.392, 143.902 8460.734, 133.924 8460.076, 123.946 8459.419, 113.967 8458.761, 103.989 8458.104, 94.011 8457.446, 84.032 8456.788, 74.054 8456.131, 64.076 8455.473, 54.097 8455.194, 49.872 " />
            <path fill="none" stroke-width="3.0" stroke-linecap="butt" stroke-opacity="1.0" stroke="rgb(0, 0, 0)" stroke-linejoin="round" d=" M 8538.097, 598.634 8536.002, 588.856 8533.907, 579.078 8531.812, 569.300 8529.717, 559.522 8527.622, 549.744 8525.526, 539.966 8523.432, 530.188 8521.337, 520.410 8519.242, 510.631 8517.146, 500.853 8515.052, 491.075 8512.957, 481.297 8510.861, 471.519 8508.767, 461.741 8506.672, 451.963 8504.577, 442.185 8502.481, 432.407 8500.387, 422.629 8498.292, 412.851 8496.196, 403.073 8494.102, 393.295 8492.007, 383.516 8489.911, 373.738 8487.816, 363.960 8485.722, 354.182 8483.627, 344.404 8481.531, 334.626 8479.437, 324.848 8477.342, 315.070 8475.246, 305.292 8473.151, 295.514 8470.599, 283.599 " />
        </g>
    </g>
<g id="slice-labels"><text x="555.121375" y="468.8175" text-anchor="middle" dominant-baseline="middle" font-family="Arial, sans-serif" font-size="59.06234830542852" font-weight="bold" fill="black" stroke="none" stroke-width="7.0874817966514225" paint-order="stroke fill">Slice24 (Back)</text><text x="1619.5181249999998" y="468.8175" text-anchor="middle" dominant-baseline="middle" font-family="Arial, sans-serif" font-size="59.06234830542852" font-weight="bold" fill="black" stroke="none" stroke-width="7.0874817966514225" paint-order="stroke fill">Slice24 (Back)</text><text x="2683.9148749999995" y="468.8175" text-anchor="middle" dominant-baseline="middle" font-family="Arial, sans-serif" font-size="59.06234830542852" font-weight="bold" fill="black" stroke="none" stroke-width="7.0874817966514225" paint-order="stroke fill">Slice24 (Back)</text><text x="3748.3116249999994" y="468.8175" text-anchor="middle" dominant-baseline="middle" font-family="Arial, sans-serif" font-size="59.06234830542852" font-weight="bold" fill="black" stroke="none" stroke-width="7.0874817966514225" paint-order="stroke fill">Slice24 (Back)</text><text x="4812.708374999999" y="468.8175" text-anchor="middle" dominant-baseline="middle" font-family="Arial, sans-serif" font-size="59.06234830542852" font-weight="bold" fill="black" stroke="none" stroke-width="7.0874817966514225" paint-order="stroke fill">Slice24 (Back)</text><text x="5877.105124999999" y="468.8175" text-anchor="middle" dominant-baseline="middle" font-family="Arial, sans-serif" font-size="59.06234830542852" font-weight="bold" fill="black" stroke="none" stroke-width="7.0874817966514225" paint-order="stroke fill">Slice24 (Back)</text><text x="6941.501874999999" y="468.8175" text-anchor="middle" dominant-baseline="middle" font-family="Arial, sans-serif" font-size="59.06234830542852" font-weight="bold" fill="black" stroke="none" stroke-width="7.0874817966514225" paint-order="stroke fill">Slice24 (Back)</text><text x="8005.898624999999" y="468.8175" text-anchor="middle" dominant-baseline="middle" font-family="Arial, sans-serif" font-size="59.06234830542852" font-weight="bold" fill="black" stroke="none" stroke-width="7.0874817966514225" paint-order="stroke fill">Slice24 (Back)</text><text x="555.121375" y="1359.1925" text-anchor="middle" dominant-baseline="middle" font-family="Arial, sans-serif" font-size="59.06234830542852" font-weight="bold" fill="black" stroke="none" stroke-width="7.0874817966514225" paint-order="stroke fill">Slice24 (Back)</text><text x="1619.5181249999998" y="1359.1925" text-anchor="middle" dominant-baseline="middle" font-family="Arial, sans-serif" font-size="59.06234830542852" font-weight="bold" fill="black" stroke="none" stroke-width="7.0874817966514225" paint-order="stroke fill">Slice24 (Back)</text><text x="2683.9148749999995" y="1359.1925" text-anchor="middle" dominant-baseline="middle" font-family="Arial, sans-serif" font-size="59.06234830542852" font-weight="bold" fill="black" stroke="none" stroke-width="7.0874817966514225" paint-order="stroke fill">Slice24 (Back)</text><text x="3748.3116249999994" y="1359.1925" text-anchor="middle" dominant-baseline="middle" font-family="Arial, sans-serif" font-size="59.06234830542852" font-weight="bold" fill="black" stroke="none" stroke-width="7.0874817966514225" paint-order="stroke fill">Slice24 (Back)</text><text x="4812.708374999999" y="1359.1925" text-anchor="middle" dominant-baseline="middle" font-family="Arial, sans-serif" font-size="59.06234830542852" font-weight="bold" fill="black" stroke="none" stroke-width="7.0874817966514225" paint-order="stroke fill">Slice24 (Back)</text><text x="5877.105124999999" y="1359.1925" text-anchor="middle" dominant-baseline="middle" font-family="Arial, sans-serif" font-size="59.06234830542852" font-weight="bold" fill="black" stroke="none" stroke-width="7.0874817966514225" paint-order="stroke fill">Slice24 (Back)</text><text x="6941.501874999999" y="1359.1925" text-anchor="middle" dominant-baseline="middle" font-family="Arial, sans-serif" font-size="59.06234830542852" font-weight="bold" fill="black" stroke="none" stroke-width="7.0874817966514225" paint-order="stroke fill">Slice24 (Back)</text><text x="8005.898624999999" y="1359.1925" text-anchor="middle" dominant-baseline="middle" font-family="Arial, sans-serif" font-size="59.06234830542852" font-weight="bold" fill="black" stroke="none" stroke-width="7.0874817966514225" paint-order="stroke fill">Slice24 (Back)</text></g></svg>