<?xml version='1.0' encoding='utf-8'?>
<svg xmlns="http://www.w3.org/2000/svg" xmlns:inkscape="http://www.inkscape.org/namespaces/inkscape" version="1.1" width="163.38610211014748mm" height="103.63679313659668mm" viewBox="0.1660446584971922 0.0050470777852495985 1929.6679106830056 1223.9999058444296" preserveAspectRatio="none">
    <g id="ViewLayer_LineSet" inkscape:groupmode="lineset" inkscape:label="ViewLayer_LineSet">
        <g inkscape:groupmode="layer" id="strokes" inkscape:label="strokes">
            <path fill="none" stroke-width="3.0" stroke-linecap="butt" stroke-opacity="1.0" stroke="rgb(0, 0, 0)" stroke-linejoin="round" d=" M 303.193, 393.079 298.207, 401.747 293.221, 410.416 288.235, 419.084 283.248, 427.752 278.262, 436.420 276.801, 438.960 271.815, 447.629 266.828, 456.297 261.842, 464.965 256.856, 473.633 251.870, 482.301 246.883, 490.970 241.897, 499.638 236.911, 508.306 231.925, 516.974 226.938, 525.642 221.952, 534.310 216.966, 542.979 211.642, 552.234 208.858, 561.838 206.075, 571.443 203.291, 581.048 200.507, 590.652 197.723, 600.257 194.940, 609.862 192.156, 619.467 189.372, 629.071 186.588, 638.676 183.805, 648.281 181.021, 657.885 178.237, 667.490 175.453, 677.095 172.670, 686.700 169.886, 696.304 167.102, 705.909 164.318, 715.514 161.535, 725.118 158.751, 734.723 155.967, 744.328 153.183, 753.933 150.399, 763.537 147.616, 773.142 144.832, 782.747 142.048, 792.352 139.264, 801.956 136.481, 811.561 133.697, 821.166 130.913, 830.770 128.129, 840.375 125.346, 849.980 122.562, 859.585 119.778, 869.189 116.994, 878.794 114.211, 888.399 111.427, 898.003 108.643, 907.608 105.859, 917.213 103.076, 926.818 100.292, 936.422 97.508, 946.027 94.724, 955.632 91.940, 965.237 89.157, 974.841 86.373, 984.446 83.589, 994.051 80.805, 1003.655 78.022, 1013.260 75.238, 1022.865 72.454, 1032.470 69.670, 1042.074 66.887, 1051.679 64.103, 1061.284 61.319, 1070.888 58.535, 1080.493 55.752, 1090.098 52.968, 1099.703 50.184, 1109.307 47.400, 1118.912 44.617, 1128.517 41.833, 1138.122 39.049, 1147.726 36.265, 1157.331 33.481, 1166.936 30.698, 1176.540 27.914, 1186.145 23.787, 1200.384 33.787, 1200.384 43.787, 1200.384 53.787, 1200.384 63.787, 1200.384 73.787, 1200.384 83.787, 1200.384 93.787, 1200.384 103.787, 1200.384 113.787, 1200.384 123.787, 1200.384 133.787, 1200.384 143.787, 1200.384 153.787, 1200.384 163.787, 1200.384 173.787, 1200.384 183.787, 1200.384 189.625, 1200.384 " />
            <path fill="none" stroke-width="3.0" stroke-linecap="butt" stroke-opacity="1.0" stroke="rgb(0, 0, 0)" stroke-linejoin="round" d=" M 1457.901, 111.973 1454.048, 102.745 1450.195, 93.517 1446.342, 84.289 1442.489, 75.061 1438.637, 65.833 1434.784, 56.605 1430.931, 47.377 1427.078, 38.149 1423.225, 28.921 1421.015, 23.626 1411.015, 23.626 1401.015, 23.626 1391.015, 23.626 1381.015, 23.626 1371.015, 23.626 1361.015, 23.626 1351.015, 23.626 1341.015, 23.626 1331.015, 23.626 1321.015, 23.626 1311.015, 23.626 1301.015, 23.626 1291.015, 23.626 1281.015, 23.626 1271.015, 23.626 1261.015, 23.626 1251.015, 23.626 1241.015, 23.626 1231.015, 23.626 1221.015, 23.626 1211.015, 23.626 1201.015, 23.626 1191.015, 23.626 1181.015, 23.626 1171.015, 23.626 1161.015, 23.626 1151.015, 23.626 1141.015, 23.626 1131.015, 23.626 1123.223, 23.626 1120.832, 23.626 1118.413, 23.626 1115.975, 23.626 1113.525, 23.626 1108.621, 23.626 1101.390, 23.626 1096.756, 23.626 1092.353, 23.626 1082.353, 23.626 1072.353, 23.626 1062.353, 23.626 1052.353, 23.626 1042.353, 23.626 1032.353, 23.626 1022.353, 23.626 1012.353, 23.626 1002.353, 23.626 992.353, 23.626 982.353, 23.626 972.353, 23.626 962.353, 23.626 952.353, 23.626 942.353, 23.626 932.353, 23.626 922.353, 23.626 912.353, 23.626 902.353, 23.626 892.353, 23.626 882.353, 23.626 872.353, 23.626 862.353, 23.626 852.353, 23.626 842.353, 23.626 832.353, 23.626 822.353, 23.626 812.353, 23.626 802.353, 23.626 792.353, 23.626 789.314, 23.626 782.053, 23.626 779.535, 23.626 776.982, 23.626 774.403, 23.626 771.806, 23.626 763.993, 23.626 761.411, 23.626 751.411, 23.626 741.411, 23.626 731.411, 23.626 721.411, 23.626 711.411, 23.626 701.411, 23.626 691.411, 23.626 681.411, 23.626 671.411, 23.626 661.411, 23.626 651.411, 23.626 641.411, 23.626 631.411, 23.626 621.411, 23.626 611.411, 23.626 601.411, 23.626 591.411, 23.626 581.411, 23.626 571.411, 23.626 561.411, 23.626 551.411, 23.626 541.411, 23.626 531.411, 23.626 521.411, 23.626 511.411, 23.626 501.411, 23.626 491.411, 23.626 481.411, 23.626 471.411, 23.626 461.411, 23.626 451.411, 23.626 441.815, 23.626 438.609, 33.098 435.403, 42.570 432.197, 52.042 428.990, 61.514 425.784, 70.986 422.578, 80.458 419.372, 89.931 416.166, 99.403 412.960, 108.875 409.754, 118.347 406.548, 127.819 403.291, 137.442 399.645, 146.753 395.999, 156.065 392.353, 165.376 388.707, 174.688 385.060, 184.000 381.414, 193.311 377.768, 202.623 374.122, 211.935 370.476, 221.246 366.830, 230.558 363.184, 239.869 359.538, 249.181 355.892, 258.493 352.246, 267.804 348.600, 277.116 344.954, 286.428 341.308, 295.739 337.662, 305.051 334.016, 314.362 330.370, 323.674 326.724, 332.986 323.078, 342.297 319.431, 351.609 315.785, 360.921 312.139, 370.232 308.493, 379.544 304.847, 388.855 303.193, 393.079 298.207, 401.747 293.221, 410.416 288.235, 419.084 283.248, 427.752 278.262, 436.420 273.276, 445.088 268.290, 453.756 263.303, 462.425 258.317, 471.093 253.331, 479.761 248.345, 488.429 243.358, 497.097 238.372, 505.766 233.386, 514.434 228.400, 523.102 223.413, 531.770 218.427, 540.438 213.441, 549.107 211.642, 552.234 " />
            <path fill="none" stroke-width="3.0" stroke-linecap="butt" stroke-opacity="1.0" stroke="rgb(0, 0, 0)" stroke-linejoin="round" d=" M 771.806, 23.626 769.244, 23.735 763.993, 23.626 766.637, 23.736 769.244, 23.735 " />
            <path fill="none" stroke-width="3.0" stroke-linecap="butt" stroke-opacity="1.0" stroke="rgb(0, 0, 0)" stroke-linejoin="round" d=" M 782.053, 23.626 784.576, 23.734 787.000, 23.734 789.314, 23.626 799.314, 23.629 809.314, 23.632 819.314, 23.635 829.314, 23.638 839.314, 23.640 849.314, 23.643 859.314, 23.646 869.314, 23.649 879.314, 23.652 889.314, 23.655 899.314, 23.657 909.314, 23.660 919.314, 23.663 929.314, 23.666 939.314, 23.669 949.314, 23.672 959.314, 23.675 969.314, 23.677 979.314, 23.680 989.314, 23.683 999.314, 23.686 1009.314, 23.689 1019.314, 23.692 1029.314, 23.694 1039.314, 23.697 1049.314, 23.700 1059.314, 23.703 1069.314, 23.706 1079.314, 23.709 1090.177, 23.712 1092.353, 23.626 1094.441, 23.713 1096.756, 23.626 1098.969, 23.713 1101.390, 23.626 " />
            <path fill="none" stroke-width="3.0" stroke-linecap="butt" stroke-opacity="1.0" stroke="rgb(0, 0, 0)" stroke-linejoin="round" d=" M 1113.525, 23.626 1110.993, 23.716 1108.621, 23.626 1106.107, 23.715 1101.390, 23.626 1103.693, 23.714 1106.107, 23.715 " />
            <path fill="none" stroke-width="3.0" stroke-linecap="butt" stroke-opacity="1.0" stroke="rgb(0, 0, 0)" stroke-linejoin="round" d=" M 1767.886, 930.790 1764.787, 921.283 1761.687, 911.775 1758.587, 902.268 1755.488, 892.760 1752.388, 883.253 1749.288, 873.745 1746.189, 864.238 1743.089, 854.730 1739.990, 845.223 1736.890, 835.715 1733.790, 826.208 1730.691, 816.700 1727.591, 807.193 1724.491, 797.685 1721.392, 788.178 1718.292, 778.670 1715.192, 769.163 1712.093, 759.655 1708.993, 750.148 1705.893, 740.640 1702.794, 731.133 1699.694, 721.626 1696.594, 712.118 1693.495, 702.611 1690.395, 693.103 1687.296, 683.596 1684.196, 674.088 1681.096, 664.581 1677.997, 655.073 1674.897, 645.566 1671.797, 636.058 1668.698, 626.551 1665.598, 617.043 1662.498, 607.536 1659.399, 598.028 1656.299, 588.521 1653.199, 579.013 1650.100, 569.506 1647.000, 559.998 1643.900, 550.491 1640.801, 540.983 1637.701, 531.476 1634.601, 521.968 1631.502, 512.461 1628.402, 502.953 1625.302, 493.446 1622.203, 483.938 1619.103, 474.431 1616.004, 464.924 1612.904, 455.416 1609.804, 445.909 1606.705, 436.401 1603.605, 426.894 1600.505, 417.386 1597.406, 407.879 1594.306, 398.371 1590.020, 385.225 1586.921, 375.718 1583.821, 366.211 1580.721, 356.703 1577.622, 347.196 1574.522, 337.688 1571.422, 328.181 1568.323, 318.673 1565.223, 309.166 1563.589, 304.153 " />
            <path fill="none" stroke-width="3.0" stroke-linecap="butt" stroke-opacity="1.0" stroke="rgb(0, 0, 0)" stroke-linejoin="round" d=" M 189.625, 1200.384 191.036, 1200.384 192.480, 1200.384 193.952, 1200.384 195.449, 1200.384 196.969, 1200.384 198.505, 1200.384 200.055, 1200.384 201.614, 1200.384 203.176, 1200.384 204.738, 1200.384 206.294, 1200.384 207.839, 1200.384 209.368, 1200.384 210.876, 1200.384 212.356, 1200.384 213.805, 1200.384 215.217, 1200.384 216.585, 1200.384 217.906, 1200.384 219.173, 1200.384 220.383, 1200.384 221.529, 1200.384 222.609, 1200.384 223.616, 1200.384 224.549, 1200.384 234.549, 1200.384 244.549, 1200.384 254.549, 1200.384 264.549, 1200.384 274.549, 1200.384 284.549, 1200.384 294.549, 1200.384 304.549, 1200.384 314.549, 1200.384 324.549, 1200.384 334.549, 1200.384 344.549, 1200.384 354.549, 1200.384 364.549, 1200.384 374.549, 1200.384 384.549, 1200.384 394.549, 1200.384 404.549, 1200.384 414.549, 1200.384 424.549, 1200.384 434.549, 1200.384 444.549, 1200.384 454.549, 1200.384 464.549, 1200.384 474.549, 1200.384 484.549, 1200.384 494.549, 1200.384 504.549, 1200.384 514.549, 1200.384 524.549, 1200.384 534.549, 1200.384 544.549, 1200.384 554.549, 1200.384 564.549, 1200.384 574.549, 1200.384 584.549, 1200.384 594.549, 1200.384 604.549, 1200.384 616.795, 1200.384 619.022, 1200.384 621.156, 1200.384 623.191, 1200.384 625.121, 1200.384 635.121, 1200.384 645.121, 1200.384 655.121, 1200.384 665.121, 1200.384 675.121, 1200.384 685.121, 1200.384 695.121, 1200.384 705.121, 1200.384 715.121, 1200.384 725.121, 1200.384 735.121, 1200.384 745.121, 1200.384 755.121, 1200.384 765.121, 1200.384 775.121, 1200.384 785.121, 1200.384 795.121, 1200.384 805.121, 1200.384 815.121, 1200.384 825.121, 1200.384 835.121, 1200.384 845.121, 1200.384 855.121, 1200.384 865.121, 1200.384 875.121, 1200.384 885.121, 1200.384 895.121, 1200.384 905.121, 1200.384 915.121, 1200.384 925.121, 1200.384 935.121, 1200.384 945.121, 1200.384 955.121, 1200.384 965.121, 1200.384 975.121, 1200.384 985.121, 1200.384 995.121, 1200.384 1005.121, 1200.384 1015.121, 1200.384 1025.120, 1200.384 1035.120, 1200.384 1045.120, 1200.384 1055.120, 1200.384 1065.120, 1200.384 1075.120, 1200.384 1085.120, 1200.384 1095.120, 1200.384 1105.120, 1200.384 1115.120, 1200.384 1125.120, 1200.384 1135.120, 1200.384 1145.120, 1200.384 1155.120, 1200.384 1165.120, 1200.384 1175.120, 1200.384 1185.120, 1200.384 1195.120, 1200.384 1205.120, 1200.384 1215.120, 1200.384 1225.120, 1200.384 1235.120, 1200.384 1245.120, 1200.384 1255.120, 1200.384 1265.120, 1200.384 1275.120, 1200.384 1285.120, 1200.384 1295.120, 1200.384 1305.120, 1200.384 1315.120, 1200.384 1325.120, 1200.384 1335.120, 1200.384 1345.120, 1200.384 1355.120, 1200.384 1365.120, 1200.384 1375.120, 1200.384 1385.120, 1200.384 1395.120, 1200.384 1405.120, 1200.384 1413.742, 1200.384 1415.443, 1200.384 1417.276, 1200.384 1419.235, 1200.384 1421.313, 1200.384 1423.503, 1200.384 1425.797, 1200.384 1428.188, 1200.384 1430.668, 1200.384 1440.668, 1200.384 1450.668, 1200.384 1460.668, 1200.384 1470.668, 1200.384 1480.668, 1200.384 1490.668, 1200.384 1500.668, 1200.384 1510.668, 1200.384 1520.668, 1200.384 1530.668, 1200.384 1540.668, 1200.384 1550.668, 1200.384 1560.668, 1200.384 1570.668, 1200.384 1580.668, 1200.384 1590.668, 1200.384 1600.668, 1200.384 1610.668, 1200.384 1620.668, 1200.384 1630.668, 1200.384 1640.668, 1200.384 1650.668, 1200.384 1660.668, 1200.384 1670.668, 1200.384 1679.760, 1200.384 1681.335, 1200.384 1682.968, 1200.384 1684.652, 1200.384 1686.381, 1200.384 1688.149, 1200.384 1689.950, 1200.384 1699.950, 1200.384 1709.950, 1200.384 1719.950, 1200.384 1729.950, 1200.384 1739.950, 1200.384 1749.950, 1200.384 1759.950, 1200.384 1769.950, 1200.384 1779.950, 1200.384 1789.950, 1200.384 1799.950, 1200.384 1809.950, 1200.384 1819.950, 1200.384 1829.950, 1200.384 1839.950, 1200.384 1849.950, 1200.384 1859.950, 1200.384 1869.950, 1200.384 1879.950, 1200.384 1889.950, 1200.384 1899.950, 1200.384 1906.213, 1200.384 1901.648, 1191.487 1897.083, 1182.590 1892.518, 1173.692 1887.953, 1164.795 1883.388, 1155.898 1878.822, 1147.001 1874.257, 1138.104 1869.692, 1129.206 1865.127, 1120.309 1860.562, 1111.412 1855.997, 1102.515 1851.432, 1093.618 1846.867, 1084.721 1842.302, 1075.823 1837.737, 1066.926 1833.172, 1058.029 1828.607, 1049.132 1824.042, 1040.235 1819.476, 1031.337 1814.911, 1022.440 1810.346, 1013.543 1805.781, 1004.646 1801.216, 995.749 1796.651, 986.851 1792.086, 977.954 1787.521, 969.057 1782.956, 960.160 1778.391, 951.263 1773.826, 942.365 1767.886, 930.790 " />
            <path fill="none" stroke-width="3.0" stroke-linecap="butt" stroke-opacity="1.0" stroke="rgb(0, 0, 0)" stroke-linejoin="round" d=" M 276.801, 438.960 271.815, 447.629 266.828, 456.297 261.842, 464.965 256.856, 473.633 251.870, 482.301 246.883, 490.970 241.897, 499.638 236.911, 508.306 231.925, 516.974 226.938, 525.642 221.952, 534.310 216.966, 542.979 211.642, 552.234 " />
            <path fill="none" stroke-width="3.0" stroke-linecap="butt" stroke-opacity="1.0" stroke="rgb(0, 0, 0)" stroke-linejoin="round" d=" M 829.601, 256.915 832.120, 254.333 834.764, 251.880 837.527, 249.561 840.402, 247.384 843.382, 245.352 846.460, 243.471 849.628, 241.746 852.877, 240.181 856.201, 238.780 859.590, 237.546 863.037, 236.483 866.532, 235.593 870.068, 234.878 873.635, 234.341 877.224, 233.981 880.826, 233.802 884.433, 233.802 888.035, 233.981 891.624, 234.341 895.191, 234.878 898.726, 235.593 902.222, 236.483 905.669, 237.546 909.058, 238.780 912.382, 240.181 915.631, 241.746 918.799, 243.471 921.877, 245.352 924.857, 247.384 927.732, 249.561 930.495, 251.880 933.139, 254.333 935.658, 256.915 938.044, 259.619 940.293, 262.440 942.399, 265.368 944.356, 268.398 946.159, 271.522 947.805, 274.732 949.288, 278.020 950.606, 281.377 951.755, 284.796 952.732, 288.268 953.534, 291.784 954.161, 295.337 954.609, 298.916 954.878, 302.513 954.968, 306.118 954.878, 309.724 954.609, 313.321 954.161, 316.900 953.534, 320.452 952.732, 323.968 951.755, 327.441 950.606, 330.860 949.288, 334.218 947.805, 337.505 946.159, 340.715 944.356, 343.838 942.399, 346.869 940.293, 349.797 938.044, 352.617 935.658, 355.322 933.139, 357.904 930.495, 360.357 927.732, 362.676 924.857, 364.853 921.877, 366.885 918.799, 368.766 915.631, 370.491 912.382, 372.056 909.058, 373.457 905.669, 374.691 902.222, 375.754 898.726, 376.644 895.191, 377.358 891.624, 377.896 888.035, 378.255 884.433, 378.435 880.826, 378.435 877.224, 378.255 873.635, 377.896 870.068, 377.358 866.532, 376.644 863.037, 375.754 859.590, 374.691 856.201, 373.457 852.877, 372.056 849.628, 370.491 846.460, 368.766 843.382, 366.885 840.402, 364.853 837.527, 362.676 834.764, 360.357 832.120, 357.904 829.601, 355.322 827.214, 352.617 824.965, 349.797 822.860, 346.869 820.903, 343.838 819.100, 340.715 817.454, 337.505 815.971, 334.218 814.653, 330.860 813.504, 327.441 812.527, 323.968 811.724, 320.452 811.098, 316.900 810.650, 313.321 810.380, 309.724 810.290, 306.118 810.380, 302.513 810.650, 298.916 811.098, 295.337 811.724, 291.784 812.527, 288.268 813.504, 284.796 814.653, 281.377 815.971, 278.020 817.454, 274.732 819.100, 271.522 820.903, 268.398 822.860, 265.368 824.965, 262.440 827.214, 259.619 829.601, 256.915 " />
            <path fill="none" stroke-width="3.0" stroke-linecap="butt" stroke-opacity="1.0" stroke="rgb(0, 0, 0)" stroke-linejoin="round" d=" M 841.916, 854.101 843.670, 852.113 845.520, 850.217 847.463, 848.414 " />
            <path fill="none" stroke-width="3.0" stroke-linecap="butt" stroke-opacity="1.0" stroke="rgb(0, 0, 0)" stroke-linejoin="round" d=" M 847.463, 848.414 849.493, 846.711 851.605, 845.111 853.794, 843.618 " />
            <path fill="none" stroke-width="3.0" stroke-linecap="butt" stroke-opacity="1.0" stroke="rgb(0, 0, 0)" stroke-linejoin="round" d=" M 833.656, 867.619 834.745, 865.203 835.954, 862.845 837.279, 860.550 838.717, 858.324 840.264, 856.173 841.916, 854.101 " />
            <path fill="none" stroke-width="3.0" stroke-linecap="butt" stroke-opacity="1.0" stroke="rgb(0, 0, 0)" stroke-linejoin="round" d=" M 853.794, 843.618 856.056, 842.236 " />
            <path fill="none" stroke-width="3.0" stroke-linecap="butt" stroke-opacity="1.0" stroke="rgb(0, 0, 0)" stroke-linejoin="round" d=" M 856.056, 842.236 858.383, 840.969 " />
            <path fill="none" stroke-width="3.0" stroke-linecap="butt" stroke-opacity="1.0" stroke="rgb(0, 0, 0)" stroke-linejoin="round" d=" M 858.383, 840.969 860.771, 839.819 " />
            <path fill="none" stroke-width="3.0" stroke-linecap="butt" stroke-opacity="1.0" stroke="rgb(0, 0, 0)" stroke-linejoin="round" d=" M 860.771, 839.819 863.213, 838.790 " />
            <path fill="none" stroke-width="3.0" stroke-linecap="butt" stroke-opacity="1.0" stroke="rgb(0, 0, 0)" stroke-linejoin="round" d=" M 830.076, 880.342 830.536, 877.732 831.126, 875.148 831.843, 872.597 832.687, 870.086 833.656, 867.619 " />
            <path fill="none" stroke-width="3.0" stroke-linecap="butt" stroke-opacity="1.0" stroke="rgb(0, 0, 0)" stroke-linejoin="round" d=" M 863.213, 838.790 865.703, 837.883 " />
            <path fill="none" stroke-width="3.0" stroke-linecap="butt" stroke-opacity="1.0" stroke="rgb(0, 0, 0)" stroke-linejoin="round" d=" M 865.703, 837.883 868.235, 837.102 " />
            <path fill="none" stroke-width="3.0" stroke-linecap="butt" stroke-opacity="1.0" stroke="rgb(0, 0, 0)" stroke-linejoin="round" d=" M 868.235, 837.102 870.803, 836.448 " />
            <path fill="none" stroke-width="3.0" stroke-linecap="butt" stroke-opacity="1.0" stroke="rgb(0, 0, 0)" stroke-linejoin="round" d=" M 870.803, 836.448 873.400, 835.923 876.021, 835.528 878.658, 835.264 881.304, 835.133 " />
            <path fill="none" stroke-width="3.0" stroke-linecap="butt" stroke-opacity="1.0" stroke="rgb(0, 0, 0)" stroke-linejoin="round" d=" M 829.482, 888.263 829.548, 885.614 829.746, 882.971 830.076, 880.342 " />
            <path fill="none" stroke-width="3.0" stroke-linecap="butt" stroke-opacity="1.0" stroke="rgb(0, 0, 0)" stroke-linejoin="round" d=" M 881.304, 835.133 883.954, 835.133 886.601, 835.264 889.238, 835.528 891.858, 835.923 894.456, 836.448 897.024, 837.102 899.556, 837.883 902.046, 838.790 904.488, 839.819 906.875, 840.969 909.203, 842.236 911.464, 843.618 " />
            <path fill="none" stroke-width="3.0" stroke-linecap="butt" stroke-opacity="1.0" stroke="rgb(0, 0, 0)" stroke-linejoin="round" d=" M 858.383, 935.557 856.056, 934.290 853.794, 932.908 851.605, 931.415 849.493, 929.815 847.463, 928.112 845.520, 926.309 843.670, 924.412 841.916, 922.425 840.264, 920.353 838.717, 918.202 837.279, 915.976 835.954, 913.681 834.745, 911.323 833.656, 908.907 832.687, 906.440 831.843, 903.928 831.126, 901.378 830.536, 898.794 830.076, 896.184 829.746, 893.555 " />
            <path fill="none" stroke-width="3.0" stroke-linecap="butt" stroke-opacity="1.0" stroke="rgb(0, 0, 0)" stroke-linejoin="round" d=" M 911.464, 843.618 913.654, 845.111 " />
            <path fill="none" stroke-width="3.0" stroke-linecap="butt" stroke-opacity="1.0" stroke="rgb(0, 0, 0)" stroke-linejoin="round" d=" M 913.654, 845.111 915.766, 846.711 917.796, 848.414 919.739, 850.217 " />
            <path fill="none" stroke-width="3.0" stroke-linecap="butt" stroke-opacity="1.0" stroke="rgb(0, 0, 0)" stroke-linejoin="round" d=" M 919.739, 850.217 921.589, 852.113 923.342, 854.101 924.995, 856.173 926.541, 858.324 927.979, 860.550 " />
            <path fill="none" stroke-width="3.0" stroke-linecap="butt" stroke-opacity="1.0" stroke="rgb(0, 0, 0)" stroke-linejoin="round" d=" M 889.238, 940.998 886.601, 941.262 883.954, 941.393 881.304, 941.393 878.658, 941.262 876.021, 940.998 873.400, 940.603 870.803, 940.078 868.235, 939.424 " />
            <path fill="none" stroke-width="3.0" stroke-linecap="butt" stroke-opacity="1.0" stroke="rgb(0, 0, 0)" stroke-linejoin="round" d=" M 927.979, 860.550 929.304, 862.845 930.513, 865.203 931.603, 867.619 932.571, 870.086 933.415, 872.597 934.133, 875.148 " />
            <path fill="none" stroke-width="3.0" stroke-linecap="butt" stroke-opacity="1.0" stroke="rgb(0, 0, 0)" stroke-linejoin="round" d=" M 935.512, 882.971 935.711, 885.614 935.776, 888.263 935.711, 890.912 935.512, 893.555 935.183, 896.184 " />
            <path fill="none" stroke-width="3.0" stroke-linecap="butt" stroke-opacity="1.0" stroke="rgb(0, 0, 0)" stroke-linejoin="round" d=" M 935.183, 896.184 934.723, 898.794 934.133, 901.378 933.415, 903.928 932.571, 906.440 " />
            <path fill="none" stroke-width="3.0" stroke-linecap="butt" stroke-opacity="1.0" stroke="rgb(0, 0, 0)" stroke-linejoin="round" d=" M 932.571, 906.440 931.603, 908.907 930.513, 911.323 929.304, 913.681 927.979, 915.976 926.541, 918.202 924.995, 920.353 923.342, 922.425 921.589, 924.412 919.739, 926.309 " />
            <path fill="none" stroke-width="3.0" stroke-linecap="butt" stroke-opacity="1.0" stroke="rgb(0, 0, 0)" stroke-linejoin="round" d=" M 934.133, 875.148 934.723, 877.732 " />
            <path fill="none" stroke-width="3.0" stroke-linecap="butt" stroke-opacity="1.0" stroke="rgb(0, 0, 0)" stroke-linejoin="round" d=" M 934.723, 877.732 935.183, 880.342 " />
            <path fill="none" stroke-width="3.0" stroke-linecap="butt" stroke-opacity="1.0" stroke="rgb(0, 0, 0)" stroke-linejoin="round" d=" M 935.183, 880.342 935.512, 882.971 " />
            <path fill="none" stroke-width="3.0" stroke-linecap="butt" stroke-opacity="1.0" stroke="rgb(0, 0, 0)" stroke-linejoin="round" d=" M 917.796, 928.112 915.766, 929.815 913.654, 931.415 911.464, 932.908 909.203, 934.290 906.875, 935.557 904.488, 936.707 902.046, 937.736 899.556, 938.642 897.024, 939.424 894.456, 940.078 " />
            <path fill="none" stroke-width="3.0" stroke-linecap="butt" stroke-opacity="1.0" stroke="rgb(0, 0, 0)" stroke-linejoin="round" d=" M 829.548, 890.912 829.482, 888.263 " />
            <path fill="none" stroke-width="3.0" stroke-linecap="butt" stroke-opacity="1.0" stroke="rgb(0, 0, 0)" stroke-linejoin="round" d=" M 829.746, 893.555 829.548, 890.912 " />
            <path fill="none" stroke-width="3.0" stroke-linecap="butt" stroke-opacity="1.0" stroke="rgb(0, 0, 0)" stroke-linejoin="round" d=" M 860.771, 936.707 858.383, 935.557 " />
            <path fill="none" stroke-width="3.0" stroke-linecap="butt" stroke-opacity="1.0" stroke="rgb(0, 0, 0)" stroke-linejoin="round" d=" M 863.213, 937.736 860.771, 936.707 " />
            <path fill="none" stroke-width="3.0" stroke-linecap="butt" stroke-opacity="1.0" stroke="rgb(0, 0, 0)" stroke-linejoin="round" d=" M 865.703, 938.642 863.213, 937.736 " />
            <path fill="none" stroke-width="3.0" stroke-linecap="butt" stroke-opacity="1.0" stroke="rgb(0, 0, 0)" stroke-linejoin="round" d=" M 868.235, 939.424 865.703, 938.642 " />
            <path fill="none" stroke-width="3.0" stroke-linecap="butt" stroke-opacity="1.0" stroke="rgb(0, 0, 0)" stroke-linejoin="round" d=" M 891.858, 940.603 889.238, 940.998 " />
            <path fill="none" stroke-width="3.0" stroke-linecap="butt" stroke-opacity="1.0" stroke="rgb(0, 0, 0)" stroke-linejoin="round" d=" M 894.456, 940.078 891.858, 940.603 " />
            <path fill="none" stroke-width="3.0" stroke-linecap="butt" stroke-opacity="1.0" stroke="rgb(0, 0, 0)" stroke-linejoin="round" d=" M 919.739, 926.309 917.796, 928.112 " />
            <path fill="none" stroke-width="3.0" stroke-linecap="butt" stroke-opacity="1.0" stroke="rgb(0, 0, 0)" stroke-linejoin="round" d=" M 1563.589, 304.153 1558.770, 295.391 1553.951, 286.629 1549.132, 277.866 1544.314, 269.104 1539.495, 260.341 1534.676, 251.579 1529.857, 242.817 1525.038, 234.054 1520.220, 225.292 1515.401, 216.530 1510.582, 207.767 1505.763, 199.005 1500.944, 190.243 1496.125, 181.480 1491.307, 172.718 1486.488, 163.955 1481.669, 155.193 1476.850, 146.431 1472.031, 137.668 1467.213, 128.906 1462.394, 120.144 1457.901, 111.973 " />
            <path fill="none" stroke-width="3.0" stroke-linecap="butt" stroke-opacity="1.0" stroke="rgb(0, 0, 0)" stroke-linejoin="round" d=" M 1599.152, 413.234 1596.052, 403.726 1592.952, 394.219 1590.020, 385.225 " />
            <path fill="none" stroke-width="3.0" stroke-linecap="butt" stroke-opacity="1.0" stroke="rgb(0, 0, 0)" stroke-linejoin="round" d=" M 1767.886, 930.790 1764.787, 921.283 1761.687, 911.775 1758.587, 902.268 1755.488, 892.760 1752.388, 883.253 1749.288, 873.745 1746.189, 864.238 1743.089, 854.730 1739.990, 845.223 1736.890, 835.715 1733.790, 826.208 1730.691, 816.700 1727.591, 807.193 1724.491, 797.685 1721.392, 788.178 1718.292, 778.670 1715.192, 769.163 1712.093, 759.655 1708.993, 750.148 1705.893, 740.641 1702.794, 731.133 1699.694, 721.626 1696.594, 712.118 1693.495, 702.611 1690.395, 693.103 1687.295, 683.596 1684.196, 674.088 1681.096, 664.581 1677.997, 655.073 1674.897, 645.566 1671.797, 636.058 1668.698, 626.551 1665.598, 617.043 1662.498, 607.536 1659.399, 598.028 1656.299, 588.521 1653.199, 579.013 1650.100, 569.506 1647.000, 559.998 1643.900, 550.491 1640.801, 540.983 1637.701, 531.476 1634.601, 521.968 1631.502, 512.461 1628.402, 502.953 1625.302, 493.446 1622.203, 483.938 1619.103, 474.431 1616.004, 464.924 1612.904, 455.416 1609.804, 445.909 1606.705, 436.401 1603.605, 426.894 1599.152, 413.234 1596.052, 403.726 1592.952, 394.219 1589.853, 384.711 1586.753, 375.204 1583.653, 365.697 1580.554, 356.189 1577.454, 346.682 1574.354, 337.174 1571.255, 327.667 1568.155, 318.159 1565.055, 308.652 1563.589, 304.153 " />
            <path fill="none" stroke-width="3.0" stroke-linecap="butt" stroke-opacity="1.0" stroke="rgb(0, 0, 0)" stroke-linejoin="round" d=" M 1599.152, 413.234 1602.251, 422.741 1605.351, 432.249 1608.451, 441.756 1611.550, 451.264 1614.650, 460.771 1617.750, 470.279 1620.849, 479.786 1623.949, 489.294 1627.048, 498.801 1630.148, 508.309 1633.248, 517.816 1636.347, 527.324 1639.447, 536.831 1642.547, 546.339 1645.646, 555.846 1648.746, 565.354 1651.846, 574.861 1654.945, 584.369 1658.045, 593.876 1661.145, 603.384 1664.244, 612.891 1667.344, 622.398 1670.443, 631.906 1673.543, 641.413 1676.643, 650.921 1679.742, 660.428 1682.842, 669.936 1685.942, 679.443 1689.041, 688.951 1692.141, 698.458 1695.241, 707.966 1698.340, 717.473 1701.440, 726.981 1704.540, 736.488 1707.639, 745.996 1710.739, 755.503 1713.839, 765.011 1716.938, 774.518 1720.038, 784.026 1723.138, 793.533 1726.237, 803.041 1729.337, 812.548 1732.437, 822.056 1735.536, 831.563 1738.636, 841.071 1741.735, 850.578 1744.835, 860.086 1747.935, 869.593 1751.034, 879.100 1754.134, 888.608 1757.234, 898.115 1760.333, 907.623 1763.433, 917.130 1767.886, 930.790 " />
        </g>
    </g>
<g id="slice-labels"><text x="494.39349999999996" y="612.005" text-anchor="middle" dominant-baseline="middle" font-family="Arial, sans-serif" font-size="59.05238230553689" font-weight="bold" fill="black" stroke="none" stroke-width="7.086285876664425" paint-order="stroke fill">Slice52 (Front)</text><text x="1435.6065" y="612.005" text-anchor="middle" dominant-baseline="middle" font-family="Arial, sans-serif" font-size="59.05238230553689" font-weight="bold" fill="black" stroke="none" stroke-width="7.086285876664425" paint-order="stroke fill">Slice52 (Front)</text></g></svg>