<?xml version='1.0' encoding='utf-8'?>
<svg xmlns="http://www.w3.org/2000/svg" xmlns:inkscape="http://www.inkscape.org/namespaces/inkscape" version="1.1" width="175.32455110549927mm" height="129.97745656967163mm" viewBox="0.24151304446050048 0.0055201261989914485 2070.537973911079 1534.999959747602" preserveAspectRatio="none">
    <g id="ViewLayer_LineSet" inkscape:groupmode="lineset" inkscape:label="ViewLayer_LineSet">
        <g inkscape:groupmode="layer" id="strokes" inkscape:label="strokes">
            <path fill="none" stroke-width="3.0" stroke-linecap="butt" stroke-opacity="1.0" stroke="rgb(0, 0, 0)" stroke-linejoin="round" d=" M 1354.904, 391.232 1352.385, 393.814 1349.741, 396.268 1346.978, 398.586 1344.103, 400.763 1341.123, 402.795 1338.046, 404.676 1334.878, 406.401 1331.629, 407.965 1328.305, 409.367 1324.916, 410.600 1321.469, 411.663 1317.974, 412.553 1314.439, 413.268 1310.872, 413.806 1307.284, 414.165 1303.682, 414.344 1300.075, 414.344 1296.473, 414.165 1292.884, 413.806 1289.318, 413.268 1285.782, 412.553 1282.287, 411.663 1278.841, 410.600 1275.452, 409.367 1272.128, 407.965 1268.879, 406.401 1265.711, 404.676 1262.633, 402.795 1259.653, 400.763 1256.778, 398.586 1254.015, 396.268 1251.371, 393.814 1248.853, 391.232 1246.467, 388.528 1244.218, 385.708 1242.113, 382.780 1240.156, 379.750 1238.353, 376.626 1236.707, 373.417 1235.224, 370.129 1233.906, 366.772 1232.757, 363.353 1231.781, 359.881 1230.978, 356.365 1230.352, 352.813 1229.903, 349.234 1229.634, 345.638 1229.544, 342.032 1229.634, 338.426 1229.903, 334.830 1230.352, 331.251 1230.978, 327.699 1231.781, 324.183 1232.757, 320.711 1233.906, 317.292 1235.224, 313.934 1236.707, 310.647 1238.353, 307.438 1240.156, 304.314 1242.113, 301.284 1244.218, 298.357 1246.467, 295.537 1248.853, 292.832 1251.371, 290.250 1254.015, 287.797 1256.778, 285.478 1259.653, 283.301 1262.633, 281.269 1265.711, 279.388 1268.879, 277.664 1272.128, 276.099 1275.452, 274.698 1278.841, 273.464 1282.287, 272.401 1285.782, 271.511 1289.318, 270.796 1292.884, 270.258 1296.473, 269.899 1300.075, 269.720 1303.682, 269.720 1307.284, 269.899 1310.872, 270.258 1314.439, 270.796 1317.974, 271.511 1321.469, 272.401 1324.916, 273.464 1328.305, 274.698 1331.629, 276.099 1334.878, 277.664 1338.046, 279.388 1341.123, 281.269 1344.103, 283.301 1346.978, 285.478 1349.741, 287.797 1352.385, 290.250 1354.904, 292.832 1357.290, 295.537 1359.539, 298.357 1361.644, 301.284 1363.601, 304.314 1365.404, 307.438 1367.049, 310.647 1368.533, 313.934 1369.851, 317.292 1370.999, 320.711 1371.976, 324.183 1372.779, 327.699 1373.405, 331.251 1373.854, 334.830 1374.123, 338.426 1374.213, 342.032 1374.123, 345.638 1373.854, 349.234 1373.405, 352.813 1372.779, 356.365 1371.976, 359.881 1370.999, 363.353 1369.851, 366.772 1368.533, 370.129 1367.049, 373.417 1365.404, 376.626 1363.601, 379.750 1361.644, 382.780 1359.539, 385.708 1357.290, 388.528 1354.904, 391.232 " />
            <path fill="none" stroke-width="3.0" stroke-linecap="butt" stroke-opacity="1.0" stroke="rgb(0, 0, 0)" stroke-linejoin="round" d=" M 1867.656, 805.906 1868.957, 795.991 1870.258, 786.076 1871.560, 776.161 1872.861, 766.247 1874.163, 756.332 1875.464, 746.417 1876.765, 736.502 1878.067, 726.587 1879.368, 716.672 1880.669, 706.757 1881.971, 696.842 1883.272, 686.927 1884.574, 677.012 1885.875, 667.097 1887.176, 657.182 1888.478, 647.267 1889.779, 637.352 1891.080, 627.437 1892.382, 617.522 1893.683, 607.607 1894.985, 597.692 1896.286, 587.777 1897.587, 577.862 1898.889, 567.947 1900.190, 558.032 1901.491, 548.117 1902.793, 538.202 1904.094, 528.287 1905.396, 518.372 1906.697, 508.458 1907.998, 498.543 1909.300, 488.628 1910.601, 478.713 1911.902, 468.798 1912.690, 462.800 " />
            <path fill="none" stroke-width="3.0" stroke-linecap="butt" stroke-opacity="1.0" stroke="rgb(0, 0, 0)" stroke-linejoin="round" d=" M 1912.690, 462.800 1915.407, 453.176 1918.125, 443.552 1920.843, 433.929 1923.561, 424.305 1926.279, 414.682 1928.996, 405.058 1931.714, 395.434 1934.432, 385.811 1937.150, 376.187 1939.867, 366.564 1942.585, 356.940 1945.303, 347.316 1948.021, 337.693 1950.739, 328.069 1953.456, 318.446 1956.174, 308.822 1958.892, 299.198 1961.610, 289.575 1964.327, 279.951 1967.045, 270.328 1969.763, 260.704 1972.481, 251.080 1975.198, 241.457 1977.916, 231.833 1980.634, 222.210 1983.352, 212.586 1986.070, 202.962 1988.787, 193.339 1991.505, 183.715 1994.223, 174.092 1996.941, 164.468 1999.658, 154.844 2002.376, 145.221 2005.094, 135.597 2007.812, 125.974 2010.529, 116.350 2013.247, 106.726 2015.965, 97.103 2018.683, 87.479 2021.401, 77.856 2024.118, 68.232 2026.641, 59.299 " />
            <path fill="none" stroke-width="3.0" stroke-linecap="butt" stroke-opacity="1.0" stroke="rgb(0, 0, 0)" stroke-linejoin="round" d=" M 1011.991, 640.819 1010.901, 643.235 1009.692, 645.592 1008.367, 647.888 1006.929, 650.114 1005.382, 652.265 1003.730, 654.336 1001.977, 656.324 1000.127, 658.221 998.184, 660.023 996.155, 661.725 994.042, 663.326 " />
            <path fill="none" stroke-width="3.0" stroke-linecap="butt" stroke-opacity="1.0" stroke="rgb(0, 0, 0)" stroke-linejoin="round" d=" M 1611.663, 1511.386 1616.696, 1502.745 1621.729, 1494.104 1626.762, 1485.463 1631.796, 1476.822 1636.829, 1468.181 1641.862, 1459.540 1646.895, 1450.899 1651.929, 1442.258 1656.962, 1433.617 1661.995, 1424.976 1667.028, 1416.335 1672.061, 1407.694 1677.095, 1399.053 1682.128, 1390.412 1687.161, 1381.771 1688.763, 1379.021 1691.743, 1369.475 1694.722, 1359.929 1697.702, 1350.384 1700.682, 1340.838 1703.661, 1331.292 1706.641, 1321.746 1709.620, 1312.200 1712.600, 1302.655 1715.580, 1293.109 1718.559, 1283.563 1721.539, 1274.017 1724.519, 1264.472 1727.498, 1254.926 1730.478, 1245.380 1733.458, 1235.834 1736.437, 1226.288 1739.417, 1216.743 1742.396, 1207.197 1745.376, 1197.651 1748.356, 1188.105 1751.335, 1178.560 1754.315, 1169.014 1757.295, 1159.468 1760.274, 1149.922 1763.254, 1140.377 1766.233, 1130.831 1769.213, 1121.285 1772.193, 1111.739 1775.172, 1102.193 1778.152, 1092.648 1781.132, 1083.102 1784.111, 1073.556 1787.091, 1064.010 1790.070, 1054.465 1793.050, 1044.919 1796.030, 1035.373 1799.009, 1025.827 1801.989, 1016.281 1804.969, 1006.736 1807.948, 997.190 1810.928, 987.644 1813.907, 978.098 1816.887, 968.553 1819.867, 959.007 1822.846, 949.461 1825.826, 939.915 1828.806, 930.370 1831.785, 920.824 1834.765, 911.278 1837.745, 901.732 1840.724, 892.186 1843.704, 882.641 1846.683, 873.095 1849.663, 863.549 1852.643, 854.003 1855.622, 844.458 1858.602, 834.912 1861.582, 825.366 1864.561, 815.820 1867.656, 805.906 " />
            <path fill="none" stroke-width="3.0" stroke-linecap="butt" stroke-opacity="1.0" stroke="rgb(0, 0, 0)" stroke-linejoin="round" d=" M 991.853, 664.818 989.592, 666.200 987.265, 667.468 984.877, 668.617 982.435, 669.647 979.945, 670.553 " />
            <path fill="none" stroke-width="3.0" stroke-linecap="butt" stroke-opacity="1.0" stroke="rgb(0, 0, 0)" stroke-linejoin="round" d=" M 1014.521, 633.290 1013.802, 635.841 1012.959, 638.353 1011.991, 640.819 " />
            <path fill="none" stroke-width="3.0" stroke-linecap="butt" stroke-opacity="1.0" stroke="rgb(0, 0, 0)" stroke-linejoin="round" d=" M 1015.570, 612.256 1015.900, 614.885 1016.098, 617.527 1016.163, 620.176 1016.098, 622.825 1015.900, 625.467 1015.570, 628.097 1015.110, 630.707 1014.521, 633.290 " />
            <path fill="none" stroke-width="3.0" stroke-linecap="butt" stroke-opacity="1.0" stroke="rgb(0, 0, 0)" stroke-linejoin="round" d=" M 998.184, 580.330 1000.127, 582.132 1001.977, 584.030 1003.730, 586.017 1005.382, 588.088 1006.929, 590.239 1008.367, 592.465 1009.692, 594.761 1010.901, 597.118 1011.991, 599.534 1012.959, 602.000 1013.802, 604.512 1014.521, 607.062 1015.110, 609.646 1015.570, 612.256 " />
            <path fill="none" stroke-width="3.0" stroke-linecap="butt" stroke-opacity="1.0" stroke="rgb(0, 0, 0)" stroke-linejoin="round" d=" M 2026.641, 59.299 2031.627, 50.631 2036.613, 41.962 2041.598, 33.294 2046.584, 24.625 2047.160, 23.625 2037.160, 23.625 2027.160, 23.625 2017.160, 23.625 2007.160, 23.625 1997.160, 23.625 1987.160, 23.625 1977.160, 23.625 1967.160, 23.625 1957.160, 23.625 1947.160, 23.625 1937.160, 23.625 1927.160, 23.625 1917.160, 23.625 1907.160, 23.625 1897.160, 23.625 1887.160, 23.625 1877.160, 23.625 1867.160, 23.625 1857.160, 23.625 1847.160, 23.625 1837.160, 23.625 1827.160, 23.625 1817.160, 23.625 1807.160, 23.625 1797.160, 23.625 1787.160, 23.625 1777.160, 23.625 1767.160, 23.625 1763.767, 23.625 1761.434, 23.625 1759.236, 23.625 1757.180, 23.625 1755.274, 23.625 1745.274, 23.625 1735.274, 23.625 1725.274, 23.625 1715.274, 23.625 1705.274, 23.625 1695.274, 23.625 1685.274, 23.625 1675.274, 23.625 1665.274, 23.625 1655.274, 23.625 1645.274, 23.625 1635.274, 23.625 1625.274, 23.625 1615.274, 23.625 1605.274, 23.625 1602.926, 23.625 1600.398, 23.625 1590.398, 23.625 1580.398, 23.625 1570.398, 23.625 1560.398, 23.625 1550.398, 23.625 1540.398, 23.625 1530.398, 23.625 1520.398, 23.625 1510.398, 23.625 1500.398, 23.625 1490.398, 23.625 1480.398, 23.625 1470.398, 23.625 1460.398, 23.625 1450.398, 23.625 1440.398, 23.625 1430.398, 23.625 1420.398, 23.625 1410.398, 23.625 1400.398, 23.625 1390.398, 23.625 1380.398, 23.625 1370.398, 23.625 1360.398, 23.625 1350.398, 23.625 1340.398, 23.625 1330.398, 23.625 1320.398, 23.625 1310.398, 23.625 1300.398, 23.625 1290.398, 23.625 1280.398, 23.625 1270.398, 23.625 1260.398, 23.625 1250.398, 23.625 1240.398, 23.625 1230.398, 23.625 1220.398, 23.625 1210.398, 23.625 1200.398, 23.625 1190.398, 23.625 1180.398, 23.625 1170.398, 23.625 1160.398, 23.625 1150.398, 23.625 1140.398, 23.625 1130.398, 23.625 1120.398, 23.625 1110.398, 23.625 1100.398, 23.625 1085.345, 23.625 1082.340, 23.625 1079.222, 23.625 1076.000, 23.625 1072.685, 23.625 1062.685, 23.625 1052.685, 23.625 1042.685, 23.625 1032.685, 23.625 1022.685, 23.625 1012.685, 23.625 1002.685, 23.625 992.685, 23.625 982.685, 23.625 972.685, 23.625 962.685, 23.625 952.685, 23.625 942.685, 23.625 932.685, 23.625 922.685, 23.625 912.685, 23.625 902.685, 23.625 892.685, 23.625 882.685, 23.625 872.685, 23.625 862.685, 23.625 852.685, 23.625 842.685, 23.625 832.685, 23.625 822.685, 23.625 812.685, 23.625 802.685, 23.625 792.685, 23.625 782.685, 23.625 772.685, 23.625 762.685, 23.625 752.685, 23.625 742.685, 23.625 732.685, 23.625 722.685, 23.625 712.685, 23.625 702.685, 23.625 692.685, 23.625 682.685, 23.625 672.685, 23.625 662.685, 23.625 655.847, 23.625 652.365, 23.625 642.365, 23.625 632.365, 23.625 622.365, 23.625 612.365, 23.625 602.365, 23.625 595.680, 23.625 592.642, 23.625 589.405, 23.625 579.405, 23.625 569.405, 23.625 559.405, 23.625 549.405, 23.625 539.405, 23.625 529.405, 23.625 519.405, 23.625 509.405, 23.625 499.405, 23.625 489.405, 23.625 479.405, 23.625 474.830, 23.625 472.821, 23.625 470.618, 23.625 468.228, 23.625 465.662, 23.625 462.930, 23.625 460.044, 23.625 457.018, 23.625 453.865, 23.625 450.599, 23.625 447.235, 23.625 443.788, 23.625 440.274, 23.625 436.709, 23.625 433.107, 23.625 429.484, 23.625 425.856, 23.625 422.236, 23.625 418.640, 23.625 415.080, 23.625 411.568, 23.625 408.118, 23.625 404.740, 23.625 401.443, 23.625 398.239, 23.625 395.134, 23.625 392.138, 23.625 389.256, 23.625 379.256, 23.625 369.256, 23.625 359.256, 23.625 349.256, 23.625 339.256, 23.625 329.256, 23.625 319.256, 23.625 309.256, 23.625 299.256, 23.625 289.256, 23.625 279.256, 23.625 269.256, 23.625 259.256, 23.625 249.256, 23.625 239.256, 23.625 229.256, 23.625 219.256, 23.625 209.256, 23.625 199.256, 23.625 189.256, 23.625 179.256, 23.625 174.534, 23.625 " />
            <path fill="none" stroke-width="3.0" stroke-linecap="butt" stroke-opacity="1.0" stroke="rgb(0, 0, 0)" stroke-linejoin="round" d=" M 996.155, 578.627 998.184, 580.330 " />
            <path fill="none" stroke-width="3.0" stroke-linecap="butt" stroke-opacity="1.0" stroke="rgb(0, 0, 0)" stroke-linejoin="round" d=" M 984.877, 571.735 987.265, 572.885 989.592, 574.153 991.853, 575.535 994.042, 577.027 996.155, 578.627 " />
            <path fill="none" stroke-width="3.0" stroke-linecap="butt" stroke-opacity="1.0" stroke="rgb(0, 0, 0)" stroke-linejoin="round" d=" M 1126.623, 1511.367 1136.623, 1511.367 1146.623, 1511.368 1156.623, 1511.368 1166.623, 1511.368 1176.623, 1511.369 1186.623, 1511.369 1196.623, 1511.370 1206.623, 1511.370 1216.623, 1511.370 1226.623, 1511.371 1236.623, 1511.371 1246.623, 1511.372 1256.623, 1511.372 1266.623, 1511.372 1276.623, 1511.373 1286.623, 1511.373 1296.623, 1511.373 1306.623, 1511.374 1316.623, 1511.374 1326.623, 1511.375 1336.623, 1511.375 1346.623, 1511.375 1356.623, 1511.376 1366.623, 1511.376 1376.623, 1511.377 1386.623, 1511.377 1396.623, 1511.377 1406.623, 1511.378 1416.623, 1511.378 1426.623, 1511.379 1436.623, 1511.379 1446.623, 1511.379 1456.623, 1511.380 1466.623, 1511.380 1476.623, 1511.381 1486.623, 1511.381 1496.623, 1511.381 1506.623, 1511.382 1516.623, 1511.382 1526.623, 1511.382 1536.623, 1511.383 1546.623, 1511.383 1556.623, 1511.384 1566.623, 1511.384 1576.623, 1511.384 1586.623, 1511.385 1596.623, 1511.385 1606.623, 1511.386 1611.663, 1511.386 " />
            <path fill="none" stroke-width="3.0" stroke-linecap="butt" stroke-opacity="1.0" stroke="rgb(0, 0, 0)" stroke-linejoin="round" d=" M 1116.446, 1511.366 1116.930, 1511.366 1118.557, 1511.367 1118.789, 1511.367 1119.005, 1511.367 1120.326, 1511.367 1120.429, 1511.367 1121.560, 1511.367 1121.732, 1511.367 1124.101, 1511.367 1126.623, 1511.367 " />
            <path fill="none" stroke-width="3.0" stroke-linecap="butt" stroke-opacity="1.0" stroke="rgb(0, 0, 0)" stroke-linejoin="round" d=" M 1060.193, 1511.364 1061.974, 1511.365 1062.224, 1511.365 1062.483, 1511.365 1062.713, 1511.365 1064.145, 1511.365 1065.275, 1511.365 1065.733, 1511.365 1067.295, 1511.365 1067.869, 1511.365 1070.488, 1511.365 1073.122, 1511.365 1075.764, 1511.365 1085.764, 1511.365 1093.448, 1511.365 1103.448, 1511.366 1113.448, 1511.366 1116.446, 1511.366 " />
            <path fill="none" stroke-width="3.0" stroke-linecap="butt" stroke-opacity="1.0" stroke="rgb(0, 0, 0)" stroke-linejoin="round" d=" M 974.845, 671.988 972.248, 672.513 969.628, 672.908 966.991, 673.172 964.345, 673.303 961.695, 673.303 959.048, 673.172 956.412, 672.908 953.792, 672.513 951.194, 671.988 948.626, 671.334 946.094, 670.553 943.604, 669.647 941.163, 668.617 938.775, 667.468 936.448, 666.200 934.187, 664.818 931.997, 663.326 929.885, 661.725 927.856, 660.023 925.913, 658.221 924.062, 656.324 922.309, 654.336 920.657, 652.265 919.110, 650.114 917.672, 647.888 916.348, 645.592 915.139, 643.235 914.049, 640.819 913.081, 638.353 912.237, 635.841 911.519, 633.290 910.930, 630.707 910.469, 628.097 " />
            <path fill="none" stroke-width="3.0" stroke-linecap="butt" stroke-opacity="1.0" stroke="rgb(0, 0, 0)" stroke-linejoin="round" d=" M 934.187, 575.535 936.448, 574.153 938.775, 572.885 941.163, 571.735 943.604, 570.706 946.094, 569.800 948.626, 569.019 951.194, 568.365 953.792, 567.839 956.412, 567.444 959.048, 567.181 961.695, 567.049 964.345, 567.049 966.991, 567.181 969.628, 567.444 972.248, 567.839 974.845, 568.365 977.413, 569.019 979.945, 569.800 982.435, 570.706 984.877, 571.735 " />
            <path fill="none" stroke-width="3.0" stroke-linecap="butt" stroke-opacity="1.0" stroke="rgb(0, 0, 0)" stroke-linejoin="round" d=" M 450.344, 1511.341 460.344, 1511.341 470.344, 1511.342 480.344, 1511.342 490.344, 1511.342 500.344, 1511.343 510.344, 1511.343 520.344, 1511.343 530.344, 1511.344 540.344, 1511.344 550.344, 1511.345 560.344, 1511.345 570.344, 1511.345 580.344, 1511.346 590.344, 1511.346 600.344, 1511.347 610.344, 1511.347 620.344, 1511.347 630.344, 1511.348 640.344, 1511.348 650.344, 1511.348 660.344, 1511.349 670.344, 1511.349 680.344, 1511.350 690.344, 1511.350 700.344, 1511.350 710.344, 1511.351 720.344, 1511.351 730.344, 1511.352 740.344, 1511.352 750.344, 1511.352 760.344, 1511.353 770.344, 1511.353 780.344, 1511.353 790.344, 1511.354 800.344, 1511.354 810.344, 1511.355 820.344, 1511.355 830.344, 1511.355 840.344, 1511.356 850.344, 1511.356 860.344, 1511.357 870.344, 1511.357 880.344, 1511.357 890.344, 1511.358 900.344, 1511.358 910.344, 1511.358 920.344, 1511.359 930.344, 1511.359 940.344, 1511.360 950.344, 1511.360 960.344, 1511.360 970.344, 1511.361 980.344, 1511.361 990.344, 1511.362 1000.344, 1511.362 1010.344, 1511.362 1020.344, 1511.363 1030.344, 1511.363 1040.344, 1511.363 1055.310, 1511.364 1057.722, 1511.364 1060.193, 1511.364 " />
            <path fill="none" stroke-width="3.0" stroke-linecap="butt" stroke-opacity="1.0" stroke="rgb(0, 0, 0)" stroke-linejoin="round" d=" M 111.857, 1018.492 110.468, 1028.395 109.079, 1038.298 107.689, 1048.201 106.300, 1058.104 104.911, 1068.007 103.521, 1077.910 102.132, 1087.813 100.743, 1097.716 99.353, 1107.619 97.964, 1117.522 96.575, 1127.425 95.185, 1137.328 93.796, 1147.231 92.406, 1157.134 91.017, 1167.038 89.628, 1176.941 88.238, 1186.844 86.849, 1196.747 85.460, 1206.650 84.070, 1216.553 82.681, 1226.456 81.292, 1236.359 79.902, 1246.262 78.513, 1256.165 77.123, 1266.068 75.734, 1275.971 74.345, 1285.874 72.955, 1295.777 71.566, 1305.680 70.177, 1315.583 68.787, 1325.486 67.398, 1335.389 66.345, 1342.893 63.899, 1352.589 61.454, 1362.286 59.008, 1371.982 56.562, 1381.678 54.116, 1391.375 51.671, 1401.071 49.225, 1410.767 46.779, 1420.464 44.333, 1430.160 41.888, 1439.856 39.442, 1449.552 36.996, 1459.249 34.551, 1468.945 32.105, 1478.641 29.659, 1488.338 27.213, 1498.034 24.768, 1507.730 23.861, 1511.325 " />
            <path fill="none" stroke-width="3.0" stroke-linecap="butt" stroke-opacity="1.0" stroke="rgb(0, 0, 0)" stroke-linejoin="round" d=" M 909.942, 622.825 909.876, 620.176 909.942, 617.527 910.140, 614.885 910.469, 612.256 910.930, 609.646 911.519, 607.062 912.237, 604.512 913.081, 602.000 914.049, 599.534 915.139, 597.118 916.348, 594.761 917.672, 592.465 " />
            <path fill="none" stroke-width="3.0" stroke-linecap="butt" stroke-opacity="1.0" stroke="rgb(0, 0, 0)" stroke-linejoin="round" d=" M 917.672, 592.465 919.110, 590.239 920.657, 588.088 922.309, 586.017 924.062, 584.030 925.913, 582.132 927.856, 580.330 929.885, 578.627 931.997, 577.027 934.187, 575.535 " />
            <path fill="none" stroke-width="3.0" stroke-linecap="butt" stroke-opacity="1.0" stroke="rgb(0, 0, 0)" stroke-linejoin="round" d=" M 166.011, 710.025 164.297, 719.877 162.584, 729.729 160.870, 739.581 159.156, 749.433 157.443, 759.285 155.729, 769.137 154.015, 778.989 152.302, 788.841 150.588, 798.693 148.874, 808.545 147.161, 818.397 145.447, 828.249 143.733, 838.102 142.020, 847.954 140.306, 857.806 138.592, 867.658 136.879, 877.510 135.517, 885.335 135.820, 895.331 136.123, 905.326 136.426, 915.322 136.729, 925.317 137.032, 935.312 137.335, 945.308 137.654, 955.826 133.847, 965.073 130.041, 974.320 126.234, 983.567 122.428, 992.814 118.621, 1002.061 114.815, 1011.309 111.857, 1018.492 " />
            <path fill="none" stroke-width="3.0" stroke-linecap="butt" stroke-opacity="1.0" stroke="rgb(0, 0, 0)" stroke-linejoin="round" d=" M 174.534, 23.625 172.982, 33.504 171.429, 43.382 169.877, 53.261 168.324, 63.140 166.772, 73.019 165.219, 82.897 163.667, 92.776 162.115, 102.655 160.562, 112.534 159.010, 122.412 157.457, 132.291 155.905, 142.170 154.352, 152.049 152.800, 161.927 151.248, 171.806 149.695, 181.685 148.143, 191.564 146.590, 201.443 145.038, 211.321 143.485, 221.200 141.933, 231.079 140.381, 240.958 138.828, 250.836 137.276, 260.715 135.723, 270.594 134.171, 280.473 132.618, 290.351 131.066, 300.230 129.513, 310.109 127.961, 319.988 126.409, 329.866 124.856, 339.745 123.304, 349.624 121.751, 359.503 120.199, 369.381 118.646, 379.260 117.094, 389.139 115.542, 399.018 113.989, 408.896 112.437, 418.775 110.884, 428.654 109.051, 440.320 111.117, 450.104 113.184, 459.888 115.250, 469.673 117.316, 479.457 119.383, 489.241 121.449, 499.025 123.516, 508.809 125.582, 518.594 127.648, 528.378 129.715, 538.162 131.781, 547.946 133.847, 557.730 135.914, 567.514 137.980, 577.299 140.046, 587.083 142.113, 596.867 144.179, 606.651 146.246, 616.435 148.312, 626.219 150.378, 636.004 152.445, 645.788 154.511, 655.572 156.577, 665.356 158.644, 675.140 160.710, 684.925 162.776, 694.709 164.843, 704.493 166.011, 710.025 " />
            <path fill="none" stroke-width="3.0" stroke-linecap="butt" stroke-opacity="1.0" stroke="rgb(0, 0, 0)" stroke-linejoin="round" d=" M 649.072, 871.976 646.554, 874.558 643.910, 877.012 641.147, 879.330 638.272, 881.507 635.292, 883.539 632.214, 885.420 629.047, 887.144 625.797, 888.709 622.474, 890.111 619.085, 891.344 615.638, 892.407 612.143, 893.297 608.608, 894.012 605.041, 894.550 601.453, 894.909 597.850, 895.087 594.244, 895.087 590.641, 894.909 587.053, 894.550 583.486, 894.012 579.951, 893.297 576.456, 892.407 573.009, 891.344 569.620, 890.111 566.297, 888.709 563.047, 887.144 559.880, 885.420 556.802, 883.539 553.822, 881.507 550.947, 879.330 548.184, 877.012 545.540, 874.558 543.022, 871.976 540.636, 869.271 538.387, 866.451 536.281, 863.524 534.325, 860.494 532.521, 857.370 530.876, 854.161 529.392, 850.873 528.075, 847.516 526.926, 844.097 525.949, 840.625 525.146, 837.109 524.520, 833.557 524.072, 829.978 523.802, 826.382 523.712, 822.776 523.802, 819.170 524.072, 815.574 524.520, 811.995 525.146, 808.443 525.949, 804.926 526.926, 801.455 528.075, 798.036 529.392, 794.678 530.876, 791.391 532.521, 788.182 534.325, 785.058 536.281, 782.028 538.387, 779.100 540.636, 776.280 543.022, 773.576 545.540, 770.994 548.184, 768.540 550.947, 766.222 553.822, 764.044 556.802, 762.013 559.880, 760.132 563.047, 758.408 566.297, 756.842 569.620, 755.441 573.009, 754.208 576.456, 753.144 579.951, 752.255 583.486, 751.540 587.053, 751.002 590.641, 750.643 594.244, 750.464 597.850, 750.464 601.453, 750.643 605.041, 751.002 608.608, 751.540 612.143, 752.255 615.638, 753.144 619.085, 754.208 622.474, 755.441 625.797, 756.842 629.047, 758.408 632.214, 760.132 635.292, 762.013 638.272, 764.044 641.147, 766.222 643.910, 768.540 646.554, 770.994 649.072, 773.576 651.459, 776.280 653.708, 779.100 655.813, 782.028 657.770, 785.058 659.573, 788.182 661.218, 791.391 662.701, 794.678 664.019, 798.036 665.168, 801.455 666.145, 804.926 666.948, 808.443 667.574, 811.995 668.022, 815.574 668.292, 819.170 668.382, 822.776 668.292, 826.382 668.022, 829.978 667.574, 833.557 666.948, 837.109 666.145, 840.625 665.168, 844.097 664.019, 847.516 662.701, 850.873 661.218, 854.161 659.573, 857.370 657.770, 860.494 655.813, 863.524 653.708, 866.451 651.459, 869.271 649.072, 871.976 " />
            <path fill="none" stroke-width="3.0" stroke-linecap="butt" stroke-opacity="1.0" stroke="rgb(0, 0, 0)" stroke-linejoin="round" d=" M 764.417, 391.232 761.898, 393.814 759.254, 396.268 756.491, 398.586 753.616, 400.763 750.636, 402.795 747.558, 404.676 744.391, 406.401 741.142, 407.965 737.818, 409.367 734.429, 410.600 730.982, 411.663 727.487, 412.553 723.952, 413.268 720.386, 413.806 716.797, 414.165 713.195, 414.344 709.588, 414.344 705.986, 414.165 702.397, 413.806 698.830, 413.268 695.295, 412.553 691.800, 411.663 688.354, 410.600 684.965, 409.367 681.641, 407.965 678.391, 406.401 675.224, 404.676 672.146, 402.795 669.166, 400.763 666.291, 398.586 663.529, 396.268 660.884, 393.814 658.366, 391.232 655.980, 388.528 653.731, 385.708 651.626, 382.780 649.669, 379.750 647.866, 376.626 646.220, 373.417 644.737, 370.129 643.419, 366.772 642.270, 363.353 641.293, 359.881 640.491, 356.365 639.865, 352.813 639.416, 349.234 639.147, 345.638 639.057, 342.032 639.147, 338.426 639.416, 334.830 639.865, 331.251 640.491, 327.699 641.293, 324.183 642.270, 320.711 643.419, 317.292 644.737, 313.934 646.220, 310.647 647.866, 307.438 649.669, 304.314 651.626, 301.284 653.731, 298.357 655.980, 295.537 658.366, 292.832 660.884, 290.250 663.529, 287.797 666.291, 285.478 669.166, 283.301 672.146, 281.269 675.224, 279.388 678.391, 277.664 681.641, 276.099 684.965, 274.698 688.354, 273.464 691.800, 272.401 695.295, 271.511 698.830, 270.796 702.397, 270.258 705.986, 269.899 709.588, 269.720 713.195, 269.720 716.797, 269.899 720.386, 270.258 723.952, 270.796 727.487, 271.511 730.982, 272.401 734.429, 273.464 737.818, 274.698 741.142, 276.099 744.391, 277.664 747.558, 279.388 750.636, 281.269 753.616, 283.301 756.491, 285.478 759.254, 287.797 761.898, 290.250 764.417, 292.832 766.803, 295.537 769.052, 298.357 771.157, 301.284 773.114, 304.314 774.917, 307.438 776.563, 310.647 778.046, 313.934 779.364, 317.292 780.512, 320.711 781.489, 324.183 782.292, 327.699 782.918, 331.251 783.367, 334.830 783.636, 338.426 783.726, 342.032 783.636, 345.638 783.367, 349.234 782.918, 352.813 782.292, 356.365 781.489, 359.881 780.512, 363.353 779.364, 366.772 778.046, 370.129 776.563, 373.417 774.917, 376.626 773.114, 379.750 771.157, 382.780 769.052, 385.708 766.803, 388.528 764.417, 391.232 " />
            <path fill="none" stroke-width="3.0" stroke-linecap="butt" stroke-opacity="1.0" stroke="rgb(0, 0, 0)" stroke-linejoin="round" d=" M 1119.005, 1511.367 1129.005, 1511.367 1139.005, 1511.368 1149.005, 1511.368 1159.005, 1511.368 1169.005, 1511.369 1179.005, 1511.369 1189.005, 1511.370 1199.005, 1511.370 1209.005, 1511.370 1219.005, 1511.371 1229.005, 1511.371 1239.005, 1511.371 1249.005, 1511.372 1259.005, 1511.372 1269.005, 1511.373 1279.005, 1511.373 1289.005, 1511.373 1299.005, 1511.374 1309.005, 1511.374 1319.005, 1511.375 1329.005, 1511.375 1339.005, 1511.375 1349.005, 1511.376 1359.005, 1511.376 1369.005, 1511.376 1379.005, 1511.377 1389.005, 1511.377 1399.005, 1511.378 1409.005, 1511.378 1419.005, 1511.378 1429.005, 1511.379 1439.005, 1511.379 1449.005, 1511.380 1459.005, 1511.380 1469.005, 1511.380 1479.005, 1511.381 1489.005, 1511.381 1499.005, 1511.381 1509.005, 1511.382 1519.005, 1511.382 1529.005, 1511.383 1539.005, 1511.383 1549.005, 1511.383 1559.005, 1511.384 1569.005, 1511.384 1579.005, 1511.385 1589.005, 1511.385 1599.005, 1511.385 1611.663, 1511.386 " />
            <path fill="none" stroke-width="3.0" stroke-linecap="butt" stroke-opacity="1.0" stroke="rgb(0, 0, 0)" stroke-linejoin="round" d=" M 1120.429, 1511.367 1130.429, 1511.367 1140.429, 1511.368 1150.429, 1511.368 1160.429, 1511.368 1170.429, 1511.369 1180.429, 1511.369 1190.429, 1511.370 1200.429, 1511.370 1210.429, 1511.370 1220.429, 1511.371 1230.429, 1511.371 1240.429, 1511.371 1250.429, 1511.372 1260.429, 1511.372 1270.429, 1511.373 1280.429, 1511.373 1290.429, 1511.373 1300.430, 1511.374 1310.430, 1511.374 1320.430, 1511.375 1330.430, 1511.375 1340.430, 1511.375 1350.429, 1511.376 1360.429, 1511.376 1370.430, 1511.376 1380.429, 1511.377 1390.430, 1511.377 1400.429, 1511.378 1410.430, 1511.378 1420.429, 1511.378 1430.430, 1511.379 1440.429, 1511.379 1450.430, 1511.380 1460.429, 1511.380 1470.430, 1511.380 1480.430, 1511.381 1490.429, 1511.381 1500.430, 1511.382 1510.429, 1511.382 1520.430, 1511.382 1530.429, 1511.383 1540.430, 1511.383 1550.429, 1511.383 1560.430, 1511.384 1570.429, 1511.384 1580.430, 1511.385 1590.429, 1511.385 1600.430, 1511.385 1611.663, 1511.386 " />
            <path fill="none" stroke-width="3.0" stroke-linecap="butt" stroke-opacity="1.0" stroke="rgb(0, 0, 0)" stroke-linejoin="round" d=" M 1062.713, 1511.365 1072.713, 1511.365 1082.713, 1511.365 1092.713, 1511.366 1102.713, 1511.366 1112.713, 1511.367 1122.713, 1511.367 1132.713, 1511.367 1142.713, 1511.368 1152.713, 1511.368 1162.713, 1511.369 1172.713, 1511.369 1182.713, 1511.369 1192.713, 1511.370 1202.713, 1511.370 1212.713, 1511.370 1222.713, 1511.371 1232.713, 1511.371 1242.713, 1511.372 1252.713, 1511.372 1262.713, 1511.372 1272.713, 1511.373 1282.713, 1511.373 1292.713, 1511.374 1302.713, 1511.374 1312.713, 1511.374 1322.713, 1511.375 1332.713, 1511.375 1342.713, 1511.375 1352.713, 1511.376 1362.713, 1511.376 1372.713, 1511.377 1382.713, 1511.377 1392.713, 1511.377 1402.713, 1511.378 1412.713, 1511.378 1422.713, 1511.379 1432.713, 1511.379 1442.713, 1511.379 1452.713, 1511.380 1462.713, 1511.380 1472.713, 1511.380 1482.713, 1511.381 1492.713, 1511.381 1502.713, 1511.382 1512.713, 1511.382 1522.713, 1511.382 1532.713, 1511.383 1542.713, 1511.383 1552.713, 1511.384 1562.713, 1511.384 1572.713, 1511.384 1582.713, 1511.385 1592.713, 1511.385 1602.713, 1511.385 1611.663, 1511.386 " />
            <path fill="none" stroke-width="3.0" stroke-linecap="butt" stroke-opacity="1.0" stroke="rgb(0, 0, 0)" stroke-linejoin="round" d=" M 1065.733, 1511.365 1075.733, 1511.365 1085.733, 1511.365 1095.733, 1511.366 1105.733, 1511.366 1115.733, 1511.367 1118.789, 1511.367 " />
            <path fill="none" stroke-width="3.0" stroke-linecap="butt" stroke-opacity="1.0" stroke="rgb(0, 0, 0)" stroke-linejoin="round" d=" M 23.861, 1511.325 33.861, 1511.325 43.861, 1511.325 53.861, 1511.326 63.861, 1511.326 73.861, 1511.327 83.861, 1511.327 93.861, 1511.327 103.861, 1511.328 113.861, 1511.328 123.861, 1511.328 133.861, 1511.329 143.861, 1511.329 153.861, 1511.330 163.861, 1511.330 173.861, 1511.330 183.861, 1511.331 193.861, 1511.331 203.861, 1511.332 213.861, 1511.332 223.861, 1511.332 233.861, 1511.333 243.861, 1511.333 253.861, 1511.333 263.861, 1511.334 273.861, 1511.334 283.861, 1511.335 293.861, 1511.335 303.861, 1511.335 313.861, 1511.336 323.861, 1511.336 333.861, 1511.337 343.861, 1511.337 353.861, 1511.337 363.861, 1511.338 373.861, 1511.338 383.861, 1511.338 393.861, 1511.339 403.861, 1511.339 413.861, 1511.340 423.861, 1511.340 433.861, 1511.340 443.861, 1511.341 453.861, 1511.341 463.861, 1511.342 473.861, 1511.342 483.861, 1511.342 493.861, 1511.343 503.861, 1511.343 513.861, 1511.343 523.861, 1511.344 533.861, 1511.344 543.861, 1511.345 553.861, 1511.345 563.861, 1511.345 573.861, 1511.346 583.861, 1511.346 593.861, 1511.347 603.861, 1511.347 613.861, 1511.347 623.861, 1511.348 633.861, 1511.348 643.861, 1511.348 653.861, 1511.349 663.861, 1511.349 673.861, 1511.350 683.861, 1511.350 693.861, 1511.350 703.861, 1511.351 713.861, 1511.351 723.861, 1511.352 733.861, 1511.352 743.861, 1511.352 753.861, 1511.353 763.861, 1511.353 773.861, 1511.354 783.861, 1511.354 793.861, 1511.354 803.861, 1511.355 813.861, 1511.355 823.861, 1511.355 833.861, 1511.356 843.861, 1511.356 853.861, 1511.357 863.861, 1511.357 873.861, 1511.357 883.861, 1511.358 893.861, 1511.358 903.861, 1511.359 913.861, 1511.359 923.861, 1511.359 933.861, 1511.360 943.861, 1511.360 953.861, 1511.360 963.861, 1511.361 973.861, 1511.361 983.861, 1511.362 993.861, 1511.362 1003.861, 1511.362 1013.861, 1511.363 1023.861, 1511.363 1033.861, 1511.364 1043.861, 1511.364 1062.483, 1511.365 " />
            <path fill="none" stroke-width="3.0" stroke-linecap="butt" stroke-opacity="1.0" stroke="rgb(0, 0, 0)" stroke-linejoin="round" d=" M 23.861, 1511.325 33.861, 1511.325 43.861, 1511.325 53.861, 1511.326 63.861, 1511.326 73.861, 1511.326 83.861, 1511.327 93.861, 1511.327 103.861, 1511.328 113.861, 1511.328 123.861, 1511.328 133.861, 1511.329 143.861, 1511.329 153.861, 1511.330 163.861, 1511.330 173.861, 1511.330 183.861, 1511.331 193.861, 1511.331 203.861, 1511.331 213.861, 1511.332 223.861, 1511.332 233.861, 1511.333 243.861, 1511.333 253.861, 1511.333 263.861, 1511.334 273.861, 1511.334 283.861, 1511.334 293.861, 1511.335 303.861, 1511.335 313.861, 1511.336 323.861, 1511.336 333.861, 1511.336 343.861, 1511.337 353.861, 1511.337 363.861, 1511.337 373.861, 1511.338 383.861, 1511.338 393.861, 1511.339 403.861, 1511.339 413.861, 1511.339 423.861, 1511.340 433.861, 1511.340 443.861, 1511.341 450.344, 1511.341 " />
            <path fill="none" stroke-width="3.0" stroke-linecap="butt" stroke-opacity="1.0" stroke="rgb(0, 0, 0)" stroke-linejoin="round" d=" M 910.140, 625.467 909.942, 622.825 " />
            <path fill="none" stroke-width="3.0" stroke-linecap="butt" stroke-opacity="1.0" stroke="rgb(0, 0, 0)" stroke-linejoin="round" d=" M 910.469, 628.097 910.140, 625.467 " />
            <path fill="none" stroke-width="3.0" stroke-linecap="butt" stroke-opacity="1.0" stroke="rgb(0, 0, 0)" stroke-linejoin="round" d=" M 977.413, 671.334 974.845, 671.988 " />
            <path fill="none" stroke-width="3.0" stroke-linecap="butt" stroke-opacity="1.0" stroke="rgb(0, 0, 0)" stroke-linejoin="round" d=" M 979.945, 670.553 977.413, 671.334 " />
            <path fill="none" stroke-width="3.0" stroke-linecap="butt" stroke-opacity="1.0" stroke="rgb(0, 0, 0)" stroke-linejoin="round" d=" M 994.042, 663.326 991.853, 664.818 " />
            <path fill="none" stroke-width="3.0" stroke-linecap="butt" stroke-opacity="1.0" stroke="rgb(0, 0, 0)" stroke-linejoin="round" d=" M 450.344, 1511.341 460.344, 1511.341 470.344, 1511.342 480.344, 1511.342 490.344, 1511.342 500.344, 1511.343 510.344, 1511.343 520.344, 1511.343 530.344, 1511.344 540.344, 1511.344 550.344, 1511.345 560.344, 1511.345 570.344, 1511.345 580.344, 1511.346 590.344, 1511.346 600.344, 1511.347 610.344, 1511.347 620.344, 1511.347 630.344, 1511.348 640.344, 1511.348 650.344, 1511.349 660.344, 1511.349 670.344, 1511.349 680.344, 1511.350 690.344, 1511.350 700.344, 1511.350 710.344, 1511.351 720.344, 1511.351 730.344, 1511.352 740.344, 1511.352 750.344, 1511.352 760.344, 1511.353 770.344, 1511.353 780.344, 1511.354 790.344, 1511.354 800.344, 1511.354 810.344, 1511.355 820.344, 1511.355 830.344, 1511.356 840.344, 1511.356 850.344, 1511.356 860.344, 1511.357 870.344, 1511.357 880.344, 1511.357 890.344, 1511.358 900.344, 1511.358 910.344, 1511.359 920.344, 1511.359 930.344, 1511.359 940.344, 1511.360 950.344, 1511.360 960.344, 1511.361 970.344, 1511.361 980.344, 1511.361 990.344, 1511.362 1000.344, 1511.362 1010.344, 1511.363 1020.344, 1511.363 1030.344, 1511.363 1040.344, 1511.364 1050.344, 1511.364 1062.224, 1511.365 " />
            <path fill="none" stroke-width="3.0" stroke-linecap="butt" stroke-opacity="1.0" stroke="rgb(0, 0, 0)" stroke-linejoin="round" d=" M 1611.663, 1511.386 1601.663, 1511.385 1591.663, 1511.385 1581.663, 1511.385 1571.663, 1511.384 1561.663, 1511.384 1551.663, 1511.383 1541.663, 1511.383 1531.663, 1511.383 1521.663, 1511.382 1511.663, 1511.382 1501.663, 1511.382 1491.663, 1511.381 1481.663, 1511.381 1471.663, 1511.380 1461.663, 1511.380 1451.663, 1511.380 1441.663, 1511.379 1431.663, 1511.379 1421.663, 1511.378 1411.663, 1511.378 1401.663, 1511.378 1391.663, 1511.377 1381.663, 1511.377 1371.663, 1511.376 1361.663, 1511.376 1351.663, 1511.376 1341.663, 1511.375 1331.663, 1511.375 1321.663, 1511.374 1311.663, 1511.374 1301.663, 1511.374 1291.663, 1511.373 1281.663, 1511.373 1271.663, 1511.373 1261.663, 1511.372 1251.663, 1511.372 1241.663, 1511.371 1231.663, 1511.371 1221.663, 1511.371 1211.663, 1511.370 1201.663, 1511.370 1191.663, 1511.369 1181.663, 1511.369 1171.663, 1511.369 1161.663, 1511.368 1151.663, 1511.368 1141.663, 1511.367 1131.663, 1511.367 1125.398, 1511.367 " />
            <path fill="none" stroke-width="3.0" stroke-linecap="butt" stroke-opacity="1.0" stroke="rgb(0, 0, 0)" stroke-linejoin="round" d=" M 1116.930, 1511.366 1106.930, 1511.366 1096.930, 1511.365 1093.448, 1511.365 " />
            <path fill="none" stroke-width="3.0" stroke-linecap="butt" stroke-opacity="1.0" stroke="rgb(0, 0, 0)" stroke-linejoin="round" d=" M 1120.326, 1511.367 1130.326, 1511.367 1140.326, 1511.368 1150.326, 1511.368 1160.326, 1511.368 1170.326, 1511.369 1180.326, 1511.369 1190.326, 1511.370 1200.326, 1511.370 1210.326, 1511.370 1220.326, 1511.371 1230.326, 1511.371 1240.326, 1511.371 1250.326, 1511.372 1260.326, 1511.372 1270.326, 1511.373 1280.326, 1511.373 1290.326, 1511.373 1300.326, 1511.374 1310.326, 1511.374 1320.326, 1511.375 1330.326, 1511.375 1340.326, 1511.375 1350.326, 1511.376 1360.326, 1511.376 1370.326, 1511.376 1380.326, 1511.377 1390.326, 1511.377 1400.326, 1511.378 1410.326, 1511.378 1420.326, 1511.378 1430.326, 1511.379 1440.326, 1511.379 1450.326, 1511.380 1460.326, 1511.380 1470.326, 1511.380 1480.326, 1511.381 1490.326, 1511.381 1500.326, 1511.382 1510.326, 1511.382 1520.326, 1511.382 1530.326, 1511.383 1540.326, 1511.383 1550.326, 1511.383 1560.326, 1511.384 1570.326, 1511.384 1580.326, 1511.385 1590.326, 1511.385 1600.326, 1511.385 1611.663, 1511.386 " />
            <path fill="none" stroke-width="3.0" stroke-linecap="butt" stroke-opacity="1.0" stroke="rgb(0, 0, 0)" stroke-linejoin="round" d=" M 1061.974, 1511.365 1051.974, 1511.364 1041.974, 1511.364 1031.974, 1511.363 1021.974, 1511.363 1011.974, 1511.363 1001.974, 1511.362 991.974, 1511.362 981.974, 1511.361 971.974, 1511.361 961.974, 1511.361 951.974, 1511.360 941.974, 1511.360 931.974, 1511.359 921.974, 1511.359 911.974, 1511.359 901.974, 1511.358 891.974, 1511.358 881.974, 1511.358 871.974, 1511.357 861.974, 1511.357 851.974, 1511.356 841.974, 1511.356 831.974, 1511.356 821.974, 1511.355 811.974, 1511.355 801.974, 1511.354 791.974, 1511.354 781.974, 1511.354 771.974, 1511.353 761.974, 1511.353 751.974, 1511.352 741.974, 1511.352 731.974, 1511.352 721.974, 1511.351 711.974, 1511.351 701.974, 1511.351 691.974, 1511.350 681.974, 1511.350 671.974, 1511.349 661.974, 1511.349 651.974, 1511.349 641.974, 1511.348 631.974, 1511.348 621.974, 1511.347 611.974, 1511.347 601.974, 1511.347 591.974, 1511.346 581.974, 1511.346 571.974, 1511.345 561.974, 1511.345 551.974, 1511.345 541.974, 1511.344 531.974, 1511.344 521.974, 1511.344 511.974, 1511.343 501.974, 1511.343 491.974, 1511.342 481.974, 1511.342 471.974, 1511.342 461.974, 1511.341 450.344, 1511.341 " />
            <path fill="none" stroke-width="3.0" stroke-linecap="butt" stroke-opacity="1.0" stroke="rgb(0, 0, 0)" stroke-linejoin="round" d=" M 1118.557, 1511.367 1108.557, 1511.366 1098.557, 1511.366 1088.557, 1511.366 1078.557, 1511.365 1068.557, 1511.365 1067.295, 1511.365 " />
            <path fill="none" stroke-width="3.0" stroke-linecap="butt" stroke-opacity="1.0" stroke="rgb(0, 0, 0)" stroke-linejoin="round" d=" M 1611.663, 1511.386 1601.663, 1511.385 1591.663, 1511.385 1581.663, 1511.385 1571.663, 1511.384 1561.663, 1511.384 1551.663, 1511.383 1541.663, 1511.383 1531.663, 1511.383 1521.663, 1511.382 1511.663, 1511.382 1501.663, 1511.382 1491.663, 1511.381 1481.663, 1511.381 1471.663, 1511.380 1461.663, 1511.380 1451.663, 1511.380 1441.663, 1511.379 1431.663, 1511.379 1421.663, 1511.378 1411.663, 1511.378 1401.663, 1511.378 1391.663, 1511.377 1381.663, 1511.377 1371.663, 1511.377 1361.663, 1511.376 1351.663, 1511.376 1341.663, 1511.375 1331.663, 1511.375 1321.663, 1511.375 1311.663, 1511.374 1301.663, 1511.374 1291.663, 1511.373 1281.663, 1511.373 1271.663, 1511.373 1261.663, 1511.372 1251.663, 1511.372 1241.663, 1511.371 1231.663, 1511.371 1221.663, 1511.371 1211.663, 1511.370 1201.663, 1511.370 1191.663, 1511.370 1181.663, 1511.369 1171.663, 1511.369 1161.663, 1511.368 1151.663, 1511.368 1141.663, 1511.368 1131.663, 1511.367 1121.732, 1511.367 " />
            <path fill="none" stroke-width="3.0" stroke-linecap="butt" stroke-opacity="1.0" stroke="rgb(0, 0, 0)" stroke-linejoin="round" d=" M 1064.145, 1511.365 1074.145, 1511.365 1084.145, 1511.365 1094.145, 1511.366 1104.145, 1511.366 1114.145, 1511.367 1124.145, 1511.367 1134.145, 1511.367 1144.145, 1511.368 1154.145, 1511.368 1164.145, 1511.369 1174.145, 1511.369 1184.145, 1511.369 1194.145, 1511.370 1204.145, 1511.370 1214.145, 1511.370 1224.145, 1511.371 1234.145, 1511.371 1244.145, 1511.372 1254.145, 1511.372 1264.145, 1511.372 1274.145, 1511.373 1284.145, 1511.373 1294.145, 1511.374 1304.145, 1511.374 1314.145, 1511.374 1324.145, 1511.375 1334.145, 1511.375 1344.145, 1511.376 1354.145, 1511.376 1364.145, 1511.376 1374.145, 1511.377 1384.145, 1511.377 1394.145, 1511.377 1404.145, 1511.378 1414.145, 1511.378 1424.145, 1511.379 1434.145, 1511.379 1444.145, 1511.379 1454.145, 1511.380 1464.145, 1511.380 1474.145, 1511.381 1484.145, 1511.381 1494.145, 1511.381 1504.145, 1511.382 1514.145, 1511.382 1524.145, 1511.382 1534.145, 1511.383 1544.145, 1511.383 1554.145, 1511.384 1564.145, 1511.384 1574.145, 1511.384 1584.145, 1511.385 1594.145, 1511.385 1604.145, 1511.386 1611.663, 1511.386 " />
        </g>
    </g>
<g id="slice-labels"><text x="529.68575" y="395.56525" text-anchor="middle" dominant-baseline="middle" font-family="Arial, sans-serif" font-size="59.04869968450252" font-weight="bold" fill="black" stroke="none" stroke-width="7.085843962140302" paint-order="stroke fill">Slice4 (Back)</text><text x="1541.33525" y="395.56525" text-anchor="middle" dominant-baseline="middle" font-family="Arial, sans-serif" font-size="59.04869968450252" font-weight="bold" fill="black" stroke="none" stroke-width="7.085843962140302" paint-order="stroke fill">Slice4 (Back)</text><text x="529.68575" y="1139.4457499999999" text-anchor="middle" dominant-baseline="middle" font-family="Arial, sans-serif" font-size="59.04869968450252" font-weight="bold" fill="black" stroke="none" stroke-width="7.085843962140302" paint-order="stroke fill">Slice4 (Back)</text><text x="1541.33525" y="1139.4457499999999" text-anchor="middle" dominant-baseline="middle" font-family="Arial, sans-serif" font-size="59.04869968450252" font-weight="bold" fill="black" stroke="none" stroke-width="7.085843962140302" paint-order="stroke fill">Slice4 (Back)</text></g></svg>