<?xml version='1.0' encoding='utf-8'?>
<svg xmlns="http://www.w3.org/2000/svg" xmlns:inkscape="http://www.inkscape.org/namespaces/inkscape" version="1.1" width="347.9590856432915mm" height="134.0593614578247mm" viewBox="0.6145981107817846 0.004583883763498164 4108.770803778436 1583.0008322324727" preserveAspectRatio="none">
    <g id="ViewLayer_LineSet" inkscape:groupmode="lineset" inkscape:label="ViewLayer_LineSet">
        <g inkscape:groupmode="layer" id="strokes" inkscape:label="strokes">
            <path fill="none" stroke-width="3.0" stroke-linecap="butt" stroke-opacity="1.0" stroke="rgb(0, 0, 0)" stroke-linejoin="round" d=" M 2703.846, 986.259 2701.329, 983.678 2698.942, 980.974 2696.694, 978.155 2694.589, 975.227 2692.632, 972.198 2690.829, 969.074 2689.184, 965.865 2687.700, 962.578 2686.383, 959.221 2685.235, 955.803 2684.258, 952.331 2683.455, 948.815 2682.829, 945.264 2682.381, 941.686 2682.111, 938.090 2682.021, 934.485 2682.111, 930.880 2682.381, 927.283 2682.829, 923.705 2683.455, 920.153 2684.258, 916.638 2685.235, 913.166 2686.383, 909.747 2687.700, 906.391 2689.184, 903.104 2690.829, 899.894 2692.632, 896.772 2694.589, 893.742 2696.694, 890.814 2698.942, 887.995 2701.329, 885.291 2703.846, 882.709 2706.490, 880.256 2709.252, 877.938 2712.127, 875.761 2715.107, 873.729 2718.184, 871.849 2721.351, 870.124 2724.600, 868.560 2727.923, 867.159 2731.312, 865.925 2734.758, 864.862 2738.253, 863.973 2741.787, 863.258 2745.353, 862.720 2748.942, 862.361 2752.543, 862.182 2756.150, 862.182 2759.751, 862.361 2763.340, 862.720 2766.906, 863.258 2770.440, 863.973 2773.935, 864.862 2777.381, 865.925 2780.770, 867.159 2784.093, 868.560 2787.342, 870.124 2790.509, 871.849 2793.586, 873.729 2796.566, 875.761 2799.440, 877.938 2802.203, 880.256 2804.846, 882.709 2807.365, 885.291 2809.751, 887.995 2811.999, 890.814 2814.104, 893.742 2816.061, 896.772 2817.864, 899.894 2819.510, 903.104 2820.993, 906.391 2822.310, 909.747 2823.459, 913.166 2824.435, 916.638 2825.238, 920.153 2825.864, 923.705 2826.312, 927.283 2826.582, 930.880 2826.672, 934.485 2826.582, 938.090 2826.312, 941.686 2825.864, 945.264 2825.238, 948.815 2824.435, 952.331 2823.459, 955.803 2822.310, 959.221 2820.993, 962.578 2819.510, 965.865 2817.864, 969.074 2816.061, 972.198 2814.104, 975.227 2811.999, 978.155 2809.751, 980.974 2807.365, 983.678 2804.846, 986.259 2802.203, 988.713 2799.440, 991.031 2796.566, 993.208 2793.586, 995.239 2790.509, 997.120 2787.342, 998.844 2784.093, 1000.409 2780.770, 1001.810 2777.381, 1003.043 2773.935, 1004.107 2770.440, 1004.996 2766.906, 1005.711 2763.340, 1006.249 2759.751, 1006.608 2756.150, 1006.787 2752.543, 1006.787 2748.942, 1006.608 2745.353, 1006.249 2741.787, 1005.711 2738.253, 1004.996 2734.758, 1004.107 2731.312, 1003.043 2727.923, 1001.810 2724.600, 1000.409 2721.351, 998.844 2718.184, 997.120 2715.107, 995.239 2712.127, 993.208 2709.252, 991.031 2706.490, 988.713 2703.846, 986.259 " />
            <path fill="none" stroke-width="3.0" stroke-linecap="butt" stroke-opacity="1.0" stroke="rgb(0, 0, 0)" stroke-linejoin="round" d=" M 245.741, 630.562 243.728, 640.357 241.715, 650.152 239.703, 659.948 237.690, 669.743 235.678, 679.538 233.665, 689.334 231.653, 699.129 229.640, 708.925 227.627, 718.720 225.615, 728.515 223.602, 738.311 221.590, 748.106 219.577, 757.901 217.564, 767.697 215.552, 777.492 213.539, 787.288 211.527, 797.083 209.514, 806.878 207.502, 816.674 205.489, 826.469 203.476, 836.265 201.464, 846.060 199.451, 855.855 197.439, 865.651 195.426, 875.446 193.413, 885.241 191.401, 895.037 189.388, 904.832 187.376, 914.628 185.363, 924.423 183.350, 934.218 181.338, 944.014 179.325, 953.809 177.313, 963.605 175.300, 973.400 173.288, 983.195 171.275, 992.991 169.262, 1002.786 167.250, 1012.581 165.237, 1022.377 163.225, 1032.172 161.212, 1041.968 159.199, 1051.763 157.187, 1061.558 155.174, 1071.354 153.162, 1081.149 151.149, 1090.944 149.137, 1100.740 147.124, 1110.535 145.111, 1120.331 143.099, 1130.126 140.126, 1144.597 137.438, 1154.229 134.750, 1163.861 132.062, 1173.493 129.375, 1183.125 126.687, 1192.757 123.999, 1202.389 121.311, 1212.021 118.624, 1221.653 115.936, 1231.285 113.248, 1240.917 110.560, 1250.549 107.873, 1260.181 105.185, 1269.814 102.497, 1279.446 99.809, 1289.078 97.122, 1298.710 94.434, 1308.342 91.746, 1317.974 89.059, 1327.606 86.371, 1337.238 83.683, 1346.870 80.995, 1356.502 78.308, 1366.134 75.620, 1375.766 72.932, 1385.398 70.244, 1395.030 67.557, 1404.662 64.869, 1414.294 62.181, 1423.926 59.493, 1433.558 56.806, 1443.190 54.118, 1452.822 51.430, 1462.454 48.742, 1472.086 46.055, 1481.718 43.367, 1491.350 40.679, 1500.982 37.992, 1510.614 35.304, 1520.246 32.616, 1529.878 29.928, 1539.510 27.241, 1549.142 24.818, 1557.823 24.231, 1559.389 " />
            <path fill="none" stroke-width="3.0" stroke-linecap="butt" stroke-opacity="1.0" stroke="rgb(0, 0, 0)" stroke-linejoin="round" d=" M 367.158, 23.621 363.238, 32.821 359.318, 42.021 355.398, 51.220 351.478, 60.420 347.558, 69.620 345.340, 74.824 343.576, 84.667 341.812, 94.510 340.048, 104.353 338.284, 114.196 336.520, 124.040 334.756, 133.883 332.992, 143.726 331.228, 153.569 329.463, 163.412 327.699, 173.255 325.935, 183.099 324.171, 192.942 322.407, 202.785 320.643, 212.628 318.879, 222.471 317.115, 232.314 315.351, 242.158 313.587, 252.001 311.822, 261.844 310.058, 271.687 308.294, 281.530 306.530, 291.373 304.766, 301.217 303.002, 311.060 301.238, 320.903 299.474, 330.746 297.710, 340.589 295.946, 350.432 294.181, 360.276 292.417, 370.119 290.653, 379.962 288.889, 389.805 287.125, 399.648 285.361, 409.491 283.597, 419.335 281.833, 429.178 280.069, 439.021 278.305, 448.864 276.540, 458.707 274.776, 468.551 273.012, 478.394 271.248, 488.237 269.484, 498.080 267.720, 507.923 265.956, 517.766 264.192, 527.609 262.428, 537.453 260.664, 547.296 258.899, 557.139 257.135, 566.982 255.371, 576.825 253.607, 586.669 251.843, 596.512 250.079, 606.355 248.315, 616.198 245.741, 630.562 " />
            <path fill="none" stroke-width="3.0" stroke-linecap="butt" stroke-opacity="1.0" stroke="rgb(0, 0, 0)" stroke-linejoin="round" d=" M 4085.769, 1559.389 4082.950, 1549.794 4080.131, 1540.200 4077.312, 1530.605 4074.493, 1521.011 4071.674, 1511.417 4068.855, 1501.822 4066.036, 1492.228 4063.216, 1482.633 4060.397, 1473.039 4057.578, 1463.444 4054.759, 1453.850 4051.940, 1444.256 4049.121, 1434.661 4046.302, 1425.067 4043.483, 1415.472 4040.664, 1405.878 4037.844, 1396.284 4035.025, 1386.689 4032.206, 1377.095 4029.387, 1367.500 4026.568, 1357.906 4023.749, 1348.312 4020.930, 1338.717 4018.111, 1329.123 4015.292, 1319.528 4012.473, 1309.934 4009.654, 1300.340 4006.834, 1290.745 4004.015, 1281.151 4001.196, 1271.556 3998.377, 1261.962 3995.558, 1252.368 3992.739, 1242.773 3989.920, 1233.179 3987.101, 1223.584 3984.281, 1213.990 3981.462, 1204.395 3978.643, 1194.801 3975.824, 1185.207 3973.005, 1175.612 3970.022, 1165.459 3966.071, 1156.273 3962.120, 1147.086 3958.169, 1137.900 3954.218, 1128.714 3950.267, 1119.527 3946.316, 1110.341 3942.365, 1101.154 3938.414, 1091.968 3934.463, 1082.781 3930.512, 1073.595 3926.562, 1064.409 3922.611, 1055.222 3918.660, 1046.036 3914.709, 1036.849 3910.758, 1027.663 3906.807, 1018.477 3902.856, 1009.290 3898.905, 1000.104 3894.954, 990.917 3891.003, 981.731 3887.052, 972.545 3883.101, 963.358 3879.150, 954.172 3875.199, 944.985 3871.248, 935.799 3867.297, 926.613 3863.346, 917.426 3859.396, 908.240 3855.445, 899.053 3851.494, 889.867 3849.209, 884.556 3850.623, 874.656 3852.036, 864.757 3853.450, 854.857 3854.863, 844.958 3856.277, 835.058 3857.616, 825.680 3856.262, 815.773 3854.908, 805.865 3853.554, 795.957 3852.200, 786.049 3850.846, 776.141 3849.492, 766.233 3848.138, 756.325 3846.784, 746.417 3845.430, 736.509 3844.076, 726.601 3842.722, 716.693 3841.368, 706.785 3840.014, 696.878 3838.660, 686.970 3837.307, 677.062 3835.953, 667.154 3834.599, 657.246 3833.245, 647.338 3831.891, 637.430 3830.537, 627.522 3829.183, 617.614 3827.829, 607.706 3826.475, 597.798 3825.121, 587.890 3823.767, 577.983 3822.833, 571.144 3822.573, 561.147 3822.314, 551.151 3822.054, 541.154 3821.795, 531.157 3821.536, 521.161 3821.276, 511.164 3821.017, 501.168 3820.758, 491.171 3820.498, 481.174 3820.239, 471.178 3819.979, 461.181 3819.720, 451.184 3819.461, 441.188 3819.201, 431.191 3818.942, 421.195 3818.683, 411.198 3818.423, 401.201 3818.164, 391.205 3817.905, 381.208 3817.645, 371.211 3817.386, 361.215 3817.126, 351.218 3816.867, 341.221 3816.608, 331.225 3816.348, 321.228 3816.089, 311.232 3815.903, 304.077 " />
            <path fill="none" stroke-width="3.0" stroke-linecap="butt" stroke-opacity="1.0" stroke="rgb(0, 0, 0)" stroke-linejoin="round" d=" M 1368.262, 1281.465 1365.744, 1278.883 1363.358, 1276.180 1361.109, 1273.360 1359.004, 1270.432 1357.047, 1267.402 1355.244, 1264.279 1353.599, 1261.071 1352.116, 1257.783 1350.798, 1254.426 1349.650, 1251.008 1348.673, 1247.536 1347.871, 1244.021 1347.245, 1240.469 1346.796, 1236.891 1346.527, 1233.295 1346.437, 1229.690 1346.527, 1226.085 1346.796, 1222.489 1347.245, 1218.910 1347.871, 1215.358 1348.673, 1211.843 1349.650, 1208.371 1350.798, 1204.953 1352.116, 1201.596 1353.599, 1198.309 1355.244, 1195.100 1357.047, 1191.977 1359.004, 1188.947 1361.109, 1186.019 1363.358, 1183.200 1365.744, 1180.496 1368.262, 1177.914 1370.905, 1175.462 1373.668, 1173.143 1376.542, 1170.966 1379.522, 1168.934 1382.599, 1167.054 1385.766, 1165.329 1389.016, 1163.764 1392.339, 1162.364 1395.727, 1161.131 1399.173, 1160.067 1402.668, 1159.178 1406.203, 1158.463 1409.769, 1157.925 1413.357, 1157.566 1416.959, 1157.387 1420.565, 1157.387 1424.167, 1157.566 1427.755, 1157.925 1431.321, 1158.463 1434.856, 1159.178 1438.350, 1160.067 1441.797, 1161.131 1445.185, 1162.364 1448.508, 1163.764 1451.757, 1165.329 1454.924, 1167.054 1458.002, 1168.934 1460.981, 1170.966 1463.856, 1173.143 1466.619, 1175.462 1469.262, 1177.914 1471.780, 1180.496 1474.166, 1183.200 1476.415, 1186.019 1478.520, 1188.947 1480.476, 1191.977 1482.280, 1195.100 1483.925, 1198.309 1485.408, 1201.596 1486.725, 1204.953 1487.874, 1208.371 1488.851, 1211.843 1489.653, 1215.358 1490.279, 1218.910 1490.728, 1222.489 1490.997, 1226.085 1491.087, 1229.690 1490.997, 1233.295 1490.728, 1236.891 1490.279, 1240.469 1489.653, 1244.021 1488.851, 1247.536 1487.874, 1251.008 1486.725, 1254.426 1485.408, 1257.783 1483.925, 1261.071 1482.280, 1264.279 1480.476, 1267.402 1478.520, 1270.432 1476.415, 1273.360 1474.166, 1276.180 1471.780, 1278.883 1469.262, 1281.465 1466.619, 1283.918 1463.856, 1286.236 1460.981, 1288.413 1458.002, 1290.445 1454.924, 1292.325 1451.757, 1294.050 1448.508, 1295.614 1445.185, 1297.016 1441.797, 1298.249 1438.350, 1299.312 1434.856, 1300.202 1431.321, 1300.916 1427.755, 1301.453 1424.167, 1301.812 1420.565, 1301.992 1416.959, 1301.992 1413.357, 1301.812 1409.769, 1301.453 1406.203, 1300.916 1402.668, 1300.202 1399.173, 1299.312 1395.727, 1298.249 1392.339, 1297.016 1389.016, 1295.614 1385.766, 1294.050 1382.599, 1292.325 1379.522, 1290.445 1376.542, 1288.413 1373.668, 1286.236 1370.905, 1283.918 1368.262, 1281.465 " />
            <path fill="none" stroke-width="3.0" stroke-linecap="butt" stroke-opacity="1.0" stroke="rgb(0, 0, 0)" stroke-linejoin="round" d=" M 24.231, 1559.389 34.231, 1559.389 44.231, 1559.389 54.231, 1559.389 64.231, 1559.389 74.231, 1559.389 84.231, 1559.389 94.231, 1559.389 104.231, 1559.389 114.231, 1559.389 124.231, 1559.389 134.231, 1559.389 144.231, 1559.389 154.231, 1559.389 164.231, 1559.389 174.231, 1559.389 184.231, 1559.389 194.231, 1559.389 204.231, 1559.389 214.231, 1559.389 224.231, 1559.389 234.231, 1559.389 244.231, 1559.389 254.231, 1559.389 264.231, 1559.389 274.231, 1559.389 284.231, 1559.389 294.231, 1559.389 304.231, 1559.389 314.231, 1559.389 324.231, 1559.389 334.231, 1559.389 344.231, 1559.389 354.231, 1559.389 364.231, 1559.389 374.231, 1559.389 384.231, 1559.389 394.231, 1559.389 404.231, 1559.389 414.231, 1559.389 424.231, 1559.389 434.231, 1559.389 444.231, 1559.389 454.231, 1559.389 464.231, 1559.389 474.231, 1559.389 484.231, 1559.389 494.231, 1559.389 504.231, 1559.389 514.231, 1559.389 524.231, 1559.389 534.231, 1559.389 544.231, 1559.389 554.231, 1559.389 564.231, 1559.389 574.231, 1559.389 584.231, 1559.389 594.231, 1559.389 604.231, 1559.389 614.231, 1559.389 624.231, 1559.389 634.231, 1559.389 644.231, 1559.389 654.231, 1559.389 664.231, 1559.389 678.379, 1559.389 688.379, 1559.389 698.379, 1559.389 707.814, 1559.389 " />
            <path fill="none" stroke-width="3.0" stroke-linecap="butt" stroke-opacity="1.0" stroke="rgb(0, 0, 0)" stroke-linejoin="round" d=" M 707.814, 1559.389 717.814, 1559.389 727.814, 1559.389 737.814, 1559.389 747.814, 1559.389 757.814, 1559.389 767.814, 1559.389 777.814, 1559.389 787.814, 1559.389 797.814, 1559.389 807.814, 1559.389 817.814, 1559.389 827.814, 1559.389 838.005, 1559.389 842.489, 1559.389 846.865, 1559.389 851.120, 1559.389 861.120, 1559.389 871.120, 1559.389 881.120, 1559.389 882.875, 1559.389 " />
            <path fill="none" stroke-width="3.0" stroke-linecap="butt" stroke-opacity="1.0" stroke="rgb(0, 0, 0)" stroke-linejoin="round" d=" M 882.875, 1559.389 892.875, 1559.389 902.875, 1559.389 912.875, 1559.389 922.875, 1559.389 932.875, 1559.389 942.875, 1559.389 952.875, 1559.389 962.875, 1559.389 972.875, 1559.389 982.875, 1559.389 992.875, 1559.389 1002.875, 1559.389 1012.875, 1559.389 1022.875, 1559.389 1032.875, 1559.389 1042.875, 1559.389 1052.875, 1559.389 1062.875, 1559.389 1072.875, 1559.389 1082.875, 1559.389 1092.875, 1559.389 1102.875, 1559.389 1112.875, 1559.389 1122.875, 1559.389 1132.875, 1559.389 1142.875, 1559.389 1152.875, 1559.389 1162.875, 1559.389 1172.875, 1559.389 1182.875, 1559.389 1192.875, 1559.389 1202.875, 1559.389 1212.875, 1559.389 1222.875, 1559.389 1232.875, 1559.389 1242.875, 1559.389 1252.875, 1559.389 1262.875, 1559.389 1272.875, 1559.389 1282.875, 1559.389 1292.875, 1559.389 1302.875, 1559.389 1312.875, 1559.389 1322.875, 1559.389 1332.875, 1559.389 1342.875, 1559.389 1352.875, 1559.389 1362.875, 1559.389 1372.875, 1559.389 1382.875, 1559.389 1392.875, 1559.389 1402.875, 1559.389 1412.875, 1559.389 1422.875, 1559.389 1435.520, 1559.389 1438.009, 1559.389 1440.590, 1559.389 1443.257, 1559.389 1446.002, 1559.389 1456.002, 1559.389 1466.002, 1559.389 1476.002, 1559.389 1486.002, 1559.389 1496.002, 1559.389 1506.002, 1559.389 1516.002, 1559.389 1526.002, 1559.389 1536.002, 1559.389 1546.002, 1559.389 1556.002, 1559.389 1566.002, 1559.389 1576.002, 1559.389 1586.002, 1559.389 1596.002, 1559.389 1606.002, 1559.389 1616.002, 1559.389 1626.002, 1559.389 1636.002, 1559.389 1646.002, 1559.389 1656.002, 1559.389 1666.002, 1559.389 1676.002, 1559.389 1686.002, 1559.389 1696.002, 1559.389 1705.572, 1559.389 1706.749, 1559.389 1708.048, 1559.389 1709.466, 1559.389 1710.996, 1559.389 1712.635, 1559.389 1714.377, 1559.389 1716.214, 1559.389 1718.141, 1559.389 1720.151, 1559.389 1722.236, 1559.389 1724.389, 1559.389 1726.601, 1559.389 1728.864, 1559.389 1731.170, 1559.389 1733.512, 1559.389 1735.879, 1559.389 1738.265, 1559.389 1740.661, 1559.389 1743.058, 1559.389 1745.450, 1559.389 1747.827, 1559.389 1750.183, 1559.389 1752.510, 1559.389 1754.802, 1559.389 1757.052, 1559.389 1759.254, 1559.389 1761.402, 1559.389 1763.490, 1559.389 1765.514, 1559.389 1767.469, 1559.389 1769.351, 1559.389 1771.155, 1559.389 1772.879, 1559.389 1774.519, 1559.389 1776.072, 1559.389 1777.536, 1559.389 1778.910, 1559.389 1780.191, 1559.389 1790.191, 1559.389 1795.609, 1559.389 " />
            <path fill="none" stroke-width="3.0" stroke-linecap="butt" stroke-opacity="1.0" stroke="rgb(0, 0, 0)" stroke-linejoin="round" d=" M 1274.764, 487.989 1272.821, 486.186 1270.971, 484.290 1269.218, 482.302 1267.566, 480.231 " />
            <path fill="none" stroke-width="3.0" stroke-linecap="butt" stroke-opacity="1.0" stroke="rgb(0, 0, 0)" stroke-linejoin="round" d=" M 1305.953, 501.136 1303.316, 500.872 1300.696, 500.477 1298.099, 499.952 1295.532, 499.298 1293.000, 498.517 1290.510, 497.611 1288.069, 496.582 1285.682, 495.433 1283.355, 494.165 1281.094, 492.783 " />
            <path fill="none" stroke-width="3.0" stroke-linecap="butt" stroke-opacity="1.0" stroke="rgb(0, 0, 0)" stroke-linejoin="round" d=" M 1266.020, 478.081 1264.582, 475.855 1263.258, 473.560 1262.049, 471.203 1260.959, 468.788 1259.991, 466.322 " />
            <path fill="none" stroke-width="3.0" stroke-linecap="butt" stroke-opacity="1.0" stroke="rgb(0, 0, 0)" stroke-linejoin="round" d=" M 1259.147, 463.810 1258.430, 461.260 1257.840, 458.677 1257.380, 456.068 1257.051, 453.438 1256.853, 450.796 " />
            <path fill="none" stroke-width="3.0" stroke-linecap="butt" stroke-opacity="1.0" stroke="rgb(0, 0, 0)" stroke-linejoin="round" d=" M 1324.315, 499.298 1321.748, 499.952 1319.151, 500.477 1316.531, 500.872 1313.895, 501.136 1311.248, 501.268 1308.599, 501.268 1305.953, 501.136 " />
            <path fill="none" stroke-width="3.0" stroke-linecap="butt" stroke-opacity="1.0" stroke="rgb(0, 0, 0)" stroke-linejoin="round" d=" M 1256.787, 448.147 1256.853, 445.499 1257.051, 442.857 1257.380, 440.227 1257.840, 437.618 " />
            <path fill="none" stroke-width="3.0" stroke-linecap="butt" stroke-opacity="1.0" stroke="rgb(0, 0, 0)" stroke-linejoin="round" d=" M 1257.840, 437.618 1258.430, 435.035 " />
            <path fill="none" stroke-width="3.0" stroke-linecap="butt" stroke-opacity="1.0" stroke="rgb(0, 0, 0)" stroke-linejoin="round" d=" M 1258.430, 435.035 1259.147, 432.484 1259.991, 429.974 1260.959, 427.508 1262.049, 425.092 1263.258, 422.734 1264.582, 420.440 1266.020, 418.214 1267.566, 416.063 " />
            <path fill="none" stroke-width="3.0" stroke-linecap="butt" stroke-opacity="1.0" stroke="rgb(0, 0, 0)" stroke-linejoin="round" d=" M 1340.942, 491.292 1338.753, 492.783 1336.492, 494.165 1334.165, 495.433 1331.778, 496.582 1329.337, 497.611 1326.847, 498.517 1324.315, 499.298 " />
            <path fill="none" stroke-width="3.0" stroke-linecap="butt" stroke-opacity="1.0" stroke="rgb(0, 0, 0)" stroke-linejoin="round" d=" M 1355.265, 475.855 1353.827, 478.081 1352.281, 480.231 1350.629, 482.302 1348.876, 484.290 1347.026, 486.186 1345.083, 487.989 1343.054, 489.691 1340.942, 491.292 " />
            <path fill="none" stroke-width="3.0" stroke-linecap="butt" stroke-opacity="1.0" stroke="rgb(0, 0, 0)" stroke-linejoin="round" d=" M 1267.566, 416.063 1269.218, 413.992 " />
            <path fill="none" stroke-width="3.0" stroke-linecap="butt" stroke-opacity="1.0" stroke="rgb(0, 0, 0)" stroke-linejoin="round" d=" M 1269.218, 413.992 1270.971, 412.005 " />
            <path fill="none" stroke-width="3.0" stroke-linecap="butt" stroke-opacity="1.0" stroke="rgb(0, 0, 0)" stroke-linejoin="round" d=" M 1270.971, 412.005 1272.821, 410.109 " />
            <path fill="none" stroke-width="3.0" stroke-linecap="butt" stroke-opacity="1.0" stroke="rgb(0, 0, 0)" stroke-linejoin="round" d=" M 1272.821, 410.109 1274.764, 408.306 " />
            <path fill="none" stroke-width="3.0" stroke-linecap="butt" stroke-opacity="1.0" stroke="rgb(0, 0, 0)" stroke-linejoin="round" d=" M 1274.764, 408.306 1276.793, 406.603 1278.905, 405.003 1281.094, 403.512 1283.355, 402.130 " />
            <path fill="none" stroke-width="3.0" stroke-linecap="butt" stroke-opacity="1.0" stroke="rgb(0, 0, 0)" stroke-linejoin="round" d=" M 1283.355, 402.130 1285.682, 400.862 1288.069, 399.713 1290.510, 398.684 1293.000, 397.777 1295.532, 396.997 1298.099, 396.343 1300.696, 395.817 1303.316, 395.422 " />
            <path fill="none" stroke-width="3.0" stroke-linecap="butt" stroke-opacity="1.0" stroke="rgb(0, 0, 0)" stroke-linejoin="round" d=" M 1361.417, 461.260 1360.700, 463.810 1359.856, 466.322 1358.888, 468.788 1357.798, 471.203 " />
            <path fill="none" stroke-width="3.0" stroke-linecap="butt" stroke-opacity="1.0" stroke="rgb(0, 0, 0)" stroke-linejoin="round" d=" M 1795.609, 1559.389 1805.609, 1559.389 1815.609, 1559.389 1825.609, 1559.389 1835.609, 1559.389 1845.609, 1559.389 1855.609, 1559.389 1865.609, 1559.389 1875.609, 1559.389 1885.609, 1559.389 1895.609, 1559.389 1905.609, 1559.389 1915.609, 1559.389 1925.609, 1559.389 1935.609, 1559.389 1945.609, 1559.389 1955.609, 1559.389 1965.609, 1559.389 1975.609, 1559.389 1985.609, 1559.389 1995.609, 1559.389 2005.609, 1559.389 2015.609, 1559.389 2025.609, 1559.389 2035.609, 1559.389 2045.609, 1559.389 2055.609, 1559.389 2065.609, 1559.389 2075.609, 1559.389 2085.609, 1559.389 2095.609, 1559.389 2105.609, 1559.389 2115.609, 1559.389 2125.609, 1559.389 2135.609, 1559.389 2145.609, 1559.389 2155.609, 1559.389 2165.609, 1559.389 2175.609, 1559.389 2183.239, 1559.389 2185.052, 1559.389 2186.929, 1559.389 2188.867, 1559.389 2190.860, 1559.389 2192.904, 1559.389 2194.993, 1559.389 2197.121, 1559.389 2199.282, 1559.389 2201.469, 1559.389 2203.677, 1559.389 2205.897, 1559.389 2208.122, 1559.389 2218.122, 1559.389 2228.122, 1559.389 2238.122, 1559.389 2248.122, 1559.389 2258.122, 1559.389 2268.122, 1559.389 2278.122, 1559.389 2288.122, 1559.389 2298.122, 1559.389 2308.122, 1559.389 2318.122, 1559.389 2328.122, 1559.389 2338.122, 1559.389 2348.122, 1559.389 2358.122, 1559.389 2368.122, 1559.389 2378.122, 1559.389 2388.122, 1559.389 2398.122, 1559.389 2408.122, 1559.389 2418.122, 1559.389 2428.122, 1559.389 2438.122, 1559.389 2448.122, 1559.389 2458.122, 1559.389 2468.122, 1559.389 2478.122, 1559.389 2488.122, 1559.389 2498.122, 1559.389 2508.122, 1559.389 2512.338, 1559.389 2514.844, 1559.389 2517.388, 1559.389 2519.962, 1559.389 2522.558, 1559.389 2525.167, 1559.389 2527.781, 1559.389 2530.392, 1559.389 2532.991, 1559.389 2535.569, 1559.389 2538.117, 1559.389 2540.627, 1559.389 2543.091, 1559.389 2545.501, 1559.389 2547.848, 1559.389 2549.585, 1559.389 " />
            <path fill="none" stroke-width="3.0" stroke-linecap="butt" stroke-opacity="1.0" stroke="rgb(0, 0, 0)" stroke-linejoin="round" d=" M 2549.585, 1559.389 2550.125, 1559.389 2552.324, 1559.389 2554.439, 1559.389 2556.462, 1559.389 2558.388, 1559.389 2560.211, 1559.389 2561.926, 1559.389 2563.528, 1559.389 2573.528, 1559.389 2583.528, 1559.389 2593.528, 1559.389 2603.528, 1559.389 2613.528, 1559.389 2623.528, 1559.389 2633.528, 1559.389 2643.528, 1559.389 2653.528, 1559.389 2663.528, 1559.389 2673.528, 1559.389 2683.528, 1559.389 2693.528, 1559.389 2703.528, 1559.389 2713.528, 1559.389 2723.528, 1559.389 2733.528, 1559.389 2743.528, 1559.389 2753.528, 1559.389 2763.528, 1559.389 2773.528, 1559.389 2783.528, 1559.389 2793.528, 1559.389 2803.528, 1559.389 2813.528, 1559.389 2823.528, 1559.389 2833.528, 1559.389 2843.528, 1559.389 2853.528, 1559.389 2863.528, 1559.389 2873.528, 1559.389 2883.528, 1559.389 2893.528, 1559.389 2903.528, 1559.389 2913.528, 1559.389 2923.528, 1559.389 2933.528, 1559.389 2943.528, 1559.389 2953.528, 1559.389 2963.528, 1559.389 2973.528, 1559.389 2983.528, 1559.389 2993.528, 1559.389 3003.528, 1559.389 3013.528, 1559.389 3023.528, 1559.389 3033.528, 1559.389 3043.528, 1559.389 3053.528, 1559.389 3063.528, 1559.389 3073.528, 1559.389 3083.528, 1559.389 3093.528, 1559.389 3103.528, 1559.389 3113.528, 1559.389 3123.528, 1559.389 3133.528, 1559.389 3143.528, 1559.389 3153.528, 1559.389 3163.528, 1559.389 3173.528, 1559.389 3183.528, 1559.389 3193.528, 1559.389 3203.528, 1559.389 3213.528, 1559.389 3223.528, 1559.389 3233.528, 1559.389 3243.528, 1559.389 3253.528, 1559.389 3263.528, 1559.389 3273.528, 1559.389 3283.528, 1559.389 3293.528, 1559.389 3303.528, 1559.389 3313.528, 1559.389 3323.528, 1559.389 3333.528, 1559.389 3343.528, 1559.389 3353.528, 1559.389 3363.528, 1559.389 3373.528, 1559.389 3383.528, 1559.389 3393.528, 1559.389 3403.528, 1559.389 3413.528, 1559.389 3423.528, 1559.389 3433.528, 1559.389 3443.528, 1559.389 3453.528, 1559.389 3463.528, 1559.389 3473.528, 1559.389 3483.528, 1559.389 3493.528, 1559.389 3503.528, 1559.389 3513.528, 1559.389 3523.528, 1559.389 3533.528, 1559.389 3543.528, 1559.389 3553.528, 1559.389 3563.528, 1559.389 3573.528, 1559.389 3583.528, 1559.389 3593.528, 1559.389 3603.528, 1559.389 3613.528, 1559.389 3623.528, 1559.389 3633.528, 1559.389 3643.528, 1559.389 3653.528, 1559.389 3663.528, 1559.389 3673.528, 1559.389 3683.528, 1559.389 3693.528, 1559.389 3703.528, 1559.389 3713.528, 1559.389 3732.550, 1559.389 3735.517, 1559.389 3738.539, 1559.389 3748.539, 1559.389 3758.539, 1559.389 3768.539, 1559.389 3778.539, 1559.389 3788.539, 1559.389 3798.539, 1559.389 3808.539, 1559.389 3818.539, 1559.389 3828.539, 1559.389 3838.539, 1559.389 3848.539, 1559.389 3858.539, 1559.389 3868.539, 1559.389 3878.539, 1559.389 3888.539, 1559.389 3898.539, 1559.389 3908.539, 1559.389 3918.539, 1559.389 3928.539, 1559.389 3938.539, 1559.389 3948.539, 1559.389 3958.539, 1559.389 3968.539, 1559.389 3978.539, 1559.389 3988.539, 1559.389 3998.539, 1559.389 4008.539, 1559.389 4018.539, 1559.389 4028.539, 1559.389 4038.539, 1559.389 4048.539, 1559.389 4058.539, 1559.389 4068.539, 1559.389 4078.539, 1559.389 4085.769, 1559.389 " />
            <path fill="none" stroke-width="3.0" stroke-linecap="butt" stroke-opacity="1.0" stroke="rgb(0, 0, 0)" stroke-linejoin="round" d=" M 1362.994, 450.796 1362.796, 453.438 1362.467, 456.068 1362.007, 458.677 " />
            <path fill="none" stroke-width="3.0" stroke-linecap="butt" stroke-opacity="1.0" stroke="rgb(0, 0, 0)" stroke-linejoin="round" d=" M 1362.467, 440.227 1362.796, 442.857 1362.994, 445.499 1363.060, 448.147 1362.994, 450.796 " />
            <path fill="none" stroke-width="3.0" stroke-linecap="butt" stroke-opacity="1.0" stroke="rgb(0, 0, 0)" stroke-linejoin="round" d=" M 1362.007, 437.618 1362.467, 440.227 " />
            <path fill="none" stroke-width="3.0" stroke-linecap="butt" stroke-opacity="1.0" stroke="rgb(0, 0, 0)" stroke-linejoin="round" d=" M 1357.798, 425.092 1358.888, 427.508 1359.856, 429.974 1360.700, 432.484 1361.417, 435.035 1362.007, 437.618 " />
            <path fill="none" stroke-width="3.0" stroke-linecap="butt" stroke-opacity="1.0" stroke="rgb(0, 0, 0)" stroke-linejoin="round" d=" M 1356.589, 422.734 1357.798, 425.092 " />
            <path fill="none" stroke-width="3.0" stroke-linecap="butt" stroke-opacity="1.0" stroke="rgb(0, 0, 0)" stroke-linejoin="round" d=" M 1355.265, 420.440 1356.589, 422.734 " />
            <path fill="none" stroke-width="3.0" stroke-linecap="butt" stroke-opacity="1.0" stroke="rgb(0, 0, 0)" stroke-linejoin="round" d=" M 1336.492, 402.130 1338.753, 403.512 1340.942, 405.003 1343.054, 406.603 1345.083, 408.306 1347.026, 410.109 1348.876, 412.005 1350.629, 413.992 1352.281, 416.063 1353.827, 418.214 1355.265, 420.440 " />
            <path fill="none" stroke-width="3.0" stroke-linecap="butt" stroke-opacity="1.0" stroke="rgb(0, 0, 0)" stroke-linejoin="round" d=" M 1227.942, 23.621 1217.942, 23.621 1207.942, 23.621 1197.942, 23.621 1187.942, 23.621 1177.942, 23.621 1167.942, 23.621 1157.942, 23.621 1147.942, 23.621 1137.942, 23.621 1127.942, 23.621 1117.942, 23.621 1107.942, 23.621 1097.942, 23.621 1087.942, 23.621 1077.942, 23.621 1067.942, 23.621 1057.942, 23.621 1047.942, 23.621 1037.942, 23.621 1027.942, 23.621 1017.942, 23.621 1007.942, 23.621 997.942, 23.621 987.942, 23.621 977.942, 23.621 967.942, 23.621 957.942, 23.621 947.942, 23.621 937.942, 23.621 927.942, 23.621 917.942, 23.621 907.942, 23.621 897.942, 23.621 887.942, 23.621 877.942, 23.621 867.942, 23.621 857.942, 23.621 847.942, 23.621 837.942, 23.621 827.942, 23.621 817.942, 23.621 807.942, 23.621 797.942, 23.621 787.942, 23.621 777.942, 23.621 767.942, 23.621 757.942, 23.621 747.942, 23.621 737.942, 23.621 727.942, 23.621 717.942, 23.621 707.942, 23.621 697.942, 23.621 687.942, 23.621 677.942, 23.621 667.942, 23.621 657.942, 23.621 647.942, 23.621 637.942, 23.621 627.942, 23.621 617.942, 23.621 607.942, 23.621 597.942, 23.621 587.942, 23.621 577.942, 23.621 567.942, 23.621 557.942, 23.621 547.942, 23.621 537.942, 23.621 527.942, 23.621 517.942, 23.621 507.942, 23.621 497.942, 23.621 487.942, 23.621 477.942, 23.621 467.942, 23.621 457.942, 23.621 447.941, 23.621 437.942, 23.621 427.942, 23.621 417.942, 23.621 407.941, 23.621 397.942, 23.621 387.942, 23.621 377.942, 23.621 367.158, 23.621 " />
            <path fill="none" stroke-width="3.0" stroke-linecap="butt" stroke-opacity="1.0" stroke="rgb(0, 0, 0)" stroke-linejoin="round" d=" M 1767.154, 23.621 1757.154, 23.623 1747.154, 23.624 1737.154, 23.625 1727.154, 23.626 1717.154, 23.628 1707.154, 23.629 1697.154, 23.630 1687.154, 23.631 1677.154, 23.633 1667.154, 23.634 1657.154, 23.635 1647.154, 23.637 1637.154, 23.638 1627.154, 23.639 1617.154, 23.640 1607.154, 23.642 1597.154, 23.643 1587.154, 23.644 1577.154, 23.646 1567.154, 23.647 1557.154, 23.648 1547.154, 23.649 1537.154, 23.651 1527.154, 23.652 1517.154, 23.653 1507.154, 23.654 1497.154, 23.656 1487.154, 23.657 1477.154, 23.658 1467.154, 23.659 1457.154, 23.661 1447.154, 23.662 1437.154, 23.663 1427.154, 23.665 1417.154, 23.666 1407.154, 23.667 1397.154, 23.668 1387.154, 23.670 1377.154, 23.671 1367.154, 23.672 1357.154, 23.673 1347.154, 23.675 1337.154, 23.676 1327.154, 23.677 1317.154, 23.679 1307.154, 23.680 1297.154, 23.681 1287.154, 23.682 1277.154, 23.684 1267.154, 23.685 1261.198, 23.686 1259.561, 23.737 " />
            <path fill="none" stroke-width="3.0" stroke-linecap="butt" stroke-opacity="1.0" stroke="rgb(0, 0, 0)" stroke-linejoin="round" d=" M 1259.561, 23.737 1257.926, 23.737 1256.223, 23.737 1254.456, 23.737 " />
            <path fill="none" stroke-width="3.0" stroke-linecap="butt" stroke-opacity="1.0" stroke="rgb(0, 0, 0)" stroke-linejoin="round" d=" M 1321.748, 396.343 1324.315, 396.997 1326.847, 397.777 1329.337, 398.684 1331.778, 399.713 1334.165, 400.862 1336.492, 402.130 " />
            <path fill="none" stroke-width="3.0" stroke-linecap="butt" stroke-opacity="1.0" stroke="rgb(0, 0, 0)" stroke-linejoin="round" d=" M 1254.456, 23.737 1252.629, 23.737 1250.748, 23.737 1248.816, 23.737 1246.841, 23.737 1244.826, 23.737 1242.777, 23.737 1240.700, 23.737 1238.600, 23.737 1236.484, 23.737 1234.356, 23.737 1232.222, 23.737 1230.089, 23.738 1227.942, 23.621 " />
            <path fill="none" stroke-width="3.0" stroke-linecap="butt" stroke-opacity="1.0" stroke="rgb(0, 0, 0)" stroke-linejoin="round" d=" M 1319.151, 395.817 1321.748, 396.343 " />
            <path fill="none" stroke-width="3.0" stroke-linecap="butt" stroke-opacity="1.0" stroke="rgb(0, 0, 0)" stroke-linejoin="round" d=" M 1305.953, 395.159 1308.599, 395.027 1311.248, 395.027 1313.895, 395.159 1316.531, 395.422 1319.151, 395.817 " />
            <path fill="none" stroke-width="3.0" stroke-linecap="butt" stroke-opacity="1.0" stroke="rgb(0, 0, 0)" stroke-linejoin="round" d=" M 1303.316, 395.422 1305.953, 395.159 " />
            <path fill="none" stroke-width="3.0" stroke-linecap="butt" stroke-opacity="1.0" stroke="rgb(0, 0, 0)" stroke-linejoin="round" d=" M 3815.903, 304.077 3812.769, 294.581 3809.635, 285.085 3806.501, 275.589 3803.367, 266.093 3800.233, 256.596 3797.099, 247.100 3793.965, 237.604 3790.832, 228.108 3787.698, 218.611 3784.563, 209.115 3781.430, 199.619 3778.296, 190.123 3775.162, 180.626 3772.028, 171.130 3768.894, 161.634 3765.760, 152.138 3762.626, 142.642 3759.492, 133.145 3756.358, 123.649 3753.224, 114.153 3750.090, 104.657 3746.956, 95.161 3743.822, 85.664 3740.688, 76.168 3737.554, 66.672 3734.420, 57.176 3731.286, 47.679 3728.152, 38.183 3725.018, 28.687 3723.346, 23.621 3713.346, 23.621 3703.346, 23.621 3693.346, 23.621 3683.346, 23.621 3673.346, 23.621 3663.346, 23.621 3653.346, 23.621 3643.346, 23.621 3633.346, 23.621 3623.346, 23.621 3621.442, 23.621 3620.800, 23.621 3620.161, 23.621 3619.526, 23.621 3618.898, 23.621 3608.898, 23.621 3598.898, 23.621 3588.898, 23.621 3578.898, 23.621 3570.846, 23.621 3569.984, 23.621 3569.135, 23.621 3559.135, 23.621 3549.135, 23.621 3539.135, 23.621 3529.135, 23.621 3519.135, 23.621 3509.135, 23.621 3499.135, 23.621 3489.135, 23.621 3479.135, 23.621 3469.135, 23.621 3459.135, 23.621 3449.135, 23.621 3439.135, 23.621 3429.135, 23.621 3423.050, 23.621 3421.577, 23.621 3420.130, 23.621 3418.715, 23.621 3408.715, 23.621 3398.715, 23.621 3388.715, 23.621 3378.715, 23.621 3368.715, 23.621 3358.715, 23.621 3348.715, 23.621 3338.715, 23.621 3328.715, 23.621 3318.715, 23.621 3308.715, 23.621 3298.715, 23.621 3288.715, 23.621 3278.715, 23.621 3268.715, 23.621 3258.715, 23.621 3248.715, 23.621 3238.715, 23.621 3228.715, 23.621 3218.715, 23.621 3208.715, 23.621 3198.715, 23.621 3188.715, 23.621 3178.715, 23.621 3170.545, 23.621 3168.317, 23.621 3166.127, 23.621 3163.979, 23.621 3161.882, 23.621 3159.840, 23.621 3157.862, 23.621 3155.952, 23.621 3154.117, 23.621 3152.362, 23.621 3150.692, 23.621 3149.112, 23.621 3139.112, 23.621 3129.112, 23.621 3119.112, 23.621 3109.112, 23.621 3099.112, 23.621 3089.112, 23.621 3079.112, 23.621 3069.112, 23.621 3059.112, 23.621 3049.112, 23.621 3039.112, 23.621 3029.112, 23.621 3019.112, 23.621 3009.112, 23.621 2999.112, 23.621 2989.112, 23.621 2979.112, 23.621 2969.112, 23.621 2959.112, 23.621 2949.112, 23.621 2939.112, 23.621 2929.112, 23.621 2919.112, 23.621 2909.112, 23.621 2899.112, 23.621 2889.112, 23.621 2879.112, 23.621 2869.112, 23.621 2859.112, 23.621 2849.112, 23.621 2839.112, 23.621 2829.112, 23.621 2819.112, 23.621 2809.112, 23.621 2799.112, 23.621 2789.112, 23.621 2779.112, 23.621 2769.112, 23.621 2759.112, 23.621 2749.112, 23.621 2739.112, 23.621 2729.112, 23.621 2719.112, 23.621 2709.112, 23.621 2699.112, 23.621 2689.112, 23.621 2679.112, 23.621 2669.112, 23.621 2659.112, 23.621 2649.112, 23.621 2639.112, 23.621 2629.112, 23.621 2619.112, 23.621 2609.112, 23.621 2599.112, 23.621 2589.112, 23.621 2579.112, 23.621 2569.112, 23.621 2559.112, 23.621 2549.112, 23.621 2539.112, 23.621 2529.112, 23.621 2519.112, 23.621 2509.112, 23.621 2499.112, 23.621 2489.112, 23.621 2479.112, 23.621 2469.112, 23.621 2459.112, 23.621 2449.112, 23.621 2439.112, 23.621 2429.112, 23.621 2419.112, 23.621 2409.112, 23.621 2399.112, 23.621 2389.112, 23.621 2379.112, 23.621 2369.112, 23.621 2359.112, 23.621 2349.112, 23.621 2339.112, 23.621 2329.112, 23.621 2319.112, 23.621 2309.112, 23.621 2299.112, 23.621 2289.112, 23.621 2279.112, 23.621 2269.112, 23.621 2252.751, 23.621 2249.094, 23.621 2245.463, 23.621 2235.463, 23.621 2225.463, 23.621 2215.463, 23.621 2205.463, 23.621 2195.463, 23.621 2185.463, 23.621 2175.463, 23.621 2165.463, 23.621 2155.463, 23.621 2145.463, 23.621 2135.463, 23.621 2125.463, 23.621 2115.463, 23.621 2105.463, 23.621 2095.463, 23.621 2085.463, 23.621 2075.463, 23.621 2065.463, 23.621 2055.463, 23.621 2046.057, 23.621 2042.582, 23.621 2039.138, 23.621 2035.733, 23.621 2032.378, 23.621 2022.378, 23.621 2012.378, 23.621 2002.378, 23.621 1992.378, 23.621 1982.378, 23.621 1972.378, 23.621 1962.378, 23.621 1952.378, 23.621 1942.378, 23.621 1932.378, 23.621 1922.378, 23.621 1912.378, 23.621 1902.378, 23.621 1892.378, 23.621 1882.378, 23.621 1872.378, 23.621 1862.378, 23.621 1852.378, 23.621 1842.378, 23.621 1832.378, 23.621 1824.367, 23.621 1821.283, 23.621 " />
            <path fill="none" stroke-width="3.0" stroke-linecap="butt" stroke-opacity="1.0" stroke="rgb(0, 0, 0)" stroke-linejoin="round" d=" M 1821.283, 23.621 1811.283, 23.638 1801.283, 23.654 1791.283, 23.670 1781.283, 23.687 1771.283, 23.703 1770.041, 23.705 1767.154, 23.621 " />
            <path fill="none" stroke-width="3.0" stroke-linecap="butt" stroke-opacity="1.0" stroke="rgb(0, 0, 0)" stroke-linejoin="round" d=" M 1256.853, 450.796 1256.787, 448.147 " />
            <path fill="none" stroke-width="3.0" stroke-linecap="butt" stroke-opacity="1.0" stroke="rgb(0, 0, 0)" stroke-linejoin="round" d=" M 1259.991, 466.322 1259.147, 463.810 " />
            <path fill="none" stroke-width="3.0" stroke-linecap="butt" stroke-opacity="1.0" stroke="rgb(0, 0, 0)" stroke-linejoin="round" d=" M 1267.566, 480.231 1266.020, 478.081 " />
            <path fill="none" stroke-width="3.0" stroke-linecap="butt" stroke-opacity="1.0" stroke="rgb(0, 0, 0)" stroke-linejoin="round" d=" M 1276.793, 489.691 1274.764, 487.989 " />
            <path fill="none" stroke-width="3.0" stroke-linecap="butt" stroke-opacity="1.0" stroke="rgb(0, 0, 0)" stroke-linejoin="round" d=" M 1278.905, 491.292 1276.793, 489.691 " />
            <path fill="none" stroke-width="3.0" stroke-linecap="butt" stroke-opacity="1.0" stroke="rgb(0, 0, 0)" stroke-linejoin="round" d=" M 1281.094, 492.783 1278.905, 491.292 " />
            <path fill="none" stroke-width="3.0" stroke-linecap="butt" stroke-opacity="1.0" stroke="rgb(0, 0, 0)" stroke-linejoin="round" d=" M 1356.589, 473.560 1355.265, 475.855 " />
            <path fill="none" stroke-width="3.0" stroke-linecap="butt" stroke-opacity="1.0" stroke="rgb(0, 0, 0)" stroke-linejoin="round" d=" M 1357.798, 471.203 1356.589, 473.560 " />
            <path fill="none" stroke-width="3.0" stroke-linecap="butt" stroke-opacity="1.0" stroke="rgb(0, 0, 0)" stroke-linejoin="round" d=" M 1362.007, 458.677 1361.417, 461.260 " />
            <path fill="none" stroke-width="3.0" stroke-linecap="butt" stroke-opacity="1.0" stroke="rgb(0, 0, 0)" stroke-linejoin="round" d=" M 1821.283, 23.621 1811.283, 23.621 1801.283, 23.621 1791.283, 23.621 1781.283, 23.621 1771.283, 23.621 1767.154, 23.621 " />
        </g>
    </g>
<g id="slice-labels"><text x="531.9232499999999" y="407.56299999999993" text-anchor="middle" dominant-baseline="middle" font-family="Arial, sans-serif" font-size="59.04104029059125" font-weight="bold" fill="black" stroke="none" stroke-width="7.084924834870949" paint-order="stroke fill">Slice40 (Front)</text><text x="1547.3077499999997" y="407.56299999999993" text-anchor="middle" dominant-baseline="middle" font-family="Arial, sans-serif" font-size="59.04104029059125" font-weight="bold" fill="black" stroke="none" stroke-width="7.084924834870949" paint-order="stroke fill">Slice40 (Front)</text><text x="2562.69225" y="407.56299999999993" text-anchor="middle" dominant-baseline="middle" font-family="Arial, sans-serif" font-size="59.04104029059125" font-weight="bold" fill="black" stroke="none" stroke-width="7.084924834870949" paint-order="stroke fill">Slice40 (Front)</text><text x="3578.0767499999997" y="407.56299999999993" text-anchor="middle" dominant-baseline="middle" font-family="Arial, sans-serif" font-size="59.04104029059125" font-weight="bold" fill="black" stroke="none" stroke-width="7.084924834870949" paint-order="stroke fill">Slice40 (Front)</text><text x="531.9232499999999" y="1175.447" text-anchor="middle" dominant-baseline="middle" font-family="Arial, sans-serif" font-size="59.04104029059125" font-weight="bold" fill="black" stroke="none" stroke-width="7.084924834870949" paint-order="stroke fill">Slice40 (Front)</text><text x="1547.3077499999997" y="1175.447" text-anchor="middle" dominant-baseline="middle" font-family="Arial, sans-serif" font-size="59.04104029059125" font-weight="bold" fill="black" stroke="none" stroke-width="7.084924834870949" paint-order="stroke fill">Slice40 (Front)</text><text x="2562.69225" y="1175.447" text-anchor="middle" dominant-baseline="middle" font-family="Arial, sans-serif" font-size="59.04104029059125" font-weight="bold" fill="black" stroke="none" stroke-width="7.084924834870949" paint-order="stroke fill">Slice40 (Front)</text><text x="3578.0767499999997" y="1175.447" text-anchor="middle" dominant-baseline="middle" font-family="Arial, sans-serif" font-size="59.04104029059125" font-weight="bold" fill="black" stroke="none" stroke-width="7.084924834870949" paint-order="stroke fill">Slice40 (Front)</text></g></svg>