<?xml version='1.0' encoding='utf-8'?>
<svg xmlns="http://www.w3.org/2000/svg" xmlns:inkscape="http://www.inkscape.org/namespaces/inkscape" version="1.1" width="542.0319720134139mm" height="233.14087772369385mm" viewBox="-0.40319824320606656 0.004795916912783582 6402.806396486412 2754.0004081661746" preserveAspectRatio="none">
    <g id="ViewLayer_LineSet" inkscape:groupmode="lineset" inkscape:label="ViewLayer_LineSet">
        <g inkscape:groupmode="layer" id="strokes" inkscape:label="strokes">
            <path fill="none" stroke-width="3.0" stroke-linecap="butt" stroke-opacity="1.0" stroke="rgb(0, 0, 0)" stroke-linejoin="round" d=" M 1275.612, 546.068 1273.093, 548.650 1270.449, 551.104 1267.685, 553.423 1264.809, 555.601 1261.828, 557.634 1258.750, 559.514 1255.582, 561.240 1252.332, 562.805 1249.007, 564.207 1245.617, 565.440 1242.170, 566.504 1238.674, 567.394 1235.138, 568.109 1231.571, 568.646 1227.981, 569.005 1224.378, 569.186 1220.771, 569.186 1217.167, 569.005 1213.578, 568.646 1210.010, 568.109 1206.474, 567.394 1202.978, 566.504 1199.531, 565.440 1196.141, 564.207 1192.817, 562.805 1189.566, 561.240 1186.398, 559.514 1183.320, 557.634 1180.339, 555.601 1177.464, 553.423 1174.700, 551.104 1172.055, 548.650 1169.536, 546.068 1167.149, 543.363 1164.900, 540.542 1162.794, 537.613 1160.837, 534.583 1159.033, 531.459 1157.387, 528.249 1155.903, 524.960 1154.585, 521.601 1153.436, 518.182 1152.459, 514.709 1151.657, 511.192 1151.030, 507.639 1150.582, 504.060 1150.312, 500.462 1150.222, 496.856 1150.312, 493.250 1150.582, 489.652 1151.030, 486.072 1151.657, 482.519 1152.459, 479.002 1153.436, 475.529 1154.585, 472.110 1155.903, 468.752 1157.387, 465.464 1159.033, 462.253 1160.837, 459.129 1162.794, 456.098 1164.900, 453.169 1167.149, 450.349 1169.536, 447.644 1172.055, 445.062 1174.700, 442.608 1177.464, 440.289 1180.339, 438.110 1183.320, 436.078 1186.398, 434.197 1189.566, 432.471 1192.817, 430.906 1196.141, 429.505 1199.531, 428.271 1202.978, 427.208 1206.474, 426.318 1210.010, 425.603 1213.578, 425.065 1217.167, 424.706 1220.771, 424.526 1224.378, 424.526 1227.981, 424.706 1231.571, 425.065 1235.138, 425.603 1238.674, 426.318 1242.170, 427.208 1245.617, 428.271 1249.007, 429.505 1252.332, 430.906 1255.582, 432.471 1258.750, 434.197 1261.828, 436.078 1264.809, 438.110 1267.685, 440.289 1270.449, 442.608 1273.093, 445.062 1275.612, 447.644 1277.999, 450.349 1280.249, 453.169 1282.354, 456.098 1284.312, 459.129 1286.116, 462.253 1287.761, 465.464 1289.245, 468.752 1290.563, 472.110 1291.712, 475.529 1292.689, 479.002 1293.492, 482.519 1294.118, 486.072 1294.567, 489.652 1294.837, 493.250 1294.927, 496.856 1294.837, 500.462 1294.567, 504.060 1294.118, 507.639 1293.492, 511.192 1292.689, 514.709 1291.712, 518.182 1290.563, 521.601 1289.245, 524.960 1287.761, 528.249 1286.116, 531.459 1284.312, 534.583 1282.354, 537.613 1280.249, 540.542 1277.999, 543.363 1275.612, 546.068 " />
            <path fill="none" stroke-width="3.0" stroke-linecap="butt" stroke-opacity="1.0" stroke="rgb(0, 0, 0)" stroke-linejoin="round" d=" M 2355.807, 23.723 2355.919, 23.677 2355.931, 23.679 " />
            <path fill="none" stroke-width="3.0" stroke-linecap="butt" stroke-opacity="1.0" stroke="rgb(0, 0, 0)" stroke-linejoin="round" d=" M 2355.852, 23.672 2355.745, 23.714 2355.750, 23.715 2355.754, 23.715 2355.758, 23.716 2355.763, 23.717 2355.767, 23.717 2355.772, 23.718 2355.776, 23.719 2355.781, 23.719 2355.785, 23.720 2355.790, 23.720 2355.794, 23.721 2355.798, 23.722 2355.802, 23.723 2355.807, 23.723 " />
            <path fill="none" stroke-width="3.0" stroke-linecap="butt" stroke-opacity="1.0" stroke="rgb(0, 0, 0)" stroke-linejoin="round" d=" M 6305.858, 870.074 6304.251, 860.204 6302.645, 850.334 6301.038, 840.464 6299.431, 830.594 6297.825, 820.724 6297.002, 815.675 6294.328, 806.039 6291.653, 796.403 6288.979, 786.768 6286.304, 777.132 6283.629, 767.496 6280.954, 757.861 6278.279, 748.225 6275.604, 738.589 6272.930, 728.954 6270.255, 719.318 6267.581, 709.682 6264.906, 700.047 6262.231, 690.411 6259.556, 680.775 6256.881, 671.140 6254.207, 661.504 6251.532, 651.869 6248.857, 642.233 6246.183, 632.597 6243.508, 622.962 6240.833, 613.326 6238.159, 603.690 6235.484, 594.055 6232.809, 584.419 6230.134, 574.783 6227.459, 565.148 6224.785, 555.512 6223.838, 552.102 6221.348, 542.417 6218.858, 532.731 6216.369, 523.046 6213.878, 513.361 6211.389, 503.676 6208.899, 493.991 6206.409, 484.306 6203.919, 474.621 6201.429, 464.936 6198.939, 455.251 6196.450, 445.566 6193.960, 435.881 6191.470, 426.196 6188.980, 416.510 6186.490, 406.825 6184.000, 397.140 6181.510, 387.455 6178.878, 377.216 6178.073, 367.248 6177.269, 357.281 6176.921, 352.976 " />
            <path fill="none" stroke-width="3.0" stroke-linecap="butt" stroke-opacity="1.0" stroke="rgb(0, 0, 0)" stroke-linejoin="round" d=" M 6301.128, 1546.897 6302.635, 1537.012 6304.143, 1527.126 6305.651, 1517.240 6307.158, 1507.354 6308.666, 1497.469 6310.174, 1487.583 6311.682, 1477.698 6313.189, 1467.812 6314.697, 1457.926 6316.205, 1448.040 6317.712, 1438.155 6319.220, 1428.269 6320.728, 1418.383 6322.235, 1408.498 6323.743, 1398.612 6325.250, 1388.726 6326.758, 1378.841 6328.266, 1368.955 6329.773, 1359.069 6331.281, 1349.183 6332.789, 1339.298 6334.296, 1329.412 6335.255, 1323.129 " />
            <path fill="none" stroke-width="3.0" stroke-linecap="butt" stroke-opacity="1.0" stroke="rgb(0, 0, 0)" stroke-linejoin="round" d=" M 6378.778, 2537.653 6376.619, 2527.889 6374.458, 2518.126 6372.298, 2508.362 6370.138, 2498.598 6369.902, 2497.531 6370.101, 2487.533 6370.299, 2477.535 6370.498, 2467.537 6370.697, 2457.539 6370.896, 2447.541 6371.094, 2437.543 6371.293, 2427.545 6371.492, 2417.547 6371.690, 2407.549 6371.889, 2397.551 6372.087, 2387.553 6372.286, 2377.555 6372.485, 2367.557 6372.684, 2357.559 6372.882, 2347.561 6373.081, 2337.563 6373.280, 2327.565 6373.479, 2317.567 6373.677, 2307.569 6373.876, 2297.571 6374.074, 2287.573 6374.273, 2277.574 6374.472, 2267.576 6374.670, 2257.578 6374.869, 2247.580 6375.068, 2237.582 6375.267, 2227.584 6375.465, 2217.586 6375.664, 2207.588 6375.862, 2197.590 6376.061, 2187.592 6376.260, 2177.594 6376.458, 2167.596 6376.653, 2157.817 " />
            <path fill="none" stroke-width="3.0" stroke-linecap="butt" stroke-opacity="1.0" stroke="rgb(0, 0, 0)" stroke-linejoin="round" d=" M 4580.755, 2730.380 4590.755, 2730.380 4600.755, 2730.380 4610.755, 2730.380 4620.755, 2730.380 4630.755, 2730.380 4640.755, 2730.380 4650.755, 2730.380 4660.755, 2730.380 4670.755, 2730.380 4680.755, 2730.380 4690.755, 2730.380 4700.755, 2730.380 4710.755, 2730.380 4720.755, 2730.380 4730.755, 2730.380 4740.755, 2730.380 4750.755, 2730.380 4760.755, 2730.380 4770.755, 2730.380 4780.755, 2730.380 4790.755, 2730.380 4800.755, 2730.380 4810.755, 2730.380 4820.755, 2730.380 4830.755, 2730.380 4840.755, 2730.380 4850.755, 2730.380 4860.755, 2730.380 4870.755, 2730.380 4880.755, 2730.380 4890.755, 2730.380 4900.755, 2730.380 4910.755, 2730.380 4920.755, 2730.380 4930.755, 2730.380 4940.755, 2730.380 4950.755, 2730.380 4960.755, 2730.380 4970.755, 2730.380 4980.755, 2730.380 4990.755, 2730.380 5000.755, 2730.380 5010.755, 2730.380 5020.755, 2730.380 5030.755, 2730.380 5040.755, 2730.380 5050.755, 2730.380 5060.755, 2730.380 5070.755, 2730.380 5080.755, 2730.380 5090.755, 2730.380 5100.755, 2730.380 5110.755, 2730.380 5120.755, 2730.380 5130.755, 2730.380 5140.755, 2730.380 5150.755, 2730.380 5160.755, 2730.380 5170.755, 2730.380 5180.755, 2730.380 5190.755, 2730.380 5200.755, 2730.380 5210.755, 2730.380 5220.755, 2730.380 5230.755, 2730.380 5240.755, 2730.380 5250.755, 2730.380 5260.755, 2730.380 5270.755, 2730.380 5280.755, 2730.380 5290.755, 2730.380 5300.755, 2730.380 5310.755, 2730.380 5320.755, 2730.380 5330.755, 2730.380 5340.755, 2730.380 5350.755, 2730.380 5360.755, 2730.380 5374.644, 2730.380 5384.644, 2730.380 5394.644, 2730.380 5404.644, 2730.380 5414.644, 2730.380 5424.644, 2730.380 5434.644, 2730.380 5444.644, 2730.380 5454.644, 2730.380 5464.644, 2730.380 5474.644, 2730.380 5484.644, 2730.380 5494.644, 2730.380 5504.644, 2730.380 5514.644, 2730.380 5524.644, 2730.380 5534.644, 2730.380 5544.644, 2730.380 5554.644, 2730.380 5564.644, 2730.380 5574.644, 2730.380 5584.644, 2730.380 5594.644, 2730.380 5604.644, 2730.380 5614.644, 2730.380 5624.644, 2730.380 5634.644, 2730.380 5644.644, 2730.380 5654.644, 2730.380 5664.644, 2730.380 5674.643, 2730.380 5684.644, 2730.380 5694.644, 2730.380 5704.643, 2730.380 5714.644, 2730.380 5724.644, 2730.380 5734.643, 2730.380 5744.644, 2730.380 5754.644, 2730.380 5764.644, 2730.380 5774.644, 2730.380 5784.644, 2730.380 5794.644, 2730.380 5804.644, 2730.380 5814.644, 2730.380 5824.644, 2730.380 5834.644, 2730.380 5844.644, 2730.380 5854.644, 2730.380 5864.644, 2730.380 5874.644, 2730.380 5884.644, 2730.380 5894.643, 2730.380 5904.643, 2730.380 5914.644, 2730.380 5924.644, 2730.380 5934.644, 2730.380 5944.644, 2730.380 5954.643, 2730.380 5964.643, 2730.380 5974.643, 2730.380 5984.644, 2730.380 5994.644, 2730.380 6004.644, 2730.380 6014.644, 2730.380 6024.643, 2730.380 6034.643, 2730.380 6044.644, 2730.380 6054.644, 2730.380 6064.644, 2730.380 6074.644, 2730.380 6084.643, 2730.380 6094.643, 2730.380 6104.644, 2730.380 6114.644, 2730.380 6124.644, 2730.380 6134.644, 2730.380 6144.643, 2730.380 6154.643, 2730.380 6164.643, 2730.380 6174.644, 2730.380 6184.644, 2730.380 6194.644, 2730.380 6204.644, 2730.380 6214.643, 2730.380 6224.643, 2730.380 6234.644, 2730.380 6244.644, 2730.380 6254.644, 2730.380 6264.644, 2730.380 6274.643, 2730.380 6284.643, 2730.380 6294.644, 2730.380 6304.644, 2730.380 6314.644, 2730.380 6324.644, 2730.380 6336.236, 2730.380 6337.958, 2720.529 6339.679, 2710.678 6341.400, 2700.828 6343.121, 2690.977 6344.842, 2681.126 6346.563, 2671.275 6348.284, 2661.425 6350.005, 2651.574 6351.727, 2641.723 6353.448, 2631.872 6355.169, 2622.022 6356.890, 2612.171 6358.611, 2602.320 6359.930, 2594.776 6363.063, 2585.280 6366.197, 2575.783 6369.330, 2566.287 6372.464, 2556.790 6375.597, 2547.294 6378.778, 2537.653 " />
            <path fill="none" stroke-width="3.0" stroke-linecap="butt" stroke-opacity="1.0" stroke="rgb(0, 0, 0)" stroke-linejoin="round" d=" M 535.751, 1441.604 537.987, 1451.351 540.223, 1461.098 542.459, 1470.844 544.695, 1480.591 546.931, 1490.338 549.167, 1500.085 551.403, 1509.832 553.639, 1519.579 555.875, 1529.325 558.111, 1539.072 560.347, 1548.819 562.583, 1558.566 564.819, 1568.313 567.055, 1578.059 569.291, 1587.806 571.527, 1597.553 573.763, 1607.300 575.999, 1617.047 578.235, 1626.794 580.471, 1636.540 582.707, 1646.287 584.943, 1656.034 587.179, 1665.781 588.663, 1672.251 587.488, 1682.182 586.312, 1692.113 585.136, 1702.043 583.960, 1711.974 582.784, 1721.904 581.608, 1731.835 580.432, 1741.766 579.257, 1751.696 578.081, 1761.627 576.905, 1771.558 575.729, 1781.488 574.553, 1791.419 573.377, 1801.349 572.202, 1811.280 571.026, 1821.211 569.850, 1831.141 568.674, 1841.072 567.498, 1851.003 566.593, 1858.651 568.693, 1868.428 570.794, 1878.205 572.895, 1887.982 574.996, 1897.759 577.097, 1907.535 579.198, 1917.312 581.299, 1927.089 583.400, 1936.866 585.501, 1946.643 587.601, 1956.420 589.702, 1966.196 591.803, 1975.973 593.904, 1985.750 596.005, 1995.527 598.106, 2005.304 600.207, 2015.081 602.308, 2024.857 604.409, 2034.634 606.509, 2044.411 608.610, 2054.188 610.711, 2063.965 612.812, 2073.741 614.913, 2083.518 617.014, 2093.295 619.115, 2103.072 621.216, 2112.849 623.317, 2122.626 625.417, 2132.402 626.022, 2135.215 625.601, 2145.206 625.181, 2155.198 624.760, 2165.189 624.339, 2175.180 623.918, 2185.171 623.498, 2195.162 623.077, 2205.153 622.656, 2215.144 622.236, 2225.136 621.815, 2235.127 621.394, 2245.118 620.974, 2255.109 620.553, 2265.100 620.132, 2275.091 619.711, 2285.082 619.291, 2295.074 618.870, 2305.065 618.449, 2315.056 618.029, 2325.047 617.608, 2335.038 617.187, 2345.029 616.767, 2355.020 616.346, 2365.012 615.925, 2375.003 615.504, 2384.994 615.084, 2394.985 614.663, 2404.976 614.242, 2414.967 613.822, 2424.958 613.401, 2434.950 612.980, 2444.941 612.560, 2454.932 612.139, 2464.923 611.718, 2474.914 611.297, 2484.905 610.877, 2494.896 610.607, 2501.316 " />
            <path fill="none" stroke-width="3.0" stroke-linecap="butt" stroke-opacity="1.0" stroke="rgb(0, 0, 0)" stroke-linejoin="round" d=" M 472.250, 1009.983 471.879, 1019.976 471.508, 1029.969 471.137, 1039.963 470.766, 1049.956 470.395, 1059.949 470.023, 1069.942 469.652, 1079.935 469.281, 1089.928 468.910, 1099.921 468.539, 1109.914 468.168, 1119.908 467.797, 1129.901 467.426, 1139.894 467.055, 1149.887 466.684, 1159.880 466.312, 1169.873 465.941, 1179.866 465.570, 1189.859 465.199, 1199.852 464.828, 1209.846 464.457, 1219.839 464.086, 1229.832 463.715, 1239.825 463.344, 1249.818 463.192, 1253.898 466.798, 1263.225 470.403, 1272.552 474.009, 1281.880 477.614, 1291.207 481.220, 1300.535 484.826, 1309.862 488.431, 1319.189 492.037, 1328.517 495.642, 1337.844 499.248, 1347.171 502.853, 1356.499 506.459, 1365.826 510.065, 1375.154 513.670, 1384.481 517.276, 1393.808 520.881, 1403.136 524.487, 1412.463 528.092, 1421.790 531.698, 1431.118 535.751, 1441.604 " />
            <path fill="none" stroke-width="3.0" stroke-linecap="butt" stroke-opacity="1.0" stroke="rgb(0, 0, 0)" stroke-linejoin="round" d=" M 378.982, 698.325 381.849, 707.906 384.716, 717.486 387.583, 727.066 390.450, 736.646 393.317, 746.226 396.184, 755.807 399.051, 765.387 401.918, 774.967 404.785, 784.547 407.652, 794.127 410.519, 803.708 413.386, 813.288 416.253, 822.868 419.120, 832.448 421.987, 842.028 424.854, 851.609 427.721, 861.189 430.588, 870.769 433.455, 880.349 436.322, 889.929 439.189, 899.510 442.056, 909.090 444.923, 918.670 447.790, 928.250 450.657, 937.830 453.524, 947.411 456.391, 956.991 459.258, 966.571 462.125, 976.151 464.992, 985.731 467.859, 995.312 470.726, 1004.892 472.250, 1009.983 " />
            <path fill="none" stroke-width="3.0" stroke-linecap="butt" stroke-opacity="1.0" stroke="rgb(0, 0, 0)" stroke-linejoin="round" d=" M 159.987, 297.237 163.766, 306.495 167.545, 315.753 171.324, 325.012 175.104, 334.270 178.883, 343.528 182.662, 352.787 186.442, 362.045 190.221, 371.303 194.000, 380.562 197.779, 389.820 201.559, 399.078 205.338, 408.337 209.117, 417.595 212.897, 426.854 216.676, 436.112 220.455, 445.370 224.234, 454.628 228.014, 463.887 231.793, 473.145 235.572, 482.404 239.351, 491.662 243.131, 500.920 246.972, 510.331 252.719, 518.515 258.466, 526.699 264.212, 534.883 269.959, 543.066 275.706, 551.250 281.452, 559.434 287.199, 567.618 292.946, 575.802 298.692, 583.986 304.439, 592.169 310.186, 600.353 315.932, 608.537 321.679, 616.721 327.426, 624.905 333.173, 633.089 338.919, 641.273 344.666, 649.457 350.413, 657.640 356.159, 665.824 361.906, 674.008 367.653, 682.192 373.399, 690.376 378.982, 698.325 " />
            <path fill="none" stroke-width="3.0" stroke-linecap="butt" stroke-opacity="1.0" stroke="rgb(0, 0, 0)" stroke-linejoin="round" d=" M 1392.588, 23.630 1391.842, 23.630 1387.914, 23.630 1384.098, 23.630 1380.406, 23.630 1376.849, 23.630 1373.436, 23.630 1363.436, 23.630 1353.436, 23.630 1343.436, 23.630 1333.436, 23.630 1323.436, 23.630 1313.436, 23.630 1303.436, 23.630 1293.436, 23.630 1283.436, 23.630 1273.436, 23.630 1263.436, 23.630 1253.436, 23.630 1243.436, 23.630 1233.436, 23.630 1223.436, 23.630 1213.436, 23.630 1203.436, 23.630 1193.436, 23.630 1183.436, 23.630 1173.436, 23.630 1163.436, 23.630 1153.436, 23.630 1143.436, 23.630 1133.436, 23.630 1123.436, 23.630 1113.436, 23.630 1103.436, 23.630 1093.436, 23.630 1083.436, 23.630 1073.436, 23.630 1063.436, 23.630 1053.436, 23.630 1043.436, 23.630 1033.436, 23.630 1023.436, 23.630 1013.436, 23.630 1003.436, 23.630 993.436, 23.630 983.436, 23.630 973.436, 23.630 963.436, 23.630 953.436, 23.630 943.436, 23.630 933.436, 23.630 923.436, 23.630 913.436, 23.630 903.436, 23.630 893.436, 23.630 883.436, 23.630 873.436, 23.630 863.436, 23.630 853.436, 23.630 843.436, 23.630 833.436, 23.630 823.436, 23.630 813.436, 23.630 803.436, 23.630 793.436, 23.630 783.436, 23.630 773.436, 23.630 763.436, 23.630 753.436, 23.630 743.436, 23.630 733.436, 23.630 723.436, 23.630 713.436, 23.630 703.436, 23.630 693.436, 23.630 683.436, 23.630 673.436, 23.630 663.436, 23.630 653.436, 23.630 643.436, 23.630 633.436, 23.630 623.436, 23.630 613.436, 23.630 603.436, 23.630 593.436, 23.630 583.436, 23.630 573.436, 23.630 563.436, 23.630 553.436, 23.630 543.436, 23.630 533.436, 23.630 522.063, 23.630 518.069, 23.630 508.069, 23.630 498.069, 23.630 488.069, 23.630 478.069, 23.630 468.069, 23.630 458.069, 23.630 448.069, 23.630 438.069, 23.630 428.069, 23.630 418.069, 23.630 408.069, 23.630 398.069, 23.630 388.069, 23.630 378.069, 23.630 368.069, 23.630 358.069, 23.630 348.069, 23.630 338.069, 23.630 328.069, 23.630 318.069, 23.630 308.069, 23.630 298.069, 23.630 288.069, 23.630 278.069, 23.630 268.069, 23.630 258.069, 23.630 248.069, 23.630 238.069, 23.630 228.069, 23.630 218.069, 23.630 208.069, 23.630 198.069, 23.630 188.069, 23.630 178.069, 23.630 168.069, 23.630 158.069, 23.630 148.069, 23.630 138.069, 23.630 128.069, 23.630 118.069, 23.630 108.069, 23.630 96.697, 23.630 95.916, 23.630 95.096, 23.630 94.240, 23.630 93.354, 23.630 92.442, 23.630 91.507, 23.630 87.514, 23.630 77.514, 23.630 67.514, 23.630 57.514, 23.630 47.514, 23.630 37.514, 23.630 27.514, 23.630 23.222, 23.630 27.693, 32.575 32.164, 41.520 36.635, 50.465 41.106, 59.409 45.577, 68.354 50.049, 77.299 54.520, 86.244 58.991, 95.188 63.462, 104.133 67.933, 113.078 72.404, 122.023 76.875, 130.968 81.347, 139.912 85.818, 148.857 90.289, 157.802 94.760, 166.747 99.231, 175.691 103.702, 184.636 108.173, 193.581 112.644, 202.526 117.116, 211.470 121.587, 220.415 126.058, 229.360 130.529, 238.305 135.000, 247.250 139.471, 256.194 143.942, 265.139 148.414, 274.084 152.885, 283.029 157.356, 291.973 159.987, 297.237 " />
            <path fill="none" stroke-width="3.0" stroke-linecap="butt" stroke-opacity="1.0" stroke="rgb(0, 0, 0)" stroke-linejoin="round" d=" M 5231.981, 1685.306 5229.462, 1687.888 5226.817, 1690.341 5224.054, 1692.661 5221.178, 1694.839 5218.198, 1696.871 5215.119, 1698.752 5211.951, 1700.477 5208.701, 1702.043 5205.376, 1703.444 5201.986, 1704.678 5198.539, 1705.742 5195.043, 1706.632 5191.507, 1707.346 5187.940, 1707.884 5184.350, 1708.244 5180.747, 1708.423 5177.140, 1708.423 5173.536, 1708.244 5169.947, 1707.884 5166.379, 1707.346 5162.843, 1706.632 5159.347, 1705.742 5155.900, 1704.678 5152.510, 1703.444 5149.186, 1702.043 5145.935, 1700.477 5142.767, 1698.752 5139.688, 1696.871 5136.708, 1694.839 5133.832, 1692.661 5131.068, 1690.341 5128.424, 1687.888 5125.905, 1685.306 5123.518, 1682.601 5121.269, 1679.780 5119.163, 1676.851 5117.206, 1673.820 5115.402, 1670.696 5113.756, 1667.486 5112.272, 1664.198 5110.954, 1660.839 5109.805, 1657.420 5108.829, 1653.947 5108.025, 1650.430 5107.399, 1646.877 5106.951, 1643.297 5106.681, 1639.700 5106.591, 1636.094 5106.681, 1632.487 5106.951, 1628.890 5107.399, 1625.310 5108.025, 1621.757 5108.829, 1618.240 5109.805, 1614.768 5110.954, 1611.348 5112.272, 1607.989 5113.756, 1604.701 5115.402, 1601.491 5117.206, 1598.367 5119.163, 1595.336 5121.269, 1592.407 5123.518, 1589.586 5125.905, 1586.881 5128.424, 1584.298 5131.068, 1581.845 5133.832, 1579.527 5136.708, 1577.348 5139.688, 1575.316 5142.767, 1573.435 5145.935, 1571.709 5149.186, 1570.144 5152.510, 1568.743 5155.900, 1567.509 5159.347, 1566.446 5162.843, 1565.555 5166.379, 1564.841 5169.947, 1564.303 5173.536, 1563.944 5177.140, 1563.764 5180.747, 1563.764 5184.350, 1563.944 5187.940, 1564.303 5191.507, 1564.841 5195.043, 1565.555 5198.539, 1566.446 5201.986, 1567.509 5205.376, 1568.743 5208.701, 1570.144 5211.951, 1571.709 5215.119, 1573.435 5218.198, 1575.316 5221.178, 1577.348 5224.054, 1579.527 5226.817, 1581.845 5229.462, 1584.298 5231.981, 1586.881 5234.368, 1589.586 5236.617, 1592.407 5238.724, 1595.336 5240.681, 1598.367 5242.484, 1601.491 5244.130, 1604.701 5245.614, 1607.989 5246.932, 1611.348 5248.081, 1614.768 5249.058, 1618.240 5249.861, 1621.757 5250.487, 1625.310 5250.936, 1628.890 5251.206, 1632.487 5251.295, 1636.094 5251.206, 1639.700 5250.936, 1643.297 5250.487, 1646.877 5249.861, 1650.430 5249.058, 1653.947 5248.081, 1657.420 5246.932, 1660.839 5245.614, 1664.198 5244.130, 1667.486 5242.484, 1670.696 5240.681, 1673.820 5238.724, 1676.851 5236.617, 1679.780 5234.368, 1682.601 5231.981, 1685.306 " />
            <path fill="none" stroke-width="3.0" stroke-linecap="butt" stroke-opacity="1.0" stroke="rgb(0, 0, 0)" stroke-linejoin="round" d=" M 4606.959, 1994.222 4609.190, 2003.970 4611.421, 2013.718 4613.652, 2023.466 4615.884, 2033.214 4618.115, 2042.962 4620.346, 2052.710 4622.577, 2062.458 4624.808, 2072.206 4627.039, 2081.954 4629.270, 2091.702 4631.501, 2101.449 4633.732, 2111.197 4635.963, 2120.945 4638.194, 2130.693 4640.425, 2140.441 4642.656, 2150.189 4644.887, 2159.937 4647.118, 2169.685 4649.198, 2178.771 4649.679, 2188.760 4650.161, 2198.748 4650.643, 2208.737 4651.125, 2218.725 4651.607, 2228.713 4652.088, 2238.702 4652.570, 2248.690 4652.844, 2254.371 4651.560, 2264.288 4650.276, 2274.205 4649.305, 2281.704 " />
            <path fill="none" stroke-width="3.0" stroke-linecap="butt" stroke-opacity="1.0" stroke="rgb(0, 0, 0)" stroke-linejoin="round" d=" M 6176.921, 352.976 6177.517, 342.994 6178.112, 333.012 6178.708, 323.030 6179.303, 313.047 6179.898, 303.065 6180.494, 293.083 6181.089, 283.100 6181.685, 273.118 6182.280, 263.136 6182.876, 253.154 6183.471, 243.171 6184.067, 233.189 6184.662, 223.207 6185.258, 213.225 6185.853, 203.242 6186.449, 193.260 6187.044, 183.278 6187.640, 173.296 6188.235, 163.313 6188.831, 153.331 6189.426, 143.349 6190.021, 133.367 6190.617, 123.384 6191.212, 113.402 6191.808, 103.420 6192.403, 93.438 6192.999, 83.455 6193.594, 73.473 6194.190, 63.491 6194.785, 53.509 6195.381, 43.526 6195.976, 33.544 6196.567, 23.630 6188.777, 23.630 6178.777, 23.630 6168.777, 23.630 6158.777, 23.630 6148.777, 23.630 6138.777, 23.630 6128.777, 23.630 6118.777, 23.630 6108.777, 23.630 6098.777, 23.630 6088.777, 23.630 6078.777, 23.630 6068.777, 23.630 6058.777, 23.630 6048.777, 23.630 6038.777, 23.630 6028.777, 23.630 6018.777, 23.630 6008.777, 23.630 5998.777, 23.630 5988.777, 23.630 5978.777, 23.630 5968.777, 23.630 5958.777, 23.630 5948.777, 23.630 5938.777, 23.630 5928.777, 23.630 5918.777, 23.630 5908.777, 23.630 5898.777, 23.630 5888.777, 23.630 5878.777, 23.630 5868.777, 23.630 5858.777, 23.630 5848.777, 23.630 5838.777, 23.630 5828.777, 23.630 5818.777, 23.630 5808.777, 23.630 5798.777, 23.630 5788.777, 23.630 5778.777, 23.630 5768.777, 23.630 5758.777, 23.630 5748.777, 23.630 5738.777, 23.630 5728.777, 23.630 5718.777, 23.630 5708.777, 23.630 5698.777, 23.630 5688.777, 23.630 5678.777, 23.630 5668.777, 23.630 5658.777, 23.630 5648.777, 23.630 5638.777, 23.630 5628.777, 23.630 5618.777, 23.630 5608.777, 23.630 5598.777, 23.630 5588.777, 23.630 5578.777, 23.630 5568.777, 23.630 5558.777, 23.630 5548.777, 23.630 5538.777, 23.630 5528.777, 23.630 5518.777, 23.630 5508.777, 23.630 5498.777, 23.630 5488.777, 23.630 5478.777, 23.630 5468.777, 23.630 5458.777, 23.630 5448.777, 23.630 5438.777, 23.630 5428.777, 23.630 5418.777, 23.630 5408.777, 23.630 5398.777, 23.630 5388.777, 23.630 5378.777, 23.630 5368.777, 23.630 5358.777, 23.630 5348.777, 23.630 5338.777, 23.630 5328.777, 23.630 5318.777, 23.630 5308.777, 23.630 5298.777, 23.630 5288.777, 23.630 5278.777, 23.630 5268.777, 23.630 5258.777, 23.630 5248.777, 23.630 5238.777, 23.630 5228.777, 23.630 5218.777, 23.630 5208.777, 23.630 5198.777, 23.630 5188.777, 23.630 5178.777, 23.630 5168.777, 23.630 5158.777, 23.630 5148.777, 23.630 5138.777, 23.630 5128.777, 23.630 5118.777, 23.630 5108.777, 23.630 5098.777, 23.630 5088.777, 23.630 5078.777, 23.630 5068.777, 23.630 5053.237, 23.630 5043.237, 23.630 5033.237, 23.630 5023.237, 23.630 5013.237, 23.630 5003.237, 23.630 4993.237, 23.630 4983.237, 23.630 4973.237, 23.630 4963.237, 23.630 4953.237, 23.630 4943.237, 23.630 4933.237, 23.630 4923.237, 23.630 4913.237, 23.630 4903.237, 23.630 4893.237, 23.630 4883.237, 23.630 4873.237, 23.630 4863.237, 23.630 4853.237, 23.630 4843.237, 23.630 4833.237, 23.630 4823.237, 23.630 4813.237, 23.630 4803.237, 23.630 4793.237, 23.630 4783.237, 23.630 4773.237, 23.630 4763.237, 23.630 4753.237, 23.630 4743.237, 23.630 4733.237, 23.630 4723.237, 23.630 4713.237, 23.630 4703.237, 23.630 4693.237, 23.630 4683.237, 23.630 4673.237, 23.630 4663.237, 23.630 4653.237, 23.630 4643.237, 23.630 4633.237, 23.630 4623.237, 23.630 4613.237, 23.630 4603.237, 23.630 4593.237, 23.630 4583.237, 23.630 4573.237, 23.630 4563.237, 23.630 4553.237, 23.630 4543.237, 23.630 4533.237, 23.630 4523.237, 23.630 4513.237, 23.630 4503.237, 23.630 4493.237, 23.630 4483.237, 23.630 4467.451, 23.630 " />
            <path fill="none" stroke-width="3.0" stroke-linecap="butt" stroke-opacity="1.0" stroke="rgb(0, 0, 0)" stroke-linejoin="round" d=" M 4584.602, 1061.523 4587.420, 1071.118 4590.239, 1080.712 4593.058, 1090.307 4595.876, 1099.901 4598.695, 1109.496 4600.315, 1115.010 4600.934, 1124.990 4601.552, 1134.971 4602.171, 1144.952 4602.790, 1154.933 4603.409, 1164.914 4604.027, 1174.895 4604.646, 1184.876 4605.265, 1194.856 4605.883, 1204.837 4606.502, 1214.818 4607.121, 1224.799 4607.739, 1234.780 4608.358, 1244.761 4608.977, 1254.741 4609.595, 1264.722 4610.214, 1274.703 4610.833, 1284.684 4611.191, 1290.459 4609.900, 1300.375 4608.609, 1310.291 4607.318, 1320.208 4606.027, 1330.124 4604.737, 1340.040 4603.446, 1349.957 4602.155, 1359.873 4600.864, 1369.789 4599.574, 1379.706 4598.283, 1389.622 4596.992, 1399.538 4595.701, 1409.455 4594.411, 1419.371 4593.120, 1429.287 4591.829, 1439.204 4590.538, 1449.120 4589.247, 1459.036 4587.957, 1468.953 4586.666, 1478.869 4585.375, 1488.786 4584.084, 1498.702 4582.793, 1508.618 4581.502, 1518.535 4580.212, 1528.451 4578.921, 1538.367 4577.630, 1548.284 4576.339, 1558.200 4575.049, 1568.116 4573.758, 1578.033 4572.467, 1587.949 4571.176, 1597.865 4569.885, 1607.782 4568.595, 1617.698 4567.304, 1627.614 4566.013, 1637.531 4564.722, 1647.447 4563.432, 1657.363 4562.141, 1667.280 4560.850, 1677.196 4559.559, 1687.112 4558.969, 1691.643 " />
            <path fill="none" stroke-width="3.0" stroke-linecap="butt" stroke-opacity="1.0" stroke="rgb(0, 0, 0)" stroke-linejoin="round" d=" M 4467.451, 23.630 4467.310, 33.629 4467.169, 43.628 4467.028, 53.627 4466.887, 63.626 4466.747, 73.625 4466.606, 83.624 4466.465, 93.623 4466.324, 103.622 4466.184, 113.621 4466.042, 123.620 4465.902, 133.619 4465.761, 143.618 4465.620, 153.617 4465.479, 163.616 4465.339, 173.615 4465.198, 183.614 4465.057, 193.613 4464.917, 203.612 4464.775, 213.611 4464.635, 223.610 4464.494, 233.609 4464.353, 243.608 4464.212, 253.607 4464.072, 263.606 4463.931, 273.605 4463.790, 283.604 4463.649, 293.604 4463.509, 303.603 4463.368, 313.602 4463.227, 323.601 4463.086, 333.599 4462.945, 343.598 4462.805, 353.597 4462.664, 363.596 4462.523, 373.595 4462.382, 383.594 4462.242, 393.594 4462.101, 403.593 4461.960, 413.592 4461.819, 423.591 4461.678, 433.590 4461.538, 443.589 4461.397, 453.588 4461.256, 463.587 4461.115, 473.586 4460.975, 483.585 4460.833, 493.583 4460.693, 503.583 4460.552, 513.582 4460.411, 523.581 4460.271, 533.580 4460.130, 543.579 4460.024, 551.102 4461.785, 560.945 4463.546, 570.789 4465.307, 580.633 4467.068, 590.477 4468.830, 600.320 4469.443, 603.749 4471.883, 613.447 4474.322, 623.145 4476.762, 632.843 4479.202, 642.541 4481.641, 652.238 4484.081, 661.936 4486.521, 671.634 4488.960, 681.332 4491.399, 691.030 4493.839, 700.728 4496.279, 710.425 4498.718, 720.123 4501.158, 729.821 4503.598, 739.519 4506.037, 749.217 4508.477, 758.915 4510.917, 768.612 4513.356, 778.310 4515.796, 788.008 4518.235, 797.706 4520.675, 807.404 4523.115, 817.102 4525.554, 826.800 4527.994, 836.497 4530.434, 846.195 4532.873, 855.893 4535.312, 865.591 4537.752, 875.289 4540.192, 884.987 4542.631, 894.684 4545.071, 904.382 4547.511, 914.080 4549.950, 923.778 4552.390, 933.476 4554.830, 943.174 4557.269, 952.872 4559.709, 962.569 4562.148, 972.267 4564.588, 981.965 4567.028, 991.663 4569.467, 1001.361 4571.907, 1011.059 4574.347, 1020.756 4576.786, 1030.454 4579.226, 1040.152 4581.666, 1049.850 4584.602, 1061.523 " />
            <path fill="none" stroke-width="3.0" stroke-linecap="butt" stroke-opacity="1.0" stroke="rgb(0, 0, 0)" stroke-linejoin="round" d=" M 613.201, 2730.380 623.201, 2730.380 633.201, 2730.380 643.201, 2730.380 653.201, 2730.380 656.864, 2730.380 666.864, 2730.380 676.864, 2730.380 686.864, 2730.380 696.864, 2730.380 706.864, 2730.380 716.864, 2730.380 726.864, 2730.380 736.864, 2730.380 746.864, 2730.380 756.864, 2730.380 766.864, 2730.380 776.864, 2730.380 786.864, 2730.380 796.864, 2730.380 806.864, 2730.380 816.864, 2730.380 826.864, 2730.380 836.864, 2730.380 846.864, 2730.380 856.864, 2730.380 866.864, 2730.380 876.864, 2730.380 886.864, 2730.380 896.864, 2730.380 906.864, 2730.380 916.864, 2730.380 926.864, 2730.380 936.864, 2730.380 946.864, 2730.380 956.864, 2730.380 966.864, 2730.380 976.864, 2730.380 986.864, 2730.380 996.864, 2730.380 1006.864, 2730.380 1016.864, 2730.380 1026.864, 2730.380 1036.864, 2730.380 1046.864, 2730.380 1056.864, 2730.380 1066.864, 2730.380 1076.864, 2730.380 1086.864, 2730.380 1096.864, 2730.380 1106.864, 2730.380 1116.864, 2730.380 1126.864, 2730.380 1136.864, 2730.380 1146.864, 2730.380 1156.864, 2730.380 1166.864, 2730.380 1176.864, 2730.380 1186.864, 2730.380 1196.864, 2730.380 1206.864, 2730.380 1216.864, 2730.380 1226.864, 2730.380 1236.864, 2730.380 1246.864, 2730.380 1256.864, 2730.380 1266.864, 2730.380 1276.864, 2730.380 1286.864, 2730.380 1296.864, 2730.380 1306.864, 2730.380 1316.864, 2730.380 1326.864, 2730.380 1336.864, 2730.380 1346.864, 2730.380 1356.864, 2730.380 1366.864, 2730.380 1376.864, 2730.380 1386.864, 2730.380 1396.864, 2730.380 1406.864, 2730.380 1416.864, 2730.380 1426.864, 2730.380 1436.864, 2730.380 1446.864, 2730.380 1456.864, 2730.380 1466.864, 2730.380 1476.864, 2730.380 1486.864, 2730.380 1496.864, 2730.380 1506.864, 2730.380 1516.864, 2730.380 1526.864, 2730.380 1536.864, 2730.380 1546.864, 2730.380 1556.864, 2730.380 1566.864, 2730.380 1576.864, 2730.380 1586.864, 2730.380 1596.864, 2730.380 1606.864, 2730.380 1616.864, 2730.380 1626.864, 2730.380 1636.864, 2730.380 1646.864, 2730.380 1656.864, 2730.380 1666.864, 2730.380 1676.864, 2730.380 1686.864, 2730.380 1696.864, 2730.380 1706.864, 2730.380 1716.864, 2730.380 1726.864, 2730.380 1736.864, 2730.380 1746.864, 2730.380 1756.864, 2730.380 1766.864, 2730.380 1776.864, 2730.380 1786.864, 2730.380 1796.864, 2730.380 1806.864, 2730.380 1816.864, 2730.380 1826.864, 2730.380 1836.864, 2730.380 1846.864, 2730.380 1856.864, 2730.380 1866.864, 2730.380 1876.864, 2730.380 1886.864, 2730.380 1896.864, 2730.380 1906.864, 2730.380 1916.864, 2730.380 1926.864, 2730.380 1936.864, 2730.380 1946.864, 2730.380 1956.864, 2730.380 1966.864, 2730.380 1976.864, 2730.380 1986.864, 2730.380 1996.864, 2730.380 2006.864, 2730.380 2016.864, 2730.380 2026.864, 2730.380 2036.864, 2730.380 2046.864, 2730.380 2056.864, 2730.380 2066.864, 2730.380 2076.865, 2730.380 2086.865, 2730.380 2096.864, 2730.380 2106.864, 2730.380 2116.865, 2730.380 2126.864, 2730.380 2136.864, 2730.380 2146.864, 2730.380 2156.865, 2730.380 2166.864, 2730.380 2176.864, 2730.380 2186.865, 2730.380 2196.865, 2730.380 2206.864, 2730.380 2216.864, 2730.380 2226.865, 2730.380 2236.864, 2730.380 2246.864, 2730.380 2256.865, 2730.380 2266.865, 2730.380 2276.864, 2730.380 2286.864, 2730.380 2296.865, 2730.380 2306.864, 2730.380 2316.864, 2730.380 2326.864, 2730.380 2336.865, 2730.380 2346.864, 2730.380 2356.864, 2730.380 2366.865, 2730.380 2376.864, 2730.380 2386.864, 2730.380 2396.864, 2730.380 2406.865, 2730.380 2416.864, 2730.380 2426.864, 2730.380 2451.252, 2730.380 2461.252, 2730.380 2471.252, 2730.380 2481.252, 2730.380 2491.252, 2730.380 2501.252, 2730.380 2511.252, 2730.380 2521.252, 2730.380 2531.252, 2730.380 2541.252, 2730.380 2551.252, 2730.380 2561.252, 2730.380 2571.252, 2730.380 2581.252, 2730.380 2591.252, 2730.380 2601.252, 2730.380 2611.252, 2730.380 2621.252, 2730.380 2631.252, 2730.380 2641.252, 2730.380 2651.252, 2730.380 2661.252, 2730.380 2671.252, 2730.380 2681.252, 2730.380 2691.252, 2730.380 2701.252, 2730.380 2711.252, 2730.380 2721.252, 2730.380 2731.252, 2730.380 2741.252, 2730.380 2751.252, 2730.380 2761.252, 2730.380 2771.252, 2730.380 2775.435, 2730.380 2778.743, 2730.380 2777.992, 2720.409 2777.240, 2710.437 2776.488, 2700.465 2775.736, 2690.494 2774.984, 2680.522 2774.232, 2670.550 2773.481, 2660.578 2772.729, 2650.607 2771.977, 2640.635 2771.225, 2630.663 2770.473, 2620.692 2769.721, 2610.720 2768.970, 2600.748 2768.218, 2590.777 2767.466, 2580.805 2766.714, 2570.833 2765.962, 2560.861 2765.210, 2550.890 2764.459, 2540.918 2763.707, 2530.946 2762.955, 2520.975 2762.203, 2511.003 2761.451, 2501.031 2760.699, 2491.060 2759.948, 2481.088 2759.196, 2471.116 2758.444, 2461.145 2757.692, 2451.173 2756.940, 2441.201 2756.189, 2431.229 2755.437, 2421.258 2754.685, 2411.286 2753.933, 2401.314 2753.181, 2391.343 2752.429, 2381.371 2751.678, 2371.399 2750.926, 2361.428 2750.174, 2351.456 2749.422, 2341.484 2748.670, 2331.512 2747.918, 2321.541 2747.167, 2311.569 2746.415, 2301.597 2745.663, 2291.626 2744.911, 2281.654 2744.159, 2271.682 2743.407, 2261.711 2742.656, 2251.739 2741.904, 2241.767 2741.152, 2231.796 2740.400, 2221.824 2739.648, 2211.852 2738.896, 2201.880 2738.145, 2191.909 2737.393, 2181.937 2736.641, 2171.965 2735.889, 2161.994 2735.137, 2152.022 2734.385, 2142.050 2733.634, 2132.079 2732.882, 2122.107 2732.130, 2112.135 2731.378, 2102.163 2730.626, 2092.192 2729.875, 2082.220 2729.123, 2072.248 2728.371, 2062.277 2727.619, 2052.305 2726.867, 2042.333 2726.115, 2032.362 2725.364, 2022.390 2724.612, 2012.418 2723.860, 2002.446 2723.108, 1992.475 2722.356, 1982.503 2721.604, 1972.531 2720.853, 1962.560 2720.101, 1952.588 2719.349, 1942.616 2718.597, 1932.645 2717.845, 1922.673 2717.094, 1912.701 2716.342, 1902.729 2715.590, 1892.758 2714.838, 1882.786 2714.086, 1872.814 2713.334, 1862.843 2712.583, 1852.871 2711.831, 1842.899 2711.079, 1832.928 2710.328, 1822.973 2704.720, 1814.693 2699.113, 1806.413 2693.505, 1798.134 2687.897, 1789.854 2682.289, 1781.574 2676.681, 1773.295 2671.074, 1765.015 2665.466, 1756.735 2659.858, 1748.456 2654.250, 1740.176 2648.643, 1731.896 2643.035, 1723.617 2637.427, 1715.337 2631.819, 1707.057 2626.211, 1698.778 2620.604, 1690.498 2614.996, 1682.218 2611.255, 1676.696 " />
            <path fill="none" stroke-width="3.0" stroke-linecap="butt" stroke-opacity="1.0" stroke="rgb(0, 0, 0)" stroke-linejoin="round" d=" M 1630.182, 961.775 1628.635, 963.928 1626.983, 966.000 1625.229, 967.987 1623.378, 969.884 1621.435, 971.687 1619.405, 973.391 1617.292, 974.991 1615.102, 976.484 1612.841, 977.866 1610.513, 979.134 1608.125, 980.284 1605.683, 981.313 " />
            <path fill="none" stroke-width="3.0" stroke-linecap="butt" stroke-opacity="1.0" stroke="rgb(0, 0, 0)" stroke-linejoin="round" d=" M 1637.775, 944.948 1637.057, 947.499 1636.213, 950.011 1635.245, 952.479 1634.155, 954.895 1632.946, 957.253 1631.621, 959.549 1630.182, 961.775 " />
            <path fill="none" stroke-width="3.0" stroke-linecap="butt" stroke-opacity="1.0" stroke="rgb(0, 0, 0)" stroke-linejoin="round" d=" M 1603.192, 982.219 1600.659, 983.001 1598.091, 983.655 1595.493, 984.181 " />
            <path fill="none" stroke-width="3.0" stroke-linecap="butt" stroke-opacity="1.0" stroke="rgb(0, 0, 0)" stroke-linejoin="round" d=" M 1638.825, 923.908 1639.155, 926.539 1639.353, 929.182 1639.419, 931.831 1639.353, 934.481 1639.155, 937.124 1638.825, 939.754 1638.365, 942.364 1637.775, 944.948 " />
            <path fill="none" stroke-width="3.0" stroke-linecap="butt" stroke-opacity="1.0" stroke="rgb(0, 0, 0)" stroke-linejoin="round" d=" M 1592.872, 984.575 1590.235, 984.839 1587.588, 984.971 1584.937, 984.971 1582.290, 984.839 " />
            <path fill="none" stroke-width="3.0" stroke-linecap="butt" stroke-opacity="1.0" stroke="rgb(0, 0, 0)" stroke-linejoin="round" d=" M 1637.057, 916.163 1637.775, 918.715 1638.365, 921.299 1638.825, 923.908 " />
            <path fill="none" stroke-width="3.0" stroke-linecap="butt" stroke-opacity="1.0" stroke="rgb(0, 0, 0)" stroke-linejoin="round" d=" M 1621.435, 891.975 1623.378, 893.777 1625.229, 895.676 1626.983, 897.663 1628.635, 899.735 1630.182, 901.886 1631.621, 904.113 1632.946, 906.409 1634.155, 908.767 1635.245, 911.183 1636.213, 913.650 1637.057, 916.163 " />
            <path fill="none" stroke-width="3.0" stroke-linecap="butt" stroke-opacity="1.0" stroke="rgb(0, 0, 0)" stroke-linejoin="round" d=" M 2611.255, 1676.696 2611.688, 1666.705 2612.120, 1656.714 2612.553, 1646.724 2612.986, 1636.733 2613.419, 1626.742 2613.851, 1616.752 2614.284, 1606.761 2614.717, 1596.771 2615.149, 1586.780 2615.582, 1576.789 2616.015, 1566.799 2616.448, 1556.808 2616.880, 1546.817 2617.313, 1536.827 2617.746, 1526.836 2618.178, 1516.845 2618.611, 1506.855 2619.044, 1496.864 2619.477, 1486.874 2619.909, 1476.883 2620.342, 1466.892 2620.775, 1456.902 2621.208, 1446.911 2621.640, 1436.920 2622.073, 1426.930 2622.506, 1416.939 2622.938, 1406.948 2623.371, 1396.958 2623.804, 1386.967 2624.236, 1376.977 2624.669, 1366.986 2625.102, 1356.995 2625.535, 1347.005 2625.967, 1337.014 2626.400, 1327.023 2626.833, 1317.033 2627.265, 1307.042 2627.698, 1297.052 2628.131, 1287.061 2628.563, 1277.070 2628.996, 1267.080 2629.429, 1257.089 2629.862, 1247.098 2630.294, 1237.108 2630.727, 1227.117 2631.160, 1217.126 2631.593, 1207.136 2632.025, 1197.145 2632.458, 1187.155 2632.891, 1177.164 2633.323, 1167.173 2633.756, 1157.183 2634.189, 1147.192 2634.622, 1137.201 2635.054, 1127.211 2635.487, 1117.220 2635.920, 1107.229 2636.352, 1097.239 2636.785, 1087.248 2637.218, 1077.258 2637.651, 1067.267 2638.083, 1057.276 2638.516, 1047.286 2638.949, 1037.295 2639.381, 1027.304 2639.814, 1017.314 2640.247, 1007.323 2640.679, 997.333 2641.112, 987.342 2641.545, 977.351 2641.978, 967.361 2642.410, 957.370 2642.843, 947.379 2643.276, 937.389 2643.708, 927.398 2644.141, 917.407 2644.574, 907.417 2645.007, 897.426 2645.403, 888.286 2642.687, 878.662 2639.971, 869.038 2637.256, 859.414 2634.541, 849.789 2631.825, 840.165 2629.110, 830.541 2626.394, 820.917 2623.678, 811.292 2620.963, 801.668 2618.248, 792.044 2615.532, 782.420 2612.817, 772.795 2610.101, 763.171 2607.386, 753.547 2604.670, 743.923 2601.955, 734.298 2599.239, 724.674 2596.524, 715.050 2593.808, 705.426 2591.093, 695.801 2588.377, 686.177 2585.662, 676.553 2582.946, 666.929 2580.231, 657.304 2577.515, 647.680 2574.800, 638.056 2572.084, 628.432 2569.369, 618.807 2566.653, 609.183 2563.938, 599.559 2561.222, 589.935 2558.507, 580.311 2555.791, 570.686 2553.076, 561.062 2550.360, 551.438 2547.645, 541.813 2544.929, 532.189 2542.214, 522.565 2539.498, 512.941 2536.783, 503.316 2534.067, 493.692 2531.352, 484.068 2528.636, 474.444 2525.921, 464.820 2523.205, 455.195 2520.490, 445.571 2517.774, 435.947 2515.059, 426.323 2512.344, 416.698 2509.628, 407.074 2506.912, 397.450 2504.197, 387.825 2501.481, 378.201 2498.766, 368.577 2496.051, 358.953 2493.335, 349.329 2490.620, 339.704 2487.904, 330.080 2485.188, 320.456 2482.473, 310.832 2479.758, 301.207 2477.042, 291.583 2474.327, 281.959 2471.611, 272.335 2468.896, 262.710 2466.180, 253.086 2461.842, 237.712 2457.429, 228.738 2453.017, 219.764 2448.604, 210.791 2444.191, 201.817 2439.779, 192.843 2435.366, 183.869 2430.953, 174.896 2426.540, 165.922 2422.128, 156.948 2417.715, 147.974 2413.302, 139.001 2408.889, 130.027 2404.477, 121.053 2400.064, 112.080 2395.651, 103.106 2391.239, 94.132 2386.826, 85.158 2382.413, 76.185 2378.000, 67.211 2373.588, 58.237 2369.175, 49.263 2364.762, 40.290 2360.349, 31.316 2356.570, 23.630 2356.044, 23.630 2356.044, 23.630 2355.931, 23.679 2355.820, 23.726 " />
            <path fill="none" stroke-width="3.0" stroke-linecap="butt" stroke-opacity="1.0" stroke="rgb(0, 0, 0)" stroke-linejoin="round" d=" M 1619.405, 890.272 1621.435, 891.975 " />
            <path fill="none" stroke-width="3.0" stroke-linecap="butt" stroke-opacity="1.0" stroke="rgb(0, 0, 0)" stroke-linejoin="round" d=" M 1617.292, 888.671 1619.405, 890.272 " />
            <path fill="none" stroke-width="3.0" stroke-linecap="butt" stroke-opacity="1.0" stroke="rgb(0, 0, 0)" stroke-linejoin="round" d=" M 1615.102, 887.178 1617.292, 888.671 " />
            <path fill="none" stroke-width="3.0" stroke-linecap="butt" stroke-opacity="1.0" stroke="rgb(0, 0, 0)" stroke-linejoin="round" d=" M 1608.125, 883.378 1610.513, 884.529 1612.841, 885.796 1615.102, 887.178 " />
            <path fill="none" stroke-width="3.0" stroke-linecap="butt" stroke-opacity="1.0" stroke="rgb(0, 0, 0)" stroke-linejoin="round" d=" M 1557.422, 976.484 1555.232, 974.991 1553.120, 973.391 1551.089, 971.687 1549.146, 969.884 1547.296, 967.987 1545.542, 966.000 1543.889, 963.928 1542.342, 961.775 1540.904, 959.549 1539.579, 957.253 1538.370, 954.895 1537.280, 952.479 1536.312, 950.011 1535.467, 947.499 " />
            <path fill="none" stroke-width="3.0" stroke-linecap="butt" stroke-opacity="1.0" stroke="rgb(0, 0, 0)" stroke-linejoin="round" d=" M 1564.400, 980.284 1562.012, 979.134 1559.684, 977.866 1557.422, 976.484 " />
            <path fill="none" stroke-width="3.0" stroke-linecap="butt" stroke-opacity="1.0" stroke="rgb(0, 0, 0)" stroke-linejoin="round" d=" M 1577.032, 984.181 1574.434, 983.655 1571.865, 983.001 1569.333, 982.219 1566.842, 981.313 1564.400, 980.284 " />
            <path fill="none" stroke-width="3.0" stroke-linecap="butt" stroke-opacity="1.0" stroke="rgb(0, 0, 0)" stroke-linejoin="round" d=" M 1553.120, 890.272 1555.232, 888.671 1557.422, 887.178 1559.684, 885.796 " />
            <path fill="none" stroke-width="3.0" stroke-linecap="butt" stroke-opacity="1.0" stroke="rgb(0, 0, 0)" stroke-linejoin="round" d=" M 1559.684, 885.796 1562.012, 884.529 " />
            <path fill="none" stroke-width="3.0" stroke-linecap="butt" stroke-opacity="1.0" stroke="rgb(0, 0, 0)" stroke-linejoin="round" d=" M 1551.089, 891.975 1553.120, 890.272 " />
            <path fill="none" stroke-width="3.0" stroke-linecap="butt" stroke-opacity="1.0" stroke="rgb(0, 0, 0)" stroke-linejoin="round" d=" M 1543.889, 899.735 1545.542, 897.663 1547.296, 895.676 1549.146, 893.777 1551.089, 891.975 " />
            <path fill="none" stroke-width="3.0" stroke-linecap="butt" stroke-opacity="1.0" stroke="rgb(0, 0, 0)" stroke-linejoin="round" d=" M 1564.400, 883.378 1566.842, 882.349 1569.333, 881.443 1571.865, 880.661 " />
            <path fill="none" stroke-width="3.0" stroke-linecap="butt" stroke-opacity="1.0" stroke="rgb(0, 0, 0)" stroke-linejoin="round" d=" M 1562.012, 884.529 1564.400, 883.378 " />
            <path fill="none" stroke-width="3.0" stroke-linecap="butt" stroke-opacity="1.0" stroke="rgb(0, 0, 0)" stroke-linejoin="round" d=" M 1571.865, 880.661 1574.434, 880.007 1577.032, 879.482 1579.653, 879.087 " />
            <path fill="none" stroke-width="3.0" stroke-linecap="butt" stroke-opacity="1.0" stroke="rgb(0, 0, 0)" stroke-linejoin="round" d=" M 1536.312, 913.650 1537.280, 911.183 1538.370, 908.767 1539.579, 906.409 1540.904, 904.113 1542.342, 901.886 1543.889, 899.735 " />
            <path fill="none" stroke-width="3.0" stroke-linecap="butt" stroke-opacity="1.0" stroke="rgb(0, 0, 0)" stroke-linejoin="round" d=" M 1579.653, 879.087 1582.290, 878.823 1584.937, 878.691 1587.588, 878.691 1590.235, 878.823 1592.872, 879.087 1595.493, 879.482 1598.091, 880.007 1600.659, 880.661 1603.192, 881.443 1605.683, 882.349 " />
            <path fill="none" stroke-width="3.0" stroke-linecap="butt" stroke-opacity="1.0" stroke="rgb(0, 0, 0)" stroke-linejoin="round" d=" M 1535.467, 916.163 1536.312, 913.650 " />
            <path fill="none" stroke-width="3.0" stroke-linecap="butt" stroke-opacity="1.0" stroke="rgb(0, 0, 0)" stroke-linejoin="round" d=" M 1534.750, 944.948 1534.160, 942.364 1533.699, 939.754 1533.370, 937.124 1533.172, 934.481 1533.106, 931.831 1533.172, 929.182 1533.370, 926.539 1533.699, 923.908 1534.160, 921.299 1534.750, 918.715 1535.467, 916.163 " />
            <path fill="none" stroke-width="3.0" stroke-linecap="butt" stroke-opacity="1.0" stroke="rgb(0, 0, 0)" stroke-linejoin="round" d=" M 1605.683, 882.349 1608.125, 883.378 " />
            <path fill="none" stroke-width="3.0" stroke-linecap="butt" stroke-opacity="1.0" stroke="rgb(0, 0, 0)" stroke-linejoin="round" d=" M 2355.820, 23.726 2355.813, 23.725 2355.807, 23.724 2355.801, 23.723 2355.794, 23.722 2355.787, 23.721 2355.781, 23.720 2355.773, 23.719 2355.767, 23.718 2355.759, 23.717 2355.752, 23.716 2355.745, 23.715 2355.738, 23.714 2355.731, 23.713 2355.724, 23.712 2355.824, 23.658 2345.824, 23.658 2335.824, 23.657 2325.824, 23.657 2315.824, 23.656 2305.824, 23.656 2295.824, 23.655 2285.824, 23.655 2275.824, 23.654 2265.824, 23.654 2255.824, 23.653 2245.824, 23.652 2235.824, 23.652 2225.824, 23.651 2215.824, 23.651 2205.824, 23.650 2195.824, 23.650 2191.226, 23.649 2181.226, 23.649 2171.226, 23.648 2161.226, 23.648 2151.226, 23.647 2141.226, 23.647 2131.226, 23.646 2121.226, 23.646 2111.226, 23.645 2101.226, 23.645 2091.226, 23.644 2081.226, 23.643 2071.226, 23.643 2061.226, 23.642 2051.226, 23.642 2041.226, 23.641 2031.226, 23.641 2021.226, 23.640 2011.226, 23.640 2001.226, 23.639 1991.226, 23.638 1981.226, 23.638 1971.226, 23.637 1961.226, 23.637 1951.226, 23.636 1941.226, 23.636 1931.226, 23.635 1921.226, 23.635 1911.226, 23.634 1901.226, 23.634 1891.226, 23.633 1881.226, 23.632 1871.226, 23.632 1861.226, 23.631 1851.226, 23.631 1841.551, 23.630 1837.268, 23.630 1833.040, 23.630 1828.882, 23.630 1824.810, 23.630 1820.837, 23.630 1810.837, 23.630 1800.837, 23.630 1790.837, 23.630 1780.837, 23.630 1770.837, 23.630 1760.837, 23.630 1750.837, 23.630 1740.837, 23.630 1730.837, 23.630 1720.837, 23.630 1710.837, 23.630 1700.837, 23.630 1690.837, 23.630 1680.837, 23.630 1670.837, 23.630 1660.837, 23.630 1650.837, 23.630 1640.837, 23.630 1630.837, 23.630 1620.837, 23.630 1610.837, 23.630 1600.837, 23.630 1590.837, 23.630 1580.837, 23.630 1570.837, 23.630 1560.837, 23.630 1550.837, 23.630 1540.837, 23.630 1530.837, 23.630 1520.837, 23.630 1510.837, 23.630 1500.837, 23.630 1490.837, 23.630 1480.837, 23.630 1470.837, 23.630 1460.837, 23.630 1450.837, 23.630 1440.837, 23.630 1430.837, 23.630 1425.811, 23.630 1421.437, 23.630 1417.074, 23.630 1412.734, 23.630 1408.430, 23.630 1404.176, 23.630 1399.985, 23.630 1395.869, 23.630 1392.588, 23.630 " />
            <path fill="none" stroke-width="3.0" stroke-linecap="butt" stroke-opacity="1.0" stroke="rgb(0, 0, 0)" stroke-linejoin="round" d=" M 610.607, 2501.316 610.720, 2511.315 610.833, 2521.314 610.946, 2531.314 611.060, 2541.313 611.173, 2551.312 611.286, 2561.312 611.399, 2571.311 611.513, 2581.310 611.626, 2591.310 611.739, 2601.309 611.852, 2611.308 611.966, 2621.308 612.079, 2631.307 612.192, 2641.307 612.305, 2651.306 612.419, 2661.305 612.532, 2671.305 612.645, 2681.304 612.759, 2691.303 612.872, 2701.303 612.985, 2711.302 613.098, 2721.301 613.201, 2730.380 " />
            <path fill="none" stroke-width="3.0" stroke-linecap="butt" stroke-opacity="1.0" stroke="rgb(0, 0, 0)" stroke-linejoin="round" d=" M 1535.467, 947.499 1534.750, 944.948 " />
            <path fill="none" stroke-width="3.0" stroke-linecap="butt" stroke-opacity="1.0" stroke="rgb(0, 0, 0)" stroke-linejoin="round" d=" M 1579.653, 984.575 1577.032, 984.181 " />
            <path fill="none" stroke-width="3.0" stroke-linecap="butt" stroke-opacity="1.0" stroke="rgb(0, 0, 0)" stroke-linejoin="round" d=" M 1582.290, 984.839 1579.653, 984.575 " />
            <path fill="none" stroke-width="3.0" stroke-linecap="butt" stroke-opacity="1.0" stroke="rgb(0, 0, 0)" stroke-linejoin="round" d=" M 1595.493, 984.181 1592.872, 984.575 " />
            <path fill="none" stroke-width="3.0" stroke-linecap="butt" stroke-opacity="1.0" stroke="rgb(0, 0, 0)" stroke-linejoin="round" d=" M 1605.683, 981.313 1603.192, 982.219 " />
            <path fill="none" stroke-width="3.0" stroke-linecap="butt" stroke-opacity="1.0" stroke="rgb(0, 0, 0)" stroke-linejoin="round" d=" M 4558.969, 1691.643 4560.536, 1701.520 4562.102, 1711.396 4563.669, 1721.273 4565.235, 1731.149 4566.802, 1741.026 4568.368, 1750.903 4569.935, 1760.779 4571.501, 1770.656 4573.067, 1780.532 4574.634, 1790.409 4576.200, 1800.285 4577.767, 1810.162 4579.333, 1820.038 4580.900, 1829.915 4582.466, 1839.792 4584.033, 1849.668 4585.599, 1859.545 4587.166, 1869.421 4588.732, 1879.298 4590.298, 1889.174 4591.865, 1899.051 4593.432, 1908.927 4594.998, 1918.804 4596.564, 1928.680 4598.131, 1938.557 4599.697, 1948.434 4601.264, 1958.310 4602.830, 1968.187 4604.396, 1978.063 4605.963, 1987.940 4606.959, 1994.222 " />
            <path fill="none" stroke-width="3.0" stroke-linecap="butt" stroke-opacity="1.0" stroke="rgb(0, 0, 0)" stroke-linejoin="round" d=" M 4608.458, 2500.763 4607.261, 2510.691 4606.063, 2520.619 4604.865, 2530.547 4603.667, 2540.475 4602.469, 2550.403 4601.271, 2560.331 4600.074, 2570.259 4598.876, 2580.187 4597.678, 2590.115 4596.480, 2600.043 4595.282, 2609.971 4594.084, 2619.899 4592.887, 2629.827 4591.689, 2639.755 4590.491, 2649.683 4589.293, 2659.611 4588.095, 2669.539 4586.897, 2679.467 4585.700, 2689.395 4584.502, 2699.323 4583.304, 2709.251 4582.106, 2719.179 4580.755, 2730.380 " />
            <path fill="none" stroke-width="3.0" stroke-linecap="butt" stroke-opacity="1.0" stroke="rgb(0, 0, 0)" stroke-linejoin="round" d=" M 4649.305, 2281.704 4647.472, 2291.535 4645.639, 2301.365 4643.806, 2311.196 4641.973, 2321.026 4640.140, 2330.857 4638.307, 2340.688 4636.474, 2350.518 4634.641, 2360.349 4632.808, 2370.179 4630.974, 2380.010 4629.141, 2389.840 4627.308, 2399.671 4625.475, 2409.501 4623.642, 2419.332 4621.809, 2429.163 4619.976, 2438.993 4618.143, 2448.824 4616.310, 2458.654 4614.477, 2468.485 4612.644, 2478.315 4610.811, 2488.146 4608.978, 2497.977 4608.458, 2500.763 " />
            <path fill="none" stroke-width="3.0" stroke-linecap="butt" stroke-opacity="1.0" stroke="rgb(0, 0, 0)" stroke-linejoin="round" d=" M 6299.810, 1787.389 6299.864, 1777.390 6299.919, 1767.390 6299.974, 1757.390 6300.029, 1747.390 6300.083, 1737.390 6300.139, 1727.390 6300.193, 1717.391 6300.248, 1707.391 6300.303, 1697.391 6300.358, 1687.391 6300.413, 1677.391 6300.467, 1667.391 6300.522, 1657.391 6300.577, 1647.391 6300.632, 1637.392 6300.687, 1627.392 6300.741, 1617.392 6300.796, 1607.392 6300.851, 1597.392 6300.906, 1587.392 6300.960, 1577.393 6301.016, 1567.393 6301.070, 1557.393 6301.128, 1546.897 " />
            <path fill="none" stroke-width="3.0" stroke-linecap="butt" stroke-opacity="1.0" stroke="rgb(0, 0, 0)" stroke-linejoin="round" d=" M 6335.255, 1323.129 6334.607, 1313.150 6333.960, 1303.171 6333.312, 1293.192 6332.665, 1283.213 6332.018, 1273.234 6331.370, 1263.255 6330.722, 1253.276 6330.075, 1243.297 6329.427, 1233.318 6328.780, 1223.339 6328.132, 1213.360 6327.485, 1203.381 6326.837, 1193.402 6326.190, 1183.423 6325.542, 1173.444 6324.895, 1163.465 6324.248, 1153.486 6323.600, 1143.507 6322.953, 1133.528 6322.305, 1123.549 6321.658, 1113.570 6321.010, 1103.591 6320.363, 1093.612 6319.715, 1083.633 6319.068, 1073.654 6318.420, 1063.675 6317.772, 1053.696 6317.125, 1043.717 6316.478, 1033.738 6315.830, 1023.759 6315.183, 1013.779 6314.535, 1003.800 6313.888, 993.821 6313.240, 983.842 6312.593, 973.863 6311.945, 963.884 6311.298, 953.905 6310.650, 943.926 6310.003, 933.947 6309.355, 923.968 6308.708, 913.989 6308.061, 904.010 6307.413, 894.031 6306.766, 884.052 6305.858, 870.074 " />
            <path fill="none" stroke-width="3.0" stroke-linecap="butt" stroke-opacity="1.0" stroke="rgb(0, 0, 0)" stroke-linejoin="round" d=" M 6376.653, 2157.817 6374.622, 2148.025 6372.590, 2138.234 6370.559, 2128.442 6368.528, 2118.651 6366.497, 2108.859 6364.466, 2099.068 6362.435, 2089.276 6360.403, 2079.484 6358.372, 2069.693 6356.341, 2059.901 6354.310, 2050.110 6352.278, 2040.318 6350.247, 2030.527 6348.216, 2020.735 6346.185, 2010.944 6344.154, 2001.152 6342.123, 1991.361 6340.091, 1981.569 6338.060, 1971.777 6336.029, 1961.986 6333.998, 1952.194 6331.966, 1942.403 6329.935, 1932.611 6327.904, 1922.820 6325.873, 1913.028 6323.842, 1903.237 6321.811, 1893.445 6319.779, 1883.654 6317.748, 1873.862 6315.717, 1864.071 6313.686, 1854.279 6311.654, 1844.487 6309.623, 1834.696 6307.592, 1824.904 6305.561, 1815.113 6303.530, 1805.321 6301.499, 1795.530 6299.810, 1787.389 " />
        </g>
    </g>
<g id="slice-labels"><text x="552.8516666666667" y="474.755" text-anchor="middle" dominant-baseline="middle" font-family="Arial, sans-serif" font-size="59.063010207718044" font-weight="bold" fill="black" stroke="none" stroke-width="7.087561224926164" paint-order="stroke fill">Slice19 (Front)</text><text x="1612.111" y="474.755" text-anchor="middle" dominant-baseline="middle" font-family="Arial, sans-serif" font-size="59.063010207718044" font-weight="bold" fill="black" stroke="none" stroke-width="7.087561224926164" paint-order="stroke fill">Slice19 (Front)</text><text x="2671.3703333333337" y="474.755" text-anchor="middle" dominant-baseline="middle" font-family="Arial, sans-serif" font-size="59.063010207718044" font-weight="bold" fill="black" stroke="none" stroke-width="7.087561224926164" paint-order="stroke fill">Slice19 (Front)</text><text x="3730.6296666666676" y="474.755" text-anchor="middle" dominant-baseline="middle" font-family="Arial, sans-serif" font-size="59.063010207718044" font-weight="bold" fill="black" stroke="none" stroke-width="7.087561224926164" paint-order="stroke fill">Slice19 (Front)</text><text x="4789.889" y="474.755" text-anchor="middle" dominant-baseline="middle" font-family="Arial, sans-serif" font-size="59.063010207718044" font-weight="bold" fill="black" stroke="none" stroke-width="7.087561224926164" paint-order="stroke fill">Slice19 (Front)</text><text x="5849.1483333333335" y="474.755" text-anchor="middle" dominant-baseline="middle" font-family="Arial, sans-serif" font-size="59.063010207718044" font-weight="bold" fill="black" stroke="none" stroke-width="7.087561224926164" paint-order="stroke fill">Slice19 (Front)</text><text x="552.8516666666667" y="1377.005" text-anchor="middle" dominant-baseline="middle" font-family="Arial, sans-serif" font-size="59.063010207718044" font-weight="bold" fill="black" stroke="none" stroke-width="7.087561224926164" paint-order="stroke fill">Slice19 (Front)</text><text x="1612.111" y="1377.005" text-anchor="middle" dominant-baseline="middle" font-family="Arial, sans-serif" font-size="59.063010207718044" font-weight="bold" fill="black" stroke="none" stroke-width="7.087561224926164" paint-order="stroke fill">Slice19 (Front)</text><text x="2671.3703333333337" y="1377.005" text-anchor="middle" dominant-baseline="middle" font-family="Arial, sans-serif" font-size="59.063010207718044" font-weight="bold" fill="black" stroke="none" stroke-width="7.087561224926164" paint-order="stroke fill">Slice19 (Front)</text><text x="3730.6296666666676" y="1377.005" text-anchor="middle" dominant-baseline="middle" font-family="Arial, sans-serif" font-size="59.063010207718044" font-weight="bold" fill="black" stroke="none" stroke-width="7.087561224926164" paint-order="stroke fill">Slice19 (Front)</text><text x="4789.889" y="1377.005" text-anchor="middle" dominant-baseline="middle" font-family="Arial, sans-serif" font-size="59.063010207718044" font-weight="bold" fill="black" stroke="none" stroke-width="7.087561224926164" paint-order="stroke fill">Slice19 (Front)</text><text x="5849.1483333333335" y="1377.005" text-anchor="middle" dominant-baseline="middle" font-family="Arial, sans-serif" font-size="59.063010207718044" font-weight="bold" fill="black" stroke="none" stroke-width="7.087561224926164" paint-order="stroke fill">Slice19 (Front)</text><text x="552.8516666666667" y="2279.255" text-anchor="middle" dominant-baseline="middle" font-family="Arial, sans-serif" font-size="59.063010207718044" font-weight="bold" fill="black" stroke="none" stroke-width="7.087561224926164" paint-order="stroke fill">Slice19 (Front)</text><text x="1612.111" y="2279.255" text-anchor="middle" dominant-baseline="middle" font-family="Arial, sans-serif" font-size="59.063010207718044" font-weight="bold" fill="black" stroke="none" stroke-width="7.087561224926164" paint-order="stroke fill">Slice19 (Front)</text><text x="2671.3703333333337" y="2279.255" text-anchor="middle" dominant-baseline="middle" font-family="Arial, sans-serif" font-size="59.063010207718044" font-weight="bold" fill="black" stroke="none" stroke-width="7.087561224926164" paint-order="stroke fill">Slice19 (Front)</text><text x="3730.6296666666676" y="2279.255" text-anchor="middle" dominant-baseline="middle" font-family="Arial, sans-serif" font-size="59.063010207718044" font-weight="bold" fill="black" stroke="none" stroke-width="7.087561224926164" paint-order="stroke fill">Slice19 (Front)</text><text x="4789.889" y="2279.255" text-anchor="middle" dominant-baseline="middle" font-family="Arial, sans-serif" font-size="59.063010207718044" font-weight="bold" fill="black" stroke="none" stroke-width="7.087561224926164" paint-order="stroke fill">Slice19 (Front)</text><text x="5849.1483333333335" y="2279.255" text-anchor="middle" dominant-baseline="middle" font-family="Arial, sans-serif" font-size="59.063010207718044" font-weight="bold" fill="black" stroke="none" stroke-width="7.087561224926164" paint-order="stroke fill">Slice19 (Front)</text></g></svg>