<?xml version='1.0' encoding='utf-8'?>
<svg xmlns="http://www.w3.org/2000/svg" xmlns:inkscape="http://www.inkscape.org/namespaces/inkscape" version="1.1" width="291.1369421482086mm" height="275.9770669937134mm" viewBox="-0.028152337585833465 0.005853692541204936 3439.0773046751715 3259.999292614918" preserveAspectRatio="none">
    <g id="ViewLayer_LineSet" inkscape:groupmode="lineset" inkscape:label="ViewLayer_LineSet">
        <g inkscape:groupmode="layer" id="strokes" inkscape:label="strokes">
            <path fill="none" stroke-width="3.0" stroke-linecap="butt" stroke-opacity="1.0" stroke="rgb(0, 0, 0)" stroke-linejoin="round" d=" M 1534.635, 2808.487 1532.116, 2811.069 1529.471, 2813.522 1526.708, 2815.841 1523.833, 2818.020 1520.851, 2820.052 1517.773, 2821.932 1514.605, 2823.658 1511.355, 2825.223 1508.030, 2826.624 1504.640, 2827.858 1501.193, 2828.922 1497.697, 2829.813 1494.161, 2830.526 1490.594, 2831.064 1487.004, 2831.423 1483.401, 2831.604 1479.793, 2831.604 1476.190, 2831.423 1472.601, 2831.064 1469.034, 2830.526 1465.497, 2829.813 1462.001, 2828.922 1458.554, 2827.858 1455.164, 2826.624 1451.840, 2825.223 1448.590, 2823.658 1445.421, 2821.932 1442.343, 2820.052 1439.362, 2818.020 1436.487, 2815.841 1433.723, 2813.522 1431.078, 2811.069 1428.559, 2808.487 1426.172, 2805.781 1423.923, 2802.961 1421.817, 2800.031 1419.860, 2797.001 1418.056, 2793.877 1416.410, 2790.666 1414.927, 2787.378 1413.609, 2784.020 1412.460, 2780.600 1411.482, 2777.128 1410.680, 2773.610 1410.053, 2770.058 1409.605, 2766.478 1409.335, 2762.881 1409.245, 2759.274 1409.335, 2755.668 1409.605, 2752.070 1410.053, 2748.490 1410.680, 2744.938 1411.482, 2741.420 1412.460, 2737.949 1413.609, 2734.529 1414.927, 2731.170 1416.410, 2727.882 1418.056, 2724.672 1419.860, 2721.548 1421.817, 2718.517 1423.923, 2715.588 1426.172, 2712.767 1428.559, 2710.062 1431.078, 2707.479 1433.723, 2705.026 1436.487, 2702.707 1439.362, 2700.529 1442.343, 2698.497 1445.421, 2696.616 1448.590, 2694.890 1451.840, 2693.325 1455.164, 2691.923 1458.554, 2690.690 1462.001, 2689.627 1465.497, 2688.736 1469.034, 2688.022 1472.601, 2687.484 1476.190, 2687.125 1479.793, 2686.945 1483.401, 2686.945 1487.004, 2687.125 1490.594, 2687.484 1494.161, 2688.022 1497.697, 2688.736 1501.193, 2689.627 1504.640, 2690.690 1508.030, 2691.923 1511.355, 2693.325 1514.605, 2694.890 1517.773, 2696.616 1520.851, 2698.497 1523.833, 2700.529 1526.708, 2702.707 1529.471, 2705.026 1532.116, 2707.479 1534.635, 2710.062 1537.022, 2712.767 1539.272, 2715.588 1541.377, 2718.517 1543.335, 2721.548 1545.138, 2724.672 1546.784, 2727.882 1548.268, 2731.170 1549.586, 2734.529 1550.735, 2737.949 1551.712, 2741.420 1552.514, 2744.938 1553.141, 2748.490 1553.590, 2752.070 1553.859, 2755.668 1553.949, 2759.274 1553.859, 2762.881 1553.590, 2766.478 1553.141, 2770.058 1552.514, 2773.610 1551.712, 2777.128 1550.735, 2780.600 1549.586, 2784.020 1548.268, 2787.378 1546.784, 2790.666 1545.138, 2793.877 1543.335, 2797.001 1541.377, 2800.031 1539.272, 2802.961 1537.022, 2805.781 1534.635, 2808.487 " />
            <path fill="none" stroke-width="3.0" stroke-linecap="butt" stroke-opacity="1.0" stroke="rgb(0, 0, 0)" stroke-linejoin="round" d=" M 256.540, 2873.874 258.007, 2883.766 259.473, 2893.658 260.940, 2903.550 262.407, 2913.441 263.874, 2923.333 265.341, 2933.225 266.807, 2943.117 268.274, 2953.009 269.741, 2962.901 271.208, 2972.793 272.675, 2982.684 274.141, 2992.576 275.608, 3002.468 277.075, 3012.360 278.542, 3022.252 280.009, 3032.144 281.475, 3042.035 282.942, 3051.927 284.409, 3061.819 285.876, 3071.711 287.343, 3081.603 288.809, 3091.495 290.276, 3101.386 291.743, 3111.278 293.210, 3121.170 294.677, 3131.062 296.143, 3140.954 297.610, 3150.846 299.077, 3160.737 300.544, 3170.629 302.011, 3180.521 303.477, 3190.413 304.944, 3200.305 306.411, 3210.197 307.878, 3220.089 309.345, 3229.980 310.294, 3236.380 320.294, 3236.380 330.294, 3236.380 340.294, 3236.380 350.294, 3236.380 360.294, 3236.380 370.294, 3236.380 380.294, 3236.380 390.294, 3236.380 400.294, 3236.380 410.294, 3236.380 420.294, 3236.380 430.294, 3236.380 440.294, 3236.380 450.294, 3236.380 460.294, 3236.380 470.294, 3236.380 480.294, 3236.380 490.294, 3236.380 500.294, 3236.380 510.294, 3236.380 520.294, 3236.380 530.294, 3236.380 540.294, 3236.380 550.294, 3236.380 560.294, 3236.380 570.294, 3236.380 580.294, 3236.380 590.294, 3236.380 600.294, 3236.380 603.835, 3236.380 605.723, 3236.380 607.631, 3236.380 609.554, 3236.380 611.487, 3236.380 613.424, 3236.380 615.358, 3236.380 617.284, 3236.380 619.195, 3236.380 621.086, 3236.380 622.949, 3236.380 624.779, 3236.380 626.569, 3236.380 628.313, 3236.380 638.313, 3236.380 648.313, 3236.380 658.313, 3236.380 668.313, 3236.380 678.313, 3236.380 688.313, 3236.380 698.313, 3236.380 708.313, 3236.380 718.313, 3236.380 728.313, 3236.380 738.313, 3236.380 748.313, 3236.380 758.313, 3236.380 768.313, 3236.380 778.313, 3236.380 788.313, 3236.380 798.313, 3236.380 808.313, 3236.380 818.313, 3236.380 828.313, 3236.380 838.313, 3236.380 846.537, 3236.380 849.108, 3236.380 851.612, 3236.380 854.039, 3236.380 864.039, 3236.380 874.039, 3236.380 884.039, 3236.380 894.039, 3236.380 904.039, 3236.380 914.039, 3236.380 924.039, 3236.380 934.039, 3236.380 944.039, 3236.380 954.039, 3236.380 964.039, 3236.380 974.039, 3236.380 984.039, 3236.380 994.039, 3236.380 1004.039, 3236.380 1014.039, 3236.380 1024.039, 3236.380 1034.039, 3236.380 1044.039, 3236.380 1050.421, 3236.380 1053.247, 3236.380 1056.000, 3236.380 1058.671, 3236.380 1061.253, 3236.380 1063.736, 3236.380 1066.115, 3236.380 1068.382, 3236.380 1078.382, 3236.380 1088.382, 3236.380 1098.382, 3236.380 1108.382, 3236.380 1116.588, 3236.380 1126.588, 3236.380 1136.588, 3236.380 1146.588, 3236.380 1156.588, 3236.380 1166.588, 3236.380 1176.588, 3236.380 1186.588, 3236.380 1196.588, 3236.380 1206.588, 3236.380 1216.588, 3236.380 1226.588, 3236.380 1236.588, 3236.380 1246.588, 3236.380 1256.588, 3236.380 1266.588, 3236.380 1276.588, 3236.380 1286.588, 3236.380 1296.588, 3236.380 1306.588, 3236.380 1316.588, 3236.380 1326.588, 3236.380 1336.588, 3236.380 1346.588, 3236.380 1356.588, 3236.380 1366.588, 3236.380 1376.588, 3236.380 1386.588, 3236.380 1396.588, 3236.380 1406.588, 3236.380 1416.588, 3236.380 1426.588, 3236.380 1436.588, 3236.380 1446.588, 3236.380 1456.588, 3236.380 1466.588, 3236.380 1476.588, 3236.380 1486.588, 3236.380 1496.588, 3236.380 1506.588, 3236.380 1516.588, 3236.380 1526.588, 3236.380 1536.588, 3236.380 1546.588, 3236.380 1556.588, 3236.380 1566.588, 3236.380 1576.588, 3236.380 1586.588, 3236.380 1596.588, 3236.380 1606.588, 3236.380 1616.588, 3236.380 1626.588, 3236.380 1636.588, 3236.380 1646.588, 3236.380 1656.588, 3236.380 1666.588, 3236.380 1676.588, 3236.380 1686.588, 3236.380 1696.588, 3236.380 1706.588, 3236.380 1716.588, 3236.380 1726.588, 3236.380 1736.588, 3236.380 1746.588, 3236.380 1756.588, 3236.380 1766.588, 3236.380 1776.588, 3236.380 1786.588, 3236.380 1796.588, 3236.380 1806.588, 3236.380 1821.964, 3236.380 1824.623, 3236.380 1827.378, 3236.380 1830.219, 3236.380 1833.140, 3236.380 1843.140, 3236.380 1853.140, 3236.380 1863.140, 3236.380 1873.140, 3236.380 1883.140, 3236.380 1893.140, 3236.380 1903.140, 3236.380 1913.140, 3236.380 1923.140, 3236.380 1933.140, 3236.380 1943.140, 3236.380 1953.140, 3236.380 1963.140, 3236.380 1973.140, 3236.380 1983.140, 3236.380 1993.140, 3236.380 2003.140, 3236.380 2013.140, 3236.380 2023.140, 3236.380 2033.140, 3236.380 2043.140, 3236.380 2053.140, 3236.380 2063.140, 3236.380 2073.140, 3236.380 2083.140, 3236.380 2093.140, 3236.380 2103.140, 3236.380 2113.140, 3236.380 2123.140, 3236.380 2133.140, 3236.380 2143.140, 3236.380 2153.140, 3236.380 2163.140, 3236.380 2173.140, 3236.380 2183.140, 3236.380 2193.140, 3236.380 2203.140, 3236.380 2213.140, 3236.380 2223.140, 3236.380 2233.140, 3236.380 2243.140, 3236.380 2253.140, 3236.380 2263.140, 3236.380 2273.140, 3236.380 2283.140, 3236.380 2293.140, 3236.380 2306.125, 3236.380 2307.711, 3236.380 2309.382, 3236.380 2311.128, 3236.380 2312.946, 3236.380 2314.828, 3236.380 2316.768, 3236.380 2318.758, 3236.380 2320.791, 3236.380 2322.862, 3236.380 2324.962, 3236.380 2327.084, 3236.380 2329.223, 3236.380 2331.371, 3236.380 2333.521, 3236.380 2335.667, 3236.380 2345.667, 3236.380 2355.667, 3236.380 2365.667, 3236.380 2375.667, 3236.380 2385.667, 3236.380 2395.667, 3236.380 2405.667, 3236.380 2415.667, 3236.380 2425.667, 3236.380 2435.667, 3236.380 2445.667, 3236.380 2455.667, 3236.380 2465.667, 3236.380 2475.667, 3236.380 2485.667, 3236.380 2495.667, 3236.380 2505.667, 3236.380 2515.667, 3236.380 2525.667, 3236.380 2535.667, 3236.380 2545.667, 3236.380 2555.667, 3236.380 2565.667, 3236.380 2575.667, 3236.380 2585.667, 3236.380 2595.667, 3236.380 2605.667, 3236.380 2615.667, 3236.380 2625.667, 3236.380 2635.667, 3236.380 2645.667, 3236.380 2655.667, 3236.380 2665.667, 3236.380 2678.407, 3236.380 2679.698, 3226.464 2680.988, 3216.548 2682.278, 3206.631 2683.569, 3196.715 2684.859, 3186.798 2686.149, 3176.882 2687.440, 3166.966 2688.730, 3157.049 2690.021, 3147.133 2691.311, 3137.217 2692.602, 3127.300 2693.892, 3117.384 2695.182, 3107.467 2696.473, 3097.551 2697.763, 3087.635 2698.309, 3083.439 " />
            <path fill="none" stroke-width="3.0" stroke-linecap="butt" stroke-opacity="1.0" stroke="rgb(0, 0, 0)" stroke-linejoin="round" d=" M 2698.309, 3083.439 2700.659, 3073.718 2703.009, 3063.998 2705.358, 3054.278 2707.708, 3044.558 2710.057, 3034.838 2712.407, 3025.118 2714.757, 3015.398 2717.106, 3005.678 2719.456, 2995.958 2721.805, 2986.238 2724.155, 2976.518 2726.505, 2966.798 2728.854, 2957.078 2731.204, 2947.358 2733.553, 2937.638 2735.903, 2927.918 2738.252, 2918.198 2740.602, 2908.478 2742.952, 2898.758 2745.301, 2889.038 2747.651, 2879.317 2750.000, 2869.597 2752.350, 2859.877 2754.700, 2850.157 2757.049, 2840.437 2759.399, 2830.717 2761.749, 2820.997 2764.098, 2811.277 2766.448, 2801.557 2768.797, 2791.837 2771.147, 2782.117 2773.497, 2772.397 2775.846, 2762.677 2778.196, 2752.957 2780.545, 2743.237 2782.895, 2733.517 2785.244, 2723.797 2787.594, 2714.077 2789.944, 2704.357 2792.293, 2694.636 2794.643, 2684.916 2796.992, 2675.196 2799.342, 2665.476 2801.692, 2655.756 2804.041, 2646.036 2806.391, 2636.316 2808.740, 2626.596 2811.090, 2616.876 2813.440, 2607.156 2815.789, 2597.436 2818.139, 2587.716 2820.489, 2577.996 2822.838, 2568.276 2825.188, 2558.556 2827.537, 2548.836 2829.887, 2539.116 2832.236, 2529.396 2833.593, 2523.784 2835.322, 2513.935 2837.050, 2504.086 2838.779, 2494.236 2840.508, 2484.387 2842.237, 2474.537 2843.966, 2464.688 2845.694, 2454.838 2847.423, 2444.989 2849.152, 2435.140 2850.881, 2425.290 2852.609, 2415.441 2854.338, 2405.591 2856.067, 2395.742 2857.796, 2385.892 2859.525, 2376.043 2861.253, 2366.193 2862.982, 2356.344 2864.711, 2346.495 2866.440, 2336.645 2868.168, 2326.796 2869.897, 2316.946 2871.626, 2307.097 2873.355, 2297.247 2875.084, 2287.398 2876.812, 2277.549 2878.541, 2267.699 2880.270, 2257.850 2881.705, 2249.674 " />
            <path fill="none" stroke-width="3.0" stroke-linecap="butt" stroke-opacity="1.0" stroke="rgb(0, 0, 0)" stroke-linejoin="round" d=" M 2885.395, 2228.651 2883.666, 2238.500 2882.819, 2243.328 2881.705, 2249.674 2871.705, 2249.674 2861.705, 2249.674 2851.705, 2249.674 2841.705, 2249.674 2831.705, 2249.674 2821.705, 2249.674 2811.705, 2249.674 2801.705, 2249.674 2791.705, 2249.674 2781.705, 2249.674 2771.705, 2249.674 2761.705, 2249.674 2751.705, 2249.674 2741.705, 2249.674 2731.705, 2249.674 2721.705, 2249.674 2711.705, 2249.674 2701.705, 2249.674 2691.705, 2249.674 2681.705, 2249.674 2671.705, 2249.674 2661.705, 2249.674 2651.705, 2249.674 2641.705, 2249.674 2631.705, 2249.674 2621.705, 2249.674 2611.705, 2249.674 2606.925, 2249.674 2605.065, 2249.674 2603.227, 2249.674 2601.418, 2249.674 2591.418, 2249.674 2581.418, 2249.674 2571.418, 2249.674 2561.418, 2249.674 2551.418, 2249.674 2541.418, 2249.674 2531.418, 2249.674 2521.418, 2249.674 2511.418, 2249.674 2501.418, 2249.674 2491.418, 2249.674 2481.418, 2249.674 2471.418, 2249.674 2461.418, 2249.674 2451.418, 2249.674 2441.418, 2249.674 2431.418, 2249.674 2421.418, 2249.674 2411.418, 2249.674 2401.418, 2249.674 2391.418, 2249.674 2381.418, 2249.674 2371.418, 2249.674 2361.418, 2249.674 2351.418, 2249.674 2341.418, 2249.674 2331.418, 2249.674 2326.821, 2249.674 2324.002, 2249.674 2321.233, 2249.674 2318.522, 2249.674 2315.878, 2249.674 2305.878, 2249.674 2295.878, 2249.674 2285.878, 2249.674 2275.878, 2249.674 2265.878, 2249.674 2255.878, 2249.674 2245.878, 2249.674 2235.878, 2249.674 2225.878, 2249.674 2215.878, 2249.674 2205.878, 2249.674 2195.878, 2249.674 2185.878, 2249.674 2175.878, 2249.674 2165.878, 2249.674 2155.878, 2249.674 2145.878, 2249.674 2135.878, 2249.674 2125.878, 2249.674 2115.878, 2249.674 2105.878, 2249.674 2095.878, 2249.674 2085.878, 2249.674 2075.878, 2249.674 2065.878, 2249.674 2055.878, 2249.674 2045.878, 2249.674 2035.878, 2249.674 2025.878, 2249.674 2015.878, 2249.674 2005.878, 2249.674 1995.878, 2249.674 1985.878, 2249.674 1975.878, 2249.674 1965.878, 2249.674 1955.878, 2249.674 1945.878, 2249.674 1935.878, 2249.674 1925.878, 2249.674 1915.878, 2249.674 1905.878, 2249.674 1895.878, 2249.674 1885.878, 2249.674 1875.878, 2249.674 1865.878, 2249.674 1855.878, 2249.674 1845.878, 2249.674 1835.878, 2249.674 1825.878, 2249.674 1815.878, 2249.674 1805.878, 2249.674 1795.878, 2249.674 1785.878, 2249.674 1775.878, 2249.674 1765.878, 2249.674 1755.878, 2249.674 1745.878, 2249.674 1735.878, 2249.674 1725.878, 2249.674 1715.878, 2249.674 1705.878, 2249.674 1695.878, 2249.674 1685.878, 2249.674 1675.878, 2249.674 1665.878, 2249.674 1655.878, 2249.674 1645.878, 2249.674 1635.878, 2249.674 1625.878, 2249.674 1615.878, 2249.674 1605.878, 2249.674 1595.878, 2249.674 1585.878, 2249.674 1575.878, 2249.674 1561.070, 2249.674 1558.498, 2249.674 1557.226, 2249.674 1554.611, 2249.674 1553.323, 2249.674 1550.670, 2249.674 1549.370, 2249.674 1546.687, 2249.674 1545.377, 2249.674 1542.670, 2249.674 1541.353, 2249.674 1538.628, 2249.674 1537.309, 2249.674 1534.573, 2249.674 1531.833, 2249.674 1530.514, 2249.674 1527.777, 2249.674 1526.460, 2249.674 1523.733, 2249.674 1522.422, 2249.674 1519.711, 2249.674 1518.409, 2249.674 1515.721, 2249.674 1514.432, 2249.674 1511.774, 2249.674 1510.499, 2249.674 1507.877, 2249.674 1506.620, 2249.674 1504.041, 2249.674 1502.806, 2249.674 1492.806, 2249.674 1482.806, 2249.674 1472.806, 2249.674 1462.806, 2249.674 1452.806, 2249.674 1442.806, 2249.674 1432.806, 2249.674 1422.806, 2249.674 1412.806, 2249.674 1402.806, 2249.674 1392.806, 2249.674 1382.806, 2249.674 1372.806, 2249.674 1362.806, 2249.674 1352.806, 2249.674 1342.806, 2249.674 1332.806, 2249.674 1322.806, 2249.674 1312.806, 2249.674 1302.806, 2249.674 1292.806, 2249.674 1282.806, 2249.674 1272.806, 2249.674 1262.806, 2249.674 1252.806, 2249.674 1242.806, 2249.674 1232.806, 2249.674 1222.806, 2249.674 1212.806, 2249.674 1202.806, 2249.674 1192.806, 2249.674 1182.806, 2249.674 1172.806, 2249.674 1162.806, 2249.674 1152.806, 2249.674 1142.806, 2249.674 1132.806, 2249.674 1122.806, 2249.674 1112.806, 2249.674 1102.806, 2249.674 1092.806, 2249.674 1082.806, 2249.674 1072.806, 2249.674 1062.806, 2249.674 1052.806, 2249.674 1042.806, 2249.674 1032.806, 2249.674 1022.806, 2249.674 1012.806, 2249.674 1002.806, 2249.674 992.806, 2249.674 982.806, 2249.674 972.806, 2249.674 962.806, 2249.674 952.806, 2249.674 942.806, 2249.674 932.806, 2249.674 922.806, 2249.674 912.806, 2249.674 902.806, 2249.674 892.806, 2249.674 882.806, 2249.674 872.806, 2249.674 860.974, 2249.674 858.414, 2249.674 855.770, 2249.674 853.049, 2249.674 850.260, 2249.674 847.412, 2249.674 844.514, 2249.674 841.574, 2249.674 831.574, 2249.674 821.574, 2249.674 811.574, 2249.674 801.574, 2249.674 791.574, 2249.674 781.574, 2249.674 771.574, 2249.674 761.574, 2249.674 751.574, 2249.674 741.574, 2249.674 731.574, 2249.674 721.574, 2249.674 711.574, 2249.674 701.574, 2249.674 691.574, 2249.674 681.574, 2249.674 671.574, 2249.674 661.574, 2249.674 651.574, 2249.674 641.574, 2249.674 631.574, 2249.674 621.574, 2249.674 611.574, 2249.674 601.574, 2249.674 591.574, 2249.674 581.574, 2249.674 571.574, 2249.674 561.574, 2249.674 551.574, 2249.674 541.574, 2249.674 531.574, 2249.674 521.574, 2249.674 511.574, 2249.674 501.574, 2249.674 491.574, 2249.674 481.574, 2249.674 471.574, 2249.674 461.574, 2249.674 451.574, 2249.674 441.574, 2249.674 431.574, 2249.674 421.574, 2249.674 411.574, 2249.674 401.574, 2249.674 391.574, 2249.674 381.574, 2249.674 368.260, 2249.674 367.008, 2249.674 365.733, 2249.674 355.733, 2249.674 345.733, 2249.674 335.733, 2249.674 325.733, 2249.674 315.733, 2249.674 305.733, 2249.674 295.733, 2249.674 285.733, 2249.674 275.733, 2249.674 265.733, 2249.674 255.733, 2249.674 245.733, 2249.674 235.733, 2249.674 225.733, 2249.674 215.733, 2249.674 205.733, 2249.674 195.733, 2249.674 185.733, 2249.674 183.444, 2249.674 183.444, 2249.674 183.444, 2249.674 " />
            <path fill="none" stroke-width="3.0" stroke-linecap="butt" stroke-opacity="1.0" stroke="rgb(0, 0, 0)" stroke-linejoin="round" d=" M 180.087, 2228.651 181.664, 2238.525 182.525, 2243.919 " />
            <path fill="none" stroke-width="3.0" stroke-linecap="butt" stroke-opacity="1.0" stroke="rgb(0, 0, 0)" stroke-linejoin="round" d=" M 1558.653, 2228.679 1557.702, 2228.651 1556.863, 2228.651 1552.833, 2228.651 1551.988, 2228.651 1547.918, 2228.651 1547.067, 2228.651 1542.968, 2228.651 1542.113, 2228.651 1537.995, 2228.651 1537.139, 2228.651 1533.014, 2228.651 1532.158, 2228.651 1531.302, 2228.651 1527.181, 2228.651 1526.330, 2228.651 1522.224, 2228.651 1521.377, 2228.651 1517.297, 2228.651 1516.458, 2228.651 1512.414, 2228.651 1511.584, 2228.651 1507.588, 2228.651 1506.768, 2228.651 1502.830, 2228.651 1502.022, 2228.651 1498.153, 2228.651 1488.153, 2228.651 1478.153, 2228.651 1468.153, 2228.651 1458.153, 2228.651 1448.153, 2228.651 1438.153, 2228.651 1428.153, 2228.651 1418.153, 2228.651 1408.153, 2228.651 1398.153, 2228.651 1388.153, 2228.651 1378.153, 2228.651 1368.153, 2228.651 1358.153, 2228.651 1348.153, 2228.651 1338.153, 2228.651 1328.153, 2228.651 1318.153, 2228.651 1308.153, 2228.651 1298.153, 2228.651 1288.153, 2228.651 1278.153, 2228.651 1268.153, 2228.651 1258.153, 2228.651 1248.153, 2228.651 1238.153, 2228.651 1228.153, 2228.651 1218.153, 2228.651 1208.153, 2228.651 1198.153, 2228.651 1188.153, 2228.651 1178.153, 2228.651 1168.153, 2228.651 1158.153, 2228.651 1148.153, 2228.651 1138.153, 2228.651 1128.153, 2228.651 1118.153, 2228.651 1108.153, 2228.651 1098.153, 2228.651 1088.153, 2228.651 1078.153, 2228.651 1068.153, 2228.651 1058.153, 2228.651 1048.153, 2228.651 1038.153, 2228.651 1028.153, 2228.651 1018.153, 2228.651 1008.153, 2228.651 998.153, 2228.651 988.153, 2228.651 978.153, 2228.651 968.153, 2228.651 958.153, 2228.651 948.153, 2228.651 938.153, 2228.651 928.153, 2228.651 918.153, 2228.651 908.153, 2228.651 898.153, 2228.651 888.153, 2228.651 878.153, 2228.651 868.153, 2228.651 858.153, 2228.651 851.476, 2228.651 847.657, 2228.651 843.712, 2228.651 839.657, 2228.651 835.503, 2228.651 831.268, 2228.651 826.965, 2228.651 822.608, 2228.651 812.608, 2228.651 802.608, 2228.651 792.608, 2228.651 782.608, 2228.651 772.608, 2228.651 762.608, 2228.651 752.608, 2228.651 742.608, 2228.651 732.608, 2228.651 722.608, 2228.651 712.608, 2228.651 702.608, 2228.651 692.608, 2228.651 682.608, 2228.651 672.608, 2228.651 662.608, 2228.651 652.608, 2228.651 642.608, 2228.651 632.608, 2228.651 622.608, 2228.651 612.608, 2228.651 602.608, 2228.651 592.608, 2228.651 582.608, 2228.651 572.608, 2228.651 562.608, 2228.651 552.608, 2228.651 542.608, 2228.651 532.608, 2228.651 522.608, 2228.651 512.608, 2228.651 502.608, 2228.651 492.608, 2228.651 482.608, 2228.651 472.608, 2228.651 462.608, 2228.651 452.608, 2228.651 442.608, 2228.651 432.608, 2228.651 422.608, 2228.651 412.608, 2228.651 402.608, 2228.651 392.608, 2228.651 382.608, 2228.651 372.608, 2228.651 362.608, 2228.651 352.608, 2228.651 342.608, 2228.651 332.608, 2228.651 324.197, 2228.651 322.690, 2228.651 321.159, 2228.651 311.159, 2228.651 301.159, 2228.651 291.159, 2228.651 281.159, 2228.651 271.159, 2228.651 261.159, 2228.651 251.159, 2228.651 241.159, 2228.651 231.159, 2228.651 221.159, 2228.651 211.159, 2228.651 201.159, 2228.651 191.159, 2228.651 180.087, 2228.651 181.664, 2238.525 182.525, 2243.919 " />
            <path fill="none" stroke-width="3.0" stroke-linecap="butt" stroke-opacity="1.0" stroke="rgb(0, 0, 0)" stroke-linejoin="round" d=" M 182.525, 2243.919 181.669, 2238.555 180.087, 2228.651 " />
            <path fill="none" stroke-width="3.0" stroke-linecap="butt" stroke-opacity="1.0" stroke="rgb(0, 0, 0)" stroke-linejoin="round" d=" M 182.525, 2243.919 183.444, 2249.674 185.020, 2259.549 186.597, 2269.424 188.174, 2279.299 189.750, 2289.174 191.327, 2299.048 192.903, 2308.923 194.480, 2318.798 194.623, 2319.696 " />
            <path fill="none" stroke-width="3.0" stroke-linecap="butt" stroke-opacity="1.0" stroke="rgb(0, 0, 0)" stroke-linejoin="round" d=" M 1563.419, 2228.679 1562.510, 2228.651 1558.653, 2228.679 1548.654, 2228.751 1538.654, 2228.822 1528.654, 2228.894 1518.654, 2228.966 1508.655, 2229.037 1498.655, 2229.109 1488.655, 2229.181 1478.656, 2229.253 1468.656, 2229.324 1458.656, 2229.396 1448.656, 2229.468 1438.656, 2229.540 1428.657, 2229.611 1418.657, 2229.683 1408.657, 2229.755 1398.658, 2229.826 1388.658, 2229.898 1378.658, 2229.970 1368.658, 2230.042 1358.659, 2230.113 1348.659, 2230.185 1338.659, 2230.257 1328.659, 2230.328 1318.660, 2230.400 1308.660, 2230.472 1298.660, 2230.544 1288.660, 2230.615 1278.661, 2230.687 1268.661, 2230.759 1258.661, 2230.830 1248.661, 2230.902 1238.662, 2230.974 1228.662, 2231.046 1218.662, 2231.117 1208.662, 2231.189 1198.663, 2231.261 1188.663, 2231.333 1178.663, 2231.404 1168.663, 2231.476 1158.664, 2231.548 1148.664, 2231.619 1138.664, 2231.691 1128.665, 2231.763 1118.665, 2231.835 1108.665, 2231.906 1098.665, 2231.978 1088.666, 2232.050 1078.666, 2232.121 1068.666, 2232.193 1058.666, 2232.265 1048.667, 2232.337 1038.667, 2232.408 1028.667, 2232.480 1018.667, 2232.552 1008.668, 2232.624 998.668, 2232.695 988.668, 2232.767 978.668, 2232.839 968.669, 2232.910 958.669, 2232.982 948.669, 2233.054 938.669, 2233.125 928.670, 2233.197 918.670, 2233.269 908.670, 2233.341 898.670, 2233.412 888.671, 2233.484 878.671, 2233.556 868.671, 2233.628 858.671, 2233.699 848.672, 2233.771 838.672, 2233.843 828.672, 2233.914 818.673, 2233.986 808.673, 2234.058 798.673, 2234.130 788.673, 2234.201 778.674, 2234.273 768.674, 2234.345 758.674, 2234.417 748.674, 2234.488 738.675, 2234.560 728.675, 2234.632 718.675, 2234.703 708.675, 2234.775 698.676, 2234.847 688.676, 2234.919 678.676, 2234.990 668.676, 2235.062 658.677, 2235.134 648.677, 2235.205 638.677, 2235.277 628.677, 2235.349 618.678, 2235.421 608.678, 2235.492 598.678, 2235.564 588.678, 2235.636 578.679, 2235.708 568.679, 2235.779 558.679, 2235.851 548.679, 2235.923 538.680, 2235.994 528.680, 2236.066 518.680, 2236.138 508.680, 2236.210 498.681, 2236.281 488.681, 2236.353 478.681, 2236.425 468.682, 2236.496 458.682, 2236.568 448.682, 2236.640 438.682, 2236.712 428.683, 2236.783 418.683, 2236.855 408.683, 2236.927 398.683, 2236.998 388.684, 2237.070 378.684, 2237.142 368.684, 2237.214 358.684, 2237.285 348.685, 2237.357 338.685, 2237.429 328.685, 2237.500 318.685, 2237.572 308.686, 2237.644 298.686, 2237.716 288.686, 2237.787 278.686, 2237.859 268.687, 2237.931 258.687, 2238.003 248.687, 2238.074 238.687, 2238.146 228.688, 2238.218 218.688, 2238.289 208.688, 2238.361 198.688, 2238.433 181.669, 2238.555 191.669, 2238.483 201.668, 2238.412 211.668, 2238.340 221.668, 2238.269 231.667, 2238.198 241.667, 2238.126 251.667, 2238.055 261.667, 2237.983 271.666, 2237.912 281.666, 2237.840 291.666, 2237.769 301.666, 2237.697 311.665, 2237.626 321.665, 2237.554 331.665, 2237.483 341.665, 2237.411 351.664, 2237.340 361.664, 2237.268 371.664, 2237.197 381.664, 2237.125 391.663, 2237.054 401.663, 2236.982 411.663, 2236.911 421.663, 2236.839 431.662, 2236.768 441.662, 2236.697 451.662, 2236.625 461.662, 2236.554 471.661, 2236.482 481.661, 2236.411 491.661, 2236.339 501.661, 2236.268 511.660, 2236.196 521.660, 2236.125 531.660, 2236.053 541.660, 2235.982 551.659, 2235.910 561.659, 2235.839 571.659, 2235.767 581.659, 2235.696 591.658, 2235.624 601.658, 2235.553 611.658, 2235.481 621.657, 2235.410 631.657, 2235.339 641.657, 2235.267 651.657, 2235.196 661.656, 2235.124 671.656, 2235.053 681.656, 2234.981 691.656, 2234.910 701.655, 2234.838 711.655, 2234.767 721.655, 2234.695 731.655, 2234.624 741.654, 2234.552 751.654, 2234.481 761.654, 2234.409 771.654, 2234.338 781.653, 2234.266 791.653, 2234.195 801.653, 2234.123 811.653, 2234.052 821.652, 2233.980 831.652, 2233.909 841.652, 2233.838 851.652, 2233.766 861.651, 2233.695 871.651, 2233.623 881.651, 2233.552 891.651, 2233.480 901.650, 2233.409 911.650, 2233.337 921.650, 2233.266 931.650, 2233.194 941.649, 2233.123 951.649, 2233.051 961.649, 2232.980 971.649, 2232.908 981.648, 2232.837 991.648, 2232.765 1001.648, 2232.694 1011.648, 2232.622 1021.647, 2232.551 1031.647, 2232.479 1041.647, 2232.408 1051.646, 2232.337 1061.646, 2232.265 1071.646, 2232.194 1081.646, 2232.122 1091.646, 2232.051 1101.645, 2231.979 1111.645, 2231.908 1121.645, 2231.836 1131.644, 2231.765 1141.644, 2231.693 1151.644, 2231.622 1161.644, 2231.550 1171.643, 2231.479 1181.643, 2231.407 1191.643, 2231.336 1201.643, 2231.264 1211.642, 2231.193 1221.642, 2231.121 1231.642, 2231.050 1241.642, 2230.979 1251.641, 2230.907 1261.641, 2230.836 1271.641, 2230.764 1281.641, 2230.693 1291.640, 2230.621 1301.640, 2230.550 1311.640, 2230.478 1321.640, 2230.407 1331.639, 2230.335 1341.639, 2230.264 1351.639, 2230.192 1361.639, 2230.121 1371.638, 2230.049 1381.638, 2229.978 1391.638, 2229.906 1401.638, 2229.835 1411.637, 2229.763 1421.637, 2229.692 1431.637, 2229.620 1441.636, 2229.549 1451.636, 2229.478 1461.636, 2229.406 1471.636, 2229.335 1481.635, 2229.263 1491.635, 2229.192 1501.635, 2229.120 1511.635, 2229.049 1521.635, 2228.977 1531.634, 2228.906 1541.634, 2228.834 1559.567, 2228.706 1562.254, 2228.687 1563.419, 2228.679 1567.245, 2228.651 1577.245, 2228.651 1587.245, 2228.651 1597.245, 2228.651 1607.245, 2228.651 1617.245, 2228.651 1627.245, 2228.651 1637.245, 2228.651 1647.245, 2228.651 1657.245, 2228.651 1667.245, 2228.651 1677.245, 2228.651 1687.245, 2228.651 1697.245, 2228.651 1707.245, 2228.651 1717.245, 2228.651 1727.245, 2228.651 1737.245, 2228.651 1747.245, 2228.651 1757.245, 2228.651 1767.245, 2228.651 1777.245, 2228.651 1787.245, 2228.651 1797.245, 2228.651 1807.245, 2228.651 1817.245, 2228.651 1827.245, 2228.651 1837.245, 2228.651 1847.245, 2228.651 1857.245, 2228.651 1867.245, 2228.651 1877.245, 2228.651 1887.245, 2228.651 1897.245, 2228.651 1907.245, 2228.651 1917.245, 2228.651 1927.245, 2228.651 1937.245, 2228.651 1947.245, 2228.651 1957.245, 2228.651 1967.245, 2228.651 1977.245, 2228.651 1987.245, 2228.651 1997.245, 2228.651 2007.245, 2228.651 2017.245, 2228.651 2027.245, 2228.651 2037.245, 2228.651 2047.245, 2228.651 2057.245, 2228.651 2067.245, 2228.651 2077.245, 2228.651 2087.245, 2228.651 2097.245, 2228.651 2107.245, 2228.651 2117.245, 2228.651 2127.245, 2228.651 2137.245, 2228.651 2147.245, 2228.651 2157.245, 2228.651 2167.245, 2228.651 2177.245, 2228.651 2187.245, 2228.651 2197.245, 2228.651 2207.245, 2228.651 2217.245, 2228.651 2227.245, 2228.651 2237.245, 2228.651 2247.245, 2228.651 2257.245, 2228.651 2267.245, 2228.651 2277.245, 2228.651 2287.245, 2228.651 2297.245, 2228.651 2307.245, 2228.651 2317.245, 2228.651 2333.203, 2228.651 2336.993, 2228.651 2340.887, 2228.651 2344.874, 2228.651 2348.938, 2228.651 2353.065, 2228.651 2363.065, 2228.651 2373.065, 2228.651 2383.065, 2228.651 2393.065, 2228.651 2403.065, 2228.651 2413.065, 2228.651 2423.065, 2228.651 2433.065, 2228.651 2443.065, 2228.651 2453.065, 2228.651 2463.065, 2228.651 2473.065, 2228.651 2483.065, 2228.651 2493.065, 2228.651 2503.065, 2228.651 2513.065, 2228.651 2523.065, 2228.651 2533.065, 2228.651 2543.065, 2228.651 2553.065, 2228.651 2563.065, 2228.651 2573.065, 2228.651 2583.065, 2228.651 2593.065, 2228.651 2603.065, 2228.651 2613.065, 2228.651 2623.065, 2228.651 2633.065, 2228.651 2642.881, 2228.651 2645.292, 2228.651 2647.730, 2228.651 2650.189, 2228.651 2652.658, 2228.651 2662.658, 2228.651 2672.658, 2228.651 2682.658, 2228.651 2692.658, 2228.651 2702.658, 2228.651 2712.658, 2228.651 2722.658, 2228.651 2732.658, 2228.651 2742.658, 2228.651 2752.658, 2228.651 2762.658, 2228.651 2772.658, 2228.651 2782.658, 2228.651 2792.658, 2228.651 2802.658, 2228.651 2812.658, 2228.651 2822.658, 2228.651 2832.658, 2228.651 2842.658, 2228.651 2852.658, 2228.651 2862.658, 2228.651 2872.658, 2228.651 2882.658, 2228.651 2885.395, 2228.651 2883.666, 2238.500 2881.938, 2248.349 2880.209, 2258.199 2878.480, 2268.048 2876.751, 2277.898 2875.022, 2287.747 2873.294, 2297.597 2871.565, 2307.446 2869.836, 2317.295 2868.107, 2327.145 2866.378, 2336.994 2864.650, 2346.844 2862.921, 2356.693 2861.192, 2366.543 2859.463, 2376.392 2857.735, 2386.241 2856.006, 2396.091 2854.277, 2405.940 2852.548, 2415.790 2850.819, 2425.639 2849.091, 2435.489 2847.362, 2445.338 2845.633, 2455.188 2843.904, 2465.037 2842.176, 2474.886 2840.447, 2484.736 2838.718, 2494.585 2836.989, 2504.435 2835.260, 2514.284 2833.593, 2523.784 " />
            <path fill="none" stroke-width="3.0" stroke-linecap="butt" stroke-opacity="1.0" stroke="rgb(0, 0, 0)" stroke-linejoin="round" d=" M 3019.078, 1577.236 3019.242, 1567.237 3019.406, 1557.239 3019.571, 1547.240 3019.735, 1537.241 3019.899, 1527.243 3020.064, 1517.244 3020.228, 1507.245 3020.392, 1497.247 3020.557, 1487.248 3020.721, 1477.249 3020.885, 1467.251 3021.050, 1457.252 3021.214, 1447.254 3021.379, 1437.255 3021.502, 1429.769 3026.678, 1421.213 3031.855, 1412.657 3037.031, 1404.101 3042.208, 1395.546 3047.385, 1386.990 3052.561, 1378.434 3057.738, 1369.878 3062.915, 1361.322 3068.091, 1352.766 3073.268, 1344.210 3078.444, 1335.655 3083.621, 1327.099 3088.798, 1318.543 3093.974, 1309.987 3099.151, 1301.431 3104.327, 1292.875 3109.504, 1284.319 3114.681, 1275.764 3119.857, 1267.208 3125.034, 1258.652 3130.211, 1250.096 3135.387, 1241.540 3140.564, 1232.984 3145.740, 1224.428 3150.917, 1215.873 3156.094, 1207.317 3161.270, 1198.761 3166.447, 1190.205 3171.624, 1181.649 3176.800, 1173.093 3178.547, 1170.206 3182.187, 1160.891 3185.825, 1151.577 3189.465, 1142.262 3193.104, 1132.948 3196.743, 1123.634 3200.382, 1114.319 3204.021, 1105.005 3207.660, 1095.691 3211.299, 1086.376 3214.938, 1077.062 3218.577, 1067.748 3222.216, 1058.433 3225.855, 1049.119 3229.494, 1039.804 3233.133, 1030.490 3236.772, 1021.176 3240.411, 1011.861 3244.050, 1002.547 3247.689, 993.233 3251.328, 983.918 3254.967, 974.604 3258.606, 965.290 3262.246, 955.975 3265.885, 946.661 3269.524, 937.346 3273.163, 928.032 3276.802, 918.718 3280.441, 909.403 3284.080, 900.089 3287.167, 892.186 " />
            <path fill="none" stroke-width="3.0" stroke-linecap="butt" stroke-opacity="1.0" stroke="rgb(0, 0, 0)" stroke-linejoin="round" d=" M 2901.857, 1924.083 2903.723, 1914.258 2905.590, 1904.434 2907.457, 1894.610 2909.323, 1884.786 2911.190, 1874.961 2913.056, 1865.137 2914.923, 1855.313 2916.790, 1845.489 2918.656, 1835.665 2920.523, 1825.840 2922.390, 1816.016 2924.256, 1806.192 2926.123, 1796.368 2927.990, 1786.543 2929.856, 1776.719 2931.723, 1766.895 2933.590, 1757.071 2935.456, 1747.246 2937.323, 1737.422 2939.189, 1727.598 2941.056, 1717.774 2942.923, 1707.949 2944.789, 1698.125 2946.656, 1688.301 2948.523, 1678.477 2950.356, 1668.825 2956.358, 1660.827 2962.360, 1652.828 2968.361, 1644.829 2974.363, 1636.830 2980.365, 1628.831 2986.366, 1620.833 2992.368, 1612.834 2998.369, 1604.835 3004.371, 1596.836 3010.373, 1588.838 3016.374, 1580.839 3019.078, 1577.236 " />
            <path fill="none" stroke-width="3.0" stroke-linecap="butt" stroke-opacity="1.0" stroke="rgb(0, 0, 0)" stroke-linejoin="round" d=" M 201.970, 1767.282 201.174, 1777.250 200.379, 1787.218 199.583, 1797.187 198.788, 1807.155 197.992, 1817.123 197.197, 1827.092 196.401, 1837.060 195.606, 1847.028 194.810, 1856.996 194.015, 1866.965 193.219, 1876.933 192.424, 1886.901 191.628, 1896.870 190.833, 1906.838 190.037, 1916.806 189.242, 1926.775 188.446, 1936.743 187.651, 1946.711 186.855, 1956.680 186.060, 1966.648 185.264, 1976.616 184.469, 1986.584 183.673, 1996.553 182.878, 2006.521 182.082, 2016.489 181.287, 2026.458 180.491, 2036.426 179.696, 2046.394 178.900, 2056.363 178.105, 2066.331 177.309, 2076.299 176.514, 2086.268 175.718, 2096.236 174.923, 2106.204 174.127, 2116.172 173.332, 2126.141 172.536, 2136.109 171.741, 2146.077 170.945, 2156.046 170.129, 2166.275 171.706, 2176.150 173.282, 2186.025 174.053, 2190.850 184.053, 2190.850 194.053, 2190.850 204.053, 2190.850 214.053, 2190.850 224.053, 2190.850 227.767, 2190.850 228.143, 2190.850 228.512, 2190.850 238.512, 2190.850 248.512, 2190.850 258.512, 2190.850 268.512, 2190.850 278.512, 2190.850 288.512, 2190.850 298.512, 2190.850 308.512, 2190.850 318.512, 2190.850 328.512, 2190.850 338.512, 2190.850 348.512, 2190.850 358.512, 2190.850 368.512, 2190.850 378.512, 2190.850 388.512, 2190.850 398.512, 2190.850 408.512, 2190.850 418.512, 2190.850 428.512, 2190.850 438.512, 2190.850 448.512, 2190.850 458.512, 2190.850 468.512, 2190.850 478.512, 2190.850 488.512, 2190.850 498.512, 2190.850 508.512, 2190.850 518.512, 2190.850 528.512, 2190.850 538.512, 2190.850 548.512, 2190.850 558.512, 2190.850 568.512, 2190.850 578.512, 2190.850 588.512, 2190.850 598.512, 2190.850 608.512, 2190.850 618.512, 2190.850 628.512, 2190.850 638.512, 2190.850 648.512, 2190.850 658.512, 2190.850 668.512, 2190.850 678.512, 2190.850 688.512, 2190.850 698.512, 2190.850 708.512, 2190.850 718.512, 2190.850 728.512, 2190.850 738.512, 2190.850 748.512, 2190.850 763.579, 2190.850 766.161, 2190.850 768.705, 2190.850 771.206, 2190.850 773.655, 2190.850 776.045, 2190.850 778.367, 2190.850 780.614, 2190.850 790.614, 2190.850 800.614, 2190.850 810.614, 2190.850 820.614, 2190.850 830.614, 2190.850 840.614, 2190.850 850.614, 2190.850 860.614, 2190.850 870.614, 2190.850 880.614, 2190.850 890.614, 2190.850 900.614, 2190.850 910.614, 2190.850 920.614, 2190.850 930.614, 2190.850 940.614, 2190.850 950.614, 2190.850 960.614, 2190.850 970.614, 2190.850 980.614, 2190.850 990.614, 2190.850 1000.614, 2190.850 1010.614, 2190.850 1020.614, 2190.850 1030.614, 2190.850 1040.614, 2190.850 1050.614, 2190.850 1060.614, 2190.850 1070.614, 2190.850 1080.614, 2190.850 1090.614, 2190.850 1100.614, 2190.850 1110.614, 2190.850 1120.614, 2190.850 1130.614, 2190.850 1140.614, 2190.850 1150.614, 2190.850 1160.614, 2190.850 1170.614, 2190.850 1180.614, 2190.850 1190.614, 2190.850 1200.614, 2190.850 1210.614, 2190.850 1220.614, 2190.850 1230.614, 2190.850 1240.614, 2190.850 1250.614, 2190.850 1260.614, 2190.850 1270.614, 2190.850 1280.614, 2190.850 1290.614, 2190.850 1300.614, 2190.850 1310.614, 2190.850 1320.614, 2190.850 1330.614, 2190.850 1340.614, 2190.850 1350.614, 2190.850 1360.614, 2190.850 1370.614, 2190.850 1380.614, 2190.850 1390.614, 2190.850 1400.614, 2190.850 1410.614, 2190.850 1420.614, 2190.850 1430.614, 2190.850 1440.614, 2190.850 1450.614, 2190.850 1460.614, 2190.850 1470.614, 2190.850 1480.614, 2190.850 1490.614, 2190.850 1500.614, 2190.850 1508.262, 2190.850 1509.662, 2190.850 1512.130, 2190.850 1513.555, 2190.850 1516.064, 2190.850 1517.509, 2190.850 1520.052, 2190.850 1521.515, 2190.850 1524.086, 2190.850 1525.563, 2190.850 1528.156, 2190.850 1529.644, 2190.850 1532.252, 2190.850 1533.746, 2190.850 1536.365, 2190.850 1537.861, 2190.850 1540.482, 2190.850 1543.099, 2190.850 1544.596, 2190.850 1547.201, 2190.850 1548.695, 2190.850 1551.284, 2190.850 1552.770, 2190.850 1555.336, 2190.850 1556.810, 2190.850 1559.347, 2190.850 1560.806, 2190.850 1563.308, 2190.850 1564.749, 2190.850 1567.209, 2190.850 1577.209, 2190.850 1587.209, 2190.850 1597.209, 2190.850 1607.209, 2190.850 1617.209, 2190.850 1627.209, 2190.850 1637.209, 2190.850 1647.209, 2190.850 1657.209, 2190.850 1667.209, 2190.850 1677.209, 2190.850 1687.209, 2190.850 1697.209, 2190.850 1707.209, 2190.850 1717.209, 2190.850 1727.209, 2190.850 1737.209, 2190.850 1747.209, 2190.850 1757.209, 2190.850 1767.209, 2190.850 1777.209, 2190.850 1787.209, 2190.850 1797.209, 2190.850 1807.209, 2190.850 1817.209, 2190.850 1827.209, 2190.850 1837.209, 2190.850 1847.209, 2190.850 1857.209, 2190.850 1867.209, 2190.850 1877.209, 2190.850 1887.209, 2190.850 1897.209, 2190.850 1907.209, 2190.850 1917.209, 2190.850 1927.209, 2190.850 1937.209, 2190.850 1947.209, 2190.850 1957.209, 2190.850 1967.209, 2190.850 1977.209, 2190.850 1987.209, 2190.850 1997.209, 2190.850 2007.209, 2190.850 2017.209, 2190.850 2027.209, 2190.850 2037.209, 2190.850 2047.209, 2190.850 2057.209, 2190.850 2067.209, 2190.850 2077.209, 2190.850 2087.209, 2190.850 2097.209, 2190.850 2107.209, 2190.850 2117.209, 2190.850 2127.209, 2190.850 2137.209, 2190.850 2147.209, 2190.850 2157.209, 2190.850 2167.209, 2190.850 2177.209, 2190.850 2187.209, 2190.850 2197.209, 2190.850 2207.209, 2190.850 2217.209, 2190.850 2227.209, 2190.850 2237.209, 2190.850 2247.209, 2190.850 2257.209, 2190.850 2267.209, 2190.850 2277.209, 2190.850 2287.209, 2190.850 2297.209, 2190.850 2307.209, 2190.850 2317.209, 2190.850 2327.209, 2190.850 2337.209, 2190.850 2347.209, 2190.850 2357.209, 2190.850 2367.209, 2190.850 2377.209, 2190.850 2387.209, 2190.850 2397.209, 2190.850 2407.209, 2190.850 2421.745, 2190.850 2423.912, 2190.850 2426.133, 2190.850 2428.402, 2190.850 2430.712, 2190.850 2440.712, 2190.850 2450.712, 2190.850 2460.712, 2190.850 2470.712, 2190.850 2480.712, 2190.850 2490.712, 2190.850 2500.712, 2190.850 2510.712, 2190.850 2520.712, 2190.850 2530.712, 2190.850 2540.712, 2190.850 2550.712, 2190.850 2560.712, 2190.850 2570.712, 2190.850 2580.712, 2190.850 2590.712, 2190.850 2600.712, 2190.850 2610.712, 2190.850 2620.712, 2190.850 2630.712, 2190.850 2640.712, 2190.850 2650.712, 2190.850 2660.712, 2190.850 2670.712, 2190.850 2680.712, 2190.850 2690.712, 2190.850 2700.712, 2190.850 2710.712, 2190.850 2720.712, 2190.850 2730.712, 2190.850 2740.962, 2190.850 2741.937, 2190.850 2742.927, 2190.850 2743.930, 2190.850 2753.930, 2190.850 2763.930, 2190.850 2773.930, 2190.850 2783.930, 2190.850 2793.930, 2190.850 2803.930, 2190.850 2813.930, 2190.850 2823.930, 2190.850 2833.930, 2190.850 2843.930, 2190.850 2853.930, 2190.850 2863.930, 2190.850 2873.930, 2190.850 2883.930, 2190.850 2892.030, 2190.850 2893.759, 2181.001 2895.487, 2171.151 2897.216, 2161.302 2898.945, 2151.453 2900.674, 2141.603 2902.402, 2131.754 2904.100, 2122.081 2903.987, 2112.082 2903.874, 2102.082 2903.760, 2092.083 2903.647, 2082.084 2903.534, 2072.084 2903.420, 2062.085 2903.307, 2052.086 2903.194, 2042.086 2903.080, 2032.087 2902.967, 2022.087 2902.854, 2012.088 2902.740, 2002.089 2902.627, 1992.089 2902.514, 1982.090 2902.401, 1972.091 2902.287, 1962.091 2902.174, 1952.092 2902.061, 1942.093 2901.948, 1932.093 2901.857, 1924.083 " />
            <path fill="none" stroke-width="3.0" stroke-linecap="butt" stroke-opacity="1.0" stroke="rgb(0, 0, 0)" stroke-linejoin="round" d=" M 3287.167, 892.186 3286.972, 882.188 3286.777, 872.190 3286.582, 862.191 3286.387, 852.193 3286.191, 842.195 3285.996, 832.197 3285.801, 822.199 3285.606, 812.201 3285.411, 802.203 3285.216, 792.205 3285.020, 782.207 3284.825, 772.209 3284.630, 762.210 3284.435, 752.212 3284.240, 742.214 3284.044, 732.216 3283.849, 722.218 3283.654, 712.220 3283.542, 706.499 3286.658, 696.997 3289.774, 687.495 3292.890, 677.993 3296.006, 668.490 3299.123, 658.989 3302.239, 649.486 3305.354, 639.984 3308.471, 630.482 3311.587, 620.980 3314.703, 611.478 3317.819, 601.976 3320.935, 592.474 3324.051, 582.971 3327.167, 573.469 3330.283, 563.967 3333.399, 554.465 3336.515, 544.963 3339.631, 535.461 3342.747, 525.959 3345.863, 516.457 3348.979, 506.955 3352.095, 497.452 3355.211, 487.950 3358.327, 478.448 3361.444, 468.946 3364.560, 459.444 3367.676, 449.942 3370.792, 440.440 3373.908, 430.938 3377.024, 421.436 3380.140, 411.933 3383.256, 402.431 3386.372, 392.929 3389.488, 383.427 3392.604, 373.925 3395.720, 364.423 3398.836, 354.921 3401.952, 345.419 3405.068, 335.917 3408.184, 326.414 3411.300, 316.912 3415.424, 304.338 3412.757, 294.700 3410.090, 285.062 3407.423, 275.425 3404.756, 265.787 3402.089, 256.149 3399.422, 246.511 3396.755, 236.873 3394.088, 227.236 3391.421, 217.598 3388.754, 207.960 3386.087, 198.322 3383.420, 188.684 3380.753, 179.047 3378.086, 169.409 3375.844, 161.304 3375.975, 151.305 3376.107, 141.306 3376.238, 131.307 3376.370, 121.307 3376.501, 111.308 3376.633, 101.309 3376.765, 91.310 3376.896, 81.311 3377.028, 71.312 3377.159, 61.313 3377.291, 51.313 3377.423, 41.314 3377.554, 31.315 3377.655, 23.631 " />
            <path fill="none" stroke-width="3.0" stroke-linecap="butt" stroke-opacity="1.0" stroke="rgb(0, 0, 0)" stroke-linejoin="round" d=" M 2315.877, 519.058 2314.551, 521.354 2313.113, 523.581 2311.566, 525.732 2309.914, 527.804 2308.160, 529.793 " />
            <path fill="none" stroke-width="3.0" stroke-linecap="butt" stroke-opacity="1.0" stroke="rgb(0, 0, 0)" stroke-linejoin="round" d=" M 2306.309, 531.690 2304.366, 533.493 2302.336, 535.196 2300.223, 536.796 2298.033, 538.289 2295.772, 539.671 2293.444, 540.939 " />
            <path fill="none" stroke-width="3.0" stroke-linecap="butt" stroke-opacity="1.0" stroke="rgb(0, 0, 0)" stroke-linejoin="round" d=" M 2319.144, 511.817 2318.176, 514.284 2317.086, 516.700 2315.877, 519.058 " />
            <path fill="none" stroke-width="3.0" stroke-linecap="butt" stroke-opacity="1.0" stroke="rgb(0, 0, 0)" stroke-linejoin="round" d=" M 2291.056, 542.089 2288.614, 543.118 2286.123, 544.025 2283.591, 544.806 2281.022, 545.460 2278.424, 545.986 " />
            <path fill="none" stroke-width="3.0" stroke-linecap="butt" stroke-opacity="1.0" stroke="rgb(0, 0, 0)" stroke-linejoin="round" d=" M 2321.296, 483.104 2321.756, 485.714 2322.086, 488.344 2322.284, 490.987 2322.350, 493.637 2322.284, 496.286 2322.086, 498.929 2321.756, 501.559 2321.296, 504.170 2320.706, 506.754 2319.989, 509.305 2319.144, 511.817 " />
            <path fill="none" stroke-width="3.0" stroke-linecap="butt" stroke-opacity="1.0" stroke="rgb(0, 0, 0)" stroke-linejoin="round" d=" M 2306.309, 455.583 2308.160, 457.480 2309.914, 459.468 2311.566, 461.540 2313.113, 463.692 2314.551, 465.918 2315.877, 468.214 2317.086, 470.572 2318.176, 472.989 2319.144, 475.456 2319.989, 477.968 2320.706, 480.520 2321.296, 483.104 " />
            <path fill="none" stroke-width="3.0" stroke-linecap="butt" stroke-opacity="1.0" stroke="rgb(0, 0, 0)" stroke-linejoin="round" d=" M 3377.655, 23.631 3367.655, 23.631 3357.655, 23.632 3347.655, 23.633 3337.655, 23.633 3327.655, 23.634 3317.655, 23.635 3307.655, 23.635 3297.655, 23.636 3287.655, 23.636 3277.655, 23.637 3267.655, 23.637 3257.655, 23.638 3247.655, 23.639 3237.655, 23.639 3227.655, 23.640 3217.655, 23.641 3207.655, 23.641 3197.655, 23.642 3187.655, 23.642 3180.021, 23.643 3178.859, 23.695 3177.813, 23.695 3176.783, 23.695 3175.770, 23.695 3174.778, 23.695 3173.810, 23.694 3172.870, 23.694 3171.961, 23.694 3171.085, 23.694 3170.247, 23.694 " />
            <path fill="none" stroke-width="3.0" stroke-linecap="butt" stroke-opacity="1.0" stroke="rgb(0, 0, 0)" stroke-linejoin="round" d=" M 2304.366, 453.781 2306.309, 455.583 " />
            <path fill="none" stroke-width="3.0" stroke-linecap="butt" stroke-opacity="1.0" stroke="rgb(0, 0, 0)" stroke-linejoin="round" d=" M 2302.336, 452.077 2304.366, 453.781 " />
            <path fill="none" stroke-width="3.0" stroke-linecap="butt" stroke-opacity="1.0" stroke="rgb(0, 0, 0)" stroke-linejoin="round" d=" M 2265.221, 440.628 2267.868, 440.497 2270.519, 440.497 2273.166, 440.628 2275.803, 440.892 2278.424, 441.287 2281.022, 441.812 2283.591, 442.467 2286.123, 443.248 2288.614, 444.154 2291.056, 445.184 2293.444, 446.333 2295.772, 447.602 2298.033, 448.984 2300.223, 450.476 2302.336, 452.077 " />
            <path fill="none" stroke-width="3.0" stroke-linecap="butt" stroke-opacity="1.0" stroke="rgb(0, 0, 0)" stroke-linejoin="round" d=" M 3170.247, 23.694 3169.442, 23.680 3159.442, 23.680 3149.442, 23.680 3139.442, 23.679 3129.442, 23.679 3119.442, 23.678 3109.442, 23.678 3099.442, 23.678 3089.442, 23.677 3079.442, 23.677 3069.442, 23.677 3059.442, 23.676 3049.442, 23.676 3039.442, 23.676 3029.442, 23.675 3019.442, 23.675 3009.442, 23.675 2999.442, 23.674 2989.442, 23.674 2979.442, 23.673 2969.442, 23.673 2959.442, 23.673 2949.442, 23.672 2939.442, 23.672 2929.442, 23.672 2919.442, 23.671 2909.442, 23.671 2899.442, 23.671 2889.442, 23.670 2879.442, 23.670 2869.442, 23.669 2859.442, 23.669 2849.442, 23.669 2839.442, 23.668 2829.442, 23.668 2819.442, 23.668 2809.442, 23.667 2799.442, 23.667 2789.442, 23.667 2779.442, 23.666 2772.897, 23.666 2770.958, 23.666 2769.088, 23.666 2759.088, 23.667 2749.088, 23.667 2739.088, 23.668 2729.088, 23.668 2719.088, 23.669 2709.088, 23.669 2699.088, 23.670 2689.088, 23.671 2679.088, 23.671 2669.088, 23.672 2659.088, 23.672 2649.088, 23.673 2639.088, 23.674 2629.088, 23.674 2619.088, 23.675 2609.088, 23.675 2599.088, 23.676 2589.088, 23.676 2579.088, 23.677 2569.088, 23.677 2559.088, 23.678 2550.420, 23.679 " />
            <path fill="none" stroke-width="3.0" stroke-linecap="butt" stroke-opacity="1.0" stroke="rgb(0, 0, 0)" stroke-linejoin="round" d=" M 2769.088, 23.666 2768.434, 23.666 2767.291, 23.667 2765.574, 23.667 2763.941, 23.667 2762.397, 23.667 2760.946, 23.667 2760.638, 23.667 2759.593, 23.667 2749.593, 23.667 2739.593, 23.668 2729.593, 23.668 2719.593, 23.669 2709.593, 23.670 2699.593, 23.670 2689.593, 23.671 2679.593, 23.671 2669.593, 23.672 2659.593, 23.672 2649.593, 23.673 2639.593, 23.674 2629.593, 23.674 2619.593, 23.675 2609.593, 23.675 2599.593, 23.676 2589.593, 23.676 2579.593, 23.677 2569.593, 23.677 2559.593, 23.678 2550.420, 23.679 2540.420, 23.679 2530.420, 23.680 2520.420, 23.680 2511.521, 23.681 " />
            <path fill="none" stroke-width="3.0" stroke-linecap="butt" stroke-opacity="1.0" stroke="rgb(0, 0, 0)" stroke-linejoin="round" d=" M 2249.773, 444.154 2252.264, 443.248 2254.797, 442.467 2257.365, 441.812 2259.963, 441.287 2262.583, 440.892 2265.221, 440.628 " />
            <path fill="none" stroke-width="3.0" stroke-linecap="butt" stroke-opacity="1.0" stroke="rgb(0, 0, 0)" stroke-linejoin="round" d=" M 2278.424, 545.986 2275.803, 546.381 2273.166, 546.644 2270.519, 546.777 2267.868, 546.777 2265.221, 546.644 2262.583, 546.381 2259.963, 545.986 " />
            <path fill="none" stroke-width="3.0" stroke-linecap="butt" stroke-opacity="1.0" stroke="rgb(0, 0, 0)" stroke-linejoin="round" d=" M 2259.963, 545.986 2257.365, 545.460 2254.797, 544.806 2252.264, 544.025 2249.773, 543.118 " />
            <path fill="none" stroke-width="3.0" stroke-linecap="butt" stroke-opacity="1.0" stroke="rgb(0, 0, 0)" stroke-linejoin="round" d=" M 2247.331, 542.089 2244.943, 540.939 2242.615, 539.671 2240.354, 538.289 2238.163, 536.796 2236.051, 535.196 2234.020, 533.493 2232.077, 531.690 " />
            <path fill="none" stroke-width="3.0" stroke-linecap="butt" stroke-opacity="1.0" stroke="rgb(0, 0, 0)" stroke-linejoin="round" d=" M 2232.077, 531.690 2230.227, 529.793 2228.473, 527.804 2226.821, 525.732 2225.273, 523.581 2223.835, 521.354 2222.510, 519.058 2221.301, 516.700 2220.211, 514.284 2219.243, 511.817 2218.398, 509.305 2217.681, 506.754 2217.091, 504.170 2216.631, 501.559 2216.301, 498.929 2216.103, 496.286 2216.037, 493.637 2216.103, 490.987 2216.301, 488.344 " />
            <path fill="none" stroke-width="3.0" stroke-linecap="butt" stroke-opacity="1.0" stroke="rgb(0, 0, 0)" stroke-linejoin="round" d=" M 2216.301, 488.344 2216.631, 485.714 2217.091, 483.104 2217.681, 480.520 " />
            <path fill="none" stroke-width="3.0" stroke-linecap="butt" stroke-opacity="1.0" stroke="rgb(0, 0, 0)" stroke-linejoin="round" d=" M 2217.681, 480.520 2218.398, 477.968 2219.243, 475.456 2220.211, 472.989 " />
            <path fill="none" stroke-width="3.0" stroke-linecap="butt" stroke-opacity="1.0" stroke="rgb(0, 0, 0)" stroke-linejoin="round" d=" M 2220.211, 472.989 2221.301, 470.572 2222.510, 468.214 2223.835, 465.918 2225.273, 463.692 " />
            <path fill="none" stroke-width="3.0" stroke-linecap="butt" stroke-opacity="1.0" stroke="rgb(0, 0, 0)" stroke-linejoin="round" d=" M 2225.273, 463.692 2226.821, 461.540 " />
            <path fill="none" stroke-width="3.0" stroke-linecap="butt" stroke-opacity="1.0" stroke="rgb(0, 0, 0)" stroke-linejoin="round" d=" M 2226.821, 461.540 2228.473, 459.468 2230.227, 457.480 2232.077, 455.583 " />
            <path fill="none" stroke-width="3.0" stroke-linecap="butt" stroke-opacity="1.0" stroke="rgb(0, 0, 0)" stroke-linejoin="round" d=" M 2232.077, 455.583 2234.020, 453.781 " />
            <path fill="none" stroke-width="3.0" stroke-linecap="butt" stroke-opacity="1.0" stroke="rgb(0, 0, 0)" stroke-linejoin="round" d=" M 2234.020, 453.781 2236.051, 452.077 " />
            <path fill="none" stroke-width="3.0" stroke-linecap="butt" stroke-opacity="1.0" stroke="rgb(0, 0, 0)" stroke-linejoin="round" d=" M 2236.051, 452.077 2238.163, 450.476 " />
            <path fill="none" stroke-width="3.0" stroke-linecap="butt" stroke-opacity="1.0" stroke="rgb(0, 0, 0)" stroke-linejoin="round" d=" M 2511.521, 23.681 2509.654, 23.681 2509.492, 23.681 2507.866, 23.681 2506.163, 23.681 2496.163, 23.681 2486.163, 23.682 2476.163, 23.683 2466.163, 23.683 2456.163, 23.684 2446.163, 23.684 2436.163, 23.685 2426.163, 23.686 2416.163, 23.686 2406.163, 23.687 2396.163, 23.687 2386.163, 23.688 2376.163, 23.688 2366.163, 23.689 2356.163, 23.689 2346.163, 23.690 2336.163, 23.691 2326.163, 23.691 2316.163, 23.692 2306.163, 23.692 2296.163, 23.693 2286.163, 23.694 2276.163, 23.694 2266.163, 23.695 2256.163, 23.695 2246.163, 23.696 2236.163, 23.696 2226.163, 23.697 2216.163, 23.698 2206.163, 23.698 2196.163, 23.699 2186.163, 23.699 2176.163, 23.700 2166.163, 23.700 2156.163, 23.701 2146.163, 23.702 2136.163, 23.702 2126.163, 23.703 2116.163, 23.703 2106.163, 23.704 2096.163, 23.704 2086.163, 23.705 2076.163, 23.706 2066.163, 23.706 2056.163, 23.707 2046.163, 23.707 2036.163, 23.708 2026.163, 23.708 2016.163, 23.709 2006.163, 23.710 1996.163, 23.710 1986.163, 23.711 1976.163, 23.711 1966.163, 23.712 1956.163, 23.713 1946.163, 23.713 1936.163, 23.714 1926.163, 23.714 1916.163, 23.715 1906.163, 23.715 1896.163, 23.716 1886.163, 23.717 1876.163, 23.717 1866.163, 23.718 1856.163, 23.718 1846.163, 23.719 1836.163, 23.719 1826.163, 23.720 1816.163, 23.721 1806.163, 23.721 1796.163, 23.722 1786.163, 23.722 1776.163, 23.723 1766.163, 23.723 1756.163, 23.724 1746.163, 23.725 1736.163, 23.725 1726.163, 23.726 1716.163, 23.726 1706.163, 23.727 1696.163, 23.728 1686.163, 23.728 1676.163, 23.729 1666.163, 23.729 1656.163, 23.730 1646.163, 23.730 1636.163, 23.731 1626.163, 23.731 1616.163, 23.732 1606.163, 23.733 1590.334, 23.734 1587.757, 23.734 1577.757, 23.734 1567.757, 23.735 1557.757, 23.735 1547.757, 23.736 1537.757, 23.737 1527.757, 23.737 1517.757, 23.738 1507.757, 23.738 1497.757, 23.739 1487.757, 23.740 1477.757, 23.740 1467.757, 23.740 1457.757, 23.741 1447.757, 23.742 1436.877, 23.742 " />
            <path fill="none" stroke-width="3.0" stroke-linecap="butt" stroke-opacity="1.0" stroke="rgb(0, 0, 0)" stroke-linejoin="round" d=" M 97.060, 822.211 95.533, 832.094 94.007, 841.977 92.481, 851.860 90.954, 861.742 89.428, 871.625 87.902, 881.508 86.375, 891.391 84.849, 901.274 83.323, 911.156 81.796, 921.039 80.270, 930.922 78.744, 940.805 77.217, 950.688 75.691, 960.571 74.165, 970.454 72.638, 980.336 71.112, 990.219 69.586, 1000.102 68.059, 1009.985 66.533, 1019.868 65.007, 1029.750 63.480, 1039.633 61.954, 1049.516 60.428, 1059.399 58.902, 1069.282 57.375, 1079.165 55.849, 1089.047 54.323, 1098.930 52.796, 1108.813 51.270, 1118.696 49.744, 1128.579 48.217, 1138.462 46.691, 1148.344 45.165, 1158.227 43.638, 1168.110 42.112, 1177.993 40.586, 1187.876 39.059, 1197.759 37.533, 1207.641 36.007, 1217.524 34.480, 1227.407 32.954, 1237.290 31.428, 1247.173 29.901, 1257.056 28.375, 1266.938 26.849, 1276.821 25.322, 1286.704 23.597, 1297.876 27.149, 1307.224 30.701, 1316.572 34.253, 1325.920 37.806, 1335.268 41.358, 1344.616 44.910, 1353.963 48.462, 1363.311 52.014, 1372.659 55.566, 1382.007 59.118, 1391.355 62.671, 1400.703 66.223, 1410.051 69.775, 1419.398 73.327, 1428.746 76.879, 1438.094 80.431, 1447.442 83.984, 1456.790 87.536, 1466.138 91.088, 1475.485 94.640, 1484.833 98.192, 1494.181 101.744, 1503.529 105.296, 1512.877 108.849, 1522.225 112.401, 1531.573 115.953, 1540.920 119.505, 1550.268 123.057, 1559.616 126.609, 1568.964 130.162, 1578.312 133.714, 1587.660 137.266, 1597.007 140.818, 1606.355 144.370, 1615.703 147.922, 1625.051 151.474, 1634.399 155.027, 1643.747 158.579, 1653.094 162.131, 1662.442 165.683, 1671.790 169.235, 1681.138 172.787, 1690.486 176.340, 1699.834 179.892, 1709.182 183.444, 1718.529 186.996, 1727.877 190.548, 1737.225 194.100, 1746.573 197.653, 1755.921 201.970, 1767.282 " />
            <path fill="none" stroke-width="3.0" stroke-linecap="butt" stroke-opacity="1.0" stroke="rgb(0, 0, 0)" stroke-linejoin="round" d=" M 137.326, 23.817 136.444, 33.779 135.562, 43.740 134.680, 53.700 133.799, 63.662 132.917, 73.623 132.035, 83.584 131.153, 93.545 130.271, 103.506 129.389, 113.467 128.507, 123.428 127.625, 133.389 126.743, 143.350 125.861, 153.311 124.979, 163.272 124.097, 173.233 123.215, 183.194 122.334, 193.155 121.452, 203.116 120.570, 213.077 119.688, 223.038 118.806, 232.999 117.924, 242.960 117.042, 252.921 116.160, 262.882 115.278, 272.843 114.396, 282.804 113.514, 292.765 112.632, 302.726 112.358, 305.826 112.124, 315.823 111.890, 325.820 111.656, 335.818 111.422, 345.815 111.188, 355.812 110.954, 365.809 110.720, 375.807 110.485, 385.804 110.251, 395.801 110.017, 405.798 109.783, 415.796 109.549, 425.793 109.315, 435.790 109.081, 445.787 108.847, 455.785 108.613, 465.782 108.379, 475.779 108.145, 485.776 107.911, 495.774 107.677, 505.771 107.443, 515.768 107.209, 525.765 106.975, 535.763 106.740, 545.760 106.649, 549.656 108.639, 559.456 110.630, 569.256 112.620, 579.056 114.610, 588.856 116.600, 598.656 118.590, 608.456 120.580, 618.256 122.571, 628.055 124.561, 637.855 126.551, 647.655 128.541, 657.455 130.531, 667.255 132.521, 677.055 134.512, 686.855 136.502, 696.655 138.492, 706.455 140.482, 716.255 142.551, 726.444 138.261, 735.476 133.970, 744.509 129.679, 753.542 125.388, 762.574 121.098, 771.607 116.807, 780.640 112.516, 789.673 108.225, 798.705 103.935, 807.738 99.644, 816.771 97.060, 822.211 " />
            <path fill="none" stroke-width="3.0" stroke-linecap="butt" stroke-opacity="1.0" stroke="rgb(0, 0, 0)" stroke-linejoin="round" d=" M 266.563, 23.810 266.450, 23.810 265.601, 23.810 255.601, 23.810 245.601, 23.811 235.601, 23.812 225.601, 23.812 215.601, 23.813 205.601, 23.813 195.601, 23.814 185.601, 23.814 175.601, 23.815 165.601, 23.816 155.601, 23.816 145.601, 23.817 137.326, 23.817 " />
            <path fill="none" stroke-width="3.0" stroke-linecap="butt" stroke-opacity="1.0" stroke="rgb(0, 0, 0)" stroke-linejoin="round" d=" M 776.047, 23.780 766.047, 23.781 756.047, 23.781 746.047, 23.782 736.047, 23.782 726.047, 23.783 716.047, 23.783 706.047, 23.784 696.047, 23.785 686.047, 23.785 676.047, 23.786 666.047, 23.786 656.047, 23.787 646.047, 23.788 636.047, 23.788 626.047, 23.789 616.047, 23.789 604.906, 23.790 594.906, 23.791 592.352, 23.791 590.572, 23.791 580.572, 23.791 570.572, 23.792 560.572, 23.792 550.572, 23.793 540.572, 23.793 530.572, 23.794 520.572, 23.795 510.572, 23.795 500.572, 23.796 490.572, 23.796 480.572, 23.797 470.572, 23.798 460.572, 23.798 450.572, 23.799 440.572, 23.799 430.572, 23.800 420.572, 23.801 410.572, 23.801 400.572, 23.802 390.572, 23.802 380.572, 23.803 370.572, 23.803 360.572, 23.804 350.572, 23.804 340.572, 23.805 330.572, 23.806 320.572, 23.806 310.572, 23.807 300.572, 23.807 290.572, 23.808 280.572, 23.808 271.308, 23.809 270.378, 23.809 269.436, 23.809 268.839, 23.809 268.484, 23.809 267.525, 23.809 267.033, 23.809 257.033, 23.810 247.033, 23.810 237.033, 23.811 227.033, 23.812 217.033, 23.812 207.033, 23.813 197.033, 23.813 187.033, 23.814 177.033, 23.815 167.033, 23.815 157.033, 23.816 147.033, 23.817 137.326, 23.817 " />
            <path fill="none" stroke-width="3.0" stroke-linecap="butt" stroke-opacity="1.0" stroke="rgb(0, 0, 0)" stroke-linejoin="round" d=" M 267.525, 23.809 266.563, 23.810 " />
            <path fill="none" stroke-width="3.0" stroke-linecap="butt" stroke-opacity="1.0" stroke="rgb(0, 0, 0)" stroke-linejoin="round" d=" M 1579.439, 23.734 1569.439, 23.735 1559.439, 23.735 1549.439, 23.736 1539.439, 23.737 1529.439, 23.737 1527.699, 23.737 1517.699, 23.738 1507.699, 23.738 1497.699, 23.739 1487.699, 23.740 1477.699, 23.740 1467.699, 23.741 1457.699, 23.741 1447.699, 23.742 1436.877, 23.742 1426.877, 23.743 1416.877, 23.743 1406.877, 23.744 1396.877, 23.745 1386.877, 23.745 1376.877, 23.746 1366.877, 23.746 1356.877, 23.747 1346.877, 23.747 1336.877, 23.748 1326.877, 23.749 1316.877, 23.749 1306.877, 23.750 1296.877, 23.750 1286.877, 23.751 1276.877, 23.751 1266.224, 23.752 1263.499, 23.752 1260.679, 23.752 1257.774, 23.753 " />
            <path fill="none" stroke-width="3.0" stroke-linecap="butt" stroke-opacity="1.0" stroke="rgb(0, 0, 0)" stroke-linejoin="round" d=" M 2238.163, 450.476 2240.354, 448.984 " />
            <path fill="none" stroke-width="3.0" stroke-linecap="butt" stroke-opacity="1.0" stroke="rgb(0, 0, 0)" stroke-linejoin="round" d=" M 2240.354, 448.984 2242.615, 447.602 2244.943, 446.333 2247.331, 445.184 2249.773, 444.154 " />
            <path fill="none" stroke-width="3.0" stroke-linecap="butt" stroke-opacity="1.0" stroke="rgb(0, 0, 0)" stroke-linejoin="round" d=" M 1257.774, 23.753 1247.774, 23.753 1237.774, 23.754 1227.774, 23.754 1217.774, 23.755 1207.774, 23.756 1197.774, 23.756 1187.774, 23.757 1177.774, 23.757 1167.774, 23.758 1157.774, 23.758 1147.774, 23.759 1137.774, 23.760 1127.774, 23.760 1117.774, 23.761 1107.774, 23.761 1097.774, 23.762 1087.774, 23.762 1077.774, 23.763 1067.774, 23.764 1057.774, 23.764 1047.774, 23.765 1037.774, 23.765 1027.774, 23.766 1017.774, 23.767 1007.774, 23.767 997.774, 23.768 987.774, 23.768 977.774, 23.769 967.774, 23.769 957.774, 23.770 947.774, 23.771 937.774, 23.771 927.774, 23.772 917.774, 23.772 907.774, 23.773 897.774, 23.773 887.774, 23.774 877.774, 23.775 867.774, 23.775 857.774, 23.776 847.774, 23.776 837.774, 23.777 827.774, 23.777 817.774, 23.778 806.133, 23.779 803.534, 23.779 801.675, 23.779 " />
            <path fill="none" stroke-width="3.0" stroke-linecap="butt" stroke-opacity="1.0" stroke="rgb(0, 0, 0)" stroke-linejoin="round" d=" M 801.675, 23.779 800.820, 23.779 800.294, 23.779 797.998, 23.779 795.077, 23.779 785.077, 23.779 783.118, 23.779 " />
            <path fill="none" stroke-width="3.0" stroke-linecap="butt" stroke-opacity="1.0" stroke="rgb(0, 0, 0)" stroke-linejoin="round" d=" M 795.077, 23.779 793.385, 23.779 792.889, 23.779 " />
            <path fill="none" stroke-width="3.0" stroke-linecap="butt" stroke-opacity="1.0" stroke="rgb(0, 0, 0)" stroke-linejoin="round" d=" M 792.068, 23.779 789.596, 23.779 " />
            <path fill="none" stroke-width="3.0" stroke-linecap="butt" stroke-opacity="1.0" stroke="rgb(0, 0, 0)" stroke-linejoin="round" d=" M 789.596, 23.779 788.980, 23.779 785.824, 23.779 783.118, 23.779 782.610, 23.779 782.521, 23.779 772.521, 23.780 762.521, 23.781 752.521, 23.781 742.521, 23.782 732.521, 23.782 722.521, 23.783 712.521, 23.783 710.214, 23.784 700.214, 23.784 690.214, 23.785 680.214, 23.785 670.214, 23.786 660.214, 23.787 650.214, 23.787 640.214, 23.788 630.214, 23.788 620.214, 23.789 610.214, 23.790 600.214, 23.790 592.352, 23.791 " />
            <path fill="none" stroke-width="3.0" stroke-linecap="butt" stroke-opacity="1.0" stroke="rgb(0, 0, 0)" stroke-linejoin="round" d=" M 782.610, 23.779 782.419, 23.780 780.024, 23.780 " />
            <path fill="none" stroke-width="3.0" stroke-linecap="butt" stroke-opacity="1.0" stroke="rgb(0, 0, 0)" stroke-linejoin="round" d=" M 779.347, 23.780 777.517, 23.780 " />
            <path fill="none" stroke-width="3.0" stroke-linecap="butt" stroke-opacity="1.0" stroke="rgb(0, 0, 0)" stroke-linejoin="round" d=" M 1585.078, 23.734 1583.825, 23.734 1582.302, 23.734 1581.735, 23.734 1581.424, 23.734 1580.190, 23.734 1579.439, 23.734 " />
            <path fill="none" stroke-width="3.0" stroke-linecap="butt" stroke-opacity="1.0" stroke="rgb(0, 0, 0)" stroke-linejoin="round" d=" M 1587.757, 23.734 1587.033, 23.734 1586.449, 23.734 1586.102, 23.734 1586.014, 23.734 1585.428, 23.734 1585.078, 23.734 " />
            <path fill="none" stroke-width="3.0" stroke-linecap="butt" stroke-opacity="1.0" stroke="rgb(0, 0, 0)" stroke-linejoin="round" d=" M 1731.602, 838.163 1729.084, 840.745 1726.439, 843.199 1723.676, 845.518 1720.799, 847.696 1717.819, 849.729 1714.741, 851.609 1711.572, 853.335 1708.322, 854.900 1704.998, 856.302 1701.607, 857.535 1698.160, 858.599 1694.664, 859.489 1691.129, 860.203 1687.561, 860.741 1683.971, 861.100 1680.368, 861.281 1676.761, 861.281 1673.157, 861.100 1669.568, 860.741 1666.001, 860.203 1662.465, 859.489 1658.969, 858.599 1655.521, 857.535 1652.131, 856.302 1648.807, 854.900 1645.557, 853.335 1642.389, 851.609 1639.310, 849.729 1636.330, 847.696 1633.454, 845.518 1630.690, 843.199 1628.046, 840.745 1625.527, 838.163 1623.139, 835.458 1620.891, 832.638 1618.784, 829.708 1616.827, 826.678 1615.023, 823.553 1613.378, 820.343 1611.894, 817.055 1610.576, 813.697 1609.427, 810.277 1608.450, 806.804 1607.647, 803.287 1607.020, 799.734 1606.572, 796.155 1606.302, 792.557 1606.213, 788.951 1606.302, 785.344 1606.572, 781.747 1607.020, 778.167 1607.647, 774.614 1608.450, 771.097 1609.427, 767.624 1610.576, 764.205 1611.894, 760.847 1613.378, 757.559 1615.023, 754.349 1616.827, 751.225 1618.784, 748.194 1620.891, 745.264 1623.139, 742.444 1625.527, 739.739 1628.046, 737.156 1630.690, 734.703 1633.454, 732.383 1636.330, 730.206 1639.310, 728.173 1642.389, 726.292 1645.557, 724.566 1648.807, 723.001 1652.131, 721.600 1655.521, 720.366 1658.969, 719.303 1662.465, 718.413 1666.001, 717.698 1669.568, 717.161 1673.157, 716.801 1676.761, 716.622 1680.368, 716.622 1683.971, 716.801 1687.561, 717.161 1691.129, 717.698 1694.664, 718.413 1698.160, 719.303 1701.607, 720.366 1704.998, 721.600 1708.322, 723.001 1711.572, 724.566 1714.741, 726.292 1717.819, 728.173 1720.799, 730.206 1723.676, 732.383 1726.439, 734.703 1729.084, 737.156 1731.602, 739.739 1733.989, 742.444 1736.239, 745.264 1738.344, 748.194 1740.302, 751.225 1742.106, 754.349 1743.751, 757.559 1745.235, 760.847 1746.553, 764.205 1747.702, 767.624 1748.679, 771.097 1749.482, 774.614 1750.108, 778.167 1750.557, 781.747 1750.826, 785.344 1750.917, 788.951 1750.826, 792.557 1750.557, 796.155 1750.108, 799.734 1749.482, 803.287 1748.679, 806.804 1747.702, 810.277 1746.553, 813.697 1745.235, 817.055 1743.751, 820.343 1742.106, 823.553 1740.302, 826.678 1738.344, 829.708 1736.239, 832.638 1733.989, 835.458 1731.602, 838.163 " />
            <path fill="none" stroke-width="3.0" stroke-linecap="butt" stroke-opacity="1.0" stroke="rgb(0, 0, 0)" stroke-linejoin="round" d=" M 265.834, 23.810 265.212, 23.810 255.212, 23.810 245.212, 23.811 235.212, 23.812 225.212, 23.812 215.212, 23.813 205.212, 23.813 195.212, 23.814 185.212, 23.814 175.212, 23.815 165.212, 23.816 155.212, 23.816 145.212, 23.817 137.326, 23.817 " />
            <path fill="none" stroke-width="3.0" stroke-linecap="butt" stroke-opacity="1.0" stroke="rgb(0, 0, 0)" stroke-linejoin="round" d=" M 266.450, 23.810 267.033, 23.809 267.061, 23.809 267.664, 23.809 " />
            <path fill="none" stroke-width="3.0" stroke-linecap="butt" stroke-opacity="1.0" stroke="rgb(0, 0, 0)" stroke-linejoin="round" d=" M 776.047, 23.780 774.453, 23.780 772.333, 23.780 762.333, 23.781 752.333, 23.781 742.333, 23.782 732.333, 23.782 727.471, 23.783 717.471, 23.783 710.214, 23.784 707.775, 23.784 697.775, 23.784 687.775, 23.785 677.775, 23.785 667.775, 23.786 657.775, 23.787 647.775, 23.787 637.775, 23.788 627.775, 23.788 617.775, 23.789 607.775, 23.790 597.775, 23.790 587.775, 23.791 577.775, 23.791 567.775, 23.792 557.775, 23.792 547.775, 23.793 537.775, 23.793 527.775, 23.794 517.775, 23.795 507.775, 23.795 497.775, 23.796 487.775, 23.796 477.775, 23.797 467.775, 23.798 457.775, 23.798 447.775, 23.799 437.775, 23.799 427.775, 23.800 417.775, 23.801 407.775, 23.801 397.775, 23.802 387.775, 23.802 377.775, 23.803 367.775, 23.803 357.775, 23.804 347.775, 23.804 337.775, 23.805 327.775, 23.806 317.775, 23.806 307.775, 23.807 297.775, 23.807 287.775, 23.808 277.775, 23.808 268.839, 23.809 " />
            <path fill="none" stroke-width="3.0" stroke-linecap="butt" stroke-opacity="1.0" stroke="rgb(0, 0, 0)" stroke-linejoin="round" d=" M 1257.774, 23.753 1254.791, 23.753 1244.791, 23.753 1234.791, 23.754 1224.791, 23.754 1214.791, 23.755 1204.791, 23.756 1194.791, 23.756 1184.791, 23.757 1174.791, 23.757 1164.791, 23.758 1154.791, 23.758 1144.791, 23.759 1134.791, 23.760 1124.791, 23.760 1114.791, 23.761 1104.791, 23.761 1094.791, 23.762 1084.791, 23.762 1074.791, 23.763 1064.791, 23.763 1054.791, 23.764 1044.791, 23.765 1034.791, 23.765 1024.791, 23.766 1014.791, 23.766 1004.791, 23.767 994.791, 23.768 984.791, 23.768 974.791, 23.769 964.791, 23.769 954.791, 23.770 944.791, 23.771 934.791, 23.771 924.791, 23.771 914.791, 23.772 904.791, 23.773 894.791, 23.773 883.150, 23.774 " />
            <path fill="none" stroke-width="3.0" stroke-linecap="butt" stroke-opacity="1.0" stroke="rgb(0, 0, 0)" stroke-linejoin="round" d=" M 267.061, 23.809 257.061, 23.810 247.061, 23.810 237.061, 23.811 227.061, 23.812 217.061, 23.812 207.061, 23.813 197.061, 23.813 187.061, 23.814 177.061, 23.815 167.061, 23.815 157.061, 23.816 147.061, 23.817 137.326, 23.817 " />
            <path fill="none" stroke-width="3.0" stroke-linecap="butt" stroke-opacity="1.0" stroke="rgb(0, 0, 0)" stroke-linejoin="round" d=" M 782.535, 23.779 772.535, 23.780 762.535, 23.781 752.535, 23.781 742.535, 23.782 732.535, 23.782 722.535, 23.783 712.535, 23.783 707.775, 23.784 697.775, 23.784 687.775, 23.785 677.775, 23.786 667.775, 23.786 657.775, 23.787 647.775, 23.787 637.775, 23.788 627.775, 23.789 617.775, 23.789 607.775, 23.790 597.775, 23.790 590.572, 23.791 " />
            <path fill="none" stroke-width="3.0" stroke-linecap="butt" stroke-opacity="1.0" stroke="rgb(0, 0, 0)" stroke-linejoin="round" d=" M 1260.679, 23.752 1250.679, 23.752 1240.679, 23.753 1230.679, 23.754 1220.679, 23.754 1210.679, 23.755 1200.679, 23.755 1190.679, 23.756 1180.679, 23.757 1170.679, 23.757 1160.679, 23.758 1150.679, 23.758 1140.679, 23.759 1130.679, 23.760 1120.679, 23.760 1110.679, 23.761 1100.679, 23.761 1090.679, 23.762 1080.679, 23.762 1070.679, 23.763 1060.679, 23.764 1050.679, 23.764 1040.679, 23.765 1030.679, 23.765 1020.679, 23.766 1010.679, 23.767 1000.679, 23.767 990.679, 23.768 980.679, 23.768 970.679, 23.769 960.679, 23.770 950.679, 23.770 940.679, 23.771 930.679, 23.771 920.679, 23.772 910.679, 23.772 900.679, 23.773 890.679, 23.773 883.150, 23.774 873.150, 23.774 863.150, 23.775 853.150, 23.776 843.150, 23.776 833.150, 23.777 823.150, 23.777 813.150, 23.778 803.150, 23.779 801.675, 23.779 " />
            <path fill="none" stroke-width="3.0" stroke-linecap="butt" stroke-opacity="1.0" stroke="rgb(0, 0, 0)" stroke-linejoin="round" d=" M 1260.679, 23.752 1250.679, 23.752 1240.679, 23.753 1230.679, 23.754 1220.679, 23.754 1210.679, 23.755 1200.679, 23.755 1190.679, 23.756 1180.679, 23.757 1170.679, 23.757 1160.679, 23.758 1150.679, 23.758 1140.679, 23.759 1130.679, 23.760 1120.679, 23.760 1110.679, 23.761 1100.679, 23.761 1090.679, 23.762 1080.679, 23.762 1070.679, 23.763 1060.679, 23.764 1050.679, 23.764 1040.679, 23.765 1030.679, 23.765 1020.679, 23.766 1010.679, 23.767 1000.679, 23.767 990.679, 23.768 980.679, 23.768 970.679, 23.769 960.679, 23.770 950.679, 23.770 940.679, 23.771 930.679, 23.771 920.679, 23.772 910.679, 23.772 900.679, 23.773 890.679, 23.773 883.150, 23.774 873.150, 23.774 863.150, 23.775 853.150, 23.776 843.150, 23.776 833.150, 23.777 823.150, 23.777 813.150, 23.778 803.150, 23.779 801.675, 23.779 " />
            <path fill="none" stroke-width="3.0" stroke-linecap="butt" stroke-opacity="1.0" stroke="rgb(0, 0, 0)" stroke-linejoin="round" d=" M 194.623, 2319.696 194.318, 2329.691 194.014, 2339.686 193.709, 2349.682 193.404, 2359.677 193.099, 2369.672 192.794, 2379.668 192.489, 2389.663 192.185, 2399.659 191.880, 2409.654 191.575, 2419.649 191.270, 2429.645 190.965, 2439.640 190.660, 2449.635 190.356, 2459.631 190.051, 2469.626 189.746, 2479.621 189.441, 2489.617 189.136, 2499.612 188.831, 2509.607 188.527, 2519.603 188.222, 2529.598 187.917, 2539.593 187.612, 2549.589 187.307, 2559.584 187.002, 2569.579 186.697, 2579.575 186.393, 2589.570 186.088, 2599.566 185.783, 2609.561 185.619, 2614.949 " />
            <path fill="none" stroke-width="3.0" stroke-linecap="butt" stroke-opacity="1.0" stroke="rgb(0, 0, 0)" stroke-linejoin="round" d=" M 185.619, 2614.949 188.260, 2624.593 190.902, 2634.238 193.544, 2643.883 196.186, 2653.528 198.827, 2663.172 201.469, 2672.817 204.111, 2682.462 206.753, 2692.107 209.394, 2701.751 212.036, 2711.396 214.678, 2721.041 217.320, 2730.686 219.961, 2740.330 222.603, 2749.975 225.245, 2759.620 227.887, 2769.265 230.528, 2778.909 233.170, 2788.554 235.812, 2798.199 238.454, 2807.844 241.095, 2817.488 243.737, 2827.133 246.379, 2836.778 249.021, 2846.423 251.662, 2856.067 254.304, 2865.712 256.540, 2873.874 " />
            <path fill="none" stroke-width="3.0" stroke-linecap="butt" stroke-opacity="1.0" stroke="rgb(0, 0, 0)" stroke-linejoin="round" d=" M 137.326, 23.817 147.326, 23.817 157.326, 23.816 167.326, 23.816 177.326, 23.815 187.326, 23.814 197.326, 23.814 207.326, 23.813 217.326, 23.812 227.326, 23.812 237.326, 23.811 247.326, 23.811 257.326, 23.810 265.212, 23.810 " />
            <path fill="none" stroke-width="3.0" stroke-linecap="butt" stroke-opacity="1.0" stroke="rgb(0, 0, 0)" stroke-linejoin="round" d=" M 777.517, 23.780 776.047, 23.780 " />
            <path fill="none" stroke-width="3.0" stroke-linecap="butt" stroke-opacity="1.0" stroke="rgb(0, 0, 0)" stroke-linejoin="round" d=" M 782.422, 23.780 782.521, 23.779 782.535, 23.779 " />
            <path fill="none" stroke-width="3.0" stroke-linecap="butt" stroke-opacity="1.0" stroke="rgb(0, 0, 0)" stroke-linejoin="round" d=" M 780.024, 23.780 779.347, 23.780 " />
            <path fill="none" stroke-width="3.0" stroke-linecap="butt" stroke-opacity="1.0" stroke="rgb(0, 0, 0)" stroke-linejoin="round" d=" M 792.889, 23.779 792.068, 23.779 " />
            <path fill="none" stroke-width="3.0" stroke-linecap="butt" stroke-opacity="1.0" stroke="rgb(0, 0, 0)" stroke-linejoin="round" d=" M 782.419, 23.780 772.419, 23.780 762.419, 23.781 752.419, 23.781 742.419, 23.782 732.419, 23.782 727.471, 23.783 717.471, 23.783 707.471, 23.784 697.471, 23.784 687.471, 23.785 677.471, 23.786 667.471, 23.786 657.471, 23.787 647.471, 23.787 637.471, 23.788 627.471, 23.789 617.471, 23.789 607.471, 23.790 604.906, 23.790 " />
            <path fill="none" stroke-width="3.0" stroke-linecap="butt" stroke-opacity="1.0" stroke="rgb(0, 0, 0)" stroke-linejoin="round" d=" M 793.385, 23.779 788.011, 23.779 " />
            <path fill="none" stroke-width="3.0" stroke-linecap="butt" stroke-opacity="1.0" stroke="rgb(0, 0, 0)" stroke-linejoin="round" d=" M 883.150, 23.774 873.150, 23.774 863.150, 23.775 853.150, 23.776 843.150, 23.776 833.150, 23.777 823.150, 23.777 813.150, 23.778 803.150, 23.779 800.294, 23.779 " />
            <path fill="none" stroke-width="3.0" stroke-linecap="butt" stroke-opacity="1.0" stroke="rgb(0, 0, 0)" stroke-linejoin="round" d=" M 780.024, 23.780 777.517, 23.780 " />
            <path fill="none" stroke-width="3.0" stroke-linecap="butt" stroke-opacity="1.0" stroke="rgb(0, 0, 0)" stroke-linejoin="round" d=" M 792.889, 23.779 789.596, 23.779 " />
            <path fill="none" stroke-width="3.0" stroke-linecap="butt" stroke-opacity="1.0" stroke="rgb(0, 0, 0)" stroke-linejoin="round" d=" M 780.024, 23.780 777.517, 23.780 " />
            <path fill="none" stroke-width="3.0" stroke-linecap="butt" stroke-opacity="1.0" stroke="rgb(0, 0, 0)" stroke-linejoin="round" d=" M 792.889, 23.779 789.596, 23.779 " />
            <path fill="none" stroke-width="3.0" stroke-linecap="butt" stroke-opacity="1.0" stroke="rgb(0, 0, 0)" stroke-linejoin="round" d=" M 1587.033, 23.734 1577.033, 23.734 1567.033, 23.735 1557.033, 23.736 1547.033, 23.736 1537.033, 23.737 1527.699, 23.737 " />
            <path fill="none" stroke-width="3.0" stroke-linecap="butt" stroke-opacity="1.0" stroke="rgb(0, 0, 0)" stroke-linejoin="round" d=" M 2249.773, 543.118 2247.331, 542.089 " />
            <path fill="none" stroke-width="3.0" stroke-linecap="butt" stroke-opacity="1.0" stroke="rgb(0, 0, 0)" stroke-linejoin="round" d=" M 2293.444, 540.939 2291.056, 542.089 " />
            <path fill="none" stroke-width="3.0" stroke-linecap="butt" stroke-opacity="1.0" stroke="rgb(0, 0, 0)" stroke-linejoin="round" d=" M 2308.160, 529.793 2306.309, 531.690 " />
            <path fill="none" stroke-width="3.0" stroke-linecap="butt" stroke-opacity="1.0" stroke="rgb(0, 0, 0)" stroke-linejoin="round" d=" M 1586.102, 23.734 1581.424, 23.734 " />
            <path fill="none" stroke-width="3.0" stroke-linecap="butt" stroke-opacity="1.0" stroke="rgb(0, 0, 0)" stroke-linejoin="round" d=" M 1586.014, 23.734 1581.735, 23.734 " />
            <path fill="none" stroke-width="3.0" stroke-linecap="butt" stroke-opacity="1.0" stroke="rgb(0, 0, 0)" stroke-linejoin="round" d=" M 1586.449, 23.734 1580.190, 23.734 " />
            <path fill="none" stroke-width="3.0" stroke-linecap="butt" stroke-opacity="1.0" stroke="rgb(0, 0, 0)" stroke-linejoin="round" d=" M 3377.655, 23.631 3367.655, 23.631 3357.655, 23.632 3347.655, 23.633 3337.655, 23.633 3327.655, 23.634 3317.655, 23.634 3307.655, 23.635 3297.655, 23.635 3287.655, 23.636 3277.655, 23.636 3267.655, 23.637 3257.655, 23.638 3247.655, 23.638 3237.655, 23.639 3227.655, 23.639 3217.655, 23.640 3207.655, 23.641 3197.655, 23.641 3187.655, 23.642 3177.655, 23.642 3167.655, 23.643 3157.655, 23.644 3147.655, 23.644 3137.655, 23.645 3127.655, 23.645 3117.655, 23.646 3107.655, 23.646 3097.655, 23.647 3087.655, 23.647 3077.655, 23.648 3067.655, 23.649 3057.655, 23.649 3047.655, 23.650 3037.655, 23.650 3027.655, 23.651 3017.655, 23.652 3007.655, 23.652 2997.655, 23.653 2987.655, 23.653 2977.655, 23.654 2967.655, 23.655 2957.655, 23.655 2947.655, 23.656 2937.655, 23.656 2927.655, 23.657 2917.656, 23.657 2907.655, 23.658 2897.656, 23.658 2887.655, 23.659 2877.655, 23.660 2867.655, 23.660 2857.655, 23.661 2847.655, 23.661 2837.655, 23.662 2827.655, 23.663 2817.655, 23.663 2807.655, 23.664 2797.655, 23.664 2787.655, 23.665 2777.655, 23.665 2767.655, 23.666 2757.655, 23.667 2747.655, 23.667 2737.655, 23.668 2727.655, 23.668 2717.655, 23.669 2707.655, 23.669 2697.655, 23.670 2687.655, 23.671 2677.655, 23.671 2667.655, 23.672 2657.655, 23.672 2647.655, 23.673 2637.655, 23.673 2627.655, 23.674 2617.655, 23.675 2607.655, 23.675 2597.655, 23.676 2587.655, 23.676 2577.655, 23.677 2567.655, 23.677 2557.655, 23.678 2547.655, 23.679 2537.655, 23.679 2527.655, 23.680 2509.492, 23.681 " />
        </g>
    </g>
<g id="slice-labels"><text x="588.9014999999999" y="559.0891666666666" text-anchor="middle" dominant-baseline="middle" font-family="Arial, sans-serif" font-size="59.06286576864698" font-weight="bold" fill="black" stroke="none" stroke-width="7.087543892237638" paint-order="stroke fill">Slice8 (Back)</text><text x="1719.5104999999999" y="559.0891666666666" text-anchor="middle" dominant-baseline="middle" font-family="Arial, sans-serif" font-size="59.06286576864698" font-weight="bold" fill="black" stroke="none" stroke-width="7.087543892237638" paint-order="stroke fill">Slice8 (Back)</text><text x="2850.1195000000002" y="559.0891666666666" text-anchor="middle" dominant-baseline="middle" font-family="Arial, sans-serif" font-size="59.06286576864698" font-weight="bold" fill="black" stroke="none" stroke-width="7.087543892237638" paint-order="stroke fill">Slice8 (Back)</text><text x="588.9014999999999" y="1630.0055000000002" text-anchor="middle" dominant-baseline="middle" font-family="Arial, sans-serif" font-size="59.06286576864698" font-weight="bold" fill="black" stroke="none" stroke-width="7.087543892237638" paint-order="stroke fill">Slice8 (Back)</text><text x="1719.5104999999999" y="1630.0055000000002" text-anchor="middle" dominant-baseline="middle" font-family="Arial, sans-serif" font-size="59.06286576864698" font-weight="bold" fill="black" stroke="none" stroke-width="7.087543892237638" paint-order="stroke fill">Slice8 (Back)</text><text x="2850.1195000000002" y="1630.0055000000002" text-anchor="middle" dominant-baseline="middle" font-family="Arial, sans-serif" font-size="59.06286576864698" font-weight="bold" fill="black" stroke="none" stroke-width="7.087543892237638" paint-order="stroke fill">Slice8 (Back)</text><text x="588.9014999999999" y="2700.9218333333333" text-anchor="middle" dominant-baseline="middle" font-family="Arial, sans-serif" font-size="59.06286576864698" font-weight="bold" fill="black" stroke="none" stroke-width="7.087543892237638" paint-order="stroke fill">Slice8 (Back)</text><text x="1719.5104999999999" y="2700.9218333333333" text-anchor="middle" dominant-baseline="middle" font-family="Arial, sans-serif" font-size="59.06286576864698" font-weight="bold" fill="black" stroke="none" stroke-width="7.087543892237638" paint-order="stroke fill">Slice8 (Back)</text><text x="2850.1195000000002" y="2700.9218333333333" text-anchor="middle" dominant-baseline="middle" font-family="Arial, sans-serif" font-size="59.06286576864698" font-weight="bold" fill="black" stroke="none" stroke-width="7.087543892237638" paint-order="stroke fill">Slice8 (Back)</text></g></svg>