<?xml version='1.0' encoding='utf-8'?>
<svg xmlns="http://www.w3.org/2000/svg" xmlns:inkscape="http://www.inkscape.org/namespaces/inkscape" version="1.1" width="617.0946427583694mm" height="156.4752378463745mm" viewBox="0.5016468113856973 0.004640059137408059 7287.996706377228 1848.0007198817252" preserveAspectRatio="none">
    <g id="ViewLayer_LineSet" inkscape:groupmode="lineset" inkscape:label="ViewLayer_LineSet">
        <g inkscape:groupmode="layer" id="strokes" inkscape:label="strokes">
            <path fill="none" stroke-width="3.0" stroke-linecap="butt" stroke-opacity="1.0" stroke="rgb(0, 0, 0)" stroke-linejoin="round" d=" M 6257.658, 341.584 6260.176, 339.002 6262.820, 336.549 6265.583, 334.231 6268.458, 332.053 6271.438, 330.021 6274.516, 328.140 6277.684, 326.415 6280.933, 324.850 6284.257, 323.449 6287.646, 322.215 6291.093, 321.152 6294.588, 320.262 6298.124, 319.548 6301.690, 319.010 6305.279, 318.651 6308.881, 318.471 6312.488, 318.471 6316.090, 318.651 6319.679, 319.010 6323.246, 319.548 6326.781, 320.262 6330.277, 321.152 6333.724, 322.215 6337.112, 323.449 6340.436, 324.850 6343.686, 326.415 6346.854, 328.140 6349.931, 330.021 6352.911, 332.053 6355.787, 334.231 6358.549, 336.549 6361.193, 339.002 6363.711, 341.584 6366.098, 344.288 6368.347, 347.108 6370.452, 350.037 6372.410, 353.067 6374.213, 356.191 6375.858, 359.400 6377.342, 362.688 6378.660, 366.046 6379.808, 369.465 6380.785, 372.936 6381.588, 376.453 6382.214, 380.005 6382.663, 383.583 6382.932, 387.180 6383.022, 390.786 6382.932, 394.392 6382.663, 397.988 6382.214, 401.567 6381.588, 405.120 6380.785, 408.636 6379.808, 412.108 6378.660, 415.527 6377.342, 418.884 6375.858, 422.172 6374.213, 425.381 6372.410, 428.505 6370.452, 431.535 6368.347, 434.464 6366.098, 437.284 6363.711, 439.988 6361.193, 442.570 6358.549, 445.023 6355.787, 447.342 6352.911, 449.520 6349.931, 451.552 6346.854, 453.432 6343.686, 455.157 6340.436, 456.722 6337.112, 458.122 6333.724, 459.357 6330.277, 460.420 6326.781, 461.310 6323.246, 462.024 6319.679, 462.562 6316.090, 462.921 6312.488, 463.101 6308.881, 463.101 6305.279, 462.921 6301.690, 462.562 6298.124, 462.024 6294.588, 461.310 6291.093, 460.420 6287.646, 459.357 6284.257, 458.122 6280.933, 456.722 6277.684, 455.157 6274.516, 453.432 6271.438, 451.552 6268.458, 449.520 6265.583, 447.342 6262.820, 445.023 6260.176, 442.570 6257.658, 439.988 6255.271, 437.284 6253.022, 434.464 6250.917, 431.535 6248.960, 428.505 6247.156, 425.381 6245.511, 422.172 6244.028, 418.884 6242.710, 415.527 6241.562, 412.108 6240.584, 408.636 6239.781, 405.120 6239.155, 401.567 6238.707, 397.988 6238.438, 394.392 6238.348, 390.786 6238.438, 387.180 6238.707, 383.583 6239.155, 380.005 6239.781, 376.453 6240.584, 372.936 6241.562, 369.465 6242.710, 366.046 6244.028, 362.688 6245.511, 359.400 6247.156, 356.191 6248.960, 353.067 6250.917, 350.037 6253.022, 347.108 6255.271, 344.288 6257.658, 341.584 " />
            <path fill="none" stroke-width="3.0" stroke-linecap="butt" stroke-opacity="1.0" stroke="rgb(0, 0, 0)" stroke-linejoin="round" d=" M 6498.133, 23.664 6500.939, 23.664 6503.795, 23.664 6513.795, 23.664 6523.795, 23.664 6533.795, 23.664 6543.795, 23.664 6553.795, 23.664 6563.795, 23.664 6573.795, 23.664 6583.795, 23.664 6593.795, 23.664 6603.795, 23.665 6613.795, 23.665 6623.795, 23.665 6633.795, 23.665 6643.795, 23.665 6653.795, 23.665 6663.795, 23.665 6669.344, 23.665 6679.344, 23.665 6689.344, 23.665 6699.344, 23.665 6709.344, 23.665 6719.344, 23.665 6729.344, 23.665 6739.344, 23.665 6749.344, 23.665 6759.344, 23.665 6769.344, 23.666 6779.344, 23.666 6789.344, 23.666 6799.344, 23.666 6809.344, 23.666 6819.344, 23.666 6829.344, 23.666 6839.344, 23.666 6849.344, 23.666 6859.344, 23.666 6869.344, 23.666 6879.344, 23.666 6882.510, 23.666 " />
            <path fill="none" stroke-width="3.0" stroke-linecap="butt" stroke-opacity="1.0" stroke="rgb(0, 0, 0)" stroke-linejoin="round" d=" M 6898.079, 23.667 6899.788, 23.667 6901.499, 23.667 6911.499, 23.667 6921.499, 23.667 6931.499, 23.667 6941.499, 23.667 6951.499, 23.667 6961.499, 23.667 6971.499, 23.667 6981.499, 23.667 6991.499, 23.667 7001.499, 23.667 7011.499, 23.667 7021.499, 23.667 7031.499, 23.667 7041.499, 23.667 7051.499, 23.667 7061.499, 23.667 7071.499, 23.667 7082.949, 23.667 " />
            <path fill="none" stroke-width="3.0" stroke-linecap="butt" stroke-opacity="1.0" stroke="rgb(0, 0, 0)" stroke-linejoin="round" d=" M 7183.357, 1824.385 7193.357, 1824.385 7203.357, 1824.385 7213.357, 1824.385 7223.357, 1824.385 7233.357, 1824.385 7243.357, 1824.385 7253.357, 1824.385 7263.357, 1824.385 7264.878, 1824.385 7263.523, 1814.477 7262.168, 1804.569 7260.813, 1794.661 7259.458, 1784.753 7258.104, 1774.846 7256.749, 1764.938 7255.394, 1755.030 7254.039, 1745.122 7252.685, 1735.214 7251.330, 1725.307 7249.975, 1715.399 7248.620, 1705.491 7247.265, 1695.583 7245.910, 1685.675 7244.556, 1675.768 7243.201, 1665.860 7241.846, 1655.952 7240.491, 1646.044 7239.136, 1636.136 7237.781, 1626.229 7236.427, 1616.321 7235.072, 1606.413 7233.717, 1596.505 7232.362, 1586.597 7231.308, 1578.886 7232.482, 1568.956 7233.656, 1559.025 7234.830, 1549.094 7236.003, 1539.163 7237.177, 1529.232 7238.352, 1519.301 7239.525, 1509.370 7240.699, 1499.440 7241.873, 1489.509 7243.047, 1479.578 7244.221, 1469.647 7245.395, 1459.716 7246.569, 1449.785 7247.743, 1439.854 7248.917, 1429.924 7250.091, 1419.993 7251.265, 1410.062 7252.438, 1400.131 7253.613, 1390.200 7253.906, 1387.721 " />
            <path fill="none" stroke-width="3.0" stroke-linecap="butt" stroke-opacity="1.0" stroke="rgb(0, 0, 0)" stroke-linejoin="round" d=" M 7253.906, 1387.721 7253.894, 1377.721 7253.882, 1367.721 7253.870, 1357.721 7253.858, 1347.721 7253.847, 1337.721 7253.835, 1327.721 7253.823, 1317.721 7253.812, 1307.721 7253.799, 1297.721 7253.788, 1287.721 7253.776, 1277.721 7253.764, 1267.721 7253.752, 1257.721 7253.741, 1247.721 7253.729, 1237.721 7253.717, 1227.721 7253.705, 1217.721 7253.693, 1207.721 7253.682, 1197.721 7253.670, 1187.721 7253.658, 1177.721 7253.646, 1167.721 7253.634, 1157.721 7253.623, 1147.721 7253.611, 1137.721 7253.598, 1126.722 7251.383, 1116.970 7249.167, 1107.219 7246.953, 1097.467 7244.738, 1087.715 7242.522, 1077.964 7240.308, 1068.212 7238.092, 1058.461 7235.877, 1048.709 7233.663, 1038.957 7231.447, 1029.206 7229.232, 1019.454 7227.017, 1009.703 7224.802, 999.951 7222.587, 990.199 7220.372, 980.448 7218.157, 970.696 7215.942, 960.945 7213.727, 951.193 7211.512, 941.441 7209.297, 931.690 7207.829, 925.225 7206.849, 915.273 7205.870, 905.321 7204.891, 895.369 7203.911, 885.417 7202.932, 875.465 7201.953, 865.513 7200.973, 855.561 7199.994, 845.609 7199.015, 835.657 7198.036, 825.706 7197.056, 815.754 7196.700, 812.130 7193.562, 802.635 7190.425, 793.140 7187.287, 783.645 7184.149, 774.150 7181.012, 764.655 7177.875, 755.160 7174.737, 745.665 7171.600, 736.170 7168.462, 726.675 7165.325, 717.180 7162.187, 707.685 7159.050, 698.190 7155.912, 688.695 7152.775, 679.199 7149.637, 669.704 7146.500, 660.209 7143.362, 650.714 7140.225, 641.219 7137.087, 631.724 7133.950, 622.229 7130.812, 612.734 7127.675, 603.239 7124.538, 593.744 7121.400, 584.249 7118.262, 574.754 7115.125, 565.259 7111.987, 555.764 7108.850, 546.269 7105.712, 536.774 7102.575, 527.279 7099.438, 517.783 7096.300, 508.288 7093.163, 498.793 7090.025, 489.298 7086.888, 479.803 7083.750, 470.308 7080.613, 460.813 7077.475, 451.318 7074.337, 441.823 7071.169, 432.234 " />
            <path fill="none" stroke-width="3.0" stroke-linecap="butt" stroke-opacity="1.0" stroke="rgb(0, 0, 0)" stroke-linejoin="round" d=" M 7071.169, 432.234 7071.746, 422.251 7072.322, 412.268 7072.898, 402.284 7073.475, 392.301 7074.051, 382.318 7074.627, 372.334 7075.204, 362.351 7075.780, 352.367 7076.356, 342.384 7076.933, 332.401 7077.509, 322.417 7078.085, 312.434 7078.662, 302.450 7079.238, 292.467 7079.814, 282.484 7080.391, 272.500 7080.967, 262.517 7081.543, 252.534 7082.120, 242.550 7082.696, 232.567 7083.272, 222.583 7083.849, 212.600 7084.425, 202.617 7085.001, 192.633 7085.578, 182.650 7086.154, 172.667 7086.730, 162.683 7087.307, 152.700 7087.883, 142.716 7088.335, 134.873 7087.852, 124.884 7087.368, 114.896 7086.884, 104.908 7086.400, 94.919 7085.917, 84.931 7085.433, 74.943 7084.949, 64.955 7084.465, 54.966 7083.981, 44.978 7083.497, 34.990 7083.013, 25.001 7082.949, 23.667 7072.949, 23.667 7062.949, 23.667 7052.949, 23.667 7042.949, 23.667 7032.949, 23.667 7022.949, 23.667 7012.949, 23.667 7002.949, 23.667 6992.949, 23.667 6982.949, 23.667 6972.949, 23.667 6962.949, 23.667 6952.949, 23.667 6942.949, 23.667 6932.949, 23.667 6922.949, 23.667 6912.949, 23.667 6902.949, 23.667 6897.624, 23.667 " />
            <path fill="none" stroke-width="3.0" stroke-linecap="butt" stroke-opacity="1.0" stroke="rgb(0, 0, 0)" stroke-linejoin="round" d=" M 1972.718, 23.634 1962.718, 23.634 1952.718, 23.634 1942.718, 23.634 1932.718, 23.634 1922.718, 23.634 1912.718, 23.634 1902.718, 23.633 1892.718, 23.633 1882.718, 23.633 1872.718, 23.633 1862.718, 23.633 1852.718, 23.633 1842.718, 23.633 1832.718, 23.633 1822.718, 23.633 1812.718, 23.633 1802.718, 23.633 1792.718, 23.633 1782.718, 23.633 1772.718, 23.633 1762.718, 23.633 1752.718, 23.632 1742.718, 23.632 1732.718, 23.632 1722.718, 23.632 1712.718, 23.632 1702.718, 23.632 1692.718, 23.632 1682.718, 23.632 1672.718, 23.632 1662.718, 23.632 1652.718, 23.632 1642.718, 23.632 1632.718, 23.632 1622.718, 23.632 1612.718, 23.632 1602.718, 23.631 1592.718, 23.631 1582.718, 23.631 1572.718, 23.631 1562.718, 23.631 1552.718, 23.631 1542.718, 23.631 1532.718, 23.631 1522.718, 23.631 1512.718, 23.631 1502.718, 23.631 1492.718, 23.631 1482.718, 23.631 1472.718, 23.631 1462.718, 23.631 1452.718, 23.630 1442.718, 23.630 1432.718, 23.630 1422.718, 23.630 1412.718, 23.630 1402.718, 23.630 1392.718, 23.630 1382.718, 23.630 1372.718, 23.630 1362.718, 23.630 1352.718, 23.630 1342.718, 23.630 1332.718, 23.630 1322.718, 23.630 1312.718, 23.630 1302.718, 23.630 1286.300, 23.629 1276.300, 23.629 1266.300, 23.629 1256.300, 23.629 1246.300, 23.629 1236.300, 23.629 1226.300, 23.629 1216.300, 23.629 1206.300, 23.629 1196.300, 23.629 1186.300, 23.629 1176.300, 23.629 1166.300, 23.629 1156.300, 23.629 1146.300, 23.629 1136.300, 23.628 1126.300, 23.628 1116.300, 23.628 1106.300, 23.628 1096.300, 23.628 1086.300, 23.628 1076.300, 23.628 1066.300, 23.628 1056.300, 23.628 1046.300, 23.628 1036.300, 23.628 1026.300, 23.628 1016.300, 23.628 1006.300, 23.628 996.300, 23.627 986.300, 23.627 976.300, 23.627 966.300, 23.627 956.300, 23.627 946.300, 23.627 936.300, 23.627 926.300, 23.627 916.300, 23.627 906.300, 23.627 896.300, 23.627 886.300, 23.627 876.300, 23.627 871.041, 23.627 861.041, 23.627 851.041, 23.627 841.041, 23.626 831.041, 23.626 821.041, 23.626 811.041, 23.626 801.041, 23.626 791.041, 23.626 781.041, 23.626 771.041, 23.626 761.041, 23.626 751.041, 23.626 741.041, 23.626 731.041, 23.626 721.041, 23.626 711.041, 23.626 701.041, 23.626 691.041, 23.626 681.041, 23.625 671.041, 23.625 661.041, 23.625 651.041, 23.625 642.666, 23.625 639.548, 33.127 636.430, 42.628 633.312, 52.130 630.194, 61.631 627.076, 71.133 623.958, 80.634 620.839, 90.135 617.721, 99.637 614.603, 109.138 611.485, 118.640 608.367, 128.141 605.249, 137.643 602.131, 147.144 599.013, 156.646 595.895, 166.147 592.777, 175.648 589.659, 185.150 586.540, 194.651 583.422, 204.153 580.304, 213.654 577.848, 221.139 573.884, 230.319 569.920, 239.500 565.956, 248.681 561.992, 257.861 558.027, 267.042 554.063, 276.223 550.099, 285.403 546.135, 294.584 542.171, 303.765 538.206, 312.946 534.242, 322.126 530.278, 331.307 526.314, 340.488 522.350, 349.668 518.386, 358.849 514.421, 368.030 510.457, 377.210 506.493, 386.391 502.529, 395.572 498.565, 404.753 494.601, 413.933 490.636, 423.114 486.672, 432.295 482.708, 441.475 478.744, 450.656 474.780, 459.837 470.816, 469.018 466.851, 478.198 462.887, 487.379 458.923, 496.560 454.959, 505.740 450.995, 514.921 447.030, 524.102 443.066, 533.282 439.102, 542.463 435.138, 551.644 431.174, 560.825 427.210, 570.005 423.245, 579.186 419.281, 588.367 415.317, 597.547 411.353, 606.728 406.495, 617.978 404.317, 627.738 402.138, 637.498 399.960, 647.258 397.781, 657.018 395.602, 666.777 393.424, 676.537 391.245, 686.297 389.067, 696.057 386.888, 705.817 384.710, 715.577 382.378, 726.024 " />
            <path fill="none" stroke-width="3.0" stroke-linecap="butt" stroke-opacity="1.0" stroke="rgb(0, 0, 0)" stroke-linejoin="round" d=" M 382.378, 726.024 378.611, 735.287 374.845, 744.551 371.079, 753.814 367.312, 763.078 363.546, 772.342 359.779, 781.605 356.013, 790.869 352.247, 800.132 348.480, 809.396 344.714, 818.660 340.947, 827.923 337.181, 837.187 333.415, 846.450 329.648, 855.714 325.882, 864.978 322.115, 874.241 318.349, 883.505 314.583, 892.768 310.816, 902.032 307.050, 911.295 303.283, 920.559 299.517, 929.823 295.751, 939.086 291.984, 948.350 288.218, 957.613 284.451, 966.877 280.685, 976.141 276.919, 985.404 273.152, 994.668 269.386, 1003.931 265.619, 1013.195 261.853, 1022.459 258.087, 1031.722 254.320, 1040.986 250.554, 1050.249 246.787, 1059.513 243.021, 1068.777 239.255, 1078.040 235.488, 1087.304 231.722, 1096.567 227.955, 1105.831 224.189, 1115.095 220.423, 1124.358 216.656, 1133.622 212.890, 1142.885 209.123, 1152.149 205.357, 1161.413 201.591, 1170.676 197.824, 1179.940 194.058, 1189.203 190.291, 1198.467 186.972, 1206.632 184.974, 1216.430 182.977, 1226.229 180.980, 1236.027 178.982, 1245.826 176.985, 1255.624 174.988, 1265.423 172.990, 1275.221 170.993, 1285.020 168.996, 1294.818 166.998, 1304.617 165.001, 1314.415 163.003, 1324.214 161.006, 1334.012 159.009, 1343.811 157.011, 1353.609 155.014, 1363.408 153.017, 1373.206 151.019, 1383.005 149.022, 1392.803 147.025, 1402.602 145.027, 1412.400 143.030, 1422.199 141.033, 1431.997 139.035, 1441.796 137.038, 1451.594 135.040, 1461.393 133.043, 1471.191 131.046, 1480.990 129.048, 1490.788 127.051, 1500.587 125.054, 1510.385 123.056, 1520.184 121.059, 1529.982 119.062, 1539.781 117.064, 1549.579 115.067, 1559.378 113.070, 1569.176 111.072, 1578.975 109.075, 1588.773 107.077, 1598.572 105.080, 1608.370 103.083, 1618.169 101.085, 1627.967 99.088, 1637.766 97.091, 1647.564 95.093, 1657.363 93.096, 1667.161 91.553, 1674.729 87.445, 1683.847 83.337, 1692.964 79.229, 1702.081 75.121, 1711.198 71.013, 1720.316 66.905, 1729.433 62.797, 1738.550 58.689, 1747.667 54.581, 1756.785 50.473, 1765.902 46.365, 1775.019 42.257, 1784.136 38.149, 1793.254 34.041, 1802.371 29.933, 1811.488 25.825, 1820.605 24.122, 1824.384 " />
            <path fill="none" stroke-width="3.0" stroke-linecap="butt" stroke-opacity="1.0" stroke="rgb(0, 0, 0)" stroke-linejoin="round" d=" M 1347.715, 658.328 1349.152, 656.102 1350.699, 653.951 1352.352, 651.880 1354.105, 649.892 1355.955, 647.995 " />
            <path fill="none" stroke-width="3.0" stroke-linecap="butt" stroke-opacity="1.0" stroke="rgb(0, 0, 0)" stroke-linejoin="round" d=" M 1355.955, 647.995 1357.898, 646.192 " />
            <path fill="none" stroke-width="3.0" stroke-linecap="butt" stroke-opacity="1.0" stroke="rgb(0, 0, 0)" stroke-linejoin="round" d=" M 1357.898, 646.192 1359.928, 644.489 1362.040, 642.890 1364.229, 641.397 1366.491, 640.015 " />
            <path fill="none" stroke-width="3.0" stroke-linecap="butt" stroke-opacity="1.0" stroke="rgb(0, 0, 0)" stroke-linejoin="round" d=" M 1340.512, 678.120 1340.972, 675.509 1341.561, 672.926 1342.279, 670.376 1343.123, 667.864 1344.091, 665.397 1345.181, 662.981 1346.390, 660.624 1347.715, 658.328 " />
            <path fill="none" stroke-width="3.0" stroke-linecap="butt" stroke-opacity="1.0" stroke="rgb(0, 0, 0)" stroke-linejoin="round" d=" M 878.132, 23.717 877.421, 23.718 876.688, 23.718 875.934, 23.718 875.162, 23.718 874.374, 23.718 873.573, 23.718 872.762, 23.719 871.941, 23.719 871.042, 23.627 871.041, 23.627 " />
            <path fill="none" stroke-width="3.0" stroke-linecap="butt" stroke-opacity="1.0" stroke="rgb(0, 0, 0)" stroke-linejoin="round" d=" M 1366.491, 640.015 1368.818, 638.747 1371.206, 637.598 1373.647, 636.569 " />
            <path fill="none" stroke-width="3.0" stroke-linecap="butt" stroke-opacity="1.0" stroke="rgb(0, 0, 0)" stroke-linejoin="round" d=" M 1373.647, 636.569 1376.137, 635.662 1378.670, 634.881 1381.238, 634.228 1383.835, 633.702 1386.455, 633.307 1389.092, 633.043 1391.739, 632.911 1394.389, 632.911 1397.035, 633.043 1399.672, 633.307 1402.292, 633.702 1404.890, 634.228 1407.458, 634.881 1409.990, 635.662 " />
            <path fill="none" stroke-width="3.0" stroke-linecap="butt" stroke-opacity="1.0" stroke="rgb(0, 0, 0)" stroke-linejoin="round" d=" M 1340.182, 691.332 1339.984, 688.689 1339.918, 686.040 1339.984, 683.391 1340.182, 680.749 1340.512, 678.120 " />
            <path fill="none" stroke-width="3.0" stroke-linecap="butt" stroke-opacity="1.0" stroke="rgb(0, 0, 0)" stroke-linejoin="round" d=" M 881.823, 23.703 881.276, 23.717 880.708, 23.717 880.108, 23.717 879.477, 23.717 878.818, 23.717 878.132, 23.717 " />
            <path fill="none" stroke-width="3.0" stroke-linecap="butt" stroke-opacity="1.0" stroke="rgb(0, 0, 0)" stroke-linejoin="round" d=" M 1342.279, 701.706 1341.561, 699.155 1340.972, 696.571 1340.512, 693.962 " />
            <path fill="none" stroke-width="3.0" stroke-linecap="butt" stroke-opacity="1.0" stroke="rgb(0, 0, 0)" stroke-linejoin="round" d=" M 1972.238, 23.634 1962.238, 23.634 1952.238, 23.634 1942.238, 23.634 1932.238, 23.634 1922.238, 23.634 1912.238, 23.634 1902.238, 23.633 1892.238, 23.633 1882.238, 23.633 1872.238, 23.633 1862.238, 23.633 1852.238, 23.633 1842.238, 23.633 1832.238, 23.633 1822.238, 23.633 1812.238, 23.633 1802.238, 23.633 1792.238, 23.633 1782.238, 23.633 1772.238, 23.633 1762.238, 23.633 1752.238, 23.632 1742.238, 23.632 1732.238, 23.632 1722.238, 23.632 1712.238, 23.632 1702.238, 23.632 1692.238, 23.632 1682.238, 23.632 1672.238, 23.632 1662.238, 23.632 1652.238, 23.632 1642.238, 23.632 1632.238, 23.632 1622.238, 23.632 1612.238, 23.632 1602.238, 23.631 1592.238, 23.631 1582.238, 23.631 1572.238, 23.631 1562.238, 23.631 1552.238, 23.631 1542.238, 23.631 1532.238, 23.631 1522.238, 23.631 1512.238, 23.631 1502.238, 23.631 1492.238, 23.631 1482.238, 23.631 1472.238, 23.631 1462.238, 23.631 1452.238, 23.630 1442.238, 23.630 1432.238, 23.630 1422.238, 23.630 1412.238, 23.630 1402.238, 23.630 1392.238, 23.630 1382.238, 23.630 1372.238, 23.630 1362.238, 23.630 1352.238, 23.630 1342.238, 23.630 1332.238, 23.630 1322.238, 23.630 1312.238, 23.630 1302.238, 23.630 1292.238, 23.630 1282.238, 23.629 1272.238, 23.629 1262.238, 23.629 1252.238, 23.629 1242.238, 23.629 1232.238, 23.629 1222.238, 23.629 1212.238, 23.629 1202.238, 23.629 1192.238, 23.629 1182.238, 23.629 1172.238, 23.629 1162.238, 23.629 1152.238, 23.629 1142.238, 23.629 1132.238, 23.628 1122.238, 23.628 1112.238, 23.628 1102.238, 23.628 1092.238, 23.628 1075.326, 23.628 1075.326, 23.628 1065.326, 23.632 1055.326, 23.636 1045.326, 23.640 1035.326, 23.644 1025.326, 23.648 1015.326, 23.651 1005.326, 23.655 995.326, 23.659 985.326, 23.663 975.326, 23.667 965.326, 23.671 955.326, 23.675 945.326, 23.679 935.326, 23.683 925.326, 23.687 915.326, 23.690 905.326, 23.694 895.326, 23.698 885.326, 23.702 881.823, 23.703 " />
            <path fill="none" stroke-width="3.0" stroke-linecap="butt" stroke-opacity="1.0" stroke="rgb(0, 0, 0)" stroke-linejoin="round" d=" M 1972.718, 23.634 1972.238, 23.634 1972.237, 23.634 1962.237, 23.634 1952.237, 23.635 1942.237, 23.635 1932.237, 23.636 1922.237, 23.636 1912.237, 23.637 1902.237, 23.638 1892.237, 23.638 1882.237, 23.639 1872.237, 23.639 1862.237, 23.640 1852.237, 23.640 1842.237, 23.641 1832.237, 23.641 1822.237, 23.642 1812.237, 23.642 1802.237, 23.643 1792.237, 23.643 1782.237, 23.644 1772.237, 23.644 1762.237, 23.645 1752.237, 23.645 1742.237, 23.646 1732.237, 23.646 1722.237, 23.647 1712.237, 23.647 1702.237, 23.648 1692.237, 23.649 1682.237, 23.649 1672.237, 23.650 1662.237, 23.650 1652.237, 23.651 1642.237, 23.651 1632.237, 23.652 1622.237, 23.652 1612.237, 23.653 1602.237, 23.653 1592.237, 23.654 1582.237, 23.654 1572.237, 23.655 1562.237, 23.655 1552.237, 23.656 1542.237, 23.656 1532.237, 23.657 1522.237, 23.657 1512.237, 23.658 1502.237, 23.658 1492.237, 23.659 1482.237, 23.659 1472.237, 23.660 1462.237, 23.661 1452.237, 23.661 1442.237, 23.661 1432.237, 23.662 1422.237, 23.663 1412.237, 23.663 1402.237, 23.664 1392.237, 23.664 1382.237, 23.665 1372.237, 23.665 1362.237, 23.666 1352.237, 23.666 1342.237, 23.667 1332.237, 23.667 1322.237, 23.668 1312.237, 23.668 1302.237, 23.669 1292.237, 23.669 1282.237, 23.670 1272.237, 23.670 1262.237, 23.671 1252.237, 23.672 1242.237, 23.672 1232.237, 23.672 1222.237, 23.673 1212.237, 23.674 1202.237, 23.674 1192.237, 23.675 1182.237, 23.675 1172.237, 23.676 1162.237, 23.676 1152.237, 23.677 1142.237, 23.677 1132.237, 23.678 1122.237, 23.678 1112.237, 23.679 1102.237, 23.679 1092.237, 23.680 1076.502, 23.681 1075.326, 23.628 1075.326, 23.628 " />
            <path fill="none" stroke-width="3.0" stroke-linecap="butt" stroke-opacity="1.0" stroke="rgb(0, 0, 0)" stroke-linejoin="round" d=" M 1357.898, 725.888 1355.955, 724.086 1354.105, 722.188 1352.352, 720.202 1350.699, 718.130 " />
            <path fill="none" stroke-width="3.0" stroke-linecap="butt" stroke-opacity="1.0" stroke="rgb(0, 0, 0)" stroke-linejoin="round" d=" M 1376.137, 736.419 1373.647, 735.513 1371.206, 734.484 1368.818, 733.334 1366.491, 732.066 1364.229, 730.684 1362.040, 729.192 1359.928, 727.591 " />
            <path fill="none" stroke-width="3.0" stroke-linecap="butt" stroke-opacity="1.0" stroke="rgb(0, 0, 0)" stroke-linejoin="round" d=" M 1399.672, 738.774 1397.035, 739.037 1394.389, 739.170 1391.739, 739.170 1389.092, 739.037 1386.455, 738.774 1383.835, 738.379 1381.238, 737.854 1378.670, 737.200 " />
            <path fill="none" stroke-width="3.0" stroke-linecap="butt" stroke-opacity="1.0" stroke="rgb(0, 0, 0)" stroke-linejoin="round" d=" M 2589.545, 23.638 2579.545, 23.638 2569.545, 23.638 2559.545, 23.638 2549.545, 23.638 2539.545, 23.638 2529.545, 23.638 2519.545, 23.637 2509.545, 23.637 2499.545, 23.637 2489.545, 23.637 2479.545, 23.637 2469.545, 23.637 2459.545, 23.637 2449.545, 23.637 2439.545, 23.637 2429.545, 23.637 2419.545, 23.637 2409.545, 23.637 2399.545, 23.637 2389.545, 23.636 2379.545, 23.636 2369.545, 23.636 2359.545, 23.636 2349.545, 23.636 2339.545, 23.636 2329.545, 23.636 2319.545, 23.636 2309.545, 23.636 2299.545, 23.636 2290.599, 23.636 2289.356, 23.636 2288.133, 23.636 2286.933, 23.636 2285.762, 23.636 2284.621, 23.636 2283.515, 23.636 2282.867, 23.636 " />
            <path fill="none" stroke-width="3.0" stroke-linecap="butt" stroke-opacity="1.0" stroke="rgb(0, 0, 0)" stroke-linejoin="round" d=" M 1412.480, 636.569 1414.922, 637.598 1417.309, 638.747 1419.637, 640.015 1421.898, 641.397 1424.087, 642.890 1426.200, 644.489 1428.229, 646.192 1430.172, 647.995 1432.022, 649.892 1433.776, 651.880 " />
            <path fill="none" stroke-width="3.0" stroke-linecap="butt" stroke-opacity="1.0" stroke="rgb(0, 0, 0)" stroke-linejoin="round" d=" M 1409.990, 635.662 1412.480, 636.569 " />
            <path fill="none" stroke-width="3.0" stroke-linecap="butt" stroke-opacity="1.0" stroke="rgb(0, 0, 0)" stroke-linejoin="round" d=" M 2282.867, 23.636 2282.447, 23.636 2272.447, 23.636 2262.447, 23.636 2252.447, 23.636 2242.447, 23.635 2232.447, 23.635 2222.447, 23.635 2212.447, 23.635 2202.447, 23.635 2192.447, 23.635 2182.447, 23.635 2172.447, 23.635 2162.447, 23.635 2152.447, 23.635 2142.447, 23.635 2132.447, 23.635 2122.447, 23.635 2112.447, 23.635 2102.447, 23.635 2092.447, 23.635 2082.447, 23.634 2072.447, 23.634 2062.447, 23.634 2052.447, 23.634 2042.447, 23.634 2032.447, 23.634 2022.447, 23.634 2012.447, 23.634 2002.447, 23.634 1992.447, 23.634 1982.447, 23.634 1976.189, 23.634 " />
            <path fill="none" stroke-width="3.0" stroke-linecap="butt" stroke-opacity="1.0" stroke="rgb(0, 0, 0)" stroke-linejoin="round" d=" M 1446.209, 686.040 1446.143, 688.689 1445.945, 691.332 1445.616, 693.962 1445.156, 696.571 1444.566, 699.155 1443.848, 701.706 1443.004, 704.218 " />
            <path fill="none" stroke-width="3.0" stroke-linecap="butt" stroke-opacity="1.0" stroke="rgb(0, 0, 0)" stroke-linejoin="round" d=" M 1445.616, 678.120 1445.945, 680.749 1446.143, 683.391 1446.209, 686.040 " />
            <path fill="none" stroke-width="3.0" stroke-linecap="butt" stroke-opacity="1.0" stroke="rgb(0, 0, 0)" stroke-linejoin="round" d=" M 1443.848, 670.376 1444.566, 672.926 1445.156, 675.509 1445.616, 678.120 " />
            <path fill="none" stroke-width="3.0" stroke-linecap="butt" stroke-opacity="1.0" stroke="rgb(0, 0, 0)" stroke-linejoin="round" d=" M 1439.737, 660.624 1440.946, 662.981 1442.036, 665.397 1443.004, 667.864 1443.848, 670.376 " />
            <path fill="none" stroke-width="3.0" stroke-linecap="butt" stroke-opacity="1.0" stroke="rgb(0, 0, 0)" stroke-linejoin="round" d=" M 1435.428, 653.951 1436.975, 656.102 1438.412, 658.328 1439.737, 660.624 " />
            <path fill="none" stroke-width="3.0" stroke-linecap="butt" stroke-opacity="1.0" stroke="rgb(0, 0, 0)" stroke-linejoin="round" d=" M 1433.776, 651.880 1435.428, 653.951 " />
            <path fill="none" stroke-width="3.0" stroke-linecap="butt" stroke-opacity="1.0" stroke="rgb(0, 0, 0)" stroke-linejoin="round" d=" M 2359.465, 1169.834 2361.292, 1160.002 2363.120, 1150.171 2364.947, 1140.339 2366.774, 1130.507 2368.601, 1120.676 2370.428, 1110.844 2372.255, 1101.012 2374.082, 1091.181 2375.909, 1081.349 2377.736, 1071.517 2379.563, 1061.686 2381.391, 1051.854 2383.218, 1042.022 2385.045, 1032.191 2386.872, 1022.359 2388.699, 1012.527 2390.526, 1002.696 2392.353, 992.864 2394.180, 983.032 2396.008, 973.201 2397.835, 963.369 2399.662, 953.537 2401.489, 943.706 2403.316, 933.874 2405.143, 924.042 2406.970, 914.211 2408.797, 904.379 2410.625, 894.547 2412.452, 884.716 2414.279, 874.884 2416.106, 865.052 2417.933, 855.221 2419.760, 845.389 2421.587, 835.557 2423.414, 825.726 2425.241, 815.894 2427.068, 806.062 2428.896, 796.231 2430.723, 786.399 2432.550, 776.567 2434.377, 766.736 2436.204, 756.904 2438.031, 747.072 2439.858, 737.241 2441.685, 727.409 2443.512, 717.577 2445.340, 707.746 2447.167, 697.914 2448.994, 688.082 2450.821, 678.251 2452.648, 668.419 2454.475, 658.587 2456.302, 648.756 2458.129, 638.924 2459.957, 629.092 2461.784, 619.261 2463.611, 609.429 2465.438, 599.597 2467.265, 589.766 2469.092, 579.934 2470.919, 570.102 2472.746, 560.271 2475.164, 547.263 2477.298, 537.493 2479.432, 527.723 2481.566, 517.954 2483.700, 508.184 2485.834, 498.414 2487.968, 488.645 2490.102, 478.875 2492.237, 469.106 2494.371, 459.336 2496.505, 449.566 2498.639, 439.797 2500.773, 430.027 2502.907, 420.257 2505.041, 410.488 2507.175, 400.718 2509.309, 390.948 2511.443, 381.179 2513.577, 371.409 2515.711, 361.640 2517.846, 351.870 2519.980, 342.100 2522.114, 332.331 2524.248, 322.561 2526.382, 312.792 2528.516, 303.022 2530.650, 293.252 2532.784, 283.483 2534.918, 273.713 2537.052, 263.943 2539.187, 254.174 2541.321, 244.404 2543.455, 234.635 2545.589, 224.865 2547.723, 215.095 2549.857, 205.326 2551.991, 195.556 2554.125, 185.786 2556.260, 176.017 2558.394, 166.247 2560.528, 156.478 2562.662, 146.708 2564.796, 136.938 2566.930, 127.169 2569.064, 117.399 2571.198, 107.629 2573.332, 97.860 2575.466, 88.090 2577.600, 78.320 2579.734, 68.551 2581.869, 58.781 2584.003, 49.012 2586.137, 39.242 2588.271, 29.472 2589.545, 23.638 " />
            <path fill="none" stroke-width="3.0" stroke-linecap="butt" stroke-opacity="1.0" stroke="rgb(0, 0, 0)" stroke-linejoin="round" d=" M 1426.200, 727.591 1424.087, 729.192 1421.898, 730.684 1419.637, 732.066 1417.309, 733.334 1414.922, 734.484 " />
            <path fill="none" stroke-width="3.0" stroke-linecap="butt" stroke-opacity="1.0" stroke="rgb(0, 0, 0)" stroke-linejoin="round" d=" M 1436.975, 715.979 1435.428, 718.130 1433.776, 720.202 1432.022, 722.188 1430.172, 724.086 " />
            <path fill="none" stroke-width="3.0" stroke-linecap="butt" stroke-opacity="1.0" stroke="rgb(0, 0, 0)" stroke-linejoin="round" d=" M 1440.946, 709.100 1439.737, 711.458 1438.412, 713.753 1436.975, 715.979 " />
            <path fill="none" stroke-width="3.0" stroke-linecap="butt" stroke-opacity="1.0" stroke="rgb(0, 0, 0)" stroke-linejoin="round" d=" M 2359.465, 1624.605 2359.465, 1614.605 2359.465, 1604.605 2359.465, 1594.605 2359.465, 1584.605 2359.465, 1574.605 2359.465, 1564.605 2359.465, 1554.605 2359.465, 1544.605 2359.465, 1534.605 2359.465, 1524.605 2359.465, 1514.605 2359.465, 1504.605 2359.465, 1494.605 2359.465, 1484.605 2359.465, 1474.605 2359.465, 1464.605 2359.465, 1454.605 2359.465, 1444.605 2359.465, 1434.605 2359.465, 1424.605 2359.465, 1414.605 2359.465, 1404.605 2359.465, 1394.605 2359.465, 1384.605 2359.465, 1374.605 2359.465, 1364.605 2359.465, 1354.605 2359.465, 1344.605 2359.465, 1334.605 2359.465, 1324.605 2359.465, 1314.605 2359.465, 1304.605 2359.465, 1294.605 2359.465, 1284.605 2359.465, 1274.605 2359.465, 1264.605 2359.465, 1254.605 2359.465, 1244.605 2359.465, 1234.605 2359.465, 1224.605 2359.465, 1214.605 2359.465, 1204.605 2359.465, 1194.605 2359.465, 1184.605 2359.465, 1174.605 2359.465, 1169.834 " />
            <path fill="none" stroke-width="3.0" stroke-linecap="butt" stroke-opacity="1.0" stroke="rgb(0, 0, 0)" stroke-linejoin="round" d=" M 1409.990, 736.419 1407.458, 737.200 1404.890, 737.854 1402.292, 738.379 " />
            <path fill="none" stroke-width="3.0" stroke-linecap="butt" stroke-opacity="1.0" stroke="rgb(0, 0, 0)" stroke-linejoin="round" d=" M 1879.446, 1824.384 1889.446, 1824.384 1899.446, 1824.384 1909.446, 1824.384 1919.446, 1824.384 1929.446, 1824.384 1939.446, 1824.384 1949.446, 1824.384 1959.446, 1824.384 1969.446, 1824.384 1979.446, 1824.384 1989.446, 1824.384 1999.446, 1824.384 2009.446, 1824.384 2019.446, 1824.384 2029.446, 1824.384 2039.446, 1824.384 2049.447, 1824.384 2059.447, 1824.384 2069.447, 1824.384 2079.447, 1824.384 2089.447, 1824.384 2099.447, 1824.384 2109.447, 1824.384 2119.447, 1824.384 2129.447, 1824.384 2137.521, 1824.384 2147.521, 1824.384 2157.521, 1824.384 2167.521, 1824.384 2177.521, 1824.384 2187.521, 1824.384 2197.521, 1824.384 2207.521, 1824.384 2217.521, 1824.384 2227.521, 1824.384 2237.521, 1824.384 2247.521, 1824.384 2257.521, 1824.384 2267.521, 1824.384 2277.521, 1824.384 2287.521, 1824.384 2292.355, 1824.384 " />
            <path fill="none" stroke-width="3.0" stroke-linecap="butt" stroke-opacity="1.0" stroke="rgb(0, 0, 0)" stroke-linejoin="round" d=" M 2292.355, 1824.384 2295.539, 1814.904 2298.724, 1805.425 2301.908, 1795.946 2305.092, 1786.466 2308.277, 1776.987 2311.461, 1767.507 2314.646, 1758.028 2317.830, 1748.548 2321.014, 1739.069 2324.198, 1729.589 2327.383, 1720.110 2330.567, 1710.631 2333.752, 1701.151 2336.936, 1691.672 2340.120, 1682.192 2343.305, 1672.713 2346.489, 1663.233 2349.673, 1653.754 2352.858, 1644.274 2356.042, 1634.795 2359.465, 1624.605 " />
            <path fill="none" stroke-width="3.0" stroke-linecap="butt" stroke-opacity="1.0" stroke="rgb(0, 0, 0)" stroke-linejoin="round" d=" M 2136.072, 1824.297 2136.413, 1824.286 2136.750, 1824.286 2137.098, 1824.286 " />
            <path fill="none" stroke-width="3.0" stroke-linecap="butt" stroke-opacity="1.0" stroke="rgb(0, 0, 0)" stroke-linejoin="round" d=" M 2137.098, 1824.286 2137.521, 1824.384 " />
            <path fill="none" stroke-width="3.0" stroke-linecap="butt" stroke-opacity="1.0" stroke="rgb(0, 0, 0)" stroke-linejoin="round" d=" M 1876.513, 1824.322 1877.239, 1824.276 " />
            <path fill="none" stroke-width="3.0" stroke-linecap="butt" stroke-opacity="1.0" stroke="rgb(0, 0, 0)" stroke-linejoin="round" d=" M 1877.239, 1824.276 1877.937, 1824.276 " />
            <path fill="none" stroke-width="3.0" stroke-linecap="butt" stroke-opacity="1.0" stroke="rgb(0, 0, 0)" stroke-linejoin="round" d=" M 1877.937, 1824.276 1878.658, 1824.276 " />
            <path fill="none" stroke-width="3.0" stroke-linecap="butt" stroke-opacity="1.0" stroke="rgb(0, 0, 0)" stroke-linejoin="round" d=" M 1878.658, 1824.276 1879.446, 1824.384 " />
            <path fill="none" stroke-width="3.0" stroke-linecap="butt" stroke-opacity="1.0" stroke="rgb(0, 0, 0)" stroke-linejoin="round" d=" M 24.122, 1824.384 34.122, 1824.384 44.122, 1824.384 54.122, 1824.384 64.122, 1824.384 74.122, 1824.384 84.122, 1824.384 94.122, 1824.384 104.122, 1824.384 114.122, 1824.384 124.122, 1824.384 134.122, 1824.384 144.122, 1824.384 154.122, 1824.384 164.122, 1824.384 174.122, 1824.384 184.122, 1824.384 194.122, 1824.384 204.122, 1824.384 214.122, 1824.384 224.122, 1824.384 234.122, 1824.384 244.122, 1824.384 254.122, 1824.384 264.122, 1824.384 274.122, 1824.384 284.122, 1824.384 294.122, 1824.384 304.122, 1824.384 314.122, 1824.384 324.122, 1824.384 334.122, 1824.384 344.122, 1824.384 354.122, 1824.384 364.122, 1824.384 374.122, 1824.384 384.122, 1824.384 394.122, 1824.384 406.229, 1824.384 416.229, 1824.384 426.229, 1824.384 436.229, 1824.384 446.229, 1824.384 456.229, 1824.384 466.229, 1824.384 476.229, 1824.384 486.229, 1824.384 496.229, 1824.384 506.229, 1824.384 516.229, 1824.384 526.229, 1824.384 536.229, 1824.384 546.229, 1824.384 556.229, 1824.384 566.229, 1824.384 576.229, 1824.384 586.229, 1824.384 596.229, 1824.384 599.267, 1824.384 " />
            <path fill="none" stroke-width="3.0" stroke-linecap="butt" stroke-opacity="1.0" stroke="rgb(0, 0, 0)" stroke-linejoin="round" d=" M 5897.516, 23.660 5887.516, 23.660 5877.516, 23.660 5867.516, 23.660 5857.516, 23.660 5847.516, 23.659 5837.516, 23.659 5827.516, 23.659 5817.516, 23.659 5813.319, 23.659 5803.319, 23.659 5793.319, 23.659 5788.095, 23.659 5785.263, 23.659 5783.560, 23.659 5778.864, 23.659 5777.385, 23.659 5774.027, 23.659 5769.067, 23.659 5764.005, 23.659 5763.360, 23.659 5762.312, 23.659 5758.861, 23.659 5758.351, 23.659 5753.655, 23.659 5748.404, 23.659 5745.770, 23.659 5745.770, 23.659 5743.130, 23.659 5737.850, 23.659 5737.382, 23.659 5732.582, 23.659 5727.344, 23.659 5722.152, 23.659 5720.009, 23.659 5717.022, 23.659 5711.969, 23.659 5701.969, 23.659 5691.969, 23.659 5681.969, 23.659 5671.969, 23.659 5661.969, 23.659 5651.969, 23.659 5641.969, 23.659 5631.969, 23.659 5621.969, 23.658 5611.969, 23.658 5601.969, 23.658 5591.969, 23.658 5581.969, 23.658 5571.969, 23.658 5561.969, 23.658 5551.969, 23.658 5541.969, 23.658 5531.969, 23.658 5521.969, 23.658 5511.969, 23.658 5501.969, 23.658 5491.969, 23.658 5481.969, 23.658 5471.969, 23.657 5461.969, 23.657 5451.969, 23.657 5441.969, 23.657 5431.969, 23.657 5421.969, 23.657 5411.969, 23.657 5401.969, 23.657 5391.969, 23.657 5381.969, 23.657 5371.969, 23.657 5361.969, 23.657 5351.969, 23.657 5341.969, 23.657 5331.969, 23.657 5321.969, 23.656 5311.969, 23.656 5301.969, 23.656 5291.969, 23.656 5281.969, 23.656 5271.969, 23.656 5261.969, 23.656 5251.969, 23.656 5241.969, 23.656 5231.969, 23.656 5221.969, 23.656 5211.969, 23.656 5201.969, 23.656 5191.969, 23.656 5176.729, 23.656 " />
            <path fill="none" stroke-width="3.0" stroke-linecap="butt" stroke-opacity="1.0" stroke="rgb(0, 0, 0)" stroke-linejoin="round" d=" M 6458.598, 23.664 6455.375, 23.664 6445.375, 23.664 6435.375, 23.664 6425.375, 23.664 6415.375, 23.664 6405.375, 23.664 6395.375, 23.663 6385.375, 23.663 6375.375, 23.663 6365.375, 23.663 6355.375, 23.663 6345.375, 23.663 6337.592, 23.663 6327.592, 23.663 6317.592, 23.663 6307.592, 23.663 6297.592, 23.663 6287.592, 23.663 6277.592, 23.663 6267.592, 23.662 6257.592, 23.662 6247.592, 23.662 6237.592, 23.662 6227.592, 23.662 6217.592, 23.662 6207.227, 23.662 6197.227, 23.662 6187.227, 23.662 6177.227, 23.662 6168.573, 23.662 6158.573, 23.662 6148.573, 23.662 6138.573, 23.661 6128.573, 23.661 6118.573, 23.661 6108.573, 23.661 6106.198, 23.661 6106.196, 23.661 6096.196, 23.661 6086.196, 23.661 6076.196, 23.661 6066.196, 23.661 6056.196, 23.661 6046.196, 23.661 6036.196, 23.661 6026.196, 23.661 6016.196, 23.661 6006.196, 23.661 5996.196, 23.660 5986.196, 23.660 5976.196, 23.660 5966.196, 23.660 5956.196, 23.660 5946.196, 23.660 5936.196, 23.660 5926.196, 23.660 5916.196, 23.660 5906.969, 23.660 5902.331, 23.660 5897.516, 23.660 " />
            <path fill="none" stroke-width="3.0" stroke-linecap="butt" stroke-opacity="1.0" stroke="rgb(0, 0, 0)" stroke-linejoin="round" d=" M 6480.601, 23.664 6477.202, 23.664 6473.190, 23.664 6469.311, 23.664 6465.578, 23.664 6462.004, 23.664 6459.121, 23.664 6458.598, 23.664 " />
            <path fill="none" stroke-width="3.0" stroke-linecap="butt" stroke-opacity="1.0" stroke="rgb(0, 0, 0)" stroke-linejoin="round" d=" M 5176.729, 23.656 5175.454, 33.574 5174.177, 43.492 5172.901, 53.410 5171.625, 63.328 5170.348, 73.247 5169.072, 83.165 5167.795, 93.083 5166.519, 103.001 5165.243, 112.919 5163.966, 122.838 5162.690, 132.756 5161.414, 142.674 5160.138, 152.592 5158.861, 162.511 5157.585, 172.429 5156.309, 182.347 5155.032, 192.265 5153.756, 202.183 5152.479, 212.102 5151.203, 222.020 5149.927, 231.938 5148.651, 241.856 5147.375, 251.775 5146.098, 261.693 5145.346, 267.535 5148.475, 277.033 5151.604, 286.531 5154.733, 296.029 5157.862, 305.527 5160.991, 315.025 5164.120, 324.522 5167.249, 334.020 5170.378, 343.518 5173.507, 353.016 5176.636, 362.514 5179.765, 372.012 5182.894, 381.510 5186.023, 391.008 5189.152, 400.505 5192.281, 410.003 5195.410, 419.501 5198.539, 428.999 5201.668, 438.497 5204.797, 447.995 5207.926, 457.493 5211.055, 466.990 5214.184, 476.488 5217.313, 485.986 5220.442, 495.484 5223.571, 504.982 5226.700, 514.480 5229.829, 523.978 5232.958, 533.476 5236.087, 542.973 5239.216, 552.471 5242.345, 561.969 5245.474, 571.467 5248.603, 580.965 5251.732, 590.463 5254.861, 599.961 5257.990, 609.458 5261.119, 618.956 5264.248, 628.454 5267.376, 637.952 5270.506, 647.450 5273.635, 656.948 5276.764, 666.446 5279.893, 675.943 5283.021, 685.441 5286.150, 694.939 5289.280, 704.437 5292.409, 713.935 5295.538, 723.433 5297.949, 730.754 " />
            <path fill="none" stroke-width="3.0" stroke-linecap="butt" stroke-opacity="1.0" stroke="rgb(0, 0, 0)" stroke-linejoin="round" d=" M 6883.849, 23.666 6881.146, 23.666 6878.489, 23.666 6875.891, 23.666 6873.363, 23.666 6870.918, 23.666 6868.571, 23.666 6858.571, 23.666 6848.571, 23.666 6838.571, 23.666 6828.571, 23.666 6818.571, 23.666 6808.571, 23.666 6798.571, 23.666 6788.571, 23.666 6778.571, 23.666 6768.571, 23.666 6759.122, 23.666 6749.122, 23.665 6739.122, 23.665 6729.122, 23.665 6719.122, 23.665 6709.122, 23.665 6699.122, 23.665 6689.122, 23.665 6679.122, 23.665 6669.122, 23.665 6659.122, 23.665 6649.122, 23.665 6639.122, 23.665 6629.122, 23.665 6619.122, 23.665 6609.122, 23.665 6599.122, 23.665 6589.122, 23.665 6579.122, 23.664 6569.122, 23.664 6559.122, 23.664 6549.122, 23.664 6539.122, 23.664 6529.122, 23.664 6519.122, 23.664 6509.122, 23.664 6498.788, 23.664 6494.314, 23.664 6489.904, 23.664 6485.573, 23.664 6481.333, 23.664 6480.601, 23.664 " />
            <path fill="none" stroke-width="3.0" stroke-linecap="butt" stroke-opacity="1.0" stroke="rgb(0, 0, 0)" stroke-linejoin="round" d=" M 6897.624, 23.667 6894.873, 23.667 6892.108, 23.667 6889.342, 23.667 6886.585, 23.667 " />
            <path fill="none" stroke-width="3.0" stroke-linecap="butt" stroke-opacity="1.0" stroke="rgb(0, 0, 0)" stroke-linejoin="round" d=" M 6412.500, 897.010 6415.019, 894.428 6417.663, 891.975 6420.426, 889.657 6423.301, 887.479 6426.282, 885.447 6429.359, 883.567 6432.526, 881.842 6435.776, 880.277 6439.100, 878.875 6442.489, 877.642 6445.936, 876.579 6449.431, 875.689 6452.966, 874.974 6456.533, 874.437 6460.122, 874.078 6463.724, 873.898 6467.331, 873.898 6470.933, 874.078 6474.522, 874.437 6478.089, 874.974 6481.625, 875.689 6485.120, 876.579 6488.566, 877.642 6491.956, 878.875 6495.279, 880.277 6498.529, 881.842 6501.697, 883.567 6504.774, 885.447 6507.754, 887.479 6510.629, 889.657 6513.393, 891.975 6516.037, 894.428 6518.555, 897.010 6520.941, 899.715 6523.190, 902.535 6525.295, 905.464 6527.253, 908.493 6529.056, 911.616 6530.701, 914.826 6532.185, 918.114 6533.503, 921.472 6534.651, 924.891 6535.628, 928.362 6536.431, 931.879 6537.057, 935.431 6537.505, 939.009 6537.775, 942.607 6537.865, 946.212 6537.775, 949.818 6537.505, 953.415 6537.057, 956.994 6536.431, 960.546 6535.628, 964.063 6534.651, 967.534 6533.503, 970.953 6532.185, 974.311 6530.701, 977.598 6529.056, 980.808 6527.253, 983.931 6525.295, 986.961 6523.190, 989.890 6520.941, 992.710 6518.555, 995.414 6516.037, 997.996 6513.393, 1000.449 6510.629, 1002.768 6507.754, 1004.946 6504.774, 1006.977 6501.697, 1008.858 6498.529, 1010.583 6495.279, 1012.148 6491.956, 1013.549 6488.566, 1014.782 6485.120, 1015.846 6481.625, 1016.736 6478.089, 1017.450 6474.522, 1017.988 6470.933, 1018.347 6467.331, 1018.527 6463.724, 1018.527 6460.122, 1018.347 6456.533, 1017.988 6452.966, 1017.450 6449.431, 1016.736 6445.936, 1015.846 6442.489, 1014.782 6439.100, 1013.549 6435.776, 1012.148 6432.526, 1010.583 6429.359, 1008.858 6426.282, 1006.977 6423.301, 1004.946 6420.426, 1002.768 6417.663, 1000.449 6415.019, 997.996 6412.500, 995.414 6410.114, 992.710 6407.865, 989.890 6405.760, 986.961 6403.803, 983.931 6402.000, 980.808 6400.354, 977.598 6398.871, 974.311 6397.553, 970.953 6396.404, 967.534 6395.427, 964.063 6394.625, 960.546 6393.998, 956.994 6393.550, 953.415 6393.280, 949.818 6393.190, 946.212 6393.280, 942.607 6393.550, 939.009 6393.998, 935.431 6394.625, 931.879 6395.427, 928.362 6396.404, 924.891 6397.553, 921.472 6398.871, 918.114 6400.354, 914.826 6402.000, 911.616 6403.803, 908.493 6405.760, 905.464 6407.865, 902.535 6410.114, 899.715 6412.500, 897.010 " />
            <path fill="none" stroke-width="3.0" stroke-linecap="butt" stroke-opacity="1.0" stroke="rgb(0, 0, 0)" stroke-linejoin="round" d=" M 5297.949, 730.754 5298.577, 740.734 5299.204, 750.715 5299.831, 760.695 5300.458, 770.675 5301.086, 780.656 5301.713, 790.636 5302.340, 800.616 5302.967, 810.597 5303.595, 820.577 5304.222, 830.557 5304.849, 840.537 5305.477, 850.518 5306.104, 860.498 5306.731, 870.478 5307.358, 880.459 5307.985, 890.439 5308.613, 900.419 5309.240, 910.400 5309.867, 920.380 5310.495, 930.360 5311.122, 940.341 5311.749, 950.321 5312.376, 960.301 5313.003, 970.281 5313.631, 980.262 5314.258, 990.242 5314.885, 1000.222 5315.513, 1010.203 5316.140, 1020.183 5316.767, 1030.163 5317.394, 1040.144 5318.021, 1050.124 5318.649, 1060.104 5319.276, 1070.085 5319.903, 1080.065 5320.531, 1090.045 5321.158, 1100.025 5321.785, 1110.006 5322.412, 1119.986 5323.040, 1129.966 5323.667, 1139.947 5324.294, 1149.927 5324.921, 1159.907 5325.548, 1169.888 5326.176, 1179.868 5326.803, 1189.848 5327.430, 1199.829 5328.058, 1209.809 5328.685, 1219.789 5329.312, 1229.769 5329.939, 1239.750 5330.566, 1249.730 5331.388, 1262.807 5334.459, 1272.324 5337.530, 1281.841 5340.601, 1291.358 5343.671, 1300.875 5346.742, 1310.391 5349.812, 1319.908 5352.883, 1329.425 5355.954, 1338.942 5359.024, 1348.459 5362.095, 1357.976 5365.166, 1367.493 5368.236, 1377.010 5371.307, 1386.527 5374.377, 1396.043 5377.448, 1405.560 5380.519, 1415.077 5383.589, 1424.594 5386.660, 1434.111 5389.730, 1443.628 5392.931, 1453.548 5396.973, 1462.694 5401.016, 1471.841 5405.058, 1480.988 5409.100, 1490.134 5413.142, 1499.281 5417.184, 1508.428 5421.226, 1517.574 5425.268, 1526.721 5429.310, 1535.867 5433.353, 1545.014 5437.395, 1554.161 5441.437, 1563.307 5445.479, 1572.454 5449.521, 1581.601 5453.563, 1590.747 5457.605, 1599.894 5461.647, 1609.041 5465.689, 1618.187 5469.731, 1627.334 5473.773, 1636.481 5477.815, 1645.627 5481.858, 1654.774 5485.900, 1663.921 5489.942, 1673.067 5493.984, 1682.214 5498.026, 1691.361 5502.068, 1700.507 5506.110, 1709.654 5508.587, 1715.258 " />
            <path fill="none" stroke-width="3.0" stroke-linecap="butt" stroke-opacity="1.0" stroke="rgb(0, 0, 0)" stroke-linejoin="round" d=" M 5508.587, 1715.258 5507.677, 1725.217 5506.767, 1735.175 5505.856, 1745.134 5504.946, 1755.092 5504.036, 1765.051 5503.126, 1775.009 5502.216, 1784.968 5501.306, 1794.926 5500.396, 1804.885 5499.485, 1814.843 5498.614, 1824.385 5508.614, 1824.385 5518.614, 1824.385 5528.614, 1824.385 5538.614, 1824.385 5548.614, 1824.385 5558.614, 1824.385 5568.614, 1824.385 5578.614, 1824.385 5581.653, 1824.385 5582.027, 1824.385 " />
            <path fill="none" stroke-width="3.0" stroke-linecap="butt" stroke-opacity="1.0" stroke="rgb(0, 0, 0)" stroke-linejoin="round" d=" M 5582.027, 1824.385 5592.027, 1824.384 5602.027, 1824.384 5612.027, 1824.384 5622.027, 1824.384 5632.027, 1824.383 5642.027, 1824.383 5652.027, 1824.383 5662.027, 1824.383 5672.027, 1824.382 5682.027, 1824.382 5692.027, 1824.382 5702.027, 1824.382 5712.027, 1824.381 5722.027, 1824.381 5732.027, 1824.381 5742.027, 1824.381 5752.027, 1824.380 5762.027, 1824.380 5772.027, 1824.380 5782.027, 1824.380 5792.027, 1824.380 5802.027, 1824.379 5812.027, 1824.379 5822.027, 1824.379 5832.027, 1824.379 5842.027, 1824.378 5852.027, 1824.378 5862.027, 1824.378 5872.027, 1824.378 5882.027, 1824.377 5892.027, 1824.377 5902.027, 1824.377 5912.027, 1824.377 5922.027, 1824.376 5932.027, 1824.376 5942.027, 1824.376 5952.027, 1824.376 5962.027, 1824.375 5972.027, 1824.375 5982.027, 1824.375 5992.027, 1824.375 6002.027, 1824.374 6012.027, 1824.374 6022.027, 1824.374 6032.027, 1824.374 6042.027, 1824.373 6052.027, 1824.373 6062.027, 1824.373 6072.027, 1824.373 6082.027, 1824.372 6092.027, 1824.372 6102.027, 1824.372 6112.027, 1824.372 6122.027, 1824.372 6132.027, 1824.371 6142.027, 1824.371 6152.027, 1824.371 6162.027, 1824.371 6172.027, 1824.370 6182.027, 1824.370 6192.027, 1824.370 6202.027, 1824.370 6212.027, 1824.369 6222.027, 1824.369 6232.027, 1824.369 6242.027, 1824.369 6252.027, 1824.368 6262.027, 1824.368 6272.027, 1824.368 6282.027, 1824.368 6292.027, 1824.367 6302.027, 1824.367 6312.027, 1824.367 6322.027, 1824.367 6332.027, 1824.366 6342.027, 1824.366 6352.027, 1824.366 6362.027, 1824.366 6372.027, 1824.365 6382.027, 1824.365 6392.027, 1824.365 6402.027, 1824.365 6412.027, 1824.365 6422.027, 1824.364 6432.027, 1824.364 6442.027, 1824.364 6452.027, 1824.364 6462.027, 1824.363 6472.027, 1824.363 6482.027, 1824.363 6492.027, 1824.363 6502.027, 1824.362 6512.027, 1824.362 6522.027, 1824.362 6532.027, 1824.362 6542.027, 1824.361 6552.027, 1824.361 6562.027, 1824.361 6572.027, 1824.361 6582.027, 1824.360 6592.027, 1824.360 6602.027, 1824.360 6612.027, 1824.360 6622.027, 1824.359 6632.027, 1824.359 6642.027, 1824.359 6652.027, 1824.359 6662.027, 1824.358 6672.027, 1824.358 6682.027, 1824.358 6692.027, 1824.358 6702.027, 1824.357 6712.027, 1824.357 6722.027, 1824.357 6732.027, 1824.357 6742.027, 1824.357 6752.027, 1824.356 6762.027, 1824.356 6772.027, 1824.356 6782.027, 1824.356 6792.027, 1824.355 6802.027, 1824.355 6812.027, 1824.355 6822.027, 1824.355 6832.027, 1824.354 6842.027, 1824.354 6852.027, 1824.354 6862.027, 1824.354 6872.027, 1824.353 6882.027, 1824.353 6892.027, 1824.353 6902.027, 1824.353 6912.027, 1824.352 6922.027, 1824.352 6932.027, 1824.352 6942.027, 1824.352 6952.027, 1824.351 6962.027, 1824.351 6972.027, 1824.351 6982.027, 1824.351 6992.027, 1824.350 7002.027, 1824.350 7012.027, 1824.350 7022.027, 1824.350 7032.027, 1824.350 7042.027, 1824.349 7052.027, 1824.349 7062.027, 1824.349 7072.027, 1824.349 7082.027, 1824.348 7092.027, 1824.348 7102.027, 1824.348 7112.027, 1824.348 7122.027, 1824.347 7132.027, 1824.347 7142.027, 1824.347 7152.027, 1824.347 7162.027, 1824.346 7178.644, 1824.346 7179.695, 1824.346 7182.840, 1824.346 7183.357, 1824.385 " />
            <path fill="none" stroke-width="3.0" stroke-linecap="butt" stroke-opacity="1.0" stroke="rgb(0, 0, 0)" stroke-linejoin="round" d=" M 5176.729, 23.656 5186.729, 23.656 5196.729, 23.656 5206.729, 23.656 5216.729, 23.656 5226.729, 23.656 5236.729, 23.656 5246.729, 23.656 5256.729, 23.656 5266.729, 23.656 5276.729, 23.656 5286.729, 23.656 5296.729, 23.656 5306.729, 23.656 5316.729, 23.656 5326.729, 23.656 5336.729, 23.657 5346.729, 23.657 5356.729, 23.657 5366.729, 23.657 5376.729, 23.657 5386.729, 23.657 5396.729, 23.657 5406.729, 23.657 5416.729, 23.657 5426.729, 23.657 5436.729, 23.657 5446.729, 23.657 5456.729, 23.657 5466.729, 23.657 5476.729, 23.657 5486.729, 23.658 5496.729, 23.658 5506.729, 23.658 5516.729, 23.658 5526.729, 23.658 5536.729, 23.658 5546.729, 23.658 5556.729, 23.658 5566.729, 23.658 5576.729, 23.658 5586.729, 23.658 5596.729, 23.658 5606.729, 23.658 5616.729, 23.658 5626.729, 23.658 5636.729, 23.659 5646.729, 23.659 5656.729, 23.659 5666.729, 23.659 5676.729, 23.659 5686.729, 23.659 5696.729, 23.659 5711.969, 23.659 " />
            <path fill="none" stroke-width="3.0" stroke-linecap="butt" stroke-opacity="1.0" stroke="rgb(0, 0, 0)" stroke-linejoin="round" d=" M 5788.095, 23.659 5778.095, 23.659 5768.095, 23.659 5758.095, 23.659 5748.095, 23.659 5738.095, 23.659 5728.095, 23.659 5718.095, 23.659 5708.095, 23.659 5698.095, 23.659 5688.095, 23.658 5678.095, 23.658 5668.095, 23.658 5658.095, 23.658 5648.095, 23.658 5638.095, 23.658 5628.095, 23.658 5618.095, 23.658 5608.095, 23.658 5598.095, 23.658 5588.095, 23.658 5578.095, 23.658 5568.095, 23.658 5558.095, 23.658 5548.095, 23.658 5538.095, 23.658 5528.095, 23.658 5518.095, 23.657 5508.095, 23.657 5498.095, 23.657 5488.095, 23.657 5478.095, 23.657 5468.095, 23.657 5458.095, 23.657 5448.095, 23.657 5438.095, 23.657 5428.095, 23.657 5418.095, 23.657 5408.095, 23.657 5398.095, 23.657 5388.095, 23.657 5378.095, 23.657 5368.095, 23.657 5358.095, 23.657 5348.095, 23.656 5338.095, 23.656 5328.095, 23.656 5318.095, 23.656 5308.095, 23.656 5298.095, 23.656 5288.095, 23.656 5278.095, 23.656 5268.095, 23.656 5258.095, 23.656 5248.095, 23.656 5238.095, 23.656 5228.095, 23.656 5218.095, 23.656 5208.095, 23.656 5198.095, 23.656 5188.095, 23.656 5176.729, 23.656 " />
            <path fill="none" stroke-width="3.0" stroke-linecap="butt" stroke-opacity="1.0" stroke="rgb(0, 0, 0)" stroke-linejoin="round" d=" M 5762.312, 23.659 5752.312, 23.659 5742.312, 23.659 5732.312, 23.659 5722.312, 23.659 5712.312, 23.659 5702.312, 23.659 5692.312, 23.659 5682.312, 23.659 5672.312, 23.659 5662.312, 23.658 5652.312, 23.658 5642.312, 23.658 5632.312, 23.658 5622.312, 23.658 5612.312, 23.658 5602.312, 23.658 5592.312, 23.658 5582.312, 23.658 5572.312, 23.658 5562.312, 23.658 5552.312, 23.658 5542.312, 23.658 5532.312, 23.658 5522.312, 23.658 5512.312, 23.658 5502.312, 23.657 5492.312, 23.657 5482.312, 23.657 5472.312, 23.657 5462.312, 23.657 5452.312, 23.657 5442.312, 23.657 5432.312, 23.657 5422.312, 23.657 5412.312, 23.657 5402.312, 23.657 5392.312, 23.657 5382.312, 23.657 5372.312, 23.657 5362.312, 23.657 5352.312, 23.657 5342.312, 23.656 5332.312, 23.656 5322.312, 23.656 5312.312, 23.656 5302.312, 23.656 5292.312, 23.656 5282.312, 23.656 5272.312, 23.656 5262.312, 23.656 5252.312, 23.656 5242.312, 23.656 5232.312, 23.656 5222.312, 23.656 5212.312, 23.656 5202.312, 23.656 5192.312, 23.656 5176.729, 23.656 " />
            <path fill="none" stroke-width="3.0" stroke-linecap="butt" stroke-opacity="1.0" stroke="rgb(0, 0, 0)" stroke-linejoin="round" d=" M 5176.729, 23.656 5186.729, 23.656 5196.729, 23.656 5206.729, 23.656 5216.729, 23.656 5226.729, 23.656 5236.729, 23.656 5246.729, 23.656 5256.729, 23.656 5266.729, 23.656 5276.729, 23.656 5286.729, 23.656 5296.729, 23.656 5306.729, 23.656 5316.729, 23.656 5326.729, 23.656 5336.729, 23.656 5346.729, 23.657 5356.729, 23.657 5366.729, 23.657 5376.729, 23.657 5386.729, 23.657 5396.729, 23.657 5406.729, 23.657 5416.729, 23.657 5426.729, 23.657 5436.729, 23.657 5446.729, 23.657 5456.729, 23.657 5466.729, 23.657 5476.729, 23.657 5486.729, 23.657 5496.729, 23.657 5506.729, 23.658 5516.729, 23.658 5526.730, 23.658 5536.729, 23.658 5546.729, 23.658 5556.729, 23.658 5566.729, 23.658 5576.729, 23.658 5586.729, 23.658 5596.729, 23.658 5606.729, 23.658 5616.730, 23.658 5626.730, 23.658 5636.729, 23.658 5646.729, 23.658 5656.729, 23.658 5666.729, 23.658 5676.729, 23.659 5686.729, 23.659 5696.730, 23.659 5706.730, 23.659 5716.730, 23.659 5726.730, 23.659 5736.729, 23.659 5746.729, 23.659 5758.351, 23.659 " />
            <path fill="none" stroke-width="3.0" stroke-linecap="butt" stroke-opacity="1.0" stroke="rgb(0, 0, 0)" stroke-linejoin="round" d=" M 5906.969, 23.660 5896.969, 23.660 5886.969, 23.660 5876.969, 23.660 5866.969, 23.660 5856.969, 23.659 5846.969, 23.659 5836.969, 23.659 5826.969, 23.659 5816.969, 23.659 5813.319, 23.659 " />
            <path fill="none" stroke-width="3.0" stroke-linecap="butt" stroke-opacity="1.0" stroke="rgb(0, 0, 0)" stroke-linejoin="round" d=" M 5737.382, 23.659 5727.382, 23.659 5717.382, 23.659 5707.382, 23.659 5697.382, 23.659 5687.382, 23.659 5677.382, 23.659 5667.382, 23.659 5657.382, 23.659 5647.382, 23.658 5637.382, 23.658 5627.382, 23.658 5617.382, 23.658 5607.382, 23.658 5597.382, 23.658 5587.382, 23.658 5577.382, 23.658 5567.382, 23.658 5557.382, 23.658 5547.382, 23.658 5537.382, 23.658 5527.382, 23.658 5517.382, 23.658 5507.382, 23.658 5497.382, 23.658 5487.382, 23.657 5477.382, 23.657 5467.382, 23.657 5457.382, 23.657 5447.382, 23.657 5437.382, 23.657 5427.382, 23.657 5417.382, 23.657 5407.382, 23.657 5397.382, 23.657 5387.382, 23.657 5377.382, 23.657 5367.382, 23.657 5357.382, 23.657 5347.382, 23.657 5337.382, 23.656 5327.382, 23.656 5317.382, 23.656 5307.382, 23.656 5297.382, 23.656 5287.382, 23.656 5277.382, 23.656 5267.382, 23.656 5257.382, 23.656 5247.382, 23.656 5237.382, 23.656 5227.382, 23.656 5217.382, 23.656 5207.382, 23.656 5197.382, 23.656 5187.382, 23.656 5176.729, 23.656 5186.729, 23.656 5196.729, 23.656 5206.729, 23.656 5216.729, 23.656 5226.729, 23.656 5236.729, 23.656 5246.729, 23.656 5256.729, 23.656 5266.729, 23.656 5276.729, 23.656 5286.729, 23.656 5296.729, 23.656 5306.729, 23.656 5316.729, 23.656 5326.729, 23.656 5336.729, 23.657 5346.729, 23.657 5356.729, 23.657 5366.729, 23.657 5376.729, 23.657 5386.729, 23.657 5396.729, 23.657 5406.729, 23.657 5416.729, 23.657 5426.729, 23.657 5436.729, 23.657 5446.729, 23.657 5456.729, 23.657 5466.729, 23.657 5476.729, 23.657 5486.729, 23.658 5496.729, 23.658 5506.729, 23.658 5516.729, 23.658 5526.729, 23.658 5536.729, 23.658 5546.729, 23.658 5556.729, 23.658 5566.729, 23.658 5576.729, 23.658 5586.729, 23.658 5596.729, 23.658 5606.729, 23.658 5616.729, 23.658 5626.729, 23.658 5636.729, 23.659 5646.729, 23.659 5656.729, 23.659 5666.729, 23.659 5676.729, 23.659 5686.729, 23.659 5696.729, 23.659 5706.729, 23.659 5720.009, 23.659 " />
            <path fill="none" stroke-width="3.0" stroke-linecap="butt" stroke-opacity="1.0" stroke="rgb(0, 0, 0)" stroke-linejoin="round" d=" M 6883.851, 23.666 6883.850, 23.666 6873.850, 23.666 6863.850, 23.666 6853.850, 23.666 6843.850, 23.666 6833.850, 23.666 6823.850, 23.666 6813.850, 23.666 6803.850, 23.666 6793.850, 23.666 6783.850, 23.666 6773.850, 23.665 6763.850, 23.665 6753.850, 23.665 6743.850, 23.665 6733.850, 23.665 6723.850, 23.665 6713.850, 23.665 6703.850, 23.665 6693.850, 23.665 6683.850, 23.665 6673.850, 23.665 6663.850, 23.665 6653.850, 23.665 6643.850, 23.665 6633.850, 23.665 6623.850, 23.665 6613.850, 23.664 6603.850, 23.664 6593.850, 23.664 6583.850, 23.664 6573.850, 23.664 6563.850, 23.664 6553.850, 23.664 6543.850, 23.664 6533.850, 23.664 6523.850, 23.664 6513.850, 23.664 6503.850, 23.664 6493.850, 23.664 6483.850, 23.664 6473.850, 23.664 6463.850, 23.663 6453.850, 23.663 6443.850, 23.663 6433.850, 23.663 6423.850, 23.663 6413.850, 23.663 6403.850, 23.663 6393.850, 23.663 6383.850, 23.663 6373.850, 23.663 6363.850, 23.663 6353.850, 23.663 6343.850, 23.663 6333.850, 23.663 6323.850, 23.663 6313.850, 23.663 6303.850, 23.662 6293.850, 23.662 6283.850, 23.662 6273.850, 23.662 6263.850, 23.662 6253.850, 23.662 6243.850, 23.662 6233.850, 23.662 6223.850, 23.662 6213.850, 23.662 6203.850, 23.662 6193.850, 23.662 6183.850, 23.662 6173.850, 23.662 6163.850, 23.662 6153.850, 23.662 6143.850, 23.661 6133.850, 23.661 6123.850, 23.661 6106.196, 23.661 " />
            <path fill="none" stroke-width="3.0" stroke-linecap="butt" stroke-opacity="1.0" stroke="rgb(0, 0, 0)" stroke-linejoin="round" d=" M 6883.849, 23.666 6873.849, 23.666 6863.849, 23.666 6853.849, 23.666 6843.849, 23.666 6833.849, 23.666 6823.849, 23.666 6813.849, 23.666 6803.849, 23.666 6793.849, 23.666 6783.849, 23.666 6773.849, 23.665 6763.849, 23.665 6753.849, 23.665 6743.849, 23.665 6733.849, 23.665 6723.849, 23.665 6713.849, 23.665 6703.849, 23.665 6693.849, 23.665 6683.849, 23.665 6673.849, 23.665 6663.849, 23.665 6653.849, 23.665 6643.849, 23.665 6633.849, 23.665 6623.849, 23.665 6613.849, 23.664 6603.849, 23.664 6593.849, 23.664 6583.849, 23.664 6573.849, 23.664 6563.849, 23.664 6553.849, 23.664 6543.849, 23.664 6533.849, 23.664 6523.849, 23.664 6513.849, 23.664 6503.849, 23.664 6493.849, 23.664 6483.849, 23.664 6473.849, 23.664 6463.849, 23.663 6453.849, 23.663 6443.849, 23.663 6433.849, 23.663 6423.849, 23.663 6413.849, 23.663 6403.849, 23.663 6393.849, 23.663 6383.849, 23.663 6373.849, 23.663 6363.849, 23.663 6353.849, 23.663 6343.849, 23.663 6333.849, 23.663 6323.849, 23.663 6313.849, 23.663 6303.849, 23.662 6293.849, 23.662 6283.849, 23.662 6273.849, 23.662 6263.849, 23.662 6253.849, 23.662 6243.849, 23.662 6233.849, 23.662 6223.849, 23.662 6213.849, 23.662 6203.849, 23.662 6193.849, 23.662 6183.849, 23.662 6173.849, 23.662 6163.849, 23.662 6153.849, 23.662 6143.849, 23.661 6133.849, 23.661 6123.849, 23.661 6106.198, 23.661 " />
            <path fill="none" stroke-width="3.0" stroke-linecap="butt" stroke-opacity="1.0" stroke="rgb(0, 0, 0)" stroke-linejoin="round" d=" M 7082.949, 23.667 7072.949, 23.667 7062.949, 23.667 7052.949, 23.667 7042.949, 23.667 7032.949, 23.667 7022.949, 23.667 7012.949, 23.667 7002.949, 23.667 6992.949, 23.667 6982.949, 23.667 6972.949, 23.667 6962.949, 23.667 6952.949, 23.667 6942.949, 23.667 6932.949, 23.667 6922.949, 23.667 6912.949, 23.666 6902.949, 23.666 6892.949, 23.666 6884.479, 23.666 " />
            <path fill="none" stroke-width="3.0" stroke-linecap="butt" stroke-opacity="1.0" stroke="rgb(0, 0, 0)" stroke-linejoin="round" d=" M 1340.512, 693.962 1340.182, 691.332 " />
            <path fill="none" stroke-width="3.0" stroke-linecap="butt" stroke-opacity="1.0" stroke="rgb(0, 0, 0)" stroke-linejoin="round" d=" M 1343.123, 704.218 1342.279, 701.706 " />
            <path fill="none" stroke-width="3.0" stroke-linecap="butt" stroke-opacity="1.0" stroke="rgb(0, 0, 0)" stroke-linejoin="round" d=" M 1344.091, 706.684 1343.123, 704.218 " />
            <path fill="none" stroke-width="3.0" stroke-linecap="butt" stroke-opacity="1.0" stroke="rgb(0, 0, 0)" stroke-linejoin="round" d=" M 1345.181, 709.100 1344.091, 706.684 " />
            <path fill="none" stroke-width="3.0" stroke-linecap="butt" stroke-opacity="1.0" stroke="rgb(0, 0, 0)" stroke-linejoin="round" d=" M 1346.390, 711.458 1345.181, 709.100 " />
            <path fill="none" stroke-width="3.0" stroke-linecap="butt" stroke-opacity="1.0" stroke="rgb(0, 0, 0)" stroke-linejoin="round" d=" M 1347.715, 713.753 1346.390, 711.458 " />
            <path fill="none" stroke-width="3.0" stroke-linecap="butt" stroke-opacity="1.0" stroke="rgb(0, 0, 0)" stroke-linejoin="round" d=" M 1349.152, 715.979 1347.715, 713.753 " />
            <path fill="none" stroke-width="3.0" stroke-linecap="butt" stroke-opacity="1.0" stroke="rgb(0, 0, 0)" stroke-linejoin="round" d=" M 1350.699, 718.130 1349.152, 715.979 " />
            <path fill="none" stroke-width="3.0" stroke-linecap="butt" stroke-opacity="1.0" stroke="rgb(0, 0, 0)" stroke-linejoin="round" d=" M 1359.928, 727.591 1357.898, 725.888 " />
            <path fill="none" stroke-width="3.0" stroke-linecap="butt" stroke-opacity="1.0" stroke="rgb(0, 0, 0)" stroke-linejoin="round" d=" M 1378.670, 737.200 1376.137, 736.419 " />
            <path fill="none" stroke-width="3.0" stroke-linecap="butt" stroke-opacity="1.0" stroke="rgb(0, 0, 0)" stroke-linejoin="round" d=" M 1402.292, 738.379 1399.672, 738.774 " />
            <path fill="none" stroke-width="3.0" stroke-linecap="butt" stroke-opacity="1.0" stroke="rgb(0, 0, 0)" stroke-linejoin="round" d=" M 1412.480, 735.513 1409.990, 736.419 " />
            <path fill="none" stroke-width="3.0" stroke-linecap="butt" stroke-opacity="1.0" stroke="rgb(0, 0, 0)" stroke-linejoin="round" d=" M 1414.922, 734.484 1412.480, 735.513 " />
            <path fill="none" stroke-width="3.0" stroke-linecap="butt" stroke-opacity="1.0" stroke="rgb(0, 0, 0)" stroke-linejoin="round" d=" M 1428.229, 725.888 1426.200, 727.591 " />
            <path fill="none" stroke-width="3.0" stroke-linecap="butt" stroke-opacity="1.0" stroke="rgb(0, 0, 0)" stroke-linejoin="round" d=" M 1430.172, 724.086 1428.229, 725.888 " />
            <path fill="none" stroke-width="3.0" stroke-linecap="butt" stroke-opacity="1.0" stroke="rgb(0, 0, 0)" stroke-linejoin="round" d=" M 1442.036, 706.684 1440.946, 709.100 " />
            <path fill="none" stroke-width="3.0" stroke-linecap="butt" stroke-opacity="1.0" stroke="rgb(0, 0, 0)" stroke-linejoin="round" d=" M 1443.004, 704.218 1442.036, 706.684 " />
            <path fill="none" stroke-width="3.0" stroke-linecap="butt" stroke-opacity="1.0" stroke="rgb(0, 0, 0)" stroke-linejoin="round" d=" M 599.267, 1824.384 609.267, 1824.383 619.267, 1824.383 629.267, 1824.382 639.267, 1824.382 649.267, 1824.381 659.267, 1824.381 669.267, 1824.381 679.267, 1824.380 689.267, 1824.380 699.267, 1824.379 709.267, 1824.379 719.267, 1824.378 729.267, 1824.378 739.267, 1824.377 749.267, 1824.377 759.267, 1824.376 769.267, 1824.376 779.267, 1824.375 789.267, 1824.375 799.267, 1824.374 809.267, 1824.374 819.267, 1824.373 829.267, 1824.373 839.267, 1824.372 849.267, 1824.372 859.267, 1824.371 869.267, 1824.371 879.267, 1824.370 889.267, 1824.370 899.267, 1824.369 909.267, 1824.369 919.267, 1824.368 929.267, 1824.368 939.267, 1824.367 949.267, 1824.367 959.267, 1824.366 969.267, 1824.366 979.267, 1824.366 989.267, 1824.365 999.267, 1824.365 1009.267, 1824.364 1019.267, 1824.364 1029.267, 1824.363 1039.267, 1824.363 1049.267, 1824.362 1059.267, 1824.362 1069.267, 1824.361 1079.267, 1824.361 1089.267, 1824.360 1099.267, 1824.360 1109.267, 1824.359 1119.267, 1824.359 1129.267, 1824.358 1139.267, 1824.358 1149.267, 1824.357 1159.267, 1824.357 1169.267, 1824.356 1179.267, 1824.356 1189.267, 1824.355 1199.267, 1824.355 1209.267, 1824.354 1219.267, 1824.354 1229.267, 1824.353 1239.267, 1824.353 1249.267, 1824.352 1259.267, 1824.352 1269.267, 1824.352 1279.267, 1824.351 1289.267, 1824.351 1299.267, 1824.350 1309.267, 1824.350 1319.267, 1824.349 1329.267, 1824.349 1339.267, 1824.348 1349.267, 1824.348 1359.267, 1824.347 1369.267, 1824.347 1379.267, 1824.346 1389.267, 1824.346 1399.267, 1824.345 1409.267, 1824.345 1419.267, 1824.344 1429.267, 1824.344 1439.267, 1824.343 1449.267, 1824.343 1459.267, 1824.342 1469.267, 1824.342 1479.267, 1824.341 1489.267, 1824.341 1499.267, 1824.340 1509.267, 1824.340 1519.267, 1824.339 1529.267, 1824.339 1539.267, 1824.338 1549.267, 1824.338 1559.267, 1824.338 1569.267, 1824.337 1579.267, 1824.337 1589.267, 1824.336 1599.267, 1824.336 1609.267, 1824.335 1619.267, 1824.335 1629.267, 1824.334 1639.267, 1824.334 1649.267, 1824.333 1659.267, 1824.333 1669.267, 1824.332 1679.267, 1824.332 1689.267, 1824.331 1699.267, 1824.331 1709.267, 1824.330 1719.267, 1824.330 1729.267, 1824.329 1739.267, 1824.329 1749.267, 1824.328 1759.267, 1824.328 1769.267, 1824.327 1779.267, 1824.327 1789.267, 1824.326 1799.267, 1824.326 1809.267, 1824.325 1819.267, 1824.325 1829.267, 1824.324 1839.267, 1824.324 1849.267, 1824.324 1859.267, 1824.323 1876.513, 1824.322 " />
            <path fill="none" stroke-width="3.0" stroke-linecap="butt" stroke-opacity="1.0" stroke="rgb(0, 0, 0)" stroke-linejoin="round" d=" M 1976.189, 23.634 1966.189, 23.634 1956.189, 23.634 1946.189, 23.634 1936.189, 23.633 1926.189, 23.633 1916.189, 23.633 1906.189, 23.633 1896.189, 23.633 1886.189, 23.633 1876.189, 23.633 1866.189, 23.633 1856.189, 23.633 1846.189, 23.633 1836.189, 23.633 1826.189, 23.633 1816.189, 23.633 1806.189, 23.633 1796.189, 23.633 1786.189, 23.633 1776.189, 23.632 1766.189, 23.632 1756.189, 23.632 1746.189, 23.632 1736.189, 23.632 1726.189, 23.632 1716.189, 23.632 1706.189, 23.632 1696.189, 23.632 1686.189, 23.632 1676.189, 23.632 1666.189, 23.632 1656.189, 23.632 1646.189, 23.632 1636.189, 23.632 1626.189, 23.631 1616.189, 23.631 1606.189, 23.631 1596.189, 23.631 1586.189, 23.631 1576.189, 23.631 1566.189, 23.631 1556.189, 23.631 1546.189, 23.631 1536.189, 23.631 1526.189, 23.631 1516.189, 23.631 1506.189, 23.631 1496.189, 23.631 1486.189, 23.631 1476.189, 23.631 1466.189, 23.630 1456.189, 23.630 1446.189, 23.630 1436.189, 23.630 1426.189, 23.630 1416.189, 23.630 1406.189, 23.630 1396.189, 23.630 1386.189, 23.630 1376.189, 23.630 1366.189, 23.630 1356.189, 23.630 1346.189, 23.630 1336.189, 23.630 1326.189, 23.630 1316.189, 23.630 1306.189, 23.630 1296.189, 23.630 1286.300, 23.629 " />
            <path fill="none" stroke-width="3.0" stroke-linecap="butt" stroke-opacity="1.0" stroke="rgb(0, 0, 0)" stroke-linejoin="round" d=" M 1976.189, 23.634 1972.718, 23.634 " />
            <path fill="none" stroke-width="3.0" stroke-linecap="butt" stroke-opacity="1.0" stroke="rgb(0, 0, 0)" stroke-linejoin="round" d=" M 1879.446, 1824.384 1889.446, 1824.380 1899.446, 1824.377 1909.446, 1824.374 1919.446, 1824.370 1929.446, 1824.367 1939.446, 1824.364 1949.446, 1824.360 1959.446, 1824.357 1969.446, 1824.353 1979.446, 1824.350 1989.446, 1824.347 1999.446, 1824.343 2009.446, 1824.340 2019.446, 1824.337 2029.446, 1824.333 2039.446, 1824.330 2049.447, 1824.326 2059.447, 1824.323 2069.447, 1824.320 2079.447, 1824.316 2089.447, 1824.313 2099.447, 1824.309 2109.447, 1824.306 2119.447, 1824.303 2129.447, 1824.299 2136.072, 1824.297 " />
            <path fill="none" stroke-width="3.0" stroke-linecap="butt" stroke-opacity="1.0" stroke="rgb(0, 0, 0)" stroke-linejoin="round" d=" M 2282.867, 23.636 2272.867, 23.636 2262.867, 23.636 2252.867, 23.636 2242.867, 23.635 2232.867, 23.635 2222.867, 23.635 2212.867, 23.635 2202.867, 23.635 2192.867, 23.635 2182.867, 23.635 2172.867, 23.635 2162.867, 23.635 2152.867, 23.635 2142.867, 23.635 2132.867, 23.635 2122.867, 23.635 2112.867, 23.635 2102.867, 23.635 2092.867, 23.635 2082.867, 23.634 2072.867, 23.634 2062.867, 23.634 2052.867, 23.634 2042.867, 23.634 2032.867, 23.634 2022.867, 23.634 2012.867, 23.634 2002.867, 23.634 1992.867, 23.634 1982.867, 23.634 1976.189, 23.634 " />
            <path fill="none" stroke-width="3.0" stroke-linecap="butt" stroke-opacity="1.0" stroke="rgb(0, 0, 0)" stroke-linejoin="round" d=" M 1972.718, 23.634 1962.718, 23.634 1952.718, 23.634 1942.718, 23.634 1932.718, 23.634 1922.718, 23.634 1912.718, 23.634 1902.718, 23.633 1892.718, 23.633 1882.718, 23.633 1872.718, 23.633 1862.718, 23.633 1852.718, 23.633 1842.718, 23.633 1832.718, 23.633 1822.718, 23.633 1812.718, 23.633 1802.718, 23.633 1792.718, 23.633 1782.718, 23.633 1772.718, 23.633 1762.718, 23.633 1752.718, 23.632 1742.718, 23.632 1732.718, 23.632 1722.718, 23.632 1712.718, 23.632 1702.718, 23.632 1692.718, 23.632 1682.718, 23.632 1672.718, 23.632 1662.718, 23.632 1652.718, 23.632 1642.718, 23.632 1632.718, 23.632 1622.718, 23.632 1612.718, 23.632 1602.718, 23.631 1592.718, 23.631 1582.718, 23.631 1572.718, 23.631 1562.718, 23.631 1552.718, 23.631 1542.718, 23.631 1532.718, 23.631 1522.718, 23.631 1512.718, 23.631 1502.718, 23.631 1492.718, 23.631 1482.718, 23.631 1472.718, 23.631 1462.718, 23.631 1452.718, 23.630 1442.718, 23.630 1432.718, 23.630 1422.718, 23.630 1412.718, 23.630 1402.718, 23.630 1392.718, 23.630 1382.718, 23.630 1372.718, 23.630 1362.718, 23.630 1352.718, 23.630 1342.718, 23.630 1332.718, 23.630 1322.718, 23.630 1312.718, 23.630 1302.718, 23.630 1286.300, 23.629 " />
            <path fill="none" stroke-width="3.0" stroke-linecap="butt" stroke-opacity="1.0" stroke="rgb(0, 0, 0)" stroke-linejoin="round" d=" M 5176.729, 23.656 5186.729, 23.656 5196.729, 23.656 5206.729, 23.656 5216.729, 23.656 5226.729, 23.656 5236.729, 23.656 5246.729, 23.656 5256.729, 23.656 5266.729, 23.656 5276.729, 23.656 5286.729, 23.656 5296.729, 23.656 5306.729, 23.656 5316.729, 23.656 5326.729, 23.656 5336.729, 23.657 5346.729, 23.657 5356.729, 23.657 5366.729, 23.657 5376.729, 23.657 5386.729, 23.657 5396.729, 23.657 5406.729, 23.657 5416.729, 23.657 5426.729, 23.657 5436.729, 23.657 5446.729, 23.657 5456.729, 23.657 5466.729, 23.657 5476.729, 23.657 5486.729, 23.658 5496.729, 23.658 5506.729, 23.658 5516.729, 23.658 5526.729, 23.658 5536.729, 23.658 5546.729, 23.658 5556.729, 23.658 5566.729, 23.658 5576.729, 23.658 5586.729, 23.658 5596.729, 23.658 5606.729, 23.658 5616.729, 23.658 5626.729, 23.658 5636.729, 23.659 5646.729, 23.659 5656.729, 23.659 5666.729, 23.659 5676.729, 23.659 5686.729, 23.659 5696.729, 23.659 5706.729, 23.659 5713.923, 23.659 " />
            <path fill="none" stroke-width="3.0" stroke-linecap="butt" stroke-opacity="1.0" stroke="rgb(0, 0, 0)" stroke-linejoin="round" d=" M 5763.360, 23.659 5753.360, 23.659 5743.360, 23.659 5733.360, 23.659 5723.360, 23.659 5713.360, 23.659 5703.360, 23.659 5693.360, 23.659 5683.360, 23.659 5673.360, 23.659 5663.360, 23.658 5653.360, 23.658 5643.360, 23.658 5633.360, 23.658 5623.360, 23.658 5613.360, 23.658 5603.360, 23.658 5593.360, 23.658 5583.360, 23.658 5573.360, 23.658 5563.360, 23.658 5553.360, 23.658 5543.360, 23.658 5533.360, 23.658 5523.360, 23.658 5513.360, 23.658 5503.360, 23.657 5493.360, 23.657 5483.360, 23.657 5473.360, 23.657 5463.360, 23.657 5453.360, 23.657 5443.360, 23.657 5433.360, 23.657 5423.360, 23.657 5413.360, 23.657 5403.360, 23.657 5393.360, 23.657 5383.360, 23.657 5373.360, 23.657 5363.360, 23.657 5353.360, 23.657 5343.360, 23.656 5333.360, 23.656 5323.360, 23.656 5313.360, 23.656 5303.360, 23.656 5293.360, 23.656 5283.360, 23.656 5273.360, 23.656 5263.360, 23.656 5253.360, 23.656 5243.360, 23.656 5233.360, 23.656 5223.360, 23.656 5213.360, 23.656 5203.360, 23.656 5193.360, 23.656 5183.360, 23.656 5176.729, 23.656 " />
            <path fill="none" stroke-width="3.0" stroke-linecap="butt" stroke-opacity="1.0" stroke="rgb(0, 0, 0)" stroke-linejoin="round" d=" M 5176.729, 23.656 5186.729, 23.656 5196.729, 23.656 5206.729, 23.656 5216.729, 23.656 5226.729, 23.656 5236.729, 23.656 5246.729, 23.656 5256.729, 23.656 5266.729, 23.656 5276.729, 23.656 5286.729, 23.656 5296.729, 23.656 5306.729, 23.656 5316.729, 23.656 5326.729, 23.656 5336.729, 23.656 5346.729, 23.656 5356.729, 23.657 5366.729, 23.657 5376.729, 23.657 5386.729, 23.657 5396.729, 23.657 5406.729, 23.657 5416.729, 23.657 5426.729, 23.657 5436.729, 23.657 5446.729, 23.657 5456.729, 23.657 5466.729, 23.657 5476.729, 23.657 5486.729, 23.657 5496.729, 23.657 5506.729, 23.657 5516.729, 23.657 5526.729, 23.658 5536.729, 23.658 5546.729, 23.658 5556.729, 23.658 5566.729, 23.658 5576.729, 23.658 5586.729, 23.658 5596.729, 23.658 5606.729, 23.658 5616.729, 23.658 5626.729, 23.658 5636.729, 23.658 5646.729, 23.658 5656.729, 23.658 5666.729, 23.658 5676.729, 23.658 5686.729, 23.659 5696.729, 23.659 5706.729, 23.659 5716.729, 23.659 5726.729, 23.659 5736.729, 23.659 5746.729, 23.659 5756.729, 23.659 5766.729, 23.659 5777.385, 23.659 " />
            <path fill="none" stroke-width="3.0" stroke-linecap="butt" stroke-opacity="1.0" stroke="rgb(0, 0, 0)" stroke-linejoin="round" d=" M 5785.263, 23.659 5775.263, 23.659 5765.263, 23.659 5755.263, 23.659 5745.263, 23.659 5735.263, 23.659 5725.263, 23.659 5715.263, 23.659 5705.263, 23.659 5695.263, 23.659 5685.263, 23.658 5675.263, 23.658 5665.263, 23.658 5655.263, 23.658 5645.263, 23.658 5635.263, 23.658 5625.263, 23.658 5615.263, 23.658 5605.263, 23.658 5595.263, 23.658 5585.263, 23.658 5575.263, 23.658 5565.263, 23.658 5555.263, 23.658 5545.263, 23.658 5535.263, 23.658 5525.263, 23.658 5515.263, 23.657 5505.263, 23.657 5495.263, 23.657 5485.263, 23.657 5475.263, 23.657 5465.263, 23.657 5455.263, 23.657 5445.263, 23.657 5435.263, 23.657 5425.263, 23.657 5415.263, 23.657 5405.263, 23.657 5395.263, 23.657 5385.263, 23.657 5375.263, 23.657 5365.263, 23.657 5355.263, 23.657 5345.263, 23.656 5335.263, 23.656 5325.263, 23.656 5315.263, 23.656 5305.263, 23.656 5295.263, 23.656 5285.263, 23.656 5275.263, 23.656 5265.263, 23.656 5255.263, 23.656 5245.263, 23.656 5235.263, 23.656 5225.263, 23.656 5215.263, 23.656 5205.263, 23.656 5195.263, 23.656 5185.263, 23.656 5176.729, 23.656 " />
            <path fill="none" stroke-width="3.0" stroke-linecap="butt" stroke-opacity="1.0" stroke="rgb(0, 0, 0)" stroke-linejoin="round" d=" M 6480.601, 23.664 6470.601, 23.664 6460.601, 23.664 6450.601, 23.664 6440.601, 23.664 6430.601, 23.664 6420.601, 23.664 6410.601, 23.663 6400.601, 23.663 6390.601, 23.663 6380.601, 23.663 6370.601, 23.663 6360.601, 23.663 6350.601, 23.663 6340.601, 23.663 6330.601, 23.663 6320.601, 23.663 6310.601, 23.663 6300.601, 23.663 6290.601, 23.663 6280.601, 23.663 6270.601, 23.662 6260.601, 23.662 6250.601, 23.662 6240.601, 23.662 6230.601, 23.662 6220.601, 23.662 6210.601, 23.662 6207.227, 23.662 " />
            <path fill="none" stroke-width="3.0" stroke-linecap="butt" stroke-opacity="1.0" stroke="rgb(0, 0, 0)" stroke-linejoin="round" d=" M 6337.592, 23.663 6347.592, 23.663 6357.592, 23.663 6367.592, 23.663 6377.592, 23.663 6387.592, 23.663 6397.592, 23.663 6407.592, 23.663 6417.592, 23.664 6427.592, 23.664 6437.592, 23.664 6447.592, 23.664 6457.592, 23.664 6467.592, 23.664 6477.592, 23.664 6480.601, 23.664 " />
            <path fill="none" stroke-width="3.0" stroke-linecap="butt" stroke-opacity="1.0" stroke="rgb(0, 0, 0)" stroke-linejoin="round" d=" M 5745.770, 23.659 5735.770, 23.659 5725.770, 23.659 5715.770, 23.659 5705.770, 23.659 5695.770, 23.659 5685.770, 23.659 5675.770, 23.659 5665.770, 23.659 5655.770, 23.658 5645.770, 23.658 5635.770, 23.658 5625.770, 23.658 5615.770, 23.658 5605.770, 23.658 5595.770, 23.658 5585.770, 23.658 5575.770, 23.658 5565.770, 23.658 5555.770, 23.658 5545.770, 23.658 5535.770, 23.658 5525.770, 23.658 5515.770, 23.658 5505.770, 23.658 5495.770, 23.657 5485.770, 23.657 5475.770, 23.657 5465.770, 23.657 5455.770, 23.657 5445.770, 23.657 5435.770, 23.657 5425.770, 23.657 5415.770, 23.657 5405.770, 23.657 5395.770, 23.657 5385.770, 23.657 5375.770, 23.657 5365.770, 23.657 5355.770, 23.657 5345.770, 23.657 5335.770, 23.656 5325.770, 23.656 5315.770, 23.656 5305.770, 23.656 5295.770, 23.656 5285.770, 23.656 5275.770, 23.656 5265.770, 23.656 5255.770, 23.656 5245.770, 23.656 5235.770, 23.656 5225.770, 23.656 5215.770, 23.656 5205.770, 23.656 5195.770, 23.656 5185.770, 23.656 5176.729, 23.656 " />
            <path fill="none" stroke-width="3.0" stroke-linecap="butt" stroke-opacity="1.0" stroke="rgb(0, 0, 0)" stroke-linejoin="round" d=" M 6883.849, 23.666 6883.850, 23.666 " />
            <path fill="none" stroke-width="3.0" stroke-linecap="butt" stroke-opacity="1.0" stroke="rgb(0, 0, 0)" stroke-linejoin="round" d=" M 5745.770, 23.659 5735.770, 23.659 5725.770, 23.659 5715.770, 23.659 5705.770, 23.659 5695.770, 23.659 5685.770, 23.659 5675.770, 23.659 5665.770, 23.659 5655.770, 23.658 5645.770, 23.658 5635.770, 23.658 5625.770, 23.658 5615.770, 23.658 5605.770, 23.658 5595.770, 23.658 5585.770, 23.658 5575.770, 23.658 5565.770, 23.658 5555.770, 23.658 5545.770, 23.658 5535.770, 23.658 5525.770, 23.658 5515.770, 23.658 5505.770, 23.658 5495.770, 23.657 5485.770, 23.657 5475.770, 23.657 5465.770, 23.657 5455.770, 23.657 5445.770, 23.657 5435.770, 23.657 5425.770, 23.657 5415.770, 23.657 5405.770, 23.657 5395.770, 23.657 5385.770, 23.657 5375.770, 23.657 5365.770, 23.657 5355.770, 23.657 5345.770, 23.657 5335.770, 23.656 5325.770, 23.656 5315.770, 23.656 5305.770, 23.656 5295.770, 23.656 5285.770, 23.656 5275.770, 23.656 5265.770, 23.656 5255.770, 23.656 5245.770, 23.656 5235.770, 23.656 5225.770, 23.656 5215.770, 23.656 5205.770, 23.656 5195.770, 23.656 5185.770, 23.656 5176.729, 23.656 " />
            <path fill="none" stroke-width="3.0" stroke-linecap="butt" stroke-opacity="1.0" stroke="rgb(0, 0, 0)" stroke-linejoin="round" d=" M 6886.585, 23.667 6884.479, 23.666 6883.851, 23.666 6883.849, 23.666 " />
            <path fill="none" stroke-width="3.0" stroke-linecap="butt" stroke-opacity="1.0" stroke="rgb(0, 0, 0)" stroke-linejoin="round" d=" M 6455.375, 23.664 6459.121, 23.664 " />
            <path fill="none" stroke-width="3.0" stroke-linecap="butt" stroke-opacity="1.0" stroke="rgb(0, 0, 0)" stroke-linejoin="round" d=" M 6759.122, 23.666 6749.122, 23.665 6739.122, 23.665 6729.122, 23.665 6719.122, 23.665 6709.122, 23.665 6699.122, 23.665 6689.122, 23.665 6679.122, 23.665 6669.344, 23.665 6659.344, 23.665 6649.344, 23.665 6639.344, 23.665 6629.344, 23.665 6619.344, 23.665 6609.344, 23.665 6599.344, 23.664 6589.344, 23.664 6579.344, 23.664 6569.344, 23.664 6559.344, 23.664 6549.344, 23.664 6539.344, 23.664 6529.344, 23.664 6519.344, 23.664 6509.344, 23.664 6499.344, 23.664 6489.344, 23.664 6479.344, 23.664 6469.344, 23.664 6459.344, 23.664 6449.344, 23.664 6439.344, 23.663 6429.344, 23.663 6419.344, 23.663 6409.344, 23.663 6399.344, 23.663 6389.344, 23.663 6379.344, 23.663 6369.344, 23.663 6359.344, 23.663 6349.344, 23.663 6339.344, 23.663 6329.344, 23.663 6319.344, 23.663 6309.344, 23.663 6299.344, 23.663 6289.344, 23.662 6279.344, 23.662 6269.344, 23.662 6259.344, 23.662 6249.344, 23.662 6239.344, 23.662 6229.344, 23.662 6219.344, 23.662 6209.344, 23.662 6199.344, 23.662 6189.344, 23.662 6179.344, 23.662 6168.573, 23.662 " />
        </g>
    </g>
<g id="slice-labels"><text x="541.318857142857" y="473.815" text-anchor="middle" dominant-baseline="middle" font-family="Arial, sans-serif" font-size="59.050899852156476" font-weight="bold" fill="black" stroke="none" stroke-width="7.086107982258777" paint-order="stroke fill">Slice32 (Front)</text><text x="1575.7125714285712" y="473.815" text-anchor="middle" dominant-baseline="middle" font-family="Arial, sans-serif" font-size="59.050899852156476" font-weight="bold" fill="black" stroke="none" stroke-width="7.086107982258777" paint-order="stroke fill">Slice32 (Front)</text><text x="2610.1062857142856" y="473.815" text-anchor="middle" dominant-baseline="middle" font-family="Arial, sans-serif" font-size="59.050899852156476" font-weight="bold" fill="black" stroke="none" stroke-width="7.086107982258777" paint-order="stroke fill">Slice32 (Front)</text><text x="3644.4999999999995" y="473.815" text-anchor="middle" dominant-baseline="middle" font-family="Arial, sans-serif" font-size="59.050899852156476" font-weight="bold" fill="black" stroke="none" stroke-width="7.086107982258777" paint-order="stroke fill">Slice32 (Front)</text><text x="4678.893714285715" y="473.815" text-anchor="middle" dominant-baseline="middle" font-family="Arial, sans-serif" font-size="59.050899852156476" font-weight="bold" fill="black" stroke="none" stroke-width="7.086107982258777" paint-order="stroke fill">Slice32 (Front)</text><text x="5713.287428571428" y="473.815" text-anchor="middle" dominant-baseline="middle" font-family="Arial, sans-serif" font-size="59.050899852156476" font-weight="bold" fill="black" stroke="none" stroke-width="7.086107982258777" paint-order="stroke fill">Slice32 (Front)</text><text x="6747.681142857143" y="473.815" text-anchor="middle" dominant-baseline="middle" font-family="Arial, sans-serif" font-size="59.050899852156476" font-weight="bold" fill="black" stroke="none" stroke-width="7.086107982258777" paint-order="stroke fill">Slice32 (Front)</text><text x="541.318857142857" y="1374.195" text-anchor="middle" dominant-baseline="middle" font-family="Arial, sans-serif" font-size="59.050899852156476" font-weight="bold" fill="black" stroke="none" stroke-width="7.086107982258777" paint-order="stroke fill">Slice32 (Front)</text><text x="1575.7125714285712" y="1374.195" text-anchor="middle" dominant-baseline="middle" font-family="Arial, sans-serif" font-size="59.050899852156476" font-weight="bold" fill="black" stroke="none" stroke-width="7.086107982258777" paint-order="stroke fill">Slice32 (Front)</text><text x="2610.1062857142856" y="1374.195" text-anchor="middle" dominant-baseline="middle" font-family="Arial, sans-serif" font-size="59.050899852156476" font-weight="bold" fill="black" stroke="none" stroke-width="7.086107982258777" paint-order="stroke fill">Slice32 (Front)</text><text x="3644.4999999999995" y="1374.195" text-anchor="middle" dominant-baseline="middle" font-family="Arial, sans-serif" font-size="59.050899852156476" font-weight="bold" fill="black" stroke="none" stroke-width="7.086107982258777" paint-order="stroke fill">Slice32 (Front)</text><text x="4678.893714285715" y="1374.195" text-anchor="middle" dominant-baseline="middle" font-family="Arial, sans-serif" font-size="59.050899852156476" font-weight="bold" fill="black" stroke="none" stroke-width="7.086107982258777" paint-order="stroke fill">Slice32 (Front)</text><text x="5713.287428571428" y="1374.195" text-anchor="middle" dominant-baseline="middle" font-family="Arial, sans-serif" font-size="59.050899852156476" font-weight="bold" fill="black" stroke="none" stroke-width="7.086107982258777" paint-order="stroke fill">Slice32 (Front)</text><text x="6747.681142857143" y="1374.195" text-anchor="middle" dominant-baseline="middle" font-family="Arial, sans-serif" font-size="59.050899852156476" font-weight="bold" fill="black" stroke="none" stroke-width="7.086107982258777" paint-order="stroke fill">Slice32 (Front)</text></g></svg>