<?xml version='1.0' encoding='utf-8'?>
<svg xmlns="http://www.w3.org/2000/svg" xmlns:inkscape="http://www.inkscape.org/namespaces/inkscape" version="1.1" width="617.0946427583694mm" height="156.4752378463745mm" viewBox="0.5116468113856953 0.005653176021361617 7287.996706377229 1847.9996936479572" preserveAspectRatio="none">
    <g id="ViewLayer_LineSet" inkscape:groupmode="lineset" inkscape:label="ViewLayer_LineSet">
        <g inkscape:groupmode="layer" id="strokes" inkscape:label="strokes">
            <path fill="none" stroke-width="3.0" stroke-linecap="butt" stroke-opacity="1.0" stroke="rgb(0, 0, 0)" stroke-linejoin="round" d=" M 5933.055, 647.996 5934.905, 649.893 " />
            <path fill="none" stroke-width="3.0" stroke-linecap="butt" stroke-opacity="1.0" stroke="rgb(0, 0, 0)" stroke-linejoin="round" d=" M 5931.112, 646.193 5933.055, 647.996 " />
            <path fill="none" stroke-width="3.0" stroke-linecap="butt" stroke-opacity="1.0" stroke="rgb(0, 0, 0)" stroke-linejoin="round" d=" M 5934.905, 649.893 5936.659, 651.880 " />
            <path fill="none" stroke-width="3.0" stroke-linecap="butt" stroke-opacity="1.0" stroke="rgb(0, 0, 0)" stroke-linejoin="round" d=" M 5894.622, 632.912 5897.272, 632.912 5899.918, 633.043 5902.555, 633.307 5905.175, 633.702 5907.773, 634.228 5910.341, 634.882 5912.873, 635.663 5915.363, 636.569 5917.805, 637.599 5920.192, 638.748 5922.520, 640.016 5924.781, 641.398 5926.970, 642.890 5929.083, 644.490 5931.112, 646.193 " />
            <path fill="none" stroke-width="3.0" stroke-linecap="butt" stroke-opacity="1.0" stroke="rgb(0, 0, 0)" stroke-linejoin="round" d=" M 5936.659, 651.880 5938.311, 653.952 " />
            <path fill="none" stroke-width="3.0" stroke-linecap="butt" stroke-opacity="1.0" stroke="rgb(0, 0, 0)" stroke-linejoin="round" d=" M 5938.311, 653.952 5939.858, 656.103 " />
            <path fill="none" stroke-width="3.0" stroke-linecap="butt" stroke-opacity="1.0" stroke="rgb(0, 0, 0)" stroke-linejoin="round" d=" M 5939.858, 656.103 5941.295, 658.329 5942.620, 660.625 5943.830, 662.982 5944.919, 665.398 5945.887, 667.865 5946.731, 670.376 " />
            <path fill="none" stroke-width="3.0" stroke-linecap="butt" stroke-opacity="1.0" stroke="rgb(0, 0, 0)" stroke-linejoin="round" d=" M 7102.039, 1206.632 7098.272, 1197.369 7094.506, 1188.105 7090.740, 1178.842 7086.973, 1169.578 7083.207, 1160.314 7079.440, 1151.051 7075.674, 1141.787 7071.908, 1132.524 7068.141, 1123.260 7064.375, 1113.996 7060.608, 1104.733 7056.842, 1095.469 7053.076, 1086.206 7049.309, 1076.942 7045.543, 1067.679 7041.776, 1058.415 7038.010, 1049.151 7034.244, 1039.888 7030.477, 1030.624 7026.711, 1021.361 7022.944, 1012.097 7019.178, 1002.833 7015.412, 993.570 7011.645, 984.306 7007.879, 975.043 7004.112, 965.779 7000.346, 956.515 6996.580, 947.252 6992.813, 937.988 6989.047, 928.725 6985.280, 919.461 6981.514, 910.197 6977.748, 900.934 6973.981, 891.670 6970.215, 882.407 6966.448, 873.143 6962.682, 863.879 6958.916, 854.616 6955.149, 845.352 6951.383, 836.089 6947.616, 826.825 6943.850, 817.561 6940.083, 808.298 6936.317, 799.034 6932.551, 789.771 6928.784, 780.507 6925.018, 771.243 6921.251, 761.980 6917.485, 752.716 6913.719, 743.453 6909.952, 734.189 6906.632, 726.024 6904.454, 716.264 6902.275, 706.505 6900.097, 696.745 6897.918, 686.985 6895.740, 677.225 6893.561, 667.465 6891.383, 657.706 6889.204, 647.946 6887.025, 638.186 6884.847, 628.426 6882.515, 617.979 6878.551, 608.798 6874.587, 599.618 6870.623, 590.437 6866.658, 581.256 6862.694, 572.076 6858.730, 562.895 6854.766, 553.714 6850.802, 544.533 6846.837, 535.353 6842.874, 526.172 6838.909, 516.991 6834.945, 507.811 6830.981, 498.630 6827.017, 489.449 6823.052, 480.269 6819.088, 471.088 6815.124, 461.907 6811.160, 452.726 6807.196, 443.546 6803.231, 434.365 6799.268, 425.184 6795.303, 416.004 6791.339, 406.823 6787.375, 397.642 6783.411, 388.462 6779.447, 379.281 6775.482, 370.100 6771.518, 360.919 6767.554, 351.739 6763.590, 342.558 6759.625, 333.377 6755.662, 324.197 6751.697, 315.016 6747.733, 305.835 6743.769, 296.654 6739.805, 287.474 6735.841, 278.293 6731.876, 269.112 6727.912, 259.932 6723.948, 250.751 6719.984, 241.570 6716.020, 232.390 6711.162, 221.139 6708.044, 211.638 6704.926, 202.136 6701.808, 192.635 6698.690, 183.133 6695.572, 173.632 6692.454, 164.130 6689.335, 154.629 6686.217, 145.128 6683.100, 135.626 6679.981, 126.125 6676.863, 116.623 6673.745, 107.122 6670.627, 97.620 6667.509, 88.119 6664.391, 78.617 6661.273, 69.116 6658.155, 59.615 6655.037, 50.113 6651.918, 40.612 6648.801, 31.110 6646.345, 23.626 " />
            <path fill="none" stroke-width="3.0" stroke-linecap="butt" stroke-opacity="1.0" stroke="rgb(0, 0, 0)" stroke-linejoin="round" d=" M 6417.069, 23.719 6416.249, 23.719 6415.437, 23.719 " />
            <path fill="none" stroke-width="3.0" stroke-linecap="butt" stroke-opacity="1.0" stroke="rgb(0, 0, 0)" stroke-linejoin="round" d=" M 5946.731, 670.376 5947.449, 672.927 5948.039, 675.510 5948.499, 678.120 5948.829, 680.750 5949.026, 683.392 5949.092, 686.041 " />
            <path fill="none" stroke-width="3.0" stroke-linecap="butt" stroke-opacity="1.0" stroke="rgb(0, 0, 0)" stroke-linejoin="round" d=" M 6413.077, 23.719 6412.323, 23.718 6411.589, 23.718 6410.878, 23.718 6410.192, 23.718 6409.533, 23.718 " />
            <path fill="none" stroke-width="3.0" stroke-linecap="butt" stroke-opacity="1.0" stroke="rgb(0, 0, 0)" stroke-linejoin="round" d=" M 5874.088, 637.599 5876.530, 636.569 5879.021, 635.663 5881.553, 634.882 5884.121, 634.228 5886.718, 633.702 5889.338, 633.307 5891.975, 633.043 5894.622, 632.912 " />
            <path fill="none" stroke-width="3.0" stroke-linecap="butt" stroke-opacity="1.0" stroke="rgb(0, 0, 0)" stroke-linejoin="round" d=" M 5949.092, 686.041 5949.026, 688.690 5948.829, 691.333 5948.499, 693.963 5948.039, 696.572 " />
            <path fill="none" stroke-width="3.0" stroke-linecap="butt" stroke-opacity="1.0" stroke="rgb(0, 0, 0)" stroke-linejoin="round" d=" M 6409.533, 23.718 6408.903, 23.718 6408.302, 23.718 6407.734, 23.717 6407.188, 23.704 6397.188, 23.700 6387.188, 23.696 6377.188, 23.692 6367.188, 23.689 6357.188, 23.685 6347.188, 23.681 6337.188, 23.677 6327.188, 23.673 6317.188, 23.669 6307.188, 23.665 6297.188, 23.661 6287.188, 23.657 6277.188, 23.654 6267.188, 23.650 6257.188, 23.646 6247.188, 23.642 6237.188, 23.638 6227.188, 23.634 6217.188, 23.630 6213.685, 23.629 6213.685, 23.629 6212.613, 23.629 6202.613, 23.629 6192.613, 23.629 6182.613, 23.629 6172.613, 23.629 6162.613, 23.629 6152.613, 23.629 6142.613, 23.629 6132.613, 23.629 6122.613, 23.629 6112.613, 23.629 6102.613, 23.630 6092.613, 23.630 6082.613, 23.630 6072.613, 23.630 6062.614, 23.630 6052.614, 23.630 6042.614, 23.630 6032.614, 23.630 6022.614, 23.630 6012.614, 23.630 6002.710, 23.630 " />
            <path fill="none" stroke-width="3.0" stroke-linecap="butt" stroke-opacity="1.0" stroke="rgb(0, 0, 0)" stroke-linejoin="round" d=" M 5948.039, 696.572 5947.449, 699.156 5946.731, 701.707 5945.887, 704.218 5944.919, 706.685 5943.830, 709.101 " />
            <path fill="none" stroke-width="3.0" stroke-linecap="butt" stroke-opacity="1.0" stroke="rgb(0, 0, 0)" stroke-linejoin="round" d=" M 5943.830, 709.101 5942.620, 711.458 5941.295, 713.754 5939.858, 715.980 5938.311, 718.131 5936.659, 720.203 5934.905, 722.189 " />
            <path fill="none" stroke-width="3.0" stroke-linecap="butt" stroke-opacity="1.0" stroke="rgb(0, 0, 0)" stroke-linejoin="round" d=" M 5933.055, 724.087 5931.112, 725.889 5929.083, 727.592 5926.970, 729.193 " />
            <path fill="none" stroke-width="3.0" stroke-linecap="butt" stroke-opacity="1.0" stroke="rgb(0, 0, 0)" stroke-linejoin="round" d=" M 5924.781, 730.685 5922.520, 732.067 5920.192, 733.335 5917.805, 734.484 5915.363, 735.513 5912.873, 736.419 5910.341, 737.201 5907.773, 737.855 " />
            <path fill="none" stroke-width="3.0" stroke-linecap="butt" stroke-opacity="1.0" stroke="rgb(0, 0, 0)" stroke-linejoin="round" d=" M 5006.563, 23.636 5006.143, 23.636 " />
            <path fill="none" stroke-width="3.0" stroke-linecap="butt" stroke-opacity="1.0" stroke="rgb(0, 0, 0)" stroke-linejoin="round" d=" M 5006.143, 23.636 5005.495, 23.636 5004.389, 23.636 5003.249, 23.636 5002.077, 23.636 5000.878, 23.636 4999.655, 23.636 4998.411, 23.636 4988.411, 23.637 4978.411, 23.637 4968.411, 23.637 4958.411, 23.637 4948.411, 23.637 4938.411, 23.637 4928.411, 23.637 4918.411, 23.637 4908.411, 23.637 4898.411, 23.637 4888.411, 23.637 4878.411, 23.637 4868.411, 23.637 4858.411, 23.638 4848.411, 23.638 4838.411, 23.638 4828.411, 23.638 4818.411, 23.638 4808.411, 23.638 4798.411, 23.638 4788.411, 23.638 4778.411, 23.638 4768.411, 23.638 4758.411, 23.638 4748.411, 23.638 4738.411, 23.638 4728.411, 23.638 4718.411, 23.639 4708.411, 23.639 4699.465, 23.639 4701.599, 33.408 4703.733, 43.178 4705.867, 52.948 4708.001, 62.717 4710.136, 72.487 4712.270, 82.256 4714.404, 92.026 4716.538, 101.796 4718.672, 111.565 4720.806, 121.335 4722.940, 131.105 4725.074, 140.874 4727.208, 150.644 4729.342, 160.413 4731.477, 170.183 4733.610, 179.953 4735.745, 189.722 4737.879, 199.492 4740.013, 209.262 4742.147, 219.031 4744.281, 228.801 4746.415, 238.570 4748.549, 248.340 4750.684, 258.110 4752.817, 267.879 4754.952, 277.649 4757.085, 287.419 4759.220, 297.188 4761.354, 306.958 4763.488, 316.728 4765.622, 326.497 4767.756, 336.267 4769.890, 346.036 4772.024, 355.806 4774.158, 365.576 4776.292, 375.345 4778.427, 385.115 4780.561, 394.885 4782.695, 404.654 4784.829, 414.424 4786.963, 424.193 4789.097, 433.963 4791.231, 443.733 4793.365, 453.502 4795.500, 463.272 4797.633, 473.042 4799.768, 482.811 4801.902, 492.581 4804.036, 502.350 4806.170, 512.120 4808.304, 521.890 4810.438, 531.659 4812.572, 541.429 4813.847, 547.263 " />
            <path fill="none" stroke-width="3.0" stroke-linecap="butt" stroke-opacity="1.0" stroke="rgb(0, 0, 0)" stroke-linejoin="round" d=" M 5852.036, 656.103 5853.583, 653.952 5855.235, 651.880 5856.988, 649.893 5858.838, 647.996 5860.781, 646.193 5862.811, 644.490 5864.923, 642.890 5867.113, 641.398 5869.374, 640.016 5871.701, 638.748 5874.088, 637.599 " />
            <path fill="none" stroke-width="3.0" stroke-linecap="butt" stroke-opacity="1.0" stroke="rgb(0, 0, 0)" stroke-linejoin="round" d=" M 5843.854, 696.572 5843.395, 693.963 5843.065, 691.333 5842.867, 688.690 5842.801, 686.041 5842.867, 683.392 5843.065, 680.750 5843.395, 678.120 5843.854, 675.510 5844.444, 672.927 5845.162, 670.376 5846.006, 667.865 " />
            <path fill="none" stroke-width="3.0" stroke-linecap="butt" stroke-opacity="1.0" stroke="rgb(0, 0, 0)" stroke-linejoin="round" d=" M 5846.006, 667.865 5846.974, 665.398 5848.064, 662.982 5849.273, 660.625 5850.598, 658.329 5852.036, 656.103 " />
            <path fill="none" stroke-width="3.0" stroke-linecap="butt" stroke-opacity="1.0" stroke="rgb(0, 0, 0)" stroke-linejoin="round" d=" M 4813.847, 547.263 4815.674, 557.095 4817.501, 566.927 4819.328, 576.758 4821.155, 586.590 4822.982, 596.422 4824.809, 606.253 4826.636, 616.085 4828.463, 625.917 4830.291, 635.748 4832.118, 645.580 4833.945, 655.412 4835.772, 665.243 4837.599, 675.075 4839.426, 684.907 4841.253, 694.738 4843.081, 704.570 4844.908, 714.402 4846.735, 724.233 4848.562, 734.065 4850.389, 743.897 4852.216, 753.728 4854.043, 763.560 4855.870, 773.392 4857.697, 783.223 4859.524, 793.055 4861.352, 802.887 4863.179, 812.718 4865.006, 822.550 4866.833, 832.382 4868.660, 842.213 4870.487, 852.045 4872.314, 861.877 4874.141, 871.708 4875.968, 881.540 4877.795, 891.372 4879.623, 901.203 4881.450, 911.035 4883.277, 920.867 4885.104, 930.698 4886.931, 940.530 4888.758, 950.362 4890.585, 960.193 4892.413, 970.025 4894.240, 979.857 4896.067, 989.688 4897.894, 999.520 4899.721, 1009.352 4901.548, 1019.183 4903.375, 1029.015 4905.202, 1038.847 4907.029, 1048.678 4908.856, 1058.510 4910.684, 1068.342 4912.511, 1078.173 4914.338, 1088.005 4916.165, 1097.837 4917.992, 1107.668 4919.819, 1117.500 4921.646, 1127.332 4923.473, 1137.163 4925.300, 1146.995 4927.127, 1156.827 4929.545, 1169.835 " />
            <path fill="none" stroke-width="3.0" stroke-linecap="butt" stroke-opacity="1.0" stroke="rgb(0, 0, 0)" stroke-linejoin="round" d=" M 5846.006, 704.218 5845.162, 701.707 5844.444, 699.156 5843.854, 696.572 " />
            <path fill="none" stroke-width="3.0" stroke-linecap="butt" stroke-opacity="1.0" stroke="rgb(0, 0, 0)" stroke-linejoin="round" d=" M 5860.781, 725.889 5858.838, 724.087 5856.988, 722.189 5855.235, 720.203 5853.583, 718.131 5852.036, 715.980 5850.598, 713.754 5849.273, 711.458 5848.064, 709.101 " />
            <path fill="none" stroke-width="3.0" stroke-linecap="butt" stroke-opacity="1.0" stroke="rgb(0, 0, 0)" stroke-linejoin="round" d=" M 5871.701, 733.335 5869.374, 732.067 5867.113, 730.685 5864.923, 729.193 5862.811, 727.592 " />
            <path fill="none" stroke-width="3.0" stroke-linecap="butt" stroke-opacity="1.0" stroke="rgb(0, 0, 0)" stroke-linejoin="round" d=" M 5886.718, 738.380 5884.121, 737.855 5881.553, 737.201 5879.021, 736.419 5876.530, 735.513 5874.088, 734.484 " />
            <path fill="none" stroke-width="3.0" stroke-linecap="butt" stroke-opacity="1.0" stroke="rgb(0, 0, 0)" stroke-linejoin="round" d=" M 4996.655, 1824.385 5006.655, 1824.385 5016.655, 1824.385 5026.655, 1824.385 5036.655, 1824.385 5046.655, 1824.385 5056.655, 1824.385 5066.655, 1824.385 5076.655, 1824.385 5086.655, 1824.385 5096.655, 1824.385 5106.655, 1824.385 5116.655, 1824.385 5126.655, 1824.385 5136.655, 1824.385 5146.655, 1824.385 5151.489, 1824.385 " />
            <path fill="none" stroke-width="3.0" stroke-linecap="butt" stroke-opacity="1.0" stroke="rgb(0, 0, 0)" stroke-linejoin="round" d=" M 5905.175, 738.380 5902.555, 738.775 5899.918, 739.038 5897.272, 739.170 5894.622, 739.170 5891.975, 739.038 5889.338, 738.775 5886.718, 738.380 " />
            <path fill="none" stroke-width="3.0" stroke-linecap="butt" stroke-opacity="1.0" stroke="rgb(0, 0, 0)" stroke-linejoin="round" d=" M 5151.489, 1824.385 5151.912, 1824.287 5151.912, 1824.287 5152.260, 1824.287 5152.598, 1824.287 5152.938, 1824.298 " />
            <path fill="none" stroke-width="3.0" stroke-linecap="butt" stroke-opacity="1.0" stroke="rgb(0, 0, 0)" stroke-linejoin="round" d=" M 5412.498, 1824.323 5422.498, 1824.323 5432.498, 1824.324 5442.498, 1824.324 5452.498, 1824.325 5462.498, 1824.325 5472.498, 1824.326 5482.498, 1824.326 5492.498, 1824.327 5502.498, 1824.327 5512.498, 1824.328 5522.498, 1824.328 5532.498, 1824.329 5542.498, 1824.329 5552.498, 1824.330 5562.498, 1824.330 5572.498, 1824.331 5582.498, 1824.331 5592.498, 1824.332 5602.498, 1824.332 5612.498, 1824.333 5622.498, 1824.333 5632.498, 1824.334 5642.498, 1824.334 5652.498, 1824.334 5662.498, 1824.335 5672.498, 1824.335 5682.498, 1824.336 5692.498, 1824.336 5702.498, 1824.337 5712.498, 1824.337 5722.498, 1824.338 5732.498, 1824.338 5742.498, 1824.339 5752.498, 1824.339 5762.498, 1824.340 5772.498, 1824.340 5782.498, 1824.341 5792.498, 1824.341 5802.498, 1824.342 5812.498, 1824.342 5822.498, 1824.343 5832.498, 1824.343 5842.498, 1824.344 5852.498, 1824.344 5862.498, 1824.345 5872.498, 1824.345 5882.498, 1824.346 5892.498, 1824.346 5902.498, 1824.347 5912.498, 1824.347 5922.498, 1824.348 5932.498, 1824.348 5942.498, 1824.348 5952.498, 1824.349 5962.498, 1824.349 5972.498, 1824.350 5982.498, 1824.350 5992.498, 1824.351 6002.498, 1824.351 6012.498, 1824.352 6022.498, 1824.352 6032.498, 1824.353 6042.498, 1824.353 6052.498, 1824.354 6062.498, 1824.354 6072.498, 1824.355 6082.498, 1824.355 6092.498, 1824.356 6102.498, 1824.356 6112.498, 1824.357 6122.498, 1824.357 6132.498, 1824.358 6142.498, 1824.358 6152.498, 1824.359 6162.498, 1824.359 6172.498, 1824.360 6182.498, 1824.360 6192.498, 1824.361 6202.498, 1824.361 6212.498, 1824.362 6222.498, 1824.362 6232.498, 1824.363 6242.498, 1824.363 6252.498, 1824.363 6262.498, 1824.364 6272.498, 1824.364 6282.498, 1824.365 6292.498, 1824.365 6302.498, 1824.366 6312.498, 1824.366 6322.498, 1824.367 6332.498, 1824.367 6342.498, 1824.368 6352.498, 1824.368 6362.498, 1824.369 6372.498, 1824.369 6382.498, 1824.370 6392.498, 1824.370 6402.498, 1824.371 6412.498, 1824.371 6422.498, 1824.372 6432.498, 1824.372 6442.498, 1824.373 6452.498, 1824.373 6462.498, 1824.374 6472.498, 1824.374 6482.498, 1824.375 6492.498, 1824.375 6502.498, 1824.376 6512.498, 1824.376 6522.498, 1824.377 6532.498, 1824.377 6542.498, 1824.377 6552.498, 1824.378 6562.498, 1824.378 6572.498, 1824.379 6582.498, 1824.379 6592.498, 1824.380 6602.498, 1824.380 6612.498, 1824.381 6622.498, 1824.381 6632.498, 1824.382 6642.498, 1824.382 6652.498, 1824.383 6662.498, 1824.383 6672.498, 1824.384 6689.744, 1824.385 6699.744, 1824.385 6709.744, 1824.385 6719.744, 1824.385 6729.744, 1824.385 6739.744, 1824.385 6749.744, 1824.385 6759.744, 1824.385 6769.744, 1824.385 6779.744, 1824.385 6789.744, 1824.385 6799.744, 1824.385 6809.744, 1824.385 6819.744, 1824.385 6829.744, 1824.385 6839.744, 1824.385 6849.744, 1824.385 6859.744, 1824.385 6869.744, 1824.385 6879.744, 1824.385 6882.782, 1824.385 6892.782, 1824.385 6902.782, 1824.385 6912.782, 1824.385 6922.782, 1824.385 6932.782, 1824.385 6942.782, 1824.385 6952.782, 1824.385 6962.782, 1824.385 6972.782, 1824.385 6982.782, 1824.385 6992.782, 1824.385 7002.782, 1824.385 7012.782, 1824.385 7022.782, 1824.385 7032.782, 1824.385 7042.782, 1824.385 7052.782, 1824.385 7062.782, 1824.385 7072.782, 1824.385 7082.782, 1824.385 7092.782, 1824.385 7102.782, 1824.385 7112.782, 1824.385 7122.782, 1824.385 7132.782, 1824.385 7142.782, 1824.385 7152.782, 1824.385 7162.782, 1824.385 7172.782, 1824.385 7182.782, 1824.385 7192.782, 1824.385 7202.782, 1824.385 7212.782, 1824.385 7222.782, 1824.385 7232.782, 1824.385 7242.782, 1824.385 7252.782, 1824.385 7264.888, 1824.385 " />
            <path fill="none" stroke-width="3.0" stroke-linecap="butt" stroke-opacity="1.0" stroke="rgb(0, 0, 0)" stroke-linejoin="round" d=" M 5152.938, 1824.298 5162.938, 1824.301 5172.938, 1824.305 5182.938, 1824.308 5192.938, 1824.311 5202.938, 1824.315 5212.938, 1824.318 5222.938, 1824.321 5232.938, 1824.325 5242.938, 1824.328 5252.938, 1824.332 5262.938, 1824.335 5272.938, 1824.338 5282.938, 1824.342 5292.938, 1824.345 5302.938, 1824.349 5312.938, 1824.352 5322.938, 1824.355 5332.938, 1824.359 5342.938, 1824.362 5352.938, 1824.365 5362.938, 1824.369 5372.938, 1824.372 5382.938, 1824.376 5392.938, 1824.379 5402.938, 1824.382 5409.564, 1824.385 " />
            <path fill="none" stroke-width="3.0" stroke-linecap="butt" stroke-opacity="1.0" stroke="rgb(0, 0, 0)" stroke-linejoin="round" d=" M 5409.564, 1824.385 5410.353, 1824.277 " />
            <path fill="none" stroke-width="3.0" stroke-linecap="butt" stroke-opacity="1.0" stroke="rgb(0, 0, 0)" stroke-linejoin="round" d=" M 5410.353, 1824.277 5411.073, 1824.277 " />
            <path fill="none" stroke-width="3.0" stroke-linecap="butt" stroke-opacity="1.0" stroke="rgb(0, 0, 0)" stroke-linejoin="round" d=" M 5411.073, 1824.277 5411.771, 1824.277 " />
            <path fill="none" stroke-width="3.0" stroke-linecap="butt" stroke-opacity="1.0" stroke="rgb(0, 0, 0)" stroke-linejoin="round" d=" M 1575.087, 23.660 1571.783, 23.660 1569.001, 23.660 1568.446, 23.660 1565.087, 23.660 1561.713, 23.660 1558.336, 23.660 1554.965, 23.660 1551.628, 23.660 1551.611, 23.660 1548.286, 23.660 1544.999, 23.660 1543.241, 23.660 1543.240, 23.660 1541.761, 23.660 1538.584, 23.660 1535.479, 23.660 1532.456, 23.660 1530.659, 23.660 1529.526, 23.660 1526.699, 23.660 " />
            <path fill="none" stroke-width="3.0" stroke-linecap="butt" stroke-opacity="1.0" stroke="rgb(0, 0, 0)" stroke-linejoin="round" d=" M 1028.834, 339.003 1031.353, 341.585 1033.739, 344.289 1035.988, 347.109 1038.093, 350.038 1040.050, 353.068 1041.854, 356.192 1043.499, 359.401 1044.983, 362.688 1046.300, 366.046 1047.449, 369.465 1048.426, 372.937 1049.229, 376.453 1049.855, 380.006 1050.304, 383.584 1050.573, 387.181 1050.663, 390.787 1050.573, 394.393 1050.304, 397.989 1049.855, 401.568 1049.229, 405.121 1048.426, 408.637 1047.449, 412.109 1046.300, 415.528 1044.983, 418.885 1043.499, 422.173 1041.854, 425.382 1040.050, 428.506 1038.093, 431.536 1035.988, 434.464 1033.739, 437.284 1031.353, 439.989 1028.834, 442.571 1026.190, 445.024 1023.427, 447.343 1020.552, 449.520 1017.572, 451.553 1014.494, 453.433 1011.326, 455.158 1008.077, 456.723 1004.753, 458.123 1001.364, 459.358 997.917, 460.421 994.422, 461.311 990.887, 462.025 987.320, 462.562 983.732, 462.922 980.129, 463.101 976.522, 463.101 972.920, 462.922 969.331, 462.562 965.764, 462.025 962.229, 461.311 958.734, 460.421 955.287, 459.358 951.898, 458.123 948.574, 456.723 945.325, 455.158 942.157, 453.433 939.079, 451.553 936.099, 449.520 933.224, 447.343 930.461, 445.024 927.817, 442.571 925.299, 439.989 922.912, 437.284 920.663, 434.464 918.558, 431.536 916.601, 428.506 914.797, 425.382 913.152, 422.173 911.668, 418.885 910.351, 415.528 909.202, 412.109 908.225, 408.637 907.422, 405.121 906.796, 401.568 906.348, 397.989 906.078, 394.393 905.988, 390.787 906.078, 387.181 906.348, 383.584 906.796, 380.006 907.422, 376.453 908.225, 372.937 909.202, 369.465 910.351, 366.046 911.668, 362.688 913.152, 359.401 914.797, 356.192 916.601, 353.068 918.558, 350.038 920.663, 347.109 922.912, 344.289 925.299, 341.585 927.817, 339.003 930.461, 336.550 933.224, 334.232 936.099, 332.054 939.079, 330.021 942.157, 328.141 945.325, 326.416 948.574, 324.851 951.898, 323.450 955.287, 322.216 958.734, 321.153 962.229, 320.263 965.764, 319.549 969.331, 319.011 972.920, 318.652 976.522, 318.472 980.129, 318.472 983.732, 318.652 987.320, 319.011 990.887, 319.549 994.422, 320.263 997.917, 321.153 1001.364, 322.216 1004.753, 323.450 1008.077, 324.851 1011.326, 326.416 1014.494, 328.141 1017.572, 330.021 1020.552, 332.054 1023.427, 334.232 1026.190, 336.550 1028.834, 339.003 " />
            <path fill="none" stroke-width="3.0" stroke-linecap="butt" stroke-opacity="1.0" stroke="rgb(0, 0, 0)" stroke-linejoin="round" d=" M 1957.622, 1262.808 1958.249, 1252.827 1958.876, 1242.847 1959.504, 1232.867 1960.131, 1222.886 1960.758, 1212.906 1961.385, 1202.926 1962.013, 1192.945 1962.640, 1182.965 1963.267, 1172.985 1963.894, 1163.005 1964.522, 1153.024 1965.149, 1143.044 1965.776, 1133.064 1966.403, 1123.083 1967.031, 1113.103 1967.658, 1103.123 1968.285, 1093.142 1968.912, 1083.162 1969.540, 1073.182 1970.167, 1063.201 1970.794, 1053.221 1971.421, 1043.241 1972.049, 1033.261 1972.676, 1023.280 1973.303, 1013.300 1973.930, 1003.320 1974.558, 993.339 1975.185, 983.359 1975.812, 973.379 1976.439, 963.398 1977.067, 953.418 1977.694, 943.438 1978.321, 933.458 1978.948, 923.477 1979.576, 913.497 1980.203, 903.517 1980.830, 893.536 1981.458, 883.556 1982.085, 873.576 1982.712, 863.595 1983.339, 853.615 1983.967, 843.635 1984.594, 833.654 1985.221, 823.674 1985.848, 813.694 1986.475, 803.714 1987.103, 793.733 1987.730, 783.753 1988.357, 773.773 1988.984, 763.792 1989.612, 753.812 1990.239, 743.832 1991.061, 730.755 1994.190, 721.257 1997.319, 711.759 2000.448, 702.261 2003.577, 692.763 2006.706, 683.265 2009.835, 673.768 2012.964, 664.270 2016.093, 654.772 2019.222, 645.274 2022.351, 635.776 2025.480, 626.278 2028.609, 616.780 2031.738, 607.282 2034.867, 597.785 2037.996, 588.287 2041.125, 578.789 2044.254, 569.291 2047.383, 559.793 2050.512, 550.295 2053.641, 540.797 2056.770, 531.300 2059.898, 521.802 2063.028, 512.304 2066.156, 502.806 2069.285, 493.308 2072.415, 483.810 2075.543, 474.312 2078.672, 464.814 2081.802, 455.317 2084.930, 445.819 2088.059, 436.321 2091.188, 426.823 2094.317, 417.325 2097.446, 407.827 2100.575, 398.329 2103.704, 388.832 2106.833, 379.334 2109.962, 369.836 2113.091, 360.338 2116.220, 350.840 2119.349, 341.342 2122.478, 331.844 2125.607, 322.346 2128.736, 312.849 2131.865, 303.351 2134.994, 293.853 2138.123, 284.355 2141.252, 274.857 2143.664, 267.536 2142.388, 257.618 2141.111, 247.700 2139.835, 237.781 2138.559, 227.863 2137.282, 217.945 2136.006, 208.027 2134.730, 198.109 2133.453, 188.190 2132.177, 178.272 2130.901, 168.354 2129.625, 158.436 2128.348, 148.517 2127.072, 138.599 2125.795, 128.681 2124.519, 118.763 2123.243, 108.844 2121.967, 98.926 2120.690, 89.008 2119.414, 79.090 2118.138, 69.172 2116.861, 59.253 2115.585, 49.335 2114.309, 39.417 2113.032, 29.499 2112.281, 23.656 " />
            <path fill="none" stroke-width="3.0" stroke-linecap="butt" stroke-opacity="1.0" stroke="rgb(0, 0, 0)" stroke-linejoin="round" d=" M 1526.699, 23.660 1516.699, 23.660 1506.699, 23.660 1496.699, 23.660 1486.699, 23.660 1476.699, 23.660 1466.699, 23.660 1456.699, 23.660 1446.699, 23.660 1436.699, 23.660 1426.699, 23.660 1416.699, 23.660 1414.335, 23.661 1411.273, 23.661 1408.324, 23.661 1398.324, 23.661 1388.324, 23.661 1378.324, 23.661 1368.324, 23.661 1358.324, 23.661 1348.324, 23.661 1338.324, 23.661 1328.324, 23.661 1318.324, 23.661 1308.324, 23.661 1298.324, 23.661 1288.324, 23.661 1278.324, 23.661 1268.324, 23.661 1258.324, 23.661 1255.630, 23.661 1255.626, 23.661 1245.626, 23.662 1235.626, 23.662 1225.626, 23.662 1215.626, 23.662 1205.626, 23.662 1195.626, 23.662 1185.626, 23.662 1175.626, 23.662 1165.626, 23.662 1155.626, 23.662 1151.676, 23.662 1141.676, 23.662 1131.676, 23.662 1121.676, 23.662 1111.676, 23.663 1101.676, 23.663 1091.676, 23.663 1081.783, 23.663 1071.783, 23.663 1061.783, 23.663 1051.783, 23.663 1041.783, 23.663 1031.783, 23.663 1021.783, 23.663 1011.783, 23.663 1001.783, 23.663 991.783, 23.663 981.783, 23.663 971.783, 23.664 961.783, 23.664 951.783, 23.664 941.783, 23.664 931.783, 23.664 921.783, 23.664 911.783, 23.664 901.783, 23.664 891.783, 23.664 881.783, 23.664 871.783, 23.664 861.783, 23.664 851.783, 23.664 841.783, 23.664 831.783, 23.665 821.783, 23.665 811.783, 23.665 808.409, 23.665 " />
            <path fill="none" stroke-width="3.0" stroke-linecap="butt" stroke-opacity="1.0" stroke="rgb(0, 0, 0)" stroke-linejoin="round" d=" M 808.409, 23.665 806.183, 23.665 803.853, 23.665 801.424, 23.665 798.905, 23.665 796.302, 23.665 793.623, 23.665 790.877, 23.665 788.071, 23.665 785.215, 23.665 775.215, 23.665 765.215, 23.665 755.215, 23.665 745.215, 23.665 735.215, 23.665 725.215, 23.665 715.215, 23.665 705.215, 23.665 695.215, 23.665 685.215, 23.665 675.215, 23.665 665.215, 23.665 655.215, 23.665 645.215, 23.666 635.215, 23.666 625.215, 23.666 619.666, 23.666 609.666, 23.666 599.666, 23.666 589.666, 23.666 579.666, 23.666 569.666, 23.666 559.666, 23.666 549.666, 23.666 539.666, 23.666 529.666, 23.666 519.666, 23.666 509.666, 23.666 499.666, 23.666 489.666, 23.666 479.666, 23.666 469.666, 23.667 459.666, 23.667 449.666, 23.667 439.666, 23.667 429.666, 23.667 419.666, 23.667 409.666, 23.667 406.500, 23.667 405.161, 23.667 405.160, 23.667 405.159, 23.667 404.841, 23.667 403.773, 23.667 403.755, 23.667 " />
            <path fill="none" stroke-width="3.0" stroke-linecap="butt" stroke-opacity="1.0" stroke="rgb(0, 0, 0)" stroke-linejoin="round" d=" M 403.755, 23.667 402.425, 23.667 " />
            <path fill="none" stroke-width="3.0" stroke-linecap="butt" stroke-opacity="1.0" stroke="rgb(0, 0, 0)" stroke-linejoin="round" d=" M 402.425, 23.667 402.293, 23.667 400.777, 23.667 399.216, 23.667 397.614, 23.667 395.978, 23.667 394.315, 23.667 392.630, 23.667 390.931, 23.667 389.223, 23.667 387.511, 23.667 377.511, 23.668 367.511, 23.668 357.511, 23.668 347.511, 23.668 337.511, 23.668 327.511, 23.668 317.511, 23.668 307.511, 23.668 297.511, 23.668 287.511, 23.668 277.511, 23.668 267.511, 23.668 257.511, 23.668 247.511, 23.668 237.511, 23.668 227.511, 23.668 217.511, 23.668 206.062, 23.668 " />
            <path fill="none" stroke-width="3.0" stroke-linecap="butt" stroke-opacity="1.0" stroke="rgb(0, 0, 0)" stroke-linejoin="round" d=" M 1780.423, 1715.259 1784.465, 1706.112 1788.507, 1696.966 1792.550, 1687.819 1796.592, 1678.672 1800.634, 1669.526 1804.676, 1660.379 1808.718, 1651.232 1812.760, 1642.086 1816.802, 1632.939 1820.844, 1623.792 1824.886, 1614.646 1828.929, 1605.499 1832.971, 1596.352 1837.013, 1587.206 1841.055, 1578.059 1845.097, 1568.912 1849.139, 1559.766 1853.181, 1550.619 1857.223, 1541.472 1861.266, 1532.326 1865.308, 1523.179 1869.350, 1514.032 1873.392, 1504.886 1877.434, 1495.739 1881.476, 1486.592 1885.518, 1477.446 1889.560, 1468.299 1893.602, 1459.153 1896.079, 1453.548 1899.150, 1444.031 1902.220, 1434.515 1905.291, 1424.998 1908.362, 1415.481 1911.432, 1405.964 1914.503, 1396.447 1917.573, 1386.930 1920.644, 1377.413 1923.715, 1367.896 1926.785, 1358.379 1929.856, 1348.863 1932.927, 1339.346 1935.997, 1329.829 1939.068, 1320.312 1942.139, 1310.795 1945.209, 1301.278 1948.280, 1291.761 1951.350, 1282.244 1954.421, 1272.727 1957.622, 1262.808 " />
            <path fill="none" stroke-width="3.0" stroke-linecap="butt" stroke-opacity="1.0" stroke="rgb(0, 0, 0)" stroke-linejoin="round" d=" M 206.062, 23.668 205.578, 33.656 205.094, 43.645 204.610, 53.633 204.126, 63.621 203.642, 73.610 203.158, 83.598 202.675, 93.586 202.191, 103.574 201.707, 113.563 201.223, 123.551 200.739, 133.539 200.675, 134.873 201.251, 144.857 201.827, 154.840 202.404, 164.823 202.980, 174.807 203.556, 184.790 204.133, 194.774 204.709, 204.757 205.285, 214.740 205.862, 224.724 206.438, 234.707 207.014, 244.691 207.591, 254.674 208.167, 264.657 208.743, 274.641 209.320, 284.624 209.896, 294.607 210.472, 304.591 211.049, 314.574 211.625, 324.557 212.201, 334.541 212.778, 344.524 213.354, 354.508 213.930, 364.491 214.507, 374.474 215.083, 384.458 215.659, 394.441 216.236, 404.425 216.812, 414.408 217.388, 424.391 217.841, 432.235 214.703, 441.730 211.566, 451.225 208.429, 460.720 205.291, 470.215 202.154, 479.710 199.016, 489.205 195.879, 498.700 192.741, 508.196 189.604, 517.691 186.466, 527.186 183.329, 536.681 180.191, 546.176 177.054, 555.671 173.916, 565.166 170.779, 574.661 167.641, 584.156 164.504, 593.651 161.366, 603.146 158.229, 612.641 155.091, 622.136 151.954, 631.631 148.816, 641.126 145.679, 650.621 142.541, 660.116 139.404, 669.612 136.266, 679.107 133.129, 688.602 129.991, 698.097 126.854, 707.592 123.716, 717.087 120.579, 726.582 117.441, 736.077 114.304, 745.572 111.166, 755.067 108.029, 764.562 104.891, 774.057 101.754, 783.552 98.617, 793.047 95.479, 802.542 92.311, 812.131 " />
            <path fill="none" stroke-width="3.0" stroke-linecap="butt" stroke-opacity="1.0" stroke="rgb(0, 0, 0)" stroke-linejoin="round" d=" M 1703.476, 1824.385 1704.059, 1824.385 1706.984, 1824.385 1716.984, 1824.385 1726.984, 1824.385 1736.984, 1824.385 1746.984, 1824.385 1756.984, 1824.385 1766.984, 1824.385 1776.984, 1824.385 1786.984, 1824.385 1790.397, 1824.385 " />
            <path fill="none" stroke-width="3.0" stroke-linecap="butt" stroke-opacity="1.0" stroke="rgb(0, 0, 0)" stroke-linejoin="round" d=" M 1790.397, 1824.385 1789.486, 1814.427 1788.576, 1804.468 1787.666, 1794.510 1786.756, 1784.551 1785.846, 1774.593 1784.936, 1764.634 1784.026, 1754.676 1783.115, 1744.717 1782.205, 1734.759 1781.295, 1724.800 1780.423, 1715.259 " />
            <path fill="none" stroke-width="3.0" stroke-linecap="butt" stroke-opacity="1.0" stroke="rgb(0, 0, 0)" stroke-linejoin="round" d=" M 92.311, 812.131 91.331, 822.083 90.352, 832.035 89.373, 841.987 88.393, 851.939 87.414, 861.891 86.435, 871.843 85.455, 881.795 84.476, 891.747 83.497, 901.698 82.518, 911.650 81.538, 921.602 81.182, 925.226 78.967, 934.977 76.752, 944.729 74.537, 954.480 72.322, 964.232 70.106, 973.984 67.891, 983.735 65.676, 993.487 63.461, 1003.238 61.246, 1012.990 59.031, 1022.742 56.816, 1032.493 54.601, 1042.245 52.386, 1051.996 50.171, 1061.748 47.956, 1071.500 45.741, 1081.251 43.526, 1091.003 41.311, 1100.754 39.096, 1110.506 36.881, 1120.257 35.412, 1126.722 35.401, 1136.722 35.389, 1146.722 35.377, 1156.722 35.365, 1166.722 35.353, 1176.722 35.342, 1186.722 35.330, 1196.722 35.318, 1206.722 35.306, 1216.722 35.294, 1226.722 35.283, 1236.722 35.271, 1246.722 35.259, 1256.722 35.247, 1266.722 35.235, 1276.722 35.224, 1286.722 35.212, 1296.722 35.200, 1306.722 35.188, 1316.722 35.176, 1326.722 35.165, 1336.722 35.153, 1346.722 35.141, 1356.722 35.129, 1366.722 35.117, 1376.722 35.104, 1387.721 " />
            <path fill="none" stroke-width="3.0" stroke-linecap="butt" stroke-opacity="1.0" stroke="rgb(0, 0, 0)" stroke-linejoin="round" d=" M 109.724, 1824.299 110.366, 1824.347 110.384, 1824.348 120.384, 1824.348 130.384, 1824.348 140.384, 1824.349 150.384, 1824.349 160.384, 1824.349 170.384, 1824.349 180.384, 1824.350 190.384, 1824.350 200.384, 1824.350 210.384, 1824.350 220.384, 1824.351 230.384, 1824.351 240.384, 1824.351 250.384, 1824.351 260.384, 1824.351 270.384, 1824.352 280.384, 1824.352 290.384, 1824.352 300.384, 1824.352 310.384, 1824.353 320.384, 1824.353 330.384, 1824.353 340.384, 1824.353 350.384, 1824.354 360.384, 1824.354 370.384, 1824.354 380.384, 1824.354 390.384, 1824.355 400.384, 1824.355 410.384, 1824.355 420.384, 1824.355 430.384, 1824.355 440.384, 1824.356 450.384, 1824.356 460.384, 1824.356 470.384, 1824.356 480.384, 1824.357 490.384, 1824.357 500.384, 1824.357 510.384, 1824.357 520.384, 1824.358 530.384, 1824.358 540.384, 1824.358 550.384, 1824.358 560.384, 1824.359 570.384, 1824.359 580.384, 1824.359 590.384, 1824.359 600.384, 1824.359 610.384, 1824.360 620.384, 1824.360 630.384, 1824.360 640.384, 1824.360 650.384, 1824.361 660.384, 1824.361 670.384, 1824.361 680.384, 1824.361 690.384, 1824.362 700.384, 1824.362 710.384, 1824.362 720.384, 1824.362 730.384, 1824.363 740.384, 1824.363 750.384, 1824.363 760.384, 1824.363 770.384, 1824.363 780.384, 1824.364 790.384, 1824.364 800.384, 1824.364 810.384, 1824.364 820.384, 1824.365 830.384, 1824.365 840.384, 1824.365 850.384, 1824.365 860.384, 1824.366 870.384, 1824.366 880.384, 1824.366 890.384, 1824.366 900.384, 1824.366 910.384, 1824.367 920.384, 1824.367 930.384, 1824.367 940.384, 1824.367 950.384, 1824.368 960.384, 1824.368 970.384, 1824.368 980.384, 1824.368 990.384, 1824.369 1000.384, 1824.369 1010.384, 1824.369 1020.384, 1824.369 1030.384, 1824.370 1040.384, 1824.370 1050.384, 1824.370 1060.384, 1824.370 1070.384, 1824.370 1080.384, 1824.371 1090.384, 1824.371 1100.384, 1824.371 1110.384, 1824.371 1120.384, 1824.372 1130.384, 1824.372 1140.384, 1824.372 1150.384, 1824.372 1160.384, 1824.373 1170.384, 1824.373 1180.384, 1824.373 1190.384, 1824.373 1200.384, 1824.374 1210.384, 1824.374 1220.384, 1824.374 1230.384, 1824.374 1240.384, 1824.374 1250.384, 1824.375 1260.384, 1824.375 1270.384, 1824.375 1280.384, 1824.375 1290.384, 1824.376 1300.384, 1824.376 1310.384, 1824.376 1320.384, 1824.376 1330.384, 1824.377 1340.384, 1824.377 1350.384, 1824.377 1360.384, 1824.377 1370.384, 1824.377 1380.384, 1824.378 1390.384, 1824.378 1400.384, 1824.378 1410.384, 1824.378 1420.384, 1824.379 1430.384, 1824.379 1440.384, 1824.379 1450.384, 1824.379 1460.384, 1824.380 1470.384, 1824.380 1480.384, 1824.380 1490.384, 1824.380 1500.384, 1824.381 1510.384, 1824.381 1520.384, 1824.381 1530.384, 1824.381 1540.384, 1824.381 1550.384, 1824.382 1560.384, 1824.382 1570.384, 1824.382 1580.384, 1824.382 1590.384, 1824.383 1600.384, 1824.383 1610.384, 1824.383 1620.384, 1824.383 1630.384, 1824.384 1640.384, 1824.384 1650.384, 1824.384 1660.384, 1824.384 1670.384, 1824.385 1680.384, 1824.385 1703.476, 1824.385 " />
            <path fill="none" stroke-width="3.0" stroke-linecap="butt" stroke-opacity="1.0" stroke="rgb(0, 0, 0)" stroke-linejoin="round" d=" M 24.132, 1824.385 34.132, 1824.385 44.132, 1824.385 54.132, 1824.385 64.132, 1824.385 74.132, 1824.385 84.132, 1824.385 94.132, 1824.385 104.132, 1824.385 105.653, 1824.385 108.985, 1824.385 109.315, 1824.347 109.724, 1824.299 " />
            <path fill="none" stroke-width="3.0" stroke-linecap="butt" stroke-opacity="1.0" stroke="rgb(0, 0, 0)" stroke-linejoin="round" d=" M 35.104, 1387.721 36.278, 1397.652 37.452, 1407.583 38.626, 1417.514 39.800, 1427.445 40.974, 1437.376 42.148, 1447.306 43.322, 1457.237 44.496, 1467.168 45.670, 1477.099 46.844, 1487.030 48.018, 1496.961 49.192, 1506.892 50.366, 1516.822 51.540, 1526.753 52.714, 1536.684 53.887, 1546.615 55.061, 1556.546 56.235, 1566.477 57.409, 1576.408 57.702, 1578.887 56.348, 1588.795 54.993, 1598.703 53.638, 1608.611 52.283, 1618.518 50.928, 1628.426 49.574, 1638.334 48.219, 1648.242 46.864, 1658.150 45.509, 1668.057 44.154, 1677.965 42.799, 1687.873 41.445, 1697.781 40.090, 1707.689 38.735, 1717.596 37.380, 1727.504 36.025, 1737.412 34.671, 1747.320 33.316, 1757.228 31.961, 1767.135 30.606, 1777.043 29.251, 1786.951 27.897, 1796.859 26.542, 1806.767 25.187, 1816.674 24.132, 1824.385 " />
            <path fill="none" stroke-width="3.0" stroke-linecap="butt" stroke-opacity="1.0" stroke="rgb(0, 0, 0)" stroke-linejoin="round" d=" M 2112.281, 23.656 2102.281, 23.656 2092.281, 23.656 2082.281, 23.656 2072.281, 23.656 2062.281, 23.656 2052.281, 23.657 2042.281, 23.657 2032.281, 23.657 2022.281, 23.657 2012.281, 23.657 2002.281, 23.657 1992.281, 23.657 1982.281, 23.657 1972.281, 23.657 1962.281, 23.657 1952.281, 23.657 1942.281, 23.657 1932.281, 23.657 1922.281, 23.657 1912.281, 23.657 1902.281, 23.657 1892.281, 23.658 1882.281, 23.658 1872.281, 23.658 1862.281, 23.658 1852.281, 23.658 1842.281, 23.658 1832.281, 23.658 1822.281, 23.658 1812.281, 23.658 1802.281, 23.658 1792.281, 23.658 1782.281, 23.658 1772.281, 23.658 1762.281, 23.658 1752.281, 23.658 1742.281, 23.658 1732.281, 23.658 1722.281, 23.659 1712.281, 23.659 1702.281, 23.659 1692.281, 23.659 1682.281, 23.659 1672.281, 23.659 1662.281, 23.659 1652.281, 23.659 1642.281, 23.659 1632.281, 23.659 1622.281, 23.659 1612.281, 23.659 1602.281, 23.659 1592.281, 23.659 1582.281, 23.659 1572.281, 23.659 1562.281, 23.659 1552.281, 23.660 1542.281, 23.660 1532.281, 23.660 1522.281, 23.660 1511.625, 23.660 1501.625, 23.660 1491.625, 23.660 1481.625, 23.660 1471.625, 23.660 1461.625, 23.660 1451.625, 23.660 1441.625, 23.660 1431.625, 23.660 1421.625, 23.660 1411.625, 23.660 1401.625, 23.660 1391.494, 23.661 1401.494, 23.660 1411.494, 23.660 1421.494, 23.660 1431.494, 23.660 1441.494, 23.660 1451.494, 23.660 1461.494, 23.660 1471.494, 23.660 1475.692, 23.660 1485.692, 23.660 1495.692, 23.660 1500.916, 23.660 1503.748, 23.660 1505.451, 23.660 1510.146, 23.660 1511.625, 23.660 1514.984, 23.660 1519.943, 23.660 1525.005, 23.660 1525.650, 23.660 1526.699, 23.660 " />
            <path fill="none" stroke-width="3.0" stroke-linecap="butt" stroke-opacity="1.0" stroke="rgb(0, 0, 0)" stroke-linejoin="round" d=" M 1081.783, 23.663 1091.783, 23.663 1101.783, 23.663 1111.783, 23.662 1120.437, 23.662 1130.437, 23.662 1140.437, 23.662 1150.437, 23.662 1160.437, 23.662 1170.437, 23.662 1180.437, 23.662 1182.812, 23.662 1182.814, 23.662 1192.814, 23.662 1202.814, 23.662 1212.814, 23.662 1222.814, 23.662 1232.814, 23.662 1242.814, 23.661 1252.814, 23.661 1262.814, 23.661 1272.814, 23.661 1282.814, 23.661 1292.814, 23.661 1302.814, 23.661 1312.814, 23.661 1322.814, 23.661 1332.814, 23.661 1342.814, 23.661 1352.814, 23.661 1362.814, 23.661 1372.814, 23.661 1382.041, 23.661 1386.679, 23.661 1391.494, 23.661 " />
            <path fill="none" stroke-width="3.0" stroke-linecap="butt" stroke-opacity="1.0" stroke="rgb(0, 0, 0)" stroke-linejoin="round" d=" M 873.991, 894.429 876.510, 897.011 878.896, 899.715 881.145, 902.535 883.251, 905.465 885.207, 908.494 887.011, 911.617 888.656, 914.827 890.139, 918.115 891.457, 921.473 892.606, 924.891 893.583, 928.363 894.386, 931.880 895.012, 935.431 895.461, 939.010 895.730, 942.607 895.820, 946.213 895.730, 949.818 895.461, 953.416 895.012, 956.994 894.386, 960.547 893.583, 964.063 892.606, 967.535 891.457, 970.954 890.139, 974.311 888.656, 977.599 887.011, 980.809 885.207, 983.932 883.251, 986.962 881.145, 989.891 878.896, 992.710 876.510, 995.415 873.991, 997.997 871.347, 1000.450 868.584, 1002.768 865.709, 1004.947 862.729, 1006.978 859.651, 1008.859 856.484, 1010.584 853.234, 1012.149 849.910, 1013.550 846.521, 1014.783 843.074, 1015.847 839.579, 1016.737 836.044, 1017.451 832.477, 1017.989 828.888, 1018.348 825.286, 1018.528 821.679, 1018.528 818.077, 1018.348 814.488, 1017.989 810.921, 1017.451 807.386, 1016.737 803.890, 1015.847 800.444, 1014.783 797.055, 1013.550 793.731, 1012.149 790.481, 1010.584 787.314, 1008.859 784.236, 1006.978 781.256, 1004.947 778.381, 1002.768 775.618, 1000.450 772.974, 997.997 770.456, 995.415 768.069, 992.710 765.820, 989.891 763.715, 986.962 761.757, 983.932 759.954, 980.809 758.309, 977.599 756.825, 974.311 755.508, 970.954 754.359, 967.535 753.382, 964.063 752.579, 960.547 751.953, 956.994 751.505, 953.416 751.235, 949.818 751.145, 946.213 751.235, 942.607 751.505, 939.010 751.953, 935.431 752.579, 931.880 753.382, 928.363 754.359, 924.891 755.508, 921.473 756.825, 918.115 758.309, 914.827 759.954, 911.617 761.757, 908.494 763.715, 905.465 765.820, 902.535 768.069, 899.715 770.456, 897.011 772.974, 894.429 775.618, 891.976 778.381, 889.658 781.256, 887.480 784.236, 885.448 787.314, 883.568 790.481, 881.842 793.731, 880.278 797.055, 878.876 800.444, 877.643 803.890, 876.580 807.386, 875.689 810.921, 874.975 814.488, 874.438 818.077, 874.079 821.679, 873.898 825.286, 873.898 828.888, 874.079 832.477, 874.438 836.044, 874.975 839.579, 875.689 843.074, 876.580 846.521, 877.643 849.910, 878.876 853.234, 880.278 856.484, 881.842 859.651, 883.568 862.729, 885.448 865.709, 887.480 868.584, 889.658 871.347, 891.976 873.991, 894.429 " />
            <path fill="none" stroke-width="3.0" stroke-linecap="butt" stroke-opacity="1.0" stroke="rgb(0, 0, 0)" stroke-linejoin="round" d=" M 108.985, 1824.385 118.985, 1824.385 128.985, 1824.385 138.985, 1824.385 148.985, 1824.385 158.985, 1824.385 168.985, 1824.385 178.985, 1824.385 188.985, 1824.385 198.985, 1824.385 208.985, 1824.385 218.985, 1824.385 228.985, 1824.385 238.985, 1824.385 248.985, 1824.385 258.985, 1824.385 268.985, 1824.385 278.985, 1824.385 288.985, 1824.385 298.985, 1824.385 308.985, 1824.385 318.985, 1824.385 328.985, 1824.385 338.985, 1824.385 348.985, 1824.385 358.985, 1824.385 368.985, 1824.385 378.985, 1824.385 388.985, 1824.385 398.984, 1824.385 408.985, 1824.385 418.985, 1824.385 428.985, 1824.385 438.985, 1824.385 448.985, 1824.385 458.985, 1824.385 468.985, 1824.385 478.985, 1824.385 488.985, 1824.385 498.984, 1824.385 508.985, 1824.385 518.984, 1824.385 528.984, 1824.385 538.985, 1824.385 548.984, 1824.385 558.984, 1824.385 568.985, 1824.385 578.984, 1824.385 588.984, 1824.385 598.985, 1824.385 608.984, 1824.385 618.984, 1824.385 628.985, 1824.385 638.984, 1824.385 648.984, 1824.385 658.985, 1824.385 668.984, 1824.385 678.984, 1824.385 688.984, 1824.385 698.984, 1824.385 708.984, 1824.385 718.984, 1824.385 728.984, 1824.385 738.985, 1824.385 748.984, 1824.385 758.984, 1824.385 768.985, 1824.385 778.984, 1824.385 788.984, 1824.385 798.985, 1824.385 808.984, 1824.385 818.984, 1824.385 828.985, 1824.385 838.984, 1824.385 848.984, 1824.385 858.984, 1824.385 868.984, 1824.385 878.984, 1824.385 888.984, 1824.385 898.984, 1824.385 908.984, 1824.385 918.985, 1824.385 928.984, 1824.385 938.984, 1824.385 948.984, 1824.385 958.984, 1824.385 968.985, 1824.385 978.985, 1824.385 988.984, 1824.385 998.984, 1824.385 1008.984, 1824.385 1018.984, 1824.385 1028.984, 1824.385 1038.984, 1824.385 1048.984, 1824.385 1058.984, 1824.385 1068.984, 1824.385 1078.984, 1824.385 1088.984, 1824.385 1098.984, 1824.385 1108.984, 1824.385 1118.984, 1824.385 1128.984, 1824.385 1138.984, 1824.385 1148.984, 1824.385 1158.984, 1824.385 1168.984, 1824.385 1178.984, 1824.385 1188.984, 1824.385 1198.984, 1824.385 1208.984, 1824.385 1218.984, 1824.385 1228.984, 1824.385 1238.984, 1824.385 1248.984, 1824.385 1258.984, 1824.385 1268.984, 1824.385 1278.984, 1824.385 1288.984, 1824.385 1298.984, 1824.385 1308.984, 1824.385 1318.984, 1824.385 1328.984, 1824.385 1338.984, 1824.385 1348.984, 1824.385 1358.984, 1824.385 1368.984, 1824.385 1378.984, 1824.385 1388.984, 1824.385 1398.984, 1824.385 1408.984, 1824.385 1418.984, 1824.385 1428.984, 1824.385 1438.984, 1824.385 1448.984, 1824.385 1458.984, 1824.385 1468.984, 1824.385 1478.984, 1824.385 1488.984, 1824.385 1498.984, 1824.385 1508.984, 1824.385 1518.984, 1824.385 1528.984, 1824.385 1538.984, 1824.385 1548.984, 1824.385 1558.984, 1824.385 1568.984, 1824.385 1578.984, 1824.385 1588.984, 1824.385 1598.984, 1824.385 1608.984, 1824.385 1618.984, 1824.385 1628.984, 1824.385 1638.984, 1824.385 1648.984, 1824.385 1658.984, 1824.385 1668.984, 1824.385 1678.984, 1824.385 1703.476, 1824.385 " />
            <path fill="none" stroke-width="3.0" stroke-linecap="butt" stroke-opacity="1.0" stroke="rgb(0, 0, 0)" stroke-linejoin="round" d=" M 5312.821, 23.634 5302.821, 23.635 5292.821, 23.635 5282.821, 23.635 5272.821, 23.635 5262.821, 23.635 5252.821, 23.635 5242.821, 23.635 5232.821, 23.635 5222.821, 23.635 5212.821, 23.635 5202.821, 23.635 5192.821, 23.635 5182.821, 23.635 5172.821, 23.635 5162.821, 23.635 5152.821, 23.635 5142.821, 23.636 5132.821, 23.636 5122.821, 23.636 5112.821, 23.636 5102.821, 23.636 5092.821, 23.636 5082.821, 23.636 5072.821, 23.636 5062.821, 23.636 5052.821, 23.636 5042.821, 23.636 5032.821, 23.636 5022.821, 23.636 5012.821, 23.636 5006.143, 23.636 " />
            <path fill="none" stroke-width="3.0" stroke-linecap="butt" stroke-opacity="1.0" stroke="rgb(0, 0, 0)" stroke-linejoin="round" d=" M 6646.345, 23.626 6636.345, 23.626 6626.345, 23.626 6616.345, 23.626 6606.345, 23.626 6596.345, 23.626 6586.345, 23.626 6576.345, 23.626 6566.345, 23.626 6556.345, 23.627 6546.345, 23.627 6536.345, 23.627 6526.345, 23.627 6516.345, 23.627 6506.345, 23.627 6496.345, 23.627 6486.345, 23.627 6476.345, 23.627 6466.345, 23.627 6456.345, 23.627 6446.345, 23.627 6436.345, 23.627 6426.345, 23.627 6417.969, 23.627 6407.969, 23.627 6397.969, 23.628 6387.969, 23.628 6377.969, 23.628 6367.969, 23.628 6357.969, 23.628 6347.969, 23.628 6337.969, 23.628 6327.969, 23.628 6317.969, 23.628 6307.969, 23.628 6297.969, 23.628 6287.969, 23.628 6277.969, 23.628 6267.969, 23.628 6257.969, 23.628 6247.969, 23.629 6237.969, 23.629 6227.969, 23.629 6217.969, 23.629 6207.969, 23.629 6197.969, 23.629 6187.969, 23.629 6177.969, 23.629 6167.969, 23.629 6157.969, 23.629 6147.969, 23.629 6137.969, 23.629 6127.969, 23.629 6117.969, 23.629 6107.969, 23.629 6097.969, 23.630 6087.969, 23.630 6077.969, 23.630 6067.969, 23.630 6057.969, 23.630 6047.969, 23.630 6037.969, 23.630 6027.969, 23.630 6017.969, 23.630 6007.969, 23.630 6002.710, 23.630 " />
            <path fill="none" stroke-width="3.0" stroke-linecap="butt" stroke-opacity="1.0" stroke="rgb(0, 0, 0)" stroke-linejoin="round" d=" M 2112.281, 23.656 2102.281, 23.656 2092.281, 23.656 2082.281, 23.656 2072.281, 23.656 2062.281, 23.656 2052.281, 23.657 2042.281, 23.657 2032.281, 23.657 2022.281, 23.657 2012.281, 23.657 2002.281, 23.657 1992.281, 23.657 1982.281, 23.657 1972.281, 23.657 1962.281, 23.657 1952.281, 23.657 1942.281, 23.657 1932.281, 23.657 1922.281, 23.657 1912.281, 23.657 1902.281, 23.657 1892.281, 23.657 1882.281, 23.658 1872.281, 23.658 1862.281, 23.658 1852.281, 23.658 1842.281, 23.658 1832.281, 23.658 1822.281, 23.658 1812.281, 23.658 1802.281, 23.658 1792.281, 23.658 1782.281, 23.658 1772.281, 23.658 1762.281, 23.658 1752.281, 23.658 1742.281, 23.658 1732.281, 23.658 1722.281, 23.658 1712.281, 23.659 1702.281, 23.659 1692.281, 23.659 1682.281, 23.659 1672.281, 23.659 1662.281, 23.659 1652.281, 23.659 1642.281, 23.659 1632.281, 23.659 1622.281, 23.659 1612.281, 23.659 1602.281, 23.659 1592.281, 23.659 1582.281, 23.659 1572.281, 23.659 1562.281, 23.659 1552.281, 23.659 1542.281, 23.660 1532.281, 23.660 1522.281, 23.660 1512.281, 23.660 1500.916, 23.660 " />
            <path fill="none" stroke-width="3.0" stroke-linecap="butt" stroke-opacity="1.0" stroke="rgb(0, 0, 0)" stroke-linejoin="round" d=" M 2112.281, 23.656 2102.281, 23.656 2092.281, 23.656 2082.281, 23.656 2072.281, 23.656 2062.281, 23.656 2052.281, 23.657 2042.281, 23.657 2032.281, 23.657 2022.281, 23.657 2012.281, 23.657 2002.281, 23.657 1992.281, 23.657 1982.281, 23.657 1972.281, 23.657 1962.281, 23.657 1952.281, 23.657 1942.281, 23.657 1932.281, 23.657 1922.281, 23.657 1912.281, 23.657 1902.281, 23.657 1892.281, 23.658 1882.281, 23.658 1872.281, 23.658 1862.281, 23.658 1852.281, 23.658 1842.281, 23.658 1832.281, 23.658 1822.281, 23.658 1812.281, 23.658 1802.281, 23.658 1792.281, 23.658 1782.281, 23.658 1772.281, 23.658 1762.281, 23.658 1752.281, 23.658 1742.281, 23.658 1732.281, 23.659 1722.281, 23.659 1712.281, 23.659 1702.281, 23.659 1692.281, 23.659 1682.281, 23.659 1672.281, 23.659 1662.281, 23.659 1652.281, 23.659 1642.281, 23.659 1632.281, 23.659 1622.281, 23.659 1612.281, 23.659 1602.281, 23.659 1592.281, 23.659 1582.281, 23.659 1572.281, 23.660 1562.281, 23.660 1552.281, 23.660 1542.281, 23.660 1526.699, 23.660 " />
            <path fill="none" stroke-width="3.0" stroke-linecap="butt" stroke-opacity="1.0" stroke="rgb(0, 0, 0)" stroke-linejoin="round" d=" M 2112.281, 23.656 2102.281, 23.656 2092.281, 23.656 2082.281, 23.656 2072.281, 23.656 2062.281, 23.656 2052.281, 23.657 2042.281, 23.657 2032.281, 23.657 2022.281, 23.657 2012.281, 23.657 2002.281, 23.657 1992.281, 23.657 1982.281, 23.657 1972.281, 23.657 1962.281, 23.657 1952.281, 23.657 1942.281, 23.657 1932.281, 23.657 1922.281, 23.657 1912.281, 23.657 1902.281, 23.657 1892.281, 23.658 1882.281, 23.658 1872.281, 23.658 1862.281, 23.658 1852.281, 23.658 1842.281, 23.658 1832.281, 23.658 1822.281, 23.658 1812.281, 23.658 1802.281, 23.658 1792.281, 23.658 1782.281, 23.658 1772.281, 23.658 1762.281, 23.658 1752.281, 23.658 1742.281, 23.658 1732.281, 23.659 1722.281, 23.659 1712.281, 23.659 1702.281, 23.659 1692.281, 23.659 1682.281, 23.659 1672.281, 23.659 1662.281, 23.659 1652.281, 23.659 1642.281, 23.659 1632.281, 23.659 1622.281, 23.659 1612.281, 23.659 1602.281, 23.659 1592.281, 23.659 1582.281, 23.659 1572.281, 23.659 1562.281, 23.660 1552.281, 23.660 1542.281, 23.660 1532.281, 23.660 1525.650, 23.660 1515.650, 23.660 1505.650, 23.660 1495.650, 23.660 1485.650, 23.660 1475.650, 23.660 1465.650, 23.660 1455.650, 23.660 1445.650, 23.660 1435.650, 23.660 1425.650, 23.660 1415.650, 23.660 1408.324, 23.661 " />
            <path fill="none" stroke-width="3.0" stroke-linecap="butt" stroke-opacity="1.0" stroke="rgb(0, 0, 0)" stroke-linejoin="round" d=" M 2112.281, 23.656 2102.281, 23.656 2092.281, 23.656 2082.281, 23.656 2072.281, 23.656 2062.281, 23.656 2052.281, 23.657 2042.281, 23.657 2032.281, 23.657 2022.281, 23.657 2012.281, 23.657 2002.281, 23.657 1992.281, 23.657 1982.281, 23.657 1972.281, 23.657 1962.281, 23.657 1952.281, 23.657 1942.281, 23.657 1932.281, 23.657 1922.281, 23.657 1912.281, 23.657 1902.281, 23.657 1892.281, 23.657 1882.281, 23.658 1872.281, 23.658 1862.281, 23.658 1852.281, 23.658 1842.281, 23.658 1832.281, 23.658 1822.281, 23.658 1812.281, 23.658 1802.281, 23.658 1792.281, 23.658 1782.281, 23.658 1772.281, 23.658 1762.281, 23.658 1752.281, 23.658 1742.281, 23.658 1732.281, 23.658 1722.281, 23.658 1712.281, 23.659 1702.281, 23.659 1692.281, 23.659 1682.281, 23.659 1672.281, 23.659 1662.281, 23.659 1652.281, 23.659 1642.281, 23.659 1632.281, 23.659 1622.281, 23.659 1612.281, 23.659 1602.281, 23.659 1592.281, 23.659 1582.281, 23.659 1572.281, 23.659 1562.281, 23.659 1552.281, 23.659 1542.281, 23.660 1532.281, 23.660 1522.281, 23.660 1512.281, 23.660 1503.748, 23.660 1493.748, 23.660 1483.748, 23.660 1475.692, 23.660 1465.692, 23.660 1455.692, 23.660 1445.692, 23.660 1435.692, 23.660 1425.692, 23.660 1415.692, 23.660 1405.692, 23.660 1395.692, 23.660 1385.692, 23.660 1382.041, 23.661 " />
            <path fill="none" stroke-width="3.0" stroke-linecap="butt" stroke-opacity="1.0" stroke="rgb(0, 0, 0)" stroke-linejoin="round" d=" M 2112.281, 23.656 2102.281, 23.656 2092.281, 23.656 2082.281, 23.656 2072.281, 23.656 2062.281, 23.656 2052.281, 23.657 2042.281, 23.657 2032.281, 23.657 2022.281, 23.657 2012.281, 23.657 2002.281, 23.657 1992.281, 23.657 1982.281, 23.657 1972.281, 23.657 1962.281, 23.657 1952.281, 23.657 1942.281, 23.657 1932.281, 23.657 1922.281, 23.657 1912.281, 23.657 1902.281, 23.658 1892.281, 23.658 1882.281, 23.658 1872.281, 23.658 1862.281, 23.658 1852.281, 23.658 1842.281, 23.658 1832.281, 23.658 1822.281, 23.658 1812.281, 23.658 1802.281, 23.658 1792.281, 23.658 1782.281, 23.658 1772.281, 23.658 1762.281, 23.658 1752.281, 23.658 1742.281, 23.659 1732.281, 23.659 1722.281, 23.659 1712.281, 23.659 1702.281, 23.659 1692.281, 23.659 1682.281, 23.659 1672.281, 23.659 1662.281, 23.659 1652.281, 23.659 1642.281, 23.659 1632.281, 23.659 1622.281, 23.659 1612.281, 23.659 1602.281, 23.659 1592.281, 23.659 1582.281, 23.660 1572.281, 23.660 1562.281, 23.660 1552.281, 23.660 1543.240, 23.660 " />
            <path fill="none" stroke-width="3.0" stroke-linecap="butt" stroke-opacity="1.0" stroke="rgb(0, 0, 0)" stroke-linejoin="round" d=" M 2112.281, 23.656 2102.281, 23.656 2092.281, 23.656 2082.281, 23.656 2072.281, 23.656 2062.281, 23.656 2052.281, 23.657 2042.281, 23.657 2032.281, 23.657 2022.281, 23.657 2012.281, 23.657 2002.281, 23.657 1992.281, 23.657 1982.281, 23.657 1972.281, 23.657 1962.281, 23.657 1952.281, 23.657 1942.281, 23.657 1932.281, 23.657 1922.281, 23.657 1912.281, 23.657 1902.281, 23.658 1892.281, 23.658 1882.281, 23.658 1872.281, 23.658 1862.281, 23.658 1852.281, 23.658 1842.281, 23.658 1832.281, 23.658 1822.281, 23.658 1812.281, 23.658 1802.281, 23.658 1792.281, 23.658 1782.281, 23.658 1772.281, 23.658 1762.281, 23.658 1752.281, 23.658 1742.281, 23.659 1732.281, 23.659 1722.281, 23.659 1712.281, 23.659 1702.281, 23.659 1692.281, 23.659 1682.281, 23.659 1672.281, 23.659 1662.281, 23.659 1652.281, 23.659 1642.281, 23.659 1632.281, 23.659 1622.281, 23.659 1612.281, 23.659 1602.281, 23.659 1592.281, 23.659 1582.281, 23.660 1572.281, 23.660 1562.281, 23.660 1552.281, 23.660 1543.241, 23.660 " />
            <path fill="none" stroke-width="3.0" stroke-linecap="butt" stroke-opacity="1.0" stroke="rgb(0, 0, 0)" stroke-linejoin="round" d=" M 2112.281, 23.656 2102.281, 23.656 2092.281, 23.656 2082.281, 23.656 2072.281, 23.656 2062.281, 23.657 2052.281, 23.657 2042.281, 23.657 2032.281, 23.657 2022.281, 23.657 2012.281, 23.657 2002.281, 23.657 1992.281, 23.657 1982.281, 23.657 1972.281, 23.657 1962.281, 23.657 1952.281, 23.657 1942.281, 23.657 1932.281, 23.657 1922.281, 23.657 1912.281, 23.657 1902.281, 23.658 1892.281, 23.658 1882.281, 23.658 1872.281, 23.658 1862.281, 23.658 1852.281, 23.658 1842.281, 23.658 1832.281, 23.658 1822.281, 23.658 1812.281, 23.658 1802.281, 23.658 1792.281, 23.658 1782.281, 23.658 1772.281, 23.658 1762.281, 23.658 1752.281, 23.658 1742.281, 23.659 1732.281, 23.659 1722.281, 23.659 1712.281, 23.659 1702.281, 23.659 1692.281, 23.659 1682.281, 23.659 1672.281, 23.659 1662.281, 23.659 1652.281, 23.659 1642.281, 23.659 1632.281, 23.659 1622.281, 23.659 1612.281, 23.659 1602.281, 23.659 1592.281, 23.660 1582.281, 23.660 1572.281, 23.660 1562.281, 23.660 1551.628, 23.660 " />
            <path fill="none" stroke-width="3.0" stroke-linecap="butt" stroke-opacity="1.0" stroke="rgb(0, 0, 0)" stroke-linejoin="round" d=" M 405.159, 23.667 404.532, 23.667 402.425, 23.667 " />
            <path fill="none" stroke-width="3.0" stroke-linecap="butt" stroke-opacity="1.0" stroke="rgb(0, 0, 0)" stroke-linejoin="round" d=" M 1530.659, 23.660 1540.659, 23.660 1550.659, 23.660 1560.659, 23.660 1570.659, 23.660 1580.659, 23.659 1590.659, 23.659 1600.659, 23.659 1610.659, 23.659 1620.659, 23.659 1630.659, 23.659 1640.659, 23.659 1650.659, 23.659 1660.659, 23.659 1670.659, 23.659 1680.659, 23.659 1690.659, 23.659 1700.659, 23.659 1710.659, 23.659 1720.659, 23.659 1730.659, 23.659 1740.659, 23.658 1750.659, 23.658 1760.659, 23.658 1770.659, 23.658 1780.659, 23.658 1790.659, 23.658 1800.659, 23.658 1810.659, 23.658 1820.659, 23.658 1830.659, 23.658 1840.659, 23.658 1850.659, 23.658 1860.659, 23.658 1870.659, 23.658 1880.659, 23.658 1890.659, 23.658 1900.659, 23.657 1910.659, 23.657 1920.659, 23.657 1930.659, 23.657 1940.659, 23.657 1950.659, 23.657 1960.659, 23.657 1970.659, 23.657 1980.659, 23.657 1990.659, 23.657 2000.659, 23.657 2010.659, 23.657 2020.659, 23.657 2030.659, 23.657 2040.659, 23.657 2050.659, 23.657 2060.659, 23.656 2070.659, 23.656 2080.659, 23.656 2090.659, 23.656 2100.659, 23.656 2112.281, 23.656 2102.281, 23.656 2092.281, 23.656 2082.281, 23.656 2072.281, 23.656 2062.281, 23.657 2052.281, 23.657 2042.281, 23.657 2032.281, 23.657 2022.281, 23.657 2012.281, 23.657 2002.281, 23.657 1992.281, 23.657 1982.281, 23.657 1972.281, 23.657 1962.281, 23.657 1952.281, 23.657 1942.281, 23.657 1932.281, 23.657 1922.281, 23.657 1912.281, 23.658 1902.281, 23.658 1892.281, 23.658 1882.281, 23.658 1872.281, 23.658 1862.281, 23.658 1852.281, 23.658 1842.281, 23.658 1832.281, 23.658 1822.281, 23.658 1812.281, 23.658 1802.281, 23.658 1792.281, 23.658 1782.281, 23.658 1772.281, 23.658 1762.281, 23.659 1752.281, 23.659 1742.281, 23.659 1732.281, 23.659 1722.281, 23.659 1712.281, 23.659 1702.281, 23.659 1692.281, 23.659 1682.281, 23.659 1672.281, 23.659 1662.281, 23.659 1652.281, 23.659 1642.281, 23.659 1632.281, 23.659 1622.281, 23.659 1612.281, 23.659 1602.281, 23.660 1592.281, 23.660 1582.281, 23.660 1569.001, 23.660 " />
            <path fill="none" stroke-width="3.0" stroke-linecap="butt" stroke-opacity="1.0" stroke="rgb(0, 0, 0)" stroke-linejoin="round" d=" M 1255.630, 23.661 1245.630, 23.662 1235.630, 23.662 1225.630, 23.662 1215.630, 23.662 1205.630, 23.662 1195.630, 23.662 1185.630, 23.662 1182.814, 23.662 1172.814, 23.662 1162.814, 23.662 1152.814, 23.662 1142.814, 23.662 1132.814, 23.662 1122.814, 23.662 1112.814, 23.662 1102.814, 23.662 1092.814, 23.663 1082.814, 23.663 1072.814, 23.663 1062.814, 23.663 1052.814, 23.663 1042.814, 23.663 1032.814, 23.663 1022.815, 23.663 1012.815, 23.663 1002.815, 23.663 992.815, 23.663 982.815, 23.663 972.815, 23.663 962.815, 23.663 952.815, 23.663 942.815, 23.663 932.815, 23.664 922.815, 23.664 912.815, 23.664 902.815, 23.664 892.815, 23.664 882.815, 23.664 872.815, 23.664 862.815, 23.664 852.815, 23.664 842.815, 23.664 832.815, 23.664 822.815, 23.664 812.815, 23.664 802.815, 23.664 792.815, 23.664 782.815, 23.664 772.815, 23.665 762.815, 23.665 752.815, 23.665 742.815, 23.665 732.815, 23.665 722.815, 23.665 712.815, 23.665 702.815, 23.665 692.815, 23.665 682.815, 23.665 672.815, 23.665 662.815, 23.665 652.815, 23.665 642.815, 23.665 632.815, 23.665 622.815, 23.665 612.815, 23.666 602.815, 23.666 592.815, 23.666 582.815, 23.666 572.815, 23.666 562.815, 23.666 552.815, 23.666 542.815, 23.666 532.815, 23.666 522.815, 23.666 512.815, 23.666 502.815, 23.666 492.815, 23.666 482.815, 23.666 472.815, 23.666 462.815, 23.667 452.815, 23.667 442.815, 23.667 432.815, 23.667 422.815, 23.667 405.160, 23.667 " />
            <path fill="none" stroke-width="3.0" stroke-linecap="butt" stroke-opacity="1.0" stroke="rgb(0, 0, 0)" stroke-linejoin="round" d=" M 1255.626, 23.661 1245.626, 23.662 1235.626, 23.662 1225.626, 23.662 1215.626, 23.662 1205.626, 23.662 1195.626, 23.662 1185.626, 23.662 1182.812, 23.662 1172.812, 23.662 1162.812, 23.662 1152.812, 23.662 1142.812, 23.662 1132.812, 23.662 1122.812, 23.662 1112.812, 23.662 1102.812, 23.662 1092.812, 23.663 1082.812, 23.663 1072.812, 23.663 1062.812, 23.663 1052.812, 23.663 1042.812, 23.663 1032.812, 23.663 1022.812, 23.663 1012.812, 23.663 1002.812, 23.663 992.812, 23.663 982.812, 23.663 972.812, 23.663 962.812, 23.663 952.812, 23.663 942.812, 23.663 932.812, 23.664 922.812, 23.664 912.812, 23.664 902.812, 23.664 892.812, 23.664 882.812, 23.664 872.812, 23.664 862.812, 23.664 852.812, 23.664 842.812, 23.664 832.812, 23.664 822.812, 23.664 812.812, 23.664 802.812, 23.664 792.812, 23.664 782.812, 23.664 772.812, 23.665 762.812, 23.665 752.812, 23.665 742.812, 23.665 732.812, 23.665 722.812, 23.665 712.812, 23.665 702.812, 23.665 692.812, 23.665 682.812, 23.665 672.812, 23.665 662.812, 23.665 652.812, 23.665 642.812, 23.665 632.812, 23.665 622.812, 23.665 612.812, 23.666 602.812, 23.666 592.812, 23.666 582.812, 23.666 572.812, 23.666 562.812, 23.666 552.812, 23.666 542.812, 23.666 532.812, 23.666 522.812, 23.666 512.812, 23.666 502.812, 23.666 492.812, 23.666 482.812, 23.666 472.812, 23.666 462.812, 23.667 452.812, 23.667 442.812, 23.667 432.812, 23.667 422.812, 23.667 405.161, 23.667 " />
            <path fill="none" stroke-width="3.0" stroke-linecap="butt" stroke-opacity="1.0" stroke="rgb(0, 0, 0)" stroke-linejoin="round" d=" M 402.425, 23.667 403.773, 23.667 " />
            <path fill="none" stroke-width="3.0" stroke-linecap="butt" stroke-opacity="1.0" stroke="rgb(0, 0, 0)" stroke-linejoin="round" d=" M 404.841, 23.667 404.532, 23.667 394.532, 23.667 384.532, 23.667 374.532, 23.667 364.532, 23.667 354.532, 23.667 344.532, 23.667 334.532, 23.667 324.532, 23.667 314.532, 23.667 304.532, 23.668 294.532, 23.668 284.532, 23.668 274.532, 23.668 264.532, 23.668 254.532, 23.668 244.532, 23.668 234.532, 23.668 224.532, 23.668 214.532, 23.668 206.062, 23.668 " />
            <path fill="none" stroke-width="3.0" stroke-linecap="butt" stroke-opacity="1.0" stroke="rgb(0, 0, 0)" stroke-linejoin="round" d=" M 1151.676, 23.662 1141.676, 23.662 1131.676, 23.662 1121.676, 23.662 1120.437, 23.662 1110.437, 23.662 1100.437, 23.663 1090.437, 23.663 1080.437, 23.663 1070.437, 23.663 1060.437, 23.663 1050.437, 23.663 1040.437, 23.663 1030.437, 23.663 1020.437, 23.663 1010.437, 23.663 1000.437, 23.663 990.437, 23.663 980.437, 23.663 970.437, 23.663 960.437, 23.663 950.437, 23.664 940.437, 23.664 930.437, 23.664 920.437, 23.664 910.437, 23.664 900.437, 23.664 890.437, 23.664 880.437, 23.664 870.437, 23.664 860.437, 23.664 850.437, 23.664 840.437, 23.664 830.437, 23.664 820.437, 23.664 810.437, 23.664 800.437, 23.664 790.437, 23.665 780.437, 23.665 770.437, 23.665 760.437, 23.665 750.437, 23.665 740.437, 23.665 730.437, 23.665 720.437, 23.665 710.437, 23.665 700.437, 23.665 690.437, 23.665 680.437, 23.665 670.437, 23.665 660.437, 23.665 650.437, 23.665 640.437, 23.666 630.437, 23.666 619.666, 23.666 " />
            <path fill="none" stroke-width="3.0" stroke-linecap="butt" stroke-opacity="1.0" stroke="rgb(0, 0, 0)" stroke-linejoin="round" d=" M 2112.281, 23.656 2102.281, 23.656 2092.281, 23.656 2082.281, 23.656 2072.281, 23.656 2062.281, 23.657 2052.281, 23.657 2042.281, 23.657 2032.281, 23.657 2022.281, 23.657 2012.281, 23.657 2002.281, 23.657 1992.281, 23.657 1982.281, 23.657 1972.281, 23.657 1962.281, 23.657 1952.281, 23.657 1942.281, 23.657 1932.281, 23.657 1922.281, 23.657 1912.281, 23.658 1902.281, 23.658 1892.281, 23.658 1882.281, 23.658 1872.281, 23.658 1862.281, 23.658 1852.281, 23.658 1842.281, 23.658 1832.281, 23.658 1822.281, 23.658 1812.281, 23.658 1802.281, 23.658 1792.281, 23.658 1782.281, 23.658 1772.281, 23.658 1762.281, 23.659 1752.281, 23.659 1742.281, 23.659 1732.281, 23.659 1722.281, 23.659 1712.281, 23.659 1702.281, 23.659 1692.281, 23.659 1682.281, 23.659 1672.281, 23.659 1662.281, 23.659 1652.281, 23.659 1642.281, 23.659 1632.281, 23.659 1622.281, 23.659 1612.281, 23.660 1602.281, 23.660 1592.281, 23.660 1582.281, 23.660 1575.087, 23.660 " />
            <path fill="none" stroke-width="3.0" stroke-linecap="butt" stroke-opacity="1.0" stroke="rgb(0, 0, 0)" stroke-linejoin="round" d=" M 4929.545, 1169.835 4927.718, 1160.003 4925.891, 1150.171 4924.063, 1140.340 4922.236, 1130.508 4920.410, 1120.676 4918.583, 1110.845 4916.755, 1101.013 4914.928, 1091.181 4913.101, 1081.350 4911.274, 1071.518 4909.447, 1061.686 4907.620, 1051.855 4905.792, 1042.023 4903.965, 1032.191 4902.138, 1022.360 4900.311, 1012.528 4898.484, 1002.696 4896.657, 992.865 4894.830, 983.033 4893.003, 973.201 4891.176, 963.370 4889.349, 953.538 4887.521, 943.706 4885.694, 933.875 4883.867, 924.043 4882.040, 914.211 4880.213, 904.380 4878.386, 894.548 4876.559, 884.716 4874.731, 874.885 4872.904, 865.053 4871.078, 855.221 4869.250, 845.390 4867.423, 835.558 4865.596, 825.726 4863.769, 815.895 4861.942, 806.063 4860.115, 796.231 4858.288, 786.400 4856.460, 776.568 4854.633, 766.736 4852.806, 756.905 4850.979, 747.073 4849.152, 737.241 4847.325, 727.410 4845.498, 717.578 4843.671, 707.746 4841.844, 697.915 4840.017, 688.083 4838.189, 678.251 4836.362, 668.420 4834.535, 658.588 4832.708, 648.756 4830.881, 638.925 4829.054, 629.093 4827.227, 619.261 4825.399, 609.430 4823.572, 599.598 4821.746, 589.766 4819.918, 579.935 4818.091, 570.103 4816.264, 560.271 4813.847, 547.263 " />
            <path fill="none" stroke-width="3.0" stroke-linecap="butt" stroke-opacity="1.0" stroke="rgb(0, 0, 0)" stroke-linejoin="round" d=" M 4929.545, 1169.835 4929.545, 1179.835 4929.545, 1189.835 4929.545, 1199.835 4929.545, 1209.835 4929.545, 1219.835 4929.545, 1229.835 4929.545, 1239.835 4929.545, 1249.835 4929.545, 1259.835 4929.545, 1269.835 4929.545, 1279.835 4929.545, 1289.835 4929.545, 1299.835 4929.545, 1309.835 4929.545, 1319.835 4929.545, 1329.835 4929.545, 1339.835 4929.545, 1349.835 4929.545, 1359.835 4929.545, 1369.835 4929.545, 1379.835 4929.545, 1389.835 4929.545, 1399.835 4929.545, 1409.835 4929.545, 1419.835 4929.545, 1429.835 4929.545, 1439.835 4929.545, 1449.835 4929.545, 1459.835 4929.545, 1469.835 4929.545, 1479.835 4929.545, 1489.835 4929.545, 1499.835 4929.545, 1509.835 4929.545, 1519.835 4929.545, 1529.835 4929.545, 1539.835 4929.545, 1549.835 4929.545, 1559.835 4929.545, 1569.835 4929.545, 1579.835 4929.545, 1589.835 4929.545, 1599.835 4929.545, 1609.835 4929.545, 1619.835 4929.545, 1624.605 " />
            <path fill="none" stroke-width="3.0" stroke-linecap="butt" stroke-opacity="1.0" stroke="rgb(0, 0, 0)" stroke-linejoin="round" d=" M 4929.545, 1624.605 4932.729, 1634.085 4935.914, 1643.564 4939.098, 1653.044 4942.282, 1662.523 4945.467, 1672.003 4948.651, 1681.482 4951.835, 1690.961 4955.020, 1700.441 4958.204, 1709.920 4961.389, 1719.400 4964.573, 1728.879 4967.757, 1738.359 4970.942, 1747.838 4974.126, 1757.318 4977.311, 1766.797 4980.495, 1776.276 4983.679, 1785.756 4986.863, 1795.235 4990.048, 1804.715 4993.232, 1814.194 4996.655, 1824.385 " />
            <path fill="none" stroke-width="3.0" stroke-linecap="butt" stroke-opacity="1.0" stroke="rgb(0, 0, 0)" stroke-linejoin="round" d=" M 5312.821, 23.634 5302.821, 23.635 5292.821, 23.635 5282.821, 23.635 5272.821, 23.635 5262.821, 23.635 5252.821, 23.635 5242.821, 23.635 5232.821, 23.635 5222.821, 23.635 5212.821, 23.635 5202.821, 23.635 5192.821, 23.635 5182.821, 23.635 5172.821, 23.635 5162.821, 23.635 5152.821, 23.635 5142.821, 23.636 5132.821, 23.636 5122.821, 23.636 5112.821, 23.636 5102.821, 23.636 5092.821, 23.636 5082.821, 23.636 5072.821, 23.636 5062.821, 23.636 5052.821, 23.636 5042.821, 23.636 5032.821, 23.636 5022.821, 23.636 5012.821, 23.636 5006.563, 23.636 " />
            <path fill="none" stroke-width="3.0" stroke-linecap="butt" stroke-opacity="1.0" stroke="rgb(0, 0, 0)" stroke-linejoin="round" d=" M 5312.821, 23.634 5302.821, 23.635 5292.821, 23.635 5282.821, 23.635 5272.821, 23.635 5262.821, 23.635 5252.821, 23.635 5242.821, 23.635 5232.821, 23.635 5222.821, 23.635 5212.821, 23.635 5202.821, 23.635 5192.821, 23.635 5182.821, 23.635 5172.821, 23.635 5162.821, 23.635 5152.821, 23.635 5142.821, 23.636 5132.821, 23.636 5122.821, 23.636 5112.821, 23.636 5102.821, 23.636 5092.821, 23.636 5082.821, 23.636 5072.821, 23.636 5062.821, 23.636 5052.821, 23.636 5042.821, 23.636 5032.821, 23.636 5022.821, 23.636 5012.821, 23.636 5006.143, 23.636 " />
            <path fill="none" stroke-width="3.0" stroke-linecap="butt" stroke-opacity="1.0" stroke="rgb(0, 0, 0)" stroke-linejoin="round" d=" M 5411.771, 1824.277 5412.498, 1824.323 " />
            <path fill="none" stroke-width="3.0" stroke-linecap="butt" stroke-opacity="1.0" stroke="rgb(0, 0, 0)" stroke-linejoin="round" d=" M 5846.974, 706.685 5846.006, 704.218 " />
            <path fill="none" stroke-width="3.0" stroke-linecap="butt" stroke-opacity="1.0" stroke="rgb(0, 0, 0)" stroke-linejoin="round" d=" M 5848.064, 709.101 5846.974, 706.685 " />
            <path fill="none" stroke-width="3.0" stroke-linecap="butt" stroke-opacity="1.0" stroke="rgb(0, 0, 0)" stroke-linejoin="round" d=" M 5862.811, 727.592 5860.781, 725.889 " />
            <path fill="none" stroke-width="3.0" stroke-linecap="butt" stroke-opacity="1.0" stroke="rgb(0, 0, 0)" stroke-linejoin="round" d=" M 5874.088, 734.484 5871.701, 733.335 " />
            <path fill="none" stroke-width="3.0" stroke-linecap="butt" stroke-opacity="1.0" stroke="rgb(0, 0, 0)" stroke-linejoin="round" d=" M 5907.773, 737.855 5905.175, 738.380 " />
            <path fill="none" stroke-width="3.0" stroke-linecap="butt" stroke-opacity="1.0" stroke="rgb(0, 0, 0)" stroke-linejoin="round" d=" M 5926.970, 729.193 5924.781, 730.685 " />
            <path fill="none" stroke-width="3.0" stroke-linecap="butt" stroke-opacity="1.0" stroke="rgb(0, 0, 0)" stroke-linejoin="round" d=" M 5934.905, 722.189 5933.055, 724.087 " />
            <path fill="none" stroke-width="3.0" stroke-linecap="butt" stroke-opacity="1.0" stroke="rgb(0, 0, 0)" stroke-linejoin="round" d=" M 6002.710, 23.630 5992.710, 23.630 5982.710, 23.630 5972.710, 23.630 5962.710, 23.630 5952.710, 23.630 5942.710, 23.630 5932.710, 23.630 5922.710, 23.631 5912.710, 23.631 5902.710, 23.631 5892.710, 23.631 5882.710, 23.631 5872.710, 23.631 5862.710, 23.631 5852.710, 23.631 5842.710, 23.631 5832.710, 23.631 5822.710, 23.631 5812.710, 23.631 5802.710, 23.631 5792.710, 23.631 5782.710, 23.631 5772.710, 23.632 5762.710, 23.632 5752.710, 23.632 5742.710, 23.632 5732.710, 23.632 5722.710, 23.632 5712.710, 23.632 5702.710, 23.632 5692.710, 23.632 5682.710, 23.632 5672.710, 23.632 5662.710, 23.632 5652.710, 23.632 5642.710, 23.632 5632.710, 23.632 5622.710, 23.632 5612.710, 23.633 5602.710, 23.633 5592.710, 23.633 5582.710, 23.633 5572.710, 23.633 5562.710, 23.633 5552.710, 23.633 5542.710, 23.633 5532.710, 23.633 5522.710, 23.633 5512.710, 23.633 5502.710, 23.633 5492.710, 23.633 5482.710, 23.633 5472.710, 23.633 5462.710, 23.633 5452.710, 23.634 5442.710, 23.634 5432.710, 23.634 5422.710, 23.634 5412.710, 23.634 5402.710, 23.634 5392.710, 23.634 5382.710, 23.634 5372.710, 23.634 5362.710, 23.634 5352.710, 23.634 5342.710, 23.634 5332.710, 23.634 5322.710, 23.634 5312.821, 23.634 " />
            <path fill="none" stroke-width="3.0" stroke-linecap="butt" stroke-opacity="1.0" stroke="rgb(0, 0, 0)" stroke-linejoin="round" d=" M 6413.848, 23.719 6413.077, 23.719 " />
            <path fill="none" stroke-width="3.0" stroke-linecap="butt" stroke-opacity="1.0" stroke="rgb(0, 0, 0)" stroke-linejoin="round" d=" M 6414.636, 23.719 6413.848, 23.719 " />
            <path fill="none" stroke-width="3.0" stroke-linecap="butt" stroke-opacity="1.0" stroke="rgb(0, 0, 0)" stroke-linejoin="round" d=" M 6415.437, 23.719 6414.636, 23.719 " />
            <path fill="none" stroke-width="3.0" stroke-linecap="butt" stroke-opacity="1.0" stroke="rgb(0, 0, 0)" stroke-linejoin="round" d=" M 6417.969, 23.627 6417.969, 23.627 6417.069, 23.719 " />
            <path fill="none" stroke-width="3.0" stroke-linecap="butt" stroke-opacity="1.0" stroke="rgb(0, 0, 0)" stroke-linejoin="round" d=" M 7197.458, 1674.730 7195.460, 1664.932 7193.463, 1655.133 7191.465, 1645.335 7189.468, 1635.536 7187.471, 1625.738 7185.473, 1615.939 7183.476, 1606.141 7181.479, 1596.342 7179.481, 1586.544 7177.484, 1576.745 7175.486, 1566.947 7173.489, 1557.148 7171.492, 1547.350 7169.494, 1537.551 7167.497, 1527.753 7165.500, 1517.954 7163.502, 1508.156 7161.505, 1498.357 7159.508, 1488.559 7157.510, 1478.760 7155.513, 1468.962 7153.516, 1459.163 7151.518, 1449.365 7149.521, 1439.566 7147.523, 1429.768 7145.526, 1419.969 7143.529, 1410.171 7141.531, 1400.372 7139.534, 1390.574 7137.537, 1380.775 7135.539, 1370.977 7133.542, 1361.178 7131.544, 1351.380 7129.547, 1341.581 7127.550, 1331.783 7125.553, 1321.984 7123.555, 1312.186 7121.558, 1302.387 7119.561, 1292.589 7117.563, 1282.790 7115.566, 1272.992 7113.568, 1263.193 7111.571, 1253.395 7109.574, 1243.596 7107.576, 1233.798 7105.579, 1223.999 7103.582, 1214.201 7102.039, 1206.632 " />
            <path fill="none" stroke-width="3.0" stroke-linecap="butt" stroke-opacity="1.0" stroke="rgb(0, 0, 0)" stroke-linejoin="round" d=" M 7264.888, 1824.385 7260.780, 1815.267 7256.672, 1806.150 7252.564, 1797.033 7248.456, 1787.916 7244.348, 1778.798 7240.240, 1769.681 7236.132, 1760.564 7232.024, 1751.447 7227.916, 1742.329 7223.808, 1733.212 7219.700, 1724.095 7215.592, 1714.978 7211.484, 1705.860 7207.376, 1696.743 7203.268, 1687.626 7199.160, 1678.509 7197.458, 1674.730 " />
        </g>
    </g>
<g id="slice-labels"><text x="541.328857142857" y="473.81575" text-anchor="middle" dominant-baseline="middle" font-family="Arial, sans-serif" font-size="59.0508670599466" font-weight="bold" fill="black" stroke="none" stroke-width="7.086104047193591" paint-order="stroke fill">Slice32 (Back)</text><text x="1575.7225714285714" y="473.81575" text-anchor="middle" dominant-baseline="middle" font-family="Arial, sans-serif" font-size="59.0508670599466" font-weight="bold" fill="black" stroke="none" stroke-width="7.086104047193591" paint-order="stroke fill">Slice32 (Back)</text><text x="2610.116285714286" y="473.81575" text-anchor="middle" dominant-baseline="middle" font-family="Arial, sans-serif" font-size="59.0508670599466" font-weight="bold" fill="black" stroke="none" stroke-width="7.086104047193591" paint-order="stroke fill">Slice32 (Back)</text><text x="3644.51" y="473.81575" text-anchor="middle" dominant-baseline="middle" font-family="Arial, sans-serif" font-size="59.0508670599466" font-weight="bold" fill="black" stroke="none" stroke-width="7.086104047193591" paint-order="stroke fill">Slice32 (Back)</text><text x="4678.903714285714" y="473.81575" text-anchor="middle" dominant-baseline="middle" font-family="Arial, sans-serif" font-size="59.0508670599466" font-weight="bold" fill="black" stroke="none" stroke-width="7.086104047193591" paint-order="stroke fill">Slice32 (Back)</text><text x="5713.297428571428" y="473.81575" text-anchor="middle" dominant-baseline="middle" font-family="Arial, sans-serif" font-size="59.0508670599466" font-weight="bold" fill="black" stroke="none" stroke-width="7.086104047193591" paint-order="stroke fill">Slice32 (Back)</text><text x="6747.691142857143" y="473.81575" text-anchor="middle" dominant-baseline="middle" font-family="Arial, sans-serif" font-size="59.0508670599466" font-weight="bold" fill="black" stroke="none" stroke-width="7.086104047193591" paint-order="stroke fill">Slice32 (Back)</text><text x="541.328857142857" y="1374.19525" text-anchor="middle" dominant-baseline="middle" font-family="Arial, sans-serif" font-size="59.0508670599466" font-weight="bold" fill="black" stroke="none" stroke-width="7.086104047193591" paint-order="stroke fill">Slice32 (Back)</text><text x="1575.7225714285714" y="1374.19525" text-anchor="middle" dominant-baseline="middle" font-family="Arial, sans-serif" font-size="59.0508670599466" font-weight="bold" fill="black" stroke="none" stroke-width="7.086104047193591" paint-order="stroke fill">Slice32 (Back)</text><text x="2610.116285714286" y="1374.19525" text-anchor="middle" dominant-baseline="middle" font-family="Arial, sans-serif" font-size="59.0508670599466" font-weight="bold" fill="black" stroke="none" stroke-width="7.086104047193591" paint-order="stroke fill">Slice32 (Back)</text><text x="3644.51" y="1374.19525" text-anchor="middle" dominant-baseline="middle" font-family="Arial, sans-serif" font-size="59.0508670599466" font-weight="bold" fill="black" stroke="none" stroke-width="7.086104047193591" paint-order="stroke fill">Slice32 (Back)</text><text x="4678.903714285714" y="1374.19525" text-anchor="middle" dominant-baseline="middle" font-family="Arial, sans-serif" font-size="59.0508670599466" font-weight="bold" fill="black" stroke="none" stroke-width="7.086104047193591" paint-order="stroke fill">Slice32 (Back)</text><text x="5713.297428571428" y="1374.19525" text-anchor="middle" dominant-baseline="middle" font-family="Arial, sans-serif" font-size="59.0508670599466" font-weight="bold" fill="black" stroke="none" stroke-width="7.086104047193591" paint-order="stroke fill">Slice32 (Back)</text><text x="6747.691142857143" y="1374.19525" text-anchor="middle" dominant-baseline="middle" font-family="Arial, sans-serif" font-size="59.0508670599466" font-weight="bold" fill="black" stroke="none" stroke-width="7.086104047193591" paint-order="stroke fill">Slice32 (Back)</text></g></svg>