<?xml version='1.0' encoding='utf-8'?>
<svg xmlns="http://www.w3.org/2000/svg" xmlns:inkscape="http://www.inkscape.org/namespaces/inkscape" version="1.1" width="163.38610211014748mm" height="106.71799564361572mm" viewBox="0.4653727754693513 0.0053772379717749175 1929.0692544490614 1259.9992455240565" preserveAspectRatio="none">
    <g id="ViewLayer_LineSet" inkscape:groupmode="lineset" inkscape:label="ViewLayer_LineSet">
        <g inkscape:groupmode="layer" id="strokes" inkscape:label="strokes">
            <path fill="none" stroke-width="3.0" stroke-linecap="butt" stroke-opacity="1.0" stroke="rgb(0, 0, 0)" stroke-linejoin="round" d=" M 454.291, 23.619 451.084, 33.091 447.878, 42.563 444.672, 52.035 441.466, 61.507 438.260, 70.979 435.054, 80.451 431.848, 89.923 428.642, 99.396 425.436, 108.868 422.230, 118.340 419.023, 127.812 415.817, 137.284 412.611, 146.756 409.405, 156.228 406.199, 165.700 403.465, 173.778 399.819, 183.090 396.173, 192.401 392.527, 201.713 388.881, 211.025 385.234, 220.336 381.588, 229.648 377.942, 238.960 374.296, 248.271 370.650, 257.583 367.004, 266.894 363.358, 276.206 359.712, 285.518 356.066, 294.829 352.420, 304.141 348.774, 313.453 345.128, 322.764 341.482, 332.076 337.836, 341.387 334.190, 350.699 330.544, 360.011 326.898, 369.322 323.252, 378.634 319.605, 387.946 315.959, 397.257 312.313, 406.569 308.667, 415.880 305.021, 425.192 303.398, 429.337 298.412, 438.005 293.426, 446.673 288.440, 455.341 283.453, 464.009 278.467, 472.678 273.481, 481.346 268.495, 490.014 263.508, 498.682 258.522, 507.350 253.536, 516.018 248.550, 524.687 243.563, 533.355 238.577, 542.023 233.591, 550.691 228.605, 559.359 223.618, 568.028 218.632, 576.696 213.646, 585.364 211.876, 588.442 " />
            <path fill="none" stroke-width="3.0" stroke-linecap="butt" stroke-opacity="1.0" stroke="rgb(0, 0, 0)" stroke-linejoin="round" d=" M 829.643, 293.215 832.161, 290.633 834.804, 288.181 837.566, 285.863 840.440, 283.686 843.420, 281.655 846.497, 279.774 849.663, 278.050 852.912, 276.485 856.234, 275.085 859.623, 273.852 863.069, 272.789 866.563, 271.899 870.097, 271.185 873.663, 270.647 877.251, 270.288 880.852, 270.109 884.458, 270.109 888.059, 270.288 891.647, 270.647 895.212, 271.185 898.747, 271.899 902.241, 272.789 905.687, 273.852 909.075, 275.085 912.398, 276.485 915.647, 278.050 918.813, 279.774 921.890, 281.655 924.869, 283.686 927.744, 285.863 930.506, 288.181 933.149, 290.633 935.667, 293.215 938.053, 295.918 940.301, 298.737 942.406, 301.665 944.362, 304.694 946.165, 307.817 947.810, 311.026 949.293, 314.313 950.610, 317.669 951.759, 321.087 952.735, 324.558 953.538, 328.073 954.164, 331.625 954.612, 335.202 954.882, 338.798 954.971, 342.403 954.882, 346.007 954.612, 349.603 954.164, 353.181 953.538, 356.732 952.735, 360.247 951.759, 363.718 950.610, 367.136 949.293, 370.493 947.810, 373.780 946.165, 376.988 944.362, 380.111 942.406, 383.140 940.301, 386.068 938.053, 388.887 935.667, 391.591 933.149, 394.172 930.506, 396.624 927.744, 398.942 924.869, 401.119 921.890, 403.151 918.813, 405.031 915.647, 406.755 912.398, 408.320 909.075, 409.721 905.687, 410.954 902.241, 412.017 898.747, 412.906 895.212, 413.621 891.647, 414.158 888.059, 414.517 884.458, 414.697 880.852, 414.697 877.251, 414.517 873.663, 414.158 870.097, 413.621 866.563, 412.906 863.069, 412.017 859.623, 410.954 856.234, 409.721 852.912, 408.320 849.663, 406.755 846.497, 405.031 843.420, 403.151 840.440, 401.119 837.566, 398.942 834.804, 396.624 832.161, 394.172 829.643, 391.591 827.257, 388.887 825.009, 386.068 822.904, 383.140 820.948, 380.111 819.145, 376.988 817.500, 373.780 816.017, 370.493 814.699, 367.136 813.551, 363.718 812.574, 360.247 811.772, 356.732 811.146, 353.181 810.697, 349.603 810.428, 346.007 810.338, 342.403 810.428, 338.798 810.697, 335.202 811.146, 331.625 811.772, 328.073 812.574, 324.558 813.551, 321.087 814.699, 317.669 816.017, 314.313 817.500, 311.026 819.145, 307.817 820.948, 304.694 822.904, 301.665 825.009, 298.737 827.257, 295.918 829.643, 293.215 " />
            <path fill="none" stroke-width="3.0" stroke-linecap="butt" stroke-opacity="1.0" stroke="rgb(0, 0, 0)" stroke-linejoin="round" d=" M 1405.685, 23.619 1395.685, 23.619 1385.685, 23.619 1375.685, 23.619 1365.685, 23.619 1355.685, 23.619 1345.685, 23.619 1335.685, 23.619 1325.685, 23.619 1315.685, 23.619 1305.685, 23.619 1295.685, 23.619 1285.685, 23.619 1275.685, 23.619 1265.685, 23.619 1255.685, 23.619 1245.685, 23.619 1235.685, 23.619 1225.685, 23.619 1215.685, 23.619 1205.685, 23.619 1195.685, 23.619 1185.685, 23.619 1175.685, 23.619 1165.685, 23.619 1155.145, 23.619 1153.147, 23.619 1151.120, 23.619 1149.069, 23.619 1147.001, 23.619 1144.923, 23.619 1142.842, 23.619 1140.765, 23.619 1138.699, 23.619 1136.653, 23.619 1134.633, 23.619 1132.647, 23.619 1130.703, 23.619 1128.807, 23.619 1126.969, 23.619 1125.192, 23.619 1115.192, 23.619 1105.192, 23.619 1095.192, 23.619 1085.192, 23.619 1075.192, 23.619 1065.192, 23.619 1055.192, 23.619 1045.192, 23.619 1035.192, 23.619 1025.192, 23.619 1015.192, 23.619 1005.192, 23.619 995.192, 23.619 985.192, 23.619 975.192, 23.619 965.192, 23.619 955.192, 23.619 945.192, 23.619 935.192, 23.619 925.192, 23.619 915.192, 23.619 905.192, 23.619 895.192, 23.619 885.192, 23.619 875.192, 23.619 865.192, 23.619 855.192, 23.619 845.192, 23.619 835.192, 23.619 825.192, 23.619 815.192, 23.619 805.192, 23.619 795.192, 23.619 785.192, 23.619 772.296, 23.619 770.133, 23.619 767.915, 23.619 765.651, 23.619 763.346, 23.619 761.010, 23.619 758.650, 23.619 756.273, 23.619 753.888, 23.619 751.502, 23.619 749.124, 23.619 746.760, 23.619 736.760, 23.619 726.760, 23.619 716.760, 23.619 706.760, 23.619 696.760, 23.619 686.760, 23.619 676.760, 23.619 666.760, 23.619 656.760, 23.619 646.760, 23.619 636.760, 23.619 626.760, 23.619 616.760, 23.619 606.760, 23.619 596.760, 23.619 586.760, 23.619 576.760, 23.619 566.760, 23.619 556.760, 23.619 546.760, 23.619 536.760, 23.619 526.760, 23.619 516.760, 23.619 506.760, 23.619 496.760, 23.619 486.760, 23.619 476.760, 23.619 466.760, 23.619 454.291, 23.619 " />
            <path fill="none" stroke-width="3.0" stroke-linecap="butt" stroke-opacity="1.0" stroke="rgb(0, 0, 0)" stroke-linejoin="round" d=" M 1563.403, 340.438 1558.585, 331.676 1553.766, 322.914 1548.947, 314.151 1544.128, 305.389 1539.309, 296.626 1534.491, 287.864 1529.672, 279.102 1524.853, 270.339 1520.034, 261.577 1515.215, 252.815 1510.396, 244.052 1505.578, 235.290 1500.759, 226.528 1495.940, 217.765 1491.121, 209.003 1486.302, 200.240 1481.484, 191.478 1476.665, 182.716 1471.846, 173.953 1467.027, 165.191 1462.208, 156.429 1457.748, 148.318 1453.895, 139.090 1450.042, 129.862 1446.189, 120.634 1442.337, 111.406 1438.484, 102.178 1434.631, 92.950 1430.778, 83.722 1426.926, 74.494 1423.073, 65.266 1419.220, 56.038 1415.367, 46.810 1411.514, 37.582 1407.662, 28.354 1405.685, 23.619 " />
            <path fill="none" stroke-width="3.0" stroke-linecap="butt" stroke-opacity="1.0" stroke="rgb(0, 0, 0)" stroke-linejoin="round" d=" M 837.319, 896.663 838.756, 894.437 840.303, 892.286 841.954, 890.215 843.707, 888.229 845.557, 886.332 847.499, 884.531 " />
            <path fill="none" stroke-width="3.0" stroke-linecap="butt" stroke-opacity="1.0" stroke="rgb(0, 0, 0)" stroke-linejoin="round" d=" M 847.499, 884.531 849.529, 882.827 851.640, 881.228 853.829, 879.736 856.090, 878.354 858.416, 877.087 860.803, 875.938 863.244, 874.909 865.733, 874.003 868.265, 873.222 870.832, 872.568 873.429, 872.043 " />
            <path fill="none" stroke-width="3.0" stroke-linecap="butt" stroke-opacity="1.0" stroke="rgb(0, 0, 0)" stroke-linejoin="round" d=" M 835.994, 898.957 837.319, 896.663 " />
            <path fill="none" stroke-width="3.0" stroke-linecap="butt" stroke-opacity="1.0" stroke="rgb(0, 0, 0)" stroke-linejoin="round" d=" M 834.786, 901.314 835.994, 898.957 " />
            <path fill="none" stroke-width="3.0" stroke-linecap="butt" stroke-opacity="1.0" stroke="rgb(0, 0, 0)" stroke-linejoin="round" d=" M 832.728, 942.539 831.885, 940.027 831.167, 937.478 830.578, 934.895 830.118, 932.286 829.788, 929.657 829.590, 927.015 829.524, 924.367 829.590, 921.719 829.788, 919.077 830.118, 916.448 830.578, 913.839 831.167, 911.257 831.885, 908.706 832.728, 906.195 833.696, 903.729 834.786, 901.314 " />
            <path fill="none" stroke-width="3.0" stroke-linecap="butt" stroke-opacity="1.0" stroke="rgb(0, 0, 0)" stroke-linejoin="round" d=" M 873.429, 872.043 876.048, 871.649 " />
            <path fill="none" stroke-width="3.0" stroke-linecap="butt" stroke-opacity="1.0" stroke="rgb(0, 0, 0)" stroke-linejoin="round" d=" M 876.048, 871.649 878.684, 871.385 " />
            <path fill="none" stroke-width="3.0" stroke-linecap="butt" stroke-opacity="1.0" stroke="rgb(0, 0, 0)" stroke-linejoin="round" d=" M 878.684, 871.385 881.330, 871.253 883.979, 871.253 886.625, 871.385 " />
            <path fill="none" stroke-width="3.0" stroke-linecap="butt" stroke-opacity="1.0" stroke="rgb(0, 0, 0)" stroke-linejoin="round" d=" M 886.625, 871.385 889.261, 871.649 " />
            <path fill="none" stroke-width="3.0" stroke-linecap="butt" stroke-opacity="1.0" stroke="rgb(0, 0, 0)" stroke-linejoin="round" d=" M 889.261, 871.649 891.881, 872.043 " />
            <path fill="none" stroke-width="3.0" stroke-linecap="butt" stroke-opacity="1.0" stroke="rgb(0, 0, 0)" stroke-linejoin="round" d=" M 211.876, 588.442 209.092, 598.046 206.308, 607.651 203.524, 617.256 200.741, 626.860 197.957, 636.465 195.173, 646.070 192.389, 655.675 189.606, 665.279 186.822, 674.884 184.038, 684.489 181.254, 694.094 178.470, 703.698 175.687, 713.303 172.903, 722.908 170.119, 732.512 167.335, 742.117 164.552, 751.722 161.768, 761.327 158.984, 770.931 156.200, 780.536 153.417, 790.141 150.633, 799.745 147.849, 809.350 145.065, 818.955 142.282, 828.560 139.498, 838.164 136.714, 847.769 133.930, 857.374 131.147, 866.979 128.363, 876.583 125.579, 886.188 122.795, 895.793 120.012, 905.397 117.228, 915.002 114.444, 924.607 111.660, 934.212 108.876, 943.816 106.093, 953.421 103.309, 963.026 100.525, 972.630 97.741, 982.235 94.958, 991.840 92.174, 1001.445 89.390, 1011.049 86.606, 1020.654 83.823, 1030.259 81.039, 1039.864 78.255, 1049.468 75.471, 1059.073 72.688, 1068.678 69.904, 1078.282 67.120, 1087.887 64.336, 1097.492 61.553, 1107.097 58.769, 1116.701 55.985, 1126.306 53.201, 1135.911 50.417, 1145.515 47.634, 1155.120 44.850, 1164.725 42.066, 1174.330 39.282, 1183.934 36.499, 1193.539 33.715, 1203.144 30.931, 1212.748 28.147, 1222.353 24.079, 1236.391 34.079, 1236.391 44.079, 1236.391 54.079, 1236.391 64.079, 1236.391 74.079, 1236.391 84.079, 1236.391 94.079, 1236.391 104.079, 1236.391 114.079, 1236.391 124.079, 1236.391 134.079, 1236.391 144.079, 1236.391 154.079, 1236.391 164.079, 1236.391 174.079, 1236.391 184.079, 1236.391 189.866, 1236.391 " />
            <path fill="none" stroke-width="3.0" stroke-linecap="butt" stroke-opacity="1.0" stroke="rgb(0, 0, 0)" stroke-linejoin="round" d=" M 891.881, 872.043 894.478, 872.568 897.045, 873.222 899.576, 874.003 902.066, 874.909 904.507, 875.938 906.893, 877.087 909.220, 878.354 911.481, 879.736 913.669, 881.228 915.781, 882.827 917.811, 884.531 919.753, 886.332 " />
            <path fill="none" stroke-width="3.0" stroke-linecap="butt" stroke-opacity="1.0" stroke="rgb(0, 0, 0)" stroke-linejoin="round" d=" M 189.866, 1236.391 191.276, 1236.391 192.719, 1236.391 194.191, 1236.391 195.688, 1236.391 197.207, 1236.391 198.743, 1236.391 200.292, 1236.391 201.850, 1236.391 203.412, 1236.391 204.973, 1236.391 206.529, 1236.391 208.073, 1236.391 209.602, 1236.391 211.109, 1236.391 212.590, 1236.391 214.038, 1236.391 215.449, 1236.391 216.817, 1236.391 218.137, 1236.391 219.404, 1236.391 220.613, 1236.391 221.760, 1236.391 222.839, 1236.391 223.846, 1236.391 224.778, 1236.391 234.778, 1236.391 244.778, 1236.391 254.778, 1236.391 264.778, 1236.391 274.778, 1236.391 284.778, 1236.391 294.778, 1236.391 304.778, 1236.391 314.778, 1236.391 324.778, 1236.391 334.778, 1236.391 344.778, 1236.391 354.778, 1236.391 364.778, 1236.391 374.778, 1236.391 384.778, 1236.391 394.778, 1236.391 404.778, 1236.391 414.778, 1236.391 424.778, 1236.391 434.778, 1236.391 444.778, 1236.391 454.778, 1236.391 464.778, 1236.391 474.778, 1236.391 484.778, 1236.391 494.778, 1236.391 504.778, 1236.391 514.778, 1236.391 524.778, 1236.391 534.778, 1236.391 544.778, 1236.391 554.778, 1236.391 564.778, 1236.391 574.778, 1236.391 584.778, 1236.391 594.778, 1236.391 604.778, 1236.391 616.903, 1236.391 619.129, 1236.391 621.262, 1236.391 623.297, 1236.391 625.226, 1236.391 635.226, 1236.391 645.226, 1236.391 655.226, 1236.391 665.226, 1236.391 675.226, 1236.391 685.226, 1236.391 695.226, 1236.391 705.226, 1236.391 715.226, 1236.391 725.226, 1236.391 735.226, 1236.391 745.226, 1236.391 755.226, 1236.391 765.226, 1236.391 775.226, 1236.391 785.226, 1236.391 795.226, 1236.391 805.226, 1236.391 815.226, 1236.391 825.226, 1236.391 835.226, 1236.391 845.226, 1236.391 855.226, 1236.391 865.226, 1236.391 875.226, 1236.391 885.226, 1236.391 895.226, 1236.391 905.226, 1236.391 915.226, 1236.391 925.226, 1236.391 935.226, 1236.391 945.226, 1236.391 955.226, 1236.391 965.226, 1236.391 975.226, 1236.391 985.226, 1236.391 995.226, 1236.391 1005.226, 1236.391 1015.226, 1236.391 1025.226, 1236.391 1035.226, 1236.391 1045.226, 1236.391 1055.226, 1236.391 1065.226, 1236.391 1075.226, 1236.391 1085.226, 1236.391 1095.226, 1236.391 1105.226, 1236.391 1115.226, 1236.391 1125.226, 1236.391 1135.226, 1236.391 1145.226, 1236.391 1155.226, 1236.391 1165.226, 1236.391 1175.226, 1236.391 1185.226, 1236.391 1195.226, 1236.391 1205.226, 1236.391 1215.226, 1236.391 1225.226, 1236.391 1235.226, 1236.391 1245.226, 1236.391 1255.226, 1236.391 1265.226, 1236.391 1275.226, 1236.391 1285.226, 1236.391 1295.226, 1236.391 1305.226, 1236.391 1315.226, 1236.391 1325.226, 1236.391 1335.226, 1236.391 1345.226, 1236.391 1355.226, 1236.391 1365.226, 1236.391 1375.226, 1236.391 1385.226, 1236.391 1395.226, 1236.391 1405.226, 1236.391 1413.603, 1236.391 1415.304, 1236.391 1417.136, 1236.391 1419.095, 1236.391 1421.172, 1236.391 1423.361, 1236.391 1425.654, 1236.391 1428.045, 1236.391 1430.524, 1236.391 1440.524, 1236.391 1450.524, 1236.391 1460.524, 1236.391 1470.524, 1236.391 1480.524, 1236.391 1490.524, 1236.391 1500.524, 1236.391 1510.524, 1236.391 1520.524, 1236.391 1530.524, 1236.391 1540.524, 1236.391 1550.524, 1236.391 1560.524, 1236.391 1570.524, 1236.391 1580.524, 1236.391 1590.524, 1236.391 1600.524, 1236.391 1610.524, 1236.391 1620.524, 1236.391 1630.524, 1236.391 1640.524, 1236.391 1650.524, 1236.391 1660.524, 1236.391 1670.524, 1236.391 1679.539, 1236.391 1681.113, 1236.391 1682.745, 1236.391 1684.429, 1236.391 1686.157, 1236.391 1687.925, 1236.391 1689.725, 1236.391 1699.725, 1236.391 1709.725, 1236.391 1719.725, 1236.391 1729.725, 1236.391 1739.725, 1236.391 1749.725, 1236.391 1759.725, 1236.391 1769.725, 1236.391 1779.725, 1236.391 1789.725, 1236.391 1799.725, 1236.391 1809.725, 1236.391 1819.725, 1236.391 1829.725, 1236.391 1839.725, 1236.391 1849.725, 1236.391 1859.725, 1236.391 1869.725, 1236.391 1879.725, 1236.391 1889.725, 1236.391 1899.725, 1236.391 1905.921, 1236.391 " />
            <path fill="none" stroke-width="3.0" stroke-linecap="butt" stroke-opacity="1.0" stroke="rgb(0, 0, 0)" stroke-linejoin="round" d=" M 837.319, 952.071 835.994, 949.777 834.786, 947.420 833.696, 945.005 " />
            <path fill="none" stroke-width="3.0" stroke-linecap="butt" stroke-opacity="1.0" stroke="rgb(0, 0, 0)" stroke-linejoin="round" d=" M 863.244, 973.825 860.803, 972.796 858.416, 971.647 856.090, 970.380 853.829, 968.998 851.640, 967.506 849.529, 965.906 847.499, 964.204 845.557, 962.402 843.707, 960.505 841.954, 958.519 840.303, 956.447 838.756, 954.297 837.319, 952.071 " />
            <path fill="none" stroke-width="3.0" stroke-linecap="butt" stroke-opacity="1.0" stroke="rgb(0, 0, 0)" stroke-linejoin="round" d=" M 919.753, 886.332 921.602, 888.229 923.355, 890.215 925.007, 892.286 926.553, 894.437 927.991, 896.663 929.315, 898.957 930.524, 901.314 931.614, 903.729 932.581, 906.195 933.425, 908.706 934.143, 911.257 934.732, 913.839 " />
            <path fill="none" stroke-width="3.0" stroke-linecap="butt" stroke-opacity="1.0" stroke="rgb(0, 0, 0)" stroke-linejoin="round" d=" M 886.625, 977.349 883.979, 977.481 881.330, 977.481 878.684, 977.349 876.048, 977.086 873.429, 976.691 870.832, 976.166 868.265, 975.512 865.733, 974.731 " />
            <path fill="none" stroke-width="3.0" stroke-linecap="butt" stroke-opacity="1.0" stroke="rgb(0, 0, 0)" stroke-linejoin="round" d=" M 935.192, 916.448 935.521, 919.077 935.720, 921.719 935.785, 924.367 935.720, 927.015 935.521, 929.657 935.192, 932.286 " />
            <path fill="none" stroke-width="3.0" stroke-linecap="butt" stroke-opacity="1.0" stroke="rgb(0, 0, 0)" stroke-linejoin="round" d=" M 935.192, 932.286 934.732, 934.895 934.143, 937.478 933.425, 940.027 932.581, 942.539 " />
            <path fill="none" stroke-width="3.0" stroke-linecap="butt" stroke-opacity="1.0" stroke="rgb(0, 0, 0)" stroke-linejoin="round" d=" M 931.614, 945.005 930.524, 947.420 929.315, 949.777 927.991, 952.071 926.553, 954.297 925.007, 956.447 " />
            <path fill="none" stroke-width="3.0" stroke-linecap="butt" stroke-opacity="1.0" stroke="rgb(0, 0, 0)" stroke-linejoin="round" d=" M 934.732, 913.839 935.192, 916.448 " />
            <path fill="none" stroke-width="3.0" stroke-linecap="butt" stroke-opacity="1.0" stroke="rgb(0, 0, 0)" stroke-linejoin="round" d=" M 921.602, 960.505 919.753, 962.402 917.811, 964.204 915.781, 965.906 913.669, 967.506 911.481, 968.998 909.220, 970.380 906.893, 971.647 " />
            <path fill="none" stroke-width="3.0" stroke-linecap="butt" stroke-opacity="1.0" stroke="rgb(0, 0, 0)" stroke-linejoin="round" d=" M 906.893, 971.647 904.507, 972.796 902.066, 973.825 899.576, 974.731 " />
            <path fill="none" stroke-width="3.0" stroke-linecap="butt" stroke-opacity="1.0" stroke="rgb(0, 0, 0)" stroke-linejoin="round" d=" M 897.045, 975.512 894.478, 976.166 891.881, 976.691 889.261, 977.086 " />
            <path fill="none" stroke-width="3.0" stroke-linecap="butt" stroke-opacity="1.0" stroke="rgb(0, 0, 0)" stroke-linejoin="round" d=" M 833.696, 945.005 832.728, 942.539 " />
            <path fill="none" stroke-width="3.0" stroke-linecap="butt" stroke-opacity="1.0" stroke="rgb(0, 0, 0)" stroke-linejoin="round" d=" M 865.733, 974.731 863.244, 973.825 " />
            <path fill="none" stroke-width="3.0" stroke-linecap="butt" stroke-opacity="1.0" stroke="rgb(0, 0, 0)" stroke-linejoin="round" d=" M 889.261, 977.086 886.625, 977.349 " />
            <path fill="none" stroke-width="3.0" stroke-linecap="butt" stroke-opacity="1.0" stroke="rgb(0, 0, 0)" stroke-linejoin="round" d=" M 899.576, 974.731 897.045, 975.512 " />
            <path fill="none" stroke-width="3.0" stroke-linecap="butt" stroke-opacity="1.0" stroke="rgb(0, 0, 0)" stroke-linejoin="round" d=" M 923.355, 958.519 921.602, 960.505 " />
            <path fill="none" stroke-width="3.0" stroke-linecap="butt" stroke-opacity="1.0" stroke="rgb(0, 0, 0)" stroke-linejoin="round" d=" M 925.007, 956.447 923.355, 958.519 " />
            <path fill="none" stroke-width="3.0" stroke-linecap="butt" stroke-opacity="1.0" stroke="rgb(0, 0, 0)" stroke-linejoin="round" d=" M 932.581, 942.539 931.614, 945.005 " />
            <path fill="none" stroke-width="3.0" stroke-linecap="butt" stroke-opacity="1.0" stroke="rgb(0, 0, 0)" stroke-linejoin="round" d=" M 1767.638, 966.881 1764.538, 957.373 1761.438, 947.866 1758.339, 938.358 1755.239, 928.851 1752.139, 919.344 1749.040, 909.836 1745.940, 900.329 1742.840, 890.821 1739.741, 881.314 1736.641, 871.806 1733.542, 862.299 1730.442, 852.791 1727.342, 843.284 1724.243, 833.776 1721.143, 824.269 1718.043, 814.761 1714.944, 805.254 1711.844, 795.746 1708.744, 786.239 1705.645, 776.731 1702.545, 767.224 1699.445, 757.716 1696.346, 748.209 1693.246, 738.701 1690.146, 729.194 1687.047, 719.686 1683.947, 710.179 1680.847, 700.672 1677.748, 691.164 1674.648, 681.657 1671.548, 672.149 1668.449, 662.642 1665.349, 653.134 1662.250, 643.627 1659.150, 634.119 1656.050, 624.612 1652.951, 615.104 1649.851, 605.597 1646.751, 596.089 1643.652, 586.582 1640.552, 577.074 1637.452, 567.567 1634.353, 558.059 1631.253, 548.552 1628.153, 539.044 1625.054, 529.537 1621.954, 520.029 1618.854, 510.522 1615.755, 501.014 1612.655, 491.507 1609.556, 481.999 1606.456, 472.492 1603.356, 462.984 1600.257, 453.477 1597.157, 443.970 1594.057, 434.462 1590.958, 424.955 1587.858, 415.447 1584.758, 405.940 1581.659, 396.432 1578.559, 386.925 1575.459, 377.417 1572.360, 367.910 1569.260, 358.402 1566.160, 348.895 1563.403, 340.438 " />
            <path fill="none" stroke-width="3.0" stroke-linecap="butt" stroke-opacity="1.0" stroke="rgb(0, 0, 0)" stroke-linejoin="round" d=" M 1905.921, 1236.391 1901.356, 1227.494 1896.791, 1218.597 1892.226, 1209.700 1887.661, 1200.803 1883.096, 1191.905 1878.531, 1183.008 1873.966, 1174.111 1869.401, 1165.214 1864.836, 1156.317 1860.271, 1147.419 1855.705, 1138.522 1851.140, 1129.625 1846.575, 1120.728 1842.010, 1111.831 1837.445, 1102.933 1832.880, 1094.036 1828.315, 1085.139 1823.750, 1076.242 1819.185, 1067.345 1814.620, 1058.447 1810.055, 1049.550 1805.490, 1040.653 1800.924, 1031.756 1796.359, 1022.859 1791.794, 1013.962 1787.229, 1005.064 1782.664, 996.167 1778.099, 987.270 1773.534, 978.373 1767.638, 966.881 " />
        </g>
    </g>
<g id="slice-labels"><text x="494.53950000000003" y="326.812" text-anchor="middle" dominant-baseline="middle" font-family="Arial, sans-serif" font-size="59.03405690507056" font-weight="bold" fill="black" stroke="none" stroke-width="7.084086828608467" paint-order="stroke fill">Slice51 (Front)</text><text x="1435.4605" y="326.812" text-anchor="middle" dominant-baseline="middle" font-family="Arial, sans-serif" font-size="59.03405690507056" font-weight="bold" fill="black" stroke="none" stroke-width="7.084086828608467" paint-order="stroke fill">Slice51 (Front)</text><text x="494.53950000000003" y="933.1980000000002" text-anchor="middle" dominant-baseline="middle" font-family="Arial, sans-serif" font-size="59.03405690507056" font-weight="bold" fill="black" stroke="none" stroke-width="7.084086828608467" paint-order="stroke fill">Slice51 (Front)</text><text x="1435.4605" y="933.1980000000002" text-anchor="middle" dominant-baseline="middle" font-family="Arial, sans-serif" font-size="59.03405690507056" font-weight="bold" fill="black" stroke="none" stroke-width="7.084086828608467" paint-order="stroke fill">Slice51 (Front)</text></g></svg>