<?xml version='1.0' encoding='utf-8'?>
<svg xmlns="http://www.w3.org/2000/svg" xmlns:inkscape="http://www.inkscape.org/namespaces/inkscape" version="1.1" width="128.91494417190552mm" height="116.95485496520996mm" viewBox="0.38805861239236705 0.005051833614416523 1522.2238827752155 1380.999896332771" preserveAspectRatio="none">
    <g id="ViewLayer_LineSet" inkscape:groupmode="lineset" inkscape:label="ViewLayer_LineSet">
        <g inkscape:groupmode="layer" id="strokes" inkscape:label="strokes">
            <path fill="none" stroke-width="3.0" stroke-linecap="butt" stroke-opacity="1.0" stroke="rgb(0, 0, 0)" stroke-linejoin="round" d=" M 535.889, 1357.309 530.506, 1348.881 525.122, 1340.454 519.739, 1332.027 514.356, 1323.600 508.972, 1315.172 503.589, 1306.745 498.205, 1298.318 492.822, 1289.890 487.439, 1281.463 482.055, 1273.036 476.672, 1264.609 471.288, 1256.181 465.905, 1247.754 460.522, 1239.327 455.138, 1230.900 449.755, 1222.472 444.371, 1214.045 438.988, 1205.618 433.605, 1197.190 428.221, 1188.763 422.838, 1180.336 417.454, 1171.909 414.978, 1168.032 " />
            <path fill="none" stroke-width="3.0" stroke-linecap="butt" stroke-opacity="1.0" stroke="rgb(0, 0, 0)" stroke-linejoin="round" d=" M 650.000, 695.936 647.482, 698.518 644.838, 700.971 642.076, 703.289 639.201, 705.466 636.221, 707.498 633.144, 709.378 629.977, 711.103 626.728, 712.667 623.405, 714.068 620.017, 715.302 616.570, 716.364 613.076, 717.254 609.541, 717.969 605.976, 718.506 602.387, 718.866 598.785, 719.045 595.179, 719.045 591.578, 718.866 587.989, 718.506 584.423, 717.969 580.889, 717.254 577.394, 716.364 573.948, 715.302 570.560, 714.068 567.237, 712.667 563.987, 711.103 560.820, 709.378 557.743, 707.498 554.764, 705.466 551.889, 703.289 549.127, 700.971 546.483, 698.518 543.965, 695.936 541.579, 693.232 539.331, 690.413 537.226, 687.486 535.269, 684.456 533.466, 681.333 531.821, 678.123 530.338, 674.837 529.020, 671.480 527.872, 668.062 526.895, 664.590 526.092, 661.074 525.466, 657.523 525.018, 653.945 524.748, 650.348 524.659, 646.743 524.748, 643.138 525.018, 639.542 525.466, 635.965 526.092, 632.413 526.895, 628.898 527.872, 625.426 529.020, 622.007 530.338, 618.651 531.821, 615.363 533.466, 612.155 535.269, 609.031 537.226, 606.002 539.331, 603.074 541.579, 600.255 543.965, 597.551 546.483, 594.970 549.127, 592.516 551.889, 590.199 554.764, 588.022 557.743, 585.990 560.820, 584.109 563.987, 582.385 567.237, 580.820 570.560, 579.419 573.948, 578.186 577.394, 577.123 580.889, 576.233 584.423, 575.519 587.989, 574.981 591.578, 574.622 595.179, 574.442 598.785, 574.442 602.387, 574.622 605.976, 574.981 609.541, 575.519 613.076, 576.233 616.570, 577.123 620.017, 578.186 623.405, 579.419 626.728, 580.820 629.977, 582.385 633.144, 584.109 636.221, 585.990 639.201, 588.022 642.076, 590.199 644.838, 592.516 647.482, 594.970 650.000, 597.551 652.386, 600.255 654.634, 603.074 656.739, 606.002 658.696, 609.031 660.499, 612.155 662.144, 615.363 663.627, 618.651 664.945, 622.007 666.093, 625.426 667.070, 628.898 667.872, 632.413 668.499, 635.965 668.947, 639.542 669.216, 643.138 669.307, 646.743 669.216, 650.348 668.947, 653.945 668.499, 657.523 667.872, 661.074 667.070, 664.590 666.093, 668.062 664.945, 671.480 663.627, 674.837 662.144, 678.123 660.499, 681.333 658.696, 684.456 656.739, 687.486 654.634, 690.413 652.386, 693.232 650.000, 695.936 " />
            <path fill="none" stroke-width="3.0" stroke-linecap="butt" stroke-opacity="1.0" stroke="rgb(0, 0, 0)" stroke-linejoin="round" d=" M 1482.329, 134.486 1483.816, 124.597 1485.303, 114.708 1486.789, 104.819 1488.276, 94.930 1489.763, 85.041 1491.249, 75.152 1492.736, 65.264 1494.223, 55.375 1495.709, 45.486 1497.196, 35.597 1498.682, 25.708 1498.996, 23.621 1488.996, 23.621 1478.996, 23.622 1468.996, 23.622 1458.996, 23.622 1448.996, 23.623 1438.996, 23.623 1438.330, 23.623 1437.803, 23.623 1437.288, 23.623 1436.784, 23.623 1436.294, 23.623 1435.819, 23.623 1435.363, 23.623 1434.925, 23.623 1434.508, 23.623 1424.508, 23.623 1414.508, 23.623 1404.508, 23.624 1394.508, 23.624 1384.508, 23.624 1374.508, 23.624 1364.508, 23.624 1354.508, 23.624 1344.508, 23.625 1334.508, 23.625 1324.508, 23.625 1314.508, 23.625 1304.508, 23.625 1294.508, 23.625 1284.508, 23.626 1274.508, 23.626 1264.508, 23.626 1254.508, 23.626 1244.508, 23.626 1234.508, 23.627 1224.508, 23.627 1214.508, 23.627 1204.508, 23.627 1194.508, 23.627 1184.508, 23.627 1174.508, 23.628 1164.508, 23.628 1154.508, 23.628 1144.508, 23.628 1134.508, 23.628 1124.508, 23.629 1114.508, 23.629 1104.508, 23.629 1094.508, 23.629 1084.508, 23.629 1079.337, 23.629 1077.394, 23.629 1075.498, 23.629 1073.654, 23.629 1071.867, 23.629 1070.144, 23.629 1060.144, 23.630 1050.144, 23.630 1040.144, 23.630 1030.144, 23.630 1020.144, 23.630 1010.144, 23.630 1000.144, 23.631 990.144, 23.631 980.144, 23.631 970.144, 23.631 960.144, 23.631 950.144, 23.632 940.144, 23.632 930.144, 23.632 920.144, 23.632 910.144, 23.632 900.144, 23.633 890.144, 23.633 880.144, 23.633 870.144, 23.633 860.144, 23.633 850.144, 23.634 840.144, 23.634 830.144, 23.634 820.144, 23.634 810.144, 23.634 800.144, 23.635 790.144, 23.635 780.144, 23.635 770.144, 23.635 760.144, 23.635 750.144, 23.636 740.144, 23.636 730.144, 23.636 720.144, 23.636 708.084, 23.636 706.102, 23.636 704.082, 23.636 702.030, 23.636 699.952, 23.636 697.854, 23.636 693.969, 23.636 691.855, 23.636 689.732, 23.636 687.604, 23.636 677.604, 23.637 667.604, 23.637 657.604, 23.637 647.604, 23.637 637.604, 23.637 627.604, 23.638 617.604, 23.638 607.604, 23.638 597.604, 23.638 587.604, 23.638 577.604, 23.638 567.604, 23.639 557.604, 23.639 547.604, 23.639 537.604, 23.639 527.604, 23.639 517.604, 23.640 507.604, 23.640 497.605, 23.640 487.605, 23.640 477.605, 23.640 467.604, 23.641 457.604, 23.641 447.605, 23.641 437.605, 23.641 427.605, 23.641 417.604, 23.641 407.605, 23.642 397.604, 23.642 387.605, 23.642 377.604, 23.642 367.604, 23.642 357.605, 23.643 347.604, 23.643 337.605, 23.643 327.604, 23.643 317.604, 23.643 307.605, 23.644 297.604, 23.644 287.605, 23.644 277.604, 23.644 267.604, 23.644 257.605, 23.645 247.604, 23.645 237.605, 23.645 227.604, 23.645 217.605, 23.645 207.605, 23.646 197.604, 23.646 187.605, 23.646 177.604, 23.646 167.605, 23.646 157.604, 23.646 147.604, 23.647 137.605, 23.647 129.109, 23.647 128.362, 23.647 127.587, 23.647 126.790, 23.647 125.972, 23.647 125.137, 23.647 124.288, 23.647 123.428, 23.647 122.559, 23.647 121.685, 23.647 120.809, 23.647 119.933, 23.647 119.060, 23.647 118.193, 23.648 117.334, 23.648 116.486, 23.648 114.881, 23.650 " />
            <path fill="none" stroke-width="3.0" stroke-linecap="butt" stroke-opacity="1.0" stroke="rgb(0, 0, 0)" stroke-linejoin="round" d=" M 1498.986, 23.683 1488.986, 23.683 1478.986, 23.682 1468.986, 23.682 1458.986, 23.682 1448.986, 23.682 1438.986, 23.681 1428.986, 23.681 1418.986, 23.681 1408.986, 23.681 1398.986, 23.680 1388.986, 23.680 1378.986, 23.680 1368.986, 23.680 1358.986, 23.680 1348.986, 23.679 1338.986, 23.679 1328.986, 23.679 1318.986, 23.679 1308.986, 23.678 1298.986, 23.678 1288.986, 23.678 1278.986, 23.678 1268.986, 23.677 1258.986, 23.677 1248.986, 23.677 1238.986, 23.677 1228.986, 23.676 1218.986, 23.676 1208.986, 23.676 1198.986, 23.676 1188.986, 23.675 1178.986, 23.675 1168.986, 23.675 1158.986, 23.675 1148.986, 23.675 1138.986, 23.674 1128.986, 23.674 1118.986, 23.674 1108.986, 23.674 1098.986, 23.673 1088.986, 23.673 1078.986, 23.673 1068.986, 23.673 1058.986, 23.672 1048.986, 23.672 1038.986, 23.672 1028.986, 23.672 1018.986, 23.671 1008.986, 23.671 998.986, 23.671 988.986, 23.671 978.986, 23.670 968.986, 23.670 958.986, 23.670 948.986, 23.670 938.986, 23.670 928.986, 23.669 918.986, 23.669 908.986, 23.669 898.986, 23.669 888.986, 23.668 878.986, 23.668 868.986, 23.668 858.986, 23.668 848.986, 23.667 838.986, 23.667 828.986, 23.667 818.986, 23.667 808.986, 23.666 798.986, 23.666 788.986, 23.666 778.986, 23.666 768.986, 23.665 758.986, 23.665 748.986, 23.665 738.986, 23.665 728.986, 23.665 718.986, 23.664 708.986, 23.664 698.986, 23.664 688.986, 23.664 678.986, 23.663 668.986, 23.663 658.986, 23.663 648.986, 23.663 638.986, 23.662 628.986, 23.662 618.986, 23.662 608.986, 23.662 598.986, 23.661 588.986, 23.661 578.986, 23.661 568.986, 23.661 558.986, 23.660 548.986, 23.660 538.986, 23.660 528.986, 23.660 518.986, 23.660 508.986, 23.659 498.986, 23.659 488.986, 23.659 478.986, 23.659 468.986, 23.658 458.986, 23.658 448.986, 23.658 438.986, 23.658 428.986, 23.657 418.986, 23.657 408.986, 23.657 398.986, 23.657 388.986, 23.656 378.986, 23.656 368.986, 23.656 358.986, 23.656 348.986, 23.655 338.986, 23.655 328.986, 23.655 318.986, 23.655 308.986, 23.655 298.986, 23.654 288.986, 23.654 278.986, 23.654 268.986, 23.654 258.986, 23.653 248.986, 23.653 238.986, 23.653 228.986, 23.653 218.986, 23.652 208.986, 23.652 198.986, 23.652 188.986, 23.652 178.986, 23.651 168.986, 23.651 158.986, 23.651 148.986, 23.651 138.986, 23.650 128.986, 23.650 114.881, 23.650 104.881, 23.650 94.881, 23.649 84.881, 23.649 74.881, 23.649 64.881, 23.649 54.881, 23.648 52.038, 23.648 42.038, 23.649 32.038, 23.649 24.004, 23.649 26.897, 33.221 29.790, 42.794 32.683, 52.366 35.575, 61.939 38.468, 71.511 41.361, 81.083 44.254, 90.656 47.147, 100.228 50.040, 109.801 52.933, 119.373 55.826, 128.946 58.719, 138.518 61.612, 148.090 64.505, 157.663 67.397, 167.235 70.290, 176.808 73.183, 186.380 76.076, 195.953 78.969, 205.525 81.862, 215.097 84.755, 224.670 87.648, 234.242 90.541, 243.815 93.434, 253.387 96.327, 262.959 99.220, 272.532 102.112, 282.104 105.005, 291.677 107.898, 301.249 110.791, 310.821 113.684, 320.394 116.577, 329.966 119.470, 339.539 122.363, 349.111 125.256, 358.683 128.149, 368.256 131.042, 377.828 133.934, 387.401 136.827, 396.973 139.720, 406.546 142.613, 416.118 145.506, 425.690 148.399, 435.263 151.292, 444.835 154.185, 454.408 157.078, 463.980 159.971, 473.552 162.864, 483.125 165.757, 492.697 168.649, 502.270 171.542, 511.842 174.435, 521.414 177.328, 530.987 180.221, 540.559 183.114, 550.132 186.007, 559.704 188.900, 569.277 191.793, 578.849 194.686, 588.421 197.579, 597.994 200.472, 607.566 203.364, 617.139 206.257, 626.711 209.150, 636.283 212.043, 645.856 214.936, 655.428 217.829, 665.001 220.722, 674.573 223.615, 684.145 226.508, 693.718 229.401, 703.290 232.294, 712.863 235.186, 722.435 238.079, 732.008 242.743, 747.440 " />
            <path fill="none" stroke-width="3.0" stroke-linecap="butt" stroke-opacity="1.0" stroke="rgb(0, 0, 0)" stroke-linejoin="round" d=" M 1498.986, 23.683 1498.984, 23.702 " />
            <path fill="none" stroke-width="3.0" stroke-linecap="butt" stroke-opacity="1.0" stroke="rgb(0, 0, 0)" stroke-linejoin="round" d=" M 1482.329, 134.486 1483.816, 124.597 1485.302, 114.708 1486.789, 104.819 1488.276, 94.930 1489.762, 85.041 1491.249, 75.152 1492.735, 65.264 1494.222, 55.375 1495.709, 45.486 1497.195, 35.597 1498.682, 25.708 1498.984, 23.702 1498.986, 23.683 " />
            <path fill="none" stroke-width="3.0" stroke-linecap="butt" stroke-opacity="1.0" stroke="rgb(0, 0, 0)" stroke-linejoin="round" d=" M 1498.996, 23.621 1498.986, 23.683 " />
            <path fill="none" stroke-width="3.0" stroke-linecap="butt" stroke-opacity="1.0" stroke="rgb(0, 0, 0)" stroke-linejoin="round" d=" M 535.940, 1357.389 545.940, 1357.389 555.940, 1357.389 565.940, 1357.389 575.940, 1357.389 585.940, 1357.389 595.940, 1357.389 605.940, 1357.389 615.940, 1357.389 625.940, 1357.389 635.940, 1357.389 645.940, 1357.389 655.940, 1357.389 665.940, 1357.389 675.940, 1357.389 685.940, 1357.389 695.940, 1357.389 705.940, 1357.389 715.940, 1357.389 725.940, 1357.389 735.940, 1357.389 745.940, 1357.389 755.940, 1357.389 765.940, 1357.389 775.940, 1357.389 785.940, 1357.389 795.940, 1357.389 806.319, 1357.389 807.385, 1357.389 808.455, 1357.389 809.526, 1357.389 810.594, 1357.389 811.657, 1357.389 812.711, 1357.389 813.752, 1357.389 814.778, 1357.389 815.786, 1357.389 816.772, 1357.389 826.772, 1357.389 836.772, 1357.389 846.772, 1357.389 856.772, 1357.389 866.772, 1357.389 876.772, 1357.389 886.772, 1357.389 896.772, 1357.389 906.772, 1357.389 916.772, 1357.389 926.772, 1357.389 936.772, 1357.389 946.772, 1357.389 956.772, 1357.389 966.772, 1357.389 976.772, 1357.389 986.772, 1357.389 996.772, 1357.389 1006.772, 1357.389 1016.772, 1357.389 1026.772, 1357.389 1036.772, 1357.389 1046.772, 1357.389 1056.772, 1357.389 1066.772, 1357.389 1076.772, 1357.389 1086.772, 1357.389 1096.772, 1357.389 1106.772, 1357.389 1116.772, 1357.389 1126.772, 1357.389 1136.772, 1357.389 1146.772, 1357.389 1156.772, 1357.389 1166.772, 1357.389 1176.772, 1357.389 1186.772, 1357.389 1196.772, 1357.389 1206.772, 1357.389 1216.772, 1357.389 1226.772, 1357.389 1236.935, 1357.389 1246.935, 1357.389 1256.935, 1357.389 1266.935, 1357.389 1275.743, 1357.389 1285.743, 1357.389 1295.743, 1357.389 1305.743, 1357.389 1315.743, 1357.389 1325.743, 1357.389 1335.743, 1357.389 1345.743, 1357.389 1355.743, 1357.389 1365.743, 1357.389 1375.743, 1357.389 1385.743, 1357.389 1395.743, 1357.389 1405.743, 1357.389 1415.743, 1357.389 1425.743, 1357.389 1435.743, 1357.389 1445.743, 1357.389 1455.743, 1357.389 1465.712, 1357.389 1465.051, 1347.411 1464.389, 1337.433 1463.728, 1327.455 1463.066, 1317.477 1462.405, 1307.498 1461.743, 1297.520 1461.081, 1287.542 1460.420, 1277.564 1459.758, 1267.586 1459.097, 1257.608 1458.435, 1247.630 1457.774, 1237.652 1457.578, 1234.707 1454.879, 1225.078 1452.180, 1215.449 1449.481, 1205.820 1446.783, 1196.192 1444.084, 1186.563 1441.385, 1176.934 1438.686, 1167.305 1435.987, 1157.676 1433.288, 1148.047 1430.589, 1138.418 1427.890, 1128.789 1425.191, 1119.160 1422.492, 1109.531 1421.839, 1107.202 1418.033, 1097.954 1414.228, 1088.707 1410.422, 1079.459 1406.616, 1070.212 1402.811, 1060.964 1399.005, 1051.717 1395.199, 1042.469 1391.394, 1033.222 1387.588, 1023.974 1383.782, 1014.727 1379.977, 1005.479 1376.171, 996.232 1372.365, 986.984 1368.560, 977.736 1364.754, 968.489 1360.949, 959.241 1357.143, 949.994 1353.337, 940.746 1349.532, 931.499 1345.726, 922.251 1341.920, 913.004 1339.903, 908.103 1340.206, 898.107 1340.509, 888.112 1340.811, 878.116 1341.114, 868.121 1341.417, 858.125 1341.719, 848.130 1342.022, 838.135 1342.325, 828.139 1342.627, 818.144 1342.930, 808.148 1343.233, 798.153 1343.535, 788.158 1343.838, 778.162 1344.140, 768.167 1344.443, 758.171 1344.746, 748.176 1345.048, 738.180 1345.351, 728.185 1345.654, 718.190 1345.956, 708.194 1346.259, 698.199 1346.562, 688.203 1346.768, 681.371 1345.802, 671.418 1344.836, 661.464 1343.869, 651.511 1342.903, 641.558 1341.936, 631.605 1340.970, 621.652 1340.003, 611.699 1339.037, 601.745 1338.071, 591.792 1337.104, 581.839 1336.138, 571.886 1335.171, 561.933 1334.205, 551.979 1333.825, 548.064 1340.975, 541.073 1348.125, 534.082 1355.276, 527.091 1362.426, 520.100 1369.576, 513.109 1376.727, 506.118 1383.877, 499.127 1391.027, 492.136 1392.009, 491.177 1394.463, 481.483 1396.918, 471.789 1399.373, 462.095 1401.828, 452.401 1404.282, 442.707 1406.737, 433.013 1409.192, 423.318 1411.646, 413.624 1414.101, 403.930 1416.556, 394.236 1419.010, 384.542 1421.465, 374.848 1423.920, 365.154 1426.375, 355.460 1428.829, 345.766 1431.284, 336.072 1433.739, 326.378 1436.193, 316.684 1438.648, 306.990 1441.103, 297.296 1443.557, 287.602 1446.012, 277.908 1448.467, 268.214 1450.922, 258.520 1453.376, 248.826 1455.831, 239.132 1458.286, 229.438 1460.740, 219.744 1463.195, 210.050 1465.650, 200.356 1468.105, 190.661 1470.559, 180.968 1473.014, 171.273 1475.469, 161.579 1477.923, 151.885 1480.378, 142.191 1482.329, 134.486 " />
            <path fill="none" stroke-width="3.0" stroke-linecap="butt" stroke-opacity="1.0" stroke="rgb(0, 0, 0)" stroke-linejoin="round" d=" M 414.978, 1168.032 420.361, 1176.459 425.744, 1184.886 431.128, 1193.313 436.511, 1201.741 441.895, 1210.168 447.278, 1218.595 452.661, 1227.023 458.045, 1235.450 463.428, 1243.877 468.812, 1252.304 474.195, 1260.732 479.578, 1269.159 484.962, 1277.586 490.345, 1286.014 495.729, 1294.441 501.112, 1302.868 506.495, 1311.295 511.879, 1319.723 517.262, 1328.150 522.646, 1336.577 528.029, 1345.005 533.412, 1353.432 535.909, 1357.341 535.940, 1357.389 535.889, 1357.309 530.506, 1348.881 525.122, 1340.454 519.739, 1332.027 514.356, 1323.600 508.972, 1315.172 503.589, 1306.745 498.205, 1298.318 492.822, 1289.891 487.439, 1281.463 482.055, 1273.036 476.672, 1264.609 471.288, 1256.181 465.905, 1247.754 460.522, 1239.327 455.138, 1230.900 449.755, 1222.472 444.371, 1214.045 438.988, 1205.618 433.605, 1197.190 428.221, 1188.763 422.838, 1180.336 417.454, 1171.909 414.978, 1168.032 " />
            <path fill="none" stroke-width="3.0" stroke-linecap="butt" stroke-opacity="1.0" stroke="rgb(0, 0, 0)" stroke-linejoin="round" d=" M 535.889, 1357.309 535.889, 1357.309 535.909, 1357.341 " />
            <path fill="none" stroke-width="3.0" stroke-linecap="butt" stroke-opacity="1.0" stroke="rgb(0, 0, 0)" stroke-linejoin="round" d=" M 242.743, 747.440 246.533, 756.694 250.323, 765.949 254.112, 775.203 257.902, 784.457 261.691, 793.711 265.481, 802.965 269.271, 812.219 273.060, 821.473 276.850, 830.727 280.640, 839.982 284.429, 849.236 288.219, 858.490 292.008, 867.744 295.798, 876.998 299.588, 886.252 303.377, 895.506 307.167, 904.760 310.956, 914.015 314.746, 923.269 318.536, 932.523 322.325, 941.777 326.115, 951.031 329.904, 960.285 333.694, 969.539 337.484, 978.793 341.273, 988.048 345.063, 997.302 348.853, 1006.556 352.642, 1015.810 356.432, 1025.064 360.221, 1034.318 364.011, 1043.572 367.801, 1052.827 371.590, 1062.081 375.380, 1071.335 379.169, 1080.589 382.959, 1089.843 386.749, 1099.097 390.538, 1108.351 394.328, 1117.605 398.117, 1126.859 401.907, 1136.114 405.697, 1145.368 409.486, 1154.622 414.978, 1168.032 " />
            <path fill="none" stroke-width="3.0" stroke-linecap="butt" stroke-opacity="1.0" stroke="rgb(0, 0, 0)" stroke-linejoin="round" d=" M 242.743, 747.440 239.850, 737.868 236.958, 728.296 234.065, 718.723 231.172, 709.151 228.279, 699.578 225.386, 690.006 222.493, 680.433 219.600, 670.861 216.707, 661.289 213.814, 651.716 210.921, 642.144 208.028, 632.571 205.136, 622.999 202.243, 613.427 199.350, 603.854 196.457, 594.282 193.564, 584.709 190.671, 575.137 187.778, 565.565 184.885, 555.992 181.992, 546.420 179.099, 536.847 176.206, 527.275 173.313, 517.702 170.421, 508.130 167.528, 498.558 164.635, 488.985 161.742, 479.413 158.849, 469.840 155.956, 460.268 153.063, 450.696 150.170, 441.123 147.277, 431.551 144.384, 421.978 141.491, 412.406 138.599, 402.834 135.706, 393.261 132.813, 383.689 129.920, 374.116 127.027, 364.544 124.134, 354.971 121.241, 345.399 118.348, 335.827 115.455, 326.254 112.562, 316.682 109.669, 307.109 106.777, 297.537 103.884, 287.965 100.991, 278.392 98.098, 268.820 95.205, 259.247 92.312, 249.675 89.419, 240.103 86.526, 230.530 83.633, 220.958 80.740, 211.385 77.847, 201.813 74.954, 192.240 72.062, 182.668 69.169, 173.096 66.276, 163.523 63.383, 153.951 60.490, 144.378 57.597, 134.806 54.704, 125.234 51.811, 115.661 48.918, 106.089 46.025, 96.516 43.132, 86.944 40.240, 77.372 37.347, 67.799 34.454, 58.227 31.561, 48.654 28.668, 39.082 24.006, 23.655 26.898, 33.227 29.791, 42.800 32.684, 52.372 35.577, 61.944 38.470, 71.517 41.363, 81.089 44.256, 90.662 47.149, 100.234 50.042, 109.806 52.935, 119.379 55.828, 128.951 58.721, 138.524 61.613, 148.096 64.506, 157.668 67.399, 167.241 70.292, 176.813 73.185, 186.386 76.078, 195.958 78.971, 205.531 81.864, 215.103 84.757, 224.675 87.650, 234.248 90.543, 243.820 93.435, 253.393 96.328, 262.965 99.221, 272.537 102.114, 282.110 105.007, 291.682 107.900, 301.255 110.793, 310.827 113.686, 320.399 116.579, 329.972 119.472, 339.544 122.365, 349.117 125.257, 358.689 128.150, 368.262 131.043, 377.834 133.936, 387.406 136.829, 396.979 139.722, 406.551 142.615, 416.124 145.508, 425.696 148.401, 435.268 151.294, 444.841 154.187, 454.413 157.080, 463.986 159.972, 473.558 162.865, 483.130 165.758, 492.703 168.651, 502.275 171.544, 511.848 174.437, 521.420 177.330, 530.992 180.223, 540.565 183.116, 550.137 186.009, 559.710 188.902, 569.282 191.794, 578.855 194.687, 588.427 197.580, 597.999 200.473, 607.572 203.366, 617.144 206.259, 626.717 209.152, 636.289 212.045, 645.861 214.938, 655.434 217.831, 665.006 220.724, 674.579 223.617, 684.151 226.509, 693.723 229.402, 703.296 232.295, 712.868 235.188, 722.441 238.081, 732.013 242.743, 747.440 " />
            <path fill="none" stroke-width="3.0" stroke-linecap="butt" stroke-opacity="1.0" stroke="rgb(0, 0, 0)" stroke-linejoin="round" d=" M 24.028, 23.730 24.006, 23.655 24.004, 23.649 " />
            <path fill="none" stroke-width="3.0" stroke-linecap="butt" stroke-opacity="1.0" stroke="rgb(0, 0, 0)" stroke-linejoin="round" d=" M 1015.983, 859.841 1015.393, 862.424 1014.676, 864.975 1013.832, 867.486 1012.864, 869.953 1011.774, 872.368 1010.565, 874.725 1009.241, 877.020 1007.803, 879.246 1006.257, 881.397 1004.605, 883.468 1002.852, 885.454 1001.002, 887.351 999.060, 889.153 997.030, 890.856 994.918, 892.456 " />
            <path fill="none" stroke-width="3.0" stroke-linecap="butt" stroke-opacity="1.0" stroke="rgb(0, 0, 0)" stroke-linejoin="round" d=" M 983.313, 898.776 980.823, 899.682 978.292, 900.463 975.724, 901.117 973.128, 901.641 970.507, 902.036 967.871, 902.300 " />
            <path fill="none" stroke-width="3.0" stroke-linecap="butt" stroke-opacity="1.0" stroke="rgb(0, 0, 0)" stroke-linejoin="round" d=" M 1013.832, 831.140 1014.676, 833.651 1015.393, 836.201 1015.983, 838.784 1016.443, 841.393 1016.772, 844.023 1016.970, 846.664 1017.036, 849.313 1016.970, 851.961 1016.772, 854.603 1016.443, 857.233 " />
            <path fill="none" stroke-width="3.0" stroke-linecap="butt" stroke-opacity="1.0" stroke="rgb(0, 0, 0)" stroke-linejoin="round" d=" M 962.576, 902.433 959.930, 902.300 957.293, 902.036 954.674, 901.641 952.077, 901.117 949.509, 900.463 946.977, 899.682 944.487, 898.776 942.046, 897.747 939.659, 896.597 937.333, 895.330 " />
            <path fill="none" stroke-width="3.0" stroke-linecap="butt" stroke-opacity="1.0" stroke="rgb(0, 0, 0)" stroke-linejoin="round" d=" M 1012.864, 828.673 1013.832, 831.140 " />
            <path fill="none" stroke-width="3.0" stroke-linecap="butt" stroke-opacity="1.0" stroke="rgb(0, 0, 0)" stroke-linejoin="round" d=" M 1006.257, 817.229 1007.803, 819.380 1009.241, 821.606 1010.565, 823.901 1011.774, 826.258 1012.864, 828.673 " />
            <path fill="none" stroke-width="3.0" stroke-linecap="butt" stroke-opacity="1.0" stroke="rgb(0, 0, 0)" stroke-linejoin="round" d=" M 997.030, 807.770 999.060, 809.473 1001.002, 811.275 1002.852, 813.171 1004.605, 815.157 1006.257, 817.229 " />
            <path fill="none" stroke-width="3.0" stroke-linecap="butt" stroke-opacity="1.0" stroke="rgb(0, 0, 0)" stroke-linejoin="round" d=" M 990.468, 803.295 992.729, 804.677 994.918, 806.170 997.030, 807.770 " />
            <path fill="none" stroke-width="3.0" stroke-linecap="butt" stroke-opacity="1.0" stroke="rgb(0, 0, 0)" stroke-linejoin="round" d=" M 978.292, 798.163 980.823, 798.944 983.313, 799.850 985.755, 800.879 988.142, 802.029 990.468, 803.295 " />
            <path fill="none" stroke-width="3.0" stroke-linecap="butt" stroke-opacity="1.0" stroke="rgb(0, 0, 0)" stroke-linejoin="round" d=" M 937.333, 895.330 935.072, 893.948 932.883, 892.456 930.771, 890.856 928.741, 889.153 926.799, 887.351 " />
            <path fill="none" stroke-width="3.0" stroke-linecap="butt" stroke-opacity="1.0" stroke="rgb(0, 0, 0)" stroke-linejoin="round" d=" M 914.937, 869.953 913.969, 867.486 913.125, 864.975 912.408, 862.424 911.818, 859.841 911.358, 857.233 911.029, 854.603 910.831, 851.961 910.764, 849.313 910.831, 846.664 911.029, 844.023 911.358, 841.393 911.818, 838.784 912.408, 836.201 913.125, 833.651 " />
            <path fill="none" stroke-width="3.0" stroke-linecap="butt" stroke-opacity="1.0" stroke="rgb(0, 0, 0)" stroke-linejoin="round" d=" M 913.125, 833.651 913.969, 831.140 " />
            <path fill="none" stroke-width="3.0" stroke-linecap="butt" stroke-opacity="1.0" stroke="rgb(0, 0, 0)" stroke-linejoin="round" d=" M 913.969, 831.140 914.937, 828.673 " />
            <path fill="none" stroke-width="3.0" stroke-linecap="butt" stroke-opacity="1.0" stroke="rgb(0, 0, 0)" stroke-linejoin="round" d=" M 914.937, 828.673 916.027, 826.258 " />
            <path fill="none" stroke-width="3.0" stroke-linecap="butt" stroke-opacity="1.0" stroke="rgb(0, 0, 0)" stroke-linejoin="round" d=" M 916.027, 826.258 917.235, 823.901 918.560, 821.606 919.997, 819.380 " />
            <path fill="none" stroke-width="3.0" stroke-linecap="butt" stroke-opacity="1.0" stroke="rgb(0, 0, 0)" stroke-linejoin="round" d=" M 919.997, 819.380 921.544, 817.229 " />
            <path fill="none" stroke-width="3.0" stroke-linecap="butt" stroke-opacity="1.0" stroke="rgb(0, 0, 0)" stroke-linejoin="round" d=" M 921.544, 817.229 923.196, 815.157 " />
            <path fill="none" stroke-width="3.0" stroke-linecap="butt" stroke-opacity="1.0" stroke="rgb(0, 0, 0)" stroke-linejoin="round" d=" M 923.196, 815.157 924.949, 813.171 926.799, 811.275 928.741, 809.473 930.771, 807.770 932.883, 806.170 935.072, 804.677 937.333, 803.295 " />
            <path fill="none" stroke-width="3.0" stroke-linecap="butt" stroke-opacity="1.0" stroke="rgb(0, 0, 0)" stroke-linejoin="round" d=" M 918.560, 877.020 917.235, 874.725 916.027, 872.368 914.937, 869.953 " />
            <path fill="none" stroke-width="3.0" stroke-linecap="butt" stroke-opacity="1.0" stroke="rgb(0, 0, 0)" stroke-linejoin="round" d=" M 937.333, 803.295 939.659, 802.029 942.046, 800.879 944.487, 799.850 946.977, 798.944 949.509, 798.163 952.077, 797.509 954.674, 796.984 957.293, 796.590 959.930, 796.326 962.576, 796.193 965.225, 796.193 967.871, 796.326 970.507, 796.590 973.128, 796.984 975.724, 797.509 " />
            <path fill="none" stroke-width="3.0" stroke-linecap="butt" stroke-opacity="1.0" stroke="rgb(0, 0, 0)" stroke-linejoin="round" d=" M 975.724, 797.509 978.292, 798.163 " />
            <path fill="none" stroke-width="3.0" stroke-linecap="butt" stroke-opacity="1.0" stroke="rgb(0, 0, 0)" stroke-linejoin="round" d=" M 900.656, 379.170 900.066, 381.753 899.349, 384.303 898.505, 386.814 897.537, 389.281 896.447, 391.696 895.238, 394.053 893.914, 396.348 892.476, 398.574 890.930, 400.724 889.278, 402.796 887.525, 404.783 " />
            <path fill="none" stroke-width="3.0" stroke-linecap="butt" stroke-opacity="1.0" stroke="rgb(0, 0, 0)" stroke-linejoin="round" d=" M 885.675, 406.679 883.732, 408.481 881.703, 410.184 879.591, 411.784 877.402, 413.276 875.141, 414.658 872.815, 415.925 870.428, 417.075 867.986, 418.104 865.496, 419.009 862.965, 419.791 860.397, 420.445 857.800, 420.970 855.180, 421.364 852.544, 421.628 " />
            <path fill="none" stroke-width="3.0" stroke-linecap="butt" stroke-opacity="1.0" stroke="rgb(0, 0, 0)" stroke-linejoin="round" d=" M 901.643, 371.290 901.445, 373.932 901.116, 376.561 900.656, 379.170 " />
            <path fill="none" stroke-width="3.0" stroke-linecap="butt" stroke-opacity="1.0" stroke="rgb(0, 0, 0)" stroke-linejoin="round" d=" M 896.447, 345.586 897.537, 348.001 898.505, 350.468 899.349, 352.979 900.066, 355.529 900.656, 358.112 901.116, 360.721 901.445, 363.351 901.643, 365.993 901.709, 368.641 901.643, 371.290 " />
            <path fill="none" stroke-width="3.0" stroke-linecap="butt" stroke-opacity="1.0" stroke="rgb(0, 0, 0)" stroke-linejoin="round" d=" M 852.544, 421.628 849.898, 421.761 847.249, 421.761 844.602, 421.628 " />
            <path fill="none" stroke-width="3.0" stroke-linecap="butt" stroke-opacity="1.0" stroke="rgb(0, 0, 0)" stroke-linejoin="round" d=" M 841.966, 421.364 839.346, 420.970 836.750, 420.445 834.182, 419.791 831.650, 419.009 829.160, 418.104 826.719, 417.075 824.332, 415.925 822.005, 414.658 819.745, 413.276 817.555, 411.784 815.444, 410.184 " />
            <path fill="none" stroke-width="3.0" stroke-linecap="butt" stroke-opacity="1.0" stroke="rgb(0, 0, 0)" stroke-linejoin="round" d=" M 895.238, 343.229 896.447, 345.586 " />
            <path fill="none" stroke-width="3.0" stroke-linecap="butt" stroke-opacity="1.0" stroke="rgb(0, 0, 0)" stroke-linejoin="round" d=" M 893.914, 340.934 895.238, 343.229 " />
            <path fill="none" stroke-width="3.0" stroke-linecap="butt" stroke-opacity="1.0" stroke="rgb(0, 0, 0)" stroke-linejoin="round" d=" M 892.476, 338.708 893.914, 340.934 " />
            <path fill="none" stroke-width="3.0" stroke-linecap="butt" stroke-opacity="1.0" stroke="rgb(0, 0, 0)" stroke-linejoin="round" d=" M 877.402, 324.006 879.591, 325.498 881.703, 327.098 883.732, 328.801 885.675, 330.602 887.525, 332.499 889.278, 334.486 890.930, 336.557 892.476, 338.708 " />
            <path fill="none" stroke-width="3.0" stroke-linecap="butt" stroke-opacity="1.0" stroke="rgb(0, 0, 0)" stroke-linejoin="round" d=" M 815.444, 410.184 813.414, 408.481 811.472, 406.679 809.622, 404.783 807.869, 402.796 806.217, 400.724 804.670, 398.574 803.233, 396.348 801.908, 394.053 800.700, 391.696 799.610, 389.281 798.642, 386.814 797.798, 384.303 797.081, 381.753 796.491, 379.170 796.031, 376.561 795.702, 373.932 795.504, 371.290 795.437, 368.641 795.504, 365.993 795.702, 363.351 796.031, 360.721 " />
            <path fill="none" stroke-width="3.0" stroke-linecap="butt" stroke-opacity="1.0" stroke="rgb(0, 0, 0)" stroke-linejoin="round" d=" M 1498.984, 23.702 1498.984, 23.702 1488.984, 23.702 1478.984, 23.702 1468.984, 23.703 1458.984, 23.703 1448.984, 23.703 1438.984, 23.703 1438.180, 23.703 1437.653, 23.703 1437.136, 23.703 1436.631, 23.703 1436.140, 23.703 1435.665, 23.703 1435.206, 23.703 1434.767, 23.703 1434.350, 23.703 1424.350, 23.703 1414.350, 23.704 1404.350, 23.704 1394.350, 23.704 1384.350, 23.704 1374.350, 23.704 1364.350, 23.704 1354.350, 23.705 1344.350, 23.705 1334.350, 23.705 1324.350, 23.705 1314.350, 23.705 1304.350, 23.706 1294.350, 23.706 1284.350, 23.706 1274.350, 23.706 1264.350, 23.706 1254.350, 23.706 1249.503, 23.707 1239.503, 23.707 1229.503, 23.707 1219.503, 23.707 1209.503, 23.707 1199.503, 23.707 1189.503, 23.708 1179.503, 23.708 1169.503, 23.708 1159.503, 23.708 1149.503, 23.708 1139.503, 23.708 1129.503, 23.709 1125.573, 23.709 1115.573, 23.709 1105.573, 23.709 1095.573, 23.709 1086.496, 23.709 1079.276, 23.710 1077.334, 23.710 1075.437, 23.710 1073.592, 23.710 " />
            <path fill="none" stroke-width="3.0" stroke-linecap="butt" stroke-opacity="1.0" stroke="rgb(0, 0, 0)" stroke-linejoin="round" d=" M 797.798, 352.979 798.642, 350.468 799.610, 348.001 800.700, 345.586 801.908, 343.229 803.233, 340.934 804.670, 338.708 806.217, 336.557 807.869, 334.486 809.622, 332.499 811.472, 330.602 813.414, 328.801 815.444, 327.098 817.555, 325.498 819.745, 324.006 822.005, 322.624 824.332, 321.357 826.719, 320.207 829.160, 319.178 831.650, 318.272 834.182, 317.491 836.750, 316.837 839.346, 316.312 841.966, 315.917 844.602, 315.654 847.249, 315.521 849.898, 315.521 852.544, 315.654 855.180, 315.917 857.800, 316.312 860.397, 316.837 862.965, 317.491 865.496, 318.272 867.986, 319.178 870.428, 320.207 872.815, 321.357 875.141, 322.624 877.402, 324.006 " />
            <path fill="none" stroke-width="3.0" stroke-linecap="butt" stroke-opacity="1.0" stroke="rgb(0, 0, 0)" stroke-linejoin="round" d=" M 796.031, 360.721 796.491, 358.112 797.081, 355.529 797.798, 352.979 " />
            <path fill="none" stroke-width="3.0" stroke-linecap="butt" stroke-opacity="1.0" stroke="rgb(0, 0, 0)" stroke-linejoin="round" d=" M 1073.592, 23.710 1071.805, 23.710 1070.082, 23.710 1060.082, 23.710 1050.082, 23.711 1040.082, 23.711 1030.082, 23.711 1020.082, 23.711 1010.082, 23.711 1000.082, 23.712 990.082, 23.712 980.082, 23.712 970.082, 23.712 960.082, 23.712 950.082, 23.713 940.082, 23.713 930.082, 23.713 920.082, 23.713 910.082, 23.713 900.082, 23.714 890.082, 23.714 880.082, 23.714 870.082, 23.714 860.082, 23.714 850.082, 23.715 840.082, 23.715 830.082, 23.715 820.082, 23.715 810.082, 23.715 800.082, 23.716 790.082, 23.716 780.082, 23.716 770.082, 23.716 760.082, 23.716 750.082, 23.717 740.082, 23.717 730.082, 23.717 720.082, 23.717 711.699, 23.717 708.123, 23.717 706.140, 23.717 704.120, 23.717 703.870, 23.717 702.068, 23.717 699.990, 23.717 697.892, 23.717 696.011, 23.718 694.008, 23.718 " />
            <path fill="none" stroke-width="3.0" stroke-linecap="butt" stroke-opacity="1.0" stroke="rgb(0, 0, 0)" stroke-linejoin="round" d=" M 1498.986, 23.683 1488.986, 23.683 1478.986, 23.683 1468.986, 23.684 1458.986, 23.684 1448.986, 23.684 1438.986, 23.685 1428.986, 23.685 1418.986, 23.686 1408.986, 23.686 1398.986, 23.686 1388.986, 23.687 1378.986, 23.687 1368.986, 23.687 1358.986, 23.688 1348.986, 23.688 1338.986, 23.688 1328.986, 23.688 1318.986, 23.689 1308.986, 23.689 1298.986, 23.689 1288.986, 23.690 1278.986, 23.690 1268.986, 23.690 1258.986, 23.691 1248.986, 23.691 1238.986, 23.691 1228.986, 23.692 1218.986, 23.692 1208.986, 23.693 1198.986, 23.693 1188.986, 23.693 1178.986, 23.693 1168.986, 23.694 1158.986, 23.694 1148.986, 23.694 1138.986, 23.695 1128.986, 23.695 1118.986, 23.695 1108.986, 23.696 1098.986, 23.696 1088.986, 23.696 1078.986, 23.697 1068.986, 23.697 1058.986, 23.697 1048.986, 23.698 1038.986, 23.698 1028.986, 23.698 1018.986, 23.699 1008.986, 23.699 998.986, 23.699 988.986, 23.700 978.986, 23.700 968.986, 23.700 958.986, 23.701 948.986, 23.701 938.986, 23.701 928.986, 23.702 918.986, 23.702 908.986, 23.702 898.986, 23.703 888.986, 23.703 878.986, 23.703 868.986, 23.704 858.986, 23.704 848.986, 23.704 838.986, 23.705 828.986, 23.705 818.986, 23.705 808.986, 23.706 798.986, 23.706 788.986, 23.706 778.986, 23.707 768.986, 23.707 758.986, 23.707 748.986, 23.708 738.986, 23.708 728.986, 23.708 718.986, 23.709 708.986, 23.709 698.986, 23.709 688.986, 23.710 678.986, 23.710 668.986, 23.710 658.986, 23.711 648.986, 23.711 638.986, 23.711 628.986, 23.712 618.986, 23.712 608.986, 23.712 598.986, 23.713 588.986, 23.713 578.986, 23.713 568.986, 23.714 558.986, 23.714 548.986, 23.714 538.986, 23.715 528.986, 23.715 518.986, 23.715 508.986, 23.716 498.986, 23.716 488.986, 23.716 478.986, 23.717 468.986, 23.717 458.986, 23.717 448.986, 23.718 438.986, 23.718 428.986, 23.718 418.986, 23.719 408.986, 23.719 398.986, 23.719 388.986, 23.720 378.986, 23.720 368.986, 23.720 358.986, 23.721 348.986, 23.721 338.986, 23.721 328.986, 23.722 318.986, 23.722 308.986, 23.722 298.986, 23.723 288.986, 23.723 278.986, 23.723 268.986, 23.724 258.986, 23.724 248.986, 23.724 238.986, 23.725 228.986, 23.725 218.986, 23.725 208.986, 23.726 198.986, 23.726 188.986, 23.726 178.986, 23.727 168.986, 23.727 158.986, 23.727 148.986, 23.728 138.986, 23.728 118.366, 23.729 108.366, 23.742 98.366, 23.756 88.366, 23.769 78.366, 23.783 68.366, 23.796 58.324, 23.810 57.709, 23.815 57.088, 23.816 56.463, 23.816 55.834, 23.817 55.203, 23.817 54.574, 23.818 53.948, 23.818 53.328, 23.819 52.714, 23.819 52.111, 23.820 51.519, 23.820 50.865, 23.729 40.865, 23.730 30.865, 23.730 24.028, 23.730 26.921, 33.302 29.814, 42.875 32.707, 52.447 35.600, 62.020 38.493, 71.592 41.386, 81.164 44.279, 90.737 47.172, 100.309 50.065, 109.882 52.958, 119.454 55.850, 129.026 58.743, 138.599 61.636, 148.171 64.529, 157.744 67.422, 167.316 70.315, 176.889 73.208, 186.461 76.101, 196.033 78.994, 205.606 81.887, 215.178 84.780, 224.751 87.672, 234.323 90.565, 243.896 93.458, 253.468 96.351, 263.040 99.244, 272.613 102.137, 282.185 105.030, 291.758 107.923, 301.330 110.816, 310.902 113.709, 320.475 116.602, 330.047 119.494, 339.620 122.387, 349.192 125.280, 358.764 128.173, 368.337 131.066, 377.909 133.959, 387.482 136.852, 397.054 139.745, 406.626 142.638, 416.199 145.531, 425.771 148.424, 435.344 151.317, 444.916 154.209, 454.489 157.102, 464.061 159.995, 473.633 162.888, 483.206 165.781, 492.778 168.674, 502.351 171.567, 511.923 174.460, 521.495 177.353, 531.068 180.246, 540.640 183.139, 550.213 186.031, 559.785 188.924, 569.357 191.817, 578.930 194.710, 588.502 197.603, 598.075 200.496, 607.647 203.389, 617.220 206.282, 626.792 209.175, 636.364 212.068, 645.937 214.961, 655.509 217.853, 665.082 220.746, 674.654 223.639, 684.226 226.532, 693.799 229.425, 703.371 232.318, 712.944 235.211, 722.516 238.104, 732.089 242.743, 747.440 " />
            <path fill="none" stroke-width="3.0" stroke-linecap="butt" stroke-opacity="1.0" stroke="rgb(0, 0, 0)" stroke-linejoin="round" d=" M 696.011, 23.718 687.643, 23.718 677.643, 23.719 667.643, 23.719 657.643, 23.720 647.643, 23.721 637.643, 23.721 627.643, 23.722 617.643, 23.723 607.643, 23.723 597.643, 23.724 587.643, 23.725 577.643, 23.725 567.643, 23.726 557.643, 23.727 547.643, 23.727 537.643, 23.728 527.643, 23.729 517.643, 23.729 507.643, 23.730 497.643, 23.731 487.643, 23.731 477.643, 23.732 467.643, 23.733 457.643, 23.733 447.643, 23.734 437.643, 23.735 427.643, 23.735 417.643, 23.736 407.643, 23.737 397.643, 23.737 387.643, 23.738 377.643, 23.739 367.643, 23.739 357.643, 23.740 347.643, 23.741 337.643, 23.741 327.643, 23.742 317.643, 23.743 307.643, 23.743 297.643, 23.744 287.643, 23.745 277.643, 23.745 267.643, 23.746 257.643, 23.747 247.643, 23.747 237.643, 23.748 227.643, 23.749 217.643, 23.749 207.643, 23.750 197.643, 23.751 187.643, 23.751 177.643, 23.752 167.643, 23.753 157.643, 23.753 147.643, 23.754 137.643, 23.755 129.414, 23.755 128.659, 23.775 127.884, 23.775 127.084, 23.775 126.265, 23.775 125.429, 23.776 124.578, 23.777 123.716, 23.777 122.846, 23.777 121.971, 23.778 121.094, 23.778 120.216, 23.778 119.342, 23.779 118.366, 23.729 " />
            <path fill="none" stroke-width="3.0" stroke-linecap="butt" stroke-opacity="1.0" stroke="rgb(0, 0, 0)" stroke-linejoin="round" d=" M 694.008, 23.718 691.894, 23.718 689.770, 23.718 687.643, 23.718 " />
            <path fill="none" stroke-width="3.0" stroke-linecap="butt" stroke-opacity="1.0" stroke="rgb(0, 0, 0)" stroke-linejoin="round" d=" M 1498.986, 23.683 1488.986, 23.683 1478.986, 23.684 1468.986, 23.685 1458.986, 23.685 1448.986, 23.686 1438.986, 23.687 1428.986, 23.687 1418.986, 23.688 1408.986, 23.688 1398.986, 23.689 1388.986, 23.690 1378.986, 23.690 1368.986, 23.691 1358.986, 23.692 1348.986, 23.692 1338.986, 23.693 1328.986, 23.694 1318.986, 23.694 1308.986, 23.695 1298.986, 23.695 1288.986, 23.696 1278.986, 23.697 1268.986, 23.697 1258.986, 23.698 1248.986, 23.699 1238.986, 23.699 1228.986, 23.700 1218.986, 23.701 1208.986, 23.701 1198.986, 23.702 1188.986, 23.702 1178.986, 23.703 1168.986, 23.704 1158.986, 23.704 1148.986, 23.705 1138.986, 23.706 1128.986, 23.706 1118.986, 23.707 1108.986, 23.708 1098.986, 23.708 1088.986, 23.709 1075.437, 23.710 " />
            <path fill="none" stroke-width="3.0" stroke-linecap="butt" stroke-opacity="1.0" stroke="rgb(0, 0, 0)" stroke-linejoin="round" d=" M 1498.986, 23.683 1488.986, 23.683 1478.986, 23.684 1468.986, 23.684 1458.986, 23.685 1448.986, 23.685 1438.986, 23.685 1428.986, 23.686 1418.986, 23.686 1408.986, 23.687 1398.986, 23.687 1388.986, 23.688 1378.986, 23.688 1368.986, 23.688 1358.986, 23.689 1348.986, 23.689 1338.986, 23.690 1328.986, 23.690 1318.986, 23.691 1308.986, 23.691 1298.986, 23.691 1288.986, 23.692 1278.986, 23.692 1268.986, 23.693 1258.986, 23.693 1248.986, 23.694 1238.986, 23.694 1228.986, 23.694 1218.986, 23.695 1208.986, 23.695 1198.986, 23.696 1188.986, 23.696 1178.986, 23.697 1168.986, 23.697 1158.986, 23.698 1148.986, 23.698 1138.986, 23.698 1128.986, 23.699 1118.986, 23.699 1108.986, 23.700 1098.986, 23.700 1088.986, 23.700 1078.986, 23.701 1068.986, 23.701 1058.986, 23.702 1048.986, 23.702 1038.986, 23.703 1028.986, 23.703 1018.986, 23.703 1008.986, 23.704 998.986, 23.704 988.986, 23.705 978.986, 23.705 968.986, 23.706 958.986, 23.706 948.986, 23.707 938.986, 23.707 928.986, 23.707 918.986, 23.708 908.986, 23.708 898.986, 23.709 888.986, 23.709 878.986, 23.710 868.986, 23.710 858.986, 23.710 848.986, 23.711 838.986, 23.711 828.986, 23.712 818.986, 23.712 808.986, 23.713 798.986, 23.713 788.986, 23.713 778.986, 23.714 768.986, 23.714 758.986, 23.715 748.986, 23.715 738.986, 23.716 728.986, 23.716 718.986, 23.716 708.986, 23.717 697.892, 23.717 " />
            <path fill="none" stroke-width="3.0" stroke-linecap="butt" stroke-opacity="1.0" stroke="rgb(0, 0, 0)" stroke-linejoin="round" d=" M 711.699, 23.717 721.699, 23.717 731.699, 23.716 741.699, 23.716 751.699, 23.716 761.699, 23.715 771.699, 23.715 781.699, 23.714 791.699, 23.714 801.699, 23.713 811.699, 23.713 821.699, 23.712 831.699, 23.712 841.699, 23.712 851.699, 23.711 861.699, 23.711 871.699, 23.710 881.699, 23.710 891.699, 23.709 901.699, 23.709 911.699, 23.708 921.699, 23.708 931.699, 23.708 941.699, 23.707 951.699, 23.707 961.699, 23.706 971.699, 23.706 981.699, 23.705 991.699, 23.705 1001.699, 23.705 1011.699, 23.704 1021.699, 23.704 1031.698, 23.703 1041.698, 23.703 1051.698, 23.702 1061.698, 23.702 1071.698, 23.702 1081.698, 23.701 1091.698, 23.701 1101.698, 23.700 1111.698, 23.700 1121.698, 23.699 1131.698, 23.699 1141.698, 23.698 1151.698, 23.698 1161.698, 23.698 1171.698, 23.697 1181.698, 23.697 1191.698, 23.696 1201.698, 23.696 1211.698, 23.695 1221.698, 23.695 1231.698, 23.695 1241.698, 23.694 1251.698, 23.694 1261.698, 23.693 1271.698, 23.693 1281.698, 23.692 1291.698, 23.692 1301.698, 23.692 1311.698, 23.691 1321.698, 23.691 1331.698, 23.690 1341.698, 23.690 1351.698, 23.689 1361.698, 23.689 1371.698, 23.688 1381.698, 23.688 1391.698, 23.688 1401.698, 23.687 1411.698, 23.687 1421.698, 23.686 1431.698, 23.686 1441.698, 23.685 1451.698, 23.685 1461.698, 23.684 1471.698, 23.684 1481.698, 23.684 1498.986, 23.683 1488.986, 23.683 1478.986, 23.684 1468.986, 23.684 1458.986, 23.685 1448.986, 23.685 1438.986, 23.685 1428.986, 23.686 1418.986, 23.686 1408.986, 23.687 1398.986, 23.687 1388.986, 23.688 1378.986, 23.688 1368.986, 23.688 1358.986, 23.689 1348.986, 23.689 1338.986, 23.690 1328.986, 23.690 1318.986, 23.691 1308.986, 23.691 1298.986, 23.692 1288.986, 23.692 1278.986, 23.692 1268.986, 23.693 1258.986, 23.693 1248.986, 23.694 1238.986, 23.694 1228.986, 23.695 1218.986, 23.695 1208.986, 23.695 1198.986, 23.696 1188.986, 23.696 1178.986, 23.697 1168.986, 23.697 1158.986, 23.698 1148.986, 23.698 1138.986, 23.698 1128.986, 23.699 1118.986, 23.699 1108.986, 23.700 1098.986, 23.700 1088.986, 23.701 1078.986, 23.701 1068.986, 23.702 1058.986, 23.702 1048.986, 23.702 1038.986, 23.703 1028.986, 23.703 1018.986, 23.704 1008.986, 23.704 998.986, 23.705 988.986, 23.705 978.986, 23.705 968.986, 23.706 958.986, 23.706 948.986, 23.707 938.986, 23.707 928.986, 23.708 918.986, 23.708 908.986, 23.708 898.986, 23.709 888.986, 23.709 878.986, 23.710 868.986, 23.710 858.986, 23.711 848.986, 23.711 838.986, 23.711 828.986, 23.712 818.986, 23.712 808.986, 23.713 798.986, 23.713 788.986, 23.714 778.986, 23.714 768.986, 23.714 758.986, 23.715 748.986, 23.715 738.986, 23.716 728.986, 23.716 718.986, 23.717 703.870, 23.717 " />
            <path fill="none" stroke-width="3.0" stroke-linecap="butt" stroke-opacity="1.0" stroke="rgb(0, 0, 0)" stroke-linejoin="round" d=" M 844.602, 421.628 841.966, 421.364 " />
            <path fill="none" stroke-width="3.0" stroke-linecap="butt" stroke-opacity="1.0" stroke="rgb(0, 0, 0)" stroke-linejoin="round" d=" M 887.525, 404.783 885.675, 406.679 " />
            <path fill="none" stroke-width="3.0" stroke-linecap="butt" stroke-opacity="1.0" stroke="rgb(0, 0, 0)" stroke-linejoin="round" d=" M 919.997, 879.246 918.560, 877.020 " />
            <path fill="none" stroke-width="3.0" stroke-linecap="butt" stroke-opacity="1.0" stroke="rgb(0, 0, 0)" stroke-linejoin="round" d=" M 921.544, 881.397 919.997, 879.246 " />
            <path fill="none" stroke-width="3.0" stroke-linecap="butt" stroke-opacity="1.0" stroke="rgb(0, 0, 0)" stroke-linejoin="round" d=" M 923.196, 883.468 921.544, 881.397 " />
            <path fill="none" stroke-width="3.0" stroke-linecap="butt" stroke-opacity="1.0" stroke="rgb(0, 0, 0)" stroke-linejoin="round" d=" M 924.949, 885.454 923.196, 883.468 " />
            <path fill="none" stroke-width="3.0" stroke-linecap="butt" stroke-opacity="1.0" stroke="rgb(0, 0, 0)" stroke-linejoin="round" d=" M 926.799, 887.351 924.949, 885.454 " />
            <path fill="none" stroke-width="3.0" stroke-linecap="butt" stroke-opacity="1.0" stroke="rgb(0, 0, 0)" stroke-linejoin="round" d=" M 965.225, 902.433 962.576, 902.433 " />
            <path fill="none" stroke-width="3.0" stroke-linecap="butt" stroke-opacity="1.0" stroke="rgb(0, 0, 0)" stroke-linejoin="round" d=" M 967.871, 902.300 965.225, 902.433 " />
            <path fill="none" stroke-width="3.0" stroke-linecap="butt" stroke-opacity="1.0" stroke="rgb(0, 0, 0)" stroke-linejoin="round" d=" M 985.755, 897.747 983.313, 898.776 " />
            <path fill="none" stroke-width="3.0" stroke-linecap="butt" stroke-opacity="1.0" stroke="rgb(0, 0, 0)" stroke-linejoin="round" d=" M 988.142, 896.597 985.755, 897.747 " />
            <path fill="none" stroke-width="3.0" stroke-linecap="butt" stroke-opacity="1.0" stroke="rgb(0, 0, 0)" stroke-linejoin="round" d=" M 990.468, 895.330 988.142, 896.597 " />
            <path fill="none" stroke-width="3.0" stroke-linecap="butt" stroke-opacity="1.0" stroke="rgb(0, 0, 0)" stroke-linejoin="round" d=" M 992.729, 893.948 990.468, 895.330 " />
            <path fill="none" stroke-width="3.0" stroke-linecap="butt" stroke-opacity="1.0" stroke="rgb(0, 0, 0)" stroke-linejoin="round" d=" M 994.918, 892.456 992.729, 893.948 " />
            <path fill="none" stroke-width="3.0" stroke-linecap="butt" stroke-opacity="1.0" stroke="rgb(0, 0, 0)" stroke-linejoin="round" d=" M 1016.443, 857.233 1015.983, 859.841 " />
        </g>
    </g>
<g id="slice-labels"><text x="392.75200000000007" y="357.06299999999993" text-anchor="middle" dominant-baseline="middle" font-family="Arial, sans-serif" font-size="59.039870415963954" font-weight="bold" fill="black" stroke="none" stroke-width="7.084784449915675" paint-order="stroke fill">Slice3 (Front)</text><text x="1130.248" y="357.06299999999993" text-anchor="middle" dominant-baseline="middle" font-family="Arial, sans-serif" font-size="59.039870415963954" font-weight="bold" fill="black" stroke="none" stroke-width="7.084784449915675" paint-order="stroke fill">Slice3 (Front)</text><text x="392.75200000000007" y="1023.9469999999998" text-anchor="middle" dominant-baseline="middle" font-family="Arial, sans-serif" font-size="59.039870415963954" font-weight="bold" fill="black" stroke="none" stroke-width="7.084784449915675" paint-order="stroke fill">Slice3 (Front)</text><text x="1130.248" y="1023.9469999999998" text-anchor="middle" dominant-baseline="middle" font-family="Arial, sans-serif" font-size="59.039870415963954" font-weight="bold" fill="black" stroke="none" stroke-width="7.084784449915675" paint-order="stroke fill">Slice3 (Front)</text></g></svg>