<?xml version='1.0' encoding='utf-8'?>
<svg xmlns="http://www.w3.org/2000/svg" xmlns:inkscape="http://www.inkscape.org/namespaces/inkscape" version="1.1" width="770.3262784481049mm" height="253.33820962905884mm" viewBox="0.11840325280676467 0.005400458670766994 9097.783193494388 2992.0001990826586" preserveAspectRatio="none">
    <g id="ViewLayer_LineSet" inkscape:groupmode="lineset" inkscape:label="ViewLayer_LineSet">
        <g inkscape:groupmode="layer" id="strokes" inkscape:label="strokes">
            <path fill="none" stroke-width="3.0" stroke-linecap="butt" stroke-opacity="1.0" stroke="rgb(0, 0, 0)" stroke-linejoin="round" d=" M 6988.720, 2877.232 6990.469, 2887.078 6992.219, 2896.924 6993.968, 2906.770 6995.718, 2916.616 6997.467, 2926.461 6999.217, 2936.307 7000.966, 2946.153 7002.716, 2955.999 7004.465, 2965.844 7004.917, 2968.385 7014.917, 2968.385 7024.917, 2968.385 7034.917, 2968.385 7044.917, 2968.385 7054.917, 2968.385 7064.917, 2968.385 7074.917, 2968.385 7084.917, 2968.385 7094.917, 2968.385 7104.917, 2968.385 7114.917, 2968.385 7124.917, 2968.385 7134.917, 2968.385 7144.917, 2968.385 7154.917, 2968.385 7164.917, 2968.385 7174.917, 2968.385 7184.917, 2968.385 7194.917, 2968.385 7204.917, 2968.385 7214.917, 2968.385 7224.917, 2968.385 7234.917, 2968.385 7241.568, 2968.385 7243.371, 2968.385 7245.123, 2968.385 7246.818, 2968.385 7248.450, 2968.385 7250.015, 2968.385 7251.505, 2968.385 7252.918, 2968.385 7254.248, 2968.385 7255.490, 2968.385 7256.643, 2968.385 7266.643, 2968.385 7276.643, 2968.385 7286.643, 2968.385 7296.643, 2968.385 7306.643, 2968.385 7316.643, 2968.385 7326.643, 2968.385 7336.643, 2968.385 7346.643, 2968.385 7356.643, 2968.385 7366.643, 2968.385 7376.643, 2968.385 7386.643, 2968.385 7396.643, 2968.385 7406.643, 2968.385 7416.643, 2968.385 7426.643, 2968.385 7436.643, 2968.385 7446.643, 2968.385 7456.643, 2968.385 7466.643, 2968.385 7476.643, 2968.385 7486.643, 2968.385 7496.643, 2968.385 7506.643, 2968.385 7516.643, 2968.385 7526.643, 2968.385 7536.643, 2968.385 7546.643, 2968.385 7556.643, 2968.385 7566.643, 2968.385 7576.643, 2968.385 7586.643, 2968.385 7596.643, 2968.385 7606.643, 2968.385 7616.643, 2968.385 7626.643, 2968.385 7636.643, 2968.385 7646.643, 2968.385 7656.643, 2968.385 7666.643, 2968.385 7676.643, 2968.385 7686.643, 2968.385 7696.643, 2968.385 7706.643, 2968.385 7716.643, 2968.385 7726.643, 2968.385 7736.643, 2968.385 7746.643, 2968.385 7756.643, 2968.385 7766.643, 2968.385 7776.643, 2968.385 7786.643, 2968.385 7796.643, 2968.385 7806.643, 2968.385 7816.643, 2968.385 7826.643, 2968.385 7836.643, 2968.385 7846.643, 2968.385 7856.643, 2968.385 7866.643, 2968.385 7876.643, 2968.385 7886.643, 2968.385 7896.643, 2968.385 7906.643, 2968.385 7916.643, 2968.385 7926.643, 2968.385 7936.643, 2968.385 7946.643, 2968.385 7956.643, 2968.385 7966.643, 2968.385 7976.643, 2968.385 7986.643, 2968.385 7996.643, 2968.385 8006.643, 2968.385 8016.643, 2968.385 8026.643, 2968.385 8036.643, 2968.385 8046.643, 2968.385 8056.643, 2968.385 8066.643, 2968.385 8076.643, 2968.385 8086.643, 2968.385 8096.643, 2968.385 8106.643, 2968.385 8116.643, 2968.385 8126.643, 2968.385 8136.643, 2968.385 8146.643, 2968.385 8156.643, 2968.385 8166.643, 2968.385 8176.643, 2968.385 8186.643, 2968.385 8196.643, 2968.385 8206.643, 2968.385 8216.643, 2968.385 8226.643, 2968.385 8236.643, 2968.385 8246.643, 2968.385 8256.643, 2968.385 8266.643, 2968.385 8276.643, 2968.385 8286.643, 2968.385 8296.643, 2968.385 8306.643, 2968.385 8316.643, 2968.385 8326.643, 2968.385 8336.643, 2968.385 8346.643, 2968.385 8356.643, 2968.385 8366.643, 2968.385 8376.643, 2968.385 8386.643, 2968.385 8396.643, 2968.385 8406.643, 2968.385 8416.643, 2968.385 8426.643, 2968.385 8436.643, 2968.385 8446.643, 2968.385 8456.643, 2968.385 8466.643, 2968.385 8476.643, 2968.385 8486.643, 2968.385 8496.643, 2968.385 8506.643, 2968.385 8516.643, 2968.385 8526.643, 2968.385 8536.643, 2968.385 8546.643, 2968.385 8556.643, 2968.385 8566.643, 2968.385 8576.643, 2968.385 8586.643, 2968.385 8596.643, 2968.385 8606.643, 2968.385 8616.643, 2968.385 8626.643, 2968.385 8636.643, 2968.385 8646.643, 2968.385 8656.643, 2968.385 8666.643, 2968.385 8676.643, 2968.385 8686.643, 2968.385 8696.643, 2968.385 8706.643, 2968.385 8716.643, 2968.385 8726.643, 2968.385 8736.643, 2968.385 8746.643, 2968.385 8756.643, 2968.385 8774.262, 2968.385 8776.447, 2968.385 8786.447, 2968.385 8796.447, 2968.385 8806.447, 2968.385 8816.447, 2968.385 8826.447, 2968.385 8836.447, 2968.385 8846.447, 2968.385 8856.447, 2968.385 8866.447, 2968.385 8876.447, 2968.385 8886.447, 2968.385 8896.447, 2968.385 8906.447, 2968.385 8916.447, 2968.385 8926.447, 2968.385 8936.447, 2968.385 8946.447, 2968.385 8956.447, 2968.385 8966.447, 2968.385 8976.447, 2968.385 8986.447, 2968.385 8996.447, 2968.385 9006.447, 2968.385 9016.447, 2968.385 9026.447, 2968.385 9036.447, 2968.385 9046.447, 2968.385 9052.550, 2968.385 9062.550, 2968.385 9072.550, 2968.385 9074.281, 2968.385 9071.382, 2958.814 9068.481, 2949.244 9065.581, 2939.674 9062.682, 2930.104 9059.781, 2920.533 9056.882, 2910.963 9053.981, 2901.393 9051.082, 2891.822 9048.182, 2882.252 9045.281, 2872.682 9042.382, 2863.112 9039.159, 2852.477 9033.904, 2843.969 9028.650, 2835.461 9023.396, 2826.953 9018.141, 2818.445 9012.886, 2809.937 9007.631, 2801.428 9002.377, 2792.920 8997.122, 2784.412 8991.867, 2775.904 8986.612, 2767.396 8981.358, 2758.888 8976.104, 2750.380 8970.849, 2741.871 8965.594, 2733.363 8960.340, 2724.855 8955.085, 2716.347 8949.830, 2707.839 8944.575, 2699.331 8939.321, 2690.823 8936.979, 2687.032 8933.787, 2677.555 8930.594, 2668.079 8927.401, 2658.602 8924.208, 2649.125 8921.016, 2639.649 8917.823, 2630.172 8914.630, 2620.696 8911.438, 2611.219 8908.244, 2601.742 8905.052, 2592.266 8901.858, 2582.789 8898.666, 2573.313 8895.474, 2563.836 8892.280, 2554.359 8889.088, 2544.883 8885.895, 2535.406 8882.702, 2525.930 8879.509, 2516.453 8876.316, 2506.976 8873.124, 2497.500 8869.931, 2488.023 8866.738, 2478.547 8863.545, 2469.070 8860.353, 2459.593 8857.159, 2450.117 8853.967, 2440.640 8850.773, 2431.164 8847.581, 2421.687 8844.389, 2412.210 8841.195, 2402.734 8838.003, 2393.257 8834.810, 2383.781 8831.617, 2374.304 8828.424, 2364.827 8825.231, 2355.351 8822.039, 2345.874 8818.846, 2336.398 8815.653, 2326.921 8812.460, 2317.444 8809.268, 2307.968 8806.074, 2298.491 8803.571, 2291.061 8801.252, 2281.333 8800.341, 2277.508 8797.115, 2268.042 8793.890, 2258.576 8790.664, 2249.111 8787.439, 2239.645 8784.214, 2230.180 8780.988, 2220.714 8777.763, 2211.249 8774.537, 2201.783 8771.312, 2192.317 8768.087, 2182.852 8764.861, 2173.386 8761.636, 2163.921 8758.411, 2154.455 8755.186, 2144.990 8751.960, 2135.524 8748.734, 2126.058 8745.510, 2116.593 8742.284, 2107.127 8739.059, 2097.662 8735.833, 2088.196 8732.607, 2078.731 8729.383, 2069.265 8726.157, 2059.799 8722.932, 2050.334 8719.706, 2040.868 8716.481, 2031.403 8713.256, 2021.937 8710.030, 2012.472 8706.805, 2003.006 8703.580, 1993.540 8700.354, 1984.075 8697.129, 1974.609 8693.903, 1965.144 8690.679, 1955.678 8687.453, 1946.213 8684.228, 1936.747 8681.002, 1927.281 8677.776, 1917.816 8674.552, 1908.350 8671.326, 1898.885 8668.101, 1889.419 8664.875, 1879.953 8661.650, 1870.488 8658.425, 1861.022 8655.199, 1851.557 8651.974, 1842.091 8648.749, 1832.626 8645.523, 1823.160 8642.298, 1813.695 8639.072, 1804.229 8635.847, 1794.763 8632.622, 1785.298 8629.396, 1775.832 8626.171, 1766.367 8622.945, 1756.901 8619.721, 1747.436 8616.495, 1737.970 8613.270, 1728.504 8610.278, 1719.726 8607.438, 1710.138 8604.597, 1700.550 8601.756, 1690.962 8598.915, 1681.374 8596.074, 1671.786 8593.232, 1662.198 8590.392, 1652.610 8587.551, 1643.022 8584.710, 1633.434 8582.440, 1625.774 " />
            <path fill="none" stroke-width="3.0" stroke-linecap="butt" stroke-opacity="1.0" stroke="rgb(0, 0, 0)" stroke-linejoin="round" d=" M 6937.667, 2635.247 6939.732, 2645.031 6941.796, 2654.816 6943.860, 2664.600 6945.925, 2674.385 6947.989, 2684.170 6950.053, 2693.954 6952.118, 2703.739 6954.182, 2713.523 6956.246, 2723.308 6958.311, 2733.093 6960.375, 2742.877 6962.439, 2752.662 6964.503, 2762.447 6966.567, 2772.231 6968.632, 2782.016 6970.696, 2791.800 6972.760, 2801.585 6974.825, 2811.370 6976.889, 2821.154 6978.953, 2830.939 6981.018, 2840.724 6983.082, 2850.508 6985.146, 2860.293 6987.210, 2870.077 6988.720, 2877.232 " />
            <path fill="none" stroke-width="3.0" stroke-linecap="butt" stroke-opacity="1.0" stroke="rgb(0, 0, 0)" stroke-linejoin="round" d=" M 6907.608, 2542.442 6910.689, 2551.956 6913.771, 2561.469 6916.852, 2570.982 6919.934, 2580.496 6923.015, 2590.009 6926.097, 2599.523 6929.178, 2609.036 6932.259, 2618.549 6935.341, 2628.063 6937.667, 2635.247 " />
            <path fill="none" stroke-width="3.0" stroke-linecap="butt" stroke-opacity="1.0" stroke="rgb(0, 0, 0)" stroke-linejoin="round" d=" M 6894.225, 2308.354 6893.124, 2318.293 6892.022, 2328.232 6890.920, 2338.171 6889.818, 2348.110 6888.716, 2358.050 6887.615, 2367.989 6886.513, 2377.928 6885.411, 2387.867 6884.310, 2397.806 6883.208, 2407.745 6882.106, 2417.684 6881.004, 2427.623 6879.902, 2437.562 6878.801, 2447.502 6877.699, 2457.441 6877.017, 2463.594 6880.634, 2472.917 6884.251, 2482.240 6887.868, 2491.563 6891.485, 2500.886 6895.102, 2510.209 6898.719, 2519.532 6902.336, 2528.855 6905.953, 2538.178 6907.608, 2542.442 " />
            <path fill="none" stroke-width="3.0" stroke-linecap="butt" stroke-opacity="1.0" stroke="rgb(0, 0, 0)" stroke-linejoin="round" d=" M 6747.351, 1775.594 6749.509, 1785.358 6751.668, 1795.122 6753.827, 1804.886 6755.986, 1814.650 6758.145, 1824.415 6760.303, 1834.179 6762.462, 1843.943 6764.621, 1853.707 6766.780, 1863.471 6768.938, 1873.236 6771.097, 1883.000 6773.256, 1892.764 6775.415, 1902.528 6777.574, 1912.292 6779.732, 1922.057 6781.891, 1931.821 6784.050, 1941.585 6786.209, 1951.349 6788.368, 1961.113 6790.526, 1970.878 6792.685, 1980.642 6794.844, 1990.406 6797.003, 2000.170 6799.162, 2009.934 6801.320, 2019.699 6803.345, 2028.857 6806.438, 2038.367 6809.530, 2047.877 6812.622, 2057.387 6815.714, 2066.897 6818.806, 2076.407 6821.898, 2085.917 6824.991, 2095.427 6828.083, 2104.937 6831.175, 2114.447 6834.268, 2123.956 6837.359, 2133.466 6840.452, 2142.976 6843.544, 2152.486 6846.636, 2161.996 6849.729, 2171.506 6852.821, 2181.016 6855.913, 2190.526 6859.005, 2200.036 6862.097, 2209.546 6865.189, 2219.056 6868.282, 2228.565 6871.374, 2238.075 6874.466, 2247.585 6877.558, 2257.095 6880.650, 2266.605 6883.743, 2276.115 6886.835, 2285.625 6889.927, 2295.135 6893.019, 2304.645 6894.225, 2308.354 " />
            <path fill="none" stroke-width="3.0" stroke-linecap="butt" stroke-opacity="1.0" stroke="rgb(0, 0, 0)" stroke-linejoin="round" d=" M 7061.235, 1613.766 7058.717, 1616.348 7056.073, 1618.801 7053.310, 1621.119 7050.435, 1623.298 7047.455, 1625.329 7044.376, 1627.210 7041.209, 1628.935 7037.959, 1630.501 7034.636, 1631.901 7031.246, 1633.135 7027.800, 1634.198 7024.305, 1635.088 7020.769, 1635.803 7017.203, 1636.340 7013.613, 1636.700 7010.011, 1636.879 7006.404, 1636.879 7002.802, 1636.700 6999.213, 1636.340 6995.646, 1635.803 6992.111, 1635.088 6988.616, 1634.198 6985.169, 1633.135 6981.780, 1631.901 6978.456, 1630.501 6975.207, 1628.935 6972.039, 1627.210 6968.961, 1625.329 6965.981, 1623.298 6963.106, 1621.119 6960.343, 1618.801 6957.699, 1616.348 6955.180, 1613.766 6952.793, 1611.061 6950.545, 1608.241 6948.439, 1605.313 6946.482, 1602.283 6944.679, 1599.159 6943.033, 1595.949 6941.550, 1592.662 6940.232, 1589.305 6939.083, 1585.885 6938.106, 1582.414 6937.304, 1578.896 6936.678, 1575.345 6936.229, 1571.766 6935.959, 1568.169 6935.870, 1564.563 6935.959, 1560.958 6936.229, 1557.360 6936.678, 1553.781 6937.304, 1550.230 6938.106, 1546.714 6939.083, 1543.241 6940.232, 1539.823 6941.550, 1536.465 6943.033, 1533.177 6944.679, 1529.967 6946.482, 1526.844 6948.439, 1523.814 6950.545, 1520.885 6952.793, 1518.065 6955.180, 1515.361 6957.699, 1512.779 6960.343, 1510.325 6963.106, 1508.007 6965.981, 1505.830 6968.961, 1503.798 6972.039, 1501.917 6975.207, 1500.192 6978.456, 1498.627 6981.780, 1497.226 6985.169, 1495.992 6988.616, 1494.929 6992.111, 1494.039 6995.646, 1493.324 6999.213, 1492.786 7002.802, 1492.428 7006.404, 1492.248 7010.011, 1492.248 7013.613, 1492.428 7017.203, 1492.786 7020.769, 1493.324 7024.305, 1494.039 7027.800, 1494.929 7031.246, 1495.992 7034.636, 1497.226 7037.959, 1498.627 7041.209, 1500.192 7044.376, 1501.917 7047.455, 1503.798 7050.435, 1505.830 7053.310, 1508.007 7056.073, 1510.325 7058.717, 1512.779 7061.235, 1515.361 7063.622, 1518.065 7065.871, 1520.885 7067.976, 1523.814 7069.933, 1526.844 7071.737, 1529.967 7073.382, 1533.177 7074.865, 1536.465 7076.183, 1539.823 7077.332, 1543.241 7078.309, 1546.714 7079.112, 1550.230 7079.738, 1553.781 7080.187, 1557.360 7080.456, 1560.958 7080.546, 1564.563 7080.456, 1568.169 7080.187, 1571.766 7079.738, 1575.345 7079.112, 1578.896 7078.309, 1582.414 7077.332, 1585.885 7076.183, 1589.305 7074.865, 1592.662 7073.382, 1595.949 7071.737, 1599.159 7069.933, 1602.283 7067.976, 1605.313 7065.871, 1608.241 7063.622, 1611.061 7061.235, 1613.766 " />
            <path fill="none" stroke-width="3.0" stroke-linecap="butt" stroke-opacity="1.0" stroke="rgb(0, 0, 0)" stroke-linejoin="round" d=" M 8582.440, 1625.774 8578.259, 1616.690 8574.078, 1607.605 8569.897, 1598.521 8568.537, 1595.565 8565.601, 1586.006 8562.665, 1576.447 8559.729, 1566.887 8556.793, 1557.328 8553.856, 1547.769 8550.920, 1538.209 8547.984, 1528.650 8545.048, 1519.091 8542.112, 1509.532 8539.176, 1499.973 8536.240, 1490.413 8533.304, 1480.854 8530.368, 1471.295 8527.432, 1461.735 8524.496, 1452.176 8521.560, 1442.617 8518.623, 1433.058 8515.688, 1423.498 8512.751, 1413.939 8509.815, 1404.380 8506.879, 1394.821 8503.943, 1385.261 8501.007, 1375.702 8498.071, 1366.143 8495.135, 1356.584 8492.199, 1347.024 8489.263, 1337.465 8486.326, 1327.906 8483.391, 1318.347 8480.454, 1308.787 8477.519, 1299.228 8474.582, 1289.669 8471.646, 1280.109 8468.710, 1270.550 8465.774, 1260.991 8462.838, 1251.432 8459.902, 1241.872 8456.966, 1232.313 8454.030, 1222.754 8451.094, 1213.195 8448.157, 1203.635 8445.222, 1194.076 8442.285, 1184.517 8439.350, 1174.958 8436.413, 1165.398 8433.478, 1155.839 8430.541, 1146.280 8427.605, 1136.721 8424.669, 1127.161 8421.733, 1117.602 8418.797, 1108.043 8415.860, 1098.484 8412.925, 1088.924 8409.988, 1079.365 8407.053, 1069.806 8404.116, 1060.246 8401.181, 1050.687 8398.244, 1041.128 8395.309, 1031.569 8392.372, 1022.009 8389.437, 1012.450 8386.500, 1002.891 8383.563, 993.332 8380.628, 983.772 8377.691, 974.213 8374.756, 964.654 8371.819, 955.095 8368.884, 945.535 8365.947, 935.976 8363.012, 926.417 8360.075, 916.858 8357.140, 907.298 8354.203, 897.739 8351.267, 888.180 8348.331, 878.621 8345.395, 869.061 8342.459, 859.502 8339.522, 849.943 8336.587, 840.384 8333.650, 830.824 8330.715, 821.265 8327.778, 811.706 8324.843, 802.146 8321.906, 792.587 8318.971, 783.028 8316.034, 773.469 8313.098, 763.909 8310.162, 754.350 8307.226, 744.791 8304.290, 735.232 8301.354, 725.672 8298.418, 716.113 8295.481, 706.554 8292.546, 696.995 8289.609, 687.435 8286.674, 677.876 8283.737, 668.317 8280.801, 658.758 8277.865, 649.198 8274.929, 639.639 8271.993, 630.080 8269.057, 620.521 8266.121, 610.961 8263.185, 601.402 8260.249, 591.843 8257.312, 582.283 8254.377, 572.724 8248.522, 553.663 8243.079, 545.275 8239.625, 539.952 8238.041, 530.078 8236.456, 520.205 8234.872, 510.331 8233.288, 500.457 8231.703, 490.583 8230.119, 480.710 8228.534, 470.836 8226.950, 460.962 8225.365, 451.089 8223.781, 441.215 8222.197, 431.341 8220.612, 421.468 8219.028, 411.594 8217.443, 401.720 8215.859, 391.846 8214.274, 381.973 8212.690, 372.099 8211.106, 362.226 8209.521, 352.352 8207.938, 342.478 8206.353, 332.604 8204.769, 322.731 8203.184, 312.857 8201.600, 302.983 8200.016, 293.110 8198.431, 283.236 8196.847, 273.362 8195.262, 263.489 8193.678, 253.615 8192.093, 243.741 8190.509, 233.868 8188.924, 223.994 8187.340, 214.120 8185.755, 204.247 8184.171, 194.373 8182.587, 184.499 8181.002, 174.625 8179.418, 164.752 8177.833, 154.878 8176.249, 145.004 8174.665, 135.131 8173.081, 125.257 8171.496, 115.383 8169.912, 105.510 8168.327, 95.636 8166.676, 85.349 8165.449, 75.424 8164.222, 65.500 8162.995, 55.575 8161.768, 45.651 8160.541, 35.727 8159.645, 28.480 8149.645, 28.474 8139.645, 28.468 8129.645, 28.462 8119.645, 28.455 8109.645, 28.449 8099.645, 28.443 8089.645, 28.437 8079.645, 28.430 8069.645, 28.424 8059.645, 28.418 8049.645, 28.412 8039.645, 28.406 8029.645, 28.399 8019.645, 28.393 8009.645, 28.387 7999.645, 28.380 7989.645, 28.374 7979.645, 28.368 7969.645, 28.362 7959.645, 28.355 7949.645, 28.349 7939.645, 28.343 7929.645, 28.337 7919.645, 28.331 7909.645, 28.324 7899.645, 28.318 7889.645, 28.312 7879.645, 28.306 7869.645, 28.299 7858.526, 28.292 7848.526, 28.286 7838.526, 28.280 7828.526, 28.274 7818.526, 28.268 7808.526, 28.261 7798.526, 28.255 7788.526, 28.249 7778.526, 28.242 7768.526, 28.236 7758.526, 28.230 7748.526, 28.224 7738.526, 28.218 7728.526, 28.211 7718.526, 28.205 7708.526, 28.199 7698.526, 28.193 7688.526, 28.187 7678.526, 28.180 7668.526, 28.174 7658.526, 28.168 7648.526, 28.162 7638.526, 28.155 7628.526, 28.149 7618.526, 28.143 7608.526, 28.136 7598.526, 28.130 7588.526, 28.124 7578.526, 28.118 7568.526, 28.112 7558.526, 28.105 7548.526, 28.099 7538.526, 28.093 7528.526, 28.087 7518.526, 28.081 7508.526, 28.074 7498.526, 28.068 7488.526, 28.062 7478.526, 28.055 7468.526, 28.049 7458.526, 28.043 7448.526, 28.037 7438.526, 28.031 7428.526, 28.024 7418.526, 28.018 7408.526, 28.012 7398.526, 28.006 7388.526, 28.000 7378.526, 27.993 7368.526, 27.987 7358.526, 27.981 7348.526, 27.975 7338.526, 27.968 7328.526, 27.962 7318.526, 27.956 7308.526, 27.949 7298.526, 27.943 7288.526, 27.937 7278.526, 27.931 7268.526, 27.925 7258.526, 27.918 7248.526, 27.912 7238.526, 27.906 7228.526, 27.900 7218.526, 27.894 7208.526, 27.887 7198.526, 27.881 7188.526, 27.875 7178.526, 27.869 7168.526, 27.862 7158.526, 27.856 7148.526, 27.850 7138.526, 27.844 7128.526, 27.837 7118.526, 27.831 7108.526, 27.825 7098.526, 27.819 7088.526, 27.812 7078.526, 27.806 7068.526, 27.800 7058.526, 27.794 7048.526, 27.788 7038.526, 27.781 7028.526, 27.775 7018.526, 27.769 7008.526, 27.763 6998.526, 27.756 6988.526, 27.750 6978.526, 27.744 6968.526, 27.738 6958.526, 27.731 6948.526, 27.725 6938.526, 27.719 6928.526, 27.713 6918.526, 27.707 6908.526, 27.700 6898.526, 27.694 6888.526, 27.688 6878.526, 27.682 6868.526, 27.675 6858.526, 27.669 6848.526, 27.663 6838.526, 27.657 6828.526, 27.650 6818.526, 27.644 6808.526, 27.638 6798.526, 27.632 6788.526, 27.625 6778.526, 27.619 6768.526, 27.613 6758.526, 27.607 6748.526, 27.601 6738.526, 27.594 6728.526, 27.588 6718.526, 27.582 6708.526, 27.576 6698.526, 27.569 6688.526, 27.563 6678.526, 27.557 6668.526, 27.551 6658.526, 27.544 6648.526, 27.538 6638.526, 27.532 6628.526, 27.526 6618.526, 27.520 6608.526, 27.513 6598.526, 27.507 6588.526, 27.501 6578.526, 27.495 6568.526, 27.488 6558.526, 27.482 6548.526, 27.476 6538.526, 27.470 6528.526, 27.463 6518.526, 27.457 6508.526, 27.451 6498.526, 27.445 6488.526, 27.438 6478.526, 27.432 6468.526, 27.426 6458.526, 27.420 6448.526, 27.414 6438.526, 27.407 6428.526, 27.401 6418.526, 27.395 6408.526, 27.389 6398.526, 27.382 6388.526, 27.376 6378.526, 27.370 6368.526, 27.364 6358.526, 27.357 6348.526, 27.351 6329.654, 27.339 " />
            <path fill="none" stroke-width="3.0" stroke-linecap="butt" stroke-opacity="1.0" stroke="rgb(0, 0, 0)" stroke-linejoin="round" d=" M 6680.705, 1565.304 6683.726, 1574.837 6686.747, 1584.370 6689.768, 1593.903 6692.789, 1603.435 6695.810, 1612.968 6698.832, 1622.501 6701.853, 1632.033 6704.874, 1641.566 6707.895, 1651.099 6710.916, 1660.632 6713.937, 1670.164 6716.958, 1679.697 6719.979, 1689.230 6723.000, 1698.762 6726.022, 1708.295 6729.043, 1717.828 6732.064, 1727.361 6735.085, 1736.893 6738.106, 1746.426 6741.127, 1755.959 6744.149, 1765.491 6747.351, 1775.594 " />
            <path fill="none" stroke-width="3.0" stroke-linecap="butt" stroke-opacity="1.0" stroke="rgb(0, 0, 0)" stroke-linejoin="round" d=" M 6207.118, 333.733 6210.863, 343.005 6214.608, 352.277 6218.354, 361.549 6222.099, 370.822 6225.844, 380.094 6229.589, 389.366 6233.334, 398.638 6237.080, 407.910 6240.825, 417.182 6244.570, 426.455 6248.316, 435.727 6252.061, 444.999 6255.806, 454.271 6259.552, 463.543 6263.297, 472.815 6267.042, 482.087 6270.788, 491.360 6274.533, 500.632 6278.278, 509.904 6282.023, 519.176 6285.769, 528.448 6289.514, 537.720 6293.259, 546.992 6297.004, 556.265 6300.750, 565.537 6304.495, 574.809 6308.240, 584.081 6311.985, 593.353 6315.730, 602.625 6319.476, 611.898 6323.221, 621.170 6326.966, 630.442 6330.712, 639.714 6334.457, 648.986 6338.202, 658.258 6341.948, 667.531 6345.693, 676.803 6349.438, 686.075 6353.184, 695.347 6356.929, 704.619 6360.674, 713.891 6364.419, 723.164 6368.165, 732.436 6371.910, 741.708 6375.655, 750.980 6379.400, 760.252 6383.146, 769.524 6386.891, 778.796 6390.636, 788.069 6394.381, 797.341 6398.127, 806.613 6401.872, 815.885 6405.617, 825.157 6409.363, 834.429 6413.108, 843.701 6416.853, 852.974 6420.599, 862.246 6424.344, 871.518 6428.089, 880.790 6431.834, 890.062 6435.580, 899.334 6439.325, 908.607 6443.070, 917.879 6446.815, 927.151 6450.561, 936.423 6454.306, 945.695 6458.051, 954.967 6461.796, 964.240 6465.542, 973.512 6469.287, 982.784 6473.032, 992.056 6476.777, 1001.328 6480.523, 1010.600 6484.268, 1019.873 6488.013, 1029.145 6491.759, 1038.417 6495.504, 1047.689 6499.249, 1056.961 6502.995, 1066.233 6506.740, 1075.505 6510.485, 1084.778 6514.230, 1094.050 6517.976, 1103.322 6521.721, 1112.594 6525.466, 1121.866 6529.211, 1131.138 6532.957, 1140.411 6536.702, 1149.683 6540.447, 1158.955 6544.192, 1168.227 6547.938, 1177.499 6551.683, 1186.771 6555.428, 1196.043 6559.174, 1205.316 6562.919, 1214.588 6566.664, 1223.860 6570.410, 1233.132 6574.155, 1242.404 6577.900, 1251.677 6581.646, 1260.949 6585.391, 1270.221 6589.136, 1279.493 6592.881, 1288.765 6596.626, 1298.037 6600.372, 1307.309 6604.117, 1316.582 6607.862, 1325.854 6611.607, 1335.126 6615.353, 1344.398 6619.098, 1353.670 6622.843, 1362.942 6626.588, 1372.214 6630.334, 1381.487 6634.079, 1390.759 6637.824, 1400.031 6641.570, 1409.303 6645.315, 1418.575 6649.060, 1427.847 6652.806, 1437.120 6656.551, 1446.392 6660.296, 1455.664 6666.281, 1470.480 6667.785, 1480.367 6669.289, 1490.253 6670.792, 1500.139 6672.296, 1510.026 6673.800, 1519.912 6675.304, 1529.798 6676.808, 1539.684 6678.311, 1549.571 6679.815, 1559.457 6680.705, 1565.304 " />
            <path fill="none" stroke-width="3.0" stroke-linecap="butt" stroke-opacity="1.0" stroke="rgb(0, 0, 0)" stroke-linejoin="round" d=" M 6137.335, 27.219 6139.074, 37.067 6140.812, 46.915 6142.550, 56.763 6144.118, 65.642 6146.405, 75.377 6148.693, 85.111 6150.980, 94.846 6153.269, 104.581 6155.556, 114.316 6157.844, 124.051 6160.131, 133.786 6162.419, 143.520 6164.707, 153.255 6166.994, 162.990 6169.282, 172.725 6171.569, 182.460 6173.857, 192.195 6176.145, 201.929 6178.432, 211.664 6180.720, 221.399 6183.007, 231.134 6185.295, 240.869 6187.583, 250.604 6189.871, 260.338 6192.158, 270.073 6194.446, 279.808 6196.733, 289.543 6199.021, 299.278 6201.309, 309.012 6203.596, 318.747 6205.884, 328.482 6207.118, 333.733 " />
            <path fill="none" stroke-width="3.0" stroke-linecap="butt" stroke-opacity="1.0" stroke="rgb(0, 0, 0)" stroke-linejoin="round" d=" M 6329.654, 27.339 6319.654, 27.333 6309.654, 27.327 6299.654, 27.321 6289.654, 27.314 6279.654, 27.308 6269.654, 27.302 6259.654, 27.296 6252.649, 27.291 6242.649, 27.285 6232.649, 27.279 6222.649, 27.273 6212.649, 27.266 6202.649, 27.260 6192.649, 27.254 6182.649, 27.248 6172.649, 27.241 6162.649, 27.235 6152.649, 27.229 6142.649, 27.223 6137.335, 27.219 " />
            <path fill="none" stroke-width="3.0" stroke-linecap="butt" stroke-opacity="1.0" stroke="rgb(0, 0, 0)" stroke-linejoin="round" d=" M 77.674, 2282.525 77.443, 2292.522 77.212, 2302.519 76.981, 2312.517 76.750, 2322.514 76.519, 2332.511 76.288, 2342.509 76.057, 2352.506 75.826, 2362.503 75.595, 2372.501 75.364, 2382.498 75.133, 2392.495 74.901, 2402.493 74.670, 2412.490 74.439, 2422.487 74.208, 2432.485 73.977, 2442.482 73.746, 2452.479 73.515, 2462.477 73.284, 2472.474 73.053, 2482.471 72.822, 2492.469 72.591, 2502.466 72.360, 2512.463 72.129, 2522.461 71.898, 2532.458 71.667, 2542.455 71.436, 2552.453 71.205, 2562.450 70.973, 2572.447 70.742, 2582.445 70.511, 2592.442 70.280, 2602.439 70.049, 2612.437 69.818, 2622.434 69.587, 2632.431 69.356, 2642.429 69.125, 2652.426 68.894, 2662.423 68.663, 2672.421 68.432, 2682.418 68.201, 2692.415 67.970, 2702.413 67.739, 2712.410 67.508, 2722.407 67.276, 2732.405 67.045, 2742.402 66.814, 2752.399 66.583, 2762.396 66.439, 2768.633 64.396, 2778.422 62.352, 2788.211 60.309, 2798.000 58.266, 2807.789 56.222, 2817.578 54.179, 2827.367 52.135, 2837.156 50.092, 2846.945 48.049, 2856.734 46.005, 2866.523 43.962, 2876.312 41.918, 2886.101 39.875, 2895.890 37.832, 2905.679 35.788, 2915.468 33.745, 2925.257 31.701, 2935.046 29.658, 2944.835 27.770, 2953.880 25.092, 2963.515 23.739, 2968.385 33.739, 2968.385 43.739, 2968.385 53.739, 2968.385 58.579, 2968.385 68.579, 2968.385 78.579, 2968.385 88.579, 2968.385 98.579, 2968.385 99.036, 2968.385 109.036, 2968.385 119.036, 2968.385 129.036, 2968.385 139.036, 2968.385 149.036, 2968.385 159.036, 2968.385 169.036, 2968.385 179.036, 2968.385 189.036, 2968.385 199.036, 2968.385 209.036, 2968.385 219.036, 2968.385 229.036, 2968.385 239.036, 2968.385 249.036, 2968.385 259.036, 2968.385 269.036, 2968.385 279.036, 2968.385 289.036, 2968.385 299.036, 2968.385 309.036, 2968.385 319.036, 2968.385 329.036, 2968.385 339.036, 2968.385 349.036, 2968.385 359.036, 2968.385 369.036, 2968.385 379.036, 2968.385 389.036, 2968.385 399.036, 2968.385 409.036, 2968.385 419.036, 2968.385 429.036, 2968.385 439.036, 2968.385 449.036, 2968.385 459.036, 2968.385 469.036, 2968.385 479.036, 2968.385 489.036, 2968.385 499.036, 2968.385 509.036, 2968.385 519.036, 2968.385 529.036, 2968.385 539.036, 2968.385 549.036, 2968.385 559.036, 2968.385 569.036, 2968.385 579.036, 2968.385 589.036, 2968.385 599.036, 2968.385 609.036, 2968.385 619.036, 2968.385 629.036, 2968.385 639.036, 2968.385 649.036, 2968.385 659.036, 2968.385 669.036, 2968.385 679.036, 2968.385 691.814, 2968.385 701.814, 2968.385 711.814, 2968.385 721.814, 2968.385 731.814, 2968.385 741.814, 2968.385 751.814, 2968.385 761.814, 2968.385 771.814, 2968.385 781.814, 2968.385 791.814, 2968.385 801.814, 2968.385 811.814, 2968.385 821.814, 2968.385 831.814, 2968.385 841.814, 2968.385 851.814, 2968.385 861.814, 2968.385 871.814, 2968.385 881.814, 2968.385 891.814, 2968.385 901.814, 2968.385 911.814, 2968.385 921.814, 2968.385 931.814, 2968.385 941.814, 2968.385 951.814, 2968.385 961.814, 2968.385 971.814, 2968.385 981.814, 2968.385 991.814, 2968.385 1001.814, 2968.385 1011.814, 2968.385 1021.814, 2968.385 1031.814, 2968.385 1041.814, 2968.385 1051.814, 2968.385 1061.814, 2968.385 1071.814, 2968.385 1081.814, 2968.385 1091.814, 2968.385 1101.814, 2968.385 1111.814, 2968.385 1121.814, 2968.385 1131.814, 2968.385 1141.814, 2968.385 1151.814, 2968.385 1161.814, 2968.385 1171.814, 2968.385 1181.814, 2968.385 1191.814, 2968.385 1201.814, 2968.385 1211.814, 2968.385 1221.814, 2968.385 1231.814, 2968.385 1241.814, 2968.385 1251.814, 2968.385 1261.814, 2968.385 1271.814, 2968.385 1281.814, 2968.385 1291.814, 2968.385 1301.814, 2968.385 1311.814, 2968.385 1321.814, 2968.385 1331.814, 2968.385 1341.814, 2968.385 1351.814, 2968.385 1361.814, 2968.385 1371.814, 2968.385 1381.814, 2968.385 1391.814, 2968.385 1401.814, 2968.385 1411.814, 2968.385 1422.672, 2968.385 1432.672, 2968.385 1442.672, 2968.385 1452.672, 2968.385 1462.672, 2968.385 1472.672, 2968.385 1482.672, 2968.385 1492.672, 2968.385 1502.672, 2968.385 1512.672, 2968.385 1522.672, 2968.385 1532.672, 2968.385 1542.672, 2968.385 1552.672, 2968.385 1562.672, 2968.385 1572.672, 2968.385 1582.672, 2968.385 1592.672, 2968.385 1602.672, 2968.385 1612.672, 2968.385 1622.672, 2968.385 1632.672, 2968.385 1642.672, 2968.385 1652.672, 2968.385 1662.672, 2968.385 1672.672, 2968.385 1682.672, 2968.385 1692.672, 2968.385 1702.672, 2968.385 1712.672, 2968.385 1722.672, 2968.385 1732.672, 2968.385 1742.672, 2968.385 1752.672, 2968.385 1762.672, 2968.385 1772.672, 2968.385 1776.727, 2968.385 1776.651, 2958.385 1776.574, 2948.385 1776.498, 2938.386 1776.422, 2928.386 1776.346, 2918.386 1776.270, 2908.386 1776.193, 2898.387 1776.117, 2888.387 1776.041, 2878.387 1775.965, 2868.388 1775.889, 2858.388 1775.813, 2848.388 1775.775, 2843.474 " />
            <path fill="none" stroke-width="3.0" stroke-linecap="butt" stroke-opacity="1.0" stroke="rgb(0, 0, 0)" stroke-linejoin="round" d=" M 179.205, 1658.756 176.746, 1668.449 174.286, 1678.142 171.827, 1687.835 169.367, 1697.528 166.908, 1707.221 164.448, 1716.913 161.989, 1726.606 159.529, 1736.299 157.070, 1745.992 154.610, 1755.685 152.151, 1765.378 149.691, 1775.070 147.232, 1784.763 144.772, 1794.456 142.313, 1804.149 139.792, 1814.083 138.655, 1824.018 137.518, 1833.953 136.380, 1843.888 135.243, 1853.823 134.106, 1863.758 132.969, 1873.693 131.831, 1883.629 130.694, 1893.564 129.557, 1903.499 128.420, 1913.434 127.282, 1923.369 126.145, 1933.304 125.008, 1943.239 123.871, 1953.174 122.733, 1963.109 121.596, 1973.045 120.459, 1982.980 119.321, 1992.915 118.184, 2002.850 117.047, 2012.785 115.910, 2022.720 114.772, 2032.655 113.635, 2042.591 112.498, 2052.526 111.361, 2062.461 109.977, 2074.552 108.442, 2084.434 106.907, 2094.315 105.372, 2104.197 103.837, 2114.078 102.303, 2123.960 100.768, 2133.841 99.233, 2143.723 97.698, 2153.604 96.163, 2163.486 94.629, 2173.367 93.094, 2183.249 91.559, 2193.130 90.024, 2203.012 88.489, 2212.893 86.955, 2222.775 85.420, 2232.656 83.885, 2242.538 82.350, 2252.419 80.815, 2262.301 79.281, 2272.182 77.674, 2282.525 " />
            <path fill="none" stroke-width="3.0" stroke-linecap="butt" stroke-opacity="1.0" stroke="rgb(0, 0, 0)" stroke-linejoin="round" d=" M 948.481, 1089.198 946.631, 1091.094 944.689, 1092.897 942.658, 1094.601 940.546, 1096.201 " />
            <path fill="none" stroke-width="3.0" stroke-linecap="butt" stroke-opacity="1.0" stroke="rgb(0, 0, 0)" stroke-linejoin="round" d=" M 954.872, 1080.761 953.434, 1082.987 951.887, 1085.139 950.235, 1087.211 " />
            <path fill="none" stroke-width="3.0" stroke-linecap="butt" stroke-opacity="1.0" stroke="rgb(0, 0, 0)" stroke-linejoin="round" d=" M 1775.775, 2843.474 1777.145, 2833.568 1778.514, 2823.662 1779.884, 2813.757 1781.253, 2803.851 1782.623, 2793.945 1783.992, 2784.039 1785.362, 2774.133 1786.731, 2764.228 1788.101, 2754.322 1789.470, 2744.416 1790.840, 2734.510 1792.209, 2724.605 1793.579, 2714.699 1794.949, 2704.793 1796.318, 2694.887 1797.688, 2684.981 1799.057, 2675.076 1800.427, 2665.170 1801.796, 2655.264 1803.166, 2645.358 1804.535, 2635.453 1805.905, 2625.547 1807.274, 2615.641 1808.644, 2605.735 1810.013, 2595.829 1811.383, 2585.924 1812.753, 2576.018 1814.122, 2566.112 1815.492, 2556.206 1816.861, 2546.301 1818.231, 2536.395 1819.600, 2526.489 1820.970, 2516.583 1822.339, 2506.678 1823.709, 2496.772 1825.078, 2486.866 1826.448, 2476.960 1827.817, 2467.054 1829.187, 2457.149 1830.557, 2447.243 1831.926, 2437.337 1833.296, 2427.431 1834.665, 2417.526 1836.035, 2407.620 1837.404, 2397.714 1838.774, 2387.808 1840.143, 2377.902 1841.513, 2367.997 1842.882, 2358.091 1844.252, 2348.185 1845.621, 2338.279 1846.991, 2328.374 1848.360, 2318.468 1849.730, 2308.562 1851.099, 2298.656 1852.469, 2288.750 1853.839, 2278.845 1855.208, 2268.939 1856.578, 2259.033 1857.947, 2249.127 1859.317, 2239.222 1860.686, 2229.316 1862.056, 2219.410 1863.425, 2209.504 1864.795, 2199.599 1866.164, 2189.693 1867.534, 2179.787 1868.903, 2169.881 1870.273, 2159.975 1871.642, 2150.070 1873.012, 2140.164 1874.381, 2130.258 1875.751, 2120.352 1877.121, 2110.447 1878.490, 2100.541 1879.860, 2090.635 1881.229, 2080.729 1882.599, 2070.823 1883.968, 2060.918 1885.338, 2051.012 1886.707, 2041.106 1888.077, 2031.200 1889.446, 2021.295 1890.816, 2011.389 1892.185, 2001.483 1893.555, 1991.577 1894.925, 1981.671 1896.294, 1971.766 1897.664, 1961.860 1899.033, 1951.954 1900.403, 1942.048 1901.772, 1932.143 1904.006, 1915.985 1906.305, 1906.253 1908.604, 1896.521 1910.902, 1886.788 1913.201, 1877.056 1915.500, 1867.324 1917.798, 1857.592 1920.097, 1847.859 1922.396, 1838.127 1924.695, 1828.395 1926.993, 1818.663 1929.292, 1808.931 1931.591, 1799.198 1933.890, 1789.466 1936.188, 1779.734 1938.487, 1770.002 1940.786, 1760.270 1943.084, 1750.537 1945.383, 1740.805 1947.682, 1731.073 1949.981, 1721.341 1952.279, 1711.609 1954.578, 1701.876 1956.877, 1692.144 1959.176, 1682.412 1961.474, 1672.680 1963.773, 1662.948 1966.072, 1653.215 1968.371, 1643.483 1970.669, 1633.751 1972.968, 1624.019 1975.267, 1614.286 1977.566, 1604.554 1979.272, 1597.330 1982.858, 1587.995 1986.444, 1578.660 1990.030, 1569.325 1993.616, 1559.990 1997.202, 1550.655 2000.788, 1541.320 2004.374, 1531.985 2007.960, 1522.650 2011.546, 1513.316 2015.131, 1503.981 2018.717, 1494.646 2022.303, 1485.311 2025.889, 1475.976 2029.475, 1466.641 2033.061, 1457.306 2036.647, 1447.971 2040.233, 1438.636 2043.819, 1429.301 2047.405, 1419.966 2050.991, 1410.631 2054.577, 1401.296 2058.163, 1391.961 2061.749, 1382.626 2065.335, 1373.292 2068.921, 1363.957 2072.507, 1354.622 2076.093, 1345.287 2079.679, 1335.952 2083.265, 1326.617 2086.851, 1317.282 2090.437, 1307.947 2094.022, 1298.612 2097.608, 1289.277 2101.194, 1279.942 2104.780, 1270.607 2109.002, 1259.617 2108.832, 1249.618 2108.661, 1239.620 2108.490, 1229.621 2108.320, 1219.623 2108.149, 1209.624 2107.979, 1199.626 2107.808, 1189.627 2107.637, 1179.629 2107.467, 1169.630 2107.296, 1159.631 2107.125, 1149.633 2106.955, 1139.634 2106.784, 1129.636 2106.614, 1119.637 2106.443, 1109.639 2106.272, 1099.640 2106.102, 1089.642 2105.931, 1079.643 2105.761, 1069.645 2105.590, 1059.646 2105.419, 1049.647 2105.249, 1039.649 2105.078, 1029.650 2104.908, 1019.652 2104.737, 1009.653 2104.566, 999.655 2104.396, 989.656 2104.225, 979.658 2104.055, 969.659 2103.884, 959.661 2103.713, 949.662 2103.543, 939.663 2103.372, 929.665 2103.202, 919.666 2103.031, 909.668 2102.860, 899.669 2102.690, 889.671 2102.519, 879.672 2102.349, 869.674 2102.178, 859.675 2102.007, 849.677 2101.837, 839.678 2101.666, 829.679 2101.496, 819.681 2101.285, 807.352 " />
            <path fill="none" stroke-width="3.0" stroke-linecap="butt" stroke-opacity="1.0" stroke="rgb(0, 0, 0)" stroke-linejoin="round" d=" M 958.495, 1073.693 957.405, 1076.108 956.197, 1078.467 954.872, 1080.761 " />
            <path fill="none" stroke-width="3.0" stroke-linecap="butt" stroke-opacity="1.0" stroke="rgb(0, 0, 0)" stroke-linejoin="round" d=" M 936.095, 1099.075 933.768, 1100.342 931.381, 1101.492 928.939, 1102.522 926.449, 1103.428 923.916, 1104.209 921.348, 1104.863 918.751, 1105.388 916.131, 1105.783 913.494, 1106.047 910.847, 1106.179 " />
            <path fill="none" stroke-width="3.0" stroke-linecap="butt" stroke-opacity="1.0" stroke="rgb(0, 0, 0)" stroke-linejoin="round" d=" M 962.669, 1053.049 962.602, 1055.698 962.404, 1058.341 962.075, 1060.970 961.615, 1063.580 961.025, 1066.163 " />
            <path fill="none" stroke-width="3.0" stroke-linecap="butt" stroke-opacity="1.0" stroke="rgb(0, 0, 0)" stroke-linejoin="round" d=" M 960.308, 1037.384 961.025, 1039.935 961.615, 1042.518 962.075, 1045.128 962.404, 1047.757 962.602, 1050.400 962.669, 1053.049 " />
            <path fill="none" stroke-width="3.0" stroke-linecap="butt" stroke-opacity="1.0" stroke="rgb(0, 0, 0)" stroke-linejoin="round" d=" M 959.463, 1034.872 960.308, 1037.384 " />
            <path fill="none" stroke-width="3.0" stroke-linecap="butt" stroke-opacity="1.0" stroke="rgb(0, 0, 0)" stroke-linejoin="round" d=" M 940.546, 1009.897 942.658, 1011.497 944.689, 1013.201 946.631, 1015.004 948.481, 1016.900 950.235, 1018.888 951.887, 1020.959 953.434, 1023.111 954.872, 1025.337 956.197, 1027.631 957.405, 1029.990 958.495, 1032.405 959.463, 1034.872 " />
            <path fill="none" stroke-width="3.0" stroke-linecap="butt" stroke-opacity="1.0" stroke="rgb(0, 0, 0)" stroke-linejoin="round" d=" M 2101.285, 807.352 2102.192, 797.393 2103.100, 787.434 2104.007, 777.475 2104.914, 767.517 2105.821, 757.558 2106.728, 747.599 2107.635, 737.640 2108.542, 727.682 2109.450, 717.723 2110.357, 707.764 2111.264, 697.805 2112.171, 687.846 2113.078, 677.888 2113.986, 667.929 2114.893, 657.970 2115.800, 648.011 2116.707, 638.053 2117.614, 628.094 2118.521, 618.135 2119.429, 608.176 2120.336, 598.218 2121.243, 588.259 2122.150, 578.300 2123.057, 568.341 2123.965, 558.383 2124.872, 548.424 2125.779, 538.465 2126.686, 528.506 2127.593, 518.547 2128.500, 508.589 2129.407, 498.630 2130.315, 488.671 2131.222, 478.712 2132.129, 468.754 2133.036, 458.795 2133.943, 448.836 2134.851, 438.877 2135.758, 428.918 2136.665, 418.960 2137.572, 409.001 2138.479, 399.042 2139.386, 389.083 2140.294, 379.125 2141.124, 370.011 2139.548, 360.136 2137.972, 350.261 2136.397, 340.386 2134.821, 330.510 2133.245, 320.635 2131.669, 310.760 2130.094, 300.885 2128.518, 291.010 2126.942, 281.135 2125.552, 272.423 2129.265, 263.138 2132.978, 253.853 2136.691, 244.568 2140.404, 235.282 2144.116, 225.997 2147.829, 216.712 2151.542, 207.427 2155.255, 198.142 2158.968, 188.856 2162.681, 179.571 2166.394, 170.286 2170.106, 161.001 2173.819, 151.716 2176.339, 145.415 2178.040, 135.560 2179.740, 125.706 2181.441, 115.852 2183.142, 105.997 2184.842, 96.143 2186.543, 86.289 2188.244, 76.434 2189.944, 66.580 2191.645, 56.726 2193.346, 46.872 2195.046, 37.017 2196.747, 27.163 2197.161, 24.763 2187.161, 24.757 2177.161, 24.751 2167.161, 24.745 2157.161, 24.739 2147.161, 24.732 2137.161, 24.726 2127.161, 24.720 2117.161, 24.714 2107.161, 24.707 2097.161, 24.701 2087.161, 24.695 2077.161, 24.689 2067.161, 24.682 2057.161, 24.676 2047.161, 24.670 2037.161, 24.664 2027.161, 24.657 2017.161, 24.651 2007.161, 24.645 1997.161, 24.639 1987.161, 24.633 1977.161, 24.626 1967.161, 24.620 1957.161, 24.614 1947.161, 24.608 1937.161, 24.601 1927.161, 24.595 1917.161, 24.589 1907.161, 24.583 1897.161, 24.576 1887.161, 24.570 1877.161, 24.564 1867.161, 24.558 1857.161, 24.552 1847.161, 24.545 1837.161, 24.539 1827.161, 24.533 1817.161, 24.527 1807.161, 24.520 1797.161, 24.514 1787.161, 24.508 1777.161, 24.502 1767.161, 24.495 1757.161, 24.489 1747.161, 24.483 1737.161, 24.477 1727.161, 24.470 1717.161, 24.464 1707.161, 24.458 1697.161, 24.452 1687.161, 24.446 1673.370, 24.437 1663.370, 24.431 1653.370, 24.424 1643.370, 24.418 1633.370, 24.412 1627.951, 24.408 1617.951, 24.402 1607.951, 24.396 1597.951, 24.390 1587.951, 24.384 1577.951, 24.377 1567.951, 24.371 1557.951, 24.365 1547.951, 24.359 1537.951, 24.352 1527.951, 24.346 1517.951, 24.340 1507.951, 24.334 1497.951, 24.327 1487.951, 24.321 1477.951, 24.315 1467.951, 24.309 1457.951, 24.302 1447.951, 24.296 1437.951, 24.290 1427.951, 24.284 1417.951, 24.278 1407.951, 24.271 1397.951, 24.265 1387.951, 24.259 1377.951, 24.252 1367.951, 24.246 1357.951, 24.240 1355.188, 24.238 1345.188, 24.232 1335.188, 24.226 1325.188, 24.220 1315.188, 24.213 1305.188, 24.207 1295.188, 24.201 1285.188, 24.195 1275.188, 24.188 1265.188, 24.182 1255.188, 24.176 1245.188, 24.170 1235.188, 24.163 1225.188, 24.157 1215.188, 24.151 1205.188, 24.145 1195.188, 24.138 1185.188, 24.132 1175.188, 24.126 1165.188, 24.120 1155.188, 24.114 1145.188, 24.107 1135.188, 24.101 1125.188, 24.095 1115.188, 24.089 1107.135, 24.083 " />
            <path fill="none" stroke-width="3.0" stroke-linecap="butt" stroke-opacity="1.0" stroke="rgb(0, 0, 0)" stroke-linejoin="round" d=" M 933.768, 1005.756 936.095, 1007.023 938.357, 1008.405 940.546, 1009.897 " />
            <path fill="none" stroke-width="3.0" stroke-linecap="butt" stroke-opacity="1.0" stroke="rgb(0, 0, 0)" stroke-linejoin="round" d=" M 931.381, 1004.606 933.768, 1005.756 " />
            <path fill="none" stroke-width="3.0" stroke-linecap="butt" stroke-opacity="1.0" stroke="rgb(0, 0, 0)" stroke-linejoin="round" d=" M 928.939, 1003.577 931.381, 1004.606 " />
            <path fill="none" stroke-width="3.0" stroke-linecap="butt" stroke-opacity="1.0" stroke="rgb(0, 0, 0)" stroke-linejoin="round" d=" M 910.847, 1106.179 908.197, 1106.179 905.551, 1106.047 902.914, 1105.783 " />
            <path fill="none" stroke-width="3.0" stroke-linecap="butt" stroke-opacity="1.0" stroke="rgb(0, 0, 0)" stroke-linejoin="round" d=" M 892.596, 1103.428 890.106, 1102.522 887.664, 1101.492 885.276, 1100.342 882.949, 1099.075 880.688, 1097.693 878.499, 1096.201 876.386, 1094.601 " />
            <path fill="none" stroke-width="3.0" stroke-linecap="butt" stroke-opacity="1.0" stroke="rgb(0, 0, 0)" stroke-linejoin="round" d=" M 876.386, 1094.601 874.356, 1092.897 872.414, 1091.094 870.563, 1089.198 868.810, 1087.211 867.158, 1085.139 865.611, 1082.987 864.173, 1080.761 862.848, 1078.467 861.639, 1076.108 860.549, 1073.693 859.581, 1071.226 858.737, 1068.714 858.019, 1066.163 857.430, 1063.580 856.970, 1060.970 856.640, 1058.341 " />
            <path fill="none" stroke-width="3.0" stroke-linecap="butt" stroke-opacity="1.0" stroke="rgb(0, 0, 0)" stroke-linejoin="round" d=" M 337.082, 1001.251 334.560, 1010.928 332.037, 1020.605 329.515, 1030.282 326.993, 1039.958 324.471, 1049.635 321.949, 1059.312 319.427, 1068.988 316.904, 1078.665 314.382, 1088.342 311.860, 1098.019 309.338, 1107.695 306.816, 1117.372 304.293, 1127.049 301.771, 1136.725 299.249, 1146.402 296.727, 1156.079 294.205, 1165.755 291.683, 1175.432 289.160, 1185.109 286.638, 1194.786 284.116, 1204.462 281.594, 1214.139 279.072, 1223.816 276.550, 1233.492 274.027, 1243.169 271.505, 1252.846 268.983, 1262.523 266.461, 1272.199 263.939, 1281.876 261.417, 1291.553 258.894, 1301.229 256.372, 1310.906 253.850, 1320.583 251.328, 1330.260 248.806, 1339.936 246.283, 1349.613 243.761, 1359.290 241.239, 1368.966 238.717, 1378.643 236.195, 1388.320 233.673, 1397.996 231.150, 1407.673 228.628, 1417.350 226.106, 1427.027 223.584, 1436.703 221.062, 1446.380 218.540, 1456.057 216.017, 1465.733 213.495, 1475.410 210.973, 1485.087 208.451, 1494.764 205.929, 1504.440 203.406, 1514.117 200.884, 1523.794 198.362, 1533.470 195.840, 1543.147 193.318, 1552.824 190.796, 1562.500 187.677, 1574.466 186.677, 1584.416 185.677, 1594.366 184.677, 1604.316 183.677, 1614.266 182.677, 1624.216 181.677, 1634.166 180.677, 1644.115 179.677, 1654.065 179.205, 1658.756 " />
            <path fill="none" stroke-width="3.0" stroke-linecap="butt" stroke-opacity="1.0" stroke="rgb(0, 0, 0)" stroke-linejoin="round" d=" M 856.376, 1053.049 856.442, 1050.400 856.640, 1047.757 856.970, 1045.128 " />
            <path fill="none" stroke-width="3.0" stroke-linecap="butt" stroke-opacity="1.0" stroke="rgb(0, 0, 0)" stroke-linejoin="round" d=" M 856.970, 1045.128 857.430, 1042.518 858.019, 1039.935 858.737, 1037.384 859.581, 1034.872 860.549, 1032.405 " />
            <path fill="none" stroke-width="3.0" stroke-linecap="butt" stroke-opacity="1.0" stroke="rgb(0, 0, 0)" stroke-linejoin="round" d=" M 860.549, 1032.405 861.639, 1029.990 " />
            <path fill="none" stroke-width="3.0" stroke-linecap="butt" stroke-opacity="1.0" stroke="rgb(0, 0, 0)" stroke-linejoin="round" d=" M 861.639, 1029.990 862.848, 1027.631 " />
            <path fill="none" stroke-width="3.0" stroke-linecap="butt" stroke-opacity="1.0" stroke="rgb(0, 0, 0)" stroke-linejoin="round" d=" M 333.574, 886.784 334.664, 896.725 335.755, 906.665 336.846, 916.606 337.936, 926.546 339.027, 936.486 340.117, 946.427 341.208, 956.367 341.482, 958.872 340.450, 968.819 339.417, 978.765 338.384, 988.712 337.351, 998.658 337.082, 1001.251 " />
            <path fill="none" stroke-width="3.0" stroke-linecap="butt" stroke-opacity="1.0" stroke="rgb(0, 0, 0)" stroke-linejoin="round" d=" M 862.848, 1027.631 864.173, 1025.337 " />
            <path fill="none" stroke-width="3.0" stroke-linecap="butt" stroke-opacity="1.0" stroke="rgb(0, 0, 0)" stroke-linejoin="round" d=" M 864.173, 1025.337 865.611, 1023.111 867.158, 1020.959 868.810, 1018.888 870.563, 1016.900 872.414, 1015.004 874.356, 1013.201 876.386, 1011.497 878.499, 1009.897 880.688, 1008.405 882.949, 1007.023 885.276, 1005.756 887.664, 1004.606 890.106, 1003.577 892.596, 1002.670 895.128, 1001.889 897.696, 1001.235 900.294, 1000.710 902.914, 1000.315 905.551, 1000.051 908.197, 999.920 910.847, 999.920 913.494, 1000.051 916.131, 1000.315 918.751, 1000.710 921.348, 1001.235 923.916, 1001.889 926.449, 1002.670 " />
            <path fill="none" stroke-width="3.0" stroke-linecap="butt" stroke-opacity="1.0" stroke="rgb(0, 0, 0)" stroke-linejoin="round" d=" M 340.951, 317.832 341.128, 327.831 341.306, 337.829 341.484, 347.827 341.662, 357.826 341.840, 367.824 342.018, 377.823 342.195, 387.821 342.373, 397.819 342.551, 407.818 342.729, 417.816 342.907, 427.815 343.085, 437.813 343.279, 448.721 343.057, 458.718 342.836, 468.716 342.614, 478.713 342.393, 488.711 342.171, 498.708 341.950, 508.706 341.728, 518.704 341.507, 528.701 341.285, 538.699 341.064, 548.696 340.842, 558.694 340.621, 568.691 340.399, 578.689 340.178, 588.687 339.956, 598.684 339.735, 608.682 339.513, 618.679 339.292, 628.677 339.070, 638.674 338.849, 648.672 338.628, 658.669 338.406, 668.667 338.185, 678.664 337.963, 688.662 337.742, 698.659 337.520, 708.657 337.299, 718.655 337.077, 728.652 336.856, 738.650 336.634, 748.647 336.413, 758.645 336.191, 768.642 335.970, 778.640 335.748, 788.637 335.527, 798.635 335.305, 808.633 335.084, 818.630 334.862, 828.628 334.641, 838.625 334.419, 848.623 334.198, 858.620 333.976, 868.618 333.755, 878.615 333.574, 886.784 " />
            <path fill="none" stroke-width="3.0" stroke-linecap="butt" stroke-opacity="1.0" stroke="rgb(0, 0, 0)" stroke-linejoin="round" d=" M 372.994, 23.626 371.769, 33.551 370.544, 43.475 369.318, 53.400 368.093, 63.324 366.868, 73.249 365.642, 83.174 364.417, 93.098 363.192, 103.023 361.967, 112.948 360.741, 122.872 359.516, 132.797 358.291, 142.722 357.065, 152.646 355.840, 162.571 354.615, 172.496 353.390, 182.420 352.164, 192.345 350.939, 202.270 349.714, 212.194 348.489, 222.119 347.263, 232.044 346.202, 240.642 345.523, 250.619 344.844, 260.596 344.166, 270.573 343.487, 280.550 342.808, 290.527 342.129, 300.504 341.451, 310.481 340.951, 317.832 " />
            <path fill="none" stroke-width="3.0" stroke-linecap="butt" stroke-opacity="1.0" stroke="rgb(0, 0, 0)" stroke-linejoin="round" d=" M 926.449, 1002.670 928.939, 1003.577 " />
            <path fill="none" stroke-width="3.0" stroke-linecap="butt" stroke-opacity="1.0" stroke="rgb(0, 0, 0)" stroke-linejoin="round" d=" M 7717.150, 2319.271 7714.632, 2321.854 7711.988, 2324.307 7709.225, 2326.626 7706.350, 2328.803 7703.370, 2330.835 7700.292, 2332.715 7697.125, 2334.441 7693.875, 2336.006 7690.551, 2337.407 7687.161, 2338.641 7683.715, 2339.704 7680.220, 2340.593 7676.684, 2341.308 7673.118, 2341.846 7669.528, 2342.205 7665.926, 2342.384 7662.319, 2342.384 7658.717, 2342.205 7655.128, 2341.846 7651.561, 2341.308 7648.026, 2340.593 7644.531, 2339.704 7641.084, 2338.641 7637.695, 2337.407 7634.371, 2336.006 7631.122, 2334.441 7627.954, 2332.715 7624.876, 2330.835 7621.896, 2328.803 7619.021, 2326.626 7616.258, 2324.307 7613.614, 2321.854 7611.095, 2319.271 7608.709, 2316.568 7606.460, 2313.747 7604.354, 2310.818 7602.397, 2307.789 7600.594, 2304.665 7598.949, 2301.456 7597.465, 2298.168 7596.147, 2294.810 7594.999, 2291.392 7594.021, 2287.919 7593.219, 2284.403 7592.593, 2280.851 7592.144, 2277.271 7591.875, 2273.675 7591.785, 2270.070 7591.875, 2266.463 7592.144, 2262.867 7592.593, 2259.288 7593.219, 2255.735 7594.021, 2252.219 7594.999, 2248.747 7596.147, 2245.328 7597.465, 2241.970 7598.949, 2238.683 7600.594, 2235.473 7602.397, 2232.349 7604.354, 2229.320 7606.460, 2226.391 7608.709, 2223.570 7611.095, 2220.867 7613.614, 2218.284 7616.258, 2215.831 7619.021, 2213.513 7621.896, 2211.335 7624.876, 2209.303 7627.954, 2207.422 7631.122, 2205.697 7634.371, 2204.132 7637.695, 2202.731 7641.084, 2201.498 7644.531, 2200.434 7648.026, 2199.545 7651.561, 2198.830 7655.128, 2198.292 7658.717, 2197.933 7662.319, 2197.754 7665.926, 2197.754 7669.528, 2197.933 7673.118, 2198.292 7676.684, 2198.830 7680.220, 2199.545 7683.715, 2200.434 7687.161, 2201.498 7690.551, 2202.731 7693.875, 2204.132 7697.125, 2205.697 7700.292, 2207.422 7703.370, 2209.303 7706.350, 2211.335 7709.225, 2213.513 7711.988, 2215.831 7714.632, 2218.284 7717.150, 2220.867 7719.537, 2223.570 7721.786, 2226.391 7723.891, 2229.320 7725.848, 2232.349 7727.652, 2235.473 7729.297, 2238.683 7730.781, 2241.970 7732.098, 2245.328 7733.247, 2248.747 7734.224, 2252.219 7735.027, 2255.735 7735.653, 2259.288 7736.102, 2262.867 7736.371, 2266.463 7736.461, 2270.070 7736.371, 2273.675 7736.102, 2277.271 7735.653, 2280.851 7735.027, 2284.403 7734.224, 2287.919 7733.247, 2291.392 7732.098, 2294.810 7730.781, 2298.168 7729.297, 2301.456 7727.652, 2304.665 7725.848, 2307.789 7723.891, 2310.818 7721.786, 2313.747 7719.537, 2316.568 7717.150, 2319.271 " />
            <path fill="none" stroke-width="3.0" stroke-linecap="butt" stroke-opacity="1.0" stroke="rgb(0, 0, 0)" stroke-linejoin="round" d=" M 7858.526, 28.292 7848.526, 28.286 7838.526, 28.280 7828.526, 28.274 7818.526, 28.268 7808.526, 28.261 7798.526, 28.255 7788.526, 28.249 7778.526, 28.242 7768.526, 28.236 7758.526, 28.230 7748.526, 28.224 7738.526, 28.218 7728.526, 28.211 7718.526, 28.205 7708.526, 28.199 7698.526, 28.193 7688.526, 28.187 7678.526, 28.180 7668.526, 28.174 7658.526, 28.168 7648.526, 28.162 7638.526, 28.155 7628.526, 28.149 7618.526, 28.143 7608.526, 28.136 7598.526, 28.130 7588.526, 28.124 7578.526, 28.118 7568.526, 28.112 7558.526, 28.105 7548.526, 28.099 7538.526, 28.093 7528.526, 28.087 7518.526, 28.081 7508.526, 28.074 7498.526, 28.068 7488.526, 28.062 7478.526, 28.055 7468.526, 28.049 7458.526, 28.043 7448.526, 28.037 7438.526, 28.031 7428.526, 28.024 7418.526, 28.018 7408.526, 28.012 7398.526, 28.006 7388.526, 28.000 7378.526, 27.993 7368.526, 27.987 7358.526, 27.981 7348.526, 27.975 7338.526, 27.968 7328.526, 27.962 7318.526, 27.956 7308.526, 27.949 7298.526, 27.943 7288.526, 27.937 7278.526, 27.931 7268.526, 27.925 7258.526, 27.918 7248.526, 27.912 7238.526, 27.906 7228.526, 27.900 7218.526, 27.894 7208.526, 27.887 7198.526, 27.881 7188.526, 27.875 7178.526, 27.869 7168.526, 27.862 7158.526, 27.856 7148.526, 27.850 7138.526, 27.844 7128.526, 27.837 7118.526, 27.831 7108.526, 27.825 7098.526, 27.819 7088.526, 27.812 7078.526, 27.806 7068.526, 27.800 7058.526, 27.794 7048.526, 27.788 7038.526, 27.781 7028.526, 27.775 7018.526, 27.769 7008.526, 27.763 6998.526, 27.756 6988.526, 27.750 6978.526, 27.744 6968.526, 27.738 6958.526, 27.731 6948.526, 27.725 6938.526, 27.719 6928.526, 27.713 6918.526, 27.707 6908.526, 27.700 6898.526, 27.694 6888.526, 27.688 6878.526, 27.682 6868.526, 27.675 6858.526, 27.669 6848.526, 27.663 6838.526, 27.657 6828.526, 27.650 6818.526, 27.644 6808.526, 27.638 6798.526, 27.632 6788.526, 27.625 6778.526, 27.619 6768.526, 27.613 6758.526, 27.607 6748.526, 27.601 6738.526, 27.594 6728.526, 27.588 6718.526, 27.582 6708.526, 27.576 6698.526, 27.569 6688.526, 27.563 6678.526, 27.557 6668.526, 27.551 6658.526, 27.544 6648.526, 27.538 6638.526, 27.532 6628.526, 27.526 6618.526, 27.520 6608.526, 27.513 6598.526, 27.507 6588.526, 27.501 6578.526, 27.495 6568.526, 27.488 6558.526, 27.482 6548.526, 27.476 6538.526, 27.470 6528.526, 27.463 6518.526, 27.457 6508.526, 27.451 6498.526, 27.445 6488.526, 27.438 6478.526, 27.432 6468.526, 27.426 6458.526, 27.420 6448.526, 27.414 6438.526, 27.407 6428.526, 27.401 6418.526, 27.395 6408.526, 27.389 6398.526, 27.382 6388.526, 27.376 6378.526, 27.370 6368.526, 27.364 6358.526, 27.357 6348.526, 27.351 6329.654, 27.339 " />
            <path fill="none" stroke-width="3.0" stroke-linecap="butt" stroke-opacity="1.0" stroke="rgb(0, 0, 0)" stroke-linejoin="round" d=" M 2197.161, 24.763 2187.161, 24.757 2177.161, 24.751 2167.161, 24.745 2157.161, 24.739 2147.161, 24.732 2137.161, 24.726 2127.161, 24.720 2117.161, 24.714 2107.161, 24.707 2097.161, 24.701 2087.161, 24.695 2077.161, 24.689 2067.161, 24.682 2057.161, 24.676 2047.161, 24.670 2037.161, 24.664 2027.161, 24.657 2017.161, 24.651 2007.161, 24.645 1997.161, 24.639 1987.161, 24.633 1977.161, 24.626 1967.161, 24.620 1957.161, 24.614 1947.161, 24.608 1937.161, 24.601 1927.161, 24.595 1917.161, 24.589 1907.161, 24.583 1897.161, 24.576 1887.161, 24.570 1877.161, 24.564 1867.161, 24.558 1857.161, 24.552 1847.161, 24.545 1837.161, 24.539 1827.161, 24.533 1817.161, 24.527 1807.161, 24.520 1797.161, 24.514 1787.161, 24.508 1777.161, 24.501 1767.161, 24.495 1757.161, 24.489 1747.161, 24.483 1737.161, 24.477 1727.161, 24.470 1717.161, 24.464 1707.161, 24.458 1697.161, 24.452 1687.161, 24.446 1677.161, 24.439 1667.161, 24.433 1657.161, 24.427 1647.161, 24.420 1637.161, 24.414 1627.951, 24.408 " />
            <path fill="none" stroke-width="3.0" stroke-linecap="butt" stroke-opacity="1.0" stroke="rgb(0, 0, 0)" stroke-linejoin="round" d=" M 856.442, 1055.698 856.376, 1053.049 " />
            <path fill="none" stroke-width="3.0" stroke-linecap="butt" stroke-opacity="1.0" stroke="rgb(0, 0, 0)" stroke-linejoin="round" d=" M 856.640, 1058.341 856.442, 1055.698 " />
            <path fill="none" stroke-width="3.0" stroke-linecap="butt" stroke-opacity="1.0" stroke="rgb(0, 0, 0)" stroke-linejoin="round" d=" M 895.128, 1104.209 892.596, 1103.428 " />
            <path fill="none" stroke-width="3.0" stroke-linecap="butt" stroke-opacity="1.0" stroke="rgb(0, 0, 0)" stroke-linejoin="round" d=" M 897.696, 1104.863 895.128, 1104.209 " />
            <path fill="none" stroke-width="3.0" stroke-linecap="butt" stroke-opacity="1.0" stroke="rgb(0, 0, 0)" stroke-linejoin="round" d=" M 900.294, 1105.388 897.696, 1104.863 " />
            <path fill="none" stroke-width="3.0" stroke-linecap="butt" stroke-opacity="1.0" stroke="rgb(0, 0, 0)" stroke-linejoin="round" d=" M 902.914, 1105.783 900.294, 1105.388 " />
            <path fill="none" stroke-width="3.0" stroke-linecap="butt" stroke-opacity="1.0" stroke="rgb(0, 0, 0)" stroke-linejoin="round" d=" M 938.357, 1097.693 936.095, 1099.075 " />
            <path fill="none" stroke-width="3.0" stroke-linecap="butt" stroke-opacity="1.0" stroke="rgb(0, 0, 0)" stroke-linejoin="round" d=" M 940.546, 1096.201 938.357, 1097.693 " />
            <path fill="none" stroke-width="3.0" stroke-linecap="butt" stroke-opacity="1.0" stroke="rgb(0, 0, 0)" stroke-linejoin="round" d=" M 950.235, 1087.211 948.481, 1089.198 " />
            <path fill="none" stroke-width="3.0" stroke-linecap="butt" stroke-opacity="1.0" stroke="rgb(0, 0, 0)" stroke-linejoin="round" d=" M 959.463, 1071.226 958.495, 1073.693 " />
            <path fill="none" stroke-width="3.0" stroke-linecap="butt" stroke-opacity="1.0" stroke="rgb(0, 0, 0)" stroke-linejoin="round" d=" M 960.308, 1068.714 959.463, 1071.226 " />
            <path fill="none" stroke-width="3.0" stroke-linecap="butt" stroke-opacity="1.0" stroke="rgb(0, 0, 0)" stroke-linejoin="round" d=" M 961.025, 1066.163 960.308, 1068.714 " />
            <path fill="none" stroke-width="3.0" stroke-linecap="butt" stroke-opacity="1.0" stroke="rgb(0, 0, 0)" stroke-linejoin="round" d=" M 1107.135, 24.083 1097.135, 24.077 1087.135, 24.071 1077.135, 24.065 1067.135, 24.059 1057.135, 24.052 1047.135, 24.046 1037.135, 24.040 1027.135, 24.034 1017.135, 24.027 1007.135, 24.021 997.135, 24.015 987.135, 24.009 977.135, 24.002 967.135, 23.996 957.135, 23.990 947.135, 23.984 937.135, 23.978 927.135, 23.971 917.135, 23.965 907.135, 23.959 897.135, 23.953 887.135, 23.946 877.135, 23.940 867.135, 23.934 857.135, 23.928 847.135, 23.921 837.135, 23.915 827.135, 23.909 817.135, 23.903 807.135, 23.896 797.135, 23.890 787.135, 23.884 777.135, 23.878 767.135, 23.872 757.135, 23.865 747.135, 23.859 737.136, 23.853 727.135, 23.847 717.135, 23.840 707.136, 23.834 697.135, 23.828 687.136, 23.822 677.136, 23.815 667.135, 23.809 657.136, 23.803 647.136, 23.797 637.136, 23.791 627.136, 23.784 617.136, 23.778 607.136, 23.772 597.136, 23.766 587.136, 23.759 577.136, 23.753 567.136, 23.747 557.136, 23.741 547.136, 23.734 537.136, 23.728 527.136, 23.722 517.136, 23.716 507.136, 23.709 497.136, 23.703 487.136, 23.697 477.136, 23.691 467.136, 23.685 457.136, 23.678 447.136, 23.672 437.136, 23.666 427.136, 23.660 417.136, 23.653 407.136, 23.647 397.136, 23.641 387.136, 23.635 372.994, 23.626 " />
            <path fill="none" stroke-width="3.0" stroke-linecap="butt" stroke-opacity="1.0" stroke="rgb(0, 0, 0)" stroke-linejoin="round" d=" M 6793.942, 27.629 6783.942, 27.623 6773.942, 27.617 6763.942, 27.611 6753.942, 27.604 6743.942, 27.598 6733.942, 27.592 6723.942, 27.586 6713.942, 27.579 6703.942, 27.573 6693.942, 27.567 6683.942, 27.561 6673.942, 27.554 6663.942, 27.548 6653.942, 27.542 6643.942, 27.536 6633.942, 27.529 6623.942, 27.523 6613.942, 27.517 6603.942, 27.511 6593.942, 27.504 6583.942, 27.498 6573.942, 27.492 6563.942, 27.486 6553.942, 27.479 6543.942, 27.473 6533.942, 27.467 6523.942, 27.461 6513.942, 27.455 6503.942, 27.448 6493.942, 27.442 6483.942, 27.436 6473.942, 27.429 6463.942, 27.423 6453.942, 27.417 6443.942, 27.411 6433.942, 27.405 6423.942, 27.398 6413.942, 27.392 6403.942, 27.386 6393.942, 27.380 6383.942, 27.373 6373.942, 27.367 6361.145, 27.359 6351.145, 27.353 6341.145, 27.347 6331.145, 27.340 6329.654, 27.339 " />
            <path fill="none" stroke-width="3.0" stroke-linecap="butt" stroke-opacity="1.0" stroke="rgb(0, 0, 0)" stroke-linejoin="round" d=" M 7858.526, 28.292 7848.526, 28.286 7838.526, 28.280 7828.526, 28.274 7818.526, 28.268 7808.526, 28.261 7798.526, 28.255 7788.526, 28.249 7778.526, 28.243 7768.526, 28.236 7758.526, 28.230 7748.526, 28.224 7738.526, 28.218 7728.526, 28.211 7718.526, 28.205 7708.526, 28.199 7698.526, 28.193 7688.526, 28.187 7678.526, 28.180 7668.526, 28.174 7658.526, 28.168 7648.526, 28.162 7638.526, 28.155 7628.526, 28.149 7618.526, 28.143 7608.526, 28.137 7598.526, 28.130 7588.526, 28.124 7578.526, 28.118 7568.526, 28.112 7558.526, 28.105 7548.526, 28.099 7538.526, 28.093 7528.526, 28.087 7518.526, 28.081 7508.526, 28.074 7498.526, 28.068 7488.526, 28.062 7478.526, 28.056 7468.526, 28.050 7458.526, 28.043 7448.526, 28.037 7438.682, 28.031 7428.682, 28.025 7418.682, 28.018 7408.682, 28.012 7398.682, 28.006 7388.682, 28.000 7378.682, 27.993 7368.682, 27.987 7358.682, 27.981 7348.682, 27.975 7338.682, 27.969 7328.682, 27.962 7318.682, 27.956 7308.682, 27.950 7298.682, 27.944 7288.682, 27.938 7278.682, 27.931 7268.682, 27.925 7258.682, 27.919 7248.682, 27.913 7238.682, 27.906 7228.682, 27.900 7218.682, 27.894 7208.682, 27.888 7198.682, 27.881 7188.682, 27.875 7178.682, 27.869 7168.682, 27.863 7158.682, 27.856 7148.682, 27.850 7138.682, 27.844 7128.682, 27.838 7118.682, 27.832 7108.682, 27.825 7098.682, 27.819 7088.682, 27.813 7078.682, 27.807 7068.682, 27.800 7058.682, 27.794 7048.682, 27.788 7038.682, 27.782 7028.682, 27.775 7018.682, 27.769 7008.682, 27.763 6998.682, 27.757 6988.682, 27.750 6978.682, 27.744 6968.682, 27.738 6958.682, 27.732 6948.682, 27.726 6938.682, 27.719 6928.682, 27.713 6918.682, 27.707 6908.682, 27.701 6898.682, 27.695 6888.682, 27.688 6878.682, 27.682 6868.682, 27.676 6858.682, 27.670 6848.682, 27.663 6838.682, 27.657 6828.682, 27.651 6818.682, 27.645 6808.682, 27.638 6793.942, 27.629 " />
            <path fill="none" stroke-width="3.0" stroke-linecap="butt" stroke-opacity="1.0" stroke="rgb(0, 0, 0)" stroke-linejoin="round" d=" M 6361.145, 27.359 6371.145, 27.365 6381.145, 27.372 6391.145, 27.378 6401.145, 27.384 6411.145, 27.390 6421.145, 27.396 6431.145, 27.403 6441.145, 27.409 6451.145, 27.415 6461.145, 27.421 6471.145, 27.428 6481.145, 27.434 6491.145, 27.440 6501.145, 27.446 6511.145, 27.453 6521.145, 27.459 6531.145, 27.465 6541.145, 27.471 6551.145, 27.478 6561.145, 27.484 6571.145, 27.490 6581.145, 27.496 6591.145, 27.502 6601.145, 27.509 6611.145, 27.515 6621.145, 27.521 6631.145, 27.527 6641.145, 27.534 6651.145, 27.540 6661.145, 27.546 6671.145, 27.552 6681.145, 27.559 6691.145, 27.565 6701.145, 27.571 6711.145, 27.577 6721.145, 27.583 6731.145, 27.590 6741.145, 27.596 6751.145, 27.602 6761.145, 27.608 6771.145, 27.615 6781.145, 27.621 6791.145, 27.627 6801.145, 27.633 6811.145, 27.640 6821.145, 27.646 6831.145, 27.652 6841.145, 27.658 6851.145, 27.665 6861.145, 27.671 6871.145, 27.677 6881.145, 27.683 6891.145, 27.689 6901.145, 27.696 6911.145, 27.702 6921.145, 27.708 6931.145, 27.714 6941.145, 27.721 6951.145, 27.727 6961.145, 27.733 6971.145, 27.740 6981.145, 27.746 6991.145, 27.752 7001.145, 27.758 7011.145, 27.764 7021.145, 27.771 7031.145, 27.777 7041.145, 27.783 7051.145, 27.789 7061.145, 27.795 7071.145, 27.802 7081.145, 27.808 7091.145, 27.814 7101.145, 27.821 7111.145, 27.827 7121.145, 27.833 7131.145, 27.839 7141.145, 27.845 7151.145, 27.852 7161.145, 27.858 7171.145, 27.864 7181.145, 27.870 7191.145, 27.876 7201.145, 27.883 7211.145, 27.889 7221.145, 27.895 7231.145, 27.902 7241.145, 27.908 7251.145, 27.914 7261.145, 27.920 7271.145, 27.927 7281.145, 27.933 7291.145, 27.939 7301.145, 27.945 7311.145, 27.951 7321.145, 27.958 7331.145, 27.964 7341.145, 27.970 7351.145, 27.976 7361.145, 27.982 7371.145, 27.989 7381.145, 27.995 7391.145, 28.001 7401.145, 28.008 7411.145, 28.014 7421.145, 28.020 7438.682, 28.031 " />
        </g>
    </g>
<g id="slice-labels"><text x="589.3978750000001" y="514.4191666666667" text-anchor="middle" dominant-baseline="middle" font-family="Arial, sans-serif" font-size="59.05149885332309" font-weight="bold" fill="black" stroke="none" stroke-width="7.086179862398771" paint-order="stroke fill">Slice29 (Back)</text><text x="1720.7156250000003" y="514.4191666666667" text-anchor="middle" dominant-baseline="middle" font-family="Arial, sans-serif" font-size="59.05149885332309" font-weight="bold" fill="black" stroke="none" stroke-width="7.086179862398771" paint-order="stroke fill">Slice29 (Back)</text><text x="2852.0333750000004" y="514.4191666666667" text-anchor="middle" dominant-baseline="middle" font-family="Arial, sans-serif" font-size="59.05149885332309" font-weight="bold" fill="black" stroke="none" stroke-width="7.086179862398771" paint-order="stroke fill">Slice29 (Back)</text><text x="3983.3511250000006" y="514.4191666666667" text-anchor="middle" dominant-baseline="middle" font-family="Arial, sans-serif" font-size="59.05149885332309" font-weight="bold" fill="black" stroke="none" stroke-width="7.086179862398771" paint-order="stroke fill">Slice29 (Back)</text><text x="5114.668875" y="514.4191666666667" text-anchor="middle" dominant-baseline="middle" font-family="Arial, sans-serif" font-size="59.05149885332309" font-weight="bold" fill="black" stroke="none" stroke-width="7.086179862398771" paint-order="stroke fill">Slice29 (Back)</text><text x="6245.9866250000005" y="514.4191666666667" text-anchor="middle" dominant-baseline="middle" font-family="Arial, sans-serif" font-size="59.05149885332309" font-weight="bold" fill="black" stroke="none" stroke-width="7.086179862398771" paint-order="stroke fill">Slice29 (Back)</text><text x="7377.304375000001" y="514.4191666666667" text-anchor="middle" dominant-baseline="middle" font-family="Arial, sans-serif" font-size="59.05149885332309" font-weight="bold" fill="black" stroke="none" stroke-width="7.086179862398771" paint-order="stroke fill">Slice29 (Back)</text><text x="8508.622125" y="514.4191666666667" text-anchor="middle" dominant-baseline="middle" font-family="Arial, sans-serif" font-size="59.05149885332309" font-weight="bold" fill="black" stroke="none" stroke-width="7.086179862398771" paint-order="stroke fill">Slice29 (Back)</text><text x="589.3978750000001" y="1496.0055" text-anchor="middle" dominant-baseline="middle" font-family="Arial, sans-serif" font-size="59.05149885332309" font-weight="bold" fill="black" stroke="none" stroke-width="7.086179862398771" paint-order="stroke fill">Slice29 (Back)</text><text x="1720.7156250000003" y="1496.0055" text-anchor="middle" dominant-baseline="middle" font-family="Arial, sans-serif" font-size="59.05149885332309" font-weight="bold" fill="black" stroke="none" stroke-width="7.086179862398771" paint-order="stroke fill">Slice29 (Back)</text><text x="2852.0333750000004" y="1496.0055" text-anchor="middle" dominant-baseline="middle" font-family="Arial, sans-serif" font-size="59.05149885332309" font-weight="bold" fill="black" stroke="none" stroke-width="7.086179862398771" paint-order="stroke fill">Slice29 (Back)</text><text x="3983.3511250000006" y="1496.0055" text-anchor="middle" dominant-baseline="middle" font-family="Arial, sans-serif" font-size="59.05149885332309" font-weight="bold" fill="black" stroke="none" stroke-width="7.086179862398771" paint-order="stroke fill">Slice29 (Back)</text><text x="5114.668875" y="1496.0055" text-anchor="middle" dominant-baseline="middle" font-family="Arial, sans-serif" font-size="59.05149885332309" font-weight="bold" fill="black" stroke="none" stroke-width="7.086179862398771" paint-order="stroke fill">Slice29 (Back)</text><text x="6245.9866250000005" y="1496.0055" text-anchor="middle" dominant-baseline="middle" font-family="Arial, sans-serif" font-size="59.05149885332309" font-weight="bold" fill="black" stroke="none" stroke-width="7.086179862398771" paint-order="stroke fill">Slice29 (Back)</text><text x="7377.304375000001" y="1496.0055" text-anchor="middle" dominant-baseline="middle" font-family="Arial, sans-serif" font-size="59.05149885332309" font-weight="bold" fill="black" stroke="none" stroke-width="7.086179862398771" paint-order="stroke fill">Slice29 (Back)</text><text x="8508.622125" y="1496.0055" text-anchor="middle" dominant-baseline="middle" font-family="Arial, sans-serif" font-size="59.05149885332309" font-weight="bold" fill="black" stroke="none" stroke-width="7.086179862398771" paint-order="stroke fill">Slice29 (Back)</text><text x="589.3978750000001" y="2477.591833333334" text-anchor="middle" dominant-baseline="middle" font-family="Arial, sans-serif" font-size="59.05149885332309" font-weight="bold" fill="black" stroke="none" stroke-width="7.086179862398771" paint-order="stroke fill">Slice29 (Back)</text><text x="1720.7156250000003" y="2477.591833333334" text-anchor="middle" dominant-baseline="middle" font-family="Arial, sans-serif" font-size="59.05149885332309" font-weight="bold" fill="black" stroke="none" stroke-width="7.086179862398771" paint-order="stroke fill">Slice29 (Back)</text><text x="2852.0333750000004" y="2477.591833333334" text-anchor="middle" dominant-baseline="middle" font-family="Arial, sans-serif" font-size="59.05149885332309" font-weight="bold" fill="black" stroke="none" stroke-width="7.086179862398771" paint-order="stroke fill">Slice29 (Back)</text><text x="3983.3511250000006" y="2477.591833333334" text-anchor="middle" dominant-baseline="middle" font-family="Arial, sans-serif" font-size="59.05149885332309" font-weight="bold" fill="black" stroke="none" stroke-width="7.086179862398771" paint-order="stroke fill">Slice29 (Back)</text><text x="5114.668875" y="2477.591833333334" text-anchor="middle" dominant-baseline="middle" font-family="Arial, sans-serif" font-size="59.05149885332309" font-weight="bold" fill="black" stroke="none" stroke-width="7.086179862398771" paint-order="stroke fill">Slice29 (Back)</text><text x="6245.9866250000005" y="2477.591833333334" text-anchor="middle" dominant-baseline="middle" font-family="Arial, sans-serif" font-size="59.05149885332309" font-weight="bold" fill="black" stroke="none" stroke-width="7.086179862398771" paint-order="stroke fill">Slice29 (Back)</text><text x="7377.304375000001" y="2477.591833333334" text-anchor="middle" dominant-baseline="middle" font-family="Arial, sans-serif" font-size="59.05149885332309" font-weight="bold" fill="black" stroke="none" stroke-width="7.086179862398771" paint-order="stroke fill">Slice29 (Back)</text><text x="8508.622125" y="2477.591833333334" text-anchor="middle" dominant-baseline="middle" font-family="Arial, sans-serif" font-size="59.05149885332309" font-weight="bold" fill="black" stroke="none" stroke-width="7.086179862398771" paint-order="stroke fill">Slice29 (Back)</text></g></svg>