<?xml version='1.0' encoding='utf-8'?>
<svg xmlns="http://www.w3.org/2000/svg" xmlns:inkscape="http://www.inkscape.org/namespaces/inkscape" version="1.1" width="289.42601759545505mm" height="299.96948623657227mm" viewBox="-0.23440154839816785 0.004598620380765084 3418.4688030967964 3542.9998027592387" preserveAspectRatio="none">
    <g id="ViewLayer_LineSet" inkscape:groupmode="lineset" inkscape:label="ViewLayer_LineSet">
        <g inkscape:groupmode="layer" id="strokes" inkscape:label="strokes">
            <path fill="none" stroke-width="3.0" stroke-linecap="butt" stroke-opacity="1.0" stroke="rgb(0, 0, 0)" stroke-linejoin="round" d=" M 1079.482, 3208.580 1076.963, 3205.998 1074.577, 3203.293 1072.328, 3200.474 1070.222, 3197.544 1068.265, 3194.514 1066.461, 3191.391 1064.816, 3188.180 1063.332, 3184.893 1062.014, 3181.535 1060.865, 3178.115 1059.889, 3174.644 1059.086, 3171.127 1058.459, 3167.574 1058.011, 3163.995 1057.741, 3160.398 1057.651, 3156.792 1057.741, 3153.186 1058.011, 3149.589 1058.459, 3146.009 1059.086, 3142.457 1059.889, 3138.940 1060.865, 3135.468 1062.014, 3132.049 1063.332, 3128.691 1064.816, 3125.403 1066.461, 3122.193 1068.265, 3119.069 1070.222, 3116.040 1072.328, 3113.110 1074.577, 3110.290 1076.963, 3107.585 1079.482, 3105.003 1082.126, 3102.550 1084.890, 3100.231 1087.765, 3098.053 1090.745, 3096.021 1093.823, 3094.141 1096.991, 3092.416 1100.241, 3090.851 1103.565, 3089.449 1106.955, 3088.215 1110.401, 3087.152 1113.897, 3086.262 1117.433, 3085.547 1121.000, 3085.010 1124.589, 3084.651 1128.191, 3084.471 1131.799, 3084.471 1135.401, 3084.651 1138.990, 3085.010 1142.557, 3085.547 1146.093, 3086.262 1149.589, 3087.152 1153.036, 3088.215 1156.425, 3089.449 1159.749, 3090.851 1162.999, 3092.416 1166.167, 3094.141 1169.245, 3096.021 1172.225, 3098.053 1175.101, 3100.231 1177.864, 3102.550 1180.508, 3105.003 1183.027, 3107.585 1185.413, 3110.290 1187.662, 3113.110 1189.768, 3116.040 1191.725, 3119.069 1193.529, 3122.193 1195.174, 3125.403 1196.658, 3128.691 1197.976, 3132.049 1199.125, 3135.468 1200.102, 3138.940 1200.904, 3142.457 1201.531, 3146.009 1201.979, 3149.589 1202.249, 3153.186 1202.339, 3156.792 1202.249, 3160.398 1201.979, 3163.995 1201.531, 3167.574 1200.904, 3171.127 1200.102, 3174.644 1199.125, 3178.115 1197.976, 3181.535 1196.658, 3184.893 1195.174, 3188.180 1193.529, 3191.391 1191.725, 3194.514 1189.768, 3197.544 1187.662, 3200.474 1185.413, 3203.293 1183.027, 3205.998 1180.508, 3208.580 1177.864, 3211.034 1175.101, 3213.352 1172.225, 3215.531 1169.245, 3217.562 1166.167, 3219.443 1162.999, 3221.168 1159.749, 3222.733 1156.425, 3224.134 1153.036, 3225.368 1149.589, 3226.432 1146.093, 3227.321 1142.557, 3228.036 1138.990, 3228.574 1135.401, 3228.933 1131.799, 3229.113 1128.191, 3229.113 1124.589, 3228.933 1121.000, 3228.574 1117.433, 3228.036 1113.897, 3227.321 1110.401, 3226.432 1106.955, 3225.368 1103.565, 3224.134 1100.241, 3222.733 1096.991, 3221.168 1093.823, 3219.443 1090.745, 3217.562 1087.765, 3215.531 1084.890, 3213.352 1082.126, 3211.034 1079.482, 3208.580 " />
            <path fill="none" stroke-width="3.0" stroke-linecap="butt" stroke-opacity="1.0" stroke="rgb(0, 0, 0)" stroke-linejoin="round" d=" M 2260.602, 3209.184 2258.083, 3206.601 2255.697, 3203.897 2253.448, 3201.077 2251.342, 3198.148 2249.385, 3195.118 2247.582, 3191.993 2245.936, 3188.784 2244.452, 3185.496 2243.135, 3182.138 2241.986, 3178.719 2241.009, 3175.246 2240.206, 3171.730 2239.579, 3168.177 2239.131, 3164.598 2238.862, 3161.001 2238.771, 3157.395 2238.862, 3153.789 2239.131, 3150.192 2239.579, 3146.612 2240.206, 3143.060 2241.009, 3139.544 2241.986, 3136.071 2243.135, 3132.652 2244.452, 3129.294 2245.936, 3126.006 2247.582, 3122.797 2249.385, 3119.673 2251.342, 3116.642 2253.448, 3113.714 2255.697, 3110.893 2258.083, 3108.189 2260.602, 3105.606 2263.246, 3103.154 2266.010, 3100.834 2268.885, 3098.657 2271.865, 3096.624 2274.943, 3094.744 2278.111, 3093.018 2281.361, 3091.453 2284.685, 3090.052 2288.075, 3088.818 2291.521, 3087.755 2295.017, 3086.865 2298.553, 3086.151 2302.119, 3085.613 2305.709, 3085.254 2309.312, 3085.074 2312.919, 3085.074 2316.521, 3085.254 2320.111, 3085.613 2323.677, 3086.151 2327.213, 3086.865 2330.709, 3087.755 2334.156, 3088.818 2337.545, 3090.052 2340.869, 3091.453 2344.119, 3093.018 2347.287, 3094.744 2350.365, 3096.624 2353.345, 3098.657 2356.221, 3100.834 2358.984, 3103.154 2361.628, 3105.606 2364.147, 3108.189 2366.533, 3110.893 2368.782, 3113.714 2370.888, 3116.642 2372.845, 3119.673 2374.649, 3122.797 2376.294, 3126.006 2377.778, 3129.294 2379.096, 3132.652 2380.245, 3136.071 2381.221, 3139.544 2382.024, 3143.060 2382.651, 3146.612 2383.099, 3150.192 2383.369, 3153.789 2383.459, 3157.395 2383.369, 3161.001 2383.099, 3164.598 2382.651, 3168.177 2382.024, 3171.730 2381.221, 3175.246 2380.245, 3178.719 2379.096, 3182.138 2377.778, 3185.496 2376.294, 3188.784 2374.649, 3191.993 2372.845, 3195.118 2370.888, 3198.148 2368.782, 3201.077 2366.533, 3203.897 2364.147, 3206.601 2361.628, 3209.184 2358.984, 3211.637 2356.221, 3213.955 2353.345, 3216.133 2350.365, 3218.166 2347.287, 3220.046 2344.119, 3221.772 2340.869, 3223.337 2337.545, 3224.738 2334.156, 3225.971 2330.709, 3227.035 2327.213, 3227.925 2323.677, 3228.639 2320.111, 3229.177 2316.521, 3229.536 2312.919, 3229.716 2309.312, 3229.716 2305.709, 3229.536 2302.119, 3229.177 2298.553, 3228.639 2295.017, 3227.925 2291.521, 3227.035 2288.075, 3225.971 2284.685, 3224.738 2281.361, 3223.337 2278.111, 3221.772 2274.943, 3220.046 2271.865, 3218.166 2268.885, 3216.133 2266.010, 3213.955 2263.246, 3211.637 2260.602, 3209.184 " />
            <path fill="none" stroke-width="3.0" stroke-linecap="butt" stroke-opacity="1.0" stroke="rgb(0, 0, 0)" stroke-linejoin="round" d=" M 418.496, 2638.666 415.151, 2648.090 411.806, 2657.513 408.461, 2666.938 405.116, 2676.361 401.771, 2685.785 398.426, 2695.209 395.081, 2704.633 391.737, 2714.057 388.392, 2723.481 385.047, 2732.905 381.702, 2742.329 378.357, 2751.753 375.012, 2761.177 371.667, 2770.601 368.322, 2780.025 364.977, 2789.449 361.632, 2798.873 358.287, 2808.297 354.942, 2817.721 351.597, 2827.145 348.252, 2836.569 344.907, 2845.993 341.562, 2855.417 338.217, 2864.841 334.873, 2874.265 331.528, 2883.689 328.183, 2893.113 324.838, 2902.537 321.493, 2911.961 318.148, 2921.385 314.803, 2930.809 311.458, 2940.233 308.113, 2949.657 304.768, 2959.081 301.423, 2968.505 299.630, 2973.556 295.682, 2982.744 291.734, 2991.931 287.786, 3001.119 283.839, 3010.307 279.891, 3019.494 275.943, 3028.682 271.995, 3037.870 268.047, 3047.058 264.099, 3056.245 260.151, 3065.433 256.203, 3074.621 252.255, 3083.808 248.307, 3092.996 244.359, 3102.184 240.411, 3111.371 236.463, 3120.559 232.515, 3129.747 228.567, 3138.934 224.619, 3148.122 220.671, 3157.310 216.723, 3166.498 212.775, 3175.685 208.827, 3184.873 204.800, 3194.247 199.266, 3202.576 193.733, 3210.906 188.200, 3219.235 182.666, 3227.565 177.133, 3235.895 171.599, 3244.224 166.066, 3252.554 160.533, 3260.883 154.999, 3269.213 149.466, 3277.542 143.933, 3285.872 138.399, 3294.202 132.866, 3302.531 127.333, 3310.861 121.799, 3319.190 116.266, 3327.520 110.732, 3335.850 105.199, 3344.179 99.666, 3352.509 94.132, 3360.838 88.599, 3369.168 83.066, 3377.497 77.532, 3385.827 73.327, 3392.158 69.673, 3401.467 66.019, 3410.775 62.365, 3420.084 58.711, 3429.392 55.057, 3438.701 51.404, 3448.009 47.750, 3457.318 44.096, 3466.626 40.442, 3475.935 36.788, 3485.244 33.134, 3494.552 29.480, 3503.861 25.827, 3513.169 23.388, 3519.382 " />
            <path fill="none" stroke-width="3.0" stroke-linecap="butt" stroke-opacity="1.0" stroke="rgb(0, 0, 0)" stroke-linejoin="round" d=" M 552.021, 2207.244 551.875, 2217.243 551.729, 2227.242 551.583, 2237.240 551.436, 2247.240 551.290, 2257.238 551.144, 2267.237 550.998, 2277.236 550.883, 2285.109 547.377, 2294.474 543.870, 2303.839 540.363, 2313.204 536.857, 2322.569 533.350, 2331.934 529.843, 2341.299 526.337, 2350.664 522.830, 2360.029 519.323, 2369.394 515.817, 2378.759 512.310, 2388.124 508.803, 2397.489 505.297, 2406.854 501.790, 2416.219 498.283, 2425.584 494.777, 2434.949 491.270, 2444.314 487.763, 2453.679 484.257, 2463.044 480.750, 2472.409 477.243, 2481.774 473.737, 2491.139 470.230, 2500.504 466.723, 2509.869 463.216, 2519.234 459.710, 2528.599 456.203, 2537.964 452.696, 2547.329 449.190, 2556.694 445.683, 2566.059 442.176, 2575.424 438.670, 2584.789 435.163, 2594.154 431.656, 2603.519 428.150, 2612.884 424.643, 2622.249 421.136, 2631.614 418.496, 2638.666 " />
            <path fill="none" stroke-width="3.0" stroke-linecap="butt" stroke-opacity="1.0" stroke="rgb(0, 0, 0)" stroke-linejoin="round" d=" M 795.896, 1524.431 794.826, 1534.374 793.756, 1544.316 792.687, 1554.259 791.617, 1564.201 790.547, 1574.144 789.477, 1584.087 788.407, 1594.029 787.337, 1603.972 786.267, 1613.915 785.198, 1623.857 784.128, 1633.800 783.058, 1643.742 781.988, 1653.685 780.918, 1663.628 779.848, 1673.570 778.778, 1683.513 777.708, 1693.455 776.639, 1703.398 775.569, 1713.341 774.499, 1723.283 773.429, 1733.226 773.180, 1735.544 771.643, 1745.426 770.107, 1755.307 769.268, 1760.706 765.033, 1769.765 760.798, 1778.824 756.564, 1787.884 752.329, 1796.943 748.095, 1806.002 743.860, 1815.061 739.625, 1824.120 735.391, 1833.179 731.156, 1842.238 726.921, 1851.297 722.687, 1860.357 718.452, 1869.416 714.217, 1878.475 709.983, 1887.534 705.748, 1896.593 701.513, 1905.652 697.279, 1914.711 693.044, 1923.771 688.810, 1932.830 684.575, 1941.889 680.340, 1950.948 676.106, 1960.007 671.871, 1969.066 667.636, 1978.125 663.402, 1987.184 659.167, 1996.244 654.932, 2005.303 650.698, 2014.362 646.463, 2023.421 642.229, 2032.480 637.994, 2041.539 633.759, 2050.598 629.525, 2059.657 625.290, 2068.717 621.055, 2077.776 616.821, 2086.835 612.586, 2095.894 608.351, 2104.953 604.117, 2114.012 599.882, 2123.071 595.648, 2132.131 591.413, 2141.190 587.178, 2150.249 582.944, 2159.308 578.709, 2168.367 574.474, 2177.426 570.240, 2186.485 567.880, 2191.532 560.776, 2198.570 553.672, 2205.608 552.021, 2207.244 " />
            <path fill="none" stroke-width="3.0" stroke-linecap="butt" stroke-opacity="1.0" stroke="rgb(0, 0, 0)" stroke-linejoin="round" d=" M 867.383, 919.984 864.634, 929.598 861.885, 939.213 859.136, 948.828 856.388, 958.443 853.639, 968.058 850.890, 977.672 848.141, 987.287 845.392, 996.902 842.643, 1006.517 839.894, 1016.131 837.146, 1025.746 834.397, 1035.361 831.648, 1044.976 828.899, 1054.591 826.150, 1064.205 823.401, 1073.820 820.653, 1083.435 817.904, 1093.050 815.155, 1102.664 812.406, 1112.279 809.657, 1121.894 806.908, 1131.509 803.592, 1143.109 804.705, 1153.047 805.818, 1162.985 806.931, 1172.922 808.044, 1182.860 809.156, 1192.798 810.269, 1202.736 811.382, 1212.674 812.495, 1222.612 813.608, 1232.550 814.721, 1242.488 815.834, 1252.426 816.731, 1260.433 815.058, 1270.292 813.385, 1280.151 811.712, 1290.010 810.039, 1299.869 808.366, 1309.728 806.693, 1319.587 805.020, 1329.447 803.347, 1339.305 801.674, 1349.165 800.001, 1359.024 798.328, 1368.883 796.655, 1378.742 794.982, 1388.601 793.309, 1398.460 791.636, 1408.319 789.963, 1418.178 788.785, 1425.125 789.499, 1435.100 790.213, 1445.074 790.927, 1455.049 791.642, 1465.023 792.356, 1474.998 793.070, 1484.972 793.785, 1494.946 794.499, 1504.921 795.213, 1514.895 795.896, 1524.431 " />
            <path fill="none" stroke-width="3.0" stroke-linecap="butt" stroke-opacity="1.0" stroke="rgb(0, 0, 0)" stroke-linejoin="round" d=" M 1015.333, 212.329 1013.152, 222.088 1010.972, 231.848 1008.792, 241.607 1006.611, 251.366 1004.431, 261.126 1002.250, 270.885 1000.070, 280.645 997.890, 290.404 995.709, 300.164 993.529, 309.923 991.348, 319.682 989.168, 329.442 986.988, 339.201 984.807, 348.960 982.627, 358.720 980.446, 368.479 978.266, 378.239 976.086, 387.998 973.905, 397.758 971.725, 407.517 969.544, 417.276 967.364, 427.036 965.184, 436.795 963.003, 446.554 960.823, 456.314 958.642, 466.073 956.462, 475.833 954.282, 485.592 952.101, 495.351 949.921, 505.111 947.740, 514.870 945.560, 524.630 943.380, 534.389 941.199, 544.148 939.019, 553.908 936.838, 563.667 934.658, 573.427 932.478, 583.186 930.297, 592.946 928.117, 602.705 925.936, 612.464 923.756, 622.224 921.576, 631.983 919.395, 641.742 917.215, 651.502 915.034, 661.261 912.854, 671.021 910.674, 680.780 908.493, 690.539 906.313, 700.299 904.132, 710.058 901.952, 719.818 899.771, 729.577 897.591, 739.336 895.411, 749.096 893.230, 758.855 891.050, 768.615 888.835, 778.529 887.335, 788.416 885.836, 798.303 884.337, 808.190 882.837, 818.077 881.338, 827.964 879.839, 837.851 878.339, 847.738 876.840, 857.625 875.340, 867.512 873.841, 877.399 872.342, 887.286 870.842, 897.173 869.343, 907.060 867.844, 916.947 867.383, 919.984 " />
            <path fill="none" stroke-width="3.0" stroke-linecap="butt" stroke-opacity="1.0" stroke="rgb(0, 0, 0)" stroke-linejoin="round" d=" M 2047.817, 23.627 2037.817, 23.627 2027.817, 23.627 2017.817, 23.627 2011.469, 23.627 2001.469, 23.627 1991.469, 23.627 1981.469, 23.627 1971.469, 23.627 1961.469, 23.627 1951.469, 23.627 1941.469, 23.627 1931.469, 23.627 1921.469, 23.627 1911.469, 23.627 1901.469, 23.627 1891.469, 23.627 1881.469, 23.627 1871.469, 23.627 1861.469, 23.627 1851.469, 23.627 1841.469, 23.627 1831.469, 23.627 1821.469, 23.627 1811.469, 23.627 1801.469, 23.627 1791.469, 23.627 1781.469, 23.627 1771.469, 23.627 1761.469, 23.627 1751.469, 23.627 1741.469, 23.627 1731.469, 23.627 1721.469, 23.627 1711.469, 23.627 1701.469, 23.627 1691.469, 23.627 1681.469, 23.627 1671.469, 23.627 1661.469, 23.627 1651.469, 23.627 1641.469, 23.627 1631.469, 23.627 1621.469, 23.627 1611.469, 23.627 1601.469, 23.627 1591.469, 23.627 1581.469, 23.627 1571.469, 23.627 1561.469, 23.627 1551.469, 23.627 1541.469, 23.627 1531.469, 23.627 1521.469, 23.627 1511.469, 23.627 1501.469, 23.627 1491.469, 23.627 1481.469, 23.627 1471.469, 23.627 1461.469, 23.627 1451.469, 23.627 1441.469, 23.627 1431.469, 23.627 1421.469, 23.627 1411.469, 23.627 1401.469, 23.627 1391.469, 23.627 1381.469, 23.627 1371.469, 23.627 1361.469, 23.627 1351.469, 23.627 1341.469, 23.627 1331.469, 23.627 1321.469, 23.627 1311.469, 23.627 1301.469, 23.627 1291.469, 23.627 1281.469, 23.627 1271.469, 23.627 1261.469, 23.627 1251.469, 23.627 1241.469, 23.627 1231.469, 23.627 1221.469, 23.627 1211.469, 23.627 1201.469, 23.627 1191.469, 23.627 1181.469, 23.627 1171.469, 23.627 1161.469, 23.627 1151.469, 23.627 1141.469, 23.627 1131.469, 23.627 1121.469, 23.627 1111.469, 23.627 1101.469, 23.627 1091.469, 23.627 1081.469, 23.627 1071.469, 23.627 1061.469, 23.627 1051.469, 23.627 1041.469, 23.627 1027.676, 23.627 1026.798, 33.589 1025.919, 43.550 1025.814, 44.745 1025.190, 54.726 1024.566, 64.706 1023.941, 74.687 1023.317, 84.667 1022.693, 94.648 1022.069, 104.628 1021.445, 114.609 1020.820, 124.589 1020.196, 134.570 1019.572, 144.550 1018.948, 154.531 1018.323, 164.511 1017.699, 174.492 1017.075, 184.472 1016.451, 194.453 1015.827, 204.433 1015.333, 212.329 " />
            <path fill="none" stroke-width="3.0" stroke-linecap="butt" stroke-opacity="1.0" stroke="rgb(0, 0, 0)" stroke-linejoin="round" d=" M 2723.481, 2042.712 2718.857, 2033.845 2714.233, 2024.979 2709.609, 2016.112 2704.985, 2007.245 2700.361, 1998.378 2696.012, 1990.039 2692.948, 1980.521 2689.883, 1971.002 2686.818, 1961.483 2683.753, 1951.964 2680.689, 1942.445 2677.624, 1932.926 2674.559, 1923.408 2671.495, 1913.889 2668.430, 1904.370 2665.365, 1894.851 2662.301, 1885.332 2659.236, 1875.814 2656.171, 1866.295 2653.106, 1856.776 2650.042, 1847.257 2646.977, 1837.738 2643.912, 1828.220 2640.848, 1818.701 2637.783, 1809.182 2634.718, 1799.663 2631.654, 1790.144 2628.589, 1780.625 2625.524, 1771.107 2622.459, 1761.588 2619.395, 1752.069 2616.330, 1742.550 2613.265, 1733.031 2610.201, 1723.513 2607.136, 1713.994 2604.604, 1706.131 2601.258, 1696.708 2597.912, 1687.284 2594.565, 1677.861 2591.219, 1668.437 2587.873, 1659.014 2584.526, 1649.590 2581.180, 1640.167 2577.834, 1630.743 2574.487, 1621.320 2571.141, 1611.896 2567.795, 1602.473 2564.448, 1593.050 2561.102, 1583.626 2557.756, 1574.203 2554.409, 1564.779 2552.304, 1558.852 2547.502, 1550.080 2542.700, 1541.309 2537.898, 1532.537 2533.096, 1523.766 2528.294, 1514.994 2523.492, 1506.222 2518.690, 1497.451 2513.888, 1488.679 2509.086, 1479.908 2504.284, 1471.136 2499.482, 1462.365 2494.680, 1453.593 2489.878, 1444.821 2485.076, 1436.050 2480.274, 1427.278 2478.170, 1423.435 2475.796, 1413.721 2473.422, 1404.007 2471.048, 1394.292 2468.675, 1384.578 2466.301, 1374.864 2463.927, 1365.150 2461.553, 1355.436 2459.179, 1345.722 2456.805, 1336.008 2454.431, 1326.293 2452.057, 1316.579 2449.684, 1306.865 2447.310, 1297.151 2444.936, 1287.437 2442.562, 1277.723 2440.188, 1268.009 2437.814, 1258.294 2435.440, 1248.580 2433.066, 1238.866 2430.693, 1229.152 2428.319, 1219.438 2425.945, 1209.724 2424.605, 1204.242 2419.425, 1195.689 2414.244, 1187.135 2409.063, 1178.582 2403.883, 1170.029 2398.702, 1161.475 2393.521, 1152.922 2388.340, 1144.369 2383.160, 1135.815 2377.979, 1127.262 2372.798, 1118.708 2367.618, 1110.155 2362.437, 1101.602 2357.256, 1093.048 2353.511, 1086.865 2349.109, 1077.886 2344.707, 1068.907 2340.305, 1059.928 2335.903, 1050.949 2331.501, 1041.970 2327.099, 1032.992 2322.697, 1024.013 2318.295, 1015.034 2313.893, 1006.055 2309.491, 997.076 2305.089, 988.097 2300.687, 979.118 2296.284, 970.139 2291.882, 961.160 2287.480, 952.181 2283.078, 943.202 2278.676, 934.223 2276.953, 930.709 2275.051, 920.892 2273.148, 911.074 2271.246, 901.257 2269.343, 891.440 2267.440, 881.623 2265.538, 871.805 2263.635, 861.988 2261.733, 852.170 2259.830, 842.353 2257.927, 832.536 2256.025, 822.719 2254.122, 812.901 2252.220, 803.084 2250.317, 793.266 2248.415, 783.449 2246.512, 773.632 2244.609, 763.814 2242.707, 753.997 2240.804, 744.180 2238.902, 734.362 2236.999, 724.545 2235.096, 714.728 2233.194, 704.910 2231.291, 695.093 2229.389, 685.276 2227.486, 675.458 2225.583, 665.641 2223.681, 655.824 2221.778, 646.006 2219.876, 636.189 2217.973, 626.372 2216.071, 616.554 2214.168, 606.737 2212.265, 596.920 2210.363, 587.102 2208.460, 577.285 2206.558, 567.468 2204.655, 557.650 2202.752, 547.833 2200.850, 538.016 2198.947, 528.198 2197.045, 518.381 2195.142, 508.564 2193.240, 498.746 2191.337, 488.929 2189.434, 479.112 2187.532, 469.294 2185.629, 459.477 2183.727, 449.660 2181.824, 439.842 2179.921, 430.025 2178.019, 420.208 2176.116, 410.390 2174.214, 400.573 2172.311, 390.756 2169.781, 377.700 2168.152, 367.834 2166.522, 357.968 2164.893, 348.101 2163.264, 338.235 2161.635, 328.368 2160.006, 318.502 2158.377, 308.636 2156.748, 298.769 2155.118, 288.903 2153.489, 279.037 2151.860, 269.170 2150.231, 259.304 2148.602, 249.437 2146.972, 239.571 2145.343, 229.705 2143.714, 219.838 2142.085, 209.972 2141.728, 207.811 2137.101, 198.946 2132.474, 190.081 2127.846, 181.216 2123.219, 172.351 2118.592, 163.486 2113.964, 154.621 2109.337, 145.756 2104.710, 136.891 2100.082, 128.026 2095.455, 119.161 2090.828, 110.296 2086.200, 101.431 2081.573, 92.566 2076.946, 83.701 2072.319, 74.836 2067.691, 65.971 2063.064, 57.106 2058.437, 48.241 2056.889, 45.277 2053.024, 36.054 2049.159, 26.831 2047.817, 23.627 " />
            <path fill="none" stroke-width="3.0" stroke-linecap="butt" stroke-opacity="1.0" stroke="rgb(0, 0, 0)" stroke-linejoin="round" d=" M 3220.851, 2891.003 3220.179, 2881.025 3219.506, 2871.048 3218.833, 2861.070 3218.160, 2851.093 3217.488, 2841.116 3216.815, 2831.138 3216.142, 2821.161 3215.469, 2811.184 3214.797, 2801.206 3214.124, 2791.229 3213.451, 2781.252 3212.779, 2771.274 3212.106, 2761.297 3211.433, 2751.320 3210.760, 2741.342 3210.088, 2731.365 3209.415, 2721.388 3208.742, 2711.410 3208.070, 2701.433 3207.397, 2691.456 3206.958, 2684.950 3200.869, 2677.017 3194.779, 2669.085 3188.690, 2661.153 3182.600, 2653.221 3176.511, 2645.289 3170.421, 2637.357 3164.332, 2629.425 3158.242, 2621.493 3152.153, 2613.561 3146.063, 2605.629 3139.974, 2597.696 3133.884, 2589.764 3127.795, 2581.832 3121.705, 2573.900 3115.616, 2565.968 3109.526, 2558.036 3103.437, 2550.104 3097.347, 2542.172 3091.258, 2534.240 3085.168, 2526.308 3079.079, 2518.376 3072.989, 2510.443 3066.900, 2502.511 3060.810, 2494.579 3054.721, 2486.647 3048.631, 2478.715 3042.542, 2470.783 3036.452, 2462.851 3030.363, 2454.919 3024.273, 2446.987 3018.184, 2439.055 3012.094, 2431.123 3006.005, 2423.190 2999.916, 2415.258 2993.826, 2407.326 2987.736, 2399.394 2981.647, 2391.462 2975.557, 2383.530 2969.468, 2375.598 2963.378, 2367.666 2957.289, 2359.734 2951.199, 2351.802 2945.110, 2343.870 2939.021, 2335.938 2932.931, 2328.005 2926.842, 2320.073 2920.752, 2312.141 2914.663, 2304.209 2908.573, 2296.277 2902.484, 2288.345 2896.394, 2280.413 2890.305, 2272.481 2884.215, 2264.549 2878.125, 2256.617 2872.036, 2248.684 2865.947, 2240.752 2859.857, 2232.820 2853.768, 2224.888 2847.678, 2216.956 2841.589, 2209.024 2835.499, 2201.092 2829.410, 2193.160 2823.320, 2185.228 2817.231, 2177.296 2811.141, 2169.364 2805.052, 2161.431 2798.962, 2153.499 2792.873, 2145.567 2786.783, 2137.635 2777.343, 2125.339 " />
            <path fill="none" stroke-width="3.0" stroke-linecap="butt" stroke-opacity="1.0" stroke="rgb(0, 0, 0)" stroke-linejoin="round" d=" M 23.388, 3519.382 33.388, 3519.382 43.388, 3519.382 53.388, 3519.382 63.388, 3519.382 73.388, 3519.382 83.388, 3519.382 93.388, 3519.382 103.388, 3519.382 113.388, 3519.382 123.388, 3519.382 133.388, 3519.382 143.388, 3519.382 153.388, 3519.382 163.388, 3519.382 173.388, 3519.382 183.388, 3519.382 193.388, 3519.382 203.388, 3519.382 213.388, 3519.382 223.388, 3519.382 233.388, 3519.382 243.388, 3519.382 253.388, 3519.382 263.388, 3519.382 273.388, 3519.382 283.388, 3519.382 293.388, 3519.382 303.388, 3519.382 313.388, 3519.382 323.388, 3519.382 333.388, 3519.382 343.388, 3519.382 353.388, 3519.382 363.388, 3519.382 373.388, 3519.382 383.388, 3519.382 393.388, 3519.382 404.948, 3519.382 409.994, 3519.336 414.846, 3519.337 419.594, 3519.337 424.215, 3519.338 428.689, 3519.338 433.000, 3519.351 443.000, 3519.352 453.000, 3519.353 463.000, 3519.354 473.000, 3519.355 483.000, 3519.356 493.000, 3519.357 503.000, 3519.358 513.000, 3519.359 523.000, 3519.361 533.000, 3519.362 543.000, 3519.363 553.000, 3519.364 563.000, 3519.365 573.000, 3519.366 583.000, 3519.367 593.000, 3519.368 603.000, 3519.369 613.000, 3519.370 623.000, 3519.372 633.000, 3519.373 643.000, 3519.374 653.000, 3519.375 663.000, 3519.376 673.000, 3519.377 683.000, 3519.378 693.000, 3519.379 703.000, 3519.380 713.000, 3519.381 721.981, 3519.382 " />
            <path fill="none" stroke-width="3.0" stroke-linecap="butt" stroke-opacity="1.0" stroke="rgb(0, 0, 0)" stroke-linejoin="round" d=" M 721.981, 3519.382 725.253, 3519.341 727.413, 3519.314 731.602, 3519.341 732.594, 3519.348 742.594, 3519.349 752.594, 3519.349 762.594, 3519.350 772.594, 3519.351 782.594, 3519.351 792.594, 3519.352 802.594, 3519.353 812.594, 3519.354 822.594, 3519.354 832.594, 3519.355 842.594, 3519.356 852.594, 3519.356 862.594, 3519.357 872.594, 3519.358 882.594, 3519.359 892.594, 3519.359 902.594, 3519.360 912.594, 3519.361 922.594, 3519.361 932.594, 3519.362 942.594, 3519.363 952.594, 3519.364 962.594, 3519.364 972.594, 3519.365 982.594, 3519.366 992.594, 3519.366 1002.594, 3519.367 1012.594, 3519.368 1022.594, 3519.369 1032.594, 3519.369 1042.594, 3519.370 1052.594, 3519.371 1062.594, 3519.371 1072.594, 3519.372 1082.594, 3519.373 1092.594, 3519.374 1102.594, 3519.374 1112.594, 3519.375 1122.594, 3519.376 1132.594, 3519.376 1142.594, 3519.377 1152.594, 3519.378 1162.594, 3519.379 1172.594, 3519.379 1182.594, 3519.380 1192.594, 3519.381 1202.594, 3519.381 1212.594, 3519.382 1218.011, 3519.382 " />
            <path fill="none" stroke-width="3.0" stroke-linecap="butt" stroke-opacity="1.0" stroke="rgb(0, 0, 0)" stroke-linejoin="round" d=" M 1218.011, 3519.382 1219.163, 3519.349 1221.697, 3519.275 1225.582, 3519.275 1229.606, 3519.275 1233.756, 3519.274 1238.020, 3519.274 1242.385, 3519.274 1246.838, 3519.274 1251.364, 3519.274 1255.950, 3519.274 1260.581, 3519.274 1265.244, 3519.273 1269.923, 3519.273 1274.605, 3519.273 1279.275, 3519.273 1283.919, 3519.273 1288.525, 3519.272 1293.076, 3519.272 1297.562, 3519.272 1301.968, 3519.272 1306.435, 3519.340 1316.435, 3519.340 1326.435, 3519.341 1336.435, 3519.341 1346.435, 3519.342 1356.435, 3519.342 1366.435, 3519.343 1376.435, 3519.343 1386.435, 3519.344 1396.435, 3519.344 1406.435, 3519.345 1416.435, 3519.345 1426.435, 3519.346 1436.435, 3519.346 1446.435, 3519.347 1456.435, 3519.347 1466.435, 3519.348 1476.435, 3519.348 1486.435, 3519.349 1496.435, 3519.350 1506.435, 3519.350 1516.435, 3519.351 1526.435, 3519.351 1536.435, 3519.352 1546.435, 3519.352 1556.435, 3519.353 1566.435, 3519.353 1576.435, 3519.354 1586.435, 3519.354 1596.195, 3519.355 1606.195, 3519.355 1616.195, 3519.356 1626.195, 3519.356 1636.195, 3519.357 1646.195, 3519.357 1656.195, 3519.358 1666.195, 3519.358 1676.195, 3519.359 1686.195, 3519.359 1696.195, 3519.360 1706.195, 3519.360 1716.195, 3519.361 1726.195, 3519.361 1736.195, 3519.362 1746.195, 3519.362 1756.195, 3519.363 1766.195, 3519.363 1776.195, 3519.364 1786.195, 3519.364 1796.195, 3519.365 1806.195, 3519.366 1816.195, 3519.366 1826.195, 3519.367 1836.195, 3519.367 1846.195, 3519.368 1856.195, 3519.368 1866.195, 3519.369 1876.195, 3519.369 1886.195, 3519.370 1896.195, 3519.370 1906.195, 3519.371 1916.195, 3519.371 1926.195, 3519.372 1936.195, 3519.372 1946.195, 3519.373 1956.195, 3519.373 1966.195, 3519.374 1976.195, 3519.374 1986.195, 3519.375 1996.195, 3519.375 2006.195, 3519.376 2016.195, 3519.376 2026.195, 3519.377 2036.195, 3519.377 2046.195, 3519.378 2056.195, 3519.378 2066.195, 3519.379 2076.195, 3519.379 2086.195, 3519.380 2096.195, 3519.381 2106.195, 3519.381 2116.195, 3519.382 2126.195, 3519.382 2133.555, 3519.382 " />
            <path fill="none" stroke-width="3.0" stroke-linecap="butt" stroke-opacity="1.0" stroke="rgb(0, 0, 0)" stroke-linejoin="round" d=" M 2133.555, 3519.382 2134.325, 3519.363 2137.927, 3519.272 2142.349, 3519.272 2146.850, 3519.272 2151.415, 3519.272 2156.033, 3519.273 2160.689, 3519.273 2165.370, 3519.273 2170.062, 3519.273 2174.750, 3519.273 2179.421, 3519.273 2184.059, 3519.274 2188.650, 3519.274 2193.180, 3519.274 2197.636, 3519.274 2202.003, 3519.274 2206.268, 3519.274 2210.418, 3519.274 2214.440, 3519.275 2218.322, 3519.275 2222.117, 3519.346 2232.117, 3519.347 2242.117, 3519.347 2252.117, 3519.348 2262.117, 3519.348 2272.117, 3519.349 2282.117, 3519.349 2292.117, 3519.350 2302.117, 3519.350 2312.117, 3519.351 2322.117, 3519.351 2332.117, 3519.352 2342.117, 3519.352 2352.117, 3519.353 2362.117, 3519.354 2372.117, 3519.354 2382.117, 3519.355 2392.117, 3519.355 2402.117, 3519.356 2412.117, 3519.356 2422.117, 3519.357 2432.117, 3519.357 2442.117, 3519.358 2452.117, 3519.358 2462.117, 3519.359 2472.117, 3519.359 2482.117, 3519.360 2492.117, 3519.360 2502.117, 3519.361 2512.117, 3519.362 2522.117, 3519.362 2532.117, 3519.363 2542.117, 3519.363 2552.117, 3519.364 2562.117, 3519.364 2572.117, 3519.365 2582.117, 3519.365 2592.117, 3519.366 2602.117, 3519.366 2612.117, 3519.367 2622.117, 3519.367 2632.117, 3519.368 2642.117, 3519.369 2652.117, 3519.369 2662.117, 3519.370 2672.117, 3519.370 2682.117, 3519.371 2692.117, 3519.371 2703.164, 3519.372 2713.164, 3519.372 2723.164, 3519.373 2733.164, 3519.373 2743.164, 3519.374 2753.164, 3519.374 2763.164, 3519.375 2773.164, 3519.376 2783.164, 3519.376 2793.164, 3519.377 2803.164, 3519.377 2813.164, 3519.378 2823.164, 3519.378 2833.164, 3519.379 2843.164, 3519.379 2853.164, 3519.380 2863.164, 3519.380 2873.164, 3519.381 2883.164, 3519.381 2893.164, 3519.382 2902.740, 3519.382 " />
            <path fill="none" stroke-width="3.0" stroke-linecap="butt" stroke-opacity="1.0" stroke="rgb(0, 0, 0)" stroke-linejoin="round" d=" M 2902.740, 3519.382 2907.000, 3519.382 2911.462, 3519.382 2916.105, 3519.382 2920.909, 3519.382 2925.854, 3519.382 2930.918, 3519.382 2940.918, 3519.382 2950.918, 3519.382 2960.918, 3519.382 2970.918, 3519.382 2980.918, 3519.382 2990.918, 3519.382 3000.918, 3519.382 3010.918, 3519.382 3020.918, 3519.382 3030.918, 3519.382 3040.918, 3519.382 3050.918, 3519.382 3060.918, 3519.382 3070.918, 3519.382 3080.918, 3519.382 3090.918, 3519.382 3100.918, 3519.382 3110.918, 3519.382 3120.918, 3519.382 3130.918, 3519.382 3140.918, 3519.382 3150.918, 3519.382 3160.918, 3519.382 3170.918, 3519.382 3180.918, 3519.382 3190.918, 3519.382 3200.918, 3519.382 3210.918, 3519.382 3220.918, 3519.382 3230.918, 3519.382 3240.918, 3519.382 3248.179, 3519.382 3250.353, 3519.382 3252.567, 3519.382 3254.810, 3519.382 3257.071, 3519.382 3259.341, 3519.382 3261.609, 3519.382 3263.866, 3519.382 3266.106, 3519.382 3268.318, 3519.382 3270.497, 3519.382 3272.637, 3519.382 3274.731, 3519.382 3276.773, 3519.382 3278.761, 3519.382 3288.761, 3519.382 3298.761, 3519.382 3308.761, 3519.382 3318.761, 3519.382 3328.761, 3519.382 3338.761, 3519.382 3348.761, 3519.382 3358.761, 3519.382 3368.761, 3519.382 3378.761, 3519.382 3388.761, 3519.382 3394.612, 3519.382 " />
            <path fill="none" stroke-width="3.0" stroke-linecap="butt" stroke-opacity="1.0" stroke="rgb(0, 0, 0)" stroke-linejoin="round" d=" M 1573.018, 1312.739 1570.630, 1311.589 1568.303, 1310.322 1566.041, 1308.940 1563.852, 1307.447 1561.739, 1305.847 1559.709, 1304.143 1557.766, 1302.341 1555.916, 1300.444 1554.162, 1298.457 1552.510, 1296.385 1550.963, 1294.233 1549.525, 1292.007 1548.200, 1289.712 " />
            <path fill="none" stroke-width="3.0" stroke-linecap="butt" stroke-opacity="1.0" stroke="rgb(0, 0, 0)" stroke-linejoin="round" d=" M 1546.991, 1287.353 1545.901, 1284.938 1544.933, 1282.471 1544.089, 1279.958 1543.371, 1277.407 1542.781, 1274.823 " />
            <path fill="none" stroke-width="3.0" stroke-linecap="butt" stroke-opacity="1.0" stroke="rgb(0, 0, 0)" stroke-linejoin="round" d=" M 1588.269, 1317.030 1585.648, 1316.635 1583.051, 1316.110 1580.483, 1315.456 1577.950, 1314.675 " />
            <path fill="none" stroke-width="3.0" stroke-linecap="butt" stroke-opacity="1.0" stroke="rgb(0, 0, 0)" stroke-linejoin="round" d=" M 1542.321, 1272.214 1541.992, 1269.584 1541.793, 1266.942 1541.727, 1264.292 1541.793, 1261.642 1541.992, 1259.000 1542.321, 1256.371 1542.781, 1253.761 1543.371, 1251.177 1544.089, 1248.626 1544.933, 1246.114 1545.901, 1243.647 1546.991, 1241.231 1548.200, 1238.873 1549.525, 1236.578 1550.963, 1234.352 1552.510, 1232.200 1554.162, 1230.128 " />
            <path fill="none" stroke-width="3.0" stroke-linecap="butt" stroke-opacity="1.0" stroke="rgb(0, 0, 0)" stroke-linejoin="round" d=" M 1621.453, 1310.322 1619.126, 1311.589 1616.738, 1312.739 1614.296, 1313.769 1611.806, 1314.675 1609.273, 1315.456 1606.705, 1316.110 1604.107, 1316.635 1601.487, 1317.030 1598.850, 1317.294 1596.203, 1317.426 " />
            <path fill="none" stroke-width="3.0" stroke-linecap="butt" stroke-opacity="1.0" stroke="rgb(0, 0, 0)" stroke-linejoin="round" d=" M 1554.162, 1230.128 1555.916, 1228.141 " />
            <path fill="none" stroke-width="3.0" stroke-linecap="butt" stroke-opacity="1.0" stroke="rgb(0, 0, 0)" stroke-linejoin="round" d=" M 1555.916, 1228.141 1557.766, 1226.244 " />
            <path fill="none" stroke-width="3.0" stroke-linecap="butt" stroke-opacity="1.0" stroke="rgb(0, 0, 0)" stroke-linejoin="round" d=" M 1557.766, 1226.244 1559.709, 1224.442 1561.739, 1222.738 1563.852, 1221.138 1566.041, 1219.645 1568.303, 1218.262 1570.630, 1216.995 1573.018, 1215.846 1575.460, 1214.816 1577.950, 1213.910 1580.483, 1213.128 1583.051, 1212.474 1585.648, 1211.950 1588.269, 1211.555 1590.906, 1211.291 1593.553, 1211.158 " />
            <path fill="none" stroke-width="3.0" stroke-linecap="butt" stroke-opacity="1.0" stroke="rgb(0, 0, 0)" stroke-linejoin="round" d=" M 1562.504, 633.792 1559.985, 631.210 1557.598, 628.505 1555.349, 625.685 1553.244, 622.757 1551.286, 619.727 1549.483, 616.602 1547.837, 613.393 1546.354, 610.104 1545.036, 606.747 1543.887, 603.328 1542.910, 599.855 1542.107, 596.338 1541.481, 592.786 1541.032, 589.207 1540.763, 585.610 1540.673, 582.003 1540.763, 578.397 1541.032, 574.801 1541.481, 571.222 1542.107, 567.669 1542.910, 564.153 1543.887, 560.680 1545.036, 557.260 1546.354, 553.902 1547.837, 550.615 1549.483, 547.405 1551.286, 544.281 1553.244, 541.251 1555.349, 538.322 1557.598, 535.502 1559.985, 532.798 1562.504, 530.216 1565.148, 527.761 1567.911, 525.443 1570.786, 523.265 1573.767, 521.233 1576.845, 519.352 1580.013, 517.627 1583.263, 516.062 1586.586, 514.661 1589.976, 513.427 1593.423, 512.364 1596.919, 511.474 1600.454, 510.759 1604.021, 510.221 1607.610, 509.862 1611.213, 509.683 1614.820, 509.683 1618.423, 509.862 1622.012, 510.221 1625.579, 510.759 1629.115, 511.474 1632.610, 512.364 1636.057, 513.427 1639.447, 514.661 1642.771, 516.062 1646.021, 517.627 1649.188, 519.352 1652.266, 521.233 1655.247, 523.265 1658.122, 525.443 1660.885, 527.761 1663.530, 530.216 1666.048, 532.798 1668.435, 535.502 1670.684, 538.322 1672.790, 541.251 1674.747, 544.281 1676.550, 547.405 1678.196, 550.615 1679.680, 553.902 1680.997, 557.260 1682.146, 560.680 1683.123, 564.153 1683.926, 567.669 1684.552, 571.222 1685.001, 574.801 1685.270, 578.397 1685.360, 582.003 1685.270, 585.610 1685.001, 589.207 1684.552, 592.786 1683.926, 596.338 1683.123, 599.855 1682.146, 603.328 1680.997, 606.747 1679.680, 610.104 1678.196, 613.393 1676.550, 616.602 1674.747, 619.727 1672.790, 622.757 1670.684, 625.685 1668.435, 628.505 1666.048, 631.210 1663.530, 633.792 1660.885, 636.245 1658.122, 638.564 1655.247, 640.742 1652.266, 642.774 1649.188, 644.656 1646.021, 646.380 1642.771, 647.945 1639.447, 649.346 1636.057, 650.580 1632.610, 651.643 1629.115, 652.533 1625.579, 653.249 1622.012, 653.786 1618.423, 654.145 1614.820, 654.325 1611.213, 654.325 1607.610, 654.145 1604.021, 653.786 1600.454, 653.249 1596.919, 652.533 1593.423, 651.643 1589.976, 650.580 1586.586, 649.346 1583.263, 647.945 1580.013, 646.380 1576.845, 644.656 1573.767, 642.774 1570.786, 640.742 1567.911, 638.564 1565.148, 636.245 1562.504, 633.792 " />
            <path fill="none" stroke-width="3.0" stroke-linecap="butt" stroke-opacity="1.0" stroke="rgb(0, 0, 0)" stroke-linejoin="round" d=" M 1593.553, 1211.158 1596.203, 1211.158 " />
            <path fill="none" stroke-width="3.0" stroke-linecap="butt" stroke-opacity="1.0" stroke="rgb(0, 0, 0)" stroke-linejoin="round" d=" M 1596.203, 1211.158 1598.850, 1211.291 1601.487, 1211.555 1604.107, 1211.950 1606.705, 1212.474 1609.273, 1213.128 1611.806, 1213.910 " />
            <path fill="none" stroke-width="3.0" stroke-linecap="butt" stroke-opacity="1.0" stroke="rgb(0, 0, 0)" stroke-linejoin="round" d=" M 1611.806, 1213.910 1614.296, 1214.816 " />
            <path fill="none" stroke-width="3.0" stroke-linecap="butt" stroke-opacity="1.0" stroke="rgb(0, 0, 0)" stroke-linejoin="round" d=" M 1614.296, 1214.816 1616.738, 1215.846 " />
            <path fill="none" stroke-width="3.0" stroke-linecap="butt" stroke-opacity="1.0" stroke="rgb(0, 0, 0)" stroke-linejoin="round" d=" M 1616.738, 1215.846 1619.126, 1216.995 1621.453, 1218.262 1623.714, 1219.645 " />
            <path fill="none" stroke-width="3.0" stroke-linecap="butt" stroke-opacity="1.0" stroke="rgb(0, 0, 0)" stroke-linejoin="round" d=" M 1642.765, 1287.353 1641.556, 1289.712 1640.231, 1292.007 1638.793, 1294.233 1637.246, 1296.385 1635.594, 1298.457 1633.840, 1300.444 1631.989, 1302.341 1630.047, 1304.143 1628.017, 1305.847 1625.904, 1307.447 1623.714, 1308.940 " />
            <path fill="none" stroke-width="3.0" stroke-linecap="butt" stroke-opacity="1.0" stroke="rgb(0, 0, 0)" stroke-linejoin="round" d=" M 1623.714, 1219.645 1625.904, 1221.138 1628.017, 1222.738 1630.047, 1224.442 1631.989, 1226.244 " />
            <path fill="none" stroke-width="3.0" stroke-linecap="butt" stroke-opacity="1.0" stroke="rgb(0, 0, 0)" stroke-linejoin="round" d=" M 1645.667, 1279.958 1644.823, 1282.471 1643.855, 1284.938 1642.765, 1287.353 " />
            <path fill="none" stroke-width="3.0" stroke-linecap="butt" stroke-opacity="1.0" stroke="rgb(0, 0, 0)" stroke-linejoin="round" d=" M 1647.962, 1266.942 1647.764, 1269.584 1647.435, 1272.214 1646.975, 1274.823 1646.385, 1277.407 1645.667, 1279.958 " />
            <path fill="none" stroke-width="3.0" stroke-linecap="butt" stroke-opacity="1.0" stroke="rgb(0, 0, 0)" stroke-linejoin="round" d=" M 1647.764, 1259.000 1647.962, 1261.642 1648.028, 1264.292 1647.962, 1266.942 " />
            <path fill="none" stroke-width="3.0" stroke-linecap="butt" stroke-opacity="1.0" stroke="rgb(0, 0, 0)" stroke-linejoin="round" d=" M 1643.855, 1243.647 1644.823, 1246.114 1645.667, 1248.626 1646.385, 1251.177 1646.975, 1253.761 1647.435, 1256.371 1647.764, 1259.000 " />
            <path fill="none" stroke-width="3.0" stroke-linecap="butt" stroke-opacity="1.0" stroke="rgb(0, 0, 0)" stroke-linejoin="round" d=" M 1642.765, 1241.231 1643.855, 1243.647 " />
            <path fill="none" stroke-width="3.0" stroke-linecap="butt" stroke-opacity="1.0" stroke="rgb(0, 0, 0)" stroke-linejoin="round" d=" M 1638.793, 1234.352 1640.231, 1236.578 1641.556, 1238.873 1642.765, 1241.231 " />
            <path fill="none" stroke-width="3.0" stroke-linecap="butt" stroke-opacity="1.0" stroke="rgb(0, 0, 0)" stroke-linejoin="round" d=" M 1637.246, 1232.200 1638.793, 1234.352 " />
            <path fill="none" stroke-width="3.0" stroke-linecap="butt" stroke-opacity="1.0" stroke="rgb(0, 0, 0)" stroke-linejoin="round" d=" M 1635.594, 1230.128 1637.246, 1232.200 " />
            <path fill="none" stroke-width="3.0" stroke-linecap="butt" stroke-opacity="1.0" stroke="rgb(0, 0, 0)" stroke-linejoin="round" d=" M 1633.840, 1228.141 1635.594, 1230.128 " />
            <path fill="none" stroke-width="3.0" stroke-linecap="butt" stroke-opacity="1.0" stroke="rgb(0, 0, 0)" stroke-linejoin="round" d=" M 1631.989, 1226.244 1633.840, 1228.141 " />
            <path fill="none" stroke-width="3.0" stroke-linecap="butt" stroke-opacity="1.0" stroke="rgb(0, 0, 0)" stroke-linejoin="round" d=" M 1542.781, 1274.823 1542.321, 1272.214 " />
            <path fill="none" stroke-width="3.0" stroke-linecap="butt" stroke-opacity="1.0" stroke="rgb(0, 0, 0)" stroke-linejoin="round" d=" M 1548.200, 1289.712 1546.991, 1287.353 " />
            <path fill="none" stroke-width="3.0" stroke-linecap="butt" stroke-opacity="1.0" stroke="rgb(0, 0, 0)" stroke-linejoin="round" d=" M 1575.460, 1313.769 1573.018, 1312.739 " />
            <path fill="none" stroke-width="3.0" stroke-linecap="butt" stroke-opacity="1.0" stroke="rgb(0, 0, 0)" stroke-linejoin="round" d=" M 1577.950, 1314.675 1575.460, 1313.769 " />
            <path fill="none" stroke-width="3.0" stroke-linecap="butt" stroke-opacity="1.0" stroke="rgb(0, 0, 0)" stroke-linejoin="round" d=" M 1590.906, 1317.294 1588.269, 1317.030 " />
            <path fill="none" stroke-width="3.0" stroke-linecap="butt" stroke-opacity="1.0" stroke="rgb(0, 0, 0)" stroke-linejoin="round" d=" M 1593.553, 1317.426 1590.906, 1317.294 " />
            <path fill="none" stroke-width="3.0" stroke-linecap="butt" stroke-opacity="1.0" stroke="rgb(0, 0, 0)" stroke-linejoin="round" d=" M 1596.203, 1317.426 1593.553, 1317.426 " />
            <path fill="none" stroke-width="3.0" stroke-linecap="butt" stroke-opacity="1.0" stroke="rgb(0, 0, 0)" stroke-linejoin="round" d=" M 1623.714, 1308.940 1621.453, 1310.322 " />
            <path fill="none" stroke-width="3.0" stroke-linecap="butt" stroke-opacity="1.0" stroke="rgb(0, 0, 0)" stroke-linejoin="round" d=" M 2777.343, 2125.339 2771.882, 2116.961 2766.421, 2108.584 2760.960, 2100.207 2755.499, 2091.830 2750.038, 2083.453 2744.577, 2075.075 2739.116, 2066.698 2733.656, 2058.321 2728.195, 2049.943 2723.481, 2042.712 " />
            <path fill="none" stroke-width="3.0" stroke-linecap="butt" stroke-opacity="1.0" stroke="rgb(0, 0, 0)" stroke-linejoin="round" d=" M 3394.612, 3519.382 3391.947, 3509.744 3389.282, 3500.106 3386.616, 3490.468 3383.951, 3480.829 3381.286, 3471.191 3378.621, 3461.553 3375.956, 3451.914 3373.291, 3442.276 3370.625, 3432.638 3367.960, 3423.000 3365.295, 3413.361 3362.630, 3403.723 3359.965, 3394.085 3357.299, 3384.446 3354.634, 3374.808 3351.969, 3365.170 3349.304, 3355.531 3346.639, 3345.893 3343.973, 3336.255 3341.308, 3326.617 3338.643, 3316.978 3335.978, 3307.340 3333.312, 3297.702 3330.647, 3288.063 3327.982, 3278.425 3325.317, 3268.787 3322.652, 3259.148 3319.987, 3249.510 3317.321, 3239.872 3314.656, 3230.234 3311.991, 3220.595 3309.326, 3210.957 3306.661, 3201.319 3303.995, 3191.680 3301.330, 3182.042 3298.665, 3172.404 3296.000, 3162.766 3293.334, 3153.127 3290.669, 3143.489 3288.004, 3133.851 3285.339, 3124.212 3282.674, 3114.574 3280.009, 3104.936 3277.343, 3095.298 3274.678, 3085.659 3272.013, 3076.021 3269.348, 3066.383 3266.683, 3056.744 3264.017, 3047.106 3261.352, 3037.468 3258.687, 3027.829 3256.022, 3018.191 3253.356, 3008.553 3250.691, 2998.915 3248.026, 2989.276 3245.361, 2979.638 3242.696, 2970.000 3240.031, 2960.361 3237.365, 2950.723 3234.700, 2941.085 3232.035, 2931.447 3229.370, 2921.808 3226.705, 2912.170 3224.039, 2902.532 3220.851, 2891.003 " />
        </g>
    </g>
<g id="slice-labels"><text x="585.2586666666667" y="606.2528333333332" text-anchor="middle" dominant-baseline="middle" font-family="Arial, sans-serif" font-size="59.056003449048085" font-weight="bold" fill="black" stroke="none" stroke-width="7.08672041388577" paint-order="stroke fill">Slice45 (Front)</text><text x="1709.0" y="606.2528333333332" text-anchor="middle" dominant-baseline="middle" font-family="Arial, sans-serif" font-size="59.056003449048085" font-weight="bold" fill="black" stroke="none" stroke-width="7.08672041388577" paint-order="stroke fill">Slice45 (Front)</text><text x="2832.7413333333334" y="606.2528333333332" text-anchor="middle" dominant-baseline="middle" font-family="Arial, sans-serif" font-size="59.056003449048085" font-weight="bold" fill="black" stroke="none" stroke-width="7.08672041388577" paint-order="stroke fill">Slice45 (Front)</text><text x="585.2586666666667" y="1771.5045" text-anchor="middle" dominant-baseline="middle" font-family="Arial, sans-serif" font-size="59.056003449048085" font-weight="bold" fill="black" stroke="none" stroke-width="7.08672041388577" paint-order="stroke fill">Slice45 (Front)</text><text x="1709.0" y="1771.5045" text-anchor="middle" dominant-baseline="middle" font-family="Arial, sans-serif" font-size="59.056003449048085" font-weight="bold" fill="black" stroke="none" stroke-width="7.08672041388577" paint-order="stroke fill">Slice45 (Front)</text><text x="2832.7413333333334" y="1771.5045" text-anchor="middle" dominant-baseline="middle" font-family="Arial, sans-serif" font-size="59.056003449048085" font-weight="bold" fill="black" stroke="none" stroke-width="7.08672041388577" paint-order="stroke fill">Slice45 (Front)</text><text x="585.2586666666667" y="2936.756166666667" text-anchor="middle" dominant-baseline="middle" font-family="Arial, sans-serif" font-size="59.056003449048085" font-weight="bold" fill="black" stroke="none" stroke-width="7.08672041388577" paint-order="stroke fill">Slice45 (Front)</text><text x="1709.0" y="2936.756166666667" text-anchor="middle" dominant-baseline="middle" font-family="Arial, sans-serif" font-size="59.056003449048085" font-weight="bold" fill="black" stroke="none" stroke-width="7.08672041388577" paint-order="stroke fill">Slice45 (Front)</text><text x="2832.7413333333334" y="2936.756166666667" text-anchor="middle" dominant-baseline="middle" font-family="Arial, sans-serif" font-size="59.056003449048085" font-weight="bold" fill="black" stroke="none" stroke-width="7.08672041388577" paint-order="stroke fill">Slice45 (Front)</text></g></svg>