<?xml version='1.0' encoding='utf-8'?>
<svg xmlns="http://www.w3.org/2000/svg" xmlns:inkscape="http://www.inkscape.org/namespaces/inkscape" version="1.1" width="290.04219388216734mm" height="155.19099617004395mm" viewBox="0.12949204656323232 0.0054954165713922976 3425.7620159068733 1833.0000091668574" preserveAspectRatio="none">
    <g id="ViewLayer_LineSet" inkscape:groupmode="lineset" inkscape:label="ViewLayer_LineSet">
        <g inkscape:groupmode="layer" id="strokes" inkscape:label="strokes">
            <path fill="none" stroke-width="3.0" stroke-linecap="butt" stroke-opacity="1.0" stroke="rgb(0, 0, 0)" stroke-linejoin="round" d=" M 1192.911, 1809.383 1193.236, 1809.383 1196.736, 1809.383 1200.220, 1809.383 1203.680, 1809.383 1207.105, 1809.383 1217.105, 1809.383 1227.105, 1809.383 1237.105, 1809.383 1247.105, 1809.383 1257.105, 1809.383 1267.105, 1809.383 1277.105, 1809.383 1287.105, 1809.383 1297.105, 1809.383 1307.105, 1809.383 1317.105, 1809.383 1327.105, 1809.383 1337.105, 1809.383 1347.105, 1809.383 1357.105, 1809.383 1367.105, 1809.383 1377.105, 1809.383 1387.105, 1809.383 1397.105, 1809.383 1407.105, 1809.383 1417.105, 1809.383 1427.105, 1809.383 1437.105, 1809.383 1447.105, 1809.383 1457.105, 1809.383 1467.105, 1809.383 1477.105, 1809.383 1487.105, 1809.383 1497.105, 1809.383 1507.105, 1809.383 1517.105, 1809.383 1527.105, 1809.383 1537.105, 1809.383 1547.105, 1809.383 1557.105, 1809.383 1567.105, 1809.383 1577.105, 1809.383 1587.105, 1809.383 1597.105, 1809.383 1607.105, 1809.383 1617.105, 1809.383 1627.105, 1809.383 1637.105, 1809.383 1647.105, 1809.383 1657.105, 1809.383 1667.105, 1809.383 1677.105, 1809.383 1687.105, 1809.383 1697.105, 1809.383 1703.226, 1809.383 1705.538, 1809.383 1715.538, 1809.383 1725.538, 1809.383 1735.538, 1809.383 1745.538, 1809.383 1755.538, 1809.383 1765.538, 1809.383 1775.538, 1809.383 1785.538, 1809.383 1795.538, 1809.383 1805.538, 1809.383 1815.538, 1809.383 1825.538, 1809.383 1835.538, 1809.383 1845.538, 1809.383 1855.538, 1809.383 1865.538, 1809.383 1875.954, 1809.383 1878.169, 1809.383 1880.407, 1809.383 1882.662, 1809.383 1884.928, 1809.383 1887.198, 1809.383 1889.468, 1809.383 1891.729, 1809.383 1893.977, 1809.383 1896.206, 1809.383 1898.409, 1809.383 1908.409, 1809.383 1918.409, 1809.383 1928.409, 1809.383 1938.409, 1809.383 1948.409, 1809.383 1958.409, 1809.383 1968.409, 1809.383 1978.409, 1809.383 1988.409, 1809.383 1998.409, 1809.383 2008.409, 1809.383 2018.409, 1809.383 2028.409, 1809.383 2038.409, 1809.383 2048.408, 1809.383 2058.408, 1809.383 2068.408, 1809.383 2078.408, 1809.383 2088.408, 1809.383 2098.408, 1809.383 2108.408, 1809.383 2118.408, 1809.383 2128.408, 1809.383 2138.408, 1809.383 2148.408, 1809.383 2158.408, 1809.383 2168.408, 1809.383 2178.408, 1809.383 2188.408, 1809.383 2198.408, 1809.383 2208.408, 1809.383 2218.408, 1809.383 2228.408, 1809.383 2238.408, 1809.383 2248.408, 1809.383 2258.408, 1809.383 2268.408, 1809.383 2278.408, 1809.383 2288.408, 1809.383 2298.408, 1809.383 2308.408, 1809.383 2318.408, 1809.383 2328.408, 1809.383 2338.408, 1809.383 2348.408, 1809.383 2358.408, 1809.383 2368.408, 1809.383 2378.408, 1809.383 2388.408, 1809.383 2398.408, 1809.383 2408.408, 1809.383 2418.408, 1809.383 2428.408, 1809.383 2438.408, 1809.383 2448.408, 1809.383 2458.408, 1809.383 2468.408, 1809.383 2478.408, 1809.383 2488.408, 1809.383 2498.408, 1809.383 2508.408, 1809.383 2518.408, 1809.383 2528.408, 1809.383 2538.408, 1809.383 2548.408, 1809.383 2558.408, 1809.383 2568.408, 1809.383 2578.408, 1809.383 2588.408, 1809.383 2598.408, 1809.383 2608.408, 1809.383 2618.408, 1809.383 2628.408, 1809.383 2638.408, 1809.383 2648.408, 1809.383 2658.408, 1809.383 2668.408, 1809.383 2678.408, 1809.383 2688.408, 1809.383 2698.408, 1809.383 2708.408, 1809.383 2718.408, 1809.383 2728.408, 1809.383 2738.408, 1809.383 2748.408, 1809.383 2758.408, 1809.383 2768.408, 1809.383 2778.408, 1809.383 2788.408, 1809.383 2798.408, 1809.383 2808.408, 1809.383 2818.408, 1809.383 2828.408, 1809.383 2838.408, 1809.383 2848.408, 1809.383 2858.408, 1809.383 2868.408, 1809.383 2878.408, 1809.383 2888.408, 1809.383 2898.408, 1809.383 2908.408, 1809.383 2918.408, 1809.383 2928.408, 1809.383 2938.408, 1809.383 2948.408, 1809.383 2958.408, 1809.383 2968.408, 1809.383 2978.408, 1809.383 2988.408, 1809.383 2998.408, 1809.383 3008.408, 1809.383 3018.408, 1809.383 3028.408, 1809.383 3038.408, 1809.383 3048.408, 1809.383 3058.408, 1809.383 3077.307, 1809.383 3087.307, 1809.383 3097.307, 1809.383 3107.307, 1809.383 3117.307, 1809.383 3127.307, 1809.383 3137.307, 1809.383 3147.307, 1809.383 3157.307, 1809.383 3167.307, 1809.383 3177.307, 1809.383 3187.307, 1809.383 3197.307, 1809.383 3207.307, 1809.383 3217.307, 1809.383 3227.307, 1809.383 3237.307, 1809.383 3247.307, 1809.383 3257.307, 1809.383 3267.307, 1809.383 3277.307, 1809.383 3287.307, 1809.383 3297.307, 1809.383 3307.307, 1809.383 3317.307, 1809.383 3327.307, 1809.383 3337.307, 1809.383 3347.307, 1809.383 3357.307, 1809.383 3367.307, 1809.383 3377.307, 1809.383 3387.307, 1809.383 3397.307, 1809.383 3402.269, 1809.383 " />
            <path fill="none" stroke-width="3.0" stroke-linecap="butt" stroke-opacity="1.0" stroke="rgb(0, 0, 0)" stroke-linejoin="round" d=" M 3130.128, 726.918 3126.089, 717.770 3122.050, 708.622 3118.011, 699.474 3117.489, 698.291 3117.294, 688.293 3117.099, 678.295 3116.905, 668.297 3116.710, 658.299 3116.515, 648.301 3116.320, 638.303 3116.125, 628.305 3115.931, 618.307 3115.736, 608.308 3115.541, 598.310 3115.347, 588.312 3115.152, 578.314 3114.957, 568.316 3114.906, 565.660 " />
            <path fill="none" stroke-width="3.0" stroke-linecap="butt" stroke-opacity="1.0" stroke="rgb(0, 0, 0)" stroke-linejoin="round" d=" M 1925.554, 894.228 1923.036, 896.810 1920.391, 899.265 1917.628, 901.583 1914.753, 903.761 1911.772, 905.793 1908.694, 907.674 1905.526, 909.399 1902.277, 910.964 1898.953, 912.365 1895.563, 913.599 1892.116, 914.663 1888.620, 915.552 1885.085, 916.267 1881.518, 916.805 1877.929, 917.164 1874.326, 917.343 1870.719, 917.343 1867.116, 917.164 1863.527, 916.805 1859.960, 916.267 1856.424, 915.552 1852.929, 914.663 1849.482, 913.599 1846.092, 912.365 1842.768, 910.964 1839.518, 909.399 1836.350, 907.674 1833.272, 905.793 1830.292, 903.761 1827.417, 901.583 1824.654, 899.265 1822.009, 896.810 1819.491, 894.228 1817.104, 891.524 1814.855, 888.704 1812.749, 885.775 1810.792, 882.745 1808.988, 879.621 1807.343, 876.411 1805.859, 873.123 1804.541, 869.765 1803.393, 866.346 1802.416, 862.873 1801.613, 859.357 1800.987, 855.804 1800.538, 852.226 1800.269, 848.628 1800.179, 845.022 1800.269, 841.416 1800.538, 837.819 1800.987, 834.240 1801.613, 830.687 1802.416, 827.171 1803.393, 823.698 1804.541, 820.279 1805.859, 816.921 1807.343, 813.634 1808.988, 810.423 1810.792, 807.300 1812.749, 804.269 1814.855, 801.341 1817.104, 798.521 1819.491, 795.816 1822.009, 793.234 1824.654, 790.780 1827.417, 788.461 1830.292, 786.284 1833.272, 784.251 1836.350, 782.370 1839.518, 780.645 1842.768, 779.080 1846.092, 777.679 1849.482, 776.445 1852.929, 775.382 1856.424, 774.492 1859.960, 773.777 1863.527, 773.239 1867.116, 772.880 1870.719, 772.701 1874.326, 772.701 1877.929, 772.880 1881.518, 773.239 1885.085, 773.777 1888.620, 774.492 1892.116, 775.382 1895.563, 776.445 1898.953, 777.679 1902.277, 779.080 1905.526, 780.645 1908.694, 782.370 1911.772, 784.251 1914.753, 786.284 1917.628, 788.461 1920.391, 790.780 1923.036, 793.234 1925.554, 795.816 1927.941, 798.521 1930.190, 801.341 1932.296, 804.269 1934.253, 807.300 1936.056, 810.423 1937.702, 813.634 1939.186, 816.921 1940.504, 820.279 1941.652, 823.698 1942.629, 827.171 1943.432, 830.687 1944.058, 834.240 1944.507, 837.819 1944.776, 841.416 1944.866, 845.022 1944.776, 848.628 1944.507, 852.226 1944.058, 855.804 1943.432, 859.357 1942.629, 862.873 1941.652, 866.346 1940.504, 869.765 1939.186, 873.123 1937.702, 876.411 1936.056, 879.621 1934.253, 882.745 1932.296, 885.775 1930.190, 888.704 1927.941, 891.524 1925.554, 894.228 " />
            <path fill="none" stroke-width="3.0" stroke-linecap="butt" stroke-opacity="1.0" stroke="rgb(0, 0, 0)" stroke-linejoin="round" d=" M 3296.713, 1524.773 3294.675, 1514.983 3292.636, 1505.193 3290.598, 1495.403 3288.560, 1485.613 3286.522, 1475.823 3284.484, 1466.033 3282.446, 1456.243 3280.407, 1446.453 3278.369, 1436.663 3276.331, 1426.872 3274.293, 1417.082 3272.255, 1407.292 3270.217, 1397.502 3268.178, 1387.712 3266.140, 1377.922 3264.102, 1368.132 3262.064, 1358.342 3260.026, 1348.552 3257.988, 1338.762 3256.531, 1331.763 3255.341, 1321.834 3254.152, 1311.905 3252.962, 1301.976 3251.773, 1292.047 3250.584, 1282.117 3249.394, 1272.188 3248.205, 1262.259 3247.016, 1252.330 3245.826, 1242.401 3244.637, 1232.472 3243.447, 1222.543 3242.258, 1212.614 3241.069, 1202.685 3239.879, 1192.756 3238.690, 1182.827 3237.500, 1172.898 3236.311, 1162.969 3235.122, 1153.040 3233.932, 1143.111 3232.743, 1133.182 3231.553, 1123.253 3230.364, 1113.324 3229.175, 1103.395 3227.985, 1093.466 3226.796, 1083.537 3225.606, 1073.608 3224.417, 1063.679 3223.228, 1053.750 3222.038, 1043.821 3220.849, 1033.892 3219.659, 1023.963 3218.518, 1014.431 " />
            <path fill="none" stroke-width="3.0" stroke-linecap="butt" stroke-opacity="1.0" stroke="rgb(0, 0, 0)" stroke-linejoin="round" d=" M 2943.442, 111.561 2941.063, 101.848 2938.685, 92.135 2936.307, 82.422 2933.929, 72.709 2931.551, 62.996 2929.172, 53.283 2926.794, 43.570 2924.416, 33.857 2921.928, 23.696 2911.928, 23.696 2901.928, 23.696 2891.928, 23.695 2881.928, 23.695 2871.928, 23.695 2861.928, 23.694 2851.928, 23.694 2841.928, 23.694 2831.928, 23.694 2821.928, 23.693 2811.928, 23.693 2801.928, 23.693 2791.928, 23.692 2781.928, 23.692 2771.928, 23.692 2761.928, 23.691 2751.928, 23.691 2741.928, 23.691 2731.928, 23.690 2721.928, 23.690 2711.928, 23.690 2701.928, 23.690 2695.489, 23.689 2685.489, 23.689 2675.489, 23.689 2665.489, 23.688 2655.489, 23.688 2645.489, 23.688 2635.489, 23.688 2625.489, 23.687 2615.489, 23.687 2605.489, 23.687 2595.489, 23.686 2585.489, 23.686 2575.489, 23.686 2565.489, 23.685 2555.489, 23.685 2545.489, 23.685 2535.489, 23.684 2525.489, 23.684 2515.489, 23.684 2505.489, 23.683 2495.489, 23.683 2485.489, 23.683 2479.412, 23.683 " />
            <path fill="none" stroke-width="3.0" stroke-linecap="butt" stroke-opacity="1.0" stroke="rgb(0, 0, 0)" stroke-linejoin="round" d=" M 2695.489, 23.689 2694.482, 23.771 2693.566, 23.760 2690.913, 23.759 2680.913, 23.756 2670.913, 23.752 2660.913, 23.748 2650.913, 23.745 2640.913, 23.741 2630.913, 23.738 2620.913, 23.734 2610.913, 23.730 2600.913, 23.727 2590.913, 23.723 2580.913, 23.719 2570.913, 23.716 2560.913, 23.712 2550.913, 23.708 2540.913, 23.705 2530.913, 23.701 2520.913, 23.698 2510.913, 23.694 2500.913, 23.690 2490.913, 23.687 2479.412, 23.683 2478.499, 23.682 2476.375, 23.682 " />
            <path fill="none" stroke-width="3.0" stroke-linecap="butt" stroke-opacity="1.0" stroke="rgb(0, 0, 0)" stroke-linejoin="round" d=" M 1515.055, 504.729 1513.205, 506.627 1511.262, 508.429 1509.232, 510.133 1507.120, 511.733 1504.930, 513.226 1502.669, 514.608 1500.341, 515.875 " />
            <path fill="none" stroke-width="3.0" stroke-linecap="butt" stroke-opacity="1.0" stroke="rgb(0, 0, 0)" stroke-linejoin="round" d=" M 1528.980, 463.286 1529.178, 465.928 1529.244, 468.578 1529.178, 471.227 1528.980, 473.870 1528.650, 476.499 1528.190, 479.109 1527.600, 481.693 1526.883, 484.244 1526.039, 486.757 1525.070, 489.224 1523.980, 491.639 1522.771, 493.997 1521.446, 496.292 1520.009, 498.519 1518.461, 500.671 1516.809, 502.743 " />
            <path fill="none" stroke-width="3.0" stroke-linecap="butt" stroke-opacity="1.0" stroke="rgb(0, 0, 0)" stroke-linejoin="round" d=" M 1497.954, 517.025 1495.512, 518.055 1493.021, 518.961 1490.489, 519.742 " />
            <path fill="none" stroke-width="3.0" stroke-linecap="butt" stroke-opacity="1.0" stroke="rgb(0, 0, 0)" stroke-linejoin="round" d=" M 1485.323, 520.921 1482.702, 521.316 1480.065, 521.580 1477.418, 521.712 1474.768, 521.712 1472.122, 521.580 " />
            <path fill="none" stroke-width="3.0" stroke-linecap="butt" stroke-opacity="1.0" stroke="rgb(0, 0, 0)" stroke-linejoin="round" d=" M 1165.685, 1809.383 1155.685, 1809.383 1145.685, 1809.383 1135.685, 1809.383 1125.685, 1809.383 1115.685, 1809.383 1105.685, 1809.383 1095.685, 1809.383 1085.685, 1809.383 1075.685, 1809.383 1065.685, 1809.383 1055.685, 1809.383 1045.685, 1809.383 1035.685, 1809.383 1025.685, 1809.383 1015.685, 1809.383 1005.685, 1809.383 995.685, 1809.383 985.685, 1809.383 975.685, 1809.383 965.685, 1809.383 955.685, 1809.383 945.685, 1809.383 935.685, 1809.383 925.685, 1809.383 915.685, 1809.383 905.685, 1809.383 895.685, 1809.383 885.685, 1809.383 875.685, 1809.383 865.685, 1809.383 855.685, 1809.383 845.685, 1809.383 835.685, 1809.383 825.685, 1809.383 815.685, 1809.383 805.685, 1809.383 795.685, 1809.383 785.685, 1809.383 775.685, 1809.383 765.685, 1809.383 755.685, 1809.383 745.685, 1809.383 735.685, 1809.383 725.685, 1809.383 715.685, 1809.383 705.685, 1809.383 695.685, 1809.383 685.685, 1809.383 675.685, 1809.383 665.685, 1809.383 655.685, 1809.383 645.685, 1809.383 635.685, 1809.383 625.685, 1809.383 615.685, 1809.383 605.685, 1809.383 595.685, 1809.383 585.685, 1809.383 575.685, 1809.383 565.685, 1809.383 555.685, 1809.383 545.685, 1809.383 535.685, 1809.383 525.685, 1809.383 515.685, 1809.383 505.685, 1809.383 495.685, 1809.383 485.685, 1809.383 475.685, 1809.383 465.685, 1809.383 455.685, 1809.383 445.685, 1809.383 435.685, 1809.383 425.685, 1809.383 415.685, 1809.383 405.685, 1809.383 395.685, 1809.383 385.685, 1809.383 375.685, 1809.383 365.685, 1809.383 355.685, 1809.383 345.685, 1809.383 335.685, 1809.383 325.685, 1809.383 315.685, 1809.383 305.685, 1809.383 295.685, 1809.383 285.685, 1809.383 275.685, 1809.383 265.685, 1809.383 255.685, 1809.383 245.685, 1809.383 235.685, 1809.383 225.685, 1809.383 215.685, 1809.383 205.685, 1809.383 195.685, 1809.383 185.685, 1809.383 175.685, 1809.383 165.685, 1809.383 155.685, 1809.383 145.685, 1809.383 135.685, 1809.383 125.685, 1809.383 115.685, 1809.383 105.685, 1809.383 95.685, 1809.383 85.685, 1809.383 75.685, 1809.383 65.685, 1809.382 55.685, 1809.382 45.685, 1809.382 35.685, 1809.382 23.752, 1809.382 33.752, 1809.382 43.752, 1809.382 53.752, 1809.382 63.752, 1809.382 73.752, 1809.383 83.752, 1809.383 93.752, 1809.383 103.752, 1809.383 113.752, 1809.383 123.752, 1809.383 133.752, 1809.383 143.752, 1809.383 153.752, 1809.383 163.752, 1809.383 173.752, 1809.383 183.752, 1809.383 193.752, 1809.383 203.752, 1809.383 213.752, 1809.383 223.752, 1809.383 233.752, 1809.383 243.752, 1809.383 253.752, 1809.383 263.752, 1809.383 273.752, 1809.383 283.752, 1809.383 293.752, 1809.383 303.752, 1809.383 313.752, 1809.383 323.752, 1809.383 333.752, 1809.383 343.752, 1809.383 353.752, 1809.383 363.752, 1809.383 373.752, 1809.383 383.752, 1809.383 393.752, 1809.383 403.752, 1809.383 413.752, 1809.383 423.752, 1809.383 433.752, 1809.383 443.752, 1809.383 453.752, 1809.383 463.752, 1809.383 473.752, 1809.383 483.752, 1809.383 493.752, 1809.383 503.752, 1809.383 513.752, 1809.383 523.752, 1809.383 533.752, 1809.383 543.752, 1809.383 553.752, 1809.383 563.752, 1809.383 573.752, 1809.383 583.752, 1809.383 593.752, 1809.383 603.752, 1809.383 613.752, 1809.383 623.752, 1809.383 633.752, 1809.383 643.752, 1809.383 653.752, 1809.383 663.752, 1809.383 673.752, 1809.383 683.752, 1809.383 693.752, 1809.383 703.752, 1809.383 713.752, 1809.383 723.752, 1809.383 733.752, 1809.383 743.752, 1809.383 753.752, 1809.383 763.752, 1809.383 773.752, 1809.383 783.752, 1809.383 793.752, 1809.383 803.752, 1809.383 813.752, 1809.383 823.752, 1809.383 833.752, 1809.383 843.752, 1809.383 853.752, 1809.383 863.752, 1809.383 873.752, 1809.383 883.752, 1809.383 893.752, 1809.383 903.752, 1809.383 913.752, 1809.383 923.752, 1809.383 933.752, 1809.383 943.752, 1809.383 953.752, 1809.383 963.752, 1809.383 973.752, 1809.383 983.752, 1809.383 993.752, 1809.383 1003.752, 1809.383 1013.752, 1809.383 1023.752, 1809.383 1033.752, 1809.383 1043.752, 1809.383 1053.752, 1809.383 1063.752, 1809.383 1073.752, 1809.383 1083.752, 1809.383 1093.752, 1809.383 1103.752, 1809.383 1113.752, 1809.383 1123.752, 1809.383 1133.752, 1809.383 1143.752, 1809.383 1153.752, 1809.383 1163.752, 1809.383 1173.752, 1809.383 1189.731, 1809.383 1192.911, 1809.383 " />
            <path fill="none" stroke-width="3.0" stroke-linecap="butt" stroke-opacity="1.0" stroke="rgb(0, 0, 0)" stroke-linejoin="round" d=" M 1528.650, 460.656 1528.980, 463.286 " />
            <path fill="none" stroke-width="3.0" stroke-linecap="butt" stroke-opacity="1.0" stroke="rgb(0, 0, 0)" stroke-linejoin="round" d=" M 1528.190, 458.046 1528.650, 460.656 " />
            <path fill="none" stroke-width="3.0" stroke-linecap="butt" stroke-opacity="1.0" stroke="rgb(0, 0, 0)" stroke-linejoin="round" d=" M 1527.600, 455.462 1528.190, 458.046 " />
            <path fill="none" stroke-width="3.0" stroke-linecap="butt" stroke-opacity="1.0" stroke="rgb(0, 0, 0)" stroke-linejoin="round" d=" M 1520.009, 438.637 1521.446, 440.863 1522.771, 443.158 1523.980, 445.517 1525.070, 447.932 1526.039, 450.400 1526.883, 452.912 1527.600, 455.462 " />
            <path fill="none" stroke-width="3.0" stroke-linecap="butt" stroke-opacity="1.0" stroke="rgb(0, 0, 0)" stroke-linejoin="round" d=" M 2478.499, 23.682 2476.556, 23.682 " />
            <path fill="none" stroke-width="3.0" stroke-linecap="butt" stroke-opacity="1.0" stroke="rgb(0, 0, 0)" stroke-linejoin="round" d=" M 23.752, 1809.382 33.752, 1809.382 43.752, 1809.382 53.752, 1809.382 63.752, 1809.382 73.752, 1809.382 83.752, 1809.382 93.752, 1809.382 103.752, 1809.382 113.752, 1809.382 123.752, 1809.382 133.752, 1809.382 143.752, 1809.382 151.833, 1809.382 152.687, 1809.382 153.514, 1809.382 154.310, 1809.382 155.073, 1809.382 155.799, 1809.382 156.487, 1809.382 157.135, 1809.382 167.135, 1809.382 177.135, 1809.382 187.135, 1809.382 197.135, 1809.382 207.135, 1809.383 215.845, 1809.383 225.845, 1809.383 235.845, 1809.383 245.845, 1809.383 255.845, 1809.383 265.845, 1809.383 275.845, 1809.383 285.845, 1809.383 295.845, 1809.383 305.845, 1809.383 315.845, 1809.383 325.845, 1809.383 335.845, 1809.383 345.845, 1809.383 355.845, 1809.383 365.845, 1809.383 375.845, 1809.383 385.845, 1809.383 395.845, 1809.383 405.845, 1809.383 415.845, 1809.383 425.845, 1809.383 435.845, 1809.383 445.845, 1809.383 455.845, 1809.383 465.845, 1809.383 475.845, 1809.383 485.845, 1809.383 495.845, 1809.383 505.845, 1809.383 515.845, 1809.383 525.845, 1809.383 535.845, 1809.383 545.845, 1809.383 555.845, 1809.383 565.845, 1809.383 575.845, 1809.383 585.845, 1809.383 595.845, 1809.383 605.845, 1809.383 615.845, 1809.383 625.845, 1809.383 635.845, 1809.383 645.845, 1809.383 655.845, 1809.383 665.845, 1809.383 675.845, 1809.383 685.845, 1809.383 695.845, 1809.383 705.845, 1809.383 715.845, 1809.383 725.845, 1809.383 735.845, 1809.383 745.845, 1809.383 755.845, 1809.383 765.845, 1809.383 775.845, 1809.383 785.845, 1809.383 795.845, 1809.383 805.845, 1809.383 815.845, 1809.383 825.845, 1809.383 835.845, 1809.383 845.845, 1809.383 855.845, 1809.383 865.845, 1809.383 875.845, 1809.383 885.845, 1809.383 895.845, 1809.383 905.845, 1809.383 915.845, 1809.383 925.845, 1809.383 935.845, 1809.383 945.845, 1809.383 955.845, 1809.383 965.845, 1809.383 975.845, 1809.383 985.845, 1809.383 995.845, 1809.383 1005.845, 1809.383 1015.845, 1809.383 1025.845, 1809.383 1035.845, 1809.383 1045.845, 1809.383 1055.845, 1809.383 1065.845, 1809.383 1075.845, 1809.383 1085.845, 1809.383 1095.845, 1809.383 1105.845, 1809.383 1115.845, 1809.383 1125.845, 1809.383 1135.845, 1809.383 1145.845, 1809.383 1155.845, 1809.383 1165.685, 1809.383 1175.685, 1809.383 1185.685, 1809.383 1189.731, 1809.383 " />
            <path fill="none" stroke-width="3.0" stroke-linecap="butt" stroke-opacity="1.0" stroke="rgb(0, 0, 0)" stroke-linejoin="round" d=" M 1464.266, 520.396 1461.698, 519.742 1459.166, 518.961 1456.675, 518.055 1454.233, 517.025 1451.845, 515.875 1449.518, 514.608 " />
            <path fill="none" stroke-width="3.0" stroke-linecap="butt" stroke-opacity="1.0" stroke="rgb(0, 0, 0)" stroke-linejoin="round" d=" M 1515.055, 432.427 1516.809, 434.413 1518.461, 436.485 1520.009, 438.637 " />
            <path fill="none" stroke-width="3.0" stroke-linecap="butt" stroke-opacity="1.0" stroke="rgb(0, 0, 0)" stroke-linejoin="round" d=" M 2474.612, 23.682 2472.672, 23.682 2470.742, 23.682 2460.742, 23.681 2450.742, 23.681 2440.742, 23.681 2430.742, 23.680 2420.742, 23.680 2410.742, 23.680 2400.742, 23.680 2390.742, 23.679 2380.742, 23.679 2370.742, 23.679 2360.742, 23.678 2350.742, 23.678 2340.742, 23.678 2330.742, 23.677 2320.742, 23.677 2310.742, 23.677 2300.742, 23.677 2290.742, 23.676 2280.742, 23.676 2270.742, 23.676 2260.742, 23.676 2250.742, 23.675 2240.742, 23.675 2230.742, 23.675 2218.988, 23.674 2208.988, 23.674 2198.988, 23.674 2191.760, 23.673 2181.760, 23.673 2171.760, 23.673 2161.760, 23.673 2151.760, 23.672 2141.760, 23.672 2131.240, 23.672 2128.771, 23.672 " />
            <path fill="none" stroke-width="3.0" stroke-linecap="butt" stroke-opacity="1.0" stroke="rgb(0, 0, 0)" stroke-linejoin="round" d=" M 1497.954, 420.131 1500.341, 421.281 1502.669, 422.548 1504.930, 423.930 1507.120, 425.423 1509.232, 427.023 1511.262, 428.726 1513.205, 430.529 1515.055, 432.427 " />
            <path fill="none" stroke-width="3.0" stroke-linecap="butt" stroke-opacity="1.0" stroke="rgb(0, 0, 0)" stroke-linejoin="round" d=" M 2126.310, 23.671 2123.865, 23.671 2121.444, 23.671 2111.444, 23.671 2101.444, 23.670 2091.444, 23.670 2081.444, 23.670 2071.444, 23.669 2063.587, 23.669 2057.185, 23.669 2047.185, 23.669 2037.185, 23.668 2027.185, 23.668 2017.185, 23.668 2010.018, 23.667 " />
            <path fill="none" stroke-width="3.0" stroke-linecap="butt" stroke-opacity="1.0" stroke="rgb(0, 0, 0)" stroke-linejoin="round" d=" M 1449.518, 514.608 1447.257, 513.226 1445.067, 511.733 1442.955, 510.133 1440.924, 508.429 1438.982, 506.627 " />
            <path fill="none" stroke-width="3.0" stroke-linecap="butt" stroke-opacity="1.0" stroke="rgb(0, 0, 0)" stroke-linejoin="round" d=" M 1433.725, 500.671 1432.178, 498.519 1430.740, 496.292 1429.415, 493.997 1428.206, 491.639 " />
            <path fill="none" stroke-width="3.0" stroke-linecap="butt" stroke-opacity="1.0" stroke="rgb(0, 0, 0)" stroke-linejoin="round" d=" M 1427.116, 489.224 1426.148, 486.757 1425.304, 484.244 1424.586, 481.693 1423.997, 479.109 1423.536, 476.499 " />
            <path fill="none" stroke-width="3.0" stroke-linecap="butt" stroke-opacity="1.0" stroke="rgb(0, 0, 0)" stroke-linejoin="round" d=" M 1423.536, 476.499 1423.207, 473.870 1423.009, 471.227 1422.943, 468.578 " />
            <path fill="none" stroke-width="3.0" stroke-linecap="butt" stroke-opacity="1.0" stroke="rgb(0, 0, 0)" stroke-linejoin="round" d=" M 1423.009, 465.928 1423.207, 463.286 1423.536, 460.656 1423.997, 458.046 1424.586, 455.462 1425.304, 452.912 1426.148, 450.400 1427.116, 447.932 " />
            <path fill="none" stroke-width="3.0" stroke-linecap="butt" stroke-opacity="1.0" stroke="rgb(0, 0, 0)" stroke-linejoin="round" d=" M 722.820, 23.628 718.421, 32.609 714.022, 41.589 709.624, 50.570 705.225, 59.551 700.826, 68.531 696.428, 77.512 692.029, 86.492 687.630, 95.473 683.232, 104.454 678.833, 113.434 674.434, 122.415 670.035, 131.396 665.637, 140.376 661.238, 149.357 656.839, 158.338 652.441, 167.318 648.042, 176.299 643.643, 185.279 639.245, 194.260 634.846, 203.241 630.447, 212.221 626.049, 221.202 621.650, 230.182 617.251, 239.163 612.853, 248.144 608.454, 257.124 604.055, 266.105 599.657, 275.086 595.691, 283.183 591.608, 292.312 587.525, 301.440 583.443, 310.569 579.360, 319.698 575.278, 328.826 571.195, 337.955 567.112, 347.083 563.030, 356.212 558.947, 365.341 554.864, 374.469 550.782, 383.598 546.699, 392.727 542.617, 401.855 538.534, 410.984 534.451, 420.113 530.369, 429.241 526.286, 438.370 522.203, 447.499 518.121, 456.627 514.038, 465.756 509.956, 474.885 505.873, 484.013 501.790, 493.142 497.708, 502.271 493.625, 511.399 489.543, 520.528 485.460, 529.656 481.377, 538.785 477.295, 547.914 473.212, 557.042 469.129, 566.171 465.047, 575.300 460.964, 584.428 456.882, 593.557 452.799, 602.686 448.716, 611.814 444.634, 620.943 440.551, 630.072 436.469, 639.200 432.386, 648.329 428.303, 657.458 424.221, 666.586 420.138, 675.715 416.055, 684.844 411.973, 693.972 407.890, 703.101 403.808, 712.229 399.725, 721.358 395.642, 730.487 391.560, 739.615 387.477, 748.744 383.395, 757.873 379.312, 767.001 375.229, 776.130 371.147, 785.259 367.064, 794.387 362.981, 803.516 358.899, 812.645 354.816, 821.773 350.734, 830.902 346.651, 840.031 342.568, 849.159 338.486, 858.288 334.403, 867.417 330.320, 876.545 326.238, 885.674 322.155, 894.802 315.653, 909.342 311.370, 918.378 307.086, 927.414 302.803, 936.450 298.519, 945.486 294.236, 954.523 289.953, 963.559 285.669, 972.595 281.386, 981.631 277.103, 990.667 272.819, 999.704 268.536, 1008.740 264.252, 1017.776 259.969, 1026.812 255.686, 1035.848 251.402, 1044.884 247.119, 1053.921 242.835, 1062.957 239.126, 1070.781 234.384, 1079.586 229.642, 1088.390 224.900, 1097.194 220.158, 1105.998 215.416, 1114.802 210.674, 1123.606 205.931, 1132.410 201.189, 1141.214 196.447, 1150.018 191.705, 1158.822 186.963, 1167.626 182.221, 1176.430 177.478, 1185.235 172.736, 1194.039 167.994, 1202.843 163.252, 1211.647 158.510, 1220.451 153.768, 1229.255 149.026, 1238.059 144.283, 1246.863 139.161, 1256.373 135.718, 1265.762 132.276, 1275.151 128.833, 1284.540 125.391, 1293.929 121.949, 1303.317 118.506, 1312.706 115.064, 1322.095 111.621, 1331.484 108.179, 1340.873 104.736, 1350.261 101.294, 1359.650 97.851, 1369.039 94.409, 1378.428 90.967, 1387.817 87.524, 1397.205 84.082, 1406.594 80.639, 1415.983 77.197, 1425.372 73.754, 1434.761 70.312, 1444.149 66.869, 1453.538 63.427, 1462.927 59.984, 1472.316 56.542, 1481.705 53.100, 1491.093 49.657, 1500.482 46.215, 1509.871 42.772, 1519.260 39.330, 1528.649 35.762, 1538.380 " />
            <path fill="none" stroke-width="3.0" stroke-linecap="butt" stroke-opacity="1.0" stroke="rgb(0, 0, 0)" stroke-linejoin="round" d=" M 1427.116, 447.932 1428.206, 445.517 1429.415, 443.158 1430.740, 440.863 1432.178, 438.637 1433.725, 436.485 1435.378, 434.413 1437.131, 432.427 " />
            <path fill="none" stroke-width="3.0" stroke-linecap="butt" stroke-opacity="1.0" stroke="rgb(0, 0, 0)" stroke-linejoin="round" d=" M 1958.637, 23.666 1948.637, 23.666 1938.637, 23.665 1928.637, 23.665 1918.637, 23.665 1908.637, 23.664 1898.637, 23.664 1888.637, 23.664 1878.637, 23.663 1868.637, 23.663 1858.637, 23.663 1848.637, 23.662 1838.637, 23.662 1828.637, 23.662 1818.637, 23.661 1808.637, 23.661 1798.637, 23.661 1788.637, 23.660 1778.637, 23.660 1768.637, 23.660 1758.637, 23.659 1748.637, 23.659 1738.637, 23.659 1728.637, 23.658 1718.637, 23.658 1708.637, 23.658 1698.637, 23.657 1688.637, 23.657 1678.637, 23.657 1668.637, 23.657 1658.637, 23.656 1648.637, 23.656 1638.637, 23.656 1628.637, 23.655 1618.637, 23.655 1614.404, 23.655 1614.035, 23.655 1613.435, 23.655 1611.622, 23.655 1610.635, 23.655 1608.786, 23.655 1607.785, 23.655 1605.903, 23.655 1604.891, 23.655 1602.981, 23.655 1601.959, 23.655 1600.027, 23.655 1598.998, 23.655 1598.716, 23.655 " />
            <path fill="none" stroke-width="3.0" stroke-linecap="butt" stroke-opacity="1.0" stroke="rgb(0, 0, 0)" stroke-linejoin="round" d=" M 1495.512, 419.102 1497.954, 420.131 " />
            <path fill="none" stroke-width="3.0" stroke-linecap="butt" stroke-opacity="1.0" stroke="rgb(0, 0, 0)" stroke-linejoin="round" d=" M 1597.125, 23.655 1597.048, 23.655 1596.015, 23.655 1595.602, 23.655 1594.094, 23.655 1594.052, 23.655 1593.266, 23.655 " />
            <path fill="none" stroke-width="3.0" stroke-linecap="butt" stroke-opacity="1.0" stroke="rgb(0, 0, 0)" stroke-linejoin="round" d=" M 1456.675, 419.102 1459.166, 418.194 1461.698, 417.414 1464.266, 416.760 1466.864, 416.234 1469.484, 415.839 1472.122, 415.575 1474.768, 415.444 1477.418, 415.444 1480.065, 415.575 1482.702, 415.839 1485.323, 416.234 1487.920, 416.760 1490.489, 417.414 1493.021, 418.194 1495.512, 419.102 " />
            <path fill="none" stroke-width="3.0" stroke-linecap="butt" stroke-opacity="1.0" stroke="rgb(0, 0, 0)" stroke-linejoin="round" d=" M 1593.017, 23.655 1592.994, 23.655 1592.916, 23.655 1592.775, 23.655 1592.632, 23.655 " />
            <path fill="none" stroke-width="3.0" stroke-linecap="butt" stroke-opacity="1.0" stroke="rgb(0, 0, 0)" stroke-linejoin="round" d=" M 1591.046, 23.654 1590.942, 23.654 1590.582, 23.654 1590.012, 23.654 1588.036, 23.654 1578.036, 23.654 1568.036, 23.654 1558.036, 23.653 1549.761, 23.653 1539.761, 23.653 1537.883, 23.653 1527.883, 23.652 1517.883, 23.652 1507.883, 23.652 1497.883, 23.652 1487.883, 23.651 1477.883, 23.651 1467.883, 23.651 1457.883, 23.651 1447.883, 23.650 1441.958, 23.650 " />
            <path fill="none" stroke-width="3.0" stroke-linecap="butt" stroke-opacity="1.0" stroke="rgb(0, 0, 0)" stroke-linejoin="round" d=" M 975.908, 23.636 975.467, 23.636 975.410, 23.636 975.030, 23.636 974.791, 23.636 974.719, 23.636 974.613, 23.636 974.338, 23.636 973.631, 23.636 973.353, 23.636 973.284, 23.636 963.284, 23.635 953.284, 23.635 943.284, 23.635 933.284, 23.635 923.284, 23.634 913.284, 23.634 903.284, 23.634 893.284, 23.633 883.284, 23.633 873.284, 23.633 863.284, 23.632 853.284, 23.632 843.284, 23.632 833.284, 23.631 823.284, 23.631 813.284, 23.631 803.284, 23.631 793.284, 23.630 783.284, 23.630 773.284, 23.630 763.284, 23.629 753.284, 23.629 743.284, 23.629 733.284, 23.628 722.820, 23.628 " />
            <path fill="none" stroke-width="3.0" stroke-linecap="butt" stroke-opacity="1.0" stroke="rgb(0, 0, 0)" stroke-linejoin="round" d=" M 981.666, 23.636 981.020, 23.636 980.946, 23.636 980.941, 23.636 980.910, 23.636 980.803, 23.636 979.825, 23.636 978.921, 23.636 978.708, 23.636 977.598, 23.636 976.498, 23.636 976.369, 23.636 " />
            <path fill="none" stroke-width="3.0" stroke-linecap="butt" stroke-opacity="1.0" stroke="rgb(0, 0, 0)" stroke-linejoin="round" d=" M 1437.131, 432.427 1438.982, 430.529 " />
            <path fill="none" stroke-width="3.0" stroke-linecap="butt" stroke-opacity="1.0" stroke="rgb(0, 0, 0)" stroke-linejoin="round" d=" M 1438.982, 430.529 1440.924, 428.726 " />
            <path fill="none" stroke-width="3.0" stroke-linecap="butt" stroke-opacity="1.0" stroke="rgb(0, 0, 0)" stroke-linejoin="round" d=" M 986.704, 23.636 986.476, 23.636 985.391, 23.636 984.291, 23.636 983.182, 23.636 982.066, 23.636 981.666, 23.636 " />
            <path fill="none" stroke-width="3.0" stroke-linecap="butt" stroke-opacity="1.0" stroke="rgb(0, 0, 0)" stroke-linejoin="round" d=" M 1440.924, 428.726 1442.955, 427.023 " />
            <path fill="none" stroke-width="3.0" stroke-linecap="butt" stroke-opacity="1.0" stroke="rgb(0, 0, 0)" stroke-linejoin="round" d=" M 1442.955, 427.023 1445.067, 425.423 1447.257, 423.930 1449.518, 422.548 1451.845, 421.281 1454.233, 420.131 1456.675, 419.102 " />
            <path fill="none" stroke-width="3.0" stroke-linecap="butt" stroke-opacity="1.0" stroke="rgb(0, 0, 0)" stroke-linejoin="round" d=" M 987.544, 23.637 987.179, 23.636 987.178, 23.636 " />
            <path fill="none" stroke-width="3.0" stroke-linecap="butt" stroke-opacity="1.0" stroke="rgb(0, 0, 0)" stroke-linejoin="round" d=" M 1010.172, 23.637 1009.508, 23.637 999.508, 23.637 994.248, 23.637 993.396, 23.637 992.503, 23.637 991.572, 23.637 990.608, 23.637 989.613, 23.637 988.591, 23.637 987.544, 23.637 " />
            <path fill="none" stroke-width="3.0" stroke-linecap="butt" stroke-opacity="1.0" stroke="rgb(0, 0, 0)" stroke-linejoin="round" d=" M 1334.637, 23.646 1333.112, 23.646 1333.013, 23.646 1332.924, 23.646 1332.851, 23.646 1332.599, 23.646 1331.345, 23.646 1329.636, 23.646 1328.150, 23.646 1327.892, 23.646 1326.119, 23.646 1316.119, 23.646 1306.119, 23.646 1296.119, 23.646 1286.119, 23.645 1276.119, 23.645 1266.119, 23.645 1256.119, 23.644 1246.119, 23.644 1236.119, 23.644 1226.119, 23.643 1216.119, 23.643 1206.119, 23.643 1196.119, 23.643 1186.119, 23.642 1181.325, 23.642 " />
            <path fill="none" stroke-width="3.0" stroke-linecap="butt" stroke-opacity="1.0" stroke="rgb(0, 0, 0)" stroke-linejoin="round" d=" M 1336.212, 23.647 1336.096, 23.647 1336.046, 23.647 1335.869, 23.647 1335.850, 23.647 1335.837, 23.647 1335.794, 23.647 1335.716, 23.647 1335.637, 23.647 " />
            <path fill="none" stroke-width="3.0" stroke-linecap="butt" stroke-opacity="1.0" stroke="rgb(0, 0, 0)" stroke-linejoin="round" d=" M 1088.808, 894.228 1086.290, 896.810 1083.645, 899.265 1080.882, 901.583 1078.007, 903.761 1075.026, 905.793 1071.948, 907.674 1068.780, 909.399 1065.530, 910.964 1062.207, 912.365 1058.817, 913.599 1055.370, 914.663 1051.874, 915.552 1048.339, 916.267 1044.772, 916.805 1041.183, 917.164 1037.580, 917.343 1033.973, 917.343 1030.370, 917.164 1026.781, 916.805 1023.214, 916.267 1019.678, 915.552 1016.183, 914.663 1012.736, 913.599 1009.346, 912.365 1006.022, 910.964 1002.772, 909.399 999.604, 907.674 996.526, 905.793 993.546, 903.761 990.671, 901.583 987.907, 899.265 985.263, 896.810 982.744, 894.228 980.358, 891.524 978.109, 888.704 976.003, 885.775 974.046, 882.745 972.242, 879.621 970.597, 876.411 969.113, 873.123 967.795, 869.765 966.646, 866.346 965.669, 862.873 964.867, 859.357 964.240, 855.804 963.792, 852.226 963.522, 848.628 963.432, 845.022 963.522, 841.416 963.792, 837.819 964.240, 834.240 964.867, 830.687 965.669, 827.171 966.646, 823.698 967.795, 820.279 969.113, 816.921 970.597, 813.634 972.242, 810.423 974.046, 807.300 976.003, 804.269 978.109, 801.341 980.358, 798.521 982.744, 795.816 985.263, 793.234 987.907, 790.780 990.671, 788.461 993.546, 786.284 996.526, 784.251 999.604, 782.370 1002.772, 780.645 1006.022, 779.080 1009.346, 777.679 1012.736, 776.445 1016.183, 775.382 1019.678, 774.492 1023.214, 773.777 1026.781, 773.239 1030.370, 772.880 1033.973, 772.701 1037.580, 772.701 1041.183, 772.880 1044.772, 773.239 1048.339, 773.777 1051.874, 774.492 1055.370, 775.382 1058.817, 776.445 1062.207, 777.679 1065.530, 779.080 1068.780, 780.645 1071.948, 782.370 1075.026, 784.251 1078.007, 786.284 1080.882, 788.461 1083.645, 790.780 1086.290, 793.234 1088.808, 795.816 1091.195, 798.521 1093.444, 801.341 1095.550, 804.269 1097.507, 807.300 1099.310, 810.423 1100.956, 813.634 1102.440, 816.921 1103.757, 820.279 1104.906, 823.698 1105.883, 827.171 1106.686, 830.687 1107.312, 834.240 1107.761, 837.819 1108.030, 841.416 1108.120, 845.022 1108.030, 848.628 1107.761, 852.226 1107.312, 855.804 1106.686, 859.357 1105.883, 862.873 1104.906, 866.346 1103.757, 869.765 1102.440, 873.123 1100.956, 876.411 1099.310, 879.621 1097.507, 882.745 1095.550, 885.775 1093.444, 888.704 1091.195, 891.524 1088.808, 894.228 " />
            <path fill="none" stroke-width="3.0" stroke-linecap="butt" stroke-opacity="1.0" stroke="rgb(0, 0, 0)" stroke-linejoin="round" d=" M 2063.587, 23.669 2073.587, 23.669 2083.587, 23.670 2093.587, 23.670 2103.587, 23.670 2113.587, 23.671 2123.865, 23.671 2113.865, 23.671 2103.865, 23.670 2093.865, 23.670 2083.865, 23.670 2073.865, 23.670 2063.865, 23.669 2057.185, 23.669 " />
            <path fill="none" stroke-width="3.0" stroke-linecap="butt" stroke-opacity="1.0" stroke="rgb(0, 0, 0)" stroke-linejoin="round" d=" M 986.476, 23.636 976.476, 23.635 966.476, 23.635 956.476, 23.635 946.476, 23.635 936.476, 23.634 926.476, 23.634 916.476, 23.634 906.476, 23.633 896.476, 23.633 886.476, 23.633 876.476, 23.633 866.476, 23.632 856.476, 23.632 846.476, 23.632 836.476, 23.631 826.476, 23.631 816.476, 23.631 806.476, 23.630 796.476, 23.630 786.476, 23.630 776.476, 23.630 766.476, 23.629 756.476, 23.629 746.476, 23.629 736.476, 23.629 726.476, 23.628 722.820, 23.628 " />
            <path fill="none" stroke-width="3.0" stroke-linecap="butt" stroke-opacity="1.0" stroke="rgb(0, 0, 0)" stroke-linejoin="round" d=" M 986.476, 23.636 976.476, 23.635 966.476, 23.635 956.476, 23.635 946.476, 23.635 936.476, 23.634 926.476, 23.634 916.476, 23.634 906.476, 23.633 896.476, 23.633 886.476, 23.633 876.476, 23.633 866.476, 23.632 856.476, 23.632 846.476, 23.632 836.476, 23.631 826.476, 23.631 816.476, 23.631 806.476, 23.630 796.476, 23.630 786.476, 23.630 776.476, 23.630 766.476, 23.629 756.476, 23.629 746.476, 23.629 736.476, 23.629 726.476, 23.628 722.820, 23.628 " />
            <path fill="none" stroke-width="3.0" stroke-linecap="butt" stroke-opacity="1.0" stroke="rgb(0, 0, 0)" stroke-linejoin="round" d=" M 1591.046, 23.654 1581.046, 23.654 1571.046, 23.654 1561.046, 23.653 1551.046, 23.653 1541.046, 23.653 1531.046, 23.652 1521.046, 23.652 1511.046, 23.652 1501.046, 23.651 1491.046, 23.651 1481.045, 23.651 1471.045, 23.651 1461.045, 23.650 1451.045, 23.650 1441.045, 23.650 1431.046, 23.649 1421.046, 23.649 1411.046, 23.649 1401.046, 23.648 1391.046, 23.648 1384.902, 23.648 1374.902, 23.648 1364.902, 23.647 1354.902, 23.647 1344.902, 23.647 1334.760, 23.646 " />
            <path fill="none" stroke-width="3.0" stroke-linecap="butt" stroke-opacity="1.0" stroke="rgb(0, 0, 0)" stroke-linejoin="round" d=" M 1592.761, 23.655 1591.379, 23.654 1591.346, 23.654 1591.312, 23.654 1581.312, 23.654 1571.312, 23.654 1561.312, 23.653 1551.312, 23.653 1541.312, 23.653 1531.312, 23.652 1521.312, 23.652 1511.312, 23.652 1501.312, 23.651 1491.312, 23.651 1481.312, 23.651 1471.312, 23.651 1461.312, 23.650 1451.312, 23.650 1441.312, 23.650 1431.312, 23.649 1421.312, 23.649 1411.312, 23.649 1401.312, 23.648 1391.312, 23.648 1381.312, 23.648 1378.987, 23.648 1368.987, 23.647 1358.987, 23.647 1348.987, 23.647 1338.987, 23.647 1334.747, 23.646 " />
            <path fill="none" stroke-width="3.0" stroke-linecap="butt" stroke-opacity="1.0" stroke="rgb(0, 0, 0)" stroke-linejoin="round" d=" M 1614.035, 23.655 1604.035, 23.655 1594.035, 23.654 1591.379, 23.654 1591.088, 23.654 " />
            <path fill="none" stroke-width="3.0" stroke-linecap="butt" stroke-opacity="1.0" stroke="rgb(0, 0, 0)" stroke-linejoin="round" d=" M 1614.404, 23.655 1604.404, 23.655 1594.404, 23.654 1591.346, 23.654 1591.055, 23.654 " />
            <path fill="none" stroke-width="3.0" stroke-linecap="butt" stroke-opacity="1.0" stroke="rgb(0, 0, 0)" stroke-linejoin="round" d=" M 2474.612, 23.682 2464.612, 23.681 2454.612, 23.681 2444.612, 23.681 2434.612, 23.680 2424.612, 23.680 2414.612, 23.680 2404.612, 23.679 2394.612, 23.679 2384.612, 23.679 2374.612, 23.679 2364.612, 23.678 2354.612, 23.678 2344.612, 23.678 2334.612, 23.677 2324.612, 23.677 2314.612, 23.677 2304.612, 23.676 2294.612, 23.676 2284.612, 23.676 2274.612, 23.676 2264.612, 23.675 2254.612, 23.675 2244.612, 23.675 2234.612, 23.674 2224.612, 23.674 2214.612, 23.674 2204.612, 23.673 2194.612, 23.673 2184.612, 23.673 2174.612, 23.672 2164.612, 23.672 2154.612, 23.672 2144.612, 23.672 2134.612, 23.671 2124.612, 23.671 2114.612, 23.671 2104.612, 23.670 2094.612, 23.670 2084.612, 23.670 2074.612, 23.669 2064.612, 23.669 2054.612, 23.669 2044.612, 23.668 2034.612, 23.668 2024.612, 23.668 2014.612, 23.668 2004.612, 23.667 1994.612, 23.667 1984.612, 23.667 1974.612, 23.666 1964.612, 23.666 1958.637, 23.666 " />
            <path fill="none" stroke-width="3.0" stroke-linecap="butt" stroke-opacity="1.0" stroke="rgb(0, 0, 0)" stroke-linejoin="round" d=" M 157.135, 1809.382 152.183, 1809.382 " />
            <path fill="none" stroke-width="3.0" stroke-linecap="butt" stroke-opacity="1.0" stroke="rgb(0, 0, 0)" stroke-linejoin="round" d=" M 3077.307, 1809.383 3087.307, 1809.383 3097.307, 1809.383 3107.307, 1809.383 3117.307, 1809.383 3127.307, 1809.383 3137.307, 1809.383 3147.307, 1809.383 3157.307, 1809.383 3167.307, 1809.383 3177.307, 1809.383 3187.307, 1809.383 3197.307, 1809.383 3207.307, 1809.383 3217.307, 1809.383 3227.307, 1809.383 3237.307, 1809.383 3247.307, 1809.383 3257.307, 1809.383 3267.307, 1809.383 3277.307, 1809.383 3287.307, 1809.383 3297.307, 1809.383 3307.307, 1809.383 3317.307, 1809.383 3327.307, 1809.383 3337.307, 1809.383 3347.307, 1809.383 3357.307, 1809.383 3367.307, 1809.383 3377.307, 1809.383 3387.307, 1809.383 3397.307, 1809.383 3402.269, 1809.383 " />
            <path fill="none" stroke-width="3.0" stroke-linecap="butt" stroke-opacity="1.0" stroke="rgb(0, 0, 0)" stroke-linejoin="round" d=" M 35.762, 1538.380 35.319, 1548.370 34.876, 1558.360 34.434, 1568.350 33.991, 1578.341 33.548, 1588.331 33.105, 1598.321 32.663, 1608.311 32.220, 1618.301 31.777, 1628.292 31.335, 1638.282 30.892, 1648.272 30.449, 1658.262 30.006, 1668.252 29.564, 1678.242 29.121, 1688.233 28.678, 1698.223 28.236, 1708.213 27.793, 1718.203 27.350, 1728.193 26.907, 1738.184 26.465, 1748.174 26.022, 1758.164 25.579, 1768.154 25.136, 1778.144 24.694, 1788.135 24.251, 1798.125 23.752, 1809.382 " />
            <path fill="none" stroke-width="3.0" stroke-linecap="butt" stroke-opacity="1.0" stroke="rgb(0, 0, 0)" stroke-linejoin="round" d=" M 976.369, 23.636 976.038, 23.636 975.908, 23.636 " />
            <path fill="none" stroke-width="3.0" stroke-linecap="butt" stroke-opacity="1.0" stroke="rgb(0, 0, 0)" stroke-linejoin="round" d=" M 986.741, 23.636 986.740, 23.636 986.736, 23.636 " />
            <path fill="none" stroke-width="3.0" stroke-linecap="butt" stroke-opacity="1.0" stroke="rgb(0, 0, 0)" stroke-linejoin="round" d=" M 986.990, 23.636 986.984, 23.636 986.967, 23.636 " />
            <path fill="none" stroke-width="3.0" stroke-linecap="butt" stroke-opacity="1.0" stroke="rgb(0, 0, 0)" stroke-linejoin="round" d=" M 987.013, 23.636 986.990, 23.636 " />
            <path fill="none" stroke-width="3.0" stroke-linecap="butt" stroke-opacity="1.0" stroke="rgb(0, 0, 0)" stroke-linejoin="round" d=" M 987.056, 23.636 987.051, 23.636 987.047, 23.636 " />
            <path fill="none" stroke-width="3.0" stroke-linecap="butt" stroke-opacity="1.0" stroke="rgb(0, 0, 0)" stroke-linejoin="round" d=" M 986.967, 23.636 986.839, 23.636 986.746, 23.636 986.741, 23.636 986.740, 23.636 986.736, 23.636 986.704, 23.636 " />
            <path fill="none" stroke-width="3.0" stroke-linecap="butt" stroke-opacity="1.0" stroke="rgb(0, 0, 0)" stroke-linejoin="round" d=" M 986.990, 23.636 986.984, 23.636 986.967, 23.636 " />
            <path fill="none" stroke-width="3.0" stroke-linecap="butt" stroke-opacity="1.0" stroke="rgb(0, 0, 0)" stroke-linejoin="round" d=" M 987.178, 23.636 987.154, 23.636 987.121, 23.636 987.107, 23.636 987.056, 23.636 987.051, 23.636 987.047, 23.636 987.035, 23.636 987.013, 23.636 986.990, 23.636 " />
            <path fill="none" stroke-width="3.0" stroke-linecap="butt" stroke-opacity="1.0" stroke="rgb(0, 0, 0)" stroke-linejoin="round" d=" M 1192.911, 1809.383 1182.911, 1809.383 1172.911, 1809.383 1162.911, 1809.383 1152.911, 1809.383 1142.911, 1809.383 1132.911, 1809.383 1122.911, 1809.383 1112.911, 1809.383 1102.911, 1809.383 1092.911, 1809.383 1082.911, 1809.383 1072.911, 1809.383 1062.911, 1809.383 1052.911, 1809.383 1042.911, 1809.383 1032.911, 1809.383 1022.911, 1809.383 1012.911, 1809.383 1002.911, 1809.383 992.911, 1809.383 982.911, 1809.383 972.911, 1809.383 962.911, 1809.383 952.911, 1809.383 942.911, 1809.383 932.911, 1809.383 922.911, 1809.383 912.911, 1809.383 902.911, 1809.383 892.911, 1809.383 882.911, 1809.383 872.911, 1809.383 862.911, 1809.383 852.911, 1809.383 842.911, 1809.383 832.911, 1809.383 822.911, 1809.383 812.911, 1809.383 802.911, 1809.383 792.911, 1809.383 782.911, 1809.383 772.911, 1809.383 762.911, 1809.383 752.911, 1809.383 742.911, 1809.383 732.911, 1809.383 722.911, 1809.383 712.911, 1809.383 702.911, 1809.383 692.911, 1809.383 682.911, 1809.383 672.911, 1809.383 662.911, 1809.383 652.911, 1809.383 642.911, 1809.383 632.911, 1809.383 622.911, 1809.383 612.911, 1809.383 602.911, 1809.383 592.911, 1809.383 582.911, 1809.383 572.911, 1809.383 562.911, 1809.383 552.911, 1809.383 542.911, 1809.383 532.911, 1809.383 522.911, 1809.383 512.911, 1809.383 502.911, 1809.383 492.911, 1809.383 482.911, 1809.383 472.911, 1809.383 462.911, 1809.383 452.911, 1809.383 442.911, 1809.383 432.911, 1809.383 422.911, 1809.383 412.911, 1809.383 402.911, 1809.383 392.911, 1809.383 382.911, 1809.383 372.911, 1809.383 362.911, 1809.383 352.911, 1809.383 342.911, 1809.383 332.911, 1809.383 322.911, 1809.383 312.911, 1809.383 302.911, 1809.383 292.911, 1809.383 282.911, 1809.383 272.911, 1809.383 262.911, 1809.383 252.911, 1809.383 242.911, 1809.383 232.911, 1809.383 222.911, 1809.383 209.357, 1809.383 199.357, 1809.383 189.357, 1809.382 179.357, 1809.382 169.357, 1809.382 159.357, 1809.382 152.183, 1809.382 " />
            <path fill="none" stroke-width="3.0" stroke-linecap="butt" stroke-opacity="1.0" stroke="rgb(0, 0, 0)" stroke-linejoin="round" d=" M 1153.006, 23.641 1160.630, 23.641 1170.630, 23.642 1180.630, 23.642 1181.325, 23.642 " />
            <path fill="none" stroke-width="3.0" stroke-linecap="butt" stroke-opacity="1.0" stroke="rgb(0, 0, 0)" stroke-linejoin="round" d=" M 1093.492, 23.640 1096.632, 23.640 " />
            <path fill="none" stroke-width="3.0" stroke-linecap="butt" stroke-opacity="1.0" stroke="rgb(0, 0, 0)" stroke-linejoin="round" d=" M 1153.006, 23.641 1143.006, 23.641 1133.006, 23.641 1128.904, 23.641 1118.904, 23.640 1108.904, 23.640 1107.482, 23.640 1097.482, 23.640 1096.632, 23.640 1093.492, 23.640 1088.943, 23.639 1078.943, 23.639 1068.943, 23.639 1058.943, 23.638 1051.506, 23.638 1042.229, 23.638 1032.229, 23.638 1022.835, 23.637 1012.835, 23.637 1010.172, 23.637 " />
            <path fill="none" stroke-width="3.0" stroke-linecap="butt" stroke-opacity="1.0" stroke="rgb(0, 0, 0)" stroke-linejoin="round" d=" M 1181.325, 23.642 1171.325, 23.642 1161.325, 23.641 1160.630, 23.641 1153.006, 23.641 " />
            <path fill="none" stroke-width="3.0" stroke-linecap="butt" stroke-opacity="1.0" stroke="rgb(0, 0, 0)" stroke-linejoin="round" d=" M 981.666, 23.636 971.666, 23.635 961.666, 23.635 951.666, 23.635 941.666, 23.635 931.666, 23.634 921.666, 23.634 911.666, 23.634 901.666, 23.633 891.666, 23.633 881.666, 23.633 871.666, 23.633 861.666, 23.632 851.666, 23.632 841.666, 23.632 831.666, 23.631 821.666, 23.631 811.666, 23.631 801.666, 23.630 791.666, 23.630 781.666, 23.630 771.666, 23.630 761.666, 23.629 751.666, 23.629 741.666, 23.629 731.666, 23.628 722.820, 23.628 " />
            <path fill="none" stroke-width="3.0" stroke-linecap="butt" stroke-opacity="1.0" stroke="rgb(0, 0, 0)" stroke-linejoin="round" d=" M 1334.637, 23.646 1324.637, 23.646 1314.637, 23.646 1304.637, 23.646 1294.637, 23.645 1284.637, 23.645 1274.637, 23.645 1264.637, 23.644 1254.637, 23.644 1244.637, 23.644 1234.637, 23.643 1224.637, 23.643 1214.637, 23.643 1204.637, 23.642 1194.637, 23.642 1184.637, 23.642 1174.637, 23.642 1164.637, 23.641 1154.637, 23.641 1144.637, 23.641 1134.637, 23.640 1124.637, 23.640 1114.637, 23.640 1104.637, 23.640 1094.637, 23.639 1084.637, 23.639 1074.637, 23.639 1064.637, 23.638 1054.637, 23.638 1044.637, 23.638 1034.637, 23.637 1024.637, 23.637 1014.637, 23.637 1004.637, 23.636 994.637, 23.636 986.704, 23.636 " />
            <path fill="none" stroke-width="3.0" stroke-linecap="butt" stroke-opacity="1.0" stroke="rgb(0, 0, 0)" stroke-linejoin="round" d=" M 981.666, 23.636 971.666, 23.635 961.666, 23.635 951.666, 23.635 941.666, 23.635 931.666, 23.634 921.666, 23.634 911.666, 23.634 901.666, 23.633 891.666, 23.633 881.666, 23.633 871.666, 23.633 861.666, 23.632 851.666, 23.632 841.666, 23.632 831.666, 23.631 821.666, 23.631 811.666, 23.631 801.666, 23.630 791.666, 23.630 781.666, 23.630 771.666, 23.630 761.666, 23.629 751.666, 23.629 741.666, 23.629 731.666, 23.628 722.820, 23.628 " />
            <path fill="none" stroke-width="3.0" stroke-linecap="butt" stroke-opacity="1.0" stroke="rgb(0, 0, 0)" stroke-linejoin="round" d=" M 1334.637, 23.646 1324.637, 23.646 1314.637, 23.646 1304.637, 23.646 1294.637, 23.645 1284.637, 23.645 1274.637, 23.645 1264.637, 23.644 1254.637, 23.644 1244.637, 23.644 1234.637, 23.643 1224.637, 23.643 1214.637, 23.643 1204.637, 23.642 1194.637, 23.642 1184.637, 23.642 1174.637, 23.642 1164.637, 23.641 1154.637, 23.641 1144.637, 23.641 1134.637, 23.640 1124.637, 23.640 1114.637, 23.640 1104.637, 23.640 1094.637, 23.639 1084.637, 23.639 1074.637, 23.639 1064.637, 23.638 1054.637, 23.638 1044.637, 23.638 1034.637, 23.637 1024.637, 23.637 1014.637, 23.637 1004.637, 23.636 994.637, 23.636 986.704, 23.636 " />
            <path fill="none" stroke-width="3.0" stroke-linecap="butt" stroke-opacity="1.0" stroke="rgb(0, 0, 0)" stroke-linejoin="round" d=" M 1335.555, 23.647 1335.108, 23.647 1334.784, 23.646 1334.766, 23.646 1334.760, 23.646 1334.747, 23.646 1334.637, 23.646 " />
            <path fill="none" stroke-width="3.0" stroke-linecap="butt" stroke-opacity="1.0" stroke="rgb(0, 0, 0)" stroke-linejoin="round" d=" M 1335.637, 23.647 1335.614, 23.647 1335.555, 23.647 " />
            <path fill="none" stroke-width="3.0" stroke-linecap="butt" stroke-opacity="1.0" stroke="rgb(0, 0, 0)" stroke-linejoin="round" d=" M 987.154, 23.636 997.154, 23.637 1007.154, 23.637 1017.154, 23.637 1022.835, 23.637 " />
            <path fill="none" stroke-width="3.0" stroke-linecap="butt" stroke-opacity="1.0" stroke="rgb(0, 0, 0)" stroke-linejoin="round" d=" M 1422.943, 468.578 1423.009, 465.928 " />
            <path fill="none" stroke-width="3.0" stroke-linecap="butt" stroke-opacity="1.0" stroke="rgb(0, 0, 0)" stroke-linejoin="round" d=" M 1428.206, 491.639 1427.116, 489.224 " />
            <path fill="none" stroke-width="3.0" stroke-linecap="butt" stroke-opacity="1.0" stroke="rgb(0, 0, 0)" stroke-linejoin="round" d=" M 1435.378, 502.743 1433.725, 500.671 " />
            <path fill="none" stroke-width="3.0" stroke-linecap="butt" stroke-opacity="1.0" stroke="rgb(0, 0, 0)" stroke-linejoin="round" d=" M 1437.131, 504.729 1435.378, 502.743 " />
            <path fill="none" stroke-width="3.0" stroke-linecap="butt" stroke-opacity="1.0" stroke="rgb(0, 0, 0)" stroke-linejoin="round" d=" M 1438.982, 506.627 1437.131, 504.729 " />
            <path fill="none" stroke-width="3.0" stroke-linecap="butt" stroke-opacity="1.0" stroke="rgb(0, 0, 0)" stroke-linejoin="round" d=" M 1466.864, 520.921 1464.266, 520.396 " />
            <path fill="none" stroke-width="3.0" stroke-linecap="butt" stroke-opacity="1.0" stroke="rgb(0, 0, 0)" stroke-linejoin="round" d=" M 1469.484, 521.316 1466.864, 520.921 " />
            <path fill="none" stroke-width="3.0" stroke-linecap="butt" stroke-opacity="1.0" stroke="rgb(0, 0, 0)" stroke-linejoin="round" d=" M 1472.122, 521.580 1469.484, 521.316 " />
            <path fill="none" stroke-width="3.0" stroke-linecap="butt" stroke-opacity="1.0" stroke="rgb(0, 0, 0)" stroke-linejoin="round" d=" M 1487.920, 520.396 1485.323, 520.921 " />
            <path fill="none" stroke-width="3.0" stroke-linecap="butt" stroke-opacity="1.0" stroke="rgb(0, 0, 0)" stroke-linejoin="round" d=" M 1490.489, 519.742 1487.920, 520.396 " />
            <path fill="none" stroke-width="3.0" stroke-linecap="butt" stroke-opacity="1.0" stroke="rgb(0, 0, 0)" stroke-linejoin="round" d=" M 1500.341, 515.875 1497.954, 517.025 " />
            <path fill="none" stroke-width="3.0" stroke-linecap="butt" stroke-opacity="1.0" stroke="rgb(0, 0, 0)" stroke-linejoin="round" d=" M 1516.809, 502.743 1515.055, 504.729 " />
            <path fill="none" stroke-width="3.0" stroke-linecap="butt" stroke-opacity="1.0" stroke="rgb(0, 0, 0)" stroke-linejoin="round" d=" M 1549.761, 23.653 1539.761, 23.653 1529.761, 23.652 1519.761, 23.652 1509.761, 23.652 1499.761, 23.651 1489.761, 23.651 1479.761, 23.651 1469.761, 23.651 1459.761, 23.650 1449.761, 23.650 1439.761, 23.650 1429.761, 23.649 1419.761, 23.649 1409.761, 23.649 1399.761, 23.648 1395.437, 23.648 1387.234, 23.648 1384.902, 23.648 1378.987, 23.648 1368.987, 23.647 1358.987, 23.647 1348.987, 23.647 1338.987, 23.646 1334.637, 23.646 " />
            <path fill="none" stroke-width="3.0" stroke-linecap="butt" stroke-opacity="1.0" stroke="rgb(0, 0, 0)" stroke-linejoin="round" d=" M 1335.108, 23.647 1345.108, 23.647 1355.108, 23.647 1365.108, 23.647 1375.108, 23.648 1385.108, 23.648 1395.108, 23.648 1405.108, 23.649 1415.108, 23.649 1425.108, 23.649 1435.108, 23.650 1445.108, 23.650 1455.108, 23.650 1465.108, 23.651 1475.108, 23.651 1485.108, 23.651 1495.108, 23.651 1505.108, 23.652 1515.108, 23.652 1525.108, 23.652 1535.108, 23.653 1537.883, 23.653 " />
            <path fill="none" stroke-width="3.0" stroke-linecap="butt" stroke-opacity="1.0" stroke="rgb(0, 0, 0)" stroke-linejoin="round" d=" M 986.839, 23.636 996.839, 23.636 1006.839, 23.637 1016.839, 23.637 1026.839, 23.637 1036.839, 23.638 1046.839, 23.638 1056.839, 23.638 1066.839, 23.639 1076.839, 23.639 1086.839, 23.639 1096.839, 23.639 1106.839, 23.640 1116.839, 23.640 1126.839, 23.640 1136.839, 23.641 1146.839, 23.641 1156.839, 23.641 1166.839, 23.641 1176.839, 23.642 1186.839, 23.642 1196.839, 23.642 1206.839, 23.643 1216.839, 23.643 1226.839, 23.643 1236.839, 23.644 1246.839, 23.644 1256.839, 23.644 1266.839, 23.645 1276.839, 23.645 1286.839, 23.645 1296.839, 23.646 1306.839, 23.646 1316.839, 23.646 1328.150, 23.646 " />
            <path fill="none" stroke-width="3.0" stroke-linecap="butt" stroke-opacity="1.0" stroke="rgb(0, 0, 0)" stroke-linejoin="round" d=" M 722.820, 23.628 732.820, 23.628 742.820, 23.629 752.820, 23.629 762.820, 23.629 772.820, 23.630 782.820, 23.630 792.820, 23.630 802.820, 23.630 812.820, 23.631 822.820, 23.631 832.820, 23.631 842.820, 23.632 852.820, 23.632 862.820, 23.632 872.820, 23.633 882.820, 23.633 892.820, 23.633 902.820, 23.634 912.820, 23.634 922.820, 23.634 932.820, 23.634 942.820, 23.635 952.820, 23.635 962.820, 23.635 972.820, 23.636 978.921, 23.636 " />
            <path fill="none" stroke-width="3.0" stroke-linecap="butt" stroke-opacity="1.0" stroke="rgb(0, 0, 0)" stroke-linejoin="round" d=" M 1426.834, 23.650 1416.834, 23.649 1412.888, 23.649 1402.888, 23.649 1399.562, 23.649 1392.448, 23.649 1390.340, 23.649 1387.247, 23.649 1377.247, 23.648 1367.247, 23.648 1359.851, 23.648 1352.476, 23.648 1342.476, 23.647 1336.212, 23.647 " />
            <path fill="none" stroke-width="3.0" stroke-linecap="butt" stroke-opacity="1.0" stroke="rgb(0, 0, 0)" stroke-linejoin="round" d=" M 1441.958, 23.650 1431.958, 23.650 1431.033, 23.650 1426.834, 23.650 " />
            <path fill="none" stroke-width="3.0" stroke-linecap="butt" stroke-opacity="1.0" stroke="rgb(0, 0, 0)" stroke-linejoin="round" d=" M 980.941, 23.636 970.941, 23.635 960.941, 23.635 950.941, 23.635 940.941, 23.635 930.941, 23.634 920.941, 23.634 910.941, 23.634 900.941, 23.633 890.941, 23.633 880.941, 23.633 870.941, 23.633 860.941, 23.632 850.941, 23.632 840.941, 23.632 830.941, 23.631 820.941, 23.631 810.941, 23.631 800.941, 23.630 790.941, 23.630 780.941, 23.630 770.941, 23.630 760.941, 23.629 750.941, 23.629 740.941, 23.629 730.941, 23.628 722.820, 23.628 " />
            <path fill="none" stroke-width="3.0" stroke-linecap="butt" stroke-opacity="1.0" stroke="rgb(0, 0, 0)" stroke-linejoin="round" d=" M 1332.924, 23.646 1322.924, 23.646 1312.924, 23.646 1302.924, 23.646 1292.924, 23.645 1282.924, 23.645 1272.924, 23.645 1262.924, 23.644 1252.924, 23.644 1242.924, 23.644 1232.924, 23.643 1222.924, 23.643 1212.924, 23.643 1202.924, 23.642 1192.924, 23.642 1182.924, 23.642 1172.924, 23.642 1162.924, 23.641 1152.924, 23.641 1142.924, 23.641 1132.924, 23.640 1122.924, 23.640 1112.924, 23.640 1102.924, 23.640 1092.924, 23.639 1082.924, 23.639 1072.924, 23.639 1062.924, 23.638 1052.924, 23.638 1042.924, 23.638 1032.924, 23.637 1022.924, 23.637 1012.924, 23.637 1002.924, 23.636 992.924, 23.636 986.740, 23.636 " />
            <path fill="none" stroke-width="3.0" stroke-linecap="butt" stroke-opacity="1.0" stroke="rgb(0, 0, 0)" stroke-linejoin="round" d=" M 1591.046, 23.654 1591.312, 23.654 " />
            <path fill="none" stroke-width="3.0" stroke-linecap="butt" stroke-opacity="1.0" stroke="rgb(0, 0, 0)" stroke-linejoin="round" d=" M 981.020, 23.636 971.020, 23.635 961.020, 23.635 951.020, 23.635 941.020, 23.635 931.020, 23.634 921.020, 23.634 911.020, 23.634 901.020, 23.633 891.020, 23.633 881.020, 23.633 871.020, 23.633 861.020, 23.632 851.020, 23.632 841.020, 23.632 831.020, 23.631 821.020, 23.631 811.020, 23.631 801.020, 23.630 791.020, 23.630 781.020, 23.630 771.020, 23.630 761.020, 23.629 751.020, 23.629 741.020, 23.629 731.020, 23.628 722.820, 23.628 " />
            <path fill="none" stroke-width="3.0" stroke-linecap="butt" stroke-opacity="1.0" stroke="rgb(0, 0, 0)" stroke-linejoin="round" d=" M 1333.112, 23.646 1323.112, 23.646 1313.112, 23.646 1303.112, 23.646 1293.112, 23.645 1283.112, 23.645 1273.112, 23.645 1263.112, 23.644 1253.112, 23.644 1243.112, 23.644 1233.112, 23.643 1223.112, 23.643 1213.112, 23.643 1203.112, 23.642 1193.112, 23.642 1183.112, 23.642 1173.112, 23.642 1163.112, 23.641 1153.112, 23.641 1143.112, 23.641 1133.112, 23.640 1123.112, 23.640 1113.112, 23.640 1103.112, 23.640 1093.112, 23.639 1083.112, 23.639 1073.112, 23.639 1063.112, 23.638 1053.112, 23.638 1043.112, 23.638 1033.112, 23.637 1023.112, 23.637 1013.112, 23.637 1003.112, 23.636 993.112, 23.636 986.736, 23.636 " />
            <path fill="none" stroke-width="3.0" stroke-linecap="butt" stroke-opacity="1.0" stroke="rgb(0, 0, 0)" stroke-linejoin="round" d=" M 1592.484, 23.655 1591.088, 23.654 1591.055, 23.654 1591.046, 23.654 " />
            <path fill="none" stroke-width="3.0" stroke-linecap="butt" stroke-opacity="1.0" stroke="rgb(0, 0, 0)" stroke-linejoin="round" d=" M 1592.632, 23.655 1592.591, 23.655 1592.484, 23.655 " />
            <path fill="none" stroke-width="3.0" stroke-linecap="butt" stroke-opacity="1.0" stroke="rgb(0, 0, 0)" stroke-linejoin="round" d=" M 1335.850, 23.647 1345.850, 23.647 1355.850, 23.648 1365.850, 23.648 1375.850, 23.648 1385.850, 23.648 1390.340, 23.649 " />
            <path fill="none" stroke-width="3.0" stroke-linecap="butt" stroke-opacity="1.0" stroke="rgb(0, 0, 0)" stroke-linejoin="round" d=" M 987.051, 23.636 997.051, 23.636 1007.051, 23.637 1017.051, 23.637 1027.051, 23.637 1037.051, 23.638 1047.051, 23.638 1057.051, 23.638 1067.051, 23.639 1077.051, 23.639 1087.051, 23.639 1093.492, 23.640 " />
            <path fill="none" stroke-width="3.0" stroke-linecap="butt" stroke-opacity="1.0" stroke="rgb(0, 0, 0)" stroke-linejoin="round" d=" M 722.820, 23.628 732.820, 23.628 742.820, 23.629 752.820, 23.629 762.820, 23.629 772.820, 23.630 782.820, 23.630 792.820, 23.630 802.820, 23.630 812.820, 23.631 822.820, 23.631 832.820, 23.631 842.820, 23.632 852.820, 23.632 862.820, 23.632 872.820, 23.633 882.820, 23.633 892.820, 23.633 902.820, 23.634 912.820, 23.634 922.820, 23.634 932.820, 23.635 942.820, 23.635 952.820, 23.635 962.820, 23.635 974.719, 23.636 " />
            <path fill="none" stroke-width="3.0" stroke-linecap="butt" stroke-opacity="1.0" stroke="rgb(0, 0, 0)" stroke-linejoin="round" d=" M 1592.908, 23.655 1592.866, 23.655 1592.761, 23.655 " />
            <path fill="none" stroke-width="3.0" stroke-linecap="butt" stroke-opacity="1.0" stroke="rgb(0, 0, 0)" stroke-linejoin="round" d=" M 1593.266, 23.655 1593.189, 23.655 1593.049, 23.655 1592.908, 23.655 " />
            <path fill="none" stroke-width="3.0" stroke-linecap="butt" stroke-opacity="1.0" stroke="rgb(0, 0, 0)" stroke-linejoin="round" d=" M 1592.994, 23.655 1593.266, 23.655 " />
            <path fill="none" stroke-width="3.0" stroke-linecap="butt" stroke-opacity="1.0" stroke="rgb(0, 0, 0)" stroke-linejoin="round" d=" M 1335.837, 23.647 1345.837, 23.647 1355.837, 23.648 1365.837, 23.648 1375.837, 23.648 1385.837, 23.648 1392.448, 23.649 " />
            <path fill="none" stroke-width="3.0" stroke-linecap="butt" stroke-opacity="1.0" stroke="rgb(0, 0, 0)" stroke-linejoin="round" d=" M 987.047, 23.636 997.047, 23.636 1007.047, 23.637 1017.047, 23.637 1027.047, 23.637 1037.047, 23.638 1047.047, 23.638 1057.047, 23.638 1067.047, 23.639 1077.047, 23.639 1087.047, 23.639 1096.632, 23.640 " />
            <path fill="none" stroke-width="3.0" stroke-linecap="butt" stroke-opacity="1.0" stroke="rgb(0, 0, 0)" stroke-linejoin="round" d=" M 722.820, 23.628 732.820, 23.628 742.820, 23.629 752.820, 23.629 762.820, 23.629 772.820, 23.630 782.820, 23.630 792.820, 23.630 802.820, 23.630 812.820, 23.631 822.820, 23.631 832.820, 23.631 842.820, 23.632 852.820, 23.632 862.820, 23.632 872.820, 23.633 882.820, 23.633 892.820, 23.633 902.820, 23.634 912.820, 23.634 922.820, 23.634 932.820, 23.635 942.820, 23.635 952.820, 23.635 962.820, 23.635 974.791, 23.636 " />
            <path fill="none" stroke-width="3.0" stroke-linecap="butt" stroke-opacity="1.0" stroke="rgb(0, 0, 0)" stroke-linejoin="round" d=" M 1593.266, 23.655 1593.017, 23.655 " />
            <path fill="none" stroke-width="3.0" stroke-linecap="butt" stroke-opacity="1.0" stroke="rgb(0, 0, 0)" stroke-linejoin="round" d=" M 1598.716, 23.655 1597.573, 23.655 1597.125, 23.655 " />
            <path fill="none" stroke-width="3.0" stroke-linecap="butt" stroke-opacity="1.0" stroke="rgb(0, 0, 0)" stroke-linejoin="round" d=" M 980.803, 23.636 970.803, 23.635 960.803, 23.635 950.803, 23.635 940.803, 23.635 930.803, 23.634 920.803, 23.634 910.803, 23.634 900.803, 23.633 890.803, 23.633 880.803, 23.633 870.803, 23.633 860.803, 23.632 850.803, 23.632 840.803, 23.632 830.803, 23.631 820.803, 23.631 810.803, 23.631 800.803, 23.630 790.803, 23.630 780.803, 23.630 770.803, 23.630 760.803, 23.629 750.803, 23.629 740.803, 23.629 730.803, 23.628 722.820, 23.628 " />
            <path fill="none" stroke-width="3.0" stroke-linecap="butt" stroke-opacity="1.0" stroke="rgb(0, 0, 0)" stroke-linejoin="round" d=" M 1332.599, 23.646 1322.599, 23.646 1312.599, 23.646 1302.599, 23.646 1292.599, 23.645 1282.599, 23.645 1272.599, 23.645 1262.599, 23.644 1252.599, 23.644 1242.599, 23.644 1232.599, 23.643 1222.599, 23.643 1212.599, 23.643 1202.599, 23.642 1192.599, 23.642 1182.599, 23.642 1172.599, 23.642 1162.599, 23.641 1152.599, 23.641 1142.599, 23.641 1132.599, 23.640 1122.599, 23.640 1112.599, 23.640 1102.599, 23.640 1092.599, 23.639 1082.599, 23.639 1072.599, 23.639 1062.599, 23.638 1052.599, 23.638 1042.599, 23.638 1032.599, 23.637 1022.599, 23.637 1012.599, 23.637 1002.599, 23.636 992.599, 23.636 986.746, 23.636 " />
            <path fill="none" stroke-width="3.0" stroke-linecap="butt" stroke-opacity="1.0" stroke="rgb(0, 0, 0)" stroke-linejoin="round" d=" M 1590.582, 23.654 1580.582, 23.654 1570.582, 23.654 1560.582, 23.653 1550.582, 23.653 1540.582, 23.653 1530.582, 23.652 1520.582, 23.652 1510.582, 23.652 1500.582, 23.651 1490.582, 23.651 1480.582, 23.651 1470.582, 23.651 1460.582, 23.650 1450.582, 23.650 1440.582, 23.650 1430.582, 23.649 1420.582, 23.649 1410.582, 23.649 1400.582, 23.648 1395.437, 23.648 1385.437, 23.648 1375.437, 23.648 1365.437, 23.647 1355.437, 23.647 1345.437, 23.647 1335.437, 23.646 1334.784, 23.646 " />
            <path fill="none" stroke-width="3.0" stroke-linecap="butt" stroke-opacity="1.0" stroke="rgb(0, 0, 0)" stroke-linejoin="round" d=" M 980.910, 23.636 970.910, 23.635 960.910, 23.635 950.910, 23.635 940.910, 23.635 930.910, 23.634 920.910, 23.634 910.910, 23.634 900.910, 23.633 890.910, 23.633 880.910, 23.633 870.910, 23.633 860.910, 23.632 850.910, 23.632 840.910, 23.632 830.910, 23.631 820.910, 23.631 810.910, 23.631 800.910, 23.630 790.910, 23.630 780.910, 23.630 770.910, 23.630 760.910, 23.629 750.910, 23.629 740.910, 23.629 730.910, 23.628 722.820, 23.628 " />
            <path fill="none" stroke-width="3.0" stroke-linecap="butt" stroke-opacity="1.0" stroke="rgb(0, 0, 0)" stroke-linejoin="round" d=" M 1332.851, 23.646 1322.851, 23.646 1312.851, 23.646 1302.851, 23.646 1292.851, 23.645 1282.851, 23.645 1272.851, 23.645 1262.851, 23.644 1252.851, 23.644 1242.851, 23.644 1232.851, 23.643 1222.851, 23.643 1212.851, 23.643 1202.851, 23.642 1192.851, 23.642 1182.851, 23.642 1172.851, 23.642 1162.851, 23.641 1152.851, 23.641 1142.851, 23.641 1132.851, 23.640 1122.851, 23.640 1112.851, 23.640 1102.851, 23.640 1092.851, 23.639 1082.851, 23.639 1072.851, 23.639 1062.851, 23.638 1052.851, 23.638 1042.851, 23.638 1032.851, 23.637 1022.851, 23.637 1012.851, 23.637 1002.851, 23.636 992.851, 23.636 986.741, 23.636 " />
            <path fill="none" stroke-width="3.0" stroke-linecap="butt" stroke-opacity="1.0" stroke="rgb(0, 0, 0)" stroke-linejoin="round" d=" M 1590.942, 23.654 1580.942, 23.654 1570.942, 23.654 1560.942, 23.653 1550.942, 23.653 1540.942, 23.653 1530.942, 23.652 1520.942, 23.652 1510.942, 23.652 1500.942, 23.651 1490.942, 23.651 1480.942, 23.651 1470.942, 23.651 1460.942, 23.650 1450.942, 23.650 1440.942, 23.650 1430.942, 23.649 1420.942, 23.649 1410.942, 23.649 1400.942, 23.648 1390.942, 23.648 1387.234, 23.648 1377.234, 23.648 1367.234, 23.647 1357.234, 23.647 1347.234, 23.647 1337.234, 23.646 1334.766, 23.646 " />
            <path fill="none" stroke-width="3.0" stroke-linecap="butt" stroke-opacity="1.0" stroke="rgb(0, 0, 0)" stroke-linejoin="round" d=" M 1335.869, 23.647 1345.869, 23.647 1355.869, 23.648 1365.869, 23.648 1375.869, 23.648 1385.869, 23.648 1387.247, 23.649 " />
            <path fill="none" stroke-width="3.0" stroke-linecap="butt" stroke-opacity="1.0" stroke="rgb(0, 0, 0)" stroke-linejoin="round" d=" M 987.056, 23.636 997.056, 23.636 1007.056, 23.637 1017.056, 23.637 1027.056, 23.637 1037.056, 23.638 1047.056, 23.638 1057.056, 23.638 1067.056, 23.639 1077.056, 23.639 1087.056, 23.639 1088.943, 23.639 " />
            <path fill="none" stroke-width="3.0" stroke-linecap="butt" stroke-opacity="1.0" stroke="rgb(0, 0, 0)" stroke-linejoin="round" d=" M 722.820, 23.628 732.820, 23.628 742.820, 23.629 752.820, 23.629 762.820, 23.629 772.820, 23.630 782.820, 23.630 792.820, 23.630 802.820, 23.630 812.820, 23.631 822.820, 23.631 832.820, 23.631 842.820, 23.632 852.820, 23.632 862.820, 23.632 872.820, 23.633 882.820, 23.633 892.820, 23.633 902.820, 23.634 912.820, 23.634 922.820, 23.634 932.820, 23.635 942.820, 23.635 952.820, 23.635 962.820, 23.635 974.613, 23.636 " />
            <path fill="none" stroke-width="3.0" stroke-linecap="butt" stroke-opacity="1.0" stroke="rgb(0, 0, 0)" stroke-linejoin="round" d=" M 976.038, 23.636 966.038, 23.635 956.038, 23.635 946.038, 23.635 936.038, 23.635 926.038, 23.634 916.038, 23.634 906.038, 23.634 896.038, 23.633 886.038, 23.633 876.038, 23.633 866.038, 23.632 856.038, 23.632 846.038, 23.632 836.038, 23.632 826.038, 23.631 816.038, 23.631 806.038, 23.631 796.038, 23.630 786.038, 23.630 776.038, 23.630 766.038, 23.629 756.038, 23.629 746.038, 23.629 736.038, 23.629 726.038, 23.628 722.820, 23.628 " />
            <path fill="none" stroke-width="3.0" stroke-linecap="butt" stroke-opacity="1.0" stroke="rgb(0, 0, 0)" stroke-linejoin="round" d=" M 1160.630, 23.641 1150.630, 23.641 1140.630, 23.641 1130.630, 23.641 1120.630, 23.640 1110.630, 23.640 1100.630, 23.640 1090.630, 23.639 1080.630, 23.639 1070.630, 23.639 1060.630, 23.638 1050.630, 23.638 1040.630, 23.638 1030.630, 23.637 1020.630, 23.637 1010.630, 23.637 1000.630, 23.637 990.630, 23.636 986.984, 23.636 " />
            <path fill="none" stroke-width="3.0" stroke-linecap="butt" stroke-opacity="1.0" stroke="rgb(0, 0, 0)" stroke-linejoin="round" d=" M 1431.033, 23.650 1421.033, 23.649 1411.033, 23.649 1401.033, 23.649 1391.033, 23.649 1381.033, 23.648 1371.033, 23.648 1361.033, 23.648 1351.033, 23.647 1341.033, 23.647 1335.614, 23.647 " />
            <path fill="none" stroke-width="3.0" stroke-linecap="butt" stroke-opacity="1.0" stroke="rgb(0, 0, 0)" stroke-linejoin="round" d=" M 1597.573, 23.655 1592.866, 23.655 1592.591, 23.655 " />
            <path fill="none" stroke-width="3.0" stroke-linecap="butt" stroke-opacity="1.0" stroke="rgb(0, 0, 0)" stroke-linejoin="round" d=" M 2010.018, 23.667 2000.018, 23.667 1990.018, 23.667 1980.018, 23.667 1970.018, 23.666 1960.018, 23.666 1958.637, 23.666 " />
            <path fill="none" stroke-width="3.0" stroke-linecap="butt" stroke-opacity="1.0" stroke="rgb(0, 0, 0)" stroke-linejoin="round" d=" M 1592.916, 23.655 1593.189, 23.655 1594.094, 23.655 " />
            <path fill="none" stroke-width="3.0" stroke-linecap="butt" stroke-opacity="1.0" stroke="rgb(0, 0, 0)" stroke-linejoin="round" d=" M 1335.794, 23.647 1345.794, 23.647 1355.794, 23.648 1365.794, 23.648 1375.794, 23.648 1385.794, 23.648 1395.794, 23.649 1399.562, 23.649 " />
            <path fill="none" stroke-width="3.0" stroke-linecap="butt" stroke-opacity="1.0" stroke="rgb(0, 0, 0)" stroke-linejoin="round" d=" M 987.035, 23.636 997.035, 23.636 1007.035, 23.637 1017.035, 23.637 1027.035, 23.637 1037.035, 23.638 1047.035, 23.638 1057.035, 23.638 1067.035, 23.639 1077.035, 23.639 1087.035, 23.639 1097.035, 23.640 1107.482, 23.640 " />
            <path fill="none" stroke-width="3.0" stroke-linecap="butt" stroke-opacity="1.0" stroke="rgb(0, 0, 0)" stroke-linejoin="round" d=" M 722.820, 23.628 732.820, 23.628 742.820, 23.629 752.820, 23.629 762.820, 23.629 772.820, 23.630 782.820, 23.630 792.820, 23.630 802.820, 23.630 812.820, 23.631 822.820, 23.631 832.820, 23.631 842.820, 23.632 852.820, 23.632 862.820, 23.632 872.820, 23.633 882.820, 23.633 892.820, 23.633 902.820, 23.634 912.820, 23.634 922.820, 23.634 932.820, 23.635 942.820, 23.635 952.820, 23.635 962.820, 23.635 975.030, 23.636 " />
            <path fill="none" stroke-width="3.0" stroke-linecap="butt" stroke-opacity="1.0" stroke="rgb(0, 0, 0)" stroke-linejoin="round" d=" M 1592.775, 23.655 1593.049, 23.655 1595.602, 23.655 " />
            <path fill="none" stroke-width="3.0" stroke-linecap="butt" stroke-opacity="1.0" stroke="rgb(0, 0, 0)" stroke-linejoin="round" d=" M 1335.716, 23.647 1345.716, 23.647 1355.716, 23.647 1365.716, 23.648 1375.716, 23.648 1385.716, 23.648 1395.716, 23.649 1405.716, 23.649 1412.888, 23.649 " />
            <path fill="none" stroke-width="3.0" stroke-linecap="butt" stroke-opacity="1.0" stroke="rgb(0, 0, 0)" stroke-linejoin="round" d=" M 987.013, 23.636 997.013, 23.636 1007.013, 23.637 1017.013, 23.637 1027.013, 23.637 1037.013, 23.638 1047.013, 23.638 1057.013, 23.638 1067.013, 23.639 1077.013, 23.639 1087.013, 23.639 1097.013, 23.640 1107.013, 23.640 1117.013, 23.640 1127.013, 23.641 1128.904, 23.641 " />
            <path fill="none" stroke-width="3.0" stroke-linecap="butt" stroke-opacity="1.0" stroke="rgb(0, 0, 0)" stroke-linejoin="round" d=" M 722.820, 23.628 732.820, 23.628 742.820, 23.629 752.820, 23.629 762.820, 23.629 772.820, 23.630 782.820, 23.630 792.820, 23.630 802.820, 23.630 812.820, 23.631 822.820, 23.631 832.820, 23.631 842.820, 23.632 852.820, 23.632 862.820, 23.632 872.820, 23.633 882.820, 23.633 892.820, 23.633 902.820, 23.634 912.820, 23.634 922.820, 23.634 932.820, 23.635 942.820, 23.635 952.820, 23.635 962.820, 23.635 972.820, 23.636 975.467, 23.636 " />
            <path fill="none" stroke-width="3.0" stroke-linecap="butt" stroke-opacity="1.0" stroke="rgb(0, 0, 0)" stroke-linejoin="round" d=" M 975.908, 23.636 965.908, 23.635 955.908, 23.635 945.908, 23.635 935.908, 23.635 925.908, 23.634 915.908, 23.634 905.908, 23.634 895.908, 23.633 885.908, 23.633 875.908, 23.633 865.908, 23.632 855.908, 23.632 845.908, 23.632 835.908, 23.632 825.908, 23.631 815.908, 23.631 805.908, 23.631 795.908, 23.630 785.908, 23.630 775.908, 23.630 765.908, 23.629 755.908, 23.629 745.908, 23.629 735.908, 23.629 725.908, 23.628 722.820, 23.628 " />
            <path fill="none" stroke-width="3.0" stroke-linecap="butt" stroke-opacity="1.0" stroke="rgb(0, 0, 0)" stroke-linejoin="round" d=" M 1153.006, 23.641 1143.006, 23.641 1133.006, 23.641 1123.006, 23.640 1113.006, 23.640 1103.006, 23.640 1093.006, 23.639 1083.006, 23.639 1073.006, 23.639 1063.006, 23.639 1053.006, 23.638 1043.006, 23.638 1033.006, 23.638 1023.006, 23.637 1013.006, 23.637 1003.006, 23.637 993.006, 23.636 986.990, 23.636 " />
            <path fill="none" stroke-width="3.0" stroke-linecap="butt" stroke-opacity="1.0" stroke="rgb(0, 0, 0)" stroke-linejoin="round" d=" M 1426.834, 23.650 1416.834, 23.649 1406.834, 23.649 1396.834, 23.649 1386.834, 23.648 1376.834, 23.648 1366.834, 23.648 1356.834, 23.647 1346.834, 23.647 1336.834, 23.647 1335.637, 23.647 " />
            <path fill="none" stroke-width="3.0" stroke-linecap="butt" stroke-opacity="1.0" stroke="rgb(0, 0, 0)" stroke-linejoin="round" d=" M 1597.125, 23.655 1592.908, 23.655 1592.632, 23.655 " />
            <path fill="none" stroke-width="3.0" stroke-linecap="butt" stroke-opacity="1.0" stroke="rgb(0, 0, 0)" stroke-linejoin="round" d=" M 2126.310, 23.671 2116.310, 23.671 2106.310, 23.670 2096.310, 23.670 2086.310, 23.670 2076.310, 23.670 2066.310, 23.669 2056.310, 23.669 2046.310, 23.669 2036.310, 23.668 2026.310, 23.668 2016.310, 23.668 2010.018, 23.667 " />
            <path fill="none" stroke-width="3.0" stroke-linecap="butt" stroke-opacity="1.0" stroke="rgb(0, 0, 0)" stroke-linejoin="round" d=" M 975.908, 23.636 965.908, 23.635 955.908, 23.635 945.908, 23.635 935.908, 23.635 925.908, 23.634 915.908, 23.634 905.908, 23.634 895.908, 23.633 885.908, 23.633 875.908, 23.633 865.908, 23.632 855.908, 23.632 845.908, 23.632 835.908, 23.632 825.908, 23.631 815.908, 23.631 805.908, 23.631 795.908, 23.630 785.908, 23.630 775.908, 23.630 765.908, 23.629 755.908, 23.629 745.908, 23.629 735.908, 23.629 725.908, 23.628 722.820, 23.628 " />
            <path fill="none" stroke-width="3.0" stroke-linecap="butt" stroke-opacity="1.0" stroke="rgb(0, 0, 0)" stroke-linejoin="round" d=" M 1153.006, 23.641 1143.006, 23.641 1133.006, 23.641 1123.006, 23.640 1113.006, 23.640 1103.006, 23.640 1093.006, 23.639 1083.006, 23.639 1073.006, 23.639 1063.006, 23.639 1053.006, 23.638 1043.006, 23.638 1033.006, 23.638 1023.006, 23.637 1013.006, 23.637 1003.006, 23.637 993.006, 23.636 986.990, 23.636 " />
            <path fill="none" stroke-width="3.0" stroke-linecap="butt" stroke-opacity="1.0" stroke="rgb(0, 0, 0)" stroke-linejoin="round" d=" M 1426.834, 23.650 1416.834, 23.649 1406.834, 23.649 1396.834, 23.649 1386.834, 23.648 1376.834, 23.648 1366.834, 23.648 1356.834, 23.647 1346.834, 23.647 1336.834, 23.647 1335.637, 23.647 " />
            <path fill="none" stroke-width="3.0" stroke-linecap="butt" stroke-opacity="1.0" stroke="rgb(0, 0, 0)" stroke-linejoin="round" d=" M 1597.125, 23.655 1592.908, 23.655 1592.632, 23.655 " />
            <path fill="none" stroke-width="3.0" stroke-linecap="butt" stroke-opacity="1.0" stroke="rgb(0, 0, 0)" stroke-linejoin="round" d=" M 2126.310, 23.671 2116.310, 23.671 2106.310, 23.670 2096.310, 23.670 2086.310, 23.670 2076.310, 23.670 2066.310, 23.669 2056.310, 23.669 2046.310, 23.669 2036.310, 23.668 2026.310, 23.668 2016.310, 23.668 2010.018, 23.667 " />
            <path fill="none" stroke-width="3.0" stroke-linecap="butt" stroke-opacity="1.0" stroke="rgb(0, 0, 0)" stroke-linejoin="round" d=" M 2127.838, 23.672 2126.310, 23.671 " />
            <path fill="none" stroke-width="3.0" stroke-linecap="butt" stroke-opacity="1.0" stroke="rgb(0, 0, 0)" stroke-linejoin="round" d=" M 2128.771, 23.672 2128.026, 23.672 2127.838, 23.672 2126.310, 23.671 " />
            <path fill="none" stroke-width="3.0" stroke-linecap="butt" stroke-opacity="1.0" stroke="rgb(0, 0, 0)" stroke-linejoin="round" d=" M 987.178, 23.636 997.178, 23.637 1007.178, 23.637 1010.172, 23.637 " />
            <path fill="none" stroke-width="3.0" stroke-linecap="butt" stroke-opacity="1.0" stroke="rgb(0, 0, 0)" stroke-linejoin="round" d=" M 2218.988, 23.674 2228.988, 23.675 2238.988, 23.675 2248.988, 23.675 2258.988, 23.675 2268.988, 23.676 2278.988, 23.676 2288.988, 23.676 2298.988, 23.677 2308.988, 23.677 2318.988, 23.677 2328.988, 23.677 2338.988, 23.678 2348.988, 23.678 2358.988, 23.678 2368.988, 23.679 2378.988, 23.679 2388.988, 23.679 2398.988, 23.680 2408.988, 23.680 2418.988, 23.680 2428.988, 23.680 2438.988, 23.681 2448.988, 23.681 2458.988, 23.681 2470.742, 23.682 " />
            <path fill="none" stroke-width="3.0" stroke-linecap="butt" stroke-opacity="1.0" stroke="rgb(0, 0, 0)" stroke-linejoin="round" d=" M 976.369, 23.636 966.369, 23.635 956.369, 23.635 946.369, 23.635 936.369, 23.635 926.369, 23.634 916.368, 23.634 906.369, 23.634 896.369, 23.633 886.369, 23.633 876.369, 23.633 866.368, 23.632 856.368, 23.632 846.368, 23.632 836.369, 23.632 826.368, 23.631 816.369, 23.631 806.368, 23.631 796.369, 23.630 786.368, 23.630 776.368, 23.630 766.368, 23.629 756.368, 23.629 746.368, 23.629 736.368, 23.629 726.368, 23.628 722.820, 23.628 " />
            <path fill="none" stroke-width="3.0" stroke-linecap="butt" stroke-opacity="1.0" stroke="rgb(0, 0, 0)" stroke-linejoin="round" d=" M 1181.325, 23.642 1171.325, 23.642 1161.325, 23.641 1151.325, 23.641 1141.325, 23.641 1131.325, 23.641 1121.325, 23.640 1111.325, 23.640 1101.325, 23.640 1091.325, 23.639 1081.325, 23.639 1071.325, 23.639 1061.325, 23.638 1051.325, 23.638 1041.325, 23.638 1031.325, 23.637 1021.325, 23.637 1011.325, 23.637 1001.325, 23.637 991.325, 23.636 986.967, 23.636 " />
            <path fill="none" stroke-width="3.0" stroke-linecap="butt" stroke-opacity="1.0" stroke="rgb(0, 0, 0)" stroke-linejoin="round" d=" M 1441.958, 23.650 1431.958, 23.650 1421.958, 23.649 1411.958, 23.649 1401.958, 23.649 1391.958, 23.649 1381.958, 23.648 1371.958, 23.648 1361.958, 23.648 1351.958, 23.647 1341.958, 23.647 1335.555, 23.647 " />
            <path fill="none" stroke-width="3.0" stroke-linecap="butt" stroke-opacity="1.0" stroke="rgb(0, 0, 0)" stroke-linejoin="round" d=" M 1598.716, 23.655 1592.761, 23.655 1592.484, 23.655 " />
            <path fill="none" stroke-width="3.0" stroke-linecap="butt" stroke-opacity="1.0" stroke="rgb(0, 0, 0)" stroke-linejoin="round" d=" M 976.369, 23.636 966.369, 23.635 956.369, 23.635 946.369, 23.635 936.369, 23.635 926.369, 23.634 916.368, 23.634 906.369, 23.634 896.369, 23.633 886.369, 23.633 876.369, 23.633 866.368, 23.632 856.368, 23.632 846.368, 23.632 836.369, 23.632 826.368, 23.631 816.369, 23.631 806.368, 23.631 796.369, 23.630 786.368, 23.630 776.368, 23.630 766.368, 23.629 756.368, 23.629 746.368, 23.629 736.368, 23.629 726.368, 23.628 722.820, 23.628 " />
            <path fill="none" stroke-width="3.0" stroke-linecap="butt" stroke-opacity="1.0" stroke="rgb(0, 0, 0)" stroke-linejoin="round" d=" M 1181.325, 23.642 1171.325, 23.642 1161.325, 23.641 1151.325, 23.641 1141.325, 23.641 1131.325, 23.641 1121.325, 23.640 1111.325, 23.640 1101.325, 23.640 1091.325, 23.639 1081.325, 23.639 1071.325, 23.639 1061.325, 23.638 1051.325, 23.638 1041.325, 23.638 1031.325, 23.637 1021.325, 23.637 1011.325, 23.637 1001.325, 23.637 991.325, 23.636 986.967, 23.636 " />
            <path fill="none" stroke-width="3.0" stroke-linecap="butt" stroke-opacity="1.0" stroke="rgb(0, 0, 0)" stroke-linejoin="round" d=" M 1441.958, 23.650 1431.958, 23.650 1421.958, 23.649 1411.958, 23.649 1401.958, 23.649 1391.958, 23.649 1381.958, 23.648 1371.958, 23.648 1361.958, 23.648 1351.958, 23.647 1341.958, 23.647 1335.555, 23.647 " />
            <path fill="none" stroke-width="3.0" stroke-linecap="butt" stroke-opacity="1.0" stroke="rgb(0, 0, 0)" stroke-linejoin="round" d=" M 1598.716, 23.655 1592.761, 23.655 1592.484, 23.655 " />
            <path fill="none" stroke-width="3.0" stroke-linecap="butt" stroke-opacity="1.0" stroke="rgb(0, 0, 0)" stroke-linejoin="round" d=" M 2474.612, 23.682 2464.612, 23.681 2454.612, 23.681 2444.612, 23.681 2434.612, 23.680 2424.612, 23.680 2414.612, 23.680 2404.612, 23.679 2394.612, 23.679 2384.612, 23.679 2374.612, 23.679 2364.612, 23.678 2354.612, 23.678 2344.612, 23.678 2334.612, 23.677 2324.612, 23.677 2314.612, 23.677 2304.612, 23.676 2294.612, 23.676 2284.612, 23.676 2274.612, 23.676 2264.612, 23.675 2254.612, 23.675 2244.612, 23.675 2234.612, 23.674 2224.612, 23.674 2214.612, 23.674 2204.612, 23.673 2194.612, 23.673 2184.612, 23.673 2174.612, 23.672 2164.612, 23.672 2154.612, 23.672 2144.612, 23.672 2134.612, 23.671 2124.612, 23.671 2114.612, 23.671 2104.612, 23.670 2094.612, 23.670 2084.612, 23.670 2074.612, 23.669 2064.612, 23.669 2054.612, 23.669 2044.612, 23.668 2034.612, 23.668 2024.612, 23.668 2014.612, 23.668 2004.612, 23.667 1994.612, 23.667 1984.612, 23.667 1974.612, 23.666 1964.612, 23.666 1958.637, 23.666 " />
            <path fill="none" stroke-width="3.0" stroke-linecap="butt" stroke-opacity="1.0" stroke="rgb(0, 0, 0)" stroke-linejoin="round" d=" M 2476.556, 23.682 2476.375, 23.682 2474.612, 23.682 " />
            <path fill="none" stroke-width="3.0" stroke-linecap="butt" stroke-opacity="1.0" stroke="rgb(0, 0, 0)" stroke-linejoin="round" d=" M 2128.026, 23.672 2138.026, 23.672 2148.026, 23.672 2158.026, 23.672 2168.026, 23.673 2178.026, 23.673 2188.026, 23.673 2191.760, 23.673 " />
            <path fill="none" stroke-width="3.0" stroke-linecap="butt" stroke-opacity="1.0" stroke="rgb(0, 0, 0)" stroke-linejoin="round" d=" M 1336.096, 23.647 1346.096, 23.647 1352.476, 23.648 " />
            <path fill="none" stroke-width="3.0" stroke-linecap="butt" stroke-opacity="1.0" stroke="rgb(0, 0, 0)" stroke-linejoin="round" d=" M 987.121, 23.636 997.121, 23.637 1007.121, 23.637 1017.121, 23.637 1027.121, 23.637 1037.121, 23.638 1042.229, 23.638 " />
            <path fill="none" stroke-width="3.0" stroke-linecap="butt" stroke-opacity="1.0" stroke="rgb(0, 0, 0)" stroke-linejoin="round" d=" M 722.820, 23.628 732.820, 23.628 742.820, 23.629 752.820, 23.629 762.820, 23.629 772.820, 23.630 782.820, 23.630 792.820, 23.630 802.820, 23.631 812.820, 23.631 822.820, 23.631 832.820, 23.631 842.820, 23.632 852.820, 23.632 862.820, 23.632 872.820, 23.633 882.820, 23.633 892.820, 23.633 902.820, 23.634 912.820, 23.634 922.820, 23.634 932.820, 23.635 942.820, 23.635 952.820, 23.635 962.820, 23.635 973.353, 23.636 " />
            <path fill="none" stroke-width="3.0" stroke-linecap="butt" stroke-opacity="1.0" stroke="rgb(0, 0, 0)" stroke-linejoin="round" d=" M 973.631, 23.636 963.631, 23.635 953.631, 23.635 943.631, 23.635 933.631, 23.635 923.631, 23.634 913.631, 23.634 903.631, 23.634 893.631, 23.633 883.631, 23.633 873.631, 23.633 863.631, 23.632 853.631, 23.632 843.631, 23.632 833.631, 23.631 823.631, 23.631 813.631, 23.631 803.631, 23.631 793.631, 23.630 783.631, 23.630 773.631, 23.630 763.631, 23.629 753.631, 23.629 743.631, 23.629 733.631, 23.628 722.820, 23.628 " />
            <path fill="none" stroke-width="3.0" stroke-linecap="butt" stroke-opacity="1.0" stroke="rgb(0, 0, 0)" stroke-linejoin="round" d=" M 1051.506, 23.638 1041.506, 23.638 1031.506, 23.638 1021.507, 23.637 1011.507, 23.637 1001.507, 23.637 991.507, 23.636 987.107, 23.636 " />
            <path fill="none" stroke-width="3.0" stroke-linecap="butt" stroke-opacity="1.0" stroke="rgb(0, 0, 0)" stroke-linejoin="round" d=" M 1359.851, 23.648 1349.851, 23.647 1339.851, 23.647 1336.046, 23.647 " />
            <path fill="none" stroke-width="3.0" stroke-linecap="butt" stroke-opacity="1.0" stroke="rgb(0, 0, 0)" stroke-linejoin="round" d=" M 2218.988, 23.674 2208.988, 23.674 2198.988, 23.674 2188.988, 23.673 2178.988, 23.673 2168.988, 23.673 2158.988, 23.672 2148.988, 23.672 2138.988, 23.672 2128.988, 23.672 2127.838, 23.672 " />
            <path fill="none" stroke-width="3.0" stroke-linecap="butt" stroke-opacity="1.0" stroke="rgb(0, 0, 0)" stroke-linejoin="round" d=" M 3007.201, 301.969 3004.026, 292.486 3000.851, 283.004 2997.676, 273.521 2994.500, 264.039 2991.325, 254.556 2988.150, 245.074 2984.974, 235.591 2981.799, 226.109 2978.624, 216.626 2975.448, 207.144 2972.273, 197.661 2969.098, 188.179 2965.923, 178.696 2962.747, 169.214 2959.572, 159.731 2956.397, 150.249 2953.221, 140.766 2950.046, 131.284 2946.871, 121.802 2943.442, 111.561 " />
            <path fill="none" stroke-width="3.0" stroke-linecap="butt" stroke-opacity="1.0" stroke="rgb(0, 0, 0)" stroke-linejoin="round" d=" M 3114.906, 565.660 3111.124, 556.402 3107.343, 547.144 3103.562, 537.887 3099.781, 528.629 3095.999, 519.372 3092.218, 510.114 3088.437, 500.857 3084.656, 491.599 3080.875, 482.342 3077.093, 473.084 3073.312, 463.826 3069.531, 454.569 3065.750, 445.311 3061.968, 436.054 3058.187, 426.796 3054.406, 417.539 3050.625, 408.281 3046.843, 399.024 3043.062, 389.766 3039.281, 380.508 3035.500, 371.251 3031.719, 361.993 3027.937, 352.736 3024.156, 343.478 3020.375, 334.221 3016.594, 324.963 3012.812, 315.706 3009.031, 306.448 3007.201, 301.969 " />
            <path fill="none" stroke-width="3.0" stroke-linecap="butt" stroke-opacity="1.0" stroke="rgb(0, 0, 0)" stroke-linejoin="round" d=" M 3218.518, 1014.431 3215.579, 1004.873 3212.640, 995.314 3209.702, 985.756 3206.763, 976.197 3203.825, 966.639 3200.886, 957.080 3197.948, 947.522 3195.009, 937.963 3192.071, 928.405 3189.132, 918.846 3186.193, 909.288 3183.255, 899.729 3180.316, 890.171 3177.378, 880.612 3174.439, 871.054 3171.501, 861.495 3168.562, 851.937 3165.624, 842.378 3162.685, 832.820 3159.746, 823.261 3156.808, 813.703 3153.869, 804.144 3150.931, 794.586 3147.992, 785.027 3145.054, 775.469 3142.115, 765.910 3139.177, 756.352 3136.238, 746.793 3133.299, 737.235 3130.128, 726.918 " />
            <path fill="none" stroke-width="3.0" stroke-linecap="butt" stroke-opacity="1.0" stroke="rgb(0, 0, 0)" stroke-linejoin="round" d=" M 215.845, 1809.383 209.357, 1809.383 199.357, 1809.383 189.357, 1809.383 179.357, 1809.383 169.357, 1809.383 159.357, 1809.382 149.357, 1809.382 139.357, 1809.382 129.357, 1809.382 119.357, 1809.382 109.357, 1809.382 99.357, 1809.382 89.357, 1809.382 79.357, 1809.382 69.357, 1809.382 59.357, 1809.382 49.357, 1809.382 39.357, 1809.382 29.357, 1809.382 23.752, 1809.382 " />
            <path fill="none" stroke-width="3.0" stroke-linecap="butt" stroke-opacity="1.0" stroke="rgb(0, 0, 0)" stroke-linejoin="round" d=" M 3402.269, 1809.383 3398.792, 1800.007 3395.314, 1790.631 3391.837, 1781.255 3388.359, 1771.879 3384.882, 1762.504 3381.405, 1753.128 3377.927, 1743.752 3374.450, 1734.376 3370.973, 1725.000 3367.495, 1715.624 3364.018, 1706.248 3360.541, 1696.872 3357.063, 1687.496 3353.586, 1678.120 3350.109, 1668.744 3346.631, 1659.368 3343.154, 1649.992 3339.677, 1640.616 3336.199, 1631.240 3332.722, 1621.865 3329.245, 1612.489 3325.767, 1603.113 3322.290, 1593.737 3318.812, 1584.361 3315.335, 1574.985 3311.858, 1565.609 3308.380, 1556.233 3304.903, 1546.857 3301.426, 1537.481 3297.948, 1528.105 3296.713, 1524.773 " />
        </g>
    </g>
<g id="slice-labels"><text x="586.8381666666666" y="470.06675" text-anchor="middle" dominant-baseline="middle" font-family="Arial, sans-serif" font-size="59.05626145857153" font-weight="bold" fill="black" stroke="none" stroke-width="7.086751375028582" paint-order="stroke fill">Slice42 (Back)</text><text x="1713.0104999999999" y="470.06675" text-anchor="middle" dominant-baseline="middle" font-family="Arial, sans-serif" font-size="59.05626145857153" font-weight="bold" fill="black" stroke="none" stroke-width="7.086751375028582" paint-order="stroke fill">Slice42 (Back)</text><text x="2839.1828333333333" y="470.06675" text-anchor="middle" dominant-baseline="middle" font-family="Arial, sans-serif" font-size="59.05626145857153" font-weight="bold" fill="black" stroke="none" stroke-width="7.086751375028582" paint-order="stroke fill">Slice42 (Back)</text><text x="586.8381666666666" y="1362.94425" text-anchor="middle" dominant-baseline="middle" font-family="Arial, sans-serif" font-size="59.05626145857153" font-weight="bold" fill="black" stroke="none" stroke-width="7.086751375028582" paint-order="stroke fill">Slice42 (Back)</text><text x="1713.0104999999999" y="1362.94425" text-anchor="middle" dominant-baseline="middle" font-family="Arial, sans-serif" font-size="59.05626145857153" font-weight="bold" fill="black" stroke="none" stroke-width="7.086751375028582" paint-order="stroke fill">Slice42 (Back)</text><text x="2839.1828333333333" y="1362.94425" text-anchor="middle" dominant-baseline="middle" font-family="Arial, sans-serif" font-size="59.05626145857153" font-weight="bold" fill="black" stroke="none" stroke-width="7.086751375028582" paint-order="stroke fill">Slice42 (Back)</text></g></svg>