<?xml version='1.0' encoding='utf-8'?>
<svg xmlns="http://www.w3.org/2000/svg" xmlns:inkscape="http://www.inkscape.org/namespaces/inkscape" version="1.1" width="253.86273050308228mm" height="160.74489736557007mm" viewBox="-0.5255013408899494 0.005500398769004988 2999.07100268178 1898.9999992024618" preserveAspectRatio="none">
    <g id="ViewLayer_LineSet" inkscape:groupmode="lineset" inkscape:label="ViewLayer_LineSet">
        <g inkscape:groupmode="layer" id="strokes" inkscape:label="strokes">
            <path fill="none" stroke-width="3.0" stroke-linecap="butt" stroke-opacity="1.0" stroke="rgb(0, 0, 0)" stroke-linejoin="round" d=" M 861.131, 1329.065 858.484, 1328.933 855.846, 1328.669 853.225, 1328.274 850.627, 1327.748 848.058, 1327.094 845.525, 1326.313 843.034, 1325.406 840.591, 1324.377 838.203, 1323.226 835.875, 1321.959 833.614, 1320.577 831.423, 1319.083 829.310, 1317.483 827.280, 1315.779 825.337, 1313.976 823.486, 1312.079 821.732, 1310.091 820.079, 1308.019 818.532, 1305.866 817.094, 1303.640 815.768, 1301.345 814.559, 1298.985 813.469, 1296.569 812.500, 1294.102 811.656, 1291.589 810.938, 1289.038 810.348, 1286.453 809.888, 1283.842 809.559, 1281.213 809.360, 1278.570 809.294, 1275.920 809.360, 1273.269 809.559, 1270.626 809.888, 1267.996 810.348, 1265.386 810.938, 1262.802 811.656, 1260.250 812.500, 1257.737 813.469, 1255.269 814.559, 1252.854 815.768, 1250.494 817.094, 1248.199 818.532, 1245.972 820.079, 1243.820 821.732, 1241.747 823.486, 1239.760 825.337, 1237.862 827.280, 1236.060 829.310, 1234.356 831.423, 1232.755 833.614, 1231.262 835.875, 1229.880 838.203, 1228.612 840.591, 1227.462 843.034, 1226.432 845.525, 1225.526 848.058, 1224.745 850.627, 1224.091 853.225, 1223.565 855.846, 1223.170 858.484, 1222.906 861.131, 1222.775 861.131, 1222.775 863.782, 1222.775 866.429, 1222.906 869.067, 1223.170 871.688, 1223.565 874.286, 1224.091 876.855, 1224.745 879.387, 1225.526 881.878, 1226.432 884.321, 1227.462 886.709, 1228.612 889.037, 1229.880 891.299, 1231.262 893.489, 1232.755 895.602, 1234.356 897.633, 1236.060 899.576, 1237.862 901.426, 1239.760 903.180, 1241.747 904.833, 1243.820 906.380, 1245.972 907.819, 1248.199 909.144, 1250.494 910.354, 1252.854 911.444, 1255.269 912.412, 1257.737 913.256, 1260.250 913.974, 1262.802 914.564, 1265.386 915.024, 1267.996 915.354, 1270.626 915.552, 1273.269 915.618, 1275.920 915.552, 1278.570 915.354, 1281.213 915.024, 1283.842 914.564, 1286.453 913.974, 1289.038 913.256, 1291.589 912.412, 1294.102 911.444, 1296.569 910.354, 1298.985 909.144, 1301.345 907.819, 1303.640 906.380, 1305.866 904.833, 1308.019 903.180, 1310.091 901.426, 1312.079 899.576, 1313.976 897.633, 1315.779 895.602, 1317.483 893.489, 1319.083 891.299, 1320.577 889.037, 1321.959 886.709, 1323.226 884.321, 1324.377 881.878, 1325.406 879.387, 1326.313 876.855, 1327.094 874.286, 1327.748 871.688, 1328.274 869.067, 1328.669 866.429, 1328.933 863.782, 1329.065 861.131, 1329.065 " />
            <path fill="none" stroke-width="3.0" stroke-linecap="butt" stroke-opacity="1.0" stroke="rgb(0, 0, 0)" stroke-linejoin="round" d=" M 58.147, 1215.958 56.825, 1225.870 55.504, 1235.782 54.182, 1245.695 52.861, 1255.607 51.539, 1265.519 50.218, 1275.431 48.896, 1285.344 48.556, 1287.896 48.009, 1297.881 47.462, 1307.866 46.915, 1317.851 46.368, 1327.836 45.821, 1337.821 45.274, 1347.806 44.727, 1357.791 44.180, 1367.776 43.634, 1377.761 43.087, 1387.746 42.540, 1397.732 41.993, 1407.717 41.446, 1417.702 40.899, 1427.687 40.352, 1437.672 39.805, 1447.657 39.258, 1457.642 38.711, 1467.627 38.164, 1477.612 37.617, 1487.597 37.070, 1497.582 36.523, 1507.567 35.976, 1517.552 35.429, 1527.537 34.882, 1537.522 34.336, 1547.507 33.789, 1557.492 33.242, 1567.477 32.695, 1577.462 32.148, 1587.447 31.601, 1597.432 31.054, 1607.417 30.507, 1617.402 29.960, 1627.387 29.413, 1637.372 28.866, 1647.357 28.319, 1657.342 27.772, 1667.327 27.225, 1677.312 26.678, 1687.297 26.131, 1697.282 25.585, 1707.268 25.038, 1717.253 24.491, 1727.238 23.944, 1737.223 23.397, 1747.208 23.102, 1752.585 24.982, 1762.406 26.861, 1772.228 28.741, 1782.050 30.620, 1791.872 32.500, 1801.693 34.379, 1811.515 36.259, 1821.337 38.138, 1831.159 40.018, 1840.981 41.897, 1850.802 43.777, 1860.624 45.656, 1870.446 46.600, 1875.378 " />
            <path fill="none" stroke-width="3.0" stroke-linecap="butt" stroke-opacity="1.0" stroke="rgb(0, 0, 0)" stroke-linejoin="round" d=" M 46.600, 1875.378 56.600, 1875.376 66.600, 1875.374 76.600, 1875.373 86.600, 1875.371 96.600, 1875.369 106.600, 1875.368 116.600, 1875.366 126.600, 1875.364 136.600, 1875.363 146.600, 1875.361 156.600, 1875.359 166.600, 1875.358 176.600, 1875.356 186.600, 1875.354 196.600, 1875.353 206.600, 1875.351 216.600, 1875.349 226.600, 1875.347 236.600, 1875.346 246.600, 1875.344 256.600, 1875.342 266.600, 1875.341 276.600, 1875.339 286.600, 1875.337 293.279, 1875.336 293.285, 1875.336 294.332, 1875.252 295.287, 1875.252 296.225, 1875.252 " />
            <path fill="none" stroke-width="3.0" stroke-linecap="butt" stroke-opacity="1.0" stroke="rgb(0, 0, 0)" stroke-linejoin="round" d=" M 296.225, 1875.252 297.140, 1875.252 " />
            <path fill="none" stroke-width="3.0" stroke-linecap="butt" stroke-opacity="1.0" stroke="rgb(0, 0, 0)" stroke-linejoin="round" d=" M 297.140, 1875.252 298.033, 1875.252 " />
            <path fill="none" stroke-width="3.0" stroke-linecap="butt" stroke-opacity="1.0" stroke="rgb(0, 0, 0)" stroke-linejoin="round" d=" M 298.033, 1875.252 298.906, 1875.260 308.906, 1875.266 318.906, 1875.271 328.906, 1875.276 338.906, 1875.281 348.906, 1875.286 358.906, 1875.292 368.906, 1875.297 378.906, 1875.302 388.906, 1875.307 398.906, 1875.312 406.667, 1875.316 406.828, 1875.317 408.389, 1875.316 410.959, 1875.316 413.107, 1875.315 423.107, 1875.314 433.107, 1875.312 443.107, 1875.310 453.107, 1875.309 463.107, 1875.307 473.107, 1875.305 483.107, 1875.304 493.107, 1875.302 503.107, 1875.300 513.107, 1875.298 523.107, 1875.297 533.107, 1875.295 543.107, 1875.293 553.107, 1875.292 563.107, 1875.290 573.107, 1875.288 583.107, 1875.286 593.107, 1875.285 603.107, 1875.283 613.107, 1875.281 618.676, 1875.280 " />
            <path fill="none" stroke-width="3.0" stroke-linecap="butt" stroke-opacity="1.0" stroke="rgb(0, 0, 0)" stroke-linejoin="round" d=" M 406.828, 1875.317 406.829, 1875.316 407.888, 1875.237 408.045, 1875.225 409.154, 1875.225 410.224, 1875.225 411.254, 1875.225 412.240, 1875.225 413.179, 1875.225 414.064, 1875.225 414.097, 1875.225 " />
            <path fill="none" stroke-width="3.0" stroke-linecap="butt" stroke-opacity="1.0" stroke="rgb(0, 0, 0)" stroke-linejoin="round" d=" M 413.179, 1875.225 414.069, 1875.225 " />
            <path fill="none" stroke-width="3.0" stroke-linecap="butt" stroke-opacity="1.0" stroke="rgb(0, 0, 0)" stroke-linejoin="round" d=" M 414.069, 1875.225 414.097, 1875.225 414.710, 1875.236 414.921, 1875.240 " />
            <path fill="none" stroke-width="3.0" stroke-linecap="butt" stroke-opacity="1.0" stroke="rgb(0, 0, 0)" stroke-linejoin="round" d=" M 414.921, 1875.240 424.921, 1875.242 434.921, 1875.244 444.921, 1875.246 454.921, 1875.248 464.921, 1875.250 474.921, 1875.252 484.921, 1875.254 494.921, 1875.256 504.921, 1875.258 514.921, 1875.260 524.921, 1875.262 534.921, 1875.264 544.921, 1875.266 554.921, 1875.268 564.921, 1875.270 574.921, 1875.272 584.921, 1875.274 594.921, 1875.276 604.921, 1875.278 614.921, 1875.280 617.896, 1875.280 618.406, 1875.280 618.676, 1875.280 619.150, 1875.281 619.517, 1875.281 619.567, 1875.281 619.645, 1875.281 619.645, 1875.281 619.645, 1875.281 619.645, 1875.281 619.647, 1875.280 619.649, 1875.280 619.651, 1875.280 619.653, 1875.280 620.596, 1875.209 620.729, 1875.199 620.735, 1875.198 " />
            <path fill="none" stroke-width="3.0" stroke-linecap="butt" stroke-opacity="1.0" stroke="rgb(0, 0, 0)" stroke-linejoin="round" d=" M 621.073, 1875.173 622.392, 1875.173 622.944, 1875.198 622.954, 1875.198 " />
            <path fill="none" stroke-width="3.0" stroke-linecap="butt" stroke-opacity="1.0" stroke="rgb(0, 0, 0)" stroke-linejoin="round" d=" M 117.980, 23.633 117.146, 33.598 116.311, 43.563 115.477, 53.528 114.643, 63.493 113.808, 73.458 112.974, 83.424 112.139, 93.389 111.305, 103.354 110.471, 113.319 109.636, 123.284 108.802, 133.249 107.968, 143.214 107.133, 153.179 106.299, 163.145 105.465, 173.110 104.630, 183.075 103.796, 193.040 102.962, 203.005 102.127, 212.970 101.293, 222.935 100.458, 232.901 99.624, 242.866 98.790, 252.831 97.955, 262.796 97.121, 272.761 96.287, 282.726 95.452, 292.691 94.618, 302.656 93.784, 312.622 93.350, 317.799 94.516, 327.731 95.682, 337.662 96.848, 347.594 98.014, 357.526 99.180, 367.458 100.346, 377.390 101.512, 387.321 102.678, 397.253 103.844, 407.185 105.010, 417.117 106.176, 427.049 107.342, 436.980 108.427, 446.228 106.873, 456.106 105.320, 465.984 103.766, 475.863 102.212, 485.742 100.658, 495.620 99.104, 505.499 97.550, 515.377 95.996, 525.256 94.442, 535.134 92.888, 545.013 91.334, 554.891 89.780, 564.770 88.226, 574.648 86.672, 584.527 85.119, 594.405 83.565, 604.284 82.011, 614.162 80.457, 624.041 78.903, 633.920 77.349, 643.798 75.795, 653.677 75.414, 656.099 75.156, 666.096 74.898, 676.093 74.640, 686.089 74.382, 696.086 74.124, 706.083 73.867, 716.079 73.609, 726.076 73.351, 736.073 73.093, 746.069 72.835, 756.066 72.577, 766.063 72.319, 776.059 72.061, 786.056 71.803, 796.053 71.546, 806.049 71.288, 816.046 71.030, 826.043 70.772, 836.039 70.514, 846.036 70.256, 856.033 69.998, 866.029 69.740, 876.026 69.482, 886.023 69.225, 896.019 68.967, 906.016 68.709, 916.013 68.451, 926.009 68.193, 936.006 67.935, 946.003 67.677, 956.000 67.419, 965.996 67.161, 975.993 66.904, 985.990 66.646, 995.986 66.388, 1005.983 66.130, 1015.980 65.872, 1025.976 65.614, 1035.973 65.356, 1045.970 65.098, 1055.966 64.840, 1065.963 64.583, 1075.960 64.325, 1085.956 64.067, 1095.953 63.809, 1105.950 63.551, 1115.946 63.293, 1125.943 63.035, 1135.940 62.777, 1145.936 62.519, 1155.933 62.262, 1165.930 62.004, 1175.926 61.804, 1183.667 " />
            <path fill="none" stroke-width="3.0" stroke-linecap="butt" stroke-opacity="1.0" stroke="rgb(0, 0, 0)" stroke-linejoin="round" d=" M 622.954, 1875.198 622.965, 1875.199 623.189, 1875.209 623.706, 1875.232 633.706, 1875.230 643.706, 1875.229 653.706, 1875.228 663.706, 1875.227 673.706, 1875.226 683.706, 1875.224 693.706, 1875.223 703.706, 1875.222 713.706, 1875.221 723.706, 1875.220 733.706, 1875.218 743.706, 1875.217 753.706, 1875.216 763.706, 1875.215 773.706, 1875.214 783.706, 1875.212 793.706, 1875.211 803.706, 1875.210 813.706, 1875.209 823.706, 1875.208 833.706, 1875.206 843.706, 1875.205 853.706, 1875.204 863.706, 1875.203 873.706, 1875.202 883.706, 1875.200 893.706, 1875.199 903.706, 1875.198 913.706, 1875.197 923.706, 1875.195 933.706, 1875.194 943.706, 1875.193 953.706, 1875.192 963.706, 1875.191 973.706, 1875.189 983.706, 1875.188 993.706, 1875.187 1003.706, 1875.186 1013.706, 1875.185 1023.706, 1875.183 1033.706, 1875.182 1043.706, 1875.181 1053.706, 1875.180 1063.706, 1875.179 1073.706, 1875.177 1083.706, 1875.176 1093.706, 1875.175 1103.706, 1875.174 1113.706, 1875.173 1123.706, 1875.171 1133.706, 1875.170 1143.706, 1875.169 1153.706, 1875.168 1163.706, 1875.167 1173.706, 1875.165 1183.706, 1875.164 1193.706, 1875.163 1203.706, 1875.162 1213.706, 1875.161 1223.706, 1875.159 1233.706, 1875.158 1243.706, 1875.157 1253.706, 1875.156 1263.706, 1875.154 1273.706, 1875.153 1283.706, 1875.152 1293.706, 1875.151 1303.706, 1875.150 1313.706, 1875.148 1323.706, 1875.147 1333.706, 1875.146 1343.706, 1875.145 1353.706, 1875.144 1363.706, 1875.142 1373.706, 1875.141 1383.706, 1875.140 1393.706, 1875.139 1403.706, 1875.138 1413.706, 1875.136 1423.706, 1875.135 1433.706, 1875.134 1443.706, 1875.133 1453.706, 1875.132 1463.706, 1875.130 1473.706, 1875.129 1483.706, 1875.128 1493.706, 1875.127 1503.706, 1875.126 1513.706, 1875.124 1523.706, 1875.123 1533.706, 1875.122 1543.706, 1875.121 1553.706, 1875.119 1563.706, 1875.118 1582.831, 1875.116 1584.535, 1875.116 1584.654, 1875.116 1585.615, 1875.116 1587.297, 1875.115 1588.595, 1875.115 1588.772, 1875.115 1589.046, 1875.115 1589.046, 1875.115 1589.942, 1875.115 1595.546, 1875.114 1597.052, 1875.114 1597.290, 1875.114 1597.290, 1875.114 1597.363, 1875.114 1597.410, 1875.114 1597.519, 1875.114 1607.519, 1875.112 1617.519, 1875.110 1619.006, 1875.110 1629.006, 1875.108 1639.006, 1875.107 1649.006, 1875.105 1656.874, 1875.103 1666.874, 1875.102 1676.973, 1875.100 1679.405, 1875.100 1689.405, 1875.098 1699.405, 1875.096 1709.405, 1875.094 1712.431, 1875.094 1722.431, 1875.092 1732.431, 1875.090 1742.431, 1875.089 1752.431, 1875.087 1762.431, 1875.085 1772.431, 1875.084 1782.431, 1875.082 1792.431, 1875.080 1801.554, 1875.079 1803.225, 1875.078 1803.226, 1875.078 1804.945, 1875.078 1806.706, 1875.078 " />
            <path fill="none" stroke-width="3.0" stroke-linecap="butt" stroke-opacity="1.0" stroke="rgb(0, 0, 0)" stroke-linejoin="round" d=" M 1808.506, 1875.077 1808.506, 1875.077 1810.338, 1875.077 " />
            <path fill="none" stroke-width="3.0" stroke-linecap="butt" stroke-opacity="1.0" stroke="rgb(0, 0, 0)" stroke-linejoin="round" d=" M 1812.196, 1875.076 1812.197, 1875.076 1812.657, 1875.076 1812.658, 1875.076 1814.077, 1875.076 " />
            <path fill="none" stroke-width="3.0" stroke-linecap="butt" stroke-opacity="1.0" stroke="rgb(0, 0, 0)" stroke-linejoin="round" d=" M 1814.077, 1875.076 1824.077, 1875.075 1832.276, 1875.073 1832.291, 1875.073 1842.291, 1875.072 1852.291, 1875.070 1853.747, 1875.070 1853.761, 1875.070 1861.042, 1875.069 1871.042, 1875.067 1875.573, 1875.066 1876.570, 1875.066 1884.463, 1875.065 1894.463, 1875.063 1897.839, 1875.062 1907.790, 1875.061 1909.125, 1875.061 1911.173, 1875.060 1911.177, 1875.060 1917.784, 1875.059 1927.784, 1875.058 1937.784, 1875.056 1947.784, 1875.054 1956.146, 1875.053 1956.153, 1875.053 1966.153, 1875.051 1966.464, 1875.051 1966.532, 1875.051 1966.532, 1875.051 1966.762, 1875.051 1966.799, 1875.051 1966.799, 1875.051 1966.810, 1875.051 1966.817, 1875.051 1966.870, 1875.051 1966.938, 1875.051 1966.977, 1875.051 1966.981, 1875.051 1967.050, 1875.051 1967.083, 1875.051 1967.083, 1875.051 1967.176, 1875.050 1967.176, 1875.050 1967.513, 1875.050 1967.513, 1875.050 1967.597, 1875.050 1967.598, 1875.050 1967.718, 1875.050 1967.718, 1875.050 1968.072, 1875.050 1978.072, 1875.048 1988.072, 1875.046 1998.072, 1875.045 2008.072, 1875.043 2018.072, 1875.041 2028.072, 1875.040 2038.072, 1875.038 2048.072, 1875.036 2058.072, 1875.034 2068.072, 1875.033 2078.072, 1875.031 2088.072, 1875.029 2098.072, 1875.028 2108.072, 1875.026 2118.072, 1875.024 2128.072, 1875.023 2138.072, 1875.021 2148.072, 1875.019 2158.072, 1875.018 2168.072, 1875.016 2178.072, 1875.014 2188.072, 1875.013 2198.072, 1875.011 2208.072, 1875.009 2218.072, 1875.008 2228.072, 1875.006 2238.072, 1875.004 2248.072, 1875.002 2258.944, 1875.001 2260.471, 1875.000 2263.894, 1875.000 2264.649, 1875.000 2264.778, 1875.000 2264.778, 1875.000 2264.986, 1875.000 2264.987, 1875.000 2265.133, 1875.000 2265.134, 1875.000 2265.355, 1875.000 2265.513, 1875.000 2265.714, 1875.000 2265.714, 1875.000 2265.874, 1875.000 2265.874, 1875.000 2265.930, 1875.000 2266.048, 1875.000 2266.056, 1875.000 2266.091, 1875.000 2266.122, 1875.000 2266.239, 1875.000 2266.329, 1875.000 2266.341, 1875.000 2266.360, 1875.000 2266.360, 1875.000 2266.422, 1875.000 2266.506, 1875.000 2266.814, 1875.000 2266.814, 1875.000 2266.856, 1875.000 2276.856, 1874.998 2286.856, 1874.996 2296.856, 1874.995 2306.856, 1874.993 2316.856, 1874.991 2326.856, 1874.989 2336.856, 1874.988 2346.856, 1874.986 2356.856, 1874.984 2366.856, 1874.983 2376.856, 1874.981 2386.856, 1874.979 2396.856, 1874.977 2406.856, 1874.976 2416.856, 1874.974 2426.856, 1874.972 2436.856, 1874.971 2446.856, 1874.969 2456.856, 1874.967 2466.856, 1874.965 2476.842, 1874.964 " />
            <path fill="none" stroke-width="3.0" stroke-linecap="butt" stroke-opacity="1.0" stroke="rgb(0, 0, 0)" stroke-linejoin="round" d=" M 1694.897, 1015.945 1692.377, 1013.363 1689.990, 1010.658 1687.741, 1007.838 1685.634, 1004.908 1683.677, 1001.877 1681.873, 998.752 1680.227, 995.542 1678.744, 992.253 1677.425, 988.895 1676.276, 985.475 1675.299, 982.002 1674.496, 978.484 1673.869, 974.931 1673.421, 971.351 1673.151, 967.753 1673.061, 964.146 1673.151, 960.540 1673.421, 956.942 1673.869, 953.362 1674.496, 949.808 1675.299, 946.291 1676.276, 942.818 1677.425, 939.398 1678.744, 936.040 1680.227, 932.751 1681.873, 929.541 1683.677, 926.416 1685.634, 923.385 1687.741, 920.456 1689.990, 917.635 1692.377, 914.930 1694.897, 912.347 1697.542, 909.893 1700.305, 907.573 1703.182, 905.395 1706.162, 903.362 1709.241, 901.482 1712.409, 899.756 1715.660, 898.190 1718.985, 896.789 1722.375, 895.555 1725.823, 894.491 1729.319, 893.601 1732.856, 892.886 1736.423, 892.349 1740.013, 891.990 1743.617, 891.810 1747.224, 891.810 1750.828, 891.990 1754.418, 892.349 1757.986, 892.886 1761.522, 893.601 1765.018, 894.491 1768.466, 895.555 1771.856, 896.789 1775.181, 898.190 1778.432, 899.756 1781.600, 901.482 1784.679, 903.362 1787.660, 905.395 1790.536, 907.573 1793.300, 909.893 1795.945, 912.347 1798.464, 914.930 1800.851, 917.635 1803.100, 920.456 1805.206, 923.385 1807.164, 926.416 1808.968, 929.541 1810.614, 932.751 1812.098, 936.040 1813.416, 939.398 1814.565, 942.818 1815.542, 946.291 1816.345, 949.808 1816.971, 953.362 1817.420, 956.942 1817.690, 960.540 1817.780, 964.146 1817.690, 967.753 1817.420, 971.351 1816.971, 974.931 1816.345, 978.484 1815.542, 982.002 1814.565, 985.475 1813.416, 988.895 1812.098, 992.253 1810.614, 995.542 1808.968, 998.752 1807.164, 1001.877 1805.206, 1004.908 1803.100, 1007.838 1800.851, 1010.658 1798.464, 1013.363 1795.945, 1015.945 1793.300, 1018.400 1790.536, 1020.719 1787.660, 1022.898 1784.679, 1024.930 1781.600, 1026.811 1778.432, 1028.537 1775.181, 1030.102 1771.856, 1031.504 1768.466, 1032.737 1765.018, 1033.801 1761.522, 1034.691 1757.986, 1035.406 1754.418, 1035.944 1750.828, 1036.303 1747.224, 1036.483 1743.617, 1036.483 1740.013, 1036.303 1736.423, 1035.944 1732.856, 1035.406 1729.319, 1034.691 1725.823, 1033.801 1722.375, 1032.737 1718.985, 1031.504 1715.660, 1030.102 1712.409, 1028.537 1709.241, 1026.811 1706.162, 1024.930 1703.182, 1022.898 1700.305, 1020.719 1697.542, 1018.400 1694.897, 1015.945 " />
            <path fill="none" stroke-width="3.0" stroke-linecap="butt" stroke-opacity="1.0" stroke="rgb(0, 0, 0)" stroke-linejoin="round" d=" M 2266.856, 1875.000 2266.866, 1875.000 2266.866, 1875.000 2266.939, 1875.000 2266.959, 1875.000 2266.974, 1875.000 2266.974, 1875.000 2266.978, 1875.000 2266.981, 1875.000 2267.002, 1875.000 2267.030, 1875.000 2267.045, 1874.999 2267.047, 1874.999 2267.075, 1874.999 2267.088, 1874.999 2267.088, 1874.999 2267.126, 1874.999 2267.126, 1874.999 2267.173, 1874.999 2267.261, 1874.999 2267.261, 1874.999 2267.295, 1874.999 2267.295, 1874.999 2267.344, 1874.999 2267.344, 1874.999 2267.487, 1874.999 2267.633, 1874.999 2267.646, 1874.999 2277.646, 1874.997 2287.646, 1874.996 2297.646, 1874.994 2307.646, 1874.992 2317.646, 1874.991 2327.646, 1874.989 2337.646, 1874.987 2347.646, 1874.985 2357.646, 1874.984 2367.646, 1874.982 2377.646, 1874.980 2387.646, 1874.979 2397.646, 1874.977 2407.646, 1874.975 2417.646, 1874.974 2427.646, 1874.972 2437.646, 1874.970 2447.646, 1874.969 2457.646, 1874.967 2467.646, 1874.965 2476.841, 1874.964 2476.841, 1874.964 2476.841, 1874.964 " />
            <path fill="none" stroke-width="3.0" stroke-linecap="butt" stroke-opacity="1.0" stroke="rgb(0, 0, 0)" stroke-linejoin="round" d=" M 2476.842, 1874.964 2479.437, 1865.306 2482.031, 1855.649 2484.626, 1845.991 2487.221, 1836.334 2489.816, 1826.676 2492.411, 1817.019 2495.006, 1807.361 2495.917, 1803.971 2500.080, 1794.879 2504.244, 1785.787 2508.408, 1776.695 2512.572, 1767.604 2516.736, 1758.512 2520.900, 1749.420 2525.064, 1740.328 2529.228, 1731.236 2533.392, 1722.144 2537.556, 1713.053 2541.720, 1703.961 2545.884, 1694.869 2550.048, 1685.777 2554.212, 1676.685 2558.376, 1667.593 2562.540, 1658.502 2566.704, 1649.410 2570.868, 1640.318 2575.032, 1631.226 2579.196, 1622.134 2583.360, 1613.042 2587.025, 1605.039 2588.971, 1595.230 2590.918, 1585.421 2592.864, 1575.613 2594.811, 1565.804 2596.757, 1555.995 2598.703, 1546.186 2600.649, 1536.378 2602.596, 1526.569 2604.542, 1516.760 2606.488, 1506.951 2608.435, 1497.142 2610.381, 1487.334 2612.327, 1477.525 2614.274, 1467.716 2616.220, 1457.907 2618.166, 1448.099 2620.113, 1438.290 2622.059, 1428.481 2624.005, 1418.672 2625.952, 1408.864 2627.898, 1399.055 2629.844, 1389.246 2631.791, 1379.437 2633.737, 1369.629 2635.683, 1359.820 2637.629, 1350.011 2639.576, 1340.202 2641.522, 1330.393 2643.469, 1320.585 2645.415, 1310.776 2647.361, 1300.967 2649.307, 1291.158 2651.254, 1281.350 2653.200, 1271.541 2655.146, 1261.732 2657.093, 1251.923 2659.039, 1242.115 2660.985, 1232.306 2662.932, 1222.497 2664.878, 1212.688 2666.824, 1202.880 2668.771, 1193.071 2670.717, 1183.262 2673.031, 1171.599 2673.048, 1161.599 2673.065, 1151.599 2673.082, 1141.599 2673.099, 1131.599 2673.116, 1121.600 2673.134, 1111.600 2673.151, 1101.600 2673.168, 1091.600 2673.185, 1081.600 2673.202, 1071.600 2673.219, 1061.600 2673.236, 1051.600 2673.253, 1041.600 2673.271, 1031.600 2673.288, 1021.600 2673.305, 1011.600 2673.322, 1001.600 2673.339, 991.600 2673.356, 981.600 2673.373, 971.600 2673.390, 961.600 2673.407, 951.600 2673.425, 941.600 2673.442, 931.600 2673.459, 921.600 2673.476, 911.600 2673.493, 901.600 2673.510, 891.600 2673.527, 881.600 2673.544, 871.600 2673.562, 861.600 2673.579, 851.600 2673.596, 841.600 2673.604, 836.414 2677.098, 827.044 2680.592, 817.675 2684.086, 808.305 2687.580, 798.935 2691.074, 789.565 2694.567, 780.195 2698.061, 770.826 2701.555, 761.456 2705.049, 752.086 2708.543, 742.716 2712.037, 733.346 2715.531, 723.977 2719.024, 714.607 2722.518, 705.237 2726.012, 695.867 2729.506, 686.497 2733.000, 677.128 2736.493, 667.758 2739.987, 658.388 2743.481, 649.018 2746.975, 639.648 2750.469, 630.279 2753.963, 620.909 2757.456, 611.539 2760.950, 602.169 2764.444, 592.799 2765.766, 589.254 2768.888, 579.754 2772.010, 570.254 2775.132, 560.753 2778.254, 551.253 2781.376, 541.753 2784.498, 532.253 2787.620, 522.753 2790.741, 513.252 2793.864, 503.752 2796.985, 494.252 2800.107, 484.752 2803.229, 475.252 2806.351, 465.751 2809.473, 456.251 2812.595, 446.751 2815.717, 437.251 2818.839, 427.751 2821.961, 418.251 2825.083, 408.750 2828.205, 399.250 2831.327, 389.750 2834.448, 380.250 2837.571, 370.750 2840.692, 361.249 2843.814, 351.749 2846.936, 342.249 2850.058, 332.749 2853.180, 323.249 2856.302, 313.749 2859.424, 304.248 2862.546, 294.748 2865.668, 285.248 2868.790, 275.748 2871.912, 266.248 2875.034, 256.747 2878.156, 247.247 2881.278, 237.747 2884.399, 228.247 2887.521, 218.747 2890.643, 209.246 2893.765, 199.746 2896.887, 190.246 2900.009, 180.746 2902.350, 173.623 2906.823, 164.679 2911.295, 155.735 2915.768, 146.792 2920.241, 137.848 2924.714, 128.904 2929.187, 119.960 2933.659, 111.016 2938.132, 102.072 2942.605, 93.128 2947.078, 84.184 2951.551, 75.240 2956.023, 66.296 2959.967, 58.411 2963.916, 49.224 2967.866, 40.037 2971.815, 30.850 2974.918, 23.633 " />
            <path fill="none" stroke-width="3.0" stroke-linecap="butt" stroke-opacity="1.0" stroke="rgb(0, 0, 0)" stroke-linejoin="round" d=" M 1134.076, 23.633 1131.780, 23.633 1129.135, 23.633 1126.497, 23.633 1116.497, 23.633 1106.497, 23.633 1096.497, 23.633 1086.497, 23.633 1076.497, 23.633 1066.497, 23.633 1056.497, 23.633 1050.766, 23.633 1045.334, 23.633 1039.739, 23.633 1033.996, 23.633 1028.128, 23.633 1018.128, 23.633 1008.128, 23.633 998.128, 23.633 988.128, 23.633 978.128, 23.633 968.128, 23.633 958.128, 23.633 948.128, 23.633 938.128, 23.633 928.128, 23.633 918.128, 23.633 908.128, 23.633 898.128, 23.633 888.128, 23.633 878.128, 23.633 868.128, 23.633 858.128, 23.633 848.128, 23.633 838.128, 23.633 828.128, 23.633 823.279, 23.633 817.359, 23.633 811.287, 23.633 805.088, 23.633 798.786, 23.633 792.406, 23.633 785.969, 23.633 779.502, 23.633 769.502, 23.633 759.502, 23.633 749.502, 23.633 739.502, 23.633 729.502, 23.633 719.502, 23.633 709.502, 23.633 699.502, 23.633 689.502, 23.633 679.502, 23.633 669.502, 23.633 659.502, 23.633 649.502, 23.633 639.502, 23.633 629.502, 23.633 619.502, 23.633 609.502, 23.633 599.502, 23.633 589.502, 23.633 579.502, 23.633 569.502, 23.633 559.502, 23.633 549.502, 23.633 539.502, 23.633 529.502, 23.633 519.502, 23.633 509.502, 23.633 499.502, 23.633 489.502, 23.633 479.502, 23.633 469.502, 23.633 459.502, 23.633 449.502, 23.633 439.502, 23.633 429.502, 23.633 419.502, 23.633 409.502, 23.633 399.502, 23.633 389.502, 23.633 379.502, 23.633 369.502, 23.633 359.502, 23.633 349.502, 23.633 339.502, 23.633 329.502, 23.633 319.502, 23.633 309.502, 23.633 296.257, 23.633 293.479, 23.633 290.710, 23.633 287.960, 23.633 285.238, 23.633 282.555, 23.633 279.918, 23.633 277.334, 23.633 274.809, 23.633 272.351, 23.633 269.963, 23.633 259.963, 23.633 249.963, 23.633 239.963, 23.633 229.963, 23.633 219.963, 23.633 209.963, 23.633 199.963, 23.633 189.963, 23.633 179.963, 23.633 169.963, 23.633 159.963, 23.633 149.963, 23.633 139.963, 23.633 129.963, 23.633 119.963, 23.633 117.980, 23.633 " />
            <path fill="none" stroke-width="3.0" stroke-linecap="butt" stroke-opacity="1.0" stroke="rgb(0, 0, 0)" stroke-linejoin="round" d=" M 1651.546, 23.633 1641.546, 23.633 1635.566, 23.633 1629.938, 23.633 1624.468, 23.633 1614.468, 23.633 1604.468, 23.633 1594.468, 23.633 1584.468, 23.633 1574.468, 23.633 1564.468, 23.633 1554.468, 23.633 1544.468, 23.633 1534.468, 23.633 1524.468, 23.633 1514.468, 23.633 1504.468, 23.633 1494.468, 23.633 1484.468, 23.633 1474.468, 23.633 1464.468, 23.633 1454.468, 23.633 1444.468, 23.633 1434.468, 23.633 1424.468, 23.633 1414.468, 23.633 1404.468, 23.633 1394.468, 23.633 1384.468, 23.633 1374.468, 23.633 1364.468, 23.633 1354.468, 23.633 1344.468, 23.633 1334.468, 23.633 1324.468, 23.633 1314.468, 23.633 1304.468, 23.633 1294.468, 23.633 1284.468, 23.633 1274.468, 23.633 1264.468, 23.633 1254.468, 23.633 1244.468, 23.633 1234.468, 23.633 1224.468, 23.633 1214.468, 23.633 1204.468, 23.633 1194.468, 23.633 1184.468, 23.633 1174.468, 23.633 1167.271, 23.633 1163.628, 23.633 1159.732, 23.633 1155.595, 23.633 1151.231, 23.633 1146.652, 23.633 1141.873, 23.633 1136.911, 23.633 1134.076, 23.633 " />
            <path fill="none" stroke-width="3.0" stroke-linecap="butt" stroke-opacity="1.0" stroke="rgb(0, 0, 0)" stroke-linejoin="round" d=" M 2476.842, 1874.964 2479.437, 1865.306 2482.032, 1855.649 2484.627, 1845.991 2487.221, 1836.334 2489.816, 1826.676 2492.411, 1817.019 2495.006, 1807.361 2495.917, 1803.971 2500.081, 1794.879 2504.245, 1785.787 2508.409, 1776.695 2512.573, 1767.604 2516.737, 1758.512 2520.901, 1749.420 2525.064, 1740.328 2529.229, 1731.236 2533.393, 1722.144 2537.556, 1713.053 2541.720, 1703.961 2545.884, 1694.869 2550.048, 1685.777 2554.212, 1676.685 2558.376, 1667.593 2562.540, 1658.502 2566.704, 1649.410 2570.868, 1640.318 2575.032, 1631.226 2579.196, 1622.134 2583.360, 1613.042 2587.026, 1605.039 2588.972, 1595.230 2590.918, 1585.421 2592.865, 1575.613 2594.811, 1565.804 2596.757, 1555.995 2598.703, 1546.186 2600.650, 1536.378 2602.596, 1526.569 2604.542, 1516.760 2606.489, 1506.951 2608.435, 1497.142 2610.381, 1487.334 2612.328, 1477.525 2614.274, 1467.716 2616.220, 1457.907 2618.167, 1448.099 2620.113, 1438.290 2622.059, 1428.481 2624.006, 1418.672 2625.952, 1408.864 2627.898, 1399.055 2629.844, 1389.246 2631.791, 1379.437 2633.737, 1369.629 2635.684, 1359.820 2637.630, 1350.011 2639.576, 1340.202 2641.522, 1330.393 2643.469, 1320.585 2645.415, 1310.776 2647.361, 1300.967 2649.308, 1291.158 2651.254, 1281.350 2653.200, 1271.541 2655.147, 1261.732 2657.093, 1251.923 2659.039, 1242.115 2660.986, 1232.306 2662.932, 1222.497 2664.878, 1212.688 2666.824, 1202.880 2668.771, 1193.071 2670.717, 1183.262 2673.031, 1171.599 2673.049, 1161.599 2673.066, 1151.599 2673.083, 1141.599 2673.100, 1131.599 2673.117, 1121.600 2673.134, 1111.600 2673.151, 1101.600 2673.168, 1091.600 2673.185, 1081.600 2673.202, 1071.600 2673.219, 1061.600 2673.237, 1051.600 2673.254, 1041.600 2673.271, 1031.600 2673.288, 1021.600 2673.305, 1011.600 2673.322, 1001.600 2673.339, 991.600 2673.356, 981.600 2673.374, 971.600 2673.391, 961.600 2673.408, 951.600 2673.425, 941.600 2673.442, 931.600 2673.459, 921.600 2673.476, 911.600 2673.493, 901.600 2673.510, 891.600 2673.528, 881.600 2673.545, 871.600 2673.562, 861.600 2673.579, 851.600 2673.596, 841.600 2673.605, 836.414 2677.099, 827.044 2680.593, 817.675 2684.086, 808.305 2687.580, 798.935 2691.074, 789.565 2694.568, 780.195 2698.062, 770.826 2701.555, 761.456 2705.049, 752.086 2708.543, 742.716 2712.037, 733.346 2715.531, 723.977 2719.025, 714.607 2722.519, 705.237 2726.012, 695.867 2729.506, 686.497 2733.000, 677.128 2736.494, 667.758 2739.988, 658.388 2743.481, 649.018 2746.975, 639.648 2750.469, 630.279 2753.963, 620.909 2757.457, 611.539 2760.950, 602.169 2764.444, 592.799 2765.766, 589.254 2768.888, 579.754 2772.010, 570.254 2775.132, 560.753 2778.254, 551.253 2781.376, 541.753 2784.498, 532.253 2787.620, 522.753 2790.742, 513.252 2793.864, 503.752 2796.986, 494.252 2800.108, 484.752 2803.229, 475.252 2806.352, 465.751 2809.473, 456.251 2812.595, 446.751 2815.717, 437.251 2818.839, 427.751 2821.961, 418.251 2825.083, 408.750 2828.205, 399.250 2831.327, 389.750 2834.449, 380.250 2837.571, 370.750 2840.693, 361.249 2843.815, 351.749 2846.937, 342.249 2850.059, 332.749 2853.180, 323.249 2856.302, 313.749 2859.424, 304.248 2862.546, 294.748 2865.668, 285.248 2868.790, 275.748 2871.912, 266.248 2875.034, 256.747 2878.156, 247.247 2881.278, 237.747 2884.400, 228.247 2887.522, 218.747 2890.644, 209.246 2893.766, 199.746 2896.888, 190.246 2900.010, 180.746 2902.350, 173.623 2906.823, 164.679 2911.296, 155.735 2915.769, 146.792 2920.241, 137.848 2924.714, 128.904 2929.187, 119.960 2933.660, 111.016 2938.133, 102.072 2942.605, 93.128 2947.078, 84.184 2951.551, 75.240 2956.024, 66.296 2959.967, 58.411 2963.917, 49.224 2967.866, 40.037 2971.816, 30.850 2974.918, 23.633 2974.918, 23.633 2971.083, 23.633 2961.083, 23.633 2951.083, 23.633 2941.083, 23.633 2931.083, 23.633 2921.083, 23.633 2911.083, 23.633 2901.083, 23.633 2891.083, 23.633 2881.083, 23.633 2871.083, 23.633 2861.083, 23.633 2851.083, 23.633 2841.083, 23.633 2831.083, 23.633 2821.083, 23.633 2811.083, 23.633 2801.083, 23.633 2791.083, 23.633 2781.083, 23.633 2771.083, 23.633 2761.083, 23.633 2751.083, 23.633 2741.083, 23.633 2731.083, 23.633 2721.083, 23.633 2711.083, 23.633 2701.083, 23.633 2691.083, 23.633 2681.083, 23.633 2671.083, 23.633 2661.083, 23.633 2651.083, 23.633 2641.083, 23.633 2631.083, 23.633 2621.083, 23.633 2611.083, 23.633 2601.083, 23.633 2591.083, 23.633 2581.083, 23.633 2571.083, 23.633 2561.083, 23.633 2551.083, 23.633 2541.083, 23.633 2531.083, 23.633 2521.083, 23.633 2511.083, 23.633 2501.083, 23.633 2491.083, 23.633 2481.083, 23.633 2471.083, 23.633 2461.083, 23.633 2451.083, 23.633 2441.083, 23.633 2431.083, 23.633 2421.083, 23.633 2411.083, 23.633 2401.083, 23.633 2391.083, 23.633 2381.083, 23.633 2371.083, 23.633 2361.083, 23.633 2351.083, 23.633 2341.083, 23.633 2331.083, 23.633 2321.083, 23.633 2311.083, 23.633 2301.083, 23.633 2291.083, 23.633 2281.083, 23.633 2271.083, 23.633 2261.083, 23.633 2251.083, 23.633 2241.083, 23.633 2231.083, 23.633 2221.083, 23.633 2211.083, 23.633 2201.083, 23.633 2191.083, 23.633 2181.083, 23.633 2171.083, 23.633 2161.083, 23.633 2151.083, 23.633 2141.083, 23.633 2131.083, 23.633 2121.083, 23.633 2111.083, 23.633 2101.083, 23.633 2091.083, 23.633 2081.083, 23.633 2071.083, 23.633 2061.083, 23.633 2051.083, 23.633 2041.083, 23.633 2031.083, 23.633 2021.083, 23.633 2011.083, 23.633 2001.083, 23.633 1991.083, 23.633 1981.083, 23.633 1971.083, 23.633 1961.083, 23.633 1947.317, 23.633 1937.317, 23.633 1931.996, 23.633 1924.513, 23.633 1917.197, 23.633 1910.073, 23.633 1900.073, 23.633 1890.073, 23.633 1880.073, 23.633 1870.073, 23.633 1860.073, 23.633 1850.073, 23.633 1840.073, 23.633 1830.073, 23.633 1820.073, 23.633 1810.073, 23.633 1800.073, 23.633 1790.073, 23.633 1780.073, 23.633 1770.073, 23.633 1760.073, 23.633 1755.022, 23.633 1746.730, 23.633 1736.730, 23.633 1735.950, 23.633 1729.519, 23.633 1723.232, 23.633 1717.110, 23.633 1711.171, 23.633 1701.171, 23.633 1691.171, 23.633 1681.171, 23.633 1671.171, 23.633 1661.171, 23.633 1651.546, 23.633 " />
            <path fill="none" stroke-width="3.0" stroke-linecap="butt" stroke-opacity="1.0" stroke="rgb(0, 0, 0)" stroke-linejoin="round" d=" M 2476.841, 1874.964 2476.841, 1874.964 2476.841, 1874.964 2476.842, 1874.964 2476.842, 1874.964 " />
            <path fill="none" stroke-width="3.0" stroke-linecap="butt" stroke-opacity="1.0" stroke="rgb(0, 0, 0)" stroke-linejoin="round" d=" M 2959.967, 58.411 2963.917, 49.224 2967.866, 40.037 2971.816, 30.850 2974.918, 23.633 " />
            <path fill="none" stroke-width="3.0" stroke-linecap="butt" stroke-opacity="1.0" stroke="rgb(0, 0, 0)" stroke-linejoin="round" d=" M 861.131, 1329.065 858.484, 1328.933 855.846, 1328.669 853.225, 1328.274 850.627, 1327.748 848.058, 1327.094 845.525, 1326.313 843.034, 1325.406 840.592, 1324.377 838.203, 1323.226 835.876, 1321.959 833.614, 1320.577 831.424, 1319.083 829.311, 1317.483 827.280, 1315.779 825.337, 1313.976 823.486, 1312.079 821.732, 1310.091 820.080, 1308.019 818.532, 1305.866 817.094, 1303.640 815.768, 1301.345 814.559, 1298.985 813.469, 1296.569 812.500, 1294.102 811.657, 1291.589 810.938, 1289.038 810.349, 1286.453 809.888, 1283.842 809.559, 1281.213 809.361, 1278.570 809.294, 1275.920 809.361, 1273.269 809.559, 1270.626 809.888, 1267.996 810.349, 1265.386 810.938, 1262.802 811.657, 1260.250 812.500, 1257.737 813.469, 1255.269 814.559, 1252.854 815.768, 1250.494 817.094, 1248.199 818.532, 1245.972 820.080, 1243.820 821.732, 1241.747 823.486, 1239.760 825.337, 1237.862 827.280, 1236.060 829.311, 1234.356 831.424, 1232.755 833.614, 1231.262 835.876, 1229.880 838.203, 1228.612 840.592, 1227.462 843.034, 1226.432 845.525, 1225.526 848.058, 1224.745 850.627, 1224.091 853.225, 1223.565 855.846, 1223.170 858.484, 1222.906 861.131, 1222.775 " />
            <path fill="none" stroke-width="3.0" stroke-linecap="butt" stroke-opacity="1.0" stroke="rgb(0, 0, 0)" stroke-linejoin="round" d=" M 294.541, 1875.336 294.249, 1875.336 293.279, 1875.336 " />
            <path fill="none" stroke-width="3.0" stroke-linecap="butt" stroke-opacity="1.0" stroke="rgb(0, 0, 0)" stroke-linejoin="round" d=" M 1333.982, 410.610 1331.463, 408.027 1329.076, 405.323 1326.826, 402.502 1324.720, 399.572 1322.762, 396.542 1320.958, 393.417 1319.312, 390.206 1317.828, 386.917 1316.510, 383.559 1315.361, 380.139 1314.384, 376.666 1313.581, 373.148 1312.955, 369.595 1312.506, 366.015 1312.237, 362.418 1312.147, 358.811 1312.237, 355.204 1312.506, 351.606 1312.955, 348.026 1313.581, 344.473 1314.384, 340.956 1315.361, 337.482 1316.510, 334.062 1317.828, 330.703 1319.312, 327.415 1320.958, 324.205 1322.762, 321.080 1324.720, 318.049 1326.826, 315.120 1329.076, 312.299 1331.463, 309.594 1333.982, 307.011 1336.627, 304.557 1339.390, 302.238 1342.266, 300.059 1345.248, 298.027 1348.326, 296.145 1351.495, 294.420 1354.745, 292.855 1358.070, 291.454 1361.460, 290.219 1364.908, 289.156 1368.404, 288.266 1371.941, 287.551 1375.509, 287.013 1379.099, 286.653 1382.702, 286.474 1386.310, 286.474 1389.913, 286.653 1393.503, 287.013 1397.071, 287.551 1400.607, 288.266 1404.104, 289.156 1407.552, 290.219 1410.942, 291.454 1414.266, 292.855 1417.517, 294.420 1420.685, 296.145 1423.764, 298.027 1426.745, 300.059 1429.621, 302.238 1432.385, 304.557 1435.030, 307.011 1437.549, 309.594 1439.936, 312.299 1442.186, 315.120 1444.292, 318.049 1446.249, 321.080 1448.053, 324.205 1449.699, 327.415 1451.183, 330.703 1452.501, 334.062 1453.650, 337.482 1454.627, 340.956 1455.430, 344.473 1456.057, 348.026 1456.505, 351.606 1456.775, 355.204 1456.865, 358.811 1456.775, 362.418 1456.505, 366.015 1456.057, 369.595 1455.430, 373.148 1454.627, 376.666 1453.650, 380.139 1452.501, 383.559 1451.183, 386.917 1449.699, 390.206 1448.053, 393.417 1446.249, 396.542 1444.292, 399.572 1442.186, 402.502 1439.936, 405.323 1437.549, 408.027 1435.030, 410.610 1432.385, 413.065 1429.621, 415.383 1426.745, 417.561 1423.764, 419.594 1420.685, 421.476 1417.517, 423.201 1414.266, 424.766 1410.942, 426.168 1407.552, 427.402 1404.104, 428.465 1400.607, 429.356 1397.071, 430.071 1393.503, 430.609 1389.913, 430.968 1386.310, 431.147 1382.702, 431.147 1379.099, 430.968 1375.509, 430.609 1371.941, 430.071 1368.404, 429.356 1364.908, 428.465 1361.460, 427.402 1358.070, 426.168 1354.745, 424.766 1351.495, 423.201 1348.326, 421.476 1345.248, 419.594 1342.266, 417.561 1339.390, 415.383 1336.627, 413.065 1333.982, 410.610 " />
            <path fill="none" stroke-width="3.0" stroke-linecap="butt" stroke-opacity="1.0" stroke="rgb(0, 0, 0)" stroke-linejoin="round" d=" M 2262.696, 1875.000 2262.696, 1875.000 2262.813, 1875.000 2262.813, 1875.000 2262.866, 1875.000 2272.866, 1874.999 2282.866, 1874.997 2292.866, 1874.995 2302.866, 1874.994 2312.866, 1874.992 2322.866, 1874.990 2332.866, 1874.988 2342.866, 1874.987 2352.866, 1874.985 2362.866, 1874.983 2372.866, 1874.982 2382.866, 1874.980 2392.866, 1874.978 2402.866, 1874.976 2412.866, 1874.975 2422.866, 1874.973 2432.866, 1874.971 2442.866, 1874.970 2452.866, 1874.968 2462.866, 1874.966 2472.866, 1874.964 2476.842, 1874.964 " />
            <path fill="none" stroke-width="3.0" stroke-linecap="butt" stroke-opacity="1.0" stroke="rgb(0, 0, 0)" stroke-linejoin="round" d=" M 1966.464, 1875.051 1966.534, 1875.051 1976.534, 1875.049 1986.534, 1875.048 1996.534, 1875.046 2006.534, 1875.044 2016.534, 1875.043 2026.534, 1875.041 2036.534, 1875.039 2046.534, 1875.037 2056.534, 1875.036 2066.534, 1875.034 2076.534, 1875.032 2086.534, 1875.031 2096.534, 1875.029 2106.534, 1875.027 2116.534, 1875.025 2126.534, 1875.024 2136.534, 1875.022 2146.534, 1875.020 2156.534, 1875.019 2166.534, 1875.017 2176.534, 1875.015 2186.534, 1875.013 2196.534, 1875.012 2206.534, 1875.010 2216.534, 1875.008 2226.534, 1875.007 2236.534, 1875.005 2246.534, 1875.003 2256.534, 1875.001 2262.813, 1875.000 2262.889, 1875.000 2272.889, 1874.999 2282.889, 1874.997 2292.889, 1874.995 2302.889, 1874.994 2312.889, 1874.992 2322.889, 1874.990 2332.889, 1874.988 2342.889, 1874.987 2352.889, 1874.985 2362.889, 1874.983 2372.889, 1874.982 2382.889, 1874.980 2392.889, 1874.978 2402.889, 1874.976 2412.889, 1874.975 2422.889, 1874.973 2432.889, 1874.971 2442.889, 1874.970 2452.889, 1874.968 2462.889, 1874.966 2472.889, 1874.964 2476.842, 1874.964 " />
            <path fill="none" stroke-width="3.0" stroke-linecap="butt" stroke-opacity="1.0" stroke="rgb(0, 0, 0)" stroke-linejoin="round" d=" M 1956.133, 1875.053 1956.141, 1875.053 1966.141, 1875.051 1966.464, 1875.051 1976.464, 1875.049 1986.464, 1875.048 1996.464, 1875.046 2006.464, 1875.044 2016.464, 1875.043 2026.464, 1875.041 2036.464, 1875.039 2046.464, 1875.037 2056.465, 1875.036 2066.465, 1875.034 2076.465, 1875.032 2086.465, 1875.031 2096.465, 1875.029 2106.465, 1875.027 2116.465, 1875.025 2126.465, 1875.024 2136.465, 1875.022 2146.465, 1875.020 2156.465, 1875.019 2166.465, 1875.017 2176.465, 1875.015 2186.465, 1875.013 2196.465, 1875.012 2206.465, 1875.010 2216.465, 1875.008 2226.465, 1875.007 2236.465, 1875.005 2246.465, 1875.003 2256.465, 1875.001 2262.813, 1875.000 2262.889, 1875.000 2272.889, 1874.999 2282.889, 1874.997 2292.889, 1874.995 2302.889, 1874.994 2312.889, 1874.992 2322.889, 1874.990 2332.889, 1874.988 2342.889, 1874.987 2352.889, 1874.985 2362.889, 1874.983 2372.889, 1874.982 2382.889, 1874.980 2392.889, 1874.978 2402.889, 1874.976 2412.889, 1874.975 2422.889, 1874.973 2432.889, 1874.971 2442.889, 1874.970 2452.889, 1874.968 2462.889, 1874.966 2472.889, 1874.964 2476.842, 1874.964 " />
            <path fill="none" stroke-width="3.0" stroke-linecap="butt" stroke-opacity="1.0" stroke="rgb(0, 0, 0)" stroke-linejoin="round" d=" M 2476.842, 1874.964 2466.842, 1874.965 2456.842, 1874.967 2446.842, 1874.969 2436.842, 1874.971 2426.842, 1874.972 2416.842, 1874.974 2406.842, 1874.976 2396.842, 1874.977 2386.842, 1874.979 2376.842, 1874.981 2366.842, 1874.982 2356.842, 1874.984 2346.842, 1874.986 2336.842, 1874.987 2326.842, 1874.989 2316.842, 1874.991 2306.842, 1874.993 2296.842, 1874.994 2286.842, 1874.996 2276.842, 1874.998 2267.344, 1874.999 " />
            <path fill="none" stroke-width="3.0" stroke-linecap="butt" stroke-opacity="1.0" stroke="rgb(0, 0, 0)" stroke-linejoin="round" d=" M 1595.546, 1875.114 1595.546, 1875.114 1605.546, 1875.113 1615.546, 1875.111 1625.546, 1875.109 1635.546, 1875.108 1645.546, 1875.106 1655.546, 1875.104 1665.546, 1875.102 1675.546, 1875.101 1685.546, 1875.099 1695.546, 1875.097 1705.546, 1875.096 1715.546, 1875.094 1725.546, 1875.092 1735.546, 1875.091 1745.546, 1875.089 1755.546, 1875.087 1765.546, 1875.085 1775.546, 1875.084 1785.546, 1875.082 1795.546, 1875.080 1805.546, 1875.079 1815.546, 1875.077 1825.546, 1875.075 1835.546, 1875.073 1845.546, 1875.072 1855.546, 1875.070 1865.546, 1875.068 1875.546, 1875.067 1885.546, 1875.065 1895.546, 1875.063 1905.546, 1875.061 1915.546, 1875.060 1925.546, 1875.058 1935.546, 1875.056 1945.546, 1875.055 1956.133, 1875.053 1956.146, 1875.053 " />
            <path fill="none" stroke-width="3.0" stroke-linecap="butt" stroke-opacity="1.0" stroke="rgb(0, 0, 0)" stroke-linejoin="round" d=" M 704.821, 1875.266 714.821, 1875.264 724.821, 1875.263 734.821, 1875.261 744.821, 1875.259 754.821, 1875.258 764.821, 1875.256 774.821, 1875.254 784.821, 1875.252 794.821, 1875.251 804.821, 1875.249 814.821, 1875.247 824.821, 1875.246 834.821, 1875.244 844.821, 1875.242 854.821, 1875.241 864.821, 1875.239 874.821, 1875.237 884.821, 1875.235 894.821, 1875.234 904.821, 1875.232 914.821, 1875.230 920.103, 1875.229 930.103, 1875.228 940.103, 1875.226 950.103, 1875.224 960.103, 1875.223 970.103, 1875.221 980.103, 1875.219 990.103, 1875.218 1000.103, 1875.216 1010.103, 1875.214 1020.103, 1875.212 1030.103, 1875.211 1040.103, 1875.209 1050.103, 1875.207 1060.103, 1875.206 1070.103, 1875.204 1080.103, 1875.202 1090.103, 1875.200 1100.103, 1875.199 1110.103, 1875.197 1120.103, 1875.195 1130.103, 1875.194 1140.103, 1875.192 1150.103, 1875.190 1160.103, 1875.189 1170.103, 1875.187 1180.103, 1875.185 1190.103, 1875.183 1200.103, 1875.182 1210.103, 1875.180 1220.103, 1875.178 1230.103, 1875.177 1240.103, 1875.175 1250.103, 1875.173 1260.103, 1875.172 1270.103, 1875.170 1280.103, 1875.168 1290.103, 1875.166 1300.103, 1875.165 1310.103, 1875.163 1320.103, 1875.161 1330.103, 1875.160 1340.103, 1875.158 1350.103, 1875.156 1360.103, 1875.155 1370.103, 1875.153 1380.103, 1875.151 1390.103, 1875.149 1400.103, 1875.148 1410.103, 1875.146 1420.103, 1875.144 1430.103, 1875.143 1440.103, 1875.141 1450.103, 1875.139 1460.103, 1875.138 1470.103, 1875.136 1480.103, 1875.134 1490.103, 1875.132 1500.103, 1875.131 1510.103, 1875.129 1520.103, 1875.127 1530.103, 1875.126 1540.103, 1875.124 1550.103, 1875.122 1560.103, 1875.120 1570.103, 1875.119 1580.103, 1875.117 1595.546, 1875.114 1605.546, 1875.113 1615.546, 1875.111 1625.546, 1875.109 1635.546, 1875.108 1645.546, 1875.106 1655.546, 1875.104 1665.546, 1875.102 1675.546, 1875.101 1685.546, 1875.099 1695.546, 1875.097 1705.546, 1875.096 1715.546, 1875.094 1725.546, 1875.092 1735.546, 1875.091 1745.546, 1875.089 1755.546, 1875.087 1765.546, 1875.085 1775.546, 1875.084 1785.546, 1875.082 1795.546, 1875.080 1805.546, 1875.079 1815.546, 1875.077 1825.546, 1875.075 1835.546, 1875.073 1845.546, 1875.072 1855.546, 1875.070 1865.546, 1875.068 1875.546, 1875.067 1885.546, 1875.065 1895.546, 1875.063 1905.546, 1875.061 1915.546, 1875.060 1925.546, 1875.058 1935.546, 1875.056 1945.546, 1875.055 1956.141, 1875.053 1956.153, 1875.053 " />
            <path fill="none" stroke-width="3.0" stroke-linecap="butt" stroke-opacity="1.0" stroke="rgb(0, 0, 0)" stroke-linejoin="round" d=" M 619.645, 1875.281 619.645, 1875.281 619.645, 1875.281 629.645, 1875.279 639.645, 1875.277 649.645, 1875.276 659.645, 1875.274 669.645, 1875.272 679.645, 1875.270 689.645, 1875.269 699.645, 1875.267 704.664, 1875.266 714.664, 1875.264 724.664, 1875.263 734.664, 1875.261 744.664, 1875.259 754.664, 1875.258 764.664, 1875.256 774.664, 1875.254 784.664, 1875.252 794.664, 1875.251 804.664, 1875.249 814.664, 1875.247 824.664, 1875.246 834.664, 1875.244 844.664, 1875.242 854.664, 1875.241 864.664, 1875.239 874.664, 1875.237 884.664, 1875.235 894.664, 1875.234 904.664, 1875.232 914.664, 1875.230 924.664, 1875.229 934.664, 1875.227 944.664, 1875.225 954.664, 1875.223 964.664, 1875.222 974.664, 1875.220 984.664, 1875.218 994.664, 1875.217 1004.664, 1875.215 1014.664, 1875.213 1024.664, 1875.212 1034.664, 1875.210 1044.664, 1875.208 1054.664, 1875.206 1064.664, 1875.205 1074.664, 1875.203 1084.664, 1875.201 1094.664, 1875.200 1104.664, 1875.198 1114.664, 1875.196 1124.664, 1875.194 1134.664, 1875.193 1144.664, 1875.191 1154.664, 1875.189 1164.664, 1875.188 1174.664, 1875.186 1184.664, 1875.184 1194.664, 1875.183 1204.664, 1875.181 1214.664, 1875.179 1224.664, 1875.177 1234.664, 1875.176 1244.664, 1875.174 1254.664, 1875.172 1264.664, 1875.171 1274.664, 1875.169 1284.664, 1875.167 1294.664, 1875.165 1304.664, 1875.164 1314.664, 1875.162 1324.664, 1875.160 1334.664, 1875.159 1344.664, 1875.157 1354.664, 1875.155 1364.664, 1875.154 1374.664, 1875.152 1384.664, 1875.150 1394.664, 1875.148 1404.664, 1875.147 1414.664, 1875.145 1424.664, 1875.143 1434.664, 1875.142 1444.664, 1875.140 1454.664, 1875.138 1464.664, 1875.136 1474.664, 1875.135 1484.664, 1875.133 1494.664, 1875.131 1504.664, 1875.130 1514.664, 1875.128 1524.664, 1875.126 1534.664, 1875.125 1544.664, 1875.123 1554.664, 1875.121 1564.664, 1875.119 1574.664, 1875.118 1589.046, 1875.115 " />
            <path fill="none" stroke-width="3.0" stroke-linecap="butt" stroke-opacity="1.0" stroke="rgb(0, 0, 0)" stroke-linejoin="round" d=" M 619.645, 1875.281 619.645, 1875.281 629.645, 1875.279 639.645, 1875.277 649.645, 1875.276 659.645, 1875.274 669.645, 1875.272 679.645, 1875.270 689.645, 1875.269 699.645, 1875.267 704.821, 1875.266 714.821, 1875.264 724.821, 1875.263 734.821, 1875.261 744.821, 1875.259 754.821, 1875.258 764.821, 1875.256 774.821, 1875.254 784.821, 1875.252 794.821, 1875.251 804.821, 1875.249 814.821, 1875.247 824.821, 1875.246 834.821, 1875.244 844.821, 1875.242 854.821, 1875.240 864.821, 1875.239 874.821, 1875.237 884.821, 1875.235 894.821, 1875.234 904.821, 1875.232 914.821, 1875.230 924.821, 1875.229 934.821, 1875.227 944.821, 1875.225 954.821, 1875.223 964.821, 1875.222 974.821, 1875.220 984.821, 1875.218 994.821, 1875.217 1004.821, 1875.215 1014.821, 1875.213 1024.821, 1875.211 1034.821, 1875.210 1044.821, 1875.208 1054.821, 1875.206 1064.821, 1875.205 1074.821, 1875.203 1084.821, 1875.201 1094.821, 1875.200 1104.821, 1875.198 1114.821, 1875.196 1124.821, 1875.194 1134.821, 1875.193 1144.821, 1875.191 1154.821, 1875.189 1164.821, 1875.188 1174.821, 1875.186 1184.821, 1875.184 1194.821, 1875.182 1204.821, 1875.181 1214.821, 1875.179 1224.821, 1875.177 1234.821, 1875.176 1244.821, 1875.174 1254.821, 1875.172 1264.821, 1875.171 1274.821, 1875.169 1284.821, 1875.167 1294.821, 1875.165 1304.821, 1875.164 1314.821, 1875.162 1324.821, 1875.160 1334.821, 1875.159 1344.821, 1875.157 1354.821, 1875.155 1364.821, 1875.153 1374.821, 1875.152 1384.821, 1875.150 1394.821, 1875.148 1404.821, 1875.147 1414.821, 1875.145 1424.821, 1875.143 1434.821, 1875.142 1444.821, 1875.140 1454.821, 1875.138 1464.821, 1875.136 1474.821, 1875.135 1484.821, 1875.133 1494.821, 1875.131 1504.821, 1875.130 1514.821, 1875.128 1524.821, 1875.126 1534.821, 1875.124 1544.821, 1875.123 1554.821, 1875.121 1564.821, 1875.119 1574.821, 1875.118 1589.046, 1875.115 " />
            <path fill="none" stroke-width="3.0" stroke-linecap="butt" stroke-opacity="1.0" stroke="rgb(0, 0, 0)" stroke-linejoin="round" d=" M 412.982, 1875.316 413.103, 1875.316 423.103, 1875.314 433.103, 1875.312 443.103, 1875.311 453.103, 1875.309 463.103, 1875.307 473.103, 1875.306 483.103, 1875.304 493.103, 1875.302 503.103, 1875.300 513.103, 1875.299 523.103, 1875.297 533.103, 1875.295 543.103, 1875.294 553.103, 1875.292 563.103, 1875.290 573.103, 1875.289 583.103, 1875.287 593.103, 1875.285 603.103, 1875.283 613.103, 1875.282 619.567, 1875.281 " />
            <path fill="none" stroke-width="3.0" stroke-linecap="butt" stroke-opacity="1.0" stroke="rgb(0, 0, 0)" stroke-linejoin="round" d=" M 46.600, 1875.378 56.600, 1875.376 66.600, 1875.374 76.600, 1875.373 86.600, 1875.371 96.600, 1875.369 106.600, 1875.368 116.600, 1875.366 126.600, 1875.364 136.600, 1875.363 146.600, 1875.361 156.600, 1875.359 166.600, 1875.358 176.600, 1875.356 186.600, 1875.354 196.600, 1875.353 206.600, 1875.351 216.600, 1875.349 226.600, 1875.348 236.600, 1875.346 246.600, 1875.344 256.600, 1875.343 266.600, 1875.341 276.600, 1875.339 286.600, 1875.338 294.249, 1875.336 304.249, 1875.335 314.249, 1875.333 324.249, 1875.331 334.249, 1875.329 344.249, 1875.328 354.249, 1875.326 364.249, 1875.324 374.249, 1875.323 384.249, 1875.321 394.249, 1875.319 404.249, 1875.317 414.249, 1875.316 424.249, 1875.314 434.249, 1875.312 444.249, 1875.311 454.249, 1875.309 464.249, 1875.307 474.249, 1875.306 484.249, 1875.304 494.249, 1875.302 504.249, 1875.300 514.249, 1875.299 524.249, 1875.297 534.249, 1875.295 544.249, 1875.294 554.249, 1875.292 564.249, 1875.290 574.249, 1875.288 584.249, 1875.287 594.249, 1875.285 604.249, 1875.283 614.249, 1875.282 624.249, 1875.280 634.249, 1875.278 644.249, 1875.277 654.249, 1875.275 664.249, 1875.273 674.249, 1875.271 684.249, 1875.270 694.249, 1875.268 704.249, 1875.266 714.249, 1875.265 724.249, 1875.263 734.249, 1875.261 744.249, 1875.259 754.249, 1875.258 764.249, 1875.256 774.249, 1875.254 784.249, 1875.253 794.249, 1875.251 804.249, 1875.249 814.249, 1875.248 824.249, 1875.246 834.249, 1875.244 844.249, 1875.242 854.249, 1875.241 864.249, 1875.239 874.249, 1875.237 884.249, 1875.236 894.249, 1875.234 904.249, 1875.232 920.103, 1875.229 930.103, 1875.228 940.103, 1875.226 950.103, 1875.224 960.103, 1875.223 970.103, 1875.221 980.103, 1875.219 990.103, 1875.217 1000.103, 1875.216 1010.103, 1875.214 1020.103, 1875.212 1030.103, 1875.211 1040.103, 1875.209 1050.103, 1875.207 1060.103, 1875.206 1070.103, 1875.204 1080.103, 1875.202 1090.103, 1875.200 1100.103, 1875.199 1110.103, 1875.197 1120.103, 1875.195 1130.103, 1875.194 1140.103, 1875.192 1150.103, 1875.190 1160.103, 1875.188 1170.103, 1875.187 1180.103, 1875.185 1190.103, 1875.183 1200.103, 1875.182 1210.103, 1875.180 1220.103, 1875.178 1230.103, 1875.177 1240.103, 1875.175 1250.103, 1875.173 1260.103, 1875.171 1270.103, 1875.170 1280.103, 1875.168 1290.103, 1875.166 1300.103, 1875.165 1310.103, 1875.163 1320.103, 1875.161 1330.103, 1875.159 1340.103, 1875.158 1350.103, 1875.156 1360.103, 1875.154 1370.103, 1875.153 1380.103, 1875.151 1390.103, 1875.149 1400.103, 1875.148 1410.103, 1875.146 1420.103, 1875.144 1430.103, 1875.142 1440.103, 1875.141 1450.103, 1875.139 1460.103, 1875.137 1470.103, 1875.136 1480.103, 1875.134 1490.103, 1875.132 1500.103, 1875.130 1510.103, 1875.129 1520.103, 1875.127 1530.103, 1875.125 1540.103, 1875.124 1550.103, 1875.122 1560.103, 1875.120 1570.103, 1875.119 1580.103, 1875.117 1589.942, 1875.115 " />
            <path fill="none" stroke-width="3.0" stroke-linecap="butt" stroke-opacity="1.0" stroke="rgb(0, 0, 0)" stroke-linejoin="round" d=" M 61.804, 1183.667 60.679, 1193.604 59.553, 1203.540 58.428, 1213.477 58.147, 1215.958 " />
            <path fill="none" stroke-width="3.0" stroke-linecap="butt" stroke-opacity="1.0" stroke="rgb(0, 0, 0)" stroke-linejoin="round" d=" M 413.103, 1875.316 413.103, 1875.316 " />
            <path fill="none" stroke-width="3.0" stroke-linecap="butt" stroke-opacity="1.0" stroke="rgb(0, 0, 0)" stroke-linejoin="round" d=" M 620.735, 1875.198 620.742, 1875.198 621.073, 1875.173 " />
            <path fill="none" stroke-width="3.0" stroke-linecap="butt" stroke-opacity="1.0" stroke="rgb(0, 0, 0)" stroke-linejoin="round" d=" M 1595.546, 1875.114 1595.546, 1875.114 " />
            <path fill="none" stroke-width="3.0" stroke-linecap="butt" stroke-opacity="1.0" stroke="rgb(0, 0, 0)" stroke-linejoin="round" d=" M 1806.706, 1875.078 1808.506, 1875.077 " />
            <path fill="none" stroke-width="3.0" stroke-linecap="butt" stroke-opacity="1.0" stroke="rgb(0, 0, 0)" stroke-linejoin="round" d=" M 1810.338, 1875.077 1811.822, 1875.077 1811.823, 1875.077 1812.196, 1875.076 " />
            <path fill="none" stroke-width="3.0" stroke-linecap="butt" stroke-opacity="1.0" stroke="rgb(0, 0, 0)" stroke-linejoin="round" d=" M 2016.385, 1875.042 2016.352, 1875.042 2006.352, 1875.044 1996.352, 1875.046 1986.352, 1875.048 1976.352, 1875.049 1966.534, 1875.051 1966.464, 1875.051 " />
            <path fill="none" stroke-width="3.0" stroke-linecap="butt" stroke-opacity="1.0" stroke="rgb(0, 0, 0)" stroke-linejoin="round" d=" M 2262.940, 1875.000 2262.940, 1875.000 2262.889, 1875.000 2262.889, 1875.000 2262.866, 1875.000 " />
            <path fill="none" stroke-width="3.0" stroke-linecap="butt" stroke-opacity="1.0" stroke="rgb(0, 0, 0)" stroke-linejoin="round" d=" M 2476.842, 1874.964 2466.842, 1874.965 2456.842, 1874.967 2446.842, 1874.969 2436.842, 1874.971 2426.842, 1874.972 2416.842, 1874.974 2406.842, 1874.976 2396.842, 1874.977 2386.842, 1874.979 2376.842, 1874.981 2366.842, 1874.982 2356.842, 1874.984 2346.842, 1874.986 2336.842, 1874.987 2326.842, 1874.989 2316.842, 1874.991 2306.842, 1874.992 2296.842, 1874.994 2286.842, 1874.996 2276.842, 1874.998 2267.487, 1874.999 " />
            <path fill="none" stroke-width="3.0" stroke-linecap="butt" stroke-opacity="1.0" stroke="rgb(0, 0, 0)" stroke-linejoin="round" d=" M 2264.986, 1875.000 2263.746, 1875.000 2260.832, 1875.000 2258.814, 1875.001 2248.814, 1875.002 2238.814, 1875.004 2228.814, 1875.006 2218.814, 1875.007 2208.814, 1875.009 2198.814, 1875.011 2188.814, 1875.013 2178.814, 1875.014 2168.814, 1875.016 2158.814, 1875.018 2148.814, 1875.019 2138.814, 1875.021 2128.814, 1875.023 2118.814, 1875.024 2108.814, 1875.026 2098.814, 1875.028 2088.814, 1875.030 2078.814, 1875.031 2068.814, 1875.033 2058.814, 1875.035 2048.814, 1875.036 2038.814, 1875.038 2028.814, 1875.040 2018.814, 1875.041 2008.814, 1875.043 1998.814, 1875.045 1988.814, 1875.046 1978.814, 1875.048 1967.598, 1875.050 " />
            <path fill="none" stroke-width="3.0" stroke-linecap="butt" stroke-opacity="1.0" stroke="rgb(0, 0, 0)" stroke-linejoin="round" d=" M 2476.842, 1874.964 2466.842, 1874.965 2456.842, 1874.967 2446.842, 1874.969 2436.842, 1874.971 2426.842, 1874.972 2416.842, 1874.974 2406.842, 1874.976 2396.842, 1874.977 2386.842, 1874.979 2376.842, 1874.981 2366.842, 1874.982 2356.842, 1874.984 2346.842, 1874.986 2336.842, 1874.987 2326.842, 1874.989 2316.842, 1874.991 2306.842, 1874.993 2296.842, 1874.994 2286.842, 1874.996 2276.842, 1874.998 2267.295, 1874.999 " />
            <path fill="none" stroke-width="3.0" stroke-linecap="butt" stroke-opacity="1.0" stroke="rgb(0, 0, 0)" stroke-linejoin="round" d=" M 2267.126, 1874.999 2277.126, 1874.998 2287.126, 1874.996 2297.126, 1874.994 2307.126, 1874.993 2317.126, 1874.991 2327.126, 1874.989 2337.126, 1874.988 2347.126, 1874.986 2357.126, 1874.984 2367.126, 1874.982 2377.126, 1874.981 2387.126, 1874.979 2397.126, 1874.977 2407.126, 1874.976 2417.126, 1874.974 2427.126, 1874.972 2437.126, 1874.971 2447.126, 1874.969 2457.126, 1874.967 2467.126, 1874.965 2476.842, 1874.964 2466.842, 1874.965 2456.842, 1874.967 2446.842, 1874.969 2436.842, 1874.971 2426.842, 1874.972 2416.842, 1874.974 2406.842, 1874.976 2396.842, 1874.977 2386.842, 1874.979 2376.842, 1874.981 2366.842, 1874.983 2356.842, 1874.984 2346.842, 1874.986 2336.842, 1874.988 2326.842, 1874.989 2316.842, 1874.991 2306.842, 1874.993 2296.842, 1874.995 2286.842, 1874.996 2276.842, 1874.998 2266.866, 1875.000 " />
            <path fill="none" stroke-width="3.0" stroke-linecap="butt" stroke-opacity="1.0" stroke="rgb(0, 0, 0)" stroke-linejoin="round" d=" M 1967.176, 1875.050 1977.176, 1875.049 1987.176, 1875.047 1997.176, 1875.045 2007.176, 1875.044 2017.176, 1875.042 2027.176, 1875.040 2037.176, 1875.039 2047.176, 1875.037 2057.176, 1875.035 2067.176, 1875.033 2077.176, 1875.032 2087.176, 1875.030 2097.176, 1875.028 2107.176, 1875.027 2117.176, 1875.025 2127.176, 1875.023 2137.176, 1875.022 2147.176, 1875.020 2157.176, 1875.018 2167.176, 1875.016 2177.176, 1875.015 2187.176, 1875.013 2197.176, 1875.011 2207.176, 1875.010 2217.176, 1875.008 2227.176, 1875.006 2238.085, 1875.004 2248.085, 1875.003 2257.434, 1875.001 2258.549, 1875.001 2261.574, 1875.000 2263.427, 1875.000 2265.714, 1875.000 " />
            <path fill="none" stroke-width="3.0" stroke-linecap="butt" stroke-opacity="1.0" stroke="rgb(0, 0, 0)" stroke-linejoin="round" d=" M 1810.338, 1875.077 1810.338, 1875.077 1820.338, 1875.075 1830.338, 1875.074 1832.260, 1875.073 1832.276, 1875.073 " />
            <path fill="none" stroke-width="3.0" stroke-linecap="butt" stroke-opacity="1.0" stroke="rgb(0, 0, 0)" stroke-linejoin="round" d=" M 1812.657, 1875.076 1811.823, 1875.077 1811.823, 1875.077 " />
            <path fill="none" stroke-width="3.0" stroke-linecap="butt" stroke-opacity="1.0" stroke="rgb(0, 0, 0)" stroke-linejoin="round" d=" M 2265.133, 1875.000 2263.682, 1875.000 2260.982, 1875.000 2258.761, 1875.001 2248.761, 1875.002 2238.761, 1875.004 2228.761, 1875.006 2218.761, 1875.008 2208.761, 1875.009 2198.761, 1875.011 2188.761, 1875.013 2178.761, 1875.014 2168.761, 1875.016 2158.761, 1875.018 2148.761, 1875.019 2138.761, 1875.021 2128.761, 1875.023 2118.761, 1875.024 2108.761, 1875.026 2098.761, 1875.028 2088.761, 1875.030 2078.761, 1875.031 2068.761, 1875.033 2058.761, 1875.035 2048.761, 1875.036 2038.761, 1875.038 2028.761, 1875.040 2018.761, 1875.041 2008.761, 1875.043 1998.761, 1875.045 1988.761, 1875.047 1978.761, 1875.048 1967.513, 1875.050 " />
            <path fill="none" stroke-width="3.0" stroke-linecap="butt" stroke-opacity="1.0" stroke="rgb(0, 0, 0)" stroke-linejoin="round" d=" M 2476.842, 1874.964 2466.842, 1874.965 2456.842, 1874.967 2446.842, 1874.969 2436.842, 1874.971 2426.842, 1874.972 2416.842, 1874.974 2406.842, 1874.976 2396.842, 1874.977 2386.842, 1874.979 2376.842, 1874.981 2366.842, 1874.982 2356.842, 1874.984 2346.842, 1874.986 2336.842, 1874.988 2326.842, 1874.989 2316.842, 1874.991 2306.842, 1874.993 2296.842, 1874.994 2286.842, 1874.996 2276.842, 1874.998 2267.261, 1874.999 " />
            <path fill="none" stroke-width="3.0" stroke-linecap="butt" stroke-opacity="1.0" stroke="rgb(0, 0, 0)" stroke-linejoin="round" d=" M 2267.088, 1874.999 2277.088, 1874.998 2287.088, 1874.996 2297.088, 1874.994 2307.088, 1874.993 2317.088, 1874.991 2327.088, 1874.989 2337.088, 1874.988 2347.088, 1874.986 2357.088, 1874.984 2367.088, 1874.982 2377.088, 1874.981 2387.088, 1874.979 2397.088, 1874.977 2407.088, 1874.976 2417.088, 1874.974 2427.088, 1874.972 2437.088, 1874.971 2447.088, 1874.969 2457.088, 1874.967 2467.088, 1874.965 2476.842, 1874.964 " />
            <path fill="none" stroke-width="3.0" stroke-linecap="butt" stroke-opacity="1.0" stroke="rgb(0, 0, 0)" stroke-linejoin="round" d=" M 1967.083, 1875.051 1977.083, 1875.049 1987.083, 1875.047 1997.083, 1875.045 2007.083, 1875.044 2017.083, 1875.042 2027.083, 1875.040 2037.083, 1875.039 2047.083, 1875.037 2057.083, 1875.035 2067.083, 1875.034 2077.083, 1875.032 2087.083, 1875.030 2097.083, 1875.028 2107.083, 1875.027 2117.083, 1875.025 2127.083, 1875.023 2137.083, 1875.022 2147.083, 1875.020 2157.083, 1875.018 2167.083, 1875.016 2177.083, 1875.015 2187.083, 1875.013 2197.083, 1875.011 2207.083, 1875.010 2217.083, 1875.008 2220.185, 1875.007 2230.185, 1875.006 2240.185, 1875.004 2250.185, 1875.002 2257.600, 1875.001 2258.490, 1875.001 2261.737, 1875.000 2263.357, 1875.000 2265.874, 1875.000 " />
            <path fill="none" stroke-width="3.0" stroke-linecap="butt" stroke-opacity="1.0" stroke="rgb(0, 0, 0)" stroke-linejoin="round" d=" M 1806.706, 1875.078 1806.707, 1875.078 1816.707, 1875.076 1826.707, 1875.074 1836.707, 1875.073 1846.707, 1875.071 1853.732, 1875.070 1853.747, 1875.070 " />
            <path fill="none" stroke-width="3.0" stroke-linecap="butt" stroke-opacity="1.0" stroke="rgb(0, 0, 0)" stroke-linejoin="round" d=" M 2264.778, 1875.000 2263.836, 1875.000 2260.620, 1875.000 2258.890, 1875.001 2248.890, 1875.002 2238.890, 1875.004 2228.890, 1875.006 2218.890, 1875.007 2208.890, 1875.009 2198.890, 1875.011 2188.890, 1875.013 2178.890, 1875.014 2168.890, 1875.016 2158.890, 1875.018 2148.890, 1875.019 2138.890, 1875.021 2128.890, 1875.023 2118.890, 1875.024 2108.890, 1875.026 2098.890, 1875.028 2088.890, 1875.029 2078.890, 1875.031 2068.890, 1875.033 2058.890, 1875.035 2048.890, 1875.036 2038.890, 1875.038 2028.890, 1875.040 2018.890, 1875.041 2008.890, 1875.043 1998.890, 1875.045 1988.890, 1875.046 1978.890, 1875.048 1967.718, 1875.050 " />
            <path fill="none" stroke-width="3.0" stroke-linecap="butt" stroke-opacity="1.0" stroke="rgb(0, 0, 0)" stroke-linejoin="round" d=" M 1966.532, 1875.051 1976.532, 1875.049 1986.532, 1875.048 1996.532, 1875.046 2006.532, 1875.044 2016.385, 1875.042 2026.385, 1875.041 2036.385, 1875.039 2046.385, 1875.037 2056.385, 1875.036 2066.385, 1875.034 2076.385, 1875.032 2086.385, 1875.031 2096.385, 1875.029 2106.385, 1875.027 2116.385, 1875.025 2126.385, 1875.024 2136.385, 1875.022 2146.385, 1875.020 2156.385, 1875.019 2166.385, 1875.017 2176.385, 1875.015 2186.385, 1875.013 2196.385, 1875.012 2206.385, 1875.010 2216.385, 1875.008 2226.385, 1875.007 2236.385, 1875.005 2246.385, 1875.003 2256.385, 1875.001 2262.696, 1875.000 2262.940, 1875.000 2266.814, 1875.000 " />
            <path fill="none" stroke-width="3.0" stroke-linecap="butt" stroke-opacity="1.0" stroke="rgb(0, 0, 0)" stroke-linejoin="round" d=" M 2266.866, 1875.000 2276.866, 1874.998 2286.866, 1874.996 2296.866, 1874.995 2306.866, 1874.993 2316.866, 1874.991 2326.866, 1874.989 2336.866, 1874.988 2346.866, 1874.986 2356.866, 1874.984 2366.866, 1874.983 2376.866, 1874.981 2386.866, 1874.979 2396.866, 1874.977 2406.866, 1874.976 2416.866, 1874.974 2426.866, 1874.972 2436.866, 1874.971 2446.866, 1874.969 2456.866, 1874.967 2466.866, 1874.965 2476.842, 1874.964 " />
            <path fill="none" stroke-width="3.0" stroke-linecap="butt" stroke-opacity="1.0" stroke="rgb(0, 0, 0)" stroke-linejoin="round" d=" M 1966.532, 1875.051 1976.532, 1875.049 1986.532, 1875.048 1996.532, 1875.046 2006.532, 1875.044 2016.352, 1875.042 2026.352, 1875.041 2036.352, 1875.039 2046.352, 1875.037 2056.352, 1875.036 2066.352, 1875.034 2076.352, 1875.032 2086.352, 1875.031 2096.352, 1875.029 2106.352, 1875.027 2116.352, 1875.025 2126.352, 1875.024 2136.352, 1875.022 2146.352, 1875.020 2156.352, 1875.019 2166.352, 1875.017 2176.352, 1875.015 2186.352, 1875.013 2196.352, 1875.012 2206.352, 1875.010 2216.352, 1875.008 2226.352, 1875.007 2236.352, 1875.005 2246.352, 1875.003 2256.352, 1875.001 2262.696, 1875.000 2262.940, 1875.000 2266.814, 1875.000 " />
            <path fill="none" stroke-width="3.0" stroke-linecap="butt" stroke-opacity="1.0" stroke="rgb(0, 0, 0)" stroke-linejoin="round" d=" M 2476.842, 1874.964 2476.841, 1874.964 " />
            <path fill="none" stroke-width="3.0" stroke-linecap="butt" stroke-opacity="1.0" stroke="rgb(0, 0, 0)" stroke-linejoin="round" d=" M 293.279, 1875.336 294.541, 1875.336 304.541, 1875.334 314.541, 1875.333 324.541, 1875.331 334.541, 1875.329 344.541, 1875.328 354.541, 1875.326 364.541, 1875.324 374.541, 1875.322 384.541, 1875.321 394.541, 1875.319 404.541, 1875.317 412.982, 1875.316 413.103, 1875.316 423.103, 1875.314 433.103, 1875.312 443.103, 1875.311 453.103, 1875.309 463.103, 1875.307 473.103, 1875.306 483.103, 1875.304 493.103, 1875.302 503.103, 1875.300 513.103, 1875.299 523.103, 1875.297 533.103, 1875.295 543.103, 1875.294 553.103, 1875.292 563.103, 1875.290 573.103, 1875.289 583.103, 1875.287 593.103, 1875.285 603.103, 1875.283 613.103, 1875.282 619.517, 1875.281 " />
            <path fill="none" stroke-width="3.0" stroke-linecap="butt" stroke-opacity="1.0" stroke="rgb(0, 0, 0)" stroke-linejoin="round" d=" M 2476.842, 1874.964 2479.437, 1865.306 2482.032, 1855.649 2484.627, 1845.991 2487.221, 1836.334 2489.816, 1826.676 2492.411, 1817.019 2495.006, 1807.361 2495.917, 1803.971 " />
        </g>
    </g>
<g id="slice-labels"><text x="515.0713333333333" y="486.56924999999995" text-anchor="middle" dominant-baseline="middle" font-family="Arial, sans-serif" font-size="59.068749003077485" font-weight="bold" fill="black" stroke="none" stroke-width="7.088249880369297" paint-order="stroke fill">Slice6 (Back)</text><text x="1499.0100000000002" y="486.56924999999995" text-anchor="middle" dominant-baseline="middle" font-family="Arial, sans-serif" font-size="59.068749003077485" font-weight="bold" fill="black" stroke="none" stroke-width="7.088249880369297" paint-order="stroke fill">Slice6 (Back)</text><text x="2482.9486666666667" y="486.56924999999995" text-anchor="middle" dominant-baseline="middle" font-family="Arial, sans-serif" font-size="59.068749003077485" font-weight="bold" fill="black" stroke="none" stroke-width="7.088249880369297" paint-order="stroke fill">Slice6 (Back)</text><text x="515.0713333333333" y="1412.44175" text-anchor="middle" dominant-baseline="middle" font-family="Arial, sans-serif" font-size="59.068749003077485" font-weight="bold" fill="black" stroke="none" stroke-width="7.088249880369297" paint-order="stroke fill">Slice6 (Back)</text><text x="1499.0100000000002" y="1412.44175" text-anchor="middle" dominant-baseline="middle" font-family="Arial, sans-serif" font-size="59.068749003077485" font-weight="bold" fill="black" stroke="none" stroke-width="7.088249880369297" paint-order="stroke fill">Slice6 (Back)</text><text x="2482.9486666666667" y="1412.44175" text-anchor="middle" dominant-baseline="middle" font-family="Arial, sans-serif" font-size="59.068749003077485" font-weight="bold" fill="black" stroke="none" stroke-width="7.088249880369297" paint-order="stroke fill">Slice6 (Back)</text></g></svg>