<?xml version='1.0' encoding='utf-8'?>
<svg xmlns="http://www.w3.org/2000/svg" xmlns:inkscape="http://www.inkscape.org/namespaces/inkscape" version="1.1" width="499.78167870640755mm" height="194.466970205307mm" viewBox="-0.15455146031060707 0.005449968464770194 5903.309102920621 2297.0001000630705" preserveAspectRatio="none">
    <g id="ViewLayer_LineSet" inkscape:groupmode="lineset" inkscape:label="ViewLayer_LineSet">
        <g inkscape:groupmode="layer" id="strokes" inkscape:label="strokes">
            <path fill="none" stroke-width="3.0" stroke-linecap="butt" stroke-opacity="1.0" stroke="rgb(0, 0, 0)" stroke-linejoin="round" d=" M 5879.531, 2126.595 5876.397, 2136.092 5873.265, 2145.588 5870.132, 2155.085 5866.999, 2164.581 5863.866, 2174.078 5860.733, 2183.575 5857.600, 2193.071 5854.467, 2202.568 5851.334, 2212.064 5848.201, 2221.561 5845.068, 2231.057 5841.935, 2240.554 5838.802, 2250.050 5835.669, 2259.547 5832.536, 2269.044 5831.105, 2273.382 5821.105, 2273.382 5817.116, 2273.382 5807.116, 2273.382 5797.116, 2273.382 5787.116, 2273.382 5782.371, 2273.382 " />
            <path fill="none" stroke-width="3.0" stroke-linecap="butt" stroke-opacity="1.0" stroke="rgb(0, 0, 0)" stroke-linejoin="round" d=" M 4032.613, 1445.578 4032.511, 1455.577 4032.409, 1465.577 4032.307, 1475.576 4032.205, 1485.576 4032.104, 1495.575 4032.001, 1505.575 4031.899, 1515.574 4031.797, 1525.574 4031.696, 1535.573 4031.594, 1545.573 4031.491, 1555.572 4031.390, 1565.571 4031.288, 1575.571 4031.186, 1585.570 4031.083, 1595.570 4030.982, 1605.569 4030.880, 1615.569 4030.778, 1625.568 4030.676, 1635.568 4030.574, 1645.567 4030.472, 1655.567 4030.370, 1665.566 4030.268, 1675.566 4030.166, 1685.565 4030.126, 1689.496 4030.126, 1689.497 4031.742, 1699.365 4033.359, 1709.233 4034.975, 1719.102 4036.592, 1728.970 4038.208, 1738.839 4039.825, 1748.707 4041.442, 1758.576 4043.058, 1768.444 4044.675, 1778.313 4046.292, 1788.181 4047.908, 1798.050 4049.525, 1807.918 4051.141, 1817.787 4052.758, 1827.655 4054.374, 1837.524 4055.991, 1847.392 4057.607, 1857.261 4059.221, 1867.113 4063.687, 1876.061 4068.151, 1885.009 4072.616, 1893.956 4077.082, 1902.904 4081.547, 1911.852 4086.012, 1920.800 4090.477, 1929.748 4094.942, 1938.695 4099.407, 1947.643 4103.872, 1956.591 4108.337, 1965.539 4112.587, 1974.056 " />
            <path fill="none" stroke-width="3.0" stroke-linecap="butt" stroke-opacity="1.0" stroke="rgb(0, 0, 0)" stroke-linejoin="round" d=" M 2560.106, 2273.382 2550.106, 2273.382 2540.106, 2273.382 2530.106, 2273.382 2520.106, 2273.382 2510.106, 2273.382 2500.106, 2273.382 2490.106, 2273.382 2480.106, 2273.382 2470.106, 2273.382 2460.106, 2273.382 2450.106, 2273.382 2440.106, 2273.382 2430.106, 2273.382 2420.106, 2273.382 2410.106, 2273.382 2400.106, 2273.382 2390.106, 2273.382 2380.106, 2273.382 2370.106, 2273.382 2360.106, 2273.382 2350.106, 2273.382 2340.106, 2273.382 2330.106, 2273.382 2320.106, 2273.382 2310.106, 2273.382 2300.106, 2273.382 2290.106, 2273.382 2284.531, 2273.382 " />
            <path fill="none" stroke-width="3.0" stroke-linecap="butt" stroke-opacity="1.0" stroke="rgb(0, 0, 0)" stroke-linejoin="round" d=" M 319.020, 2273.382 317.124, 2263.563 315.229, 2253.744 313.334, 2243.926 311.439, 2234.107 309.543, 2224.288 307.648, 2214.469 305.753, 2204.651 303.858, 2194.832 301.962, 2185.013 300.067, 2175.194 298.172, 2165.376 296.277, 2155.557 294.831, 2148.069 293.488, 2138.160 292.145, 2128.250 290.801, 2118.341 289.458, 2108.432 288.115, 2098.522 286.771, 2088.613 285.428, 2078.703 284.085, 2068.794 282.741, 2058.885 281.398, 2048.975 280.055, 2039.066 278.712, 2029.157 277.368, 2019.247 276.025, 2009.338 274.682, 1999.429 273.338, 1989.519 271.995, 1979.610 270.652, 1969.700 269.308, 1959.791 267.965, 1949.882 266.622, 1939.972 265.278, 1930.063 263.935, 1920.154 262.592, 1910.244 261.249, 1900.335 259.905, 1890.426 258.562, 1880.516 257.219, 1870.607 255.875, 1860.697 254.532, 1850.788 253.189, 1840.879 251.845, 1830.969 250.884, 1823.878 250.804, 1813.878 250.723, 1803.879 250.643, 1793.879 250.562, 1783.879 250.482, 1773.880 250.401, 1763.880 250.321, 1753.880 250.240, 1743.881 250.160, 1733.881 250.079, 1723.881 249.999, 1713.882 249.918, 1703.882 249.838, 1693.882 249.757, 1683.883 249.677, 1673.883 249.596, 1663.883 249.516, 1653.884 249.435, 1643.884 249.355, 1633.884 249.274, 1623.885 249.194, 1613.885 249.113, 1603.885 249.033, 1593.886 248.952, 1583.886 248.872, 1573.886 248.791, 1563.887 248.694, 1551.841 248.694, 1551.841 249.881, 1541.911 251.068, 1531.982 252.255, 1522.053 253.442, 1512.124 254.629, 1502.194 255.816, 1492.265 257.003, 1482.336 258.190, 1472.406 259.377, 1462.477 260.564, 1452.548 261.751, 1442.618 262.938, 1432.689 264.125, 1422.760 265.312, 1412.831 266.499, 1402.901 267.686, 1392.972 268.873, 1383.043 270.060, 1373.113 271.247, 1363.184 272.434, 1353.255 273.621, 1343.325 274.808, 1333.396 275.995, 1323.467 277.182, 1313.537 278.369, 1303.608 279.555, 1293.679 280.742, 1283.750 281.929, 1273.820 283.116, 1263.891 284.303, 1253.962 285.490, 1244.032 286.677, 1234.103 287.864, 1224.174 289.051, 1214.245 290.238, 1204.315 291.425, 1194.386 292.612, 1184.457 293.799, 1174.527 294.986, 1164.598 296.173, 1154.669 297.360, 1144.739 298.547, 1134.810 299.734, 1124.881 300.921, 1114.951 301.539, 1109.778 " />
            <path fill="none" stroke-width="3.0" stroke-linecap="butt" stroke-opacity="1.0" stroke="rgb(0, 0, 0)" stroke-linejoin="round" d=" M 1163.367, 558.448 1160.848, 561.031 1158.204, 563.485 1155.441, 565.803 1152.565, 567.982 1149.584, 570.014 1146.506, 571.895 1143.338, 573.620 1140.088, 575.185 1136.764, 576.586 1133.374, 577.820 1129.927, 578.884 1126.432, 579.774 1122.896, 580.488 1119.329, 581.026 1115.740, 581.385 1112.137, 581.565 1108.529, 581.565 1104.926, 581.385 1101.337, 581.026 1097.770, 580.488 1094.234, 579.774 1090.738, 578.884 1087.291, 577.820 1083.901, 576.586 1080.577, 575.185 1077.327, 573.620 1074.159, 571.895 1071.081, 570.014 1068.101, 567.982 1065.225, 565.803 1062.462, 563.485 1059.817, 561.031 1057.299, 558.448 1054.912, 555.744 1052.662, 552.924 1050.557, 549.995 1048.599, 546.965 1046.796, 543.840 1045.151, 540.630 1043.667, 537.343 1042.349, 533.984 1041.200, 530.565 1040.223, 527.092 1039.420, 523.575 1038.794, 520.023 1038.345, 516.443 1038.076, 512.846 1037.986, 509.240 1038.076, 505.634 1038.345, 502.037 1038.794, 498.457 1039.420, 494.905 1040.223, 491.388 1041.200, 487.915 1042.349, 484.496 1043.667, 481.138 1045.151, 477.850 1046.796, 474.640 1048.599, 471.516 1050.557, 468.485 1052.662, 465.557 1054.912, 462.737 1057.299, 460.032 1059.817, 457.449 1062.462, 454.996 1065.225, 452.677 1068.101, 450.499 1071.081, 448.467 1074.159, 446.585 1077.327, 444.860 1080.577, 443.295 1083.901, 441.894 1087.291, 440.660 1090.738, 439.597 1094.234, 438.707 1097.770, 437.992 1101.337, 437.454 1104.926, 437.095 1108.529, 436.915 1112.137, 436.915 1115.740, 437.095 1119.329, 437.454 1122.896, 437.992 1126.432, 438.707 1129.927, 439.597 1133.374, 440.660 1136.764, 441.894 1140.088, 443.295 1143.338, 444.860 1146.506, 446.585 1149.584, 448.467 1152.565, 450.499 1155.441, 452.677 1158.204, 454.996 1160.848, 457.449 1163.367, 460.032 1165.754, 462.737 1168.003, 465.557 1170.109, 468.485 1172.066, 471.516 1173.870, 474.640 1175.515, 477.850 1176.999, 481.138 1178.317, 484.496 1179.466, 487.915 1180.443, 491.388 1181.245, 494.905 1181.872, 498.457 1182.320, 502.037 1182.590, 505.634 1182.680, 509.240 1182.590, 512.846 1182.320, 516.443 1181.872, 520.023 1181.245, 523.575 1180.443, 527.092 1179.466, 530.565 1178.317, 533.984 1176.999, 537.343 1175.515, 540.630 1173.870, 543.840 1172.066, 546.965 1170.109, 549.995 1168.003, 552.924 1165.754, 555.744 1163.367, 558.448 " />
            <path fill="none" stroke-width="3.0" stroke-linecap="butt" stroke-opacity="1.0" stroke="rgb(0, 0, 0)" stroke-linejoin="round" d=" M 5704.338, 130.435 5701.848, 120.750 5699.358, 111.065 5696.868, 101.380 5694.377, 91.695 5691.887, 82.010 5689.397, 72.325 5686.907, 62.640 5684.417, 52.955 5681.926, 43.270 5679.436, 33.585 5677.879, 27.530 5677.565, 23.629 5667.565, 23.629 5657.565, 23.629 5647.565, 23.629 5637.565, 23.629 5627.565, 23.629 5625.056, 23.629 5615.056, 23.629 5605.056, 23.629 5595.056, 23.629 5585.056, 23.629 5575.056, 23.629 5565.056, 23.629 5555.056, 23.629 5545.056, 23.629 5535.056, 23.629 5525.056, 23.629 5515.056, 23.629 5505.056, 23.629 5495.056, 23.629 5485.056, 23.629 5475.056, 23.629 5465.056, 23.629 5455.056, 23.629 5445.056, 23.629 5435.056, 23.629 5425.056, 23.629 5415.056, 23.629 5405.056, 23.629 5395.056, 23.629 5385.056, 23.629 5375.056, 23.629 5365.056, 23.629 5355.056, 23.629 5345.056, 23.629 5335.056, 23.629 5325.056, 23.629 5315.056, 23.629 5305.056, 23.629 5295.056, 23.629 5285.056, 23.629 5275.056, 23.629 5265.056, 23.629 5255.056, 23.629 5245.056, 23.629 5235.056, 23.629 5225.056, 23.629 5215.056, 23.629 5205.056, 23.629 5195.056, 23.629 5185.056, 23.629 5175.056, 23.629 5165.056, 23.629 5155.056, 23.629 5145.056, 23.629 5135.056, 23.629 5125.056, 23.629 5115.056, 23.629 5105.056, 23.629 5095.056, 23.629 5085.056, 23.629 5075.056, 23.629 5065.056, 23.629 5055.056, 23.629 5045.056, 23.629 5035.056, 23.629 5025.056, 23.629 5015.056, 23.629 5005.056, 23.629 4995.056, 23.629 4985.056, 23.629 4975.056, 23.629 4965.056, 23.629 4955.056, 23.629 4945.056, 23.629 4935.056, 23.629 4925.056, 23.629 4915.056, 23.629 4905.056, 23.629 4895.056, 23.629 4885.056, 23.629 4875.056, 23.629 4865.056, 23.629 4855.056, 23.629 4845.056, 23.629 4835.056, 23.629 4825.056, 23.629 4815.056, 23.629 4805.056, 23.629 4795.056, 23.629 4785.056, 23.629 4775.056, 23.629 4765.056, 23.629 4755.056, 23.629 4745.056, 23.629 4735.056, 23.629 4725.056, 23.629 4715.056, 23.629 4705.056, 23.629 4695.056, 23.629 4685.056, 23.629 4675.056, 23.629 4665.056, 23.629 4655.056, 23.629 4645.056, 23.629 4635.056, 23.629 4625.056, 23.629 4615.056, 23.629 4605.056, 23.629 4595.056, 23.629 4585.056, 23.629 4575.056, 23.629 4565.056, 23.629 4555.056, 23.629 4545.056, 23.629 4535.056, 23.629 4525.056, 23.629 4515.056, 23.629 4505.056, 23.629 4495.056, 23.629 4485.056, 23.629 4475.056, 23.629 4465.056, 23.629 4455.056, 23.629 4445.056, 23.629 4435.056, 23.629 4425.056, 23.629 4415.056, 23.629 4405.056, 23.629 4395.056, 23.629 4385.056, 23.629 4375.056, 23.629 4365.056, 23.629 4355.056, 23.629 4345.056, 23.629 4335.056, 23.629 4325.056, 23.629 4315.056, 23.629 4305.056, 23.629 4295.056, 23.629 4285.056, 23.629 4275.056, 23.629 4265.056, 23.629 4255.056, 23.629 4245.056, 23.629 4235.056, 23.629 4225.056, 23.629 4215.056, 23.629 4205.056, 23.629 4195.056, 23.629 4185.056, 23.629 4175.056, 23.629 4165.056, 23.629 4155.056, 23.629 4145.056, 23.629 4135.056, 23.629 4125.056, 23.629 4115.056, 23.629 4105.056, 23.629 4095.056, 23.629 4085.056, 23.629 4075.056, 23.629 4065.056, 23.629 4055.056, 23.629 4045.056, 23.629 4035.056, 23.629 4025.056, 23.629 4015.056, 23.629 4005.056, 23.629 3995.056, 23.629 3985.056, 23.629 3975.056, 23.629 3965.056, 23.629 3955.056, 23.629 3945.056, 23.629 3919.934, 23.629 " />
            <path fill="none" stroke-width="3.0" stroke-linecap="butt" stroke-opacity="1.0" stroke="rgb(0, 0, 0)" stroke-linejoin="round" d=" M 4112.587, 1974.056 4112.587, 1974.056 4108.508, 1983.187 4104.429, 1992.317 4100.350, 2001.447 4096.271, 2010.577 4092.192, 2019.708 4088.113, 2028.838 4084.034, 2037.968 4079.955, 2047.099 4075.876, 2056.229 4071.797, 2065.359 4067.718, 2074.489 4063.639, 2083.620 4059.560, 2092.750 4055.481, 2101.880 4051.402, 2111.010 4047.323, 2120.141 4043.244, 2129.271 4039.165, 2138.401 4035.086, 2147.531 4031.007, 2156.662 4026.928, 2165.792 4022.849, 2174.922 4018.262, 2185.191 4016.424, 2195.021 4014.587, 2204.850 4012.749, 2214.680 4010.912, 2224.510 4009.074, 2234.339 4007.237, 2244.169 4005.399, 2253.999 4003.562, 2263.829 4001.776, 2273.382 4001.776, 2273.382 4011.776, 2273.382 4021.776, 2273.382 4031.776, 2273.382 4041.776, 2273.382 4051.776, 2273.382 4061.776, 2273.382 4071.776, 2273.382 4081.776, 2273.382 4091.776, 2273.382 4101.776, 2273.382 4111.776, 2273.382 4121.776, 2273.382 4131.776, 2273.382 4141.776, 2273.382 4151.776, 2273.382 4161.776, 2273.382 4171.776, 2273.382 4181.776, 2273.382 4191.776, 2273.382 4201.776, 2273.382 4211.776, 2273.382 4221.776, 2273.382 4231.776, 2273.382 4241.776, 2273.382 4251.776, 2273.382 4261.776, 2273.382 4271.776, 2273.382 4281.776, 2273.382 4291.776, 2273.382 4301.776, 2273.382 4311.776, 2273.382 4321.776, 2273.382 4331.776, 2273.382 4341.776, 2273.382 4351.776, 2273.382 4361.776, 2273.382 4371.776, 2273.382 4381.776, 2273.382 4391.776, 2273.382 4401.776, 2273.382 4411.776, 2273.382 4421.776, 2273.382 4431.776, 2273.382 4441.776, 2273.382 4451.776, 2273.382 4461.776, 2273.382 4471.776, 2273.382 4481.776, 2273.382 4491.776, 2273.382 4501.776, 2273.382 4511.776, 2273.382 4521.776, 2273.382 4531.776, 2273.382 4541.776, 2273.382 4551.776, 2273.382 4561.776, 2273.382 4571.776, 2273.382 4581.776, 2273.382 4591.776, 2273.382 4601.776, 2273.382 4611.776, 2273.382 4621.776, 2273.382 4631.776, 2273.382 4641.776, 2273.382 4651.776, 2273.382 4661.776, 2273.382 4671.776, 2273.382 4681.776, 2273.382 4691.776, 2273.382 4701.776, 2273.382 4711.776, 2273.382 4721.776, 2273.382 4731.776, 2273.382 4741.776, 2273.382 4751.776, 2273.382 4761.776, 2273.382 4771.776, 2273.382 4781.776, 2273.382 4791.776, 2273.382 4801.776, 2273.382 4811.776, 2273.382 4821.776, 2273.382 4831.776, 2273.382 4841.776, 2273.382 4851.776, 2273.382 4861.776, 2273.382 4871.776, 2273.382 4881.776, 2273.382 4891.776, 2273.382 4901.776, 2273.382 4911.776, 2273.382 4921.776, 2273.382 4931.776, 2273.382 4941.776, 2273.382 4951.776, 2273.382 4961.776, 2273.382 4971.776, 2273.382 4981.776, 2273.382 4991.776, 2273.382 5001.776, 2273.382 5011.776, 2273.382 5021.776, 2273.382 5031.776, 2273.382 5041.776, 2273.382 5051.776, 2273.382 5061.776, 2273.382 5071.776, 2273.382 5081.776, 2273.382 5091.776, 2273.382 5101.776, 2273.382 5111.776, 2273.382 5121.776, 2273.382 5131.776, 2273.382 5141.776, 2273.382 5151.776, 2273.382 5161.776, 2273.382 5171.776, 2273.382 5181.776, 2273.382 5191.776, 2273.382 5201.776, 2273.382 5211.776, 2273.382 5221.776, 2273.382 5231.776, 2273.382 5241.776, 2273.382 5251.776, 2273.382 5261.776, 2273.382 5271.776, 2273.382 5281.776, 2273.382 5291.776, 2273.382 5301.776, 2273.382 5311.776, 2273.382 5321.776, 2273.382 5331.776, 2273.382 5341.776, 2273.382 5351.776, 2273.382 5361.776, 2273.382 5371.776, 2273.382 5381.776, 2273.382 5391.776, 2273.382 5401.776, 2273.382 5411.776, 2273.382 5421.776, 2273.382 5431.776, 2273.382 5441.776, 2273.382 5451.776, 2273.382 5461.776, 2273.382 5471.776, 2273.382 5481.776, 2273.382 5491.776, 2273.382 5501.776, 2273.382 5511.776, 2273.382 5521.776, 2273.382 5531.776, 2273.382 5541.776, 2273.382 5551.776, 2273.382 5561.776, 2273.382 5571.776, 2273.382 5581.776, 2273.382 5591.776, 2273.382 5601.776, 2273.382 5611.776, 2273.382 5621.776, 2273.382 5631.776, 2273.382 5641.776, 2273.382 5651.776, 2273.382 5661.776, 2273.382 5671.776, 2273.382 5681.776, 2273.382 5691.776, 2273.382 5701.776, 2273.382 5711.776, 2273.382 5721.776, 2273.382 5731.776, 2273.382 5741.776, 2273.382 5751.776, 2273.382 5761.776, 2273.382 5771.776, 2273.382 5781.776, 2273.382 5791.776, 2273.382 5801.776, 2273.382 5811.776, 2273.382 5831.105, 2273.382 5834.238, 2263.885 5837.371, 2254.389 5840.504, 2244.892 5843.637, 2235.396 5846.770, 2225.899 5849.903, 2216.403 5853.036, 2206.906 5856.168, 2197.410 5859.302, 2187.913 5862.435, 2178.416 5865.567, 2168.920 5868.700, 2159.423 5871.833, 2149.927 5874.966, 2140.430 5878.099, 2130.934 5879.531, 2126.595 5879.531, 2126.595 5877.431, 2116.818 5875.332, 2107.040 5873.233, 2097.263 5871.134, 2087.486 5869.035, 2077.709 5866.936, 2067.932 5864.836, 2058.155 5862.737, 2048.377 5860.638, 2038.600 5858.539, 2028.823 5856.439, 2019.046 5854.340, 2009.269 5852.241, 1999.491 5850.142, 1989.714 5848.042, 1979.937 5845.943, 1970.160 5843.844, 1960.383 5841.745, 1950.606 5839.646, 1940.828 5837.546, 1931.051 5835.447, 1921.274 5833.348, 1911.497 5831.249, 1901.720 5829.150, 1891.942 5827.051, 1882.165 5824.951, 1872.388 5822.852, 1862.611 5820.753, 1852.834 5818.654, 1843.056 5816.555, 1833.279 5814.456, 1823.502 5812.356, 1813.725 5810.257, 1803.948 5808.158, 1794.171 5806.059, 1784.393 5803.959, 1774.616 5801.860, 1764.839 5799.761, 1755.062 5797.662, 1745.285 5795.562, 1735.507 5793.463, 1725.730 5791.364, 1715.953 5789.265, 1706.176 5787.166, 1696.399 5785.066, 1686.622 5782.967, 1676.844 5780.868, 1667.067 5778.769, 1657.290 5776.670, 1647.513 5775.468, 1641.914 5774.618, 1631.950 5773.768, 1621.986 5772.917, 1612.022 5772.067, 1602.059 5771.217, 1592.095 5770.367, 1582.131 5769.517, 1572.167 5768.667, 1562.203 5767.816, 1552.240 5766.966, 1542.276 5766.116, 1532.312 5765.266, 1522.348 5764.416, 1512.384 5763.566, 1502.421 5762.716, 1492.457 5761.866, 1482.493 5761.016, 1472.529 5760.166, 1462.565 5759.315, 1452.602 5758.465, 1442.638 5757.615, 1432.674 5756.765, 1422.710 5755.915, 1412.747 5755.064, 1402.783 5754.214, 1392.819 5753.364, 1382.855 5752.514, 1372.891 5751.664, 1362.927 5750.814, 1352.964 5749.964, 1343.000 5749.114, 1333.036 5748.264, 1323.072 5747.414, 1313.109 5746.925, 1307.379 5746.563, 1297.386 5746.201, 1287.392 5745.840, 1277.399 5745.478, 1267.405 5745.117, 1257.412 5744.755, 1247.418 5744.394, 1237.425 5744.032, 1227.432 5743.670, 1217.438 5743.309, 1207.445 5742.947, 1197.451 5742.585, 1187.458 5742.224, 1177.464 5741.862, 1167.471 5741.500, 1157.477 5741.139, 1147.484 5740.777, 1137.490 5740.416, 1127.497 5740.054, 1117.504 5739.692, 1107.510 5739.331, 1097.517 5738.969, 1087.523 5738.608, 1077.530 5738.246, 1067.536 5737.884, 1057.543 5737.523, 1047.549 5737.161, 1037.556 5736.800, 1027.562 5736.438, 1017.569 5736.077, 1007.575 5735.715, 997.582 5735.354, 987.589 5734.992, 977.595 5734.630, 967.602 5734.269, 957.608 5733.907, 947.615 5733.545, 937.621 5733.184, 927.628 5732.822, 917.634 5732.460, 907.641 5732.099, 897.647 5731.737, 887.654 5731.375, 877.661 5731.014, 867.667 5730.652, 857.674 5730.291, 847.680 5729.929, 837.687 5729.568, 827.693 5729.206, 817.700 5728.844, 807.706 5728.483, 797.713 5728.121, 787.719 5727.760, 777.726 5727.398, 767.732 5727.037, 757.739 5726.675, 747.745 5726.313, 737.752 5725.952, 727.759 5725.590, 717.765 5725.229, 707.772 5724.867, 697.778 5724.505, 687.785 5724.144, 677.791 5723.782, 667.798 5723.420, 657.804 5723.059, 647.811 5722.697, 637.817 5722.335, 627.824 5721.974, 617.831 5721.612, 607.837 5721.251, 597.844 5720.889, 587.850 5720.528, 577.857 5720.166, 567.863 5719.804, 557.870 5719.443, 547.876 5719.081, 537.883 5718.720, 527.889 5718.358, 517.896 5717.997, 507.902 5717.635, 497.909 5717.273, 487.916 5716.912, 477.922 5716.550, 467.929 5716.188, 457.935 5715.827, 447.942 5715.465, 437.948 5715.104, 427.955 5714.742, 417.961 5714.380, 407.968 5714.019, 397.974 5713.657, 387.981 5713.295, 377.987 5712.934, 367.994 5712.572, 358.000 5712.211, 348.007 5711.849, 338.014 5711.487, 328.020 5711.126, 318.027 5710.764, 308.033 5710.403, 298.040 5710.041, 288.046 5709.680, 278.053 5709.318, 268.059 5708.957, 258.066 5708.595, 248.073 5708.233, 238.079 5707.872, 228.085 5707.510, 218.092 5707.148, 208.099 5706.787, 198.105 5706.425, 188.112 5706.063, 178.118 5705.702, 168.125 5705.340, 158.131 5704.979, 148.138 5704.338, 130.435 " />
            <path fill="none" stroke-width="3.0" stroke-linecap="butt" stroke-opacity="1.0" stroke="rgb(0, 0, 0)" stroke-linejoin="round" d=" M 5879.531, 2126.595 5876.397, 2136.091 5873.265, 2145.588 5870.132, 2155.085 5866.999, 2164.581 5863.866, 2174.078 5860.733, 2183.574 5857.600, 2193.071 5854.467, 2202.567 5851.334, 2212.064 5848.201, 2221.560 5845.068, 2231.057 5841.935, 2240.554 5838.802, 2250.050 5835.669, 2259.547 5832.536, 2269.043 5831.105, 2273.382 " />
            <path fill="none" stroke-width="3.0" stroke-linecap="butt" stroke-opacity="1.0" stroke="rgb(0, 0, 0)" stroke-linejoin="round" d=" M 4001.776, 2273.382 4011.776, 2273.382 4021.776, 2273.382 4031.776, 2273.382 4041.776, 2273.382 4051.776, 2273.382 4061.776, 2273.382 4071.776, 2273.382 4081.776, 2273.382 4091.776, 2273.382 4101.776, 2273.382 4111.776, 2273.382 4121.776, 2273.382 4131.776, 2273.382 4141.776, 2273.382 4151.776, 2273.382 4161.776, 2273.382 4171.776, 2273.382 4181.776, 2273.382 4191.776, 2273.382 4201.776, 2273.382 4211.776, 2273.382 4221.776, 2273.382 4231.776, 2273.382 4241.776, 2273.382 4251.776, 2273.382 4261.776, 2273.382 4271.776, 2273.382 4281.776, 2273.382 4291.776, 2273.382 4301.776, 2273.382 4311.776, 2273.382 4321.776, 2273.382 4331.776, 2273.382 4341.776, 2273.382 4351.776, 2273.382 4361.776, 2273.382 4371.776, 2273.382 4381.776, 2273.382 4391.776, 2273.382 4401.776, 2273.382 4411.776, 2273.382 4421.776, 2273.382 4431.776, 2273.382 4441.776, 2273.382 4451.776, 2273.382 4461.776, 2273.382 4471.776, 2273.382 4481.776, 2273.382 4491.776, 2273.382 4501.776, 2273.382 4511.776, 2273.382 4521.776, 2273.382 4531.776, 2273.382 4541.776, 2273.382 4551.776, 2273.382 4561.776, 2273.382 4571.776, 2273.382 4581.776, 2273.382 4591.776, 2273.382 4601.776, 2273.382 4611.776, 2273.382 4621.776, 2273.382 4631.776, 2273.382 4641.776, 2273.382 4651.776, 2273.382 4661.776, 2273.382 4671.776, 2273.382 4681.776, 2273.382 4691.776, 2273.382 4701.776, 2273.382 4711.776, 2273.382 4721.776, 2273.382 4731.776, 2273.382 4741.776, 2273.382 4751.776, 2273.382 4761.776, 2273.382 4771.776, 2273.382 4781.776, 2273.382 4791.776, 2273.382 4801.776, 2273.382 4811.776, 2273.382 4821.776, 2273.382 4831.776, 2273.382 4841.776, 2273.382 4851.776, 2273.382 4861.776, 2273.382 4871.776, 2273.382 4881.776, 2273.382 4891.776, 2273.382 4901.776, 2273.382 4911.776, 2273.382 4921.776, 2273.382 4931.776, 2273.382 4941.776, 2273.382 4951.776, 2273.382 4961.776, 2273.382 4971.776, 2273.382 4981.776, 2273.382 4991.776, 2273.382 5001.776, 2273.382 5011.776, 2273.382 5021.776, 2273.382 5031.776, 2273.382 5041.776, 2273.382 5051.776, 2273.382 5061.776, 2273.382 5071.776, 2273.382 5081.776, 2273.382 5091.776, 2273.382 5101.776, 2273.382 5111.776, 2273.382 5121.776, 2273.382 5131.776, 2273.382 5141.776, 2273.382 5151.776, 2273.382 5161.776, 2273.382 5171.776, 2273.382 5181.776, 2273.382 5191.776, 2273.382 5201.776, 2273.382 5211.776, 2273.382 5221.776, 2273.382 5231.776, 2273.382 5241.776, 2273.382 5251.776, 2273.382 5261.776, 2273.382 5271.776, 2273.382 5281.776, 2273.382 5291.776, 2273.382 5301.776, 2273.382 5311.776, 2273.382 5321.776, 2273.382 5331.776, 2273.382 5341.776, 2273.382 5351.776, 2273.382 5361.776, 2273.382 5371.776, 2273.382 5381.776, 2273.382 5391.776, 2273.382 5401.776, 2273.382 5411.776, 2273.382 5421.776, 2273.382 5431.776, 2273.382 5441.776, 2273.382 5451.776, 2273.382 5461.776, 2273.382 5471.776, 2273.382 5481.776, 2273.382 5491.776, 2273.382 5501.776, 2273.382 5511.776, 2273.382 5521.776, 2273.382 5531.776, 2273.382 5541.776, 2273.382 5551.776, 2273.382 5561.776, 2273.382 5571.776, 2273.382 5581.776, 2273.382 5591.776, 2273.382 5601.776, 2273.382 5611.776, 2273.382 5621.776, 2273.382 5639.220, 2273.382 5649.220, 2273.376 5659.220, 2273.371 5669.220, 2273.366 5679.220, 2273.360 5689.220, 2273.355 5699.220, 2273.350 5709.220, 2273.344 5719.220, 2273.339 5729.220, 2273.334 5739.220, 2273.329 5749.220, 2273.323 5759.220, 2273.318 5769.220, 2273.313 5779.220, 2273.307 5782.050, 2273.306 5782.161, 2273.301 5782.168, 2273.300 5782.371, 2273.382 5792.371, 2273.382 5802.371, 2273.382 5812.371, 2273.382 5817.116, 2273.382 5827.116, 2273.382 5831.105, 2273.382 5831.105, 2273.382 " />
            <path fill="none" stroke-width="3.0" stroke-linecap="butt" stroke-opacity="1.0" stroke="rgb(0, 0, 0)" stroke-linejoin="round" d=" M 294.831, 2148.069 296.726, 2157.888 298.622, 2167.707 300.517, 2177.525 302.412, 2187.344 304.307, 2197.163 306.203, 2206.982 308.098, 2216.800 309.993, 2226.619 311.888, 2236.438 313.784, 2246.257 315.679, 2256.075 317.574, 2265.894 319.020, 2273.382 329.020, 2273.382 339.020, 2273.382 349.020, 2273.382 359.020, 2273.382 369.020, 2273.382 379.020, 2273.382 389.020, 2273.382 399.020, 2273.382 409.020, 2273.382 419.020, 2273.382 429.020, 2273.382 439.020, 2273.382 449.020, 2273.382 459.020, 2273.382 469.020, 2273.382 479.020, 2273.382 489.020, 2273.382 499.020, 2273.382 509.020, 2273.382 519.020, 2273.382 529.020, 2273.382 539.020, 2273.382 549.020, 2273.382 559.020, 2273.382 569.020, 2273.382 579.020, 2273.382 589.020, 2273.382 599.020, 2273.382 609.020, 2273.382 619.020, 2273.382 629.020, 2273.382 639.020, 2273.382 649.020, 2273.382 659.020, 2273.382 669.020, 2273.382 679.020, 2273.382 689.020, 2273.382 699.020, 2273.382 709.020, 2273.382 719.020, 2273.382 729.020, 2273.382 739.020, 2273.382 749.020, 2273.382 759.020, 2273.382 769.020, 2273.382 779.020, 2273.382 789.020, 2273.382 799.020, 2273.382 809.020, 2273.382 819.020, 2273.382 829.020, 2273.382 839.020, 2273.382 849.020, 2273.382 859.020, 2273.382 869.020, 2273.382 879.020, 2273.382 889.020, 2273.382 899.020, 2273.382 909.020, 2273.382 919.020, 2273.382 929.020, 2273.382 939.020, 2273.382 949.020, 2273.382 959.020, 2273.382 969.020, 2273.382 979.020, 2273.382 989.020, 2273.382 999.020, 2273.382 1009.020, 2273.382 1019.020, 2273.382 1029.020, 2273.382 1039.020, 2273.382 1049.020, 2273.382 1059.020, 2273.382 1069.020, 2273.382 1079.020, 2273.382 1089.020, 2273.382 1099.020, 2273.382 1109.020, 2273.382 1119.020, 2273.382 1129.020, 2273.382 1139.020, 2273.382 1149.020, 2273.382 1159.020, 2273.382 1169.020, 2273.382 1179.020, 2273.382 1189.020, 2273.382 1199.020, 2273.382 1209.020, 2273.382 1219.020, 2273.382 1229.020, 2273.382 1239.020, 2273.382 1249.020, 2273.382 1259.020, 2273.382 1269.020, 2273.382 1279.020, 2273.382 1289.020, 2273.382 1307.411, 2273.382 1317.411, 2273.382 1327.411, 2273.382 1337.411, 2273.382 1347.411, 2273.382 1357.411, 2273.382 1367.411, 2273.382 1377.411, 2273.382 1387.411, 2273.382 1397.411, 2273.382 1407.411, 2273.382 1417.411, 2273.382 1427.411, 2273.382 1437.411, 2273.382 1447.411, 2273.382 1457.411, 2273.382 1467.411, 2273.382 1477.411, 2273.382 1487.411, 2273.382 1497.411, 2273.382 1507.411, 2273.382 1517.411, 2273.382 1527.411, 2273.382 1537.411, 2273.382 1547.411, 2273.382 1557.411, 2273.382 1567.411, 2273.382 1577.411, 2273.382 1587.411, 2273.382 1597.411, 2273.382 1607.411, 2273.382 1617.411, 2273.382 1627.411, 2273.382 1637.411, 2273.382 1647.411, 2273.382 1657.411, 2273.382 1667.411, 2273.382 1677.411, 2273.382 1687.411, 2273.382 1697.411, 2273.382 1707.411, 2273.382 1717.411, 2273.382 1727.411, 2273.382 1737.411, 2273.382 1747.411, 2273.382 1757.411, 2273.382 1767.411, 2273.382 1777.411, 2273.382 1787.411, 2273.382 1797.411, 2273.382 1807.411, 2273.382 1817.411, 2273.382 1827.411, 2273.382 1837.411, 2273.382 1847.411, 2273.382 1857.411, 2273.382 1867.411, 2273.382 1877.411, 2273.382 1887.411, 2273.382 1897.411, 2273.382 1907.411, 2273.382 1917.411, 2273.382 1927.411, 2273.382 1937.411, 2273.382 1947.411, 2273.382 1957.411, 2273.382 1967.411, 2273.382 1977.411, 2273.382 1987.411, 2273.382 1997.411, 2273.382 2007.411, 2273.382 2017.411, 2273.382 2027.411, 2273.382 2037.411, 2273.382 2047.411, 2273.382 2057.412, 2273.382 2067.412, 2273.382 2077.412, 2273.382 2087.412, 2273.382 2097.412, 2273.382 2107.412, 2273.382 2117.412, 2273.382 2127.411, 2273.382 2137.411, 2273.382 2147.411, 2273.382 2157.411, 2273.382 2167.411, 2273.382 2177.411, 2273.382 2187.411, 2273.382 2203.448, 2273.382 " />
            <path fill="none" stroke-width="3.0" stroke-linecap="butt" stroke-opacity="1.0" stroke="rgb(0, 0, 0)" stroke-linejoin="round" d=" M 319.020, 2273.382 319.020, 2273.382 " />
            <path fill="none" stroke-width="3.0" stroke-linecap="butt" stroke-opacity="1.0" stroke="rgb(0, 0, 0)" stroke-linejoin="round" d=" M 2560.106, 2273.382 2550.106, 2273.382 2540.106, 2273.382 2530.106, 2273.382 2520.106, 2273.382 2510.106, 2273.382 2500.106, 2273.382 2490.106, 2273.382 2480.106, 2273.382 2470.106, 2273.382 2460.106, 2273.382 2450.106, 2273.382 2440.106, 2273.382 2430.106, 2273.382 2420.106, 2273.382 2410.106, 2273.382 2400.106, 2273.382 2390.106, 2273.382 2380.106, 2273.382 2370.106, 2273.382 2360.106, 2273.382 2350.106, 2273.382 2340.106, 2273.382 2330.106, 2273.382 2320.106, 2273.382 2310.106, 2273.382 2300.106, 2273.382 2288.908, 2273.382 2287.138, 2273.382 2285.385, 2273.382 2275.385, 2273.382 2265.385, 2273.382 2255.385, 2273.382 2245.385, 2273.382 2235.385, 2273.382 2225.385, 2273.382 2215.385, 2273.382 2205.781, 2273.382 2203.851, 2273.382 2203.819, 2273.382 2201.945, 2273.382 2200.071, 2273.382 2198.233, 2273.382 2196.438, 2273.382 2194.691, 2273.382 2192.998, 2273.382 2191.364, 2273.382 2189.794, 2273.382 2188.293, 2273.382 2186.866, 2273.382 2185.518, 2273.382 2184.252, 2273.382 2174.252, 2273.382 2164.252, 2273.382 2154.252, 2273.382 2144.252, 2273.382 2134.252, 2273.382 2124.252, 2273.382 2114.252, 2273.382 2104.252, 2273.382 2094.252, 2273.382 2084.252, 2273.382 2074.252, 2273.382 2064.252, 2273.382 2054.252, 2273.382 2044.252, 2273.382 2034.252, 2273.382 2024.252, 2273.382 2014.252, 2273.382 2004.252, 2273.382 1994.252, 2273.382 1984.252, 2273.382 1974.252, 2273.382 1964.252, 2273.382 1954.252, 2273.382 1944.252, 2273.382 1934.252, 2273.382 1924.252, 2273.382 1914.252, 2273.382 1904.252, 2273.382 1894.252, 2273.382 1884.252, 2273.382 1874.252, 2273.382 1864.252, 2273.382 1854.252, 2273.382 1844.252, 2273.382 1834.252, 2273.382 1824.252, 2273.382 1814.252, 2273.382 1804.252, 2273.382 1794.252, 2273.382 1784.252, 2273.382 1774.252, 2273.382 1764.252, 2273.382 1754.252, 2273.382 1744.252, 2273.382 1734.252, 2273.382 1724.252, 2273.382 1714.252, 2273.382 1704.252, 2273.382 1694.252, 2273.382 1684.252, 2273.382 1674.252, 2273.382 1664.252, 2273.382 1654.252, 2273.382 1644.252, 2273.382 1634.252, 2273.382 1624.252, 2273.382 1614.252, 2273.382 1604.252, 2273.382 1594.252, 2273.382 1584.252, 2273.382 1574.252, 2273.382 1564.252, 2273.382 1554.252, 2273.382 1544.252, 2273.382 1534.252, 2273.382 1524.252, 2273.382 1514.252, 2273.382 1504.252, 2273.382 1494.252, 2273.382 1484.252, 2273.382 1474.252, 2273.382 1464.252, 2273.382 1454.252, 2273.382 1444.252, 2273.382 1434.252, 2273.382 1424.252, 2273.382 1414.252, 2273.382 1404.252, 2273.382 1394.252, 2273.382 1384.252, 2273.382 1374.252, 2273.382 1364.252, 2273.382 1354.252, 2273.382 1344.252, 2273.382 1334.252, 2273.382 1324.252, 2273.382 1315.068, 2273.382 1305.068, 2273.382 1295.068, 2273.382 1293.286, 2273.382 1290.575, 2273.382 1287.804, 2273.382 1284.980, 2273.382 1282.112, 2273.382 1279.208, 2273.382 1276.277, 2273.382 1273.327, 2273.382 1270.365, 2273.382 1260.365, 2273.382 1250.365, 2273.382 1240.365, 2273.382 1230.365, 2273.382 1220.365, 2273.382 1210.365, 2273.382 1200.365, 2273.382 1190.365, 2273.382 1180.365, 2273.382 1170.365, 2273.382 1160.365, 2273.382 1150.365, 2273.382 1140.365, 2273.382 1130.365, 2273.382 1120.365, 2273.382 1110.365, 2273.382 1100.365, 2273.382 1090.365, 2273.382 1080.365, 2273.382 1070.365, 2273.382 1060.365, 2273.382 1050.365, 2273.382 1040.365, 2273.382 1030.365, 2273.382 1020.365, 2273.382 1010.365, 2273.382 1000.365, 2273.382 990.365, 2273.382 980.365, 2273.382 970.365, 2273.382 960.365, 2273.382 950.365, 2273.382 940.365, 2273.382 930.365, 2273.382 920.365, 2273.382 910.365, 2273.382 900.365, 2273.382 890.365, 2273.382 880.365, 2273.382 870.365, 2273.382 860.365, 2273.382 850.365, 2273.382 840.365, 2273.382 830.365, 2273.382 820.365, 2273.382 810.365, 2273.382 800.365, 2273.382 790.365, 2273.382 780.365, 2273.382 770.365, 2273.382 760.365, 2273.382 750.365, 2273.382 740.365, 2273.382 730.365, 2273.382 720.365, 2273.382 710.365, 2273.382 700.365, 2273.382 690.365, 2273.382 680.365, 2273.382 670.365, 2273.382 660.365, 2273.382 650.365, 2273.382 640.365, 2273.382 630.365, 2273.382 620.365, 2273.382 610.365, 2273.382 600.365, 2273.382 590.365, 2273.382 580.365, 2273.382 570.365, 2273.382 560.365, 2273.382 550.365, 2273.382 540.365, 2273.382 530.365, 2273.382 520.365, 2273.382 510.365, 2273.382 500.365, 2273.382 490.365, 2273.382 480.365, 2273.382 470.365, 2273.382 460.365, 2273.382 450.365, 2273.382 440.365, 2273.382 430.365, 2273.382 420.365, 2273.382 410.365, 2273.382 400.365, 2273.382 390.365, 2273.382 380.365, 2273.382 370.365, 2273.382 360.365, 2273.382 350.365, 2273.382 340.365, 2273.382 326.683, 2273.382 319.020, 2273.382 317.124, 2263.563 315.229, 2253.744 313.334, 2243.925 311.439, 2234.107 309.543, 2224.288 307.648, 2214.469 305.753, 2204.650 303.858, 2194.832 301.962, 2185.013 300.067, 2175.194 298.172, 2165.375 296.277, 2155.556 294.831, 2148.069 293.488, 2138.159 292.145, 2128.250 290.801, 2118.341 289.458, 2108.431 288.115, 2098.522 286.771, 2088.612 285.428, 2078.703 284.085, 2068.794 282.741, 2058.884 281.398, 2048.975 280.055, 2039.066 278.712, 2029.156 277.368, 2019.247 276.025, 2009.338 274.682, 1999.428 273.338, 1989.519 271.995, 1979.609 270.652, 1969.700 269.308, 1959.791 267.965, 1949.881 266.622, 1939.972 265.278, 1930.063 263.935, 1920.153 262.592, 1910.244 261.249, 1900.335 259.905, 1890.425 258.562, 1880.516 257.219, 1870.606 255.875, 1860.697 254.532, 1850.788 253.189, 1840.878 251.845, 1830.969 250.884, 1823.878 250.804, 1813.878 250.723, 1803.878 250.643, 1793.879 250.562, 1783.879 250.482, 1773.879 250.401, 1763.880 250.321, 1753.880 250.240, 1743.880 250.160, 1733.881 250.079, 1723.881 249.999, 1713.881 249.918, 1703.882 249.838, 1693.882 249.757, 1683.882 249.677, 1673.883 249.596, 1663.883 249.516, 1653.883 249.435, 1643.884 249.355, 1633.884 249.274, 1623.884 249.194, 1613.885 249.113, 1603.885 249.033, 1593.885 248.952, 1583.886 248.872, 1573.886 248.791, 1563.886 248.694, 1551.841 " />
            <path fill="none" stroke-width="3.0" stroke-linecap="butt" stroke-opacity="1.0" stroke="rgb(0, 0, 0)" stroke-linejoin="round" d=" M 180.638, 426.592 184.435, 435.843 188.233, 445.094 192.030, 454.345 195.828, 463.596 199.625, 472.847 203.423, 482.098 207.220, 491.349 211.017, 500.599 214.815, 509.850 218.612, 519.101 222.410, 528.352 226.207, 537.603 230.005, 546.854 233.802, 556.105 237.600, 565.356 241.397, 574.607 245.194, 583.858 248.992, 593.109 252.789, 602.359 256.587, 611.610 260.384, 620.861 264.182, 630.112 267.979, 639.363 271.777, 648.614 275.574, 657.865 279.371, 667.116 283.169, 676.367 286.966, 685.618 290.764, 694.869 294.561, 704.120 298.359, 713.370 302.156, 722.621 305.954, 731.872 309.751, 741.123 313.549, 750.374 317.346, 759.625 322.003, 770.970 321.400, 780.952 320.797, 790.934 320.194, 800.916 319.592, 810.897 318.989, 820.879 318.386, 830.861 317.783, 840.843 317.180, 850.825 316.577, 860.807 315.974, 870.788 315.371, 880.770 314.768, 890.752 314.166, 900.734 313.563, 910.716 312.960, 920.697 312.357, 930.679 311.754, 940.661 311.151, 950.643 310.548, 960.625 309.945, 970.606 309.342, 980.588 308.739, 990.570 308.137, 1000.552 307.534, 1010.534 306.931, 1020.516 306.328, 1030.497 305.725, 1040.479 305.122, 1050.461 304.519, 1060.443 303.916, 1070.425 303.313, 1080.406 302.711, 1090.388 302.108, 1100.370 301.539, 1109.778 " />
            <path fill="none" stroke-width="3.0" stroke-linecap="butt" stroke-opacity="1.0" stroke="rgb(0, 0, 0)" stroke-linejoin="round" d=" M 113.771, 229.277 116.981, 238.748 120.190, 248.219 123.400, 257.690 126.609, 267.161 129.819, 276.632 133.028, 286.103 136.238, 295.574 139.447, 305.045 142.657, 314.516 145.867, 323.987 149.076, 333.458 152.286, 342.929 155.495, 352.400 158.705, 361.871 161.914, 371.342 165.124, 380.812 168.333, 390.283 171.543, 399.754 174.753, 409.225 177.962, 418.696 180.638, 426.592 " />
            <path fill="none" stroke-width="3.0" stroke-linecap="butt" stroke-opacity="1.0" stroke="rgb(0, 0, 0)" stroke-linejoin="round" d=" M 4001.776, 2273.382 4009.483, 2273.382 4012.507, 2273.382 4022.507, 2273.382 4032.507, 2273.382 4042.507, 2273.382 4052.507, 2273.382 4062.507, 2273.382 4072.507, 2273.382 4082.507, 2273.382 4092.507, 2273.382 4102.507, 2273.382 4112.507, 2273.382 4122.507, 2273.382 4132.507, 2273.382 4142.507, 2273.382 4152.507, 2273.382 4162.507, 2273.382 4172.507, 2273.382 4182.507, 2273.382 4192.507, 2273.382 4202.507, 2273.382 4212.507, 2273.382 4222.507, 2273.382 4232.507, 2273.382 4242.507, 2273.382 4252.507, 2273.382 4262.507, 2273.382 4272.507, 2273.382 4282.507, 2273.382 4292.507, 2273.382 4302.507, 2273.382 4312.507, 2273.382 4322.507, 2273.382 4332.507, 2273.382 4342.507, 2273.382 4352.507, 2273.382 4362.507, 2273.382 4372.507, 2273.382 4382.507, 2273.382 4392.507, 2273.382 4402.507, 2273.382 4412.507, 2273.382 4422.507, 2273.382 4432.507, 2273.382 4442.507, 2273.382 4452.507, 2273.382 4462.507, 2273.382 4472.507, 2273.382 4482.507, 2273.382 4492.507, 2273.382 4502.507, 2273.382 4512.507, 2273.382 4522.507, 2273.382 4532.507, 2273.382 4542.507, 2273.382 4552.507, 2273.382 4562.507, 2273.382 4572.507, 2273.382 4582.507, 2273.382 4592.507, 2273.382 4602.507, 2273.382 4612.507, 2273.382 4622.507, 2273.382 4632.507, 2273.382 4642.507, 2273.382 4652.507, 2273.382 4662.507, 2273.382 4672.507, 2273.382 4682.507, 2273.382 4692.507, 2273.382 4702.507, 2273.382 4712.507, 2273.382 4722.507, 2273.382 4732.507, 2273.382 4742.507, 2273.382 4752.507, 2273.382 4762.507, 2273.382 4772.507, 2273.382 4782.507, 2273.382 4792.507, 2273.382 4802.507, 2273.382 4812.507, 2273.382 4822.507, 2273.382 4832.507, 2273.382 4842.507, 2273.382 4852.507, 2273.382 4862.507, 2273.382 4872.507, 2273.382 4882.011, 2273.382 4892.011, 2273.382 4902.011, 2273.382 4912.011, 2273.382 4922.011, 2273.382 4932.011, 2273.382 4942.011, 2273.382 4952.011, 2273.382 4962.011, 2273.382 4972.011, 2273.382 4982.011, 2273.382 4992.011, 2273.382 5002.011, 2273.382 5012.011, 2273.382 5022.011, 2273.382 5032.011, 2273.382 5042.011, 2273.382 5052.011, 2273.382 5062.011, 2273.382 5072.011, 2273.382 5082.011, 2273.382 5092.011, 2273.382 5102.011, 2273.382 5112.011, 2273.382 5122.011, 2273.382 5132.011, 2273.382 5142.011, 2273.382 5152.011, 2273.382 5162.011, 2273.382 5172.011, 2273.382 5182.011, 2273.382 5192.011, 2273.382 5202.011, 2273.382 5212.011, 2273.382 5222.011, 2273.382 5232.011, 2273.382 5242.011, 2273.382 5252.011, 2273.382 5262.011, 2273.382 5272.011, 2273.382 5282.011, 2273.382 5292.011, 2273.382 5302.011, 2273.382 5312.011, 2273.382 5322.011, 2273.382 5332.011, 2273.382 5342.011, 2273.382 5352.011, 2273.382 5362.011, 2273.382 5372.011, 2273.382 5382.011, 2273.382 5392.011, 2273.382 5402.011, 2273.382 5412.011, 2273.382 5422.011, 2273.382 5432.011, 2273.382 5442.011, 2273.382 5452.011, 2273.382 5462.011, 2273.382 5472.011, 2273.382 5482.011, 2273.382 5492.011, 2273.382 5502.011, 2273.382 5512.011, 2273.382 5522.011, 2273.382 5532.011, 2273.382 5542.011, 2273.382 5552.011, 2273.382 5562.011, 2273.382 5572.011, 2273.382 5582.011, 2273.382 5592.011, 2273.382 5602.011, 2273.382 5612.011, 2273.382 5622.011, 2273.382 5639.220, 2273.382 " />
            <path fill="none" stroke-width="3.0" stroke-linecap="butt" stroke-opacity="1.0" stroke="rgb(0, 0, 0)" stroke-linejoin="round" d=" M 4745.132, 1245.547 4743.480, 1247.619 4741.726, 1249.607 4739.876, 1251.504 4737.933, 1253.306 " />
            <path fill="none" stroke-width="3.0" stroke-linecap="butt" stroke-opacity="1.0" stroke="rgb(0, 0, 0)" stroke-linejoin="round" d=" M 4737.933, 1253.306 4735.903, 1255.010 4733.790, 1256.610 4731.600, 1258.103 4729.338, 1259.485 4727.011, 1260.753 4724.623, 1261.903 " />
            <path fill="none" stroke-width="3.0" stroke-linecap="butt" stroke-opacity="1.0" stroke="rgb(0, 0, 0)" stroke-linejoin="round" d=" M 4749.443, 1238.874 4748.117, 1241.170 4746.679, 1243.396 4745.132, 1245.547 " />
            <path fill="none" stroke-width="3.0" stroke-linecap="butt" stroke-opacity="1.0" stroke="rgb(0, 0, 0)" stroke-linejoin="round" d=" M 4722.181, 1262.932 4719.691, 1263.839 4717.158, 1264.620 4714.590, 1265.274 4711.992, 1265.799 4709.372, 1266.194 4706.734, 1266.458 " />
            <path fill="none" stroke-width="3.0" stroke-linecap="butt" stroke-opacity="1.0" stroke="rgb(0, 0, 0)" stroke-linejoin="round" d=" M 4755.322, 1221.375 4754.862, 1223.985 4754.271, 1226.569 4753.554, 1229.121 " />
            <path fill="none" stroke-width="3.0" stroke-linecap="butt" stroke-opacity="1.0" stroke="rgb(0, 0, 0)" stroke-linejoin="round" d=" M 4755.322, 1205.531 4755.651, 1208.161 4755.849, 1210.804 4755.915, 1213.454 4755.849, 1216.103 4755.651, 1218.746 4755.322, 1221.375 " />
            <path fill="none" stroke-width="3.0" stroke-linecap="butt" stroke-opacity="1.0" stroke="rgb(0, 0, 0)" stroke-linejoin="round" d=" M 4704.087, 1266.589 4701.437, 1266.589 4698.790, 1266.458 4696.153, 1266.194 4693.532, 1265.799 4690.935, 1265.274 " />
            <path fill="none" stroke-width="3.0" stroke-linecap="butt" stroke-opacity="1.0" stroke="rgb(0, 0, 0)" stroke-linejoin="round" d=" M 4754.862, 1202.921 4755.322, 1205.531 " />
            <path fill="none" stroke-width="3.0" stroke-linecap="butt" stroke-opacity="1.0" stroke="rgb(0, 0, 0)" stroke-linejoin="round" d=" M 4739.876, 1175.403 4741.726, 1177.300 4743.480, 1179.287 4745.132, 1181.359 4746.679, 1183.512 4748.117, 1185.738 4749.443, 1188.032 4750.651, 1190.392 4751.742, 1192.807 4752.710, 1195.274 4753.554, 1197.787 4754.271, 1200.338 4754.862, 1202.921 " />
            <path fill="none" stroke-width="3.0" stroke-linecap="butt" stroke-opacity="1.0" stroke="rgb(0, 0, 0)" stroke-linejoin="round" d=" M 4030.126, 1689.496 4031.742, 1699.365 4033.359, 1709.233 4034.975, 1719.102 4036.592, 1728.970 4038.208, 1738.839 4039.825, 1748.707 4041.442, 1758.576 4043.058, 1768.444 4044.675, 1778.312 4046.292, 1788.181 4047.908, 1798.049 4049.525, 1807.918 4051.141, 1817.786 4052.758, 1827.655 4054.374, 1837.523 4055.991, 1847.392 4057.607, 1857.260 4059.221, 1867.113 4063.687, 1876.060 4068.151, 1885.008 4072.616, 1893.956 4077.082, 1902.904 4081.547, 1911.852 4086.012, 1920.799 4090.477, 1929.747 4094.942, 1938.695 4099.407, 1947.643 4103.872, 1956.591 4108.337, 1965.539 4112.587, 1974.056 " />
            <path fill="none" stroke-width="3.0" stroke-linecap="butt" stroke-opacity="1.0" stroke="rgb(0, 0, 0)" stroke-linejoin="round" d=" M 4737.933, 1173.600 4739.876, 1175.403 " />
            <path fill="none" stroke-width="3.0" stroke-linecap="butt" stroke-opacity="1.0" stroke="rgb(0, 0, 0)" stroke-linejoin="round" d=" M 4704.087, 1160.317 4706.734, 1160.449 4709.372, 1160.713 4711.992, 1161.108 4714.590, 1161.633 4717.158, 1162.287 4719.691, 1163.068 4722.181, 1163.975 4724.623, 1165.005 4727.011, 1166.154 4729.338, 1167.422 4731.600, 1168.804 4733.790, 1170.296 4735.903, 1171.897 4737.933, 1173.600 " />
            <path fill="none" stroke-width="3.0" stroke-linecap="butt" stroke-opacity="1.0" stroke="rgb(0, 0, 0)" stroke-linejoin="round" d=" M 4685.834, 1263.839 4683.343, 1262.932 4680.901, 1261.903 4678.513, 1260.753 4676.186, 1259.485 4673.924, 1258.103 4671.735, 1256.610 " />
            <path fill="none" stroke-width="3.0" stroke-linecap="butt" stroke-opacity="1.0" stroke="rgb(0, 0, 0)" stroke-linejoin="round" d=" M 4663.798, 1249.607 4662.045, 1247.619 4660.393, 1245.547 4658.846, 1243.396 4657.408, 1241.170 4656.082, 1238.874 4654.873, 1236.516 4653.783, 1234.100 4652.815, 1231.633 4651.971, 1229.121 4651.253, 1226.569 4650.663, 1223.985 4650.203, 1221.375 4649.873, 1218.746 4649.675, 1216.103 4649.609, 1213.454 4649.675, 1210.804 4649.873, 1208.161 4650.203, 1205.531 " />
            <path fill="none" stroke-width="3.0" stroke-linecap="butt" stroke-opacity="1.0" stroke="rgb(0, 0, 0)" stroke-linejoin="round" d=" M 4669.622, 1255.010 4667.592, 1253.306 4665.649, 1251.504 4663.798, 1249.607 " />
            <path fill="none" stroke-width="3.0" stroke-linecap="butt" stroke-opacity="1.0" stroke="rgb(0, 0, 0)" stroke-linejoin="round" d=" M 4032.613, 1445.577 4032.613, 1445.578 " />
            <path fill="none" stroke-width="3.0" stroke-linecap="butt" stroke-opacity="1.0" stroke="rgb(0, 0, 0)" stroke-linejoin="round" d=" M 3926.935, 126.224 3929.295, 135.941 3931.655, 145.659 3934.015, 155.376 3936.375, 165.094 3938.735, 174.812 3941.095, 184.529 3943.456, 194.247 3945.816, 203.964 3948.176, 213.682 3950.536, 223.399 3952.896, 233.116 3955.256, 242.834 3957.616, 252.552 3959.976, 262.269 3962.336, 271.987 3964.697, 281.704 3967.057, 291.422 3969.417, 301.139 3971.777, 310.857 3974.137, 320.574 3976.497, 330.292 3978.857, 340.009 3981.217, 349.727 3983.577, 359.444 3985.938, 369.162 3988.298, 378.879 3990.658, 388.597 3993.018, 398.314 3995.140, 407.053 3995.359, 417.051 3995.578, 427.048 3995.798, 437.046 3996.017, 447.043 3996.236, 457.041 3996.455, 467.039 3996.674, 477.036 3996.893, 487.034 3997.112, 497.031 3997.331, 507.029 3997.550, 517.027 3997.769, 527.024 3997.989, 537.022 3998.208, 547.019 3998.427, 557.017 3998.646, 567.015 3998.865, 577.012 3999.084, 587.010 3999.303, 597.007 3999.522, 607.005 3999.741, 617.003 3999.960, 627.000 4000.179, 636.998 4000.398, 646.995 4000.618, 656.993 4000.837, 666.991 4001.056, 676.988 4001.275, 686.986 4001.494, 696.983 4001.713, 706.981 4001.932, 716.979 4002.151, 726.976 4002.370, 736.974 4002.589, 746.971 4002.809, 756.969 4003.028, 766.967 4003.247, 776.964 4003.466, 786.962 4003.685, 796.959 4003.904, 806.957 4004.123, 816.955 4004.342, 826.952 4004.561, 836.950 4004.780, 846.947 4005.000, 856.945 4005.219, 866.943 4005.438, 876.940 4005.718, 889.725 4006.201, 899.713 4006.684, 909.702 4007.168, 919.690 4007.651, 929.678 4008.134, 939.667 4008.617, 949.655 4009.101, 959.643 4009.584, 969.631 4010.067, 979.620 4010.551, 989.608 4011.034, 999.596 4011.517, 1009.585 4012.001, 1019.573 4012.484, 1029.561 4012.967, 1039.550 4013.450, 1049.538 4013.934, 1059.526 4014.417, 1069.515 4014.900, 1079.503 4015.384, 1089.491 4015.867, 1099.480 4016.350, 1109.468 4016.833, 1119.456 4017.317, 1129.445 4017.800, 1139.433 4018.283, 1149.421 4018.767, 1159.409 4019.250, 1169.398 4019.733, 1179.386 4020.217, 1189.374 4020.700, 1199.363 4021.183, 1209.351 4021.667, 1219.339 4022.150, 1229.328 4022.633, 1239.316 4023.116, 1249.304 4023.600, 1259.293 4024.083, 1269.281 4024.566, 1279.269 4025.050, 1289.258 4025.533, 1299.246 4026.016, 1309.234 4026.500, 1319.222 4026.983, 1329.211 4027.466, 1339.199 4027.949, 1349.187 4028.433, 1359.176 4028.916, 1369.164 4029.399, 1379.152 4029.883, 1389.141 4030.366, 1399.129 4030.849, 1409.117 4031.333, 1419.106 4031.816, 1429.094 4032.299, 1439.082 4032.613, 1445.577 " />
            <path fill="none" stroke-width="3.0" stroke-linecap="butt" stroke-opacity="1.0" stroke="rgb(0, 0, 0)" stroke-linejoin="round" d=" M 4683.343, 1163.975 4685.834, 1163.068 " />
            <path fill="none" stroke-width="3.0" stroke-linecap="butt" stroke-opacity="1.0" stroke="rgb(0, 0, 0)" stroke-linejoin="round" d=" M 4680.901, 1165.005 4683.343, 1163.975 " />
            <path fill="none" stroke-width="3.0" stroke-linecap="butt" stroke-opacity="1.0" stroke="rgb(0, 0, 0)" stroke-linejoin="round" d=" M 4671.735, 1170.296 4673.924, 1168.804 4676.186, 1167.422 4678.513, 1166.154 4680.901, 1165.005 " />
            <path fill="none" stroke-width="3.0" stroke-linecap="butt" stroke-opacity="1.0" stroke="rgb(0, 0, 0)" stroke-linejoin="round" d=" M 4665.649, 1175.403 4667.592, 1173.600 4669.622, 1171.897 4671.735, 1170.296 " />
            <path fill="none" stroke-width="3.0" stroke-linecap="butt" stroke-opacity="1.0" stroke="rgb(0, 0, 0)" stroke-linejoin="round" d=" M 4663.798, 1177.300 4665.649, 1175.403 " />
            <path fill="none" stroke-width="3.0" stroke-linecap="butt" stroke-opacity="1.0" stroke="rgb(0, 0, 0)" stroke-linejoin="round" d=" M 4662.045, 1179.287 4663.798, 1177.300 " />
            <path fill="none" stroke-width="3.0" stroke-linecap="butt" stroke-opacity="1.0" stroke="rgb(0, 0, 0)" stroke-linejoin="round" d=" M 4660.393, 1181.359 4662.045, 1179.287 " />
            <path fill="none" stroke-width="3.0" stroke-linecap="butt" stroke-opacity="1.0" stroke="rgb(0, 0, 0)" stroke-linejoin="round" d=" M 4650.663, 1202.921 4651.253, 1200.338 4651.971, 1197.787 4652.815, 1195.274 4653.783, 1192.807 4654.873, 1190.392 4656.082, 1188.032 4657.408, 1185.738 4658.846, 1183.512 4660.393, 1181.359 " />
            <path fill="none" stroke-width="3.0" stroke-linecap="butt" stroke-opacity="1.0" stroke="rgb(0, 0, 0)" stroke-linejoin="round" d=" M 4650.203, 1205.531 4650.663, 1202.921 " />
            <path fill="none" stroke-width="3.0" stroke-linecap="butt" stroke-opacity="1.0" stroke="rgb(0, 0, 0)" stroke-linejoin="round" d=" M 4701.437, 1160.317 4704.087, 1160.317 " />
            <path fill="none" stroke-width="3.0" stroke-linecap="butt" stroke-opacity="1.0" stroke="rgb(0, 0, 0)" stroke-linejoin="round" d=" M 4698.790, 1160.449 4701.437, 1160.317 " />
            <path fill="none" stroke-width="3.0" stroke-linecap="butt" stroke-opacity="1.0" stroke="rgb(0, 0, 0)" stroke-linejoin="round" d=" M 4696.153, 1160.713 4698.790, 1160.449 " />
            <path fill="none" stroke-width="3.0" stroke-linecap="butt" stroke-opacity="1.0" stroke="rgb(0, 0, 0)" stroke-linejoin="round" d=" M 4693.532, 1161.108 4696.153, 1160.713 " />
            <path fill="none" stroke-width="3.0" stroke-linecap="butt" stroke-opacity="1.0" stroke="rgb(0, 0, 0)" stroke-linejoin="round" d=" M 4685.834, 1163.068 4688.366, 1162.287 4690.935, 1161.633 4693.532, 1161.108 " />
            <path fill="none" stroke-width="3.0" stroke-linecap="butt" stroke-opacity="1.0" stroke="rgb(0, 0, 0)" stroke-linejoin="round" d=" M 1753.956, 1739.758 1751.437, 1742.340 1748.793, 1744.794 1746.029, 1747.112 1743.154, 1749.290 1740.173, 1751.323 1737.095, 1753.203 1733.927, 1754.929 1730.677, 1756.494 1727.353, 1757.895 1723.963, 1759.129 1720.516, 1760.192 1717.020, 1761.082 1713.484, 1761.797 1709.917, 1762.335 1706.328, 1762.694 1702.725, 1762.874 1699.118, 1762.874 1695.515, 1762.694 1691.926, 1762.335 1688.359, 1761.797 1684.823, 1761.082 1681.327, 1760.192 1677.880, 1759.129 1674.490, 1757.895 1671.166, 1756.494 1667.916, 1754.929 1664.748, 1753.203 1661.670, 1751.323 1658.690, 1749.290 1655.814, 1747.112 1653.051, 1744.794 1650.406, 1742.340 1647.887, 1739.758 1645.501, 1737.053 1643.251, 1734.233 1641.146, 1731.304 1639.188, 1728.273 1637.385, 1725.149 1635.739, 1721.939 1634.255, 1718.651 1632.938, 1715.293 1631.789, 1711.874 1630.812, 1708.401 1630.009, 1704.884 1629.382, 1701.332 1628.934, 1697.752 1628.664, 1694.155 1628.575, 1690.549 1628.664, 1686.943 1628.934, 1683.346 1629.382, 1679.766 1630.009, 1676.214 1630.812, 1672.697 1631.789, 1669.224 1632.938, 1665.805 1634.255, 1662.447 1635.739, 1659.159 1637.385, 1655.949 1639.188, 1652.825 1641.146, 1649.794 1643.251, 1646.866 1645.501, 1644.045 1647.887, 1641.340 1650.406, 1638.758 1653.051, 1636.304 1655.814, 1633.986 1658.690, 1631.807 1661.670, 1629.776 1664.748, 1627.895 1667.916, 1626.169 1671.166, 1624.604 1674.490, 1623.203 1677.880, 1621.969 1681.327, 1620.906 1684.823, 1620.016 1688.359, 1619.301 1691.926, 1618.763 1695.515, 1618.404 1699.118, 1618.224 1702.725, 1618.224 1706.328, 1618.404 1709.917, 1618.763 1713.484, 1619.301 1717.020, 1620.016 1720.516, 1620.906 1723.963, 1621.969 1727.353, 1623.203 1730.677, 1624.604 1733.927, 1626.169 1737.095, 1627.895 1740.173, 1629.776 1743.154, 1631.807 1746.029, 1633.986 1748.793, 1636.304 1751.437, 1638.758 1753.956, 1641.340 1756.343, 1644.045 1758.592, 1646.866 1760.698, 1649.794 1762.655, 1652.825 1764.458, 1655.949 1766.104, 1659.159 1767.588, 1662.447 1768.906, 1665.805 1770.055, 1669.224 1771.031, 1672.697 1771.834, 1676.214 1772.461, 1679.766 1772.909, 1683.346 1773.179, 1686.943 1773.269, 1690.549 1773.179, 1694.155 1772.909, 1697.752 1772.461, 1701.332 1771.834, 1704.884 1771.031, 1708.401 1770.055, 1711.874 1768.906, 1715.293 1767.588, 1718.651 1766.104, 1721.939 1764.458, 1725.149 1762.655, 1728.273 1760.698, 1731.304 1758.592, 1734.233 1756.343, 1737.053 1753.956, 1739.758 " />
            <path fill="none" stroke-width="3.0" stroke-linecap="butt" stroke-opacity="1.0" stroke="rgb(0, 0, 0)" stroke-linejoin="round" d=" M 2203.448, 2273.382 2213.448, 2273.382 2223.448, 2273.382 2233.448, 2273.382 2243.448, 2273.382 2253.448, 2273.382 2263.448, 2273.382 2273.448, 2273.382 2283.448, 2273.382 2284.531, 2273.382 2294.531, 2273.382 2304.531, 2273.382 2314.531, 2273.382 2324.531, 2273.382 2334.531, 2273.382 2344.531, 2273.382 2354.531, 2273.382 2364.531, 2273.382 2374.531, 2273.382 2384.531, 2273.382 2394.531, 2273.382 2404.531, 2273.382 2414.531, 2273.382 2424.531, 2273.382 2434.531, 2273.382 2444.531, 2273.382 2454.531, 2273.382 2464.531, 2273.382 2474.531, 2273.382 2484.531, 2273.382 2494.531, 2273.382 2504.531, 2273.382 2514.531, 2273.382 2524.531, 2273.382 2534.531, 2273.382 2544.531, 2273.382 2554.531, 2273.382 2560.106, 2273.382 2560.106, 2273.382 2559.269, 2263.417 2558.432, 2253.452 2557.595, 2243.487 2556.758, 2233.522 2555.921, 2223.557 2555.084, 2213.592 2554.247, 2203.627 2553.409, 2193.662 2552.573, 2183.697 2551.735, 2173.733 2550.898, 2163.768 2550.061, 2153.803 2549.224, 2143.838 2548.387, 2133.873 2547.550, 2123.908 2546.713, 2113.943 2545.876, 2103.978 2545.039, 2094.013 2544.202, 2084.048 2543.365, 2074.083 2542.527, 2064.119 2541.690, 2054.154 2540.853, 2044.189 2540.016, 2034.224 2539.179, 2024.259 2538.342, 2014.294 2537.505, 2004.329 2536.668, 1994.364 2535.831, 1984.399 2534.994, 1974.434 2534.156, 1964.470 2533.320, 1954.505 2532.482, 1944.540 2531.645, 1934.575 2530.808, 1924.610 2529.971, 1914.645 2529.134, 1904.680 2528.309, 1894.858 2525.934, 1885.145 2523.558, 1875.431 2521.183, 1865.717 2518.808, 1856.003 2516.432, 1846.289 2514.057, 1836.576 2511.682, 1826.862 2509.306, 1817.148 2506.931, 1807.434 2504.555, 1797.720 2502.180, 1788.007 2499.805, 1778.293 2497.429, 1768.579 2495.054, 1758.865 2492.679, 1749.152 2490.303, 1739.438 2487.928, 1729.724 2485.553, 1720.010 2483.177, 1710.296 2480.802, 1700.583 2478.427, 1690.869 2476.051, 1681.155 2473.676, 1671.441 2471.301, 1661.727 2468.925, 1652.014 2466.550, 1642.300 2464.175, 1632.586 2461.799, 1622.872 2459.424, 1613.159 2457.049, 1603.445 2454.673, 1593.731 2452.298, 1584.017 2449.922, 1574.303 2447.547, 1564.590 2445.172, 1554.876 2442.796, 1545.162 2440.421, 1535.448 2438.046, 1525.734 2435.670, 1516.021 2433.295, 1506.307 2430.920, 1496.593 2428.544, 1486.879 2426.169, 1477.165 2423.793, 1467.452 2421.418, 1457.738 2419.043, 1448.024 2416.667, 1438.310 2414.292, 1428.596 2411.917, 1418.883 2409.542, 1409.169 2407.166, 1399.455 2404.791, 1389.741 2402.415, 1380.028 2400.040, 1370.314 2397.665, 1360.600 2395.289, 1350.886 2392.914, 1341.172 2390.539, 1331.459 2388.163, 1321.745 2385.788, 1312.031 2383.413, 1302.317 2381.037, 1292.603 2378.662, 1282.890 2376.287, 1273.176 2373.911, 1263.462 2371.536, 1253.748 2369.160, 1244.035 2366.785, 1234.321 2364.410, 1224.607 2362.034, 1214.893 2359.659, 1205.179 2357.284, 1195.466 2354.908, 1185.752 2352.533, 1176.038 2348.769, 1160.646 " />
            <path fill="none" stroke-width="3.0" stroke-linecap="butt" stroke-opacity="1.0" stroke="rgb(0, 0, 0)" stroke-linejoin="round" d=" M 2213.527, 527.636 2214.016, 517.648 2214.505, 507.660 2214.995, 497.672 2215.484, 487.684 2215.974, 477.696 2216.463, 467.708 2216.952, 457.720 2217.442, 447.732 2217.931, 437.744 2218.421, 427.756 2218.910, 417.768 2219.400, 407.780 2219.889, 397.792 2220.378, 387.804 2220.868, 377.816 2221.357, 367.828 2221.847, 357.840 2222.336, 347.852 2222.826, 337.864 2223.315, 327.876 2223.804, 317.888 2224.294, 307.900 2224.783, 297.912 2225.273, 287.924 2225.762, 277.936 2226.252, 267.948 2226.741, 257.960 2227.230, 247.972 2227.720, 237.984 2228.209, 227.996 2228.699, 218.008 2229.188, 208.020 2229.678, 198.031 2230.167, 188.044 2230.656, 178.056 2231.146, 168.068 2231.635, 158.080 2232.125, 148.092 2232.614, 138.104 2233.104, 128.115 2233.593, 118.127 2234.083, 108.139 2234.572, 98.151 2235.061, 88.163 2235.551, 78.176 2236.040, 68.188 2236.530, 58.199 2237.019, 48.211 2237.509, 38.223 2238.224, 23.629 2228.224, 23.629 2218.224, 23.629 2208.224, 23.629 2198.224, 23.629 2188.224, 23.629 2178.224, 23.629 2168.224, 23.629 2158.224, 23.629 2148.224, 23.629 2138.224, 23.629 2128.224, 23.629 2118.224, 23.629 2108.224, 23.629 2098.224, 23.629 2088.224, 23.629 2080.814, 23.629 2078.930, 23.629 2077.015, 23.629 2075.074, 23.629 2073.113, 23.629 2071.138, 23.629 2069.157, 23.629 2059.157, 23.629 2049.157, 23.629 2039.157, 23.629 2029.157, 23.629 2019.157, 23.629 2009.157, 23.629 1999.157, 23.629 1989.157, 23.629 1979.157, 23.629 1969.157, 23.629 1959.157, 23.629 1949.157, 23.629 1939.157, 23.629 1929.157, 23.629 1919.157, 23.629 1909.157, 23.629 1899.157, 23.629 1889.157, 23.629 1879.157, 23.629 1869.157, 23.629 1859.157, 23.629 1849.157, 23.629 1839.157, 23.629 1829.157, 23.629 1819.157, 23.629 1809.157, 23.629 1799.157, 23.629 1789.157, 23.629 1779.157, 23.629 1769.157, 23.629 1759.157, 23.629 1749.157, 23.629 1737.581, 23.629 1733.683, 23.629 1729.776, 23.629 1725.872, 23.629 1721.986, 23.629 1718.129, 23.629 1714.316, 23.629 1710.561, 23.629 1700.561, 23.629 1690.561, 23.629 1680.561, 23.629 1670.561, 23.629 1660.561, 23.629 1650.561, 23.629 1640.561, 23.629 1630.561, 23.629 1620.561, 23.629 1610.561, 23.629 1600.561, 23.629 1590.561, 23.629 1580.561, 23.629 1570.561, 23.629 1560.561, 23.629 1550.561, 23.629 1540.561, 23.629 1530.561, 23.629 1520.561, 23.629 1510.561, 23.629 1500.561, 23.629 1490.561, 23.629 1483.600, 23.629 1479.338, 23.629 1475.117, 23.629 1470.951, 23.629 1466.854, 23.629 1462.840, 23.629 1458.922, 23.629 1455.112, 23.629 1451.424, 23.629 1447.869, 23.629 1444.460, 23.629 1434.460, 23.629 1424.460, 23.629 1414.460, 23.629 1404.460, 23.629 1394.460, 23.629 1384.460, 23.629 1374.460, 23.629 1364.460, 23.629 1354.460, 23.629 1344.460, 23.629 1334.460, 23.629 1324.460, 23.629 1321.390, 23.629 1317.562, 23.629 1313.864, 23.629 1310.305, 23.629 1300.305, 23.629 1290.305, 23.629 1280.305, 23.629 1270.305, 23.629 1260.305, 23.629 1250.305, 23.629 1240.305, 23.629 1230.305, 23.629 1220.305, 23.629 1210.305, 23.629 1200.305, 23.629 1190.305, 23.629 1180.305, 23.629 1170.305, 23.629 1160.305, 23.629 1150.305, 23.629 1140.305, 23.629 1130.305, 23.629 1120.305, 23.629 1110.305, 23.629 1100.305, 23.629 1090.305, 23.629 1080.305, 23.629 1070.305, 23.629 1060.305, 23.629 1050.305, 23.629 1040.305, 23.629 1030.305, 23.629 1020.305, 23.629 1010.305, 23.629 1000.305, 23.629 990.305, 23.629 980.305, 23.629 970.305, 23.629 960.305, 23.629 950.305, 23.629 940.305, 23.629 930.305, 23.629 920.305, 23.629 910.305, 23.629 900.305, 23.629 890.305, 23.629 880.305, 23.629 870.305, 23.629 860.305, 23.629 850.305, 23.629 840.305, 23.629 830.305, 23.629 820.305, 23.629 810.305, 23.629 800.305, 23.629 790.305, 23.629 780.305, 23.629 770.305, 23.629 760.305, 23.629 750.305, 23.629 740.305, 23.629 730.305, 23.629 720.305, 23.629 710.305, 23.629 700.305, 23.629 690.305, 23.629 680.305, 23.629 670.305, 23.629 660.305, 23.629 650.305, 23.629 640.305, 23.629 630.305, 23.629 620.305, 23.629 610.305, 23.629 600.305, 23.629 590.305, 23.629 580.305, 23.629 570.305, 23.629 560.305, 23.629 550.305, 23.629 540.305, 23.629 530.305, 23.629 520.305, 23.629 510.305, 23.629 500.305, 23.629 490.305, 23.629 480.305, 23.629 463.643, 23.629 460.307, 23.629 456.808, 23.629 446.808, 23.629 438.139, 23.629 " />
            <path fill="none" stroke-width="3.0" stroke-linecap="butt" stroke-opacity="1.0" stroke="rgb(0, 0, 0)" stroke-linejoin="round" d=" M 438.139, 23.629 428.139, 23.629 418.139, 23.629 408.139, 23.629 398.139, 23.629 388.139, 23.629 378.139, 23.629 368.139, 23.629 358.139, 23.629 348.139, 23.629 338.139, 23.629 328.139, 23.629 318.139, 23.629 308.139, 23.629 298.139, 23.629 288.139, 23.629 278.139, 23.629 268.139, 23.629 258.139, 23.629 256.212, 23.629 253.981, 23.629 251.646, 23.629 249.215, 23.629 246.702, 23.629 244.115, 23.629 234.615, 23.629 224.615, 23.629 214.615, 23.629 204.615, 23.629 194.615, 23.629 184.615, 23.629 174.615, 23.629 164.615, 23.629 154.615, 23.629 144.615, 23.629 134.615, 23.629 124.615, 23.629 114.615, 23.629 104.615, 23.629 94.615, 23.629 84.615, 23.629 74.615, 23.629 64.615, 23.629 54.615, 23.629 44.615, 23.629 34.615, 23.629 23.469, 23.629 " />
            <path fill="none" stroke-width="3.0" stroke-linecap="butt" stroke-opacity="1.0" stroke="rgb(0, 0, 0)" stroke-linejoin="round" d=" M 4005.718, 889.725 4006.201, 899.713 4006.684, 909.702 4007.168, 919.690 4007.651, 929.678 4008.134, 939.667 4008.617, 949.655 4009.101, 959.643 4009.584, 969.631 4010.067, 979.620 4010.551, 989.608 4011.034, 999.596 4011.517, 1009.585 4012.000, 1019.573 4012.484, 1029.561 4012.967, 1039.550 4013.450, 1049.538 4013.934, 1059.526 4014.417, 1069.515 4014.900, 1079.503 4015.384, 1089.491 4015.867, 1099.480 4016.350, 1109.468 4016.833, 1119.456 4017.317, 1129.445 4017.800, 1139.433 4018.283, 1149.421 4018.767, 1159.410 4019.250, 1169.398 4019.733, 1179.386 4020.217, 1189.375 4020.700, 1199.363 4021.183, 1209.351 4021.667, 1219.339 4022.150, 1229.328 4022.633, 1239.316 4023.116, 1249.304 4023.600, 1259.293 4024.083, 1269.281 4024.566, 1279.269 4025.050, 1289.258 4025.533, 1299.246 4026.016, 1309.234 4026.500, 1319.223 4026.983, 1329.211 4027.466, 1339.199 4027.949, 1349.188 4028.433, 1359.176 4028.916, 1369.164 4029.399, 1379.152 4029.883, 1389.141 4030.366, 1399.129 4030.849, 1409.117 4031.333, 1419.106 4031.816, 1429.094 4032.299, 1439.082 4032.613, 1445.578 " />
            <path fill="none" stroke-width="3.0" stroke-linecap="butt" stroke-opacity="1.0" stroke="rgb(0, 0, 0)" stroke-linejoin="round" d=" M 23.469, 23.629 27.490, 32.785 31.510, 41.941 35.531, 51.097 39.551, 60.254 43.572, 69.410 47.592, 78.566 51.613, 87.722 55.634, 96.878 59.654, 106.034 63.675, 115.191 67.695, 124.347 71.716, 133.503 75.736, 142.659 79.757, 151.815 83.777, 160.971 87.798, 170.127 91.818, 179.284 95.839, 188.440 99.860, 197.596 103.880, 206.752 107.901, 215.908 111.921, 225.064 113.771, 229.277 " />
            <path fill="none" stroke-width="3.0" stroke-linecap="butt" stroke-opacity="1.0" stroke="rgb(0, 0, 0)" stroke-linejoin="round" d=" M 326.683, 2273.382 319.020, 2273.382 " />
            <path fill="none" stroke-width="3.0" stroke-linecap="butt" stroke-opacity="1.0" stroke="rgb(0, 0, 0)" stroke-linejoin="round" d=" M 2222.616, 720.794 2222.146, 710.805 2221.676, 700.816 2221.206, 690.827 2220.736, 680.838 2220.266, 670.849 2219.796, 660.861 2219.325, 650.872 2218.855, 640.883 2218.385, 630.894 2217.915, 620.905 2217.445, 610.916 2216.975, 600.927 2216.505, 590.938 2216.035, 580.949 2215.565, 570.960 2215.095, 560.971 2214.625, 550.982 2214.155, 540.993 2213.685, 531.004 2213.527, 527.636 " />
            <path fill="none" stroke-width="3.0" stroke-linecap="butt" stroke-opacity="1.0" stroke="rgb(0, 0, 0)" stroke-linejoin="round" d=" M 2348.769, 1160.646 2346.012, 1151.034 2343.255, 1141.421 2340.498, 1131.809 2337.741, 1122.196 2334.984, 1112.584 2332.228, 1102.971 2329.471, 1093.359 2326.714, 1083.746 2323.957, 1074.134 2321.200, 1064.521 2318.443, 1054.909 2315.686, 1045.297 2312.929, 1035.684 2310.172, 1026.072 2307.415, 1016.459 2304.658, 1006.847 2301.901, 997.234 2299.144, 987.622 2296.387, 978.009 2293.630, 968.397 2290.874, 958.784 2288.116, 949.172 2285.360, 939.560 2282.603, 929.947 2279.846, 920.335 2277.089, 910.722 2274.332, 901.110 2271.575, 891.497 2268.818, 881.885 2266.061, 872.272 2263.304, 862.660 2260.547, 853.047 2257.790, 843.435 2255.033, 833.823 2252.276, 824.210 2249.520, 814.598 2246.762, 804.985 2244.006, 795.373 2241.249, 785.760 2238.492, 776.148 2235.735, 766.535 2232.978, 756.923 2230.221, 747.310 2227.464, 737.698 2224.707, 728.086 2222.616, 720.794 " />
            <path fill="none" stroke-width="3.0" stroke-linecap="butt" stroke-opacity="1.0" stroke="rgb(0, 0, 0)" stroke-linejoin="round" d=" M 3919.934, 23.629 3920.615, 33.606 3921.295, 43.583 3921.976, 53.559 3922.657, 63.536 3923.338, 73.513 3924.019, 83.490 3924.699, 93.467 3925.380, 103.443 3926.061, 113.420 3926.742, 123.397 3926.935, 126.224 " />
            <path fill="none" stroke-width="3.0" stroke-linecap="butt" stroke-opacity="1.0" stroke="rgb(0, 0, 0)" stroke-linejoin="round" d=" M 4032.613, 1445.578 4032.130, 1435.589 4031.647, 1425.601 4031.164, 1415.613 4030.680, 1405.624 4030.197, 1395.636 4029.714, 1385.648 4029.230, 1375.659 4028.747, 1365.671 4028.264, 1355.683 4027.780, 1345.695 4027.297, 1335.706 4026.814, 1325.718 4026.331, 1315.730 4025.847, 1305.741 4025.364, 1295.753 4024.881, 1285.765 4024.397, 1275.776 4023.914, 1265.788 4023.431, 1255.800 4022.948, 1245.811 4022.464, 1235.823 4021.981, 1225.835 4021.498, 1215.846 4021.014, 1205.858 4020.531, 1195.870 4020.048, 1185.881 4019.564, 1175.893 4019.081, 1165.905 4018.598, 1155.917 4018.115, 1145.928 4017.631, 1135.940 4017.148, 1125.952 4016.665, 1115.963 4016.181, 1105.975 4015.698, 1095.987 4015.215, 1085.998 4014.731, 1076.010 4014.248, 1066.022 4013.765, 1056.033 4013.281, 1046.045 4012.798, 1036.057 4012.315, 1026.068 4011.832, 1016.080 4011.348, 1006.092 4010.865, 996.104 4010.382, 986.115 4009.898, 976.127 4009.415, 966.139 4008.932, 956.150 4008.448, 946.162 4007.965, 936.174 4007.482, 926.185 4006.999, 916.197 4006.515, 906.209 4006.032, 896.220 4005.718, 889.725 " />
            <path fill="none" stroke-width="3.0" stroke-linecap="butt" stroke-opacity="1.0" stroke="rgb(0, 0, 0)" stroke-linejoin="round" d=" M 4671.735, 1256.610 4669.622, 1255.010 " />
            <path fill="none" stroke-width="3.0" stroke-linecap="butt" stroke-opacity="1.0" stroke="rgb(0, 0, 0)" stroke-linejoin="round" d=" M 4688.366, 1264.620 4685.834, 1263.839 " />
            <path fill="none" stroke-width="3.0" stroke-linecap="butt" stroke-opacity="1.0" stroke="rgb(0, 0, 0)" stroke-linejoin="round" d=" M 4690.935, 1265.274 4688.366, 1264.620 " />
            <path fill="none" stroke-width="3.0" stroke-linecap="butt" stroke-opacity="1.0" stroke="rgb(0, 0, 0)" stroke-linejoin="round" d=" M 4706.734, 1266.458 4704.087, 1266.589 " />
            <path fill="none" stroke-width="3.0" stroke-linecap="butt" stroke-opacity="1.0" stroke="rgb(0, 0, 0)" stroke-linejoin="round" d=" M 4724.623, 1261.903 4722.181, 1262.932 " />
            <path fill="none" stroke-width="3.0" stroke-linecap="butt" stroke-opacity="1.0" stroke="rgb(0, 0, 0)" stroke-linejoin="round" d=" M 4750.651, 1236.516 4749.443, 1238.874 " />
            <path fill="none" stroke-width="3.0" stroke-linecap="butt" stroke-opacity="1.0" stroke="rgb(0, 0, 0)" stroke-linejoin="round" d=" M 4751.742, 1234.100 4750.651, 1236.516 " />
            <path fill="none" stroke-width="3.0" stroke-linecap="butt" stroke-opacity="1.0" stroke="rgb(0, 0, 0)" stroke-linejoin="round" d=" M 4752.710, 1231.633 4751.742, 1234.100 " />
            <path fill="none" stroke-width="3.0" stroke-linecap="butt" stroke-opacity="1.0" stroke="rgb(0, 0, 0)" stroke-linejoin="round" d=" M 4753.554, 1229.121 4752.710, 1231.633 " />
        </g>
    </g>
<g id="slice-labels"><text x="609.0752000000001" y="586.0672500000001" text-anchor="middle" dominant-baseline="middle" font-family="Arial, sans-serif" font-size="59.05887507883808" font-weight="bold" fill="black" stroke="none" stroke-width="7.087065009460568" paint-order="stroke fill">Slice19 (Front)</text><text x="1780.2875999999999" y="586.0672500000001" text-anchor="middle" dominant-baseline="middle" font-family="Arial, sans-serif" font-size="59.05887507883808" font-weight="bold" fill="black" stroke="none" stroke-width="7.087065009460568" paint-order="stroke fill">Slice19 (Front)</text><text x="2951.5" y="586.0672500000001" text-anchor="middle" dominant-baseline="middle" font-family="Arial, sans-serif" font-size="59.05887507883808" font-weight="bold" fill="black" stroke="none" stroke-width="7.087065009460568" paint-order="stroke fill">Slice19 (Front)</text><text x="4122.712399999999" y="586.0672500000001" text-anchor="middle" dominant-baseline="middle" font-family="Arial, sans-serif" font-size="59.05887507883808" font-weight="bold" fill="black" stroke="none" stroke-width="7.087065009460568" paint-order="stroke fill">Slice19 (Front)</text><text x="5293.9248" y="586.0672500000001" text-anchor="middle" dominant-baseline="middle" font-family="Arial, sans-serif" font-size="59.05887507883808" font-weight="bold" fill="black" stroke="none" stroke-width="7.087065009460568" paint-order="stroke fill">Slice19 (Front)</text><text x="609.0752000000001" y="1710.94375" text-anchor="middle" dominant-baseline="middle" font-family="Arial, sans-serif" font-size="59.05887507883808" font-weight="bold" fill="black" stroke="none" stroke-width="7.087065009460568" paint-order="stroke fill">Slice19 (Front)</text><text x="1780.2875999999999" y="1710.94375" text-anchor="middle" dominant-baseline="middle" font-family="Arial, sans-serif" font-size="59.05887507883808" font-weight="bold" fill="black" stroke="none" stroke-width="7.087065009460568" paint-order="stroke fill">Slice19 (Front)</text><text x="2951.5" y="1710.94375" text-anchor="middle" dominant-baseline="middle" font-family="Arial, sans-serif" font-size="59.05887507883808" font-weight="bold" fill="black" stroke="none" stroke-width="7.087065009460568" paint-order="stroke fill">Slice19 (Front)</text><text x="4122.712399999999" y="1710.94375" text-anchor="middle" dominant-baseline="middle" font-family="Arial, sans-serif" font-size="59.05887507883808" font-weight="bold" fill="black" stroke="none" stroke-width="7.087065009460568" paint-order="stroke fill">Slice19 (Front)</text><text x="5293.9248" y="1710.94375" text-anchor="middle" dominant-baseline="middle" font-family="Arial, sans-serif" font-size="59.05887507883808" font-weight="bold" fill="black" stroke="none" stroke-width="7.087065009460568" paint-order="stroke fill">Slice19 (Front)</text></g></svg>