<?xml version='1.0' encoding='utf-8'?>
<svg xmlns="http://www.w3.org/2000/svg" xmlns:inkscape="http://www.inkscape.org/namespaces/inkscape" version="1.1" width="289.42601759545505mm" height="299.96948623657227mm" viewBox="-0.23440154839816785 0.004598620380765084 3418.4688030967964 3542.9998027592387" preserveAspectRatio="none">
    <g id="ViewLayer_LineSet" inkscape:groupmode="lineset" inkscape:label="ViewLayer_LineSet">
        <g inkscape:groupmode="layer" id="strokes" inkscape:label="strokes">
            <path fill="none" stroke-width="3.0" stroke-linecap="butt" stroke-opacity="1.0" stroke="rgb(0, 0, 0)" stroke-linejoin="round" d=" M 1079.482, 3208.580 1076.963, 3205.998 1074.577, 3203.293 1072.328, 3200.474 1070.222, 3197.544 1068.265, 3194.514 1066.461, 3191.391 1064.816, 3188.180 1063.332, 3184.893 1062.014, 3181.535 1060.865, 3178.115 1059.889, 3174.644 1059.086, 3171.127 1058.459, 3167.574 1058.011, 3163.995 1057.741, 3160.398 1057.651, 3156.792 1057.741, 3153.186 1058.011, 3149.589 1058.459, 3146.009 1059.086, 3142.457 1059.889, 3138.940 1060.865, 3135.468 1062.014, 3132.049 1063.332, 3128.691 1064.816, 3125.403 1066.461, 3122.193 1068.265, 3119.069 1070.222, 3116.040 1072.328, 3113.110 1074.577, 3110.290 1076.963, 3107.585 1079.482, 3105.003 1082.126, 3102.550 1084.890, 3100.231 1087.765, 3098.053 1090.745, 3096.021 1093.823, 3094.141 1096.991, 3092.416 1100.241, 3090.851 1103.565, 3089.449 1106.955, 3088.215 1110.401, 3087.152 1113.897, 3086.262 1117.433, 3085.547 1121.000, 3085.010 1124.589, 3084.651 1128.191, 3084.471 1131.799, 3084.471 1135.401, 3084.651 1138.990, 3085.010 1142.557, 3085.547 1146.093, 3086.262 1149.589, 3087.152 1153.036, 3088.215 1156.425, 3089.449 1159.749, 3090.851 1162.999, 3092.416 1166.167, 3094.141 1169.245, 3096.021 1172.225, 3098.053 1175.101, 3100.231 1177.864, 3102.550 1180.508, 3105.003 1183.027, 3107.585 1185.413, 3110.290 1187.662, 3113.110 1189.768, 3116.040 1191.725, 3119.069 1193.529, 3122.193 1195.174, 3125.403 1196.658, 3128.691 1197.976, 3132.049 1199.125, 3135.468 1200.102, 3138.940 1200.904, 3142.457 1201.531, 3146.009 1201.979, 3149.589 1202.249, 3153.186 1202.339, 3156.792 1202.249, 3160.398 1201.979, 3163.995 1201.531, 3167.574 1200.904, 3171.127 1200.102, 3174.644 1199.125, 3178.115 1197.976, 3181.535 1196.658, 3184.893 1195.174, 3188.180 1193.529, 3191.391 1191.725, 3194.514 1189.768, 3197.544 1187.662, 3200.474 1185.413, 3203.293 1183.027, 3205.998 1180.508, 3208.580 1177.864, 3211.034 1175.101, 3213.352 1172.225, 3215.531 1169.245, 3217.562 1166.167, 3219.443 1162.999, 3221.168 1159.749, 3222.733 1156.425, 3224.134 1153.036, 3225.368 1149.589, 3226.432 1146.093, 3227.321 1142.557, 3228.036 1138.990, 3228.574 1135.401, 3228.933 1131.799, 3229.113 1128.191, 3229.113 1124.589, 3228.933 1121.000, 3228.574 1117.433, 3228.036 1113.897, 3227.321 1110.401, 3226.432 1106.955, 3225.368 1103.565, 3224.134 1100.241, 3222.733 1096.991, 3221.168 1093.823, 3219.443 1090.745, 3217.562 1087.765, 3215.531 1084.890, 3213.352 1082.126, 3211.034 1079.482, 3208.580 " />
            <path fill="none" stroke-width="3.0" stroke-linecap="butt" stroke-opacity="1.0" stroke="rgb(0, 0, 0)" stroke-linejoin="round" d=" M 73.327, 3392.158 69.673, 3401.467 66.019, 3410.775 62.365, 3420.084 58.711, 3429.392 55.057, 3438.701 51.404, 3448.009 47.750, 3457.318 44.096, 3466.626 40.442, 3475.935 36.788, 3485.244 33.134, 3494.552 29.480, 3503.861 25.827, 3513.169 23.388, 3519.382 33.388, 3519.382 43.388, 3519.382 53.388, 3519.382 63.388, 3519.382 73.388, 3519.382 83.388, 3519.382 93.388, 3519.382 103.388, 3519.382 113.388, 3519.382 123.388, 3519.382 133.388, 3519.382 143.388, 3519.382 153.388, 3519.382 163.388, 3519.382 173.388, 3519.382 183.388, 3519.382 193.388, 3519.382 203.388, 3519.382 213.388, 3519.382 223.388, 3519.382 233.388, 3519.382 243.388, 3519.382 253.388, 3519.382 263.388, 3519.382 273.388, 3519.382 283.388, 3519.382 293.388, 3519.382 303.388, 3519.382 313.388, 3519.382 323.388, 3519.382 333.388, 3519.382 343.388, 3519.382 353.388, 3519.382 363.388, 3519.382 373.388, 3519.382 383.388, 3519.382 394.170, 3519.382 399.905, 3519.382 402.633, 3519.382 405.254, 3519.382 415.254, 3519.382 425.254, 3519.382 435.254, 3519.382 445.254, 3519.382 455.254, 3519.382 465.254, 3519.382 475.254, 3519.382 485.254, 3519.382 495.254, 3519.382 505.254, 3519.382 515.254, 3519.382 525.254, 3519.382 535.254, 3519.382 545.254, 3519.382 555.254, 3519.382 565.254, 3519.382 575.254, 3519.382 585.254, 3519.382 595.254, 3519.382 605.254, 3519.382 615.254, 3519.382 625.254, 3519.382 635.254, 3519.382 645.254, 3519.382 655.254, 3519.382 665.254, 3519.382 675.254, 3519.382 685.254, 3519.382 695.254, 3519.382 699.528, 3519.382 709.528, 3519.382 719.528, 3519.382 729.528, 3519.382 739.528, 3519.382 749.528, 3519.382 759.528, 3519.382 769.528, 3519.382 779.528, 3519.382 789.528, 3519.382 799.528, 3519.382 809.528, 3519.382 819.528, 3519.382 829.528, 3519.382 839.528, 3519.382 849.528, 3519.382 859.528, 3519.382 869.528, 3519.382 879.528, 3519.382 889.528, 3519.382 899.528, 3519.382 909.528, 3519.382 919.528, 3519.382 929.528, 3519.382 939.528, 3519.382 949.528, 3519.382 959.528, 3519.382 969.528, 3519.382 979.528, 3519.382 989.528, 3519.382 999.528, 3519.382 1009.528, 3519.382 1019.528, 3519.382 1029.528, 3519.382 1039.528, 3519.382 1049.528, 3519.382 1059.528, 3519.382 1069.528, 3519.382 1079.528, 3519.382 1089.528, 3519.382 1099.528, 3519.382 1109.528, 3519.382 1119.528, 3519.382 1129.528, 3519.382 1139.528, 3519.382 1149.528, 3519.382 1159.528, 3519.382 1169.528, 3519.382 1179.528, 3519.382 1189.528, 3519.382 1199.528, 3519.382 1209.528, 3519.382 1219.528, 3519.382 1229.528, 3519.382 1240.134, 3519.382 " />
            <path fill="none" stroke-width="3.0" stroke-linecap="butt" stroke-opacity="1.0" stroke="rgb(0, 0, 0)" stroke-linejoin="round" d=" M 706.363, 3519.347 703.057, 3519.347 " />
            <path fill="none" stroke-width="3.0" stroke-linecap="butt" stroke-opacity="1.0" stroke="rgb(0, 0, 0)" stroke-linejoin="round" d=" M 1259.632, 3519.274 1262.630, 3519.274 " />
            <path fill="none" stroke-width="3.0" stroke-linecap="butt" stroke-opacity="1.0" stroke="rgb(0, 0, 0)" stroke-linejoin="round" d=" M 1280.948, 3519.273 1277.900, 3519.273 " />
            <path fill="none" stroke-width="3.0" stroke-linecap="butt" stroke-opacity="1.0" stroke="rgb(0, 0, 0)" stroke-linejoin="round" d=" M 550.883, 2285.109 547.377, 2294.474 543.870, 2303.839 540.363, 2313.204 536.857, 2322.569 533.350, 2331.934 529.843, 2341.299 526.337, 2350.664 522.830, 2360.029 519.323, 2369.394 515.817, 2378.759 512.310, 2388.124 508.803, 2397.489 505.297, 2406.854 501.790, 2416.219 498.283, 2425.584 494.777, 2434.949 491.270, 2444.314 487.763, 2453.679 484.257, 2463.044 480.750, 2472.409 477.243, 2481.774 473.737, 2491.139 470.230, 2500.504 466.723, 2509.869 463.216, 2519.234 459.710, 2528.599 456.203, 2537.964 452.696, 2547.329 449.190, 2556.694 445.683, 2566.059 442.176, 2575.424 438.670, 2584.789 435.163, 2594.154 431.656, 2603.519 428.150, 2612.884 424.643, 2622.249 421.136, 2631.614 418.496, 2638.666 " />
            <path fill="none" stroke-width="3.0" stroke-linecap="butt" stroke-opacity="1.0" stroke="rgb(0, 0, 0)" stroke-linejoin="round" d=" M 2260.602, 3209.184 2258.083, 3206.601 2255.697, 3203.897 2253.448, 3201.077 2251.342, 3198.148 2249.385, 3195.118 2247.582, 3191.993 2245.936, 3188.784 2244.452, 3185.496 2243.135, 3182.138 2241.986, 3178.719 2241.009, 3175.246 2240.206, 3171.730 2239.579, 3168.177 2239.131, 3164.598 2238.862, 3161.001 2238.771, 3157.395 2238.862, 3153.789 2239.131, 3150.192 2239.579, 3146.612 2240.206, 3143.060 2241.009, 3139.544 2241.986, 3136.071 2243.135, 3132.652 2244.452, 3129.294 2245.936, 3126.006 2247.582, 3122.797 2249.385, 3119.673 2251.342, 3116.642 2253.448, 3113.714 2255.697, 3110.893 2258.083, 3108.189 2260.602, 3105.606 2263.246, 3103.154 2266.010, 3100.834 2268.885, 3098.657 2271.865, 3096.624 2274.943, 3094.744 2278.111, 3093.018 2281.361, 3091.453 2284.685, 3090.052 2288.075, 3088.818 2291.521, 3087.755 2295.017, 3086.865 2298.553, 3086.151 2302.119, 3085.613 2305.709, 3085.254 2309.312, 3085.074 2312.919, 3085.074 2316.521, 3085.254 2320.111, 3085.613 2323.677, 3086.151 2327.213, 3086.865 2330.709, 3087.755 2334.156, 3088.818 2337.545, 3090.052 2340.869, 3091.453 2344.119, 3093.018 2347.287, 3094.744 2350.365, 3096.624 2353.345, 3098.657 2356.221, 3100.834 2358.984, 3103.154 2361.628, 3105.606 2364.147, 3108.189 2366.533, 3110.893 2368.782, 3113.714 2370.888, 3116.642 2372.845, 3119.673 2374.649, 3122.797 2376.294, 3126.006 2377.778, 3129.294 2379.096, 3132.652 2380.245, 3136.071 2381.221, 3139.544 2382.024, 3143.060 2382.651, 3146.612 2383.099, 3150.192 2383.369, 3153.789 2383.459, 3157.395 2383.369, 3161.001 2383.099, 3164.598 2382.651, 3168.177 2382.024, 3171.730 2381.221, 3175.246 2380.245, 3178.719 2379.096, 3182.138 2377.778, 3185.496 2376.294, 3188.784 2374.649, 3191.993 2372.845, 3195.118 2370.888, 3198.148 2368.782, 3201.077 2366.533, 3203.897 2364.147, 3206.601 2361.628, 3209.184 2358.984, 3211.637 2356.221, 3213.955 2353.345, 3216.133 2350.365, 3218.166 2347.287, 3220.046 2344.119, 3221.772 2340.869, 3223.337 2337.545, 3224.738 2334.156, 3225.971 2330.709, 3227.035 2327.213, 3227.925 2323.677, 3228.639 2320.111, 3229.177 2316.521, 3229.536 2312.919, 3229.716 2309.312, 3229.716 2305.709, 3229.536 2302.119, 3229.177 2298.553, 3228.639 2295.017, 3227.925 2291.521, 3227.035 2288.075, 3225.971 2284.685, 3224.738 2281.361, 3223.337 2278.111, 3221.772 2274.943, 3220.046 2271.865, 3218.166 2268.885, 3216.133 2266.010, 3213.955 2263.246, 3211.637 2260.602, 3209.184 " />
            <path fill="none" stroke-width="3.0" stroke-linecap="butt" stroke-opacity="1.0" stroke="rgb(0, 0, 0)" stroke-linejoin="round" d=" M 2158.874, 3519.272 2155.839, 3519.272 " />
            <path fill="none" stroke-width="3.0" stroke-linecap="butt" stroke-opacity="1.0" stroke="rgb(0, 0, 0)" stroke-linejoin="round" d=" M 2202.117, 3519.274 2199.662, 3519.274 " />
            <path fill="none" stroke-width="3.0" stroke-linecap="butt" stroke-opacity="1.0" stroke="rgb(0, 0, 0)" stroke-linejoin="round" d=" M 1271.933, 3519.382 1281.933, 3519.382 1284.019, 3519.382 1292.885, 3519.382 1302.885, 3519.382 1312.885, 3519.382 1322.885, 3519.382 1332.885, 3519.382 1342.885, 3519.382 1352.885, 3519.382 1362.885, 3519.382 1372.885, 3519.382 1382.885, 3519.382 1392.885, 3519.382 1402.885, 3519.382 1412.885, 3519.382 1422.885, 3519.382 1432.885, 3519.382 1442.885, 3519.382 1452.885, 3519.382 1462.885, 3519.382 1472.885, 3519.382 1482.885, 3519.382 1492.885, 3519.382 1502.885, 3519.382 1512.885, 3519.382 1522.885, 3519.382 1532.885, 3519.382 1542.885, 3519.382 1552.885, 3519.382 1562.885, 3519.382 1572.885, 3519.382 1582.885, 3519.382 1592.885, 3519.382 1602.885, 3519.382 1612.885, 3519.382 1622.885, 3519.382 1632.885, 3519.382 1642.885, 3519.382 1652.885, 3519.382 1662.885, 3519.382 1672.885, 3519.382 1682.885, 3519.382 1692.885, 3519.382 1702.885, 3519.382 1712.885, 3519.382 1722.885, 3519.382 1732.885, 3519.382 1742.885, 3519.382 1752.885, 3519.382 1762.885, 3519.382 1772.885, 3519.382 1782.885, 3519.382 1792.885, 3519.382 1802.885, 3519.382 1812.885, 3519.382 1822.885, 3519.382 1832.885, 3519.382 1842.885, 3519.382 1852.885, 3519.382 1862.885, 3519.382 1872.885, 3519.382 1882.885, 3519.382 1892.885, 3519.382 1902.885, 3519.382 1912.885, 3519.382 1922.885, 3519.382 1932.885, 3519.382 1942.885, 3519.382 1952.885, 3519.382 1962.885, 3519.382 1972.885, 3519.382 1982.885, 3519.382 1992.885, 3519.382 2002.885, 3519.382 2012.885, 3519.382 2022.885, 3519.382 2032.885, 3519.382 2042.885, 3519.382 2052.885, 3519.382 2062.885, 3519.382 2072.885, 3519.382 2082.885, 3519.382 2092.885, 3519.382 2102.885, 3519.382 2112.885, 3519.382 2122.885, 3519.382 2132.885, 3519.382 2149.824, 3519.382 2159.824, 3519.382 2161.887, 3519.382 2171.887, 3519.382 2177.184, 3519.382 2186.060, 3519.382 2191.708, 3519.382 2197.065, 3519.382 2207.065, 3519.382 2217.065, 3519.382 2227.065, 3519.382 2237.065, 3519.382 2247.065, 3519.382 2257.065, 3519.382 2267.065, 3519.382 2277.065, 3519.382 2287.065, 3519.382 2297.065, 3519.382 2307.065, 3519.382 2317.065, 3519.382 2327.065, 3519.382 2337.065, 3519.382 2347.065, 3519.382 2357.065, 3519.382 2367.065, 3519.382 2377.065, 3519.382 2387.065, 3519.382 2397.065, 3519.382 2407.065, 3519.382 2417.065, 3519.382 2427.065, 3519.382 2437.065, 3519.382 2447.065, 3519.382 2457.065, 3519.382 2467.065, 3519.382 2477.065, 3519.382 2487.065, 3519.382 2497.065, 3519.382 2507.065, 3519.382 2517.065, 3519.382 2527.065, 3519.382 2537.065, 3519.382 2547.065, 3519.382 2557.065, 3519.382 2567.065, 3519.382 2577.065, 3519.382 2587.065, 3519.382 2597.065, 3519.382 2607.065, 3519.382 2617.065, 3519.382 2627.065, 3519.382 2637.065, 3519.382 2647.065, 3519.382 2657.065, 3519.382 2667.065, 3519.382 2677.065, 3519.382 2687.065, 3519.382 2697.065, 3519.382 2707.065, 3519.382 2717.065, 3519.382 2727.065, 3519.382 2737.065, 3519.382 2747.065, 3519.382 2757.065, 3519.382 2767.065, 3519.382 2777.065, 3519.382 2787.065, 3519.382 2797.065, 3519.382 2807.065, 3519.382 2817.065, 3519.382 2827.065, 3519.382 2837.065, 3519.382 2847.065, 3519.382 2857.065, 3519.382 2867.065, 3519.382 2877.065, 3519.382 2887.065, 3519.382 2897.065, 3519.382 2907.065, 3519.382 2917.065, 3519.382 2932.939, 3519.382 2942.939, 3519.382 2944.153, 3519.382 2954.153, 3519.382 2964.153, 3519.382 2974.153, 3519.382 2984.153, 3519.382 2994.153, 3519.382 3004.153, 3519.382 3014.153, 3519.382 3024.153, 3519.382 3034.153, 3519.382 3044.153, 3519.382 3054.153, 3519.382 3064.153, 3519.382 3074.153, 3519.382 3084.153, 3519.382 3094.153, 3519.382 3104.153, 3519.382 3114.153, 3519.382 3124.153, 3519.382 3134.153, 3519.382 3144.153, 3519.382 3154.153, 3519.382 3164.153, 3519.382 3174.153, 3519.382 3184.153, 3519.382 3194.153, 3519.382 3204.153, 3519.382 3214.153, 3519.382 3224.153, 3519.382 3234.153, 3519.382 3244.153, 3519.382 3254.153, 3519.382 3257.816, 3519.382 3260.335, 3519.382 3261.644, 3519.382 3265.703, 3519.382 3268.469, 3519.382 3269.855, 3519.382 3272.491, 3519.382 " />
            <path fill="none" stroke-width="3.0" stroke-linecap="butt" stroke-opacity="1.0" stroke="rgb(0, 0, 0)" stroke-linejoin="round" d=" M 3272.491, 3519.382 3275.312, 3519.382 3277.935, 3519.382 3287.935, 3519.382 3297.935, 3519.382 3307.935, 3519.382 3317.935, 3519.382 3327.935, 3519.382 3337.935, 3519.382 3347.935, 3519.382 3357.935, 3519.382 3367.935, 3519.382 3377.935, 3519.382 3387.935, 3519.382 3394.612, 3519.382 3391.947, 3509.744 3389.282, 3500.106 3386.616, 3490.468 3383.951, 3480.829 3381.286, 3471.191 3378.621, 3461.553 3375.956, 3451.914 3373.291, 3442.276 3370.625, 3432.638 3367.960, 3423.000 3365.295, 3413.361 3362.630, 3403.723 3359.965, 3394.085 3357.299, 3384.446 3354.634, 3374.808 3351.969, 3365.170 3349.304, 3355.531 3346.639, 3345.893 3343.973, 3336.255 3341.308, 3326.617 3338.643, 3316.978 3335.978, 3307.340 3333.312, 3297.702 3330.647, 3288.063 3327.982, 3278.425 3325.317, 3268.787 3322.652, 3259.148 3319.987, 3249.510 3317.321, 3239.872 3314.656, 3230.234 3311.991, 3220.595 3309.326, 3210.957 3306.661, 3201.319 3303.995, 3191.680 3301.330, 3182.042 3298.665, 3172.404 3296.000, 3162.766 3293.334, 3153.127 3290.669, 3143.489 3288.004, 3133.851 3285.339, 3124.212 3282.674, 3114.574 3280.009, 3104.936 3277.343, 3095.298 3274.678, 3085.659 3272.013, 3076.021 3269.348, 3066.383 3266.683, 3056.744 3264.017, 3047.106 3261.352, 3037.468 3258.687, 3027.829 3256.022, 3018.191 3253.356, 3008.553 3250.691, 2998.915 3248.026, 2989.276 3245.361, 2979.638 3242.696, 2970.000 3240.031, 2960.361 3237.365, 2950.723 3234.700, 2941.085 3232.035, 2931.447 3229.370, 2921.808 3226.705, 2912.170 3224.039, 2902.532 3220.851, 2891.003 " />
            <path fill="none" stroke-width="3.0" stroke-linecap="butt" stroke-opacity="1.0" stroke="rgb(0, 0, 0)" stroke-linejoin="round" d=" M 204.800, 3194.247 199.266, 3202.576 193.733, 3210.906 188.199, 3219.235 182.666, 3227.565 177.133, 3235.895 174.783, 3239.431 169.250, 3247.761 163.717, 3256.090 158.183, 3264.420 152.650, 3272.749 147.117, 3281.079 141.583, 3289.408 136.050, 3297.738 130.517, 3306.068 124.983, 3314.397 119.450, 3322.727 113.916, 3331.056 108.383, 3339.386 102.850, 3347.716 97.316, 3356.045 91.783, 3364.375 86.250, 3372.704 80.716, 3381.034 75.183, 3389.363 73.327, 3392.158 " />
            <path fill="none" stroke-width="3.0" stroke-linecap="butt" stroke-opacity="1.0" stroke="rgb(0, 0, 0)" stroke-linejoin="round" d=" M 299.630, 2973.556 295.682, 2982.744 291.734, 2991.931 287.786, 3001.119 283.838, 3010.307 279.891, 3019.494 275.943, 3028.682 271.995, 3037.870 268.047, 3047.057 264.099, 3056.245 262.780, 3059.314 258.832, 3068.502 254.884, 3077.690 250.936, 3086.877 246.988, 3096.065 243.040, 3105.253 239.092, 3114.440 235.144, 3123.628 231.196, 3132.816 227.248, 3142.003 223.300, 3151.191 219.353, 3160.379 215.405, 3169.567 211.457, 3178.754 207.509, 3187.942 204.800, 3194.247 " />
            <path fill="none" stroke-width="3.0" stroke-linecap="butt" stroke-opacity="1.0" stroke="rgb(0, 0, 0)" stroke-linejoin="round" d=" M 418.496, 2638.666 422.003, 2629.301 425.509, 2619.936 429.016, 2610.571 432.523, 2601.206 436.029, 2591.841 439.536, 2582.476 442.606, 2574.278 439.099, 2583.643 435.592, 2593.008 432.086, 2602.373 428.579, 2611.738 425.072, 2621.103 421.566, 2630.468 418.496, 2638.666 415.151, 2648.090 411.806, 2657.513 408.461, 2666.938 405.116, 2676.361 401.771, 2685.785 398.426, 2695.209 395.081, 2704.633 391.736, 2714.057 388.392, 2723.481 385.047, 2732.905 381.702, 2742.329 378.073, 2752.553 374.728, 2761.977 371.383, 2771.401 368.038, 2780.825 364.693, 2790.249 361.348, 2799.673 358.003, 2809.097 354.658, 2818.521 351.313, 2827.945 347.968, 2837.369 344.623, 2846.793 341.279, 2856.217 337.934, 2865.641 334.589, 2875.065 331.244, 2884.489 327.899, 2893.913 324.554, 2903.337 321.209, 2912.761 317.864, 2922.185 314.519, 2931.609 311.174, 2941.033 307.829, 2950.457 304.484, 2959.881 301.139, 2969.305 299.630, 2973.556 " />
            <path fill="none" stroke-width="3.0" stroke-linecap="butt" stroke-opacity="1.0" stroke="rgb(0, 0, 0)" stroke-linejoin="round" d=" M 552.021, 2207.244 551.875, 2217.243 551.729, 2227.242 551.583, 2237.240 551.436, 2247.240 551.290, 2257.238 551.144, 2267.237 550.998, 2277.236 550.883, 2285.109 547.377, 2294.474 543.870, 2303.839 540.363, 2313.204 536.857, 2322.569 533.350, 2331.934 529.843, 2341.299 526.337, 2350.664 522.830, 2360.029 519.318, 2369.409 " />
            <path fill="none" stroke-width="3.0" stroke-linecap="butt" stroke-opacity="1.0" stroke="rgb(0, 0, 0)" stroke-linejoin="round" d=" M 442.606, 2574.278 446.112, 2564.913 449.619, 2555.548 453.126, 2546.183 456.632, 2536.818 460.139, 2527.453 463.646, 2518.088 467.152, 2508.723 470.659, 2499.358 474.166, 2489.993 477.673, 2480.628 481.179, 2471.263 484.686, 2461.898 488.193, 2452.533 491.699, 2443.168 495.206, 2433.803 498.713, 2424.438 502.219, 2415.073 505.726, 2405.708 509.233, 2396.343 512.739, 2386.978 516.246, 2377.613 519.318, 2369.409 515.811, 2378.774 512.305, 2388.139 508.798, 2397.504 505.291, 2406.869 501.785, 2416.234 498.278, 2425.599 494.771, 2434.964 491.265, 2444.329 487.758, 2453.694 484.251, 2463.059 480.745, 2472.424 477.238, 2481.789 473.731, 2491.154 470.224, 2500.519 466.718, 2509.884 463.211, 2519.249 459.704, 2528.614 456.198, 2537.979 452.691, 2547.344 449.184, 2556.709 445.678, 2566.074 442.171, 2575.439 438.664, 2584.804 435.158, 2594.169 431.651, 2603.534 428.144, 2612.899 424.638, 2622.264 421.131, 2631.629 418.496, 2638.666 " />
            <path fill="none" stroke-width="3.0" stroke-linecap="butt" stroke-opacity="1.0" stroke="rgb(0, 0, 0)" stroke-linejoin="round" d=" M 795.896, 1524.431 794.826, 1534.374 793.756, 1544.316 792.687, 1554.259 791.617, 1564.201 790.547, 1574.144 789.477, 1584.087 788.407, 1594.029 787.337, 1603.972 786.267, 1613.915 785.198, 1623.857 784.128, 1633.800 783.058, 1643.742 781.988, 1653.685 780.918, 1663.628 779.848, 1673.570 778.778, 1683.513 777.708, 1693.455 776.639, 1703.398 775.569, 1713.341 774.499, 1723.283 773.429, 1733.226 773.180, 1735.544 771.643, 1745.426 770.107, 1755.307 769.268, 1760.706 765.033, 1769.765 760.798, 1778.824 756.564, 1787.884 752.329, 1796.943 748.095, 1806.002 743.860, 1815.061 739.625, 1824.120 735.391, 1833.179 731.156, 1842.238 726.921, 1851.297 722.687, 1860.357 718.452, 1869.416 714.217, 1878.475 709.983, 1887.534 705.748, 1896.593 701.513, 1905.652 697.279, 1914.711 693.044, 1923.771 688.810, 1932.830 684.575, 1941.889 680.340, 1950.948 676.106, 1960.007 671.871, 1969.066 667.636, 1978.125 663.402, 1987.184 659.167, 1996.244 654.932, 2005.303 650.698, 2014.362 646.463, 2023.421 642.229, 2032.480 637.994, 2041.539 633.759, 2050.598 629.525, 2059.657 625.290, 2068.717 621.055, 2077.776 616.821, 2086.835 612.586, 2095.894 608.351, 2104.953 604.117, 2114.012 599.882, 2123.071 595.648, 2132.131 591.413, 2141.190 587.178, 2150.249 582.944, 2159.308 578.709, 2168.367 574.474, 2177.426 570.240, 2186.485 567.880, 2191.532 560.776, 2198.570 553.672, 2205.608 552.021, 2207.244 " />
            <path fill="none" stroke-width="3.0" stroke-linecap="butt" stroke-opacity="1.0" stroke="rgb(0, 0, 0)" stroke-linejoin="round" d=" M 867.383, 919.984 864.634, 929.598 861.885, 939.213 859.136, 948.828 856.388, 958.443 853.639, 968.058 850.890, 977.672 848.141, 987.287 845.392, 996.902 842.643, 1006.517 839.894, 1016.131 837.146, 1025.746 834.397, 1035.361 831.648, 1044.976 828.899, 1054.591 826.150, 1064.205 823.401, 1073.820 820.653, 1083.435 817.904, 1093.050 815.155, 1102.664 812.406, 1112.279 809.657, 1121.894 806.908, 1131.509 803.592, 1143.109 804.705, 1153.047 805.818, 1162.985 806.931, 1172.922 808.044, 1182.860 809.156, 1192.798 810.269, 1202.736 811.382, 1212.674 812.495, 1222.612 813.608, 1232.550 814.721, 1242.488 815.834, 1252.426 816.731, 1260.433 815.058, 1270.292 813.385, 1280.151 811.712, 1290.010 810.039, 1299.869 808.366, 1309.728 806.693, 1319.587 805.020, 1329.447 803.347, 1339.305 801.674, 1349.165 800.001, 1359.024 798.328, 1368.883 796.655, 1378.742 794.982, 1388.601 793.309, 1398.460 791.636, 1408.319 789.963, 1418.178 788.785, 1425.125 789.499, 1435.100 790.213, 1445.074 790.927, 1455.049 791.642, 1465.023 792.356, 1474.998 793.070, 1484.972 793.785, 1494.946 794.499, 1504.921 795.213, 1514.895 795.896, 1524.431 " />
            <path fill="none" stroke-width="3.0" stroke-linecap="butt" stroke-opacity="1.0" stroke="rgb(0, 0, 0)" stroke-linejoin="round" d=" M 1015.333, 212.329 1013.152, 222.088 1010.972, 231.848 1008.792, 241.607 1006.611, 251.366 1004.431, 261.126 1002.250, 270.885 1000.070, 280.645 997.890, 290.404 995.709, 300.164 993.529, 309.923 991.348, 319.682 989.168, 329.442 986.988, 339.201 984.807, 348.960 982.627, 358.720 980.446, 368.479 978.266, 378.239 976.086, 387.998 973.905, 397.758 971.725, 407.517 969.544, 417.276 967.364, 427.036 965.184, 436.795 963.003, 446.554 960.823, 456.314 958.642, 466.073 956.462, 475.833 954.282, 485.592 952.101, 495.351 949.921, 505.111 947.740, 514.870 945.560, 524.630 943.380, 534.389 941.199, 544.148 939.019, 553.908 936.838, 563.667 934.658, 573.427 932.478, 583.186 930.297, 592.946 928.117, 602.705 925.936, 612.464 923.756, 622.224 921.576, 631.983 919.395, 641.742 917.215, 651.502 915.034, 661.261 912.854, 671.021 910.674, 680.780 908.493, 690.539 906.313, 700.299 904.132, 710.058 901.952, 719.818 899.771, 729.577 897.591, 739.336 895.411, 749.096 893.230, 758.855 891.050, 768.615 888.835, 778.529 887.335, 788.416 885.836, 798.303 884.337, 808.190 882.837, 818.077 881.338, 827.964 879.839, 837.851 878.339, 847.738 876.840, 857.625 875.340, 867.512 873.841, 877.399 872.342, 887.286 870.842, 897.173 869.343, 907.060 867.844, 916.947 867.383, 919.984 " />
            <path fill="none" stroke-width="3.0" stroke-linecap="butt" stroke-opacity="1.0" stroke="rgb(0, 0, 0)" stroke-linejoin="round" d=" M 2047.817, 23.627 2037.817, 23.627 2027.817, 23.627 2017.817, 23.627 2011.469, 23.627 2001.469, 23.627 1991.469, 23.627 1981.469, 23.627 1971.469, 23.627 1961.469, 23.627 1951.469, 23.627 1941.469, 23.627 1931.469, 23.627 1921.469, 23.627 1911.469, 23.627 1901.469, 23.627 1891.469, 23.627 1881.469, 23.627 1871.469, 23.627 1861.469, 23.627 1851.469, 23.627 1841.469, 23.627 1831.469, 23.627 1821.469, 23.627 1811.469, 23.627 1801.469, 23.627 1791.469, 23.627 1781.469, 23.627 1771.469, 23.627 1761.469, 23.627 1751.469, 23.627 1741.469, 23.627 1731.469, 23.627 1721.469, 23.627 1711.469, 23.627 1701.469, 23.627 1691.469, 23.627 1681.469, 23.627 1671.469, 23.627 1661.469, 23.627 1651.469, 23.627 1641.469, 23.627 1631.469, 23.627 1621.469, 23.627 1611.469, 23.627 1601.469, 23.627 1591.469, 23.627 1581.469, 23.627 1571.469, 23.627 1561.469, 23.627 1551.469, 23.627 1541.469, 23.627 1531.469, 23.627 1521.469, 23.627 1511.469, 23.627 1501.469, 23.627 1491.469, 23.627 1481.469, 23.627 1471.469, 23.627 1461.469, 23.627 1451.469, 23.627 1441.469, 23.627 1431.469, 23.627 1421.469, 23.627 1411.469, 23.627 1401.469, 23.627 1391.469, 23.627 1381.469, 23.627 1371.469, 23.627 1361.469, 23.627 1351.469, 23.627 1341.469, 23.627 1331.469, 23.627 1321.469, 23.627 1311.469, 23.627 1301.469, 23.627 1291.469, 23.627 1281.469, 23.627 1271.469, 23.627 1261.469, 23.627 1251.469, 23.627 1241.469, 23.627 1231.469, 23.627 1221.469, 23.627 1211.469, 23.627 1201.469, 23.627 1191.469, 23.627 1181.469, 23.627 1171.469, 23.627 1161.469, 23.627 1151.469, 23.627 1141.469, 23.627 1131.469, 23.627 1121.469, 23.627 1111.469, 23.627 1101.469, 23.627 1091.469, 23.627 1081.469, 23.627 1071.469, 23.627 1061.469, 23.627 1051.469, 23.627 1041.469, 23.627 1027.676, 23.627 1026.798, 33.589 1025.919, 43.550 1025.814, 44.745 1025.190, 54.726 1024.566, 64.706 1023.941, 74.687 1023.317, 84.667 1022.693, 94.648 1022.069, 104.628 1021.445, 114.609 1020.820, 124.589 1020.196, 134.570 1019.572, 144.550 1018.948, 154.531 1018.323, 164.511 1017.699, 174.492 1017.075, 184.472 1016.451, 194.453 1015.827, 204.433 1015.333, 212.329 " />
            <path fill="none" stroke-width="3.0" stroke-linecap="butt" stroke-opacity="1.0" stroke="rgb(0, 0, 0)" stroke-linejoin="round" d=" M 2723.481, 2042.712 2718.857, 2033.845 2714.233, 2024.979 2709.609, 2016.112 2704.985, 2007.245 2700.361, 1998.378 2696.012, 1990.039 2692.948, 1980.521 2689.883, 1971.002 2686.818, 1961.483 2683.753, 1951.964 2680.689, 1942.445 2677.624, 1932.926 2674.559, 1923.408 2671.495, 1913.889 2668.430, 1904.370 2665.365, 1894.851 2662.301, 1885.332 2659.236, 1875.814 2656.171, 1866.295 2653.106, 1856.776 2650.042, 1847.257 2646.977, 1837.738 2643.912, 1828.220 2640.848, 1818.701 2637.783, 1809.182 2634.718, 1799.663 2631.654, 1790.144 2628.589, 1780.625 2625.524, 1771.107 2622.459, 1761.588 2619.395, 1752.069 2616.330, 1742.550 2613.265, 1733.031 2610.201, 1723.513 2607.136, 1713.994 2604.604, 1706.131 2601.258, 1696.708 2597.912, 1687.284 2594.565, 1677.861 2591.219, 1668.437 2587.873, 1659.014 2584.526, 1649.590 2581.180, 1640.167 2577.834, 1630.743 2574.487, 1621.320 2571.141, 1611.896 2567.795, 1602.473 2564.448, 1593.050 2561.102, 1583.626 2557.756, 1574.203 2554.409, 1564.779 2552.304, 1558.852 2547.502, 1550.080 2542.700, 1541.309 2537.898, 1532.537 2533.096, 1523.766 2528.294, 1514.994 2523.492, 1506.222 2518.690, 1497.451 2513.888, 1488.679 2509.086, 1479.908 2504.284, 1471.136 2499.482, 1462.365 2494.680, 1453.593 2489.878, 1444.821 2485.076, 1436.050 2480.274, 1427.278 2478.170, 1423.435 2475.796, 1413.721 2473.422, 1404.007 2471.048, 1394.292 2468.675, 1384.578 2466.301, 1374.864 2463.927, 1365.150 2461.553, 1355.436 2459.179, 1345.722 2456.805, 1336.008 2454.431, 1326.293 2452.057, 1316.579 2449.684, 1306.865 2447.310, 1297.151 2444.936, 1287.437 2442.562, 1277.723 2440.188, 1268.009 2437.814, 1258.294 2435.440, 1248.580 2433.066, 1238.866 2430.693, 1229.152 2428.319, 1219.438 2425.945, 1209.724 2424.605, 1204.242 2419.425, 1195.689 2414.244, 1187.135 2409.063, 1178.582 2403.883, 1170.029 2398.702, 1161.475 2393.521, 1152.922 2388.340, 1144.369 2383.160, 1135.815 2377.979, 1127.262 2372.798, 1118.708 2367.618, 1110.155 2362.437, 1101.602 2357.256, 1093.048 2353.511, 1086.865 2349.109, 1077.886 2344.707, 1068.907 2340.305, 1059.928 2335.903, 1050.949 2331.501, 1041.970 2327.099, 1032.992 2322.697, 1024.013 2318.295, 1015.034 2313.893, 1006.055 2309.491, 997.076 2305.089, 988.097 2300.687, 979.118 2296.284, 970.139 2291.882, 961.160 2287.480, 952.181 2283.078, 943.202 2278.676, 934.223 2276.953, 930.709 2275.051, 920.892 2273.148, 911.074 2271.246, 901.257 2269.343, 891.440 2267.440, 881.623 2265.538, 871.805 2263.635, 861.988 2261.733, 852.170 2259.830, 842.353 2257.927, 832.536 2256.025, 822.719 2254.122, 812.901 2252.220, 803.084 2250.317, 793.266 2248.415, 783.449 2246.512, 773.632 2244.609, 763.814 2242.707, 753.997 2240.804, 744.180 2238.902, 734.362 2236.999, 724.545 2235.096, 714.728 2233.194, 704.910 2231.291, 695.093 2229.389, 685.276 2227.486, 675.458 2225.583, 665.641 2223.681, 655.824 2221.778, 646.006 2219.876, 636.189 2217.973, 626.372 2216.071, 616.554 2214.168, 606.737 2212.265, 596.920 2210.363, 587.102 2208.460, 577.285 2206.558, 567.468 2204.655, 557.650 2202.752, 547.833 2200.850, 538.016 2198.947, 528.198 2197.045, 518.381 2195.142, 508.564 2193.240, 498.746 2191.337, 488.929 2189.434, 479.112 2187.532, 469.294 2185.629, 459.477 2183.727, 449.660 2181.824, 439.842 2179.921, 430.025 2178.019, 420.208 2176.116, 410.390 2174.214, 400.573 2172.311, 390.756 2169.781, 377.700 2168.152, 367.834 2166.522, 357.968 2164.893, 348.101 2163.264, 338.235 2161.635, 328.368 2160.006, 318.502 2158.377, 308.636 2156.748, 298.769 2155.118, 288.903 2153.489, 279.037 2151.860, 269.170 2150.231, 259.304 2148.602, 249.437 2146.972, 239.571 2145.343, 229.705 2143.714, 219.838 2142.085, 209.972 2141.728, 207.811 2137.101, 198.946 2132.474, 190.081 2127.846, 181.216 2123.219, 172.351 2118.592, 163.486 2113.964, 154.621 2109.337, 145.756 2104.710, 136.891 2100.082, 128.026 2095.455, 119.161 2090.828, 110.296 2086.200, 101.431 2081.573, 92.566 2076.946, 83.701 2072.319, 74.836 2067.691, 65.971 2063.064, 57.106 2058.437, 48.241 2056.889, 45.277 2053.024, 36.054 2049.159, 26.831 2047.817, 23.627 " />
            <path fill="none" stroke-width="3.0" stroke-linecap="butt" stroke-opacity="1.0" stroke="rgb(0, 0, 0)" stroke-linejoin="round" d=" M 3220.851, 2891.003 3220.179, 2881.025 3219.506, 2871.048 3218.833, 2861.070 3218.160, 2851.093 3217.488, 2841.116 3216.815, 2831.138 3216.142, 2821.161 3215.469, 2811.184 3214.797, 2801.206 3214.124, 2791.229 3213.451, 2781.252 3212.779, 2771.274 3212.106, 2761.297 3211.716, 2755.516 3211.043, 2745.539 3210.371, 2735.561 3209.698, 2725.584 3209.025, 2715.607 3208.353, 2705.629 3207.680, 2695.652 3207.007, 2685.674 3206.958, 2684.950 3200.869, 2677.017 3194.779, 2669.085 3188.690, 2661.153 3182.600, 2653.221 3176.511, 2645.289 3170.421, 2637.357 3164.332, 2629.425 3158.242, 2621.493 3152.153, 2613.561 3146.063, 2605.629 3139.974, 2597.696 3133.884, 2589.764 3127.795, 2581.832 3121.705, 2573.900 3115.616, 2565.968 3109.526, 2558.036 3103.437, 2550.104 3097.347, 2542.172 3091.258, 2534.240 3085.168, 2526.308 3079.079, 2518.376 3072.989, 2510.443 3066.900, 2502.511 3060.810, 2494.579 3054.721, 2486.647 3048.631, 2478.715 3042.542, 2470.783 3036.452, 2462.851 3030.363, 2454.919 3024.273, 2446.987 3018.184, 2439.055 3012.094, 2431.123 3006.005, 2423.190 2999.916, 2415.258 2993.826, 2407.326 2987.736, 2399.394 2981.647, 2391.462 2975.557, 2383.530 2969.468, 2375.598 2963.378, 2367.666 2957.289, 2359.734 2951.199, 2351.802 2945.110, 2343.870 2939.021, 2335.938 2932.931, 2328.005 2926.842, 2320.073 2920.752, 2312.141 2914.663, 2304.209 2908.573, 2296.277 2902.484, 2288.345 2896.394, 2280.413 2890.305, 2272.481 2884.215, 2264.549 2878.125, 2256.617 2872.036, 2248.684 2865.947, 2240.752 2859.857, 2232.820 2853.768, 2224.888 2847.678, 2216.956 2841.589, 2209.024 2835.499, 2201.092 2829.410, 2193.160 2823.320, 2185.228 2817.231, 2177.296 2811.141, 2169.364 2805.052, 2161.431 2798.962, 2153.499 2792.873, 2145.567 2786.783, 2137.635 2777.343, 2125.339 " />
            <path fill="none" stroke-width="3.0" stroke-linecap="butt" stroke-opacity="1.0" stroke="rgb(0, 0, 0)" stroke-linejoin="round" d=" M 1573.018, 1312.739 1570.630, 1311.589 1568.303, 1310.322 1566.041, 1308.940 1563.852, 1307.447 1561.739, 1305.847 1559.709, 1304.143 1557.766, 1302.341 1555.916, 1300.444 1554.162, 1298.457 1552.510, 1296.385 1550.963, 1294.233 1549.525, 1292.007 1548.200, 1289.712 " />
            <path fill="none" stroke-width="3.0" stroke-linecap="butt" stroke-opacity="1.0" stroke="rgb(0, 0, 0)" stroke-linejoin="round" d=" M 1546.991, 1287.353 1545.901, 1284.938 1544.933, 1282.471 1544.089, 1279.958 1543.371, 1277.407 1542.781, 1274.823 " />
            <path fill="none" stroke-width="3.0" stroke-linecap="butt" stroke-opacity="1.0" stroke="rgb(0, 0, 0)" stroke-linejoin="round" d=" M 1588.269, 1317.030 1585.648, 1316.635 1583.051, 1316.110 1580.483, 1315.456 1577.950, 1314.675 " />
            <path fill="none" stroke-width="3.0" stroke-linecap="butt" stroke-opacity="1.0" stroke="rgb(0, 0, 0)" stroke-linejoin="round" d=" M 1542.321, 1272.214 1541.992, 1269.584 1541.793, 1266.942 1541.727, 1264.292 1541.793, 1261.642 1541.992, 1259.000 1542.321, 1256.371 1542.781, 1253.761 1543.371, 1251.177 1544.089, 1248.626 1544.933, 1246.114 1545.901, 1243.647 1546.991, 1241.231 1548.200, 1238.873 1549.525, 1236.578 1550.963, 1234.352 1552.510, 1232.200 1554.162, 1230.128 " />
            <path fill="none" stroke-width="3.0" stroke-linecap="butt" stroke-opacity="1.0" stroke="rgb(0, 0, 0)" stroke-linejoin="round" d=" M 1554.162, 1230.128 1555.916, 1228.141 " />
            <path fill="none" stroke-width="3.0" stroke-linecap="butt" stroke-opacity="1.0" stroke="rgb(0, 0, 0)" stroke-linejoin="round" d=" M 1555.916, 1228.141 1557.766, 1226.244 " />
            <path fill="none" stroke-width="3.0" stroke-linecap="butt" stroke-opacity="1.0" stroke="rgb(0, 0, 0)" stroke-linejoin="round" d=" M 1621.453, 1310.322 1619.126, 1311.589 1616.738, 1312.739 1614.296, 1313.769 1611.806, 1314.675 1609.273, 1315.456 1606.705, 1316.110 1604.107, 1316.635 1601.487, 1317.030 1598.850, 1317.294 1596.203, 1317.426 " />
            <path fill="none" stroke-width="3.0" stroke-linecap="butt" stroke-opacity="1.0" stroke="rgb(0, 0, 0)" stroke-linejoin="round" d=" M 1557.766, 1226.244 1559.709, 1224.442 1561.739, 1222.738 1563.852, 1221.138 1566.041, 1219.645 1568.303, 1218.262 1570.630, 1216.995 1573.018, 1215.846 1575.460, 1214.816 1577.950, 1213.910 1580.483, 1213.128 1583.051, 1212.474 1585.648, 1211.950 1588.269, 1211.555 1590.906, 1211.291 1593.553, 1211.158 " />
            <path fill="none" stroke-width="3.0" stroke-linecap="butt" stroke-opacity="1.0" stroke="rgb(0, 0, 0)" stroke-linejoin="round" d=" M 1562.504, 633.792 1559.985, 631.210 1557.598, 628.505 1555.349, 625.685 1553.244, 622.757 1551.286, 619.727 1549.483, 616.602 1547.837, 613.393 1546.354, 610.104 1545.036, 606.747 1543.887, 603.328 1542.910, 599.855 1542.107, 596.338 1541.481, 592.786 1541.032, 589.207 1540.763, 585.610 1540.673, 582.003 1540.763, 578.397 1541.032, 574.801 1541.481, 571.222 1542.107, 567.669 1542.910, 564.153 1543.887, 560.680 1545.036, 557.260 1546.354, 553.902 1547.837, 550.615 1549.483, 547.405 1551.286, 544.281 1553.244, 541.251 1555.349, 538.322 1557.598, 535.502 1559.985, 532.798 1562.504, 530.216 1565.148, 527.761 1567.911, 525.443 1570.786, 523.265 1573.767, 521.233 1576.845, 519.352 1580.013, 517.627 1583.263, 516.062 1586.586, 514.661 1589.976, 513.427 1593.423, 512.364 1596.919, 511.474 1600.454, 510.759 1604.021, 510.221 1607.610, 509.862 1611.213, 509.683 1614.820, 509.683 1618.423, 509.862 1622.012, 510.221 1625.579, 510.759 1629.115, 511.474 1632.610, 512.364 1636.057, 513.427 1639.447, 514.661 1642.771, 516.062 1646.021, 517.627 1649.188, 519.352 1652.266, 521.233 1655.247, 523.265 1658.122, 525.443 1660.885, 527.761 1663.530, 530.216 1666.048, 532.798 1668.435, 535.502 1670.684, 538.322 1672.790, 541.251 1674.747, 544.281 1676.550, 547.405 1678.196, 550.615 1679.680, 553.902 1680.997, 557.260 1682.146, 560.680 1683.123, 564.153 1683.926, 567.669 1684.552, 571.222 1685.001, 574.801 1685.270, 578.397 1685.360, 582.003 1685.270, 585.610 1685.001, 589.207 1684.552, 592.786 1683.926, 596.338 1683.123, 599.855 1682.146, 603.328 1680.997, 606.747 1679.680, 610.104 1678.196, 613.393 1676.550, 616.602 1674.747, 619.727 1672.790, 622.757 1670.684, 625.685 1668.435, 628.505 1666.048, 631.210 1663.530, 633.792 1660.885, 636.245 1658.122, 638.564 1655.247, 640.742 1652.266, 642.774 1649.188, 644.656 1646.021, 646.380 1642.771, 647.945 1639.447, 649.346 1636.057, 650.580 1632.610, 651.643 1629.115, 652.533 1625.579, 653.249 1622.012, 653.786 1618.423, 654.145 1614.820, 654.325 1611.213, 654.325 1607.610, 654.145 1604.021, 653.786 1600.454, 653.249 1596.919, 652.533 1593.423, 651.643 1589.976, 650.580 1586.586, 649.346 1583.263, 647.945 1580.013, 646.380 1576.845, 644.656 1573.767, 642.774 1570.786, 640.742 1567.911, 638.564 1565.148, 636.245 1562.504, 633.792 " />
            <path fill="none" stroke-width="3.0" stroke-linecap="butt" stroke-opacity="1.0" stroke="rgb(0, 0, 0)" stroke-linejoin="round" d=" M 1593.553, 1211.158 1596.203, 1211.158 " />
            <path fill="none" stroke-width="3.0" stroke-linecap="butt" stroke-opacity="1.0" stroke="rgb(0, 0, 0)" stroke-linejoin="round" d=" M 1596.203, 1211.158 1598.850, 1211.291 1601.487, 1211.555 1604.107, 1211.950 1606.705, 1212.474 1609.273, 1213.128 1611.806, 1213.910 " />
            <path fill="none" stroke-width="3.0" stroke-linecap="butt" stroke-opacity="1.0" stroke="rgb(0, 0, 0)" stroke-linejoin="round" d=" M 1611.806, 1213.910 1614.296, 1214.816 " />
            <path fill="none" stroke-width="3.0" stroke-linecap="butt" stroke-opacity="1.0" stroke="rgb(0, 0, 0)" stroke-linejoin="round" d=" M 1614.296, 1214.816 1616.738, 1215.846 " />
            <path fill="none" stroke-width="3.0" stroke-linecap="butt" stroke-opacity="1.0" stroke="rgb(0, 0, 0)" stroke-linejoin="round" d=" M 1616.738, 1215.846 1619.126, 1216.995 1621.453, 1218.262 1623.714, 1219.645 " />
            <path fill="none" stroke-width="3.0" stroke-linecap="butt" stroke-opacity="1.0" stroke="rgb(0, 0, 0)" stroke-linejoin="round" d=" M 1642.765, 1287.353 1641.556, 1289.712 1640.231, 1292.007 1638.793, 1294.233 1637.246, 1296.385 1635.594, 1298.457 1633.840, 1300.444 1631.989, 1302.341 1630.047, 1304.143 1628.017, 1305.847 1625.904, 1307.447 1623.714, 1308.940 " />
            <path fill="none" stroke-width="3.0" stroke-linecap="butt" stroke-opacity="1.0" stroke="rgb(0, 0, 0)" stroke-linejoin="round" d=" M 1623.714, 1219.645 1625.904, 1221.138 1628.017, 1222.738 1630.047, 1224.442 1631.989, 1226.244 " />
            <path fill="none" stroke-width="3.0" stroke-linecap="butt" stroke-opacity="1.0" stroke="rgb(0, 0, 0)" stroke-linejoin="round" d=" M 1645.667, 1279.958 1644.823, 1282.471 1643.855, 1284.938 1642.765, 1287.353 " />
            <path fill="none" stroke-width="3.0" stroke-linecap="butt" stroke-opacity="1.0" stroke="rgb(0, 0, 0)" stroke-linejoin="round" d=" M 1647.962, 1266.942 1647.764, 1269.584 1647.435, 1272.214 1646.975, 1274.823 1646.385, 1277.407 1645.667, 1279.958 " />
            <path fill="none" stroke-width="3.0" stroke-linecap="butt" stroke-opacity="1.0" stroke="rgb(0, 0, 0)" stroke-linejoin="round" d=" M 1647.764, 1259.000 1647.962, 1261.642 1648.028, 1264.292 1647.962, 1266.942 " />
            <path fill="none" stroke-width="3.0" stroke-linecap="butt" stroke-opacity="1.0" stroke="rgb(0, 0, 0)" stroke-linejoin="round" d=" M 1643.855, 1243.647 1644.823, 1246.114 1645.667, 1248.626 1646.385, 1251.177 1646.975, 1253.761 1647.435, 1256.371 1647.764, 1259.000 " />
            <path fill="none" stroke-width="3.0" stroke-linecap="butt" stroke-opacity="1.0" stroke="rgb(0, 0, 0)" stroke-linejoin="round" d=" M 1642.765, 1241.231 1643.855, 1243.647 " />
            <path fill="none" stroke-width="3.0" stroke-linecap="butt" stroke-opacity="1.0" stroke="rgb(0, 0, 0)" stroke-linejoin="round" d=" M 1638.793, 1234.352 1640.231, 1236.578 1641.556, 1238.873 1642.765, 1241.231 " />
            <path fill="none" stroke-width="3.0" stroke-linecap="butt" stroke-opacity="1.0" stroke="rgb(0, 0, 0)" stroke-linejoin="round" d=" M 1637.246, 1232.200 1638.793, 1234.352 " />
            <path fill="none" stroke-width="3.0" stroke-linecap="butt" stroke-opacity="1.0" stroke="rgb(0, 0, 0)" stroke-linejoin="round" d=" M 1635.594, 1230.128 1637.246, 1232.200 " />
            <path fill="none" stroke-width="3.0" stroke-linecap="butt" stroke-opacity="1.0" stroke="rgb(0, 0, 0)" stroke-linejoin="round" d=" M 1633.840, 1228.141 1635.594, 1230.128 " />
            <path fill="none" stroke-width="3.0" stroke-linecap="butt" stroke-opacity="1.0" stroke="rgb(0, 0, 0)" stroke-linejoin="round" d=" M 1631.989, 1226.244 1633.840, 1228.141 " />
            <path fill="none" stroke-width="3.0" stroke-linecap="butt" stroke-opacity="1.0" stroke="rgb(0, 0, 0)" stroke-linejoin="round" d=" M 2243.664, 3106.303 2241.930, 3109.126 2239.101, 3113.388 2243.664, 3106.303 " />
            <path fill="none" stroke-width="3.0" stroke-linecap="butt" stroke-opacity="1.0" stroke="rgb(0, 0, 0)" stroke-linejoin="round" d=" M 2233.372, 3126.052 2232.262, 3128.695 2235.290, 3120.879 2233.372, 3126.052 " />
            <path fill="none" stroke-width="3.0" stroke-linecap="butt" stroke-opacity="1.0" stroke="rgb(0, 0, 0)" stroke-linejoin="round" d=" M 2229.261, 3168.137 2229.413, 3169.709 2228.336, 3161.526 2229.261, 3168.137 " />
            <path fill="none" stroke-width="3.0" stroke-linecap="butt" stroke-opacity="1.0" stroke="rgb(0, 0, 0)" stroke-linejoin="round" d=" M 2229.732, 3171.074 2233.122, 3180.482 2234.810, 3185.168 2237.955, 3192.627 2241.826, 3199.736 2246.386, 3206.425 2251.590, 3212.626 2257.385, 3218.279 2263.714, 3223.326 2270.514, 3227.718 2277.718, 3231.412 2285.253, 3234.368 " />
            <path fill="none" stroke-width="3.0" stroke-linecap="butt" stroke-opacity="1.0" stroke="rgb(0, 0, 0)" stroke-linejoin="round" d=" M 3275.312, 3519.382 3272.491, 3519.382 3269.855, 3519.382 " />
            <path fill="none" stroke-width="3.0" stroke-linecap="butt" stroke-opacity="1.0" stroke="rgb(0, 0, 0)" stroke-linejoin="round" d=" M 2378.207, 3203.138 2373.319, 3209.590 2367.813, 3215.525 2361.744, 3220.881 2355.171, 3225.606 2348.160, 3229.654 2340.781, 3232.984 2333.108, 3235.562 2325.216, 3237.363 2317.183, 3238.370 2309.091, 3238.572 2301.018, 3237.967 2293.046, 3236.561 " />
            <path fill="none" stroke-width="3.0" stroke-linecap="butt" stroke-opacity="1.0" stroke="rgb(0, 0, 0)" stroke-linejoin="round" d=" M 2293.046, 3236.561 2302.651, 3239.343 2312.257, 3242.124 2321.862, 3244.905 2331.468, 3247.686 2341.073, 3250.467 2350.679, 3253.248 2360.284, 3256.029 2369.890, 3258.810 2379.495, 3261.592 2389.101, 3264.373 2398.706, 3267.154 2408.312, 3269.935 2417.917, 3272.716 2427.523, 3275.497 2437.128, 3278.278 2446.734, 3281.060 2456.339, 3283.841 2465.945, 3286.622 2475.550, 3289.403 2485.156, 3292.184 2494.761, 3294.965 2504.366, 3297.746 2513.972, 3300.527 2523.578, 3303.309 2533.183, 3306.090 2542.789, 3308.871 2552.394, 3311.652 2562.000, 3314.433 2571.605, 3317.214 2581.210, 3319.995 2590.816, 3322.776 2600.421, 3325.558 2610.027, 3328.339 2619.632, 3331.120 2629.238, 3333.901 2638.843, 3336.682 2648.449, 3339.463 2658.054, 3342.244 2667.660, 3345.026 2677.265, 3347.807 2686.871, 3350.588 2696.476, 3353.369 2706.082, 3356.150 2715.687, 3358.931 2725.293, 3361.712 2734.898, 3364.493 2744.504, 3367.275 2754.109, 3370.056 2763.715, 3372.837 2773.320, 3375.618 2782.926, 3378.399 2792.531, 3381.180 2802.136, 3383.961 2811.742, 3386.742 2821.347, 3389.524 2830.953, 3392.305 2840.558, 3395.086 2850.164, 3397.867 2859.770, 3400.648 2869.375, 3403.429 2878.980, 3406.210 2888.586, 3408.992 2898.191, 3411.773 2907.797, 3414.554 2917.402, 3417.335 2927.008, 3420.116 2936.613, 3422.897 2946.219, 3425.678 2955.824, 3428.459 2965.430, 3431.241 2975.035, 3434.022 2984.641, 3436.803 2994.246, 3439.584 3003.852, 3442.365 3013.457, 3445.146 3023.063, 3447.927 3032.668, 3450.708 3042.274, 3453.490 3051.879, 3456.271 3061.485, 3459.052 3071.090, 3461.833 3080.696, 3464.614 3090.301, 3467.395 3099.906, 3470.176 3109.512, 3472.957 3119.117, 3475.739 3128.723, 3478.520 3138.328, 3481.301 3147.934, 3484.082 3157.540, 3486.863 3167.145, 3489.644 3176.750, 3492.425 3186.356, 3495.207 3195.961, 3497.988 3205.567, 3500.769 3215.172, 3503.550 3224.778, 3506.331 3234.383, 3509.112 3243.989, 3511.893 3253.594, 3514.674 3269.855, 3519.382 3260.249, 3516.602 3250.644, 3513.821 3241.038, 3511.041 3231.432, 3508.260 3221.827, 3505.480 3212.221, 3502.699 3202.615, 3499.919 3193.010, 3497.138 3183.404, 3494.357 3173.798, 3491.577 3164.193, 3488.796 3154.587, 3486.016 3144.981, 3483.235 3135.376, 3480.455 3125.770, 3477.674 3116.165, 3474.893 3106.559, 3472.113 3096.953, 3469.332 3087.347, 3466.552 3077.742, 3463.771 3068.136, 3460.991 3058.531, 3458.210 3048.925, 3455.430 3039.319, 3452.649 3029.714, 3449.868 3020.108, 3447.088 3010.502, 3444.307 3000.897, 3441.527 2991.291, 3438.746 2981.685, 3435.966 2972.080, 3433.185 2962.474, 3430.405 2952.868, 3427.624 2943.263, 3424.843 2933.657, 3422.063 2924.052, 3419.282 2914.446, 3416.502 2904.840, 3413.721 2895.235, 3410.941 2885.629, 3408.160 2876.023, 3405.379 2866.417, 3402.599 2856.812, 3399.818 2847.206, 3397.038 2837.601, 3394.257 2827.995, 3391.477 2818.389, 3388.696 2808.784, 3385.916 2799.178, 3383.135 2789.573, 3380.354 2779.967, 3377.574 2770.361, 3374.793 2760.755, 3372.013 2751.150, 3369.232 2741.544, 3366.452 2731.938, 3363.671 2722.333, 3360.891 2712.727, 3358.110 2703.122, 3355.329 2693.516, 3352.549 2683.910, 3349.768 2674.305, 3346.988 2664.699, 3344.207 2655.093, 3341.427 2645.488, 3338.646 2635.882, 3335.865 2626.276, 3333.085 2616.671, 3330.304 2607.065, 3327.524 2597.459, 3324.743 2587.854, 3321.963 2578.248, 3319.182 2568.643, 3316.402 2559.037, 3313.621 2549.431, 3310.840 2539.825, 3308.060 2530.220, 3305.279 2520.614, 3302.499 2511.009, 3299.718 2501.403, 3296.938 2491.797, 3294.157 2482.192, 3291.376 2472.586, 3288.596 2462.980, 3285.815 2453.375, 3283.035 2443.769, 3280.254 2434.163, 3277.474 2424.558, 3274.693 2414.952, 3271.913 2405.346, 3269.132 2395.741, 3266.351 2386.135, 3263.571 2376.530, 3260.790 2366.924, 3258.010 2357.318, 3255.229 2347.713, 3252.449 2338.107, 3249.668 2328.501, 3246.888 2318.896, 3244.107 2309.290, 3241.326 2299.684, 3238.546 2285.253, 3234.368 2293.046, 3236.561 " />
            <path fill="none" stroke-width="3.0" stroke-linecap="butt" stroke-opacity="1.0" stroke="rgb(0, 0, 0)" stroke-linejoin="round" d=" M 2177.184, 3519.382 2170.980, 3519.382 " />
            <path fill="none" stroke-width="3.0" stroke-linecap="butt" stroke-opacity="1.0" stroke="rgb(0, 0, 0)" stroke-linejoin="round" d=" M 1284.019, 3519.382 1274.019, 3519.382 1271.933, 3519.382 1265.703, 3519.382 " />
            <path fill="none" stroke-width="3.0" stroke-linecap="butt" stroke-opacity="1.0" stroke="rgb(0, 0, 0)" stroke-linejoin="round" d=" M 1245.561, 3519.382 1250.953, 3519.382 1260.953, 3519.382 1265.703, 3519.382 1271.933, 3519.382 " />
            <path fill="none" stroke-width="3.0" stroke-linecap="butt" stroke-opacity="1.0" stroke="rgb(0, 0, 0)" stroke-linejoin="round" d=" M 1250.953, 3519.382 1245.561, 3519.382 1240.134, 3519.382 1250.134, 3519.382 1250.953, 3519.382 " />
            <path fill="none" stroke-width="3.0" stroke-linecap="butt" stroke-opacity="1.0" stroke="rgb(0, 0, 0)" stroke-linejoin="round" d=" M 1213.026, 3156.792 1212.815, 3158.663 1212.356, 3165.033 1213.026, 3156.792 " />
            <path fill="none" stroke-width="3.0" stroke-linecap="butt" stroke-opacity="1.0" stroke="rgb(0, 0, 0)" stroke-linejoin="round" d=" M 1204.821, 3188.333 1208.603, 3179.076 1210.519, 3174.388 " />
            <path fill="none" stroke-width="3.0" stroke-linecap="butt" stroke-opacity="1.0" stroke="rgb(0, 0, 0)" stroke-linejoin="round" d=" M 1144.096, 3236.761 1136.063, 3237.767 1127.971, 3237.969 1119.898, 3237.364 1111.926, 3235.958 1104.133, 3233.766 1096.598, 3230.808 1089.394, 3227.114 1082.594, 3222.723 1076.265, 3217.675 " />
            <path fill="none" stroke-width="3.0" stroke-linecap="butt" stroke-opacity="1.0" stroke="rgb(0, 0, 0)" stroke-linejoin="round" d=" M 204.800, 3194.247 208.748, 3185.059 212.695, 3175.871 216.643, 3166.684 220.591, 3157.496 224.539, 3148.308 228.487, 3139.121 232.435, 3129.933 236.383, 3120.745 240.331, 3111.557 244.279, 3102.370 248.227, 3093.182 252.175, 3083.994 256.123, 3074.807 260.071, 3065.619 264.019, 3056.431 267.967, 3047.244 271.915, 3038.056 275.863, 3028.868 279.811, 3019.681 283.759, 3010.493 287.707, 3001.305 291.654, 2992.117 295.602, 2982.930 299.630, 2973.556 302.975, 2964.132 306.320, 2954.708 309.665, 2945.284 313.010, 2935.860 316.355, 2926.436 319.700, 2917.012 323.045, 2907.588 326.390, 2898.164 329.735, 2888.740 333.080, 2879.316 336.425, 2869.892 339.770, 2860.468 343.115, 2851.044 346.459, 2841.620 349.804, 2832.196 353.149, 2822.772 356.494, 2813.348 359.839, 2803.924 363.184, 2794.500 366.529, 2785.076 369.874, 2775.652 373.219, 2766.228 376.564, 2756.804 379.909, 2747.380 383.254, 2737.956 386.599, 2728.533 389.944, 2719.109 393.289, 2709.685 396.634, 2700.261 399.978, 2690.837 403.323, 2681.413 406.668, 2671.989 410.013, 2662.565 413.358, 2653.141 416.703, 2643.717 418.496, 2638.666 " />
            <path fill="none" stroke-width="3.0" stroke-linecap="butt" stroke-opacity="1.0" stroke="rgb(0, 0, 0)" stroke-linejoin="round" d=" M 1050.151, 3177.123 1050.530, 3178.233 1054.687, 3187.327 1056.835, 3192.024 " />
            <path fill="none" stroke-width="3.0" stroke-linecap="butt" stroke-opacity="1.0" stroke="rgb(0, 0, 0)" stroke-linejoin="round" d=" M 610.564, 2369.409 609.802, 2369.312 609.171, 2369.409 610.564, 2369.409 " />
            <path fill="none" stroke-width="3.0" stroke-linecap="butt" stroke-opacity="1.0" stroke="rgb(0, 0, 0)" stroke-linejoin="round" d=" M 612.593, 2369.409 610.564, 2369.409 611.858, 2369.313 612.593, 2369.409 " />
            <path fill="none" stroke-width="3.0" stroke-linecap="butt" stroke-opacity="1.0" stroke="rgb(0, 0, 0)" stroke-linejoin="round" d=" M 614.491, 2369.409 612.593, 2369.409 613.805, 2369.314 614.491, 2369.409 " />
            <path fill="none" stroke-width="3.0" stroke-linecap="butt" stroke-opacity="1.0" stroke="rgb(0, 0, 0)" stroke-linejoin="round" d=" M 1048.077, 3167.614 1048.274, 3169.109 1050.151, 3177.123 1048.652, 3170.414 1048.274, 3169.109 " />
            <path fill="none" stroke-width="3.0" stroke-linecap="butt" stroke-opacity="1.0" stroke="rgb(0, 0, 0)" stroke-linejoin="round" d=" M 688.052, 2369.330 678.052, 2369.341 668.052, 2369.351 658.052, 2369.362 648.052, 2369.373 638.052, 2369.383 628.052, 2369.394 618.052, 2369.405 615.760, 2369.407 614.491, 2369.409 615.771, 2369.409 615.760, 2369.407 615.012, 2369.315 614.491, 2369.409 " />
            <path fill="none" stroke-width="3.0" stroke-linecap="butt" stroke-opacity="1.0" stroke="rgb(0, 0, 0)" stroke-linejoin="round" d=" M 614.491, 2369.409 624.491, 2369.409 634.491, 2369.409 644.491, 2369.409 654.491, 2369.409 664.491, 2369.410 674.491, 2369.410 684.491, 2369.410 689.079, 2369.410 688.052, 2369.330 " />
            <path fill="none" stroke-width="3.0" stroke-linecap="butt" stroke-opacity="1.0" stroke="rgb(0, 0, 0)" stroke-linejoin="round" d=" M 1046.937, 3152.646 1047.151, 3150.540 1047.505, 3144.358 1046.937, 3152.646 " />
            <path fill="none" stroke-width="3.0" stroke-linecap="butt" stroke-opacity="1.0" stroke="rgb(0, 0, 0)" stroke-linejoin="round" d=" M 1994.123, 2369.325 1984.123, 2369.325 1974.123, 2369.325 1964.123, 2369.325 1954.123, 2369.325 1944.123, 2369.325 1934.123, 2369.325 1924.123, 2369.325 1914.123, 2369.325 1904.123, 2369.325 1894.123, 2369.325 1884.123, 2369.325 1874.123, 2369.325 1864.123, 2369.325 1854.123, 2369.324 1844.123, 2369.324 1834.123, 2369.324 1824.123, 2369.324 1814.123, 2369.324 1804.123, 2369.324 1794.123, 2369.324 1784.123, 2369.324 1774.123, 2369.324 1764.123, 2369.324 1754.123, 2369.324 1744.123, 2369.324 1734.123, 2369.324 1724.123, 2369.324 1714.123, 2369.324 1704.123, 2369.324 1694.123, 2369.324 1684.123, 2369.324 1674.123, 2369.324 1664.123, 2369.324 1654.123, 2369.324 1644.123, 2369.324 1634.123, 2369.324 1624.123, 2369.324 1614.123, 2369.324 1604.123, 2369.324 1594.123, 2369.324 1584.123, 2369.324 1574.123, 2369.324 1564.123, 2369.324 1554.123, 2369.324 1544.123, 2369.324 1534.123, 2369.324 1524.123, 2369.324 1514.123, 2369.324 1504.123, 2369.323 1494.123, 2369.323 1484.123, 2369.323 1474.123, 2369.323 1464.123, 2369.323 1454.123, 2369.323 1444.123, 2369.323 1434.123, 2369.323 1424.123, 2369.323 1414.123, 2369.323 1404.123, 2369.323 1394.123, 2369.323 1384.123, 2369.323 1374.123, 2369.323 1364.123, 2369.323 1354.123, 2369.323 1344.642, 2369.323 " />
            <path fill="none" stroke-width="3.0" stroke-linecap="butt" stroke-opacity="1.0" stroke="rgb(0, 0, 0)" stroke-linejoin="round" d=" M 1057.965, 3112.775 1054.152, 3120.267 1051.124, 3128.085 1048.903, 3136.143 1050.494, 3130.636 1051.124, 3128.085 " />
            <path fill="none" stroke-width="3.0" stroke-linecap="butt" stroke-opacity="1.0" stroke="rgb(0, 0, 0)" stroke-linejoin="round" d=" M 1067.799, 3099.082 1062.528, 3105.687 1057.965, 3112.775 1060.784, 3108.527 1062.528, 3105.687 " />
            <path fill="none" stroke-width="3.0" stroke-linecap="butt" stroke-opacity="1.0" stroke="rgb(0, 0, 0)" stroke-linejoin="round" d=" M 1080.257, 3087.610 1083.974, 3085.201 1087.318, 3082.873 1080.257, 3087.610 " />
            <path fill="none" stroke-width="3.0" stroke-linecap="butt" stroke-opacity="1.0" stroke="rgb(0, 0, 0)" stroke-linejoin="round" d=" M 1102.739, 3075.667 1094.838, 3078.876 1098.930, 3077.304 1102.739, 3075.667 " />
            <path fill="none" stroke-width="3.0" stroke-linecap="butt" stroke-opacity="1.0" stroke="rgb(0, 0, 0)" stroke-linejoin="round" d=" M 1102.739, 3075.667 1107.055, 3074.499 1110.935, 3073.284 1102.739, 3075.667 " />
            <path fill="none" stroke-width="3.0" stroke-linecap="butt" stroke-opacity="1.0" stroke="rgb(0, 0, 0)" stroke-linejoin="round" d=" M 1136.401, 3071.314 1127.858, 3071.094 1131.887, 3071.267 1136.401, 3071.314 " />
            <path fill="none" stroke-width="3.0" stroke-linecap="butt" stroke-opacity="1.0" stroke="rgb(0, 0, 0)" stroke-linejoin="round" d=" M 1136.401, 3071.314 1140.906, 3071.982 1144.874, 3072.411 1136.401, 3071.314 " />
            <path fill="none" stroke-width="3.0" stroke-linecap="butt" stroke-opacity="1.0" stroke="rgb(0, 0, 0)" stroke-linejoin="round" d=" M 1168.964, 3080.779 1161.244, 3077.171 1153.185, 3074.371 1157.345, 3075.904 1161.244, 3077.171 " />
            <path fill="none" stroke-width="3.0" stroke-linecap="butt" stroke-opacity="1.0" stroke="rgb(0, 0, 0)" stroke-linejoin="round" d=" M 3206.958, 2684.950 3200.869, 2677.017 3194.779, 2669.085 3188.690, 2661.153 3182.600, 2653.221 3176.511, 2645.289 3170.421, 2637.357 3164.332, 2629.425 3158.242, 2621.493 3152.153, 2613.561 3146.063, 2605.629 3139.974, 2597.696 3133.884, 2589.764 3127.795, 2581.832 3121.705, 2573.900 3115.616, 2565.968 3109.526, 2558.036 3103.437, 2550.104 3097.347, 2542.172 3091.258, 2534.240 3085.168, 2526.308 3079.079, 2518.376 3072.989, 2510.443 3066.900, 2502.511 3060.810, 2494.579 3054.721, 2486.647 3048.631, 2478.715 3042.542, 2470.783 3036.452, 2462.851 3030.363, 2454.919 3024.273, 2446.987 3018.184, 2439.055 3012.094, 2431.123 3006.005, 2423.190 2999.916, 2415.258 2993.826, 2407.326 2987.736, 2399.394 2981.647, 2391.462 2975.557, 2383.530 2969.468, 2375.598 2964.717, 2369.409 " />
            <path fill="none" stroke-width="3.0" stroke-linecap="butt" stroke-opacity="1.0" stroke="rgb(0, 0, 0)" stroke-linejoin="round" d=" M 3283.754, 3118.481 3281.089, 3108.842 3278.424, 3099.204 3275.758, 3089.566 3273.093, 3079.927 3270.428, 3070.289 3267.763, 3060.651 3265.098, 3051.012 3262.432, 3041.374 3259.767, 3031.736 3257.102, 3022.098 3254.437, 3012.459 3251.771, 3002.821 3249.106, 2993.183 3246.441, 2983.544 3243.776, 2973.906 3241.111, 2964.268 3238.446, 2954.630 3235.780, 2944.991 3233.115, 2935.353 3230.450, 2925.715 3227.785, 2916.076 3225.120, 2906.438 3222.454, 2896.800 3220.851, 2891.003 " />
            <path fill="none" stroke-width="3.0" stroke-linecap="butt" stroke-opacity="1.0" stroke="rgb(0, 0, 0)" stroke-linejoin="round" d=" M 3394.612, 3519.382 3391.947, 3509.744 3389.282, 3500.106 3386.616, 3490.468 3383.951, 3480.829 3381.286, 3471.191 3378.621, 3461.553 3375.956, 3451.914 3373.291, 3442.276 3370.625, 3432.638 3367.960, 3423.000 3365.295, 3413.361 3362.630, 3403.723 3359.965, 3394.085 3357.299, 3384.446 3354.634, 3374.808 3351.969, 3365.170 3349.304, 3355.531 3346.638, 3345.893 3343.973, 3336.255 3341.308, 3326.617 3338.643, 3316.978 3335.978, 3307.340 3333.312, 3297.702 3330.647, 3288.063 3327.982, 3278.425 3325.317, 3268.787 3322.652, 3259.149 3319.987, 3249.510 3317.321, 3239.872 3314.656, 3230.234 3311.991, 3220.595 3309.326, 3210.957 3306.661, 3201.319 3303.995, 3191.680 3301.330, 3182.042 3298.665, 3172.404 3296.000, 3162.766 3293.334, 3153.127 3290.669, 3143.489 3288.004, 3133.851 3285.339, 3124.212 3283.754, 3118.481 " />
            <path fill="none" stroke-width="3.0" stroke-linecap="butt" stroke-opacity="1.0" stroke="rgb(0, 0, 0)" stroke-linejoin="round" d=" M 1194.912, 3102.320 1189.305, 3095.985 1191.709, 3098.827 1194.912, 3102.320 " />
            <path fill="none" stroke-width="3.0" stroke-linecap="butt" stroke-opacity="1.0" stroke="rgb(0, 0, 0)" stroke-linejoin="round" d=" M 1199.835, 3109.176 1194.912, 3102.320 1197.804, 3106.463 1199.835, 3109.176 " />
            <path fill="none" stroke-width="3.0" stroke-linecap="butt" stroke-opacity="1.0" stroke="rgb(0, 0, 0)" stroke-linejoin="round" d=" M 1199.835, 3109.176 1202.398, 3113.773 1204.027, 3116.476 1199.835, 3109.176 " />
            <path fill="none" stroke-width="3.0" stroke-linecap="butt" stroke-opacity="1.0" stroke="rgb(0, 0, 0)" stroke-linejoin="round" d=" M 1210.079, 3132.089 1207.452, 3124.141 1208.275, 3126.877 1210.079, 3132.089 " />
            <path fill="none" stroke-width="3.0" stroke-linecap="butt" stroke-opacity="1.0" stroke="rgb(0, 0, 0)" stroke-linejoin="round" d=" M 1210.079, 3132.089 1211.307, 3137.922 1211.890, 3140.237 1210.079, 3132.089 " />
            <path fill="none" stroke-width="3.0" stroke-linecap="butt" stroke-opacity="1.0" stroke="rgb(0, 0, 0)" stroke-linejoin="round" d=" M 2228.644, 3144.964 2228.076, 3153.251 " />
            <path fill="none" stroke-width="3.0" stroke-linecap="butt" stroke-opacity="1.0" stroke="rgb(0, 0, 0)" stroke-linejoin="round" d=" M 2385.941, 3188.936 2389.710, 3179.674 2391.625, 3174.970 2391.978, 3173.742 " />
            <path fill="none" stroke-width="3.0" stroke-linecap="butt" stroke-opacity="1.0" stroke="rgb(0, 0, 0)" stroke-linejoin="round" d=" M 2394.127, 3157.395 2393.974, 3149.103 " />
            <path fill="none" stroke-width="3.0" stroke-linecap="butt" stroke-opacity="1.0" stroke="rgb(0, 0, 0)" stroke-linejoin="round" d=" M 2392.991, 3140.844 2393.660, 3147.030 2393.974, 3149.103 2392.991, 3140.844 " />
            <path fill="none" stroke-width="3.0" stroke-linecap="butt" stroke-opacity="1.0" stroke="rgb(0, 0, 0)" stroke-linejoin="round" d=" M 2391.181, 3132.698 2392.413, 3138.549 2392.991, 3140.844 2391.181, 3132.698 " />
            <path fill="none" stroke-width="3.0" stroke-linecap="butt" stroke-opacity="1.0" stroke="rgb(0, 0, 0)" stroke-linejoin="round" d=" M 2388.554, 3124.751 2390.292, 3130.220 2391.181, 3132.698 2388.554, 3124.751 " />
            <path fill="none" stroke-width="3.0" stroke-linecap="butt" stroke-opacity="1.0" stroke="rgb(0, 0, 0)" stroke-linejoin="round" d=" M 2385.131, 3117.088 2387.315, 3122.141 2388.554, 3124.751 2385.131, 3117.088 " />
            <path fill="none" stroke-width="3.0" stroke-linecap="butt" stroke-opacity="1.0" stroke="rgb(0, 0, 0)" stroke-linejoin="round" d=" M 2380.939, 3109.790 2383.511, 3114.402 2385.131, 3117.088 2380.939, 3109.790 " />
            <path fill="none" stroke-width="3.0" stroke-linecap="butt" stroke-opacity="1.0" stroke="rgb(0, 0, 0)" stroke-linejoin="round" d=" M 2248.934, 3099.699 2243.664, 3106.303 2245.950, 3103.571 2248.934, 3099.699 " />
            <path fill="none" stroke-width="3.0" stroke-linecap="butt" stroke-opacity="1.0" stroke="rgb(0, 0, 0)" stroke-linejoin="round" d=" M 2248.934, 3099.699 2252.308, 3096.357 2254.958, 3093.584 " />
            <path fill="none" stroke-width="3.0" stroke-linecap="butt" stroke-opacity="1.0" stroke="rgb(0, 0, 0)" stroke-linejoin="round" d=" M 2254.958, 3093.584 2248.934, 3099.699 2255.933, 3092.557 2262.933, 3085.416 2269.933, 3078.274 2276.933, 3071.133 2283.933, 3063.991 2290.932, 3056.849 2297.932, 3049.708 2304.932, 3042.566 2311.932, 3035.424 2318.931, 3028.283 2325.931, 3021.141 2332.931, 3013.999 2339.931, 3006.858 2346.931, 2999.716 2353.930, 2992.575 2360.930, 2985.433 2367.930, 2978.291 2374.930, 2971.150 2381.929, 2964.008 2388.929, 2956.866 2395.929, 2949.725 2402.929, 2942.583 2409.929, 2935.441 2416.928, 2928.300 2423.928, 2921.158 2430.928, 2914.016 2437.928, 2906.875 2444.927, 2899.733 2451.927, 2892.591 2458.927, 2885.450 2465.927, 2878.308 2472.927, 2871.167 2479.927, 2864.025 2486.926, 2856.883 2493.926, 2849.742 2500.926, 2842.600 2507.926, 2835.458 2514.925, 2828.317 2521.925, 2821.175 2528.925, 2814.033 2535.925, 2806.892 2542.924, 2799.750 2549.924, 2792.608 2556.924, 2785.467 2563.924, 2778.325 2570.924, 2771.184 2577.923, 2764.042 2584.923, 2756.900 2591.923, 2749.759 2598.923, 2742.617 2605.922, 2735.475 2612.922, 2728.334 2619.922, 2721.192 2626.922, 2714.050 2633.922, 2706.909 2640.921, 2699.767 2647.921, 2692.625 2654.921, 2685.484 2661.921, 2678.342 2668.920, 2671.201 2675.920, 2664.059 2682.920, 2656.917 2689.920, 2649.776 2696.920, 2642.634 2703.919, 2635.492 2710.919, 2628.351 2717.919, 2621.209 2724.919, 2614.067 2731.918, 2606.926 2738.918, 2599.784 2745.918, 2592.642 2752.918, 2585.501 2759.918, 2578.359 2766.917, 2571.218 2773.917, 2564.076 2780.917, 2556.934 2787.917, 2549.793 2794.917, 2542.651 2801.916, 2535.509 2808.916, 2528.368 2815.916, 2521.226 2822.916, 2514.084 2829.916, 2506.943 2836.915, 2499.801 2843.915, 2492.659 2850.915, 2485.518 2857.915, 2478.376 2864.914, 2471.234 2871.914, 2464.093 2878.914, 2456.951 2885.914, 2449.810 2892.913, 2442.668 2899.913, 2435.526 2906.913, 2428.385 2913.913, 2421.243 2920.913, 2414.101 2927.912, 2406.960 2934.912, 2399.818 2941.912, 2392.676 2948.912, 2385.535 2955.911, 2378.393 2964.717, 2369.409 " />
            <path fill="none" stroke-width="3.0" stroke-linecap="butt" stroke-opacity="1.0" stroke="rgb(0, 0, 0)" stroke-linejoin="round" d=" M 2254.958, 3093.584 2257.950, 3091.194 2261.388, 3088.230 " />
            <path fill="none" stroke-width="3.0" stroke-linecap="butt" stroke-opacity="1.0" stroke="rgb(0, 0, 0)" stroke-linejoin="round" d=" M 2261.388, 3088.230 2254.958, 3093.584 2261.958, 3086.442 2268.958, 3079.300 2275.957, 3072.159 2282.957, 3065.017 2289.957, 3057.875 2296.956, 3050.733 2303.956, 3043.591 2310.955, 3036.450 2317.955, 3029.308 2324.955, 3022.166 2331.954, 3015.024 2338.954, 3007.882 2345.954, 3000.741 2352.953, 2993.599 2359.953, 2986.457 2366.952, 2979.315 2373.952, 2972.173 2380.952, 2965.032 2387.951, 2957.890 2394.951, 2950.748 2401.950, 2943.606 2408.950, 2936.464 2415.950, 2929.323 2422.949, 2922.181 2429.949, 2915.039 2436.949, 2907.897 2443.948, 2900.755 2450.948, 2893.614 2457.948, 2886.472 2464.947, 2879.330 2471.947, 2872.188 2478.946, 2865.046 2485.946, 2857.905 2492.946, 2850.763 2499.945, 2843.621 2506.945, 2836.479 2513.945, 2829.337 2520.944, 2822.196 2527.944, 2815.054 2534.943, 2807.912 2541.943, 2800.770 2548.943, 2793.628 2555.942, 2786.487 2562.942, 2779.345 2569.941, 2772.203 2576.941, 2765.061 2583.941, 2757.919 2590.940, 2750.778 2597.940, 2743.636 2604.940, 2736.494 2611.939, 2729.352 2618.939, 2722.211 2625.938, 2715.069 2632.938, 2707.927 2639.938, 2700.785 2646.937, 2693.643 2653.937, 2686.502 2660.937, 2679.360 2667.936, 2672.218 2674.936, 2665.076 2681.936, 2657.934 2688.935, 2650.793 2695.935, 2643.651 2702.934, 2636.509 2709.934, 2629.367 2716.934, 2622.225 2723.933, 2615.084 2730.933, 2607.942 2737.933, 2600.800 2744.932, 2593.658 2751.932, 2586.516 2758.931, 2579.375 2765.931, 2572.233 2772.931, 2565.091 2779.930, 2557.949 2786.930, 2550.807 2793.929, 2543.666 2800.929, 2536.524 2807.929, 2529.382 2814.928, 2522.240 2821.928, 2515.098 2828.927, 2507.957 2835.927, 2500.815 2842.927, 2493.673 2849.927, 2486.531 2856.926, 2479.389 2863.926, 2472.248 2870.925, 2465.106 2877.925, 2457.964 2884.925, 2450.822 2891.924, 2443.680 2898.924, 2436.539 2905.924, 2429.397 2912.923, 2422.255 2919.923, 2415.113 2926.922, 2407.971 2933.922, 2400.830 2940.922, 2393.688 2947.921, 2386.546 2954.921, 2379.404 2964.717, 2369.409 2958.627, 2361.477 2952.538, 2353.545 2946.448, 2345.613 2940.359, 2337.681 2934.270, 2329.749 2928.180, 2321.817 2922.091, 2313.885 2916.001, 2305.953 2909.911, 2298.020 2903.822, 2290.088 2897.732, 2282.156 2891.643, 2274.224 2885.553, 2266.292 2879.464, 2258.360 2873.375, 2250.428 2867.285, 2242.496 2861.196, 2234.564 2855.106, 2226.632 2849.017, 2218.699 2842.927, 2210.767 2836.838, 2202.835 2830.748, 2194.903 2824.659, 2186.971 2818.569, 2179.039 2812.479, 2171.107 2806.390, 2163.175 2800.301, 2155.243 2794.211, 2147.311 2788.122, 2139.379 2782.032, 2131.447 2777.343, 2125.339 " />
            <path fill="none" stroke-width="3.0" stroke-linecap="butt" stroke-opacity="1.0" stroke="rgb(0, 0, 0)" stroke-linejoin="round" d=" M 2268.448, 3083.493 2261.388, 3088.230 2265.120, 3085.811 2268.448, 3083.493 " />
            <path fill="none" stroke-width="3.0" stroke-linecap="butt" stroke-opacity="1.0" stroke="rgb(0, 0, 0)" stroke-linejoin="round" d=" M 2275.967, 3079.497 2268.448, 3083.493 2272.239, 3081.573 2275.967, 3079.497 " />
            <path fill="none" stroke-width="3.0" stroke-linecap="butt" stroke-opacity="1.0" stroke="rgb(0, 0, 0)" stroke-linejoin="round" d=" M 2283.865, 3076.289 2275.967, 3079.497 2280.040, 3077.933 2283.865, 3076.289 " />
            <path fill="none" stroke-width="3.0" stroke-linecap="butt" stroke-opacity="1.0" stroke="rgb(0, 0, 0)" stroke-linejoin="round" d=" M 2292.059, 3073.906 2283.865, 3076.289 2288.163, 3075.126 2292.059, 3073.906 " />
            <path fill="none" stroke-width="3.0" stroke-linecap="butt" stroke-opacity="1.0" stroke="rgb(0, 0, 0)" stroke-linejoin="round" d=" M 2292.059, 3073.906 2296.094, 3073.242 2300.461, 3072.375 2292.059, 3073.906 " />
            <path fill="none" stroke-width="3.0" stroke-linecap="butt" stroke-opacity="1.0" stroke="rgb(0, 0, 0)" stroke-linejoin="round" d=" M 2370.411, 3096.602 2373.591, 3100.296 2376.017, 3102.936 2370.411, 3096.602 2364.176, 3090.858 " />
            <path fill="none" stroke-width="3.0" stroke-linecap="butt" stroke-opacity="1.0" stroke="rgb(0, 0, 0)" stroke-linejoin="round" d=" M 2350.076, 3081.400 2342.357, 3077.793 " />
            <path fill="none" stroke-width="3.0" stroke-linecap="butt" stroke-opacity="1.0" stroke="rgb(0, 0, 0)" stroke-linejoin="round" d=" M 1240.134, 3519.382 1245.561, 3519.382 " />
            <path fill="none" stroke-width="3.0" stroke-linecap="butt" stroke-opacity="1.0" stroke="rgb(0, 0, 0)" stroke-linejoin="round" d=" M 1542.781, 1274.823 1542.321, 1272.214 " />
            <path fill="none" stroke-width="3.0" stroke-linecap="butt" stroke-opacity="1.0" stroke="rgb(0, 0, 0)" stroke-linejoin="round" d=" M 1548.200, 1289.712 1546.991, 1287.353 " />
            <path fill="none" stroke-width="3.0" stroke-linecap="butt" stroke-opacity="1.0" stroke="rgb(0, 0, 0)" stroke-linejoin="round" d=" M 1575.460, 1313.769 1573.018, 1312.739 " />
            <path fill="none" stroke-width="3.0" stroke-linecap="butt" stroke-opacity="1.0" stroke="rgb(0, 0, 0)" stroke-linejoin="round" d=" M 1577.950, 1314.675 1575.460, 1313.769 " />
            <path fill="none" stroke-width="3.0" stroke-linecap="butt" stroke-opacity="1.0" stroke="rgb(0, 0, 0)" stroke-linejoin="round" d=" M 1590.906, 1317.294 1588.269, 1317.030 " />
            <path fill="none" stroke-width="3.0" stroke-linecap="butt" stroke-opacity="1.0" stroke="rgb(0, 0, 0)" stroke-linejoin="round" d=" M 1593.553, 1317.426 1590.906, 1317.294 " />
            <path fill="none" stroke-width="3.0" stroke-linecap="butt" stroke-opacity="1.0" stroke="rgb(0, 0, 0)" stroke-linejoin="round" d=" M 1596.203, 1317.426 1593.553, 1317.426 " />
            <path fill="none" stroke-width="3.0" stroke-linecap="butt" stroke-opacity="1.0" stroke="rgb(0, 0, 0)" stroke-linejoin="round" d=" M 1623.714, 1308.940 1621.453, 1310.322 " />
            <path fill="none" stroke-width="3.0" stroke-linecap="butt" stroke-opacity="1.0" stroke="rgb(0, 0, 0)" stroke-linejoin="round" d=" M 2777.343, 2125.339 2771.882, 2116.961 2766.421, 2108.584 2760.960, 2100.207 2755.499, 2091.830 2750.038, 2083.453 2744.577, 2075.075 2739.116, 2066.698 2733.656, 2058.321 2728.195, 2049.943 2723.481, 2042.712 " />
            <path fill="none" stroke-width="3.0" stroke-linecap="butt" stroke-opacity="1.0" stroke="rgb(0, 0, 0)" stroke-linejoin="round" d=" M 2777.343, 2125.339 2783.433, 2133.271 2789.522, 2141.203 2795.612, 2149.135 2801.701, 2157.067 2807.791, 2164.999 2813.880, 2172.931 2819.969, 2180.863 2826.059, 2188.795 2832.149, 2196.728 2838.238, 2204.660 2844.328, 2212.592 2850.417, 2220.524 2856.507, 2228.456 2862.596, 2236.388 2868.686, 2244.320 2874.775, 2252.252 2880.865, 2260.184 2886.954, 2268.116 2893.043, 2276.048 2899.133, 2283.980 2905.222, 2291.913 2911.312, 2299.845 2917.401, 2307.777 2923.491, 2315.709 2929.581, 2323.641 2935.670, 2331.573 2941.760, 2339.505 2947.849, 2347.437 2953.938, 2355.369 2960.028, 2363.301 2966.117, 2371.234 2972.207, 2379.166 2978.296, 2387.098 2984.386, 2395.030 2990.475, 2402.962 2996.565, 2410.894 3002.654, 2418.826 3008.744, 2426.758 3014.833, 2434.690 3020.923, 2442.622 3027.012, 2450.554 3033.102, 2458.487 3039.191, 2466.419 3045.281, 2474.351 3051.370, 2482.283 3057.460, 2490.215 3063.549, 2498.147 3069.639, 2506.079 3075.728, 2514.011 3081.818, 2521.943 3087.907, 2529.875 3093.997, 2537.807 3100.086, 2545.740 3106.176, 2553.672 3112.265, 2561.604 3118.355, 2569.536 3124.444, 2577.468 3130.534, 2585.400 3136.623, 2593.332 3142.713, 2601.264 3148.802, 2609.196 3154.892, 2617.128 3160.981, 2625.060 3167.071, 2632.993 3173.160, 2640.925 3179.250, 2648.857 3185.339, 2656.789 3191.429, 2664.721 3197.518, 2672.653 3206.958, 2684.950 " />
        </g>
    </g>
<g id="slice-labels"><text x="585.2586666666667" y="606.2528333333332" text-anchor="middle" dominant-baseline="middle" font-family="Arial, sans-serif" font-size="59.056003449048085" font-weight="bold" fill="black" stroke="none" stroke-width="7.08672041388577" paint-order="stroke fill">Slice46 (Front)</text><text x="1709.0" y="606.2528333333332" text-anchor="middle" dominant-baseline="middle" font-family="Arial, sans-serif" font-size="59.056003449048085" font-weight="bold" fill="black" stroke="none" stroke-width="7.08672041388577" paint-order="stroke fill">Slice46 (Front)</text><text x="2832.7413333333334" y="606.2528333333332" text-anchor="middle" dominant-baseline="middle" font-family="Arial, sans-serif" font-size="59.056003449048085" font-weight="bold" fill="black" stroke="none" stroke-width="7.08672041388577" paint-order="stroke fill">Slice46 (Front)</text><text x="585.2586666666667" y="1771.5045" text-anchor="middle" dominant-baseline="middle" font-family="Arial, sans-serif" font-size="59.056003449048085" font-weight="bold" fill="black" stroke="none" stroke-width="7.08672041388577" paint-order="stroke fill">Slice46 (Front)</text><text x="1709.0" y="1771.5045" text-anchor="middle" dominant-baseline="middle" font-family="Arial, sans-serif" font-size="59.056003449048085" font-weight="bold" fill="black" stroke="none" stroke-width="7.08672041388577" paint-order="stroke fill">Slice46 (Front)</text><text x="2832.7413333333334" y="1771.5045" text-anchor="middle" dominant-baseline="middle" font-family="Arial, sans-serif" font-size="59.056003449048085" font-weight="bold" fill="black" stroke="none" stroke-width="7.08672041388577" paint-order="stroke fill">Slice46 (Front)</text><text x="585.2586666666667" y="2936.756166666667" text-anchor="middle" dominant-baseline="middle" font-family="Arial, sans-serif" font-size="59.056003449048085" font-weight="bold" fill="black" stroke="none" stroke-width="7.08672041388577" paint-order="stroke fill">Slice46 (Front)</text><text x="1709.0" y="2936.756166666667" text-anchor="middle" dominant-baseline="middle" font-family="Arial, sans-serif" font-size="59.056003449048085" font-weight="bold" fill="black" stroke="none" stroke-width="7.08672041388577" paint-order="stroke fill">Slice46 (Front)</text><text x="2832.7413333333334" y="2936.756166666667" text-anchor="middle" dominant-baseline="middle" font-family="Arial, sans-serif" font-size="59.056003449048085" font-weight="bold" fill="black" stroke="none" stroke-width="7.08672041388577" paint-order="stroke fill">Slice46 (Front)</text></g></svg>