<?xml version='1.0' encoding='utf-8'?>
<svg xmlns="http://www.w3.org/2000/svg" xmlns:inkscape="http://www.inkscape.org/namespaces/inkscape" version="1.1" width="756.8719902038574mm" height="136.5271725654602mm" viewBox="-1.530994346280643 0.005004229693039264 8942.061988692561 1612.9999915406138" preserveAspectRatio="none">
    <g id="ViewLayer_LineSet" inkscape:groupmode="lineset" inkscape:label="ViewLayer_LineSet">
        <g inkscape:groupmode="layer" id="strokes" inkscape:label="strokes">
            <path fill="none" stroke-width="3.0" stroke-linecap="butt" stroke-opacity="1.0" stroke="rgb(0, 0, 0)" stroke-linejoin="round" d=" M 702.794, 700.567 700.274, 697.984 697.887, 695.279 695.637, 692.457 693.531, 689.528 691.573, 686.497 689.769, 683.372 688.123, 680.162 686.639, 676.873 685.321, 673.514 684.172, 670.094 683.195, 666.620 682.392, 663.103 681.765, 659.549 681.317, 655.969 681.047, 652.371 680.957, 648.764 681.047, 645.157 681.317, 641.559 681.765, 637.979 682.392, 634.425 683.195, 630.908 684.172, 627.434 685.321, 624.014 686.639, 620.656 688.123, 617.366 689.769, 614.156 691.573, 611.031 693.531, 608.000 695.637, 605.071 697.887, 602.249 700.274, 599.544 702.794, 596.961 705.439, 594.507 708.203, 592.188 711.079, 590.010 714.060, 587.976 717.139, 586.095 720.308, 584.370 723.559, 582.804 726.883, 581.402 730.274, 580.168 733.722, 579.105 737.218, 578.215 740.755, 577.499 744.323, 576.961 747.913, 576.602 751.517, 576.423 755.125, 576.423 758.729, 576.602 762.319, 576.961 765.887, 577.499 769.423, 578.215 772.920, 579.105 776.368, 580.168 779.758, 581.402 783.083, 582.804 786.334, 584.370 789.503, 586.095 792.581, 587.976 795.563, 590.010 798.439, 592.188 801.203, 594.507 803.848, 596.961 806.367, 599.544 808.755, 602.249 811.004, 605.071 813.111, 608.000 815.068, 611.031 816.872, 614.156 818.518, 617.366 820.002, 620.656 821.320, 624.014 822.470, 627.434 823.447, 630.908 824.250, 634.425 824.876, 637.979 825.325, 641.559 825.595, 645.157 825.684, 648.764 825.595, 652.371 825.325, 655.969 824.876, 659.549 824.250, 663.103 823.447, 666.620 822.470, 670.094 821.320, 673.514 820.002, 676.873 818.518, 680.162 816.872, 683.372 815.068, 686.497 813.111, 689.528 811.004, 692.457 808.755, 695.279 806.367, 697.984 803.848, 700.567 801.203, 703.021 798.439, 705.340 795.563, 707.519 792.581, 709.552 789.503, 711.433 786.334, 713.158 783.083, 714.724 779.758, 716.126 776.368, 717.360 772.920, 718.424 769.423, 719.313 765.887, 720.029 762.319, 720.567 758.729, 720.926 755.125, 721.105 751.517, 721.105 747.913, 720.926 744.323, 720.567 740.755, 720.029 737.218, 719.313 733.722, 718.424 730.274, 717.360 726.883, 716.126 723.559, 714.724 720.308, 713.158 717.139, 711.433 714.060, 709.552 711.079, 707.519 708.203, 705.340 705.439, 703.021 702.794, 700.567 " />
            <path fill="none" stroke-width="3.0" stroke-linecap="butt" stroke-opacity="1.0" stroke="rgb(0, 0, 0)" stroke-linejoin="round" d=" M 1174.652, 1589.376 1164.652, 1589.376 1154.652, 1589.376 1144.652, 1589.376 1134.652, 1589.376 1124.652, 1589.376 1114.652, 1589.376 1104.652, 1589.376 1094.652, 1589.376 1084.652, 1589.376 1074.652, 1589.376 1064.652, 1589.376 1054.652, 1589.376 1051.467, 1589.376 1048.925, 1589.376 1046.365, 1589.376 1043.797, 1589.376 " />
            <path fill="none" stroke-width="3.0" stroke-linecap="butt" stroke-opacity="1.0" stroke="rgb(0, 0, 0)" stroke-linejoin="round" d=" M 411.330, 1343.902 417.661, 1351.642 423.992, 1359.383 430.323, 1367.123 436.654, 1374.864 442.986, 1382.604 449.317, 1390.345 455.648, 1398.085 461.979, 1405.826 468.311, 1413.566 474.642, 1421.307 480.973, 1429.047 487.304, 1436.788 493.636, 1444.528 499.967, 1452.269 506.298, 1460.009 512.629, 1467.750 518.961, 1475.490 525.292, 1483.231 531.623, 1490.971 537.954, 1498.712 544.285, 1506.452 550.617, 1514.193 556.948, 1521.933 563.279, 1529.674 569.610, 1537.414 575.942, 1545.155 582.273, 1552.895 588.604, 1560.636 594.935, 1568.376 601.267, 1576.117 607.598, 1583.858 612.112, 1589.376 622.112, 1589.376 632.112, 1589.376 642.112, 1589.376 652.112, 1589.376 662.112, 1589.376 672.112, 1589.376 682.112, 1589.376 692.112, 1589.376 702.112, 1589.376 712.112, 1589.376 722.112, 1589.376 732.112, 1589.376 742.112, 1589.376 744.810, 1589.376 745.595, 1589.376 746.362, 1589.376 747.109, 1589.376 747.833, 1589.376 748.533, 1589.376 749.206, 1589.376 749.850, 1589.376 750.464, 1589.376 751.046, 1589.376 751.594, 1589.376 761.594, 1589.376 771.594, 1589.376 781.594, 1589.376 791.594, 1589.376 801.594, 1589.376 811.594, 1589.376 821.594, 1589.376 831.594, 1589.376 841.594, 1589.376 851.594, 1589.376 861.594, 1589.376 871.594, 1589.376 881.594, 1589.376 891.594, 1589.376 901.594, 1589.376 911.594, 1589.376 921.594, 1589.376 931.594, 1589.376 941.594, 1589.376 951.594, 1589.376 961.594, 1589.376 971.594, 1589.376 981.594, 1589.376 991.594, 1589.376 1001.594, 1589.376 1011.594, 1589.376 1021.594, 1589.376 1028.445, 1589.376 1030.042, 1589.376 1031.660, 1589.376 1033.294, 1589.376 1034.942, 1589.376 1036.598, 1589.376 1038.257, 1589.376 1039.914, 1589.376 1041.565, 1589.376 1043.205, 1589.376 1044.829, 1589.376 1054.829, 1589.376 1064.829, 1589.376 1074.829, 1589.376 1084.829, 1589.376 1094.829, 1589.376 1104.829, 1589.376 1114.829, 1589.376 1124.829, 1589.376 1134.829, 1589.376 1144.829, 1589.376 1154.829, 1589.376 1164.829, 1589.376 1167.710, 1589.376 1177.710, 1589.376 1187.710, 1589.376 1197.710, 1589.376 1207.710, 1589.376 1217.710, 1589.376 1227.710, 1589.376 1237.710, 1589.376 1247.710, 1589.376 1257.710, 1589.376 1267.710, 1589.376 1277.710, 1589.376 1287.710, 1589.376 1297.710, 1589.376 1307.710, 1589.376 1317.710, 1589.376 1327.710, 1589.376 1337.710, 1589.376 1347.710, 1589.376 1357.710, 1589.376 1367.710, 1589.376 1377.710, 1589.376 1387.710, 1589.376 1393.867, 1589.376 1403.867, 1589.376 1413.867, 1589.376 1423.867, 1589.376 1433.867, 1589.376 1443.867, 1589.376 1453.867, 1589.376 1463.867, 1589.376 1473.867, 1589.376 1483.867, 1589.376 1493.867, 1589.376 1503.867, 1589.376 1513.867, 1589.376 1523.867, 1589.376 1533.867, 1589.376 1543.867, 1589.376 1553.867, 1589.376 1563.867, 1589.376 1573.867, 1589.376 1583.867, 1589.376 1593.867, 1589.376 1603.867, 1589.376 1613.867, 1589.376 1623.867, 1589.376 1633.867, 1589.376 1637.346, 1589.376 1638.392, 1589.376 " />
            <path fill="none" stroke-width="3.0" stroke-linecap="butt" stroke-opacity="1.0" stroke="rgb(0, 0, 0)" stroke-linejoin="round" d=" M 300.278, 1053.556 302.512, 1063.303 304.746, 1073.051 306.980, 1082.798 309.215, 1092.545 311.449, 1102.292 313.683, 1112.040 315.917, 1121.787 318.151, 1131.534 320.385, 1141.281 322.619, 1151.029 324.394, 1158.770 328.644, 1167.822 332.895, 1176.873 337.145, 1185.925 341.396, 1194.977 345.647, 1204.028 349.897, 1213.080 354.148, 1222.132 358.398, 1231.183 362.649, 1240.235 366.899, 1249.287 371.150, 1258.338 375.400, 1267.390 379.651, 1276.442 383.902, 1285.493 388.152, 1294.545 392.403, 1303.597 396.653, 1312.648 400.904, 1321.700 405.154, 1330.752 409.405, 1339.803 411.330, 1343.902 " />
            <path fill="none" stroke-width="3.0" stroke-linecap="butt" stroke-opacity="1.0" stroke="rgb(0, 0, 0)" stroke-linejoin="round" d=" M 22.098, 23.634 25.081, 33.179 28.064, 42.723 31.048, 52.268 34.031, 61.813 37.015, 71.357 39.998, 80.902 42.982, 90.446 45.965, 99.991 48.948, 109.536 51.932, 119.080 52.836, 121.974 52.404, 131.964 51.972, 141.955 51.539, 151.945 51.107, 161.936 50.674, 171.927 50.242, 181.917 49.810, 191.908 49.377, 201.899 48.945, 211.889 48.513, 221.880 48.080, 231.871 47.648, 241.861 47.215, 251.852 46.783, 261.843 46.351, 271.833 45.918, 281.824 45.486, 291.815 45.054, 301.805 44.621, 311.796 44.189, 321.786 43.757, 331.777 43.607, 335.240 46.517, 344.807 49.427, 354.375 52.337, 363.942 55.247, 373.509 58.157, 383.076 61.067, 392.644 63.977, 402.211 66.887, 411.778 69.797, 421.345 72.707, 430.912 75.617, 440.480 78.526, 450.047 81.436, 459.614 84.346, 469.182 87.256, 478.749 90.166, 488.316 93.076, 497.883 95.986, 507.450 98.896, 517.018 101.806, 526.585 104.716, 536.152 107.626, 545.719 110.536, 555.287 113.446, 564.854 115.997, 573.240 119.579, 582.576 123.161, 591.913 126.743, 601.249 130.325, 610.585 133.907, 619.922 137.489, 629.258 141.071, 638.595 144.653, 647.931 148.236, 657.268 151.818, 666.604 155.400, 675.940 158.982, 685.277 162.564, 694.613 166.146, 703.950 169.728, 713.286 173.310, 722.622 176.892, 731.959 180.474, 741.295 184.056, 750.632 187.638, 759.968 191.220, 769.305 194.802, 778.641 198.384, 787.977 201.967, 797.314 205.549, 806.650 209.131, 815.987 212.713, 825.323 216.295, 834.660 219.877, 843.996 223.459, 853.332 227.041, 862.669 230.623, 872.005 234.205, 881.342 237.787, 890.678 241.369, 900.015 244.951, 909.351 248.533, 918.687 252.116, 928.024 255.698, 937.360 259.280, 946.697 262.862, 956.033 266.444, 965.369 270.026, 974.706 273.608, 984.042 277.190, 993.379 280.772, 1002.715 284.354, 1012.052 287.936, 1021.388 291.518, 1030.724 295.100, 1040.061 300.278, 1053.556 " />
            <path fill="none" stroke-width="3.0" stroke-linecap="butt" stroke-opacity="1.0" stroke="rgb(0, 0, 0)" stroke-linejoin="round" d=" M 8755.774, 535.014 8756.514, 525.041 8757.253, 515.068 8757.992, 505.096 8758.731, 495.123 8759.471, 485.151 8760.209, 475.178 8760.948, 465.205 8761.688, 455.233 8762.427, 445.260 8763.166, 435.287 8763.905, 425.315 8764.645, 415.342 8765.384, 405.369 8766.123, 395.397 8766.862, 385.424 8767.602, 375.451 8768.341, 365.479 8769.080, 355.506 8769.819, 345.533 8770.559, 335.561 8771.298, 325.588 8772.037, 315.616 8772.776, 305.643 8773.515, 295.670 8774.254, 285.698 8774.993, 275.725 8775.732, 265.752 8776.472, 255.780 8777.211, 245.807 8777.950, 235.834 8778.689, 225.862 8779.429, 215.889 8780.168, 205.917 8780.907, 195.944 8781.646, 185.971 8782.386, 175.999 8783.125, 166.026 8783.864, 156.053 8784.604, 146.081 8785.343, 136.108 8785.791, 130.054 8783.870, 120.240 8781.949, 110.427 8780.028, 100.613 8778.107, 90.799 8776.187, 80.985 8774.266, 71.172 8772.345, 61.358 8770.425, 51.544 8768.504, 41.730 8766.583, 31.916 8764.962, 23.634 8754.962, 23.634 8744.962, 23.634 8734.962, 23.634 8724.962, 23.634 8714.962, 23.634 8704.962, 23.634 8694.962, 23.634 8684.962, 23.634 8674.962, 23.634 8664.962, 23.634 8654.962, 23.634 8644.962, 23.634 8634.962, 23.634 8624.962, 23.634 8614.962, 23.634 8604.962, 23.634 8594.962, 23.634 8584.962, 23.634 8574.962, 23.634 8564.962, 23.634 8554.962, 23.634 8544.962, 23.634 8534.962, 23.634 8524.962, 23.634 8514.962, 23.634 8504.962, 23.634 8494.962, 23.634 8487.105, 23.634 8485.517, 23.634 8483.933, 23.634 8482.357, 23.634 8480.795, 23.634 8479.252, 23.634 8477.732, 23.634 8476.242, 23.634 8474.784, 23.634 8473.365, 23.634 8471.988, 23.634 8470.660, 23.634 8469.383, 23.634 8468.162, 23.634 8467.002, 23.634 8465.905, 23.634 8464.875, 23.634 8463.917, 23.634 8453.917, 23.634 8443.917, 23.634 8433.917, 23.634 8423.917, 23.634 8413.917, 23.634 8403.917, 23.634 8393.917, 23.634 8383.917, 23.634 8373.917, 23.634 8363.917, 23.634 8353.917, 23.634 8343.917, 23.634 8333.917, 23.634 8323.917, 23.634 8313.917, 23.634 8303.917, 23.634 8296.424, 23.634 8294.785, 23.634 8293.220, 23.634 8291.729, 23.634 8290.317, 23.634 8280.317, 23.634 8270.317, 23.634 8260.317, 23.634 8250.317, 23.634 8240.317, 23.634 8230.317, 23.634 8220.317, 23.634 8210.317, 23.634 8200.317, 23.634 8190.317, 23.634 8180.317, 23.634 8170.317, 23.634 8160.317, 23.634 8150.317, 23.634 8140.317, 23.634 8130.317, 23.634 8120.317, 23.634 8110.317, 23.634 8100.317, 23.634 8090.317, 23.634 8080.317, 23.634 8070.317, 23.634 8060.317, 23.634 8050.317, 23.634 8040.317, 23.634 8030.317, 23.634 8020.317, 23.634 8010.317, 23.634 8000.317, 23.634 7990.317, 23.634 7980.317, 23.634 7970.317, 23.634 7960.317, 23.634 7950.317, 23.634 7940.317, 23.634 7930.317, 23.634 7920.317, 23.634 7910.317, 23.634 7900.317, 23.634 7890.317, 23.634 7880.317, 23.634 7870.317, 23.634 7860.317, 23.634 7850.317, 23.634 7840.317, 23.634 7830.317, 23.634 7820.317, 23.634 7810.317, 23.634 7800.317, 23.634 7795.204, 23.634 7792.606, 23.634 7789.958, 23.634 7779.958, 23.634 7769.958, 23.634 7759.958, 23.634 7749.958, 23.634 7739.958, 23.634 7729.958, 23.634 7719.958, 23.634 7709.958, 23.634 7699.958, 23.634 7689.958, 23.634 7679.958, 23.634 7669.958, 23.634 7659.958, 23.634 7649.958, 23.634 7639.958, 23.634 7629.958, 23.634 7619.958, 23.634 7609.958, 23.634 7599.958, 23.634 7589.958, 23.634 7579.958, 23.634 7569.958, 23.634 7559.958, 23.634 7549.958, 23.634 7539.958, 23.634 7529.958, 23.634 7519.958, 23.634 7509.958, 23.634 7499.958, 23.634 7489.958, 23.634 7479.958, 23.634 7469.958, 23.634 7459.958, 23.634 7449.958, 23.634 7439.958, 23.634 7429.958, 23.634 7419.958, 23.634 7409.958, 23.634 7399.958, 23.634 7389.958, 23.634 7379.958, 23.634 7369.958, 23.634 7359.958, 23.634 7349.958, 23.634 7339.958, 23.634 7329.958, 23.634 7319.958, 23.634 7309.958, 23.634 7299.958, 23.634 7289.958, 23.634 7279.958, 23.634 7269.958, 23.634 7259.958, 23.634 7249.958, 23.634 7239.958, 23.634 7229.958, 23.634 7219.958, 23.634 7209.958, 23.634 7199.958, 23.634 7189.958, 23.634 7179.958, 23.634 7169.958, 23.634 7159.958, 23.634 7149.958, 23.634 7139.958, 23.634 7129.958, 23.634 7119.958, 23.634 7109.958, 23.634 7099.958, 23.634 7089.958, 23.634 7079.958, 23.634 7069.958, 23.634 7059.958, 23.634 7049.958, 23.634 7039.958, 23.634 7029.958, 23.634 7019.958, 23.634 7009.958, 23.634 6999.977, 23.634 7001.196, 33.560 7002.415, 43.485 7003.634, 53.411 7004.853, 63.336 7005.681, 70.073 7004.911, 80.044 7004.141, 90.014 7003.372, 99.984 7002.602, 109.955 7001.833, 119.925 7001.062, 129.895 7000.293, 139.866 6999.609, 148.726 6997.399, 158.479 6995.189, 168.232 6992.979, 177.984 6990.770, 187.737 6988.560, 197.490 6986.350, 207.243 6984.140, 216.995 6981.930, 226.748 6979.720, 236.501 6977.510, 246.254 6975.300, 256.006 6973.090, 265.759 6970.880, 275.512 6968.670, 285.265 6966.460, 295.017 6964.250, 304.770 6962.041, 314.523 6959.831, 324.276 6957.621, 334.028 6955.411, 343.781 6953.079, 354.071 6955.311, 363.819 6957.542, 373.567 6959.773, 383.315 6962.005, 393.063 6964.236, 402.811 6966.467, 412.558 6968.699, 422.306 6970.930, 432.054 6973.162, 441.802 6975.393, 451.550 6977.625, 461.298 6979.856, 471.046 6982.087, 480.793 6984.318, 490.541 6986.550, 500.289 6988.781, 510.037 6991.013, 519.785 6993.244, 529.533 6995.476, 539.281 6997.707, 549.028 6999.938, 558.776 7002.169, 568.524 7004.401, 578.272 7006.632, 588.020 7008.864, 597.768 7011.095, 607.516 7013.327, 617.264 7015.558, 627.011 7017.790, 636.759 7020.021, 646.507 7022.252, 656.255 7024.483, 666.003 7026.715, 675.751 7028.946, 685.499 7031.178, 695.247 7033.409, 704.994 7035.641, 714.742 7037.872, 724.490 7040.103, 734.238 7042.334, 743.986 7044.566, 753.734 7046.797, 763.482 7049.029, 773.229 7051.260, 782.977 7053.492, 792.725 7055.723, 802.473 7057.954, 812.221 7060.186, 821.969 7062.417, 831.717 7064.648, 841.464 7066.880, 851.212 7069.111, 860.960 7071.343, 870.708 7073.574, 880.456 7075.805, 890.204 7077.348, 896.942 " />
            <path fill="none" stroke-width="3.0" stroke-linecap="butt" stroke-opacity="1.0" stroke="rgb(0, 0, 0)" stroke-linejoin="round" d=" M 8916.902, 1589.376 8916.773, 1579.376 8916.645, 1569.377 8916.516, 1559.378 8916.387, 1549.379 8916.258, 1539.380 8916.130, 1529.381 8916.001, 1519.381 8915.872, 1509.382 8915.743, 1499.383 8915.614, 1489.384 8915.485, 1479.385 8915.356, 1469.386 8915.228, 1459.386 8915.089, 1448.627 8914.023, 1438.684 8912.958, 1428.741 8911.893, 1418.798 8910.827, 1408.855 8909.762, 1398.912 8908.696, 1388.969 8907.631, 1379.026 8906.565, 1369.083 8905.500, 1359.140 8904.435, 1349.197 8903.369, 1339.253 8902.304, 1329.310 8901.238, 1319.367 8900.173, 1309.424 8899.107, 1299.481 8898.042, 1289.538 8896.977, 1279.595 8895.911, 1269.652 8894.846, 1259.709 8893.780, 1249.766 8892.715, 1239.823 8891.649, 1229.880 8890.584, 1219.937 8889.519, 1209.993 8888.453, 1200.050 8887.388, 1190.107 8886.322, 1180.164 8885.257, 1170.221 8884.191, 1160.278 8883.126, 1150.335 8882.061, 1140.392 8880.995, 1130.449 8879.798, 1119.279 8877.722, 1109.497 8875.646, 1099.715 8873.568, 1089.933 8871.492, 1080.151 8869.416, 1070.369 8867.339, 1060.587 8865.263, 1050.805 8863.187, 1041.023 8861.110, 1031.241 8859.033, 1021.459 8856.957, 1011.677 8854.881, 1001.895 8852.804, 992.113 8850.728, 982.331 8848.651, 972.549 8846.574, 962.766 8844.498, 952.984 8842.422, 943.202 8840.346, 933.420 8838.269, 923.638 8836.192, 913.856 8834.116, 904.074 8832.039, 894.292 8829.963, 884.510 8827.887, 874.728 8825.810, 864.946 8823.733, 855.164 8821.657, 845.382 8819.581, 835.600 8817.504, 825.818 8815.428, 816.036 8813.352, 806.254 8811.274, 796.472 8809.198, 786.690 8807.122, 776.908 8805.045, 767.126 8802.969, 757.344 8800.893, 747.562 8798.816, 737.780 8796.739, 727.998 8794.663, 718.216 8792.587, 708.433 8790.510, 698.651 8788.434, 688.869 8786.357, 679.087 8784.280, 669.305 8782.204, 659.523 8780.128, 649.741 8778.052, 639.959 8775.975, 630.177 8773.898, 620.395 8771.822, 610.613 8769.745, 600.831 8767.669, 591.049 8765.593, 581.267 8763.516, 571.485 8761.439, 561.703 8759.363, 551.921 8757.287, 542.139 8755.774, 535.014 " />
            <path fill="none" stroke-width="3.0" stroke-linecap="butt" stroke-opacity="1.0" stroke="rgb(0, 0, 0)" stroke-linejoin="round" d=" M 2978.658, 690.682 2973.488, 682.122 2968.318, 673.562 2963.147, 665.003 2957.977, 656.443 2952.807, 647.883 2947.637, 639.323 2942.467, 630.763 2937.297, 622.204 2932.127, 613.644 2926.957, 605.084 2921.786, 596.524 2916.616, 587.965 2911.446, 579.405 2906.276, 570.845 2901.106, 562.285 2895.936, 553.726 2890.765, 545.166 2885.595, 536.606 2880.425, 528.046 2875.255, 519.486 2870.085, 510.927 2864.915, 502.367 2859.745, 493.807 2854.574, 485.247 2849.404, 476.688 2844.234, 468.128 2839.064, 459.568 2833.894, 451.008 2828.724, 442.449 2823.554, 433.889 2818.384, 425.329 2813.213, 416.769 2808.043, 408.209 2802.873, 399.650 2797.703, 391.090 2792.533, 382.530 2787.363, 373.970 2782.192, 365.411 2777.022, 356.851 2771.852, 348.291 2766.682, 339.731 2761.512, 331.172 2756.342, 322.612 2751.172, 314.052 2746.001, 305.492 2740.831, 296.933 2735.661, 288.373 2728.261, 276.121 2727.044, 266.195 2725.827, 256.269 2724.610, 246.344 2723.393, 236.418 2722.176, 226.492 2720.959, 216.567 2719.742, 206.641 2718.525, 196.715 2717.308, 186.790 2716.091, 176.864 2714.874, 166.938 2713.657, 157.012 2712.440, 147.087 2711.223, 137.161 2710.006, 127.235 2708.789, 117.310 2707.572, 107.384 2706.355, 97.458 2705.138, 87.533 2703.921, 77.607 2702.704, 67.681 2701.487, 57.756 2700.270, 47.830 2699.053, 37.904 2697.836, 27.979 2697.303, 23.634 2687.303, 23.634 2677.303, 23.634 2667.303, 23.634 2660.801, 23.634 2660.631, 23.634 2660.471, 23.634 2660.320, 23.634 2650.320, 23.634 2640.320, 23.634 2630.320, 23.634 2620.320, 23.634 2610.320, 23.634 2600.320, 23.634 2590.320, 23.634 2580.320, 23.634 2570.320, 23.634 2560.320, 23.634 2550.320, 23.634 2540.320, 23.634 2530.320, 23.634 2520.320, 23.634 2510.320, 23.634 2500.320, 23.634 2490.320, 23.634 2480.320, 23.634 2470.320, 23.634 2460.320, 23.634 2450.320, 23.634 2440.320, 23.634 2430.320, 23.634 2420.320, 23.634 2410.320, 23.634 2400.320, 23.634 2390.320, 23.634 2380.320, 23.634 2370.320, 23.634 2364.094, 23.634 2363.030, 23.634 2362.011, 23.634 2352.011, 23.634 2342.011, 23.634 2332.011, 23.634 2322.011, 23.634 2312.011, 23.634 2302.011, 23.634 2292.011, 23.634 2282.011, 23.634 2272.011, 23.634 2262.011, 23.634 2252.011, 23.634 2242.011, 23.634 2232.011, 23.634 2222.011, 23.634 2212.011, 23.634 2202.011, 23.634 2192.011, 23.634 2182.011, 23.634 2172.011, 23.634 2162.011, 23.634 2152.011, 23.634 2142.011, 23.634 2132.011, 23.634 2122.011, 23.634 2112.011, 23.634 2102.011, 23.634 2092.011, 23.634 2082.011, 23.634 2072.011, 23.634 2062.011, 23.634 2052.011, 23.634 2042.011, 23.634 2032.011, 23.634 2022.011, 23.634 2012.011, 23.634 2002.011, 23.634 1992.011, 23.634 1982.011, 23.634 1972.011, 23.634 1962.011, 23.634 1952.011, 23.634 1942.011, 23.634 1932.011, 23.634 1922.011, 23.634 1912.011, 23.634 1902.011, 23.634 1892.011, 23.634 1882.011, 23.634 1872.011, 23.634 1862.011, 23.634 1852.011, 23.634 1842.011, 23.634 1832.011, 23.634 1822.011, 23.634 1812.011, 23.634 1802.011, 23.634 1792.011, 23.634 1782.011, 23.634 1772.011, 23.634 1762.011, 23.634 1752.011, 23.634 1742.011, 23.634 1732.011, 23.634 1722.011, 23.634 1712.011, 23.634 1703.489, 23.634 1698.877, 23.634 1694.230, 23.634 1689.562, 23.634 1684.886, 23.634 1680.216, 23.634 1675.566, 23.634 1670.952, 23.634 1666.387, 23.634 1661.885, 23.634 1657.462, 23.634 1653.133, 23.634 1648.912, 23.634 1644.812, 23.634 1634.812, 23.634 1624.812, 23.634 1614.812, 23.634 1604.812, 23.634 1594.812, 23.634 1584.812, 23.634 1574.812, 23.634 1564.812, 23.634 1554.812, 23.634 1544.812, 23.634 1534.812, 23.634 1524.812, 23.634 1514.812, 23.634 1504.812, 23.634 1494.812, 23.634 1484.812, 23.634 1474.812, 23.634 1464.812, 23.634 1454.812, 23.634 1444.812, 23.634 1434.812, 23.634 1424.812, 23.634 1414.812, 23.634 1404.812, 23.634 1394.812, 23.634 1384.812, 23.634 1374.812, 23.634 1364.812, 23.634 1354.812, 23.634 1344.812, 23.634 1334.812, 23.634 1324.812, 23.634 1314.812, 23.634 1304.812, 23.634 1294.812, 23.634 1284.812, 23.634 1279.046, 23.634 1270.480, 23.634 1265.809, 23.634 1261.230, 23.634 1251.230, 23.634 1241.230, 23.634 1231.230, 23.634 1221.230, 23.634 1211.230, 23.634 1201.230, 23.634 1191.230, 23.634 1181.230, 23.634 1171.230, 23.634 1161.230, 23.634 1151.230, 23.634 1141.230, 23.634 1131.230, 23.634 1121.230, 23.634 1111.230, 23.634 1101.230, 23.634 1091.230, 23.634 1081.230, 23.634 1071.230, 23.634 1061.230, 23.634 1051.230, 23.634 1041.230, 23.634 1031.230, 23.634 1021.230, 23.634 1011.230, 23.634 1001.230, 23.634 991.230, 23.634 981.230, 23.634 971.230, 23.634 961.230, 23.634 951.230, 23.634 941.230, 23.634 931.230, 23.634 921.230, 23.634 911.230, 23.634 901.230, 23.634 891.230, 23.634 881.230, 23.634 871.230, 23.634 861.230, 23.634 851.230, 23.634 841.230, 23.634 831.230, 23.634 821.230, 23.634 811.230, 23.634 801.230, 23.634 791.230, 23.634 781.230, 23.634 771.230, 23.634 761.230, 23.634 751.230, 23.634 741.230, 23.634 731.230, 23.634 721.230, 23.634 711.230, 23.634 701.230, 23.634 691.230, 23.634 681.230, 23.634 671.230, 23.634 661.230, 23.634 651.230, 23.634 641.230, 23.634 631.230, 23.634 621.230, 23.634 611.230, 23.634 601.230, 23.634 591.230, 23.634 581.230, 23.634 571.230, 23.634 561.230, 23.634 551.230, 23.634 541.230, 23.634 531.230, 23.634 521.230, 23.634 511.230, 23.634 501.230, 23.634 491.230, 23.634 481.230, 23.634 471.230, 23.634 461.230, 23.634 451.230, 23.634 441.230, 23.634 431.230, 23.634 421.230, 23.634 411.230, 23.634 401.230, 23.634 391.230, 23.634 381.230, 23.634 371.230, 23.634 361.230, 23.634 351.230, 23.634 341.230, 23.634 331.230, 23.634 321.230, 23.634 311.230, 23.634 301.230, 23.634 291.230, 23.634 272.805, 23.634 271.161, 23.634 269.381, 23.634 267.469, 23.634 265.432, 23.634 255.432, 23.634 251.953, 23.634 241.953, 23.634 231.953, 23.634 221.953, 23.634 211.953, 23.634 201.953, 23.634 191.953, 23.634 181.953, 23.634 171.953, 23.634 161.953, 23.634 151.953, 23.634 141.953, 23.634 131.953, 23.634 121.953, 23.634 111.953, 23.634 101.953, 23.634 91.953, 23.634 81.953, 23.634 71.953, 23.634 61.953, 23.634 51.953, 23.634 41.953, 23.634 31.953, 23.634 22.098, 23.634 " />
            <path fill="none" stroke-width="3.0" stroke-linecap="butt" stroke-opacity="1.0" stroke="rgb(0, 0, 0)" stroke-linejoin="round" d=" M 2156.811, 1028.551 2154.292, 1025.968 2151.904, 1023.263 2149.655, 1020.443 2147.548, 1017.513 2145.591, 1014.482 2143.786, 1011.356 2142.140, 1008.146 2140.656, 1004.857 2139.338, 1001.498 2138.189, 998.078 2137.212, 994.605 2136.409, 991.087 2135.782, 987.533 2135.334, 983.954 2135.064, 980.355 2134.974, 976.749 2135.064, 973.142 2135.334, 969.543 2135.782, 965.963 2136.409, 962.410 2137.212, 958.892 2138.189, 955.418 2139.338, 951.999 2140.656, 948.640 2142.140, 945.351 2143.786, 942.140 2145.591, 939.015 2147.548, 935.985 2149.655, 933.055 2151.904, 930.234 2154.292, 927.529 2156.811, 924.946 2159.456, 922.491 2162.220, 920.172 2165.096, 917.994 2168.077, 915.961 2171.156, 914.079 2174.325, 912.354 2177.576, 910.788 2180.901, 909.387 2184.291, 908.153 2187.739, 907.089 2191.235, 906.199 2194.772, 905.484 2198.340, 904.946 2201.930, 904.587 2205.534, 904.408 2209.142, 904.408 2212.746, 904.587 2216.336, 904.946 2219.904, 905.484 2223.440, 906.199 2226.937, 907.089 2230.385, 908.153 2233.775, 909.387 2237.100, 910.788 2240.351, 912.354 2243.520, 914.079 2246.599, 915.961 2249.580, 917.994 2252.456, 920.172 2255.220, 922.491 2257.865, 924.946 2260.384, 927.529 2262.772, 930.234 2265.021, 933.055 2267.128, 935.985 2269.085, 939.015 2270.889, 942.140 2272.535, 945.351 2274.020, 948.640 2275.338, 951.999 2276.487, 955.418 2277.464, 958.892 2278.267, 962.410 2278.894, 965.963 2279.342, 969.543 2279.612, 973.142 2279.702, 976.749 2279.612, 980.355 2279.342, 983.954 2278.894, 987.533 2278.267, 991.087 2277.464, 994.605 2276.487, 998.078 2275.338, 1001.498 2274.020, 1004.857 2272.535, 1008.146 2270.889, 1011.356 2269.085, 1014.482 2267.128, 1017.513 2265.021, 1020.443 2262.772, 1023.263 2260.384, 1025.968 2257.865, 1028.551 2255.220, 1031.006 2252.456, 1033.325 2249.580, 1035.503 2246.599, 1037.536 2243.520, 1039.417 2240.351, 1041.143 2237.100, 1042.709 2233.775, 1044.110 2230.385, 1045.344 2226.937, 1046.408 2223.440, 1047.298 2219.904, 1048.013 2216.336, 1048.551 2212.746, 1048.910 2209.142, 1049.090 2205.534, 1049.090 2201.930, 1048.910 2198.340, 1048.551 2194.772, 1048.013 2191.235, 1047.298 2187.739, 1046.408 2184.291, 1045.344 2180.901, 1044.110 2177.576, 1042.709 2174.325, 1041.143 2171.156, 1039.417 2168.077, 1037.536 2165.096, 1035.503 2162.220, 1033.325 2159.456, 1031.006 2156.811, 1028.551 " />
            <path fill="none" stroke-width="3.0" stroke-linecap="butt" stroke-opacity="1.0" stroke="rgb(0, 0, 0)" stroke-linejoin="round" d=" M 1638.392, 1589.376 1641.134, 1589.376 1643.874, 1589.376 1646.606, 1589.376 1649.322, 1589.376 1652.012, 1589.376 1654.670, 1589.376 1657.288, 1589.376 1659.858, 1589.376 1662.373, 1589.376 1664.825, 1589.376 1667.207, 1589.376 1669.511, 1589.376 1679.511, 1589.376 1689.511, 1589.376 1699.511, 1589.376 1709.511, 1589.376 1719.511, 1589.376 1729.511, 1589.376 1739.511, 1589.376 1749.511, 1589.376 1759.511, 1589.376 1769.511, 1589.376 1779.511, 1589.376 1789.511, 1589.376 1799.511, 1589.376 1809.511, 1589.376 1819.511, 1589.376 1829.511, 1589.376 1839.511, 1589.376 1849.511, 1589.376 1859.511, 1589.376 1869.511, 1589.376 1879.511, 1589.376 1889.511, 1589.376 1899.511, 1589.376 1909.511, 1589.376 1919.511, 1589.376 1929.511, 1589.376 1933.703, 1589.376 1936.370, 1589.376 1938.984, 1589.376 1941.539, 1589.376 " />
            <path fill="none" stroke-width="3.0" stroke-linecap="butt" stroke-opacity="1.0" stroke="rgb(0, 0, 0)" stroke-linejoin="round" d=" M 1941.539, 1589.376 1951.539, 1589.375 1961.539, 1589.375 1971.539, 1589.375 1981.539, 1589.375 1991.539, 1589.374 2001.539, 1589.374 2011.539, 1589.374 2021.539, 1589.374 2031.539, 1589.373 2041.539, 1589.373 2051.539, 1589.373 2061.539, 1589.373 2071.539, 1589.372 2081.539, 1589.372 2091.539, 1589.372 2101.539, 1589.371 2111.539, 1589.371 2121.539, 1589.371 2131.539, 1589.371 2141.539, 1589.370 2151.539, 1589.370 2161.539, 1589.370 2171.539, 1589.370 2181.539, 1589.369 2191.539, 1589.369 2201.539, 1589.369 2211.539, 1589.369 2221.539, 1589.368 2231.539, 1589.368 2241.539, 1589.368 2251.539, 1589.368 2261.539, 1589.367 2271.539, 1589.367 2281.539, 1589.367 2291.539, 1589.367 2301.539, 1589.366 2311.539, 1589.366 2321.539, 1589.366 2331.539, 1589.365 2341.539, 1589.365 2351.539, 1589.365 2361.539, 1589.365 2371.539, 1589.364 2381.539, 1589.364 2391.539, 1589.364 2401.539, 1589.364 2411.539, 1589.363 2421.539, 1589.363 2431.539, 1589.363 2441.539, 1589.363 2451.539, 1589.362 2461.539, 1589.362 2471.539, 1589.362 2481.539, 1589.362 2491.539, 1589.361 2501.539, 1589.361 2511.539, 1589.361 2521.539, 1589.361 2531.539, 1589.360 2541.539, 1589.360 2551.539, 1589.360 2561.539, 1589.360 2571.539, 1589.359 2581.539, 1589.359 2591.539, 1589.359 2601.539, 1589.358 2611.539, 1589.358 2621.539, 1589.358 2631.539, 1589.358 2641.539, 1589.357 2651.539, 1589.357 2661.539, 1589.357 2671.539, 1589.357 2681.539, 1589.356 2691.539, 1589.356 2701.539, 1589.356 2711.539, 1589.356 2721.539, 1589.355 2731.539, 1589.355 2741.539, 1589.355 2751.539, 1589.355 2761.539, 1589.354 2771.539, 1589.354 2781.539, 1589.354 2791.539, 1589.354 2801.539, 1589.353 2811.539, 1589.353 2821.539, 1589.353 2831.539, 1589.352 2841.539, 1589.352 2851.539, 1589.352 2861.539, 1589.352 2871.539, 1589.351 2881.539, 1589.351 2891.539, 1589.351 2901.539, 1589.351 2911.539, 1589.350 2921.539, 1589.350 2931.539, 1589.350 2941.539, 1589.350 2951.539, 1589.349 2961.539, 1589.349 2971.539, 1589.349 2981.539, 1589.349 2991.539, 1589.348 3001.539, 1589.348 3011.539, 1589.348 3021.539, 1589.348 3031.539, 1589.347 3041.539, 1589.347 3051.539, 1589.347 3061.539, 1589.346 3071.539, 1589.346 3087.510, 1589.346 3089.339, 1589.346 3099.099, 1589.346 3099.859, 1589.314 3100.659, 1589.314 3101.509, 1589.314 3102.407, 1589.314 3103.350, 1589.313 3104.334, 1589.313 3105.356, 1589.313 3106.412, 1589.313 " />
            <path fill="none" stroke-width="3.0" stroke-linecap="butt" stroke-opacity="1.0" stroke="rgb(0, 0, 0)" stroke-linejoin="round" d=" M 3106.412, 1589.313 3107.599, 1589.376 3117.599, 1589.376 3127.599, 1589.376 3137.599, 1589.376 3147.599, 1589.376 3157.599, 1589.376 3167.599, 1589.376 3177.599, 1589.376 3187.599, 1589.376 3197.599, 1589.376 3207.599, 1589.376 3217.599, 1589.376 3227.599, 1589.376 3237.599, 1589.376 3247.599, 1589.376 3257.599, 1589.376 3267.599, 1589.376 3277.599, 1589.376 3287.599, 1589.376 3295.867, 1589.376 " />
            <path fill="none" stroke-width="3.0" stroke-linecap="butt" stroke-opacity="1.0" stroke="rgb(0, 0, 0)" stroke-linejoin="round" d=" M 3295.867, 1589.376 3294.762, 1579.437 3293.657, 1569.498 3292.552, 1559.559 3291.447, 1549.621 3290.342, 1539.682 3289.236, 1529.743 3288.131, 1519.804 3287.026, 1509.866 3285.921, 1499.927 3285.719, 1498.114 3283.735, 1488.312 3281.751, 1478.511 3279.766, 1468.710 3277.782, 1458.909 3275.798, 1449.108 3273.813, 1439.307 3271.829, 1429.506 3269.845, 1419.704 3267.860, 1409.903 3265.876, 1400.102 3263.892, 1390.301 3261.907, 1380.500 3259.923, 1370.699 3259.115, 1366.709 " />
            <path fill="none" stroke-width="3.0" stroke-linecap="butt" stroke-opacity="1.0" stroke="rgb(0, 0, 0)" stroke-linejoin="round" d=" M 7077.348, 896.942 7078.218, 906.904 7079.089, 916.866 7079.960, 926.828 7080.831, 936.790 7081.701, 946.752 7082.572, 956.714 7083.443, 966.676 7084.313, 976.638 7085.184, 986.600 7086.055, 996.562 7086.925, 1006.524 7087.796, 1016.486 7088.667, 1026.448 7089.538, 1036.410 7090.408, 1046.372 7091.279, 1056.334 7092.150, 1066.296 7093.021, 1076.258 7093.891, 1086.220 7094.762, 1096.182 7095.632, 1106.144 7096.503, 1116.106 7097.374, 1126.068 7098.245, 1136.030 7099.115, 1145.992 7099.986, 1155.954 7100.857, 1165.916 7101.728, 1175.878 7102.559, 1185.384 7104.483, 1195.197 7106.409, 1205.010 7106.609, 1206.034 7106.216, 1216.026 7105.822, 1226.018 7105.429, 1236.010 7105.035, 1246.003 7104.642, 1255.995 7104.248, 1265.987 7103.854, 1275.979 7103.461, 1285.972 7103.067, 1295.964 7102.674, 1305.956 7102.280, 1315.948 7101.887, 1325.941 7101.493, 1335.933 7101.100, 1345.925 7100.706, 1355.917 7100.312, 1365.910 7099.919, 1375.902 7099.525, 1385.894 7099.132, 1395.886 7098.738, 1405.879 7098.345, 1415.871 7097.952, 1425.863 7097.558, 1435.855 7097.165, 1445.848 7096.771, 1455.840 7096.377, 1465.832 7095.984, 1475.824 7095.590, 1485.817 7095.197, 1495.809 7094.803, 1505.801 7094.410, 1515.794 7094.016, 1525.786 7093.623, 1535.778 7093.229, 1545.770 7092.835, 1555.763 7092.442, 1565.755 7092.048, 1575.747 7091.512, 1589.376 7101.512, 1589.376 7111.512, 1589.376 7121.512, 1589.376 7131.512, 1589.376 7141.512, 1589.376 7151.512, 1589.376 7161.512, 1589.376 7171.512, 1589.376 7181.512, 1589.376 7191.512, 1589.376 7201.512, 1589.376 7211.512, 1589.376 7221.512, 1589.376 7231.512, 1589.376 7241.512, 1589.376 7251.512, 1589.376 7261.512, 1589.376 7271.512, 1589.376 7281.512, 1589.376 7291.512, 1589.376 7301.512, 1589.376 7311.512, 1589.376 7321.512, 1589.376 7331.512, 1589.376 7341.512, 1589.376 7351.512, 1589.376 7361.848, 1589.376 7371.848, 1589.376 7381.848, 1589.376 7391.848, 1589.376 7401.848, 1589.376 7411.848, 1589.376 7421.848, 1589.376 7431.848, 1589.376 7441.848, 1589.376 7451.848, 1589.376 7461.848, 1589.376 7471.848, 1589.376 7481.848, 1589.376 7491.848, 1589.376 7501.848, 1589.376 7511.848, 1589.376 7521.848, 1589.376 7531.848, 1589.376 7541.848, 1589.376 7551.848, 1589.376 7561.848, 1589.376 7571.848, 1589.376 7581.848, 1589.376 7591.848, 1589.376 7601.848, 1589.376 7611.848, 1589.376 7621.848, 1589.376 7631.848, 1589.376 7641.848, 1589.376 7651.848, 1589.376 7661.848, 1589.376 7671.848, 1589.376 7681.848, 1589.376 7691.848, 1589.376 7701.848, 1589.376 7711.848, 1589.376 7721.848, 1589.376 7731.848, 1589.376 7741.848, 1589.376 7751.848, 1589.376 7761.848, 1589.376 7771.848, 1589.376 7781.848, 1589.376 7791.848, 1589.376 7801.848, 1589.376 7811.848, 1589.376 7821.848, 1589.376 7831.848, 1589.376 7841.848, 1589.376 7851.848, 1589.376 7861.848, 1589.376 7871.848, 1589.376 7881.848, 1589.376 7891.848, 1589.376 7901.848, 1589.376 7911.848, 1589.376 7921.848, 1589.376 7931.848, 1589.376 7941.848, 1589.376 7951.848, 1589.376 7961.848, 1589.376 7971.848, 1589.376 7981.848, 1589.376 7991.848, 1589.376 8001.848, 1589.376 8011.848, 1589.376 8021.848, 1589.376 8031.848, 1589.376 8041.848, 1589.376 8051.848, 1589.376 8061.848, 1589.376 8071.848, 1589.376 8081.848, 1589.376 8091.848, 1589.376 8101.848, 1589.376 8111.848, 1589.376 8121.848, 1589.376 8131.848, 1589.376 8141.848, 1589.376 8151.848, 1589.376 8161.848, 1589.376 8171.848, 1589.376 8181.848, 1589.376 8191.848, 1589.376 8201.849, 1589.376 8211.849, 1589.376 8221.849, 1589.376 8231.849, 1589.376 8241.849, 1589.376 8251.849, 1589.376 8261.849, 1589.376 8271.849, 1589.376 8281.849, 1589.376 8291.849, 1589.376 8301.849, 1589.376 8311.849, 1589.376 8321.849, 1589.376 8331.849, 1589.376 8341.849, 1589.376 8351.849, 1589.376 8361.849, 1589.376 8371.849, 1589.376 8381.849, 1589.376 8391.849, 1589.376 8401.849, 1589.376 8411.849, 1589.376 8421.849, 1589.376 8431.849, 1589.376 8441.849, 1589.376 8451.849, 1589.376 8461.849, 1589.376 8471.849, 1589.376 8481.849, 1589.376 8491.849, 1589.376 8501.849, 1589.376 8511.849, 1589.376 8521.849, 1589.376 8531.849, 1589.376 8541.849, 1589.376 8551.849, 1589.376 8561.849, 1589.376 8571.849, 1589.376 8581.849, 1589.376 8591.849, 1589.376 8601.849, 1589.376 8611.849, 1589.376 8621.849, 1589.376 8631.849, 1589.376 8641.849, 1589.376 8651.849, 1589.376 8661.849, 1589.376 8671.849, 1589.376 8681.849, 1589.376 8691.849, 1589.376 8701.849, 1589.376 8711.849, 1589.376 8721.849, 1589.376 8731.849, 1589.376 8741.849, 1589.376 8751.849, 1589.376 8761.849, 1589.376 8771.849, 1589.376 8781.849, 1589.376 8791.849, 1589.376 8801.849, 1589.376 8811.849, 1589.376 8821.849, 1589.376 8831.849, 1589.376 8841.849, 1589.376 8851.849, 1589.376 8861.849, 1589.376 8871.849, 1589.376 8881.849, 1589.376 8891.849, 1589.376 8916.902, 1589.376 " />
            <path fill="none" stroke-width="3.0" stroke-linecap="butt" stroke-opacity="1.0" stroke="rgb(0, 0, 0)" stroke-linejoin="round" d=" M 8107.615, 416.254 8105.764, 414.355 8104.010, 412.368 8102.357, 410.296 8100.810, 408.144 8099.372, 405.917 8098.046, 403.621 8096.836, 401.262 8095.746, 398.846 8094.778, 396.378 8093.934, 393.865 8093.216, 391.313 8092.626, 388.728 " />
            <path fill="none" stroke-width="3.0" stroke-linecap="butt" stroke-opacity="1.0" stroke="rgb(0, 0, 0)" stroke-linejoin="round" d=" M 8118.154, 424.237 8115.892, 422.854 8113.702, 421.362 8111.589, 419.760 8109.558, 418.057 " />
            <path fill="none" stroke-width="3.0" stroke-linecap="butt" stroke-opacity="1.0" stroke="rgb(0, 0, 0)" stroke-linejoin="round" d=" M 8146.062, 431.344 8143.411, 431.344 8140.764, 431.211 8138.126, 430.947 8135.505, 430.551 8132.906, 430.027 8130.337, 429.373 8127.804, 428.591 8125.313, 427.685 8122.871, 426.655 8120.482, 425.504 8118.154, 424.237 " />
            <path fill="none" stroke-width="3.0" stroke-linecap="butt" stroke-opacity="1.0" stroke="rgb(0, 0, 0)" stroke-linejoin="round" d=" M 8092.626, 388.728 8092.166, 386.119 8091.836, 383.488 8091.638, 380.845 8091.571, 378.194 8091.638, 375.544 8091.836, 372.901 8092.166, 370.271 8092.626, 367.660 8093.216, 365.076 8093.934, 362.524 8094.778, 360.011 8095.746, 357.544 8096.836, 355.127 " />
            <path fill="none" stroke-width="3.0" stroke-linecap="butt" stroke-opacity="1.0" stroke="rgb(0, 0, 0)" stroke-linejoin="round" d=" M 8096.836, 355.127 8098.046, 352.768 8099.372, 350.472 8100.810, 348.245 8102.357, 346.093 8104.010, 344.020 8105.764, 342.033 8107.615, 340.135 " />
            <path fill="none" stroke-width="3.0" stroke-linecap="butt" stroke-opacity="1.0" stroke="rgb(0, 0, 0)" stroke-linejoin="round" d=" M 8171.319, 424.237 8168.991, 425.504 8166.603, 426.655 8164.160, 427.685 8161.669, 428.591 8159.136, 429.373 8156.567, 430.027 8153.969, 430.551 8151.347, 430.947 8148.710, 431.211 8146.062, 431.344 " />
            <path fill="none" stroke-width="3.0" stroke-linecap="butt" stroke-opacity="1.0" stroke="rgb(0, 0, 0)" stroke-linejoin="round" d=" M 8107.615, 340.135 8109.558, 338.332 " />
            <path fill="none" stroke-width="3.0" stroke-linecap="butt" stroke-opacity="1.0" stroke="rgb(0, 0, 0)" stroke-linejoin="round" d=" M 8109.558, 338.332 8111.589, 336.628 " />
            <path fill="none" stroke-width="3.0" stroke-linecap="butt" stroke-opacity="1.0" stroke="rgb(0, 0, 0)" stroke-linejoin="round" d=" M 8111.589, 336.628 8113.702, 335.027 " />
            <path fill="none" stroke-width="3.0" stroke-linecap="butt" stroke-opacity="1.0" stroke="rgb(0, 0, 0)" stroke-linejoin="round" d=" M 8113.702, 335.027 8115.892, 333.534 8118.154, 332.152 8120.482, 330.884 " />
            <path fill="none" stroke-width="3.0" stroke-linecap="butt" stroke-opacity="1.0" stroke="rgb(0, 0, 0)" stroke-linejoin="round" d=" M 8120.482, 330.884 8122.871, 329.734 " />
            <path fill="none" stroke-width="3.0" stroke-linecap="butt" stroke-opacity="1.0" stroke="rgb(0, 0, 0)" stroke-linejoin="round" d=" M 8122.871, 329.734 8125.313, 328.704 8127.804, 327.798 8130.337, 327.016 " />
            <path fill="none" stroke-width="3.0" stroke-linecap="butt" stroke-opacity="1.0" stroke="rgb(0, 0, 0)" stroke-linejoin="round" d=" M 8196.848, 367.660 8197.309, 370.271 8197.638, 372.901 8197.836, 375.544 8197.901, 378.194 " />
            <path fill="none" stroke-width="3.0" stroke-linecap="butt" stroke-opacity="1.0" stroke="rgb(0, 0, 0)" stroke-linejoin="round" d=" M 8187.116, 410.296 8185.463, 412.368 8183.710, 414.355 8181.858, 416.254 8179.916, 418.057 8177.885, 419.760 8175.771, 421.362 8173.581, 422.854 " />
            <path fill="none" stroke-width="3.0" stroke-linecap="butt" stroke-opacity="1.0" stroke="rgb(0, 0, 0)" stroke-linejoin="round" d=" M 8197.638, 383.488 8197.309, 386.119 8196.848, 388.728 8196.258, 391.313 8195.540, 393.865 8194.696, 396.378 8193.727, 398.846 8192.637, 401.262 8191.427, 403.621 " />
            <path fill="none" stroke-width="3.0" stroke-linecap="butt" stroke-opacity="1.0" stroke="rgb(0, 0, 0)" stroke-linejoin="round" d=" M 8191.427, 352.768 8192.637, 355.127 8193.727, 357.544 8194.696, 360.011 8195.540, 362.524 8196.258, 365.076 8196.848, 367.660 " />
            <path fill="none" stroke-width="3.0" stroke-linecap="butt" stroke-opacity="1.0" stroke="rgb(0, 0, 0)" stroke-linejoin="round" d=" M 8190.102, 350.472 8191.427, 352.768 " />
            <path fill="none" stroke-width="3.0" stroke-linecap="butt" stroke-opacity="1.0" stroke="rgb(0, 0, 0)" stroke-linejoin="round" d=" M 8188.664, 348.245 8190.102, 350.472 " />
            <path fill="none" stroke-width="3.0" stroke-linecap="butt" stroke-opacity="1.0" stroke="rgb(0, 0, 0)" stroke-linejoin="round" d=" M 8187.116, 346.093 8188.664, 348.245 " />
            <path fill="none" stroke-width="3.0" stroke-linecap="butt" stroke-opacity="1.0" stroke="rgb(0, 0, 0)" stroke-linejoin="round" d=" M 8185.463, 344.020 8187.116, 346.093 " />
            <path fill="none" stroke-width="3.0" stroke-linecap="butt" stroke-opacity="1.0" stroke="rgb(0, 0, 0)" stroke-linejoin="round" d=" M 8175.771, 335.027 8177.885, 336.628 8179.916, 338.332 8181.858, 340.135 8183.710, 342.033 8185.463, 344.020 " />
            <path fill="none" stroke-width="3.0" stroke-linecap="butt" stroke-opacity="1.0" stroke="rgb(0, 0, 0)" stroke-linejoin="round" d=" M 8159.136, 327.016 8161.669, 327.798 8164.160, 328.704 8166.603, 329.734 8168.991, 330.884 8171.319, 332.152 8173.581, 333.534 8175.771, 335.027 " />
            <path fill="none" stroke-width="3.0" stroke-linecap="butt" stroke-opacity="1.0" stroke="rgb(0, 0, 0)" stroke-linejoin="round" d=" M 8143.411, 325.046 8146.062, 325.046 8148.710, 325.178 8151.347, 325.442 8153.969, 325.837 8156.567, 326.362 8159.136, 327.016 " />
            <path fill="none" stroke-width="3.0" stroke-linecap="butt" stroke-opacity="1.0" stroke="rgb(0, 0, 0)" stroke-linejoin="round" d=" M 8132.906, 326.362 8135.505, 325.837 8138.126, 325.442 8140.764, 325.178 8143.411, 325.046 " />
            <path fill="none" stroke-width="3.0" stroke-linecap="butt" stroke-opacity="1.0" stroke="rgb(0, 0, 0)" stroke-linejoin="round" d=" M 8130.337, 327.016 8132.906, 326.362 " />
            <path fill="none" stroke-width="3.0" stroke-linecap="butt" stroke-opacity="1.0" stroke="rgb(0, 0, 0)" stroke-linejoin="round" d=" M 1393.867, 1589.376 1399.574, 1589.376 1409.574, 1589.376 1419.574, 1589.376 1429.574, 1589.376 1439.574, 1589.376 1449.574, 1589.376 1459.574, 1589.376 1469.574, 1589.376 1479.574, 1589.376 1489.574, 1589.376 1499.574, 1589.376 1509.574, 1589.376 1519.574, 1589.376 1529.574, 1589.376 1539.574, 1589.376 1549.574, 1589.376 1559.574, 1589.376 1569.574, 1589.376 1579.574, 1589.376 1589.574, 1589.376 1599.574, 1589.376 1609.574, 1589.376 1619.574, 1589.376 1629.574, 1589.376 1639.574, 1589.376 1649.574, 1589.376 1659.574, 1589.376 1669.574, 1589.376 1679.574, 1589.376 1689.574, 1589.376 1699.574, 1589.376 1709.574, 1589.376 1719.574, 1589.376 1729.574, 1589.376 1739.574, 1589.376 1749.574, 1589.376 1759.574, 1589.376 1769.574, 1589.376 1779.574, 1589.376 1789.574, 1589.376 1799.574, 1589.376 1809.574, 1589.376 1819.574, 1589.376 1829.574, 1589.376 1839.574, 1589.376 1849.574, 1589.376 1859.574, 1589.376 1869.574, 1589.376 1879.574, 1589.376 1889.574, 1589.376 1899.574, 1589.376 1909.574, 1589.376 1919.574, 1589.376 1929.574, 1589.376 1941.539, 1589.376 " />
            <path fill="none" stroke-width="3.0" stroke-linecap="butt" stroke-opacity="1.0" stroke="rgb(0, 0, 0)" stroke-linejoin="round" d=" M 3259.115, 1366.709 3255.283, 1357.473 3251.451, 1348.236 3247.619, 1338.999 3243.788, 1329.763 3239.956, 1320.526 3236.124, 1311.289 3232.292, 1302.053 3228.460, 1292.816 3224.628, 1283.579 3220.796, 1274.343 3216.964, 1265.106 3213.132, 1255.869 3209.300, 1246.632 3205.468, 1237.396 3201.636, 1228.159 3197.804, 1218.922 3193.972, 1209.686 3190.140, 1200.449 3186.308, 1191.212 3182.477, 1181.976 3178.645, 1172.739 3174.813, 1163.502 3170.981, 1154.266 3167.149, 1145.029 3163.317, 1135.792 3159.485, 1126.556 3155.653, 1117.319 3151.821, 1108.082 3147.989, 1098.846 3144.157, 1089.609 3140.325, 1080.372 3136.493, 1071.136 3132.661, 1061.899 3128.829, 1052.662 3124.998, 1043.426 3121.166, 1034.189 3117.333, 1024.952 3113.502, 1015.715 3109.670, 1006.479 3105.838, 997.242 3102.006, 988.005 3098.174, 978.769 3094.342, 969.532 3090.510, 960.295 3086.678, 951.059 3082.846, 941.822 3079.014, 932.585 3075.182, 923.349 3071.350, 914.112 3067.519, 904.875 3063.687, 895.639 3059.854, 886.402 3056.023, 877.165 3052.191, 867.929 3048.359, 858.692 3044.527, 849.455 3040.695, 840.219 3036.863, 830.982 3033.031, 821.745 3029.199, 812.508 3025.367, 803.272 3021.535, 794.035 3017.703, 784.798 3013.871, 775.562 3010.039, 766.325 3006.208, 757.088 3002.375, 747.852 2998.544, 738.615 2994.712, 729.378 2990.880, 720.142 2987.048, 710.905 2983.216, 701.668 2978.658, 690.682 " />
            <path fill="none" stroke-width="3.0" stroke-linecap="butt" stroke-opacity="1.0" stroke="rgb(0, 0, 0)" stroke-linejoin="round" d=" M 1167.710, 1589.376 1174.652, 1589.376 1184.652, 1589.376 1194.652, 1589.376 1204.652, 1589.376 1214.652, 1589.376 1224.652, 1589.376 1234.652, 1589.376 1244.652, 1589.376 1254.652, 1589.376 1264.652, 1589.376 1274.652, 1589.376 1284.652, 1589.376 1294.652, 1589.376 1304.652, 1589.376 1314.652, 1589.376 1324.652, 1589.376 1334.652, 1589.376 1344.652, 1589.376 1354.652, 1589.376 1364.652, 1589.376 1374.652, 1589.376 1384.652, 1589.376 1394.652, 1589.376 1404.652, 1589.376 1414.652, 1589.376 1424.652, 1589.376 1434.652, 1589.376 1444.652, 1589.376 1454.652, 1589.376 1464.652, 1589.376 1474.652, 1589.376 1484.652, 1589.376 1494.652, 1589.376 1504.652, 1589.376 1514.652, 1589.376 1524.652, 1589.376 1534.652, 1589.376 1544.652, 1589.376 1554.652, 1589.376 1564.652, 1589.376 1574.652, 1589.376 1584.652, 1589.376 1594.652, 1589.376 1604.652, 1589.376 1614.652, 1589.376 1624.652, 1589.376 1634.652, 1589.376 1644.652, 1589.376 1654.652, 1589.376 1664.652, 1589.376 1674.652, 1589.376 1684.652, 1589.376 1694.652, 1589.376 1704.652, 1589.376 1714.652, 1589.376 1724.652, 1589.376 1734.652, 1589.376 1744.652, 1589.376 1754.652, 1589.376 1764.652, 1589.376 1774.652, 1589.376 1784.652, 1589.376 1794.652, 1589.376 1804.652, 1589.376 1814.652, 1589.376 1824.652, 1589.376 1834.652, 1589.376 1844.652, 1589.376 1854.652, 1589.376 1864.652, 1589.376 1874.652, 1589.376 1884.652, 1589.376 1894.652, 1589.376 1904.652, 1589.376 1914.652, 1589.376 1924.652, 1589.376 1934.652, 1589.376 1944.652, 1589.376 1954.652, 1589.376 1964.652, 1589.376 1974.652, 1589.376 1984.652, 1589.376 1994.652, 1589.376 2004.652, 1589.376 2014.652, 1589.376 2024.652, 1589.376 2034.652, 1589.376 2044.652, 1589.376 2054.652, 1589.376 2064.652, 1589.376 2074.652, 1589.376 2084.652, 1589.376 2094.652, 1589.376 2104.652, 1589.376 2114.652, 1589.376 2124.652, 1589.376 2134.652, 1589.376 2144.652, 1589.376 2154.652, 1589.376 2164.652, 1589.376 2174.652, 1589.376 2184.652, 1589.376 2194.652, 1589.376 2204.652, 1589.376 2214.652, 1589.376 2224.652, 1589.376 2234.652, 1589.376 2244.652, 1589.376 2254.652, 1589.376 2264.652, 1589.376 2274.652, 1589.376 2284.652, 1589.376 2294.652, 1589.376 2304.652, 1589.376 2314.652, 1589.376 2324.652, 1589.376 2334.652, 1589.376 2344.652, 1589.376 2354.652, 1589.376 2364.652, 1589.376 2374.652, 1589.376 2384.652, 1589.376 2394.652, 1589.376 2404.652, 1589.376 2414.652, 1589.376 2424.652, 1589.376 2434.652, 1589.376 2444.652, 1589.376 2454.652, 1589.376 2464.652, 1589.376 2474.652, 1589.376 2484.652, 1589.376 2494.652, 1589.376 2504.652, 1589.376 2514.652, 1589.376 2524.652, 1589.376 2534.652, 1589.376 2544.652, 1589.376 2554.652, 1589.376 2564.652, 1589.376 2574.652, 1589.376 2584.652, 1589.376 2594.652, 1589.376 2604.652, 1589.376 2614.652, 1589.376 2624.652, 1589.376 2634.652, 1589.376 2644.652, 1589.376 2654.652, 1589.376 2664.652, 1589.376 2674.652, 1589.376 2684.652, 1589.376 2694.652, 1589.376 2704.652, 1589.376 2714.652, 1589.376 2724.652, 1589.376 2734.652, 1589.376 2744.652, 1589.376 2754.652, 1589.376 2764.652, 1589.376 2774.652, 1589.376 2784.652, 1589.376 2794.652, 1589.376 2804.652, 1589.376 2814.652, 1589.376 2824.652, 1589.376 2834.652, 1589.376 2844.652, 1589.376 2854.652, 1589.376 2864.652, 1589.376 2874.652, 1589.376 2884.652, 1589.376 2894.652, 1589.376 2904.652, 1589.376 2914.652, 1589.376 2924.652, 1589.376 2934.652, 1589.376 2944.652, 1589.376 2954.652, 1589.376 2964.652, 1589.376 2974.652, 1589.376 2984.652, 1589.376 2994.652, 1589.376 3004.652, 1589.376 3014.652, 1589.376 3024.652, 1589.376 3034.652, 1589.376 3044.652, 1589.376 3054.652, 1589.376 3064.652, 1589.376 3074.652, 1589.376 3084.652, 1589.376 3094.652, 1589.376 3104.652, 1589.376 3114.652, 1589.376 3124.652, 1589.376 3134.652, 1589.376 3144.652, 1589.376 3154.652, 1589.376 3164.652, 1589.376 3174.652, 1589.376 3184.652, 1589.376 3194.652, 1589.376 3204.652, 1589.376 3214.652, 1589.376 3224.652, 1589.376 3234.652, 1589.376 3244.652, 1589.376 3254.652, 1589.376 3264.652, 1589.376 3274.652, 1589.376 3295.867, 1589.376 " />
            <path fill="none" stroke-width="3.0" stroke-linecap="butt" stroke-opacity="1.0" stroke="rgb(0, 0, 0)" stroke-linejoin="round" d=" M 8109.558, 418.057 8107.615, 416.254 " />
            <path fill="none" stroke-width="3.0" stroke-linecap="butt" stroke-opacity="1.0" stroke="rgb(0, 0, 0)" stroke-linejoin="round" d=" M 8173.581, 422.854 8171.319, 424.237 " />
            <path fill="none" stroke-width="3.0" stroke-linecap="butt" stroke-opacity="1.0" stroke="rgb(0, 0, 0)" stroke-linejoin="round" d=" M 8188.664, 408.144 8187.116, 410.296 " />
            <path fill="none" stroke-width="3.0" stroke-linecap="butt" stroke-opacity="1.0" stroke="rgb(0, 0, 0)" stroke-linejoin="round" d=" M 8190.102, 405.917 8188.664, 408.144 " />
            <path fill="none" stroke-width="3.0" stroke-linecap="butt" stroke-opacity="1.0" stroke="rgb(0, 0, 0)" stroke-linejoin="round" d=" M 8191.427, 403.621 8190.102, 405.917 " />
            <path fill="none" stroke-width="3.0" stroke-linecap="butt" stroke-opacity="1.0" stroke="rgb(0, 0, 0)" stroke-linejoin="round" d=" M 8197.836, 380.845 8197.638, 383.488 " />
            <path fill="none" stroke-width="3.0" stroke-linecap="butt" stroke-opacity="1.0" stroke="rgb(0, 0, 0)" stroke-linejoin="round" d=" M 8197.901, 378.194 8197.836, 380.845 " />
        </g>
    </g>
<g id="slice-labels"><text x="578.02325" y="415.0695" text-anchor="middle" dominant-baseline="middle" font-family="Arial, sans-serif" font-size="59.072489425767394" font-weight="bold" fill="black" stroke="none" stroke-width="7.088698731092087" paint-order="stroke fill">Slice26 (Front)</text><text x="1689.87375" y="415.0695" text-anchor="middle" dominant-baseline="middle" font-family="Arial, sans-serif" font-size="59.072489425767394" font-weight="bold" fill="black" stroke="none" stroke-width="7.088698731092087" paint-order="stroke fill">Slice26 (Front)</text><text x="2801.72425" y="415.0695" text-anchor="middle" dominant-baseline="middle" font-family="Arial, sans-serif" font-size="59.072489425767394" font-weight="bold" fill="black" stroke="none" stroke-width="7.088698731092087" paint-order="stroke fill">Slice26 (Front)</text><text x="3913.5747499999998" y="415.0695" text-anchor="middle" dominant-baseline="middle" font-family="Arial, sans-serif" font-size="59.072489425767394" font-weight="bold" fill="black" stroke="none" stroke-width="7.088698731092087" paint-order="stroke fill">Slice26 (Front)</text><text x="5025.42525" y="415.0695" text-anchor="middle" dominant-baseline="middle" font-family="Arial, sans-serif" font-size="59.072489425767394" font-weight="bold" fill="black" stroke="none" stroke-width="7.088698731092087" paint-order="stroke fill">Slice26 (Front)</text><text x="6137.27575" y="415.0695" text-anchor="middle" dominant-baseline="middle" font-family="Arial, sans-serif" font-size="59.072489425767394" font-weight="bold" fill="black" stroke="none" stroke-width="7.088698731092087" paint-order="stroke fill">Slice26 (Front)</text><text x="7249.12625" y="415.0695" text-anchor="middle" dominant-baseline="middle" font-family="Arial, sans-serif" font-size="59.072489425767394" font-weight="bold" fill="black" stroke="none" stroke-width="7.088698731092087" paint-order="stroke fill">Slice26 (Front)</text><text x="8360.97675" y="415.0695" text-anchor="middle" dominant-baseline="middle" font-family="Arial, sans-serif" font-size="59.072489425767394" font-weight="bold" fill="black" stroke="none" stroke-width="7.088698731092087" paint-order="stroke fill">Slice26 (Front)</text><text x="578.02325" y="1197.9405" text-anchor="middle" dominant-baseline="middle" font-family="Arial, sans-serif" font-size="59.072489425767394" font-weight="bold" fill="black" stroke="none" stroke-width="7.088698731092087" paint-order="stroke fill">Slice26 (Front)</text><text x="1689.87375" y="1197.9405" text-anchor="middle" dominant-baseline="middle" font-family="Arial, sans-serif" font-size="59.072489425767394" font-weight="bold" fill="black" stroke="none" stroke-width="7.088698731092087" paint-order="stroke fill">Slice26 (Front)</text><text x="2801.72425" y="1197.9405" text-anchor="middle" dominant-baseline="middle" font-family="Arial, sans-serif" font-size="59.072489425767394" font-weight="bold" fill="black" stroke="none" stroke-width="7.088698731092087" paint-order="stroke fill">Slice26 (Front)</text><text x="3913.5747499999998" y="1197.9405" text-anchor="middle" dominant-baseline="middle" font-family="Arial, sans-serif" font-size="59.072489425767394" font-weight="bold" fill="black" stroke="none" stroke-width="7.088698731092087" paint-order="stroke fill">Slice26 (Front)</text><text x="5025.42525" y="1197.9405" text-anchor="middle" dominant-baseline="middle" font-family="Arial, sans-serif" font-size="59.072489425767394" font-weight="bold" fill="black" stroke="none" stroke-width="7.088698731092087" paint-order="stroke fill">Slice26 (Front)</text><text x="6137.27575" y="1197.9405" text-anchor="middle" dominant-baseline="middle" font-family="Arial, sans-serif" font-size="59.072489425767394" font-weight="bold" fill="black" stroke="none" stroke-width="7.088698731092087" paint-order="stroke fill">Slice26 (Front)</text><text x="7249.12625" y="1197.9405" text-anchor="middle" dominant-baseline="middle" font-family="Arial, sans-serif" font-size="59.072489425767394" font-weight="bold" fill="black" stroke="none" stroke-width="7.088698731092087" paint-order="stroke fill">Slice26 (Front)</text><text x="8360.97675" y="1197.9405" text-anchor="middle" dominant-baseline="middle" font-family="Arial, sans-serif" font-size="59.072489425767394" font-weight="bold" fill="black" stroke="none" stroke-width="7.088698731092087" paint-order="stroke fill">Slice26 (Front)</text></g></svg>