<?xml version='1.0' encoding='utf-8'?>
<svg xmlns="http://www.w3.org/2000/svg" xmlns:inkscape="http://www.inkscape.org/namespaces/inkscape" version="1.1" width="291.1369421482086mm" height="275.9770669937134mm" viewBox="-0.0391523375858398 0.005853692541204936 3439.077304675172 3259.999292614918" preserveAspectRatio="none">
    <g id="ViewLayer_LineSet" inkscape:groupmode="lineset" inkscape:label="ViewLayer_LineSet">
        <g inkscape:groupmode="layer" id="strokes" inkscape:label="strokes">
            <path fill="none" stroke-width="3.0" stroke-linecap="butt" stroke-opacity="1.0" stroke="rgb(0, 0, 0)" stroke-linejoin="round" d=" M 1906.894, 2811.069 1904.375, 2808.487 1901.988, 2805.781 1899.739, 2802.961 1897.633, 2800.031 1895.676, 2797.001 1893.872, 2793.877 1892.226, 2790.666 1890.742, 2787.378 1889.424, 2784.020 1888.275, 2780.600 1887.298, 2777.128 1886.496, 2773.610 1885.869, 2770.058 1885.420, 2766.478 1885.151, 2762.881 1885.061, 2759.274 1885.151, 2755.668 1885.420, 2752.070 1885.869, 2748.490 1886.496, 2744.938 1887.298, 2741.420 1888.275, 2737.949 1889.424, 2734.529 1890.742, 2731.170 1892.226, 2727.882 1893.872, 2724.672 1895.676, 2721.548 1897.633, 2718.517 1899.739, 2715.588 1901.988, 2712.767 1904.375, 2710.062 1906.894, 2707.479 1909.539, 2705.026 1912.302, 2702.707 1915.178, 2700.529 1918.159, 2698.497 1921.237, 2696.616 1924.405, 2694.890 1927.656, 2693.325 1930.980, 2691.923 1934.370, 2690.690 1937.817, 2689.627 1941.313, 2688.736 1944.849, 2688.022 1948.417, 2687.484 1952.006, 2687.125 1955.609, 2686.945 1959.217, 2686.945 1962.820, 2687.125 1966.409, 2687.484 1969.977, 2688.022 1973.513, 2688.736 1977.009, 2689.627 1980.456, 2690.690 1983.846, 2691.923 1987.170, 2693.325 1990.420, 2694.890 1993.589, 2696.616 1996.667, 2698.497 1999.648, 2700.529 2002.524, 2702.707 2005.287, 2705.026 2007.932, 2707.479 2010.451, 2710.062 2012.838, 2712.767 2015.087, 2715.588 2017.193, 2718.517 2019.150, 2721.548 2020.954, 2724.672 2022.600, 2727.882 2024.084, 2731.170 2025.401, 2734.529 2026.551, 2737.949 2027.528, 2741.420 2028.330, 2744.938 2028.957, 2748.490 2029.406, 2752.070 2029.675, 2755.668 2029.765, 2759.274 2029.675, 2762.881 2029.406, 2766.478 2028.957, 2770.058 2028.330, 2773.610 2027.528, 2777.128 2026.551, 2780.600 2025.401, 2784.020 2024.084, 2787.378 2022.600, 2790.666 2020.954, 2793.877 2019.150, 2797.001 2017.193, 2800.031 2015.087, 2802.961 2012.838, 2805.781 2010.451, 2808.487 2007.932, 2811.069 2005.287, 2813.522 2002.524, 2815.841 1999.648, 2818.020 1996.667, 2820.052 1993.589, 2821.932 1990.420, 2823.658 1987.170, 2825.223 1983.846, 2826.624 1980.456, 2827.858 1977.009, 2828.922 1973.513, 2829.813 1969.977, 2830.526 1966.409, 2831.064 1962.820, 2831.423 1959.217, 2831.604 1955.609, 2831.604 1952.006, 2831.423 1948.417, 2831.064 1944.849, 2830.526 1941.313, 2829.813 1937.817, 2828.922 1934.370, 2827.858 1930.980, 2826.624 1927.656, 2825.223 1924.405, 2823.658 1921.237, 2821.932 1918.159, 2820.052 1915.178, 2818.020 1912.302, 2815.841 1909.539, 2813.522 1906.894, 2811.069 " />
            <path fill="none" stroke-width="3.0" stroke-linecap="butt" stroke-opacity="1.0" stroke="rgb(0, 0, 0)" stroke-linejoin="round" d=" M 927.363, 23.681 917.363, 23.680 907.363, 23.680 897.363, 23.679 888.591, 23.679 878.591, 23.678 868.591, 23.677 858.591, 23.677 848.591, 23.676 838.591, 23.676 828.591, 23.675 818.591, 23.675 808.591, 23.674 798.591, 23.673 788.591, 23.673 778.591, 23.672 768.591, 23.672 758.591, 23.671 748.591, 23.671 738.591, 23.670 728.591, 23.669 718.591, 23.669 708.591, 23.668 698.591, 23.668 688.591, 23.667 678.591, 23.667 669.922, 23.666 668.052, 23.666 666.113, 23.666 " />
            <path fill="none" stroke-width="3.0" stroke-linecap="butt" stroke-opacity="1.0" stroke="rgb(0, 0, 0)" stroke-linejoin="round" d=" M 669.922, 23.666 670.577, 23.666 " />
            <path fill="none" stroke-width="3.0" stroke-linecap="butt" stroke-opacity="1.0" stroke="rgb(0, 0, 0)" stroke-linejoin="round" d=" M 3237.041, 1767.282 3237.836, 1777.250 3238.632, 1787.218 3239.427, 1797.187 3240.223, 1807.155 3241.018, 1817.123 3241.813, 1827.092 3242.609, 1837.060 3243.405, 1847.028 3244.200, 1856.996 3244.996, 1866.965 3245.791, 1876.933 3246.587, 1886.901 3247.382, 1896.870 3248.177, 1906.838 3248.973, 1916.806 3249.769, 1926.775 3250.564, 1936.743 3251.360, 1946.711 3252.155, 1956.680 3252.951, 1966.648 3253.746, 1976.616 3254.542, 1986.584 3255.337, 1996.553 3256.133, 2006.521 3256.928, 2016.489 3257.724, 2026.458 3258.519, 2036.426 3259.314, 2046.394 3260.110, 2056.363 3260.906, 2066.331 3261.701, 2076.299 3262.497, 2086.268 3263.292, 2096.236 3264.088, 2106.204 3264.883, 2116.172 3265.678, 2126.141 3266.474, 2136.109 3267.270, 2146.077 3268.065, 2156.046 3268.881, 2166.275 " />
            <path fill="none" stroke-width="3.0" stroke-linecap="butt" stroke-opacity="1.0" stroke="rgb(0, 0, 0)" stroke-linejoin="round" d=" M 1848.677, 23.734 1838.677, 23.733 1828.677, 23.732 1818.677, 23.732 1808.677, 23.731 1798.677, 23.731 1788.677, 23.730 1778.677, 23.729 1768.677, 23.729 1758.677, 23.729 1748.677, 23.728 1738.677, 23.727 1728.677, 23.727 1718.677, 23.726 1708.677, 23.726 1698.677, 23.725 1688.677, 23.724 1678.677, 23.724 1668.677, 23.723 1658.677, 23.723 1648.677, 23.722 1638.677, 23.721 1628.677, 23.721 1618.677, 23.720 1608.677, 23.720 1598.677, 23.719 1588.677, 23.719 1578.677, 23.718 1568.677, 23.718 1558.677, 23.717 1548.677, 23.716 1538.677, 23.716 1528.677, 23.715 1518.677, 23.715 1508.677, 23.714 1498.677, 23.713 1488.677, 23.713 1478.677, 23.712 1468.677, 23.712 1458.677, 23.711 1448.677, 23.710 1438.677, 23.710 1428.677, 23.709 1418.677, 23.709 1408.677, 23.708 1398.677, 23.708 1388.677, 23.707 1378.677, 23.707 1368.677, 23.706 1358.677, 23.705 1348.677, 23.705 1338.677, 23.704 1328.677, 23.704 1318.677, 23.703 1308.677, 23.702 1298.677, 23.702 1288.677, 23.701 1278.677, 23.701 1268.677, 23.700 1258.677, 23.700 1248.677, 23.699 1238.677, 23.698 1228.677, 23.698 1218.677, 23.697 1208.677, 23.697 1198.677, 23.696 1188.677, 23.696 1178.677, 23.695 1168.677, 23.694 1158.677, 23.694 1148.677, 23.693 1138.677, 23.693 1128.677, 23.692 1118.677, 23.692 1108.677, 23.691 1098.677, 23.690 1088.677, 23.690 1078.677, 23.689 1068.677, 23.689 1058.677, 23.688 1048.677, 23.688 1038.677, 23.687 1028.677, 23.686 1018.677, 23.686 1008.677, 23.685 998.677, 23.685 988.677, 23.684 978.677, 23.683 968.677, 23.683 958.677, 23.682 948.677, 23.682 932.847, 23.681 931.144, 23.681 929.518, 23.681 929.356, 23.681 927.489, 23.681 917.489, 23.680 907.489, 23.680 897.489, 23.679 888.591, 23.679 " />
            <path fill="none" stroke-width="3.0" stroke-linecap="butt" stroke-opacity="1.0" stroke="rgb(0, 0, 0)" stroke-linejoin="round" d=" M 2655.892, 23.779 2645.892, 23.779 2643.933, 23.779 2641.012, 23.779 2638.716, 23.779 " />
            <path fill="none" stroke-width="3.0" stroke-linecap="butt" stroke-opacity="1.0" stroke="rgb(0, 0, 0)" stroke-linejoin="round" d=" M 2643.933, 23.779 2645.625, 23.779 " />
            <path fill="none" stroke-width="3.0" stroke-linecap="butt" stroke-opacity="1.0" stroke="rgb(0, 0, 0)" stroke-linejoin="round" d=" M 1848.677, 23.734 1851.253, 23.734 1851.978, 23.734 " />
            <path fill="none" stroke-width="3.0" stroke-linecap="butt" stroke-opacity="1.0" stroke="rgb(0, 0, 0)" stroke-linejoin="round" d=" M 3341.951, 822.211 3337.660, 813.178 3333.369, 804.146 3329.078, 795.113 3324.788, 786.080 3320.497, 777.048 3316.206, 768.015 3311.916, 758.982 3307.625, 749.949 3303.334, 740.917 3299.043, 731.884 3296.459, 726.444 3298.449, 716.644 3300.439, 706.844 3302.429, 697.044 3304.420, 687.244 3306.410, 677.444 3308.400, 667.644 3310.390, 657.844 3312.380, 648.044 3314.371, 638.244 3316.361, 628.444 3318.351, 618.644 3320.341, 608.844 3322.331, 599.044 3324.321, 589.244 3326.312, 579.444 3328.302, 569.644 3330.292, 559.844 3332.361, 549.656 3332.127, 539.658 3331.893, 529.661 3331.659, 519.664 3331.425, 509.667 3331.191, 499.669 3330.957, 489.672 3330.722, 479.675 3330.489, 469.678 3330.254, 459.680 3330.020, 449.683 3329.786, 439.686 3329.552, 429.689 3329.318, 419.691 3329.084, 409.694 3328.850, 399.697 3328.616, 389.700 3328.382, 379.702 3328.148, 369.705 3327.914, 359.708 3327.680, 349.711 3327.446, 339.713 3327.212, 329.716 3326.978, 319.719 3326.743, 309.721 3326.652, 305.826 " />
            <path fill="none" stroke-width="3.0" stroke-linecap="butt" stroke-opacity="1.0" stroke="rgb(0, 0, 0)" stroke-linejoin="round" d=" M 3268.881, 2166.275 3268.086, 2156.307 3267.290, 2146.338 3266.495, 2136.370 3265.699, 2126.402 3264.904, 2116.433 3264.108, 2106.465 3263.313, 2096.497 3262.517, 2086.529 3261.722, 2076.560 3260.927, 2066.592 3260.131, 2056.624 3259.335, 2046.655 3258.540, 2036.687 3257.744, 2026.719 3256.949, 2016.750 3256.153, 2006.782 3255.358, 1996.814 3254.562, 1986.845 3253.767, 1976.877 3252.971, 1966.909 3252.176, 1956.941 3251.380, 1946.972 3250.585, 1937.004 3249.789, 1927.036 3248.994, 1917.067 3248.198, 1907.099 3247.403, 1897.131 3246.607, 1887.162 3245.812, 1877.194 3245.016, 1867.226 3244.221, 1857.257 3243.425, 1847.289 3242.630, 1837.321 3241.834, 1827.353 3241.039, 1817.384 3240.243, 1807.416 3239.448, 1797.448 3238.652, 1787.479 3237.857, 1777.511 3237.041, 1767.282 3240.593, 1757.934 3244.145, 1748.586 3247.697, 1739.238 3251.249, 1729.890 3254.801, 1720.542 3258.354, 1711.195 3261.906, 1701.847 3265.458, 1692.499 3269.010, 1683.151 3272.562, 1673.803 3276.114, 1664.455 3279.667, 1655.108 3283.219, 1645.760 3286.771, 1636.412 3290.323, 1627.064 3293.875, 1617.716 3297.427, 1608.368 3300.979, 1599.021 3304.531, 1589.673 3308.084, 1580.325 3311.636, 1570.977 3315.188, 1561.629 3318.740, 1552.281 3322.292, 1542.933 3325.844, 1533.586 3329.397, 1524.238 3332.949, 1514.890 3336.501, 1505.542 3340.053, 1496.194 3343.605, 1486.846 3347.157, 1477.499 3350.709, 1468.151 3354.262, 1458.803 3357.814, 1449.455 3361.366, 1440.107 3364.918, 1430.759 3368.470, 1421.411 3372.022, 1412.064 3375.575, 1402.716 3379.127, 1393.368 3382.679, 1384.020 3386.231, 1374.672 3389.783, 1365.324 3393.335, 1355.977 3396.888, 1346.629 3400.440, 1337.281 3403.992, 1327.933 3407.544, 1318.585 3411.096, 1309.237 3415.413, 1297.876 " />
            <path fill="none" stroke-width="3.0" stroke-linecap="butt" stroke-opacity="1.0" stroke="rgb(0, 0, 0)" stroke-linejoin="round" d=" M 3182.470, 2873.874 3185.112, 2864.229 3187.754, 2854.585 3190.396, 2844.940 3193.038, 2835.295 3195.679, 2825.650 3198.321, 2816.006 3200.963, 2806.361 3203.604, 2796.716 3206.246, 2787.071 3208.888, 2777.427 3211.530, 2767.782 3214.171, 2758.137 3216.813, 2748.492 3219.455, 2738.848 3222.097, 2729.203 3224.739, 2719.558 3227.380, 2709.913 3230.022, 2700.269 3232.664, 2690.624 3235.305, 2680.979 3237.947, 2671.334 3240.589, 2661.690 3243.231, 2652.045 3245.872, 2642.400 3248.514, 2632.755 3251.156, 2623.111 3253.392, 2614.949 3253.087, 2604.953 3252.782, 2594.958 3252.477, 2584.962 3252.172, 2574.967 3251.867, 2564.972 3251.562, 2554.976 3251.258, 2544.981 3250.953, 2534.986 3250.648, 2524.990 3250.343, 2514.995 3250.038, 2505.000 3249.733, 2495.004 3249.429, 2485.009 3249.124, 2475.014 3248.819, 2465.018 3248.514, 2455.023 3248.209, 2445.028 3247.905, 2435.032 3247.600, 2425.037 3247.295, 2415.042 3246.990, 2405.046 3246.685, 2395.051 3246.380, 2385.055 3246.075, 2375.060 3245.771, 2365.065 3245.466, 2355.069 3245.161, 2345.074 3244.856, 2335.079 3244.551, 2325.083 3244.387, 2319.696 3245.964, 2309.821 3247.540, 2299.946 3249.117, 2290.071 3250.693, 2280.196 3252.270, 2270.321 3253.846, 2260.446 3255.423, 2250.571 3257.000, 2240.696 3258.576, 2230.821 3260.153, 2220.946 3261.729, 2211.071 3263.306, 2201.196 3264.883, 2191.322 3266.459, 2181.447 3268.036, 2171.572 3268.881, 2166.275 " />
            <path fill="none" stroke-width="3.0" stroke-linecap="butt" stroke-opacity="1.0" stroke="rgb(0, 0, 0)" stroke-linejoin="round" d=" M 3128.717, 3236.380 3130.183, 3226.489 3131.650, 3216.597 3133.117, 3206.705 3134.584, 3196.813 3136.051, 3186.921 3137.517, 3177.029 3138.984, 3167.138 3140.451, 3157.246 3141.918, 3147.354 3143.385, 3137.462 3144.851, 3127.570 3146.318, 3117.678 3147.785, 3107.787 3149.252, 3097.895 3150.719, 3088.003 3152.185, 3078.111 3153.652, 3068.219 3155.119, 3058.327 3156.586, 3048.436 3158.052, 3038.544 3159.519, 3028.652 3160.986, 3018.760 3162.453, 3008.868 3163.920, 2998.976 3165.387, 2989.084 3166.854, 2979.193 3168.320, 2969.301 3169.787, 2959.409 3171.254, 2949.517 3172.721, 2939.625 3174.188, 2929.733 3175.654, 2919.842 3177.121, 2909.950 3178.588, 2900.058 3180.055, 2890.166 3181.521, 2880.274 3182.470, 2873.874 " />
            <path fill="none" stroke-width="3.0" stroke-linecap="butt" stroke-opacity="1.0" stroke="rgb(0, 0, 0)" stroke-linejoin="round" d=" M 740.701, 3083.439 741.991, 3093.355 743.282, 3103.271 744.572, 3113.188 745.863, 3123.104 747.153, 3133.020 748.443, 3142.937 749.734, 3152.853 751.024, 3162.770 752.315, 3172.686 753.605, 3182.602 754.896, 3192.519 756.186, 3202.435 757.476, 3212.352 758.767, 3222.268 760.057, 3232.184 760.603, 3236.380 " />
            <path fill="none" stroke-width="3.0" stroke-linecap="butt" stroke-opacity="1.0" stroke="rgb(0, 0, 0)" stroke-linejoin="round" d=" M 605.417, 2523.784 607.767, 2533.504 610.117, 2543.224 612.466, 2552.945 614.816, 2562.665 617.165, 2572.385 619.515, 2582.105 621.865, 2591.825 624.214, 2601.545 626.564, 2611.265 628.913, 2620.985 631.263, 2630.705 633.613, 2640.425 635.962, 2650.145 638.312, 2659.865 640.661, 2669.585 643.011, 2679.305 645.361, 2689.025 647.710, 2698.745 650.060, 2708.465 652.409, 2718.185 654.759, 2727.905 657.109, 2737.625 659.458, 2747.346 661.808, 2757.066 664.157, 2766.786 666.507, 2776.506 668.857, 2786.226 671.206, 2795.946 673.556, 2805.666 675.905, 2815.386 678.255, 2825.106 680.605, 2834.826 682.954, 2844.546 685.304, 2854.266 687.653, 2863.986 690.003, 2873.706 692.353, 2883.426 694.702, 2893.146 697.052, 2902.866 699.401, 2912.586 701.751, 2922.306 704.101, 2932.027 706.450, 2941.747 708.800, 2951.467 711.149, 2961.187 713.499, 2970.907 715.849, 2980.627 718.198, 2990.347 720.548, 3000.067 722.897, 3009.787 725.247, 3019.507 727.596, 3029.227 729.946, 3038.947 732.296, 3048.667 734.645, 3058.387 736.995, 3068.107 739.344, 3077.827 740.701, 3083.439 " />
            <path fill="none" stroke-width="3.0" stroke-linecap="butt" stroke-opacity="1.0" stroke="rgb(0, 0, 0)" stroke-linejoin="round" d=" M 419.933, 1577.236 425.934, 1585.235 431.936, 1593.234 437.938, 1601.232 443.939, 1609.231 449.941, 1617.230 455.942, 1625.229 461.944, 1633.227 467.946, 1641.226 473.947, 1649.225 479.949, 1657.224 485.951, 1665.223 488.654, 1668.825 490.520, 1678.650 492.387, 1688.474 494.254, 1698.298 496.120, 1708.122 497.987, 1717.947 499.854, 1727.771 501.720, 1737.595 503.587, 1747.419 505.454, 1757.243 507.320, 1767.068 509.187, 1776.892 511.053, 1786.716 512.920, 1796.540 514.787, 1806.365 516.653, 1816.189 518.520, 1826.013 520.387, 1835.837 522.253, 1845.662 524.120, 1855.486 525.987, 1865.310 527.853, 1875.134 529.720, 1884.958 531.586, 1894.783 533.453, 1904.607 535.320, 1914.431 537.154, 1924.083 537.040, 1934.082 536.927, 1944.081 536.814, 1954.081 536.700, 1964.080 536.587, 1974.079 536.474, 1984.079 536.360, 1994.078 536.247, 2004.078 536.134, 2014.077 536.021, 2024.076 535.907, 2034.076 535.794, 2044.075 535.681, 2054.074 535.567, 2064.074 535.454, 2074.073 535.341, 2084.072 535.227, 2094.072 535.114, 2104.071 535.001, 2114.070 534.910, 2122.081 536.639, 2131.930 538.368, 2141.780 540.096, 2151.629 541.825, 2161.479 543.554, 2171.328 545.283, 2181.178 547.011, 2191.027 548.740, 2200.876 550.469, 2210.726 552.198, 2220.575 553.927, 2230.425 555.655, 2240.274 557.384, 2250.124 559.113, 2259.973 560.842, 2269.823 562.571, 2279.672 564.299, 2289.521 566.028, 2299.371 567.757, 2309.220 569.486, 2319.070 571.214, 2328.919 572.943, 2338.769 574.672, 2348.618 576.401, 2358.467 578.130, 2368.317 579.858, 2378.166 581.587, 2388.016 583.316, 2397.865 585.045, 2407.715 586.773, 2417.564 588.502, 2427.413 590.231, 2437.263 591.960, 2447.112 593.689, 2456.962 595.417, 2466.811 597.146, 2476.661 598.875, 2486.510 600.604, 2496.359 602.333, 2506.209 604.061, 2516.058 605.417, 2523.784 " />
            <path fill="none" stroke-width="3.0" stroke-linecap="butt" stroke-opacity="1.0" stroke="rgb(0, 0, 0)" stroke-linejoin="round" d=" M 155.468, 706.499 155.273, 716.497 155.078, 726.495 154.882, 736.493 154.687, 746.491 154.492, 756.490 154.297, 766.488 154.102, 776.486 153.906, 786.484 153.711, 796.482 153.516, 806.480 153.321, 816.478 153.126, 826.476 152.930, 836.474 152.735, 846.472 152.540, 856.470 152.345, 866.469 152.150, 876.467 151.954, 886.465 151.843, 892.186 155.482, 901.500 159.121, 910.814 162.760, 920.129 166.399, 929.443 170.038, 938.758 173.677, 948.072 177.316, 957.386 180.955, 966.701 184.594, 976.015 188.233, 985.329 191.872, 994.644 195.511, 1003.958 199.150, 1013.272 202.789, 1022.587 206.428, 1031.901 210.067, 1041.216 213.707, 1050.530 217.346, 1059.844 220.985, 1069.159 224.624, 1078.473 228.263, 1087.787 231.902, 1097.102 235.541, 1106.416 239.180, 1115.730 242.819, 1125.045 246.458, 1134.359 250.097, 1143.674 253.736, 1152.988 257.375, 1162.302 260.463, 1170.206 265.639, 1178.761 270.816, 1187.317 275.993, 1195.873 281.169, 1204.429 286.346, 1212.985 291.523, 1221.541 296.699, 1230.096 301.876, 1238.652 307.052, 1247.208 312.229, 1255.764 317.406, 1264.320 322.582, 1272.876 327.759, 1281.432 332.935, 1289.987 338.112, 1298.543 343.289, 1307.099 348.465, 1315.655 353.642, 1324.211 358.819, 1332.767 363.995, 1341.323 369.172, 1349.878 374.348, 1358.434 379.525, 1366.990 384.702, 1375.546 389.878, 1384.102 395.055, 1392.658 400.231, 1401.214 405.408, 1409.769 410.585, 1418.325 415.761, 1426.881 417.509, 1429.769 417.673, 1439.768 417.837, 1449.766 418.002, 1459.765 418.166, 1469.764 418.330, 1479.762 418.495, 1489.761 418.659, 1499.760 418.823, 1509.758 418.988, 1519.757 419.152, 1529.755 419.317, 1539.754 419.481, 1549.753 419.645, 1559.751 419.810, 1569.750 419.933, 1577.236 " />
            <path fill="none" stroke-width="3.0" stroke-linecap="butt" stroke-opacity="1.0" stroke="rgb(0, 0, 0)" stroke-linejoin="round" d=" M 61.355, 23.631 61.486, 33.630 61.618, 43.629 61.750, 53.628 61.881, 63.627 62.013, 73.626 62.144, 83.626 62.276, 93.625 62.408, 103.624 62.539, 113.623 62.671, 123.622 62.802, 133.621 62.934, 143.620 63.066, 153.620 63.167, 161.304 60.500, 170.942 57.833, 180.580 55.166, 190.217 52.499, 199.855 49.832, 209.493 47.165, 219.131 44.498, 228.769 41.831, 238.406 39.164, 248.044 36.497, 257.682 33.830, 267.320 31.163, 276.958 28.496, 286.595 25.829, 296.233 23.586, 304.338 26.702, 313.840 29.818, 323.342 32.934, 332.844 36.051, 342.346 39.167, 351.849 42.283, 361.351 45.399, 370.853 48.515, 380.355 51.631, 389.857 54.747, 399.359 57.863, 408.861 60.979, 418.363 64.095, 427.865 67.211, 437.368 70.327, 446.870 73.443, 456.372 76.559, 465.874 79.675, 475.376 82.791, 484.878 85.907, 494.380 89.023, 503.882 92.140, 513.385 95.256, 522.887 98.372, 532.389 101.488, 541.891 104.604, 551.393 107.720, 560.895 110.836, 570.397 113.952, 579.899 117.068, 589.401 120.184, 598.904 123.300, 608.406 126.416, 617.908 129.532, 627.410 132.648, 636.912 135.764, 646.414 138.880, 655.916 141.996, 665.418 145.112, 674.920 148.228, 684.423 151.345, 693.925 155.468, 706.499 " />
            <path fill="none" stroke-width="3.0" stroke-linecap="butt" stroke-opacity="1.0" stroke="rgb(0, 0, 0)" stroke-linejoin="round" d=" M 760.603, 3236.380 770.603, 3236.380 780.603, 3236.380 790.603, 3236.380 800.603, 3236.380 810.603, 3236.380 820.603, 3236.380 830.603, 3236.380 840.603, 3236.380 850.603, 3236.380 860.603, 3236.380 870.603, 3236.380 880.603, 3236.380 890.603, 3236.380 900.603, 3236.380 910.603, 3236.380 920.603, 3236.380 930.603, 3236.380 940.603, 3236.380 950.603, 3236.380 960.603, 3236.380 970.603, 3236.380 980.603, 3236.380 990.603, 3236.380 1000.603, 3236.380 1010.603, 3236.380 1020.603, 3236.380 1030.603, 3236.380 1040.603, 3236.380 1050.603, 3236.380 1060.603, 3236.380 1070.603, 3236.380 1080.603, 3236.380 1090.603, 3236.380 1100.603, 3236.380 1105.439, 3236.380 1108.767, 3236.380 1112.119, 3236.380 1115.483, 3236.380 1118.847, 3236.380 1122.201, 3236.380 1125.532, 3236.380 1128.827, 3236.380 1132.074, 3236.380 1135.260, 3236.380 1138.373, 3236.380 1141.400, 3236.380 1144.328, 3236.380 1147.144, 3236.380 1149.837, 3236.380 1159.837, 3236.380 1169.837, 3236.380 1179.837, 3236.380 1189.837, 3236.380 1199.837, 3236.380 1209.837, 3236.380 1219.837, 3236.380 1229.837, 3236.380 1239.837, 3236.380 1249.837, 3236.380 1259.837, 3236.380 1269.837, 3236.380 1279.837, 3236.380 1289.837, 3236.380 1299.837, 3236.380 1309.837, 3236.380 1319.837, 3236.380 1329.837, 3236.380 1339.837, 3236.380 1349.837, 3236.380 1359.837, 3236.380 1369.837, 3236.380 1379.837, 3236.380 1389.837, 3236.380 1399.837, 3236.380 1409.837, 3236.380 1419.837, 3236.380 1429.837, 3236.380 1439.837, 3236.380 1449.837, 3236.380 1459.837, 3236.380 1469.837, 3236.380 1479.837, 3236.380 1489.837, 3236.380 1499.837, 3236.380 1509.837, 3236.380 1519.837, 3236.380 1529.837, 3236.380 1539.837, 3236.380 1549.837, 3236.380 1559.837, 3236.380 1569.837, 3236.380 1579.837, 3236.380 1589.837, 3236.380 1599.837, 3236.380 1609.837, 3236.380 1616.249, 3236.380 1620.832, 3236.380 1625.308, 3236.380 1629.661, 3236.380 1633.878, 3236.380 1637.948, 3236.380 1647.948, 3236.380 1657.948, 3236.380 1667.948, 3236.380 1677.948, 3236.380 1687.948, 3236.380 1697.948, 3236.380 1707.948, 3236.380 1717.948, 3236.380 1727.948, 3236.380 1737.948, 3236.380 1747.948, 3236.380 1757.948, 3236.380 1767.948, 3236.380 1777.948, 3236.380 1787.948, 3236.380 1797.948, 3236.380 1807.948, 3236.380 1817.948, 3236.380 1827.948, 3236.380 1837.948, 3236.380 1847.948, 3236.380 1857.948, 3236.380 1867.948, 3236.380 1877.948, 3236.380 1887.948, 3236.380 1897.948, 3236.380 1907.948, 3236.380 1917.948, 3236.380 1927.948, 3236.380 1937.948, 3236.380 1947.948, 3236.380 1957.948, 3236.380 1967.948, 3236.380 1977.948, 3236.380 1987.948, 3236.380 1997.948, 3236.380 2007.948, 3236.380 2017.948, 3236.380 2027.948, 3236.380 2037.948, 3236.380 2047.948, 3236.380 2057.948, 3236.380 2067.948, 3236.380 2077.948, 3236.380 2087.948, 3236.380 2097.948, 3236.380 2107.948, 3236.380 2117.948, 3236.380 2127.948, 3236.380 2137.948, 3236.380 2147.948, 3236.380 2157.948, 3236.380 2167.948, 3236.380 2177.948, 3236.380 2187.948, 3236.380 2197.948, 3236.380 2207.948, 3236.380 2217.948, 3236.380 2227.948, 3236.380 2237.948, 3236.380 2247.948, 3236.380 2257.948, 3236.380 2267.948, 3236.380 2277.948, 3236.380 2287.948, 3236.380 2299.638, 3236.380 2303.350, 3236.380 2313.350, 3236.380 2323.350, 3236.380 2333.350, 3236.380 2343.350, 3236.380 2349.958, 3236.380 2353.626, 3236.380 2357.461, 3236.380 2361.449, 3236.380 2365.578, 3236.380 2369.834, 3236.380 2374.201, 3236.380 2384.201, 3236.380 2394.201, 3236.380 2404.201, 3236.380 2414.201, 3236.380 2424.201, 3236.380 2434.201, 3236.380 2444.201, 3236.380 2454.201, 3236.380 2464.201, 3236.380 2474.201, 3236.380 2484.201, 3236.380 2494.201, 3236.380 2504.201, 3236.380 2514.201, 3236.380 2524.201, 3236.380 2534.201, 3236.380 2544.201, 3236.380 2554.201, 3236.380 2564.201, 3236.380 2566.237, 3236.380 2570.063, 3236.380 2574.005, 3236.380 2578.050, 3236.380 2582.180, 3236.380 2592.180, 3236.380 2602.180, 3236.380 2612.180, 3236.380 2622.180, 3236.380 2632.180, 3236.380 2642.180, 3236.380 2652.180, 3236.380 2662.180, 3236.380 2672.180, 3236.380 2682.180, 3236.380 2692.180, 3236.380 2702.180, 3236.380 2712.180, 3236.380 2722.180, 3236.380 2732.180, 3236.380 2742.180, 3236.380 2752.180, 3236.380 2762.180, 3236.380 2772.180, 3236.380 2782.180, 3236.380 2792.180, 3236.380 2800.444, 3236.380 2803.322, 3236.380 2806.255, 3236.380 2809.232, 3236.380 2812.241, 3236.380 2815.271, 3236.380 2818.310, 3236.380 2821.348, 3236.380 2824.375, 3236.380 2827.380, 3236.380 2830.355, 3236.380 2833.290, 3236.380 2836.177, 3236.380 2839.009, 3236.380 2849.009, 3236.380 2859.009, 3236.380 2869.009, 3236.380 2879.009, 3236.380 2889.009, 3236.380 2899.009, 3236.380 2909.009, 3236.380 2919.009, 3236.380 2929.009, 3236.380 2939.009, 3236.380 2949.009, 3236.380 2959.009, 3236.380 2969.009, 3236.380 2979.009, 3236.380 2989.009, 3236.380 2999.009, 3236.380 3009.009, 3236.380 3019.009, 3236.380 3029.009, 3236.380 3039.009, 3236.380 3049.009, 3236.380 3059.009, 3236.380 3069.009, 3236.380 3079.009, 3236.380 3089.009, 3236.380 3099.009, 3236.380 3109.009, 3236.380 3119.009, 3236.380 3128.717, 3236.380 " />
            <path fill="none" stroke-width="3.0" stroke-linecap="butt" stroke-opacity="1.0" stroke="rgb(0, 0, 0)" stroke-linejoin="round" d=" M 1163.207, 546.381 1160.586, 545.986 1157.988, 545.460 1155.420, 544.806 1152.887, 544.025 1150.397, 543.118 1147.954, 542.089 1145.566, 540.939 1143.238, 539.671 1140.977, 538.289 1138.787, 536.796 1136.674, 535.196 1134.644, 533.493 1132.701, 531.690 1130.850, 529.793 1129.097, 527.804 1127.444, 525.732 1125.897, 523.581 " />
            <path fill="none" stroke-width="3.0" stroke-linecap="butt" stroke-opacity="1.0" stroke="rgb(0, 0, 0)" stroke-linejoin="round" d=" M 1125.897, 523.581 1124.459, 521.354 1123.133, 519.058 1121.924, 516.700 1120.834, 514.284 1119.866, 511.817 1119.022, 509.305 1118.304, 506.754 1117.714, 504.170 1117.254, 501.559 1116.924, 498.929 1116.726, 496.286 1116.660, 493.637 1116.726, 490.987 1116.924, 488.344 1117.254, 485.714 1117.714, 483.104 1118.304, 480.520 1119.022, 477.968 1119.866, 475.456 1120.834, 472.989 1121.924, 470.572 1123.133, 468.214 1124.459, 465.918 1125.897, 463.692 " />
            <path fill="none" stroke-width="3.0" stroke-linecap="butt" stroke-opacity="1.0" stroke="rgb(0, 0, 0)" stroke-linejoin="round" d=" M 1198.657, 538.289 1196.395, 539.671 1194.067, 540.939 1191.679, 542.089 1189.237, 543.118 1186.746, 544.025 1184.214, 544.806 1181.645, 545.460 1179.047, 545.986 1176.427, 546.381 1173.789, 546.644 1171.142, 546.777 1168.492, 546.777 1165.844, 546.644 1163.207, 546.381 " />
            <path fill="none" stroke-width="3.0" stroke-linecap="butt" stroke-opacity="1.0" stroke="rgb(0, 0, 0)" stroke-linejoin="round" d=" M 1125.897, 463.692 1127.444, 461.540 " />
            <path fill="none" stroke-width="3.0" stroke-linecap="butt" stroke-opacity="1.0" stroke="rgb(0, 0, 0)" stroke-linejoin="round" d=" M 1127.444, 461.540 1129.097, 459.468 1130.850, 457.480 1132.701, 455.583 1134.644, 453.781 1136.674, 452.077 1138.787, 450.476 1140.977, 448.984 " />
            <path fill="none" stroke-width="3.0" stroke-linecap="butt" stroke-opacity="1.0" stroke="rgb(0, 0, 0)" stroke-linejoin="round" d=" M 258.990, 23.643 248.990, 23.642 238.990, 23.642 228.990, 23.641 218.990, 23.640 208.990, 23.640 198.990, 23.639 188.990, 23.639 178.990, 23.638 168.990, 23.637 158.990, 23.637 148.990, 23.636 138.990, 23.635 128.990, 23.635 118.990, 23.634 108.990, 23.634 98.990, 23.633 88.990, 23.633 78.990, 23.632 68.990, 23.631 61.355, 23.631 " />
            <path fill="none" stroke-width="3.0" stroke-linecap="butt" stroke-opacity="1.0" stroke="rgb(0, 0, 0)" stroke-linejoin="round" d=" M 262.227, 23.695 261.197, 23.695 260.151, 23.695 " />
            <path fill="none" stroke-width="3.0" stroke-linecap="butt" stroke-opacity="1.0" stroke="rgb(0, 0, 0)" stroke-linejoin="round" d=" M 266.140, 23.694 265.200, 23.694 264.232, 23.695 263.240, 23.695 262.227, 23.695 " />
            <path fill="none" stroke-width="3.0" stroke-linecap="butt" stroke-opacity="1.0" stroke="rgb(0, 0, 0)" stroke-linejoin="round" d=" M 1140.977, 448.984 1143.238, 447.602 1145.566, 446.333 1147.954, 445.184 1150.397, 444.154 1152.887, 443.248 1155.420, 442.467 1157.988, 441.812 1160.586, 441.287 1163.207, 440.892 1165.844, 440.628 1168.492, 440.497 1171.142, 440.497 1173.789, 440.628 " />
            <path fill="none" stroke-width="3.0" stroke-linecap="butt" stroke-opacity="1.0" stroke="rgb(0, 0, 0)" stroke-linejoin="round" d=" M 666.113, 23.666 656.113, 23.667 646.113, 23.667 636.113, 23.667 626.113, 23.667 616.113, 23.668 606.113, 23.668 596.113, 23.668 586.113, 23.669 576.113, 23.669 566.113, 23.670 556.113, 23.670 546.113, 23.670 536.113, 23.671 526.113, 23.671 516.113, 23.671 506.113, 23.672 496.113, 23.672 486.113, 23.673 476.113, 23.673 466.113, 23.673 456.113, 23.674 446.113, 23.674 436.113, 23.674 426.113, 23.675 416.113, 23.675 406.113, 23.675 396.113, 23.676 386.113, 23.676 376.113, 23.677 366.113, 23.677 356.113, 23.677 346.113, 23.677 336.113, 23.678 326.113, 23.678 316.113, 23.679 306.113, 23.679 296.113, 23.679 286.113, 23.680 276.113, 23.680 269.568, 23.680 268.764, 23.694 267.925, 23.694 267.049, 23.694 " />
            <path fill="none" stroke-width="3.0" stroke-linecap="butt" stroke-opacity="1.0" stroke="rgb(0, 0, 0)" stroke-linejoin="round" d=" M 676.607, 23.743 670.012, 23.743 668.142, 23.743 667.322, 23.712 " />
            <path fill="none" stroke-width="3.0" stroke-linecap="butt" stroke-opacity="1.0" stroke="rgb(0, 0, 0)" stroke-linejoin="round" d=" M 736.702, 23.715 726.702, 23.716 716.702, 23.718 706.702, 23.720 696.702, 23.722 686.702, 23.723 679.520, 23.725 678.154, 23.743 676.704, 23.743 676.607, 23.743 675.159, 23.743 673.527, 23.743 671.809, 23.743 670.012, 23.743 " />
            <path fill="none" stroke-width="3.0" stroke-linecap="butt" stroke-opacity="1.0" stroke="rgb(0, 0, 0)" stroke-linejoin="round" d=" M 1173.789, 440.628 1176.427, 440.892 1179.047, 441.287 1181.645, 441.812 " />
            <path fill="none" stroke-width="3.0" stroke-linecap="butt" stroke-opacity="1.0" stroke="rgb(0, 0, 0)" stroke-linejoin="round" d=" M 1709.927, 840.745 1707.408, 838.163 1705.021, 835.458 1702.772, 832.638 1700.666, 829.708 1698.708, 826.678 1696.905, 823.553 1695.259, 820.343 1693.775, 817.055 1692.457, 813.697 1691.308, 810.277 1690.331, 806.804 1689.528, 803.287 1688.902, 799.734 1688.453, 796.155 1688.184, 792.557 1688.094, 788.951 1688.184, 785.344 1688.453, 781.747 1688.902, 778.167 1689.528, 774.614 1690.331, 771.097 1691.308, 767.624 1692.457, 764.205 1693.775, 760.847 1695.259, 757.559 1696.905, 754.349 1698.708, 751.225 1700.666, 748.194 1702.772, 745.264 1705.021, 742.444 1707.408, 739.739 1709.927, 737.156 1712.571, 734.703 1715.335, 732.383 1718.211, 730.206 1721.191, 728.173 1724.269, 726.292 1727.438, 724.566 1730.688, 723.001 1734.013, 721.600 1737.403, 720.366 1740.850, 719.303 1744.346, 718.413 1747.882, 717.698 1751.449, 717.161 1755.039, 716.801 1758.642, 716.622 1762.250, 716.622 1765.853, 716.801 1769.443, 717.161 1773.009, 717.698 1776.545, 718.413 1780.041, 719.303 1783.489, 720.366 1786.879, 721.600 1790.203, 723.001 1793.453, 724.566 1796.622, 726.292 1799.700, 728.173 1802.681, 730.206 1805.556, 732.383 1808.320, 734.703 1810.964, 737.156 1813.484, 739.739 1815.871, 742.444 1818.120, 745.264 1820.226, 748.194 1822.183, 751.225 1823.987, 754.349 1825.633, 757.559 1827.116, 760.847 1828.434, 764.205 1829.584, 767.624 1830.561, 771.097 1831.363, 774.614 1831.990, 778.167 1832.438, 781.747 1832.708, 785.344 1832.798, 788.951 1832.708, 792.557 1832.438, 796.155 1831.990, 799.734 1831.363, 803.287 1830.561, 806.804 1829.584, 810.277 1828.434, 813.697 1827.116, 817.055 1825.633, 820.343 1823.987, 823.553 1822.183, 826.678 1820.226, 829.708 1818.120, 832.638 1815.871, 835.458 1813.484, 838.163 1810.964, 840.745 1808.320, 843.199 1805.556, 845.518 1802.681, 847.696 1799.700, 849.729 1796.622, 851.609 1793.453, 853.335 1790.203, 854.900 1786.879, 856.302 1783.489, 857.535 1780.041, 858.599 1776.545, 859.489 1773.009, 860.203 1769.443, 860.741 1765.853, 861.100 1762.250, 861.281 1758.642, 861.281 1755.039, 861.100 1751.449, 860.741 1747.882, 860.203 1744.346, 859.489 1740.850, 858.599 1737.403, 857.535 1734.013, 856.302 1730.688, 854.900 1727.438, 853.335 1724.269, 851.609 1721.191, 849.729 1718.211, 847.696 1715.335, 845.518 1712.571, 843.199 1709.927, 840.745 " />
            <path fill="none" stroke-width="3.0" stroke-linecap="butt" stroke-opacity="1.0" stroke="rgb(0, 0, 0)" stroke-linejoin="round" d=" M 1215.175, 521.354 1213.737, 523.581 1212.190, 525.732 1210.537, 527.804 1208.783, 529.793 1206.933, 531.690 1204.990, 533.493 1202.959, 535.196 1200.847, 536.796 1198.657, 538.289 " />
            <path fill="none" stroke-width="3.0" stroke-linecap="butt" stroke-opacity="1.0" stroke="rgb(0, 0, 0)" stroke-linejoin="round" d=" M 1221.920, 504.170 1221.330, 506.754 1220.612, 509.305 1219.768, 511.817 1218.800, 514.284 " />
            <path fill="none" stroke-width="3.0" stroke-linecap="butt" stroke-opacity="1.0" stroke="rgb(0, 0, 0)" stroke-linejoin="round" d=" M 1222.973, 493.637 1222.907, 496.286 1222.709, 498.929 1222.379, 501.559 " />
            <path fill="none" stroke-width="3.0" stroke-linecap="butt" stroke-opacity="1.0" stroke="rgb(0, 0, 0)" stroke-linejoin="round" d=" M 1210.537, 459.468 1212.190, 461.540 1213.737, 463.692 1215.175, 465.918 1216.500, 468.214 1217.709, 470.572 1218.800, 472.989 1219.768, 475.456 1220.612, 477.968 1221.330, 480.520 1221.920, 483.104 1222.379, 485.714 1222.709, 488.344 1222.907, 490.987 1222.973, 493.637 " />
            <path fill="none" stroke-width="3.0" stroke-linecap="butt" stroke-opacity="1.0" stroke="rgb(0, 0, 0)" stroke-linejoin="round" d=" M 1208.783, 457.480 1210.537, 459.468 " />
            <path fill="none" stroke-width="3.0" stroke-linecap="butt" stroke-opacity="1.0" stroke="rgb(0, 0, 0)" stroke-linejoin="round" d=" M 1181.645, 441.812 1184.214, 442.467 1186.746, 443.248 1189.237, 444.154 1191.679, 445.184 1194.067, 446.333 1196.395, 447.602 1198.657, 448.984 1200.847, 450.476 1202.959, 452.077 1204.990, 453.781 1206.933, 455.583 1208.783, 457.480 " />
            <path fill="none" stroke-width="3.0" stroke-linecap="butt" stroke-opacity="1.0" stroke="rgb(0, 0, 0)" stroke-linejoin="round" d=" M 1848.677, 23.734 1845.921, 23.734 1844.274, 23.734 1843.859, 23.734 1841.067, 23.733 1836.162, 23.733 1826.162, 23.733 1816.162, 23.733 1806.162, 23.733 1796.162, 23.733 1786.162, 23.733 1776.162, 23.733 1766.162, 23.732 1756.162, 23.732 1746.162, 23.732 1736.162, 23.732 1726.162, 23.732 1716.162, 23.732 1706.162, 23.732 1696.162, 23.731 1686.162, 23.731 1676.162, 23.731 1666.162, 23.731 1656.162, 23.731 1646.162, 23.731 1636.162, 23.731 1626.162, 23.730 1616.162, 23.730 1606.162, 23.730 1596.162, 23.730 1586.162, 23.730 1576.162, 23.730 1566.162, 23.730 1556.162, 23.729 1546.162, 23.729 1536.162, 23.729 1526.162, 23.729 1516.162, 23.729 1506.162, 23.729 1496.162, 23.729 1486.162, 23.729 1476.162, 23.729 1466.162, 23.728 1456.162, 23.728 1446.162, 23.728 1436.162, 23.728 1426.162, 23.728 1416.162, 23.728 1406.162, 23.728 1396.162, 23.727 1386.162, 23.727 1376.162, 23.727 1366.162, 23.727 1356.162, 23.727 1346.162, 23.727 1336.162, 23.726 1326.162, 23.726 1316.162, 23.726 1306.162, 23.726 1296.162, 23.726 1286.162, 23.726 1276.162, 23.726 1266.162, 23.725 1256.162, 23.725 1246.162, 23.725 1236.162, 23.725 1226.162, 23.725 1216.162, 23.725 1206.162, 23.725 1196.162, 23.724 1186.162, 23.724 1176.162, 23.724 1166.162, 23.724 1156.162, 23.724 1146.162, 23.724 1136.162, 23.724 1126.162, 23.723 1116.162, 23.723 1106.162, 23.723 1096.162, 23.723 1086.162, 23.723 1076.162, 23.723 1066.162, 23.723 1056.162, 23.722 1046.162, 23.722 1036.162, 23.722 1026.162, 23.722 1016.162, 23.722 1006.162, 23.722 996.162, 23.722 986.162, 23.721 976.162, 23.721 966.162, 23.721 956.162, 23.721 946.162, 23.721 932.958, 23.721 932.912, 23.722 " />
            <path fill="none" stroke-width="3.0" stroke-linecap="butt" stroke-opacity="1.0" stroke="rgb(0, 0, 0)" stroke-linejoin="round" d=" M 932.912, 23.722 932.118, 23.750 932.106, 23.751 931.205, 23.782 929.417, 23.782 " />
            <path fill="none" stroke-width="3.0" stroke-linecap="butt" stroke-opacity="1.0" stroke="rgb(0, 0, 0)" stroke-linejoin="round" d=" M 929.417, 23.782 928.815, 23.750 928.807, 23.750 928.276, 23.722 " />
            <path fill="none" stroke-width="3.0" stroke-linecap="butt" stroke-opacity="1.0" stroke="rgb(0, 0, 0)" stroke-linejoin="round" d=" M 1844.274, 23.734 1834.274, 23.733 1824.274, 23.732 1814.274, 23.732 1804.274, 23.731 1794.274, 23.731 1784.274, 23.730 1774.274, 23.729 1764.274, 23.729 1754.274, 23.728 1744.274, 23.728 1734.274, 23.727 1724.274, 23.727 1714.274, 23.726 1704.274, 23.726 1694.274, 23.725 1684.274, 23.724 1674.274, 23.724 1664.274, 23.723 1654.274, 23.723 1644.274, 23.722 1634.274, 23.721 1624.274, 23.721 1614.274, 23.720 1604.274, 23.720 1594.274, 23.719 1584.274, 23.719 1574.274, 23.718 1564.274, 23.718 1554.274, 23.717 1544.274, 23.716 1534.274, 23.716 1524.274, 23.715 1514.274, 23.715 1504.274, 23.714 1494.274, 23.713 1484.274, 23.713 1474.274, 23.712 1464.274, 23.712 1454.274, 23.711 1444.274, 23.710 1434.274, 23.710 1424.274, 23.709 1414.274, 23.709 1404.274, 23.708 1394.274, 23.708 1384.274, 23.707 1374.274, 23.707 1364.274, 23.706 1354.274, 23.705 1344.274, 23.705 1334.274, 23.704 1324.274, 23.704 1314.274, 23.703 1304.274, 23.702 1294.274, 23.702 1284.274, 23.701 1274.274, 23.701 1264.274, 23.700 1254.274, 23.700 1244.274, 23.699 1234.274, 23.698 1224.274, 23.698 1214.274, 23.697 1204.274, 23.697 1194.274, 23.696 1184.274, 23.696 1174.274, 23.695 1164.274, 23.694 1154.274, 23.694 1144.274, 23.693 1134.274, 23.693 1124.274, 23.692 1114.274, 23.692 1104.274, 23.691 1094.274, 23.690 1084.274, 23.690 1074.274, 23.689 1064.274, 23.689 1054.274, 23.688 1044.274, 23.688 1034.274, 23.687 1024.274, 23.686 1014.274, 23.686 1004.274, 23.685 994.274, 23.685 984.274, 23.684 974.274, 23.684 964.274, 23.683 954.274, 23.682 944.274, 23.682 927.489, 23.681 927.363, 23.681 926.521, 23.681 925.046, 23.681 915.046, 23.683 905.046, 23.685 895.046, 23.687 885.046, 23.688 875.046, 23.690 865.046, 23.692 855.046, 23.694 845.046, 23.695 835.046, 23.697 825.046, 23.699 815.046, 23.701 805.046, 23.702 795.046, 23.704 785.046, 23.706 775.046, 23.708 765.046, 23.709 755.046, 23.711 745.046, 23.713 736.702, 23.715 " />
            <path fill="none" stroke-width="3.0" stroke-linecap="butt" stroke-opacity="1.0" stroke="rgb(0, 0, 0)" stroke-linejoin="round" d=" M 3171.485, 23.809 3171.346, 23.809 3170.754, 23.809 3170.172, 23.809 3160.172, 23.808 3150.172, 23.808 3140.172, 23.807 3130.172, 23.807 3120.172, 23.806 3110.172, 23.805 3100.172, 23.805 3090.172, 23.804 3080.172, 23.804 3070.172, 23.803 3060.172, 23.803 3050.172, 23.802 3040.172, 23.802 3030.172, 23.801 3020.172, 23.800 3010.172, 23.800 3000.172, 23.799 2990.172, 23.799 2980.172, 23.798 2970.172, 23.798 2960.172, 23.797 2950.172, 23.796 2940.172, 23.796 2930.172, 23.795 2920.172, 23.795 2910.172, 23.794 2900.172, 23.793 2890.172, 23.793 2880.172, 23.792 2870.172, 23.792 2860.172, 23.791 2850.172, 23.791 2840.172, 23.790 2830.172, 23.790 2820.172, 23.789 2810.172, 23.788 2800.172, 23.788 2790.172, 23.787 2780.172, 23.787 2770.172, 23.786 2760.172, 23.785 2750.172, 23.785 2740.172, 23.784 2731.235, 23.784 2728.796, 23.784 2718.796, 23.783 2711.539, 23.783 2701.539, 23.782 2691.539, 23.781 2681.539, 23.781 2671.539, 23.780 2666.678, 23.780 2664.557, 23.780 2662.963, 23.780 2662.471, 23.780 2661.494, 23.780 " />
            <path fill="none" stroke-width="3.0" stroke-linecap="butt" stroke-opacity="1.0" stroke="rgb(0, 0, 0)" stroke-linejoin="round" d=" M 3301.684, 23.817 3291.684, 23.817 3281.684, 23.816 3271.684, 23.816 3261.684, 23.815 3251.684, 23.814 3241.684, 23.814 3231.684, 23.813 3221.684, 23.812 3211.684, 23.812 3201.684, 23.811 3191.684, 23.811 3181.684, 23.810 3173.798, 23.810 3173.177, 23.810 3172.561, 23.810 " />
            <path fill="none" stroke-width="3.0" stroke-linecap="butt" stroke-opacity="1.0" stroke="rgb(0, 0, 0)" stroke-linejoin="round" d=" M 3301.684, 23.817 3291.684, 23.817 3281.684, 23.816 3271.684, 23.815 3261.684, 23.815 3251.684, 23.814 3241.684, 23.813 3231.684, 23.813 3221.684, 23.812 3211.684, 23.812 3201.684, 23.811 3191.684, 23.810 3181.684, 23.810 3171.949, 23.809 3171.485, 23.809 " />
            <path fill="none" stroke-width="3.0" stroke-linecap="butt" stroke-opacity="1.0" stroke="rgb(0, 0, 0)" stroke-linejoin="round" d=" M 2661.494, 23.780 2660.424, 23.780 2659.663, 23.780 2659.067, 23.780 2658.423, 23.780 " />
            <path fill="none" stroke-width="3.0" stroke-linecap="butt" stroke-opacity="1.0" stroke="rgb(0, 0, 0)" stroke-linejoin="round" d=" M 2658.423, 23.780 2658.300, 23.780 2657.833, 23.780 " />
            <path fill="none" stroke-width="3.0" stroke-linecap="butt" stroke-opacity="1.0" stroke="rgb(0, 0, 0)" stroke-linejoin="round" d=" M 2731.235, 23.784 2721.235, 23.783 2711.235, 23.783 2701.235, 23.782 2691.235, 23.781 2681.235, 23.781 2671.235, 23.780 2661.235, 23.780 2656.475, 23.779 2655.892, 23.779 2654.584, 23.779 2652.757, 23.779 2651.000, 23.779 2645.625, 23.779 2638.716, 23.779 2628.716, 23.778 2618.716, 23.778 2608.716, 23.777 2598.716, 23.776 2588.716, 23.776 2578.716, 23.775 2568.716, 23.775 2558.716, 23.774 2555.860, 23.774 " />
            <path fill="none" stroke-width="3.0" stroke-linecap="butt" stroke-opacity="1.0" stroke="rgb(0, 0, 0)" stroke-linejoin="round" d=" M 2555.860, 23.774 2545.860, 23.773 2535.860, 23.773 2525.860, 23.772 2515.860, 23.772 2505.860, 23.771 2495.860, 23.771 2485.860, 23.770 2475.860, 23.769 2465.860, 23.769 2455.860, 23.768 2445.860, 23.768 2435.860, 23.767 2425.860, 23.767 2415.860, 23.766 2405.860, 23.765 2395.860, 23.765 2385.860, 23.764 2375.860, 23.764 2365.860, 23.763 2355.860, 23.762 2345.860, 23.762 2335.860, 23.761 2325.860, 23.761 2315.860, 23.760 2305.860, 23.760 2295.860, 23.759 2285.860, 23.759 2275.860, 23.758 2265.860, 23.757 2255.860, 23.757 2245.860, 23.756 2235.860, 23.756 2225.860, 23.755 2215.860, 23.754 2205.860, 23.754 2195.860, 23.753 2184.219, 23.753 2181.236, 23.753 " />
            <path fill="none" stroke-width="3.0" stroke-linecap="butt" stroke-opacity="1.0" stroke="rgb(0, 0, 0)" stroke-linejoin="round" d=" M 2181.236, 23.753 2178.331, 23.752 2175.511, 23.752 2172.787, 23.752 2162.787, 23.751 2152.787, 23.751 2142.787, 23.750 2132.787, 23.750 2122.787, 23.749 2112.787, 23.749 2102.787, 23.748 2092.787, 23.748 2082.787, 23.747 2072.787, 23.746 2062.787, 23.746 2052.787, 23.745 2042.787, 23.745 2032.787, 23.744 2022.787, 23.743 2012.787, 23.743 2002.133, 23.742 1992.133, 23.742 1982.133, 23.741 1972.133, 23.741 1962.133, 23.740 1952.133, 23.740 1942.133, 23.739 1932.133, 23.739 1922.133, 23.738 1911.311, 23.737 1901.311, 23.737 1891.311, 23.736 1881.311, 23.736 1871.311, 23.735 1861.311, 23.734 1859.572, 23.734 " />
            <path fill="none" stroke-width="3.0" stroke-linecap="butt" stroke-opacity="1.0" stroke="rgb(0, 0, 0)" stroke-linejoin="round" d=" M 1859.572, 23.734 1858.820, 23.734 1857.586, 23.734 1857.275, 23.734 1856.708, 23.734 1855.185, 23.734 1853.933, 23.734 " />
            <path fill="none" stroke-width="3.0" stroke-linecap="butt" stroke-opacity="1.0" stroke="rgb(0, 0, 0)" stroke-linejoin="round" d=" M 1852.822, 23.759 1852.066, 23.776 1852.054, 23.777 1851.195, 23.796 1851.153, 23.797 1851.117, 23.796 1850.358, 23.777 1850.347, 23.776 1849.678, 23.759 " />
            <path fill="none" stroke-width="3.0" stroke-linecap="butt" stroke-opacity="1.0" stroke="rgb(0, 0, 0)" stroke-linejoin="round" d=" M 260.151, 23.695 258.990, 23.643 " />
            <path fill="none" stroke-width="3.0" stroke-linecap="butt" stroke-opacity="1.0" stroke="rgb(0, 0, 0)" stroke-linejoin="round" d=" M 267.049, 23.694 266.140, 23.694 " />
            <path fill="none" stroke-width="3.0" stroke-linecap="butt" stroke-opacity="1.0" stroke="rgb(0, 0, 0)" stroke-linejoin="round" d=" M 667.322, 23.712 666.113, 23.666 " />
            <path fill="none" stroke-width="3.0" stroke-linecap="butt" stroke-opacity="1.0" stroke="rgb(0, 0, 0)" stroke-linejoin="round" d=" M 928.276, 23.722 927.500, 23.681 927.493, 23.681 927.489, 23.681 927.489, 23.681 " />
            <path fill="none" stroke-width="3.0" stroke-linecap="butt" stroke-opacity="1.0" stroke="rgb(0, 0, 0)" stroke-linejoin="round" d=" M 1216.500, 519.058 1215.175, 521.354 " />
            <path fill="none" stroke-width="3.0" stroke-linecap="butt" stroke-opacity="1.0" stroke="rgb(0, 0, 0)" stroke-linejoin="round" d=" M 1217.709, 516.700 1216.500, 519.058 " />
            <path fill="none" stroke-width="3.0" stroke-linecap="butt" stroke-opacity="1.0" stroke="rgb(0, 0, 0)" stroke-linejoin="round" d=" M 1218.800, 514.284 1217.709, 516.700 " />
            <path fill="none" stroke-width="3.0" stroke-linecap="butt" stroke-opacity="1.0" stroke="rgb(0, 0, 0)" stroke-linejoin="round" d=" M 1222.379, 501.559 1221.920, 504.170 " />
            <path fill="none" stroke-width="3.0" stroke-linecap="butt" stroke-opacity="1.0" stroke="rgb(0, 0, 0)" stroke-linejoin="round" d=" M 1849.678, 23.759 1848.698, 23.734 1848.690, 23.734 1848.685, 23.734 1848.684, 23.734 1848.681, 23.734 1848.677, 23.734 " />
            <path fill="none" stroke-width="3.0" stroke-linecap="butt" stroke-opacity="1.0" stroke="rgb(0, 0, 0)" stroke-linejoin="round" d=" M 1853.933, 23.734 1853.927, 23.734 1852.822, 23.759 " />
            <path fill="none" stroke-width="3.0" stroke-linecap="butt" stroke-opacity="1.0" stroke="rgb(0, 0, 0)" stroke-linejoin="round" d=" M 2657.833, 23.780 2656.588, 23.780 2656.489, 23.779 2656.475, 23.779 " />
            <path fill="none" stroke-width="3.0" stroke-linecap="butt" stroke-opacity="1.0" stroke="rgb(0, 0, 0)" stroke-linejoin="round" d=" M 2658.986, 23.780 2659.663, 23.780 " />
            <path fill="none" stroke-width="3.0" stroke-linecap="butt" stroke-opacity="1.0" stroke="rgb(0, 0, 0)" stroke-linejoin="round" d=" M 2656.591, 23.780 2658.986, 23.780 " />
            <path fill="none" stroke-width="3.0" stroke-linecap="butt" stroke-opacity="1.0" stroke="rgb(0, 0, 0)" stroke-linejoin="round" d=" M 3172.561, 23.810 3171.977, 23.809 3171.949, 23.809 " />
            <path fill="none" stroke-width="3.0" stroke-linecap="butt" stroke-opacity="1.0" stroke="rgb(0, 0, 0)" stroke-linejoin="round" d=" M 3301.684, 23.817 3291.684, 23.817 3281.684, 23.816 3271.684, 23.815 3261.684, 23.815 3251.684, 23.814 3241.684, 23.813 3231.684, 23.813 3221.684, 23.812 3211.684, 23.812 3201.684, 23.811 3191.684, 23.810 3181.684, 23.810 3171.977, 23.809 " />
            <path fill="none" stroke-width="3.0" stroke-linecap="butt" stroke-opacity="1.0" stroke="rgb(0, 0, 0)" stroke-linejoin="round" d=" M 2728.796, 23.784 2718.796, 23.783 2708.796, 23.782 2698.796, 23.782 2688.796, 23.781 2678.796, 23.781 2668.796, 23.780 2658.796, 23.780 2656.489, 23.779 " />
            <path fill="none" stroke-width="3.0" stroke-linecap="butt" stroke-opacity="1.0" stroke="rgb(0, 0, 0)" stroke-linejoin="round" d=" M 2658.300, 23.780 2659.067, 23.780 " />
            <path fill="none" stroke-width="3.0" stroke-linecap="butt" stroke-opacity="1.0" stroke="rgb(0, 0, 0)" stroke-linejoin="round" d=" M 2711.539, 23.783 2701.539, 23.782 2691.539, 23.781 2681.539, 23.781 2671.539, 23.780 2661.539, 23.780 2656.591, 23.780 2656.588, 23.780 " />
            <path fill="none" stroke-width="3.0" stroke-linecap="butt" stroke-opacity="1.0" stroke="rgb(0, 0, 0)" stroke-linejoin="round" d=" M 2555.860, 23.774 2545.860, 23.773 2535.860, 23.773 2525.860, 23.772 2515.860, 23.772 2505.860, 23.771 2495.860, 23.771 2485.860, 23.770 2475.860, 23.769 2465.860, 23.769 2455.860, 23.768 2445.860, 23.768 2435.860, 23.767 2425.860, 23.766 2415.860, 23.766 2405.860, 23.765 2395.860, 23.765 2385.860, 23.764 2375.860, 23.763 2365.860, 23.763 2355.860, 23.762 2345.860, 23.762 2335.860, 23.761 2325.860, 23.760 2315.860, 23.760 2305.860, 23.759 2295.860, 23.759 2285.860, 23.758 2275.860, 23.758 2265.860, 23.757 2255.860, 23.756 2245.860, 23.756 2235.860, 23.755 2225.860, 23.755 2215.860, 23.754 2205.860, 23.753 2195.860, 23.753 2185.860, 23.752 2178.331, 23.752 " />
            <path fill="none" stroke-width="3.0" stroke-linecap="butt" stroke-opacity="1.0" stroke="rgb(0, 0, 0)" stroke-linejoin="round" d=" M 2661.494, 23.780 2658.986, 23.780 2657.833, 23.780 " />
            <path fill="none" stroke-width="3.0" stroke-linecap="butt" stroke-opacity="1.0" stroke="rgb(0, 0, 0)" stroke-linejoin="round" d=" M 2555.860, 23.774 2545.860, 23.773 2535.860, 23.773 2525.860, 23.772 2515.860, 23.772 2505.860, 23.771 2495.860, 23.771 2485.860, 23.770 2475.860, 23.769 2465.860, 23.769 2455.860, 23.768 2445.860, 23.768 2435.860, 23.767 2425.860, 23.766 2415.860, 23.766 2405.860, 23.765 2395.860, 23.765 2385.860, 23.764 2375.860, 23.763 2365.860, 23.763 2355.860, 23.762 2345.860, 23.762 2335.860, 23.761 2325.860, 23.760 2315.860, 23.760 2305.860, 23.759 2295.860, 23.759 2285.860, 23.758 2275.860, 23.758 2265.860, 23.757 2255.860, 23.756 2245.860, 23.756 2235.860, 23.755 2225.860, 23.755 2215.860, 23.754 2205.860, 23.753 2195.860, 23.753 2185.860, 23.752 2178.331, 23.752 " />
            <path fill="none" stroke-width="3.0" stroke-linecap="butt" stroke-opacity="1.0" stroke="rgb(0, 0, 0)" stroke-linejoin="round" d=" M 2661.494, 23.780 2658.986, 23.780 2657.833, 23.780 " />
            <path fill="none" stroke-width="3.0" stroke-linecap="butt" stroke-opacity="1.0" stroke="rgb(0, 0, 0)" stroke-linejoin="round" d=" M 2002.133, 23.742 1992.133, 23.742 1982.133, 23.741 1972.133, 23.741 1962.133, 23.740 1952.133, 23.740 1942.133, 23.739 1932.133, 23.738 1922.133, 23.738 1912.133, 23.737 1902.133, 23.737 1892.133, 23.736 1882.133, 23.735 1872.133, 23.735 1862.133, 23.734 1851.253, 23.734 " />
            <path fill="none" stroke-width="3.0" stroke-linecap="butt" stroke-opacity="1.0" stroke="rgb(0, 0, 0)" stroke-linejoin="round" d=" M 1911.311, 23.737 1901.311, 23.737 1891.311, 23.736 1881.311, 23.736 1871.311, 23.735 1861.311, 23.734 1851.978, 23.734 1848.677, 23.734 " />
            <path fill="none" stroke-width="3.0" stroke-linecap="butt" stroke-opacity="1.0" stroke="rgb(0, 0, 0)" stroke-linejoin="round" d=" M 926.521, 23.681 916.521, 23.680 906.521, 23.680 896.521, 23.679 886.521, 23.679 876.521, 23.678 866.521, 23.677 856.521, 23.677 846.521, 23.677 836.521, 23.676 826.521, 23.675 816.521, 23.675 806.521, 23.674 796.521, 23.674 786.521, 23.673 776.521, 23.672 766.521, 23.672 756.521, 23.671 746.521, 23.671 736.521, 23.670 726.521, 23.669 716.521, 23.669 706.521, 23.668 696.521, 23.668 686.521, 23.667 678.372, 23.667 670.577, 23.666 666.113, 23.666 " />
            <path fill="none" stroke-width="3.0" stroke-linecap="butt" stroke-opacity="1.0" stroke="rgb(0, 0, 0)" stroke-linejoin="round" d=" M 1845.921, 23.734 1835.921, 23.733 1825.921, 23.732 1815.921, 23.732 1805.921, 23.731 1795.921, 23.731 1785.921, 23.730 1775.921, 23.729 1765.921, 23.729 1755.921, 23.729 1745.921, 23.728 1735.921, 23.727 1725.921, 23.727 1715.921, 23.726 1705.921, 23.726 1695.921, 23.725 1685.921, 23.724 1675.921, 23.724 1665.921, 23.723 1655.921, 23.723 1645.921, 23.722 1635.921, 23.721 1625.921, 23.721 1615.921, 23.720 1605.921, 23.720 1595.921, 23.719 1585.921, 23.719 1575.921, 23.718 1565.921, 23.718 1555.921, 23.717 1545.921, 23.716 1535.921, 23.716 1525.921, 23.715 1515.921, 23.715 1505.921, 23.714 1495.921, 23.713 1485.921, 23.713 1475.921, 23.712 1465.921, 23.712 1455.921, 23.711 1445.921, 23.710 1435.921, 23.710 1425.921, 23.709 1415.921, 23.709 1405.921, 23.708 1395.921, 23.708 1385.921, 23.707 1375.921, 23.707 1365.921, 23.706 1355.921, 23.705 1345.921, 23.705 1335.921, 23.704 1325.921, 23.704 1315.921, 23.703 1305.921, 23.702 1295.921, 23.702 1285.921, 23.701 1275.921, 23.701 1265.921, 23.700 1255.921, 23.700 1245.921, 23.699 1235.921, 23.698 1225.921, 23.698 1215.921, 23.697 1205.921, 23.697 1195.921, 23.696 1185.921, 23.696 1175.921, 23.695 1165.921, 23.694 1155.921, 23.694 1145.921, 23.693 1135.921, 23.693 1125.921, 23.692 1115.921, 23.692 1105.921, 23.691 1095.921, 23.690 1085.921, 23.690 1075.921, 23.689 1065.921, 23.689 1055.921, 23.688 1045.921, 23.688 1035.921, 23.687 1025.921, 23.686 1015.921, 23.686 1005.921, 23.685 995.921, 23.685 985.921, 23.684 975.921, 23.684 965.921, 23.683 955.921, 23.682 945.921, 23.682 929.518, 23.681 919.518, 23.680 909.518, 23.680 899.518, 23.679 889.518, 23.678 879.518, 23.678 869.518, 23.677 859.518, 23.677 849.518, 23.676 839.518, 23.676 829.518, 23.675 819.518, 23.675 809.518, 23.674 799.518, 23.673 789.518, 23.673 779.518, 23.672 769.518, 23.672 759.518, 23.671 749.518, 23.670 739.518, 23.670 729.518, 23.669 719.518, 23.669 709.518, 23.668 699.518, 23.667 689.518, 23.667 679.518, 23.667 669.518, 23.666 659.518, 23.665 649.518, 23.665 639.518, 23.664 629.518, 23.664 619.518, 23.663 609.518, 23.662 599.518, 23.662 589.518, 23.661 579.518, 23.661 569.518, 23.660 559.518, 23.659 549.518, 23.659 539.518, 23.658 529.518, 23.658 519.518, 23.657 509.518, 23.657 499.518, 23.656 489.518, 23.656 479.518, 23.655 469.518, 23.654 459.518, 23.654 449.518, 23.653 439.518, 23.653 429.518, 23.652 419.518, 23.651 409.518, 23.651 399.518, 23.650 389.518, 23.650 379.518, 23.649 369.518, 23.649 359.518, 23.648 349.518, 23.647 339.518, 23.647 329.518, 23.646 319.518, 23.646 309.518, 23.645 299.518, 23.645 289.518, 23.644 279.518, 23.643 269.518, 23.643 259.518, 23.642 249.518, 23.642 239.518, 23.641 229.518, 23.641 219.518, 23.640 209.518, 23.639 199.518, 23.639 189.518, 23.638 179.518, 23.638 169.518, 23.637 159.518, 23.636 149.518, 23.636 139.518, 23.635 129.518, 23.635 119.518, 23.634 109.518, 23.634 99.518, 23.633 89.518, 23.633 79.518, 23.632 61.355, 23.631 " />
            <path fill="none" stroke-width="3.0" stroke-linecap="butt" stroke-opacity="1.0" stroke="rgb(0, 0, 0)" stroke-linejoin="round" d=" M 3326.652, 305.826 3325.770, 295.865 3324.888, 285.904 3324.006, 275.943 3323.125, 265.982 3322.243, 256.021 3321.361, 246.060 3320.479, 236.098 3319.597, 226.137 3318.715, 216.177 3317.833, 206.215 3316.951, 196.254 3316.069, 186.293 3315.187, 176.332 3314.305, 166.371 3313.423, 156.410 3312.542, 146.449 3311.659, 136.488 3310.778, 126.527 3309.896, 116.566 3309.014, 106.605 3308.132, 96.644 3307.250, 86.683 3306.368, 76.722 3305.486, 66.761 3304.604, 56.800 3303.722, 46.839 3302.840, 36.878 3301.958, 26.917 3301.684, 23.817 " />
            <path fill="none" stroke-width="3.0" stroke-linecap="butt" stroke-opacity="1.0" stroke="rgb(0, 0, 0)" stroke-linejoin="round" d=" M 3415.413, 1297.876 3413.887, 1287.994 3412.361, 1278.111 3410.834, 1268.228 3409.308, 1258.345 3407.782, 1248.462 3406.255, 1238.579 3404.729, 1228.697 3403.203, 1218.814 3401.677, 1208.931 3400.150, 1199.048 3398.624, 1189.165 3397.097, 1179.282 3395.571, 1169.400 3394.045, 1159.517 3392.519, 1149.634 3390.992, 1139.751 3389.466, 1129.868 3387.939, 1119.985 3386.413, 1110.103 3384.887, 1100.220 3383.361, 1090.337 3381.834, 1080.454 3380.308, 1070.571 3378.781, 1060.688 3377.255, 1050.806 3375.729, 1040.923 3374.203, 1031.040 3372.676, 1021.157 3371.150, 1011.274 3369.624, 1001.391 3368.097, 991.509 3366.571, 981.626 3365.045, 971.743 3363.518, 961.860 3361.992, 951.977 3360.466, 942.094 3358.939, 932.212 3357.413, 922.329 3355.887, 912.446 3354.360, 902.563 3352.834, 892.680 3351.308, 882.798 3349.781, 872.915 3348.255, 863.032 3346.729, 853.149 3345.202, 843.266 3343.676, 833.383 3341.951, 822.211 " />
        </g>
    </g>
<g id="slice-labels"><text x="588.8905" y="559.0891666666666" text-anchor="middle" dominant-baseline="middle" font-family="Arial, sans-serif" font-size="59.06286576864698" font-weight="bold" fill="black" stroke="none" stroke-width="7.087543892237638" paint-order="stroke fill">Slice10 (Front)</text><text x="1719.4995000000001" y="559.0891666666666" text-anchor="middle" dominant-baseline="middle" font-family="Arial, sans-serif" font-size="59.06286576864698" font-weight="bold" fill="black" stroke="none" stroke-width="7.087543892237638" paint-order="stroke fill">Slice10 (Front)</text><text x="2850.1085000000003" y="559.0891666666666" text-anchor="middle" dominant-baseline="middle" font-family="Arial, sans-serif" font-size="59.06286576864698" font-weight="bold" fill="black" stroke="none" stroke-width="7.087543892237638" paint-order="stroke fill">Slice10 (Front)</text><text x="588.8905" y="1630.0055000000002" text-anchor="middle" dominant-baseline="middle" font-family="Arial, sans-serif" font-size="59.06286576864698" font-weight="bold" fill="black" stroke="none" stroke-width="7.087543892237638" paint-order="stroke fill">Slice10 (Front)</text><text x="1719.4995000000001" y="1630.0055000000002" text-anchor="middle" dominant-baseline="middle" font-family="Arial, sans-serif" font-size="59.06286576864698" font-weight="bold" fill="black" stroke="none" stroke-width="7.087543892237638" paint-order="stroke fill">Slice10 (Front)</text><text x="2850.1085000000003" y="1630.0055000000002" text-anchor="middle" dominant-baseline="middle" font-family="Arial, sans-serif" font-size="59.06286576864698" font-weight="bold" fill="black" stroke="none" stroke-width="7.087543892237638" paint-order="stroke fill">Slice10 (Front)</text><text x="588.8905" y="2700.9218333333333" text-anchor="middle" dominant-baseline="middle" font-family="Arial, sans-serif" font-size="59.06286576864698" font-weight="bold" fill="black" stroke="none" stroke-width="7.087543892237638" paint-order="stroke fill">Slice10 (Front)</text><text x="1719.4995000000001" y="2700.9218333333333" text-anchor="middle" dominant-baseline="middle" font-family="Arial, sans-serif" font-size="59.06286576864698" font-weight="bold" fill="black" stroke="none" stroke-width="7.087543892237638" paint-order="stroke fill">Slice10 (Front)</text><text x="2850.1085000000003" y="2700.9218333333333" text-anchor="middle" dominant-baseline="middle" font-family="Arial, sans-serif" font-size="59.06286576864698" font-weight="bold" fill="black" stroke="none" stroke-width="7.087543892237638" paint-order="stroke fill">Slice10 (Front)</text></g></svg>