<?xml version='1.0' encoding='utf-8'?>
<svg xmlns="http://www.w3.org/2000/svg" xmlns:inkscape="http://www.inkscape.org/namespaces/inkscape" version="1.1" width="211.25253969430923mm" height="120.67835712432861mm" viewBox="0.24950773785766955 0.005503608438765184 2494.521984524285 1424.9999927831223" preserveAspectRatio="none">
    <g id="ViewLayer_LineSet" inkscape:groupmode="lineset" inkscape:label="ViewLayer_LineSet">
        <g inkscape:groupmode="layer" id="strokes" inkscape:label="strokes">
            <path fill="none" stroke-width="3.0" stroke-linecap="butt" stroke-opacity="1.0" stroke="rgb(0, 0, 0)" stroke-linejoin="round" d=" M 1397.801, 1131.459 1395.283, 1134.040 1392.639, 1136.493 1389.877, 1138.811 1387.002, 1140.988 1384.022, 1143.020 1380.945, 1144.901 1377.778, 1146.625 1374.529, 1148.190 1371.206, 1149.591 1367.817, 1150.824 1364.371, 1151.887 1360.876, 1152.777 1357.342, 1153.492 1353.776, 1154.029 1350.187, 1154.388 1346.586, 1154.568 1342.979, 1154.568 1339.378, 1154.388 1335.789, 1154.029 1332.224, 1153.492 1328.689, 1152.777 1325.194, 1151.887 1321.748, 1150.824 1318.359, 1149.591 1315.036, 1148.190 1311.787, 1146.625 1308.620, 1144.901 1305.543, 1143.020 1302.563, 1140.988 1299.688, 1138.811 1296.926, 1136.493 1294.282, 1134.040 1291.764, 1131.459 1289.378, 1128.755 1287.130, 1125.935 1285.025, 1123.007 1283.068, 1119.978 1281.265, 1116.855 1279.620, 1113.646 1278.136, 1110.358 1276.819, 1107.002 1275.670, 1103.583 1274.694, 1100.112 1273.891, 1096.596 1273.265, 1093.044 1272.816, 1089.466 1272.547, 1085.870 1272.457, 1082.265 1272.547, 1078.660 1272.816, 1075.064 1273.265, 1071.485 1273.891, 1067.934 1274.694, 1064.418 1275.670, 1060.947 1276.819, 1057.528 1278.136, 1054.171 1279.620, 1050.884 1281.265, 1047.675 1283.068, 1044.552 1285.025, 1041.522 1287.130, 1038.594 1289.378, 1035.775 1291.764, 1033.071 1294.282, 1030.489 1296.926, 1028.037 1299.688, 1025.718 1302.563, 1023.541 1305.543, 1021.509 1308.620, 1019.629 1311.787, 1017.904 1315.036, 1016.340 1318.359, 1014.939 1321.748, 1013.705 1325.194, 1012.642 1328.689, 1011.753 1332.224, 1011.038 1335.789, 1010.501 1339.378, 1010.142 1342.979, 1009.962 1346.586, 1009.962 1350.187, 1010.142 1353.776, 1010.501 1357.342, 1011.038 1360.876, 1011.753 1364.371, 1012.642 1367.817, 1013.705 1371.206, 1014.939 1374.529, 1016.340 1377.778, 1017.904 1380.945, 1019.629 1384.022, 1021.509 1387.002, 1023.541 1389.877, 1025.718 1392.639, 1028.037 1395.283, 1030.489 1397.801, 1033.071 1400.187, 1035.775 1402.436, 1038.594 1404.541, 1041.522 1406.497, 1044.552 1408.300, 1047.675 1409.946, 1050.884 1411.429, 1054.171 1412.746, 1057.528 1413.895, 1060.947 1414.871, 1064.418 1415.674, 1067.934 1416.300, 1071.485 1416.749, 1075.064 1417.018, 1078.660 1417.108, 1082.265 1417.018, 1085.870 1416.749, 1089.466 1416.300, 1093.044 1415.674, 1096.596 1414.871, 1100.112 1413.895, 1103.583 1412.746, 1107.002 1411.429, 1110.358 1409.946, 1113.646 1408.300, 1116.855 1406.497, 1119.978 1404.541, 1123.007 1402.436, 1125.935 1400.187, 1128.755 1397.801, 1131.459 " />
            <path fill="none" stroke-width="3.0" stroke-linecap="butt" stroke-opacity="1.0" stroke="rgb(0, 0, 0)" stroke-linejoin="round" d=" M 2455.843, 1401.389 2457.595, 1401.389 2457.720, 1401.389 2457.851, 1401.389 2457.988, 1401.389 2458.131, 1401.389 2458.279, 1401.389 2458.430, 1401.389 2458.585, 1401.389 2458.742, 1401.389 2458.902, 1401.389 2459.062, 1401.389 2459.224, 1401.389 2459.385, 1401.389 2469.385, 1401.389 2471.155, 1401.389 " />
            <path fill="none" stroke-width="3.0" stroke-linecap="butt" stroke-opacity="1.0" stroke="rgb(0, 0, 0)" stroke-linejoin="round" d=" M 1607.443, 1401.389 1617.443, 1401.389 1627.443, 1401.389 1637.443, 1401.389 1637.959, 1401.389 1640.777, 1401.389 1643.758, 1401.389 1646.893, 1401.389 1650.173, 1401.389 1653.589, 1401.389 1657.130, 1401.389 1660.784, 1401.389 1664.542, 1401.389 1674.542, 1401.389 1684.542, 1401.389 1694.542, 1401.389 1704.542, 1401.389 1714.542, 1401.389 1724.542, 1401.389 1734.542, 1401.389 1744.542, 1401.389 1754.542, 1401.389 1764.542, 1401.389 1774.542, 1401.389 1784.542, 1401.389 1794.542, 1401.389 1804.542, 1401.389 1814.542, 1401.389 1824.542, 1401.389 1834.542, 1401.389 1844.542, 1401.389 1854.542, 1401.389 1864.542, 1401.389 1874.542, 1401.389 1884.542, 1401.389 1894.542, 1401.389 1904.542, 1401.389 1914.542, 1401.389 1924.542, 1401.389 1934.542, 1401.389 1944.542, 1401.389 1954.542, 1401.389 1964.542, 1401.389 1974.542, 1401.389 1984.542, 1401.389 1994.542, 1401.389 2004.542, 1401.389 2014.542, 1401.389 2024.542, 1401.389 2034.542, 1401.389 2044.542, 1401.389 2054.542, 1401.389 2064.542, 1401.389 2074.542, 1401.389 2084.542, 1401.389 2094.542, 1401.389 2104.542, 1401.389 2114.542, 1401.389 2124.542, 1401.389 2134.542, 1401.389 2144.542, 1401.389 2154.542, 1401.389 2164.542, 1401.389 2174.542, 1401.389 2184.542, 1401.389 2194.542, 1401.389 2204.542, 1401.389 2214.542, 1401.389 2224.542, 1401.389 2234.542, 1401.389 2244.542, 1401.389 2254.542, 1401.389 2264.542, 1401.389 2274.542, 1401.389 2284.542, 1401.389 2294.542, 1401.389 2304.542, 1401.389 2314.542, 1401.389 2324.542, 1401.389 2334.542, 1401.389 2344.542, 1401.389 2354.542, 1401.389 2364.542, 1401.389 2374.542, 1401.389 2384.542, 1401.389 2394.542, 1401.389 2404.542, 1401.389 2414.542, 1401.389 2424.542, 1401.389 2434.542, 1401.389 2444.542, 1401.389 2455.843, 1401.389 " />
            <path fill="none" stroke-width="3.0" stroke-linecap="butt" stroke-opacity="1.0" stroke="rgb(0, 0, 0)" stroke-linejoin="round" d=" M 1314.360, 1401.389 1315.801, 1401.389 1319.091, 1401.389 1322.381, 1401.389 1332.381, 1401.389 1342.381, 1401.389 1352.381, 1401.389 1362.381, 1401.389 1372.381, 1401.389 1382.381, 1401.389 1392.381, 1401.389 1402.381, 1401.389 1412.381, 1401.389 1422.381, 1401.389 1432.381, 1401.389 1442.381, 1401.389 1452.381, 1401.389 1462.381, 1401.389 1472.381, 1401.389 1482.381, 1401.389 1492.381, 1401.389 1502.381, 1401.389 1512.381, 1401.389 1522.381, 1401.389 1532.381, 1401.389 1542.381, 1401.389 1552.381, 1401.389 1562.381, 1401.389 1572.381, 1401.389 1582.381, 1401.389 1592.381, 1401.389 1602.381, 1401.389 1607.443, 1401.389 " />
            <path fill="none" stroke-width="3.0" stroke-linecap="butt" stroke-opacity="1.0" stroke="rgb(0, 0, 0)" stroke-linejoin="round" d=" M 2376.593, 1118.226 2374.175, 1108.523 2371.758, 1098.819 2369.341, 1089.116 2366.923, 1079.413 2364.506, 1069.709 2362.089, 1060.006 2359.671, 1050.302 2357.254, 1040.599 2354.837, 1030.896 2352.419, 1021.192 2350.002, 1011.489 2347.585, 1001.785 2345.167, 992.082 2342.750, 982.378 2340.333, 972.675 2337.915, 962.971 2335.498, 953.268 2333.081, 943.565 2330.663, 933.861 2328.246, 924.158 2326.134, 915.678 2323.063, 906.162 2319.992, 896.645 2316.922, 887.128 2313.851, 877.611 2310.781, 868.094 2307.710, 858.577 2304.639, 849.060 2301.569, 839.543 2298.498, 830.026 2295.427, 820.510 2292.357, 810.993 2289.286, 801.476 2286.216, 791.959 2283.145, 782.442 2280.074, 772.925 2277.004, 763.408 2273.933, 753.891 2270.862, 744.374 2267.792, 734.858 2266.748, 731.622 " />
            <path fill="none" stroke-width="3.0" stroke-linecap="butt" stroke-opacity="1.0" stroke="rgb(0, 0, 0)" stroke-linejoin="round" d=" M 23.866, 1401.389 33.866, 1401.389 43.866, 1401.389 53.866, 1401.389 63.866, 1401.389 73.866, 1401.389 83.866, 1401.389 93.866, 1401.389 103.866, 1401.389 113.866, 1401.389 123.866, 1401.389 133.866, 1401.389 143.866, 1401.389 153.866, 1401.389 163.866, 1401.389 173.866, 1401.389 183.866, 1401.389 193.866, 1401.389 203.866, 1401.389 213.866, 1401.389 223.866, 1401.389 233.866, 1401.389 243.866, 1401.389 253.866, 1401.389 263.866, 1401.389 273.866, 1401.389 283.866, 1401.389 293.866, 1401.389 303.866, 1401.389 313.866, 1401.389 323.866, 1401.389 333.866, 1401.389 343.866, 1401.389 353.866, 1401.389 363.866, 1401.389 373.866, 1401.389 383.866, 1401.389 393.866, 1401.389 403.866, 1401.389 413.866, 1401.389 423.866, 1401.389 433.866, 1401.389 443.866, 1401.389 453.866, 1401.389 463.866, 1401.389 473.866, 1401.389 483.866, 1401.389 493.866, 1401.389 503.866, 1401.389 513.866, 1401.389 523.866, 1401.389 533.866, 1401.389 543.866, 1401.389 553.866, 1401.389 563.866, 1401.389 573.866, 1401.389 583.866, 1401.389 593.866, 1401.389 603.866, 1401.389 613.866, 1401.389 623.866, 1401.389 633.866, 1401.389 643.866, 1401.389 653.866, 1401.389 663.866, 1401.389 673.866, 1401.389 683.866, 1401.389 694.132, 1401.389 698.791, 1401.389 703.397, 1401.389 707.935, 1401.389 710.185, 1401.389 712.388, 1401.389 716.743, 1401.389 720.984, 1401.389 725.096, 1401.389 729.065, 1401.389 732.876, 1401.389 742.876, 1401.389 752.876, 1401.389 762.876, 1401.389 772.876, 1401.389 782.876, 1401.389 792.876, 1401.389 802.876, 1401.389 812.876, 1401.389 822.876, 1401.389 832.876, 1401.389 842.876, 1401.389 852.876, 1401.389 862.876, 1401.389 872.876, 1401.389 882.876, 1401.389 892.876, 1401.389 902.876, 1401.389 912.876, 1401.389 922.876, 1401.389 924.891, 1401.389 928.785, 1401.389 932.534, 1401.389 936.128, 1401.389 939.553, 1401.389 942.800, 1401.389 947.868, 1401.389 " />
            <path fill="none" stroke-width="3.0" stroke-linecap="butt" stroke-opacity="1.0" stroke="rgb(0, 0, 0)" stroke-linejoin="round" d=" M 1383.735, 536.373 1381.885, 538.269 1379.943, 540.071 1377.913, 541.774 1375.801, 543.374 1373.612, 544.867 1371.351, 546.248 " />
            <path fill="none" stroke-width="3.0" stroke-linecap="butt" stroke-opacity="1.0" stroke="rgb(0, 0, 0)" stroke-linejoin="round" d=" M 1390.124, 472.522 1391.449, 474.817 1392.657, 477.175 1393.747, 479.590 1394.715, 482.056 1395.559, 484.568 1396.276, 487.118 1396.866, 489.701 1397.326, 492.310 1397.656, 494.939 1397.854, 497.581 1397.920, 500.230 1397.854, 502.879 1397.656, 505.521 1397.326, 508.150 1396.866, 510.759 1396.276, 513.342 1395.559, 515.893 1394.715, 518.404 1393.747, 520.870 1392.657, 523.285 1391.449, 525.643 1390.124, 527.938 " />
            <path fill="none" stroke-width="3.0" stroke-linecap="butt" stroke-opacity="1.0" stroke="rgb(0, 0, 0)" stroke-linejoin="round" d=" M 1371.351, 546.248 1369.024, 547.515 1366.637, 548.665 1364.196, 549.694 1361.706, 550.600 1359.174, 551.381 " />
            <path fill="none" stroke-width="3.0" stroke-linecap="butt" stroke-opacity="1.0" stroke="rgb(0, 0, 0)" stroke-linejoin="round" d=" M 1359.174, 551.381 1356.607, 552.035 1354.010, 552.560 1351.390, 552.955 1348.754, 553.219 1346.107, 553.350 " />
            <path fill="none" stroke-width="3.0" stroke-linecap="butt" stroke-opacity="1.0" stroke="rgb(0, 0, 0)" stroke-linejoin="round" d=" M 1346.107, 553.350 1343.458, 553.350 1340.812, 553.219 1338.175, 552.955 " />
            <path fill="none" stroke-width="3.0" stroke-linecap="butt" stroke-opacity="1.0" stroke="rgb(0, 0, 0)" stroke-linejoin="round" d=" M 1327.859, 550.600 1325.369, 549.694 1322.928, 548.665 1320.541, 547.515 1318.214, 546.248 1315.953, 544.867 " />
            <path fill="none" stroke-width="3.0" stroke-linecap="butt" stroke-opacity="1.0" stroke="rgb(0, 0, 0)" stroke-linejoin="round" d=" M 1388.686, 470.297 1390.124, 472.522 " />
            <path fill="none" stroke-width="3.0" stroke-linecap="butt" stroke-opacity="1.0" stroke="rgb(0, 0, 0)" stroke-linejoin="round" d=" M 1387.140, 468.146 1388.686, 470.297 " />
            <path fill="none" stroke-width="3.0" stroke-linecap="butt" stroke-opacity="1.0" stroke="rgb(0, 0, 0)" stroke-linejoin="round" d=" M 1315.953, 544.867 1313.764, 543.374 1311.652, 541.774 1309.622, 540.071 " />
            <path fill="none" stroke-width="3.0" stroke-linecap="butt" stroke-opacity="1.0" stroke="rgb(0, 0, 0)" stroke-linejoin="round" d=" M 1385.488, 466.074 1387.140, 468.146 " />
            <path fill="none" stroke-width="3.0" stroke-linecap="butt" stroke-opacity="1.0" stroke="rgb(0, 0, 0)" stroke-linejoin="round" d=" M 1379.943, 460.389 1381.885, 462.191 1383.735, 464.088 1385.488, 466.074 " />
            <path fill="none" stroke-width="3.0" stroke-linecap="butt" stroke-opacity="1.0" stroke="rgb(0, 0, 0)" stroke-linejoin="round" d=" M 1309.622, 540.071 1307.680, 538.269 1305.830, 536.373 1304.077, 534.386 1302.425, 532.314 1300.879, 530.163 1299.441, 527.938 " />
            <path fill="none" stroke-width="3.0" stroke-linecap="butt" stroke-opacity="1.0" stroke="rgb(0, 0, 0)" stroke-linejoin="round" d=" M 1373.612, 455.594 1375.801, 457.086 1377.913, 458.686 1379.943, 460.389 " />
            <path fill="none" stroke-width="3.0" stroke-linecap="butt" stroke-opacity="1.0" stroke="rgb(0, 0, 0)" stroke-linejoin="round" d=" M 1340.812, 447.242 1343.458, 447.110 1346.107, 447.110 1348.754, 447.242 1351.390, 447.505 1354.010, 447.900 1356.607, 448.425 1359.174, 449.079 1361.706, 449.860 1364.196, 450.766 1366.637, 451.795 1369.024, 452.945 1371.351, 454.212 1373.612, 455.594 " />
            <path fill="none" stroke-width="3.0" stroke-linecap="butt" stroke-opacity="1.0" stroke="rgb(0, 0, 0)" stroke-linejoin="round" d=" M 1338.175, 447.505 1340.812, 447.242 " />
            <path fill="none" stroke-width="3.0" stroke-linecap="butt" stroke-opacity="1.0" stroke="rgb(0, 0, 0)" stroke-linejoin="round" d=" M 1877.666, 23.622 1876.486, 23.622 1875.154, 23.622 1873.669, 23.622 1872.034, 23.622 1870.249, 23.622 1868.318, 23.622 1866.244, 23.622 1864.030, 23.622 1861.683, 23.622 1861.410, 23.622 1859.208, 23.622 1856.612, 23.622 1853.903, 23.622 1851.089, 23.622 1848.181, 23.622 1845.187, 23.622 1842.120, 23.622 1838.990, 23.622 1835.810, 23.622 1832.593, 23.622 1829.351, 23.622 1826.098, 23.622 1822.847, 23.622 1819.612, 23.622 1816.406, 23.622 1813.242, 23.622 1810.135, 23.622 1807.094, 23.622 1804.134, 23.622 1801.265, 23.622 1798.499, 23.622 1795.844, 23.622 1793.310, 23.622 1790.906, 23.622 1788.638, 23.622 1786.513, 23.622 1784.537, 23.622 1782.714, 23.622 1781.047, 23.622 1771.047, 23.622 1761.047, 23.622 1751.047, 23.622 1741.047, 23.622 1739.973, 23.622 1737.709, 23.622 1735.614, 23.622 1725.614, 23.622 1715.614, 23.622 1705.614, 23.622 1695.614, 23.622 1685.614, 23.622 1675.614, 23.622 1665.614, 23.622 1655.614, 23.622 1645.614, 23.622 1635.614, 23.622 1625.614, 23.622 1615.614, 23.622 1605.614, 23.622 1595.614, 23.622 1585.614, 23.622 1575.614, 23.622 1565.614, 23.622 1555.614, 23.622 1552.708, 23.622 1551.458, 23.622 1541.458, 23.622 1531.458, 23.622 1521.458, 23.622 1511.458, 23.622 1501.458, 23.622 1491.458, 23.622 1481.458, 23.622 1471.458, 23.622 1461.458, 23.622 1451.458, 23.622 1441.458, 23.622 1431.458, 23.622 1421.458, 23.622 1411.458, 23.622 1401.458, 23.622 1391.458, 23.622 1381.458, 23.622 1371.458, 23.622 1361.458, 23.622 1351.458, 23.622 1341.458, 23.622 1331.458, 23.622 1321.458, 23.622 1311.458, 23.622 1301.458, 23.622 1291.458, 23.622 1281.458, 23.622 1271.458, 23.622 1261.458, 23.622 1251.458, 23.622 1241.458, 23.622 1231.458, 23.622 1221.458, 23.622 1211.458, 23.622 1201.458, 23.622 1191.458, 23.622 1181.458, 23.622 1171.458, 23.622 1161.458, 23.622 1151.458, 23.622 1141.458, 23.622 1131.458, 23.622 1121.458, 23.622 1111.458, 23.622 1101.458, 23.622 1091.458, 23.622 1081.458, 23.622 1071.458, 23.622 1061.458, 23.622 1051.458, 23.622 1041.458, 23.622 1031.458, 23.622 1021.458, 23.622 1007.681, 23.622 1006.154, 23.622 1004.593, 23.622 1003.004, 23.622 993.004, 23.622 983.004, 23.622 973.004, 23.622 963.004, 23.622 953.004, 23.622 943.004, 23.622 933.004, 23.622 923.004, 23.622 913.004, 23.622 903.004, 23.622 893.004, 23.622 883.004, 23.622 873.004, 23.622 863.004, 23.622 853.004, 23.622 843.004, 23.622 833.004, 23.622 823.004, 23.622 813.004, 23.622 803.004, 23.622 793.004, 23.622 783.004, 23.622 773.004, 23.622 763.004, 23.622 753.004, 23.622 743.004, 23.622 733.004, 23.622 723.004, 23.622 713.004, 23.622 703.004, 23.622 693.004, 23.622 688.538, 23.622 686.469, 23.622 684.234, 23.622 681.837, 23.622 679.284, 23.622 676.581, 23.622 673.734, 23.622 670.752, 23.622 667.644, 23.622 664.417, 23.622 661.084, 23.622 657.654, 23.622 654.139, 23.622 650.553, 23.622 646.906, 23.622 636.906, 23.622 626.906, 23.622 616.906, 23.622 606.906, 23.622 596.906, 23.622 586.906, 23.622 576.906, 23.622 566.906, 23.622 556.906, 23.622 546.906, 23.622 536.906, 23.622 526.906, 23.622 516.906, 23.622 506.906, 23.622 496.906, 23.622 490.788, 23.622 488.874, 23.622 486.846, 23.622 484.712, 23.622 482.482, 23.622 480.166, 23.622 477.777, 23.622 475.326, 23.622 472.824, 23.622 470.285, 23.622 467.721, 23.622 465.144, 23.622 462.567, 23.622 460.001, 23.622 457.459, 23.622 454.950, 23.622 452.487, 23.622 450.077, 23.622 447.731, 23.622 445.456, 23.622 435.456, 23.622 425.456, 23.622 415.456, 23.622 405.456, 23.622 395.456, 23.622 385.456, 23.622 375.456, 23.622 365.456, 23.622 355.456, 23.622 345.456, 23.622 335.456, 23.622 325.850, 23.622 322.292, 32.968 318.734, 42.313 315.176, 51.659 311.619, 61.005 308.061, 70.350 304.503, 79.696 300.945, 89.042 297.388, 98.388 293.830, 107.733 290.272, 117.079 286.715, 126.425 283.157, 135.771 279.599, 145.116 276.041, 154.462 272.484, 163.808 268.926, 173.153 265.368, 182.499 261.810, 191.845 258.253, 201.191 254.695, 210.536 251.290, 219.480 250.897, 229.473 250.505, 239.465 250.112, 249.457 249.720, 259.450 249.327, 269.442 248.935, 279.434 248.542, 289.427 248.150, 299.419 247.757, 309.411 247.364, 319.403 246.972, 329.396 246.579, 339.388 246.187, 349.380 245.794, 359.373 245.402, 369.365 245.009, 379.357 244.617, 389.349 244.224, 399.342 243.831, 409.334 243.439, 419.326 243.046, 429.319 242.654, 439.311 242.261, 449.303 241.869, 459.296 241.476, 469.288 241.084, 479.280 240.691, 489.272 240.298, 499.265 239.906, 509.257 239.513, 519.249 239.121, 529.242 238.728, 539.234 238.336, 549.226 237.943, 559.218 237.551, 569.211 237.158, 579.203 236.765, 589.195 236.373, 599.188 235.980, 609.180 235.588, 619.172 235.195, 629.164 234.803, 639.157 234.410, 649.149 234.018, 659.141 233.625, 669.134 233.232, 679.126 232.840, 689.118 232.447, 699.111 232.055, 709.103 231.662, 719.095 231.270, 729.087 230.877, 739.080 230.485, 749.072 229.975, 762.029 " />
            <path fill="none" stroke-width="3.0" stroke-linecap="butt" stroke-opacity="1.0" stroke="rgb(0, 0, 0)" stroke-linejoin="round" d=" M 2266.748, 731.622 2262.988, 722.356 2259.228, 713.090 2255.468, 703.824 2251.707, 694.558 2247.947, 685.292 2244.187, 676.025 2240.427, 666.759 2236.667, 657.493 2232.907, 648.227 2229.146, 638.961 2225.386, 629.695 2221.626, 620.429 2217.866, 611.162 2214.106, 601.896 2210.346, 592.630 2206.586, 583.364 2202.826, 574.098 2199.065, 564.832 2195.305, 555.566 2191.545, 546.299 2187.785, 537.033 2184.025, 527.767 2180.265, 518.501 2176.505, 509.235 2172.745, 499.969 2168.984, 490.703 2165.224, 481.436 2161.464, 472.170 2157.704, 462.904 2153.944, 453.638 2150.184, 444.372 2146.424, 435.106 2142.664, 425.839 2138.904, 416.573 2135.143, 407.307 2131.383, 398.041 2127.623, 388.775 2123.863, 379.509 2120.103, 370.243 2116.343, 360.976 2112.583, 351.710 2108.823, 342.444 2105.062, 333.178 2101.302, 323.912 2097.542, 314.646 2093.782, 305.380 2090.022, 296.114 2086.262, 286.847 2082.501, 277.581 2078.741, 268.315 2074.981, 259.049 2071.221, 249.783 2067.461, 240.517 2063.701, 231.250 2059.941, 221.984 2056.181, 212.718 2052.420, 203.452 2048.660, 194.186 2044.900, 184.920 2041.140, 175.654 2037.380, 166.387 2033.620, 157.121 2029.860, 147.855 2026.100, 138.589 2022.339, 129.323 2018.579, 120.057 2014.819, 110.791 2011.059, 101.524 2007.299, 92.258 2003.539, 82.992 1999.779, 73.726 1996.019, 64.460 1992.258, 55.194 1988.498, 45.928 1984.738, 36.661 1979.447, 23.622 1969.447, 23.622 1959.447, 23.622 1949.447, 23.622 1939.447, 23.622 1929.447, 23.622 1919.447, 23.622 1909.447, 23.622 1899.447, 23.622 1889.447, 23.622 1879.571, 23.622 " />
            <path fill="none" stroke-width="3.0" stroke-linecap="butt" stroke-opacity="1.0" stroke="rgb(0, 0, 0)" stroke-linejoin="round" d=" M 1879.571, 23.622 1878.701, 23.740 1877.666, 23.622 " />
            <path fill="none" stroke-width="3.0" stroke-linecap="butt" stroke-opacity="1.0" stroke="rgb(0, 0, 0)" stroke-linejoin="round" d=" M 1335.555, 447.900 1338.175, 447.505 " />
            <path fill="none" stroke-width="3.0" stroke-linecap="butt" stroke-opacity="1.0" stroke="rgb(0, 0, 0)" stroke-linejoin="round" d=" M 229.975, 762.029 226.775, 771.503 223.574, 780.977 220.374, 790.451 217.173, 799.925 213.972, 809.399 210.772, 818.873 207.571, 828.347 204.370, 837.821 201.170, 847.295 197.969, 856.768 194.768, 866.242 191.568, 875.716 188.367, 885.190 185.166, 894.664 181.966, 904.138 178.765, 913.612 175.564, 923.086 172.364, 932.560 169.163, 942.034 165.962, 951.508 162.762, 960.982 159.561, 970.456 156.360, 979.930 153.160, 989.404 149.959, 998.878 146.758, 1008.352 143.558, 1017.826 140.357, 1027.300 137.156, 1036.774 133.956, 1046.248 130.755, 1055.722 127.554, 1065.195 124.354, 1074.669 121.153, 1084.143 117.953, 1093.617 114.752, 1103.091 111.551, 1112.565 108.351, 1122.039 105.150, 1131.513 101.949, 1140.987 98.749, 1150.461 95.548, 1159.935 92.347, 1169.409 89.147, 1178.883 84.650, 1192.193 81.860, 1201.795 79.070, 1211.398 76.279, 1221.001 73.489, 1230.604 70.699, 1240.207 67.909, 1249.810 65.119, 1259.412 62.328, 1269.015 59.538, 1278.618 56.748, 1288.221 53.958, 1297.824 51.167, 1307.427 48.377, 1317.030 45.587, 1326.632 42.797, 1336.235 40.007, 1345.838 37.216, 1355.441 34.426, 1365.044 31.636, 1374.647 28.846, 1384.249 26.056, 1393.852 23.866, 1401.389 " />
            <path fill="none" stroke-width="3.0" stroke-linecap="butt" stroke-opacity="1.0" stroke="rgb(0, 0, 0)" stroke-linejoin="round" d=" M 1299.441, 527.938 1298.116, 525.643 1296.908, 523.285 1295.818, 520.870 1294.850, 518.404 1294.006, 515.893 1293.288, 513.342 1292.699, 510.759 1292.239, 508.150 " />
            <path fill="none" stroke-width="3.0" stroke-linecap="butt" stroke-opacity="1.0" stroke="rgb(0, 0, 0)" stroke-linejoin="round" d=" M 1291.711, 497.581 1291.910, 494.939 " />
            <path fill="none" stroke-width="3.0" stroke-linecap="butt" stroke-opacity="1.0" stroke="rgb(0, 0, 0)" stroke-linejoin="round" d=" M 1291.910, 494.939 1292.239, 492.310 " />
            <path fill="none" stroke-width="3.0" stroke-linecap="butt" stroke-opacity="1.0" stroke="rgb(0, 0, 0)" stroke-linejoin="round" d=" M 1292.239, 492.310 1292.699, 489.701 " />
            <path fill="none" stroke-width="3.0" stroke-linecap="butt" stroke-opacity="1.0" stroke="rgb(0, 0, 0)" stroke-linejoin="round" d=" M 1292.699, 489.701 1293.288, 487.118 1294.006, 484.568 1294.850, 482.056 1295.818, 479.590 1296.908, 477.175 " />
            <path fill="none" stroke-width="3.0" stroke-linecap="butt" stroke-opacity="1.0" stroke="rgb(0, 0, 0)" stroke-linejoin="round" d=" M 1296.908, 477.175 1298.116, 474.817 " />
            <path fill="none" stroke-width="3.0" stroke-linecap="butt" stroke-opacity="1.0" stroke="rgb(0, 0, 0)" stroke-linejoin="round" d=" M 1298.116, 474.817 1299.441, 472.522 " />
            <path fill="none" stroke-width="3.0" stroke-linecap="butt" stroke-opacity="1.0" stroke="rgb(0, 0, 0)" stroke-linejoin="round" d=" M 1299.441, 472.522 1300.879, 470.297 1302.425, 468.146 1304.077, 466.074 1305.830, 464.088 1307.680, 462.191 1309.622, 460.389 1311.652, 458.686 1313.764, 457.086 " />
            <path fill="none" stroke-width="3.0" stroke-linecap="butt" stroke-opacity="1.0" stroke="rgb(0, 0, 0)" stroke-linejoin="round" d=" M 1313.764, 457.086 1315.953, 455.594 " />
            <path fill="none" stroke-width="3.0" stroke-linecap="butt" stroke-opacity="1.0" stroke="rgb(0, 0, 0)" stroke-linejoin="round" d=" M 1315.953, 455.594 1318.214, 454.212 1320.541, 452.945 1322.928, 451.795 " />
            <path fill="none" stroke-width="3.0" stroke-linecap="butt" stroke-opacity="1.0" stroke="rgb(0, 0, 0)" stroke-linejoin="round" d=" M 1322.928, 451.795 1325.369, 450.766 1327.859, 449.860 1330.391, 449.079 1332.958, 448.425 1335.555, 447.900 " />
            <path fill="none" stroke-width="3.0" stroke-linecap="butt" stroke-opacity="1.0" stroke="rgb(0, 0, 0)" stroke-linejoin="round" d=" M 1847.496, 372.235 1844.978, 374.817 1842.335, 377.269 1839.572, 379.588 1836.697, 381.765 1833.718, 383.797 1830.641, 385.677 1827.474, 387.401 1824.224, 388.966 1820.901, 390.367 1817.513, 391.601 1814.066, 392.664 1810.572, 393.553 1807.037, 394.268 1803.471, 394.805 1799.883, 395.164 1796.281, 395.344 1792.675, 395.344 1789.073, 395.164 1785.485, 394.805 1781.919, 394.268 1778.384, 393.553 1774.889, 392.664 1771.443, 391.601 1768.054, 390.367 1764.731, 388.966 1761.482, 387.401 1758.315, 385.677 1755.238, 383.797 1752.258, 381.765 1749.384, 379.588 1746.621, 377.269 1743.978, 374.817 1741.459, 372.235 1739.073, 369.531 1736.825, 366.712 1734.720, 363.784 1732.763, 360.754 1730.960, 357.631 1729.315, 354.422 1727.832, 351.135 1726.514, 347.778 1725.365, 344.360 1724.389, 340.888 1723.586, 337.372 1722.960, 333.821 1722.512, 330.242 1722.242, 326.646 1722.152, 323.041 1722.242, 319.436 1722.512, 315.840 1722.960, 312.262 1723.586, 308.710 1724.389, 305.194 1725.365, 301.723 1726.514, 298.304 1727.832, 294.948 1729.315, 291.660 1730.960, 288.451 1732.763, 285.328 1734.720, 282.299 1736.825, 279.370 1739.073, 276.551 1741.459, 273.847 1743.978, 271.266 1746.621, 268.813 1749.384, 266.495 1752.258, 264.317 1755.238, 262.286 1758.315, 260.405 1761.482, 258.680 1764.731, 257.116 1768.054, 255.715 1771.443, 254.482 1774.889, 253.419 1778.384, 252.529 1781.919, 251.814 1785.485, 251.277 1789.073, 250.918 1792.675, 250.738 1796.281, 250.738 1799.883, 250.918 1803.471, 251.277 1807.037, 251.814 1810.572, 252.529 1814.066, 253.419 1817.513, 254.482 1820.901, 255.715 1824.224, 257.116 1827.474, 258.680 1830.641, 260.405 1833.718, 262.286 1836.697, 264.317 1839.572, 266.495 1842.335, 268.813 1844.978, 271.266 1847.496, 273.847 1849.882, 276.551 1852.131, 279.370 1854.236, 282.299 1856.193, 285.328 1857.996, 288.451 1859.641, 291.660 1861.124, 294.948 1862.442, 298.304 1863.590, 301.723 1864.567, 305.194 1865.369, 308.710 1865.996, 312.262 1866.444, 315.840 1866.713, 319.436 1866.803, 323.041 1866.713, 326.646 1866.444, 330.242 1865.996, 333.821 1865.369, 337.372 1864.567, 340.888 1863.590, 344.360 1862.442, 347.778 1861.124, 351.135 1859.641, 354.422 1857.996, 357.631 1856.193, 360.754 1854.236, 363.784 1852.131, 366.712 1849.882, 369.531 1847.496, 372.235 " />
            <path fill="none" stroke-width="3.0" stroke-linecap="butt" stroke-opacity="1.0" stroke="rgb(0, 0, 0)" stroke-linejoin="round" d=" M 666.671, 372.235 664.153, 374.817 661.510, 377.269 658.747, 379.588 655.873, 381.765 652.893, 383.797 649.816, 385.677 646.649, 387.401 643.400, 388.966 640.076, 390.367 636.688, 391.601 633.242, 392.664 629.747, 393.553 626.212, 394.268 622.646, 394.805 619.058, 395.164 615.456, 395.344 611.850, 395.344 608.248, 395.164 604.660, 394.805 601.094, 394.268 597.559, 393.553 594.064, 392.664 590.618, 391.601 587.229, 390.367 583.906, 388.966 580.658, 387.401 577.490, 385.677 574.413, 383.797 571.434, 381.765 568.559, 379.588 565.796, 377.269 563.153, 374.817 560.635, 372.235 558.249, 369.531 556.000, 366.712 553.895, 363.784 551.938, 360.754 550.135, 357.631 548.490, 354.422 547.007, 351.135 545.689, 347.778 544.541, 344.360 543.564, 340.888 542.762, 337.372 542.135, 333.821 541.687, 330.242 541.417, 326.646 541.328, 323.041 541.417, 319.436 541.687, 315.840 542.135, 312.262 542.762, 308.710 543.564, 305.194 544.541, 301.723 545.689, 298.304 547.007, 294.948 548.490, 291.660 550.135, 288.451 551.938, 285.328 553.895, 282.299 556.000, 279.370 558.249, 276.551 560.635, 273.847 563.153, 271.266 565.796, 268.813 568.559, 266.495 571.434, 264.317 574.413, 262.286 577.490, 260.405 580.658, 258.680 583.906, 257.116 587.229, 255.715 590.618, 254.482 594.064, 253.419 597.559, 252.529 601.094, 251.814 604.660, 251.277 608.248, 250.918 611.850, 250.738 615.456, 250.738 619.058, 250.918 622.646, 251.277 626.212, 251.814 629.747, 252.529 633.242, 253.419 636.688, 254.482 640.076, 255.715 643.400, 257.116 646.649, 258.680 649.816, 260.405 652.893, 262.286 655.873, 264.317 658.747, 266.495 661.510, 268.813 664.153, 271.266 666.671, 273.847 669.058, 276.551 671.306, 279.370 673.411, 282.299 675.368, 285.328 677.171, 288.451 678.816, 291.660 680.299, 294.948 681.617, 298.304 682.765, 301.723 683.742, 305.194 684.544, 308.710 685.171, 312.262 685.619, 315.840 685.889, 319.436 685.978, 323.041 685.889, 326.646 685.619, 330.242 685.171, 333.821 684.544, 337.372 683.742, 340.888 682.765, 344.360 681.617, 347.778 680.299, 351.135 678.816, 354.422 677.171, 357.631 675.368, 360.754 673.411, 363.784 671.306, 366.712 669.058, 369.531 666.671, 372.235 " />
            <path fill="none" stroke-width="3.0" stroke-linecap="butt" stroke-opacity="1.0" stroke="rgb(0, 0, 0)" stroke-linejoin="round" d=" M 1291.711, 502.879 1291.646, 500.230 " />
            <path fill="none" stroke-width="3.0" stroke-linecap="butt" stroke-opacity="1.0" stroke="rgb(0, 0, 0)" stroke-linejoin="round" d=" M 1291.646, 500.230 1291.711, 497.581 " />
            <path fill="none" stroke-width="3.0" stroke-linecap="butt" stroke-opacity="1.0" stroke="rgb(0, 0, 0)" stroke-linejoin="round" d=" M 1291.910, 505.521 1291.711, 502.879 " />
            <path fill="none" stroke-width="3.0" stroke-linecap="butt" stroke-opacity="1.0" stroke="rgb(0, 0, 0)" stroke-linejoin="round" d=" M 1292.239, 508.150 1291.910, 505.521 " />
            <path fill="none" stroke-width="3.0" stroke-linecap="butt" stroke-opacity="1.0" stroke="rgb(0, 0, 0)" stroke-linejoin="round" d=" M 947.868, 1401.389 957.868, 1401.389 967.868, 1401.389 977.868, 1401.389 987.868, 1401.389 997.868, 1401.389 1007.868, 1401.389 1017.868, 1401.389 1027.868, 1401.389 1037.868, 1401.389 1047.868, 1401.389 1057.868, 1401.389 1067.868, 1401.389 1077.868, 1401.389 1087.868, 1401.389 1097.868, 1401.389 1107.868, 1401.389 1117.868, 1401.389 1127.868, 1401.389 1137.868, 1401.389 1147.868, 1401.389 1157.868, 1401.389 1167.868, 1401.389 1177.868, 1401.389 1187.868, 1401.389 1197.868, 1401.389 1207.868, 1401.389 1217.868, 1401.389 1227.868, 1401.389 1237.868, 1401.389 1247.868, 1401.389 1257.868, 1401.389 1267.868, 1401.389 1277.868, 1401.389 1287.868, 1401.389 1297.868, 1401.389 1307.868, 1401.389 1314.360, 1401.389 " />
            <path fill="none" stroke-width="3.0" stroke-linecap="butt" stroke-opacity="1.0" stroke="rgb(0, 0, 0)" stroke-linejoin="round" d=" M 1330.391, 551.381 1327.859, 550.600 " />
            <path fill="none" stroke-width="3.0" stroke-linecap="butt" stroke-opacity="1.0" stroke="rgb(0, 0, 0)" stroke-linejoin="round" d=" M 1332.958, 552.035 1330.391, 551.381 " />
            <path fill="none" stroke-width="3.0" stroke-linecap="butt" stroke-opacity="1.0" stroke="rgb(0, 0, 0)" stroke-linejoin="round" d=" M 1335.555, 552.560 1332.958, 552.035 " />
            <path fill="none" stroke-width="3.0" stroke-linecap="butt" stroke-opacity="1.0" stroke="rgb(0, 0, 0)" stroke-linejoin="round" d=" M 1338.175, 552.955 1335.555, 552.560 " />
            <path fill="none" stroke-width="3.0" stroke-linecap="butt" stroke-opacity="1.0" stroke="rgb(0, 0, 0)" stroke-linejoin="round" d=" M 1385.488, 534.386 1383.735, 536.373 " />
            <path fill="none" stroke-width="3.0" stroke-linecap="butt" stroke-opacity="1.0" stroke="rgb(0, 0, 0)" stroke-linejoin="round" d=" M 1387.140, 532.314 1385.488, 534.386 " />
            <path fill="none" stroke-width="3.0" stroke-linecap="butt" stroke-opacity="1.0" stroke="rgb(0, 0, 0)" stroke-linejoin="round" d=" M 1388.686, 530.163 1387.140, 532.314 " />
            <path fill="none" stroke-width="3.0" stroke-linecap="butt" stroke-opacity="1.0" stroke="rgb(0, 0, 0)" stroke-linejoin="round" d=" M 1390.124, 527.938 1388.686, 530.163 " />
            <path fill="none" stroke-width="3.0" stroke-linecap="butt" stroke-opacity="1.0" stroke="rgb(0, 0, 0)" stroke-linejoin="round" d=" M 2471.155, 1401.389 2467.988, 1391.904 2464.820, 1382.419 2461.652, 1372.934 2458.485, 1363.448 2455.317, 1353.963 2452.150, 1344.478 2448.982, 1334.993 2445.815, 1325.508 2442.647, 1316.023 2439.479, 1306.538 2436.312, 1297.053 2433.144, 1287.568 2429.977, 1278.083 2426.809, 1268.598 2423.642, 1259.113 2420.474, 1249.628 2417.307, 1240.142 2414.139, 1230.657 2410.971, 1221.172 2407.804, 1211.687 2404.636, 1202.202 2401.469, 1192.717 2398.301, 1183.232 2395.134, 1173.747 2391.966, 1164.262 2388.799, 1154.777 2385.631, 1145.292 2382.464, 1135.807 2379.296, 1126.322 2376.593, 1118.226 " />
        </g>
    </g>
<g id="slice-labels"><text x="431.7475" y="368.06374999999997" text-anchor="middle" dominant-baseline="middle" font-family="Arial, sans-serif" font-size="59.04124097890308" font-weight="bold" fill="black" stroke="none" stroke-width="7.0849489174683695" paint-order="stroke fill">Slice51 (Back)</text><text x="1247.5105" y="368.06374999999997" text-anchor="middle" dominant-baseline="middle" font-family="Arial, sans-serif" font-size="59.04124097890308" font-weight="bold" fill="black" stroke="none" stroke-width="7.0849489174683695" paint-order="stroke fill">Slice51 (Back)</text><text x="2063.2735000000002" y="368.06374999999997" text-anchor="middle" dominant-baseline="middle" font-family="Arial, sans-serif" font-size="59.04124097890308" font-weight="bold" fill="black" stroke="none" stroke-width="7.0849489174683695" paint-order="stroke fill">Slice51 (Back)</text><text x="431.7475" y="1056.94725" text-anchor="middle" dominant-baseline="middle" font-family="Arial, sans-serif" font-size="59.04124097890308" font-weight="bold" fill="black" stroke="none" stroke-width="7.0849489174683695" paint-order="stroke fill">Slice51 (Back)</text><text x="1247.5105" y="1056.94725" text-anchor="middle" dominant-baseline="middle" font-family="Arial, sans-serif" font-size="59.04124097890308" font-weight="bold" fill="black" stroke="none" stroke-width="7.0849489174683695" paint-order="stroke fill">Slice51 (Back)</text><text x="2063.2735000000002" y="1056.94725" text-anchor="middle" dominant-baseline="middle" font-family="Arial, sans-serif" font-size="59.04124097890308" font-weight="bold" fill="black" stroke="none" stroke-width="7.0849489174683695" paint-order="stroke fill">Slice51 (Back)</text></g></svg>