<?xml version='1.0' encoding='utf-8'?>
<svg xmlns="http://www.w3.org/2000/svg" xmlns:inkscape="http://www.inkscape.org/namespaces/inkscape" version="1.1" width="229.58832168579102mm" height="143.90169763565063mm" viewBox="-0.12424258139520106 0.00476705098627761 2712.2694851627903 1699.9994658980274" preserveAspectRatio="none">
    <g id="ViewLayer_LineSet" inkscape:groupmode="lineset" inkscape:label="ViewLayer_LineSet">
        <g inkscape:groupmode="layer" id="strokes" inkscape:label="strokes">
            <path fill="none" stroke-width="3.0" stroke-linecap="butt" stroke-opacity="1.0" stroke="rgb(0, 0, 0)" stroke-linejoin="round" d=" M 969.518, 1317.741 966.998, 1320.324 964.353, 1322.777 961.589, 1325.097 958.714, 1327.276 955.733, 1329.308 952.654, 1331.188 949.486, 1332.914 946.235, 1334.480 942.911, 1335.882 939.520, 1337.115 936.073, 1338.179 932.576, 1339.069 929.040, 1339.783 925.472, 1340.321 921.882, 1340.680 918.279, 1340.861 914.671, 1340.861 911.068, 1340.680 907.478, 1340.321 903.910, 1339.783 900.374, 1339.069 896.877, 1338.179 893.430, 1337.115 890.039, 1335.882 886.715, 1334.480 883.464, 1332.914 880.296, 1331.188 877.217, 1329.308 874.236, 1327.276 871.360, 1325.097 868.596, 1322.777 865.952, 1320.324 863.432, 1317.741 861.045, 1315.036 858.796, 1312.215 856.690, 1309.285 854.732, 1306.255 852.928, 1303.130 851.282, 1299.920 849.798, 1296.631 848.480, 1293.272 847.331, 1289.853 846.354, 1286.380 845.551, 1282.862 844.925, 1279.310 844.476, 1275.729 844.206, 1272.132 844.116, 1268.525 844.206, 1264.918 844.476, 1261.320 844.925, 1257.740 845.551, 1254.187 846.354, 1250.669 847.331, 1247.197 848.480, 1243.776 849.798, 1240.418 851.282, 1237.130 852.928, 1233.919 854.732, 1230.795 856.690, 1227.764 858.796, 1224.834 861.045, 1222.014 863.432, 1219.308 865.952, 1216.725 868.596, 1214.272 871.360, 1211.953 874.236, 1209.774 877.217, 1207.742 880.296, 1205.861 883.464, 1204.134 886.715, 1202.569 890.039, 1201.169 893.430, 1199.934 896.877, 1198.871 900.374, 1197.981 903.910, 1197.265 907.478, 1196.728 911.068, 1196.369 914.671, 1196.189 918.279, 1196.189 921.882, 1196.369 925.472, 1196.728 929.040, 1197.265 932.576, 1197.981 936.073, 1198.871 939.520, 1199.934 942.911, 1201.169 946.235, 1202.569 949.486, 1204.134 952.654, 1205.861 955.733, 1207.742 958.714, 1209.774 961.589, 1211.953 964.353, 1214.272 966.998, 1216.725 969.518, 1219.308 971.905, 1222.014 974.154, 1224.834 976.260, 1227.764 978.218, 1230.795 980.022, 1233.919 981.668, 1237.130 983.152, 1240.418 984.470, 1243.776 985.619, 1247.197 986.596, 1250.669 987.399, 1254.187 988.025, 1257.740 988.474, 1261.320 988.744, 1264.918 988.833, 1268.525 988.744, 1272.132 988.474, 1275.729 988.025, 1279.310 987.399, 1282.862 986.596, 1286.380 985.619, 1289.853 984.470, 1293.272 983.152, 1296.631 981.668, 1299.920 980.022, 1303.130 978.218, 1306.255 976.260, 1309.285 974.154, 1312.215 971.905, 1315.036 969.518, 1317.741 " />
            <path fill="none" stroke-width="3.0" stroke-linecap="butt" stroke-opacity="1.0" stroke="rgb(0, 0, 0)" stroke-linejoin="round" d=" M 1216.665, 1676.371 1220.057, 1676.371 1223.510, 1676.371 1227.014, 1676.371 1230.558, 1676.371 1234.133, 1676.371 1237.729, 1676.371 1241.335, 1676.371 1244.943, 1676.371 1248.541, 1676.371 1252.119, 1676.371 1255.670, 1676.371 1259.182, 1676.371 1262.646, 1676.371 1266.054, 1676.371 1269.396, 1676.371 " />
            <path fill="none" stroke-width="3.0" stroke-linecap="butt" stroke-opacity="1.0" stroke="rgb(0, 0, 0)" stroke-linejoin="round" d=" M 2554.902, 1676.377 2557.423, 1666.701 2559.945, 1657.024 2562.467, 1647.347 2564.989, 1637.670 2567.511, 1627.993 2570.033, 1618.317 2572.555, 1608.640 2575.076, 1598.963 2577.598, 1589.286 2580.120, 1579.609 2582.642, 1569.933 2585.164, 1560.256 2587.686, 1550.579 2590.208, 1540.902 2592.729, 1531.226 2595.251, 1521.549 2597.773, 1511.872 2600.295, 1502.195 2602.817, 1492.518 2605.339, 1482.842 2607.861, 1473.165 2610.383, 1463.488 2612.904, 1453.811 2615.426, 1444.134 2617.948, 1434.458 2620.470, 1424.781 2622.992, 1415.104 2625.514, 1405.427 2628.035, 1395.751 2630.557, 1386.074 2633.079, 1376.397 2635.601, 1366.720 2638.123, 1357.043 2640.645, 1347.367 2643.167, 1337.690 2645.688, 1328.013 2648.210, 1318.336 2650.732, 1308.659 2653.254, 1298.983 2655.776, 1289.306 2658.298, 1279.629 2660.820, 1269.952 2663.342, 1260.275 2665.863, 1250.599 2668.385, 1240.922 2670.907, 1231.245 2673.429, 1221.568 2675.951, 1211.892 2678.473, 1202.215 2680.995, 1192.538 2683.516, 1182.861 2686.038, 1173.184 2688.518, 1163.669 " />
            <path fill="none" stroke-width="3.0" stroke-linecap="butt" stroke-opacity="1.0" stroke="rgb(0, 0, 0)" stroke-linejoin="round" d=" M 692.664, 1676.272 694.676, 1676.320 704.676, 1676.321 714.676, 1676.322 724.676, 1676.323 734.676, 1676.324 744.676, 1676.325 754.676, 1676.326 764.676, 1676.327 774.676, 1676.328 784.676, 1676.329 794.676, 1676.330 804.676, 1676.331 814.676, 1676.332 824.676, 1676.333 834.676, 1676.334 844.676, 1676.335 854.676, 1676.336 864.676, 1676.337 874.676, 1676.338 884.676, 1676.339 894.676, 1676.340 904.676, 1676.341 914.676, 1676.342 924.676, 1676.343 934.676, 1676.344 944.676, 1676.345 954.676, 1676.346 964.676, 1676.347 974.676, 1676.348 984.676, 1676.349 994.676, 1676.349 1004.676, 1676.350 1014.676, 1676.351 1024.676, 1676.352 1034.676, 1676.353 1044.676, 1676.354 1054.676, 1676.355 1064.676, 1676.356 1074.676, 1676.357 1084.676, 1676.358 1094.676, 1676.359 1104.676, 1676.360 1114.676, 1676.361 1124.676, 1676.362 1134.676, 1676.363 1144.676, 1676.364 1154.676, 1676.365 1164.676, 1676.366 1174.676, 1676.367 1184.676, 1676.368 1194.676, 1676.369 1204.676, 1676.370 1213.282, 1676.371 1216.665, 1676.371 " />
            <path fill="none" stroke-width="3.0" stroke-linecap="butt" stroke-opacity="1.0" stroke="rgb(0, 0, 0)" stroke-linejoin="round" d=" M 23.503, 1676.365 33.503, 1676.365 43.503, 1676.365 53.503, 1676.366 63.503, 1676.366 73.503, 1676.366 83.503, 1676.366 93.503, 1676.366 103.503, 1676.366 113.503, 1676.366 123.503, 1676.366 133.503, 1676.366 143.503, 1676.366 153.503, 1676.366 163.503, 1676.366 173.503, 1676.366 183.503, 1676.366 191.197, 1676.366 201.197, 1676.366 211.197, 1676.366 221.197, 1676.366 231.197, 1676.366 241.197, 1676.366 251.197, 1676.366 261.197, 1676.366 271.197, 1676.366 281.197, 1676.367 291.197, 1676.367 301.197, 1676.367 311.197, 1676.367 321.197, 1676.367 331.197, 1676.367 341.197, 1676.367 351.197, 1676.367 361.197, 1676.367 371.197, 1676.367 381.197, 1676.367 391.197, 1676.367 401.197, 1676.367 411.197, 1676.367 421.197, 1676.367 431.197, 1676.367 441.197, 1676.367 451.197, 1676.367 461.197, 1676.367 471.197, 1676.367 481.197, 1676.367 488.884, 1676.368 491.608, 1676.368 494.300, 1676.368 496.953, 1676.368 499.557, 1676.368 502.103, 1676.368 504.584, 1676.368 506.990, 1676.368 509.314, 1676.368 519.314, 1676.368 529.314, 1676.368 539.314, 1676.368 549.314, 1676.368 559.314, 1676.368 569.314, 1676.368 579.314, 1676.368 589.314, 1676.368 599.314, 1676.368 609.314, 1676.368 619.314, 1676.368 629.314, 1676.368 639.314, 1676.368 649.314, 1676.368 659.314, 1676.368 669.314, 1676.368 673.170, 1676.368 675.887, 1676.368 678.536, 1676.368 681.111, 1676.368 683.603, 1676.368 686.004, 1676.368 688.307, 1676.368 690.506, 1676.368 692.664, 1676.272 " />
            <path fill="none" stroke-width="3.0" stroke-linecap="butt" stroke-opacity="1.0" stroke="rgb(0, 0, 0)" stroke-linejoin="round" d=" M 1491.086, 359.349 1490.625, 361.959 1490.036, 364.544 1489.318, 367.095 1488.474, 369.608 1487.505, 372.075 1486.415, 374.492 1485.206, 376.850 1483.880, 379.146 1482.442, 381.373 1480.895, 383.525 1479.242, 385.597 1477.489, 387.585 1475.637, 389.482 1473.695, 391.285 1471.664, 392.988 1469.551, 394.590 " />
            <path fill="none" stroke-width="3.0" stroke-linecap="butt" stroke-opacity="1.0" stroke="rgb(0, 0, 0)" stroke-linejoin="round" d=" M 1465.099, 397.465 1462.771, 398.733 1460.383, 399.883 1457.940, 400.912 1455.450, 401.818 1452.917, 402.600 1450.348, 403.254 " />
            <path fill="none" stroke-width="3.0" stroke-linecap="butt" stroke-opacity="1.0" stroke="rgb(0, 0, 0)" stroke-linejoin="round" d=" M 1450.348, 403.254 1447.750, 403.779 1445.129, 404.174 1442.491, 404.438 1439.844, 404.571 1437.193, 404.571 " />
            <path fill="none" stroke-width="3.0" stroke-linecap="butt" stroke-opacity="1.0" stroke="rgb(0, 0, 0)" stroke-linejoin="round" d=" M 1490.625, 340.892 1491.086, 343.502 1491.416, 346.133 1491.614, 348.776 1491.680, 351.426 1491.614, 354.076 1491.416, 356.719 1491.086, 359.349 " />
            <path fill="none" stroke-width="3.0" stroke-linecap="butt" stroke-opacity="1.0" stroke="rgb(0, 0, 0)" stroke-linejoin="round" d=" M 2688.518, 1163.669 2686.988, 1153.787 2685.458, 1143.905 2683.928, 1134.022 2682.398, 1124.140 2680.869, 1114.258 2679.339, 1104.375 2677.809, 1094.493 2676.279, 1084.611 2674.749, 1074.729 2673.219, 1064.846 2671.689, 1054.964 2670.159, 1045.082 2668.629, 1035.200 2667.100, 1025.317 2665.570, 1015.435 2664.040, 1005.553 2662.510, 995.670 2660.980, 985.788 2659.450, 975.906 2657.920, 966.024 2656.390, 956.141 2654.860, 946.259 2653.331, 936.377 2651.801, 926.494 2650.271, 916.612 2648.741, 906.730 2647.211, 896.848 2645.681, 886.965 2644.151, 877.083 2642.621, 867.201 2641.092, 857.318 2639.562, 847.436 2638.032, 837.554 2636.502, 827.672 2634.972, 817.789 2633.442, 807.907 2631.912, 798.025 2630.382, 788.143 2628.852, 778.260 2627.323, 768.378 2625.792, 758.496 2624.263, 748.613 2622.733, 738.731 2621.203, 728.849 2619.673, 718.967 2618.143, 709.084 2616.613, 699.202 2615.083, 689.320 2613.553, 679.438 2612.024, 669.555 2610.494, 659.673 2608.964, 649.791 2607.434, 639.908 2605.904, 630.026 2604.374, 620.144 2602.844, 610.261 2601.314, 600.379 2599.784, 590.497 2598.255, 580.615 2596.725, 570.732 2595.195, 560.850 2593.665, 550.968 2592.135, 541.086 2590.605, 531.203 2589.075, 521.321 2587.545, 511.439 2586.015, 501.556 2583.714, 486.689 2584.828, 476.751 2585.943, 466.814 2587.057, 456.876 2588.172, 446.938 2589.286, 437.001 2590.401, 427.063 2591.515, 417.125 2592.630, 407.188 2593.744, 397.250 2594.858, 387.312 2595.973, 377.374 2597.087, 367.437 2598.202, 357.499 2599.316, 347.561 2600.431, 337.624 2601.545, 327.686 2602.660, 317.748 2603.774, 307.811 2604.889, 297.873 2606.003, 287.935 2607.118, 277.997 2608.232, 268.060 2609.346, 258.122 2610.461, 248.184 2611.575, 238.247 2612.690, 228.309 2613.804, 218.371 2614.919, 208.433 2616.033, 198.496 2617.148, 188.558 2618.262, 178.620 2619.377, 168.683 2620.491, 158.745 2621.605, 148.807 2622.720, 138.870 2623.834, 128.932 2624.949, 118.994 2626.063, 109.056 2627.178, 99.119 2628.292, 89.181 2628.943, 83.376 2632.775, 74.140 2636.606, 64.903 2640.437, 55.666 2644.269, 46.429 2648.100, 37.192 2651.931, 27.955 2653.724, 23.632 2643.724, 23.632 2633.724, 23.632 2623.724, 23.632 2613.724, 23.632 2603.724, 23.632 2593.724, 23.632 2583.724, 23.632 2573.724, 23.632 2563.724, 23.632 2553.724, 23.632 2543.724, 23.632 2533.724, 23.632 2523.724, 23.632 2513.724, 23.632 2503.724, 23.632 2493.724, 23.632 2483.724, 23.632 2473.724, 23.632 2463.724, 23.632 2453.724, 23.632 2443.724, 23.632 2433.724, 23.632 2423.724, 23.632 2413.724, 23.632 2403.724, 23.632 2393.724, 23.632 2383.724, 23.632 2373.724, 23.632 2363.724, 23.632 2353.724, 23.632 2343.724, 23.632 2333.724, 23.632 2323.724, 23.632 2313.724, 23.632 2303.724, 23.632 2293.724, 23.632 2283.724, 23.632 2273.724, 23.632 2263.724, 23.632 2253.724, 23.632 2243.724, 23.632 2233.724, 23.632 2223.724, 23.632 2213.724, 23.632 2203.724, 23.632 2193.724, 23.632 2183.724, 23.632 2173.724, 23.632 2163.724, 23.632 2153.724, 23.632 2143.724, 23.632 2133.724, 23.632 2123.724, 23.632 2113.724, 23.632 2103.724, 23.632 2093.724, 23.632 2083.724, 23.632 2073.724, 23.632 2063.724, 23.632 2053.724, 23.632 2042.426, 23.632 2039.611, 23.632 2036.890, 23.632 2034.271, 23.632 2031.764, 23.632 2021.764, 23.632 2011.764, 23.632 2001.764, 23.632 1991.764, 23.632 1981.764, 23.632 1971.764, 23.632 1961.764, 23.632 1951.764, 23.632 1941.764, 23.632 1931.764, 23.632 1921.764, 23.632 1911.764, 23.632 1901.764, 23.632 1891.764, 23.632 1881.764, 23.632 1871.764, 23.632 1861.764, 23.632 1851.764, 23.632 1841.764, 23.632 1831.764, 23.632 1821.764, 23.632 1811.764, 23.632 1801.764, 23.632 1799.178, 23.632 1796.524, 23.632 1793.959, 23.632 1791.493, 23.632 1789.129, 23.632 1779.129, 23.632 1769.129, 23.632 1759.129, 23.632 1749.129, 23.632 1739.129, 23.632 1729.129, 23.632 1719.129, 23.632 1709.129, 23.632 1699.129, 23.632 1689.129, 23.632 1679.129, 23.632 1669.129, 23.632 1659.129, 23.632 1649.129, 23.632 1639.129, 23.632 1629.129, 23.632 1619.129, 23.632 1609.129, 23.632 1599.129, 23.632 1589.129, 23.632 1579.129, 23.632 1569.129, 23.632 1559.129, 23.632 1549.129, 23.632 1539.129, 23.632 1529.129, 23.632 1519.129, 23.632 1509.129, 23.632 1499.129, 23.632 1489.129, 23.632 1479.129, 23.632 1469.129, 23.632 1459.129, 23.632 1449.129, 23.632 1439.129, 23.632 1429.129, 23.632 1419.129, 23.632 1409.129, 23.632 1399.129, 23.632 1389.129, 23.632 1379.129, 23.632 1369.129, 23.632 1359.129, 23.632 1349.129, 23.632 1339.129, 23.632 1329.129, 23.632 1319.129, 23.632 1309.129, 23.632 1299.129, 23.632 1289.129, 23.632 1279.129, 23.632 1269.129, 23.632 1259.129, 23.632 1249.129, 23.632 1239.129, 23.632 1229.129, 23.632 1215.853, 23.632 1213.908, 23.632 1211.866, 23.632 1209.733, 23.632 1207.515, 23.632 1205.217, 23.632 1202.847, 23.632 1192.847, 23.632 1182.847, 23.632 1172.847, 23.632 1162.847, 23.632 1152.847, 23.632 1142.847, 23.632 1138.539, 23.632 1136.137, 23.632 1133.656, 23.632 1131.104, 23.632 1128.488, 23.632 1125.816, 23.632 1123.094, 23.632 1120.331, 23.632 1110.331, 23.632 1100.331, 23.632 1090.331, 23.632 1080.331, 23.632 1070.331, 23.632 1060.331, 23.632 1050.331, 23.632 1040.331, 23.632 1030.331, 23.632 1020.331, 23.632 1010.331, 23.632 1000.331, 23.632 990.331, 23.632 980.331, 23.632 970.331, 23.632 960.331, 23.632 950.331, 23.632 940.331, 23.632 930.331, 23.632 920.331, 23.632 910.331, 23.632 900.331, 23.632 890.331, 23.632 880.331, 23.632 870.331, 23.632 860.331, 23.632 850.331, 23.632 840.331, 23.632 830.331, 23.632 820.331, 23.632 810.331, 23.632 800.331, 23.632 790.331, 23.632 780.331, 23.632 770.331, 23.632 760.331, 23.632 750.331, 23.632 740.331, 23.632 730.331, 23.632 720.331, 23.632 710.331, 23.632 700.331, 23.632 690.331, 23.632 680.331, 23.632 670.331, 23.632 660.331, 23.632 654.682, 23.632 652.333, 23.632 649.910, 23.632 647.422, 23.632 644.877, 23.632 642.284, 23.632 632.284, 23.632 622.284, 23.632 612.284, 23.632 602.284, 23.632 592.284, 23.632 582.284, 23.632 572.284, 23.632 562.284, 23.632 552.284, 23.632 542.284, 23.632 532.284, 23.632 522.284, 23.632 512.284, 23.632 502.284, 23.632 492.284, 23.632 482.284, 23.632 472.284, 23.632 462.284, 23.632 452.284, 23.632 442.284, 23.632 432.284, 23.632 422.284, 23.632 412.284, 23.632 401.546, 23.632 400.032, 23.632 398.496, 23.632 388.496, 23.632 378.496, 23.632 368.496, 23.632 358.496, 23.632 348.496, 23.632 338.496, 23.632 328.496, 23.632 318.496, 23.632 308.496, 23.632 298.496, 23.632 288.496, 23.632 281.002, 23.632 280.141, 23.632 279.250, 23.632 278.333, 23.632 277.393, 23.632 276.435, 23.632 275.462, 23.632 274.479, 23.632 273.488, 23.632 272.493, 23.632 271.496, 23.632 270.505, 23.632 260.505, 23.632 250.505, 23.632 240.505, 23.632 230.505, 23.632 220.505, 23.632 210.505, 23.632 200.505, 23.632 190.505, 23.632 180.505, 23.632 170.505, 23.632 162.173, 23.632 159.468, 33.259 156.763, 42.886 154.058, 52.513 151.353, 62.141 148.648, 71.768 145.943, 81.395 143.238, 91.022 140.533, 100.649 137.828, 110.277 135.123, 119.904 132.418, 129.531 129.713, 139.158 127.009, 148.785 124.304, 158.413 122.324, 165.458 121.246, 175.399 120.167, 185.341 119.089, 195.282 118.011, 205.224 116.932, 215.166 115.854, 225.108 114.775, 235.049 113.697, 244.991 112.619, 254.933 111.540, 264.874 110.462, 274.816 109.383, 284.758 108.305, 294.699 107.227, 304.641 106.148, 314.583 105.070, 324.524 103.991, 334.466 102.913, 344.408 101.835, 354.349 100.756, 364.291 99.678, 374.233 98.599, 384.174 97.521, 394.116 96.443, 404.058 95.364, 414.000 94.286, 423.941 93.207, 433.883 92.129, 443.825 91.437, 450.200 92.171, 460.173 92.904, 470.146 93.637, 480.120 94.371, 490.093 95.104, 500.066 95.837, 510.039 96.570, 520.012 97.304, 529.985 98.037, 539.958 98.770, 549.931 99.504, 559.904 100.237, 569.877 100.970, 579.850 101.703, 589.823 102.437, 599.797 103.170, 609.770 103.903, 619.743 104.637, 629.716 105.370, 639.689 106.103, 649.662 106.836, 659.635 107.570, 669.608 108.303, 679.581 109.036, 689.554 109.770, 699.527 110.503, 709.500 111.236, 719.473 111.969, 729.447 112.703, 739.420 113.436, 749.393 114.169, 759.366 114.903, 769.339 115.636, 779.312 116.369, 789.285 117.102, 799.258 117.836, 809.231 118.569, 819.204 119.302, 829.177 119.804, 836.002 " />
            <path fill="none" stroke-width="3.0" stroke-linecap="butt" stroke-opacity="1.0" stroke="rgb(0, 0, 0)" stroke-linejoin="round" d=" M 1490.036, 338.308 1490.625, 340.892 " />
            <path fill="none" stroke-width="3.0" stroke-linecap="butt" stroke-opacity="1.0" stroke="rgb(0, 0, 0)" stroke-linejoin="round" d=" M 1434.546, 404.438 1431.908, 404.174 1429.287, 403.779 1426.689, 403.254 1424.120, 402.600 1421.587, 401.818 1419.096, 400.912 1416.654, 399.883 1414.266, 398.733 1411.938, 397.465 1409.676, 396.082 1407.486, 394.590 " />
            <path fill="none" stroke-width="3.0" stroke-linecap="butt" stroke-opacity="1.0" stroke="rgb(0, 0, 0)" stroke-linejoin="round" d=" M 1489.318, 335.756 1490.036, 338.308 " />
            <path fill="none" stroke-width="3.0" stroke-linecap="butt" stroke-opacity="1.0" stroke="rgb(0, 0, 0)" stroke-linejoin="round" d=" M 1488.474, 333.244 1489.318, 335.756 " />
            <path fill="none" stroke-width="3.0" stroke-linecap="butt" stroke-opacity="1.0" stroke="rgb(0, 0, 0)" stroke-linejoin="round" d=" M 1483.880, 323.705 1485.206, 326.001 1486.415, 328.360 1487.505, 330.776 1488.474, 333.244 " />
            <path fill="none" stroke-width="3.0" stroke-linecap="butt" stroke-opacity="1.0" stroke="rgb(0, 0, 0)" stroke-linejoin="round" d=" M 1469.551, 308.262 1471.664, 309.863 1473.695, 311.567 1475.637, 313.369 1477.489, 315.267 1479.242, 317.255 1480.895, 319.327 1482.442, 321.479 1483.880, 323.705 " />
            <path fill="none" stroke-width="3.0" stroke-linecap="butt" stroke-opacity="1.0" stroke="rgb(0, 0, 0)" stroke-linejoin="round" d=" M 1455.450, 301.033 1457.940, 301.939 1460.383, 302.969 1462.771, 304.119 1465.099, 305.387 1467.361, 306.769 1469.551, 308.262 " />
            <path fill="none" stroke-width="3.0" stroke-linecap="butt" stroke-opacity="1.0" stroke="rgb(0, 0, 0)" stroke-linejoin="round" d=" M 1424.120, 300.252 1426.689, 299.597 1429.287, 299.072 1431.908, 298.677 1434.546, 298.413 1437.193, 298.281 1439.844, 298.281 1442.491, 298.413 1445.129, 298.677 1447.750, 299.072 1450.348, 299.597 1452.917, 300.252 1455.450, 301.033 " />
            <path fill="none" stroke-width="3.0" stroke-linecap="butt" stroke-opacity="1.0" stroke="rgb(0, 0, 0)" stroke-linejoin="round" d=" M 1401.399, 389.482 1399.548, 387.585 1397.794, 385.597 1396.142, 383.525 1394.594, 381.373 1393.156, 379.146 " />
            <path fill="none" stroke-width="3.0" stroke-linecap="butt" stroke-opacity="1.0" stroke="rgb(0, 0, 0)" stroke-linejoin="round" d=" M 1391.831, 376.850 1390.622, 374.492 1389.531, 372.075 1388.563, 369.608 1387.719, 367.095 1387.001, 364.544 1386.411, 361.959 1385.951, 359.349 1385.621, 356.719 " />
            <path fill="none" stroke-width="3.0" stroke-linecap="butt" stroke-opacity="1.0" stroke="rgb(0, 0, 0)" stroke-linejoin="round" d=" M 1385.423, 348.776 1385.621, 346.133 " />
            <path fill="none" stroke-width="3.0" stroke-linecap="butt" stroke-opacity="1.0" stroke="rgb(0, 0, 0)" stroke-linejoin="round" d=" M 1385.621, 346.133 1385.951, 343.502 " />
            <path fill="none" stroke-width="3.0" stroke-linecap="butt" stroke-opacity="1.0" stroke="rgb(0, 0, 0)" stroke-linejoin="round" d=" M 1385.951, 343.502 1386.411, 340.892 " />
            <path fill="none" stroke-width="3.0" stroke-linecap="butt" stroke-opacity="1.0" stroke="rgb(0, 0, 0)" stroke-linejoin="round" d=" M 1386.411, 340.892 1387.001, 338.308 1387.719, 335.756 1388.563, 333.244 1389.531, 330.776 " />
            <path fill="none" stroke-width="3.0" stroke-linecap="butt" stroke-opacity="1.0" stroke="rgb(0, 0, 0)" stroke-linejoin="round" d=" M 117.423, 950.607 116.233, 960.536 115.043, 970.465 113.854, 980.394 112.664, 990.323 111.474, 1000.252 110.284, 1010.181 109.095, 1020.110 107.905, 1030.039 106.715, 1039.968 105.526, 1049.897 104.336, 1059.826 103.146, 1069.755 101.957, 1079.684 100.767, 1089.613 99.577, 1099.542 98.388, 1109.471 97.198, 1119.400 96.008, 1129.329 94.819, 1139.258 93.629, 1149.187 92.439, 1159.116 91.250, 1169.045 90.060, 1178.974 88.870, 1188.903 87.681, 1198.832 86.491, 1208.761 85.301, 1218.690 84.112, 1228.619 82.922, 1238.548 81.732, 1248.477 80.542, 1258.405 79.353, 1268.334 78.163, 1278.263 76.973, 1288.192 75.784, 1298.121 74.594, 1308.050 73.404, 1317.979 72.215, 1327.908 71.025, 1337.837 69.835, 1347.766 68.646, 1357.695 67.456, 1367.624 66.266, 1377.553 65.077, 1387.482 63.887, 1397.411 62.697, 1407.340 61.508, 1417.269 60.318, 1427.198 59.128, 1437.127 57.939, 1447.056 56.749, 1456.985 55.559, 1466.914 54.369, 1476.843 53.180, 1486.772 51.990, 1496.701 50.800, 1506.630 49.611, 1516.559 48.421, 1526.488 47.231, 1536.417 46.042, 1546.346 44.852, 1556.275 43.662, 1566.204 42.473, 1576.133 41.283, 1586.062 39.807, 1598.378 37.761, 1608.166 35.714, 1617.954 33.668, 1627.743 31.622, 1637.531 29.575, 1647.320 27.529, 1657.108 25.482, 1666.896 23.503, 1676.365 " />
            <path fill="none" stroke-width="3.0" stroke-linecap="butt" stroke-opacity="1.0" stroke="rgb(0, 0, 0)" stroke-linejoin="round" d=" M 1389.531, 330.776 1390.622, 328.360 1391.831, 326.001 1393.156, 323.705 " />
            <path fill="none" stroke-width="3.0" stroke-linecap="butt" stroke-opacity="1.0" stroke="rgb(0, 0, 0)" stroke-linejoin="round" d=" M 1393.156, 323.705 1394.594, 321.479 " />
            <path fill="none" stroke-width="3.0" stroke-linecap="butt" stroke-opacity="1.0" stroke="rgb(0, 0, 0)" stroke-linejoin="round" d=" M 1394.594, 321.479 1396.142, 319.327 " />
            <path fill="none" stroke-width="3.0" stroke-linecap="butt" stroke-opacity="1.0" stroke="rgb(0, 0, 0)" stroke-linejoin="round" d=" M 1396.142, 319.327 1397.794, 317.255 1399.548, 315.267 1401.399, 313.369 1403.343, 311.567 " />
            <path fill="none" stroke-width="3.0" stroke-linecap="butt" stroke-opacity="1.0" stroke="rgb(0, 0, 0)" stroke-linejoin="round" d=" M 1403.343, 311.567 1405.373, 309.863 1407.486, 308.262 1409.676, 306.769 1411.938, 305.387 1414.266, 304.119 1416.654, 302.969 1419.096, 301.939 1421.587, 301.033 1424.120, 300.252 " />
            <path fill="none" stroke-width="3.0" stroke-linecap="butt" stroke-opacity="1.0" stroke="rgb(0, 0, 0)" stroke-linejoin="round" d=" M 1216.665, 1676.371 1214.749, 1676.371 1212.122, 1676.371 1206.852, 1676.371 1201.672, 1676.371 1191.672, 1676.371 1181.672, 1676.371 1171.672, 1676.371 1161.672, 1676.371 1151.672, 1676.371 1141.672, 1676.371 1131.672, 1676.371 1121.672, 1676.371 1111.672, 1676.371 1101.672, 1676.371 1091.672, 1676.371 1081.672, 1676.371 1071.672, 1676.370 1061.672, 1676.370 1051.672, 1676.370 1041.672, 1676.370 1031.672, 1676.370 1021.672, 1676.370 1011.672, 1676.370 1001.672, 1676.370 991.672, 1676.370 981.672, 1676.370 971.672, 1676.370 961.672, 1676.370 951.672, 1676.370 941.672, 1676.370 931.672, 1676.370 921.672, 1676.370 911.672, 1676.370 901.672, 1676.370 891.672, 1676.370 881.672, 1676.370 871.672, 1676.370 861.672, 1676.370 851.672, 1676.370 841.672, 1676.369 831.672, 1676.369 821.672, 1676.369 811.672, 1676.369 801.672, 1676.369 791.672, 1676.369 781.672, 1676.369 771.672, 1676.369 761.672, 1676.369 751.672, 1676.369 741.672, 1676.369 731.672, 1676.369 718.720, 1676.369 715.716, 1676.369 714.570, 1676.369 712.525, 1676.368 " />
            <path fill="none" stroke-width="3.0" stroke-linecap="butt" stroke-opacity="1.0" stroke="rgb(0, 0, 0)" stroke-linejoin="round" d=" M 1152.591, 678.878 1150.072, 681.460 1147.427, 683.914 1144.663, 686.234 1141.787, 688.412 1138.807, 690.445 1135.728, 692.326 1132.559, 694.051 1129.308, 695.617 1125.984, 697.018 1122.594, 698.252 1119.146, 699.315 1115.650, 700.205 1112.114, 700.921 1108.546, 701.458 1104.956, 701.818 1101.352, 701.997 1097.745, 701.997 1094.141, 701.818 1090.551, 701.458 1086.984, 700.921 1083.447, 700.205 1079.951, 699.315 1076.503, 698.252 1073.113, 697.018 1069.788, 695.617 1066.538, 694.051 1063.369, 692.326 1060.291, 690.445 1057.310, 688.412 1054.434, 686.234 1051.670, 683.914 1049.025, 681.460 1046.506, 678.878 1044.119, 676.172 1041.870, 673.351 1039.763, 670.423 1037.806, 667.391 1036.002, 664.267 1034.356, 661.056 1032.872, 657.769 1031.554, 654.410 1030.405, 650.990 1029.428, 647.516 1028.625, 643.999 1027.998, 640.446 1027.550, 636.866 1027.280, 633.268 1027.190, 629.661 1027.280, 626.055 1027.550, 622.456 1027.998, 618.877 1028.625, 615.324 1029.428, 611.807 1030.405, 608.333 1031.554, 604.913 1032.872, 601.555 1034.356, 598.266 1036.002, 595.056 1037.806, 591.931 1039.763, 588.900 1041.870, 585.971 1044.119, 583.150 1046.506, 580.446 1049.025, 577.863 1051.670, 575.408 1054.434, 573.089 1057.310, 570.911 1060.291, 568.879 1063.369, 566.997 1066.538, 565.272 1069.788, 563.707 1073.113, 562.305 1076.503, 561.071 1079.951, 560.008 1083.447, 559.117 1086.984, 558.402 1090.551, 557.864 1094.141, 557.505 1097.745, 557.325 1101.352, 557.325 1104.956, 557.505 1108.546, 557.864 1112.114, 558.402 1115.650, 559.117 1119.146, 560.008 1122.594, 561.071 1125.984, 562.305 1129.308, 563.707 1132.559, 565.272 1135.728, 566.997 1138.807, 568.879 1141.787, 570.911 1144.663, 573.089 1147.427, 575.408 1150.072, 577.863 1152.591, 580.446 1154.978, 583.150 1157.228, 585.971 1159.334, 588.900 1161.291, 591.931 1163.095, 595.056 1164.741, 598.266 1166.225, 601.555 1167.543, 604.913 1168.692, 608.333 1169.669, 611.807 1170.473, 615.324 1171.099, 618.877 1171.547, 622.456 1171.817, 626.055 1171.907, 629.661 1171.817, 633.268 1171.547, 636.866 1171.099, 640.446 1170.473, 643.999 1169.669, 647.516 1168.692, 650.990 1167.543, 654.410 1166.225, 657.769 1164.741, 661.056 1163.095, 664.267 1161.291, 667.391 1159.334, 670.423 1157.228, 673.351 1154.978, 676.172 1152.591, 678.878 " />
            <path fill="none" stroke-width="3.0" stroke-linecap="butt" stroke-opacity="1.0" stroke="rgb(0, 0, 0)" stroke-linejoin="round" d=" M 1216.665, 1676.371 1226.665, 1676.371 1236.665, 1676.371 1246.665, 1676.371 1256.665, 1676.371 1266.665, 1676.371 1276.665, 1676.371 1286.665, 1676.371 1296.665, 1676.371 1306.665, 1676.371 1316.665, 1676.372 1326.665, 1676.372 1336.665, 1676.372 1346.665, 1676.372 1356.665, 1676.372 1366.665, 1676.372 1376.665, 1676.372 1386.665, 1676.372 1396.665, 1676.372 1406.665, 1676.372 1416.665, 1676.372 1426.665, 1676.372 1436.665, 1676.372 1446.665, 1676.372 1456.665, 1676.372 1466.665, 1676.372 1476.665, 1676.372 1486.665, 1676.372 1496.665, 1676.372 1506.665, 1676.372 1516.665, 1676.372 1526.665, 1676.373 1536.665, 1676.373 1546.665, 1676.373 1556.665, 1676.373 1566.665, 1676.373 1576.665, 1676.373 1586.665, 1676.373 1596.665, 1676.373 1606.665, 1676.373 1616.665, 1676.373 1626.665, 1676.373 1636.665, 1676.373 1646.665, 1676.373 1656.665, 1676.373 1666.665, 1676.373 1676.665, 1676.373 1686.665, 1676.373 1696.665, 1676.373 1706.665, 1676.373 1716.665, 1676.373 1726.665, 1676.373 1736.665, 1676.374 1746.665, 1676.374 1756.665, 1676.374 1766.665, 1676.374 1776.665, 1676.374 1786.665, 1676.374 1796.665, 1676.374 1806.665, 1676.374 1816.665, 1676.374 1826.665, 1676.374 1836.665, 1676.374 1846.665, 1676.374 1856.665, 1676.374 1866.665, 1676.374 1876.665, 1676.374 1886.665, 1676.374 1896.665, 1676.374 1906.665, 1676.374 1916.665, 1676.374 1926.665, 1676.374 1936.665, 1676.374 1946.665, 1676.375 1956.665, 1676.375 1966.665, 1676.375 1976.665, 1676.375 1986.665, 1676.375 1996.665, 1676.375 2006.665, 1676.375 2016.665, 1676.375 2026.665, 1676.375 2036.665, 1676.375 2046.665, 1676.375 2056.665, 1676.375 2066.665, 1676.375 2076.665, 1676.375 2086.665, 1676.375 2096.665, 1676.375 2106.665, 1676.375 2116.665, 1676.375 2126.665, 1676.375 2136.665, 1676.375 2146.665, 1676.375 2156.665, 1676.375 2166.665, 1676.376 2176.665, 1676.376 2186.665, 1676.376 2196.665, 1676.376 2206.665, 1676.376 2216.665, 1676.376 2226.665, 1676.376 2236.665, 1676.376 2246.665, 1676.376 2256.665, 1676.376 2266.665, 1676.376 2276.665, 1676.376 2286.665, 1676.376 2296.665, 1676.376 2306.665, 1676.376 2316.665, 1676.376 2326.665, 1676.376 2336.665, 1676.376 2346.665, 1676.376 2356.665, 1676.376 2366.665, 1676.376 2376.665, 1676.377 2386.665, 1676.377 2396.665, 1676.377 2406.665, 1676.377 2416.665, 1676.377 2426.665, 1676.377 2436.665, 1676.377 2446.665, 1676.377 2456.665, 1676.377 2466.665, 1676.377 2476.665, 1676.377 2486.665, 1676.377 2496.665, 1676.377 2506.665, 1676.377 2516.665, 1676.377 2526.665, 1676.377 2536.665, 1676.377 2554.902, 1676.377 " />
            <path fill="none" stroke-width="3.0" stroke-linecap="butt" stroke-opacity="1.0" stroke="rgb(0, 0, 0)" stroke-linejoin="round" d=" M 715.716, 1676.369 725.716, 1676.369 735.716, 1676.369 745.716, 1676.369 755.716, 1676.369 765.716, 1676.369 775.716, 1676.369 785.716, 1676.369 795.716, 1676.369 805.716, 1676.369 815.716, 1676.369 825.716, 1676.369 835.716, 1676.369 845.716, 1676.370 855.716, 1676.370 865.716, 1676.370 875.716, 1676.370 885.716, 1676.370 895.716, 1676.370 905.716, 1676.370 915.716, 1676.370 925.716, 1676.370 935.716, 1676.370 945.716, 1676.370 955.716, 1676.370 965.716, 1676.370 975.716, 1676.370 985.716, 1676.370 995.716, 1676.370 1005.716, 1676.370 1015.716, 1676.370 1025.716, 1676.370 1035.716, 1676.370 1045.716, 1676.370 1055.716, 1676.370 1065.716, 1676.371 1075.716, 1676.371 1085.716, 1676.371 1095.716, 1676.371 1105.716, 1676.371 1115.716, 1676.371 1125.716, 1676.371 1135.716, 1676.371 1145.716, 1676.371 1155.716, 1676.371 1165.716, 1676.371 1175.716, 1676.371 1185.716, 1676.371 1195.716, 1676.371 1205.716, 1676.371 1215.716, 1676.371 1225.716, 1676.371 1235.716, 1676.371 1245.716, 1676.371 1255.716, 1676.371 1265.716, 1676.371 1275.716, 1676.372 1285.716, 1676.372 1295.716, 1676.372 1305.716, 1676.372 1315.716, 1676.372 1325.716, 1676.372 1335.716, 1676.372 1345.716, 1676.372 1355.716, 1676.372 1365.716, 1676.372 1375.716, 1676.372 1385.716, 1676.372 1395.716, 1676.372 1405.716, 1676.372 1415.716, 1676.372 1425.716, 1676.372 1435.716, 1676.372 1445.716, 1676.372 1455.716, 1676.372 1465.716, 1676.372 1475.716, 1676.372 1485.716, 1676.372 1495.716, 1676.373 1505.716, 1676.373 1515.716, 1676.373 1525.716, 1676.373 1535.716, 1676.373 1545.716, 1676.373 1555.716, 1676.373 1565.716, 1676.373 1575.716, 1676.373 1585.716, 1676.373 1595.716, 1676.373 1605.716, 1676.373 1615.716, 1676.373 1625.716, 1676.373 1635.716, 1676.373 1645.716, 1676.373 1655.716, 1676.373 1665.716, 1676.373 1675.716, 1676.373 1685.716, 1676.373 1695.716, 1676.373 1705.716, 1676.373 1715.716, 1676.374 1725.716, 1676.374 1735.716, 1676.374 1745.716, 1676.374 1755.716, 1676.374 1765.716, 1676.374 1775.716, 1676.374 1785.716, 1676.374 1795.716, 1676.374 1805.716, 1676.374 1815.716, 1676.374 1825.716, 1676.374 1835.716, 1676.374 1845.716, 1676.374 1855.716, 1676.374 1865.716, 1676.374 1875.716, 1676.374 1885.716, 1676.374 1895.716, 1676.374 1905.716, 1676.374 1915.716, 1676.374 1925.716, 1676.374 1935.716, 1676.375 1945.716, 1676.375 1955.716, 1676.375 1965.716, 1676.375 1975.716, 1676.375 1985.716, 1676.375 1995.716, 1676.375 2005.716, 1676.375 2015.716, 1676.375 2025.716, 1676.375 2035.716, 1676.375 2045.716, 1676.375 2055.716, 1676.375 2065.716, 1676.375 2075.716, 1676.375 2085.716, 1676.375 2095.716, 1676.375 2105.716, 1676.375 2115.716, 1676.375 2125.716, 1676.375 2135.716, 1676.375 2145.716, 1676.375 2155.716, 1676.376 2165.716, 1676.376 2175.716, 1676.376 2185.716, 1676.376 2195.716, 1676.376 2205.716, 1676.376 2215.716, 1676.376 2225.716, 1676.376 2235.716, 1676.376 2245.716, 1676.376 2255.716, 1676.376 2265.716, 1676.376 2275.716, 1676.376 2285.716, 1676.376 2295.716, 1676.376 2305.716, 1676.376 2315.716, 1676.376 2325.716, 1676.376 2335.716, 1676.376 2345.716, 1676.376 2355.716, 1676.376 2365.716, 1676.377 2375.716, 1676.377 2385.716, 1676.377 2395.716, 1676.377 2405.716, 1676.377 2415.716, 1676.377 2425.716, 1676.377 2435.716, 1676.377 2445.716, 1676.377 2455.716, 1676.377 2465.716, 1676.377 2475.716, 1676.377 2485.716, 1676.377 2495.716, 1676.377 2505.716, 1676.377 2515.716, 1676.377 2525.716, 1676.377 2535.716, 1676.377 2554.902, 1676.377 " />
            <path fill="none" stroke-width="3.0" stroke-linecap="butt" stroke-opacity="1.0" stroke="rgb(0, 0, 0)" stroke-linejoin="round" d=" M 119.804, 836.002 119.596, 845.999 119.389, 855.997 119.181, 865.995 118.973, 875.993 118.765, 885.991 118.558, 895.989 118.350, 905.986 118.142, 915.984 117.934, 925.982 117.727, 935.980 117.519, 945.978 117.423, 950.607 " />
            <path fill="none" stroke-width="3.0" stroke-linecap="butt" stroke-opacity="1.0" stroke="rgb(0, 0, 0)" stroke-linejoin="round" d=" M 1385.423, 354.076 1385.357, 351.426 " />
            <path fill="none" stroke-width="3.0" stroke-linecap="butt" stroke-opacity="1.0" stroke="rgb(0, 0, 0)" stroke-linejoin="round" d=" M 1385.357, 351.426 1385.423, 348.776 " />
            <path fill="none" stroke-width="3.0" stroke-linecap="butt" stroke-opacity="1.0" stroke="rgb(0, 0, 0)" stroke-linejoin="round" d=" M 1385.621, 356.719 1385.423, 354.076 " />
            <path fill="none" stroke-width="3.0" stroke-linecap="butt" stroke-opacity="1.0" stroke="rgb(0, 0, 0)" stroke-linejoin="round" d=" M 1393.156, 379.146 1391.831, 376.850 " />
            <path fill="none" stroke-width="3.0" stroke-linecap="butt" stroke-opacity="1.0" stroke="rgb(0, 0, 0)" stroke-linejoin="round" d=" M 1403.343, 391.285 1401.399, 389.482 " />
            <path fill="none" stroke-width="3.0" stroke-linecap="butt" stroke-opacity="1.0" stroke="rgb(0, 0, 0)" stroke-linejoin="round" d=" M 1405.373, 392.988 1403.343, 391.285 " />
            <path fill="none" stroke-width="3.0" stroke-linecap="butt" stroke-opacity="1.0" stroke="rgb(0, 0, 0)" stroke-linejoin="round" d=" M 1407.486, 394.590 1405.373, 392.988 " />
            <path fill="none" stroke-width="3.0" stroke-linecap="butt" stroke-opacity="1.0" stroke="rgb(0, 0, 0)" stroke-linejoin="round" d=" M 1437.193, 404.571 1434.546, 404.438 " />
            <path fill="none" stroke-width="3.0" stroke-linecap="butt" stroke-opacity="1.0" stroke="rgb(0, 0, 0)" stroke-linejoin="round" d=" M 1467.361, 396.082 1465.099, 397.465 " />
            <path fill="none" stroke-width="3.0" stroke-linecap="butt" stroke-opacity="1.0" stroke="rgb(0, 0, 0)" stroke-linejoin="round" d=" M 1469.551, 394.590 1467.361, 396.082 " />
            <path fill="none" stroke-width="3.0" stroke-linecap="butt" stroke-opacity="1.0" stroke="rgb(0, 0, 0)" stroke-linejoin="round" d=" M 23.503, 1676.365 33.503, 1676.365 43.503, 1676.366 53.503, 1676.366 63.503, 1676.366 73.503, 1676.366 83.503, 1676.366 93.503, 1676.366 103.503, 1676.366 113.503, 1676.366 123.503, 1676.366 133.503, 1676.366 143.503, 1676.366 153.503, 1676.366 163.503, 1676.366 173.503, 1676.366 183.503, 1676.366 193.503, 1676.366 203.503, 1676.366 213.503, 1676.366 223.503, 1676.366 233.503, 1676.366 243.503, 1676.366 253.503, 1676.366 263.503, 1676.367 273.503, 1676.367 283.503, 1676.367 293.503, 1676.367 303.503, 1676.367 313.503, 1676.367 323.503, 1676.367 333.503, 1676.367 343.503, 1676.367 353.503, 1676.367 363.503, 1676.367 373.503, 1676.367 383.503, 1676.367 393.503, 1676.367 403.503, 1676.367 413.503, 1676.367 423.503, 1676.367 433.503, 1676.367 443.503, 1676.367 453.503, 1676.367 463.503, 1676.367 473.503, 1676.368 483.503, 1676.368 493.503, 1676.368 503.503, 1676.368 513.503, 1676.368 523.503, 1676.368 533.503, 1676.368 543.503, 1676.368 553.503, 1676.368 563.503, 1676.368 573.503, 1676.368 583.503, 1676.368 593.503, 1676.368 603.503, 1676.368 613.503, 1676.368 623.503, 1676.368 633.503, 1676.368 643.503, 1676.368 653.503, 1676.368 663.503, 1676.368 673.503, 1676.368 683.503, 1676.369 693.503, 1676.369 703.503, 1676.369 714.570, 1676.369 724.570, 1676.369 734.570, 1676.369 744.570, 1676.369 754.570, 1676.369 764.570, 1676.369 774.570, 1676.369 784.570, 1676.369 794.570, 1676.369 804.570, 1676.369 814.570, 1676.369 824.570, 1676.369 834.570, 1676.369 844.570, 1676.369 854.570, 1676.369 864.570, 1676.369 874.570, 1676.369 884.570, 1676.369 894.570, 1676.370 904.570, 1676.370 914.570, 1676.370 924.570, 1676.370 934.570, 1676.370 944.570, 1676.370 954.570, 1676.370 964.570, 1676.370 974.570, 1676.370 984.570, 1676.370 994.570, 1676.370 1004.570, 1676.370 1014.570, 1676.370 1024.570, 1676.370 1034.570, 1676.370 1044.570, 1676.370 1054.570, 1676.370 1064.570, 1676.370 1074.570, 1676.370 1084.570, 1676.370 1094.570, 1676.370 1104.570, 1676.371 1114.570, 1676.371 1124.570, 1676.371 1134.570, 1676.371 1144.570, 1676.371 1154.570, 1676.371 1164.570, 1676.371 1174.570, 1676.371 1184.570, 1676.371 1194.570, 1676.371 1204.570, 1676.371 1214.749, 1676.371 1224.749, 1676.371 1234.749, 1676.371 1244.749, 1676.371 1254.749, 1676.371 1264.749, 1676.371 1274.749, 1676.371 1284.749, 1676.371 1294.749, 1676.371 1304.749, 1676.371 1314.749, 1676.372 1324.749, 1676.372 1334.749, 1676.372 1344.749, 1676.372 1354.749, 1676.372 1364.749, 1676.372 1374.749, 1676.372 1384.749, 1676.372 1394.749, 1676.372 1404.749, 1676.372 1414.749, 1676.372 1424.749, 1676.372 1434.749, 1676.372 1444.749, 1676.372 1454.749, 1676.372 1464.749, 1676.372 1474.749, 1676.372 1484.749, 1676.372 1494.749, 1676.372 1504.749, 1676.372 1514.749, 1676.372 1524.749, 1676.373 1534.749, 1676.373 1544.749, 1676.373 1554.749, 1676.373 1564.749, 1676.373 1574.749, 1676.373 1584.749, 1676.373 1594.749, 1676.373 1604.749, 1676.373 1614.749, 1676.373 1624.749, 1676.373 1634.749, 1676.373 1644.749, 1676.373 1654.749, 1676.373 1664.749, 1676.373 1674.749, 1676.373 1684.749, 1676.373 1694.749, 1676.373 1704.749, 1676.373 1714.749, 1676.373 1724.749, 1676.373 1734.749, 1676.374 1744.749, 1676.374 1754.749, 1676.374 1764.749, 1676.374 1774.749, 1676.374 1784.749, 1676.374 1794.749, 1676.374 1804.749, 1676.374 1814.749, 1676.374 1824.749, 1676.374 1834.749, 1676.374 1844.749, 1676.374 1854.749, 1676.374 1864.749, 1676.374 1874.749, 1676.374 1884.749, 1676.374 1894.749, 1676.374 1904.749, 1676.374 1914.749, 1676.374 1924.749, 1676.374 1934.749, 1676.374 1944.749, 1676.374 1954.749, 1676.375 1964.749, 1676.375 1974.749, 1676.375 1984.749, 1676.375 1994.749, 1676.375 2004.749, 1676.375 2014.749, 1676.375 2024.749, 1676.375 2034.749, 1676.375 2044.749, 1676.375 2054.749, 1676.375 2064.749, 1676.375 2074.749, 1676.375 2084.749, 1676.375 2094.749, 1676.375 2104.749, 1676.375 2114.749, 1676.375 2124.749, 1676.375 2134.749, 1676.375 2144.749, 1676.375 2154.749, 1676.375 2164.749, 1676.376 2174.749, 1676.376 2184.749, 1676.376 2194.749, 1676.376 2204.749, 1676.376 2214.749, 1676.376 2224.749, 1676.376 2234.749, 1676.376 2244.749, 1676.376 2254.749, 1676.376 2264.749, 1676.376 2274.749, 1676.376 2284.749, 1676.376 2294.749, 1676.376 2304.749, 1676.376 2314.749, 1676.376 2324.749, 1676.376 2334.749, 1676.376 2344.749, 1676.376 2354.749, 1676.376 2364.749, 1676.376 2374.749, 1676.377 2384.749, 1676.377 2394.749, 1676.377 2404.749, 1676.377 2414.749, 1676.377 2424.749, 1676.377 2434.749, 1676.377 2444.749, 1676.377 2454.749, 1676.377 2464.749, 1676.377 2474.749, 1676.377 2484.749, 1676.377 2494.749, 1676.377 2504.749, 1676.377 2514.749, 1676.377 2524.749, 1676.377 2534.749, 1676.377 2554.902, 1676.377 " />
            <path fill="none" stroke-width="3.0" stroke-linecap="butt" stroke-opacity="1.0" stroke="rgb(0, 0, 0)" stroke-linejoin="round" d=" M 1269.396, 1676.371 1279.396, 1676.371 1289.396, 1676.371 1299.396, 1676.371 1309.396, 1676.371 1319.396, 1676.371 1329.396, 1676.371 1339.396, 1676.371 1349.396, 1676.371 1359.396, 1676.371 1369.396, 1676.372 1379.396, 1676.372 1389.396, 1676.372 1399.396, 1676.372 1409.396, 1676.372 1419.396, 1676.372 1429.396, 1676.372 1439.396, 1676.372 1449.396, 1676.372 1459.396, 1676.372 1469.396, 1676.372 1479.396, 1676.372 1489.396, 1676.372 1499.396, 1676.372 1509.396, 1676.372 1519.396, 1676.372 1529.396, 1676.372 1539.396, 1676.372 1549.396, 1676.372 1559.396, 1676.372 1569.396, 1676.373 1579.396, 1676.373 1589.396, 1676.373 1599.396, 1676.373 1609.396, 1676.373 1619.396, 1676.373 1629.396, 1676.373 1639.396, 1676.373 1649.396, 1676.373 1659.396, 1676.373 1669.396, 1676.373 1679.396, 1676.373 1689.396, 1676.373 1699.396, 1676.373 1709.396, 1676.373 1719.396, 1676.373 1729.396, 1676.373 1739.396, 1676.373 1749.396, 1676.373 1759.396, 1676.373 1769.396, 1676.374 1779.396, 1676.374 1789.396, 1676.374 1799.396, 1676.374 1809.396, 1676.374 1819.396, 1676.374 1829.396, 1676.374 1839.396, 1676.374 1849.396, 1676.374 1859.396, 1676.374 1869.396, 1676.374 1879.396, 1676.374 1889.396, 1676.374 1899.396, 1676.374 1909.396, 1676.374 1919.396, 1676.374 1929.396, 1676.374 1939.396, 1676.374 1949.396, 1676.374 1959.396, 1676.374 1969.396, 1676.374 1979.396, 1676.375 1989.396, 1676.375 1999.396, 1676.375 2009.396, 1676.375 2019.396, 1676.375 2029.396, 1676.375 2039.396, 1676.375 2049.396, 1676.375 2059.396, 1676.375 2069.396, 1676.375 2079.396, 1676.375 2089.396, 1676.375 2099.396, 1676.375 2109.396, 1676.375 2119.396, 1676.375 2129.396, 1676.375 2139.396, 1676.375 2149.396, 1676.375 2159.396, 1676.375 2169.396, 1676.375 2179.396, 1676.376 2189.396, 1676.376 2199.396, 1676.376 2209.396, 1676.376 2219.396, 1676.376 2229.396, 1676.376 2239.396, 1676.376 2249.396, 1676.376 2259.396, 1676.376 2269.396, 1676.376 2279.396, 1676.376 2289.396, 1676.376 2299.396, 1676.376 2309.396, 1676.376 2319.396, 1676.376 2329.396, 1676.376 2339.396, 1676.376 2349.396, 1676.376 2359.396, 1676.376 2369.396, 1676.376 2379.396, 1676.377 2389.396, 1676.377 2399.396, 1676.377 2409.396, 1676.377 2419.396, 1676.377 2429.396, 1676.377 2439.396, 1676.377 2449.396, 1676.377 2459.396, 1676.377 2469.396, 1676.377 2479.396, 1676.377 2489.396, 1676.377 2499.396, 1676.377 2509.396, 1676.377 2519.396, 1676.377 2529.396, 1676.377 2539.396, 1676.377 2554.902, 1676.377 " />
        </g>
    </g>
<g id="slice-labels"><text x="467.6721666666666" y="436.81825" text-anchor="middle" dominant-baseline="middle" font-family="Arial, sans-serif" font-size="59.06808237253431" font-weight="bold" fill="black" stroke="none" stroke-width="7.088169884704117" paint-order="stroke fill">Slice4 (Back)</text><text x="1356.0104999999999" y="436.81825" text-anchor="middle" dominant-baseline="middle" font-family="Arial, sans-serif" font-size="59.06808237253431" font-weight="bold" fill="black" stroke="none" stroke-width="7.088169884704117" paint-order="stroke fill">Slice4 (Back)</text><text x="2244.3488333333335" y="436.81825" text-anchor="middle" dominant-baseline="middle" font-family="Arial, sans-serif" font-size="59.06808237253431" font-weight="bold" fill="black" stroke="none" stroke-width="7.088169884704117" paint-order="stroke fill">Slice4 (Back)</text><text x="467.6721666666666" y="1263.19075" text-anchor="middle" dominant-baseline="middle" font-family="Arial, sans-serif" font-size="59.06808237253431" font-weight="bold" fill="black" stroke="none" stroke-width="7.088169884704117" paint-order="stroke fill">Slice4 (Back)</text><text x="1356.0104999999999" y="1263.19075" text-anchor="middle" dominant-baseline="middle" font-family="Arial, sans-serif" font-size="59.06808237253431" font-weight="bold" fill="black" stroke="none" stroke-width="7.088169884704117" paint-order="stroke fill">Slice4 (Back)</text><text x="2244.3488333333335" y="1263.19075" text-anchor="middle" dominant-baseline="middle" font-family="Arial, sans-serif" font-size="59.06808237253431" font-weight="bold" fill="black" stroke="none" stroke-width="7.088169884704117" paint-order="stroke fill">Slice4 (Back)</text></g></svg>