<?xml version='1.0' encoding='utf-8'?>
<svg xmlns="http://www.w3.org/2000/svg" xmlns:inkscape="http://www.inkscape.org/namespaces/inkscape" version="1.1" width="724.86301445961mm" height="154.75170993804932mm" viewBox="-0.7109379679531429 0.0050606778285882115 8562.421875935905 1827.9998786443427" preserveAspectRatio="none">
    <g id="ViewLayer_LineSet" inkscape:groupmode="lineset" inkscape:label="ViewLayer_LineSet">
        <g inkscape:groupmode="layer" id="strokes" inkscape:label="strokes">
            <path fill="none" stroke-width="3.0" stroke-linecap="butt" stroke-opacity="1.0" stroke="rgb(0, 0, 0)" stroke-linejoin="round" d=" M 8467.550, 985.239 8467.346, 995.237 8467.142, 1005.234 8466.938, 1015.232 8466.733, 1025.230 8466.529, 1035.228 8466.326, 1045.226 8466.122, 1055.224 8465.918, 1065.222 8465.714, 1075.220 8465.510, 1085.218 8465.306, 1095.216 8465.102, 1105.214 8464.897, 1115.212 8464.693, 1125.209 8464.489, 1135.207 8464.286, 1145.205 8464.137, 1152.490 " />
            <path fill="none" stroke-width="3.0" stroke-linecap="butt" stroke-opacity="1.0" stroke="rgb(0, 0, 0)" stroke-linejoin="round" d=" M 7678.694, 464.325 7676.175, 466.908 7673.531, 469.362 7670.767, 471.681 7667.892, 473.858 7664.911, 475.891 7661.833, 477.772 7658.665, 479.497 7655.414, 481.062 7652.090, 482.464 7648.700, 483.698 7645.252, 484.761 7641.756, 485.651 7638.220, 486.366 7634.653, 486.904 7631.063, 487.263 7627.460, 487.443 7623.853, 487.443 7620.250, 487.263 7616.660, 486.904 7613.093, 486.366 7609.557, 485.651 7606.061, 484.761 7602.614, 483.698 7599.224, 482.464 7595.899, 481.062 7592.649, 479.497 7589.481, 477.772 7586.403, 475.891 7583.423, 473.858 7580.546, 471.681 7577.783, 469.362 7575.139, 466.908 7572.619, 464.325 7570.232, 461.621 7567.983, 458.799 7565.878, 455.871 7563.920, 452.841 7562.117, 449.716 7560.470, 446.506 7558.987, 443.217 7557.669, 439.860 7556.520, 436.440 7555.542, 432.967 7554.740, 429.450 7554.113, 425.897 7553.665, 422.318 7553.396, 418.720 7553.306, 415.113 7553.396, 411.507 7553.665, 407.910 7554.113, 404.330 7554.740, 400.778 7555.542, 397.261 7556.520, 393.788 7557.669, 390.368 7558.987, 387.010 7560.470, 383.721 7562.117, 380.511 7563.920, 377.387 7565.878, 374.356 7567.983, 371.428 7570.232, 368.607 7572.619, 365.903 7575.139, 363.320 7577.783, 360.866 7580.546, 358.547 7583.423, 356.369 7586.403, 354.337 7589.481, 352.455 7592.649, 350.730 7595.899, 349.165 7599.224, 347.763 7602.614, 346.530 7606.061, 345.466 7609.557, 344.577 7613.093, 343.861 7616.660, 343.323 7620.250, 342.964 7623.853, 342.785 7627.460, 342.785 7631.063, 342.964 7634.653, 343.323 7638.220, 343.861 7641.756, 344.577 7645.252, 345.466 7648.700, 346.530 7652.090, 347.763 7655.414, 349.165 7658.665, 350.730 7661.833, 352.455 7664.911, 354.337 7667.892, 356.369 7670.767, 358.547 7673.531, 360.866 7676.175, 363.320 7678.694, 365.903 7681.081, 368.607 7683.331, 371.428 7685.437, 374.356 7687.394, 377.387 7689.198, 380.511 7690.843, 383.721 7692.327, 387.010 7693.645, 390.368 7694.794, 393.788 7695.771, 397.261 7696.574, 400.778 7697.200, 404.330 7697.649, 407.910 7697.918, 411.507 7698.008, 415.113 7697.918, 418.720 7697.649, 422.318 7697.200, 425.897 7696.574, 429.450 7695.771, 432.967 7694.794, 436.440 7693.645, 439.860 7692.327, 443.217 7690.843, 446.506 7689.198, 449.716 7687.394, 452.841 7685.437, 455.871 7683.331, 458.799 7681.081, 461.621 7678.694, 464.325 " />
            <path fill="none" stroke-width="3.0" stroke-linecap="butt" stroke-opacity="1.0" stroke="rgb(0, 0, 0)" stroke-linejoin="round" d=" M 760.907, 1804.380 754.081, 1797.073 747.254, 1789.765 740.427, 1782.458 733.601, 1775.151 726.774, 1767.844 719.947, 1760.536 713.121, 1753.229 706.294, 1745.922 699.467, 1738.614 692.641, 1731.307 685.814, 1724.000 678.987, 1716.692 672.161, 1709.385 665.334, 1702.078 658.507, 1694.770 651.681, 1687.463 644.854, 1680.156 638.027, 1672.849 631.201, 1665.541 624.374, 1658.234 617.547, 1650.927 610.721, 1643.619 603.894, 1636.312 597.067, 1629.005 590.241, 1621.697 583.414, 1614.390 576.587, 1607.083 569.761, 1599.775 562.934, 1592.468 556.107, 1585.161 549.281, 1577.854 542.454, 1570.546 535.627, 1563.239 528.801, 1555.932 521.974, 1548.624 515.147, 1541.317 508.321, 1534.010 501.494, 1526.702 494.667, 1519.395 487.841, 1512.088 481.014, 1504.780 474.188, 1497.473 469.936, 1492.922 " />
            <path fill="none" stroke-width="3.0" stroke-linecap="butt" stroke-opacity="1.0" stroke="rgb(0, 0, 0)" stroke-linejoin="round" d=" M 469.936, 1492.922 476.762, 1500.229 483.589, 1507.537 490.416, 1514.844 497.242, 1522.151 504.069, 1529.458 510.896, 1536.766 517.722, 1544.073 524.549, 1551.380 531.376, 1558.688 538.202, 1565.995 545.029, 1573.302 551.856, 1580.610 558.682, 1587.917 565.509, 1595.224 572.336, 1602.532 579.162, 1609.839 585.989, 1617.146 592.815, 1624.453 599.642, 1631.761 606.469, 1639.068 613.295, 1646.375 620.122, 1653.683 626.949, 1660.990 633.775, 1668.297 640.602, 1675.605 647.429, 1682.912 654.255, 1690.219 661.082, 1697.527 667.909, 1704.834 674.735, 1712.141 681.562, 1719.448 688.389, 1726.756 695.215, 1734.063 702.042, 1741.370 708.869, 1748.678 715.695, 1755.985 722.522, 1763.292 729.349, 1770.600 736.175, 1777.907 743.002, 1785.214 749.829, 1792.521 756.655, 1799.829 760.907, 1804.380 " />
            <path fill="none" stroke-width="3.0" stroke-linecap="butt" stroke-opacity="1.0" stroke="rgb(0, 0, 0)" stroke-linejoin="round" d=" M 415.397, 1397.698 420.367, 1406.376 425.337, 1415.053 430.307, 1423.731 435.277, 1432.408 440.247, 1441.086 445.217, 1449.763 450.187, 1458.441 455.157, 1467.118 460.127, 1475.796 465.097, 1484.473 469.936, 1492.922 " />
            <path fill="none" stroke-width="3.0" stroke-linecap="butt" stroke-opacity="1.0" stroke="rgb(0, 0, 0)" stroke-linejoin="round" d=" M 361.677, 1082.611 363.358, 1092.468 365.039, 1102.326 366.719, 1112.184 368.400, 1122.042 370.081, 1131.899 371.761, 1141.757 373.442, 1151.615 375.122, 1161.473 376.803, 1171.330 378.484, 1181.188 380.164, 1191.046 381.845, 1200.904 383.526, 1210.761 385.206, 1220.619 386.887, 1230.477 388.568, 1240.335 390.248, 1250.192 391.929, 1260.050 393.610, 1269.908 395.290, 1279.766 396.971, 1289.623 398.652, 1299.481 400.332, 1309.339 402.013, 1319.197 403.694, 1329.055 405.374, 1338.912 407.055, 1348.770 408.736, 1358.628 410.416, 1368.486 412.097, 1378.343 413.778, 1388.201 415.397, 1397.698 " />
            <path fill="none" stroke-width="3.0" stroke-linecap="butt" stroke-opacity="1.0" stroke="rgb(0, 0, 0)" stroke-linejoin="round" d=" M 22.914, 598.634 27.423, 607.560 31.931, 616.486 36.440, 625.412 40.949, 634.337 45.458, 643.263 49.967, 652.189 54.476, 661.115 58.985, 670.041 63.494, 678.966 68.003, 687.892 72.512, 696.818 77.020, 705.744 81.529, 714.670 86.038, 723.595 90.547, 732.521 95.056, 741.447 99.565, 750.373 104.074, 759.298 108.583, 768.224 113.092, 777.150 117.601, 786.076 122.110, 795.002 126.618, 803.927 131.127, 812.853 135.902, 822.305 142.454, 829.859 149.006, 837.414 155.559, 844.968 162.111, 852.522 168.663, 860.077 175.215, 867.631 181.768, 875.185 188.320, 882.740 194.872, 890.294 201.424, 897.849 207.977, 905.403 214.529, 912.957 221.081, 920.512 227.633, 928.066 234.186, 935.620 240.738, 943.175 247.290, 950.729 253.842, 958.283 260.395, 965.838 266.947, 973.392 273.499, 980.946 280.051, 988.501 286.604, 996.055 293.156, 1003.609 299.708, 1011.164 306.260, 1018.718 312.813, 1026.272 319.365, 1033.827 325.917, 1041.381 332.469, 1048.935 339.021, 1056.490 345.574, 1064.044 352.126, 1071.598 358.678, 1079.153 361.677, 1082.611 " />
            <path fill="none" stroke-width="3.0" stroke-linecap="butt" stroke-opacity="1.0" stroke="rgb(0, 0, 0)" stroke-linejoin="round" d=" M 2632.222, 23.630 2626.972, 23.630 2616.972, 23.630 2606.972, 23.630 2596.972, 23.630 2586.972, 23.630 2576.972, 23.630 2576.243, 23.630 2576.118, 23.630 2575.995, 23.630 2575.873, 23.630 2575.752, 23.630 2575.634, 23.630 2575.519, 23.630 2575.406, 23.630 2575.295, 23.630 2575.189, 23.630 2575.086, 23.630 2574.988, 23.630 2574.893, 23.630 2574.803, 23.630 2574.718, 23.630 2574.638, 23.630 2564.638, 23.630 2554.638, 23.630 2544.638, 23.630 2534.638, 23.630 2524.638, 23.630 2514.638, 23.630 2504.638, 23.630 2494.638, 23.630 2484.638, 23.630 2474.638, 23.630 2464.638, 23.630 2454.638, 23.630 2444.638, 23.630 2434.638, 23.630 2424.638, 23.630 2414.638, 23.630 2404.638, 23.630 2394.638, 23.630 2384.638, 23.630 2374.638, 23.630 2364.638, 23.630 2354.638, 23.630 2344.638, 23.630 2334.638, 23.630 2324.638, 23.630 2314.638, 23.630 2304.638, 23.630 2294.638, 23.630 2284.638, 23.630 2274.638, 23.630 2264.638, 23.630 2254.638, 23.630 2244.638, 23.630 2234.638, 23.630 2224.638, 23.630 2214.638, 23.630 2204.638, 23.630 2194.638, 23.630 2184.638, 23.630 2174.638, 23.630 2164.638, 23.630 2154.638, 23.630 2144.638, 23.630 2134.638, 23.630 2124.638, 23.630 2114.638, 23.630 2104.638, 23.630 2094.638, 23.630 2084.638, 23.630 2074.638, 23.630 2064.638, 23.630 2054.638, 23.630 2040.244, 23.630 2039.074, 23.630 2037.944, 23.630 2027.944, 23.630 2017.944, 23.630 2007.944, 23.630 1997.944, 23.630 1987.944, 23.630 1977.944, 23.630 1967.944, 23.630 1957.944, 23.630 1947.944, 23.630 1937.944, 23.630 1927.944, 23.630 1917.944, 23.630 1907.944, 23.630 1897.944, 23.630 1887.944, 23.630 1877.944, 23.630 1867.944, 23.630 1857.944, 23.630 1847.944, 23.630 1837.944, 23.630 1827.944, 23.630 1817.944, 23.630 1807.944, 23.630 1797.944, 23.630 1787.944, 23.630 1777.944, 23.630 1767.944, 23.630 1757.944, 23.630 1747.944, 23.630 1737.944, 23.630 1727.944, 23.630 1717.944, 23.630 1707.944, 23.630 1697.944, 23.630 1687.944, 23.630 1677.944, 23.630 1667.944, 23.630 1657.944, 23.630 1647.944, 23.630 1637.944, 23.630 1627.944, 23.630 1617.944, 23.630 1607.944, 23.630 1597.944, 23.630 1587.944, 23.630 1577.944, 23.630 1567.944, 23.630 1557.944, 23.630 1547.944, 23.630 1537.944, 23.630 1527.944, 23.630 1517.944, 23.630 1507.944, 23.630 1497.944, 23.630 1487.944, 23.630 1477.944, 23.630 1467.944, 23.630 1457.944, 23.630 1447.944, 23.630 1437.944, 23.630 1427.944, 23.630 1417.944, 23.630 1407.944, 23.630 1397.944, 23.630 1387.944, 23.630 1377.944, 23.630 1367.944, 23.630 1357.944, 23.630 1347.944, 23.630 1337.944, 23.630 1327.944, 23.630 1317.944, 23.630 1307.944, 23.630 1297.944, 23.630 1287.944, 23.630 1277.944, 23.630 1267.944, 23.630 1257.944, 23.630 1247.944, 23.630 1237.944, 23.630 1227.944, 23.630 1217.944, 23.630 1207.944, 23.630 1197.944, 23.630 1187.944, 23.630 1177.944, 23.630 1167.944, 23.630 1157.944, 23.630 1147.944, 23.630 1137.944, 23.630 1127.944, 23.630 1117.944, 23.630 1107.944, 23.630 1097.944, 23.630 1087.944, 23.630 1077.944, 23.630 1067.944, 23.630 1057.944, 23.630 1047.944, 23.630 1037.944, 23.630 1027.944, 23.630 1017.944, 23.630 1007.944, 23.630 997.944, 23.630 987.944, 23.630 977.944, 23.630 967.944, 23.630 957.944, 23.630 947.944, 23.630 937.944, 23.630 927.944, 23.630 917.944, 23.630 907.944, 23.630 897.944, 23.630 887.944, 23.630 877.944, 23.630 867.944, 23.630 857.944, 23.630 847.944, 23.630 837.944, 23.630 827.944, 23.630 817.944, 23.630 807.944, 23.630 797.944, 23.630 787.944, 23.630 777.944, 23.630 767.944, 23.630 757.944, 23.630 747.944, 23.630 737.944, 23.630 727.944, 23.630 717.944, 23.630 707.944, 23.630 697.944, 23.630 687.944, 23.630 677.944, 23.630 667.944, 23.630 657.944, 23.630 647.944, 23.630 637.944, 23.630 627.944, 23.630 617.944, 23.630 607.944, 23.630 597.944, 23.630 587.944, 23.630 577.944, 23.630 567.944, 23.630 557.944, 23.630 547.944, 23.630 537.944, 23.630 527.944, 23.630 517.944, 23.630 507.944, 23.630 497.944, 23.630 487.944, 23.630 477.944, 23.630 467.944, 23.630 457.944, 23.630 447.944, 23.630 437.944, 23.630 427.944, 23.630 417.944, 23.630 407.944, 23.630 397.944, 23.630 387.944, 23.630 377.944, 23.630 367.944, 23.630 357.944, 23.630 347.944, 23.630 337.944, 23.630 327.944, 23.630 317.944, 23.630 307.944, 23.630 297.944, 23.630 287.944, 23.630 277.944, 23.630 267.944, 23.630 257.944, 23.630 247.944, 23.630 237.944, 23.630 227.944, 23.630 217.944, 23.630 207.944, 23.630 197.944, 23.630 170.709, 23.630 160.709, 23.630 150.709, 23.630 140.709, 23.630 130.709, 23.630 120.709, 23.630 110.709, 23.630 100.709, 23.630 96.692, 23.630 99.976, 33.075 103.260, 42.521 105.816, 49.872 105.158, 59.851 104.501, 69.829 103.843, 79.807 103.185, 89.786 102.528, 99.764 101.870, 109.742 101.212, 119.721 100.555, 129.699 99.897, 139.677 99.239, 149.656 98.582, 159.634 97.924, 169.612 97.266, 179.591 96.609, 189.569 95.951, 199.547 95.294, 209.526 94.636, 219.504 93.978, 229.483 93.321, 239.461 92.663, 249.439 92.005, 259.418 91.348, 269.396 90.690, 279.374 90.411, 283.599 88.316, 293.377 86.221, 303.156 84.126, 312.934 82.031, 322.712 79.936, 332.490 77.841, 342.268 75.746, 352.046 73.651, 361.824 71.556, 371.602 69.461, 381.380 67.366, 391.158 65.271, 400.936 63.176, 410.714 61.081, 420.493 58.986, 430.271 56.891, 440.049 54.796, 449.827 52.701, 459.605 50.606, 469.383 48.511, 479.161 46.416, 488.939 44.321, 498.717 42.226, 508.495 40.131, 518.273 38.036, 528.052 35.941, 537.830 33.846, 547.608 31.751, 557.386 29.656, 567.164 27.561, 576.942 25.466, 586.720 22.914, 598.634 " />
            <path fill="none" stroke-width="3.0" stroke-linecap="butt" stroke-opacity="1.0" stroke="rgb(0, 0, 0)" stroke-linejoin="round" d=" M 8464.137, 1152.490 8464.341, 1142.492 8464.545, 1132.494 8464.749, 1122.496 8464.953, 1112.498 8465.157, 1102.500 8465.361, 1092.502 8465.565, 1082.504 8465.770, 1072.506 8465.973, 1062.508 8466.177, 1052.510 8466.381, 1042.512 8466.585, 1032.515 8466.789, 1022.517 8466.993, 1012.519 8467.197, 1002.521 8467.401, 992.523 8467.550, 985.239 8466.540, 975.290 8465.530, 965.341 8464.521, 955.392 8463.511, 945.443 8462.500, 935.494 8461.490, 925.545 8460.480, 915.596 8459.471, 905.648 8458.461, 895.699 8457.451, 885.750 8456.441, 875.801 8455.432, 865.852 8454.422, 855.903 8453.412, 845.954 8452.402, 836.005 8451.393, 826.057 8450.382, 816.108 8449.372, 806.159 8448.362, 796.210 8447.353, 786.261 8446.343, 776.312 8445.333, 766.363 8444.323, 756.414 8443.313, 746.466 8442.304, 736.517 8441.294, 726.568 8440.284, 716.619 8439.273, 706.670 8438.264, 696.721 8437.254, 686.772 8436.244, 676.823 8435.234, 666.875 8434.225, 656.926 8433.215, 646.977 8432.205, 637.028 8431.195, 627.079 8430.186, 617.130 8429.176, 607.181 8428.166, 597.232 8427.155, 587.283 8426.146, 577.335 8425.136, 567.386 8424.126, 557.437 8423.116, 547.488 8422.106, 537.539 8421.097, 527.590 8420.087, 517.641 8419.077, 507.692 8418.067, 497.744 8417.058, 487.795 8416.047, 477.846 8415.037, 467.897 8414.027, 457.948 8413.018, 447.999 8412.008, 438.050 8410.998, 428.101 8410.024, 418.509 " />
            <path fill="none" stroke-width="3.0" stroke-linecap="butt" stroke-opacity="1.0" stroke="rgb(0, 0, 0)" stroke-linejoin="round" d=" M 8501.665, 1553.116 8501.075, 1543.134 8500.485, 1533.151 8499.896, 1523.169 8499.306, 1513.186 8498.717, 1503.203 8498.127, 1493.221 8497.537, 1483.238 8496.947, 1473.256 8496.357, 1463.273 8495.768, 1453.290 8495.178, 1443.308 8494.588, 1433.325 8493.998, 1423.343 8493.408, 1413.360 8492.818, 1403.378 8492.229, 1393.395 8491.640, 1383.412 8491.050, 1373.430 8490.460, 1363.447 8489.870, 1353.465 8489.280, 1343.482 8488.690, 1333.499 8488.101, 1323.517 8487.511, 1313.534 8486.921, 1303.552 8486.331, 1293.569 8485.741, 1283.586 8485.151, 1273.604 8484.825, 1268.072 8483.063, 1258.228 8481.301, 1248.385 8479.539, 1238.541 8477.777, 1228.698 8476.016, 1218.854 8474.254, 1209.010 8472.492, 1199.167 8470.729, 1189.323 8468.968, 1179.480 8467.206, 1169.636 8465.444, 1159.793 8464.137, 1152.490 " />
            <path fill="none" stroke-width="3.0" stroke-linecap="butt" stroke-opacity="1.0" stroke="rgb(0, 0, 0)" stroke-linejoin="round" d=" M 7529.924, 1052.538 7527.405, 1055.120 7524.760, 1057.573 7521.997, 1059.893 7519.121, 1062.071 7516.140, 1064.104 7513.062, 1065.984 7509.895, 1067.710 7506.644, 1069.275 7503.320, 1070.676 7499.930, 1071.910 7496.482, 1072.973 7492.987, 1073.864 7489.450, 1074.578 7485.883, 1075.116 7482.294, 1075.475 7478.690, 1075.655 7475.083, 1075.655 7471.480, 1075.475 7467.891, 1075.116 7464.323, 1074.578 7460.787, 1073.864 7457.291, 1072.973 7453.844, 1071.910 7450.454, 1070.676 7447.129, 1069.275 7443.879, 1067.710 7440.711, 1065.984 7437.633, 1064.104 7434.652, 1062.071 7431.776, 1059.893 7429.013, 1057.573 7426.368, 1055.120 7423.850, 1052.538 7421.462, 1049.833 7419.213, 1047.012 7417.107, 1044.083 7415.150, 1041.052 7413.346, 1037.928 7411.700, 1034.718 7410.217, 1031.430 7408.898, 1028.072 7407.750, 1024.651 7406.773, 1021.180 7405.970, 1017.663 7405.344, 1014.109 7404.895, 1010.530 7404.625, 1006.932 7404.536, 1003.326 7404.625, 999.719 7404.895, 996.122 7405.344, 992.543 7405.970, 988.990 7406.773, 985.473 7407.750, 982.001 7408.898, 978.581 7410.217, 975.222 7411.700, 971.934 7413.346, 968.724 7415.150, 965.600 7417.107, 962.569 7419.213, 959.640 7421.462, 956.819 7423.850, 954.115 7426.368, 951.532 7429.013, 949.079 7431.776, 946.759 7434.652, 944.582 7437.633, 942.549 7440.711, 940.668 7443.879, 938.943 7447.129, 937.378 7450.454, 935.976 7453.844, 934.742 7457.291, 933.679 7460.787, 932.788 7464.323, 932.074 7467.891, 931.536 7471.480, 931.177 7475.083, 930.997 7478.690, 930.997 7482.294, 931.177 7485.883, 931.536 7489.450, 932.074 7492.987, 932.788 7496.482, 933.679 7499.930, 934.742 7503.320, 935.976 7506.644, 937.378 7509.895, 938.943 7513.062, 940.668 7516.140, 942.549 7519.121, 944.582 7521.997, 946.759 7524.760, 949.079 7527.405, 951.532 7529.924, 954.115 7532.311, 956.819 7534.561, 959.640 7536.666, 962.569 7538.624, 965.600 7540.427, 968.724 7542.073, 971.934 7543.556, 975.222 7544.875, 978.581 7546.024, 982.001 7547.000, 985.473 7547.803, 988.990 7548.430, 992.543 7548.878, 996.122 7549.148, 999.719 7549.238, 1003.326 7549.148, 1006.932 7548.878, 1010.530 7548.430, 1014.109 7547.803, 1017.663 7547.000, 1021.180 7546.024, 1024.651 7544.875, 1028.072 7543.556, 1031.430 7542.073, 1034.718 7540.427, 1037.928 7538.624, 1041.052 7536.666, 1044.083 7534.561, 1047.012 7532.311, 1049.833 7529.924, 1052.538 " />
            <path fill="none" stroke-width="3.0" stroke-linecap="butt" stroke-opacity="1.0" stroke="rgb(0, 0, 0)" stroke-linejoin="round" d=" M 8490.435, 1804.380 8500.435, 1804.380 8510.435, 1804.380 8520.435, 1804.380 8530.435, 1804.380 8538.086, 1804.380 " />
            <path fill="none" stroke-width="3.0" stroke-linecap="butt" stroke-opacity="1.0" stroke="rgb(0, 0, 0)" stroke-linejoin="round" d=" M 6930.795, 1804.380 6940.795, 1804.380 6950.795, 1804.380 6960.795, 1804.379 6970.795, 1804.379 6980.795, 1804.379 6990.795, 1804.379 7000.795, 1804.379 7010.795, 1804.378 7020.795, 1804.378 7030.795, 1804.378 7040.795, 1804.378 7050.795, 1804.378 7060.795, 1804.377 7070.795, 1804.377 7080.795, 1804.377 7090.795, 1804.377 7100.795, 1804.377 7110.795, 1804.376 7120.795, 1804.376 7130.795, 1804.376 7140.795, 1804.376 7150.795, 1804.375 7160.795, 1804.375 7170.795, 1804.375 7180.795, 1804.375 7190.795, 1804.375 7200.795, 1804.374 7210.795, 1804.374 7220.795, 1804.374 7230.795, 1804.374 7240.795, 1804.374 7250.795, 1804.373 7260.795, 1804.373 7270.795, 1804.373 7280.795, 1804.373 7290.795, 1804.373 7300.795, 1804.372 7310.795, 1804.372 7320.795, 1804.372 7330.795, 1804.372 7340.795, 1804.372 7350.795, 1804.371 7360.795, 1804.371 7370.795, 1804.371 7380.795, 1804.371 7390.795, 1804.370 7400.795, 1804.370 7410.795, 1804.370 7420.795, 1804.370 7430.795, 1804.370 7440.795, 1804.369 7450.795, 1804.369 7460.795, 1804.369 7470.795, 1804.369 7480.795, 1804.369 7490.795, 1804.368 7500.795, 1804.368 7510.795, 1804.368 7520.795, 1804.368 7530.795, 1804.368 7540.795, 1804.367 7550.795, 1804.367 7560.795, 1804.367 7570.795, 1804.367 7580.795, 1804.367 7590.795, 1804.366 7600.795, 1804.366 7610.795, 1804.366 7620.795, 1804.366 7630.795, 1804.365 7640.795, 1804.365 7650.795, 1804.365 7660.795, 1804.365 7670.795, 1804.365 7680.795, 1804.364 7690.795, 1804.364 7700.795, 1804.364 7710.795, 1804.364 7720.795, 1804.364 7730.795, 1804.363 7740.795, 1804.363 7750.795, 1804.363 7760.795, 1804.363 7770.795, 1804.363 7780.795, 1804.362 7790.795, 1804.362 7800.795, 1804.362 7810.795, 1804.362 7820.795, 1804.362 7830.795, 1804.361 7840.795, 1804.361 7850.795, 1804.361 7860.795, 1804.361 7870.795, 1804.360 7880.795, 1804.360 7890.795, 1804.360 7900.795, 1804.360 7910.795, 1804.360 7920.795, 1804.359 7930.795, 1804.359 7940.795, 1804.359 7950.795, 1804.359 7960.795, 1804.359 7970.795, 1804.358 7980.795, 1804.358 7990.795, 1804.358 8000.795, 1804.358 8010.795, 1804.358 8020.795, 1804.357 8030.795, 1804.357 8040.795, 1804.357 8050.795, 1804.357 8060.795, 1804.357 8070.795, 1804.356 8080.795, 1804.356 8090.795, 1804.356 8100.795, 1804.356 8110.795, 1804.355 8120.795, 1804.355 8130.795, 1804.355 8140.795, 1804.355 8150.795, 1804.355 8160.795, 1804.354 8170.795, 1804.354 8180.795, 1804.354 8190.795, 1804.354 8200.796, 1804.354 8210.796, 1804.353 8220.796, 1804.353 8230.796, 1804.353 8240.796, 1804.353 8250.796, 1804.353 8260.796, 1804.352 8270.796, 1804.352 8280.796, 1804.352 8290.796, 1804.352 8300.796, 1804.352 8310.796, 1804.351 8320.796, 1804.351 8330.796, 1804.351 8346.171, 1804.351 8356.171, 1804.350 8366.171, 1804.350 8376.171, 1804.350 8386.171, 1804.350 8396.171, 1804.350 8406.171, 1804.349 8416.171, 1804.349 8426.171, 1804.349 8436.171, 1804.349 8446.171, 1804.348 8456.171, 1804.348 8466.171, 1804.348 8476.171, 1804.348 8486.171, 1804.348 8488.377, 1804.348 8489.829, 1804.348 8490.090, 1804.310 8490.435, 1804.380 " />
            <path fill="none" stroke-width="3.0" stroke-linecap="butt" stroke-opacity="1.0" stroke="rgb(0, 0, 0)" stroke-linejoin="round" d=" M 6770.438, 1804.380 6780.438, 1804.380 6790.438, 1804.380 6800.438, 1804.380 6810.438, 1804.380 6820.438, 1804.380 6830.438, 1804.380 6840.438, 1804.380 6850.438, 1804.380 6860.438, 1804.380 6870.438, 1804.380 6880.438, 1804.380 6890.438, 1804.380 6900.438, 1804.380 6910.438, 1804.380 6920.438, 1804.380 6926.140, 1804.380 6926.884, 1804.380 6927.606, 1804.380 6928.302, 1804.380 6928.971, 1804.380 6929.611, 1804.380 6930.220, 1804.380 6930.795, 1804.380 " />
            <path fill="none" stroke-width="3.0" stroke-linecap="butt" stroke-opacity="1.0" stroke="rgb(0, 0, 0)" stroke-linejoin="round" d=" M 6747.045, 1648.670 6748.531, 1658.559 6750.017, 1668.448 6751.502, 1678.337 6752.988, 1688.226 6754.474, 1698.115 6755.959, 1708.004 6757.445, 1717.893 6758.931, 1727.782 6760.417, 1737.671 6761.902, 1747.560 6763.388, 1757.449 6764.874, 1767.338 6766.359, 1777.227 6767.845, 1787.116 6769.331, 1797.005 6770.438, 1804.380 " />
            <path fill="none" stroke-width="3.0" stroke-linecap="butt" stroke-opacity="1.0" stroke="rgb(0, 0, 0)" stroke-linejoin="round" d=" M 6718.097, 1295.011 6718.913, 1304.978 6719.729, 1314.945 6720.544, 1324.911 6721.360, 1334.878 6722.176, 1344.845 6722.992, 1354.811 6723.808, 1364.778 6724.624, 1374.745 6725.439, 1384.711 6726.255, 1394.678 6727.071, 1404.645 6727.887, 1414.611 6728.703, 1424.578 6729.518, 1434.544 6730.334, 1444.511 6731.150, 1454.478 6731.966, 1464.445 6732.782, 1474.411 6733.598, 1484.378 6734.413, 1494.345 6735.229, 1504.311 6736.045, 1514.278 6736.861, 1524.245 6737.677, 1534.211 6738.492, 1544.178 6739.308, 1554.145 6740.124, 1564.111 6740.940, 1574.078 6741.756, 1584.044 6742.571, 1594.011 6743.387, 1603.978 6744.203, 1613.944 6745.019, 1623.911 6745.835, 1633.878 6746.651, 1643.844 6747.045, 1648.670 " />
            <path fill="none" stroke-width="3.0" stroke-linecap="butt" stroke-opacity="1.0" stroke="rgb(0, 0, 0)" stroke-linejoin="round" d=" M 8410.024, 418.509 8408.200, 408.677 8406.375, 398.845 8404.551, 389.013 8402.727, 379.181 8400.901, 369.349 8399.077, 359.516 8397.253, 349.684 8395.428, 339.852 8393.604, 330.020 8391.779, 320.188 8389.954, 310.356 8388.130, 300.524 8386.306, 290.691 8384.480, 280.859 8382.656, 271.027 8380.832, 261.195 8379.007, 251.363 8377.183, 241.531 8375.358, 231.698 8373.533, 221.866 8371.709, 212.034 8369.885, 202.202 8368.060, 192.370 8366.235, 182.538 8364.411, 172.706 8362.586, 162.874 8360.762, 153.041 8358.938, 143.209 8357.112, 133.377 8355.288, 123.545 8353.464, 113.713 8351.639, 103.881 8349.814, 94.048 8347.990, 84.216 8346.165, 74.384 8344.341, 64.552 8342.517, 54.720 8340.691, 44.888 8338.867, 35.056 8336.747, 23.630 8326.747, 23.630 8316.747, 23.630 8306.747, 23.630 8296.747, 23.630 8286.747, 23.630 8276.747, 23.630 8266.747, 23.630 8256.747, 23.630 8246.747, 23.630 8236.747, 23.630 8226.747, 23.630 8216.747, 23.630 8206.747, 23.630 8196.747, 23.630 8186.747, 23.630 8176.747, 23.630 8166.747, 23.630 8156.747, 23.630 8146.747, 23.630 8136.747, 23.630 8126.747, 23.630 8116.747, 23.630 8106.747, 23.630 8096.747, 23.630 8086.747, 23.630 8076.747, 23.630 8066.747, 23.630 8056.747, 23.630 8046.747, 23.630 8036.747, 23.630 8026.747, 23.630 8016.747, 23.630 8006.747, 23.630 7996.747, 23.630 7986.747, 23.630 7976.747, 23.630 7966.747, 23.630 7956.747, 23.630 7946.747, 23.630 7936.747, 23.630 7926.747, 23.630 7916.747, 23.630 7906.747, 23.630 7898.277, 23.630 7894.394, 23.630 7890.433, 23.630 7886.405, 23.630 7882.324, 23.630 7878.200, 23.630 7874.048, 23.630 7869.882, 23.630 7865.714, 23.630 7861.559, 23.630 7857.431, 23.630 7853.344, 23.630 7849.728, 23.630 7849.312, 23.630 7845.349, 23.630 7841.469, 23.630 7837.687, 23.630 7834.013, 23.630 7830.463, 23.630 7827.048, 23.630 7823.779, 23.630 7820.668, 23.630 7817.724, 23.630 7814.958, 23.630 7804.958, 23.630 7794.958, 23.630 7784.958, 23.630 7774.958, 23.630 7764.958, 23.630 7754.958, 23.630 7744.958, 23.630 7734.958, 23.630 7724.958, 23.630 7714.958, 23.630 7704.958, 23.630 7694.958, 23.630 7684.958, 23.630 7674.958, 23.630 7664.958, 23.630 7654.958, 23.630 7644.958, 23.630 7634.958, 23.630 7624.958, 23.630 7614.958, 23.630 7604.958, 23.630 7594.958, 23.630 7584.958, 23.630 7574.958, 23.630 7564.958, 23.630 7554.958, 23.630 7544.958, 23.630 7534.958, 23.630 7524.958, 23.630 7514.958, 23.630 7504.958, 23.630 7494.958, 23.630 7484.958, 23.630 7474.958, 23.630 7464.958, 23.630 7454.958, 23.630 7444.958, 23.630 7434.958, 23.630 7424.958, 23.630 7414.958, 23.630 7404.958, 23.630 7394.958, 23.630 7384.958, 23.630 7374.958, 23.630 7364.958, 23.630 7354.958, 23.630 7344.958, 23.630 7334.958, 23.630 7324.958, 23.630 7314.958, 23.630 7304.958, 23.630 7294.958, 23.630 7284.958, 23.630 7274.958, 23.630 7264.958, 23.630 7254.958, 23.630 7240.803, 23.630 7230.803, 23.630 7220.803, 23.630 7210.803, 23.630 7200.803, 23.630 7190.803, 23.630 7180.803, 23.630 7170.803, 23.630 7160.803, 23.630 7150.803, 23.630 7140.803, 23.630 7130.803, 23.630 7120.803, 23.630 7110.803, 23.630 7100.803, 23.630 7090.803, 23.630 7080.803, 23.630 7070.803, 23.630 7060.803, 23.630 7050.803, 23.630 7040.803, 23.630 7030.803, 23.630 7020.803, 23.630 7014.822, 23.630 7011.047, 23.630 7007.106, 23.630 7003.015, 23.630 6998.792, 23.630 6994.454, 23.630 6990.019, 23.630 6985.505, 23.630 6980.931, 23.630 6970.931, 23.630 6960.931, 23.630 6950.931, 23.630 6940.931, 23.630 6930.931, 23.630 6920.931, 23.630 6910.931, 23.630 6900.931, 23.630 6890.931, 23.630 6880.931, 23.630 6870.931, 23.630 6860.931, 23.630 6850.931, 23.630 6840.931, 23.630 6830.931, 23.630 6820.931, 23.630 6810.931, 23.630 6800.931, 23.630 6790.931, 23.630 6780.931, 23.630 6770.931, 23.630 6760.931, 23.630 6750.931, 23.630 6740.931, 23.630 6734.753, 23.630 6732.268, 23.630 6729.761, 23.630 6727.247, 23.630 6724.734, 23.630 6722.231, 23.630 6719.748, 23.630 6709.748, 23.630 6699.748, 23.630 6689.748, 23.630 6679.748, 23.630 6669.748, 23.630 6659.748, 23.630 6649.748, 23.630 6639.748, 23.630 6629.748, 23.630 6619.748, 23.630 6609.748, 23.630 6599.748, 23.630 6589.748, 23.630 6579.748, 23.630 6569.748, 23.630 6559.197, 23.630 6561.208, 33.425 6563.220, 43.221 6565.231, 53.017 6567.242, 62.812 6569.253, 72.608 6571.265, 82.404 6573.276, 92.199 6575.288, 101.995 6577.299, 111.791 6579.310, 121.586 6581.321, 131.382 6583.333, 141.177 6585.344, 150.973 6587.355, 160.769 6589.367, 170.564 6591.378, 180.360 6593.390, 190.156 6595.401, 199.951 6597.412, 209.747 6599.423, 219.543 6601.435, 229.338 6603.446, 239.134 6605.458, 248.930 6607.469, 258.725 6609.480, 268.521 6611.492, 278.316 6613.503, 288.112 6615.514, 297.908 6617.525, 307.703 6619.537, 317.499 6621.548, 327.295 6623.560, 337.090 6624.351, 340.944 " />
            <path fill="none" stroke-width="3.0" stroke-linecap="butt" stroke-opacity="1.0" stroke="rgb(0, 0, 0)" stroke-linejoin="round" d=" M 6624.446, 900.370 6626.755, 910.100 6629.064, 919.829 6631.373, 929.559 6633.682, 939.289 6635.991, 949.019 6638.300, 958.748 6640.609, 968.478 6642.917, 978.208 6645.227, 987.938 6647.536, 997.668 6649.845, 1007.397 6652.153, 1017.127 6654.462, 1026.857 6656.771, 1036.587 6659.080, 1046.317 6661.389, 1056.046 6663.698, 1065.776 6666.007, 1075.506 6668.316, 1085.236 6670.625, 1094.966 6672.934, 1104.695 6675.243, 1114.425 6677.552, 1124.155 6679.860, 1133.885 6682.169, 1143.615 6684.479, 1153.344 6686.788, 1163.074 6689.096, 1172.804 6691.405, 1182.534 6693.714, 1192.263 6696.023, 1201.993 6698.332, 1211.723 6700.641, 1221.453 6702.950, 1231.183 6705.259, 1240.912 6707.568, 1250.642 6709.876, 1260.372 6712.186, 1270.102 6714.495, 1279.832 6716.804, 1289.561 6718.097, 1295.011 " />
            <path fill="none" stroke-width="3.0" stroke-linecap="butt" stroke-opacity="1.0" stroke="rgb(0, 0, 0)" stroke-linejoin="round" d=" M 6624.351, 340.944 6623.581, 350.915 6622.811, 360.885 6622.042, 370.855 6621.271, 380.826 6620.502, 390.796 6619.732, 400.766 6618.962, 410.737 6618.192, 420.707 6617.422, 430.677 6616.653, 440.648 6615.883, 450.618 6615.113, 460.588 6614.343, 470.559 6613.574, 480.529 6612.804, 490.499 6612.034, 500.470 6611.264, 510.440 6610.494, 520.410 6609.725, 530.381 6608.955, 540.351 6608.185, 550.321 6607.415, 560.292 6606.645, 570.262 6605.875, 580.232 6605.105, 590.203 6604.336, 600.173 6603.566, 610.143 6602.796, 620.114 6602.026, 630.084 6601.256, 640.054 6600.487, 650.025 6599.717, 659.995 6598.793, 671.958 6599.909, 681.896 6601.025, 691.833 6602.142, 701.771 6603.257, 711.708 6604.374, 721.646 6605.490, 731.583 6606.606, 741.521 6607.722, 751.458 6608.838, 761.396 6609.954, 771.334 6611.070, 781.271 6612.186, 791.209 6613.302, 801.146 6614.418, 811.084 6615.535, 821.021 6616.651, 830.959 6617.767, 840.896 6618.883, 850.834 6619.999, 860.771 6621.115, 870.709 6622.231, 880.646 6623.347, 890.584 6624.446, 900.370 " />
            <path fill="none" stroke-width="3.0" stroke-linecap="butt" stroke-opacity="1.0" stroke="rgb(0, 0, 0)" stroke-linejoin="round" d=" M 760.907, 1804.380 770.907, 1804.380 780.907, 1804.380 790.907, 1804.380 800.907, 1804.380 810.907, 1804.380 820.907, 1804.380 830.907, 1804.380 840.907, 1804.380 850.907, 1804.380 860.907, 1804.380 870.907, 1804.380 880.907, 1804.380 890.907, 1804.380 900.907, 1804.380 910.907, 1804.380 920.907, 1804.380 930.907, 1804.380 940.907, 1804.380 950.907, 1804.380 960.907, 1804.380 970.907, 1804.380 980.907, 1804.380 990.907, 1804.380 1000.907, 1804.380 1010.907, 1804.380 1020.907, 1804.380 1030.907, 1804.380 1040.907, 1804.380 1050.907, 1804.380 1060.907, 1804.380 1070.907, 1804.380 1075.904, 1804.380 1076.516, 1804.380 1077.142, 1804.380 1077.780, 1804.380 1078.427, 1804.380 1079.084, 1804.380 1079.746, 1804.380 1080.414, 1804.380 1081.085, 1804.380 1081.756, 1804.380 1082.427, 1804.380 1083.095, 1804.380 1083.759, 1804.380 1084.416, 1804.380 1085.064, 1804.380 1085.702, 1804.380 1086.328, 1804.380 1086.939, 1804.380 1087.535, 1804.380 1088.113, 1804.380 1088.671, 1804.380 1089.209, 1804.380 1089.724, 1804.380 1099.724, 1804.380 1109.724, 1804.380 1119.724, 1804.380 1129.724, 1804.380 1139.724, 1804.380 1149.724, 1804.380 1159.724, 1804.380 1169.724, 1804.380 1179.724, 1804.380 1189.724, 1804.380 1199.724, 1804.380 1209.724, 1804.380 1219.724, 1804.380 1229.724, 1804.380 1239.724, 1804.380 1249.724, 1804.380 1259.724, 1804.380 1269.724, 1804.380 1279.724, 1804.380 1289.724, 1804.380 1299.724, 1804.380 1309.724, 1804.380 1319.724, 1804.380 1329.724, 1804.380 1339.724, 1804.380 1349.724, 1804.380 1359.724, 1804.380 1369.724, 1804.380 1379.724, 1804.380 1391.180, 1804.380 1392.341, 1804.380 1393.470, 1804.380 1394.562, 1804.380 1395.615, 1804.380 1396.627, 1804.380 1397.594, 1804.380 1398.514, 1804.380 1408.514, 1804.380 1418.514, 1804.380 1428.514, 1804.380 1438.514, 1804.380 1448.514, 1804.380 1458.514, 1804.380 1468.514, 1804.380 1478.514, 1804.380 1488.514, 1804.380 1498.514, 1804.380 1508.514, 1804.380 1518.514, 1804.380 1528.514, 1804.380 1538.514, 1804.380 1548.514, 1804.380 1558.514, 1804.380 1568.514, 1804.380 1578.514, 1804.380 1588.514, 1804.380 1598.514, 1804.380 1608.514, 1804.380 1618.514, 1804.380 1628.514, 1804.380 1638.514, 1804.380 1648.514, 1804.380 1658.514, 1804.380 1668.514, 1804.380 1678.514, 1804.380 1688.514, 1804.380 1698.514, 1804.380 1708.514, 1804.380 1718.514, 1804.380 1728.514, 1804.380 1738.514, 1804.380 1748.514, 1804.380 1758.514, 1804.380 1768.514, 1804.380 1778.514, 1804.380 1788.514, 1804.380 1798.514, 1804.380 1808.514, 1804.380 1818.514, 1804.380 1828.514, 1804.380 1838.514, 1804.380 1848.514, 1804.380 1858.514, 1804.380 1868.514, 1804.380 1878.514, 1804.380 1888.514, 1804.380 1898.514, 1804.380 1908.514, 1804.380 1918.514, 1804.380 1928.514, 1804.380 1938.514, 1804.380 1948.514, 1804.380 1958.514, 1804.380 1968.514, 1804.380 1978.514, 1804.380 1988.514, 1804.380 1998.514, 1804.380 2008.514, 1804.380 2018.514, 1804.380 2028.514, 1804.380 2038.514, 1804.380 2048.514, 1804.380 2058.514, 1804.380 2068.514, 1804.380 2078.514, 1804.380 2088.514, 1804.380 2098.514, 1804.380 2108.514, 1804.380 2118.514, 1804.380 2128.514, 1804.380 2138.514, 1804.380 2148.514, 1804.380 2158.514, 1804.380 2168.514, 1804.380 2178.514, 1804.380 2188.514, 1804.380 2198.514, 1804.380 2208.514, 1804.380 2218.514, 1804.380 2228.514, 1804.380 2238.514, 1804.380 2248.514, 1804.380 2258.514, 1804.380 2268.514, 1804.380 2278.514, 1804.380 2288.514, 1804.380 2298.514, 1804.380 2308.514, 1804.380 2318.514, 1804.380 2328.514, 1804.380 2338.514, 1804.380 2348.514, 1804.380 2358.514, 1804.380 2368.514, 1804.380 2378.514, 1804.380 2388.514, 1804.380 2398.514, 1804.380 2408.514, 1804.380 2418.514, 1804.380 2428.514, 1804.380 2438.514, 1804.380 2448.514, 1804.380 2458.514, 1804.380 2468.514, 1804.380 2478.514, 1804.380 2488.514, 1804.380 2498.514, 1804.380 2508.514, 1804.380 2518.514, 1804.380 2528.514, 1804.380 2538.514, 1804.380 2548.514, 1804.380 2558.514, 1804.380 2568.514, 1804.380 2578.514, 1804.380 2588.514, 1804.380 2598.514, 1804.380 2608.514, 1804.380 2618.514, 1804.380 2628.514, 1804.380 2638.514, 1804.380 2648.514, 1804.380 2658.514, 1804.380 2668.514, 1804.380 2678.514, 1804.380 2688.514, 1804.380 2698.514, 1804.380 2708.514, 1804.380 2718.514, 1804.380 2728.514, 1804.380 2738.514, 1804.380 2748.514, 1804.380 2758.514, 1804.380 2768.514, 1804.380 2778.514, 1804.380 2788.514, 1804.380 2798.514, 1804.380 2808.514, 1804.380 2818.514, 1804.380 2828.514, 1804.380 2838.514, 1804.380 2848.514, 1804.380 2858.514, 1804.380 2868.514, 1804.380 2878.514, 1804.380 2888.514, 1804.380 2898.514, 1804.380 2908.514, 1804.380 2918.514, 1804.380 2928.514, 1804.380 2938.514, 1804.380 2948.514, 1804.380 2958.514, 1804.380 2968.514, 1804.380 2978.514, 1804.380 2988.514, 1804.380 2998.514, 1804.380 3008.514, 1804.380 3018.514, 1804.380 3028.514, 1804.380 3038.514, 1804.380 3048.514, 1804.380 3058.514, 1804.380 3068.514, 1804.380 3078.514, 1804.380 3088.514, 1804.380 3098.514, 1804.380 3108.514, 1804.380 3118.514, 1804.380 3128.514, 1804.380 3138.514, 1804.380 3148.514, 1804.380 3168.282, 1804.380 3178.282, 1804.380 3181.208, 1804.380 3188.730, 1804.380 3198.730, 1804.380 3208.575, 1804.380 " />
            <path fill="none" stroke-width="3.0" stroke-linecap="butt" stroke-opacity="1.0" stroke="rgb(0, 0, 0)" stroke-linejoin="round" d=" M 1737.169, 1036.629 1735.960, 1038.987 1734.635, 1041.283 1733.197, 1043.509 1731.650, 1045.661 1729.997, 1047.733 1728.243, 1049.720 1726.393, 1051.618 1724.450, 1053.421 1722.419, 1055.125 " />
            <path fill="none" stroke-width="3.0" stroke-linecap="butt" stroke-opacity="1.0" stroke="rgb(0, 0, 0)" stroke-linejoin="round" d=" M 3208.575, 1804.380 3205.064, 1795.017 3204.403, 1793.254 3202.948, 1783.361 3201.493, 1773.467 3200.038, 1763.573 3198.583, 1753.680 3197.128, 1743.786 3195.673, 1733.893 3194.218, 1723.999 3192.763, 1714.106 3191.308, 1704.212 3189.853, 1694.318 3188.397, 1684.425 3186.943, 1674.531 3185.488, 1664.638 3184.032, 1654.744 3182.577, 1644.851 3181.122, 1634.957 3179.667, 1625.063 3178.212, 1615.170 3176.757, 1605.276 3175.302, 1595.383 3173.847, 1585.489 3172.392, 1575.596 3170.937, 1565.702 3169.482, 1555.808 3168.027, 1545.915 3166.572, 1536.021 3165.117, 1526.128 3163.662, 1516.234 3162.207, 1506.340 3160.752, 1496.447 3159.297, 1486.553 3157.842, 1476.660 3156.387, 1466.766 3154.932, 1456.873 3153.477, 1446.979 3152.022, 1437.085 3150.567, 1427.192 3149.112, 1417.298 3147.656, 1407.405 3146.202, 1397.511 3144.747, 1387.618 3143.292, 1377.724 3141.836, 1367.830 3140.381, 1357.937 3138.927, 1348.043 3137.471, 1338.150 3136.016, 1328.256 3134.561, 1318.363 3133.106, 1308.469 3131.651, 1298.575 3130.196, 1288.682 3128.741, 1278.788 3127.286, 1268.895 3125.831, 1259.001 3124.376, 1249.107 3122.921, 1239.214 3121.466, 1229.320 3120.011, 1219.427 3118.556, 1209.533 3117.101, 1199.640 3115.646, 1189.746 3114.191, 1179.852 3112.736, 1169.959 3111.646, 1162.547 3107.806, 1153.313 3105.915, 1148.769 " />
            <path fill="none" stroke-width="3.0" stroke-linecap="butt" stroke-opacity="1.0" stroke="rgb(0, 0, 0)" stroke-linejoin="round" d=" M 1720.307, 1056.724 1718.117, 1058.218 1715.855, 1059.600 1713.527, 1060.867 1711.139, 1062.017 1708.697, 1063.046 1706.207, 1063.953 1703.674, 1064.735 1701.105, 1065.388 " />
            <path fill="none" stroke-width="3.0" stroke-linecap="butt" stroke-opacity="1.0" stroke="rgb(0, 0, 0)" stroke-linejoin="round" d=" M 1741.839, 1021.487 1741.379, 1024.098 1740.789, 1026.682 1740.071, 1029.233 " />
            <path fill="none" stroke-width="3.0" stroke-linecap="butt" stroke-opacity="1.0" stroke="rgb(0, 0, 0)" stroke-linejoin="round" d=" M 1734.635, 985.848 1735.960, 988.143 1737.169, 990.502 1738.259, 992.917 1739.227, 995.384 1740.071, 997.897 1740.789, 1000.449 1741.379, 1003.033 1741.839, 1005.643 1742.169, 1008.273 1742.367, 1010.916 1742.433, 1013.565 1742.367, 1016.215 1742.169, 1018.858 1741.839, 1021.487 " />
            <path fill="none" stroke-width="3.0" stroke-linecap="butt" stroke-opacity="1.0" stroke="rgb(0, 0, 0)" stroke-linejoin="round" d=" M 1693.249, 1066.573 1690.602, 1066.705 1687.952, 1066.705 1685.305, 1066.573 1682.667, 1066.308 1680.047, 1065.914 " />
            <path fill="none" stroke-width="3.0" stroke-linecap="butt" stroke-opacity="1.0" stroke="rgb(0, 0, 0)" stroke-linejoin="round" d=" M 1680.047, 1065.914 1677.449, 1065.388 1674.880, 1064.735 1672.348, 1063.953 1669.857, 1063.046 1667.415, 1062.017 1665.026, 1060.867 1662.699, 1059.600 1660.437, 1058.218 1658.248, 1056.724 " />
            <path fill="none" stroke-width="3.0" stroke-linecap="butt" stroke-opacity="1.0" stroke="rgb(0, 0, 0)" stroke-linejoin="round" d=" M 1733.197, 983.621 1734.635, 985.848 " />
            <path fill="none" stroke-width="3.0" stroke-linecap="butt" stroke-opacity="1.0" stroke="rgb(0, 0, 0)" stroke-linejoin="round" d=" M 1728.243, 977.410 1729.997, 979.397 1731.650, 981.469 1733.197, 983.621 " />
            <path fill="none" stroke-width="3.0" stroke-linecap="butt" stroke-opacity="1.0" stroke="rgb(0, 0, 0)" stroke-linejoin="round" d=" M 1656.135, 1055.125 1654.104, 1053.421 1652.161, 1051.618 1650.311, 1049.720 1648.557, 1047.733 1646.905, 1045.661 1645.357, 1043.509 1643.919, 1041.283 1642.594, 1038.987 1641.385, 1036.629 1640.295, 1034.213 1639.327, 1031.745 " />
            <path fill="none" stroke-width="3.0" stroke-linecap="butt" stroke-opacity="1.0" stroke="rgb(0, 0, 0)" stroke-linejoin="round" d=" M 1718.117, 968.912 1720.307, 970.406 1722.419, 972.006 1724.450, 973.710 1726.393, 975.513 1728.243, 977.410 " />
            <path fill="none" stroke-width="3.0" stroke-linecap="butt" stroke-opacity="1.0" stroke="rgb(0, 0, 0)" stroke-linejoin="round" d=" M 1711.139, 965.113 1713.527, 966.263 1715.855, 967.530 1718.117, 968.912 " />
            <path fill="none" stroke-width="3.0" stroke-linecap="butt" stroke-opacity="1.0" stroke="rgb(0, 0, 0)" stroke-linejoin="round" d=" M 1698.508, 961.217 1701.105, 961.741 1703.674, 962.396 1706.207, 963.177 1708.697, 964.083 1711.139, 965.113 " />
            <path fill="none" stroke-width="3.0" stroke-linecap="butt" stroke-opacity="1.0" stroke="rgb(0, 0, 0)" stroke-linejoin="round" d=" M 2985.250, 656.500 2980.302, 647.810 2975.354, 639.120 2970.406, 630.431 2965.458, 621.741 2960.509, 613.051 2955.561, 604.361 2950.613, 595.671 2945.665, 586.981 2940.717, 578.291 2935.768, 569.601 2930.820, 560.911 2925.872, 552.221 2920.924, 543.531 2915.975, 534.841 2911.027, 526.151 2906.079, 517.461 2901.131, 508.771 2896.182, 500.081 2891.234, 491.391 2886.286, 482.702 2881.338, 474.012 2876.390, 465.322 2871.441, 456.632 2866.493, 447.942 2861.545, 439.252 2856.597, 430.562 2851.648, 421.872 2846.700, 413.182 2841.752, 404.492 2836.804, 395.802 2831.855, 387.112 2826.907, 378.422 2821.959, 369.732 2817.011, 361.042 2812.062, 352.352 2807.114, 343.662 2802.166, 334.973 2797.218, 326.283 2792.270, 317.593 2787.322, 308.903 2782.373, 300.213 2777.425, 291.523 2772.477, 282.833 2767.529, 274.143 2762.580, 265.453 2757.632, 256.763 2752.684, 248.073 2747.736, 239.383 2742.787, 230.693 2737.839, 222.003 2732.891, 213.313 2727.943, 204.623 2724.212, 198.072 2720.181, 188.920 2716.151, 179.768 2712.121, 170.616 2708.090, 161.464 2704.060, 152.312 2700.029, 143.161 2695.999, 134.009 2691.969, 124.857 2687.938, 115.705 2683.907, 106.553 2679.877, 97.402 2675.847, 88.250 2672.247, 80.075 " />
            <path fill="none" stroke-width="3.0" stroke-linecap="butt" stroke-opacity="1.0" stroke="rgb(0, 0, 0)" stroke-linejoin="round" d=" M 1695.887, 960.822 1698.508, 961.217 " />
            <path fill="none" stroke-width="3.0" stroke-linecap="butt" stroke-opacity="1.0" stroke="rgb(0, 0, 0)" stroke-linejoin="round" d=" M 1693.249, 960.558 1695.887, 960.822 " />
            <path fill="none" stroke-width="3.0" stroke-linecap="butt" stroke-opacity="1.0" stroke="rgb(0, 0, 0)" stroke-linejoin="round" d=" M 1690.602, 960.425 1693.249, 960.558 " />
            <path fill="none" stroke-width="3.0" stroke-linecap="butt" stroke-opacity="1.0" stroke="rgb(0, 0, 0)" stroke-linejoin="round" d=" M 1660.437, 968.912 1662.699, 967.530 1665.026, 966.263 1667.415, 965.113 1669.857, 964.083 1672.348, 963.177 1674.880, 962.396 1677.449, 961.741 1680.047, 961.217 1682.667, 960.822 1685.305, 960.558 1687.952, 960.425 1690.602, 960.425 " />
            <path fill="none" stroke-width="3.0" stroke-linecap="butt" stroke-opacity="1.0" stroke="rgb(0, 0, 0)" stroke-linejoin="round" d=" M 1638.482, 997.897 1639.327, 995.384 1640.295, 992.917 1641.385, 990.502 1642.594, 988.143 1643.919, 985.848 1645.357, 983.621 1646.905, 981.469 1648.557, 979.397 1650.311, 977.410 1652.161, 975.513 " />
            <path fill="none" stroke-width="3.0" stroke-linecap="butt" stroke-opacity="1.0" stroke="rgb(0, 0, 0)" stroke-linejoin="round" d=" M 1636.187, 1016.215 1636.121, 1013.565 1636.187, 1010.916 1636.385, 1008.273 1636.714, 1005.643 1637.175, 1003.033 1637.765, 1000.449 1638.482, 997.897 " />
            <path fill="none" stroke-width="3.0" stroke-linecap="butt" stroke-opacity="1.0" stroke="rgb(0, 0, 0)" stroke-linejoin="round" d=" M 1654.104, 973.710 1656.135, 972.006 1658.248, 970.406 1660.437, 968.912 " />
            <path fill="none" stroke-width="3.0" stroke-linecap="butt" stroke-opacity="1.0" stroke="rgb(0, 0, 0)" stroke-linejoin="round" d=" M 1652.161, 975.513 1654.104, 973.710 " />
            <path fill="none" stroke-width="3.0" stroke-linecap="butt" stroke-opacity="1.0" stroke="rgb(0, 0, 0)" stroke-linejoin="round" d=" M 1636.385, 1018.858 1636.187, 1016.215 " />
            <path fill="none" stroke-width="3.0" stroke-linecap="butt" stroke-opacity="1.0" stroke="rgb(0, 0, 0)" stroke-linejoin="round" d=" M 1636.714, 1021.487 1636.385, 1018.858 " />
            <path fill="none" stroke-width="3.0" stroke-linecap="butt" stroke-opacity="1.0" stroke="rgb(0, 0, 0)" stroke-linejoin="round" d=" M 1637.175, 1024.098 1636.714, 1021.487 " />
            <path fill="none" stroke-width="3.0" stroke-linecap="butt" stroke-opacity="1.0" stroke="rgb(0, 0, 0)" stroke-linejoin="round" d=" M 1637.765, 1026.682 1637.175, 1024.098 " />
            <path fill="none" stroke-width="3.0" stroke-linecap="butt" stroke-opacity="1.0" stroke="rgb(0, 0, 0)" stroke-linejoin="round" d=" M 1638.482, 1029.233 1637.765, 1026.682 " />
            <path fill="none" stroke-width="3.0" stroke-linecap="butt" stroke-opacity="1.0" stroke="rgb(0, 0, 0)" stroke-linejoin="round" d=" M 1639.327, 1031.745 1638.482, 1029.233 " />
            <path fill="none" stroke-width="3.0" stroke-linecap="butt" stroke-opacity="1.0" stroke="rgb(0, 0, 0)" stroke-linejoin="round" d=" M 1658.248, 1056.724 1656.135, 1055.125 " />
            <path fill="none" stroke-width="3.0" stroke-linecap="butt" stroke-opacity="1.0" stroke="rgb(0, 0, 0)" stroke-linejoin="round" d=" M 1695.887, 1066.308 1693.249, 1066.573 " />
            <path fill="none" stroke-width="3.0" stroke-linecap="butt" stroke-opacity="1.0" stroke="rgb(0, 0, 0)" stroke-linejoin="round" d=" M 1698.508, 1065.914 1695.887, 1066.308 " />
            <path fill="none" stroke-width="3.0" stroke-linecap="butt" stroke-opacity="1.0" stroke="rgb(0, 0, 0)" stroke-linejoin="round" d=" M 1701.105, 1065.388 1698.508, 1065.914 " />
            <path fill="none" stroke-width="3.0" stroke-linecap="butt" stroke-opacity="1.0" stroke="rgb(0, 0, 0)" stroke-linejoin="round" d=" M 1722.419, 1055.125 1720.307, 1056.724 " />
            <path fill="none" stroke-width="3.0" stroke-linecap="butt" stroke-opacity="1.0" stroke="rgb(0, 0, 0)" stroke-linejoin="round" d=" M 1738.259, 1034.213 1737.169, 1036.629 " />
            <path fill="none" stroke-width="3.0" stroke-linecap="butt" stroke-opacity="1.0" stroke="rgb(0, 0, 0)" stroke-linejoin="round" d=" M 1739.227, 1031.745 1738.259, 1034.213 " />
            <path fill="none" stroke-width="3.0" stroke-linecap="butt" stroke-opacity="1.0" stroke="rgb(0, 0, 0)" stroke-linejoin="round" d=" M 1740.071, 1029.233 1739.227, 1031.745 " />
            <path fill="none" stroke-width="3.0" stroke-linecap="butt" stroke-opacity="1.0" stroke="rgb(0, 0, 0)" stroke-linejoin="round" d=" M 2672.247, 80.075 2666.462, 71.918 2660.678, 63.760 2654.894, 55.603 2649.110, 47.446 2643.325, 39.288 2637.541, 31.131 2632.222, 23.630 " />
            <path fill="none" stroke-width="3.0" stroke-linecap="butt" stroke-opacity="1.0" stroke="rgb(0, 0, 0)" stroke-linejoin="round" d=" M 3105.915, 1148.769 3103.535, 1139.056 3101.154, 1129.344 3098.773, 1119.631 3096.393, 1109.919 3094.012, 1100.206 3091.631, 1090.494 3089.250, 1080.781 3086.870, 1071.069 3084.489, 1061.356 3082.108, 1051.644 3079.727, 1041.931 3077.347, 1032.219 3074.966, 1022.506 3072.585, 1012.794 3070.205, 1003.081 3067.824, 993.369 3065.443, 983.656 3063.062, 973.944 3060.682, 964.232 3058.301, 954.519 3055.920, 944.807 3053.540, 935.094 3051.159, 925.382 3048.778, 915.669 3046.397, 905.957 3044.017, 896.244 3041.636, 886.532 3039.255, 876.819 3036.875, 867.107 3034.494, 857.394 3032.113, 847.682 3029.732, 837.969 3027.352, 828.257 3024.971, 818.544 3022.590, 808.832 3020.209, 799.119 3017.829, 789.407 3015.448, 779.694 3013.067, 769.982 3010.687, 760.270 3008.306, 750.557 3005.925, 740.845 3003.544, 731.132 3001.164, 721.420 2998.783, 711.707 2996.402, 701.995 2994.021, 692.282 2991.641, 682.570 2989.260, 672.857 2986.879, 663.145 2985.250, 656.500 " />
            <path fill="none" stroke-width="3.0" stroke-linecap="butt" stroke-opacity="1.0" stroke="rgb(0, 0, 0)" stroke-linejoin="round" d=" M 8538.086, 1804.380 8536.651, 1794.483 8535.218, 1784.587 8533.783, 1774.690 8532.349, 1764.794 8530.914, 1754.897 8529.479, 1745.001 8528.045, 1735.104 8526.610, 1725.207 8525.176, 1715.311 8523.741, 1705.414 8522.307, 1695.518 8520.872, 1685.621 8519.438, 1675.725 8518.003, 1665.828 8516.568, 1655.931 8515.134, 1646.035 8513.699, 1636.138 8512.265, 1626.242 8510.830, 1616.345 8509.396, 1606.449 8507.961, 1596.552 8506.526, 1586.655 8505.092, 1576.759 8503.657, 1566.862 8502.223, 1556.966 8501.665, 1553.116 " />
        </g>
    </g>
<g id="slice-labels"><text x="555.1122499999999" y="468.8175" text-anchor="middle" dominant-baseline="middle" font-family="Arial, sans-serif" font-size="59.06234830542852" font-weight="bold" fill="black" stroke="none" stroke-width="7.0874817966514225" paint-order="stroke fill">Slice25 (Front)</text><text x="1619.5087499999997" y="468.8175" text-anchor="middle" dominant-baseline="middle" font-family="Arial, sans-serif" font-size="59.06234830542852" font-weight="bold" fill="black" stroke="none" stroke-width="7.0874817966514225" paint-order="stroke fill">Slice25 (Front)</text><text x="2683.90525" y="468.8175" text-anchor="middle" dominant-baseline="middle" font-family="Arial, sans-serif" font-size="59.06234830542852" font-weight="bold" fill="black" stroke="none" stroke-width="7.0874817966514225" paint-order="stroke fill">Slice25 (Front)</text><text x="3748.3017499999996" y="468.8175" text-anchor="middle" dominant-baseline="middle" font-family="Arial, sans-serif" font-size="59.06234830542852" font-weight="bold" fill="black" stroke="none" stroke-width="7.0874817966514225" paint-order="stroke fill">Slice25 (Front)</text><text x="4812.698249999999" y="468.8175" text-anchor="middle" dominant-baseline="middle" font-family="Arial, sans-serif" font-size="59.06234830542852" font-weight="bold" fill="black" stroke="none" stroke-width="7.0874817966514225" paint-order="stroke fill">Slice25 (Front)</text><text x="5877.094749999999" y="468.8175" text-anchor="middle" dominant-baseline="middle" font-family="Arial, sans-serif" font-size="59.06234830542852" font-weight="bold" fill="black" stroke="none" stroke-width="7.0874817966514225" paint-order="stroke fill">Slice25 (Front)</text><text x="6941.491249999998" y="468.8175" text-anchor="middle" dominant-baseline="middle" font-family="Arial, sans-serif" font-size="59.06234830542852" font-weight="bold" fill="black" stroke="none" stroke-width="7.0874817966514225" paint-order="stroke fill">Slice25 (Front)</text><text x="8005.887749999999" y="468.8175" text-anchor="middle" dominant-baseline="middle" font-family="Arial, sans-serif" font-size="59.06234830542852" font-weight="bold" fill="black" stroke="none" stroke-width="7.0874817966514225" paint-order="stroke fill">Slice25 (Front)</text><text x="555.1122499999999" y="1359.1925" text-anchor="middle" dominant-baseline="middle" font-family="Arial, sans-serif" font-size="59.06234830542852" font-weight="bold" fill="black" stroke="none" stroke-width="7.0874817966514225" paint-order="stroke fill">Slice25 (Front)</text><text x="1619.5087499999997" y="1359.1925" text-anchor="middle" dominant-baseline="middle" font-family="Arial, sans-serif" font-size="59.06234830542852" font-weight="bold" fill="black" stroke="none" stroke-width="7.0874817966514225" paint-order="stroke fill">Slice25 (Front)</text><text x="2683.90525" y="1359.1925" text-anchor="middle" dominant-baseline="middle" font-family="Arial, sans-serif" font-size="59.06234830542852" font-weight="bold" fill="black" stroke="none" stroke-width="7.0874817966514225" paint-order="stroke fill">Slice25 (Front)</text><text x="3748.3017499999996" y="1359.1925" text-anchor="middle" dominant-baseline="middle" font-family="Arial, sans-serif" font-size="59.06234830542852" font-weight="bold" fill="black" stroke="none" stroke-width="7.0874817966514225" paint-order="stroke fill">Slice25 (Front)</text><text x="4812.698249999999" y="1359.1925" text-anchor="middle" dominant-baseline="middle" font-family="Arial, sans-serif" font-size="59.06234830542852" font-weight="bold" fill="black" stroke="none" stroke-width="7.0874817966514225" paint-order="stroke fill">Slice25 (Front)</text><text x="5877.094749999999" y="1359.1925" text-anchor="middle" dominant-baseline="middle" font-family="Arial, sans-serif" font-size="59.06234830542852" font-weight="bold" fill="black" stroke="none" stroke-width="7.0874817966514225" paint-order="stroke fill">Slice25 (Front)</text><text x="6941.491249999998" y="1359.1925" text-anchor="middle" dominant-baseline="middle" font-family="Arial, sans-serif" font-size="59.06234830542852" font-weight="bold" fill="black" stroke="none" stroke-width="7.0874817966514225" paint-order="stroke fill">Slice25 (Front)</text><text x="8005.887749999999" y="1359.1925" text-anchor="middle" dominant-baseline="middle" font-family="Arial, sans-serif" font-size="59.06234830542852" font-weight="bold" fill="black" stroke="none" stroke-width="7.0874817966514225" paint-order="stroke fill">Slice25 (Front)</text></g></svg>