<?xml version='1.0' encoding='utf-8'?>
<svg xmlns="http://www.w3.org/2000/svg" xmlns:inkscape="http://www.inkscape.org/namespaces/inkscape" version="1.1" width="693.5735114812851mm" height="263.0678036212921mm" viewBox="0.23571274230047123 0.004708915348011544 8191.5495745153985 3107.000582169304" preserveAspectRatio="none">
    <g id="ViewLayer_LineSet" inkscape:groupmode="lineset" inkscape:label="ViewLayer_LineSet">
        <g inkscape:groupmode="layer" id="strokes" inkscape:label="strokes">
            <path fill="none" stroke-width="3.0" stroke-linecap="butt" stroke-opacity="1.0" stroke="rgb(0, 0, 0)" stroke-linejoin="round" d=" M 7054.088, 1053.067 7051.570, 1055.649 7048.926, 1058.103 7046.163, 1060.421 7043.287, 1062.599 7040.307, 1064.631 7037.229, 1066.512 7034.062, 1068.236 7030.812, 1069.802 7027.488, 1071.203 7024.099, 1072.436 7020.652, 1073.500 7017.157, 1074.390 7013.621, 1075.104 7010.054, 1075.642 7006.465, 1076.001 7002.863, 1076.181 6999.256, 1076.181 6995.653, 1076.001 6992.064, 1075.642 6988.498, 1075.104 6984.962, 1074.390 6981.467, 1073.500 6978.020, 1072.436 6974.630, 1071.203 6971.307, 1069.802 6968.057, 1068.236 6964.889, 1066.512 6961.812, 1064.631 6958.831, 1062.599 6955.956, 1060.421 6953.193, 1058.103 6950.549, 1055.649 6948.030, 1053.067 6945.644, 1050.363 6943.395, 1047.543 6941.289, 1044.614 6939.332, 1041.584 6937.528, 1038.460 6935.883, 1035.250 6934.399, 1031.963 6933.082, 1028.605 6931.933, 1025.186 6930.956, 1021.714 6930.153, 1018.198 6929.527, 1014.645 6929.079, 1011.066 6928.809, 1007.469 6928.719, 1003.863 6928.809, 1000.258 6929.079, 996.660 6929.527, 993.081 6930.153, 989.529 6930.956, 986.013 6931.933, 982.540 6933.082, 979.122 6934.399, 975.764 6935.883, 972.476 6937.528, 969.266 6939.332, 966.143 6941.289, 963.113 6943.395, 960.184 6945.644, 957.364 6948.030, 954.659 6950.549, 952.077 6953.193, 949.624 6955.956, 947.305 6958.831, 945.128 6961.812, 943.095 6964.889, 941.214 6968.057, 939.490 6971.307, 937.925 6974.630, 936.524 6978.020, 935.290 6981.467, 934.227 6984.962, 933.337 6988.498, 932.622 6992.064, 932.084 6995.653, 931.726 6999.256, 931.546 7002.863, 931.546 7006.465, 931.726 7010.054, 932.084 7013.621, 932.622 7017.157, 933.337 7020.652, 934.227 7024.099, 935.290 7027.488, 936.524 7030.812, 937.925 7034.062, 939.490 7037.229, 941.214 7040.307, 943.095 7043.287, 945.128 7046.163, 947.305 7048.926, 949.624 7051.570, 952.077 7054.088, 954.659 7056.475, 957.364 7058.724, 960.184 7060.830, 963.113 7062.787, 966.143 7064.590, 969.266 7066.235, 972.476 7067.719, 975.764 7069.037, 979.122 7070.186, 982.540 7071.163, 986.013 7071.965, 989.529 7072.592, 993.081 7073.040, 996.660 7073.310, 1000.258 7073.399, 1003.863 7073.310, 1007.469 7073.040, 1011.066 7072.592, 1014.645 7071.965, 1018.198 7071.163, 1021.714 7070.186, 1025.186 7069.037, 1028.605 7067.719, 1031.963 7066.235, 1035.250 7064.590, 1038.460 7062.787, 1041.584 7060.830, 1044.614 7058.724, 1047.543 7056.475, 1050.363 7054.088, 1053.067 " />
            <path fill="none" stroke-width="3.0" stroke-linecap="butt" stroke-opacity="1.0" stroke="rgb(0, 0, 0)" stroke-linejoin="round" d=" M 7288.701, 1932.582 7289.889, 1922.653 7291.078, 1912.724 7292.266, 1902.795 7293.454, 1892.865 7294.643, 1882.936 7295.831, 1873.007 7297.019, 1863.078 7298.208, 1853.149 7299.396, 1843.220 7300.584, 1833.291 7301.772, 1823.361 7302.960, 1813.432 7304.149, 1803.503 7305.337, 1793.574 7306.525, 1783.645 7307.713, 1773.716 7308.902, 1763.787 7310.090, 1753.857 7311.278, 1743.928 7312.467, 1733.999 7312.958, 1729.897 7316.491, 1720.542 7320.025, 1711.187 7323.559, 1701.833 7327.092, 1692.478 7330.626, 1683.123 7334.160, 1673.768 7337.694, 1664.413 7341.228, 1655.058 7344.761, 1645.704 7348.295, 1636.349 7351.829, 1626.994 7355.362, 1617.639 7358.896, 1608.284 7362.430, 1598.929 7365.963, 1589.575 7369.497, 1580.220 7373.031, 1570.865 7376.564, 1561.510 7380.098, 1552.155 7383.632, 1542.800 7387.166, 1533.446 7390.699, 1524.091 7394.233, 1514.736 7397.767, 1505.381 7401.300, 1496.026 7404.834, 1486.671 7408.368, 1477.317 7411.901, 1467.962 7415.435, 1458.607 7418.969, 1449.252 7422.502, 1439.897 7426.036, 1430.542 7429.570, 1421.188 7433.104, 1411.833 7436.638, 1402.478 7440.171, 1393.123 7443.705, 1383.768 7447.239, 1374.413 7450.772, 1365.059 7454.306, 1355.704 7457.840, 1346.349 7461.374, 1336.994 7464.907, 1327.639 7468.441, 1318.284 7471.975, 1308.930 7475.508, 1299.575 7479.042, 1290.220 7482.576, 1280.865 7486.109, 1271.510 7489.643, 1262.155 7493.177, 1252.801 7496.710, 1243.446 7500.244, 1234.091 7503.778, 1224.736 7507.312, 1215.381 7510.845, 1206.026 7514.379, 1196.672 7517.913, 1187.317 7521.446, 1177.962 7524.980, 1168.607 7528.514, 1159.252 7532.048, 1149.897 7535.582, 1140.543 7539.115, 1131.188 7542.649, 1121.833 7546.203, 1112.425 7551.186, 1103.755 7556.168, 1095.085 7561.151, 1086.415 7566.134, 1077.745 7571.117, 1069.075 7576.100, 1060.405 7581.083, 1051.735 7586.066, 1043.064 7591.049, 1034.395 7593.004, 1030.991 7600.402, 1024.263 7607.801, 1017.535 7615.199, 1010.807 7622.597, 1004.079 7629.995, 997.351 7637.394, 990.623 7644.792, 983.895 7652.189, 977.167 7659.588, 970.439 7666.986, 963.711 7674.384, 956.982 7681.782, 950.254 7689.181, 943.526 7696.579, 936.798 7703.977, 930.070 7711.375, 923.342 7718.773, 916.614 7726.171, 909.886 7733.569, 903.158 7740.968, 896.430 7748.366, 889.702 7755.764, 882.973 7763.162, 876.245 7770.560, 869.517 7777.958, 862.789 7785.356, 856.061 7792.755, 849.333 7798.272, 844.315 " />
            <path fill="none" stroke-width="3.0" stroke-linecap="butt" stroke-opacity="1.0" stroke="rgb(0, 0, 0)" stroke-linejoin="round" d=" M 4495.868, 3083.384 4505.868, 3083.384 4515.868, 3083.384 4525.868, 3083.384 4535.868, 3083.384 4545.868, 3083.384 4555.868, 3083.384 4565.868, 3083.384 4575.868, 3083.384 4585.868, 3083.384 4595.868, 3083.384 4605.868, 3083.384 4615.868, 3083.384 4625.868, 3083.384 4635.868, 3083.384 4645.868, 3083.384 4655.868, 3083.384 4665.868, 3083.384 4675.868, 3083.384 4685.868, 3083.384 4695.868, 3083.384 4705.868, 3083.384 4715.868, 3083.384 4725.868, 3083.384 4735.868, 3083.384 4745.868, 3083.384 4755.868, 3083.384 4765.868, 3083.384 4771.598, 3083.384 4776.877, 3083.384 4782.179, 3083.384 4787.485, 3083.384 4792.774, 3083.384 4798.023, 3083.384 4803.209, 3083.384 4808.310, 3083.384 4813.302, 3083.384 4818.163, 3083.384 4822.870, 3083.384 4827.400, 3083.384 4831.733, 3083.384 4835.848, 3083.384 4845.848, 3083.384 4855.848, 3083.384 4865.848, 3083.384 4875.848, 3083.384 4885.848, 3083.384 4895.848, 3083.384 4903.614, 3083.384 4908.064, 3083.384 4912.322, 3083.384 4916.372, 3083.384 4920.199, 3083.384 4923.789, 3083.384 4927.131, 3083.384 4930.212, 3083.384 4933.023, 3083.384 4943.023, 3083.384 4953.023, 3083.384 4963.023, 3083.384 4973.023, 3083.384 4983.023, 3083.384 4993.023, 3083.384 5003.023, 3083.384 5013.023, 3083.384 5023.023, 3083.384 5033.023, 3083.384 5043.023, 3083.384 5053.023, 3083.384 5063.023, 3083.384 5073.023, 3083.384 5083.023, 3083.384 5093.023, 3083.384 5103.023, 3083.384 5113.023, 3083.384 5123.023, 3083.384 5133.023, 3083.384 5143.023, 3083.384 5153.023, 3083.384 5163.023, 3083.384 5173.023, 3083.384 5184.601, 3083.384 5190.542, 3083.384 5200.542, 3083.384 5210.542, 3083.384 5220.542, 3083.384 5230.542, 3083.384 5240.542, 3083.384 5250.542, 3083.384 5260.542, 3083.384 5262.201, 3083.384 5268.875, 3083.384 5275.701, 3083.384 5282.659, 3083.384 5289.726, 3083.384 5296.877, 3083.384 5304.091, 3083.384 5311.346, 3083.384 5318.619, 3083.384 5325.887, 3083.384 5333.131, 3083.384 5343.131, 3083.384 5353.131, 3083.384 5363.131, 3083.384 5373.131, 3083.384 5383.131, 3083.384 5393.131, 3083.384 5397.168, 3083.384 5405.354, 3083.384 5415.354, 3083.384 5425.354, 3083.384 5435.354, 3083.384 5445.354, 3083.384 5455.354, 3083.384 5465.354, 3083.384 5475.354, 3083.384 5485.354, 3083.384 5495.354, 3083.384 5505.354, 3083.384 5508.727, 3083.384 5518.211, 3083.384 5527.659, 3083.384 5537.041, 3083.384 5546.331, 3083.384 5555.503, 3083.384 5564.533, 3083.384 5573.398, 3083.384 5582.077, 3083.384 5592.077, 3083.384 5602.077, 3083.384 5612.077, 3083.384 5622.077, 3083.384 5632.077, 3083.384 5642.077, 3083.384 5652.077, 3083.384 5662.077, 3083.384 5672.077, 3083.384 5682.077, 3083.384 5692.077, 3083.384 5702.077, 3083.384 5712.077, 3083.384 5722.077, 3083.384 5732.077, 3083.384 5742.077, 3083.384 5752.077, 3083.384 5762.077, 3083.384 5772.077, 3083.384 5782.077, 3083.384 5792.077, 3083.384 5802.077, 3083.384 5812.077, 3083.384 5822.077, 3083.384 5832.077, 3083.384 5842.077, 3083.384 5852.077, 3083.384 5862.077, 3083.384 5872.077, 3083.384 5882.077, 3083.384 5892.077, 3083.384 5902.077, 3083.384 5912.077, 3083.384 5922.077, 3083.384 5932.077, 3083.384 5942.077, 3083.384 5952.077, 3083.384 5962.077, 3083.384 5972.077, 3083.384 5982.077, 3083.384 5992.077, 3083.384 6002.077, 3083.384 6012.077, 3083.384 6022.077, 3083.384 6032.077, 3083.384 6042.077, 3083.384 6052.077, 3083.384 6062.077, 3083.384 6072.077, 3083.384 6082.077, 3083.384 6092.077, 3083.384 6102.077, 3083.384 6112.077, 3083.384 6122.077, 3083.384 6132.077, 3083.384 6142.077, 3083.384 6152.077, 3083.384 6162.077, 3083.384 6172.077, 3083.384 6182.077, 3083.384 6192.077, 3083.384 6202.077, 3083.384 6212.077, 3083.384 6222.077, 3083.384 6232.077, 3083.384 6242.077, 3083.384 6252.077, 3083.384 6262.077, 3083.384 6272.077, 3083.384 6282.077, 3083.384 6292.077, 3083.384 6302.077, 3083.384 6312.077, 3083.384 6322.077, 3083.384 6332.077, 3083.384 6342.077, 3083.384 6352.077, 3083.384 6362.077, 3083.384 6372.077, 3083.384 6382.077, 3083.384 6392.077, 3083.384 6402.077, 3083.384 6412.077, 3083.384 6422.077, 3083.384 6432.077, 3083.384 6442.077, 3083.384 6452.077, 3083.384 6462.077, 3083.384 6472.077, 3083.384 6482.077, 3083.384 6492.077, 3083.384 6502.077, 3083.384 6512.077, 3083.384 6522.077, 3083.384 6532.077, 3083.384 6542.077, 3083.384 6552.077, 3083.384 6562.077, 3083.384 6572.077, 3083.384 6582.077, 3083.384 6592.077, 3083.384 6602.077, 3083.384 6612.077, 3083.384 6622.077, 3083.384 6632.077, 3083.384 6642.077, 3083.384 6652.077, 3083.384 6662.077, 3083.384 6672.077, 3083.384 6682.077, 3083.384 6692.077, 3083.384 6702.077, 3083.384 6712.077, 3083.384 6722.077, 3083.384 6732.077, 3083.384 6742.077, 3083.384 6752.077, 3083.384 6762.077, 3083.384 6772.077, 3083.384 6782.077, 3083.384 6803.357, 3083.384 6805.251, 3073.565 6807.145, 3063.746 6809.039, 3053.927 6810.934, 3044.108 6812.828, 3034.289 6814.722, 3024.470 6816.616, 3014.651 6818.510, 3004.832 6820.404, 2995.013 6822.298, 2985.194 6824.192, 2975.375 6826.086, 2965.556 6827.980, 2955.737 6829.875, 2945.918 6831.769, 2936.099 6833.663, 2926.280 6835.557, 2916.461 6837.451, 2906.642 6839.345, 2896.823 6841.240, 2887.004 6843.134, 2877.185 6843.959, 2872.906 " />
            <path fill="none" stroke-width="3.0" stroke-linecap="butt" stroke-opacity="1.0" stroke="rgb(0, 0, 0)" stroke-linejoin="round" d=" M 7252.847, 2058.989 7255.576, 2049.369 7258.305, 2039.748 7261.033, 2030.128 7263.762, 2020.507 7266.491, 2010.887 7269.220, 2001.266 7271.948, 1991.646 7274.677, 1982.025 7277.406, 1972.405 7280.135, 1962.784 7282.863, 1953.164 7285.592, 1943.543 7288.321, 1933.923 7288.701, 1932.582 " />
            <path fill="none" stroke-width="3.0" stroke-linecap="butt" stroke-opacity="1.0" stroke="rgb(0, 0, 0)" stroke-linejoin="round" d=" M 7798.272, 844.315 7803.010, 835.509 7807.748, 826.702 7812.485, 817.895 7817.222, 809.089 7821.960, 800.282 7826.697, 791.476 7831.435, 782.669 7836.172, 773.862 7840.910, 765.056 7845.647, 756.249 7850.385, 747.443 7855.123, 738.636 7859.860, 729.830 7864.598, 721.023 7869.335, 712.216 7874.072, 703.410 7878.810, 694.603 7883.547, 685.797 7888.285, 676.990 7893.022, 668.183 7897.760, 659.377 7902.498, 650.570 7907.235, 641.764 7911.973, 632.957 7916.710, 624.150 7921.448, 615.344 7926.185, 606.537 7930.923, 597.731 7935.660, 588.924 7940.397, 580.117 7945.135, 571.311 7949.873, 562.504 7954.610, 553.698 7959.348, 544.891 7964.085, 536.084 7968.823, 527.278 7973.560, 518.471 7978.298, 509.665 7983.035, 500.858 7987.773, 492.052 7992.510, 483.245 7997.248, 474.438 8001.985, 465.632 8006.723, 456.825 8011.460, 448.019 8016.198, 439.212 8020.936, 430.406 8025.673, 421.599 8030.410, 412.792 8035.148, 403.986 8039.885, 395.179 8044.623, 386.373 8049.360, 377.566 8054.098, 368.760 8058.835, 359.953 8063.573, 351.146 8068.710, 341.596 8071.696, 332.052 8074.681, 322.508 8077.666, 312.964 8080.651, 303.420 8083.636, 293.876 8086.622, 284.332 8089.606, 274.788 8092.592, 265.243 8095.577, 255.699 8098.562, 246.156 8101.547, 236.611 8104.532, 227.067 8107.518, 217.523 8110.502, 207.979 8113.488, 198.435 8116.473, 188.891 8119.458, 179.347 8122.443, 169.803 8125.428, 160.259 8128.413, 150.715 8131.398, 141.171 8134.384, 131.627 8137.369, 122.083 8140.354, 112.539 8143.339, 102.995 8146.324, 93.451 8149.309, 83.906 8152.294, 74.363 8155.280, 64.818 8158.265, 55.274 8161.250, 45.730 8164.235, 36.186 8168.164, 23.626 8158.164, 23.626 8148.164, 23.626 8138.164, 23.626 8128.164, 23.626 8118.164, 23.626 8108.164, 23.626 8098.164, 23.626 8088.164, 23.626 8078.164, 23.626 8068.164, 23.626 8058.164, 23.626 8048.164, 23.626 8038.164, 23.626 8028.164, 23.626 8018.164, 23.626 8008.164, 23.626 7998.164, 23.626 7988.164, 23.626 7978.164, 23.626 7968.164, 23.626 7958.164, 23.626 7948.164, 23.626 7938.164, 23.626 7928.164, 23.626 7918.164, 23.626 7908.164, 23.626 7898.164, 23.626 7888.164, 23.626 7878.164, 23.626 7868.164, 23.626 7858.164, 23.626 7848.164, 23.626 7838.164, 23.626 7828.164, 23.626 7818.164, 23.626 7808.164, 23.626 7798.164, 23.626 7788.164, 23.626 7778.164, 23.626 7768.164, 23.626 7758.164, 23.626 7748.164, 23.626 7738.164, 23.626 7728.164, 23.626 7718.164, 23.626 7708.164, 23.626 7698.164, 23.626 7688.164, 23.626 7678.164, 23.626 7668.164, 23.626 7658.164, 23.626 7648.164, 23.626 7638.164, 23.626 7628.164, 23.626 7618.164, 23.626 7608.164, 23.626 7598.164, 23.626 7588.164, 23.626 7578.164, 23.626 7568.164, 23.626 7558.164, 23.626 7548.164, 23.626 7538.164, 23.626 7528.164, 23.626 7514.734, 23.626 7504.734, 23.626 7494.734, 23.626 7484.734, 23.626 7474.734, 23.626 7464.734, 23.626 7454.734, 23.626 7444.734, 23.626 7434.734, 23.626 7424.734, 23.626 7414.734, 23.626 7404.734, 23.626 7394.734, 23.626 7384.734, 23.626 7374.734, 23.626 7364.734, 23.626 7354.734, 23.626 7344.734, 23.626 7334.734, 23.626 7324.734, 23.626 7314.734, 23.626 7304.734, 23.626 7294.734, 23.626 7284.734, 23.626 7274.734, 23.626 7264.734, 23.626 7254.734, 23.626 7244.734, 23.626 7234.734, 23.626 7224.734, 23.626 7214.734, 23.626 7204.734, 23.626 7194.734, 23.626 7184.734, 23.626 7174.734, 23.626 7164.734, 23.626 7154.734, 23.626 7144.734, 23.626 7134.734, 23.626 7124.734, 23.626 7114.734, 23.626 7104.734, 23.626 7094.734, 23.626 7084.734, 23.626 7074.734, 23.626 7064.734, 23.626 7054.734, 23.626 7044.734, 23.626 7034.734, 23.626 7024.734, 23.626 7014.734, 23.626 7004.734, 23.626 6994.734, 23.626 6984.734, 23.626 6974.734, 23.626 6964.734, 23.626 6954.734, 23.626 6944.734, 23.626 6934.735, 23.626 6924.734, 23.626 6914.734, 23.626 6904.734, 23.626 6894.734, 23.626 6884.734, 23.626 6874.734, 23.626 6864.734, 23.626 6854.734, 23.626 6844.734, 23.626 6834.734, 23.626 6824.734, 23.626 6814.734, 23.626 6804.734, 23.626 6794.734, 23.626 6784.734, 23.626 6774.734, 23.626 6764.734, 23.626 6754.734, 23.626 6744.734, 23.626 6734.734, 23.626 6724.734, 23.626 6714.734, 23.626 6704.734, 23.626 6694.734, 23.626 6684.734, 23.626 6674.734, 23.626 6664.734, 23.626 6654.734, 23.626 6644.734, 23.626 6634.734, 23.626 6624.734, 23.626 6614.734, 23.626 6604.734, 23.626 6594.734, 23.626 6584.734, 23.626 6574.734, 23.626 6564.734, 23.626 6554.734, 23.626 6544.734, 23.626 6534.734, 23.626 6524.734, 23.626 6514.734, 23.626 6504.734, 23.626 6494.734, 23.626 6484.734, 23.626 6474.734, 23.626 6464.734, 23.626 6454.734, 23.626 6437.262, 23.626 6435.354, 23.626 6433.397, 23.626 6431.396, 23.626 6429.357, 23.626 6419.357, 23.626 6409.357, 23.626 6399.357, 23.626 6389.357, 23.626 6379.357, 23.626 6369.357, 23.626 6359.357, 23.626 6349.357, 23.626 6339.357, 23.626 6329.357, 23.626 6319.357, 23.626 6309.357, 23.626 6299.357, 23.626 6289.357, 23.626 6279.357, 23.626 6277.223, 23.626 6275.347, 23.626 6273.436, 23.626 6271.493, 23.626 6261.493, 23.626 6251.493, 23.626 6241.493, 23.626 6231.493, 23.626 6221.493, 23.626 6211.493, 23.626 6201.493, 23.626 6191.493, 23.626 6181.493, 23.626 6171.493, 23.626 6161.493, 23.626 6151.493, 23.626 6141.493, 23.626 6131.493, 23.626 6121.493, 23.626 6111.493, 23.626 6101.493, 23.626 6091.493, 23.626 6081.493, 23.626 6071.493, 23.626 6061.493, 23.626 6051.493, 23.626 6041.493, 23.626 6031.493, 23.626 6021.493, 23.626 6011.493, 23.626 6001.493, 23.626 5991.493, 23.626 5981.493, 23.626 5971.493, 23.626 5961.493, 23.626 5951.493, 23.626 5941.493, 23.626 5931.493, 23.626 5921.493, 23.626 5911.493, 23.626 5901.493, 23.626 5891.493, 23.626 5881.493, 23.626 5871.493, 23.626 5861.493, 23.626 5851.493, 23.626 5841.493, 23.626 5831.493, 23.626 5821.493, 23.626 5811.493, 23.626 5801.493, 23.626 5791.493, 23.626 5781.493, 23.626 5771.493, 23.626 5761.493, 23.626 5751.493, 23.626 5741.493, 23.626 5731.493, 23.626 5721.493, 23.626 5711.493, 23.626 5701.493, 23.626 5691.493, 23.626 5681.493, 23.626 5671.493, 23.626 5661.493, 23.626 5651.493, 23.626 5641.493, 23.626 5631.493, 23.626 5621.493, 23.626 5611.493, 23.626 5601.493, 23.626 5591.493, 23.626 5581.493, 23.626 5571.493, 23.626 5561.493, 23.626 5551.493, 23.626 5541.493, 23.626 5531.493, 23.626 5515.380, 23.626 5505.380, 23.626 5495.380, 23.626 5490.062, 23.626 5490.919, 33.590 5491.775, 43.553 5492.632, 53.516 5493.489, 63.479 5494.345, 73.443 5495.202, 83.406 5496.058, 93.369 5496.479, 98.268 " />
            <path fill="none" stroke-width="3.0" stroke-linecap="butt" stroke-opacity="1.0" stroke="rgb(0, 0, 0)" stroke-linejoin="round" d=" M 6843.959, 2872.906 6847.845, 2863.692 6851.731, 2854.479 6855.618, 2845.264 6859.504, 2836.051 6863.390, 2826.837 6867.276, 2817.622 6871.162, 2808.409 6875.048, 2799.195 6878.935, 2789.981 6882.821, 2780.767 6886.707, 2771.553 6890.593, 2762.339 6894.479, 2753.125 6898.365, 2743.911 6902.251, 2734.697 6906.138, 2725.483 6910.024, 2716.269 6913.910, 2707.055 6917.796, 2697.841 6921.683, 2688.627 6925.568, 2679.413 6929.455, 2670.199 6933.341, 2660.985 6937.227, 2651.771 6941.113, 2642.557 6945.000, 2633.343 6948.886, 2624.129 6952.771, 2614.915 6956.658, 2605.701 6960.544, 2596.487 6964.430, 2587.273 6968.316, 2578.059 6972.203, 2568.845 6976.089, 2559.631 6979.975, 2550.417 6983.861, 2541.203 6987.747, 2531.989 6991.633, 2522.775 6995.520, 2513.561 6999.406, 2504.347 7003.010, 2495.801 " />
            <path fill="none" stroke-width="3.0" stroke-linecap="butt" stroke-opacity="1.0" stroke="rgb(0, 0, 0)" stroke-linejoin="round" d=" M 7003.010, 2495.801 7007.816, 2487.032 7012.623, 2478.263 7013.661, 2476.370 7018.633, 2467.694 7023.605, 2459.018 7028.577, 2450.341 7033.549, 2441.665 7038.521, 2432.989 7043.493, 2424.312 7048.465, 2415.636 7053.438, 2406.960 7058.410, 2398.283 7063.382, 2389.607 7068.354, 2380.931 7073.326, 2372.254 7078.298, 2363.578 7083.270, 2354.902 7088.242, 2346.226 7093.214, 2337.549 7098.187, 2328.873 7103.158, 2320.197 7108.130, 2311.520 7113.103, 2302.844 7118.075, 2294.168 7123.047, 2285.491 7128.019, 2276.815 7132.991, 2268.139 7137.963, 2259.462 7142.935, 2250.786 7147.907, 2242.110 7152.879, 2233.434 7157.852, 2224.757 7162.823, 2216.081 7167.795, 2207.405 7172.768, 2198.728 7177.740, 2190.052 7182.712, 2181.376 7187.684, 2172.699 7192.656, 2164.023 7197.628, 2155.347 7202.600, 2146.670 7207.572, 2137.994 7212.544, 2129.318 7217.517, 2120.641 7222.489, 2111.965 7227.460, 2103.289 7232.433, 2094.613 7237.405, 2085.936 7242.377, 2077.260 7247.349, 2068.584 7252.847, 2058.989 " />
            <path fill="none" stroke-width="3.0" stroke-linecap="butt" stroke-opacity="1.0" stroke="rgb(0, 0, 0)" stroke-linejoin="round" d=" M 4699.027, 2309.390 4694.516, 2318.314 4690.004, 2327.239 4685.492, 2336.163 4680.980, 2345.087 4676.469, 2354.012 4671.957, 2362.936 4667.445, 2371.860 4662.934, 2380.785 4658.422, 2389.709 4653.911, 2398.634 4649.399, 2407.558 4644.887, 2416.482 4640.375, 2425.407 4635.864, 2434.331 4631.352, 2443.256 4626.840, 2452.180 4622.329, 2461.104 4617.817, 2470.029 4613.305, 2478.953 4608.793, 2487.878 4604.551, 2496.269 4602.861, 2506.125 4601.170, 2515.981 4599.479, 2525.837 4597.789, 2535.693 4596.098, 2545.549 4594.407, 2555.405 4592.717, 2565.261 4591.026, 2575.117 4589.335, 2584.973 4587.645, 2594.829 4585.954, 2604.685 4584.263, 2614.541 4582.572, 2624.397 4580.882, 2634.253 4579.191, 2644.110 4577.500, 2653.966 4575.810, 2663.822 4574.119, 2673.678 4572.428, 2683.534 4570.738, 2693.390 4569.047, 2703.246 4567.356, 2713.102 4565.666, 2722.958 4563.975, 2732.814 4562.284, 2742.670 4560.593, 2752.526 4558.903, 2762.382 4557.212, 2772.238 4555.521, 2782.094 4553.831, 2791.950 4552.140, 2801.806 4550.449, 2811.662 4548.759, 2821.518 4547.068, 2831.374 4545.377, 2841.230 4543.687, 2851.086 4541.996, 2860.942 4540.305, 2870.799 4538.614, 2880.655 4536.745, 2891.551 " />
            <path fill="none" stroke-width="3.0" stroke-linecap="butt" stroke-opacity="1.0" stroke="rgb(0, 0, 0)" stroke-linejoin="round" d=" M 5057.297, 1459.236 5052.820, 1468.178 5048.343, 1477.120 5043.866, 1486.062 5039.389, 1495.004 5034.912, 1503.945 5030.435, 1512.887 5025.958, 1521.829 5021.480, 1530.771 5017.003, 1539.713 5012.526, 1548.654 5008.049, 1557.596 5003.572, 1566.538 4999.095, 1575.480 4994.618, 1584.422 4990.141, 1593.363 4985.664, 1602.305 4981.187, 1611.247 4976.710, 1620.189 4972.233, 1629.131 4967.756, 1638.072 4963.279, 1647.014 4958.802, 1655.956 4954.325, 1664.898 4949.848, 1673.840 4945.371, 1682.781 4940.894, 1691.723 4936.417, 1700.665 4931.939, 1709.607 4927.462, 1718.549 4922.985, 1727.490 4918.508, 1736.432 4914.031, 1745.374 4909.554, 1754.316 4905.077, 1763.258 4900.600, 1772.199 4896.123, 1781.141 4891.646, 1790.083 4887.168, 1799.025 4882.691, 1807.967 4878.214, 1816.908 4873.737, 1825.850 4869.260, 1834.792 4864.783, 1843.734 4860.306, 1852.676 4855.829, 1861.617 4852.720, 1867.827 4848.849, 1877.047 4844.978, 1886.268 4841.106, 1895.488 4837.235, 1904.708 4833.364, 1913.928 4829.492, 1923.149 4825.621, 1932.369 4821.750, 1941.589 4817.878, 1950.810 4814.007, 1960.030 4810.136, 1969.250 4806.265, 1978.470 4802.394, 1987.691 4798.522, 1996.911 4794.651, 2006.131 4790.780, 2015.351 4786.909, 2024.572 4783.037, 2033.792 4779.166, 2043.012 4775.295, 2052.233 4771.423, 2061.453 4767.552, 2070.673 4763.681, 2079.893 4759.810, 2089.114 4755.938, 2098.334 4752.067, 2107.554 4748.196, 2116.774 4744.325, 2125.995 4740.454, 2135.215 4736.582, 2144.435 4732.711, 2153.656 4728.840, 2162.876 4724.968, 2172.096 4721.097, 2181.316 4717.226, 2190.537 4713.354, 2199.757 4709.483, 2208.977 4705.612, 2218.197 4701.741, 2227.418 4700.122, 2231.273 4699.982, 2241.272 4699.842, 2251.271 4699.702, 2261.271 4699.562, 2271.270 4699.421, 2281.268 4699.281, 2291.268 4699.141, 2301.267 4699.027, 2309.390 " />
            <path fill="none" stroke-width="3.0" stroke-linecap="butt" stroke-opacity="1.0" stroke="rgb(0, 0, 0)" stroke-linejoin="round" d=" M 5092.173, 1175.619 5092.499, 1185.613 5092.826, 1195.608 5093.152, 1205.603 5093.478, 1215.597 5093.805, 1225.592 5094.131, 1235.587 5094.457, 1245.581 5094.784, 1255.576 5095.110, 1265.571 5095.277, 1270.678 5093.302, 1280.481 5091.328, 1290.285 5089.353, 1300.088 5087.378, 1309.891 5085.404, 1319.694 5083.429, 1329.497 5081.455, 1339.300 5079.480, 1349.103 5077.506, 1358.906 5075.531, 1368.709 5073.557, 1378.513 5071.582, 1388.316 5069.607, 1398.119 5067.633, 1407.922 5065.659, 1417.725 5063.684, 1427.528 5061.709, 1437.331 5059.735, 1447.134 5057.760, 1456.938 5057.297, 1459.236 " />
            <path fill="none" stroke-width="3.0" stroke-linecap="butt" stroke-opacity="1.0" stroke="rgb(0, 0, 0)" stroke-linejoin="round" d=" M 5260.708, 585.724 5260.191, 595.711 5260.173, 596.051 5257.389, 605.656 5254.605, 615.260 5251.821, 624.865 5249.037, 634.470 5246.253, 644.074 5243.469, 653.679 5240.685, 663.283 5237.900, 672.888 5235.116, 682.493 5232.333, 692.097 5229.548, 701.702 5226.764, 711.307 5223.980, 720.911 5221.196, 730.516 5218.412, 740.121 5215.627, 749.725 5212.843, 759.330 5210.060, 768.934 5207.275, 778.539 5204.491, 788.144 5201.707, 797.748 5198.923, 807.353 5196.139, 816.958 5193.354, 826.562 5190.571, 836.167 5187.787, 845.771 5185.002, 855.376 5182.218, 864.980 5179.434, 874.585 5176.650, 884.190 5173.866, 893.794 5171.082, 903.399 5168.298, 913.004 5165.514, 922.608 5162.729, 932.213 5159.945, 941.818 5157.161, 951.422 5154.377, 961.027 5151.593, 970.631 5148.809, 980.236 5146.025, 989.841 5143.241, 999.445 5140.457, 1009.050 5137.672, 1018.655 5134.888, 1028.259 5132.104, 1037.864 5129.320, 1047.468 5126.536, 1057.073 5123.752, 1066.678 5120.968, 1076.282 5118.184, 1085.887 5115.399, 1095.491 5112.615, 1105.096 5109.831, 1114.701 5107.047, 1124.305 5104.263, 1133.910 5101.479, 1143.515 5098.695, 1153.119 5095.911, 1162.724 5092.173, 1175.619 " />
            <path fill="none" stroke-width="3.0" stroke-linecap="butt" stroke-opacity="1.0" stroke="rgb(0, 0, 0)" stroke-linejoin="round" d=" M 5459.988, 215.841 5455.258, 224.651 5450.527, 233.462 5445.796, 242.272 5441.066, 251.082 5436.335, 259.893 5431.605, 268.703 5426.874, 277.513 5422.144, 286.323 5417.413, 295.134 5412.683, 303.944 5407.952, 312.754 5403.221, 321.565 5398.491, 330.375 5393.760, 339.186 5389.030, 347.996 5384.299, 356.806 5379.568, 365.616 5374.838, 374.427 5370.107, 383.237 5365.377, 392.047 5360.646, 400.858 5355.916, 409.668 5351.185, 418.478 5346.455, 427.289 5341.724, 436.099 5336.993, 444.909 5332.263, 453.719 5327.532, 462.530 5322.802, 471.340 5318.071, 480.151 5313.340, 488.961 5308.610, 497.771 5303.879, 506.582 5299.149, 515.392 5294.418, 524.202 5289.688, 533.012 5284.957, 541.823 5280.227, 550.633 5275.496, 559.443 5269.920, 569.828 5264.906, 578.479 5260.708, 585.724 " />
            <path fill="none" stroke-width="3.0" stroke-linecap="butt" stroke-opacity="1.0" stroke="rgb(0, 0, 0)" stroke-linejoin="round" d=" M 216.668, 23.626 214.902, 33.469 213.136, 43.312 211.370, 53.155 209.604, 62.998 207.837, 72.840 206.882, 78.167 207.138, 88.164 207.394, 98.161 207.651, 108.157 207.907, 118.154 208.163, 128.151 208.420, 138.147 208.676, 148.144 208.932, 158.141 209.177, 167.700 207.425, 177.545 205.673, 187.391 203.921, 197.236 202.169, 207.081 200.417, 216.927 198.665, 226.772 196.913, 236.617 195.161, 246.463 193.409, 256.308 191.657, 266.153 189.905, 275.999 188.153, 285.844 186.402, 295.689 184.650, 305.535 182.898, 315.380 181.146, 325.225 179.394, 335.071 177.642, 344.916 175.890, 354.761 174.138, 364.607 172.386, 374.452 170.634, 384.297 168.882, 394.143 167.130, 403.988 165.378, 413.833 163.626, 423.679 161.874, 433.524 160.122, 443.369 158.370, 453.215 156.618, 463.060 154.866, 472.905 153.114, 482.751 151.362, 492.596 149.610, 502.441 147.858, 512.287 146.106, 522.132 144.354, 531.977 142.602, 541.823 140.850, 551.668 139.098, 561.513 137.346, 571.359 135.594, 581.204 133.842, 591.049 132.090, 600.895 130.752, 608.413 131.433, 618.390 132.114, 628.366 132.795, 638.343 133.476, 648.320 134.157, 658.297 134.838, 668.274 135.519, 678.250 136.200, 688.227 136.881, 698.204 137.562, 708.181 138.243, 718.158 138.924, 728.135 139.604, 738.111 140.285, 748.088 140.966, 758.065 141.647, 768.042 142.328, 778.018 143.009, 787.995 143.690, 797.972 144.371, 807.949 145.052, 817.926 145.733, 827.902 146.414, 837.879 147.095, 847.856 147.776, 857.833 148.457, 867.810 149.138, 877.786 149.819, 887.763 150.500, 897.740 151.180, 907.717 151.861, 917.693 152.542, 927.670 153.223, 937.647 153.904, 947.624 154.585, 957.601 155.266, 967.577 155.947, 977.554 156.628, 987.531 157.309, 997.508 157.990, 1007.485 158.671, 1017.461 159.352, 1027.438 160.033, 1037.415 161.004, 1051.645 159.803, 1060.075 158.880, 1070.032 157.957, 1079.989 157.034, 1089.947 156.112, 1099.904 155.189, 1109.861 154.266, 1119.819 153.343, 1129.776 152.420, 1139.733 151.497, 1149.691 150.574, 1159.648 149.652, 1169.605 148.729, 1179.562 147.806, 1189.520 146.883, 1199.477 145.960, 1209.435 145.037, 1219.392 144.114, 1229.349 143.192, 1239.307 142.269, 1249.264 141.346, 1259.221 140.423, 1269.178 139.500, 1279.136 138.577, 1289.093 137.654, 1299.050 136.732, 1309.008 135.809, 1318.965 134.886, 1328.922 133.963, 1338.880 133.040, 1348.837 132.117, 1358.794 131.194, 1368.752 130.272, 1378.709 129.349, 1388.666 128.426, 1398.624 127.503, 1408.581 126.580, 1418.538 125.657, 1428.496 124.735, 1438.453 123.812, 1448.410 122.889, 1458.368 121.966, 1468.325 121.043, 1478.282 120.120, 1488.240 119.197, 1498.197 118.275, 1508.154 117.352, 1518.112 116.429, 1528.069 115.506, 1538.026 114.583, 1547.984 113.660, 1557.941 112.737, 1567.898 111.815, 1577.856 110.892, 1587.813 109.969, 1597.770 109.046, 1607.728 108.123, 1617.685 107.200, 1627.642 105.826, 1642.469 106.391, 1652.453 106.957, 1662.437 107.522, 1672.421 108.087, 1682.405 108.652, 1692.389 109.217, 1702.373 109.782, 1712.357 110.348, 1722.341 110.913, 1732.325 111.478, 1742.309 112.043, 1752.293 112.608, 1762.277 113.174, 1772.261 113.739, 1782.245 114.304, 1792.229 114.869, 1802.213 115.434, 1812.197 116.000, 1822.181 116.565, 1832.165 117.130, 1842.149 117.695, 1852.133 118.260, 1862.117 118.826, 1872.101 119.391, 1882.085 119.956, 1892.069 120.521, 1902.053 121.086, 1912.037 121.652, 1922.021 122.217, 1932.005 122.782, 1941.990 123.347, 1951.974 123.912, 1961.958 124.478, 1971.942 125.043, 1981.926 125.608, 1991.910 126.173, 2001.894 126.738, 2011.878 127.021, 2016.875 125.612, 2026.775 124.202, 2036.675 122.793, 2046.575 121.383, 2056.475 119.974, 2066.376 118.565, 2076.276 117.155, 2086.176 115.746, 2096.076 114.336, 2105.976 112.927, 2115.876 111.517, 2125.777 110.108, 2135.677 108.698, 2145.577 107.289, 2155.477 105.879, 2165.377 104.470, 2175.277 103.061, 2185.178 101.651, 2195.078 100.242, 2204.978 98.832, 2214.878 97.423, 2224.778 96.013, 2234.679 94.604, 2244.579 93.194, 2254.479 91.785, 2264.379 90.376, 2274.279 88.966, 2284.179 87.557, 2294.080 86.147, 2303.980 84.738, 2313.880 83.328, 2323.780 81.919, 2333.680 80.509, 2343.580 79.100, 2353.481 77.691, 2363.381 76.281, 2373.281 74.872, 2383.181 73.462, 2393.081 72.053, 2402.981 70.643, 2412.882 69.234, 2422.782 67.824, 2432.682 66.415, 2442.582 65.005, 2452.482 63.596, 2462.383 62.187, 2472.283 60.777, 2482.183 59.368, 2492.083 57.958, 2501.983 56.549, 2511.883 55.139, 2521.784 53.730, 2531.684 52.320, 2541.584 50.911, 2551.484 49.502, 2561.384 48.092, 2571.284 46.683, 2581.185 45.273, 2591.085 43.864, 2600.985 42.454, 2610.885 41.045, 2620.785 39.635, 2630.686 38.226, 2640.586 36.817, 2650.486 35.407, 2660.386 33.998, 2670.286 31.929, 2684.816 31.727, 2694.814 31.524, 2704.812 31.322, 2714.810 31.119, 2724.808 30.917, 2734.806 30.714, 2744.804 30.512, 2754.802 30.309, 2764.800 30.107, 2774.798 29.904, 2784.796 29.702, 2794.794 29.499, 2804.792 29.297, 2814.789 29.094, 2824.787 28.892, 2834.785 28.689, 2844.783 28.487, 2854.781 28.284, 2864.779 28.082, 2874.777 27.879, 2884.775 27.677, 2894.773 27.474, 2904.771 27.272, 2914.769 27.069, 2924.767 26.867, 2934.765 26.664, 2944.763 26.462, 2954.761 26.259, 2964.759 26.057, 2974.757 25.854, 2984.755 25.652, 2994.753 25.449, 3004.751 25.247, 3014.748 25.044, 3024.746 24.842, 3034.744 24.639, 3044.742 24.437, 3054.740 24.234, 3064.738 24.032, 3074.736 23.857, 3083.384 33.857, 3083.384 43.857, 3083.384 53.857, 3083.384 63.857, 3083.384 73.857, 3083.384 83.857, 3083.384 93.857, 3083.384 103.857, 3083.384 113.857, 3083.384 123.857, 3083.384 133.857, 3083.384 143.857, 3083.384 153.857, 3083.384 163.857, 3083.384 173.857, 3083.384 183.857, 3083.384 193.857, 3083.384 203.857, 3083.384 213.857, 3083.384 223.857, 3083.384 233.857, 3083.384 243.857, 3083.384 253.857, 3083.384 263.857, 3083.384 273.857, 3083.384 283.857, 3083.384 293.857, 3083.384 303.857, 3083.384 313.857, 3083.384 323.857, 3083.384 333.857, 3083.384 343.857, 3083.384 353.857, 3083.384 363.857, 3083.384 373.857, 3083.384 383.857, 3083.384 393.857, 3083.384 403.857, 3083.384 413.857, 3083.384 423.857, 3083.384 433.857, 3083.384 443.857, 3083.384 453.857, 3083.384 463.857, 3083.384 473.857, 3083.384 483.857, 3083.384 493.857, 3083.384 503.857, 3083.384 513.857, 3083.384 523.857, 3083.384 533.857, 3083.384 543.857, 3083.384 553.857, 3083.384 563.857, 3083.384 573.857, 3083.384 583.857, 3083.384 593.857, 3083.384 601.224, 3083.384 607.562, 3083.384 614.050, 3083.384 620.671, 3083.384 627.408, 3083.384 634.241, 3083.384 641.149, 3083.384 648.110, 3083.384 655.102, 3083.384 662.100, 3083.384 669.080, 3083.384 676.016, 3083.384 682.882, 3083.384 689.650, 3083.384 696.295, 3083.384 702.787, 3083.384 712.787, 3083.384 722.787, 3083.384 732.787, 3083.384 742.787, 3083.384 752.787, 3083.384 762.787, 3083.384 772.787, 3083.384 782.787, 3083.384 792.787, 3083.384 798.809, 3083.384 804.778, 3083.384 810.632, 3083.384 816.350, 3083.384 821.912, 3083.384 831.912, 3083.384 841.912, 3083.384 851.912, 3083.384 860.828, 3083.384 866.167, 3083.384 871.365, 3083.384 876.406, 3083.384 881.272, 3083.384 891.272, 3083.384 901.272, 3083.384 911.272, 3083.384 921.272, 3083.384 931.272, 3083.384 941.272, 3083.384 951.272, 3083.384 961.272, 3083.384 971.272, 3083.384 981.272, 3083.384 991.272, 3083.384 1001.272, 3083.384 1011.272, 3083.384 1021.272, 3083.384 1031.272, 3083.384 1041.272, 3083.384 1051.272, 3083.384 1061.272, 3083.384 1071.272, 3083.384 1081.272, 3083.384 1091.272, 3083.384 1101.272, 3083.384 1111.272, 3083.384 1121.272, 3083.384 1131.272, 3083.384 1141.272, 3083.384 1151.272, 3083.384 1161.272, 3083.384 1171.272, 3083.384 1176.868, 3083.384 1180.987, 3083.384 1185.375, 3083.384 1190.013, 3083.384 1200.013, 3083.384 1210.013, 3083.384 1220.013, 3083.384 1230.013, 3083.384 1234.959, 3083.384 1239.531, 3083.384 1244.349, 3083.384 1249.390, 3083.384 1254.631, 3083.384 1260.047, 3083.384 1265.614, 3083.384 1271.307, 3083.384 1277.101, 3083.384 1282.971, 3083.384 1288.891, 3083.384 1294.839, 3083.384 1304.839, 3083.384 1314.839, 3083.384 1324.839, 3083.384 1334.839, 3083.384 1344.839, 3083.384 1354.839, 3083.384 1364.839, 3083.384 1374.839, 3083.384 1384.839, 3083.384 1394.839, 3083.384 1404.839, 3083.384 1414.839, 3083.384 1424.839, 3083.384 1434.839, 3083.384 1444.839, 3083.384 1454.839, 3083.384 1464.839, 3083.384 1474.839, 3083.384 1485.720, 3083.384 1490.736, 3083.384 1495.745, 3083.384 1500.724, 3083.384 1505.652, 3083.384 1510.510, 3083.384 1520.510, 3083.384 1530.510, 3083.384 1540.510, 3083.384 1550.510, 3083.384 1560.510, 3083.384 1570.510, 3083.384 1580.510, 3083.384 1590.510, 3083.384 1600.510, 3083.384 1610.510, 3083.384 1620.510, 3083.384 1630.510, 3083.384 1640.510, 3083.384 1650.510, 3083.384 1660.510, 3083.384 1670.510, 3083.384 1680.510, 3083.384 1690.510, 3083.384 1700.510, 3083.384 1710.510, 3083.384 1720.510, 3083.384 1730.510, 3083.384 1738.880, 3083.384 " />
            <path fill="none" stroke-width="3.0" stroke-linecap="butt" stroke-opacity="1.0" stroke="rgb(0, 0, 0)" stroke-linejoin="round" d=" M 1256.711, 1025.718 1255.058, 1027.789 1253.305, 1029.776 1251.454, 1031.673 1249.512, 1033.475 " />
            <path fill="none" stroke-width="3.0" stroke-linecap="butt" stroke-opacity="1.0" stroke="rgb(0, 0, 0)" stroke-linejoin="round" d=" M 1249.512, 1033.475 1247.482, 1035.179 1245.369, 1036.779 1243.180, 1038.272 1240.919, 1039.654 1238.591, 1040.921 1236.204, 1042.071 1233.761, 1043.101 " />
            <path fill="none" stroke-width="3.0" stroke-linecap="butt" stroke-opacity="1.0" stroke="rgb(0, 0, 0)" stroke-linejoin="round" d=" M 1850.587, 2180.390 1849.912, 2170.413 1849.237, 2160.435 1848.562, 2150.458 1847.886, 2140.481 1847.211, 2130.504 1846.536, 2120.527 1845.861, 2110.549 1845.186, 2100.572 1844.511, 2090.595 1843.836, 2080.618 1843.161, 2070.641 1842.486, 2060.664 1841.811, 2050.686 1841.136, 2040.709 1840.461, 2030.732 1839.786, 2020.755 1839.111, 2010.778 1838.436, 2000.800 1837.761, 1990.823 1837.086, 1980.846 1836.411, 1970.869 1835.735, 1960.892 1835.060, 1950.914 1834.385, 1940.937 1833.710, 1930.960 1833.035, 1920.983 1832.360, 1911.006 1831.685, 1901.029 1831.010, 1891.051 1830.335, 1881.074 1829.660, 1871.097 1828.985, 1861.120 1828.328, 1851.415 1828.870, 1841.429 1829.411, 1831.444 1829.952, 1821.459 1830.494, 1811.474 1831.035, 1801.488 1831.576, 1791.503 1832.118, 1781.517 1832.659, 1771.532 1833.201, 1761.547 1833.742, 1751.562 1834.283, 1741.576 1834.825, 1731.591 1835.366, 1721.605 1835.907, 1711.620 1836.449, 1701.635 1836.990, 1691.649 1837.531, 1681.664 1838.073, 1671.679 1838.614, 1661.693 1839.156, 1651.708 1839.697, 1641.723 1840.238, 1631.737 1840.780, 1621.752 1841.321, 1611.767 1841.862, 1601.781 1842.404, 1591.796 1842.945, 1581.811 1843.487, 1571.825 1844.028, 1561.840 1844.569, 1551.855 1845.111, 1541.869 1845.652, 1531.884 1846.193, 1521.899 1846.735, 1511.913 1847.276, 1501.928 1847.818, 1491.943 1848.359, 1481.957 1848.900, 1471.972 1849.442, 1461.987 1849.983, 1452.001 1850.524, 1442.016 1851.066, 1432.031 1851.607, 1422.045 1852.148, 1412.060 1852.690, 1402.075 1853.231, 1392.089 1853.772, 1382.104 1854.314, 1372.119 1854.855, 1362.133 1855.397, 1352.148 1855.938, 1342.163 1856.479, 1332.177 1857.241, 1318.129 1858.731, 1308.240 1860.220, 1298.352 1861.710, 1288.463 1863.200, 1278.575 1864.689, 1268.687 1866.179, 1258.798 1867.669, 1248.910 1869.158, 1239.021 1870.648, 1229.133 1872.137, 1219.244 1873.627, 1209.356 1875.117, 1199.468 1876.606, 1189.579 1878.096, 1179.691 1879.586, 1169.802 1881.075, 1159.914 1881.965, 1154.008 1881.600, 1144.015 1881.234, 1134.021 1880.869, 1124.028 1880.503, 1114.035 1880.137, 1104.042 1879.772, 1094.048 1879.406, 1084.055 1879.041, 1074.062 1878.675, 1064.068 1878.310, 1054.075 1877.944, 1044.082 1877.579, 1034.088 1877.213, 1024.095 1876.848, 1014.102 1876.482, 1004.108 1876.117, 994.115 1875.751, 984.122 1875.385, 974.128 1875.020, 964.135 1874.654, 954.142 1874.289, 944.148 1873.923, 934.155 1873.558, 924.162 1873.192, 914.168 1872.827, 904.175 1872.461, 894.182 1872.096, 884.188 1871.730, 874.195 1871.365, 864.202 1870.999, 854.208 1870.634, 844.215 1870.268, 834.222 1869.902, 824.229 1869.537, 814.235 1869.171, 804.242 1868.806, 794.249 1868.440, 784.255 1868.075, 774.262 1867.709, 764.269 1867.344, 754.275 1866.978, 744.282 1866.613, 734.289 1866.247, 724.295 1865.723, 709.968 1867.707, 700.166 1869.691, 690.365 1871.675, 680.564 1873.658, 670.762 1875.642, 660.961 1877.626, 651.160 1879.610, 641.359 1881.594, 631.558 1883.578, 621.756 1885.562, 611.955 1887.545, 602.154 1889.529, 592.353 1891.513, 582.551 1893.497, 572.750 1895.481, 562.949 1897.465, 553.148 1899.448, 543.346 1901.432, 533.545 1903.416, 523.744 1905.400, 513.943 1907.384, 504.141 1909.368, 494.340 1911.352, 484.539 1913.335, 474.738 1915.319, 464.937 1917.303, 455.135 1919.287, 445.334 1921.271, 435.533 1923.255, 425.731 1925.238, 415.930 1927.222, 406.129 1929.206, 396.328 1931.190, 386.527 1933.174, 376.725 1935.158, 366.924 1937.141, 357.123 1939.125, 347.322 1941.109, 337.520 1943.093, 327.719 1945.077, 317.918 1947.061, 308.116 1949.045, 298.315 1951.028, 288.514 1953.012, 278.713 1954.996, 268.912 1956.980, 259.110 1958.964, 249.309 1960.948, 239.508 1962.931, 229.707 1964.915, 219.905 1966.899, 210.104 1968.883, 200.303 1970.867, 190.502 1972.851, 180.700 1974.834, 170.899 1976.818, 161.098 1978.802, 151.297 1980.786, 141.495 1982.606, 132.506 1984.254, 122.643 1985.903, 112.780 1987.551, 102.916 1989.200, 93.053 1990.848, 83.190 1992.497, 73.327 1994.145, 63.464 1995.794, 53.600 1997.442, 43.737 1999.091, 33.874 2000.804, 23.626 1990.804, 23.626 1980.804, 23.626 1970.804, 23.626 1960.804, 23.626 1950.804, 23.626 1940.804, 23.626 1930.804, 23.626 1920.804, 23.626 1910.804, 23.626 1900.804, 23.626 1890.804, 23.626 1880.804, 23.626 1870.804, 23.626 1860.804, 23.626 1850.804, 23.626 1840.804, 23.626 1830.804, 23.626 1820.804, 23.626 1810.804, 23.626 1800.804, 23.626 1790.804, 23.626 1780.804, 23.626 1770.804, 23.626 1760.804, 23.626 1750.804, 23.626 1740.804, 23.626 1730.804, 23.626 1720.804, 23.626 1710.804, 23.626 1700.804, 23.626 1690.804, 23.626 1686.720, 23.626 1676.720, 23.626 1666.720, 23.626 1656.720, 23.626 1646.720, 23.626 1636.720, 23.626 1626.720, 23.626 1616.720, 23.626 1606.720, 23.626 1600.739, 23.626 1590.739, 23.626 1580.739, 23.626 1570.739, 23.626 1560.739, 23.626 1550.739, 23.626 1540.739, 23.626 1530.739, 23.626 1520.739, 23.626 1510.739, 23.626 1500.739, 23.626 1490.739, 23.626 1480.739, 23.626 1470.739, 23.626 1460.739, 23.626 1450.739, 23.626 1440.739, 23.626 1430.739, 23.626 1420.739, 23.626 1410.739, 23.626 1400.739, 23.626 1390.739, 23.626 1380.739, 23.626 1370.739, 23.626 1360.739, 23.626 1350.739, 23.626 1340.739, 23.626 1330.739, 23.626 1320.739, 23.626 1310.739, 23.626 1300.739, 23.626 1290.739, 23.626 1280.739, 23.626 1270.739, 23.626 1260.739, 23.626 1250.739, 23.626 1240.739, 23.626 1230.739, 23.626 1220.739, 23.626 1210.739, 23.626 1200.739, 23.626 1190.739, 23.626 1180.739, 23.626 1170.739, 23.626 1160.739, 23.626 1150.739, 23.626 1140.739, 23.626 1130.739, 23.626 1120.739, 23.626 1110.739, 23.626 1100.739, 23.626 1090.739, 23.626 1080.739, 23.626 1070.739, 23.626 1060.739, 23.626 1050.739, 23.626 1040.739, 23.626 1030.739, 23.626 1020.739, 23.626 1010.739, 23.626 1000.739, 23.626 990.739, 23.626 980.739, 23.626 970.739, 23.626 960.739, 23.626 950.739, 23.626 940.739, 23.626 930.739, 23.626 920.739, 23.626 910.739, 23.626 900.739, 23.626 890.739, 23.626 880.739, 23.626 870.739, 23.626 860.739, 23.626 850.739, 23.626 840.739, 23.626 830.739, 23.626 820.739, 23.626 810.739, 23.626 800.739, 23.626 790.739, 23.626 780.739, 23.626 770.739, 23.626 760.739, 23.626 750.739, 23.626 740.739, 23.626 730.739, 23.626 720.739, 23.626 710.739, 23.626 700.739, 23.626 690.739, 23.626 680.739, 23.626 670.739, 23.626 660.739, 23.626 650.739, 23.626 640.739, 23.626 630.739, 23.626 620.739, 23.626 610.739, 23.626 600.739, 23.626 590.739, 23.626 580.739, 23.626 570.739, 23.626 560.739, 23.626 550.739, 23.626 540.739, 23.626 530.739, 23.626 520.739, 23.626 510.739, 23.626 500.739, 23.626 490.739, 23.626 480.739, 23.626 470.739, 23.626 460.739, 23.626 450.739, 23.626 440.739, 23.626 430.739, 23.626 420.739, 23.626 410.739, 23.626 400.739, 23.626 390.739, 23.626 380.739, 23.626 370.739, 23.626 360.739, 23.626 350.739, 23.626 340.739, 23.626 330.739, 23.626 320.739, 23.626 310.739, 23.626 300.739, 23.626 290.739, 23.626 280.739, 23.626 270.739, 23.626 260.739, 23.626 250.739, 23.626 240.739, 23.626 230.739, 23.626 216.668, 23.626 " />
            <path fill="none" stroke-width="3.0" stroke-linecap="butt" stroke-opacity="1.0" stroke="rgb(0, 0, 0)" stroke-linejoin="round" d=" M 1265.849, 1006.740 1265.131, 1009.292 1264.287, 1011.804 1263.319, 1014.271 " />
            <path fill="none" stroke-width="3.0" stroke-linecap="butt" stroke-opacity="1.0" stroke="rgb(0, 0, 0)" stroke-linejoin="round" d=" M 1231.272, 1044.007 1228.739, 1044.788 1226.171, 1045.442 1223.574, 1045.966 " />
            <path fill="none" stroke-width="3.0" stroke-linecap="butt" stroke-opacity="1.0" stroke="rgb(0, 0, 0)" stroke-linejoin="round" d=" M 1223.574, 1045.966 1220.953, 1046.361 1218.316, 1046.625 1215.669, 1046.757 1213.020, 1046.757 1210.373, 1046.625 1207.736, 1046.361 1205.116, 1045.966 1202.518, 1045.442 1199.950, 1044.788 1197.418, 1044.007 " />
            <path fill="none" stroke-width="3.0" stroke-linecap="butt" stroke-opacity="1.0" stroke="rgb(0, 0, 0)" stroke-linejoin="round" d=" M 1267.229, 988.334 1267.426, 990.977 1267.493, 993.625 1267.426, 996.275 1267.229, 998.918 " />
            <path fill="none" stroke-width="3.0" stroke-linecap="butt" stroke-opacity="1.0" stroke="rgb(0, 0, 0)" stroke-linejoin="round" d=" M 1265.849, 980.511 1266.439, 983.095 1266.899, 985.705 1267.229, 988.334 " />
            <path fill="none" stroke-width="3.0" stroke-linecap="butt" stroke-opacity="1.0" stroke="rgb(0, 0, 0)" stroke-linejoin="round" d=" M 1261.020, 968.208 1262.229, 970.566 1263.319, 972.982 1264.287, 975.448 1265.131, 977.961 1265.849, 980.511 " />
            <path fill="none" stroke-width="3.0" stroke-linecap="butt" stroke-opacity="1.0" stroke="rgb(0, 0, 0)" stroke-linejoin="round" d=" M 1259.695, 965.913 1261.020, 968.208 " />
            <path fill="none" stroke-width="3.0" stroke-linecap="butt" stroke-opacity="1.0" stroke="rgb(0, 0, 0)" stroke-linejoin="round" d=" M 1258.258, 963.687 1259.695, 965.913 " />
            <path fill="none" stroke-width="3.0" stroke-linecap="butt" stroke-opacity="1.0" stroke="rgb(0, 0, 0)" stroke-linejoin="round" d=" M 1256.711, 961.535 1258.258, 963.687 " />
            <path fill="none" stroke-width="3.0" stroke-linecap="butt" stroke-opacity="1.0" stroke="rgb(0, 0, 0)" stroke-linejoin="round" d=" M 1255.058, 959.463 1256.711, 961.535 " />
            <path fill="none" stroke-width="3.0" stroke-linecap="butt" stroke-opacity="1.0" stroke="rgb(0, 0, 0)" stroke-linejoin="round" d=" M 1253.305, 957.476 1255.058, 959.463 " />
            <path fill="none" stroke-width="3.0" stroke-linecap="butt" stroke-opacity="1.0" stroke="rgb(0, 0, 0)" stroke-linejoin="round" d=" M 1251.454, 955.580 1253.305, 957.476 " />
            <path fill="none" stroke-width="3.0" stroke-linecap="butt" stroke-opacity="1.0" stroke="rgb(0, 0, 0)" stroke-linejoin="round" d=" M 1249.512, 953.777 1251.454, 955.580 " />
            <path fill="none" stroke-width="3.0" stroke-linecap="butt" stroke-opacity="1.0" stroke="rgb(0, 0, 0)" stroke-linejoin="round" d=" M 1247.482, 952.073 1249.512, 953.777 " />
            <path fill="none" stroke-width="3.0" stroke-linecap="butt" stroke-opacity="1.0" stroke="rgb(0, 0, 0)" stroke-linejoin="round" d=" M 1228.739, 942.465 1231.272, 943.245 1233.761, 944.152 1236.204, 945.182 1238.591, 946.332 1240.919, 947.599 1243.180, 948.980 1245.369, 950.474 1247.482, 952.073 " />
            <path fill="none" stroke-width="3.0" stroke-linecap="butt" stroke-opacity="1.0" stroke="rgb(0, 0, 0)" stroke-linejoin="round" d=" M 1205.116, 941.285 1207.736, 940.891 1210.373, 940.626 1213.020, 940.495 1215.669, 940.495 1218.316, 940.626 1220.953, 940.891 1223.574, 941.285 1226.171, 941.811 1228.739, 942.465 " />
            <path fill="none" stroke-width="3.0" stroke-linecap="butt" stroke-opacity="1.0" stroke="rgb(0, 0, 0)" stroke-linejoin="round" d=" M 1194.927, 1043.101 1192.486, 1042.071 1190.098, 1040.921 1187.771, 1039.654 1185.509, 1038.272 1183.320, 1036.779 1181.207, 1035.179 1179.177, 1033.475 " />
            <path fill="none" stroke-width="3.0" stroke-linecap="butt" stroke-opacity="1.0" stroke="rgb(0, 0, 0)" stroke-linejoin="round" d=" M 1179.177, 1033.475 1177.235, 1031.673 1175.385, 1029.776 1173.631, 1027.789 " />
            <path fill="none" stroke-width="3.0" stroke-linecap="butt" stroke-opacity="1.0" stroke="rgb(0, 0, 0)" stroke-linejoin="round" d=" M 1171.979, 1025.718 1170.432, 1023.565 1168.994, 1021.339 1167.669, 1019.044 1166.460, 1016.686 1165.370, 1014.271 " />
            <path fill="none" stroke-width="3.0" stroke-linecap="butt" stroke-opacity="1.0" stroke="rgb(0, 0, 0)" stroke-linejoin="round" d=" M 1161.263, 990.977 1161.461, 988.334 " />
            <path fill="none" stroke-width="3.0" stroke-linecap="butt" stroke-opacity="1.0" stroke="rgb(0, 0, 0)" stroke-linejoin="round" d=" M 1161.461, 988.334 1161.791, 985.705 " />
            <path fill="none" stroke-width="3.0" stroke-linecap="butt" stroke-opacity="1.0" stroke="rgb(0, 0, 0)" stroke-linejoin="round" d=" M 1161.791, 985.705 1162.250, 983.095 " />
            <path fill="none" stroke-width="3.0" stroke-linecap="butt" stroke-opacity="1.0" stroke="rgb(0, 0, 0)" stroke-linejoin="round" d=" M 1162.250, 983.095 1162.840, 980.511 1163.558, 977.961 1164.402, 975.448 " />
            <path fill="none" stroke-width="3.0" stroke-linecap="butt" stroke-opacity="1.0" stroke="rgb(0, 0, 0)" stroke-linejoin="round" d=" M 1163.558, 1009.292 1162.840, 1006.740 1162.250, 1004.157 1161.791, 1001.547 1161.461, 998.918 1161.263, 996.275 1161.197, 993.625 " />
            <path fill="none" stroke-width="3.0" stroke-linecap="butt" stroke-opacity="1.0" stroke="rgb(0, 0, 0)" stroke-linejoin="round" d=" M 1164.402, 975.448 1165.370, 972.982 1166.460, 970.566 1167.669, 968.208 " />
            <path fill="none" stroke-width="3.0" stroke-linecap="butt" stroke-opacity="1.0" stroke="rgb(0, 0, 0)" stroke-linejoin="round" d=" M 1167.669, 968.208 1168.994, 965.913 " />
            <path fill="none" stroke-width="3.0" stroke-linecap="butt" stroke-opacity="1.0" stroke="rgb(0, 0, 0)" stroke-linejoin="round" d=" M 1168.994, 965.913 1170.432, 963.687 " />
            <path fill="none" stroke-width="3.0" stroke-linecap="butt" stroke-opacity="1.0" stroke="rgb(0, 0, 0)" stroke-linejoin="round" d=" M 1170.432, 963.687 1171.979, 961.535 " />
            <path fill="none" stroke-width="3.0" stroke-linecap="butt" stroke-opacity="1.0" stroke="rgb(0, 0, 0)" stroke-linejoin="round" d=" M 1171.979, 961.535 1173.631, 959.463 1175.385, 957.476 1177.235, 955.580 " />
            <path fill="none" stroke-width="3.0" stroke-linecap="butt" stroke-opacity="1.0" stroke="rgb(0, 0, 0)" stroke-linejoin="round" d=" M 1177.235, 955.580 1179.177, 953.777 1181.207, 952.073 1183.320, 950.474 1185.509, 948.980 1187.771, 947.599 1190.098, 946.332 1192.486, 945.182 1194.927, 944.152 1197.418, 943.245 1199.950, 942.465 1202.518, 941.811 " />
            <path fill="none" stroke-width="3.0" stroke-linecap="butt" stroke-opacity="1.0" stroke="rgb(0, 0, 0)" stroke-linejoin="round" d=" M 1202.518, 941.811 1205.116, 941.285 " />
            <path fill="none" stroke-width="3.0" stroke-linecap="butt" stroke-opacity="1.0" stroke="rgb(0, 0, 0)" stroke-linejoin="round" d=" M 5090.128, 2890.348 5087.610, 2892.930 5084.965, 2895.384 5082.203, 2897.702 5079.327, 2899.880 5076.347, 2901.912 5073.269, 2903.793 5070.102, 2905.518 5066.852, 2907.083 5063.528, 2908.484 5060.139, 2909.717 5056.692, 2910.780 5053.196, 2911.671 5049.661, 2912.385 5046.094, 2912.923 5042.505, 2913.282 5038.902, 2913.462 5035.295, 2913.462 5031.693, 2913.282 5028.104, 2912.923 5024.537, 2912.385 5021.002, 2911.671 5017.506, 2910.780 5014.060, 2909.717 5010.670, 2908.484 5007.347, 2907.083 5004.097, 2905.518 5000.929, 2903.793 4997.851, 2901.912 4994.871, 2899.880 4991.996, 2897.702 4989.232, 2895.384 4986.588, 2892.930 4984.070, 2890.348 4981.683, 2887.644 4979.435, 2884.824 4977.329, 2881.895 4975.372, 2878.865 4973.568, 2875.741 4971.923, 2872.531 4970.439, 2869.243 4969.122, 2865.886 4967.973, 2862.467 4966.996, 2858.995 4966.193, 2855.478 4965.567, 2851.926 4965.118, 2848.347 4964.849, 2844.750 4964.759, 2841.144 4964.849, 2837.538 4965.118, 2833.941 4965.567, 2830.362 4966.193, 2826.810 4966.996, 2823.294 4967.973, 2819.821 4969.122, 2816.402 4970.439, 2813.044 4971.923, 2809.757 4973.568, 2806.547 4975.372, 2803.424 4977.329, 2800.393 4979.435, 2797.465 4981.683, 2794.645 4984.070, 2791.940 4986.588, 2789.358 4989.232, 2786.905 4991.996, 2784.586 4994.871, 2782.408 4997.851, 2780.376 5000.929, 2778.496 5004.097, 2776.771 5007.347, 2775.206 5010.670, 2773.805 5014.060, 2772.571 5017.506, 2771.507 5021.002, 2770.618 5024.537, 2769.903 5028.104, 2769.365 5031.693, 2769.006 5035.295, 2768.826 5038.902, 2768.826 5042.505, 2769.006 5046.094, 2769.365 5049.661, 2769.903 5053.196, 2770.618 5056.692, 2771.507 5060.139, 2772.571 5063.528, 2773.805 5066.852, 2775.206 5070.102, 2776.771 5073.269, 2778.496 5076.347, 2780.376 5079.327, 2782.408 5082.203, 2784.586 5084.965, 2786.905 5087.610, 2789.358 5090.128, 2791.940 5092.515, 2794.645 5094.764, 2797.465 5096.869, 2800.393 5098.826, 2803.424 5100.630, 2806.547 5102.275, 2809.757 5103.759, 2813.044 5105.077, 2816.402 5106.226, 2819.821 5107.202, 2823.294 5108.005, 2826.810 5108.631, 2830.362 5109.080, 2833.941 5109.349, 2837.538 5109.439, 2841.144 5109.349, 2844.750 5109.080, 2848.347 5108.631, 2851.926 5108.005, 2855.478 5107.202, 2858.995 5106.226, 2862.467 5105.077, 2865.886 5103.759, 2869.243 5102.275, 2872.531 5100.630, 2875.741 5098.826, 2878.865 5096.869, 2881.895 5094.764, 2884.824 5092.515, 2887.644 5090.128, 2890.348 " />
            <path fill="none" stroke-width="3.0" stroke-linecap="butt" stroke-opacity="1.0" stroke="rgb(0, 0, 0)" stroke-linejoin="round" d=" M 5516.436, 1677.467 5513.917, 1680.049 5511.273, 1682.502 5508.510, 1684.821 5505.635, 1686.999 5502.654, 1689.031 5499.577, 1690.911 5496.409, 1692.637 5493.159, 1694.202 5489.835, 1695.603 5486.446, 1696.837 5482.999, 1697.900 5479.503, 1698.789 5475.968, 1699.505 5472.401, 1700.042 5468.812, 1700.401 5465.210, 1700.580 5461.603, 1700.580 5458.000, 1700.401 5454.412, 1700.042 5450.845, 1699.505 5447.309, 1698.789 5443.814, 1697.900 5440.367, 1696.837 5436.978, 1695.603 5433.654, 1694.202 5430.404, 1692.637 5427.236, 1690.911 5424.159, 1689.031 5421.178, 1686.999 5418.303, 1684.821 5415.540, 1682.502 5412.896, 1680.049 5410.377, 1677.467 5407.991, 1674.762 5405.742, 1671.942 5403.636, 1669.014 5401.679, 1665.984 5399.876, 1662.860 5398.230, 1659.650 5396.747, 1656.363 5395.429, 1653.005 5394.280, 1649.586 5393.303, 1646.114 5392.500, 1642.597 5391.875, 1639.045 5391.426, 1635.465 5391.156, 1631.869 5391.066, 1628.263 5391.156, 1624.657 5391.426, 1621.061 5391.875, 1617.482 5392.500, 1613.929 5393.303, 1610.412 5394.280, 1606.940 5395.429, 1603.521 5396.747, 1600.163 5398.230, 1596.876 5399.876, 1593.666 5401.679, 1590.542 5403.636, 1587.512 5405.742, 1584.583 5407.991, 1581.764 5410.377, 1579.060 5412.896, 1576.478 5415.540, 1574.024 5418.303, 1571.705 5421.178, 1569.527 5424.159, 1567.496 5427.236, 1565.615 5430.404, 1563.889 5433.654, 1562.324 5436.978, 1560.923 5440.367, 1559.690 5443.814, 1558.626 5447.309, 1557.736 5450.845, 1557.022 5454.412, 1556.484 5458.000, 1556.125 5461.603, 1555.946 5465.210, 1555.946 5468.812, 1556.125 5472.401, 1556.484 5475.968, 1557.022 5479.503, 1557.736 5482.999, 1558.626 5486.446, 1559.690 5489.835, 1560.923 5493.159, 1562.324 5496.409, 1563.889 5499.577, 1565.615 5502.654, 1567.496 5505.635, 1569.527 5508.510, 1571.705 5511.273, 1574.024 5513.917, 1576.478 5516.436, 1579.060 5518.822, 1581.764 5521.071, 1584.583 5523.177, 1587.512 5525.134, 1590.542 5526.937, 1593.666 5528.583, 1596.876 5530.066, 1600.163 5531.384, 1603.521 5532.533, 1606.940 5533.510, 1610.412 5534.312, 1613.929 5534.938, 1617.482 5535.387, 1621.061 5535.657, 1624.657 5535.747, 1628.263 5535.657, 1631.869 5535.387, 1635.465 5534.938, 1639.045 5534.312, 1642.597 5533.510, 1646.114 5532.533, 1649.586 5531.384, 1653.005 5530.066, 1656.363 5528.583, 1659.650 5526.937, 1662.860 5525.134, 1665.984 5523.177, 1669.014 5521.071, 1671.942 5518.822, 1674.762 5516.436, 1677.467 " />
            <path fill="none" stroke-width="3.0" stroke-linecap="butt" stroke-opacity="1.0" stroke="rgb(0, 0, 0)" stroke-linejoin="round" d=" M 1050.933, 2890.348 1048.415, 2892.930 1045.770, 2895.384 1043.007, 2897.702 1040.132, 2899.880 1037.152, 2901.912 1034.074, 2903.793 1030.906, 2905.518 1027.656, 2907.083 1024.333, 2908.484 1020.943, 2909.717 1017.497, 2910.780 1014.001, 2911.671 1010.466, 2912.385 1006.899, 2912.923 1003.310, 2913.282 999.708, 2913.462 996.100, 2913.462 992.498, 2913.282 988.909, 2912.923 985.342, 2912.385 981.807, 2911.671 978.311, 2910.780 974.865, 2909.717 971.475, 2908.484 968.151, 2907.083 964.902, 2905.518 961.734, 2903.793 958.656, 2901.912 955.676, 2899.880 952.801, 2897.702 950.038, 2895.384 947.393, 2892.930 944.875, 2890.348 942.488, 2887.644 940.239, 2884.824 938.134, 2881.895 936.177, 2878.865 934.373, 2875.741 932.728, 2872.531 931.244, 2869.243 929.927, 2865.886 928.778, 2862.467 927.801, 2858.995 926.998, 2855.478 926.372, 2851.926 925.923, 2848.347 925.654, 2844.750 925.564, 2841.144 925.654, 2837.538 925.923, 2833.941 926.372, 2830.362 926.998, 2826.810 927.801, 2823.294 928.778, 2819.821 929.927, 2816.402 931.244, 2813.044 932.728, 2809.757 934.373, 2806.547 936.177, 2803.424 938.134, 2800.393 940.239, 2797.465 942.488, 2794.645 944.875, 2791.940 947.393, 2789.358 950.038, 2786.905 952.801, 2784.586 955.676, 2782.408 958.656, 2780.376 961.734, 2778.496 964.902, 2776.771 968.151, 2775.206 971.475, 2773.805 974.865, 2772.571 978.311, 2771.507 981.807, 2770.618 985.342, 2769.903 988.909, 2769.365 992.498, 2769.006 996.100, 2768.826 999.708, 2768.826 1003.310, 2769.006 1006.899, 2769.365 1010.466, 2769.903 1014.001, 2770.618 1017.497, 2771.507 1020.943, 2772.571 1024.333, 2773.805 1027.656, 2775.206 1030.906, 2776.771 1034.074, 2778.496 1037.152, 2780.376 1040.132, 2782.408 1043.007, 2784.586 1045.770, 2786.905 1048.415, 2789.358 1050.933, 2791.940 1053.320, 2794.645 1055.569, 2797.465 1057.674, 2800.393 1059.631, 2803.424 1061.435, 2806.547 1063.080, 2809.757 1064.564, 2813.044 1065.881, 2816.402 1067.030, 2819.821 1068.007, 2823.294 1068.810, 2826.810 1069.436, 2830.362 1069.885, 2833.941 1070.154, 2837.538 1070.244, 2841.144 1070.154, 2844.750 1069.885, 2848.347 1069.436, 2851.926 1068.810, 2855.478 1068.007, 2858.995 1067.030, 2862.467 1065.881, 2865.886 1064.564, 2869.243 1063.080, 2872.531 1061.435, 2875.741 1059.631, 2878.865 1057.674, 2881.895 1055.569, 2884.824 1053.320, 2887.644 1050.933, 2890.348 " />
            <path fill="none" stroke-width="3.0" stroke-linecap="butt" stroke-opacity="1.0" stroke="rgb(0, 0, 0)" stroke-linejoin="round" d=" M 1161.197, 993.625 1161.263, 990.977 " />
            <path fill="none" stroke-width="3.0" stroke-linecap="butt" stroke-opacity="1.0" stroke="rgb(0, 0, 0)" stroke-linejoin="round" d=" M 1164.402, 1011.804 1163.558, 1009.292 " />
            <path fill="none" stroke-width="3.0" stroke-linecap="butt" stroke-opacity="1.0" stroke="rgb(0, 0, 0)" stroke-linejoin="round" d=" M 1165.370, 1014.271 1164.402, 1011.804 " />
            <path fill="none" stroke-width="3.0" stroke-linecap="butt" stroke-opacity="1.0" stroke="rgb(0, 0, 0)" stroke-linejoin="round" d=" M 1173.631, 1027.789 1171.979, 1025.718 " />
            <path fill="none" stroke-width="3.0" stroke-linecap="butt" stroke-opacity="1.0" stroke="rgb(0, 0, 0)" stroke-linejoin="round" d=" M 1197.418, 1044.007 1194.927, 1043.101 " />
            <path fill="none" stroke-width="3.0" stroke-linecap="butt" stroke-opacity="1.0" stroke="rgb(0, 0, 0)" stroke-linejoin="round" d=" M 1233.761, 1043.101 1231.272, 1044.007 " />
            <path fill="none" stroke-width="3.0" stroke-linecap="butt" stroke-opacity="1.0" stroke="rgb(0, 0, 0)" stroke-linejoin="round" d=" M 1258.258, 1023.565 1256.711, 1025.718 " />
            <path fill="none" stroke-width="3.0" stroke-linecap="butt" stroke-opacity="1.0" stroke="rgb(0, 0, 0)" stroke-linejoin="round" d=" M 1259.695, 1021.339 1258.258, 1023.565 " />
            <path fill="none" stroke-width="3.0" stroke-linecap="butt" stroke-opacity="1.0" stroke="rgb(0, 0, 0)" stroke-linejoin="round" d=" M 1261.020, 1019.044 1259.695, 1021.339 " />
            <path fill="none" stroke-width="3.0" stroke-linecap="butt" stroke-opacity="1.0" stroke="rgb(0, 0, 0)" stroke-linejoin="round" d=" M 1262.229, 1016.686 1261.020, 1019.044 " />
            <path fill="none" stroke-width="3.0" stroke-linecap="butt" stroke-opacity="1.0" stroke="rgb(0, 0, 0)" stroke-linejoin="round" d=" M 1263.319, 1014.271 1262.229, 1016.686 " />
            <path fill="none" stroke-width="3.0" stroke-linecap="butt" stroke-opacity="1.0" stroke="rgb(0, 0, 0)" stroke-linejoin="round" d=" M 1266.439, 1004.157 1265.849, 1006.740 " />
            <path fill="none" stroke-width="3.0" stroke-linecap="butt" stroke-opacity="1.0" stroke="rgb(0, 0, 0)" stroke-linejoin="round" d=" M 1266.899, 1001.547 1266.439, 1004.157 " />
            <path fill="none" stroke-width="3.0" stroke-linecap="butt" stroke-opacity="1.0" stroke="rgb(0, 0, 0)" stroke-linejoin="round" d=" M 1267.229, 998.918 1266.899, 1001.547 " />
            <path fill="none" stroke-width="3.0" stroke-linecap="butt" stroke-opacity="1.0" stroke="rgb(0, 0, 0)" stroke-linejoin="round" d=" M 1738.880, 3083.384 1738.201, 3073.407 1737.522, 3063.430 1736.843, 3053.453 1736.164, 3043.476 1735.484, 3033.499 1735.128, 3028.268 " />
            <path fill="none" stroke-width="3.0" stroke-linecap="butt" stroke-opacity="1.0" stroke="rgb(0, 0, 0)" stroke-linejoin="round" d=" M 1735.128, 3028.268 1736.478, 3018.360 1737.827, 3008.451 1739.176, 2998.543 1740.526, 2988.634 1741.875, 2978.725 1743.224, 2968.817 1744.573, 2958.908 1745.923, 2949.000 1747.272, 2939.091 1748.621, 2929.183 1749.970, 2919.274 1751.320, 2909.366 1752.669, 2899.457 1754.018, 2889.549 1755.368, 2879.640 1756.717, 2869.731 1758.066, 2859.823 1759.415, 2849.914 1760.765, 2840.006 1762.114, 2830.097 1763.463, 2820.189 1764.812, 2810.280 1766.162, 2800.372 1767.511, 2790.463 1768.860, 2780.554 1770.210, 2770.646 1771.559, 2760.737 1772.908, 2750.829 1774.257, 2740.920 1775.607, 2731.012 1776.956, 2721.103 1778.305, 2711.195 1779.655, 2701.286 1781.004, 2691.377 1782.353, 2681.469 1783.702, 2671.560 1785.052, 2661.652 1786.401, 2651.743 1787.750, 2641.835 1789.100, 2631.926 1790.449, 2622.018 1791.798, 2612.109 1793.147, 2602.200 1794.497, 2592.292 1795.846, 2582.383 1797.195, 2572.475 1798.545, 2562.566 1799.894, 2552.658 1801.243, 2542.749 1802.592, 2532.841 1803.942, 2522.932 1805.291, 2513.023 1806.640, 2503.115 1807.990, 2493.206 1809.339, 2483.298 1810.688, 2473.389 1812.037, 2463.481 1813.387, 2453.572 1814.736, 2443.664 1816.085, 2433.755 1817.434, 2423.846 1818.784, 2413.938 1820.133, 2404.029 1821.482, 2394.121 1822.832, 2384.212 1824.181, 2374.304 1825.530, 2364.395 1826.879, 2354.487 1828.229, 2344.578 1829.578, 2334.669 1830.927, 2324.761 1832.276, 2314.852 1833.626, 2304.944 1834.975, 2295.035 1836.324, 2285.127 1837.674, 2275.218 1839.023, 2265.310 1840.372, 2255.401 1841.721, 2245.492 1843.071, 2235.584 1844.420, 2225.675 1845.769, 2215.767 1847.119, 2205.858 1848.468, 2195.950 1850.587, 2180.390 " />
            <path fill="none" stroke-width="3.0" stroke-linecap="butt" stroke-opacity="1.0" stroke="rgb(0, 0, 0)" stroke-linejoin="round" d=" M 4536.745, 2891.551 4534.661, 2901.332 4532.577, 2911.112 4530.493, 2920.892 4528.409, 2930.673 4526.325, 2940.453 4524.241, 2950.234 4522.157, 2960.014 4520.072, 2969.794 4517.988, 2979.575 4515.904, 2989.355 4513.820, 2999.136 4511.736, 3008.916 4509.652, 3018.697 4507.568, 3028.477 4505.484, 3038.257 4503.400, 3048.038 4501.315, 3057.818 4499.231, 3067.599 4497.147, 3077.379 4495.868, 3083.384 " />
            <path fill="none" stroke-width="3.0" stroke-linecap="butt" stroke-opacity="1.0" stroke="rgb(0, 0, 0)" stroke-linejoin="round" d=" M 5496.479, 98.268 5493.515, 107.818 5490.551, 117.369 5487.587, 126.919 5484.623, 136.470 5481.658, 146.021 5478.694, 155.571 5475.730, 165.122 5472.766, 174.672 5469.802, 184.223 5466.837, 193.773 5463.873, 203.324 5460.909, 212.875 5459.988, 215.841 " />
        </g>
    </g>
<g id="slice-labels"><text x="605.5932142857142" y="533.5856666666666" text-anchor="middle" dominant-baseline="middle" font-family="Arial, sans-serif" font-size="59.05322771162998" font-weight="bold" fill="black" stroke="none" stroke-width="7.086387325395597" paint-order="stroke fill">Slice23 (Back)</text><text x="1769.0656428571426" y="533.5856666666666" text-anchor="middle" dominant-baseline="middle" font-family="Arial, sans-serif" font-size="59.05322771162998" font-weight="bold" fill="black" stroke="none" stroke-width="7.086387325395597" paint-order="stroke fill">Slice23 (Back)</text><text x="2932.5380714285716" y="533.5856666666666" text-anchor="middle" dominant-baseline="middle" font-family="Arial, sans-serif" font-size="59.05322771162998" font-weight="bold" fill="black" stroke="none" stroke-width="7.086387325395597" paint-order="stroke fill">Slice23 (Back)</text><text x="4096.0105" y="533.5856666666666" text-anchor="middle" dominant-baseline="middle" font-family="Arial, sans-serif" font-size="59.05322771162998" font-weight="bold" fill="black" stroke="none" stroke-width="7.086387325395597" paint-order="stroke fill">Slice23 (Back)</text><text x="5259.482928571429" y="533.5856666666666" text-anchor="middle" dominant-baseline="middle" font-family="Arial, sans-serif" font-size="59.05322771162998" font-weight="bold" fill="black" stroke="none" stroke-width="7.086387325395597" paint-order="stroke fill">Slice23 (Back)</text><text x="6422.955357142857" y="533.5856666666666" text-anchor="middle" dominant-baseline="middle" font-family="Arial, sans-serif" font-size="59.05322771162998" font-weight="bold" fill="black" stroke="none" stroke-width="7.086387325395597" paint-order="stroke fill">Slice23 (Back)</text><text x="7586.427785714286" y="533.5856666666666" text-anchor="middle" dominant-baseline="middle" font-family="Arial, sans-serif" font-size="59.05322771162998" font-weight="bold" fill="black" stroke="none" stroke-width="7.086387325395597" paint-order="stroke fill">Slice23 (Back)</text><text x="605.5932142857142" y="1553.5049999999999" text-anchor="middle" dominant-baseline="middle" font-family="Arial, sans-serif" font-size="59.05322771162998" font-weight="bold" fill="black" stroke="none" stroke-width="7.086387325395597" paint-order="stroke fill">Slice23 (Back)</text><text x="1769.0656428571426" y="1553.5049999999999" text-anchor="middle" dominant-baseline="middle" font-family="Arial, sans-serif" font-size="59.05322771162998" font-weight="bold" fill="black" stroke="none" stroke-width="7.086387325395597" paint-order="stroke fill">Slice23 (Back)</text><text x="2932.5380714285716" y="1553.5049999999999" text-anchor="middle" dominant-baseline="middle" font-family="Arial, sans-serif" font-size="59.05322771162998" font-weight="bold" fill="black" stroke="none" stroke-width="7.086387325395597" paint-order="stroke fill">Slice23 (Back)</text><text x="4096.0105" y="1553.5049999999999" text-anchor="middle" dominant-baseline="middle" font-family="Arial, sans-serif" font-size="59.05322771162998" font-weight="bold" fill="black" stroke="none" stroke-width="7.086387325395597" paint-order="stroke fill">Slice23 (Back)</text><text x="5259.482928571429" y="1553.5049999999999" text-anchor="middle" dominant-baseline="middle" font-family="Arial, sans-serif" font-size="59.05322771162998" font-weight="bold" fill="black" stroke="none" stroke-width="7.086387325395597" paint-order="stroke fill">Slice23 (Back)</text><text x="6422.955357142857" y="1553.5049999999999" text-anchor="middle" dominant-baseline="middle" font-family="Arial, sans-serif" font-size="59.05322771162998" font-weight="bold" fill="black" stroke="none" stroke-width="7.086387325395597" paint-order="stroke fill">Slice23 (Back)</text><text x="7586.427785714286" y="1553.5049999999999" text-anchor="middle" dominant-baseline="middle" font-family="Arial, sans-serif" font-size="59.05322771162998" font-weight="bold" fill="black" stroke="none" stroke-width="7.086387325395597" paint-order="stroke fill">Slice23 (Back)</text><text x="605.5932142857142" y="2573.4243333333334" text-anchor="middle" dominant-baseline="middle" font-family="Arial, sans-serif" font-size="59.05322771162998" font-weight="bold" fill="black" stroke="none" stroke-width="7.086387325395597" paint-order="stroke fill">Slice23 (Back)</text><text x="1769.0656428571426" y="2573.4243333333334" text-anchor="middle" dominant-baseline="middle" font-family="Arial, sans-serif" font-size="59.05322771162998" font-weight="bold" fill="black" stroke="none" stroke-width="7.086387325395597" paint-order="stroke fill">Slice23 (Back)</text><text x="2932.5380714285716" y="2573.4243333333334" text-anchor="middle" dominant-baseline="middle" font-family="Arial, sans-serif" font-size="59.05322771162998" font-weight="bold" fill="black" stroke="none" stroke-width="7.086387325395597" paint-order="stroke fill">Slice23 (Back)</text><text x="4096.0105" y="2573.4243333333334" text-anchor="middle" dominant-baseline="middle" font-family="Arial, sans-serif" font-size="59.05322771162998" font-weight="bold" fill="black" stroke="none" stroke-width="7.086387325395597" paint-order="stroke fill">Slice23 (Back)</text><text x="5259.482928571429" y="2573.4243333333334" text-anchor="middle" dominant-baseline="middle" font-family="Arial, sans-serif" font-size="59.05322771162998" font-weight="bold" fill="black" stroke="none" stroke-width="7.086387325395597" paint-order="stroke fill">Slice23 (Back)</text><text x="6422.955357142857" y="2573.4243333333334" text-anchor="middle" dominant-baseline="middle" font-family="Arial, sans-serif" font-size="59.05322771162998" font-weight="bold" fill="black" stroke="none" stroke-width="7.086387325395597" paint-order="stroke fill">Slice23 (Back)</text><text x="7586.427785714286" y="2573.4243333333334" text-anchor="middle" dominant-baseline="middle" font-family="Arial, sans-serif" font-size="59.05322771162998" font-weight="bold" fill="black" stroke="none" stroke-width="7.086387325395597" paint-order="stroke fill">Slice23 (Back)</text></g></svg>