<?xml version='1.0' encoding='utf-8'?>
<svg xmlns="http://www.w3.org/2000/svg" xmlns:inkscape="http://www.inkscape.org/namespaces/inkscape" version="1.1" width="347.9590856432915mm" height="134.0593614578247mm" viewBox="0.6245922961367114 0.004583883763498164 4108.7718154077265 1583.0008322324727" preserveAspectRatio="none">
    <g id="ViewLayer_LineSet" inkscape:groupmode="lineset" inkscape:label="ViewLayer_LineSet">
        <g inkscape:groupmode="layer" id="strokes" inkscape:label="strokes">
            <path fill="none" stroke-width="3.0" stroke-linecap="butt" stroke-opacity="1.0" stroke="rgb(0, 0, 0)" stroke-linejoin="round" d=" M 3409.307, 1559.271 3419.307, 1559.273 3429.307, 1559.275 3439.307, 1559.276 3449.307, 1559.278 3459.307, 1559.280 3469.307, 1559.282 3479.307, 1559.283 3489.307, 1559.285 3499.307, 1559.287 3509.307, 1559.288 3519.307, 1559.290 3529.307, 1559.292 3539.307, 1559.294 3549.307, 1559.295 3559.307, 1559.297 3569.307, 1559.299 3579.307, 1559.301 3589.307, 1559.302 3599.307, 1559.304 3609.307, 1559.306 3619.307, 1559.308 3629.307, 1559.309 3639.307, 1559.311 3649.307, 1559.313 3659.307, 1559.315 3669.307, 1559.316 3679.307, 1559.318 3689.307, 1559.320 3699.307, 1559.321 3709.307, 1559.323 3719.307, 1559.325 3729.307, 1559.327 3739.307, 1559.328 3749.307, 1559.330 3759.307, 1559.332 3769.307, 1559.334 3779.307, 1559.335 3789.307, 1559.337 3799.307, 1559.339 3809.307, 1559.341 3819.307, 1559.342 3829.307, 1559.344 3839.307, 1559.346 3849.307, 1559.348 3859.307, 1559.349 3869.307, 1559.351 3879.307, 1559.353 3889.307, 1559.354 3899.307, 1559.356 3909.307, 1559.358 3919.307, 1559.360 3929.307, 1559.361 3939.307, 1559.363 3949.307, 1559.365 3959.307, 1559.367 3969.307, 1559.368 3979.307, 1559.370 3989.307, 1559.372 3999.307, 1559.374 4009.307, 1559.375 4019.307, 1559.377 4029.307, 1559.379 4039.307, 1559.381 4049.307, 1559.382 4059.307, 1559.384 4069.307, 1559.386 4085.780, 1559.389 " />
            <path fill="none" stroke-width="3.0" stroke-linecap="butt" stroke-opacity="1.0" stroke="rgb(0, 0, 0)" stroke-linejoin="round" d=" M 3247.730, 1559.320 3257.730, 1559.324 3267.730, 1559.329 3277.730, 1559.333 3287.730, 1559.338 3297.730, 1559.342 3307.730, 1559.347 3317.730, 1559.351 3327.730, 1559.355 3337.730, 1559.360 3347.730, 1559.364 3357.730, 1559.369 3367.730, 1559.373 3377.730, 1559.378 3387.730, 1559.382 3397.730, 1559.387 3402.196, 1559.389 " />
            <path fill="none" stroke-width="3.0" stroke-linecap="butt" stroke-opacity="1.0" stroke="rgb(0, 0, 0)" stroke-linejoin="round" d=" M 3227.135, 1559.389 3233.755, 1559.337 3240.661, 1559.336 3247.730, 1559.320 " />
            <path fill="none" stroke-width="3.0" stroke-linecap="butt" stroke-opacity="1.0" stroke="rgb(0, 0, 0)" stroke-linejoin="round" d=" M 2689.688, 1559.273 2693.527, 1559.344 2703.527, 1559.345 2713.527, 1559.346 2723.527, 1559.347 2733.527, 1559.348 2743.527, 1559.349 2753.527, 1559.349 2763.527, 1559.350 2773.527, 1559.351 2783.527, 1559.352 2793.527, 1559.353 2803.527, 1559.354 2813.527, 1559.354 2823.527, 1559.355 2833.527, 1559.356 2843.527, 1559.357 2853.527, 1559.358 2863.527, 1559.359 2873.527, 1559.359 2883.527, 1559.360 2893.527, 1559.361 2903.527, 1559.362 2913.527, 1559.363 2923.527, 1559.363 2933.527, 1559.364 2943.527, 1559.365 2953.527, 1559.366 2963.527, 1559.367 2973.527, 1559.368 2983.527, 1559.368 2993.527, 1559.369 3003.527, 1559.370 3013.527, 1559.371 3023.527, 1559.372 3033.527, 1559.373 3043.527, 1559.373 3053.527, 1559.374 3063.527, 1559.375 3073.527, 1559.376 3083.527, 1559.377 3093.527, 1559.378 3103.527, 1559.378 3113.527, 1559.379 3123.527, 1559.380 3133.527, 1559.381 3143.527, 1559.382 3153.527, 1559.382 3163.527, 1559.383 3173.527, 1559.384 3183.527, 1559.385 3193.527, 1559.386 3203.527, 1559.387 3213.527, 1559.387 3227.135, 1559.389 " />
            <path fill="none" stroke-width="3.0" stroke-linecap="butt" stroke-opacity="1.0" stroke="rgb(0, 0, 0)" stroke-linejoin="round" d=" M 4085.780, 1559.389 4085.192, 1557.823 4082.504, 1548.191 4079.816, 1538.558 4077.129, 1528.926 4074.441, 1519.294 4071.753, 1509.662 4069.065, 1500.030 4066.378, 1490.398 4063.690, 1480.766 4061.002, 1471.134 4058.314, 1461.502 4055.627, 1451.870 4052.939, 1442.238 4050.251, 1432.606 4047.563, 1422.974 4044.876, 1413.342 4042.188, 1403.710 4039.500, 1394.078 4036.812, 1384.446 4034.125, 1374.814 4031.437, 1365.182 4028.749, 1355.550 4026.062, 1345.918 4023.374, 1336.286 4020.686, 1326.654 4017.998, 1317.022 4015.311, 1307.390 4012.623, 1297.758 4009.935, 1288.126 4007.247, 1278.494 4004.560, 1268.862 4001.872, 1259.230 3999.184, 1249.598 3996.497, 1239.966 3993.809, 1230.333 3991.121, 1220.701 3988.433, 1211.069 3985.746, 1201.437 3983.058, 1191.805 3980.370, 1182.173 3977.682, 1172.541 3974.995, 1162.909 3972.307, 1153.277 3969.885, 1144.597 3967.872, 1134.802 3965.860, 1125.006 3963.847, 1115.211 3961.834, 1105.416 3959.822, 1095.620 3957.809, 1085.825 3955.797, 1076.029 3953.784, 1066.234 3951.771, 1056.439 3949.759, 1046.643 3947.746, 1036.848 3945.734, 1027.052 3943.721, 1017.257 3941.708, 1007.462 3939.696, 997.666 3937.683, 987.871 3935.671, 978.076 3933.658, 968.280 3931.646, 958.485 3929.633, 948.689 3927.620, 938.894 3925.608, 929.099 3923.595, 919.303 3921.583, 909.508 3919.570, 899.713 3917.558, 889.917 3915.545, 880.122 3913.532, 870.326 3911.520, 860.531 3909.507, 850.736 3907.495, 840.940 3905.482, 831.145 3903.469, 821.349 3901.457, 811.554 3899.444, 801.759 3897.432, 791.963 3895.419, 782.168 3893.406, 772.373 3891.394, 762.577 3889.381, 752.782 3887.369, 742.986 3885.356, 733.191 3883.344, 723.396 3881.331, 713.600 3879.319, 703.805 3877.306, 694.010 3875.293, 684.214 3873.281, 674.419 3871.268, 664.623 3869.256, 654.828 3867.243, 645.033 3864.270, 630.562 " />
            <path fill="none" stroke-width="3.0" stroke-linecap="butt" stroke-opacity="1.0" stroke="rgb(0, 0, 0)" stroke-linejoin="round" d=" M 2673.292, 1559.389 2677.589, 1559.273 2681.750, 1559.273 2685.787, 1559.273 2689.688, 1559.273 " />
            <path fill="none" stroke-width="3.0" stroke-linecap="butt" stroke-opacity="1.0" stroke="rgb(0, 0, 0)" stroke-linejoin="round" d=" M 2316.239, 1559.297 2318.150, 1559.298 2320.208, 1559.298 2322.412, 1559.298 2324.760, 1559.299 2327.250, 1559.299 2329.878, 1559.300 2332.642, 1559.300 2335.536, 1559.301 2338.556, 1559.301 2341.696, 1559.302 2344.948, 1559.303 2348.305, 1559.303 2351.759, 1559.304 2355.300, 1559.305 2358.917, 1559.305 2362.601, 1559.306 2366.338, 1559.306 2370.116, 1559.307 2373.922, 1559.308 2377.741, 1559.308 2381.560, 1559.309 2385.362, 1559.310 2389.133, 1559.310 2392.856, 1559.311 2396.516, 1559.312 2400.097, 1559.312 2403.583, 1559.313 2406.959, 1559.313 2410.210, 1559.314 2413.323, 1559.314 2416.281, 1559.314 2419.075, 1559.315 2421.691, 1559.315 2424.118, 1559.316 2426.348, 1559.316 2428.388, 1559.343 2438.388, 1559.345 2448.388, 1559.346 2458.388, 1559.348 2468.388, 1559.350 2478.388, 1559.352 2488.388, 1559.354 2498.388, 1559.356 2508.388, 1559.358 2518.388, 1559.360 2528.388, 1559.361 2538.388, 1559.363 2548.388, 1559.365 2558.388, 1559.367 2568.388, 1559.369 2578.388, 1559.371 2588.388, 1559.373 2598.388, 1559.375 2608.388, 1559.376 2618.388, 1559.378 2628.388, 1559.380 2638.388, 1559.382 2648.388, 1559.384 2658.388, 1559.386 2668.388, 1559.388 2673.292, 1559.389 " />
            <path fill="none" stroke-width="3.0" stroke-linecap="butt" stroke-opacity="1.0" stroke="rgb(0, 0, 0)" stroke-linejoin="round" d=" M 2847.961, 471.203 2846.753, 473.560 2845.428, 475.855 2843.990, 478.081 2842.444, 480.231 2840.792, 482.302 2839.039, 484.290 2837.189, 486.186 " />
            <path fill="none" stroke-width="3.0" stroke-linecap="butt" stroke-opacity="1.0" stroke="rgb(0, 0, 0)" stroke-linejoin="round" d=" M 2837.189, 486.186 2835.247, 487.989 2833.217, 489.691 2831.105, 491.292 " />
            <path fill="none" stroke-width="3.0" stroke-linecap="butt" stroke-opacity="1.0" stroke="rgb(0, 0, 0)" stroke-linejoin="round" d=" M 2831.105, 491.292 2828.916, 492.783 2826.655, 494.165 2824.328, 495.433 2821.941, 496.582 2819.500, 497.611 2817.010, 498.517 2814.478, 499.298 2811.911, 499.952 2809.314, 500.477 2806.694, 500.872 2804.058, 501.136 2801.411, 501.268 2798.762, 501.268 2796.116, 501.136 2793.479, 500.872 2790.860, 500.477 2788.263, 499.952 2785.695, 499.298 2783.163, 498.517 2780.674, 497.611 2778.232, 496.582 2775.845, 495.433 2773.518, 494.165 " />
            <path fill="none" stroke-width="3.0" stroke-linecap="butt" stroke-opacity="1.0" stroke="rgb(0, 0, 0)" stroke-linejoin="round" d=" M 2853.158, 445.499 2853.224, 448.147 2853.158, 450.796 2852.959, 453.438 2852.630, 456.068 2852.170, 458.677 2851.581, 461.260 " />
            <path fill="none" stroke-width="3.0" stroke-linecap="butt" stroke-opacity="1.0" stroke="rgb(0, 0, 0)" stroke-linejoin="round" d=" M 2852.959, 442.857 2853.158, 445.499 " />
            <path fill="none" stroke-width="3.0" stroke-linecap="butt" stroke-opacity="1.0" stroke="rgb(0, 0, 0)" stroke-linejoin="round" d=" M 2852.630, 440.227 2852.959, 442.857 " />
            <path fill="none" stroke-width="3.0" stroke-linecap="butt" stroke-opacity="1.0" stroke="rgb(0, 0, 0)" stroke-linejoin="round" d=" M 2852.170, 437.618 2852.630, 440.227 " />
            <path fill="none" stroke-width="3.0" stroke-linecap="butt" stroke-opacity="1.0" stroke="rgb(0, 0, 0)" stroke-linejoin="round" d=" M 2847.961, 425.092 2849.051, 427.508 2850.019, 429.974 2850.863, 432.484 2851.581, 435.035 2852.170, 437.618 " />
            <path fill="none" stroke-width="3.0" stroke-linecap="butt" stroke-opacity="1.0" stroke="rgb(0, 0, 0)" stroke-linejoin="round" d=" M 2846.753, 422.734 2847.961, 425.092 " />
            <path fill="none" stroke-width="3.0" stroke-linecap="butt" stroke-opacity="1.0" stroke="rgb(0, 0, 0)" stroke-linejoin="round" d=" M 2845.428, 420.440 2846.753, 422.734 " />
            <path fill="none" stroke-width="3.0" stroke-linecap="butt" stroke-opacity="1.0" stroke="rgb(0, 0, 0)" stroke-linejoin="round" d=" M 2843.990, 418.214 2845.428, 420.440 " />
            <path fill="none" stroke-width="3.0" stroke-linecap="butt" stroke-opacity="1.0" stroke="rgb(0, 0, 0)" stroke-linejoin="round" d=" M 2842.444, 416.063 2843.990, 418.214 " />
            <path fill="none" stroke-width="3.0" stroke-linecap="butt" stroke-opacity="1.0" stroke="rgb(0, 0, 0)" stroke-linejoin="round" d=" M 2837.189, 410.109 2839.039, 412.005 2840.792, 413.992 2842.444, 416.063 " />
            <path fill="none" stroke-width="3.0" stroke-linecap="butt" stroke-opacity="1.0" stroke="rgb(0, 0, 0)" stroke-linejoin="round" d=" M 2764.927, 487.989 2762.985, 486.186 2761.135, 484.290 2759.382, 482.302 " />
            <path fill="none" stroke-width="3.0" stroke-linecap="butt" stroke-opacity="1.0" stroke="rgb(0, 0, 0)" stroke-linejoin="round" d=" M 2835.247, 408.306 2837.189, 410.109 " />
            <path fill="none" stroke-width="3.0" stroke-linecap="butt" stroke-opacity="1.0" stroke="rgb(0, 0, 0)" stroke-linejoin="round" d=" M 2821.941, 399.713 2824.328, 400.862 2826.655, 402.130 2828.916, 403.512 2831.105, 405.003 2833.217, 406.603 2835.247, 408.306 " />
            <path fill="none" stroke-width="3.0" stroke-linecap="butt" stroke-opacity="1.0" stroke="rgb(0, 0, 0)" stroke-linejoin="round" d=" M 2757.729, 480.231 2756.183, 478.081 2754.745, 475.855 2753.421, 473.560 2752.212, 471.203 2751.122, 468.788 2750.154, 466.322 2749.311, 463.810 2748.593, 461.260 2748.003, 458.677 2747.543, 456.068 2747.214, 453.438 2747.016, 450.796 2746.950, 448.147 2747.016, 445.499 2747.214, 442.857 2747.543, 440.227 2748.003, 437.618 2748.593, 435.035 2749.311, 432.484 " />
            <path fill="none" stroke-width="3.0" stroke-linecap="butt" stroke-opacity="1.0" stroke="rgb(0, 0, 0)" stroke-linejoin="round" d=" M 2819.500, 398.684 2821.941, 399.713 " />
            <path fill="none" stroke-width="3.0" stroke-linecap="butt" stroke-opacity="1.0" stroke="rgb(0, 0, 0)" stroke-linejoin="round" d=" M 2817.010, 397.777 2819.500, 398.684 " />
            <path fill="none" stroke-width="3.0" stroke-linecap="butt" stroke-opacity="1.0" stroke="rgb(0, 0, 0)" stroke-linejoin="round" d=" M 2814.478, 396.997 2817.010, 397.777 " />
            <path fill="none" stroke-width="3.0" stroke-linecap="butt" stroke-opacity="1.0" stroke="rgb(0, 0, 0)" stroke-linejoin="round" d=" M 1408.682, 983.678 1406.164, 986.259 1403.520, 988.713 1400.758, 991.031 1397.883, 993.208 1394.903, 995.239 1391.826, 997.120 1388.659, 998.844 1385.410, 1000.409 1382.087, 1001.810 1378.698, 1003.043 1375.252, 1004.107 1371.758, 1004.996 1368.223, 1005.711 1364.657, 1006.249 1361.069, 1006.608 1357.467, 1006.787 1353.860, 1006.787 1350.259, 1006.608 1346.670, 1006.249 1343.104, 1005.711 1339.570, 1004.996 1336.075, 1004.107 1332.629, 1003.043 1329.240, 1001.810 1325.917, 1000.409 1322.668, 998.844 1319.501, 997.120 1316.424, 995.239 1313.444, 993.208 1310.570, 991.031 1307.807, 988.713 1305.164, 986.259 1302.645, 983.678 1300.259, 980.974 1298.011, 978.155 1295.906, 975.227 1293.949, 972.198 1292.146, 969.074 1290.501, 965.865 1289.018, 962.578 1287.700, 959.221 1286.552, 955.803 1285.575, 952.331 1284.772, 948.815 1284.146, 945.264 1283.698, 941.686 1283.428, 938.090 1283.338, 934.485 1283.428, 930.880 1283.698, 927.283 1284.146, 923.705 1284.772, 920.153 1285.575, 916.638 1286.552, 913.166 1287.700, 909.747 1289.018, 906.391 1290.501, 903.104 1292.146, 899.894 1293.949, 896.772 1295.906, 893.742 1298.011, 890.814 1300.259, 887.995 1302.645, 885.291 1305.164, 882.709 1307.807, 880.256 1310.570, 877.938 1313.444, 875.761 1316.424, 873.729 1319.501, 871.849 1322.668, 870.124 1325.917, 868.560 1329.240, 867.159 1332.629, 865.925 1336.075, 864.862 1339.570, 863.973 1343.104, 863.258 1346.670, 862.720 1350.259, 862.361 1353.860, 862.182 1357.467, 862.182 1361.069, 862.361 1364.657, 862.720 1368.223, 863.258 1371.758, 863.973 1375.252, 864.862 1378.698, 865.925 1382.087, 867.159 1385.410, 868.560 1388.659, 870.124 1391.826, 871.849 1394.903, 873.729 1397.883, 875.761 1400.758, 877.938 1403.520, 880.256 1406.164, 882.709 1408.682, 885.291 1411.068, 887.995 1413.317, 890.814 1415.422, 893.742 1417.378, 896.772 1419.181, 899.894 1420.826, 903.104 1422.310, 906.391 1423.627, 909.747 1424.776, 913.166 1425.752, 916.638 1426.555, 920.153 1427.181, 923.705 1427.630, 927.283 1427.899, 930.880 1427.989, 934.485 1427.899, 938.090 1427.630, 941.686 1427.181, 945.264 1426.555, 948.815 1425.752, 952.331 1424.776, 955.803 1423.627, 959.221 1422.310, 962.578 1420.826, 965.865 1419.181, 969.074 1417.378, 972.198 1415.422, 975.227 1413.317, 978.155 1411.068, 980.974 1408.682, 983.678 " />
            <path fill="none" stroke-width="3.0" stroke-linecap="butt" stroke-opacity="1.0" stroke="rgb(0, 0, 0)" stroke-linejoin="round" d=" M 1904.261, 1559.389 1905.617, 1559.301 1907.052, 1559.300 1908.483, 1559.300 1909.906, 1559.300 1911.316, 1559.300 1912.710, 1559.299 1914.083, 1559.299 1915.433, 1559.299 1916.754, 1559.299 1918.045, 1559.298 1919.302, 1559.298 1920.576, 1559.272 1930.576, 1559.275 1940.576, 1559.278 1950.576, 1559.281 1960.576, 1559.284 1970.576, 1559.287 1980.576, 1559.290 1990.576, 1559.293 2000.576, 1559.296 2010.576, 1559.299 2020.576, 1559.302 2030.576, 1559.305 2040.576, 1559.308 2050.575, 1559.311 2060.575, 1559.314 2070.575, 1559.317 2080.575, 1559.320 2090.575, 1559.322 2100.575, 1559.325 2110.575, 1559.328 2120.575, 1559.331 2130.575, 1559.334 2140.575, 1559.337 2150.575, 1559.340 2160.575, 1559.343 2170.575, 1559.346 2180.575, 1559.349 2190.575, 1559.352 2200.575, 1559.355 2210.575, 1559.358 2220.575, 1559.361 2230.575, 1559.364 2240.575, 1559.367 2250.575, 1559.370 2260.575, 1559.373 2270.575, 1559.376 2280.575, 1559.379 2290.575, 1559.382 2300.575, 1559.384 2314.401, 1559.389 " />
            <path fill="none" stroke-width="3.0" stroke-linecap="butt" stroke-opacity="1.0" stroke="rgb(0, 0, 0)" stroke-linejoin="round" d=" M 1593.761, 1559.273 1603.761, 1559.276 1613.761, 1559.280 1623.761, 1559.284 1633.761, 1559.288 1643.761, 1559.291 1653.761, 1559.295 1663.761, 1559.299 1673.761, 1559.303 1683.761, 1559.306 1693.761, 1559.310 1703.761, 1559.314 1713.761, 1559.317 1723.761, 1559.321 1733.761, 1559.325 1743.761, 1559.329 1753.761, 1559.332 1763.761, 1559.336 1773.761, 1559.340 1783.761, 1559.344 1793.761, 1559.347 1803.761, 1559.351 1813.761, 1559.355 1823.761, 1559.359 1833.761, 1559.362 1843.761, 1559.366 1853.761, 1559.370 1863.761, 1559.373 1873.761, 1559.377 1883.761, 1559.381 1893.761, 1559.385 1904.261, 1559.389 " />
            <path fill="none" stroke-width="3.0" stroke-linecap="butt" stroke-opacity="1.0" stroke="rgb(0, 0, 0)" stroke-linejoin="round" d=" M 1560.425, 1559.389 1561.444, 1559.280 1562.579, 1559.280 1563.780, 1559.280 1565.045, 1559.280 1566.369, 1559.279 1567.749, 1559.279 1569.181, 1559.279 1570.661, 1559.279 1572.183, 1559.279 1573.745, 1559.279 1575.340, 1559.279 1576.964, 1559.279 1578.612, 1559.278 1580.280, 1559.278 1581.961, 1559.278 1583.652, 1559.278 1585.346, 1559.278 1587.039, 1559.278 1588.727, 1559.277 1590.402, 1559.277 1592.061, 1559.277 1593.761, 1559.273 " />
            <path fill="none" stroke-width="3.0" stroke-linecap="butt" stroke-opacity="1.0" stroke="rgb(0, 0, 0)" stroke-linejoin="round" d=" M 2749.311, 432.484 2750.154, 429.974 2751.122, 427.508 2752.212, 425.092 2753.421, 422.734 2754.745, 420.440 2756.183, 418.214 2757.729, 416.063 2759.382, 413.992 " />
            <path fill="none" stroke-width="3.0" stroke-linecap="butt" stroke-opacity="1.0" stroke="rgb(0, 0, 0)" stroke-linejoin="round" d=" M 364.872, 1559.328 366.777, 1559.359 376.777, 1559.359 386.777, 1559.359 396.777, 1559.359 406.777, 1559.360 416.777, 1559.360 426.777, 1559.360 436.777, 1559.360 446.777, 1559.361 456.777, 1559.361 466.777, 1559.361 476.777, 1559.361 486.777, 1559.362 496.777, 1559.362 506.777, 1559.362 516.777, 1559.362 526.777, 1559.363 536.777, 1559.363 546.777, 1559.363 556.777, 1559.363 566.777, 1559.364 576.777, 1559.364 586.777, 1559.364 596.777, 1559.364 606.777, 1559.365 616.777, 1559.365 626.777, 1559.365 636.777, 1559.365 646.777, 1559.366 656.777, 1559.366 666.777, 1559.366 676.777, 1559.366 686.777, 1559.367 696.777, 1559.367 706.777, 1559.367 716.777, 1559.367 726.777, 1559.368 736.777, 1559.368 746.777, 1559.368 756.777, 1559.368 766.777, 1559.369 776.777, 1559.369 786.777, 1559.369 796.777, 1559.369 806.777, 1559.370 816.777, 1559.370 826.777, 1559.370 836.777, 1559.370 846.777, 1559.371 856.777, 1559.371 866.777, 1559.371 876.777, 1559.371 886.777, 1559.372 896.777, 1559.372 906.777, 1559.372 916.777, 1559.372 926.777, 1559.373 936.777, 1559.373 946.777, 1559.373 956.777, 1559.373 966.777, 1559.374 976.777, 1559.374 986.777, 1559.374 996.777, 1559.374 1006.777, 1559.375 1016.777, 1559.375 1026.777, 1559.375 1036.777, 1559.375 1046.777, 1559.376 1056.777, 1559.376 1066.777, 1559.376 1076.777, 1559.376 1086.777, 1559.377 1096.777, 1559.377 1106.777, 1559.377 1116.777, 1559.377 1126.777, 1559.378 1136.777, 1559.378 1146.777, 1559.378 1156.777, 1559.378 1166.777, 1559.379 1176.777, 1559.379 1186.777, 1559.379 1196.777, 1559.379 1206.777, 1559.380 1216.777, 1559.380 1226.777, 1559.380 1236.777, 1559.380 1246.777, 1559.381 1256.777, 1559.381 1266.777, 1559.381 1276.777, 1559.381 1286.777, 1559.382 1296.777, 1559.382 1306.777, 1559.382 1316.777, 1559.382 1326.777, 1559.383 1336.777, 1559.383 1346.777, 1559.383 1356.777, 1559.383 1366.777, 1559.384 1376.777, 1559.384 1386.777, 1559.384 1396.777, 1559.384 1406.777, 1559.385 1416.777, 1559.385 1426.777, 1559.385 1436.777, 1559.385 1446.777, 1559.386 1456.777, 1559.386 1466.777, 1559.386 1476.777, 1559.386 1486.777, 1559.387 1496.777, 1559.387 1506.777, 1559.387 1516.777, 1559.387 1526.777, 1559.388 1536.777, 1559.388 1546.777, 1559.388 1560.425, 1559.389 " />
            <path fill="none" stroke-width="3.0" stroke-linecap="butt" stroke-opacity="1.0" stroke="rgb(0, 0, 0)" stroke-linejoin="round" d=" M 24.241, 1559.389 34.241, 1559.389 44.241, 1559.389 54.241, 1559.389 64.241, 1559.389 74.241, 1559.389 84.241, 1559.389 94.241, 1559.389 104.241, 1559.389 114.241, 1559.389 124.241, 1559.389 134.241, 1559.389 144.241, 1559.389 154.241, 1559.389 164.241, 1559.389 174.241, 1559.389 184.241, 1559.389 194.241, 1559.389 204.241, 1559.389 214.241, 1559.389 224.241, 1559.389 234.241, 1559.389 244.241, 1559.389 254.241, 1559.389 264.241, 1559.389 274.241, 1559.389 284.241, 1559.389 294.241, 1559.389 304.241, 1559.389 314.241, 1559.389 324.241, 1559.389 334.241, 1559.389 344.241, 1559.389 354.241, 1559.389 362.838, 1559.389 364.872, 1559.328 " />
            <path fill="none" stroke-width="3.0" stroke-linecap="butt" stroke-opacity="1.0" stroke="rgb(0, 0, 0)" stroke-linejoin="round" d=" M 3742.853, 23.621 3732.853, 23.621 3722.853, 23.621 3712.853, 23.621 3702.853, 23.621 3692.853, 23.621 3682.853, 23.621 3672.853, 23.621 3662.853, 23.621 3652.853, 23.621 3642.853, 23.621 3632.853, 23.621 3622.853, 23.621 3612.853, 23.621 3602.853, 23.621 3592.853, 23.621 3582.853, 23.621 3572.853, 23.621 3562.853, 23.621 3552.853, 23.621 3542.853, 23.621 3532.853, 23.621 3522.853, 23.621 3512.853, 23.621 3502.853, 23.621 3492.853, 23.621 3482.853, 23.621 3472.853, 23.621 3462.853, 23.621 3452.853, 23.621 3442.853, 23.621 3432.853, 23.621 3422.853, 23.621 3412.853, 23.621 3402.853, 23.621 3392.853, 23.621 3382.853, 23.621 3372.853, 23.621 3362.853, 23.621 3352.853, 23.621 3342.853, 23.621 3332.853, 23.621 3322.853, 23.621 3312.853, 23.621 3302.853, 23.621 3292.853, 23.621 3282.853, 23.621 3272.853, 23.621 3262.853, 23.621 3252.853, 23.621 3242.853, 23.621 3232.853, 23.621 3222.853, 23.621 3212.853, 23.621 3202.853, 23.621 3192.853, 23.621 3182.853, 23.621 3172.853, 23.621 3162.853, 23.621 3152.853, 23.621 3142.853, 23.621 3132.853, 23.621 3122.853, 23.621 3112.853, 23.621 3102.853, 23.621 3092.853, 23.621 3082.853, 23.621 3072.853, 23.621 3062.853, 23.621 3052.853, 23.621 3042.853, 23.621 3032.853, 23.621 3022.853, 23.621 3012.853, 23.621 3002.853, 23.621 2992.853, 23.621 2982.853, 23.621 2972.853, 23.621 2962.853, 23.621 2952.853, 23.621 2942.853, 23.621 2932.853, 23.621 2922.853, 23.621 2912.853, 23.621 2902.853, 23.621 2892.853, 23.621 2882.069, 23.621 2879.942, 23.621 2877.809, 23.621 2875.676, 23.621 2873.548, 23.621 2871.432, 23.621 2869.332, 23.621 2867.255, 23.621 2865.207, 23.621 2863.192, 23.621 2861.217, 23.621 2859.285, 23.621 2857.404, 23.621 2855.577, 23.621 2853.810, 23.621 2852.107, 23.621 2850.473, 23.621 2848.911, 23.621 2838.911, 23.621 2828.911, 23.621 2818.911, 23.621 2808.911, 23.621 2798.911, 23.621 2788.911, 23.621 2778.911, 23.621 2768.911, 23.621 2758.911, 23.621 2748.911, 23.621 2738.911, 23.621 2728.911, 23.621 2718.911, 23.621 2708.911, 23.621 2698.911, 23.621 2688.911, 23.621 2678.911, 23.621 2668.911, 23.621 2658.911, 23.621 2648.911, 23.621 2638.911, 23.621 2628.911, 23.621 2618.911, 23.621 2608.911, 23.621 2598.911, 23.621 2588.911, 23.621 2578.911, 23.621 2568.911, 23.621 2558.911, 23.621 2548.911, 23.621 2538.911, 23.621 2528.911, 23.621 2518.911, 23.621 2508.911, 23.621 2498.911, 23.621 2488.911, 23.621 2478.911, 23.621 2468.911, 23.621 2458.911, 23.621 2448.911, 23.621 2438.911, 23.621 2428.911, 23.621 2418.911, 23.621 2408.911, 23.621 2398.911, 23.621 2388.911, 23.621 2378.911, 23.621 2368.911, 23.621 2358.911, 23.621 2348.911, 23.621 2342.856, 23.621 " />
            <path fill="none" stroke-width="3.0" stroke-linecap="butt" stroke-opacity="1.0" stroke="rgb(0, 0, 0)" stroke-linejoin="round" d=" M 2771.258, 403.512 2773.518, 402.130 " />
            <path fill="none" stroke-width="3.0" stroke-linecap="butt" stroke-opacity="1.0" stroke="rgb(0, 0, 0)" stroke-linejoin="round" d=" M 2773.518, 402.130 2775.845, 400.862 2778.232, 399.713 2780.674, 398.684 2783.163, 397.777 " />
            <path fill="none" stroke-width="3.0" stroke-linecap="butt" stroke-opacity="1.0" stroke="rgb(0, 0, 0)" stroke-linejoin="round" d=" M 2783.163, 397.777 2785.695, 396.997 2788.263, 396.343 2790.860, 395.817 " />
            <path fill="none" stroke-width="3.0" stroke-linecap="butt" stroke-opacity="1.0" stroke="rgb(0, 0, 0)" stroke-linejoin="round" d=" M 2790.860, 395.817 2793.479, 395.422 " />
            <path fill="none" stroke-width="3.0" stroke-linecap="butt" stroke-opacity="1.0" stroke="rgb(0, 0, 0)" stroke-linejoin="round" d=" M 2793.479, 395.422 2796.116, 395.159 " />
            <path fill="none" stroke-width="3.0" stroke-linecap="butt" stroke-opacity="1.0" stroke="rgb(0, 0, 0)" stroke-linejoin="round" d=" M 2796.116, 395.159 2798.762, 395.027 2801.411, 395.027 2804.058, 395.159 2806.694, 395.422 " />
            <path fill="none" stroke-width="3.0" stroke-linecap="butt" stroke-opacity="1.0" stroke="rgb(0, 0, 0)" stroke-linejoin="round" d=" M 2806.694, 395.422 2809.314, 395.817 2811.911, 396.343 2814.478, 396.997 " />
            <path fill="none" stroke-width="3.0" stroke-linecap="butt" stroke-opacity="1.0" stroke="rgb(0, 0, 0)" stroke-linejoin="round" d=" M 287.178, 571.144 285.824, 581.052 284.470, 590.960 283.116, 600.868 281.762, 610.776 280.408, 620.684 279.054, 630.592 277.700, 640.499 276.346, 650.407 274.992, 660.315 273.638, 670.223 272.284, 680.131 270.930, 690.039 269.576, 699.947 268.222, 709.855 266.868, 719.763 265.514, 729.671 264.161, 739.579 262.807, 749.487 261.453, 759.395 260.099, 769.302 258.745, 779.210 257.391, 789.118 256.037, 799.026 254.683, 808.934 253.329, 818.842 252.395, 825.680 253.808, 835.580 255.221, 845.480 256.635, 855.379 258.048, 865.279 259.462, 875.179 260.801, 884.556 256.850, 893.742 252.899, 902.929 248.948, 912.115 244.997, 921.302 241.046, 930.488 237.095, 939.674 233.144, 948.861 229.193, 958.047 225.242, 967.234 221.291, 976.420 217.340, 985.607 213.389, 994.793 209.438, 1003.979 205.488, 1013.166 201.537, 1022.352 197.586, 1031.539 193.635, 1040.725 189.684, 1049.911 185.733, 1059.098 181.782, 1068.284 177.831, 1077.471 173.880, 1086.657 169.929, 1095.843 165.978, 1105.030 162.027, 1114.216 158.076, 1123.403 154.125, 1132.589 150.174, 1141.775 146.223, 1150.962 142.272, 1160.148 139.988, 1165.459 " />
            <path fill="none" stroke-width="3.0" stroke-linecap="butt" stroke-opacity="1.0" stroke="rgb(0, 0, 0)" stroke-linejoin="round" d=" M 386.664, 23.621 383.530, 33.118 380.396, 42.614 377.262, 52.110 374.128, 61.606 370.994, 71.102 367.860, 80.599 364.726, 90.095 361.592, 99.591 358.458, 109.087 355.324, 118.583 352.190, 128.080 349.056, 137.576 345.922, 147.072 342.788, 156.568 339.654, 166.065 336.520, 175.561 333.386, 185.057 330.252, 194.553 327.118, 204.050 323.984, 213.546 320.850, 223.042 317.717, 232.538 314.583, 242.034 311.449, 251.531 308.315, 261.027 305.181, 270.523 302.047, 280.019 298.913, 289.516 295.779, 299.012 294.107, 304.077 293.848, 314.074 293.588, 324.071 293.329, 334.067 293.070, 344.064 292.810, 354.061 292.551, 364.057 292.291, 374.054 292.032, 384.051 291.773, 394.047 291.513, 404.044 291.254, 414.040 290.994, 424.037 290.735, 434.034 290.476, 444.030 290.216, 454.027 289.957, 464.024 289.698, 474.020 289.438, 484.017 289.179, 494.014 288.919, 504.010 288.660, 514.007 288.401, 524.003 288.141, 534.000 287.882, 543.997 287.623, 553.993 287.363, 563.990 287.178, 571.144 " />
            <path fill="none" stroke-width="3.0" stroke-linecap="butt" stroke-opacity="1.0" stroke="rgb(0, 0, 0)" stroke-linejoin="round" d=" M 2288.727, 23.621 2285.643, 23.621 2275.643, 23.621 2265.643, 23.621 2255.643, 23.621 2245.643, 23.621 2235.643, 23.621 2225.643, 23.621 2215.643, 23.621 2205.643, 23.621 2195.643, 23.621 2185.643, 23.621 2175.643, 23.621 2165.643, 23.621 2155.643, 23.621 2145.643, 23.621 2135.643, 23.621 2125.643, 23.621 2115.643, 23.621 2105.643, 23.621 2095.643, 23.621 2085.643, 23.621 2077.633, 23.621 2074.277, 23.621 2070.872, 23.621 2067.428, 23.621 2063.953, 23.621 2053.953, 23.621 2043.953, 23.621 2033.953, 23.621 2023.953, 23.621 2013.953, 23.621 2003.953, 23.621 1993.953, 23.621 1983.953, 23.621 1973.953, 23.621 1963.953, 23.621 1953.953, 23.621 1943.953, 23.621 1933.953, 23.621 1923.953, 23.621 1913.953, 23.621 1903.953, 23.621 1893.953, 23.621 1883.953, 23.621 1873.953, 23.621 1864.547, 23.621 1860.917, 23.621 1857.259, 23.621 1853.586, 23.621 1843.586, 23.621 1833.586, 23.621 1823.586, 23.621 1813.586, 23.621 1803.586, 23.621 1793.586, 23.621 1783.586, 23.621 1773.586, 23.621 1763.586, 23.621 1753.586, 23.621 1743.586, 23.621 1733.586, 23.621 1723.586, 23.621 1713.586, 23.621 1703.586, 23.621 1693.586, 23.621 1683.586, 23.621 1673.586, 23.621 1663.586, 23.621 1653.586, 23.621 1643.586, 23.621 1633.586, 23.621 1623.586, 23.621 1613.586, 23.621 1603.586, 23.621 1593.586, 23.621 1583.586, 23.621 1573.586, 23.621 1563.586, 23.621 1553.586, 23.621 1543.586, 23.621 1533.586, 23.621 1523.586, 23.621 1513.586, 23.621 1503.586, 23.621 1493.586, 23.621 1483.586, 23.621 1473.586, 23.621 1463.586, 23.621 1453.586, 23.621 1443.586, 23.621 1433.586, 23.621 1423.586, 23.621 1413.586, 23.621 1403.586, 23.621 1393.586, 23.621 1383.586, 23.621 1373.586, 23.621 1363.586, 23.621 1353.586, 23.621 1343.586, 23.621 1333.586, 23.621 1323.586, 23.621 1313.586, 23.621 1303.586, 23.621 1293.586, 23.621 1283.586, 23.621 1273.586, 23.621 1263.586, 23.621 1253.586, 23.621 1243.586, 23.621 1233.586, 23.621 1223.586, 23.621 1213.586, 23.621 1203.586, 23.621 1193.586, 23.621 1183.586, 23.621 1173.586, 23.621 1163.586, 23.621 1153.586, 23.621 1143.586, 23.621 1133.586, 23.621 1123.586, 23.621 1113.586, 23.621 1103.586, 23.621 1093.586, 23.621 1083.586, 23.621 1073.586, 23.621 1063.586, 23.621 1053.586, 23.621 1043.586, 23.621 1033.586, 23.621 1023.586, 23.621 1013.586, 23.621 1003.586, 23.621 993.586, 23.621 983.586, 23.621 973.586, 23.621 963.586, 23.621 949.305, 23.621 948.261, 23.621 947.159, 23.621 946.004, 23.621 944.799, 23.621 943.547, 23.621 942.251, 23.621 940.916, 23.621 939.544, 23.621 938.142, 23.621 936.711, 23.621 935.256, 23.621 925.256, 23.621 915.256, 23.621 905.256, 23.621 895.256, 23.621 885.256, 23.621 875.256, 23.621 865.256, 23.621 855.256, 23.621 845.256, 23.621 835.256, 23.621 825.256, 23.621 815.256, 23.621 805.256, 23.621 795.256, 23.621 785.256, 23.621 775.256, 23.621 765.256, 23.621 755.256, 23.621 745.256, 23.621 735.256, 23.621 725.256, 23.621 715.256, 23.621 705.256, 23.621 695.256, 23.621 686.402, 23.621 685.485, 23.621 684.548, 23.621 683.594, 23.621 673.594, 23.621 663.594, 23.621 653.594, 23.621 643.594, 23.621 633.594, 23.621 623.594, 23.621 613.594, 23.621 603.594, 23.621 593.594, 23.621 583.594, 23.621 573.594, 23.621 563.594, 23.621 553.594, 23.621 543.594, 23.621 538.333, 23.621 537.786, 23.621 527.786, 23.621 517.786, 23.621 507.786, 23.621 497.786, 23.621 489.989, 23.621 489.590, 23.621 489.185, 23.621 488.776, 23.621 488.362, 23.621 478.362, 23.621 468.362, 23.621 458.362, 23.621 448.362, 23.621 438.362, 23.621 428.362, 23.621 418.362, 23.621 408.362, 23.621 398.362, 23.621 388.362, 23.621 386.664, 23.621 " />
            <path fill="none" stroke-width="3.0" stroke-linecap="butt" stroke-opacity="1.0" stroke="rgb(0, 0, 0)" stroke-linejoin="round" d=" M 2759.382, 413.992 2761.135, 412.005 2762.985, 410.109 2764.927, 408.306 " />
            <path fill="none" stroke-width="3.0" stroke-linecap="butt" stroke-opacity="1.0" stroke="rgb(0, 0, 0)" stroke-linejoin="round" d=" M 2764.927, 408.306 2766.956, 406.603 " />
            <path fill="none" stroke-width="3.0" stroke-linecap="butt" stroke-opacity="1.0" stroke="rgb(0, 0, 0)" stroke-linejoin="round" d=" M 2766.956, 406.603 2769.068, 405.003 " />
            <path fill="none" stroke-width="3.0" stroke-linecap="butt" stroke-opacity="1.0" stroke="rgb(0, 0, 0)" stroke-linejoin="round" d=" M 2342.856, 23.621 2339.886, 23.621 2329.886, 23.621 2319.886, 23.621 2309.886, 23.621 2299.886, 23.621 2289.886, 23.621 2288.727, 23.621 " />
            <path fill="none" stroke-width="3.0" stroke-linecap="butt" stroke-opacity="1.0" stroke="rgb(0, 0, 0)" stroke-linejoin="round" d=" M 2769.068, 405.003 2771.258, 403.512 " />
            <path fill="none" stroke-width="3.0" stroke-linecap="butt" stroke-opacity="1.0" stroke="rgb(0, 0, 0)" stroke-linejoin="round" d=" M 2744.267, 1278.883 2741.749, 1281.465 2739.105, 1283.918 2736.343, 1286.236 2733.468, 1288.413 2730.488, 1290.445 2727.411, 1292.325 2724.244, 1294.050 2720.995, 1295.614 2717.672, 1297.016 2714.283, 1298.249 2710.837, 1299.312 2707.342, 1300.202 2703.808, 1300.916 2700.241, 1301.453 2696.653, 1301.812 2693.052, 1301.992 2689.445, 1301.992 2685.844, 1301.812 2682.255, 1301.453 2678.689, 1300.916 2675.155, 1300.202 2671.660, 1299.312 2668.214, 1298.249 2664.825, 1297.016 2661.502, 1295.614 2658.253, 1294.050 2655.086, 1292.325 2652.009, 1290.445 2649.029, 1288.413 2646.154, 1286.236 2643.392, 1283.918 2640.748, 1281.465 2638.230, 1278.883 2635.844, 1276.180 2633.596, 1273.360 2631.490, 1270.432 2629.534, 1267.402 2627.731, 1264.279 2626.086, 1261.071 2624.602, 1257.783 2623.285, 1254.426 2622.136, 1251.008 2621.160, 1247.536 2620.357, 1244.021 2619.731, 1240.469 2619.283, 1236.891 2619.013, 1233.295 2618.923, 1229.690 2619.013, 1226.085 2619.283, 1222.489 2619.731, 1218.910 2620.357, 1215.358 2621.160, 1211.843 2622.136, 1208.371 2623.285, 1204.953 2624.602, 1201.596 2626.086, 1198.309 2627.731, 1195.100 2629.534, 1191.977 2631.490, 1188.947 2633.596, 1186.019 2635.844, 1183.200 2638.230, 1180.496 2640.748, 1177.914 2643.392, 1175.462 2646.154, 1173.143 2649.029, 1170.966 2652.009, 1168.934 2655.086, 1167.054 2658.253, 1165.329 2661.502, 1163.764 2664.825, 1162.364 2668.214, 1161.131 2671.660, 1160.067 2675.155, 1159.178 2678.689, 1158.463 2682.255, 1157.925 2685.844, 1157.566 2689.445, 1157.387 2693.052, 1157.387 2696.653, 1157.566 2700.241, 1157.925 2703.808, 1158.463 2707.342, 1159.178 2710.837, 1160.067 2714.283, 1161.131 2717.672, 1162.364 2720.995, 1163.764 2724.244, 1165.329 2727.411, 1167.054 2730.488, 1168.934 2733.468, 1170.966 2736.343, 1173.143 2739.105, 1175.462 2741.749, 1177.914 2744.267, 1180.496 2746.653, 1183.200 2748.901, 1186.019 2751.006, 1188.947 2752.963, 1191.977 2754.766, 1195.100 2756.411, 1198.309 2757.894, 1201.596 2759.212, 1204.953 2760.360, 1208.371 2761.337, 1211.843 2762.140, 1215.358 2762.766, 1218.910 2763.214, 1222.489 2763.484, 1226.085 2763.574, 1229.690 2763.484, 1233.295 2763.214, 1236.891 2762.766, 1240.469 2762.140, 1244.021 2761.337, 1247.536 2760.360, 1251.008 2759.212, 1254.426 2757.894, 1257.783 2756.411, 1261.071 2754.766, 1264.279 2752.963, 1267.402 2751.006, 1270.432 2748.901, 1273.360 2746.653, 1276.180 2744.267, 1278.883 " />
            <path fill="none" stroke-width="3.0" stroke-linecap="butt" stroke-opacity="1.0" stroke="rgb(0, 0, 0)" stroke-linejoin="round" d=" M 2673.292, 1559.389 2683.292, 1559.389 2693.292, 1559.389 2703.292, 1559.389 2713.292, 1559.389 2723.292, 1559.389 2733.292, 1559.389 2743.292, 1559.389 2753.292, 1559.389 2763.292, 1559.389 2773.292, 1559.389 2783.292, 1559.389 2793.292, 1559.389 2803.292, 1559.389 2813.292, 1559.389 2823.292, 1559.389 2833.292, 1559.389 2843.292, 1559.389 2853.292, 1559.389 2863.292, 1559.389 2873.292, 1559.389 2883.292, 1559.389 2893.292, 1559.389 2903.292, 1559.389 2913.292, 1559.389 2923.292, 1559.389 2933.292, 1559.389 2943.292, 1559.389 2953.292, 1559.389 2963.292, 1559.389 2973.292, 1559.389 2983.292, 1559.389 2993.292, 1559.389 3003.292, 1559.389 3013.292, 1559.389 3023.292, 1559.389 3033.292, 1559.389 3043.292, 1559.389 3053.292, 1559.389 3063.292, 1559.389 3073.292, 1559.389 3083.292, 1559.389 3093.292, 1559.389 3103.292, 1559.389 3113.292, 1559.389 3123.292, 1559.389 3133.292, 1559.389 3143.292, 1559.389 3153.292, 1559.389 3163.292, 1559.389 3173.292, 1559.389 3183.292, 1559.389 3193.292, 1559.389 3203.292, 1559.389 3213.292, 1559.389 3227.135, 1559.389 " />
            <path fill="none" stroke-width="3.0" stroke-linecap="butt" stroke-opacity="1.0" stroke="rgb(0, 0, 0)" stroke-linejoin="round" d=" M 1560.425, 1559.389 1570.425, 1559.389 1580.425, 1559.389 1590.425, 1559.389 1600.425, 1559.389 1610.425, 1559.389 1620.425, 1559.389 1630.425, 1559.389 1640.425, 1559.389 1650.425, 1559.389 1660.425, 1559.389 1670.425, 1559.389 1680.425, 1559.389 1690.425, 1559.389 1700.425, 1559.389 1710.425, 1559.389 1720.425, 1559.389 1730.425, 1559.389 1740.425, 1559.389 1750.425, 1559.389 1760.425, 1559.389 1770.425, 1559.389 1780.425, 1559.389 1790.425, 1559.389 1800.425, 1559.389 1810.425, 1559.389 1820.425, 1559.389 1830.425, 1559.389 1840.425, 1559.389 1850.425, 1559.389 1860.425, 1559.389 1870.425, 1559.389 1880.425, 1559.389 1890.425, 1559.389 1900.425, 1559.389 1904.261, 1559.389 " />
            <path fill="none" stroke-width="3.0" stroke-linecap="butt" stroke-opacity="1.0" stroke="rgb(0, 0, 0)" stroke-linejoin="round" d=" M 139.988, 1165.459 137.169, 1175.054 134.350, 1184.648 131.531, 1194.242 128.712, 1203.837 125.893, 1213.431 123.074, 1223.026 120.255, 1232.620 117.435, 1242.214 114.616, 1251.809 111.797, 1261.403 108.978, 1270.998 106.159, 1280.592 103.340, 1290.186 100.521, 1299.781 97.702, 1309.375 94.883, 1318.970 92.064, 1328.564 89.244, 1338.158 86.425, 1347.753 83.606, 1357.347 80.787, 1366.942 77.968, 1376.536 75.149, 1386.131 72.330, 1395.725 69.511, 1405.319 66.692, 1414.914 63.873, 1424.508 61.053, 1434.103 58.234, 1443.697 55.415, 1453.291 52.596, 1462.886 49.777, 1472.480 46.958, 1482.075 44.139, 1491.669 41.320, 1501.263 38.501, 1510.858 35.682, 1520.452 32.862, 1530.047 30.043, 1539.641 27.224, 1549.235 24.241, 1559.389 " />
            <path fill="none" stroke-width="3.0" stroke-linecap="butt" stroke-opacity="1.0" stroke="rgb(0, 0, 0)" stroke-linejoin="round" d=" M 2314.401, 1559.389 2316.239, 1559.297 " />
            <path fill="none" stroke-width="3.0" stroke-linecap="butt" stroke-opacity="1.0" stroke="rgb(0, 0, 0)" stroke-linejoin="round" d=" M 2759.382, 482.302 2757.729, 480.231 " />
            <path fill="none" stroke-width="3.0" stroke-linecap="butt" stroke-opacity="1.0" stroke="rgb(0, 0, 0)" stroke-linejoin="round" d=" M 2766.956, 489.691 2764.927, 487.989 " />
            <path fill="none" stroke-width="3.0" stroke-linecap="butt" stroke-opacity="1.0" stroke="rgb(0, 0, 0)" stroke-linejoin="round" d=" M 2769.068, 491.292 2766.956, 489.691 " />
            <path fill="none" stroke-width="3.0" stroke-linecap="butt" stroke-opacity="1.0" stroke="rgb(0, 0, 0)" stroke-linejoin="round" d=" M 2771.258, 492.783 2769.068, 491.292 " />
            <path fill="none" stroke-width="3.0" stroke-linecap="butt" stroke-opacity="1.0" stroke="rgb(0, 0, 0)" stroke-linejoin="round" d=" M 2773.518, 494.165 2771.258, 492.783 " />
            <path fill="none" stroke-width="3.0" stroke-linecap="butt" stroke-opacity="1.0" stroke="rgb(0, 0, 0)" stroke-linejoin="round" d=" M 2849.051, 468.788 2847.961, 471.203 " />
            <path fill="none" stroke-width="3.0" stroke-linecap="butt" stroke-opacity="1.0" stroke="rgb(0, 0, 0)" stroke-linejoin="round" d=" M 2850.019, 466.322 2849.051, 468.788 " />
            <path fill="none" stroke-width="3.0" stroke-linecap="butt" stroke-opacity="1.0" stroke="rgb(0, 0, 0)" stroke-linejoin="round" d=" M 2850.863, 463.810 2850.019, 466.322 " />
            <path fill="none" stroke-width="3.0" stroke-linecap="butt" stroke-opacity="1.0" stroke="rgb(0, 0, 0)" stroke-linejoin="round" d=" M 2851.581, 461.260 2850.863, 463.810 " />
            <path fill="none" stroke-width="3.0" stroke-linecap="butt" stroke-opacity="1.0" stroke="rgb(0, 0, 0)" stroke-linejoin="round" d=" M 3402.196, 1559.389 3409.307, 1559.271 " />
            <path fill="none" stroke-width="3.0" stroke-linecap="butt" stroke-opacity="1.0" stroke="rgb(0, 0, 0)" stroke-linejoin="round" d=" M 3764.670, 74.824 3760.750, 65.624 3756.830, 56.424 3752.910, 47.225 3748.990, 38.025 3745.070, 28.825 3742.853, 23.621 " />
            <path fill="none" stroke-width="3.0" stroke-linecap="butt" stroke-opacity="1.0" stroke="rgb(0, 0, 0)" stroke-linejoin="round" d=" M 3864.270, 630.562 3862.506, 620.718 3860.741, 610.875 3858.978, 601.032 3857.213, 591.189 3855.449, 581.346 3853.685, 571.503 3851.921, 561.659 3850.157, 551.816 3848.393, 541.973 3846.629, 532.130 3844.865, 522.287 3843.101, 512.444 3841.336, 502.600 3839.572, 492.757 3837.808, 482.914 3836.044, 473.071 3834.280, 463.228 3832.516, 453.385 3830.752, 443.541 3828.988, 433.698 3827.224, 423.855 3825.459, 414.012 3823.695, 404.169 3821.931, 394.326 3820.167, 384.482 3818.403, 374.639 3816.639, 364.796 3814.875, 354.953 3813.111, 345.110 3811.347, 335.267 3809.583, 325.423 3807.819, 315.580 3806.054, 305.737 3804.290, 295.894 3802.526, 286.051 3800.762, 276.208 3798.998, 266.364 3797.234, 256.521 3795.470, 246.678 3793.706, 236.835 3791.942, 226.992 3790.177, 217.149 3788.413, 207.305 3786.649, 197.462 3784.885, 187.619 3783.121, 177.776 3781.357, 167.933 3779.593, 158.090 3777.829, 148.246 3776.065, 138.403 3774.301, 128.560 3772.536, 118.717 3770.772, 108.874 3769.008, 99.031 3767.244, 89.187 3764.670, 74.824 " />
        </g>
    </g>
<g id="slice-labels"><text x="531.9333750000001" y="407.56299999999993" text-anchor="middle" dominant-baseline="middle" font-family="Arial, sans-serif" font-size="59.04104029059125" font-weight="bold" fill="black" stroke="none" stroke-width="7.084924834870949" paint-order="stroke fill">Slice39 (Back)</text><text x="1547.318125" y="407.56299999999993" text-anchor="middle" dominant-baseline="middle" font-family="Arial, sans-serif" font-size="59.04104029059125" font-weight="bold" fill="black" stroke="none" stroke-width="7.084924834870949" paint-order="stroke fill">Slice39 (Back)</text><text x="2562.702875" y="407.56299999999993" text-anchor="middle" dominant-baseline="middle" font-family="Arial, sans-serif" font-size="59.04104029059125" font-weight="bold" fill="black" stroke="none" stroke-width="7.084924834870949" paint-order="stroke fill">Slice39 (Back)</text><text x="3578.087625" y="407.56299999999993" text-anchor="middle" dominant-baseline="middle" font-family="Arial, sans-serif" font-size="59.04104029059125" font-weight="bold" fill="black" stroke="none" stroke-width="7.084924834870949" paint-order="stroke fill">Slice39 (Back)</text><text x="531.9333750000001" y="1175.447" text-anchor="middle" dominant-baseline="middle" font-family="Arial, sans-serif" font-size="59.04104029059125" font-weight="bold" fill="black" stroke="none" stroke-width="7.084924834870949" paint-order="stroke fill">Slice39 (Back)</text><text x="1547.318125" y="1175.447" text-anchor="middle" dominant-baseline="middle" font-family="Arial, sans-serif" font-size="59.04104029059125" font-weight="bold" fill="black" stroke="none" stroke-width="7.084924834870949" paint-order="stroke fill">Slice39 (Back)</text><text x="2562.702875" y="1175.447" text-anchor="middle" dominant-baseline="middle" font-family="Arial, sans-serif" font-size="59.04104029059125" font-weight="bold" fill="black" stroke="none" stroke-width="7.084924834870949" paint-order="stroke fill">Slice39 (Back)</text><text x="3578.087625" y="1175.447" text-anchor="middle" dominant-baseline="middle" font-family="Arial, sans-serif" font-size="59.04104029059125" font-weight="bold" fill="black" stroke="none" stroke-width="7.084924834870949" paint-order="stroke fill">Slice39 (Back)</text></g></svg>