<?xml version='1.0' encoding='utf-8'?>
<svg xmlns="http://www.w3.org/2000/svg" xmlns:inkscape="http://www.inkscape.org/namespaces/inkscape" version="1.1" width="461.3823809623718mm" height="170.96852445602417mm" viewBox="0.223617548821327 0.00462035121393356 5448.552764902358 2018.9997592975722" preserveAspectRatio="none">
    <g id="ViewLayer_LineSet" inkscape:groupmode="lineset" inkscape:label="ViewLayer_LineSet">
        <g inkscape:groupmode="layer" id="strokes" inkscape:label="strokes">
            <path fill="none" stroke-width="3.0" stroke-linecap="butt" stroke-opacity="1.0" stroke="rgb(0, 0, 0)" stroke-linejoin="round" d=" M 3890.440, 428.971 3887.922, 426.389 3885.536, 423.684 3883.287, 420.865 3881.182, 417.937 3879.225, 414.907 3877.422, 411.784 3875.777, 408.574 3874.293, 405.287 3872.976, 401.930 3871.827, 398.511 3870.850, 395.040 3870.048, 391.523 3869.422, 387.972 3868.973, 384.393 3868.704, 380.796 3868.614, 377.191 3868.704, 373.586 3868.973, 369.989 3869.422, 366.410 3870.048, 362.859 3870.850, 359.343 3871.827, 355.871 3872.976, 352.453 3874.293, 349.095 3875.777, 345.808 3877.422, 342.598 3879.225, 339.475 3881.182, 336.446 3883.287, 333.517 3885.536, 330.697 3887.922, 327.993 3890.440, 325.411 3893.084, 322.958 3895.847, 320.640 3898.722, 318.463 3901.702, 316.431 3904.779, 314.550 3907.947, 312.826 3911.196, 311.261 3914.519, 309.860 3917.908, 308.626 3921.355, 307.564 3924.850, 306.673 3928.385, 305.959 3931.951, 305.422 3935.540, 305.063 3939.142, 304.882 3942.748, 304.882 3946.350, 305.063 3949.939, 305.422 3953.505, 305.959 3957.040, 306.673 3960.535, 307.564 3963.981, 308.626 3967.370, 309.860 3970.694, 311.261 3973.943, 312.826 3977.111, 314.550 3980.188, 316.431 3983.168, 318.463 3986.043, 320.640 3988.805, 322.958 3991.449, 325.411 3993.968, 327.993 3996.354, 330.697 3998.602, 333.517 4000.708, 336.446 4002.665, 339.475 4004.468, 342.598 4006.113, 345.808 4007.596, 349.095 4008.914, 352.453 4010.063, 355.871 4011.040, 359.343 4011.842, 362.859 4012.468, 366.410 4012.917, 369.989 4013.186, 373.586 4013.276, 377.191 4013.186, 380.796 4012.917, 384.393 4012.468, 387.972 4011.842, 391.523 4011.040, 395.040 4010.063, 398.511 4008.914, 401.930 4007.596, 405.287 4006.113, 408.574 4004.468, 411.784 4002.665, 414.907 4000.708, 417.937 3998.602, 420.865 3996.354, 423.684 3993.968, 426.389 3991.449, 428.971 3988.805, 431.424 3986.043, 433.742 3983.168, 435.920 3980.188, 437.951 3977.111, 439.832 3973.943, 441.556 3970.694, 443.121 3967.370, 444.522 3963.981, 445.755 3960.535, 446.819 3957.040, 447.709 3953.505, 448.423 3949.939, 448.961 3946.350, 449.320 3942.748, 449.500 3939.142, 449.500 3935.540, 449.320 3931.951, 448.961 3928.385, 448.423 3924.850, 447.709 3921.355, 446.819 3917.908, 445.755 3914.519, 444.522 3911.196, 443.121 3907.947, 441.556 3904.779, 439.832 3901.702, 437.951 3898.722, 435.920 3895.847, 433.742 3893.084, 431.424 3890.440, 428.971 " />
            <path fill="none" stroke-width="3.0" stroke-linecap="butt" stroke-opacity="1.0" stroke="rgb(0, 0, 0)" stroke-linejoin="round" d=" M 319.544, 1220.088 314.865, 1228.926 310.186, 1237.764 305.507, 1246.601 300.827, 1255.439 296.148, 1264.277 291.469, 1273.114 286.790, 1281.952 282.110, 1290.790 277.431, 1299.627 272.752, 1308.465 268.073, 1317.303 263.393, 1326.141 258.714, 1334.978 254.035, 1343.816 249.356, 1352.654 244.676, 1361.491 239.997, 1370.329 235.318, 1379.167 230.639, 1388.004 225.959, 1396.842 221.280, 1405.680 216.601, 1414.517 211.922, 1423.355 207.242, 1432.193 202.563, 1441.030 197.884, 1449.868 193.205, 1458.706 188.525, 1467.543 183.846, 1476.381 179.167, 1485.219 174.488, 1494.056 169.808, 1502.894 164.754, 1512.440 160.794, 1521.623 156.834, 1530.805 152.874, 1539.988 148.914, 1549.170 144.954, 1558.353 140.994, 1567.536 137.034, 1576.718 133.074, 1585.901 129.114, 1595.083 125.155, 1604.266 121.195, 1613.448 117.235, 1622.631 113.275, 1631.813 109.315, 1640.996 105.355, 1650.178 101.395, 1659.361 97.435, 1668.543 93.475, 1677.726 89.515, 1686.908 85.555, 1696.091 81.595, 1705.273 77.635, 1714.456 73.675, 1723.639 69.715, 1732.821 65.755, 1742.004 61.795, 1751.186 57.835, 1760.369 53.876, 1769.551 49.916, 1778.734 45.956, 1787.916 41.996, 1797.099 38.036, 1806.281 34.855, 1813.656 34.250, 1823.638 33.645, 1833.620 33.040, 1843.601 32.436, 1853.583 31.831, 1863.565 31.226, 1873.547 30.621, 1883.528 30.016, 1893.510 29.411, 1903.492 28.806, 1913.473 28.201, 1923.455 27.596, 1933.437 26.991, 1943.418 26.386, 1953.400 25.781, 1963.382 25.177, 1973.363 24.572, 1983.345 23.967, 1993.327 23.842, 1995.386 " />
            <path fill="none" stroke-width="3.0" stroke-linecap="butt" stroke-opacity="1.0" stroke="rgb(0, 0, 0)" stroke-linejoin="round" d=" M 23.842, 1995.386 33.842, 1995.386 43.842, 1995.386 53.842, 1995.386 63.842, 1995.386 73.842, 1995.386 83.842, 1995.386 93.842, 1995.386 103.842, 1995.386 113.842, 1995.386 123.842, 1995.386 133.842, 1995.386 143.842, 1995.386 153.842, 1995.386 163.842, 1995.386 173.842, 1995.386 183.842, 1995.386 193.842, 1995.386 203.842, 1995.386 213.842, 1995.386 223.842, 1995.386 233.842, 1995.386 243.842, 1995.386 253.842, 1995.386 263.842, 1995.386 273.842, 1995.386 283.842, 1995.386 293.842, 1995.386 303.842, 1995.386 313.842, 1995.386 323.842, 1995.386 333.842, 1995.386 343.842, 1995.386 353.842, 1995.386 363.842, 1995.386 373.842, 1995.386 383.842, 1995.386 393.842, 1995.386 403.842, 1995.386 413.842, 1995.386 423.842, 1995.386 433.842, 1995.386 443.842, 1995.386 453.842, 1995.386 461.067, 1995.386 471.067, 1995.386 481.067, 1995.386 491.067, 1995.386 501.067, 1995.386 511.067, 1995.386 521.067, 1995.386 531.067, 1995.386 541.067, 1995.386 551.067, 1995.386 561.067, 1995.386 571.067, 1995.386 581.067, 1995.386 591.067, 1995.386 601.067, 1995.386 611.067, 1995.386 621.067, 1995.386 631.067, 1995.386 641.067, 1995.386 651.067, 1995.386 661.067, 1995.386 671.067, 1995.386 681.067, 1995.386 691.067, 1995.386 701.067, 1995.386 711.067, 1995.386 721.067, 1995.386 731.067, 1995.386 741.067, 1995.386 751.067, 1995.386 761.067, 1995.386 771.067, 1995.386 781.067, 1995.386 791.067, 1995.386 801.067, 1995.386 811.067, 1995.386 821.067, 1995.386 831.067, 1995.386 841.067, 1995.386 851.067, 1995.386 861.067, 1995.386 871.067, 1995.386 881.067, 1995.386 891.067, 1995.386 905.100, 1995.386 915.100, 1995.386 925.100, 1995.386 935.100, 1995.386 945.100, 1995.386 955.100, 1995.386 965.100, 1995.386 975.100, 1995.386 985.100, 1995.386 995.100, 1995.386 1005.100, 1995.386 1015.100, 1995.386 1025.100, 1995.386 1035.100, 1995.386 1045.100, 1995.386 1055.100, 1995.386 1065.100, 1995.386 1075.100, 1995.386 1085.100, 1995.386 1095.100, 1995.386 1105.100, 1995.386 1115.100, 1995.386 1125.100, 1995.386 1135.100, 1995.386 1145.100, 1995.386 1155.100, 1995.386 1165.100, 1995.386 1175.100, 1995.386 1185.100, 1995.386 1195.100, 1995.386 1205.100, 1995.386 1215.100, 1995.386 1225.100, 1995.386 1235.100, 1995.386 1245.100, 1995.386 1255.100, 1995.386 1265.100, 1995.386 1275.100, 1995.386 1285.100, 1995.386 1295.100, 1995.386 1305.100, 1995.386 1315.100, 1995.386 1325.100, 1995.386 1335.100, 1995.386 1345.100, 1995.386 1355.100, 1995.386 1365.100, 1995.386 1375.100, 1995.386 1385.100, 1995.386 1395.100, 1995.386 1405.100, 1995.386 1415.100, 1995.386 1425.100, 1995.386 1435.100, 1995.386 1445.100, 1995.386 1455.100, 1995.386 1465.100, 1995.386 1475.100, 1995.386 1485.100, 1995.386 1495.100, 1995.386 1505.100, 1995.386 1515.100, 1995.386 1525.100, 1995.386 1535.100, 1995.386 1545.100, 1995.386 1555.100, 1995.386 1565.100, 1995.386 1575.100, 1995.386 1585.100, 1995.386 1595.100, 1995.386 1605.100, 1995.386 1615.100, 1995.386 1625.100, 1995.386 1635.100, 1995.386 1645.100, 1995.386 1655.100, 1995.386 1665.100, 1995.386 1675.100, 1995.386 1685.100, 1995.386 1695.100, 1995.386 1705.100, 1995.386 1715.100, 1995.386 1725.100, 1995.386 1735.100, 1995.386 1745.100, 1995.386 1755.100, 1995.386 1765.100, 1995.386 1775.100, 1995.386 1785.100, 1995.386 1795.100, 1995.386 1805.100, 1995.386 1815.100, 1995.386 1825.100, 1995.386 1835.100, 1995.386 1845.100, 1995.386 1855.100, 1995.386 1865.100, 1995.386 1875.100, 1995.386 1885.100, 1995.386 1895.100, 1995.386 1912.022, 1995.386 1916.398, 1995.386 " />
            <path fill="none" stroke-width="3.0" stroke-linecap="butt" stroke-opacity="1.0" stroke="rgb(0, 0, 0)" stroke-linejoin="round" d=" M 1964.886, 1985.388 1968.542, 1976.080 1972.198, 1966.772 1975.853, 1957.464 1979.509, 1948.156 1983.165, 1938.849 1986.821, 1929.541 1990.476, 1920.233 1994.132, 1910.925 1997.788, 1901.617 2001.444, 1892.309 2005.099, 1883.002 2008.755, 1873.694 2012.411, 1864.386 2013.914, 1860.559 " />
            <path fill="none" stroke-width="3.0" stroke-linecap="butt" stroke-opacity="1.0" stroke="rgb(0, 0, 0)" stroke-linejoin="round" d=" M 1924.053, 1995.386 1931.545, 1995.386 1941.123, 1992.514 1950.702, 1989.641 1960.280, 1986.769 1964.886, 1985.388 " />
            <path fill="none" stroke-width="3.0" stroke-linecap="butt" stroke-opacity="1.0" stroke="rgb(0, 0, 0)" stroke-linejoin="round" d=" M 2013.914, 1860.559 2015.287, 1850.654 2016.661, 1840.748 2018.034, 1830.843 2019.407, 1820.938 2020.781, 1811.033 2022.154, 1801.127 2023.527, 1791.222 2024.117, 1786.968 " />
            <path fill="none" stroke-width="3.0" stroke-linecap="butt" stroke-opacity="1.0" stroke="rgb(0, 0, 0)" stroke-linejoin="round" d=" M 1916.398, 1995.386 1923.599, 1995.286 1924.053, 1995.386 " />
            <path fill="none" stroke-width="3.0" stroke-linecap="butt" stroke-opacity="1.0" stroke="rgb(0, 0, 0)" stroke-linejoin="round" d=" M 1649.651, 712.265 1647.709, 710.463 1645.859, 708.566 1644.106, 706.579 1642.454, 704.508 " />
            <path fill="none" stroke-width="3.0" stroke-linecap="butt" stroke-opacity="1.0" stroke="rgb(0, 0, 0)" stroke-linejoin="round" d=" M 2528.486, 23.623 2518.486, 23.623 2508.486, 23.623 2498.486, 23.623 2488.486, 23.623 2478.486, 23.623 2468.486, 23.623 2458.486, 23.623 2448.486, 23.623 2438.486, 23.623 2428.486, 23.623 2418.486, 23.623 2408.486, 23.623 2398.486, 23.623 2388.486, 23.623 2378.486, 23.623 2368.486, 23.623 2358.486, 23.623 2348.486, 23.623 2338.486, 23.623 2328.486, 23.623 2318.486, 23.623 2308.486, 23.623 2298.486, 23.623 2288.486, 23.623 2283.634, 23.623 2273.634, 23.623 2263.634, 23.623 2253.634, 23.623 2243.634, 23.623 2233.634, 23.623 2223.634, 23.623 2213.634, 23.623 2203.634, 23.623 2193.634, 23.623 2183.634, 23.623 2173.634, 23.623 2163.634, 23.623 2153.634, 23.623 2143.634, 23.623 2133.634, 23.623 2123.634, 23.623 2113.634, 23.623 2103.634, 23.623 2093.634, 23.623 2083.634, 23.623 2073.634, 23.623 2063.634, 23.623 2053.634, 23.623 2043.634, 23.623 2033.634, 23.623 2023.634, 23.623 2013.634, 23.623 2003.634, 23.623 1993.634, 23.623 1983.634, 23.623 1973.634, 23.623 1963.634, 23.623 1953.634, 23.623 1943.634, 23.623 1933.634, 23.623 1923.634, 23.623 1913.634, 23.623 1903.634, 23.623 1893.634, 23.623 1883.634, 23.623 1873.634, 23.623 1863.634, 23.623 1853.634, 23.623 1843.634, 23.623 1833.634, 23.623 1823.634, 23.623 1813.634, 23.623 1803.634, 23.623 1793.634, 23.623 1783.634, 23.623 1773.634, 23.623 1763.634, 23.623 1753.634, 23.623 1743.634, 23.623 1733.634, 23.623 1723.634, 23.623 1713.634, 23.623 1703.634, 23.623 1693.634, 23.623 1683.634, 23.623 1673.634, 23.623 1663.634, 23.623 1653.634, 23.623 1643.634, 23.623 1633.634, 23.623 1623.634, 23.623 1613.634, 23.623 1603.634, 23.623 1593.634, 23.623 1583.634, 23.623 1573.634, 23.623 1563.634, 23.623 1553.634, 23.623 1543.634, 23.623 1533.634, 23.623 1523.634, 23.623 1513.634, 23.623 1503.634, 23.623 1493.634, 23.623 1483.634, 23.623 1473.634, 23.623 1463.634, 23.623 1453.634, 23.623 1443.634, 23.623 1433.634, 23.623 1423.634, 23.623 1413.634, 23.623 1403.634, 23.623 1393.634, 23.623 1383.634, 23.623 1373.634, 23.623 1363.634, 23.623 1353.634, 23.623 1340.923, 23.623 1339.301, 23.623 1337.641, 23.623 1335.946, 23.623 1334.222, 23.623 1324.222, 23.623 1314.222, 23.623 1304.222, 23.623 1294.222, 23.623 1284.222, 23.623 1274.222, 23.623 1264.222, 23.623 1254.222, 23.623 1244.222, 23.623 1234.222, 23.623 1224.222, 23.623 1214.222, 23.623 1204.222, 23.623 1194.222, 23.623 1184.222, 23.623 1174.222, 23.623 1164.222, 23.623 1154.222, 23.623 1144.222, 23.623 1134.222, 23.623 1124.222, 23.623 1114.222, 23.623 1104.222, 23.623 1094.222, 23.623 1084.222, 23.623 1074.222, 23.623 1064.222, 23.623 1054.222, 23.623 1044.222, 23.623 1034.222, 23.623 1024.222, 23.623 1014.222, 23.623 1004.222, 23.623 1000.790, 23.623 999.564, 23.623 998.301, 23.623 997.003, 23.623 995.675, 23.623 994.320, 23.623 992.944, 23.623 991.548, 23.623 990.139, 23.623 988.719, 23.623 978.719, 23.623 968.719, 23.623 958.719, 23.623 948.719, 23.623 938.719, 23.623 928.719, 23.623 918.719, 23.623 908.719, 23.623 898.719, 23.623 888.719, 23.623 878.719, 23.623 868.719, 23.623 858.719, 23.623 848.719, 23.623 838.719, 23.623 828.719, 23.623 818.719, 23.623 808.719, 23.623 798.719, 23.623 788.719, 23.623 778.719, 23.623 768.719, 23.623 758.719, 23.623 748.719, 23.623 738.719, 23.623 728.719, 23.623 718.719, 23.623 708.719, 23.623 698.719, 23.623 688.719, 23.623 678.719, 23.623 668.719, 23.623 658.719, 23.623 648.719, 23.623 638.719, 23.623 628.719, 23.623 618.719, 23.623 608.719, 23.623 598.719, 23.623 588.719, 23.623 578.719, 23.623 568.719, 23.623 558.719, 23.623 548.719, 23.623 538.719, 23.623 528.719, 23.623 519.975, 23.623 517.662, 33.352 515.350, 43.081 513.037, 52.810 510.724, 62.539 508.412, 72.267 506.099, 81.996 503.786, 91.725 501.474, 101.454 499.161, 111.183 496.848, 120.912 494.536, 130.641 492.488, 139.257 491.157, 149.168 489.826, 159.079 488.496, 168.990 487.165, 178.901 485.835, 188.812 484.504, 198.723 483.173, 208.634 481.843, 218.545 480.512, 228.456 479.181, 238.368 477.851, 248.279 476.520, 258.190 475.190, 268.101 473.859, 278.012 472.528, 287.923 471.198, 297.834 469.867, 307.745 468.536, 317.656 467.206, 327.567 465.875, 337.478 464.545, 347.389 463.214, 357.300 461.883, 367.212 460.553, 377.123 459.222, 387.034 457.891, 396.945 456.561, 406.856 455.230, 416.767 453.900, 426.678 452.569, 436.589 451.238, 446.500 449.908, 456.411 448.577, 466.322 447.246, 476.233 445.916, 486.144 444.585, 496.056 443.255, 505.967 441.924, 515.878 440.593, 525.789 438.804, 539.114 436.775, 548.905 434.745, 558.697 432.715, 568.489 430.685, 578.281 428.655, 588.073 426.625, 597.865 424.596, 607.656 422.566, 617.448 420.536, 627.240 418.506, 637.032 416.476, 646.824 414.446, 656.615 412.417, 666.407 410.387, 676.199 408.357, 685.991 406.327, 695.783 404.297, 705.575 402.268, 715.366 400.238, 725.158 398.208, 734.950 396.178, 744.742 394.148, 754.534 392.118, 764.325 390.089, 774.117 388.059, 783.909 386.029, 793.701 383.999, 803.493 381.969, 813.285 379.939, 823.076 377.910, 832.868 375.880, 842.660 373.850, 852.452 371.820, 862.244 369.790, 872.036 367.760, 881.827 365.731, 891.619 363.701, 901.411 361.671, 911.203 359.641, 920.995 357.611, 930.786 355.582, 940.578 353.552, 950.370 351.522, 960.162 349.492, 969.954 347.462, 979.746 345.432, 989.537 343.403, 999.329 342.374, 1004.292 341.322, 1014.236 340.270, 1024.181 339.218, 1034.125 338.166, 1044.070 337.114, 1054.015 336.062, 1063.959 335.010, 1073.904 333.957, 1083.848 332.905, 1093.793 331.853, 1103.737 330.801, 1113.682 329.749, 1123.626 328.697, 1133.571 327.645, 1143.515 326.593, 1153.460 325.541, 1163.404 324.489, 1173.349 323.437, 1183.293 322.385, 1193.238 321.333, 1203.182 320.281, 1213.127 319.544, 1220.088 " />
            <path fill="none" stroke-width="3.0" stroke-linecap="butt" stroke-opacity="1.0" stroke="rgb(0, 0, 0)" stroke-linejoin="round" d=" M 1662.958, 720.860 1660.571, 719.710 1658.244, 718.442 1655.983, 717.061 1653.793, 715.568 1651.681, 713.969 1649.651, 712.265 " />
            <path fill="none" stroke-width="3.0" stroke-linecap="butt" stroke-opacity="1.0" stroke="rgb(0, 0, 0)" stroke-linejoin="round" d=" M 1642.454, 704.508 1640.907, 702.356 1639.469, 700.130 1638.144, 697.836 1636.936, 695.478 1635.846, 693.063 1634.878, 690.596 1634.034, 688.085 1633.316, 685.534 1632.727, 682.951 " />
            <path fill="none" stroke-width="3.0" stroke-linecap="butt" stroke-opacity="1.0" stroke="rgb(0, 0, 0)" stroke-linejoin="round" d=" M 2024.117, 1786.968 2027.120, 1777.430 2030.123, 1767.891 2033.126, 1758.353 2036.129, 1748.814 2039.133, 1739.276 2042.136, 1729.737 2045.139, 1720.199 2048.142, 1710.661 2051.145, 1701.122 2054.148, 1691.584 2057.151, 1682.045 2060.154, 1672.507 2063.157, 1662.969 2066.160, 1653.430 2069.164, 1643.892 2072.550, 1633.135 2074.208, 1623.273 2075.866, 1613.412 2077.524, 1603.550 2079.182, 1593.689 2080.840, 1583.827 2082.498, 1573.965 2084.156, 1564.104 2085.813, 1554.242 2087.471, 1544.381 2089.129, 1534.519 2090.787, 1524.657 2092.445, 1514.796 2094.103, 1504.934 2095.761, 1495.073 2097.419, 1485.211 2099.077, 1475.349 2100.735, 1465.488 2102.393, 1455.626 2104.050, 1445.765 2105.708, 1435.903 2107.366, 1426.041 2109.024, 1416.180 2110.682, 1406.318 2112.340, 1396.456 2113.998, 1386.595 2115.656, 1376.733 2117.314, 1366.872 2118.971, 1357.010 2120.629, 1347.148 2122.287, 1337.287 2123.945, 1327.425 2125.603, 1317.564 2127.261, 1307.702 2128.919, 1297.840 2130.577, 1287.979 2132.235, 1278.117 2133.893, 1268.255 2135.551, 1258.394 2137.208, 1248.532 2138.866, 1238.671 2140.524, 1228.809 2142.182, 1218.947 2143.840, 1209.086 2145.498, 1199.224 2147.156, 1189.363 2148.814, 1179.501 2150.472, 1169.639 2152.130, 1159.778 2153.787, 1149.916 2155.445, 1140.055 2157.103, 1130.193 2158.761, 1120.331 2160.419, 1110.470 2162.077, 1100.608 2163.735, 1090.747 2165.393, 1080.885 2167.051, 1071.023 2168.708, 1061.162 2170.366, 1051.300 2172.024, 1041.438 2173.682, 1031.577 2175.340, 1021.715 2176.998, 1011.854 2178.656, 1001.992 2180.314, 992.130 2182.245, 980.644 " />
            <path fill="none" stroke-width="3.0" stroke-linecap="butt" stroke-opacity="1.0" stroke="rgb(0, 0, 0)" stroke-linejoin="round" d=" M 1680.843, 725.414 1678.206, 725.150 1675.586, 724.755 1672.989, 724.230 1670.422, 723.576 1667.889, 722.795 1665.400, 721.889 1662.958, 720.860 " />
            <path fill="none" stroke-width="3.0" stroke-linecap="butt" stroke-opacity="1.0" stroke="rgb(0, 0, 0)" stroke-linejoin="round" d=" M 1632.266, 680.341 1631.937, 677.712 1631.739, 675.070 1631.673, 672.421 1631.739, 669.772 1631.937, 667.130 1632.266, 664.500 1632.727, 661.891 1633.316, 659.308 1634.034, 656.757 " />
            <path fill="none" stroke-width="3.0" stroke-linecap="butt" stroke-opacity="1.0" stroke="rgb(0, 0, 0)" stroke-linejoin="round" d=" M 1694.042, 724.755 1691.422, 725.150 1688.786, 725.414 1686.139, 725.546 1683.489, 725.546 1680.843, 725.414 " />
            <path fill="none" stroke-width="3.0" stroke-linecap="butt" stroke-opacity="1.0" stroke="rgb(0, 0, 0)" stroke-linejoin="round" d=" M 1634.034, 656.757 1634.878, 654.246 " />
            <path fill="none" stroke-width="3.0" stroke-linecap="butt" stroke-opacity="1.0" stroke="rgb(0, 0, 0)" stroke-linejoin="round" d=" M 1634.878, 654.246 1635.846, 651.779 " />
            <path fill="none" stroke-width="3.0" stroke-linecap="butt" stroke-opacity="1.0" stroke="rgb(0, 0, 0)" stroke-linejoin="round" d=" M 1635.846, 651.779 1636.936, 649.364 1638.144, 647.005 1639.469, 644.711 1640.907, 642.486 1642.454, 640.334 1644.106, 638.262 1645.859, 636.275 1647.709, 634.379 1649.651, 632.576 1651.681, 630.873 1653.793, 629.273 " />
            <path fill="none" stroke-width="3.0" stroke-linecap="butt" stroke-opacity="1.0" stroke="rgb(0, 0, 0)" stroke-linejoin="round" d=" M 1653.793, 629.273 1655.983, 627.781 1658.244, 626.399 1660.571, 625.132 1662.958, 623.983 1665.400, 622.954 1667.889, 622.046 1670.422, 621.266 1672.989, 620.613 1675.586, 620.087 1678.206, 619.692 1680.843, 619.428 1683.489, 619.296 1686.139, 619.296 1688.786, 619.428 1691.422, 619.692 1694.042, 620.087 1696.639, 620.613 1699.207, 621.266 " />
            <path fill="none" stroke-width="3.0" stroke-linecap="butt" stroke-opacity="1.0" stroke="rgb(0, 0, 0)" stroke-linejoin="round" d=" M 1706.671, 720.860 1704.229, 721.889 1701.739, 722.795 1699.207, 723.576 1696.639, 724.230 1694.042, 724.755 " />
            <path fill="none" stroke-width="3.0" stroke-linecap="butt" stroke-opacity="1.0" stroke="rgb(0, 0, 0)" stroke-linejoin="round" d=" M 1717.947, 713.969 1715.835, 715.568 1713.646, 717.061 1711.385, 718.442 1709.058, 719.710 " />
            <path fill="none" stroke-width="3.0" stroke-linecap="butt" stroke-opacity="1.0" stroke="rgb(0, 0, 0)" stroke-linejoin="round" d=" M 1735.595, 688.085 1734.751, 690.596 1733.783, 693.063 1732.693, 695.478 1731.484, 697.836 1730.159, 700.130 1728.722, 702.356 1727.175, 704.508 1725.523, 706.579 1723.770, 708.566 1721.920, 710.463 1719.977, 712.265 1717.947, 713.969 " />
            <path fill="none" stroke-width="3.0" stroke-linecap="butt" stroke-opacity="1.0" stroke="rgb(0, 0, 0)" stroke-linejoin="round" d=" M 1737.362, 680.341 1736.902, 682.951 1736.312, 685.534 1735.595, 688.085 " />
            <path fill="none" stroke-width="3.0" stroke-linecap="butt" stroke-opacity="1.0" stroke="rgb(0, 0, 0)" stroke-linejoin="round" d=" M 1737.890, 669.772 1737.956, 672.421 " />
            <path fill="none" stroke-width="3.0" stroke-linecap="butt" stroke-opacity="1.0" stroke="rgb(0, 0, 0)" stroke-linejoin="round" d=" M 1731.484, 647.005 1732.693, 649.364 1733.783, 651.779 1734.751, 654.246 1735.595, 656.757 1736.312, 659.308 1736.902, 661.891 1737.362, 664.500 1737.692, 667.130 1737.890, 669.772 " />
            <path fill="none" stroke-width="3.0" stroke-linecap="butt" stroke-opacity="1.0" stroke="rgb(0, 0, 0)" stroke-linejoin="round" d=" M 2182.245, 980.644 2185.938, 971.351 2189.630, 962.058 2193.323, 952.765 2197.016, 943.471 2200.708, 934.178 2204.401, 924.885 2208.094, 915.592 2211.786, 906.299 2215.479, 897.005 2219.172, 887.712 2222.865, 878.419 2226.557, 869.126 2230.250, 859.832 2233.943, 850.539 2237.635, 841.246 2241.328, 831.953 2245.021, 822.660 2248.713, 813.366 2252.406, 804.073 2256.099, 794.780 2259.792, 785.487 2263.484, 776.193 2267.177, 766.900 2270.869, 757.607 2274.562, 748.314 2278.255, 739.021 2281.948, 729.727 2285.640, 720.434 2289.333, 711.141 2293.026, 701.848 2296.718, 692.554 2300.411, 683.261 2304.104, 673.968 2307.999, 664.166 2309.610, 654.297 2311.221, 644.427 2312.833, 634.558 2314.444, 624.689 2316.056, 614.819 2317.667, 604.950 2319.279, 595.081 2320.890, 585.212 2322.501, 575.342 2324.113, 565.473 2325.724, 555.604 2327.336, 545.734 2328.947, 535.865 2330.559, 525.996 2332.170, 516.126 2333.781, 506.257 2335.393, 496.388 2337.004, 486.518 2338.616, 476.649 2340.227, 466.780 2341.839, 456.911 2343.450, 447.041 2345.062, 437.172 2346.673, 427.303 2348.284, 417.433 2349.896, 407.564 2351.086, 400.276 " />
            <path fill="none" stroke-width="3.0" stroke-linecap="butt" stroke-opacity="1.0" stroke="rgb(0, 0, 0)" stroke-linejoin="round" d=" M 1737.956, 672.421 1737.890, 675.070 1737.692, 677.712 1737.362, 680.341 " />
            <path fill="none" stroke-width="3.0" stroke-linecap="butt" stroke-opacity="1.0" stroke="rgb(0, 0, 0)" stroke-linejoin="round" d=" M 1730.159, 644.711 1731.484, 647.005 " />
            <path fill="none" stroke-width="3.0" stroke-linecap="butt" stroke-opacity="1.0" stroke="rgb(0, 0, 0)" stroke-linejoin="round" d=" M 1728.722, 642.486 1730.159, 644.711 " />
            <path fill="none" stroke-width="3.0" stroke-linecap="butt" stroke-opacity="1.0" stroke="rgb(0, 0, 0)" stroke-linejoin="round" d=" M 1721.920, 634.379 1723.770, 636.275 1725.523, 638.262 1727.175, 640.334 1728.722, 642.486 " />
            <path fill="none" stroke-width="3.0" stroke-linecap="butt" stroke-opacity="1.0" stroke="rgb(0, 0, 0)" stroke-linejoin="round" d=" M 1713.646, 627.781 1715.835, 629.273 1717.947, 630.873 1719.977, 632.576 1721.920, 634.379 " />
            <path fill="none" stroke-width="3.0" stroke-linecap="butt" stroke-opacity="1.0" stroke="rgb(0, 0, 0)" stroke-linejoin="round" d=" M 1711.385, 626.399 1713.646, 627.781 " />
            <path fill="none" stroke-width="3.0" stroke-linecap="butt" stroke-opacity="1.0" stroke="rgb(0, 0, 0)" stroke-linejoin="round" d=" M 1709.058, 625.132 1711.385, 626.399 " />
            <path fill="none" stroke-width="3.0" stroke-linecap="butt" stroke-opacity="1.0" stroke="rgb(0, 0, 0)" stroke-linejoin="round" d=" M 1706.671, 623.983 1709.058, 625.132 " />
            <path fill="none" stroke-width="3.0" stroke-linecap="butt" stroke-opacity="1.0" stroke="rgb(0, 0, 0)" stroke-linejoin="round" d=" M 1704.229, 622.954 1706.671, 623.983 " />
            <path fill="none" stroke-width="3.0" stroke-linecap="butt" stroke-opacity="1.0" stroke="rgb(0, 0, 0)" stroke-linejoin="round" d=" M 1701.739, 622.046 1704.229, 622.954 " />
            <path fill="none" stroke-width="3.0" stroke-linecap="butt" stroke-opacity="1.0" stroke="rgb(0, 0, 0)" stroke-linejoin="round" d=" M 1699.207, 621.266 1701.739, 622.046 " />
            <path fill="none" stroke-width="3.0" stroke-linecap="butt" stroke-opacity="1.0" stroke="rgb(0, 0, 0)" stroke-linejoin="round" d=" M 2351.086, 400.276 2355.656, 391.382 2360.228, 382.488 2364.798, 373.594 2369.369, 364.699 2373.940, 355.805 2378.511, 346.911 2383.082, 338.017 2387.653, 329.122 2392.223, 320.228 2396.794, 311.334 2401.365, 302.440 2405.936, 293.545 2410.507, 284.651 2415.078, 275.757 2419.648, 266.863 2424.219, 257.968 2428.790, 249.074 2433.361, 240.180 2437.932, 231.286 2442.503, 222.391 2447.073, 213.497 2451.644, 204.603 2456.215, 195.709 2460.786, 186.815 2465.357, 177.920 2469.928, 169.026 2474.499, 160.132 2479.069, 151.238 2482.621, 144.326 2486.173, 134.978 2489.725, 125.630 2493.277, 116.282 2496.829, 106.935 2500.381, 97.587 2503.933, 88.239 2507.485, 78.891 2511.037, 69.543 2514.589, 60.195 2518.141, 50.847 2521.693, 41.499 2525.245, 32.151 2528.486, 23.623 " />
            <path fill="none" stroke-width="3.0" stroke-linecap="butt" stroke-opacity="1.0" stroke="rgb(0, 0, 0)" stroke-linejoin="round" d=" M 4108.035, 1050.297 4105.517, 1047.715 4103.130, 1045.011 4100.881, 1042.191 4098.776, 1039.264 4096.819, 1036.233 4095.016, 1033.110 4093.371, 1029.901 4091.888, 1026.614 4090.570, 1023.257 4089.421, 1019.838 4088.444, 1016.366 4087.642, 1012.850 4087.016, 1009.298 4086.567, 1005.719 4086.298, 1002.123 4086.208, 998.517 4086.298, 994.912 4086.567, 991.316 4087.016, 987.737 4087.642, 984.186 4088.444, 980.670 4089.421, 977.197 4090.570, 973.779 4091.888, 970.421 4093.371, 967.134 4095.016, 963.925 4096.819, 960.801 4098.776, 957.772 4100.881, 954.844 4103.130, 952.024 4105.517, 949.320 4108.035, 946.738 4110.679, 944.285 4113.441, 941.967 4116.316, 939.789 4119.296, 937.757 4122.374, 935.877 4125.541, 934.152 4128.790, 932.587 4132.114, 931.186 4135.502, 929.953 4138.949, 928.889 4142.444, 928.000 4145.979, 927.285 4149.545, 926.747 4153.134, 926.388 4156.736, 926.209 4160.342, 926.209 4163.944, 926.388 4167.533, 926.747 4171.100, 927.285 4174.634, 928.000 4178.129, 928.889 4181.576, 929.953 4184.965, 931.186 4188.288, 932.587 4191.537, 934.152 4194.705, 935.877 4197.782, 937.757 4200.762, 939.789 4203.637, 941.967 4206.400, 944.285 4209.043, 946.738 4211.562, 949.320 4213.948, 952.024 4216.197, 954.844 4218.302, 957.772 4220.259, 960.801 4222.062, 963.925 4223.708, 967.134 4225.191, 970.421 4226.508, 973.779 4227.657, 977.197 4228.634, 980.670 4229.437, 984.186 4230.062, 987.737 4230.511, 991.316 4230.781, 994.912 4230.871, 998.517 4230.781, 1002.123 4230.511, 1005.719 4230.062, 1009.298 4229.437, 1012.850 4228.634, 1016.366 4227.657, 1019.838 4226.508, 1023.257 4225.191, 1026.614 4223.708, 1029.901 4222.062, 1033.110 4220.259, 1036.233 4218.302, 1039.264 4216.197, 1042.191 4213.948, 1045.011 4211.562, 1047.715 4209.043, 1050.297 4206.400, 1052.750 4203.637, 1055.069 4200.762, 1057.246 4197.782, 1059.278 4194.705, 1061.159 4191.537, 1062.883 4188.288, 1064.448 4184.965, 1065.849 4181.576, 1067.083 4178.129, 1068.145 4174.634, 1069.035 4171.100, 1069.750 4167.533, 1070.288 4163.944, 1070.647 4160.342, 1070.826 4156.736, 1070.826 4153.134, 1070.647 4149.545, 1070.288 4145.979, 1069.750 4142.444, 1069.035 4138.949, 1068.145 4135.502, 1067.083 4132.114, 1065.849 4128.790, 1064.448 4125.541, 1062.883 4122.374, 1061.159 4119.296, 1059.278 4116.316, 1057.246 4113.441, 1055.069 4110.679, 1052.750 4108.035, 1050.297 " />
            <path fill="none" stroke-width="3.0" stroke-linecap="butt" stroke-opacity="1.0" stroke="rgb(0, 0, 0)" stroke-linejoin="round" d=" M 3380.860, 1995.386 3390.860, 1995.386 3400.860, 1995.386 3410.860, 1995.386 3420.860, 1995.386 3430.860, 1995.386 3435.227, 1995.386 " />
            <path fill="none" stroke-width="3.0" stroke-linecap="butt" stroke-opacity="1.0" stroke="rgb(0, 0, 0)" stroke-linejoin="round" d=" M 3435.227, 1995.386 3435.538, 1995.291 3435.678, 1995.291 3435.780, 1995.291 3436.022, 1995.291 3436.263, 1995.291 3436.501, 1995.291 3436.737, 1995.292 3436.970, 1995.292 3437.199, 1995.292 3437.423, 1995.292 3437.642, 1995.292 3437.854, 1995.293 3438.073, 1995.304 3439.561, 1995.305 3449.561, 1995.308 3459.561, 1995.312 3469.561, 1995.315 3479.561, 1995.318 3489.561, 1995.321 3499.561, 1995.325 3509.561, 1995.328 3519.561, 1995.331 3529.561, 1995.335 3539.561, 1995.338 3549.624, 1995.341 3559.624, 1995.345 3569.624, 1995.348 3579.624, 1995.351 3589.624, 1995.355 3599.624, 1995.358 3609.624, 1995.361 3619.624, 1995.364 3629.624, 1995.368 3639.624, 1995.371 3649.624, 1995.374 3659.624, 1995.378 3669.624, 1995.381 3679.624, 1995.384 3685.572, 1995.386 " />
            <path fill="none" stroke-width="3.0" stroke-linecap="butt" stroke-opacity="1.0" stroke="rgb(0, 0, 0)" stroke-linejoin="round" d=" M 2997.964, 113.830 3001.625, 123.135 3005.286, 132.441 3008.947, 141.747 3012.608, 151.052 3016.270, 160.358 3019.931, 169.664 3023.592, 178.970 3027.253, 188.275 3030.914, 197.581 3034.575, 206.887 3038.236, 216.192 3041.897, 225.498 3045.559, 234.804 3049.220, 244.109 3052.881, 253.415 3056.542, 262.721 3060.203, 272.026 3063.865, 281.332 3067.526, 290.638 3071.187, 299.944 3074.848, 309.249 3078.509, 318.555 3082.170, 327.861 3085.831, 337.166 3089.492, 346.472 3093.154, 355.778 3096.815, 365.083 3100.476, 374.389 3104.137, 383.695 3107.798, 393.001 3111.459, 402.306 3115.121, 411.612 3118.782, 420.918 3122.443, 430.223 3126.104, 439.529 3129.765, 448.835 3133.426, 458.141 3137.087, 467.446 3140.749, 476.752 3144.410, 486.057 3148.071, 495.363 3151.732, 504.669 3155.393, 513.975 3159.054, 523.280 3162.716, 532.586 3166.377, 541.892 3170.038, 551.197 3173.699, 560.503 3177.360, 569.809 3181.021, 579.115 3184.682, 588.420 3188.344, 597.726 3192.005, 607.032 3195.666, 616.337 3199.327, 625.643 3202.988, 634.949 3206.649, 644.254 3210.311, 653.560 3213.972, 662.866 3217.633, 672.171 3221.294, 681.477 3223.929, 688.176 3223.384, 698.161 3222.839, 708.146 3222.293, 718.131 3221.748, 728.117 3221.203, 738.102 3220.657, 748.087 3220.112, 758.072 3219.566, 768.057 3219.021, 778.042 3218.476, 788.027 3217.930, 798.012 3217.385, 807.998 3216.839, 817.983 3216.294, 827.968 3215.749, 837.953 3215.203, 847.938 3214.658, 857.923 3214.112, 867.908 3213.567, 877.893 3213.021, 887.878 3212.476, 897.864 3211.931, 907.849 3211.385, 917.834 3210.840, 927.819 3210.294, 937.804 3209.749, 947.789 3209.204, 957.774 3208.658, 967.759 3208.113, 977.745 3207.567, 987.730 3207.022, 997.715 3206.477, 1007.700 3205.931, 1017.685 3205.386, 1027.670 3204.841, 1037.655 3204.295, 1047.640 3203.750, 1057.625 3203.204, 1067.611 3202.659, 1077.596 3202.114, 1087.581 3201.568, 1097.566 3201.023, 1107.551 3200.477, 1117.536 3199.932, 1127.521 3199.386, 1137.506 3198.841, 1147.491 3198.296, 1157.477 3197.750, 1167.462 3197.205, 1177.447 3196.659, 1187.432 3196.114, 1197.417 3195.569, 1207.402 3195.023, 1217.387 3194.478, 1227.372 3193.932, 1237.357 3193.387, 1247.343 3192.842, 1257.328 3192.296, 1267.313 3191.751, 1277.298 3191.205, 1287.283 3190.660, 1297.268 3190.115, 1307.253 3189.569, 1317.238 3189.135, 1325.181 " />
            <path fill="none" stroke-width="3.0" stroke-linecap="butt" stroke-opacity="1.0" stroke="rgb(0, 0, 0)" stroke-linejoin="round" d=" M 3685.572, 1995.386 3685.585, 1995.385 3686.546, 1995.281 3687.444, 1995.281 3688.313, 1995.281 3689.153, 1995.281 3689.960, 1995.282 3690.783, 1995.333 3700.783, 1995.333 3710.783, 1995.334 3720.783, 1995.334 3730.783, 1995.335 3740.783, 1995.335 3750.783, 1995.335 3760.783, 1995.336 3770.783, 1995.336 3780.783, 1995.337 3790.783, 1995.337 3800.783, 1995.337 3810.783, 1995.338 3820.783, 1995.338 3830.783, 1995.339 3840.783, 1995.339 3850.783, 1995.339 3860.783, 1995.340 3870.783, 1995.340 3880.783, 1995.341 3890.783, 1995.341 3900.783, 1995.341 3910.783, 1995.342 3920.783, 1995.342 3930.783, 1995.342 3940.783, 1995.343 3950.783, 1995.343 3960.783, 1995.344 3970.783, 1995.344 3980.783, 1995.344 3990.783, 1995.345 4000.783, 1995.345 4010.783, 1995.346 4020.783, 1995.346 4030.783, 1995.346 4040.783, 1995.347 4050.783, 1995.347 4060.783, 1995.348 4070.783, 1995.348 4080.783, 1995.348 4090.783, 1995.349 4100.783, 1995.349 4110.783, 1995.350 4120.783, 1995.350 4130.783, 1995.350 4140.783, 1995.351 4150.783, 1995.351 4160.783, 1995.352 4170.783, 1995.352 4180.783, 1995.352 4190.783, 1995.353 4200.783, 1995.353 4210.783, 1995.353 4220.783, 1995.354 4230.783, 1995.354 4240.783, 1995.355 4250.783, 1995.355 4260.783, 1995.355 4270.783, 1995.356 4280.783, 1995.356 4290.783, 1995.357 4300.783, 1995.357 4310.783, 1995.357 4320.783, 1995.358 4330.783, 1995.358 4340.783, 1995.359 4350.783, 1995.359 4360.783, 1995.359 4370.783, 1995.360 4380.783, 1995.360 4390.783, 1995.361 4400.783, 1995.361 4410.783, 1995.361 4420.783, 1995.362 4430.783, 1995.362 4440.783, 1995.363 4450.783, 1995.363 4460.783, 1995.363 4470.783, 1995.364 4480.783, 1995.364 4490.783, 1995.364 4500.783, 1995.365 4510.783, 1995.365 4520.783, 1995.366 4530.783, 1995.366 4540.783, 1995.366 4550.783, 1995.367 4560.783, 1995.367 4570.783, 1995.368 4580.783, 1995.368 4590.783, 1995.368 4600.783, 1995.369 4610.783, 1995.369 4620.783, 1995.370 4630.783, 1995.370 4640.783, 1995.370 4650.783, 1995.371 4660.783, 1995.371 4670.783, 1995.372 4680.783, 1995.372 4690.783, 1995.372 4700.783, 1995.373 4710.783, 1995.373 4720.783, 1995.373 4730.783, 1995.374 4740.783, 1995.374 4750.783, 1995.375 4760.783, 1995.375 4770.783, 1995.375 4780.783, 1995.376 4790.783, 1995.376 4800.783, 1995.377 4810.783, 1995.377 4820.783, 1995.377 4830.783, 1995.378 4840.783, 1995.378 4850.783, 1995.379 4860.783, 1995.379 4870.783, 1995.379 4880.783, 1995.380 4890.783, 1995.380 4900.783, 1995.381 4910.783, 1995.381 4920.783, 1995.381 4930.783, 1995.382 4940.783, 1995.382 4950.783, 1995.383 4960.783, 1995.383 4970.783, 1995.383 4980.783, 1995.384 4990.783, 1995.384 5000.783, 1995.384 5010.783, 1995.385 5020.783, 1995.385 5030.783, 1995.386 5045.307, 1995.386 5055.307, 1995.386 5065.307, 1995.386 5075.307, 1995.386 5085.307, 1995.386 5095.307, 1995.386 5105.307, 1995.386 5115.307, 1995.386 5125.307, 1995.386 5135.307, 1995.386 5145.307, 1995.386 5155.307, 1995.386 5165.307, 1995.386 5175.307, 1995.386 5185.307, 1995.386 5195.307, 1995.386 5205.307, 1995.386 5215.307, 1995.386 5225.307, 1995.386 5235.307, 1995.386 5245.307, 1995.386 5255.307, 1995.386 5265.307, 1995.386 5275.307, 1995.386 5285.307, 1995.386 5295.307, 1995.386 5305.307, 1995.386 5315.307, 1995.386 5325.307, 1995.386 5335.307, 1995.386 5345.307, 1995.386 5355.307, 1995.386 5365.307, 1995.386 5375.307, 1995.386 5385.307, 1995.386 5395.307, 1995.386 5403.827, 1995.386 5413.827, 1995.386 5423.827, 1995.386 5425.158, 1995.386 5420.859, 1986.357 5416.561, 1977.328 5412.262, 1968.300 5407.963, 1959.271 5403.665, 1950.242 5399.366, 1941.213 5395.067, 1932.184 5390.846, 1923.318 " />
            <path fill="none" stroke-width="3.0" stroke-linecap="butt" stroke-opacity="1.0" stroke="rgb(0, 0, 0)" stroke-linejoin="round" d=" M 4347.669, 23.623 4342.358, 23.623 4337.057, 23.623 4331.785, 23.623 4326.561, 23.623 4321.401, 23.623 4311.401, 23.623 4301.401, 23.623 4291.401, 23.623 4281.401, 23.623 4271.401, 23.623 4261.401, 23.623 4253.479, 23.623 4248.396, 23.623 4243.387, 23.623 4238.468, 23.623 4233.658, 23.623 4228.973, 23.623 4224.429, 23.623 4214.429, 23.623 4204.429, 23.623 4194.429, 23.623 4184.429, 23.623 4174.429, 23.623 4164.429, 23.623 4154.429, 23.623 4144.429, 23.623 4134.429, 23.623 4124.429, 23.623 4114.429, 23.623 4104.429, 23.623 4094.429, 23.623 4084.429, 23.623 4074.429, 23.623 4070.961, 23.623 4066.312, 23.623 4061.729, 23.623 4057.229, 23.623 4052.823, 23.623 4048.525, 23.623 4044.350, 23.623 4034.350, 23.623 4024.350, 23.623 4014.350, 23.623 4004.350, 23.623 3994.350, 23.623 3984.350, 23.623 3974.350, 23.623 3964.350, 23.623 3954.350, 23.623 3944.350, 23.623 3934.350, 23.623 3924.350, 23.623 3914.350, 23.623 3904.350, 23.623 3894.350, 23.623 3884.350, 23.623 3874.350, 23.623 3864.350, 23.623 3854.350, 23.623 3844.350, 23.623 3834.350, 23.623 3824.350, 23.623 3814.350, 23.623 3804.350, 23.623 3794.350, 23.623 3784.350, 23.623 3774.350, 23.623 3764.350, 23.623 3754.350, 23.623 3744.350, 23.623 3734.350, 23.623 3724.350, 23.623 3714.350, 23.623 3704.350, 23.623 3694.350, 23.623 3684.350, 23.623 3674.350, 23.623 3664.350, 23.623 3654.350, 23.623 3644.350, 23.623 3634.350, 23.623 3624.350, 23.623 3614.350, 23.623 3604.350, 23.623 3594.350, 23.623 3584.350, 23.623 3574.350, 23.623 3564.350, 23.623 3554.350, 23.623 3544.350, 23.623 3534.350, 23.623 3524.350, 23.623 3514.350, 23.623 3504.350, 23.623 3494.350, 23.623 3483.543, 23.623 3479.894, 23.623 3476.027, 23.623 3471.960, 23.623 3467.710, 23.623 3463.296, 23.623 3458.736, 23.623 3454.048, 23.623 3449.253, 23.623 3444.371, 23.623 3439.419, 23.623 3434.418, 23.623 3429.386, 23.623 3419.386, 23.623 3409.386, 23.623 3399.386, 23.623 3389.386, 23.623 3379.386, 23.623 3369.386, 23.623 3359.386, 23.623 3349.386, 23.623 3339.386, 23.623 3329.386, 23.623 3319.386, 23.623 3309.386, 23.623 3299.386, 23.623 3289.386, 23.623 3279.386, 23.623 3269.386, 23.623 3259.386, 23.623 3249.386, 23.623 3239.386, 23.623 3229.386, 23.623 3219.386, 23.623 3209.386, 23.623 3199.386, 23.623 3189.386, 23.623 3179.386, 23.623 3169.386, 23.623 3159.386, 23.623 3149.386, 23.623 3139.386, 23.623 3129.386, 23.623 3119.386, 23.623 3109.386, 23.623 3099.386, 23.623 3089.386, 23.623 3079.386, 23.623 3069.386, 23.623 3059.386, 23.623 3049.386, 23.623 3039.386, 23.623 3029.386, 23.623 3019.386, 23.623 3009.386, 23.623 2999.386, 23.623 2988.941, 23.623 " />
            <path fill="none" stroke-width="3.0" stroke-linecap="butt" stroke-opacity="1.0" stroke="rgb(0, 0, 0)" stroke-linejoin="round" d=" M 5213.875, 741.806 5210.385, 732.434 5206.896, 723.063 5203.406, 713.691 5199.917, 704.320 5196.427, 694.949 5192.938, 685.577 5189.448, 676.206 5185.958, 666.834 5182.469, 657.463 5178.979, 648.092 5178.143, 645.843 5177.524, 635.862 5176.906, 625.881 5176.288, 615.901 5175.669, 605.920 5175.051, 595.939 5174.433, 585.958 5173.815, 575.977 5173.196, 565.996 5172.578, 556.015 5171.960, 546.035 5171.342, 536.054 5170.724, 526.073 5170.105, 516.092 5169.487, 506.111 5168.869, 496.130 5168.250, 486.149 5167.632, 476.168 5167.014, 466.188 5166.887, 464.142 5163.157, 454.864 5159.426, 445.586 5155.696, 436.308 5151.965, 427.030 5148.235, 417.752 5144.504, 408.474 5140.774, 399.195 5137.043, 389.917 5133.313, 380.639 5129.583, 371.361 5125.852, 362.083 5122.122, 352.805 5118.391, 343.527 5114.661, 334.249 5110.930, 324.970 5107.200, 315.692 5103.469, 306.414 5099.739, 297.136 5096.008, 287.858 5092.278, 278.580 5088.547, 269.302 5084.816, 260.024 5081.086, 250.745 5077.355, 241.467 5073.625, 232.189 5069.895, 222.911 5066.164, 213.633 5062.434, 204.355 5058.703, 195.077 5054.973, 185.799 5051.242, 176.521 5047.512, 167.242 5043.781, 157.964 5040.051, 148.686 5036.320, 139.408 5032.590, 130.130 5028.859, 120.852 5025.129, 111.574 5021.398, 102.296 5017.668, 93.018 5013.938, 83.739 5010.207, 74.461 5006.477, 65.183 5002.746, 55.905 4999.016, 46.627 4995.285, 37.349 4991.555, 28.071 4989.766, 23.623 " />
            <path fill="none" stroke-width="3.0" stroke-linecap="butt" stroke-opacity="1.0" stroke="rgb(0, 0, 0)" stroke-linejoin="round" d=" M 4970.422, 23.666 4970.176, 23.666 4969.918, 23.665 4969.647, 23.665 4969.599, 23.665 4969.365, 23.664 4969.071, 23.663 4968.765, 23.663 4968.447, 23.662 4968.120, 23.662 4967.782, 23.661 4967.436, 23.661 4967.080, 23.660 4966.716, 23.659 4966.346, 23.659 4965.971, 23.658 4965.592, 23.658 4965.210, 23.657 4964.827, 23.656 4964.487, 23.645 4964.442, 23.643 4954.442, 23.643 4944.442, 23.643 4934.442, 23.642 4924.442, 23.642 4914.442, 23.642 4904.442, 23.641 4894.442, 23.641 4884.442, 23.641 4874.442, 23.640 4864.442, 23.640 4854.442, 23.640 4844.442, 23.639 4834.442, 23.639 4824.442, 23.639 4814.442, 23.638 4804.442, 23.638 4794.442, 23.638 4784.442, 23.637 4774.442, 23.637 4764.442, 23.637 4754.442, 23.636 4744.442, 23.636 4734.442, 23.636 4724.442, 23.635 4714.442, 23.635 4704.442, 23.635 4694.442, 23.634 4684.442, 23.634 4674.442, 23.634 4664.442, 23.633 4654.442, 23.633 4644.442, 23.633 4634.442, 23.632 4624.442, 23.632 4614.442, 23.632 4604.442, 23.631 4594.442, 23.631 4584.442, 23.631 4574.442, 23.630 4564.442, 23.630 4554.442, 23.630 4544.442, 23.630 4534.442, 23.629 4524.442, 23.629 4514.442, 23.628 4504.442, 23.628 4494.442, 23.628 4484.442, 23.627 4474.442, 23.627 4464.442, 23.627 4454.442, 23.626 4444.442, 23.626 4434.442, 23.626 4419.854, 23.625 4409.854, 23.625 4399.854, 23.625 4389.854, 23.624 4379.854, 23.624 4369.854, 23.624 4359.854, 23.623 4349.854, 23.623 4347.669, 23.623 " />
            <path fill="none" stroke-width="3.0" stroke-linecap="butt" stroke-opacity="1.0" stroke="rgb(0, 0, 0)" stroke-linejoin="round" d=" M 4989.766, 23.623 4979.766, 23.623 4970.765, 23.623 4970.422, 23.666 " />
            <path fill="none" stroke-width="3.0" stroke-linecap="butt" stroke-opacity="1.0" stroke="rgb(0, 0, 0)" stroke-linejoin="round" d=" M 1632.727, 682.951 1632.266, 680.341 " />
            <path fill="none" stroke-width="3.0" stroke-linecap="butt" stroke-opacity="1.0" stroke="rgb(0, 0, 0)" stroke-linejoin="round" d=" M 1709.058, 719.710 1706.671, 720.860 " />
            <path fill="none" stroke-width="3.0" stroke-linecap="butt" stroke-opacity="1.0" stroke="rgb(0, 0, 0)" stroke-linejoin="round" d=" M 1916.398, 1995.386 1924.053, 1995.386 " />
            <path fill="none" stroke-width="3.0" stroke-linecap="butt" stroke-opacity="1.0" stroke="rgb(0, 0, 0)" stroke-linejoin="round" d=" M 2988.941, 23.623 2989.936, 33.573 2990.931, 43.524 2991.927, 53.474 2992.922, 63.424 2993.917, 73.375 2994.912, 83.325 2995.908, 93.275 2996.903, 103.226 2997.964, 113.830 " />
            <path fill="none" stroke-width="3.0" stroke-linecap="butt" stroke-opacity="1.0" stroke="rgb(0, 0, 0)" stroke-linejoin="round" d=" M 3189.135, 1325.181 3191.886, 1334.795 3194.636, 1344.409 3197.386, 1354.024 3200.137, 1363.638 3202.887, 1373.253 3205.638, 1382.867 3208.388, 1392.481 3211.138, 1402.096 3213.889, 1411.710 3216.639, 1421.324 3219.389, 1430.939 3222.140, 1440.553 3224.890, 1450.167 3227.641, 1459.782 3230.391, 1469.396 3233.141, 1479.010 3235.892, 1488.625 3238.642, 1498.239 3241.392, 1507.853 3244.143, 1517.468 3246.893, 1527.082 3249.643, 1536.696 3252.394, 1546.311 3255.144, 1555.925 3257.895, 1565.539 3260.645, 1575.154 3263.395, 1584.768 3266.146, 1594.382 3268.896, 1603.997 3271.646, 1613.611 3274.397, 1623.225 3277.147, 1632.840 3279.897, 1642.454 3282.648, 1652.068 3285.398, 1661.683 3288.148, 1671.297 3290.899, 1680.911 3293.649, 1690.526 3296.400, 1700.140 3299.150, 1709.754 3301.900, 1719.369 3304.651, 1728.983 3307.401, 1738.597 3310.151, 1748.212 3312.902, 1757.826 3315.652, 1767.440 3318.403, 1777.055 3321.153, 1786.669 3323.903, 1796.283 3326.654, 1805.898 3329.404, 1815.512 3332.154, 1825.126 3334.905, 1834.741 3337.655, 1844.355 3340.406, 1853.969 3343.156, 1863.584 3345.906, 1873.198 3348.656, 1882.812 3351.407, 1892.427 3354.157, 1902.041 3356.908, 1911.655 3359.658, 1921.270 3362.408, 1930.884 3365.159, 1940.498 3367.909, 1950.113 3370.659, 1959.727 3373.410, 1969.341 3376.160, 1978.956 3378.910, 1988.570 3380.860, 1995.386 " />
            <path fill="none" stroke-width="3.0" stroke-linecap="butt" stroke-opacity="1.0" stroke="rgb(0, 0, 0)" stroke-linejoin="round" d=" M 5229.317, 1311.938 5229.047, 1301.942 5228.776, 1291.945 5228.505, 1281.949 5228.234, 1271.953 5227.964, 1261.956 5227.693, 1251.960 5227.422, 1241.964 5227.151, 1231.967 5226.880, 1221.971 5226.610, 1211.975 5226.339, 1201.978 5226.068, 1191.982 5225.797, 1181.986 5225.527, 1171.989 5225.256, 1161.993 5224.985, 1151.997 5224.714, 1142.000 5224.444, 1132.004 5224.173, 1122.008 5223.902, 1112.011 5223.631, 1102.015 5223.361, 1092.019 5223.090, 1082.022 5222.819, 1072.026 5222.548, 1062.030 5222.278, 1052.033 5222.007, 1042.037 5221.736, 1032.041 5221.465, 1022.044 5221.194, 1012.048 5220.924, 1002.052 5220.653, 992.055 5220.382, 982.059 5220.111, 972.063 5219.841, 962.066 5219.570, 952.070 5219.299, 942.074 5219.028, 932.077 5218.758, 922.081 5218.487, 912.085 5218.216, 902.088 5217.945, 892.092 5217.675, 882.096 5217.404, 872.099 5217.133, 862.103 5216.862, 852.107 5216.591, 842.110 5216.321, 832.114 5216.050, 822.118 5215.779, 812.121 5215.508, 802.125 5215.238, 792.129 5214.967, 782.132 5214.696, 772.136 5214.425, 762.140 5214.155, 752.143 5213.875, 741.806 " />
            <path fill="none" stroke-width="3.0" stroke-linecap="butt" stroke-opacity="1.0" stroke="rgb(0, 0, 0)" stroke-linejoin="round" d=" M 5262.095, 1491.343 5260.297, 1481.506 5258.500, 1471.669 5256.703, 1461.831 5254.906, 1451.994 5253.108, 1442.157 5251.312, 1432.320 5249.514, 1422.483 5247.717, 1412.646 5245.919, 1402.808 5244.122, 1392.971 5242.325, 1383.134 5240.528, 1373.297 5238.730, 1363.460 5236.933, 1353.623 5235.136, 1343.785 5233.339, 1333.948 5231.542, 1324.111 5229.744, 1314.274 5229.317, 1311.938 " />
            <path fill="none" stroke-width="3.0" stroke-linecap="butt" stroke-opacity="1.0" stroke="rgb(0, 0, 0)" stroke-linejoin="round" d=" M 5390.846, 1923.318 5387.990, 1913.735 5385.133, 1904.152 5382.277, 1894.568 5379.420, 1884.985 5376.564, 1875.402 5373.708, 1865.818 5370.852, 1856.235 5367.995, 1846.651 5365.139, 1837.068 5362.282, 1827.485 5359.426, 1817.901 5356.570, 1808.318 5353.713, 1798.734 5350.857, 1789.151 5348.000, 1779.568 5345.145, 1769.984 5342.288, 1760.401 5339.432, 1750.818 5336.575, 1741.234 5333.719, 1731.651 5330.863, 1722.067 5328.006, 1712.484 5325.150, 1702.901 5322.293, 1693.317 5319.438, 1683.734 5316.581, 1674.150 5313.725, 1664.567 5310.868, 1654.984 5308.012, 1645.400 5305.156, 1635.817 5302.299, 1626.234 5299.443, 1616.650 5296.586, 1607.067 5293.730, 1597.483 5290.874, 1587.900 5288.018, 1578.317 5285.161, 1568.733 5282.305, 1559.150 5279.448, 1549.566 5276.592, 1539.983 5273.736, 1530.400 5270.879, 1520.816 5268.023, 1511.233 5265.167, 1501.649 5262.095, 1491.343 " />
        </g>
    </g>
<g id="slice-labels"><text x="563.9736" y="516.56375" text-anchor="middle" dominant-baseline="middle" font-family="Arial, sans-serif" font-size="59.045949121965165" font-weight="bold" fill="black" stroke="none" stroke-width="7.08551389463582" paint-order="stroke fill">Slice37 (Front)</text><text x="1644.2368000000004" y="516.56375" text-anchor="middle" dominant-baseline="middle" font-family="Arial, sans-serif" font-size="59.045949121965165" font-weight="bold" fill="black" stroke="none" stroke-width="7.08551389463582" paint-order="stroke fill">Slice37 (Front)</text><text x="2724.5000000000005" y="516.56375" text-anchor="middle" dominant-baseline="middle" font-family="Arial, sans-serif" font-size="59.045949121965165" font-weight="bold" fill="black" stroke="none" stroke-width="7.08551389463582" paint-order="stroke fill">Slice37 (Front)</text><text x="3804.7632000000003" y="516.56375" text-anchor="middle" dominant-baseline="middle" font-family="Arial, sans-serif" font-size="59.045949121965165" font-weight="bold" fill="black" stroke="none" stroke-width="7.08551389463582" paint-order="stroke fill">Slice37 (Front)</text><text x="4885.026400000001" y="516.56375" text-anchor="middle" dominant-baseline="middle" font-family="Arial, sans-serif" font-size="59.045949121965165" font-weight="bold" fill="black" stroke="none" stroke-width="7.08551389463582" paint-order="stroke fill">Slice37 (Front)</text><text x="563.9736" y="1502.44525" text-anchor="middle" dominant-baseline="middle" font-family="Arial, sans-serif" font-size="59.045949121965165" font-weight="bold" fill="black" stroke="none" stroke-width="7.08551389463582" paint-order="stroke fill">Slice37 (Front)</text><text x="1644.2368000000004" y="1502.44525" text-anchor="middle" dominant-baseline="middle" font-family="Arial, sans-serif" font-size="59.045949121965165" font-weight="bold" fill="black" stroke="none" stroke-width="7.08551389463582" paint-order="stroke fill">Slice37 (Front)</text><text x="2724.5000000000005" y="1502.44525" text-anchor="middle" dominant-baseline="middle" font-family="Arial, sans-serif" font-size="59.045949121965165" font-weight="bold" fill="black" stroke="none" stroke-width="7.08551389463582" paint-order="stroke fill">Slice37 (Front)</text><text x="3804.7632000000003" y="1502.44525" text-anchor="middle" dominant-baseline="middle" font-family="Arial, sans-serif" font-size="59.045949121965165" font-weight="bold" fill="black" stroke="none" stroke-width="7.08551389463582" paint-order="stroke fill">Slice37 (Front)</text><text x="4885.026400000001" y="1502.44525" text-anchor="middle" dominant-baseline="middle" font-family="Arial, sans-serif" font-size="59.045949121965165" font-weight="bold" fill="black" stroke="none" stroke-width="7.08551389463582" paint-order="stroke fill">Slice37 (Front)</text></g></svg>