<?xml version='1.0' encoding='utf-8'?>
<svg xmlns="http://www.w3.org/2000/svg" xmlns:inkscape="http://www.inkscape.org/namespaces/inkscape" version="1.1" width="175.32455110549927mm" height="129.97745656967163mm" viewBox="0.23152471821063259 0.0055201261989914485 2070.5369505635786 1534.999959747602" preserveAspectRatio="none">
    <g id="ViewLayer_LineSet" inkscape:groupmode="lineset" inkscape:label="ViewLayer_LineSet">
        <g inkscape:groupmode="layer" id="strokes" inkscape:label="strokes">
            <path fill="none" stroke-width="3.0" stroke-linecap="butt" stroke-opacity="1.0" stroke="rgb(0, 0, 0)" stroke-linejoin="round" d=" M 718.625, 393.814 716.107, 391.232 713.721, 388.528 711.472, 385.708 709.367, 382.780 707.410, 379.750 705.606, 376.626 703.961, 373.417 702.478, 370.129 701.160, 366.772 700.011, 363.353 699.034, 359.881 698.232, 356.365 697.605, 352.813 697.157, 349.234 696.888, 345.638 696.798, 342.032 696.888, 338.426 697.157, 334.830 697.605, 331.251 698.232, 327.699 699.034, 324.183 700.011, 320.711 701.160, 317.292 702.478, 313.934 703.961, 310.647 705.606, 307.438 707.410, 304.314 709.367, 301.284 711.472, 298.357 713.721, 295.537 716.107, 292.832 718.625, 290.250 721.269, 287.797 724.032, 285.478 726.907, 283.301 729.887, 281.269 732.965, 279.388 736.133, 277.664 739.382, 276.099 742.705, 274.698 746.094, 273.464 749.541, 272.401 753.036, 271.511 756.571, 270.796 760.138, 270.258 763.727, 269.899 767.329, 269.720 770.936, 269.720 774.537, 269.899 778.126, 270.258 781.693, 270.796 785.228, 271.511 788.723, 272.401 792.170, 273.464 795.559, 274.698 798.883, 276.099 802.132, 277.664 805.300, 279.388 808.377, 281.269 811.357, 283.301 814.232, 285.478 816.995, 287.797 819.639, 290.250 822.157, 292.832 824.544, 295.537 826.793, 298.357 828.898, 301.284 830.855, 304.314 832.658, 307.438 834.303, 310.647 835.787, 313.934 837.105, 317.292 838.253, 320.711 839.230, 324.183 840.033, 327.699 840.659, 331.251 841.107, 334.830 841.377, 338.426 841.467, 342.032 841.377, 345.638 841.107, 349.234 840.659, 352.813 840.033, 356.365 839.230, 359.881 838.253, 363.353 837.105, 366.772 835.787, 370.129 834.303, 373.417 832.658, 376.626 830.855, 379.750 828.898, 382.780 826.793, 385.708 824.544, 388.528 822.157, 391.232 819.639, 393.814 816.995, 396.268 814.232, 398.586 811.357, 400.763 808.377, 402.795 805.300, 404.676 802.132, 406.401 798.883, 407.965 795.559, 409.367 792.170, 410.600 788.723, 411.663 785.228, 412.553 781.693, 413.268 778.126, 413.806 774.537, 414.165 770.936, 414.344 767.329, 414.344 763.727, 414.165 760.138, 413.806 756.571, 413.268 753.036, 412.553 749.541, 411.663 746.094, 410.600 742.705, 409.367 739.382, 407.965 736.133, 406.401 732.965, 404.676 729.887, 402.795 726.907, 400.763 724.032, 398.586 721.269, 396.268 718.625, 393.814 " />
            <path fill="none" stroke-width="3.0" stroke-linecap="butt" stroke-opacity="1.0" stroke="rgb(0, 0, 0)" stroke-linejoin="round" d=" M 952.002, 1511.366 954.565, 1511.366 954.080, 1511.366 952.453, 1511.367 952.222, 1511.367 952.006, 1511.367 950.684, 1511.367 950.581, 1511.367 " />
            <path fill="none" stroke-width="3.0" stroke-linecap="butt" stroke-opacity="1.0" stroke="rgb(0, 0, 0)" stroke-linejoin="round" d=" M 995.247, 1511.365 985.247, 1511.365 977.563, 1511.365 967.563, 1511.366 957.563, 1511.366 954.565, 1511.366 " />
            <path fill="none" stroke-width="3.0" stroke-linecap="butt" stroke-opacity="1.0" stroke="rgb(0, 0, 0)" stroke-linejoin="round" d=" M 1008.786, 1511.365 1008.527, 1511.365 1008.298, 1511.365 1006.865, 1511.365 1005.736, 1511.365 1005.277, 1511.365 " />
            <path fill="none" stroke-width="3.0" stroke-linecap="butt" stroke-opacity="1.0" stroke="rgb(0, 0, 0)" stroke-linejoin="round" d=" M 158.321, 462.800 159.622, 472.715 160.924, 482.630 162.225, 492.545 163.526, 502.459 164.828, 512.374 166.129, 522.289 167.430, 532.204 168.732, 542.119 170.033, 552.034 171.335, 561.949 172.636, 571.864 173.937, 581.779 175.239, 591.694 176.540, 601.609 177.841, 611.524 179.143, 621.439 180.444, 631.354 181.746, 641.269 183.047, 651.184 184.348, 661.099 185.650, 671.014 186.951, 680.929 188.252, 690.844 189.554, 700.759 190.855, 710.674 192.157, 720.589 193.458, 730.504 194.759, 740.419 196.061, 750.333 197.362, 760.248 198.663, 770.163 199.965, 780.078 201.266, 789.993 202.568, 799.908 203.355, 805.906 206.334, 815.452 209.314, 824.998 212.294, 834.544 215.273, 844.089 218.253, 853.635 221.233, 863.181 224.212, 872.727 227.192, 882.273 230.172, 891.818 233.151, 901.364 236.131, 910.910 239.110, 920.456 242.090, 930.001 245.070, 939.547 248.049, 949.093 251.029, 958.639 254.009, 968.185 256.988, 977.730 259.968, 987.276 262.947, 996.822 265.927, 1006.368 268.907, 1015.913 271.886, 1025.459 274.866, 1035.005 277.846, 1044.551 280.825, 1054.096 283.805, 1063.642 286.784, 1073.188 289.764, 1082.734 292.744, 1092.280 295.723, 1101.825 298.703, 1111.371 301.683, 1120.917 304.662, 1130.463 307.642, 1140.008 310.622, 1149.554 313.601, 1159.100 316.581, 1168.646 319.560, 1178.191 322.540, 1187.737 325.520, 1197.283 328.499, 1206.829 331.479, 1216.375 334.459, 1225.920 337.438, 1235.466 340.418, 1245.012 343.397, 1254.558 346.377, 1264.103 349.357, 1273.649 352.336, 1283.195 355.316, 1292.741 358.296, 1302.287 361.275, 1311.832 364.255, 1321.378 367.234, 1330.924 370.214, 1340.470 373.194, 1350.015 376.173, 1359.561 379.153, 1369.107 382.248, 1379.021 " />
            <path fill="none" stroke-width="3.0" stroke-linecap="butt" stroke-opacity="1.0" stroke="rgb(0, 0, 0)" stroke-linejoin="round" d=" M 1896.476, 23.625 1886.476, 23.625 1876.476, 23.625 1866.476, 23.625 1856.476, 23.625 1846.476, 23.625 1836.476, 23.625 1826.476, 23.625 1816.476, 23.625 1806.476, 23.625 1796.476, 23.625 1786.476, 23.625 1776.476, 23.625 1766.476, 23.625 1756.476, 23.625 1746.476, 23.625 1736.476, 23.625 1726.476, 23.625 1716.476, 23.625 1706.476, 23.625 1696.476, 23.625 1686.476, 23.625 1676.476, 23.625 1673.475, 23.625 1671.553, 23.625 1669.570, 23.625 1667.532, 23.625 1665.443, 23.625 1663.311, 23.625 1661.138, 23.625 1658.934, 23.625 1656.704, 23.625 1654.456, 23.625 1652.197, 23.625 1649.934, 23.625 1647.676, 23.625 1645.429, 23.625 1643.202, 23.625 1641.004, 23.625 1638.842, 23.625 1636.724, 23.625 1634.658, 23.625 1632.651, 23.625 1630.713, 23.625 1628.850, 23.625 1627.068, 23.625 1625.374, 23.625 1623.775, 23.625 1622.276, 23.625 1620.883, 23.625 1619.599, 23.625 1618.430, 23.625 1608.430, 23.625 1598.430, 23.625 1588.430, 23.625 1578.430, 23.625 1568.430, 23.625 1558.430, 23.625 1548.430, 23.625 1538.430, 23.625 1528.430, 23.625 1518.430, 23.625 1508.430, 23.625 1498.430, 23.625 1488.430, 23.625 1478.430, 23.625 1468.430, 23.625 1458.430, 23.625 1448.430, 23.625 1438.430, 23.625 1428.430, 23.625 1418.430, 23.625 1408.430, 23.625 1398.430, 23.625 1388.430, 23.625 1378.430, 23.625 1368.430, 23.625 1358.430, 23.625 1348.430, 23.625 1335.647, 23.625 1325.647, 23.625 1315.647, 23.625 1305.647, 23.625 1295.647, 23.625 1285.647, 23.625 1275.647, 23.625 1265.647, 23.625 1255.647, 23.625 1245.647, 23.625 1235.647, 23.625 1225.647, 23.625 1215.647, 23.625 1205.647, 23.625 1195.647, 23.625 1185.647, 23.625 1175.647, 23.625 1165.647, 23.625 1155.647, 23.625 1145.647, 23.625 1135.647, 23.625 1125.647, 23.625 1115.647, 23.625 1105.647, 23.625 1095.647, 23.625 1088.771, 23.625 1083.203, 23.625 1073.203, 23.625 1063.203, 23.625 1053.203, 23.625 1043.203, 23.625 1033.203, 23.625 1023.203, 23.625 1013.203, 23.625 1003.203, 23.625 993.203, 23.625 990.978, 23.625 985.636, 23.625 980.408, 23.625 975.309, 23.625 970.356, 23.625 965.564, 23.625 960.948, 23.625 950.948, 23.625 940.948, 23.625 930.948, 23.625 920.948, 23.625 910.948, 23.625 900.948, 23.625 890.948, 23.625 880.948, 23.625 870.948, 23.625 860.948, 23.625 850.948, 23.625 840.948, 23.625 830.948, 23.625 820.948, 23.625 810.948, 23.625 800.948, 23.625 790.948, 23.625 780.948, 23.625 770.948, 23.625 760.948, 23.625 750.948, 23.625 740.948, 23.625 730.948, 23.625 720.948, 23.625 710.948, 23.625 700.948, 23.625 690.948, 23.625 680.948, 23.625 670.948, 23.625 660.948, 23.625 650.948, 23.625 640.948, 23.625 630.948, 23.625 620.948, 23.625 610.948, 23.625 600.948, 23.625 590.948, 23.625 580.948, 23.625 570.948, 23.625 560.948, 23.625 550.948, 23.625 540.948, 23.625 530.948, 23.625 520.948, 23.625 510.948, 23.625 502.914, 23.625 498.979, 23.625 494.801, 23.625 484.801, 23.625 474.801, 23.625 464.801, 23.625 454.801, 23.625 444.801, 23.625 434.801, 23.625 424.801, 23.625 414.801, 23.625 404.801, 23.625 394.801, 23.625 384.801, 23.625 374.801, 23.625 364.801, 23.625 354.801, 23.625 346.227, 23.625 342.882, 23.625 339.294, 23.625 335.478, 23.625 331.454, 23.625 327.239, 23.625 317.239, 23.625 307.239, 23.625 297.239, 23.625 287.239, 23.625 277.239, 23.625 267.239, 23.625 257.239, 23.625 247.239, 23.625 237.239, 23.625 227.239, 23.625 217.239, 23.625 207.239, 23.625 197.239, 23.625 187.239, 23.625 177.239, 23.625 167.239, 23.625 157.239, 23.625 147.239, 23.625 137.239, 23.625 127.239, 23.625 117.239, 23.625 107.239, 23.625 97.239, 23.625 87.239, 23.625 77.239, 23.625 67.239, 23.625 57.239, 23.625 47.239, 23.625 37.239, 23.625 27.239, 23.625 23.851, 23.625 28.837, 32.293 33.822, 40.962 38.808, 49.630 43.794, 58.298 44.370, 59.299 47.087, 68.923 49.805, 78.546 52.523, 88.170 55.241, 97.794 57.958, 107.417 60.676, 117.041 63.394, 126.664 66.112, 136.288 68.830, 145.912 71.547, 155.535 74.265, 165.159 76.983, 174.782 79.701, 184.406 82.418, 194.030 85.136, 203.653 87.854, 213.277 90.572, 222.900 93.289, 232.524 96.007, 242.148 98.725, 251.771 101.443, 261.395 104.161, 271.018 106.878, 280.642 109.596, 290.266 112.314, 299.889 115.032, 309.513 117.749, 319.136 120.467, 328.760 123.185, 338.384 125.903, 348.007 128.620, 357.631 131.338, 367.254 134.056, 376.878 136.774, 386.502 139.492, 396.125 142.209, 405.749 144.927, 415.372 147.645, 424.996 150.363, 434.620 153.080, 444.243 155.798, 453.867 158.321, 462.800 " />
            <path fill="none" stroke-width="3.0" stroke-linecap="butt" stroke-opacity="1.0" stroke="rgb(0, 0, 0)" stroke-linejoin="round" d=" M 1933.356, 955.826 1933.659, 945.830 1933.962, 935.835 1934.265, 925.839 1934.568, 915.844 1934.871, 905.848 1935.174, 895.853 1935.493, 885.335 1933.779, 875.483 1932.065, 865.631 1930.352, 855.779 1928.638, 845.927 1926.924, 836.075 1925.211, 826.223 1923.497, 816.371 1921.783, 806.519 1920.070, 796.667 1918.356, 786.815 1916.642, 776.963 1914.929, 767.111 1913.215, 757.258 1911.501, 747.406 1909.788, 737.554 1908.074, 727.702 1906.360, 717.850 1904.999, 710.025 1907.065, 700.240 1909.132, 690.456 1911.198, 680.672 1913.265, 670.888 1915.331, 661.104 1917.397, 651.320 1919.464, 641.535 1921.530, 631.751 1923.596, 621.967 1925.663, 612.183 1927.729, 602.399 1929.796, 592.614 1931.862, 582.830 1933.928, 573.046 1935.995, 563.262 1938.061, 553.478 1940.127, 543.694 1942.194, 533.909 1944.260, 524.125 1946.326, 514.341 1948.393, 504.557 1950.459, 494.773 1952.526, 484.989 1954.592, 475.204 1956.658, 465.420 1958.725, 455.636 1960.791, 445.852 1961.959, 440.320 " />
            <path fill="none" stroke-width="3.0" stroke-linecap="butt" stroke-opacity="1.0" stroke="rgb(0, 0, 0)" stroke-linejoin="round" d=" M 2047.149, 1511.325 2044.703, 1501.628 2042.258, 1491.932 2039.812, 1482.236 2037.366, 1472.539 2034.921, 1462.843 2032.475, 1453.147 2030.029, 1443.450 2027.583, 1433.754 2025.138, 1424.058 2022.692, 1414.362 2020.246, 1404.665 2017.800, 1394.969 2015.355, 1385.273 2012.909, 1375.576 2010.463, 1365.880 2008.017, 1356.184 2005.572, 1346.487 2004.665, 1342.893 2003.276, 1332.990 2001.886, 1323.087 2000.497, 1313.184 1999.108, 1303.281 1997.718, 1293.378 1996.329, 1283.475 1994.940, 1273.572 1993.550, 1263.669 1992.161, 1253.766 1990.771, 1243.863 1989.382, 1233.960 1987.993, 1224.057 1986.603, 1214.154 1985.214, 1204.251 1983.825, 1194.348 1982.435, 1184.445 1981.046, 1174.542 1979.657, 1164.639 1978.267, 1154.736 1976.878, 1144.833 1975.489, 1134.930 1974.099, 1125.027 1972.710, 1115.124 1971.320, 1105.221 1969.931, 1095.318 1968.542, 1085.415 1967.152, 1075.512 1965.763, 1065.609 1964.374, 1055.706 1962.984, 1045.803 1961.595, 1035.900 1960.206, 1025.997 1959.153, 1018.492 1955.346, 1009.245 1951.540, 999.998 1947.733, 990.751 1943.927, 981.504 1940.120, 972.256 1936.313, 963.009 1933.356, 955.826 " />
            <path fill="none" stroke-width="3.0" stroke-linecap="butt" stroke-opacity="1.0" stroke="rgb(0, 0, 0)" stroke-linejoin="round" d=" M 382.248, 1379.021 387.281, 1387.662 392.314, 1396.303 397.347, 1404.944 402.380, 1413.585 407.414, 1422.226 412.447, 1430.867 417.480, 1439.508 422.513, 1448.149 427.547, 1456.790 432.580, 1465.431 437.613, 1474.072 442.646, 1482.713 447.679, 1491.354 452.713, 1499.995 457.746, 1508.636 459.348, 1511.386 " />
            <path fill="none" stroke-width="3.0" stroke-linecap="butt" stroke-opacity="1.0" stroke="rgb(0, 0, 0)" stroke-linejoin="round" d=" M 1074.856, 661.725 1072.826, 660.023 1070.884, 658.221 1069.034, 656.324 1067.280, 654.336 1065.628, 652.265 1064.081, 650.114 1062.644, 647.888 1061.319, 645.592 " />
            <path fill="none" stroke-width="3.0" stroke-linecap="butt" stroke-opacity="1.0" stroke="rgb(0, 0, 0)" stroke-linejoin="round" d=" M 1086.133, 668.617 1083.746, 667.468 1081.419, 666.200 1079.158, 664.818 1076.968, 663.326 " />
            <path fill="none" stroke-width="3.0" stroke-linecap="butt" stroke-opacity="1.0" stroke="rgb(0, 0, 0)" stroke-linejoin="round" d=" M 1061.319, 645.592 1060.110, 643.235 1059.020, 640.819 1058.052, 638.353 1057.208, 635.841 1056.490, 633.290 1055.901, 630.707 1055.441, 628.097 1055.111, 625.467 1054.913, 622.825 1054.847, 620.176 1054.913, 617.527 1055.111, 614.885 " />
            <path fill="none" stroke-width="3.0" stroke-linecap="butt" stroke-opacity="1.0" stroke="rgb(0, 0, 0)" stroke-linejoin="round" d=" M 1093.597, 671.334 1091.065, 670.553 1088.575, 669.647 1086.133, 668.617 " />
            <path fill="none" stroke-width="3.0" stroke-linecap="butt" stroke-opacity="1.0" stroke="rgb(0, 0, 0)" stroke-linejoin="round" d=" M 1127.406, 669.647 1124.916, 670.553 1122.384, 671.334 1119.816, 671.988 1117.219, 672.513 1114.599, 672.908 1111.962, 673.172 1109.316, 673.303 1106.666, 673.303 1104.019, 673.172 1101.383, 672.908 1098.762, 672.513 1096.165, 671.988 1093.597, 671.334 " />
            <path fill="none" stroke-width="3.0" stroke-linecap="butt" stroke-opacity="1.0" stroke="rgb(0, 0, 0)" stroke-linejoin="round" d=" M 1055.111, 614.885 1055.441, 612.256 " />
            <path fill="none" stroke-width="3.0" stroke-linecap="butt" stroke-opacity="1.0" stroke="rgb(0, 0, 0)" stroke-linejoin="round" d=" M 1055.441, 612.256 1055.901, 609.646 1056.490, 607.062 1057.208, 604.512 " />
            <path fill="none" stroke-width="3.0" stroke-linecap="butt" stroke-opacity="1.0" stroke="rgb(0, 0, 0)" stroke-linejoin="round" d=" M 1057.208, 604.512 1058.052, 602.000 1059.020, 599.534 1060.110, 597.118 1061.319, 594.761 1062.644, 592.465 1064.081, 590.239 1065.628, 588.088 1067.280, 586.017 " />
            <path fill="none" stroke-width="3.0" stroke-linecap="butt" stroke-opacity="1.0" stroke="rgb(0, 0, 0)" stroke-linejoin="round" d=" M 1067.280, 586.017 1069.034, 584.030 1070.884, 582.132 1072.826, 580.330 " />
            <path fill="none" stroke-width="3.0" stroke-linecap="butt" stroke-opacity="1.0" stroke="rgb(0, 0, 0)" stroke-linejoin="round" d=" M 1072.826, 580.330 1074.856, 578.627 1076.968, 577.027 1079.158, 575.535 " />
            <path fill="none" stroke-width="3.0" stroke-linecap="butt" stroke-opacity="1.0" stroke="rgb(0, 0, 0)" stroke-linejoin="round" d=" M 1079.158, 575.535 1081.419, 574.153 1083.746, 572.885 1086.133, 571.735 1088.575, 570.706 " />
            <path fill="none" stroke-width="3.0" stroke-linecap="butt" stroke-opacity="1.0" stroke="rgb(0, 0, 0)" stroke-linejoin="round" d=" M 1088.575, 570.706 1091.065, 569.800 1093.597, 569.019 1096.165, 568.365 " />
            <path fill="none" stroke-width="3.0" stroke-linecap="butt" stroke-opacity="1.0" stroke="rgb(0, 0, 0)" stroke-linejoin="round" d=" M 1096.165, 568.365 1098.762, 567.839 " />
            <path fill="none" stroke-width="3.0" stroke-linecap="butt" stroke-opacity="1.0" stroke="rgb(0, 0, 0)" stroke-linejoin="round" d=" M 1098.762, 567.839 1101.383, 567.444 " />
            <path fill="none" stroke-width="3.0" stroke-linecap="butt" stroke-opacity="1.0" stroke="rgb(0, 0, 0)" stroke-linejoin="round" d=" M 1424.457, 874.558 1421.939, 871.976 1419.552, 869.271 1417.303, 866.451 1415.198, 863.524 1413.241, 860.494 1411.438, 857.370 1409.792, 854.161 1408.309, 850.873 1406.991, 847.516 1405.843, 844.097 1404.865, 840.625 1404.063, 837.109 1403.437, 833.557 1402.988, 829.978 1402.719, 826.382 1402.629, 822.776 1402.719, 819.170 1402.988, 815.574 1403.437, 811.995 1404.063, 808.443 1404.865, 804.926 1405.843, 801.455 1406.991, 798.036 1408.309, 794.678 1409.792, 791.391 1411.438, 788.182 1413.241, 785.058 1415.198, 782.028 1417.303, 779.100 1419.552, 776.280 1421.939, 773.576 1424.457, 770.994 1427.101, 768.540 1429.864, 766.222 1432.738, 764.044 1435.719, 762.013 1438.796, 760.132 1441.964, 758.408 1445.213, 756.842 1448.537, 755.441 1451.926, 754.208 1455.372, 753.144 1458.867, 752.255 1462.403, 751.540 1465.969, 751.002 1469.558, 750.643 1473.160, 750.464 1476.767, 750.464 1480.369, 750.643 1483.958, 751.002 1487.525, 751.540 1491.060, 752.255 1494.555, 753.144 1498.001, 754.208 1501.390, 755.441 1504.714, 756.842 1507.963, 758.408 1511.131, 760.132 1514.208, 762.013 1517.189, 764.044 1520.063, 766.222 1522.826, 768.540 1525.470, 770.994 1527.988, 773.576 1530.375, 776.280 1532.624, 779.100 1534.729, 782.028 1536.686, 785.058 1538.490, 788.182 1540.135, 791.391 1541.618, 794.678 1542.936, 798.036 1544.084, 801.455 1545.062, 804.926 1545.864, 808.443 1546.490, 811.995 1546.939, 815.574 1547.208, 819.170 1547.298, 822.776 1547.208, 826.382 1546.939, 829.978 1546.490, 833.557 1545.864, 837.109 1545.062, 840.625 1544.084, 844.097 1542.936, 847.516 1541.618, 850.873 1540.135, 854.161 1538.490, 857.370 1536.686, 860.494 1534.729, 863.524 1532.624, 866.451 1530.375, 869.271 1527.988, 871.976 1525.470, 874.558 1522.826, 877.012 1520.063, 879.330 1517.189, 881.507 1514.208, 883.539 1511.131, 885.420 1507.963, 887.144 1504.714, 888.709 1501.390, 890.111 1498.001, 891.344 1494.555, 892.407 1491.060, 893.297 1487.525, 894.012 1483.958, 894.550 1480.369, 894.909 1476.767, 895.087 1473.160, 895.087 1469.558, 894.909 1465.969, 894.550 1462.403, 894.012 1458.867, 893.297 1455.372, 892.407 1451.926, 891.344 1448.537, 890.111 1445.213, 888.709 1441.964, 887.144 1438.796, 885.420 1435.719, 883.539 1432.738, 881.507 1429.864, 879.330 1427.101, 877.012 1424.457, 874.558 " />
            <path fill="none" stroke-width="3.0" stroke-linecap="butt" stroke-opacity="1.0" stroke="rgb(0, 0, 0)" stroke-linejoin="round" d=" M 945.613, 1511.367 947.261, 1511.367 948.919, 1511.367 949.279, 1511.367 950.581, 1511.367 " />
            <path fill="none" stroke-width="3.0" stroke-linecap="butt" stroke-opacity="1.0" stroke="rgb(0, 0, 0)" stroke-linejoin="round" d=" M 950.581, 1511.367 950.712, 1511.367 951.706, 1511.366 952.002, 1511.366 952.243, 1511.366 962.243, 1511.366 972.243, 1511.365 982.243, 1511.365 989.531, 1511.365 993.596, 1511.365 995.312, 1511.365 997.020, 1511.365 998.717, 1511.365 1000.395, 1511.365 1002.052, 1511.365 1003.681, 1511.365 1003.716, 1511.365 1005.277, 1511.365 " />
            <path fill="none" stroke-width="3.0" stroke-linecap="butt" stroke-opacity="1.0" stroke="rgb(0, 0, 0)" stroke-linejoin="round" d=" M 1146.948, 656.324 1145.098, 658.221 1143.155, 660.023 1141.125, 661.725 1139.013, 663.326 " />
            <path fill="none" stroke-width="3.0" stroke-linecap="butt" stroke-opacity="1.0" stroke="rgb(0, 0, 0)" stroke-linejoin="round" d=" M 1160.081, 630.707 1159.491, 633.290 1158.774, 635.841 1157.930, 638.353 1156.962, 640.819 1155.872, 643.235 1154.663, 645.592 1153.338, 647.888 1151.901, 650.114 1150.354, 652.265 " />
            <path fill="none" stroke-width="3.0" stroke-linecap="butt" stroke-opacity="1.0" stroke="rgb(0, 0, 0)" stroke-linejoin="round" d=" M 1159.491, 607.062 1160.081, 609.646 1160.541, 612.256 1160.870, 614.885 1161.068, 617.527 1161.135, 620.176 1161.068, 622.825 1160.870, 625.467 1160.541, 628.097 " />
            <path fill="none" stroke-width="3.0" stroke-linecap="butt" stroke-opacity="1.0" stroke="rgb(0, 0, 0)" stroke-linejoin="round" d=" M 1620.666, 1511.341 1630.666, 1511.340 1640.666, 1511.340 1650.666, 1511.340 1660.666, 1511.339 1670.666, 1511.339 1680.666, 1511.338 1690.666, 1511.338 1700.666, 1511.338 1710.666, 1511.337 1720.666, 1511.337 1730.666, 1511.337 1740.666, 1511.336 1750.666, 1511.336 1760.666, 1511.335 1770.666, 1511.335 1780.666, 1511.335 1790.666, 1511.334 1800.666, 1511.334 1810.666, 1511.334 1820.666, 1511.333 1830.666, 1511.333 1840.666, 1511.332 1850.666, 1511.332 1860.666, 1511.332 1870.666, 1511.331 1880.666, 1511.331 1890.666, 1511.331 1900.666, 1511.330 1910.666, 1511.330 1920.666, 1511.329 1930.666, 1511.329 1940.666, 1511.329 1950.666, 1511.328 1960.666, 1511.328 1970.666, 1511.327 1980.666, 1511.327 1990.666, 1511.327 2000.666, 1511.326 2010.666, 1511.326 2020.666, 1511.326 2030.666, 1511.325 2040.666, 1511.325 2047.149, 1511.325 " />
            <path fill="none" stroke-width="3.0" stroke-linecap="butt" stroke-opacity="1.0" stroke="rgb(0, 0, 0)" stroke-linejoin="round" d=" M 1136.824, 575.535 1139.013, 577.027 1141.125, 578.627 1143.155, 580.330 1145.098, 582.132 1146.948, 584.030 " />
            <path fill="none" stroke-width="3.0" stroke-linecap="butt" stroke-opacity="1.0" stroke="rgb(0, 0, 0)" stroke-linejoin="round" d=" M 1309.113, 393.814 1306.594, 391.232 1304.208, 388.528 1301.959, 385.708 1299.853, 382.780 1297.897, 379.750 1296.093, 376.626 1294.448, 373.417 1292.965, 370.129 1291.647, 366.772 1290.498, 363.353 1289.521, 359.881 1288.719, 356.365 1288.093, 352.813 1287.644, 349.234 1287.374, 345.638 1287.285, 342.032 1287.374, 338.426 1287.644, 334.830 1288.093, 331.251 1288.719, 327.699 1289.521, 324.183 1290.498, 320.711 1291.647, 317.292 1292.965, 313.934 1294.448, 310.647 1296.093, 307.438 1297.897, 304.314 1299.853, 301.284 1301.959, 298.357 1304.208, 295.537 1306.594, 292.832 1309.113, 290.250 1311.756, 287.797 1314.519, 285.478 1317.394, 283.301 1320.375, 281.269 1323.452, 279.388 1326.620, 277.664 1329.869, 276.099 1333.192, 274.698 1336.582, 273.464 1340.028, 272.401 1343.523, 271.511 1347.059, 270.796 1350.625, 270.258 1354.214, 269.899 1357.816, 269.720 1361.423, 269.720 1365.025, 269.899 1368.614, 270.258 1372.180, 270.796 1375.715, 271.511 1379.211, 272.401 1382.657, 273.464 1386.046, 274.698 1389.370, 276.099 1392.619, 277.664 1395.787, 279.388 1398.864, 281.269 1401.844, 283.301 1404.719, 285.478 1407.482, 287.797 1410.126, 290.250 1412.644, 292.832 1415.031, 295.537 1417.280, 298.357 1419.385, 301.284 1421.342, 304.314 1423.145, 307.438 1424.791, 310.647 1426.274, 313.934 1427.592, 317.292 1428.740, 320.711 1429.717, 324.183 1430.520, 327.699 1431.146, 331.251 1431.594, 334.830 1431.864, 338.426 1431.954, 342.032 1431.864, 345.638 1431.594, 349.234 1431.146, 352.813 1430.520, 356.365 1429.717, 359.881 1428.740, 363.353 1427.592, 366.772 1426.274, 370.129 1424.791, 373.417 1423.145, 376.626 1421.342, 379.750 1419.385, 382.780 1417.280, 385.708 1415.031, 388.528 1412.644, 391.232 1410.126, 393.814 1407.482, 396.268 1404.719, 398.586 1401.844, 400.763 1398.864, 402.795 1395.787, 404.676 1392.619, 406.401 1389.370, 407.965 1386.046, 409.367 1382.657, 410.600 1379.211, 411.663 1375.715, 412.553 1372.180, 413.268 1368.614, 413.806 1365.025, 414.165 1361.423, 414.344 1357.816, 414.344 1354.214, 414.165 1350.625, 413.806 1347.059, 413.268 1343.523, 412.553 1340.028, 411.663 1336.582, 410.600 1333.192, 409.367 1329.869, 407.965 1326.620, 406.401 1323.452, 404.676 1320.375, 402.795 1317.394, 400.763 1314.519, 398.586 1311.756, 396.268 1309.113, 393.814 " />
            <path fill="none" stroke-width="3.0" stroke-linecap="butt" stroke-opacity="1.0" stroke="rgb(0, 0, 0)" stroke-linejoin="round" d=" M 1134.563, 574.153 1136.824, 575.535 " />
            <path fill="none" stroke-width="3.0" stroke-linecap="butt" stroke-opacity="1.0" stroke="rgb(0, 0, 0)" stroke-linejoin="round" d=" M 1146.948, 584.030 1148.702, 586.017 1150.354, 588.088 1151.901, 590.239 " />
            <path fill="none" stroke-width="3.0" stroke-linecap="butt" stroke-opacity="1.0" stroke="rgb(0, 0, 0)" stroke-linejoin="round" d=" M 1109.316, 567.049 1111.962, 567.181 1114.599, 567.444 1117.219, 567.839 1119.816, 568.365 1122.384, 569.019 1124.916, 569.800 1127.406, 570.706 1129.848, 571.735 1132.236, 572.885 1134.563, 574.153 " />
            <path fill="none" stroke-width="3.0" stroke-linecap="butt" stroke-opacity="1.0" stroke="rgb(0, 0, 0)" stroke-linejoin="round" d=" M 1151.901, 590.239 1153.338, 592.465 1154.663, 594.761 1155.872, 597.118 1156.962, 599.534 1157.930, 602.000 1158.774, 604.512 1159.491, 607.062 " />
            <path fill="none" stroke-width="3.0" stroke-linecap="butt" stroke-opacity="1.0" stroke="rgb(0, 0, 0)" stroke-linejoin="round" d=" M 1101.383, 567.444 1104.019, 567.181 1106.666, 567.049 1109.316, 567.049 " />
            <path fill="none" stroke-width="3.0" stroke-linecap="butt" stroke-opacity="1.0" stroke="rgb(0, 0, 0)" stroke-linejoin="round" d=" M 459.348, 1511.386 469.348, 1511.385 479.348, 1511.385 489.348, 1511.385 499.348, 1511.384 509.348, 1511.384 519.348, 1511.384 529.348, 1511.383 539.348, 1511.383 549.348, 1511.382 559.348, 1511.382 569.348, 1511.382 579.348, 1511.381 589.348, 1511.381 599.348, 1511.380 609.348, 1511.380 619.348, 1511.380 629.348, 1511.379 639.348, 1511.379 649.348, 1511.379 659.348, 1511.378 669.348, 1511.378 679.348, 1511.377 689.348, 1511.377 699.348, 1511.377 709.348, 1511.376 719.348, 1511.376 729.348, 1511.375 739.348, 1511.375 749.348, 1511.375 759.348, 1511.374 769.348, 1511.374 779.348, 1511.374 789.348, 1511.373 799.348, 1511.373 809.348, 1511.372 819.348, 1511.372 829.348, 1511.372 839.348, 1511.371 849.348, 1511.371 859.348, 1511.370 869.348, 1511.370 879.348, 1511.370 889.348, 1511.369 899.348, 1511.369 909.348, 1511.369 919.348, 1511.368 929.348, 1511.368 939.348, 1511.367 949.348, 1511.367 959.348, 1511.367 969.348, 1511.366 979.348, 1511.366 989.348, 1511.365 999.348, 1511.365 1008.298, 1511.365 " />
            <path fill="none" stroke-width="3.0" stroke-linecap="butt" stroke-opacity="1.0" stroke="rgb(0, 0, 0)" stroke-linejoin="round" d=" M 459.348, 1511.386 469.348, 1511.385 479.348, 1511.385 489.348, 1511.385 499.348, 1511.384 509.348, 1511.384 519.348, 1511.383 529.348, 1511.383 539.348, 1511.383 549.348, 1511.382 559.348, 1511.382 569.348, 1511.382 579.348, 1511.381 589.348, 1511.381 599.348, 1511.380 609.348, 1511.380 619.348, 1511.380 629.348, 1511.379 639.348, 1511.379 649.348, 1511.378 659.348, 1511.378 669.348, 1511.378 679.348, 1511.377 689.348, 1511.377 699.348, 1511.376 709.348, 1511.376 719.348, 1511.376 729.348, 1511.375 739.348, 1511.375 749.348, 1511.374 759.348, 1511.374 769.348, 1511.374 779.348, 1511.373 789.348, 1511.373 799.348, 1511.373 809.348, 1511.372 819.348, 1511.372 829.348, 1511.371 839.348, 1511.371 849.348, 1511.371 859.348, 1511.370 869.348, 1511.370 879.348, 1511.369 889.348, 1511.369 899.348, 1511.369 909.348, 1511.368 919.348, 1511.368 929.348, 1511.367 939.348, 1511.367 945.613, 1511.367 " />
            <path fill="none" stroke-width="3.0" stroke-linecap="butt" stroke-opacity="1.0" stroke="rgb(0, 0, 0)" stroke-linejoin="round" d=" M 459.348, 1511.386 469.348, 1511.385 479.348, 1511.385 489.348, 1511.385 499.348, 1511.384 509.348, 1511.384 519.348, 1511.384 529.348, 1511.383 539.348, 1511.383 549.348, 1511.382 559.348, 1511.382 569.348, 1511.382 579.348, 1511.381 589.348, 1511.381 599.348, 1511.380 609.348, 1511.380 619.348, 1511.380 629.348, 1511.379 639.348, 1511.379 649.348, 1511.378 659.348, 1511.378 669.348, 1511.378 679.348, 1511.377 689.348, 1511.377 699.348, 1511.377 709.348, 1511.376 719.348, 1511.376 729.348, 1511.375 739.348, 1511.375 749.348, 1511.375 759.348, 1511.374 769.348, 1511.374 779.348, 1511.373 789.348, 1511.373 799.348, 1511.373 809.348, 1511.372 819.348, 1511.372 829.348, 1511.372 839.348, 1511.371 849.348, 1511.371 859.348, 1511.370 869.348, 1511.370 879.348, 1511.370 889.348, 1511.369 899.348, 1511.369 909.348, 1511.368 919.348, 1511.368 929.348, 1511.368 939.348, 1511.367 950.581, 1511.367 " />
            <path fill="none" stroke-width="3.0" stroke-linecap="butt" stroke-opacity="1.0" stroke="rgb(0, 0, 0)" stroke-linejoin="round" d=" M 459.348, 1511.386 469.348, 1511.385 479.348, 1511.385 489.348, 1511.385 499.348, 1511.384 509.348, 1511.384 519.348, 1511.384 529.348, 1511.383 539.348, 1511.383 549.348, 1511.382 559.348, 1511.382 569.348, 1511.382 579.348, 1511.381 589.348, 1511.381 599.348, 1511.380 609.348, 1511.380 619.348, 1511.380 629.348, 1511.379 639.348, 1511.379 649.348, 1511.378 659.348, 1511.378 669.348, 1511.378 679.348, 1511.377 689.348, 1511.377 699.348, 1511.377 709.348, 1511.376 719.348, 1511.376 729.348, 1511.375 739.348, 1511.375 749.348, 1511.375 759.348, 1511.374 769.348, 1511.374 779.348, 1511.373 789.348, 1511.373 799.348, 1511.373 809.348, 1511.372 819.348, 1511.372 829.348, 1511.372 839.348, 1511.371 849.348, 1511.371 859.348, 1511.370 869.348, 1511.370 879.348, 1511.370 889.348, 1511.369 899.348, 1511.369 909.348, 1511.368 919.348, 1511.368 929.348, 1511.368 939.348, 1511.367 952.006, 1511.367 " />
            <path fill="none" stroke-width="3.0" stroke-linecap="butt" stroke-opacity="1.0" stroke="rgb(0, 0, 0)" stroke-linejoin="round" d=" M 459.348, 1511.386 469.348, 1511.385 479.348, 1511.385 489.348, 1511.385 499.348, 1511.384 509.348, 1511.384 519.348, 1511.384 529.348, 1511.383 539.348, 1511.383 549.348, 1511.382 559.348, 1511.382 569.348, 1511.382 579.348, 1511.381 589.348, 1511.381 599.348, 1511.380 609.348, 1511.380 619.348, 1511.380 629.348, 1511.379 639.348, 1511.379 649.348, 1511.378 659.348, 1511.378 669.348, 1511.378 679.348, 1511.377 689.348, 1511.377 699.348, 1511.377 709.348, 1511.376 719.348, 1511.376 729.348, 1511.375 739.348, 1511.375 749.348, 1511.375 759.348, 1511.374 769.348, 1511.374 779.348, 1511.373 789.348, 1511.373 799.348, 1511.373 809.348, 1511.372 819.348, 1511.372 829.348, 1511.372 839.348, 1511.371 849.348, 1511.371 859.348, 1511.370 869.348, 1511.370 879.348, 1511.370 889.348, 1511.369 899.348, 1511.369 909.348, 1511.368 919.348, 1511.368 929.348, 1511.368 939.348, 1511.367 950.684, 1511.367 952.222, 1511.367 962.222, 1511.366 972.222, 1511.366 982.222, 1511.366 992.222, 1511.365 1002.222, 1511.365 1005.277, 1511.365 " />
            <path fill="none" stroke-width="3.0" stroke-linecap="butt" stroke-opacity="1.0" stroke="rgb(0, 0, 0)" stroke-linejoin="round" d=" M 989.531, 1511.365 979.531, 1511.365 977.563, 1511.365 967.563, 1511.366 957.563, 1511.366 954.080, 1511.366 951.706, 1511.366 " />
            <path fill="none" stroke-width="3.0" stroke-linecap="butt" stroke-opacity="1.0" stroke="rgb(0, 0, 0)" stroke-linejoin="round" d=" M 1076.968, 663.326 1074.856, 661.725 " />
            <path fill="none" stroke-width="3.0" stroke-linecap="butt" stroke-opacity="1.0" stroke="rgb(0, 0, 0)" stroke-linejoin="round" d=" M 1129.848, 668.617 1127.406, 669.647 " />
            <path fill="none" stroke-width="3.0" stroke-linecap="butt" stroke-opacity="1.0" stroke="rgb(0, 0, 0)" stroke-linejoin="round" d=" M 1132.236, 667.468 1129.848, 668.617 " />
            <path fill="none" stroke-width="3.0" stroke-linecap="butt" stroke-opacity="1.0" stroke="rgb(0, 0, 0)" stroke-linejoin="round" d=" M 1134.563, 666.200 1132.236, 667.468 " />
            <path fill="none" stroke-width="3.0" stroke-linecap="butt" stroke-opacity="1.0" stroke="rgb(0, 0, 0)" stroke-linejoin="round" d=" M 1136.824, 664.818 1134.563, 666.200 " />
            <path fill="none" stroke-width="3.0" stroke-linecap="butt" stroke-opacity="1.0" stroke="rgb(0, 0, 0)" stroke-linejoin="round" d=" M 1139.013, 663.326 1136.824, 664.818 " />
            <path fill="none" stroke-width="3.0" stroke-linecap="butt" stroke-opacity="1.0" stroke="rgb(0, 0, 0)" stroke-linejoin="round" d=" M 1148.702, 654.336 1146.948, 656.324 " />
            <path fill="none" stroke-width="3.0" stroke-linecap="butt" stroke-opacity="1.0" stroke="rgb(0, 0, 0)" stroke-linejoin="round" d=" M 1150.354, 652.265 1148.702, 654.336 " />
            <path fill="none" stroke-width="3.0" stroke-linecap="butt" stroke-opacity="1.0" stroke="rgb(0, 0, 0)" stroke-linejoin="round" d=" M 1160.541, 628.097 1160.081, 630.707 " />
            <path fill="none" stroke-width="3.0" stroke-linecap="butt" stroke-opacity="1.0" stroke="rgb(0, 0, 0)" stroke-linejoin="round" d=" M 1005.277, 1511.365 1008.786, 1511.365 1018.786, 1511.364 1028.786, 1511.364 1038.786, 1511.363 1048.786, 1511.363 1058.786, 1511.363 1068.786, 1511.362 1078.786, 1511.362 1088.786, 1511.361 1098.786, 1511.361 1108.786, 1511.361 1118.786, 1511.360 1128.786, 1511.360 1138.786, 1511.360 1148.786, 1511.359 1158.786, 1511.359 1168.786, 1511.358 1178.786, 1511.358 1188.786, 1511.358 1198.786, 1511.357 1208.786, 1511.357 1218.786, 1511.356 1228.786, 1511.356 1238.786, 1511.356 1248.786, 1511.355 1258.786, 1511.355 1268.786, 1511.354 1278.786, 1511.354 1288.786, 1511.354 1298.786, 1511.353 1308.786, 1511.353 1318.786, 1511.353 1328.786, 1511.352 1338.786, 1511.352 1348.786, 1511.351 1358.786, 1511.351 1368.786, 1511.351 1378.786, 1511.350 1388.786, 1511.350 1398.786, 1511.349 1408.786, 1511.349 1418.786, 1511.349 1428.786, 1511.348 1438.786, 1511.348 1448.786, 1511.347 1458.786, 1511.347 1468.786, 1511.347 1478.786, 1511.346 1488.786, 1511.346 1498.786, 1511.346 1508.786, 1511.345 1518.786, 1511.345 1528.786, 1511.344 1538.786, 1511.344 1548.786, 1511.344 1558.786, 1511.343 1568.786, 1511.343 1578.786, 1511.342 1588.786, 1511.342 1598.786, 1511.342 1608.786, 1511.341 1620.666, 1511.341 " />
            <path fill="none" stroke-width="3.0" stroke-linecap="butt" stroke-opacity="1.0" stroke="rgb(0, 0, 0)" stroke-linejoin="round" d=" M 949.279, 1511.367 939.279, 1511.367 929.279, 1511.368 919.279, 1511.368 909.279, 1511.368 899.279, 1511.369 889.279, 1511.369 879.279, 1511.370 869.279, 1511.370 859.279, 1511.370 849.279, 1511.371 839.279, 1511.371 829.279, 1511.371 819.279, 1511.372 809.279, 1511.372 799.279, 1511.373 789.279, 1511.373 779.279, 1511.373 769.279, 1511.374 759.279, 1511.374 749.279, 1511.375 739.279, 1511.375 729.279, 1511.375 719.279, 1511.376 709.279, 1511.376 699.279, 1511.377 689.279, 1511.377 679.279, 1511.377 669.279, 1511.378 659.279, 1511.378 649.279, 1511.378 639.279, 1511.379 629.279, 1511.379 619.279, 1511.380 609.279, 1511.380 599.279, 1511.380 589.279, 1511.381 579.279, 1511.381 569.279, 1511.382 559.279, 1511.382 549.279, 1511.382 539.279, 1511.383 529.279, 1511.383 519.279, 1511.384 509.279, 1511.384 499.279, 1511.384 489.279, 1511.385 479.279, 1511.385 469.279, 1511.385 459.348, 1511.386 " />
            <path fill="none" stroke-width="3.0" stroke-linecap="butt" stroke-opacity="1.0" stroke="rgb(0, 0, 0)" stroke-linejoin="round" d=" M 1003.716, 1511.365 993.716, 1511.365 983.716, 1511.365 973.716, 1511.366 963.716, 1511.366 953.716, 1511.367 952.453, 1511.367 950.712, 1511.367 " />
            <path fill="none" stroke-width="3.0" stroke-linecap="butt" stroke-opacity="1.0" stroke="rgb(0, 0, 0)" stroke-linejoin="round" d=" M 1961.959, 440.320 1960.407, 430.441 1958.854, 420.563 1957.302, 410.684 1955.750, 400.805 1954.197, 390.926 1952.645, 381.048 1951.092, 371.169 1949.540, 361.290 1947.987, 351.411 1946.435, 341.532 1944.882, 331.654 1943.330, 321.775 1941.778, 311.896 1940.225, 302.017 1938.673, 292.139 1937.120, 282.260 1935.568, 272.381 1934.015, 262.502 1932.463, 252.624 1930.911, 242.745 1929.358, 232.866 1927.806, 222.987 1926.253, 213.109 1924.701, 203.230 1923.148, 193.351 1921.596, 183.472 1920.043, 173.594 1918.491, 163.715 1916.939, 153.836 1915.386, 143.957 1913.834, 134.078 1912.281, 124.200 1910.729, 114.321 1909.177, 104.442 1907.624, 94.563 1906.072, 84.685 1904.519, 74.806 1902.967, 64.927 1901.414, 55.048 1899.862, 45.170 1898.309, 35.291 1896.476, 23.625 " />
            <path fill="none" stroke-width="3.0" stroke-linecap="butt" stroke-opacity="1.0" stroke="rgb(0, 0, 0)" stroke-linejoin="round" d=" M 459.348, 1511.386 469.348, 1511.385 479.348, 1511.385 489.348, 1511.385 499.348, 1511.384 509.348, 1511.384 519.348, 1511.384 529.348, 1511.383 539.348, 1511.383 549.348, 1511.382 559.348, 1511.382 569.348, 1511.382 579.348, 1511.381 589.348, 1511.381 599.348, 1511.380 609.348, 1511.380 619.348, 1511.380 629.348, 1511.379 639.348, 1511.379 649.348, 1511.378 659.348, 1511.378 669.348, 1511.378 679.348, 1511.377 689.348, 1511.377 699.348, 1511.377 709.348, 1511.376 719.348, 1511.376 729.348, 1511.375 739.348, 1511.375 749.348, 1511.375 759.348, 1511.374 769.348, 1511.374 779.348, 1511.373 789.348, 1511.373 799.348, 1511.373 809.348, 1511.372 819.348, 1511.372 829.348, 1511.372 839.348, 1511.371 849.348, 1511.371 859.348, 1511.370 869.348, 1511.370 879.348, 1511.370 889.348, 1511.369 899.348, 1511.369 909.348, 1511.368 919.348, 1511.368 929.348, 1511.368 939.348, 1511.367 949.348, 1511.367 959.348, 1511.367 969.348, 1511.366 979.348, 1511.366 989.348, 1511.365 999.348, 1511.365 1006.865, 1511.365 1008.527, 1511.365 1018.527, 1511.364 1028.527, 1511.364 1038.527, 1511.363 1048.527, 1511.363 1058.527, 1511.363 1068.527, 1511.362 1078.527, 1511.362 1088.527, 1511.362 1098.527, 1511.361 1108.527, 1511.361 1118.527, 1511.360 1128.527, 1511.360 1138.527, 1511.360 1148.527, 1511.359 1158.527, 1511.359 1168.527, 1511.358 1178.527, 1511.358 1188.527, 1511.358 1198.527, 1511.357 1208.527, 1511.357 1218.527, 1511.357 1228.527, 1511.356 1238.527, 1511.356 1248.527, 1511.355 1258.527, 1511.355 1268.527, 1511.355 1278.527, 1511.354 1288.527, 1511.354 1298.527, 1511.353 1308.527, 1511.353 1318.527, 1511.353 1328.527, 1511.352 1338.527, 1511.352 1348.527, 1511.352 1358.527, 1511.351 1368.527, 1511.351 1378.527, 1511.350 1388.527, 1511.350 1398.527, 1511.350 1408.527, 1511.349 1418.527, 1511.349 1428.527, 1511.348 1438.527, 1511.348 1448.527, 1511.348 1458.527, 1511.347 1468.527, 1511.347 1478.527, 1511.347 1488.527, 1511.346 1498.527, 1511.346 1508.527, 1511.345 1518.527, 1511.345 1528.527, 1511.345 1538.527, 1511.344 1548.527, 1511.344 1558.527, 1511.343 1568.527, 1511.343 1578.527, 1511.343 1588.527, 1511.342 1598.527, 1511.342 1608.527, 1511.342 1618.527, 1511.341 1628.527, 1511.341 1638.527, 1511.340 1648.527, 1511.340 1658.527, 1511.340 1668.527, 1511.339 1678.527, 1511.339 1688.527, 1511.338 1698.527, 1511.338 1708.527, 1511.338 1718.527, 1511.337 1728.527, 1511.337 1738.527, 1511.336 1748.527, 1511.336 1758.527, 1511.336 1768.527, 1511.335 1778.527, 1511.335 1788.527, 1511.335 1798.527, 1511.334 1808.527, 1511.334 1818.527, 1511.333 1828.527, 1511.333 1838.527, 1511.333 1848.527, 1511.332 1858.527, 1511.332 1868.527, 1511.331 1878.527, 1511.331 1888.527, 1511.331 1898.527, 1511.330 1908.527, 1511.330 1918.527, 1511.330 1928.527, 1511.329 1938.527, 1511.329 1948.527, 1511.328 1958.527, 1511.328 1968.527, 1511.328 1978.527, 1511.327 1988.527, 1511.327 1998.527, 1511.326 2008.527, 1511.326 2018.527, 1511.326 2028.527, 1511.325 2047.149, 1511.325 " />
        </g>
    </g>
<g id="slice-labels"><text x="529.6754999999999" y="395.56525" text-anchor="middle" dominant-baseline="middle" font-family="Arial, sans-serif" font-size="59.04869968450252" font-weight="bold" fill="black" stroke="none" stroke-width="7.085843962140302" paint-order="stroke fill">Slice4 (Front)</text><text x="1541.3244999999997" y="395.56525" text-anchor="middle" dominant-baseline="middle" font-family="Arial, sans-serif" font-size="59.04869968450252" font-weight="bold" fill="black" stroke="none" stroke-width="7.085843962140302" paint-order="stroke fill">Slice4 (Front)</text><text x="529.6754999999999" y="1139.4457499999999" text-anchor="middle" dominant-baseline="middle" font-family="Arial, sans-serif" font-size="59.04869968450252" font-weight="bold" fill="black" stroke="none" stroke-width="7.085843962140302" paint-order="stroke fill">Slice4 (Front)</text><text x="1541.3244999999997" y="1139.4457499999999" text-anchor="middle" dominant-baseline="middle" font-family="Arial, sans-serif" font-size="59.04869968450252" font-weight="bold" fill="black" stroke="none" stroke-width="7.085843962140302" paint-order="stroke fill">Slice4 (Front)</text></g></svg>