<?xml version='1.0' encoding='utf-8'?>
<svg xmlns="http://www.w3.org/2000/svg" xmlns:inkscape="http://www.inkscape.org/namespaces/inkscape" version="1.1" width="290.04219388216734mm" height="155.19099617004395mm" viewBox="0.11949903853869515 0.0054954165713922976 3425.7610019229223 1833.0000091668574" preserveAspectRatio="none">
    <g id="ViewLayer_LineSet" inkscape:groupmode="lineset" inkscape:label="ViewLayer_LineSet">
        <g inkscape:groupmode="layer" id="strokes" inkscape:label="strokes">
            <path fill="none" stroke-width="3.0" stroke-linecap="butt" stroke-opacity="1.0" stroke="rgb(0, 0, 0)" stroke-linejoin="round" d=" M 1502.975, 896.810 1500.456, 894.228 1498.069, 891.524 1495.820, 888.704 1493.715, 885.775 1491.758, 882.745 1489.954, 879.621 1488.308, 876.411 1486.825, 873.123 1485.507, 869.765 1484.358, 866.346 1483.381, 862.873 1482.578, 859.357 1481.952, 855.804 1481.504, 852.226 1481.234, 848.628 1481.144, 845.022 1481.234, 841.416 1481.504, 837.819 1481.952, 834.240 1482.578, 830.687 1483.381, 827.171 1484.358, 823.698 1485.507, 820.279 1486.825, 816.921 1488.308, 813.634 1489.954, 810.423 1491.758, 807.300 1493.715, 804.269 1495.820, 801.341 1498.069, 798.521 1500.456, 795.816 1502.975, 793.234 1505.619, 790.780 1508.382, 788.461 1511.258, 786.284 1514.238, 784.251 1517.316, 782.370 1520.484, 780.645 1523.734, 779.080 1527.058, 777.679 1530.447, 776.445 1533.894, 775.382 1537.390, 774.492 1540.926, 773.777 1544.492, 773.239 1548.082, 772.880 1551.684, 772.701 1555.292, 772.701 1558.894, 772.880 1562.483, 773.239 1566.050, 773.777 1569.586, 774.492 1573.082, 775.382 1576.528, 776.445 1579.918, 777.679 1583.242, 779.080 1586.492, 780.645 1589.660, 782.370 1592.738, 784.251 1595.718, 786.284 1598.594, 788.461 1601.357, 790.780 1604.001, 793.234 1606.520, 795.816 1608.907, 798.521 1611.156, 801.341 1613.261, 804.269 1615.218, 807.300 1617.022, 810.423 1618.667, 813.634 1620.151, 816.921 1621.469, 820.279 1622.618, 823.698 1623.595, 827.171 1624.397, 830.687 1625.024, 834.240 1625.472, 837.819 1625.742, 841.416 1625.832, 845.022 1625.742, 848.628 1625.472, 852.226 1625.024, 855.804 1624.397, 859.357 1623.595, 862.873 1622.618, 866.346 1621.469, 869.765 1620.151, 873.123 1618.667, 876.411 1617.022, 879.621 1615.218, 882.745 1613.261, 885.775 1611.156, 888.704 1608.907, 891.524 1606.520, 894.228 1604.001, 896.810 1601.357, 899.265 1598.594, 901.583 1595.718, 903.761 1592.738, 905.793 1589.660, 907.674 1586.492, 909.399 1583.242, 910.964 1579.918, 912.365 1576.528, 913.599 1573.082, 914.663 1569.586, 915.552 1566.050, 916.267 1562.483, 916.805 1558.894, 917.164 1555.292, 917.343 1551.684, 917.343 1548.082, 917.164 1544.492, 916.805 1540.926, 916.267 1537.390, 915.552 1533.894, 914.663 1530.447, 913.599 1527.058, 912.365 1523.734, 910.964 1520.484, 909.399 1517.316, 907.674 1514.238, 905.793 1511.258, 903.761 1508.382, 901.583 1505.619, 899.265 1502.975, 896.810 " />
            <path fill="none" stroke-width="3.0" stroke-linecap="butt" stroke-opacity="1.0" stroke="rgb(0, 0, 0)" stroke-linejoin="round" d=" M 504.082, 23.696 514.082, 23.696 524.082, 23.696 534.082, 23.695 544.082, 23.695 554.082, 23.695 564.082, 23.694 574.082, 23.694 584.082, 23.694 594.082, 23.694 604.082, 23.693 614.082, 23.693 624.082, 23.693 634.082, 23.692 644.082, 23.692 654.082, 23.692 664.082, 23.691 674.082, 23.691 684.082, 23.691 694.082, 23.690 704.082, 23.690 714.082, 23.690 724.082, 23.690 730.522, 23.689 730.523, 23.689 " />
            <path fill="none" stroke-width="3.0" stroke-linecap="butt" stroke-opacity="1.0" stroke="rgb(0, 0, 0)" stroke-linejoin="round" d=" M 2232.774, 1809.383 2236.279, 1809.383 2246.279, 1809.383 2256.279, 1809.383 2266.279, 1809.383 2276.279, 1809.383 2286.279, 1809.383 2296.279, 1809.383 2306.279, 1809.383 2316.279, 1809.383 2326.279, 1809.383 2336.279, 1809.383 2346.279, 1809.383 2356.279, 1809.383 2366.279, 1809.383 2376.279, 1809.383 2386.279, 1809.383 2396.279, 1809.383 2406.279, 1809.383 2416.279, 1809.383 2426.279, 1809.383 2436.279, 1809.383 2446.279, 1809.383 2456.279, 1809.383 2466.279, 1809.383 2476.279, 1809.383 2486.279, 1809.383 2496.279, 1809.383 2506.279, 1809.383 2516.279, 1809.383 2526.279, 1809.383 2536.279, 1809.383 2546.279, 1809.383 2556.279, 1809.383 2566.279, 1809.383 2576.279, 1809.383 2586.279, 1809.383 2596.279, 1809.383 2606.279, 1809.383 2616.279, 1809.383 2626.279, 1809.383 2636.279, 1809.383 2646.279, 1809.383 2656.279, 1809.383 2666.279, 1809.383 2676.279, 1809.383 2686.279, 1809.383 2696.279, 1809.383 2706.279, 1809.383 2716.279, 1809.383 2726.279, 1809.383 2736.279, 1809.383 2746.279, 1809.383 2756.279, 1809.383 2766.279, 1809.383 2776.279, 1809.383 2786.279, 1809.383 2796.279, 1809.383 2806.279, 1809.383 2816.279, 1809.383 2826.279, 1809.383 2836.279, 1809.383 2846.279, 1809.383 2856.279, 1809.383 2866.279, 1809.383 2876.279, 1809.383 2886.279, 1809.383 2896.279, 1809.383 2906.279, 1809.383 2916.279, 1809.383 2926.279, 1809.383 2936.279, 1809.383 2946.279, 1809.383 2956.279, 1809.383 2966.279, 1809.383 2976.279, 1809.383 2986.279, 1809.383 2996.279, 1809.383 3006.279, 1809.383 3016.279, 1809.383 3026.279, 1809.383 3036.279, 1809.383 3046.279, 1809.383 3056.279, 1809.383 3066.279, 1809.383 3076.279, 1809.383 3086.279, 1809.383 3096.279, 1809.383 3106.279, 1809.383 3116.279, 1809.383 3126.279, 1809.383 3136.279, 1809.383 3146.279, 1809.383 3156.279, 1809.383 3166.279, 1809.383 3176.279, 1809.383 3186.279, 1809.383 3196.279, 1809.383 3206.279, 1809.383 3216.279, 1809.383 3226.279, 1809.383 3236.279, 1809.383 3246.279, 1809.383 3256.279, 1809.383 3266.279, 1809.383 3276.279, 1809.383 3286.279, 1809.383 3296.279, 1809.383 3306.279, 1809.383 3316.279, 1809.383 3326.279, 1809.383 3336.279, 1809.383 3346.279, 1809.383 3356.279, 1809.382 3366.279, 1809.382 3376.279, 1809.382 3386.279, 1809.382 3402.258, 1809.382 3392.258, 1809.382 3382.258, 1809.382 3372.258, 1809.382 3362.258, 1809.382 3352.258, 1809.383 3342.258, 1809.383 3332.258, 1809.383 3322.258, 1809.383 3312.258, 1809.383 3302.258, 1809.383 3292.258, 1809.383 3282.258, 1809.383 3272.258, 1809.383 3262.258, 1809.383 3252.258, 1809.383 3242.258, 1809.383 3232.258, 1809.383 3222.258, 1809.383 3212.258, 1809.383 3202.258, 1809.383 3192.258, 1809.383 3182.258, 1809.383 3172.258, 1809.383 3162.258, 1809.383 3152.258, 1809.383 3142.258, 1809.383 3132.258, 1809.383 3122.258, 1809.383 3112.258, 1809.383 3102.258, 1809.383 3092.258, 1809.383 3082.258, 1809.383 3072.258, 1809.383 3062.258, 1809.383 3052.258, 1809.383 3042.258, 1809.383 3032.258, 1809.383 3022.258, 1809.383 3012.258, 1809.383 3002.258, 1809.383 2992.258, 1809.383 2982.258, 1809.383 2972.258, 1809.383 2962.258, 1809.383 2952.258, 1809.383 2942.258, 1809.383 2932.258, 1809.383 2922.258, 1809.383 2912.258, 1809.383 2902.258, 1809.383 2892.258, 1809.383 2882.258, 1809.383 2872.258, 1809.383 2862.258, 1809.383 2852.258, 1809.383 2842.258, 1809.383 2832.258, 1809.383 2822.258, 1809.383 2812.258, 1809.383 2802.258, 1809.383 2792.258, 1809.383 2782.258, 1809.383 2772.258, 1809.383 2762.258, 1809.383 2752.258, 1809.383 2742.258, 1809.383 2732.258, 1809.383 2722.258, 1809.383 2712.258, 1809.383 2702.258, 1809.383 2692.258, 1809.383 2682.258, 1809.383 2672.258, 1809.383 2662.258, 1809.383 2652.258, 1809.383 2642.258, 1809.383 2632.258, 1809.383 2622.258, 1809.383 2612.258, 1809.383 2602.258, 1809.383 2592.258, 1809.383 2582.258, 1809.383 2572.258, 1809.383 2562.258, 1809.383 2552.258, 1809.383 2542.258, 1809.383 2532.258, 1809.383 2522.258, 1809.383 2512.258, 1809.383 2502.258, 1809.383 2492.258, 1809.383 2482.258, 1809.383 2472.258, 1809.383 2462.258, 1809.383 2452.258, 1809.383 2442.258, 1809.383 2432.258, 1809.383 2422.258, 1809.383 2412.258, 1809.383 2402.258, 1809.383 2392.258, 1809.383 2382.258, 1809.383 2372.258, 1809.383 2362.258, 1809.383 2352.258, 1809.383 2342.258, 1809.383 2332.258, 1809.383 2322.258, 1809.383 2312.258, 1809.383 2302.258, 1809.383 2292.258, 1809.383 2282.258, 1809.383 2272.258, 1809.383 2260.325, 1809.383 2250.325, 1809.383 2240.325, 1809.383 2233.099, 1809.383 2230.783, 1809.383 2228.476, 1809.383 2218.476, 1809.383 2208.476, 1809.383 2198.476, 1809.383 2188.476, 1809.383 2178.476, 1809.383 2168.476, 1809.383 2158.476, 1809.383 2148.476, 1809.383 2138.476, 1809.383 2128.476, 1809.383 2118.476, 1809.383 2108.476, 1809.383 2098.476, 1809.383 2088.476, 1809.383 2078.476, 1809.383 2068.476, 1809.383 2058.476, 1809.383 2048.476, 1809.383 2038.476, 1809.383 2028.476, 1809.383 2018.476, 1809.383 2008.476, 1809.383 1998.476, 1809.383 1988.476, 1809.383 1978.476, 1809.383 1968.476, 1809.383 1958.476, 1809.383 1948.476, 1809.383 1938.476, 1809.383 1928.476, 1809.383 1918.476, 1809.383 1908.476, 1809.383 1898.476, 1809.383 1888.476, 1809.383 1878.476, 1809.383 1868.476, 1809.383 1858.476, 1809.383 1848.476, 1809.383 1838.476, 1809.383 1828.476, 1809.383 1818.476, 1809.383 1808.476, 1809.383 1798.476, 1809.383 1788.476, 1809.383 1778.476, 1809.383 1768.476, 1809.383 1758.476, 1809.383 1748.476, 1809.383 1738.476, 1809.383 1732.189, 1809.383 1728.754, 1809.383 1725.286, 1809.383 1721.794, 1809.383 1711.794, 1809.383 1701.794, 1809.383 1691.794, 1809.383 1681.794, 1809.383 1671.794, 1809.383 1661.794, 1809.383 1651.794, 1809.383 1641.794, 1809.383 1631.794, 1809.383 1621.794, 1809.383 1611.794, 1809.383 1601.794, 1809.383 1591.794, 1809.383 1581.794, 1809.383 1571.794, 1809.383 1561.794, 1809.383 1555.569, 1809.383 1552.224, 1809.383 1548.842, 1809.383 1545.433, 1809.383 1542.007, 1809.383 1538.574, 1809.383 1535.143, 1809.383 1531.724, 1809.383 1528.326, 1809.383 1524.960, 1809.383 1521.634, 1809.383 1511.634, 1809.383 1501.634, 1809.383 1491.634, 1809.383 1481.634, 1809.383 1471.634, 1809.383 1461.634, 1809.383 1451.634, 1809.383 1441.634, 1809.383 1431.634, 1809.383 1421.634, 1809.383 1411.634, 1809.383 1401.634, 1809.383 1391.634, 1809.383 1381.634, 1809.383 1371.634, 1809.383 1361.634, 1809.383 1351.634, 1809.383 1341.634, 1809.383 1331.634, 1809.383 1321.634, 1809.383 1311.634, 1809.383 1301.634, 1809.383 1291.634, 1809.383 1281.634, 1809.383 1271.634, 1809.383 1261.634, 1809.383 1251.634, 1809.383 1241.634, 1809.383 1231.634, 1809.383 1221.634, 1809.383 1211.634, 1809.383 1201.634, 1809.383 1191.634, 1809.383 1181.634, 1809.383 1171.634, 1809.383 1161.634, 1809.383 1151.634, 1809.383 1141.634, 1809.383 1131.634, 1809.383 1121.634, 1809.383 1111.634, 1809.383 1101.634, 1809.383 1091.634, 1809.383 1081.634, 1809.383 1071.634, 1809.383 1061.634, 1809.383 1051.634, 1809.383 1041.634, 1809.383 1031.634, 1809.383 1021.634, 1809.383 1011.634, 1809.383 1001.634, 1809.383 991.634, 1809.383 981.634, 1809.383 971.634, 1809.383 961.634, 1809.383 951.634, 1809.383 941.634, 1809.383 931.634, 1809.383 921.634, 1809.383 911.634, 1809.383 901.634, 1809.383 891.634, 1809.383 881.634, 1809.383 871.634, 1809.383 861.634, 1809.383 851.634, 1809.383 841.634, 1809.383 831.634, 1809.383 821.634, 1809.383 811.634, 1809.383 801.634, 1809.383 791.634, 1809.383 781.634, 1809.383 771.634, 1809.383 761.634, 1809.383 751.634, 1809.383 741.634, 1809.383 731.634, 1809.383 721.634, 1809.383 711.634, 1809.383 701.634, 1809.383 691.634, 1809.383 681.634, 1809.383 671.634, 1809.383 661.634, 1809.383 651.634, 1809.383 641.634, 1809.383 631.634, 1809.383 621.634, 1809.383 611.634, 1809.383 601.634, 1809.383 591.634, 1809.383 581.634, 1809.383 571.634, 1809.383 561.634, 1809.383 551.634, 1809.383 541.634, 1809.383 531.634, 1809.383 521.634, 1809.383 511.634, 1809.383 501.634, 1809.383 491.634, 1809.383 481.634, 1809.383 471.634, 1809.383 461.634, 1809.383 451.634, 1809.383 441.634, 1809.383 431.634, 1809.383 421.634, 1809.383 411.634, 1809.383 401.634, 1809.383 391.634, 1809.383 381.634, 1809.383 371.634, 1809.383 361.634, 1809.383 348.704, 1809.383 338.704, 1809.383 328.704, 1809.383 318.704, 1809.383 308.704, 1809.383 298.704, 1809.383 288.704, 1809.383 278.704, 1809.383 268.704, 1809.383 258.704, 1809.383 248.704, 1809.383 238.704, 1809.383 228.704, 1809.383 218.704, 1809.383 208.704, 1809.383 198.704, 1809.383 188.704, 1809.383 178.704, 1809.383 168.704, 1809.383 158.704, 1809.383 148.704, 1809.383 138.704, 1809.383 128.704, 1809.383 118.704, 1809.383 108.704, 1809.383 98.704, 1809.383 88.704, 1809.383 78.704, 1809.383 68.704, 1809.383 58.704, 1809.383 48.704, 1809.383 38.704, 1809.383 28.704, 1809.383 23.742, 1809.383 " />
            <path fill="none" stroke-width="3.0" stroke-linecap="butt" stroke-opacity="1.0" stroke="rgb(0, 0, 0)" stroke-linejoin="round" d=" M 949.635, 23.682 947.512, 23.682 946.598, 23.683 " />
            <path fill="none" stroke-width="3.0" stroke-linecap="butt" stroke-opacity="1.0" stroke="rgb(0, 0, 0)" stroke-linejoin="round" d=" M 955.268, 23.682 965.268, 23.681 975.268, 23.681 985.268, 23.681 995.268, 23.680 1005.268, 23.680 1015.268, 23.680 1025.268, 23.680 1035.268, 23.679 1045.268, 23.679 1055.268, 23.679 1065.268, 23.678 1075.268, 23.678 1085.268, 23.678 1095.268, 23.677 1105.268, 23.677 1115.268, 23.677 1125.268, 23.677 1135.268, 23.676 1145.268, 23.676 1155.268, 23.676 1165.268, 23.676 1175.268, 23.675 1185.268, 23.675 1195.268, 23.675 1207.023, 23.674 " />
            <path fill="none" stroke-width="3.0" stroke-linecap="butt" stroke-opacity="1.0" stroke="rgb(0, 0, 0)" stroke-linejoin="round" d=" M 1299.700, 23.671 1298.172, 23.672 " />
            <path fill="none" stroke-width="3.0" stroke-linecap="butt" stroke-opacity="1.0" stroke="rgb(0, 0, 0)" stroke-linejoin="round" d=" M 1834.664, 23.654 1824.664, 23.654 1814.664, 23.655 1811.606, 23.655 1801.606, 23.655 1791.606, 23.656 1781.606, 23.656 1771.606, 23.656 1761.606, 23.656 1751.606, 23.657 1741.606, 23.657 1731.606, 23.657 1721.606, 23.658 1711.606, 23.658 1701.606, 23.658 1691.606, 23.659 1681.606, 23.659 1671.606, 23.659 1661.606, 23.660 1651.606, 23.660 1641.606, 23.660 1631.606, 23.661 1621.606, 23.661 1611.606, 23.661 1601.606, 23.661 1591.606, 23.662 1581.606, 23.662 1571.606, 23.662 1561.606, 23.663 1551.606, 23.663 1541.606, 23.663 1531.606, 23.664 1521.606, 23.664 1511.606, 23.664 1501.606, 23.665 1491.606, 23.665 1481.606, 23.665 1471.606, 23.666 1467.374, 23.666 " />
            <path fill="none" stroke-width="3.0" stroke-linecap="butt" stroke-opacity="1.0" stroke="rgb(0, 0, 0)" stroke-linejoin="round" d=" M 1811.606, 23.655 1811.975, 23.655 " />
            <path fill="none" stroke-width="3.0" stroke-linecap="butt" stroke-opacity="1.0" stroke="rgb(0, 0, 0)" stroke-linejoin="round" d=" M 1837.974, 23.654 1847.974, 23.654 1857.974, 23.654 1867.974, 23.653 1876.250, 23.653 " />
            <path fill="none" stroke-width="3.0" stroke-linecap="butt" stroke-opacity="1.0" stroke="rgb(0, 0, 0)" stroke-linejoin="round" d=" M 311.105, 565.660 310.910, 575.658 310.715, 585.656 310.521, 595.654 310.326, 605.652 310.131, 615.650 309.937, 625.648 309.742, 635.646 309.547, 645.644 309.352, 655.642 309.158, 665.641 308.963, 675.639 308.768, 685.637 308.573, 695.635 308.522, 698.291 304.483, 707.439 300.444, 716.588 296.405, 725.735 295.883, 726.918 " />
            <path fill="none" stroke-width="3.0" stroke-linecap="butt" stroke-opacity="1.0" stroke="rgb(0, 0, 0)" stroke-linejoin="round" d=" M 504.082, 23.696 501.704, 33.409 499.326, 43.123 496.947, 52.836 494.569, 62.549 492.191, 72.262 489.813, 81.975 487.435, 91.688 485.056, 101.401 482.569, 111.561 479.393, 121.044 476.218, 130.526 473.043, 140.009 469.867, 149.491 466.692, 158.974 463.517, 168.456 460.341, 177.939 457.166, 187.421 453.991, 196.904 450.816, 206.386 447.640, 215.869 444.465, 225.351 441.290, 234.833 438.114, 244.316 434.939, 253.798 431.764, 263.281 428.589, 272.763 425.413, 282.246 422.238, 291.728 418.809, 301.969 415.028, 311.226 411.246, 320.484 407.465, 329.741 403.684, 338.999 399.903, 348.256 396.122, 357.514 392.340, 366.771 388.559, 376.029 384.778, 385.287 380.997, 394.544 377.215, 403.802 373.434, 413.059 369.653, 422.317 365.872, 431.574 362.090, 440.832 358.309, 450.089 354.528, 459.347 350.747, 468.605 346.966, 477.862 343.184, 487.120 339.403, 496.377 335.622, 505.635 331.841, 514.892 328.059, 524.150 324.278, 533.408 320.497, 542.665 316.716, 551.923 312.935, 561.180 311.105, 565.660 " />
            <path fill="none" stroke-width="3.0" stroke-linecap="butt" stroke-opacity="1.0" stroke="rgb(0, 0, 0)" stroke-linejoin="round" d=" M 3390.249, 1538.380 3386.806, 1528.991 3383.364, 1519.602 3379.921, 1510.213 3376.479, 1500.825 3373.036, 1491.436 3369.594, 1482.047 3366.151, 1472.658 3362.709, 1463.269 3359.267, 1453.881 3355.824, 1444.492 3352.382, 1435.103 3348.939, 1425.714 3345.497, 1416.325 3342.054, 1406.937 3338.612, 1397.548 3335.169, 1388.159 3331.727, 1378.770 3328.284, 1369.381 3324.842, 1359.993 3321.400, 1350.604 3317.957, 1341.215 3314.515, 1331.826 3311.072, 1322.437 3307.630, 1313.049 3304.187, 1303.660 3300.745, 1294.271 3297.302, 1284.882 3293.860, 1275.493 3290.417, 1266.105 3286.850, 1256.373 3282.107, 1247.569 3277.365, 1238.765 3272.623, 1229.961 3267.881, 1221.157 3263.139, 1212.353 3258.397, 1203.549 3253.655, 1194.745 3248.912, 1185.941 3244.170, 1177.137 3239.428, 1168.333 3234.686, 1159.529 3229.944, 1150.724 3225.202, 1141.920 3220.459, 1133.116 3215.717, 1124.312 3210.975, 1115.508 3206.233, 1106.704 3201.491, 1097.900 3196.749, 1089.096 3192.007, 1080.292 3186.884, 1070.781 " />
            <path fill="none" stroke-width="3.0" stroke-linecap="butt" stroke-opacity="1.0" stroke="rgb(0, 0, 0)" stroke-linejoin="round" d=" M 3273.828, 1809.382 3274.222, 1809.382 3274.644, 1809.382 3275.091, 1809.382 3275.562, 1809.382 3276.055, 1809.382 3276.569, 1809.382 3277.103, 1809.382 3287.103, 1809.382 3297.103, 1809.382 3307.103, 1809.382 3317.103, 1809.382 3327.103, 1809.382 3337.103, 1809.382 3347.103, 1809.382 3357.103, 1809.382 3367.103, 1809.382 3377.103, 1809.382 3387.103, 1809.382 3397.103, 1809.382 3402.258, 1809.382 3401.815, 1799.392 3401.373, 1789.402 3400.930, 1779.412 3400.487, 1769.422 3400.045, 1759.431 3399.602, 1749.441 3399.159, 1739.451 3398.717, 1729.461 3398.274, 1719.471 3397.831, 1709.481 3397.388, 1699.490 3396.946, 1689.500 3396.503, 1679.510 3396.060, 1669.520 3395.617, 1659.530 3395.175, 1649.539 3394.732, 1639.549 3394.289, 1629.559 3393.846, 1619.569 3393.404, 1609.579 3392.961, 1599.588 3392.518, 1589.598 3392.076, 1579.608 3391.633, 1569.618 3391.190, 1559.628 3390.748, 1549.637 3390.249, 1538.380 " />
            <path fill="none" stroke-width="3.0" stroke-linecap="butt" stroke-opacity="1.0" stroke="rgb(0, 0, 0)" stroke-linejoin="round" d=" M 169.480, 1331.763 167.442, 1341.553 165.403, 1351.343 163.365, 1361.133 161.327, 1370.923 159.289, 1380.713 157.251, 1390.503 155.213, 1400.293 153.174, 1410.083 151.136, 1419.873 149.098, 1429.664 147.060, 1439.454 145.022, 1449.244 142.984, 1459.034 140.946, 1468.824 138.907, 1478.614 136.869, 1488.404 134.831, 1498.194 132.793, 1507.984 130.755, 1517.774 129.298, 1524.773 125.820, 1534.149 122.343, 1543.525 118.866, 1552.901 115.388, 1562.277 111.911, 1571.653 108.434, 1581.029 104.956, 1590.405 101.479, 1599.781 98.002, 1609.157 94.524, 1618.533 91.047, 1627.909 87.570, 1637.285 84.092, 1646.661 80.615, 1656.036 77.137, 1665.412 73.660, 1674.788 70.183, 1684.164 66.705, 1693.540 63.228, 1702.916 59.751, 1712.292 56.273, 1721.668 52.796, 1731.044 49.319, 1740.420 45.841, 1749.796 42.364, 1759.172 38.887, 1768.548 35.409, 1777.924 31.932, 1787.299 28.455, 1796.675 24.977, 1806.051 23.742, 1809.383 " />
            <path fill="none" stroke-width="3.0" stroke-linecap="butt" stroke-opacity="1.0" stroke="rgb(0, 0, 0)" stroke-linejoin="round" d=" M 733.787, 23.689 730.523, 23.689 720.523, 23.690 710.523, 23.690 700.523, 23.690 690.523, 23.691 680.523, 23.691 670.523, 23.691 660.523, 23.692 650.523, 23.692 640.523, 23.692 630.523, 23.693 620.523, 23.693 610.523, 23.693 600.523, 23.693 590.523, 23.694 580.523, 23.694 570.523, 23.694 560.523, 23.695 550.523, 23.695 540.523, 23.695 530.523, 23.696 520.523, 23.696 510.523, 23.696 504.082, 23.696 " />
            <path fill="none" stroke-width="3.0" stroke-linecap="butt" stroke-opacity="1.0" stroke="rgb(0, 0, 0)" stroke-linejoin="round" d=" M 949.454, 23.682 948.723, 23.683 938.723, 23.686 928.723, 23.690 918.723, 23.693 908.723, 23.697 898.723, 23.701 888.723, 23.704 878.723, 23.708 868.723, 23.712 858.723, 23.715 848.723, 23.719 838.723, 23.722 828.723, 23.726 818.723, 23.730 808.723, 23.733 798.723, 23.737 788.723, 23.741 778.723, 23.744 768.723, 23.748 758.723, 23.751 748.723, 23.755 738.102, 23.759 736.712, 23.770 735.303, 23.770 735.097, 23.759 733.787, 23.689 " />
            <path fill="none" stroke-width="3.0" stroke-linecap="butt" stroke-opacity="1.0" stroke="rgb(0, 0, 0)" stroke-linejoin="round" d=" M 1916.778, 510.133 1914.748, 508.429 1912.805, 506.627 1910.955, 504.729 1909.201, 502.743 1907.549, 500.671 " />
            <path fill="none" stroke-width="3.0" stroke-linecap="butt" stroke-opacity="1.0" stroke="rgb(0, 0, 0)" stroke-linejoin="round" d=" M 1925.669, 515.875 1923.342, 514.608 1921.080, 513.226 1918.891, 511.733 1916.778, 510.133 " />
            <path fill="none" stroke-width="3.0" stroke-linecap="butt" stroke-opacity="1.0" stroke="rgb(0, 0, 0)" stroke-linejoin="round" d=" M 1906.002, 498.519 1904.564, 496.292 1903.239, 493.997 1902.030, 491.639 1900.940, 489.224 1899.972, 486.757 1899.128, 484.244 1898.410, 481.693 1897.820, 479.109 1897.360, 476.499 " />
            <path fill="none" stroke-width="3.0" stroke-linecap="butt" stroke-opacity="1.0" stroke="rgb(0, 0, 0)" stroke-linejoin="round" d=" M 1935.522, 519.742 1932.989, 518.961 1930.499, 518.055 1928.057, 517.025 " />
            <path fill="none" stroke-width="3.0" stroke-linecap="butt" stroke-opacity="1.0" stroke="rgb(0, 0, 0)" stroke-linejoin="round" d=" M 1953.889, 521.580 1951.242, 521.712 1948.592, 521.712 1945.945, 521.580 1943.308, 521.316 1940.688, 520.921 1938.090, 520.396 " />
            <path fill="none" stroke-width="3.0" stroke-linecap="butt" stroke-opacity="1.0" stroke="rgb(0, 0, 0)" stroke-linejoin="round" d=" M 1897.360, 476.499 1897.030, 473.870 1896.832, 471.227 1896.766, 468.578 1896.832, 465.928 1897.030, 463.286 " />
            <path fill="none" stroke-width="3.0" stroke-linecap="butt" stroke-opacity="1.0" stroke="rgb(0, 0, 0)" stroke-linejoin="round" d=" M 1985.086, 508.429 1983.056, 510.133 1980.943, 511.733 1978.754, 513.226 1976.492, 514.608 1974.165, 515.875 1971.777, 517.025 1969.335, 518.055 1966.845, 518.961 1964.312, 519.742 1961.744, 520.396 1959.147, 520.921 1956.526, 521.316 1953.889, 521.580 " />
            <path fill="none" stroke-width="3.0" stroke-linecap="butt" stroke-opacity="1.0" stroke="rgb(0, 0, 0)" stroke-linejoin="round" d=" M 1897.030, 463.286 1897.360, 460.656 " />
            <path fill="none" stroke-width="3.0" stroke-linecap="butt" stroke-opacity="1.0" stroke="rgb(0, 0, 0)" stroke-linejoin="round" d=" M 1897.360, 460.656 1897.820, 458.046 " />
            <path fill="none" stroke-width="3.0" stroke-linecap="butt" stroke-opacity="1.0" stroke="rgb(0, 0, 0)" stroke-linejoin="round" d=" M 1897.820, 458.046 1898.410, 455.462 1899.128, 452.912 1899.972, 450.400 1900.940, 447.932 1902.030, 445.517 1903.239, 443.158 " />
            <path fill="none" stroke-width="3.0" stroke-linecap="butt" stroke-opacity="1.0" stroke="rgb(0, 0, 0)" stroke-linejoin="round" d=" M 2339.721, 896.810 2337.202, 894.228 2334.815, 891.524 2332.566, 888.704 2330.461, 885.775 2328.504, 882.745 2326.700, 879.621 2325.054, 876.411 2323.571, 873.123 2322.253, 869.765 2321.104, 866.346 2320.127, 862.873 2319.324, 859.357 2318.698, 855.804 2318.250, 852.226 2317.980, 848.628 2317.890, 845.022 2317.980, 841.416 2318.250, 837.819 2318.698, 834.240 2319.324, 830.687 2320.127, 827.171 2321.104, 823.698 2322.253, 820.279 2323.571, 816.921 2325.054, 813.634 2326.700, 810.423 2328.504, 807.300 2330.461, 804.269 2332.566, 801.341 2334.815, 798.521 2337.202, 795.816 2339.721, 793.234 2342.365, 790.780 2345.128, 788.461 2348.004, 786.284 2350.984, 784.251 2354.062, 782.370 2357.230, 780.645 2360.480, 779.080 2363.804, 777.679 2367.194, 776.445 2370.640, 775.382 2374.136, 774.492 2377.672, 773.777 2381.239, 773.239 2384.828, 772.880 2388.430, 772.701 2392.038, 772.701 2395.640, 772.880 2399.229, 773.239 2402.796, 773.777 2406.332, 774.492 2409.828, 775.382 2413.275, 776.445 2416.664, 777.679 2419.988, 779.080 2423.238, 780.645 2426.406, 782.370 2429.484, 784.251 2432.464, 786.284 2435.340, 788.461 2438.103, 790.780 2440.747, 793.234 2443.266, 795.816 2445.653, 798.521 2447.902, 801.341 2450.007, 804.269 2451.964, 807.300 2453.768, 810.423 2455.414, 813.634 2456.897, 816.921 2458.215, 820.279 2459.364, 823.698 2460.341, 827.171 2461.144, 830.687 2461.770, 834.240 2462.219, 837.819 2462.488, 841.416 2462.578, 845.022 2462.488, 848.628 2462.219, 852.226 2461.770, 855.804 2461.144, 859.357 2460.341, 862.873 2459.364, 866.346 2458.215, 869.765 2456.897, 873.123 2455.414, 876.411 2453.768, 879.621 2451.964, 882.745 2450.007, 885.775 2447.902, 888.704 2445.653, 891.524 2443.266, 894.228 2440.747, 896.810 2438.103, 899.265 2435.340, 901.583 2432.464, 903.761 2429.484, 905.793 2426.406, 907.674 2423.238, 909.399 2419.988, 910.964 2416.664, 912.365 2413.275, 913.599 2409.828, 914.663 2406.332, 915.552 2402.796, 916.267 2399.229, 916.805 2395.640, 917.164 2392.038, 917.343 2388.430, 917.343 2384.828, 917.164 2381.239, 916.805 2377.672, 916.267 2374.136, 915.552 2370.640, 914.663 2367.194, 913.599 2363.804, 912.365 2360.480, 910.964 2357.230, 909.399 2354.062, 907.674 2350.984, 905.793 2348.004, 903.761 2345.128, 901.583 2342.365, 899.265 2339.721, 896.810 " />
            <path fill="none" stroke-width="3.0" stroke-linecap="butt" stroke-opacity="1.0" stroke="rgb(0, 0, 0)" stroke-linejoin="round" d=" M 1903.239, 443.158 1904.564, 440.863 " />
            <path fill="none" stroke-width="3.0" stroke-linecap="butt" stroke-opacity="1.0" stroke="rgb(0, 0, 0)" stroke-linejoin="round" d=" M 2233.099, 1809.383 2243.099, 1809.383 2253.099, 1809.383 2263.099, 1809.383 2273.099, 1809.383 2283.099, 1809.383 2293.099, 1809.383 2303.099, 1809.383 2313.099, 1809.383 2323.099, 1809.383 2333.099, 1809.383 2343.099, 1809.383 2353.099, 1809.383 2363.099, 1809.383 2373.099, 1809.383 2383.099, 1809.383 2393.099, 1809.383 2403.099, 1809.383 2413.099, 1809.383 2423.099, 1809.383 2433.099, 1809.383 2443.099, 1809.383 2453.099, 1809.383 2463.099, 1809.383 2473.099, 1809.383 2483.099, 1809.383 2493.099, 1809.383 2503.099, 1809.383 2513.099, 1809.383 2523.099, 1809.383 2533.099, 1809.383 2543.099, 1809.383 2553.099, 1809.383 2563.099, 1809.383 2573.099, 1809.383 2583.099, 1809.383 2593.099, 1809.383 2603.099, 1809.383 2613.099, 1809.383 2623.099, 1809.383 2633.099, 1809.383 2643.099, 1809.383 2653.099, 1809.383 2663.099, 1809.383 2673.099, 1809.383 2683.099, 1809.383 2693.099, 1809.383 2703.099, 1809.383 2713.099, 1809.383 2723.099, 1809.383 2733.099, 1809.383 2743.099, 1809.383 2753.099, 1809.383 2763.099, 1809.383 2773.099, 1809.383 2783.099, 1809.383 2793.099, 1809.383 2803.099, 1809.383 2813.099, 1809.383 2823.099, 1809.383 2833.099, 1809.383 2843.099, 1809.383 2853.099, 1809.383 2863.099, 1809.383 2873.099, 1809.383 2883.099, 1809.383 2893.099, 1809.383 2903.099, 1809.383 2913.099, 1809.383 2923.099, 1809.383 2933.099, 1809.383 2943.099, 1809.383 2953.099, 1809.383 2963.099, 1809.383 2973.099, 1809.383 2983.099, 1809.383 2993.099, 1809.383 3003.099, 1809.383 3013.099, 1809.383 3023.099, 1809.383 3033.099, 1809.383 3043.099, 1809.383 3053.099, 1809.383 3063.099, 1809.383 3073.099, 1809.383 3083.099, 1809.383 3093.099, 1809.383 3103.099, 1809.383 3113.099, 1809.383 3123.099, 1809.383 3133.099, 1809.383 3143.099, 1809.383 3153.099, 1809.383 3163.099, 1809.383 3173.099, 1809.383 3183.099, 1809.383 3193.099, 1809.383 3203.099, 1809.383 3216.653, 1809.383 3226.653, 1809.383 3236.653, 1809.382 3246.653, 1809.382 3256.653, 1809.382 3266.653, 1809.382 3273.828, 1809.382 " />
            <path fill="none" stroke-width="3.0" stroke-linecap="butt" stroke-opacity="1.0" stroke="rgb(0, 0, 0)" stroke-linejoin="round" d=" M 1810.905, 23.655 1800.905, 23.656 1790.905, 23.656 1780.905, 23.656 1770.905, 23.657 1760.905, 23.657 1750.905, 23.657 1740.905, 23.657 1730.905, 23.658 1720.905, 23.658 1710.905, 23.658 1700.905, 23.659 1690.905, 23.659 1680.905, 23.659 1670.905, 23.660 1660.905, 23.660 1650.905, 23.660 1640.905, 23.661 1630.905, 23.661 1620.905, 23.661 1610.905, 23.661 1600.905, 23.662 1590.905, 23.662 1580.905, 23.662 1570.905, 23.663 1560.905, 23.663 1550.905, 23.663 1540.905, 23.664 1530.905, 23.664 1520.905, 23.664 1510.905, 23.665 1500.905, 23.665 1490.905, 23.665 1480.905, 23.665 1470.905, 23.666 1467.374, 23.666 1457.374, 23.666 1447.374, 23.667 1437.374, 23.667 1427.374, 23.667 1417.374, 23.667 1407.374, 23.668 1397.373, 23.668 1387.373, 23.668 1377.373, 23.669 1367.373, 23.669 1357.373, 23.669 1347.373, 23.670 1337.373, 23.670 1327.373, 23.670 1317.373, 23.670 1307.373, 23.671 1297.373, 23.671 1287.373, 23.671 1277.373, 23.672 1267.373, 23.672 1257.373, 23.672 1247.373, 23.673 1237.373, 23.673 1227.373, 23.673 1217.373, 23.673 1207.373, 23.674 1197.374, 23.674 1187.373, 23.674 1177.374, 23.675 1167.373, 23.675 1157.374, 23.675 1147.373, 23.676 1137.374, 23.676 1127.373, 23.676 1117.374, 23.677 1107.373, 23.677 1097.374, 23.677 1087.373, 23.677 1077.374, 23.678 1067.373, 23.678 1057.374, 23.678 1047.373, 23.679 1037.373, 23.679 1027.373, 23.679 1017.373, 23.680 1007.373, 23.680 997.373, 23.680 987.373, 23.681 977.373, 23.681 967.373, 23.681 957.373, 23.681 951.398, 23.682 949.635, 23.682 949.454, 23.682 " />
            <path fill="none" stroke-width="3.0" stroke-linecap="butt" stroke-opacity="1.0" stroke="rgb(0, 0, 0)" stroke-linejoin="round" d=" M 1904.564, 440.863 1906.002, 438.637 1907.549, 436.485 1909.201, 434.413 1910.955, 432.427 1912.805, 430.529 1914.748, 428.726 " />
            <path fill="none" stroke-width="3.0" stroke-linecap="butt" stroke-opacity="1.0" stroke="rgb(0, 0, 0)" stroke-linejoin="round" d=" M 1297.240, 23.672 1294.771, 23.672 1284.771, 23.672 1274.771, 23.672 1264.771, 23.673 1254.771, 23.673 1244.771, 23.673 1234.250, 23.673 1224.250, 23.674 1214.250, 23.674 1207.023, 23.674 1197.023, 23.675 1187.023, 23.675 1177.023, 23.675 1167.023, 23.675 1157.023, 23.676 1147.023, 23.676 1137.023, 23.676 1127.023, 23.677 1117.023, 23.677 1107.023, 23.677 1097.023, 23.677 1087.023, 23.678 1077.023, 23.678 1067.023, 23.678 1057.023, 23.679 1047.023, 23.679 1037.023, 23.679 1027.023, 23.680 1017.023, 23.680 1007.023, 23.680 997.023, 23.680 987.023, 23.681 977.023, 23.681 967.023, 23.681 955.268, 23.682 953.338, 23.682 951.398, 23.682 " />
            <path fill="none" stroke-width="3.0" stroke-linecap="butt" stroke-opacity="1.0" stroke="rgb(0, 0, 0)" stroke-linejoin="round" d=" M 1299.700, 23.671 1298.172, 23.672 1297.984, 23.672 1297.240, 23.672 " />
            <path fill="none" stroke-width="3.0" stroke-linecap="butt" stroke-opacity="1.0" stroke="rgb(0, 0, 0)" stroke-linejoin="round" d=" M 1725.778, 23.658 1715.778, 23.658 1705.778, 23.659 1695.778, 23.659 1685.778, 23.659 1675.778, 23.660 1665.778, 23.660 1655.778, 23.660 1645.778, 23.660 1635.778, 23.661 1625.778, 23.661 1615.778, 23.661 1605.778, 23.662 1595.778, 23.662 1585.778, 23.662 1575.778, 23.663 1565.778, 23.663 1555.778, 23.663 1545.778, 23.664 1535.778, 23.664 1525.778, 23.664 1515.778, 23.664 1505.778, 23.665 1495.778, 23.665 1485.778, 23.665 1475.778, 23.666 1465.778, 23.666 1455.778, 23.666 1445.778, 23.667 1435.778, 23.667 1425.778, 23.667 1415.778, 23.667 1405.778, 23.668 1395.778, 23.668 1385.778, 23.668 1375.778, 23.669 1368.826, 23.669 1358.826, 23.669 1348.826, 23.670 1338.826, 23.670 1328.826, 23.670 1318.826, 23.671 1308.826, 23.671 1302.145, 23.671 1299.700, 23.671 " />
            <path fill="none" stroke-width="3.0" stroke-linecap="butt" stroke-opacity="1.0" stroke="rgb(0, 0, 0)" stroke-linejoin="round" d=" M 2002.014, 479.109 2001.424, 481.693 2000.706, 484.244 1999.862, 486.757 1998.894, 489.224 1997.804, 491.639 1996.595, 493.997 1995.270, 496.292 1993.832, 498.519 1992.285, 500.671 1990.633, 502.743 1988.879, 504.729 " />
            <path fill="none" stroke-width="3.0" stroke-linecap="butt" stroke-opacity="1.0" stroke="rgb(0, 0, 0)" stroke-linejoin="round" d=" M 2003.001, 471.227 2002.803, 473.870 2002.474, 476.499 2002.014, 479.109 " />
            <path fill="none" stroke-width="3.0" stroke-linecap="butt" stroke-opacity="1.0" stroke="rgb(0, 0, 0)" stroke-linejoin="round" d=" M 2002.014, 458.046 2002.474, 460.656 2002.803, 463.286 2003.001, 465.928 2003.068, 468.578 2003.001, 471.227 " />
            <path fill="none" stroke-width="3.0" stroke-linecap="butt" stroke-opacity="1.0" stroke="rgb(0, 0, 0)" stroke-linejoin="round" d=" M 1998.894, 447.932 1999.862, 450.400 2000.706, 452.912 2001.424, 455.462 2002.014, 458.046 " />
            <path fill="none" stroke-width="3.0" stroke-linecap="butt" stroke-opacity="1.0" stroke="rgb(0, 0, 0)" stroke-linejoin="round" d=" M 1810.791, 23.655 1810.682, 23.655 1810.574, 23.656 1810.470, 23.656 1808.989, 23.656 1808.663, 23.656 1807.440, 23.656 1807.186, 23.656 1805.877, 23.656 " />
            <path fill="none" stroke-width="3.0" stroke-linecap="butt" stroke-opacity="1.0" stroke="rgb(0, 0, 0)" stroke-linejoin="round" d=" M 1914.748, 428.726 1916.778, 427.023 " />
            <path fill="none" stroke-width="3.0" stroke-linecap="butt" stroke-opacity="1.0" stroke="rgb(0, 0, 0)" stroke-linejoin="round" d=" M 1810.823, 23.655 1805.417, 23.656 1795.417, 23.656 1785.417, 23.656 1775.417, 23.656 1765.417, 23.657 1755.417, 23.657 1745.417, 23.657 1735.417, 23.658 1725.778, 23.658 " />
            <path fill="none" stroke-width="3.0" stroke-linecap="butt" stroke-opacity="1.0" stroke="rgb(0, 0, 0)" stroke-linejoin="round" d=" M 1916.778, 427.023 1918.891, 425.423 " />
            <path fill="none" stroke-width="3.0" stroke-linecap="butt" stroke-opacity="1.0" stroke="rgb(0, 0, 0)" stroke-linejoin="round" d=" M 1827.295, 23.655 1825.707, 23.655 1824.135, 23.655 1822.219, 23.655 1820.657, 23.655 1818.761, 23.655 1817.214, 23.655 1815.344, 23.655 1813.816, 23.655 1811.975, 23.655 " />
            <path fill="none" stroke-width="3.0" stroke-linecap="butt" stroke-opacity="1.0" stroke="rgb(0, 0, 0)" stroke-linejoin="round" d=" M 1918.891, 425.423 1921.080, 423.930 " />
            <path fill="none" stroke-width="3.0" stroke-linecap="butt" stroke-opacity="1.0" stroke="rgb(0, 0, 0)" stroke-linejoin="round" d=" M 1921.080, 423.930 1923.342, 422.548 1925.669, 421.281 1928.057, 420.131 " />
            <path fill="none" stroke-width="3.0" stroke-linecap="butt" stroke-opacity="1.0" stroke="rgb(0, 0, 0)" stroke-linejoin="round" d=" M 1828.885, 23.655 1828.437, 23.655 1827.641, 23.655 1827.295, 23.655 " />
            <path fill="none" stroke-width="3.0" stroke-linecap="butt" stroke-opacity="1.0" stroke="rgb(0, 0, 0)" stroke-linejoin="round" d=" M 1928.057, 420.131 1930.499, 419.102 1932.989, 418.194 1935.522, 417.414 1938.090, 416.760 1940.688, 416.234 " />
            <path fill="none" stroke-width="3.0" stroke-linecap="butt" stroke-opacity="1.0" stroke="rgb(0, 0, 0)" stroke-linejoin="round" d=" M 1832.745, 23.655 1831.917, 23.655 1831.165, 23.655 1830.408, 23.655 1829.219, 23.655 1828.885, 23.655 " />
            <path fill="none" stroke-width="3.0" stroke-linecap="butt" stroke-opacity="1.0" stroke="rgb(0, 0, 0)" stroke-linejoin="round" d=" M 2047.023, 23.648 2037.023, 23.648 2027.023, 23.648 2017.023, 23.649 2007.023, 23.649 1997.023, 23.649 1987.023, 23.650 1977.023, 23.650 1967.023, 23.650 1957.023, 23.651 1947.023, 23.651 1937.023, 23.651 1927.023, 23.651 1917.023, 23.652 1907.023, 23.652 1897.023, 23.652 1887.023, 23.653 1877.023, 23.653 1867.023, 23.653 1857.023, 23.653 1847.023, 23.654 1837.023, 23.654 1834.698, 23.654 1834.664, 23.654 1834.632, 23.654 1833.249, 23.655 " />
            <path fill="none" stroke-width="3.0" stroke-linecap="butt" stroke-opacity="1.0" stroke="rgb(0, 0, 0)" stroke-linejoin="round" d=" M 3186.884, 1070.781 3182.601, 1061.745 3178.317, 1052.709 3174.034, 1043.673 3169.750, 1034.637 3165.467, 1025.600 3161.184, 1016.564 3156.900, 1007.528 3152.617, 998.492 3148.333, 989.456 3144.050, 980.420 3139.767, 971.383 3135.483, 962.347 3131.200, 953.311 3126.917, 944.275 3122.633, 935.239 3118.350, 926.202 3114.066, 917.166 3110.357, 909.342 3106.275, 900.213 3102.192, 891.084 3098.110, 881.956 3094.027, 872.827 3089.944, 863.698 3085.862, 854.570 3081.779, 845.441 3077.697, 836.312 3073.614, 827.184 3069.531, 818.055 3065.449, 808.927 3061.366, 799.798 3057.283, 790.669 3053.201, 781.541 3049.118, 772.412 3045.036, 763.283 3040.953, 754.155 3036.870, 745.026 3032.788, 735.897 3028.705, 726.769 3024.623, 717.640 3020.540, 708.511 3016.457, 699.383 3012.375, 690.254 3008.292, 681.125 3004.209, 671.997 3000.127, 662.868 2996.044, 653.740 2991.962, 644.611 2987.879, 635.482 2983.796, 626.354 2979.714, 617.225 2975.631, 608.096 2971.549, 598.968 2967.466, 589.839 2963.383, 580.710 2959.301, 571.582 2955.218, 562.453 2951.135, 553.324 2947.053, 544.196 2942.970, 535.067 2938.888, 525.938 2934.805, 516.810 2930.722, 507.681 2926.640, 498.552 2922.557, 489.424 2918.475, 480.295 2914.392, 471.167 2910.309, 462.038 2906.227, 452.909 2902.144, 443.781 2898.061, 434.652 2893.979, 425.523 2889.896, 416.395 2885.813, 407.266 2881.731, 398.137 2877.648, 389.009 2873.566, 379.880 2869.483, 370.751 2865.400, 361.623 2861.318, 352.494 2857.235, 343.365 2853.153, 334.237 2849.070, 325.108 2844.987, 315.979 2840.905, 306.851 2836.822, 297.722 2830.320, 283.183 " />
            <path fill="none" stroke-width="3.0" stroke-linecap="butt" stroke-opacity="1.0" stroke="rgb(0, 0, 0)" stroke-linejoin="round" d=" M 1993.832, 438.637 1995.270, 440.863 1996.595, 443.158 1997.804, 445.517 1998.894, 447.932 " />
            <path fill="none" stroke-width="3.0" stroke-linecap="butt" stroke-opacity="1.0" stroke="rgb(0, 0, 0)" stroke-linejoin="round" d=" M 2091.373, 23.646 2081.373, 23.647 2071.373, 23.647 2061.373, 23.647 2051.373, 23.648 2047.023, 23.648 2041.108, 23.648 2038.776, 23.648 2030.573, 23.648 2020.573, 23.649 2010.573, 23.649 2000.573, 23.649 1990.573, 23.650 1980.573, 23.650 1970.573, 23.650 1960.573, 23.650 1950.573, 23.651 1940.573, 23.651 1930.573, 23.651 1920.573, 23.652 1910.573, 23.652 1900.573, 23.652 1890.573, 23.653 1880.573, 23.653 1876.250, 23.653 1866.250, 23.653 1856.250, 23.654 1846.250, 23.654 1841.759, 23.654 1840.188, 23.654 1838.232, 23.654 1836.276, 23.654 1835.428, 23.654 1835.069, 23.654 1834.965, 23.654 1834.698, 23.654 " />
            <path fill="none" stroke-width="3.0" stroke-linecap="butt" stroke-opacity="1.0" stroke="rgb(0, 0, 0)" stroke-linejoin="round" d=" M 2444.345, 23.636 2443.945, 23.636 2442.829, 23.636 2441.719, 23.636 2440.620, 23.636 2439.535, 23.636 2439.306, 23.636 " />
            <path fill="none" stroke-width="3.0" stroke-linecap="butt" stroke-opacity="1.0" stroke="rgb(0, 0, 0)" stroke-linejoin="round" d=" M 1978.754, 423.930 1980.943, 425.423 1983.056, 427.023 1985.086, 428.726 " />
            <path fill="none" stroke-width="3.0" stroke-linecap="butt" stroke-opacity="1.0" stroke="rgb(0, 0, 0)" stroke-linejoin="round" d=" M 1976.492, 422.548 1978.754, 423.930 " />
            <path fill="none" stroke-width="3.0" stroke-linecap="butt" stroke-opacity="1.0" stroke="rgb(0, 0, 0)" stroke-linejoin="round" d=" M 1974.165, 421.281 1976.492, 422.548 " />
            <path fill="none" stroke-width="3.0" stroke-linecap="butt" stroke-opacity="1.0" stroke="rgb(0, 0, 0)" stroke-linejoin="round" d=" M 1953.889, 415.575 1956.526, 415.839 1959.147, 416.234 1961.744, 416.760 1964.312, 417.414 1966.845, 418.194 1969.335, 419.102 1971.777, 420.131 1974.165, 421.281 " />
            <path fill="none" stroke-width="3.0" stroke-linecap="butt" stroke-opacity="1.0" stroke="rgb(0, 0, 0)" stroke-linejoin="round" d=" M 2438.832, 23.636 2438.831, 23.636 2438.467, 23.637 2437.420, 23.637 2436.397, 23.637 2435.402, 23.637 2434.438, 23.637 2433.508, 23.637 2432.615, 23.637 2431.762, 23.637 2421.762, 23.637 2416.502, 23.637 2415.839, 23.637 " />
            <path fill="none" stroke-width="3.0" stroke-linecap="butt" stroke-opacity="1.0" stroke="rgb(0, 0, 0)" stroke-linejoin="round" d=" M 2703.191, 23.628 2693.191, 23.628 2683.191, 23.629 2673.191, 23.629 2663.191, 23.629 2653.191, 23.630 2643.191, 23.630 2633.191, 23.630 2623.191, 23.631 2613.191, 23.631 2603.191, 23.631 2593.191, 23.631 2583.191, 23.632 2573.191, 23.632 2563.191, 23.632 2553.191, 23.633 2543.191, 23.633 2533.191, 23.633 2523.191, 23.634 2513.191, 23.634 2503.191, 23.634 2493.191, 23.635 2483.191, 23.635 2473.191, 23.635 2463.191, 23.635 2452.726, 23.636 2452.657, 23.636 2452.379, 23.636 2451.672, 23.636 2451.398, 23.636 2451.292, 23.636 2451.219, 23.636 2450.980, 23.636 2450.601, 23.636 2450.543, 23.636 2450.102, 23.636 " />
            <path fill="none" stroke-width="3.0" stroke-linecap="butt" stroke-opacity="1.0" stroke="rgb(0, 0, 0)" stroke-linejoin="round" d=" M 1992.285, 436.485 1993.832, 438.637 " />
            <path fill="none" stroke-width="3.0" stroke-linecap="butt" stroke-opacity="1.0" stroke="rgb(0, 0, 0)" stroke-linejoin="round" d=" M 2449.642, 23.636 2449.513, 23.636 2448.412, 23.636 2447.302, 23.636 2447.089, 23.636 2446.185, 23.636 2445.207, 23.636 2445.100, 23.636 2445.070, 23.636 2445.065, 23.636 2444.990, 23.636 2444.345, 23.636 " />
            <path fill="none" stroke-width="3.0" stroke-linecap="butt" stroke-opacity="1.0" stroke="rgb(0, 0, 0)" stroke-linejoin="round" d=" M 1985.086, 428.726 1987.029, 430.529 1988.879, 432.427 1990.633, 434.413 1992.285, 436.485 " />
            <path fill="none" stroke-width="3.0" stroke-linecap="butt" stroke-opacity="1.0" stroke="rgb(0, 0, 0)" stroke-linejoin="round" d=" M 2244.686, 23.642 2234.686, 23.642 2224.686, 23.643 2214.686, 23.643 2204.686, 23.643 2194.686, 23.644 2184.686, 23.644 2174.686, 23.644 2164.686, 23.644 2154.686, 23.645 2144.686, 23.645 2134.686, 23.645 2124.686, 23.646 2114.686, 23.646 2104.686, 23.646 2099.892, 23.646 2098.118, 23.646 2097.860, 23.646 2096.374, 23.646 2094.666, 23.646 2093.412, 23.646 2093.159, 23.646 2093.086, 23.646 2092.997, 23.646 2092.899, 23.646 2091.373, 23.646 " />
            <path fill="none" stroke-width="3.0" stroke-linecap="butt" stroke-opacity="1.0" stroke="rgb(0, 0, 0)" stroke-linejoin="round" d=" M 1951.242, 415.444 1953.889, 415.575 " />
            <path fill="none" stroke-width="3.0" stroke-linecap="butt" stroke-opacity="1.0" stroke="rgb(0, 0, 0)" stroke-linejoin="round" d=" M 1940.688, 416.234 1943.308, 415.839 1945.945, 415.575 1948.592, 415.444 1951.242, 415.444 " />
            <path fill="none" stroke-width="3.0" stroke-linecap="butt" stroke-opacity="1.0" stroke="rgb(0, 0, 0)" stroke-linejoin="round" d=" M 2703.191, 23.628 2693.191, 23.628 2683.191, 23.629 2673.191, 23.629 2663.191, 23.629 2653.191, 23.630 2643.191, 23.630 2633.191, 23.630 2623.191, 23.630 2613.191, 23.631 2603.191, 23.631 2593.191, 23.631 2583.191, 23.632 2573.191, 23.632 2563.191, 23.632 2553.191, 23.632 2543.191, 23.633 2533.191, 23.633 2523.191, 23.633 2513.191, 23.634 2503.191, 23.634 2493.191, 23.634 2483.191, 23.635 2473.191, 23.635 2463.191, 23.635 2453.191, 23.635 2443.191, 23.636 2439.535, 23.636 " />
            <path fill="none" stroke-width="3.0" stroke-linecap="butt" stroke-opacity="1.0" stroke="rgb(0, 0, 0)" stroke-linejoin="round" d=" M 2703.191, 23.628 2693.191, 23.628 2683.191, 23.629 2673.191, 23.629 2663.191, 23.629 2653.191, 23.630 2643.191, 23.630 2633.191, 23.630 2623.191, 23.630 2613.191, 23.631 2603.191, 23.631 2593.191, 23.631 2583.191, 23.632 2573.191, 23.632 2563.191, 23.632 2553.191, 23.632 2543.191, 23.633 2533.191, 23.633 2523.191, 23.633 2513.191, 23.634 2503.191, 23.634 2493.191, 23.634 2483.191, 23.635 2473.191, 23.635 2463.191, 23.635 2453.191, 23.635 2443.191, 23.636 2439.535, 23.636 " />
            <path fill="none" stroke-width="3.0" stroke-linecap="butt" stroke-opacity="1.0" stroke="rgb(0, 0, 0)" stroke-linejoin="round" d=" M 2703.191, 23.628 2693.191, 23.628 2683.191, 23.629 2673.191, 23.629 2663.191, 23.629 2653.191, 23.630 2643.191, 23.630 2633.191, 23.630 2623.191, 23.630 2613.191, 23.631 2603.191, 23.631 2593.191, 23.631 2583.191, 23.632 2573.191, 23.632 2563.191, 23.632 2553.191, 23.633 2543.191, 23.633 2533.191, 23.633 2523.191, 23.634 2513.191, 23.634 2503.191, 23.634 2493.191, 23.634 2483.191, 23.635 2473.191, 23.635 2463.191, 23.635 2453.191, 23.636 2445.207, 23.636 " />
            <path fill="none" stroke-width="3.0" stroke-linecap="butt" stroke-opacity="1.0" stroke="rgb(0, 0, 0)" stroke-linejoin="round" d=" M 2703.191, 23.628 2693.191, 23.628 2683.191, 23.629 2673.191, 23.629 2663.191, 23.629 2653.191, 23.630 2643.191, 23.630 2633.191, 23.630 2623.191, 23.630 2613.191, 23.631 2603.191, 23.631 2593.191, 23.631 2583.191, 23.632 2573.191, 23.632 2563.191, 23.632 2553.191, 23.633 2543.191, 23.633 2533.191, 23.633 2523.191, 23.634 2513.191, 23.634 2503.191, 23.634 2493.191, 23.634 2483.191, 23.635 2473.191, 23.635 2463.191, 23.635 2453.191, 23.636 2445.100, 23.636 " />
            <path fill="none" stroke-width="3.0" stroke-linecap="butt" stroke-opacity="1.0" stroke="rgb(0, 0, 0)" stroke-linejoin="round" d=" M 2703.191, 23.628 2693.191, 23.628 2683.191, 23.629 2673.191, 23.629 2663.191, 23.629 2653.191, 23.630 2643.191, 23.630 2633.191, 23.630 2623.191, 23.630 2613.191, 23.631 2603.191, 23.631 2593.191, 23.631 2583.191, 23.632 2573.191, 23.632 2563.191, 23.632 2553.191, 23.633 2543.191, 23.633 2533.191, 23.633 2523.191, 23.634 2513.191, 23.634 2503.191, 23.634 2493.191, 23.635 2483.191, 23.635 2473.191, 23.635 2463.191, 23.635 2453.191, 23.636 2449.642, 23.636 " />
            <path fill="none" stroke-width="3.0" stroke-linecap="butt" stroke-opacity="1.0" stroke="rgb(0, 0, 0)" stroke-linejoin="round" d=" M 2703.191, 23.628 2693.191, 23.628 2683.191, 23.629 2673.191, 23.629 2663.191, 23.629 2653.191, 23.630 2643.191, 23.630 2633.191, 23.630 2623.191, 23.630 2613.191, 23.631 2603.191, 23.631 2593.191, 23.631 2583.191, 23.632 2573.191, 23.632 2563.191, 23.632 2553.191, 23.633 2543.191, 23.633 2533.191, 23.633 2523.191, 23.634 2513.191, 23.634 2503.191, 23.634 2493.191, 23.635 2483.191, 23.635 2473.191, 23.635 2463.191, 23.635 2453.191, 23.636 2449.642, 23.636 " />
            <path fill="none" stroke-width="3.0" stroke-linecap="butt" stroke-opacity="1.0" stroke="rgb(0, 0, 0)" stroke-linejoin="round" d=" M 2703.191, 23.628 2693.191, 23.628 2683.191, 23.629 2673.191, 23.629 2663.191, 23.629 2653.191, 23.630 2643.191, 23.630 2633.191, 23.630 2623.191, 23.631 2613.191, 23.631 2603.191, 23.631 2593.191, 23.631 2583.191, 23.632 2573.191, 23.632 2563.191, 23.632 2553.191, 23.633 2543.191, 23.633 2533.191, 23.633 2523.191, 23.634 2513.191, 23.634 2503.191, 23.634 2493.191, 23.635 2483.191, 23.635 2473.191, 23.635 2463.191, 23.635 2452.379, 23.636 " />
            <path fill="none" stroke-width="3.0" stroke-linecap="butt" stroke-opacity="1.0" stroke="rgb(0, 0, 0)" stroke-linejoin="round" d=" M 948.723, 23.683 946.598, 23.683 936.598, 23.683 926.598, 23.683 916.598, 23.684 906.598, 23.684 896.598, 23.684 886.598, 23.684 876.598, 23.685 866.598, 23.685 856.598, 23.685 846.598, 23.686 836.598, 23.686 826.598, 23.686 816.598, 23.687 806.598, 23.687 796.598, 23.687 786.598, 23.688 776.598, 23.688 766.598, 23.688 756.598, 23.688 746.598, 23.689 736.598, 23.689 730.522, 23.689 720.522, 23.690 710.522, 23.690 700.522, 23.690 690.522, 23.691 680.522, 23.691 670.522, 23.691 660.522, 23.692 650.522, 23.692 640.522, 23.692 630.522, 23.693 620.522, 23.693 610.522, 23.693 600.522, 23.693 590.522, 23.694 580.522, 23.694 570.522, 23.694 560.522, 23.695 550.522, 23.695 540.522, 23.695 530.522, 23.696 520.522, 23.696 510.522, 23.696 504.082, 23.696 " />
            <path fill="none" stroke-width="3.0" stroke-linecap="butt" stroke-opacity="1.0" stroke="rgb(0, 0, 0)" stroke-linejoin="round" d=" M 207.493, 1014.431 206.303, 1024.360 205.114, 1034.289 203.925, 1044.218 202.735, 1054.147 201.546, 1064.076 200.356, 1074.005 199.167, 1083.935 197.978, 1093.864 196.788, 1103.793 195.599, 1113.722 194.409, 1123.651 193.220, 1133.580 192.031, 1143.509 190.841, 1153.438 189.652, 1163.367 188.462, 1173.296 187.273, 1183.225 186.084, 1193.154 184.894, 1203.083 183.705, 1213.012 182.515, 1222.941 181.326, 1232.870 180.137, 1242.799 178.947, 1252.728 177.758, 1262.657 176.568, 1272.586 175.379, 1282.515 174.190, 1292.444 173.000, 1302.373 171.811, 1312.302 170.622, 1322.231 169.480, 1331.763 " />
            <path fill="none" stroke-width="3.0" stroke-linecap="butt" stroke-opacity="1.0" stroke="rgb(0, 0, 0)" stroke-linejoin="round" d=" M 295.883, 726.918 292.944, 736.477 290.005, 746.035 287.067, 755.594 284.128, 765.152 281.190, 774.711 278.251, 784.269 275.313, 793.828 272.374, 803.386 269.436, 812.945 266.497, 822.503 263.558, 832.062 260.620, 841.620 257.681, 851.179 254.743, 860.737 251.804, 870.296 248.866, 879.854 245.927, 889.413 242.989, 898.971 240.050, 908.530 237.111, 918.088 234.173, 927.647 231.234, 937.205 228.296, 946.764 225.357, 956.322 222.419, 965.881 219.480, 975.439 216.542, 984.998 213.603, 994.556 210.664, 1004.115 207.493, 1014.431 " />
            <path fill="none" stroke-width="3.0" stroke-linecap="butt" stroke-opacity="1.0" stroke="rgb(0, 0, 0)" stroke-linejoin="round" d=" M 1805.877, 23.656 1805.417, 23.656 " />
            <path fill="none" stroke-width="3.0" stroke-linecap="butt" stroke-opacity="1.0" stroke="rgb(0, 0, 0)" stroke-linejoin="round" d=" M 1415.992, 23.667 1405.992, 23.668 1395.992, 23.668 1385.992, 23.668 1375.992, 23.669 1368.826, 23.669 " />
            <path fill="none" stroke-width="3.0" stroke-linecap="butt" stroke-opacity="1.0" stroke="rgb(0, 0, 0)" stroke-linejoin="round" d=" M 1467.374, 23.666 1457.374, 23.666 1447.374, 23.667 1437.374, 23.667 1427.374, 23.667 1417.374, 23.667 1415.992, 23.667 " />
            <path fill="none" stroke-width="3.0" stroke-linecap="butt" stroke-opacity="1.0" stroke="rgb(0, 0, 0)" stroke-linejoin="round" d=" M 1810.905, 23.655 1810.823, 23.655 1810.791, 23.655 " />
            <path fill="none" stroke-width="3.0" stroke-linecap="butt" stroke-opacity="1.0" stroke="rgb(0, 0, 0)" stroke-linejoin="round" d=" M 1811.975, 23.655 1810.905, 23.655 " />
            <path fill="none" stroke-width="3.0" stroke-linecap="butt" stroke-opacity="1.0" stroke="rgb(0, 0, 0)" stroke-linejoin="round" d=" M 1833.103, 23.655 1832.962, 23.655 1832.822, 23.655 1832.745, 23.655 " />
            <path fill="none" stroke-width="3.0" stroke-linecap="butt" stroke-opacity="1.0" stroke="rgb(0, 0, 0)" stroke-linejoin="round" d=" M 1833.249, 23.655 1833.144, 23.655 1833.103, 23.655 " />
            <path fill="none" stroke-width="3.0" stroke-linecap="butt" stroke-opacity="1.0" stroke="rgb(0, 0, 0)" stroke-linejoin="round" d=" M 1907.549, 500.671 1906.002, 498.519 " />
            <path fill="none" stroke-width="3.0" stroke-linecap="butt" stroke-opacity="1.0" stroke="rgb(0, 0, 0)" stroke-linejoin="round" d=" M 1928.057, 517.025 1925.669, 515.875 " />
            <path fill="none" stroke-width="3.0" stroke-linecap="butt" stroke-opacity="1.0" stroke="rgb(0, 0, 0)" stroke-linejoin="round" d=" M 1938.090, 520.396 1935.522, 519.742 " />
            <path fill="none" stroke-width="3.0" stroke-linecap="butt" stroke-opacity="1.0" stroke="rgb(0, 0, 0)" stroke-linejoin="round" d=" M 1987.029, 506.627 1985.086, 508.429 " />
            <path fill="none" stroke-width="3.0" stroke-linecap="butt" stroke-opacity="1.0" stroke="rgb(0, 0, 0)" stroke-linejoin="round" d=" M 1988.879, 504.729 1987.029, 506.627 " />
            <path fill="none" stroke-width="3.0" stroke-linecap="butt" stroke-opacity="1.0" stroke="rgb(0, 0, 0)" stroke-linejoin="round" d=" M 2337.067, 23.639 2347.067, 23.639 2357.067, 23.639 2367.067, 23.638 2374.504, 23.638 " />
            <path fill="none" stroke-width="3.0" stroke-linecap="butt" stroke-opacity="1.0" stroke="rgb(0, 0, 0)" stroke-linejoin="round" d=" M 2329.378, 23.640 2332.518, 23.640 " />
            <path fill="none" stroke-width="3.0" stroke-linecap="butt" stroke-opacity="1.0" stroke="rgb(0, 0, 0)" stroke-linejoin="round" d=" M 2297.106, 23.641 2307.106, 23.640 2317.106, 23.640 2318.529, 23.640 " />
            <path fill="none" stroke-width="3.0" stroke-linecap="butt" stroke-opacity="1.0" stroke="rgb(0, 0, 0)" stroke-linejoin="round" d=" M 2244.686, 23.642 2254.686, 23.642 2264.686, 23.641 2265.381, 23.641 2273.004, 23.641 " />
            <path fill="none" stroke-width="3.0" stroke-linecap="butt" stroke-opacity="1.0" stroke="rgb(0, 0, 0)" stroke-linejoin="round" d=" M 2273.004, 23.641 2265.381, 23.641 2255.381, 23.642 2245.381, 23.642 2244.686, 23.642 " />
            <path fill="none" stroke-width="3.0" stroke-linecap="butt" stroke-opacity="1.0" stroke="rgb(0, 0, 0)" stroke-linejoin="round" d=" M 2415.839, 23.637 2405.839, 23.637 2403.176, 23.637 2393.176, 23.638 2383.781, 23.638 2374.504, 23.638 2364.504, 23.639 2354.504, 23.639 2344.504, 23.639 2337.067, 23.639 2332.518, 23.640 2329.378, 23.640 2319.378, 23.640 2318.529, 23.640 2308.529, 23.640 2298.529, 23.641 2297.106, 23.641 2287.106, 23.641 2277.106, 23.641 2273.004, 23.641 " />
            <path fill="none" stroke-width="3.0" stroke-linecap="butt" stroke-opacity="1.0" stroke="rgb(0, 0, 0)" stroke-linejoin="round" d=" M 2439.027, 23.636 2439.020, 23.636 " />
            <path fill="none" stroke-width="3.0" stroke-linecap="butt" stroke-opacity="1.0" stroke="rgb(0, 0, 0)" stroke-linejoin="round" d=" M 2439.020, 23.636 2438.998, 23.636 2438.976, 23.636 2438.963, 23.636 2438.959, 23.636 2438.954, 23.636 2438.904, 23.636 2438.889, 23.636 2438.856, 23.636 2438.832, 23.636 " />
            <path fill="none" stroke-width="3.0" stroke-linecap="butt" stroke-opacity="1.0" stroke="rgb(0, 0, 0)" stroke-linejoin="round" d=" M 2439.044, 23.636 2439.027, 23.636 2439.020, 23.636 " />
            <path fill="none" stroke-width="3.0" stroke-linecap="butt" stroke-opacity="1.0" stroke="rgb(0, 0, 0)" stroke-linejoin="round" d=" M 2439.306, 23.636 2439.275, 23.636 2439.271, 23.636 2439.269, 23.636 2439.264, 23.636 2439.171, 23.636 2439.044, 23.636 " />
            <path fill="none" stroke-width="3.0" stroke-linecap="butt" stroke-opacity="1.0" stroke="rgb(0, 0, 0)" stroke-linejoin="round" d=" M 2450.102, 23.636 2449.973, 23.636 2449.642, 23.636 " />
            <path fill="none" stroke-width="3.0" stroke-linecap="butt" stroke-opacity="1.0" stroke="rgb(0, 0, 0)" stroke-linejoin="round" d=" M 2439.306, 23.636 2429.306, 23.636 2419.306, 23.637 2409.306, 23.637 2399.306, 23.637 2389.306, 23.637 2379.306, 23.638 2369.306, 23.638 2359.306, 23.638 2349.306, 23.639 2339.306, 23.639 2329.306, 23.639 2319.306, 23.640 2309.306, 23.640 2299.306, 23.640 2289.306, 23.641 2279.306, 23.641 2269.306, 23.641 2259.306, 23.641 2249.306, 23.642 2239.306, 23.642 2229.306, 23.642 2219.306, 23.643 2209.306, 23.643 2199.306, 23.643 2189.306, 23.643 2179.306, 23.644 2169.306, 23.644 2159.306, 23.644 2149.306, 23.645 2139.306, 23.645 2129.306, 23.645 2119.306, 23.646 2109.306, 23.646 2099.306, 23.646 2091.373, 23.646 " />
            <path fill="none" stroke-width="3.0" stroke-linecap="butt" stroke-opacity="1.0" stroke="rgb(0, 0, 0)" stroke-linejoin="round" d=" M 2703.191, 23.628 2693.191, 23.628 2683.191, 23.629 2673.191, 23.629 2663.191, 23.629 2653.191, 23.630 2643.191, 23.630 2633.191, 23.630 2623.191, 23.630 2613.191, 23.631 2603.191, 23.631 2593.191, 23.631 2583.191, 23.632 2573.191, 23.632 2563.191, 23.632 2553.191, 23.633 2543.191, 23.633 2533.191, 23.633 2523.191, 23.633 2513.191, 23.634 2503.191, 23.634 2493.191, 23.634 2483.191, 23.635 2473.191, 23.635 2463.191, 23.635 2453.191, 23.636 2444.345, 23.636 " />
            <path fill="none" stroke-width="3.0" stroke-linecap="butt" stroke-opacity="1.0" stroke="rgb(0, 0, 0)" stroke-linejoin="round" d=" M 2439.306, 23.636 2429.306, 23.636 2419.306, 23.637 2409.306, 23.637 2399.306, 23.637 2389.306, 23.637 2379.306, 23.638 2369.306, 23.638 2359.306, 23.638 2349.306, 23.639 2339.306, 23.639 2329.306, 23.639 2319.306, 23.640 2309.306, 23.640 2299.306, 23.640 2289.306, 23.641 2279.306, 23.641 2269.306, 23.641 2259.306, 23.641 2249.306, 23.642 2239.306, 23.642 2229.306, 23.642 2219.306, 23.643 2209.306, 23.643 2199.306, 23.643 2189.306, 23.643 2179.306, 23.644 2169.306, 23.644 2159.306, 23.644 2149.306, 23.645 2139.306, 23.645 2129.306, 23.645 2119.306, 23.646 2109.306, 23.646 2099.306, 23.646 2091.373, 23.646 " />
            <path fill="none" stroke-width="3.0" stroke-linecap="butt" stroke-opacity="1.0" stroke="rgb(0, 0, 0)" stroke-linejoin="round" d=" M 2703.191, 23.628 2693.191, 23.628 2683.191, 23.629 2673.191, 23.629 2663.191, 23.629 2653.191, 23.630 2643.191, 23.630 2633.191, 23.630 2623.191, 23.630 2613.191, 23.631 2603.191, 23.631 2593.191, 23.631 2583.191, 23.632 2573.191, 23.632 2563.191, 23.632 2553.191, 23.633 2543.191, 23.633 2533.191, 23.633 2523.191, 23.633 2513.191, 23.634 2503.191, 23.634 2493.191, 23.634 2483.191, 23.635 2473.191, 23.635 2463.191, 23.635 2453.191, 23.636 2444.345, 23.636 " />
            <path fill="none" stroke-width="3.0" stroke-linecap="butt" stroke-opacity="1.0" stroke="rgb(0, 0, 0)" stroke-linejoin="round" d=" M 2447.089, 23.636 2457.089, 23.635 2467.089, 23.635 2477.089, 23.635 2487.089, 23.635 2497.089, 23.634 2507.089, 23.634 2517.089, 23.634 2527.089, 23.633 2537.089, 23.633 2547.089, 23.633 2557.089, 23.633 2567.089, 23.632 2577.089, 23.632 2587.089, 23.632 2597.089, 23.631 2607.089, 23.631 2617.089, 23.631 2627.089, 23.630 2637.089, 23.630 2647.089, 23.630 2657.089, 23.630 2667.089, 23.629 2677.089, 23.629 2687.089, 23.629 2697.089, 23.628 2703.191, 23.628 " />
            <path fill="none" stroke-width="3.0" stroke-linecap="butt" stroke-opacity="1.0" stroke="rgb(0, 0, 0)" stroke-linejoin="round" d=" M 2097.860, 23.646 2107.860, 23.646 2117.860, 23.646 2127.860, 23.646 2137.860, 23.645 2147.860, 23.645 2157.860, 23.645 2167.860, 23.644 2177.860, 23.644 2187.860, 23.644 2197.860, 23.643 2207.860, 23.643 2217.860, 23.643 2227.860, 23.642 2237.860, 23.642 2247.860, 23.642 2257.860, 23.642 2267.860, 23.641 2277.860, 23.641 2287.860, 23.641 2297.860, 23.640 2307.860, 23.640 2317.860, 23.640 2327.860, 23.639 2337.860, 23.639 2347.860, 23.639 2357.860, 23.639 2367.860, 23.638 2377.860, 23.638 2387.860, 23.638 2397.860, 23.637 2407.860, 23.637 2417.860, 23.637 2427.860, 23.636 2439.171, 23.636 " />
            <path fill="none" stroke-width="3.0" stroke-linecap="butt" stroke-opacity="1.0" stroke="rgb(0, 0, 0)" stroke-linejoin="round" d=" M 2041.108, 23.648 2031.108, 23.648 2021.108, 23.649 2011.108, 23.649 2001.108, 23.649 1991.108, 23.649 1981.108, 23.650 1971.108, 23.650 1961.108, 23.650 1951.108, 23.651 1941.108, 23.651 1931.108, 23.651 1921.108, 23.652 1911.108, 23.652 1901.108, 23.652 1891.108, 23.652 1881.108, 23.653 1871.108, 23.653 1861.108, 23.653 1851.108, 23.654 1841.108, 23.654 1834.965, 23.654 " />
            <path fill="none" stroke-width="3.0" stroke-linecap="butt" stroke-opacity="1.0" stroke="rgb(0, 0, 0)" stroke-linejoin="round" d=" M 2439.271, 23.636 2429.271, 23.636 2419.271, 23.637 2409.271, 23.637 2399.271, 23.637 2389.271, 23.637 2379.271, 23.638 2369.271, 23.638 2359.271, 23.638 2349.271, 23.639 2339.271, 23.639 2329.271, 23.639 2319.271, 23.640 2309.271, 23.640 2299.271, 23.640 2289.271, 23.641 2279.271, 23.641 2269.271, 23.641 2259.271, 23.641 2249.271, 23.642 2239.271, 23.642 2229.271, 23.642 2219.271, 23.643 2209.271, 23.643 2199.271, 23.643 2189.271, 23.644 2179.271, 23.644 2169.271, 23.644 2159.271, 23.644 2149.271, 23.645 2139.271, 23.645 2129.271, 23.645 2119.271, 23.646 2109.271, 23.646 2099.271, 23.646 2093.086, 23.646 " />
            <path fill="none" stroke-width="3.0" stroke-linecap="butt" stroke-opacity="1.0" stroke="rgb(0, 0, 0)" stroke-linejoin="round" d=" M 2703.191, 23.628 2693.191, 23.628 2683.191, 23.629 2673.191, 23.629 2663.191, 23.629 2653.191, 23.630 2643.191, 23.630 2633.191, 23.630 2623.191, 23.630 2613.191, 23.631 2603.191, 23.631 2593.191, 23.631 2583.191, 23.632 2573.191, 23.632 2563.191, 23.632 2553.191, 23.633 2543.191, 23.633 2533.191, 23.633 2523.191, 23.634 2513.191, 23.634 2503.191, 23.634 2493.191, 23.634 2483.191, 23.635 2473.191, 23.635 2463.191, 23.635 2453.191, 23.636 2445.070, 23.636 " />
            <path fill="none" stroke-width="3.0" stroke-linecap="butt" stroke-opacity="1.0" stroke="rgb(0, 0, 0)" stroke-linejoin="round" d=" M 2451.292, 23.636 2461.292, 23.635 2471.292, 23.635 2481.292, 23.635 2491.292, 23.635 2501.292, 23.634 2511.292, 23.634 2521.292, 23.634 2531.292, 23.633 2541.292, 23.633 2551.292, 23.633 2561.292, 23.632 2571.292, 23.632 2581.292, 23.632 2591.292, 23.631 2601.292, 23.631 2611.292, 23.631 2621.292, 23.631 2631.292, 23.630 2641.292, 23.630 2651.292, 23.630 2661.292, 23.629 2671.292, 23.629 2681.292, 23.629 2691.292, 23.628 2703.191, 23.628 2693.191, 23.628 2683.191, 23.629 2673.191, 23.629 2663.191, 23.629 2653.191, 23.630 2643.191, 23.630 2633.191, 23.630 2623.191, 23.630 2613.191, 23.631 2603.191, 23.631 2593.191, 23.631 2583.191, 23.632 2573.191, 23.632 2563.191, 23.632 2553.191, 23.633 2543.191, 23.633 2533.191, 23.633 2523.191, 23.634 2513.191, 23.634 2503.191, 23.634 2493.191, 23.635 2483.191, 23.635 2473.191, 23.635 2463.191, 23.635 2451.219, 23.636 " />
            <path fill="none" stroke-width="3.0" stroke-linecap="butt" stroke-opacity="1.0" stroke="rgb(0, 0, 0)" stroke-linejoin="round" d=" M 2332.518, 23.640 2342.518, 23.639 2352.518, 23.639 2362.518, 23.639 2372.518, 23.638 2382.518, 23.638 2392.518, 23.638 2402.518, 23.637 2412.518, 23.637 2422.518, 23.637 2432.518, 23.636 2438.959, 23.636 " />
            <path fill="none" stroke-width="3.0" stroke-linecap="butt" stroke-opacity="1.0" stroke="rgb(0, 0, 0)" stroke-linejoin="round" d=" M 2439.275, 23.636 2429.275, 23.636 2419.275, 23.637 2409.275, 23.637 2399.275, 23.637 2389.275, 23.637 2379.275, 23.638 2369.275, 23.638 2359.275, 23.638 2349.275, 23.639 2339.275, 23.639 2329.275, 23.639 2319.275, 23.640 2309.275, 23.640 2299.275, 23.640 2289.275, 23.641 2279.275, 23.641 2269.275, 23.641 2259.275, 23.641 2249.275, 23.642 2239.275, 23.642 2229.275, 23.642 2219.275, 23.643 2209.275, 23.643 2199.275, 23.643 2189.275, 23.644 2179.275, 23.644 2169.275, 23.644 2159.275, 23.644 2149.275, 23.645 2139.275, 23.645 2129.275, 23.645 2119.275, 23.646 2109.275, 23.646 2099.275, 23.646 2092.899, 23.646 " />
            <path fill="none" stroke-width="3.0" stroke-linecap="butt" stroke-opacity="1.0" stroke="rgb(0, 0, 0)" stroke-linejoin="round" d=" M 2703.191, 23.628 2693.191, 23.628 2683.191, 23.629 2673.191, 23.629 2663.191, 23.629 2653.191, 23.630 2643.191, 23.630 2633.191, 23.630 2623.191, 23.630 2613.191, 23.631 2603.191, 23.631 2593.191, 23.631 2583.191, 23.632 2573.191, 23.632 2563.191, 23.632 2553.191, 23.633 2543.191, 23.633 2533.191, 23.633 2523.191, 23.634 2513.191, 23.634 2503.191, 23.634 2493.191, 23.634 2483.191, 23.635 2473.191, 23.635 2463.191, 23.635 2453.191, 23.636 2444.990, 23.636 " />
            <path fill="none" stroke-width="3.0" stroke-linecap="butt" stroke-opacity="1.0" stroke="rgb(0, 0, 0)" stroke-linejoin="round" d=" M 2329.378, 23.640 2339.378, 23.639 2349.378, 23.639 2359.378, 23.639 2369.378, 23.638 2379.378, 23.638 2389.378, 23.638 2399.378, 23.637 2409.378, 23.637 2419.378, 23.637 2429.378, 23.636 2438.963, 23.636 " />
            <path fill="none" stroke-width="3.0" stroke-linecap="butt" stroke-opacity="1.0" stroke="rgb(0, 0, 0)" stroke-linejoin="round" d=" M 1834.632, 23.654 1824.632, 23.654 1814.632, 23.655 1811.975, 23.655 " />
            <path fill="none" stroke-width="3.0" stroke-linecap="butt" stroke-opacity="1.0" stroke="rgb(0, 0, 0)" stroke-linejoin="round" d=" M 2030.573, 23.648 2020.573, 23.649 2010.573, 23.649 2000.573, 23.649 1990.573, 23.650 1980.573, 23.650 1970.573, 23.650 1960.573, 23.650 1950.573, 23.651 1940.573, 23.651 1930.573, 23.651 1920.573, 23.652 1910.573, 23.652 1900.573, 23.652 1890.573, 23.652 1880.573, 23.653 1870.573, 23.653 1860.573, 23.653 1850.573, 23.654 1840.573, 23.654 1835.428, 23.654 " />
            <path fill="none" stroke-width="3.0" stroke-linecap="butt" stroke-opacity="1.0" stroke="rgb(0, 0, 0)" stroke-linejoin="round" d=" M 2439.264, 23.636 2429.264, 23.636 2419.264, 23.637 2409.264, 23.637 2399.264, 23.637 2389.264, 23.638 2379.264, 23.638 2369.264, 23.638 2359.264, 23.638 2349.264, 23.639 2339.264, 23.639 2329.264, 23.639 2319.264, 23.640 2309.264, 23.640 2299.264, 23.640 2289.264, 23.641 2279.264, 23.641 2269.264, 23.641 2259.264, 23.641 2249.264, 23.642 2239.264, 23.642 2229.264, 23.642 2219.264, 23.643 2209.264, 23.643 2199.264, 23.643 2189.264, 23.644 2179.264, 23.644 2169.264, 23.644 2159.264, 23.644 2149.264, 23.645 2139.264, 23.645 2129.264, 23.645 2119.264, 23.646 2109.264, 23.646 2099.264, 23.646 2093.412, 23.646 " />
            <path fill="none" stroke-width="3.0" stroke-linecap="butt" stroke-opacity="1.0" stroke="rgb(0, 0, 0)" stroke-linejoin="round" d=" M 2451.398, 23.636 2461.398, 23.635 2471.398, 23.635 2481.398, 23.635 2491.398, 23.635 2501.398, 23.634 2511.398, 23.634 2521.398, 23.634 2531.398, 23.633 2541.398, 23.633 2551.398, 23.633 2561.398, 23.632 2571.398, 23.632 2581.398, 23.632 2591.398, 23.631 2601.398, 23.631 2611.398, 23.631 2621.398, 23.631 2631.398, 23.630 2641.398, 23.630 2651.398, 23.630 2661.398, 23.629 2671.398, 23.629 2681.398, 23.629 2691.398, 23.628 2703.191, 23.628 " />
            <path fill="none" stroke-width="3.0" stroke-linecap="butt" stroke-opacity="1.0" stroke="rgb(0, 0, 0)" stroke-linejoin="round" d=" M 2337.067, 23.639 2347.067, 23.639 2357.067, 23.639 2367.067, 23.638 2377.067, 23.638 2387.067, 23.638 2397.067, 23.637 2407.067, 23.637 2417.067, 23.637 2427.067, 23.637 2437.067, 23.636 2438.954, 23.636 " />
            <path fill="none" stroke-width="3.0" stroke-linecap="butt" stroke-opacity="1.0" stroke="rgb(0, 0, 0)" stroke-linejoin="round" d=" M 2038.776, 23.648 2028.776, 23.648 2018.776, 23.649 2008.776, 23.649 1998.776, 23.649 1988.776, 23.650 1978.776, 23.650 1968.776, 23.650 1958.776, 23.650 1948.776, 23.651 1938.776, 23.651 1928.776, 23.651 1918.776, 23.652 1908.776, 23.652 1898.776, 23.652 1888.776, 23.652 1878.776, 23.653 1868.776, 23.653 1858.776, 23.653 1848.776, 23.654 1838.776, 23.654 1835.069, 23.654 " />
            <path fill="none" stroke-width="3.0" stroke-linecap="butt" stroke-opacity="1.0" stroke="rgb(0, 0, 0)" stroke-linejoin="round" d=" M 2439.269, 23.636 2429.269, 23.636 2419.269, 23.637 2409.269, 23.637 2399.269, 23.637 2389.269, 23.637 2379.269, 23.638 2369.269, 23.638 2359.269, 23.638 2349.269, 23.639 2339.269, 23.639 2329.269, 23.639 2319.269, 23.640 2309.269, 23.640 2299.269, 23.640 2289.269, 23.641 2279.269, 23.641 2269.269, 23.641 2259.269, 23.641 2249.269, 23.642 2239.269, 23.642 2229.269, 23.642 2219.269, 23.643 2209.269, 23.643 2199.269, 23.643 2189.269, 23.644 2179.269, 23.644 2169.269, 23.644 2159.269, 23.644 2149.269, 23.645 2139.269, 23.645 2129.269, 23.645 2119.269, 23.646 2109.269, 23.646 2099.269, 23.646 2093.159, 23.646 " />
            <path fill="none" stroke-width="3.0" stroke-linecap="butt" stroke-opacity="1.0" stroke="rgb(0, 0, 0)" stroke-linejoin="round" d=" M 2450.980, 23.636 2460.980, 23.635 2470.980, 23.635 2480.980, 23.635 2490.980, 23.635 2500.980, 23.634 2510.980, 23.634 2520.980, 23.634 2530.980, 23.633 2540.980, 23.633 2550.980, 23.633 2560.980, 23.632 2570.980, 23.632 2580.980, 23.632 2590.980, 23.632 2600.980, 23.631 2610.980, 23.631 2620.980, 23.631 2630.980, 23.630 2640.980, 23.630 2650.980, 23.630 2660.980, 23.629 2670.980, 23.629 2680.980, 23.629 2690.980, 23.628 2703.191, 23.628 " />
            <path fill="none" stroke-width="3.0" stroke-linecap="butt" stroke-opacity="1.0" stroke="rgb(0, 0, 0)" stroke-linejoin="round" d=" M 2318.529, 23.640 2328.529, 23.640 2338.529, 23.639 2348.529, 23.639 2358.529, 23.639 2368.529, 23.638 2378.529, 23.638 2388.529, 23.638 2398.529, 23.637 2408.529, 23.637 2418.529, 23.637 2428.529, 23.636 2438.976, 23.636 " />
            <path fill="none" stroke-width="3.0" stroke-linecap="butt" stroke-opacity="1.0" stroke="rgb(0, 0, 0)" stroke-linejoin="round" d=" M 1831.917, 23.655 1832.822, 23.655 " />
            <path fill="none" stroke-width="3.0" stroke-linecap="butt" stroke-opacity="1.0" stroke="rgb(0, 0, 0)" stroke-linejoin="round" d=" M 1808.989, 23.656 1810.574, 23.656 " />
            <path fill="none" stroke-width="3.0" stroke-linecap="butt" stroke-opacity="1.0" stroke="rgb(0, 0, 0)" stroke-linejoin="round" d=" M 1725.778, 23.658 1715.778, 23.658 1705.778, 23.659 1695.778, 23.659 1685.778, 23.659 1675.778, 23.660 1665.778, 23.660 1655.778, 23.660 1645.778, 23.660 1635.778, 23.661 1625.778, 23.661 1615.778, 23.661 1605.778, 23.662 1595.778, 23.662 1585.778, 23.662 1575.778, 23.663 1565.778, 23.663 1555.778, 23.663 1545.778, 23.663 1535.778, 23.664 1525.778, 23.664 1515.778, 23.664 1505.778, 23.665 1495.778, 23.665 1485.778, 23.665 1475.778, 23.666 1465.778, 23.666 1455.778, 23.666 1445.778, 23.667 1435.778, 23.667 1425.778, 23.667 1415.992, 23.667 1405.992, 23.668 1395.992, 23.668 1385.992, 23.668 1375.992, 23.669 1365.992, 23.669 1355.992, 23.669 1345.992, 23.670 1335.992, 23.670 1325.992, 23.670 1315.992, 23.671 1305.992, 23.671 1299.700, 23.671 " />
            <path fill="none" stroke-width="3.0" stroke-linecap="butt" stroke-opacity="1.0" stroke="rgb(0, 0, 0)" stroke-linejoin="round" d=" M 1810.791, 23.655 1805.877, 23.656 " />
            <path fill="none" stroke-width="3.0" stroke-linecap="butt" stroke-opacity="1.0" stroke="rgb(0, 0, 0)" stroke-linejoin="round" d=" M 1833.103, 23.655 1828.885, 23.655 " />
            <path fill="none" stroke-width="3.0" stroke-linecap="butt" stroke-opacity="1.0" stroke="rgb(0, 0, 0)" stroke-linejoin="round" d=" M 2439.020, 23.636 2429.020, 23.636 2419.020, 23.637 2409.020, 23.637 2399.020, 23.637 2389.020, 23.638 2379.020, 23.638 2369.020, 23.638 2359.020, 23.639 2349.020, 23.639 2339.020, 23.639 2329.020, 23.640 2319.020, 23.640 2309.020, 23.640 2299.020, 23.641 2289.020, 23.641 2279.020, 23.641 2273.004, 23.641 " />
            <path fill="none" stroke-width="3.0" stroke-linecap="butt" stroke-opacity="1.0" stroke="rgb(0, 0, 0)" stroke-linejoin="round" d=" M 2703.191, 23.628 2693.191, 23.628 2683.191, 23.629 2673.191, 23.629 2663.191, 23.629 2653.191, 23.630 2643.191, 23.630 2633.191, 23.630 2623.191, 23.630 2613.191, 23.631 2603.191, 23.631 2593.191, 23.631 2583.191, 23.632 2573.191, 23.632 2563.191, 23.632 2553.191, 23.633 2543.191, 23.633 2533.191, 23.633 2523.191, 23.634 2513.191, 23.634 2503.191, 23.634 2493.191, 23.635 2483.191, 23.635 2473.191, 23.635 2463.191, 23.635 2453.191, 23.636 2450.102, 23.636 " />
            <path fill="none" stroke-width="3.0" stroke-linecap="butt" stroke-opacity="1.0" stroke="rgb(0, 0, 0)" stroke-linejoin="round" d=" M 1833.144, 23.655 1828.437, 23.655 " />
            <path fill="none" stroke-width="3.0" stroke-linecap="butt" stroke-opacity="1.0" stroke="rgb(0, 0, 0)" stroke-linejoin="round" d=" M 2439.027, 23.636 2429.027, 23.636 2419.027, 23.637 2409.027, 23.637 2399.027, 23.637 2389.027, 23.638 2379.027, 23.638 2369.027, 23.638 2359.027, 23.639 2349.027, 23.639 2339.027, 23.639 2329.027, 23.640 2319.027, 23.640 2309.027, 23.640 2299.027, 23.641 2289.027, 23.641 2279.027, 23.641 2269.027, 23.641 2265.381, 23.641 " />
            <path fill="none" stroke-width="3.0" stroke-linecap="butt" stroke-opacity="1.0" stroke="rgb(0, 0, 0)" stroke-linejoin="round" d=" M 2703.191, 23.628 2693.191, 23.628 2683.191, 23.629 2673.191, 23.629 2663.191, 23.629 2653.191, 23.630 2643.191, 23.630 2633.191, 23.630 2623.191, 23.630 2613.191, 23.631 2603.191, 23.631 2593.191, 23.631 2583.191, 23.632 2573.191, 23.632 2563.191, 23.632 2553.191, 23.633 2543.191, 23.633 2533.191, 23.633 2523.191, 23.634 2513.191, 23.634 2503.191, 23.634 2493.191, 23.635 2483.191, 23.635 2473.191, 23.635 2463.191, 23.635 2453.191, 23.636 2449.973, 23.636 " />
            <path fill="none" stroke-width="3.0" stroke-linecap="butt" stroke-opacity="1.0" stroke="rgb(0, 0, 0)" stroke-linejoin="round" d=" M 2450.543, 23.636 2460.543, 23.635 2470.543, 23.635 2480.543, 23.635 2490.543, 23.635 2500.543, 23.634 2510.543, 23.634 2520.543, 23.634 2530.543, 23.633 2540.543, 23.633 2550.543, 23.633 2560.543, 23.632 2570.543, 23.632 2580.543, 23.632 2590.543, 23.632 2600.543, 23.631 2610.543, 23.631 2620.543, 23.631 2630.543, 23.630 2640.543, 23.630 2650.543, 23.630 2660.543, 23.629 2670.543, 23.629 2680.543, 23.629 2690.543, 23.628 2700.543, 23.628 2703.191, 23.628 " />
            <path fill="none" stroke-width="3.0" stroke-linecap="butt" stroke-opacity="1.0" stroke="rgb(0, 0, 0)" stroke-linejoin="round" d=" M 2297.106, 23.641 2307.106, 23.640 2317.106, 23.640 2327.106, 23.640 2337.106, 23.639 2347.106, 23.639 2357.106, 23.639 2367.106, 23.638 2377.106, 23.638 2387.106, 23.638 2397.106, 23.637 2407.106, 23.637 2417.106, 23.637 2427.106, 23.637 2437.106, 23.636 2438.998, 23.636 " />
            <path fill="none" stroke-width="3.0" stroke-linecap="butt" stroke-opacity="1.0" stroke="rgb(0, 0, 0)" stroke-linejoin="round" d=" M 1830.408, 23.655 1832.962, 23.655 " />
            <path fill="none" stroke-width="3.0" stroke-linecap="butt" stroke-opacity="1.0" stroke="rgb(0, 0, 0)" stroke-linejoin="round" d=" M 1807.440, 23.656 1810.682, 23.655 " />
            <path fill="none" stroke-width="3.0" stroke-linecap="butt" stroke-opacity="1.0" stroke="rgb(0, 0, 0)" stroke-linejoin="round" d=" M 1725.778, 23.658 1715.778, 23.658 1705.778, 23.659 1695.778, 23.659 1685.778, 23.659 1675.778, 23.660 1665.778, 23.660 1655.778, 23.660 1645.778, 23.660 1635.778, 23.661 1625.778, 23.661 1615.778, 23.661 1605.778, 23.662 1595.778, 23.662 1585.778, 23.662 1575.778, 23.663 1565.778, 23.663 1555.778, 23.663 1545.778, 23.663 1535.778, 23.664 1525.778, 23.664 1515.778, 23.664 1505.778, 23.665 1495.778, 23.665 1485.778, 23.665 1475.778, 23.666 1465.778, 23.666 1455.778, 23.666 1445.778, 23.667 1435.778, 23.667 1425.778, 23.667 1415.992, 23.667 1405.992, 23.668 1395.992, 23.668 1385.992, 23.668 1375.992, 23.669 1365.992, 23.669 1355.992, 23.669 1345.992, 23.670 1335.992, 23.670 1325.992, 23.670 1315.992, 23.671 1305.992, 23.671 1299.700, 23.671 " />
            <path fill="none" stroke-width="3.0" stroke-linecap="butt" stroke-opacity="1.0" stroke="rgb(0, 0, 0)" stroke-linejoin="round" d=" M 1810.791, 23.655 1805.877, 23.656 " />
            <path fill="none" stroke-width="3.0" stroke-linecap="butt" stroke-opacity="1.0" stroke="rgb(0, 0, 0)" stroke-linejoin="round" d=" M 1833.103, 23.655 1828.885, 23.655 " />
            <path fill="none" stroke-width="3.0" stroke-linecap="butt" stroke-opacity="1.0" stroke="rgb(0, 0, 0)" stroke-linejoin="round" d=" M 2439.020, 23.636 2429.020, 23.636 2419.020, 23.637 2409.020, 23.637 2399.020, 23.637 2389.020, 23.638 2379.020, 23.638 2369.020, 23.638 2359.020, 23.639 2349.020, 23.639 2339.020, 23.639 2329.020, 23.640 2319.020, 23.640 2309.020, 23.640 2299.020, 23.641 2289.020, 23.641 2279.020, 23.641 2273.004, 23.641 " />
            <path fill="none" stroke-width="3.0" stroke-linecap="butt" stroke-opacity="1.0" stroke="rgb(0, 0, 0)" stroke-linejoin="round" d=" M 2703.191, 23.628 2693.191, 23.628 2683.191, 23.629 2673.191, 23.629 2663.191, 23.629 2653.191, 23.630 2643.191, 23.630 2633.191, 23.630 2623.191, 23.630 2613.191, 23.631 2603.191, 23.631 2593.191, 23.631 2583.191, 23.632 2573.191, 23.632 2563.191, 23.632 2553.191, 23.633 2543.191, 23.633 2533.191, 23.633 2523.191, 23.634 2513.191, 23.634 2503.191, 23.634 2493.191, 23.635 2483.191, 23.635 2473.191, 23.635 2463.191, 23.635 2453.191, 23.636 2450.102, 23.636 " />
            <path fill="none" stroke-width="3.0" stroke-linecap="butt" stroke-opacity="1.0" stroke="rgb(0, 0, 0)" stroke-linejoin="round" d=" M 2415.839, 23.637 2425.839, 23.637 2435.839, 23.636 2438.832, 23.636 " />
            <path fill="none" stroke-width="3.0" stroke-linecap="butt" stroke-opacity="1.0" stroke="rgb(0, 0, 0)" stroke-linejoin="round" d=" M 1810.905, 23.655 1800.905, 23.656 1790.905, 23.656 1780.905, 23.656 1770.905, 23.657 1760.905, 23.657 1750.905, 23.657 1740.905, 23.657 1730.905, 23.658 1720.905, 23.658 1710.905, 23.658 1700.905, 23.659 1690.905, 23.659 1680.905, 23.659 1670.905, 23.660 1660.905, 23.660 1650.905, 23.660 1640.905, 23.661 1630.905, 23.661 1620.905, 23.661 1610.905, 23.661 1600.905, 23.662 1590.905, 23.662 1580.905, 23.662 1570.905, 23.663 1560.905, 23.663 1550.905, 23.663 1540.905, 23.664 1530.905, 23.664 1520.905, 23.664 1510.905, 23.665 1500.905, 23.665 1490.905, 23.665 1480.905, 23.665 1470.905, 23.666 1467.374, 23.666 1457.374, 23.666 1447.374, 23.667 1437.374, 23.667 1427.374, 23.667 1417.374, 23.667 1407.374, 23.668 1397.373, 23.668 1387.373, 23.668 1377.373, 23.669 1367.373, 23.669 1357.373, 23.669 1347.373, 23.670 1337.373, 23.670 1327.373, 23.670 1317.373, 23.670 1307.373, 23.671 1297.373, 23.671 1287.373, 23.671 1277.373, 23.672 1267.373, 23.672 1257.373, 23.672 1247.373, 23.673 1237.373, 23.673 1227.373, 23.673 1217.373, 23.673 1207.373, 23.674 1197.374, 23.674 1187.373, 23.674 1177.374, 23.675 1167.373, 23.675 1157.374, 23.675 1147.373, 23.676 1137.374, 23.676 1127.373, 23.676 1117.374, 23.677 1107.373, 23.677 1097.374, 23.677 1087.373, 23.677 1077.374, 23.678 1067.373, 23.678 1057.374, 23.678 1047.373, 23.679 1037.373, 23.679 1027.373, 23.679 1017.373, 23.680 1007.373, 23.680 997.373, 23.680 987.373, 23.681 977.373, 23.681 967.373, 23.681 957.373, 23.681 951.398, 23.682 " />
            <path fill="none" stroke-width="3.0" stroke-linecap="butt" stroke-opacity="1.0" stroke="rgb(0, 0, 0)" stroke-linejoin="round" d=" M 1833.249, 23.655 1827.295, 23.655 " />
            <path fill="none" stroke-width="3.0" stroke-linecap="butt" stroke-opacity="1.0" stroke="rgb(0, 0, 0)" stroke-linejoin="round" d=" M 2439.044, 23.636 2429.044, 23.636 2419.044, 23.637 2409.044, 23.637 2399.044, 23.637 2389.044, 23.638 2379.044, 23.638 2369.044, 23.638 2359.044, 23.639 2349.044, 23.639 2339.044, 23.639 2329.044, 23.640 2319.044, 23.640 2309.044, 23.640 2299.044, 23.640 2289.044, 23.641 2279.044, 23.641 2269.044, 23.641 2259.044, 23.642 2249.044, 23.642 2244.686, 23.642 " />
            <path fill="none" stroke-width="3.0" stroke-linecap="butt" stroke-opacity="1.0" stroke="rgb(0, 0, 0)" stroke-linejoin="round" d=" M 1234.250, 23.673 1244.250, 23.673 1254.250, 23.673 1264.250, 23.673 1274.250, 23.672 1284.250, 23.672 1294.250, 23.672 1297.984, 23.672 " />
            <path fill="none" stroke-width="3.0" stroke-linecap="butt" stroke-opacity="1.0" stroke="rgb(0, 0, 0)" stroke-linejoin="round" d=" M 1833.249, 23.655 1827.295, 23.655 " />
            <path fill="none" stroke-width="3.0" stroke-linecap="butt" stroke-opacity="1.0" stroke="rgb(0, 0, 0)" stroke-linejoin="round" d=" M 2439.044, 23.636 2429.044, 23.636 2419.044, 23.637 2409.044, 23.637 2399.044, 23.637 2389.044, 23.638 2379.044, 23.638 2369.044, 23.638 2359.044, 23.639 2349.044, 23.639 2339.044, 23.639 2329.044, 23.640 2319.044, 23.640 2309.044, 23.640 2299.044, 23.640 2289.044, 23.641 2279.044, 23.641 2269.044, 23.641 2259.044, 23.642 2249.044, 23.642 2244.686, 23.642 " />
            <path fill="none" stroke-width="3.0" stroke-linecap="butt" stroke-opacity="1.0" stroke="rgb(0, 0, 0)" stroke-linejoin="round" d=" M 1298.172, 23.672 1288.172, 23.672 1278.172, 23.672 1268.172, 23.672 1258.172, 23.673 1248.172, 23.673 1238.172, 23.673 1228.172, 23.674 1218.172, 23.674 1208.172, 23.674 1207.023, 23.674 " />
            <path fill="none" stroke-width="3.0" stroke-linecap="butt" stroke-opacity="1.0" stroke="rgb(0, 0, 0)" stroke-linejoin="round" d=" M 2438.904, 23.636 2428.904, 23.637 2418.904, 23.637 2408.904, 23.637 2398.904, 23.637 2388.904, 23.638 2378.904, 23.638 2374.504, 23.638 " />
            <path fill="none" stroke-width="3.0" stroke-linecap="butt" stroke-opacity="1.0" stroke="rgb(0, 0, 0)" stroke-linejoin="round" d=" M 2830.320, 283.183 2825.921, 274.202 2821.522, 265.222 2817.124, 256.241 2812.725, 247.260 2808.326, 238.280 2803.928, 229.299 2799.529, 220.319 2795.130, 211.338 2790.732, 202.357 2786.333, 193.377 2781.934, 184.396 2777.536, 175.415 2773.137, 166.435 2768.738, 157.454 2764.340, 148.474 2759.941, 139.493 2755.542, 130.512 2751.144, 121.532 2746.745, 112.551 2742.346, 103.570 2737.948, 94.590 2733.549, 85.609 2729.150, 76.629 2724.751, 67.648 2720.353, 58.667 2715.954, 49.687 2711.555, 40.706 2707.157, 31.725 2703.191, 23.628 " />
            <path fill="none" stroke-width="3.0" stroke-linecap="butt" stroke-opacity="1.0" stroke="rgb(0, 0, 0)" stroke-linejoin="round" d=" M 2260.325, 1809.383 2250.325, 1809.383 2240.325, 1809.383 2236.279, 1809.383 " />
            <path fill="none" stroke-width="3.0" stroke-linecap="butt" stroke-opacity="1.0" stroke="rgb(0, 0, 0)" stroke-linejoin="round" d=" M 3402.258, 1809.382 3392.258, 1809.382 3382.258, 1809.382 3372.258, 1809.382 3362.258, 1809.382 3352.258, 1809.382 3342.258, 1809.382 3332.258, 1809.382 3322.258, 1809.382 3312.258, 1809.382 3302.258, 1809.382 3292.258, 1809.382 3282.258, 1809.382 3272.258, 1809.382 3262.258, 1809.382 3252.258, 1809.383 3242.258, 1809.383 3232.258, 1809.383 3222.258, 1809.383 3216.653, 1809.383 " />
        </g>
    </g>
<g id="slice-labels"><text x="586.8279999999999" y="470.06675" text-anchor="middle" dominant-baseline="middle" font-family="Arial, sans-serif" font-size="59.05626145857153" font-weight="bold" fill="black" stroke="none" stroke-width="7.086751375028582" paint-order="stroke fill">Slice41 (Front)</text><text x="1712.9999999999998" y="470.06675" text-anchor="middle" dominant-baseline="middle" font-family="Arial, sans-serif" font-size="59.05626145857153" font-weight="bold" fill="black" stroke="none" stroke-width="7.086751375028582" paint-order="stroke fill">Slice41 (Front)</text><text x="2839.172" y="470.06675" text-anchor="middle" dominant-baseline="middle" font-family="Arial, sans-serif" font-size="59.05626145857153" font-weight="bold" fill="black" stroke="none" stroke-width="7.086751375028582" paint-order="stroke fill">Slice41 (Front)</text><text x="586.8279999999999" y="1362.94425" text-anchor="middle" dominant-baseline="middle" font-family="Arial, sans-serif" font-size="59.05626145857153" font-weight="bold" fill="black" stroke="none" stroke-width="7.086751375028582" paint-order="stroke fill">Slice41 (Front)</text><text x="1712.9999999999998" y="1362.94425" text-anchor="middle" dominant-baseline="middle" font-family="Arial, sans-serif" font-size="59.05626145857153" font-weight="bold" fill="black" stroke="none" stroke-width="7.086751375028582" paint-order="stroke fill">Slice41 (Front)</text><text x="2839.172" y="1362.94425" text-anchor="middle" dominant-baseline="middle" font-family="Arial, sans-serif" font-size="59.05626145857153" font-weight="bold" fill="black" stroke="none" stroke-width="7.086751375028582" paint-order="stroke fill">Slice41 (Front)</text></g></svg>