<?xml version='1.0' encoding='utf-8'?>
<svg xmlns="http://www.w3.org/2000/svg" xmlns:inkscape="http://www.inkscape.org/namespaces/inkscape" version="1.1" width="542.0319720134139mm" height="233.14087772369385mm" viewBox="-0.39320196045727585 0.004795916912783582 6402.807403920914 2754.0004081661746" preserveAspectRatio="none">
    <g id="ViewLayer_LineSet" inkscape:groupmode="lineset" inkscape:label="ViewLayer_LineSet">
        <g inkscape:groupmode="layer" id="strokes" inkscape:label="strokes">
            <path fill="none" stroke-width="3.0" stroke-linecap="butt" stroke-opacity="1.0" stroke="rgb(0, 0, 0)" stroke-linejoin="round" d=" M 25.357, 2157.816 25.556, 2167.814 25.755, 2177.812 25.953, 2187.810 26.152, 2197.808 26.351, 2207.807 26.549, 2217.805 26.748, 2227.803 26.947, 2237.801 27.145, 2247.799 27.344, 2257.797 27.543, 2267.795 27.741, 2277.793 27.940, 2287.791 28.139, 2297.789 28.337, 2307.787 28.536, 2317.785 28.735, 2327.783 28.934, 2337.781 29.132, 2347.779 29.331, 2357.777 29.530, 2367.775 29.728, 2377.773 29.927, 2387.771 30.126, 2397.769 30.324, 2407.767 30.523, 2417.765 30.722, 2427.763 30.920, 2437.761 31.119, 2447.759 31.318, 2457.757 31.516, 2467.755 31.715, 2477.753 31.914, 2487.751 32.108, 2497.531 29.948, 2507.295 27.788, 2517.059 25.628, 2526.822 23.468, 2536.586 23.232, 2537.653 " />
            <path fill="none" stroke-width="3.0" stroke-linecap="butt" stroke-opacity="1.0" stroke="rgb(0, 0, 0)" stroke-linejoin="round" d=" M 65.774, 2730.380 75.774, 2730.380 85.774, 2730.380 95.774, 2730.380 105.774, 2730.380 115.774, 2730.380 125.774, 2730.380 135.774, 2730.380 145.774, 2730.380 155.774, 2730.380 165.774, 2730.380 175.774, 2730.380 185.774, 2730.380 195.774, 2730.380 205.774, 2730.380 215.774, 2730.380 225.774, 2730.380 235.774, 2730.380 245.774, 2730.380 255.774, 2730.380 265.774, 2730.380 275.774, 2730.380 285.774, 2730.380 295.774, 2730.380 305.774, 2730.380 315.774, 2730.380 325.774, 2730.380 335.774, 2730.380 345.774, 2730.380 355.774, 2730.380 365.774, 2730.380 375.774, 2730.380 385.774, 2730.380 395.774, 2730.380 405.774, 2730.380 415.774, 2730.380 425.774, 2730.380 435.774, 2730.380 445.774, 2730.380 455.774, 2730.380 465.774, 2730.380 475.774, 2730.380 485.774, 2730.380 495.774, 2730.380 505.774, 2730.380 515.774, 2730.380 525.774, 2730.380 535.774, 2730.380 545.774, 2730.380 555.774, 2730.380 565.774, 2730.380 575.774, 2730.380 585.774, 2730.380 595.774, 2730.380 605.774, 2730.380 615.774, 2730.380 625.774, 2730.380 635.774, 2730.380 645.774, 2730.380 655.774, 2730.380 665.774, 2730.380 675.774, 2730.380 685.774, 2730.380 695.774, 2730.380 705.774, 2730.380 715.774, 2730.380 725.774, 2730.380 735.774, 2730.380 745.774, 2730.380 755.774, 2730.380 765.774, 2730.380 775.774, 2730.380 785.774, 2730.380 795.774, 2730.380 805.774, 2730.380 815.774, 2730.380 825.774, 2730.380 835.774, 2730.380 845.774, 2730.380 855.774, 2730.380 865.774, 2730.380 875.774, 2730.380 885.774, 2730.380 895.774, 2730.380 905.774, 2730.380 915.774, 2730.380 925.774, 2730.380 935.774, 2730.380 945.774, 2730.380 955.774, 2730.380 965.774, 2730.380 975.774, 2730.380 985.774, 2730.380 995.774, 2730.380 1005.774, 2730.380 1015.774, 2730.380 1027.367, 2730.380 1037.367, 2730.380 1047.367, 2730.380 1057.367, 2730.380 1067.367, 2730.380 1077.367, 2730.380 1087.367, 2730.380 1097.367, 2730.380 1107.367, 2730.380 1117.367, 2730.380 1127.367, 2730.380 1137.367, 2730.380 1147.367, 2730.380 1157.367, 2730.380 1167.367, 2730.380 1177.367, 2730.380 1187.367, 2730.380 1197.367, 2730.380 1207.367, 2730.380 1217.367, 2730.380 1227.367, 2730.380 1237.367, 2730.380 1247.367, 2730.380 1257.367, 2730.380 1267.367, 2730.380 1277.367, 2730.380 1287.367, 2730.380 1297.367, 2730.380 1307.367, 2730.380 1317.367, 2730.380 1327.367, 2730.380 1337.367, 2730.380 1347.367, 2730.380 1357.367, 2730.380 1367.367, 2730.380 1377.367, 2730.380 1387.367, 2730.380 1397.367, 2730.380 1407.367, 2730.380 1417.367, 2730.380 1427.367, 2730.380 1437.367, 2730.380 1447.367, 2730.380 1457.367, 2730.380 1467.367, 2730.380 1477.367, 2730.380 1487.367, 2730.380 1497.367, 2730.380 1507.367, 2730.380 1517.367, 2730.380 1527.367, 2730.380 1537.367, 2730.380 1547.367, 2730.380 1557.367, 2730.380 1567.367, 2730.380 1577.367, 2730.380 1587.367, 2730.380 1597.367, 2730.380 1607.367, 2730.380 1617.367, 2730.380 1627.367, 2730.380 1637.367, 2730.380 1647.367, 2730.380 1657.367, 2730.380 1667.367, 2730.380 1677.367, 2730.380 1687.367, 2730.380 1697.367, 2730.380 1707.367, 2730.380 1717.367, 2730.380 1727.367, 2730.380 1737.367, 2730.380 1747.367, 2730.380 1757.367, 2730.380 1767.367, 2730.380 1777.367, 2730.380 1787.367, 2730.380 1797.367, 2730.380 1807.367, 2730.380 1821.256, 2730.380 " />
            <path fill="none" stroke-width="3.0" stroke-linecap="butt" stroke-opacity="1.0" stroke="rgb(0, 0, 0)" stroke-linejoin="round" d=" M 23.232, 2537.653 26.365, 2547.149 29.499, 2556.646 32.632, 2566.142 35.766, 2575.638 38.900, 2585.135 42.081, 2594.776 43.802, 2604.626 45.523, 2614.477 47.244, 2624.328 48.965, 2634.179 50.687, 2644.029 52.408, 2653.880 54.129, 2663.731 55.850, 2673.582 57.571, 2683.432 59.292, 2693.283 61.013, 2703.134 62.735, 2712.985 64.456, 2722.836 65.774, 2730.380 " />
            <path fill="none" stroke-width="3.0" stroke-linecap="butt" stroke-opacity="1.0" stroke="rgb(0, 0, 0)" stroke-linejoin="round" d=" M 100.882, 1546.897 100.937, 1556.897 100.992, 1566.897 101.047, 1576.897 101.102, 1586.897 101.157, 1596.897 101.211, 1606.896 101.266, 1616.896 101.321, 1626.896 101.376, 1636.896 101.431, 1646.896 101.485, 1656.896 101.540, 1666.896 101.595, 1676.895 101.650, 1686.895 101.705, 1696.895 101.759, 1706.895 101.814, 1716.895 101.869, 1726.895 101.924, 1736.894 101.979, 1746.894 102.033, 1756.894 102.088, 1766.894 102.143, 1776.894 102.201, 1787.389 100.169, 1797.181 98.138, 1806.972 96.107, 1816.764 94.076, 1826.555 92.045, 1836.347 90.013, 1846.138 87.982, 1855.930 85.951, 1865.721 83.920, 1875.513 81.888, 1885.304 79.857, 1895.096 77.826, 1904.888 75.795, 1914.679 73.764, 1924.471 71.732, 1934.262 69.701, 1944.054 67.670, 1953.845 65.639, 1963.637 63.608, 1973.428 61.576, 1983.220 59.545, 1993.011 57.514, 2002.803 55.483, 2012.594 53.452, 2022.386 51.420, 2032.178 49.389, 2041.969 47.358, 2051.761 45.327, 2061.552 43.296, 2071.344 41.264, 2081.135 39.233, 2090.927 37.202, 2100.718 35.171, 2110.510 33.140, 2120.301 31.108, 2130.093 29.077, 2139.884 27.046, 2149.676 25.357, 2157.816 " />
            <path fill="none" stroke-width="3.0" stroke-linecap="butt" stroke-opacity="1.0" stroke="rgb(0, 0, 0)" stroke-linejoin="round" d=" M 96.152, 870.074 95.504, 880.053 94.857, 890.032 94.209, 900.011 93.562, 909.990 92.914, 919.969 92.267, 929.948 91.619, 939.927 90.972, 949.906 90.324, 959.886 89.677, 969.865 89.029, 979.844 88.382, 989.823 87.734, 999.802 87.087, 1009.781 86.439, 1019.760 85.792, 1029.739 85.144, 1039.718 84.497, 1049.697 83.850, 1059.676 83.202, 1069.655 82.555, 1079.634 81.907, 1089.613 81.260, 1099.592 80.612, 1109.571 79.965, 1119.550 79.317, 1129.529 78.670, 1139.508 78.022, 1149.487 77.375, 1159.466 76.727, 1169.445 76.080, 1179.424 75.432, 1189.403 74.785, 1199.382 74.137, 1209.361 73.490, 1219.340 72.842, 1229.319 72.195, 1239.298 71.547, 1249.277 70.900, 1259.256 70.252, 1269.235 69.605, 1279.214 68.957, 1289.193 68.310, 1299.172 67.662, 1309.151 66.755, 1323.129 68.263, 1333.015 69.771, 1342.900 71.278, 1352.786 72.786, 1362.672 74.294, 1372.557 75.801, 1382.443 77.309, 1392.329 78.817, 1402.214 80.324, 1412.100 81.832, 1421.986 83.340, 1431.872 84.848, 1441.757 86.355, 1451.643 87.863, 1461.529 89.371, 1471.414 90.878, 1481.300 92.386, 1491.186 93.894, 1501.071 95.401, 1510.957 96.909, 1520.843 98.417, 1530.729 99.924, 1540.614 100.882, 1546.897 " />
            <path fill="none" stroke-width="3.0" stroke-linecap="butt" stroke-opacity="1.0" stroke="rgb(0, 0, 0)" stroke-linejoin="round" d=" M 178.172, 552.102 175.497, 561.737 172.823, 571.373 170.148, 581.009 167.473, 590.644 164.798, 600.280 162.124, 609.916 159.449, 619.551 156.774, 629.187 154.100, 638.823 151.425, 648.458 148.750, 658.094 146.075, 667.729 143.401, 677.365 140.726, 687.001 138.051, 696.636 135.376, 706.272 132.702, 715.908 130.027, 725.543 127.352, 735.179 124.678, 744.815 122.003, 754.450 119.328, 764.086 116.653, 773.722 113.979, 783.357 111.304, 792.993 108.629, 802.629 105.954, 812.264 105.008, 815.675 103.401, 825.545 101.794, 835.415 100.187, 845.285 98.581, 855.155 96.974, 865.025 96.152, 870.074 " />
            <path fill="none" stroke-width="3.0" stroke-linecap="butt" stroke-opacity="1.0" stroke="rgb(0, 0, 0)" stroke-linejoin="round" d=" M 1749.166, 2254.370 1749.648, 2244.382 1750.130, 2234.394 1750.612, 2224.405 1751.094, 2214.417 1751.575, 2204.429 1752.057, 2194.440 1752.539, 2184.452 1752.813, 2178.771 1755.044, 2169.023 1757.275, 2159.275 1759.506, 2149.527 1761.737, 2139.779 1763.968, 2130.031 1766.199, 2120.283 1768.430, 2110.535 1770.661, 2100.787 1772.892, 2091.039 1775.123, 2081.292 1777.354, 2071.544 1779.585, 2061.796 1781.816, 2052.048 1784.047, 2042.300 1786.278, 2032.552 1788.509, 2022.804 1790.740, 2013.056 1792.971, 2003.308 1795.051, 1994.222 " />
            <path fill="none" stroke-width="3.0" stroke-linecap="butt" stroke-opacity="1.0" stroke="rgb(0, 0, 0)" stroke-linejoin="round" d=" M 1795.051, 1994.222 1796.618, 1984.345 1798.184, 1974.469 1799.750, 1964.592 1801.317, 1954.715 1802.883, 1944.839 1804.450, 1934.962 1806.016, 1925.086 1807.583, 1915.209 1809.149, 1905.333 1810.716, 1895.456 1812.282, 1885.580 1813.849, 1875.703 1815.415, 1865.827 1816.982, 1855.950 1818.548, 1846.073 1820.114, 1836.197 1821.681, 1826.320 1823.247, 1816.444 1824.814, 1806.567 1826.380, 1796.691 1827.947, 1786.814 1829.513, 1776.938 1831.080, 1767.061 1832.646, 1757.185 1834.213, 1747.308 1835.779, 1737.431 1837.345, 1727.555 1838.912, 1717.678 1840.478, 1707.802 1842.045, 1697.925 1843.041, 1691.643 1841.750, 1681.727 1840.460, 1671.811 1839.169, 1661.894 1837.878, 1651.978 1836.587, 1642.062 1835.297, 1632.145 1834.006, 1622.229 1832.715, 1612.312 1831.424, 1602.396 1830.133, 1592.480 1828.843, 1582.563 1827.552, 1572.647 1826.261, 1562.731 1824.970, 1552.814 1823.679, 1542.898 1822.389, 1532.982 1821.098, 1523.065 1819.807, 1513.149 1818.516, 1503.233 1817.225, 1493.316 1815.935, 1483.400 1814.644, 1473.484 1813.353, 1463.567 1812.062, 1453.651 1810.771, 1443.735 1809.481, 1433.818 1808.190, 1423.902 1806.899, 1413.986 1805.608, 1404.069 1804.318, 1394.153 1803.027, 1384.237 1801.736, 1374.320 1800.445, 1364.404 1799.154, 1354.488 1797.864, 1344.571 1796.573, 1334.655 1795.282, 1324.739 1793.991, 1314.822 1792.700, 1304.906 1791.410, 1294.990 1790.820, 1290.459 1791.439, 1280.478 1792.057, 1270.497 1792.676, 1260.516 1793.295, 1250.535 1793.913, 1240.554 1794.532, 1230.574 1795.151, 1220.593 1795.769, 1210.612 1796.388, 1200.631 1797.007, 1190.650 1797.625, 1180.669 1798.244, 1170.689 1798.863, 1160.708 1799.481, 1150.727 1800.100, 1140.746 1800.719, 1130.765 1801.338, 1120.784 1801.696, 1115.010 1804.514, 1105.415 1807.333, 1095.821 1810.151, 1086.226 1812.970, 1076.631 1815.789, 1067.037 1817.409, 1061.523 " />
            <path fill="none" stroke-width="3.0" stroke-linecap="butt" stroke-opacity="1.0" stroke="rgb(0, 0, 0)" stroke-linejoin="round" d=" M 1934.560, 23.630 1924.560, 23.630 1914.560, 23.630 1904.560, 23.630 1894.560, 23.630 1884.560, 23.630 1874.560, 23.630 1864.560, 23.630 1854.560, 23.630 1844.560, 23.630 1834.560, 23.630 1824.560, 23.630 1814.560, 23.630 1804.560, 23.630 1794.560, 23.630 1784.560, 23.630 1774.560, 23.630 1764.560, 23.630 1754.560, 23.630 1744.560, 23.630 1734.560, 23.630 1724.560, 23.630 1714.560, 23.630 1704.560, 23.630 1694.560, 23.630 1684.560, 23.630 1674.560, 23.630 1664.560, 23.630 1654.560, 23.630 1644.560, 23.630 1634.560, 23.630 1624.560, 23.630 1614.560, 23.630 1604.560, 23.630 1594.560, 23.630 1584.560, 23.630 1574.560, 23.630 1564.560, 23.630 1554.560, 23.630 1544.560, 23.630 1534.560, 23.630 1524.560, 23.630 1514.560, 23.630 1504.560, 23.630 1494.560, 23.630 1484.560, 23.630 1474.560, 23.630 1464.560, 23.630 1454.560, 23.630 1444.560, 23.630 1434.560, 23.630 1424.560, 23.630 1414.560, 23.630 1404.560, 23.630 1394.560, 23.630 1384.560, 23.630 1374.560, 23.630 1364.560, 23.630 1348.773, 23.630 1338.773, 23.630 1328.773, 23.630 1318.773, 23.630 1308.773, 23.630 1298.773, 23.630 1288.773, 23.630 1278.773, 23.630 1268.773, 23.630 1258.773, 23.630 1248.773, 23.630 1238.773, 23.630 1228.773, 23.630 1218.773, 23.630 1208.773, 23.630 1198.773, 23.630 1188.773, 23.630 1178.773, 23.630 1168.773, 23.630 1158.773, 23.630 1148.773, 23.630 1138.773, 23.630 1128.773, 23.630 1118.773, 23.630 1108.773, 23.630 1098.773, 23.630 1088.773, 23.630 1078.773, 23.630 1068.773, 23.630 1058.773, 23.630 1048.773, 23.630 1038.773, 23.630 1028.773, 23.630 1018.773, 23.630 1008.773, 23.630 998.773, 23.630 988.773, 23.630 978.773, 23.630 968.773, 23.630 958.773, 23.630 948.773, 23.630 938.773, 23.630 928.773, 23.630 918.773, 23.630 908.773, 23.630 898.773, 23.630 888.773, 23.630 878.773, 23.630 868.773, 23.630 858.773, 23.630 848.773, 23.630 838.773, 23.630 828.773, 23.630 818.773, 23.630 808.773, 23.630 798.773, 23.630 788.773, 23.630 778.773, 23.630 768.773, 23.630 758.773, 23.630 748.773, 23.630 738.773, 23.630 728.773, 23.630 718.773, 23.630 708.773, 23.630 698.773, 23.630 688.773, 23.630 678.773, 23.630 668.773, 23.630 658.773, 23.630 648.773, 23.630 638.773, 23.630 628.773, 23.630 618.773, 23.630 608.773, 23.630 598.773, 23.630 588.773, 23.630 578.773, 23.630 568.773, 23.630 558.773, 23.630 548.773, 23.630 538.773, 23.630 528.773, 23.630 518.773, 23.630 508.773, 23.630 498.773, 23.630 488.773, 23.630 478.773, 23.630 468.773, 23.630 458.773, 23.630 448.773, 23.630 438.773, 23.630 428.773, 23.630 418.773, 23.630 408.773, 23.630 398.773, 23.630 388.773, 23.630 378.773, 23.630 368.773, 23.630 358.773, 23.630 348.773, 23.630 338.773, 23.630 328.773, 23.630 318.773, 23.630 308.773, 23.630 298.773, 23.630 288.773, 23.630 278.773, 23.630 268.773, 23.630 258.773, 23.630 248.773, 23.630 238.773, 23.630 228.773, 23.630 213.233, 23.630 205.443, 23.630 206.038, 33.613 206.634, 43.595 207.229, 53.577 207.825, 63.559 208.420, 73.542 209.016, 83.524 209.611, 93.506 210.206, 103.488 210.802, 113.470 211.397, 123.453 211.993, 133.435 212.588, 143.417 213.184, 153.400 213.779, 163.382 214.375, 173.364 214.970, 183.346 215.566, 193.329 216.161, 203.311 216.756, 213.293 217.352, 223.275 217.947, 233.258 218.543, 243.240 219.138, 253.222 219.734, 263.204 220.329, 273.187 220.925, 283.169 221.520, 293.151 222.116, 303.133 222.711, 313.116 223.307, 323.098 223.902, 333.080 224.497, 343.062 225.089, 352.976 " />
            <path fill="none" stroke-width="3.0" stroke-linecap="butt" stroke-opacity="1.0" stroke="rgb(0, 0, 0)" stroke-linejoin="round" d=" M 1817.409, 1061.523 1819.848, 1051.825 1822.288, 1042.127 1824.727, 1032.430 1827.167, 1022.732 1829.607, 1013.034 1832.046, 1003.336 1834.486, 993.638 1836.926, 983.940 1839.365, 974.242 1841.805, 964.545 1844.244, 954.847 1846.684, 945.149 1849.124, 935.451 1851.563, 925.753 1854.003, 916.055 1856.443, 906.358 1858.882, 896.660 1861.322, 886.962 1863.761, 877.264 1866.201, 867.566 1868.641, 857.868 1871.080, 848.170 1873.520, 838.473 1875.959, 828.775 1878.399, 819.077 1880.839, 809.379 1883.278, 799.681 1885.718, 789.983 1888.157, 780.286 1890.597, 770.588 1893.037, 760.890 1895.476, 751.192 1897.916, 741.494 1900.356, 731.796 1902.795, 722.098 1905.235, 712.401 1907.674, 702.703 1910.114, 693.005 1912.554, 683.307 1914.993, 673.609 1917.433, 663.911 1919.873, 654.213 1922.312, 644.516 1924.752, 634.818 1927.191, 625.120 1929.631, 615.422 1932.568, 603.749 1934.329, 593.905 1936.090, 584.062 1937.851, 574.218 1939.612, 564.374 1941.373, 554.531 1941.987, 551.102 1941.846, 541.103 1941.705, 531.104 1941.564, 521.105 1941.424, 511.106 1941.283, 501.107 1941.142, 491.108 1941.001, 481.109 1940.860, 471.110 1940.720, 461.111 1940.579, 451.112 1940.438, 441.113 1940.297, 431.114 1940.156, 421.115 1940.016, 411.116 1939.875, 401.117 1939.734, 391.118 1939.593, 381.119 1939.453, 371.120 1939.312, 361.121 1939.171, 351.122 1939.030, 341.123 1938.890, 331.124 1938.749, 321.125 1938.608, 311.125 1938.467, 301.126 1938.326, 291.127 1938.186, 281.128 1938.045, 271.129 1937.904, 261.130 1937.763, 251.132 1937.622, 241.133 1937.482, 231.134 1937.341, 221.135 1937.200, 211.135 1937.059, 201.136 1936.919, 191.137 1936.778, 181.138 1936.637, 171.139 1936.496, 161.140 1936.355, 151.141 1936.215, 141.142 1936.074, 131.143 1935.933, 121.144 1935.792, 111.145 1935.651, 101.146 1935.511, 91.147 1935.370, 81.148 1935.229, 71.149 1935.088, 61.150 1934.948, 51.151 1934.807, 41.152 1934.666, 31.153 1934.560, 23.630 " />
            <path fill="none" stroke-width="3.0" stroke-linecap="butt" stroke-opacity="1.0" stroke="rgb(0, 0, 0)" stroke-linejoin="round" d=" M 4045.779, 23.720 4045.440, 23.630 4041.028, 32.604 4036.615, 41.578 4032.202, 50.552 4027.790, 59.525 4023.377, 68.499 4018.964, 77.473 4014.551, 86.446 4010.139, 95.420 4005.726, 104.394 4001.313, 113.367 3996.900, 122.341 3992.488, 131.315 3988.075, 140.289 3983.662, 149.262 3979.250, 158.236 3974.837, 167.210 3970.424, 176.184 3966.011, 185.157 3961.599, 194.131 3957.186, 203.105 3952.773, 212.079 3948.360, 221.052 3943.948, 230.026 3940.168, 237.712 3937.453, 247.336 3934.737, 256.960 3932.022, 266.584 3929.306, 276.209 3926.591, 285.833 3923.875, 295.457 3921.160, 305.082 3918.444, 314.706 3915.729, 324.330 3913.013, 333.954 3910.298, 343.578 3907.582, 353.203 3904.867, 362.827 3902.151, 372.451 3899.436, 382.075 3896.720, 391.700 3894.005, 401.324 3891.289, 410.948 3888.574, 420.573 3885.858, 430.197 3883.143, 439.821 3880.427, 449.445 3877.712, 459.069 3874.996, 468.694 3872.281, 478.318 3869.565, 487.942 3866.850, 497.566 3864.135, 507.191 3861.419, 516.815 3858.703, 526.439 3855.988, 536.063 3853.272, 545.688 3850.557, 555.312 3847.842, 564.936 3845.126, 574.560 3842.410, 584.185 3839.695, 593.809 3836.979, 603.433 3834.264, 613.057 3831.549, 622.682 3828.833, 632.306 3826.118, 641.930 3823.402, 651.554 3820.687, 661.178 3817.971, 670.803 3815.256, 680.427 3812.540, 690.051 3809.825, 699.676 3807.109, 709.300 3804.394, 718.924 3801.678, 728.548 3798.963, 738.172 3796.247, 747.797 3793.532, 757.421 3790.816, 767.045 3788.101, 776.669 3785.385, 786.294 3782.670, 795.918 3779.954, 805.542 3777.239, 815.167 3774.523, 824.791 3771.808, 834.415 3769.092, 844.039 3766.377, 853.663 3763.661, 863.288 3760.946, 872.912 3756.608, 888.286 3757.041, 898.277 3757.473, 908.268 3757.906, 918.258 3758.339, 928.249 3758.771, 938.240 3759.204, 948.230 3759.637, 958.221 3760.070, 968.211 3760.502, 978.202 3760.935, 988.193 3761.368, 998.183 3761.801, 1008.174 3762.233, 1018.165 3762.666, 1028.155 3763.099, 1038.146 3763.531, 1048.136 3763.964, 1058.127 3764.397, 1068.118 3764.829, 1078.108 3765.262, 1088.099 3765.695, 1098.090 3766.128, 1108.080 3766.560, 1118.071 3766.993, 1128.062 3767.426, 1138.052 3767.858, 1148.043 3768.291, 1158.033 3768.724, 1168.024 3769.156, 1178.015 3769.589, 1188.005 3770.022, 1197.996 3770.455, 1207.987 3770.887, 1217.977 3771.320, 1227.968 3771.753, 1237.958 3772.186, 1247.949 3772.618, 1257.940 3773.051, 1267.930 3773.484, 1277.921 3773.917, 1287.912 3774.349, 1297.902 3774.782, 1307.893 3775.215, 1317.884 3775.647, 1327.874 3776.080, 1337.865 3776.513, 1347.855 3776.945, 1357.846 3777.378, 1367.837 3777.811, 1377.827 3778.243, 1387.818 3778.676, 1397.809 3779.109, 1407.799 3779.542, 1417.790 3779.974, 1427.781 3780.407, 1437.771 3780.840, 1447.762 3781.272, 1457.752 3781.705, 1467.743 3782.138, 1477.734 3782.571, 1487.724 3783.003, 1497.715 3783.436, 1507.706 3783.869, 1517.696 3784.302, 1527.687 3784.734, 1537.677 3785.167, 1547.668 3785.600, 1557.659 3786.032, 1567.649 3786.465, 1577.640 3786.898, 1587.631 3787.331, 1597.621 3787.763, 1607.612 3788.196, 1617.603 3788.629, 1627.593 3789.061, 1637.584 3789.494, 1647.574 3789.927, 1657.565 3790.359, 1667.556 3790.755, 1676.696 3785.147, 1684.975 3779.540, 1693.255 3773.932, 1701.534 3768.324, 1709.814 3762.716, 1718.094 3757.109, 1726.373 3751.501, 1734.653 3745.893, 1742.933 3740.285, 1751.212 3734.677, 1759.492 3729.070, 1767.772 3723.462, 1776.051 3717.854, 1784.331 3712.246, 1792.611 3706.638, 1800.890 3701.031, 1809.170 3695.423, 1817.450 3691.682, 1822.972 " />
            <path fill="none" stroke-width="3.0" stroke-linecap="butt" stroke-opacity="1.0" stroke="rgb(0, 0, 0)" stroke-linejoin="round" d=" M 3691.682, 1822.972 3690.930, 1832.944 3690.178, 1842.916 3689.427, 1852.887 3688.675, 1862.859 3687.923, 1872.831 3687.171, 1882.802 3686.419, 1892.774 3685.667, 1902.746 3684.916, 1912.717 3684.164, 1922.689 3683.412, 1932.661 3682.660, 1942.633 3681.908, 1952.604 3681.156, 1962.576 3680.405, 1972.548 3679.653, 1982.519 3678.901, 1992.491 3678.149, 2002.463 3677.397, 2012.434 3676.646, 2022.406 3675.894, 2032.378 3675.142, 2042.349 3674.390, 2052.321 3673.638, 2062.293 3672.886, 2072.265 3672.135, 2082.236 3671.383, 2092.208 3670.631, 2102.180 3669.879, 2112.151 3669.127, 2122.123 3668.375, 2132.095 3667.624, 2142.066 3666.872, 2152.038 3666.120, 2162.010 3665.368, 2171.982 3664.616, 2181.953 3663.865, 2191.925 3663.113, 2201.897 3662.361, 2211.868 3661.609, 2221.840 3660.857, 2231.812 3660.105, 2241.783 3659.354, 2251.755 3658.602, 2261.727 3657.850, 2271.699 3657.098, 2281.670 3656.346, 2291.642 3655.594, 2301.614 3654.843, 2311.585 3654.091, 2321.557 3653.339, 2331.529 3652.587, 2341.500 3651.835, 2351.472 3651.083, 2361.444 3650.332, 2371.415 3649.580, 2381.387 3648.828, 2391.359 3648.076, 2401.331 3647.324, 2411.302 3646.572, 2421.274 3645.821, 2431.246 3645.069, 2441.217 3644.317, 2451.189 3643.565, 2461.161 3642.813, 2471.132 3642.061, 2481.104 3641.310, 2491.076 3640.558, 2501.048 3639.806, 2511.019 3639.054, 2520.991 3638.302, 2530.963 3637.550, 2540.934 3636.799, 2550.906 3636.047, 2560.878 3635.295, 2570.849 3634.543, 2580.821 3633.791, 2590.793 3633.039, 2600.765 3632.288, 2610.736 3631.536, 2620.708 3630.784, 2630.680 3630.032, 2640.651 3629.280, 2650.623 3628.528, 2660.595 3627.777, 2670.566 3627.025, 2680.538 3626.273, 2690.510 3625.521, 2700.482 3624.769, 2710.453 3624.017, 2720.425 3623.267, 2730.380 3626.575, 2730.380 3636.575, 2730.380 3646.575, 2730.380 3656.575, 2730.380 3666.575, 2730.380 3676.575, 2730.380 3686.575, 2730.380 3696.575, 2730.380 3706.575, 2730.380 3716.575, 2730.380 3726.575, 2730.380 3736.575, 2730.380 3746.575, 2730.380 3756.575, 2730.380 3766.575, 2730.380 3776.575, 2730.380 3786.575, 2730.380 3796.575, 2730.380 3806.576, 2730.380 3816.575, 2730.380 3826.575, 2730.380 3836.575, 2730.380 3846.575, 2730.380 3856.576, 2730.380 3866.575, 2730.380 3876.575, 2730.380 3886.576, 2730.380 3896.575, 2730.380 3906.575, 2730.380 3916.576, 2730.380 3926.575, 2730.380 3936.576, 2730.380 3946.576, 2730.380 3950.758, 2730.380 3960.758, 2730.380 3970.758, 2730.380 3980.758, 2730.380 3990.758, 2730.380 4000.758, 2730.380 4010.758, 2730.380 4020.758, 2730.380 4030.758, 2730.380 4040.758, 2730.380 4050.758, 2730.380 4060.758, 2730.380 4070.758, 2730.380 4080.758, 2730.380 4090.758, 2730.380 4100.758, 2730.380 4110.758, 2730.380 4120.758, 2730.380 4130.758, 2730.380 4140.758, 2730.380 4150.758, 2730.380 4160.758, 2730.380 4170.758, 2730.380 4180.758, 2730.380 4190.758, 2730.380 4200.758, 2730.380 4210.758, 2730.380 4220.758, 2730.380 4230.758, 2730.380 4240.758, 2730.380 4250.758, 2730.380 4260.758, 2730.380 4270.758, 2730.380 4280.758, 2730.380 4290.758, 2730.380 4300.758, 2730.380 4310.758, 2730.380 4320.758, 2730.380 4330.758, 2730.380 4340.758, 2730.380 4350.758, 2730.380 4360.758, 2730.380 4370.758, 2730.380 4380.758, 2730.380 4390.758, 2730.380 4400.758, 2730.380 4410.758, 2730.380 4420.758, 2730.380 4430.758, 2730.380 4440.758, 2730.380 4450.758, 2730.380 4460.758, 2730.380 4470.758, 2730.380 4480.758, 2730.380 4490.758, 2730.380 4500.758, 2730.380 4510.758, 2730.380 4520.758, 2730.380 4530.758, 2730.380 4540.758, 2730.380 4550.758, 2730.380 4560.758, 2730.380 4570.758, 2730.380 4580.758, 2730.380 4590.758, 2730.380 4600.758, 2730.380 4610.758, 2730.380 4620.758, 2730.380 4630.758, 2730.380 4640.758, 2730.380 4650.758, 2730.380 4660.758, 2730.380 4670.758, 2730.380 4680.758, 2730.380 4690.758, 2730.380 4700.758, 2730.380 4710.758, 2730.380 4720.758, 2730.380 4730.758, 2730.380 4740.758, 2730.380 4750.758, 2730.380 4760.758, 2730.380 4770.758, 2730.380 4780.758, 2730.380 4790.758, 2730.380 4800.758, 2730.380 4810.758, 2730.380 4820.758, 2730.380 4830.758, 2730.380 4840.758, 2730.380 4850.758, 2730.380 4860.758, 2730.380 4870.758, 2730.380 4880.758, 2730.380 4890.758, 2730.380 4900.758, 2730.380 4910.758, 2730.380 4920.758, 2730.380 4930.758, 2730.380 4940.758, 2730.380 4950.758, 2730.380 4960.758, 2730.380 4970.758, 2730.380 4980.758, 2730.380 4990.758, 2730.380 5000.758, 2730.380 5010.758, 2730.380 5020.758, 2730.380 5030.758, 2730.380 5040.758, 2730.380 5050.758, 2730.380 5060.758, 2730.380 5070.758, 2730.380 5080.758, 2730.380 5090.758, 2730.380 5100.758, 2730.380 5110.758, 2730.380 5120.758, 2730.380 5130.758, 2730.380 5140.758, 2730.380 5150.758, 2730.380 5160.758, 2730.380 5170.758, 2730.380 5180.758, 2730.380 5190.758, 2730.380 5200.758, 2730.380 5210.758, 2730.380 5220.758, 2730.380 5230.758, 2730.380 5240.758, 2730.380 5250.758, 2730.380 5260.758, 2730.380 5270.758, 2730.380 5280.758, 2730.380 5290.758, 2730.380 5300.758, 2730.380 5310.758, 2730.380 5320.758, 2730.380 5330.758, 2730.380 5340.758, 2730.380 5350.758, 2730.380 5360.758, 2730.380 5370.758, 2730.380 5380.758, 2730.380 5390.758, 2730.380 5400.758, 2730.380 5410.758, 2730.380 5420.758, 2730.380 5430.758, 2730.380 5440.758, 2730.380 5450.758, 2730.380 5460.758, 2730.380 5470.758, 2730.380 5480.758, 2730.380 5490.758, 2730.380 5500.758, 2730.380 5510.758, 2730.380 5520.758, 2730.380 5530.758, 2730.380 5540.758, 2730.380 5550.758, 2730.380 5560.758, 2730.380 5570.758, 2730.380 5580.758, 2730.380 5590.758, 2730.380 5600.758, 2730.380 5610.758, 2730.380 5620.758, 2730.380 5630.758, 2730.380 5640.758, 2730.380 5650.758, 2730.380 5660.758, 2730.380 5670.758, 2730.380 5680.758, 2730.380 5690.758, 2730.380 5700.758, 2730.380 5710.758, 2730.380 5720.758, 2730.380 5745.146, 2730.380 5755.146, 2730.380 5765.146, 2730.380 5775.146, 2730.380 5785.146, 2730.380 5788.809, 2730.380 5788.922, 2720.381 5789.036, 2710.381 5789.149, 2700.382 5789.262, 2690.383 5789.375, 2680.383 5789.489, 2670.384 5789.602, 2660.384 5789.715, 2650.385 5789.829, 2640.386 5789.942, 2630.386 5790.055, 2620.387 5790.168, 2610.388 5790.282, 2600.388 5790.395, 2590.389 5790.508, 2580.390 5790.622, 2570.390 5790.735, 2560.391 5790.848, 2550.392 5790.961, 2540.392 5791.075, 2530.393 5791.188, 2520.393 5791.301, 2510.394 5791.404, 2501.315 " />
            <path fill="none" stroke-width="3.0" stroke-linecap="butt" stroke-opacity="1.0" stroke="rgb(0, 0, 0)" stroke-linejoin="round" d=" M 4786.908, 976.484 4784.718, 974.991 4782.605, 973.391 4780.575, 971.687 4778.632, 969.884 " />
            <path fill="none" stroke-width="3.0" stroke-linecap="butt" stroke-opacity="1.0" stroke="rgb(0, 0, 0)" stroke-linejoin="round" d=" M 4776.781, 967.987 4775.028, 966.000 4773.375, 963.928 4771.828, 961.775 4770.390, 959.549 " />
            <path fill="none" stroke-width="3.0" stroke-linecap="butt" stroke-opacity="1.0" stroke="rgb(0, 0, 0)" stroke-linejoin="round" d=" M 4796.328, 981.313 4793.885, 980.284 4791.498, 979.134 4789.170, 977.866 4786.908, 976.484 " />
            <path fill="none" stroke-width="3.0" stroke-linecap="butt" stroke-opacity="1.0" stroke="rgb(0, 0, 0)" stroke-linejoin="round" d=" M 4770.390, 959.549 4769.065, 957.253 4767.855, 954.895 4766.766, 952.479 4765.797, 950.011 4764.953, 947.499 4764.235, 944.948 4763.645, 942.364 4763.185, 939.754 4762.855, 937.124 4762.658, 934.481 4762.591, 931.831 4762.658, 929.182 " />
            <path fill="none" stroke-width="3.0" stroke-linecap="butt" stroke-opacity="1.0" stroke="rgb(0, 0, 0)" stroke-linejoin="round" d=" M 4839.999, 979.134 4837.611, 980.284 4835.168, 981.313 4832.678, 982.219 4830.145, 983.001 4827.577, 983.655 4824.979, 984.181 4822.358, 984.575 4819.721, 984.839 4817.073, 984.971 4814.423, 984.971 4811.775, 984.839 4809.138, 984.575 4806.518, 984.181 4803.919, 983.655 4801.351, 983.001 4798.818, 982.219 4796.328, 981.313 " />
            <path fill="none" stroke-width="3.0" stroke-linecap="butt" stroke-opacity="1.0" stroke="rgb(0, 0, 0)" stroke-linejoin="round" d=" M 4762.658, 929.182 4762.855, 926.539 4763.185, 923.908 4763.645, 921.299 4764.235, 918.715 4764.953, 916.163 4765.797, 913.650 4766.766, 911.183 4767.855, 908.767 4769.065, 906.409 4770.390, 904.113 4771.828, 901.886 4773.375, 899.735 4775.028, 897.663 4776.781, 895.676 4778.632, 893.777 4780.575, 891.975 4782.605, 890.272 4784.718, 888.671 " />
            <path fill="none" stroke-width="3.0" stroke-linecap="butt" stroke-opacity="1.0" stroke="rgb(0, 0, 0)" stroke-linejoin="round" d=" M 4784.718, 888.671 4786.908, 887.178 " />
            <path fill="none" stroke-width="3.0" stroke-linecap="butt" stroke-opacity="1.0" stroke="rgb(0, 0, 0)" stroke-linejoin="round" d=" M 4786.908, 887.178 4789.170, 885.796 " />
            <path fill="none" stroke-width="3.0" stroke-linecap="butt" stroke-opacity="1.0" stroke="rgb(0, 0, 0)" stroke-linejoin="round" d=" M 4046.204, 23.723 4046.091, 23.677 4046.079, 23.679 4045.780, 23.719 4045.779, 23.720 " />
            <path fill="none" stroke-width="3.0" stroke-linecap="butt" stroke-opacity="1.0" stroke="rgb(0, 0, 0)" stroke-linejoin="round" d=" M 4789.170, 885.796 4791.498, 884.529 " />
            <path fill="none" stroke-width="3.0" stroke-linecap="butt" stroke-opacity="1.0" stroke="rgb(0, 0, 0)" stroke-linejoin="round" d=" M 5791.404, 2501.315 5790.983, 2491.324 5790.562, 2481.333 5790.142, 2471.342 5789.721, 2461.351 5789.301, 2451.359 5788.880, 2441.368 5788.459, 2431.377 5788.039, 2421.386 5787.618, 2411.395 5787.197, 2401.404 5786.776, 2391.413 5786.355, 2381.421 5785.935, 2371.430 5785.514, 2361.439 5785.094, 2351.448 5784.673, 2341.457 5784.252, 2331.466 5783.832, 2321.475 5783.411, 2311.483 5782.990, 2301.492 5782.569, 2291.501 5782.148, 2281.510 5781.728, 2271.519 5781.307, 2261.528 5780.887, 2251.537 5780.466, 2241.545 5780.045, 2231.554 5779.625, 2221.563 5779.204, 2211.572 5778.783, 2201.581 5778.362, 2191.590 5777.941, 2181.599 5777.521, 2171.607 5777.100, 2161.616 5776.680, 2151.625 5776.259, 2141.634 5775.988, 2135.215 5778.089, 2125.438 5780.190, 2115.661 5782.291, 2105.884 5784.392, 2096.108 5786.493, 2086.331 5788.594, 2076.554 5790.695, 2066.777 5792.795, 2057.000 5794.896, 2047.223 5796.998, 2037.447 5799.098, 2027.670 5801.199, 2017.893 5803.300, 2008.116 5805.401, 1998.339 5807.502, 1988.562 5809.603, 1978.786 5811.704, 1969.009 5813.805, 1959.232 5815.905, 1949.455 5818.006, 1939.678 5820.107, 1929.902 5822.208, 1920.125 5824.309, 1910.348 5826.410, 1900.571 5828.511, 1890.794 5830.612, 1881.018 5832.712, 1871.241 5834.813, 1861.464 5835.418, 1858.651 " />
            <path fill="none" stroke-width="3.0" stroke-linecap="butt" stroke-opacity="1.0" stroke="rgb(0, 0, 0)" stroke-linejoin="round" d=" M 4868.839, 934.481 4868.641, 937.124 4868.311, 939.754 4867.851, 942.364 4867.261, 944.948 4866.543, 947.499 4865.699, 950.011 4864.731, 952.479 4863.641, 954.895 4862.432, 957.253 4861.106, 959.549 4859.668, 961.775 4858.121, 963.928 4856.469, 966.000 4854.715, 967.987 4852.864, 969.884 4850.921, 971.687 4848.891, 973.391 4846.778, 974.991 4844.588, 976.484 4842.327, 977.866 " />
            <path fill="none" stroke-width="3.0" stroke-linecap="butt" stroke-opacity="1.0" stroke="rgb(0, 0, 0)" stroke-linejoin="round" d=" M 5835.418, 1858.651 5834.242, 1848.720 5833.066, 1838.790 5831.890, 1828.859 5830.714, 1818.929 5829.539, 1808.998 5828.363, 1799.067 5827.187, 1789.137 5826.011, 1779.206 5824.835, 1769.275 5823.659, 1759.345 5822.483, 1749.414 5821.308, 1739.483 5820.132, 1729.553 5818.956, 1719.622 5817.780, 1709.692 5816.604, 1699.761 5815.428, 1689.830 5814.252, 1679.900 5813.347, 1672.251 5815.583, 1662.505 5817.819, 1652.758 5820.055, 1643.011 5822.291, 1633.264 5824.527, 1623.517 5826.763, 1613.771 5828.999, 1604.024 5831.235, 1594.277 5833.471, 1584.530 5835.707, 1574.783 5837.943, 1565.036 5840.179, 1555.290 5842.415, 1545.543 5844.651, 1535.796 5846.887, 1526.049 5849.123, 1516.302 5851.359, 1506.556 5853.595, 1496.809 5855.831, 1487.062 5858.066, 1477.315 5860.303, 1467.568 5862.539, 1457.821 5864.774, 1448.075 5866.259, 1441.604 " />
            <path fill="none" stroke-width="3.0" stroke-linecap="butt" stroke-opacity="1.0" stroke="rgb(0, 0, 0)" stroke-linejoin="round" d=" M 4830.145, 880.661 4832.678, 881.443 4835.168, 882.349 4837.611, 883.378 4839.999, 884.529 4842.327, 885.796 4844.588, 887.178 4846.778, 888.671 4848.891, 890.272 4850.921, 891.975 4852.864, 893.777 4854.715, 895.676 " />
            <path fill="none" stroke-width="3.0" stroke-linecap="butt" stroke-opacity="1.0" stroke="rgb(0, 0, 0)" stroke-linejoin="round" d=" M 5128.917, 548.650 5126.398, 546.068 5124.011, 543.363 5121.762, 540.542 5119.656, 537.613 5117.699, 534.583 5115.895, 531.459 5114.249, 528.249 5112.765, 524.960 5111.447, 521.601 5110.298, 518.182 5109.321, 514.709 5108.519, 511.192 5107.892, 507.639 5107.443, 504.060 5107.174, 500.462 5107.084, 496.856 5107.174, 493.250 5107.443, 489.652 5107.892, 486.072 5108.519, 482.519 5109.321, 479.002 5110.298, 475.529 5111.447, 472.110 5112.765, 468.752 5114.249, 465.464 5115.895, 462.253 5117.699, 459.129 5119.656, 456.098 5121.762, 453.169 5124.011, 450.349 5126.398, 447.644 5128.917, 445.062 5131.562, 442.608 5134.326, 440.289 5137.201, 438.110 5140.182, 436.078 5143.260, 434.197 5146.428, 432.471 5149.679, 430.906 5153.003, 429.505 5156.393, 428.271 5159.840, 427.208 5163.336, 426.318 5166.873, 425.603 5170.439, 425.065 5174.029, 424.706 5177.632, 424.526 5181.240, 424.526 5184.843, 424.706 5188.433, 425.065 5192.000, 425.603 5195.536, 426.318 5199.032, 427.208 5202.479, 428.271 5205.869, 429.505 5209.194, 430.906 5212.444, 432.471 5215.612, 434.197 5218.690, 436.078 5221.671, 438.110 5224.547, 440.289 5227.311, 442.608 5229.955, 445.062 5232.474, 447.644 5234.861, 450.349 5237.110, 453.169 5239.216, 456.098 5241.174, 459.129 5242.978, 462.253 5244.624, 465.464 5246.107, 468.752 5247.425, 472.110 5248.574, 475.529 5249.551, 479.002 5250.354, 482.519 5250.980, 486.072 5251.429, 489.652 5251.698, 493.250 5251.789, 496.856 5251.698, 500.462 5251.429, 504.060 5250.980, 507.639 5250.354, 511.192 5249.551, 514.709 5248.574, 518.182 5247.425, 521.601 5246.107, 524.960 5244.624, 528.249 5242.978, 531.459 5241.174, 534.583 5239.216, 537.613 5237.110, 540.542 5234.861, 543.363 5232.474, 546.068 5229.955, 548.650 5227.311, 551.104 5224.547, 553.423 5221.671, 555.601 5218.690, 557.634 5215.612, 559.514 5212.444, 561.240 5209.194, 562.805 5205.869, 564.207 5202.479, 565.440 5199.032, 566.504 5195.536, 567.394 5192.000, 568.109 5188.433, 568.646 5184.843, 569.005 5181.240, 569.186 5177.632, 569.186 5174.029, 569.005 5170.439, 568.646 5166.873, 568.109 5163.336, 567.394 5159.840, 566.504 5156.393, 565.440 5153.003, 564.207 5149.679, 562.805 5146.428, 561.240 5143.260, 559.514 5140.182, 557.634 5137.201, 555.601 5134.326, 553.423 5131.562, 551.104 5128.917, 548.650 " />
            <path fill="none" stroke-width="3.0" stroke-linecap="butt" stroke-opacity="1.0" stroke="rgb(0, 0, 0)" stroke-linejoin="round" d=" M 4854.715, 895.676 4856.469, 897.663 " />
            <path fill="none" stroke-width="3.0" stroke-linecap="butt" stroke-opacity="1.0" stroke="rgb(0, 0, 0)" stroke-linejoin="round" d=" M 4856.469, 897.663 4858.121, 899.735 " />
            <path fill="none" stroke-width="3.0" stroke-linecap="butt" stroke-opacity="1.0" stroke="rgb(0, 0, 0)" stroke-linejoin="round" d=" M 4858.121, 899.735 4859.668, 901.886 " />
            <path fill="none" stroke-width="3.0" stroke-linecap="butt" stroke-opacity="1.0" stroke="rgb(0, 0, 0)" stroke-linejoin="round" d=" M 4827.577, 880.007 4830.145, 880.661 " />
            <path fill="none" stroke-width="3.0" stroke-linecap="butt" stroke-opacity="1.0" stroke="rgb(0, 0, 0)" stroke-linejoin="round" d=" M 4859.668, 901.886 4861.106, 904.113 " />
            <path fill="none" stroke-width="3.0" stroke-linecap="butt" stroke-opacity="1.0" stroke="rgb(0, 0, 0)" stroke-linejoin="round" d=" M 4824.979, 879.482 4827.577, 880.007 " />
            <path fill="none" stroke-width="3.0" stroke-linecap="butt" stroke-opacity="1.0" stroke="rgb(0, 0, 0)" stroke-linejoin="round" d=" M 4861.106, 904.113 4862.432, 906.409 4863.641, 908.767 4864.731, 911.183 4865.699, 913.650 4866.543, 916.163 4867.261, 918.715 4867.851, 921.299 4868.311, 923.908 4868.641, 926.539 4868.839, 929.182 4868.905, 931.831 4868.839, 934.481 " />
            <path fill="none" stroke-width="3.0" stroke-linecap="butt" stroke-opacity="1.0" stroke="rgb(0, 0, 0)" stroke-linejoin="round" d=" M 4814.423, 878.691 4817.073, 878.691 4819.721, 878.823 4822.358, 879.087 4824.979, 879.482 " />
            <path fill="none" stroke-width="3.0" stroke-linecap="butt" stroke-opacity="1.0" stroke="rgb(0, 0, 0)" stroke-linejoin="round" d=" M 4811.775, 878.823 4814.423, 878.691 " />
            <path fill="none" stroke-width="3.0" stroke-linecap="butt" stroke-opacity="1.0" stroke="rgb(0, 0, 0)" stroke-linejoin="round" d=" M 4809.138, 879.087 4811.775, 878.823 " />
            <path fill="none" stroke-width="3.0" stroke-linecap="butt" stroke-opacity="1.0" stroke="rgb(0, 0, 0)" stroke-linejoin="round" d=" M 4806.518, 879.482 4809.138, 879.087 " />
            <path fill="none" stroke-width="3.0" stroke-linecap="butt" stroke-opacity="1.0" stroke="rgb(0, 0, 0)" stroke-linejoin="round" d=" M 4791.498, 884.529 4793.885, 883.378 4796.328, 882.349 4798.818, 881.443 4801.351, 880.661 4803.919, 880.007 4806.518, 879.482 " />
            <path fill="none" stroke-width="3.0" stroke-linecap="butt" stroke-opacity="1.0" stroke="rgb(0, 0, 0)" stroke-linejoin="round" d=" M 4977.986, 23.739 4975.011, 23.733 4965.011, 23.730 4955.011, 23.728 4945.011, 23.725 4935.011, 23.723 4925.011, 23.720 4915.011, 23.718 4905.011, 23.715 4895.011, 23.713 4885.011, 23.710 4875.011, 23.708 4865.011, 23.705 4855.011, 23.703 4845.011, 23.700 4835.011, 23.698 4825.011, 23.695 4815.011, 23.693 4805.011, 23.690 4795.011, 23.688 4785.011, 23.685 4775.011, 23.683 4765.011, 23.680 4755.011, 23.678 4745.011, 23.675 4735.011, 23.673 4725.011, 23.670 4715.011, 23.668 4705.011, 23.665 4695.011, 23.663 4685.011, 23.660 4675.011, 23.658 4665.011, 23.656 4655.011, 23.653 4645.011, 23.650 4635.011, 23.648 4625.011, 23.646 4615.011, 23.643 4605.011, 23.640 4595.011, 23.638 4585.011, 23.635 4575.011, 23.633 4563.956, 23.630 4561.530, 23.698 4558.940, 23.698 4556.292, 23.698 4553.520, 23.746 4543.520, 23.745 4533.520, 23.743 4523.520, 23.742 4513.520, 23.740 4503.520, 23.739 4493.520, 23.738 4483.520, 23.736 4473.520, 23.735 4463.520, 23.733 4453.520, 23.732 4443.520, 23.730 4433.520, 23.729 4423.520, 23.727 4413.520, 23.726 4403.520, 23.724 4393.520, 23.723 4383.520, 23.721 4373.520, 23.720 4363.520, 23.719 4353.520, 23.717 4343.520, 23.716 4333.520, 23.714 4323.520, 23.713 4313.520, 23.711 4303.520, 23.710 4293.520, 23.708 4283.520, 23.707 4273.520, 23.705 4263.520, 23.704 4253.520, 23.702 4243.520, 23.701 4233.520, 23.699 4223.520, 23.698 4213.520, 23.697 4203.520, 23.695 4193.520, 23.694 4183.520, 23.692 4173.520, 23.691 4163.520, 23.689 4153.520, 23.688 4143.520, 23.686 4133.520, 23.685 4123.520, 23.683 4113.520, 23.682 4103.520, 23.680 4093.520, 23.679 4083.520, 23.677 4073.520, 23.676 4063.520, 23.675 4053.520, 23.673 4046.159, 23.672 4046.265, 23.714 4046.261, 23.715 4046.256, 23.715 4046.252, 23.716 4046.248, 23.717 4046.243, 23.717 4046.239, 23.718 4046.234, 23.719 4046.230, 23.719 4046.226, 23.720 4046.221, 23.720 4046.217, 23.721 4046.212, 23.722 4046.208, 23.723 4046.204, 23.723 " />
            <path fill="none" stroke-width="3.0" stroke-linecap="butt" stroke-opacity="1.0" stroke="rgb(0, 0, 0)" stroke-linejoin="round" d=" M 5866.259, 1441.604 5869.865, 1432.277 5873.470, 1422.949 5877.076, 1413.622 5880.681, 1404.295 5884.287, 1394.967 5887.892, 1385.640 5891.498, 1376.312 5895.104, 1366.985 5898.709, 1357.658 5902.314, 1348.330 5905.920, 1339.003 5909.526, 1329.676 5913.131, 1320.348 5916.737, 1311.021 5920.342, 1301.693 5923.948, 1292.366 5927.554, 1283.039 5931.159, 1273.711 5934.765, 1264.384 5938.818, 1253.898 5938.447, 1243.905 5938.076, 1233.911 5937.705, 1223.918 5937.334, 1213.925 5936.963, 1203.932 5936.592, 1193.939 5936.221, 1183.946 5935.850, 1173.953 5935.479, 1163.960 5935.107, 1153.967 5934.736, 1143.973 5934.365, 1133.980 5933.994, 1123.987 5933.623, 1113.994 5933.252, 1104.001 5932.881, 1094.008 5932.510, 1084.015 5932.139, 1074.022 5931.768, 1064.028 5931.396, 1054.035 5931.025, 1044.042 5930.654, 1034.049 5930.283, 1024.056 5929.912, 1014.063 5929.760, 1009.983 " />
            <path fill="none" stroke-width="3.0" stroke-linecap="butt" stroke-opacity="1.0" stroke="rgb(0, 0, 0)" stroke-linejoin="round" d=" M 6313.818, 23.672 6313.268, 23.672 6312.734, 23.672 6312.220, 23.671 6311.729, 23.671 6311.262, 23.671 6310.814, 23.650 6300.814, 23.650 6290.814, 23.649 6280.814, 23.649 6270.814, 23.649 6260.814, 23.649 6250.814, 23.649 6240.814, 23.649 6230.814, 23.649 6220.814, 23.648 6210.814, 23.648 6200.814, 23.648 6190.814, 23.648 6180.814, 23.648 6170.814, 23.648 6160.814, 23.647 6150.814, 23.647 6140.814, 23.647 6130.814, 23.647 6120.814, 23.647 6110.814, 23.647 6100.814, 23.647 6090.814, 23.646 6080.814, 23.646 6070.814, 23.646 6060.814, 23.646 6050.814, 23.646 6040.814, 23.646 6030.814, 23.646 6020.814, 23.646 6010.814, 23.645 6000.814, 23.645 5990.814, 23.645 5980.814, 23.645 5970.814, 23.645 5960.814, 23.645 5950.814, 23.644 5940.814, 23.644 5930.814, 23.644 5920.814, 23.644 5910.814, 23.644 5900.814, 23.644 5890.814, 23.644 5880.814, 23.643 5870.814, 23.643 5860.814, 23.643 5850.814, 23.643 5840.814, 23.643 5830.814, 23.643 5820.814, 23.642 5810.814, 23.642 5800.814, 23.642 5790.814, 23.642 5780.814, 23.642 5770.814, 23.642 5760.814, 23.642 5750.814, 23.641 5740.814, 23.641 5730.814, 23.641 5720.814, 23.641 5710.814, 23.641 5700.814, 23.641 5690.814, 23.640 5680.814, 23.640 5670.814, 23.640 5660.814, 23.640 5650.814, 23.640 5640.814, 23.640 5630.814, 23.640 5620.814, 23.639 5610.814, 23.639 5600.814, 23.639 5590.814, 23.639 5580.814, 23.639 5570.814, 23.639 5560.814, 23.638 5550.814, 23.638 5540.814, 23.638 5530.814, 23.638 5520.814, 23.638 5510.814, 23.638 5500.814, 23.638 5490.814, 23.637 5480.814, 23.637 5470.814, 23.637 5460.814, 23.637 5450.814, 23.637 5440.814, 23.637 5430.814, 23.636 5420.814, 23.636 5410.814, 23.636 5400.814, 23.636 5390.814, 23.636 5380.814, 23.636 5370.814, 23.636 5360.814, 23.635 5350.814, 23.635 5340.814, 23.635 5330.814, 23.635 5320.814, 23.635 5310.814, 23.635 5300.814, 23.635 5290.814, 23.635 5280.814, 23.634 5270.814, 23.634 5260.814, 23.634 5250.814, 23.634 5240.814, 23.634 5230.814, 23.634 5220.814, 23.633 5210.814, 23.633 5200.814, 23.633 5190.814, 23.633 5180.814, 23.633 5170.814, 23.633 5160.814, 23.633 5150.814, 23.632 5140.814, 23.632 5130.814, 23.632 5120.814, 23.632 5110.814, 23.632 5100.814, 23.632 5090.814, 23.631 5080.814, 23.631 5070.814, 23.631 5060.814, 23.631 5050.814, 23.631 5040.814, 23.631 5030.814, 23.631 5009.423, 23.630 5007.223, 23.737 5004.882, 23.738 5002.456, 23.738 4999.952, 23.738 4997.375, 23.738 4994.736, 23.738 4992.040, 23.738 4989.294, 23.738 4986.509, 23.738 4983.690, 23.738 4980.846, 23.739 4977.986, 23.739 " />
            <path fill="none" stroke-width="3.0" stroke-linecap="butt" stroke-opacity="1.0" stroke="rgb(0, 0, 0)" stroke-linejoin="round" d=" M 5929.760, 1009.983 5932.627, 1000.403 5935.495, 990.823 5938.361, 981.243 5941.229, 971.662 5944.096, 962.082 5946.962, 952.502 5949.830, 942.922 5952.697, 933.342 5955.563, 923.762 5958.431, 914.181 5961.298, 904.601 5964.165, 895.021 5967.032, 885.441 5969.899, 875.861 5972.766, 866.280 5975.633, 856.700 5978.500, 847.120 5981.367, 837.540 5984.234, 827.960 5987.101, 818.379 5989.968, 808.799 5992.835, 799.219 5995.702, 789.639 5998.569, 780.059 6001.436, 770.478 6004.303, 760.898 6007.170, 751.318 6010.037, 741.738 6012.904, 732.158 6015.771, 722.577 6018.638, 712.997 6021.505, 703.417 6023.029, 698.325 6028.776, 690.142 6034.522, 681.958 6040.269, 673.774 6046.016, 665.590 6051.762, 657.406 6057.509, 649.222 6063.256, 641.038 6069.002, 632.854 6074.749, 624.671 6080.496, 616.487 6086.243, 608.303 6091.989, 600.119 6097.736, 591.935 6103.482, 583.751 6109.229, 575.567 6114.976, 567.384 6120.723, 559.200 6126.469, 551.016 6132.216, 542.832 6137.963, 534.648 6143.709, 526.464 6149.456, 518.281 6155.039, 510.331 " />
            <path fill="none" stroke-width="3.0" stroke-linecap="butt" stroke-opacity="1.0" stroke="rgb(0, 0, 0)" stroke-linejoin="round" d=" M 6155.039, 510.331 6158.818, 501.073 6162.597, 491.814 6166.376, 482.556 6170.155, 473.298 6173.935, 464.039 6177.714, 454.781 6181.493, 445.522 6185.272, 436.264 6189.052, 427.006 6192.831, 417.747 6196.610, 408.489 6200.390, 399.231 6204.169, 389.972 6207.948, 380.714 6211.728, 371.456 6215.507, 362.197 6219.286, 352.939 6223.065, 343.681 6226.845, 334.422 6230.624, 325.164 6234.403, 315.906 6238.183, 306.647 6242.024, 297.237 6246.495, 288.292 6250.966, 279.347 6255.438, 270.402 6259.909, 261.458 6264.379, 252.513 6268.851, 243.568 6273.322, 234.623 6277.793, 225.678 6282.264, 216.734 6286.735, 207.789 6291.207, 198.844 6295.678, 189.899 6300.148, 180.955 6304.620, 172.010 6309.091, 163.065 6313.562, 154.120 6318.033, 145.175 6322.504, 136.231 6326.976, 127.286 6331.447, 118.341 6335.918, 109.396 6340.389, 100.452 6344.860, 91.507 6349.331, 82.562 6353.802, 73.617 6358.273, 64.672 6362.745, 55.728 6367.216, 46.783 6371.687, 37.838 6376.158, 28.893 6378.789, 23.630 6368.789, 23.630 6358.789, 23.630 6348.789, 23.630 6338.789, 23.630 6328.789, 23.630 6318.789, 23.630 6314.496, 23.630 " />
            <path fill="none" stroke-width="3.0" stroke-linecap="butt" stroke-opacity="1.0" stroke="rgb(0, 0, 0)" stroke-linejoin="round" d=" M 6314.496, 23.630 6313.818, 23.672 " />
            <path fill="none" stroke-width="3.0" stroke-linecap="butt" stroke-opacity="1.0" stroke="rgb(0, 0, 0)" stroke-linejoin="round" d=" M 1172.549, 1687.888 1170.029, 1685.306 1167.642, 1682.601 1165.393, 1679.780 1163.287, 1676.851 1161.330, 1673.820 1159.526, 1670.696 1157.880, 1667.486 1156.397, 1664.198 1155.079, 1660.839 1153.929, 1657.420 1152.953, 1653.947 1152.150, 1650.430 1151.523, 1646.877 1151.075, 1643.297 1150.805, 1639.700 1150.715, 1636.094 1150.805, 1632.487 1151.075, 1628.890 1151.523, 1625.310 1152.150, 1621.757 1152.953, 1618.240 1153.929, 1614.768 1155.079, 1611.348 1156.397, 1607.989 1157.880, 1604.701 1159.526, 1601.491 1161.330, 1598.367 1163.287, 1595.336 1165.393, 1592.407 1167.642, 1589.586 1170.029, 1586.881 1172.549, 1584.298 1175.193, 1581.845 1177.957, 1579.527 1180.832, 1577.348 1183.813, 1575.316 1186.892, 1573.435 1190.060, 1571.709 1193.310, 1570.144 1196.634, 1568.743 1200.024, 1567.509 1203.472, 1566.446 1206.968, 1565.555 1210.504, 1564.841 1214.071, 1564.303 1217.661, 1563.944 1221.264, 1563.764 1224.871, 1563.764 1228.474, 1563.944 1232.064, 1564.303 1235.631, 1564.841 1239.167, 1565.555 1242.663, 1566.446 1246.110, 1567.509 1249.501, 1568.743 1252.825, 1570.144 1256.075, 1571.709 1259.244, 1573.435 1262.322, 1575.316 1265.302, 1577.348 1268.178, 1579.527 1270.942, 1581.845 1273.586, 1584.298 1276.105, 1586.881 1278.492, 1589.586 1280.742, 1592.407 1282.848, 1595.336 1284.805, 1598.367 1286.609, 1601.491 1288.255, 1604.701 1289.738, 1607.989 1291.057, 1611.348 1292.205, 1614.768 1293.182, 1618.240 1293.985, 1621.757 1294.611, 1625.310 1295.060, 1628.890 1295.330, 1632.487 1295.420, 1636.094 1295.330, 1639.700 1295.060, 1643.297 1294.611, 1646.877 1293.985, 1650.430 1293.182, 1653.947 1292.205, 1657.420 1291.057, 1660.839 1289.738, 1664.198 1288.255, 1667.486 1286.609, 1670.696 1284.805, 1673.820 1282.848, 1676.851 1280.742, 1679.780 1278.492, 1682.601 1276.105, 1685.306 1273.586, 1687.888 1270.942, 1690.341 1268.178, 1692.661 1265.302, 1694.839 1262.322, 1696.871 1259.244, 1698.752 1256.075, 1700.477 1252.825, 1702.043 1249.501, 1703.444 1246.110, 1704.678 1242.663, 1705.742 1239.167, 1706.632 1235.631, 1707.346 1232.064, 1707.884 1228.474, 1708.244 1224.871, 1708.423 1221.264, 1708.423 1217.661, 1708.244 1214.071, 1707.884 1210.504, 1707.346 1206.968, 1706.632 1203.472, 1705.742 1200.024, 1704.678 1196.634, 1703.444 1193.310, 1702.043 1190.060, 1700.477 1186.892, 1698.752 1183.813, 1696.871 1180.832, 1694.839 1177.957, 1692.661 1175.193, 1690.341 1172.549, 1687.888 " />
            <path fill="none" stroke-width="3.0" stroke-linecap="butt" stroke-opacity="1.0" stroke="rgb(0, 0, 0)" stroke-linejoin="round" d=" M 1843.041, 1691.643 1841.475, 1701.520 1839.908, 1711.396 1838.342, 1721.273 1836.775, 1731.149 1835.209, 1741.026 1833.642, 1750.903 1832.076, 1760.779 1830.510, 1770.656 1828.943, 1780.532 1827.377, 1790.409 1825.810, 1800.285 1824.244, 1810.162 1822.677, 1820.038 1821.111, 1829.915 1819.544, 1839.792 1817.978, 1849.668 1816.411, 1859.545 1814.845, 1869.421 1813.278, 1879.298 1811.712, 1889.174 1810.146, 1899.051 1808.579, 1908.927 1807.013, 1918.804 1805.446, 1928.680 1803.880, 1938.557 1802.313, 1948.434 1800.747, 1958.310 1799.180, 1968.187 1797.614, 1978.063 1796.047, 1987.940 1795.051, 1994.222 " />
            <path fill="none" stroke-width="3.0" stroke-linecap="butt" stroke-opacity="1.0" stroke="rgb(0, 0, 0)" stroke-linejoin="round" d=" M 4563.956, 23.630 4553.956, 23.630 4543.956, 23.630 4533.956, 23.630 4523.956, 23.630 4513.956, 23.630 4503.956, 23.630 4493.956, 23.630 4483.956, 23.630 4473.956, 23.630 4463.956, 23.630 4453.956, 23.630 4443.956, 23.630 4433.956, 23.630 4423.956, 23.630 4413.956, 23.630 4403.956, 23.630 4393.956, 23.630 4383.956, 23.630 4373.956, 23.630 4363.956, 23.630 4353.956, 23.630 4343.956, 23.630 4333.956, 23.630 4323.956, 23.630 4313.956, 23.630 4303.956, 23.630 4293.956, 23.630 4283.956, 23.630 4273.956, 23.630 4263.956, 23.630 4253.956, 23.630 4243.956, 23.630 4233.956, 23.630 4223.956, 23.630 4213.956, 23.630 4203.956, 23.630 4193.956, 23.630 4183.956, 23.630 4173.956, 23.630 4163.956, 23.630 4153.956, 23.630 4143.956, 23.630 4133.956, 23.630 4123.956, 23.630 4113.956, 23.630 4103.956, 23.630 4093.956, 23.630 4083.956, 23.630 4073.956, 23.630 4063.956, 23.630 4053.956, 23.630 4045.440, 23.630 " />
            <path fill="none" stroke-width="3.0" stroke-linecap="butt" stroke-opacity="1.0" stroke="rgb(0, 0, 0)" stroke-linejoin="round" d=" M 223.132, 377.216 220.642, 386.901 218.152, 396.586 215.663, 406.271 213.173, 415.956 210.683, 425.641 208.193, 435.326 205.703, 445.011 203.213, 454.696 200.723, 464.381 198.234, 474.066 195.744, 483.751 193.254, 493.437 190.764, 503.122 188.274, 512.807 185.784, 522.492 183.294, 532.177 180.805, 541.862 178.172, 552.102 " />
            <path fill="none" stroke-width="3.0" stroke-linecap="butt" stroke-opacity="1.0" stroke="rgb(0, 0, 0)" stroke-linejoin="round" d=" M 225.089, 352.976 224.284, 362.944 223.480, 372.911 223.132, 377.216 " />
            <path fill="none" stroke-width="3.0" stroke-linecap="butt" stroke-opacity="1.0" stroke="rgb(0, 0, 0)" stroke-linejoin="round" d=" M 1752.706, 2281.704 1751.422, 2271.787 1750.137, 2261.869 1749.166, 2254.370 " />
            <path fill="none" stroke-width="3.0" stroke-linecap="butt" stroke-opacity="1.0" stroke="rgb(0, 0, 0)" stroke-linejoin="round" d=" M 1793.552, 2500.762 1791.719, 2490.932 1789.886, 2481.101 1788.053, 2471.271 1786.220, 2461.440 1784.387, 2451.610 1782.554, 2441.779 1780.721, 2431.949 1778.888, 2422.118 1777.055, 2412.287 1775.222, 2402.457 1773.389, 2392.626 1771.556, 2382.796 1769.723, 2372.965 1767.890, 2363.135 1766.057, 2353.304 1764.224, 2343.473 1762.391, 2333.643 1760.558, 2323.812 1758.724, 2313.982 1756.891, 2304.151 1755.058, 2294.321 1753.225, 2284.490 1752.706, 2281.704 " />
            <path fill="none" stroke-width="3.0" stroke-linecap="butt" stroke-opacity="1.0" stroke="rgb(0, 0, 0)" stroke-linejoin="round" d=" M 1821.256, 2730.380 1820.058, 2720.452 1818.860, 2710.524 1817.662, 2700.596 1816.464, 2690.668 1815.267, 2680.740 1814.069, 2670.812 1812.871, 2660.884 1811.673, 2650.956 1810.475, 2641.028 1809.277, 2631.100 1808.080, 2621.172 1806.882, 2611.244 1805.684, 2601.316 1804.486, 2591.388 1803.288, 2581.460 1802.090, 2571.532 1800.893, 2561.604 1799.695, 2551.676 1798.497, 2541.748 1797.299, 2531.820 1796.101, 2521.892 1794.903, 2511.964 1793.552, 2500.762 " />
            <path fill="none" stroke-width="3.0" stroke-linecap="butt" stroke-opacity="1.0" stroke="rgb(0, 0, 0)" stroke-linejoin="round" d=" M 4778.632, 969.884 4776.781, 967.987 " />
            <path fill="none" stroke-width="3.0" stroke-linecap="butt" stroke-opacity="1.0" stroke="rgb(0, 0, 0)" stroke-linejoin="round" d=" M 4842.327, 977.866 4839.999, 979.134 " />
        </g>
    </g>
<g id="slice-labels"><text x="552.8617499999999" y="474.755" text-anchor="middle" dominant-baseline="middle" font-family="Arial, sans-serif" font-size="59.063010207718044" font-weight="bold" fill="black" stroke="none" stroke-width="7.087561224926164" paint-order="stroke fill">Slice20 (Back)</text><text x="1612.12125" y="474.755" text-anchor="middle" dominant-baseline="middle" font-family="Arial, sans-serif" font-size="59.063010207718044" font-weight="bold" fill="black" stroke="none" stroke-width="7.087561224926164" paint-order="stroke fill">Slice20 (Back)</text><text x="2671.38075" y="474.755" text-anchor="middle" dominant-baseline="middle" font-family="Arial, sans-serif" font-size="59.063010207718044" font-weight="bold" fill="black" stroke="none" stroke-width="7.087561224926164" paint-order="stroke fill">Slice20 (Back)</text><text x="3730.64025" y="474.755" text-anchor="middle" dominant-baseline="middle" font-family="Arial, sans-serif" font-size="59.063010207718044" font-weight="bold" fill="black" stroke="none" stroke-width="7.087561224926164" paint-order="stroke fill">Slice20 (Back)</text><text x="4789.89975" y="474.755" text-anchor="middle" dominant-baseline="middle" font-family="Arial, sans-serif" font-size="59.063010207718044" font-weight="bold" fill="black" stroke="none" stroke-width="7.087561224926164" paint-order="stroke fill">Slice20 (Back)</text><text x="5849.15925" y="474.755" text-anchor="middle" dominant-baseline="middle" font-family="Arial, sans-serif" font-size="59.063010207718044" font-weight="bold" fill="black" stroke="none" stroke-width="7.087561224926164" paint-order="stroke fill">Slice20 (Back)</text><text x="552.8617499999999" y="1377.005" text-anchor="middle" dominant-baseline="middle" font-family="Arial, sans-serif" font-size="59.063010207718044" font-weight="bold" fill="black" stroke="none" stroke-width="7.087561224926164" paint-order="stroke fill">Slice20 (Back)</text><text x="1612.12125" y="1377.005" text-anchor="middle" dominant-baseline="middle" font-family="Arial, sans-serif" font-size="59.063010207718044" font-weight="bold" fill="black" stroke="none" stroke-width="7.087561224926164" paint-order="stroke fill">Slice20 (Back)</text><text x="2671.38075" y="1377.005" text-anchor="middle" dominant-baseline="middle" font-family="Arial, sans-serif" font-size="59.063010207718044" font-weight="bold" fill="black" stroke="none" stroke-width="7.087561224926164" paint-order="stroke fill">Slice20 (Back)</text><text x="3730.64025" y="1377.005" text-anchor="middle" dominant-baseline="middle" font-family="Arial, sans-serif" font-size="59.063010207718044" font-weight="bold" fill="black" stroke="none" stroke-width="7.087561224926164" paint-order="stroke fill">Slice20 (Back)</text><text x="4789.89975" y="1377.005" text-anchor="middle" dominant-baseline="middle" font-family="Arial, sans-serif" font-size="59.063010207718044" font-weight="bold" fill="black" stroke="none" stroke-width="7.087561224926164" paint-order="stroke fill">Slice20 (Back)</text><text x="5849.15925" y="1377.005" text-anchor="middle" dominant-baseline="middle" font-family="Arial, sans-serif" font-size="59.063010207718044" font-weight="bold" fill="black" stroke="none" stroke-width="7.087561224926164" paint-order="stroke fill">Slice20 (Back)</text><text x="552.8617499999999" y="2279.255" text-anchor="middle" dominant-baseline="middle" font-family="Arial, sans-serif" font-size="59.063010207718044" font-weight="bold" fill="black" stroke="none" stroke-width="7.087561224926164" paint-order="stroke fill">Slice20 (Back)</text><text x="1612.12125" y="2279.255" text-anchor="middle" dominant-baseline="middle" font-family="Arial, sans-serif" font-size="59.063010207718044" font-weight="bold" fill="black" stroke="none" stroke-width="7.087561224926164" paint-order="stroke fill">Slice20 (Back)</text><text x="2671.38075" y="2279.255" text-anchor="middle" dominant-baseline="middle" font-family="Arial, sans-serif" font-size="59.063010207718044" font-weight="bold" fill="black" stroke="none" stroke-width="7.087561224926164" paint-order="stroke fill">Slice20 (Back)</text><text x="3730.64025" y="2279.255" text-anchor="middle" dominant-baseline="middle" font-family="Arial, sans-serif" font-size="59.063010207718044" font-weight="bold" fill="black" stroke="none" stroke-width="7.087561224926164" paint-order="stroke fill">Slice20 (Back)</text><text x="4789.89975" y="2279.255" text-anchor="middle" dominant-baseline="middle" font-family="Arial, sans-serif" font-size="59.063010207718044" font-weight="bold" fill="black" stroke="none" stroke-width="7.087561224926164" paint-order="stroke fill">Slice20 (Back)</text><text x="5849.15925" y="2279.255" text-anchor="middle" dominant-baseline="middle" font-family="Arial, sans-serif" font-size="59.063010207718044" font-weight="bold" fill="black" stroke="none" stroke-width="7.087561224926164" paint-order="stroke fill">Slice20 (Back)</text></g></svg>