<?xml version='1.0' encoding='utf-8'?>
<svg xmlns="http://www.w3.org/2000/svg" xmlns:inkscape="http://www.inkscape.org/namespaces/inkscape" version="1.1" width="567.5732859373093mm" height="212.23049545288086mm" viewBox="-0.2562574993078819 0.005747659796053739 6704.532514998616 2506.9995046804083" preserveAspectRatio="none">
    <g id="ViewLayer_LineSet" inkscape:groupmode="lineset" inkscape:label="ViewLayer_LineSet">
        <g inkscape:groupmode="layer" id="strokes" inkscape:label="strokes">
            <path fill="none" stroke-width="3.0" stroke-linecap="butt" stroke-opacity="1.0" stroke="rgb(0, 0, 0)" stroke-linejoin="round" d=" M 4709.544, 2482.413 4719.544, 2482.418 4729.544, 2482.423 4739.544, 2482.428 4749.544, 2482.433 4759.544, 2482.438 4769.544, 2482.442 4779.544, 2482.447 4789.544, 2482.452 4799.544, 2482.457 4809.544, 2482.462 4819.544, 2482.467 4829.544, 2482.472 4839.544, 2482.477 4849.544, 2482.482 4859.544, 2482.487 4869.544, 2482.492 4879.544, 2482.496 4889.544, 2482.501 4899.544, 2482.506 4909.544, 2482.511 4919.544, 2482.516 4929.544, 2482.521 4939.544, 2482.526 4949.544, 2482.531 4959.544, 2482.536 4969.544, 2482.541 4979.544, 2482.546 4989.544, 2482.550 4999.544, 2482.555 5009.544, 2482.560 5019.544, 2482.565 5029.544, 2482.570 5039.544, 2482.575 5049.544, 2482.580 5059.544, 2482.585 5069.544, 2482.590 5079.544, 2482.595 5089.544, 2482.599 5099.544, 2482.604 5109.544, 2482.609 5119.544, 2482.614 5129.544, 2482.619 5139.544, 2482.624 5149.544, 2482.629 5159.544, 2482.634 5169.544, 2482.639 5179.544, 2482.644 5189.544, 2482.649 5199.544, 2482.653 5209.544, 2482.658 5219.544, 2482.663 5229.544, 2482.668 5239.544, 2482.673 5249.544, 2482.678 5259.544, 2482.683 5269.544, 2482.688 5279.544, 2482.693 5289.544, 2482.698 5299.544, 2482.703 5309.544, 2482.707 5319.544, 2482.712 5329.544, 2482.717 5339.544, 2482.722 5349.544, 2482.727 5359.544, 2482.732 5369.544, 2482.737 5379.544, 2482.742 5389.544, 2482.747 5399.544, 2482.752 5409.544, 2482.757 5419.544, 2482.761 5429.544, 2482.766 5439.544, 2482.771 5449.544, 2482.776 5459.544, 2482.781 5469.544, 2482.786 5479.544, 2482.791 5489.544, 2482.796 5499.544, 2482.801 5509.544, 2482.806 5519.544, 2482.811 5529.544, 2482.815 5539.544, 2482.820 5549.544, 2482.825 5559.544, 2482.830 5569.544, 2482.835 5579.544, 2482.840 5589.544, 2482.845 5599.544, 2482.850 5609.544, 2482.855 5619.544, 2482.860 5629.544, 2482.865 5639.544, 2482.869 5649.544, 2482.874 5659.544, 2482.879 5669.544, 2482.884 5679.544, 2482.889 5689.544, 2482.894 5699.544, 2482.899 5709.544, 2482.904 5719.544, 2482.909 5729.544, 2482.914 5739.544, 2482.919 5749.544, 2482.923 5759.544, 2482.928 5769.544, 2482.933 5779.544, 2482.938 5789.544, 2482.943 5799.544, 2482.948 5809.544, 2482.953 5819.544, 2482.958 5829.544, 2482.963 5839.544, 2482.968 5849.544, 2482.973 5859.544, 2482.977 5869.544, 2482.982 5879.544, 2482.987 5889.544, 2482.992 5899.544, 2482.997 5909.544, 2483.002 5919.544, 2483.007 5929.544, 2483.012 5939.544, 2483.017 5949.544, 2483.022 5959.544, 2483.027 5969.544, 2483.031 5979.544, 2483.036 5989.544, 2483.041 5999.544, 2483.046 6009.544, 2483.051 6019.544, 2483.056 6029.544, 2483.061 6039.544, 2483.066 6049.544, 2483.071 6059.544, 2483.076 6069.544, 2483.081 6079.544, 2483.085 6089.544, 2483.090 6099.544, 2483.095 6109.544, 2483.100 6119.544, 2483.105 6129.544, 2483.110 6139.544, 2483.115 6149.544, 2483.120 6159.544, 2483.125 6169.544, 2483.130 6179.544, 2483.135 6189.544, 2483.139 6199.544, 2483.144 6209.544, 2483.149 6219.544, 2483.154 6229.544, 2483.159 6239.544, 2483.164 6249.544, 2483.169 6259.544, 2483.174 6269.544, 2483.179 6279.544, 2483.184 6289.544, 2483.189 6299.544, 2483.193 6309.544, 2483.198 6319.544, 2483.203 6329.544, 2483.208 6339.544, 2483.213 6349.544, 2483.218 6359.544, 2483.223 6369.544, 2483.228 6379.544, 2483.233 6389.544, 2483.238 6399.544, 2483.243 6409.544, 2483.247 6419.544, 2483.252 6429.544, 2483.257 6439.544, 2483.262 6449.544, 2483.267 6459.544, 2483.272 6469.544, 2483.277 6479.544, 2483.282 6489.544, 2483.287 6499.544, 2483.292 6509.544, 2483.296 6519.544, 2483.301 6529.544, 2483.306 6539.544, 2483.311 6549.544, 2483.316 6559.544, 2483.321 6587.239, 2483.335 6597.239, 2483.340 6607.239, 2483.344 6617.239, 2483.349 6627.239, 2483.354 6637.239, 2483.359 6647.239, 2483.364 6657.239, 2483.369 6667.239, 2483.374 6677.239, 2483.379 6680.651, 2483.380 6679.750, 2473.421 6678.850, 2463.462 6677.949, 2453.502 6677.574, 2449.355 6675.170, 2439.648 6672.766, 2429.941 6670.362, 2420.234 6667.958, 2410.527 6665.555, 2400.821 6663.151, 2391.114 6660.748, 2381.407 6658.344, 2371.700 6655.940, 2361.993 6653.537, 2352.286 6651.133, 2342.580 6648.729, 2332.873 6646.326, 2323.166 6643.922, 2313.459 6641.518, 2303.752 6639.114, 2294.046 6636.711, 2284.339 6634.307, 2274.632 6631.903, 2264.925 6629.500, 2255.218 6627.096, 2245.512 6624.692, 2235.805 6622.289, 2226.098 6619.885, 2216.391 6617.481, 2206.684 6615.078, 2196.977 6612.674, 2187.271 6610.270, 2177.564 6607.866, 2167.857 6605.463, 2158.150 6603.059, 2148.443 6600.655, 2138.737 6598.251, 2129.030 6595.848, 2119.323 6593.444, 2109.616 6591.041, 2099.909 6588.637, 2090.202 6586.233, 2080.496 6583.830, 2070.789 6581.426, 2061.082 6579.022, 2051.375 6576.618, 2041.668 6574.215, 2031.962 6571.811, 2022.255 6569.407, 2012.548 6567.003, 2002.841 6564.600, 1993.134 6562.196, 1983.428 6559.792, 1973.721 6557.389, 1964.014 6554.985, 1954.307 6552.582, 1944.600 6550.178, 1934.893 6547.774, 1925.187 6545.370, 1915.480 6542.967, 1905.773 6540.992, 1897.799 6537.242, 1888.529 6533.491, 1879.259 6529.741, 1869.989 6525.990, 1860.719 6522.240, 1851.449 6518.489, 1842.179 6514.738, 1832.909 6510.988, 1823.639 6507.237, 1814.369 6503.487, 1805.099 6499.736, 1795.829 6495.986, 1786.559 6492.235, 1777.289 6488.485, 1768.019 6484.734, 1758.749 6480.984, 1749.479 6477.233, 1740.209 6473.483, 1730.939 6469.732, 1721.669 6465.982, 1712.398 6462.231, 1703.128 6458.481, 1693.858 6454.730, 1684.588 6450.979, 1675.318 6447.229, 1666.048 6443.479, 1656.778 6439.728, 1647.508 6435.978, 1638.238 6432.227, 1628.968 6428.477, 1619.698 6424.726, 1610.428 6420.976, 1601.158 6417.225, 1591.888 6413.475, 1582.618 6409.724, 1573.348 6405.974, 1564.078 6402.223, 1554.808 6398.473, 1545.538 6394.722, 1536.268 6390.972, 1526.998 6387.221, 1517.728 6383.470, 1508.458 6379.720, 1499.188 6375.969, 1489.918 6372.219, 1480.647 6368.468, 1471.377 6364.718, 1462.107 6360.967, 1452.837 6357.217, 1443.567 6353.466, 1434.297 6349.716, 1425.027 6345.965, 1415.757 6342.215, 1406.487 6338.464, 1397.217 6334.714, 1387.947 6330.963, 1378.677 6327.213, 1369.407 6323.347, 1359.852 6315.937, 1353.138 6308.526, 1346.423 6301.116, 1339.709 6293.705, 1332.995 6286.294, 1326.280 6278.884, 1319.566 6271.474, 1312.851 6264.063, 1306.137 6256.652, 1299.422 6249.242, 1292.708 6241.832, 1285.993 6234.421, 1279.279 6227.473, 1272.984 6221.175, 1265.216 6214.877, 1257.449 6208.579, 1249.681 6202.281, 1241.914 6195.982, 1234.146 6189.685, 1226.379 6183.386, 1218.611 6177.088, 1210.844 6170.790, 1203.076 6164.492, 1195.309 6158.194, 1187.542 6151.896, 1179.774 6145.597, 1172.007 6139.299, 1164.239 6135.831, 1159.961 6133.649, 1150.202 6131.468, 1140.443 6129.288, 1130.683 6127.106, 1120.924 6124.925, 1111.165 6122.744, 1101.406 6120.563, 1091.646 6118.382, 1081.887 6116.201, 1072.128 6114.020, 1062.369 6111.839, 1052.609 6109.658, 1042.850 6107.477, 1033.091 6105.296, 1023.332 6103.115, 1013.573 6100.934, 1003.813 6098.908, 994.749 6098.323, 984.766 6097.737, 974.784 6097.152, 964.801 6096.567, 954.818 6095.982, 944.835 6095.396, 934.852 6094.812, 924.869 6094.226, 914.886 6093.641, 904.903 6093.056, 894.921 6092.470, 884.938 6091.885, 874.955 6091.300, 864.972 6090.714, 854.989 6090.129, 845.006 6089.544, 835.023 6088.959, 825.041 6088.374, 815.058 6087.788, 805.075 6087.203, 795.092 6086.618, 785.109 6086.033, 775.126 6085.447, 765.143 6084.862, 755.161 6084.277, 745.178 6083.691, 735.195 6083.238, 727.457 " />
            <path fill="none" stroke-width="3.0" stroke-linecap="butt" stroke-opacity="1.0" stroke="rgb(0, 0, 0)" stroke-linejoin="round" d=" M 4700.798, 2395.209 4701.796, 2405.159 4702.794, 2415.109 4703.792, 2425.059 4704.790, 2435.009 4705.788, 2444.959 4706.786, 2454.909 4707.784, 2464.859 4708.782, 2474.810 4709.544, 2482.413 " />
            <path fill="none" stroke-width="3.0" stroke-linecap="butt" stroke-opacity="1.0" stroke="rgb(0, 0, 0)" stroke-linejoin="round" d=" M 4266.125, 1137.550 4269.781, 1146.858 4273.438, 1156.165 4277.094, 1165.473 4280.750, 1174.780 4284.407, 1184.088 4288.063, 1193.395 4291.720, 1202.703 4295.377, 1212.010 4299.033, 1221.318 4302.690, 1230.625 4306.346, 1239.933 4310.003, 1249.240 4313.660, 1258.548 4317.316, 1267.855 4319.260, 1272.803 4321.355, 1282.581 4323.450, 1292.359 4325.546, 1302.137 4327.641, 1311.915 4329.737, 1321.693 4331.832, 1331.471 4333.927, 1341.249 4336.023, 1351.027 4338.118, 1360.805 4340.213, 1370.583 4342.309, 1380.361 4344.404, 1390.139 4346.500, 1399.917 4348.595, 1409.695 4350.690, 1419.473 4352.786, 1429.251 4354.881, 1439.029 4356.977, 1448.807 4359.072, 1458.585 4361.167, 1468.363 4363.263, 1478.141 4365.358, 1487.919 4367.454, 1497.697 4369.549, 1507.475 4371.645, 1517.253 4373.740, 1527.031 4375.835, 1536.809 4377.931, 1546.587 4380.026, 1556.365 4382.121, 1566.143 4384.217, 1575.921 4386.312, 1585.699 4388.407, 1595.477 4390.503, 1605.255 4392.598, 1615.033 4394.694, 1624.811 4396.789, 1634.589 4398.884, 1644.367 4400.980, 1654.145 4403.075, 1663.923 4405.170, 1673.701 4407.266, 1683.479 4409.361, 1693.257 4411.457, 1703.035 4413.552, 1712.813 4415.647, 1722.591 4417.743, 1732.369 4419.838, 1742.147 4421.934, 1751.925 4424.029, 1761.703 4426.125, 1771.481 4428.220, 1781.259 4430.315, 1791.037 4432.411, 1800.815 4434.506, 1810.593 4436.602, 1820.371 4438.697, 1830.149 4440.792, 1839.927 4442.888, 1849.705 4445.667, 1862.673 4449.987, 1871.691 4454.308, 1880.710 4458.628, 1889.728 4462.949, 1898.747 4467.270, 1907.765 4471.590, 1916.784 4475.911, 1925.802 4480.231, 1934.820 4484.552, 1943.839 4488.873, 1952.857 4493.193, 1961.876 4497.514, 1970.894 4501.835, 1979.913 4506.155, 1988.931 4510.476, 1997.950 4514.797, 2006.968 4519.117, 2015.986 4523.438, 2025.005 4527.758, 2034.023 4532.079, 2043.042 4536.400, 2052.060 4540.720, 2061.079 4545.041, 2070.097 4549.362, 2079.115 4553.682, 2088.134 4558.003, 2097.152 4562.324, 2106.171 4566.644, 2115.189 4570.965, 2124.208 4575.286, 2133.226 4579.606, 2142.245 4583.927, 2151.263 4588.247, 2160.281 4592.568, 2169.300 4596.889, 2178.318 4601.209, 2187.337 4605.530, 2196.355 4609.851, 2205.374 4614.171, 2214.392 4618.492, 2223.410 4622.812, 2232.429 4627.133, 2241.447 4631.454, 2250.466 4635.774, 2259.484 4640.095, 2268.503 4644.416, 2277.521 4648.736, 2286.539 4653.057, 2295.558 4657.377, 2304.576 4661.698, 2313.595 4666.019, 2322.613 4670.339, 2331.632 4674.660, 2340.650 4678.980, 2349.669 4683.301, 2358.687 4687.622, 2367.705 4691.942, 2376.724 4696.263, 2385.742 4700.798, 2395.209 " />
            <path fill="none" stroke-width="3.0" stroke-linecap="butt" stroke-opacity="1.0" stroke="rgb(0, 0, 0)" stroke-linejoin="round" d=" M 4941.602, 807.586 4939.751, 809.483 4937.808, 811.286 4935.778, 812.990 4933.665, 814.589 4931.475, 816.083 4929.213, 817.465 4926.886, 818.732 4924.498, 819.882 4922.056, 820.911 4919.565, 821.819 4917.032, 822.600 4914.463, 823.253 4911.866, 823.779 4909.245, 824.174 " />
            <path fill="none" stroke-width="3.0" stroke-linecap="butt" stroke-opacity="1.0" stroke="rgb(0, 0, 0)" stroke-linejoin="round" d=" M 4949.318, 796.853 4947.993, 799.147 4946.555, 801.374 4945.008, 803.526 4943.355, 805.598 " />
            <path fill="none" stroke-width="3.0" stroke-linecap="butt" stroke-opacity="1.0" stroke="rgb(0, 0, 0)" stroke-linejoin="round" d=" M 4952.586, 789.610 4951.618, 792.078 4950.528, 794.493 4949.318, 796.853 " />
            <path fill="none" stroke-width="3.0" stroke-linecap="butt" stroke-opacity="1.0" stroke="rgb(0, 0, 0)" stroke-linejoin="round" d=" M 4955.726, 768.780 4955.792, 771.430 4955.726, 774.079 4955.528, 776.722 4955.198, 779.352 4954.738, 781.963 4954.148, 784.547 4953.430, 787.098 " />
            <path fill="none" stroke-width="3.0" stroke-linecap="butt" stroke-opacity="1.0" stroke="rgb(0, 0, 0)" stroke-linejoin="round" d=" M 4909.245, 824.174 4906.607, 824.438 4903.960, 824.570 4901.310, 824.570 " />
            <path fill="none" stroke-width="3.0" stroke-linecap="butt" stroke-opacity="1.0" stroke="rgb(0, 0, 0)" stroke-linejoin="round" d=" M 4955.528, 766.137 4955.726, 768.780 " />
            <path fill="none" stroke-width="3.0" stroke-linecap="butt" stroke-opacity="1.0" stroke="rgb(0, 0, 0)" stroke-linejoin="round" d=" M 4954.148, 758.313 4954.738, 760.897 4955.198, 763.507 4955.528, 766.137 " />
            <path fill="none" stroke-width="3.0" stroke-linecap="butt" stroke-opacity="1.0" stroke="rgb(0, 0, 0)" stroke-linejoin="round" d=" M 4946.555, 741.485 4947.993, 743.712 4949.318, 746.007 4950.528, 748.366 4951.618, 750.781 4952.586, 753.249 4953.430, 755.761 4954.148, 758.313 " />
            <path fill="none" stroke-width="3.0" stroke-linecap="butt" stroke-opacity="1.0" stroke="rgb(0, 0, 0)" stroke-linejoin="round" d=" M 4945.008, 739.334 4946.555, 741.485 " />
            <path fill="none" stroke-width="3.0" stroke-linecap="butt" stroke-opacity="1.0" stroke="rgb(0, 0, 0)" stroke-linejoin="round" d=" M 4914.463, 719.605 4917.032, 720.259 4919.565, 721.041 4922.056, 721.947 4924.498, 722.976 4926.886, 724.127 4929.213, 725.395 4931.475, 726.776 4933.665, 728.270 4935.778, 729.870 4937.808, 731.574 4939.751, 733.376 4941.602, 735.274 4943.355, 737.261 4945.008, 739.334 " />
            <path fill="none" stroke-width="3.0" stroke-linecap="butt" stroke-opacity="1.0" stroke="rgb(0, 0, 0)" stroke-linejoin="round" d=" M 5991.659, 255.593 5989.564, 245.815 5987.469, 236.037 5985.374, 226.259 5983.279, 216.481 5981.184, 206.703 5979.089, 196.925 5976.994, 187.147 5974.899, 177.369 5972.804, 167.591 5970.708, 157.812 5968.614, 148.034 5966.519, 138.256 5964.423, 128.478 5962.329, 118.700 5960.233, 108.922 5958.138, 99.144 5956.043, 89.366 5953.948, 79.588 5951.853, 69.810 5949.758, 60.032 5947.663, 50.254 5945.568, 40.476 5943.473, 30.698 5942.010, 23.872 5932.010, 23.871 5922.010, 23.871 5916.958, 23.870 5906.958, 23.870 5896.958, 23.869 5886.958, 23.869 5876.958, 23.868 5866.958, 23.868 5856.958, 23.868 5846.958, 23.867 5836.958, 23.867 5826.958, 23.866 5816.958, 23.866 5806.958, 23.865 5796.958, 23.865 5786.958, 23.865 5776.958, 23.864 5766.958, 23.864 5756.958, 23.863 5746.958, 23.863 5736.958, 23.862 5726.958, 23.862 5716.958, 23.862 5706.958, 23.861 5696.958, 23.861 5686.958, 23.860 5676.958, 23.860 5666.958, 23.859 5656.958, 23.859 5646.958, 23.858 5636.958, 23.858 5626.958, 23.858 5616.958, 23.857 5606.958, 23.857 5596.958, 23.856 5586.958, 23.856 5576.958, 23.855 5566.958, 23.855 5556.958, 23.854 5546.958, 23.854 5536.958, 23.854 5526.958, 23.853 5516.958, 23.853 5506.958, 23.852 5496.958, 23.852 5486.958, 23.852 5476.958, 23.851 5466.958, 23.851 5456.958, 23.850 5446.958, 23.850 5436.958, 23.849 5426.958, 23.849 5416.958, 23.848 5406.958, 23.848 5396.958, 23.847 5386.958, 23.847 5376.958, 23.847 5366.958, 23.846 5356.958, 23.846 5346.958, 23.845 5336.958, 23.845 5326.958, 23.844 5316.958, 23.844 5310.204, 23.844 " />
            <path fill="none" stroke-width="3.0" stroke-linecap="butt" stroke-opacity="1.0" stroke="rgb(0, 0, 0)" stroke-linejoin="round" d=" M 5916.958, 23.870 5916.957, 23.871 5916.767, 23.939 " />
            <path fill="none" stroke-width="3.0" stroke-linecap="butt" stroke-opacity="1.0" stroke="rgb(0, 0, 0)" stroke-linejoin="round" d=" M 5916.767, 23.939 5916.672, 23.939 5916.579, 23.939 5916.486, 23.939 5916.396, 23.939 " />
            <path fill="none" stroke-width="3.0" stroke-linecap="butt" stroke-opacity="1.0" stroke="rgb(0, 0, 0)" stroke-linejoin="round" d=" M 5916.396, 23.939 5916.308, 23.938 5916.222, 23.938 5916.139, 23.938 5916.059, 23.938 5915.981, 23.938 5915.896, 23.917 5905.896, 23.916 5895.896, 23.915 5885.896, 23.914 5875.896, 23.912 5865.896, 23.911 5855.896, 23.910 5845.896, 23.909 5835.896, 23.907 5825.896, 23.906 5815.896, 23.905 5805.896, 23.904 5795.896, 23.903 5785.896, 23.901 5775.896, 23.900 5765.896, 23.899 5755.896, 23.898 5745.896, 23.896 5735.896, 23.895 5725.896, 23.894 5715.896, 23.893 5705.896, 23.892 5695.896, 23.890 5685.896, 23.889 5675.896, 23.888 5665.896, 23.887 5655.896, 23.886 5645.896, 23.885 5635.896, 23.883 5625.896, 23.882 5615.896, 23.881 5605.896, 23.880 5595.896, 23.878 5585.896, 23.877 5575.896, 23.876 5565.896, 23.875 5555.896, 23.874 5545.896, 23.872 5535.896, 23.871 5525.896, 23.870 5515.896, 23.869 5505.896, 23.867 5495.896, 23.866 5485.896, 23.865 5475.896, 23.864 5465.896, 23.863 5455.896, 23.861 5445.896, 23.860 5435.896, 23.859 5425.896, 23.858 5415.896, 23.856 5405.896, 23.855 5395.896, 23.854 5385.896, 23.853 5375.896, 23.852 5365.896, 23.851 5355.896, 23.849 5345.896, 23.848 5335.896, 23.847 5325.896, 23.846 5312.892, 23.844 5310.204, 23.844 " />
            <path fill="none" stroke-width="3.0" stroke-linecap="butt" stroke-opacity="1.0" stroke="rgb(0, 0, 0)" stroke-linejoin="round" d=" M 4898.663, 718.422 4901.310, 718.289 4903.960, 718.289 4906.607, 718.422 4909.245, 718.686 4911.866, 719.081 4914.463, 719.605 " />
            <path fill="none" stroke-width="3.0" stroke-linecap="butt" stroke-opacity="1.0" stroke="rgb(0, 0, 0)" stroke-linejoin="round" d=" M 4896.025, 824.174 4893.404, 823.779 4890.807, 823.253 4888.238, 822.600 4885.705, 821.819 4883.215, 820.911 4880.772, 819.882 4878.384, 818.732 " />
            <path fill="none" stroke-width="3.0" stroke-linecap="butt" stroke-opacity="1.0" stroke="rgb(0, 0, 0)" stroke-linejoin="round" d=" M 4871.605, 814.589 4869.492, 812.990 4867.462, 811.286 4865.519, 809.483 4863.668, 807.586 " />
            <path fill="none" stroke-width="3.0" stroke-linecap="butt" stroke-opacity="1.0" stroke="rgb(0, 0, 0)" stroke-linejoin="round" d=" M 4863.668, 807.586 4861.915, 805.598 4860.262, 803.526 4858.715, 801.374 4857.277, 799.147 4855.952, 796.853 " />
            <path fill="none" stroke-width="3.0" stroke-linecap="butt" stroke-opacity="1.0" stroke="rgb(0, 0, 0)" stroke-linejoin="round" d=" M 4855.952, 796.853 4854.742, 794.493 4853.652, 792.078 4852.684, 789.610 4851.840, 787.098 " />
            <path fill="none" stroke-width="3.0" stroke-linecap="butt" stroke-opacity="1.0" stroke="rgb(0, 0, 0)" stroke-linejoin="round" d=" M 5306.893, 23.946 5305.377, 23.890 5295.377, 23.890 5285.377, 23.889 5275.377, 23.888 5265.377, 23.887 5255.377, 23.886 5245.377, 23.885 5235.377, 23.885 5225.377, 23.884 5215.377, 23.883 5205.377, 23.882 5195.377, 23.881 5185.377, 23.881 5175.377, 23.880 5165.377, 23.879 5155.377, 23.878 5145.377, 23.877 5135.377, 23.876 5125.377, 23.875 5115.377, 23.875 5105.377, 23.874 5095.377, 23.873 5085.377, 23.872 5074.286, 23.871 5064.286, 23.871 5054.286, 23.870 5044.286, 23.869 5034.286, 23.868 5024.286, 23.867 5014.286, 23.866 5004.286, 23.865 4994.286, 23.865 4984.286, 23.864 4974.286, 23.863 4964.286, 23.862 4954.286, 23.862 4944.286, 23.861 4934.286, 23.860 4924.286, 23.859 4914.286, 23.858 4904.286, 23.857 4894.286, 23.856 4884.286, 23.856 4874.286, 23.855 4864.286, 23.854 4854.286, 23.853 4844.286, 23.852 4834.286, 23.852 4824.286, 23.851 4814.286, 23.850 4804.286, 23.849 4794.286, 23.848 4784.286, 23.847 4774.286, 23.847 4764.286, 23.846 4754.286, 23.845 4744.286, 23.844 4734.286, 23.843 4724.286, 23.843 4714.286, 23.842 4704.286, 23.841 4694.286, 23.840 4684.286, 23.839 4674.286, 23.838 4664.286, 23.838 4654.286, 23.837 4644.286, 23.836 4634.286, 23.835 4624.286, 23.834 4614.286, 23.833 4604.286, 23.833 4594.286, 23.832 4584.286, 23.831 4574.286, 23.830 4564.286, 23.829 4554.286, 23.828 4544.286, 23.828 4534.286, 23.827 4524.286, 23.826 4514.286, 23.825 4504.286, 23.824 4494.286, 23.823 4484.286, 23.823 4474.286, 23.822 4464.286, 23.821 4454.286, 23.820 4444.286, 23.819 4434.286, 23.819 4424.286, 23.818 4414.286, 23.817 4404.286, 23.816 4394.286, 23.815 4384.286, 23.814 4374.286, 23.814 4364.286, 23.813 4354.286, 23.812 4344.286, 23.811 4334.286, 23.810 4324.286, 23.810 4314.286, 23.809 4304.286, 23.808 4294.286, 23.807 4284.286, 23.806 4274.286, 23.805 4264.286, 23.805 4254.286, 23.804 4244.286, 23.803 4234.286, 23.802 4224.286, 23.801 4214.286, 23.801 4204.286, 23.800 4194.286, 23.799 4184.286, 23.798 4174.286, 23.797 4164.286, 23.796 4154.286, 23.795 4144.286, 23.795 4134.286, 23.794 4124.286, 23.793 4114.286, 23.792 4095.984, 23.791 " />
            <path fill="none" stroke-width="3.0" stroke-linecap="butt" stroke-opacity="1.0" stroke="rgb(0, 0, 0)" stroke-linejoin="round" d=" M 4851.840, 787.098 4851.122, 784.547 4850.532, 781.963 4850.072, 779.352 4849.742, 776.722 4849.544, 774.079 4849.478, 771.430 4849.544, 768.780 4849.742, 766.137 4850.072, 763.507 4850.532, 760.897 4851.122, 758.313 " />
            <path fill="none" stroke-width="3.0" stroke-linecap="butt" stroke-opacity="1.0" stroke="rgb(0, 0, 0)" stroke-linejoin="round" d=" M 4851.122, 758.313 4851.840, 755.761 " />
            <path fill="none" stroke-width="3.0" stroke-linecap="butt" stroke-opacity="1.0" stroke="rgb(0, 0, 0)" stroke-linejoin="round" d=" M 4851.840, 755.761 4852.684, 753.249 4853.652, 750.781 4854.742, 748.366 4855.952, 746.007 4857.277, 743.712 4858.715, 741.485 4860.262, 739.334 4861.915, 737.261 4863.668, 735.274 " />
            <path fill="none" stroke-width="3.0" stroke-linecap="butt" stroke-opacity="1.0" stroke="rgb(0, 0, 0)" stroke-linejoin="round" d=" M 4049.898, 23.789 4051.129, 33.713 4052.360, 43.636 4053.591, 53.561 4054.822, 63.484 4056.052, 73.408 4057.283, 83.332 4058.514, 93.256 4059.745, 103.180 4060.976, 113.104 4062.207, 123.028 4063.438, 132.952 4064.447, 141.094 4066.683, 150.841 4068.919, 160.587 4071.155, 170.334 4073.391, 180.081 4075.627, 189.828 4077.863, 199.575 4080.099, 209.322 4082.335, 219.068 4084.571, 228.815 4086.807, 238.562 4089.043, 248.309 4091.279, 258.056 4093.515, 267.802 4095.750, 277.549 4097.986, 287.296 4100.223, 297.043 4102.458, 306.790 4104.694, 316.537 4106.930, 326.283 4109.167, 336.030 4111.402, 345.777 4113.638, 355.524 4115.874, 365.271 4118.110, 375.018 4120.346, 384.764 4122.582, 394.511 4124.818, 404.258 4127.054, 414.005 4129.290, 423.752 4131.526, 433.499 4133.762, 443.245 4135.998, 452.992 4138.233, 462.739 4140.470, 472.486 4142.706, 482.233 4144.941, 491.979 4147.177, 501.726 4148.573, 507.811 4151.577, 517.350 4154.580, 526.888 4157.583, 536.427 4160.586, 545.965 4163.589, 555.504 4166.592, 565.042 4169.595, 574.580 4172.598, 584.119 4175.601, 593.657 4178.604, 603.196 4181.607, 612.734 4184.611, 622.272 4187.614, 631.811 4190.617, 641.349 4193.620, 650.888 4196.623, 660.426 4199.626, 669.964 4202.645, 679.551 4204.018, 689.456 4205.390, 699.362 4206.763, 709.267 4208.136, 719.172 4209.509, 729.078 4210.882, 738.983 4212.255, 748.888 4213.627, 758.794 4215.000, 768.699 4216.374, 778.604 4217.747, 788.510 4219.119, 798.415 4220.492, 808.320 4221.865, 818.225 4223.238, 828.131 4224.611, 838.036 4225.984, 847.941 4227.357, 857.847 4228.729, 867.752 4230.103, 877.657 4231.476, 887.562 4232.848, 897.468 4234.221, 907.373 4235.594, 917.278 4236.967, 927.184 4238.340, 937.089 4239.713, 946.994 4241.086, 956.900 4242.458, 966.805 4243.832, 976.710 4245.205, 986.616 4246.578, 996.521 4247.950, 1006.426 4249.323, 1016.332 4250.696, 1026.237 4252.069, 1036.142 4253.442, 1046.047 4254.815, 1055.953 4256.188, 1065.858 4257.561, 1075.763 4258.934, 1085.669 4260.307, 1095.574 4261.679, 1105.479 4263.052, 1115.385 4264.425, 1125.290 4266.125, 1137.550 " />
            <path fill="none" stroke-width="3.0" stroke-linecap="butt" stroke-opacity="1.0" stroke="rgb(0, 0, 0)" stroke-linejoin="round" d=" M 4863.668, 735.274 4865.519, 733.376 " />
            <path fill="none" stroke-width="3.0" stroke-linecap="butt" stroke-opacity="1.0" stroke="rgb(0, 0, 0)" stroke-linejoin="round" d=" M 4865.519, 733.376 4867.462, 731.574 " />
            <path fill="none" stroke-width="3.0" stroke-linecap="butt" stroke-opacity="1.0" stroke="rgb(0, 0, 0)" stroke-linejoin="round" d=" M 4867.462, 731.574 4869.492, 729.870 " />
            <path fill="none" stroke-width="3.0" stroke-linecap="butt" stroke-opacity="1.0" stroke="rgb(0, 0, 0)" stroke-linejoin="round" d=" M 4869.492, 729.870 4871.605, 728.270 4873.795, 726.776 4876.057, 725.395 4878.384, 724.127 4880.772, 722.976 4883.215, 721.947 " />
            <path fill="none" stroke-width="3.0" stroke-linecap="butt" stroke-opacity="1.0" stroke="rgb(0, 0, 0)" stroke-linejoin="round" d=" M 4883.215, 721.947 4885.705, 721.041 4888.238, 720.259 4890.807, 719.605 4893.404, 719.081 4896.025, 718.686 4898.663, 718.422 " />
            <path fill="none" stroke-width="3.0" stroke-linecap="butt" stroke-opacity="1.0" stroke="rgb(0, 0, 0)" stroke-linejoin="round" d=" M 4095.984, 23.791 4095.835, 23.791 4095.677, 23.791 4095.509, 23.791 4095.333, 23.791 4085.333, 23.790 4075.333, 23.790 4065.333, 23.789 4055.333, 23.789 4049.898, 23.789 " />
            <path fill="none" stroke-width="3.0" stroke-linecap="butt" stroke-opacity="1.0" stroke="rgb(0, 0, 0)" stroke-linejoin="round" d=" M 2009.373, 551.312 2006.854, 553.895 2004.210, 556.348 2001.446, 558.668 1998.571, 560.845 1995.590, 562.878 1992.512, 564.759 1989.343, 566.484 1986.093, 568.050 1982.769, 569.451 1979.379, 570.685 1975.931, 571.748 1972.435, 572.638 1968.899, 573.354 1965.332, 573.891 1961.742, 574.251 1958.139, 574.430 1954.532, 574.430 1950.928, 574.251 1947.339, 573.891 1943.771, 573.354 1940.235, 572.638 1936.740, 571.748 1933.292, 570.685 1929.902, 569.451 1926.578, 568.050 1923.328, 566.484 1920.159, 564.759 1917.081, 562.878 1914.100, 560.845 1911.224, 558.668 1908.461, 556.348 1905.816, 553.895 1903.297, 551.312 1900.910, 548.607 1898.661, 545.786 1896.555, 542.858 1894.598, 539.827 1892.794, 536.703 1891.148, 533.493 1889.664, 530.204 1888.346, 526.846 1887.198, 523.427 1886.220, 519.953 1885.418, 516.437 1884.791, 512.884 1884.343, 509.304 1884.073, 505.707 1883.983, 502.100 1884.073, 498.494 1884.343, 494.896 1884.791, 491.317 1885.418, 487.764 1886.220, 484.247 1887.198, 480.774 1888.346, 477.354 1889.664, 473.995 1891.148, 470.707 1892.794, 467.498 1894.598, 464.373 1896.555, 461.342 1898.661, 458.413 1900.910, 455.593 1903.297, 452.888 1905.816, 450.306 1908.461, 447.851 1911.224, 445.533 1914.100, 443.354 1917.081, 441.322 1920.159, 439.441 1923.328, 437.716 1926.578, 436.151 1929.902, 434.749 1933.292, 433.515 1936.740, 432.452 1940.235, 431.562 1943.771, 430.847 1947.339, 430.309 1950.928, 429.950 1954.532, 429.771 1958.139, 429.771 1961.742, 429.950 1965.332, 430.309 1968.899, 430.847 1972.435, 431.562 1975.931, 432.452 1979.379, 433.515 1982.769, 434.749 1986.093, 436.151 1989.343, 437.716 1992.512, 439.441 1995.590, 441.322 1998.571, 443.354 2001.446, 445.533 2004.210, 447.851 2006.854, 450.306 2009.373, 452.888 2011.761, 455.593 2014.010, 458.413 2016.116, 461.342 2018.073, 464.373 2019.877, 467.498 2021.523, 470.707 2023.006, 473.995 2024.324, 477.354 2025.473, 480.774 2026.451, 484.247 2027.253, 487.764 2027.880, 491.317 2028.328, 494.896 2028.598, 498.494 2028.688, 502.100 2028.598, 505.707 2028.328, 509.304 2027.880, 512.884 2027.253, 516.437 2026.451, 519.953 2025.473, 523.427 2024.324, 526.846 2023.006, 530.204 2021.523, 533.493 2019.877, 536.703 2018.073, 539.827 2016.116, 542.858 2014.010, 545.786 2011.761, 548.607 2009.373, 551.312 " />
            <path fill="none" stroke-width="3.0" stroke-linecap="butt" stroke-opacity="1.0" stroke="rgb(0, 0, 0)" stroke-linejoin="round" d=" M 2188.808, 1053.148 2188.884, 1043.148 2188.960, 1033.148 2189.036, 1023.149 2189.112, 1013.149 2189.188, 1003.149 2189.264, 993.149 2189.340, 983.150 2189.416, 973.150 2189.491, 963.150 2189.567, 953.151 2189.643, 943.151 2189.719, 933.151 2189.795, 923.151 2189.871, 913.152 2189.947, 903.152 2190.023, 893.152 2190.073, 886.448 2191.660, 876.575 2193.247, 866.701 2194.834, 856.828 2196.420, 846.955 2198.007, 837.081 2199.594, 827.208 2201.180, 817.335 2202.767, 807.461 2204.354, 797.588 2205.940, 787.715 2207.527, 777.841 2209.114, 767.968 2210.701, 758.095 2212.287, 748.221 2213.874, 738.348 2215.461, 728.475 2217.047, 718.602 2218.634, 708.728 2220.221, 698.855 2221.808, 688.982 2223.394, 679.108 2224.981, 669.235 2226.568, 659.362 2228.154, 649.488 2229.741, 639.615 2231.328, 629.742 2232.914, 619.868 2234.501, 609.995 2236.088, 600.122 2237.675, 590.248 2239.261, 580.375 2240.848, 570.502 2242.435, 560.628 2244.021, 550.755 2245.608, 540.882 2247.195, 531.008 2248.781, 521.135 2250.368, 511.262 2251.955, 501.389 2253.542, 491.515 2255.128, 481.642 2256.715, 471.769 2258.302, 461.895 2259.888, 452.022 2261.475, 442.149 2263.062, 432.275 2264.648, 422.402 2266.235, 412.529 2267.822, 402.655 2269.408, 392.782 2270.995, 382.909 2272.582, 373.035 2274.168, 363.162 2275.755, 353.289 2277.342, 343.416 2278.928, 333.542 2280.515, 323.669 2282.102, 313.795 2283.689, 303.922 2285.275, 294.049 2286.862, 284.176 2288.449, 274.302 2290.035, 264.429 2291.622, 254.556 2293.209, 244.682 2294.795, 234.809 2296.738, 222.721 2296.972, 212.724 2297.207, 202.726 2297.441, 192.729 2297.675, 182.732 2297.910, 172.735 2298.144, 162.737 2298.378, 152.740 2298.613, 142.743 2298.847, 132.746 2299.081, 122.748 2299.316, 112.751 2299.550, 102.754 2299.598, 100.705 " />
            <path fill="none" stroke-width="3.0" stroke-linecap="butt" stroke-opacity="1.0" stroke="rgb(0, 0, 0)" stroke-linejoin="round" d=" M 2093.626, 1763.716 2093.861, 1753.719 2094.096, 1743.722 2094.331, 1733.725 2094.566, 1723.727 2094.801, 1713.730 2095.036, 1703.733 2095.271, 1693.736 2095.505, 1683.738 2095.740, 1673.741 2095.975, 1663.744 2096.210, 1653.747 2096.445, 1643.749 2096.680, 1633.752 2096.915, 1623.755 2097.150, 1613.758 2097.385, 1603.760 2097.620, 1593.763 2097.855, 1583.766 2098.090, 1573.769 2098.325, 1563.772 2098.560, 1553.774 2098.795, 1543.777 2099.030, 1533.780 2099.265, 1523.783 2099.500, 1513.785 2099.734, 1503.788 2099.969, 1493.791 2100.204, 1483.794 2100.439, 1473.796 2100.674, 1463.799 2100.909, 1453.802 2101.144, 1443.805 2101.379, 1433.807 2101.614, 1423.810 2101.849, 1413.813 2102.084, 1403.816 2102.319, 1393.818 2102.554, 1383.821 2102.789, 1373.824 2103.035, 1363.360 2105.700, 1353.722 2108.365, 1344.083 2111.030, 1334.445 2113.695, 1324.807 2116.360, 1315.168 2119.025, 1305.530 2121.690, 1295.892 2124.355, 1286.253 2127.020, 1276.615 2129.685, 1266.977 2132.350, 1257.338 2135.015, 1247.700 2137.680, 1238.062 2140.345, 1228.423 2143.010, 1218.785 2145.675, 1209.147 2148.340, 1199.508 2151.005, 1189.870 2153.670, 1180.232 2156.335, 1170.593 2159.000, 1160.955 2161.665, 1151.317 2164.330, 1141.678 2166.995, 1132.040 2169.660, 1122.401 2172.325, 1112.763 2174.990, 1103.125 2177.655, 1093.486 2180.320, 1083.848 2182.985, 1074.210 2185.650, 1064.571 2188.808, 1053.148 " />
            <path fill="none" stroke-width="3.0" stroke-linecap="butt" stroke-opacity="1.0" stroke="rgb(0, 0, 0)" stroke-linejoin="round" d=" M 2299.598, 100.705 2304.848, 92.193 2310.097, 83.682 2315.347, 75.171 2320.597, 66.660 2325.846, 58.148 2331.096, 49.637 2336.346, 41.126 2341.595, 32.615 2347.085, 23.714 2337.085, 23.713 2327.085, 23.713 2319.393, 23.713 2309.393, 23.712 2299.393, 23.712 2289.393, 23.711 2279.393, 23.711 2269.393, 23.710 2259.393, 23.710 2257.073, 23.710 2247.073, 23.709 2237.073, 23.709 2227.073, 23.709 2219.309, 23.708 2218.486, 23.708 2218.012, 23.708 2217.734, 23.708 2217.539, 23.708 2217.451, 23.708 2217.209, 23.708 2217.084, 23.708 2217.055, 23.708 2207.055, 23.708 2206.322, 23.708 2196.322, 23.708 2186.322, 23.707 2176.322, 23.707 2174.528, 23.707 2164.528, 23.706 2154.528, 23.706 2144.528, 23.705 2134.528, 23.705 2124.528, 23.704 2114.528, 23.704 2104.528, 23.703 2094.528, 23.703 2084.528, 23.703 2074.528, 23.702 2064.528, 23.702 2054.528, 23.701 2044.527, 23.701 2034.527, 23.700 2024.527, 23.700 2014.527, 23.700 2004.527, 23.699 1994.527, 23.699 1984.527, 23.698 1974.527, 23.698 1964.527, 23.698 1954.527, 23.697 1944.527, 23.697 1934.527, 23.696 1924.527, 23.696 1914.527, 23.695 1904.527, 23.695 1894.527, 23.694 1884.527, 23.694 1874.527, 23.694 1864.527, 23.693 1854.527, 23.693 1844.527, 23.692 1834.527, 23.692 1824.527, 23.691 1814.527, 23.691 1804.527, 23.691 1794.527, 23.690 1784.527, 23.690 1774.527, 23.689 1764.527, 23.689 1754.527, 23.688 1744.527, 23.688 1734.527, 23.688 1724.527, 23.687 1714.527, 23.687 1704.527, 23.686 1694.527, 23.686 1684.527, 23.685 1674.527, 23.685 1664.527, 23.685 1654.527, 23.684 1644.527, 23.684 1634.527, 23.683 1624.527, 23.683 1614.527, 23.682 1604.527, 23.682 1594.527, 23.682 1584.527, 23.681 1574.527, 23.681 1564.527, 23.680 1554.527, 23.680 1544.527, 23.679 1534.527, 23.679 1524.527, 23.678 1514.527, 23.678 1504.527, 23.678 1494.527, 23.677 1484.527, 23.677 1474.527, 23.676 1464.527, 23.676 1454.527, 23.676 1444.527, 23.675 1434.527, 23.675 1424.527, 23.674 1414.527, 23.674 1404.527, 23.673 1394.527, 23.673 1382.632, 23.672 1379.789, 23.672 1369.789, 23.672 1366.271, 23.672 " />
            <path fill="none" stroke-width="3.0" stroke-linecap="butt" stroke-opacity="1.0" stroke="rgb(0, 0, 0)" stroke-linejoin="round" d=" M 1984.205, 2481.076 1985.712, 2471.190 1987.220, 2461.305 1988.728, 2451.419 1990.236, 2441.533 1991.744, 2431.648 1993.252, 2421.762 1994.760, 2411.876 1996.268, 2401.991 1997.776, 2392.105 1999.283, 2382.219 2000.791, 2372.334 2002.299, 2362.448 2003.807, 2352.562 2005.315, 2342.677 2006.823, 2332.791 2008.331, 2322.905 2009.839, 2313.020 2011.347, 2303.134 2012.854, 2293.248 2014.362, 2283.363 2015.870, 2273.477 2017.378, 2263.591 2018.886, 2253.706 2020.394, 2243.820 2021.902, 2233.934 2023.410, 2224.049 2024.918, 2214.163 2026.426, 2204.277 2027.933, 2194.392 2029.441, 2184.506 2030.949, 2174.620 2032.457, 2164.735 2033.965, 2154.849 2035.473, 2144.964 2036.981, 2135.078 2038.489, 2125.192 2039.997, 2115.307 2041.505, 2105.421 2043.012, 2095.535 2044.520, 2085.650 2046.028, 2075.764 2047.536, 2065.878 2049.044, 2055.993 2050.552, 2046.107 2052.060, 2036.221 2053.568, 2026.336 2055.076, 2016.450 2056.583, 2006.564 2058.091, 1996.679 2059.599, 1986.793 2061.107, 1976.907 2062.615, 1967.022 2064.123, 1957.136 2065.631, 1947.250 2067.139, 1937.365 2068.647, 1927.479 2070.155, 1917.593 2071.662, 1907.708 2073.170, 1897.822 2074.678, 1887.936 2076.186, 1878.051 2077.694, 1868.165 2079.202, 1858.279 2080.710, 1848.394 2082.218, 1838.508 2083.726, 1828.622 2085.233, 1818.737 2086.741, 1808.851 2088.249, 1798.965 2089.757, 1789.080 2091.265, 1779.194 2093.626, 1763.716 " />
            <path fill="none" stroke-width="3.0" stroke-linecap="butt" stroke-opacity="1.0" stroke="rgb(0, 0, 0)" stroke-linejoin="round" d=" M 1980.152, 2480.982 1984.205, 2481.076 " />
            <path fill="none" stroke-width="3.0" stroke-linecap="butt" stroke-opacity="1.0" stroke="rgb(0, 0, 0)" stroke-linejoin="round" d=" M 1975.469, 2481.072 1976.938, 2481.072 1980.186, 2481.074 1980.132, 2480.982 1980.152, 2480.982 " />
            <path fill="none" stroke-width="3.0" stroke-linecap="butt" stroke-opacity="1.0" stroke="rgb(0, 0, 0)" stroke-linejoin="round" d=" M 453.493, 364.490 451.799, 374.346 450.105, 384.201 448.411, 394.056 446.716, 403.912 445.022, 413.767 443.328, 423.623 441.634, 433.478 439.940, 443.334 438.245, 453.189 436.551, 463.045 434.857, 472.900 433.163, 482.755 431.468, 492.611 429.774, 502.466 428.080, 512.322 426.386, 522.177 424.692, 532.033 422.997, 541.888 421.303, 551.744 419.609, 561.599 417.915, 571.454 416.220, 581.310 414.526, 591.165 412.832, 601.021 411.138, 610.876 409.444, 620.732 407.749, 630.587 406.055, 640.442 404.361, 650.298 402.667, 660.153 400.972, 670.009 399.278, 679.864 397.584, 689.720 395.890, 699.575 394.196, 709.430 392.501, 719.286 390.807, 729.141 389.113, 738.997 387.419, 748.852 385.724, 758.708 384.030, 768.563 382.336, 778.419 380.642, 788.274 378.948, 798.129 377.253, 807.985 375.559, 817.840 373.865, 827.696 372.171, 837.551 370.476, 847.407 368.782, 857.262 367.088, 867.117 365.394, 876.973 363.700, 886.828 362.005, 896.684 360.311, 906.539 358.617, 916.395 356.923, 926.250 355.229, 936.105 353.534, 945.961 351.840, 955.816 350.146, 965.672 347.934, 978.536 347.555, 988.529 347.175, 998.522 346.796, 1008.515 346.417, 1018.507 346.037, 1028.500 345.658, 1038.493 345.278, 1048.486 344.899, 1058.479 344.519, 1068.471 344.140, 1078.464 343.760, 1088.457 343.381, 1098.450 343.002, 1108.443 342.622, 1118.435 342.243, 1128.428 341.863, 1138.421 341.484, 1148.414 341.104, 1158.407 340.725, 1168.399 340.345, 1178.392 339.966, 1188.385 339.587, 1198.378 339.207, 1208.371 338.828, 1218.363 338.448, 1228.356 338.069, 1238.349 337.689, 1248.342 337.310, 1258.335 336.930, 1268.327 336.551, 1278.320 336.172, 1288.313 335.792, 1298.306 335.413, 1308.299 335.033, 1318.291 334.654, 1328.284 334.274, 1338.277 333.895, 1348.270 333.515, 1358.263 333.136, 1368.255 332.757, 1378.248 332.377, 1388.241 331.998, 1398.234 331.618, 1408.227 331.239, 1418.219 330.859, 1428.212 330.480, 1438.205 330.100, 1448.198 329.721, 1458.191 329.342, 1468.183 328.962, 1478.176 328.583, 1488.169 328.203, 1498.162 327.824, 1508.155 327.444, 1518.147 327.065, 1528.140 326.685, 1538.133 326.306, 1548.126 325.927, 1558.119 325.547, 1568.111 325.168, 1578.104 324.788, 1588.097 324.409, 1598.090 324.029, 1608.083 323.650, 1618.075 323.131, 1631.728 " />
            <path fill="none" stroke-width="3.0" stroke-linecap="butt" stroke-opacity="1.0" stroke="rgb(0, 0, 0)" stroke-linejoin="round" d=" M 1264.594, 23.667 1254.594, 23.667 1244.594, 23.666 1234.594, 23.666 1224.594, 23.665 1214.594, 23.665 1204.594, 23.664 1194.594, 23.664 1184.594, 23.664 1174.594, 23.663 1165.199, 23.663 1161.962, 23.663 1151.962, 23.662 1145.727, 23.662 1144.571, 23.662 1142.353, 23.662 1132.353, 23.661 1122.353, 23.661 1112.353, 23.661 1102.353, 23.660 1092.353, 23.660 1082.353, 23.659 1072.353, 23.659 1062.353, 23.658 1052.353, 23.658 1042.353, 23.657 1032.353, 23.657 1022.352, 23.657 1012.352, 23.656 1002.352, 23.656 992.352, 23.655 982.352, 23.655 972.352, 23.655 962.352, 23.654 952.352, 23.654 942.352, 23.653 932.352, 23.653 922.352, 23.652 912.352, 23.652 902.352, 23.651 892.352, 23.651 882.352, 23.651 872.352, 23.650 862.352, 23.650 852.352, 23.649 842.352, 23.649 832.352, 23.648 822.352, 23.648 812.352, 23.647 802.352, 23.647 792.352, 23.647 782.352, 23.646 772.353, 23.646 762.353, 23.645 752.352, 23.645 742.352, 23.645 732.353, 23.644 722.353, 23.644 712.352, 23.643 702.352, 23.643 692.353, 23.642 682.353, 23.642 672.352, 23.641 662.352, 23.641 652.353, 23.641 642.353, 23.640 632.352, 23.640 622.352, 23.639 612.353, 23.639 602.353, 23.638 592.352, 23.638 582.352, 23.637 572.353, 23.637 562.353, 23.637 552.352, 23.636 542.352, 23.636 532.353, 23.635 522.353, 23.635 512.352, 23.635 502.352, 23.634 492.353, 23.634 482.353, 23.633 472.353, 23.633 462.352, 23.632 452.353, 23.632 442.353, 23.631 429.562, 23.631 " />
            <path fill="none" stroke-width="3.0" stroke-linecap="butt" stroke-opacity="1.0" stroke="rgb(0, 0, 0)" stroke-linejoin="round" d=" M 2218.012, 23.708 2208.012, 23.708 2206.219, 23.708 2196.219, 23.707 2186.219, 23.707 2176.219, 23.707 2166.219, 23.706 2156.219, 23.706 2146.219, 23.705 2136.219, 23.705 2126.219, 23.704 2116.219, 23.704 2106.219, 23.703 2096.219, 23.703 2086.219, 23.703 2083.721, 23.702 2073.721, 23.702 2063.721, 23.702 2053.721, 23.701 2043.721, 23.701 2033.721, 23.700 2023.721, 23.700 2013.721, 23.699 2003.721, 23.699 1993.721, 23.698 1983.721, 23.698 1973.721, 23.698 1963.721, 23.697 1953.721, 23.697 1943.721, 23.696 1933.721, 23.696 1923.721, 23.696 1913.721, 23.695 1903.721, 23.695 1893.721, 23.694 1883.721, 23.694 1873.721, 23.693 1863.721, 23.693 1853.721, 23.692 1843.721, 23.692 1833.721, 23.692 1823.721, 23.691 1813.721, 23.691 1803.721, 23.690 1793.721, 23.690 1783.721, 23.689 1773.721, 23.689 1763.721, 23.688 1753.721, 23.688 1743.721, 23.688 1733.721, 23.687 1723.721, 23.687 1713.721, 23.686 1703.721, 23.686 1693.721, 23.686 1683.721, 23.685 1673.721, 23.685 1663.721, 23.684 1653.721, 23.684 1643.721, 23.683 1633.721, 23.683 1623.721, 23.682 1613.721, 23.682 1603.721, 23.681 1593.721, 23.681 1583.721, 23.681 1573.721, 23.680 1563.721, 23.680 1553.721, 23.679 1543.721, 23.679 1533.721, 23.678 1523.721, 23.678 1513.721, 23.677 1503.721, 23.677 1493.721, 23.677 1483.721, 23.676 1473.721, 23.676 1463.721, 23.675 1453.721, 23.675 1443.721, 23.675 1433.721, 23.674 1423.721, 23.674 1413.721, 23.673 1403.721, 23.673 1393.721, 23.672 1383.721, 23.672 1373.721, 23.671 1362.903, 23.671 1359.484, 23.671 1349.484, 23.671 1339.484, 23.670 1331.243, 23.670 1321.243, 23.669 1311.243, 23.669 1301.243, 23.668 1291.243, 23.668 1281.243, 23.668 1271.243, 23.667 1264.594, 23.667 1254.594, 23.667 1244.594, 23.666 1234.594, 23.666 1226.838, 23.666 1216.838, 23.665 1206.838, 23.665 1196.838, 23.664 1186.838, 23.664 1176.838, 23.663 1166.492, 23.663 1158.947, 23.663 1158.633, 23.663 1155.705, 23.663 1152.414, 23.663 1149.084, 23.663 " />
            <path fill="none" stroke-width="3.0" stroke-linecap="butt" stroke-opacity="1.0" stroke="rgb(0, 0, 0)" stroke-linejoin="round" d=" M 1366.271, 23.672 1365.245, 23.671 1365.226, 23.671 1364.754, 23.671 1364.506, 23.671 1364.025, 23.671 1362.903, 23.671 " />
            <path fill="none" stroke-width="3.0" stroke-linecap="butt" stroke-opacity="1.0" stroke="rgb(0, 0, 0)" stroke-linejoin="round" d=" M 2257.073, 23.710 2247.073, 23.709 2237.073, 23.709 2227.073, 23.708 2217.073, 23.708 2207.073, 23.708 2205.854, 23.708 2204.609, 23.708 2203.484, 23.708 2193.484, 23.707 2183.484, 23.707 2173.484, 23.706 2163.484, 23.706 2153.484, 23.706 2143.484, 23.705 2133.484, 23.705 2123.484, 23.704 2113.484, 23.704 2103.484, 23.703 2093.484, 23.703 2083.721, 23.702 2073.721, 23.702 2063.721, 23.702 2053.721, 23.701 2043.721, 23.701 2033.721, 23.700 2023.721, 23.700 2013.721, 23.699 2003.721, 23.699 1993.721, 23.698 1985.153, 23.698 1975.153, 23.698 1965.153, 23.697 1958.321, 23.697 1948.321, 23.697 1938.321, 23.696 1928.321, 23.696 1918.321, 23.695 1908.321, 23.695 1898.321, 23.695 1888.321, 23.694 1878.321, 23.694 1868.321, 23.693 1858.186, 23.693 1848.186, 23.692 1838.186, 23.692 1828.186, 23.691 1818.186, 23.691 1808.186, 23.691 1798.186, 23.690 1788.186, 23.690 1783.636, 23.689 1773.636, 23.689 1763.636, 23.689 1753.636, 23.688 1743.636, 23.688 1733.636, 23.688 1723.636, 23.687 1713.636, 23.687 1703.636, 23.686 1693.636, 23.686 1683.636, 23.685 1673.636, 23.685 1663.636, 23.684 1653.636, 23.684 1643.636, 23.684 1633.636, 23.683 1623.636, 23.683 1613.636, 23.682 1603.636, 23.682 1593.636, 23.681 1583.636, 23.681 1573.636, 23.680 1563.636, 23.680 1551.629, 23.679 1541.629, 23.679 1531.629, 23.679 1521.629, 23.678 1511.629, 23.678 1501.629, 23.677 1491.629, 23.677 1481.629, 23.677 1471.629, 23.676 1461.629, 23.676 1451.629, 23.675 1441.629, 23.675 1431.629, 23.674 1421.629, 23.674 1411.629, 23.674 1401.629, 23.673 1391.629, 23.673 1385.812, 23.672 1382.632, 23.672 " />
            <path fill="none" stroke-width="3.0" stroke-linecap="butt" stroke-opacity="1.0" stroke="rgb(0, 0, 0)" stroke-linejoin="round" d=" M 2205.854, 23.708 2206.219, 23.708 2206.267, 23.708 2206.276, 23.708 2206.300, 23.708 2206.312, 23.708 2206.322, 23.708 " />
            <path fill="none" stroke-width="3.0" stroke-linecap="butt" stroke-opacity="1.0" stroke="rgb(0, 0, 0)" stroke-linejoin="round" d=" M 927.239, 1102.404 924.720, 1104.986 922.076, 1107.439 919.312, 1109.759 916.436, 1111.937 913.455, 1113.970 910.377, 1115.850 907.209, 1117.576 903.959, 1119.141 900.634, 1120.542 897.244, 1121.776 893.797, 1122.840 890.301, 1123.730 886.765, 1124.444 883.198, 1124.981 879.608, 1125.341 876.005, 1125.521 872.397, 1125.521 868.794, 1125.341 865.205, 1124.981 861.637, 1124.444 858.101, 1123.730 854.605, 1122.840 851.157, 1121.776 847.768, 1120.542 844.443, 1119.141 841.193, 1117.576 838.025, 1115.850 834.946, 1113.970 831.966, 1111.937 829.090, 1109.759 826.326, 1107.439 823.682, 1104.986 821.163, 1102.404 818.776, 1099.698 816.526, 1096.878 814.421, 1093.949 812.463, 1090.918 810.659, 1087.794 809.014, 1084.584 807.530, 1081.295 806.212, 1077.937 805.063, 1074.517 804.086, 1071.045 803.283, 1067.528 802.657, 1063.974 802.208, 1060.395 801.938, 1056.798 801.849, 1053.191 801.938, 1049.584 802.208, 1045.987 802.657, 1042.408 803.283, 1038.855 804.086, 1035.338 805.063, 1031.865 806.212, 1028.445 807.530, 1025.087 809.014, 1021.799 810.659, 1018.589 812.463, 1015.464 814.421, 1012.434 816.526, 1009.504 818.776, 1006.683 821.163, 1003.979 823.682, 1001.396 826.326, 998.943 829.090, 996.624 831.966, 994.446 834.946, 992.413 838.025, 990.532 841.193, 988.807 844.443, 987.242 847.768, 985.840 851.157, 984.606 854.605, 983.543 858.101, 982.652 861.637, 981.938 865.205, 981.400 868.794, 981.041 872.397, 980.861 876.005, 980.861 879.608, 981.041 883.198, 981.400 886.765, 981.938 890.301, 982.652 893.797, 983.543 897.244, 984.606 900.634, 985.840 903.959, 987.242 907.209, 988.807 910.377, 990.532 913.455, 992.413 916.436, 994.446 919.312, 996.624 922.076, 998.943 924.720, 1001.396 927.239, 1003.979 929.626, 1006.683 931.875, 1009.504 933.981, 1012.434 935.939, 1015.464 937.743, 1018.589 939.388, 1021.799 940.872, 1025.087 942.190, 1028.445 943.339, 1031.865 944.316, 1035.338 945.119, 1038.855 945.745, 1042.408 946.194, 1045.987 946.463, 1049.584 946.553, 1053.191 946.463, 1056.798 946.194, 1060.395 945.745, 1063.974 945.119, 1067.528 944.316, 1071.045 943.339, 1074.517 942.190, 1077.937 940.872, 1081.295 939.388, 1084.584 937.743, 1087.794 935.939, 1090.918 933.981, 1093.949 931.875, 1096.878 929.626, 1099.698 927.239, 1102.404 " />
            <path fill="none" stroke-width="3.0" stroke-linecap="butt" stroke-opacity="1.0" stroke="rgb(0, 0, 0)" stroke-linejoin="round" d=" M 1984.205, 2481.076 1980.254, 2481.074 " />
            <path fill="none" stroke-width="3.0" stroke-linecap="butt" stroke-opacity="1.0" stroke="rgb(0, 0, 0)" stroke-linejoin="round" d=" M 1331.243, 23.670 1321.243, 23.669 1311.243, 23.669 1301.243, 23.668 1291.243, 23.668 1281.243, 23.668 1271.243, 23.667 1261.243, 23.667 1251.243, 23.666 1241.243, 23.666 1231.243, 23.666 1221.243, 23.665 1211.243, 23.665 1201.243, 23.664 1191.243, 23.664 1181.243, 23.663 1171.243, 23.663 1164.176, 23.663 1161.962, 23.663 1160.821, 23.663 1159.002, 23.663 " />
            <path fill="none" stroke-width="3.0" stroke-linecap="butt" stroke-opacity="1.0" stroke="rgb(0, 0, 0)" stroke-linejoin="round" d=" M 1164.176, 23.663 1165.199, 23.663 1165.724, 23.663 1166.492, 23.663 " />
            <path fill="none" stroke-width="3.0" stroke-linecap="butt" stroke-opacity="1.0" stroke="rgb(0, 0, 0)" stroke-linejoin="round" d=" M 2217.539, 23.708 2207.539, 23.708 2206.267, 23.708 2196.267, 23.707 2186.267, 23.707 2176.267, 23.707 2166.267, 23.706 2156.267, 23.706 2146.267, 23.705 2136.267, 23.705 2126.267, 23.704 2116.267, 23.704 2106.267, 23.703 2096.267, 23.703 2086.267, 23.703 2076.267, 23.702 2066.267, 23.702 2056.267, 23.701 2046.267, 23.701 2036.267, 23.700 2026.267, 23.700 2016.267, 23.699 2006.267, 23.699 1996.267, 23.699 1985.153, 23.698 1975.153, 23.698 1965.153, 23.697 1955.153, 23.697 1945.153, 23.697 1935.153, 23.696 1925.153, 23.696 1915.153, 23.695 1905.153, 23.695 1895.153, 23.694 1885.153, 23.694 1875.153, 23.693 1865.153, 23.693 1855.153, 23.693 1845.153, 23.692 1835.153, 23.692 1825.153, 23.691 1815.153, 23.691 1805.153, 23.690 1795.153, 23.690 1785.153, 23.689 1775.153, 23.689 1765.153, 23.689 1755.153, 23.688 1745.153, 23.688 1735.153, 23.687 1725.153, 23.687 1715.153, 23.687 1705.153, 23.686 1695.153, 23.686 1685.153, 23.685 1675.153, 23.685 1665.153, 23.684 1655.153, 23.684 1645.153, 23.683 1635.153, 23.683 1625.153, 23.683 1615.153, 23.682 1605.153, 23.682 1595.153, 23.681 1585.153, 23.681 1575.153, 23.680 1565.153, 23.680 1555.153, 23.679 1545.153, 23.679 1535.153, 23.679 1525.153, 23.678 1515.153, 23.678 1505.153, 23.677 1495.153, 23.677 1485.153, 23.677 1475.153, 23.676 1465.153, 23.676 1455.153, 23.675 1445.153, 23.675 1435.153, 23.674 1425.153, 23.674 1415.153, 23.673 1405.153, 23.673 1395.153, 23.673 1385.153, 23.672 1375.489, 23.672 1374.831, 23.672 1373.011, 23.672 1372.073, 23.672 1370.275, 23.672 1370.216, 23.672 1365.245, 23.671 " />
            <path fill="none" stroke-width="3.0" stroke-linecap="butt" stroke-opacity="1.0" stroke="rgb(0, 0, 0)" stroke-linejoin="round" d=" M 1375.489, 23.672 1375.799, 23.672 1376.658, 23.672 1377.098, 23.672 1377.939, 23.672 1379.789, 23.672 " />
            <path fill="none" stroke-width="3.0" stroke-linecap="butt" stroke-opacity="1.0" stroke="rgb(0, 0, 0)" stroke-linejoin="round" d=" M 1975.469, 2481.072 1984.205, 2481.076 " />
            <path fill="none" stroke-width="3.0" stroke-linecap="butt" stroke-opacity="1.0" stroke="rgb(0, 0, 0)" stroke-linejoin="round" d=" M 4095.984, 23.791 4085.984, 23.790 4075.984, 23.790 4065.984, 23.789 4055.984, 23.789 4049.898, 23.789 " />
            <path fill="none" stroke-width="3.0" stroke-linecap="butt" stroke-opacity="1.0" stroke="rgb(0, 0, 0)" stroke-linejoin="round" d=" M 5310.204, 23.844 5308.447, 23.844 5298.447, 23.843 5288.447, 23.843 5278.447, 23.842 5268.447, 23.842 5258.447, 23.841 5248.447, 23.841 5238.447, 23.840 5228.447, 23.840 5218.447, 23.840 5208.447, 23.839 5198.447, 23.839 5188.447, 23.838 5178.447, 23.838 5168.447, 23.837 5158.447, 23.837 5148.447, 23.836 5138.447, 23.836 5128.447, 23.836 5118.447, 23.835 5108.447, 23.835 5098.447, 23.834 5088.447, 23.834 5078.447, 23.833 5068.447, 23.833 5058.447, 23.833 5048.447, 23.832 5038.447, 23.832 5028.447, 23.831 5018.447, 23.831 5008.447, 23.830 4998.447, 23.830 4988.447, 23.830 4978.447, 23.829 4968.447, 23.829 4958.447, 23.828 4948.447, 23.828 4938.447, 23.827 4928.447, 23.827 4918.447, 23.826 4908.447, 23.826 4898.447, 23.826 4888.447, 23.825 4878.447, 23.825 4868.447, 23.824 4858.447, 23.824 4848.447, 23.823 4838.447, 23.823 4828.447, 23.823 4818.447, 23.822 4808.447, 23.822 4798.447, 23.821 4788.447, 23.821 4778.447, 23.820 4768.447, 23.820 4758.447, 23.820 4748.447, 23.819 4738.447, 23.819 4728.447, 23.818 4718.447, 23.818 4708.447, 23.817 4698.447, 23.817 4688.447, 23.816 4678.447, 23.816 4668.447, 23.816 4658.447, 23.815 4648.447, 23.815 4638.447, 23.814 4628.447, 23.814 4618.447, 23.813 4608.447, 23.813 4598.447, 23.812 4588.447, 23.812 4578.447, 23.812 4568.447, 23.811 4558.447, 23.811 4548.447, 23.810 4538.447, 23.810 4528.447, 23.810 4518.447, 23.809 4508.447, 23.809 4498.447, 23.808 4488.447, 23.808 4478.447, 23.807 4468.447, 23.807 4458.447, 23.806 4448.447, 23.806 4438.447, 23.805 4428.447, 23.805 4418.447, 23.805 4408.447, 23.804 4398.447, 23.804 4388.447, 23.803 4378.447, 23.803 4368.447, 23.802 4358.447, 23.802 4348.447, 23.802 4338.447, 23.801 4328.447, 23.801 4318.447, 23.800 4308.447, 23.800 4298.447, 23.799 4288.447, 23.799 4278.447, 23.799 4268.447, 23.798 4258.447, 23.798 4248.447, 23.797 4238.447, 23.797 4228.447, 23.796 4218.447, 23.796 4208.447, 23.795 4198.447, 23.795 4188.447, 23.795 4178.447, 23.794 4168.447, 23.794 4158.447, 23.793 4148.447, 23.793 4138.447, 23.792 4128.447, 23.792 4118.447, 23.792 4108.447, 23.791 4098.447, 23.791 4088.447, 23.790 4078.447, 23.790 4068.447, 23.789 4049.898, 23.789 " />
            <path fill="none" stroke-width="3.0" stroke-linecap="butt" stroke-opacity="1.0" stroke="rgb(0, 0, 0)" stroke-linejoin="round" d=" M 323.131, 1631.728 319.800, 1641.157 316.469, 1650.586 313.137, 1660.014 309.806, 1669.443 306.474, 1678.872 303.143, 1688.301 299.811, 1697.729 296.480, 1707.158 293.148, 1716.587 289.817, 1726.016 286.485, 1735.444 283.154, 1744.873 279.822, 1754.302 276.491, 1763.731 273.159, 1773.159 269.828, 1782.588 266.496, 1792.017 263.165, 1801.445 259.833, 1810.874 256.502, 1820.303 253.170, 1829.732 249.839, 1839.160 246.507, 1848.589 243.176, 1858.018 239.844, 1867.447 236.513, 1876.875 233.181, 1886.304 229.850, 1895.733 226.518, 1905.162 223.187, 1914.590 219.856, 1924.019 216.524, 1933.448 213.193, 1942.877 209.861, 1952.305 206.530, 1961.734 203.198, 1971.163 199.867, 1980.592 196.535, 1990.020 193.204, 1999.449 189.872, 2008.878 186.541, 2018.307 183.209, 2027.735 179.878, 2037.164 176.546, 2046.593 173.215, 2056.022 169.883, 2065.450 166.552, 2074.879 163.220, 2084.308 159.889, 2093.737 156.557, 2103.165 153.226, 2112.594 149.894, 2122.023 146.563, 2131.452 143.231, 2140.880 139.900, 2150.309 136.568, 2159.738 133.237, 2169.167 129.906, 2178.595 126.574, 2188.024 123.243, 2197.453 119.911, 2206.882 116.580, 2216.310 113.248, 2225.739 109.917, 2235.168 106.585, 2244.596 103.254, 2254.025 99.922, 2263.454 96.591, 2272.883 93.259, 2282.311 89.928, 2291.740 86.596, 2301.169 83.265, 2310.598 79.933, 2320.026 76.602, 2329.455 73.270, 2338.884 69.939, 2348.313 66.607, 2357.741 63.276, 2367.170 59.944, 2376.599 56.613, 2386.028 53.281, 2395.456 49.950, 2404.885 46.618, 2414.314 43.287, 2423.743 39.955, 2433.171 36.624, 2442.600 33.293, 2452.029 29.961, 2461.458 26.630, 2470.886 23.369, 2480.113 " />
            <path fill="none" stroke-width="3.0" stroke-linecap="butt" stroke-opacity="1.0" stroke="rgb(0, 0, 0)" stroke-linejoin="round" d=" M 429.562, 23.631 429.190, 27.540 " />
            <path fill="none" stroke-width="3.0" stroke-linecap="butt" stroke-opacity="1.0" stroke="rgb(0, 0, 0)" stroke-linejoin="round" d=" M 429.190, 27.540 429.909, 37.514 430.629, 47.488 431.348, 57.462 432.068, 67.436 432.787, 77.410 433.506, 87.385 434.226, 97.359 434.945, 107.333 435.665, 117.307 436.384, 127.281 437.103, 137.255 437.823, 147.229 438.542, 157.203 439.262, 167.177 439.981, 177.151 440.700, 187.125 441.420, 197.100 442.139, 207.073 442.859, 217.048 443.578, 227.022 444.297, 236.996 445.017, 246.970 445.736, 256.944 446.456, 266.918 447.175, 276.892 447.894, 286.866 448.614, 296.840 449.333, 306.814 450.053, 316.789 450.772, 326.763 451.491, 336.737 452.211, 346.711 452.930, 356.685 453.493, 364.490 " />
            <path fill="none" stroke-width="3.0" stroke-linecap="butt" stroke-opacity="1.0" stroke="rgb(0, 0, 0)" stroke-linejoin="round" d=" M 1149.084, 23.663 1146.604, 23.662 1146.028, 23.662 1145.727, 23.662 " />
            <path fill="none" stroke-width="3.0" stroke-linecap="butt" stroke-opacity="1.0" stroke="rgb(0, 0, 0)" stroke-linejoin="round" d=" M 23.369, 2480.113 33.369, 2480.118 43.369, 2480.123 53.369, 2480.128 63.369, 2480.133 73.369, 2480.138 83.369, 2480.143 93.369, 2480.148 103.369, 2480.153 113.369, 2480.158 123.369, 2480.163 133.369, 2480.167 143.369, 2480.172 153.369, 2480.177 163.369, 2480.182 173.369, 2480.187 183.369, 2480.192 193.369, 2480.197 203.369, 2480.202 213.369, 2480.207 223.369, 2480.212 233.369, 2480.217 243.369, 2480.221 253.369, 2480.226 263.369, 2480.231 273.369, 2480.236 283.369, 2480.241 293.369, 2480.246 303.369, 2480.251 313.369, 2480.256 323.369, 2480.261 333.369, 2480.266 343.369, 2480.271 353.369, 2480.275 363.369, 2480.280 373.369, 2480.285 383.369, 2480.290 393.369, 2480.295 403.369, 2480.300 413.369, 2480.305 423.369, 2480.310 433.369, 2480.315 443.369, 2480.320 453.369, 2480.325 463.369, 2480.329 473.369, 2480.334 483.369, 2480.339 493.369, 2480.344 503.369, 2480.349 513.369, 2480.354 523.369, 2480.359 533.369, 2480.364 543.369, 2480.369 553.369, 2480.374 563.369, 2480.379 573.369, 2480.383 583.369, 2480.388 593.369, 2480.393 603.369, 2480.398 613.369, 2480.403 623.369, 2480.408 633.369, 2480.413 643.369, 2480.418 653.369, 2480.423 663.369, 2480.428 673.369, 2480.433 683.369, 2480.437 693.369, 2480.442 703.369, 2480.447 713.369, 2480.452 723.369, 2480.457 733.369, 2480.462 743.369, 2480.467 753.369, 2480.472 763.369, 2480.477 773.369, 2480.482 783.369, 2480.487 793.369, 2480.491 803.369, 2480.496 813.369, 2480.501 823.369, 2480.506 833.369, 2480.511 843.369, 2480.516 853.369, 2480.521 863.369, 2480.526 873.369, 2480.531 883.369, 2480.536 893.369, 2480.541 903.369, 2480.545 913.369, 2480.550 923.369, 2480.555 933.369, 2480.560 943.369, 2480.565 953.369, 2480.570 963.369, 2480.575 973.369, 2480.580 983.369, 2480.585 993.369, 2480.590 1003.369, 2480.594 1013.369, 2480.599 1023.369, 2480.604 1033.369, 2480.609 1043.369, 2480.614 1053.369, 2480.619 1063.369, 2480.624 1073.369, 2480.629 1083.369, 2480.634 1093.369, 2480.639 1103.369, 2480.644 1113.369, 2480.648 1123.369, 2480.653 1133.369, 2480.658 1143.369, 2480.663 1153.369, 2480.668 1163.369, 2480.673 1173.369, 2480.678 1183.369, 2480.683 1193.369, 2480.688 1203.369, 2480.693 1213.369, 2480.698 1223.369, 2480.702 1233.369, 2480.707 1243.369, 2480.712 1253.369, 2480.717 1263.369, 2480.722 1273.369, 2480.727 1283.369, 2480.732 1293.369, 2480.737 1303.369, 2480.742 1313.369, 2480.747 1323.369, 2480.752 1333.369, 2480.756 1343.369, 2480.761 1353.369, 2480.766 1363.369, 2480.771 1373.369, 2480.776 1383.369, 2480.781 1393.369, 2480.786 1403.369, 2480.791 1413.369, 2480.796 1423.369, 2480.801 1433.369, 2480.806 1443.369, 2480.810 1453.369, 2480.815 1463.369, 2480.820 1473.369, 2480.825 1483.369, 2480.830 1493.369, 2480.835 1503.369, 2480.840 1513.369, 2480.845 1523.369, 2480.850 1533.369, 2480.855 1543.369, 2480.860 1553.369, 2480.864 1563.369, 2480.869 1573.369, 2480.874 1583.369, 2480.879 1593.369, 2480.884 1603.369, 2480.889 1613.369, 2480.894 1623.369, 2480.899 1633.369, 2480.904 1643.369, 2480.909 1653.369, 2480.914 1663.369, 2480.918 1673.369, 2480.923 1683.369, 2480.928 1693.369, 2480.933 1703.369, 2480.938 1713.369, 2480.943 1723.369, 2480.948 1733.369, 2480.953 1743.369, 2480.958 1753.369, 2480.963 1763.369, 2480.968 1773.369, 2480.972 1783.369, 2480.977 1793.369, 2480.982 1803.369, 2480.987 1813.369, 2480.992 1823.369, 2480.997 1833.369, 2481.002 1843.369, 2481.007 1853.369, 2481.012 1863.369, 2481.017 1873.369, 2481.022 1883.369, 2481.026 1893.369, 2481.031 1903.369, 2481.036 1913.369, 2481.041 1923.369, 2481.046 1933.369, 2481.051 1943.369, 2481.056 1953.369, 2481.061 1975.469, 2481.072 " />
            <path fill="none" stroke-width="3.0" stroke-linecap="butt" stroke-opacity="1.0" stroke="rgb(0, 0, 0)" stroke-linejoin="round" d=" M 1975.469, 2481.072 1984.205, 2481.076 " />
            <path fill="none" stroke-width="3.0" stroke-linecap="butt" stroke-opacity="1.0" stroke="rgb(0, 0, 0)" stroke-linejoin="round" d=" M 1984.205, 2481.076 1976.938, 2481.072 " />
            <path fill="none" stroke-width="3.0" stroke-linecap="butt" stroke-opacity="1.0" stroke="rgb(0, 0, 0)" stroke-linejoin="round" d=" M 2217.451, 23.708 2207.451, 23.708 2206.276, 23.708 2196.276, 23.708 2186.276, 23.707 2176.276, 23.707 2166.276, 23.706 2156.276, 23.706 2146.276, 23.705 2136.276, 23.705 2126.276, 23.704 2116.276, 23.704 2106.276, 23.703 2096.276, 23.703 2086.276, 23.703 2076.276, 23.702 2066.276, 23.702 2056.276, 23.701 2046.276, 23.701 2036.276, 23.700 2026.276, 23.700 2016.276, 23.699 2006.276, 23.699 1996.276, 23.699 1986.276, 23.698 1976.276, 23.698 1966.276, 23.698 1958.321, 23.697 1948.321, 23.697 1938.321, 23.696 1928.321, 23.696 1918.321, 23.695 1908.321, 23.695 1898.321, 23.694 1888.321, 23.694 1878.321, 23.694 1868.321, 23.693 1858.321, 23.693 1848.321, 23.692 1838.321, 23.692 1828.321, 23.691 1818.321, 23.691 1808.321, 23.690 1798.321, 23.690 1788.321, 23.690 1778.321, 23.689 1768.321, 23.689 1758.321, 23.688 1748.321, 23.688 1738.321, 23.688 1728.321, 23.687 1718.321, 23.687 1708.321, 23.686 1698.321, 23.686 1688.321, 23.685 1678.321, 23.685 1668.321, 23.685 1658.321, 23.684 1648.321, 23.684 1638.321, 23.683 1628.321, 23.683 1618.321, 23.682 1608.321, 23.682 1598.321, 23.681 1588.321, 23.681 1578.321, 23.681 1568.321, 23.680 1558.321, 23.680 1548.321, 23.679 1538.321, 23.679 1528.321, 23.678 1518.321, 23.678 1508.321, 23.677 1498.321, 23.677 1488.321, 23.677 1478.321, 23.676 1468.321, 23.676 1458.321, 23.675 1448.321, 23.675 1438.321, 23.675 1428.321, 23.674 1418.321, 23.674 1408.321, 23.673 1398.321, 23.673 1388.321, 23.672 1375.799, 23.672 1374.831, 23.672 1364.831, 23.671 1364.025, 23.671 " />
            <path fill="none" stroke-width="3.0" stroke-linecap="butt" stroke-opacity="1.0" stroke="rgb(0, 0, 0)" stroke-linejoin="round" d=" M 2217.209, 23.708 2207.209, 23.708 2206.300, 23.708 2196.300, 23.708 2186.300, 23.707 2176.300, 23.707 2166.300, 23.706 2156.300, 23.706 2146.300, 23.705 2136.300, 23.705 2126.300, 23.704 2116.300, 23.704 2106.300, 23.704 2096.300, 23.703 2086.300, 23.703 2076.300, 23.702 2066.300, 23.702 2056.300, 23.701 2046.300, 23.701 2036.300, 23.700 2026.300, 23.700 2016.300, 23.700 2006.300, 23.699 1996.300, 23.699 1986.300, 23.698 1976.300, 23.698 1966.300, 23.698 1956.300, 23.697 1946.300, 23.697 1936.300, 23.696 1926.300, 23.696 1916.300, 23.695 1906.300, 23.695 1896.300, 23.694 1886.300, 23.694 1876.300, 23.694 1866.300, 23.693 1858.186, 23.693 1848.186, 23.692 1838.186, 23.692 1828.186, 23.691 1818.186, 23.691 1808.186, 23.691 1798.186, 23.690 1788.186, 23.690 1778.186, 23.689 1768.186, 23.689 1758.186, 23.688 1748.186, 23.688 1738.186, 23.688 1728.186, 23.687 1718.186, 23.687 1708.186, 23.686 1698.186, 23.686 1688.186, 23.685 1678.186, 23.685 1668.186, 23.685 1658.186, 23.684 1648.186, 23.684 1638.186, 23.683 1628.186, 23.683 1618.186, 23.682 1608.186, 23.682 1598.186, 23.681 1588.186, 23.681 1578.186, 23.681 1568.186, 23.680 1558.186, 23.680 1548.186, 23.679 1538.186, 23.679 1528.186, 23.678 1518.186, 23.678 1508.186, 23.677 1498.186, 23.677 1488.186, 23.677 1478.186, 23.676 1468.186, 23.676 1458.186, 23.675 1448.186, 23.675 1438.186, 23.675 1428.186, 23.674 1418.186, 23.674 1408.186, 23.673 1398.186, 23.673 1388.186, 23.672 1376.658, 23.672 1373.011, 23.672 1364.506, 23.671 " />
            <path fill="none" stroke-width="3.0" stroke-linecap="butt" stroke-opacity="1.0" stroke="rgb(0, 0, 0)" stroke-linejoin="round" d=" M 1365.226, 23.671 1370.275, 23.672 1377.939, 23.672 1387.939, 23.672 1397.939, 23.673 1407.939, 23.673 1417.939, 23.674 1427.939, 23.674 1437.939, 23.675 1447.939, 23.675 1457.939, 23.676 1467.939, 23.676 1477.939, 23.676 1487.939, 23.677 1497.939, 23.677 1507.939, 23.678 1517.939, 23.678 1527.939, 23.678 1537.939, 23.679 1547.939, 23.679 1551.629, 23.679 1561.629, 23.680 1571.629, 23.680 1581.629, 23.681 1591.629, 23.681 1601.629, 23.682 1611.629, 23.682 1621.629, 23.683 1631.629, 23.683 1641.629, 23.683 1651.629, 23.684 1661.629, 23.684 1671.629, 23.685 1681.629, 23.685 1691.629, 23.686 1701.629, 23.686 1711.629, 23.687 1721.629, 23.687 1731.629, 23.687 1741.629, 23.688 1751.629, 23.688 1761.629, 23.689 1771.629, 23.689 1781.629, 23.689 1791.629, 23.690 1801.629, 23.690 1811.629, 23.691 1821.629, 23.691 1831.629, 23.692 1841.629, 23.692 1851.629, 23.693 1861.629, 23.693 1871.629, 23.693 1881.629, 23.694 1891.629, 23.694 1901.629, 23.695 1911.629, 23.695 1921.629, 23.696 1931.629, 23.696 1941.629, 23.697 1951.629, 23.697 1961.629, 23.697 1971.629, 23.698 1981.629, 23.698 1991.629, 23.698 2001.629, 23.699 2011.629, 23.699 2021.629, 23.700 2031.629, 23.700 2041.629, 23.701 2051.629, 23.701 2061.629, 23.702 2071.629, 23.702 2081.629, 23.702 2091.629, 23.703 2101.629, 23.703 2111.629, 23.704 2121.629, 23.704 2131.629, 23.705 2141.629, 23.705 2151.629, 23.706 2161.629, 23.706 2174.528, 23.707 " />
            <path fill="none" stroke-width="3.0" stroke-linecap="butt" stroke-opacity="1.0" stroke="rgb(0, 0, 0)" stroke-linejoin="round" d=" M 1146.604, 23.662 1156.604, 23.662 1158.633, 23.663 " />
            <path fill="none" stroke-width="3.0" stroke-linecap="butt" stroke-opacity="1.0" stroke="rgb(0, 0, 0)" stroke-linejoin="round" d=" M 1144.571, 23.662 1134.571, 23.661 1124.571, 23.661 1114.571, 23.661 1104.571, 23.660 1094.571, 23.660 1084.571, 23.659 1074.571, 23.659 1064.571, 23.658 1054.571, 23.658 1044.571, 23.657 1034.571, 23.657 1024.571, 23.657 1014.571, 23.656 1004.571, 23.656 994.571, 23.655 984.571, 23.655 974.571, 23.655 964.571, 23.654 954.571, 23.654 944.571, 23.653 934.571, 23.653 924.571, 23.652 914.571, 23.652 904.571, 23.651 894.571, 23.651 884.571, 23.651 874.571, 23.650 864.571, 23.650 854.571, 23.649 844.571, 23.649 834.571, 23.648 824.571, 23.648 814.571, 23.647 804.571, 23.647 794.571, 23.647 784.571, 23.646 774.571, 23.646 764.571, 23.645 754.571, 23.645 744.571, 23.645 734.571, 23.644 724.571, 23.644 714.571, 23.643 704.571, 23.643 694.571, 23.642 684.571, 23.642 674.571, 23.642 664.571, 23.641 654.571, 23.641 644.571, 23.640 634.571, 23.640 624.571, 23.639 614.571, 23.639 604.571, 23.638 594.571, 23.638 584.571, 23.638 574.571, 23.637 564.571, 23.637 554.571, 23.636 544.571, 23.636 534.571, 23.635 524.571, 23.635 514.571, 23.635 504.571, 23.634 494.571, 23.634 484.571, 23.633 474.571, 23.633 464.571, 23.632 454.571, 23.632 444.571, 23.632 429.562, 23.631 " />
            <path fill="none" stroke-width="3.0" stroke-linecap="butt" stroke-opacity="1.0" stroke="rgb(0, 0, 0)" stroke-linejoin="round" d=" M 1226.838, 23.666 1216.838, 23.665 1206.838, 23.665 1196.838, 23.664 1186.838, 23.664 1176.838, 23.663 1166.838, 23.663 1165.724, 23.663 1160.821, 23.663 1150.821, 23.662 1146.028, 23.662 " />
            <path fill="none" stroke-width="3.0" stroke-linecap="butt" stroke-opacity="1.0" stroke="rgb(0, 0, 0)" stroke-linejoin="round" d=" M 2217.084, 23.708 2207.084, 23.708 2206.312, 23.708 2196.312, 23.708 2186.312, 23.707 2176.312, 23.707 2166.312, 23.706 2156.312, 23.706 2146.312, 23.705 2136.312, 23.705 2126.312, 23.704 2116.312, 23.704 2106.312, 23.704 2096.312, 23.703 2086.312, 23.703 2076.312, 23.702 2066.312, 23.702 2056.312, 23.701 2046.312, 23.701 2036.312, 23.700 2026.312, 23.700 2016.312, 23.700 2006.312, 23.699 1996.312, 23.699 1986.312, 23.698 1976.312, 23.698 1966.312, 23.698 1956.312, 23.697 1946.312, 23.697 1936.312, 23.696 1926.312, 23.696 1916.312, 23.695 1906.312, 23.695 1896.312, 23.694 1886.312, 23.694 1876.312, 23.694 1866.312, 23.693 1856.312, 23.693 1846.312, 23.692 1836.312, 23.692 1826.312, 23.691 1816.312, 23.691 1806.312, 23.690 1796.312, 23.690 1783.636, 23.689 1773.636, 23.689 1763.636, 23.689 1753.636, 23.688 1743.636, 23.688 1733.636, 23.687 1723.636, 23.687 1713.636, 23.687 1703.636, 23.686 1693.636, 23.686 1683.636, 23.685 1673.636, 23.685 1663.636, 23.684 1653.636, 23.684 1643.636, 23.684 1633.636, 23.683 1623.636, 23.683 1613.636, 23.682 1603.636, 23.682 1593.636, 23.681 1583.636, 23.681 1573.636, 23.680 1563.636, 23.680 1553.636, 23.680 1543.636, 23.679 1533.636, 23.679 1523.636, 23.678 1513.636, 23.678 1503.636, 23.677 1493.636, 23.677 1483.636, 23.677 1473.636, 23.676 1463.636, 23.676 1453.636, 23.675 1443.636, 23.675 1433.636, 23.674 1423.636, 23.674 1413.636, 23.674 1403.636, 23.673 1393.636, 23.673 1383.636, 23.672 1377.098, 23.672 1372.073, 23.672 1364.754, 23.671 " />
            <path fill="none" stroke-width="3.0" stroke-linecap="butt" stroke-opacity="1.0" stroke="rgb(0, 0, 0)" stroke-linejoin="round" d=" M 4873.795, 816.083 4871.605, 814.589 " />
            <path fill="none" stroke-width="3.0" stroke-linecap="butt" stroke-opacity="1.0" stroke="rgb(0, 0, 0)" stroke-linejoin="round" d=" M 4876.057, 817.465 4873.795, 816.083 " />
            <path fill="none" stroke-width="3.0" stroke-linecap="butt" stroke-opacity="1.0" stroke="rgb(0, 0, 0)" stroke-linejoin="round" d=" M 4878.384, 818.732 4876.057, 817.465 " />
            <path fill="none" stroke-width="3.0" stroke-linecap="butt" stroke-opacity="1.0" stroke="rgb(0, 0, 0)" stroke-linejoin="round" d=" M 4898.663, 824.438 4896.025, 824.174 " />
            <path fill="none" stroke-width="3.0" stroke-linecap="butt" stroke-opacity="1.0" stroke="rgb(0, 0, 0)" stroke-linejoin="round" d=" M 4901.310, 824.570 4898.663, 824.438 " />
            <path fill="none" stroke-width="3.0" stroke-linecap="butt" stroke-opacity="1.0" stroke="rgb(0, 0, 0)" stroke-linejoin="round" d=" M 4943.355, 805.598 4941.602, 807.586 " />
            <path fill="none" stroke-width="3.0" stroke-linecap="butt" stroke-opacity="1.0" stroke="rgb(0, 0, 0)" stroke-linejoin="round" d=" M 4953.430, 787.098 4952.586, 789.610 " />
            <path fill="none" stroke-width="3.0" stroke-linecap="butt" stroke-opacity="1.0" stroke="rgb(0, 0, 0)" stroke-linejoin="round" d=" M 5308.445, 23.844 5308.442, 23.844 5307.740, 23.890 5306.893, 23.946 " />
            <path fill="none" stroke-width="3.0" stroke-linecap="butt" stroke-opacity="1.0" stroke="rgb(0, 0, 0)" stroke-linejoin="round" d=" M 5308.447, 23.844 5308.445, 23.844 " />
            <path fill="none" stroke-width="3.0" stroke-linecap="butt" stroke-opacity="1.0" stroke="rgb(0, 0, 0)" stroke-linejoin="round" d=" M 5310.204, 23.844 5308.447, 23.844 " />
            <path fill="none" stroke-width="3.0" stroke-linecap="butt" stroke-opacity="1.0" stroke="rgb(0, 0, 0)" stroke-linejoin="round" d=" M 6019.215, 458.014 6017.867, 448.105 6016.518, 438.197 6015.168, 428.288 6013.820, 418.380 6012.471, 408.471 6011.122, 398.562 6009.773, 388.654 6008.424, 378.745 6007.075, 368.837 6005.727, 358.928 6004.377, 349.020 6003.029, 339.111 6001.680, 329.202 6000.331, 319.294 5998.982, 309.385 5997.633, 299.477 5996.284, 289.568 5994.936, 279.659 5993.586, 269.751 5992.237, 259.842 5991.659, 255.593 " />
            <path fill="none" stroke-width="3.0" stroke-linecap="butt" stroke-opacity="1.0" stroke="rgb(0, 0, 0)" stroke-linejoin="round" d=" M 6083.238, 727.457 6080.926, 717.727 6078.614, 707.998 6076.303, 698.269 6073.991, 688.540 6071.679, 678.811 6069.367, 669.082 6067.056, 659.353 6064.744, 649.624 6062.432, 639.894 6060.121, 630.165 6057.809, 620.436 6055.497, 610.707 6053.185, 600.978 6050.874, 591.249 6048.562, 581.520 6046.250, 571.791 6043.938, 562.061 6041.626, 552.332 6039.314, 542.603 6037.003, 532.874 6034.691, 523.145 6032.379, 513.416 6030.068, 503.687 6027.756, 493.958 6025.444, 484.228 6023.132, 474.499 6020.821, 464.770 6019.215, 458.014 " />
        </g>
    </g>
<g id="slice-labels"><text x="578.1425" y="433.58916666666664" text-anchor="middle" dominant-baseline="middle" font-family="Arial, sans-serif" font-size="59.06313085050987" font-weight="bold" fill="black" stroke="none" stroke-width="7.087575702061184" paint-order="stroke fill">Slice34 (Back)</text><text x="1687.6895" y="433.58916666666664" text-anchor="middle" dominant-baseline="middle" font-family="Arial, sans-serif" font-size="59.06313085050987" font-weight="bold" fill="black" stroke="none" stroke-width="7.087575702061184" paint-order="stroke fill">Slice34 (Back)</text><text x="2797.2365000000004" y="433.58916666666664" text-anchor="middle" dominant-baseline="middle" font-family="Arial, sans-serif" font-size="59.06313085050987" font-weight="bold" fill="black" stroke="none" stroke-width="7.087575702061184" paint-order="stroke fill">Slice34 (Back)</text><text x="3906.7835000000005" y="433.58916666666664" text-anchor="middle" dominant-baseline="middle" font-family="Arial, sans-serif" font-size="59.06313085050987" font-weight="bold" fill="black" stroke="none" stroke-width="7.087575702061184" paint-order="stroke fill">Slice34 (Back)</text><text x="5016.3305" y="433.58916666666664" text-anchor="middle" dominant-baseline="middle" font-family="Arial, sans-serif" font-size="59.06313085050987" font-weight="bold" fill="black" stroke="none" stroke-width="7.087575702061184" paint-order="stroke fill">Slice34 (Back)</text><text x="6125.8775" y="433.58916666666664" text-anchor="middle" dominant-baseline="middle" font-family="Arial, sans-serif" font-size="59.06313085050987" font-weight="bold" fill="black" stroke="none" stroke-width="7.087575702061184" paint-order="stroke fill">Slice34 (Back)</text><text x="578.1425" y="1253.5055000000002" text-anchor="middle" dominant-baseline="middle" font-family="Arial, sans-serif" font-size="59.06313085050987" font-weight="bold" fill="black" stroke="none" stroke-width="7.087575702061184" paint-order="stroke fill">Slice34 (Back)</text><text x="1687.6895" y="1253.5055000000002" text-anchor="middle" dominant-baseline="middle" font-family="Arial, sans-serif" font-size="59.06313085050987" font-weight="bold" fill="black" stroke="none" stroke-width="7.087575702061184" paint-order="stroke fill">Slice34 (Back)</text><text x="2797.2365000000004" y="1253.5055000000002" text-anchor="middle" dominant-baseline="middle" font-family="Arial, sans-serif" font-size="59.06313085050987" font-weight="bold" fill="black" stroke="none" stroke-width="7.087575702061184" paint-order="stroke fill">Slice34 (Back)</text><text x="3906.7835000000005" y="1253.5055000000002" text-anchor="middle" dominant-baseline="middle" font-family="Arial, sans-serif" font-size="59.06313085050987" font-weight="bold" fill="black" stroke="none" stroke-width="7.087575702061184" paint-order="stroke fill">Slice34 (Back)</text><text x="5016.3305" y="1253.5055000000002" text-anchor="middle" dominant-baseline="middle" font-family="Arial, sans-serif" font-size="59.06313085050987" font-weight="bold" fill="black" stroke="none" stroke-width="7.087575702061184" paint-order="stroke fill">Slice34 (Back)</text><text x="6125.8775" y="1253.5055000000002" text-anchor="middle" dominant-baseline="middle" font-family="Arial, sans-serif" font-size="59.06313085050987" font-weight="bold" fill="black" stroke="none" stroke-width="7.087575702061184" paint-order="stroke fill">Slice34 (Back)</text><text x="578.1425" y="2073.4218333333333" text-anchor="middle" dominant-baseline="middle" font-family="Arial, sans-serif" font-size="59.06313085050987" font-weight="bold" fill="black" stroke="none" stroke-width="7.087575702061184" paint-order="stroke fill">Slice34 (Back)</text><text x="1687.6895" y="2073.4218333333333" text-anchor="middle" dominant-baseline="middle" font-family="Arial, sans-serif" font-size="59.06313085050987" font-weight="bold" fill="black" stroke="none" stroke-width="7.087575702061184" paint-order="stroke fill">Slice34 (Back)</text><text x="2797.2365000000004" y="2073.4218333333333" text-anchor="middle" dominant-baseline="middle" font-family="Arial, sans-serif" font-size="59.06313085050987" font-weight="bold" fill="black" stroke="none" stroke-width="7.087575702061184" paint-order="stroke fill">Slice34 (Back)</text><text x="3906.7835000000005" y="2073.4218333333333" text-anchor="middle" dominant-baseline="middle" font-family="Arial, sans-serif" font-size="59.06313085050987" font-weight="bold" fill="black" stroke="none" stroke-width="7.087575702061184" paint-order="stroke fill">Slice34 (Back)</text><text x="5016.3305" y="2073.4218333333333" text-anchor="middle" dominant-baseline="middle" font-family="Arial, sans-serif" font-size="59.06313085050987" font-weight="bold" fill="black" stroke="none" stroke-width="7.087575702061184" paint-order="stroke fill">Slice34 (Back)</text><text x="6125.8775" y="2073.4218333333333" text-anchor="middle" dominant-baseline="middle" font-family="Arial, sans-serif" font-size="59.06313085050987" font-weight="bold" fill="black" stroke="none" stroke-width="7.087575702061184" paint-order="stroke fill">Slice34 (Back)</text></g></svg>