<?xml version='1.0' encoding='utf-8'?>
<svg xmlns="http://www.w3.org/2000/svg" xmlns:inkscape="http://www.inkscape.org/namespaces/inkscape" version="1.1" width="770.3262784481049mm" height="253.33820962905884mm" viewBox="0.1084032528067631 0.005400458670766994 9097.783193494388 2992.0001990826586" preserveAspectRatio="none">
    <g id="ViewLayer_LineSet" inkscape:groupmode="lineset" inkscape:label="ViewLayer_LineSet">
        <g inkscape:groupmode="layer" id="strokes" inkscape:label="strokes">
            <path fill="none" stroke-width="3.0" stroke-linecap="butt" stroke-opacity="1.0" stroke="rgb(0, 0, 0)" stroke-linejoin="round" d=" M 2039.293, 1616.348 2036.775, 1613.766 2034.388, 1611.061 2032.140, 1608.241 2030.034, 1605.313 2028.077, 1602.283 2026.274, 1599.159 2024.628, 1595.949 2023.145, 1592.662 2021.827, 1589.305 2020.678, 1585.885 2019.701, 1582.414 2018.899, 1578.896 2018.272, 1575.345 2017.824, 1571.766 2017.554, 1568.169 2017.464, 1564.563 2017.554, 1560.958 2017.824, 1557.360 2018.272, 1553.781 2018.899, 1550.230 2019.701, 1546.714 2020.678, 1543.241 2021.827, 1539.823 2023.145, 1536.465 2024.628, 1533.177 2026.274, 1529.967 2028.077, 1526.844 2030.034, 1523.814 2032.140, 1520.885 2034.388, 1518.065 2036.775, 1515.361 2039.293, 1512.779 2041.937, 1510.325 2044.700, 1508.007 2047.576, 1505.830 2050.556, 1503.798 2053.634, 1501.917 2056.801, 1500.192 2060.051, 1498.627 2063.375, 1497.226 2066.764, 1495.992 2070.210, 1494.929 2073.706, 1494.039 2077.241, 1493.324 2080.808, 1492.786 2084.397, 1492.428 2087.999, 1492.248 2091.606, 1492.248 2095.208, 1492.428 2098.797, 1492.786 2102.364, 1493.324 2105.899, 1494.039 2109.395, 1494.929 2112.841, 1495.992 2116.230, 1497.226 2119.554, 1498.627 2122.804, 1500.192 2125.972, 1501.917 2129.049, 1503.798 2132.030, 1505.830 2134.905, 1508.007 2137.667, 1510.325 2140.312, 1512.779 2142.830, 1515.361 2145.217, 1518.065 2147.466, 1520.885 2149.571, 1523.814 2151.528, 1526.844 2153.331, 1529.967 2154.977, 1533.177 2156.460, 1536.465 2157.778, 1539.823 2158.927, 1543.241 2159.904, 1546.714 2160.706, 1550.230 2161.333, 1553.781 2161.781, 1557.360 2162.051, 1560.958 2162.141, 1564.563 2162.051, 1568.169 2161.781, 1571.766 2161.333, 1575.345 2160.706, 1578.896 2159.904, 1582.414 2158.927, 1585.885 2157.778, 1589.305 2156.460, 1592.662 2154.977, 1595.949 2153.331, 1599.159 2151.528, 1602.283 2149.571, 1605.313 2147.466, 1608.241 2145.217, 1611.061 2142.830, 1613.766 2140.312, 1616.348 2137.667, 1618.801 2134.905, 1621.119 2132.030, 1623.298 2129.049, 1625.329 2125.972, 1627.210 2122.804, 1628.935 2119.554, 1630.501 2116.230, 1631.901 2112.841, 1633.135 2109.395, 1634.198 2105.899, 1635.088 2102.364, 1635.803 2098.797, 1636.340 2095.208, 1636.700 2091.606, 1636.879 2087.999, 1636.879 2084.397, 1636.700 2080.808, 1636.340 2077.241, 1635.803 2073.706, 1635.088 2070.210, 1634.198 2066.764, 1633.135 2063.375, 1631.901 2060.051, 1630.501 2056.801, 1628.935 2053.634, 1627.210 2050.556, 1625.329 2047.576, 1623.298 2044.700, 1621.119 2041.937, 1618.801 2039.293, 1616.348 " />
            <path fill="none" stroke-width="3.0" stroke-linecap="butt" stroke-opacity="1.0" stroke="rgb(0, 0, 0)" stroke-linejoin="round" d=" M 2845.361, 27.291 2855.361, 27.285 2865.361, 27.279 2875.361, 27.273 2885.361, 27.266 2895.361, 27.260 2905.361, 27.254 2915.361, 27.248 2925.361, 27.241 2935.361, 27.235 2945.361, 27.229 2955.361, 27.223 2960.675, 27.219 " />
            <path fill="none" stroke-width="3.0" stroke-linecap="butt" stroke-opacity="1.0" stroke="rgb(0, 0, 0)" stroke-linejoin="round" d=" M 7742.822, 24.238 7732.822, 24.245 7722.822, 24.251 7712.822, 24.257 7702.822, 24.263 7692.822, 24.270 7682.822, 24.276 7672.822, 24.282 7662.822, 24.288 7652.822, 24.294 7642.822, 24.301 7632.822, 24.307 7622.822, 24.313 7612.822, 24.320 7602.822, 24.326 7592.822, 24.332 7582.822, 24.338 7572.822, 24.344 7562.822, 24.351 7552.822, 24.357 7542.822, 24.363 7532.822, 24.369 7522.822, 24.376 7512.822, 24.382 7502.822, 24.388 7492.822, 24.394 7482.822, 24.401 7470.125, 24.408 " />
            <path fill="none" stroke-width="3.0" stroke-linecap="butt" stroke-opacity="1.0" stroke="rgb(0, 0, 0)" stroke-linejoin="round" d=" M 529.473, 1595.565 525.292, 1604.649 521.111, 1613.733 516.930, 1622.817 515.570, 1625.774 512.729, 1635.362 509.888, 1644.950 507.047, 1654.537 504.206, 1664.125 501.365, 1673.714 498.524, 1683.301 495.683, 1692.889 492.842, 1702.477 490.001, 1712.065 487.731, 1719.726 484.506, 1729.192 481.281, 1738.657 478.055, 1748.123 474.830, 1757.588 471.605, 1767.054 468.379, 1776.520 465.154, 1785.985 461.928, 1795.451 458.703, 1804.916 455.478, 1814.382 452.252, 1823.847 449.027, 1833.313 445.802, 1842.779 442.576, 1852.244 439.351, 1861.710 436.126, 1871.175 432.900, 1880.641 429.675, 1890.106 426.450, 1899.572 423.224, 1909.038 419.999, 1918.503 416.773, 1927.969 413.548, 1937.434 410.323, 1946.900 407.097, 1956.365 403.872, 1965.831 400.647, 1975.297 397.421, 1984.762 394.196, 1994.228 390.971, 2003.693 387.745, 2013.159 384.520, 2022.624 381.295, 2032.090 378.069, 2041.556 374.844, 2051.021 371.618, 2060.487 368.393, 2069.952 365.168, 2079.418 361.942, 2088.883 358.717, 2098.349 355.492, 2107.815 352.266, 2117.280 349.041, 2126.746 345.816, 2136.211 342.590, 2145.677 339.365, 2155.143 336.140, 2164.608 332.914, 2174.074 329.689, 2183.539 326.463, 2193.005 323.238, 2202.470 320.013, 2211.936 316.787, 2221.401 313.562, 2230.867 310.337, 2240.333 307.111, 2249.798 303.886, 2259.264 300.661, 2268.729 297.669, 2277.508 295.351, 2287.235 294.439, 2291.061 291.246, 2300.537 288.053, 2310.014 284.861, 2319.491 281.668, 2328.967 278.475, 2338.444 275.282, 2347.920 272.089, 2357.397 268.896, 2366.874 265.704, 2376.350 262.511, 2385.827 259.318, 2395.303 256.125, 2404.780 252.932, 2414.257 249.740, 2423.733 246.547, 2433.210 243.354, 2442.686 240.161, 2452.163 236.968, 2461.640 233.776, 2471.116 230.583, 2480.593 227.390, 2490.069 224.197, 2499.546 221.004, 2509.023 217.811, 2518.499 214.619, 2527.976 211.426, 2537.452 208.233, 2546.929 205.040, 2556.406 201.847, 2565.882 198.655, 2575.359 195.462, 2584.835 192.269, 2594.312 189.076, 2603.789 185.883, 2613.265 182.691, 2622.742 179.498, 2632.218 176.305, 2641.695 173.112, 2651.171 169.919, 2660.648 166.726, 2670.125 163.534, 2679.601 161.030, 2687.032 155.776, 2695.540 150.521, 2704.048 145.266, 2712.556 140.012, 2721.064 134.757, 2729.573 129.502, 2738.081 124.248, 2746.589 118.993, 2755.097 113.738, 2763.605 108.484, 2772.113 103.229, 2780.621 97.974, 2789.130 92.720, 2797.638 87.465, 2806.146 82.210, 2814.654 76.956, 2823.162 71.701, 2831.670 66.446, 2840.179 61.192, 2848.687 58.851, 2852.477 55.951, 2862.048 53.051, 2871.618 50.151, 2881.188 47.251, 2890.758 44.351, 2900.329 41.451, 2909.899 38.551, 2919.469 35.651, 2929.040 32.751, 2938.610 29.851, 2948.180 26.951, 2957.750 23.729, 2968.385 " />
            <path fill="none" stroke-width="3.0" stroke-linecap="butt" stroke-opacity="1.0" stroke="rgb(0, 0, 0)" stroke-linejoin="round" d=" M 938.365, 28.480 937.138, 38.405 935.911, 48.329 934.684, 58.254 933.457, 68.178 932.230, 78.103 931.334, 85.349 929.749, 95.222 928.165, 105.096 926.581, 114.970 924.996, 124.844 923.412, 134.717 921.827, 144.591 920.243, 154.465 918.659, 164.338 917.074, 174.212 915.490, 184.086 913.905, 193.959 912.321, 203.833 910.737, 213.707 909.152, 223.581 907.568, 233.454 905.983, 243.328 904.399, 253.201 902.815, 263.075 901.230, 272.949 899.646, 282.823 898.061, 292.696 896.477, 302.570 894.893, 312.444 893.308, 322.317 891.724, 332.191 890.139, 342.065 888.555, 351.938 886.971, 361.812 885.386, 371.686 883.802, 381.559 882.217, 391.433 880.633, 401.307 879.049, 411.180 877.464, 421.054 875.880, 430.928 874.295, 440.802 872.711, 450.675 871.127, 460.549 869.542, 470.423 867.958, 480.296 866.373, 490.170 864.789, 500.044 863.205, 509.917 861.620, 519.791 860.036, 529.665 858.385, 539.952 852.942, 548.341 849.488, 553.663 846.552, 563.223 843.616, 572.782 840.680, 582.341 837.744, 591.900 834.808, 601.460 831.872, 611.019 828.936, 620.578 826.000, 630.137 823.064, 639.697 820.128, 649.256 817.192, 658.815 814.255, 668.375 811.319, 677.934 808.383, 687.493 805.447, 697.052 802.511, 706.612 799.575, 716.171 796.639, 725.730 793.703, 735.289 790.767, 744.849 787.831, 754.408 784.895, 763.967 781.959, 773.526 779.023, 783.085 776.086, 792.645 773.150, 802.204 770.214, 811.763 767.278, 821.323 764.342, 830.882 761.406, 840.441 758.470, 850.000 755.534, 859.560 752.598, 869.119 749.662, 878.678 746.726, 888.238 743.790, 897.797 740.854, 907.356 737.917, 916.915 734.981, 926.474 732.045, 936.034 729.109, 945.593 726.173, 955.152 723.237, 964.712 720.301, 974.271 717.365, 983.830 714.429, 993.389 711.493, 1002.949 708.557, 1012.508 705.621, 1022.067 702.684, 1031.626 699.748, 1041.186 696.812, 1050.745 693.876, 1060.304 690.940, 1069.863 688.004, 1079.423 685.068, 1088.982 682.132, 1098.541 679.196, 1108.100 676.260, 1117.660 673.324, 1127.219 670.388, 1136.778 667.451, 1146.337 664.515, 1155.897 661.579, 1165.456 658.643, 1175.015 655.707, 1184.574 652.771, 1194.134 649.835, 1203.693 646.899, 1213.252 643.963, 1222.812 641.027, 1232.371 638.091, 1241.930 635.155, 1251.489 632.219, 1261.048 629.282, 1270.608 626.346, 1280.167 623.410, 1289.726 620.474, 1299.286 617.538, 1308.845 614.602, 1318.404 611.666, 1327.963 608.730, 1337.523 605.794, 1347.082 602.858, 1356.641 599.922, 1366.200 596.986, 1375.760 594.049, 1385.319 591.113, 1394.878 588.177, 1404.437 585.241, 1413.997 582.305, 1423.556 579.369, 1433.115 576.433, 1442.674 573.497, 1452.234 570.561, 1461.793 567.625, 1471.352 564.689, 1480.911 561.753, 1490.471 558.817, 1500.030 555.880, 1509.589 552.944, 1519.149 550.008, 1528.708 547.072, 1538.267 544.136, 1547.826 541.200, 1557.386 538.264, 1566.945 535.328, 1576.504 529.473, 1595.565 " />
            <path fill="none" stroke-width="3.0" stroke-linecap="butt" stroke-opacity="1.0" stroke="rgb(0, 0, 0)" stroke-linejoin="round" d=" M 8910.333, 1574.466 8907.811, 1564.790 8905.289, 1555.113 8902.767, 1545.436 8900.244, 1535.760 8897.723, 1526.083 8895.200, 1516.406 8892.678, 1506.729 8890.155, 1497.053 8887.634, 1487.376 8885.111, 1477.699 8882.589, 1468.023 8880.067, 1458.346 8877.545, 1448.669 8875.022, 1438.992 8872.501, 1429.316 8869.979, 1419.639 8867.456, 1409.962 8864.934, 1400.286 8862.412, 1390.609 8859.890, 1380.932 8857.367, 1371.255 8854.846, 1361.579 8852.323, 1351.902 8849.801, 1342.225 8847.279, 1332.549 8844.757, 1322.872 8842.234, 1313.195 8839.712, 1303.519 8837.190, 1293.842 8834.668, 1284.165 8832.146, 1274.488 8829.624, 1264.812 8827.102, 1255.135 8824.579, 1245.458 8822.058, 1235.782 8819.535, 1226.105 8817.013, 1216.428 8814.490, 1206.751 8811.969, 1197.075 8809.446, 1187.398 8806.924, 1177.721 8804.402, 1168.045 8801.880, 1158.368 8799.357, 1148.691 8796.836, 1139.015 8794.313, 1129.338 8791.791, 1119.661 8789.269, 1109.984 8786.747, 1100.308 8784.225, 1090.631 8781.702, 1080.954 8779.181, 1071.278 8776.658, 1061.601 8774.136, 1051.924 8771.614, 1042.247 8769.092, 1032.571 8766.569, 1022.894 8764.047, 1013.217 8760.929, 1001.251 8759.896, 991.305 8758.862, 981.359 8757.830, 971.412 8756.797, 961.465 8756.527, 958.872 8757.618, 948.932 8758.709, 938.992 8759.799, 929.051 8760.890, 919.111 8761.980, 909.171 8763.070, 899.230 8764.161, 889.290 8764.437, 886.784 8764.215, 876.787 8763.993, 866.790 8763.771, 856.792 8763.551, 846.794 8763.329, 836.797 8763.107, 826.799 8762.886, 816.802 8762.664, 806.804 8762.443, 796.807 8762.222, 786.809 8762.000, 776.812 8761.778, 766.814 8761.557, 756.816 8761.336, 746.819 8761.114, 736.821 8760.893, 726.824 8760.671, 716.826 8760.449, 706.829 8760.229, 696.831 8760.007, 686.833 8759.785, 676.836 8759.563, 666.838 8759.342, 656.841 8759.121, 646.844 8758.899, 636.846 8758.678, 626.848 8758.456, 616.851 8758.234, 606.853 8758.014, 596.856 8757.792, 586.858 8757.570, 576.861 8757.349, 566.863 8757.127, 556.865 8756.906, 546.868 8756.685, 536.870 8756.463, 526.873 8756.241, 516.875 8756.020, 506.878 8755.799, 496.880 8755.577, 486.883 8755.355, 476.885 8755.134, 466.887 8754.912, 456.890 8754.731, 448.721 8754.909, 438.722 8755.087, 428.724 8755.265, 418.726 8755.443, 408.727 8755.621, 398.729 8755.799, 388.730 8755.977, 378.732 8756.154, 368.733 8756.332, 358.735 8756.510, 348.737 8756.688, 338.738 8756.865, 328.740 8757.060, 317.832 8756.381, 307.855 8755.702, 297.878 8755.023, 287.901 8754.345, 277.924 8753.666, 267.948 8752.987, 257.970 8752.309, 247.994 8751.808, 240.642 8750.583, 230.717 8749.357, 220.793 8748.132, 210.868 8746.907, 200.943 8745.682, 191.019 8744.456, 181.094 8743.231, 171.169 8742.006, 161.245 8740.780, 151.320 8739.556, 141.396 8738.330, 131.471 8737.104, 121.546 8735.880, 111.622 8734.654, 101.697 8733.429, 91.772 8732.204, 81.848 8730.979, 71.923 8729.753, 61.998 8728.528, 52.074 8727.303, 42.149 8726.077, 32.224 8725.016, 23.626 8715.016, 23.632 8705.016, 23.638 8695.016, 23.645 8685.016, 23.651 8675.016, 23.657 8665.016, 23.663 8655.016, 23.669 8645.016, 23.676 8635.016, 23.682 8625.016, 23.688 8615.016, 23.695 8605.016, 23.701 8595.016, 23.707 8585.016, 23.713 8575.016, 23.719 8565.016, 23.726 8555.016, 23.732 8545.016, 23.738 8535.016, 23.744 8525.016, 23.750 8515.016, 23.757 8505.016, 23.763 8495.016, 23.769 8485.016, 23.775 8475.016, 23.782 8465.016, 23.788 8455.016, 23.794 8445.016, 23.801 8435.016, 23.807 8425.016, 23.813 8415.016, 23.819 8405.016, 23.825 8395.016, 23.832 8385.016, 23.838 8375.016, 23.844 8365.016, 23.850 8355.016, 23.856 8345.016, 23.863 8335.016, 23.869 8325.016, 23.875 8315.016, 23.881 8305.016, 23.888 8295.016, 23.894 8285.016, 23.900 8275.016, 23.906 8265.016, 23.913 8255.016, 23.919 8245.016, 23.925 8235.016, 23.931 8225.016, 23.938 8215.016, 23.944 8205.016, 23.950 8195.016, 23.956 8185.016, 23.962 8175.016, 23.969 8165.016, 23.975 8155.016, 23.981 8145.016, 23.987 8135.016, 23.994 8125.016, 24.000 8115.016, 24.006 8105.016, 24.012 8095.016, 24.019 8085.016, 24.025 8075.016, 24.031 8065.016, 24.037 8055.016, 24.043 8045.016, 24.050 8035.016, 24.056 8025.016, 24.062 8015.016, 24.068 8005.016, 24.075 7990.875, 24.083 7980.875, 24.090 7970.875, 24.096 7960.875, 24.102 7950.875, 24.108 7940.875, 24.115 7930.875, 24.121 7920.875, 24.127 7910.875, 24.134 7900.875, 24.140 7890.875, 24.146 7880.875, 24.152 7870.875, 24.158 7860.875, 24.165 7850.875, 24.171 7840.875, 24.177 7830.875, 24.183 7820.875, 24.190 7810.875, 24.196 7800.875, 24.202 7790.875, 24.208 7780.875, 24.215 7770.875, 24.221 7760.875, 24.227 7750.875, 24.233 7742.822, 24.238 7732.822, 24.245 7722.822, 24.251 7712.822, 24.257 7702.822, 24.263 7692.822, 24.270 7682.822, 24.276 7672.822, 24.282 7662.822, 24.288 7652.822, 24.294 7642.822, 24.301 7632.822, 24.307 7622.822, 24.313 7612.822, 24.320 7602.822, 24.326 7592.822, 24.332 7582.822, 24.338 7572.822, 24.344 7562.822, 24.351 7552.822, 24.357 7542.822, 24.363 7532.822, 24.369 7522.822, 24.376 7512.822, 24.382 7502.822, 24.388 7492.822, 24.394 7482.822, 24.401 7470.125, 24.408 7460.125, 24.415 7450.125, 24.421 7440.125, 24.427 7430.125, 24.433 7424.640, 24.437 7414.640, 24.443 7404.640, 24.449 7394.640, 24.456 7384.640, 24.462 7374.640, 24.468 7364.640, 24.474 7354.640, 24.480 7344.640, 24.487 7334.640, 24.493 7324.640, 24.499 7314.640, 24.505 7304.640, 24.512 7294.640, 24.518 7284.640, 24.524 7274.640, 24.531 7264.640, 24.537 7254.640, 24.543 7244.640, 24.549 7234.640, 24.555 7224.640, 24.562 7214.640, 24.568 7204.640, 24.574 7194.640, 24.580 7184.640, 24.586 7174.640, 24.593 7164.640, 24.599 7154.640, 24.605 7144.640, 24.612 7134.640, 24.618 7124.640, 24.624 7114.640, 24.630 7104.640, 24.636 7094.640, 24.643 7084.640, 24.649 7074.640, 24.655 7064.640, 24.661 7054.640, 24.667 7044.640, 24.674 7034.640, 24.680 7024.640, 24.686 7014.640, 24.693 7004.640, 24.699 6994.640, 24.705 6984.640, 24.711 6974.640, 24.718 6964.640, 24.724 6954.640, 24.730 6944.640, 24.736 6934.640, 24.742 6924.640, 24.749 6914.640, 24.755 6900.849, 24.763 6902.549, 34.618 6904.250, 44.472 6905.951, 54.326 6907.651, 64.181 6909.352, 74.035 6911.053, 83.889 6912.753, 93.744 6914.454, 103.598 6916.155, 113.452 6917.856, 123.307 6919.557, 133.161 6921.257, 143.015 6921.671, 145.415 6925.384, 154.700 6929.097, 163.985 6932.810, 173.270 6936.522, 182.555 6940.235, 191.841 6943.948, 201.126 6947.661, 210.411 6951.374, 219.696 6955.087, 228.981 6958.800, 238.267 6962.513, 247.552 6966.226, 256.837 6969.938, 266.122 6972.458, 272.423 " />
            <path fill="none" stroke-width="3.0" stroke-linecap="butt" stroke-opacity="1.0" stroke="rgb(0, 0, 0)" stroke-linejoin="round" d=" M 7322.235, 2843.474 7322.159, 2853.474 7322.083, 2863.473 7322.006, 2873.473 7321.930, 2883.473 7321.854, 2893.472 7321.778, 2903.472 7321.702, 2913.472 7321.625, 2923.472 7321.549, 2933.471 7321.473, 2943.471 7321.397, 2953.471 7321.321, 2963.470 7321.283, 2968.385 7331.283, 2968.385 7341.283, 2968.385 7351.283, 2968.385 7361.283, 2968.385 7371.283, 2968.385 7381.283, 2968.385 7391.283, 2968.385 7401.283, 2968.385 7411.283, 2968.385 7421.283, 2968.385 7431.283, 2968.385 7441.283, 2968.385 7451.283, 2968.385 7461.283, 2968.385 7471.283, 2968.385 7481.283, 2968.385 7491.283, 2968.385 7501.283, 2968.385 7511.283, 2968.385 7521.283, 2968.385 7531.283, 2968.385 7541.283, 2968.385 7551.283, 2968.385 7561.283, 2968.385 7571.283, 2968.385 7581.283, 2968.385 7591.283, 2968.385 7601.283, 2968.385 7611.283, 2968.385 7621.283, 2968.385 7631.283, 2968.385 7641.283, 2968.385 7651.283, 2968.385 7661.283, 2968.385 7671.283, 2968.385 7675.338, 2968.385 7685.338, 2968.385 7695.338, 2968.385 7705.338, 2968.385 7715.338, 2968.385 7725.338, 2968.385 7735.338, 2968.385 7745.338, 2968.385 7755.338, 2968.385 7765.338, 2968.385 7775.338, 2968.385 7785.338, 2968.385 7795.338, 2968.385 7805.338, 2968.385 7815.338, 2968.385 7825.338, 2968.385 7835.338, 2968.385 7845.338, 2968.385 7855.338, 2968.385 7865.338, 2968.385 7875.338, 2968.385 7885.338, 2968.385 7895.338, 2968.385 7905.338, 2968.385 7915.338, 2968.385 7925.338, 2968.385 7935.338, 2968.385 7945.338, 2968.385 7955.338, 2968.385 7965.338, 2968.385 7975.338, 2968.385 7985.338, 2968.385 7995.338, 2968.385 8005.338, 2968.385 8015.338, 2968.385 8025.338, 2968.385 8035.338, 2968.385 8045.338, 2968.385 8055.338, 2968.385 8065.338, 2968.385 8075.338, 2968.385 8085.338, 2968.385 8095.338, 2968.385 8105.338, 2968.385 8115.338, 2968.385 8125.338, 2968.385 8135.338, 2968.385 8145.338, 2968.385 8155.338, 2968.385 8165.338, 2968.385 8175.338, 2968.385 8185.338, 2968.385 8195.338, 2968.385 8205.338, 2968.385 8215.338, 2968.385 8225.338, 2968.385 8235.338, 2968.385 8245.338, 2968.385 8255.338, 2968.385 8265.338, 2968.385 8275.338, 2968.385 8285.338, 2968.385 8295.338, 2968.385 8305.338, 2968.385 8315.338, 2968.385 8325.338, 2968.385 8335.338, 2968.385 8345.338, 2968.385 8355.338, 2968.385 8365.338, 2968.385 8375.338, 2968.385 8385.338, 2968.385 8395.338, 2968.385 8406.196, 2968.385 8416.196, 2968.385 8426.196, 2968.385 8436.196, 2968.385 8446.196, 2968.385 8456.196, 2968.385 8466.196, 2968.385 8476.196, 2968.385 8486.196, 2968.385 8496.196, 2968.385 8506.196, 2968.385 8516.196, 2968.385 8526.196, 2968.385 8536.196, 2968.385 8546.196, 2968.385 8556.196, 2968.385 8566.196, 2968.385 8576.196, 2968.385 8586.196, 2968.385 8596.196, 2968.385 8606.196, 2968.385 8616.196, 2968.385 8626.196, 2968.385 8636.196, 2968.385 8646.196, 2968.385 8656.196, 2968.385 8666.196, 2968.385 8676.196, 2968.385 8686.196, 2968.385 8696.196, 2968.385 8706.196, 2968.385 8716.196, 2968.385 8726.196, 2968.385 8736.196, 2968.385 8746.196, 2968.385 8756.196, 2968.385 8766.196, 2968.385 8776.196, 2968.385 8786.196, 2968.385 8796.196, 2968.385 8806.196, 2968.385 8816.196, 2968.385 8826.196, 2968.385 8836.196, 2968.385 8846.196, 2968.385 8856.196, 2968.385 8866.196, 2968.385 8876.196, 2968.385 8886.196, 2968.385 8896.196, 2968.385 8906.196, 2968.385 8916.196, 2968.385 8926.196, 2968.385 8936.196, 2968.385 8946.196, 2968.385 8956.196, 2968.385 8966.196, 2968.385 8976.196, 2968.385 8986.196, 2968.385 8998.975, 2968.385 9008.975, 2968.385 9018.975, 2968.385 9028.975, 2968.385 9038.975, 2968.385 9039.432, 2968.385 9049.432, 2968.385 9059.432, 2968.385 9069.432, 2968.385 9074.271, 2968.385 9071.594, 2958.750 9070.240, 2953.880 9068.196, 2944.091 9066.153, 2934.302 9064.109, 2924.513 9062.066, 2914.724 9060.023, 2904.935 9057.979, 2895.146 9055.937, 2885.357 9053.893, 2875.568 9051.850, 2865.779 9049.806, 2855.990 9047.763, 2846.201 9045.720, 2836.412 9043.676, 2826.623 9041.633, 2816.834 9039.589, 2807.045 9037.546, 2797.256 9035.502, 2787.467 9033.459, 2777.678 9031.570, 2768.633 9031.340, 2758.636 9031.108, 2748.638 9030.878, 2738.641 9030.646, 2728.644 9030.415, 2718.646 9030.185, 2708.649 9029.953, 2698.652 9029.723, 2688.654 9029.491, 2678.657 9029.260, 2668.660 9029.029, 2658.662 9028.798, 2648.665 9028.566, 2638.668 9028.336, 2628.670 9028.104, 2618.673 9027.874, 2608.676 9027.643, 2598.678 9027.411, 2588.681 9027.181, 2578.684 9026.949, 2568.686 9026.719, 2558.689 9026.487, 2548.692 9026.256, 2538.694 9026.025, 2528.697 9025.794, 2518.700 9025.563, 2508.702 9025.332, 2498.705 9025.101, 2488.708 9024.870, 2478.710 9024.639, 2468.713 9024.408, 2458.716 9024.177, 2448.718 9023.945, 2438.721 9023.715, 2428.724 9023.483, 2418.726 9023.253, 2408.729 9023.021, 2398.732 9022.790, 2388.734 9022.560, 2378.737 9022.328, 2368.740 9022.098, 2358.742 9021.866, 2348.745 9021.635, 2338.748 9021.404, 2328.750 9021.173, 2318.753 9020.942, 2308.756 9020.711, 2298.758 9020.479, 2288.761 9020.336, 2282.525 9018.801, 2272.643 9017.266, 2262.762 9015.731, 2252.880 9014.196, 2242.999 9012.662, 2233.117 9011.127, 2223.236 9009.592, 2213.354 9008.058, 2203.472 9006.522, 2193.591 9004.987, 2183.709 9003.453, 2173.828 9001.918, 2163.946 9000.384, 2154.065 8998.849, 2144.183 8997.313, 2134.302 8995.779, 2124.420 8994.244, 2114.539 8992.709, 2104.657 8991.175, 2094.776 8989.640, 2084.894 8988.033, 2074.552 8986.896, 2064.617 8985.759, 2054.682 8984.622, 2044.747 8983.484, 2034.812 8982.348, 2024.877 8981.210, 2014.941 8980.072, 2005.006 8978.936, 1995.071 8977.798, 1985.136 8976.661, 1975.201 8975.523, 1965.266 8974.387, 1955.331 8973.249, 1945.396 8972.112, 1935.460 8970.975, 1925.525 8969.837, 1915.590 8968.700, 1905.655 8967.562, 1895.720 8966.426, 1885.785 8965.288, 1875.850 8964.151, 1865.915 8963.014, 1855.979 8961.876, 1846.044 8960.739, 1836.109 8959.602, 1826.174 8958.218, 1814.083 8955.759, 1804.390 8953.299, 1794.697 8950.840, 1785.004 8948.380, 1775.311 8945.921, 1765.619 8943.461, 1755.926 8941.002, 1746.233 8938.542, 1736.540 8936.083, 1726.847 8933.623, 1717.154 8931.164, 1707.462 8928.704, 1697.769 8926.245, 1688.076 8923.785, 1678.383 8921.326, 1668.690 8918.805, 1658.756 8917.805, 1648.807 8916.805, 1638.857 8915.805, 1628.907 8914.805, 1618.957 8913.805, 1609.007 8912.805, 1599.057 8911.805, 1589.107 8910.805, 1579.157 8910.333, 1574.466 " />
            <path fill="none" stroke-width="3.0" stroke-linecap="butt" stroke-opacity="1.0" stroke="rgb(0, 0, 0)" stroke-linejoin="round" d=" M 23.729, 2968.385 33.729, 2968.385 43.729, 2968.385 45.460, 2968.385 55.460, 2968.385 65.460, 2968.385 75.460, 2968.385 85.460, 2968.385 95.460, 2968.385 105.460, 2968.385 115.460, 2968.385 125.460, 2968.385 135.460, 2968.385 145.460, 2968.385 155.460, 2968.385 165.460, 2968.385 175.460, 2968.385 185.460, 2968.385 195.460, 2968.385 205.460, 2968.385 215.460, 2968.385 225.460, 2968.385 235.460, 2968.385 245.460, 2968.385 255.460, 2968.385 265.460, 2968.385 275.460, 2968.385 285.460, 2968.385 295.460, 2968.385 305.460, 2968.385 315.460, 2968.385 325.460, 2968.385 335.460, 2968.385 345.460, 2968.385 355.460, 2968.385 365.460, 2968.385 375.460, 2968.385 385.460, 2968.385 395.460, 2968.385 405.460, 2968.385 415.460, 2968.385 425.460, 2968.385 435.460, 2968.385 445.460, 2968.385 455.460, 2968.385 465.460, 2968.385 475.460, 2968.385 485.460, 2968.385 495.460, 2968.385 505.460, 2968.385 515.460, 2968.385 525.460, 2968.385 535.460, 2968.385 545.460, 2968.385 555.460, 2968.385 565.460, 2968.385 575.460, 2968.385 585.460, 2968.385 595.460, 2968.385 605.460, 2968.385 615.460, 2968.385 625.460, 2968.385 635.460, 2968.385 645.460, 2968.385 655.460, 2968.385 665.460, 2968.385 675.460, 2968.385 685.460, 2968.385 695.460, 2968.385 705.460, 2968.385 715.460, 2968.385 725.460, 2968.385 735.460, 2968.385 745.460, 2968.385 755.460, 2968.385 765.460, 2968.385 775.460, 2968.385 785.460, 2968.385 795.460, 2968.385 805.460, 2968.385 815.460, 2968.385 825.460, 2968.385 835.460, 2968.385 845.460, 2968.385 855.460, 2968.385 865.460, 2968.385 875.460, 2968.385 885.460, 2968.385 895.460, 2968.385 905.460, 2968.385 915.460, 2968.385 925.460, 2968.385 935.460, 2968.385 945.460, 2968.385 955.460, 2968.385 965.460, 2968.385 975.460, 2968.385 985.460, 2968.385 995.460, 2968.385 1005.460, 2968.385 1015.460, 2968.385 1025.460, 2968.385 1035.460, 2968.385 1045.460, 2968.385 1055.460, 2968.385 1065.460, 2968.385 1075.460, 2968.385 1085.460, 2968.385 1095.460, 2968.385 1105.460, 2968.385 1118.534, 2968.385 1128.534, 2968.385 1138.534, 2968.385 1148.534, 2968.385 1158.534, 2968.385 1168.534, 2968.385 1178.534, 2968.385 1188.534, 2968.385 1198.534, 2968.385 1208.534, 2968.385 1218.534, 2968.385 1228.534, 2968.385 1238.534, 2968.385 1248.534, 2968.385 1258.534, 2968.385 1268.534, 2968.385 1278.534, 2968.385 1288.534, 2968.385 1298.534, 2968.385 1308.534, 2968.385 1318.534, 2968.385 1328.534, 2968.385 1338.534, 2968.385 1348.534, 2968.385 1358.534, 2968.385 1368.534, 2968.385 1378.534, 2968.385 1388.534, 2968.385 1398.534, 2968.385 1408.534, 2968.385 1418.534, 2968.385 1428.534, 2968.385 1438.534, 2968.385 1448.534, 2968.385 1458.534, 2968.385 1468.534, 2968.385 1478.534, 2968.385 1488.534, 2968.385 1498.534, 2968.385 1508.534, 2968.385 1518.534, 2968.385 1528.534, 2968.385 1538.534, 2968.385 1548.534, 2968.385 1558.534, 2968.385 1568.534, 2968.385 1578.534, 2968.385 1588.534, 2968.385 1598.534, 2968.385 1608.534, 2968.385 1618.534, 2968.385 1628.534, 2968.385 1638.534, 2968.385 1648.534, 2968.385 1658.534, 2968.385 1668.534, 2968.385 1678.534, 2968.385 1688.534, 2968.385 1698.534, 2968.385 1708.534, 2968.385 1718.534, 2968.385 1728.534, 2968.385 1738.534, 2968.385 1748.534, 2968.385 1758.534, 2968.385 1768.534, 2968.385 1778.534, 2968.385 1788.534, 2968.385 1798.534, 2968.385 1808.534, 2968.385 1818.534, 2968.385 1828.534, 2968.385 1838.534, 2968.385 1852.695, 2968.385 1853.455, 2968.385 1854.271, 2968.385 1855.140, 2968.385 1856.059, 2968.385 1857.026, 2968.385 1858.038, 2968.385 1859.093, 2968.385 1860.185, 2968.385 1861.314, 2968.385 1871.314, 2968.385 1881.314, 2968.385 1891.314, 2968.385 1901.314, 2968.385 1911.314, 2968.385 1921.314, 2968.385 1931.314, 2968.385 1941.314, 2968.385 1951.314, 2968.385 1961.314, 2968.385 1971.314, 2968.385 1981.314, 2968.385 1991.314, 2968.385 2001.314, 2968.385 2011.314, 2968.385 2021.314, 2968.385 2031.314, 2968.385 2041.314, 2968.385 2051.314, 2968.385 2061.314, 2968.385 2071.314, 2968.385 2081.314, 2968.385 2093.094, 2968.385 2094.843, 2958.539 2096.593, 2948.693 2098.342, 2938.847 2100.092, 2929.002 2101.841, 2919.156 2103.591, 2909.310 2105.340, 2899.464 2107.090, 2889.618 2108.839, 2879.773 2109.291, 2877.232 2111.355, 2867.448 2113.419, 2857.663 2115.483, 2847.879 2117.548, 2838.094 2119.612, 2828.309 2121.676, 2818.525 2123.740, 2808.740 2125.805, 2798.956 2127.869, 2789.171 2129.933, 2779.386 2131.998, 2769.602 2134.062, 2759.817 2136.126, 2750.032 2138.190, 2740.248 2140.255, 2730.463 2142.319, 2720.679 2144.383, 2710.894 2146.448, 2701.109 2148.512, 2691.325 2150.576, 2681.540 2152.640, 2671.755 2154.705, 2661.971 2156.769, 2652.186 2158.833, 2642.402 2160.343, 2635.247 2163.424, 2625.733 2166.506, 2616.220 2169.587, 2606.706 2172.668, 2597.193 2175.750, 2587.680 2178.831, 2578.166 2181.913, 2568.653 2184.994, 2559.139 2188.075, 2549.626 2190.402, 2542.442 " />
            <path fill="none" stroke-width="3.0" stroke-linecap="butt" stroke-opacity="1.0" stroke="rgb(0, 0, 0)" stroke-linejoin="round" d=" M 1383.378, 2321.854 1380.860, 2319.271 1378.473, 2316.568 1376.224, 2313.747 1374.119, 2310.818 1372.162, 2307.789 1370.358, 2304.665 1368.713, 2301.456 1367.229, 2298.168 1365.912, 2294.810 1364.763, 2291.392 1363.786, 2287.919 1362.984, 2284.403 1362.357, 2280.851 1361.909, 2277.271 1361.639, 2273.675 1361.549, 2270.070 1361.639, 2266.463 1361.909, 2262.867 1362.357, 2259.288 1362.984, 2255.735 1363.786, 2252.219 1364.763, 2248.747 1365.912, 2245.328 1367.229, 2241.970 1368.713, 2238.683 1370.358, 2235.473 1372.162, 2232.349 1374.119, 2229.320 1376.224, 2226.391 1378.473, 2223.570 1380.860, 2220.867 1383.378, 2218.284 1386.022, 2215.831 1388.785, 2213.513 1391.661, 2211.335 1394.640, 2209.303 1397.718, 2207.422 1400.886, 2205.697 1404.136, 2204.132 1407.459, 2202.731 1410.849, 2201.498 1414.295, 2200.434 1417.791, 2199.545 1421.326, 2198.830 1424.893, 2198.292 1428.482, 2197.933 1432.084, 2197.754 1435.691, 2197.754 1439.293, 2197.933 1442.882, 2198.292 1446.449, 2198.830 1449.984, 2199.545 1453.479, 2200.434 1456.926, 2201.498 1460.315, 2202.731 1463.639, 2204.132 1466.889, 2205.697 1470.057, 2207.422 1473.134, 2209.303 1476.114, 2211.335 1478.990, 2213.513 1481.753, 2215.831 1484.397, 2218.284 1486.915, 2220.867 1489.302, 2223.570 1491.550, 2226.391 1493.656, 2229.320 1495.613, 2232.349 1497.416, 2235.473 1499.062, 2238.683 1500.545, 2241.970 1501.863, 2245.328 1503.012, 2248.747 1503.989, 2252.219 1504.792, 2255.735 1505.417, 2259.288 1505.866, 2262.867 1506.136, 2266.463 1506.225, 2270.070 1506.136, 2273.675 1505.866, 2277.271 1505.417, 2280.851 1504.792, 2284.403 1503.989, 2287.919 1503.012, 2291.392 1501.863, 2294.810 1500.545, 2298.168 1499.062, 2301.456 1497.416, 2304.665 1495.613, 2307.789 1493.656, 2310.818 1491.550, 2313.747 1489.302, 2316.568 1486.915, 2319.271 1484.397, 2321.854 1481.753, 2324.307 1478.990, 2326.626 1476.114, 2328.803 1473.134, 2330.835 1470.057, 2332.715 1466.889, 2334.441 1463.639, 2336.006 1460.315, 2337.407 1456.926, 2338.641 1453.479, 2339.704 1449.984, 2340.593 1446.449, 2341.308 1442.882, 2341.846 1439.293, 2342.205 1435.691, 2342.384 1432.084, 2342.384 1428.482, 2342.205 1424.893, 2341.846 1421.326, 2341.308 1417.791, 2340.593 1414.295, 2339.704 1410.849, 2338.641 1407.459, 2337.407 1404.136, 2336.006 1400.886, 2334.441 1397.718, 2332.715 1394.640, 2330.835 1391.661, 2328.803 1388.785, 2326.626 1386.022, 2324.307 1383.378, 2321.854 " />
            <path fill="none" stroke-width="3.0" stroke-linecap="butt" stroke-opacity="1.0" stroke="rgb(0, 0, 0)" stroke-linejoin="round" d=" M 2190.402, 2542.442 2194.019, 2533.119 2197.636, 2523.796 2201.254, 2514.473 2204.871, 2505.151 2208.488, 2495.828 2212.105, 2486.505 2215.722, 2477.182 2219.339, 2467.859 2220.993, 2463.594 2219.892, 2453.655 2218.790, 2443.716 2217.688, 2433.777 2216.586, 2423.838 2215.485, 2413.899 2214.383, 2403.960 2213.281, 2394.020 2212.179, 2384.081 2211.078, 2374.142 2209.976, 2364.203 2208.874, 2354.264 2207.772, 2344.325 2206.671, 2334.386 2205.569, 2324.447 2204.467, 2314.508 2203.785, 2308.354 " />
            <path fill="none" stroke-width="3.0" stroke-linecap="butt" stroke-opacity="1.0" stroke="rgb(0, 0, 0)" stroke-linejoin="round" d=" M 2203.785, 2308.354 2206.877, 2298.844 2209.969, 2289.334 2213.062, 2279.824 2216.154, 2270.314 2219.246, 2260.804 2222.338, 2251.294 2225.430, 2241.785 2228.523, 2232.275 2231.615, 2222.765 2234.707, 2213.255 2237.799, 2203.745 2240.892, 2194.235 2243.984, 2184.725 2247.076, 2175.215 2250.168, 2165.705 2253.260, 2156.195 2256.353, 2146.686 2259.445, 2137.176 2262.537, 2127.666 2265.629, 2118.156 2268.721, 2108.646 2271.813, 2099.136 2274.906, 2089.626 2277.998, 2080.116 2281.090, 2070.606 2284.182, 2061.096 2287.275, 2051.586 2290.367, 2042.077 2293.459, 2032.567 2294.665, 2028.857 2296.824, 2019.093 2298.983, 2009.329 2301.141, 1999.565 2303.300, 1989.801 2305.459, 1980.036 2307.618, 1970.272 2309.777, 1960.508 2311.935, 1950.744 2314.094, 1940.980 2316.253, 1931.215 2318.412, 1921.451 2320.571, 1911.687 2322.729, 1901.923 2324.888, 1892.159 2327.047, 1882.394 2329.206, 1872.630 2331.365, 1862.866 2333.523, 1853.102 2335.682, 1843.338 2337.841, 1833.573 2340.000, 1823.809 2342.158, 1814.045 2344.317, 1804.281 2346.476, 1794.517 2348.635, 1784.752 2350.660, 1775.594 " />
            <path fill="none" stroke-width="3.0" stroke-linecap="butt" stroke-opacity="1.0" stroke="rgb(0, 0, 0)" stroke-linejoin="round" d=" M 2350.660, 1775.594 2353.681, 1766.061 2356.702, 1756.528 2359.723, 1746.995 2362.744, 1737.463 2365.766, 1727.930 2368.787, 1718.397 2371.808, 1708.865 2374.829, 1699.332 2377.850, 1689.799 2380.871, 1680.266 2383.893, 1670.734 2386.914, 1661.201 2389.935, 1651.668 2392.956, 1642.136 2395.977, 1632.603 2398.999, 1623.070 2402.020, 1613.538 2405.041, 1604.005 2408.062, 1594.472 2411.083, 1584.939 2414.104, 1575.407 2417.306, 1565.304 2418.810, 1555.418 2420.313, 1545.532 2421.817, 1535.646 2423.321, 1525.759 2424.825, 1515.873 2426.329, 1505.987 2427.832, 1496.100 2429.336, 1486.214 2430.840, 1476.328 2431.729, 1470.480 2435.475, 1461.208 2439.220, 1451.936 2442.965, 1442.664 2446.710, 1433.392 2450.456, 1424.120 2454.201, 1414.848 2457.946, 1405.575 2461.691, 1396.303 2465.437, 1387.031 2469.182, 1377.759 2472.927, 1368.487 2476.673, 1359.215 2480.418, 1349.942 2484.163, 1340.670 2487.908, 1331.398 2491.654, 1322.126 2495.399, 1312.854 2499.144, 1303.582 2502.890, 1294.309 2506.635, 1285.037 2510.380, 1275.765 2514.125, 1266.493 2517.871, 1257.221 2521.616, 1247.949 2525.361, 1238.677 2529.106, 1229.404 2532.852, 1220.132 2536.597, 1210.860 2540.342, 1201.588 2544.088, 1192.316 2547.833, 1183.044 2551.578, 1173.771 2555.323, 1164.499 2559.069, 1155.227 2562.814, 1145.955 2566.559, 1136.683 2570.304, 1127.411 2574.050, 1118.138 2577.795, 1108.866 2581.540, 1099.594 2585.286, 1090.322 2589.031, 1081.050 2592.776, 1071.778 2596.521, 1062.505 2600.267, 1053.233 2604.012, 1043.961 2607.757, 1034.689 2611.502, 1025.417 2615.248, 1016.145 2618.993, 1006.873 2622.738, 997.600 2626.484, 988.328 2630.229, 979.056 2633.974, 969.784 2637.719, 960.512 2641.465, 951.240 2645.210, 941.968 2648.955, 932.695 2652.701, 923.423 2656.446, 914.151 2660.191, 904.879 2663.937, 895.607 2667.682, 886.334 2671.427, 877.062 2675.172, 867.790 2678.917, 858.518 2682.663, 849.246 2686.408, 839.974 2690.153, 830.702 2693.899, 821.429 2697.644, 812.157 2701.389, 802.885 2705.135, 793.613 2708.880, 784.341 2712.625, 775.069 2716.370, 765.796 2720.115, 756.524 2723.861, 747.252 2727.606, 737.980 2731.351, 728.708 2735.097, 719.436 2738.842, 710.164 2742.587, 700.891 2746.333, 691.619 2750.078, 682.347 2753.823, 673.075 2757.568, 663.803 2761.313, 654.531 2765.059, 645.259 2768.804, 635.986 2772.549, 626.714 2776.295, 617.442 2780.040, 608.170 2783.785, 598.898 2787.531, 589.625 2791.276, 580.354 2795.021, 571.081 2798.766, 561.809 2802.512, 552.537 2806.257, 543.265 2810.002, 533.993 2813.748, 524.720 2817.493, 515.448 2821.238, 506.176 2824.983, 496.904 2828.729, 487.632 2832.474, 478.360 2836.219, 469.088 2839.964, 459.815 2843.710, 450.543 2847.455, 441.271 2851.200, 431.999 2854.946, 422.727 2858.691, 413.455 2862.436, 404.182 2866.181, 394.910 2869.927, 385.638 2873.672, 376.366 2877.417, 367.094 2881.162, 357.822 2884.908, 348.550 2890.893, 333.733 2893.180, 323.998 2895.468, 314.263 2897.755, 304.528 2900.043, 294.794 2902.331, 285.059 2904.618, 275.324 2906.906, 265.589 2909.194, 255.854 2911.481, 246.120 2913.769, 236.385 2916.056, 226.650 2918.344, 216.915 2920.632, 207.180 2922.919, 197.445 2925.207, 187.711 2927.495, 177.976 2929.782, 168.241 2932.070, 158.506 2934.357, 148.771 2936.645, 139.036 2938.933, 129.302 2941.220, 119.567 2943.508, 109.832 2945.796, 100.097 2948.083, 90.362 2950.371, 80.627 2952.658, 70.893 2953.892, 65.642 " />
            <path fill="none" stroke-width="3.0" stroke-linecap="butt" stroke-opacity="1.0" stroke="rgb(0, 0, 0)" stroke-linejoin="round" d=" M 2960.675, 27.219 2950.675, 27.226 2940.675, 27.232 2930.675, 27.238 2920.675, 27.244 2910.675, 27.251 2900.675, 27.257 2890.675, 27.263 2880.675, 27.269 2870.675, 27.276 2860.675, 27.282 2850.675, 27.288 2845.361, 27.291 2835.361, 27.298 2825.361, 27.304 2815.361, 27.310 2805.361, 27.316 2795.361, 27.323 2785.361, 27.329 2775.361, 27.335 2768.326, 27.339 " />
            <path fill="none" stroke-width="3.0" stroke-linecap="butt" stroke-opacity="1.0" stroke="rgb(0, 0, 0)" stroke-linejoin="round" d=" M 2953.892, 65.642 2955.631, 55.794 2957.369, 45.946 2959.107, 36.099 2960.675, 27.219 " />
            <path fill="none" stroke-width="3.0" stroke-linecap="butt" stroke-opacity="1.0" stroke="rgb(0, 0, 0)" stroke-linejoin="round" d=" M 6996.725, 807.352 6996.554, 817.350 6996.384, 827.349 6996.213, 837.347 6996.042, 847.346 6995.872, 857.344 6995.701, 867.343 6995.531, 877.342 6995.360, 887.340 6995.189, 897.339 6995.019, 907.337 6994.848, 917.336 6994.678, 927.334 6994.507, 937.333 6994.336, 947.331 6994.166, 957.330 6993.995, 967.328 6993.825, 977.327 6993.654, 987.325 6993.483, 997.324 6993.312, 1007.323 6993.142, 1017.321 6992.972, 1027.320 6992.801, 1037.318 6992.630, 1047.317 6992.459, 1057.315 6992.289, 1067.314 6992.119, 1077.312 6991.948, 1087.311 6991.777, 1097.309 6991.606, 1107.308 6991.436, 1117.307 6991.266, 1127.305 6991.095, 1137.304 6990.924, 1147.302 6990.753, 1157.301 6990.583, 1167.299 6990.413, 1177.298 6990.242, 1187.296 6990.071, 1197.295 6989.900, 1207.293 6989.730, 1217.292 6989.560, 1227.291 6989.389, 1237.289 6989.218, 1247.288 6989.008, 1259.617 6992.594, 1268.952 6996.180, 1278.287 6999.766, 1287.622 7003.352, 1296.957 7006.938, 1306.292 7010.523, 1315.626 7014.109, 1324.961 7017.695, 1334.296 7021.281, 1343.631 7024.867, 1352.966 7028.453, 1362.301 7032.039, 1371.636 7035.625, 1380.971 7039.211, 1390.306 7042.797, 1399.641 7046.383, 1408.976 7049.969, 1418.311 7053.555, 1427.646 7057.141, 1436.980 7060.727, 1446.315 7064.313, 1455.650 7067.899, 1464.985 7071.485, 1474.320 7075.071, 1483.655 7078.657, 1492.990 7082.243, 1502.325 7085.829, 1511.660 7089.415, 1520.995 7093.000, 1530.330 7096.586, 1539.665 7100.172, 1549.000 7103.758, 1558.335 7107.344, 1567.670 7110.930, 1577.005 7114.516, 1586.339 7118.738, 1597.330 7121.037, 1607.062 7123.335, 1616.794 7125.634, 1626.526 7127.933, 1636.259 7130.232, 1645.991 7132.530, 1655.723 7134.829, 1665.455 7137.128, 1675.188 7139.427, 1684.920 7141.726, 1694.652 7144.024, 1704.384 7146.323, 1714.116 7148.622, 1723.849 7150.920, 1733.581 7153.219, 1743.313 7155.518, 1753.045 7157.816, 1762.777 7160.115, 1772.510 7162.414, 1782.242 7164.713, 1791.974 7167.012, 1801.706 7169.310, 1811.438 7171.609, 1821.171 7173.908, 1830.903 7176.207, 1840.635 7178.505, 1850.367 7180.804, 1860.099 7183.103, 1869.832 7185.401, 1879.564 7187.700, 1889.296 7189.999, 1899.028 7192.297, 1908.760 7194.004, 1915.985 7195.374, 1925.891 7196.743, 1935.797 7198.113, 1945.702 7199.482, 1955.608 7200.852, 1965.514 7202.221, 1975.420 7203.591, 1985.325 7204.960, 1995.231 7206.330, 2005.137 7207.699, 2015.043 7209.069, 2024.948 7210.438, 2034.854 7211.808, 2044.760 7213.177, 2054.666 7214.547, 2064.572 7215.917, 2074.477 7217.286, 2084.383 7218.656, 2094.289 7220.025, 2104.195 7221.395, 2114.100 7222.764, 2124.006 7224.134, 2133.912 7225.503, 2143.818 7226.873, 2153.724 7228.242, 2163.629 7229.612, 2173.535 7230.981, 2183.441 7232.351, 2193.347 7233.720, 2203.252 7235.090, 2213.158 7236.459, 2223.064 7237.829, 2232.970 7239.199, 2242.875 7240.568, 2252.781 7241.938, 2262.687 7243.307, 2272.593 7244.677, 2282.499 7246.046, 2292.404 7247.416, 2302.310 7248.785, 2312.216 7250.155, 2322.122 7251.524, 2332.027 7252.894, 2341.933 7254.263, 2351.839 7255.633, 2361.745 7257.002, 2371.651 7258.372, 2381.556 7259.742, 2391.462 7261.111, 2401.368 7262.480, 2411.274 7263.850, 2421.179 7265.220, 2431.085 7266.589, 2440.991 7267.959, 2450.897 7269.328, 2460.803 7270.698, 2470.708 7272.067, 2480.614 7273.437, 2490.520 7274.807, 2500.426 7276.176, 2510.331 7277.545, 2520.237 7278.915, 2530.143 7280.285, 2540.049 7281.654, 2549.955 7283.023, 2559.860 7284.393, 2569.766 7285.763, 2579.672 7287.132, 2589.578 7288.502, 2599.483 7289.871, 2609.389 7291.241, 2619.295 7292.610, 2629.201 7293.980, 2639.107 7295.350, 2649.012 7296.719, 2658.918 7298.088, 2668.824 7299.458, 2678.730 7300.828, 2688.635 7302.197, 2698.541 7303.566, 2708.447 7304.936, 2718.353 7306.306, 2728.258 7307.675, 2738.164 7309.045, 2748.070 7310.414, 2757.976 7311.784, 2767.882 7313.153, 2777.787 7314.523, 2787.693 7315.893, 2797.599 7317.262, 2807.505 7318.631, 2817.410 7320.001, 2827.316 7322.235, 2843.474 " />
            <path fill="none" stroke-width="3.0" stroke-linecap="butt" stroke-opacity="1.0" stroke="rgb(0, 0, 0)" stroke-linejoin="round" d=" M 8174.094, 1104.209 8171.562, 1103.428 8169.071, 1102.522 8166.629, 1101.492 8164.242, 1100.342 8161.915, 1099.075 8159.653, 1097.693 8157.463, 1096.201 8155.352, 1094.601 8153.321, 1092.897 8151.379, 1091.094 8149.529, 1089.198 8147.775, 1087.211 " />
            <path fill="none" stroke-width="3.0" stroke-linecap="butt" stroke-opacity="1.0" stroke="rgb(0, 0, 0)" stroke-linejoin="round" d=" M 8146.123, 1085.139 8144.576, 1082.987 8143.138, 1080.761 8141.813, 1078.467 8140.604, 1076.108 8139.515, 1073.693 8138.547, 1071.226 8137.702, 1068.714 " />
            <path fill="none" stroke-width="3.0" stroke-linecap="butt" stroke-opacity="1.0" stroke="rgb(0, 0, 0)" stroke-linejoin="round" d=" M 8137.702, 1068.714 8136.985, 1066.163 8136.395, 1063.580 8135.936, 1060.970 " />
            <path fill="none" stroke-width="3.0" stroke-linecap="butt" stroke-opacity="1.0" stroke="rgb(0, 0, 0)" stroke-linejoin="round" d=" M 8205.414, 1103.428 8202.882, 1104.209 8200.314, 1104.863 8197.717, 1105.388 8195.096, 1105.783 8192.460, 1106.047 8189.813, 1106.179 8187.163, 1106.179 8184.516, 1106.047 8181.879, 1105.783 8179.259, 1105.388 8176.662, 1104.863 " />
            <path fill="none" stroke-width="3.0" stroke-linecap="butt" stroke-opacity="1.0" stroke="rgb(0, 0, 0)" stroke-linejoin="round" d=" M 8135.606, 1058.341 8135.407, 1055.698 8135.341, 1053.049 8135.407, 1050.400 8135.606, 1047.757 8135.936, 1045.128 8136.395, 1042.518 8136.985, 1039.935 8137.702, 1037.384 8138.547, 1034.872 " />
            <path fill="none" stroke-width="3.0" stroke-linecap="butt" stroke-opacity="1.0" stroke="rgb(0, 0, 0)" stroke-linejoin="round" d=" M 8138.547, 1034.872 8139.515, 1032.405 8140.604, 1029.990 8141.813, 1027.631 8143.138, 1025.337 8144.576, 1023.111 8146.123, 1020.959 8147.775, 1018.888 8149.529, 1016.900 8151.379, 1015.004 " />
            <path fill="none" stroke-width="3.0" stroke-linecap="butt" stroke-opacity="1.0" stroke="rgb(0, 0, 0)" stroke-linejoin="round" d=" M 6972.458, 272.423 6970.882, 282.298 6969.307, 292.173 6967.731, 302.048 6966.155, 311.924 6964.579, 321.799 6963.003, 331.674 6961.428, 341.549 6959.852, 351.424 6958.276, 361.299 6956.886, 370.011 6957.793, 379.970 6958.701, 389.928 6959.608, 399.887 6960.515, 409.846 6961.422, 419.805 6962.329, 429.763 6963.236, 439.722 6964.144, 449.681 6965.051, 459.640 6965.958, 469.599 6966.865, 479.557 6967.772, 489.516 6968.680, 499.475 6969.586, 509.434 6970.494, 519.392 6971.401, 529.351 6972.308, 539.310 6973.215, 549.269 6974.123, 559.228 6975.030, 569.186 6975.937, 579.145 6976.844, 589.104 6977.751, 599.062 6978.658, 609.021 6979.565, 618.980 6980.473, 628.939 6981.380, 638.898 6982.287, 648.856 6983.194, 658.815 6984.102, 668.774 6985.009, 678.733 6985.916, 688.691 6986.823, 698.650 6987.730, 708.609 6988.637, 718.568 6989.544, 728.527 6990.452, 738.485 6991.359, 748.444 6992.266, 758.403 6993.173, 768.362 6994.080, 778.320 6994.987, 788.279 6995.895, 798.238 6996.725, 807.352 " />
            <path fill="none" stroke-width="3.0" stroke-linecap="butt" stroke-opacity="1.0" stroke="rgb(0, 0, 0)" stroke-linejoin="round" d=" M 8151.379, 1015.004 8153.321, 1013.201 " />
            <path fill="none" stroke-width="3.0" stroke-linecap="butt" stroke-opacity="1.0" stroke="rgb(0, 0, 0)" stroke-linejoin="round" d=" M 8153.321, 1013.201 8155.352, 1011.497 " />
            <path fill="none" stroke-width="3.0" stroke-linecap="butt" stroke-opacity="1.0" stroke="rgb(0, 0, 0)" stroke-linejoin="round" d=" M 8155.352, 1011.497 8157.463, 1009.897 " />
            <path fill="none" stroke-width="3.0" stroke-linecap="butt" stroke-opacity="1.0" stroke="rgb(0, 0, 0)" stroke-linejoin="round" d=" M 8157.463, 1009.897 8159.653, 1008.405 8161.915, 1007.023 8164.242, 1005.756 8166.629, 1004.606 8169.071, 1003.577 8171.562, 1002.670 8174.094, 1001.889 8176.662, 1001.235 8179.259, 1000.710 8181.879, 1000.315 8184.516, 1000.051 8187.163, 999.920 " />
            <path fill="none" stroke-width="3.0" stroke-linecap="butt" stroke-opacity="1.0" stroke="rgb(0, 0, 0)" stroke-linejoin="round" d=" M 8227.446, 1089.198 8225.597, 1091.094 8223.654, 1092.897 8221.624, 1094.601 8219.512, 1096.201 8217.322, 1097.693 8215.062, 1099.075 8212.734, 1100.342 8210.347, 1101.492 8207.904, 1102.522 8205.414, 1103.428 " />
            <path fill="none" stroke-width="3.0" stroke-linecap="butt" stroke-opacity="1.0" stroke="rgb(0, 0, 0)" stroke-linejoin="round" d=" M 8239.991, 1039.935 8240.580, 1042.518 8241.040, 1045.128 8241.370, 1047.757 8241.568, 1050.400 8241.634, 1053.049 8241.568, 1055.698 8241.370, 1058.341 8241.040, 1060.970 8240.580, 1063.580 8239.991, 1066.163 8239.272, 1068.714 8238.429, 1071.226 8237.461, 1073.693 8236.371, 1076.108 8235.162, 1078.467 8233.837, 1080.761 8232.399, 1082.987 8230.853, 1085.139 8229.200, 1087.211 8227.446, 1089.198 " />
            <path fill="none" stroke-width="3.0" stroke-linecap="butt" stroke-opacity="1.0" stroke="rgb(0, 0, 0)" stroke-linejoin="round" d=" M 8239.272, 1037.384 8239.991, 1039.935 " />
            <path fill="none" stroke-width="3.0" stroke-linecap="butt" stroke-opacity="1.0" stroke="rgb(0, 0, 0)" stroke-linejoin="round" d=" M 8238.429, 1034.872 8239.272, 1037.384 " />
            <path fill="none" stroke-width="3.0" stroke-linecap="butt" stroke-opacity="1.0" stroke="rgb(0, 0, 0)" stroke-linejoin="round" d=" M 8237.461, 1032.405 8238.429, 1034.872 " />
            <path fill="none" stroke-width="3.0" stroke-linecap="butt" stroke-opacity="1.0" stroke="rgb(0, 0, 0)" stroke-linejoin="round" d=" M 8233.837, 1025.337 8235.162, 1027.631 8236.371, 1029.990 8237.461, 1032.405 " />
            <path fill="none" stroke-width="3.0" stroke-linecap="butt" stroke-opacity="1.0" stroke="rgb(0, 0, 0)" stroke-linejoin="round" d=" M 8232.399, 1023.111 8233.837, 1025.337 " />
            <path fill="none" stroke-width="3.0" stroke-linecap="butt" stroke-opacity="1.0" stroke="rgb(0, 0, 0)" stroke-linejoin="round" d=" M 8212.734, 1005.756 8215.062, 1007.023 8217.322, 1008.405 8219.512, 1009.897 8221.624, 1011.497 8223.654, 1013.201 8225.597, 1015.004 8227.446, 1016.900 8229.200, 1018.888 8230.853, 1020.959 8232.399, 1023.111 " />
            <path fill="none" stroke-width="3.0" stroke-linecap="butt" stroke-opacity="1.0" stroke="rgb(0, 0, 0)" stroke-linejoin="round" d=" M 8200.314, 1001.235 8202.882, 1001.889 8205.414, 1002.670 8207.904, 1003.577 8210.347, 1004.606 8212.734, 1005.756 " />
            <path fill="none" stroke-width="3.0" stroke-linecap="butt" stroke-opacity="1.0" stroke="rgb(0, 0, 0)" stroke-linejoin="round" d=" M 8197.717, 1000.710 8200.314, 1001.235 " />
            <path fill="none" stroke-width="3.0" stroke-linecap="butt" stroke-opacity="1.0" stroke="rgb(0, 0, 0)" stroke-linejoin="round" d=" M 8189.813, 999.920 8192.460, 1000.051 8195.096, 1000.315 8197.717, 1000.710 " />
            <path fill="none" stroke-width="3.0" stroke-linecap="butt" stroke-opacity="1.0" stroke="rgb(0, 0, 0)" stroke-linejoin="round" d=" M 8187.163, 999.920 8189.813, 999.920 " />
            <path fill="none" stroke-width="3.0" stroke-linecap="butt" stroke-opacity="1.0" stroke="rgb(0, 0, 0)" stroke-linejoin="round" d=" M 1239.484, 28.292 1229.484, 28.299 1219.484, 28.305 1209.484, 28.311 1199.484, 28.317 1189.484, 28.323 1179.484, 28.330 1169.484, 28.336 1159.484, 28.342 1149.484, 28.349 1139.484, 28.355 1129.484, 28.361 1119.484, 28.367 1109.484, 28.374 1099.484, 28.380 1089.484, 28.386 1079.484, 28.392 1069.484, 28.398 1059.484, 28.405 1049.484, 28.411 1039.484, 28.417 1029.484, 28.424 1019.485, 28.430 1009.485, 28.436 999.485, 28.442 989.485, 28.448 979.485, 28.455 969.485, 28.461 959.485, 28.467 949.485, 28.473 938.365, 28.480 " />
            <path fill="none" stroke-width="3.0" stroke-linecap="butt" stroke-opacity="1.0" stroke="rgb(0, 0, 0)" stroke-linejoin="round" d=" M 2304.068, 27.629 2294.068, 27.635 2284.068, 27.642 2274.068, 27.648 2264.068, 27.654 2254.068, 27.660 2244.068, 27.667 2234.068, 27.673 2224.068, 27.679 2214.068, 27.685 2204.068, 27.692 2194.068, 27.698 2184.068, 27.704 2174.068, 27.710 2164.068, 27.717 2154.068, 27.723 2144.068, 27.729 2134.068, 27.735 2124.068, 27.741 2114.068, 27.748 2104.068, 27.754 2094.068, 27.760 2084.068, 27.766 2074.068, 27.772 2064.068, 27.779 2054.068, 27.785 2044.068, 27.791 2034.068, 27.797 2024.068, 27.804 2014.068, 27.810 2004.068, 27.816 1994.068, 27.822 1984.068, 27.829 1974.068, 27.835 1964.068, 27.841 1954.068, 27.847 1944.068, 27.854 1934.068, 27.860 1924.068, 27.866 1914.068, 27.872 1904.068, 27.878 1894.068, 27.885 1884.068, 27.891 1874.068, 27.897 1864.068, 27.903 1854.068, 27.910 1844.068, 27.916 1834.068, 27.922 1824.068, 27.928 1814.068, 27.935 1804.068, 27.941 1794.068, 27.947 1784.068, 27.953 1774.068, 27.959 1764.068, 27.966 1754.068, 27.972 1744.068, 27.978 1734.068, 27.984 1724.068, 27.990 1714.068, 27.997 1704.068, 28.003 1694.068, 28.009 1684.068, 28.015 1674.068, 28.022 1659.155, 28.031 1649.155, 28.037 1639.155, 28.043 1629.155, 28.050 1619.155, 28.056 1609.155, 28.062 1599.155, 28.068 1589.155, 28.075 1579.155, 28.081 1569.155, 28.087 1559.155, 28.093 1549.155, 28.100 1539.155, 28.106 1529.155, 28.112 1519.155, 28.118 1509.155, 28.125 1499.155, 28.131 1489.155, 28.137 1479.155, 28.143 1469.155, 28.149 1459.155, 28.156 1449.155, 28.162 1439.155, 28.168 1429.155, 28.174 1419.155, 28.180 1409.155, 28.187 1399.155, 28.193 1389.155, 28.199 1379.155, 28.205 1369.155, 28.212 1359.155, 28.218 1349.155, 28.224 1339.155, 28.230 1329.155, 28.237 1319.155, 28.243 1309.155, 28.249 1299.155, 28.255 1289.155, 28.261 1279.155, 28.268 1269.155, 28.274 1259.155, 28.280 1249.155, 28.286 1239.484, 28.292 " />
            <path fill="none" stroke-width="3.0" stroke-linecap="butt" stroke-opacity="1.0" stroke="rgb(0, 0, 0)" stroke-linejoin="round" d=" M 2768.326, 27.339 2758.326, 27.346 2748.326, 27.352 2738.326, 27.358 2736.853, 27.359 2726.853, 27.365 2716.853, 27.372 2706.853, 27.378 2696.853, 27.384 2686.853, 27.390 2676.853, 27.396 2666.853, 27.403 2656.853, 27.409 2646.853, 27.415 2636.853, 27.422 2626.853, 27.428 2616.853, 27.434 2606.853, 27.440 2596.853, 27.447 2586.853, 27.453 2576.853, 27.459 2566.853, 27.465 2556.853, 27.471 2546.853, 27.478 2536.853, 27.484 2526.853, 27.490 2516.853, 27.496 2506.853, 27.503 2496.853, 27.509 2486.853, 27.515 2476.853, 27.521 2466.853, 27.528 2456.853, 27.534 2446.853, 27.540 2436.853, 27.546 2426.853, 27.553 2416.853, 27.559 2406.853, 27.565 2396.853, 27.571 2386.853, 27.578 2376.853, 27.584 2366.853, 27.590 2356.853, 27.596 2346.853, 27.603 2336.853, 27.609 2326.853, 27.615 2316.853, 27.621 2304.068, 27.629 " />
            <path fill="none" stroke-width="3.0" stroke-linecap="butt" stroke-opacity="1.0" stroke="rgb(0, 0, 0)" stroke-linejoin="round" d=" M 2768.326, 27.339 2758.326, 27.346 2748.326, 27.352 2738.326, 27.358 2728.326, 27.365 2718.326, 27.371 2708.326, 27.377 2698.326, 27.383 2688.326, 27.389 2678.326, 27.396 2668.326, 27.402 2658.326, 27.408 2648.326, 27.414 2638.326, 27.420 2628.326, 27.427 2618.326, 27.433 2608.326, 27.439 2598.326, 27.445 2588.326, 27.452 2578.326, 27.458 2568.326, 27.464 2558.326, 27.470 2548.326, 27.477 2538.326, 27.483 2528.326, 27.489 2518.326, 27.495 2508.326, 27.501 2498.326, 27.508 2488.326, 27.514 2478.326, 27.520 2468.326, 27.526 2458.326, 27.533 2448.326, 27.539 2438.326, 27.545 2428.326, 27.551 2418.326, 27.558 2408.326, 27.564 2398.326, 27.570 2388.326, 27.576 2378.326, 27.583 2368.326, 27.589 2358.326, 27.595 2348.326, 27.601 2338.326, 27.607 2328.326, 27.614 2318.326, 27.620 2308.326, 27.626 2298.326, 27.632 2288.326, 27.639 2278.326, 27.645 2268.326, 27.651 2258.326, 27.657 2248.326, 27.664 2238.326, 27.670 2228.326, 27.676 2218.326, 27.682 2208.326, 27.688 2198.326, 27.695 2188.326, 27.701 2178.326, 27.707 2168.326, 27.713 2158.326, 27.720 2148.326, 27.726 2138.326, 27.732 2128.326, 27.738 2118.326, 27.745 2108.326, 27.751 2098.326, 27.757 2088.326, 27.763 2078.326, 27.770 2068.326, 27.776 2058.326, 27.782 2048.326, 27.788 2038.326, 27.794 2028.326, 27.801 2018.326, 27.807 2008.326, 27.813 1998.326, 27.819 1988.326, 27.826 1978.326, 27.832 1968.326, 27.838 1958.326, 27.844 1948.326, 27.851 1938.326, 27.857 1928.326, 27.863 1918.326, 27.869 1908.326, 27.875 1898.326, 27.882 1888.326, 27.888 1878.326, 27.894 1868.326, 27.900 1858.326, 27.907 1848.326, 27.913 1838.326, 27.919 1828.326, 27.925 1818.326, 27.932 1808.326, 27.938 1798.326, 27.944 1788.326, 27.950 1778.326, 27.957 1768.326, 27.963 1758.326, 27.969 1748.326, 27.975 1738.326, 27.981 1728.326, 27.988 1718.326, 27.994 1708.326, 28.000 1698.326, 28.006 1688.326, 28.013 1678.326, 28.019 1668.326, 28.025 1658.326, 28.031 1648.326, 28.038 1638.326, 28.044 1628.326, 28.050 1618.326, 28.056 1608.326, 28.062 1598.326, 28.069 1588.326, 28.075 1578.326, 28.081 1568.326, 28.087 1558.326, 28.094 1548.326, 28.100 1538.326, 28.106 1528.326, 28.112 1518.326, 28.119 1508.326, 28.125 1498.326, 28.131 1488.326, 28.137 1478.326, 28.144 1468.326, 28.150 1458.326, 28.156 1448.326, 28.162 1438.326, 28.168 1428.326, 28.175 1418.326, 28.181 1408.326, 28.187 1398.326, 28.193 1388.326, 28.200 1378.326, 28.206 1368.326, 28.212 1358.326, 28.218 1348.326, 28.225 1338.326, 28.231 1328.326, 28.237 1318.326, 28.243 1308.326, 28.250 1298.326, 28.256 1288.326, 28.262 1278.326, 28.268 1268.326, 28.274 1258.326, 28.281 1239.484, 28.292 " />
            <path fill="none" stroke-width="3.0" stroke-linecap="butt" stroke-opacity="1.0" stroke="rgb(0, 0, 0)" stroke-linejoin="round" d=" M 2768.326, 27.339 2758.326, 27.346 2748.326, 27.352 2738.326, 27.358 2728.326, 27.365 2718.326, 27.371 2708.326, 27.377 2698.326, 27.383 2688.326, 27.389 2678.326, 27.396 2668.326, 27.402 2658.326, 27.408 2648.326, 27.414 2638.326, 27.420 2628.326, 27.427 2618.326, 27.433 2608.326, 27.439 2598.326, 27.445 2588.326, 27.452 2578.326, 27.458 2568.326, 27.464 2558.326, 27.470 2548.326, 27.477 2538.326, 27.483 2528.326, 27.489 2518.326, 27.495 2508.326, 27.501 2498.326, 27.508 2488.326, 27.514 2478.326, 27.520 2468.326, 27.526 2458.326, 27.533 2448.326, 27.539 2438.326, 27.545 2428.326, 27.551 2418.326, 27.558 2408.326, 27.564 2398.326, 27.570 2388.326, 27.576 2378.326, 27.583 2368.326, 27.589 2358.326, 27.595 2348.326, 27.601 2338.326, 27.607 2328.326, 27.614 2318.326, 27.620 2308.326, 27.626 2298.326, 27.632 2288.326, 27.639 2278.326, 27.645 2268.326, 27.651 2258.326, 27.657 2248.326, 27.664 2238.326, 27.670 2228.326, 27.676 2218.326, 27.682 2208.326, 27.688 2198.326, 27.695 2188.326, 27.701 2178.326, 27.707 2168.326, 27.713 2158.326, 27.720 2148.326, 27.726 2138.326, 27.732 2128.326, 27.738 2118.326, 27.745 2108.326, 27.751 2098.326, 27.757 2088.326, 27.763 2078.326, 27.770 2068.326, 27.776 2058.326, 27.782 2048.326, 27.788 2038.326, 27.794 2028.326, 27.801 2018.326, 27.807 2008.326, 27.813 1998.326, 27.819 1988.326, 27.826 1978.326, 27.832 1968.326, 27.838 1958.326, 27.844 1948.326, 27.851 1938.326, 27.857 1928.326, 27.863 1918.326, 27.869 1908.326, 27.875 1898.326, 27.882 1888.326, 27.888 1878.326, 27.894 1868.326, 27.900 1858.326, 27.907 1848.326, 27.913 1838.326, 27.919 1828.326, 27.925 1818.326, 27.932 1808.326, 27.938 1798.326, 27.944 1788.326, 27.950 1778.326, 27.957 1768.326, 27.963 1758.326, 27.969 1748.326, 27.975 1738.326, 27.981 1728.326, 27.988 1718.326, 27.994 1708.326, 28.000 1698.326, 28.006 1688.326, 28.013 1678.326, 28.019 1668.326, 28.025 1658.326, 28.031 1648.326, 28.038 1638.326, 28.044 1628.326, 28.050 1618.326, 28.056 1608.326, 28.062 1598.326, 28.069 1588.326, 28.075 1578.326, 28.081 1568.326, 28.087 1558.326, 28.094 1548.326, 28.100 1538.326, 28.106 1528.326, 28.112 1518.326, 28.119 1508.326, 28.125 1498.326, 28.131 1488.326, 28.137 1478.326, 28.144 1468.326, 28.150 1458.326, 28.156 1448.326, 28.162 1438.326, 28.168 1428.326, 28.175 1418.326, 28.181 1408.326, 28.187 1398.326, 28.193 1388.326, 28.200 1378.326, 28.206 1368.326, 28.212 1358.326, 28.218 1348.326, 28.225 1338.326, 28.231 1328.326, 28.237 1318.326, 28.243 1308.326, 28.250 1298.326, 28.256 1288.326, 28.262 1278.326, 28.268 1268.326, 28.274 1258.326, 28.281 1239.484, 28.292 " />
            <path fill="none" stroke-width="3.0" stroke-linecap="butt" stroke-opacity="1.0" stroke="rgb(0, 0, 0)" stroke-linejoin="round" d=" M 1659.155, 28.031 1669.155, 28.025 1679.155, 28.019 1689.155, 28.012 1699.155, 28.006 1709.155, 28.000 1719.155, 27.994 1729.155, 27.987 1739.155, 27.981 1749.155, 27.975 1759.155, 27.969 1769.155, 27.962 1779.155, 27.956 1789.155, 27.950 1799.155, 27.944 1809.155, 27.938 1819.155, 27.931 1829.155, 27.925 1839.155, 27.919 1849.155, 27.913 1859.155, 27.906 1869.155, 27.900 1879.155, 27.894 1889.155, 27.888 1899.155, 27.881 1909.155, 27.875 1919.155, 27.869 1929.155, 27.863 1939.155, 27.856 1949.155, 27.850 1959.155, 27.844 1969.155, 27.838 1979.155, 27.832 1989.155, 27.825 1999.155, 27.819 2009.155, 27.813 2019.155, 27.807 2029.155, 27.800 2039.155, 27.794 2049.155, 27.788 2059.155, 27.781 2069.155, 27.775 2079.155, 27.769 2089.155, 27.763 2099.155, 27.757 2109.155, 27.750 2119.155, 27.744 2129.155, 27.738 2139.155, 27.732 2149.155, 27.726 2159.155, 27.719 2169.155, 27.713 2179.155, 27.707 2189.155, 27.701 2199.155, 27.694 2209.155, 27.688 2219.155, 27.682 2229.155, 27.676 2239.155, 27.669 2249.155, 27.663 2259.155, 27.657 2269.155, 27.651 2279.155, 27.645 2289.155, 27.638 2299.155, 27.632 2309.155, 27.626 2319.155, 27.620 2329.155, 27.613 2339.155, 27.607 2349.155, 27.601 2359.155, 27.594 2369.155, 27.588 2379.155, 27.582 2389.155, 27.576 2399.155, 27.570 2409.155, 27.563 2419.155, 27.557 2429.155, 27.551 2439.155, 27.545 2449.155, 27.539 2459.155, 27.532 2469.155, 27.526 2479.155, 27.520 2489.155, 27.513 2499.155, 27.507 2509.155, 27.501 2519.155, 27.495 2529.155, 27.489 2539.155, 27.482 2549.155, 27.476 2559.155, 27.470 2569.155, 27.464 2579.155, 27.458 2589.155, 27.451 2599.155, 27.445 2609.155, 27.439 2619.155, 27.432 2629.155, 27.426 2639.155, 27.420 2649.155, 27.414 2659.155, 27.407 2669.155, 27.401 2679.155, 27.395 2689.155, 27.389 2699.155, 27.383 2709.155, 27.376 2719.155, 27.370 2736.853, 27.359 " />
            <path fill="none" stroke-width="3.0" stroke-linecap="butt" stroke-opacity="1.0" stroke="rgb(0, 0, 0)" stroke-linejoin="round" d=" M 8135.936, 1060.970 8135.606, 1058.341 " />
            <path fill="none" stroke-width="3.0" stroke-linecap="butt" stroke-opacity="1.0" stroke="rgb(0, 0, 0)" stroke-linejoin="round" d=" M 8147.775, 1087.211 8146.123, 1085.139 " />
            <path fill="none" stroke-width="3.0" stroke-linecap="butt" stroke-opacity="1.0" stroke="rgb(0, 0, 0)" stroke-linejoin="round" d=" M 8176.662, 1104.863 8174.094, 1104.209 " />
            <path fill="none" stroke-width="3.0" stroke-linecap="butt" stroke-opacity="1.0" stroke="rgb(0, 0, 0)" stroke-linejoin="round" d=" M 7470.125, 24.408 7460.125, 24.415 7450.125, 24.421 7440.125, 24.427 7430.125, 24.433 7420.125, 24.440 7410.125, 24.446 7400.125, 24.452 7390.125, 24.458 7380.125, 24.465 7370.125, 24.471 7360.125, 24.477 7350.125, 24.483 7340.125, 24.490 7330.125, 24.496 7320.125, 24.502 7310.125, 24.508 7300.125, 24.514 7290.125, 24.521 7280.125, 24.527 7270.125, 24.533 7260.125, 24.540 7250.125, 24.546 7240.125, 24.552 7230.125, 24.558 7220.125, 24.564 7210.125, 24.571 7200.125, 24.577 7190.125, 24.583 7180.125, 24.589 7170.125, 24.595 7160.125, 24.602 7150.125, 24.608 7140.125, 24.614 7130.125, 24.621 7120.125, 24.627 7110.125, 24.633 7100.125, 24.639 7090.125, 24.646 7080.125, 24.652 7070.125, 24.658 7060.125, 24.664 7050.125, 24.670 7040.125, 24.677 7030.125, 24.683 7020.125, 24.689 7010.125, 24.695 7000.125, 24.702 6990.125, 24.708 6980.125, 24.714 6970.125, 24.720 6960.125, 24.727 6950.125, 24.733 6940.125, 24.739 6930.125, 24.745 6920.125, 24.751 6910.125, 24.758 6900.849, 24.763 " />
        </g>
    </g>
<g id="slice-labels"><text x="589.3878750000001" y="514.4191666666667" text-anchor="middle" dominant-baseline="middle" font-family="Arial, sans-serif" font-size="59.05149885332309" font-weight="bold" fill="black" stroke="none" stroke-width="7.086179862398771" paint-order="stroke fill">Slice29 (Front)</text><text x="1720.7056250000003" y="514.4191666666667" text-anchor="middle" dominant-baseline="middle" font-family="Arial, sans-serif" font-size="59.05149885332309" font-weight="bold" fill="black" stroke="none" stroke-width="7.086179862398771" paint-order="stroke fill">Slice29 (Front)</text><text x="2852.023375" y="514.4191666666667" text-anchor="middle" dominant-baseline="middle" font-family="Arial, sans-serif" font-size="59.05149885332309" font-weight="bold" fill="black" stroke="none" stroke-width="7.086179862398771" paint-order="stroke fill">Slice29 (Front)</text><text x="3983.3411250000004" y="514.4191666666667" text-anchor="middle" dominant-baseline="middle" font-family="Arial, sans-serif" font-size="59.05149885332309" font-weight="bold" fill="black" stroke="none" stroke-width="7.086179862398771" paint-order="stroke fill">Slice29 (Front)</text><text x="5114.658875000001" y="514.4191666666667" text-anchor="middle" dominant-baseline="middle" font-family="Arial, sans-serif" font-size="59.05149885332309" font-weight="bold" fill="black" stroke="none" stroke-width="7.086179862398771" paint-order="stroke fill">Slice29 (Front)</text><text x="6245.976625000001" y="514.4191666666667" text-anchor="middle" dominant-baseline="middle" font-family="Arial, sans-serif" font-size="59.05149885332309" font-weight="bold" fill="black" stroke="none" stroke-width="7.086179862398771" paint-order="stroke fill">Slice29 (Front)</text><text x="7377.294375000001" y="514.4191666666667" text-anchor="middle" dominant-baseline="middle" font-family="Arial, sans-serif" font-size="59.05149885332309" font-weight="bold" fill="black" stroke="none" stroke-width="7.086179862398771" paint-order="stroke fill">Slice29 (Front)</text><text x="8508.612125" y="514.4191666666667" text-anchor="middle" dominant-baseline="middle" font-family="Arial, sans-serif" font-size="59.05149885332309" font-weight="bold" fill="black" stroke="none" stroke-width="7.086179862398771" paint-order="stroke fill">Slice29 (Front)</text><text x="589.3878750000001" y="1496.0055" text-anchor="middle" dominant-baseline="middle" font-family="Arial, sans-serif" font-size="59.05149885332309" font-weight="bold" fill="black" stroke="none" stroke-width="7.086179862398771" paint-order="stroke fill">Slice29 (Front)</text><text x="1720.7056250000003" y="1496.0055" text-anchor="middle" dominant-baseline="middle" font-family="Arial, sans-serif" font-size="59.05149885332309" font-weight="bold" fill="black" stroke="none" stroke-width="7.086179862398771" paint-order="stroke fill">Slice29 (Front)</text><text x="2852.023375" y="1496.0055" text-anchor="middle" dominant-baseline="middle" font-family="Arial, sans-serif" font-size="59.05149885332309" font-weight="bold" fill="black" stroke="none" stroke-width="7.086179862398771" paint-order="stroke fill">Slice29 (Front)</text><text x="3983.3411250000004" y="1496.0055" text-anchor="middle" dominant-baseline="middle" font-family="Arial, sans-serif" font-size="59.05149885332309" font-weight="bold" fill="black" stroke="none" stroke-width="7.086179862398771" paint-order="stroke fill">Slice29 (Front)</text><text x="5114.658875000001" y="1496.0055" text-anchor="middle" dominant-baseline="middle" font-family="Arial, sans-serif" font-size="59.05149885332309" font-weight="bold" fill="black" stroke="none" stroke-width="7.086179862398771" paint-order="stroke fill">Slice29 (Front)</text><text x="6245.976625000001" y="1496.0055" text-anchor="middle" dominant-baseline="middle" font-family="Arial, sans-serif" font-size="59.05149885332309" font-weight="bold" fill="black" stroke="none" stroke-width="7.086179862398771" paint-order="stroke fill">Slice29 (Front)</text><text x="7377.294375000001" y="1496.0055" text-anchor="middle" dominant-baseline="middle" font-family="Arial, sans-serif" font-size="59.05149885332309" font-weight="bold" fill="black" stroke="none" stroke-width="7.086179862398771" paint-order="stroke fill">Slice29 (Front)</text><text x="8508.612125" y="1496.0055" text-anchor="middle" dominant-baseline="middle" font-family="Arial, sans-serif" font-size="59.05149885332309" font-weight="bold" fill="black" stroke="none" stroke-width="7.086179862398771" paint-order="stroke fill">Slice29 (Front)</text><text x="589.3878750000001" y="2477.591833333334" text-anchor="middle" dominant-baseline="middle" font-family="Arial, sans-serif" font-size="59.05149885332309" font-weight="bold" fill="black" stroke="none" stroke-width="7.086179862398771" paint-order="stroke fill">Slice29 (Front)</text><text x="1720.7056250000003" y="2477.591833333334" text-anchor="middle" dominant-baseline="middle" font-family="Arial, sans-serif" font-size="59.05149885332309" font-weight="bold" fill="black" stroke="none" stroke-width="7.086179862398771" paint-order="stroke fill">Slice29 (Front)</text><text x="2852.023375" y="2477.591833333334" text-anchor="middle" dominant-baseline="middle" font-family="Arial, sans-serif" font-size="59.05149885332309" font-weight="bold" fill="black" stroke="none" stroke-width="7.086179862398771" paint-order="stroke fill">Slice29 (Front)</text><text x="3983.3411250000004" y="2477.591833333334" text-anchor="middle" dominant-baseline="middle" font-family="Arial, sans-serif" font-size="59.05149885332309" font-weight="bold" fill="black" stroke="none" stroke-width="7.086179862398771" paint-order="stroke fill">Slice29 (Front)</text><text x="5114.658875000001" y="2477.591833333334" text-anchor="middle" dominant-baseline="middle" font-family="Arial, sans-serif" font-size="59.05149885332309" font-weight="bold" fill="black" stroke="none" stroke-width="7.086179862398771" paint-order="stroke fill">Slice29 (Front)</text><text x="6245.976625000001" y="2477.591833333334" text-anchor="middle" dominant-baseline="middle" font-family="Arial, sans-serif" font-size="59.05149885332309" font-weight="bold" fill="black" stroke="none" stroke-width="7.086179862398771" paint-order="stroke fill">Slice29 (Front)</text><text x="7377.294375000001" y="2477.591833333334" text-anchor="middle" dominant-baseline="middle" font-family="Arial, sans-serif" font-size="59.05149885332309" font-weight="bold" fill="black" stroke="none" stroke-width="7.086179862398771" paint-order="stroke fill">Slice29 (Front)</text><text x="8508.612125" y="2477.591833333334" text-anchor="middle" dominant-baseline="middle" font-family="Arial, sans-serif" font-size="59.05149885332309" font-weight="bold" fill="black" stroke="none" stroke-width="7.086179862398771" paint-order="stroke fill">Slice29 (Front)</text></g></svg>