<?xml version='1.0' encoding='utf-8'?>
<svg xmlns="http://www.w3.org/2000/svg" xmlns:inkscape="http://www.inkscape.org/namespaces/inkscape" version="1.1" width="125.87094986438751mm" height="60.06445670127869mm" viewBox="0.61102777034613 0.005030211722125699 1485.7789444593077 708.9999395765559" preserveAspectRatio="none">
    <g id="ViewLayer_LineSet" inkscape:groupmode="lineset" inkscape:label="ViewLayer_LineSet">
        <g inkscape:groupmode="layer" id="strokes" inkscape:label="strokes">
            <path fill="none" stroke-width="3.0" stroke-linecap="butt" stroke-opacity="1.0" stroke="rgb(0, 0, 0)" stroke-linejoin="round" d=" M 1462.782, 685.397 1456.453, 677.655 1450.124, 669.912 1443.796, 662.169 1437.467, 654.427 1431.138, 646.684 1424.810, 638.941 1418.481, 631.199 1412.152, 623.456 1405.824, 615.714 1399.495, 607.971 1393.166, 600.228 1386.838, 592.486 1380.509, 584.743 1374.180, 577.001 1367.852, 569.258 1361.523, 561.515 1355.194, 553.773 1348.866, 546.030 1342.537, 538.288 1336.208, 530.545 1329.880, 522.802 1323.551, 515.060 1317.222, 507.317 1310.894, 499.574 1304.565, 491.832 1298.236, 484.089 1291.908, 476.347 1285.579, 468.604 1279.250, 460.861 1272.922, 453.119 1266.593, 445.376 1260.264, 437.634 1253.936, 429.891 1247.607, 422.148 1241.278, 414.406 1234.950, 406.663 1228.621, 398.921 1222.292, 391.178 1215.964, 383.435 1209.635, 375.693 1203.306, 367.950 1196.689, 359.854 1194.026, 350.215 1191.362, 340.577 1188.699, 330.938 1186.035, 321.299 1183.372, 311.660 1180.708, 302.022 1178.045, 292.383 1175.381, 282.744 1172.718, 273.105 1170.054, 263.466 1167.391, 253.828 1164.728, 244.189 1162.064, 234.550 1159.401, 224.911 1156.737, 215.272 1155.597, 211.145 " />
            <path fill="none" stroke-width="3.0" stroke-linecap="butt" stroke-opacity="1.0" stroke="rgb(0, 0, 0)" stroke-linejoin="round" d=" M 24.219, 685.397 34.219, 685.397 44.219, 685.397 54.219, 685.397 64.219, 685.397 74.219, 685.397 84.219, 685.397 94.219, 685.397 104.219, 685.397 114.219, 685.397 124.219, 685.397 134.219, 685.397 144.219, 685.397 154.219, 685.397 164.219, 685.397 174.219, 685.397 184.219, 685.397 194.219, 685.397 204.219, 685.397 214.219, 685.397 224.219, 685.397 234.219, 685.397 244.219, 685.397 254.219, 685.397 264.219, 685.397 274.219, 685.397 286.371, 685.397 289.144, 685.397 291.934, 685.397 294.735, 685.397 297.536, 685.397 307.536, 685.397 317.536, 685.397 327.536, 685.397 337.536, 685.397 347.536, 685.397 357.536, 685.397 367.536, 685.397 377.536, 685.397 387.536, 685.397 397.536, 685.397 407.536, 685.397 417.536, 685.397 427.536, 685.397 437.536, 685.397 447.536, 685.397 457.536, 685.397 467.536, 685.397 477.536, 685.397 487.536, 685.397 497.536, 685.397 507.536, 685.397 517.536, 685.397 527.536, 685.397 537.536, 685.397 547.536, 685.397 557.536, 685.397 567.536, 685.397 577.536, 685.397 587.536, 685.397 597.536, 685.397 607.536, 685.397 617.536, 685.397 625.882, 685.397 627.677, 685.397 629.334, 685.397 631.191, 685.397 632.906, 685.397 634.820, 685.397 636.588, 685.397 638.555, 685.397 640.370, 685.397 642.386, 685.397 644.244, 685.397 646.304, 685.397 648.201, 685.397 650.299, 685.397 652.229, 685.397 654.362, 685.397 656.533, 685.397 658.483, 685.397 660.678, 685.397 662.651, 685.397 664.865, 685.397 666.857, 685.397 669.084, 685.397 671.090, 685.397 673.326, 685.397 675.339, 685.397 677.579, 685.397 679.594, 685.397 681.833, 685.397 683.845, 685.397 686.079, 685.397 688.081, 685.397 690.304, 685.397 692.292, 685.397 694.500, 685.397 696.468, 685.397 698.655, 685.397 700.808, 685.397 702.760, 685.397 704.882, 685.397 706.804, 685.397 708.890, 685.397 710.778, 685.397 712.823, 685.397 714.671, 685.397 716.670, 685.397 718.474, 685.397 720.424, 685.397 722.178, 685.397 724.073, 685.397 725.773, 685.397 727.610, 685.397 729.251, 685.397 731.025, 685.397 732.602, 685.397 739.590, 685.397 749.590, 685.397 759.590, 685.397 769.590, 685.397 779.590, 685.397 789.590, 685.397 799.590, 685.397 809.590, 685.397 819.590, 685.397 829.590, 685.397 839.590, 685.397 849.590, 685.397 859.590, 685.397 869.590, 685.397 879.590, 685.397 889.590, 685.397 899.590, 685.397 909.590, 685.397 919.590, 685.397 929.590, 685.397 939.590, 685.397 949.590, 685.397 959.590, 685.397 969.590, 685.397 979.590, 685.397 989.590, 685.397 1001.690, 685.397 1004.375, 685.397 1014.375, 685.397 1024.375, 685.397 1034.375, 685.397 1044.375, 685.397 1054.375, 685.397 1064.375, 685.397 1074.375, 685.397 1084.375, 685.397 1094.375, 685.397 1104.375, 685.397 1114.375, 685.397 1124.375, 685.397 1134.375, 685.397 1144.375, 685.397 1154.375, 685.397 1164.375, 685.397 1174.375, 685.397 1184.375, 685.397 1194.375, 685.397 1204.375, 685.397 1214.375, 685.397 1224.375, 685.397 1234.375, 685.397 1244.375, 685.397 1254.375, 685.397 1264.375, 685.397 1274.375, 685.397 1284.375, 685.397 1294.375, 685.397 1304.375, 685.397 1314.375, 685.397 1324.375, 685.397 1334.375, 685.397 1344.375, 685.397 1354.375, 685.397 1364.375, 685.397 1374.375, 685.397 1384.375, 685.397 1394.375, 685.397 1404.375, 685.397 1414.375, 685.397 1424.375, 685.397 1434.375, 685.397 1444.375, 685.397 1454.375, 685.397 1462.782, 685.397 " />
            <path fill="none" stroke-width="3.0" stroke-linecap="butt" stroke-opacity="1.0" stroke="rgb(0, 0, 0)" stroke-linejoin="round" d=" M 727.408, 424.398 724.872, 426.933 722.214, 429.340 719.440, 431.613 716.556, 433.744 713.570, 435.730 710.490, 437.566 707.322, 439.246 704.075, 440.768 700.756, 442.126 697.374, 443.319 693.937, 444.342 690.454, 445.193 686.932, 445.872 683.382, 446.374 679.811, 446.699 676.228, 446.847 672.642, 446.818 669.062, 446.610 665.497, 446.226 661.955, 445.665 658.445, 444.929 654.976, 444.020 651.557, 442.940 648.195, 441.692 644.899, 440.278 641.678, 438.704 638.538, 436.971 635.488, 435.085 632.536, 433.049 629.688, 430.870 626.952, 428.553 624.333, 426.102 621.840, 423.525 619.477, 420.827 617.252, 418.016 615.168, 415.097 613.231, 412.079 611.447, 408.968 609.819, 405.774 608.351, 402.502 607.048, 399.161 605.911, 395.760 604.945, 392.306 604.151, 388.809 603.532, 385.277 603.088, 381.719 602.822, 378.143 602.733, 374.558 602.820, 371.010 603.081, 367.471 603.516, 363.950 604.122, 360.453 604.900, 356.991 605.846, 353.571 606.959, 350.201 608.236, 346.890 609.674, 343.646 611.270, 340.476 613.019, 337.388 614.918, 334.391 616.961, 331.489 619.144, 328.692 621.462, 326.005 623.909, 323.434 626.479, 320.987 629.166, 318.670 631.964, 316.486 634.865, 314.443 637.863, 312.545 640.951, 310.796 644.120, 309.200 647.365, 307.762 650.675, 306.485 654.045, 305.372 657.465, 304.425 660.927, 303.648 664.424, 303.041 667.946, 302.607 671.485, 302.346 675.032, 302.258 678.617, 302.347 682.193, 302.614 685.752, 303.058 689.284, 303.677 692.781, 304.471 696.234, 305.437 699.635, 306.573 702.976, 307.877 706.248, 309.345 709.443, 310.972 712.554, 312.757 715.572, 314.693 718.490, 316.777 721.302, 319.003 723.999, 321.365 726.577, 323.859 729.027, 326.477 731.345, 329.213 733.524, 332.061 735.559, 335.014 737.445, 338.064 739.178, 341.203 740.753, 344.425 742.166, 347.720 743.414, 351.082 744.494, 354.502 745.403, 357.971 746.139, 361.480 746.700, 365.022 747.085, 368.588 747.292, 372.167 747.322, 375.753 747.174, 379.336 746.848, 382.907 746.346, 386.458 745.668, 389.979 744.816, 393.463 743.793, 396.900 742.601, 400.281 741.242, 403.600 739.721, 406.848 738.040, 410.015 736.205, 413.096 734.218, 416.082 732.087, 418.965 729.815, 421.739 727.408, 424.398 " />
            <path fill="none" stroke-width="3.0" stroke-linecap="butt" stroke-opacity="1.0" stroke="rgb(0, 0, 0)" stroke-linejoin="round" d=" M 1067.947, 23.613 1057.947, 23.613 1047.947, 23.613 1037.947, 23.613 1027.947, 23.613 1017.947, 23.613 1007.947, 23.613 997.947, 23.613 987.947, 23.613 977.947, 23.613 967.947, 23.613 957.947, 23.613 947.947, 23.613 937.947, 23.613 927.947, 23.613 917.947, 23.613 907.947, 23.613 897.947, 23.613 887.947, 23.613 877.947, 23.613 867.947, 23.613 857.947, 23.613 847.947, 23.613 837.947, 23.613 827.606, 23.613 825.748, 23.613 823.861, 23.613 821.952, 23.613 820.027, 23.613 818.091, 23.613 816.152, 23.613 814.216, 23.613 812.290, 23.613 810.379, 23.613 808.491, 23.613 806.632, 23.613 804.808, 23.613 803.044, 23.613 793.044, 23.613 783.044, 23.613 773.044, 23.613 763.044, 23.613 753.044, 23.613 743.044, 23.613 733.044, 23.613 723.044, 23.613 713.044, 23.613 703.044, 23.613 693.044, 23.613 683.044, 23.613 673.044, 23.613 663.044, 23.613 653.044, 23.613 643.044, 23.613 633.044, 23.613 623.044, 23.613 613.044, 23.613 603.044, 23.613 593.044, 23.613 583.044, 23.613 573.044, 23.613 563.044, 23.613 553.044, 23.613 543.044, 23.613 539.708, 23.613 537.814, 23.613 527.814, 23.613 517.814, 23.613 507.814, 23.613 497.814, 23.613 491.132, 23.613 489.423, 23.613 487.680, 23.613 485.909, 23.613 484.117, 23.613 482.310, 23.613 480.494, 23.613 478.675, 23.613 476.860, 23.613 475.053, 23.613 473.262, 23.613 471.492, 23.613 469.747, 23.613 468.034, 23.613 466.357, 23.613 464.721, 23.613 463.131, 23.613 461.590, 23.613 451.590, 23.613 441.590, 23.613 431.590, 23.613 421.590, 23.613 411.590, 23.613 401.590, 23.613 391.590, 23.613 381.590, 23.613 371.590, 23.613 361.590, 23.613 351.590, 23.613 341.590, 23.613 331.590, 23.613 321.590, 23.613 311.590, 23.613 301.590, 23.613 291.590, 23.613 281.590, 23.613 271.590, 23.613 261.590, 23.613 251.590, 23.613 241.590, 23.613 237.940, 23.613 " />
            <path fill="none" stroke-width="3.0" stroke-linecap="butt" stroke-opacity="1.0" stroke="rgb(0, 0, 0)" stroke-linejoin="round" d=" M 85.472, 346.149 83.695, 355.990 81.918, 365.831 80.141, 375.672 78.364, 385.513 76.588, 395.354 74.811, 405.195 73.034, 415.035 71.257, 424.876 69.480, 434.717 67.704, 444.558 65.927, 454.399 64.150, 464.240 62.373, 474.081 60.596, 483.922 58.819, 493.762 57.043, 503.603 55.266, 513.444 53.489, 523.285 51.712, 533.126 49.935, 542.967 48.158, 552.808 46.382, 562.649 44.605, 572.489 42.828, 582.330 41.051, 592.171 39.274, 602.012 37.497, 611.853 35.721, 621.694 33.944, 631.535 32.167, 641.376 30.390, 651.217 28.613, 661.057 26.836, 670.898 25.060, 680.739 24.219, 685.397 " />
            <path fill="none" stroke-width="3.0" stroke-linecap="butt" stroke-opacity="1.0" stroke="rgb(0, 0, 0)" stroke-linejoin="round" d=" M 237.940, 23.613 233.667, 32.654 229.393, 41.695 225.119, 50.735 220.846, 59.776 216.572, 68.817 212.298, 77.858 208.024, 86.898 203.751, 95.939 199.477, 104.980 195.203, 114.021 190.929, 123.061 186.656, 132.102 182.382, 141.143 178.108, 150.184 173.835, 159.224 169.561, 168.265 165.287, 177.306 161.013, 186.347 156.740, 195.387 152.466, 204.428 148.192, 213.469 143.918, 222.510 139.645, 231.550 135.371, 240.591 131.097, 249.632 126.824, 258.673 122.550, 267.714 118.276, 276.754 114.002, 285.795 109.729, 294.836 105.455, 303.876 101.181, 312.917 96.907, 321.958 92.634, 330.999 88.360, 340.040 85.472, 346.149 " />
            <path fill="none" stroke-width="3.0" stroke-linecap="butt" stroke-opacity="1.0" stroke="rgb(0, 0, 0)" stroke-linejoin="round" d=" M 1155.597, 211.145 1151.362, 202.085 1147.128, 193.026 1142.894, 183.967 1138.660, 174.907 1134.426, 165.848 1130.191, 156.789 1125.957, 147.729 1121.723, 138.670 1117.489, 129.611 1113.255, 120.551 1109.021, 111.492 1104.786, 102.433 1100.552, 93.373 1096.318, 84.314 1092.084, 75.255 1087.849, 66.195 1083.615, 57.136 1079.381, 48.077 1075.147, 39.017 1070.913, 29.958 1067.947, 23.613 " />
        </g>
    </g>
<g id="slice-labels"><text x="383.85974999999996" y="354.50500000000005" text-anchor="middle" dominant-baseline="middle" font-family="Arial, sans-serif" font-size="59.01992447069469" font-weight="bold" fill="black" stroke="none" stroke-width="7.082390936483362" paint-order="stroke fill">Slice52 (Front)</text><text x="1103.14125" y="354.50500000000005" text-anchor="middle" dominant-baseline="middle" font-family="Arial, sans-serif" font-size="59.01992447069469" font-weight="bold" fill="black" stroke="none" stroke-width="7.082390936483362" paint-order="stroke fill">Slice52 (Front)</text></g></svg>