<?xml version='1.0' encoding='utf-8'?>
<svg xmlns="http://www.w3.org/2000/svg" xmlns:inkscape="http://www.inkscape.org/namespaces/inkscape" version="1.1" width="271.2991664148867mm" height="318.77072834968567mm" viewBox="-0.15699659911975417 0.006013168556989967 3204.313993198239 3764.998973662886" preserveAspectRatio="none">
    <g id="ViewLayer_LineSet" inkscape:groupmode="lineset" inkscape:label="ViewLayer_LineSet">
        <g inkscape:groupmode="layer" id="strokes" inkscape:label="strokes">
            <path fill="none" stroke-width="3.0" stroke-linecap="butt" stroke-opacity="1.0" stroke="rgb(0, 0, 0)" stroke-linejoin="round" d=" M 1981.456, 3574.367 1978.938, 3576.949 1976.294, 3579.402 1973.530, 3581.721 1970.655, 3583.899 1967.675, 3585.931 1964.597, 3587.812 1961.429, 3589.537 1958.179, 3591.102 1954.855, 3592.503 1951.466, 3593.737 1948.019, 3594.800 1944.523, 3595.690 1940.988, 3596.405 1937.421, 3596.943 1933.832, 3597.301 1930.229, 3597.481 1926.622, 3597.481 1923.020, 3597.301 1919.430, 3596.943 1915.864, 3596.405 1912.328, 3595.690 1908.832, 3594.800 1905.385, 3593.737 1901.996, 3592.503 1898.672, 3591.102 1895.422, 3589.537 1892.255, 3587.812 1889.177, 3585.931 1886.196, 3583.899 1883.321, 3581.721 1880.558, 3579.402 1877.914, 3576.949 1875.395, 3574.367 1873.008, 3571.662 1870.759, 3568.842 1868.654, 3565.914 1866.697, 3562.883 1864.893, 3559.760 1863.247, 3556.549 1861.764, 3553.262 1860.446, 3549.904 1859.297, 3546.485 1858.320, 3543.012 1857.518, 3539.496 1856.891, 3535.944 1856.443, 3532.365 1856.173, 3528.767 1856.083, 3525.161 1856.173, 3521.555 1856.443, 3517.958 1856.891, 3514.379 1857.518, 3510.827 1858.320, 3507.310 1859.297, 3503.838 1860.446, 3500.419 1861.764, 3497.061 1863.247, 3493.773 1864.893, 3490.563 1866.697, 3487.439 1868.654, 3484.410 1870.759, 3481.481 1873.008, 3478.661 1875.395, 3475.956 1877.914, 3473.374 1880.558, 3470.920 1883.321, 3468.602 1886.196, 3466.424 1889.177, 3464.392 1892.255, 3462.511 1895.422, 3460.786 1898.672, 3459.221 1901.996, 3457.820 1905.385, 3456.586 1908.832, 3455.523 1912.328, 3454.633 1915.864, 3453.918 1919.430, 3453.381 1923.020, 3453.021 1926.622, 3452.842 1930.229, 3452.842 1933.832, 3453.021 1937.421, 3453.381 1940.988, 3453.918 1944.523, 3454.633 1948.019, 3455.523 1951.466, 3456.586 1954.855, 3457.820 1958.179, 3459.221 1961.429, 3460.786 1964.597, 3462.511 1967.675, 3464.392 1970.655, 3466.424 1973.530, 3468.602 1976.294, 3470.920 1978.938, 3473.374 1981.456, 3475.956 1983.843, 3478.661 1986.092, 3481.481 1988.198, 3484.410 1990.155, 3487.439 1991.958, 3490.563 1993.604, 3493.773 1995.087, 3497.061 1996.405, 3500.419 1997.554, 3503.838 1998.531, 3507.310 1999.334, 3510.827 1999.960, 3514.379 2000.409, 3517.958 2000.678, 3521.555 2000.768, 3525.161 2000.678, 3528.767 2000.409, 3532.365 1999.960, 3535.944 1999.334, 3539.496 1998.531, 3543.012 1997.554, 3546.485 1996.405, 3549.904 1995.087, 3553.262 1993.604, 3556.549 1991.958, 3559.760 1990.155, 3562.883 1988.198, 3565.914 1986.092, 3568.842 1983.843, 3571.662 1981.456, 3574.367 " />
            <path fill="none" stroke-width="3.0" stroke-linecap="butt" stroke-opacity="1.0" stroke="rgb(0, 0, 0)" stroke-linejoin="round" d=" M 1259.508, 3574.367 1256.989, 3576.949 1254.345, 3579.402 1251.582, 3581.721 1248.707, 3583.899 1245.726, 3585.931 1242.649, 3587.812 1239.481, 3589.537 1236.231, 3591.102 1232.907, 3592.503 1229.517, 3593.737 1226.071, 3594.800 1222.575, 3595.690 1219.039, 3596.405 1215.473, 3596.943 1211.883, 3597.301 1208.281, 3597.481 1204.674, 3597.481 1201.071, 3597.301 1197.482, 3596.943 1193.915, 3596.405 1190.380, 3595.690 1186.884, 3594.800 1183.437, 3593.737 1180.048, 3592.503 1176.724, 3591.102 1173.474, 3589.537 1170.306, 3587.812 1167.228, 3585.931 1164.248, 3583.899 1161.373, 3581.721 1158.609, 3579.402 1155.965, 3576.949 1153.447, 3574.367 1151.060, 3571.662 1148.811, 3568.842 1146.705, 3565.914 1144.748, 3562.883 1142.945, 3559.760 1141.299, 3556.549 1139.816, 3553.262 1138.498, 3549.904 1137.349, 3546.485 1136.372, 3543.012 1135.569, 3539.496 1134.943, 3535.944 1134.494, 3532.365 1134.225, 3528.767 1134.135, 3525.161 1134.225, 3521.555 1134.494, 3517.958 1134.943, 3514.379 1135.569, 3510.827 1136.372, 3507.310 1137.349, 3503.838 1138.498, 3500.419 1139.816, 3497.061 1141.299, 3493.773 1142.945, 3490.563 1144.748, 3487.439 1146.705, 3484.410 1148.811, 3481.481 1151.060, 3478.661 1153.447, 3475.956 1155.965, 3473.374 1158.609, 3470.920 1161.373, 3468.602 1164.248, 3466.424 1167.228, 3464.392 1170.306, 3462.511 1173.474, 3460.786 1176.724, 3459.221 1180.048, 3457.820 1183.437, 3456.586 1186.884, 3455.523 1190.380, 3454.633 1193.915, 3453.918 1197.482, 3453.381 1201.071, 3453.021 1204.674, 3452.842 1208.281, 3452.842 1211.883, 3453.021 1215.473, 3453.381 1219.039, 3453.918 1222.575, 3454.633 1226.071, 3455.523 1229.517, 3456.586 1232.907, 3457.820 1236.231, 3459.221 1239.481, 3460.786 1242.649, 3462.511 1245.726, 3464.392 1248.707, 3466.424 1251.582, 3468.602 1254.345, 3470.920 1256.989, 3473.374 1259.508, 3475.956 1261.895, 3478.661 1264.144, 3481.481 1266.249, 3484.410 1268.206, 3487.439 1270.010, 3490.563 1271.656, 3493.773 1273.139, 3497.061 1274.457, 3500.419 1275.606, 3503.838 1276.583, 3507.310 1277.385, 3510.827 1278.012, 3514.379 1278.460, 3517.958 1278.730, 3521.555 1278.820, 3525.161 1278.730, 3528.767 1278.460, 3532.365 1278.012, 3535.944 1277.385, 3539.496 1276.583, 3543.012 1275.606, 3546.485 1274.457, 3549.904 1273.139, 3553.262 1271.656, 3556.549 1270.010, 3559.760 1268.206, 3562.883 1266.249, 3565.914 1264.144, 3568.842 1261.895, 3571.662 1259.508, 3574.367 " />
            <path fill="none" stroke-width="3.0" stroke-linecap="butt" stroke-opacity="1.0" stroke="rgb(0, 0, 0)" stroke-linejoin="round" d=" M 1471.767, 1794.353 1469.248, 1796.935 1466.604, 1799.388 1463.841, 1801.706 1460.965, 1803.885 1457.985, 1805.916 1454.907, 1807.797 1451.740, 1809.522 1448.490, 1811.087 1445.166, 1812.488 1441.776, 1813.722 1438.329, 1814.785 1434.834, 1815.676 1431.298, 1816.390 1427.731, 1816.927 1424.142, 1817.287 1420.540, 1817.467 1416.932, 1817.467 1413.330, 1817.287 1409.741, 1816.927 1406.174, 1816.390 1402.638, 1815.676 1399.143, 1814.785 1395.696, 1813.722 1392.307, 1812.488 1388.983, 1811.087 1385.733, 1809.522 1382.565, 1807.797 1379.487, 1805.916 1376.507, 1803.885 1373.631, 1801.706 1370.868, 1799.388 1368.224, 1796.935 1365.705, 1794.353 1363.318, 1791.648 1361.070, 1788.828 1358.964, 1785.898 1357.007, 1782.869 1355.203, 1779.745 1353.558, 1776.535 1352.074, 1773.247 1350.756, 1769.889 1349.608, 1766.470 1348.631, 1762.998 1347.828, 1759.481 1347.202, 1755.929 1346.753, 1752.350 1346.484, 1748.753 1346.394, 1745.147 1346.484, 1741.541 1346.753, 1737.944 1347.202, 1734.365 1347.828, 1730.813 1348.631, 1727.296 1349.608, 1723.824 1350.756, 1720.405 1352.074, 1717.047 1353.558, 1713.759 1355.203, 1710.549 1357.007, 1707.425 1358.964, 1704.396 1361.070, 1701.466 1363.318, 1698.646 1365.705, 1695.941 1368.224, 1693.359 1370.868, 1690.906 1373.631, 1688.588 1376.507, 1686.409 1379.487, 1684.377 1382.565, 1682.497 1385.733, 1680.771 1388.983, 1679.207 1392.307, 1677.806 1395.696, 1676.572 1399.143, 1675.509 1402.638, 1674.618 1406.174, 1673.904 1409.741, 1673.366 1413.330, 1673.007 1416.932, 1672.827 1420.540, 1672.827 1424.142, 1673.007 1427.731, 1673.366 1431.298, 1673.904 1434.834, 1674.618 1438.329, 1675.509 1441.776, 1676.572 1445.166, 1677.806 1448.490, 1679.207 1451.740, 1680.771 1454.907, 1682.497 1457.985, 1684.377 1460.965, 1686.409 1463.841, 1688.588 1466.604, 1690.906 1469.248, 1693.359 1471.767, 1695.941 1474.153, 1698.646 1476.402, 1701.466 1478.508, 1704.396 1480.465, 1707.425 1482.269, 1710.549 1483.914, 1713.759 1485.398, 1717.047 1486.716, 1720.405 1487.864, 1723.824 1488.841, 1727.296 1489.644, 1730.813 1490.270, 1734.365 1490.719, 1737.944 1490.989, 1741.541 1491.078, 1745.147 1490.989, 1748.753 1490.719, 1752.350 1490.270, 1755.929 1489.644, 1759.481 1488.841, 1762.998 1487.864, 1766.470 1486.716, 1769.889 1485.398, 1773.247 1483.914, 1776.535 1482.269, 1779.745 1480.465, 1782.869 1478.508, 1785.898 1476.402, 1788.828 1474.153, 1791.648 1471.767, 1794.353 " />
            <path fill="none" stroke-width="3.0" stroke-linecap="butt" stroke-opacity="1.0" stroke="rgb(0, 0, 0)" stroke-linejoin="round" d=" M 713.961, 1564.458 711.238, 1574.081 708.516, 1583.703 705.794, 1593.325 703.071, 1602.948 700.349, 1612.570 697.626, 1622.192 694.904, 1631.814 692.181, 1641.437 689.459, 1651.059 686.737, 1660.681 684.014, 1670.303 681.292, 1679.926 678.569, 1689.548 675.847, 1699.170 673.125, 1708.793 670.402, 1718.415 667.680, 1728.037 664.957, 1737.660 662.235, 1747.282 659.512, 1756.904 656.790, 1766.526 654.068, 1776.149 651.345, 1785.771 648.623, 1795.393 645.900, 1805.016 643.178, 1814.638 640.456, 1824.260 637.733, 1833.882 635.011, 1843.505 632.288, 1853.127 629.566, 1862.749 626.844, 1872.372 624.121, 1881.994 621.399, 1891.616 618.676, 1901.238 615.954, 1910.861 613.231, 1920.483 610.509, 1930.105 607.787, 1939.728 605.064, 1949.350 602.342, 1958.972 599.619, 1968.594 596.897, 1978.217 594.174, 1987.839 591.452, 1997.461 588.730, 2007.084 586.007, 2016.706 583.285, 2026.328 580.562, 2035.951 577.840, 2045.573 575.118, 2055.195 572.395, 2064.817 569.673, 2074.440 566.950, 2084.062 564.228, 2093.684 561.506, 2103.307 558.783, 2112.929 556.061, 2122.551 553.338, 2132.173 550.616, 2141.796 547.893, 2151.418 545.171, 2161.040 542.449, 2170.663 539.726, 2180.285 537.004, 2189.907 534.281, 2199.529 531.559, 2209.152 528.837, 2218.774 526.114, 2228.396 523.392, 2238.019 520.669, 2247.641 517.947, 2257.263 515.224, 2266.885 512.502, 2276.508 509.780, 2286.130 507.057, 2295.752 504.335, 2305.375 501.612, 2314.997 498.890, 2324.619 496.168, 2334.241 493.445, 2343.864 490.723, 2353.486 488.000, 2363.108 485.278, 2372.731 482.556, 2382.353 479.833, 2391.975 477.111, 2401.598 474.388, 2411.220 471.666, 2420.842 468.943, 2430.464 466.221, 2440.087 463.499, 2449.709 460.776, 2459.331 458.054, 2468.953 455.331, 2478.576 452.609, 2488.198 449.887, 2497.820 445.482, 2513.389 444.549, 2523.346 443.617, 2533.302 442.685, 2543.259 441.752, 2553.215 440.820, 2563.172 439.888, 2573.128 438.955, 2583.084 438.023, 2593.041 437.091, 2602.997 436.158, 2612.954 435.226, 2622.910 434.294, 2632.867 433.361, 2642.823 432.429, 2652.780 431.497, 2662.736 430.564, 2672.692 429.632, 2682.649 428.700, 2692.605 427.767, 2702.562 426.835, 2712.518 425.903, 2722.475 424.913, 2733.046 421.214, 2742.336 417.515, 2751.627 413.816, 2760.918 410.117, 2770.209 406.418, 2779.499 402.719, 2788.790 399.020, 2798.081 395.321, 2807.372 391.622, 2816.662 387.924, 2825.953 384.225, 2835.244 380.526, 2844.535 376.827, 2853.825 373.128, 2863.116 369.429, 2872.407 365.730, 2881.698 362.031, 2890.988 358.332, 2900.279 354.633, 2909.570 350.935, 2918.861 347.236, 2928.151 343.537, 2937.442 339.838, 2946.733 336.139, 2956.024 332.440, 2965.314 328.741, 2974.605 325.042, 2983.896 321.343, 2993.187 317.644, 3002.477 313.945, 3011.768 310.247, 3021.059 306.548, 3030.350 302.849, 3039.640 299.150, 3048.931 295.451, 3058.222 291.752, 3067.513 288.053, 3076.803 284.354, 3086.094 280.655, 3095.385 276.956, 3104.676 273.258, 3113.966 269.559, 3123.257 265.860, 3132.548 262.161, 3141.839 258.462, 3151.129 254.763, 3160.420 251.064, 3169.711 247.365, 3179.002 243.666, 3188.292 239.967, 3197.583 236.268, 3206.874 232.570, 3216.165 228.871, 3225.455 225.172, 3234.746 221.473, 3244.037 217.774, 3253.328 214.075, 3262.618 210.376, 3271.909 206.677, 3281.200 202.978, 3290.491 199.279, 3299.781 195.580, 3309.072 191.882, 3318.363 188.183, 3327.654 184.484, 3336.944 180.785, 3346.235 177.086, 3355.526 173.387, 3364.817 169.688, 3374.107 165.989, 3383.398 162.290, 3392.689 158.591, 3401.980 154.893, 3411.270 151.194, 3420.561 147.495, 3429.852 143.796, 3439.143 140.097, 3448.433 136.398, 3457.724 132.699, 3467.015 129.000, 3476.306 125.301, 3485.597 121.602, 3494.887 117.903, 3504.178 114.205, 3513.469 110.506, 3522.760 106.807, 3532.050 103.108, 3541.341 99.409, 3550.632 95.710, 3559.923 92.011, 3569.213 88.312, 3578.504 84.613, 3587.795 80.914, 3597.086 77.215, 3606.376 73.517, 3615.667 69.818, 3624.958 66.119, 3634.249 62.420, 3643.539 58.721, 3652.830 55.022, 3662.121 51.323, 3671.412 47.624, 3680.702 43.925, 3689.993 40.226, 3699.284 36.528, 3708.575 32.829, 3717.865 29.130, 3727.156 23.465, 3741.383 " />
            <path fill="none" stroke-width="3.0" stroke-linecap="butt" stroke-opacity="1.0" stroke="rgb(0, 0, 0)" stroke-linejoin="round" d=" M 3022.700, 3180.362 3019.229, 3170.984 3015.759, 3161.605 3012.288, 3152.227 3008.817, 3142.849 3005.346, 3133.470 3001.875, 3124.092 2998.404, 3114.714 2994.933, 3105.335 2991.463, 3095.957 2987.992, 3086.579 2984.521, 3077.200 2981.050, 3067.822 2977.579, 3058.444 2974.108, 3049.065 2970.637, 3039.687 2967.167, 3030.309 2963.696, 3020.930 2960.225, 3011.552 2956.754, 3002.174 2953.283, 2992.795 2949.812, 2983.417 2946.342, 2974.039 2942.871, 2964.660 2939.400, 2955.282 2935.929, 2945.904 2932.458, 2936.525 2928.987, 2927.147 2925.517, 2917.768 2922.046, 2908.390 2918.575, 2899.012 2915.104, 2889.633 2911.633, 2880.255 2908.162, 2870.877 2904.691, 2861.498 2901.221, 2852.120 2897.750, 2842.742 2894.279, 2833.363 2890.808, 2823.985 2887.337, 2814.607 2883.866, 2805.228 2880.396, 2795.850 2876.925, 2786.472 2873.454, 2777.093 2869.983, 2767.715 2866.512, 2758.337 2863.041, 2748.958 2859.571, 2739.580 2856.100, 2730.202 2852.629, 2720.823 2849.158, 2711.445 2845.687, 2702.067 2842.216, 2692.688 2838.745, 2683.310 2835.275, 2673.932 2831.804, 2664.553 2828.333, 2655.175 2824.862, 2645.797 2821.391, 2636.418 2817.920, 2627.040 2814.449, 2617.662 2810.979, 2608.283 2807.508, 2598.905 2804.037, 2589.527 2800.566, 2580.148 2797.095, 2570.770 2793.625, 2561.392 2790.154, 2552.013 2786.683, 2542.635 2783.212, 2533.257 2779.741, 2523.878 2776.270, 2514.500 2772.799, 2505.122 2769.329, 2495.743 2765.858, 2486.365 2762.387, 2476.987 2758.916, 2467.608 2755.445, 2458.230 2751.974, 2448.852 2748.503, 2439.473 2745.033, 2430.095 2741.562, 2420.717 2738.091, 2411.338 2734.620, 2401.960 2731.149, 2392.582 2727.678, 2383.203 2724.208, 2373.825 2720.737, 2364.447 2717.266, 2355.068 2713.795, 2345.690 2710.324, 2336.312 2706.854, 2326.933 2703.383, 2317.555 2699.912, 2308.177 2694.917, 2294.679 2689.864, 2286.050 2684.811, 2277.420 2679.758, 2268.791 2674.705, 2260.161 2669.652, 2251.532 2664.599, 2242.902 2659.546, 2234.273 2654.493, 2225.643 2649.441, 2217.014 2644.388, 2208.384 2639.335, 2199.755 2634.282, 2191.125 2629.229, 2182.496 2624.176, 2173.866 2619.123, 2165.237 2614.070, 2156.607 2609.018, 2147.978 2603.965, 2139.348 2598.912, 2130.719 2593.859, 2122.089 2588.806, 2113.460 2583.753, 2104.830 2578.700, 2096.201 2573.647, 2087.571 2569.176, 2079.934 2564.136, 2071.297 2559.097, 2062.659 2554.058, 2054.021 2549.019, 2045.384 2543.980, 2036.746 2538.941, 2028.109 2535.936, 2022.957 2530.927, 2014.302 2525.918, 2005.647 2520.909, 1996.992 2515.901, 1988.337 2510.892, 1979.681 2505.883, 1971.026 2500.875, 1962.371 2495.866, 1953.716 2490.857, 1945.061 2485.848, 1936.405 2480.839, 1927.750 2475.831, 1919.095 2470.822, 1910.440 2465.813, 1901.785 2460.804, 1893.130 2455.796, 1884.474 2450.787, 1875.819 2445.778, 1867.164 2440.769, 1858.509 2435.760, 1849.854 2430.752, 1841.198 2424.630, 1830.620 " />
            <path fill="none" stroke-width="3.0" stroke-linecap="butt" stroke-opacity="1.0" stroke="rgb(0, 0, 0)" stroke-linejoin="round" d=" M 3180.535, 3741.383 3177.827, 3731.757 3175.118, 3722.131 3172.410, 3712.505 3169.702, 3702.878 3166.994, 3693.252 3164.286, 3683.626 3161.577, 3673.999 3158.869, 3664.373 3156.161, 3654.747 3153.453, 3645.120 3150.744, 3635.494 3148.036, 3625.868 3145.328, 3616.242 3142.620, 3606.615 3139.912, 3596.989 3137.203, 3587.363 3134.495, 3577.736 3131.787, 3568.110 3129.079, 3558.484 3126.371, 3548.857 3123.662, 3539.231 3120.954, 3529.605 3118.246, 3519.979 3115.538, 3510.352 3112.830, 3500.726 3110.121, 3491.100 3107.413, 3481.473 3104.705, 3471.847 3101.997, 3462.221 3099.289, 3452.595 3096.580, 3442.968 3093.872, 3433.342 3091.164, 3423.716 3088.456, 3414.089 3085.748, 3404.463 3083.039, 3394.837 3080.331, 3385.210 3077.623, 3375.584 3074.915, 3365.958 3072.207, 3356.332 3069.498, 3346.705 3066.790, 3337.079 3064.082, 3327.453 3061.374, 3317.826 3058.665, 3308.200 3055.957, 3298.574 3053.249, 3288.947 3050.541, 3279.321 3047.833, 3269.695 3045.124, 3260.069 3042.416, 3250.442 3039.708, 3240.816 3037.000, 3231.190 3034.292, 3221.563 3031.583, 3211.937 3028.875, 3202.311 3026.167, 3192.685 3022.700, 3180.362 " />
            <path fill="none" stroke-width="3.0" stroke-linecap="butt" stroke-opacity="1.0" stroke="rgb(0, 0, 0)" stroke-linejoin="round" d=" M 23.465, 3741.383 33.465, 3741.383 43.465, 3741.383 53.465, 3741.383 63.465, 3741.383 73.465, 3741.383 83.465, 3741.383 93.465, 3741.383 103.465, 3741.383 113.465, 3741.383 123.465, 3741.383 133.465, 3741.383 143.465, 3741.383 153.465, 3741.383 163.465, 3741.383 173.465, 3741.383 183.465, 3741.383 193.465, 3741.383 203.465, 3741.383 213.465, 3741.383 223.465, 3741.383 233.465, 3741.383 243.465, 3741.383 253.465, 3741.383 263.465, 3741.383 273.465, 3741.383 283.465, 3741.383 293.465, 3741.383 303.465, 3741.383 313.465, 3741.383 323.465, 3741.383 333.465, 3741.383 343.465, 3741.383 353.465, 3741.383 363.465, 3741.383 373.465, 3741.383 383.465, 3741.383 393.465, 3741.383 403.465, 3741.383 413.465, 3741.383 423.465, 3741.383 433.465, 3741.383 443.465, 3741.383 453.465, 3741.383 463.465, 3741.383 473.465, 3741.383 483.465, 3741.383 493.465, 3741.383 503.465, 3741.383 513.465, 3741.383 523.465, 3741.383 533.465, 3741.383 543.465, 3741.383 553.465, 3741.383 563.465, 3741.383 573.465, 3741.383 583.465, 3741.383 593.465, 3741.383 603.465, 3741.383 613.465, 3741.383 623.465, 3741.383 633.465, 3741.383 643.465, 3741.383 653.465, 3741.383 666.600, 3741.383 673.730, 3741.383 681.145, 3741.383 688.832, 3741.383 696.780, 3741.383 704.974, 3741.383 713.395, 3741.383 722.028, 3741.383 730.850, 3741.383 739.841, 3741.383 748.977, 3741.383 758.232, 3741.383 767.581, 3741.383 776.994, 3741.383 786.441, 3741.383 795.889, 3741.383 805.308, 3741.383 814.662, 3741.383 823.915, 3741.383 833.033, 3741.383 841.979, 3741.383 851.979, 3741.383 861.979, 3741.383 871.979, 3741.383 881.979, 3741.383 891.979, 3741.383 902.389, 3741.383 910.590, 3741.383 918.594, 3741.383 926.369, 3741.383 936.369, 3741.383 946.369, 3741.383 956.369, 3741.383 966.369, 3741.383 976.369, 3741.383 986.369, 3741.383 996.369, 3741.383 1006.369, 3741.383 1016.369, 3741.383 1026.369, 3741.383 1036.369, 3741.383 1046.369, 3741.383 1056.369, 3741.383 1066.369, 3741.383 1076.369, 3741.383 1086.369, 3741.383 1096.369, 3741.383 1106.369, 3741.383 1116.369, 3741.383 1126.369, 3741.383 1136.369, 3741.383 1146.369, 3741.383 1156.369, 3741.383 1166.369, 3741.383 1176.369, 3741.383 1186.369, 3741.383 1196.281, 3741.383 1200.281, 3741.383 1204.447, 3741.383 1208.768, 3741.383 1213.232, 3741.383 1217.824, 3741.383 1222.532, 3741.383 1227.342, 3741.383 1232.238, 3741.383 1237.207, 3741.383 1242.232, 3741.383 1247.299, 3741.383 1252.392, 3741.383 1257.496, 3741.383 1262.595, 3741.383 1267.674, 3741.383 1272.717, 3741.383 1277.710, 3741.383 1287.710, 3741.383 1297.710, 3741.383 1307.710, 3741.383 1317.710, 3741.383 1327.710, 3741.383 1337.710, 3741.383 1347.710, 3741.383 1357.710, 3741.383 1367.710, 3741.383 1377.710, 3741.383 1387.710, 3741.383 1397.710, 3741.383 1407.710, 3741.383 1417.710, 3741.383 1427.710, 3741.383 1437.710, 3741.383 1447.710, 3741.383 1457.710, 3741.383 1467.710, 3741.383 1477.710, 3741.383 1487.710, 3741.383 1497.710, 3741.383 1507.710, 3741.383 1517.710, 3741.383 1527.710, 3741.383 1537.710, 3741.383 1547.710, 3741.383 1557.710, 3741.383 1567.710, 3741.383 1577.710, 3741.383 1587.710, 3741.383 1597.710, 3741.383 1607.710, 3741.383 1617.710, 3741.383 1627.710, 3741.383 1637.710, 3741.383 1647.710, 3741.383 1657.710, 3741.383 1667.710, 3741.383 1677.710, 3741.383 1687.710, 3741.383 1697.710, 3741.383 1707.710, 3741.383 1717.710, 3741.383 1727.710, 3741.383 1737.710, 3741.383 1747.710, 3741.383 1757.710, 3741.383 1767.710, 3741.383 1777.710, 3741.383 1787.710, 3741.383 1797.710, 3741.383 1807.710, 3741.383 1817.710, 3741.383 1827.710, 3741.383 1837.710, 3741.383 1847.710, 3741.383 1859.393, 3741.383 1864.350, 3741.383 1869.361, 3741.383 1874.413, 3741.383 1879.489, 3741.383 1884.574, 3741.383 1889.653, 3741.383 1894.711, 3741.383 1899.732, 3741.383 1904.700, 3741.383 1909.601, 3741.383 1914.420, 3741.383 1919.142, 3741.383 1923.753, 3741.383 1928.240, 3741.383 1932.588, 3741.383 1936.786, 3741.383 1940.821, 3741.383 1950.821, 3741.383 1960.821, 3741.383 1970.821, 3741.383 1980.821, 3741.383 1990.821, 3741.383 2000.821, 3741.383 2010.821, 3741.383 2020.821, 3741.383 2030.821, 3741.383 2040.821, 3741.383 2050.821, 3741.383 2060.821, 3741.383 2070.821, 3741.383 2080.821, 3741.383 2090.821, 3741.383 2100.821, 3741.383 2110.821, 3741.383 2120.821, 3741.383 2123.580, 3741.383 2130.549, 3741.383 2140.549, 3741.383 2150.549, 3741.383 2160.549, 3741.383 2170.549, 3741.383 2180.549, 3741.383 2190.549, 3741.383 2200.549, 3741.383 2210.549, 3741.383 2220.549, 3741.383 2230.549, 3741.383 2240.549, 3741.383 2250.549, 3741.383 2260.549, 3741.383 2270.549, 3741.383 2280.549, 3741.383 2287.671, 3741.383 2296.416, 3741.383 2305.426, 3741.383 2314.664, 3741.383 2324.664, 3741.383 2334.664, 3741.383 2344.664, 3741.383 2354.664, 3741.383 2364.664, 3741.383 2374.664, 3741.383 2384.664, 3741.383 2394.664, 3741.383 2404.664, 3741.383 2414.664, 3741.383 2424.664, 3741.383 2434.664, 3741.383 2444.664, 3741.383 2454.664, 3741.383 2464.664, 3741.383 2474.664, 3741.383 2484.664, 3741.383 2494.664, 3741.383 2504.664, 3741.383 2514.664, 3741.383 2524.664, 3741.383 2534.664, 3741.383 2544.664, 3741.383 2554.664, 3741.383 2564.664, 3741.383 2574.664, 3741.383 2584.664, 3741.383 2594.664, 3741.383 2604.664, 3741.383 2614.664, 3741.383 2624.664, 3741.383 2634.664, 3741.383 2644.664, 3741.383 2654.664, 3741.383 2664.664, 3741.383 2674.664, 3741.383 2684.664, 3741.383 2694.664, 3741.383 2704.664, 3741.383 2714.664, 3741.383 2724.664, 3741.383 2734.664, 3741.383 2744.664, 3741.383 2754.664, 3741.383 2764.664, 3741.383 2774.664, 3741.383 2784.664, 3741.383 2794.664, 3741.383 2804.664, 3741.383 2814.664, 3741.383 2824.664, 3741.383 2834.664, 3741.383 2844.664, 3741.383 2854.664, 3741.383 2864.664, 3741.383 2874.664, 3741.383 2884.664, 3741.383 2894.664, 3741.383 2904.399, 3741.383 2910.815, 3741.383 2917.282, 3741.383 2923.761, 3741.383 2930.214, 3741.383 2936.607, 3741.383 2942.912, 3741.383 2949.104, 3741.383 2955.159, 3741.383 2961.059, 3741.383 2966.790, 3741.383 2972.339, 3741.383 2977.696, 3741.383 2982.855, 3741.383 2987.811, 3741.383 2992.560, 3741.383 2997.101, 3741.383 3007.101, 3741.383 3017.101, 3741.383 3027.101, 3741.383 3037.101, 3741.383 3047.101, 3741.383 3057.101, 3741.383 3067.101, 3741.383 3077.101, 3741.383 3087.101, 3741.383 3097.101, 3741.383 3107.101, 3741.383 3117.101, 3741.383 3127.101, 3741.383 3137.101, 3741.383 3147.101, 3741.383 3157.101, 3741.383 3167.101, 3741.383 3177.101, 3741.383 3180.535, 3741.383 " />
            <path fill="none" stroke-width="3.0" stroke-linecap="butt" stroke-opacity="1.0" stroke="rgb(0, 0, 0)" stroke-linejoin="round" d=" M 2167.300, 2761.700 2165.753, 2763.852 2164.101, 2765.924 2162.347, 2767.911 2160.497, 2769.808 2158.554, 2771.610 2156.524, 2773.313 " />
            <path fill="none" stroke-width="3.0" stroke-linecap="butt" stroke-opacity="1.0" stroke="rgb(0, 0, 0)" stroke-linejoin="round" d=" M 2156.524, 2773.313 2154.411, 2774.914 2152.222, 2776.406 2149.960, 2777.788 2147.633, 2779.056 2145.246, 2780.206 2142.803, 2781.235 2140.313, 2782.141 2137.781, 2782.923 2135.212, 2783.577 " />
            <path fill="none" stroke-width="3.0" stroke-linecap="butt" stroke-opacity="1.0" stroke="rgb(0, 0, 0)" stroke-linejoin="round" d=" M 2171.272, 2754.821 2170.062, 2757.178 2168.738, 2759.474 2167.300, 2761.700 " />
            <path fill="none" stroke-width="3.0" stroke-linecap="butt" stroke-opacity="1.0" stroke="rgb(0, 0, 0)" stroke-linejoin="round" d=" M 2174.892, 2718.645 2175.481, 2721.228 2175.941, 2723.839 2176.271, 2726.468 2176.469, 2729.111 2176.535, 2731.760 2176.469, 2734.409 2176.271, 2737.052 2175.941, 2739.681 2175.481, 2742.291 2174.892, 2744.875 " />
            <path fill="none" stroke-width="3.0" stroke-linecap="butt" stroke-opacity="1.0" stroke="rgb(0, 0, 0)" stroke-linejoin="round" d=" M 2129.995, 2784.497 2127.357, 2784.761 2124.711, 2784.892 2122.061, 2784.892 " />
            <path fill="none" stroke-width="3.0" stroke-linecap="butt" stroke-opacity="1.0" stroke="rgb(0, 0, 0)" stroke-linejoin="round" d=" M 2122.061, 2784.892 2119.414, 2784.761 2116.777, 2784.497 2114.156, 2784.102 2111.559, 2783.577 " />
            <path fill="none" stroke-width="3.0" stroke-linecap="butt" stroke-opacity="1.0" stroke="rgb(0, 0, 0)" stroke-linejoin="round" d=" M 2174.174, 2716.094 2174.892, 2718.645 " />
            <path fill="none" stroke-width="3.0" stroke-linecap="butt" stroke-opacity="1.0" stroke="rgb(0, 0, 0)" stroke-linejoin="round" d=" M 2111.559, 2783.577 2108.990, 2782.923 2106.458, 2782.141 2103.968, 2781.235 2101.526, 2780.206 " />
            <path fill="none" stroke-width="3.0" stroke-linecap="butt" stroke-opacity="1.0" stroke="rgb(0, 0, 0)" stroke-linejoin="round" d=" M 2140.313, 2681.378 2142.803, 2682.284 2145.246, 2683.314 2147.633, 2684.464 2149.960, 2685.731 2152.222, 2687.113 2154.411, 2688.606 2156.524, 2690.206 2158.554, 2691.909 2160.497, 2693.712 2162.347, 2695.609 2164.101, 2697.596 2165.753, 2699.668 2167.300, 2701.819 2168.738, 2704.046 2170.062, 2706.341 2171.272, 2708.699 2172.362, 2711.115 2173.330, 2713.582 2174.174, 2716.094 " />
            <path fill="none" stroke-width="3.0" stroke-linecap="butt" stroke-opacity="1.0" stroke="rgb(0, 0, 0)" stroke-linejoin="round" d=" M 2099.138, 2779.056 2096.811, 2777.788 2094.550, 2776.406 2092.360, 2774.914 " />
            <path fill="none" stroke-width="3.0" stroke-linecap="butt" stroke-opacity="1.0" stroke="rgb(0, 0, 0)" stroke-linejoin="round" d=" M 2090.248, 2773.313 2088.217, 2771.610 2086.275, 2769.808 2084.424, 2767.911 2082.671, 2765.924 2081.018, 2763.852 2079.471, 2761.700 " />
            <path fill="none" stroke-width="3.0" stroke-linecap="butt" stroke-opacity="1.0" stroke="rgb(0, 0, 0)" stroke-linejoin="round" d=" M 2079.471, 2761.700 2078.034, 2759.474 2076.708, 2757.178 2075.500, 2754.821 " />
            <path fill="none" stroke-width="3.0" stroke-linecap="butt" stroke-opacity="1.0" stroke="rgb(0, 0, 0)" stroke-linejoin="round" d=" M 2248.669, 2290.708 2246.151, 2293.290 2243.507, 2295.744 2240.744, 2298.062 2237.868, 2300.240 2234.888, 2302.272 2231.810, 2304.153 2228.642, 2305.878 2225.392, 2307.443 2222.068, 2308.844 2218.679, 2310.078 2215.232, 2311.141 2211.737, 2312.031 2208.201, 2312.746 2204.634, 2313.284 2201.045, 2313.643 2197.442, 2313.823 2193.835, 2313.823 2190.233, 2313.643 2186.643, 2313.284 2183.076, 2312.746 2179.541, 2312.031 2176.046, 2311.141 2172.599, 2310.078 2169.209, 2308.844 2165.885, 2307.443 2162.635, 2305.878 2159.468, 2304.153 2156.390, 2302.272 2153.409, 2300.240 2150.534, 2298.062 2147.771, 2295.744 2145.127, 2293.290 2142.608, 2290.708 2140.221, 2288.004 2137.972, 2285.184 2135.867, 2282.255 2133.910, 2279.225 2132.106, 2276.100 2130.461, 2272.891 2128.977, 2269.603 2127.659, 2266.245 2126.510, 2262.826 2125.533, 2259.354 2124.731, 2255.837 2124.104, 2252.284 2123.656, 2248.706 2123.386, 2245.109 2123.296, 2241.503 2123.386, 2237.897 2123.656, 2234.300 2124.104, 2230.720 2124.731, 2227.168 2125.533, 2223.652 2126.510, 2220.179 2127.659, 2216.760 2128.977, 2213.402 2130.461, 2210.115 2132.106, 2206.905 2133.910, 2203.781 2135.867, 2200.751 2137.972, 2197.822 2140.221, 2195.002 2142.608, 2192.297 2145.127, 2189.715 2147.771, 2187.262 2150.534, 2184.943 2153.409, 2182.765 2156.390, 2180.733 2159.468, 2178.852 2162.635, 2177.127 2165.885, 2175.562 2169.209, 2174.161 2172.599, 2172.927 2176.046, 2171.864 2179.541, 2170.974 2183.076, 2170.260 2186.643, 2169.722 2190.233, 2169.363 2193.835, 2169.183 2197.442, 2169.183 2201.045, 2169.363 2204.634, 2169.722 2208.201, 2170.260 2211.737, 2170.974 2215.232, 2171.864 2218.679, 2172.927 2222.068, 2174.161 2225.392, 2175.562 2228.642, 2177.127 2231.810, 2178.852 2234.888, 2180.733 2237.868, 2182.765 2240.744, 2184.943 2243.507, 2187.262 2246.151, 2189.715 2248.669, 2192.297 2251.056, 2195.002 2253.305, 2197.822 2255.411, 2200.751 2257.368, 2203.781 2259.171, 2206.905 2260.817, 2210.115 2262.301, 2213.402 2263.618, 2216.760 2264.767, 2220.179 2265.744, 2223.652 2266.547, 2227.168 2267.173, 2230.720 2267.622, 2234.300 2267.891, 2237.897 2267.981, 2241.503 2267.891, 2245.109 2267.622, 2248.706 2267.173, 2252.284 2266.547, 2255.837 2265.744, 2259.354 2264.767, 2262.826 2263.618, 2266.245 2262.301, 2269.603 2260.817, 2272.891 2259.171, 2276.100 2257.368, 2279.225 2255.411, 2282.255 2253.305, 2285.184 2251.056, 2288.004 2248.669, 2290.708 " />
            <path fill="none" stroke-width="3.0" stroke-linecap="butt" stroke-opacity="1.0" stroke="rgb(0, 0, 0)" stroke-linejoin="round" d=" M 2129.995, 2679.023 2132.615, 2679.418 2135.212, 2679.943 2137.781, 2680.597 2140.313, 2681.378 " />
            <path fill="none" stroke-width="3.0" stroke-linecap="butt" stroke-opacity="1.0" stroke="rgb(0, 0, 0)" stroke-linejoin="round" d=" M 2116.777, 2679.023 2119.414, 2678.759 2122.061, 2678.627 2124.711, 2678.627 2127.357, 2678.759 2129.995, 2679.023 " />
            <path fill="none" stroke-width="3.0" stroke-linecap="butt" stroke-opacity="1.0" stroke="rgb(0, 0, 0)" stroke-linejoin="round" d=" M 2114.156, 2679.418 2116.777, 2679.023 " />
            <path fill="none" stroke-width="3.0" stroke-linecap="butt" stroke-opacity="1.0" stroke="rgb(0, 0, 0)" stroke-linejoin="round" d=" M 2111.559, 2679.943 2114.156, 2679.418 " />
            <path fill="none" stroke-width="3.0" stroke-linecap="butt" stroke-opacity="1.0" stroke="rgb(0, 0, 0)" stroke-linejoin="round" d=" M 2108.990, 2680.597 2111.559, 2679.943 " />
            <path fill="none" stroke-width="3.0" stroke-linecap="butt" stroke-opacity="1.0" stroke="rgb(0, 0, 0)" stroke-linejoin="round" d=" M 2106.458, 2681.378 2108.990, 2680.597 " />
            <path fill="none" stroke-width="3.0" stroke-linecap="butt" stroke-opacity="1.0" stroke="rgb(0, 0, 0)" stroke-linejoin="round" d=" M 2103.968, 2682.284 2106.458, 2681.378 " />
            <path fill="none" stroke-width="3.0" stroke-linecap="butt" stroke-opacity="1.0" stroke="rgb(0, 0, 0)" stroke-linejoin="round" d=" M 2081.018, 2699.668 2082.671, 2697.596 2084.424, 2695.609 2086.275, 2693.712 2088.217, 2691.909 2090.248, 2690.206 2092.360, 2688.606 2094.550, 2687.113 2096.811, 2685.731 2099.138, 2684.464 2101.526, 2683.314 2103.968, 2682.284 " />
            <path fill="none" stroke-width="3.0" stroke-linecap="butt" stroke-opacity="1.0" stroke="rgb(0, 0, 0)" stroke-linejoin="round" d=" M 2070.830, 2739.681 2070.500, 2737.052 2070.302, 2734.409 2070.236, 2731.760 2070.302, 2729.111 2070.500, 2726.468 2070.830, 2723.839 2071.290, 2721.228 2071.880, 2718.645 2072.597, 2716.094 2073.441, 2713.582 2074.410, 2711.115 2075.500, 2708.699 2076.708, 2706.341 2078.034, 2704.046 2079.471, 2701.819 2081.018, 2699.668 " />
            <path fill="none" stroke-width="3.0" stroke-linecap="butt" stroke-opacity="1.0" stroke="rgb(0, 0, 0)" stroke-linejoin="round" d=" M 981.247, 2767.911 979.397, 2769.808 977.454, 2771.610 975.424, 2773.313 973.312, 2774.914 971.122, 2776.406 968.861, 2777.788 966.533, 2779.056 964.146, 2780.206 " />
            <path fill="none" stroke-width="3.0" stroke-linecap="butt" stroke-opacity="1.0" stroke="rgb(0, 0, 0)" stroke-linejoin="round" d=" M 986.200, 2761.700 984.653, 2763.852 983.001, 2765.924 981.247, 2767.911 " />
            <path fill="none" stroke-width="3.0" stroke-linecap="butt" stroke-opacity="1.0" stroke="rgb(0, 0, 0)" stroke-linejoin="round" d=" M 990.172, 2754.821 988.963, 2757.178 987.638, 2759.474 986.200, 2761.700 " />
            <path fill="none" stroke-width="3.0" stroke-linecap="butt" stroke-opacity="1.0" stroke="rgb(0, 0, 0)" stroke-linejoin="round" d=" M 993.074, 2747.426 992.230, 2749.938 991.262, 2752.405 990.172, 2754.821 " />
            <path fill="none" stroke-width="3.0" stroke-linecap="butt" stroke-opacity="1.0" stroke="rgb(0, 0, 0)" stroke-linejoin="round" d=" M 964.146, 2780.206 961.704, 2781.235 959.213, 2782.141 956.681, 2782.923 954.113, 2783.577 951.515, 2784.102 " />
            <path fill="none" stroke-width="3.0" stroke-linecap="butt" stroke-opacity="1.0" stroke="rgb(0, 0, 0)" stroke-linejoin="round" d=" M 2072.597, 2747.426 2071.880, 2744.875 2071.290, 2742.291 2070.830, 2739.681 " />
            <path fill="none" stroke-width="3.0" stroke-linecap="butt" stroke-opacity="1.0" stroke="rgb(0, 0, 0)" stroke-linejoin="round" d=" M 994.842, 2739.681 994.382, 2742.291 993.792, 2744.875 993.074, 2747.426 " />
            <path fill="none" stroke-width="3.0" stroke-linecap="butt" stroke-opacity="1.0" stroke="rgb(0, 0, 0)" stroke-linejoin="round" d=" M 995.369, 2729.111 995.435, 2731.760 995.369, 2734.409 995.171, 2737.052 994.842, 2739.681 " />
            <path fill="none" stroke-width="3.0" stroke-linecap="butt" stroke-opacity="1.0" stroke="rgb(0, 0, 0)" stroke-linejoin="round" d=" M 951.515, 2784.102 948.895, 2784.497 946.258, 2784.761 943.611, 2784.892 " />
            <path fill="none" stroke-width="3.0" stroke-linecap="butt" stroke-opacity="1.0" stroke="rgb(0, 0, 0)" stroke-linejoin="round" d=" M 943.611, 2784.892 940.961, 2784.892 938.314, 2784.761 935.677, 2784.497 933.057, 2784.102 930.459, 2783.577 927.891, 2782.923 925.359, 2782.141 922.868, 2781.235 " />
            <path fill="none" stroke-width="3.0" stroke-linecap="butt" stroke-opacity="1.0" stroke="rgb(0, 0, 0)" stroke-linejoin="round" d=" M 993.792, 2718.645 994.382, 2721.228 994.842, 2723.839 995.171, 2726.468 995.369, 2729.111 " />
            <path fill="none" stroke-width="3.0" stroke-linecap="butt" stroke-opacity="1.0" stroke="rgb(0, 0, 0)" stroke-linejoin="round" d=" M 922.868, 2781.235 920.426, 2780.206 918.039, 2779.056 915.711, 2777.788 " />
            <path fill="none" stroke-width="3.0" stroke-linecap="butt" stroke-opacity="1.0" stroke="rgb(0, 0, 0)" stroke-linejoin="round" d=" M 990.172, 2708.699 991.262, 2711.115 " />
            <path fill="none" stroke-width="3.0" stroke-linecap="butt" stroke-opacity="1.0" stroke="rgb(0, 0, 0)" stroke-linejoin="round" d=" M 991.262, 2711.115 992.230, 2713.582 " />
            <path fill="none" stroke-width="3.0" stroke-linecap="butt" stroke-opacity="1.0" stroke="rgb(0, 0, 0)" stroke-linejoin="round" d=" M 1067.570, 2290.105 1065.051, 2292.687 1062.407, 2295.140 1059.644, 2297.459 1056.769, 2299.637 1053.788, 2301.668 1050.710, 2303.550 1047.543, 2305.275 1044.293, 2306.840 1040.969, 2308.241 1037.579, 2309.474 1034.133, 2310.538 1030.637, 2311.428 1027.101, 2312.142 1023.535, 2312.680 1019.945, 2313.039 1016.343, 2313.219 1012.736, 2313.219 1009.133, 2313.039 1005.544, 2312.680 1001.977, 2312.142 998.442, 2311.428 994.946, 2310.538 991.499, 2309.474 988.110, 2308.241 984.786, 2306.840 981.536, 2305.275 978.368, 2303.550 975.290, 2301.668 972.310, 2299.637 969.435, 2297.459 966.671, 2295.140 964.027, 2292.687 961.509, 2290.105 959.122, 2287.400 956.873, 2284.581 954.767, 2281.651 952.810, 2278.621 951.007, 2275.498 949.361, 2272.287 947.878, 2269.000 946.560, 2265.642 945.411, 2262.223 944.434, 2258.751 943.631, 2255.234 943.005, 2251.682 942.556, 2248.103 942.287, 2244.505 942.197, 2240.899 942.287, 2237.293 942.556, 2233.697 943.005, 2230.117 943.631, 2226.565 944.434, 2223.048 945.411, 2219.576 946.560, 2216.158 947.878, 2212.800 949.361, 2209.511 951.007, 2206.301 952.810, 2203.177 954.767, 2200.148 956.873, 2197.219 959.122, 2194.399 961.509, 2191.694 964.027, 2189.112 966.671, 2186.658 969.435, 2184.340 972.310, 2182.162 975.290, 2180.130 978.368, 2178.250 981.536, 2176.524 984.786, 2174.959 988.110, 2173.558 991.499, 2172.324 994.946, 2171.261 998.442, 2170.371 1001.977, 2169.656 1005.544, 2169.119 1009.133, 2168.760 1012.736, 2168.580 1016.343, 2168.580 1019.945, 2168.760 1023.535, 2169.119 1027.101, 2169.656 1030.637, 2170.371 1034.133, 2171.261 1037.579, 2172.324 1040.969, 2173.558 1044.293, 2174.959 1047.543, 2176.524 1050.710, 2178.250 1053.788, 2180.130 1056.769, 2182.162 1059.644, 2184.340 1062.407, 2186.658 1065.051, 2189.112 1067.570, 2191.694 1069.957, 2194.399 1072.206, 2197.219 1074.311, 2200.148 1076.268, 2203.177 1078.072, 2206.301 1079.718, 2209.511 1081.201, 2212.800 1082.519, 2216.158 1083.668, 2219.576 1084.645, 2223.048 1085.447, 2226.565 1086.074, 2230.117 1086.522, 2233.697 1086.792, 2237.293 1086.882, 2240.899 1086.792, 2244.505 1086.522, 2248.103 1086.074, 2251.682 1085.447, 2255.234 1084.645, 2258.751 1083.668, 2262.223 1082.519, 2265.642 1081.201, 2269.000 1079.718, 2272.287 1078.072, 2275.498 1076.268, 2278.621 1074.311, 2281.651 1072.206, 2284.581 1069.957, 2287.400 1067.570, 2290.105 " />
            <path fill="none" stroke-width="3.0" stroke-linecap="butt" stroke-opacity="1.0" stroke="rgb(0, 0, 0)" stroke-linejoin="round" d=" M 979.397, 2693.712 981.247, 2695.609 983.001, 2697.596 984.653, 2699.668 986.200, 2701.819 987.638, 2704.046 988.963, 2706.341 990.172, 2708.699 " />
            <path fill="none" stroke-width="3.0" stroke-linecap="butt" stroke-opacity="1.0" stroke="rgb(0, 0, 0)" stroke-linejoin="round" d=" M 992.230, 2713.582 993.074, 2716.094 " />
            <path fill="none" stroke-width="3.0" stroke-linecap="butt" stroke-opacity="1.0" stroke="rgb(0, 0, 0)" stroke-linejoin="round" d=" M 993.074, 2716.094 993.792, 2718.645 " />
            <path fill="none" stroke-width="3.0" stroke-linecap="butt" stroke-opacity="1.0" stroke="rgb(0, 0, 0)" stroke-linejoin="round" d=" M 977.454, 2691.909 979.397, 2693.712 " />
            <path fill="none" stroke-width="3.0" stroke-linecap="butt" stroke-opacity="1.0" stroke="rgb(0, 0, 0)" stroke-linejoin="round" d=" M 975.424, 2690.206 977.454, 2691.909 " />
            <path fill="none" stroke-width="3.0" stroke-linecap="butt" stroke-opacity="1.0" stroke="rgb(0, 0, 0)" stroke-linejoin="round" d=" M 973.312, 2688.606 975.424, 2690.206 " />
            <path fill="none" stroke-width="3.0" stroke-linecap="butt" stroke-opacity="1.0" stroke="rgb(0, 0, 0)" stroke-linejoin="round" d=" M 971.122, 2687.113 973.312, 2688.606 " />
            <path fill="none" stroke-width="3.0" stroke-linecap="butt" stroke-opacity="1.0" stroke="rgb(0, 0, 0)" stroke-linejoin="round" d=" M 956.681, 2680.597 959.213, 2681.378 961.704, 2682.284 964.146, 2683.314 966.533, 2684.464 968.861, 2685.731 971.122, 2687.113 " />
            <path fill="none" stroke-width="3.0" stroke-linecap="butt" stroke-opacity="1.0" stroke="rgb(0, 0, 0)" stroke-linejoin="round" d=" M 938.314, 2678.759 940.961, 2678.627 943.611, 2678.627 946.258, 2678.759 948.895, 2679.023 951.515, 2679.418 954.113, 2679.943 956.681, 2680.597 " />
            <path fill="none" stroke-width="3.0" stroke-linecap="butt" stroke-opacity="1.0" stroke="rgb(0, 0, 0)" stroke-linejoin="round" d=" M 935.677, 2679.023 938.314, 2678.759 " />
            <path fill="none" stroke-width="3.0" stroke-linecap="butt" stroke-opacity="1.0" stroke="rgb(0, 0, 0)" stroke-linejoin="round" d=" M 911.260, 2688.606 913.450, 2687.113 915.711, 2685.731 918.039, 2684.464 920.426, 2683.314 922.868, 2682.284 925.359, 2681.378 927.891, 2680.597 930.459, 2679.943 933.057, 2679.418 935.677, 2679.023 " />
            <path fill="none" stroke-width="3.0" stroke-linecap="butt" stroke-opacity="1.0" stroke="rgb(0, 0, 0)" stroke-linejoin="round" d=" M 909.148, 2690.206 911.260, 2688.606 " />
            <path fill="none" stroke-width="3.0" stroke-linecap="butt" stroke-opacity="1.0" stroke="rgb(0, 0, 0)" stroke-linejoin="round" d=" M 890.780, 2718.645 891.498, 2716.094 892.342, 2713.582 893.310, 2711.115 894.400, 2708.699 895.609, 2706.341 896.934, 2704.046 898.372, 2701.819 899.919, 2699.668 901.571, 2697.596 " />
            <path fill="none" stroke-width="3.0" stroke-linecap="butt" stroke-opacity="1.0" stroke="rgb(0, 0, 0)" stroke-linejoin="round" d=" M 889.401, 2726.468 889.730, 2723.839 890.190, 2721.228 890.780, 2718.645 " />
            <path fill="none" stroke-width="3.0" stroke-linecap="butt" stroke-opacity="1.0" stroke="rgb(0, 0, 0)" stroke-linejoin="round" d=" M 889.203, 2729.111 889.401, 2726.468 " />
            <path fill="none" stroke-width="3.0" stroke-linecap="butt" stroke-opacity="1.0" stroke="rgb(0, 0, 0)" stroke-linejoin="round" d=" M 889.730, 2739.681 889.401, 2737.052 889.203, 2734.409 889.136, 2731.760 " />
            <path fill="none" stroke-width="3.0" stroke-linecap="butt" stroke-opacity="1.0" stroke="rgb(0, 0, 0)" stroke-linejoin="round" d=" M 893.310, 2752.405 892.342, 2749.938 891.498, 2747.426 890.780, 2744.875 890.190, 2742.291 889.730, 2739.681 " />
            <path fill="none" stroke-width="3.0" stroke-linecap="butt" stroke-opacity="1.0" stroke="rgb(0, 0, 0)" stroke-linejoin="round" d=" M 905.175, 2769.808 903.325, 2767.911 901.571, 2765.924 899.919, 2763.852 898.372, 2761.700 896.934, 2759.474 895.609, 2757.178 894.400, 2754.821 893.310, 2752.405 " />
            <path fill="none" stroke-width="3.0" stroke-linecap="butt" stroke-opacity="1.0" stroke="rgb(0, 0, 0)" stroke-linejoin="round" d=" M 915.711, 2777.788 913.450, 2776.406 911.260, 2774.914 909.148, 2773.313 907.118, 2771.610 " />
            <path fill="none" stroke-width="3.0" stroke-linecap="butt" stroke-opacity="1.0" stroke="rgb(0, 0, 0)" stroke-linejoin="round" d=" M 907.118, 2691.909 909.148, 2690.206 " />
            <path fill="none" stroke-width="3.0" stroke-linecap="butt" stroke-opacity="1.0" stroke="rgb(0, 0, 0)" stroke-linejoin="round" d=" M 905.175, 2693.712 907.118, 2691.909 " />
            <path fill="none" stroke-width="3.0" stroke-linecap="butt" stroke-opacity="1.0" stroke="rgb(0, 0, 0)" stroke-linejoin="round" d=" M 903.325, 2695.609 905.175, 2693.712 " />
            <path fill="none" stroke-width="3.0" stroke-linecap="butt" stroke-opacity="1.0" stroke="rgb(0, 0, 0)" stroke-linejoin="round" d=" M 901.571, 2697.596 903.325, 2695.609 " />
            <path fill="none" stroke-width="3.0" stroke-linecap="butt" stroke-opacity="1.0" stroke="rgb(0, 0, 0)" stroke-linejoin="round" d=" M 1190.644, 23.666 1187.873, 33.274 1185.102, 42.883 1182.330, 52.491 1179.559, 62.099 1176.788, 71.708 1174.017, 81.316 1171.245, 90.924 1168.474, 100.532 1165.703, 110.141 1162.932, 119.749 1160.160, 129.357 1157.389, 138.966 1154.618, 148.574 1151.847, 158.183 1149.075, 167.791 1146.304, 177.399 1143.533, 187.008 1140.761, 196.616 1137.990, 206.224 1135.219, 215.833 1132.448, 225.441 1129.676, 235.049 1126.905, 244.657 1124.134, 254.266 1121.363, 263.874 1118.591, 273.483 1115.820, 283.091 1113.049, 292.699 1110.278, 302.308 1107.506, 311.916 1104.735, 321.524 1101.964, 331.133 1099.193, 340.741 1096.421, 350.349 1093.650, 359.958 1090.879, 369.566 1088.108, 379.174 1085.336, 388.782 1082.565, 398.391 1079.794, 407.999 1077.022, 417.608 1074.251, 427.216 1071.480, 436.824 1068.709, 446.433 1065.938, 456.041 1063.166, 465.649 1060.395, 475.258 1057.624, 484.866 1054.852, 494.474 1052.081, 504.083 1049.310, 513.691 1046.539, 523.299 1043.767, 532.908 1040.996, 542.516 1038.225, 552.124 1035.454, 561.733 1032.682, 571.341 1029.911, 580.949 1027.140, 590.558 1024.369, 600.166 1021.597, 609.774 1018.826, 619.383 1016.055, 628.991 1013.284, 638.599 1010.512, 648.208 1007.741, 657.816 1004.970, 667.424 1002.198, 677.033 999.427, 686.641 996.656, 696.249 993.885, 705.858 991.113, 715.466 986.799, 730.426 983.689, 739.931 980.580, 749.435 977.471, 758.939 974.362, 768.444 971.253, 777.948 968.143, 787.452 965.034, 796.957 961.925, 806.461 958.816, 815.966 955.707, 825.470 952.598, 834.974 949.488, 844.479 946.379, 853.983 943.270, 863.488 940.161, 872.992 937.052, 882.496 933.943, 892.000 930.833, 901.505 927.724, 911.009 924.615, 920.514 921.506, 930.018 918.397, 939.522 915.287, 949.027 912.178, 958.531 909.069, 968.036 905.960, 977.540 902.851, 987.044 899.742, 996.549 896.632, 1006.053 893.523, 1015.557 890.414, 1025.062 887.305, 1034.566 884.196, 1044.071 881.087, 1053.575 877.977, 1063.079 874.868, 1072.583 871.759, 1082.088 868.650, 1091.592 865.541, 1101.097 862.432, 1110.601 859.322, 1120.105 856.213, 1129.610 853.104, 1139.114 849.995, 1148.619 846.886, 1158.123 843.776, 1167.627 840.667, 1177.132 837.558, 1186.636 834.449, 1196.140 831.340, 1205.645 828.231, 1215.149 825.121, 1224.654 822.012, 1234.158 818.903, 1243.662 815.794, 1253.167 812.685, 1262.671 809.576, 1272.175 806.466, 1281.680 803.357, 1291.184 800.248, 1300.688 797.139, 1310.193 794.030, 1319.697 790.921, 1329.202 787.811, 1338.706 784.702, 1348.210 781.593, 1357.715 778.484, 1367.219 775.375, 1376.723 772.266, 1386.228 769.156, 1395.732 766.047, 1405.237 762.938, 1414.741 759.829, 1424.245 756.720, 1433.750 753.610, 1443.254 750.501, 1452.758 747.392, 1462.263 744.283, 1471.767 741.174, 1481.271 738.065, 1490.776 734.955, 1500.280 731.846, 1509.785 728.737, 1519.289 725.628, 1528.793 722.519, 1538.298 719.410, 1547.802 713.961, 1564.458 " />
            <path fill="none" stroke-width="3.0" stroke-linecap="butt" stroke-opacity="1.0" stroke="rgb(0, 0, 0)" stroke-linejoin="round" d=" M 1846.430, 23.628 1836.430, 23.628 1826.430, 23.629 1816.430, 23.630 1806.430, 23.630 1796.430, 23.631 1786.430, 23.631 1776.430, 23.632 1766.430, 23.633 1756.430, 23.633 1746.430, 23.634 1736.430, 23.634 1726.430, 23.635 1716.430, 23.635 1706.430, 23.636 1696.430, 23.636 1686.430, 23.637 1676.430, 23.638 1666.430, 23.638 1656.430, 23.639 1646.430, 23.639 1636.430, 23.640 1626.430, 23.641 1616.430, 23.641 1606.430, 23.642 1596.430, 23.642 1586.430, 23.643 1576.430, 23.644 1566.430, 23.644 1556.430, 23.645 1546.430, 23.645 1536.430, 23.646 1526.430, 23.646 1516.430, 23.647 1506.430, 23.648 1496.430, 23.648 1486.430, 23.649 1476.430, 23.649 1466.430, 23.650 1456.430, 23.650 1446.430, 23.651 1436.430, 23.652 1426.430, 23.652 1416.430, 23.653 1406.430, 23.653 1396.430, 23.654 1386.430, 23.655 1376.430, 23.655 1366.430, 23.656 1356.430, 23.656 1346.430, 23.657 1336.430, 23.657 1326.430, 23.658 1316.430, 23.659 1306.430, 23.659 1296.430, 23.660 1286.430, 23.660 1276.430, 23.661 1266.430, 23.662 1256.430, 23.662 1246.430, 23.663 1236.430, 23.663 1226.430, 23.664 1216.430, 23.665 1204.810, 23.665 1194.810, 23.666 1190.644, 23.666 " />
            <path fill="none" stroke-width="3.0" stroke-linecap="butt" stroke-opacity="1.0" stroke="rgb(0, 0, 0)" stroke-linejoin="round" d=" M 2145.170, 1221.761 2142.720, 1212.066 2140.269, 1202.371 2137.818, 1192.676 2135.367, 1182.981 2132.917, 1173.286 2130.466, 1163.591 2128.015, 1153.896 2125.564, 1144.201 2123.114, 1134.506 2120.663, 1124.811 2118.212, 1115.116 2115.762, 1105.421 2113.311, 1095.726 2110.860, 1086.031 2108.409, 1076.336 2105.959, 1066.641 2103.508, 1056.946 2101.057, 1047.251 2098.606, 1037.556 2096.156, 1027.861 2093.705, 1018.166 2091.254, 1008.470 2088.804, 998.775 2086.353, 989.080 2083.902, 979.385 2081.451, 969.690 2079.001, 959.995 2076.550, 950.300 2074.099, 940.605 2071.648, 930.910 2069.198, 921.215 2066.747, 911.520 2064.296, 901.825 2061.845, 892.130 2059.395, 882.435 2056.944, 872.740 2054.493, 863.045 2052.043, 853.350 2049.592, 843.655 2047.141, 833.960 2044.690, 824.265 2042.240, 814.570 2039.789, 804.875 2037.338, 795.179 2034.888, 785.484 2032.437, 775.789 2029.986, 766.094 2027.535, 756.399 2025.085, 746.704 2022.634, 737.009 2020.183, 727.314 2017.732, 717.619 2015.282, 707.924 2012.831, 698.229 2010.380, 688.534 2007.930, 678.839 2005.479, 669.144 2003.028, 659.449 2000.577, 649.754 1998.127, 640.059 1995.676, 630.364 1993.225, 620.669 1990.774, 610.974 1988.324, 601.279 1985.873, 591.583 1983.422, 581.888 1980.972, 572.193 1978.521, 562.498 1976.070, 552.803 1973.619, 543.108 1971.169, 533.413 1968.718, 523.718 1966.267, 514.023 1963.816, 504.328 1961.366, 494.633 1958.915, 484.938 1956.464, 475.243 1954.014, 465.548 1951.563, 455.853 1949.112, 446.158 1946.661, 436.463 1944.211, 426.768 1941.760, 417.073 1938.458, 404.012 1936.107, 394.292 1933.755, 384.573 1931.404, 374.853 1929.052, 365.134 1926.701, 355.414 1924.349, 345.695 1921.998, 335.975 1919.646, 326.255 1917.295, 316.536 1914.943, 306.816 1912.592, 297.097 1910.240, 287.377 1907.889, 277.657 1905.537, 267.938 1903.186, 258.218 1900.834, 248.499 1898.483, 238.779 1896.131, 229.060 1893.780, 219.340 1891.428, 209.620 1889.077, 199.901 1886.725, 190.181 1884.374, 180.462 1882.022, 170.742 1879.671, 161.022 1877.319, 151.303 1874.967, 141.583 1872.616, 131.864 1870.264, 122.144 1867.913, 112.425 1865.561, 102.705 1863.210, 92.985 1860.858, 83.266 1858.507, 73.546 1856.155, 63.826 1853.804, 54.107 1851.452, 44.387 1849.101, 34.668 1846.430, 23.628 " />
            <path fill="none" stroke-width="3.0" stroke-linecap="butt" stroke-opacity="1.0" stroke="rgb(0, 0, 0)" stroke-linejoin="round" d=" M 889.136, 2731.760 889.203, 2729.111 " />
            <path fill="none" stroke-width="3.0" stroke-linecap="butt" stroke-opacity="1.0" stroke="rgb(0, 0, 0)" stroke-linejoin="round" d=" M 907.118, 2771.610 905.175, 2769.808 " />
            <path fill="none" stroke-width="3.0" stroke-linecap="butt" stroke-opacity="1.0" stroke="rgb(0, 0, 0)" stroke-linejoin="round" d=" M 1846.430, 23.628 1836.430, 23.628 1826.430, 23.629 1816.430, 23.630 1806.430, 23.630 1796.430, 23.631 1786.430, 23.631 1776.430, 23.632 1766.430, 23.633 1756.430, 23.633 1746.430, 23.634 1736.430, 23.634 1726.430, 23.635 1716.430, 23.635 1706.430, 23.636 1696.430, 23.636 1686.430, 23.637 1676.430, 23.638 1666.430, 23.638 1656.430, 23.639 1646.430, 23.639 1636.430, 23.640 1626.430, 23.641 1616.430, 23.641 1606.430, 23.642 1596.430, 23.642 1586.430, 23.643 1576.430, 23.644 1566.430, 23.644 1556.430, 23.645 1546.430, 23.645 1536.430, 23.646 1526.430, 23.646 1516.430, 23.647 1506.430, 23.647 1496.430, 23.648 1486.430, 23.649 1476.430, 23.649 1466.430, 23.650 1456.430, 23.650 1446.430, 23.651 1436.430, 23.652 1426.430, 23.652 1416.430, 23.653 1406.430, 23.653 1396.430, 23.654 1386.430, 23.655 1376.430, 23.655 1366.430, 23.656 1356.430, 23.656 1346.430, 23.657 1336.430, 23.657 1326.430, 23.658 1316.430, 23.658 1306.430, 23.659 1296.430, 23.660 1286.430, 23.660 1276.430, 23.661 1266.430, 23.661 1256.430, 23.662 1246.430, 23.663 1236.430, 23.663 1226.430, 23.664 1216.430, 23.664 1206.430, 23.665 1190.644, 23.666 " />
            <path fill="none" stroke-width="3.0" stroke-linecap="butt" stroke-opacity="1.0" stroke="rgb(0, 0, 0)" stroke-linejoin="round" d=" M 2073.441, 2749.938 2072.597, 2747.426 " />
            <path fill="none" stroke-width="3.0" stroke-linecap="butt" stroke-opacity="1.0" stroke="rgb(0, 0, 0)" stroke-linejoin="round" d=" M 2074.410, 2752.405 2073.441, 2749.938 " />
            <path fill="none" stroke-width="3.0" stroke-linecap="butt" stroke-opacity="1.0" stroke="rgb(0, 0, 0)" stroke-linejoin="round" d=" M 2075.500, 2754.821 2074.410, 2752.405 " />
            <path fill="none" stroke-width="3.0" stroke-linecap="butt" stroke-opacity="1.0" stroke="rgb(0, 0, 0)" stroke-linejoin="round" d=" M 2092.360, 2774.914 2090.248, 2773.313 " />
            <path fill="none" stroke-width="3.0" stroke-linecap="butt" stroke-opacity="1.0" stroke="rgb(0, 0, 0)" stroke-linejoin="round" d=" M 2101.526, 2780.206 2099.138, 2779.056 " />
            <path fill="none" stroke-width="3.0" stroke-linecap="butt" stroke-opacity="1.0" stroke="rgb(0, 0, 0)" stroke-linejoin="round" d=" M 2132.615, 2784.102 2129.995, 2784.497 " />
            <path fill="none" stroke-width="3.0" stroke-linecap="butt" stroke-opacity="1.0" stroke="rgb(0, 0, 0)" stroke-linejoin="round" d=" M 2135.212, 2783.577 2132.615, 2784.102 " />
            <path fill="none" stroke-width="3.0" stroke-linecap="butt" stroke-opacity="1.0" stroke="rgb(0, 0, 0)" stroke-linejoin="round" d=" M 2172.362, 2752.405 2171.272, 2754.821 " />
            <path fill="none" stroke-width="3.0" stroke-linecap="butt" stroke-opacity="1.0" stroke="rgb(0, 0, 0)" stroke-linejoin="round" d=" M 2173.330, 2749.938 2172.362, 2752.405 " />
            <path fill="none" stroke-width="3.0" stroke-linecap="butt" stroke-opacity="1.0" stroke="rgb(0, 0, 0)" stroke-linejoin="round" d=" M 2174.174, 2747.426 2173.330, 2749.938 " />
            <path fill="none" stroke-width="3.0" stroke-linecap="butt" stroke-opacity="1.0" stroke="rgb(0, 0, 0)" stroke-linejoin="round" d=" M 2174.892, 2744.875 2174.174, 2747.426 " />
            <path fill="none" stroke-width="3.0" stroke-linecap="butt" stroke-opacity="1.0" stroke="rgb(0, 0, 0)" stroke-linejoin="round" d=" M 2424.630, 1830.620 2420.459, 1821.532 2416.287, 1812.443 2412.116, 1803.355 2407.944, 1794.267 2403.773, 1785.178 2399.601, 1776.090 2395.430, 1767.001 2391.258, 1757.913 2387.087, 1748.825 2382.916, 1739.736 2378.744, 1730.648 2374.573, 1721.559 2370.401, 1712.471 2366.229, 1703.383 2362.058, 1694.294 2357.886, 1685.206 2353.715, 1676.118 2349.544, 1667.029 2345.372, 1657.941 2341.201, 1648.852 2337.029, 1639.764 2332.858, 1630.676 2328.686, 1621.587 2324.515, 1612.499 2320.343, 1603.410 2316.172, 1594.322 2312.000, 1585.234 2307.829, 1576.145 2303.657, 1567.057 2299.486, 1557.969 2295.314, 1548.880 2291.143, 1539.792 2286.971, 1530.703 2282.800, 1521.615 2278.628, 1512.527 2274.457, 1503.438 2270.286, 1494.350 2266.114, 1485.261 2261.943, 1476.173 2257.771, 1467.085 2253.600, 1457.996 2249.428, 1448.908 2245.257, 1439.820 2241.085, 1430.731 2236.914, 1421.643 2232.742, 1412.554 2228.571, 1403.466 2224.399, 1394.378 2220.228, 1385.289 2216.056, 1376.201 2211.885, 1367.112 2207.713, 1358.024 2203.542, 1348.936 2199.371, 1339.847 2195.199, 1330.759 2191.028, 1321.670 2186.856, 1312.582 2182.685, 1303.494 2178.513, 1294.405 2174.342, 1285.317 2170.170, 1276.229 2165.999, 1267.140 2161.827, 1258.052 2157.656, 1248.963 2153.484, 1239.875 2149.313, 1230.787 2145.170, 1221.761 " />
        </g>
    </g>
<g id="slice-labels"><text x="549.6433333333333" y="488.34737499999994" text-anchor="middle" dominant-baseline="middle" font-family="Arial, sans-serif" font-size="59.05496707860752" font-weight="bold" fill="black" stroke="none" stroke-width="7.086596049432903" paint-order="stroke fill">Slice47 (Front)</text><text x="1601.9999999999998" y="488.34737499999994" text-anchor="middle" dominant-baseline="middle" font-family="Arial, sans-serif" font-size="59.05496707860752" font-weight="bold" fill="black" stroke="none" stroke-width="7.086596049432903" paint-order="stroke fill">Slice47 (Front)</text><text x="2654.3566666666666" y="488.34737499999994" text-anchor="middle" dominant-baseline="middle" font-family="Arial, sans-serif" font-size="59.05496707860752" font-weight="bold" fill="black" stroke="none" stroke-width="7.086596049432903" paint-order="stroke fill">Slice47 (Front)</text><text x="549.6433333333333" y="1417.7861249999999" text-anchor="middle" dominant-baseline="middle" font-family="Arial, sans-serif" font-size="59.05496707860752" font-weight="bold" fill="black" stroke="none" stroke-width="7.086596049432903" paint-order="stroke fill">Slice47 (Front)</text><text x="1601.9999999999998" y="1417.7861249999999" text-anchor="middle" dominant-baseline="middle" font-family="Arial, sans-serif" font-size="59.05496707860752" font-weight="bold" fill="black" stroke="none" stroke-width="7.086596049432903" paint-order="stroke fill">Slice47 (Front)</text><text x="2654.3566666666666" y="1417.7861249999999" text-anchor="middle" dominant-baseline="middle" font-family="Arial, sans-serif" font-size="59.05496707860752" font-weight="bold" fill="black" stroke="none" stroke-width="7.086596049432903" paint-order="stroke fill">Slice47 (Front)</text><text x="549.6433333333333" y="2347.224875" text-anchor="middle" dominant-baseline="middle" font-family="Arial, sans-serif" font-size="59.05496707860752" font-weight="bold" fill="black" stroke="none" stroke-width="7.086596049432903" paint-order="stroke fill">Slice47 (Front)</text><text x="1601.9999999999998" y="2347.224875" text-anchor="middle" dominant-baseline="middle" font-family="Arial, sans-serif" font-size="59.05496707860752" font-weight="bold" fill="black" stroke="none" stroke-width="7.086596049432903" paint-order="stroke fill">Slice47 (Front)</text><text x="2654.3566666666666" y="2347.224875" text-anchor="middle" dominant-baseline="middle" font-family="Arial, sans-serif" font-size="59.05496707860752" font-weight="bold" fill="black" stroke="none" stroke-width="7.086596049432903" paint-order="stroke fill">Slice47 (Front)</text><text x="549.6433333333333" y="3276.6636249999997" text-anchor="middle" dominant-baseline="middle" font-family="Arial, sans-serif" font-size="59.05496707860752" font-weight="bold" fill="black" stroke="none" stroke-width="7.086596049432903" paint-order="stroke fill">Slice47 (Front)</text><text x="1601.9999999999998" y="3276.6636249999997" text-anchor="middle" dominant-baseline="middle" font-family="Arial, sans-serif" font-size="59.05496707860752" font-weight="bold" fill="black" stroke="none" stroke-width="7.086596049432903" paint-order="stroke fill">Slice47 (Front)</text><text x="2654.3566666666666" y="3276.6636249999997" text-anchor="middle" dominant-baseline="middle" font-family="Arial, sans-serif" font-size="59.05496707860752" font-weight="bold" fill="black" stroke="none" stroke-width="7.086596049432903" paint-order="stroke fill">Slice47 (Front)</text></g></svg>