<?xml version='1.0' encoding='utf-8'?>
<svg xmlns="http://www.w3.org/2000/svg" xmlns:inkscape="http://www.inkscape.org/namespaces/inkscape" version="1.1" width="253.86273050308228mm" height="160.74489736557007mm" viewBox="-0.5355013408899474 0.004500398769007319 2999.0710026817796 1898.9999992024618" preserveAspectRatio="none">
    <g id="ViewLayer_LineSet" inkscape:groupmode="lineset" inkscape:label="ViewLayer_LineSet">
        <g inkscape:groupmode="layer" id="strokes" inkscape:label="strokes">
            <path fill="none" stroke-width="3.0" stroke-linecap="butt" stroke-opacity="1.0" stroke="rgb(0, 0, 0)" stroke-linejoin="round" d=" M 735.198, 1875.000 745.198, 1875.001 755.198, 1875.003 765.198, 1875.005 775.198, 1875.007 785.198, 1875.008 795.198, 1875.010 805.198, 1875.012 815.198, 1875.013 825.198, 1875.015 835.198, 1875.017 845.198, 1875.018 855.198, 1875.020 865.198, 1875.022 875.198, 1875.024 885.198, 1875.025 895.198, 1875.027 905.198, 1875.029 915.198, 1875.030 925.198, 1875.032 935.198, 1875.034 945.198, 1875.036 955.198, 1875.037 965.198, 1875.039 975.198, 1875.041 985.198, 1875.042 995.198, 1875.044 1005.198, 1875.046 1015.198, 1875.048 1025.198, 1875.049 1031.546, 1875.050 1041.546, 1875.052 1041.870, 1875.052 " />
            <path fill="none" stroke-width="3.0" stroke-linecap="butt" stroke-opacity="1.0" stroke="rgb(0, 0, 0)" stroke-linejoin="round" d=" M 1305.633, 1013.363 1303.113, 1015.945 1300.469, 1018.399 1297.705, 1020.718 1294.829, 1022.897 1291.848, 1024.930 1288.769, 1026.811 1285.601, 1028.536 1282.350, 1030.102 1279.025, 1031.503 1275.635, 1032.737 1272.187, 1033.801 1268.691, 1034.691 1265.155, 1035.405 1261.587, 1035.943 1257.997, 1036.302 1254.394, 1036.483 1250.786, 1036.483 1247.182, 1036.302 1243.592, 1035.943 1240.024, 1035.405 1236.488, 1034.691 1232.992, 1033.801 1229.544, 1032.737 1226.154, 1031.503 1222.829, 1030.102 1219.578, 1028.536 1216.410, 1026.811 1213.331, 1024.930 1210.351, 1022.897 1207.474, 1020.718 1204.710, 1018.399 1202.065, 1015.945 1199.547, 1013.363 1197.159, 1010.657 1194.910, 1007.837 1192.804, 1004.907 1190.846, 1001.876 1189.042, 998.751 1187.396, 995.541 1185.912, 992.253 1184.594, 988.894 1183.445, 985.474 1182.468, 982.001 1181.665, 978.484 1181.039, 974.930 1180.590, 971.351 1180.320, 967.752 1180.230, 964.146 1180.320, 960.539 1180.590, 956.942 1181.039, 953.361 1181.665, 949.808 1182.468, 946.290 1183.445, 942.817 1184.594, 939.398 1185.912, 936.039 1187.396, 932.750 1189.042, 929.540 1190.846, 926.416 1192.804, 923.384 1194.910, 920.455 1197.159, 917.634 1199.547, 914.929 1202.065, 912.346 1204.710, 909.893 1207.474, 907.573 1210.351, 905.395 1213.331, 903.362 1216.410, 901.481 1219.578, 899.755 1222.829, 898.190 1226.154, 896.788 1229.544, 895.554 1232.992, 894.491 1236.488, 893.601 1240.024, 892.885 1243.592, 892.349 1247.182, 891.989 1250.786, 891.809 1254.394, 891.809 1257.997, 891.989 1261.587, 892.349 1265.155, 892.885 1268.691, 893.601 1272.187, 894.491 1275.635, 895.554 1279.025, 896.788 1282.350, 898.190 1285.601, 899.755 1288.769, 901.481 1291.848, 903.362 1294.829, 905.395 1297.705, 907.573 1300.469, 909.893 1303.113, 912.346 1305.633, 914.929 1308.020, 917.634 1310.269, 920.455 1312.376, 923.384 1314.333, 926.416 1316.137, 929.540 1317.783, 932.750 1319.267, 936.039 1320.585, 939.398 1321.734, 942.817 1322.711, 946.290 1323.514, 949.808 1324.141, 953.361 1324.589, 956.942 1324.859, 960.539 1324.949, 964.146 1324.859, 967.752 1324.589, 971.351 1324.141, 974.930 1323.514, 978.484 1322.711, 982.001 1321.734, 985.474 1320.585, 988.894 1319.267, 992.253 1317.783, 995.541 1316.137, 998.751 1314.333, 1001.876 1312.376, 1004.907 1310.269, 1007.837 1308.020, 1010.657 1305.633, 1013.363 " />
            <path fill="none" stroke-width="3.0" stroke-linecap="butt" stroke-opacity="1.0" stroke="rgb(0, 0, 0)" stroke-linejoin="round" d=" M 521.168, 1874.963 531.168, 1874.965 541.168, 1874.966 551.168, 1874.968 561.168, 1874.970 571.168, 1874.972 581.168, 1874.973 591.168, 1874.975 601.168, 1874.977 611.168, 1874.978 621.168, 1874.980 631.168, 1874.982 641.168, 1874.984 651.168, 1874.985 661.168, 1874.987 671.168, 1874.989 681.168, 1874.990 691.168, 1874.992 701.168, 1874.994 711.168, 1874.996 721.168, 1874.997 731.154, 1874.999 731.197, 1874.999 " />
            <path fill="none" stroke-width="3.0" stroke-linecap="butt" stroke-opacity="1.0" stroke="rgb(0, 0, 0)" stroke-linejoin="round" d=" M 731.154, 1874.999 731.144, 1874.999 " />
            <path fill="none" stroke-width="3.0" stroke-linecap="butt" stroke-opacity="1.0" stroke="rgb(0, 0, 0)" stroke-linejoin="round" d=" M 2936.206, 1183.667 2935.948, 1173.670 2935.690, 1163.673 2935.433, 1153.677 2935.175, 1143.680 2934.917, 1133.683 2934.659, 1123.687 2934.401, 1113.690 2934.143, 1103.693 2933.885, 1093.696 2933.627, 1083.700 2933.369, 1073.703 2933.112, 1063.706 2932.854, 1053.710 2932.596, 1043.713 2932.338, 1033.716 2932.080, 1023.720 2931.822, 1013.723 2931.564, 1003.726 2931.306, 993.730 2931.049, 983.733 2930.791, 973.736 2930.533, 963.740 2930.275, 953.743 2930.017, 943.746 2929.759, 933.750 2929.501, 923.753 2929.243, 913.756 2928.985, 903.760 2928.728, 893.763 2928.469, 883.766 2928.212, 873.770 2927.954, 863.773 2927.696, 853.776 2927.438, 843.780 2927.180, 833.783 2926.922, 823.786 2926.664, 813.790 2926.406, 803.793 2926.149, 793.796 2925.891, 783.800 2925.633, 773.803 2925.375, 763.806 2925.117, 753.810 2924.859, 743.813 2924.601, 733.816 2924.344, 723.820 2924.085, 713.823 2923.828, 703.826 2923.570, 693.829 2923.312, 683.833 2923.054, 673.836 2922.796, 663.839 2922.596, 656.099 2921.042, 646.220 2919.489, 636.342 2917.935, 626.463 2916.381, 616.584 2914.827, 606.706 2913.273, 596.827 2911.719, 586.949 2910.165, 577.070 2908.611, 567.192 2907.057, 557.313 2905.503, 547.435 2903.949, 537.556 2902.395, 527.678 2900.841, 517.799 2899.287, 507.921 2897.734, 498.042 2896.180, 488.164 2894.626, 478.285 2893.072, 468.407 2891.518, 458.528 2889.964, 448.650 2889.583, 446.227 2890.749, 436.295 2891.915, 426.363 2893.081, 416.431 2894.247, 406.500 2895.413, 396.568 2896.579, 386.636 2897.745, 376.704 2898.911, 366.772 2900.077, 356.841 2901.243, 346.909 2902.408, 336.977 2903.574, 327.045 2904.660, 317.798 " />
            <path fill="none" stroke-width="3.0" stroke-linecap="butt" stroke-opacity="1.0" stroke="rgb(0, 0, 0)" stroke-linejoin="round" d=" M 2974.908, 1752.584 2974.361, 1742.599 2973.814, 1732.614 2973.267, 1722.629 2972.720, 1712.644 2972.173, 1702.659 2971.626, 1692.674 2971.079, 1682.689 2970.532, 1672.704 2969.986, 1662.719 2969.438, 1652.734 2968.892, 1642.748 2968.345, 1632.763 2967.798, 1622.778 2967.251, 1612.793 2966.704, 1602.808 2966.157, 1592.823 2965.610, 1582.838 2965.063, 1572.853 2964.516, 1562.868 2963.969, 1552.883 2963.422, 1542.898 2962.875, 1532.913 2962.328, 1522.928 2961.781, 1512.943 2961.234, 1502.958 2960.688, 1492.973 2960.141, 1482.988 2959.594, 1473.003 2959.047, 1463.018 2958.500, 1453.033 2957.953, 1443.048 2957.406, 1433.063 2956.859, 1423.078 2956.312, 1413.093 2955.765, 1403.108 2955.218, 1393.123 2954.671, 1383.138 2954.124, 1373.153 2953.577, 1363.168 2953.030, 1353.183 2952.483, 1343.198 2951.937, 1333.213 2951.390, 1323.227 2950.843, 1313.242 2950.296, 1303.257 2949.749, 1293.272 2949.454, 1287.895 2948.133, 1277.983 2946.811, 1268.071 2945.490, 1258.159 2944.168, 1248.246 2942.847, 1238.334 2941.525, 1228.422 2940.204, 1218.509 2939.864, 1215.957 " />
            <path fill="none" stroke-width="3.0" stroke-linecap="butt" stroke-opacity="1.0" stroke="rgb(0, 0, 0)" stroke-linejoin="round" d=" M 2704.732, 1875.336 2714.732, 1875.337 2724.732, 1875.339 2734.732, 1875.341 2744.732, 1875.342 2754.732, 1875.344 2764.732, 1875.346 2774.732, 1875.347 2784.732, 1875.349 2794.732, 1875.351 2804.732, 1875.352 2814.732, 1875.354 2824.732, 1875.356 2834.732, 1875.357 2844.732, 1875.359 2854.732, 1875.361 2864.732, 1875.362 2874.732, 1875.364 2884.732, 1875.366 2894.732, 1875.368 2904.732, 1875.369 2914.732, 1875.371 2924.732, 1875.373 2934.732, 1875.374 2944.732, 1875.376 2951.410, 1875.377 2953.290, 1865.555 2955.169, 1855.734 2957.049, 1845.912 2958.928, 1836.090 2960.808, 1826.268 2962.687, 1816.446 2964.567, 1806.625 2966.446, 1796.803 2968.326, 1786.981 2970.205, 1777.159 2972.085, 1767.337 2973.964, 1757.516 2974.908, 1752.584 " />
            <path fill="none" stroke-width="3.0" stroke-linecap="butt" stroke-opacity="1.0" stroke="rgb(0, 0, 0)" stroke-linejoin="round" d=" M 502.094, 1803.970 504.689, 1813.628 507.283, 1823.285 509.878, 1832.943 512.473, 1842.600 515.068, 1852.258 517.662, 1861.915 520.257, 1871.573 521.168, 1874.963 " />
            <path fill="none" stroke-width="3.0" stroke-linecap="butt" stroke-opacity="1.0" stroke="rgb(0, 0, 0)" stroke-linejoin="round" d=" M 410.985, 1605.038 415.149, 1614.130 419.313, 1623.222 423.477, 1632.314 427.641, 1641.405 431.805, 1650.497 435.969, 1659.589 440.133, 1668.681 444.297, 1677.773 448.461, 1686.865 452.625, 1695.956 456.789, 1705.048 460.953, 1714.140 465.116, 1723.232 469.280, 1732.324 473.444, 1741.416 477.608, 1750.507 481.772, 1759.599 485.936, 1768.691 490.100, 1777.783 494.264, 1786.875 498.428, 1795.967 502.094, 1803.970 " />
            <path fill="none" stroke-width="3.0" stroke-linecap="butt" stroke-opacity="1.0" stroke="rgb(0, 0, 0)" stroke-linejoin="round" d=" M 324.979, 1171.599 326.926, 1181.408 328.872, 1191.216 330.818, 1201.025 332.764, 1210.834 334.711, 1220.643 336.657, 1230.451 338.603, 1240.260 340.550, 1250.069 342.496, 1259.878 344.442, 1269.686 346.389, 1279.495 348.335, 1289.304 350.281, 1299.113 352.228, 1308.921 354.174, 1318.730 356.120, 1328.539 358.067, 1338.348 360.013, 1348.156 361.959, 1357.965 363.906, 1367.774 365.852, 1377.583 367.798, 1387.392 369.744, 1397.200 371.691, 1407.009 373.637, 1416.818 375.583, 1426.627 377.530, 1436.435 379.476, 1446.244 381.422, 1456.053 383.369, 1465.862 385.315, 1475.670 387.261, 1485.479 389.208, 1495.288 391.154, 1505.097 393.100, 1514.905 395.047, 1524.714 396.993, 1534.523 398.939, 1544.332 400.886, 1554.141 402.832, 1563.949 404.778, 1573.758 406.724, 1583.567 408.671, 1593.376 410.985, 1605.038 " />
            <path fill="none" stroke-width="3.0" stroke-linecap="butt" stroke-opacity="1.0" stroke="rgb(0, 0, 0)" stroke-linejoin="round" d=" M 38.044, 58.410 42.516, 67.354 46.989, 76.298 51.462, 85.242 55.935, 94.186 60.408, 103.130 64.880, 112.074 69.353, 121.018 73.826, 129.962 78.299, 138.906 82.772, 147.850 87.244, 156.794 91.717, 165.738 95.660, 173.623 98.782, 183.123 101.904, 192.623 105.026, 202.123 108.148, 211.623 111.270, 221.124 114.392, 230.624 117.514, 240.124 120.636, 249.624 123.758, 259.124 126.880, 268.624 130.002, 278.125 133.124, 287.625 136.246, 297.125 139.367, 306.625 142.489, 316.125 145.611, 325.626 148.733, 335.126 151.855, 344.626 154.977, 354.126 158.099, 363.626 161.221, 373.126 164.343, 382.627 167.465, 392.127 170.587, 401.627 173.709, 411.127 176.831, 420.627 179.953, 430.128 183.075, 439.628 186.196, 449.128 189.318, 458.628 192.440, 468.128 195.562, 477.629 198.684, 487.129 201.806, 496.629 204.928, 506.129 208.050, 515.629 211.172, 525.129 214.294, 534.630 217.416, 544.130 220.538, 553.630 223.660, 563.130 226.782, 572.630 229.904, 582.131 232.244, 589.253 235.738, 598.623 239.232, 607.993 242.726, 617.363 246.219, 626.732 249.713, 636.102 253.207, 645.472 256.701, 654.842 260.195, 664.212 263.689, 673.581 267.182, 682.951 270.676, 692.321 274.170, 701.691 277.664, 711.061 281.158, 720.430 284.652, 729.800 288.145, 739.170 291.639, 748.540 295.133, 757.910 298.627, 767.279 302.121, 776.649 305.615, 786.019 309.108, 795.389 312.602, 804.759 316.096, 814.128 319.590, 823.498 323.084, 832.868 324.406, 836.413 324.423, 846.413 324.440, 856.413 324.457, 866.413 324.474, 876.413 324.491, 886.413 324.508, 896.413 324.525, 906.413 324.543, 916.413 324.560, 926.413 324.577, 936.413 324.594, 946.413 324.611, 956.413 324.628, 966.413 324.645, 976.413 324.662, 986.413 324.679, 996.413 324.697, 1006.413 324.714, 1016.413 324.731, 1026.413 324.748, 1036.413 324.765, 1046.413 324.782, 1056.413 324.799, 1066.413 324.816, 1076.413 324.833, 1086.413 324.851, 1096.413 324.868, 1106.413 324.885, 1116.413 324.902, 1126.413 324.919, 1136.413 324.936, 1146.413 324.953, 1156.413 324.970, 1166.413 324.979, 1171.599 " />
            <path fill="none" stroke-width="3.0" stroke-linecap="butt" stroke-opacity="1.0" stroke="rgb(0, 0, 0)" stroke-linejoin="round" d=" M 1050.694, 23.632 1046.006, 23.632 1041.203, 23.632 1031.203, 23.632 1021.203, 23.632 1011.203, 23.632 1001.203, 23.632 991.203, 23.632 981.203, 23.632 971.203, 23.632 961.203, 23.632 951.203, 23.632 941.203, 23.632 931.203, 23.632 921.203, 23.632 911.203, 23.632 901.203, 23.632 891.203, 23.632 881.203, 23.632 871.203, 23.632 861.203, 23.632 851.203, 23.632 841.203, 23.632 831.203, 23.632 821.203, 23.632 811.203, 23.632 801.203, 23.632 791.203, 23.632 781.203, 23.632 771.203, 23.632 761.203, 23.632 751.203, 23.632 741.203, 23.632 731.203, 23.632 721.203, 23.632 711.203, 23.632 701.203, 23.632 691.203, 23.632 681.203, 23.632 671.203, 23.632 661.203, 23.632 651.203, 23.632 641.203, 23.632 631.203, 23.632 621.203, 23.632 611.203, 23.632 601.203, 23.632 591.203, 23.632 581.203, 23.632 571.203, 23.632 561.203, 23.632 551.203, 23.632 541.203, 23.632 531.203, 23.632 521.203, 23.632 511.203, 23.632 501.203, 23.632 491.203, 23.632 481.203, 23.632 471.203, 23.632 461.203, 23.632 451.203, 23.632 441.203, 23.632 431.203, 23.632 421.203, 23.632 411.203, 23.632 401.203, 23.632 391.203, 23.632 381.203, 23.632 371.203, 23.632 361.203, 23.632 351.203, 23.632 341.203, 23.632 331.203, 23.632 321.203, 23.632 311.203, 23.632 301.203, 23.632 291.203, 23.632 281.203, 23.632 271.203, 23.632 261.203, 23.632 251.203, 23.632 241.203, 23.632 231.203, 23.632 221.203, 23.632 211.203, 23.632 201.203, 23.632 191.203, 23.632 181.203, 23.632 171.203, 23.632 161.203, 23.632 151.203, 23.632 141.203, 23.632 131.203, 23.632 121.203, 23.632 111.203, 23.632 101.203, 23.632 91.203, 23.632 81.203, 23.632 71.203, 23.632 61.203, 23.632 51.203, 23.632 41.203, 23.632 26.927, 23.632 23.092, 23.632 27.042, 32.819 30.991, 42.006 34.941, 51.193 38.044, 58.410 " />
            <path fill="none" stroke-width="3.0" stroke-linecap="butt" stroke-opacity="1.0" stroke="rgb(0, 0, 0)" stroke-linejoin="round" d=" M 2174.524, 1312.078 2172.674, 1313.975 2170.730, 1315.779 2168.700, 1317.483 2166.587, 1319.082 2164.397, 1320.576 " />
            <path fill="none" stroke-width="3.0" stroke-linecap="butt" stroke-opacity="1.0" stroke="rgb(0, 0, 0)" stroke-linejoin="round" d=" M 2188.452, 1281.212 2188.122, 1283.842 2187.662, 1286.453 2187.072, 1289.037 2186.354, 1291.589 2185.510, 1294.101 2184.542, 1296.569 2183.451, 1298.984 2182.242, 1301.344 2180.917, 1303.639 2179.478, 1305.865 2177.931, 1308.018 2176.278, 1310.090 2174.524, 1312.078 " />
            <path fill="none" stroke-width="3.0" stroke-linecap="butt" stroke-opacity="1.0" stroke="rgb(0, 0, 0)" stroke-linejoin="round" d=" M 2162.135, 1321.958 2159.807, 1323.226 2157.419, 1324.376 2154.976, 1325.406 2152.485, 1326.313 " />
            <path fill="none" stroke-width="3.0" stroke-linecap="butt" stroke-opacity="1.0" stroke="rgb(0, 0, 0)" stroke-linejoin="round" d=" M 2699.977, 1875.252 2700.870, 1875.252 2701.786, 1875.251 2702.805, 1875.335 2702.807, 1875.335 2703.469, 1875.335 2703.761, 1875.336 2704.732, 1875.336 " />
            <path fill="none" stroke-width="3.0" stroke-linecap="butt" stroke-opacity="1.0" stroke="rgb(0, 0, 0)" stroke-linejoin="round" d=" M 2585.910, 1875.315 2590.040, 1875.316 2591.183, 1875.316 2591.343, 1875.316 2601.343, 1875.311 2611.343, 1875.305 2621.343, 1875.300 2631.343, 1875.295 2641.343, 1875.290 2651.343, 1875.284 2661.343, 1875.279 2671.343, 1875.274 2681.343, 1875.269 2691.343, 1875.264 2699.104, 1875.260 2699.977, 1875.252 " />
            <path fill="none" stroke-width="3.0" stroke-linecap="butt" stroke-opacity="1.0" stroke="rgb(0, 0, 0)" stroke-linejoin="round" d=" M 2149.952, 1327.094 2147.384, 1327.748 2144.786, 1328.273 2142.164, 1328.668 2139.527, 1328.932 2136.879, 1329.065 " />
            <path fill="none" stroke-width="3.0" stroke-linecap="butt" stroke-opacity="1.0" stroke="rgb(0, 0, 0)" stroke-linejoin="round" d=" M 2378.443, 1875.280 2388.443, 1875.282 2398.443, 1875.283 2408.443, 1875.285 2418.443, 1875.287 2428.443, 1875.288 2438.443, 1875.290 2448.443, 1875.292 2458.443, 1875.294 2468.443, 1875.295 2478.443, 1875.297 2488.443, 1875.299 2498.443, 1875.300 2508.443, 1875.302 2518.443, 1875.304 2528.443, 1875.305 2538.443, 1875.307 2548.443, 1875.309 2558.443, 1875.311 2568.443, 1875.312 2578.443, 1875.314 2584.907, 1875.315 2585.028, 1875.315 2585.846, 1875.315 2585.910, 1875.315 2586.832, 1875.315 2587.051, 1875.315 2587.701, 1875.315 2587.861, 1875.315 2588.931, 1875.315 2589.382, 1875.315 2589.621, 1875.316 2590.040, 1875.316 " />
            <path fill="none" stroke-width="3.0" stroke-linecap="butt" stroke-opacity="1.0" stroke="rgb(0, 0, 0)" stroke-linejoin="round" d=" M 2188.650, 1273.269 2188.716, 1275.919 " />
            <path fill="none" stroke-width="3.0" stroke-linecap="butt" stroke-opacity="1.0" stroke="rgb(0, 0, 0)" stroke-linejoin="round" d=" M 2184.542, 1255.268 2185.510, 1257.736 2186.354, 1260.249 2187.072, 1262.801 2187.662, 1265.385 2188.122, 1267.995 2188.452, 1270.625 2188.650, 1273.269 " />
            <path fill="none" stroke-width="3.0" stroke-linecap="butt" stroke-opacity="1.0" stroke="rgb(0, 0, 0)" stroke-linejoin="round" d=" M 2378.366, 1875.280 2378.443, 1875.280 2378.493, 1875.280 2378.860, 1875.280 2379.334, 1875.280 2379.604, 1875.280 2380.115, 1875.280 2390.115, 1875.278 2400.115, 1875.276 2410.115, 1875.274 2420.115, 1875.272 2430.115, 1875.270 2440.115, 1875.268 2450.115, 1875.266 2460.115, 1875.264 2470.115, 1875.262 2480.115, 1875.260 2490.115, 1875.258 2500.115, 1875.256 2510.115, 1875.254 2520.115, 1875.252 2530.115, 1875.250 2540.115, 1875.248 2550.115, 1875.246 2560.115, 1875.244 2570.115, 1875.242 2580.115, 1875.240 2583.089, 1875.239 2583.284, 1875.236 2583.300, 1875.235 2583.914, 1875.224 2583.941, 1875.224 2583.947, 1875.224 2584.065, 1875.236 2584.068, 1875.236 2584.900, 1875.314 2584.902, 1875.315 2584.903, 1875.315 2584.905, 1875.315 2584.907, 1875.315 2584.907, 1875.315 " />
            <path fill="none" stroke-width="3.0" stroke-linecap="butt" stroke-opacity="1.0" stroke="rgb(0, 0, 0)" stroke-linejoin="round" d=" M 2128.944, 1328.668 2126.322, 1328.273 2123.724, 1327.748 2121.155, 1327.094 2118.623, 1326.313 2116.132, 1325.406 " />
            <path fill="none" stroke-width="3.0" stroke-linecap="butt" stroke-opacity="1.0" stroke="rgb(0, 0, 0)" stroke-linejoin="round" d=" M 2293.190, 1875.265 2303.190, 1875.267 2313.190, 1875.269 2323.190, 1875.270 2333.190, 1875.272 2343.190, 1875.274 2353.190, 1875.276 2363.190, 1875.277 2371.297, 1875.279 2374.412, 1875.279 2374.514, 1875.279 2375.307, 1875.279 2375.668, 1875.279 2376.331, 1875.279 2376.914, 1875.279 2376.987, 1875.279 2377.024, 1875.279 2377.316, 1875.279 2377.829, 1875.280 2378.227, 1875.280 2378.281, 1875.280 2378.366, 1875.280 " />
            <path fill="none" stroke-width="3.0" stroke-linecap="butt" stroke-opacity="1.0" stroke="rgb(0, 0, 0)" stroke-linejoin="round" d=" M 2180.917, 1248.199 2182.242, 1250.494 2183.451, 1252.853 2184.542, 1255.268 " />
            <path fill="none" stroke-width="3.0" stroke-linecap="butt" stroke-opacity="1.0" stroke="rgb(0, 0, 0)" stroke-linejoin="round" d=" M 2179.478, 1245.971 2180.917, 1248.199 " />
            <path fill="none" stroke-width="3.0" stroke-linecap="butt" stroke-opacity="1.0" stroke="rgb(0, 0, 0)" stroke-linejoin="round" d=" M 2177.931, 1243.820 2179.478, 1245.971 " />
            <path fill="none" stroke-width="3.0" stroke-linecap="butt" stroke-opacity="1.0" stroke="rgb(0, 0, 0)" stroke-linejoin="round" d=" M 2176.278, 1241.747 2177.931, 1243.820 " />
            <path fill="none" stroke-width="3.0" stroke-linecap="butt" stroke-opacity="1.0" stroke="rgb(0, 0, 0)" stroke-linejoin="round" d=" M 2166.587, 1232.755 2168.700, 1234.355 2170.730, 1236.059 2172.674, 1237.862 2174.524, 1239.759 2176.278, 1241.747 " />
            <path fill="none" stroke-width="3.0" stroke-linecap="butt" stroke-opacity="1.0" stroke="rgb(0, 0, 0)" stroke-linejoin="round" d=" M 2164.397, 1231.261 2166.587, 1232.755 " />
            <path fill="none" stroke-width="3.0" stroke-linecap="butt" stroke-opacity="1.0" stroke="rgb(0, 0, 0)" stroke-linejoin="round" d=" M 2157.419, 1227.461 2159.807, 1228.611 2162.135, 1229.879 2164.397, 1231.261 " />
            <path fill="none" stroke-width="3.0" stroke-linecap="butt" stroke-opacity="1.0" stroke="rgb(0, 0, 0)" stroke-linejoin="round" d=" M 2149.952, 1224.744 2152.485, 1225.525 2154.976, 1226.431 2157.419, 1227.461 " />
            <path fill="none" stroke-width="3.0" stroke-linecap="butt" stroke-opacity="1.0" stroke="rgb(0, 0, 0)" stroke-linejoin="round" d=" M 2118.623, 1225.525 2121.155, 1224.744 2123.724, 1224.090 2126.322, 1223.565 2128.944, 1223.170 2131.581, 1222.906 2134.229, 1222.774 2136.879, 1222.774 2139.527, 1222.906 2142.164, 1223.170 2144.786, 1223.565 2147.384, 1224.090 2149.952, 1224.744 " />
            <path fill="none" stroke-width="3.0" stroke-linecap="butt" stroke-opacity="1.0" stroke="rgb(0, 0, 0)" stroke-linejoin="round" d=" M 1144.264, 1875.069 1154.264, 1875.071 1164.264, 1875.073 1174.264, 1875.074 1184.264, 1875.076 1191.304, 1875.077 1193.066, 1875.077 1194.785, 1875.077 1196.456, 1875.078 1206.456, 1875.080 1216.456, 1875.081 1226.456, 1875.083 1236.456, 1875.085 1246.456, 1875.086 1256.456, 1875.088 1266.456, 1875.090 1276.456, 1875.092 1285.563, 1875.093 1295.563, 1875.095 1305.563, 1875.097 1315.563, 1875.098 1318.578, 1875.099 1321.019, 1875.099 1331.019, 1875.101 1341.119, 1875.103 1351.119, 1875.105 1361.119, 1875.106 1371.119, 1875.108 1378.987, 1875.109 1388.987, 1875.111 1398.987, 1875.113 1400.491, 1875.113 1400.600, 1875.113 1400.647, 1875.113 1400.720, 1875.113 " />
            <path fill="none" stroke-width="3.0" stroke-linecap="butt" stroke-opacity="1.0" stroke="rgb(0, 0, 0)" stroke-linejoin="round" d=" M 1165.735, 1875.073 1175.735, 1875.074 1183.933, 1875.076 1185.353, 1875.076 " />
            <path fill="none" stroke-width="3.0" stroke-linecap="butt" stroke-opacity="1.0" stroke="rgb(0, 0, 0)" stroke-linejoin="round" d=" M 1185.814, 1875.076 1186.188, 1875.076 " />
            <path fill="none" stroke-width="3.0" stroke-linecap="butt" stroke-opacity="1.0" stroke="rgb(0, 0, 0)" stroke-linejoin="round" d=" M 1187.673, 1875.076 1189.504, 1875.076 " />
            <path fill="none" stroke-width="3.0" stroke-linecap="butt" stroke-opacity="1.0" stroke="rgb(0, 0, 0)" stroke-linejoin="round" d=" M 2111.301, 1323.226 2108.973, 1321.958 2106.711, 1320.576 2104.521, 1319.082 " />
            <path fill="none" stroke-width="3.0" stroke-linecap="butt" stroke-opacity="1.0" stroke="rgb(0, 0, 0)" stroke-linejoin="round" d=" M 1189.504, 1875.076 1191.304, 1875.077 " />
            <path fill="none" stroke-width="3.0" stroke-linecap="butt" stroke-opacity="1.0" stroke="rgb(0, 0, 0)" stroke-linejoin="round" d=" M 735.198, 1875.000 745.198, 1875.001 755.198, 1875.003 765.198, 1875.005 775.198, 1875.007 785.198, 1875.008 795.198, 1875.010 805.198, 1875.012 815.198, 1875.013 825.198, 1875.015 835.198, 1875.017 845.198, 1875.018 855.198, 1875.020 865.198, 1875.022 875.198, 1875.024 885.198, 1875.025 895.198, 1875.027 905.198, 1875.029 915.198, 1875.030 925.198, 1875.032 935.198, 1875.034 945.198, 1875.036 955.198, 1875.037 965.198, 1875.039 975.198, 1875.041 985.198, 1875.042 995.198, 1875.044 1005.198, 1875.046 1015.198, 1875.048 1025.198, 1875.049 1031.546, 1875.050 1041.546, 1875.052 1041.870, 1875.052 " />
            <path fill="none" stroke-width="3.0" stroke-linecap="butt" stroke-opacity="1.0" stroke="rgb(0, 0, 0)" stroke-linejoin="round" d=" M 2087.656, 1298.984 2086.566, 1296.569 2085.598, 1294.101 2084.754, 1291.589 2084.036, 1289.037 2083.446, 1286.453 2082.986, 1283.842 2082.656, 1281.212 2082.458, 1278.569 2082.392, 1275.919 2082.458, 1273.269 2082.656, 1270.625 " />
            <path fill="none" stroke-width="3.0" stroke-linecap="butt" stroke-opacity="1.0" stroke="rgb(0, 0, 0)" stroke-linejoin="round" d=" M 2082.656, 1270.625 2082.986, 1267.995 " />
            <path fill="none" stroke-width="3.0" stroke-linecap="butt" stroke-opacity="1.0" stroke="rgb(0, 0, 0)" stroke-linejoin="round" d=" M 2091.630, 1305.865 2090.191, 1303.639 2088.866, 1301.344 2087.656, 1298.984 " />
            <path fill="none" stroke-width="3.0" stroke-linecap="butt" stroke-opacity="1.0" stroke="rgb(0, 0, 0)" stroke-linejoin="round" d=" M 2082.986, 1267.995 2083.446, 1265.385 " />
            <path fill="none" stroke-width="3.0" stroke-linecap="butt" stroke-opacity="1.0" stroke="rgb(0, 0, 0)" stroke-linejoin="round" d=" M 2083.446, 1265.385 2084.036, 1262.801 2084.754, 1260.249 2085.598, 1257.736 " />
            <path fill="none" stroke-width="3.0" stroke-linecap="butt" stroke-opacity="1.0" stroke="rgb(0, 0, 0)" stroke-linejoin="round" d=" M 2100.377, 1315.779 2098.434, 1313.975 2096.584, 1312.078 2094.830, 1310.090 2093.177, 1308.018 2091.630, 1305.865 " />
            <path fill="none" stroke-width="3.0" stroke-linecap="butt" stroke-opacity="1.0" stroke="rgb(0, 0, 0)" stroke-linejoin="round" d=" M 2085.598, 1257.736 2086.566, 1255.268 2087.656, 1252.853 2088.866, 1250.494 " />
            <path fill="none" stroke-width="3.0" stroke-linecap="butt" stroke-opacity="1.0" stroke="rgb(0, 0, 0)" stroke-linejoin="round" d=" M 740.576, 1875.000 740.785, 1875.000 750.785, 1875.002 759.937, 1875.004 " />
            <path fill="none" stroke-width="3.0" stroke-linecap="butt" stroke-opacity="1.0" stroke="rgb(0, 0, 0)" stroke-linejoin="round" d=" M 2088.866, 1250.494 2090.191, 1248.199 2091.630, 1245.971 2093.177, 1243.820 " />
            <path fill="none" stroke-width="3.0" stroke-linecap="butt" stroke-opacity="1.0" stroke="rgb(0, 0, 0)" stroke-linejoin="round" d=" M 735.629, 1875.000 739.753, 1875.000 739.840, 1875.000 739.905, 1875.000 " />
            <path fill="none" stroke-width="3.0" stroke-linecap="butt" stroke-opacity="1.0" stroke="rgb(0, 0, 0)" stroke-linejoin="round" d=" M 737.391, 1875.000 737.539, 1875.000 737.539, 1875.000 738.021, 1875.000 738.670, 1875.000 738.898, 1875.000 739.066, 1875.000 739.121, 1875.000 " />
            <path fill="none" stroke-width="3.0" stroke-linecap="butt" stroke-opacity="1.0" stroke="rgb(0, 0, 0)" stroke-linejoin="round" d=" M 2093.177, 1243.820 2094.830, 1241.747 " />
            <path fill="none" stroke-width="3.0" stroke-linecap="butt" stroke-opacity="1.0" stroke="rgb(0, 0, 0)" stroke-linejoin="round" d=" M 736.273, 1875.000 736.362, 1875.000 736.437, 1875.000 " />
            <path fill="none" stroke-width="3.0" stroke-linecap="butt" stroke-opacity="1.0" stroke="rgb(0, 0, 0)" stroke-linejoin="round" d=" M 2094.830, 1241.747 2096.584, 1239.759 2098.434, 1237.862 2100.377, 1236.059 " />
            <path fill="none" stroke-width="3.0" stroke-linecap="butt" stroke-opacity="1.0" stroke="rgb(0, 0, 0)" stroke-linejoin="round" d=" M 521.168, 1874.963 531.168, 1874.965 541.168, 1874.966 551.168, 1874.968 561.168, 1874.970 571.168, 1874.972 581.168, 1874.973 591.168, 1874.975 601.168, 1874.977 611.168, 1874.978 621.168, 1874.980 631.168, 1874.982 641.168, 1874.984 651.168, 1874.985 661.168, 1874.987 671.168, 1874.989 681.168, 1874.990 691.168, 1874.992 701.168, 1874.994 711.168, 1874.996 721.168, 1874.997 731.168, 1874.999 735.145, 1875.000 735.198, 1875.000 " />
            <path fill="none" stroke-width="3.0" stroke-linecap="butt" stroke-opacity="1.0" stroke="rgb(0, 0, 0)" stroke-linejoin="round" d=" M 521.168, 1874.963 531.168, 1874.965 541.168, 1874.966 551.168, 1874.968 561.168, 1874.970 571.168, 1874.971 581.168, 1874.973 591.168, 1874.975 601.168, 1874.977 611.168, 1874.978 621.168, 1874.980 631.168, 1874.982 641.168, 1874.983 651.168, 1874.985 661.168, 1874.987 671.168, 1874.988 681.168, 1874.990 691.168, 1874.992 701.168, 1874.993 711.168, 1874.995 721.168, 1874.997 730.514, 1874.998 733.890, 1874.999 733.907, 1874.999 734.117, 1874.999 734.174, 1874.999 " />
            <path fill="none" stroke-width="3.0" stroke-linecap="butt" stroke-opacity="1.0" stroke="rgb(0, 0, 0)" stroke-linejoin="round" d=" M 2100.377, 1236.059 2102.408, 1234.355 2104.521, 1232.755 2106.711, 1231.261 2108.973, 1229.879 2111.301, 1228.611 2113.689, 1227.461 2116.132, 1226.431 2118.623, 1225.525 " />
            <path fill="none" stroke-width="3.0" stroke-linecap="butt" stroke-opacity="1.0" stroke="rgb(0, 0, 0)" stroke-linejoin="round" d=" M 1666.548, 408.026 1664.029, 410.609 1661.384, 413.064 1658.620, 415.383 1655.744, 417.561 1652.763, 419.594 1649.684, 421.475 1646.516, 423.200 1643.265, 424.766 1639.940, 426.168 1636.550, 427.401 1633.103, 428.464 1629.606, 429.355 1626.070, 430.070 1622.502, 430.608 1618.912, 430.967 1615.309, 431.147 1611.701, 431.147 1608.097, 430.967 1604.508, 430.608 1600.940, 430.070 1597.403, 429.355 1593.907, 428.464 1590.459, 427.401 1587.069, 426.168 1583.744, 424.766 1580.494, 423.200 1577.325, 421.475 1574.247, 419.594 1571.266, 417.561 1568.390, 415.383 1565.626, 413.064 1562.981, 410.609 1560.461, 408.026 1558.075, 405.322 1555.825, 402.501 1553.719, 399.572 1551.761, 396.541 1549.957, 393.416 1548.312, 390.206 1546.828, 386.917 1545.509, 383.558 1544.361, 380.138 1543.383, 376.665 1542.580, 373.148 1541.954, 369.594 1541.505, 366.014 1541.235, 362.417 1541.146, 358.810 1541.235, 355.203 1541.505, 351.605 1541.954, 348.025 1542.580, 344.472 1543.383, 340.955 1544.361, 337.481 1545.509, 334.061 1546.828, 330.703 1548.312, 327.414 1549.957, 324.204 1551.761, 321.079 1553.719, 318.048 1555.825, 315.120 1558.075, 312.299 1560.461, 309.593 1562.981, 307.010 1565.626, 304.557 1568.390, 302.237 1571.266, 300.058 1574.247, 298.026 1577.325, 296.145 1580.494, 294.420 1583.744, 292.854 1587.069, 291.453 1590.459, 290.219 1593.907, 289.155 1597.403, 288.265 1600.940, 287.550 1604.508, 287.012 1608.097, 286.653 1611.701, 286.473 1615.309, 286.473 1618.912, 286.653 1622.502, 287.012 1626.070, 287.550 1629.606, 288.265 1633.103, 289.155 1636.550, 290.219 1639.940, 291.453 1643.265, 292.854 1646.516, 294.420 1649.684, 296.145 1652.763, 298.026 1655.744, 300.058 1658.620, 302.237 1661.384, 304.557 1664.029, 307.010 1666.548, 309.593 1668.935, 312.299 1671.185, 315.120 1673.291, 318.048 1675.248, 321.079 1677.052, 324.204 1678.698, 327.414 1680.182, 330.703 1681.500, 334.061 1682.649, 337.481 1683.626, 340.955 1684.429, 344.472 1685.056, 348.025 1685.504, 351.605 1685.774, 355.203 1685.864, 358.810 1685.774, 362.417 1685.504, 366.014 1685.056, 369.594 1684.429, 373.148 1683.626, 376.665 1682.649, 380.138 1681.500, 383.558 1680.182, 386.917 1678.698, 390.206 1677.052, 393.416 1675.248, 396.541 1673.291, 399.572 1671.185, 402.501 1668.935, 405.322 1666.548, 408.026 " />
            <path fill="none" stroke-width="3.0" stroke-linecap="butt" stroke-opacity="1.0" stroke="rgb(0, 0, 0)" stroke-linejoin="round" d=" M 2880.030, 23.632 2870.030, 23.632 2860.030, 23.632 2850.030, 23.632 2840.030, 23.632 2830.030, 23.632 2820.030, 23.632 2810.030, 23.632 2800.030, 23.632 2790.030, 23.632 2780.030, 23.632 2770.030, 23.632 2760.030, 23.632 2750.030, 23.632 2740.030, 23.632 2730.030, 23.632 2727.334, 23.632 2725.771, 23.632 2724.178, 23.632 2722.559, 23.632 2720.918, 23.632 2719.261, 23.632 2717.591, 23.632 2715.915, 23.632 2714.238, 23.632 2712.564, 23.632 2710.901, 23.632 2700.901, 23.632 2690.901, 23.632 2680.901, 23.632 2670.901, 23.632 2660.901, 23.632 2650.901, 23.632 2640.901, 23.632 2630.901, 23.632 2620.901, 23.632 2610.901, 23.632 2600.901, 23.632 2590.901, 23.632 2580.901, 23.632 2570.901, 23.632 2560.901, 23.632 2550.901, 23.632 2540.901, 23.632 2530.901, 23.632 2520.901, 23.632 2510.901, 23.632 2500.901, 23.632 2490.901, 23.632 2480.901, 23.632 2470.901, 23.632 2460.901, 23.632 2450.901, 23.632 2440.901, 23.632 2430.901, 23.632 2420.901, 23.632 2410.901, 23.632 2400.901, 23.632 2390.901, 23.632 2380.901, 23.632 2370.901, 23.632 2360.901, 23.632 2350.901, 23.632 2340.901, 23.632 2330.901, 23.632 2320.901, 23.632 2310.901, 23.632 2300.901, 23.632 2290.901, 23.632 2280.901, 23.632 2270.901, 23.632 2260.901, 23.632 2250.901, 23.632 2240.901, 23.632 2230.578, 23.632 2226.466, 23.632 2222.391, 23.632 2218.365, 23.632 2214.404, 23.632 2210.518, 23.632 2206.723, 23.632 2203.031, 23.632 2193.031, 23.632 2183.031, 23.632 2173.031, 23.632 2163.031, 23.632 2153.031, 23.632 2143.031, 23.632 2133.031, 23.632 2123.031, 23.632 2113.031, 23.632 2103.031, 23.632 2093.031, 23.632 2083.031, 23.632 2073.031, 23.632 2063.031, 23.632 2053.031, 23.632 2043.031, 23.632 2033.031, 23.632 2023.031, 23.632 2013.031, 23.632 2003.031, 23.632 1993.031, 23.632 1987.468, 23.632 1983.687, 23.632 1979.992, 23.632 1976.393, 23.632 1972.901, 23.632 1969.530, 23.632 1959.530, 23.632 1949.530, 23.632 1939.530, 23.632 1929.530, 23.632 1919.530, 23.632 1909.530, 23.632 1899.530, 23.632 1889.530, 23.632 1887.079, 23.632 1883.743, 23.632 1880.515, 23.632 1877.406, 23.632 1874.424, 23.632 1871.578, 23.632 1868.875, 23.632 " />
            <path fill="none" stroke-width="3.0" stroke-linecap="butt" stroke-opacity="1.0" stroke="rgb(0, 0, 0)" stroke-linejoin="round" d=" M 1868.875, 23.632 1867.437, 23.678 1866.243, 23.716 1865.198, 23.678 1863.934, 23.632 " />
            <path fill="none" stroke-width="3.0" stroke-linecap="butt" stroke-opacity="1.0" stroke="rgb(0, 0, 0)" stroke-linejoin="round" d=" M 1251.281, 23.632 1247.183, 23.632 1242.989, 23.632 1232.989, 23.634 1222.989, 23.637 1212.989, 23.639 1202.989, 23.641 1192.989, 23.643 1182.989, 23.646 1172.989, 23.648 1162.989, 23.650 1152.989, 23.652 1142.989, 23.655 1132.989, 23.657 1122.989, 23.659 1112.989, 23.661 1102.989, 23.664 1092.989, 23.666 1082.989, 23.668 1072.989, 23.670 1062.989, 23.673 1055.362, 23.674 1050.694, 23.632 " />
            <path fill="none" stroke-width="3.0" stroke-linecap="butt" stroke-opacity="1.0" stroke="rgb(0, 0, 0)" stroke-linejoin="round" d=" M 1346.465, 23.632 1336.465, 23.640 1326.465, 23.647 1316.465, 23.655 1306.465, 23.663 1296.465, 23.670 1286.465, 23.678 1276.465, 23.686 1266.465, 23.693 1262.976, 23.696 1259.232, 23.706 1255.363, 23.706 1251.281, 23.632 " />
            <path fill="none" stroke-width="3.0" stroke-linecap="butt" stroke-opacity="1.0" stroke="rgb(0, 0, 0)" stroke-linejoin="round" d=" M 1863.934, 23.632 1853.934, 23.633 1843.934, 23.634 1833.934, 23.634 1823.934, 23.635 1813.934, 23.636 1803.934, 23.637 1793.934, 23.637 1783.934, 23.638 1773.934, 23.639 1763.934, 23.640 1753.934, 23.640 1743.934, 23.641 1733.934, 23.642 1723.934, 23.643 1713.934, 23.643 1703.934, 23.644 1693.934, 23.645 1683.934, 23.646 1673.934, 23.646 1663.934, 23.647 1653.934, 23.648 1643.934, 23.649 1633.934, 23.649 1623.934, 23.650 1613.934, 23.651 1603.934, 23.652 1593.934, 23.652 1583.934, 23.653 1573.934, 23.654 1563.934, 23.655 1553.934, 23.656 1543.934, 23.656 1533.934, 23.657 1523.934, 23.658 1513.934, 23.658 1503.934, 23.659 1493.934, 23.660 1483.934, 23.661 1473.934, 23.661 1463.934, 23.662 1453.934, 23.663 1443.934, 23.664 1433.934, 23.665 1423.934, 23.665 1413.934, 23.666 1403.934, 23.667 1393.934, 23.668 1383.934, 23.668 1373.934, 23.669 1363.934, 23.670 1350.167, 23.671 1346.465, 23.632 " />
            <path fill="none" stroke-width="3.0" stroke-linecap="butt" stroke-opacity="1.0" stroke="rgb(0, 0, 0)" stroke-linejoin="round" d=" M 733.890, 1874.999 730.514, 1874.998 " />
            <path fill="none" stroke-width="3.0" stroke-linecap="butt" stroke-opacity="1.0" stroke="rgb(0, 0, 0)" stroke-linejoin="round" d=" M 521.168, 1874.963 531.168, 1874.965 541.168, 1874.966 551.168, 1874.968 561.168, 1874.970 571.168, 1874.972 581.168, 1874.973 591.168, 1874.975 601.168, 1874.977 611.168, 1874.978 621.168, 1874.980 631.168, 1874.982 641.168, 1874.984 651.168, 1874.985 661.168, 1874.987 671.168, 1874.989 681.168, 1874.990 691.168, 1874.992 701.168, 1874.994 711.168, 1874.995 721.168, 1874.997 731.071, 1874.999 731.505, 1874.999 734.933, 1875.000 " />
            <path fill="none" stroke-width="3.0" stroke-linecap="butt" stroke-opacity="1.0" stroke="rgb(0, 0, 0)" stroke-linejoin="round" d=" M 2077.804, 1875.229 2087.804, 1875.230 2097.804, 1875.232 2107.804, 1875.234 2117.804, 1875.236 2127.804, 1875.237 2137.804, 1875.239 2147.804, 1875.241 2157.804, 1875.242 2167.804, 1875.244 2177.804, 1875.246 2187.804, 1875.247 2197.804, 1875.249 2207.804, 1875.251 2217.804, 1875.253 2227.804, 1875.254 2237.804, 1875.256 2247.804, 1875.258 2257.804, 1875.259 2267.804, 1875.261 2277.804, 1875.263 2287.804, 1875.265 2297.804, 1875.266 2307.804, 1875.268 2317.804, 1875.270 2327.804, 1875.271 2337.804, 1875.273 2347.804, 1875.275 2357.804, 1875.277 2367.804, 1875.278 2377.804, 1875.280 2387.804, 1875.282 2397.804, 1875.283 2407.804, 1875.285 2417.804, 1875.287 2427.804, 1875.288 2437.804, 1875.290 2447.804, 1875.292 2457.804, 1875.294 2467.804, 1875.295 2477.804, 1875.297 2487.804, 1875.299 2497.804, 1875.300 2507.804, 1875.302 2517.804, 1875.304 2527.804, 1875.306 2537.804, 1875.307 2547.804, 1875.309 2557.804, 1875.311 2567.804, 1875.312 2577.804, 1875.314 2587.804, 1875.316 2597.804, 1875.317 2607.804, 1875.319 2617.804, 1875.321 2627.804, 1875.323 2637.804, 1875.324 2647.804, 1875.326 2657.804, 1875.328 2667.804, 1875.329 2677.804, 1875.331 2687.804, 1875.333 2703.761, 1875.336 2713.761, 1875.337 2723.761, 1875.339 2733.761, 1875.341 2743.761, 1875.342 2753.761, 1875.344 2763.761, 1875.346 2773.761, 1875.347 2783.761, 1875.349 2793.761, 1875.351 2803.761, 1875.352 2813.761, 1875.354 2823.761, 1875.356 2833.761, 1875.357 2843.761, 1875.359 2853.761, 1875.361 2863.761, 1875.362 2873.761, 1875.364 2883.761, 1875.366 2893.761, 1875.367 2903.761, 1875.369 2913.761, 1875.371 2923.761, 1875.372 2933.761, 1875.374 2943.761, 1875.376 2951.410, 1875.377 " />
            <path fill="none" stroke-width="3.0" stroke-linecap="butt" stroke-opacity="1.0" stroke="rgb(0, 0, 0)" stroke-linejoin="round" d=" M 735.122, 1875.000 735.145, 1875.000 " />
            <path fill="none" stroke-width="3.0" stroke-linecap="butt" stroke-opacity="1.0" stroke="rgb(0, 0, 0)" stroke-linejoin="round" d=" M 735.070, 1875.000 735.122, 1875.000 " />
            <path fill="none" stroke-width="3.0" stroke-linecap="butt" stroke-opacity="1.0" stroke="rgb(0, 0, 0)" stroke-linejoin="round" d=" M 734.868, 1875.000 734.896, 1875.000 734.933, 1875.000 735.070, 1875.000 " />
            <path fill="none" stroke-width="3.0" stroke-linecap="butt" stroke-opacity="1.0" stroke="rgb(0, 0, 0)" stroke-linejoin="round" d=" M 734.654, 1874.999 734.679, 1874.999 734.730, 1874.999 734.734, 1874.999 734.763, 1874.999 734.815, 1874.999 734.855, 1875.000 734.860, 1875.000 734.868, 1875.000 " />
            <path fill="none" stroke-width="3.0" stroke-linecap="butt" stroke-opacity="1.0" stroke="rgb(0, 0, 0)" stroke-linejoin="round" d=" M 734.583, 1874.999 734.654, 1874.999 " />
            <path fill="none" stroke-width="3.0" stroke-linecap="butt" stroke-opacity="1.0" stroke="rgb(0, 0, 0)" stroke-linejoin="round" d=" M 734.329, 1874.999 734.495, 1874.999 734.583, 1874.999 " />
            <path fill="none" stroke-width="3.0" stroke-linecap="butt" stroke-opacity="1.0" stroke="rgb(0, 0, 0)" stroke-linejoin="round" d=" M 734.265, 1874.999 734.329, 1874.999 " />
            <path fill="none" stroke-width="3.0" stroke-linecap="butt" stroke-opacity="1.0" stroke="rgb(0, 0, 0)" stroke-linejoin="round" d=" M 734.174, 1874.999 734.265, 1874.999 " />
            <path fill="none" stroke-width="3.0" stroke-linecap="butt" stroke-opacity="1.0" stroke="rgb(0, 0, 0)" stroke-linejoin="round" d=" M 735.778, 1875.000 735.797, 1875.000 735.810, 1875.000 735.901, 1875.000 736.020, 1875.000 736.088, 1875.000 736.096, 1875.000 736.216, 1875.000 736.273, 1875.000 " />
            <path fill="none" stroke-width="3.0" stroke-linecap="butt" stroke-opacity="1.0" stroke="rgb(0, 0, 0)" stroke-linejoin="round" d=" M 735.315, 1875.000 735.629, 1875.000 735.714, 1875.000 735.778, 1875.000 " />
            <path fill="none" stroke-width="3.0" stroke-linecap="butt" stroke-opacity="1.0" stroke="rgb(0, 0, 0)" stroke-linejoin="round" d=" M 735.198, 1875.000 735.315, 1875.000 " />
            <path fill="none" stroke-width="3.0" stroke-linecap="butt" stroke-opacity="1.0" stroke="rgb(0, 0, 0)" stroke-linejoin="round" d=" M 737.178, 1875.000 737.391, 1875.000 " />
            <path fill="none" stroke-width="3.0" stroke-linecap="butt" stroke-opacity="1.0" stroke="rgb(0, 0, 0)" stroke-linejoin="round" d=" M 737.028, 1875.000 737.178, 1875.000 " />
            <path fill="none" stroke-width="3.0" stroke-linecap="butt" stroke-opacity="1.0" stroke="rgb(0, 0, 0)" stroke-linejoin="round" d=" M 736.437, 1875.000 736.641, 1875.000 737.028, 1875.000 " />
            <path fill="none" stroke-width="3.0" stroke-linecap="butt" stroke-opacity="1.0" stroke="rgb(0, 0, 0)" stroke-linejoin="round" d=" M 739.699, 1875.000 739.722, 1875.000 739.753, 1875.000 " />
            <path fill="none" stroke-width="3.0" stroke-linecap="butt" stroke-opacity="1.0" stroke="rgb(0, 0, 0)" stroke-linejoin="round" d=" M 739.520, 1875.000 739.541, 1875.000 739.584, 1875.000 739.587, 1875.000 739.612, 1875.000 739.655, 1875.000 739.688, 1875.000 739.692, 1875.000 739.699, 1875.000 " />
            <path fill="none" stroke-width="3.0" stroke-linecap="butt" stroke-opacity="1.0" stroke="rgb(0, 0, 0)" stroke-linejoin="round" d=" M 739.462, 1875.000 739.520, 1875.000 " />
            <path fill="none" stroke-width="3.0" stroke-linecap="butt" stroke-opacity="1.0" stroke="rgb(0, 0, 0)" stroke-linejoin="round" d=" M 739.250, 1875.000 739.388, 1875.000 739.462, 1875.000 " />
            <path fill="none" stroke-width="3.0" stroke-linecap="butt" stroke-opacity="1.0" stroke="rgb(0, 0, 0)" stroke-linejoin="round" d=" M 739.196, 1875.000 739.250, 1875.000 " />
            <path fill="none" stroke-width="3.0" stroke-linecap="butt" stroke-opacity="1.0" stroke="rgb(0, 0, 0)" stroke-linejoin="round" d=" M 739.121, 1875.000 739.196, 1875.000 " />
            <path fill="none" stroke-width="3.0" stroke-linecap="butt" stroke-opacity="1.0" stroke="rgb(0, 0, 0)" stroke-linejoin="round" d=" M 740.410, 1875.000 740.576, 1875.000 " />
            <path fill="none" stroke-width="3.0" stroke-linecap="butt" stroke-opacity="1.0" stroke="rgb(0, 0, 0)" stroke-linejoin="round" d=" M 739.905, 1875.000 739.925, 1875.000 739.937, 1875.000 740.031, 1875.000 740.152, 1875.000 740.221, 1875.000 740.229, 1875.000 740.351, 1875.000 740.410, 1875.000 " />
            <path fill="none" stroke-width="3.0" stroke-linecap="butt" stroke-opacity="1.0" stroke="rgb(0, 0, 0)" stroke-linejoin="round" d=" M 734.495, 1874.999 732.497, 1874.999 730.837, 1874.999 720.837, 1874.997 710.837, 1874.995 700.837, 1874.994 690.837, 1874.992 680.837, 1874.990 670.837, 1874.988 660.837, 1874.987 650.837, 1874.985 640.837, 1874.983 630.837, 1874.982 620.837, 1874.980 610.837, 1874.978 600.837, 1874.977 590.837, 1874.975 580.837, 1874.973 570.837, 1874.971 560.838, 1874.970 550.837, 1874.968 540.837, 1874.966 530.837, 1874.965 521.168, 1874.963 531.168, 1874.965 541.168, 1874.966 551.168, 1874.968 561.168, 1874.970 571.168, 1874.972 581.168, 1874.973 591.168, 1874.975 601.168, 1874.977 611.168, 1874.978 621.168, 1874.980 631.168, 1874.982 641.168, 1874.983 651.168, 1874.985 661.168, 1874.987 671.168, 1874.988 681.168, 1874.990 691.168, 1874.992 701.168, 1874.994 711.168, 1874.995 721.168, 1874.997 730.749, 1874.999 732.877, 1874.999 734.329, 1874.999 " />
            <path fill="none" stroke-width="3.0" stroke-linecap="butt" stroke-opacity="1.0" stroke="rgb(0, 0, 0)" stroke-linejoin="round" d=" M 739.388, 1875.000 736.641, 1875.000 " />
            <path fill="none" stroke-width="3.0" stroke-linecap="butt" stroke-opacity="1.0" stroke="rgb(0, 0, 0)" stroke-linejoin="round" d=" M 521.168, 1874.963 531.168, 1874.965 541.168, 1874.966 551.168, 1874.968 561.168, 1874.970 571.168, 1874.972 581.168, 1874.973 591.168, 1874.975 601.168, 1874.977 611.168, 1874.978 621.168, 1874.980 631.168, 1874.982 641.168, 1874.984 651.168, 1874.985 661.168, 1874.987 671.168, 1874.989 681.168, 1874.990 691.168, 1874.992 701.168, 1874.994 711.168, 1874.996 721.168, 1874.997 731.168, 1874.999 735.122, 1875.000 " />
            <path fill="none" stroke-width="3.0" stroke-linecap="butt" stroke-opacity="1.0" stroke="rgb(0, 0, 0)" stroke-linejoin="round" d=" M 981.658, 1875.042 991.658, 1875.044 1001.658, 1875.045 1011.658, 1875.047 1021.658, 1875.049 1031.546, 1875.050 " />
            <path fill="none" stroke-width="3.0" stroke-linecap="butt" stroke-opacity="1.0" stroke="rgb(0, 0, 0)" stroke-linejoin="round" d=" M 853.841, 1875.020 863.841, 1875.022 866.981, 1875.022 876.981, 1875.024 886.981, 1875.026 896.981, 1875.027 906.981, 1875.029 916.981, 1875.031 926.981, 1875.032 936.981, 1875.034 946.981, 1875.036 956.981, 1875.038 966.981, 1875.039 976.981, 1875.041 981.658, 1875.042 " />
            <path fill="none" stroke-width="3.0" stroke-linecap="butt" stroke-opacity="1.0" stroke="rgb(0, 0, 0)" stroke-linejoin="round" d=" M 777.839, 1875.007 784.860, 1875.008 794.860, 1875.010 800.659, 1875.011 801.847, 1875.011 811.740, 1875.013 821.740, 1875.014 830.919, 1875.016 840.919, 1875.018 847.604, 1875.019 850.028, 1875.019 853.841, 1875.020 " />
            <path fill="none" stroke-width="3.0" stroke-linecap="butt" stroke-opacity="1.0" stroke="rgb(0, 0, 0)" stroke-linejoin="round" d=" M 759.937, 1875.004 769.937, 1875.005 777.839, 1875.007 " />
            <path fill="none" stroke-width="3.0" stroke-linecap="butt" stroke-opacity="1.0" stroke="rgb(0, 0, 0)" stroke-linejoin="round" d=" M 521.168, 1874.963 531.168, 1874.965 541.168, 1874.966 551.168, 1874.968 561.168, 1874.970 571.168, 1874.972 581.168, 1874.973 591.168, 1874.975 601.168, 1874.977 611.168, 1874.978 621.168, 1874.980 631.168, 1874.982 641.168, 1874.984 651.168, 1874.985 661.168, 1874.987 671.168, 1874.989 681.168, 1874.990 691.168, 1874.992 701.168, 1874.994 711.168, 1874.996 721.168, 1874.997 731.168, 1874.999 735.122, 1875.000 " />
            <path fill="none" stroke-width="3.0" stroke-linecap="butt" stroke-opacity="1.0" stroke="rgb(0, 0, 0)" stroke-linejoin="round" d=" M 1144.264, 1875.069 1154.264, 1875.071 1164.264, 1875.072 1165.735, 1875.073 " />
            <path fill="none" stroke-width="3.0" stroke-linecap="butt" stroke-opacity="1.0" stroke="rgb(0, 0, 0)" stroke-linejoin="round" d=" M 1086.847, 1875.060 1088.896, 1875.060 1090.231, 1875.060 1100.182, 1875.062 1110.182, 1875.063 1113.557, 1875.064 1121.452, 1875.065 1122.452, 1875.065 1132.452, 1875.067 1136.979, 1875.068 1144.264, 1875.069 " />
            <path fill="none" stroke-width="3.0" stroke-linecap="butt" stroke-opacity="1.0" stroke="rgb(0, 0, 0)" stroke-linejoin="round" d=" M 1041.870, 1875.052 1051.870, 1875.054 1061.870, 1875.055 1071.870, 1875.057 1080.236, 1875.058 1086.847, 1875.060 " />
            <path fill="none" stroke-width="3.0" stroke-linecap="butt" stroke-opacity="1.0" stroke="rgb(0, 0, 0)" stroke-linejoin="round" d=" M 1185.353, 1875.076 1185.814, 1875.076 " />
            <path fill="none" stroke-width="3.0" stroke-linecap="butt" stroke-opacity="1.0" stroke="rgb(0, 0, 0)" stroke-linejoin="round" d=" M 734.265, 1874.999 733.024, 1874.999 730.715, 1874.999 720.715, 1874.997 710.715, 1874.995 700.715, 1874.993 690.715, 1874.992 680.715, 1874.990 670.715, 1874.988 660.715, 1874.987 650.715, 1874.985 640.715, 1874.983 630.715, 1874.982 620.715, 1874.980 610.715, 1874.978 600.715, 1874.977 590.715, 1874.975 580.715, 1874.973 570.715, 1874.971 560.715, 1874.970 550.715, 1874.968 540.715, 1874.966 530.715, 1874.965 521.168, 1874.963 " />
            <path fill="none" stroke-width="3.0" stroke-linecap="butt" stroke-opacity="1.0" stroke="rgb(0, 0, 0)" stroke-linejoin="round" d=" M 739.196, 1875.000 737.178, 1875.000 " />
            <path fill="none" stroke-width="3.0" stroke-linecap="butt" stroke-opacity="1.0" stroke="rgb(0, 0, 0)" stroke-linejoin="round" d=" M 1186.188, 1875.076 1187.673, 1875.076 " />
            <path fill="none" stroke-width="3.0" stroke-linecap="butt" stroke-opacity="1.0" stroke="rgb(0, 0, 0)" stroke-linejoin="round" d=" M 1165.735, 1875.073 1175.735, 1875.074 1185.735, 1875.076 1187.673, 1875.076 " />
            <path fill="none" stroke-width="3.0" stroke-linecap="butt" stroke-opacity="1.0" stroke="rgb(0, 0, 0)" stroke-linejoin="round" d=" M 740.576, 1875.000 750.576, 1875.002 759.937, 1875.004 " />
            <path fill="none" stroke-width="3.0" stroke-linecap="butt" stroke-opacity="1.0" stroke="rgb(0, 0, 0)" stroke-linejoin="round" d=" M 736.437, 1875.000 739.462, 1875.000 " />
            <path fill="none" stroke-width="3.0" stroke-linecap="butt" stroke-opacity="1.0" stroke="rgb(0, 0, 0)" stroke-linejoin="round" d=" M 521.168, 1874.963 531.168, 1874.965 541.168, 1874.966 551.168, 1874.968 561.168, 1874.970 571.168, 1874.972 581.168, 1874.973 591.168, 1874.975 601.168, 1874.977 611.168, 1874.978 621.168, 1874.980 631.168, 1874.982 641.168, 1874.983 651.168, 1874.985 661.168, 1874.987 671.168, 1874.989 681.168, 1874.990 691.168, 1874.992 701.168, 1874.994 711.168, 1874.995 721.168, 1874.997 730.884, 1874.999 732.297, 1874.999 734.583, 1874.999 " />
            <path fill="none" stroke-width="3.0" stroke-linecap="butt" stroke-opacity="1.0" stroke="rgb(0, 0, 0)" stroke-linejoin="round" d=" M 739.250, 1875.000 737.028, 1875.000 " />
            <path fill="none" stroke-width="3.0" stroke-linecap="butt" stroke-opacity="1.0" stroke="rgb(0, 0, 0)" stroke-linejoin="round" d=" M 1186.188, 1875.076 1185.353, 1875.076 " />
            <path fill="none" stroke-width="3.0" stroke-linecap="butt" stroke-opacity="1.0" stroke="rgb(0, 0, 0)" stroke-linejoin="round" d=" M 740.410, 1875.000 750.410, 1875.002 760.410, 1875.004 770.410, 1875.005 777.839, 1875.007 " />
            <path fill="none" stroke-width="3.0" stroke-linecap="butt" stroke-opacity="1.0" stroke="rgb(0, 0, 0)" stroke-linejoin="round" d=" M 736.273, 1875.000 739.520, 1875.000 " />
            <path fill="none" stroke-width="3.0" stroke-linecap="butt" stroke-opacity="1.0" stroke="rgb(0, 0, 0)" stroke-linejoin="round" d=" M 521.168, 1874.963 531.168, 1874.965 541.168, 1874.966 551.168, 1874.968 561.168, 1874.970 571.168, 1874.972 581.168, 1874.973 591.168, 1874.975 601.168, 1874.977 611.168, 1874.978 621.168, 1874.980 631.168, 1874.982 641.168, 1874.983 651.168, 1874.985 661.168, 1874.987 671.168, 1874.989 681.168, 1874.990 691.168, 1874.992 701.168, 1874.994 711.168, 1874.995 721.168, 1874.997 730.922, 1874.999 732.137, 1874.999 734.654, 1874.999 " />
            <path fill="none" stroke-width="3.0" stroke-linecap="butt" stroke-opacity="1.0" stroke="rgb(0, 0, 0)" stroke-linejoin="round" d=" M 734.174, 1874.999 733.233, 1874.999 730.666, 1874.999 720.666, 1874.997 710.666, 1874.995 700.666, 1874.993 690.666, 1874.992 680.666, 1874.990 670.666, 1874.988 660.666, 1874.987 650.666, 1874.985 640.666, 1874.983 630.666, 1874.982 620.666, 1874.980 610.666, 1874.978 600.666, 1874.977 590.666, 1874.975 580.666, 1874.973 570.666, 1874.971 560.666, 1874.970 550.666, 1874.968 540.666, 1874.966 530.666, 1874.965 521.168, 1874.963 " />
            <path fill="none" stroke-width="3.0" stroke-linecap="butt" stroke-opacity="1.0" stroke="rgb(0, 0, 0)" stroke-linejoin="round" d=" M 739.121, 1875.000 737.391, 1875.000 " />
            <path fill="none" stroke-width="3.0" stroke-linecap="butt" stroke-opacity="1.0" stroke="rgb(0, 0, 0)" stroke-linejoin="round" d=" M 1041.870, 1875.052 1051.870, 1875.054 1061.870, 1875.056 1071.870, 1875.057 1081.870, 1875.059 1091.870, 1875.061 1101.870, 1875.062 1111.870, 1875.064 1121.870, 1875.066 1131.870, 1875.067 1141.870, 1875.069 1151.870, 1875.071 1161.870, 1875.073 1171.870, 1875.074 1181.870, 1875.076 1191.870, 1875.078 1201.870, 1875.079 1211.870, 1875.081 1221.870, 1875.083 1231.870, 1875.085 1241.870, 1875.086 1251.870, 1875.088 1261.870, 1875.090 1271.870, 1875.091 1281.870, 1875.093 1291.870, 1875.095 1301.870, 1875.097 1311.870, 1875.098 1321.870, 1875.100 1331.870, 1875.102 1341.870, 1875.103 1351.870, 1875.105 1361.870, 1875.107 1371.870, 1875.109 1381.870, 1875.110 1391.870, 1875.112 1402.465, 1875.114 " />
            <path fill="none" stroke-width="3.0" stroke-linecap="butt" stroke-opacity="1.0" stroke="rgb(0, 0, 0)" stroke-linejoin="round" d=" M 735.315, 1875.000 745.315, 1875.001 755.315, 1875.003 765.315, 1875.005 775.315, 1875.007 785.315, 1875.008 795.315, 1875.010 805.315, 1875.012 815.315, 1875.013 825.315, 1875.015 835.315, 1875.017 845.315, 1875.018 855.315, 1875.020 865.315, 1875.022 875.315, 1875.024 885.315, 1875.025 895.315, 1875.027 905.315, 1875.029 915.315, 1875.030 925.315, 1875.032 935.315, 1875.034 945.315, 1875.036 955.315, 1875.037 965.315, 1875.039 975.315, 1875.041 981.658, 1875.042 " />
            <path fill="none" stroke-width="3.0" stroke-linecap="butt" stroke-opacity="1.0" stroke="rgb(0, 0, 0)" stroke-linejoin="round" d=" M 521.168, 1874.963 531.168, 1874.965 541.168, 1874.966 551.168, 1874.968 561.168, 1874.970 571.168, 1874.972 581.168, 1874.973 591.168, 1874.975 601.168, 1874.977 611.168, 1874.978 621.168, 1874.980 631.168, 1874.982 641.168, 1874.984 651.168, 1874.985 661.168, 1874.987 671.168, 1874.989 681.168, 1874.990 691.168, 1874.992 701.168, 1874.994 711.168, 1874.996 721.168, 1874.997 731.144, 1874.999 731.197, 1874.999 735.070, 1875.000 " />
            <path fill="none" stroke-width="3.0" stroke-linecap="butt" stroke-opacity="1.0" stroke="rgb(0, 0, 0)" stroke-linejoin="round" d=" M 1400.720, 1875.113 1400.958, 1875.113 1402.465, 1875.114 " />
            <path fill="none" stroke-width="3.0" stroke-linecap="butt" stroke-opacity="1.0" stroke="rgb(0, 0, 0)" stroke-linejoin="round" d=" M 1041.870, 1875.052 1051.870, 1875.054 1061.870, 1875.056 1071.870, 1875.057 1081.870, 1875.059 1091.870, 1875.061 1101.870, 1875.062 1111.870, 1875.064 1121.870, 1875.066 1131.870, 1875.067 1141.870, 1875.069 1151.870, 1875.071 1161.870, 1875.073 1171.870, 1875.074 1181.870, 1875.076 1191.870, 1875.078 1201.870, 1875.079 1211.870, 1875.081 1221.870, 1875.083 1231.870, 1875.085 1241.870, 1875.086 1251.870, 1875.088 1261.870, 1875.090 1271.870, 1875.091 1281.870, 1875.093 1291.870, 1875.095 1301.870, 1875.097 1311.870, 1875.098 1321.870, 1875.100 1331.870, 1875.102 1341.870, 1875.103 1351.870, 1875.105 1361.870, 1875.107 1371.870, 1875.109 1381.870, 1875.110 1391.870, 1875.112 1402.465, 1875.114 " />
            <path fill="none" stroke-width="3.0" stroke-linecap="butt" stroke-opacity="1.0" stroke="rgb(0, 0, 0)" stroke-linejoin="round" d=" M 735.315, 1875.000 745.315, 1875.001 755.315, 1875.003 765.315, 1875.005 775.315, 1875.007 785.315, 1875.008 795.315, 1875.010 805.315, 1875.012 815.315, 1875.013 825.315, 1875.015 835.315, 1875.017 845.315, 1875.018 855.315, 1875.020 865.315, 1875.022 875.315, 1875.024 885.315, 1875.025 895.315, 1875.027 905.315, 1875.029 915.315, 1875.030 925.315, 1875.032 935.315, 1875.034 945.315, 1875.036 955.315, 1875.037 965.315, 1875.039 975.315, 1875.041 981.658, 1875.042 " />
            <path fill="none" stroke-width="3.0" stroke-linecap="butt" stroke-opacity="1.0" stroke="rgb(0, 0, 0)" stroke-linejoin="round" d=" M 521.168, 1874.963 531.168, 1874.965 541.168, 1874.966 551.168, 1874.968 561.168, 1874.970 571.168, 1874.972 581.168, 1874.973 591.168, 1874.975 601.168, 1874.977 611.168, 1874.978 621.168, 1874.980 631.168, 1874.982 641.168, 1874.984 651.168, 1874.985 661.168, 1874.987 671.168, 1874.989 681.168, 1874.990 691.168, 1874.992 701.168, 1874.994 711.168, 1874.996 721.168, 1874.997 731.144, 1874.999 731.197, 1874.999 735.070, 1875.000 " />
            <path fill="none" stroke-width="3.0" stroke-linecap="butt" stroke-opacity="1.0" stroke="rgb(0, 0, 0)" stroke-linejoin="round" d=" M 2102.408, 1317.483 2100.377, 1315.779 " />
            <path fill="none" stroke-width="3.0" stroke-linecap="butt" stroke-opacity="1.0" stroke="rgb(0, 0, 0)" stroke-linejoin="round" d=" M 2104.521, 1319.082 2102.408, 1317.483 " />
            <path fill="none" stroke-width="3.0" stroke-linecap="butt" stroke-opacity="1.0" stroke="rgb(0, 0, 0)" stroke-linejoin="round" d=" M 2113.689, 1324.376 2111.301, 1323.226 " />
            <path fill="none" stroke-width="3.0" stroke-linecap="butt" stroke-opacity="1.0" stroke="rgb(0, 0, 0)" stroke-linejoin="round" d=" M 2116.132, 1325.406 2113.689, 1324.376 " />
            <path fill="none" stroke-width="3.0" stroke-linecap="butt" stroke-opacity="1.0" stroke="rgb(0, 0, 0)" stroke-linejoin="round" d=" M 2131.581, 1328.932 2128.944, 1328.668 " />
            <path fill="none" stroke-width="3.0" stroke-linecap="butt" stroke-opacity="1.0" stroke="rgb(0, 0, 0)" stroke-linejoin="round" d=" M 2134.229, 1329.065 2131.581, 1328.932 " />
            <path fill="none" stroke-width="3.0" stroke-linecap="butt" stroke-opacity="1.0" stroke="rgb(0, 0, 0)" stroke-linejoin="round" d=" M 2136.879, 1329.065 2134.229, 1329.065 " />
            <path fill="none" stroke-width="3.0" stroke-linecap="butt" stroke-opacity="1.0" stroke="rgb(0, 0, 0)" stroke-linejoin="round" d=" M 2152.485, 1326.313 2149.952, 1327.094 " />
            <path fill="none" stroke-width="3.0" stroke-linecap="butt" stroke-opacity="1.0" stroke="rgb(0, 0, 0)" stroke-linejoin="round" d=" M 2164.397, 1320.576 2162.135, 1321.958 " />
            <path fill="none" stroke-width="3.0" stroke-linecap="butt" stroke-opacity="1.0" stroke="rgb(0, 0, 0)" stroke-linejoin="round" d=" M 2188.650, 1278.569 2188.452, 1281.212 " />
            <path fill="none" stroke-width="3.0" stroke-linecap="butt" stroke-opacity="1.0" stroke="rgb(0, 0, 0)" stroke-linejoin="round" d=" M 2188.716, 1275.919 2188.650, 1278.569 " />
            <path fill="none" stroke-width="3.0" stroke-linecap="butt" stroke-opacity="1.0" stroke="rgb(0, 0, 0)" stroke-linejoin="round" d=" M 1402.465, 1875.114 1412.465, 1875.115 1422.465, 1875.117 1432.465, 1875.119 1442.465, 1875.121 1452.465, 1875.122 1462.465, 1875.124 1472.465, 1875.126 1482.465, 1875.127 1492.465, 1875.129 1502.465, 1875.131 1512.465, 1875.132 1522.465, 1875.134 1532.465, 1875.136 1542.465, 1875.138 1552.465, 1875.139 1562.465, 1875.141 1572.465, 1875.143 1582.465, 1875.144 1592.465, 1875.146 1602.465, 1875.148 1612.465, 1875.149 1622.465, 1875.151 1632.465, 1875.153 1642.465, 1875.155 1652.465, 1875.156 1662.465, 1875.158 1672.465, 1875.160 1682.465, 1875.161 1692.465, 1875.163 1702.465, 1875.165 1712.465, 1875.167 1722.465, 1875.168 1732.465, 1875.170 1742.465, 1875.172 1752.465, 1875.173 1762.465, 1875.175 1772.465, 1875.177 1782.465, 1875.178 1792.465, 1875.180 1802.465, 1875.182 1812.465, 1875.184 1822.465, 1875.185 1832.465, 1875.187 1842.465, 1875.189 1852.465, 1875.190 1862.465, 1875.192 1872.465, 1875.194 1882.465, 1875.195 1892.465, 1875.197 1902.465, 1875.199 1912.465, 1875.201 1922.465, 1875.202 1932.465, 1875.204 1942.465, 1875.206 1952.465, 1875.207 1962.465, 1875.209 1972.465, 1875.211 1982.465, 1875.212 1992.465, 1875.214 2002.465, 1875.216 2012.465, 1875.218 2022.465, 1875.219 2032.465, 1875.221 2042.465, 1875.223 2052.465, 1875.224 2062.465, 1875.226 2077.804, 1875.229 2087.804, 1875.230 2097.804, 1875.232 2107.804, 1875.234 2117.804, 1875.236 2127.804, 1875.237 2137.804, 1875.239 2147.804, 1875.241 2157.804, 1875.242 2167.804, 1875.244 2177.804, 1875.246 2187.804, 1875.247 2197.804, 1875.249 2207.804, 1875.251 2217.804, 1875.253 2227.804, 1875.254 2237.804, 1875.256 2247.804, 1875.258 2257.804, 1875.259 2267.804, 1875.261 2277.804, 1875.263 2287.804, 1875.264 2293.190, 1875.265 " />
            <path fill="none" stroke-width="3.0" stroke-linecap="butt" stroke-opacity="1.0" stroke="rgb(0, 0, 0)" stroke-linejoin="round" d=" M 734.730, 1874.999 731.963, 1874.999 730.963, 1874.999 720.963, 1874.997 710.963, 1874.995 700.963, 1874.994 690.963, 1874.992 680.963, 1874.990 670.963, 1874.989 660.963, 1874.987 650.963, 1874.985 640.963, 1874.983 630.963, 1874.982 620.963, 1874.980 610.963, 1874.978 600.963, 1874.977 590.963, 1874.975 580.963, 1874.973 570.963, 1874.972 560.963, 1874.970 550.963, 1874.968 540.963, 1874.966 530.963, 1874.965 521.168, 1874.963 " />
            <path fill="none" stroke-width="3.0" stroke-linecap="butt" stroke-opacity="1.0" stroke="rgb(0, 0, 0)" stroke-linejoin="round" d=" M 739.584, 1875.000 736.096, 1875.000 " />
            <path fill="none" stroke-width="3.0" stroke-linecap="butt" stroke-opacity="1.0" stroke="rgb(0, 0, 0)" stroke-linejoin="round" d=" M 800.659, 1875.011 790.659, 1875.009 780.659, 1875.007 770.659, 1875.006 760.659, 1875.004 750.659, 1875.002 740.229, 1875.000 " />
            <path fill="none" stroke-width="3.0" stroke-linecap="butt" stroke-opacity="1.0" stroke="rgb(0, 0, 0)" stroke-linejoin="round" d=" M 1318.578, 1875.099 1308.578, 1875.097 1298.578, 1875.095 1288.578, 1875.094 1278.578, 1875.092 1268.578, 1875.090 1258.578, 1875.089 1248.578, 1875.087 1238.578, 1875.085 1228.578, 1875.084 1218.578, 1875.082 1208.578, 1875.080 1198.578, 1875.078 1188.578, 1875.077 1178.578, 1875.075 1168.578, 1875.073 1158.578, 1875.072 1148.578, 1875.070 1138.578, 1875.068 1128.578, 1875.067 1122.452, 1875.065 " />
            <path fill="none" stroke-width="3.0" stroke-linecap="butt" stroke-opacity="1.0" stroke="rgb(0, 0, 0)" stroke-linejoin="round" d=" M 2293.190, 1875.265 2303.190, 1875.267 2313.190, 1875.269 2323.190, 1875.271 2333.190, 1875.272 2343.190, 1875.274 2353.190, 1875.276 2363.190, 1875.277 2373.190, 1875.279 2378.366, 1875.280 " />
            <path fill="none" stroke-width="3.0" stroke-linecap="butt" stroke-opacity="1.0" stroke="rgb(0, 0, 0)" stroke-linejoin="round" d=" M 735.778, 1875.000 739.699, 1875.000 " />
            <path fill="none" stroke-width="3.0" stroke-linecap="butt" stroke-opacity="1.0" stroke="rgb(0, 0, 0)" stroke-linejoin="round" d=" M 731.651, 1874.999 734.868, 1875.000 " />
            <path fill="none" stroke-width="3.0" stroke-linecap="butt" stroke-opacity="1.0" stroke="rgb(0, 0, 0)" stroke-linejoin="round" d=" M 2293.190, 1875.265 2303.190, 1875.267 2313.190, 1875.269 2323.190, 1875.271 2333.190, 1875.272 2343.190, 1875.274 2353.190, 1875.276 2363.190, 1875.277 2373.190, 1875.279 2378.366, 1875.280 " />
            <path fill="none" stroke-width="3.0" stroke-linecap="butt" stroke-opacity="1.0" stroke="rgb(0, 0, 0)" stroke-linejoin="round" d=" M 1086.847, 1875.060 1096.847, 1875.061 1106.847, 1875.063 1116.847, 1875.065 1126.847, 1875.066 1136.847, 1875.068 1146.847, 1875.070 1156.847, 1875.072 1166.847, 1875.073 1176.847, 1875.075 1186.847, 1875.077 1196.847, 1875.078 1206.847, 1875.080 1216.847, 1875.082 1226.847, 1875.083 1236.847, 1875.085 1246.847, 1875.087 1256.847, 1875.089 1266.847, 1875.090 1276.847, 1875.092 1286.847, 1875.094 1296.847, 1875.095 1306.847, 1875.097 1316.847, 1875.099 1326.847, 1875.101 1336.847, 1875.102 1346.847, 1875.104 1356.847, 1875.106 1366.847, 1875.107 1376.847, 1875.109 1386.847, 1875.111 1396.847, 1875.112 1400.720, 1875.113 " />
            <path fill="none" stroke-width="3.0" stroke-linecap="butt" stroke-opacity="1.0" stroke="rgb(0, 0, 0)" stroke-linejoin="round" d=" M 739.905, 1875.000 749.905, 1875.002 759.905, 1875.004 769.905, 1875.005 779.905, 1875.007 789.905, 1875.009 799.905, 1875.011 809.905, 1875.012 819.905, 1875.014 829.905, 1875.016 839.905, 1875.017 849.905, 1875.019 853.841, 1875.020 " />
            <path fill="none" stroke-width="3.0" stroke-linecap="butt" stroke-opacity="1.0" stroke="rgb(0, 0, 0)" stroke-linejoin="round" d=" M 735.778, 1875.000 739.699, 1875.000 " />
            <path fill="none" stroke-width="3.0" stroke-linecap="butt" stroke-opacity="1.0" stroke="rgb(0, 0, 0)" stroke-linejoin="round" d=" M 521.168, 1874.963 531.168, 1874.965 541.168, 1874.966 551.168, 1874.968 561.168, 1874.970 571.168, 1874.972 581.168, 1874.973 591.168, 1874.975 601.168, 1874.977 611.168, 1874.978 621.168, 1874.980 631.168, 1874.982 641.168, 1874.984 651.168, 1874.985 661.168, 1874.987 671.168, 1874.989 681.168, 1874.990 691.168, 1874.992 701.168, 1874.994 711.168, 1874.995 721.168, 1874.997 731.036, 1874.999 731.651, 1874.999 734.868, 1875.000 " />
            <path fill="none" stroke-width="3.0" stroke-linecap="butt" stroke-opacity="1.0" stroke="rgb(0, 0, 0)" stroke-linejoin="round" d=" M 1080.236, 1875.058 1090.236, 1875.060 1100.236, 1875.062 1110.236, 1875.064 1120.236, 1875.065 1130.236, 1875.067 1140.236, 1875.069 1150.236, 1875.070 1160.236, 1875.072 1170.236, 1875.074 1180.236, 1875.076 1190.236, 1875.077 1200.236, 1875.079 1210.236, 1875.081 1220.236, 1875.082 1230.236, 1875.084 1240.236, 1875.086 1250.236, 1875.087 1260.236, 1875.089 1270.236, 1875.091 1280.236, 1875.093 1290.236, 1875.094 1300.236, 1875.096 1310.236, 1875.098 1320.236, 1875.099 1330.236, 1875.101 1340.236, 1875.103 1350.236, 1875.105 1360.236, 1875.106 1370.236, 1875.108 1380.236, 1875.110 1390.236, 1875.111 1400.958, 1875.113 " />
            <path fill="none" stroke-width="3.0" stroke-linecap="butt" stroke-opacity="1.0" stroke="rgb(0, 0, 0)" stroke-linejoin="round" d=" M 739.840, 1875.000 749.840, 1875.002 759.840, 1875.004 769.840, 1875.005 779.840, 1875.007 789.840, 1875.009 799.840, 1875.011 809.840, 1875.012 819.840, 1875.014 829.840, 1875.016 839.840, 1875.017 849.840, 1875.019 859.840, 1875.021 866.981, 1875.022 " />
            <path fill="none" stroke-width="3.0" stroke-linecap="butt" stroke-opacity="1.0" stroke="rgb(0, 0, 0)" stroke-linejoin="round" d=" M 735.714, 1875.000 739.722, 1875.000 " />
            <path fill="none" stroke-width="3.0" stroke-linecap="butt" stroke-opacity="1.0" stroke="rgb(0, 0, 0)" stroke-linejoin="round" d=" M 521.168, 1874.963 531.168, 1874.965 541.168, 1874.966 551.168, 1874.968 561.168, 1874.970 571.168, 1874.972 581.168, 1874.973 591.168, 1874.975 601.168, 1874.977 611.168, 1874.978 621.168, 1874.980 631.168, 1874.982 641.168, 1874.984 651.168, 1874.985 661.168, 1874.987 671.168, 1874.989 681.168, 1874.990 691.168, 1874.992 701.168, 1874.994 711.168, 1874.995 721.168, 1874.997 731.051, 1874.999 731.588, 1874.999 734.896, 1875.000 " />
            <path fill="none" stroke-width="3.0" stroke-linecap="butt" stroke-opacity="1.0" stroke="rgb(0, 0, 0)" stroke-linejoin="round" d=" M 2585.028, 1875.315 2595.028, 1875.317 2605.028, 1875.319 2615.028, 1875.320 2625.028, 1875.322 2635.028, 1875.324 2645.028, 1875.325 2655.028, 1875.327 2665.028, 1875.329 2675.028, 1875.330 2685.028, 1875.332 2695.028, 1875.334 2703.469, 1875.335 " />
            <path fill="none" stroke-width="3.0" stroke-linecap="butt" stroke-opacity="1.0" stroke="rgb(0, 0, 0)" stroke-linejoin="round" d=" M 2904.660, 317.798 2903.826, 307.833 2902.991, 297.868 2902.157, 287.903 2901.323, 277.938 2900.488, 267.973 2899.654, 258.007 2898.820, 248.042 2897.985, 238.077 2897.151, 228.112 2896.317, 218.147 2895.482, 208.182 2894.648, 198.217 2893.813, 188.251 2892.979, 178.286 2892.145, 168.321 2891.310, 158.356 2890.476, 148.391 2889.642, 138.426 2888.807, 128.461 2887.973, 118.496 2887.139, 108.530 2886.304, 98.565 2885.470, 88.600 2884.635, 78.635 2883.801, 68.670 2882.967, 58.705 2882.132, 48.740 2881.298, 38.775 2880.464, 28.809 2880.030, 23.632 " />
            <path fill="none" stroke-width="3.0" stroke-linecap="butt" stroke-opacity="1.0" stroke="rgb(0, 0, 0)" stroke-linejoin="round" d=" M 2939.864, 1215.957 2938.738, 1206.021 2937.613, 1196.084 2936.487, 1186.148 2936.206, 1183.667 " />
        </g>
    </g>
<g id="slice-labels"><text x="515.0613333333333" y="486.56825" text-anchor="middle" dominant-baseline="middle" font-family="Arial, sans-serif" font-size="59.068749003077485" font-weight="bold" fill="black" stroke="none" stroke-width="7.088249880369297" paint-order="stroke fill">Slice5 (Front)</text><text x="1499.0" y="486.56825" text-anchor="middle" dominant-baseline="middle" font-family="Arial, sans-serif" font-size="59.068749003077485" font-weight="bold" fill="black" stroke="none" stroke-width="7.088249880369297" paint-order="stroke fill">Slice5 (Front)</text><text x="2482.938666666667" y="486.56825" text-anchor="middle" dominant-baseline="middle" font-family="Arial, sans-serif" font-size="59.068749003077485" font-weight="bold" fill="black" stroke="none" stroke-width="7.088249880369297" paint-order="stroke fill">Slice5 (Front)</text><text x="515.0613333333333" y="1412.44075" text-anchor="middle" dominant-baseline="middle" font-family="Arial, sans-serif" font-size="59.068749003077485" font-weight="bold" fill="black" stroke="none" stroke-width="7.088249880369297" paint-order="stroke fill">Slice5 (Front)</text><text x="1499.0" y="1412.44075" text-anchor="middle" dominant-baseline="middle" font-family="Arial, sans-serif" font-size="59.068749003077485" font-weight="bold" fill="black" stroke="none" stroke-width="7.088249880369297" paint-order="stroke fill">Slice5 (Front)</text><text x="2482.938666666667" y="1412.44075" text-anchor="middle" dominant-baseline="middle" font-family="Arial, sans-serif" font-size="59.068749003077485" font-weight="bold" fill="black" stroke="none" stroke-width="7.088249880369297" paint-order="stroke fill">Slice5 (Front)</text></g></svg>