<?xml version='1.0' encoding='utf-8'?>
<svg xmlns="http://www.w3.org/2000/svg" xmlns:inkscape="http://www.inkscape.org/namespaces/inkscape" version="1.1" width="499.78167870640755mm" height="194.466970205307mm" viewBox="-0.14455146031060906 0.0054604689730624045 5903.309102920621 2296.9990790620536" preserveAspectRatio="none">
    <g id="ViewLayer_LineSet" inkscape:groupmode="lineset" inkscape:label="ViewLayer_LineSet">
        <g inkscape:groupmode="layer" id="strokes" inkscape:label="strokes">
            <path fill="none" stroke-width="3.0" stroke-linecap="butt" stroke-opacity="1.0" stroke="rgb(0, 0, 0)" stroke-linejoin="round" d=" M 198.672, 130.435 198.310, 140.428 197.949, 150.422 197.587, 160.415 197.225, 170.409 196.864, 180.402 196.502, 190.396 196.141, 200.389 195.779, 210.383 195.417, 220.376 195.056, 230.369 194.694, 240.363 194.333, 250.356 193.971, 260.350 193.609, 270.343 193.248, 280.337 192.886, 290.330 192.525, 300.324 192.163, 310.317 191.801, 320.311 191.440, 330.304 191.078, 340.297 190.716, 350.291 190.355, 360.284 189.993, 370.278 189.632, 380.271 189.270, 390.265 188.908, 400.258 188.547, 410.252 188.185, 420.245 187.824, 430.239 187.462, 440.232 187.100, 450.226 186.739, 460.219 186.377, 470.213 186.016, 480.206 185.654, 490.199 185.292, 500.193 184.931, 510.186 184.569, 520.180 184.208, 530.173 183.846, 540.167 183.484, 550.160 183.123, 560.154 182.761, 570.147 182.400, 580.141 182.038, 590.134 181.676, 600.127 181.315, 610.121 180.953, 620.114 180.592, 630.108 180.230, 640.101 179.868, 650.095 179.507, 660.088 179.145, 670.082 178.784, 680.075 178.422, 690.069 178.060, 700.062 177.699, 710.056 177.337, 720.049 176.976, 730.042 176.614, 740.036 176.252, 750.029 175.891, 760.023 175.529, 770.016 175.168, 780.010 174.806, 790.003 174.444, 799.997 174.083, 809.990 173.721, 819.984 173.360, 829.977 172.998, 839.971 172.636, 849.964 172.275, 859.957 171.913, 869.951 171.552, 879.944 171.190, 889.938 170.828, 899.931 170.467, 909.925 170.105, 919.918 169.744, 929.912 169.382, 939.905 169.020, 949.899 168.659, 959.892 168.297, 969.885 167.936, 979.879 167.574, 989.872 167.212, 999.866 166.851, 1009.859 166.489, 1019.853 166.128, 1029.846 165.766, 1039.840 165.404, 1049.833 165.043, 1059.827 164.681, 1069.820 164.319, 1079.814 163.958, 1089.807 163.596, 1099.801 163.235, 1109.794 162.873, 1119.787 162.511, 1129.781 162.150, 1139.774 161.788, 1149.768 161.427, 1159.761 161.065, 1169.755 160.703, 1179.748 160.342, 1189.742 159.980, 1199.735 159.619, 1209.729 159.257, 1219.722 158.895, 1229.715 158.534, 1239.709 158.172, 1249.702 157.811, 1259.696 157.449, 1269.689 157.087, 1279.683 156.726, 1289.676 156.085, 1307.379 155.235, 1317.343 154.385, 1327.307 153.535, 1337.271 152.685, 1347.234 151.835, 1357.198 150.984, 1367.162 150.134, 1377.126 149.284, 1387.090 148.434, 1397.053 147.584, 1407.017 146.734, 1416.981 145.884, 1426.945 145.034, 1436.909 144.183, 1446.872 143.333, 1456.836 142.483, 1466.800 141.633, 1476.764 140.783, 1486.728 139.933, 1496.691 139.083, 1506.655 138.233, 1516.619 137.382, 1526.583 136.532, 1536.547 135.682, 1546.510 134.832, 1556.474 133.982, 1566.438 133.132, 1576.402 132.282, 1586.366 131.432, 1596.329 130.581, 1606.293 129.731, 1616.257 128.881, 1626.221 128.031, 1636.185 127.542, 1641.914 125.443, 1651.691 123.344, 1661.468 121.245, 1671.245 119.145, 1681.022 117.046, 1690.799 114.947, 1700.577 112.848, 1710.354 110.749, 1720.131 108.649, 1729.908 106.550, 1739.685 104.451, 1749.463 102.352, 1759.240 100.253, 1769.017 98.153, 1778.794 96.054, 1788.571 93.955, 1798.348 91.856, 1808.126 89.757, 1817.903 87.657, 1827.680 85.558, 1837.457 83.459, 1847.234 81.360, 1857.012 79.261, 1866.789 77.161, 1876.566 75.062, 1886.343 72.963, 1896.120 70.864, 1905.898 68.765, 1915.675 66.665, 1925.452 64.566, 1935.229 62.467, 1945.006 60.368, 1954.783 58.269, 1964.561 56.169, 1974.338 54.070, 1984.115 51.971, 1993.892 49.872, 2003.669 47.773, 2013.447 45.673, 2023.224 43.574, 2033.001 41.475, 2042.778 39.376, 2052.555 37.277, 2062.332 35.177, 2072.110 33.078, 2081.887 30.979, 2091.664 28.880, 2101.441 26.781, 2111.218 24.681, 2120.996 23.479, 2126.595 26.612, 2136.091 29.745, 2145.588 32.878, 2155.084 36.011, 2164.581 39.144, 2174.077 42.277, 2183.574 45.410, 2193.070 48.543, 2202.567 51.676, 2212.063 54.809, 2221.560 57.942, 2231.057 61.075, 2240.553 64.208, 2250.050 67.341, 2259.546 70.474, 2269.043 71.905, 2273.381 " />
            <path fill="none" stroke-width="3.0" stroke-linecap="butt" stroke-opacity="1.0" stroke="rgb(0, 0, 0)" stroke-linejoin="round" d=" M 71.905, 2273.381 81.905, 2273.381 85.894, 2273.381 95.894, 2273.381 105.894, 2273.381 115.894, 2273.381 120.639, 2273.381 " />
            <path fill="none" stroke-width="3.0" stroke-linecap="butt" stroke-opacity="1.0" stroke="rgb(0, 0, 0)" stroke-linejoin="round" d=" M 1901.234, 2273.381 1899.397, 2263.551 1897.559, 2253.722 1895.722, 2243.892 1893.884, 2234.062 1892.047, 2224.233 1890.209, 2214.403 1888.372, 2204.573 1886.534, 2194.743 1884.748, 2185.190 1880.669, 2176.060 1876.590, 2166.930 1872.511, 2157.800 1868.432, 2148.669 1864.353, 2139.539 1860.274, 2130.409 1856.195, 2121.279 1852.116, 2112.148 1848.037, 2103.018 1843.958, 2093.888 1839.879, 2084.757 1835.800, 2075.627 1831.721, 2066.497 1827.642, 2057.367 1823.563, 2048.236 1819.484, 2039.106 1815.405, 2029.976 1811.326, 2020.846 1807.247, 2011.715 1803.168, 2002.585 1799.089, 1993.455 1795.010, 1984.324 1790.423, 1974.056 1794.888, 1965.108 1799.353, 1956.160 1803.818, 1947.212 1808.283, 1938.265 1812.748, 1929.317 1817.213, 1920.369 1821.678, 1911.421 1826.143, 1902.473 1830.608, 1893.526 1835.073, 1884.578 1839.538, 1875.630 1843.789, 1867.112 1845.405, 1857.244 1847.022, 1847.375 1848.639, 1837.507 1850.255, 1827.638 1851.872, 1817.770 1853.488, 1807.901 1855.105, 1798.033 1856.721, 1788.165 1858.338, 1778.296 1859.955, 1768.428 1861.571, 1758.559 1863.188, 1748.691 1864.804, 1738.822 1866.421, 1728.954 1868.037, 1719.085 1869.654, 1709.217 1871.271, 1699.348 1872.885, 1689.496 1872.783, 1679.496 1872.681, 1669.497 1872.579, 1659.497 1872.477, 1649.498 1872.375, 1639.498 1872.273, 1629.499 1872.171, 1619.499 1872.069, 1609.500 1871.967, 1599.500 1871.865, 1589.501 1871.763, 1579.502 1871.661, 1569.502 1871.559, 1559.503 1871.457, 1549.503 1871.355, 1539.504 1871.253, 1529.504 1871.151, 1519.505 1871.049, 1509.505 1870.947, 1499.506 1870.845, 1489.506 1870.743, 1479.507 1870.641, 1469.507 1870.539, 1459.508 1870.437, 1449.508 1870.397, 1445.577 1870.880, 1435.589 1871.363, 1425.600 1871.847, 1415.612 1872.330, 1405.624 1872.813, 1395.635 1873.297, 1385.647 1873.780, 1375.659 1874.263, 1365.671 1874.747, 1355.682 1875.230, 1345.694 1875.713, 1335.706 1876.196, 1325.717 1876.680, 1315.729 1877.163, 1305.741 1877.646, 1295.752 1878.130, 1285.764 1878.613, 1275.776 1879.096, 1265.787 1879.579, 1255.799 1880.063, 1245.811 1880.546, 1235.823 1881.029, 1225.834 1881.513, 1215.846 1881.996, 1205.858 1882.479, 1195.869 1882.963, 1185.881 1883.446, 1175.893 1883.929, 1165.904 1884.412, 1155.916 1884.896, 1145.928 1885.379, 1135.939 1885.862, 1125.951 1886.346, 1115.963 1886.829, 1105.974 1887.312, 1095.986 1887.796, 1085.998 1888.279, 1076.009 1888.762, 1066.021 1889.245, 1056.033 1889.729, 1046.045 1890.212, 1036.056 1890.695, 1026.068 1891.179, 1016.080 1891.662, 1006.091 1892.145, 996.103 1892.629, 986.115 1893.112, 976.126 1893.595, 966.138 1894.078, 956.150 1894.562, 946.161 1895.045, 936.173 1895.528, 926.185 1896.012, 916.196 1896.495, 906.208 1896.978, 896.220 1897.292, 889.725 1897.512, 879.727 1897.731, 869.730 1897.950, 859.732 1898.169, 849.735 1898.388, 839.737 1898.607, 829.739 1898.826, 819.742 1899.045, 809.744 1899.264, 799.747 1899.483, 789.749 1899.703, 779.751 1899.922, 769.754 1900.141, 759.756 1900.360, 749.759 1900.579, 739.761 1900.798, 729.763 1901.017, 719.766 1901.236, 709.768 1901.455, 699.771 1901.674, 689.773 1901.893, 679.775 1902.112, 669.778 1902.332, 659.780 1902.551, 649.783 1902.770, 639.785 1902.989, 629.787 1903.208, 619.790 1903.427, 609.792 1903.646, 599.795 1903.865, 589.797 1904.084, 579.799 1904.303, 569.802 1904.522, 559.804 1904.742, 549.807 1904.961, 539.809 1905.180, 529.811 1905.399, 519.814 1905.618, 509.816 1905.837, 499.819 1906.056, 489.821 1906.275, 479.823 1906.494, 469.826 1906.713, 459.828 1906.932, 449.831 1907.152, 439.833 1907.371, 429.835 1907.590, 419.838 1907.870, 407.053 " />
            <path fill="none" stroke-width="3.0" stroke-linecap="butt" stroke-opacity="1.0" stroke="rgb(0, 0, 0)" stroke-linejoin="round" d=" M 120.842, 2273.300 120.960, 2273.306 130.960, 2273.311 140.960, 2273.316 150.960, 2273.321 160.960, 2273.327 170.960, 2273.332 180.960, 2273.337 190.960, 2273.343 200.960, 2273.348 210.960, 2273.353 220.960, 2273.359 230.960, 2273.364 240.960, 2273.369 250.960, 2273.374 260.960, 2273.380 263.790, 2273.381 273.790, 2273.381 283.790, 2273.381 293.790, 2273.381 303.790, 2273.381 313.790, 2273.381 323.790, 2273.381 333.790, 2273.381 343.790, 2273.381 353.790, 2273.381 363.790, 2273.381 373.790, 2273.381 383.790, 2273.381 393.790, 2273.381 403.790, 2273.381 413.790, 2273.381 423.790, 2273.381 433.790, 2273.381 443.790, 2273.381 453.790, 2273.381 463.790, 2273.381 473.790, 2273.381 483.790, 2273.381 493.790, 2273.381 503.790, 2273.381 513.790, 2273.381 523.790, 2273.381 533.790, 2273.381 543.790, 2273.381 553.790, 2273.381 563.790, 2273.381 573.790, 2273.381 583.790, 2273.381 593.790, 2273.381 603.790, 2273.381 613.790, 2273.381 623.790, 2273.381 633.790, 2273.381 643.790, 2273.381 653.790, 2273.381 663.790, 2273.381 673.790, 2273.381 683.790, 2273.381 693.790, 2273.381 703.790, 2273.381 713.790, 2273.381 723.790, 2273.381 733.790, 2273.381 743.790, 2273.381 753.790, 2273.381 763.790, 2273.381 773.790, 2273.381 783.790, 2273.381 793.790, 2273.381 803.790, 2273.381 813.790, 2273.381 823.790, 2273.381 833.790, 2273.381 843.790, 2273.381 853.790, 2273.381 863.790, 2273.381 873.790, 2273.381 883.790, 2273.381 893.790, 2273.381 903.790, 2273.381 913.790, 2273.381 923.790, 2273.381 933.790, 2273.381 943.790, 2273.381 953.790, 2273.381 963.790, 2273.381 973.790, 2273.381 983.790, 2273.381 993.790, 2273.381 1003.790, 2273.381 1020.999, 2273.381 1030.999, 2273.381 1040.999, 2273.381 1050.999, 2273.381 1060.999, 2273.381 1070.999, 2273.381 1080.999, 2273.381 1090.999, 2273.381 1100.999, 2273.381 1110.999, 2273.381 1120.999, 2273.381 1130.999, 2273.381 1140.999, 2273.381 1150.999, 2273.381 1160.999, 2273.381 1170.999, 2273.381 1180.999, 2273.381 1190.999, 2273.381 1200.999, 2273.381 1210.999, 2273.381 1220.999, 2273.381 1230.999, 2273.381 1240.999, 2273.381 1250.999, 2273.381 1260.999, 2273.381 1270.999, 2273.381 1280.999, 2273.381 1290.999, 2273.381 1300.999, 2273.381 1310.999, 2273.381 1320.999, 2273.381 1330.999, 2273.381 1340.999, 2273.381 1350.999, 2273.381 1360.999, 2273.381 1370.999, 2273.381 1380.999, 2273.381 1390.999, 2273.381 1400.999, 2273.381 1410.999, 2273.381 1420.999, 2273.381 1430.999, 2273.381 1440.999, 2273.381 1450.999, 2273.381 1460.999, 2273.381 1470.999, 2273.381 1480.999, 2273.381 1490.999, 2273.381 1500.999, 2273.381 1510.999, 2273.381 1520.999, 2273.381 1530.999, 2273.381 1540.999, 2273.381 1550.999, 2273.381 1560.999, 2273.381 1570.999, 2273.381 1580.999, 2273.381 1590.999, 2273.381 1600.999, 2273.381 1610.999, 2273.381 1620.999, 2273.381 1630.999, 2273.381 1640.999, 2273.381 1650.999, 2273.381 1660.999, 2273.381 1670.999, 2273.381 1680.999, 2273.381 1690.999, 2273.381 1700.999, 2273.381 1710.999, 2273.381 1720.999, 2273.381 1730.999, 2273.381 1740.999, 2273.381 1750.999, 2273.381 1760.999, 2273.381 1770.999, 2273.381 1780.999, 2273.381 1790.999, 2273.381 1800.999, 2273.381 1810.999, 2273.381 1820.999, 2273.381 1830.999, 2273.381 1840.999, 2273.381 1850.999, 2273.381 1860.999, 2273.381 1870.999, 2273.381 1880.999, 2273.381 1890.503, 2273.381 1900.503, 2273.381 1901.234, 2273.381 " />
            <path fill="none" stroke-width="3.0" stroke-linecap="butt" stroke-opacity="1.0" stroke="rgb(0, 0, 0)" stroke-linejoin="round" d=" M 1169.220, 1256.610 1167.108, 1255.010 1165.078, 1253.306 1163.134, 1251.504 1161.284, 1249.607 1159.530, 1247.619 1157.878, 1245.547 " />
            <path fill="none" stroke-width="3.0" stroke-linecap="butt" stroke-opacity="1.0" stroke="rgb(0, 0, 0)" stroke-linejoin="round" d=" M 1183.319, 1263.839 1180.829, 1262.932 1178.387, 1261.903 1175.999, 1260.753 1173.672, 1259.485 1171.410, 1258.103 " />
            <path fill="none" stroke-width="3.0" stroke-linecap="butt" stroke-opacity="1.0" stroke="rgb(0, 0, 0)" stroke-linejoin="round" d=" M 1153.568, 1238.874 1152.359, 1236.516 1151.269, 1234.100 1150.300, 1231.633 " />
            <path fill="none" stroke-width="3.0" stroke-linecap="butt" stroke-opacity="1.0" stroke="rgb(0, 0, 0)" stroke-linejoin="round" d=" M 120.639, 2273.381 120.842, 2273.300 " />
            <path fill="none" stroke-width="3.0" stroke-linecap="butt" stroke-opacity="1.0" stroke="rgb(0, 0, 0)" stroke-linejoin="round" d=" M 1147.688, 1221.375 1147.359, 1218.746 1147.161, 1216.103 1147.095, 1213.454 " />
            <path fill="none" stroke-width="3.0" stroke-linecap="butt" stroke-opacity="1.0" stroke="rgb(0, 0, 0)" stroke-linejoin="round" d=" M 1217.176, 1263.839 1214.644, 1264.620 1212.076, 1265.274 1209.478, 1265.799 1206.857, 1266.194 1204.220, 1266.458 1201.573, 1266.589 1198.923, 1266.589 1196.276, 1266.458 " />
            <path fill="none" stroke-width="3.0" stroke-linecap="butt" stroke-opacity="1.0" stroke="rgb(0, 0, 0)" stroke-linejoin="round" d=" M 1147.095, 1213.454 1147.161, 1210.804 1147.359, 1208.161 1147.688, 1205.531 " />
            <path fill="none" stroke-width="3.0" stroke-linecap="butt" stroke-opacity="1.0" stroke="rgb(0, 0, 0)" stroke-linejoin="round" d=" M 1147.688, 1205.531 1148.149, 1202.921 " />
            <path fill="none" stroke-width="3.0" stroke-linecap="butt" stroke-opacity="1.0" stroke="rgb(0, 0, 0)" stroke-linejoin="round" d=" M 1148.149, 1202.921 1148.739, 1200.338 1149.457, 1197.787 1150.300, 1195.274 1151.269, 1192.807 1152.359, 1190.392 1153.568, 1188.032 " />
            <path fill="none" stroke-width="3.0" stroke-linecap="butt" stroke-opacity="1.0" stroke="rgb(0, 0, 0)" stroke-linejoin="round" d=" M 1153.568, 1188.032 1154.893, 1185.738 " />
            <path fill="none" stroke-width="3.0" stroke-linecap="butt" stroke-opacity="1.0" stroke="rgb(0, 0, 0)" stroke-linejoin="round" d=" M 1154.893, 1185.738 1156.331, 1183.512 " />
            <path fill="none" stroke-width="3.0" stroke-linecap="butt" stroke-opacity="1.0" stroke="rgb(0, 0, 0)" stroke-linejoin="round" d=" M 1156.331, 1183.512 1157.878, 1181.359 " />
            <path fill="none" stroke-width="3.0" stroke-linecap="butt" stroke-opacity="1.0" stroke="rgb(0, 0, 0)" stroke-linejoin="round" d=" M 1175.999, 1166.154 1178.387, 1165.005 1180.829, 1163.975 1183.319, 1163.068 1185.852, 1162.287 1188.420, 1161.633 1191.018, 1161.108 1193.638, 1160.713 1196.276, 1160.449 1198.923, 1160.317 1201.573, 1160.317 1204.220, 1160.449 1206.857, 1160.713 1209.478, 1161.108 1212.076, 1161.633 1214.644, 1162.287 1217.176, 1163.068 1219.667, 1163.975 1222.109, 1165.005 1224.497, 1166.154 1226.825, 1167.422 " />
            <path fill="none" stroke-width="3.0" stroke-linecap="butt" stroke-opacity="1.0" stroke="rgb(0, 0, 0)" stroke-linejoin="round" d=" M 1159.530, 1179.287 1161.284, 1177.300 1163.134, 1175.403 1165.078, 1173.600 1167.108, 1171.897 1169.220, 1170.296 1171.410, 1168.804 1173.672, 1167.422 1175.999, 1166.154 " />
            <path fill="none" stroke-width="3.0" stroke-linecap="butt" stroke-opacity="1.0" stroke="rgb(0, 0, 0)" stroke-linejoin="round" d=" M 1157.878, 1181.359 1159.530, 1179.287 " />
            <path fill="none" stroke-width="3.0" stroke-linecap="butt" stroke-opacity="1.0" stroke="rgb(0, 0, 0)" stroke-linejoin="round" d=" M 1235.418, 1253.306 1233.388, 1255.010 1231.276, 1256.610 1229.086, 1258.103 1226.825, 1259.485 1224.497, 1260.753 1222.109, 1261.903 " />
            <path fill="none" stroke-width="3.0" stroke-linecap="butt" stroke-opacity="1.0" stroke="rgb(0, 0, 0)" stroke-linejoin="round" d=" M 1251.757, 1200.338 1252.347, 1202.921 1252.807, 1205.531 1253.137, 1208.161 1253.335, 1210.804 1253.401, 1213.454 1253.335, 1216.103 1253.137, 1218.746 1252.807, 1221.375 1252.347, 1223.985 1251.757, 1226.569 " />
            <path fill="none" stroke-width="3.0" stroke-linecap="butt" stroke-opacity="1.0" stroke="rgb(0, 0, 0)" stroke-linejoin="round" d=" M 1245.603, 1241.170 1244.165, 1243.396 1242.618, 1245.547 1240.965, 1247.619 1239.212, 1249.607 1237.361, 1251.504 " />
            <path fill="none" stroke-width="3.0" stroke-linecap="butt" stroke-opacity="1.0" stroke="rgb(0, 0, 0)" stroke-linejoin="round" d=" M 1226.825, 1167.422 1229.086, 1168.804 1231.276, 1170.296 1233.388, 1171.897 1235.418, 1173.600 1237.361, 1175.403 " />
            <path fill="none" stroke-width="3.0" stroke-linecap="butt" stroke-opacity="1.0" stroke="rgb(0, 0, 0)" stroke-linejoin="round" d=" M 1249.227, 1192.807 1250.196, 1195.274 1251.039, 1197.787 1251.757, 1200.338 " />
            <path fill="none" stroke-width="3.0" stroke-linecap="butt" stroke-opacity="1.0" stroke="rgb(0, 0, 0)" stroke-linejoin="round" d=" M 1248.137, 1190.392 1249.227, 1192.807 " />
            <path fill="none" stroke-width="3.0" stroke-linecap="butt" stroke-opacity="1.0" stroke="rgb(0, 0, 0)" stroke-linejoin="round" d=" M 1237.361, 1175.403 1239.212, 1177.300 1240.965, 1179.287 1242.618, 1181.359 1244.165, 1183.512 1245.603, 1185.738 1246.928, 1188.032 1248.137, 1190.392 " />
            <path fill="none" stroke-width="3.0" stroke-linecap="butt" stroke-opacity="1.0" stroke="rgb(0, 0, 0)" stroke-linejoin="round" d=" M 225.445, 23.629 225.131, 27.530 222.641, 37.215 220.150, 46.900 217.660, 56.585 215.170, 66.270 212.680, 75.955 210.190, 85.640 207.699, 95.325 205.209, 105.010 202.719, 114.695 200.229, 124.380 198.672, 130.435 " />
            <path fill="none" stroke-width="3.0" stroke-linecap="butt" stroke-opacity="1.0" stroke="rgb(0, 0, 0)" stroke-linejoin="round" d=" M 1907.870, 407.053 1910.230, 397.335 1912.590, 387.618 1914.950, 377.901 1917.310, 368.183 1919.671, 358.465 1922.031, 348.748 1924.391, 339.030 1926.751, 329.313 1929.111, 319.595 1931.471, 309.878 1933.831, 300.160 1936.191, 290.443 1938.551, 280.725 1940.911, 271.008 1943.272, 261.290 1945.632, 251.573 1947.992, 241.855 1950.352, 232.138 1952.712, 222.420 1955.072, 212.703 1957.432, 202.985 1959.792, 193.268 1962.153, 183.550 1964.513, 173.833 1966.873, 164.115 1969.233, 154.398 1971.593, 144.680 1973.953, 134.963 1976.076, 126.224 1976.756, 116.247 1977.437, 106.271 1978.118, 96.294 1978.799, 86.317 1979.480, 76.340 1980.160, 66.363 1980.841, 56.386 1981.522, 46.410 1982.203, 36.433 1982.884, 26.456 1983.077, 23.629 1973.077, 23.629 1963.077, 23.629 1953.077, 23.629 1943.077, 23.629 1933.077, 23.629 1923.077, 23.629 1913.077, 23.629 1903.077, 23.629 1893.077, 23.629 1883.077, 23.629 1873.077, 23.629 1863.077, 23.629 1853.077, 23.629 1843.077, 23.629 1833.077, 23.629 1823.077, 23.629 1813.077, 23.629 1803.077, 23.629 1793.077, 23.629 1783.077, 23.629 1773.077, 23.629 1763.077, 23.629 1753.077, 23.629 1743.077, 23.629 1733.077, 23.629 1723.077, 23.629 1713.077, 23.629 1703.077, 23.629 1693.077, 23.629 1683.077, 23.629 1673.077, 23.629 1663.077, 23.629 1653.077, 23.629 1643.077, 23.629 1633.077, 23.629 1623.077, 23.629 1613.077, 23.629 1603.077, 23.629 1593.077, 23.629 1583.077, 23.629 1573.077, 23.629 1563.077, 23.629 1553.077, 23.629 1543.077, 23.629 1533.077, 23.629 1523.077, 23.629 1513.077, 23.629 1503.077, 23.629 1493.077, 23.629 1483.077, 23.629 1473.077, 23.629 1463.077, 23.629 1453.077, 23.629 1443.077, 23.629 1433.077, 23.629 1423.077, 23.629 1413.077, 23.629 1403.077, 23.629 1393.077, 23.629 1383.077, 23.629 1373.077, 23.629 1363.077, 23.629 1353.077, 23.629 1343.077, 23.629 1333.077, 23.629 1323.077, 23.629 1313.077, 23.629 1303.077, 23.629 1293.077, 23.629 1283.077, 23.629 1273.077, 23.629 1263.077, 23.629 1253.077, 23.629 1243.077, 23.629 1233.077, 23.629 1223.077, 23.629 1213.077, 23.629 1203.077, 23.629 1193.077, 23.629 1183.077, 23.629 1173.077, 23.629 1163.077, 23.629 1153.077, 23.629 1143.077, 23.629 1133.077, 23.629 1123.077, 23.629 1113.077, 23.629 1103.077, 23.629 1093.077, 23.629 1083.077, 23.629 1073.077, 23.629 1063.077, 23.629 1053.077, 23.629 1043.077, 23.629 1033.077, 23.629 1023.077, 23.629 1013.077, 23.629 1003.077, 23.629 993.077, 23.629 983.077, 23.629 973.077, 23.629 963.077, 23.629 953.077, 23.629 943.077, 23.629 933.077, 23.629 923.077, 23.629 913.077, 23.629 903.077, 23.629 893.077, 23.629 883.077, 23.629 873.077, 23.629 863.077, 23.629 853.077, 23.629 843.077, 23.629 833.077, 23.629 823.077, 23.629 813.077, 23.629 803.077, 23.629 793.076, 23.629 783.076, 23.629 773.076, 23.629 763.077, 23.629 753.077, 23.629 743.077, 23.629 733.077, 23.629 723.077, 23.629 713.077, 23.629 703.077, 23.629 693.077, 23.629 683.077, 23.629 673.077, 23.629 663.077, 23.629 653.077, 23.629 643.077, 23.629 633.077, 23.629 623.077, 23.629 613.077, 23.629 603.077, 23.629 593.077, 23.629 583.077, 23.629 573.077, 23.629 563.077, 23.629 553.077, 23.629 543.077, 23.629 533.077, 23.629 523.077, 23.629 513.077, 23.629 503.077, 23.629 493.077, 23.629 483.077, 23.629 473.077, 23.629 463.077, 23.629 453.077, 23.629 443.077, 23.629 433.077, 23.629 423.077, 23.629 413.077, 23.629 403.077, 23.629 393.077, 23.629 383.077, 23.629 373.077, 23.629 363.077, 23.629 353.077, 23.629 343.077, 23.629 333.077, 23.629 323.077, 23.629 313.077, 23.629 303.077, 23.629 277.954, 23.629 267.954, 23.629 257.954, 23.629 247.954, 23.629 237.954, 23.629 227.954, 23.629 225.445, 23.629 " />
            <path fill="none" stroke-width="3.0" stroke-linecap="butt" stroke-opacity="1.0" stroke="rgb(0, 0, 0)" stroke-linejoin="round" d=" M 3374.701, 1894.858 3373.864, 1904.823 3373.027, 1914.788 3372.190, 1924.753 3371.353, 1934.718 3370.516, 1944.683 3369.679, 1954.647 3368.842, 1964.612 3368.004, 1974.577 3367.167, 1984.542 3366.330, 1994.507 3365.493, 2004.472 3364.656, 2014.437 3363.819, 2024.402 3362.982, 2034.367 3362.145, 2044.332 3361.308, 2054.296 3360.471, 2064.261 3359.634, 2074.226 3358.797, 2084.191 3357.959, 2094.156 3357.122, 2104.121 3356.285, 2114.086 3355.448, 2124.051 3354.611, 2134.016 3353.774, 2143.981 3352.937, 2153.946 3352.100, 2163.910 3351.263, 2173.875 3350.426, 2183.840 3349.589, 2193.805 3348.752, 2203.770 3347.915, 2213.735 3347.077, 2223.700 3346.240, 2233.665 3345.403, 2243.630 3344.566, 2253.595 3343.729, 2263.559 3342.904, 2273.381 3352.904, 2273.381 3362.904, 2273.381 3372.904, 2273.381 3382.904, 2273.381 3392.904, 2273.381 3402.904, 2273.381 3412.904, 2273.381 3422.904, 2273.381 3432.904, 2273.381 3442.904, 2273.381 3452.904, 2273.381 3462.904, 2273.381 3472.904, 2273.381 3482.904, 2273.381 3492.904, 2273.381 3502.904, 2273.381 3512.904, 2273.381 3522.904, 2273.381 3532.904, 2273.381 3542.904, 2273.381 3552.904, 2273.381 3562.904, 2273.381 3572.904, 2273.381 3582.904, 2273.381 3592.904, 2273.381 3602.904, 2273.381 3612.904, 2273.381 3618.479, 2273.381 " />
            <path fill="none" stroke-width="3.0" stroke-linecap="butt" stroke-opacity="1.0" stroke="rgb(0, 0, 0)" stroke-linejoin="round" d=" M 3618.479, 2273.381 3621.330, 2273.307 3631.330, 2273.316 3641.330, 2273.326 3651.330, 2273.335 3661.330, 2273.345 3671.330, 2273.354 3681.330, 2273.364 3691.330, 2273.373 3699.562, 2273.381 " />
            <path fill="none" stroke-width="3.0" stroke-linecap="butt" stroke-opacity="1.0" stroke="rgb(0, 0, 0)" stroke-linejoin="round" d=" M 3699.562, 2273.381 3702.667, 2273.295 3705.668, 2273.295 3708.634, 2273.296 3711.554, 2273.296 3714.419, 2273.296 3717.219, 2273.296 3719.944, 2273.297 3722.583, 2273.297 3725.128, 2273.297 3727.570, 2273.298 3729.900, 2273.298 3732.111, 2273.298 3734.194, 2273.298 3736.170, 2273.342 3746.170, 2273.342 3756.170, 2273.343 3766.170, 2273.343 3776.170, 2273.344 3786.170, 2273.344 3796.170, 2273.344 3806.170, 2273.345 3816.170, 2273.345 3826.170, 2273.346 3836.170, 2273.346 3846.170, 2273.347 3856.170, 2273.347 3866.170, 2273.348 3876.170, 2273.348 3886.170, 2273.349 3896.170, 2273.349 3906.170, 2273.350 3916.170, 2273.350 3926.170, 2273.350 3936.170, 2273.351 3946.170, 2273.351 3956.170, 2273.352 3966.170, 2273.352 3976.170, 2273.353 3986.170, 2273.353 3996.170, 2273.354 4006.170, 2273.354 4016.170, 2273.355 4026.170, 2273.355 4036.170, 2273.355 4046.170, 2273.356 4056.170, 2273.356 4066.170, 2273.357 4076.170, 2273.357 4086.170, 2273.358 4096.170, 2273.358 4106.170, 2273.359 4116.170, 2273.359 4126.170, 2273.360 4136.170, 2273.360 4146.170, 2273.361 4156.170, 2273.361 4166.170, 2273.361 4176.170, 2273.362 4186.170, 2273.362 4196.170, 2273.363 4206.170, 2273.363 4216.170, 2273.364 4226.170, 2273.364 4236.170, 2273.365 4246.170, 2273.365 4256.170, 2273.366 4266.170, 2273.366 4276.170, 2273.367 4286.170, 2273.367 4296.170, 2273.367 4306.170, 2273.368 4316.170, 2273.368 4326.170, 2273.369 4336.170, 2273.369 4346.170, 2273.370 4356.170, 2273.370 4366.170, 2273.371 4376.170, 2273.371 4386.170, 2273.372 4396.170, 2273.372 4406.170, 2273.373 4416.170, 2273.373 4426.170, 2273.373 4436.170, 2273.374 4446.170, 2273.374 4456.170, 2273.375 4466.170, 2273.375 4476.170, 2273.376 4486.170, 2273.376 4496.170, 2273.377 4506.170, 2273.377 4516.170, 2273.378 4526.170, 2273.378 4536.170, 2273.378 4546.170, 2273.379 4556.170, 2273.379 4566.170, 2273.380 4576.170, 2273.380 4586.170, 2273.381 4595.599, 2273.381 " />
            <path fill="none" stroke-width="3.0" stroke-linecap="butt" stroke-opacity="1.0" stroke="rgb(0, 0, 0)" stroke-linejoin="round" d=" M 4595.599, 2273.381 4599.742, 2273.381 4603.977, 2273.381 4608.291, 2273.381 4612.669, 2273.381 4617.101, 2273.381 4621.570, 2273.381 4626.064, 2273.381 4630.571, 2273.381 4640.571, 2273.381 4650.571, 2273.381 4660.571, 2273.381 4670.571, 2273.381 4680.571, 2273.381 4690.571, 2273.381 4700.571, 2273.381 4710.571, 2273.381 4720.571, 2273.381 4730.571, 2273.381 4740.571, 2273.381 4750.571, 2273.381 4760.571, 2273.381 4770.571, 2273.381 4780.571, 2273.381 4790.571, 2273.381 4800.571, 2273.381 4810.571, 2273.381 4820.571, 2273.381 4830.571, 2273.381 4840.571, 2273.381 4850.571, 2273.381 4860.571, 2273.381 4870.571, 2273.381 4880.571, 2273.381 4890.571, 2273.381 4900.571, 2273.381 4910.571, 2273.381 4920.571, 2273.381 4930.571, 2273.381 4940.571, 2273.381 4950.571, 2273.381 4960.571, 2273.381 4970.571, 2273.381 4980.571, 2273.381 4990.571, 2273.381 5000.571, 2273.381 5010.571, 2273.381 5020.571, 2273.381 5030.571, 2273.381 5040.571, 2273.381 5050.571, 2273.381 5060.571, 2273.381 5070.571, 2273.381 5080.571, 2273.381 5090.571, 2273.381 5100.571, 2273.381 5110.571, 2273.381 5120.571, 2273.381 5130.571, 2273.381 5140.571, 2273.381 5150.571, 2273.381 5160.571, 2273.381 5170.571, 2273.381 5180.571, 2273.381 5190.571, 2273.381 5200.571, 2273.381 5210.571, 2273.381 5220.571, 2273.381 5230.571, 2273.381 5240.571, 2273.381 5250.571, 2273.381 5260.571, 2273.381 5270.571, 2273.381 5280.571, 2273.381 5290.571, 2273.381 5300.571, 2273.381 5310.571, 2273.381 5320.571, 2273.381 5330.571, 2273.381 5340.571, 2273.381 5350.571, 2273.381 5360.571, 2273.381 5370.571, 2273.381 5380.571, 2273.381 5390.571, 2273.381 5400.571, 2273.381 5410.571, 2273.381 5420.571, 2273.381 5430.571, 2273.381 5440.571, 2273.381 5450.571, 2273.381 5460.571, 2273.381 5470.571, 2273.381 5480.571, 2273.381 5490.571, 2273.381 5500.571, 2273.381 5510.571, 2273.381 5520.571, 2273.381 5530.571, 2273.381 5540.571, 2273.381 5550.571, 2273.381 5560.571, 2273.381 5570.571, 2273.381 5583.990, 2273.381 " />
            <path fill="none" stroke-width="3.0" stroke-linecap="butt" stroke-opacity="1.0" stroke="rgb(0, 0, 0)" stroke-linejoin="round" d=" M 5583.990, 2273.381 5585.886, 2263.562 5587.781, 2253.744 5589.676, 2243.925 5591.571, 2234.106 5593.467, 2224.287 5595.362, 2214.469 5597.257, 2204.650 5599.153, 2194.831 5601.048, 2185.012 5602.943, 2175.194 5604.838, 2165.375 5606.734, 2155.556 5608.179, 2148.068 5609.522, 2138.159 5610.866, 2128.250 5612.209, 2118.340 5613.552, 2108.431 5614.896, 2098.521 5616.239, 2088.612 5617.582, 2078.703 5618.925, 2068.793 5620.269, 2058.884 5621.612, 2048.975 5622.956, 2039.065 5624.299, 2029.156 5625.642, 2019.247 5626.985, 2009.337 5628.329, 1999.428 5629.672, 1989.518 5631.015, 1979.609 5632.358, 1969.700 5633.702, 1959.790 5635.045, 1949.881 5636.388, 1939.972 5637.732, 1930.062 5639.075, 1920.153 5640.418, 1910.244 5641.762, 1900.334 5643.105, 1890.425 5644.448, 1880.515 5645.792, 1870.606 5647.135, 1860.697 5648.478, 1850.787 5649.821, 1840.878 5651.165, 1830.969 5652.126, 1823.877 5652.207, 1813.878 5652.287, 1803.878 5652.368, 1793.878 5652.448, 1783.879 5652.528, 1773.879 5652.609, 1763.879 5652.689, 1753.880 5652.770, 1743.880 5652.851, 1733.880 5652.931, 1723.881 5653.011, 1713.881 5653.092, 1703.881 5653.172, 1693.882 5653.253, 1683.882 5653.333, 1673.882 5653.414, 1663.883 5653.495, 1653.883 5653.575, 1643.883 5653.655, 1633.884 5653.736, 1623.884 5653.816, 1613.884 5653.897, 1603.885 5653.978, 1593.885 5654.058, 1583.885 5654.138, 1573.885 5654.219, 1563.886 5654.316, 1551.840 5653.129, 1541.911 5651.942, 1531.982 5650.755, 1522.053 5649.568, 1512.123 5648.381, 1502.194 5647.194, 1492.265 5646.007, 1482.335 5644.820, 1472.406 5643.633, 1462.477 5642.446, 1452.547 5641.259, 1442.618 5640.072, 1432.689 5638.885, 1422.760 5637.698, 1412.830 5636.511, 1402.901 5635.324, 1392.972 5634.137, 1383.042 5632.950, 1373.113 5631.763, 1363.184 5630.577, 1353.254 5629.390, 1343.325 5628.203, 1333.396 5627.016, 1323.466 5625.829, 1313.537 5624.642, 1303.608 5623.455, 1293.679 5622.268, 1283.749 5621.081, 1273.820 5619.894, 1263.891 5618.707, 1253.961 5617.520, 1244.032 5616.333, 1234.103 5615.146, 1224.173 5613.959, 1214.244 5612.772, 1204.315 5611.585, 1194.385 5610.398, 1184.456 5609.211, 1174.527 5608.024, 1164.598 5606.837, 1154.668 5605.650, 1144.739 5604.463, 1134.810 5603.276, 1124.880 5602.089, 1114.951 5601.471, 1109.778 " />
            <path fill="none" stroke-width="3.0" stroke-linecap="butt" stroke-opacity="1.0" stroke="rgb(0, 0, 0)" stroke-linejoin="round" d=" M 4742.162, 561.031 4739.643, 558.448 4737.256, 555.744 4735.007, 552.924 4732.901, 549.995 4730.944, 546.965 4729.141, 543.840 4727.495, 540.630 4726.011, 537.343 4724.693, 533.984 4723.544, 530.565 4722.567, 527.092 4721.765, 523.575 4721.138, 520.023 4720.690, 516.443 4720.420, 512.846 4720.330, 509.240 4720.420, 505.634 4720.690, 502.037 4721.138, 498.457 4721.765, 494.905 4722.567, 491.388 4723.544, 487.915 4724.693, 484.496 4726.011, 481.138 4727.495, 477.850 4729.141, 474.640 4730.944, 471.516 4732.901, 468.485 4735.007, 465.557 4737.256, 462.737 4739.643, 460.032 4742.162, 457.449 4744.806, 454.996 4747.570, 452.677 4750.445, 450.499 4753.426, 448.467 4756.504, 446.585 4759.672, 444.860 4762.922, 443.295 4766.246, 441.894 4769.636, 440.660 4773.083, 439.597 4776.579, 438.707 4780.114, 437.992 4783.681, 437.454 4787.271, 437.095 4790.874, 436.915 4794.481, 436.915 4798.084, 437.095 4801.673, 437.454 4805.240, 437.992 4808.776, 438.707 4812.272, 439.597 4815.719, 440.660 4819.109, 441.894 4822.433, 443.295 4825.683, 444.860 4828.851, 446.585 4831.929, 448.467 4834.910, 450.499 4837.785, 452.677 4840.548, 454.996 4843.193, 457.449 4845.711, 460.032 4848.099, 462.737 4850.348, 465.557 4852.453, 468.485 4854.411, 471.516 4856.214, 474.640 4857.860, 477.850 4859.343, 481.138 4860.661, 484.496 4861.810, 487.915 4862.787, 491.388 4863.590, 494.905 4864.216, 498.457 4864.665, 502.037 4864.935, 505.634 4865.024, 509.240 4864.935, 512.846 4864.665, 516.443 4864.216, 520.023 4863.590, 523.575 4862.787, 527.092 4861.810, 530.565 4860.661, 533.984 4859.343, 537.343 4857.860, 540.630 4856.214, 543.840 4854.411, 546.965 4852.453, 549.995 4850.348, 552.924 4848.099, 555.744 4845.711, 558.448 4843.193, 561.031 4840.548, 563.485 4837.785, 565.803 4834.910, 567.982 4831.929, 570.014 4828.851, 571.895 4825.683, 573.620 4822.433, 575.185 4819.109, 576.586 4815.719, 577.820 4812.272, 578.884 4808.776, 579.774 4805.240, 580.488 4801.673, 581.026 4798.084, 581.385 4794.481, 581.565 4790.874, 581.565 4787.271, 581.385 4783.681, 581.026 4780.114, 580.488 4776.579, 579.774 4773.083, 578.884 4769.636, 577.820 4766.246, 576.586 4762.922, 575.185 4759.672, 573.620 4756.504, 571.895 4753.426, 570.014 4750.445, 567.982 4747.570, 565.803 4744.806, 563.485 4742.162, 561.031 " />
            <path fill="none" stroke-width="3.0" stroke-linecap="butt" stroke-opacity="1.0" stroke="rgb(0, 0, 0)" stroke-linejoin="round" d=" M 5462.642, 23.660 5452.642, 23.659 5442.642, 23.659 5432.642, 23.659 5422.642, 23.658 5412.642, 23.658 5402.642, 23.658 5392.642, 23.657 5382.642, 23.657 5372.642, 23.656 5362.642, 23.656 5352.642, 23.656 5342.642, 23.656 5332.642, 23.655 5322.642, 23.655 5312.642, 23.655 5302.642, 23.654 5292.642, 23.654 5282.642, 23.654 5272.642, 23.653 5262.642, 23.653 5252.642, 23.652 5242.642, 23.652 5232.642, 23.652 5222.642, 23.651 5212.642, 23.651 5202.642, 23.651 5192.642, 23.650 5182.642, 23.650 5172.642, 23.650 5162.642, 23.649 5152.642, 23.649 5142.642, 23.649 5132.642, 23.648 5122.642, 23.648 5112.642, 23.648 5102.642, 23.647 5092.642, 23.647 5082.642, 23.646 5072.642, 23.646 5062.642, 23.646 5052.642, 23.646 5042.642, 23.645 5032.642, 23.645 5022.642, 23.645 5012.642, 23.644 5002.642, 23.644 4992.642, 23.644 4982.642, 23.643 4972.642, 23.643 4962.642, 23.642 4952.642, 23.642 4942.642, 23.642 4932.642, 23.641 4922.642, 23.641 4912.642, 23.641 4902.642, 23.640 4892.642, 23.640 4882.642, 23.640 4872.642, 23.639 4862.642, 23.639 4852.642, 23.639 4842.642, 23.638 4832.642, 23.638 4822.642, 23.638 4812.642, 23.637 4802.642, 23.637 4792.642, 23.636 4782.642, 23.636 4772.642, 23.636 4762.642, 23.635 4752.642, 23.635 4742.642, 23.635 4732.642, 23.635 4722.642, 23.634 4712.642, 23.634 4702.642, 23.634 4692.642, 23.633 4682.642, 23.633 4672.642, 23.632 4662.642, 23.632 4652.642, 23.632 4642.642, 23.631 4632.642, 23.631 4622.642, 23.631 4612.642, 23.630 4602.642, 23.630 4592.642, 23.630 4573.914, 23.629 4571.576, 23.629 4569.149, 23.629 4559.149, 23.629 4549.149, 23.629 4539.149, 23.629 4529.149, 23.629 4519.149, 23.629 4509.149, 23.629 4499.149, 23.629 4489.149, 23.629 4479.149, 23.629 4469.149, 23.629 4459.149, 23.629 4449.149, 23.629 4440.756, 23.629 4438.642, 23.629 4436.430, 23.629 4434.126, 23.629 4431.738, 23.629 4429.272, 23.629 4426.736, 23.629 4424.139, 23.629 4421.487, 23.629 4418.789, 23.629 4416.052, 23.629 4406.052, 23.629 4396.052, 23.629 4386.052, 23.629 4376.052, 23.629 4366.052, 23.629 4356.052, 23.629 4346.052, 23.629 4336.052, 23.629 4326.052, 23.629 4316.052, 23.629 4306.052, 23.629 4296.052, 23.629 4286.052, 23.629 4276.052, 23.629 4266.052, 23.629 4256.052, 23.629 4246.052, 23.629 4236.052, 23.629 4226.052, 23.629 4216.052, 23.629 4206.052, 23.629 4196.052, 23.629 4186.052, 23.629 4182.511, 23.629 4180.172, 23.629 4177.784, 23.629 4175.354, 23.629 4172.891, 23.629 4170.402, 23.629 4167.896, 23.629 4165.378, 23.629 4155.378, 23.629 4145.378, 23.629 4135.378, 23.629 4125.378, 23.629 4115.378, 23.629 4105.378, 23.629 4095.379, 23.629 4085.379, 23.629 4075.379, 23.629 4065.379, 23.629 4055.379, 23.629 4045.379, 23.629 4035.379, 23.629 4025.379, 23.629 4015.379, 23.629 4005.379, 23.629 3995.379, 23.629 3985.379, 23.629 3975.379, 23.629 3965.379, 23.629 3955.379, 23.629 3945.379, 23.629 3935.379, 23.629 3925.379, 23.629 3915.379, 23.629 3905.379, 23.629 3895.379, 23.629 3885.379, 23.629 3875.379, 23.629 3865.379, 23.629 3855.379, 23.629 3845.379, 23.629 3835.379, 23.629 3831.109, 23.629 3829.865, 23.629 3828.613, 23.629 3827.360, 23.629 3826.108, 23.629 3824.861, 23.629 3823.623, 23.629 3822.397, 23.629 3812.397, 23.629 3802.397, 23.629 3792.397, 23.629 3782.397, 23.629 3772.397, 23.629 3762.397, 23.629 3752.397, 23.629 3742.397, 23.629 3732.397, 23.629 3722.397, 23.629 3712.397, 23.629 3702.397, 23.629 3692.397, 23.629 3682.397, 23.629 3672.397, 23.629 3664.787, 23.629 3665.276, 33.617 3665.765, 43.605 3666.255, 53.593 3666.744, 63.581 3667.234, 73.569 3667.723, 83.557 3668.213, 93.545 3668.702, 103.533 3669.191, 113.521 3669.681, 123.509 3670.170, 133.497 3670.660, 143.485 3671.149, 153.473 3671.639, 163.461 3672.128, 173.449 3672.617, 183.437 3673.107, 193.425 3673.596, 203.413 3674.086, 213.401 3674.575, 223.389 3675.065, 233.377 3675.554, 243.365 3676.043, 253.353 3676.533, 263.341 3677.022, 273.329 3677.512, 283.317 3678.001, 293.305 3678.490, 303.293 3678.980, 313.281 3679.469, 323.270 3679.959, 333.257 3680.448, 343.245 3680.938, 353.234 3681.427, 363.222 3681.917, 373.210 3682.406, 383.198 3682.896, 393.186 3683.385, 403.174 3683.874, 413.162 3684.364, 423.150 3684.853, 433.138 3685.343, 443.126 3685.832, 453.114 3686.321, 463.102 3686.811, 473.090 3687.300, 483.078 3687.790, 493.066 3688.279, 503.054 3688.769, 513.042 3689.484, 527.636 " />
            <path fill="none" stroke-width="3.0" stroke-linecap="butt" stroke-opacity="1.0" stroke="rgb(0, 0, 0)" stroke-linejoin="round" d=" M 5601.471, 1109.778 5600.868, 1099.796 5600.265, 1089.814 5599.662, 1079.833 5599.059, 1069.851 5598.457, 1059.869 5597.854, 1049.887 5597.250, 1039.905 5596.647, 1029.923 5596.045, 1019.942 5595.442, 1009.960 5594.839, 999.978 5594.236, 989.996 5593.633, 980.014 5593.030, 970.033 5592.427, 960.051 5591.824, 950.069 5591.222, 940.087 5590.619, 930.105 5590.016, 920.124 5589.413, 910.142 5588.810, 900.160 5588.207, 890.178 5587.604, 880.196 5587.001, 870.215 5586.398, 860.233 5585.795, 850.251 5585.192, 840.269 5584.590, 830.287 5583.987, 820.306 5583.384, 810.324 5582.781, 800.342 5582.178, 790.360 5581.575, 780.378 5581.007, 770.970 5584.804, 761.719 5588.602, 752.468 5592.399, 743.218 5596.197, 733.967 5599.994, 724.716 5603.792, 715.465 5607.589, 706.214 5611.387, 696.963 5615.184, 687.712 5618.981, 678.461 5622.779, 669.210 5626.576, 659.959 5630.374, 650.708 5634.171, 641.457 5637.969, 632.207 5641.766, 622.956 5645.563, 613.705 5649.361, 604.454 5653.159, 595.203 5656.956, 585.952 5660.753, 576.701 5664.551, 567.450 5668.348, 558.199 5672.146, 548.948 5675.943, 539.697 5679.741, 530.447 5683.538, 521.196 5687.335, 511.945 5691.133, 502.694 5694.931, 493.443 5698.728, 484.192 5702.525, 474.941 5706.323, 465.690 5710.120, 456.439 5713.918, 447.188 5717.715, 437.937 5722.373, 426.592 5725.582, 417.121 5728.792, 407.650 5732.001, 398.179 5735.210, 388.708 5738.420, 379.237 5741.630, 369.766 5744.839, 360.296 5748.049, 350.825 5751.258, 341.354 5754.468, 331.883 5757.677, 322.412 5760.887, 312.941 5764.097, 303.470 5767.306, 293.999 5770.516, 284.528 5773.725, 275.057 5776.935, 265.586 5780.144, 256.115 5783.354, 246.644 5786.563, 237.173 5789.239, 229.277 " />
            <path fill="none" stroke-width="3.0" stroke-linecap="butt" stroke-opacity="1.0" stroke="rgb(0, 0, 0)" stroke-linejoin="round" d=" M 5789.239, 229.277 5793.260, 220.121 5797.280, 210.965 5801.301, 201.809 5805.321, 192.653 5809.342, 183.497 5813.362, 174.340 5817.383, 165.184 5821.403, 156.028 5825.424, 146.872 5829.444, 137.716 5833.465, 128.560 5837.486, 119.404 5841.506, 110.247 5845.527, 101.091 5849.547, 91.935 5853.568, 82.779 5857.588, 73.623 5861.609, 64.467 5865.629, 55.310 5869.650, 46.154 5873.670, 36.998 5877.691, 27.842 5879.541, 23.629 5869.541, 23.629 5859.541, 23.629 5849.541, 23.629 5839.541, 23.629 5829.541, 23.629 5819.541, 23.629 5809.541, 23.629 5799.541, 23.629 5789.541, 23.629 5779.541, 23.629 5769.541, 23.629 5759.541, 23.629 5749.541, 23.629 5739.541, 23.629 5729.541, 23.629 5719.541, 23.629 5709.541, 23.629 5699.541, 23.629 5689.541, 23.629 5679.541, 23.629 5668.395, 23.629 " />
            <path fill="none" stroke-width="3.0" stroke-linecap="butt" stroke-opacity="1.0" stroke="rgb(0, 0, 0)" stroke-linejoin="round" d=" M 5668.395, 23.629 5666.734, 23.682 5665.233, 23.682 5663.792, 23.681 5662.416, 23.681 5661.106, 23.673 5651.106, 23.670 5641.106, 23.668 5631.106, 23.666 5621.106, 23.664 5611.106, 23.662 5601.106, 23.659 5591.106, 23.657 5581.106, 23.655 5571.106, 23.653 5561.106, 23.650 5551.106, 23.648 5541.106, 23.646 5531.106, 23.644 5521.106, 23.642 5511.106, 23.639 5501.106, 23.637 5491.106, 23.635 5481.106, 23.633 5471.106, 23.630 5464.871, 23.629 " />
            <path fill="none" stroke-width="3.0" stroke-linecap="butt" stroke-opacity="1.0" stroke="rgb(0, 0, 0)" stroke-linejoin="round" d=" M 5464.871, 23.629 5462.642, 23.660 " />
            <path fill="none" stroke-width="3.0" stroke-linecap="butt" stroke-opacity="1.0" stroke="rgb(0, 0, 0)" stroke-linejoin="round" d=" M 4151.573, 1742.340 4149.054, 1739.757 4146.667, 1737.053 4144.418, 1734.232 4142.312, 1731.303 4140.355, 1728.273 4138.552, 1725.149 4136.906, 1721.939 4135.422, 1718.651 4134.104, 1715.293 4132.956, 1711.873 4131.979, 1708.401 4131.176, 1704.884 4130.549, 1701.331 4130.101, 1697.752 4129.832, 1694.155 4129.742, 1690.549 4129.832, 1686.942 4130.101, 1683.345 4130.549, 1679.766 4131.176, 1676.214 4131.979, 1672.696 4132.956, 1669.224 4134.104, 1665.805 4135.422, 1662.446 4136.906, 1659.158 4138.552, 1655.948 4140.355, 1652.824 4142.312, 1649.794 4144.418, 1646.865 4146.667, 1644.045 4149.054, 1641.340 4151.573, 1638.758 4154.218, 1636.304 4156.981, 1633.985 4159.856, 1631.807 4162.837, 1629.775 4165.915, 1627.894 4169.083, 1626.169 4172.333, 1624.604 4175.657, 1623.202 4179.047, 1621.969 4182.494, 1620.906 4185.990, 1620.016 4189.526, 1619.301 4193.093, 1618.763 4196.682, 1618.404 4200.285, 1618.224 4203.892, 1618.224 4207.495, 1618.404 4211.084, 1618.763 4214.651, 1619.301 4218.188, 1620.016 4221.683, 1620.906 4225.130, 1621.969 4228.520, 1623.202 4231.844, 1624.604 4235.094, 1626.169 4238.262, 1627.894 4241.340, 1629.775 4244.321, 1631.807 4247.196, 1633.985 4249.959, 1636.304 4252.604, 1638.758 4255.123, 1641.340 4257.510, 1644.045 4259.759, 1646.865 4261.865, 1649.794 4263.822, 1652.824 4265.625, 1655.948 4267.271, 1659.158 4268.755, 1662.446 4270.073, 1665.805 4271.222, 1669.224 4272.198, 1672.696 4273.001, 1676.214 4273.628, 1679.766 4274.076, 1683.345 4274.346, 1686.942 4274.436, 1690.549 4274.346, 1694.155 4274.076, 1697.752 4273.628, 1701.331 4273.001, 1704.884 4272.198, 1708.401 4271.222, 1711.873 4270.073, 1715.293 4268.755, 1718.651 4267.271, 1721.939 4265.625, 1725.149 4263.822, 1728.273 4261.865, 1731.303 4259.759, 1734.232 4257.510, 1737.053 4255.123, 1739.757 4252.604, 1742.340 4249.959, 1744.793 4247.196, 1747.112 4244.321, 1749.290 4241.340, 1751.322 4238.262, 1753.203 4235.094, 1754.928 4231.844, 1756.493 4228.520, 1757.895 4225.130, 1759.128 4221.683, 1760.192 4218.188, 1761.082 4214.651, 1761.797 4211.084, 1762.334 4207.495, 1762.693 4203.892, 1762.873 4200.285, 1762.873 4196.682, 1762.693 4193.093, 1762.334 4189.526, 1761.797 4185.990, 1761.082 4182.494, 1760.192 4179.047, 1759.128 4175.657, 1757.895 4172.333, 1756.493 4169.083, 1754.928 4165.915, 1753.203 4162.837, 1751.322 4159.856, 1749.290 4156.981, 1747.112 4154.218, 1744.793 4151.573, 1742.340 " />
            <path fill="none" stroke-width="3.0" stroke-linecap="butt" stroke-opacity="1.0" stroke="rgb(0, 0, 0)" stroke-linejoin="round" d=" M 1148.149, 1223.985 1147.688, 1221.375 " />
            <path fill="none" stroke-width="3.0" stroke-linecap="butt" stroke-opacity="1.0" stroke="rgb(0, 0, 0)" stroke-linejoin="round" d=" M 1148.739, 1226.569 1148.149, 1223.985 " />
            <path fill="none" stroke-width="3.0" stroke-linecap="butt" stroke-opacity="1.0" stroke="rgb(0, 0, 0)" stroke-linejoin="round" d=" M 1149.457, 1229.121 1148.739, 1226.569 " />
            <path fill="none" stroke-width="3.0" stroke-linecap="butt" stroke-opacity="1.0" stroke="rgb(0, 0, 0)" stroke-linejoin="round" d=" M 1150.300, 1231.633 1149.457, 1229.121 " />
            <path fill="none" stroke-width="3.0" stroke-linecap="butt" stroke-opacity="1.0" stroke="rgb(0, 0, 0)" stroke-linejoin="round" d=" M 1154.893, 1241.170 1153.568, 1238.874 " />
            <path fill="none" stroke-width="3.0" stroke-linecap="butt" stroke-opacity="1.0" stroke="rgb(0, 0, 0)" stroke-linejoin="round" d=" M 1156.331, 1243.396 1154.893, 1241.170 " />
            <path fill="none" stroke-width="3.0" stroke-linecap="butt" stroke-opacity="1.0" stroke="rgb(0, 0, 0)" stroke-linejoin="round" d=" M 1157.878, 1245.547 1156.331, 1243.396 " />
            <path fill="none" stroke-width="3.0" stroke-linecap="butt" stroke-opacity="1.0" stroke="rgb(0, 0, 0)" stroke-linejoin="round" d=" M 1171.410, 1258.103 1169.220, 1256.610 " />
            <path fill="none" stroke-width="3.0" stroke-linecap="butt" stroke-opacity="1.0" stroke="rgb(0, 0, 0)" stroke-linejoin="round" d=" M 1185.852, 1264.620 1183.319, 1263.839 " />
            <path fill="none" stroke-width="3.0" stroke-linecap="butt" stroke-opacity="1.0" stroke="rgb(0, 0, 0)" stroke-linejoin="round" d=" M 1188.420, 1265.274 1185.852, 1264.620 " />
            <path fill="none" stroke-width="3.0" stroke-linecap="butt" stroke-opacity="1.0" stroke="rgb(0, 0, 0)" stroke-linejoin="round" d=" M 1191.018, 1265.799 1188.420, 1265.274 " />
            <path fill="none" stroke-width="3.0" stroke-linecap="butt" stroke-opacity="1.0" stroke="rgb(0, 0, 0)" stroke-linejoin="round" d=" M 1193.638, 1266.194 1191.018, 1265.799 " />
            <path fill="none" stroke-width="3.0" stroke-linecap="butt" stroke-opacity="1.0" stroke="rgb(0, 0, 0)" stroke-linejoin="round" d=" M 1196.276, 1266.458 1193.638, 1266.194 " />
            <path fill="none" stroke-width="3.0" stroke-linecap="butt" stroke-opacity="1.0" stroke="rgb(0, 0, 0)" stroke-linejoin="round" d=" M 1219.667, 1262.932 1217.176, 1263.839 " />
            <path fill="none" stroke-width="3.0" stroke-linecap="butt" stroke-opacity="1.0" stroke="rgb(0, 0, 0)" stroke-linejoin="round" d=" M 1222.109, 1261.903 1219.667, 1262.932 " />
            <path fill="none" stroke-width="3.0" stroke-linecap="butt" stroke-opacity="1.0" stroke="rgb(0, 0, 0)" stroke-linejoin="round" d=" M 1237.361, 1251.504 1235.418, 1253.306 " />
            <path fill="none" stroke-width="3.0" stroke-linecap="butt" stroke-opacity="1.0" stroke="rgb(0, 0, 0)" stroke-linejoin="round" d=" M 1246.928, 1238.874 1245.603, 1241.170 " />
            <path fill="none" stroke-width="3.0" stroke-linecap="butt" stroke-opacity="1.0" stroke="rgb(0, 0, 0)" stroke-linejoin="round" d=" M 1248.137, 1236.516 1246.928, 1238.874 " />
            <path fill="none" stroke-width="3.0" stroke-linecap="butt" stroke-opacity="1.0" stroke="rgb(0, 0, 0)" stroke-linejoin="round" d=" M 1249.227, 1234.100 1248.137, 1236.516 " />
            <path fill="none" stroke-width="3.0" stroke-linecap="butt" stroke-opacity="1.0" stroke="rgb(0, 0, 0)" stroke-linejoin="round" d=" M 1250.196, 1231.633 1249.227, 1234.100 " />
            <path fill="none" stroke-width="3.0" stroke-linecap="butt" stroke-opacity="1.0" stroke="rgb(0, 0, 0)" stroke-linejoin="round" d=" M 1251.039, 1229.121 1250.196, 1231.633 " />
            <path fill="none" stroke-width="3.0" stroke-linecap="butt" stroke-opacity="1.0" stroke="rgb(0, 0, 0)" stroke-linejoin="round" d=" M 1251.757, 1226.569 1251.039, 1229.121 " />
            <path fill="none" stroke-width="3.0" stroke-linecap="butt" stroke-opacity="1.0" stroke="rgb(0, 0, 0)" stroke-linejoin="round" d=" M 3554.241, 1160.646 3551.866, 1170.360 3549.490, 1180.074 3547.115, 1189.787 3544.740, 1199.501 3542.364, 1209.215 3539.989, 1218.929 3537.614, 1228.643 3535.238, 1238.356 3532.863, 1248.070 3530.488, 1257.784 3528.112, 1267.498 3525.737, 1277.211 3523.362, 1286.925 3520.986, 1296.639 3518.611, 1306.353 3516.235, 1316.067 3513.860, 1325.780 3511.485, 1335.494 3509.109, 1345.208 3506.734, 1354.922 3504.359, 1364.636 3501.983, 1374.349 3499.608, 1384.063 3497.233, 1393.777 3494.857, 1403.491 3492.482, 1413.205 3490.106, 1422.918 3487.731, 1432.632 3485.356, 1442.346 3482.980, 1452.060 3480.605, 1461.773 3478.230, 1471.487 3475.854, 1481.201 3473.479, 1490.915 3471.104, 1500.629 3468.728, 1510.342 3466.353, 1520.056 3463.978, 1529.770 3461.602, 1539.484 3459.227, 1549.198 3456.852, 1558.911 3454.476, 1568.625 3452.101, 1578.339 3449.726, 1588.053 3447.350, 1597.767 3444.975, 1607.480 3442.599, 1617.194 3440.224, 1626.908 3437.849, 1636.622 3435.473, 1646.336 3433.098, 1656.049 3430.723, 1665.763 3428.347, 1675.477 3425.972, 1685.191 3423.597, 1694.904 3421.221, 1704.618 3418.846, 1714.332 3416.471, 1724.046 3414.095, 1733.760 3411.720, 1743.473 3409.344, 1753.187 3406.969, 1762.901 3404.594, 1772.615 3402.219, 1782.329 3399.843, 1792.042 3397.468, 1801.756 3395.093, 1811.470 3392.717, 1821.184 3390.342, 1830.898 3387.966, 1840.611 3385.591, 1850.325 3383.216, 1860.039 3380.840, 1869.753 3378.465, 1879.466 3374.701, 1894.858 " />
            <path fill="none" stroke-width="3.0" stroke-linecap="butt" stroke-opacity="1.0" stroke="rgb(0, 0, 0)" stroke-linejoin="round" d=" M 3680.394, 720.794 3677.637, 730.407 3674.881, 740.019 3672.124, 749.632 3669.367, 759.244 3666.610, 768.856 3663.853, 778.469 3661.096, 788.081 3658.339, 797.694 3655.582, 807.306 3652.825, 816.919 3650.068, 826.531 3647.311, 836.144 3644.554, 845.756 3641.797, 855.369 3639.040, 864.981 3636.283, 874.594 3633.526, 884.206 3630.770, 893.818 3628.013, 903.431 3625.256, 913.043 3622.499, 922.656 3619.742, 932.268 3616.985, 941.881 3614.228, 951.493 3611.471, 961.106 3608.714, 970.718 3605.957, 980.331 3603.200, 989.943 3600.443, 999.555 3597.686, 1009.168 3594.929, 1018.780 3592.172, 1028.393 3589.416, 1038.005 3586.659, 1047.618 3583.902, 1057.230 3581.145, 1066.843 3578.388, 1076.455 3575.631, 1086.068 3572.874, 1095.680 3570.117, 1105.292 3567.360, 1114.905 3564.603, 1124.517 3561.846, 1134.130 3559.089, 1143.742 3556.332, 1153.355 3554.241, 1160.646 " />
            <path fill="none" stroke-width="3.0" stroke-linecap="butt" stroke-opacity="1.0" stroke="rgb(0, 0, 0)" stroke-linejoin="round" d=" M 3689.484, 527.636 3689.014, 537.625 3688.544, 547.614 3688.073, 557.603 3687.604, 567.592 3687.134, 577.581 3686.663, 587.570 3686.193, 597.559 3685.723, 607.548 3685.253, 617.537 3684.783, 627.526 3684.313, 637.515 3683.843, 647.504 3683.373, 657.492 3682.903, 667.481 3682.433, 677.470 3681.963, 687.459 3681.493, 697.448 3681.023, 707.437 3680.553, 717.426 3680.394, 720.794 " />
        </g>
    </g>
<g id="slice-labels"><text x="609.0852000000001" y="586.067" text-anchor="middle" dominant-baseline="middle" font-family="Arial, sans-serif" font-size="59.05884882756734" font-weight="bold" fill="black" stroke="none" stroke-width="7.08706185930808" paint-order="stroke fill">Slice18 (Back)</text><text x="1780.2975999999999" y="586.067" text-anchor="middle" dominant-baseline="middle" font-family="Arial, sans-serif" font-size="59.05884882756734" font-weight="bold" fill="black" stroke="none" stroke-width="7.08706185930808" paint-order="stroke fill">Slice18 (Back)</text><text x="2951.5099999999998" y="586.067" text-anchor="middle" dominant-baseline="middle" font-family="Arial, sans-serif" font-size="59.05884882756734" font-weight="bold" fill="black" stroke="none" stroke-width="7.08706185930808" paint-order="stroke fill">Slice18 (Back)</text><text x="4122.7224" y="586.067" text-anchor="middle" dominant-baseline="middle" font-family="Arial, sans-serif" font-size="59.05884882756734" font-weight="bold" fill="black" stroke="none" stroke-width="7.08706185930808" paint-order="stroke fill">Slice18 (Back)</text><text x="5293.9348" y="586.067" text-anchor="middle" dominant-baseline="middle" font-family="Arial, sans-serif" font-size="59.05884882756734" font-weight="bold" fill="black" stroke="none" stroke-width="7.08706185930808" paint-order="stroke fill">Slice18 (Back)</text><text x="609.0852000000001" y="1710.9429999999998" text-anchor="middle" dominant-baseline="middle" font-family="Arial, sans-serif" font-size="59.05884882756734" font-weight="bold" fill="black" stroke="none" stroke-width="7.08706185930808" paint-order="stroke fill">Slice18 (Back)</text><text x="1780.2975999999999" y="1710.9429999999998" text-anchor="middle" dominant-baseline="middle" font-family="Arial, sans-serif" font-size="59.05884882756734" font-weight="bold" fill="black" stroke="none" stroke-width="7.08706185930808" paint-order="stroke fill">Slice18 (Back)</text><text x="2951.5099999999998" y="1710.9429999999998" text-anchor="middle" dominant-baseline="middle" font-family="Arial, sans-serif" font-size="59.05884882756734" font-weight="bold" fill="black" stroke="none" stroke-width="7.08706185930808" paint-order="stroke fill">Slice18 (Back)</text><text x="4122.7224" y="1710.9429999999998" text-anchor="middle" dominant-baseline="middle" font-family="Arial, sans-serif" font-size="59.05884882756734" font-weight="bold" fill="black" stroke="none" stroke-width="7.08706185930808" paint-order="stroke fill">Slice18 (Back)</text><text x="5293.9348" y="1710.9429999999998" text-anchor="middle" dominant-baseline="middle" font-family="Arial, sans-serif" font-size="59.05884882756734" font-weight="bold" fill="black" stroke="none" stroke-width="7.08706185930808" paint-order="stroke fill">Slice18 (Back)</text></g></svg>