<?xml version='1.0' encoding='utf-8'?>
<svg xmlns="http://www.w3.org/2000/svg" xmlns:inkscape="http://www.inkscape.org/namespaces/inkscape" version="1.1" width="567.5732859373093mm" height="212.23049545288086mm" viewBox="-0.26625749930787634 0.005747659796053739 6704.532514998615 2506.9995046804083" preserveAspectRatio="none">
    <g id="ViewLayer_LineSet" inkscape:groupmode="lineset" inkscape:label="ViewLayer_LineSet">
        <g inkscape:groupmode="layer" id="strokes" inkscape:label="strokes">
            <path fill="none" stroke-width="3.0" stroke-linecap="butt" stroke-opacity="1.0" stroke="rgb(0, 0, 0)" stroke-linejoin="round" d=" M 1994.466, 2482.413 1984.466, 2482.418 1974.466, 2482.423 1964.466, 2482.428 1954.466, 2482.433 1944.466, 2482.438 1934.466, 2482.442 1924.466, 2482.447 1914.466, 2482.452 1904.466, 2482.457 1894.466, 2482.462 1884.466, 2482.467 1874.466, 2482.472 1864.466, 2482.477 1854.466, 2482.482 1844.466, 2482.487 1834.466, 2482.492 1824.466, 2482.496 1814.466, 2482.501 1804.466, 2482.506 1794.466, 2482.511 1784.466, 2482.516 1774.466, 2482.521 1764.466, 2482.526 1754.466, 2482.531 1744.466, 2482.536 1734.466, 2482.541 1724.466, 2482.546 1714.466, 2482.550 1704.466, 2482.555 1694.466, 2482.560 1684.466, 2482.565 1674.466, 2482.570 1664.466, 2482.575 1654.466, 2482.580 1644.466, 2482.585 1634.466, 2482.590 1624.466, 2482.595 1614.466, 2482.599 1604.466, 2482.604 1594.466, 2482.609 1584.466, 2482.614 1574.466, 2482.619 1564.466, 2482.624 1554.466, 2482.629 1544.466, 2482.634 1534.466, 2482.639 1524.466, 2482.644 1514.466, 2482.649 1504.466, 2482.653 1494.466, 2482.658 1484.466, 2482.663 1474.466, 2482.668 1464.466, 2482.673 1454.466, 2482.678 1444.466, 2482.683 1434.466, 2482.688 1424.466, 2482.693 1414.466, 2482.698 1404.466, 2482.703 1394.466, 2482.707 1384.466, 2482.712 1374.466, 2482.717 1364.466, 2482.722 1354.466, 2482.727 1344.466, 2482.732 1334.466, 2482.737 1324.466, 2482.742 1314.466, 2482.747 1304.466, 2482.752 1294.466, 2482.757 1284.466, 2482.761 1274.466, 2482.766 1264.466, 2482.771 1254.466, 2482.776 1244.466, 2482.781 1234.466, 2482.786 1224.466, 2482.791 1214.466, 2482.796 1204.466, 2482.801 1194.466, 2482.806 1184.466, 2482.811 1174.466, 2482.815 1164.466, 2482.820 1154.466, 2482.825 1144.466, 2482.830 1134.466, 2482.835 1124.466, 2482.840 1114.466, 2482.845 1104.466, 2482.850 1094.466, 2482.855 1084.466, 2482.860 1074.466, 2482.865 1064.466, 2482.869 1054.466, 2482.874 1044.466, 2482.879 1034.466, 2482.884 1024.466, 2482.889 1014.466, 2482.894 1004.466, 2482.899 994.466, 2482.904 984.466, 2482.909 974.466, 2482.914 964.466, 2482.919 954.466, 2482.923 944.466, 2482.928 934.466, 2482.933 924.466, 2482.938 914.466, 2482.943 904.466, 2482.948 894.466, 2482.953 884.466, 2482.958 874.466, 2482.963 864.466, 2482.968 854.466, 2482.973 844.466, 2482.977 834.466, 2482.982 824.466, 2482.987 814.466, 2482.992 804.466, 2482.997 794.466, 2483.002 784.466, 2483.007 774.466, 2483.012 764.466, 2483.017 754.466, 2483.022 744.466, 2483.027 734.466, 2483.031 724.466, 2483.036 714.466, 2483.041 704.466, 2483.046 694.466, 2483.051 684.466, 2483.056 674.466, 2483.061 664.466, 2483.066 654.466, 2483.071 644.466, 2483.076 634.466, 2483.081 624.466, 2483.085 614.466, 2483.090 604.466, 2483.095 594.466, 2483.100 584.466, 2483.105 574.466, 2483.110 564.466, 2483.115 554.466, 2483.120 544.466, 2483.125 534.466, 2483.130 524.466, 2483.135 514.466, 2483.139 504.466, 2483.144 494.466, 2483.149 484.466, 2483.154 474.466, 2483.159 464.466, 2483.164 454.466, 2483.169 444.466, 2483.174 434.466, 2483.179 424.466, 2483.184 414.466, 2483.189 404.466, 2483.193 394.466, 2483.198 384.466, 2483.203 374.466, 2483.208 364.466, 2483.213 354.466, 2483.218 344.466, 2483.223 334.466, 2483.228 324.466, 2483.233 314.466, 2483.238 304.466, 2483.243 294.466, 2483.247 284.466, 2483.252 274.466, 2483.257 264.466, 2483.262 254.466, 2483.267 244.466, 2483.272 234.466, 2483.277 224.466, 2483.282 214.466, 2483.287 204.466, 2483.292 194.466, 2483.296 184.466, 2483.301 174.466, 2483.306 164.466, 2483.311 154.466, 2483.316 144.466, 2483.321 116.772, 2483.335 " />
            <path fill="none" stroke-width="3.0" stroke-linecap="butt" stroke-opacity="1.0" stroke="rgb(0, 0, 0)" stroke-linejoin="round" d=" M 4697.156, 553.895 4694.637, 551.312 4692.250, 548.607 4690.000, 545.786 4687.895, 542.858 4685.938, 539.827 4684.134, 536.703 4682.488, 533.493 4681.004, 530.204 4679.686, 526.846 4678.537, 523.427 4677.560, 519.953 4676.757, 516.437 4676.131, 512.884 4675.682, 509.304 4675.413, 505.707 4675.323, 502.100 4675.413, 498.494 4675.682, 494.896 4676.131, 491.317 4676.757, 487.764 4677.560, 484.247 4678.537, 480.774 4679.686, 477.354 4681.004, 473.995 4682.488, 470.707 4684.134, 467.498 4685.938, 464.373 4687.895, 461.342 4690.000, 458.413 4692.250, 455.593 4694.637, 452.888 4697.156, 450.306 4699.801, 447.851 4702.564, 445.533 4705.440, 443.354 4708.420, 441.322 4711.499, 439.441 4714.667, 437.716 4717.917, 436.151 4721.242, 434.749 4724.632, 433.515 4728.079, 432.452 4731.575, 431.562 4735.111, 430.847 4738.678, 430.309 4742.268, 429.950 4745.871, 429.771 4749.479, 429.771 4753.082, 429.950 4756.671, 430.309 4760.239, 430.847 4763.775, 431.562 4767.271, 432.452 4770.718, 433.515 4774.108, 434.749 4777.433, 436.151 4780.683, 437.716 4783.851, 439.441 4786.930, 441.322 4789.910, 443.354 4792.786, 445.533 4795.550, 447.851 4798.194, 450.306 4800.713, 452.888 4803.100, 455.593 4805.350, 458.413 4807.456, 461.342 4809.413, 464.373 4811.216, 467.498 4812.862, 470.707 4814.346, 473.995 4815.664, 477.354 4816.813, 480.774 4817.790, 484.247 4818.593, 487.764 4819.219, 491.317 4819.668, 494.896 4819.938, 498.494 4820.027, 502.100 4819.938, 505.707 4819.668, 509.304 4819.219, 512.884 4818.593, 516.437 4817.790, 519.953 4816.813, 523.427 4815.664, 526.846 4814.346, 530.204 4812.862, 533.493 4811.216, 536.703 4809.413, 539.827 4807.456, 542.858 4805.350, 545.786 4803.100, 548.607 4800.713, 551.312 4798.194, 553.895 4795.550, 556.348 4792.786, 558.668 4789.910, 560.845 4786.930, 562.878 4783.851, 564.759 4780.683, 566.484 4777.433, 568.050 4774.108, 569.451 4770.718, 570.685 4767.271, 571.748 4763.775, 572.638 4760.239, 573.354 4756.671, 573.891 4753.082, 574.251 4749.479, 574.430 4745.871, 574.430 4742.268, 574.251 4738.678, 573.891 4735.111, 573.354 4731.575, 572.638 4728.079, 571.748 4724.632, 570.685 4721.242, 569.451 4717.917, 568.050 4714.667, 566.484 4711.499, 564.759 4708.420, 562.878 4705.440, 560.845 4702.564, 558.668 4699.801, 556.348 4697.156, 553.895 " />
            <path fill="none" stroke-width="3.0" stroke-linecap="butt" stroke-opacity="1.0" stroke="rgb(0, 0, 0)" stroke-linejoin="round" d=" M 4497.689, 23.708 4487.689, 23.708 4486.956, 23.708 4486.927, 23.708 4486.802, 23.708 4486.559, 23.708 4486.471, 23.708 4486.276, 23.708 4485.998, 23.708 4485.524, 23.708 4484.702, 23.708 4474.702, 23.709 4464.702, 23.709 4454.702, 23.709 4446.938, 23.710 4436.938, 23.710 4426.938, 23.711 4416.938, 23.711 4406.938, 23.712 4396.938, 23.712 4386.938, 23.712 4384.618, 23.713 " />
            <path fill="none" stroke-width="3.0" stroke-linecap="butt" stroke-opacity="1.0" stroke="rgb(0, 0, 0)" stroke-linejoin="round" d=" M 5545.378, 23.663 5555.378, 23.662 5557.407, 23.662 5561.658, 23.662 5559.440, 23.662 5558.283, 23.662 5548.283, 23.662 5542.049, 23.663 " />
            <path fill="none" stroke-width="3.0" stroke-linecap="butt" stroke-opacity="1.0" stroke="rgb(0, 0, 0)" stroke-linejoin="round" d=" M 5554.926, 23.663 5557.407, 23.662 5557.982, 23.662 5558.283, 23.662 " />
            <path fill="none" stroke-width="3.0" stroke-linecap="butt" stroke-opacity="1.0" stroke="rgb(0, 0, 0)" stroke-linejoin="round" d=" M 5561.658, 23.662 5571.658, 23.661 5581.658, 23.661 5591.658, 23.661 5601.658, 23.660 5611.658, 23.660 5621.658, 23.659 5631.658, 23.659 5641.658, 23.658 5651.658, 23.658 5661.658, 23.657 5671.658, 23.657 5681.658, 23.657 5691.658, 23.656 5701.658, 23.656 5711.658, 23.655 5721.658, 23.655 5731.658, 23.655 5741.658, 23.654 5751.658, 23.654 5761.658, 23.653 5771.658, 23.653 5781.658, 23.652 5791.658, 23.652 5801.658, 23.651 5811.658, 23.651 5821.658, 23.651 5831.658, 23.650 5841.658, 23.650 5851.658, 23.649 5861.658, 23.649 5871.658, 23.648 5881.658, 23.648 5891.658, 23.647 5901.658, 23.647 5911.658, 23.647 5921.658, 23.646 5931.658, 23.646 5941.658, 23.645 5951.658, 23.645 5961.658, 23.645 5971.658, 23.644 5981.658, 23.644 5991.658, 23.643 6001.658, 23.643 6011.658, 23.642 6021.658, 23.642 6031.658, 23.641 6041.658, 23.641 6051.658, 23.641 6061.658, 23.640 6071.658, 23.640 6081.658, 23.639 6091.658, 23.639 6101.658, 23.638 6111.658, 23.638 6121.658, 23.637 6131.658, 23.637 6141.658, 23.637 6151.658, 23.636 6161.658, 23.636 6171.658, 23.635 6181.658, 23.635 6191.658, 23.635 6201.658, 23.634 6211.658, 23.634 6221.658, 23.633 6231.658, 23.633 6241.658, 23.632 6251.658, 23.632 6261.658, 23.631 6274.449, 23.631 " />
            <path fill="none" stroke-width="3.0" stroke-linecap="butt" stroke-opacity="1.0" stroke="rgb(0, 0, 0)" stroke-linejoin="round" d=" M 5537.519, 23.663 5527.519, 23.663 5517.519, 23.664 5507.519, 23.664 5497.519, 23.665 5487.519, 23.665 5477.169, 23.666 5467.169, 23.666 5457.169, 23.666 5447.169, 23.667 5439.417, 23.667 5429.417, 23.667 5419.417, 23.668 5409.417, 23.668 5399.417, 23.669 5389.417, 23.669 5379.417, 23.669 5372.767, 23.670 5362.767, 23.670 5352.767, 23.671 5344.526, 23.671 5341.108, 23.671 5331.108, 23.671 5321.108, 23.672 5311.108, 23.672 5301.108, 23.673 5291.108, 23.673 5281.108, 23.674 5271.108, 23.674 5261.108, 23.675 5251.108, 23.675 5241.108, 23.675 5231.108, 23.676 5221.108, 23.676 5211.108, 23.677 5201.108, 23.677 5191.108, 23.677 5181.108, 23.678 5171.108, 23.678 5161.108, 23.679 5151.108, 23.679 5141.108, 23.680 5131.108, 23.680 5121.108, 23.681 5111.108, 23.681 5101.108, 23.681 5091.108, 23.682 5081.108, 23.682 5071.108, 23.683 5061.108, 23.683 5051.108, 23.684 5041.108, 23.684 5031.108, 23.685 5021.108, 23.685 5011.108, 23.685 5001.108, 23.686 4991.108, 23.686 4981.108, 23.687 4971.108, 23.687 4961.108, 23.688 4951.108, 23.688 4941.108, 23.688 4931.108, 23.689 4921.108, 23.689 4911.108, 23.690 4901.108, 23.690 4891.108, 23.691 4881.108, 23.691 4871.108, 23.691 4861.108, 23.692 4851.108, 23.692 4841.108, 23.693 4831.108, 23.693 4821.108, 23.694 4811.108, 23.694 4801.108, 23.695 4791.108, 23.695 4781.108, 23.696 4771.108, 23.696 4761.108, 23.696 4751.108, 23.697 4741.108, 23.697 4731.108, 23.698 4721.108, 23.698 4711.108, 23.698 4701.108, 23.699 4691.108, 23.699 4681.108, 23.700 4671.108, 23.700 4661.108, 23.701 4651.108, 23.701 4641.108, 23.702 4631.108, 23.702 4620.292, 23.702 " />
            <path fill="none" stroke-width="3.0" stroke-linecap="butt" stroke-opacity="1.0" stroke="rgb(0, 0, 0)" stroke-linejoin="round" d=" M 6250.517, 364.490 6251.237, 354.516 6251.956, 344.542 6252.675, 334.568 6253.395, 324.594 6254.114, 314.620 6254.833, 304.646 6255.553, 294.672 6256.272, 284.698 6256.992, 274.723 6257.711, 264.749 6258.431, 254.775 6259.150, 244.801 6259.870, 234.827 6260.589, 224.853 6261.309, 214.879 6262.028, 204.905 6262.747, 194.931 6263.467, 184.957 6264.186, 174.982 6264.905, 165.008 6265.625, 155.034 6266.344, 145.060 6267.063, 135.086 6267.783, 125.112 6268.502, 115.138 6269.222, 105.164 6269.941, 95.190 6270.661, 85.216 6271.380, 75.242 6272.100, 65.268 6272.819, 55.293 6273.538, 45.319 6274.258, 35.345 6274.821, 27.540 6274.449, 23.631 6264.449, 23.631 6254.449, 23.632 6244.449, 23.632 6234.449, 23.633 6224.449, 23.633 6214.449, 23.634 6204.449, 23.634 6194.449, 23.634 6184.449, 23.635 6174.449, 23.635 6164.449, 23.636 6154.449, 23.636 6144.449, 23.637 6134.449, 23.637 6124.449, 23.637 6114.449, 23.638 6104.449, 23.638 6094.449, 23.639 6084.449, 23.639 6074.449, 23.640 6064.449, 23.640 6054.449, 23.641 6044.449, 23.641 6034.449, 23.641 6024.449, 23.642 6014.449, 23.642 6004.449, 23.643 5994.449, 23.643 5984.449, 23.644 5974.449, 23.644 5964.449, 23.645 5954.449, 23.645 5944.449, 23.646 5934.449, 23.646 5924.449, 23.646 5914.449, 23.647 5904.449, 23.647 5894.449, 23.648 5884.448, 23.648 5874.449, 23.648 5864.449, 23.649 5854.449, 23.649 5844.449, 23.650 5834.449, 23.650 5824.448, 23.651 5814.448, 23.651 5804.449, 23.652 5794.449, 23.652 5784.449, 23.652 5774.449, 23.653 5764.448, 23.653 5754.448, 23.654 5744.449, 23.654 5734.449, 23.655 5724.449, 23.655 5714.449, 23.656 5704.448, 23.656 5694.448, 23.656 5684.449, 23.657 5674.449, 23.657 5664.449, 23.658 5654.448, 23.658 5644.448, 23.659 5634.448, 23.659 5624.449, 23.659 5614.449, 23.660 5604.449, 23.660 5594.448, 23.661 5584.448, 23.661 5574.448, 23.662 5564.448, 23.662 5555.424, 23.663 5554.926, 23.663 5550.211, 23.663 5545.378, 23.663 5545.063, 23.663 5545.009, 23.663 5543.189, 23.663 5542.049, 23.663 5539.834, 23.663 5529.834, 23.663 5519.834, 23.663 5509.834, 23.664 5499.834, 23.664 5489.834, 23.665 5479.834, 23.665 5469.834, 23.666 5459.834, 23.666 5449.834, 23.667 5439.834, 23.667 5429.834, 23.667 5419.834, 23.668 5409.834, 23.668 5399.834, 23.669 5389.834, 23.669 5379.834, 23.669 5372.767, 23.670 5362.767, 23.670 5352.767, 23.671 5342.767, 23.671 5339.986, 23.671 5329.986, 23.672 5329.179, 23.672 " />
            <path fill="none" stroke-width="3.0" stroke-linecap="butt" stroke-opacity="1.0" stroke="rgb(0, 0, 0)" stroke-linejoin="round" d=" M 6380.879, 1631.728 6380.500, 1621.735 6380.120, 1611.742 6379.741, 1601.750 6379.361, 1591.757 6378.982, 1581.764 6378.603, 1571.771 6378.223, 1561.779 6377.844, 1551.786 6377.464, 1541.793 6377.084, 1531.800 6376.705, 1521.807 6376.326, 1511.815 6375.946, 1501.822 6375.567, 1491.829 6375.188, 1481.836 6374.808, 1471.843 6374.429, 1461.850 6374.049, 1451.858 6373.669, 1441.865 6373.290, 1431.872 6372.911, 1421.879 6372.531, 1411.886 6372.152, 1401.894 6371.772, 1391.901 6371.393, 1381.908 6371.014, 1371.915 6370.634, 1361.922 6370.255, 1351.930 6369.875, 1341.937 6369.496, 1331.944 6369.116, 1321.951 6368.737, 1311.958 6368.357, 1301.966 6367.978, 1291.973 6367.599, 1281.980 6367.219, 1271.987 6366.840, 1261.995 6366.460, 1252.002 6366.081, 1242.009 6365.701, 1232.016 6365.322, 1222.023 6364.942, 1212.031 6364.563, 1202.038 6364.184, 1192.045 6363.804, 1182.052 6363.425, 1172.059 6363.045, 1162.067 6362.666, 1152.074 6362.286, 1142.081 6361.907, 1132.088 6361.527, 1122.095 6361.148, 1112.103 6360.769, 1102.110 6360.389, 1092.117 6360.010, 1082.124 6359.630, 1072.131 6359.251, 1062.139 6358.871, 1052.146 6358.492, 1042.153 6358.112, 1032.160 6357.733, 1022.167 6357.354, 1012.175 6356.974, 1002.182 6356.595, 992.189 6356.076, 978.536 6354.382, 968.681 6352.688, 958.825 6350.994, 948.970 6349.299, 939.115 6347.605, 929.259 6345.911, 919.404 6344.217, 909.548 6342.522, 899.693 6340.828, 889.837 6339.134, 879.982 6337.440, 870.126 6335.746, 860.271 6334.051, 850.416 6332.357, 840.560 6330.663, 830.705 6328.969, 820.849 6327.274, 810.994 6325.580, 801.138 6323.886, 791.283 6322.192, 781.427 6320.498, 771.572 6318.803, 761.717 6317.109, 751.861 6315.415, 742.006 6313.721, 732.150 6312.026, 722.295 6310.332, 712.439 6308.638, 702.584 6306.944, 692.729 6305.250, 682.873 6303.555, 673.018 6301.861, 663.162 6300.167, 653.307 6298.473, 643.451 6296.778, 633.596 6295.084, 623.740 6293.390, 613.885 6291.696, 604.030 6290.001, 594.174 6288.308, 584.319 6286.613, 574.463 6284.919, 564.608 6283.225, 554.752 6281.530, 544.897 6279.836, 535.042 6278.142, 525.186 6276.448, 515.331 6274.753, 505.475 6273.060, 495.620 6271.365, 485.764 6269.671, 475.909 6267.977, 466.054 6266.283, 456.198 6264.588, 446.343 6262.894, 436.487 6261.200, 426.632 6259.506, 416.776 6257.812, 406.921 6256.117, 397.065 6254.423, 387.210 6252.729, 377.354 6250.517, 364.490 " />
            <path fill="none" stroke-width="3.0" stroke-linecap="butt" stroke-opacity="1.0" stroke="rgb(0, 0, 0)" stroke-linejoin="round" d=" M 4728.541, 2481.072 4738.541, 2481.067 4748.541, 2481.062 4758.541, 2481.057 4768.541, 2481.052 4778.541, 2481.047 4788.541, 2481.042 4798.541, 2481.037 4808.541, 2481.032 4818.541, 2481.028 4828.541, 2481.023 4838.541, 2481.018 4848.541, 2481.013 4858.541, 2481.008 4868.541, 2481.003 4878.541, 2480.998 4888.541, 2480.993 4898.541, 2480.988 4908.541, 2480.983 4918.541, 2480.978 4928.541, 2480.974 4938.541, 2480.969 4948.541, 2480.964 4958.541, 2480.959 4968.541, 2480.954 4978.541, 2480.949 4988.541, 2480.944 4998.541, 2480.939 5008.541, 2480.934 5018.541, 2480.929 5028.541, 2480.924 5038.541, 2480.920 5048.541, 2480.915 5058.541, 2480.910 5068.541, 2480.905 5078.541, 2480.900 5088.541, 2480.895 5098.541, 2480.890 5108.541, 2480.885 5118.541, 2480.880 5128.541, 2480.875 5138.541, 2480.870 5148.541, 2480.866 5158.541, 2480.861 5168.541, 2480.856 5178.541, 2480.851 5188.541, 2480.846 5198.541, 2480.841 5208.541, 2480.836 5218.541, 2480.831 5228.541, 2480.826 5238.541, 2480.821 5248.541, 2480.816 5258.541, 2480.812 5268.541, 2480.807 5278.541, 2480.802 5288.541, 2480.797 5298.541, 2480.792 5308.541, 2480.787 5318.541, 2480.782 5328.541, 2480.777 5338.541, 2480.772 5348.541, 2480.767 5358.541, 2480.762 5368.541, 2480.758 5378.541, 2480.753 5388.541, 2480.748 5398.541, 2480.743 5408.541, 2480.738 5418.541, 2480.733 5428.541, 2480.728 5438.541, 2480.723 5448.541, 2480.718 5458.541, 2480.713 5468.541, 2480.708 5478.541, 2480.704 5488.541, 2480.699 5498.541, 2480.694 5508.541, 2480.689 5518.541, 2480.684 5528.541, 2480.679 5538.541, 2480.674 5548.541, 2480.669 5558.541, 2480.664 5568.541, 2480.659 5578.541, 2480.654 5588.541, 2480.650 5598.541, 2480.645 5608.541, 2480.640 5618.541, 2480.635 5628.541, 2480.630 5638.541, 2480.625 5648.541, 2480.620 5658.541, 2480.615 5668.541, 2480.610 5678.541, 2480.605 5688.541, 2480.600 5698.541, 2480.596 5708.541, 2480.591 5718.541, 2480.586 5728.541, 2480.581 5738.541, 2480.576 5748.541, 2480.571 5758.541, 2480.566 5768.541, 2480.561 5778.541, 2480.556 5788.541, 2480.551 5798.541, 2480.546 5808.541, 2480.542 5818.541, 2480.537 5828.541, 2480.532 5838.541, 2480.527 5848.541, 2480.522 5858.541, 2480.517 5868.541, 2480.512 5878.541, 2480.507 5888.541, 2480.502 5898.541, 2480.497 5908.541, 2480.492 5918.541, 2480.488 5928.541, 2480.483 5938.541, 2480.478 5948.541, 2480.473 5958.541, 2480.468 5968.541, 2480.463 5978.541, 2480.458 5988.541, 2480.453 5998.541, 2480.448 6008.541, 2480.443 6018.541, 2480.438 6028.541, 2480.434 6038.541, 2480.429 6048.541, 2480.424 6058.541, 2480.419 6068.541, 2480.414 6078.541, 2480.409 6088.541, 2480.404 6098.541, 2480.399 6108.541, 2480.394 6118.541, 2480.389 6128.541, 2480.384 6138.541, 2480.380 6148.541, 2480.375 6158.541, 2480.370 6168.541, 2480.365 6178.541, 2480.360 6188.541, 2480.355 6198.541, 2480.350 6208.541, 2480.345 6218.541, 2480.340 6228.541, 2480.335 6238.541, 2480.330 6248.541, 2480.326 6258.541, 2480.321 6268.541, 2480.316 6278.541, 2480.311 6288.541, 2480.306 6298.541, 2480.301 6308.541, 2480.296 6318.541, 2480.291 6328.541, 2480.286 6338.541, 2480.281 6348.541, 2480.276 6358.541, 2480.272 6368.541, 2480.267 6378.541, 2480.262 6388.541, 2480.257 6398.541, 2480.252 6408.541, 2480.247 6418.541, 2480.242 6428.541, 2480.237 6438.541, 2480.232 6448.541, 2480.227 6458.541, 2480.222 6468.541, 2480.218 6478.541, 2480.213 6488.541, 2480.208 6498.541, 2480.203 6508.541, 2480.198 6518.541, 2480.193 6528.541, 2480.188 6538.541, 2480.183 6548.541, 2480.178 6558.541, 2480.173 6568.541, 2480.168 6578.541, 2480.164 6588.541, 2480.159 6598.541, 2480.154 6608.541, 2480.149 6618.541, 2480.144 6628.541, 2480.139 6638.541, 2480.134 6648.541, 2480.129 6658.541, 2480.124 6680.641, 2480.113 6677.310, 2470.685 6673.978, 2461.256 6670.647, 2451.827 6667.315, 2442.398 6663.984, 2432.970 6660.652, 2423.541 6657.321, 2414.112 6653.989, 2404.683 6650.658, 2395.255 6647.326, 2385.826 6643.995, 2376.397 6640.664, 2366.968 6637.332, 2357.540 6634.000, 2348.111 6630.669, 2338.682 6627.337, 2329.254 6624.006, 2319.825 6620.674, 2310.396 6617.343, 2300.967 6614.012, 2291.539 6610.680, 2282.110 6607.349, 2272.681 6604.017, 2263.252 6600.686, 2253.824 6597.354, 2244.395 6594.022, 2234.966 6590.691, 2225.537 6587.360, 2216.109 6584.028, 2206.680 6580.697, 2197.251 6577.365, 2187.822 6574.034, 2178.394 6570.702, 2168.965 6567.371, 2159.536 6564.040, 2150.107 6560.708, 2140.679 6557.376, 2131.250 6554.045, 2121.821 6550.713, 2112.392 6547.382, 2102.964 6544.050, 2093.535 6540.719, 2084.106 6537.388, 2074.677 6534.056, 2065.249 6530.725, 2055.820 6527.393, 2046.391 6524.062, 2036.962 6520.730, 2027.534 6517.398, 2018.105 6514.067, 2008.676 6510.736, 1999.247 6507.404, 1989.819 6504.073, 1980.390 6500.741, 1970.961 6497.410, 1961.532 6494.078, 1952.104 6490.747, 1942.675 6487.415, 1933.246 6484.084, 1923.817 6480.752, 1914.389 6477.421, 1904.960 6474.089, 1895.531 6470.758, 1886.103 6467.426, 1876.674 6464.095, 1867.245 6460.763, 1857.816 6457.432, 1848.388 6454.101, 1838.959 6450.769, 1829.530 6447.438, 1820.101 6444.106, 1810.673 6440.774, 1801.244 6437.443, 1791.815 6434.111, 1782.386 6430.780, 1772.958 6427.449, 1763.529 6424.117, 1754.100 6420.786, 1744.671 6417.454, 1735.243 6414.123, 1725.814 6410.791, 1716.385 6407.459, 1706.956 6404.128, 1697.528 6400.797, 1688.099 6397.465, 1678.670 6394.134, 1669.241 6390.802, 1659.813 6387.471, 1650.384 6384.139, 1640.955 6380.879, 1631.728 " />
            <path fill="none" stroke-width="3.0" stroke-linecap="butt" stroke-opacity="1.0" stroke="rgb(0, 0, 0)" stroke-linejoin="round" d=" M 476.537, 1272.984 469.126, 1279.698 461.716, 1286.412 454.306, 1293.127 446.895, 1299.842 439.484, 1306.556 432.074, 1313.271 424.663, 1319.985 417.253, 1326.699 409.842, 1333.414 402.432, 1340.128 395.021, 1346.843 387.611, 1353.557 380.664, 1359.852 376.913, 1369.122 373.162, 1378.392 369.412, 1387.662 365.661, 1396.933 361.911, 1406.203 358.160, 1415.473 354.410, 1424.743 350.659, 1434.013 346.909, 1443.283 343.158, 1452.553 339.408, 1461.823 335.657, 1471.093 331.907, 1480.363 328.156, 1489.633 324.406, 1498.903 320.655, 1508.173 316.905, 1517.443 313.154, 1526.713 309.404, 1535.983 305.653, 1545.253 301.903, 1554.523 298.152, 1563.793 294.402, 1573.063 290.651, 1582.333 286.900, 1591.603 283.150, 1600.873 279.399, 1610.143 275.649, 1619.413 271.898, 1628.683 268.148, 1637.954 264.397, 1647.224 260.647, 1656.494 256.896, 1665.764 253.146, 1675.034 249.395, 1684.304 245.645, 1693.574 241.894, 1702.844 238.144, 1712.114 234.393, 1721.384 230.643, 1730.654 226.892, 1739.924 223.142, 1749.194 219.391, 1758.464 215.641, 1767.734 211.890, 1777.004 208.140, 1786.274 204.389, 1795.544 200.638, 1804.814 196.888, 1814.084 193.137, 1823.354 189.387, 1832.624 185.636, 1841.894 181.886, 1851.164 178.135, 1860.434 174.385, 1869.704 170.634, 1878.974 166.884, 1888.245 163.018, 1897.799 160.614, 1907.506 158.211, 1917.213 155.807, 1926.920 153.403, 1936.627 151.000, 1946.333 148.596, 1956.040 146.192, 1965.747 143.789, 1975.454 141.385, 1985.161 138.981, 1994.867 136.577, 2004.574 134.174, 2014.281 131.770, 2023.988 129.366, 2033.695 126.963, 2043.401 124.559, 2053.108 122.155, 2062.815 119.752, 2072.522 117.348, 2082.229 114.944, 2091.936 112.541, 2101.642 110.137, 2111.349 107.733, 2121.056 105.329, 2130.763 102.926, 2140.470 100.522, 2150.176 98.118, 2159.883 95.715, 2169.590 93.311, 2179.297 90.907, 2189.004 88.504, 2198.711 86.100, 2208.417 83.696, 2218.124 81.293, 2227.831 78.889, 2237.538 76.485, 2247.245 74.081, 2256.951 71.678, 2266.658 69.274, 2276.365 66.870, 2286.072 64.467, 2295.779 62.063, 2305.486 59.659, 2315.192 57.256, 2324.899 54.852, 2334.606 52.448, 2344.313 50.044, 2354.020 47.641, 2363.726 45.237, 2373.433 42.833, 2383.140 40.430, 2392.847 38.026, 2402.554 35.622, 2412.260 33.219, 2421.967 30.815, 2431.674 28.411, 2441.381 26.437, 2449.355 " />
            <path fill="none" stroke-width="3.0" stroke-linecap="butt" stroke-opacity="1.0" stroke="rgb(0, 0, 0)" stroke-linejoin="round" d=" M 684.795, 458.014 682.483, 467.743 680.172, 477.472 677.860, 487.202 675.548, 496.931 673.236, 506.660 670.925, 516.389 668.613, 526.118 666.301, 535.847 663.989, 545.576 661.678, 555.305 659.366, 565.035 657.054, 574.764 654.742, 584.493 652.431, 594.222 650.119, 603.951 647.807, 613.680 645.495, 623.409 643.184, 633.138 640.872, 642.867 638.560, 652.597 636.248, 662.326 633.937, 672.055 631.625, 681.784 629.313, 691.513 627.001, 701.242 624.690, 710.971 622.378, 720.700 620.773, 727.457 620.187, 737.439 619.602, 747.422 619.017, 757.405 618.432, 767.388 617.846, 777.371 617.261, 787.354 616.676, 797.337 616.091, 807.319 615.505, 817.302 614.920, 827.285 614.335, 837.268 613.750, 847.251 613.164, 857.234 612.579, 867.217 611.994, 877.199 611.409, 887.182 610.823, 897.165 610.238, 907.148 609.653, 917.131 609.068, 927.114 608.482, 937.097 607.897, 947.079 607.312, 957.062 606.727, 967.045 606.141, 977.028 605.556, 987.011 605.102, 994.749 602.921, 1004.509 600.740, 1014.268 598.559, 1024.027 596.378, 1033.786 594.197, 1043.546 592.016, 1053.305 589.835, 1063.064 587.654, 1072.823 585.473, 1082.583 583.292, 1092.342 581.111, 1102.101 578.930, 1111.860 576.749, 1121.620 574.567, 1131.379 572.386, 1141.138 570.205, 1150.897 568.180, 1159.961 561.881, 1167.729 555.583, 1175.496 549.285, 1183.264 542.987, 1191.031 536.689, 1198.799 530.391, 1206.566 524.093, 1214.333 517.794, 1222.101 511.496, 1229.868 505.198, 1237.636 498.900, 1245.403 492.602, 1253.171 486.304, 1260.938 480.006, 1268.706 476.537, 1272.984 " />
            <path fill="none" stroke-width="3.0" stroke-linecap="butt" stroke-opacity="1.0" stroke="rgb(0, 0, 0)" stroke-linejoin="round" d=" M 762.000, 23.872 759.905, 33.650 757.810, 43.428 755.715, 53.206 753.620, 62.984 751.525, 72.762 749.430, 82.540 747.335, 92.318 745.240, 102.096 743.144, 111.874 741.049, 121.652 738.954, 131.430 736.859, 141.208 734.764, 150.987 732.669, 160.765 730.574, 170.543 728.479, 180.321 726.384, 190.099 724.289, 199.877 722.194, 209.655 720.099, 219.433 718.004, 229.211 715.909, 238.989 713.814, 248.767 712.351, 255.593 711.002, 265.502 709.653, 275.410 708.304, 285.319 706.956, 295.228 705.607, 305.136 704.258, 315.045 702.909, 324.953 701.560, 334.862 700.211, 344.771 698.862, 354.679 697.513, 364.588 696.164, 374.497 694.816, 384.405 693.467, 394.314 692.118, 404.222 690.769, 414.131 689.420, 424.040 688.071, 433.948 686.722, 443.857 685.373, 453.765 684.795, 458.014 " />
            <path fill="none" stroke-width="3.0" stroke-linecap="butt" stroke-opacity="1.0" stroke="rgb(0, 0, 0)" stroke-linejoin="round" d=" M 26.437, 2449.355 25.536, 2459.314 24.635, 2469.273 23.734, 2479.233 23.359, 2483.380 33.359, 2483.375 43.359, 2483.371 53.359, 2483.366 63.359, 2483.361 73.359, 2483.356 83.359, 2483.351 93.359, 2483.346 103.359, 2483.341 113.359, 2483.336 116.772, 2483.335 " />
            <path fill="none" stroke-width="3.0" stroke-linecap="butt" stroke-opacity="1.0" stroke="rgb(0, 0, 0)" stroke-linejoin="round" d=" M 116.772, 2483.335 126.772, 2483.330 136.772, 2483.325 146.772, 2483.320 156.772, 2483.315 166.772, 2483.310 176.772, 2483.305 186.772, 2483.300 196.772, 2483.295 206.772, 2483.290 216.772, 2483.286 226.772, 2483.281 236.772, 2483.276 246.772, 2483.271 256.772, 2483.266 266.772, 2483.261 276.772, 2483.256 286.772, 2483.251 296.772, 2483.246 306.772, 2483.241 316.772, 2483.236 326.772, 2483.232 336.772, 2483.227 346.772, 2483.222 356.772, 2483.217 366.772, 2483.212 376.772, 2483.207 386.772, 2483.202 396.772, 2483.197 406.772, 2483.192 416.772, 2483.187 426.772, 2483.182 436.772, 2483.178 446.772, 2483.173 456.772, 2483.168 466.772, 2483.163 476.772, 2483.158 486.772, 2483.153 496.772, 2483.148 506.772, 2483.143 516.772, 2483.138 526.772, 2483.133 536.772, 2483.128 546.772, 2483.124 556.772, 2483.119 566.772, 2483.114 576.772, 2483.109 586.772, 2483.104 596.772, 2483.099 606.772, 2483.094 616.772, 2483.089 626.772, 2483.084 636.772, 2483.079 646.772, 2483.074 656.772, 2483.070 666.772, 2483.065 676.772, 2483.060 686.772, 2483.055 696.772, 2483.050 706.772, 2483.045 716.772, 2483.040 726.772, 2483.035 736.772, 2483.030 746.772, 2483.025 756.772, 2483.020 766.772, 2483.016 776.772, 2483.011 786.772, 2483.006 796.772, 2483.001 806.772, 2482.996 816.772, 2482.991 826.772, 2482.986 836.772, 2482.981 846.772, 2482.976 856.772, 2482.971 866.772, 2482.966 876.772, 2482.962 886.772, 2482.957 896.772, 2482.952 906.772, 2482.947 916.772, 2482.942 926.772, 2482.937 936.772, 2482.932 946.772, 2482.927 956.772, 2482.922 966.772, 2482.917 976.772, 2482.913 986.772, 2482.908 996.772, 2482.903 1006.772, 2482.898 1016.772, 2482.893 1026.772, 2482.888 1036.772, 2482.883 1046.772, 2482.878 1056.772, 2482.873 1066.772, 2482.868 1076.772, 2482.863 1086.772, 2482.859 1096.772, 2482.854 1106.772, 2482.849 1116.772, 2482.844 1126.772, 2482.839 1136.772, 2482.834 1146.772, 2482.829 1156.772, 2482.824 1166.772, 2482.819 1176.772, 2482.814 1186.772, 2482.809 1196.772, 2482.805 1206.772, 2482.800 1216.772, 2482.795 1226.772, 2482.790 1236.772, 2482.785 1246.772, 2482.780 1256.772, 2482.775 1266.772, 2482.770 1276.772, 2482.765 1286.772, 2482.760 1296.772, 2482.755 1306.772, 2482.751 1316.772, 2482.746 1326.772, 2482.741 1336.772, 2482.736 1346.772, 2482.731 1356.772, 2482.726 1366.772, 2482.721 1376.772, 2482.716 1386.772, 2482.711 1396.772, 2482.706 1406.772, 2482.701 1416.772, 2482.697 1426.772, 2482.692 1436.772, 2482.687 1446.772, 2482.682 1456.772, 2482.677 1466.772, 2482.672 1476.772, 2482.667 1486.772, 2482.662 1496.772, 2482.657 1506.772, 2482.652 1516.772, 2482.647 1526.772, 2482.643 1536.772, 2482.638 1546.772, 2482.633 1556.772, 2482.628 1566.772, 2482.623 1576.772, 2482.618 1586.772, 2482.613 1596.772, 2482.608 1606.772, 2482.603 1616.772, 2482.598 1626.772, 2482.593 1636.772, 2482.589 1646.772, 2482.584 1656.772, 2482.579 1666.772, 2482.574 1676.772, 2482.569 1686.772, 2482.564 1696.772, 2482.559 1706.772, 2482.554 1716.772, 2482.549 1726.772, 2482.544 1736.772, 2482.539 1746.772, 2482.535 1756.772, 2482.530 1766.772, 2482.525 1776.772, 2482.520 1786.772, 2482.515 1796.772, 2482.510 1806.772, 2482.505 1816.772, 2482.500 1826.772, 2482.495 1836.772, 2482.490 1846.772, 2482.485 1856.772, 2482.481 1866.772, 2482.476 1876.772, 2482.471 1886.772, 2482.466 1896.772, 2482.461 1906.772, 2482.456 1916.772, 2482.451 1926.771, 2482.446 1936.772, 2482.441 1946.772, 2482.436 1956.772, 2482.431 1966.772, 2482.427 1994.466, 2482.413 " />
            <path fill="none" stroke-width="3.0" stroke-linecap="butt" stroke-opacity="1.0" stroke="rgb(0, 0, 0)" stroke-linejoin="round" d=" M 1994.466, 2482.413 1995.464, 2472.463 1996.462, 2462.513 1997.460, 2452.563 1998.458, 2442.613 1999.456, 2432.663 2000.453, 2422.712 2001.451, 2412.762 2002.449, 2402.812 2003.212, 2395.209 2007.533, 2386.190 2011.853, 2377.172 2016.174, 2368.154 2020.494, 2359.135 2024.815, 2350.117 2029.136, 2341.098 2033.456, 2332.080 2037.777, 2323.061 2042.098, 2314.043 2046.418, 2305.025 2050.739, 2296.006 2055.060, 2286.988 2059.380, 2277.969 2063.701, 2268.951 2068.021, 2259.932 2072.342, 2250.914 2076.663, 2241.896 2080.983, 2232.877 2085.304, 2223.859 2089.625, 2214.840 2093.945, 2205.822 2098.266, 2196.803 2102.586, 2187.785 2106.907, 2178.766 2111.228, 2169.748 2115.548, 2160.730 2119.869, 2151.711 2124.189, 2142.693 2128.510, 2133.674 2132.831, 2124.656 2137.151, 2115.637 2141.472, 2106.619 2145.793, 2097.601 2150.113, 2088.582 2154.434, 2079.564 2158.755, 2070.545 2163.075, 2061.527 2167.396, 2052.508 2171.717, 2043.490 2176.037, 2034.472 2180.358, 2025.453 2184.678, 2016.435 2188.999, 2007.416 2193.320, 1998.398 2197.640, 1989.379 2201.961, 1980.361 2206.281, 1971.342 2210.602, 1962.324 2214.923, 1953.306 2219.243, 1944.287 2223.564, 1935.269 2227.885, 1926.250 2232.205, 1917.232 2236.526, 1908.213 2240.846, 1899.195 2245.167, 1890.177 2249.488, 1881.158 2253.808, 1872.140 2258.344, 1862.673 " />
            <path fill="none" stroke-width="3.0" stroke-linecap="butt" stroke-opacity="1.0" stroke="rgb(0, 0, 0)" stroke-linejoin="round" d=" M 1760.655, 805.598 1759.002, 803.526 1757.455, 801.374 1756.017, 799.147 1754.692, 796.853 1753.483, 794.493 1752.393, 792.078 1751.424, 789.610 1750.580, 787.098 1749.862, 784.547 " />
            <path fill="none" stroke-width="3.0" stroke-linecap="butt" stroke-opacity="1.0" stroke="rgb(0, 0, 0)" stroke-linejoin="round" d=" M 1797.403, 824.438 1794.766, 824.174 1792.145, 823.779 1789.547, 823.253 1786.978, 822.600 1784.446, 821.819 1781.955, 820.911 1779.513, 819.882 1777.125, 818.732 1774.797, 817.465 1772.535, 816.083 1770.345, 814.589 " />
            <path fill="none" stroke-width="3.0" stroke-linecap="butt" stroke-opacity="1.0" stroke="rgb(0, 0, 0)" stroke-linejoin="round" d=" M 1749.272, 781.963 1748.812, 779.352 1748.483, 776.722 1748.285, 774.079 " />
            <path fill="none" stroke-width="3.0" stroke-linecap="butt" stroke-opacity="1.0" stroke="rgb(0, 0, 0)" stroke-linejoin="round" d=" M 1813.204, 823.253 1810.606, 823.779 1807.985, 824.174 1805.348, 824.438 1802.701, 824.570 1800.050, 824.570 1797.403, 824.438 " />
            <path fill="none" stroke-width="3.0" stroke-linecap="butt" stroke-opacity="1.0" stroke="rgb(0, 0, 0)" stroke-linejoin="round" d=" M 1748.285, 768.780 1748.483, 766.137 " />
            <path fill="none" stroke-width="3.0" stroke-linecap="butt" stroke-opacity="1.0" stroke="rgb(0, 0, 0)" stroke-linejoin="round" d=" M 1748.483, 766.137 1748.812, 763.507 " />
            <path fill="none" stroke-width="3.0" stroke-linecap="butt" stroke-opacity="1.0" stroke="rgb(0, 0, 0)" stroke-linejoin="round" d=" M 1748.812, 763.507 1749.272, 760.897 1749.862, 758.313 1750.580, 755.761 " />
            <path fill="none" stroke-width="3.0" stroke-linecap="butt" stroke-opacity="1.0" stroke="rgb(0, 0, 0)" stroke-linejoin="round" d=" M 1750.580, 755.761 1751.424, 753.249 " />
            <path fill="none" stroke-width="3.0" stroke-linecap="butt" stroke-opacity="1.0" stroke="rgb(0, 0, 0)" stroke-linejoin="round" d=" M 1751.424, 753.249 1752.393, 750.781 " />
            <path fill="none" stroke-width="3.0" stroke-linecap="butt" stroke-opacity="1.0" stroke="rgb(0, 0, 0)" stroke-linejoin="round" d=" M 1752.393, 750.781 1753.483, 748.366 1754.692, 746.007 1756.017, 743.712 1757.455, 741.485 1759.002, 739.334 1760.655, 737.261 1762.409, 735.274 1764.259, 733.376 1766.202, 731.574 1768.233, 729.870 " />
            <path fill="none" stroke-width="3.0" stroke-linecap="butt" stroke-opacity="1.0" stroke="rgb(0, 0, 0)" stroke-linejoin="round" d=" M 1393.806, 23.844 1391.118, 23.844 1381.118, 23.845 1371.118, 23.846 1361.118, 23.848 1351.118, 23.849 1341.118, 23.850 1331.118, 23.851 1321.118, 23.853 1311.118, 23.854 1301.118, 23.855 1291.118, 23.856 1281.118, 23.857 1271.118, 23.859 1261.118, 23.860 1251.118, 23.861 1241.118, 23.862 1231.118, 23.864 1221.118, 23.865 1211.118, 23.866 1201.118, 23.867 1191.118, 23.868 1181.118, 23.870 1171.118, 23.871 1161.118, 23.872 1151.118, 23.873 1141.118, 23.874 1131.118, 23.875 1121.118, 23.877 1111.118, 23.878 1101.118, 23.879 1091.118, 23.880 1081.118, 23.882 1071.118, 23.883 1061.118, 23.884 1051.118, 23.885 1041.118, 23.886 1031.118, 23.888 1021.118, 23.889 1011.118, 23.890 1001.118, 23.891 991.118, 23.893 981.118, 23.894 971.118, 23.895 961.118, 23.896 951.118, 23.897 941.118, 23.899 931.118, 23.900 921.118, 23.901 911.118, 23.902 901.118, 23.904 891.118, 23.905 881.118, 23.906 871.118, 23.907 861.118, 23.908 851.118, 23.909 841.118, 23.911 831.118, 23.912 821.118, 23.913 811.118, 23.914 801.118, 23.916 788.115, 23.917 788.029, 23.938 787.952, 23.938 787.871, 23.938 787.788, 23.938 787.702, 23.938 787.614, 23.939 787.524, 23.939 787.432, 23.939 787.339, 23.939 787.244, 23.939 " />
            <path fill="none" stroke-width="3.0" stroke-linecap="butt" stroke-opacity="1.0" stroke="rgb(0, 0, 0)" stroke-linejoin="round" d=" M 1768.233, 729.870 1770.345, 728.270 1772.535, 726.776 1774.797, 725.395 1777.125, 724.127 1779.513, 722.976 " />
            <path fill="none" stroke-width="3.0" stroke-linecap="butt" stroke-opacity="1.0" stroke="rgb(0, 0, 0)" stroke-linejoin="round" d=" M 1779.513, 722.976 1781.955, 721.947 1784.446, 721.041 1786.978, 720.259 " />
            <path fill="none" stroke-width="3.0" stroke-linecap="butt" stroke-opacity="1.0" stroke="rgb(0, 0, 0)" stroke-linejoin="round" d=" M 1786.978, 720.259 1789.547, 719.605 1792.145, 719.081 1794.766, 718.686 1797.403, 718.422 1800.050, 718.289 1802.701, 718.289 1805.348, 718.422 1807.985, 718.686 " />
            <path fill="none" stroke-width="3.0" stroke-linecap="butt" stroke-opacity="1.0" stroke="rgb(0, 0, 0)" stroke-linejoin="round" d=" M 2258.344, 1862.673 2260.439, 1852.895 2262.535, 1843.117 2264.630, 1833.339 2266.725, 1823.561 2268.821, 1813.783 2270.916, 1804.005 2273.011, 1794.227 2275.107, 1784.449 2277.202, 1774.671 2279.298, 1764.893 2281.393, 1755.115 2283.489, 1745.337 2285.584, 1735.559 2287.679, 1725.781 2289.775, 1716.003 2291.870, 1706.225 2293.965, 1696.447 2296.061, 1686.669 2298.156, 1676.891 2300.251, 1667.113 2302.347, 1657.335 2304.442, 1647.557 2306.538, 1637.779 2308.633, 1628.001 2310.729, 1618.223 2312.824, 1608.445 2314.919, 1598.667 2317.015, 1588.889 2319.110, 1579.111 2321.205, 1569.333 2323.301, 1559.555 2325.396, 1549.777 2327.491, 1539.999 2329.587, 1530.221 2331.682, 1520.443 2333.778, 1510.665 2335.873, 1500.887 2337.969, 1491.109 2340.064, 1481.331 2342.159, 1471.553 2344.255, 1461.775 2346.350, 1451.997 2348.445, 1442.219 2350.541, 1432.441 2352.636, 1422.663 2354.731, 1412.885 2356.827, 1403.107 2358.922, 1393.329 2361.018, 1383.551 2363.113, 1373.773 2365.208, 1363.995 2367.304, 1354.217 2369.399, 1344.439 2371.495, 1334.661 2373.590, 1324.883 2375.686, 1315.105 2377.781, 1305.327 2379.876, 1295.549 2381.972, 1285.771 2384.751, 1272.803 2388.407, 1263.495 2392.064, 1254.188 2395.720, 1244.880 2399.377, 1235.573 2403.033, 1226.265 2406.690, 1216.958 2410.346, 1207.650 2414.003, 1198.343 2417.659, 1189.035 2421.316, 1179.728 2424.973, 1170.420 2428.629, 1161.112 2432.286, 1151.805 2435.942, 1142.497 2437.886, 1137.550 2439.259, 1127.645 2440.632, 1117.740 2442.005, 1107.834 2443.377, 1097.929 2444.750, 1088.024 2446.123, 1078.118 2447.496, 1068.213 2448.869, 1058.308 2450.242, 1048.402 2451.615, 1038.497 2452.988, 1028.592 2454.361, 1018.687 2455.734, 1008.781 2457.106, 998.876 2458.479, 988.971 2459.852, 979.065 2461.225, 969.160 2462.598, 959.255 2463.971, 949.349 2465.344, 939.444 2466.717, 929.539 2468.090, 919.633 2469.463, 909.728 2470.836, 899.823 2472.208, 889.917 2473.581, 880.012 2474.954, 870.107 2476.327, 860.202 2477.700, 850.296 2479.073, 840.391 2480.446, 830.486 2481.819, 820.580 2483.192, 810.675 2484.565, 800.770 2485.938, 790.864 2487.311, 780.959 2488.683, 771.054 2490.056, 761.148 2491.429, 751.243 2492.802, 741.338 2494.175, 731.432 2495.548, 721.527 2496.921, 711.622 2498.294, 701.717 2499.667, 691.811 2501.366, 679.551 " />
            <path fill="none" stroke-width="3.0" stroke-linecap="butt" stroke-opacity="1.0" stroke="rgb(0, 0, 0)" stroke-linejoin="round" d=" M 1830.215, 816.083 1827.954, 817.465 1825.626, 818.732 1823.238, 819.882 1820.796, 820.911 1818.305, 821.819 1815.772, 822.600 1813.204, 823.253 " />
            <path fill="none" stroke-width="3.0" stroke-linecap="butt" stroke-opacity="1.0" stroke="rgb(0, 0, 0)" stroke-linejoin="round" d=" M 1850.358, 792.078 1849.268, 794.493 1848.059, 796.853 1846.734, 799.147 1845.296, 801.374 1843.748, 803.526 1842.096, 805.598 1840.342, 807.586 1838.491, 809.483 1836.548, 811.286 1834.518, 812.990 1832.405, 814.589 " />
            <path fill="none" stroke-width="3.0" stroke-linecap="butt" stroke-opacity="1.0" stroke="rgb(0, 0, 0)" stroke-linejoin="round" d=" M 1854.532, 771.430 1854.466, 774.079 1854.268, 776.722 1853.938, 779.352 1853.478, 781.963 1852.888, 784.547 1852.171, 787.098 1851.326, 789.610 1850.358, 792.078 " />
            <path fill="none" stroke-width="3.0" stroke-linecap="butt" stroke-opacity="1.0" stroke="rgb(0, 0, 0)" stroke-linejoin="round" d=" M 1476.276, 23.840 1466.276, 23.841 1456.276, 23.841 1446.276, 23.841 1436.276, 23.842 1426.276, 23.842 1416.276, 23.843 1406.276, 23.843 1398.525, 23.844 1397.059, 23.844 1395.563, 23.844 " />
            <path fill="none" stroke-width="3.0" stroke-linecap="butt" stroke-opacity="1.0" stroke="rgb(0, 0, 0)" stroke-linejoin="round" d=" M 1854.466, 768.780 1854.532, 771.430 " />
            <path fill="none" stroke-width="3.0" stroke-linecap="butt" stroke-opacity="1.0" stroke="rgb(0, 0, 0)" stroke-linejoin="round" d=" M 1849.268, 748.366 1850.358, 750.781 1851.326, 753.249 1852.171, 755.761 1852.888, 758.313 1853.478, 760.897 1853.938, 763.507 1854.268, 766.137 1854.466, 768.780 " />
            <path fill="none" stroke-width="3.0" stroke-linecap="butt" stroke-opacity="1.0" stroke="rgb(0, 0, 0)" stroke-linejoin="round" d=" M 1838.491, 733.376 1840.342, 735.274 1842.096, 737.261 1843.748, 739.334 1845.296, 741.485 1846.734, 743.712 1848.059, 746.007 1849.268, 748.366 " />
            <path fill="none" stroke-width="3.0" stroke-linecap="butt" stroke-opacity="1.0" stroke="rgb(0, 0, 0)" stroke-linejoin="round" d=" M 2501.366, 679.551 2504.369, 670.013 2507.372, 660.474 2510.375, 650.936 2513.378, 641.397 2516.382, 631.859 2519.385, 622.321 2522.388, 612.782 2525.391, 603.244 2528.394, 593.705 2531.397, 584.167 2534.400, 574.629 2537.403, 565.090 2540.406, 555.552 2543.409, 546.013 2546.413, 536.475 2549.416, 526.936 2552.419, 517.398 2555.437, 507.811 2557.673, 498.065 2559.909, 488.318 2562.145, 478.571 2564.381, 468.824 2566.617, 459.077 2568.853, 449.331 2571.089, 439.584 2573.325, 429.837 2575.561, 420.090 2577.796, 410.343 2580.032, 400.596 2582.268, 390.850 2584.504, 381.103 2586.740, 371.356 2588.976, 361.609 2591.212, 351.862 2593.448, 342.115 2595.684, 332.369 2597.920, 322.622 2600.156, 312.875 2602.392, 303.128 2604.628, 293.381 2606.864, 283.635 2609.100, 273.888 2611.336, 264.141 2613.572, 254.394 2615.808, 244.647 2618.043, 234.900 2620.280, 225.154 2622.515, 215.407 2624.751, 205.660 2626.987, 195.913 2629.223, 186.166 2631.459, 176.419 2633.695, 166.673 2635.931, 156.926 2638.167, 147.179 2639.563, 141.094 " />
            <path fill="none" stroke-width="3.0" stroke-linecap="butt" stroke-opacity="1.0" stroke="rgb(0, 0, 0)" stroke-linejoin="round" d=" M 1832.405, 728.270 1834.518, 729.870 1836.548, 731.574 1838.491, 733.376 " />
            <path fill="none" stroke-width="3.0" stroke-linecap="butt" stroke-opacity="1.0" stroke="rgb(0, 0, 0)" stroke-linejoin="round" d=" M 1830.215, 726.776 1832.405, 728.270 " />
            <path fill="none" stroke-width="3.0" stroke-linecap="butt" stroke-opacity="1.0" stroke="rgb(0, 0, 0)" stroke-linejoin="round" d=" M 1815.772, 720.259 1818.305, 721.041 1820.796, 721.947 1823.238, 722.976 1825.626, 724.127 1827.954, 725.395 1830.215, 726.776 " />
            <path fill="none" stroke-width="3.0" stroke-linecap="butt" stroke-opacity="1.0" stroke="rgb(0, 0, 0)" stroke-linejoin="round" d=" M 1813.204, 719.605 1815.772, 720.259 " />
            <path fill="none" stroke-width="3.0" stroke-linecap="butt" stroke-opacity="1.0" stroke="rgb(0, 0, 0)" stroke-linejoin="round" d=" M 1810.606, 719.081 1813.204, 719.605 " />
            <path fill="none" stroke-width="3.0" stroke-linecap="butt" stroke-opacity="1.0" stroke="rgb(0, 0, 0)" stroke-linejoin="round" d=" M 1807.985, 718.686 1810.606, 719.081 " />
            <path fill="none" stroke-width="3.0" stroke-linecap="butt" stroke-opacity="1.0" stroke="rgb(0, 0, 0)" stroke-linejoin="round" d=" M 2639.563, 141.094 2640.794, 131.170 2642.025, 121.246 2643.256, 111.322 2644.486, 101.398 2645.717, 91.474 2646.948, 81.550 2648.179, 71.626 2649.410, 61.702 2650.641, 51.778 2651.871, 41.854 2653.102, 31.930 2654.112, 23.789 " />
            <path fill="none" stroke-width="3.0" stroke-linecap="butt" stroke-opacity="1.0" stroke="rgb(0, 0, 0)" stroke-linejoin="round" d=" M 2654.112, 23.789 2644.112, 23.789 2634.112, 23.790 2624.112, 23.790 2614.112, 23.791 2608.677, 23.791 2608.501, 23.791 2608.334, 23.791 2608.175, 23.791 2608.026, 23.791 " />
            <path fill="none" stroke-width="3.0" stroke-linecap="butt" stroke-opacity="1.0" stroke="rgb(0, 0, 0)" stroke-linejoin="round" d=" M 4407.272, 222.721 4408.859, 232.594 4410.446, 242.468 4412.032, 252.341 4413.619, 262.214 4415.206, 272.087 4416.792, 281.961 4418.379, 291.834 4419.966, 301.707 4421.553, 311.581 4423.139, 321.454 4424.726, 331.327 4426.312, 341.201 4427.899, 351.074 4429.486, 360.947 4431.073, 370.821 4432.659, 380.694 4434.246, 390.567 4435.833, 400.440 4437.419, 410.314 4439.006, 420.187 4440.593, 430.061 4442.180, 439.934 4443.766, 449.807 4445.353, 459.680 4446.939, 469.554 4448.526, 479.427 4450.113, 489.300 4451.700, 499.174 4453.287, 509.047 4454.873, 518.920 4456.460, 528.794 4458.046, 538.667 4459.633, 548.540 4461.220, 558.414 4462.807, 568.287 4464.393, 578.160 4465.980, 588.033 4467.567, 597.907 4469.153, 607.780 4470.740, 617.653 4472.327, 627.527 4473.914, 637.400 4475.500, 647.273 4477.087, 657.147 4478.673, 667.020 4480.260, 676.893 4481.847, 686.767 4483.434, 696.640 4485.021, 706.513 4486.607, 716.387 4488.194, 726.260 4489.780, 736.133 4491.367, 746.007 4492.954, 755.880 4494.541, 765.753 4496.127, 775.627 4497.714, 785.500 4499.301, 795.373 4500.887, 805.246 4502.474, 815.120 4504.061, 824.993 4505.647, 834.866 4507.234, 844.740 4508.821, 854.613 4510.407, 864.486 4511.994, 874.360 4513.937, 886.448 4514.013, 896.448 4514.088, 906.447 4514.165, 916.447 4514.240, 926.447 4514.316, 936.446 4514.392, 946.446 4514.468, 956.446 4514.544, 966.446 4514.620, 976.445 4514.696, 986.445 4514.771, 996.445 4514.848, 1006.444 4514.923, 1016.444 4515.000, 1026.444 4515.075, 1036.444 4515.151, 1046.443 4515.202, 1053.148 4517.867, 1062.786 4520.532, 1072.424 4523.197, 1082.063 4525.862, 1091.701 4528.527, 1101.339 4531.192, 1110.978 4533.857, 1120.616 4536.522, 1130.254 4539.187, 1139.893 4541.852, 1149.531 4544.517, 1159.170 4547.182, 1168.808 4549.847, 1178.446 4552.512, 1188.085 4555.177, 1197.723 4557.842, 1207.361 4560.507, 1217.000 4563.172, 1226.638 4565.837, 1236.276 4568.502, 1245.915 4571.167, 1255.553 4573.832, 1265.191 4576.497, 1274.830 4579.162, 1284.468 4581.827, 1294.106 4584.492, 1303.745 4587.157, 1313.383 4589.822, 1323.021 4592.487, 1332.660 4595.152, 1342.298 4597.817, 1351.937 4600.976, 1363.360 " />
            <path fill="none" stroke-width="3.0" stroke-linecap="butt" stroke-opacity="1.0" stroke="rgb(0, 0, 0)" stroke-linejoin="round" d=" M 4384.618, 23.713 4374.618, 23.713 4364.618, 23.714 4356.925, 23.714 4362.175, 32.225 4367.424, 40.736 4372.674, 49.248 4377.924, 57.759 4383.173, 66.270 4388.423, 74.781 4393.673, 83.292 4398.922, 91.804 4404.413, 100.705 4404.647, 110.702 4404.881, 120.699 4405.115, 130.696 4405.350, 140.694 4405.584, 150.691 4405.818, 160.688 4406.053, 170.685 4406.287, 180.683 4406.521, 190.680 4406.755, 200.677 4406.990, 210.674 4407.224, 220.672 4407.272, 222.721 " />
            <path fill="none" stroke-width="3.0" stroke-linecap="butt" stroke-opacity="1.0" stroke="rgb(0, 0, 0)" stroke-linejoin="round" d=" M 4496.796, 23.708 4495.325, 23.708 4485.325, 23.709 4475.325, 23.709 4465.325, 23.709 4455.325, 23.710 4445.325, 23.710 4435.325, 23.711 4431.286, 23.711 4431.006, 23.711 4429.742, 23.711 4428.900, 23.711 4428.470, 23.711 4425.988, 23.711 4424.922, 23.711 4424.377, 23.711 4423.342, 23.711 4422.976, 23.711 4421.055, 23.711 4411.055, 23.711 4409.312, 23.712 4399.312, 23.712 4389.312, 23.712 4384.618, 23.713 " />
            <path fill="none" stroke-width="3.0" stroke-linecap="butt" stroke-opacity="1.0" stroke="rgb(0, 0, 0)" stroke-linejoin="round" d=" M 5323.317, 23.672 5322.050, 23.672 5321.393, 23.672 5321.378, 23.672 5318.198, 23.672 5308.198, 23.673 5298.198, 23.673 5288.198, 23.674 5278.198, 23.674 5268.198, 23.675 5258.198, 23.675 5248.198, 23.676 5238.198, 23.676 5228.198, 23.676 5218.198, 23.677 5208.198, 23.677 5198.198, 23.677 5188.198, 23.678 5178.198, 23.678 5168.198, 23.679 5158.198, 23.679 5152.376, 23.679 5142.376, 23.680 5132.376, 23.680 5122.376, 23.681 5112.376, 23.681 5102.376, 23.682 5092.376, 23.682 5082.376, 23.683 5072.376, 23.683 5062.376, 23.683 5052.376, 23.684 5042.376, 23.684 5032.376, 23.685 5022.376, 23.685 5012.376, 23.686 5002.376, 23.686 4992.376, 23.687 4982.376, 23.687 4972.376, 23.687 4962.376, 23.688 4952.376, 23.688 4942.376, 23.688 4932.376, 23.689 4920.368, 23.689 4910.368, 23.690 4900.368, 23.690 4890.368, 23.691 4880.368, 23.691 4870.368, 23.692 4860.368, 23.692 4850.368, 23.693 4845.824, 23.693 4835.824, 23.693 4825.824, 23.694 4815.824, 23.694 4805.824, 23.695 4795.824, 23.695 4785.824, 23.695 4775.824, 23.696 4765.824, 23.696 4755.824, 23.697 4745.689, 23.697 4735.689, 23.698 4725.689, 23.698 4718.860, 23.698 4708.860, 23.699 4698.860, 23.699 4688.860, 23.699 4678.860, 23.700 4668.860, 23.700 4658.860, 23.701 4648.860, 23.701 4638.860, 23.702 4628.860, 23.702 4620.292, 23.702 4610.292, 23.703 4600.292, 23.703 4590.292, 23.704 4580.292, 23.704 4570.292, 23.705 4560.291, 23.705 4550.291, 23.706 4540.292, 23.706 4530.292, 23.706 4520.292, 23.707 4510.292, 23.707 4500.526, 23.708 4499.401, 23.708 4498.157, 23.708 4488.157, 23.708 4478.157, 23.708 4468.157, 23.709 4458.157, 23.709 4448.157, 23.710 4446.938, 23.710 4436.938, 23.710 4426.938, 23.711 4416.938, 23.711 4409.312, 23.712 " />
            <path fill="none" stroke-width="3.0" stroke-linecap="butt" stroke-opacity="1.0" stroke="rgb(0, 0, 0)" stroke-linejoin="round" d=" M 4498.157, 23.708 4497.791, 23.708 4497.744, 23.708 4497.735, 23.708 4497.710, 23.708 4497.698, 23.708 4497.689, 23.708 4497.675, 23.708 4497.622, 23.708 4497.614, 23.708 4497.597, 23.708 4497.572, 23.708 4497.567, 23.708 4496.796, 23.708 " />
            <path fill="none" stroke-width="3.0" stroke-linecap="butt" stroke-opacity="1.0" stroke="rgb(0, 0, 0)" stroke-linejoin="round" d=" M 5779.291, 1104.986 5776.771, 1102.404 5774.384, 1099.698 5772.135, 1096.878 5770.030, 1093.949 5768.072, 1090.918 5766.268, 1087.794 5764.623, 1084.584 5763.139, 1081.295 5761.821, 1077.937 5760.672, 1074.517 5759.694, 1071.045 5758.892, 1067.528 5758.265, 1063.974 5757.816, 1060.395 5757.547, 1056.798 5757.458, 1053.191 5757.547, 1049.584 5757.816, 1045.987 5758.265, 1042.408 5758.892, 1038.855 5759.694, 1035.338 5760.672, 1031.865 5761.821, 1028.445 5763.139, 1025.087 5764.623, 1021.799 5766.268, 1018.589 5768.072, 1015.464 5770.030, 1012.434 5772.135, 1009.504 5774.384, 1006.683 5776.771, 1003.979 5779.291, 1001.396 5781.935, 998.943 5784.699, 996.624 5787.574, 994.446 5790.555, 992.413 5793.633, 990.532 5796.802, 988.807 5800.052, 987.242 5803.376, 985.840 5806.766, 984.606 5810.214, 983.543 5813.710, 982.652 5817.246, 981.938 5820.813, 981.400 5824.402, 981.041 5828.005, 980.861 5831.614, 980.861 5835.216, 981.041 5838.806, 981.400 5842.374, 981.938 5845.910, 982.652 5849.406, 983.543 5852.853, 984.606 5856.243, 985.840 5859.567, 987.242 5862.817, 988.807 5865.986, 990.532 5869.064, 992.413 5872.045, 994.446 5874.921, 996.624 5877.684, 998.943 5880.329, 1001.396 5882.847, 1003.979 5885.234, 1006.683 5887.484, 1009.504 5889.590, 1012.434 5891.547, 1015.464 5893.351, 1018.589 5894.997, 1021.799 5896.480, 1025.087 5897.799, 1028.445 5898.947, 1031.865 5899.925, 1035.338 5900.728, 1038.855 5901.354, 1042.408 5901.802, 1045.987 5902.072, 1049.584 5902.162, 1053.191 5902.072, 1056.798 5901.802, 1060.395 5901.354, 1063.974 5900.728, 1067.528 5899.925, 1071.045 5898.947, 1074.517 5897.799, 1077.937 5896.480, 1081.295 5894.997, 1084.584 5893.351, 1087.794 5891.547, 1090.918 5889.590, 1093.949 5887.484, 1096.878 5885.234, 1099.698 5882.847, 1102.404 5880.329, 1104.986 5877.684, 1107.439 5874.921, 1109.759 5872.045, 1111.937 5869.064, 1113.970 5865.986, 1115.850 5862.817, 1117.576 5859.567, 1119.141 5856.243, 1120.542 5852.853, 1121.776 5849.406, 1122.840 5845.910, 1123.730 5842.374, 1124.444 5838.806, 1124.981 5835.216, 1125.341 5831.614, 1125.521 5828.005, 1125.521 5824.402, 1125.341 5820.813, 1124.981 5817.246, 1124.444 5813.710, 1123.730 5810.214, 1122.840 5806.766, 1121.776 5803.376, 1120.542 5800.052, 1119.141 5796.802, 1117.576 5793.633, 1115.850 5790.555, 1113.970 5787.574, 1111.937 5784.699, 1109.759 5781.935, 1107.439 5779.291, 1104.986 " />
            <path fill="none" stroke-width="3.0" stroke-linecap="butt" stroke-opacity="1.0" stroke="rgb(0, 0, 0)" stroke-linejoin="round" d=" M 4600.976, 1363.360 4601.210, 1373.357 4601.446, 1383.355 4601.681, 1393.352 4601.916, 1403.349 4602.150, 1413.346 4602.385, 1423.344 4602.620, 1433.341 4602.855, 1443.338 4603.090, 1453.335 4603.325, 1463.333 4603.560, 1473.330 4603.795, 1483.327 4604.030, 1493.324 4604.265, 1503.322 4604.500, 1513.319 4604.735, 1523.316 4604.970, 1533.313 4605.205, 1543.310 4605.439, 1553.308 4605.675, 1563.305 4605.910, 1573.302 4606.145, 1583.299 4606.379, 1593.297 4606.614, 1603.294 4606.849, 1613.291 4607.084, 1623.288 4607.319, 1633.286 4607.554, 1643.283 4607.789, 1653.280 4608.024, 1663.277 4608.259, 1673.275 4608.494, 1683.272 4608.729, 1693.269 4608.964, 1703.266 4609.199, 1713.264 4609.434, 1723.261 4609.668, 1733.258 4609.904, 1743.255 4610.139, 1753.253 4610.384, 1763.716 4611.893, 1773.602 4613.400, 1783.488 4614.908, 1793.373 4616.416, 1803.259 4617.924, 1813.145 4619.432, 1823.030 4620.940, 1832.916 4622.448, 1842.802 4623.956, 1852.687 4625.463, 1862.573 4626.971, 1872.459 4628.479, 1882.344 4629.987, 1892.230 4631.495, 1902.116 4633.003, 1912.001 4634.511, 1921.887 4636.019, 1931.773 4637.526, 1941.658 4639.035, 1951.544 4640.542, 1961.430 4642.050, 1971.315 4643.558, 1981.201 4645.066, 1991.086 4646.574, 2000.972 4648.082, 2010.858 4649.590, 2020.743 4651.098, 2030.629 4652.605, 2040.515 4654.113, 2050.400 4655.621, 2060.286 4657.129, 2070.172 4658.637, 2080.057 4660.145, 2089.943 4661.653, 2099.829 4663.161, 2109.714 4664.668, 2119.600 4666.177, 2129.486 4667.685, 2139.371 4669.192, 2149.257 4670.700, 2159.143 4672.208, 2169.028 4673.716, 2178.914 4675.224, 2188.800 4676.732, 2198.685 4678.240, 2208.571 4679.748, 2218.457 4681.255, 2228.342 4682.763, 2238.228 4684.271, 2248.114 4685.779, 2257.999 4687.287, 2267.885 4688.795, 2277.771 4690.303, 2287.656 4691.811, 2297.542 4693.319, 2307.428 4694.827, 2317.313 4696.334, 2327.199 4697.842, 2337.085 4699.350, 2346.970 4700.858, 2356.856 4702.366, 2366.742 4703.874, 2376.627 4705.382, 2386.513 4706.890, 2396.399 4708.397, 2406.284 4709.905, 2416.170 4711.414, 2426.055 4712.921, 2435.941 4714.429, 2445.827 4715.937, 2455.712 4717.445, 2465.598 4719.806, 2481.076 " />
            <path fill="none" stroke-width="3.0" stroke-linecap="butt" stroke-opacity="1.0" stroke="rgb(0, 0, 0)" stroke-linejoin="round" d=" M 4719.806, 2481.076 4723.756, 2481.074 4727.263, 2481.072 4728.541, 2481.072 " />
            <path fill="none" stroke-width="3.0" stroke-linecap="butt" stroke-opacity="1.0" stroke="rgb(0, 0, 0)" stroke-linejoin="round" d=" M 5539.834, 23.663 5538.812, 23.663 5538.287, 23.663 5537.519, 23.663 5537.284, 23.663 5534.705, 23.663 5529.638, 23.663 5519.638, 23.664 5509.638, 23.664 5499.638, 23.665 5489.638, 23.665 5479.638, 23.666 5469.638, 23.666 5459.638, 23.666 5449.638, 23.667 5439.638, 23.667 5429.638, 23.667 5419.638, 23.668 5409.638, 23.668 5399.638, 23.669 5389.638, 23.669 5379.638, 23.670 5369.638, 23.670 5359.638, 23.671 5349.638, 23.671 5338.766, 23.671 5333.794, 23.672 5333.736, 23.672 5331.937, 23.672 5331.000, 23.672 5329.179, 23.672 5328.522, 23.672 5318.522, 23.672 5308.522, 23.673 5298.522, 23.673 5288.522, 23.673 5278.522, 23.674 5268.522, 23.674 5258.522, 23.675 5248.522, 23.675 5238.522, 23.676 5228.522, 23.676 5218.522, 23.677 5208.522, 23.677 5198.522, 23.677 5188.522, 23.678 5178.522, 23.678 5168.522, 23.679 5158.522, 23.679 5148.522, 23.679 5138.522, 23.680 5128.522, 23.680 5118.522, 23.681 5108.522, 23.681 5098.522, 23.682 5088.522, 23.682 5078.522, 23.683 5068.522, 23.683 5058.522, 23.683 5048.522, 23.684 5038.522, 23.684 5028.522, 23.685 5018.522, 23.685 5008.522, 23.686 4998.522, 23.686 4988.522, 23.687 4978.522, 23.687 4968.522, 23.687 4958.522, 23.688 4948.522, 23.688 4938.522, 23.689 4928.522, 23.689 4918.522, 23.689 4908.522, 23.690 4898.522, 23.690 4888.522, 23.691 4878.522, 23.691 4868.522, 23.692 4858.522, 23.692 4848.522, 23.693 4838.522, 23.693 4828.522, 23.693 4818.522, 23.694 4808.522, 23.694 4798.522, 23.695 4788.522, 23.695 4778.522, 23.696 4768.522, 23.696 4758.522, 23.697 4748.522, 23.697 4738.522, 23.697 4728.522, 23.698 4718.860, 23.698 " />
            <path fill="none" stroke-width="3.0" stroke-linecap="butt" stroke-opacity="1.0" stroke="rgb(0, 0, 0)" stroke-linejoin="round" d=" M 5328.522, 23.672 5328.211, 23.672 5327.353, 23.672 5326.913, 23.672 5326.072, 23.672 5324.222, 23.672 5324.216, 23.672 5323.909, 23.672 5323.317, 23.672 " />
            <path fill="none" stroke-width="3.0" stroke-linecap="butt" stroke-opacity="1.0" stroke="rgb(0, 0, 0)" stroke-linejoin="round" d=" M 6274.449, 23.631 6264.449, 23.631 6254.449, 23.632 6244.449, 23.632 6234.449, 23.633 6224.449, 23.633 6214.449, 23.634 6204.449, 23.634 6194.449, 23.634 6184.449, 23.635 6174.449, 23.635 6164.449, 23.636 6154.449, 23.636 6144.449, 23.636 6134.449, 23.637 6124.449, 23.637 6114.449, 23.638 6104.449, 23.638 6094.449, 23.639 6084.449, 23.639 6074.449, 23.640 6064.449, 23.640 6054.449, 23.640 6044.449, 23.641 6034.449, 23.641 6024.449, 23.642 6014.449, 23.642 6004.449, 23.643 5994.449, 23.643 5984.449, 23.644 5974.449, 23.644 5964.449, 23.644 5954.449, 23.645 5944.449, 23.645 5934.449, 23.646 5924.449, 23.646 5914.449, 23.646 5904.449, 23.647 5894.449, 23.647 5884.449, 23.648 5874.449, 23.648 5864.449, 23.649 5854.449, 23.649 5844.449, 23.649 5834.449, 23.650 5824.449, 23.650 5814.449, 23.651 5804.449, 23.651 5794.449, 23.652 5784.449, 23.652 5774.449, 23.653 5764.449, 23.653 5754.449, 23.653 5744.449, 23.654 5734.449, 23.654 5724.449, 23.655 5714.449, 23.655 5704.449, 23.656 5694.449, 23.656 5684.449, 23.656 5674.449, 23.657 5664.449, 23.657 5654.449, 23.658 5644.449, 23.658 5634.449, 23.659 5624.449, 23.659 5614.449, 23.659 5604.449, 23.660 5594.449, 23.660 5584.449, 23.661 5574.449, 23.661 5559.440, 23.662 5557.982, 23.662 5547.982, 23.662 5543.189, 23.663 " />
            <path fill="none" stroke-width="3.0" stroke-linecap="butt" stroke-opacity="1.0" stroke="rgb(0, 0, 0)" stroke-linejoin="round" d=" M 2654.112, 23.789 2644.112, 23.789 2634.112, 23.790 2624.112, 23.790 2614.112, 23.790 2604.112, 23.791 2594.112, 23.791 2584.112, 23.792 2574.112, 23.792 2564.112, 23.792 2554.112, 23.793 2544.112, 23.793 2534.112, 23.794 2524.112, 23.794 2514.112, 23.795 2504.112, 23.795 2494.112, 23.796 2484.112, 23.796 2474.112, 23.796 2464.112, 23.797 2454.112, 23.797 2444.112, 23.798 2434.112, 23.798 2424.112, 23.799 2414.112, 23.799 2404.112, 23.800 2394.112, 23.800 2384.112, 23.800 2374.112, 23.801 2364.112, 23.801 2354.112, 23.802 2344.112, 23.802 2334.112, 23.802 2324.112, 23.803 2314.112, 23.803 2304.112, 23.804 2294.112, 23.804 2284.112, 23.805 2274.112, 23.805 2264.112, 23.806 2254.112, 23.806 2244.112, 23.806 2234.112, 23.807 2224.112, 23.807 2214.112, 23.808 2204.112, 23.808 2194.112, 23.809 2184.112, 23.809 2174.112, 23.810 2164.112, 23.810 2154.112, 23.810 2144.112, 23.811 2134.112, 23.811 2124.112, 23.812 2114.112, 23.812 2104.112, 23.812 2094.112, 23.813 2084.112, 23.813 2074.112, 23.814 2064.112, 23.814 2054.112, 23.815 2044.112, 23.815 2034.112, 23.816 2024.112, 23.816 2014.112, 23.816 2004.112, 23.817 1994.112, 23.817 1984.112, 23.818 1974.112, 23.818 1964.112, 23.819 1954.112, 23.819 1944.112, 23.820 1934.112, 23.820 1924.112, 23.821 1914.112, 23.821 1904.112, 23.821 1894.112, 23.822 1884.112, 23.822 1874.112, 23.823 1864.112, 23.823 1854.112, 23.823 1844.112, 23.824 1834.112, 23.824 1824.112, 23.825 1814.112, 23.825 1804.112, 23.826 1794.112, 23.826 1784.112, 23.827 1774.112, 23.827 1764.112, 23.827 1754.112, 23.828 1744.112, 23.828 1734.112, 23.829 1724.112, 23.829 1714.112, 23.830 1704.112, 23.830 1694.112, 23.831 1684.112, 23.831 1674.112, 23.831 1664.112, 23.832 1654.112, 23.832 1644.112, 23.833 1634.112, 23.833 1624.112, 23.833 1614.112, 23.834 1604.112, 23.834 1594.112, 23.835 1584.112, 23.835 1574.112, 23.836 1564.112, 23.836 1554.112, 23.837 1544.112, 23.837 1534.112, 23.837 1524.112, 23.838 1514.112, 23.838 1504.112, 23.839 1494.112, 23.839 1484.112, 23.840 1474.112, 23.840 1464.112, 23.841 1454.112, 23.841 1444.112, 23.841 1434.112, 23.842 1424.112, 23.842 1414.112, 23.843 1395.563, 23.844 " />
            <path fill="none" stroke-width="3.0" stroke-linecap="butt" stroke-opacity="1.0" stroke="rgb(0, 0, 0)" stroke-linejoin="round" d=" M 787.053, 23.870 777.053, 23.871 767.053, 23.871 762.000, 23.872 " />
            <path fill="none" stroke-width="3.0" stroke-linecap="butt" stroke-opacity="1.0" stroke="rgb(0, 0, 0)" stroke-linejoin="round" d=" M 787.244, 23.939 787.054, 23.871 787.053, 23.870 " />
            <path fill="none" stroke-width="3.0" stroke-linecap="butt" stroke-opacity="1.0" stroke="rgb(0, 0, 0)" stroke-linejoin="round" d=" M 1395.563, 23.844 1393.806, 23.844 " />
            <path fill="none" stroke-width="3.0" stroke-linecap="butt" stroke-opacity="1.0" stroke="rgb(0, 0, 0)" stroke-linejoin="round" d=" M 1748.285, 774.079 1748.218, 771.430 " />
            <path fill="none" stroke-width="3.0" stroke-linecap="butt" stroke-opacity="1.0" stroke="rgb(0, 0, 0)" stroke-linejoin="round" d=" M 1748.218, 771.430 1748.285, 768.780 " />
            <path fill="none" stroke-width="3.0" stroke-linecap="butt" stroke-opacity="1.0" stroke="rgb(0, 0, 0)" stroke-linejoin="round" d=" M 1749.862, 784.547 1749.272, 781.963 " />
            <path fill="none" stroke-width="3.0" stroke-linecap="butt" stroke-opacity="1.0" stroke="rgb(0, 0, 0)" stroke-linejoin="round" d=" M 1762.409, 807.586 1760.655, 805.598 " />
            <path fill="none" stroke-width="3.0" stroke-linecap="butt" stroke-opacity="1.0" stroke="rgb(0, 0, 0)" stroke-linejoin="round" d=" M 1764.259, 809.483 1762.409, 807.586 " />
            <path fill="none" stroke-width="3.0" stroke-linecap="butt" stroke-opacity="1.0" stroke="rgb(0, 0, 0)" stroke-linejoin="round" d=" M 1766.202, 811.286 1764.259, 809.483 " />
            <path fill="none" stroke-width="3.0" stroke-linecap="butt" stroke-opacity="1.0" stroke="rgb(0, 0, 0)" stroke-linejoin="round" d=" M 1768.233, 812.990 1766.202, 811.286 " />
            <path fill="none" stroke-width="3.0" stroke-linecap="butt" stroke-opacity="1.0" stroke="rgb(0, 0, 0)" stroke-linejoin="round" d=" M 1770.345, 814.589 1768.233, 812.990 " />
            <path fill="none" stroke-width="3.0" stroke-linecap="butt" stroke-opacity="1.0" stroke="rgb(0, 0, 0)" stroke-linejoin="round" d=" M 1832.405, 814.589 1830.215, 816.083 " />
            <path fill="none" stroke-width="3.0" stroke-linecap="butt" stroke-opacity="1.0" stroke="rgb(0, 0, 0)" stroke-linejoin="round" d=" M 2608.026, 23.791 2598.026, 23.791 2588.026, 23.792 2578.026, 23.792 2568.026, 23.792 2558.026, 23.793 2548.026, 23.793 2538.026, 23.794 2528.026, 23.794 2518.026, 23.795 2508.026, 23.795 2498.026, 23.795 2488.026, 23.796 2478.026, 23.796 2468.026, 23.797 2458.026, 23.797 2448.026, 23.798 2438.026, 23.798 2428.026, 23.799 2418.026, 23.799 2408.026, 23.799 2398.026, 23.800 2388.026, 23.800 2378.026, 23.801 2368.026, 23.801 2358.026, 23.802 2348.026, 23.802 2338.026, 23.802 2328.026, 23.803 2318.026, 23.803 2308.026, 23.804 2298.026, 23.804 2288.026, 23.805 2278.026, 23.805 2268.026, 23.806 2258.026, 23.806 2253.575, 23.806 2243.575, 23.807 2233.575, 23.807 2223.575, 23.807 2213.575, 23.808 2203.575, 23.808 2193.575, 23.809 2183.575, 23.809 2173.575, 23.810 2163.575, 23.810 2153.575, 23.811 2143.575, 23.811 2133.575, 23.812 2123.575, 23.812 2113.575, 23.812 2103.575, 23.813 2093.575, 23.813 2083.575, 23.813 2073.575, 23.814 2063.575, 23.814 2053.575, 23.815 2043.575, 23.815 2033.575, 23.816 2023.575, 23.816 2013.575, 23.817 2003.575, 23.817 1993.575, 23.818 1983.575, 23.818 1973.575, 23.818 1963.575, 23.819 1953.575, 23.819 1943.575, 23.820 1933.575, 23.820 1923.575, 23.821 1913.575, 23.821 1903.575, 23.822 1893.575, 23.822 1883.575, 23.822 1873.575, 23.823 1863.575, 23.823 1853.575, 23.824 1843.575, 23.824 1833.575, 23.824 1823.575, 23.825 1813.575, 23.825 1803.575, 23.826 1793.575, 23.826 1783.575, 23.827 1773.575, 23.827 1763.575, 23.828 1753.575, 23.828 1743.575, 23.828 1733.575, 23.829 1723.575, 23.829 1713.575, 23.830 1703.575, 23.830 1693.575, 23.831 1683.575, 23.831 1673.575, 23.832 1663.575, 23.832 1653.575, 23.832 1643.575, 23.833 1633.575, 23.833 1623.575, 23.834 1613.575, 23.834 1603.575, 23.834 1593.575, 23.835 1583.575, 23.835 1573.575, 23.836 1563.575, 23.836 1553.575, 23.837 1543.575, 23.837 1533.575, 23.838 1523.575, 23.838 1513.575, 23.838 1503.575, 23.839 1493.575, 23.839 1476.276, 23.840 " />
            <path fill="none" stroke-width="3.0" stroke-linecap="butt" stroke-opacity="1.0" stroke="rgb(0, 0, 0)" stroke-linejoin="round" d=" M 1393.806, 23.844 1383.806, 23.844 1373.806, 23.844 1363.806, 23.845 1353.806, 23.845 1343.806, 23.846 1333.806, 23.846 1323.806, 23.847 1313.806, 23.847 1303.806, 23.848 1293.806, 23.848 1283.806, 23.849 1273.806, 23.849 1263.806, 23.849 1253.806, 23.850 1243.806, 23.850 1233.806, 23.851 1223.806, 23.851 1213.806, 23.852 1203.806, 23.852 1193.806, 23.853 1183.806, 23.853 1173.806, 23.853 1163.806, 23.854 1153.806, 23.854 1143.806, 23.855 1133.806, 23.855 1123.806, 23.855 1113.806, 23.856 1103.806, 23.856 1093.806, 23.857 1083.806, 23.857 1073.806, 23.858 1063.806, 23.858 1053.806, 23.859 1043.806, 23.859 1033.806, 23.859 1023.806, 23.860 1013.806, 23.860 1003.806, 23.861 993.806, 23.861 983.806, 23.862 973.806, 23.862 963.806, 23.863 953.806, 23.863 943.806, 23.863 933.806, 23.864 923.806, 23.864 913.806, 23.865 903.806, 23.865 893.806, 23.865 883.806, 23.866 873.806, 23.866 863.806, 23.867 853.806, 23.867 843.806, 23.868 833.806, 23.868 823.806, 23.869 813.806, 23.869 803.806, 23.870 793.806, 23.870 787.053, 23.870 " />
            <path fill="none" stroke-width="3.0" stroke-linecap="butt" stroke-opacity="1.0" stroke="rgb(0, 0, 0)" stroke-linejoin="round" d=" M 4728.541, 2481.072 4727.072, 2481.072 4723.825, 2481.074 " />
            <path fill="none" stroke-width="3.0" stroke-linecap="butt" stroke-opacity="1.0" stroke="rgb(0, 0, 0)" stroke-linejoin="round" d=" M 4719.806, 2481.076 4728.541, 2481.072 " />
            <path fill="none" stroke-width="3.0" stroke-linecap="butt" stroke-opacity="1.0" stroke="rgb(0, 0, 0)" stroke-linejoin="round" d=" M 4719.806, 2481.076 4728.541, 2481.072 " />
            <path fill="none" stroke-width="3.0" stroke-linecap="butt" stroke-opacity="1.0" stroke="rgb(0, 0, 0)" stroke-linejoin="round" d=" M 4429.742, 23.711 4439.742, 23.710 4449.742, 23.710 4459.742, 23.709 4469.742, 23.709 4479.742, 23.709 4489.742, 23.708 4497.597, 23.708 " />
            <path fill="none" stroke-width="3.0" stroke-linecap="butt" stroke-opacity="1.0" stroke="rgb(0, 0, 0)" stroke-linejoin="round" d=" M 4497.744, 23.708 4487.744, 23.708 4486.471, 23.708 4476.471, 23.709 4466.471, 23.709 4456.471, 23.710 4446.471, 23.710 4436.471, 23.710 4426.471, 23.711 4422.976, 23.711 " />
            <path fill="none" stroke-width="3.0" stroke-linecap="butt" stroke-opacity="1.0" stroke="rgb(0, 0, 0)" stroke-linejoin="round" d=" M 5324.222, 23.672 5321.378, 23.672 " />
            <path fill="none" stroke-width="3.0" stroke-linecap="butt" stroke-opacity="1.0" stroke="rgb(0, 0, 0)" stroke-linejoin="round" d=" M 5321.393, 23.672 5324.216, 23.672 " />
            <path fill="none" stroke-width="3.0" stroke-linecap="butt" stroke-opacity="1.0" stroke="rgb(0, 0, 0)" stroke-linejoin="round" d=" M 4428.470, 23.711 4438.470, 23.710 4448.470, 23.710 4458.470, 23.709 4468.470, 23.709 4478.470, 23.709 4488.470, 23.708 4497.622, 23.708 " />
            <path fill="none" stroke-width="3.0" stroke-linecap="butt" stroke-opacity="1.0" stroke="rgb(0, 0, 0)" stroke-linejoin="round" d=" M 5338.766, 23.671 5338.784, 23.671 5339.257, 23.671 5339.504, 23.671 5339.986, 23.671 5341.108, 23.671 " />
            <path fill="none" stroke-width="3.0" stroke-linecap="butt" stroke-opacity="1.0" stroke="rgb(0, 0, 0)" stroke-linejoin="round" d=" M 4497.791, 23.708 4487.791, 23.708 4485.998, 23.708 4475.998, 23.709 4465.998, 23.709 4455.998, 23.710 4445.998, 23.710 4435.998, 23.710 4425.998, 23.711 4421.055, 23.711 " />
            <path fill="none" stroke-width="3.0" stroke-linecap="butt" stroke-opacity="1.0" stroke="rgb(0, 0, 0)" stroke-linejoin="round" d=" M 5322.050, 23.672 5323.909, 23.672 " />
            <path fill="none" stroke-width="3.0" stroke-linecap="butt" stroke-opacity="1.0" stroke="rgb(0, 0, 0)" stroke-linejoin="round" d=" M 4428.900, 23.711 4438.900, 23.710 4448.900, 23.710 4458.900, 23.709 4468.900, 23.709 4478.900, 23.709 4488.900, 23.708 4497.614, 23.708 " />
            <path fill="none" stroke-width="3.0" stroke-linecap="butt" stroke-opacity="1.0" stroke="rgb(0, 0, 0)" stroke-linejoin="round" d=" M 4497.735, 23.708 4487.735, 23.708 4486.559, 23.708 4476.559, 23.709 4466.559, 23.709 4456.559, 23.710 4446.559, 23.710 4436.559, 23.710 4426.559, 23.711 4423.342, 23.711 " />
            <path fill="none" stroke-width="3.0" stroke-linecap="butt" stroke-opacity="1.0" stroke="rgb(0, 0, 0)" stroke-linejoin="round" d=" M 5328.211, 23.672 5318.211, 23.672 5308.211, 23.673 5298.211, 23.673 5288.211, 23.674 5278.211, 23.674 5268.211, 23.674 5258.211, 23.675 5248.211, 23.675 5238.211, 23.676 5228.211, 23.676 5218.211, 23.677 5208.211, 23.677 5198.211, 23.677 5188.211, 23.678 5178.211, 23.678 5168.211, 23.679 5158.211, 23.679 5148.211, 23.680 5138.211, 23.680 5128.211, 23.680 5118.211, 23.681 5108.211, 23.681 5098.211, 23.682 5088.211, 23.682 5078.211, 23.683 5068.211, 23.683 5058.211, 23.684 5048.211, 23.684 5038.211, 23.684 5028.211, 23.685 5018.211, 23.685 5008.211, 23.686 4998.211, 23.686 4988.211, 23.687 4978.211, 23.687 4968.211, 23.688 4958.211, 23.688 4948.211, 23.688 4938.211, 23.689 4928.211, 23.689 4918.211, 23.689 4908.211, 23.690 4898.211, 23.690 4888.211, 23.691 4878.211, 23.691 4868.211, 23.692 4858.211, 23.692 4848.211, 23.693 4838.211, 23.693 4828.211, 23.693 4818.211, 23.694 4808.211, 23.694 4798.211, 23.695 4788.211, 23.695 4778.211, 23.696 4768.211, 23.696 4758.211, 23.697 4745.689, 23.697 " />
            <path fill="none" stroke-width="3.0" stroke-linecap="butt" stroke-opacity="1.0" stroke="rgb(0, 0, 0)" stroke-linejoin="round" d=" M 4431.006, 23.711 4441.006, 23.710 4451.006, 23.710 4461.006, 23.709 4471.006, 23.709 4481.006, 23.709 4491.006, 23.708 4497.572, 23.708 " />
            <path fill="none" stroke-width="3.0" stroke-linecap="butt" stroke-opacity="1.0" stroke="rgb(0, 0, 0)" stroke-linejoin="round" d=" M 4431.286, 23.711 4441.286, 23.710 4451.286, 23.710 4461.286, 23.709 4471.286, 23.709 4481.286, 23.709 4491.286, 23.708 4497.567, 23.708 " />
            <path fill="none" stroke-width="3.0" stroke-linecap="butt" stroke-opacity="1.0" stroke="rgb(0, 0, 0)" stroke-linejoin="round" d=" M 4497.710, 23.708 4487.710, 23.708 4486.802, 23.708 4476.802, 23.709 4466.802, 23.709 4456.802, 23.710 4446.802, 23.710 4436.802, 23.710 4426.802, 23.711 4424.377, 23.711 " />
            <path fill="none" stroke-width="3.0" stroke-linecap="butt" stroke-opacity="1.0" stroke="rgb(0, 0, 0)" stroke-linejoin="round" d=" M 5327.353, 23.672 5317.353, 23.672 5307.353, 23.673 5297.353, 23.673 5287.353, 23.674 5277.353, 23.674 5267.353, 23.675 5257.353, 23.675 5247.353, 23.675 5237.353, 23.676 5227.353, 23.676 5217.353, 23.677 5207.353, 23.677 5197.353, 23.677 5187.353, 23.678 5177.353, 23.678 5167.353, 23.679 5157.353, 23.679 5147.353, 23.680 5137.353, 23.680 5127.353, 23.680 5117.353, 23.681 5107.353, 23.681 5097.353, 23.682 5087.353, 23.682 5077.353, 23.683 5067.353, 23.683 5057.353, 23.684 5047.353, 23.684 5037.353, 23.684 5027.353, 23.685 5017.353, 23.685 5007.353, 23.686 4997.353, 23.686 4987.353, 23.687 4977.353, 23.687 4967.353, 23.688 4957.353, 23.688 4947.353, 23.688 4937.353, 23.689 4927.353, 23.689 4917.353, 23.690 4907.353, 23.690 4897.353, 23.690 4887.353, 23.691 4877.353, 23.691 4867.353, 23.692 4857.353, 23.692 4845.824, 23.693 " />
            <path fill="none" stroke-width="3.0" stroke-linecap="butt" stroke-opacity="1.0" stroke="rgb(0, 0, 0)" stroke-linejoin="round" d=" M 5538.812, 23.663 5528.812, 23.663 5518.812, 23.664 5508.812, 23.664 5498.812, 23.665 5488.812, 23.665 5478.812, 23.665 5468.812, 23.666 5458.812, 23.666 5448.812, 23.667 5439.417, 23.667 5429.417, 23.667 5419.417, 23.668 5409.417, 23.668 5399.417, 23.669 5389.417, 23.669 5379.417, 23.670 5369.417, 23.670 5359.417, 23.670 5349.417, 23.671 5339.504, 23.671 5331.000, 23.672 " />
            <path fill="none" stroke-width="3.0" stroke-linecap="butt" stroke-opacity="1.0" stroke="rgb(0, 0, 0)" stroke-linejoin="round" d=" M 5333.736, 23.672 5338.784, 23.671 5348.784, 23.671 5358.784, 23.671 5368.784, 23.670 5378.784, 23.670 5388.784, 23.669 5398.784, 23.669 5408.784, 23.668 5418.784, 23.668 5428.784, 23.667 5438.784, 23.667 5448.784, 23.667 5458.784, 23.666 5468.784, 23.666 5478.784, 23.666 5488.784, 23.665 5498.784, 23.665 5508.784, 23.664 5518.784, 23.664 5528.784, 23.663 5537.284, 23.663 " />
            <path fill="none" stroke-width="3.0" stroke-linecap="butt" stroke-opacity="1.0" stroke="rgb(0, 0, 0)" stroke-linejoin="round" d=" M 5152.376, 23.679 5162.376, 23.679 5172.376, 23.679 5182.376, 23.678 5192.376, 23.678 5202.376, 23.677 5212.376, 23.677 5222.376, 23.677 5232.376, 23.676 5242.376, 23.676 5252.376, 23.675 5262.376, 23.675 5272.376, 23.674 5282.376, 23.674 5292.376, 23.674 5302.376, 23.673 5312.376, 23.673 5322.376, 23.672 5326.072, 23.672 " />
            <path fill="none" stroke-width="3.0" stroke-linecap="butt" stroke-opacity="1.0" stroke="rgb(0, 0, 0)" stroke-linejoin="round" d=" M 4425.988, 23.711 4435.988, 23.710 4445.988, 23.710 4455.988, 23.710 4465.988, 23.709 4475.988, 23.709 4485.988, 23.708 4495.988, 23.708 4497.675, 23.708 " />
            <path fill="none" stroke-width="3.0" stroke-linecap="butt" stroke-opacity="1.0" stroke="rgb(0, 0, 0)" stroke-linejoin="round" d=" M 4497.698, 23.708 4487.698, 23.708 4486.927, 23.708 4476.927, 23.709 4466.927, 23.709 4456.927, 23.710 4446.927, 23.710 4436.927, 23.710 4426.927, 23.711 4424.922, 23.711 " />
            <path fill="none" stroke-width="3.0" stroke-linecap="butt" stroke-opacity="1.0" stroke="rgb(0, 0, 0)" stroke-linejoin="round" d=" M 5326.913, 23.672 5316.913, 23.672 5306.913, 23.673 5296.913, 23.673 5286.913, 23.674 5276.913, 23.674 5266.913, 23.675 5256.913, 23.675 5246.913, 23.675 5236.913, 23.676 5226.913, 23.676 5216.913, 23.677 5206.913, 23.677 5196.913, 23.677 5186.913, 23.678 5176.913, 23.678 5166.913, 23.679 5156.913, 23.679 5146.913, 23.680 5136.913, 23.680 5126.913, 23.681 5116.913, 23.681 5106.913, 23.681 5096.913, 23.682 5086.913, 23.682 5076.913, 23.683 5066.913, 23.683 5056.913, 23.684 5046.913, 23.684 5036.913, 23.685 5026.913, 23.685 5016.913, 23.685 5006.913, 23.686 4996.913, 23.686 4986.913, 23.687 4976.913, 23.687 4966.913, 23.688 4956.913, 23.688 4946.913, 23.688 4936.913, 23.689 4926.913, 23.689 4920.368, 23.689 " />
            <path fill="none" stroke-width="3.0" stroke-linecap="butt" stroke-opacity="1.0" stroke="rgb(0, 0, 0)" stroke-linejoin="round" d=" M 5538.287, 23.663 5528.287, 23.663 5518.287, 23.664 5508.287, 23.664 5498.287, 23.665 5488.287, 23.665 5478.287, 23.665 5477.169, 23.666 5467.169, 23.666 5457.169, 23.666 5447.169, 23.667 5437.169, 23.667 5427.169, 23.667 5417.169, 23.668 5407.169, 23.668 5397.169, 23.669 5387.169, 23.669 5377.169, 23.670 5367.169, 23.670 5357.169, 23.671 5347.169, 23.671 5339.257, 23.671 5331.937, 23.672 " />
            <path fill="none" stroke-width="3.0" stroke-linecap="butt" stroke-opacity="1.0" stroke="rgb(0, 0, 0)" stroke-linejoin="round" d=" M 4727.263, 2481.072 4727.072, 2481.072 4719.806, 2481.076 " />
        </g>
    </g>
<g id="slice-labels"><text x="578.1324999999999" y="433.58916666666664" text-anchor="middle" dominant-baseline="middle" font-family="Arial, sans-serif" font-size="59.06313085050987" font-weight="bold" fill="black" stroke="none" stroke-width="7.087575702061184" paint-order="stroke fill">Slice35 (Front)</text><text x="1687.6794999999997" y="433.58916666666664" text-anchor="middle" dominant-baseline="middle" font-family="Arial, sans-serif" font-size="59.06313085050987" font-weight="bold" fill="black" stroke="none" stroke-width="7.087575702061184" paint-order="stroke fill">Slice35 (Front)</text><text x="2797.2264999999998" y="433.58916666666664" text-anchor="middle" dominant-baseline="middle" font-family="Arial, sans-serif" font-size="59.06313085050987" font-weight="bold" fill="black" stroke="none" stroke-width="7.087575702061184" paint-order="stroke fill">Slice35 (Front)</text><text x="3906.7735" y="433.58916666666664" text-anchor="middle" dominant-baseline="middle" font-family="Arial, sans-serif" font-size="59.06313085050987" font-weight="bold" fill="black" stroke="none" stroke-width="7.087575702061184" paint-order="stroke fill">Slice35 (Front)</text><text x="5016.3205" y="433.58916666666664" text-anchor="middle" dominant-baseline="middle" font-family="Arial, sans-serif" font-size="59.06313085050987" font-weight="bold" fill="black" stroke="none" stroke-width="7.087575702061184" paint-order="stroke fill">Slice35 (Front)</text><text x="6125.867499999999" y="433.58916666666664" text-anchor="middle" dominant-baseline="middle" font-family="Arial, sans-serif" font-size="59.06313085050987" font-weight="bold" fill="black" stroke="none" stroke-width="7.087575702061184" paint-order="stroke fill">Slice35 (Front)</text><text x="578.1324999999999" y="1253.5055000000002" text-anchor="middle" dominant-baseline="middle" font-family="Arial, sans-serif" font-size="59.06313085050987" font-weight="bold" fill="black" stroke="none" stroke-width="7.087575702061184" paint-order="stroke fill">Slice35 (Front)</text><text x="1687.6794999999997" y="1253.5055000000002" text-anchor="middle" dominant-baseline="middle" font-family="Arial, sans-serif" font-size="59.06313085050987" font-weight="bold" fill="black" stroke="none" stroke-width="7.087575702061184" paint-order="stroke fill">Slice35 (Front)</text><text x="2797.2264999999998" y="1253.5055000000002" text-anchor="middle" dominant-baseline="middle" font-family="Arial, sans-serif" font-size="59.06313085050987" font-weight="bold" fill="black" stroke="none" stroke-width="7.087575702061184" paint-order="stroke fill">Slice35 (Front)</text><text x="3906.7735" y="1253.5055000000002" text-anchor="middle" dominant-baseline="middle" font-family="Arial, sans-serif" font-size="59.06313085050987" font-weight="bold" fill="black" stroke="none" stroke-width="7.087575702061184" paint-order="stroke fill">Slice35 (Front)</text><text x="5016.3205" y="1253.5055000000002" text-anchor="middle" dominant-baseline="middle" font-family="Arial, sans-serif" font-size="59.06313085050987" font-weight="bold" fill="black" stroke="none" stroke-width="7.087575702061184" paint-order="stroke fill">Slice35 (Front)</text><text x="6125.867499999999" y="1253.5055000000002" text-anchor="middle" dominant-baseline="middle" font-family="Arial, sans-serif" font-size="59.06313085050987" font-weight="bold" fill="black" stroke="none" stroke-width="7.087575702061184" paint-order="stroke fill">Slice35 (Front)</text><text x="578.1324999999999" y="2073.4218333333333" text-anchor="middle" dominant-baseline="middle" font-family="Arial, sans-serif" font-size="59.06313085050987" font-weight="bold" fill="black" stroke="none" stroke-width="7.087575702061184" paint-order="stroke fill">Slice35 (Front)</text><text x="1687.6794999999997" y="2073.4218333333333" text-anchor="middle" dominant-baseline="middle" font-family="Arial, sans-serif" font-size="59.06313085050987" font-weight="bold" fill="black" stroke="none" stroke-width="7.087575702061184" paint-order="stroke fill">Slice35 (Front)</text><text x="2797.2264999999998" y="2073.4218333333333" text-anchor="middle" dominant-baseline="middle" font-family="Arial, sans-serif" font-size="59.06313085050987" font-weight="bold" fill="black" stroke="none" stroke-width="7.087575702061184" paint-order="stroke fill">Slice35 (Front)</text><text x="3906.7735" y="2073.4218333333333" text-anchor="middle" dominant-baseline="middle" font-family="Arial, sans-serif" font-size="59.06313085050987" font-weight="bold" fill="black" stroke="none" stroke-width="7.087575702061184" paint-order="stroke fill">Slice35 (Front)</text><text x="5016.3205" y="2073.4218333333333" text-anchor="middle" dominant-baseline="middle" font-family="Arial, sans-serif" font-size="59.06313085050987" font-weight="bold" fill="black" stroke="none" stroke-width="7.087575702061184" paint-order="stroke fill">Slice35 (Front)</text><text x="6125.867499999999" y="2073.4218333333333" text-anchor="middle" dominant-baseline="middle" font-family="Arial, sans-serif" font-size="59.06313085050987" font-weight="bold" fill="black" stroke="none" stroke-width="7.087575702061184" paint-order="stroke fill">Slice35 (Front)</text></g></svg>