<?xml version='1.0' encoding='utf-8'?>
<svg xmlns="http://www.w3.org/2000/svg" xmlns:inkscape="http://www.inkscape.org/namespaces/inkscape" version="1.1" width="281.8509259223938mm" height="164.71105003356934mm" viewBox="0.3738895721123683 0.004880958047447592 3328.2522208557752 1945.000238083905" preserveAspectRatio="none">
    <g id="ViewLayer_LineSet" inkscape:groupmode="lineset" inkscape:label="ViewLayer_LineSet">
        <g inkscape:groupmode="layer" id="strokes" inkscape:label="strokes">
            <path fill="none" stroke-width="3.0" stroke-linecap="butt" stroke-opacity="1.0" stroke="rgb(0, 0, 0)" stroke-linejoin="round" d=" M 513.752, 1921.388 523.752, 1921.388 533.752, 1921.388 543.752, 1921.388 553.752, 1921.388 563.752, 1921.387 573.752, 1921.387 583.752, 1921.387 593.752, 1921.387 603.752, 1921.387 613.752, 1921.387 623.752, 1921.387 633.752, 1921.387 643.752, 1921.387 653.752, 1921.387 663.752, 1921.387 673.752, 1921.387 683.752, 1921.386 693.752, 1921.386 703.752, 1921.386 713.752, 1921.386 723.752, 1921.386 733.752, 1921.386 743.752, 1921.386 753.752, 1921.386 763.752, 1921.386 773.752, 1921.386 783.752, 1921.386 793.752, 1921.385 803.752, 1921.385 813.752, 1921.385 823.752, 1921.385 833.752, 1921.385 843.752, 1921.385 853.752, 1921.385 863.752, 1921.385 873.752, 1921.385 883.752, 1921.385 893.752, 1921.385 903.752, 1921.385 913.752, 1921.384 923.752, 1921.384 933.752, 1921.384 943.752, 1921.384 953.752, 1921.384 963.752, 1921.384 973.752, 1921.384 983.752, 1921.384 993.752, 1921.384 1003.752, 1921.384 1013.752, 1921.384 1023.752, 1921.384 1033.752, 1921.383 1043.752, 1921.383 1053.752, 1921.383 1063.752, 1921.383 1073.752, 1921.383 1083.752, 1921.383 1093.752, 1921.383 1103.752, 1921.383 1113.752, 1921.383 1123.752, 1921.383 1133.752, 1921.383 1143.752, 1921.383 1153.752, 1921.382 1163.752, 1921.382 1173.752, 1921.382 1183.752, 1921.382 1193.752, 1921.382 1203.752, 1921.382 1213.752, 1921.382 1223.752, 1921.382 1233.752, 1921.382 1243.752, 1921.382 1253.752, 1921.382 1263.752, 1921.382 1273.752, 1921.381 1283.752, 1921.381 1293.752, 1921.381 1303.752, 1921.381 1313.752, 1921.381 1323.752, 1921.381 1333.752, 1921.381 1343.752, 1921.381 1353.752, 1921.381 1363.752, 1921.381 1373.752, 1921.381 1383.752, 1921.380 1393.752, 1921.380 1403.752, 1921.380 1413.752, 1921.380 1423.752, 1921.380 1433.752, 1921.380 1443.752, 1921.380 1453.752, 1921.380 1463.752, 1921.380 1473.752, 1921.380 1483.752, 1921.380 1493.752, 1921.380 1503.752, 1921.379 1513.752, 1921.379 1523.752, 1921.379 1533.752, 1921.379 1543.752, 1921.379 1553.752, 1921.379 1563.752, 1921.379 1573.752, 1921.379 1590.345, 1921.379 1593.378, 1921.378 " />
            <path fill="none" stroke-width="3.0" stroke-linecap="butt" stroke-opacity="1.0" stroke="rgb(0, 0, 0)" stroke-linejoin="round" d=" M 1590.345, 1921.379 1585.895, 1921.379 " />
            <path fill="none" stroke-width="3.0" stroke-linecap="butt" stroke-opacity="1.0" stroke="rgb(0, 0, 0)" stroke-linejoin="round" d=" M 959.913, 699.595 957.395, 702.177 954.751, 704.631 951.989, 706.948 949.114, 709.125 946.134, 711.157 943.057, 713.038 939.890, 714.763 936.641, 716.327 933.318, 717.729 929.929, 718.962 926.483, 720.025 922.988, 720.915 919.453, 721.629 915.887, 722.167 912.298, 722.526 908.697, 722.706 905.090, 722.706 901.488, 722.526 897.900, 722.167 894.334, 721.629 890.799, 720.915 887.304, 720.025 883.858, 718.962 880.469, 717.729 877.146, 716.327 873.897, 714.763 870.729, 713.038 867.653, 711.157 864.673, 709.125 861.798, 706.948 859.035, 704.631 856.392, 702.177 853.874, 699.595 851.487, 696.892 849.239, 694.072 847.134, 691.144 845.177, 688.115 843.374, 684.991 841.729, 681.782 840.245, 678.495 838.928, 675.138 837.779, 671.720 836.803, 668.248 836.000, 664.732 835.374, 661.180 834.926, 657.603 834.656, 654.006 834.566, 650.401 834.656, 646.796 834.926, 643.199 835.374, 639.621 836.000, 636.069 836.803, 632.553 837.779, 629.081 838.928, 625.663 840.245, 622.306 841.729, 619.019 843.374, 615.810 845.177, 612.687 847.134, 609.657 849.239, 606.729 851.487, 603.910 853.874, 601.206 856.392, 598.624 859.035, 596.171 861.798, 593.853 864.673, 591.675 867.653, 589.644 870.729, 587.763 873.897, 586.038 877.146, 584.474 880.469, 583.073 883.858, 581.839 887.304, 580.776 890.799, 579.887 894.334, 579.172 897.900, 578.635 901.488, 578.275 905.090, 578.096 908.697, 578.096 912.298, 578.275 915.887, 578.635 919.453, 579.172 922.988, 579.887 926.483, 580.776 929.929, 581.839 933.318, 583.073 936.641, 584.474 939.890, 586.038 943.057, 587.763 946.134, 589.644 949.114, 591.675 951.989, 593.853 954.751, 596.171 957.395, 598.624 959.913, 601.206 962.300, 603.910 964.548, 606.729 966.653, 609.657 968.610, 612.687 970.413, 615.810 972.058, 619.019 973.541, 622.306 974.859, 625.663 976.008, 629.081 976.984, 632.553 977.787, 636.069 978.413, 639.621 978.861, 643.199 979.131, 646.796 979.221, 650.401 979.131, 654.006 978.861, 657.603 978.413, 661.180 977.787, 664.732 976.984, 668.248 976.008, 671.720 974.859, 675.138 973.541, 678.495 972.058, 681.782 970.413, 684.991 968.610, 688.115 966.653, 691.144 964.548, 694.072 962.300, 696.892 959.913, 699.595 " />
            <path fill="none" stroke-width="3.0" stroke-linecap="butt" stroke-opacity="1.0" stroke="rgb(0, 0, 0)" stroke-linejoin="round" d=" M 3153.422, 1733.615 3156.541, 1724.114 3159.660, 1714.613 3162.780, 1705.112 3165.899, 1695.611 3169.019, 1686.110 3172.138, 1676.609 3175.257, 1667.108 3178.377, 1657.607 3181.496, 1648.106 3184.615, 1638.605 3187.735, 1629.104 3190.854, 1619.603 3193.974, 1610.102 3197.093, 1600.601 3200.213, 1591.100 3203.332, 1581.599 3206.451, 1572.098 3209.571, 1562.597 3212.690, 1553.096 3215.810, 1543.595 3218.929, 1534.094 3222.048, 1524.593 3225.168, 1515.092 3228.287, 1505.591 3231.406, 1496.090 3234.526, 1486.589 3237.645, 1477.088 3240.765, 1467.587 3243.884, 1458.086 3247.003, 1448.585 3250.123, 1439.084 3253.242, 1429.583 3256.362, 1420.082 3259.481, 1410.581 3262.601, 1401.080 3265.720, 1391.579 3268.839, 1382.078 3271.959, 1372.577 3275.078, 1363.076 3278.198, 1353.575 3281.317, 1344.074 3284.436, 1334.573 3287.556, 1325.072 3290.675, 1315.571 3293.794, 1306.070 3296.914, 1296.569 3300.033, 1287.068 3303.153, 1277.567 3305.009, 1271.911 3304.291, 1261.937 3303.572, 1251.963 3302.853, 1241.989 3302.135, 1232.015 3301.416, 1222.041 3300.697, 1212.067 3299.978, 1202.092 3299.313, 1192.863 3294.882, 1183.898 3290.452, 1174.934 3286.021, 1165.969 3281.590, 1157.004 3277.159, 1148.039 3272.729, 1139.074 3268.298, 1130.110 3263.867, 1121.145 3259.436, 1112.180 3255.005, 1103.215 3250.574, 1094.250 3246.144, 1085.285 3241.713, 1076.321 3237.282, 1067.356 3232.851, 1058.391 3228.420, 1049.426 3223.990, 1040.461 3219.559, 1031.496 3215.128, 1022.532 3210.697, 1013.567 3206.266, 1004.602 3201.836, 995.637 3197.405, 986.672 3192.974, 977.708 3188.543, 968.743 3184.113, 959.778 3179.682, 950.813 3175.251, 941.848 3170.820, 932.883 3166.389, 923.919 3161.958, 914.954 3157.528, 905.989 3153.097, 897.024 3148.666, 888.059 3142.852, 876.296 3142.017, 866.331 3141.183, 856.365 3140.348, 846.400 3139.514, 836.435 3138.679, 826.470 3137.844, 816.505 3137.010, 806.540 3136.175, 796.575 3135.341, 786.610 3134.506, 776.645 3133.671, 766.679 3132.837, 756.714 3132.002, 746.749 3131.167, 736.784 3130.333, 726.819 3129.498, 716.854 3128.664, 706.889 3127.829, 696.924 3126.995, 686.958 3126.160, 676.993 3125.325, 667.028 3124.491, 657.063 3123.656, 647.098 3122.822, 637.133 3121.987, 627.168 3121.152, 617.203 3120.318, 607.238 3119.483, 597.273 3118.649, 587.307 3117.814, 577.342 3116.979, 567.377 3116.145, 557.412 3115.310, 547.447 3114.476, 537.482 3113.641, 527.517 3112.806, 517.552 3111.972, 507.587 3111.137, 497.621 3110.302, 487.656 3109.468, 477.691 3108.633, 467.726 3107.799, 457.761 3106.964, 447.796 3106.130, 437.831 3105.295, 427.866 3104.460, 417.901 3103.626, 407.935 3102.791, 397.970 3101.957, 388.005 3101.122, 378.040 3100.287, 368.075 3099.453, 358.110 3098.618, 348.145 3097.783, 338.180 3096.949, 328.215 3096.114, 318.250 3095.219, 307.554 3096.640, 297.655 3098.061, 287.757 3099.482, 277.858 3100.903, 267.960 3102.325, 258.061 3103.746, 248.163 3105.167, 238.264 3106.588, 228.366 3108.010, 218.467 3109.431, 208.569 3110.852, 198.670 3112.273, 188.772 3113.694, 178.873 3115.116, 168.975 3116.537, 159.076 3117.958, 149.178 3119.379, 139.279 3120.801, 129.381 3122.222, 119.482 3123.643, 109.584 3125.064, 99.685 3126.485, 89.787 3127.906, 79.888 3129.328, 69.990 3130.749, 60.091 3132.170, 50.193 3133.592, 40.294 3135.013, 30.396 3135.985, 23.622 " />
            <path fill="none" stroke-width="3.0" stroke-linecap="butt" stroke-opacity="1.0" stroke="rgb(0, 0, 0)" stroke-linejoin="round" d=" M 1595.268, 1921.378 1605.268, 1921.378 1615.268, 1921.378 1625.268, 1921.378 1635.268, 1921.378 1645.268, 1921.378 1655.268, 1921.378 1665.268, 1921.378 1675.268, 1921.377 1685.268, 1921.377 1695.268, 1921.377 1705.268, 1921.377 1715.268, 1921.377 1725.268, 1921.377 1735.268, 1921.377 1745.268, 1921.377 1755.268, 1921.377 1765.268, 1921.377 1775.268, 1921.377 1785.268, 1921.376 1795.268, 1921.376 1805.268, 1921.376 1815.268, 1921.376 1825.268, 1921.376 1835.268, 1921.376 1845.268, 1921.376 1855.268, 1921.376 1865.268, 1921.376 1875.268, 1921.376 1885.268, 1921.376 1895.268, 1921.375 1905.268, 1921.375 1915.268, 1921.375 1925.268, 1921.375 1935.268, 1921.375 1945.268, 1921.375 1955.268, 1921.375 1965.268, 1921.375 1975.268, 1921.375 1985.268, 1921.375 1995.268, 1921.375 2005.268, 1921.374 2015.268, 1921.374 2025.268, 1921.374 2035.268, 1921.374 2045.268, 1921.374 2055.268, 1921.374 2065.268, 1921.374 2075.268, 1921.374 2085.268, 1921.374 2095.268, 1921.374 2105.268, 1921.374 2115.268, 1921.373 2125.268, 1921.373 2135.268, 1921.373 2145.268, 1921.373 2155.268, 1921.373 2165.268, 1921.373 2175.268, 1921.373 2185.268, 1921.373 2195.268, 1921.373 2205.268, 1921.373 2215.268, 1921.373 2225.268, 1921.372 2235.268, 1921.372 2245.268, 1921.372 2255.268, 1921.372 2265.268, 1921.372 2275.268, 1921.372 2285.268, 1921.372 2295.268, 1921.372 2305.268, 1921.372 2315.268, 1921.372 2325.268, 1921.372 2335.268, 1921.372 2345.268, 1921.371 2355.268, 1921.371 2365.268, 1921.371 2375.268, 1921.371 2385.268, 1921.371 2395.268, 1921.371 2405.268, 1921.371 2415.268, 1921.371 2425.268, 1921.371 2435.268, 1921.371 2445.268, 1921.371 2455.268, 1921.370 2465.268, 1921.370 2475.268, 1921.370 2485.268, 1921.370 2495.268, 1921.370 2505.268, 1921.370 2515.268, 1921.370 2525.268, 1921.370 2535.268, 1921.370 2545.268, 1921.370 2555.268, 1921.370 2565.268, 1921.369 2575.268, 1921.369 2585.268, 1921.369 2595.268, 1921.369 2605.268, 1921.369 2615.268, 1921.369 2625.268, 1921.369 2635.268, 1921.369 2645.268, 1921.369 2655.268, 1921.369 2665.268, 1921.369 2675.268, 1921.368 2685.268, 1921.368 2695.268, 1921.368 2705.268, 1921.368 2715.268, 1921.368 2725.268, 1921.368 2735.268, 1921.368 2745.268, 1921.368 2755.268, 1921.368 2765.268, 1921.368 2785.482, 1921.367 2795.482, 1921.367 2805.482, 1921.367 2815.482, 1921.367 2825.482, 1921.367 2835.482, 1921.367 2845.482, 1921.367 2855.482, 1921.367 2865.482, 1921.367 2875.482, 1921.367 2885.482, 1921.366 2895.482, 1921.366 2905.482, 1921.366 2915.482, 1921.366 2925.482, 1921.366 2935.482, 1921.366 2945.482, 1921.366 2955.482, 1921.366 2965.482, 1921.366 2975.482, 1921.366 2985.482, 1921.365 2995.482, 1921.365 3005.482, 1921.365 3015.482, 1921.365 3025.482, 1921.365 3035.482, 1921.365 3045.482, 1921.365 3055.482, 1921.365 3065.482, 1921.365 3075.482, 1921.364 3085.482, 1921.364 3095.482, 1921.364 3105.482, 1921.364 3115.482, 1921.364 3126.727, 1921.364 3128.135, 1911.464 3129.542, 1901.563 3130.950, 1891.663 3132.358, 1881.762 3133.765, 1871.862 3135.173, 1861.961 3136.581, 1852.061 3137.988, 1842.161 3139.396, 1832.260 3140.804, 1822.360 3142.211, 1812.459 3143.619, 1802.559 3145.027, 1792.658 3146.434, 1782.758 3147.842, 1772.858 3149.250, 1762.957 3150.657, 1753.057 3152.065, 1743.156 3153.422, 1733.615 " />
            <path fill="none" stroke-width="3.0" stroke-linecap="butt" stroke-opacity="1.0" stroke="rgb(0, 0, 0)" stroke-linejoin="round" d=" M 351.476, 1058.454 351.747, 1068.451 352.018, 1078.447 352.290, 1088.443 352.561, 1098.440 352.833, 1108.436 353.104, 1118.432 353.375, 1128.428 353.569, 1135.569 355.566, 1145.367 357.564, 1155.166 359.561, 1164.964 361.559, 1174.763 363.556, 1184.561 365.553, 1194.360 367.551, 1204.158 369.548, 1213.957 371.545, 1223.755 373.543, 1233.554 375.540, 1243.352 377.537, 1253.151 379.535, 1262.949 381.532, 1272.748 383.529, 1282.546 385.527, 1292.345 387.524, 1302.143 389.521, 1311.942 391.519, 1321.740 393.516, 1331.539 395.513, 1341.337 397.511, 1351.136 399.508, 1360.934 401.505, 1370.733 403.503, 1380.531 405.500, 1390.330 407.497, 1400.128 409.495, 1409.927 411.492, 1419.725 413.489, 1429.524 415.487, 1439.322 417.484, 1449.121 419.482, 1458.919 421.479, 1468.718 423.476, 1478.516 425.474, 1488.315 427.471, 1498.113 429.468, 1507.912 431.466, 1517.710 433.463, 1527.509 435.460, 1537.307 437.458, 1547.106 439.455, 1556.904 441.452, 1566.703 443.450, 1576.501 445.447, 1586.300 447.444, 1596.098 449.442, 1605.897 451.439, 1615.695 453.436, 1625.494 455.434, 1635.292 457.431, 1645.091 459.428, 1654.889 461.426, 1664.688 463.423, 1674.486 465.420, 1684.285 467.418, 1694.083 469.415, 1703.882 471.412, 1713.680 473.410, 1723.479 475.407, 1733.277 477.405, 1743.076 479.402, 1752.874 481.399, 1762.673 483.397, 1772.471 485.394, 1782.270 487.391, 1792.068 489.389, 1801.867 491.386, 1811.665 493.383, 1821.464 495.381, 1831.262 497.378, 1841.061 499.375, 1850.859 501.373, 1860.658 503.370, 1870.456 505.367, 1880.255 507.365, 1890.053 509.362, 1899.852 511.359, 1909.650 513.752, 1921.388 " />
            <path fill="none" stroke-width="3.0" stroke-linecap="butt" stroke-opacity="1.0" stroke="rgb(0, 0, 0)" stroke-linejoin="round" d=" M 23.991, 23.622 28.230, 32.679 32.470, 41.736 36.709, 50.792 40.949, 59.849 45.188, 68.906 49.428, 77.963 53.667, 87.020 57.907, 96.077 62.146, 105.134 66.386, 114.190 70.625, 123.247 74.865, 132.304 79.104, 141.361 83.344, 150.418 87.583, 159.475 91.823, 168.531 96.062, 177.588 100.302, 186.645 104.542, 195.702 108.781, 204.759 113.021, 213.816 117.260, 222.873 121.500, 231.929 125.739, 240.986 129.979, 250.043 134.218, 259.100 138.458, 268.157 142.697, 277.214 146.937, 286.271 151.176, 295.327 155.416, 304.384 159.655, 313.441 163.895, 322.498 168.134, 331.555 172.374, 340.612 176.613, 349.668 180.853, 358.725 185.092, 367.782 189.332, 376.839 193.571, 385.896 197.811, 394.953 202.050, 404.010 206.290, 413.066 210.530, 422.123 214.769, 431.180 219.009, 440.237 223.248, 449.294 227.488, 458.351 231.727, 467.407 235.967, 476.464 241.914, 489.170 241.710, 499.168 241.507, 509.166 241.303, 519.164 241.099, 529.162 240.895, 539.160 240.691, 549.158 240.487, 559.156 240.283, 569.154 240.079, 579.152 239.875, 589.150 239.672, 599.147 239.468, 609.145 239.264, 619.143 239.060, 629.141 238.856, 639.139 238.652, 649.137 238.448, 659.135 238.244, 669.133 238.040, 679.131 237.837, 689.129 237.633, 699.127 237.429, 709.125 237.225, 719.123 237.021, 729.120 236.817, 739.118 236.613, 749.116 236.409, 759.114 236.205, 769.112 236.002, 779.110 235.798, 789.108 235.594, 799.106 235.390, 809.104 235.186, 819.102 234.982, 829.100 234.778, 839.098 234.574, 849.096 234.370, 859.093 234.135, 870.630 239.434, 879.111 244.732, 887.592 250.030, 896.073 255.329, 904.554 260.627, 913.035 265.925, 921.516 271.224, 929.997 276.522, 938.478 281.821, 946.959 287.119, 955.440 292.417, 963.921 297.716, 972.402 303.014, 980.883 308.312, 989.364 313.611, 997.845 318.909, 1006.326 324.208, 1014.807 329.506, 1023.288 334.804, 1031.769 340.103, 1040.250 345.401, 1048.731 351.476, 1058.454 " />
            <path fill="none" stroke-width="3.0" stroke-linecap="butt" stroke-opacity="1.0" stroke="rgb(0, 0, 0)" stroke-linejoin="round" d=" M 2432.917, 1306.446 2430.399, 1309.028 2427.756, 1311.480 2424.993, 1313.799 2422.118, 1315.976 2419.139, 1318.008 2416.061, 1319.888 2412.895, 1321.613 2409.645, 1323.177 2406.322, 1324.579 2402.933, 1325.812 2399.487, 1326.875 2395.992, 1327.765 2392.457, 1328.479 2388.891, 1329.016 2385.303, 1329.375 2381.701, 1329.556 2378.094, 1329.556 2374.493, 1329.375 2370.904, 1329.016 2367.338, 1328.479 2363.803, 1327.765 2360.308, 1326.875 2356.862, 1325.812 2353.473, 1324.579 2350.151, 1323.177 2346.901, 1321.613 2343.734, 1319.888 2340.657, 1318.008 2337.677, 1315.976 2334.802, 1313.799 2332.040, 1311.480 2329.396, 1309.028 2326.878, 1306.446 2324.491, 1303.742 2322.243, 1300.922 2320.138, 1297.994 2318.182, 1294.964 2316.378, 1291.841 2314.733, 1288.633 2313.250, 1285.345 2311.932, 1281.988 2310.783, 1278.570 2309.807, 1275.098 2309.004, 1271.582 2308.378, 1268.031 2307.930, 1264.452 2307.660, 1260.856 2307.570, 1257.251 2307.660, 1253.646 2307.930, 1250.049 2308.378, 1246.471 2309.004, 1242.919 2309.807, 1239.403 2310.783, 1235.932 2311.932, 1232.513 2313.250, 1229.156 2314.733, 1225.869 2316.378, 1222.660 2318.182, 1219.537 2320.138, 1216.508 2322.243, 1213.579 2324.491, 1210.760 2326.878, 1208.055 2329.396, 1205.473 2332.040, 1203.021 2334.802, 1200.703 2337.677, 1198.525 2340.657, 1196.494 2343.734, 1194.614 2346.901, 1192.888 2350.151, 1191.323 2353.473, 1189.923 2356.862, 1188.690 2360.308, 1187.627 2363.803, 1186.737 2367.338, 1186.022 2370.904, 1185.485 2374.493, 1185.126 2378.094, 1184.946 2381.701, 1184.946 2385.303, 1185.126 2388.891, 1185.485 2392.457, 1186.022 2395.992, 1186.737 2399.487, 1187.627 2402.933, 1188.690 2406.322, 1189.923 2409.645, 1191.323 2412.895, 1192.888 2416.061, 1194.614 2419.139, 1196.494 2422.118, 1198.525 2424.993, 1200.703 2427.756, 1203.021 2430.399, 1205.473 2432.917, 1208.055 2435.304, 1210.760 2437.552, 1213.579 2439.657, 1216.508 2441.614, 1219.537 2443.417, 1222.660 2445.062, 1225.869 2446.546, 1229.156 2447.863, 1232.513 2449.012, 1235.932 2449.989, 1239.403 2450.791, 1242.919 2451.417, 1246.471 2451.866, 1250.049 2452.135, 1253.646 2452.225, 1257.251 2452.135, 1260.856 2451.866, 1264.452 2451.417, 1268.031 2450.791, 1271.582 2449.989, 1275.098 2449.012, 1278.570 2447.863, 1281.988 2446.546, 1285.345 2445.062, 1288.633 2443.417, 1291.841 2441.614, 1294.964 2439.657, 1297.994 2437.552, 1300.922 2435.304, 1303.742 2432.917, 1306.446 " />
            <path fill="none" stroke-width="3.0" stroke-linecap="butt" stroke-opacity="1.0" stroke="rgb(0, 0, 0)" stroke-linejoin="round" d=" M 1598.198, 1921.378 1608.198, 1921.378 1618.198, 1921.378 1628.198, 1921.378 1638.198, 1921.378 1648.198, 1921.378 1658.198, 1921.377 1668.198, 1921.377 1678.198, 1921.377 1688.198, 1921.377 1698.198, 1921.377 1708.198, 1921.377 1718.198, 1921.377 1728.198, 1921.377 1738.198, 1921.377 1748.198, 1921.377 1758.198, 1921.377 1768.198, 1921.376 1778.198, 1921.376 1788.198, 1921.376 1798.198, 1921.376 1803.819, 1921.376 1813.819, 1921.376 1823.819, 1921.376 1833.819, 1921.376 1843.819, 1921.376 1853.819, 1921.376 1863.819, 1921.376 1873.819, 1921.375 1883.819, 1921.375 1893.819, 1921.375 1903.819, 1921.375 1913.819, 1921.375 1923.819, 1921.375 1933.819, 1921.375 1943.819, 1921.375 1953.819, 1921.375 1963.819, 1921.375 1973.819, 1921.375 1983.819, 1921.374 1993.819, 1921.374 2003.819, 1921.374 2013.819, 1921.374 2023.819, 1921.374 2033.819, 1921.374 2043.819, 1921.374 2053.820, 1921.374 2063.820, 1921.374 2073.820, 1921.374 2083.820, 1921.374 2093.820, 1921.373 2103.820, 1921.373 2113.820, 1921.373 2123.820, 1921.373 2133.820, 1921.373 2143.820, 1921.373 2153.820, 1921.373 2163.820, 1921.373 2173.820, 1921.373 2183.820, 1921.373 2193.820, 1921.373 2203.820, 1921.372 2213.820, 1921.372 2223.820, 1921.372 2233.820, 1921.372 2243.820, 1921.372 2253.820, 1921.372 2263.820, 1921.372 2273.820, 1921.372 2283.820, 1921.372 2293.820, 1921.372 2303.820, 1921.372 2313.820, 1921.371 2323.820, 1921.371 2333.820, 1921.371 2343.820, 1921.371 2353.820, 1921.371 2363.820, 1921.371 2373.820, 1921.371 2383.820, 1921.371 2393.820, 1921.371 2403.820, 1921.371 2413.820, 1921.371 2423.820, 1921.370 2433.820, 1921.370 2443.820, 1921.370 2453.820, 1921.370 2463.820, 1921.370 2473.820, 1921.370 2483.820, 1921.370 2493.820, 1921.370 2503.820, 1921.370 2513.820, 1921.370 2523.820, 1921.370 2533.820, 1921.369 2543.820, 1921.369 2553.820, 1921.369 2563.820, 1921.369 2573.820, 1921.369 2583.820, 1921.369 2596.516, 1921.369 2596.662, 1921.369 2596.769, 1921.369 2606.769, 1921.364 2616.769, 1921.359 2626.769, 1921.354 2636.769, 1921.349 2646.769, 1921.344 2656.769, 1921.339 2666.769, 1921.334 2676.769, 1921.329 2686.769, 1921.324 2696.769, 1921.319 2706.769, 1921.314 2716.769, 1921.309 2726.769, 1921.304 2736.769, 1921.300 2746.769, 1921.295 2756.769, 1921.290 2766.769, 1921.285 2769.584, 1921.283 2770.733, 1921.270 2771.939, 1921.270 2773.214, 1921.270 2774.555, 1921.270 2775.957, 1921.270 2777.417, 1921.270 2778.929, 1921.270 2780.490, 1921.269 2782.095, 1921.269 2783.739, 1921.269 2785.475, 1921.367 2785.481, 1921.367 2785.482, 1921.367 " />
            <path fill="none" stroke-width="3.0" stroke-linecap="butt" stroke-opacity="1.0" stroke="rgb(0, 0, 0)" stroke-linejoin="round" d=" M 1585.895, 1921.379 1593.378, 1921.378 1595.268, 1921.378 1595.581, 1921.378 1597.138, 1921.378 1597.521, 1921.378 1598.198, 1921.378 1598.917, 1921.378 1600.312, 1921.378 1610.312, 1921.377 1620.312, 1921.377 1630.312, 1921.376 1640.312, 1921.375 1650.312, 1921.375 1660.312, 1921.374 1670.312, 1921.374 1680.312, 1921.373 1690.312, 1921.372 1700.312, 1921.372 1710.312, 1921.371 1720.312, 1921.371 1730.312, 1921.370 1740.312, 1921.369 1750.312, 1921.369 1760.312, 1921.368 1770.312, 1921.368 1780.312, 1921.367 1790.312, 1921.366 1800.312, 1921.366 1810.312, 1921.365 1820.312, 1921.365 1830.312, 1921.364 1840.312, 1921.363 1850.312, 1921.363 1860.312, 1921.362 1870.312, 1921.362 1880.312, 1921.361 1890.312, 1921.360 1900.312, 1921.360 1910.312, 1921.359 1920.312, 1921.358 1930.312, 1921.358 1940.312, 1921.357 1950.312, 1921.357 1960.312, 1921.356 1970.312, 1921.355 1980.312, 1921.355 1990.312, 1921.354 2000.312, 1921.354 2010.312, 1921.353 2020.312, 1921.352 2030.312, 1921.352 2040.312, 1921.351 2050.312, 1921.351 2060.312, 1921.350 2070.312, 1921.349 2080.312, 1921.349 2090.312, 1921.348 2100.312, 1921.348 2110.312, 1921.347 2120.312, 1921.346 2130.312, 1921.346 2140.312, 1921.345 2150.312, 1921.345 2160.312, 1921.344 2170.312, 1921.343 2180.312, 1921.343 2190.312, 1921.342 2200.312, 1921.342 2210.312, 1921.341 2220.312, 1921.340 2230.312, 1921.340 2240.312, 1921.339 2250.312, 1921.339 2260.312, 1921.338 2270.312, 1921.337 2280.312, 1921.337 2290.312, 1921.336 2300.312, 1921.335 2310.312, 1921.335 2320.312, 1921.334 2330.312, 1921.334 2340.312, 1921.333 2350.312, 1921.332 2360.312, 1921.332 2370.312, 1921.331 2380.312, 1921.331 2390.312, 1921.330 2400.312, 1921.329 2410.312, 1921.329 2420.312, 1921.328 2430.312, 1921.328 2440.312, 1921.327 2450.312, 1921.326 2460.312, 1921.326 2470.312, 1921.325 2480.312, 1921.325 2490.312, 1921.324 2500.312, 1921.323 2510.312, 1921.323 2520.312, 1921.322 2530.312, 1921.322 2540.312, 1921.321 2550.312, 1921.320 2560.312, 1921.320 2570.312, 1921.319 2580.312, 1921.319 2591.482, 1921.318 2592.561, 1921.279 2593.101, 1921.260 2594.745, 1921.260 2595.058, 1921.279 2596.514, 1921.369 2596.516, 1921.369 " />
            <path fill="none" stroke-width="3.0" stroke-linecap="butt" stroke-opacity="1.0" stroke="rgb(0, 0, 0)" stroke-linejoin="round" d=" M 637.822, 1921.386 637.847, 1921.381 637.852, 1921.380 638.241, 1921.299 638.572, 1921.300 638.892, 1921.300 639.202, 1921.300 639.499, 1921.300 639.783, 1921.300 639.960, 1921.380 639.962, 1921.381 639.974, 1921.386 649.974, 1921.386 659.974, 1921.386 669.974, 1921.386 679.974, 1921.386 689.974, 1921.386 699.974, 1921.386 709.974, 1921.386 719.974, 1921.386 729.974, 1921.386 739.974, 1921.386 749.974, 1921.386 759.974, 1921.385 769.974, 1921.385 779.974, 1921.385 789.974, 1921.385 799.974, 1921.385 811.500, 1921.385 812.843, 1921.385 814.162, 1921.385 815.452, 1921.385 825.452, 1921.385 835.452, 1921.385 845.452, 1921.385 851.326, 1921.385 861.326, 1921.385 871.326, 1921.385 877.935, 1921.385 887.935, 1921.384 893.405, 1921.384 898.884, 1921.384 908.884, 1921.384 918.795, 1921.384 928.795, 1921.384 938.795, 1921.384 948.795, 1921.384 958.795, 1921.384 963.038, 1921.384 973.038, 1921.384 973.142, 1921.384 983.142, 1921.384 993.142, 1921.384 1003.142, 1921.384 1013.142, 1921.383 1023.142, 1921.383 1033.142, 1921.383 1043.142, 1921.383 1053.142, 1921.383 1063.142, 1921.383 1073.142, 1921.383 1083.142, 1921.383 1093.142, 1921.383 1103.142, 1921.383 1113.142, 1921.383 1123.142, 1921.383 1133.142, 1921.382 1143.142, 1921.382 1153.142, 1921.382 1163.142, 1921.382 1173.142, 1921.382 1183.142, 1921.382 1193.142, 1921.382 1203.142, 1921.382 1213.142, 1921.382 1223.142, 1921.382 1233.142, 1921.382 1243.142, 1921.382 1253.142, 1921.381 1263.142, 1921.381 1273.142, 1921.381 1283.142, 1921.381 1293.142, 1921.381 1303.142, 1921.381 1313.142, 1921.381 1323.142, 1921.381 1333.142, 1921.381 1343.142, 1921.381 1353.142, 1921.381 1363.142, 1921.381 1373.142, 1921.380 1383.142, 1921.380 1393.142, 1921.380 1403.142, 1921.380 1413.142, 1921.380 1423.142, 1921.380 1433.142, 1921.380 1443.142, 1921.380 1453.142, 1921.380 1463.142, 1921.380 1473.142, 1921.380 1483.142, 1921.380 1493.142, 1921.379 1503.142, 1921.379 1513.142, 1921.379 1523.142, 1921.379 1533.142, 1921.379 1543.142, 1921.379 1553.142, 1921.379 1563.142, 1921.379 1576.671, 1921.379 1579.792, 1921.379 1582.870, 1921.379 1585.895, 1921.379 " />
            <path fill="none" stroke-width="3.0" stroke-linecap="butt" stroke-opacity="1.0" stroke="rgb(0, 0, 0)" stroke-linejoin="round" d=" M 1534.425, 983.655 1532.482, 985.457 1530.453, 987.160 1528.340, 988.760 1526.151, 990.252 1523.890, 991.634 1521.563, 992.901 1519.176, 994.050 1516.735, 995.080 1514.245, 995.987 1511.713, 996.767 1509.146, 997.420 1506.549, 997.946 1503.929, 998.341 1501.292, 998.605 1498.646, 998.737 1495.996, 998.737 1493.350, 998.605 1490.714, 998.341 " />
            <path fill="none" stroke-width="3.0" stroke-linecap="butt" stroke-opacity="1.0" stroke="rgb(0, 0, 0)" stroke-linejoin="round" d=" M 1548.817, 958.727 1548.099, 961.277 1547.255, 963.789 1546.287, 966.255 1545.198, 968.670 1543.989, 971.028 1542.664, 973.323 1541.226, 975.548 1539.680, 977.700 1538.028, 979.771 " />
            <path fill="none" stroke-width="3.0" stroke-linecap="butt" stroke-opacity="1.0" stroke="rgb(0, 0, 0)" stroke-linejoin="round" d=" M 1547.255, 927.440 1548.099, 929.952 1548.817, 932.503 1549.406, 935.086 1549.866, 937.695 1550.196, 940.324 1550.394, 942.966 1550.460, 945.615 1550.394, 948.264 1550.196, 950.906 1549.866, 953.534 1549.406, 956.144 " />
            <path fill="none" stroke-width="3.0" stroke-linecap="butt" stroke-opacity="1.0" stroke="rgb(0, 0, 0)" stroke-linejoin="round" d=" M 1490.714, 998.341 1488.094, 997.946 1485.497, 997.420 1482.929, 996.767 1480.398, 995.987 1477.908, 995.080 1475.466, 994.050 1473.079, 992.901 " />
            <path fill="none" stroke-width="3.0" stroke-linecap="butt" stroke-opacity="1.0" stroke="rgb(0, 0, 0)" stroke-linejoin="round" d=" M 634.150, 1921.386 634.524, 1921.386 634.900, 1921.386 635.276, 1921.386 635.651, 1921.386 636.023, 1921.386 636.393, 1921.386 636.759, 1921.386 637.120, 1921.386 637.474, 1921.386 637.822, 1921.386 " />
            <path fill="none" stroke-width="3.0" stroke-linecap="butt" stroke-opacity="1.0" stroke="rgb(0, 0, 0)" stroke-linejoin="round" d=" M 1546.287, 924.974 1547.255, 927.440 " />
            <path fill="none" stroke-width="3.0" stroke-linecap="butt" stroke-opacity="1.0" stroke="rgb(0, 0, 0)" stroke-linejoin="round" d=" M 1545.198, 922.559 1546.287, 924.974 " />
            <path fill="none" stroke-width="3.0" stroke-linecap="butt" stroke-opacity="1.0" stroke="rgb(0, 0, 0)" stroke-linejoin="round" d=" M 1541.226, 915.681 1542.664, 917.906 1543.989, 920.201 1545.198, 922.559 " />
            <path fill="none" stroke-width="3.0" stroke-linecap="butt" stroke-opacity="1.0" stroke="rgb(0, 0, 0)" stroke-linejoin="round" d=" M 1473.079, 992.901 1470.752, 991.634 1468.491, 990.252 1466.302, 988.760 1464.190, 987.160 1462.160, 985.457 1460.218, 983.655 1458.368, 981.758 1456.615, 979.771 " />
            <path fill="none" stroke-width="3.0" stroke-linecap="butt" stroke-opacity="1.0" stroke="rgb(0, 0, 0)" stroke-linejoin="round" d=" M 1539.680, 913.529 1541.226, 915.681 " />
            <path fill="none" stroke-width="3.0" stroke-linecap="butt" stroke-opacity="1.0" stroke="rgb(0, 0, 0)" stroke-linejoin="round" d=" M 1538.028, 911.458 1539.680, 913.529 " />
            <path fill="none" stroke-width="3.0" stroke-linecap="butt" stroke-opacity="1.0" stroke="rgb(0, 0, 0)" stroke-linejoin="round" d=" M 1536.275, 909.471 1538.028, 911.458 " />
            <path fill="none" stroke-width="3.0" stroke-linecap="butt" stroke-opacity="1.0" stroke="rgb(0, 0, 0)" stroke-linejoin="round" d=" M 1470.752, 899.595 1473.079, 898.328 1475.466, 897.178 1477.908, 896.149 1480.398, 895.243 1482.929, 894.462 1485.497, 893.808 1488.094, 893.284 1490.714, 892.889 1493.350, 892.625 1495.996, 892.493 1498.646, 892.493 1501.292, 892.625 1503.929, 892.889 1506.549, 893.284 1509.146, 893.808 1511.713, 894.462 1514.245, 895.243 1516.735, 896.149 1519.176, 897.178 1521.563, 898.328 1523.890, 899.595 1526.151, 900.977 1528.340, 902.469 1530.453, 904.069 1532.482, 905.773 1534.425, 907.575 1536.275, 909.471 " />
            <path fill="none" stroke-width="3.0" stroke-linecap="butt" stroke-opacity="1.0" stroke="rgb(0, 0, 0)" stroke-linejoin="round" d=" M 3135.985, 23.622 3125.985, 23.622 3115.985, 23.622 3105.985, 23.622 3095.985, 23.622 3085.985, 23.622 3075.985, 23.622 3065.985, 23.622 3063.451, 23.622 3063.222, 23.622 3062.999, 23.622 3062.782, 23.622 " />
            <path fill="none" stroke-width="3.0" stroke-linecap="butt" stroke-opacity="1.0" stroke="rgb(0, 0, 0)" stroke-linejoin="round" d=" M 3062.782, 23.622 3052.782, 23.624 3042.782, 23.626 3032.782, 23.628 3022.782, 23.630 3012.782, 23.632 3002.782, 23.634 2992.782, 23.636 2982.782, 23.638 2972.782, 23.640 2962.782, 23.642 2952.782, 23.644 2942.782, 23.646 2932.782, 23.648 2922.782, 23.650 2912.782, 23.652 2902.782, 23.654 2892.782, 23.656 2882.782, 23.658 2872.782, 23.660 2862.782, 23.662 2852.782, 23.664 2842.782, 23.666 2832.782, 23.668 2822.782, 23.670 2812.782, 23.672 2802.782, 23.674 2792.782, 23.676 2782.782, 23.678 2772.782, 23.680 2762.782, 23.682 2752.782, 23.684 2742.782, 23.686 2732.782, 23.688 2722.782, 23.690 2712.782, 23.692 2702.782, 23.694 2692.782, 23.696 2682.782, 23.698 2672.782, 23.700 2662.782, 23.702 2652.782, 23.703 2642.782, 23.706 2632.782, 23.708 2622.782, 23.709 2612.782, 23.711 2602.782, 23.714 2592.782, 23.715 2582.782, 23.717 2572.782, 23.719 2562.782, 23.721 2554.531, 23.723 2553.222, 23.698 2551.974, 23.698 2550.852, 23.622 " />
            <path fill="none" stroke-width="3.0" stroke-linecap="butt" stroke-opacity="1.0" stroke="rgb(0, 0, 0)" stroke-linejoin="round" d=" M 1445.826, 958.727 1445.236, 956.144 1444.776, 953.534 1444.447, 950.906 1444.249, 948.264 1444.183, 945.615 1444.249, 942.966 1444.447, 940.324 " />
            <path fill="none" stroke-width="3.0" stroke-linecap="butt" stroke-opacity="1.0" stroke="rgb(0, 0, 0)" stroke-linejoin="round" d=" M 1444.447, 940.324 1444.776, 937.695 " />
            <path fill="none" stroke-width="3.0" stroke-linecap="butt" stroke-opacity="1.0" stroke="rgb(0, 0, 0)" stroke-linejoin="round" d=" M 1444.776, 937.695 1445.236, 935.086 " />
            <path fill="none" stroke-width="3.0" stroke-linecap="butt" stroke-opacity="1.0" stroke="rgb(0, 0, 0)" stroke-linejoin="round" d=" M 1445.236, 935.086 1445.826, 932.503 1446.543, 929.952 1447.387, 927.440 1448.356, 924.974 1449.445, 922.559 " />
            <path fill="none" stroke-width="3.0" stroke-linecap="butt" stroke-opacity="1.0" stroke="rgb(0, 0, 0)" stroke-linejoin="round" d=" M 1448.356, 966.255 1447.387, 963.789 1446.543, 961.277 1445.826, 958.727 " />
            <path fill="none" stroke-width="3.0" stroke-linecap="butt" stroke-opacity="1.0" stroke="rgb(0, 0, 0)" stroke-linejoin="round" d=" M 1449.445, 922.559 1450.654, 920.201 " />
            <path fill="none" stroke-width="3.0" stroke-linecap="butt" stroke-opacity="1.0" stroke="rgb(0, 0, 0)" stroke-linejoin="round" d=" M 1450.654, 920.201 1451.979, 917.906 1453.417, 915.681 1454.963, 913.529 " />
            <path fill="none" stroke-width="3.0" stroke-linecap="butt" stroke-opacity="1.0" stroke="rgb(0, 0, 0)" stroke-linejoin="round" d=" M 1453.417, 975.548 1451.979, 973.323 1450.654, 971.028 1449.445, 968.670 1448.356, 966.255 " />
            <path fill="none" stroke-width="3.0" stroke-linecap="butt" stroke-opacity="1.0" stroke="rgb(0, 0, 0)" stroke-linejoin="round" d=" M 1454.963, 913.529 1456.615, 911.458 " />
            <path fill="none" stroke-width="3.0" stroke-linecap="butt" stroke-opacity="1.0" stroke="rgb(0, 0, 0)" stroke-linejoin="round" d=" M 1456.615, 911.458 1458.368, 909.471 1460.218, 907.575 1462.160, 905.773 1464.190, 904.069 " />
            <path fill="none" stroke-width="3.0" stroke-linecap="butt" stroke-opacity="1.0" stroke="rgb(0, 0, 0)" stroke-linejoin="round" d=" M 1466.302, 902.469 1468.491, 900.977 " />
            <path fill="none" stroke-width="3.0" stroke-linecap="butt" stroke-opacity="1.0" stroke="rgb(0, 0, 0)" stroke-linejoin="round" d=" M 1464.190, 904.069 1466.302, 902.469 " />
            <path fill="none" stroke-width="3.0" stroke-linecap="butt" stroke-opacity="1.0" stroke="rgb(0, 0, 0)" stroke-linejoin="round" d=" M 1468.491, 900.977 1470.752, 899.595 " />
            <path fill="none" stroke-width="3.0" stroke-linecap="butt" stroke-opacity="1.0" stroke="rgb(0, 0, 0)" stroke-linejoin="round" d=" M 3062.782, 23.622 3052.782, 23.622 3042.782, 23.622 3032.782, 23.622 3022.782, 23.622 3012.782, 23.622 3002.782, 23.622 2992.782, 23.622 2982.782, 23.622 2972.782, 23.622 2962.782, 23.622 2952.782, 23.622 2942.782, 23.622 2932.782, 23.622 2922.782, 23.622 2912.782, 23.622 2902.782, 23.622 2892.782, 23.622 2882.782, 23.622 2872.782, 23.622 2862.782, 23.622 2852.782, 23.622 2842.782, 23.622 2832.782, 23.622 2822.782, 23.622 2812.782, 23.622 2802.782, 23.622 2792.782, 23.622 2782.782, 23.622 2772.782, 23.622 2762.782, 23.622 2752.782, 23.622 2742.782, 23.622 2732.782, 23.622 2722.782, 23.622 2712.782, 23.622 2702.782, 23.622 2692.782, 23.622 2682.782, 23.622 2672.782, 23.622 2662.782, 23.622 2652.782, 23.622 2642.782, 23.622 2632.782, 23.622 2622.782, 23.622 2612.782, 23.622 2602.782, 23.622 2592.782, 23.622 2582.782, 23.622 2572.782, 23.622 2562.782, 23.622 2550.852, 23.622 2540.852, 23.622 2530.852, 23.622 2520.852, 23.622 2510.852, 23.622 2500.852, 23.622 2490.852, 23.622 2480.852, 23.622 2470.852, 23.622 2460.852, 23.622 2450.852, 23.622 2440.852, 23.622 2430.852, 23.622 2420.852, 23.622 2410.852, 23.622 2400.852, 23.622 2390.852, 23.622 2380.852, 23.622 2370.852, 23.622 2360.852, 23.622 2350.852, 23.622 2340.852, 23.622 2330.852, 23.622 2320.852, 23.622 2310.852, 23.622 2300.852, 23.622 2290.852, 23.622 2280.852, 23.622 2270.852, 23.622 2260.852, 23.622 2250.852, 23.622 2240.852, 23.622 2230.852, 23.622 2220.852, 23.622 2210.852, 23.622 2200.852, 23.622 2190.852, 23.622 2180.852, 23.622 2170.852, 23.622 2160.852, 23.622 2150.852, 23.622 2140.852, 23.622 2130.503, 23.622 2125.154, 23.622 2119.882, 23.622 2114.702, 23.622 2109.633, 23.622 2104.690, 23.622 2094.690, 23.622 2084.690, 23.622 2074.690, 23.622 2064.690, 23.622 2054.690, 23.622 2044.690, 23.622 2034.690, 23.622 2024.690, 23.622 2014.690, 23.622 2004.690, 23.622 1994.690, 23.622 1984.690, 23.622 1974.690, 23.622 1964.690, 23.622 1954.690, 23.622 1944.690, 23.622 1934.690, 23.622 1924.690, 23.622 1914.690, 23.622 1904.690, 23.622 1894.690, 23.622 1884.690, 23.622 1874.690, 23.622 1864.690, 23.622 1854.690, 23.622 1844.690, 23.622 1834.690, 23.622 1824.690, 23.622 1814.690, 23.622 1804.690, 23.622 1794.690, 23.622 1784.690, 23.622 1774.690, 23.622 1764.690, 23.622 1754.690, 23.622 1744.690, 23.622 1734.690, 23.622 1724.690, 23.622 1714.690, 23.622 1704.859, 23.622 1699.427, 23.622 1694.115, 23.622 1688.941, 23.622 " />
            <path fill="none" stroke-width="3.0" stroke-linecap="butt" stroke-opacity="1.0" stroke="rgb(0, 0, 0)" stroke-linejoin="round" d=" M 99.319, 23.622 96.080, 23.622 86.080, 23.622 76.080, 23.622 66.080, 23.622 56.080, 23.622 46.080, 23.622 36.080, 23.622 26.080, 23.622 23.991, 23.622 " />
            <path fill="none" stroke-width="3.0" stroke-linecap="butt" stroke-opacity="1.0" stroke="rgb(0, 0, 0)" stroke-linejoin="round" d=" M 446.421, 23.622 436.421, 23.623 426.421, 23.625 416.421, 23.626 406.421, 23.628 396.421, 23.629 386.421, 23.631 376.421, 23.632 366.421, 23.634 356.421, 23.635 346.421, 23.636 336.421, 23.638 326.421, 23.639 316.421, 23.641 306.421, 23.642 296.421, 23.644 286.421, 23.645 276.421, 23.647 266.421, 23.648 256.421, 23.650 246.421, 23.651 240.915, 23.652 230.915, 23.653 220.915, 23.655 210.915, 23.656 200.915, 23.657 190.915, 23.659 180.915, 23.660 170.915, 23.662 160.915, 23.663 150.915, 23.665 140.915, 23.666 130.915, 23.668 120.915, 23.669 110.915, 23.671 107.287, 23.671 107.208, 23.673 106.583, 23.687 105.835, 23.687 105.039, 23.687 104.195, 23.688 103.310, 23.688 102.385, 23.688 101.425, 23.689 100.434, 23.689 " />
            <path fill="none" stroke-width="3.0" stroke-linecap="butt" stroke-opacity="1.0" stroke="rgb(0, 0, 0)" stroke-linejoin="round" d=" M 100.434, 23.689 100.291, 23.681 99.319, 23.622 " />
            <path fill="none" stroke-width="3.0" stroke-linecap="butt" stroke-opacity="1.0" stroke="rgb(0, 0, 0)" stroke-linejoin="round" d=" M 643.475, 23.622 633.475, 23.626 623.475, 23.630 613.475, 23.634 603.475, 23.638 593.475, 23.642 583.475, 23.646 573.475, 23.650 563.475, 23.654 553.475, 23.658 543.475, 23.662 533.475, 23.666 523.475, 23.670 513.476, 23.674 503.475, 23.678 493.475, 23.682 483.475, 23.686 473.475, 23.690 463.475, 23.694 458.836, 23.695 456.673, 23.709 454.358, 23.710 451.886, 23.710 449.264, 23.710 " />
            <path fill="none" stroke-width="3.0" stroke-linecap="butt" stroke-opacity="1.0" stroke="rgb(0, 0, 0)" stroke-linejoin="round" d=" M 449.264, 23.710 446.421, 23.622 " />
            <path fill="none" stroke-width="3.0" stroke-linecap="butt" stroke-opacity="1.0" stroke="rgb(0, 0, 0)" stroke-linejoin="round" d=" M 1688.941, 23.622 1678.941, 23.622 1668.941, 23.623 1658.941, 23.623 1648.941, 23.624 1638.941, 23.624 1628.941, 23.625 1618.941, 23.625 1608.941, 23.625 1598.941, 23.626 1588.941, 23.626 1578.941, 23.627 1568.941, 23.627 1558.941, 23.627 1548.941, 23.628 1538.941, 23.628 1528.941, 23.629 1518.941, 23.629 1508.941, 23.630 1498.941, 23.630 1488.941, 23.630 1478.941, 23.631 1468.941, 23.631 1458.941, 23.632 1448.941, 23.632 1438.941, 23.632 1428.941, 23.633 1418.941, 23.633 1408.941, 23.634 1398.941, 23.634 1388.941, 23.635 1378.941, 23.635 1368.941, 23.635 1358.941, 23.636 1348.941, 23.636 1338.941, 23.637 1328.941, 23.637 1318.941, 23.637 1308.941, 23.638 1298.941, 23.638 1288.941, 23.639 1278.941, 23.639 1268.941, 23.639 1258.941, 23.640 1248.941, 23.640 1238.941, 23.641 1228.941, 23.641 1218.941, 23.642 1208.941, 23.642 1198.941, 23.642 1188.941, 23.643 1178.941, 23.643 1168.941, 23.644 1158.941, 23.644 1148.941, 23.644 1138.941, 23.645 1128.941, 23.645 1118.941, 23.646 1108.941, 23.646 1098.941, 23.646 1088.941, 23.647 1078.941, 23.647 1068.941, 23.648 1058.941, 23.648 1048.941, 23.649 1038.941, 23.649 1028.941, 23.649 1018.941, 23.650 1008.941, 23.650 998.941, 23.651 988.941, 23.651 978.941, 23.651 968.941, 23.652 958.941, 23.652 948.941, 23.653 938.941, 23.653 928.941, 23.654 918.941, 23.654 908.941, 23.654 898.941, 23.655 888.941, 23.655 878.941, 23.656 868.941, 23.656 858.941, 23.656 848.941, 23.657 838.941, 23.657 828.941, 23.658 818.941, 23.658 808.941, 23.659 798.941, 23.659 788.941, 23.659 778.941, 23.660 768.941, 23.660 758.941, 23.661 748.941, 23.661 738.941, 23.661 728.941, 23.662 718.941, 23.662 708.941, 23.663 698.941, 23.663 688.941, 23.664 678.941, 23.664 668.941, 23.664 649.413, 23.665 646.530, 23.725 " />
            <path fill="none" stroke-width="3.0" stroke-linecap="butt" stroke-opacity="1.0" stroke="rgb(0, 0, 0)" stroke-linejoin="round" d=" M 646.530, 23.725 643.475, 23.622 " />
            <path fill="none" stroke-width="3.0" stroke-linecap="butt" stroke-opacity="1.0" stroke="rgb(0, 0, 0)" stroke-linejoin="round" d=" M 513.752, 1921.388 523.752, 1921.388 533.752, 1921.388 543.752, 1921.388 553.752, 1921.387 563.752, 1921.387 573.752, 1921.387 583.752, 1921.387 593.752, 1921.387 603.752, 1921.387 613.752, 1921.387 623.752, 1921.387 634.150, 1921.386 " />
            <path fill="none" stroke-width="3.0" stroke-linecap="butt" stroke-opacity="1.0" stroke="rgb(0, 0, 0)" stroke-linejoin="round" d=" M 513.752, 1921.388 523.752, 1921.388 533.752, 1921.388 543.752, 1921.388 553.752, 1921.387 563.752, 1921.387 573.752, 1921.387 583.752, 1921.387 593.752, 1921.387 603.752, 1921.387 613.752, 1921.387 623.752, 1921.387 633.752, 1921.387 637.822, 1921.386 " />
            <path fill="none" stroke-width="3.0" stroke-linecap="butt" stroke-opacity="1.0" stroke="rgb(0, 0, 0)" stroke-linejoin="round" d=" M 1454.963, 977.700 1453.417, 975.548 " />
            <path fill="none" stroke-width="3.0" stroke-linecap="butt" stroke-opacity="1.0" stroke="rgb(0, 0, 0)" stroke-linejoin="round" d=" M 1456.615, 979.771 1454.963, 977.700 " />
            <path fill="none" stroke-width="3.0" stroke-linecap="butt" stroke-opacity="1.0" stroke="rgb(0, 0, 0)" stroke-linejoin="round" d=" M 1536.275, 981.758 1534.425, 983.655 " />
            <path fill="none" stroke-width="3.0" stroke-linecap="butt" stroke-opacity="1.0" stroke="rgb(0, 0, 0)" stroke-linejoin="round" d=" M 1538.028, 979.771 1536.275, 981.758 " />
            <path fill="none" stroke-width="3.0" stroke-linecap="butt" stroke-opacity="1.0" stroke="rgb(0, 0, 0)" stroke-linejoin="round" d=" M 1549.406, 956.144 1548.817, 958.727 " />
            <path fill="none" stroke-width="3.0" stroke-linecap="butt" stroke-opacity="1.0" stroke="rgb(0, 0, 0)" stroke-linejoin="round" d=" M 513.752, 1921.388 523.752, 1921.388 533.752, 1921.388 543.752, 1921.388 553.752, 1921.388 563.752, 1921.387 573.752, 1921.387 583.752, 1921.387 593.752, 1921.387 603.752, 1921.387 613.752, 1921.387 623.752, 1921.387 633.752, 1921.387 643.752, 1921.387 653.752, 1921.387 663.752, 1921.387 673.752, 1921.387 683.752, 1921.386 693.752, 1921.386 703.752, 1921.386 713.752, 1921.386 723.752, 1921.386 733.752, 1921.386 743.752, 1921.386 753.752, 1921.386 763.752, 1921.386 773.752, 1921.386 783.752, 1921.386 793.752, 1921.385 803.752, 1921.385 813.752, 1921.385 823.752, 1921.385 833.752, 1921.385 843.752, 1921.385 853.752, 1921.385 863.752, 1921.385 873.752, 1921.385 883.752, 1921.385 893.752, 1921.385 903.752, 1921.385 913.752, 1921.384 923.752, 1921.384 933.752, 1921.384 943.752, 1921.384 953.752, 1921.384 963.752, 1921.384 973.752, 1921.384 983.752, 1921.384 993.752, 1921.384 1003.752, 1921.384 1013.752, 1921.384 1023.752, 1921.384 1033.752, 1921.383 1043.752, 1921.383 1053.752, 1921.383 1063.752, 1921.383 1073.752, 1921.383 1083.752, 1921.383 1093.752, 1921.383 1103.752, 1921.383 1113.752, 1921.383 1123.752, 1921.383 1133.752, 1921.383 1143.752, 1921.383 1153.752, 1921.382 1163.752, 1921.382 1173.752, 1921.382 1183.752, 1921.382 1193.752, 1921.382 1203.752, 1921.382 1213.752, 1921.382 1223.752, 1921.382 1233.752, 1921.382 1243.752, 1921.382 1253.752, 1921.382 1263.752, 1921.381 1273.752, 1921.381 1283.752, 1921.381 1293.752, 1921.381 1303.752, 1921.381 1313.752, 1921.381 1323.752, 1921.381 1333.752, 1921.381 1343.752, 1921.381 1353.752, 1921.381 1363.752, 1921.381 1373.752, 1921.381 1383.752, 1921.380 1393.752, 1921.380 1403.752, 1921.380 1413.752, 1921.380 1423.752, 1921.380 1433.752, 1921.380 1443.752, 1921.380 1453.752, 1921.380 1463.752, 1921.380 1473.752, 1921.380 1483.752, 1921.380 1493.752, 1921.380 1503.752, 1921.379 1513.752, 1921.379 1523.752, 1921.379 1533.752, 1921.379 1543.752, 1921.379 1553.752, 1921.379 1563.752, 1921.379 1573.752, 1921.379 1585.895, 1921.379 " />
        </g>
    </g>
<g id="slice-labels"><text x="570.8273333333333" y="498.0635" text-anchor="middle" dominant-baseline="middle" font-family="Arial, sans-serif" font-size="59.042797604881386" font-weight="bold" fill="black" stroke="none" stroke-width="7.085135712585767" paint-order="stroke fill">Slice7 (Front)</text><text x="1664.5" y="498.0635" text-anchor="middle" dominant-baseline="middle" font-family="Arial, sans-serif" font-size="59.042797604881386" font-weight="bold" fill="black" stroke="none" stroke-width="7.085135712585767" paint-order="stroke fill">Slice7 (Front)</text><text x="2758.172666666667" y="498.0635" text-anchor="middle" dominant-baseline="middle" font-family="Arial, sans-serif" font-size="59.042797604881386" font-weight="bold" fill="black" stroke="none" stroke-width="7.085135712585767" paint-order="stroke fill">Slice7 (Front)</text><text x="570.8273333333333" y="1446.9465" text-anchor="middle" dominant-baseline="middle" font-family="Arial, sans-serif" font-size="59.042797604881386" font-weight="bold" fill="black" stroke="none" stroke-width="7.085135712585767" paint-order="stroke fill">Slice7 (Front)</text><text x="1664.5" y="1446.9465" text-anchor="middle" dominant-baseline="middle" font-family="Arial, sans-serif" font-size="59.042797604881386" font-weight="bold" fill="black" stroke="none" stroke-width="7.085135712585767" paint-order="stroke fill">Slice7 (Front)</text><text x="2758.172666666667" y="1446.9465" text-anchor="middle" dominant-baseline="middle" font-family="Arial, sans-serif" font-size="59.042797604881386" font-weight="bold" fill="black" stroke="none" stroke-width="7.085135712585767" paint-order="stroke fill">Slice7 (Front)</text></g></svg>