<?xml version='1.0' encoding='utf-8'?>
<svg xmlns="http://www.w3.org/2000/svg" xmlns:inkscape="http://www.inkscape.org/namespaces/inkscape" version="1.1" width="464.22529155015945mm" height="180.77617073059082mm" viewBox="0.21662928246585622 0.0056331669411271434 5482.586741435068 2134.9997336661177" preserveAspectRatio="none">
    <g id="ViewLayer_LineSet" inkscape:groupmode="lineset" inkscape:label="ViewLayer_LineSet">
        <g inkscape:groupmode="layer" id="strokes" inkscape:label="strokes">
            <path fill="none" stroke-width="3.0" stroke-linecap="butt" stroke-opacity="1.0" stroke="rgb(0, 0, 0)" stroke-linejoin="round" d=" M 4324.140, 1595.543 4323.550, 1598.126 4322.833, 1600.678 4321.989, 1603.189 4321.021, 1605.656 4319.931, 1608.071 4318.722, 1610.430 4317.397, 1612.724 4315.959, 1614.950 4314.413, 1617.102 4312.760, 1619.174 4311.007, 1621.160 4309.156, 1623.058 " />
            <path fill="none" stroke-width="3.0" stroke-linecap="butt" stroke-opacity="1.0" stroke="rgb(0, 0, 0)" stroke-linejoin="round" d=" M 4307.214, 1624.860 4305.184, 1626.563 4303.071, 1628.164 4300.882, 1629.656 4298.621, 1631.038 4296.294, 1632.305 4293.906, 1633.455 4291.464, 1634.484 4288.974, 1635.391 4286.442, 1636.172 4283.874, 1636.826 4281.277, 1637.351 4278.656, 1637.746 4276.020, 1638.009 4273.373, 1638.142 4270.723, 1638.142 " />
            <path fill="none" stroke-width="3.0" stroke-linecap="butt" stroke-opacity="1.0" stroke="rgb(0, 0, 0)" stroke-linejoin="round" d=" M 3313.763, 2111.218 3323.763, 2111.217 3333.763, 2111.217 3343.763, 2111.216 3353.763, 2111.216 3363.763, 2111.215 3373.763, 2111.215 3383.763, 2111.214 3393.763, 2111.214 3403.763, 2111.213 3413.763, 2111.213 3423.763, 2111.212 3433.763, 2111.212 3443.763, 2111.211 3453.763, 2111.211 3463.763, 2111.210 3473.763, 2111.210 3483.763, 2111.209 3493.763, 2111.209 3503.763, 2111.208 3513.763, 2111.208 3523.763, 2111.207 3533.763, 2111.207 3543.763, 2111.206 3553.763, 2111.206 3563.763, 2111.205 3573.763, 2111.205 3583.763, 2111.204 3593.763, 2111.204 3603.763, 2111.203 3613.763, 2111.203 3623.763, 2111.202 3633.763, 2111.202 3643.763, 2111.201 3653.763, 2111.201 3663.763, 2111.200 3673.763, 2111.200 3683.763, 2111.199 3693.763, 2111.199 3703.763, 2111.198 3713.763, 2111.198 3723.763, 2111.197 3733.763, 2111.197 3743.763, 2111.196 3753.763, 2111.196 3763.763, 2111.195 3773.763, 2111.195 3783.763, 2111.194 3793.763, 2111.194 3803.763, 2111.193 3813.763, 2111.193 3823.763, 2111.192 3833.763, 2111.192 3843.763, 2111.191 3853.763, 2111.191 3863.763, 2111.190 3873.763, 2111.190 3883.763, 2111.189 3893.763, 2111.189 3903.763, 2111.188 3913.763, 2111.188 3923.763, 2111.187 3933.763, 2111.187 3943.763, 2111.186 3953.763, 2111.186 3963.763, 2111.185 3973.763, 2111.185 3983.763, 2111.184 3993.763, 2111.184 4003.763, 2111.183 4013.763, 2111.183 4023.763, 2111.182 4033.763, 2111.182 4043.763, 2111.181 4053.763, 2111.181 4063.763, 2111.180 4073.763, 2111.179 4083.763, 2111.179 4093.763, 2111.178 4103.763, 2111.178 4113.763, 2111.177 4123.763, 2111.177 4133.763, 2111.176 4143.763, 2111.176 4153.763, 2111.175 4163.763, 2111.175 4173.763, 2111.174 4183.763, 2111.174 4193.763, 2111.173 4203.763, 2111.173 4213.763, 2111.172 4223.763, 2111.172 4233.763, 2111.171 4243.763, 2111.171 4253.763, 2111.170 4263.763, 2111.170 4273.763, 2111.169 4283.763, 2111.169 4293.763, 2111.168 4303.763, 2111.168 4313.763, 2111.167 4323.763, 2111.167 4333.763, 2111.166 4343.763, 2111.166 4353.763, 2111.165 4363.763, 2111.165 4373.763, 2111.164 4383.763, 2111.164 4393.763, 2111.163 4403.763, 2111.163 4413.763, 2111.162 4423.763, 2111.162 4433.763, 2111.161 4443.763, 2111.161 4453.763, 2111.160 4463.763, 2111.160 4473.763, 2111.159 4483.763, 2111.159 4493.763, 2111.158 4503.763, 2111.158 4513.763, 2111.157 4523.763, 2111.157 4533.763, 2111.156 4543.763, 2111.156 4553.763, 2111.155 4563.763, 2111.155 4573.763, 2111.154 4583.763, 2111.154 4593.763, 2111.153 4603.763, 2111.153 4613.763, 2111.152 4623.763, 2111.152 4633.763, 2111.151 4643.763, 2111.151 4653.763, 2111.150 4667.913, 2111.149 4677.913, 2111.149 4687.913, 2111.148 4697.913, 2111.148 4707.913, 2111.147 4717.913, 2111.147 4727.913, 2111.146 4737.913, 2111.146 4747.913, 2111.145 4757.913, 2111.145 4767.913, 2111.144 4777.913, 2111.144 4787.913, 2111.143 4797.913, 2111.143 4807.913, 2111.142 4817.913, 2111.142 4827.913, 2111.141 4837.913, 2111.141 4847.913, 2111.140 4857.913, 2111.140 4867.913, 2111.139 4877.913, 2111.139 4887.913, 2111.138 4897.913, 2111.138 4907.913, 2111.137 4917.913, 2111.137 4927.913, 2111.136 4937.913, 2111.136 4947.913, 2111.135 4957.913, 2111.135 4967.913, 2111.134 4977.913, 2111.134 4987.913, 2111.133 4997.913, 2111.133 5007.913, 2111.132 5017.913, 2111.132 5027.913, 2111.131 5037.913, 2111.131 5047.913, 2111.130 5057.913, 2111.130 5067.913, 2111.129 5077.913, 2111.129 5087.913, 2111.128 5097.913, 2111.128 5107.913, 2111.127 5117.913, 2111.126 5127.913, 2111.126 5137.913, 2111.125 5147.913, 2111.125 5157.913, 2111.124 5167.913, 2111.124 5177.913, 2111.123 5187.913, 2111.123 5197.913, 2111.122 5207.913, 2111.122 5217.913, 2111.121 5227.913, 2111.121 5240.785, 2111.120 5242.333, 2101.241 5243.882, 2091.362 5245.431, 2081.482 5246.979, 2071.603 5248.528, 2061.723 5250.077, 2051.844 5251.625, 2041.965 5253.174, 2032.085 5254.723, 2022.206 5256.271, 2012.327 5257.820, 2002.447 5259.369, 1992.568 5260.917, 1982.689 5262.466, 1972.809 5264.015, 1962.930 5265.563, 1953.051 5267.112, 1943.171 5268.661, 1933.292 5270.209, 1923.413 5271.758, 1913.533 5273.307, 1903.654 5274.855, 1893.774 5276.404, 1883.895 5277.953, 1874.016 5279.501, 1864.136 5281.438, 1851.787 5281.367, 1841.787 5281.297, 1831.787 5281.227, 1821.787 5281.157, 1811.788 5281.086, 1801.788 5281.016, 1791.788 5280.946, 1781.788 5280.875, 1771.789 5280.806, 1761.789 5280.735, 1751.789 5280.665, 1741.789 5280.595, 1731.790 5280.525, 1721.790 5280.455, 1711.790 5280.384, 1701.790 5280.314, 1691.791 5280.244, 1681.791 5280.174, 1671.791 5280.104, 1661.791 5280.033, 1651.792 5279.963, 1641.792 5279.893, 1631.792 5279.823, 1621.792 5279.752, 1611.793 5279.682, 1601.793 5279.612, 1591.793 5279.542, 1581.793 5279.472, 1571.794 5279.401, 1561.794 5279.331, 1551.794 5279.261, 1541.794 5279.191, 1531.794 5279.121, 1521.795 5279.057, 1512.695 " />
            <path fill="none" stroke-width="3.0" stroke-linecap="butt" stroke-opacity="1.0" stroke="rgb(0, 0, 0)" stroke-linejoin="round" d=" M 3313.771, 2111.218 3323.771, 2111.217 3333.771, 2111.217 3343.771, 2111.216 3353.771, 2111.216 3363.771, 2111.215 3373.771, 2111.215 3383.771, 2111.214 3393.771, 2111.214 3403.771, 2111.213 3413.771, 2111.213 3423.771, 2111.212 3433.771, 2111.212 3443.771, 2111.211 3453.771, 2111.211 3463.771, 2111.210 3473.771, 2111.210 3483.771, 2111.209 3493.771, 2111.209 3503.771, 2111.208 3513.771, 2111.208 3523.771, 2111.207 3533.771, 2111.207 3543.771, 2111.206 3553.771, 2111.206 3563.771, 2111.205 3573.771, 2111.205 3583.771, 2111.204 3593.771, 2111.204 3603.771, 2111.203 3613.771, 2111.203 3623.771, 2111.202 3633.771, 2111.202 3643.771, 2111.201 3653.771, 2111.201 3663.771, 2111.200 3673.771, 2111.200 3683.771, 2111.199 3693.771, 2111.199 3703.771, 2111.198 3713.771, 2111.198 3723.771, 2111.197 3733.771, 2111.197 3743.771, 2111.196 3753.771, 2111.196 3763.771, 2111.195 3773.771, 2111.195 3783.771, 2111.194 3793.771, 2111.194 3803.771, 2111.193 3813.771, 2111.193 3823.771, 2111.192 3833.771, 2111.192 3843.771, 2111.191 3853.771, 2111.191 3863.771, 2111.190 3873.771, 2111.190 3883.771, 2111.189 3893.771, 2111.189 3903.771, 2111.188 3913.771, 2111.188 3923.771, 2111.187 3933.771, 2111.187 3943.771, 2111.186 3953.771, 2111.186 3963.771, 2111.185 3973.771, 2111.185 3983.771, 2111.184 3993.771, 2111.184 4003.771, 2111.183 4013.771, 2111.183 4023.771, 2111.182 4033.771, 2111.181 4043.771, 2111.181 4053.771, 2111.180 4063.771, 2111.180 4073.771, 2111.179 4083.771, 2111.179 4093.771, 2111.178 4103.771, 2111.178 4113.771, 2111.177 4123.771, 2111.177 4133.771, 2111.176 4143.771, 2111.176 4153.771, 2111.175 4163.771, 2111.175 4173.771, 2111.174 4183.771, 2111.174 4193.771, 2111.173 4203.771, 2111.173 4213.771, 2111.172 4223.771, 2111.172 4233.771, 2111.171 4243.771, 2111.171 4253.771, 2111.170 4263.771, 2111.170 4273.771, 2111.169 4283.771, 2111.169 4293.771, 2111.168 4303.771, 2111.168 4313.771, 2111.167 4323.771, 2111.167 4333.771, 2111.166 4343.771, 2111.166 4353.771, 2111.165 4363.771, 2111.165 4373.771, 2111.164 4383.771, 2111.164 4393.771, 2111.163 4403.771, 2111.163 4413.771, 2111.162 4423.771, 2111.162 4433.771, 2111.161 4443.771, 2111.161 4453.771, 2111.160 4463.771, 2111.160 4473.771, 2111.159 4483.771, 2111.159 4493.771, 2111.158 4503.771, 2111.158 4513.771, 2111.157 4523.771, 2111.157 4533.771, 2111.156 4543.771, 2111.156 4553.771, 2111.155 4563.771, 2111.155 4573.771, 2111.154 4583.771, 2111.154 4593.771, 2111.153 4603.771, 2111.153 4613.771, 2111.152 4623.771, 2111.152 4633.771, 2111.151 4643.771, 2111.151 4660.491, 2111.150 4661.572, 2111.150 4662.324, 2111.149 4664.176, 2111.149 4664.421, 2111.149 4666.041, 2111.149 4667.913, 2111.149 " />
            <path fill="none" stroke-width="3.0" stroke-linecap="butt" stroke-opacity="1.0" stroke="rgb(0, 0, 0)" stroke-linejoin="round" d=" M 4655.389, 2111.150 4656.899, 2111.150 4657.477, 2111.150 4658.681, 2111.150 4660.491, 2111.150 " />
            <path fill="none" stroke-width="3.0" stroke-linecap="butt" stroke-opacity="1.0" stroke="rgb(0, 0, 0)" stroke-linejoin="round" d=" M 4655.151, 2111.150 4655.389, 2111.150 " />
            <path fill="none" stroke-width="3.0" stroke-linecap="butt" stroke-opacity="1.0" stroke="rgb(0, 0, 0)" stroke-linejoin="round" d=" M 4653.442, 2111.150 4654.392, 2111.150 4655.073, 2111.150 " />
            <path fill="none" stroke-width="3.0" stroke-linecap="butt" stroke-opacity="1.0" stroke="rgb(0, 0, 0)" stroke-linejoin="round" d=" M 4648.455, 2111.150 4648.595, 2111.150 4650.159, 2111.150 4650.532, 2111.150 4651.776, 2111.150 4653.442, 2111.150 " />
            <path fill="none" stroke-width="3.0" stroke-linecap="butt" stroke-opacity="1.0" stroke="rgb(0, 0, 0)" stroke-linejoin="round" d=" M 4323.550, 1571.898 4324.140, 1574.482 4324.600, 1577.091 4324.930, 1579.721 4325.128, 1582.363 4325.194, 1585.012 4325.128, 1587.662 4324.930, 1590.304 4324.600, 1592.933 " />
            <path fill="none" stroke-width="3.0" stroke-linecap="butt" stroke-opacity="1.0" stroke="rgb(0, 0, 0)" stroke-linejoin="round" d=" M 4647.089, 2111.150 4648.217, 2111.150 " />
            <path fill="none" stroke-width="3.0" stroke-linecap="butt" stroke-opacity="1.0" stroke="rgb(0, 0, 0)" stroke-linejoin="round" d=" M 3313.786, 2111.218 3323.786, 2111.217 3333.786, 2111.217 3343.786, 2111.216 3353.786, 2111.216 3363.786, 2111.215 3373.786, 2111.215 3383.786, 2111.214 3393.786, 2111.214 3403.786, 2111.213 3413.786, 2111.213 3423.786, 2111.212 3433.786, 2111.212 3443.786, 2111.211 3453.786, 2111.211 3463.786, 2111.210 3473.786, 2111.210 3483.786, 2111.209 3493.786, 2111.209 3503.786, 2111.208 3513.786, 2111.208 3523.786, 2111.207 3533.786, 2111.207 3543.786, 2111.206 3553.786, 2111.206 3563.786, 2111.205 3573.786, 2111.205 3583.786, 2111.204 3593.786, 2111.204 3603.786, 2111.203 3613.786, 2111.203 3623.786, 2111.202 3633.786, 2111.202 3643.786, 2111.201 3653.786, 2111.201 3663.786, 2111.200 3673.786, 2111.200 3683.786, 2111.199 3693.786, 2111.199 3703.786, 2111.198 3713.786, 2111.198 3723.786, 2111.197 3733.786, 2111.197 3743.786, 2111.196 3753.786, 2111.196 3763.786, 2111.195 3773.786, 2111.195 3783.786, 2111.194 3793.786, 2111.194 3803.786, 2111.193 3813.786, 2111.193 3823.786, 2111.192 3833.786, 2111.192 3843.786, 2111.191 3853.786, 2111.191 3863.786, 2111.190 3873.786, 2111.190 3883.786, 2111.189 3893.786, 2111.189 3903.786, 2111.188 3913.786, 2111.188 3923.786, 2111.187 3933.786, 2111.187 3943.786, 2111.186 3953.786, 2111.186 3963.786, 2111.185 3973.786, 2111.185 3983.786, 2111.184 3993.786, 2111.183 4003.786, 2111.183 4013.786, 2111.182 4023.786, 2111.182 4033.786, 2111.181 4043.786, 2111.181 4053.786, 2111.180 4063.786, 2111.180 4073.786, 2111.179 4083.786, 2111.179 4093.786, 2111.178 4103.786, 2111.178 4113.787, 2111.177 4123.786, 2111.177 4133.787, 2111.176 4143.786, 2111.176 4153.787, 2111.175 4163.787, 2111.175 4173.787, 2111.174 4183.787, 2111.174 4193.786, 2111.173 4203.787, 2111.173 4213.786, 2111.172 4223.787, 2111.172 4233.786, 2111.171 4243.787, 2111.171 4253.786, 2111.170 4263.787, 2111.170 4273.787, 2111.169 4283.787, 2111.169 4293.787, 2111.168 4303.786, 2111.168 4313.787, 2111.167 4323.786, 2111.167 4333.787, 2111.166 4343.786, 2111.166 4353.787, 2111.165 4363.786, 2111.165 4373.787, 2111.164 4383.787, 2111.164 4393.787, 2111.163 4403.787, 2111.163 4413.786, 2111.162 4423.787, 2111.162 4433.786, 2111.161 4443.787, 2111.161 4453.786, 2111.160 4463.787, 2111.160 4473.786, 2111.159 4483.787, 2111.159 4493.787, 2111.158 4503.787, 2111.158 4513.787, 2111.157 4523.786, 2111.157 4533.787, 2111.156 4543.786, 2111.156 4553.787, 2111.155 4563.786, 2111.155 4573.787, 2111.154 4583.787, 2111.154 4593.787, 2111.153 4603.787, 2111.153 4613.787, 2111.152 4623.787, 2111.152 4645.644, 2111.150 4646.184, 2111.150 4646.729, 2111.150 " />
            <path fill="none" stroke-width="3.0" stroke-linecap="butt" stroke-opacity="1.0" stroke="rgb(0, 0, 0)" stroke-linejoin="round" d=" M 3316.976, 2111.218 3317.002, 2111.218 3327.002, 2111.217 3337.002, 2111.217 3347.002, 2111.216 3357.002, 2111.216 3367.002, 2111.215 3377.002, 2111.215 3387.002, 2111.214 3397.002, 2111.214 3407.002, 2111.213 3417.002, 2111.213 3427.002, 2111.212 3437.002, 2111.212 3447.002, 2111.211 3457.002, 2111.211 3467.002, 2111.210 3477.002, 2111.210 3487.002, 2111.209 3497.002, 2111.209 3507.002, 2111.208 3517.002, 2111.208 3527.002, 2111.207 3537.002, 2111.207 3547.002, 2111.206 3557.002, 2111.206 3567.002, 2111.205 3577.002, 2111.205 3587.002, 2111.204 3597.002, 2111.204 3607.002, 2111.203 3617.002, 2111.203 3627.002, 2111.202 3637.002, 2111.201 3647.002, 2111.201 3657.002, 2111.200 3667.002, 2111.200 3677.002, 2111.199 3687.002, 2111.199 3697.002, 2111.198 3707.002, 2111.198 3717.002, 2111.197 3727.002, 2111.197 3737.002, 2111.196 3747.002, 2111.196 3757.002, 2111.195 3767.002, 2111.195 3777.002, 2111.194 3787.002, 2111.194 3797.002, 2111.193 3807.002, 2111.193 3817.002, 2111.192 3827.002, 2111.192 3837.002, 2111.191 3847.002, 2111.191 3857.002, 2111.190 3867.002, 2111.190 3877.002, 2111.189 3887.002, 2111.189 3897.002, 2111.188 3907.002, 2111.188 3917.002, 2111.187 3927.002, 2111.187 3937.002, 2111.186 3947.002, 2111.186 3957.002, 2111.185 3967.002, 2111.185 3977.002, 2111.184 3987.002, 2111.184 3997.002, 2111.183 4007.002, 2111.183 4017.002, 2111.182 4027.002, 2111.182 4037.002, 2111.181 4047.002, 2111.181 4057.002, 2111.180 4067.002, 2111.180 4077.002, 2111.179 4087.002, 2111.179 4097.001, 2111.178 4107.001, 2111.178 4117.001, 2111.177 4127.001, 2111.177 4137.001, 2111.176 4147.001, 2111.176 4157.001, 2111.175 4167.001, 2111.175 4177.001, 2111.174 4187.001, 2111.174 4197.001, 2111.173 4207.001, 2111.173 4217.001, 2111.172 4227.001, 2111.172 4237.001, 2111.171 4247.001, 2111.171 4257.001, 2111.170 4267.001, 2111.170 4277.001, 2111.169 4287.001, 2111.169 4297.001, 2111.168 4307.001, 2111.168 4317.001, 2111.167 4327.001, 2111.167 4337.001, 2111.166 4347.001, 2111.166 4357.001, 2111.165 4367.001, 2111.164 4377.001, 2111.164 4387.001, 2111.163 4397.001, 2111.163 4407.001, 2111.162 4417.001, 2111.162 4427.001, 2111.161 4437.001, 2111.161 4447.001, 2111.160 4457.001, 2111.160 4467.001, 2111.159 4477.001, 2111.159 4487.001, 2111.158 4497.001, 2111.158 4507.001, 2111.157 4517.001, 2111.157 4527.001, 2111.156 4537.001, 2111.156 4547.001, 2111.155 4557.001, 2111.155 4567.001, 2111.154 4577.001, 2111.154 4587.001, 2111.153 4597.001, 2111.153 4607.001, 2111.152 4617.001, 2111.152 4627.001, 2111.151 4642.956, 2111.150 4643.588, 2111.150 4644.265, 2111.150 4645.644, 2111.150 " />
            <path fill="none" stroke-width="3.0" stroke-linecap="butt" stroke-opacity="1.0" stroke="rgb(0, 0, 0)" stroke-linejoin="round" d=" M 4281.277, 1532.674 4283.874, 1533.199 4286.442, 1533.853 4288.974, 1534.634 4291.464, 1535.540 4293.906, 1536.570 4296.294, 1537.719 4298.621, 1538.987 4300.882, 1540.369 4303.071, 1541.861 4305.184, 1543.461 4307.214, 1545.165 4309.156, 1546.967 4311.007, 1548.864 4312.760, 1550.851 4314.413, 1552.923 4315.959, 1555.074 4317.397, 1557.300 4318.722, 1559.595 4319.931, 1561.953 4321.021, 1564.369 4321.989, 1566.836 4322.833, 1569.347 4323.550, 1571.898 " />
            <path fill="none" stroke-width="3.0" stroke-linecap="butt" stroke-opacity="1.0" stroke="rgb(0, 0, 0)" stroke-linejoin="round" d=" M 5321.807, 680.357 5322.561, 670.386 5323.315, 660.414 5324.069, 650.443 5324.823, 640.471 5325.577, 630.500 5326.331, 620.528 5327.085, 610.557 5327.839, 600.585 5328.593, 590.614 5329.347, 580.642 5330.101, 570.670 5330.855, 560.699 5331.609, 550.727 5332.363, 540.756 5333.085, 531.208 5331.950, 521.273 5330.815, 511.337 5329.680, 501.402 5328.545, 491.467 5327.410, 481.531 5326.275, 471.596 5325.140, 461.661 5324.005, 451.725 5322.870, 441.790 5322.370, 437.416 5325.509, 427.922 5328.648, 418.427 5331.788, 408.933 5334.927, 399.438 5338.066, 389.944 5341.206, 380.449 5344.345, 370.955 5347.484, 361.460 5350.623, 351.966 5353.762, 342.471 5356.901, 332.977 5360.041, 323.482 5363.180, 313.988 5366.319, 304.494 5369.458, 294.999 5372.597, 285.505 5375.736, 276.010 5378.875, 266.516 5382.015, 257.021 5385.154, 247.526 5388.293, 238.032 5391.433, 228.537 5394.572, 219.043 5397.711, 209.548 5400.850, 200.054 5403.989, 190.560 5407.128, 181.065 5410.268, 171.571 5413.407, 162.076 5416.546, 152.582 5419.685, 143.087 5422.824, 133.593 5425.964, 124.098 5429.103, 114.604 5432.242, 105.109 5435.381, 95.615 5438.521, 86.120 5441.660, 76.625 5444.799, 67.131 5447.938, 57.636 5451.077, 48.142 5454.216, 38.648 5457.355, 29.153 5459.183, 23.626 " />
            <path fill="none" stroke-width="3.0" stroke-linecap="butt" stroke-opacity="1.0" stroke="rgb(0, 0, 0)" stroke-linejoin="round" d=" M 4265.439, 1637.746 4262.819, 1637.351 4260.222, 1636.826 4257.654, 1636.172 " />
            <path fill="none" stroke-width="3.0" stroke-linecap="butt" stroke-opacity="1.0" stroke="rgb(0, 0, 0)" stroke-linejoin="round" d=" M 3314.208, 2111.218 3314.960, 2111.218 3315.678, 2111.218 3316.359, 2111.218 3316.791, 2111.218 3316.944, 2111.218 " />
            <path fill="none" stroke-width="3.0" stroke-linecap="butt" stroke-opacity="1.0" stroke="rgb(0, 0, 0)" stroke-linejoin="round" d=" M 3313.426, 2111.218 3303.426, 2111.219 3293.426, 2111.219 3283.426, 2111.220 3273.426, 2111.220 3263.426, 2111.221 3253.426, 2111.221 3243.426, 2111.222 3233.426, 2111.222 3223.426, 2111.223 3213.426, 2111.223 3203.426, 2111.224 3193.426, 2111.224 3183.426, 2111.225 3173.426, 2111.225 3163.426, 2111.226 3153.426, 2111.226 3143.426, 2111.227 3133.426, 2111.227 3123.426, 2111.228 3113.426, 2111.228 3108.932, 2111.228 3118.932, 2111.228 3128.932, 2111.227 3138.932, 2111.227 3148.932, 2111.226 3158.932, 2111.226 3168.932, 2111.225 3178.932, 2111.225 3188.932, 2111.224 3198.932, 2111.224 3208.932, 2111.223 3218.932, 2111.223 3228.932, 2111.222 3238.932, 2111.222 3248.932, 2111.221 3258.932, 2111.221 3268.932, 2111.220 3278.932, 2111.220 3288.932, 2111.219 3298.932, 2111.219 3308.932, 2111.218 3313.426, 2111.218 3313.763, 2111.218 " />
            <path fill="none" stroke-width="3.0" stroke-linecap="butt" stroke-opacity="1.0" stroke="rgb(0, 0, 0)" stroke-linejoin="round" d=" M 3310.765, 2111.218 3310.914, 2111.218 3311.775, 2111.218 3312.614, 2111.218 3313.426, 2111.218 " />
            <path fill="none" stroke-width="3.0" stroke-linecap="butt" stroke-opacity="1.0" stroke="rgb(0, 0, 0)" stroke-linejoin="round" d=" M 4245.475, 1631.038 4243.214, 1629.656 4241.024, 1628.164 4238.912, 1626.563 4236.882, 1624.860 " />
            <path fill="none" stroke-width="3.0" stroke-linecap="butt" stroke-opacity="1.0" stroke="rgb(0, 0, 0)" stroke-linejoin="round" d=" M 3310.010, 2111.218 3310.032, 2111.218 3310.041, 2111.218 " />
            <path fill="none" stroke-width="3.0" stroke-linecap="butt" stroke-opacity="1.0" stroke="rgb(0, 0, 0)" stroke-linejoin="round" d=" M 3307.366, 2111.218 3308.217, 2111.218 3309.132, 2111.218 3309.863, 2111.218 3310.010, 2111.218 " />
            <path fill="none" stroke-width="3.0" stroke-linecap="butt" stroke-opacity="1.0" stroke="rgb(0, 0, 0)" stroke-linejoin="round" d=" M 3307.278, 2111.218 3307.290, 2111.218 3307.366, 2111.218 " />
            <path fill="none" stroke-width="3.0" stroke-linecap="butt" stroke-opacity="1.0" stroke="rgb(0, 0, 0)" stroke-linejoin="round" d=" M 3306.354, 2111.218 3306.750, 2111.218 " />
            <path fill="none" stroke-width="3.0" stroke-linecap="butt" stroke-opacity="1.0" stroke="rgb(0, 0, 0)" stroke-linejoin="round" d=" M 3108.932, 2111.228 3118.932, 2111.228 3128.932, 2111.227 3138.932, 2111.227 3148.932, 2111.226 3158.932, 2111.226 3168.932, 2111.225 3178.932, 2111.225 3188.932, 2111.224 3198.932, 2111.224 3208.932, 2111.223 3218.932, 2111.223 3228.932, 2111.222 3238.932, 2111.222 3248.932, 2111.221 3258.932, 2111.221 3268.932, 2111.220 3278.932, 2111.220 3288.932, 2111.219 3298.932, 2111.219 3305.411, 2111.218 3306.354, 2111.218 " />
            <path fill="none" stroke-width="3.0" stroke-linecap="butt" stroke-opacity="1.0" stroke="rgb(0, 0, 0)" stroke-linejoin="round" d=" M 4233.089, 1621.160 4231.336, 1619.174 4229.684, 1617.102 4228.137, 1614.950 4226.699, 1612.724 4225.375, 1610.430 " />
            <path fill="none" stroke-width="3.0" stroke-linecap="butt" stroke-opacity="1.0" stroke="rgb(0, 0, 0)" stroke-linejoin="round" d=" M 3143.125, 1584.527 3141.844, 1594.444 3140.561, 1604.362 3139.279, 1614.279 3137.997, 1624.197 3136.715, 1634.114 3135.433, 1644.032 3134.151, 1653.949 3132.869, 1663.867 3131.587, 1673.784 3130.305, 1683.702 3129.022, 1693.619 3127.740, 1703.537 3126.458, 1713.454 3125.176, 1723.372 3123.894, 1733.289 3122.612, 1743.207 3121.330, 1753.124 3120.048, 1763.041 3118.766, 1772.959 3117.484, 1782.876 3116.201, 1792.794 3114.919, 1802.711 3113.637, 1812.629 3112.355, 1822.546 3111.073, 1832.464 3109.791, 1842.381 3108.509, 1852.299 3107.227, 1862.216 3105.945, 1872.134 3104.663, 1882.051 3103.380, 1891.969 3102.098, 1901.886 3100.816, 1911.804 3099.534, 1921.721 3098.982, 1925.989 3099.519, 1935.974 3100.055, 1945.960 3100.592, 1955.946 3101.128, 1965.931 3101.664, 1975.917 3102.201, 1985.902 3102.737, 1995.888 3103.273, 2005.874 3103.810, 2015.859 3104.346, 2025.845 3104.882, 2035.830 3105.419, 2045.816 3105.955, 2055.802 3106.491, 2065.787 3107.028, 2075.773 3107.564, 2085.758 3108.101, 2095.744 3108.637, 2105.730 3108.932, 2111.228 " />
            <path fill="none" stroke-width="3.0" stroke-linecap="butt" stroke-opacity="1.0" stroke="rgb(0, 0, 0)" stroke-linejoin="round" d=" M 4223.075, 1605.656 4222.107, 1603.189 4221.263, 1600.678 4220.545, 1598.126 4219.956, 1595.543 4219.496, 1592.933 4219.166, 1590.304 4218.968, 1587.662 " />
            <path fill="none" stroke-width="3.0" stroke-linecap="butt" stroke-opacity="1.0" stroke="rgb(0, 0, 0)" stroke-linejoin="round" d=" M 4218.968, 1587.662 4218.902, 1585.012 4218.968, 1582.363 4219.166, 1579.721 4219.496, 1577.091 " />
            <path fill="none" stroke-width="3.0" stroke-linecap="butt" stroke-opacity="1.0" stroke="rgb(0, 0, 0)" stroke-linejoin="round" d=" M 4219.496, 1577.091 4219.956, 1574.482 " />
            <path fill="none" stroke-width="3.0" stroke-linecap="butt" stroke-opacity="1.0" stroke="rgb(0, 0, 0)" stroke-linejoin="round" d=" M 4219.956, 1574.482 4220.545, 1571.898 " />
            <path fill="none" stroke-width="3.0" stroke-linecap="butt" stroke-opacity="1.0" stroke="rgb(0, 0, 0)" stroke-linejoin="round" d=" M 4220.545, 1571.898 4221.263, 1569.347 " />
            <path fill="none" stroke-width="3.0" stroke-linecap="butt" stroke-opacity="1.0" stroke="rgb(0, 0, 0)" stroke-linejoin="round" d=" M 4221.263, 1569.347 4222.107, 1566.836 " />
            <path fill="none" stroke-width="3.0" stroke-linecap="butt" stroke-opacity="1.0" stroke="rgb(0, 0, 0)" stroke-linejoin="round" d=" M 4222.107, 1566.836 4223.075, 1564.369 4224.165, 1561.953 4225.375, 1559.595 4226.699, 1557.300 4228.137, 1555.074 4229.684, 1552.923 4231.336, 1550.851 4233.089, 1548.864 4234.939, 1546.967 " />
            <path fill="none" stroke-width="3.0" stroke-linecap="butt" stroke-opacity="1.0" stroke="rgb(0, 0, 0)" stroke-linejoin="round" d=" M 3477.424, 23.626 3477.254, 33.625 3477.085, 43.623 3476.916, 53.622 3476.747, 63.620 3476.578, 73.619 3476.409, 83.617 3476.240, 93.616 3476.070, 103.615 3475.901, 113.613 3475.732, 123.612 3475.563, 133.610 3475.394, 143.609 3475.234, 153.044 3472.110, 162.544 3468.986, 172.043 3465.863, 181.543 3462.739, 191.042 3459.615, 200.542 3458.387, 204.276 3460.237, 214.104 3462.087, 223.931 3463.937, 233.759 3465.787, 243.586 3467.637, 253.413 3469.488, 263.241 3471.338, 273.068 3473.188, 282.895 3475.038, 292.723 3476.888, 302.550 3478.738, 312.377 3480.588, 322.205 3482.438, 332.032 3484.289, 341.859 3486.139, 351.687 3486.692, 354.626 3480.450, 362.439 3474.208, 370.252 3467.967, 378.065 3461.725, 385.877 3455.483, 393.690 3449.241, 401.503 3445.260, 406.486 3441.060, 415.561 3436.859, 424.636 3432.659, 433.711 3428.459, 442.786 3424.259, 451.862 3420.058, 460.937 3415.858, 470.012 3411.658, 479.087 3407.458, 488.162 3403.258, 497.237 3399.057, 506.312 3394.857, 515.388 3390.657, 524.463 3386.457, 533.538 3382.256, 542.613 3378.056, 551.688 3373.856, 560.763 3369.656, 569.839 3365.456, 578.914 3361.255, 587.989 3357.055, 597.064 3352.855, 606.139 3348.655, 615.214 3344.455, 624.289 3340.254, 633.364 3336.054, 642.440 3331.854, 651.515 3327.654, 660.590 3323.453, 669.665 3319.253, 678.740 3315.053, 687.815 3310.853, 696.890 3306.653, 705.966 3302.452, 715.041 3298.252, 724.116 3294.052, 733.191 3289.852, 742.266 3285.651, 751.341 3281.451, 760.416 3277.251, 769.492 3273.051, 778.567 3268.851, 787.642 3264.650, 796.717 3260.450, 805.792 3256.250, 814.867 3252.050, 823.942 3247.850, 833.017 3243.649, 842.093 3239.449, 851.168 3234.770, 861.277 3233.751, 871.225 3232.732, 881.173 3231.713, 891.120 3230.694, 901.068 3229.675, 911.016 3228.656, 920.964 3227.637, 930.912 3226.618, 940.860 3225.599, 950.808 3224.580, 960.756 3223.561, 970.704 3222.542, 980.652 3221.523, 990.600 3220.504, 1000.548 3219.484, 1010.496 3218.465, 1020.444 3217.446, 1030.392 3216.427, 1040.340 3215.408, 1050.288 3214.389, 1060.235 3213.370, 1070.183 3212.351, 1080.131 3211.332, 1090.079 3210.313, 1100.027 3209.294, 1109.975 3208.275, 1119.923 3207.256, 1129.871 3206.237, 1139.819 3205.218, 1149.767 3204.198, 1159.715 3203.179, 1169.663 3202.160, 1179.611 3201.141, 1189.559 3200.122, 1199.507 3199.103, 1209.455 3198.084, 1219.403 3197.065, 1229.351 3196.046, 1239.298 3195.027, 1249.246 3194.008, 1259.194 3192.989, 1269.142 3191.970, 1279.090 3190.951, 1289.038 3189.932, 1298.986 3188.913, 1308.934 3187.894, 1318.882 3186.875, 1328.830 3185.855, 1338.778 3184.836, 1348.726 3183.817, 1358.674 3182.798, 1368.622 3181.779, 1378.570 3180.760, 1388.518 3179.741, 1398.466 3178.722, 1408.413 3177.703, 1418.361 3176.684, 1428.309 3175.665, 1438.257 3174.646, 1448.205 3173.599, 1458.422 3171.250, 1468.143 3168.901, 1477.863 3166.552, 1487.583 3164.204, 1497.303 3161.854, 1507.024 3159.506, 1516.744 3157.157, 1526.464 3154.808, 1536.184 3152.459, 1545.904 3150.110, 1555.625 3147.761, 1565.345 3145.412, 1575.065 3143.125, 1584.527 " />
            <path fill="none" stroke-width="3.0" stroke-linecap="butt" stroke-opacity="1.0" stroke="rgb(0, 0, 0)" stroke-linejoin="round" d=" M 4252.632, 1535.540 4255.122, 1534.634 4257.654, 1533.853 4260.222, 1533.199 4262.819, 1532.674 4265.439, 1532.279 4268.077, 1532.015 4270.723, 1531.883 4273.373, 1531.883 4276.020, 1532.015 4278.656, 1532.279 4281.277, 1532.674 " />
            <path fill="none" stroke-width="3.0" stroke-linecap="butt" stroke-opacity="1.0" stroke="rgb(0, 0, 0)" stroke-linejoin="round" d=" M 4250.189, 1536.570 4252.632, 1535.540 " />
            <path fill="none" stroke-width="3.0" stroke-linecap="butt" stroke-opacity="1.0" stroke="rgb(0, 0, 0)" stroke-linejoin="round" d=" M 4247.802, 1537.719 4250.189, 1536.570 " />
            <path fill="none" stroke-width="3.0" stroke-linecap="butt" stroke-opacity="1.0" stroke="rgb(0, 0, 0)" stroke-linejoin="round" d=" M 4245.475, 1538.987 4247.802, 1537.719 " />
            <path fill="none" stroke-width="3.0" stroke-linecap="butt" stroke-opacity="1.0" stroke="rgb(0, 0, 0)" stroke-linejoin="round" d=" M 4238.912, 1543.461 4241.024, 1541.861 4243.214, 1540.369 4245.475, 1538.987 " />
            <path fill="none" stroke-width="3.0" stroke-linecap="butt" stroke-opacity="1.0" stroke="rgb(0, 0, 0)" stroke-linejoin="round" d=" M 4236.882, 1545.165 4238.912, 1543.461 " />
            <path fill="none" stroke-width="3.0" stroke-linecap="butt" stroke-opacity="1.0" stroke="rgb(0, 0, 0)" stroke-linejoin="round" d=" M 4234.939, 1546.967 4236.882, 1545.165 " />
            <path fill="none" stroke-width="3.0" stroke-linecap="butt" stroke-opacity="1.0" stroke="rgb(0, 0, 0)" stroke-linejoin="round" d=" M 5459.183, 23.626 5449.183, 23.626 5439.183, 23.626 5429.183, 23.626 5419.183, 23.626 5409.183, 23.626 5399.183, 23.626 5389.183, 23.626 5379.183, 23.626 5368.607, 23.626 5367.112, 23.626 5365.603, 23.626 5364.084, 23.626 5362.562, 23.626 5361.042, 23.626 5359.530, 23.626 5349.530, 23.626 5339.530, 23.626 5329.530, 23.626 5319.530, 23.626 5309.530, 23.626 5299.530, 23.626 5289.530, 23.626 5279.530, 23.626 5269.530, 23.626 5259.530, 23.626 5249.530, 23.626 5239.530, 23.626 5229.530, 23.626 5219.530, 23.626 5209.530, 23.626 5199.530, 23.626 5189.530, 23.626 5179.530, 23.626 5169.530, 23.626 5159.530, 23.626 5149.530, 23.626 5139.530, 23.626 5129.530, 23.626 5119.530, 23.626 5109.530, 23.626 5099.530, 23.626 5089.530, 23.626 5079.530, 23.626 5069.530, 23.626 5059.530, 23.626 5049.530, 23.626 5039.530, 23.626 5029.530, 23.626 5019.530, 23.626 5009.530, 23.626 4999.530, 23.626 4989.530, 23.626 4979.530, 23.626 4969.530, 23.626 4959.530, 23.626 4949.530, 23.626 4939.530, 23.626 4929.530, 23.626 4919.530, 23.626 4909.530, 23.626 4899.530, 23.626 4889.530, 23.626 4879.530, 23.626 4869.530, 23.626 4859.530, 23.626 4849.530, 23.626 4839.530, 23.626 4829.530, 23.626 4819.530, 23.626 4809.530, 23.626 4799.530, 23.626 4789.530, 23.626 4779.530, 23.626 4769.530, 23.626 4759.530, 23.626 4749.530, 23.626 4739.530, 23.626 4729.530, 23.626 4719.530, 23.626 4709.530, 23.626 4699.530, 23.626 4689.530, 23.626 4679.530, 23.626 4669.530, 23.626 4659.530, 23.626 4649.530, 23.626 4639.530, 23.626 4629.530, 23.626 4619.530, 23.626 4606.821, 23.626 4599.848, 23.626 4592.963, 23.626 4586.189, 23.626 4579.549, 23.626 " />
            <path fill="none" stroke-width="3.0" stroke-linecap="butt" stroke-opacity="1.0" stroke="rgb(0, 0, 0)" stroke-linejoin="round" d=" M 1776.330, 2111.296 1777.198, 2111.296 " />
            <path fill="none" stroke-width="3.0" stroke-linecap="butt" stroke-opacity="1.0" stroke="rgb(0, 0, 0)" stroke-linejoin="round" d=" M 3650.485, 23.626 3647.637, 23.626 3637.637, 23.626 3627.637, 23.626 3617.637, 23.626 3607.637, 23.626 3597.637, 23.626 3587.637, 23.626 3577.637, 23.626 3567.637, 23.626 3557.637, 23.626 3547.637, 23.626 3537.637, 23.626 3527.637, 23.626 3517.637, 23.626 3507.637, 23.626 3497.637, 23.626 3487.637, 23.626 3477.424, 23.626 " />
            <path fill="none" stroke-width="3.0" stroke-linecap="butt" stroke-opacity="1.0" stroke="rgb(0, 0, 0)" stroke-linejoin="round" d=" M 3833.652, 23.626 3823.652, 23.631 3813.652, 23.635 3803.652, 23.640 3793.652, 23.645 3783.652, 23.649 3773.652, 23.654 3763.652, 23.658 3753.652, 23.663 3743.652, 23.667 3733.652, 23.672 3723.652, 23.677 3713.652, 23.681 3703.652, 23.686 3693.652, 23.690 3682.170, 23.696 3680.982, 23.717 3679.655, 23.717 3678.173, 23.718 3676.539, 23.718 3674.759, 23.718 3672.838, 23.719 3670.783, 23.719 3668.601, 23.719 3666.301, 23.720 3663.891, 23.720 3661.381, 23.721 3658.781, 23.721 3656.103, 23.722 3653.356, 23.722 " />
            <path fill="none" stroke-width="3.0" stroke-linecap="butt" stroke-opacity="1.0" stroke="rgb(0, 0, 0)" stroke-linejoin="round" d=" M 3653.356, 23.722 3650.485, 23.626 " />
            <path fill="none" stroke-width="3.0" stroke-linecap="butt" stroke-opacity="1.0" stroke="rgb(0, 0, 0)" stroke-linejoin="round" d=" M 1765.214, 2111.297 1772.790, 2111.296 1776.330, 2111.296 " />
            <path fill="none" stroke-width="3.0" stroke-linecap="butt" stroke-opacity="1.0" stroke="rgb(0, 0, 0)" stroke-linejoin="round" d=" M 4579.549, 23.626 4569.549, 23.626 4559.549, 23.627 4549.549, 23.627 4539.549, 23.628 4529.549, 23.629 4519.549, 23.629 4509.549, 23.630 4499.549, 23.630 4489.549, 23.631 4479.549, 23.631 4469.549, 23.632 4459.549, 23.632 4449.549, 23.633 4439.549, 23.633 4429.549, 23.634 4419.549, 23.634 4409.549, 23.635 4399.549, 23.635 4389.549, 23.636 4379.549, 23.636 4369.549, 23.637 4359.549, 23.637 4349.549, 23.638 4339.549, 23.638 4329.549, 23.639 4319.549, 23.639 4309.549, 23.640 4299.549, 23.641 4289.549, 23.641 4279.549, 23.642 4269.549, 23.642 4259.549, 23.643 4249.549, 23.643 4239.549, 23.644 4229.549, 23.644 4219.549, 23.645 4209.549, 23.645 4199.549, 23.646 4189.549, 23.646 4179.549, 23.647 4169.549, 23.647 4159.549, 23.648 4149.549, 23.648 4139.549, 23.649 4129.549, 23.649 4119.549, 23.650 4109.549, 23.650 4099.549, 23.651 4089.549, 23.651 4079.549, 23.652 4069.549, 23.653 4059.549, 23.653 4049.549, 23.654 4039.549, 23.654 4029.549, 23.655 4019.549, 23.655 4009.549, 23.656 3999.549, 23.656 3989.549, 23.657 3979.549, 23.657 3969.549, 23.658 3959.549, 23.658 3949.549, 23.659 3939.549, 23.659 3929.549, 23.660 3919.549, 23.660 3909.549, 23.661 3899.549, 23.661 3889.549, 23.662 3879.549, 23.662 3869.549, 23.663 3859.549, 23.663 3849.549, 23.664 3836.630, 23.665 3833.652, 23.626 " />
            <path fill="none" stroke-width="3.0" stroke-linecap="butt" stroke-opacity="1.0" stroke="rgb(0, 0, 0)" stroke-linejoin="round" d=" M 1323.638, 1157.184 1321.120, 1159.765 1318.476, 1162.218 1315.713, 1164.537 1312.838, 1166.715 1309.858, 1168.747 1306.780, 1170.628 1303.613, 1172.352 1300.362, 1173.917 1297.039, 1175.319 1293.650, 1176.552 1290.203, 1177.616 1286.708, 1178.505 1283.172, 1179.220 1279.606, 1179.757 1276.017, 1180.117 1272.415, 1180.296 1268.808, 1180.296 1265.205, 1180.117 1261.616, 1179.757 1258.050, 1179.220 1254.515, 1178.505 1251.020, 1177.616 1247.573, 1176.552 1244.183, 1175.319 1240.860, 1173.917 1237.610, 1172.352 1234.443, 1170.628 1231.365, 1168.747 1228.385, 1166.715 1225.510, 1164.537 1222.747, 1162.218 1220.103, 1159.765 1217.584, 1157.184 1215.197, 1154.479 1212.949, 1151.659 1210.843, 1148.731 1208.887, 1145.700 1207.083, 1142.577 1205.437, 1139.368 1203.954, 1136.080 1202.636, 1132.722 1201.487, 1129.303 1200.511, 1125.831 1199.708, 1122.315 1199.082, 1118.762 1198.633, 1115.184 1198.364, 1111.587 1198.274, 1107.982 1198.364, 1104.376 1198.633, 1100.779 1199.082, 1097.200 1199.708, 1093.648 1200.511, 1090.132 1201.487, 1086.660 1202.636, 1083.241 1203.954, 1079.883 1205.437, 1076.596 1207.083, 1073.386 1208.887, 1070.262 1210.843, 1067.233 1212.949, 1064.303 1215.197, 1061.483 1217.584, 1058.779 1220.103, 1056.197 1222.747, 1053.744 1225.510, 1051.426 1228.385, 1049.247 1231.365, 1047.216 1234.443, 1045.336 1237.610, 1043.610 1240.860, 1042.045 1244.183, 1040.645 1247.573, 1039.411 1251.020, 1038.348 1254.515, 1037.457 1258.050, 1036.743 1261.616, 1036.206 1265.205, 1035.847 1268.808, 1035.666 1272.415, 1035.666 1276.017, 1035.847 1279.606, 1036.206 1283.172, 1036.743 1286.708, 1037.457 1290.203, 1038.348 1293.650, 1039.411 1297.039, 1040.645 1300.362, 1042.045 1303.613, 1043.610 1306.780, 1045.336 1309.858, 1047.216 1312.838, 1049.247 1315.713, 1051.426 1318.476, 1053.744 1321.120, 1056.197 1323.638, 1058.779 1326.025, 1061.483 1328.274, 1064.303 1330.379, 1067.233 1332.336, 1070.262 1334.140, 1073.386 1335.785, 1076.596 1337.268, 1079.883 1338.586, 1083.241 1339.735, 1086.660 1340.712, 1090.132 1341.515, 1093.648 1342.141, 1097.200 1342.589, 1100.779 1342.859, 1104.376 1342.949, 1107.982 1342.859, 1111.587 1342.589, 1115.184 1342.141, 1118.762 1341.515, 1122.315 1340.712, 1125.831 1339.735, 1129.303 1338.586, 1132.722 1337.268, 1136.080 1335.785, 1139.368 1334.140, 1142.577 1332.336, 1145.700 1330.379, 1148.731 1328.274, 1151.659 1326.025, 1154.479 1323.638, 1157.184 " />
            <path fill="none" stroke-width="3.0" stroke-linecap="butt" stroke-opacity="1.0" stroke="rgb(0, 0, 0)" stroke-linejoin="round" d=" M 1741.181, 1761.247 1742.284, 1751.308 1743.388, 1741.370 1744.491, 1731.431 1745.595, 1721.492 1746.698, 1711.553 1747.801, 1701.614 1748.905, 1691.675 1750.008, 1681.736 1751.112, 1671.797 1752.215, 1661.858 1753.318, 1651.919 1754.422, 1641.980 1755.525, 1632.041 1756.629, 1622.102 1757.732, 1612.163 1758.835, 1602.224 1759.939, 1592.285 1761.042, 1582.346 1762.146, 1572.408 1763.249, 1562.469 1764.352, 1552.530 1765.456, 1542.591 1766.559, 1532.652 1767.662, 1522.713 1768.766, 1512.774 1769.869, 1502.835 1770.973, 1492.896 1772.076, 1482.957 1773.179, 1473.018 1774.283, 1463.079 1775.386, 1453.140 1776.490, 1443.201 1777.593, 1433.262 1778.696, 1423.323 1779.800, 1413.385 1780.903, 1403.446 1782.006, 1393.507 1783.110, 1383.568 1784.213, 1373.629 1785.317, 1363.690 1786.420, 1353.751 1787.523, 1343.812 1788.627, 1333.873 1789.730, 1323.934 1790.834, 1313.995 1791.937, 1304.056 1793.040, 1294.117 1794.144, 1284.178 1795.247, 1274.239 1796.351, 1264.300 1797.454, 1254.361 1798.557, 1244.423 1799.661, 1234.484 1800.764, 1224.545 1801.868, 1214.606 1802.971, 1204.667 1804.074, 1194.728 1805.178, 1184.789 1806.281, 1174.850 1807.385, 1164.911 1808.488, 1154.972 1809.591, 1145.033 1810.695, 1135.094 1811.798, 1125.155 1812.901, 1115.216 1814.005, 1105.277 1815.108, 1095.338 1816.212, 1085.400 1817.315, 1075.461 1818.418, 1065.522 1819.522, 1055.583 1820.625, 1045.644 1821.729, 1035.705 1822.832, 1025.766 1823.935, 1015.827 1825.039, 1005.888 1826.342, 994.151 1826.852, 984.164 1827.361, 974.177 1827.871, 964.190 1828.381, 954.203 1828.891, 944.216 1829.401, 934.229 1829.911, 924.242 1830.421, 914.255 1830.930, 904.268 1831.440, 894.281 1831.950, 884.294 1832.460, 874.307 1832.970, 864.320 1833.479, 854.333 1833.989, 844.346 1834.499, 834.359 1835.009, 824.372 1835.519, 814.385 1836.029, 804.398 1836.539, 794.411 1837.048, 784.424 1837.558, 774.438 1838.068, 764.450 1838.578, 754.464 1839.088, 744.477 1839.598, 734.490 1840.107, 724.503 1840.617, 714.516 1841.127, 704.529 1841.637, 694.542 1842.147, 684.555 1842.657, 674.568 1843.167, 664.581 1843.676, 654.594 1844.186, 644.607 1844.696, 634.620 1845.206, 624.633 1845.716, 614.646 1846.226, 604.659 1846.735, 594.672 1847.245, 584.685 1847.755, 574.698 1848.265, 564.711 1848.775, 554.724 1849.285, 544.737 1849.794, 534.750 1850.304, 524.763 1850.814, 514.776 1851.324, 504.789 1851.834, 494.802 1852.344, 484.815 1852.854, 474.828 1853.363, 464.841 1853.873, 454.854 1854.383, 444.867 1854.893, 434.880 1855.403, 424.893 1855.912, 414.906 1856.422, 404.919 1856.932, 394.932 1857.442, 384.945 1857.952, 374.958 1858.462, 364.971 1858.972, 354.984 1859.481, 344.997 1859.991, 335.010 1860.501, 325.023 1861.011, 315.036 1861.521, 305.049 1862.031, 295.062 1862.540, 285.075 1863.050, 275.088 1863.560, 265.101 1864.070, 255.114 1864.580, 245.127 1865.090, 235.140 1865.599, 225.153 1866.109, 215.166 1866.619, 205.179 1867.129, 195.192 1867.639, 185.205 1868.149, 175.218 1868.752, 163.397 1869.541, 153.428 1870.329, 143.459 1871.118, 133.491 1871.906, 123.522 1872.695, 113.553 1873.483, 103.584 1874.272, 93.615 1875.060, 83.646 1875.849, 73.677 1876.637, 63.708 1877.426, 53.740 1878.214, 43.771 1879.003, 33.802 1879.808, 23.626 " />
            <path fill="none" stroke-width="3.0" stroke-linecap="butt" stroke-opacity="1.0" stroke="rgb(0, 0, 0)" stroke-linejoin="round" d=" M 1777.198, 2111.296 1776.438, 2107.524 1775.425, 2097.576 1774.412, 2087.627 1773.399, 2077.678 1772.386, 2067.730 1771.373, 2057.781 1770.360, 2047.833 1769.347, 2037.884 1768.334, 2027.936 1767.322, 2017.987 1766.309, 2008.038 1765.296, 1998.090 1764.283, 1988.141 1763.270, 1978.193 1762.257, 1968.244 1761.244, 1958.296 1760.231, 1948.347 1759.218, 1938.399 1758.205, 1928.450 1757.192, 1918.501 1756.179, 1908.553 1755.166, 1898.604 1754.153, 1888.656 1753.140, 1878.707 1752.127, 1868.759 1751.115, 1858.810 1750.102, 1848.861 1749.089, 1838.913 1748.076, 1828.964 1747.063, 1819.016 1746.050, 1809.067 1745.037, 1799.119 1744.024, 1789.170 1743.011, 1779.221 1741.998, 1769.273 1741.181, 1761.247 " />
            <path fill="none" stroke-width="3.0" stroke-linecap="butt" stroke-opacity="1.0" stroke="rgb(0, 0, 0)" stroke-linejoin="round" d=" M 1879.808, 23.626 1869.808, 23.626 1859.808, 23.626 1849.808, 23.626 1839.808, 23.626 1829.808, 23.626 1819.808, 23.626 1809.808, 23.626 1799.808, 23.626 1789.808, 23.626 1779.808, 23.626 1769.808, 23.626 1759.808, 23.626 1749.808, 23.626 1739.808, 23.626 1729.808, 23.626 1719.808, 23.626 1709.808, 23.626 1699.808, 23.626 1689.808, 23.626 1679.808, 23.626 1669.808, 23.626 1659.808, 23.626 1649.808, 23.626 1639.808, 23.626 1629.808, 23.626 1619.808, 23.626 1609.808, 23.626 1599.808, 23.626 1589.808, 23.626 1579.808, 23.626 1569.808, 23.626 1559.808, 23.626 1549.808, 23.626 1539.808, 23.626 1529.808, 23.626 1519.808, 23.626 1509.808, 23.626 1499.808, 23.626 1489.808, 23.626 1479.808, 23.626 1469.808, 23.626 1459.808, 23.626 1449.808, 23.626 1439.808, 23.626 1429.808, 23.626 1419.808, 23.626 1409.808, 23.626 1399.808, 23.626 1389.808, 23.626 1379.808, 23.626 1369.808, 23.626 1359.808, 23.626 1349.808, 23.626 1339.808, 23.626 1329.808, 23.626 1319.808, 23.626 1309.808, 23.626 1299.808, 23.626 1289.808, 23.626 1279.808, 23.626 1269.808, 23.626 1259.808, 23.626 1249.808, 23.626 1239.808, 23.626 1229.808, 23.626 1219.808, 23.626 1209.808, 23.626 1199.808, 23.626 1189.808, 23.626 1179.808, 23.626 1169.808, 23.626 1159.808, 23.626 1149.808, 23.626 1139.808, 23.626 1129.808, 23.626 1119.808, 23.626 1109.808, 23.626 1099.808, 23.626 1089.808, 23.626 1079.808, 23.626 1069.808, 23.626 1059.808, 23.626 1049.808, 23.626 1039.808, 23.626 1029.808, 23.626 1019.808, 23.626 1009.808, 23.626 999.808, 23.626 989.808, 23.626 979.808, 23.626 969.808, 23.626 959.808, 23.626 949.808, 23.626 939.808, 23.626 929.808, 23.626 919.808, 23.626 909.808, 23.626 899.808, 23.626 889.808, 23.626 879.808, 23.626 869.808, 23.626 859.808, 23.626 849.808, 23.626 839.808, 23.626 829.808, 23.626 819.808, 23.626 809.808, 23.626 799.808, 23.626 789.808, 23.626 779.808, 23.626 769.808, 23.626 759.808, 23.626 749.808, 23.626 739.808, 23.626 729.808, 23.626 719.808, 23.626 709.808, 23.626 699.808, 23.626 689.808, 23.626 679.808, 23.626 669.808, 23.626 659.808, 23.626 649.808, 23.626 639.808, 23.626 629.808, 23.626 619.808, 23.626 609.808, 23.626 599.808, 23.626 589.808, 23.626 579.808, 23.626 569.808, 23.626 559.808, 23.626 549.808, 23.626 539.808, 23.626 529.808, 23.626 519.808, 23.626 509.808, 23.626 499.808, 23.626 489.808, 23.626 479.808, 23.626 469.808, 23.626 459.808, 23.626 449.808, 23.626 439.808, 23.626 429.808, 23.626 419.808, 23.626 409.808, 23.626 399.808, 23.626 389.808, 23.626 379.808, 23.626 369.808, 23.626 359.808, 23.626 349.808, 23.626 339.808, 23.626 329.808, 23.626 319.808, 23.626 309.808, 23.626 299.808, 23.626 289.808, 23.626 279.808, 23.626 269.808, 23.626 259.808, 23.626 249.808, 23.626 239.808, 23.626 229.808, 23.626 219.808, 23.626 209.808, 23.626 199.808, 23.626 189.808, 23.626 179.808, 23.626 169.808, 23.626 159.808, 23.626 139.363, 23.626 131.622, 23.626 131.574, 25.122 130.988, 35.105 130.402, 45.088 129.817, 55.070 129.231, 65.053 128.645, 75.036 128.060, 85.019 127.474, 95.002 126.888, 104.984 126.302, 114.967 125.717, 124.950 125.131, 134.933 124.545, 144.916 123.959, 154.899 123.374, 164.881 122.788, 174.864 122.202, 184.847 121.616, 194.830 121.031, 204.813 120.445, 214.796 119.859, 224.778 119.274, 234.761 118.688, 244.744 118.102, 254.727 117.516, 264.710 116.931, 274.693 116.345, 284.676 115.759, 294.658 115.173, 304.641 114.588, 314.624 114.002, 324.607 113.416, 334.590 112.830, 344.573 112.245, 354.555 111.659, 364.538 111.073, 374.521 110.488, 384.504 109.902, 394.487 109.316, 404.469 108.730, 414.452 108.145, 424.435 107.559, 434.418 106.973, 444.401 106.387, 454.384 105.802, 464.366 105.216, 474.349 104.512, 486.343 104.937, 496.333 105.361, 506.324 105.785, 516.315 106.210, 526.306 106.634, 536.297 107.058, 546.288 107.483, 556.279 107.907, 566.270 108.331, 576.261 108.756, 586.252 109.180, 596.243 109.604, 606.234 110.029, 616.225 110.453, 626.216 110.878, 636.207 111.302, 646.198 111.726, 656.189 112.151, 666.180 112.575, 676.171 112.999, 686.162 113.424, 696.153 113.848, 706.144 114.272, 716.135 114.697, 726.126 115.121, 736.117 115.545, 746.108 115.970, 756.099 116.394, 766.090 116.544, 769.621 115.411, 779.556 114.277, 789.492 113.144, 799.427 112.010, 809.363 110.877, 819.298 109.744, 829.234 108.610, 839.170 107.477, 849.105 106.343, 859.041 105.210, 868.976 104.076, 878.912 102.943, 888.847 101.810, 898.783 100.676, 908.719 99.543, 918.654 98.409, 928.590 97.276, 938.525 96.143, 948.461 95.009, 958.396 93.876, 968.332 92.742, 978.267 91.609, 988.203 90.476, 998.139 89.342, 1008.074 88.209, 1018.010 87.075, 1027.945 85.942, 1037.881 84.808, 1047.816 83.675, 1057.752 82.542, 1067.688 81.408, 1077.623 80.275, 1087.559 79.141, 1097.494 78.008, 1107.430 76.875, 1117.365 75.741, 1127.301 74.608, 1137.236 73.474, 1147.172 72.341, 1157.108 71.207, 1167.043 70.074, 1176.979 68.941, 1186.914 67.807, 1196.850 66.674, 1206.785 65.540, 1216.721 64.407, 1226.656 63.274, 1236.592 62.140, 1246.528 61.007, 1256.463 59.873, 1266.399 58.740, 1276.334 57.606, 1286.270 56.473, 1296.205 55.340, 1306.141 54.206, 1316.077 53.073, 1326.012 51.939, 1335.948 50.806, 1345.883 49.673, 1355.819 48.539, 1365.754 47.406, 1375.690 46.272, 1385.625 45.139, 1395.561 44.006, 1405.497 42.872, 1415.432 41.739, 1425.368 40.605, 1435.303 39.472, 1445.239 38.338, 1455.174 37.205, 1465.110 36.072, 1475.045 34.938, 1484.981 33.805, 1494.917 32.671, 1504.852 31.538, 1514.788 30.405, 1524.723 29.271, 1534.659 28.138, 1544.594 27.004, 1554.530 25.871, 1564.466 23.837, 1582.294 " />
            <path fill="none" stroke-width="3.0" stroke-linecap="butt" stroke-opacity="1.0" stroke="rgb(0, 0, 0)" stroke-linejoin="round" d=" M 3922.321, 453.064 3919.803, 455.646 3917.159, 458.100 3914.396, 460.418 3911.521, 462.596 3908.541, 464.628 3905.463, 466.509 3902.295, 468.234 3899.046, 469.798 3895.722, 471.200 3892.333, 472.433 3888.886, 473.497 3885.391, 474.387 3881.855, 475.101 3878.289, 475.639 3874.700, 475.998 3871.098, 476.178 3867.491, 476.178 3863.888, 475.998 3860.300, 475.639 3856.733, 475.101 3853.198, 474.387 3849.702, 473.497 3846.256, 472.433 3842.866, 471.200 3839.543, 469.798 3836.293, 468.234 3833.125, 466.509 3830.048, 464.628 3827.068, 462.596 3824.193, 460.418 3821.430, 458.100 3818.786, 455.646 3816.267, 453.064 3813.880, 450.360 3811.632, 447.541 3809.526, 444.612 3807.570, 441.582 3805.766, 438.458 3804.121, 435.249 3802.637, 431.962 3801.319, 428.604 3800.170, 425.185 3799.194, 421.712 3798.391, 418.196 3797.765, 414.644 3797.316, 411.065 3797.047, 407.469 3796.957, 403.863 3797.047, 400.257 3797.316, 396.660 3797.765, 393.081 3798.391, 389.529 3799.194, 386.013 3800.170, 382.541 3801.319, 379.122 3802.637, 375.765 3804.121, 372.477 3805.766, 369.267 3807.570, 366.144 3809.526, 363.113 3811.632, 360.186 3813.880, 357.366 3816.267, 354.661 3818.786, 352.079 3821.430, 349.626 3824.193, 347.307 3827.068, 345.130 3830.048, 343.097 3833.125, 341.216 3836.293, 339.492 3839.543, 337.927 3842.866, 336.526 3846.256, 335.292 3849.702, 334.229 3853.198, 333.339 3856.733, 332.624 3860.300, 332.086 3863.888, 331.727 3867.491, 331.548 3871.098, 331.548 3874.700, 331.727 3878.289, 332.086 3881.855, 332.624 3885.391, 333.339 3888.886, 334.229 3892.333, 335.292 3895.722, 336.526 3899.046, 337.927 3902.295, 339.492 3905.463, 341.216 3908.541, 343.097 3911.521, 345.130 3914.396, 347.307 3917.159, 349.626 3919.803, 352.079 3922.321, 354.661 3924.708, 357.366 3926.957, 360.186 3929.062, 363.113 3931.019, 366.144 3932.823, 369.267 3934.468, 372.477 3935.952, 375.765 3937.269, 379.122 3938.418, 382.541 3939.395, 386.013 3940.197, 389.529 3940.823, 393.081 3941.272, 396.660 3941.542, 400.257 3941.632, 403.863 3941.542, 407.469 3941.272, 411.065 3940.823, 414.644 3940.197, 418.196 3939.395, 421.712 3938.418, 425.185 3937.269, 428.604 3935.952, 431.962 3934.468, 435.249 3932.823, 438.458 3931.019, 441.582 3929.062, 444.612 3926.957, 447.541 3924.708, 450.360 3922.321, 453.064 " />
            <path fill="none" stroke-width="3.0" stroke-linecap="butt" stroke-opacity="1.0" stroke="rgb(0, 0, 0)" stroke-linejoin="round" d=" M 1765.214, 2111.297 1755.214, 2111.297 1745.214, 2111.298 1735.214, 2111.298 1725.214, 2111.299 1715.214, 2111.299 1705.214, 2111.300 1695.214, 2111.300 1685.214, 2111.301 1675.214, 2111.301 1665.214, 2111.302 1655.214, 2111.302 1645.214, 2111.303 1635.214, 2111.303 1625.214, 2111.304 1615.214, 2111.304 1605.214, 2111.305 1595.214, 2111.305 1585.214, 2111.306 1575.214, 2111.306 1565.214, 2111.307 1555.214, 2111.307 1545.214, 2111.308 1535.214, 2111.308 1525.214, 2111.309 1515.214, 2111.309 1505.214, 2111.310 1495.214, 2111.310 1485.214, 2111.311 1475.214, 2111.311 1465.214, 2111.312 1455.214, 2111.312 1445.214, 2111.313 1435.214, 2111.313 1425.214, 2111.314 1415.214, 2111.314 1405.214, 2111.315 1395.214, 2111.315 1385.214, 2111.316 1375.214, 2111.316 1365.214, 2111.317 1355.214, 2111.317 1345.214, 2111.318 1335.214, 2111.318 1325.214, 2111.319 1315.214, 2111.319 1305.214, 2111.320 1295.214, 2111.320 1285.214, 2111.321 1275.214, 2111.321 1265.214, 2111.322 1255.214, 2111.322 1245.214, 2111.323 1235.214, 2111.323 1225.214, 2111.324 1215.214, 2111.325 1205.214, 2111.325 1195.214, 2111.326 1185.214, 2111.326 1175.214, 2111.327 1165.214, 2111.327 1155.214, 2111.328 1145.214, 2111.328 1135.214, 2111.329 1125.214, 2111.329 1115.214, 2111.330 1105.214, 2111.330 1095.214, 2111.331 1085.214, 2111.331 1075.214, 2111.332 1065.214, 2111.332 1055.214, 2111.333 1045.214, 2111.333 1035.214, 2111.334 1025.214, 2111.334 1015.214, 2111.335 1005.214, 2111.335 995.214, 2111.336 985.214, 2111.336 975.214, 2111.337 965.214, 2111.337 955.214, 2111.338 945.214, 2111.338 935.214, 2111.339 925.214, 2111.339 915.214, 2111.340 905.214, 2111.340 895.214, 2111.341 885.214, 2111.341 875.214, 2111.342 865.214, 2111.342 855.214, 2111.343 845.214, 2111.343 835.214, 2111.344 825.214, 2111.344 815.214, 2111.345 805.214, 2111.345 795.214, 2111.346 785.214, 2111.346 775.214, 2111.347 765.214, 2111.347 755.214, 2111.348 745.214, 2111.348 735.214, 2111.349 725.214, 2111.349 715.214, 2111.350 705.214, 2111.350 695.214, 2111.351 685.214, 2111.351 675.214, 2111.352 665.214, 2111.352 655.214, 2111.353 645.214, 2111.353 635.214, 2111.354 625.214, 2111.354 615.214, 2111.355 605.214, 2111.355 595.214, 2111.356 585.214, 2111.357 575.214, 2111.357 565.214, 2111.358 555.214, 2111.358 545.214, 2111.359 535.214, 2111.359 525.214, 2111.360 515.214, 2111.360 505.214, 2111.361 495.214, 2111.361 485.214, 2111.362 475.214, 2111.362 465.214, 2111.363 455.214, 2111.363 445.214, 2111.364 435.214, 2111.364 425.214, 2111.365 415.214, 2111.365 405.214, 2111.366 395.214, 2111.366 385.214, 2111.367 375.214, 2111.367 365.214, 2111.368 355.214, 2111.368 345.214, 2111.369 335.214, 2111.369 325.214, 2111.370 315.214, 2111.370 305.214, 2111.371 295.214, 2111.371 285.214, 2111.372 275.214, 2111.372 265.214, 2111.373 255.214, 2111.373 245.214, 2111.374 235.214, 2111.374 225.214, 2111.375 215.214, 2111.375 205.214, 2111.376 195.214, 2111.376 185.214, 2111.377 175.214, 2111.377 165.214, 2111.378 155.214, 2111.378 145.214, 2111.379 135.214, 2111.379 125.214, 2111.380 115.214, 2111.380 105.214, 2111.381 95.214, 2111.381 85.214, 2111.382 75.214, 2111.382 65.214, 2111.383 55.214, 2111.383 33.071, 2111.385 " />
            <path fill="none" stroke-width="3.0" stroke-linecap="butt" stroke-opacity="1.0" stroke="rgb(0, 0, 0)" stroke-linejoin="round" d=" M 23.837, 1582.294 24.012, 1592.293 24.186, 1602.291 24.360, 1612.290 24.535, 1622.288 24.709, 1632.287 24.884, 1642.285 25.058, 1652.284 25.233, 1662.282 25.407, 1672.281 25.582, 1682.279 25.756, 1692.278 25.931, 1702.276 26.105, 1712.275 26.280, 1722.273 26.454, 1732.272 26.629, 1742.270 26.803, 1752.269 26.978, 1762.267 27.152, 1772.266 27.327, 1782.264 27.501, 1792.262 27.676, 1802.261 27.850, 1812.259 28.025, 1822.258 28.199, 1832.256 28.374, 1842.255 28.548, 1852.253 28.723, 1862.252 28.897, 1872.250 29.072, 1882.249 29.246, 1892.247 29.421, 1902.246 29.595, 1912.244 29.770, 1922.243 29.944, 1932.241 30.119, 1942.240 30.293, 1952.238 30.468, 1962.237 30.642, 1972.235 30.817, 1982.234 30.991, 1992.232 31.166, 2002.231 31.340, 2012.229 31.515, 2022.227 31.689, 2032.226 31.864, 2042.224 32.038, 2052.223 32.213, 2062.221 32.387, 2072.220 32.562, 2082.218 32.736, 2092.217 32.911, 2102.215 33.071, 2111.385 " />
            <path fill="none" stroke-width="3.0" stroke-linecap="butt" stroke-opacity="1.0" stroke="rgb(0, 0, 0)" stroke-linejoin="round" d=" M 33.071, 2111.385 43.071, 2111.384 53.071, 2111.384 63.071, 2111.383 73.071, 2111.383 83.071, 2111.382 93.071, 2111.382 103.071, 2111.381 113.071, 2111.380 123.071, 2111.380 133.071, 2111.379 143.071, 2111.379 153.071, 2111.378 163.071, 2111.378 173.071, 2111.377 183.071, 2111.377 193.071, 2111.376 203.071, 2111.376 213.071, 2111.375 223.071, 2111.375 233.071, 2111.374 243.071, 2111.374 253.071, 2111.373 263.071, 2111.373 273.071, 2111.372 283.071, 2111.372 293.071, 2111.371 303.071, 2111.371 313.071, 2111.370 323.071, 2111.370 333.071, 2111.369 343.071, 2111.369 353.071, 2111.368 363.071, 2111.368 373.071, 2111.367 383.071, 2111.367 393.071, 2111.366 403.071, 2111.366 413.071, 2111.365 423.071, 2111.365 433.071, 2111.364 443.071, 2111.364 453.071, 2111.363 463.071, 2111.363 473.071, 2111.362 483.071, 2111.362 493.071, 2111.361 503.071, 2111.361 513.071, 2111.360 523.071, 2111.360 533.071, 2111.359 543.071, 2111.359 553.071, 2111.358 563.071, 2111.358 573.071, 2111.357 583.071, 2111.357 593.071, 2111.356 603.071, 2111.356 613.071, 2111.355 623.071, 2111.355 633.071, 2111.354 643.071, 2111.354 653.071, 2111.353 663.071, 2111.353 673.071, 2111.352 683.071, 2111.352 693.071, 2111.351 703.071, 2111.351 713.071, 2111.350 723.071, 2111.350 733.071, 2111.349 743.071, 2111.348 753.071, 2111.348 763.071, 2111.347 773.071, 2111.347 783.071, 2111.346 793.071, 2111.346 803.071, 2111.345 813.071, 2111.345 823.071, 2111.344 833.071, 2111.344 843.071, 2111.343 853.071, 2111.343 863.071, 2111.342 873.071, 2111.342 883.071, 2111.341 893.071, 2111.341 903.071, 2111.340 913.071, 2111.340 923.071, 2111.339 933.071, 2111.339 943.071, 2111.338 953.071, 2111.338 963.071, 2111.337 973.071, 2111.337 983.071, 2111.336 993.071, 2111.336 1003.071, 2111.335 1013.071, 2111.335 1023.071, 2111.334 1033.071, 2111.334 1043.071, 2111.333 1053.071, 2111.333 1063.071, 2111.332 1073.071, 2111.332 1083.071, 2111.331 1093.071, 2111.331 1103.071, 2111.330 1113.071, 2111.330 1123.071, 2111.329 1133.071, 2111.329 1143.071, 2111.328 1153.071, 2111.328 1163.071, 2111.327 1173.071, 2111.327 1183.071, 2111.326 1193.071, 2111.326 1203.071, 2111.325 1213.071, 2111.325 1223.071, 2111.324 1233.071, 2111.324 1243.071, 2111.323 1253.071, 2111.323 1263.071, 2111.322 1273.071, 2111.322 1283.071, 2111.321 1293.071, 2111.321 1303.071, 2111.320 1313.071, 2111.320 1323.071, 2111.319 1333.071, 2111.319 1343.071, 2111.318 1353.071, 2111.318 1363.071, 2111.317 1373.071, 2111.316 1383.071, 2111.316 1393.071, 2111.315 1403.071, 2111.315 1413.071, 2111.314 1423.071, 2111.314 1433.071, 2111.313 1443.071, 2111.313 1453.071, 2111.312 1463.071, 2111.312 1473.071, 2111.311 1483.071, 2111.311 1493.071, 2111.310 1503.071, 2111.310 1513.071, 2111.309 1523.071, 2111.309 1533.071, 2111.308 1543.071, 2111.308 1553.071, 2111.307 1563.071, 2111.307 1573.071, 2111.306 1583.071, 2111.306 1593.071, 2111.305 1603.071, 2111.305 1613.071, 2111.304 1623.071, 2111.304 1633.071, 2111.303 1643.071, 2111.303 1653.071, 2111.302 1663.071, 2111.302 1673.071, 2111.301 1683.071, 2111.301 1693.071, 2111.300 1703.071, 2111.300 1713.071, 2111.299 1723.071, 2111.299 1733.071, 2111.298 1743.071, 2111.298 1765.214, 2111.297 " />
            <path fill="none" stroke-width="3.0" stroke-linecap="butt" stroke-opacity="1.0" stroke="rgb(0, 0, 0)" stroke-linejoin="round" d=" M 1772.790, 2111.296 1777.198, 2111.296 " />
            <path fill="none" stroke-width="3.0" stroke-linecap="butt" stroke-opacity="1.0" stroke="rgb(0, 0, 0)" stroke-linejoin="round" d=" M 3108.932, 2111.228 3118.932, 2111.228 3128.932, 2111.227 3138.932, 2111.227 3148.932, 2111.226 3158.932, 2111.226 3168.932, 2111.225 3178.932, 2111.225 3188.932, 2111.224 3198.932, 2111.224 3208.932, 2111.223 3218.932, 2111.223 3228.932, 2111.222 3238.932, 2111.222 3248.932, 2111.221 3258.932, 2111.221 3268.932, 2111.220 3278.932, 2111.220 3288.932, 2111.219 3298.932, 2111.219 3306.354, 2111.218 " />
            <path fill="none" stroke-width="3.0" stroke-linecap="butt" stroke-opacity="1.0" stroke="rgb(0, 0, 0)" stroke-linejoin="round" d=" M 3108.932, 2111.228 3118.932, 2111.228 3128.932, 2111.227 3138.932, 2111.227 3148.932, 2111.226 3158.932, 2111.226 3168.932, 2111.225 3178.932, 2111.225 3188.932, 2111.224 3198.932, 2111.224 3208.932, 2111.223 3218.932, 2111.223 3228.932, 2111.222 3238.932, 2111.222 3248.932, 2111.221 3258.932, 2111.221 3268.932, 2111.220 3278.932, 2111.220 3288.932, 2111.219 3298.932, 2111.219 3306.354, 2111.218 " />
            <path fill="none" stroke-width="3.0" stroke-linecap="butt" stroke-opacity="1.0" stroke="rgb(0, 0, 0)" stroke-linejoin="round" d=" M 3306.865, 2111.218 3306.888, 2111.218 3307.278, 2111.218 " />
            <path fill="none" stroke-width="3.0" stroke-linecap="butt" stroke-opacity="1.0" stroke="rgb(0, 0, 0)" stroke-linejoin="round" d=" M 3306.861, 2111.218 3306.865, 2111.218 " />
            <path fill="none" stroke-width="3.0" stroke-linecap="butt" stroke-opacity="1.0" stroke="rgb(0, 0, 0)" stroke-linejoin="round" d=" M 3306.761, 2111.218 3306.778, 2111.218 3306.819, 2111.218 3306.857, 2111.218 3306.861, 2111.218 " />
            <path fill="none" stroke-width="3.0" stroke-linecap="butt" stroke-opacity="1.0" stroke="rgb(0, 0, 0)" stroke-linejoin="round" d=" M 3306.759, 2111.218 3306.761, 2111.218 " />
            <path fill="none" stroke-width="3.0" stroke-linecap="butt" stroke-opacity="1.0" stroke="rgb(0, 0, 0)" stroke-linejoin="round" d=" M 3306.750, 2111.218 3306.759, 2111.218 " />
            <path fill="none" stroke-width="3.0" stroke-linecap="butt" stroke-opacity="1.0" stroke="rgb(0, 0, 0)" stroke-linejoin="round" d=" M 3310.705, 2111.218 3310.765, 2111.218 " />
            <path fill="none" stroke-width="3.0" stroke-linecap="butt" stroke-opacity="1.0" stroke="rgb(0, 0, 0)" stroke-linejoin="round" d=" M 3310.693, 2111.218 3310.705, 2111.218 " />
            <path fill="none" stroke-width="3.0" stroke-linecap="butt" stroke-opacity="1.0" stroke="rgb(0, 0, 0)" stroke-linejoin="round" d=" M 3310.041, 2111.218 3310.066, 2111.218 3310.312, 2111.218 3310.582, 2111.218 3310.693, 2111.218 " />
            <path fill="none" stroke-width="3.0" stroke-linecap="butt" stroke-opacity="1.0" stroke="rgb(0, 0, 0)" stroke-linejoin="round" d=" M 3313.860, 2111.218 3313.879, 2111.218 3314.208, 2111.218 " />
            <path fill="none" stroke-width="3.0" stroke-linecap="butt" stroke-opacity="1.0" stroke="rgb(0, 0, 0)" stroke-linejoin="round" d=" M 3313.856, 2111.218 3313.860, 2111.218 " />
            <path fill="none" stroke-width="3.0" stroke-linecap="butt" stroke-opacity="1.0" stroke="rgb(0, 0, 0)" stroke-linejoin="round" d=" M 3313.772, 2111.218 3313.786, 2111.218 3313.821, 2111.218 3313.853, 2111.218 3313.856, 2111.218 " />
            <path fill="none" stroke-width="3.0" stroke-linecap="butt" stroke-opacity="1.0" stroke="rgb(0, 0, 0)" stroke-linejoin="round" d=" M 3313.771, 2111.218 3313.772, 2111.218 " />
            <path fill="none" stroke-width="3.0" stroke-linecap="butt" stroke-opacity="1.0" stroke="rgb(0, 0, 0)" stroke-linejoin="round" d=" M 3313.763, 2111.218 3313.771, 2111.218 " />
            <path fill="none" stroke-width="3.0" stroke-linecap="butt" stroke-opacity="1.0" stroke="rgb(0, 0, 0)" stroke-linejoin="round" d=" M 3307.366, 2111.218 3307.278, 2111.218 " />
            <path fill="none" stroke-width="3.0" stroke-linecap="butt" stroke-opacity="1.0" stroke="rgb(0, 0, 0)" stroke-linejoin="round" d=" M 3313.853, 2111.218 3317.002, 2111.218 " />
            <path fill="none" stroke-width="3.0" stroke-linecap="butt" stroke-opacity="1.0" stroke="rgb(0, 0, 0)" stroke-linejoin="round" d=" M 3306.857, 2111.218 3310.066, 2111.218 " />
            <path fill="none" stroke-width="3.0" stroke-linecap="butt" stroke-opacity="1.0" stroke="rgb(0, 0, 0)" stroke-linejoin="round" d=" M 3316.944, 2111.218 3316.976, 2111.218 " />
            <path fill="none" stroke-width="3.0" stroke-linecap="butt" stroke-opacity="1.0" stroke="rgb(0, 0, 0)" stroke-linejoin="round" d=" M 4224.165, 1608.071 4223.075, 1605.656 " />
            <path fill="none" stroke-width="3.0" stroke-linecap="butt" stroke-opacity="1.0" stroke="rgb(0, 0, 0)" stroke-linejoin="round" d=" M 4225.375, 1610.430 4224.165, 1608.071 " />
            <path fill="none" stroke-width="3.0" stroke-linecap="butt" stroke-opacity="1.0" stroke="rgb(0, 0, 0)" stroke-linejoin="round" d=" M 4234.939, 1623.058 4233.089, 1621.160 " />
            <path fill="none" stroke-width="3.0" stroke-linecap="butt" stroke-opacity="1.0" stroke="rgb(0, 0, 0)" stroke-linejoin="round" d=" M 4236.882, 1624.860 4234.939, 1623.058 " />
            <path fill="none" stroke-width="3.0" stroke-linecap="butt" stroke-opacity="1.0" stroke="rgb(0, 0, 0)" stroke-linejoin="round" d=" M 4247.802, 1632.305 4245.475, 1631.038 " />
            <path fill="none" stroke-width="3.0" stroke-linecap="butt" stroke-opacity="1.0" stroke="rgb(0, 0, 0)" stroke-linejoin="round" d=" M 4250.189, 1633.455 4247.802, 1632.305 " />
            <path fill="none" stroke-width="3.0" stroke-linecap="butt" stroke-opacity="1.0" stroke="rgb(0, 0, 0)" stroke-linejoin="round" d=" M 4252.632, 1634.484 4250.189, 1633.455 " />
            <path fill="none" stroke-width="3.0" stroke-linecap="butt" stroke-opacity="1.0" stroke="rgb(0, 0, 0)" stroke-linejoin="round" d=" M 4255.122, 1635.391 4252.632, 1634.484 " />
            <path fill="none" stroke-width="3.0" stroke-linecap="butt" stroke-opacity="1.0" stroke="rgb(0, 0, 0)" stroke-linejoin="round" d=" M 4257.654, 1636.172 4255.122, 1635.391 " />
            <path fill="none" stroke-width="3.0" stroke-linecap="butt" stroke-opacity="1.0" stroke="rgb(0, 0, 0)" stroke-linejoin="round" d=" M 4268.077, 1638.009 4265.439, 1637.746 " />
            <path fill="none" stroke-width="3.0" stroke-linecap="butt" stroke-opacity="1.0" stroke="rgb(0, 0, 0)" stroke-linejoin="round" d=" M 4270.723, 1638.142 4268.077, 1638.009 " />
            <path fill="none" stroke-width="3.0" stroke-linecap="butt" stroke-opacity="1.0" stroke="rgb(0, 0, 0)" stroke-linejoin="round" d=" M 4309.156, 1623.058 4307.214, 1624.860 " />
            <path fill="none" stroke-width="3.0" stroke-linecap="butt" stroke-opacity="1.0" stroke="rgb(0, 0, 0)" stroke-linejoin="round" d=" M 4324.600, 1592.933 4324.140, 1595.543 " />
            <path fill="none" stroke-width="3.0" stroke-linecap="butt" stroke-opacity="1.0" stroke="rgb(0, 0, 0)" stroke-linejoin="round" d=" M 3306.778, 2111.218 3310.582, 2111.218 " />
            <path fill="none" stroke-width="3.0" stroke-linecap="butt" stroke-opacity="1.0" stroke="rgb(0, 0, 0)" stroke-linejoin="round" d=" M 4646.792, 2111.150 4647.089, 2111.150 " />
            <path fill="none" stroke-width="3.0" stroke-linecap="butt" stroke-opacity="1.0" stroke="rgb(0, 0, 0)" stroke-linejoin="round" d=" M 4646.729, 2111.150 4646.792, 2111.150 " />
            <path fill="none" stroke-width="3.0" stroke-linecap="butt" stroke-opacity="1.0" stroke="rgb(0, 0, 0)" stroke-linejoin="round" d=" M 3309.863, 2111.218 3306.888, 2111.218 " />
            <path fill="none" stroke-width="3.0" stroke-linecap="butt" stroke-opacity="1.0" stroke="rgb(0, 0, 0)" stroke-linejoin="round" d=" M 3316.791, 2111.218 3313.879, 2111.218 " />
            <path fill="none" stroke-width="3.0" stroke-linecap="butt" stroke-opacity="1.0" stroke="rgb(0, 0, 0)" stroke-linejoin="round" d=" M 4648.217, 2111.150 4648.455, 2111.150 " />
            <path fill="none" stroke-width="3.0" stroke-linecap="butt" stroke-opacity="1.0" stroke="rgb(0, 0, 0)" stroke-linejoin="round" d=" M 3313.772, 2111.218 3323.772, 2111.217 3333.772, 2111.217 3343.772, 2111.216 3353.772, 2111.216 3363.772, 2111.215 3373.772, 2111.215 3383.772, 2111.214 3393.772, 2111.214 3403.772, 2111.213 3413.772, 2111.213 3423.772, 2111.212 3433.772, 2111.212 3443.772, 2111.211 3453.772, 2111.211 3463.772, 2111.210 3473.772, 2111.210 3483.772, 2111.209 3493.772, 2111.209 3503.772, 2111.208 3513.772, 2111.208 3523.772, 2111.207 3533.772, 2111.207 3543.772, 2111.206 3553.772, 2111.206 3563.772, 2111.205 3573.772, 2111.205 3583.772, 2111.204 3593.772, 2111.204 3603.772, 2111.203 3613.772, 2111.203 3623.772, 2111.202 3633.772, 2111.202 3643.772, 2111.201 3653.772, 2111.201 3663.772, 2111.200 3673.772, 2111.200 3683.772, 2111.199 3693.772, 2111.199 3703.772, 2111.198 3713.772, 2111.198 3723.772, 2111.197 3733.772, 2111.197 3743.772, 2111.196 3753.772, 2111.196 3763.772, 2111.195 3773.772, 2111.195 3783.772, 2111.194 3793.772, 2111.194 3803.772, 2111.193 3813.772, 2111.193 3823.772, 2111.192 3833.772, 2111.192 3843.772, 2111.191 3853.772, 2111.191 3863.772, 2111.190 3873.772, 2111.190 3883.772, 2111.189 3893.772, 2111.189 3903.772, 2111.188 3913.772, 2111.188 3923.772, 2111.187 3933.772, 2111.187 3943.772, 2111.186 3953.772, 2111.186 3963.772, 2111.185 3973.772, 2111.185 3983.772, 2111.184 3993.772, 2111.184 4003.772, 2111.183 4013.772, 2111.183 4023.772, 2111.182 4033.772, 2111.181 4043.772, 2111.181 4053.772, 2111.180 4063.772, 2111.180 4073.772, 2111.179 4083.772, 2111.179 4093.772, 2111.178 4103.772, 2111.178 4113.772, 2111.177 4123.772, 2111.177 4133.772, 2111.176 4143.772, 2111.176 4153.772, 2111.175 4163.772, 2111.175 4173.772, 2111.174 4183.772, 2111.174 4193.772, 2111.173 4203.772, 2111.173 4213.772, 2111.172 4223.772, 2111.172 4233.772, 2111.171 4243.772, 2111.171 4253.772, 2111.170 4263.772, 2111.170 4273.772, 2111.169 4283.772, 2111.169 4293.772, 2111.168 4303.772, 2111.168 4313.772, 2111.167 4323.772, 2111.167 4333.772, 2111.166 4343.772, 2111.166 4353.772, 2111.165 4363.772, 2111.165 4373.772, 2111.164 4383.772, 2111.164 4393.772, 2111.163 4403.772, 2111.163 4413.772, 2111.162 4423.772, 2111.162 4433.772, 2111.161 4443.772, 2111.161 4453.772, 2111.160 4463.772, 2111.160 4473.772, 2111.159 4483.772, 2111.159 4493.772, 2111.158 4503.772, 2111.158 4513.772, 2111.157 4523.772, 2111.157 4533.772, 2111.156 4543.772, 2111.156 4553.772, 2111.155 4563.772, 2111.155 4573.772, 2111.154 4583.772, 2111.154 4593.772, 2111.153 4603.772, 2111.153 4613.772, 2111.152 4623.772, 2111.152 4633.772, 2111.151 4653.442, 2111.150 " />
            <path fill="none" stroke-width="3.0" stroke-linecap="butt" stroke-opacity="1.0" stroke="rgb(0, 0, 0)" stroke-linejoin="round" d=" M 3306.761, 2111.218 3310.693, 2111.218 " />
            <path fill="none" stroke-width="3.0" stroke-linecap="butt" stroke-opacity="1.0" stroke="rgb(0, 0, 0)" stroke-linejoin="round" d=" M 3313.772, 2111.218 3323.772, 2111.217 3333.772, 2111.217 3343.772, 2111.216 3353.772, 2111.216 3363.772, 2111.215 3373.772, 2111.215 3383.772, 2111.214 3393.772, 2111.214 3403.772, 2111.213 3413.772, 2111.213 3423.772, 2111.212 3433.772, 2111.212 3443.772, 2111.211 3453.772, 2111.211 3463.772, 2111.210 3473.772, 2111.210 3483.772, 2111.209 3493.772, 2111.209 3503.772, 2111.208 3513.772, 2111.208 3523.772, 2111.207 3533.772, 2111.207 3543.772, 2111.206 3553.772, 2111.206 3563.772, 2111.205 3573.772, 2111.205 3583.772, 2111.204 3593.772, 2111.204 3603.772, 2111.203 3613.772, 2111.203 3623.772, 2111.202 3633.772, 2111.202 3643.772, 2111.201 3653.772, 2111.201 3663.772, 2111.200 3673.772, 2111.200 3683.772, 2111.199 3693.772, 2111.199 3703.772, 2111.198 3713.772, 2111.198 3723.772, 2111.197 3733.772, 2111.197 3743.772, 2111.196 3753.772, 2111.196 3763.772, 2111.195 3773.772, 2111.195 3783.772, 2111.194 3793.772, 2111.194 3803.772, 2111.193 3813.772, 2111.193 3823.772, 2111.192 3833.772, 2111.192 3843.772, 2111.191 3853.772, 2111.191 3863.772, 2111.190 3873.772, 2111.190 3883.772, 2111.189 3893.772, 2111.189 3903.772, 2111.188 3913.772, 2111.188 3923.772, 2111.187 3933.772, 2111.187 3943.772, 2111.186 3953.772, 2111.186 3963.772, 2111.185 3973.772, 2111.185 3983.772, 2111.184 3993.772, 2111.184 4003.772, 2111.183 4013.772, 2111.183 4023.772, 2111.182 4033.772, 2111.181 4043.772, 2111.181 4053.772, 2111.180 4063.772, 2111.180 4073.772, 2111.179 4083.772, 2111.179 4093.772, 2111.178 4103.772, 2111.178 4113.772, 2111.177 4123.772, 2111.177 4133.772, 2111.176 4143.772, 2111.176 4153.772, 2111.175 4163.772, 2111.175 4173.772, 2111.174 4183.772, 2111.174 4193.772, 2111.173 4203.772, 2111.173 4213.772, 2111.172 4223.772, 2111.172 4233.772, 2111.171 4243.772, 2111.171 4253.772, 2111.170 4263.772, 2111.170 4273.772, 2111.169 4283.772, 2111.169 4293.772, 2111.168 4303.772, 2111.168 4313.772, 2111.167 4323.772, 2111.167 4333.772, 2111.166 4343.772, 2111.166 4353.772, 2111.165 4363.772, 2111.165 4373.772, 2111.164 4383.772, 2111.164 4393.772, 2111.163 4403.772, 2111.163 4413.772, 2111.162 4423.772, 2111.162 4433.772, 2111.161 4443.772, 2111.161 4453.772, 2111.160 4463.772, 2111.160 4473.772, 2111.159 4483.772, 2111.159 4493.772, 2111.158 4503.772, 2111.158 4513.772, 2111.157 4523.772, 2111.157 4533.772, 2111.156 4543.772, 2111.156 4553.772, 2111.155 4563.772, 2111.155 4573.772, 2111.154 4583.772, 2111.154 4593.772, 2111.153 4603.772, 2111.153 4613.772, 2111.152 4623.772, 2111.152 4633.772, 2111.151 4653.442, 2111.150 " />
            <path fill="none" stroke-width="3.0" stroke-linecap="butt" stroke-opacity="1.0" stroke="rgb(0, 0, 0)" stroke-linejoin="round" d=" M 3306.761, 2111.218 3310.693, 2111.218 " />
            <path fill="none" stroke-width="3.0" stroke-linecap="butt" stroke-opacity="1.0" stroke="rgb(0, 0, 0)" stroke-linejoin="round" d=" M 3310.010, 2111.218 3306.865, 2111.218 " />
            <path fill="none" stroke-width="3.0" stroke-linecap="butt" stroke-opacity="1.0" stroke="rgb(0, 0, 0)" stroke-linejoin="round" d=" M 3316.944, 2111.218 3313.860, 2111.218 " />
            <path fill="none" stroke-width="3.0" stroke-linecap="butt" stroke-opacity="1.0" stroke="rgb(0, 0, 0)" stroke-linejoin="round" d=" M 4648.217, 2111.150 4646.792, 2111.150 " />
            <path fill="none" stroke-width="3.0" stroke-linecap="butt" stroke-opacity="1.0" stroke="rgb(0, 0, 0)" stroke-linejoin="round" d=" M 4655.073, 2111.150 4655.151, 2111.150 " />
            <path fill="none" stroke-width="3.0" stroke-linecap="butt" stroke-opacity="1.0" stroke="rgb(0, 0, 0)" stroke-linejoin="round" d=" M 3310.010, 2111.218 3306.865, 2111.218 " />
            <path fill="none" stroke-width="3.0" stroke-linecap="butt" stroke-opacity="1.0" stroke="rgb(0, 0, 0)" stroke-linejoin="round" d=" M 3316.944, 2111.218 3313.860, 2111.218 " />
            <path fill="none" stroke-width="3.0" stroke-linecap="butt" stroke-opacity="1.0" stroke="rgb(0, 0, 0)" stroke-linejoin="round" d=" M 4648.217, 2111.150 4646.792, 2111.150 " />
            <path fill="none" stroke-width="3.0" stroke-linecap="butt" stroke-opacity="1.0" stroke="rgb(0, 0, 0)" stroke-linejoin="round" d=" M 3313.771, 2111.218 3323.771, 2111.217 3333.771, 2111.217 3343.771, 2111.216 3353.771, 2111.216 3363.771, 2111.215 3373.771, 2111.215 3383.771, 2111.214 3393.771, 2111.214 3403.771, 2111.213 3413.771, 2111.213 3423.771, 2111.212 3433.771, 2111.212 3443.771, 2111.211 3453.771, 2111.211 3463.771, 2111.210 3473.771, 2111.210 3483.771, 2111.209 3493.771, 2111.209 3503.771, 2111.208 3513.771, 2111.208 3523.771, 2111.207 3533.771, 2111.207 3543.771, 2111.206 3553.771, 2111.206 3563.771, 2111.205 3573.771, 2111.205 3583.771, 2111.204 3593.771, 2111.204 3603.771, 2111.203 3613.771, 2111.203 3623.771, 2111.202 3633.771, 2111.202 3643.771, 2111.201 3653.771, 2111.201 3663.771, 2111.200 3673.771, 2111.200 3683.771, 2111.199 3693.771, 2111.199 3703.771, 2111.198 3713.771, 2111.198 3723.771, 2111.197 3733.771, 2111.197 3743.771, 2111.196 3753.771, 2111.196 3763.771, 2111.195 3773.771, 2111.195 3783.771, 2111.194 3793.771, 2111.194 3803.771, 2111.193 3813.771, 2111.193 3823.771, 2111.192 3833.771, 2111.192 3843.771, 2111.191 3853.771, 2111.191 3863.771, 2111.190 3873.771, 2111.190 3883.771, 2111.189 3893.771, 2111.189 3903.771, 2111.188 3913.771, 2111.188 3923.771, 2111.187 3933.771, 2111.187 3943.771, 2111.186 3953.771, 2111.186 3963.771, 2111.185 3973.771, 2111.185 3983.771, 2111.184 3993.771, 2111.184 4003.771, 2111.183 4013.771, 2111.183 4023.771, 2111.182 4033.771, 2111.181 4043.771, 2111.181 4053.771, 2111.180 4063.771, 2111.180 4073.771, 2111.179 4083.771, 2111.179 4093.771, 2111.178 4103.771, 2111.178 4113.771, 2111.177 4123.771, 2111.177 4133.771, 2111.176 4143.771, 2111.176 4153.771, 2111.175 4163.771, 2111.175 4173.771, 2111.174 4183.771, 2111.174 4193.771, 2111.173 4203.771, 2111.173 4213.771, 2111.172 4223.771, 2111.172 4233.771, 2111.171 4243.771, 2111.171 4253.771, 2111.170 4263.771, 2111.170 4273.771, 2111.169 4283.771, 2111.169 4293.771, 2111.168 4303.771, 2111.168 4313.771, 2111.167 4323.771, 2111.167 4333.771, 2111.166 4343.771, 2111.166 4353.771, 2111.165 4363.771, 2111.165 4373.771, 2111.164 4383.771, 2111.164 4393.771, 2111.163 4403.771, 2111.163 4413.771, 2111.162 4423.771, 2111.162 4433.771, 2111.161 4443.771, 2111.161 4453.771, 2111.160 4463.771, 2111.160 4473.771, 2111.159 4483.771, 2111.159 4493.771, 2111.158 4503.771, 2111.158 4513.771, 2111.157 4523.771, 2111.157 4533.771, 2111.156 4543.771, 2111.156 4553.771, 2111.155 4563.771, 2111.155 4573.771, 2111.154 4583.771, 2111.154 4593.771, 2111.153 4603.771, 2111.153 4613.771, 2111.152 4623.771, 2111.152 4633.771, 2111.151 4643.771, 2111.151 4660.491, 2111.150 " />
            <path fill="none" stroke-width="3.0" stroke-linecap="butt" stroke-opacity="1.0" stroke="rgb(0, 0, 0)" stroke-linejoin="round" d=" M 3306.759, 2111.218 3310.705, 2111.218 " />
            <path fill="none" stroke-width="3.0" stroke-linecap="butt" stroke-opacity="1.0" stroke="rgb(0, 0, 0)" stroke-linejoin="round" d=" M 3306.759, 2111.218 3310.705, 2111.218 " />
            <path fill="none" stroke-width="3.0" stroke-linecap="butt" stroke-opacity="1.0" stroke="rgb(0, 0, 0)" stroke-linejoin="round" d=" M 3310.041, 2111.218 3306.861, 2111.218 " />
            <path fill="none" stroke-width="3.0" stroke-linecap="butt" stroke-opacity="1.0" stroke="rgb(0, 0, 0)" stroke-linejoin="round" d=" M 3316.976, 2111.218 3313.856, 2111.218 " />
            <path fill="none" stroke-width="3.0" stroke-linecap="butt" stroke-opacity="1.0" stroke="rgb(0, 0, 0)" stroke-linejoin="round" d=" M 4648.455, 2111.150 4646.729, 2111.150 " />
            <path fill="none" stroke-width="3.0" stroke-linecap="butt" stroke-opacity="1.0" stroke="rgb(0, 0, 0)" stroke-linejoin="round" d=" M 4655.389, 2111.150 4655.073, 2111.150 " />
            <path fill="none" stroke-width="3.0" stroke-linecap="butt" stroke-opacity="1.0" stroke="rgb(0, 0, 0)" stroke-linejoin="round" d=" M 3310.041, 2111.218 3306.861, 2111.218 " />
            <path fill="none" stroke-width="3.0" stroke-linecap="butt" stroke-opacity="1.0" stroke="rgb(0, 0, 0)" stroke-linejoin="round" d=" M 3316.976, 2111.218 3313.856, 2111.218 " />
            <path fill="none" stroke-width="3.0" stroke-linecap="butt" stroke-opacity="1.0" stroke="rgb(0, 0, 0)" stroke-linejoin="round" d=" M 4648.455, 2111.150 4646.729, 2111.150 " />
            <path fill="none" stroke-width="3.0" stroke-linecap="butt" stroke-opacity="1.0" stroke="rgb(0, 0, 0)" stroke-linejoin="round" d=" M 4655.389, 2111.150 4655.073, 2111.150 " />
            <path fill="none" stroke-width="3.0" stroke-linecap="butt" stroke-opacity="1.0" stroke="rgb(0, 0, 0)" stroke-linejoin="round" d=" M 3313.763, 2111.218 3323.763, 2111.217 3333.763, 2111.217 3343.763, 2111.216 3353.763, 2111.216 3363.763, 2111.215 3373.763, 2111.215 3383.763, 2111.214 3393.763, 2111.214 3403.763, 2111.213 3413.763, 2111.213 3423.763, 2111.212 3433.763, 2111.212 3443.763, 2111.211 3453.763, 2111.211 3463.763, 2111.210 3473.763, 2111.210 3483.763, 2111.209 3493.763, 2111.209 3503.763, 2111.208 3513.763, 2111.208 3523.763, 2111.207 3533.763, 2111.207 3543.763, 2111.206 3553.763, 2111.206 3563.763, 2111.205 3573.763, 2111.205 3583.763, 2111.204 3593.763, 2111.204 3603.763, 2111.203 3613.763, 2111.203 3623.763, 2111.202 3633.763, 2111.202 3643.763, 2111.201 3653.763, 2111.201 3663.763, 2111.200 3673.763, 2111.200 3683.763, 2111.199 3693.763, 2111.199 3703.763, 2111.198 3713.763, 2111.198 3723.763, 2111.197 3733.763, 2111.197 3743.763, 2111.196 3753.763, 2111.196 3763.763, 2111.195 3773.763, 2111.195 3783.763, 2111.194 3793.763, 2111.194 3803.763, 2111.193 3813.763, 2111.193 3823.763, 2111.192 3833.763, 2111.192 3843.763, 2111.191 3853.763, 2111.191 3863.763, 2111.190 3873.763, 2111.190 3883.763, 2111.189 3893.763, 2111.189 3903.763, 2111.188 3913.763, 2111.188 3923.763, 2111.187 3933.763, 2111.187 3943.763, 2111.186 3953.763, 2111.186 3963.763, 2111.185 3973.763, 2111.185 3983.763, 2111.184 3993.763, 2111.184 4003.763, 2111.183 4013.763, 2111.183 4023.763, 2111.182 4033.763, 2111.182 4043.763, 2111.181 4053.763, 2111.181 4063.763, 2111.180 4073.763, 2111.179 4083.763, 2111.179 4093.763, 2111.178 4103.763, 2111.178 4113.763, 2111.177 4123.763, 2111.177 4133.763, 2111.176 4143.763, 2111.176 4153.763, 2111.175 4163.763, 2111.175 4173.763, 2111.174 4183.763, 2111.174 4193.763, 2111.173 4203.763, 2111.173 4213.763, 2111.172 4223.763, 2111.172 4233.763, 2111.171 4243.763, 2111.171 4253.763, 2111.170 4263.763, 2111.170 4273.763, 2111.169 4283.763, 2111.169 4293.763, 2111.168 4303.763, 2111.168 4313.763, 2111.167 4323.763, 2111.167 4333.763, 2111.166 4343.763, 2111.166 4353.763, 2111.165 4363.763, 2111.165 4373.763, 2111.164 4383.763, 2111.164 4393.763, 2111.163 4403.763, 2111.163 4413.763, 2111.162 4423.763, 2111.162 4433.763, 2111.161 4443.763, 2111.161 4453.763, 2111.160 4463.763, 2111.160 4473.763, 2111.159 4483.763, 2111.159 4493.763, 2111.158 4503.763, 2111.158 4513.763, 2111.157 4523.763, 2111.157 4533.763, 2111.156 4543.763, 2111.156 4553.763, 2111.155 4563.763, 2111.155 4573.763, 2111.154 4583.763, 2111.154 4593.763, 2111.153 4603.763, 2111.153 4613.763, 2111.152 4623.763, 2111.152 4633.763, 2111.151 4643.763, 2111.151 4653.763, 2111.150 4667.913, 2111.149 " />
            <path fill="none" stroke-width="3.0" stroke-linecap="butt" stroke-opacity="1.0" stroke="rgb(0, 0, 0)" stroke-linejoin="round" d=" M 3306.750, 2111.218 3310.765, 2111.218 " />
            <path fill="none" stroke-width="3.0" stroke-linecap="butt" stroke-opacity="1.0" stroke="rgb(0, 0, 0)" stroke-linejoin="round" d=" M 3306.750, 2111.218 3310.765, 2111.218 " />
            <path fill="none" stroke-width="3.0" stroke-linecap="butt" stroke-opacity="1.0" stroke="rgb(0, 0, 0)" stroke-linejoin="round" d=" M 3310.312, 2111.218 3306.819, 2111.218 " />
            <path fill="none" stroke-width="3.0" stroke-linecap="butt" stroke-opacity="1.0" stroke="rgb(0, 0, 0)" stroke-linejoin="round" d=" M 4643.588, 2111.150 4633.588, 2111.151 4623.588, 2111.152 4613.588, 2111.152 4603.588, 2111.153 4593.588, 2111.153 4583.588, 2111.154 4573.588, 2111.154 4563.588, 2111.155 4553.588, 2111.155 4543.588, 2111.156 4533.588, 2111.156 4523.588, 2111.157 4513.588, 2111.157 4503.588, 2111.158 4493.588, 2111.158 4483.588, 2111.159 4473.588, 2111.159 4463.588, 2111.160 4453.588, 2111.160 4443.588, 2111.161 4433.588, 2111.161 4423.588, 2111.162 4413.588, 2111.162 4403.588, 2111.163 4393.588, 2111.163 4383.588, 2111.164 4373.588, 2111.164 4363.588, 2111.165 4353.588, 2111.165 4343.588, 2111.166 4333.588, 2111.166 4323.588, 2111.167 4313.588, 2111.167 4303.588, 2111.168 4293.588, 2111.168 4283.588, 2111.169 4273.588, 2111.169 4263.588, 2111.170 4253.588, 2111.170 4243.588, 2111.171 4233.588, 2111.171 4223.588, 2111.172 4213.588, 2111.172 4203.588, 2111.173 4193.588, 2111.173 4183.588, 2111.174 4173.588, 2111.174 4163.588, 2111.175 4153.588, 2111.175 4143.588, 2111.176 4133.588, 2111.176 4123.588, 2111.177 4113.588, 2111.177 4103.588, 2111.178 4093.588, 2111.178 4083.588, 2111.179 4073.588, 2111.179 4063.588, 2111.180 4053.588, 2111.180 4043.588, 2111.181 4033.588, 2111.181 4023.588, 2111.182 4013.588, 2111.182 4003.588, 2111.183 3993.588, 2111.183 3983.588, 2111.184 3973.588, 2111.184 3963.588, 2111.185 3953.588, 2111.185 3943.588, 2111.186 3933.588, 2111.186 3923.588, 2111.187 3913.588, 2111.187 3903.588, 2111.188 3893.588, 2111.189 3883.588, 2111.189 3873.588, 2111.190 3863.588, 2111.190 3853.588, 2111.191 3843.588, 2111.191 3833.588, 2111.192 3823.588, 2111.192 3813.588, 2111.193 3803.588, 2111.193 3793.588, 2111.194 3783.588, 2111.194 3773.588, 2111.195 3763.588, 2111.195 3753.588, 2111.196 3743.588, 2111.196 3733.588, 2111.197 3723.588, 2111.197 3713.588, 2111.198 3703.588, 2111.198 3693.588, 2111.199 3683.588, 2111.199 3673.588, 2111.200 3663.588, 2111.200 3653.588, 2111.201 3643.588, 2111.201 3633.588, 2111.202 3623.588, 2111.202 3613.588, 2111.203 3603.588, 2111.203 3593.588, 2111.204 3583.588, 2111.204 3573.588, 2111.205 3563.588, 2111.205 3553.588, 2111.206 3543.588, 2111.206 3533.588, 2111.207 3523.588, 2111.207 3513.588, 2111.208 3503.588, 2111.208 3493.588, 2111.209 3483.588, 2111.209 3473.588, 2111.210 3463.588, 2111.210 3453.588, 2111.211 3443.588, 2111.211 3433.588, 2111.212 3423.588, 2111.212 3413.588, 2111.213 3403.588, 2111.213 3393.588, 2111.214 3383.588, 2111.214 3373.588, 2111.215 3363.588, 2111.215 3353.588, 2111.216 3343.588, 2111.216 3333.588, 2111.217 3313.821, 2111.218 " />
            <path fill="none" stroke-width="3.0" stroke-linecap="butt" stroke-opacity="1.0" stroke="rgb(0, 0, 0)" stroke-linejoin="round" d=" M 4650.532, 2111.150 4646.184, 2111.150 " />
            <path fill="none" stroke-width="3.0" stroke-linecap="butt" stroke-opacity="1.0" stroke="rgb(0, 0, 0)" stroke-linejoin="round" d=" M 4657.477, 2111.150 4654.392, 2111.150 " />
            <path fill="none" stroke-width="3.0" stroke-linecap="butt" stroke-opacity="1.0" stroke="rgb(0, 0, 0)" stroke-linejoin="round" d=" M 4664.421, 2111.149 4661.572, 2111.150 " />
            <path fill="none" stroke-width="3.0" stroke-linecap="butt" stroke-opacity="1.0" stroke="rgb(0, 0, 0)" stroke-linejoin="round" d=" M 5279.057, 1512.695 5281.882, 1503.102 5284.707, 1493.510 5287.532, 1483.917 5290.357, 1474.324 5293.182, 1464.732 5296.007, 1455.139 5298.833, 1445.547 5301.658, 1435.954 5304.482, 1426.361 5307.308, 1416.769 5310.133, 1407.176 5312.958, 1397.583 5315.783, 1387.991 5318.608, 1378.398 5321.433, 1368.805 5324.258, 1359.213 5327.083, 1349.620 5329.909, 1340.027 5332.734, 1330.435 5335.559, 1320.842 5338.384, 1311.250 5341.209, 1301.657 5344.034, 1292.064 5346.859, 1282.472 5349.684, 1272.879 5351.835, 1265.577 " />
            <path fill="none" stroke-width="3.0" stroke-linecap="butt" stroke-opacity="1.0" stroke="rgb(0, 0, 0)" stroke-linejoin="round" d=" M 5351.835, 1265.577 5351.322, 1255.590 5350.810, 1245.604 5350.297, 1235.617 5349.785, 1225.630 5349.272, 1215.643 5348.760, 1205.656 5348.248, 1195.669 5347.735, 1185.682 5347.223, 1175.695 5346.710, 1165.709 5346.198, 1155.722 5345.686, 1145.735 5345.173, 1135.748 5344.661, 1125.761 5344.148, 1115.774 5343.636, 1105.787 5343.124, 1095.801 5342.611, 1085.814 5342.099, 1075.827 5341.586, 1065.840 5341.074, 1055.853 5340.562, 1045.866 5340.049, 1035.879 5339.537, 1025.893 5339.024, 1015.906 5338.512, 1005.919 5337.999, 995.932 5337.487, 985.945 5336.974, 975.958 5336.462, 965.971 5335.950, 955.984 5335.437, 945.998 5334.925, 936.011 5334.412, 926.024 5333.900, 916.037 5333.387, 906.050 5332.875, 896.063 5332.362, 886.077 5331.850, 876.090 5331.338, 866.103 5330.825, 856.116 5330.313, 846.129 5329.800, 836.142 5329.288, 826.155 5328.775, 816.168 5328.263, 806.182 5327.750, 796.195 5327.238, 786.208 5326.726, 776.221 5326.213, 766.234 5325.701, 756.247 5325.188, 746.260 5324.676, 736.274 5324.164, 726.287 5323.651, 716.300 5323.139, 706.313 5322.626, 696.326 5322.114, 686.339 5321.807, 680.357 " />
        </g>
    </g>
<g id="slice-labels"><text x="567.3716" y="545.56575" text-anchor="middle" dominant-baseline="middle" font-family="Arial, sans-serif" font-size="59.05091708264718" font-weight="bold" fill="black" stroke="none" stroke-width="7.086110049917662" paint-order="stroke fill">Slice18 (Back)</text><text x="1654.4407999999999" y="545.56575" text-anchor="middle" dominant-baseline="middle" font-family="Arial, sans-serif" font-size="59.05091708264718" font-weight="bold" fill="black" stroke="none" stroke-width="7.086110049917662" paint-order="stroke fill">Slice18 (Back)</text><text x="2741.5099999999998" y="545.56575" text-anchor="middle" dominant-baseline="middle" font-family="Arial, sans-serif" font-size="59.05091708264718" font-weight="bold" fill="black" stroke="none" stroke-width="7.086110049917662" paint-order="stroke fill">Slice18 (Back)</text><text x="3828.579199999999" y="545.56575" text-anchor="middle" dominant-baseline="middle" font-family="Arial, sans-serif" font-size="59.05091708264718" font-weight="bold" fill="black" stroke="none" stroke-width="7.086110049917662" paint-order="stroke fill">Slice18 (Back)</text><text x="4915.6484" y="545.56575" text-anchor="middle" dominant-baseline="middle" font-family="Arial, sans-serif" font-size="59.05091708264718" font-weight="bold" fill="black" stroke="none" stroke-width="7.086110049917662" paint-order="stroke fill">Slice18 (Back)</text><text x="567.3716" y="1589.44525" text-anchor="middle" dominant-baseline="middle" font-family="Arial, sans-serif" font-size="59.05091708264718" font-weight="bold" fill="black" stroke="none" stroke-width="7.086110049917662" paint-order="stroke fill">Slice18 (Back)</text><text x="1654.4407999999999" y="1589.44525" text-anchor="middle" dominant-baseline="middle" font-family="Arial, sans-serif" font-size="59.05091708264718" font-weight="bold" fill="black" stroke="none" stroke-width="7.086110049917662" paint-order="stroke fill">Slice18 (Back)</text><text x="2741.5099999999998" y="1589.44525" text-anchor="middle" dominant-baseline="middle" font-family="Arial, sans-serif" font-size="59.05091708264718" font-weight="bold" fill="black" stroke="none" stroke-width="7.086110049917662" paint-order="stroke fill">Slice18 (Back)</text><text x="3828.579199999999" y="1589.44525" text-anchor="middle" dominant-baseline="middle" font-family="Arial, sans-serif" font-size="59.05091708264718" font-weight="bold" fill="black" stroke="none" stroke-width="7.086110049917662" paint-order="stroke fill">Slice18 (Back)</text><text x="4915.6484" y="1589.44525" text-anchor="middle" dominant-baseline="middle" font-family="Arial, sans-serif" font-size="59.05091708264718" font-weight="bold" fill="black" stroke="none" stroke-width="7.086110049917662" paint-order="stroke fill">Slice18 (Back)</text></g></svg>