<?xml version='1.0' encoding='utf-8'?>
<svg xmlns="http://www.w3.org/2000/svg" xmlns:inkscape="http://www.inkscape.org/namespaces/inkscape" version="1.1" width="418.72387313842773mm" height="165.81409358978271mm" viewBox="0.7791873822928501 0.005194348398219972 4944.461625235414 1957.9996113032034" preserveAspectRatio="none">
    <g id="ViewLayer_LineSet" inkscape:groupmode="lineset" inkscape:label="ViewLayer_LineSet">
        <g inkscape:groupmode="layer" id="strokes" inkscape:label="strokes">
            <path fill="none" stroke-width="3.0" stroke-linecap="butt" stroke-opacity="1.0" stroke="rgb(0, 0, 0)" stroke-linejoin="round" d=" M 24.396, 1933.534 34.396, 1933.535 44.396, 1933.537 45.491, 1933.537 55.491, 1933.539 65.491, 1933.541 75.491, 1933.542 85.491, 1933.544 95.491, 1933.546 105.491, 1933.548 115.491, 1933.549 125.491, 1933.551 135.491, 1933.553 145.491, 1933.555 155.491, 1933.556 165.491, 1933.558 175.491, 1933.560 185.491, 1933.562 195.491, 1933.563 205.491, 1933.565 215.491, 1933.567 225.491, 1933.569 235.491, 1933.570 245.491, 1933.572 255.491, 1933.574 265.491, 1933.575 275.491, 1933.577 285.491, 1933.579 295.491, 1933.581 305.491, 1933.582 315.491, 1933.584 325.491, 1933.586 335.491, 1933.588 345.491, 1933.589 355.491, 1933.591 365.491, 1933.593 375.491, 1933.595 385.491, 1933.596 395.491, 1933.598 405.491, 1933.600 415.491, 1933.602 425.491, 1933.603 435.491, 1933.605 445.491, 1933.607 455.491, 1933.608 465.491, 1933.610 475.491, 1933.612 485.491, 1933.614 495.491, 1933.615 505.491, 1933.617 515.491, 1933.619 525.491, 1933.621 535.491, 1933.622 545.491, 1933.624 555.491, 1933.626 565.491, 1933.628 575.491, 1933.629 585.491, 1933.631 595.491, 1933.633 605.491, 1933.635 615.491, 1933.636 625.491, 1933.638 640.920, 1933.641 650.920, 1933.642 660.920, 1933.644 670.920, 1933.646 680.920, 1933.648 690.920, 1933.649 700.920, 1933.651 710.920, 1933.653 720.920, 1933.655 730.920, 1933.656 740.920, 1933.658 750.920, 1933.660 760.920, 1933.662 770.920, 1933.663 780.920, 1933.665 790.920, 1933.667 799.005, 1933.668 809.005, 1933.670 819.005, 1933.672 829.005, 1933.673 839.005, 1933.675 849.005, 1933.677 859.005, 1933.679 869.005, 1933.681 879.005, 1933.682 889.005, 1933.684 899.005, 1933.686 909.005, 1933.688 919.005, 1933.689 929.005, 1933.691 939.005, 1933.693 949.005, 1933.695 959.005, 1933.697 969.005, 1933.698 979.005, 1933.700 989.005, 1933.702 999.005, 1933.704 1009.005, 1933.705 1019.005, 1933.707 1029.005, 1933.709 1039.005, 1933.711 1044.998, 1933.712 1054.998, 1933.714 1064.998, 1933.715 1074.998, 1933.717 1084.998, 1933.719 1094.998, 1933.721 1104.998, 1933.722 1114.998, 1933.724 1124.998, 1933.726 1134.998, 1933.727 1144.998, 1933.729 1154.998, 1933.731 1164.998, 1933.733 1174.998, 1933.734 1184.998, 1933.736 1194.998, 1933.738 1204.998, 1933.740 1214.998, 1933.741 1224.998, 1933.743 1234.998, 1933.745 1244.998, 1933.747 1254.998, 1933.748 1264.998, 1933.750 1274.998, 1933.752 1284.998, 1933.754 1294.998, 1933.755 1304.998, 1933.757 1314.998, 1933.759 1324.998, 1933.761 1334.998, 1933.762 1344.998, 1933.764 1354.998, 1933.766 1364.998, 1933.768 1374.998, 1933.769 1384.998, 1933.771 1394.998, 1933.773 1404.998, 1933.775 1414.998, 1933.776 1424.998, 1933.778 1434.998, 1933.780 1444.998, 1933.782 1454.998, 1933.783 1464.998, 1933.785 1474.998, 1933.787 1484.998, 1933.788 1494.998, 1933.790 1504.998, 1933.792 1514.998, 1933.794 1524.998, 1933.795 1534.998, 1933.797 1544.998, 1933.799 1554.998, 1933.801 1564.998, 1933.802 1574.998, 1933.804 1584.998, 1933.806 1594.998, 1933.808 1604.998, 1933.809 1614.998, 1933.811 1624.998, 1933.813 1634.998, 1933.815 1644.998, 1933.816 1654.998, 1933.818 1664.998, 1933.820 1674.998, 1933.822 1684.998, 1933.823 1694.998, 1933.825 1704.998, 1933.827 1714.998, 1933.829 1724.998, 1933.830 1734.998, 1933.832 1744.998, 1933.834 1754.998, 1933.836 1764.998, 1933.837 1774.998, 1933.839 1784.998, 1933.841 1794.998, 1933.843 1804.998, 1933.844 1814.998, 1933.846 1824.998, 1933.848 1834.998, 1933.850 1844.998, 1933.851 1854.998, 1933.853 1864.998, 1933.855 1874.998, 1933.856 1884.998, 1933.858 1894.998, 1933.860 1904.998, 1933.862 1914.998, 1933.863 1924.998, 1933.865 1934.998, 1933.867 1944.998, 1933.869 1954.998, 1933.870 1964.998, 1933.872 1974.998, 1933.874 1984.998, 1933.876 2001.993, 1933.879 2001.994, 1933.877 2004.578, 1924.217 2007.161, 1914.556 2009.745, 1904.896 2012.329, 1895.235 2014.913, 1885.575 2017.496, 1875.915 2020.080, 1866.254 2022.664, 1856.594 2025.248, 1846.933 2027.832, 1837.273 2030.415, 1827.612 2032.999, 1817.952 2035.583, 1808.291 2038.167, 1798.631 2040.750, 1788.971 2043.334, 1779.310 2045.918, 1769.650 2048.502, 1759.989 2051.085, 1750.329 2053.669, 1740.668 2056.253, 1731.008 2058.837, 1721.347 2061.420, 1711.687 2064.004, 1702.027 2066.588, 1692.366 2069.172, 1682.706 2071.755, 1673.045 2074.339, 1663.385 2076.923, 1653.724 2079.507, 1644.064 2082.091, 1634.403 2084.674, 1624.743 2087.258, 1615.083 2089.842, 1605.422 2092.426, 1595.762 2095.009, 1586.101 2097.593, 1576.441 2100.177, 1566.780 2102.760, 1557.120 2105.344, 1547.459 2107.928, 1537.799 2110.512, 1528.139 2113.096, 1518.478 2115.679, 1508.818 2118.263, 1499.157 2120.847, 1489.497 2123.431, 1479.836 2125.724, 1471.261 2125.202, 1461.274 2124.679, 1451.288 2124.157, 1441.302 2123.635, 1431.315 2123.112, 1421.329 2122.590, 1411.343 2122.067, 1401.356 2121.545, 1391.370 2121.022, 1381.384 2120.500, 1371.397 2119.977, 1361.411 2119.455, 1351.425 2118.932, 1341.438 2118.410, 1331.452 2117.887, 1321.466 2117.365, 1311.479 2116.842, 1301.493 2116.320, 1291.507 2115.797, 1281.520 2115.275, 1271.534 2114.752, 1261.547 2114.230, 1251.561 2113.708, 1241.575 2113.185, 1231.589 2112.663, 1221.602 2112.140, 1211.616 2111.618, 1201.629 2111.095, 1191.643 2110.573, 1181.657 2110.050, 1171.670 2109.528, 1161.684 2109.005, 1151.698 2108.483, 1141.711 2107.960, 1131.725 2107.438, 1121.739 2106.916, 1111.752 2106.393, 1101.766 2105.871, 1091.780 2105.348, 1081.793 2104.826, 1071.807 2104.303, 1061.821 2103.781, 1051.834 2103.258, 1041.848 2102.736, 1031.862 2102.213, 1021.875 2101.691, 1011.889 2101.168, 1001.903 2100.646, 991.916 2100.123, 981.930 2099.601, 971.944 2099.078, 961.957 2098.556, 951.971 2098.033, 941.985 2097.253, 927.065 " />
            <path fill="none" stroke-width="3.0" stroke-linecap="butt" stroke-opacity="1.0" stroke="rgb(0, 0, 0)" stroke-linejoin="round" d=" M 342.291, 333.644 340.245, 343.432 338.199, 353.221 336.152, 363.009 334.106, 372.797 332.060, 382.586 330.014, 392.374 327.968, 402.163 325.922, 411.951 323.876, 421.740 321.829, 431.528 319.783, 441.316 317.737, 451.105 315.691, 460.893 313.645, 470.682 311.599, 480.470 309.553, 490.259 307.507, 500.047 305.460, 509.835 303.414, 519.624 301.368, 529.412 299.322, 539.201 297.276, 548.989 295.230, 558.778 293.184, 568.566 291.137, 578.354 289.091, 588.143 287.045, 597.931 284.999, 607.720 282.953, 617.508 280.907, 627.297 278.861, 637.085 276.814, 646.873 274.768, 656.662 272.722, 666.450 270.676, 676.239 268.630, 686.027 266.584, 695.816 264.538, 705.604 262.491, 715.392 260.445, 725.181 258.399, 734.969 256.353, 744.758 254.307, 754.546 252.261, 764.335 250.215, 774.123 248.169, 783.911 246.122, 793.700 244.076, 803.488 242.030, 813.277 239.984, 823.065 237.938, 832.854 236.090, 841.694 237.208, 851.632 238.326, 861.569 239.444, 871.506 240.563, 881.443 241.681, 891.381 242.799, 901.318 243.917, 911.255 245.035, 921.193 246.154, 931.130 247.272, 941.067 248.390, 951.004 249.508, 960.942 250.626, 970.879 251.745, 980.816 252.863, 990.754 253.981, 1000.691 255.099, 1010.628 256.218, 1020.565 257.336, 1030.503 258.454, 1040.440 259.572, 1050.377 260.690, 1060.315 261.809, 1070.252 262.927, 1080.189 264.045, 1090.126 265.163, 1100.064 266.281, 1110.001 267.400, 1119.938 268.518, 1129.875 269.636, 1139.813 270.268, 1145.430 269.971, 1155.425 269.673, 1165.421 269.376, 1175.416 269.078, 1185.412 268.781, 1195.408 268.483, 1205.403 268.186, 1215.399 267.888, 1225.394 267.591, 1235.390 267.293, 1245.385 266.996, 1255.381 266.698, 1265.377 266.401, 1275.372 266.103, 1285.368 265.806, 1295.363 265.508, 1305.359 265.211, 1315.354 264.913, 1325.350 264.616, 1335.346 264.318, 1345.341 264.021, 1355.337 263.723, 1365.332 263.426, 1375.328 263.128, 1385.324 262.831, 1395.319 262.510, 1406.102 259.349, 1415.590 256.187, 1425.077 253.026, 1434.564 249.865, 1444.051 246.704, 1453.538 243.542, 1463.025 240.381, 1472.513 237.220, 1482.000 234.058, 1491.487 230.897, 1500.974 227.736, 1510.461 224.575, 1519.948 221.413, 1529.436 218.252, 1538.923 215.091, 1548.410 211.929, 1557.897 208.768, 1567.384 205.607, 1576.871 202.446, 1586.358 199.284, 1595.846 196.123, 1605.333 192.962, 1614.820 191.454, 1619.345 " />
            <path fill="none" stroke-width="3.0" stroke-linecap="butt" stroke-opacity="1.0" stroke="rgb(0, 0, 0)" stroke-linejoin="round" d=" M 498.612, 33.989 493.790, 42.749 488.967, 51.509 484.145, 60.270 479.323, 69.030 474.500, 77.791 469.678, 86.551 464.856, 95.311 460.033, 104.072 455.211, 112.832 450.389, 121.593 445.566, 130.353 440.744, 139.114 435.922, 147.874 431.099, 156.634 426.277, 165.395 421.455, 174.155 416.632, 182.916 411.810, 191.676 406.987, 200.436 402.165, 209.197 397.343, 217.957 392.520, 226.718 387.698, 235.478 382.876, 244.239 378.053, 252.999 373.231, 261.759 368.409, 270.520 363.586, 279.280 358.764, 288.041 353.950, 296.787 349.754, 305.864 345.559, 314.941 343.364, 319.689 342.597, 329.660 342.291, 333.644 " />
            <path fill="none" stroke-width="3.0" stroke-linecap="butt" stroke-opacity="1.0" stroke="rgb(0, 0, 0)" stroke-linejoin="round" d=" M 2001.993, 1933.879 2004.577, 1924.218 2007.161, 1914.558 2009.745, 1904.897 2012.328, 1895.237 2014.912, 1885.576 2017.496, 1875.916 2020.080, 1866.256 2022.663, 1856.595 2025.247, 1846.935 2027.831, 1837.274 2030.415, 1827.614 2032.999, 1817.953 2035.582, 1808.293 2038.166, 1798.632 2040.750, 1788.972 2043.334, 1779.312 2045.917, 1769.651 2048.501, 1759.991 2051.085, 1750.330 2053.669, 1740.670 2056.252, 1731.009 2058.836, 1721.349 2061.420, 1711.688 2064.004, 1702.028 2066.587, 1692.368 2069.171, 1682.707 2071.755, 1673.047 2074.339, 1663.386 2076.923, 1653.726 2079.506, 1644.065 2082.090, 1634.405 2084.674, 1624.744 2087.258, 1615.084 2089.841, 1605.424 2092.425, 1595.763 2095.009, 1586.103 2097.593, 1576.442 2100.177, 1566.782 2102.760, 1557.121 2105.344, 1547.461 2107.928, 1537.800 2110.511, 1528.140 2113.095, 1518.480 2115.679, 1508.819 2118.263, 1499.159 2120.846, 1489.498 2123.430, 1479.838 2125.724, 1471.261 " />
            <path fill="none" stroke-width="3.0" stroke-linecap="butt" stroke-opacity="1.0" stroke="rgb(0, 0, 0)" stroke-linejoin="round" d=" M 1289.321, 596.680 1287.292, 594.977 1285.349, 593.174 1283.499, 591.278 1281.746, 589.291 1280.094, 587.220 1278.548, 585.068 1277.110, 582.843 1275.785, 580.549 " />
            <path fill="none" stroke-width="3.0" stroke-linecap="butt" stroke-opacity="1.0" stroke="rgb(0, 0, 0)" stroke-linejoin="round" d=" M 1295.883, 601.153 1293.622, 599.772 1291.433, 598.280 1289.321, 596.680 " />
            <path fill="none" stroke-width="3.0" stroke-linecap="butt" stroke-opacity="1.0" stroke="rgb(0, 0, 0)" stroke-linejoin="round" d=" M 1305.528, 605.506 1303.039, 604.599 1300.597, 603.570 1298.210, 602.421 " />
            <path fill="none" stroke-width="3.0" stroke-linecap="butt" stroke-opacity="1.0" stroke="rgb(0, 0, 0)" stroke-linejoin="round" d=" M 1275.785, 580.549 1274.577, 578.190 1273.487, 575.776 1272.519, 573.308 1271.675, 570.798 1270.957, 568.247 1270.368, 565.664 1269.908, 563.055 1269.578, 560.425 1269.380, 557.783 1269.314, 555.135 1269.380, 552.486 1269.578, 549.844 1269.908, 547.215 1270.368, 544.606 1270.957, 542.023 1271.675, 539.472 1272.519, 536.961 1273.487, 534.495 1274.577, 532.080 1275.785, 529.721 1277.110, 527.427 1278.548, 525.201 1280.094, 523.050 1281.746, 520.979 1283.499, 518.992 " />
            <path fill="none" stroke-width="3.0" stroke-linecap="butt" stroke-opacity="1.0" stroke="rgb(0, 0, 0)" stroke-linejoin="round" d=" M 1326.423, 608.124 1323.777, 608.256 1321.128, 608.256 1318.481, 608.124 1315.845, 607.860 1313.225, 607.465 1310.628, 606.940 1308.060, 606.286 1305.528, 605.506 " />
            <path fill="none" stroke-width="3.0" stroke-linecap="butt" stroke-opacity="1.0" stroke="rgb(0, 0, 0)" stroke-linejoin="round" d=" M 1336.844, 606.286 1334.276, 606.940 1331.679, 607.465 1329.059, 607.860 1326.423, 608.124 " />
            <path fill="none" stroke-width="3.0" stroke-linecap="butt" stroke-opacity="1.0" stroke="rgb(0, 0, 0)" stroke-linejoin="round" d=" M 1283.499, 518.992 1285.349, 517.096 1287.292, 515.293 1289.321, 513.590 1291.433, 511.990 " />
            <path fill="none" stroke-width="3.0" stroke-linecap="butt" stroke-opacity="1.0" stroke="rgb(0, 0, 0)" stroke-linejoin="round" d=" M 1291.433, 511.990 1293.622, 510.498 " />
            <path fill="none" stroke-width="3.0" stroke-linecap="butt" stroke-opacity="1.0" stroke="rgb(0, 0, 0)" stroke-linejoin="round" d=" M 1293.622, 510.498 1295.883, 509.116 " />
            <path fill="none" stroke-width="3.0" stroke-linecap="butt" stroke-opacity="1.0" stroke="rgb(0, 0, 0)" stroke-linejoin="round" d=" M 499.974, 23.625 498.671, 33.539 498.612, 33.989 " />
            <path fill="none" stroke-width="3.0" stroke-linecap="butt" stroke-opacity="1.0" stroke="rgb(0, 0, 0)" stroke-linejoin="round" d=" M 4409.966, 23.625 4404.511, 23.625 4404.468, 23.625 4404.425, 23.625 4404.383, 23.625 4404.341, 23.625 4404.300, 23.625 4404.261, 23.625 4404.222, 23.625 4394.222, 23.625 4384.222, 23.625 4374.222, 23.625 4364.222, 23.625 4354.222, 23.625 4344.222, 23.625 4334.222, 23.625 4324.222, 23.625 4314.222, 23.625 4304.222, 23.625 4294.222, 23.625 4284.222, 23.625 4274.222, 23.625 4264.222, 23.625 4254.222, 23.625 4244.222, 23.625 4234.222, 23.625 4224.222, 23.625 4214.222, 23.625 4204.222, 23.625 4194.222, 23.625 4184.222, 23.625 4174.222, 23.625 4164.222, 23.625 4154.222, 23.625 4144.222, 23.625 4134.222, 23.625 4124.222, 23.625 4114.222, 23.625 4104.222, 23.625 4094.222, 23.625 4084.222, 23.625 4074.222, 23.625 4064.222, 23.625 4054.222, 23.625 4044.222, 23.625 4034.222, 23.625 4024.222, 23.625 4014.222, 23.625 4004.222, 23.625 3994.222, 23.625 3988.853, 23.625 3986.702, 23.625 3984.583, 23.625 3982.503, 23.625 3980.469, 23.625 3978.486, 23.625 3976.562, 23.625 3974.702, 23.625 3972.912, 23.625 3971.198, 23.625 3969.564, 23.625 3968.017, 23.625 3958.017, 23.625 3948.017, 23.625 3938.017, 23.625 3928.017, 23.625 3918.017, 23.625 3908.017, 23.625 3898.017, 23.625 3888.017, 23.625 3878.017, 23.625 3868.017, 23.625 3858.017, 23.625 3848.017, 23.625 3838.017, 23.625 3831.035, 23.625 3828.883, 23.625 3826.834, 23.625 3816.834, 23.625 3806.834, 23.625 3796.834, 23.625 3786.834, 23.625 3776.834, 23.625 3766.834, 23.625 3756.834, 23.625 3746.834, 23.625 3736.834, 23.625 3726.834, 23.625 3716.834, 23.625 3706.834, 23.625 3696.834, 23.625 3686.834, 23.625 3676.834, 23.625 3666.834, 23.625 3656.834, 23.625 3646.834, 23.625 3636.834, 23.625 3626.834, 23.625 3616.834, 23.625 3606.834, 23.625 3596.834, 23.625 3586.834, 23.625 3576.834, 23.625 3566.834, 23.625 3556.834, 23.625 3546.834, 23.625 3536.834, 23.625 3526.834, 23.625 3516.834, 23.625 3506.834, 23.625 3496.834, 23.625 3486.834, 23.625 3476.834, 23.625 3466.834, 23.625 3456.834, 23.625 3446.834, 23.625 3436.834, 23.625 3426.834, 23.625 3416.834, 23.625 3406.834, 23.625 3396.834, 23.625 3386.834, 23.625 3376.834, 23.625 3366.834, 23.625 3356.834, 23.625 3346.834, 23.625 3336.834, 23.625 3326.834, 23.625 3316.834, 23.625 3306.834, 23.625 3296.834, 23.625 3286.834, 23.625 3272.958, 23.625 3262.958, 23.625 3252.958, 23.625 3242.958, 23.625 3232.958, 23.625 3222.958, 23.625 3212.958, 23.625 3202.958, 23.625 3192.958, 23.625 3182.958, 23.625 3172.958, 23.625 3162.958, 23.625 3152.958, 23.625 3142.958, 23.625 3139.203, 23.625 3129.203, 23.625 3119.203, 23.625 3109.203, 23.625 3099.203, 23.625 3089.203, 23.625 3079.203, 23.625 3069.203, 23.625 3059.203, 23.625 3049.203, 23.625 3039.203, 23.625 3029.203, 23.625 3019.203, 23.625 3009.203, 23.625 2999.203, 23.625 2989.203, 23.625 2979.203, 23.625 2969.203, 23.625 2959.203, 23.625 2949.203, 23.625 2939.203, 23.625 2929.203, 23.625 2919.203, 23.625 2909.203, 23.625 2899.203, 23.625 2889.203, 23.625 2879.203, 23.625 2869.203, 23.625 2859.203, 23.625 2849.203, 23.625 2839.203, 23.625 2829.203, 23.625 2819.203, 23.625 2815.594, 23.625 2805.594, 23.625 2795.594, 23.625 2785.594, 23.625 2775.594, 23.625 2765.594, 23.625 2755.594, 23.625 2745.594, 23.625 2735.594, 23.625 2725.594, 23.625 2715.594, 23.625 2705.594, 23.625 2695.594, 23.625 2685.594, 23.625 2675.594, 23.625 2665.594, 23.625 2655.594, 23.625 2645.594, 23.625 2635.594, 23.625 2625.594, 23.625 2615.594, 23.625 2605.594, 23.625 2595.594, 23.625 2585.594, 23.625 2575.594, 23.625 2565.594, 23.625 2555.594, 23.625 2545.594, 23.625 2535.594, 23.625 2525.594, 23.625 2515.594, 23.625 2505.594, 23.625 2495.594, 23.625 2485.594, 23.625 2475.594, 23.625 2465.594, 23.625 2455.594, 23.625 2445.594, 23.625 2435.594, 23.625 2425.594, 23.625 2415.594, 23.625 2405.594, 23.625 2395.594, 23.625 2385.594, 23.625 2375.594, 23.625 2365.594, 23.625 2355.594, 23.625 2345.594, 23.625 2335.594, 23.625 2325.594, 23.625 2315.594, 23.625 2305.594, 23.625 2295.594, 23.625 2285.594, 23.625 2275.594, 23.625 2265.594, 23.625 2255.594, 23.625 2245.594, 23.625 2235.594, 23.625 2225.594, 23.625 2215.594, 23.625 2205.594, 23.625 2195.594, 23.625 2185.594, 23.625 2175.594, 23.625 2165.594, 23.625 2155.594, 23.625 2145.594, 23.625 2135.594, 23.625 2125.594, 23.625 2115.594, 23.625 2105.594, 23.625 2095.594, 23.625 2085.594, 23.625 2075.594, 23.625 2065.594, 23.625 2055.594, 23.625 2045.594, 23.625 2035.594, 23.625 2025.594, 23.625 2015.594, 23.625 2005.594, 23.625 1995.594, 23.625 1985.594, 23.625 1975.594, 23.625 1965.594, 23.625 1952.502, 23.625 1942.502, 23.625 1932.502, 23.625 1922.502, 23.625 1912.502, 23.625 1902.502, 23.625 1892.502, 23.625 1882.502, 23.625 1872.502, 23.625 1862.502, 23.625 1852.502, 23.625 1842.502, 23.625 1834.206, 23.625 1824.206, 23.625 1814.206, 23.625 1804.206, 23.625 1794.206, 23.625 1784.206, 23.625 1774.206, 23.625 1764.206, 23.625 1754.206, 23.625 1744.206, 23.625 1734.206, 23.625 1724.206, 23.625 1714.206, 23.625 1704.206, 23.625 1694.206, 23.625 1684.206, 23.625 1674.206, 23.625 1670.919, 23.625 1660.919, 23.625 1650.919, 23.625 1640.919, 23.625 1630.919, 23.625 1620.919, 23.625 1610.919, 23.625 1600.919, 23.625 1590.919, 23.625 1580.919, 23.625 1570.919, 23.625 1560.919, 23.625 1550.919, 23.625 1540.919, 23.625 1530.919, 23.625 1520.919, 23.625 1510.919, 23.625 1500.919, 23.625 1490.919, 23.625 1480.919, 23.625 1470.919, 23.625 1460.919, 23.625 1450.919, 23.625 1440.919, 23.625 1430.919, 23.625 1420.919, 23.625 1410.919, 23.625 1400.919, 23.625 1390.919, 23.625 1380.919, 23.625 1370.919, 23.625 1360.919, 23.625 1350.919, 23.625 1340.919, 23.625 1330.919, 23.625 1320.919, 23.625 1310.919, 23.625 1300.919, 23.625 1290.919, 23.625 1280.919, 23.625 1270.919, 23.625 1260.919, 23.625 1250.919, 23.625 1240.919, 23.625 1230.919, 23.625 1220.919, 23.625 1210.919, 23.625 1200.919, 23.625 1190.919, 23.625 1185.278, 23.625 1184.018, 23.625 1174.018, 23.625 1164.018, 23.625 1154.018, 23.625 1144.018, 23.625 1134.018, 23.625 1124.018, 23.625 1114.018, 23.625 1104.018, 23.625 1094.356, 23.625 1093.336, 23.625 1092.240, 23.625 1091.069, 23.625 1089.829, 23.625 1088.520, 23.625 1087.148, 23.625 1085.715, 23.625 1075.715, 23.625 1065.715, 23.625 1055.715, 23.625 1045.715, 23.625 1035.715, 23.625 1025.715, 23.625 1015.188, 23.625 1005.188, 23.625 995.188, 23.625 985.188, 23.625 975.188, 23.625 965.188, 23.625 955.188, 23.625 945.188, 23.625 937.401, 23.625 936.363, 23.625 935.269, 23.625 934.121, 23.625 932.922, 23.625 931.677, 23.625 930.389, 23.625 929.061, 23.625 927.698, 23.625 926.303, 23.625 924.882, 23.625 923.437, 23.625 913.437, 23.625 903.437, 23.625 893.437, 23.625 883.437, 23.625 873.437, 23.625 863.437, 23.625 853.437, 23.625 843.437, 23.625 833.437, 23.625 823.437, 23.625 813.437, 23.625 803.437, 23.625 793.437, 23.625 783.437, 23.625 773.437, 23.625 763.437, 23.625 753.437, 23.625 743.437, 23.625 733.437, 23.625 723.437, 23.625 713.437, 23.625 703.437, 23.625 698.563, 23.625 697.709, 23.625 696.836, 23.625 686.836, 23.625 676.836, 23.625 666.836, 23.625 656.836, 23.625 646.836, 23.625 636.836, 23.625 626.836, 23.625 616.836, 23.625 606.836, 23.625 596.836, 23.625 586.836, 23.625 576.836, 23.625 566.836, 23.625 556.836, 23.625 546.836, 23.625 536.836, 23.625 526.836, 23.625 516.836, 23.625 506.836, 23.625 499.974, 23.625 " />
            <path fill="none" stroke-width="3.0" stroke-linecap="butt" stroke-opacity="1.0" stroke="rgb(0, 0, 0)" stroke-linejoin="round" d=" M 1295.883, 509.116 1298.210, 507.849 1300.597, 506.699 1303.039, 505.670 1305.528, 504.764 1308.060, 503.983 1310.628, 503.329 1313.225, 502.804 1315.845, 502.410 1318.481, 502.146 1321.128, 502.013 " />
            <path fill="none" stroke-width="3.0" stroke-linecap="butt" stroke-opacity="1.0" stroke="rgb(0, 0, 0)" stroke-linejoin="round" d=" M 1321.128, 502.013 1323.777, 502.013 1326.423, 502.146 1329.059, 502.410 1331.679, 502.804 1334.276, 503.329 " />
            <path fill="none" stroke-width="3.0" stroke-linecap="butt" stroke-opacity="1.0" stroke="rgb(0, 0, 0)" stroke-linejoin="round" d=" M 1346.694, 602.421 1344.307, 603.570 1341.866, 604.599 1339.376, 605.506 1336.844, 606.286 " />
            <path fill="none" stroke-width="3.0" stroke-linecap="butt" stroke-opacity="1.0" stroke="rgb(0, 0, 0)" stroke-linejoin="round" d=" M 1367.794, 582.843 1366.357, 585.068 1364.810, 587.220 1363.158, 589.291 1361.405, 591.278 1359.555, 593.174 1357.613, 594.977 1355.583, 596.680 1353.471, 598.280 1351.282, 599.772 1349.021, 601.153 " />
            <path fill="none" stroke-width="3.0" stroke-linecap="butt" stroke-opacity="1.0" stroke="rgb(0, 0, 0)" stroke-linejoin="round" d=" M 1374.536, 544.606 1374.996, 547.215 1375.326, 549.844 1375.524, 552.486 1375.590, 555.135 1375.524, 557.783 1375.326, 560.425 1374.996, 563.055 1374.536, 565.664 1373.947, 568.247 1373.229, 570.798 1372.385, 573.308 1371.417, 575.776 1370.328, 578.190 1369.119, 580.549 1367.794, 582.843 " />
            <path fill="none" stroke-width="3.0" stroke-linecap="butt" stroke-opacity="1.0" stroke="rgb(0, 0, 0)" stroke-linejoin="round" d=" M 2965.459, 1614.316 2962.941, 1611.734 2960.555, 1609.031 2958.307, 1606.211 2956.202, 1603.283 2954.245, 1600.253 2952.442, 1597.130 2950.797, 1593.922 2949.313, 1590.634 2947.996, 1587.277 2946.847, 1583.858 2945.871, 1580.387 2945.068, 1576.871 2944.442, 1573.320 2943.994, 1569.741 2943.724, 1566.146 2943.634, 1562.540 2943.724, 1558.935 2943.994, 1555.339 2944.442, 1551.760 2945.068, 1548.208 2945.871, 1544.693 2946.847, 1541.221 2947.996, 1537.803 2949.313, 1534.445 2950.797, 1531.159 2952.442, 1527.950 2954.245, 1524.827 2956.202, 1521.797 2958.307, 1518.869 2960.555, 1516.049 2962.941, 1513.345 2965.459, 1510.763 2968.103, 1508.311 2970.866, 1505.993 2973.740, 1503.815 2976.720, 1501.783 2979.797, 1499.903 2982.965, 1498.178 2986.214, 1496.614 2989.537, 1495.214 2992.926, 1493.980 2996.372, 1492.916 2999.866, 1492.027 3003.401, 1491.312 3006.967, 1490.775 3010.556, 1490.416 3014.157, 1490.236 3017.764, 1490.236 3021.366, 1490.416 3024.954, 1490.775 3028.520, 1491.312 3032.055, 1492.027 3035.550, 1492.916 3038.996, 1493.980 3042.385, 1495.214 3045.708, 1496.614 3048.957, 1498.178 3052.124, 1499.903 3055.201, 1501.783 3058.181, 1503.815 3061.055, 1505.993 3063.818, 1508.311 3066.462, 1510.763 3068.980, 1513.345 3071.366, 1516.049 3073.615, 1518.869 3075.719, 1521.797 3077.676, 1524.827 3079.479, 1527.950 3081.125, 1531.159 3082.608, 1534.445 3083.925, 1537.803 3085.074, 1541.221 3086.051, 1544.693 3086.853, 1548.208 3087.479, 1551.760 3087.928, 1555.339 3088.197, 1558.935 3088.287, 1562.540 3088.197, 1566.146 3087.928, 1569.741 3087.479, 1573.320 3086.853, 1576.871 3086.051, 1580.387 3085.074, 1583.858 3083.925, 1587.277 3082.608, 1590.634 3081.125, 1593.922 3079.479, 1597.130 3077.676, 1600.253 3075.719, 1603.283 3073.615, 1606.211 3071.366, 1609.031 3068.980, 1611.734 3066.462, 1614.316 3063.818, 1616.769 3061.055, 1619.087 3058.181, 1621.264 3055.201, 1623.296 3052.124, 1625.176 3048.957, 1626.901 3045.708, 1628.466 3042.385, 1629.867 3038.996, 1631.100 3035.550, 1632.163 3032.055, 1633.054 3028.520, 1633.767 3024.954, 1634.305 3021.366, 1634.664 3017.764, 1634.843 3014.157, 1634.843 3010.556, 1634.664 3006.967, 1634.305 3003.401, 1633.767 2999.866, 1633.054 2996.372, 1632.163 2992.926, 1631.100 2989.537, 1629.867 2986.214, 1628.466 2982.965, 1626.901 2979.797, 1625.176 2976.720, 1623.296 2973.740, 1621.264 2970.866, 1619.087 2968.103, 1616.769 2965.459, 1614.316 " />
            <path fill="none" stroke-width="3.0" stroke-linecap="butt" stroke-opacity="1.0" stroke="rgb(0, 0, 0)" stroke-linejoin="round" d=" M 2781.417, 1934.015 2791.417, 1934.017 2801.417, 1934.019 2811.417, 1934.020 2821.417, 1934.022 2831.417, 1934.024 2841.417, 1934.025 2851.417, 1934.027 2861.417, 1934.029 2871.417, 1934.031 2881.417, 1934.032 2891.417, 1934.034 2901.417, 1934.036 2904.307, 1934.036 2911.756, 1934.038 2915.104, 1934.038 2925.104, 1934.040 2935.104, 1934.042 2936.587, 1934.042 2946.587, 1934.044 2949.485, 1934.044 " />
            <path fill="none" stroke-width="3.0" stroke-linecap="butt" stroke-opacity="1.0" stroke="rgb(0, 0, 0)" stroke-linejoin="round" d=" M 2949.485, 1934.044 2949.948, 1934.044 2950.926, 1934.045 2951.109, 1934.045 2951.361, 1934.045 2952.731, 1934.045 " />
            <path fill="none" stroke-width="3.0" stroke-linecap="butt" stroke-opacity="1.0" stroke="rgb(0, 0, 0)" stroke-linejoin="round" d=" M 2664.681, 1040.614 2665.769, 1050.554 2666.857, 1060.495 2667.945, 1070.436 2669.033, 1080.376 2670.122, 1090.317 2671.209, 1100.258 2672.298, 1110.198 2673.385, 1120.139 2674.474, 1130.079 2675.562, 1140.020 2676.650, 1149.961 2677.738, 1159.901 2678.826, 1169.842 2679.914, 1179.783 2681.002, 1189.723 2682.090, 1199.664 2683.178, 1209.605 2684.266, 1219.545 2685.354, 1229.486 2686.442, 1239.426 2687.530, 1249.367 2688.618, 1259.308 2689.706, 1269.248 2690.794, 1279.189 2691.882, 1289.130 2692.970, 1299.070 2694.058, 1309.011 2695.146, 1318.951 2696.234, 1328.892 2697.322, 1338.833 2698.410, 1348.773 2699.498, 1358.714 2700.586, 1368.655 2701.674, 1378.595 2702.762, 1388.536 2703.302, 1393.468 2703.302, 1403.468 2703.302, 1413.468 2703.302, 1423.468 2703.302, 1433.468 2703.302, 1443.468 2703.302, 1453.468 2703.302, 1463.468 2703.302, 1473.468 2703.302, 1483.468 2703.302, 1493.468 2703.302, 1503.468 2703.302, 1513.468 2703.302, 1523.468 2703.302, 1533.468 2703.302, 1543.468 2703.302, 1553.468 2703.302, 1563.468 2703.302, 1573.468 2703.302, 1583.468 2703.302, 1593.468 2703.302, 1603.468 2703.302, 1613.468 2703.302, 1623.468 2703.302, 1633.468 2703.302, 1643.468 2703.302, 1653.468 2703.302, 1663.468 2703.302, 1673.468 2703.302, 1683.468 2703.302, 1693.468 2703.302, 1703.468 2703.302, 1713.468 2703.302, 1723.468 2703.302, 1733.468 2703.302, 1743.468 2703.302, 1753.468 2703.302, 1763.468 2703.302, 1773.468 2703.302, 1784.942 " />
            <path fill="none" stroke-width="3.0" stroke-linecap="butt" stroke-opacity="1.0" stroke="rgb(0, 0, 0)" stroke-linejoin="round" d=" M 2952.731, 1934.045 2953.715, 1934.045 2954.345, 1934.045 2955.223, 1934.045 2955.946, 1934.045 2957.422, 1934.045 2957.528, 1934.045 " />
            <path fill="none" stroke-width="3.0" stroke-linecap="butt" stroke-opacity="1.0" stroke="rgb(0, 0, 0)" stroke-linejoin="round" d=" M 2957.528, 1934.045 2957.598, 1934.045 2959.085, 1934.046 2960.613, 1934.046 2970.613, 1934.048 2980.613, 1934.050 2990.613, 1934.052 3000.613, 1934.053 3007.656, 1934.055 3008.268, 1934.055 3008.698, 1934.055 3009.100, 1934.055 3009.342, 1934.055 3009.349, 1934.055 3010.728, 1934.055 3010.997, 1934.055 " />
            <path fill="none" stroke-width="3.0" stroke-linecap="butt" stroke-opacity="1.0" stroke="rgb(0, 0, 0)" stroke-linejoin="round" d=" M 3010.997, 1934.055 3011.184, 1934.055 3012.152, 1934.055 3012.330, 1934.055 3012.617, 1934.055 3013.025, 1934.055 3013.279, 1934.055 3014.195, 1934.055 3014.682, 1934.055 3015.115, 1934.055 3015.209, 1934.055 3015.728, 1934.055 " />
            <path fill="none" stroke-width="3.0" stroke-linecap="butt" stroke-opacity="1.0" stroke="rgb(0, 0, 0)" stroke-linejoin="round" d=" M 3015.728, 1934.055 3016.037, 1934.055 3016.093, 1934.055 3016.354, 1934.056 3017.209, 1934.056 3018.635, 1934.056 " />
            <path fill="none" stroke-width="3.0" stroke-linecap="butt" stroke-opacity="1.0" stroke="rgb(0, 0, 0)" stroke-linejoin="round" d=" M 3018.635, 1934.056 3019.535, 1934.056 3020.002, 1934.057 3020.876, 1934.057 3021.306, 1934.057 3022.542, 1934.057 3023.038, 1934.057 3023.134, 1934.057 3023.709, 1934.057 " />
            <path fill="none" stroke-width="3.0" stroke-linecap="butt" stroke-opacity="1.0" stroke="rgb(0, 0, 0)" stroke-linejoin="round" d=" M 1339.376, 504.764 1341.866, 505.670 " />
            <path fill="none" stroke-width="3.0" stroke-linecap="butt" stroke-opacity="1.0" stroke="rgb(0, 0, 0)" stroke-linejoin="round" d=" M 1336.844, 503.983 1339.376, 504.764 " />
            <path fill="none" stroke-width="3.0" stroke-linecap="butt" stroke-opacity="1.0" stroke="rgb(0, 0, 0)" stroke-linejoin="round" d=" M 1334.276, 503.329 1336.844, 503.983 " />
            <path fill="none" stroke-width="3.0" stroke-linecap="butt" stroke-opacity="1.0" stroke="rgb(0, 0, 0)" stroke-linejoin="round" d=" M 1341.866, 505.670 1344.307, 506.699 1346.694, 507.849 1349.021, 509.116 1351.282, 510.498 1353.471, 511.990 " />
            <path fill="none" stroke-width="3.0" stroke-linecap="butt" stroke-opacity="1.0" stroke="rgb(0, 0, 0)" stroke-linejoin="round" d=" M 3023.709, 1934.057 3023.928, 1934.057 3023.965, 1934.057 3024.802, 1934.057 3025.820, 1934.057 3035.820, 1934.059 3045.820, 1934.061 3055.820, 1934.063 3065.820, 1934.064 3075.820, 1934.066 3082.380, 1934.067 3082.453, 1934.067 3082.573, 1934.067 3083.812, 1934.067 3085.157, 1934.067 " />
            <path fill="none" stroke-width="3.0" stroke-linecap="butt" stroke-opacity="1.0" stroke="rgb(0, 0, 0)" stroke-linejoin="round" d=" M 3085.157, 1934.067 3086.357, 1934.068 3086.414, 1934.068 3086.535, 1934.068 3087.578, 1934.068 3088.648, 1934.068 3089.622, 1934.068 " />
            <path fill="none" stroke-width="3.0" stroke-linecap="butt" stroke-opacity="1.0" stroke="rgb(0, 0, 0)" stroke-linejoin="round" d=" M 1373.947, 542.023 1374.536, 544.606 " />
            <path fill="none" stroke-width="3.0" stroke-linecap="butt" stroke-opacity="1.0" stroke="rgb(0, 0, 0)" stroke-linejoin="round" d=" M 1371.417, 534.495 1372.385, 536.961 1373.229, 539.472 1373.947, 542.023 " />
            <path fill="none" stroke-width="3.0" stroke-linecap="butt" stroke-opacity="1.0" stroke="rgb(0, 0, 0)" stroke-linejoin="round" d=" M 1370.328, 532.080 1371.417, 534.495 " />
            <path fill="none" stroke-width="3.0" stroke-linecap="butt" stroke-opacity="1.0" stroke="rgb(0, 0, 0)" stroke-linejoin="round" d=" M 1355.583, 513.590 1357.613, 515.293 1359.555, 517.096 1361.405, 518.992 1363.158, 520.979 1364.810, 523.050 1366.357, 525.201 1367.794, 527.427 1369.119, 529.721 1370.328, 532.080 " />
            <path fill="none" stroke-width="3.0" stroke-linecap="butt" stroke-opacity="1.0" stroke="rgb(0, 0, 0)" stroke-linejoin="round" d=" M 1353.471, 511.990 1355.583, 513.590 " />
            <path fill="none" stroke-width="3.0" stroke-linecap="butt" stroke-opacity="1.0" stroke="rgb(0, 0, 0)" stroke-linejoin="round" d=" M 3089.622, 1934.068 3090.498, 1934.069 3100.498, 1934.070 3110.498, 1934.072 3120.498, 1934.074 3130.498, 1934.076 3140.498, 1934.077 3150.498, 1934.079 3160.498, 1934.081 3170.498, 1934.083 3180.498, 1934.084 3190.498, 1934.086 3200.498, 1934.088 3210.498, 1934.090 3220.498, 1934.091 3230.498, 1934.093 3240.498, 1934.095 3250.498, 1934.097 3260.498, 1934.098 3270.498, 1934.100 3280.498, 1934.102 3290.498, 1934.104 3300.498, 1934.105 3310.498, 1934.107 3320.498, 1934.109 3330.498, 1934.111 3340.498, 1934.112 3350.498, 1934.114 3360.498, 1934.116 3370.498, 1934.118 3380.498, 1934.119 3390.498, 1934.121 3400.498, 1934.123 3410.498, 1934.125 3420.498, 1934.126 3430.498, 1934.128 3440.498, 1934.130 3450.498, 1934.132 3460.498, 1934.133 3470.498, 1934.135 3480.498, 1934.137 3490.498, 1934.139 3500.498, 1934.140 3510.498, 1934.142 3520.498, 1934.144 3530.498, 1934.146 3540.498, 1934.147 3550.498, 1934.149 3560.498, 1934.151 3570.498, 1934.153 3580.498, 1934.154 3590.498, 1934.156 3600.498, 1934.158 3610.498, 1934.160 3620.498, 1934.161 3630.498, 1934.163 3640.498, 1934.165 3650.498, 1934.167 3660.498, 1934.168 3670.498, 1934.170 3680.498, 1934.172 3690.498, 1934.174 3700.498, 1934.175 3710.498, 1934.177 3720.498, 1934.179 3730.498, 1934.181 3740.498, 1934.182 3750.498, 1934.184 3760.498, 1934.186 3770.498, 1934.188 3780.498, 1934.189 3790.498, 1934.191 3800.498, 1934.193 3810.852, 1934.195 3820.852, 1934.196 3830.852, 1934.198 3840.852, 1934.200 3850.852, 1934.202 3860.852, 1934.203 3870.852, 1934.205 3880.852, 1934.207 3890.852, 1934.209 3900.852, 1934.210 3910.852, 1934.212 3920.852, 1934.214 3930.852, 1934.216 3940.852, 1934.217 3950.852, 1934.219 3960.852, 1934.221 3970.852, 1934.223 3980.852, 1934.224 3990.852, 1934.226 4000.852, 1934.228 4010.852, 1934.230 4020.852, 1934.231 4030.852, 1934.233 4040.852, 1934.235 4050.852, 1934.237 4060.852, 1934.238 4070.852, 1934.240 4080.852, 1934.242 4090.852, 1934.244 4100.852, 1934.245 4110.852, 1934.247 4120.852, 1934.249 4130.852, 1934.251 4140.852, 1934.252 4150.852, 1934.254 4160.852, 1934.256 4170.852, 1934.257 4180.852, 1934.259 4190.852, 1934.261 4200.852, 1934.263 4210.852, 1934.264 4220.852, 1934.266 4230.852, 1934.268 4240.852, 1934.270 4250.852, 1934.271 4260.852, 1934.273 4270.852, 1934.275 4280.852, 1934.277 4290.852, 1934.278 4300.852, 1934.280 4310.852, 1934.282 4320.852, 1934.284 4330.852, 1934.285 4340.852, 1934.287 4350.852, 1934.289 4360.852, 1934.291 4370.852, 1934.292 4380.852, 1934.294 4390.852, 1934.296 4400.852, 1934.298 4410.852, 1934.299 4420.852, 1934.301 4435.638, 1934.304 4445.638, 1934.305 4455.638, 1934.307 4465.638, 1934.309 4475.638, 1934.311 4485.638, 1934.312 4495.638, 1934.314 4505.638, 1934.316 4515.638, 1934.318 4525.638, 1934.319 4535.638, 1934.321 4545.638, 1934.323 4555.638, 1934.325 4565.638, 1934.326 4575.638, 1934.328 4585.638, 1934.330 4595.638, 1934.332 4605.638, 1934.333 4615.638, 1934.335 4625.638, 1934.337 4635.638, 1934.338 4645.638, 1934.340 4655.638, 1934.342 4665.638, 1934.344 4675.638, 1934.345 4685.638, 1934.347 4695.638, 1934.349 4705.638, 1934.351 4715.638, 1934.352 4725.638, 1934.354 4735.638, 1934.356 4745.638, 1934.358 4755.638, 1934.359 4765.638, 1934.361 4775.638, 1934.363 4785.638, 1934.365 4795.638, 1934.366 4805.638, 1934.368 4815.638, 1934.370 4825.638, 1934.372 4835.638, 1934.373 4845.638, 1934.375 4855.638, 1934.377 4865.638, 1934.378 4875.638, 1934.380 4885.638, 1934.382 4895.638, 1934.384 4905.638, 1934.385 4915.638, 1934.387 4921.624, 1934.388 4917.716, 1925.183 4913.809, 1915.978 4909.901, 1906.774 4905.993, 1897.569 4902.085, 1888.364 4898.178, 1879.159 4894.270, 1869.954 4890.362, 1860.749 4886.455, 1851.544 4882.547, 1842.339 4878.640, 1833.134 4874.732, 1823.930 4870.824, 1814.725 4866.917, 1805.520 4863.009, 1796.315 4862.386, 1794.849 " />
            <path fill="none" stroke-width="3.0" stroke-linecap="butt" stroke-opacity="1.0" stroke="rgb(0, 0, 0)" stroke-linejoin="round" d=" M 2216.919, 740.381 2226.876, 739.452 2236.833, 738.523 2246.790, 737.594 2256.746, 736.665 2266.703, 735.736 2276.660, 734.807 2286.616, 733.878 2296.573, 732.949 2306.530, 732.020 2316.487, 731.091 2326.444, 730.162 2336.400, 729.233 2346.357, 728.304 2356.314, 727.375 2366.271, 726.446 2376.227, 725.517 2386.184, 724.588 2396.141, 723.659 2406.098, 722.730 2416.054, 721.801 2426.011, 720.872 2435.968, 719.943 2445.925, 719.014 2455.881, 718.085 2461.044, 717.603 " />
            <path fill="none" stroke-width="3.0" stroke-linecap="butt" stroke-opacity="1.0" stroke="rgb(0, 0, 0)" stroke-linejoin="round" d=" M 2461.044, 717.603 2466.377, 726.062 2471.710, 734.522 2477.043, 742.981 2482.376, 751.440 2487.709, 759.899 2493.042, 768.359 2498.375, 776.818 2503.708, 785.277 2509.042, 793.736 2514.375, 802.196 2519.708, 810.655 2525.041, 819.114 2530.374, 827.573 2535.707, 836.033 2541.040, 844.492 2546.373, 852.951 2551.706, 861.411 2557.039, 869.870 2562.372, 878.329 2567.705, 886.788 2573.038, 895.248 2578.371, 903.707 2583.704, 912.166 2589.036, 920.625 2594.369, 929.085 2599.702, 937.544 2605.035, 946.003 2610.368, 954.462 2615.701, 962.922 2621.034, 971.381 2626.367, 979.840 2631.700, 988.299 2637.033, 996.759 2642.366, 1005.218 2647.699, 1013.677 2653.032, 1022.136 2658.365, 1030.596 2664.681, 1040.614 " />
            <path fill="none" stroke-width="3.0" stroke-linecap="butt" stroke-opacity="1.0" stroke="rgb(0, 0, 0)" stroke-linejoin="round" d=" M 4830.737, 1561.169 4823.613, 1554.151 4816.490, 1547.133 4809.366, 1540.115 4802.242, 1533.097 4795.119, 1526.079 4787.995, 1519.061 4780.872, 1512.043 4773.748, 1505.025 4766.624, 1498.007 4759.500, 1490.988 4752.377, 1483.970 4745.253, 1476.952 4738.129, 1469.934 4731.006, 1462.916 4723.882, 1455.898 4716.759, 1448.880 4709.635, 1441.862 4702.511, 1434.844 4695.388, 1427.826 4688.264, 1420.807 4681.141, 1413.789 4674.017, 1406.771 4672.216, 1404.997 4669.106, 1395.493 4665.996, 1385.989 4662.885, 1376.485 4659.775, 1366.981 4656.665, 1357.477 4653.554, 1347.974 4652.492, 1344.729 " />
            <path fill="none" stroke-width="3.0" stroke-linecap="butt" stroke-opacity="1.0" stroke="rgb(0, 0, 0)" stroke-linejoin="round" d=" M 4652.492, 1344.729 4651.855, 1334.749 4651.218, 1324.769 4650.581, 1314.789 4649.944, 1304.810 4649.307, 1294.830 4648.670, 1284.850 4648.033, 1274.871 4647.396, 1264.891 4646.759, 1254.911 4646.123, 1244.932 4645.485, 1234.952 4644.849, 1224.972 4644.212, 1214.993 4643.575, 1205.013 4642.938, 1195.033 4642.301, 1185.053 4641.664, 1175.074 4641.027, 1165.094 4640.390, 1155.114 4639.753, 1145.135 4639.116, 1135.155 4638.479, 1125.175 4637.842, 1115.196 4637.205, 1105.216 4636.568, 1095.236 4635.932, 1085.257 4635.294, 1075.277 4634.658, 1065.297 4634.021, 1055.317 4633.384, 1045.338 4632.747, 1035.358 4632.110, 1025.378 4631.473, 1015.399 4630.836, 1005.419 4630.199, 995.439 4629.562, 985.460 4628.925, 975.480 4628.288, 965.500 4627.651, 955.521 4627.014, 945.541 4626.377, 935.561 4625.901, 928.106 4623.919, 918.305 4621.938, 908.503 4619.956, 898.701 4617.974, 888.900 4615.992, 879.098 4614.010, 869.296 4612.029, 859.495 4610.047, 849.693 4608.065, 839.891 4606.083, 830.090 4604.101, 820.288 4602.120, 810.487 4600.138, 800.685 4598.156, 790.883 4596.174, 781.082 4594.192, 771.280 4592.210, 761.478 4590.229, 751.677 4588.247, 741.875 4586.265, 732.073 4584.283, 722.272 4582.301, 712.470 4580.319, 702.668 4578.337, 692.867 4576.355, 683.065 4574.374, 673.263 4572.392, 663.462 4570.410, 653.660 4568.428, 643.859 4566.446, 634.057 4564.464, 624.255 4562.483, 614.454 4560.501, 604.652 4558.519, 594.850 4556.537, 585.049 4554.555, 575.247 4552.574, 565.445 4550.592, 555.644 4548.610, 545.842 4546.628, 536.040 4544.646, 526.239 4542.665, 516.437 4541.263, 509.508 4537.683, 500.172 4534.102, 490.834 4530.521, 481.498 4526.940, 472.161 4523.360, 462.824 4519.779, 453.487 4516.198, 444.150 4512.618, 434.813 4509.037, 425.476 4505.456, 416.139 4501.875, 406.802 4498.295, 397.465 4495.713, 390.735 4494.389, 380.823 4493.065, 370.911 4491.741, 360.999 4490.417, 351.087 4489.593, 344.919 " />
            <path fill="none" stroke-width="3.0" stroke-linecap="butt" stroke-opacity="1.0" stroke="rgb(0, 0, 0)" stroke-linejoin="round" d=" M 4489.593, 344.919 4487.187, 335.213 4484.782, 325.506 4482.376, 315.800 4479.971, 306.094 4477.565, 296.387 4475.160, 286.681 4472.754, 276.975 4470.349, 267.268 4467.943, 257.562 4465.538, 247.856 4463.132, 238.149 4460.727, 228.443 4458.321, 218.737 4455.916, 209.030 4453.510, 199.324 4451.104, 189.617 4448.699, 179.911 4446.293, 170.205 4443.888, 160.498 4441.482, 150.792 4439.077, 141.086 4436.671, 131.379 4434.266, 121.673 4431.860, 111.967 4429.455, 102.260 4427.049, 92.554 4424.644, 82.847 4422.238, 73.141 4419.833, 63.435 4417.427, 53.728 4415.021, 44.022 4412.616, 34.316 4409.966, 23.625 4409.966, 23.624 4409.966, 23.622 4404.578, 23.622 4404.551, 23.622 4404.523, 23.622 4404.497, 23.622 4404.470, 23.622 4404.444, 23.622 4404.419, 23.622 4404.394, 23.622 4404.370, 23.622 4394.370, 23.622 4384.370, 23.622 4374.370, 23.622 4364.370, 23.622 4354.370, 23.622 4344.370, 23.622 4334.370, 23.622 4324.370, 23.622 4314.370, 23.622 4304.370, 23.622 4294.370, 23.622 4284.370, 23.622 4274.370, 23.622 4264.370, 23.622 4254.370, 23.622 4244.370, 23.622 4234.370, 23.622 4224.370, 23.622 4214.370, 23.622 4204.370, 23.622 4194.370, 23.622 4184.370, 23.622 4174.370, 23.622 4164.370, 23.622 4154.370, 23.622 4144.370, 23.622 4134.370, 23.622 4124.370, 23.622 4114.370, 23.622 4104.370, 23.622 4094.370, 23.622 4084.370, 23.622 4074.370, 23.622 4064.370, 23.622 4054.370, 23.622 4044.370, 23.622 4034.370, 23.622 4024.370, 23.622 4014.370, 23.622 4004.370, 23.622 3991.248, 23.622 3989.871, 23.622 3988.518, 23.622 3987.194, 23.622 3985.904, 23.622 3984.649, 23.622 3983.436, 23.622 3982.266, 23.622 3981.144, 23.622 3980.072, 23.622 3979.053, 23.622 3978.091, 23.622 3968.091, 23.622 3958.091, 23.622 3948.091, 23.622 3938.091, 23.622 3928.091, 23.622 3918.091, 23.622 3908.091, 23.622 3898.091, 23.622 3888.091, 23.622 3878.091, 23.622 3868.091, 23.622 3858.091, 23.622 3848.091, 23.622 3841.595, 23.622 3840.238, 23.622 3830.238, 23.622 3820.238, 23.622 3810.238, 23.622 3800.238, 23.622 3790.238, 23.622 3780.238, 23.622 3770.238, 23.622 3760.238, 23.622 3750.238, 23.622 3740.238, 23.622 3730.238, 23.622 3720.238, 23.622 3710.238, 23.622 3700.238, 23.622 3690.238, 23.622 3680.238, 23.622 3670.238, 23.622 3660.238, 23.622 3650.238, 23.622 3640.238, 23.622 3630.238, 23.622 3620.238, 23.622 3610.238, 23.622 3600.238, 23.622 3590.238, 23.622 3580.238, 23.622 3570.238, 23.622 3560.238, 23.622 3550.238, 23.622 3540.238, 23.622 3530.238, 23.622 3520.238, 23.622 3510.238, 23.622 3500.238, 23.622 3490.238, 23.622 3480.238, 23.622 3470.238, 23.622 3460.238, 23.622 3450.238, 23.622 3440.238, 23.622 3430.238, 23.622 3420.238, 23.622 3410.238, 23.622 3400.238, 23.622 3390.238, 23.622 3380.238, 23.622 3370.238, 23.622 3360.238, 23.622 3350.238, 23.622 3340.238, 23.622 3330.238, 23.622 3320.238, 23.622 3310.238, 23.622 3300.238, 23.622 3290.238, 23.622 3280.238, 23.622 3272.961, 23.622 3262.961, 23.622 3252.961, 23.622 3242.961, 23.622 3232.961, 23.622 3222.961, 23.622 3212.961, 23.622 3202.961, 23.622 3192.961, 23.622 3182.961, 23.622 3172.961, 23.622 3162.961, 23.622 3152.961, 23.622 3142.961, 23.622 3139.205, 23.622 3129.205, 23.622 3119.205, 23.622 3109.205, 23.622 3099.205, 23.622 3089.205, 23.622 3079.205, 23.622 3069.205, 23.622 3059.205, 23.622 3049.205, 23.622 3039.205, 23.622 3029.205, 23.622 3019.205, 23.622 3009.205, 23.622 2999.205, 23.622 2989.205, 23.622 2979.205, 23.622 2969.205, 23.622 2959.205, 23.622 2949.205, 23.622 2939.205, 23.622 2929.205, 23.622 2919.205, 23.622 2909.205, 23.622 2899.205, 23.622 2889.205, 23.622 2879.205, 23.622 2869.205, 23.622 2859.205, 23.622 2849.205, 23.622 2839.205, 23.622 2829.205, 23.622 2819.205, 23.622 2815.595, 23.622 2805.595, 23.622 2795.595, 23.622 2785.595, 23.622 2775.595, 23.622 2765.595, 23.622 2755.595, 23.622 2745.595, 23.622 2735.595, 23.622 2725.595, 23.622 2715.595, 23.622 2705.595, 23.622 2695.595, 23.622 2685.595, 23.622 2675.595, 23.622 2665.595, 23.622 2655.595, 23.622 2645.595, 23.622 2635.595, 23.622 2625.595, 23.622 2615.595, 23.622 2605.595, 23.622 2595.595, 23.622 2585.595, 23.622 2575.595, 23.622 2565.595, 23.622 2555.595, 23.622 2545.595, 23.622 2535.595, 23.622 2525.595, 23.622 2515.595, 23.622 2505.595, 23.622 2495.595, 23.622 2485.595, 23.622 2475.595, 23.622 2465.595, 23.622 2455.595, 23.622 2445.595, 23.622 2435.595, 23.622 2425.595, 23.622 2415.595, 23.622 2405.595, 23.622 2395.595, 23.622 2385.595, 23.622 2375.595, 23.622 2365.595, 23.622 2355.595, 23.622 2345.595, 23.622 2335.595, 23.622 2325.595, 23.622 2315.595, 23.622 2305.595, 23.622 2295.595, 23.622 2285.595, 23.622 2275.595, 23.622 2265.595, 23.622 2255.595, 23.622 2245.595, 23.622 2235.595, 23.622 2225.595, 23.622 2215.595, 23.622 2205.595, 23.622 2195.595, 23.622 2185.595, 23.622 2175.595, 23.622 2165.595, 23.622 2155.595, 23.622 2145.595, 23.622 2135.595, 23.622 2125.595, 23.622 2115.595, 23.622 2105.595, 23.622 2095.595, 23.622 2085.595, 23.622 2075.595, 23.622 2065.595, 23.622 2055.595, 23.622 2045.595, 23.622 2035.595, 23.622 2025.595, 23.622 2015.595, 23.622 2005.595, 23.622 1995.595, 23.622 1985.595, 23.622 1975.595, 23.622 1965.595, 23.622 1952.500, 23.622 1942.500, 23.622 1932.500, 23.622 1922.500, 23.622 1912.500, 23.622 1902.500, 23.622 1892.500, 23.622 1882.500, 23.622 1872.500, 23.622 1862.500, 23.622 1852.500, 23.622 1842.500, 23.622 1834.204, 23.622 1824.204, 23.622 1814.204, 23.622 1804.204, 23.622 1794.204, 23.622 1784.204, 23.622 1774.204, 23.622 1764.204, 23.622 1754.204, 23.622 1744.204, 23.622 1734.204, 23.622 1724.204, 23.622 1714.204, 23.622 1704.204, 23.622 1694.204, 23.622 1684.204, 23.622 1674.204, 23.622 1670.917, 23.622 1660.917, 23.622 1650.917, 23.622 1640.917, 23.622 1630.917, 23.622 1620.917, 23.622 1610.917, 23.622 1600.917, 23.622 1590.917, 23.622 1580.917, 23.622 1570.917, 23.622 1560.917, 23.622 1550.917, 23.622 1540.917, 23.622 1530.917, 23.622 1520.917, 23.622 1510.917, 23.622 1500.917, 23.622 1490.917, 23.622 1480.917, 23.622 1470.917, 23.622 1460.917, 23.622 1450.917, 23.622 1440.917, 23.622 1430.917, 23.622 1420.917, 23.622 1410.917, 23.622 1400.917, 23.622 1390.917, 23.622 1380.917, 23.622 1370.917, 23.622 1360.917, 23.622 1350.917, 23.622 1340.917, 23.622 1330.917, 23.622 1320.917, 23.622 1310.917, 23.622 1300.917, 23.622 1290.917, 23.622 1280.917, 23.622 1270.917, 23.622 1260.917, 23.622 1250.917, 23.622 1240.917, 23.622 1230.917, 23.622 1220.917, 23.622 1210.917, 23.622 1200.917, 23.622 1190.917, 23.622 1185.277, 23.622 1184.017, 23.622 1174.017, 23.622 1164.017, 23.622 1154.017, 23.622 1144.017, 23.622 1134.017, 23.622 1124.017, 23.622 1114.017, 23.622 1104.017, 23.622 1094.354, 23.622 1093.335, 23.622 1092.238, 23.622 1091.068, 23.622 1089.827, 23.622 1088.519, 23.622 1087.146, 23.622 1085.714, 23.622 1075.714, 23.622 1065.714, 23.622 1055.714, 23.622 1045.714, 23.622 1035.714, 23.622 1025.714, 23.622 1015.187, 23.622 1005.187, 23.622 995.187, 23.622 985.187, 23.622 975.187, 23.622 965.187, 23.622 955.187, 23.622 945.187, 23.622 937.399, 23.622 936.362, 23.622 935.267, 23.622 934.119, 23.622 932.920, 23.622 931.675, 23.622 930.387, 23.622 929.059, 23.622 927.696, 23.622 926.301, 23.622 924.880, 23.622 923.435, 23.622 913.435, 23.622 903.435, 23.622 893.435, 23.622 883.435, 23.622 873.435, 23.622 863.435, 23.622 853.435, 23.622 843.435, 23.622 833.435, 23.622 823.435, 23.622 813.435, 23.622 803.435, 23.622 793.435, 23.622 783.435, 23.622 773.435, 23.622 763.435, 23.622 753.435, 23.622 743.435, 23.622 733.435, 23.622 723.435, 23.622 713.435, 23.622 703.435, 23.622 698.560, 23.622 697.706, 23.622 696.833, 23.622 686.833, 23.622 676.833, 23.622 666.833, 23.622 656.833, 23.622 646.833, 23.622 636.833, 23.622 626.833, 23.622 616.833, 23.622 606.833, 23.622 596.833, 23.622 586.833, 23.622 576.833, 23.622 566.833, 23.622 556.833, 23.622 546.833, 23.622 536.833, 23.622 526.833, 23.622 516.833, 23.622 506.833, 23.622 499.975, 23.622 499.959, 23.738 498.656, 33.653 498.612, 33.989 " />
            <path fill="none" stroke-width="3.0" stroke-linecap="butt" stroke-opacity="1.0" stroke="rgb(0, 0, 0)" stroke-linejoin="round" d=" M 499.959, 23.738 499.974, 23.625 499.975, 23.622 498.672, 33.536 498.612, 33.989 " />
            <path fill="none" stroke-width="3.0" stroke-linecap="butt" stroke-opacity="1.0" stroke="rgb(0, 0, 0)" stroke-linejoin="round" d=" M 1044.998, 1933.712 1034.998, 1933.710 1024.998, 1933.708 1014.998, 1933.707 1004.998, 1933.705 994.998, 1933.703 984.998, 1933.701 974.998, 1933.700 964.998, 1933.698 954.998, 1933.696 944.998, 1933.694 934.998, 1933.693 924.998, 1933.691 914.998, 1933.689 904.998, 1933.687 894.998, 1933.686 884.998, 1933.684 874.998, 1933.682 864.998, 1933.680 854.998, 1933.679 844.998, 1933.677 834.998, 1933.675 824.998, 1933.673 814.998, 1933.672 804.998, 1933.670 794.998, 1933.668 784.998, 1933.666 774.998, 1933.665 764.998, 1933.663 754.998, 1933.661 744.998, 1933.659 734.998, 1933.658 724.998, 1933.656 714.998, 1933.654 704.998, 1933.652 694.998, 1933.651 684.998, 1933.649 674.998, 1933.647 664.998, 1933.646 654.998, 1933.644 644.998, 1933.642 634.998, 1933.640 624.998, 1933.639 614.998, 1933.637 604.998, 1933.635 594.998, 1933.633 584.998, 1933.632 574.998, 1933.630 564.998, 1933.628 554.998, 1933.626 544.998, 1933.625 534.998, 1933.623 524.998, 1933.621 514.998, 1933.619 504.998, 1933.618 494.998, 1933.616 484.998, 1933.614 474.998, 1933.612 464.998, 1933.611 454.998, 1933.609 444.998, 1933.607 434.998, 1933.605 424.998, 1933.604 414.998, 1933.602 404.998, 1933.600 394.998, 1933.598 384.998, 1933.597 374.998, 1933.595 364.998, 1933.593 354.998, 1933.591 344.998, 1933.590 334.998, 1933.588 324.998, 1933.586 314.998, 1933.584 304.998, 1933.583 294.998, 1933.581 284.998, 1933.579 274.998, 1933.577 264.998, 1933.576 254.998, 1933.574 244.998, 1933.572 234.998, 1933.570 224.998, 1933.569 214.998, 1933.567 204.998, 1933.565 194.998, 1933.563 184.998, 1933.562 174.998, 1933.560 164.998, 1933.558 154.998, 1933.557 144.998, 1933.555 134.998, 1933.553 124.998, 1933.551 114.998, 1933.550 104.998, 1933.548 94.998, 1933.546 84.998, 1933.544 74.998, 1933.543 64.998, 1933.541 54.998, 1933.539 44.998, 1933.537 34.998, 1933.536 24.396, 1933.534 24.397, 1933.530 26.897, 1925.143 " />
            <path fill="none" stroke-width="3.0" stroke-linecap="butt" stroke-opacity="1.0" stroke="rgb(0, 0, 0)" stroke-linejoin="round" d=" M 26.897, 1925.143 24.397, 1933.530 24.396, 1933.534 " />
            <path fill="none" stroke-width="3.0" stroke-linecap="butt" stroke-opacity="1.0" stroke="rgb(0, 0, 0)" stroke-linejoin="round" d=" M 3527.932, 902.121 3525.414, 899.540 3523.027, 896.836 3520.779, 894.016 3518.674, 891.087 3516.717, 888.059 3514.914, 884.936 3513.269, 881.726 3511.785, 878.439 3510.468, 875.081 3509.319, 871.664 3508.343, 868.192 3507.540, 864.676 3506.914, 861.125 3506.466, 857.546 3506.196, 853.950 3506.106, 850.345 3506.196, 846.740 3506.466, 843.143 3506.914, 839.565 3507.540, 836.014 3508.343, 832.497 3509.319, 829.027 3510.468, 825.608 3511.785, 822.251 3513.269, 818.964 3514.914, 815.754 3516.717, 812.631 3518.674, 809.602 3520.779, 806.674 3523.027, 803.855 3525.414, 801.151 3527.932, 798.569 3530.575, 796.116 3533.338, 793.798 3536.213, 791.620 3539.192, 789.589 3542.270, 787.709 3545.437, 785.984 3548.686, 784.419 3552.009, 783.018 3555.398, 781.785 3558.844, 780.722 3562.339, 779.832 3565.873, 779.118 3569.439, 778.580 3573.028, 778.221 3576.629, 778.041 3580.236, 778.041 3583.838, 778.221 3587.426, 778.580 3590.992, 779.118 3594.527, 779.832 3598.022, 780.722 3601.468, 781.785 3604.856, 783.018 3608.180, 784.419 3611.429, 785.984 3614.596, 787.709 3617.673, 789.589 3620.653, 791.620 3623.528, 793.798 3626.290, 796.116 3628.934, 798.569 3631.452, 801.151 3633.838, 803.855 3636.086, 806.674 3638.192, 809.602 3640.148, 812.631 3641.951, 815.754 3643.597, 818.964 3645.080, 822.251 3646.397, 825.608 3647.546, 829.027 3648.523, 832.497 3649.325, 836.014 3649.951, 839.565 3650.400, 843.143 3650.669, 846.740 3650.759, 850.345 3650.669, 853.950 3650.400, 857.546 3649.951, 861.125 3649.325, 864.676 3648.523, 868.192 3647.546, 871.664 3646.397, 875.081 3645.080, 878.439 3643.597, 881.726 3641.951, 884.936 3640.148, 888.059 3638.192, 891.087 3636.086, 894.016 3633.838, 896.836 3631.452, 899.540 3628.934, 902.121 3626.290, 904.574 3623.528, 906.892 3620.653, 909.070 3617.673, 911.101 3614.596, 912.981 3611.429, 914.706 3608.180, 916.271 3604.856, 917.672 3601.468, 918.905 3598.022, 919.968 3594.527, 920.858 3590.992, 921.573 3587.426, 922.110 3583.838, 922.469 3580.236, 922.649 3576.629, 922.649 3573.028, 922.469 3569.439, 922.110 3565.873, 921.573 3562.339, 920.858 3558.844, 919.968 3555.398, 918.905 3552.009, 917.672 3548.686, 916.271 3545.437, 914.706 3542.270, 912.981 3539.192, 911.101 3536.213, 909.070 3533.338, 906.892 3530.575, 904.574 3527.932, 902.121 " />
            <path fill="none" stroke-width="3.0" stroke-linecap="butt" stroke-opacity="1.0" stroke="rgb(0, 0, 0)" stroke-linejoin="round" d=" M 2001.994, 1933.877 2001.994, 1933.876 " />
            <path fill="none" stroke-width="3.0" stroke-linecap="butt" stroke-opacity="1.0" stroke="rgb(0, 0, 0)" stroke-linejoin="round" d=" M 2781.416, 1934.014 2781.417, 1934.015 2781.416, 1934.014 " />
            <path fill="none" stroke-width="3.0" stroke-linecap="butt" stroke-opacity="1.0" stroke="rgb(0, 0, 0)" stroke-linejoin="round" d=" M 2781.416, 1934.014 2781.416, 1934.014 " />
            <path fill="none" stroke-width="3.0" stroke-linecap="butt" stroke-opacity="1.0" stroke="rgb(0, 0, 0)" stroke-linejoin="round" d=" M 2781.416, 1934.014 2781.416, 1934.014 " />
            <path fill="none" stroke-width="3.0" stroke-linecap="butt" stroke-opacity="1.0" stroke="rgb(0, 0, 0)" stroke-linejoin="round" d=" M 2781.416, 1934.014 2781.416, 1934.014 " />
            <path fill="none" stroke-width="3.0" stroke-linecap="butt" stroke-opacity="1.0" stroke="rgb(0, 0, 0)" stroke-linejoin="round" d=" M 2781.416, 1934.014 2781.416, 1934.014 " />
            <path fill="none" stroke-width="3.0" stroke-linecap="butt" stroke-opacity="1.0" stroke="rgb(0, 0, 0)" stroke-linejoin="round" d=" M 2781.416, 1934.014 2781.416, 1934.014 " />
            <path fill="none" stroke-width="3.0" stroke-linecap="butt" stroke-opacity="1.0" stroke="rgb(0, 0, 0)" stroke-linejoin="round" d=" M 2781.416, 1934.014 2781.416, 1934.014 " />
            <path fill="none" stroke-width="3.0" stroke-linecap="butt" stroke-opacity="1.0" stroke="rgb(0, 0, 0)" stroke-linejoin="round" d=" M 2781.416, 1934.014 2781.416, 1934.014 " />
            <path fill="none" stroke-width="3.0" stroke-linecap="butt" stroke-opacity="1.0" stroke="rgb(0, 0, 0)" stroke-linejoin="round" d=" M 2781.416, 1934.014 2781.416, 1934.014 " />
            <path fill="none" stroke-width="3.0" stroke-linecap="butt" stroke-opacity="1.0" stroke="rgb(0, 0, 0)" stroke-linejoin="round" d=" M 2781.416, 1934.014 2781.416, 1934.014 " />
            <path fill="none" stroke-width="3.0" stroke-linecap="butt" stroke-opacity="1.0" stroke="rgb(0, 0, 0)" stroke-linejoin="round" d=" M 2781.416, 1934.014 2781.416, 1934.014 " />
            <path fill="none" stroke-width="3.0" stroke-linecap="butt" stroke-opacity="1.0" stroke="rgb(0, 0, 0)" stroke-linejoin="round" d=" M 2781.416, 1934.014 2781.416, 1934.014 " />
            <path fill="none" stroke-width="3.0" stroke-linecap="butt" stroke-opacity="1.0" stroke="rgb(0, 0, 0)" stroke-linejoin="round" d=" M 2781.416, 1934.014 2781.416, 1934.014 " />
            <path fill="none" stroke-width="3.0" stroke-linecap="butt" stroke-opacity="1.0" stroke="rgb(0, 0, 0)" stroke-linejoin="round" d=" M 2781.416, 1934.014 2781.416, 1934.014 " />
            <path fill="none" stroke-width="3.0" stroke-linecap="butt" stroke-opacity="1.0" stroke="rgb(0, 0, 0)" stroke-linejoin="round" d=" M 2781.416, 1934.014 2781.416, 1934.014 " />
            <path fill="none" stroke-width="3.0" stroke-linecap="butt" stroke-opacity="1.0" stroke="rgb(0, 0, 0)" stroke-linejoin="round" d=" M 26.897, 1925.143 24.397, 1933.530 24.396, 1933.534 " />
            <path fill="none" stroke-width="3.0" stroke-linecap="butt" stroke-opacity="1.0" stroke="rgb(0, 0, 0)" stroke-linejoin="round" d=" M 24.397, 1933.530 24.397, 1933.530 " />
            <path fill="none" stroke-width="3.0" stroke-linecap="butt" stroke-opacity="1.0" stroke="rgb(0, 0, 0)" stroke-linejoin="round" d=" M 191.454, 1619.345 186.715, 1628.151 181.977, 1636.957 177.238, 1645.763 172.499, 1654.569 167.760, 1663.375 163.022, 1672.181 158.283, 1680.987 153.544, 1689.793 148.806, 1698.599 144.067, 1707.404 139.328, 1716.210 134.590, 1725.016 129.851, 1733.822 125.112, 1742.628 120.374, 1751.434 115.635, 1760.240 110.896, 1769.046 106.158, 1777.852 101.419, 1786.658 96.680, 1795.464 91.941, 1804.270 87.203, 1813.076 82.464, 1821.882 77.725, 1830.688 72.987, 1839.494 68.248, 1848.300 63.509, 1857.106 58.771, 1865.912 54.032, 1874.718 49.293, 1883.524 44.555, 1892.330 39.816, 1901.135 35.077, 1909.941 30.339, 1918.747 26.897, 1925.143 " />
            <path fill="none" stroke-width="3.0" stroke-linecap="butt" stroke-opacity="1.0" stroke="rgb(0, 0, 0)" stroke-linejoin="round" d=" M 1298.210, 602.421 1295.883, 601.153 " />
            <path fill="none" stroke-width="3.0" stroke-linecap="butt" stroke-opacity="1.0" stroke="rgb(0, 0, 0)" stroke-linejoin="round" d=" M 1349.021, 601.153 1346.694, 602.421 " />
            <path fill="none" stroke-width="3.0" stroke-linecap="butt" stroke-opacity="1.0" stroke="rgb(0, 0, 0)" stroke-linejoin="round" d=" M 2097.253, 927.065 2102.649, 918.646 2108.046, 910.227 2113.443, 901.808 2118.839, 893.389 2124.236, 884.970 2129.632, 876.552 2135.029, 868.133 2140.426, 859.714 2145.822, 851.295 2151.219, 842.876 2156.615, 834.457 2162.012, 826.039 2167.408, 817.620 2172.805, 809.201 2178.202, 800.782 2183.598, 792.363 2188.995, 783.944 2194.391, 775.526 2199.788, 767.107 2205.185, 758.688 2210.581, 750.269 2216.919, 740.381 " />
            <path fill="none" stroke-width="3.0" stroke-linecap="butt" stroke-opacity="1.0" stroke="rgb(0, 0, 0)" stroke-linejoin="round" d=" M 2703.302, 1784.942 2707.944, 1793.800 2712.585, 1802.657 2717.226, 1811.515 2721.868, 1820.373 2726.509, 1829.230 2731.151, 1838.088 2735.792, 1846.945 2740.433, 1855.803 2745.075, 1864.661 2749.716, 1873.518 2754.357, 1882.376 2758.999, 1891.233 2763.640, 1900.091 2768.282, 1908.949 2772.923, 1917.806 2777.564, 1926.664 2781.416, 1934.014 " />
            <path fill="none" stroke-width="3.0" stroke-linecap="butt" stroke-opacity="1.0" stroke="rgb(0, 0, 0)" stroke-linejoin="round" d=" M 2781.416, 1934.013 2781.416, 1934.014 " />
            <path fill="none" stroke-width="3.0" stroke-linecap="butt" stroke-opacity="1.0" stroke="rgb(0, 0, 0)" stroke-linejoin="round" d=" M 2703.302, 1784.942 2707.944, 1793.800 2712.585, 1802.657 2717.226, 1811.515 2721.868, 1820.372 2726.509, 1829.230 2731.151, 1838.088 2735.792, 1846.945 2740.433, 1855.803 2745.075, 1864.661 2749.716, 1873.518 2754.357, 1882.376 2758.999, 1891.233 2763.640, 1900.091 2768.282, 1908.949 2772.923, 1917.806 2777.564, 1926.664 2781.416, 1934.013 2781.416, 1934.014 " />
            <path fill="none" stroke-width="3.0" stroke-linecap="butt" stroke-opacity="1.0" stroke="rgb(0, 0, 0)" stroke-linejoin="round" d=" M 2781.416, 1934.014 2781.416, 1934.013 " />
            <path fill="none" stroke-width="3.0" stroke-linecap="butt" stroke-opacity="1.0" stroke="rgb(0, 0, 0)" stroke-linejoin="round" d=" M 2781.416, 1934.014 2781.416, 1934.014 " />
            <path fill="none" stroke-width="3.0" stroke-linecap="butt" stroke-opacity="1.0" stroke="rgb(0, 0, 0)" stroke-linejoin="round" d=" M 2781.416, 1934.014 2781.416, 1934.014 " />
            <path fill="none" stroke-width="3.0" stroke-linecap="butt" stroke-opacity="1.0" stroke="rgb(0, 0, 0)" stroke-linejoin="round" d=" M 2911.756, 1934.038 2921.756, 1934.039 2931.756, 1934.041 2941.756, 1934.043 2951.109, 1934.045 " />
            <path fill="none" stroke-width="3.0" stroke-linecap="butt" stroke-opacity="1.0" stroke="rgb(0, 0, 0)" stroke-linejoin="round" d=" M 2781.416, 1934.014 2781.416, 1934.014 " />
            <path fill="none" stroke-width="3.0" stroke-linecap="butt" stroke-opacity="1.0" stroke="rgb(0, 0, 0)" stroke-linejoin="round" d=" M 2781.416, 1934.014 2781.416, 1934.014 " />
            <path fill="none" stroke-width="3.0" stroke-linecap="butt" stroke-opacity="1.0" stroke="rgb(0, 0, 0)" stroke-linejoin="round" d=" M 2949.948, 1934.044 2939.948, 1934.042 2936.587, 1934.042 " />
            <path fill="none" stroke-width="3.0" stroke-linecap="butt" stroke-opacity="1.0" stroke="rgb(0, 0, 0)" stroke-linejoin="round" d=" M 2904.307, 1934.036 2914.307, 1934.038 2924.307, 1934.040 2934.307, 1934.042 2944.307, 1934.044 2954.345, 1934.045 " />
            <path fill="none" stroke-width="3.0" stroke-linecap="butt" stroke-opacity="1.0" stroke="rgb(0, 0, 0)" stroke-linejoin="round" d=" M 2781.416, 1934.014 2781.416, 1934.014 " />
            <path fill="none" stroke-width="3.0" stroke-linecap="butt" stroke-opacity="1.0" stroke="rgb(0, 0, 0)" stroke-linejoin="round" d=" M 2955.223, 1934.045 2959.085, 1934.046 " />
            <path fill="none" stroke-width="3.0" stroke-linecap="butt" stroke-opacity="1.0" stroke="rgb(0, 0, 0)" stroke-linejoin="round" d=" M 2951.361, 1934.045 2953.715, 1934.045 " />
            <path fill="none" stroke-width="3.0" stroke-linecap="butt" stroke-opacity="1.0" stroke="rgb(0, 0, 0)" stroke-linejoin="round" d=" M 2915.104, 1934.038 2925.104, 1934.040 2935.104, 1934.042 2945.104, 1934.044 2950.926, 1934.045 " />
            <path fill="none" stroke-width="3.0" stroke-linecap="butt" stroke-opacity="1.0" stroke="rgb(0, 0, 0)" stroke-linejoin="round" d=" M 2781.416, 1934.014 2781.416, 1934.014 " />
            <path fill="none" stroke-width="3.0" stroke-linecap="butt" stroke-opacity="1.0" stroke="rgb(0, 0, 0)" stroke-linejoin="round" d=" M 2781.416, 1934.014 2781.416, 1934.014 " />
            <path fill="none" stroke-width="3.0" stroke-linecap="butt" stroke-opacity="1.0" stroke="rgb(0, 0, 0)" stroke-linejoin="round" d=" M 2781.416, 1934.014 2781.416, 1934.014 " />
            <path fill="none" stroke-width="3.0" stroke-linecap="butt" stroke-opacity="1.0" stroke="rgb(0, 0, 0)" stroke-linejoin="round" d=" M 3008.698, 1934.055 3012.617, 1934.055 " />
            <path fill="none" stroke-width="3.0" stroke-linecap="butt" stroke-opacity="1.0" stroke="rgb(0, 0, 0)" stroke-linejoin="round" d=" M 2781.416, 1934.014 2781.416, 1934.014 " />
            <path fill="none" stroke-width="3.0" stroke-linecap="butt" stroke-opacity="1.0" stroke="rgb(0, 0, 0)" stroke-linejoin="round" d=" M 3013.279, 1934.055 3017.209, 1934.056 " />
            <path fill="none" stroke-width="3.0" stroke-linecap="butt" stroke-opacity="1.0" stroke="rgb(0, 0, 0)" stroke-linejoin="round" d=" M 3009.349, 1934.055 3012.152, 1934.055 " />
            <path fill="none" stroke-width="3.0" stroke-linecap="butt" stroke-opacity="1.0" stroke="rgb(0, 0, 0)" stroke-linejoin="round" d=" M 2781.416, 1934.014 2781.416, 1934.014 " />
            <path fill="none" stroke-width="3.0" stroke-linecap="butt" stroke-opacity="1.0" stroke="rgb(0, 0, 0)" stroke-linejoin="round" d=" M 2781.416, 1934.014 2781.416, 1934.014 " />
            <path fill="none" stroke-width="3.0" stroke-linecap="butt" stroke-opacity="1.0" stroke="rgb(0, 0, 0)" stroke-linejoin="round" d=" M 3011.184, 1934.055 3010.728, 1934.055 " />
            <path fill="none" stroke-width="3.0" stroke-linecap="butt" stroke-opacity="1.0" stroke="rgb(0, 0, 0)" stroke-linejoin="round" d=" M 3016.354, 1934.056 3014.682, 1934.055 " />
            <path fill="none" stroke-width="3.0" stroke-linecap="butt" stroke-opacity="1.0" stroke="rgb(0, 0, 0)" stroke-linejoin="round" d=" M 3008.268, 1934.055 3018.268, 1934.056 3020.002, 1934.057 " />
            <path fill="none" stroke-width="3.0" stroke-linecap="butt" stroke-opacity="1.0" stroke="rgb(0, 0, 0)" stroke-linejoin="round" d=" M 2957.422, 1934.045 2957.598, 1934.045 " />
            <path fill="none" stroke-width="3.0" stroke-linecap="butt" stroke-opacity="1.0" stroke="rgb(0, 0, 0)" stroke-linejoin="round" d=" M 2781.416, 1934.014 2781.416, 1934.014 " />
            <path fill="none" stroke-width="3.0" stroke-linecap="butt" stroke-opacity="1.0" stroke="rgb(0, 0, 0)" stroke-linejoin="round" d=" M 2781.416, 1934.014 2781.416, 1934.014 " />
            <path fill="none" stroke-width="3.0" stroke-linecap="butt" stroke-opacity="1.0" stroke="rgb(0, 0, 0)" stroke-linejoin="round" d=" M 3020.876, 1934.057 3024.802, 1934.057 " />
            <path fill="none" stroke-width="3.0" stroke-linecap="butt" stroke-opacity="1.0" stroke="rgb(0, 0, 0)" stroke-linejoin="round" d=" M 3013.025, 1934.055 3019.535, 1934.056 " />
            <path fill="none" stroke-width="3.0" stroke-linecap="butt" stroke-opacity="1.0" stroke="rgb(0, 0, 0)" stroke-linejoin="round" d=" M 3009.100, 1934.055 3012.330, 1934.055 " />
            <path fill="none" stroke-width="3.0" stroke-linecap="butt" stroke-opacity="1.0" stroke="rgb(0, 0, 0)" stroke-linejoin="round" d=" M 2781.416, 1934.014 2781.416, 1934.014 " />
            <path fill="none" stroke-width="3.0" stroke-linecap="butt" stroke-opacity="1.0" stroke="rgb(0, 0, 0)" stroke-linejoin="round" d=" M 2781.416, 1934.014 2781.416, 1934.014 " />
            <path fill="none" stroke-width="3.0" stroke-linecap="butt" stroke-opacity="1.0" stroke="rgb(0, 0, 0)" stroke-linejoin="round" d=" M 2781.416, 1934.014 2781.416, 1934.014 " />
            <path fill="none" stroke-width="3.0" stroke-linecap="butt" stroke-opacity="1.0" stroke="rgb(0, 0, 0)" stroke-linejoin="round" d=" M 2781.416, 1934.014 2781.416, 1934.014 " />
            <path fill="none" stroke-width="3.0" stroke-linecap="butt" stroke-opacity="1.0" stroke="rgb(0, 0, 0)" stroke-linejoin="round" d=" M 3082.453, 1934.067 3086.414, 1934.068 " />
            <path fill="none" stroke-width="3.0" stroke-linecap="butt" stroke-opacity="1.0" stroke="rgb(0, 0, 0)" stroke-linejoin="round" d=" M 3023.038, 1934.057 3023.965, 1934.057 " />
            <path fill="none" stroke-width="3.0" stroke-linecap="butt" stroke-opacity="1.0" stroke="rgb(0, 0, 0)" stroke-linejoin="round" d=" M 3015.115, 1934.055 3016.093, 1934.055 " />
            <path fill="none" stroke-width="3.0" stroke-linecap="butt" stroke-opacity="1.0" stroke="rgb(0, 0, 0)" stroke-linejoin="round" d=" M 2781.416, 1934.014 2781.416, 1934.014 " />
            <path fill="none" stroke-width="3.0" stroke-linecap="butt" stroke-opacity="1.0" stroke="rgb(0, 0, 0)" stroke-linejoin="round" d=" M 3086.535, 1934.068 3090.498, 1934.069 " />
            <path fill="none" stroke-width="3.0" stroke-linecap="butt" stroke-opacity="1.0" stroke="rgb(0, 0, 0)" stroke-linejoin="round" d=" M 3082.573, 1934.067 3086.357, 1934.068 " />
            <path fill="none" stroke-width="3.0" stroke-linecap="butt" stroke-opacity="1.0" stroke="rgb(0, 0, 0)" stroke-linejoin="round" d=" M 3023.134, 1934.057 3023.928, 1934.057 " />
            <path fill="none" stroke-width="3.0" stroke-linecap="butt" stroke-opacity="1.0" stroke="rgb(0, 0, 0)" stroke-linejoin="round" d=" M 3015.209, 1934.055 3016.037, 1934.055 " />
            <path fill="none" stroke-width="3.0" stroke-linecap="butt" stroke-opacity="1.0" stroke="rgb(0, 0, 0)" stroke-linejoin="round" d=" M 2781.416, 1934.014 2781.416, 1934.014 " />
            <path fill="none" stroke-width="3.0" stroke-linecap="butt" stroke-opacity="1.0" stroke="rgb(0, 0, 0)" stroke-linejoin="round" d=" M 2781.416, 1934.014 2781.416, 1934.014 2781.416, 1934.014 " />
            <path fill="none" stroke-width="3.0" stroke-linecap="butt" stroke-opacity="1.0" stroke="rgb(0, 0, 0)" stroke-linejoin="round" d=" M 4489.593, 344.919 4487.187, 335.213 4484.782, 325.506 4482.376, 315.800 4479.971, 306.094 4477.565, 296.387 4475.160, 286.681 4472.754, 276.975 4470.349, 267.268 4467.943, 257.562 4465.538, 247.856 4463.132, 238.149 4460.727, 228.443 4458.321, 218.736 4455.916, 209.030 4453.510, 199.324 4451.104, 189.617 4448.699, 179.911 4446.293, 170.205 4443.888, 160.498 4441.482, 150.792 4439.077, 141.086 4436.671, 131.379 4434.266, 121.673 4431.860, 111.967 4429.455, 102.260 4427.049, 92.554 4424.644, 82.847 4422.238, 73.141 4419.833, 63.435 4417.427, 53.728 4415.021, 44.022 4412.616, 34.316 4409.966, 23.624 " />
            <path fill="none" stroke-width="3.0" stroke-linecap="butt" stroke-opacity="1.0" stroke="rgb(0, 0, 0)" stroke-linejoin="round" d=" M 4862.386, 1794.849 4861.044, 1784.939 4859.702, 1775.029 4858.360, 1765.120 4857.018, 1755.210 4855.676, 1745.301 4854.333, 1735.391 4852.991, 1725.482 4851.649, 1715.572 4850.307, 1705.663 4848.965, 1695.753 4847.623, 1685.844 4846.281, 1675.934 4844.938, 1666.025 4843.596, 1656.115 4842.254, 1646.206 4840.912, 1636.296 4839.570, 1626.387 4838.228, 1616.477 4836.886, 1606.568 4835.543, 1596.658 4834.201, 1586.749 4832.859, 1576.839 4831.517, 1566.929 4830.737, 1561.169 " />
        </g>
    </g>
<g id="slice-labels"><text x="514.1188" y="501.3135" text-anchor="middle" dominant-baseline="middle" font-family="Arial, sans-serif" font-size="59.04201412900445" font-weight="bold" fill="black" stroke="none" stroke-width="7.085041695480534" paint-order="stroke fill">Slice37 (Back)</text><text x="1493.5644" y="501.3135" text-anchor="middle" dominant-baseline="middle" font-family="Arial, sans-serif" font-size="59.04201412900445" font-weight="bold" fill="black" stroke="none" stroke-width="7.085041695480534" paint-order="stroke fill">Slice37 (Back)</text><text x="2473.01" y="501.3135" text-anchor="middle" dominant-baseline="middle" font-family="Arial, sans-serif" font-size="59.04201412900445" font-weight="bold" fill="black" stroke="none" stroke-width="7.085041695480534" paint-order="stroke fill">Slice37 (Back)</text><text x="3452.4556000000002" y="501.3135" text-anchor="middle" dominant-baseline="middle" font-family="Arial, sans-serif" font-size="59.04201412900445" font-weight="bold" fill="black" stroke="none" stroke-width="7.085041695480534" paint-order="stroke fill">Slice37 (Back)</text><text x="4431.9012" y="501.3135" text-anchor="middle" dominant-baseline="middle" font-family="Arial, sans-serif" font-size="59.04201412900445" font-weight="bold" fill="black" stroke="none" stroke-width="7.085041695480534" paint-order="stroke fill">Slice37 (Back)</text><text x="514.1188" y="1456.6965" text-anchor="middle" dominant-baseline="middle" font-family="Arial, sans-serif" font-size="59.04201412900445" font-weight="bold" fill="black" stroke="none" stroke-width="7.085041695480534" paint-order="stroke fill">Slice37 (Back)</text><text x="1493.5644" y="1456.6965" text-anchor="middle" dominant-baseline="middle" font-family="Arial, sans-serif" font-size="59.04201412900445" font-weight="bold" fill="black" stroke="none" stroke-width="7.085041695480534" paint-order="stroke fill">Slice37 (Back)</text><text x="2473.01" y="1456.6965" text-anchor="middle" dominant-baseline="middle" font-family="Arial, sans-serif" font-size="59.04201412900445" font-weight="bold" fill="black" stroke="none" stroke-width="7.085041695480534" paint-order="stroke fill">Slice37 (Back)</text><text x="3452.4556000000002" y="1456.6965" text-anchor="middle" dominant-baseline="middle" font-family="Arial, sans-serif" font-size="59.04201412900445" font-weight="bold" fill="black" stroke="none" stroke-width="7.085041695480534" paint-order="stroke fill">Slice37 (Back)</text><text x="4431.9012" y="1456.6965" text-anchor="middle" dominant-baseline="middle" font-family="Arial, sans-serif" font-size="59.04201412900445" font-weight="bold" fill="black" stroke="none" stroke-width="7.085041695480534" paint-order="stroke fill">Slice37 (Back)</text></g></svg>