<?xml version='1.0' encoding='utf-8'?>
<svg xmlns="http://www.w3.org/2000/svg" xmlns:inkscape="http://www.inkscape.org/namespaces/inkscape" version="1.1" width="220.8690599501133mm" height="173.2841649055481mm" viewBox="-0.0589243304629079 0.004057182303405682 2609.117848660926 2047.000885635393" preserveAspectRatio="none">
    <g id="ViewLayer_LineSet" inkscape:groupmode="lineset" inkscape:label="ViewLayer_LineSet">
        <g inkscape:groupmode="layer" id="strokes" inkscape:label="strokes">
            <path fill="none" stroke-width="3.0" stroke-linecap="butt" stroke-opacity="1.0" stroke="rgb(0, 0, 0)" stroke-linejoin="round" d=" M 1173.979, 1676.768 1171.460, 1679.351 1168.815, 1681.805 1166.052, 1684.123 1163.176, 1686.302 1160.195, 1688.335 1157.117, 1690.215 1153.949, 1691.941 1150.698, 1693.506 1147.374, 1694.908 1143.984, 1696.142 1140.536, 1697.205 1137.040, 1698.095 1133.504, 1698.810 1129.937, 1699.348 1126.347, 1699.707 1122.743, 1699.886 1119.136, 1699.886 1115.533, 1699.707 1111.943, 1699.348 1108.375, 1698.810 1104.839, 1698.095 1101.343, 1697.205 1097.896, 1696.142 1094.505, 1694.908 1091.181, 1693.506 1087.931, 1691.941 1084.762, 1690.215 1081.684, 1688.335 1078.703, 1686.302 1075.827, 1684.123 1073.064, 1681.805 1070.419, 1679.351 1067.900, 1676.768 1065.513, 1674.064 1063.264, 1671.242 1061.158, 1668.313 1059.200, 1665.283 1057.396, 1662.158 1055.751, 1658.948 1054.267, 1655.660 1052.949, 1652.301 1051.800, 1648.881 1050.823, 1645.409 1050.020, 1641.892 1049.393, 1638.338 1048.945, 1634.758 1048.675, 1631.162 1048.585, 1627.554 1048.675, 1623.948 1048.945, 1620.351 1049.393, 1616.771 1050.020, 1613.218 1050.823, 1609.701 1051.800, 1606.228 1052.949, 1602.808 1054.267, 1599.450 1055.751, 1596.161 1057.396, 1592.951 1059.200, 1589.826 1061.158, 1586.796 1063.264, 1583.866 1065.513, 1581.046 1067.900, 1578.341 1070.419, 1575.758 1073.064, 1573.305 1075.827, 1570.985 1078.703, 1568.807 1081.684, 1566.775 1084.762, 1564.894 1087.931, 1563.168 1091.181, 1561.603 1094.505, 1560.202 1097.896, 1558.968 1101.343, 1557.904 1104.839, 1557.014 1108.375, 1556.300 1111.943, 1555.762 1115.533, 1555.403 1119.136, 1555.223 1122.743, 1555.223 1126.347, 1555.403 1129.937, 1555.762 1133.504, 1556.300 1137.040, 1557.014 1140.536, 1557.904 1143.984, 1558.968 1147.374, 1560.202 1150.698, 1561.603 1153.949, 1563.168 1157.117, 1564.894 1160.195, 1566.775 1163.176, 1568.807 1166.052, 1570.985 1168.815, 1573.305 1171.460, 1575.758 1173.979, 1578.341 1176.366, 1581.046 1178.616, 1583.866 1180.722, 1586.796 1182.679, 1589.826 1184.483, 1592.951 1186.129, 1596.161 1187.613, 1599.450 1188.931, 1602.808 1190.080, 1606.228 1191.057, 1609.701 1191.859, 1613.218 1192.486, 1616.771 1192.934, 1620.351 1193.204, 1623.948 1193.294, 1627.554 1193.204, 1631.162 1192.934, 1634.758 1192.486, 1638.338 1191.859, 1641.892 1191.057, 1645.409 1190.080, 1648.881 1188.931, 1652.301 1187.613, 1655.660 1186.129, 1658.948 1184.483, 1662.158 1182.679, 1665.283 1180.722, 1668.313 1178.616, 1671.242 1176.366, 1674.064 1173.979, 1676.768 " />
            <path fill="none" stroke-width="3.0" stroke-linecap="butt" stroke-opacity="1.0" stroke="rgb(0, 0, 0)" stroke-linejoin="round" d=" M 176.925, 1191.214 173.309, 1200.537 169.692, 1209.861 166.076, 1219.184 162.460, 1228.507 158.843, 1237.830 155.227, 1247.153 151.610, 1256.477 147.994, 1265.800 144.378, 1275.123 140.761, 1284.446 137.145, 1293.769 133.529, 1303.093 129.912, 1312.416 126.296, 1321.739 122.680, 1331.062 119.063, 1340.385 115.447, 1349.709 112.720, 1356.739 112.142, 1366.722 111.564, 1376.705 110.985, 1386.688 110.407, 1396.672 109.828, 1406.666 " />
            <path fill="none" stroke-width="3.0" stroke-linecap="butt" stroke-opacity="1.0" stroke="rgb(0, 0, 0)" stroke-linejoin="round" d=" M 300.433, 584.560 298.253, 594.319 296.072, 604.079 293.891, 613.838 291.711, 623.597 289.530, 633.357 287.350, 643.116 285.169, 652.875 282.988, 662.635 280.808, 672.394 278.627, 682.154 276.447, 691.913 274.266, 701.672 272.085, 711.432 269.905, 721.191 267.724, 730.950 265.544, 740.710 263.363, 750.469 261.182, 760.228 259.002, 769.988 256.821, 779.747 254.641, 789.506 252.460, 799.266 250.279, 809.025 248.099, 818.785 245.918, 828.544 243.738, 838.303 241.557, 848.063 239.377, 857.822 237.196, 867.581 235.015, 877.341 232.835, 887.100 230.654, 896.859 228.474, 906.619 226.293, 916.378 224.112, 926.137 221.932, 935.897 219.751, 945.656 217.571, 955.416 215.390, 965.175 213.209, 974.934 211.029, 984.693 208.848, 994.453 206.668, 1004.212 204.487, 1013.972 202.334, 1023.606 200.835, 1033.493 199.337, 1043.380 197.838, 1053.267 196.339, 1063.154 194.840, 1073.042 193.341, 1082.929 191.842, 1092.816 190.343, 1102.703 188.844, 1112.590 187.346, 1122.477 185.847, 1132.364 184.348, 1142.251 182.849, 1152.138 181.350, 1162.025 179.851, 1171.912 178.352, 1181.799 176.925, 1191.214 " />
            <path fill="none" stroke-width="3.0" stroke-linecap="butt" stroke-opacity="1.0" stroke="rgb(0, 0, 0)" stroke-linejoin="round" d=" M 370.940, 23.630 366.577, 32.629 362.214, 41.627 357.851, 50.625 353.488, 59.623 349.126, 68.621 344.763, 77.619 340.400, 86.617 336.037, 95.615 331.674, 104.613 327.311, 113.611 322.948, 122.609 318.585, 131.607 314.222, 140.605 309.859, 149.603 305.496, 158.601 301.133, 167.599 296.771, 176.597 292.408, 185.595 288.045, 194.594 283.682, 203.592 279.319, 212.590 274.956, 221.588 270.593, 230.586 266.230, 239.584 261.867, 248.582 259.554, 253.353 260.779, 263.277 262.004, 273.202 263.229, 283.127 264.454, 293.051 265.679, 302.976 266.904, 312.901 268.129, 322.826 269.354, 332.750 270.579, 342.675 271.803, 352.600 273.028, 362.524 274.253, 372.449 275.478, 382.374 276.703, 392.298 277.928, 402.223 279.153, 412.148 280.378, 422.072 281.603, 431.997 282.828, 441.922 284.053, 451.847 285.278, 461.771 286.503, 471.696 287.728, 481.621 288.953, 491.545 290.178, 501.470 291.403, 511.395 292.628, 521.319 293.853, 531.244 295.078, 541.169 296.303, 551.093 297.527, 561.018 298.752, 570.943 299.977, 580.867 300.433, 584.560 " />
            <path fill="none" stroke-width="3.0" stroke-linecap="butt" stroke-opacity="1.0" stroke="rgb(0, 0, 0)" stroke-linejoin="round" d=" M 2548.925, 1953.367 2543.208, 1945.162 2537.492, 1936.957 2531.776, 1928.752 2526.060, 1920.546 2520.344, 1912.341 2514.627, 1904.136 2508.911, 1895.931 2503.195, 1887.726 2497.479, 1879.521 2491.762, 1871.316 2486.046, 1863.110 2480.330, 1854.905 2474.614, 1846.700 2468.897, 1838.495 2463.181, 1830.290 2457.465, 1822.085 2451.749, 1813.879 2446.032, 1805.674 2440.316, 1797.469 2434.600, 1789.264 2428.884, 1781.059 2423.167, 1772.854 2417.451, 1764.648 2411.735, 1756.443 2406.019, 1748.238 2400.302, 1740.033 2394.586, 1731.828 2388.870, 1723.623 2386.303, 1719.938 2383.423, 1710.361 2380.544, 1700.785 2377.664, 1691.208 2374.785, 1681.632 2371.906, 1672.056 2369.026, 1662.479 2366.146, 1652.903 2363.267, 1643.326 2360.387, 1633.750 2357.508, 1624.173 2354.628, 1614.597 2351.749, 1605.020 2348.869, 1595.444 2345.990, 1585.867 2343.110, 1576.291 2340.231, 1566.715 2337.351, 1557.138 2334.472, 1547.562 2331.593, 1537.985 2328.713, 1528.409 2325.833, 1518.832 2322.954, 1509.256 2320.074, 1499.679 2318.972, 1496.014 2314.741, 1486.953 2310.511, 1477.892 2306.280, 1468.831 2302.049, 1459.770 2297.818, 1450.709 2293.588, 1441.648 2289.357, 1432.587 2285.126, 1423.526 2280.896, 1414.466 2276.665, 1405.405 2272.434, 1396.344 2268.203, 1387.283 2263.972, 1378.222 2259.742, 1369.161 2255.511, 1360.100 2251.280, 1351.039 2247.049, 1341.978 2242.819, 1332.917 2238.588, 1323.856 2234.357, 1314.795 2230.126, 1305.734 2225.896, 1296.673 2221.665, 1287.612 2218.716, 1281.296 " />
            <path fill="none" stroke-width="3.0" stroke-linecap="butt" stroke-opacity="1.0" stroke="rgb(0, 0, 0)" stroke-linejoin="round" d=" M 2125.856, 2023.371 2135.856, 2023.371 2145.856, 2023.371 2155.856, 2023.371 2165.856, 2023.372 2175.856, 2023.372 2185.856, 2023.372 2195.856, 2023.372 2205.856, 2023.372 2215.856, 2023.372 2225.856, 2023.373 2235.856, 2023.373 2245.856, 2023.373 2255.856, 2023.373 2265.856, 2023.373 2275.856, 2023.373 2285.856, 2023.374 2295.856, 2023.374 2305.856, 2023.374 2315.856, 2023.374 2325.856, 2023.374 2335.856, 2023.374 2345.856, 2023.375 2355.856, 2023.375 2365.856, 2023.375 2375.856, 2023.375 2385.856, 2023.375 2395.856, 2023.375 2405.856, 2023.376 2415.856, 2023.376 2425.856, 2023.376 2435.856, 2023.376 2445.856, 2023.376 2455.856, 2023.376 2465.856, 2023.377 2475.856, 2023.377 2485.856, 2023.377 2495.856, 2023.377 2505.856, 2023.377 2515.856, 2023.377 2525.856, 2023.378 2535.856, 2023.378 2545.856, 2023.378 2555.856, 2023.378 2565.856, 2023.378 2575.856, 2023.378 2585.433, 2023.379 " />
            <path fill="none" stroke-width="3.0" stroke-linecap="butt" stroke-opacity="1.0" stroke="rgb(0, 0, 0)" stroke-linejoin="round" d=" M 2115.794, 2023.370 2115.814, 2023.370 2115.872, 2023.370 2116.446, 2023.370 2116.485, 2023.370 2116.530, 2023.370 2116.629, 2023.370 2116.701, 2023.370 2116.910, 2023.370 2117.730, 2023.370 2119.066, 2023.371 2120.753, 2023.371 2125.856, 2023.371 " />
            <path fill="none" stroke-width="3.0" stroke-linecap="butt" stroke-opacity="1.0" stroke="rgb(0, 0, 0)" stroke-linejoin="round" d=" M 1174.889, 2023.353 1184.889, 2023.353 1194.889, 2023.354 1204.889, 2023.354 1214.889, 2023.354 1224.889, 2023.354 1234.889, 2023.354 1244.889, 2023.355 1254.889, 2023.355 1264.889, 2023.355 1274.889, 2023.355 1284.889, 2023.355 1294.889, 2023.355 1304.889, 2023.356 1314.889, 2023.356 1324.889, 2023.356 1334.889, 2023.356 1344.889, 2023.356 1354.889, 2023.357 1364.889, 2023.357 1374.889, 2023.357 1384.889, 2023.357 1394.889, 2023.357 1404.889, 2023.358 1414.889, 2023.358 1424.889, 2023.358 1434.889, 2023.358 1444.889, 2023.358 1454.889, 2023.358 1464.889, 2023.359 1474.889, 2023.359 1484.889, 2023.359 1494.889, 2023.359 1504.889, 2023.359 1514.889, 2023.360 1524.889, 2023.360 1534.889, 2023.360 1544.889, 2023.360 1554.889, 2023.360 1564.889, 2023.360 1574.889, 2023.361 1584.889, 2023.361 1594.889, 2023.361 1604.889, 2023.361 1614.889, 2023.361 1624.889, 2023.362 1634.889, 2023.362 1644.889, 2023.362 1654.889, 2023.362 1664.889, 2023.362 1674.889, 2023.362 1684.889, 2023.363 1698.863, 2023.363 1708.863, 2023.363 1718.863, 2023.363 1720.741, 2023.363 1730.741, 2023.363 1740.741, 2023.364 1744.489, 2023.364 1754.489, 2023.364 1764.489, 2023.364 1774.489, 2023.364 1784.489, 2023.364 1792.765, 2023.365 1802.765, 2023.365 1812.765, 2023.365 1822.765, 2023.365 1824.708, 2023.365 1834.708, 2023.365 1844.708, 2023.366 1854.708, 2023.366 1864.708, 2023.366 1874.708, 2023.366 1884.708, 2023.366 1894.708, 2023.366 1903.882, 2023.367 1913.882, 2023.367 1923.882, 2023.367 1933.882, 2023.367 1943.882, 2023.367 1953.882, 2023.368 1963.882, 2023.368 1973.882, 2023.368 1983.882, 2023.368 1993.882, 2023.368 2003.882, 2023.368 2013.882, 2023.369 2023.882, 2023.369 2033.882, 2023.369 2043.882, 2023.369 2053.882, 2023.369 2063.882, 2023.370 2073.882, 2023.370 2083.882, 2023.370 2093.882, 2023.370 2102.001, 2023.370 2106.397, 2023.370 2107.952, 2023.370 2109.440, 2023.370 2109.955, 2023.370 2110.656, 2023.370 2110.971, 2023.370 2111.001, 2023.370 2111.246, 2023.370 2115.252, 2023.370 2115.656, 2023.370 2115.794, 2023.370 " />
            <path fill="none" stroke-width="3.0" stroke-linecap="butt" stroke-opacity="1.0" stroke="rgb(0, 0, 0)" stroke-linejoin="round" d=" M 1156.398, 2023.353 1156.465, 2023.353 1159.052, 2023.353 1160.861, 2023.353 1161.100, 2023.353 1162.872, 2023.353 1165.758, 2023.353 1170.358, 2023.353 1174.889, 2023.353 " />
            <path fill="none" stroke-width="3.0" stroke-linecap="butt" stroke-opacity="1.0" stroke="rgb(0, 0, 0)" stroke-linejoin="round" d=" M 250.748, 2023.297 253.318, 2023.298 255.751, 2023.298 258.033, 2023.298 260.157, 2023.317 270.157, 2023.318 280.157, 2023.318 290.157, 2023.318 300.157, 2023.319 310.157, 2023.319 320.157, 2023.320 330.157, 2023.320 340.157, 2023.321 350.157, 2023.321 360.157, 2023.321 370.157, 2023.322 380.157, 2023.322 390.157, 2023.323 400.157, 2023.323 410.157, 2023.323 420.157, 2023.324 430.157, 2023.324 440.157, 2023.325 450.157, 2023.325 460.157, 2023.325 470.157, 2023.326 480.157, 2023.326 490.157, 2023.327 500.157, 2023.327 510.157, 2023.327 520.157, 2023.328 530.157, 2023.328 540.157, 2023.329 550.157, 2023.329 560.157, 2023.330 570.157, 2023.330 580.157, 2023.330 590.157, 2023.331 600.157, 2023.331 610.157, 2023.332 620.157, 2023.332 630.157, 2023.332 640.157, 2023.333 650.157, 2023.333 660.157, 2023.334 670.157, 2023.334 680.157, 2023.334 690.157, 2023.335 700.157, 2023.335 710.157, 2023.336 720.157, 2023.336 730.157, 2023.336 740.157, 2023.337 750.157, 2023.337 760.157, 2023.338 770.157, 2023.338 780.157, 2023.339 790.157, 2023.339 800.157, 2023.339 810.157, 2023.340 820.157, 2023.340 830.157, 2023.341 840.157, 2023.341 850.157, 2023.341 860.157, 2023.342 870.157, 2023.342 880.157, 2023.343 890.157, 2023.343 900.157, 2023.343 910.157, 2023.344 920.157, 2023.344 930.157, 2023.345 940.157, 2023.345 950.157, 2023.346 960.157, 2023.346 970.157, 2023.346 980.157, 2023.347 990.157, 2023.347 1000.157, 2023.348 1010.157, 2023.348 1020.157, 2023.348 1030.157, 2023.349 1040.157, 2023.349 1050.157, 2023.350 1060.157, 2023.350 1070.157, 2023.350 1080.157, 2023.351 1090.157, 2023.351 1100.157, 2023.352 1112.724, 2023.352 1115.577, 2023.352 1123.357, 2023.353 1127.997, 2023.353 1132.687, 2023.353 1136.955, 2023.353 1137.411, 2023.353 1142.158, 2023.353 1146.914, 2023.353 1151.665, 2023.353 1156.398, 2023.353 " />
            <path fill="none" stroke-width="3.0" stroke-linecap="butt" stroke-opacity="1.0" stroke="rgb(0, 0, 0)" stroke-linejoin="round" d=" M 1188.065, 965.812 1186.975, 968.229 1185.766, 970.587 1184.441, 972.883 1183.003, 975.109 1181.455, 977.261 1179.803, 979.333 1178.049, 981.320 1176.198, 983.219 " />
            <path fill="none" stroke-width="3.0" stroke-linecap="butt" stroke-opacity="1.0" stroke="rgb(0, 0, 0)" stroke-linejoin="round" d=" M 1174.255, 985.021 1172.225, 986.724 1170.112, 988.326 1167.922, 989.818 1165.660, 991.200 1163.332, 992.468 1160.944, 993.618 1158.502, 994.648 1156.011, 995.554 " />
            <path fill="none" stroke-width="3.0" stroke-linecap="butt" stroke-opacity="1.0" stroke="rgb(0, 0, 0)" stroke-linejoin="round" d=" M 1190.596, 932.047 1191.186, 934.631 1191.646, 937.241 1191.975, 939.872 1192.174, 942.514 1192.239, 945.164 1192.174, 947.813 1191.975, 950.457 1191.646, 953.087 1191.186, 955.697 1190.596, 958.281 1189.878, 960.832 1189.034, 963.345 " />
            <path fill="none" stroke-width="3.0" stroke-linecap="butt" stroke-opacity="1.0" stroke="rgb(0, 0, 0)" stroke-linejoin="round" d=" M 1156.011, 995.554 1153.478, 996.336 1150.910, 996.990 1148.312, 997.514 1145.691, 997.910 1143.054, 998.173 " />
            <path fill="none" stroke-width="3.0" stroke-linecap="butt" stroke-opacity="1.0" stroke="rgb(0, 0, 0)" stroke-linejoin="round" d=" M 2218.716, 1281.296 2216.435, 1271.560 2214.153, 1261.824 2211.872, 1252.087 2209.591, 1242.351 2207.310, 1232.615 2205.029, 1222.878 2202.747, 1213.142 2200.466, 1203.406 2198.185, 1193.669 2195.904, 1183.933 2193.623, 1174.197 2191.342, 1164.460 2189.060, 1154.724 2186.779, 1144.988 2184.498, 1135.251 2182.217, 1125.515 2179.936, 1115.779 2177.655, 1106.042 2175.373, 1096.306 2173.092, 1086.570 2170.811, 1076.833 2168.530, 1067.097 2166.249, 1057.361 2163.968, 1047.624 2161.686, 1037.888 2159.405, 1028.152 2157.124, 1018.415 2154.843, 1008.679 2152.562, 998.943 2150.281, 989.206 2147.999, 979.470 2145.718, 969.734 2144.804, 965.834 2141.464, 956.408 2138.123, 946.983 2134.783, 937.557 2131.442, 928.131 2128.102, 918.706 2124.761, 909.280 2121.421, 899.855 2118.080, 890.429 2114.740, 881.004 2111.399, 871.578 2108.059, 862.153 2104.718, 852.727 2101.378, 843.301 2098.037, 833.876 2094.697, 824.450 2091.356, 815.025 2088.016, 805.599 2084.675, 796.174 2081.335, 786.748 2077.994, 777.323 2074.654, 767.897 2071.313, 758.471 2067.973, 749.046 2064.632, 739.620 2061.292, 730.195 2057.951, 720.769 2054.611, 711.344 2051.246, 701.849 2047.798, 692.463 2044.350, 683.076 2040.903, 673.689 2037.455, 664.302 2034.008, 654.915 2030.560, 645.528 2027.112, 636.141 2023.665, 626.754 2020.217, 617.367 2016.769, 607.981 2013.322, 598.594 2009.874, 589.207 2006.427, 579.820 2002.979, 570.433 1999.531, 561.046 1996.084, 551.659 1992.636, 542.272 1989.188, 532.885 1985.741, 523.499 1982.293, 514.112 1978.845, 504.725 1975.398, 495.338 1971.950, 485.951 1968.503, 476.564 1965.055, 467.177 1961.607, 457.790 1958.160, 448.403 1954.712, 439.016 1951.265, 429.630 1947.817, 420.243 1944.369, 410.856 1940.922, 401.469 1937.474, 392.082 1934.026, 382.695 1930.579, 373.308 1927.131, 363.921 1923.683, 354.534 1920.236, 345.147 1916.788, 335.760 1913.341, 326.374 1909.893, 316.987 1906.445, 307.600 1902.998, 298.213 1899.550, 288.826 1896.102, 279.439 1892.655, 270.052 1889.207, 260.665 1885.760, 251.278 1882.312, 241.892 1878.864, 232.505 1875.417, 223.118 1871.969, 213.731 1868.521, 204.344 1865.074, 194.957 1861.626, 185.570 1858.178, 176.183 1854.731, 166.796 1851.283, 157.409 1847.836, 148.023 1844.388, 138.636 1840.940, 129.249 1837.493, 119.862 1834.045, 110.475 1830.597, 101.088 1827.150, 91.701 1823.702, 82.314 1820.255, 72.927 1816.807, 63.541 1813.359, 54.154 1809.912, 44.767 1806.464, 35.380 1803.677, 27.790 1801.171, 23.640 " />
            <path fill="none" stroke-width="3.0" stroke-linecap="butt" stroke-opacity="1.0" stroke="rgb(0, 0, 0)" stroke-linejoin="round" d=" M 1140.406, 998.306 1137.756, 998.306 1135.108, 998.173 1132.471, 997.910 1129.850, 997.514 1127.252, 996.990 1124.684, 996.336 1122.151, 995.554 1119.660, 994.648 1117.218, 993.618 1114.830, 992.468 1112.502, 991.200 1110.240, 989.818 1108.050, 988.326 " />
            <path fill="none" stroke-width="3.0" stroke-linecap="butt" stroke-opacity="1.0" stroke="rgb(0, 0, 0)" stroke-linejoin="round" d=" M 1185.766, 919.741 1186.975, 922.099 1188.065, 924.516 1189.034, 926.983 1189.878, 929.495 1190.596, 932.047 " />
            <path fill="none" stroke-width="3.0" stroke-linecap="butt" stroke-opacity="1.0" stroke="rgb(0, 0, 0)" stroke-linejoin="round" d=" M 1184.441, 917.445 1185.766, 919.741 " />
            <path fill="none" stroke-width="3.0" stroke-linecap="butt" stroke-opacity="1.0" stroke="rgb(0, 0, 0)" stroke-linejoin="round" d=" M 1183.003, 915.219 1184.441, 917.445 " />
            <path fill="none" stroke-width="3.0" stroke-linecap="butt" stroke-opacity="1.0" stroke="rgb(0, 0, 0)" stroke-linejoin="round" d=" M 65.994, 1940.247 61.446, 1949.154 56.898, 1958.060 52.350, 1966.966 47.803, 1975.872 43.255, 1984.778 38.707, 1993.684 34.159, 2002.590 29.611, 2011.496 25.063, 2020.402 23.567, 2023.333 33.567, 2023.333 43.567, 2023.333 53.567, 2023.333 63.567, 2023.334 73.567, 2023.334 83.567, 2023.334 93.567, 2023.334 103.567, 2023.334 113.567, 2023.335 123.567, 2023.335 133.567, 2023.335 143.567, 2023.335 153.567, 2023.335 163.567, 2023.336 173.567, 2023.336 183.567, 2023.336 193.567, 2023.336 203.567, 2023.336 213.567, 2023.337 223.567, 2023.337 233.567, 2023.337 237.659, 2023.337 242.232, 2023.337 245.135, 2023.337 255.135, 2023.337 265.135, 2023.337 275.135, 2023.338 285.135, 2023.338 295.135, 2023.338 305.135, 2023.338 315.135, 2023.338 325.135, 2023.339 335.135, 2023.339 345.135, 2023.339 355.135, 2023.339 365.135, 2023.339 375.135, 2023.339 385.135, 2023.340 395.135, 2023.340 405.135, 2023.340 415.135, 2023.340 425.135, 2023.340 435.135, 2023.340 445.135, 2023.341 455.135, 2023.341 465.135, 2023.341 475.135, 2023.341 485.048, 2023.341 495.048, 2023.342 505.048, 2023.342 515.048, 2023.342 525.048, 2023.342 535.048, 2023.342 545.048, 2023.342 555.048, 2023.343 565.048, 2023.343 575.048, 2023.343 585.048, 2023.343 595.048, 2023.343 605.048, 2023.344 615.048, 2023.344 625.048, 2023.344 635.048, 2023.344 645.048, 2023.344 655.048, 2023.344 665.048, 2023.345 675.048, 2023.345 685.048, 2023.345 695.048, 2023.345 705.048, 2023.345 715.048, 2023.345 725.048, 2023.346 735.048, 2023.346 745.048, 2023.346 755.048, 2023.346 765.048, 2023.346 775.048, 2023.347 785.048, 2023.347 795.048, 2023.347 805.048, 2023.347 815.048, 2023.347 825.048, 2023.347 835.048, 2023.348 845.048, 2023.348 855.048, 2023.348 865.048, 2023.348 875.048, 2023.348 885.048, 2023.348 895.048, 2023.349 905.048, 2023.349 915.048, 2023.349 925.048, 2023.349 935.048, 2023.349 945.048, 2023.350 955.048, 2023.350 965.048, 2023.350 975.048, 2023.350 985.048, 2023.350 995.048, 2023.350 1005.048, 2023.351 1015.048, 2023.351 1025.048, 2023.351 1035.048, 2023.351 1045.048, 2023.351 1055.048, 2023.351 1065.048, 2023.352 1075.048, 2023.352 1085.048, 2023.352 1095.048, 2023.352 1105.048, 2023.352 1115.048, 2023.353 1125.048, 2023.353 1135.048, 2023.353 1145.048, 2023.353 1155.048, 2023.353 1165.048, 2023.353 1175.048, 2023.354 1185.048, 2023.354 1195.048, 2023.354 1205.048, 2023.354 1215.048, 2023.354 1225.048, 2023.355 1235.048, 2023.355 1245.048, 2023.355 1255.048, 2023.355 1265.048, 2023.355 1275.048, 2023.355 1285.048, 2023.356 1295.048, 2023.356 1305.048, 2023.356 1315.047, 2023.356 1325.047, 2023.356 1335.047, 2023.356 1345.047, 2023.357 1355.047, 2023.357 1369.903, 2023.357 1379.903, 2023.357 1389.903, 2023.357 1399.903, 2023.358 1409.903, 2023.358 1419.903, 2023.358 1429.903, 2023.358 1439.903, 2023.358 1449.903, 2023.358 1459.903, 2023.359 1469.903, 2023.359 1479.903, 2023.359 1489.903, 2023.359 1499.903, 2023.359 1509.903, 2023.360 1519.903, 2023.360 1529.903, 2023.360 1539.903, 2023.360 1549.903, 2023.360 1559.903, 2023.360 1569.903, 2023.361 1579.903, 2023.361 1589.903, 2023.361 1599.903, 2023.361 1609.903, 2023.361 1619.903, 2023.362 1629.903, 2023.362 1639.903, 2023.362 1649.903, 2023.362 1659.903, 2023.362 1669.903, 2023.362 1679.903, 2023.363 1689.903, 2023.363 1699.903, 2023.363 1709.903, 2023.363 1719.903, 2023.363 1729.903, 2023.363 1739.903, 2023.364 1749.903, 2023.364 1759.903, 2023.364 1769.903, 2023.364 1779.903, 2023.364 1789.903, 2023.365 1799.903, 2023.365 1809.903, 2023.365 1819.903, 2023.365 1824.708, 2023.365 " />
            <path fill="none" stroke-width="3.0" stroke-linecap="butt" stroke-opacity="1.0" stroke="rgb(0, 0, 0)" stroke-linejoin="round" d=" M 245.135, 2023.337 247.942, 2023.337 247.977, 2023.337 250.748, 2023.297 " />
            <path fill="none" stroke-width="3.0" stroke-linecap="butt" stroke-opacity="1.0" stroke="rgb(0, 0, 0)" stroke-linejoin="round" d=" M 1181.455, 913.066 1183.003, 915.219 " />
            <path fill="none" stroke-width="3.0" stroke-linecap="butt" stroke-opacity="1.0" stroke="rgb(0, 0, 0)" stroke-linejoin="round" d=" M 1179.803, 910.994 1181.455, 913.066 " />
            <path fill="none" stroke-width="3.0" stroke-linecap="butt" stroke-opacity="1.0" stroke="rgb(0, 0, 0)" stroke-linejoin="round" d=" M 1178.049, 909.007 1179.803, 910.994 " />
            <path fill="none" stroke-width="3.0" stroke-linecap="butt" stroke-opacity="1.0" stroke="rgb(0, 0, 0)" stroke-linejoin="round" d=" M 1119.660, 895.681 1122.151, 894.774 1124.684, 893.992 1127.252, 893.339 1129.850, 892.813 1132.471, 892.418 1135.108, 892.154 1137.756, 892.022 1140.406, 892.022 1143.054, 892.154 1145.691, 892.418 1148.312, 892.813 1150.910, 893.339 1153.478, 893.992 1156.011, 894.774 1158.502, 895.681 1160.944, 896.710 1163.332, 897.860 1165.660, 899.127 1167.922, 900.509 1170.112, 902.003 1172.225, 903.603 1174.255, 905.307 1176.198, 907.110 1178.049, 909.007 " />
            <path fill="none" stroke-width="3.0" stroke-linecap="butt" stroke-opacity="1.0" stroke="rgb(0, 0, 0)" stroke-linejoin="round" d=" M 731.322, 1242.402 728.803, 1244.985 726.159, 1247.439 723.395, 1249.757 720.519, 1251.936 717.538, 1253.968 714.460, 1255.849 711.292, 1257.574 708.041, 1259.139 704.717, 1260.541 701.326, 1261.775 697.879, 1262.838 694.383, 1263.729 690.847, 1264.444 687.279, 1264.981 683.690, 1265.341 680.086, 1265.521 676.479, 1265.521 672.876, 1265.341 669.286, 1264.981 665.718, 1264.444 662.182, 1263.729 658.686, 1262.838 655.239, 1261.775 651.849, 1260.541 648.524, 1259.139 645.274, 1257.574 642.105, 1255.849 639.027, 1253.968 636.046, 1251.936 633.170, 1249.757 630.407, 1247.439 627.762, 1244.985 625.243, 1242.402 622.856, 1239.697 620.607, 1236.876 618.501, 1233.947 616.543, 1230.917 614.739, 1227.793 613.094, 1224.582 611.610, 1221.293 610.292, 1217.935 609.143, 1214.515 608.166, 1211.043 607.363, 1207.525 606.736, 1203.973 606.288, 1200.393 606.018, 1196.795 605.928, 1193.189 606.018, 1189.582 606.288, 1185.984 606.736, 1182.404 607.363, 1178.852 608.166, 1175.334 609.143, 1171.862 610.292, 1168.442 611.610, 1165.083 613.094, 1161.795 614.739, 1158.584 616.543, 1155.460 618.501, 1152.430 620.607, 1149.501 622.856, 1146.680 625.243, 1143.975 627.762, 1141.392 630.407, 1138.938 633.170, 1136.620 636.046, 1134.441 639.027, 1132.409 642.105, 1130.528 645.274, 1128.803 648.524, 1127.237 651.849, 1125.836 655.239, 1124.602 658.686, 1123.538 662.182, 1122.648 665.718, 1121.934 669.286, 1121.396 672.876, 1121.036 676.479, 1120.856 680.086, 1120.856 683.690, 1121.036 687.279, 1121.396 690.847, 1121.934 694.383, 1122.648 697.879, 1123.538 701.326, 1124.602 704.717, 1125.836 708.041, 1127.237 711.292, 1128.803 714.460, 1130.528 717.538, 1132.409 720.519, 1134.441 723.395, 1136.620 726.159, 1138.938 728.803, 1141.392 731.322, 1143.975 733.709, 1146.680 735.959, 1149.501 738.065, 1152.430 740.022, 1155.460 741.826, 1158.584 743.472, 1161.795 744.955, 1165.083 746.273, 1168.442 747.422, 1171.862 748.400, 1175.334 749.202, 1178.852 749.829, 1182.404 750.277, 1185.984 750.547, 1189.582 750.637, 1193.189 750.547, 1196.795 750.277, 1200.393 749.829, 1203.973 749.202, 1207.525 748.400, 1211.043 747.422, 1214.515 746.273, 1217.935 744.955, 1221.293 743.472, 1224.582 741.826, 1227.793 740.022, 1230.917 738.065, 1233.947 735.959, 1236.876 733.709, 1239.697 731.322, 1242.402 " />
            <path fill="none" stroke-width="3.0" stroke-linecap="butt" stroke-opacity="1.0" stroke="rgb(0, 0, 0)" stroke-linejoin="round" d=" M 1103.907, 985.021 1101.964, 983.219 1100.113, 981.320 1098.359, 979.333 1096.707, 977.261 1095.159, 975.109 " />
            <path fill="none" stroke-width="3.0" stroke-linecap="butt" stroke-opacity="1.0" stroke="rgb(0, 0, 0)" stroke-linejoin="round" d=" M 1092.396, 970.587 1091.187, 968.229 1090.097, 965.812 1089.129, 963.345 1088.284, 960.832 " />
            <path fill="none" stroke-width="3.0" stroke-linecap="butt" stroke-opacity="1.0" stroke="rgb(0, 0, 0)" stroke-linejoin="round" d=" M 1087.567, 958.281 1086.977, 955.697 1086.517, 953.087 1086.187, 950.457 1085.989, 947.813 " />
            <path fill="none" stroke-width="3.0" stroke-linecap="butt" stroke-opacity="1.0" stroke="rgb(0, 0, 0)" stroke-linejoin="round" d=" M 1085.923, 945.164 1085.989, 942.514 1086.187, 939.872 1086.517, 937.241 1086.977, 934.631 " />
            <path fill="none" stroke-width="3.0" stroke-linecap="butt" stroke-opacity="1.0" stroke="rgb(0, 0, 0)" stroke-linejoin="round" d=" M 1086.977, 934.631 1087.567, 932.047 " />
            <path fill="none" stroke-width="3.0" stroke-linecap="butt" stroke-opacity="1.0" stroke="rgb(0, 0, 0)" stroke-linejoin="round" d=" M 1087.567, 932.047 1088.284, 929.495 " />
            <path fill="none" stroke-width="3.0" stroke-linecap="butt" stroke-opacity="1.0" stroke="rgb(0, 0, 0)" stroke-linejoin="round" d=" M 1088.284, 929.495 1089.129, 926.983 " />
            <path fill="none" stroke-width="3.0" stroke-linecap="butt" stroke-opacity="1.0" stroke="rgb(0, 0, 0)" stroke-linejoin="round" d=" M 1089.129, 926.983 1090.097, 924.516 1091.187, 922.099 1092.396, 919.741 1093.722, 917.445 " />
            <path fill="none" stroke-width="3.0" stroke-linecap="butt" stroke-opacity="1.0" stroke="rgb(0, 0, 0)" stroke-linejoin="round" d=" M 1801.171, 23.640 1791.171, 23.640 1781.171, 23.640 1771.171, 23.640 1761.171, 23.640 1751.171, 23.640 1741.171, 23.640 1731.171, 23.640 1721.171, 23.640 1711.171, 23.640 1701.171, 23.640 1691.171, 23.640 1681.171, 23.640 1671.171, 23.640 1661.171, 23.640 1651.171, 23.640 1641.171, 23.639 1631.171, 23.639 1621.171, 23.639 1611.171, 23.639 1601.171, 23.639 1591.171, 23.639 1581.171, 23.639 1571.171, 23.639 1561.171, 23.639 1551.249, 23.639 1550.676, 23.639 1550.116, 23.639 1549.570, 23.639 " />
            <path fill="none" stroke-width="3.0" stroke-linecap="butt" stroke-opacity="1.0" stroke="rgb(0, 0, 0)" stroke-linejoin="round" d=" M 1100.113, 909.007 1101.964, 907.110 1103.907, 905.307 1105.937, 903.603 1108.050, 902.003 " />
            <path fill="none" stroke-width="3.0" stroke-linecap="butt" stroke-opacity="1.0" stroke="rgb(0, 0, 0)" stroke-linejoin="round" d=" M 1108.050, 902.003 1110.240, 900.509 " />
            <path fill="none" stroke-width="3.0" stroke-linecap="butt" stroke-opacity="1.0" stroke="rgb(0, 0, 0)" stroke-linejoin="round" d=" M 1110.240, 900.509 1112.502, 899.127 1114.830, 897.860 1117.218, 896.710 1119.660, 895.681 " />
            <path fill="none" stroke-width="3.0" stroke-linecap="butt" stroke-opacity="1.0" stroke="rgb(0, 0, 0)" stroke-linejoin="round" d=" M 1093.722, 917.445 1095.159, 915.219 1096.707, 913.066 1098.359, 910.994 " />
            <path fill="none" stroke-width="3.0" stroke-linecap="butt" stroke-opacity="1.0" stroke="rgb(0, 0, 0)" stroke-linejoin="round" d=" M 1098.359, 910.994 1100.113, 909.007 " />
            <path fill="none" stroke-width="3.0" stroke-linecap="butt" stroke-opacity="1.0" stroke="rgb(0, 0, 0)" stroke-linejoin="round" d=" M 478.320, 23.726 478.048, 23.726 477.770, 23.726 477.487, 23.726 477.200, 23.726 " />
            <path fill="none" stroke-width="3.0" stroke-linecap="butt" stroke-opacity="1.0" stroke="rgb(0, 0, 0)" stroke-linejoin="round" d=" M 478.878, 23.684 478.585, 23.726 478.320, 23.726 " />
            <path fill="none" stroke-width="3.0" stroke-linecap="butt" stroke-opacity="1.0" stroke="rgb(0, 0, 0)" stroke-linejoin="round" d=" M 477.200, 23.726 476.841, 23.631 476.841, 23.631 466.841, 23.631 456.841, 23.631 446.841, 23.631 436.841, 23.631 426.841, 23.631 416.841, 23.631 406.841, 23.631 397.971, 23.630 " />
            <path fill="none" stroke-width="3.0" stroke-linecap="butt" stroke-opacity="1.0" stroke="rgb(0, 0, 0)" stroke-linejoin="round" d=" M 2120.753, 2023.371 2130.753, 2023.371 2140.753, 2023.371 2150.753, 2023.371 2160.753, 2023.372 2170.753, 2023.372 2180.753, 2023.372 2190.753, 2023.372 2200.753, 2023.372 2210.753, 2023.372 2220.753, 2023.373 2230.753, 2023.373 2240.753, 2023.373 2250.753, 2023.373 2260.753, 2023.373 2270.753, 2023.373 2280.753, 2023.374 2290.753, 2023.374 2300.753, 2023.374 2310.753, 2023.374 2320.753, 2023.374 2330.753, 2023.374 2340.753, 2023.375 2350.753, 2023.375 2360.753, 2023.375 2370.753, 2023.375 2380.753, 2023.375 2390.753, 2023.375 2400.753, 2023.376 2410.753, 2023.376 2420.753, 2023.376 2430.753, 2023.376 2440.753, 2023.376 2450.753, 2023.376 2460.753, 2023.377 2470.753, 2023.377 2480.753, 2023.377 2490.753, 2023.377 2500.753, 2023.377 2510.753, 2023.377 2520.753, 2023.378 2530.753, 2023.378 2540.753, 2023.378 2550.753, 2023.378 2560.753, 2023.378 2570.753, 2023.378 2580.753, 2023.379 2585.433, 2023.379 " />
            <path fill="none" stroke-width="3.0" stroke-linecap="butt" stroke-opacity="1.0" stroke="rgb(0, 0, 0)" stroke-linejoin="round" d=" M 2102.001, 2023.370 2112.001, 2023.370 2117.730, 2023.370 " />
            <path fill="none" stroke-width="3.0" stroke-linecap="butt" stroke-opacity="1.0" stroke="rgb(0, 0, 0)" stroke-linejoin="round" d=" M 1123.357, 2023.353 1133.357, 2023.353 1143.357, 2023.353 1153.357, 2023.353 1158.669, 2023.353 1160.861, 2023.353 " />
            <path fill="none" stroke-width="3.0" stroke-linecap="butt" stroke-opacity="1.0" stroke="rgb(0, 0, 0)" stroke-linejoin="round" d=" M 237.659, 2023.337 237.819, 2023.337 247.819, 2023.337 257.819, 2023.337 267.819, 2023.338 277.819, 2023.338 287.819, 2023.338 297.819, 2023.338 307.819, 2023.338 317.819, 2023.339 327.819, 2023.339 337.819, 2023.339 347.819, 2023.339 357.819, 2023.339 367.819, 2023.339 377.819, 2023.340 387.819, 2023.340 397.819, 2023.340 407.819, 2023.340 417.819, 2023.340 427.819, 2023.340 437.819, 2023.341 447.819, 2023.341 457.819, 2023.341 467.819, 2023.341 477.819, 2023.341 487.819, 2023.342 497.819, 2023.342 507.819, 2023.342 517.819, 2023.342 527.819, 2023.342 537.819, 2023.342 547.819, 2023.343 557.819, 2023.343 567.819, 2023.343 577.819, 2023.343 587.819, 2023.343 597.819, 2023.343 607.819, 2023.344 617.819, 2023.344 627.819, 2023.344 637.819, 2023.344 647.819, 2023.344 657.819, 2023.345 667.819, 2023.345 677.819, 2023.345 687.819, 2023.345 697.819, 2023.345 707.819, 2023.345 717.819, 2023.346 727.819, 2023.346 737.819, 2023.346 747.819, 2023.346 757.819, 2023.346 767.819, 2023.346 777.819, 2023.347 787.819, 2023.347 797.819, 2023.347 807.819, 2023.347 817.819, 2023.347 827.819, 2023.348 837.819, 2023.348 847.819, 2023.348 857.819, 2023.348 867.819, 2023.348 877.819, 2023.348 887.819, 2023.349 897.819, 2023.349 907.819, 2023.349 917.819, 2023.349 927.819, 2023.349 937.819, 2023.350 947.819, 2023.350 957.819, 2023.350 967.819, 2023.350 977.819, 2023.350 987.819, 2023.350 997.819, 2023.351 1007.819, 2023.351 1017.819, 2023.351 1027.819, 2023.351 1037.819, 2023.351 1047.819, 2023.351 1057.819, 2023.352 1067.819, 2023.352 1077.819, 2023.352 1087.819, 2023.352 1097.819, 2023.352 1107.819, 2023.353 1117.819, 2023.353 1127.819, 2023.353 1137.819, 2023.353 1147.819, 2023.353 1157.819, 2023.353 1167.819, 2023.354 1177.819, 2023.354 1187.819, 2023.354 1197.819, 2023.354 1207.819, 2023.354 1217.819, 2023.354 1227.819, 2023.355 1237.819, 2023.355 1247.819, 2023.355 1257.819, 2023.355 1267.819, 2023.355 1277.819, 2023.356 1287.819, 2023.356 1297.819, 2023.356 1307.819, 2023.356 1317.819, 2023.356 1327.819, 2023.356 1337.819, 2023.357 1347.819, 2023.357 1357.819, 2023.357 1367.819, 2023.357 1377.819, 2023.357 1387.819, 2023.357 1397.819, 2023.358 1407.819, 2023.358 1417.819, 2023.358 1427.819, 2023.358 1437.819, 2023.358 1447.819, 2023.359 1457.819, 2023.359 1467.819, 2023.359 1477.819, 2023.359 1487.819, 2023.359 1497.819, 2023.359 1520.198, 2023.360 1530.198, 2023.360 1540.198, 2023.360 1550.198, 2023.360 1560.198, 2023.361 1570.198, 2023.361 1580.198, 2023.361 1590.198, 2023.361 1600.198, 2023.361 1610.198, 2023.361 1620.198, 2023.362 1630.198, 2023.362 1640.198, 2023.362 1650.198, 2023.362 1660.198, 2023.362 1670.198, 2023.362 1680.198, 2023.363 1690.198, 2023.363 1700.198, 2023.363 1710.198, 2023.363 1720.198, 2023.363 1730.198, 2023.364 1740.198, 2023.364 1750.198, 2023.364 1760.198, 2023.364 1770.198, 2023.364 1780.198, 2023.364 1790.198, 2023.365 1800.198, 2023.365 1810.198, 2023.365 1820.198, 2023.365 1830.198, 2023.365 1840.198, 2023.365 1850.198, 2023.366 1860.198, 2023.366 1870.198, 2023.366 1880.198, 2023.366 1890.198, 2023.366 1903.882, 2023.367 " />
            <path fill="none" stroke-width="3.0" stroke-linecap="butt" stroke-opacity="1.0" stroke="rgb(0, 0, 0)" stroke-linejoin="round" d=" M 60.263, 1860.414 60.979, 1870.389 61.695, 1880.363 62.411, 1890.337 63.127, 1900.312 63.843, 1910.286 64.559, 1920.260 65.275, 1930.235 65.994, 1940.247 " />
            <path fill="none" stroke-width="3.0" stroke-linecap="butt" stroke-opacity="1.0" stroke="rgb(0, 0, 0)" stroke-linejoin="round" d=" M 95.624, 1652.086 93.951, 1661.945 92.277, 1671.804 90.604, 1681.663 88.930, 1691.522 87.257, 1701.381 85.584, 1711.240 83.910, 1721.099 82.237, 1730.958 80.563, 1740.817 78.890, 1750.676 77.216, 1760.535 75.543, 1770.394 73.870, 1780.253 72.196, 1790.112 70.523, 1799.971 68.849, 1809.830 67.176, 1819.689 65.502, 1829.548 63.829, 1839.407 62.156, 1849.266 60.263, 1860.414 " />
            <path fill="none" stroke-width="3.0" stroke-linecap="butt" stroke-opacity="1.0" stroke="rgb(0, 0, 0)" stroke-linejoin="round" d=" M 109.828, 1406.666 109.251, 1416.649 108.673, 1426.632 108.095, 1436.615 107.517, 1446.599 106.939, 1456.582 106.362, 1466.565 105.784, 1476.549 105.206, 1486.532 104.628, 1496.515 104.050, 1506.498 103.473, 1516.482 102.895, 1526.465 102.317, 1536.448 101.739, 1546.432 101.161, 1556.415 100.584, 1566.398 100.006, 1576.382 99.428, 1586.365 98.850, 1596.348 98.272, 1606.331 97.695, 1616.315 97.117, 1626.298 96.539, 1636.281 95.961, 1646.265 95.624, 1652.086 " />
            <path fill="none" stroke-width="3.0" stroke-linecap="butt" stroke-opacity="1.0" stroke="rgb(0, 0, 0)" stroke-linejoin="round" d=" M 397.971, 23.630 387.971, 23.630 377.971, 23.630 370.940, 23.630 " />
            <path fill="none" stroke-width="3.0" stroke-linecap="butt" stroke-opacity="1.0" stroke="rgb(0, 0, 0)" stroke-linejoin="round" d=" M 1085.989, 947.813 1085.923, 945.164 " />
            <path fill="none" stroke-width="3.0" stroke-linecap="butt" stroke-opacity="1.0" stroke="rgb(0, 0, 0)" stroke-linejoin="round" d=" M 1088.284, 960.832 1087.567, 958.281 " />
            <path fill="none" stroke-width="3.0" stroke-linecap="butt" stroke-opacity="1.0" stroke="rgb(0, 0, 0)" stroke-linejoin="round" d=" M 1093.722, 972.883 1092.396, 970.587 " />
            <path fill="none" stroke-width="3.0" stroke-linecap="butt" stroke-opacity="1.0" stroke="rgb(0, 0, 0)" stroke-linejoin="round" d=" M 1095.159, 975.109 1093.722, 972.883 " />
            <path fill="none" stroke-width="3.0" stroke-linecap="butt" stroke-opacity="1.0" stroke="rgb(0, 0, 0)" stroke-linejoin="round" d=" M 1105.937, 986.724 1103.907, 985.021 " />
            <path fill="none" stroke-width="3.0" stroke-linecap="butt" stroke-opacity="1.0" stroke="rgb(0, 0, 0)" stroke-linejoin="round" d=" M 1108.050, 988.326 1105.937, 986.724 " />
            <path fill="none" stroke-width="3.0" stroke-linecap="butt" stroke-opacity="1.0" stroke="rgb(0, 0, 0)" stroke-linejoin="round" d=" M 1143.054, 998.173 1140.406, 998.306 " />
            <path fill="none" stroke-width="3.0" stroke-linecap="butt" stroke-opacity="1.0" stroke="rgb(0, 0, 0)" stroke-linejoin="round" d=" M 1176.198, 983.219 1174.255, 985.021 " />
            <path fill="none" stroke-width="3.0" stroke-linecap="butt" stroke-opacity="1.0" stroke="rgb(0, 0, 0)" stroke-linejoin="round" d=" M 1189.034, 963.345 1188.065, 965.812 " />
            <path fill="none" stroke-width="3.0" stroke-linecap="butt" stroke-opacity="1.0" stroke="rgb(0, 0, 0)" stroke-linejoin="round" d=" M 1549.570, 23.639 1539.570, 23.639 1529.570, 23.640 1519.570, 23.640 1509.570, 23.641 1499.570, 23.641 1489.570, 23.641 1479.570, 23.642 1469.570, 23.642 1459.570, 23.643 1449.570, 23.643 1439.570, 23.644 1429.570, 23.644 1419.570, 23.644 1409.570, 23.645 1399.570, 23.645 1389.570, 23.646 1379.570, 23.646 1369.570, 23.647 1359.570, 23.647 1349.570, 23.647 1339.570, 23.648 1329.570, 23.648 1319.570, 23.649 1309.570, 23.649 1299.570, 23.650 1289.570, 23.650 1279.570, 23.650 1269.570, 23.651 1259.570, 23.651 1249.570, 23.652 1239.570, 23.652 1229.570, 23.652 1219.570, 23.653 1209.570, 23.653 1199.570, 23.654 1189.570, 23.654 1179.570, 23.655 1169.570, 23.655 1159.570, 23.656 1149.570, 23.656 1139.570, 23.656 1129.570, 23.657 1119.570, 23.657 1109.570, 23.658 1099.570, 23.658 1089.570, 23.658 1079.570, 23.659 1069.570, 23.659 1059.570, 23.660 1049.570, 23.660 1039.570, 23.661 1029.570, 23.661 1019.570, 23.661 1009.570, 23.662 999.570, 23.662 989.570, 23.663 979.570, 23.663 969.570, 23.664 959.570, 23.664 949.570, 23.664 939.570, 23.665 929.570, 23.665 919.570, 23.666 909.570, 23.666 899.570, 23.667 889.570, 23.667 879.570, 23.667 869.570, 23.668 859.570, 23.668 849.570, 23.669 839.570, 23.669 829.570, 23.669 819.570, 23.670 809.570, 23.670 799.570, 23.671 789.570, 23.671 779.570, 23.672 769.570, 23.672 759.570, 23.672 749.570, 23.673 739.570, 23.673 729.570, 23.674 719.570, 23.674 709.570, 23.675 699.570, 23.675 689.570, 23.675 679.570, 23.676 669.570, 23.676 659.570, 23.677 649.570, 23.677 639.570, 23.677 629.570, 23.678 619.570, 23.678 609.570, 23.679 599.570, 23.679 589.570, 23.680 579.570, 23.680 569.570, 23.681 559.570, 23.681 549.570, 23.681 539.570, 23.682 529.570, 23.682 519.570, 23.683 509.570, 23.683 499.570, 23.683 478.878, 23.684 " />
            <path fill="none" stroke-width="3.0" stroke-linecap="butt" stroke-opacity="1.0" stroke="rgb(0, 0, 0)" stroke-linejoin="round" d=" M 1801.171, 23.640 1791.171, 23.640 1781.171, 23.640 1771.171, 23.640 1761.171, 23.640 1751.171, 23.640 1741.171, 23.640 1731.171, 23.640 1721.171, 23.640 1711.171, 23.640 1701.171, 23.640 1691.171, 23.640 1681.171, 23.640 1671.171, 23.639 1661.171, 23.639 1651.171, 23.639 1641.171, 23.639 1631.171, 23.639 1621.171, 23.639 1611.171, 23.639 1601.171, 23.639 1591.171, 23.639 1581.171, 23.639 1571.171, 23.639 1561.171, 23.639 1551.171, 23.639 1541.171, 23.639 1531.171, 23.638 1521.171, 23.638 1511.171, 23.638 1501.171, 23.638 1491.171, 23.638 1481.171, 23.638 1471.171, 23.638 1461.171, 23.638 1451.171, 23.638 1441.171, 23.638 1431.171, 23.638 1421.171, 23.638 1411.171, 23.638 1401.171, 23.638 1391.171, 23.637 1381.171, 23.637 1371.171, 23.637 1361.171, 23.637 1351.171, 23.637 1341.171, 23.637 1331.171, 23.637 1321.171, 23.637 1311.171, 23.637 1301.171, 23.637 1291.171, 23.637 1281.171, 23.637 1271.171, 23.637 1261.171, 23.637 1251.171, 23.636 1241.171, 23.636 1231.171, 23.636 1221.171, 23.636 1211.171, 23.636 1201.171, 23.636 1191.171, 23.636 1181.171, 23.636 1171.171, 23.636 1161.171, 23.636 1151.171, 23.636 1141.171, 23.636 1131.171, 23.636 1121.171, 23.636 1111.171, 23.635 1101.171, 23.635 1091.171, 23.635 1081.171, 23.635 1071.171, 23.635 1061.171, 23.635 1051.171, 23.635 1041.171, 23.635 1031.171, 23.635 1021.171, 23.635 1011.171, 23.635 1001.171, 23.635 991.171, 23.635 981.171, 23.635 971.171, 23.635 961.171, 23.634 951.171, 23.634 941.171, 23.634 931.171, 23.634 921.171, 23.634 911.171, 23.634 901.171, 23.634 891.171, 23.634 881.171, 23.634 871.171, 23.634 861.171, 23.634 851.171, 23.634 841.171, 23.634 831.171, 23.634 821.171, 23.633 811.171, 23.633 801.171, 23.633 791.171, 23.633 781.171, 23.633 771.171, 23.633 761.171, 23.633 751.171, 23.633 741.171, 23.633 731.171, 23.633 721.171, 23.633 711.171, 23.633 701.171, 23.633 691.171, 23.633 681.171, 23.632 671.171, 23.632 661.171, 23.632 651.171, 23.632 641.171, 23.632 631.171, 23.632 621.171, 23.632 611.171, 23.632 601.171, 23.632 591.171, 23.632 581.171, 23.632 571.171, 23.632 561.171, 23.632 551.171, 23.632 541.171, 23.631 531.171, 23.631 521.171, 23.631 511.171, 23.631 501.171, 23.631 491.171, 23.631 481.171, 23.631 471.171, 23.631 461.171, 23.631 451.171, 23.631 441.171, 23.631 431.171, 23.631 421.171, 23.631 397.971, 23.630 " />
            <path fill="none" stroke-width="3.0" stroke-linecap="butt" stroke-opacity="1.0" stroke="rgb(0, 0, 0)" stroke-linejoin="round" d=" M 1801.171, 23.640 1791.171, 23.640 1781.171, 23.640 1771.171, 23.640 1761.171, 23.640 1751.171, 23.640 1741.171, 23.640 1731.171, 23.640 1721.171, 23.640 1711.171, 23.640 1701.171, 23.640 1691.171, 23.640 1681.171, 23.640 1671.171, 23.639 1661.171, 23.639 1651.171, 23.639 1641.171, 23.639 1631.171, 23.639 1621.171, 23.639 1611.171, 23.639 1601.171, 23.639 1591.171, 23.639 1581.171, 23.639 1571.171, 23.639 1561.171, 23.639 1551.171, 23.639 1541.171, 23.639 1531.171, 23.638 1521.171, 23.638 1511.171, 23.638 1501.171, 23.638 1491.171, 23.638 1481.171, 23.638 1471.171, 23.638 1461.171, 23.638 1451.171, 23.638 1441.171, 23.638 1431.171, 23.638 1421.171, 23.638 1411.171, 23.638 1401.171, 23.638 1391.171, 23.637 1381.171, 23.637 1371.171, 23.637 1361.171, 23.637 1351.171, 23.637 1341.171, 23.637 1331.171, 23.637 1321.171, 23.637 1311.171, 23.637 1301.171, 23.637 1291.171, 23.637 1281.171, 23.637 1271.171, 23.637 1261.171, 23.637 1251.171, 23.636 1241.171, 23.636 1231.171, 23.636 1221.171, 23.636 1211.171, 23.636 1201.171, 23.636 1191.171, 23.636 1181.171, 23.636 1171.171, 23.636 1161.171, 23.636 1151.171, 23.636 1141.171, 23.636 1131.171, 23.636 1121.171, 23.636 1111.171, 23.635 1101.171, 23.635 1091.171, 23.635 1081.171, 23.635 1071.171, 23.635 1061.171, 23.635 1051.171, 23.635 1041.171, 23.635 1031.171, 23.635 1021.171, 23.635 1011.171, 23.635 1001.171, 23.635 991.171, 23.635 981.171, 23.635 971.171, 23.635 961.171, 23.634 951.171, 23.634 941.171, 23.634 931.171, 23.634 921.171, 23.634 911.171, 23.634 901.171, 23.634 891.171, 23.634 881.171, 23.634 871.171, 23.634 861.171, 23.634 851.171, 23.634 841.171, 23.634 831.171, 23.634 821.171, 23.633 811.171, 23.633 801.171, 23.633 791.171, 23.633 781.171, 23.633 771.171, 23.633 761.171, 23.633 751.171, 23.633 741.171, 23.633 731.171, 23.633 721.171, 23.633 711.171, 23.633 701.171, 23.633 691.171, 23.633 681.171, 23.632 671.171, 23.632 661.171, 23.632 651.171, 23.632 641.171, 23.632 631.171, 23.632 621.171, 23.632 611.171, 23.632 601.171, 23.632 591.171, 23.632 581.171, 23.632 571.171, 23.632 561.171, 23.632 551.171, 23.632 541.171, 23.631 531.171, 23.631 521.171, 23.631 511.171, 23.631 501.171, 23.631 491.171, 23.631 481.171, 23.631 471.171, 23.631 461.171, 23.631 451.171, 23.631 441.171, 23.631 431.171, 23.631 421.171, 23.631 397.971, 23.630 " />
            <path fill="none" stroke-width="3.0" stroke-linecap="butt" stroke-opacity="1.0" stroke="rgb(0, 0, 0)" stroke-linejoin="round" d=" M 1520.198, 2023.360 1530.198, 2023.360 1540.198, 2023.360 1550.198, 2023.360 1560.198, 2023.361 1570.198, 2023.361 1580.198, 2023.361 1590.198, 2023.361 1600.198, 2023.361 1610.198, 2023.361 1620.198, 2023.362 1630.198, 2023.362 1640.198, 2023.362 1650.198, 2023.362 1660.198, 2023.362 1670.198, 2023.363 1680.198, 2023.363 1690.198, 2023.363 1700.198, 2023.363 1710.198, 2023.363 1720.198, 2023.363 1730.198, 2023.364 1740.198, 2023.364 1750.198, 2023.364 1760.198, 2023.364 1770.198, 2023.364 1780.198, 2023.365 1790.198, 2023.365 1800.198, 2023.365 1810.198, 2023.365 1820.198, 2023.365 1830.198, 2023.365 1840.198, 2023.366 1850.198, 2023.366 1860.198, 2023.366 1870.198, 2023.366 1880.198, 2023.366 1890.198, 2023.367 1900.198, 2023.367 1910.198, 2023.367 1920.198, 2023.367 1930.198, 2023.367 1940.198, 2023.367 1950.198, 2023.368 1960.198, 2023.368 1970.198, 2023.368 1980.198, 2023.368 1990.198, 2023.368 2000.198, 2023.369 2010.198, 2023.369 2020.198, 2023.369 2030.198, 2023.369 2040.198, 2023.369 2050.198, 2023.369 2060.198, 2023.370 2070.198, 2023.370 2080.198, 2023.370 2090.198, 2023.370 2100.198, 2023.370 2110.198, 2023.371 2119.066, 2023.371 " />
            <path fill="none" stroke-width="3.0" stroke-linecap="butt" stroke-opacity="1.0" stroke="rgb(0, 0, 0)" stroke-linejoin="round" d=" M 2115.872, 2023.370 2115.252, 2023.370 " />
            <path fill="none" stroke-width="3.0" stroke-linecap="butt" stroke-opacity="1.0" stroke="rgb(0, 0, 0)" stroke-linejoin="round" d=" M 2110.656, 2023.370 2116.530, 2023.370 " />
            <path fill="none" stroke-width="3.0" stroke-linecap="butt" stroke-opacity="1.0" stroke="rgb(0, 0, 0)" stroke-linejoin="round" d=" M 1161.100, 2023.353 1171.100, 2023.353 1181.100, 2023.354 1191.100, 2023.354 1201.100, 2023.354 1210.624, 2023.354 1220.624, 2023.354 1230.624, 2023.355 1240.624, 2023.355 1250.624, 2023.355 1260.624, 2023.355 1270.624, 2023.355 1280.624, 2023.355 1290.624, 2023.356 1300.624, 2023.356 1310.624, 2023.356 1320.624, 2023.356 1330.624, 2023.356 1340.624, 2023.357 1350.624, 2023.357 1360.624, 2023.357 1370.624, 2023.357 1380.624, 2023.357 1390.624, 2023.357 1400.624, 2023.358 1410.624, 2023.358 1420.624, 2023.358 1430.624, 2023.358 1440.624, 2023.358 1450.624, 2023.358 1460.624, 2023.359 1470.624, 2023.359 1480.624, 2023.359 1490.624, 2023.359 1500.624, 2023.359 1510.624, 2023.360 1520.624, 2023.360 1530.624, 2023.360 1540.624, 2023.360 1550.624, 2023.360 1560.624, 2023.360 1570.624, 2023.361 1580.624, 2023.361 1590.624, 2023.361 1600.624, 2023.361 1610.624, 2023.361 1620.624, 2023.361 1630.624, 2023.362 1640.624, 2023.362 1650.624, 2023.362 1660.624, 2023.362 1670.624, 2023.362 1680.624, 2023.363 1690.624, 2023.363 1700.624, 2023.363 1710.624, 2023.363 1720.624, 2023.363 1730.624, 2023.363 1744.489, 2023.364 " />
            <path fill="none" stroke-width="3.0" stroke-linecap="butt" stroke-opacity="1.0" stroke="rgb(0, 0, 0)" stroke-linejoin="round" d=" M 2111.246, 2023.370 2116.446, 2023.370 " />
            <path fill="none" stroke-width="3.0" stroke-linecap="butt" stroke-opacity="1.0" stroke="rgb(0, 0, 0)" stroke-linejoin="round" d=" M 1162.872, 2023.353 1172.872, 2023.353 1182.872, 2023.354 1192.872, 2023.354 1202.872, 2023.354 1212.872, 2023.354 1222.872, 2023.354 1232.872, 2023.355 1242.872, 2023.355 1252.872, 2023.355 1262.872, 2023.355 1272.872, 2023.355 1282.872, 2023.355 1292.872, 2023.356 1302.872, 2023.356 1312.872, 2023.356 1322.872, 2023.356 1332.872, 2023.356 1342.872, 2023.357 1352.872, 2023.357 1362.872, 2023.357 1372.872, 2023.357 1382.872, 2023.357 1392.872, 2023.357 1402.872, 2023.358 1412.872, 2023.358 1422.872, 2023.358 1432.872, 2023.358 1442.872, 2023.358 1452.872, 2023.358 1462.872, 2023.359 1472.872, 2023.359 1482.872, 2023.359 1492.872, 2023.359 1502.872, 2023.359 1512.872, 2023.360 1522.872, 2023.360 1532.872, 2023.360 1542.872, 2023.360 1552.872, 2023.360 1562.872, 2023.360 1572.872, 2023.361 1582.872, 2023.361 1592.872, 2023.361 1602.872, 2023.361 1612.872, 2023.361 1622.872, 2023.362 1632.872, 2023.362 1642.872, 2023.362 1652.872, 2023.362 1662.872, 2023.362 1672.872, 2023.362 1682.872, 2023.363 1692.872, 2023.363 1698.863, 2023.363 " />
            <path fill="none" stroke-width="3.0" stroke-linecap="butt" stroke-opacity="1.0" stroke="rgb(0, 0, 0)" stroke-linejoin="round" d=" M 2107.952, 2023.370 2116.910, 2023.370 " />
            <path fill="none" stroke-width="3.0" stroke-linecap="butt" stroke-opacity="1.0" stroke="rgb(0, 0, 0)" stroke-linejoin="round" d=" M 2109.440, 2023.370 2116.701, 2023.370 " />
            <path fill="none" stroke-width="3.0" stroke-linecap="butt" stroke-opacity="1.0" stroke="rgb(0, 0, 0)" stroke-linejoin="round" d=" M 2585.433, 2023.379 2580.810, 2014.512 2576.186, 2005.645 2571.562, 1996.778 2566.938, 1987.911 2562.314, 1979.044 2557.691, 1970.178 2553.067, 1961.311 2548.925, 1953.367 " />
        </g>
    </g>
<g id="slice-labels"><text x="450.54466666666667" y="523.56725" text-anchor="middle" dominant-baseline="middle" font-family="Arial, sans-serif" font-size="59.06485704424148" font-weight="bold" fill="black" stroke="none" stroke-width="7.087782845308978" paint-order="stroke fill">Slice45 (Front)</text><text x="1304.5" y="523.56725" text-anchor="middle" dominant-baseline="middle" font-family="Arial, sans-serif" font-size="59.06485704424148" font-weight="bold" fill="black" stroke="none" stroke-width="7.087782845308978" paint-order="stroke fill">Slice45 (Front)</text><text x="2158.4553333333333" y="523.56725" text-anchor="middle" dominant-baseline="middle" font-family="Arial, sans-serif" font-size="59.06485704424148" font-weight="bold" fill="black" stroke="none" stroke-width="7.087782845308978" paint-order="stroke fill">Slice45 (Front)</text><text x="450.54466666666667" y="1523.44175" text-anchor="middle" dominant-baseline="middle" font-family="Arial, sans-serif" font-size="59.06485704424148" font-weight="bold" fill="black" stroke="none" stroke-width="7.087782845308978" paint-order="stroke fill">Slice45 (Front)</text><text x="1304.5" y="1523.44175" text-anchor="middle" dominant-baseline="middle" font-family="Arial, sans-serif" font-size="59.06485704424148" font-weight="bold" fill="black" stroke="none" stroke-width="7.087782845308978" paint-order="stroke fill">Slice45 (Front)</text><text x="2158.4553333333333" y="1523.44175" text-anchor="middle" dominant-baseline="middle" font-family="Arial, sans-serif" font-size="59.06485704424148" font-weight="bold" fill="black" stroke="none" stroke-width="7.087782845308978" paint-order="stroke fill">Slice45 (Front)</text></g></svg>