<?xml version='1.0' encoding='utf-8'?>
<svg xmlns="http://www.w3.org/2000/svg" xmlns:inkscape="http://www.inkscape.org/namespaces/inkscape" version="1.1" width="163.38610211014748mm" height="103.63679313659668mm" viewBox="0.17604465849719375 0.0050470777852495985 1929.6679106830056 1223.9999058444296" preserveAspectRatio="none">
    <g id="ViewLayer_LineSet" inkscape:groupmode="lineset" inkscape:label="ViewLayer_LineSet">
        <g inkscape:groupmode="layer" id="strokes" inkscape:label="strokes">
            <path fill="none" stroke-width="3.0" stroke-linecap="butt" stroke-opacity="1.0" stroke="rgb(0, 0, 0)" stroke-linejoin="round" d=" M 1084.490, 850.217 1086.341, 852.113 1088.094, 854.101 1089.746, 856.173 1091.293, 858.324 " />
            <path fill="none" stroke-width="3.0" stroke-linecap="butt" stroke-opacity="1.0" stroke="rgb(0, 0, 0)" stroke-linejoin="round" d=" M 1091.293, 858.324 1092.731, 860.550 " />
            <path fill="none" stroke-width="3.0" stroke-linecap="butt" stroke-opacity="1.0" stroke="rgb(0, 0, 0)" stroke-linejoin="round" d=" M 1092.731, 860.550 1094.056, 862.845 " />
            <path fill="none" stroke-width="3.0" stroke-linecap="butt" stroke-opacity="1.0" stroke="rgb(0, 0, 0)" stroke-linejoin="round" d=" M 1094.056, 862.845 1095.265, 865.203 1096.355, 867.619 1097.323, 870.086 1098.167, 872.597 1098.885, 875.148 1099.474, 877.732 1099.934, 880.342 1100.264, 882.971 1100.462, 885.614 1100.528, 888.263 1100.462, 890.912 1100.264, 893.555 1099.934, 896.184 1099.474, 898.794 1098.885, 901.378 1098.167, 903.928 1097.323, 906.440 1096.355, 908.907 1095.265, 911.323 1094.056, 913.681 1092.731, 915.976 " />
            <path fill="none" stroke-width="3.0" stroke-linecap="butt" stroke-opacity="1.0" stroke="rgb(0, 0, 0)" stroke-linejoin="round" d=" M 1740.385, 1200.384 1750.385, 1200.384 1760.385, 1200.384 1770.385, 1200.384 1780.385, 1200.384 1790.385, 1200.384 1800.385, 1200.384 1810.385, 1200.384 1820.385, 1200.384 1830.385, 1200.384 1840.385, 1200.384 1850.385, 1200.384 1860.385, 1200.384 1870.385, 1200.384 1880.385, 1200.384 1890.385, 1200.384 1900.385, 1200.384 1906.223, 1200.384 " />
            <path fill="none" stroke-width="3.0" stroke-linecap="butt" stroke-opacity="1.0" stroke="rgb(0, 0, 0)" stroke-linejoin="round" d=" M 1313.215, 1200.384 1323.215, 1200.383 1333.215, 1200.383 1343.215, 1200.382 1353.215, 1200.381 1363.215, 1200.380 1373.215, 1200.380 1383.215, 1200.379 1393.215, 1200.378 1403.215, 1200.377 1413.215, 1200.377 1423.215, 1200.376 1433.215, 1200.375 1443.215, 1200.375 1453.215, 1200.374 1463.215, 1200.373 1473.215, 1200.372 1483.215, 1200.372 1493.215, 1200.371 1503.215, 1200.370 1513.215, 1200.369 1523.215, 1200.369 1533.215, 1200.368 1543.215, 1200.367 1553.215, 1200.366 1563.215, 1200.366 1573.215, 1200.365 1583.215, 1200.364 1593.215, 1200.364 1603.215, 1200.363 1613.215, 1200.362 1623.215, 1200.361 1633.215, 1200.361 1643.215, 1200.360 1653.215, 1200.359 1663.215, 1200.358 1673.215, 1200.358 1683.215, 1200.357 1693.215, 1200.356 1705.347, 1200.355 1706.284, 1200.340 1707.292, 1200.340 1708.371, 1200.340 1709.518, 1200.339 1710.728, 1200.339 1711.995, 1200.339 1713.316, 1200.339 1714.685, 1200.338 1716.096, 1200.338 1717.545, 1200.338 1719.026, 1200.338 1720.534, 1200.337 1722.063, 1200.337 1723.608, 1200.337 1725.164, 1200.336 1726.726, 1200.336 1728.289, 1200.336 1729.848, 1200.336 1731.398, 1200.335 1732.934, 1200.335 1734.453, 1200.335 1735.951, 1200.334 1737.424, 1200.334 1738.867, 1200.334 1740.385, 1200.384 " />
            <path fill="none" stroke-width="3.0" stroke-linecap="butt" stroke-opacity="1.0" stroke="rgb(0, 0, 0)" stroke-linejoin="round" d=" M 1092.731, 915.976 1091.293, 918.202 1089.746, 920.353 1088.094, 922.425 " />
            <path fill="none" stroke-width="3.0" stroke-linecap="butt" stroke-opacity="1.0" stroke="rgb(0, 0, 0)" stroke-linejoin="round" d=" M 1088.094, 922.425 1086.341, 924.412 1084.490, 926.309 1082.548, 928.112 1080.518, 929.815 1078.405, 931.415 " />
            <path fill="none" stroke-width="3.0" stroke-linecap="butt" stroke-opacity="1.0" stroke="rgb(0, 0, 0)" stroke-linejoin="round" d=" M 1718.368, 552.234 1713.382, 543.565 1708.396, 534.897 1703.409, 526.229 1698.423, 517.561 1693.437, 508.893 1688.451, 500.224 1683.464, 491.556 1678.478, 482.888 1673.492, 474.220 1668.506, 465.552 1663.519, 456.883 1658.533, 448.215 1653.209, 438.960 1648.223, 430.292 1643.237, 421.624 1638.251, 412.956 1633.265, 404.288 1628.278, 395.620 1626.817, 393.079 1623.171, 383.768 1619.525, 374.456 1615.879, 365.144 1612.233, 355.833 1608.587, 346.521 1604.941, 337.209 1601.295, 327.898 1597.648, 318.586 1594.002, 309.275 1590.356, 299.963 1586.710, 290.651 1583.064, 281.340 1579.418, 272.028 1575.772, 262.717 1572.126, 253.405 1568.480, 244.093 1564.834, 234.782 1561.188, 225.470 1557.542, 216.158 1553.896, 206.847 1550.250, 197.535 1546.604, 188.224 1542.958, 178.912 1539.312, 169.600 1535.666, 160.289 1532.020, 150.977 1528.373, 141.666 1526.720, 137.442 " />
            <path fill="none" stroke-width="3.0" stroke-linecap="butt" stroke-opacity="1.0" stroke="rgb(0, 0, 0)" stroke-linejoin="round" d=" M 1626.817, 393.079 1623.171, 383.768 1619.525, 374.456 1615.879, 365.144 1612.233, 355.833 1608.587, 346.521 1604.941, 337.209 1601.295, 327.898 1598.059, 319.634 1594.413, 310.322 1590.766, 301.010 1587.120, 291.699 1583.474, 282.387 1579.828, 273.076 1576.182, 263.764 1572.536, 254.452 1568.890, 245.141 1565.244, 235.829 1561.598, 226.518 1557.952, 217.206 1554.306, 207.894 1550.660, 198.583 1547.014, 189.271 1543.368, 179.959 1539.722, 170.648 1536.076, 161.336 1532.430, 152.025 1528.784, 142.713 1526.720, 137.442 " />
            <path fill="none" stroke-width="3.0" stroke-linecap="butt" stroke-opacity="1.0" stroke="rgb(0, 0, 0)" stroke-linejoin="round" d=" M 1107.729, 438.961 1111.389, 439.078 1111.604, 438.960 1107.729, 438.961 " />
            <path fill="none" stroke-width="3.0" stroke-linecap="butt" stroke-opacity="1.0" stroke="rgb(0, 0, 0)" stroke-linejoin="round" d=" M 1526.720, 137.442 1523.513, 127.970 1520.307, 118.497 1517.101, 109.025 1513.895, 99.553 1510.689, 90.081 1507.483, 80.609 1504.874, 72.901 1501.668, 63.429 1498.462, 53.957 1495.256, 44.485 1492.050, 35.013 1488.844, 25.541 1488.195, 23.626 " />
            <path fill="none" stroke-width="3.0" stroke-linecap="butt" stroke-opacity="1.0" stroke="rgb(0, 0, 0)" stroke-linejoin="round" d=" M 1504.874, 72.901 1508.080, 82.373 1511.286, 91.845 1514.492, 101.318 1517.698, 110.790 1520.905, 120.262 1524.111, 129.734 1526.720, 137.442 1523.513, 127.969 1520.307, 118.497 1517.101, 109.025 1513.895, 99.553 1510.689, 90.081 1507.483, 80.609 1504.277, 71.137 1501.071, 61.665 1497.865, 52.193 1494.659, 42.720 1491.453, 33.248 1488.195, 23.626 1478.195, 23.626 1468.195, 23.626 1458.195, 23.626 1448.195, 23.626 1438.195, 23.626 1428.195, 23.626 1418.195, 23.626 1408.195, 23.626 1398.195, 23.626 1388.195, 23.626 1378.195, 23.626 1368.195, 23.626 1358.195, 23.626 1348.195, 23.626 1338.195, 23.626 1328.195, 23.626 1318.195, 23.626 1308.195, 23.626 1298.195, 23.626 1288.195, 23.626 1278.195, 23.626 1268.195, 23.626 1258.195, 23.626 1248.195, 23.626 1238.195, 23.626 1228.195, 23.626 1218.195, 23.626 1208.195, 23.626 1198.195, 23.626 1188.195, 23.626 1178.195, 23.626 1168.599, 23.626 1166.017, 23.626 1158.205, 23.626 1155.607, 23.626 1153.028, 23.626 1150.475, 23.626 1147.957, 23.626 1140.696, 23.626 1130.696, 23.626 1120.696, 23.626 1110.696, 23.626 1100.696, 23.626 1090.696, 23.626 1080.696, 23.626 1070.696, 23.626 1060.696, 23.626 1050.696, 23.626 1040.696, 23.626 1030.696, 23.626 1020.696, 23.626 1010.696, 23.626 1000.696, 23.626 990.696, 23.626 980.696, 23.626 970.696, 23.626 960.696, 23.626 950.696, 23.626 940.696, 23.626 930.696, 23.626 920.696, 23.626 910.696, 23.626 900.696, 23.626 890.696, 23.626 880.696, 23.626 870.696, 23.626 860.696, 23.626 850.696, 23.626 840.696, 23.626 837.658, 23.626 833.254, 23.626 828.620, 23.626 821.389, 23.626 816.486, 23.626 814.035, 23.626 811.597, 23.626 809.178, 23.626 806.787, 23.626 796.787, 23.626 786.787, 23.626 776.787, 23.626 766.787, 23.626 756.787, 23.626 746.787, 23.626 736.787, 23.626 726.787, 23.626 716.787, 23.626 706.787, 23.626 696.787, 23.626 686.787, 23.626 676.787, 23.626 666.787, 23.626 656.787, 23.626 646.787, 23.626 636.787, 23.626 626.787, 23.626 616.787, 23.626 606.787, 23.626 596.787, 23.626 586.787, 23.626 576.787, 23.626 566.787, 23.626 556.787, 23.626 546.787, 23.626 536.787, 23.626 526.787, 23.626 516.787, 23.626 508.996, 23.626 505.143, 32.854 501.290, 42.082 497.437, 51.310 493.584, 60.538 489.732, 69.766 485.879, 78.994 482.026, 88.222 478.173, 97.450 474.321, 106.678 472.110, 111.973 " />
            <path fill="none" stroke-width="3.0" stroke-linecap="butt" stroke-opacity="1.0" stroke="rgb(0, 0, 0)" stroke-linejoin="round" d=" M 1103.669, 438.961 1107.518, 439.078 1107.729, 438.961 1103.669, 438.961 " />
            <path fill="none" stroke-width="3.0" stroke-linecap="butt" stroke-opacity="1.0" stroke="rgb(0, 0, 0)" stroke-linejoin="round" d=" M 1099.433, 438.961 1103.463, 439.079 1103.669, 438.961 1099.433, 438.961 " />
            <path fill="none" stroke-width="3.0" stroke-linecap="butt" stroke-opacity="1.0" stroke="rgb(0, 0, 0)" stroke-linejoin="round" d=" M 1090.303, 438.960 1094.645, 439.078 1094.846, 438.960 1090.303, 438.960 " />
            <path fill="none" stroke-width="3.0" stroke-linecap="butt" stroke-opacity="1.0" stroke="rgb(0, 0, 0)" stroke-linejoin="round" d=" M 1085.622, 438.960 1090.109, 439.078 1090.303, 438.960 1085.622, 438.960 " />
            <path fill="none" stroke-width="3.0" stroke-linecap="butt" stroke-opacity="1.0" stroke="rgb(0, 0, 0)" stroke-linejoin="round" d=" M 472.110, 111.973 467.291, 120.735 462.472, 129.498 457.653, 138.260 452.834, 147.023 448.016, 155.785 443.197, 164.547 438.378, 173.310 433.559, 182.072 430.267, 188.058 425.449, 196.820 420.630, 205.582 415.811, 214.345 410.992, 223.107 406.173, 231.870 401.355, 240.632 396.536, 249.394 391.717, 258.157 386.898, 266.919 382.079, 275.681 377.260, 284.444 372.442, 293.206 367.623, 301.969 366.421, 304.153 " />
            <path fill="none" stroke-width="3.0" stroke-linecap="butt" stroke-opacity="1.0" stroke="rgb(0, 0, 0)" stroke-linejoin="round" d=" M 952.862, 335.273 955.949, 344.785 958.720, 353.328 " />
            <path fill="none" stroke-width="3.0" stroke-linecap="butt" stroke-opacity="1.0" stroke="rgb(0, 0, 0)" stroke-linejoin="round" d=" M 952.230, 296.597 950.943, 306.118 951.900, 299.664 952.230, 296.597 " />
            <path fill="none" stroke-width="3.0" stroke-linecap="butt" stroke-opacity="1.0" stroke="rgb(0, 0, 0)" stroke-linejoin="round" d=" M 954.426, 287.327 952.230, 296.597 953.152, 292.968 954.426, 287.327 " />
            <path fill="none" stroke-width="3.0" stroke-linecap="butt" stroke-opacity="1.0" stroke="rgb(0, 0, 0)" stroke-linejoin="round" d=" M 991.233, 235.711 983.569, 242.135 977.345, 247.352 976.272, 248.593 971.354, 254.284 969.984, 256.211 966.007, 261.805 964.432, 264.537 961.366, 269.860 957.488, 278.390 954.426, 287.327 955.979, 282.983 957.488, 278.390 " />
            <path fill="none" stroke-width="3.0" stroke-linecap="butt" stroke-opacity="1.0" stroke="rgb(0, 0, 0)" stroke-linejoin="round" d=" M 1137.849, 348.895 1140.663, 339.299 1143.235, 330.526 " />
            <path fill="none" stroke-width="3.0" stroke-linecap="butt" stroke-opacity="1.0" stroke="rgb(0, 0, 0)" stroke-linejoin="round" d=" M 1144.110, 310.946 1144.009, 312.933 1143.970, 320.677 1144.110, 310.946 1143.291, 301.331 1142.173, 295.308 1141.545, 291.926 1140.404, 287.980 1138.910, 282.812 1137.238, 278.607 1135.434, 274.070 1131.167, 265.769 1126.166, 257.974 " />
            <path fill="none" stroke-width="3.0" stroke-linecap="butt" stroke-opacity="1.0" stroke="rgb(0, 0, 0)" stroke-linejoin="round" d=" M 1120.489, 250.741 1119.293, 249.483 1111.798, 242.863 1106.969, 238.597 1099.950, 233.000 1092.408, 228.129 1084.419, 224.033 1076.062, 220.753 1067.420, 218.321 1057.437, 217.742 1049.596, 217.286 1039.597, 217.368 1031.743, 217.432 1022.990, 219.429 " />
            <path fill="none" stroke-width="3.0" stroke-linecap="butt" stroke-opacity="1.0" stroke="rgb(0, 0, 0)" stroke-linejoin="round" d=" M 1120.489, 250.741 1124.688, 256.206 1126.166, 257.974 1120.489, 250.741 " />
            <path fill="none" stroke-width="3.0" stroke-linecap="butt" stroke-opacity="1.0" stroke="rgb(0, 0, 0)" stroke-linejoin="round" d=" M 1078.405, 931.415 1076.216, 932.908 1073.954, 934.290 1071.627, 935.557 1069.240, 936.707 1066.798, 937.736 1064.307, 938.642 1061.775, 939.424 1059.207, 940.078 " />
            <path fill="none" stroke-width="3.0" stroke-linecap="butt" stroke-opacity="1.0" stroke="rgb(0, 0, 0)" stroke-linejoin="round" d=" M 1056.610, 940.603 1053.989, 940.998 1051.353, 941.262 1048.706, 941.393 1046.056, 941.393 1043.409, 941.262 1040.772, 940.998 1038.152, 940.603 " />
            <path fill="none" stroke-width="3.0" stroke-linecap="butt" stroke-opacity="1.0" stroke="rgb(0, 0, 0)" stroke-linejoin="round" d=" M 162.124, 930.790 157.559, 939.687 152.994, 948.584 148.429, 957.482 143.864, 966.379 139.298, 975.276 134.733, 984.173 130.168, 993.070 125.603, 1001.968 121.038, 1010.865 116.473, 1019.762 111.908, 1028.659 107.343, 1037.556 102.778, 1046.454 98.213, 1055.351 93.648, 1064.248 89.083, 1073.145 84.517, 1082.042 79.952, 1090.940 75.387, 1099.837 70.822, 1108.734 66.257, 1117.631 61.692, 1126.528 57.127, 1135.426 52.562, 1144.323 47.997, 1153.220 43.432, 1162.117 38.867, 1171.014 34.302, 1179.911 29.736, 1188.809 23.797, 1200.384 33.797, 1200.384 43.797, 1200.384 53.797, 1200.384 63.797, 1200.384 73.797, 1200.384 83.797, 1200.384 93.797, 1200.384 103.797, 1200.384 113.797, 1200.384 123.797, 1200.384 133.797, 1200.384 143.797, 1200.384 153.797, 1200.384 163.797, 1200.384 173.797, 1200.384 183.797, 1200.384 193.797, 1200.384 203.797, 1200.384 213.797, 1200.384 223.797, 1200.384 233.797, 1200.384 240.061, 1200.384 241.861, 1200.384 243.629, 1200.384 245.359, 1200.384 247.043, 1200.384 248.675, 1200.384 250.250, 1200.384 260.250, 1200.384 270.250, 1200.384 280.250, 1200.384 290.250, 1200.384 300.250, 1200.384 310.250, 1200.384 320.250, 1200.384 330.250, 1200.384 340.250, 1200.384 350.250, 1200.384 360.250, 1200.384 370.250, 1200.384 380.250, 1200.384 390.250, 1200.384 400.250, 1200.384 410.250, 1200.384 420.250, 1200.384 430.250, 1200.384 440.250, 1200.384 450.250, 1200.384 460.250, 1200.384 470.250, 1200.384 480.250, 1200.384 490.250, 1200.384 499.342, 1200.384 501.822, 1200.384 504.213, 1200.384 506.507, 1200.384 508.697, 1200.384 510.775, 1200.384 512.734, 1200.384 514.567, 1200.384 516.268, 1200.384 526.268, 1200.384 536.268, 1200.384 546.268, 1200.384 556.268, 1200.384 566.268, 1200.384 576.268, 1200.384 586.268, 1200.384 596.268, 1200.384 606.268, 1200.384 616.268, 1200.384 626.268, 1200.384 636.268, 1200.384 646.268, 1200.384 656.268, 1200.384 666.268, 1200.384 676.268, 1200.384 686.268, 1200.384 696.268, 1200.384 706.268, 1200.384 716.268, 1200.384 726.268, 1200.384 736.268, 1200.384 746.268, 1200.384 756.268, 1200.384 766.268, 1200.384 776.268, 1200.384 786.268, 1200.384 796.268, 1200.384 806.268, 1200.384 816.268, 1200.384 826.268, 1200.384 836.268, 1200.384 846.268, 1200.384 856.268, 1200.384 866.268, 1200.384 876.268, 1200.384 886.268, 1200.384 896.268, 1200.384 906.268, 1200.384 916.268, 1200.384 926.268, 1200.384 936.268, 1200.384 946.268, 1200.384 956.268, 1200.384 966.268, 1200.384 976.268, 1200.384 986.268, 1200.384 996.268, 1200.384 1006.268, 1200.384 1016.268, 1200.384 1026.268, 1200.384 1036.268, 1200.384 1046.268, 1200.384 1056.268, 1200.384 1066.268, 1200.384 1076.268, 1200.384 1086.268, 1200.384 1096.268, 1200.384 1106.268, 1200.384 1116.268, 1200.384 1126.268, 1200.384 1136.268, 1200.384 1146.268, 1200.384 1156.268, 1200.384 1166.268, 1200.384 1176.268, 1200.384 1186.268, 1200.384 1196.268, 1200.384 1206.268, 1200.384 1216.268, 1200.384 1226.268, 1200.384 1236.268, 1200.384 1246.268, 1200.384 1256.268, 1200.384 1266.268, 1200.384 1276.268, 1200.384 1286.268, 1200.384 1296.268, 1200.384 1304.890, 1200.384 1306.820, 1200.384 1308.854, 1200.384 1310.988, 1200.384 1313.215, 1200.384 " />
            <path fill="none" stroke-width="3.0" stroke-linecap="butt" stroke-opacity="1.0" stroke="rgb(0, 0, 0)" stroke-linejoin="round" d=" M 994.300, 890.912 994.234, 888.263 994.300, 885.614 994.498, 882.971 994.827, 880.342 995.287, 877.732 995.877, 875.148 996.595, 872.597 997.439, 870.086 998.407, 867.619 999.497, 865.203 1000.706, 862.845 1002.031, 860.550 1003.469, 858.324 " />
            <path fill="none" stroke-width="3.0" stroke-linecap="butt" stroke-opacity="1.0" stroke="rgb(0, 0, 0)" stroke-linejoin="round" d=" M 1002.031, 915.976 1000.706, 913.681 999.497, 911.323 998.407, 908.907 997.439, 906.440 996.595, 903.928 995.877, 901.378 " />
            <path fill="none" stroke-width="3.0" stroke-linecap="butt" stroke-opacity="1.0" stroke="rgb(0, 0, 0)" stroke-linejoin="round" d=" M 1035.554, 940.078 1032.986, 939.424 1030.454, 938.642 1027.964, 937.736 1025.522, 936.707 1023.135, 935.557 1020.807, 934.290 1018.546, 932.908 1016.357, 931.415 1014.244, 929.815 1012.214, 928.112 1010.271, 926.309 1008.421, 924.412 1006.668, 922.425 1005.016, 920.353 1003.469, 918.202 " />
            <path fill="none" stroke-width="3.0" stroke-linecap="butt" stroke-opacity="1.0" stroke="rgb(0, 0, 0)" stroke-linejoin="round" d=" M 1097.891, 254.333 1100.409, 256.915 1102.796, 259.619 1105.045, 262.440 1107.150, 265.368 1109.107, 268.398 1110.911, 271.522 1112.556, 274.732 1114.040, 278.020 1115.358, 281.377 1116.506, 284.796 1117.483, 288.268 1118.286, 291.784 1118.912, 295.337 1119.361, 298.916 1119.630, 302.513 1119.720, 306.118 1119.630, 309.724 1119.361, 313.321 1118.912, 316.900 1118.286, 320.452 1117.483, 323.968 1116.506, 327.441 1115.358, 330.860 1114.040, 334.218 1112.556, 337.505 1110.911, 340.715 1109.107, 343.838 1107.150, 346.869 1105.045, 349.797 1102.796, 352.617 1100.409, 355.322 1097.891, 357.904 1095.247, 360.357 1092.484, 362.676 1089.608, 364.853 1086.628, 366.885 1083.551, 368.766 1080.383, 370.491 1077.133, 372.056 1073.809, 373.457 1070.420, 374.691 1066.973, 375.754 1063.478, 376.644 1059.943, 377.358 1056.376, 377.896 1052.787, 378.255 1049.184, 378.435 1045.577, 378.435 1041.975, 378.255 1038.386, 377.896 1034.819, 377.358 1031.284, 376.644 1027.788, 375.754 1024.342, 374.691 1020.952, 373.457 1017.629, 372.056 1014.379, 370.491 1011.211, 368.766 1008.134, 366.885 1005.153, 364.853 1002.278, 362.676 999.515, 360.357 996.871, 357.904 994.352, 355.322 991.966, 352.617 989.717, 349.797 987.612, 346.869 985.655, 343.838 983.851, 340.715 982.205, 337.505 980.722, 334.218 979.404, 330.860 978.256, 327.441 977.279, 323.968 976.476, 320.452 975.850, 316.900 975.401, 313.321 975.132, 309.724 975.042, 306.118 975.132, 302.513 975.401, 298.916 975.850, 295.337 976.476, 291.784 977.279, 288.268 978.256, 284.796 979.404, 281.377 980.722, 278.020 982.205, 274.732 983.851, 271.522 985.655, 268.398 987.612, 265.368 989.717, 262.440 991.966, 259.619 994.352, 256.915 996.871, 254.333 999.515, 251.880 1002.278, 249.561 1005.153, 247.384 1008.134, 245.352 1011.211, 243.471 1014.379, 241.746 1017.629, 240.181 1020.952, 238.780 1024.342, 237.546 1027.788, 236.483 1031.284, 235.593 1034.819, 234.878 1038.386, 234.341 1041.975, 233.981 1045.577, 233.802 1049.184, 233.802 1052.787, 233.981 1056.376, 234.341 1059.943, 234.878 1063.478, 235.593 1066.973, 236.483 1070.420, 237.546 1073.809, 238.780 1077.133, 240.181 1080.383, 241.746 1083.551, 243.471 1086.628, 245.352 1089.608, 247.384 1092.484, 249.561 1095.247, 251.880 1097.891, 254.333 " />
            <path fill="none" stroke-width="3.0" stroke-linecap="butt" stroke-opacity="1.0" stroke="rgb(0, 0, 0)" stroke-linejoin="round" d=" M 1082.548, 848.414 1084.490, 850.217 " />
            <path fill="none" stroke-width="3.0" stroke-linecap="butt" stroke-opacity="1.0" stroke="rgb(0, 0, 0)" stroke-linejoin="round" d=" M 1006.668, 854.101 1008.421, 852.113 1010.271, 850.217 1012.214, 848.414 1014.244, 846.711 1016.357, 845.111 1018.546, 843.618 1020.807, 842.236 1023.135, 840.969 1025.522, 839.819 1027.964, 838.790 1030.454, 837.883 1032.986, 837.102 1035.554, 836.448 1038.152, 835.923 1040.772, 835.528 1043.409, 835.264 1046.056, 835.133 1048.706, 835.133 1051.353, 835.264 1053.989, 835.528 1056.610, 835.923 1059.207, 836.448 1061.775, 837.102 1064.307, 837.883 1066.798, 838.790 1069.240, 839.819 1071.627, 840.969 1073.954, 842.236 1076.216, 843.618 1078.405, 845.111 1080.518, 846.711 1082.548, 848.414 " />
            <path fill="none" stroke-width="3.0" stroke-linecap="butt" stroke-opacity="1.0" stroke="rgb(0, 0, 0)" stroke-linejoin="round" d=" M 1005.016, 856.173 1006.668, 854.101 " />
            <path fill="none" stroke-width="3.0" stroke-linecap="butt" stroke-opacity="1.0" stroke="rgb(0, 0, 0)" stroke-linejoin="round" d=" M 1003.469, 858.324 1005.016, 856.173 " />
            <path fill="none" stroke-width="3.0" stroke-linecap="butt" stroke-opacity="1.0" stroke="rgb(0, 0, 0)" stroke-linejoin="round" d=" M 162.124, 930.790 165.224, 921.283 168.323, 911.775 171.423, 902.268 174.522, 892.760 177.622, 883.253 180.722, 873.745 183.821, 864.238 186.921, 854.730 190.021, 845.223 193.120, 835.715 196.220, 826.208 199.320, 816.700 202.419, 807.193 205.519, 797.685 208.619, 788.178 211.718, 778.670 214.818, 769.163 217.918, 759.655 221.017, 750.148 224.117, 740.641 227.217, 731.133 230.316, 721.626 233.416, 712.118 236.515, 702.611 239.615, 693.103 242.715, 683.596 245.814, 674.088 248.914, 664.581 252.014, 655.073 255.113, 645.566 258.213, 636.058 261.313, 626.551 264.412, 617.043 267.512, 607.536 270.612, 598.028 273.711, 588.521 276.811, 579.013 279.911, 569.506 283.010, 559.998 286.110, 550.491 289.210, 540.983 292.309, 531.476 295.409, 521.968 298.508, 512.461 301.608, 502.953 304.708, 493.446 307.807, 483.939 310.907, 474.431 314.007, 464.924 317.106, 455.416 320.206, 445.909 322.471, 438.960 325.571, 429.453 328.671, 419.945 331.770, 410.438 334.870, 400.930 337.970, 391.423 339.990, 385.225 343.090, 375.718 346.189, 366.211 349.289, 356.703 352.389, 347.196 355.488, 337.688 358.588, 328.181 361.688, 318.673 364.787, 309.166 366.421, 304.153 " />
            <path fill="none" stroke-width="3.0" stroke-linecap="butt" stroke-opacity="1.0" stroke="rgb(0, 0, 0)" stroke-linejoin="round" d=" M 339.990, 385.225 336.890, 394.733 333.791, 404.240 330.691, 413.748 327.591, 423.255 324.492, 432.763 321.392, 442.270 318.292, 451.778 315.193, 461.285 312.093, 470.793 308.993, 480.300 305.894, 489.808 302.794, 499.315 299.694, 508.823 296.595, 518.330 293.495, 527.838 290.396, 537.345 287.296, 546.853 284.196, 556.360 281.097, 565.868 277.997, 575.375 274.897, 584.883 271.798, 594.390 268.698, 603.898 265.598, 613.405 262.499, 622.913 259.399, 632.420 256.299, 641.927 253.200, 651.435 250.100, 660.942 247.000, 670.450 243.901, 679.957 240.801, 689.465 237.702, 698.972 234.602, 708.480 231.502, 717.987 228.403, 727.495 225.303, 737.002 222.203, 746.510 219.104, 756.017 216.004, 765.525 212.904, 775.032 209.805, 784.540 206.705, 794.047 203.605, 803.555 200.506, 813.062 197.406, 822.570 194.306, 832.077 191.207, 841.585 188.107, 851.092 185.008, 860.600 181.908, 870.107 178.808, 879.615 175.709, 889.122 172.609, 898.629 169.509, 908.137 166.410, 917.644 162.124, 930.790 " />
            <path fill="none" stroke-width="3.0" stroke-linecap="butt" stroke-opacity="1.0" stroke="rgb(0, 0, 0)" stroke-linejoin="round" d=" M 518.534, 438.960 528.534, 438.960 538.534, 438.960 548.534, 438.960 558.534, 438.960 568.534, 438.960 578.534, 438.960 588.534, 438.960 598.534, 438.960 608.534, 438.960 618.534, 438.960 628.534, 438.960 638.534, 438.960 648.534, 438.960 658.534, 438.960 668.534, 438.960 678.534, 438.960 688.534, 438.960 698.534, 438.960 708.534, 438.960 718.534, 438.960 728.534, 438.960 738.534, 438.960 748.534, 438.960 758.534, 438.960 768.534, 438.960 778.534, 438.960 788.534, 438.960 798.534, 438.960 808.534, 438.960 818.534, 438.960 828.534, 438.960 838.534, 438.960 848.534, 438.960 858.534, 438.960 868.534, 438.960 878.534, 438.960 888.534, 438.960 898.534, 438.960 908.534, 438.960 918.534, 438.960 928.534, 438.960 938.534, 438.960 948.534, 438.960 958.534, 438.960 968.534, 438.960 979.690, 438.960 979.394, 439.042 969.394, 439.040 959.394, 439.038 949.394, 439.037 939.394, 439.035 929.394, 439.033 919.394, 439.031 909.394, 439.030 899.394, 439.028 889.394, 439.026 879.394, 439.024 869.394, 439.022 859.394, 439.021 849.394, 439.019 839.394, 439.017 829.394, 439.015 819.394, 439.014 809.394, 439.012 799.394, 439.010 789.394, 439.008 779.394, 439.006 769.394, 439.005 759.394, 439.003 749.394, 439.001 739.394, 438.999 729.394, 438.998 719.394, 438.996 709.394, 438.994 699.394, 438.992 689.394, 438.990 679.394, 438.989 669.394, 438.987 659.394, 438.985 649.394, 438.983 639.394, 438.982 629.394, 438.980 619.394, 438.978 609.394, 438.976 599.394, 438.974 589.394, 438.973 579.394, 438.971 569.394, 438.969 559.394, 438.967 549.394, 438.966 539.394, 438.964 529.394, 438.962 518.534, 438.960 " />
            <path fill="none" stroke-width="3.0" stroke-linecap="butt" stroke-opacity="1.0" stroke="rgb(0, 0, 0)" stroke-linejoin="round" d=" M 1060.644, 438.961 1050.644, 438.960 1050.144, 438.960 1060.144, 439.018 1070.144, 439.076 1070.562, 439.078 " />
            <path fill="none" stroke-width="3.0" stroke-linecap="butt" stroke-opacity="1.0" stroke="rgb(0, 0, 0)" stroke-linejoin="round" d=" M 162.124, 930.790 165.224, 921.283 168.323, 911.775 171.423, 902.268 174.522, 892.760 177.622, 883.253 180.722, 873.745 183.821, 864.238 186.921, 854.730 190.021, 845.223 193.120, 835.715 196.220, 826.208 199.320, 816.700 202.419, 807.193 205.519, 797.685 208.619, 788.178 211.718, 778.670 214.818, 769.163 217.918, 759.655 221.017, 750.148 224.117, 740.641 227.216, 731.133 230.316, 721.626 233.416, 712.118 236.515, 702.611 239.615, 693.103 242.715, 683.596 245.814, 674.088 248.914, 664.581 252.014, 655.073 255.113, 645.566 258.213, 636.058 261.313, 626.551 264.412, 617.043 267.512, 607.536 270.612, 598.028 273.711, 588.521 276.811, 579.013 279.911, 569.506 283.010, 559.998 286.110, 550.491 289.209, 540.983 292.309, 531.476 295.409, 521.968 298.508, 512.461 301.608, 502.953 304.708, 493.446 307.807, 483.939 310.907, 474.431 314.007, 464.924 317.106, 455.416 320.206, 445.909 323.306, 436.401 326.405, 426.894 329.505, 417.386 332.605, 407.879 335.704, 398.371 338.804, 388.864 341.904, 379.356 345.003, 369.849 348.103, 360.341 351.202, 350.834 354.302, 341.326 357.402, 331.819 360.501, 322.311 363.601, 312.804 366.421, 304.153 " />
            <path fill="none" stroke-width="3.0" stroke-linecap="butt" stroke-opacity="1.0" stroke="rgb(0, 0, 0)" stroke-linejoin="round" d=" M 472.110, 111.973 467.291, 120.735 462.472, 129.498 457.653, 138.260 452.834, 147.023 448.016, 155.785 443.197, 164.547 438.378, 173.310 433.559, 182.072 428.740, 190.834 423.922, 199.597 419.103, 208.359 414.284, 217.122 409.465, 225.884 404.646, 234.646 399.828, 243.409 395.009, 252.171 390.190, 260.933 385.371, 269.696 380.552, 278.458 375.733, 287.220 370.915, 295.983 366.421, 304.153 " />
            <path fill="none" stroke-width="3.0" stroke-linecap="butt" stroke-opacity="1.0" stroke="rgb(0, 0, 0)" stroke-linejoin="round" d=" M 994.498, 893.555 994.300, 890.912 " />
            <path fill="none" stroke-width="3.0" stroke-linecap="butt" stroke-opacity="1.0" stroke="rgb(0, 0, 0)" stroke-linejoin="round" d=" M 994.827, 896.184 994.498, 893.555 " />
            <path fill="none" stroke-width="3.0" stroke-linecap="butt" stroke-opacity="1.0" stroke="rgb(0, 0, 0)" stroke-linejoin="round" d=" M 995.287, 898.794 994.827, 896.184 " />
            <path fill="none" stroke-width="3.0" stroke-linecap="butt" stroke-opacity="1.0" stroke="rgb(0, 0, 0)" stroke-linejoin="round" d=" M 995.877, 901.378 995.287, 898.794 " />
            <path fill="none" stroke-width="3.0" stroke-linecap="butt" stroke-opacity="1.0" stroke="rgb(0, 0, 0)" stroke-linejoin="round" d=" M 1003.469, 918.202 1002.031, 915.976 " />
            <path fill="none" stroke-width="3.0" stroke-linecap="butt" stroke-opacity="1.0" stroke="rgb(0, 0, 0)" stroke-linejoin="round" d=" M 1038.152, 940.603 1035.554, 940.078 " />
            <path fill="none" stroke-width="3.0" stroke-linecap="butt" stroke-opacity="1.0" stroke="rgb(0, 0, 0)" stroke-linejoin="round" d=" M 1059.207, 940.078 1056.610, 940.603 " />
            <path fill="none" stroke-width="3.0" stroke-linecap="butt" stroke-opacity="1.0" stroke="rgb(0, 0, 0)" stroke-linejoin="round" d=" M 1526.720, 137.442 1530.366, 146.753 1534.012, 156.065 1537.658, 165.376 1541.304, 174.688 1544.950, 184.000 1548.596, 193.311 1552.242, 202.623 1555.888, 211.935 1559.534, 221.246 1563.180, 230.558 1566.826, 239.869 1570.472, 249.181 1574.118, 258.493 1577.764, 267.804 1581.410, 277.116 1585.056, 286.428 1588.703, 295.739 1592.349, 305.051 1595.995, 314.362 1599.641, 323.674 1603.287, 332.986 1606.933, 342.297 1610.579, 351.609 1614.225, 360.921 1617.871, 370.232 1621.517, 379.544 1625.163, 388.855 1626.817, 393.079 " />
            <path fill="none" stroke-width="3.0" stroke-linecap="butt" stroke-opacity="1.0" stroke="rgb(0, 0, 0)" stroke-linejoin="round" d=" M 1906.223, 1200.384 1903.440, 1190.779 1900.656, 1181.175 1897.872, 1171.570 1895.088, 1161.965 1892.304, 1152.360 1889.521, 1142.756 1886.737, 1133.151 1883.953, 1123.546 1881.169, 1113.942 1878.386, 1104.337 1875.602, 1094.732 1872.818, 1085.127 1870.034, 1075.523 1867.251, 1065.918 1864.467, 1056.313 1861.683, 1046.708 1858.899, 1037.104 1856.116, 1027.499 1853.332, 1017.894 1850.548, 1008.290 1847.764, 998.685 1844.981, 989.080 1842.197, 979.475 1839.413, 969.871 1836.629, 960.266 1833.845, 950.661 1831.062, 941.057 1828.278, 931.452 1825.494, 921.847 1822.710, 912.242 1819.927, 902.638 1817.143, 893.033 1814.359, 883.428 1811.575, 873.823 1808.792, 864.219 1806.008, 854.614 1803.224, 845.009 1800.440, 835.405 1797.657, 825.800 1794.873, 816.195 1792.089, 806.590 1789.305, 796.986 1786.521, 787.381 1783.738, 777.776 1780.954, 768.172 1778.170, 758.567 1775.386, 748.962 1772.603, 739.357 1769.819, 729.753 1767.035, 720.148 1764.251, 710.543 1761.468, 700.938 1758.684, 691.334 1755.900, 681.729 1753.116, 672.124 1750.333, 662.520 1747.549, 652.915 1744.765, 643.310 1741.981, 633.705 1739.198, 624.101 1736.414, 614.496 1733.630, 604.891 1730.846, 595.287 1728.062, 585.682 1725.279, 576.077 1722.495, 566.472 1718.368, 552.234 " />
        </g>
    </g>
<g id="slice-labels"><text x="494.4035" y="612.005" text-anchor="middle" dominant-baseline="middle" font-family="Arial, sans-serif" font-size="59.05238230553689" font-weight="bold" fill="black" stroke="none" stroke-width="7.086285876664425" paint-order="stroke fill">Slice52 (Back)</text><text x="1435.6165" y="612.005" text-anchor="middle" dominant-baseline="middle" font-family="Arial, sans-serif" font-size="59.05238230553689" font-weight="bold" fill="black" stroke="none" stroke-width="7.086285876664425" paint-order="stroke fill">Slice52 (Back)</text></g></svg>