<?xml version='1.0' encoding='utf-8'?>
<svg xmlns="http://www.w3.org/2000/svg" xmlns:inkscape="http://www.inkscape.org/namespaces/inkscape" version="1.1" width="756.8719902038574mm" height="136.5271725654602mm" viewBox="-1.5209943462806415 0.005004229693039264 8942.061988692561 1612.9999915406138" preserveAspectRatio="none">
    <g id="ViewLayer_LineSet" inkscape:groupmode="lineset" inkscape:label="ViewLayer_LineSet">
        <g inkscape:groupmode="layer" id="strokes" inkscape:label="strokes">
            <path fill="none" stroke-width="3.0" stroke-linecap="butt" stroke-opacity="1.0" stroke="rgb(0, 0, 0)" stroke-linejoin="round" d=" M 8238.736, 697.984 8236.217, 700.567 8233.571, 703.021 8230.808, 705.340 8227.932, 707.519 8224.950, 709.552 8221.871, 711.433 8218.702, 713.158 8215.452, 714.724 8212.127, 716.126 8208.736, 717.360 8205.288, 718.424 8201.792, 719.313 8198.255, 720.029 8194.688, 720.567 8191.097, 720.926 8187.494, 721.105 8183.885, 721.105 8180.282, 720.926 8176.691, 720.567 8173.124, 720.029 8169.587, 719.313 8166.090, 718.424 8162.643, 717.360 8159.252, 716.126 8155.927, 714.724 8152.676, 713.158 8149.507, 711.433 8146.429, 709.552 8143.448, 707.519 8140.572, 705.340 8137.808, 703.021 8135.163, 700.567 8132.643, 697.984 8130.255, 695.279 8128.006, 692.457 8125.899, 689.528 8123.942, 686.497 8122.138, 683.372 8120.492, 680.162 8119.008, 676.873 8117.690, 673.514 8116.541, 670.094 8115.563, 666.620 8114.761, 663.103 8114.134, 659.549 8113.685, 655.969 8113.416, 652.371 8113.326, 648.764 8113.416, 645.157 8113.685, 641.559 8114.134, 637.979 8114.761, 634.425 8115.563, 630.908 8116.541, 627.434 8117.690, 624.014 8119.008, 620.656 8120.492, 617.366 8122.138, 614.156 8123.942, 611.031 8125.899, 608.000 8128.006, 605.071 8130.255, 602.249 8132.643, 599.544 8135.163, 596.961 8137.808, 594.507 8140.572, 592.188 8143.448, 590.010 8146.429, 587.976 8149.507, 586.095 8152.676, 584.370 8155.927, 582.804 8159.252, 581.402 8162.643, 580.168 8166.090, 579.105 8169.587, 578.215 8173.124, 577.499 8176.691, 576.961 8180.282, 576.602 8183.885, 576.423 8187.494, 576.423 8191.097, 576.602 8194.688, 576.961 8198.255, 577.499 8201.792, 578.215 8205.288, 579.105 8208.736, 580.168 8212.127, 581.402 8215.452, 582.804 8218.702, 584.370 8221.871, 586.095 8224.950, 587.976 8227.932, 590.010 8230.808, 592.188 8233.571, 594.507 8236.217, 596.961 8238.736, 599.544 8241.123, 602.249 8243.373, 605.071 8245.479, 608.000 8247.437, 611.031 8249.241, 614.156 8250.887, 617.366 8252.371, 620.656 8253.689, 624.014 8254.839, 627.434 8255.815, 630.908 8256.619, 634.425 8257.245, 637.979 8257.693, 641.559 8257.963, 645.157 8258.054, 648.764 8257.963, 652.371 8257.693, 655.969 8257.245, 659.549 8256.619, 663.103 8255.815, 666.620 8254.839, 670.094 8253.689, 673.514 8252.371, 676.873 8250.887, 680.162 8249.241, 683.372 8247.437, 686.497 8245.479, 689.528 8243.373, 692.457 8241.123, 695.279 8238.736, 697.984 " />
            <path fill="none" stroke-width="3.0" stroke-linecap="butt" stroke-opacity="1.0" stroke="rgb(0, 0, 0)" stroke-linejoin="round" d=" M 8527.681, 1343.902 8531.932, 1334.850 8536.182, 1325.798 8540.433, 1316.747 8544.683, 1307.695 8548.934, 1298.643 8553.184, 1289.592 8557.435, 1280.540 8561.686, 1271.488 8565.936, 1262.437 8570.187, 1253.385 8574.437, 1244.333 8578.688, 1235.282 8582.938, 1226.230 8587.188, 1217.178 8591.439, 1208.127 8595.689, 1199.075 8599.940, 1190.023 8604.190, 1180.972 8608.441, 1171.920 8612.692, 1162.868 8614.616, 1158.770 8616.851, 1149.023 8619.085, 1139.275 8621.319, 1129.528 8623.553, 1119.781 8625.787, 1110.034 8628.021, 1100.286 8630.256, 1090.539 8632.489, 1080.792 8634.724, 1071.045 8636.958, 1061.298 8638.732, 1053.556 8642.314, 1044.220 8645.896, 1034.883 8649.479, 1025.547 8653.061, 1016.211 8656.643, 1006.874 8660.225, 997.538 8663.807, 988.201 8667.389, 978.865 8670.971, 969.528 8674.553, 960.192 8678.135, 950.856 8681.717, 941.519 8685.299, 932.183 8688.881, 922.846 8692.463, 913.510 8696.045, 904.173 8699.627, 894.837 8703.209, 885.501 8706.791, 876.164 8710.373, 866.828 8713.956, 857.491 8717.538, 848.155 8721.120, 838.819 8724.702, 829.482 8728.284, 820.146 8731.866, 810.809 8735.448, 801.473 8739.030, 792.136 8742.612, 782.800 8746.194, 773.464 8749.776, 764.127 8753.358, 754.791 8756.940, 745.454 8760.522, 736.118 8764.104, 726.781 8767.687, 717.445 8771.269, 708.109 8774.851, 698.772 8778.433, 689.436 8782.015, 680.099 8785.597, 670.763 8789.179, 661.427 8792.761, 652.090 8796.343, 642.754 8799.925, 633.417 8803.507, 624.081 8807.089, 614.744 8810.672, 605.408 8814.254, 596.072 8817.836, 586.735 8823.014, 573.240 " />
            <path fill="none" stroke-width="3.0" stroke-linecap="butt" stroke-opacity="1.0" stroke="rgb(0, 0, 0)" stroke-linejoin="round" d=" M 7299.854, 1589.376 7309.854, 1589.376 7319.854, 1589.376 7329.854, 1589.376 7339.854, 1589.376 7349.854, 1589.376 7359.854, 1589.376 7369.854, 1589.376 7379.854, 1589.376 7389.854, 1589.376 7399.854, 1589.376 7409.854, 1589.376 7419.854, 1589.376 7429.854, 1589.376 7439.854, 1589.376 7449.854, 1589.376 7459.854, 1589.376 7469.854, 1589.376 7479.854, 1589.376 7489.854, 1589.376 7499.854, 1589.376 7509.854, 1589.376 7519.854, 1589.376 7529.854, 1589.376 7539.854, 1589.376 7549.854, 1589.376 7559.854, 1589.376 7569.854, 1589.376 7579.854, 1589.376 7589.854, 1589.376 7599.854, 1589.376 7609.854, 1589.376 7619.854, 1589.376 7629.854, 1589.376 7639.854, 1589.376 7649.854, 1589.376 7659.854, 1589.376 7669.854, 1589.376 7679.854, 1589.376 7689.854, 1589.376 7699.854, 1589.376 7709.854, 1589.376 7719.854, 1589.376 7729.854, 1589.376 7739.854, 1589.376 7749.854, 1589.376 7764.358, 1589.376 7774.358, 1589.376 7784.358, 1589.376 7794.358, 1589.376 7804.358, 1589.376 7814.358, 1589.376 7824.358, 1589.376 7834.358, 1589.376 7844.358, 1589.376 7854.358, 1589.376 7864.358, 1589.376 7874.358, 1589.376 7884.358, 1589.376 7887.543, 1589.376 7890.086, 1589.376 7892.646, 1589.376 7894.182, 1589.376 7895.214, 1589.376 7897.782, 1589.376 7900.342, 1589.376 7902.886, 1589.376 7905.406, 1589.376 7907.896, 1589.376 7910.348, 1589.376 7912.757, 1589.376 7915.115, 1589.376 7925.115, 1589.376 7935.115, 1589.376 7945.115, 1589.376 7955.115, 1589.376 7965.115, 1589.376 7975.115, 1589.376 7985.115, 1589.376 7995.115, 1589.376 8005.115, 1589.376 8015.115, 1589.376 8025.115, 1589.376 8035.115, 1589.376 8045.115, 1589.376 8055.115, 1589.376 8065.115, 1589.376 8075.115, 1589.376 8085.115, 1589.376 8095.115, 1589.376 8105.115, 1589.376 8115.115, 1589.376 8125.115, 1589.376 8135.115, 1589.376 8145.115, 1589.376 8155.115, 1589.376 8165.115, 1589.376 8175.115, 1589.376 8185.115, 1589.376 8191.400, 1589.376 8191.768, 1589.376 8192.156, 1589.376 8192.564, 1589.376 8192.991, 1589.376 8193.436, 1589.376 8193.896, 1589.376 8194.371, 1589.376 8194.859, 1589.376 8195.360, 1589.376 8205.360, 1589.376 8215.360, 1589.376 8225.360, 1589.376 8235.360, 1589.376 8245.360, 1589.376 8255.360, 1589.376 8265.360, 1589.376 8275.360, 1589.376 8285.360, 1589.376 8295.360, 1589.376 8305.360, 1589.376 8315.360, 1589.376 8325.360, 1589.376 8326.898, 1589.376 8333.229, 1581.636 8339.561, 1573.895 8345.893, 1566.155 8352.224, 1558.414 8358.555, 1550.674 8364.886, 1542.933 8371.217, 1535.193 8377.548, 1527.452 8383.880, 1519.712 8390.211, 1511.971 8396.542, 1504.231 8402.873, 1496.490 8409.204, 1488.750 8415.536, 1481.009 8421.867, 1473.269 8428.198, 1465.528 8434.529, 1457.788 8440.860, 1450.047 8447.191, 1442.307 8453.523, 1434.566 8459.854, 1426.826 8466.186, 1419.085 8472.517, 1411.345 8478.848, 1403.604 8485.180, 1395.864 8491.511, 1388.123 8497.842, 1380.383 8504.173, 1372.642 8510.504, 1364.902 8516.835, 1357.161 8523.167, 1349.421 8527.681, 1343.902 " />
            <path fill="none" stroke-width="3.0" stroke-linecap="butt" stroke-opacity="1.0" stroke="rgb(0, 0, 0)" stroke-linejoin="round" d=" M 8823.014, 573.240 8825.923, 563.672 8828.833, 554.105 8831.743, 544.538 8834.653, 534.971 8837.563, 525.404 8840.474, 515.836 8843.383, 506.269 8846.293, 496.702 8849.203, 487.135 8852.113, 477.567 8855.023, 468.000 8857.933, 458.433 8860.843, 448.866 8863.753, 439.298 8866.663, 429.731 8869.573, 420.164 8872.483, 410.597 8875.393, 401.029 8878.303, 391.462 8881.213, 381.895 8884.123, 372.328 8887.033, 362.760 8889.943, 353.193 8892.853, 343.626 8895.403, 335.240 " />
            <path fill="none" stroke-width="3.0" stroke-linecap="butt" stroke-opacity="1.0" stroke="rgb(0, 0, 0)" stroke-linejoin="round" d=" M 8685.734, 23.721 8684.570, 23.721 8683.490, 23.721 8682.468, 23.674 8672.468, 23.674 8662.468, 23.674 8652.468, 23.673 8642.468, 23.673 8632.468, 23.672 8622.468, 23.672 8612.468, 23.672 8602.468, 23.671 8592.468, 23.671 8582.468, 23.670 8572.468, 23.670 8562.468, 23.670 8552.468, 23.669 8542.468, 23.669 8532.468, 23.668 8522.468, 23.668 8512.468, 23.668 8502.468, 23.667 8492.468, 23.667 8482.468, 23.667 8472.468, 23.666 8462.468, 23.666 8452.468, 23.665 8442.468, 23.665 8432.468, 23.665 8422.468, 23.664 8412.468, 23.664 8402.468, 23.663 8392.468, 23.663 8382.468, 23.663 8372.468, 23.662 8362.468, 23.662 8352.468, 23.661 8342.468, 23.661 8332.468, 23.661 8322.468, 23.660 8312.468, 23.660 8302.468, 23.659 8292.468, 23.659 8282.468, 23.659 8272.468, 23.658 8262.468, 23.658 8252.468, 23.657 8242.468, 23.657 8232.468, 23.657 8222.468, 23.656 8212.468, 23.656 8202.468, 23.656 8192.468, 23.655 8182.468, 23.655 8172.468, 23.654 8162.468, 23.654 8152.468, 23.654 8142.468, 23.653 8132.468, 23.653 8122.468, 23.652 8112.468, 23.652 8102.468, 23.652 8092.468, 23.651 8082.468, 23.651 8072.468, 23.650 8062.468, 23.650 8052.468, 23.650 8042.468, 23.649 8032.468, 23.649 8022.468, 23.648 8012.468, 23.648 8002.468, 23.648 7992.468, 23.647 7982.468, 23.647 7972.468, 23.646 7962.468, 23.646 7952.468, 23.646 7942.468, 23.645 7932.468, 23.645 7922.468, 23.645 7912.468, 23.644 7902.468, 23.644 7892.468, 23.643 7882.468, 23.643 7872.468, 23.643 7862.468, 23.642 7852.468, 23.642 7842.468, 23.641 7832.468, 23.641 7822.468, 23.641 7812.468, 23.640 7802.468, 23.640 7792.468, 23.639 7782.468, 23.639 7772.468, 23.639 7762.468, 23.638 7752.468, 23.638 7742.468, 23.637 7732.468, 23.637 7722.468, 23.637 7712.468, 23.636 7702.468, 23.636 7692.468, 23.635 7682.468, 23.635 7672.468, 23.635 7659.964, 23.634 7649.964, 23.634 7639.964, 23.634 7629.964, 23.634 7619.964, 23.634 7609.964, 23.634 7599.964, 23.634 7589.964, 23.634 7579.964, 23.634 7569.964, 23.634 7559.964, 23.634 7549.964, 23.634 7539.964, 23.634 7529.964, 23.634 7519.964, 23.634 7509.964, 23.634 7499.964, 23.634 7489.964, 23.634 7479.964, 23.634 7469.964, 23.634 7459.964, 23.634 7449.964, 23.634 7439.964, 23.634 7429.964, 23.634 7419.964, 23.634 7409.964, 23.634 7399.964, 23.634 7389.964, 23.634 7379.964, 23.634 7369.964, 23.634 7359.964, 23.634 7349.964, 23.634 7339.964, 23.634 7329.964, 23.634 7319.964, 23.634 7309.964, 23.634 7299.964, 23.634 7289.964, 23.634 7277.371, 23.634 7274.817, 23.634 7272.174, 23.634 7269.450, 23.634 7266.654, 23.634 7263.794, 23.634 7260.878, 23.634 7257.917, 23.634 7254.917, 23.634 7251.889, 23.634 7248.840, 23.634 7245.781, 23.634 7242.718, 23.634 7239.662, 23.634 7229.662, 23.634 7219.662, 23.634 7209.662, 23.634 7199.662, 23.634 7189.662, 23.634 7179.662, 23.634 7169.662, 23.634 7159.662, 23.634 7149.662, 23.634 7139.662, 23.634 7129.662, 23.634 7119.662, 23.634 7109.662, 23.634 7099.662, 23.634 7089.662, 23.634 7079.662, 23.634 7069.662, 23.634 7059.662, 23.634 7049.662, 23.634 7039.662, 23.634 7029.662, 23.634 7019.662, 23.634 7009.662, 23.634 6999.662, 23.634 6989.662, 23.634 6979.662, 23.634 6969.662, 23.634 6959.662, 23.634 6949.662, 23.634 6939.662, 23.634 6929.662, 23.634 6919.662, 23.634 6909.662, 23.634 6899.662, 23.634 6889.662, 23.634 6879.662, 23.634 6869.662, 23.634 6859.662, 23.634 6849.662, 23.634 6839.662, 23.634 6829.662, 23.634 6819.662, 23.634 6809.662, 23.634 6799.662, 23.634 6789.662, 23.634 6779.662, 23.634 6769.662, 23.634 6759.662, 23.634 6749.662, 23.634 6739.662, 23.634 6729.662, 23.634 6719.662, 23.634 6709.662, 23.634 6699.662, 23.634 6689.662, 23.634 6679.662, 23.634 6669.662, 23.634 6659.662, 23.634 6649.662, 23.634 6639.662, 23.634 6629.662, 23.634 6619.662, 23.634 6609.662, 23.634 6599.662, 23.634 6587.495, 23.634 6586.034, 23.634 6584.498, 23.634 6582.890, 23.634 6581.215, 23.634 6571.215, 23.634 6561.215, 23.634 6551.215, 23.634 6541.215, 23.634 6531.215, 23.634 6521.215, 23.634 6511.215, 23.634 6501.215, 23.634 6491.215, 23.634 6481.215, 23.634 6471.215, 23.634 6461.215, 23.634 6451.215, 23.634 6441.215, 23.634 6431.215, 23.634 6421.215, 23.634 6411.215, 23.634 6401.215, 23.634 6391.215, 23.634 6381.215, 23.634 6371.215, 23.634 6361.215, 23.634 6351.215, 23.634 6341.215, 23.634 6331.215, 23.634 6321.215, 23.634 6311.215, 23.634 6301.215, 23.634 6291.215, 23.634 6280.421, 23.634 6280.177, 23.634 6279.917, 23.634 6279.644, 23.634 6269.644, 23.634 6259.644, 23.634 6249.644, 23.634 6241.707, 23.634 6240.490, 33.560 6239.273, 43.486 6238.056, 53.411 6236.839, 63.337 6235.622, 73.263 6234.405, 83.188 6233.188, 93.114 6231.971, 103.040 6230.754, 112.965 6229.537, 122.891 6228.320, 132.817 6227.103, 142.742 6225.886, 152.668 6224.669, 162.594 6223.452, 172.519 6222.235, 182.445 6221.018, 192.371 6219.801, 202.296 6218.584, 212.222 6217.367, 222.148 6216.150, 232.073 6214.933, 241.999 6213.716, 251.925 6212.500, 261.850 6211.282, 271.776 6210.750, 276.121 " />
            <path fill="none" stroke-width="3.0" stroke-linecap="butt" stroke-opacity="1.0" stroke="rgb(0, 0, 0)" stroke-linejoin="round" d=" M 8916.912, 23.634 8906.912, 23.634 8896.912, 23.634 8886.912, 23.634 8876.912, 23.634 8866.912, 23.634 8856.912, 23.634 8846.912, 23.634 8836.912, 23.634 8826.912, 23.634 8816.912, 23.634 8806.912, 23.634 8796.912, 23.634 8786.912, 23.634 8776.912, 23.634 8766.912, 23.634 8756.912, 23.634 8746.912, 23.634 8736.912, 23.634 8726.912, 23.634 8716.912, 23.634 8706.912, 23.634 8696.912, 23.634 8687.058, 23.634 8685.734, 23.721 " />
            <path fill="none" stroke-width="3.0" stroke-linecap="butt" stroke-opacity="1.0" stroke="rgb(0, 0, 0)" stroke-linejoin="round" d=" M 8895.403, 335.240 8894.971, 325.250 8894.539, 315.259 8894.106, 305.268 8893.674, 295.278 8893.241, 285.287 8892.810, 275.296 8892.377, 265.306 8891.944, 255.315 8891.513, 245.324 8891.080, 235.334 8890.647, 225.343 8890.215, 215.352 8889.783, 205.362 8889.351, 195.371 8888.918, 185.380 8888.485, 175.390 8888.054, 165.399 8887.621, 155.408 8887.188, 145.418 8886.756, 135.427 8886.324, 125.437 8886.174, 121.974 8889.157, 112.429 8892.141, 102.884 8895.124, 93.340 8898.107, 83.795 8901.091, 74.251 8904.074, 64.706 8907.058, 55.161 8910.041, 45.617 8913.024, 36.072 8916.008, 26.528 8916.912, 23.634 " />
            <path fill="none" stroke-width="3.0" stroke-linecap="butt" stroke-opacity="1.0" stroke="rgb(0, 0, 0)" stroke-linejoin="round" d=" M 5850.349, 1589.317 5851.500, 1589.346 5851.541, 1589.347 5861.541, 1589.347 5871.541, 1589.347 5881.541, 1589.348 5891.541, 1589.348 5901.541, 1589.348 5911.541, 1589.348 5921.541, 1589.349 5931.541, 1589.349 5941.541, 1589.349 5951.541, 1589.349 5961.541, 1589.350 5971.541, 1589.350 5981.541, 1589.350 5991.541, 1589.350 6001.541, 1589.351 6011.541, 1589.351 6021.541, 1589.351 6031.541, 1589.351 6041.541, 1589.352 6051.541, 1589.352 6061.541, 1589.352 6071.541, 1589.352 6081.541, 1589.353 6091.541, 1589.353 6101.541, 1589.353 6111.541, 1589.353 6121.541, 1589.354 6131.541, 1589.354 6141.541, 1589.354 6151.541, 1589.354 6161.541, 1589.355 6171.541, 1589.355 6181.541, 1589.355 6191.541, 1589.355 6201.541, 1589.356 6211.541, 1589.356 6221.541, 1589.356 6231.541, 1589.356 6241.541, 1589.357 6251.541, 1589.357 6261.541, 1589.357 6271.541, 1589.358 6281.541, 1589.358 6291.541, 1589.358 6301.541, 1589.358 6311.541, 1589.359 6321.541, 1589.359 6331.541, 1589.359 6341.541, 1589.359 6351.541, 1589.360 6361.541, 1589.360 6371.541, 1589.360 6381.541, 1589.360 6391.541, 1589.361 6401.541, 1589.361 6411.541, 1589.361 6421.541, 1589.361 6431.541, 1589.362 6441.541, 1589.362 6451.541, 1589.362 6461.541, 1589.362 6471.541, 1589.363 6481.541, 1589.363 6491.541, 1589.363 6501.541, 1589.363 6511.541, 1589.364 6521.541, 1589.364 6531.541, 1589.364 6541.541, 1589.364 6551.541, 1589.365 6561.541, 1589.365 6571.541, 1589.365 6581.541, 1589.365 6591.541, 1589.366 6601.541, 1589.366 6611.541, 1589.366 6621.541, 1589.366 6631.541, 1589.367 6641.541, 1589.367 6651.541, 1589.367 6661.541, 1589.367 6671.541, 1589.368 6681.541, 1589.368 6691.541, 1589.368 6701.541, 1589.368 6711.541, 1589.369 6721.541, 1589.369 6731.541, 1589.369 6741.541, 1589.369 6751.541, 1589.370 6761.541, 1589.370 6771.541, 1589.370 6781.541, 1589.370 6791.541, 1589.371 6801.541, 1589.371 6811.541, 1589.371 6821.541, 1589.371 6831.541, 1589.372 6841.541, 1589.372 6851.541, 1589.372 6861.541, 1589.373 6871.541, 1589.373 6881.541, 1589.373 6891.541, 1589.373 6901.541, 1589.374 6911.541, 1589.374 6921.541, 1589.374 6931.541, 1589.374 6941.541, 1589.375 6951.541, 1589.375 6961.541, 1589.375 6971.541, 1589.375 6984.165, 1589.376 6988.045, 1589.376 6992.017, 1589.376 6996.070, 1589.376 7006.070, 1589.376 7016.070, 1589.376 7026.070, 1589.376 7036.070, 1589.376 7046.070, 1589.376 7056.070, 1589.376 7066.070, 1589.376 7076.070, 1589.376 7086.070, 1589.376 7096.070, 1589.376 7106.070, 1589.376 7116.070, 1589.376 7126.070, 1589.376 7136.070, 1589.376 7146.070, 1589.376 7156.070, 1589.376 7166.070, 1589.376 7176.070, 1589.376 7186.070, 1589.376 7196.070, 1589.376 7206.070, 1589.376 7216.070, 1589.376 7226.070, 1589.376 7236.070, 1589.376 7246.070, 1589.376 7252.121, 1589.376 7255.666, 1589.376 7259.330, 1589.376 7263.102, 1589.376 7266.970, 1589.376 7270.922, 1589.376 7274.946, 1589.376 7279.026, 1589.376 7283.153, 1589.376 7287.312, 1589.376 7291.490, 1589.376 7295.675, 1589.376 7299.854, 1589.376 " />
            <path fill="none" stroke-width="3.0" stroke-linecap="butt" stroke-opacity="1.0" stroke="rgb(0, 0, 0)" stroke-linejoin="round" d=" M 6210.750, 276.121 6205.580, 284.680 6200.410, 293.240 6195.239, 301.800 6190.069, 310.360 6184.899, 318.919 6179.729, 327.479 6174.559, 336.039 6169.389, 344.599 6164.218, 353.158 6159.048, 361.718 6153.878, 370.278 6148.708, 378.838 6143.538, 387.397 6138.368, 395.957 6133.198, 404.517 6128.027, 413.077 6122.857, 421.637 6117.687, 430.196 6112.517, 438.756 6107.347, 447.316 6102.177, 455.876 6097.006, 464.435 6091.836, 472.995 6086.666, 481.555 6081.496, 490.115 6076.326, 498.674 6071.156, 507.234 6065.986, 515.794 6060.815, 524.354 6055.646, 532.914 6050.475, 541.473 6045.305, 550.033 6040.135, 558.593 6034.965, 567.153 6029.794, 575.712 6024.625, 584.272 6019.454, 592.832 6014.284, 601.392 6009.114, 609.951 6003.944, 618.511 5998.774, 627.071 5993.604, 635.631 5988.434, 644.190 5983.263, 652.750 5978.093, 661.310 5972.923, 669.870 5967.753, 678.430 5960.353, 690.682 5956.521, 699.918 5952.688, 709.155 5948.856, 718.392 5945.024, 727.629 5941.193, 736.865 5937.361, 746.102 5933.529, 755.339 5929.697, 764.575 5925.865, 773.812 5922.033, 783.049 5918.201, 792.285 5914.369, 801.522 5910.537, 810.759 5906.705, 819.995 5902.874, 829.232 5899.042, 838.469 5895.209, 847.705 5891.377, 856.942 5887.545, 866.179 5883.714, 875.415 5879.882, 884.652 5876.050, 893.889 5872.218, 903.125 5868.386, 912.362 5864.554, 921.599 5860.722, 930.835 5856.890, 940.072 5853.058, 949.309 5849.226, 958.545 5845.394, 967.782 5841.562, 977.019 5837.730, 986.256 5833.898, 995.492 5830.066, 1004.729 5826.234, 1013.966 5822.403, 1023.202 5818.571, 1032.439 5814.739, 1041.676 5810.907, 1050.912 5807.075, 1060.149 5803.243, 1069.386 5799.411, 1078.622 5795.579, 1087.859 5791.747, 1097.096 5787.915, 1106.332 5784.083, 1115.569 5780.251, 1124.806 5776.419, 1134.042 5772.587, 1143.279 5768.755, 1152.516 5764.923, 1161.752 5761.092, 1170.989 5757.260, 1180.226 5753.428, 1189.462 5749.596, 1198.699 5745.764, 1207.936 5741.932, 1217.173 5738.100, 1226.409 5734.268, 1235.646 5730.436, 1244.883 5726.604, 1254.119 5722.772, 1263.356 5718.940, 1272.593 5715.108, 1281.829 5711.276, 1291.066 5707.444, 1300.303 5703.613, 1309.539 5699.781, 1318.776 5695.949, 1328.013 5692.117, 1337.249 5688.285, 1346.486 5684.453, 1355.723 5679.895, 1366.709 5677.911, 1376.510 5675.926, 1386.312 5673.942, 1396.113 5671.958, 1405.914 5669.973, 1415.715 5667.989, 1425.516 5666.004, 1435.317 5664.020, 1445.118 5662.036, 1454.920 5660.052, 1464.721 5658.067, 1474.522 5656.083, 1484.323 5654.099, 1494.124 5653.291, 1498.114 5652.186, 1508.052 5651.081, 1517.991 5649.976, 1527.930 5648.871, 1537.869 5647.765, 1547.807 5646.660, 1557.746 5645.555, 1567.685 5644.450, 1577.624 5643.345, 1587.562 5643.143, 1589.376 5653.143, 1589.376 5663.143, 1589.376 5673.143, 1589.376 5683.143, 1589.376 5693.143, 1589.376 5703.143, 1589.376 5713.143, 1589.376 5723.143, 1589.376 5733.143, 1589.376 5743.143, 1589.376 5753.143, 1589.376 5763.143, 1589.376 5773.143, 1589.376 5783.143, 1589.376 5793.143, 1589.376 5803.143, 1589.376 5813.143, 1589.376 5823.143, 1589.376 5831.412, 1589.376 5836.343, 1589.376 5838.108, 1589.376 5839.833, 1589.376 5841.511, 1589.376 5843.136, 1589.376 5844.701, 1589.376 5846.201, 1589.376 5847.628, 1589.376 5848.979, 1589.376 5849.671, 1589.346 5850.349, 1589.317 " />
            <path fill="none" stroke-width="3.0" stroke-linecap="butt" stroke-opacity="1.0" stroke="rgb(0, 0, 0)" stroke-linejoin="round" d=" M 22.108, 1589.376 32.108, 1589.376 42.108, 1589.376 52.108, 1589.376 62.108, 1589.376 72.108, 1589.376 82.108, 1589.376 92.108, 1589.376 102.108, 1589.376 112.108, 1589.376 122.108, 1589.376 132.108, 1589.376 142.108, 1589.376 152.108, 1589.376 162.108, 1589.376 172.108, 1589.376 182.108, 1589.376 192.108, 1589.376 202.108, 1589.376 212.108, 1589.376 222.108, 1589.376 232.108, 1589.376 242.108, 1589.376 252.108, 1589.376 262.108, 1589.376 272.108, 1589.376 282.108, 1589.376 292.108, 1589.376 302.108, 1589.376 312.108, 1589.376 322.108, 1589.376 332.108, 1589.376 342.108, 1589.376 352.108, 1589.376 362.108, 1589.376 372.108, 1589.376 382.108, 1589.376 392.108, 1589.376 402.108, 1589.376 412.108, 1589.376 422.108, 1589.376 432.108, 1589.376 442.108, 1589.376 452.108, 1589.376 462.108, 1589.376 472.108, 1589.376 482.108, 1589.376 492.108, 1589.376 502.108, 1589.376 512.108, 1589.376 522.108, 1589.376 532.108, 1589.376 542.108, 1589.376 552.108, 1589.376 562.108, 1589.376 572.108, 1589.376 582.108, 1589.376 592.108, 1589.376 602.108, 1589.376 612.108, 1589.376 622.108, 1589.376 632.108, 1589.376 642.108, 1589.376 652.108, 1589.376 662.108, 1589.376 672.108, 1589.376 682.108, 1589.376 692.108, 1589.376 702.108, 1589.376 712.108, 1589.376 722.108, 1589.376 732.108, 1589.376 742.108, 1589.376 752.108, 1589.376 762.108, 1589.376 772.108, 1589.376 782.108, 1589.376 792.108, 1589.376 802.108, 1589.376 812.108, 1589.376 822.108, 1589.376 832.108, 1589.376 842.108, 1589.376 852.108, 1589.376 862.108, 1589.376 872.108, 1589.376 882.108, 1589.376 892.108, 1589.376 902.108, 1589.376 912.108, 1589.376 922.108, 1589.376 932.108, 1589.376 942.108, 1589.376 952.108, 1589.376 962.108, 1589.376 972.108, 1589.376 982.108, 1589.376 992.108, 1589.376 1002.108, 1589.376 1012.108, 1589.376 1022.108, 1589.376 1032.108, 1589.376 1042.108, 1589.376 1052.108, 1589.376 1062.108, 1589.376 1072.108, 1589.376 1082.108, 1589.376 1092.108, 1589.376 1102.108, 1589.376 1112.108, 1589.376 1122.108, 1589.376 1132.108, 1589.376 1142.108, 1589.376 1152.108, 1589.376 1162.108, 1589.376 1172.108, 1589.376 1182.108, 1589.376 1192.108, 1589.376 1202.108, 1589.376 1212.108, 1589.376 1222.108, 1589.376 1232.108, 1589.376 1242.108, 1589.376 1252.108, 1589.376 1262.108, 1589.376 1272.108, 1589.376 1282.108, 1589.376 1292.108, 1589.376 1302.108, 1589.376 1312.108, 1589.376 1322.108, 1589.376 1332.108, 1589.376 1342.108, 1589.376 1352.108, 1589.376 1362.108, 1589.376 1372.108, 1589.376 1382.108, 1589.376 1392.108, 1589.376 1402.108, 1589.376 1412.108, 1589.376 1422.108, 1589.376 1432.108, 1589.376 1442.108, 1589.376 1452.108, 1589.376 1462.108, 1589.376 1472.108, 1589.376 1482.108, 1589.376 1492.108, 1589.376 1502.108, 1589.376 1512.108, 1589.376 1522.108, 1589.376 1532.108, 1589.376 1542.108, 1589.376 1552.108, 1589.376 1577.162, 1589.376 1587.162, 1589.376 1597.162, 1589.376 1607.162, 1589.376 1617.162, 1589.376 1627.162, 1589.376 1637.162, 1589.376 1647.162, 1589.376 1657.162, 1589.376 1667.162, 1589.376 1677.162, 1589.376 1687.162, 1589.376 1697.162, 1589.376 1707.162, 1589.376 1717.162, 1589.376 1727.162, 1589.376 1737.162, 1589.376 1747.162, 1589.376 1757.162, 1589.376 1767.162, 1589.376 1777.162, 1589.376 1787.162, 1589.376 1797.162, 1589.376 1807.162, 1589.376 1817.162, 1589.376 1827.162, 1589.376 1837.162, 1589.376 1847.499, 1589.376 " />
            <path fill="none" stroke-width="3.0" stroke-linecap="butt" stroke-opacity="1.0" stroke="rgb(0, 0, 0)" stroke-linejoin="round" d=" M 835.001, 412.368 833.246, 414.355 831.396, 416.254 829.452, 418.057 827.421, 419.760 825.308, 421.362 " />
            <path fill="none" stroke-width="3.0" stroke-linecap="butt" stroke-opacity="1.0" stroke="rgb(0, 0, 0)" stroke-linejoin="round" d=" M 1836.452, 1185.384 1837.323, 1175.422 1838.193, 1165.460 1839.064, 1155.498 1839.935, 1145.536 1840.805, 1135.574 1841.676, 1125.612 1842.547, 1115.650 1843.417, 1105.688 1844.288, 1095.726 1845.159, 1085.764 1846.030, 1075.802 1846.900, 1065.840 1847.771, 1055.878 1848.642, 1045.916 1849.512, 1035.954 1850.383, 1025.992 1851.254, 1016.030 1852.125, 1006.068 1852.995, 996.106 1853.866, 986.144 1854.737, 976.182 1855.607, 966.220 1856.478, 956.258 1857.349, 946.296 1858.219, 936.334 1859.090, 926.372 1859.961, 916.410 1860.832, 906.448 1861.662, 896.942 1863.894, 887.194 1866.125, 877.446 1868.357, 867.698 1870.588, 857.950 1872.819, 848.202 1875.051, 838.454 1877.282, 828.707 1879.514, 818.959 1881.745, 809.211 1883.976, 799.463 1886.208, 789.715 1888.439, 779.967 1890.671, 770.219 1892.902, 760.472 1895.133, 750.724 1897.365, 740.976 1899.596, 731.228 1901.828, 721.480 1904.059, 711.732 1906.290, 701.984 1908.522, 692.236 1910.753, 682.489 1912.984, 672.741 1915.216, 662.993 1917.447, 653.245 1919.679, 643.497 1921.910, 633.749 1924.141, 624.001 1926.373, 614.254 1928.604, 604.506 1930.835, 594.758 1933.067, 585.010 1935.298, 575.262 1937.530, 565.514 1939.761, 555.766 1941.992, 546.018 1944.224, 536.271 1946.455, 526.523 1948.687, 516.775 1950.918, 507.027 1953.149, 497.279 1955.381, 487.531 1957.612, 477.783 1959.844, 468.036 1962.075, 458.288 1964.306, 448.540 1966.538, 438.792 1968.769, 429.044 1971.000, 419.296 1973.232, 409.548 1975.463, 399.800 1977.695, 390.053 1979.926, 380.305 1982.157, 370.557 1984.389, 360.809 1985.931, 354.071 1983.721, 344.318 1981.511, 334.566 1979.301, 324.813 1977.091, 315.060 1974.881, 305.307 1972.672, 295.555 1970.462, 285.802 1968.252, 276.049 1966.042, 266.296 1963.832, 256.544 1961.622, 246.791 1959.412, 237.038 1957.202, 227.285 1954.992, 217.533 1952.782, 207.780 1950.573, 198.027 1948.363, 188.274 1946.153, 178.521 1943.943, 168.769 1941.733, 159.016 1939.401, 148.726 " />
            <path fill="none" stroke-width="3.0" stroke-linecap="butt" stroke-opacity="1.0" stroke="rgb(0, 0, 0)" stroke-linejoin="round" d=" M 843.264, 398.846 842.174, 401.262 840.964, 403.621 839.639, 405.917 " />
            <path fill="none" stroke-width="3.0" stroke-linecap="butt" stroke-opacity="1.0" stroke="rgb(0, 0, 0)" stroke-linejoin="round" d=" M 1847.499, 1589.376 1847.105, 1579.383 1846.712, 1569.391 1846.318, 1559.399 1845.924, 1549.407 1845.531, 1539.414 1845.137, 1529.422 1844.744, 1519.430 1844.350, 1509.438 1843.957, 1499.445 1843.563, 1489.453 1843.170, 1479.461 1842.776, 1469.469 1842.383, 1459.476 1841.989, 1449.484 1841.596, 1439.492 1841.202, 1429.500 1840.808, 1419.507 1840.415, 1409.515 1840.021, 1399.523 1839.628, 1389.531 1839.234, 1379.538 1838.841, 1369.546 1838.447, 1359.554 1838.054, 1349.562 1837.660, 1339.569 1837.267, 1329.577 1836.873, 1319.585 1836.479, 1309.593 1836.086, 1299.600 1835.693, 1289.608 1835.299, 1279.616 1834.905, 1269.624 1834.512, 1259.631 1834.118, 1249.639 1833.725, 1239.647 1833.331, 1229.654 1832.938, 1219.662 1832.401, 1206.034 1834.326, 1196.221 1836.251, 1186.408 1836.452, 1185.384 " />
            <path fill="none" stroke-width="3.0" stroke-linecap="butt" stroke-opacity="1.0" stroke="rgb(0, 0, 0)" stroke-linejoin="round" d=" M 823.118, 422.854 820.856, 424.237 818.528, 425.504 816.140, 426.655 " />
            <path fill="none" stroke-width="3.0" stroke-linecap="butt" stroke-opacity="1.0" stroke="rgb(0, 0, 0)" stroke-linejoin="round" d=" M 813.697, 427.685 811.206, 428.591 808.673, 429.373 806.104, 430.027 803.505, 430.551 800.884, 430.947 798.246, 431.211 795.599, 431.344 " />
            <path fill="none" stroke-width="3.0" stroke-linecap="butt" stroke-opacity="1.0" stroke="rgb(0, 0, 0)" stroke-linejoin="round" d=" M 847.174, 383.488 846.845, 386.119 846.384, 388.728 845.795, 391.313 845.077, 393.865 " />
            <path fill="none" stroke-width="3.0" stroke-linecap="butt" stroke-opacity="1.0" stroke="rgb(0, 0, 0)" stroke-linejoin="round" d=" M 845.077, 362.524 845.795, 365.076 846.384, 367.660 846.845, 370.271 847.174, 372.901 847.372, 375.544 847.439, 378.194 847.372, 380.845 847.174, 383.488 " />
            <path fill="none" stroke-width="3.0" stroke-linecap="butt" stroke-opacity="1.0" stroke="rgb(0, 0, 0)" stroke-linejoin="round" d=" M 839.639, 350.472 840.964, 352.768 842.174, 355.127 843.264, 357.544 844.232, 360.011 845.077, 362.524 " />
            <path fill="none" stroke-width="3.0" stroke-linecap="butt" stroke-opacity="1.0" stroke="rgb(0, 0, 0)" stroke-linejoin="round" d=" M 833.246, 342.033 835.001, 344.020 836.653, 346.093 838.201, 348.245 839.639, 350.472 " />
            <path fill="none" stroke-width="3.0" stroke-linecap="butt" stroke-opacity="1.0" stroke="rgb(0, 0, 0)" stroke-linejoin="round" d=" M 795.599, 431.344 792.948, 431.344 790.300, 431.211 787.663, 430.947 785.041, 430.551 " />
            <path fill="none" stroke-width="3.0" stroke-linecap="butt" stroke-opacity="1.0" stroke="rgb(0, 0, 0)" stroke-linejoin="round" d=" M 777.341, 428.591 774.850, 427.685 772.407, 426.655 770.019, 425.504 767.691, 424.237 " />
            <path fill="none" stroke-width="3.0" stroke-linecap="butt" stroke-opacity="1.0" stroke="rgb(0, 0, 0)" stroke-linejoin="round" d=" M 831.396, 340.135 833.246, 342.033 " />
            <path fill="none" stroke-width="3.0" stroke-linecap="butt" stroke-opacity="1.0" stroke="rgb(0, 0, 0)" stroke-linejoin="round" d=" M 829.452, 338.332 831.396, 340.135 " />
            <path fill="none" stroke-width="3.0" stroke-linecap="butt" stroke-opacity="1.0" stroke="rgb(0, 0, 0)" stroke-linejoin="round" d=" M 818.528, 330.884 820.856, 332.152 823.118, 333.534 825.308, 335.027 827.421, 336.628 829.452, 338.332 " />
            <path fill="none" stroke-width="3.0" stroke-linecap="butt" stroke-opacity="1.0" stroke="rgb(0, 0, 0)" stroke-linejoin="round" d=" M 1933.330, 70.073 1934.549, 60.148 1935.768, 50.223 1936.987, 40.297 1938.206, 30.372 1939.033, 23.634 1929.033, 23.634 1919.033, 23.634 1909.033, 23.634 1899.033, 23.634 1889.033, 23.634 1879.033, 23.634 1869.033, 23.634 1859.033, 23.634 1849.033, 23.634 1839.033, 23.634 1829.033, 23.634 1819.033, 23.634 1809.033, 23.634 1799.033, 23.634 1789.033, 23.634 1779.033, 23.634 1769.033, 23.634 1759.033, 23.634 1749.033, 23.634 1739.033, 23.634 1729.033, 23.634 1719.033, 23.634 1709.033, 23.634 1699.033, 23.634 1689.033, 23.634 1679.033, 23.634 1669.033, 23.634 1659.033, 23.634 1649.033, 23.634 1639.033, 23.634 1629.033, 23.634 1619.033, 23.634 1609.033, 23.634 1599.033, 23.634 1589.033, 23.634 1579.033, 23.634 1569.033, 23.634 1559.033, 23.634 1549.033, 23.634 1539.033, 23.634 1529.033, 23.634 1519.033, 23.634 1509.033, 23.634 1499.033, 23.634 1489.033, 23.634 1479.033, 23.634 1469.033, 23.634 1459.033, 23.634 1449.033, 23.634 1439.033, 23.634 1429.033, 23.634 1419.033, 23.634 1409.033, 23.634 1399.033, 23.634 1389.033, 23.634 1379.033, 23.634 1369.033, 23.634 1359.033, 23.634 1349.033, 23.634 1339.033, 23.634 1329.033, 23.634 1319.033, 23.634 1309.033, 23.634 1299.033, 23.634 1289.033, 23.634 1279.033, 23.634 1269.033, 23.634 1259.033, 23.634 1249.033, 23.634 1239.033, 23.634 1229.033, 23.634 1219.033, 23.634 1209.033, 23.634 1199.033, 23.634 1189.033, 23.634 1179.033, 23.634 1169.033, 23.634 1159.033, 23.634 1149.052, 23.634 1146.404, 23.634 1143.807, 23.634 1133.807, 23.634 1123.807, 23.634 1113.807, 23.634 1103.807, 23.634 1093.807, 23.634 1083.807, 23.634 1073.807, 23.634 1063.807, 23.634 1053.807, 23.634 1043.807, 23.634 1033.807, 23.634 1023.807, 23.634 1013.807, 23.634 1003.807, 23.634 993.807, 23.634 983.807, 23.634 973.807, 23.634 963.807, 23.634 953.807, 23.634 943.807, 23.634 933.807, 23.634 923.807, 23.634 913.807, 23.634 903.807, 23.634 893.807, 23.634 883.807, 23.634 873.807, 23.634 863.807, 23.634 853.807, 23.634 843.807, 23.634 833.807, 23.634 823.807, 23.634 813.807, 23.634 803.807, 23.634 793.807, 23.634 783.807, 23.634 773.807, 23.634 763.807, 23.634 753.807, 23.634 743.807, 23.634 733.807, 23.634 723.807, 23.634 713.807, 23.634 703.807, 23.634 693.807, 23.634 683.807, 23.634 673.807, 23.634 663.807, 23.634 653.807, 23.634 648.693, 23.634 647.282, 23.634 645.791, 23.634 644.225, 23.634 642.587, 23.634 632.587, 23.634 622.587, 23.634 612.587, 23.634 602.587, 23.634 592.587, 23.634 582.587, 23.634 572.587, 23.634 562.587, 23.634 552.587, 23.634 542.587, 23.634 532.587, 23.634 522.587, 23.634 512.587, 23.634 502.587, 23.634 492.587, 23.634 482.587, 23.634 475.093, 23.634 474.135, 23.634 473.105, 23.634 472.009, 23.634 470.848, 23.634 469.627, 23.634 468.350, 23.634 467.021, 23.634 465.645, 23.634 464.226, 23.634 462.768, 23.634 461.278, 23.634 459.758, 23.634 458.215, 23.634 456.653, 23.634 455.078, 23.634 453.493, 23.634 451.905, 23.634 441.905, 23.634 431.905, 23.634 421.905, 23.634 411.905, 23.634 401.905, 23.634 391.905, 23.634 381.905, 23.634 371.905, 23.634 361.905, 23.634 351.905, 23.634 341.905, 23.634 331.905, 23.634 321.905, 23.634 311.905, 23.634 301.905, 23.634 291.905, 23.634 281.905, 23.634 271.905, 23.634 261.905, 23.634 251.905, 23.634 241.905, 23.634 231.905, 23.634 221.905, 23.634 211.905, 23.634 201.905, 23.634 191.905, 23.634 181.905, 23.634 174.049, 23.634 172.128, 33.448 170.207, 43.262 168.286, 53.076 166.365, 62.889 164.444, 72.703 162.524, 82.517 160.603, 92.331 158.682, 102.145 156.761, 111.958 154.840, 121.772 153.219, 130.054 " />
            <path fill="none" stroke-width="3.0" stroke-linecap="butt" stroke-opacity="1.0" stroke="rgb(0, 0, 0)" stroke-linejoin="round" d=" M 816.140, 329.734 818.528, 330.884 " />
            <path fill="none" stroke-width="3.0" stroke-linecap="butt" stroke-opacity="1.0" stroke="rgb(0, 0, 0)" stroke-linejoin="round" d=" M 813.697, 328.704 816.140, 329.734 " />
            <path fill="none" stroke-width="3.0" stroke-linecap="butt" stroke-opacity="1.0" stroke="rgb(0, 0, 0)" stroke-linejoin="round" d=" M 741.372, 383.488 741.174, 380.845 741.108, 378.194 741.174, 375.544 " />
            <path fill="none" stroke-width="3.0" stroke-linecap="butt" stroke-opacity="1.0" stroke="rgb(0, 0, 0)" stroke-linejoin="round" d=" M 741.174, 375.544 741.372, 372.901 " />
            <path fill="none" stroke-width="3.0" stroke-linecap="butt" stroke-opacity="1.0" stroke="rgb(0, 0, 0)" stroke-linejoin="round" d=" M 741.372, 372.901 741.702, 370.271 742.162, 367.660 742.752, 365.076 743.470, 362.524 744.314, 360.011 745.283, 357.544 746.373, 355.127 747.583, 352.768 748.908, 350.472 750.346, 348.245 " />
            <path fill="none" stroke-width="3.0" stroke-linecap="butt" stroke-opacity="1.0" stroke="rgb(0, 0, 0)" stroke-linejoin="round" d=" M 761.125, 419.760 759.095, 418.057 757.152, 416.254 755.300, 414.355 753.547, 412.368 751.894, 410.296 750.346, 408.144 " />
            <path fill="none" stroke-width="3.0" stroke-linecap="butt" stroke-opacity="1.0" stroke="rgb(0, 0, 0)" stroke-linejoin="round" d=" M 747.583, 403.621 746.373, 401.262 745.283, 398.846 744.314, 396.378 743.470, 393.865 742.752, 391.313 742.162, 388.728 " />
            <path fill="none" stroke-width="3.0" stroke-linecap="butt" stroke-opacity="1.0" stroke="rgb(0, 0, 0)" stroke-linejoin="round" d=" M 153.219, 130.054 153.958, 140.027 154.698, 150.000 155.437, 159.972 156.176, 169.945 156.915, 179.917 157.654, 189.890 158.394, 199.863 159.133, 209.835 159.872, 219.808 160.611, 229.781 161.350, 239.753 162.090, 249.726 162.829, 259.698 163.568, 269.671 164.307, 279.644 165.046, 289.616 165.786, 299.589 166.525, 309.562 167.264, 319.534 168.003, 329.507 168.742, 339.480 169.482, 349.452 170.221, 359.425 170.960, 369.398 171.699, 379.370 172.438, 389.343 173.178, 399.316 173.917, 409.288 174.656, 419.261 175.395, 429.233 176.134, 439.206 176.874, 449.179 177.613, 459.151 178.352, 469.124 179.091, 479.097 179.830, 489.069 180.570, 499.042 181.309, 509.015 182.048, 518.987 182.787, 528.960 183.236, 535.014 181.160, 544.796 179.083, 554.578 177.007, 564.360 174.930, 574.142 172.854, 583.924 170.777, 593.706 168.701, 603.488 166.624, 613.270 164.548, 623.052 162.471, 632.834 160.395, 642.616 158.318, 652.398 156.242, 662.180 154.165, 671.962 152.089, 681.744 150.013, 691.526 147.936, 701.308 145.860, 711.090 143.783, 720.872 141.707, 730.654 139.630, 740.437 137.554, 750.219 135.477, 760.001 133.401, 769.783 131.324, 779.565 129.248, 789.347 127.171, 799.129 125.095, 808.911 123.018, 818.693 120.942, 828.475 118.866, 838.257 116.789, 848.039 114.713, 857.821 112.636, 867.603 110.560, 877.385 108.483, 887.167 106.407, 896.949 104.330, 906.731 102.254, 916.513 100.177, 926.295 98.101, 936.077 96.024, 945.859 93.948, 955.641 91.872, 965.423 89.795, 975.205 87.719, 984.987 85.642, 994.770 83.566, 1004.552 81.489, 1014.334 79.413, 1024.116 77.336, 1033.898 75.260, 1043.680 73.183, 1053.462 71.107, 1063.244 69.030, 1073.026 66.954, 1082.808 64.877, 1092.590 62.801, 1102.372 60.725, 1112.154 59.212, 1119.279 " />
            <path fill="none" stroke-width="3.0" stroke-linecap="butt" stroke-opacity="1.0" stroke="rgb(0, 0, 0)" stroke-linejoin="round" d=" M 750.346, 348.245 751.894, 346.093 753.547, 344.020 755.300, 342.033 757.152, 340.135 759.095, 338.332 761.125, 336.628 763.239, 335.027 765.429, 333.534 " />
            <path fill="none" stroke-width="3.0" stroke-linecap="butt" stroke-opacity="1.0" stroke="rgb(0, 0, 0)" stroke-linejoin="round" d=" M 765.429, 333.534 767.691, 332.152 " />
            <path fill="none" stroke-width="3.0" stroke-linecap="butt" stroke-opacity="1.0" stroke="rgb(0, 0, 0)" stroke-linejoin="round" d=" M 767.691, 332.152 770.019, 330.884 " />
            <path fill="none" stroke-width="3.0" stroke-linecap="butt" stroke-opacity="1.0" stroke="rgb(0, 0, 0)" stroke-linejoin="round" d=" M 770.019, 330.884 772.407, 329.734 774.850, 328.704 777.341, 327.798 779.874, 327.016 782.443, 326.362 785.041, 325.837 787.663, 325.442 790.300, 325.178 792.948, 325.046 " />
            <path fill="none" stroke-width="3.0" stroke-linecap="butt" stroke-opacity="1.0" stroke="rgb(0, 0, 0)" stroke-linejoin="round" d=" M 792.948, 325.046 795.599, 325.046 " />
            <path fill="none" stroke-width="3.0" stroke-linecap="butt" stroke-opacity="1.0" stroke="rgb(0, 0, 0)" stroke-linejoin="round" d=" M 795.599, 325.046 798.246, 325.178 800.884, 325.442 803.505, 325.837 806.104, 326.362 808.673, 327.016 " />
            <path fill="none" stroke-width="3.0" stroke-linecap="butt" stroke-opacity="1.0" stroke="rgb(0, 0, 0)" stroke-linejoin="round" d=" M 808.673, 327.016 811.206, 327.798 " />
            <path fill="none" stroke-width="3.0" stroke-linecap="butt" stroke-opacity="1.0" stroke="rgb(0, 0, 0)" stroke-linejoin="round" d=" M 811.206, 327.798 813.697, 328.704 " />
            <path fill="none" stroke-width="3.0" stroke-linecap="butt" stroke-opacity="1.0" stroke="rgb(0, 0, 0)" stroke-linejoin="round" d=" M 6784.719, 1025.968 6782.199, 1028.551 6779.554, 1031.006 6776.791, 1033.325 6773.914, 1035.503 6770.933, 1037.536 6767.854, 1039.417 6764.686, 1041.143 6761.435, 1042.709 6758.110, 1044.110 6754.719, 1045.344 6751.271, 1046.408 6747.775, 1047.298 6744.238, 1048.013 6740.670, 1048.551 6737.080, 1048.910 6733.477, 1049.090 6729.868, 1049.090 6726.265, 1048.910 6722.674, 1048.551 6719.106, 1048.013 6715.570, 1047.298 6712.073, 1046.408 6708.625, 1045.344 6705.235, 1044.110 6701.910, 1042.709 6698.659, 1041.143 6695.490, 1039.417 6692.412, 1037.536 6689.431, 1035.503 6686.554, 1033.325 6683.790, 1031.006 6681.146, 1028.551 6678.626, 1025.968 6676.238, 1023.263 6673.989, 1020.443 6671.883, 1017.513 6669.925, 1014.482 6668.121, 1011.356 6666.475, 1008.146 6664.991, 1004.857 6663.672, 1001.498 6662.523, 998.078 6661.546, 994.605 6660.743, 991.087 6660.117, 987.533 6659.668, 983.954 6659.398, 980.355 6659.309, 976.749 6659.398, 973.142 6659.668, 969.543 6660.117, 965.963 6660.743, 962.410 6661.546, 958.892 6662.523, 955.418 6663.672, 951.999 6664.991, 948.640 6666.475, 945.351 6668.121, 942.140 6669.925, 939.015 6671.883, 935.985 6673.989, 933.055 6676.238, 930.234 6678.626, 927.529 6681.146, 924.946 6683.790, 922.491 6686.554, 920.172 6689.431, 917.994 6692.412, 915.961 6695.490, 914.079 6698.659, 912.354 6701.910, 910.788 6705.235, 909.387 6708.625, 908.153 6712.073, 907.089 6715.570, 906.199 6719.106, 905.484 6722.674, 904.946 6726.265, 904.587 6729.868, 904.408 6733.477, 904.408 6737.080, 904.587 6740.670, 904.946 6744.238, 905.484 6747.775, 906.199 6751.271, 907.089 6754.719, 908.153 6758.110, 909.387 6761.435, 910.788 6764.686, 912.354 6767.854, 914.079 6770.933, 915.961 6773.914, 917.994 6776.791, 920.172 6779.554, 922.491 6782.199, 924.946 6784.719, 927.529 6787.106, 930.234 6789.356, 933.055 6791.462, 935.985 6793.419, 939.015 6795.224, 942.140 6796.870, 945.351 6798.354, 948.640 6799.672, 951.999 6800.821, 955.418 6801.798, 958.892 6802.601, 962.410 6803.228, 965.963 6803.677, 969.543 6803.946, 973.142 6804.036, 976.749 6803.946, 980.355 6803.677, 983.954 6803.228, 987.533 6802.601, 991.087 6801.798, 994.605 6800.821, 998.078 6799.672, 1001.498 6798.354, 1004.857 6796.870, 1008.146 6795.224, 1011.356 6793.419, 1014.482 6791.462, 1017.513 6789.356, 1020.443 6787.106, 1023.263 6784.719, 1025.968 " />
            <path fill="none" stroke-width="3.0" stroke-linecap="butt" stroke-opacity="1.0" stroke="rgb(0, 0, 0)" stroke-linejoin="round" d=" M 5643.143, 1589.376 5653.143, 1589.376 5663.143, 1589.376 5673.143, 1589.376 5683.143, 1589.376 5693.143, 1589.376 5703.143, 1589.376 5713.143, 1589.376 5723.143, 1589.376 5733.143, 1589.376 5743.143, 1589.376 5753.143, 1589.376 5763.143, 1589.376 5773.143, 1589.376 5783.143, 1589.376 5793.143, 1589.376 5803.143, 1589.376 5813.143, 1589.376 5823.143, 1589.376 5833.143, 1589.376 5843.143, 1589.376 5853.143, 1589.376 5863.143, 1589.376 5873.143, 1589.376 5883.143, 1589.376 5893.143, 1589.376 5903.143, 1589.376 5913.143, 1589.376 5923.143, 1589.376 5933.143, 1589.376 5943.143, 1589.376 5953.143, 1589.376 5963.143, 1589.376 5973.143, 1589.376 5983.143, 1589.376 5993.143, 1589.376 6003.143, 1589.376 6013.143, 1589.376 6023.143, 1589.376 6033.143, 1589.376 6043.143, 1589.376 6053.143, 1589.376 6063.143, 1589.376 6073.143, 1589.376 6083.143, 1589.376 6093.143, 1589.376 6103.143, 1589.376 6113.143, 1589.376 6123.143, 1589.376 6133.143, 1589.376 6143.143, 1589.376 6153.143, 1589.376 6163.143, 1589.376 6173.143, 1589.376 6183.143, 1589.376 6193.143, 1589.376 6203.143, 1589.376 6213.143, 1589.376 6223.143, 1589.376 6233.143, 1589.376 6243.143, 1589.376 6253.143, 1589.376 6263.143, 1589.376 6273.143, 1589.376 6283.143, 1589.376 6293.143, 1589.376 6303.143, 1589.376 6313.143, 1589.376 6323.143, 1589.376 6333.143, 1589.376 6343.143, 1589.376 6353.143, 1589.376 6363.143, 1589.376 6373.143, 1589.376 6383.143, 1589.376 6393.143, 1589.376 6403.143, 1589.376 6413.143, 1589.376 6423.143, 1589.376 6433.143, 1589.376 6443.143, 1589.376 6453.143, 1589.376 6463.143, 1589.376 6473.143, 1589.376 6483.143, 1589.376 6493.143, 1589.376 6503.143, 1589.376 6513.143, 1589.376 6523.143, 1589.376 6533.143, 1589.376 6543.143, 1589.376 6553.143, 1589.376 6563.143, 1589.376 6573.143, 1589.376 6583.143, 1589.376 6593.143, 1589.376 6603.143, 1589.376 6613.143, 1589.376 6623.143, 1589.376 6633.143, 1589.376 6643.143, 1589.376 6653.143, 1589.376 6663.143, 1589.376 6673.143, 1589.376 6683.143, 1589.376 6693.143, 1589.376 6703.143, 1589.376 6713.143, 1589.376 6723.143, 1589.376 6733.143, 1589.376 6743.143, 1589.376 6753.143, 1589.376 6763.143, 1589.376 6773.143, 1589.376 6783.143, 1589.376 6793.143, 1589.376 6803.143, 1589.376 6813.143, 1589.376 6823.143, 1589.376 6833.143, 1589.376 6843.143, 1589.376 6853.143, 1589.376 6863.143, 1589.376 6873.143, 1589.376 6883.143, 1589.376 6893.143, 1589.376 6903.143, 1589.376 6913.143, 1589.376 6923.143, 1589.376 6933.143, 1589.376 6943.143, 1589.376 6953.143, 1589.376 6963.143, 1589.376 6973.143, 1589.376 6983.143, 1589.376 6993.143, 1589.376 7003.143, 1589.376 7013.143, 1589.376 7023.143, 1589.376 7033.143, 1589.376 7043.143, 1589.376 7053.143, 1589.376 7063.143, 1589.376 7073.143, 1589.376 7083.143, 1589.376 7093.143, 1589.376 7103.143, 1589.376 7113.143, 1589.376 7123.143, 1589.376 7133.143, 1589.376 7143.143, 1589.376 7153.143, 1589.376 7163.143, 1589.376 7173.143, 1589.376 7183.143, 1589.376 7193.143, 1589.376 7203.143, 1589.376 7213.143, 1589.376 7223.143, 1589.376 7233.143, 1589.376 7243.143, 1589.376 7253.143, 1589.376 7263.143, 1589.376 7273.143, 1589.376 7283.143, 1589.376 7293.143, 1589.376 7303.143, 1589.376 7313.143, 1589.376 7323.143, 1589.376 7333.143, 1589.376 7343.143, 1589.376 7353.143, 1589.376 7363.143, 1589.376 7373.143, 1589.376 7383.143, 1589.376 7393.143, 1589.376 7403.143, 1589.376 7413.143, 1589.376 7423.143, 1589.376 7433.143, 1589.376 7443.143, 1589.376 7453.143, 1589.376 7463.143, 1589.376 7473.143, 1589.376 7483.143, 1589.376 7493.143, 1589.376 7503.143, 1589.376 7513.143, 1589.376 7523.143, 1589.376 7533.143, 1589.376 7543.143, 1589.376 7553.143, 1589.376 7563.143, 1589.376 7573.143, 1589.376 7583.143, 1589.376 7593.143, 1589.376 7603.143, 1589.376 7613.143, 1589.376 7623.143, 1589.376 7633.143, 1589.376 7643.143, 1589.376 7653.143, 1589.376 7663.143, 1589.376 7673.143, 1589.376 7683.143, 1589.376 7693.143, 1589.376 7703.143, 1589.376 7713.143, 1589.376 7723.143, 1589.376 7733.143, 1589.376 7743.143, 1589.376 7764.358, 1589.376 " />
            <path fill="none" stroke-width="3.0" stroke-linecap="butt" stroke-opacity="1.0" stroke="rgb(0, 0, 0)" stroke-linejoin="round" d=" M 23.921, 1448.627 23.792, 1458.627 23.664, 1468.626 23.535, 1478.625 23.406, 1488.624 23.277, 1498.623 23.148, 1508.622 23.019, 1518.622 22.891, 1528.621 22.762, 1538.620 22.633, 1548.619 22.504, 1558.618 22.375, 1568.617 22.246, 1578.617 22.108, 1589.376 " />
            <path fill="none" stroke-width="3.0" stroke-linecap="butt" stroke-opacity="1.0" stroke="rgb(0, 0, 0)" stroke-linejoin="round" d=" M 59.212, 1119.279 58.147, 1129.222 57.081, 1139.165 56.016, 1149.108 54.950, 1159.051 53.885, 1168.995 52.819, 1178.938 51.754, 1188.881 50.689, 1198.824 49.623, 1208.767 48.558, 1218.710 47.492, 1228.653 46.427, 1238.596 45.361, 1248.539 44.296, 1258.482 43.231, 1268.425 42.165, 1278.368 41.100, 1288.311 40.034, 1298.255 38.969, 1308.198 37.903, 1318.141 36.838, 1328.084 35.772, 1338.027 34.707, 1347.970 33.642, 1357.913 32.576, 1367.856 31.511, 1377.799 30.445, 1387.742 29.380, 1397.685 28.314, 1407.628 27.249, 1417.572 26.183, 1427.515 25.118, 1437.458 23.921, 1448.627 " />
            <path fill="none" stroke-width="3.0" stroke-linecap="butt" stroke-opacity="1.0" stroke="rgb(0, 0, 0)" stroke-linejoin="round" d=" M 741.702, 386.119 741.372, 383.488 " />
            <path fill="none" stroke-width="3.0" stroke-linecap="butt" stroke-opacity="1.0" stroke="rgb(0, 0, 0)" stroke-linejoin="round" d=" M 742.162, 388.728 741.702, 386.119 " />
            <path fill="none" stroke-width="3.0" stroke-linecap="butt" stroke-opacity="1.0" stroke="rgb(0, 0, 0)" stroke-linejoin="round" d=" M 748.908, 405.917 747.583, 403.621 " />
            <path fill="none" stroke-width="3.0" stroke-linecap="butt" stroke-opacity="1.0" stroke="rgb(0, 0, 0)" stroke-linejoin="round" d=" M 750.346, 408.144 748.908, 405.917 " />
            <path fill="none" stroke-width="3.0" stroke-linecap="butt" stroke-opacity="1.0" stroke="rgb(0, 0, 0)" stroke-linejoin="round" d=" M 763.239, 421.362 761.125, 419.760 " />
            <path fill="none" stroke-width="3.0" stroke-linecap="butt" stroke-opacity="1.0" stroke="rgb(0, 0, 0)" stroke-linejoin="round" d=" M 765.429, 422.854 763.239, 421.362 " />
            <path fill="none" stroke-width="3.0" stroke-linecap="butt" stroke-opacity="1.0" stroke="rgb(0, 0, 0)" stroke-linejoin="round" d=" M 767.691, 424.237 765.429, 422.854 " />
            <path fill="none" stroke-width="3.0" stroke-linecap="butt" stroke-opacity="1.0" stroke="rgb(0, 0, 0)" stroke-linejoin="round" d=" M 779.874, 429.373 777.341, 428.591 " />
            <path fill="none" stroke-width="3.0" stroke-linecap="butt" stroke-opacity="1.0" stroke="rgb(0, 0, 0)" stroke-linejoin="round" d=" M 782.443, 430.027 779.874, 429.373 " />
            <path fill="none" stroke-width="3.0" stroke-linecap="butt" stroke-opacity="1.0" stroke="rgb(0, 0, 0)" stroke-linejoin="round" d=" M 785.041, 430.551 782.443, 430.027 " />
            <path fill="none" stroke-width="3.0" stroke-linecap="butt" stroke-opacity="1.0" stroke="rgb(0, 0, 0)" stroke-linejoin="round" d=" M 816.140, 426.655 813.697, 427.685 " />
            <path fill="none" stroke-width="3.0" stroke-linecap="butt" stroke-opacity="1.0" stroke="rgb(0, 0, 0)" stroke-linejoin="round" d=" M 825.308, 421.362 823.118, 422.854 " />
            <path fill="none" stroke-width="3.0" stroke-linecap="butt" stroke-opacity="1.0" stroke="rgb(0, 0, 0)" stroke-linejoin="round" d=" M 836.653, 410.296 835.001, 412.368 " />
            <path fill="none" stroke-width="3.0" stroke-linecap="butt" stroke-opacity="1.0" stroke="rgb(0, 0, 0)" stroke-linejoin="round" d=" M 838.201, 408.144 836.653, 410.296 " />
            <path fill="none" stroke-width="3.0" stroke-linecap="butt" stroke-opacity="1.0" stroke="rgb(0, 0, 0)" stroke-linejoin="round" d=" M 839.639, 405.917 838.201, 408.144 " />
            <path fill="none" stroke-width="3.0" stroke-linecap="butt" stroke-opacity="1.0" stroke="rgb(0, 0, 0)" stroke-linejoin="round" d=" M 844.232, 396.378 843.264, 398.846 " />
            <path fill="none" stroke-width="3.0" stroke-linecap="butt" stroke-opacity="1.0" stroke="rgb(0, 0, 0)" stroke-linejoin="round" d=" M 845.077, 393.865 844.232, 396.378 " />
            <path fill="none" stroke-width="3.0" stroke-linecap="butt" stroke-opacity="1.0" stroke="rgb(0, 0, 0)" stroke-linejoin="round" d=" M 1939.401, 148.726 1938.631, 138.756 1937.862, 128.785 1937.092, 118.815 1936.323, 108.845 1935.553, 98.874 1934.783, 88.904 1934.014, 78.934 1933.330, 70.073 " />
        </g>
    </g>
<g id="slice-labels"><text x="578.03325" y="415.0695" text-anchor="middle" dominant-baseline="middle" font-family="Arial, sans-serif" font-size="59.072489425767394" font-weight="bold" fill="black" stroke="none" stroke-width="7.088698731092087" paint-order="stroke fill">Slice26 (Back)</text><text x="1689.88375" y="415.0695" text-anchor="middle" dominant-baseline="middle" font-family="Arial, sans-serif" font-size="59.072489425767394" font-weight="bold" fill="black" stroke="none" stroke-width="7.088698731092087" paint-order="stroke fill">Slice26 (Back)</text><text x="2801.7342500000004" y="415.0695" text-anchor="middle" dominant-baseline="middle" font-family="Arial, sans-serif" font-size="59.072489425767394" font-weight="bold" fill="black" stroke="none" stroke-width="7.088698731092087" paint-order="stroke fill">Slice26 (Back)</text><text x="3913.58475" y="415.0695" text-anchor="middle" dominant-baseline="middle" font-family="Arial, sans-serif" font-size="59.072489425767394" font-weight="bold" fill="black" stroke="none" stroke-width="7.088698731092087" paint-order="stroke fill">Slice26 (Back)</text><text x="5025.43525" y="415.0695" text-anchor="middle" dominant-baseline="middle" font-family="Arial, sans-serif" font-size="59.072489425767394" font-weight="bold" fill="black" stroke="none" stroke-width="7.088698731092087" paint-order="stroke fill">Slice26 (Back)</text><text x="6137.28575" y="415.0695" text-anchor="middle" dominant-baseline="middle" font-family="Arial, sans-serif" font-size="59.072489425767394" font-weight="bold" fill="black" stroke="none" stroke-width="7.088698731092087" paint-order="stroke fill">Slice26 (Back)</text><text x="7249.1362500000005" y="415.0695" text-anchor="middle" dominant-baseline="middle" font-family="Arial, sans-serif" font-size="59.072489425767394" font-weight="bold" fill="black" stroke="none" stroke-width="7.088698731092087" paint-order="stroke fill">Slice26 (Back)</text><text x="8360.98675" y="415.0695" text-anchor="middle" dominant-baseline="middle" font-family="Arial, sans-serif" font-size="59.072489425767394" font-weight="bold" fill="black" stroke="none" stroke-width="7.088698731092087" paint-order="stroke fill">Slice26 (Back)</text><text x="578.03325" y="1197.9405" text-anchor="middle" dominant-baseline="middle" font-family="Arial, sans-serif" font-size="59.072489425767394" font-weight="bold" fill="black" stroke="none" stroke-width="7.088698731092087" paint-order="stroke fill">Slice26 (Back)</text><text x="1689.88375" y="1197.9405" text-anchor="middle" dominant-baseline="middle" font-family="Arial, sans-serif" font-size="59.072489425767394" font-weight="bold" fill="black" stroke="none" stroke-width="7.088698731092087" paint-order="stroke fill">Slice26 (Back)</text><text x="2801.7342500000004" y="1197.9405" text-anchor="middle" dominant-baseline="middle" font-family="Arial, sans-serif" font-size="59.072489425767394" font-weight="bold" fill="black" stroke="none" stroke-width="7.088698731092087" paint-order="stroke fill">Slice26 (Back)</text><text x="3913.58475" y="1197.9405" text-anchor="middle" dominant-baseline="middle" font-family="Arial, sans-serif" font-size="59.072489425767394" font-weight="bold" fill="black" stroke="none" stroke-width="7.088698731092087" paint-order="stroke fill">Slice26 (Back)</text><text x="5025.43525" y="1197.9405" text-anchor="middle" dominant-baseline="middle" font-family="Arial, sans-serif" font-size="59.072489425767394" font-weight="bold" fill="black" stroke="none" stroke-width="7.088698731092087" paint-order="stroke fill">Slice26 (Back)</text><text x="6137.28575" y="1197.9405" text-anchor="middle" dominant-baseline="middle" font-family="Arial, sans-serif" font-size="59.072489425767394" font-weight="bold" fill="black" stroke="none" stroke-width="7.088698731092087" paint-order="stroke fill">Slice26 (Back)</text><text x="7249.1362500000005" y="1197.9405" text-anchor="middle" dominant-baseline="middle" font-family="Arial, sans-serif" font-size="59.072489425767394" font-weight="bold" fill="black" stroke="none" stroke-width="7.088698731092087" paint-order="stroke fill">Slice26 (Back)</text><text x="8360.98675" y="1197.9405" text-anchor="middle" dominant-baseline="middle" font-family="Arial, sans-serif" font-size="59.072489425767394" font-weight="bold" fill="black" stroke="none" stroke-width="7.088698731092087" paint-order="stroke fill">Slice26 (Back)</text></g></svg>