<?xml version='1.0' encoding='utf-8'?>
<svg xmlns="http://www.w3.org/2000/svg" xmlns:inkscape="http://www.inkscape.org/namespaces/inkscape" version="1.1" width="91.25577592849731mm" height="104.70735216140747mm" viewBox="-0.042776821209510985 0.005231530958123898 1078.085553642419 1237.0005369380835" preserveAspectRatio="none">
    <g id="ViewLayer_LineSet" inkscape:groupmode="lineset" inkscape:label="ViewLayer_LineSet">
        <g inkscape:groupmode="layer" id="strokes" inkscape:label="strokes">
            <path fill="none" stroke-width="3.0" stroke-linecap="butt" stroke-opacity="1.0" stroke="rgb(0, 0, 0)" stroke-linejoin="round" d=" M 676.617, 908.179 674.098, 910.762 671.453, 913.216 668.689, 915.535 665.813, 917.713 662.832, 919.746 659.754, 921.628 656.585, 923.353 653.334, 924.918 650.009, 926.320 646.619, 927.554 643.172, 928.617 639.675, 929.507 636.139, 930.223 632.571, 930.761 628.981, 931.120 625.377, 931.299 621.769, 931.299 618.166, 931.120 614.576, 930.761 611.008, 930.223 607.472, 929.507 603.976, 928.617 600.528, 927.554 597.137, 926.320 593.813, 924.918 590.562, 923.353 587.394, 921.628 584.315, 919.746 581.333, 917.713 578.458, 915.535 575.694, 913.216 573.049, 910.762 570.530, 908.179 568.142, 905.474 565.893, 902.653 563.787, 899.724 561.829, 896.693 560.025, 893.568 558.379, 890.358 556.896, 887.069 555.577, 883.711 554.428, 880.291 553.451, 876.817 552.648, 873.300 552.022, 869.746 551.573, 866.166 551.303, 862.569 551.213, 858.961 551.303, 855.355 551.573, 851.757 552.022, 848.177 552.648, 844.624 553.451, 841.106 554.428, 837.633 555.577, 834.213 556.896, 830.854 558.379, 827.566 560.025, 824.355 561.829, 821.230 563.787, 818.200 565.893, 815.270 568.142, 812.449 570.530, 809.745 573.049, 807.162 575.694, 804.707 578.458, 802.388 581.333, 800.210 584.315, 798.178 587.394, 796.296 590.562, 794.571 593.813, 793.005 597.137, 791.603 600.528, 790.370 603.976, 789.306 607.472, 788.416 611.008, 787.701 614.576, 787.163 618.166, 786.804 621.769, 786.624 625.377, 786.624 628.981, 786.804 632.571, 787.163 636.139, 787.701 639.675, 788.416 643.172, 789.306 646.619, 790.370 650.009, 791.603 653.334, 793.005 656.585, 794.571 659.754, 796.296 662.832, 798.178 665.813, 800.210 668.689, 802.388 671.453, 804.707 674.098, 807.162 676.617, 809.745 679.004, 812.449 681.254, 815.270 683.360, 818.200 685.318, 821.230 687.122, 824.355 688.768, 827.566 690.252, 830.854 691.570, 834.213 692.719, 837.633 693.696, 841.106 694.499, 844.624 695.125, 848.177 695.574, 851.757 695.844, 855.355 695.933, 858.961 695.844, 862.569 695.574, 866.166 695.125, 869.746 694.499, 873.300 693.696, 876.817 692.719, 880.291 691.570, 883.711 690.252, 887.069 688.768, 890.358 687.122, 893.568 685.318, 896.693 683.360, 899.724 681.254, 902.653 679.004, 905.474 676.617, 908.179 " />
            <path fill="none" stroke-width="3.0" stroke-linecap="butt" stroke-opacity="1.0" stroke="rgb(0, 0, 0)" stroke-linejoin="round" d=" M 561.232, 427.266 558.713, 429.849 556.068, 432.304 553.304, 434.623 550.429, 436.801 547.448, 438.834 544.369, 440.715 541.200, 442.440 537.949, 444.006 534.625, 445.408 531.234, 446.641 527.787, 447.705 524.290, 448.596 520.754, 449.310 517.186, 449.848 513.596, 450.207 509.993, 450.387 506.385, 450.387 502.781, 450.207 499.191, 449.848 495.624, 449.310 492.087, 448.596 488.591, 447.705 485.143, 446.641 481.752, 445.408 478.428, 444.006 475.178, 442.440 472.009, 440.715 468.930, 438.834 465.949, 436.801 463.073, 434.623 460.309, 432.304 457.664, 429.849 455.145, 427.266 452.758, 424.562 450.508, 421.741 448.402, 418.812 446.445, 415.781 444.641, 412.656 442.995, 409.446 441.511, 406.156 440.193, 402.798 439.043, 399.378 438.066, 395.905 437.263, 392.387 436.637, 388.834 436.188, 385.254 435.918, 381.656 435.829, 378.050 435.918, 374.442 436.188, 370.845 436.637, 367.265 437.263, 363.712 438.066, 360.194 439.043, 356.721 440.193, 353.301 441.511, 349.942 442.995, 346.653 444.641, 343.443 446.445, 340.318 448.402, 337.287 450.508, 334.359 452.758, 331.538 455.145, 328.832 457.664, 326.250 460.309, 323.796 463.073, 321.476 465.949, 319.297 468.930, 317.265 472.009, 315.384 475.178, 313.658 478.428, 312.093 481.752, 310.692 485.143, 309.457 488.591, 308.394 492.087, 307.504 495.624, 306.789 499.191, 306.251 502.781, 305.891 506.385, 305.712 509.993, 305.712 513.596, 305.891 517.186, 306.251 520.754, 306.789 524.290, 307.504 527.787, 308.394 531.234, 309.457 534.625, 310.692 537.949, 312.093 541.200, 313.658 544.369, 315.384 547.448, 317.265 550.429, 319.297 553.304, 321.476 556.068, 323.796 558.713, 326.250 561.232, 328.832 563.620, 331.538 565.869, 334.359 567.975, 337.287 569.933, 340.318 571.737, 343.443 573.383, 346.653 574.867, 349.942 576.185, 353.301 577.334, 356.721 578.311, 360.194 579.114, 363.712 579.740, 367.265 580.189, 370.845 580.459, 374.442 580.549, 378.050 580.459, 381.656 580.189, 385.254 579.740, 388.834 579.114, 392.387 578.311, 395.905 577.334, 399.378 576.185, 402.798 574.867, 406.156 573.383, 409.446 571.737, 412.656 569.933, 415.781 567.975, 418.812 565.869, 421.741 563.620, 424.562 561.232, 427.266 " />
            <path fill="none" stroke-width="3.0" stroke-linecap="butt" stroke-opacity="1.0" stroke="rgb(0, 0, 0)" stroke-linejoin="round" d=" M 864.261, 512.881 869.462, 504.340 874.663, 495.799 879.863, 487.258 885.064, 478.716 890.265, 470.175 895.466, 461.634 900.666, 453.093 905.867, 444.552 911.068, 436.010 916.269, 427.469 921.469, 418.928 926.670, 410.387 931.871, 401.846 937.072, 393.304 942.272, 384.763 947.473, 376.222 952.674, 367.681 957.875, 359.140 963.075, 350.598 968.276, 342.057 973.477, 333.516 978.678, 324.975 983.878, 316.433 989.079, 307.892 994.280, 299.351 999.481, 290.810 1004.681, 282.269 1009.882, 273.727 1015.083, 265.186 1020.284, 256.645 1022.339, 253.269 1021.798, 243.283 1021.256, 233.298 1020.715, 223.313 1020.173, 213.327 1019.631, 203.342 1019.090, 193.357 1018.548, 183.371 1018.007, 173.386 1017.465, 163.401 1016.924, 153.416 1016.382, 143.430 1015.841, 133.445 1015.299, 123.459 1014.757, 113.474 1014.216, 103.489 1013.674, 93.504 1013.133, 83.518 1012.591, 73.533 1012.050, 63.548 1011.508, 53.562 1010.966, 43.577 1010.425, 33.592 1009.885, 23.633 999.885, 23.633 989.885, 23.633 979.885, 23.633 969.885, 23.633 959.885, 23.633 949.885, 23.633 939.885, 23.633 929.885, 23.633 922.648, 23.633 912.648, 23.633 902.648, 23.633 892.648, 23.633 882.648, 23.633 872.648, 23.633 862.648, 23.633 852.648, 23.633 842.648, 23.633 832.648, 23.633 822.648, 23.633 812.648, 23.633 802.648, 23.633 792.648, 23.633 782.648, 23.633 772.648, 23.633 762.648, 23.633 752.648, 23.633 742.648, 23.633 732.648, 23.633 722.648, 23.633 712.648, 23.633 702.648, 23.633 692.648, 23.633 682.648, 23.633 672.648, 23.633 662.648, 23.633 653.330, 23.633 650.219, 23.633 647.035, 23.633 643.790, 23.633 640.494, 23.633 637.159, 23.633 633.796, 23.633 630.419, 23.633 627.040, 23.633 623.671, 23.633 620.325, 23.633 617.016, 23.633 613.754, 23.633 610.554, 23.633 607.427, 23.633 604.386, 23.633 601.440, 23.633 598.602, 23.633 595.881, 23.633 593.287, 23.633 590.828, 23.633 588.512, 23.633 586.347, 23.633 584.338, 23.633 574.338, 23.633 564.338, 23.633 554.338, 23.633 544.338, 23.633 534.338, 23.633 524.338, 23.633 514.338, 23.633 504.338, 23.633 494.338, 23.633 484.338, 23.633 474.338, 23.633 464.338, 23.633 454.338, 23.633 444.338, 23.633 434.338, 23.633 424.338, 23.633 414.338, 23.633 404.338, 23.633 394.338, 23.633 384.338, 23.633 374.338, 23.633 370.105, 23.633 " />
            <path fill="none" stroke-width="3.0" stroke-linecap="butt" stroke-opacity="1.0" stroke="rgb(0, 0, 0)" stroke-linejoin="round" d=" M 23.585, 341.968 24.638, 351.912 25.691, 361.857 26.743, 371.801 27.796, 381.746 28.848, 391.690 29.901, 401.635 30.954, 411.579 32.006, 421.523 33.059, 431.468 34.112, 441.412 35.164, 451.357 36.217, 461.301 37.269, 471.246 38.322, 481.190 39.375, 491.135 40.427, 501.079 41.480, 511.023 42.532, 520.968 43.585, 530.912 44.638, 540.857 45.690, 550.801 46.743, 560.746 47.796, 570.690 48.848, 580.635 49.901, 590.579 50.953, 600.523 52.006, 610.468 53.059, 620.412 54.111, 630.357 55.164, 640.301 56.216, 650.246 57.269, 660.190 58.322, 670.135 59.374, 680.079 60.427, 690.023 61.479, 699.968 62.532, 709.912 63.585, 719.857 64.637, 729.801 65.690, 739.746 66.743, 749.690 67.795, 759.635 68.848, 769.579 69.900, 779.523 70.953, 789.468 72.006, 799.412 73.058, 809.357 74.111, 819.301 75.163, 829.246 76.216, 839.190 77.269, 849.135 78.321, 859.079 79.374, 869.023 80.426, 878.968 81.479, 888.912 82.532, 898.857 83.584, 908.801 84.637, 918.746 85.690, 928.690 86.742, 938.635 87.795, 948.579 88.847, 958.523 89.900, 968.468 90.997, 978.828 99.038, 984.773 107.079, 990.718 115.120, 996.663 123.161, 1002.608 131.202, 1008.553 139.243, 1014.497 147.284, 1020.442 155.325, 1026.387 163.366, 1032.332 171.407, 1038.277 179.448, 1044.222 187.489, 1050.167 195.530, 1056.112 203.571, 1062.057 211.612, 1068.001 219.653, 1073.946 227.694, 1079.891 235.735, 1085.836 243.776, 1091.781 251.817, 1097.726 259.858, 1103.671 267.900, 1109.616 275.941, 1115.561 283.982, 1121.505 292.023, 1127.450 300.064, 1133.395 308.105, 1139.340 316.146, 1145.285 324.187, 1151.230 332.228, 1157.175 340.269, 1163.120 348.310, 1169.064 356.351, 1175.009 364.392, 1180.954 372.433, 1186.899 380.474, 1192.844 388.515, 1198.789 396.556, 1204.734 404.597, 1210.679 408.248, 1213.378 418.248, 1213.378 428.248, 1213.378 438.248, 1213.378 448.248, 1213.378 458.248, 1213.378 468.248, 1213.378 478.248, 1213.378 488.248, 1213.378 498.248, 1213.378 508.248, 1213.378 518.248, 1213.378 528.248, 1213.378 538.248, 1213.378 548.248, 1213.378 558.248, 1213.378 568.248, 1213.378 578.248, 1213.378 588.248, 1213.378 598.248, 1213.378 608.248, 1213.378 618.248, 1213.378 628.248, 1213.378 638.248, 1213.378 648.248, 1213.378 658.248, 1213.378 668.248, 1213.378 678.248, 1213.378 688.248, 1213.378 698.248, 1213.378 708.248, 1213.378 717.103, 1213.378 719.395, 1213.378 721.842, 1213.378 724.433, 1213.378 727.160, 1213.378 730.015, 1213.378 732.987, 1213.378 736.066, 1213.378 739.239, 1213.378 742.496, 1213.378 745.825, 1213.378 749.211, 1213.378 752.643, 1213.378 756.107, 1213.378 759.591, 1213.378 763.082, 1213.378 766.565, 1213.378 770.030, 1213.378 773.462, 1213.378 783.462, 1213.378 793.462, 1213.378 803.462, 1213.378 813.462, 1213.378 823.462, 1213.378 833.462, 1213.378 843.462, 1213.378 853.462, 1213.378 863.462, 1213.378 873.462, 1213.378 884.342, 1213.378 887.744, 1213.378 891.137, 1213.378 894.509, 1213.378 897.848, 1213.378 901.140, 1213.378 904.378, 1213.378 907.549, 1213.378 910.643, 1213.378 913.653, 1213.378 916.569, 1213.378 919.384, 1213.378 929.384, 1213.378 939.384, 1213.378 949.384, 1213.378 959.384, 1213.378 969.384, 1213.378 979.384, 1213.378 989.384, 1213.378 999.384, 1213.378 1009.384, 1213.378 1019.384, 1213.378 1029.384, 1213.378 1039.384, 1213.378 1049.384, 1213.378 1054.415, 1213.378 " />
            <path fill="none" stroke-width="3.0" stroke-linecap="butt" stroke-opacity="1.0" stroke="rgb(0, 0, 0)" stroke-linejoin="round" d=" M 370.105, 23.633 362.741, 30.398 355.377, 37.164 348.013, 43.929 340.648, 50.694 333.284, 57.459 325.920, 64.224 318.556, 70.990 311.192, 77.755 303.827, 84.520 296.463, 91.285 289.099, 98.051 281.735, 104.816 274.371, 111.581 267.006, 118.346 259.642, 125.111 252.278, 131.877 244.914, 138.642 237.549, 145.407 230.185, 152.172 222.821, 158.938 215.457, 165.703 208.093, 172.468 200.728, 179.233 193.364, 185.999 186.000, 192.764 178.636, 199.529 171.271, 206.294 163.907, 213.059 156.543, 219.825 149.179, 226.590 141.815, 233.355 134.450, 240.120 127.086, 246.886 119.722, 253.651 112.358, 260.416 104.994, 267.181 97.629, 273.946 90.265, 280.712 82.901, 287.477 75.537, 294.242 68.172, 301.007 60.808, 307.773 53.444, 314.538 46.080, 321.303 38.716, 328.068 31.351, 334.834 23.585, 341.968 " />
            <path fill="none" stroke-width="3.0" stroke-linecap="butt" stroke-opacity="1.0" stroke="rgb(0, 0, 0)" stroke-linejoin="round" d=" M 977.990, 744.663 973.585, 735.685 969.180, 726.708 964.775, 717.730 960.370, 708.753 955.965, 699.775 951.560, 690.797 947.155, 681.820 942.750, 672.842 938.345, 663.865 933.940, 654.887 929.535, 645.910 925.130, 636.932 920.725, 627.955 916.320, 618.977 911.915, 610.000 907.510, 601.022 903.104, 592.045 898.700, 583.067 894.294, 574.090 889.889, 565.112 885.484, 556.135 881.079, 547.157 876.674, 538.180 872.269, 529.202 867.864, 520.225 864.261, 512.881 " />
            <path fill="none" stroke-width="3.0" stroke-linecap="butt" stroke-opacity="1.0" stroke="rgb(0, 0, 0)" stroke-linejoin="round" d=" M 1054.415, 1213.378 1052.805, 1203.508 1051.196, 1193.638 1049.587, 1183.769 1047.978, 1173.899 1046.368, 1164.029 1044.759, 1154.160 1043.150, 1144.290 1041.540, 1134.420 1039.931, 1124.551 1038.322, 1114.681 1036.713, 1104.811 1035.103, 1094.942 1033.494, 1085.072 1031.885, 1075.202 1030.276, 1065.333 1028.666, 1055.463 1027.057, 1045.593 1025.448, 1035.724 1023.839, 1025.854 1022.229, 1015.984 1020.620, 1006.115 1019.011, 996.245 1017.401, 986.375 1015.792, 976.506 1014.183, 966.636 1012.574, 956.766 1010.964, 946.897 1009.355, 937.027 1007.746, 927.157 1006.137, 917.288 1004.527, 907.418 1002.918, 897.548 1001.309, 887.679 999.700, 877.809 998.090, 867.939 996.481, 858.070 994.872, 848.200 993.262, 838.330 991.653, 828.461 990.044, 818.591 988.435, 808.721 986.825, 798.852 985.216, 788.982 983.607, 779.112 981.998, 769.243 980.388, 759.373 978.779, 749.503 977.990, 744.663 " />
        </g>
    </g>
<g id="slice-labels"><text x="539.0" y="321.06924999999995" text-anchor="middle" dominant-baseline="middle" font-family="Arial, sans-serif" font-size="59.069421172604685" font-weight="bold" fill="black" stroke="none" stroke-width="7.088330540712562" paint-order="stroke fill">Slice1 (Front)</text><text x="539.0" y="915.94175" text-anchor="middle" dominant-baseline="middle" font-family="Arial, sans-serif" font-size="59.069421172604685" font-weight="bold" fill="black" stroke="none" stroke-width="7.088330540712562" paint-order="stroke fill">Slice1 (Front)</text></g></svg>