<?xml version='1.0' encoding='utf-8'?>
<svg xmlns="http://www.w3.org/2000/svg" xmlns:inkscape="http://www.inkscape.org/namespaces/inkscape" version="1.1" width="275.7626905068755mm" height="198.9526071548462mm" viewBox="-0.13471371885418648 0.0052789981979728395 3257.269427437708 2350.0004420036043" preserveAspectRatio="none">
    <g id="ViewLayer_LineSet" inkscape:groupmode="lineset" inkscape:label="ViewLayer_LineSet">
        <g inkscape:groupmode="layer" id="strokes" inkscape:label="strokes">
            <path fill="none" stroke-width="3.0" stroke-linecap="butt" stroke-opacity="1.0" stroke="rgb(0, 0, 0)" stroke-linejoin="round" d=" M 1439.053, 1387.436 1436.534, 1384.854 1434.147, 1382.149 1431.898, 1379.328 1429.792, 1376.400 1427.835, 1373.370 1426.031, 1370.246 1424.386, 1367.036 1422.902, 1363.747 1421.584, 1360.390 1420.435, 1356.970 1419.458, 1353.497 1418.656, 1349.980 1418.029, 1346.428 1417.581, 1342.848 1417.311, 1339.252 1417.221, 1335.645 1417.311, 1332.039 1417.581, 1328.442 1418.029, 1324.862 1418.656, 1321.310 1419.458, 1317.793 1420.435, 1314.320 1421.584, 1310.901 1422.902, 1307.542 1424.386, 1304.254 1426.031, 1301.045 1427.835, 1297.920 1429.792, 1294.890 1431.898, 1291.961 1434.147, 1289.141 1436.534, 1286.436 1439.053, 1283.854 1441.697, 1281.400 1444.461, 1279.081 1447.336, 1276.903 1450.317, 1274.871 1453.395, 1272.990 1456.563, 1271.265 1459.813, 1269.700 1463.137, 1268.298 1466.527, 1267.065 1469.974, 1266.001 1473.470, 1265.111 1477.006, 1264.396 1480.573, 1263.859 1484.162, 1263.499 1487.765, 1263.320 1491.373, 1263.320 1494.975, 1263.499 1498.565, 1263.859 1502.132, 1264.396 1505.668, 1265.111 1509.164, 1266.001 1512.610, 1267.065 1516.000, 1268.298 1519.324, 1269.700 1522.574, 1271.265 1525.742, 1272.990 1528.821, 1274.871 1531.801, 1276.903 1534.677, 1279.081 1537.440, 1281.400 1540.084, 1283.854 1542.603, 1286.436 1544.990, 1289.141 1547.239, 1291.961 1549.345, 1294.890 1551.302, 1297.920 1553.106, 1301.045 1554.752, 1304.254 1556.235, 1307.542 1557.553, 1310.901 1558.702, 1314.320 1559.679, 1317.793 1560.482, 1321.310 1561.108, 1324.862 1561.557, 1328.442 1561.826, 1332.039 1561.916, 1335.645 1561.826, 1339.252 1561.557, 1342.848 1561.108, 1346.428 1560.482, 1349.980 1559.679, 1353.497 1558.702, 1356.970 1557.553, 1360.390 1556.235, 1363.747 1554.752, 1367.036 1553.106, 1370.246 1551.302, 1373.370 1549.345, 1376.400 1547.239, 1379.328 1544.990, 1382.149 1542.603, 1384.854 1540.084, 1387.436 1537.440, 1389.890 1534.677, 1392.209 1531.801, 1394.386 1528.821, 1396.419 1525.742, 1398.300 1522.574, 1400.025 1519.324, 1401.590 1516.000, 1402.991 1512.610, 1404.225 1509.164, 1405.289 1505.668, 1406.178 1502.132, 1406.894 1498.565, 1407.432 1494.975, 1407.791 1491.373, 1407.970 1487.765, 1407.970 1484.162, 1407.791 1480.573, 1407.432 1477.006, 1406.894 1473.470, 1406.178 1469.974, 1405.289 1466.527, 1404.225 1463.137, 1402.991 1459.813, 1401.590 1456.563, 1400.025 1453.395, 1398.300 1450.317, 1396.419 1447.336, 1394.386 1444.461, 1392.209 1441.697, 1389.890 1439.053, 1387.436 " />
            <path fill="none" stroke-width="3.0" stroke-linecap="butt" stroke-opacity="1.0" stroke="rgb(0, 0, 0)" stroke-linejoin="round" d=" M 285.723, 1480.502 281.503, 1489.568 277.283, 1498.634 273.063, 1507.700 268.843, 1516.766 264.623, 1525.832 260.403, 1534.898 256.183, 1543.964 251.963, 1553.030 247.743, 1562.096 243.523, 1571.162 239.303, 1580.228 235.083, 1589.294 230.863, 1598.360 226.643, 1607.426 222.423, 1616.492 218.203, 1625.558 213.983, 1634.624 209.763, 1643.690 205.544, 1652.755 201.324, 1661.821 197.104, 1670.887 192.884, 1679.953 188.664, 1689.019 184.444, 1698.085 181.319, 1704.798 180.741, 1714.782 180.164, 1724.765 179.586, 1734.748 179.009, 1744.732 178.431, 1754.715 177.854, 1764.698 177.276, 1774.682 176.699, 1784.665 176.121, 1794.648 175.544, 1804.631 174.966, 1814.615 174.389, 1824.598 173.811, 1834.581 173.234, 1844.565 172.656, 1854.548 172.060, 1864.864 " />
            <path fill="none" stroke-width="3.0" stroke-linecap="butt" stroke-opacity="1.0" stroke="rgb(0, 0, 0)" stroke-linejoin="round" d=" M 833.370, 23.629 823.370, 23.629 813.370, 23.629 803.370, 23.629 793.370, 23.629 783.370, 23.629 773.370, 23.629 763.370, 23.629 753.370, 23.629 743.370, 23.629 733.370, 23.629 723.370, 23.629 713.370, 23.629 703.370, 23.629 693.370, 23.629 683.370, 23.629 673.370, 23.629 663.370, 23.629 653.370, 23.629 643.370, 23.629 633.370, 23.629 623.370, 23.629 613.370, 23.629 603.370, 23.629 593.370, 23.629 590.888, 23.629 587.907, 33.175 584.927, 42.720 581.946, 52.266 578.966, 61.811 575.985, 71.357 573.004, 80.902 570.024, 90.448 567.043, 99.993 564.062, 109.539 561.082, 119.084 558.101, 128.629 555.121, 138.175 552.140, 147.720 549.159, 157.266 546.179, 166.811 543.198, 176.357 540.218, 185.902 537.237, 195.448 534.256, 204.993 531.276, 214.539 528.295, 224.084 525.315, 233.630 522.334, 243.175 519.353, 252.720 516.373, 262.266 513.392, 271.812 510.412, 281.357 507.431, 290.902 504.450, 300.448 501.470, 309.993 498.489, 319.539 495.509, 329.084 492.528, 338.630 489.547, 348.175 486.567, 357.721 483.586, 367.266 480.605, 376.812 477.625, 386.357 474.644, 395.903 471.664, 405.448 468.683, 414.994 465.702, 424.539 462.722, 434.084 459.741, 443.630 456.761, 453.175 453.780, 462.721 450.799, 472.266 447.819, 481.812 444.838, 491.357 441.858, 500.903 438.877, 510.448 435.896, 519.994 432.916, 529.539 429.935, 539.085 426.955, 548.630 423.974, 558.176 420.993, 567.721 418.013, 577.266 415.032, 586.812 412.052, 596.357 409.071, 605.903 406.090, 615.448 403.110, 624.994 400.129, 634.539 397.148, 644.085 394.168, 653.630 391.187, 663.176 388.207, 672.721 385.226, 682.267 382.245, 691.812 379.265, 701.358 376.284, 710.903 373.304, 720.448 370.323, 729.994 367.342, 739.539 364.362, 749.085 361.381, 758.630 358.401, 768.176 355.420, 777.721 352.439, 787.267 349.459, 796.812 346.478, 806.358 343.498, 815.903 338.770, 831.043 " />
            <path fill="none" stroke-width="3.0" stroke-linecap="butt" stroke-opacity="1.0" stroke="rgb(0, 0, 0)" stroke-linejoin="round" d=" M 2793.829, 1448.397 2790.583, 1438.938 2787.338, 1429.480 2784.092, 1420.021 2780.847, 1410.562 2777.601, 1401.103 2774.356, 1391.645 2771.111, 1382.186 2767.865, 1372.727 2764.620, 1363.269 2761.374, 1353.810 2758.129, 1344.351 2754.883, 1334.893 2751.638, 1325.434 2748.392, 1315.975 2745.147, 1306.516 2741.902, 1297.058 2738.656, 1287.599 2735.411, 1278.140 2732.165, 1268.682 2728.920, 1259.223 2725.674, 1249.764 2722.429, 1240.305 2719.183, 1230.847 2715.938, 1221.388 2712.693, 1211.929 2709.447, 1202.471 2707.954, 1198.119 2705.278, 1188.484 2702.602, 1178.849 2699.926, 1169.214 2697.250, 1159.578 2694.574, 1149.943 2691.897, 1140.308 2689.221, 1130.672 2686.545, 1121.037 2683.869, 1111.402 2681.193, 1101.767 2678.517, 1092.131 2675.841, 1082.496 2673.165, 1072.861 2670.489, 1063.225 2667.813, 1053.590 2665.136, 1043.955 2662.460, 1034.320 2659.784, 1024.684 2657.108, 1015.049 2654.432, 1005.414 2651.756, 995.779 2649.080, 986.143 2646.404, 976.508 2643.728, 966.873 2641.052, 957.237 2638.375, 947.602 2635.699, 937.967 2633.023, 928.332 2630.347, 918.696 2627.671, 909.061 2624.291, 896.889 2620.967, 887.457 2617.643, 878.026 2614.319, 868.594 2610.996, 859.163 2607.672, 849.731 2604.348, 840.300 2601.025, 830.868 2597.701, 821.437 2594.377, 812.005 2591.054, 802.574 2587.730, 793.142 2584.406, 783.711 2581.083, 774.279 2577.759, 764.848 2574.435, 755.416 2571.112, 745.985 2567.788, 736.553 2564.464, 727.122 2561.141, 717.690 2557.817, 708.259 2554.493, 698.827 2551.170, 689.396 2547.846, 679.964 2544.522, 670.533 2541.199, 661.101 2537.875, 651.670 2534.551, 642.238 2531.228, 632.807 2527.904, 623.375 2524.580, 613.944 2521.257, 604.512 2517.933, 595.081 2514.609, 585.649 2511.286, 576.218 2507.962, 566.786 2504.638, 557.355 2501.315, 547.923 2497.991, 538.492 2494.667, 529.060 2491.344, 519.629 2488.020, 510.197 2484.696, 500.766 2481.373, 491.334 2478.049, 481.903 2474.725, 472.471 2471.402, 463.040 2468.078, 453.608 2464.754, 444.177 2461.431, 434.745 2458.107, 425.314 2454.783, 415.882 2451.459, 406.451 2448.778, 398.842 2444.629, 389.743 2440.480, 380.645 2436.331, 371.546 2432.182, 362.447 2428.033, 353.349 2423.884, 344.250 2419.735, 335.151 2416.163, 327.318 2409.746, 319.649 2403.329, 311.980 2396.911, 304.311 2390.494, 296.641 2384.076, 288.972 2377.659, 281.303 2371.242, 273.634 2364.824, 265.965 2358.407, 258.295 2351.990, 250.626 2345.572, 242.957 2339.155, 235.288 2332.737, 227.618 2326.320, 219.949 2319.902, 212.280 2313.485, 204.611 2307.068, 196.941 2300.650, 189.272 2294.233, 181.603 2287.815, 173.934 2281.398, 166.265 2274.981, 158.595 2268.563, 150.926 2262.146, 143.257 2255.729, 135.588 2249.311, 127.918 2242.894, 120.249 2236.476, 112.580 2230.059, 104.911 2223.642, 97.242 2217.224, 89.572 2210.807, 81.903 2204.389, 74.234 2197.972, 66.565 2191.554, 58.896 2185.137, 51.226 2178.720, 43.557 2172.302, 35.888 2165.885, 28.219 2162.045, 23.629 " />
            <path fill="none" stroke-width="3.0" stroke-linecap="butt" stroke-opacity="1.0" stroke="rgb(0, 0, 0)" stroke-linejoin="round" d=" M 3176.735, 2153.381 3170.786, 2145.342 3164.838, 2137.304 3158.889, 2129.266 3152.941, 2121.227 3146.992, 2113.189 3141.043, 2105.151 3135.095, 2097.113 3129.146, 2089.074 3123.198, 2081.036 3117.249, 2072.998 3111.301, 2064.959 3105.352, 2056.921 3099.403, 2048.883 3093.455, 2040.844 3087.506, 2032.806 3081.558, 2024.768 3075.609, 2016.730 3069.660, 2008.691 3063.712, 2000.653 3057.763, 1992.615 3051.814, 1984.576 3045.866, 1976.538 3039.917, 1968.500 3033.969, 1960.461 3028.020, 1952.423 3022.072, 1944.385 3016.123, 1936.347 3010.174, 1928.308 3004.226, 1920.270 2998.277, 1912.232 2992.329, 1904.193 2986.380, 1896.155 2980.431, 1888.117 2974.483, 1880.079 2968.534, 1872.040 2962.586, 1864.002 2955.553, 1854.499 2952.673, 1844.922 2949.793, 1835.346 2946.913, 1825.770 2944.032, 1816.194 2941.153, 1806.617 2938.272, 1797.041 2935.392, 1787.465 2932.512, 1777.889 2929.632, 1768.312 2926.752, 1758.736 2923.872, 1749.160 2920.992, 1739.583 2918.112, 1730.007 2915.232, 1720.431 2912.352, 1710.855 2909.471, 1701.278 2906.591, 1691.702 2903.711, 1682.126 2900.763, 1672.322 2896.453, 1663.298 2892.144, 1654.274 2887.835, 1645.250 2883.525, 1636.226 2879.216, 1627.202 2874.907, 1618.179 2870.598, 1609.155 2866.288, 1600.131 2861.979, 1591.107 2857.670, 1582.083 2853.360, 1573.059 2849.051, 1564.035 2844.742, 1555.012 2840.433, 1545.988 2836.123, 1536.964 2831.814, 1527.940 2827.505, 1518.916 2823.195, 1509.892 2818.886, 1500.868 2814.577, 1491.845 2810.267, 1482.821 2805.958, 1473.797 2801.649, 1464.773 2797.340, 1455.749 2793.829, 1448.397 " />
            <path fill="none" stroke-width="3.0" stroke-linecap="butt" stroke-opacity="1.0" stroke="rgb(0, 0, 0)" stroke-linejoin="round" d=" M 993.643, 1623.500 991.700, 1621.696 989.849, 1619.799 988.096, 1617.812 " />
            <path fill="none" stroke-width="3.0" stroke-linecap="butt" stroke-opacity="1.0" stroke="rgb(0, 0, 0)" stroke-linejoin="round" d=" M 1006.952, 1632.096 1004.564, 1630.945 1002.237, 1629.678 999.975, 1628.296 997.785, 1626.804 995.673, 1625.203 993.643, 1623.500 " />
            <path fill="none" stroke-width="3.0" stroke-linecap="butt" stroke-opacity="1.0" stroke="rgb(0, 0, 0)" stroke-linejoin="round" d=" M 983.458, 1611.362 982.133, 1609.067 980.924, 1606.708 979.834, 1604.293 978.865, 1601.825 978.022, 1599.313 " />
            <path fill="none" stroke-width="3.0" stroke-linecap="butt" stroke-opacity="1.0" stroke="rgb(0, 0, 0)" stroke-linejoin="round" d=" M 23.489, 2326.382 33.489, 2326.382 43.489, 2326.382 53.489, 2326.382 63.489, 2326.382 73.489, 2326.382 83.489, 2326.382 93.489, 2326.381 103.489, 2326.381 113.489, 2326.381 116.997, 2326.381 126.997, 2326.381 136.997, 2326.381 146.997, 2326.381 156.997, 2326.381 166.997, 2326.381 176.997, 2326.381 186.997, 2326.380 196.997, 2326.380 206.997, 2326.380 216.997, 2326.380 226.997, 2326.380 236.997, 2326.380 246.997, 2326.380 256.997, 2326.380 266.997, 2326.379 276.997, 2326.379 286.997, 2326.379 296.997, 2326.379 306.997, 2326.379 316.997, 2326.379 326.997, 2326.379 336.997, 2326.379 346.997, 2326.378 356.997, 2326.378 366.997, 2326.378 376.997, 2326.378 386.997, 2326.378 396.997, 2326.378 406.997, 2326.378 416.997, 2326.378 426.997, 2326.377 436.997, 2326.377 446.997, 2326.377 456.997, 2326.377 466.997, 2326.377 476.997, 2326.377 486.997, 2326.377 496.997, 2326.377 506.997, 2326.376 516.997, 2326.376 526.997, 2326.376 536.997, 2326.376 546.997, 2326.376 556.997, 2326.376 566.997, 2326.376 576.997, 2326.376 586.997, 2326.375 596.997, 2326.375 606.997, 2326.375 616.997, 2326.375 626.997, 2326.375 636.997, 2326.375 646.997, 2326.375 656.997, 2326.375 666.997, 2326.374 676.997, 2326.374 686.997, 2326.374 696.997, 2326.374 706.997, 2326.374 716.997, 2326.374 726.997, 2326.374 736.997, 2326.374 746.997, 2326.373 756.997, 2326.373 766.997, 2326.373 776.997, 2326.373 786.997, 2326.373 796.997, 2326.373 806.997, 2326.373 816.997, 2326.373 826.997, 2326.372 836.997, 2326.372 846.997, 2326.372 856.997, 2326.372 866.997, 2326.372 876.997, 2326.372 886.997, 2326.372 896.997, 2326.372 906.997, 2326.371 916.997, 2326.371 926.997, 2326.371 936.997, 2326.371 946.997, 2326.371 956.997, 2326.371 966.997, 2326.371 976.997, 2326.371 986.997, 2326.370 996.997, 2326.370 1006.997, 2326.370 1016.997, 2326.370 1026.997, 2326.370 1036.997, 2326.370 1046.997, 2326.370 1056.997, 2326.370 1066.997, 2326.369 1076.997, 2326.369 1086.997, 2326.369 1096.997, 2326.369 1106.997, 2326.369 1116.997, 2326.369 1126.997, 2326.369 1136.997, 2326.369 1146.997, 2326.368 1156.997, 2326.368 1166.997, 2326.368 1176.997, 2326.368 1186.997, 2326.368 1196.997, 2326.368 1206.997, 2326.368 1216.997, 2326.368 1226.997, 2326.367 1236.997, 2326.367 1250.275, 2326.367 " />
            <path fill="none" stroke-width="3.0" stroke-linecap="butt" stroke-opacity="1.0" stroke="rgb(0, 0, 0)" stroke-linejoin="round" d=" M 1022.204, 1636.387 1019.583, 1635.992 1016.986, 1635.466 1014.417, 1634.812 1011.885, 1634.032 1009.394, 1633.125 " />
            <path fill="none" stroke-width="3.0" stroke-linecap="butt" stroke-opacity="1.0" stroke="rgb(0, 0, 0)" stroke-linejoin="round" d=" M 116.997, 2326.381 117.001, 2326.381 117.524, 2326.309 " />
            <path fill="none" stroke-width="3.0" stroke-linecap="butt" stroke-opacity="1.0" stroke="rgb(0, 0, 0)" stroke-linejoin="round" d=" M 978.022, 1599.313 977.304, 1596.762 976.714, 1594.178 976.254, 1591.569 975.924, 1588.938 975.726, 1586.295 975.660, 1583.646 975.726, 1580.997 975.924, 1578.354 " />
            <path fill="none" stroke-width="3.0" stroke-linecap="butt" stroke-opacity="1.0" stroke="rgb(0, 0, 0)" stroke-linejoin="round" d=" M 117.524, 2326.309 117.942, 2326.309 118.344, 2326.309 118.728, 2326.309 " />
            <path fill="none" stroke-width="3.0" stroke-linecap="butt" stroke-opacity="1.0" stroke="rgb(0, 0, 0)" stroke-linejoin="round" d=" M 118.728, 2326.309 119.094, 2326.310 119.440, 2326.310 " />
            <path fill="none" stroke-width="3.0" stroke-linecap="butt" stroke-opacity="1.0" stroke="rgb(0, 0, 0)" stroke-linejoin="round" d=" M 1038.043, 1635.992 1035.423, 1636.387 1032.786, 1636.651 1030.138, 1636.783 1027.488, 1636.783 " />
            <path fill="none" stroke-width="3.0" stroke-linecap="butt" stroke-opacity="1.0" stroke="rgb(0, 0, 0)" stroke-linejoin="round" d=" M 119.440, 2326.310 119.765, 2326.310 120.086, 2326.343 " />
            <path fill="none" stroke-width="3.0" stroke-linecap="butt" stroke-opacity="1.0" stroke="rgb(0, 0, 0)" stroke-linejoin="round" d=" M 120.086, 2326.343 130.086, 2326.344 140.086, 2326.344 150.086, 2326.344 160.086, 2326.344 170.086, 2326.344 180.086, 2326.345 190.086, 2326.345 200.086, 2326.345 210.086, 2326.345 220.086, 2326.346 230.086, 2326.346 240.086, 2326.346 250.086, 2326.346 260.086, 2326.346 270.086, 2326.347 280.086, 2326.347 290.086, 2326.347 300.086, 2326.347 310.086, 2326.347 320.086, 2326.348 330.086, 2326.348 340.086, 2326.348 350.086, 2326.348 360.086, 2326.348 370.086, 2326.349 380.086, 2326.349 390.086, 2326.349 400.086, 2326.349 410.086, 2326.350 420.086, 2326.350 430.086, 2326.350 440.086, 2326.350 450.086, 2326.350 460.086, 2326.351 470.086, 2326.351 480.086, 2326.351 490.086, 2326.351 500.086, 2326.351 510.086, 2326.352 520.086, 2326.352 530.086, 2326.352 540.086, 2326.352 550.086, 2326.352 560.086, 2326.353 570.086, 2326.353 580.086, 2326.353 590.086, 2326.353 600.086, 2326.354 610.086, 2326.354 620.086, 2326.354 630.086, 2326.354 640.086, 2326.354 650.086, 2326.355 660.086, 2326.355 670.086, 2326.355 680.086, 2326.355 690.086, 2326.355 700.086, 2326.356 710.086, 2326.356 720.086, 2326.356 730.086, 2326.356 740.086, 2326.356 750.086, 2326.357 760.086, 2326.357 770.086, 2326.357 780.086, 2326.357 790.086, 2326.358 800.086, 2326.358 810.086, 2326.358 820.086, 2326.358 830.086, 2326.358 840.086, 2326.359 850.086, 2326.359 860.086, 2326.359 870.086, 2326.359 880.086, 2326.359 890.086, 2326.360 900.086, 2326.360 910.086, 2326.360 920.086, 2326.360 930.086, 2326.360 940.086, 2326.361 950.086, 2326.361 960.086, 2326.361 970.086, 2326.361 980.086, 2326.362 990.086, 2326.362 1000.086, 2326.362 1010.086, 2326.362 1020.086, 2326.362 1030.086, 2326.363 1040.086, 2326.363 1050.086, 2326.363 1060.086, 2326.363 1070.086, 2326.363 1080.086, 2326.364 1090.086, 2326.364 1100.086, 2326.364 1110.086, 2326.364 1120.086, 2326.364 1130.086, 2326.365 1140.086, 2326.365 1150.086, 2326.365 1160.086, 2326.365 1170.086, 2326.365 1180.086, 2326.366 1190.086, 2326.366 1200.086, 2326.366 1210.086, 2326.366 1220.086, 2326.367 1230.086, 2326.367 1241.307, 2326.367 1249.515, 2326.367 " />
            <path fill="none" stroke-width="3.0" stroke-linecap="butt" stroke-opacity="1.0" stroke="rgb(0, 0, 0)" stroke-linejoin="round" d=" M 1249.515, 2326.367 1250.275, 2326.367 " />
            <path fill="none" stroke-width="3.0" stroke-linecap="butt" stroke-opacity="1.0" stroke="rgb(0, 0, 0)" stroke-linejoin="round" d=" M 975.924, 1578.354 976.254, 1575.724 " />
            <path fill="none" stroke-width="3.0" stroke-linecap="butt" stroke-opacity="1.0" stroke="rgb(0, 0, 0)" stroke-linejoin="round" d=" M 1250.275, 2326.367 1251.358, 2326.367 1253.218, 2326.367 1255.088, 2326.367 1256.965, 2326.367 1258.842, 2326.367 1260.716, 2326.367 1262.581, 2326.367 1264.433, 2326.367 1266.265, 2326.367 1268.074, 2326.367 1269.855, 2326.367 " />
            <path fill="none" stroke-width="3.0" stroke-linecap="butt" stroke-opacity="1.0" stroke="rgb(0, 0, 0)" stroke-linejoin="round" d=" M 976.254, 1575.724 976.714, 1573.114 " />
            <path fill="none" stroke-width="3.0" stroke-linecap="butt" stroke-opacity="1.0" stroke="rgb(0, 0, 0)" stroke-linejoin="round" d=" M 976.714, 1573.114 977.304, 1570.530 978.022, 1567.978 978.865, 1565.467 " />
            <path fill="none" stroke-width="3.0" stroke-linecap="butt" stroke-opacity="1.0" stroke="rgb(0, 0, 0)" stroke-linejoin="round" d=" M 1069.531, 1617.812 1067.777, 1619.799 1065.927, 1621.696 1063.984, 1623.500 1061.954, 1625.203 1059.841, 1626.804 1057.652, 1628.296 1055.390, 1629.678 1053.062, 1630.945 1050.675, 1632.096 1048.232, 1633.125 1045.742, 1634.032 1043.209, 1634.812 1040.641, 1635.466 " />
            <path fill="none" stroke-width="3.0" stroke-linecap="butt" stroke-opacity="1.0" stroke="rgb(0, 0, 0)" stroke-linejoin="round" d=" M 978.865, 1565.467 979.834, 1562.999 " />
            <path fill="none" stroke-width="3.0" stroke-linecap="butt" stroke-opacity="1.0" stroke="rgb(0, 0, 0)" stroke-linejoin="round" d=" M 979.834, 1562.999 980.924, 1560.584 " />
            <path fill="none" stroke-width="3.0" stroke-linecap="butt" stroke-opacity="1.0" stroke="rgb(0, 0, 0)" stroke-linejoin="round" d=" M 980.924, 1560.584 982.133, 1558.225 " />
            <path fill="none" stroke-width="3.0" stroke-linecap="butt" stroke-opacity="1.0" stroke="rgb(0, 0, 0)" stroke-linejoin="round" d=" M 982.133, 1558.225 983.458, 1555.930 " />
            <path fill="none" stroke-width="3.0" stroke-linecap="butt" stroke-opacity="1.0" stroke="rgb(0, 0, 0)" stroke-linejoin="round" d=" M 983.458, 1555.930 984.896, 1553.704 986.443, 1551.552 988.096, 1549.480 " />
            <path fill="none" stroke-width="3.0" stroke-linecap="butt" stroke-opacity="1.0" stroke="rgb(0, 0, 0)" stroke-linejoin="round" d=" M 988.096, 1549.480 989.849, 1547.492 991.700, 1545.596 993.643, 1543.792 995.673, 1542.089 997.785, 1540.488 " />
            <path fill="none" stroke-width="3.0" stroke-linecap="butt" stroke-opacity="1.0" stroke="rgb(0, 0, 0)" stroke-linejoin="round" d=" M 1016.986, 1531.826 1019.583, 1531.300 1022.204, 1530.905 1024.841, 1530.641 1027.488, 1530.509 1030.138, 1530.509 1032.786, 1530.641 1035.423, 1530.905 1038.043, 1531.300 " />
            <path fill="none" stroke-width="3.0" stroke-linecap="butt" stroke-opacity="1.0" stroke="rgb(0, 0, 0)" stroke-linejoin="round" d=" M 1006.952, 1535.197 1009.394, 1534.168 1011.885, 1533.260 1014.417, 1532.479 1016.986, 1531.826 " />
            <path fill="none" stroke-width="3.0" stroke-linecap="butt" stroke-opacity="1.0" stroke="rgb(0, 0, 0)" stroke-linejoin="round" d=" M 1004.564, 1536.347 1006.952, 1535.197 " />
            <path fill="none" stroke-width="3.0" stroke-linecap="butt" stroke-opacity="1.0" stroke="rgb(0, 0, 0)" stroke-linejoin="round" d=" M 997.785, 1540.488 999.975, 1538.996 1002.237, 1537.614 1004.564, 1536.347 " />
            <path fill="none" stroke-width="3.0" stroke-linecap="butt" stroke-opacity="1.0" stroke="rgb(0, 0, 0)" stroke-linejoin="round" d=" M 1080.323, 1570.530 1080.913, 1573.114 1081.373, 1575.724 1081.703, 1578.354 1081.901, 1580.997 " />
            <path fill="none" stroke-width="3.0" stroke-linecap="butt" stroke-opacity="1.0" stroke="rgb(0, 0, 0)" stroke-linejoin="round" d=" M 1081.901, 1580.997 1081.967, 1583.646 " />
            <path fill="none" stroke-width="3.0" stroke-linecap="butt" stroke-opacity="1.0" stroke="rgb(0, 0, 0)" stroke-linejoin="round" d=" M 1059.841, 1540.488 1061.954, 1542.089 1063.984, 1543.792 1065.927, 1545.596 1067.777, 1547.492 1069.531, 1549.480 1071.184, 1551.552 1072.731, 1553.704 1074.169, 1555.930 1075.494, 1558.225 1076.703, 1560.584 1077.793, 1562.999 1078.761, 1565.467 1079.605, 1567.978 1080.323, 1570.530 " />
            <path fill="none" stroke-width="3.0" stroke-linecap="butt" stroke-opacity="1.0" stroke="rgb(0, 0, 0)" stroke-linejoin="round" d=" M 1081.703, 1588.938 1081.373, 1591.569 1080.913, 1594.178 1080.323, 1596.762 1079.605, 1599.313 " />
            <path fill="none" stroke-width="3.0" stroke-linecap="butt" stroke-opacity="1.0" stroke="rgb(0, 0, 0)" stroke-linejoin="round" d=" M 1078.761, 1601.825 1077.793, 1604.293 1076.703, 1606.708 1075.494, 1609.067 1074.169, 1611.362 " />
            <path fill="none" stroke-width="3.0" stroke-linecap="butt" stroke-opacity="1.0" stroke="rgb(0, 0, 0)" stroke-linejoin="round" d=" M 1074.169, 1611.362 1072.731, 1613.588 1071.184, 1615.740 1069.531, 1617.812 " />
            <path fill="none" stroke-width="3.0" stroke-linecap="butt" stroke-opacity="1.0" stroke="rgb(0, 0, 0)" stroke-linejoin="round" d=" M 1038.043, 1531.300 1040.641, 1531.826 1043.209, 1532.479 1045.742, 1533.260 1048.232, 1534.168 1050.675, 1535.197 1053.062, 1536.347 1055.390, 1537.614 1057.652, 1538.996 1059.841, 1540.488 " />
            <path fill="none" stroke-width="3.0" stroke-linecap="butt" stroke-opacity="1.0" stroke="rgb(0, 0, 0)" stroke-linejoin="round" d=" M 1582.922, 2326.363 1585.343, 2326.363 1586.248, 2326.363 1589.548, 2326.363 1589.636, 2326.363 " />
            <path fill="none" stroke-width="3.0" stroke-linecap="butt" stroke-opacity="1.0" stroke="rgb(0, 0, 0)" stroke-linejoin="round" d=" M 1590.259, 2326.363 1592.811, 2326.363 1596.029, 2326.363 1606.029, 2326.363 1616.029, 2326.363 1626.029, 2326.363 1636.029, 2326.362 1646.029, 2326.362 1656.029, 2326.362 1666.029, 2326.362 1676.029, 2326.362 1686.029, 2326.362 1696.029, 2326.362 1706.029, 2326.362 1716.029, 2326.361 1726.029, 2326.361 1736.029, 2326.361 1746.029, 2326.361 1756.029, 2326.361 1766.029, 2326.361 1776.029, 2326.361 1786.029, 2326.361 1796.029, 2326.360 1806.029, 2326.360 1816.029, 2326.360 1826.029, 2326.360 1836.029, 2326.360 1846.029, 2326.360 1856.029, 2326.360 1866.029, 2326.360 1876.029, 2326.359 1886.029, 2326.359 1896.029, 2326.359 1906.029, 2326.359 1916.029, 2326.359 1926.029, 2326.359 1936.029, 2326.359 1946.029, 2326.359 1956.029, 2326.358 1966.029, 2326.358 1976.029, 2326.358 1986.029, 2326.358 1996.029, 2326.358 2006.029, 2326.358 2016.029, 2326.358 2026.029, 2326.358 2036.029, 2326.357 2046.029, 2326.357 2056.029, 2326.357 2066.029, 2326.357 2076.029, 2326.357 2086.029, 2326.357 2096.029, 2326.357 2106.029, 2326.357 2116.029, 2326.356 2126.029, 2326.356 2136.029, 2326.356 2146.029, 2326.356 2156.029, 2326.356 2166.029, 2326.356 2176.029, 2326.356 2186.029, 2326.356 2196.029, 2326.355 2206.029, 2326.355 2216.029, 2326.355 2226.029, 2326.355 2236.029, 2326.355 2246.029, 2326.355 2256.029, 2326.355 2266.029, 2326.355 2276.029, 2326.354 2286.029, 2326.354 2296.029, 2326.354 2306.029, 2326.354 2316.029, 2326.354 2326.029, 2326.354 2336.029, 2326.354 2346.029, 2326.354 2356.029, 2326.353 2366.029, 2326.353 2376.029, 2326.353 2386.029, 2326.353 2396.029, 2326.353 2406.029, 2326.353 2416.029, 2326.353 2426.029, 2326.353 2436.029, 2326.352 2446.029, 2326.352 2456.029, 2326.352 2466.029, 2326.352 2476.029, 2326.352 2486.029, 2326.352 2496.029, 2326.352 2506.029, 2326.352 2516.029, 2326.351 2526.029, 2326.351 2536.029, 2326.351 2546.029, 2326.351 2556.029, 2326.351 2566.029, 2326.351 2576.029, 2326.351 2586.029, 2326.351 2596.029, 2326.350 2606.029, 2326.350 2616.029, 2326.350 2626.029, 2326.350 2636.029, 2326.350 2646.029, 2326.350 2656.029, 2326.350 2666.029, 2326.350 2676.029, 2326.349 2686.029, 2326.349 2696.029, 2326.349 2706.029, 2326.349 2716.029, 2326.349 2726.029, 2326.349 2736.029, 2326.349 2746.029, 2326.349 2756.029, 2326.348 2766.029, 2326.348 2776.029, 2326.348 2786.029, 2326.348 2796.029, 2326.348 2806.029, 2326.348 2816.029, 2326.348 2826.029, 2326.348 2836.029, 2326.347 2846.029, 2326.347 2856.029, 2326.347 2866.029, 2326.347 2876.029, 2326.347 2886.029, 2326.347 2896.029, 2326.347 2906.029, 2326.347 2916.029, 2326.346 2926.029, 2326.346 2936.029, 2326.346 2946.029, 2326.346 2956.029, 2326.346 2966.029, 2326.346 2976.029, 2326.346 2986.029, 2326.346 2996.029, 2326.345 3006.029, 2326.345 3016.029, 2326.345 3026.029, 2326.345 3036.029, 2326.345 3046.029, 2326.345 3056.029, 2326.345 3066.029, 2326.345 3076.029, 2326.344 3086.029, 2326.344 3096.029, 2326.344 3106.029, 2326.344 3116.029, 2326.344 3126.029, 2326.344 3136.029, 2326.344 3146.029, 2326.344 3156.029, 2326.343 3166.029, 2326.343 3176.029, 2326.343 3186.029, 2326.343 3196.029, 2326.343 3206.029, 2326.343 3216.029, 2326.343 3233.511, 2326.343 3223.511, 2326.343 3213.511, 2326.343 3203.511, 2326.343 3193.511, 2326.343 3183.511, 2326.343 3173.511, 2326.343 3163.511, 2326.343 3153.511, 2326.344 3143.511, 2326.344 3133.511, 2326.344 3123.511, 2326.344 3113.511, 2326.344 3103.511, 2326.344 3093.511, 2326.344 3083.511, 2326.344 3073.511, 2326.345 3063.511, 2326.345 3053.511, 2326.345 3043.511, 2326.345 3033.511, 2326.345 3023.511, 2326.345 3013.511, 2326.345 3003.511, 2326.345 2993.511, 2326.345 2983.511, 2326.346 2973.511, 2326.346 2963.511, 2326.346 2953.511, 2326.346 2943.511, 2326.346 2933.511, 2326.346 2923.511, 2326.346 2913.511, 2326.346 2903.511, 2326.347 2893.511, 2326.347 2883.511, 2326.347 2873.511, 2326.347 2863.511, 2326.347 2853.511, 2326.347 2843.511, 2326.347 2833.511, 2326.347 2823.511, 2326.348 2813.511, 2326.348 2803.511, 2326.348 2793.511, 2326.348 2783.511, 2326.348 2773.511, 2326.348 2763.511, 2326.348 2753.511, 2326.348 2743.511, 2326.349 2733.511, 2326.349 2723.511, 2326.349 2713.511, 2326.349 2703.511, 2326.349 2693.511, 2326.349 2683.511, 2326.349 2673.511, 2326.349 2663.511, 2326.350 2653.511, 2326.350 2643.511, 2326.350 2633.511, 2326.350 2623.511, 2326.350 2613.511, 2326.350 2603.511, 2326.350 2593.511, 2326.350 2583.511, 2326.351 2573.511, 2326.351 2563.511, 2326.351 2553.511, 2326.351 2543.511, 2326.351 2533.511, 2326.351 2523.511, 2326.351 2513.511, 2326.351 2503.511, 2326.352 2493.511, 2326.352 2483.511, 2326.352 2473.511, 2326.352 2463.511, 2326.352 2453.511, 2326.352 2443.511, 2326.352 2433.511, 2326.352 2423.511, 2326.353 2413.511, 2326.353 2403.511, 2326.353 2393.511, 2326.353 2383.511, 2326.353 2373.511, 2326.353 2363.511, 2326.353 2353.511, 2326.353 2343.511, 2326.354 2333.511, 2326.354 2323.511, 2326.354 2313.511, 2326.354 2303.511, 2326.354 2293.511, 2326.354 2283.511, 2326.354 2273.511, 2326.354 2263.511, 2326.355 2253.511, 2326.355 2243.511, 2326.355 2233.511, 2326.355 2223.511, 2326.355 2213.511, 2326.355 2203.511, 2326.355 2193.511, 2326.355 2183.511, 2326.356 2173.511, 2326.356 2163.511, 2326.356 2153.511, 2326.356 2143.511, 2326.356 2133.511, 2326.356 2123.511, 2326.356 2113.511, 2326.356 2103.511, 2326.357 2093.511, 2326.357 2075.605, 2326.357 " />
            <path fill="none" stroke-width="3.0" stroke-linecap="butt" stroke-opacity="1.0" stroke="rgb(0, 0, 0)" stroke-linejoin="round" d=" M 1284.401, 487.927 1281.882, 485.344 1279.495, 482.640 1277.246, 479.819 1275.140, 476.891 1273.183, 473.860 1271.380, 470.736 1269.734, 467.526 1268.250, 464.238 1266.932, 460.880 1265.783, 457.460 1264.806, 453.987 1264.004, 450.471 1263.377, 446.918 1262.929, 443.339 1262.659, 439.742 1262.569, 436.136 1262.659, 432.530 1262.929, 428.932 1263.377, 425.353 1264.004, 421.800 1264.806, 418.283 1265.783, 414.810 1266.932, 411.391 1268.250, 408.033 1269.734, 404.745 1271.380, 401.535 1273.183, 398.411 1275.140, 395.380 1277.246, 392.452 1279.495, 389.632 1281.882, 386.927 1284.401, 384.344 1287.045, 381.891 1289.809, 379.572 1292.684, 377.394 1295.665, 375.361 1298.743, 373.480 1301.911, 371.755 1305.161, 370.190 1308.485, 368.789 1311.875, 367.555 1315.322, 366.492 1318.818, 365.602 1322.354, 364.887 1325.921, 364.349 1329.510, 363.990 1333.113, 363.810 1336.720, 363.810 1340.323, 363.990 1343.913, 364.349 1347.480, 364.887 1351.016, 365.602 1354.511, 366.492 1357.958, 367.555 1361.348, 368.789 1364.672, 370.190 1367.923, 371.755 1371.091, 373.480 1374.169, 375.361 1377.149, 377.394 1380.025, 379.572 1382.788, 381.891 1385.433, 384.344 1387.951, 386.927 1390.338, 389.632 1392.588, 392.452 1394.693, 395.380 1396.650, 398.411 1398.454, 401.535 1400.100, 404.745 1401.583, 408.033 1402.901, 411.391 1404.050, 414.810 1405.027, 418.283 1405.830, 421.800 1406.456, 425.353 1406.905, 428.932 1407.174, 432.530 1407.264, 436.136 1407.174, 439.742 1406.905, 443.339 1406.456, 446.918 1405.830, 450.471 1405.027, 453.987 1404.050, 457.460 1402.901, 460.880 1401.583, 464.238 1400.100, 467.526 1398.454, 470.736 1396.650, 473.860 1394.693, 476.891 1392.588, 479.819 1390.338, 482.640 1387.951, 485.344 1385.433, 487.927 1382.788, 490.381 1380.025, 492.699 1377.149, 494.877 1374.169, 496.909 1371.091, 498.791 1367.923, 500.515 1364.672, 502.081 1361.348, 503.482 1357.958, 504.716 1354.511, 505.780 1351.016, 506.669 1347.480, 507.384 1343.913, 507.922 1340.323, 508.281 1336.720, 508.461 1333.113, 508.461 1329.510, 508.281 1325.921, 507.922 1322.354, 507.384 1318.818, 506.669 1315.322, 505.780 1311.875, 504.716 1308.485, 503.482 1305.161, 502.081 1301.911, 500.515 1298.743, 498.791 1295.665, 496.909 1292.684, 494.877 1289.809, 492.699 1287.045, 490.381 1284.401, 487.927 " />
            <path fill="none" stroke-width="3.0" stroke-linecap="butt" stroke-opacity="1.0" stroke="rgb(0, 0, 0)" stroke-linejoin="round" d=" M 982.204, 23.629 972.204, 23.635 962.204, 23.641 952.204, 23.646 942.204, 23.652 932.204, 23.657 922.204, 23.663 912.204, 23.669 902.204, 23.674 892.204, 23.680 882.204, 23.685 872.204, 23.691 868.338, 23.693 866.537, 23.704 864.721, 23.704 862.889, 23.705 861.048, 23.705 859.203, 23.706 857.360, 23.706 855.526, 23.706 853.706, 23.707 851.905, 23.707 850.129, 23.708 848.382, 23.708 846.670, 23.708 844.997, 23.708 843.367, 23.709 841.784, 23.709 840.252, 23.709 838.773, 23.710 837.352, 23.710 835.990, 23.710 834.690, 23.711 833.370, 23.629 " />
            <path fill="none" stroke-width="3.0" stroke-linecap="butt" stroke-opacity="1.0" stroke="rgb(0, 0, 0)" stroke-linejoin="round" d=" M 1314.030, 23.629 1304.030, 23.631 1294.030, 23.633 1284.030, 23.635 1274.030, 23.636 1264.030, 23.638 1254.030, 23.639 1244.030, 23.641 1234.030, 23.643 1224.030, 23.645 1214.030, 23.646 1204.030, 23.648 1194.030, 23.650 1184.030, 23.651 1174.030, 23.653 1164.030, 23.655 1154.030, 23.656 1144.030, 23.658 1134.030, 23.660 1124.030, 23.662 1114.030, 23.663 1104.030, 23.665 1094.030, 23.667 1084.030, 23.668 1074.030, 23.670 1064.030, 23.672 1054.030, 23.674 1044.030, 23.675 1034.030, 23.677 1024.030, 23.678 1014.030, 23.680 1004.030, 23.682 994.030, 23.684 984.493, 23.685 982.204, 23.629 " />
            <path fill="none" stroke-width="3.0" stroke-linecap="butt" stroke-opacity="1.0" stroke="rgb(0, 0, 0)" stroke-linejoin="round" d=" M 1849.508, 2326.360 1859.508, 2326.360 1869.508, 2326.359 1872.142, 2326.359 1882.142, 2326.359 1892.142, 2326.359 1902.142, 2326.359 1912.142, 2326.359 1922.142, 2326.359 1932.142, 2326.359 1942.142, 2326.359 1952.142, 2326.358 1962.142, 2326.358 1972.142, 2326.358 1982.142, 2326.358 1992.142, 2326.358 2002.142, 2326.358 2009.834, 2326.358 2019.834, 2326.358 2029.834, 2326.357 2039.834, 2326.357 2049.834, 2326.357 2059.834, 2326.357 2069.834, 2326.357 2075.605, 2326.357 2085.605, 2326.357 2095.605, 2326.357 2105.605, 2326.356 2115.605, 2326.356 2125.605, 2326.356 2135.605, 2326.356 2145.605, 2326.356 2155.605, 2326.356 2165.605, 2326.356 2175.605, 2326.356 2185.605, 2326.355 2195.605, 2326.355 2205.605, 2326.355 2215.605, 2326.355 2225.605, 2326.355 2235.605, 2326.355 2245.605, 2326.355 2255.605, 2326.355 2265.605, 2326.354 2275.605, 2326.354 2285.605, 2326.354 2295.605, 2326.354 2305.605, 2326.354 2313.439, 2326.354 2323.439, 2326.354 2333.439, 2326.354 2343.439, 2326.353 2353.439, 2326.353 2363.439, 2326.353 2373.439, 2326.353 2383.439, 2326.353 2393.439, 2326.353 2403.439, 2326.353 2413.439, 2326.353 2423.439, 2326.352 2433.439, 2326.352 2443.439, 2326.352 2453.439, 2326.352 2463.439, 2326.352 2473.439, 2326.352 2483.439, 2326.352 2493.439, 2326.352 2503.439, 2326.351 2513.439, 2326.351 2523.439, 2326.351 2533.439, 2326.351 2543.439, 2326.351 2553.439, 2326.351 2563.439, 2326.351 2573.439, 2326.351 2583.439, 2326.350 2593.439, 2326.350 2603.439, 2326.350 2613.439, 2326.350 2623.439, 2326.350 2633.439, 2326.350 2643.439, 2326.350 2648.681, 2326.350 2658.681, 2326.349 2668.681, 2326.349 2678.681, 2326.349 2688.681, 2326.349 2698.681, 2326.349 2708.681, 2326.349 2718.681, 2326.349 2728.681, 2326.349 2738.681, 2326.348 2748.681, 2326.348 2758.681, 2326.348 2768.681, 2326.348 2778.681, 2326.348 2788.681, 2326.348 2798.681, 2326.348 2808.681, 2326.348 2818.681, 2326.347 2828.681, 2326.347 2838.681, 2326.347 2848.681, 2326.347 2858.681, 2326.347 2868.681, 2326.347 2878.681, 2326.347 2888.681, 2326.347 2898.681, 2326.346 2908.681, 2326.346 2918.681, 2326.346 2928.681, 2326.346 2938.681, 2326.346 2948.681, 2326.346 2958.681, 2326.346 2968.681, 2326.346 2978.681, 2326.345 2988.681, 2326.345 2998.681, 2326.345 3008.681, 2326.345 3018.681, 2326.345 3028.681, 2326.345 3038.681, 2326.345 3048.681, 2326.345 3058.681, 2326.344 3068.681, 2326.344 3078.681, 2326.344 3088.681, 2326.344 3098.681, 2326.344 3108.681, 2326.344 3118.681, 2326.344 3128.681, 2326.344 3138.681, 2326.343 3148.681, 2326.343 3158.681, 2326.343 3168.681, 2326.343 3178.681, 2326.343 3188.681, 2326.343 3198.681, 2326.343 3208.720, 2326.343 3218.720, 2326.343 3228.720, 2326.343 3233.511, 2326.343 " />
            <path fill="none" stroke-width="3.0" stroke-linecap="butt" stroke-opacity="1.0" stroke="rgb(0, 0, 0)" stroke-linejoin="round" d=" M 1596.029, 2326.363 1606.029, 2326.363 1616.029, 2326.363 1626.029, 2326.363 1636.029, 2326.362 1646.029, 2326.362 1656.029, 2326.362 1666.029, 2326.362 1676.029, 2326.362 1686.029, 2326.362 1696.029, 2326.362 1706.029, 2326.362 1716.029, 2326.361 1726.029, 2326.361 1736.029, 2326.361 1746.029, 2326.361 1756.029, 2326.361 1766.029, 2326.361 1776.029, 2326.361 1786.029, 2326.361 1796.029, 2326.360 1806.029, 2326.360 1816.029, 2326.360 1826.029, 2326.360 1836.029, 2326.360 1846.029, 2326.360 1849.508, 2326.360 " />
            <path fill="none" stroke-width="3.0" stroke-linecap="butt" stroke-opacity="1.0" stroke="rgb(0, 0, 0)" stroke-linejoin="round" d=" M 1638.022, 23.629 1628.022, 23.633 1618.022, 23.636 1608.022, 23.639 1598.022, 23.643 1588.022, 23.646 1578.022, 23.650 1568.022, 23.653 1558.022, 23.656 1552.701, 23.658 1542.701, 23.662 1532.701, 23.665 1522.701, 23.668 1522.323, 23.669 1512.323, 23.672 1502.323, 23.675 1492.323, 23.679 1482.323, 23.682 1472.323, 23.686 1462.323, 23.689 1452.323, 23.692 1442.323, 23.696 1432.323, 23.699 1422.323, 23.703 1412.323, 23.706 1402.323, 23.709 1392.323, 23.713 1382.323, 23.716 1372.323, 23.719 1364.256, 23.722 1363.178, 23.747 1361.153, 23.747 1360.133, 23.747 1358.072, 23.747 1357.038, 23.747 1354.947, 23.747 1353.902, 23.747 1351.786, 23.747 1350.732, 23.747 1348.598, 23.747 1347.538, 23.747 1345.390, 23.747 1344.326, 23.747 1342.171, 23.747 1341.104, 23.747 1338.948, 23.747 1337.883, 23.747 1335.731, 23.747 1334.668, 23.747 1332.527, 23.747 1331.469, 23.747 1329.344, 23.747 1328.294, 23.747 1326.190, 23.747 1325.150, 23.747 1323.074, 23.747 1322.047, 23.747 1320.003, 23.747 1318.990, 23.747 1316.985, 23.747 1315.990, 23.747 1314.893, 23.681 1314.698, 23.670 1314.030, 23.629 " />
            <path fill="none" stroke-width="3.0" stroke-linecap="butt" stroke-opacity="1.0" stroke="rgb(0, 0, 0)" stroke-linejoin="round" d=" M 2162.045, 23.629 2152.045, 23.629 2142.045, 23.629 2132.045, 23.629 2122.045, 23.629 2112.045, 23.629 2110.219, 23.629 2109.935, 23.629 2109.637, 23.629 2109.326, 23.629 2109.003, 23.629 2108.668, 23.629 2108.322, 23.629 2107.965, 23.629 2107.598, 23.629 2107.222, 23.629 2106.838, 23.629 2106.447, 23.629 2106.049, 23.629 2105.647, 23.629 2105.241, 23.629 2104.832, 23.629 2104.422, 23.629 2104.013, 23.629 " />
            <path fill="none" stroke-width="3.0" stroke-linecap="butt" stroke-opacity="1.0" stroke="rgb(0, 0, 0)" stroke-linejoin="round" d=" M 2104.013, 23.629 2094.013, 23.632 2089.417, 23.633 2083.667, 23.634 2073.667, 23.636 2063.667, 23.639 2053.667, 23.641 2043.667, 23.644 2033.667, 23.646 2023.667, 23.648 2013.667, 23.651 2003.667, 23.653 1993.667, 23.656 1983.667, 23.658 1973.667, 23.660 1963.667, 23.663 1953.667, 23.665 1943.667, 23.667 1933.667, 23.670 1923.667, 23.672 1913.667, 23.674 1903.667, 23.677 1893.667, 23.679 1883.667, 23.681 1873.667, 23.684 1863.667, 23.686 1853.667, 23.688 1843.667, 23.691 1833.667, 23.693 1823.667, 23.696 1813.667, 23.698 1803.667, 23.700 1793.667, 23.703 1783.667, 23.705 1773.667, 23.708 1763.667, 23.710 1753.667, 23.712 1743.667, 23.715 1733.667, 23.717 1723.667, 23.719 1713.667, 23.722 1703.667, 23.724 1693.667, 23.726 1683.667, 23.729 1673.667, 23.731 1663.667, 23.733 1656.020, 23.735 1653.688, 23.724 1651.454, 23.723 1649.204, 23.723 1646.945, 23.723 1644.682, 23.723 1642.424, 23.722 1640.177, 23.722 1638.768, 23.661 1638.600, 23.654 1638.022, 23.629 " />
            <path fill="none" stroke-width="3.0" stroke-linecap="butt" stroke-opacity="1.0" stroke="rgb(0, 0, 0)" stroke-linejoin="round" d=" M 1269.855, 2326.367 1271.603, 2326.367 1281.603, 2326.367 1291.603, 2326.367 1301.603, 2326.367 1311.603, 2326.367 1321.603, 2326.367 1331.603, 2326.366 1341.603, 2326.366 1351.603, 2326.366 1361.603, 2326.366 1371.603, 2326.366 1381.603, 2326.366 1391.603, 2326.366 1401.603, 2326.366 1411.603, 2326.365 1421.603, 2326.365 1431.603, 2326.365 1441.603, 2326.365 1451.603, 2326.365 1461.603, 2326.365 1471.603, 2326.365 1481.603, 2326.365 1491.603, 2326.364 1501.603, 2326.364 1511.603, 2326.364 1521.603, 2326.364 1531.603, 2326.364 1541.603, 2326.364 1551.603, 2326.364 1561.603, 2326.364 1571.603, 2326.363 1581.603, 2326.363 1591.603, 2326.363 1601.603, 2326.363 1611.603, 2326.363 1621.603, 2326.363 1631.603, 2326.363 1641.603, 2326.363 1651.603, 2326.362 1661.603, 2326.362 1671.603, 2326.362 1681.603, 2326.362 1691.603, 2326.362 1701.603, 2326.362 1711.603, 2326.362 1721.603, 2326.362 1731.603, 2326.361 1741.603, 2326.361 1751.603, 2326.361 1761.603, 2326.361 1771.603, 2326.361 1781.603, 2326.361 1791.603, 2326.361 1801.603, 2326.361 1811.603, 2326.360 1821.603, 2326.360 1831.603, 2326.360 1841.603, 2326.360 1851.603, 2326.360 1861.603, 2326.360 1871.603, 2326.360 1881.603, 2326.360 1891.603, 2326.359 1901.603, 2326.359 1911.603, 2326.359 1921.603, 2326.359 1931.603, 2326.359 1941.603, 2326.359 1951.603, 2326.359 1961.603, 2326.359 1971.603, 2326.358 1981.603, 2326.358 1991.603, 2326.358 2001.603, 2326.358 2011.603, 2326.358 2021.603, 2326.358 2031.603, 2326.358 2041.603, 2326.357 2051.603, 2326.357 2061.603, 2326.357 2071.603, 2326.357 2081.603, 2326.357 2091.603, 2326.357 2101.603, 2326.357 2111.603, 2326.357 2121.603, 2326.356 2131.603, 2326.356 2141.603, 2326.356 2151.603, 2326.356 2161.603, 2326.356 2171.603, 2326.356 2181.603, 2326.356 2191.603, 2326.356 2201.603, 2326.355 2211.603, 2326.355 2221.603, 2326.355 2231.603, 2326.355 2241.603, 2326.355 2251.603, 2326.355 2261.603, 2326.355 2271.603, 2326.355 2281.603, 2326.354 2291.603, 2326.354 2301.603, 2326.354 2311.603, 2326.354 2321.603, 2326.354 2331.603, 2326.354 2341.603, 2326.354 2351.603, 2326.354 2361.603, 2326.353 2371.603, 2326.353 2381.603, 2326.353 2391.603, 2326.353 2401.603, 2326.353 2411.603, 2326.353 2421.603, 2326.353 2431.603, 2326.353 2441.603, 2326.352 2451.603, 2326.352 2461.603, 2326.352 2471.603, 2326.352 2481.603, 2326.352 2491.603, 2326.352 2501.603, 2326.352 2511.603, 2326.352 2521.603, 2326.351 2531.603, 2326.351 2541.603, 2326.351 2551.603, 2326.351 2561.603, 2326.351 2571.603, 2326.351 2581.603, 2326.351 2591.603, 2326.351 2601.603, 2326.350 2611.603, 2326.350 2621.603, 2326.350 2631.603, 2326.350 2641.603, 2326.350 2651.603, 2326.350 2661.603, 2326.350 2671.603, 2326.350 2681.603, 2326.349 2691.603, 2326.349 2701.603, 2326.349 2711.603, 2326.349 2721.603, 2326.349 2731.603, 2326.349 2741.603, 2326.349 2751.603, 2326.349 2761.603, 2326.348 2771.603, 2326.348 2781.603, 2326.348 2791.603, 2326.348 2801.603, 2326.348 2811.603, 2326.348 2821.603, 2326.348 2831.603, 2326.348 2841.603, 2326.347 2851.603, 2326.347 2861.603, 2326.347 2871.603, 2326.347 2881.603, 2326.347 2891.603, 2326.347 2901.603, 2326.347 2911.603, 2326.347 2921.603, 2326.346 2931.603, 2326.346 2941.603, 2326.346 2951.603, 2326.346 2961.603, 2326.346 2971.603, 2326.346 2981.603, 2326.346 2991.603, 2326.346 3001.603, 2326.345 3011.603, 2326.345 3021.603, 2326.345 3031.603, 2326.345 3041.603, 2326.345 3051.603, 2326.345 3061.603, 2326.345 3071.603, 2326.345 3081.603, 2326.344 3091.603, 2326.344 3101.603, 2326.344 3111.603, 2326.344 3121.603, 2326.344 3131.603, 2326.344 3141.603, 2326.344 3151.603, 2326.344 3161.603, 2326.343 3171.603, 2326.343 3181.603, 2326.343 3191.603, 2326.343 3201.603, 2326.343 3211.604, 2326.343 3233.511, 2326.343 " />
            <path fill="none" stroke-width="3.0" stroke-linecap="butt" stroke-opacity="1.0" stroke="rgb(0, 0, 0)" stroke-linejoin="round" d=" M 172.060, 1864.864 168.995, 1874.383 165.931, 1883.902 162.867, 1893.421 159.802, 1902.940 156.738, 1912.459 153.674, 1921.978 150.609, 1931.497 147.545, 1941.016 144.481, 1950.535 141.416, 1960.054 138.352, 1969.573 135.288, 1979.091 132.224, 1988.610 129.159, 1998.129 126.095, 2007.648 123.031, 2017.167 119.966, 2026.686 116.902, 2036.205 113.838, 2045.724 110.773, 2055.243 107.709, 2064.762 104.645, 2074.281 101.580, 2083.800 98.516, 2093.319 95.452, 2102.838 92.387, 2112.356 89.323, 2121.875 86.259, 2131.394 83.194, 2140.913 80.130, 2150.432 77.066, 2159.951 74.002, 2169.470 70.937, 2178.989 67.873, 2188.508 64.809, 2198.027 61.744, 2207.546 58.680, 2217.065 55.616, 2226.584 52.551, 2236.102 49.487, 2245.621 46.423, 2255.140 43.358, 2264.659 40.294, 2274.178 37.230, 2283.697 34.165, 2293.216 31.101, 2302.735 28.037, 2312.254 23.489, 2326.382 " />
            <path fill="none" stroke-width="3.0" stroke-linecap="butt" stroke-opacity="1.0" stroke="rgb(0, 0, 0)" stroke-linejoin="round" d=" M 338.770, 831.043 337.956, 841.009 337.142, 850.976 336.328, 860.943 335.514, 870.910 334.700, 880.877 333.886, 890.843 333.072, 900.810 332.258, 910.777 331.444, 920.744 330.629, 930.711 329.815, 940.677 329.001, 950.644 328.187, 960.611 327.373, 970.578 326.559, 980.545 325.745, 990.511 324.931, 1000.478 324.117, 1010.445 323.303, 1020.412 322.489, 1030.379 321.674, 1040.346 320.860, 1050.312 320.046, 1060.279 319.232, 1070.246 318.418, 1080.213 317.604, 1090.180 316.790, 1100.146 315.976, 1110.113 315.162, 1120.080 314.348, 1130.047 313.534, 1140.014 312.720, 1149.980 311.906, 1159.947 311.091, 1169.914 310.277, 1179.881 309.463, 1189.848 308.649, 1199.814 307.835, 1209.781 307.021, 1219.748 306.207, 1229.715 305.393, 1239.682 304.579, 1249.649 303.765, 1259.615 302.951, 1269.582 302.137, 1279.549 301.322, 1289.516 300.508, 1299.483 299.694, 1309.449 298.880, 1319.416 298.066, 1329.383 297.252, 1339.350 296.438, 1349.317 295.624, 1359.283 294.810, 1369.250 293.996, 1379.217 293.182, 1389.184 292.368, 1399.151 291.553, 1409.117 290.739, 1419.084 289.925, 1429.051 289.111, 1439.018 288.297, 1448.985 287.483, 1458.951 286.669, 1468.918 285.723, 1480.502 " />
            <path fill="none" stroke-width="3.0" stroke-linecap="butt" stroke-opacity="1.0" stroke="rgb(0, 0, 0)" stroke-linejoin="round" d=" M 984.896, 1613.588 983.458, 1611.362 " />
            <path fill="none" stroke-width="3.0" stroke-linecap="butt" stroke-opacity="1.0" stroke="rgb(0, 0, 0)" stroke-linejoin="round" d=" M 986.443, 1615.740 984.896, 1613.588 " />
            <path fill="none" stroke-width="3.0" stroke-linecap="butt" stroke-opacity="1.0" stroke="rgb(0, 0, 0)" stroke-linejoin="round" d=" M 988.096, 1617.812 986.443, 1615.740 " />
            <path fill="none" stroke-width="3.0" stroke-linecap="butt" stroke-opacity="1.0" stroke="rgb(0, 0, 0)" stroke-linejoin="round" d=" M 1009.394, 1633.125 1006.952, 1632.096 " />
            <path fill="none" stroke-width="3.0" stroke-linecap="butt" stroke-opacity="1.0" stroke="rgb(0, 0, 0)" stroke-linejoin="round" d=" M 1024.841, 1636.651 1022.204, 1636.387 " />
            <path fill="none" stroke-width="3.0" stroke-linecap="butt" stroke-opacity="1.0" stroke="rgb(0, 0, 0)" stroke-linejoin="round" d=" M 1027.488, 1636.783 1024.841, 1636.651 " />
            <path fill="none" stroke-width="3.0" stroke-linecap="butt" stroke-opacity="1.0" stroke="rgb(0, 0, 0)" stroke-linejoin="round" d=" M 1040.641, 1635.466 1038.043, 1635.992 " />
            <path fill="none" stroke-width="3.0" stroke-linecap="butt" stroke-opacity="1.0" stroke="rgb(0, 0, 0)" stroke-linejoin="round" d=" M 1079.605, 1599.313 1078.761, 1601.825 " />
            <path fill="none" stroke-width="3.0" stroke-linecap="butt" stroke-opacity="1.0" stroke="rgb(0, 0, 0)" stroke-linejoin="round" d=" M 1081.901, 1586.295 1081.703, 1588.938 " />
            <path fill="none" stroke-width="3.0" stroke-linecap="butt" stroke-opacity="1.0" stroke="rgb(0, 0, 0)" stroke-linejoin="round" d=" M 1081.967, 1583.646 1081.901, 1586.295 " />
            <path fill="none" stroke-width="3.0" stroke-linecap="butt" stroke-opacity="1.0" stroke="rgb(0, 0, 0)" stroke-linejoin="round" d=" M 1497.590, 2326.364 1507.590, 2326.364 1517.590, 2326.364 1527.590, 2326.364 1537.590, 2326.364 1547.590, 2326.363 1557.590, 2326.363 1567.590, 2326.363 1577.590, 2326.363 1582.922, 2326.363 " />
            <path fill="none" stroke-width="3.0" stroke-linecap="butt" stroke-opacity="1.0" stroke="rgb(0, 0, 0)" stroke-linejoin="round" d=" M 1269.855, 2326.367 1279.855, 2326.367 1289.855, 2326.367 1299.855, 2326.367 1309.855, 2326.367 1319.855, 2326.366 1329.855, 2326.366 1339.855, 2326.366 1349.855, 2326.366 1359.855, 2326.366 1369.855, 2326.366 1379.855, 2326.366 1389.855, 2326.366 1399.855, 2326.365 1409.855, 2326.365 1419.855, 2326.365 1429.855, 2326.365 1439.855, 2326.365 1449.855, 2326.365 1459.855, 2326.365 1469.855, 2326.364 1479.855, 2326.364 1489.855, 2326.364 1497.590, 2326.364 " />
            <path fill="none" stroke-width="3.0" stroke-linecap="butt" stroke-opacity="1.0" stroke="rgb(0, 0, 0)" stroke-linejoin="round" d=" M 1526.578, 2326.364 1516.578, 2326.364 1506.578, 2326.364 1496.578, 2326.364 1486.578, 2326.364 1476.578, 2326.364 1466.578, 2326.365 1456.578, 2326.365 1446.578, 2326.365 1436.578, 2326.365 1426.578, 2326.365 1416.578, 2326.365 1406.578, 2326.365 1396.578, 2326.365 1386.578, 2326.366 1376.578, 2326.366 1366.578, 2326.366 1356.578, 2326.366 1346.578, 2326.366 1336.578, 2326.366 1326.578, 2326.366 1316.578, 2326.367 1306.578, 2326.367 1295.567, 2326.367 1285.567, 2326.367 1275.567, 2326.367 1271.603, 2326.367 " />
            <path fill="none" stroke-width="3.0" stroke-linecap="butt" stroke-opacity="1.0" stroke="rgb(0, 0, 0)" stroke-linejoin="round" d=" M 1589.636, 2326.363 1590.259, 2326.363 " />
            <path fill="none" stroke-width="3.0" stroke-linecap="butt" stroke-opacity="1.0" stroke="rgb(0, 0, 0)" stroke-linejoin="round" d=" M 1638.022, 23.629 1628.022, 23.629 1618.022, 23.629 1608.022, 23.629 1598.022, 23.629 1588.022, 23.629 1578.022, 23.629 1568.022, 23.629 1558.022, 23.629 1548.022, 23.629 1538.022, 23.629 1528.022, 23.629 1518.022, 23.629 1508.022, 23.629 1498.022, 23.629 1488.022, 23.629 1478.022, 23.629 1468.022, 23.629 1458.022, 23.629 1448.022, 23.629 1438.022, 23.629 1428.022, 23.629 1418.022, 23.629 1408.022, 23.629 1398.022, 23.629 1388.022, 23.629 1378.022, 23.629 1368.022, 23.629 1358.022, 23.629 1348.022, 23.629 1338.022, 23.629 1328.022, 23.629 1318.022, 23.629 1314.030, 23.629 " />
            <path fill="none" stroke-width="3.0" stroke-linecap="butt" stroke-opacity="1.0" stroke="rgb(0, 0, 0)" stroke-linejoin="round" d=" M 1269.855, 2326.367 1279.855, 2326.367 1289.855, 2326.367 1295.567, 2326.367 1305.567, 2326.367 1315.567, 2326.367 1325.567, 2326.366 1335.567, 2326.366 1345.567, 2326.366 1355.567, 2326.366 1365.567, 2326.366 1375.567, 2326.366 1385.567, 2326.366 1395.567, 2326.366 1405.567, 2326.365 1415.567, 2326.365 1425.567, 2326.365 1435.567, 2326.365 1445.567, 2326.365 1455.567, 2326.365 1465.567, 2326.365 1475.567, 2326.365 1485.567, 2326.364 1495.567, 2326.364 1505.567, 2326.364 1515.567, 2326.364 1525.567, 2326.364 1535.567, 2326.364 1545.567, 2326.364 1555.567, 2326.364 1565.567, 2326.363 1575.567, 2326.363 1585.567, 2326.363 1595.567, 2326.363 1605.567, 2326.363 1615.567, 2326.363 1625.567, 2326.363 1635.567, 2326.363 1645.567, 2326.362 1655.567, 2326.362 1665.567, 2326.362 1675.567, 2326.362 1685.567, 2326.362 1695.567, 2326.362 1705.567, 2326.362 1715.567, 2326.362 1725.567, 2326.361 1735.567, 2326.361 1745.567, 2326.361 1755.567, 2326.361 1765.567, 2326.361 1775.567, 2326.361 1785.567, 2326.361 1795.567, 2326.361 1805.567, 2326.360 1815.567, 2326.360 1825.567, 2326.360 1835.567, 2326.360 1845.567, 2326.360 1855.567, 2326.360 1865.567, 2326.360 1875.567, 2326.360 1885.567, 2326.359 1895.567, 2326.359 1905.567, 2326.359 1915.567, 2326.359 1925.567, 2326.359 1935.567, 2326.359 1945.567, 2326.359 1955.567, 2326.359 1965.567, 2326.358 1975.567, 2326.358 1985.567, 2326.358 1995.567, 2326.358 2005.567, 2326.358 2015.567, 2326.358 2025.567, 2326.358 2035.567, 2326.358 2045.567, 2326.357 2055.567, 2326.357 2065.567, 2326.357 2075.567, 2326.357 2085.567, 2326.357 2095.567, 2326.357 2105.567, 2326.357 2115.567, 2326.357 2125.567, 2326.356 2135.567, 2326.356 2145.567, 2326.356 2155.567, 2326.356 2165.567, 2326.356 2175.567, 2326.356 2185.567, 2326.356 2195.567, 2326.356 2205.567, 2326.355 2215.567, 2326.355 2225.567, 2326.355 2235.567, 2326.355 2245.567, 2326.355 2255.567, 2326.355 2265.567, 2326.355 2275.567, 2326.355 2285.567, 2326.354 2295.567, 2326.354 2305.567, 2326.354 2315.567, 2326.354 2325.567, 2326.354 2335.567, 2326.354 2345.567, 2326.354 2355.567, 2326.354 2365.567, 2326.353 2375.567, 2326.353 2385.567, 2326.353 2395.567, 2326.353 2405.567, 2326.353 2415.567, 2326.353 2425.567, 2326.353 2435.567, 2326.353 2445.567, 2326.352 2455.567, 2326.352 2465.567, 2326.352 2475.567, 2326.352 2485.567, 2326.352 2495.567, 2326.352 2505.567, 2326.352 2515.567, 2326.352 2525.567, 2326.351 2535.567, 2326.351 2545.567, 2326.351 2555.567, 2326.351 2565.567, 2326.351 2575.567, 2326.351 2585.567, 2326.351 2595.567, 2326.351 2605.567, 2326.350 2615.567, 2326.350 2625.567, 2326.350 2635.567, 2326.350 2645.567, 2326.350 2655.567, 2326.350 2665.567, 2326.350 2675.567, 2326.350 2685.567, 2326.349 2695.567, 2326.349 2705.567, 2326.349 2715.567, 2326.349 2725.567, 2326.349 2735.567, 2326.349 2745.567, 2326.349 2755.567, 2326.349 2765.567, 2326.348 2775.567, 2326.348 2785.567, 2326.348 2795.567, 2326.348 2805.567, 2326.348 2815.567, 2326.348 2825.567, 2326.348 2835.567, 2326.348 2845.567, 2326.347 2855.567, 2326.347 2865.567, 2326.347 2875.567, 2326.347 2885.567, 2326.347 2895.567, 2326.347 2905.567, 2326.347 2915.567, 2326.347 2925.567, 2326.346 2935.567, 2326.346 2945.567, 2326.346 2955.567, 2326.346 2965.567, 2326.346 2975.567, 2326.346 2985.567, 2326.346 2995.567, 2326.346 3005.567, 2326.345 3015.567, 2326.345 3025.567, 2326.345 3035.567, 2326.345 3045.567, 2326.345 3055.567, 2326.345 3065.567, 2326.345 3075.567, 2326.345 3085.567, 2326.344 3095.567, 2326.344 3105.567, 2326.344 3115.567, 2326.344 3125.567, 2326.344 3135.567, 2326.344 3145.567, 2326.344 3155.567, 2326.344 3165.567, 2326.343 3175.567, 2326.343 3185.567, 2326.343 3195.567, 2326.343 3205.567, 2326.343 3233.511, 2326.343 " />
            <path fill="none" stroke-width="3.0" stroke-linecap="butt" stroke-opacity="1.0" stroke="rgb(0, 0, 0)" stroke-linejoin="round" d=" M 1526.578, 2326.364 1536.578, 2326.364 1546.578, 2326.363 1556.578, 2326.363 1566.578, 2326.363 1576.578, 2326.363 1586.578, 2326.363 1590.259, 2326.363 " />
            <path fill="none" stroke-width="3.0" stroke-linecap="butt" stroke-opacity="1.0" stroke="rgb(0, 0, 0)" stroke-linejoin="round" d=" M 1849.508, 2326.360 1859.508, 2326.360 1869.508, 2326.359 1879.508, 2326.359 1889.508, 2326.359 1899.508, 2326.359 1909.508, 2326.359 1919.508, 2326.359 1929.508, 2326.359 1939.508, 2326.359 1949.508, 2326.358 1959.508, 2326.358 1969.508, 2326.358 1979.508, 2326.358 1989.508, 2326.358 1999.508, 2326.358 2009.508, 2326.358 2019.508, 2326.358 2029.508, 2326.357 2039.508, 2326.357 2049.508, 2326.357 2059.508, 2326.357 2069.508, 2326.357 2079.508, 2326.357 2089.508, 2326.357 2099.508, 2326.357 2109.508, 2326.356 2119.508, 2326.356 2129.508, 2326.356 2139.508, 2326.356 2149.508, 2326.356 2159.508, 2326.356 2169.508, 2326.356 2179.508, 2326.356 2189.508, 2326.355 2199.508, 2326.355 2209.508, 2326.355 2219.508, 2326.355 2229.508, 2326.355 2239.508, 2326.355 2249.508, 2326.355 2259.508, 2326.355 2269.508, 2326.355 2279.508, 2326.354 2289.508, 2326.354 2299.508, 2326.354 2309.508, 2326.354 2319.508, 2326.354 2329.508, 2326.354 2339.508, 2326.354 2349.508, 2326.354 2359.508, 2326.353 2369.508, 2326.353 2379.508, 2326.353 2389.508, 2326.353 2399.508, 2326.353 2409.508, 2326.353 2419.508, 2326.353 2429.508, 2326.353 2439.508, 2326.352 2449.508, 2326.352 2459.508, 2326.352 2469.508, 2326.352 2479.508, 2326.352 2489.508, 2326.352 2499.508, 2326.352 2509.508, 2326.352 2519.508, 2326.351 2529.508, 2326.351 2539.508, 2326.351 2549.508, 2326.351 2559.508, 2326.351 2569.508, 2326.351 2579.508, 2326.351 2589.508, 2326.351 2599.508, 2326.350 2609.508, 2326.350 2619.508, 2326.350 2629.508, 2326.350 2639.508, 2326.350 2649.508, 2326.350 2659.508, 2326.350 2669.508, 2326.350 2679.508, 2326.349 2689.508, 2326.349 2699.508, 2326.349 2709.508, 2326.349 2719.508, 2326.349 2729.508, 2326.349 2739.508, 2326.349 2749.508, 2326.349 2759.508, 2326.348 2769.508, 2326.348 2779.508, 2326.348 2789.508, 2326.348 2799.508, 2326.348 2809.508, 2326.348 2819.508, 2326.348 2829.508, 2326.348 2839.508, 2326.347 2849.508, 2326.347 2859.508, 2326.347 2869.508, 2326.347 2879.508, 2326.347 2889.508, 2326.347 2899.508, 2326.347 2909.508, 2326.347 2919.508, 2326.346 2929.508, 2326.346 2939.508, 2326.346 2949.508, 2326.346 2959.508, 2326.346 2969.508, 2326.346 2979.508, 2326.346 2989.508, 2326.346 2999.508, 2326.345 3009.508, 2326.345 3019.508, 2326.345 3029.508, 2326.345 3039.508, 2326.345 3049.508, 2326.345 3059.508, 2326.345 3069.508, 2326.345 3079.508, 2326.344 3089.508, 2326.344 3099.508, 2326.344 3109.508, 2326.344 3119.508, 2326.344 3129.508, 2326.344 3139.508, 2326.344 3149.508, 2326.344 3159.508, 2326.343 3169.508, 2326.343 3179.508, 2326.343 3189.508, 2326.343 3199.508, 2326.343 3209.508, 2326.343 3219.508, 2326.343 3233.511, 2326.343 " />
            <path fill="none" stroke-width="3.0" stroke-linecap="butt" stroke-opacity="1.0" stroke="rgb(0, 0, 0)" stroke-linejoin="round" d=" M 1497.590, 2326.364 1507.590, 2326.364 1517.590, 2326.364 1526.578, 2326.364 1536.578, 2326.364 1546.578, 2326.363 1556.578, 2326.363 1566.578, 2326.363 1576.578, 2326.363 1586.578, 2326.363 1590.259, 2326.363 " />
            <path fill="none" stroke-width="3.0" stroke-linecap="butt" stroke-opacity="1.0" stroke="rgb(0, 0, 0)" stroke-linejoin="round" d=" M 3233.511, 2326.343 3230.393, 2316.841 3227.274, 2307.340 3224.155, 2297.839 3221.036, 2288.338 3217.917, 2278.837 3214.798, 2269.335 3211.679, 2259.834 3208.561, 2250.333 3205.442, 2240.832 3202.323, 2231.331 3199.204, 2221.829 3196.085, 2212.328 3192.966, 2202.827 3189.847, 2193.326 3186.729, 2183.825 3183.610, 2174.323 3180.491, 2164.822 3177.372, 2155.321 3176.735, 2153.381 " />
        </g>
    </g>
<g id="slice-labels"><text x="558.4926666666667" y="599.3172500000001" text-anchor="middle" dominant-baseline="middle" font-family="Arial, sans-serif" font-size="59.05930250450507" font-weight="bold" fill="black" stroke="none" stroke-width="7.087116300540609" paint-order="stroke fill">Slice43 (Front)</text><text x="1628.5" y="599.3172500000001" text-anchor="middle" dominant-baseline="middle" font-family="Arial, sans-serif" font-size="59.05930250450507" font-weight="bold" fill="black" stroke="none" stroke-width="7.087116300540609" paint-order="stroke fill">Slice43 (Front)</text><text x="2698.5073333333335" y="599.3172500000001" text-anchor="middle" dominant-baseline="middle" font-family="Arial, sans-serif" font-size="59.05930250450507" font-weight="bold" fill="black" stroke="none" stroke-width="7.087116300540609" paint-order="stroke fill">Slice43 (Front)</text><text x="558.4926666666667" y="1750.69375" text-anchor="middle" dominant-baseline="middle" font-family="Arial, sans-serif" font-size="59.05930250450507" font-weight="bold" fill="black" stroke="none" stroke-width="7.087116300540609" paint-order="stroke fill">Slice43 (Front)</text><text x="1628.5" y="1750.69375" text-anchor="middle" dominant-baseline="middle" font-family="Arial, sans-serif" font-size="59.05930250450507" font-weight="bold" fill="black" stroke="none" stroke-width="7.087116300540609" paint-order="stroke fill">Slice43 (Front)</text><text x="2698.5073333333335" y="1750.69375" text-anchor="middle" dominant-baseline="middle" font-family="Arial, sans-serif" font-size="59.05930250450507" font-weight="bold" fill="black" stroke="none" stroke-width="7.087116300540609" paint-order="stroke fill">Slice43 (Front)</text></g></svg>