<?xml version='1.0' encoding='utf-8'?>
<svg xmlns="http://www.w3.org/2000/svg" xmlns:inkscape="http://www.inkscape.org/namespaces/inkscape" version="1.1" width="125.87094986438751mm" height="60.06445670127869mm" viewBox="0.621027770346128 0.005030211722125699 1485.7789444593077 708.9999395765559" preserveAspectRatio="none">
    <g id="ViewLayer_LineSet" inkscape:groupmode="lineset" inkscape:label="ViewLayer_LineSet">
        <g inkscape:groupmode="layer" id="strokes" inkscape:label="strokes">
            <path fill="none" stroke-width="3.0" stroke-linecap="butt" stroke-opacity="1.0" stroke="rgb(0, 0, 0)" stroke-linejoin="round" d=" M 1249.070, 23.613 1239.070, 23.613 1229.070, 23.613 1219.070, 23.613 1209.070, 23.613 1199.070, 23.613 1189.070, 23.613 1179.070, 23.613 1169.070, 23.613 1159.070, 23.613 1149.070, 23.613 1139.070, 23.613 1129.070, 23.613 1119.070, 23.613 1109.070, 23.613 1099.070, 23.613 1089.070, 23.613 1079.070, 23.613 1069.070, 23.613 1059.070, 23.613 1049.070, 23.613 1039.070, 23.613 1034.003, 23.613 1031.663, 23.613 1029.225, 23.613 1026.698, 23.613 1024.086, 23.613 1021.398, 23.613 1018.642, 23.613 1015.828, 23.613 1012.965, 23.613 1010.063, 23.613 1007.134, 23.613 1004.188, 23.613 1001.237, 23.613 998.293, 23.613 995.368, 23.613 992.474, 23.613 989.624, 23.613 986.831, 23.613 976.831, 23.613 966.831, 23.613 956.831, 23.613 946.831, 23.613 942.153, 23.613 939.093, 23.613 929.093, 23.613 919.093, 23.613 909.093, 23.613 899.093, 23.613 889.093, 23.613 879.093, 23.613 869.093, 23.613 859.093, 23.613 849.093, 23.613 839.093, 23.613 829.093, 23.613 819.093, 23.613 809.093, 23.613 799.093, 23.613 789.093, 23.613 779.093, 23.613 769.093, 23.613 759.093, 23.613 749.093, 23.613 739.093, 23.613 729.093, 23.613 719.093, 23.613 709.093, 23.613 699.093, 23.613 693.904, 23.613 691.057, 23.613 688.140, 23.613 685.163, 23.613 682.138, 23.613 679.077, 23.613 675.994, 23.613 672.900, 23.613 669.807, 23.613 666.728, 23.613 663.675, 23.613 660.658, 23.613 657.689, 23.613 654.778, 23.613 644.778, 23.613 634.778, 23.613 624.778, 23.613 614.778, 23.613 604.778, 23.613 594.778, 23.613 584.778, 23.613 574.778, 23.613 564.778, 23.613 554.778, 23.613 544.778, 23.613 534.778, 23.613 524.778, 23.613 514.778, 23.613 504.778, 23.613 494.778, 23.613 484.778, 23.613 474.778, 23.613 464.778, 23.613 454.778, 23.613 444.778, 23.613 434.778, 23.613 424.778, 23.613 419.063, 23.613 414.829, 32.672 410.595, 41.731 406.361, 50.791 402.126, 59.850 397.892, 68.909 393.658, 77.969 389.424, 87.028 385.190, 96.087 380.955, 105.147 376.721, 114.206 372.487, 123.265 368.253, 132.325 364.019, 141.384 359.784, 150.443 355.550, 159.503 351.316, 168.562 347.082, 177.622 342.848, 186.681 338.613, 195.740 334.379, 204.800 331.414, 211.144 328.750, 220.783 326.087, 230.422 323.423, 240.061 320.760, 249.699 318.097, 259.338 315.433, 268.977 312.770, 278.616 310.106, 288.255 307.443, 297.893 304.779, 307.532 302.116, 317.171 299.452, 326.810 296.789, 336.448 294.126, 346.087 291.462, 355.726 290.321, 359.854 283.993, 367.596 277.664, 375.339 271.335, 383.082 265.007, 390.824 258.678, 398.567 252.349, 406.310 246.021, 414.052 239.692, 421.795 233.363, 429.537 227.035, 437.280 220.706, 445.023 214.378, 452.765 208.049, 460.508 201.720, 468.250 195.392, 475.993 189.063, 483.736 182.734, 491.478 176.406, 499.221 170.077, 506.963 163.748, 514.706 157.420, 522.449 151.091, 530.191 144.762, 537.934 138.434, 545.676 132.105, 553.419 125.776, 561.162 119.448, 568.904 113.119, 576.647 106.790, 584.390 100.462, 592.132 94.133, 599.875 87.804, 607.617 81.476, 615.360 75.147, 623.103 68.818, 630.845 62.490, 638.588 56.161, 646.330 49.832, 654.073 43.504, 661.816 37.175, 669.558 30.846, 677.301 24.229, 685.397 " />
            <path fill="none" stroke-width="3.0" stroke-linecap="butt" stroke-opacity="1.0" stroke="rgb(0, 0, 0)" stroke-linejoin="round" d=" M 24.229, 685.397 34.229, 685.397 42.398, 685.397 52.398, 685.397 62.398, 685.397 72.398, 685.397 82.398, 685.397 92.398, 685.397 102.398, 685.397 112.398, 685.397 122.398, 685.397 132.398, 685.397 142.398, 685.397 152.398, 685.397 162.398, 685.397 172.398, 685.397 182.398, 685.397 192.398, 685.397 202.398, 685.397 212.398, 685.397 222.398, 685.397 232.398, 685.397 242.398, 685.397 252.398, 685.397 262.398, 685.397 272.398, 685.397 282.398, 685.397 292.398, 685.397 302.398, 685.397 312.398, 685.397 322.398, 685.397 332.398, 685.397 342.398, 685.397 352.398, 685.397 362.398, 685.397 372.398, 685.397 382.398, 685.397 392.398, 685.397 402.398, 685.397 412.398, 685.397 422.398, 685.397 432.398, 685.397 442.398, 685.397 452.398, 685.397 462.398, 685.397 472.398, 685.397 482.398, 685.397 492.398, 685.397 502.398, 685.397 512.398, 685.397 522.398, 685.397 532.398, 685.397 542.398, 685.397 552.398, 685.397 562.398, 685.397 572.398, 685.397 582.398, 685.397 592.398, 685.397 602.398, 685.397 612.398, 685.397 622.398, 685.397 632.398, 685.397 642.398, 685.397 652.398, 685.397 662.398, 685.397 672.398, 685.397 682.398, 685.397 692.398, 685.397 702.398, 685.397 712.398, 685.397 722.398, 685.397 732.398, 685.397 747.421, 685.397 " />
            <path fill="none" stroke-width="3.0" stroke-linecap="butt" stroke-opacity="1.0" stroke="rgb(0, 0, 0)" stroke-linejoin="round" d=" M 42.398, 685.397 43.031, 685.378 53.031, 685.378 63.031, 685.378 73.031, 685.379 83.031, 685.379 93.031, 685.379 103.031, 685.379 113.031, 685.380 123.031, 685.380 133.031, 685.380 143.031, 685.381 153.031, 685.381 163.031, 685.381 173.031, 685.381 183.031, 685.382 193.031, 685.382 203.031, 685.382 213.031, 685.382 223.031, 685.383 233.031, 685.383 243.031, 685.383 253.031, 685.383 263.031, 685.384 273.031, 685.384 283.031, 685.384 293.031, 685.385 303.031, 685.385 313.031, 685.385 323.031, 685.385 333.031, 685.386 343.031, 685.386 353.031, 685.386 363.031, 685.386 373.031, 685.387 383.031, 685.387 393.031, 685.387 403.031, 685.388 413.031, 685.388 423.031, 685.388 433.031, 685.388 443.031, 685.389 453.031, 685.389 463.031, 685.389 473.031, 685.389 483.031, 685.390 493.031, 685.390 503.031, 685.390 513.031, 685.390 523.031, 685.391 533.031, 685.391 543.031, 685.391 553.031, 685.392 563.031, 685.392 573.031, 685.392 583.031, 685.392 593.031, 685.393 603.031, 685.393 613.031, 685.393 623.031, 685.393 633.031, 685.394 643.031, 685.394 653.031, 685.394 663.031, 685.394 673.031, 685.395 683.031, 685.395 693.031, 685.395 703.031, 685.396 713.031, 685.396 723.031, 685.396 733.031, 685.396 747.421, 685.397 " />
            <path fill="none" stroke-width="3.0" stroke-linecap="butt" stroke-opacity="1.0" stroke="rgb(0, 0, 0)" stroke-linejoin="round" d=" M 747.421, 685.397 750.176, 685.397 751.110, 685.397 753.988, 685.397 754.951, 685.397 757.946, 685.397 758.935, 685.397 762.038, 685.397 763.052, 685.397 764.102, 685.397 767.292, 685.397 768.360, 685.397 771.642, 685.397 772.728, 685.397 776.092, 685.397 777.193, 685.397 780.629, 685.397 781.744, 685.397 785.243, 685.397 786.368, 685.397 789.920, 685.397 791.055, 685.397 794.649, 685.397 795.790, 685.397 799.415, 685.397 800.562, 685.397 804.207, 685.397 805.357, 685.397 809.012, 685.397 810.163, 685.397 813.815, 685.397 814.967, 685.397 816.114, 685.397 819.755, 685.397 820.897, 685.397 824.515, 685.397 825.649, 685.397 829.234, 685.397 830.359, 685.397 833.899, 685.397 835.013, 685.397 838.498, 685.397 839.599, 685.397 843.018, 685.397 844.104, 685.397 847.448, 685.397 848.517, 685.397 851.775, 685.397 852.825, 685.397 855.990, 685.397 857.018, 685.397 860.080, 685.397 861.085, 685.397 864.036, 685.397 865.015, 685.397 875.015, 685.397 885.015, 685.397 895.015, 685.397 905.015, 685.397 915.015, 685.397 925.015, 685.397 935.015, 685.397 945.015, 685.397 955.015, 685.397 965.015, 685.397 975.015, 685.397 985.015, 685.397 995.015, 685.397 1005.015, 685.397 1015.015, 685.397 1025.015, 685.397 1035.015, 685.397 1045.015, 685.397 1055.015, 685.397 1065.015, 685.397 1075.015, 685.397 1085.015, 685.397 1095.015, 685.397 1105.015, 685.397 1115.015, 685.397 1125.015, 685.397 1135.015, 685.397 1145.015, 685.397 1155.015, 685.397 1165.015, 685.397 1175.191, 685.397 1179.676, 685.397 1184.164, 685.397 1188.638, 685.397 1193.082, 685.397 1197.480, 685.397 1201.817, 685.397 1211.817, 685.397 1221.817, 685.397 1231.817, 685.397 1241.817, 685.397 1251.817, 685.397 1261.817, 685.397 1271.817, 685.397 1281.817, 685.397 1291.817, 685.397 1301.817, 685.397 1311.817, 685.397 1321.817, 685.397 1331.817, 685.397 1341.817, 685.397 1351.817, 685.397 1361.817, 685.397 1371.817, 685.397 1381.817, 685.397 1391.817, 685.397 1401.817, 685.397 1411.817, 685.397 1421.817, 685.397 1431.817, 685.397 1441.817, 685.397 1451.817, 685.397 1462.792, 685.397 " />
            <path fill="none" stroke-width="3.0" stroke-linecap="butt" stroke-opacity="1.0" stroke="rgb(0, 0, 0)" stroke-linejoin="round" d=" M 762.138, 426.933 759.602, 424.397 757.196, 421.739 754.924, 418.965 752.792, 416.081 750.806, 413.096 748.970, 410.015 747.290, 406.847 745.768, 403.600 744.410, 400.281 743.217, 396.899 742.194, 393.462 741.342, 389.979 740.665, 386.458 740.162, 382.907 739.837, 379.336 739.688, 375.753 739.718, 372.167 739.926, 368.587 740.310, 365.022 740.871, 361.480 741.607, 357.970 742.516, 354.501 743.596, 351.082 744.844, 347.720 746.257, 344.424 747.832, 341.203 749.565, 338.063 751.451, 335.014 753.487, 332.061 755.666, 329.213 757.983, 326.477 760.434, 323.859 763.011, 321.365 765.709, 319.003 768.520, 316.777 771.439, 314.693 774.457, 312.757 777.567, 310.972 780.762, 309.344 784.034, 307.877 787.375, 306.573 790.776, 305.437 794.230, 304.470 797.727, 303.677 801.259, 303.057 804.817, 302.614 808.393, 302.347 811.978, 302.258 815.526, 302.345 819.065, 302.606 822.587, 303.041 826.083, 303.647 829.545, 304.425 832.965, 305.371 836.335, 306.484 839.646, 307.762 842.890, 309.200 846.060, 310.795 849.147, 312.544 852.145, 314.443 855.047, 316.486 857.844, 318.670 860.531, 320.987 863.101, 323.434 865.548, 326.004 867.866, 328.692 870.049, 331.489 872.093, 334.390 873.991, 337.388 875.740, 340.476 877.336, 343.646 878.774, 346.890 880.051, 350.201 881.164, 353.570 882.111, 356.990 882.888, 360.453 883.495, 363.949 883.929, 367.471 884.190, 371.010 884.277, 374.557 884.189, 378.142 883.922, 381.718 883.478, 385.277 882.859, 388.809 882.065, 392.306 881.099, 395.759 879.963, 399.161 878.659, 402.501 877.191, 405.773 875.563, 408.968 873.779, 412.079 871.843, 415.097 869.759, 418.015 867.533, 420.827 865.170, 423.525 862.677, 426.102 860.059, 428.552 857.322, 430.870 854.474, 433.049 851.522, 435.084 848.472, 436.971 845.333, 438.703 842.111, 440.278 838.815, 441.691 835.454, 442.939 832.034, 444.019 828.565, 444.928 825.056, 445.664 821.514, 446.225 817.948, 446.610 814.369, 446.817 810.783, 446.847 807.200, 446.699 803.629, 446.373 800.078, 445.871 796.557, 445.193 793.073, 444.342 789.636, 443.319 786.254, 442.126 782.936, 440.767 779.688, 439.246 776.521, 437.565 773.440, 435.730 770.454, 433.744 767.571, 431.612 764.796, 429.340 762.138, 426.933 " />
            <path fill="none" stroke-width="3.0" stroke-linecap="butt" stroke-opacity="1.0" stroke="rgb(0, 0, 0)" stroke-linejoin="round" d=" M 1401.539, 346.149 1397.265, 337.108 1392.991, 328.067 1388.717, 319.027 1384.444, 309.986 1380.170, 300.945 1375.896, 291.904 1371.622, 282.864 1367.349, 273.823 1363.075, 264.782 1358.801, 255.741 1354.528, 246.701 1350.254, 237.660 1345.980, 228.619 1341.706, 219.578 1337.433, 210.538 1333.159, 201.497 1328.885, 192.456 1324.611, 183.415 1320.338, 174.375 1316.064, 165.334 1311.790, 156.293 1307.517, 147.252 1303.243, 138.212 1298.969, 129.171 1294.695, 120.130 1290.422, 111.089 1286.148, 102.049 1281.874, 93.008 1277.600, 83.967 1273.327, 74.926 1269.053, 65.885 1264.779, 56.845 1260.506, 47.804 1256.232, 38.763 1251.958, 29.722 1249.070, 23.613 " />
            <path fill="none" stroke-width="3.0" stroke-linecap="butt" stroke-opacity="1.0" stroke="rgb(0, 0, 0)" stroke-linejoin="round" d=" M 1462.792, 685.397 1461.015, 675.556 1459.238, 665.715 1457.461, 655.874 1455.684, 646.033 1453.908, 636.192 1452.131, 626.352 1450.354, 616.511 1448.577, 606.670 1446.800, 596.829 1445.023, 586.988 1443.247, 577.147 1441.470, 567.306 1439.693, 557.465 1437.916, 547.624 1436.139, 537.784 1434.363, 527.943 1432.586, 518.102 1430.809, 508.261 1429.032, 498.420 1427.255, 488.579 1425.478, 478.738 1423.702, 468.897 1421.925, 459.057 1420.148, 449.216 1418.371, 439.375 1416.594, 429.534 1414.817, 419.693 1413.041, 409.852 1411.264, 400.011 1409.487, 390.170 1407.710, 380.330 1405.933, 370.489 1404.156, 360.648 1402.380, 350.807 1401.539, 346.149 " />
        </g>
    </g>
<g id="slice-labels"><text x="383.86974999999995" y="354.50500000000005" text-anchor="middle" dominant-baseline="middle" font-family="Arial, sans-serif" font-size="59.01992447069469" font-weight="bold" fill="black" stroke="none" stroke-width="7.082390936483362" paint-order="stroke fill">Slice53 (Back)</text><text x="1103.15125" y="354.50500000000005" text-anchor="middle" dominant-baseline="middle" font-family="Arial, sans-serif" font-size="59.01992447069469" font-weight="bold" fill="black" stroke="none" stroke-width="7.082390936483362" paint-order="stroke fill">Slice53 (Back)</text></g></svg>