<?xml version='1.0' encoding='utf-8'?>
<svg xmlns="http://www.w3.org/2000/svg" xmlns:inkscape="http://www.inkscape.org/namespaces/inkscape" version="1.1" width="91.25577592849731mm" height="104.70735216140747mm" viewBox="-0.03175390009078427 0.005231530958123898 1078.0845078001814 1237.0005369380835" preserveAspectRatio="none">
    <g id="ViewLayer_LineSet" inkscape:groupmode="lineset" inkscape:label="ViewLayer_LineSet">
        <g inkscape:groupmode="layer" id="strokes" inkscape:label="strokes">
            <path fill="none" stroke-width="3.0" stroke-linecap="butt" stroke-opacity="1.0" stroke="rgb(0, 0, 0)" stroke-linejoin="round" d=" M 403.912, 910.762 401.393, 908.179 399.006, 905.474 396.756, 902.653 394.650, 899.724 392.693, 896.693 390.888, 893.568 389.243, 890.358 387.759, 887.069 386.440, 883.711 385.292, 880.291 384.314, 876.817 383.511, 873.300 382.885, 869.746 382.436, 866.166 382.167, 862.569 382.077, 858.961 382.167, 855.355 382.436, 851.757 382.885, 848.177 383.511, 844.624 384.314, 841.106 385.292, 837.633 386.440, 834.213 387.759, 830.854 389.243, 827.566 390.888, 824.355 392.693, 821.230 394.650, 818.200 396.756, 815.270 399.006, 812.449 401.393, 809.745 403.912, 807.162 406.557, 804.707 409.321, 802.388 412.197, 800.210 415.178, 798.178 418.257, 796.296 421.425, 794.571 424.676, 793.005 428.001, 791.603 431.391, 790.370 434.839, 789.306 438.335, 788.416 441.871, 787.701 445.439, 787.163 449.029, 786.804 452.633, 786.624 456.241, 786.624 459.844, 786.804 463.434, 787.163 467.002, 787.701 470.539, 788.416 474.035, 789.306 477.483, 790.370 480.873, 791.603 484.198, 793.005 487.448, 794.571 490.617, 796.296 493.695, 798.178 496.677, 800.210 499.552, 802.388 502.316, 804.707 504.961, 807.162 507.480, 809.745 509.868, 812.449 512.118, 815.270 514.223, 818.200 516.181, 821.230 517.985, 824.355 519.631, 827.566 521.115, 830.854 522.433, 834.213 523.582, 837.633 524.559, 841.106 525.362, 844.624 525.988, 848.177 526.437, 851.757 526.707, 855.355 526.797, 858.961 526.707, 862.569 526.437, 866.166 525.988, 869.746 525.362, 873.300 524.559, 876.817 523.582, 880.291 522.433, 883.711 521.115, 887.069 519.631, 890.358 517.985, 893.568 516.181, 896.693 514.223, 899.724 512.118, 902.653 509.868, 905.474 507.480, 908.179 504.961, 910.762 502.316, 913.216 499.552, 915.535 496.677, 917.713 493.695, 919.746 490.617, 921.628 487.448, 923.353 484.198, 924.918 480.873, 926.320 477.483, 927.554 474.035, 928.617 470.539, 929.507 467.002, 930.223 463.434, 930.761 459.844, 931.120 456.241, 931.299 452.633, 931.299 449.029, 931.120 445.439, 930.761 441.871, 930.223 438.335, 929.507 434.839, 928.617 431.391, 927.554 428.001, 926.320 424.676, 924.918 421.425, 923.353 418.257, 921.628 415.178, 919.746 412.197, 917.713 409.321, 915.535 406.557, 913.216 403.912, 910.762 " />
            <path fill="none" stroke-width="3.0" stroke-linecap="butt" stroke-opacity="1.0" stroke="rgb(0, 0, 0)" stroke-linejoin="round" d=" M 23.596, 1213.378 33.596, 1213.378 43.596, 1213.378 53.596, 1213.378 63.596, 1213.378 73.596, 1213.378 83.596, 1213.378 93.596, 1213.378 103.596, 1213.378 113.596, 1213.378 123.596, 1213.378 133.596, 1213.378 143.596, 1213.378 153.596, 1213.378 163.596, 1213.378 168.424, 1213.378 170.343, 1213.378 172.311, 1213.378 174.324, 1213.378 176.373, 1213.378 178.456, 1213.378 180.563, 1213.378 182.688, 1213.378 184.827, 1213.378 186.971, 1213.378 189.113, 1213.378 199.113, 1213.378 209.113, 1213.378 219.113, 1213.378 229.113, 1213.378 239.113, 1213.378 249.113, 1213.378 259.113, 1213.378 269.113, 1213.378 279.113, 1213.378 289.113, 1213.378 299.113, 1213.378 306.747, 1213.378 308.945, 1213.378 311.157, 1213.378 313.377, 1213.378 315.597, 1213.378 317.810, 1213.378 320.009, 1213.378 322.186, 1213.378 324.334, 1213.378 326.446, 1213.378 328.515, 1213.378 330.534, 1213.378 332.497, 1213.378 334.397, 1213.378 336.228, 1213.378 337.984, 1213.378 339.661, 1213.378 341.252, 1213.378 351.252, 1213.378 361.252, 1213.378 371.252, 1213.378 381.252, 1213.378 391.252, 1213.378 401.252, 1213.378 411.252, 1213.378 421.252, 1213.378 431.252, 1213.378 441.252, 1213.378 451.252, 1213.378 461.252, 1213.378 471.252, 1213.378 481.252, 1213.378 491.252, 1213.378 501.252, 1213.378 511.252, 1213.378 521.252, 1213.378 531.252, 1213.378 541.252, 1213.378 551.252, 1213.378 561.252, 1213.378 571.252, 1213.378 581.252, 1213.378 591.252, 1213.378 601.252, 1213.378 611.252, 1213.378 621.252, 1213.378 631.252, 1213.378 641.252, 1213.378 651.252, 1213.378 661.252, 1213.378 669.763, 1213.378 " />
            <path fill="none" stroke-width="3.0" stroke-linecap="butt" stroke-opacity="1.0" stroke="rgb(0, 0, 0)" stroke-linejoin="round" d=" M 987.014, 978.828 988.066, 968.884 989.119, 958.939 990.171, 948.995 991.224, 939.050 992.277, 929.106 993.329, 919.161 994.382, 909.217 995.435, 899.273 996.487, 889.328 997.540, 879.384 998.592, 869.439 999.645, 859.495 1000.698, 849.550 1001.750, 839.606 1002.803, 829.661 1003.855, 819.717 1004.908, 809.773 1005.961, 799.828 1007.013, 789.884 1008.066, 779.939 1009.118, 769.995 1010.171, 760.050 1011.224, 750.106 1012.276, 740.161 1013.329, 730.217 1014.382, 720.273 1015.434, 710.328 1016.487, 700.384 1017.539, 690.439 1018.592, 680.495 1019.645, 670.550 1020.697, 660.606 1021.750, 650.661 1022.802, 640.717 1023.855, 630.773 1024.908, 620.828 1025.960, 610.884 1027.013, 600.939 1028.065, 590.995 1029.118, 581.050 1030.171, 571.106 1031.223, 561.161 1032.276, 551.217 1033.328, 541.273 1034.381, 531.328 1035.434, 521.384 1036.486, 511.439 1037.539, 501.495 1038.592, 491.550 1039.644, 481.606 1040.697, 471.661 1041.749, 461.717 1042.802, 451.773 1043.855, 441.828 1044.907, 431.884 1045.960, 421.939 1047.012, 411.995 1048.065, 402.050 1049.118, 392.106 1050.170, 382.161 1051.223, 372.217 1052.276, 362.273 1053.328, 352.328 1054.425, 341.968 1047.061, 335.203 1039.696, 328.437 1032.332, 321.672 1024.968, 314.907 1017.604, 308.142 1010.240, 301.376 1002.875, 294.611 995.511, 287.846 988.147, 281.081 980.783, 274.316 973.418, 267.550 966.054, 260.785 958.690, 254.020 951.326, 247.255 943.962, 240.489 936.597, 233.724 929.233, 226.959 921.869, 220.194 914.505, 213.428 907.140, 206.663 899.776, 199.898 892.412, 193.133 885.048, 186.368 877.684, 179.602 870.319, 172.837 862.955, 166.072 855.591, 159.307 848.227, 152.541 840.862, 145.776 833.498, 139.011 826.134, 132.246 818.770, 125.480 811.406, 118.715 804.041, 111.950 796.677, 105.185 789.313, 98.420 781.949, 91.654 774.585, 84.889 767.220, 78.124 759.856, 71.359 752.492, 64.594 745.128, 57.828 737.763, 51.063 730.399, 44.298 723.035, 37.533 715.671, 30.767 707.905, 23.633 697.905, 23.633 687.905, 23.633 677.905, 23.633 667.905, 23.633 657.905, 23.633 647.905, 23.633 637.905, 23.633 627.905, 23.633 617.905, 23.633 607.905, 23.633 597.905, 23.633 587.905, 23.633 577.905, 23.633 567.905, 23.633 557.905, 23.633 547.905, 23.633 537.905, 23.633 527.905, 23.633 517.905, 23.633 507.905, 23.633 497.905, 23.633 487.905, 23.633 477.905, 23.633 474.041, 23.633 472.618, 23.633 471.106, 23.633 469.510, 23.633 467.836, 23.633 466.087, 23.633 464.270, 23.633 462.391, 23.633 460.455, 23.633 458.468, 23.633 456.438, 23.633 454.371, 23.633 452.275, 23.633 450.154, 23.633 448.019, 23.633 445.874, 23.633 443.727, 23.633 441.586, 23.633 439.457, 23.633 437.346, 23.633 435.262, 23.633 433.210, 23.633 423.210, 23.633 413.210, 23.633 403.210, 23.633 393.210, 23.633 383.210, 23.633 373.210, 23.633 363.210, 23.633 353.210, 23.633 343.210, 23.633 333.210, 23.633 323.210, 23.633 313.210, 23.633 303.210, 23.633 293.210, 23.633 283.210, 23.633 273.210, 23.633 263.210, 23.633 253.210, 23.633 243.210, 23.633 233.210, 23.633 223.210, 23.633 213.210, 23.633 203.210, 23.633 193.210, 23.633 183.210, 23.633 173.210, 23.633 163.210, 23.633 155.363, 23.633 145.363, 23.633 135.363, 23.633 125.363, 23.633 115.363, 23.633 105.363, 23.633 95.363, 23.633 85.363, 23.633 75.363, 23.633 68.126, 23.633 67.584, 33.618 67.043, 43.604 66.501, 53.589 65.960, 63.574 65.418, 73.560 64.876, 83.545 64.335, 93.530 63.793, 103.516 63.252, 113.501 62.710, 123.486 62.169, 133.472 61.627, 143.457 61.085, 153.442 60.544, 163.428 60.002, 173.413 59.461, 183.398 58.919, 193.384 58.378, 203.369 57.836, 213.354 57.295, 223.340 56.753, 233.325 56.211, 243.310 55.671, 253.269 60.872, 261.810 66.073, 270.351 71.273, 278.892 76.474, 287.434 81.675, 295.975 86.876, 304.516 92.076, 313.057 97.277, 321.598 102.478, 330.140 107.679, 338.681 112.879, 347.222 118.080, 355.763 123.281, 364.305 128.482, 372.846 133.682, 381.387 138.883, 389.928 144.084, 398.469 149.285, 407.011 154.485, 415.552 159.686, 424.093 164.887, 432.634 170.088, 441.175 175.288, 449.717 180.489, 458.258 185.690, 466.799 190.891, 475.340 196.091, 483.881 201.292, 492.423 206.493, 500.964 211.694, 509.505 213.749, 512.881 209.344, 521.859 204.939, 530.836 200.534, 539.814 196.129, 548.791 191.724, 557.769 187.319, 566.746 182.914, 575.724 178.509, 584.701 174.104, 593.679 169.699, 602.656 165.294, 611.634 160.889, 620.612 156.484, 629.589 152.079, 638.567 147.674, 647.544 143.269, 656.522 138.864, 665.499 134.459, 674.477 130.054, 683.454 125.649, 692.432 121.244, 701.409 116.839, 710.387 112.434, 719.364 108.029, 728.342 103.624, 737.319 100.021, 744.663 98.412, 754.532 96.802, 764.402 95.193, 774.272 93.584, 784.141 91.974, 794.011 90.365, 803.881 88.756, 813.750 87.147, 823.620 85.537, 833.490 83.928, 843.359 82.319, 853.229 80.710, 863.099 79.100, 872.968 77.491, 882.838 75.882, 892.708 74.273, 902.577 72.663, 912.447 71.054, 922.317 69.445, 932.186 67.835, 942.056 66.226, 951.926 64.617, 961.795 63.008, 971.665 61.398, 981.535 59.789, 991.404 58.180, 1001.274 56.571, 1011.144 54.961, 1021.013 53.352, 1030.883 51.743, 1040.753 50.134, 1050.622 48.524, 1060.492 46.915, 1070.362 45.306, 1080.231 43.696, 1090.101 42.087, 1099.970 40.478, 1109.840 38.869, 1119.710 37.259, 1129.579 35.650, 1139.449 34.041, 1149.319 32.432, 1159.188 30.822, 1169.058 29.213, 1178.928 27.604, 1188.797 25.995, 1198.667 24.385, 1208.537 23.596, 1213.378 " />
            <path fill="none" stroke-width="3.0" stroke-linecap="butt" stroke-opacity="1.0" stroke="rgb(0, 0, 0)" stroke-linejoin="round" d=" M 669.763, 1213.378 677.804, 1207.433 685.845, 1201.488 693.886, 1195.543 701.927, 1189.598 709.968, 1183.653 718.009, 1177.708 726.050, 1171.763 734.091, 1165.818 742.132, 1159.874 750.173, 1153.929 758.214, 1147.984 766.255, 1142.039 774.296, 1136.094 782.337, 1130.149 790.378, 1124.204 798.419, 1118.259 806.460, 1112.314 814.501, 1106.370 822.542, 1100.425 830.583, 1094.480 838.624, 1088.535 846.665, 1082.590 854.706, 1076.645 862.748, 1070.700 870.789, 1064.755 878.830, 1058.811 886.871, 1052.866 894.912, 1046.921 902.953, 1040.976 910.994, 1035.031 919.035, 1029.086 927.076, 1023.141 935.117, 1017.196 943.158, 1011.251 951.199, 1005.307 959.240, 999.362 967.281, 993.417 975.322, 987.472 983.363, 981.527 987.014, 978.828 " />
            <path fill="none" stroke-width="3.0" stroke-linecap="butt" stroke-opacity="1.0" stroke="rgb(0, 0, 0)" stroke-linejoin="round" d=" M 519.297, 429.849 516.778, 427.266 514.391, 424.562 512.141, 421.741 510.035, 418.812 508.077, 415.781 506.274, 412.656 504.627, 409.446 503.143, 406.156 501.825, 402.798 500.676, 399.378 499.699, 395.905 498.896, 392.387 498.270, 388.834 497.821, 385.254 497.552, 381.656 497.461, 378.050 497.552, 374.442 497.821, 370.845 498.270, 367.265 498.896, 363.712 499.699, 360.194 500.676, 356.721 501.825, 353.301 503.143, 349.942 504.627, 346.653 506.274, 343.443 508.077, 340.318 510.035, 337.287 512.141, 334.359 514.391, 331.538 516.778, 328.832 519.297, 326.250 521.942, 323.796 524.706, 321.476 527.582, 319.297 530.563, 317.265 533.641, 315.384 536.810, 313.658 540.061, 312.093 543.385, 310.692 546.776, 309.457 550.223, 308.394 553.720, 307.504 557.256, 306.789 560.824, 306.251 564.414, 305.891 568.017, 305.712 571.626, 305.712 575.229, 305.891 578.819, 306.251 582.387, 306.789 585.923, 307.504 589.419, 308.394 592.867, 309.457 596.258, 310.692 599.582, 312.093 602.833, 313.658 606.001, 315.384 609.080, 317.265 612.061, 319.297 614.937, 321.476 617.701, 323.796 620.346, 326.250 622.865, 328.832 625.252, 331.538 627.502, 334.359 629.608, 337.287 631.566, 340.318 633.370, 343.443 635.016, 346.653 636.499, 349.942 637.818, 353.301 638.967, 356.721 639.944, 360.194 640.747, 363.712 641.373, 367.265 641.822, 370.845 642.092, 374.442 642.182, 378.050 642.092, 381.656 641.822, 385.254 641.373, 388.834 640.747, 392.387 639.944, 395.905 638.967, 399.378 637.818, 402.798 636.499, 406.156 635.016, 409.446 633.370, 412.656 631.566, 415.781 629.608, 418.812 627.502, 421.741 625.252, 424.562 622.865, 427.266 620.346, 429.849 617.701, 432.304 614.937, 434.623 612.061, 436.801 609.080, 438.834 606.001, 440.715 602.833, 442.440 599.582, 444.006 596.258, 445.408 592.867, 446.641 589.419, 447.705 585.923, 448.596 582.387, 449.310 578.819, 449.848 575.229, 450.207 571.626, 450.387 568.017, 450.387 564.414, 450.207 560.824, 449.848 557.256, 449.310 553.720, 448.596 550.223, 447.705 546.776, 446.641 543.385, 445.408 540.061, 444.006 536.810, 442.440 533.641, 440.715 530.563, 438.834 527.582, 436.801 524.706, 434.623 521.942, 432.304 519.297, 429.849 " />
        </g>
    </g>
<g id="slice-labels"><text x="539.0105" y="321.06924999999995" text-anchor="middle" dominant-baseline="middle" font-family="Arial, sans-serif" font-size="59.069421172604685" font-weight="bold" fill="black" stroke="none" stroke-width="7.088330540712562" paint-order="stroke fill">Slice2 (Back)</text><text x="539.0105" y="915.94175" text-anchor="middle" dominant-baseline="middle" font-family="Arial, sans-serif" font-size="59.069421172604685" font-weight="bold" fill="black" stroke="none" stroke-width="7.088330540712562" paint-order="stroke fill">Slice2 (Back)</text></g></svg>