<?xml version='1.0' encoding='utf-8'?>
<svg xmlns="http://www.w3.org/2000/svg" xmlns:inkscape="http://www.inkscape.org/namespaces/inkscape" version="1.1" width="229.58832168579102mm" height="143.90169763565063mm" viewBox="-0.13423371568804043 0.00476705098627761 2712.2684674313764 1699.9994658980274" preserveAspectRatio="none">
    <g id="ViewLayer_LineSet" inkscape:groupmode="lineset" inkscape:label="ViewLayer_LineSet">
        <g inkscape:groupmode="layer" id="strokes" inkscape:label="strokes">
            <path fill="none" stroke-width="3.0" stroke-linecap="butt" stroke-opacity="1.0" stroke="rgb(0, 0, 0)" stroke-linejoin="round" d=" M 1745.012, 1320.324 1742.493, 1317.741 1740.106, 1315.036 1737.856, 1312.215 1735.750, 1309.285 1733.793, 1306.255 1731.989, 1303.130 1730.343, 1299.920 1728.859, 1296.631 1727.541, 1293.272 1726.392, 1289.853 1725.415, 1286.380 1724.612, 1282.862 1723.985, 1279.310 1723.537, 1275.729 1723.267, 1272.132 1723.177, 1268.525 1723.267, 1264.918 1723.537, 1261.320 1723.985, 1257.740 1724.612, 1254.187 1725.415, 1250.669 1726.392, 1247.197 1727.541, 1243.776 1728.859, 1240.418 1730.343, 1237.130 1731.989, 1233.919 1733.793, 1230.795 1735.750, 1227.764 1737.856, 1224.834 1740.106, 1222.014 1742.493, 1219.308 1745.012, 1216.725 1747.657, 1214.272 1750.421, 1211.953 1753.297, 1209.774 1756.278, 1207.742 1759.357, 1205.861 1762.525, 1204.134 1765.776, 1202.569 1769.100, 1201.169 1772.490, 1199.934 1775.938, 1198.871 1779.434, 1197.981 1782.971, 1197.265 1786.538, 1196.728 1790.128, 1196.369 1793.732, 1196.189 1797.339, 1196.189 1800.943, 1196.369 1804.533, 1196.728 1808.100, 1197.265 1811.637, 1197.981 1815.133, 1198.871 1818.581, 1199.934 1821.971, 1201.169 1825.295, 1202.569 1828.547, 1204.134 1831.715, 1205.861 1834.793, 1207.742 1837.774, 1209.774 1840.650, 1211.953 1843.414, 1214.272 1846.059, 1216.725 1848.578, 1219.308 1850.965, 1222.014 1853.215, 1224.834 1855.321, 1227.764 1857.278, 1230.795 1859.082, 1233.919 1860.728, 1237.130 1862.212, 1240.418 1863.530, 1243.776 1864.679, 1247.197 1865.656, 1250.669 1866.459, 1254.187 1867.086, 1257.740 1867.534, 1261.320 1867.804, 1264.918 1867.894, 1268.525 1867.804, 1272.132 1867.534, 1275.729 1867.086, 1279.310 1866.459, 1282.862 1865.656, 1286.380 1864.679, 1289.853 1863.530, 1293.272 1862.212, 1296.631 1860.728, 1299.920 1859.082, 1303.130 1857.278, 1306.255 1855.321, 1309.285 1853.215, 1312.215 1850.965, 1315.036 1848.578, 1317.741 1846.059, 1320.324 1843.414, 1322.777 1840.650, 1325.097 1837.774, 1327.276 1834.793, 1329.308 1831.715, 1331.188 1828.547, 1332.914 1825.295, 1334.480 1821.971, 1335.882 1818.581, 1337.115 1815.133, 1338.179 1811.637, 1339.069 1808.100, 1339.783 1804.533, 1340.321 1800.943, 1340.680 1797.339, 1340.861 1793.732, 1340.861 1790.128, 1340.680 1786.538, 1340.321 1782.971, 1339.783 1779.434, 1339.069 1775.938, 1338.179 1772.490, 1337.115 1769.100, 1335.882 1765.776, 1334.480 1762.525, 1332.914 1759.357, 1331.188 1756.278, 1329.308 1753.297, 1327.276 1750.421, 1325.097 1747.657, 1322.777 1745.012, 1320.324 " />
            <path fill="none" stroke-width="3.0" stroke-linecap="butt" stroke-opacity="1.0" stroke="rgb(0, 0, 0)" stroke-linejoin="round" d=" M 2202.696, 1676.368 2192.696, 1676.368 2182.696, 1676.368 2172.696, 1676.368 2162.696, 1676.368 2152.696, 1676.368 2142.696, 1676.368 2132.696, 1676.368 2122.696, 1676.368 2112.696, 1676.368 2102.696, 1676.368 2092.696, 1676.368 2082.696, 1676.368 2072.696, 1676.368 2062.696, 1676.368 2052.696, 1676.368 2042.696, 1676.368 2038.841, 1676.368 2036.124, 1676.368 2033.474, 1676.368 2030.899, 1676.368 2028.408, 1676.368 2026.007, 1676.368 " />
            <path fill="none" stroke-width="3.0" stroke-linecap="butt" stroke-opacity="1.0" stroke="rgb(0, 0, 0)" stroke-linejoin="round" d=" M 2688.507, 1676.365 2678.507, 1676.365 2668.507, 1676.365 2658.507, 1676.366 2648.507, 1676.366 2638.507, 1676.366 2628.507, 1676.366 2618.507, 1676.366 2608.507, 1676.366 2598.507, 1676.366 2588.507, 1676.366 2578.507, 1676.366 2568.507, 1676.366 2558.507, 1676.366 2548.507, 1676.366 2538.507, 1676.366 2528.507, 1676.366 2520.813, 1676.366 2510.813, 1676.366 2500.813, 1676.366 2490.813, 1676.366 2480.813, 1676.366 2470.813, 1676.366 2460.813, 1676.366 2450.813, 1676.366 2440.813, 1676.366 2430.813, 1676.367 2420.813, 1676.367 2410.813, 1676.367 2400.813, 1676.367 2390.813, 1676.367 2380.813, 1676.367 2370.813, 1676.367 2360.813, 1676.367 2350.813, 1676.367 2340.813, 1676.367 2330.813, 1676.367 2320.813, 1676.367 2310.813, 1676.367 2300.813, 1676.367 2290.813, 1676.367 2280.813, 1676.367 2270.813, 1676.367 2260.813, 1676.367 2250.813, 1676.367 2240.813, 1676.367 2230.813, 1676.367 2223.126, 1676.368 2220.402, 1676.368 2217.710, 1676.368 2215.057, 1676.368 " />
            <path fill="none" stroke-width="3.0" stroke-linecap="butt" stroke-opacity="1.0" stroke="rgb(0, 0, 0)" stroke-linejoin="round" d=" M 2592.206, 836.002 2592.939, 826.029 2593.673, 816.055 2594.406, 806.082 2595.139, 796.109 2595.873, 786.136 2596.606, 776.163 2597.339, 766.190 2598.073, 756.217 2598.806, 746.244 2599.539, 736.271 2600.272, 726.298 2601.006, 716.325 2601.739, 706.352 2602.472, 696.378 2603.206, 686.405 2603.939, 676.432 2604.672, 666.459 2605.405, 656.486 2606.139, 646.513 2606.872, 636.540 2607.605, 626.567 2608.338, 616.594 2609.072, 606.621 2609.805, 596.648 2610.538, 586.675 2611.271, 576.702 2612.005, 566.728 2612.738, 556.755 2613.471, 546.782 2614.205, 536.809 2614.938, 526.836 2615.671, 516.863 2616.405, 506.890 2617.138, 496.917 2617.871, 486.944 2618.604, 476.971 2619.338, 466.998 2620.071, 457.025 2620.573, 450.200 2619.494, 440.259 2618.416, 430.317 2617.338, 420.375 2616.259, 410.434 2615.181, 400.492 2614.102, 390.550 2613.024, 380.609 2611.946, 370.667 2610.867, 360.725 2609.789, 350.783 2608.710, 340.842 2607.632, 330.900 2606.554, 320.958 2605.475, 311.017 2604.397, 301.075 2603.318, 291.133 2602.240, 281.192 2601.162, 271.250 2600.083, 261.308 2599.005, 251.367 2597.927, 241.425 2596.848, 231.483 2595.770, 221.542 2594.691, 211.600 2593.613, 201.658 2592.534, 191.717 2591.456, 181.775 2590.378, 171.833 2589.686, 165.458 " />
            <path fill="none" stroke-width="3.0" stroke-linecap="butt" stroke-opacity="1.0" stroke="rgb(0, 0, 0)" stroke-linejoin="round" d=" M 83.067, 83.376 84.182, 93.314 85.296, 103.252 86.411, 113.190 87.525, 123.127 88.640, 133.065 89.754, 143.003 90.868, 152.940 91.983, 162.878 93.097, 172.816 94.212, 182.754 95.326, 192.691 96.441, 202.629 97.555, 212.567 98.670, 222.504 99.784, 232.442 100.899, 242.380 102.013, 252.318 103.128, 262.255 104.242, 272.193 105.357, 282.131 106.471, 292.068 107.585, 302.006 108.700, 311.944 109.814, 321.881 110.929, 331.819 112.043, 341.757 113.158, 351.695 114.272, 361.632 115.387, 371.570 116.501, 381.508 117.616, 391.445 118.730, 401.383 119.845, 411.321 120.959, 421.258 122.073, 431.196 123.188, 441.134 124.302, 451.072 125.417, 461.009 126.531, 470.947 127.646, 480.885 128.297, 486.689 126.767, 496.571 125.237, 506.454 123.707, 516.336 122.177, 526.218 120.647, 536.101 119.117, 545.983 117.587, 555.865 116.058, 565.747 114.528, 575.630 112.998, 585.512 111.468, 595.394 109.938, 605.276 108.408, 615.159 106.878, 625.041 105.348, 634.923 103.819, 644.806 102.289, 654.688 100.759, 664.570 99.229, 674.453 97.699, 684.335 96.169, 694.217 94.639, 704.099 93.109, 713.982 91.579, 723.864 90.050, 733.746 88.520, 743.628 86.990, 753.511 85.460, 763.393 83.930, 773.275 82.400, 783.158 80.870, 793.040 79.340, 802.922 77.810, 812.804 76.281, 822.687 74.751, 832.569 73.221, 842.451 71.691, 852.334 70.161, 862.216 68.631, 872.098 67.101, 881.980 65.571, 891.863 64.041, 901.745 62.512, 911.627 60.982, 921.509 59.452, 931.392 57.922, 941.274 56.392, 951.156 54.862, 961.039 53.332, 970.921 51.802, 980.803 50.272, 990.685 48.743, 1000.568 47.213, 1010.450 45.683, 1020.332 44.153, 1030.215 42.623, 1040.097 41.093, 1049.979 39.563, 1059.861 38.033, 1069.744 36.503, 1079.626 34.974, 1089.508 33.444, 1099.391 31.914, 1109.273 30.384, 1119.155 28.854, 1129.037 27.324, 1138.920 25.794, 1148.802 23.493, 1163.669 " />
            <path fill="none" stroke-width="3.0" stroke-linecap="butt" stroke-opacity="1.0" stroke="rgb(0, 0, 0)" stroke-linejoin="round" d=" M 2589.686, 165.458 2586.981, 155.830 2584.276, 146.203 2581.571, 136.576 2578.866, 126.949 2576.161, 117.321 2573.456, 107.694 2570.751, 98.067 2568.046, 88.440 2565.341, 78.813 2562.636, 69.185 2559.931, 59.558 2557.226, 49.931 2554.521, 40.304 2551.816, 30.677 2549.837, 23.632 2539.837, 23.632 2529.837, 23.632 2519.837, 23.632 2509.837, 23.632 2499.837, 23.632 2489.837, 23.632 2479.837, 23.632 2469.837, 23.632 2459.837, 23.632 2449.837, 23.632 2442.328, 23.632 2441.693, 23.632 2441.058, 23.632 2440.427, 23.632 2439.799, 23.632 2439.178, 23.632 2438.566, 23.632 2437.965, 23.632 2437.377, 23.632 2436.803, 23.632 2436.248, 23.632 2426.248, 23.632 2416.248, 23.632 2406.248, 23.632 2396.248, 23.632 2386.248, 23.632 2376.248, 23.632 2366.248, 23.632 2356.248, 23.632 2346.248, 23.632 2336.248, 23.632 2326.248, 23.632 2316.629, 23.632 2315.066, 23.632 2313.514, 23.632 2311.978, 23.632 2310.464, 23.632 2300.464, 23.632 2290.464, 23.632 2280.464, 23.632 2270.464, 23.632 2260.464, 23.632 2250.464, 23.632 2240.464, 23.632 2230.464, 23.632 2220.464, 23.632 2210.464, 23.632 2200.464, 23.632 2190.464, 23.632 2180.464, 23.632 2170.464, 23.632 2160.464, 23.632 2150.464, 23.632 2140.464, 23.632 2130.464, 23.632 2120.464, 23.632 2110.464, 23.632 2100.464, 23.632 2090.464, 23.632 2080.464, 23.632 2069.727, 23.632 2067.133, 23.632 2064.588, 23.632 2062.100, 23.632 2059.677, 23.632 2057.329, 23.632 2047.329, 23.632 2037.329, 23.632 2027.329, 23.632 2017.329, 23.632 2007.329, 23.632 1997.329, 23.632 1987.329, 23.632 1977.329, 23.632 1967.329, 23.632 1957.329, 23.632 1947.329, 23.632 1937.329, 23.632 1927.329, 23.632 1917.329, 23.632 1907.329, 23.632 1897.329, 23.632 1887.329, 23.632 1877.329, 23.632 1867.329, 23.632 1857.329, 23.632 1847.329, 23.632 1837.329, 23.632 1827.329, 23.632 1817.329, 23.632 1807.329, 23.632 1797.329, 23.632 1787.329, 23.632 1777.329, 23.632 1767.329, 23.632 1757.329, 23.632 1747.329, 23.632 1737.329, 23.632 1727.329, 23.632 1717.329, 23.632 1707.329, 23.632 1697.329, 23.632 1687.329, 23.632 1677.329, 23.632 1667.329, 23.632 1657.329, 23.632 1647.329, 23.632 1637.329, 23.632 1627.329, 23.632 1617.329, 23.632 1607.329, 23.632 1597.329, 23.632 1591.679, 23.632 1588.917, 23.632 1586.195, 23.632 1583.522, 23.632 1580.907, 23.632 1578.354, 23.632 1575.874, 23.632 1573.472, 23.632 1563.472, 23.632 1553.472, 23.632 1543.472, 23.632 1533.472, 23.632 1523.472, 23.632 1513.472, 23.632 1509.164, 23.632 1506.793, 23.632 1504.496, 23.632 1502.278, 23.632 1500.145, 23.632 1498.103, 23.632 1496.158, 23.632 1486.158, 23.632 1476.158, 23.632 1466.158, 23.632 1456.158, 23.632 1446.158, 23.632 1436.158, 23.632 1426.158, 23.632 1416.158, 23.632 1406.158, 23.632 1396.158, 23.632 1386.158, 23.632 1376.158, 23.632 1366.158, 23.632 1356.158, 23.632 1346.158, 23.632 1336.158, 23.632 1326.158, 23.632 1316.158, 23.632 1306.158, 23.632 1296.158, 23.632 1286.158, 23.632 1276.158, 23.632 1266.158, 23.632 1256.158, 23.632 1246.158, 23.632 1236.158, 23.632 1226.158, 23.632 1216.158, 23.632 1206.158, 23.632 1196.158, 23.632 1186.158, 23.632 1176.158, 23.632 1166.158, 23.632 1156.158, 23.632 1146.158, 23.632 1136.158, 23.632 1126.158, 23.632 1116.158, 23.632 1106.158, 23.632 1096.158, 23.632 1086.158, 23.632 1076.158, 23.632 1066.158, 23.632 1056.158, 23.632 1046.158, 23.632 1036.158, 23.632 1026.158, 23.632 1016.158, 23.632 1006.158, 23.632 996.158, 23.632 986.158, 23.632 976.158, 23.632 966.158, 23.632 956.158, 23.632 946.158, 23.632 936.158, 23.632 922.882, 23.632 920.518, 23.632 918.051, 23.632 915.487, 23.632 912.833, 23.632 902.833, 23.632 892.833, 23.632 882.833, 23.632 872.833, 23.632 862.833, 23.632 852.833, 23.632 842.833, 23.632 832.833, 23.632 822.833, 23.632 812.833, 23.632 802.833, 23.632 792.833, 23.632 782.833, 23.632 772.833, 23.632 762.833, 23.632 752.833, 23.632 742.833, 23.632 732.833, 23.632 722.833, 23.632 712.833, 23.632 702.833, 23.632 692.833, 23.632 682.833, 23.632 680.247, 23.632 677.739, 23.632 675.120, 23.632 672.399, 23.632 669.584, 23.632 659.584, 23.632 649.584, 23.632 639.584, 23.632 629.584, 23.632 619.584, 23.632 609.584, 23.632 599.584, 23.632 589.584, 23.632 579.584, 23.632 569.584, 23.632 559.584, 23.632 549.584, 23.632 539.584, 23.632 529.584, 23.632 519.584, 23.632 509.584, 23.632 499.584, 23.632 489.584, 23.632 479.584, 23.632 469.584, 23.632 459.584, 23.632 449.584, 23.632 439.584, 23.632 429.584, 23.632 419.584, 23.632 409.584, 23.632 399.584, 23.632 389.584, 23.632 379.584, 23.632 369.584, 23.632 359.584, 23.632 349.584, 23.632 339.584, 23.632 329.584, 23.632 319.584, 23.632 309.584, 23.632 299.584, 23.632 289.584, 23.632 279.584, 23.632 269.584, 23.632 259.584, 23.632 249.584, 23.632 239.584, 23.632 229.584, 23.632 219.584, 23.632 209.584, 23.632 199.584, 23.632 189.584, 23.632 179.584, 23.632 169.584, 23.632 159.584, 23.632 149.584, 23.632 139.584, 23.632 129.584, 23.632 119.584, 23.632 109.584, 23.632 99.584, 23.632 89.584, 23.632 79.584, 23.632 69.584, 23.632 58.286, 23.632 62.118, 32.869 65.949, 42.106 69.780, 51.343 73.611, 60.579 77.443, 69.816 81.274, 79.053 83.067, 83.376 " />
            <path fill="none" stroke-width="3.0" stroke-linecap="butt" stroke-opacity="1.0" stroke="rgb(0, 0, 0)" stroke-linejoin="round" d=" M 157.109, 1676.377 167.109, 1676.377 177.109, 1676.377 187.109, 1676.377 197.109, 1676.377 207.109, 1676.377 217.109, 1676.377 227.109, 1676.377 237.109, 1676.377 247.109, 1676.377 257.109, 1676.377 267.109, 1676.377 277.109, 1676.377 287.109, 1676.377 297.109, 1676.377 307.109, 1676.377 317.109, 1676.377 327.109, 1676.377 337.109, 1676.376 347.109, 1676.376 357.109, 1676.376 367.109, 1676.376 377.109, 1676.376 387.109, 1676.376 397.109, 1676.376 407.109, 1676.376 417.109, 1676.376 427.109, 1676.376 437.109, 1676.376 447.109, 1676.376 457.109, 1676.376 467.109, 1676.376 477.109, 1676.376 487.109, 1676.376 497.109, 1676.376 507.109, 1676.376 517.109, 1676.376 527.109, 1676.376 537.109, 1676.375 547.109, 1676.375 557.109, 1676.375 567.109, 1676.375 577.109, 1676.375 587.109, 1676.375 597.109, 1676.375 607.109, 1676.375 617.109, 1676.375 627.109, 1676.375 637.109, 1676.375 647.109, 1676.375 657.109, 1676.375 667.109, 1676.375 677.109, 1676.375 687.109, 1676.375 697.109, 1676.375 707.109, 1676.375 717.109, 1676.375 727.109, 1676.375 737.109, 1676.374 747.109, 1676.374 757.109, 1676.374 767.109, 1676.374 777.109, 1676.374 787.109, 1676.374 797.109, 1676.374 807.109, 1676.374 817.109, 1676.374 827.109, 1676.374 837.109, 1676.374 847.109, 1676.374 857.109, 1676.374 867.109, 1676.374 877.109, 1676.374 887.109, 1676.374 897.109, 1676.374 907.109, 1676.374 917.109, 1676.374 927.109, 1676.374 937.109, 1676.373 947.109, 1676.373 957.109, 1676.373 967.109, 1676.373 977.109, 1676.373 987.109, 1676.373 997.109, 1676.373 1007.109, 1676.373 1017.109, 1676.373 1027.109, 1676.373 1037.109, 1676.373 1047.109, 1676.373 1057.109, 1676.373 1067.109, 1676.373 1077.109, 1676.373 1087.109, 1676.373 1097.109, 1676.373 1107.109, 1676.373 1117.109, 1676.373 1127.109, 1676.373 1137.109, 1676.373 1147.109, 1676.372 1157.109, 1676.372 1167.109, 1676.372 1177.109, 1676.372 1187.109, 1676.372 1197.109, 1676.372 1207.109, 1676.372 1217.109, 1676.372 1227.109, 1676.372 1237.109, 1676.372 1247.109, 1676.372 1257.109, 1676.372 1267.109, 1676.372 1277.109, 1676.372 1287.109, 1676.372 1297.109, 1676.372 1307.109, 1676.372 1317.109, 1676.372 1327.109, 1676.372 1337.109, 1676.372 1347.109, 1676.371 1357.109, 1676.371 1367.109, 1676.371 1377.109, 1676.371 1387.109, 1676.371 1397.109, 1676.371 1407.109, 1676.371 1417.109, 1676.371 1430.409, 1676.371 1432.601, 1676.371 1435.417, 1676.371 1440.533, 1676.371 1445.745, 1676.371 1451.039, 1676.371 1456.402, 1676.371 1461.816, 1676.371 1467.269, 1676.371 1472.743, 1676.371 1478.224, 1676.371 1483.695, 1676.371 1489.140, 1676.371 1494.543, 1676.371 1495.346, 1676.371 1497.261, 1676.371 1499.888, 1676.371 1505.159, 1676.371 1510.338, 1676.371 1520.338, 1676.371 1530.338, 1676.371 1540.338, 1676.371 1550.338, 1676.371 1560.338, 1676.371 1570.338, 1676.371 1580.338, 1676.371 1590.338, 1676.371 1600.338, 1676.371 1610.338, 1676.371 1620.338, 1676.371 1630.338, 1676.371 1640.338, 1676.370 1650.338, 1676.370 1660.338, 1676.370 1670.338, 1676.370 1680.338, 1676.370 1690.338, 1676.370 1700.338, 1676.370 1710.338, 1676.370 1720.338, 1676.370 1730.338, 1676.370 1740.338, 1676.370 1750.338, 1676.370 1760.338, 1676.370 1770.338, 1676.370 1780.338, 1676.370 1790.338, 1676.370 1800.338, 1676.370 1810.338, 1676.370 1820.338, 1676.370 1830.338, 1676.370 1840.338, 1676.370 1850.338, 1676.370 1860.338, 1676.370 1870.338, 1676.369 1880.338, 1676.369 1890.338, 1676.369 1900.338, 1676.369 1910.338, 1676.369 1920.338, 1676.369 1930.338, 1676.369 1940.338, 1676.369 1950.338, 1676.369 1960.338, 1676.369 1970.338, 1676.369 1980.338, 1676.369 1993.290, 1676.369 1996.294, 1676.369 1997.440, 1676.369 1999.486, 1676.368 " />
            <path fill="none" stroke-width="3.0" stroke-linecap="butt" stroke-opacity="1.0" stroke="rgb(0, 0, 0)" stroke-linejoin="round" d=" M 1999.486, 1676.368 2002.855, 1676.368 2006.393, 1676.368 2010.086, 1676.368 2013.923, 1676.368 2017.891, 1676.368 2021.979, 1676.368 2026.172, 1676.368 2036.172, 1676.368 2046.172, 1676.368 2056.172, 1676.368 2066.172, 1676.368 2076.172, 1676.368 2086.172, 1676.368 2096.172, 1676.368 2106.172, 1676.368 2116.172, 1676.368 2126.172, 1676.368 2136.172, 1676.368 2146.172, 1676.368 2156.172, 1676.368 2166.172, 1676.368 2176.172, 1676.368 2183.265, 1676.368 2186.932, 1676.368 2190.731, 1676.368 2194.644, 1676.368 2198.659, 1676.368 2202.761, 1676.368 2206.934, 1676.368 2211.162, 1676.368 2215.430, 1676.368 2225.430, 1676.367 2235.430, 1676.367 2245.430, 1676.367 2255.430, 1676.367 2265.430, 1676.367 2275.430, 1676.367 2285.430, 1676.367 2295.430, 1676.367 2305.430, 1676.367 2315.430, 1676.367 2325.430, 1676.367 2335.430, 1676.367 2345.430, 1676.367 2355.430, 1676.367 2365.430, 1676.367 2375.430, 1676.367 2385.430, 1676.367 2395.430, 1676.367 2405.430, 1676.367 2415.430, 1676.367 2425.430, 1676.367 2435.430, 1676.366 2445.430, 1676.366 2455.430, 1676.366 2465.430, 1676.366 2475.430, 1676.366 2485.430, 1676.366 2495.430, 1676.366 2505.430, 1676.366 2511.694, 1676.366 2514.142, 1676.366 2524.142, 1676.366 2534.142, 1676.366 2544.142, 1676.366 2554.142, 1676.366 2564.142, 1676.366 2574.142, 1676.366 2584.142, 1676.366 2594.142, 1676.366 2604.142, 1676.366 2614.142, 1676.366 2624.142, 1676.366 2634.142, 1676.366 2644.142, 1676.366 2654.142, 1676.366 2664.142, 1676.366 2674.142, 1676.365 2684.142, 1676.365 2688.507, 1676.365 " />
            <path fill="none" stroke-width="3.0" stroke-linecap="butt" stroke-opacity="1.0" stroke="rgb(0, 0, 0)" stroke-linejoin="round" d=" M 1240.347, 392.988 1238.316, 391.285 1236.373, 389.482 1234.522, 387.585 " />
            <path fill="none" stroke-width="3.0" stroke-linecap="butt" stroke-opacity="1.0" stroke="rgb(0, 0, 0)" stroke-linejoin="round" d=" M 1246.911, 397.465 1244.649, 396.082 1242.459, 394.590 1240.347, 392.988 " />
            <path fill="none" stroke-width="3.0" stroke-linecap="butt" stroke-opacity="1.0" stroke="rgb(0, 0, 0)" stroke-linejoin="round" d=" M 1231.116, 383.525 1229.568, 381.373 1228.130, 379.146 1226.805, 376.850 1225.596, 374.492 " />
            <path fill="none" stroke-width="3.0" stroke-linecap="butt" stroke-opacity="1.0" stroke="rgb(0, 0, 0)" stroke-linejoin="round" d=" M 1254.070, 400.912 1251.628, 399.883 1249.239, 398.733 1246.911, 397.465 " />
            <path fill="none" stroke-width="3.0" stroke-linecap="butt" stroke-opacity="1.0" stroke="rgb(0, 0, 0)" stroke-linejoin="round" d=" M 1224.505, 372.075 1223.537, 369.608 1222.693, 367.095 1221.975, 364.544 1221.385, 361.959 1220.925, 359.349 1220.595, 356.719 1220.397, 354.076 1220.331, 351.426 1220.397, 348.776 " />
            <path fill="none" stroke-width="3.0" stroke-linecap="butt" stroke-opacity="1.0" stroke="rgb(0, 0, 0)" stroke-linejoin="round" d=" M 1220.397, 348.776 1220.595, 346.133 " />
            <path fill="none" stroke-width="3.0" stroke-linecap="butt" stroke-opacity="1.0" stroke="rgb(0, 0, 0)" stroke-linejoin="round" d=" M 1220.595, 346.133 1220.925, 343.502 1221.385, 340.892 1221.975, 338.308 " />
            <path fill="none" stroke-width="3.0" stroke-linecap="butt" stroke-opacity="1.0" stroke="rgb(0, 0, 0)" stroke-linejoin="round" d=" M 1561.939, 681.460 1559.420, 678.878 1557.032, 676.172 1554.783, 673.351 1552.677, 670.423 1550.719, 667.391 1548.915, 664.267 1547.269, 661.056 1545.786, 657.769 1544.467, 654.410 1543.318, 650.990 1542.341, 647.516 1541.538, 643.999 1540.912, 640.446 1540.463, 636.866 1540.193, 633.268 1540.104, 629.661 1540.193, 626.055 1540.463, 622.456 1540.912, 618.877 1541.538, 615.324 1542.341, 611.807 1543.318, 608.333 1544.467, 604.913 1545.786, 601.555 1547.269, 598.266 1548.915, 595.056 1550.719, 591.931 1552.677, 588.900 1554.783, 585.971 1557.032, 583.150 1559.420, 580.446 1561.939, 577.863 1564.583, 575.408 1567.347, 573.089 1570.223, 570.911 1573.204, 568.879 1576.283, 566.997 1579.451, 565.272 1582.702, 563.707 1586.026, 562.305 1589.417, 561.071 1592.864, 560.008 1596.361, 559.117 1599.897, 558.402 1603.465, 557.864 1607.055, 557.505 1610.658, 557.325 1614.266, 557.325 1617.869, 557.505 1621.459, 557.864 1625.027, 558.402 1628.564, 559.117 1632.059, 560.008 1635.507, 561.071 1638.898, 562.305 1642.222, 563.707 1645.473, 565.272 1648.641, 566.997 1651.720, 568.879 1654.701, 570.911 1657.577, 573.089 1660.341, 575.408 1662.985, 577.863 1665.505, 580.446 1667.892, 583.150 1670.141, 585.971 1672.247, 588.900 1674.205, 591.931 1676.009, 595.056 1677.655, 598.266 1679.139, 601.555 1680.457, 604.913 1681.606, 608.333 1682.583, 611.807 1683.386, 615.324 1684.012, 618.877 1684.461, 622.456 1684.730, 626.055 1684.821, 629.661 1684.730, 633.268 1684.461, 636.866 1684.012, 640.446 1683.386, 643.999 1682.583, 647.516 1681.606, 650.990 1680.457, 654.410 1679.139, 657.769 1677.655, 661.056 1676.009, 664.267 1674.205, 667.391 1672.247, 670.423 1670.141, 673.351 1667.892, 676.172 1665.505, 678.878 1662.985, 681.460 1660.341, 683.914 1657.577, 686.234 1654.701, 688.412 1651.720, 690.445 1648.641, 692.326 1645.473, 694.051 1642.222, 695.617 1638.898, 697.018 1635.507, 698.252 1632.059, 699.315 1628.564, 700.205 1625.027, 700.921 1621.459, 701.458 1617.869, 701.818 1614.266, 701.997 1610.658, 701.997 1607.055, 701.818 1603.465, 701.458 1599.897, 700.921 1596.361, 700.205 1592.864, 699.315 1589.417, 698.252 1586.026, 697.018 1582.702, 695.617 1579.451, 694.051 1576.283, 692.326 1573.204, 690.445 1570.223, 688.412 1567.347, 686.234 1564.583, 683.914 1561.939, 681.460 " />
            <path fill="none" stroke-width="3.0" stroke-linecap="butt" stroke-opacity="1.0" stroke="rgb(0, 0, 0)" stroke-linejoin="round" d=" M 1269.519, 404.438 1266.882, 404.174 1264.261, 403.779 1261.663, 403.254 1259.094, 402.600 1256.561, 401.818 1254.070, 400.912 " />
            <path fill="none" stroke-width="3.0" stroke-linecap="butt" stroke-opacity="1.0" stroke="rgb(0, 0, 0)" stroke-linejoin="round" d=" M 1221.975, 338.308 1222.693, 335.756 " />
            <path fill="none" stroke-width="3.0" stroke-linecap="butt" stroke-opacity="1.0" stroke="rgb(0, 0, 0)" stroke-linejoin="round" d=" M 1222.693, 335.756 1223.537, 333.244 1224.505, 330.776 1225.596, 328.360 " />
            <path fill="none" stroke-width="3.0" stroke-linecap="butt" stroke-opacity="1.0" stroke="rgb(0, 0, 0)" stroke-linejoin="round" d=" M 1285.322, 403.254 1282.723, 403.779 1280.103, 404.174 1277.465, 404.438 1274.818, 404.571 1272.167, 404.571 1269.519, 404.438 " />
            <path fill="none" stroke-width="3.0" stroke-linecap="butt" stroke-opacity="1.0" stroke="rgb(0, 0, 0)" stroke-linejoin="round" d=" M 1225.596, 328.360 1226.805, 326.001 1228.130, 323.705 1229.568, 321.479 1231.116, 319.327 1232.768, 317.255 1234.522, 315.267 " />
            <path fill="none" stroke-width="3.0" stroke-linecap="butt" stroke-opacity="1.0" stroke="rgb(0, 0, 0)" stroke-linejoin="round" d=" M 1304.524, 394.590 1302.335, 396.082 1300.073, 397.465 1297.745, 398.733 1295.357, 399.883 1292.914, 400.912 1290.424, 401.818 1287.890, 402.600 1285.322, 403.254 " />
            <path fill="none" stroke-width="3.0" stroke-linecap="butt" stroke-opacity="1.0" stroke="rgb(0, 0, 0)" stroke-linejoin="round" d=" M 1234.522, 315.267 1236.373, 313.369 " />
            <path fill="none" stroke-width="3.0" stroke-linecap="butt" stroke-opacity="1.0" stroke="rgb(0, 0, 0)" stroke-linejoin="round" d=" M 1236.373, 313.369 1238.316, 311.567 1240.347, 309.863 1242.459, 308.262 1244.649, 306.769 1246.911, 305.387 1249.239, 304.119 1251.628, 302.969 1254.070, 301.939 1256.561, 301.033 " />
            <path fill="none" stroke-width="3.0" stroke-linecap="butt" stroke-opacity="1.0" stroke="rgb(0, 0, 0)" stroke-linejoin="round" d=" M 1310.611, 389.482 1308.668, 391.285 1306.638, 392.988 1304.524, 394.590 " />
            <path fill="none" stroke-width="3.0" stroke-linecap="butt" stroke-opacity="1.0" stroke="rgb(0, 0, 0)" stroke-linejoin="round" d=" M 1256.561, 301.033 1259.094, 300.252 1261.663, 299.597 1264.261, 299.072 1266.882, 298.677 1269.519, 298.413 " />
            <path fill="none" stroke-width="3.0" stroke-linecap="butt" stroke-opacity="1.0" stroke="rgb(0, 0, 0)" stroke-linejoin="round" d=" M 1315.869, 383.525 1314.216, 385.597 1312.462, 387.585 1310.611, 389.482 " />
            <path fill="none" stroke-width="3.0" stroke-linecap="butt" stroke-opacity="1.0" stroke="rgb(0, 0, 0)" stroke-linejoin="round" d=" M 1325.599, 361.959 1325.009, 364.544 1324.292, 367.095 1323.447, 369.608 1322.479, 372.075 1321.389, 374.492 1320.180, 376.850 1318.854, 379.146 1317.416, 381.373 1315.869, 383.525 " />
            <path fill="none" stroke-width="3.0" stroke-linecap="butt" stroke-opacity="1.0" stroke="rgb(0, 0, 0)" stroke-linejoin="round" d=" M 1326.060, 343.502 1326.389, 346.133 1326.587, 348.776 1326.653, 351.426 1326.587, 354.076 " />
            <path fill="none" stroke-width="3.0" stroke-linecap="butt" stroke-opacity="1.0" stroke="rgb(0, 0, 0)" stroke-linejoin="round" d=" M 1320.180, 326.001 1321.389, 328.360 1322.479, 330.776 1323.447, 333.244 1324.292, 335.756 1325.009, 338.308 1325.599, 340.892 1326.060, 343.502 " />
            <path fill="none" stroke-width="3.0" stroke-linecap="butt" stroke-opacity="1.0" stroke="rgb(0, 0, 0)" stroke-linejoin="round" d=" M 1314.216, 317.255 1315.869, 319.327 1317.416, 321.479 1318.854, 323.705 1320.180, 326.001 " />
            <path fill="none" stroke-width="3.0" stroke-linecap="butt" stroke-opacity="1.0" stroke="rgb(0, 0, 0)" stroke-linejoin="round" d=" M 1292.914, 301.939 1295.357, 302.969 1297.745, 304.119 1300.073, 305.387 1302.335, 306.769 1304.524, 308.262 1306.638, 309.863 1308.668, 311.567 1310.611, 313.369 1312.462, 315.267 1314.216, 317.255 " />
            <path fill="none" stroke-width="3.0" stroke-linecap="butt" stroke-opacity="1.0" stroke="rgb(0, 0, 0)" stroke-linejoin="round" d=" M 1274.818, 298.281 1277.465, 298.413 1280.103, 298.677 1282.723, 299.072 1285.322, 299.597 1287.890, 300.252 1290.424, 301.033 1292.914, 301.939 " />
            <path fill="none" stroke-width="3.0" stroke-linecap="butt" stroke-opacity="1.0" stroke="rgb(0, 0, 0)" stroke-linejoin="round" d=" M 1272.167, 298.281 1274.818, 298.281 " />
            <path fill="none" stroke-width="3.0" stroke-linecap="butt" stroke-opacity="1.0" stroke="rgb(0, 0, 0)" stroke-linejoin="round" d=" M 1269.519, 298.413 1272.167, 298.281 " />
            <path fill="none" stroke-width="3.0" stroke-linecap="butt" stroke-opacity="1.0" stroke="rgb(0, 0, 0)" stroke-linejoin="round" d=" M 23.493, 1163.669 26.014, 1173.346 28.536, 1183.023 31.058, 1192.700 33.580, 1202.376 36.102, 1212.053 38.624, 1221.730 41.146, 1231.407 43.667, 1241.083 46.189, 1250.760 48.711, 1260.437 51.233, 1270.114 53.755, 1279.791 56.277, 1289.467 58.799, 1299.144 61.320, 1308.821 63.842, 1318.498 66.364, 1328.175 68.886, 1337.851 71.408, 1347.528 73.930, 1357.205 76.452, 1366.882 78.973, 1376.559 81.495, 1386.235 84.017, 1395.912 86.539, 1405.589 89.061, 1415.266 91.583, 1424.942 94.105, 1434.619 96.626, 1444.296 99.148, 1453.973 101.670, 1463.650 104.192, 1473.326 106.714, 1483.003 109.236, 1492.680 111.758, 1502.357 114.280, 1512.034 116.801, 1521.710 119.323, 1531.387 121.845, 1541.064 124.367, 1550.741 126.889, 1560.418 129.411, 1570.094 131.933, 1579.771 134.454, 1589.448 136.976, 1599.125 139.498, 1608.801 142.020, 1618.478 144.542, 1628.155 147.064, 1637.832 149.586, 1647.509 152.107, 1657.185 154.629, 1666.862 157.109, 1676.377 " />
            <path fill="none" stroke-width="3.0" stroke-linecap="butt" stroke-opacity="1.0" stroke="rgb(0, 0, 0)" stroke-linejoin="round" d=" M 1225.596, 374.492 1224.505, 372.075 " />
            <path fill="none" stroke-width="3.0" stroke-linecap="butt" stroke-opacity="1.0" stroke="rgb(0, 0, 0)" stroke-linejoin="round" d=" M 1232.768, 385.597 1231.116, 383.525 " />
            <path fill="none" stroke-width="3.0" stroke-linecap="butt" stroke-opacity="1.0" stroke="rgb(0, 0, 0)" stroke-linejoin="round" d=" M 1234.522, 387.585 1232.768, 385.597 " />
            <path fill="none" stroke-width="3.0" stroke-linecap="butt" stroke-opacity="1.0" stroke="rgb(0, 0, 0)" stroke-linejoin="round" d=" M 1326.060, 359.349 1325.599, 361.959 " />
            <path fill="none" stroke-width="3.0" stroke-linecap="butt" stroke-opacity="1.0" stroke="rgb(0, 0, 0)" stroke-linejoin="round" d=" M 1326.389, 356.719 1326.060, 359.349 " />
            <path fill="none" stroke-width="3.0" stroke-linecap="butt" stroke-opacity="1.0" stroke="rgb(0, 0, 0)" stroke-linejoin="round" d=" M 1326.587, 354.076 1326.389, 356.719 " />
            <path fill="none" stroke-width="3.0" stroke-linecap="butt" stroke-opacity="1.0" stroke="rgb(0, 0, 0)" stroke-linejoin="round" d=" M 157.109, 1676.377 167.109, 1676.377 177.109, 1676.377 187.109, 1676.377 197.109, 1676.377 207.109, 1676.377 217.109, 1676.377 227.109, 1676.377 237.109, 1676.377 247.109, 1676.377 257.109, 1676.377 267.109, 1676.377 277.109, 1676.377 287.109, 1676.377 297.109, 1676.377 307.109, 1676.377 317.109, 1676.377 327.109, 1676.377 337.109, 1676.377 347.109, 1676.376 357.109, 1676.376 367.109, 1676.376 377.109, 1676.376 387.109, 1676.376 397.109, 1676.376 407.109, 1676.376 417.109, 1676.376 427.109, 1676.376 437.109, 1676.376 447.109, 1676.376 457.109, 1676.376 467.109, 1676.376 477.109, 1676.376 487.109, 1676.376 497.109, 1676.376 507.109, 1676.376 517.109, 1676.376 527.109, 1676.376 537.109, 1676.376 547.109, 1676.376 557.109, 1676.375 567.109, 1676.375 577.109, 1676.375 587.109, 1676.375 597.109, 1676.375 607.109, 1676.375 617.109, 1676.375 627.109, 1676.375 637.109, 1676.375 647.109, 1676.375 657.109, 1676.375 667.109, 1676.375 677.109, 1676.375 687.109, 1676.375 697.109, 1676.375 707.109, 1676.375 717.109, 1676.375 727.109, 1676.375 737.109, 1676.375 747.109, 1676.375 757.109, 1676.375 767.109, 1676.374 777.109, 1676.374 787.109, 1676.374 797.109, 1676.374 807.109, 1676.374 817.109, 1676.374 827.109, 1676.374 837.109, 1676.374 847.109, 1676.374 857.109, 1676.374 867.109, 1676.374 877.109, 1676.374 887.109, 1676.374 897.109, 1676.374 907.109, 1676.374 917.109, 1676.374 927.109, 1676.374 937.109, 1676.374 947.109, 1676.374 957.109, 1676.374 967.109, 1676.374 977.109, 1676.373 987.109, 1676.373 997.109, 1676.373 1007.109, 1676.373 1017.109, 1676.373 1027.109, 1676.373 1037.109, 1676.373 1047.109, 1676.373 1057.109, 1676.373 1067.109, 1676.373 1077.109, 1676.373 1087.109, 1676.373 1097.109, 1676.373 1107.109, 1676.373 1117.109, 1676.373 1127.109, 1676.373 1137.109, 1676.373 1147.109, 1676.373 1157.109, 1676.373 1167.109, 1676.373 1177.109, 1676.373 1187.109, 1676.373 1197.109, 1676.372 1207.109, 1676.372 1217.109, 1676.372 1227.109, 1676.372 1237.109, 1676.372 1247.109, 1676.372 1257.109, 1676.372 1267.109, 1676.372 1277.109, 1676.372 1287.109, 1676.372 1297.109, 1676.372 1307.109, 1676.372 1317.109, 1676.372 1327.109, 1676.372 1337.109, 1676.372 1347.109, 1676.372 1357.109, 1676.372 1367.109, 1676.372 1377.109, 1676.372 1387.109, 1676.372 1397.109, 1676.372 1407.109, 1676.371 1417.109, 1676.371 1427.109, 1676.371 1437.109, 1676.371 1447.109, 1676.371 1457.109, 1676.371 1467.109, 1676.371 1477.109, 1676.371 1495.346, 1676.371 " />
            <path fill="none" stroke-width="3.0" stroke-linecap="butt" stroke-opacity="1.0" stroke="rgb(0, 0, 0)" stroke-linejoin="round" d=" M 157.109, 1676.377 167.109, 1676.377 177.109, 1676.377 187.109, 1676.377 197.109, 1676.377 207.109, 1676.377 217.109, 1676.377 227.109, 1676.377 237.109, 1676.377 247.109, 1676.377 257.109, 1676.377 267.109, 1676.377 277.109, 1676.377 287.109, 1676.377 297.109, 1676.377 307.109, 1676.377 317.109, 1676.377 327.109, 1676.377 337.109, 1676.377 347.109, 1676.377 357.109, 1676.376 367.109, 1676.376 377.109, 1676.376 387.109, 1676.376 397.109, 1676.376 407.109, 1676.376 417.109, 1676.376 427.109, 1676.376 437.109, 1676.376 447.109, 1676.376 457.109, 1676.376 467.109, 1676.376 477.109, 1676.376 487.109, 1676.376 497.109, 1676.376 507.109, 1676.376 517.109, 1676.376 527.109, 1676.376 537.109, 1676.376 547.109, 1676.376 557.109, 1676.376 567.109, 1676.375 577.109, 1676.375 587.109, 1676.375 597.109, 1676.375 607.109, 1676.375 617.109, 1676.375 627.109, 1676.375 637.109, 1676.375 647.109, 1676.375 657.109, 1676.375 667.109, 1676.375 677.109, 1676.375 687.109, 1676.375 697.109, 1676.375 707.109, 1676.375 717.109, 1676.375 727.109, 1676.375 737.109, 1676.375 747.109, 1676.375 757.109, 1676.375 767.109, 1676.375 777.109, 1676.375 787.109, 1676.374 797.109, 1676.374 807.109, 1676.374 817.109, 1676.374 827.109, 1676.374 837.109, 1676.374 847.109, 1676.374 857.109, 1676.374 867.109, 1676.374 877.109, 1676.374 887.109, 1676.374 897.109, 1676.374 907.109, 1676.374 917.109, 1676.374 927.109, 1676.374 937.109, 1676.374 947.109, 1676.374 957.109, 1676.374 967.109, 1676.374 977.109, 1676.374 987.109, 1676.374 997.109, 1676.374 1007.109, 1676.373 1017.109, 1676.373 1027.109, 1676.373 1037.109, 1676.373 1047.109, 1676.373 1057.109, 1676.373 1067.109, 1676.373 1077.109, 1676.373 1087.109, 1676.373 1097.109, 1676.373 1107.109, 1676.373 1117.109, 1676.373 1127.109, 1676.373 1137.109, 1676.373 1147.109, 1676.373 1157.109, 1676.373 1167.109, 1676.373 1177.109, 1676.373 1187.109, 1676.373 1197.109, 1676.373 1207.109, 1676.373 1217.109, 1676.373 1227.109, 1676.372 1237.109, 1676.372 1247.109, 1676.372 1257.109, 1676.372 1267.109, 1676.372 1277.109, 1676.372 1287.109, 1676.372 1297.109, 1676.372 1307.109, 1676.372 1317.109, 1676.372 1327.109, 1676.372 1337.109, 1676.372 1347.109, 1676.372 1357.109, 1676.372 1367.109, 1676.372 1377.109, 1676.372 1387.109, 1676.372 1397.109, 1676.372 1407.109, 1676.372 1417.109, 1676.372 1427.109, 1676.372 1437.109, 1676.372 1447.109, 1676.371 1457.109, 1676.371 1467.109, 1676.371 1477.109, 1676.371 1487.109, 1676.371 1497.109, 1676.371 1507.109, 1676.371 1517.109, 1676.371 1527.109, 1676.371 1537.109, 1676.371 1547.109, 1676.371 1557.109, 1676.371 1567.109, 1676.371 1577.109, 1676.371 1587.109, 1676.371 1597.109, 1676.371 1607.109, 1676.371 1617.109, 1676.371 1627.109, 1676.371 1637.109, 1676.371 1647.109, 1676.371 1657.109, 1676.370 1667.109, 1676.370 1677.109, 1676.370 1687.109, 1676.370 1697.109, 1676.370 1707.109, 1676.370 1717.109, 1676.370 1727.109, 1676.370 1737.109, 1676.370 1747.109, 1676.370 1757.109, 1676.370 1767.109, 1676.370 1777.109, 1676.370 1787.109, 1676.370 1797.109, 1676.370 1807.109, 1676.370 1817.109, 1676.370 1827.109, 1676.370 1837.109, 1676.370 1847.109, 1676.370 1857.109, 1676.370 1867.109, 1676.370 1877.109, 1676.369 1887.109, 1676.369 1897.109, 1676.369 1907.109, 1676.369 1917.109, 1676.369 1927.109, 1676.369 1937.109, 1676.369 1947.109, 1676.369 1957.109, 1676.369 1967.109, 1676.369 1977.109, 1676.369 1996.294, 1676.369 " />
            <path fill="none" stroke-width="3.0" stroke-linecap="butt" stroke-opacity="1.0" stroke="rgb(0, 0, 0)" stroke-linejoin="round" d=" M 1432.601, 1676.371 1422.601, 1676.371 1412.601, 1676.371 1402.601, 1676.371 1392.601, 1676.371 1382.601, 1676.371 1372.601, 1676.371 1362.601, 1676.371 1352.601, 1676.371 1342.601, 1676.371 1332.601, 1676.372 1322.601, 1676.372 1312.601, 1676.372 1302.601, 1676.372 1292.601, 1676.372 1282.601, 1676.372 1272.601, 1676.372 1262.601, 1676.372 1252.601, 1676.372 1242.601, 1676.372 1232.601, 1676.372 1222.601, 1676.372 1212.601, 1676.372 1202.601, 1676.372 1192.601, 1676.372 1182.601, 1676.372 1172.601, 1676.372 1162.601, 1676.372 1152.601, 1676.372 1142.601, 1676.372 1132.601, 1676.373 1122.601, 1676.373 1112.601, 1676.373 1102.601, 1676.373 1092.601, 1676.373 1082.601, 1676.373 1072.601, 1676.373 1062.601, 1676.373 1052.601, 1676.373 1042.601, 1676.373 1032.601, 1676.373 1022.601, 1676.373 1012.601, 1676.373 1002.601, 1676.373 992.601, 1676.373 982.601, 1676.373 972.601, 1676.373 962.601, 1676.373 952.601, 1676.373 942.601, 1676.373 932.601, 1676.374 922.601, 1676.374 912.601, 1676.374 902.601, 1676.374 892.601, 1676.374 882.601, 1676.374 872.601, 1676.374 862.601, 1676.374 852.601, 1676.374 842.601, 1676.374 832.601, 1676.374 822.601, 1676.374 812.601, 1676.374 802.601, 1676.374 792.601, 1676.374 782.601, 1676.374 772.601, 1676.374 762.601, 1676.374 752.601, 1676.374 742.601, 1676.374 732.601, 1676.375 722.601, 1676.375 712.601, 1676.375 702.601, 1676.375 692.601, 1676.375 682.601, 1676.375 672.601, 1676.375 662.601, 1676.375 652.601, 1676.375 642.601, 1676.375 632.601, 1676.375 622.601, 1676.375 612.601, 1676.375 602.601, 1676.375 592.601, 1676.375 582.601, 1676.375 572.601, 1676.375 562.601, 1676.375 552.601, 1676.375 542.601, 1676.375 532.601, 1676.376 522.601, 1676.376 512.601, 1676.376 502.601, 1676.376 492.601, 1676.376 482.601, 1676.376 472.601, 1676.376 462.601, 1676.376 452.601, 1676.376 442.601, 1676.376 432.601, 1676.376 422.601, 1676.376 412.601, 1676.376 402.601, 1676.376 392.601, 1676.376 382.601, 1676.376 372.601, 1676.376 362.601, 1676.376 352.601, 1676.376 342.601, 1676.376 332.601, 1676.377 322.601, 1676.377 312.601, 1676.377 302.601, 1676.377 292.601, 1676.377 282.601, 1676.377 272.601, 1676.377 262.601, 1676.377 252.601, 1676.377 242.601, 1676.377 232.601, 1676.377 222.601, 1676.377 212.601, 1676.377 202.601, 1676.377 192.601, 1676.377 182.601, 1676.377 172.601, 1676.377 157.109, 1676.377 " />
            <path fill="none" stroke-width="3.0" stroke-linecap="butt" stroke-opacity="1.0" stroke="rgb(0, 0, 0)" stroke-linejoin="round" d=" M 2594.588, 950.607 2594.380, 940.609 2594.172, 930.611 2593.964, 920.614 2593.757, 910.616 2593.549, 900.618 2593.341, 890.620 2593.133, 880.622 2592.926, 870.624 2592.718, 860.626 2592.510, 850.629 2592.302, 840.631 2592.206, 836.002 " />
            <path fill="none" stroke-width="3.0" stroke-linecap="butt" stroke-opacity="1.0" stroke="rgb(0, 0, 0)" stroke-linejoin="round" d=" M 2672.203, 1598.378 2671.013, 1588.449 2669.823, 1578.520 2668.634, 1568.591 2667.444, 1558.662 2666.254, 1548.733 2665.065, 1538.804 2663.875, 1528.875 2662.686, 1518.946 2661.496, 1509.017 2660.306, 1499.088 2659.116, 1489.159 2657.927, 1479.230 2656.737, 1469.301 2655.547, 1459.372 2654.358, 1449.443 2653.168, 1439.514 2651.978, 1429.585 2650.789, 1419.656 2649.599, 1409.727 2648.409, 1399.798 2647.219, 1389.869 2646.030, 1379.940 2644.840, 1370.011 2643.651, 1360.082 2642.461, 1350.153 2641.271, 1340.224 2640.082, 1330.295 2638.892, 1320.366 2637.702, 1310.437 2636.512, 1300.508 2635.323, 1290.579 2634.133, 1280.650 2632.943, 1270.721 2631.754, 1260.792 2630.564, 1250.863 2629.374, 1240.934 2628.185, 1231.005 2626.995, 1221.076 2625.805, 1211.147 2624.616, 1201.218 2623.426, 1191.289 2622.236, 1181.360 2621.047, 1171.431 2619.857, 1161.502 2618.667, 1151.573 2617.478, 1141.644 2616.288, 1131.716 2615.098, 1121.787 2613.908, 1111.858 2612.719, 1101.929 2611.529, 1092.000 2610.339, 1082.071 2609.150, 1072.142 2607.960, 1062.213 2606.771, 1052.284 2605.581, 1042.355 2604.391, 1032.426 2603.201, 1022.497 2602.012, 1012.568 2600.822, 1002.639 2599.632, 992.710 2598.443, 982.781 2597.253, 972.852 2596.063, 962.923 2594.588, 950.607 " />
            <path fill="none" stroke-width="3.0" stroke-linecap="butt" stroke-opacity="1.0" stroke="rgb(0, 0, 0)" stroke-linejoin="round" d=" M 1997.440, 1676.369 2007.440, 1676.369 2017.440, 1676.369 2027.440, 1676.369 2037.440, 1676.368 2047.440, 1676.368 2057.440, 1676.368 2067.440, 1676.368 2077.440, 1676.368 2087.440, 1676.368 2097.440, 1676.368 2107.440, 1676.368 2117.440, 1676.368 2127.440, 1676.368 2137.440, 1676.368 2147.440, 1676.368 2157.440, 1676.368 2167.440, 1676.368 2177.440, 1676.368 2187.440, 1676.368 2197.440, 1676.368 2207.440, 1676.368 2217.440, 1676.368 2227.440, 1676.368 2237.440, 1676.368 2247.440, 1676.367 2257.440, 1676.367 2267.440, 1676.367 2277.440, 1676.367 2287.440, 1676.367 2297.440, 1676.367 2307.440, 1676.367 2317.440, 1676.367 2327.440, 1676.367 2337.440, 1676.367 2347.440, 1676.367 2357.440, 1676.367 2367.440, 1676.367 2377.440, 1676.367 2387.440, 1676.367 2397.440, 1676.367 2407.440, 1676.367 2417.440, 1676.367 2427.440, 1676.367 2437.440, 1676.367 2447.440, 1676.367 2457.440, 1676.367 2467.440, 1676.366 2477.440, 1676.366 2487.440, 1676.366 2497.440, 1676.366 2507.440, 1676.366 2517.440, 1676.366 2527.440, 1676.366 2537.440, 1676.366 2547.440, 1676.366 2557.440, 1676.366 2567.440, 1676.366 2577.440, 1676.366 2587.440, 1676.366 2597.440, 1676.366 2607.440, 1676.366 2617.440, 1676.366 2627.440, 1676.366 2637.440, 1676.366 2647.440, 1676.366 2657.440, 1676.366 2667.440, 1676.366 2677.440, 1676.365 2688.507, 1676.365 " />
            <path fill="none" stroke-width="3.0" stroke-linecap="butt" stroke-opacity="1.0" stroke="rgb(0, 0, 0)" stroke-linejoin="round" d=" M 157.109, 1676.377 167.109, 1676.377 177.109, 1676.377 187.109, 1676.377 197.109, 1676.377 207.109, 1676.377 217.109, 1676.377 227.109, 1676.377 237.109, 1676.377 247.109, 1676.377 257.109, 1676.377 267.109, 1676.377 277.109, 1676.377 287.109, 1676.377 297.109, 1676.377 307.109, 1676.377 317.109, 1676.377 327.109, 1676.377 337.109, 1676.377 347.109, 1676.376 357.109, 1676.376 367.109, 1676.376 377.109, 1676.376 387.109, 1676.376 397.109, 1676.376 407.109, 1676.376 417.109, 1676.376 427.109, 1676.376 437.109, 1676.376 447.109, 1676.376 457.109, 1676.376 467.109, 1676.376 477.109, 1676.376 487.109, 1676.376 497.109, 1676.376 507.109, 1676.376 517.109, 1676.376 527.109, 1676.376 537.109, 1676.376 547.109, 1676.376 557.109, 1676.375 567.109, 1676.375 577.109, 1676.375 587.109, 1676.375 597.109, 1676.375 607.109, 1676.375 617.109, 1676.375 627.109, 1676.375 637.109, 1676.375 647.109, 1676.375 657.109, 1676.375 667.109, 1676.375 677.109, 1676.375 687.109, 1676.375 697.109, 1676.375 707.109, 1676.375 717.109, 1676.375 727.109, 1676.375 737.109, 1676.375 747.109, 1676.375 757.109, 1676.375 767.109, 1676.374 777.109, 1676.374 787.109, 1676.374 797.109, 1676.374 807.109, 1676.374 817.109, 1676.374 827.109, 1676.374 837.109, 1676.374 847.109, 1676.374 857.109, 1676.374 867.109, 1676.374 877.109, 1676.374 887.109, 1676.374 897.109, 1676.374 907.109, 1676.374 917.109, 1676.374 927.109, 1676.374 937.109, 1676.374 947.109, 1676.374 957.109, 1676.374 967.109, 1676.374 977.109, 1676.374 987.109, 1676.373 997.109, 1676.373 1007.109, 1676.373 1017.109, 1676.373 1027.109, 1676.373 1037.109, 1676.373 1047.109, 1676.373 1057.109, 1676.373 1067.109, 1676.373 1077.109, 1676.373 1087.109, 1676.373 1097.109, 1676.373 1107.109, 1676.373 1117.109, 1676.373 1127.109, 1676.373 1137.109, 1676.373 1147.109, 1676.373 1157.109, 1676.373 1167.109, 1676.373 1177.109, 1676.373 1187.109, 1676.373 1197.109, 1676.372 1207.109, 1676.372 1217.109, 1676.372 1227.109, 1676.372 1237.109, 1676.372 1247.109, 1676.372 1257.109, 1676.372 1267.109, 1676.372 1277.109, 1676.372 1287.109, 1676.372 1297.109, 1676.372 1307.109, 1676.372 1317.109, 1676.372 1327.109, 1676.372 1337.109, 1676.372 1347.109, 1676.372 1357.109, 1676.372 1367.109, 1676.372 1377.109, 1676.372 1387.109, 1676.372 1397.109, 1676.372 1407.109, 1676.371 1417.109, 1676.371 1427.109, 1676.371 1437.109, 1676.371 1447.109, 1676.371 1457.109, 1676.371 1467.109, 1676.371 1477.109, 1676.371 1497.261, 1676.371 " />
            <path fill="none" stroke-width="3.0" stroke-linecap="butt" stroke-opacity="1.0" stroke="rgb(0, 0, 0)" stroke-linejoin="round" d=" M 2688.507, 1676.365 2686.461, 1666.577 2684.415, 1656.789 2682.368, 1647.000 2680.322, 1637.212 2678.275, 1627.424 2676.229, 1617.635 2674.183, 1607.847 2672.203, 1598.378 " />
        </g>
    </g>
<g id="slice-labels"><text x="467.662" y="436.81825" text-anchor="middle" dominant-baseline="middle" font-family="Arial, sans-serif" font-size="59.06808237253431" font-weight="bold" fill="black" stroke="none" stroke-width="7.088169884704117" paint-order="stroke fill">Slice4 (Front)</text><text x="1356.0" y="436.81825" text-anchor="middle" dominant-baseline="middle" font-family="Arial, sans-serif" font-size="59.06808237253431" font-weight="bold" fill="black" stroke="none" stroke-width="7.088169884704117" paint-order="stroke fill">Slice4 (Front)</text><text x="2244.338" y="436.81825" text-anchor="middle" dominant-baseline="middle" font-family="Arial, sans-serif" font-size="59.06808237253431" font-weight="bold" fill="black" stroke="none" stroke-width="7.088169884704117" paint-order="stroke fill">Slice4 (Front)</text><text x="467.662" y="1263.19075" text-anchor="middle" dominant-baseline="middle" font-family="Arial, sans-serif" font-size="59.06808237253431" font-weight="bold" fill="black" stroke="none" stroke-width="7.088169884704117" paint-order="stroke fill">Slice4 (Front)</text><text x="1356.0" y="1263.19075" text-anchor="middle" dominant-baseline="middle" font-family="Arial, sans-serif" font-size="59.06808237253431" font-weight="bold" fill="black" stroke="none" stroke-width="7.088169884704117" paint-order="stroke fill">Slice4 (Front)</text><text x="2244.338" y="1263.19075" text-anchor="middle" dominant-baseline="middle" font-family="Arial, sans-serif" font-size="59.06808237253431" font-weight="bold" fill="black" stroke="none" stroke-width="7.088169884704117" paint-order="stroke fill">Slice4 (Front)</text></g></svg>