<?xml version='1.0' encoding='utf-8'?>
<svg xmlns="http://www.w3.org/2000/svg" xmlns:inkscape="http://www.inkscape.org/namespaces/inkscape" version="1.1" width="794.8659875392914mm" height="182.300142288208mm" viewBox="0.24961387349216224 0.004615035907175269 9387.520772253014 2152.9997699281857" preserveAspectRatio="none">
    <g id="ViewLayer_LineSet" inkscape:groupmode="lineset" inkscape:label="ViewLayer_LineSet">
        <g inkscape:groupmode="layer" id="strokes" inkscape:label="strokes">
            <path fill="none" stroke-width="3.0" stroke-linecap="butt" stroke-opacity="1.0" stroke="rgb(0, 0, 0)" stroke-linejoin="round" d=" M 58.787, 2076.764 56.958, 2086.596 55.130, 2096.427 53.301, 2106.258 51.472, 2116.090 49.644, 2125.921 49.000, 2129.384 59.000, 2129.384 69.000, 2129.384 79.000, 2129.384 89.000, 2129.384 99.000, 2129.384 109.000, 2129.384 119.000, 2129.384 129.000, 2129.384 139.000, 2129.384 149.000, 2129.384 159.000, 2129.384 169.000, 2129.384 174.469, 2129.384 184.469, 2129.384 194.469, 2129.384 204.469, 2129.384 214.469, 2129.384 224.469, 2129.384 234.469, 2129.384 244.469, 2129.384 254.469, 2129.384 264.469, 2129.384 274.469, 2129.384 284.469, 2129.384 294.469, 2129.384 304.469, 2129.384 314.469, 2129.384 324.469, 2129.384 334.469, 2129.384 344.469, 2129.384 354.469, 2129.384 364.469, 2129.384 374.469, 2129.384 384.469, 2129.384 394.469, 2129.384 404.469, 2129.384 407.959, 2129.384 417.959, 2129.384 427.959, 2129.384 437.959, 2129.384 447.959, 2129.384 457.959, 2129.384 467.959, 2129.384 477.959, 2129.384 487.959, 2129.384 497.959, 2129.384 507.959, 2129.384 517.959, 2129.384 527.959, 2129.384 537.959, 2129.384 547.959, 2129.384 557.959, 2129.384 567.959, 2129.384 577.959, 2129.384 587.959, 2129.384 597.959, 2129.384 607.959, 2129.384 617.959, 2129.384 627.959, 2129.384 637.959, 2129.384 647.959, 2129.384 657.959, 2129.384 667.959, 2129.384 677.959, 2129.384 687.959, 2129.384 697.959, 2129.384 707.959, 2129.384 717.959, 2129.384 727.959, 2129.384 737.959, 2129.384 747.959, 2129.384 757.959, 2129.384 767.959, 2129.384 777.959, 2129.384 787.959, 2129.384 797.959, 2129.384 807.959, 2129.384 817.959, 2129.384 827.959, 2129.384 837.959, 2129.384 847.959, 2129.384 857.959, 2129.384 867.959, 2129.384 877.959, 2129.384 887.959, 2129.384 897.959, 2129.384 907.959, 2129.384 917.959, 2129.384 927.959, 2129.384 937.959, 2129.384 947.959, 2129.384 957.959, 2129.384 967.959, 2129.384 977.959, 2129.384 987.959, 2129.384 997.959, 2129.384 1007.959, 2129.384 1017.959, 2129.384 1027.959, 2129.384 1037.959, 2129.384 1047.959, 2129.384 1057.959, 2129.384 1067.959, 2129.384 1077.959, 2129.384 1087.959, 2129.384 1097.959, 2129.384 1107.959, 2129.384 1117.959, 2129.384 1127.959, 2129.384 1137.959, 2129.384 1147.959, 2129.384 1157.959, 2129.384 1167.959, 2129.384 1177.959, 2129.384 1187.959, 2129.384 1197.959, 2129.384 1207.959, 2129.384 1217.959, 2129.384 1227.959, 2129.384 1237.959, 2129.384 1247.959, 2129.384 1257.959, 2129.384 1267.959, 2129.384 1277.959, 2129.384 1287.959, 2129.384 1297.959, 2129.384 1307.959, 2129.384 1317.959, 2129.384 1327.959, 2129.384 1337.959, 2129.384 1347.959, 2129.384 1357.959, 2129.384 1367.959, 2129.384 1377.959, 2129.384 1387.959, 2129.384 1397.959, 2129.384 1407.959, 2129.384 1417.959, 2129.384 1427.959, 2129.384 1437.959, 2129.384 1447.959, 2129.384 1457.959, 2129.384 1467.959, 2129.384 1477.959, 2129.384 1487.959, 2129.384 1497.959, 2129.384 1507.959, 2129.384 1517.959, 2129.384 1527.959, 2129.384 1537.959, 2129.384 1547.959, 2129.384 1557.959, 2129.384 1567.959, 2129.384 1577.959, 2129.384 1587.959, 2129.384 1597.959, 2129.384 1607.959, 2129.384 1617.959, 2129.384 1627.959, 2129.384 1637.959, 2129.384 1647.959, 2129.384 1657.959, 2129.384 1667.959, 2129.384 1677.959, 2129.384 1687.959, 2129.384 1697.959, 2129.384 1707.959, 2129.384 1717.959, 2129.384 1727.959, 2129.384 1737.959, 2129.384 1747.959, 2129.384 1757.959, 2129.384 1772.796, 2129.384 1780.051, 2129.384 " />
            <path fill="none" stroke-width="3.0" stroke-linecap="butt" stroke-opacity="1.0" stroke="rgb(0, 0, 0)" stroke-linejoin="round" d=" M 245.235, 23.651 244.418, 33.618 243.601, 43.584 242.783, 53.551 241.966, 63.518 241.148, 73.484 240.331, 83.450 239.513, 93.417 238.696, 103.384 237.879, 113.350 237.061, 123.317 236.244, 133.283 235.426, 143.250 234.609, 153.216 233.791, 163.183 232.974, 173.149 232.157, 183.116 231.339, 193.082 230.522, 203.049 229.704, 213.016 228.887, 222.982 228.069, 232.949 227.252, 242.915 226.435, 252.882 225.617, 262.848 224.800, 272.815 223.982, 282.781 223.165, 292.748 222.348, 302.714 221.530, 312.681 220.713, 322.647 219.895, 332.614 219.078, 342.580 218.260, 352.547 217.443, 362.514 216.626, 372.480 215.808, 382.447 214.991, 392.413 214.173, 402.380 213.356, 412.346 212.538, 422.313 211.721, 432.279 210.904, 442.246 210.086, 452.212 209.269, 462.179 208.451, 472.145 207.634, 482.112 206.816, 492.078 205.999, 502.045 205.182, 512.012 204.045, 525.871 202.581, 535.764 201.116, 545.656 199.652, 555.548 198.188, 565.440 196.724, 575.332 195.260, 585.225 193.795, 595.117 192.331, 605.009 190.867, 614.901 189.403, 624.794 187.939, 634.686 186.474, 644.578 185.010, 654.470 183.546, 664.362 182.082, 674.255 180.617, 684.147 179.153, 694.039 177.689, 703.931 176.225, 713.824 174.761, 723.716 173.296, 733.608 171.832, 743.500 170.368, 753.392 168.904, 763.285 167.440, 773.177 165.975, 783.069 164.511, 792.961 163.047, 802.854 161.583, 812.746 160.118, 822.638 158.654, 832.530 157.190, 842.422 155.726, 852.315 154.130, 863.093 155.437, 873.007 156.745, 882.921 158.052, 892.835 159.359, 902.750 159.455, 903.484 155.705, 912.755 151.955, 922.025 148.206, 931.295 144.617, 940.165 143.516, 950.104 142.414, 960.044 141.312, 969.983 140.210, 979.922 139.108, 989.861 138.006, 999.800 136.904, 1009.739 135.803, 1019.678 134.701, 1029.617 133.599, 1039.557 132.497, 1049.496 131.395, 1059.435 130.293, 1069.374 129.191, 1079.313 128.090, 1089.252 126.988, 1099.191 125.886, 1109.130 124.784, 1119.069 123.682, 1129.008 122.580, 1138.948 121.807, 1145.925 " />
            <path fill="none" stroke-width="3.0" stroke-linecap="butt" stroke-opacity="1.0" stroke="rgb(0, 0, 0)" stroke-linejoin="round" d=" M 121.807, 1145.925 119.938, 1155.749 118.069, 1165.572 116.199, 1175.396 114.330, 1185.220 112.461, 1195.044 110.592, 1204.867 108.723, 1214.691 106.854, 1224.515 104.985, 1234.339 103.116, 1244.163 101.247, 1253.986 99.377, 1263.810 97.508, 1273.634 95.639, 1283.458 93.770, 1293.281 91.901, 1303.105 90.032, 1312.929 88.163, 1322.753 86.294, 1332.576 84.424, 1342.400 82.555, 1352.224 80.686, 1362.048 78.817, 1371.872 76.948, 1381.695 75.079, 1391.519 73.210, 1401.343 71.341, 1411.167 69.472, 1420.990 67.602, 1430.814 65.733, 1440.638 63.864, 1450.462 61.995, 1460.285 60.126, 1470.109 58.257, 1479.933 56.388, 1489.757 54.519, 1499.581 52.650, 1509.404 50.780, 1519.228 48.911, 1529.052 47.042, 1538.876 45.173, 1548.699 43.304, 1558.523 41.435, 1568.347 39.566, 1578.171 37.697, 1587.994 35.827, 1597.818 33.958, 1607.642 32.089, 1617.466 30.220, 1627.289 28.351, 1637.113 26.482, 1646.937 23.870, 1660.664 24.706, 1670.629 25.543, 1680.594 26.379, 1690.559 27.215, 1700.524 28.051, 1710.489 28.887, 1720.454 29.724, 1730.419 30.560, 1740.384 31.396, 1750.349 32.232, 1760.314 33.068, 1770.279 33.905, 1780.244 34.741, 1790.208 35.577, 1800.173 36.413, 1810.138 37.249, 1820.103 38.086, 1830.068 38.922, 1840.033 39.758, 1849.998 40.594, 1859.963 41.430, 1869.928 42.267, 1879.893 43.103, 1889.858 43.939, 1899.823 44.775, 1909.788 45.611, 1919.753 46.448, 1929.718 47.284, 1939.683 48.120, 1949.648 48.956, 1959.613 49.792, 1969.578 50.629, 1979.543 51.465, 1989.508 52.301, 1999.473 53.137, 2009.438 53.973, 2019.403 54.810, 2029.368 55.646, 2039.333 56.482, 2049.298 57.318, 2059.263 58.154, 2069.228 58.787, 2076.764 " />
            <path fill="none" stroke-width="3.0" stroke-linecap="butt" stroke-opacity="1.0" stroke="rgb(0, 0, 0)" stroke-linejoin="round" d=" M 1780.051, 2129.384 1780.286, 2119.387 1780.521, 2109.389 1780.756, 2099.392 1780.991, 2089.395 1781.226, 2079.398 1781.461, 2069.400 1781.696, 2059.403 1781.931, 2049.406 1782.167, 2039.409 1782.401, 2029.411 1782.636, 2019.414 1782.872, 2009.417 1783.107, 1999.420 1783.342, 1989.423 1783.577, 1979.425 1783.812, 1969.428 1784.047, 1959.431 1784.282, 1949.434 1784.517, 1939.436 1784.752, 1929.439 1784.987, 1919.442 1785.222, 1909.445 1785.457, 1899.447 1785.692, 1889.450 1785.927, 1879.453 1786.162, 1869.456 1786.397, 1859.458 1786.632, 1849.461 1786.867, 1839.464 1787.102, 1829.467 1787.337, 1819.469 1787.572, 1809.472 1787.807, 1799.475 1788.042, 1789.478 1788.277, 1779.480 1788.512, 1769.483 1788.747, 1759.486 1788.982, 1749.489 1789.217, 1739.492 1789.452, 1729.494 1789.687, 1719.497 1789.922, 1709.500 1790.157, 1699.503 1790.392, 1689.505 1790.627, 1679.508 1790.862, 1669.511 1791.098, 1659.514 1791.333, 1649.516 1791.568, 1639.519 1791.803, 1629.522 1792.054, 1618.806 " />
            <path fill="none" stroke-width="3.0" stroke-linecap="butt" stroke-opacity="1.0" stroke="rgb(0, 0, 0)" stroke-linejoin="round" d=" M 1464.060, 678.727 1461.871, 677.234 1459.759, 675.634 1457.729, 673.930 1455.786, 672.128 " />
            <path fill="none" stroke-width="3.0" stroke-linecap="butt" stroke-opacity="1.0" stroke="rgb(0, 0, 0)" stroke-linejoin="round" d=" M 1455.786, 672.128 1453.936, 670.231 1452.182, 668.244 1450.530, 666.173 1448.983, 664.021 1447.545, 661.795 1446.221, 659.500 1445.012, 657.142 " />
            <path fill="none" stroke-width="3.0" stroke-linecap="butt" stroke-opacity="1.0" stroke="rgb(0, 0, 0)" stroke-linejoin="round" d=" M 1471.036, 682.525 1468.649, 681.376 1466.322, 680.109 1464.060, 678.727 " />
            <path fill="none" stroke-width="3.0" stroke-linecap="butt" stroke-opacity="1.0" stroke="rgb(0, 0, 0)" stroke-linejoin="round" d=" M 1478.501, 685.242 1475.968, 684.461 1473.478, 683.554 1471.036, 682.525 " />
            <path fill="none" stroke-width="3.0" stroke-linecap="butt" stroke-opacity="1.0" stroke="rgb(0, 0, 0)" stroke-linejoin="round" d=" M 1486.286, 686.816 1483.666, 686.421 1481.069, 685.896 1478.501, 685.242 " />
            <path fill="none" stroke-width="3.0" stroke-linecap="butt" stroke-opacity="1.0" stroke="rgb(0, 0, 0)" stroke-linejoin="round" d=" M 1441.392, 647.197 1440.802, 644.614 1440.342, 642.004 1440.013, 639.375 1439.815, 636.732 1439.749, 634.083 1439.815, 631.434 " />
            <path fill="none" stroke-width="3.0" stroke-linecap="butt" stroke-opacity="1.0" stroke="rgb(0, 0, 0)" stroke-linejoin="round" d=" M 1545.974, 636.732 1545.776, 639.375 1545.447, 642.004 1544.987, 644.614 1544.397, 647.197 1543.679, 649.748 1542.835, 652.260 1541.867, 654.727 1540.777, 657.142 1539.568, 659.500 1538.244, 661.795 1536.806, 664.021 1535.259, 666.173 1533.607, 668.244 1531.853, 670.231 1530.003, 672.128 1528.061, 673.930 1526.030, 675.634 1523.918, 677.234 1521.729, 678.727 1519.468, 680.109 1517.140, 681.376 1514.753, 682.525 1512.311, 683.554 1509.821, 684.461 1507.289, 685.242 1504.721, 685.896 1502.124, 686.421 1499.503, 686.816 1496.866, 687.080 1494.219, 687.212 1491.570, 687.212 " />
            <path fill="none" stroke-width="3.0" stroke-linecap="butt" stroke-opacity="1.0" stroke="rgb(0, 0, 0)" stroke-linejoin="round" d=" M 1439.815, 631.434 1440.013, 628.791 " />
            <path fill="none" stroke-width="3.0" stroke-linecap="butt" stroke-opacity="1.0" stroke="rgb(0, 0, 0)" stroke-linejoin="round" d=" M 1440.013, 628.791 1440.342, 626.162 " />
            <path fill="none" stroke-width="3.0" stroke-linecap="butt" stroke-opacity="1.0" stroke="rgb(0, 0, 0)" stroke-linejoin="round" d=" M 1440.342, 626.162 1440.802, 623.552 1441.392, 620.969 1442.110, 618.418 1442.954, 615.906 " />
            <path fill="none" stroke-width="3.0" stroke-linecap="butt" stroke-opacity="1.0" stroke="rgb(0, 0, 0)" stroke-linejoin="round" d=" M 1442.954, 615.906 1443.922, 613.439 1445.012, 611.024 1446.221, 608.666 " />
            <path fill="none" stroke-width="3.0" stroke-linecap="butt" stroke-opacity="1.0" stroke="rgb(0, 0, 0)" stroke-linejoin="round" d=" M 274.971, 23.651 274.859, 23.651 274.742, 23.651 274.621, 23.651 274.498, 23.651 274.372, 23.651 274.243, 23.651 274.113, 23.651 273.981, 23.651 273.848, 23.651 273.714, 23.651 273.580, 23.651 273.446, 23.651 273.312, 23.651 273.179, 23.651 263.179, 23.651 253.179, 23.651 245.235, 23.651 " />
            <path fill="none" stroke-width="3.0" stroke-linecap="butt" stroke-opacity="1.0" stroke="rgb(0, 0, 0)" stroke-linejoin="round" d=" M 1446.221, 608.666 1447.545, 606.371 " />
            <path fill="none" stroke-width="3.0" stroke-linecap="butt" stroke-opacity="1.0" stroke="rgb(0, 0, 0)" stroke-linejoin="round" d=" M 1447.545, 606.371 1448.983, 604.145 " />
            <path fill="none" stroke-width="3.0" stroke-linecap="butt" stroke-opacity="1.0" stroke="rgb(0, 0, 0)" stroke-linejoin="round" d=" M 1448.983, 604.145 1450.530, 601.993 " />
            <path fill="none" stroke-width="3.0" stroke-linecap="butt" stroke-opacity="1.0" stroke="rgb(0, 0, 0)" stroke-linejoin="round" d=" M 1450.530, 601.993 1452.182, 599.921 " />
            <path fill="none" stroke-width="3.0" stroke-linecap="butt" stroke-opacity="1.0" stroke="rgb(0, 0, 0)" stroke-linejoin="round" d=" M 1452.182, 599.921 1453.936, 597.935 1455.786, 596.037 1457.729, 594.235 1459.759, 592.532 " />
            <path fill="none" stroke-width="3.0" stroke-linecap="butt" stroke-opacity="1.0" stroke="rgb(0, 0, 0)" stroke-linejoin="round" d=" M 1459.759, 592.532 1461.871, 590.932 " />
            <path fill="none" stroke-width="3.0" stroke-linecap="butt" stroke-opacity="1.0" stroke="rgb(0, 0, 0)" stroke-linejoin="round" d=" M 1461.871, 590.932 1464.060, 589.439 1466.322, 588.057 1468.649, 586.790 1471.036, 585.640 1473.478, 584.610 1475.968, 583.704 1478.501, 582.923 1481.069, 582.269 1483.666, 581.745 " />
            <path fill="none" stroke-width="3.0" stroke-linecap="butt" stroke-opacity="1.0" stroke="rgb(0, 0, 0)" stroke-linejoin="round" d=" M 1792.054, 1618.806 1787.250, 1610.036 1782.446, 1601.265 1777.642, 1592.495 1772.838, 1583.724 1768.034, 1574.954 1766.268, 1571.730 1769.283, 1562.195 1772.298, 1552.661 1775.313, 1543.126 1778.329, 1533.591 1781.344, 1524.057 1784.359, 1514.522 1787.374, 1504.988 1790.389, 1495.453 1793.404, 1485.918 1796.420, 1476.384 1799.435, 1466.849 1802.450, 1457.314 1805.465, 1447.780 1808.480, 1438.245 1811.495, 1428.711 1814.510, 1419.176 1817.526, 1409.641 1820.541, 1400.107 1823.556, 1390.572 1826.571, 1381.038 1829.586, 1371.503 1832.601, 1361.968 1835.616, 1352.434 1838.632, 1342.899 1841.647, 1333.364 1844.662, 1323.830 1847.677, 1314.295 1850.692, 1304.761 1853.707, 1295.226 1856.723, 1285.691 1859.738, 1276.157 1862.753, 1266.622 1865.768, 1257.088 1868.783, 1247.553 1871.798, 1238.018 1874.813, 1228.484 1877.829, 1218.949 1880.844, 1209.414 1883.859, 1199.880 1886.874, 1190.345 1889.889, 1180.811 1892.904, 1171.276 1895.919, 1161.741 1898.935, 1152.207 1901.950, 1142.672 1904.965, 1133.138 1907.980, 1123.603 1910.995, 1114.068 1914.010, 1104.534 1917.026, 1094.999 1920.041, 1085.464 1923.056, 1075.930 1926.071, 1066.395 1929.086, 1056.861 1932.101, 1047.326 1935.116, 1037.791 1938.132, 1028.257 1941.147, 1018.722 1944.162, 1009.188 1947.177, 999.653 1950.192, 990.118 1954.628, 976.092 " />
            <path fill="none" stroke-width="3.0" stroke-linecap="butt" stroke-opacity="1.0" stroke="rgb(0, 0, 0)" stroke-linejoin="round" d=" M 1954.628, 976.092 1956.011, 966.188 1957.393, 956.284 1957.498, 955.535 " />
            <path fill="none" stroke-width="3.0" stroke-linecap="butt" stroke-opacity="1.0" stroke="rgb(0, 0, 0)" stroke-linejoin="round" d=" M 1545.776, 628.791 1545.974, 631.434 1546.040, 634.083 1545.974, 636.732 " />
            <path fill="none" stroke-width="3.0" stroke-linecap="butt" stroke-opacity="1.0" stroke="rgb(0, 0, 0)" stroke-linejoin="round" d=" M 1545.447, 626.162 1545.776, 628.791 " />
            <path fill="none" stroke-width="3.0" stroke-linecap="butt" stroke-opacity="1.0" stroke="rgb(0, 0, 0)" stroke-linejoin="round" d=" M 1540.777, 611.024 1541.867, 613.439 1542.835, 615.906 1543.679, 618.418 1544.397, 620.969 1544.987, 623.552 1545.447, 626.162 " />
            <path fill="none" stroke-width="3.0" stroke-linecap="butt" stroke-opacity="1.0" stroke="rgb(0, 0, 0)" stroke-linejoin="round" d=" M 1533.607, 599.921 1535.259, 601.993 1536.806, 604.145 1538.244, 606.371 1539.568, 608.666 1540.777, 611.024 " />
            <path fill="none" stroke-width="3.0" stroke-linecap="butt" stroke-opacity="1.0" stroke="rgb(0, 0, 0)" stroke-linejoin="round" d=" M 1531.853, 597.935 1533.607, 599.921 " />
            <path fill="none" stroke-width="3.0" stroke-linecap="butt" stroke-opacity="1.0" stroke="rgb(0, 0, 0)" stroke-linejoin="round" d=" M 1486.286, 581.350 1488.923, 581.086 1491.570, 580.953 1494.219, 580.953 1496.866, 581.086 1499.503, 581.350 1502.124, 581.745 1504.721, 582.269 1507.289, 582.923 1509.821, 583.704 1512.311, 584.610 1514.753, 585.640 1517.140, 586.790 1519.468, 588.057 1521.729, 589.439 1523.918, 590.932 1526.030, 592.532 1528.061, 594.235 1530.003, 596.037 1531.853, 597.935 " />
            <path fill="none" stroke-width="3.0" stroke-linecap="butt" stroke-opacity="1.0" stroke="rgb(0, 0, 0)" stroke-linejoin="round" d=" M 1957.498, 955.535 1958.376, 945.574 1959.254, 935.612 1960.132, 925.651 1961.010, 915.690 1961.888, 905.728 1962.766, 895.767 1963.643, 885.806 1964.521, 875.844 1965.399, 865.883 1966.277, 855.921 1967.155, 845.960 1968.033, 835.999 1968.911, 826.037 1969.789, 816.076 1970.667, 806.115 1971.545, 796.153 1972.423, 786.192 1973.301, 776.230 1974.179, 766.269 1975.057, 756.307 1975.935, 746.346 1976.812, 736.385 1977.690, 726.423 1978.568, 716.462 1979.446, 706.501 1980.324, 696.539 1981.202, 686.578 1982.080, 676.616 1982.958, 666.655 1983.836, 656.694 1984.714, 646.732 1985.592, 636.771 1986.470, 626.809 1987.348, 616.848 1988.226, 606.887 1989.104, 596.925 1989.982, 586.964 1990.860, 577.003 1991.738, 567.041 1992.615, 557.080 1993.493, 547.118 1994.371, 537.157 1995.249, 527.196 1996.127, 517.234 1997.005, 507.273 1997.883, 497.312 1998.761, 487.350 1999.639, 477.389 2000.517, 467.427 2001.395, 457.466 2002.273, 447.505 2003.151, 437.543 2004.029, 427.582 2004.907, 417.620 2005.785, 407.659 2006.662, 397.698 2007.540, 387.736 2008.418, 377.775 2009.296, 367.813 2010.174, 357.852 2011.052, 347.891 2011.930, 337.929 2012.808, 327.968 2013.686, 318.006 2014.564, 308.045 2015.442, 298.084 2016.320, 288.122 2017.198, 278.161 2018.076, 268.200 2018.954, 258.238 2019.832, 248.277 2020.710, 238.315 2021.588, 228.354 2022.465, 218.393 2023.343, 208.431 2024.221, 198.470 2025.099, 188.508 2025.977, 178.547 2026.948, 167.531 2026.385, 157.547 2025.821, 147.563 2025.257, 137.578 2024.694, 127.594 2024.130, 117.610 2023.566, 107.626 2023.003, 97.642 2022.439, 87.658 2021.876, 77.674 2021.312, 67.690 2020.748, 57.706 2020.185, 47.722 2019.621, 37.738 2019.057, 27.753 2018.826, 23.646 2008.826, 23.646 1998.826, 23.646 1988.826, 23.646 1978.826, 23.646 1968.826, 23.646 1958.826, 23.646 1948.826, 23.646 1938.826, 23.646 1931.353, 23.646 " />
            <path fill="none" stroke-width="3.0" stroke-linecap="butt" stroke-opacity="1.0" stroke="rgb(0, 0, 0)" stroke-linejoin="round" d=" M 1931.353, 23.646 1930.845, 23.740 1930.426, 23.739 1930.024, 23.739 1929.641, 23.739 1929.276, 23.739 1928.932, 23.739 1928.610, 23.739 " />
            <path fill="none" stroke-width="3.0" stroke-linecap="butt" stroke-opacity="1.0" stroke="rgb(0, 0, 0)" stroke-linejoin="round" d=" M 1483.666, 581.745 1486.286, 581.350 " />
            <path fill="none" stroke-width="3.0" stroke-linecap="butt" stroke-opacity="1.0" stroke="rgb(0, 0, 0)" stroke-linejoin="round" d=" M 1928.610, 23.739 1928.310, 23.739 1928.024, 23.729 1918.024, 23.722 1908.024, 23.715 1898.024, 23.708 1888.024, 23.701 1878.024, 23.694 1868.024, 23.688 1858.024, 23.681 1848.024, 23.674 1838.024, 23.667 1828.024, 23.660 1818.024, 23.653 1808.643, 23.646 " />
            <path fill="none" stroke-width="3.0" stroke-linecap="butt" stroke-opacity="1.0" stroke="rgb(0, 0, 0)" stroke-linejoin="round" d=" M 1808.643, 23.646 1807.948, 23.646 1797.948, 23.646 1787.948, 23.646 1777.948, 23.646 1772.948, 23.646 1762.948, 23.646 1752.948, 23.646 1742.948, 23.647 1732.948, 23.647 1722.948, 23.647 1712.948, 23.647 1702.948, 23.647 1692.948, 23.647 1682.948, 23.647 1672.948, 23.647 1662.948, 23.647 1652.948, 23.647 1642.948, 23.647 1632.948, 23.647 1622.948, 23.647 1612.948, 23.647 1602.948, 23.647 1592.948, 23.647 1582.948, 23.647 1572.948, 23.647 1562.948, 23.647 1552.948, 23.647 1542.948, 23.647 1532.948, 23.647 1522.948, 23.647 1512.948, 23.647 1502.948, 23.647 1492.948, 23.647 1482.948, 23.647 1472.948, 23.647 1462.948, 23.647 1452.948, 23.647 1442.948, 23.648 1432.948, 23.648 1422.948, 23.648 1412.948, 23.648 1402.948, 23.648 1392.948, 23.648 1382.948, 23.648 1372.948, 23.648 1362.948, 23.648 1352.948, 23.648 1342.948, 23.648 1332.948, 23.648 1322.948, 23.648 1312.948, 23.648 1302.948, 23.648 1292.948, 23.648 1282.948, 23.648 1272.948, 23.648 1262.948, 23.648 1252.948, 23.648 1242.948, 23.648 1232.948, 23.648 1222.948, 23.648 1212.948, 23.648 1202.948, 23.648 1192.948, 23.648 1182.948, 23.648 1172.948, 23.648 1162.948, 23.648 1152.948, 23.648 1142.948, 23.648 1132.948, 23.649 1122.948, 23.649 1112.948, 23.649 1102.948, 23.649 1092.948, 23.649 1082.948, 23.649 1072.948, 23.649 1062.948, 23.649 1052.948, 23.649 1042.948, 23.649 1032.948, 23.649 1022.948, 23.649 1012.948, 23.649 1002.948, 23.649 992.948, 23.649 982.948, 23.649 972.948, 23.649 962.948, 23.649 952.948, 23.649 942.948, 23.649 932.948, 23.649 922.948, 23.649 912.948, 23.649 902.948, 23.649 892.948, 23.649 882.948, 23.649 872.948, 23.649 862.948, 23.649 852.948, 23.649 842.948, 23.649 832.948, 23.650 822.948, 23.650 812.948, 23.650 802.948, 23.650 792.948, 23.650 782.948, 23.650 772.948, 23.650 762.948, 23.650 752.948, 23.650 742.948, 23.650 732.948, 23.650 722.948, 23.650 712.948, 23.650 702.948, 23.650 692.948, 23.650 682.948, 23.650 672.948, 23.650 662.948, 23.650 652.948, 23.650 642.948, 23.650 632.948, 23.650 622.948, 23.650 612.948, 23.650 602.948, 23.650 592.948, 23.650 582.948, 23.650 572.948, 23.650 562.948, 23.650 552.948, 23.650 542.948, 23.650 532.948, 23.651 522.948, 23.651 512.948, 23.651 502.948, 23.651 492.948, 23.651 482.948, 23.651 472.948, 23.651 462.948, 23.651 452.948, 23.651 442.948, 23.651 432.948, 23.651 422.948, 23.651 412.948, 23.651 402.948, 23.651 392.948, 23.651 382.948, 23.651 372.948, 23.651 362.948, 23.651 352.948, 23.651 342.948, 23.651 332.948, 23.651 322.948, 23.651 312.948, 23.651 302.948, 23.651 292.948, 23.651 274.971, 23.651 " />
            <path fill="none" stroke-width="3.0" stroke-linecap="butt" stroke-opacity="1.0" stroke="rgb(0, 0, 0)" stroke-linejoin="round" d=" M 6968.763, 23.631 6974.406, 31.887 6980.048, 40.143 6985.691, 48.398 6991.334, 56.654 6996.977, 64.910 7002.620, 73.166 7008.263, 81.421 7013.906, 89.677 7019.548, 97.933 7025.191, 106.189 7030.834, 114.445 7036.477, 122.700 7042.120, 130.956 7047.763, 139.212 7053.406, 147.468 7059.049, 155.724 7064.691, 163.979 7070.334, 172.235 7075.977, 180.491 7081.780, 188.981 7084.439, 198.621 7087.099, 208.260 7089.758, 217.901 7092.417, 227.540 7095.076, 237.180 7097.735, 246.820 7100.395, 256.460 7103.054, 266.100 7105.713, 275.740 7108.373, 285.380 7111.032, 295.020 7113.691, 304.660 7116.351, 314.300 7119.010, 323.940 7121.669, 333.580 7124.328, 343.220 7126.987, 352.860 7129.646, 362.500 7132.306, 372.139 7134.965, 381.779 7137.625, 391.419 7140.284, 401.059 7142.943, 410.699 7145.602, 420.339 7148.261, 429.979 7150.921, 439.619 7153.580, 449.259 7156.239, 458.899 7158.898, 468.539 7161.558, 478.179 7164.217, 487.819 7166.876, 497.459 7169.536, 507.099 7172.195, 516.738 7174.854, 526.378 7177.513, 536.018 7180.172, 545.658 7182.832, 555.298 7185.491, 564.938 7188.150, 574.578 7190.810, 584.218 7193.469, 593.858 7196.128, 603.498 7198.787, 613.138 7201.447, 622.778 7204.106, 632.418 7205.408, 637.138 7199.916, 645.495 7194.424, 653.852 7188.932, 662.208 7183.439, 670.565 7177.947, 678.922 7172.455, 687.279 7166.963, 695.636 7161.471, 703.992 7155.979, 712.349 7150.487, 720.706 7144.995, 729.063 7139.502, 737.420 7134.010, 745.776 7128.518, 754.133 7123.026, 762.490 7117.534, 770.847 7112.042, 779.204 7106.549, 787.561 7101.058, 795.917 7095.565, 804.274 7090.073, 812.631 7084.581, 820.988 7081.387, 825.849 7072.937, 831.197 7064.488, 836.546 7056.039, 841.895 7047.589, 847.244 7039.140, 852.592 7030.690, 857.941 7022.241, 863.290 7013.792, 868.639 7005.343, 873.987 7000.052, 877.336 " />
            <path fill="none" stroke-width="3.0" stroke-linecap="butt" stroke-opacity="1.0" stroke="rgb(0, 0, 0)" stroke-linejoin="round" d=" M 7762.529, 1425.603 7760.011, 1423.021 7757.624, 1420.317 7755.376, 1417.497 7753.270, 1414.568 7751.313, 1411.539 7749.510, 1408.414 7747.864, 1405.206 7746.381, 1401.918 7745.063, 1398.560 7743.914, 1395.142 7742.938, 1391.669 7742.135, 1388.153 7741.509, 1384.601 7741.060, 1381.021 7740.791, 1377.426 7740.701, 1373.820 7740.791, 1370.214 7741.060, 1366.617 7741.509, 1363.038 7742.135, 1359.486 7742.938, 1355.969 7743.914, 1352.497 7745.063, 1349.078 7746.381, 1345.721 7747.864, 1342.433 7749.510, 1339.224 7751.313, 1336.100 7753.270, 1333.070 7755.376, 1330.142 7757.624, 1327.321 7760.011, 1324.617 7762.529, 1322.035 7765.173, 1319.582 7767.936, 1317.264 7770.812, 1315.086 7773.792, 1313.054 7776.869, 1311.173 7780.037, 1309.448 7783.287, 1307.883 7786.610, 1306.482 7790.000, 1305.249 7793.446, 1304.185 7796.941, 1303.296 7800.477, 1302.581 7804.043, 1302.043 7807.632, 1301.684 7811.235, 1301.505 7814.841, 1301.505 7818.444, 1301.684 7822.033, 1302.043 7825.599, 1302.581 7829.135, 1303.296 7832.630, 1304.185 7836.077, 1305.249 7839.466, 1306.482 7842.789, 1307.883 7846.040, 1309.448 7849.207, 1311.173 7852.285, 1313.054 7855.265, 1315.086 7858.140, 1317.264 7860.903, 1319.582 7863.547, 1322.035 7866.065, 1324.617 7868.452, 1327.321 7870.701, 1330.142 7872.806, 1333.070 7874.763, 1336.100 7876.566, 1339.224 7878.211, 1342.433 7879.695, 1345.721 7881.013, 1349.078 7882.162, 1352.497 7883.139, 1355.969 7883.941, 1359.486 7884.567, 1363.038 7885.016, 1366.617 7885.286, 1370.214 7885.375, 1373.820 7885.286, 1377.426 7885.016, 1381.021 7884.567, 1384.601 7883.941, 1388.153 7883.139, 1391.669 7882.162, 1395.142 7881.013, 1398.560 7879.695, 1401.918 7878.211, 1405.206 7876.566, 1408.414 7874.763, 1411.539 7872.806, 1414.568 7870.701, 1417.497 7868.452, 1420.317 7866.065, 1423.021 7863.547, 1425.603 7860.903, 1428.057 7858.140, 1430.375 7855.265, 1432.553 7852.285, 1434.585 7849.207, 1436.465 7846.040, 1438.191 7842.789, 1439.755 7839.466, 1441.157 7836.077, 1442.390 7832.630, 1443.453 7829.135, 1444.343 7825.599, 1445.057 7822.033, 1445.595 7818.444, 1445.954 7814.841, 1446.134 7811.235, 1446.134 7807.632, 1445.954 7804.043, 1445.595 7800.477, 1445.057 7796.941, 1444.343 7793.446, 1443.453 7790.000, 1442.390 7786.610, 1441.157 7783.287, 1439.755 7780.037, 1438.191 7776.869, 1436.465 7773.792, 1434.585 7770.812, 1432.553 7767.936, 1430.375 7765.173, 1428.057 7762.529, 1425.603 " />
            <path fill="none" stroke-width="3.0" stroke-linecap="butt" stroke-opacity="1.0" stroke="rgb(0, 0, 0)" stroke-linejoin="round" d=" M 7000.052, 877.336 6997.859, 887.093 6995.667, 896.850 6993.474, 906.606 6991.281, 916.363 6989.089, 926.120 6986.896, 935.876 6984.703, 945.633 6982.510, 955.390 6980.318, 965.146 6978.125, 974.903 6975.932, 984.659 6973.740, 994.416 6971.547, 1004.173 6969.354, 1013.929 6967.161, 1023.686 6964.969, 1033.443 6962.776, 1043.199 6960.583, 1052.956 6959.853, 1056.205 6954.708, 1064.780 6949.563, 1073.354 6944.418, 1081.929 6939.273, 1090.504 6934.128, 1099.079 6928.983, 1107.654 6923.838, 1116.229 6918.693, 1124.804 6913.548, 1133.379 6908.403, 1141.954 6903.258, 1150.529 6898.113, 1159.104 6892.968, 1167.679 6887.823, 1176.254 6882.678, 1184.828 6877.534, 1193.403 6872.389, 1201.978 6867.244, 1210.553 6862.099, 1219.128 6856.954, 1227.703 6851.809, 1236.278 6846.664, 1244.853 6841.519, 1253.428 6836.374, 1262.003 6831.229, 1270.578 6826.084, 1279.153 6820.939, 1287.728 6815.794, 1296.302 6810.649, 1304.877 6805.504, 1313.452 6800.359, 1322.027 6795.441, 1330.224 6792.383, 1339.745 6789.324, 1349.266 6786.266, 1358.787 6783.208, 1368.308 6780.149, 1377.828 6777.091, 1387.349 6774.033, 1396.870 6770.975, 1406.391 6767.916, 1415.912 6764.858, 1425.433 6761.800, 1434.954 6758.741, 1444.474 6756.634, 1451.036 6750.083, 1458.592 6743.533, 1466.148 6736.983, 1473.705 6730.433, 1481.261 6723.883, 1488.817 6717.333, 1496.373 6710.783, 1503.929 6704.232, 1511.486 6697.683, 1519.042 6691.132, 1526.598 6684.582, 1534.154 6678.032, 1541.710 6671.482, 1549.266 6664.932, 1556.823 6658.382, 1564.379 6651.832, 1571.935 6645.282, 1579.491 6638.731, 1587.047 6632.181, 1594.604 6625.631, 1602.160 6619.081, 1609.716 6612.531, 1617.272 6605.981, 1624.828 6599.431, 1632.385 6592.880, 1639.941 6586.331, 1647.497 6579.780, 1655.053 6573.230, 1662.609 6566.680, 1670.165 6560.130, 1677.722 6553.580, 1685.278 6547.030, 1692.834 6540.479, 1700.390 6533.930, 1707.946 6527.379, 1715.503 6520.829, 1723.059 6514.279, 1730.615 6507.729, 1738.171 6501.179, 1745.727 6494.629, 1753.283 6488.079, 1760.840 6481.528, 1768.396 6474.979, 1775.952 6468.428, 1783.508 6461.878, 1791.064 6455.328, 1798.621 6448.778, 1806.177 6442.228, 1813.733 6435.678, 1821.289 6429.127, 1828.845 6422.578, 1836.401 6416.027, 1843.958 6409.477, 1851.514 6402.927, 1859.070 6396.377, 1866.626 6389.827, 1874.182 6383.277, 1881.739 6376.727, 1889.295 6370.176, 1896.851 6363.626, 1904.407 6357.076, 1911.963 6352.215, 1917.571 " />
            <path fill="none" stroke-width="3.0" stroke-linecap="butt" stroke-opacity="1.0" stroke="rgb(0, 0, 0)" stroke-linejoin="round" d=" M 6252.348, 2129.384 6262.348, 2129.384 6268.007, 2129.384 6278.007, 2129.384 6288.007, 2129.384 6298.007, 2129.384 6308.007, 2129.384 6318.007, 2129.384 6328.007, 2129.384 6338.007, 2129.384 6348.007, 2129.384 6358.007, 2129.384 6368.007, 2129.384 6378.007, 2129.384 6388.007, 2129.384 6398.007, 2129.384 6408.007, 2129.384 6418.007, 2129.384 6428.007, 2129.384 6438.007, 2129.384 6448.007, 2129.384 6458.007, 2129.384 6468.007, 2129.384 6478.007, 2129.384 6488.007, 2129.384 6498.007, 2129.384 6508.007, 2129.384 6518.007, 2129.384 6528.007, 2129.384 6538.007, 2129.384 6549.071, 2129.384 6550.338, 2129.384 6551.553, 2129.384 6561.553, 2129.384 6571.553, 2129.384 6581.553, 2129.384 6591.553, 2129.384 6601.553, 2129.384 6611.553, 2129.384 6621.553, 2129.384 6631.553, 2129.384 6641.553, 2129.384 6651.553, 2129.384 6661.553, 2129.384 6671.553, 2129.384 6681.553, 2129.384 6691.553, 2129.384 6701.553, 2129.384 6711.553, 2129.384 6721.553, 2129.384 6731.553, 2129.384 6741.553, 2129.384 6751.553, 2129.384 6761.553, 2129.384 6771.553, 2129.384 6781.553, 2129.384 6791.553, 2129.384 6801.553, 2129.384 6811.553, 2129.384 6821.553, 2129.384 6831.553, 2129.384 6841.553, 2129.384 6851.553, 2129.384 6861.553, 2129.384 6871.553, 2129.384 6881.553, 2129.384 6891.553, 2129.384 6901.553, 2129.384 6911.553, 2129.384 6921.553, 2129.384 6931.553, 2129.384 6941.553, 2129.384 6951.553, 2129.384 6961.553, 2129.384 6971.553, 2129.384 6981.553, 2129.384 6991.553, 2129.384 7001.553, 2129.384 7011.553, 2129.384 7021.553, 2129.384 7031.553, 2129.384 7041.553, 2129.384 7051.553, 2129.384 7061.553, 2129.384 7071.553, 2129.384 7081.553, 2129.384 7091.553, 2129.384 7101.553, 2129.384 7111.553, 2129.384 7121.553, 2129.384 7131.553, 2129.384 7141.553, 2129.384 7151.553, 2129.384 7161.553, 2129.384 7171.553, 2129.384 7181.553, 2129.384 7191.553, 2129.384 7201.553, 2129.384 7211.553, 2129.384 7221.553, 2129.384 7231.553, 2129.384 7241.553, 2129.384 7251.553, 2129.384 7261.553, 2129.384 7271.553, 2129.384 7281.553, 2129.384 7291.553, 2129.384 7301.553, 2129.384 7311.553, 2129.384 7321.553, 2129.384 7331.553, 2129.384 7341.553, 2129.384 7351.553, 2129.384 7361.553, 2129.384 7371.553, 2129.384 7381.553, 2129.384 7391.553, 2129.384 7401.553, 2129.384 7411.553, 2129.384 7421.553, 2129.384 7431.553, 2129.384 7441.553, 2129.384 7451.553, 2129.384 7461.553, 2129.384 7471.553, 2129.384 7481.553, 2129.384 7491.553, 2129.384 7501.553, 2129.384 7511.553, 2129.384 7521.553, 2129.384 7531.553, 2129.384 7541.553, 2129.384 7551.553, 2129.384 7561.553, 2129.384 7571.553, 2129.384 7581.553, 2129.384 7591.553, 2129.384 7601.553, 2129.384 7611.553, 2129.384 7621.553, 2129.384 7631.553, 2129.384 7641.553, 2129.384 7651.553, 2129.384 7661.553, 2129.384 7671.553, 2129.384 7681.553, 2129.384 7691.553, 2129.384 7701.553, 2129.384 7711.553, 2129.384 7721.553, 2129.384 7731.553, 2129.384 7741.553, 2129.384 7751.553, 2129.384 7761.553, 2129.384 7771.553, 2129.384 7781.553, 2129.384 7791.553, 2129.384 7801.553, 2129.384 7811.553, 2129.384 7821.553, 2129.384 7839.998, 2129.384 7842.492, 2129.384 7852.492, 2129.384 7862.492, 2129.384 7872.492, 2129.384 7882.492, 2129.384 7892.492, 2129.384 7902.492, 2129.384 7912.492, 2129.384 7922.492, 2129.384 7932.492, 2129.384 7942.492, 2129.384 7952.492, 2129.384 7962.492, 2129.384 7972.492, 2129.384 7982.492, 2129.384 7992.492, 2129.384 8002.492, 2129.384 8012.492, 2129.384 8022.492, 2129.384 8032.492, 2129.384 8042.492, 2129.384 8052.492, 2129.384 8062.492, 2129.384 8072.492, 2129.384 8082.492, 2129.384 8092.492, 2129.384 8102.492, 2129.384 8112.492, 2129.384 8122.492, 2129.384 8132.492, 2129.384 8142.492, 2129.384 8152.492, 2129.384 8157.168, 2129.384 8159.092, 2129.384 8161.094, 2129.384 8163.167, 2129.384 8165.305, 2129.384 8167.504, 2129.384 8169.755, 2129.384 8172.055, 2129.384 8174.395, 2129.384 8176.769, 2129.384 8179.171, 2129.384 8181.594, 2129.384 8191.594, 2129.384 8201.594, 2129.384 8211.594, 2129.384 8221.594, 2129.384 8231.594, 2129.384 8241.594, 2129.384 8251.594, 2129.384 8261.594, 2129.384 8271.594, 2129.384 8281.594, 2129.384 8291.594, 2129.384 8301.594, 2129.384 8311.594, 2129.384 8321.594, 2129.384 8331.594, 2129.384 8341.594, 2129.384 8351.594, 2129.384 8361.594, 2129.384 8371.594, 2129.384 8381.594, 2129.384 8391.594, 2129.384 8401.594, 2129.384 8411.594, 2129.384 8421.594, 2129.384 8431.594, 2129.384 8441.594, 2129.384 8451.594, 2129.384 8461.594, 2129.384 8464.462, 2129.384 8466.675, 2129.384 8468.927, 2129.384 8471.211, 2129.384 8473.519, 2129.384 8475.846, 2129.384 8478.186, 2129.384 8480.529, 2129.384 8482.871, 2129.384 8485.206, 2129.384 8495.206, 2129.384 8505.206, 2129.384 8515.206, 2129.384 8525.206, 2129.384 8535.206, 2129.384 8545.206, 2129.384 8555.206, 2129.384 8565.206, 2129.384 8575.206, 2129.384 8585.206, 2129.384 8595.206, 2129.384 8605.206, 2129.384 8615.206, 2129.384 8625.206, 2129.384 8635.206, 2129.384 8645.206, 2129.384 8655.206, 2129.384 8665.206, 2129.384 8675.206, 2129.384 8685.206, 2129.384 8695.206, 2129.384 8705.206, 2129.384 8715.206, 2129.384 8725.206, 2129.384 8735.206, 2129.384 8745.206, 2129.384 8755.206, 2129.384 8765.206, 2129.384 8775.206, 2129.384 8785.206, 2129.384 8795.206, 2129.384 8805.206, 2129.384 8815.206, 2129.384 8827.118, 2129.384 8837.118, 2129.384 8847.118, 2129.384 8857.118, 2129.384 8867.118, 2129.384 8877.118, 2129.384 8887.118, 2129.384 8897.118, 2129.384 8907.118, 2129.384 8917.118, 2129.384 8927.118, 2129.384 8937.118, 2129.384 8947.118, 2129.384 8957.118, 2129.384 8967.118, 2129.384 8977.118, 2129.384 8987.118, 2129.384 8997.118, 2129.384 9007.118, 2129.384 9017.118, 2129.384 9027.118, 2129.384 9037.118, 2129.384 9047.118, 2129.384 9057.118, 2129.384 9067.118, 2129.384 9077.118, 2129.384 9087.118, 2129.384 9097.118, 2129.384 9107.118, 2129.384 9117.118, 2129.384 9127.118, 2129.384 9137.118, 2129.384 9147.118, 2129.384 9157.118, 2129.384 9167.118, 2129.384 9177.118, 2129.384 9187.118, 2129.384 9197.118, 2129.384 9207.118, 2129.384 9217.118, 2129.384 9227.118, 2129.384 9237.118, 2129.384 9247.118, 2129.384 9257.118, 2129.384 9267.118, 2129.384 9277.118, 2129.384 9287.118, 2129.384 9297.118, 2129.384 9307.118, 2129.384 9317.118, 2129.384 9327.118, 2129.384 9339.990, 2129.384 9340.715, 2119.410 9341.440, 2109.437 9342.166, 2099.463 9342.892, 2089.489 9343.617, 2079.516 9344.343, 2069.542 9345.067, 2059.568 9345.793, 2049.595 9346.519, 2039.621 9347.244, 2029.647 9347.970, 2019.674 9348.694, 2009.700 9349.420, 1999.726 9350.146, 1989.753 9350.871, 1979.779 9351.597, 1969.805 9352.322, 1959.832 9353.047, 1949.858 9353.772, 1939.884 9354.498, 1929.911 9355.224, 1919.937 9355.949, 1909.963 9356.674, 1899.990 9357.399, 1890.016 9358.125, 1880.042 9358.851, 1870.069 9359.576, 1860.095 9360.301, 1850.121 9361.026, 1840.148 9361.752, 1830.174 9362.478, 1820.201 9363.203, 1810.227 9364.150, 1797.196 " />
            <path fill="none" stroke-width="3.0" stroke-linecap="butt" stroke-opacity="1.0" stroke="rgb(0, 0, 0)" stroke-linejoin="round" d=" M 9364.150, 1797.196 9360.791, 1787.777 9357.432, 1778.358 9354.072, 1768.939 9350.713, 1759.520 9347.354, 1750.101 9343.994, 1740.683 9340.635, 1731.264 9337.275, 1721.845 9335.399, 1716.584 9336.163, 1706.613 9336.926, 1696.643 9337.689, 1686.672 9338.453, 1676.701 9339.217, 1666.730 9339.980, 1656.759 9340.744, 1646.789 9341.508, 1636.818 9342.271, 1626.847 9343.034, 1616.876 9343.798, 1606.905 9344.562, 1596.935 9345.325, 1586.964 9346.089, 1576.993 9346.853, 1567.022 9347.616, 1557.051 9348.379, 1547.081 9349.143, 1537.110 9349.906, 1527.139 9350.670, 1517.168 9351.434, 1507.197 9352.197, 1497.227 9352.961, 1487.256 9353.725, 1477.285 9354.487, 1467.314 9355.251, 1457.343 9356.015, 1447.372 9356.778, 1437.402 9357.542, 1427.431 9358.306, 1417.460 9359.069, 1407.489 9359.833, 1397.518 9360.596, 1387.548 9361.359, 1377.577 9362.036, 1368.745 " />
            <path fill="none" stroke-width="3.0" stroke-linecap="butt" stroke-opacity="1.0" stroke="rgb(0, 0, 0)" stroke-linejoin="round" d=" M 8789.088, 23.715 8788.247, 23.715 8787.425, 23.714 8786.621, 23.714 8785.840, 23.714 8785.085, 23.714 8784.364, 23.687 8784.335, 23.686 8774.335, 23.685 8764.335, 23.684 8754.335, 23.683 8744.335, 23.683 8734.335, 23.682 8724.335, 23.681 8714.335, 23.680 8704.335, 23.679 8694.335, 23.678 8684.335, 23.677 8674.335, 23.677 8664.335, 23.676 8654.335, 23.675 8644.335, 23.674 8634.335, 23.673 8624.335, 23.672 8614.335, 23.672 8604.335, 23.671 8594.335, 23.670 8584.335, 23.669 8574.335, 23.668 8564.335, 23.667 8554.335, 23.667 8544.335, 23.666 8534.335, 23.665 8524.335, 23.664 8514.335, 23.663 8504.335, 23.662 8494.335, 23.661 8484.335, 23.660 8474.335, 23.660 8464.335, 23.659 8454.335, 23.658 8444.335, 23.657 8434.335, 23.656 8424.335, 23.656 8414.335, 23.655 8404.335, 23.654 8394.335, 23.653 8384.335, 23.652 8374.335, 23.651 8364.335, 23.650 8354.335, 23.649 8344.335, 23.649 8334.335, 23.648 8324.335, 23.647 8314.335, 23.646 8304.335, 23.645 8294.335, 23.644 8284.335, 23.644 8274.335, 23.643 8264.335, 23.642 8254.335, 23.641 8244.335, 23.640 8234.335, 23.639 8224.335, 23.638 8214.335, 23.638 8204.335, 23.637 8194.335, 23.636 8184.335, 23.635 8174.334, 23.634 8164.335, 23.633 8154.335, 23.633 8144.334, 23.632 8134.335, 23.631 8124.335, 23.630 8114.334, 23.629 8104.335, 23.628 8093.723, 23.627 " />
            <path fill="none" stroke-width="3.0" stroke-linecap="butt" stroke-opacity="1.0" stroke="rgb(0, 0, 0)" stroke-linejoin="round" d=" M 8950.351, 23.625 8940.351, 23.625 8930.351, 23.625 8920.351, 23.625 8910.351, 23.625 8900.351, 23.625 8890.351, 23.625 8880.351, 23.625 8870.351, 23.625 8860.351, 23.625 8850.351, 23.625 8840.351, 23.625 8830.351, 23.625 8820.351, 23.625 8810.351, 23.625 8800.351, 23.625 8790.020, 23.625 8789.089, 23.715 8789.088, 23.715 " />
            <path fill="none" stroke-width="3.0" stroke-linecap="butt" stroke-opacity="1.0" stroke="rgb(0, 0, 0)" stroke-linejoin="round" d=" M 9101.993, 746.396 9100.306, 736.540 9098.617, 726.683 9096.930, 716.826 9095.242, 706.970 9093.555, 697.113 9091.867, 687.257 9090.180, 677.400 9088.492, 667.544 9086.804, 657.687 9085.116, 647.830 9083.429, 637.974 9081.741, 628.117 9080.054, 618.261 9078.366, 608.404 9076.678, 598.548 9074.990, 588.691 9073.303, 578.834 9071.615, 568.978 9069.928, 559.121 9068.240, 549.265 9066.552, 539.408 9064.864, 529.552 9063.177, 519.695 9061.489, 509.839 9059.802, 499.982 9058.114, 490.125 9056.427, 480.269 9054.738, 470.412 9053.051, 460.556 9051.363, 450.699 9049.676, 440.843 9047.988, 430.986 9046.301, 421.130 9044.612, 411.273 9042.925, 401.416 9041.237, 391.560 9039.550, 381.703 9037.862, 371.847 9036.175, 361.990 9034.486, 352.134 9032.799, 342.277 9031.111, 332.420 9029.424, 322.564 9027.736, 312.707 9026.049, 302.851 9024.361, 292.994 9022.673, 283.138 9020.985, 273.281 9019.298, 263.424 9017.610, 253.568 9015.923, 243.711 9014.235, 233.855 9012.547, 223.998 9010.859, 214.142 9009.172, 204.285 9007.484, 194.428 9005.797, 184.572 9004.566, 177.384 9001.240, 167.953 8997.915, 158.522 8994.590, 149.091 8991.265, 139.660 8987.939, 130.229 8984.614, 120.798 8981.288, 111.368 8977.963, 101.937 8974.638, 92.506 8971.312, 83.075 8967.987, 73.644 8964.662, 64.213 8961.337, 54.782 8958.011, 45.351 8954.686, 35.920 8951.360, 26.489 8950.351, 23.625 " />
            <path fill="none" stroke-width="3.0" stroke-linecap="butt" stroke-opacity="1.0" stroke="rgb(0, 0, 0)" stroke-linejoin="round" d=" M 2026.948, 167.531 2026.070, 177.492 2025.192, 187.454 2024.314, 197.415 2023.436, 207.376 2022.558, 217.338 2021.680, 227.299 2020.802, 237.260 2019.925, 247.222 2019.047, 257.183 2018.169, 267.145 2017.291, 277.106 2016.413, 287.068 2015.535, 297.029 2014.657, 306.990 2013.779, 316.952 2012.901, 326.913 2012.023, 336.874 2011.145, 346.836 2010.267, 356.797 2009.389, 366.759 2008.511, 376.720 2007.633, 386.681 2006.755, 396.643 2005.878, 406.604 2005.000, 416.566 2004.122, 426.527 2003.244, 436.488 2002.366, 446.450 2001.488, 456.411 2000.610, 466.372 1999.732, 476.334 1998.854, 486.295 1997.976, 496.257 1997.098, 506.218 1996.220, 516.179 1995.342, 526.141 1994.464, 536.102 1993.586, 546.063 1992.708, 556.025 1991.830, 565.986 1990.953, 575.948 1990.075, 585.909 1989.197, 595.870 1988.319, 605.832 1987.441, 615.793 1986.563, 625.755 1985.685, 635.716 1984.807, 645.677 1983.929, 655.639 1983.051, 665.600 1982.173, 675.562 1981.295, 685.523 1980.417, 695.484 1979.539, 705.446 1978.661, 715.407 1977.783, 725.369 1976.906, 735.330 1976.028, 745.291 1975.150, 755.253 1974.272, 765.214 1973.394, 775.175 1972.516, 785.137 1971.638, 795.098 1970.760, 805.060 1969.882, 815.021 1969.004, 824.982 1968.126, 834.944 1967.248, 844.905 1966.370, 854.867 1965.492, 864.828 1964.614, 874.789 1963.736, 884.751 1962.858, 894.712 1961.980, 904.673 1961.103, 914.635 1960.225, 924.596 1959.347, 934.558 1958.469, 944.519 1957.498, 955.535 " />
            <path fill="none" stroke-width="3.0" stroke-linecap="butt" stroke-opacity="1.0" stroke="rgb(0, 0, 0)" stroke-linejoin="round" d=" M 7930.987, 1071.297 7928.469, 1068.715 7926.082, 1066.011 7923.833, 1063.191 7921.728, 1060.263 7919.771, 1057.233 7917.967, 1054.109 7916.322, 1050.900 7914.838, 1047.612 7913.521, 1044.255 7912.372, 1040.835 7911.395, 1037.363 7910.593, 1033.847 7909.966, 1030.295 7909.518, 1026.716 7909.249, 1023.119 7909.158, 1019.514 7909.249, 1015.907 7909.518, 1012.311 7909.966, 1008.732 7910.593, 1005.180 7911.395, 1001.664 7912.372, 998.191 7913.521, 994.772 7914.838, 991.415 7916.322, 988.127 7917.967, 984.918 7919.771, 981.794 7921.728, 978.764 7923.833, 975.836 7926.082, 973.016 7928.469, 970.312 7930.987, 967.730 7933.631, 965.276 7936.394, 962.958 7939.270, 960.780 7942.250, 958.748 7945.327, 956.867 7948.495, 955.142 7951.745, 953.578 7955.068, 952.176 7958.458, 950.943 7961.904, 949.880 7965.399, 948.990 7968.935, 948.275 7972.501, 947.737 7976.090, 947.378 7979.692, 947.198 7983.299, 947.198 7986.902, 947.378 7990.490, 947.737 7994.057, 948.275 7997.592, 948.990 8001.087, 949.880 8004.534, 950.943 8007.924, 952.176 8011.247, 953.578 8014.497, 955.142 8017.665, 956.867 8020.742, 958.748 8023.722, 960.780 8026.598, 962.958 8029.361, 965.276 8032.004, 967.730 8034.523, 970.312 8036.910, 973.016 8039.158, 975.836 8041.264, 978.764 8043.221, 981.794 8045.024, 984.918 8046.669, 988.127 8048.153, 991.415 8049.471, 994.772 8050.620, 998.191 8051.596, 1001.664 8052.399, 1005.180 8053.025, 1008.732 8053.474, 1012.311 8053.743, 1015.907 8053.833, 1019.514 8053.743, 1023.119 8053.474, 1026.716 8053.025, 1030.295 8052.399, 1033.847 8051.596, 1037.363 8050.620, 1040.835 8049.471, 1044.255 8048.153, 1047.612 8046.669, 1050.900 8045.024, 1054.109 8043.221, 1057.233 8041.264, 1060.263 8039.158, 1063.191 8036.910, 1066.011 8034.523, 1068.715 8032.004, 1071.297 8029.361, 1073.751 8026.598, 1076.069 8023.722, 1078.247 8020.742, 1080.279 8017.665, 1082.160 8014.497, 1083.884 8011.247, 1085.449 8007.924, 1086.851 8004.534, 1088.084 8001.087, 1089.148 7997.592, 1090.037 7994.057, 1090.752 7990.490, 1091.290 7986.902, 1091.649 7983.299, 1091.828 7979.692, 1091.828 7976.090, 1091.649 7972.501, 1091.290 7968.935, 1090.752 7965.399, 1090.037 7961.904, 1089.148 7958.458, 1088.084 7955.068, 1086.851 7951.745, 1085.449 7948.495, 1083.884 7945.327, 1082.160 7942.250, 1080.279 7939.270, 1078.247 7936.394, 1076.069 7933.631, 1073.751 7930.987, 1071.297 " />
            <path fill="none" stroke-width="3.0" stroke-linecap="butt" stroke-opacity="1.0" stroke="rgb(0, 0, 0)" stroke-linejoin="round" d=" M 8093.723, 23.627 8083.723, 23.627 8073.723, 23.627 8063.723, 23.627 8053.723, 23.627 8045.300, 23.627 8035.300, 23.627 8025.300, 23.627 8015.300, 23.627 8005.300, 23.627 7995.300, 23.628 7985.300, 23.628 7975.300, 23.628 7965.300, 23.628 7955.300, 23.628 7945.300, 23.628 7935.300, 23.628 7925.300, 23.628 7915.300, 23.628 7905.300, 23.628 7895.300, 23.628 7885.300, 23.628 7875.300, 23.628 7865.300, 23.628 7855.300, 23.628 7845.300, 23.628 7835.300, 23.628 7825.300, 23.628 7815.300, 23.628 7805.300, 23.628 7795.300, 23.628 7785.300, 23.628 7775.300, 23.628 7765.300, 23.628 7755.300, 23.628 7745.300, 23.628 7735.300, 23.628 7725.300, 23.628 7715.300, 23.628 7705.300, 23.628 7695.300, 23.628 7685.300, 23.628 7675.300, 23.628 7665.300, 23.628 7655.778, 23.628 " />
            <path fill="none" stroke-width="3.0" stroke-linecap="butt" stroke-opacity="1.0" stroke="rgb(0, 0, 0)" stroke-linejoin="round" d=" M 1807.948, 23.646 1797.948, 23.646 1787.948, 23.646 1777.948, 23.646 1767.948, 23.646 1757.948, 23.646 1747.948, 23.646 1737.948, 23.647 1727.948, 23.647 1717.948, 23.647 1707.948, 23.647 1697.948, 23.647 1687.948, 23.647 1677.948, 23.647 1667.948, 23.647 1657.948, 23.647 1647.948, 23.647 1637.948, 23.647 1627.948, 23.647 1617.948, 23.647 1607.948, 23.647 1597.948, 23.647 1587.948, 23.647 1577.948, 23.647 1567.948, 23.647 1557.948, 23.647 1547.948, 23.647 1537.948, 23.647 1527.948, 23.647 1517.948, 23.647 1507.948, 23.647 1497.948, 23.647 1487.948, 23.647 1477.948, 23.647 1467.948, 23.647 1457.948, 23.647 1447.948, 23.647 1437.948, 23.648 1427.948, 23.648 1417.948, 23.648 1407.948, 23.648 1397.948, 23.648 1387.948, 23.648 1377.948, 23.648 1367.948, 23.648 1357.948, 23.648 1347.948, 23.648 1337.948, 23.648 1327.948, 23.648 1317.948, 23.648 1307.948, 23.648 1297.948, 23.648 1287.948, 23.648 1277.948, 23.648 1267.948, 23.648 1257.948, 23.648 1247.948, 23.648 1237.948, 23.648 1227.948, 23.648 1217.948, 23.648 1207.948, 23.648 1197.948, 23.648 1187.948, 23.648 1177.948, 23.648 1167.948, 23.648 1157.948, 23.648 1147.948, 23.648 1137.948, 23.648 1127.948, 23.649 1117.948, 23.649 1107.948, 23.649 1097.948, 23.649 1087.948, 23.649 1077.948, 23.649 1067.948, 23.649 1057.948, 23.649 1047.948, 23.649 1037.948, 23.649 1027.948, 23.649 1017.948, 23.649 1007.948, 23.649 997.948, 23.649 987.948, 23.649 977.948, 23.649 967.948, 23.649 957.948, 23.649 947.948, 23.649 937.948, 23.649 927.948, 23.649 917.948, 23.649 907.948, 23.649 897.948, 23.649 887.948, 23.649 877.948, 23.649 867.948, 23.649 857.948, 23.649 847.948, 23.649 837.948, 23.649 827.948, 23.649 817.948, 23.650 807.948, 23.650 797.948, 23.650 787.948, 23.650 777.948, 23.650 767.948, 23.650 757.948, 23.650 747.948, 23.650 737.948, 23.650 727.948, 23.650 717.948, 23.650 707.948, 23.650 697.948, 23.650 687.948, 23.650 677.948, 23.650 667.948, 23.650 657.948, 23.650 647.948, 23.650 637.948, 23.650 627.948, 23.650 617.948, 23.650 607.948, 23.650 597.948, 23.650 587.948, 23.650 577.948, 23.650 567.948, 23.650 557.948, 23.650 547.948, 23.650 537.948, 23.650 527.948, 23.650 517.948, 23.650 507.948, 23.651 497.948, 23.651 487.948, 23.651 477.948, 23.651 467.948, 23.651 457.948, 23.651 447.948, 23.651 437.948, 23.651 427.948, 23.651 417.948, 23.651 407.948, 23.651 397.948, 23.651 387.948, 23.651 377.948, 23.651 367.948, 23.651 357.948, 23.651 347.948, 23.651 337.948, 23.651 327.948, 23.651 317.948, 23.651 307.948, 23.651 297.948, 23.651 287.948, 23.651 277.948, 23.651 267.948, 23.651 245.235, 23.651 " />
            <path fill="none" stroke-width="3.0" stroke-linecap="butt" stroke-opacity="1.0" stroke="rgb(0, 0, 0)" stroke-linejoin="round" d=" M 2018.826, 23.646 2008.826, 23.646 1998.826, 23.646 1988.826, 23.646 1978.826, 23.646 1968.826, 23.646 1958.826, 23.646 1948.826, 23.646 1938.826, 23.646 1928.826, 23.646 1918.826, 23.646 1908.826, 23.646 1898.826, 23.646 1888.826, 23.646 1878.826, 23.646 1868.826, 23.646 1858.826, 23.646 1848.826, 23.646 1838.826, 23.646 1828.826, 23.646 1818.826, 23.646 1808.826, 23.646 1798.826, 23.646 1788.826, 23.646 1778.826, 23.646 1768.826, 23.646 1758.826, 23.646 1748.826, 23.646 1738.826, 23.646 1728.826, 23.647 1718.826, 23.647 1708.826, 23.647 1698.826, 23.647 1688.826, 23.647 1678.826, 23.647 1668.826, 23.647 1658.826, 23.647 1648.826, 23.647 1638.826, 23.647 1628.826, 23.647 1618.826, 23.647 1608.826, 23.647 1598.826, 23.647 1588.826, 23.647 1578.826, 23.647 1568.826, 23.647 1558.826, 23.647 1548.826, 23.647 1538.826, 23.647 1528.826, 23.647 1518.826, 23.647 1508.826, 23.647 1498.826, 23.647 1488.826, 23.647 1478.826, 23.647 1468.826, 23.647 1458.826, 23.647 1448.826, 23.647 1438.826, 23.647 1428.826, 23.648 1418.826, 23.648 1408.826, 23.648 1398.826, 23.648 1388.826, 23.648 1378.826, 23.648 1368.826, 23.648 1358.826, 23.648 1348.826, 23.648 1338.826, 23.648 1328.826, 23.648 1318.826, 23.648 1308.826, 23.648 1298.826, 23.648 1288.826, 23.648 1278.826, 23.648 1268.826, 23.648 1258.826, 23.648 1248.826, 23.648 1238.826, 23.648 1228.826, 23.648 1218.826, 23.648 1208.826, 23.648 1198.826, 23.648 1188.826, 23.648 1178.826, 23.648 1168.826, 23.648 1158.826, 23.648 1148.826, 23.648 1138.826, 23.648 1128.826, 23.648 1118.826, 23.649 1108.826, 23.649 1098.826, 23.649 1088.826, 23.649 1078.826, 23.649 1068.826, 23.649 1058.826, 23.649 1048.826, 23.649 1038.826, 23.649 1028.826, 23.649 1018.826, 23.649 1008.826, 23.649 998.826, 23.649 988.826, 23.649 978.826, 23.649 968.826, 23.649 958.826, 23.649 948.826, 23.649 938.826, 23.649 928.826, 23.649 918.826, 23.649 908.826, 23.649 898.826, 23.649 888.826, 23.649 878.826, 23.649 868.826, 23.649 858.826, 23.649 848.826, 23.649 838.826, 23.649 828.826, 23.649 818.826, 23.649 808.826, 23.650 798.826, 23.650 788.826, 23.650 778.826, 23.650 768.826, 23.650 758.826, 23.650 748.826, 23.650 738.826, 23.650 728.826, 23.650 718.826, 23.650 708.826, 23.650 698.826, 23.650 688.826, 23.650 678.826, 23.650 668.826, 23.650 658.826, 23.650 648.826, 23.650 638.826, 23.650 628.826, 23.650 618.826, 23.650 608.826, 23.650 598.826, 23.650 588.826, 23.650 578.826, 23.650 568.826, 23.650 558.826, 23.650 548.826, 23.650 538.826, 23.650 528.826, 23.650 518.826, 23.650 508.826, 23.650 498.826, 23.651 488.826, 23.651 478.826, 23.651 468.826, 23.651 458.826, 23.651 448.826, 23.651 438.826, 23.651 428.826, 23.651 418.826, 23.651 408.826, 23.651 398.826, 23.651 388.826, 23.651 378.826, 23.651 368.826, 23.651 358.826, 23.651 348.826, 23.651 338.826, 23.651 328.826, 23.651 318.826, 23.651 308.826, 23.651 298.826, 23.651 288.826, 23.651 278.826, 23.651 268.826, 23.651 245.235, 23.651 " />
            <path fill="none" stroke-width="3.0" stroke-linecap="butt" stroke-opacity="1.0" stroke="rgb(0, 0, 0)" stroke-linejoin="round" d=" M 1442.110, 649.748 1441.392, 647.197 " />
            <path fill="none" stroke-width="3.0" stroke-linecap="butt" stroke-opacity="1.0" stroke="rgb(0, 0, 0)" stroke-linejoin="round" d=" M 1442.954, 652.260 1442.110, 649.748 " />
            <path fill="none" stroke-width="3.0" stroke-linecap="butt" stroke-opacity="1.0" stroke="rgb(0, 0, 0)" stroke-linejoin="round" d=" M 1443.922, 654.727 1442.954, 652.260 " />
            <path fill="none" stroke-width="3.0" stroke-linecap="butt" stroke-opacity="1.0" stroke="rgb(0, 0, 0)" stroke-linejoin="round" d=" M 1445.012, 657.142 1443.922, 654.727 " />
            <path fill="none" stroke-width="3.0" stroke-linecap="butt" stroke-opacity="1.0" stroke="rgb(0, 0, 0)" stroke-linejoin="round" d=" M 1488.923, 687.080 1486.286, 686.816 " />
            <path fill="none" stroke-width="3.0" stroke-linecap="butt" stroke-opacity="1.0" stroke="rgb(0, 0, 0)" stroke-linejoin="round" d=" M 1491.570, 687.212 1488.923, 687.080 " />
            <path fill="none" stroke-width="3.0" stroke-linecap="butt" stroke-opacity="1.0" stroke="rgb(0, 0, 0)" stroke-linejoin="round" d=" M 6352.215, 1917.571 6347.951, 1926.616 6343.686, 1935.661 6339.421, 1944.706 6335.157, 1953.751 6330.892, 1962.796 6326.627, 1971.841 6322.363, 1980.886 6318.098, 1989.931 6313.833, 1998.977 6309.569, 2008.022 6305.304, 2017.067 6301.040, 2026.112 6296.775, 2035.157 6292.510, 2044.202 6288.246, 2053.247 6283.981, 2062.292 6279.716, 2071.337 6275.452, 2080.382 6271.187, 2089.427 6266.922, 2098.472 6262.658, 2107.517 6258.393, 2116.562 6254.128, 2125.607 6252.348, 2129.384 " />
            <path fill="none" stroke-width="3.0" stroke-linecap="butt" stroke-opacity="1.0" stroke="rgb(0, 0, 0)" stroke-linejoin="round" d=" M 7329.852, 23.630 7319.852, 23.630 7309.852, 23.630 7299.852, 23.630 7289.852, 23.630 7279.852, 23.630 7269.852, 23.630 7259.852, 23.630 7249.852, 23.630 7239.852, 23.630 7229.852, 23.630 7219.852, 23.630 7209.852, 23.630 7199.852, 23.630 7189.852, 23.630 7179.852, 23.630 7169.852, 23.630 7159.852, 23.630 7149.852, 23.630 7139.852, 23.630 7129.852, 23.630 7119.852, 23.630 7109.852, 23.630 7099.852, 23.630 7089.852, 23.630 7079.852, 23.631 7069.852, 23.631 7059.852, 23.631 7049.852, 23.631 7039.852, 23.631 7029.852, 23.631 7019.852, 23.631 7009.852, 23.631 6999.852, 23.631 6989.852, 23.631 6979.852, 23.631 6968.763, 23.631 " />
            <path fill="none" stroke-width="3.0" stroke-linecap="butt" stroke-opacity="1.0" stroke="rgb(0, 0, 0)" stroke-linejoin="round" d=" M 7427.550, 23.629 7417.550, 23.629 7407.550, 23.629 7397.550, 23.629 7387.550, 23.629 7377.550, 23.629 7367.550, 23.629 7357.550, 23.629 7347.550, 23.629 7337.550, 23.629 7327.550, 23.629 7317.550, 23.629 7307.550, 23.629 7297.550, 23.629 7287.550, 23.629 7277.550, 23.629 7267.550, 23.630 7257.550, 23.630 7247.550, 23.630 7237.550, 23.630 7227.550, 23.630 7217.550, 23.630 7207.550, 23.630 7197.550, 23.630 7187.550, 23.630 7177.550, 23.630 7167.550, 23.630 7157.550, 23.630 7147.550, 23.630 7137.550, 23.630 7127.550, 23.630 7117.550, 23.630 7107.550, 23.630 7097.550, 23.630 7087.550, 23.630 7077.550, 23.630 7067.550, 23.630 7057.550, 23.631 7047.550, 23.631 7037.550, 23.631 7027.550, 23.631 7017.550, 23.631 7007.550, 23.631 6997.550, 23.631 6987.550, 23.631 6977.550, 23.631 6968.763, 23.631 " />
            <path fill="none" stroke-width="3.0" stroke-linecap="butt" stroke-opacity="1.0" stroke="rgb(0, 0, 0)" stroke-linejoin="round" d=" M 7427.550, 23.629 7417.550, 23.629 7407.550, 23.629 7397.550, 23.629 7387.550, 23.629 7377.550, 23.629 7367.550, 23.629 7357.550, 23.629 7347.550, 23.629 7337.550, 23.629 7329.852, 23.630 " />
            <path fill="none" stroke-width="3.0" stroke-linecap="butt" stroke-opacity="1.0" stroke="rgb(0, 0, 0)" stroke-linejoin="round" d=" M 7427.550, 23.629 7417.550, 23.629 7407.550, 23.629 7397.550, 23.629 7387.550, 23.629 7377.550, 23.629 7367.550, 23.629 7357.550, 23.629 7347.550, 23.629 7337.550, 23.629 7327.550, 23.629 7317.550, 23.629 7307.550, 23.629 7297.550, 23.629 7287.550, 23.629 7277.550, 23.629 7267.550, 23.630 7257.550, 23.630 7247.550, 23.630 7237.550, 23.630 7227.550, 23.630 7217.550, 23.630 7207.550, 23.630 7197.550, 23.630 7187.550, 23.630 7177.550, 23.630 7167.550, 23.630 7157.550, 23.630 7147.550, 23.630 7137.550, 23.630 7127.550, 23.630 7117.550, 23.630 7107.550, 23.630 7097.550, 23.630 7087.550, 23.630 7077.550, 23.630 7067.550, 23.630 7057.550, 23.631 7047.550, 23.631 7037.550, 23.631 7027.550, 23.631 7017.550, 23.631 7007.550, 23.631 6997.550, 23.631 6987.550, 23.631 6977.550, 23.631 6968.763, 23.631 " />
            <path fill="none" stroke-width="3.0" stroke-linecap="butt" stroke-opacity="1.0" stroke="rgb(0, 0, 0)" stroke-linejoin="round" d=" M 7655.778, 23.628 7645.778, 23.628 7635.778, 23.628 7625.778, 23.628 7615.778, 23.628 7605.778, 23.628 7595.778, 23.628 7585.778, 23.628 7575.778, 23.628 7565.778, 23.628 7555.778, 23.628 7545.778, 23.628 7535.778, 23.628 7525.778, 23.628 7515.778, 23.629 7505.778, 23.629 7495.778, 23.629 7485.778, 23.629 7475.778, 23.629 7465.778, 23.629 7455.778, 23.629 7445.778, 23.629 7435.778, 23.629 7427.550, 23.629 " />
            <path fill="none" stroke-width="3.0" stroke-linecap="butt" stroke-opacity="1.0" stroke="rgb(0, 0, 0)" stroke-linejoin="round" d=" M 8093.723, 23.627 8083.723, 23.627 8073.723, 23.627 8063.723, 23.627 8053.723, 23.627 8045.300, 23.627 8035.300, 23.627 8025.300, 23.627 8015.300, 23.627 8005.300, 23.627 7995.300, 23.628 7985.300, 23.628 7975.300, 23.628 7965.300, 23.628 7955.300, 23.628 7945.300, 23.628 7935.300, 23.628 7925.300, 23.628 7915.300, 23.628 7905.300, 23.628 7895.300, 23.628 7885.300, 23.628 7875.300, 23.628 7865.300, 23.628 7855.300, 23.628 7845.300, 23.628 7835.300, 23.628 7825.300, 23.628 7815.300, 23.628 7805.300, 23.628 7795.300, 23.628 7785.300, 23.628 7775.300, 23.628 7765.300, 23.628 7755.300, 23.628 7745.300, 23.628 7735.300, 23.628 7725.300, 23.628 7715.300, 23.628 7705.300, 23.628 7695.300, 23.628 7685.300, 23.628 7675.300, 23.628 7665.300, 23.628 7655.778, 23.628 " />
            <path fill="none" stroke-width="3.0" stroke-linecap="butt" stroke-opacity="1.0" stroke="rgb(0, 0, 0)" stroke-linejoin="round" d=" M 8950.351, 23.625 8940.351, 23.625 8930.351, 23.625 8920.351, 23.625 8910.351, 23.625 8900.351, 23.625 8890.351, 23.625 8880.351, 23.625 8870.351, 23.625 8860.351, 23.625 8850.351, 23.625 8840.351, 23.625 8830.351, 23.625 8820.351, 23.625 8810.351, 23.625 8800.351, 23.625 8790.351, 23.625 8780.351, 23.625 8770.351, 23.625 8760.351, 23.625 8750.351, 23.625 8740.351, 23.625 8730.351, 23.625 8720.351, 23.625 8710.351, 23.625 8700.351, 23.625 8690.351, 23.625 8680.351, 23.625 8670.351, 23.625 8660.351, 23.625 8650.351, 23.625 8640.351, 23.625 8630.351, 23.626 8620.351, 23.626 8610.351, 23.626 8600.351, 23.626 8590.351, 23.626 8580.351, 23.626 8570.351, 23.626 8560.351, 23.626 8550.351, 23.626 8540.351, 23.626 8530.351, 23.626 8520.351, 23.626 8510.351, 23.626 8500.351, 23.626 8490.351, 23.626 8480.351, 23.626 8470.351, 23.626 8460.351, 23.626 8450.351, 23.626 8440.351, 23.626 8430.351, 23.626 8420.351, 23.626 8410.351, 23.626 8400.351, 23.626 8390.351, 23.626 8380.351, 23.626 8370.351, 23.626 8360.351, 23.626 8350.351, 23.626 8340.351, 23.626 8330.351, 23.626 8320.351, 23.627 8310.351, 23.627 8300.351, 23.627 8290.351, 23.627 8280.351, 23.627 8270.351, 23.627 8260.351, 23.627 8250.351, 23.627 8240.351, 23.627 8230.351, 23.627 8220.351, 23.627 8210.351, 23.627 8200.351, 23.627 8190.351, 23.627 8180.351, 23.627 8170.351, 23.627 8160.351, 23.627 8150.351, 23.627 8140.351, 23.627 8130.351, 23.627 8120.351, 23.627 8110.351, 23.627 8100.351, 23.627 8090.351, 23.627 8080.351, 23.627 8070.351, 23.627 8060.351, 23.627 8045.300, 23.627 " />
            <path fill="none" stroke-width="3.0" stroke-linecap="butt" stroke-opacity="1.0" stroke="rgb(0, 0, 0)" stroke-linejoin="round" d=" M 9287.738, 1113.602 9283.225, 1104.679 9278.711, 1095.755 9274.197, 1086.832 9269.684, 1077.909 9265.169, 1068.985 9260.655, 1060.062 9256.142, 1051.139 9251.628, 1042.215 9247.114, 1033.292 9242.601, 1024.368 9238.087, 1015.445 9233.573, 1006.522 9229.060, 997.598 9224.546, 988.675 9220.032, 979.752 9215.519, 970.828 9211.005, 961.905 9206.491, 952.982 9201.978, 944.058 9197.464, 935.135 9192.949, 926.212 9188.436, 917.288 9183.922, 908.365 9179.408, 899.442 9174.895, 890.518 9170.381, 881.595 9165.867, 872.671 9161.354, 863.748 9156.840, 854.825 9152.326, 845.901 9147.812, 836.978 9143.299, 828.055 9138.785, 819.131 9134.271, 810.208 9129.758, 801.285 9125.244, 792.361 9120.730, 783.438 9116.216, 774.515 9111.702, 765.591 9107.188, 756.668 9101.993, 746.396 " />
            <path fill="none" stroke-width="3.0" stroke-linecap="butt" stroke-opacity="1.0" stroke="rgb(0, 0, 0)" stroke-linejoin="round" d=" M 9362.036, 1368.745 9359.240, 1359.143 9356.444, 1349.542 9353.648, 1339.941 9350.853, 1330.340 9348.057, 1320.739 9345.261, 1311.137 9342.465, 1301.536 9339.669, 1291.935 9336.873, 1282.334 9334.077, 1272.733 9331.281, 1263.131 9328.485, 1253.530 9325.689, 1243.929 9322.894, 1234.328 9320.098, 1224.727 9317.302, 1215.125 9314.506, 1205.524 9311.710, 1195.923 9308.914, 1186.322 9306.118, 1176.721 9303.322, 1167.119 9300.526, 1157.518 9297.730, 1147.917 9294.935, 1138.316 9292.139, 1128.714 9289.343, 1119.113 9287.738, 1113.602 " />
        </g>
    </g>
<g id="slice-labels"><text x="607.6374999999999" y="550.06475" text-anchor="middle" dominant-baseline="middle" font-family="Arial, sans-serif" font-size="59.05096241023207" font-weight="bold" fill="black" stroke="none" stroke-width="7.086115489227848" paint-order="stroke fill">Slice28 (Back)</text><text x="1775.1724999999997" y="550.06475" text-anchor="middle" dominant-baseline="middle" font-family="Arial, sans-serif" font-size="59.05096241023207" font-weight="bold" fill="black" stroke="none" stroke-width="7.086115489227848" paint-order="stroke fill">Slice28 (Back)</text><text x="2942.7074999999995" y="550.06475" text-anchor="middle" dominant-baseline="middle" font-family="Arial, sans-serif" font-size="59.05096241023207" font-weight="bold" fill="black" stroke="none" stroke-width="7.086115489227848" paint-order="stroke fill">Slice28 (Back)</text><text x="4110.242499999999" y="550.06475" text-anchor="middle" dominant-baseline="middle" font-family="Arial, sans-serif" font-size="59.05096241023207" font-weight="bold" fill="black" stroke="none" stroke-width="7.086115489227848" paint-order="stroke fill">Slice28 (Back)</text><text x="5277.777499999999" y="550.06475" text-anchor="middle" dominant-baseline="middle" font-family="Arial, sans-serif" font-size="59.05096241023207" font-weight="bold" fill="black" stroke="none" stroke-width="7.086115489227848" paint-order="stroke fill">Slice28 (Back)</text><text x="6445.312499999999" y="550.06475" text-anchor="middle" dominant-baseline="middle" font-family="Arial, sans-serif" font-size="59.05096241023207" font-weight="bold" fill="black" stroke="none" stroke-width="7.086115489227848" paint-order="stroke fill">Slice28 (Back)</text><text x="7612.847499999999" y="550.06475" text-anchor="middle" dominant-baseline="middle" font-family="Arial, sans-serif" font-size="59.05096241023207" font-weight="bold" fill="black" stroke="none" stroke-width="7.086115489227848" paint-order="stroke fill">Slice28 (Back)</text><text x="8780.3825" y="550.06475" text-anchor="middle" dominant-baseline="middle" font-family="Arial, sans-serif" font-size="59.05096241023207" font-weight="bold" fill="black" stroke="none" stroke-width="7.086115489227848" paint-order="stroke fill">Slice28 (Back)</text><text x="607.6374999999999" y="1602.94425" text-anchor="middle" dominant-baseline="middle" font-family="Arial, sans-serif" font-size="59.05096241023207" font-weight="bold" fill="black" stroke="none" stroke-width="7.086115489227848" paint-order="stroke fill">Slice28 (Back)</text><text x="1775.1724999999997" y="1602.94425" text-anchor="middle" dominant-baseline="middle" font-family="Arial, sans-serif" font-size="59.05096241023207" font-weight="bold" fill="black" stroke="none" stroke-width="7.086115489227848" paint-order="stroke fill">Slice28 (Back)</text><text x="2942.7074999999995" y="1602.94425" text-anchor="middle" dominant-baseline="middle" font-family="Arial, sans-serif" font-size="59.05096241023207" font-weight="bold" fill="black" stroke="none" stroke-width="7.086115489227848" paint-order="stroke fill">Slice28 (Back)</text><text x="4110.242499999999" y="1602.94425" text-anchor="middle" dominant-baseline="middle" font-family="Arial, sans-serif" font-size="59.05096241023207" font-weight="bold" fill="black" stroke="none" stroke-width="7.086115489227848" paint-order="stroke fill">Slice28 (Back)</text><text x="5277.777499999999" y="1602.94425" text-anchor="middle" dominant-baseline="middle" font-family="Arial, sans-serif" font-size="59.05096241023207" font-weight="bold" fill="black" stroke="none" stroke-width="7.086115489227848" paint-order="stroke fill">Slice28 (Back)</text><text x="6445.312499999999" y="1602.94425" text-anchor="middle" dominant-baseline="middle" font-family="Arial, sans-serif" font-size="59.05096241023207" font-weight="bold" fill="black" stroke="none" stroke-width="7.086115489227848" paint-order="stroke fill">Slice28 (Back)</text><text x="7612.847499999999" y="1602.94425" text-anchor="middle" dominant-baseline="middle" font-family="Arial, sans-serif" font-size="59.05096241023207" font-weight="bold" fill="black" stroke="none" stroke-width="7.086115489227848" paint-order="stroke fill">Slice28 (Back)</text><text x="8780.3825" y="1602.94425" text-anchor="middle" dominant-baseline="middle" font-family="Arial, sans-serif" font-size="59.05096241023207" font-weight="bold" fill="black" stroke="none" stroke-width="7.086115489227848" paint-order="stroke fill">Slice28 (Back)</text></g></svg>