<?xml version='1.0' encoding='utf-8'?>
<svg xmlns="http://www.w3.org/2000/svg" xmlns:inkscape="http://www.inkscape.org/namespaces/inkscape" version="1.1" width="794.8659875392914mm" height="182.300142288208mm" viewBox="0.2396113446187087 0.004603818866208087 9387.521777310762 2153.000792362268" preserveAspectRatio="none">
    <g id="ViewLayer_LineSet" inkscape:groupmode="lineset" inkscape:label="ViewLayer_LineSet">
        <g inkscape:groupmode="layer" id="strokes" inkscape:label="strokes">
            <path fill="none" stroke-width="3.0" stroke-linecap="butt" stroke-opacity="1.0" stroke="rgb(0, 0, 0)" stroke-linejoin="round" d=" M 7579.367, 23.647 7580.062, 23.647 7590.062, 23.647 7600.062, 23.647 7610.062, 23.647 7615.062, 23.647 " />
            <path fill="none" stroke-width="3.0" stroke-linecap="butt" stroke-opacity="1.0" stroke="rgb(0, 0, 0)" stroke-linejoin="round" d=" M 1627.999, 1423.022 1625.481, 1425.604 1622.837, 1428.057 1620.074, 1430.376 1617.199, 1432.553 1614.219, 1434.586 1611.141, 1436.466 1607.973, 1438.191 1604.723, 1439.756 1601.400, 1441.158 1598.011, 1442.391 1594.564, 1443.454 1591.068, 1444.344 1587.534, 1445.058 1583.967, 1445.596 1580.378, 1445.955 1576.776, 1446.135 1573.168, 1446.135 1569.566, 1445.955 1565.977, 1445.596 1562.411, 1445.058 1558.876, 1444.344 1555.380, 1443.454 1551.934, 1442.391 1548.544, 1441.158 1545.221, 1439.756 1541.971, 1438.191 1538.803, 1436.466 1535.726, 1434.586 1532.745, 1432.553 1529.870, 1430.376 1527.107, 1428.057 1524.464, 1425.604 1521.945, 1423.022 1519.558, 1420.318 1517.309, 1417.497 1515.204, 1414.569 1513.247, 1411.539 1511.444, 1408.415 1509.798, 1405.207 1508.315, 1401.919 1506.997, 1398.561 1505.848, 1395.142 1504.871, 1391.670 1504.069, 1388.154 1503.443, 1384.602 1502.994, 1381.022 1502.725, 1377.426 1502.635, 1373.821 1502.725, 1370.214 1502.994, 1366.618 1503.443, 1363.039 1504.069, 1359.486 1504.871, 1355.970 1505.848, 1352.498 1506.997, 1349.079 1508.315, 1345.721 1509.798, 1342.434 1511.444, 1339.225 1513.247, 1336.101 1515.204, 1333.071 1517.309, 1330.142 1519.558, 1327.322 1521.945, 1324.618 1524.464, 1322.036 1527.107, 1319.583 1529.870, 1317.265 1532.745, 1315.086 1535.726, 1313.054 1538.803, 1311.174 1541.971, 1309.449 1545.221, 1307.884 1548.544, 1306.483 1551.934, 1305.250 1555.380, 1304.186 1558.876, 1303.297 1562.411, 1302.582 1565.977, 1302.044 1569.566, 1301.685 1573.168, 1301.505 1576.776, 1301.505 1580.378, 1301.685 1583.967, 1302.044 1587.534, 1302.582 1591.068, 1303.297 1594.564, 1304.186 1598.011, 1305.250 1601.400, 1306.483 1604.723, 1307.884 1607.973, 1309.449 1611.141, 1311.174 1614.219, 1313.054 1617.199, 1315.086 1620.074, 1317.265 1622.837, 1319.583 1625.481, 1322.036 1627.999, 1324.618 1630.386, 1327.322 1632.635, 1330.142 1634.740, 1333.071 1636.697, 1336.101 1638.500, 1339.225 1640.146, 1342.434 1641.629, 1345.721 1642.947, 1349.079 1644.096, 1352.498 1645.073, 1355.970 1645.875, 1359.486 1646.502, 1363.039 1646.950, 1366.618 1647.220, 1370.214 1647.310, 1373.821 1647.220, 1377.426 1646.950, 1381.022 1646.502, 1384.602 1645.875, 1388.154 1645.073, 1391.670 1644.096, 1395.142 1642.947, 1398.561 1641.629, 1401.919 1640.146, 1405.207 1638.500, 1408.415 1636.697, 1411.539 1634.740, 1414.569 1632.635, 1417.497 1630.386, 1420.318 1627.999, 1423.022 " />
            <path fill="none" stroke-width="3.0" stroke-linecap="butt" stroke-opacity="1.0" stroke="rgb(0, 0, 0)" stroke-linejoin="round" d=" M 52.611, 1716.585 49.252, 1726.004 45.893, 1735.423 42.533, 1744.841 39.174, 1754.260 35.814, 1763.679 32.455, 1773.098 29.095, 1782.517 25.736, 1791.936 23.860, 1797.196 24.585, 1807.170 25.310, 1817.144 26.036, 1827.117 26.761, 1837.091 27.487, 1847.065 28.212, 1857.038 28.937, 1867.012 29.663, 1876.985 30.388, 1886.959 31.114, 1896.933 31.839, 1906.906 32.564, 1916.880 33.290, 1926.854 34.015, 1936.827 34.741, 1946.801 35.466, 1956.775 36.191, 1966.748 36.917, 1976.722 37.642, 1986.696 38.368, 1996.669 39.093, 2006.643 39.818, 2016.617 40.544, 2026.590 41.269, 2036.564 41.995, 2046.538 42.720, 2056.511 43.445, 2066.485 44.171, 2076.459 44.896, 2086.432 45.622, 2096.406 46.347, 2106.380 47.072, 2116.353 48.020, 2129.385 " />
            <path fill="none" stroke-width="3.0" stroke-linecap="butt" stroke-opacity="1.0" stroke="rgb(0, 0, 0)" stroke-linejoin="round" d=" M 286.018, 746.397 281.504, 755.320 276.990, 764.244 272.476, 773.167 267.963, 782.090 263.449, 791.014 258.935, 799.937 254.421, 808.860 249.908, 817.784 245.394, 826.707 240.880, 835.630 236.367, 844.554 231.853, 853.477 227.339, 862.400 222.825, 871.324 218.312, 880.247 213.798, 889.170 209.284, 898.094 204.770, 907.017 200.257, 915.940 195.743, 924.864 191.229, 933.787 186.715, 942.711 182.202, 951.634 177.688, 960.557 173.174, 969.481 168.661, 978.404 164.147, 987.327 159.633, 996.251 155.119, 1005.174 150.606, 1014.097 146.092, 1023.021 141.578, 1031.944 137.064, 1040.867 132.551, 1049.791 128.037, 1058.714 123.523, 1067.637 119.010, 1076.561 114.496, 1085.484 109.982, 1094.408 105.468, 1103.331 100.273, 1113.603 97.477, 1123.204 94.681, 1132.805 91.885, 1142.406 89.089, 1152.007 86.293, 1161.609 83.497, 1171.210 80.701, 1180.811 77.905, 1190.412 75.109, 1200.013 72.314, 1209.615 69.518, 1219.216 66.722, 1228.817 63.926, 1238.418 61.130, 1248.019 58.334, 1257.621 55.538, 1267.222 52.742, 1276.823 49.946, 1286.424 47.150, 1296.025 44.355, 1305.627 41.559, 1315.228 38.763, 1324.829 35.967, 1334.430 33.171, 1344.031 30.375, 1353.633 27.579, 1363.234 25.974, 1368.745 26.738, 1378.716 27.501, 1388.687 28.265, 1398.658 29.028, 1408.628 29.792, 1418.599 30.556, 1428.570 31.319, 1438.541 32.083, 1448.512 32.846, 1458.482 33.610, 1468.453 34.373, 1478.424 35.137, 1488.395 35.900, 1498.366 36.664, 1508.336 37.428, 1518.307 38.191, 1528.278 38.955, 1538.249 39.718, 1548.220 40.482, 1558.191 41.245, 1568.161 42.009, 1578.132 42.772, 1588.103 43.536, 1598.074 44.299, 1608.045 45.063, 1618.015 45.827, 1627.986 46.590, 1637.957 47.354, 1647.928 48.117, 1657.899 48.881, 1667.869 49.644, 1677.840 50.408, 1687.811 51.171, 1697.782 51.935, 1707.753 52.611, 1716.585 " />
            <path fill="none" stroke-width="3.0" stroke-linecap="butt" stroke-opacity="1.0" stroke="rgb(0, 0, 0)" stroke-linejoin="round" d=" M 596.072, 23.626 586.072, 23.626 576.072, 23.626 566.072, 23.626 556.072, 23.626 546.072, 23.626 536.072, 23.626 526.072, 23.626 516.072, 23.626 506.072, 23.625 496.072, 23.625 486.072, 23.625 476.072, 23.625 466.072, 23.625 456.072, 23.625 446.072, 23.625 437.660, 23.625 434.335, 33.056 431.009, 42.487 427.684, 51.918 424.359, 61.349 421.033, 70.780 417.708, 80.211 414.383, 89.642 411.057, 99.073 407.732, 108.504 404.407, 117.934 401.081, 127.365 397.756, 136.796 394.431, 146.227 391.105, 155.658 387.780, 165.089 384.455, 174.520 383.445, 177.385 381.757, 187.241 380.069, 197.098 378.382, 206.954 376.694, 216.811 375.006, 226.667 373.319, 236.524 371.631, 246.381 369.943, 256.237 368.256, 266.094 366.568, 275.950 364.880, 285.807 363.193, 295.663 361.505, 305.520 359.817, 315.376 358.130, 325.233 356.442, 335.090 354.754, 344.946 353.067, 354.803 351.379, 364.659 349.692, 374.516 348.004, 384.372 346.316, 394.229 344.629, 404.086 342.941, 413.942 341.253, 423.799 339.566, 433.655 337.878, 443.512 336.190, 453.368 334.503, 463.225 332.815, 473.082 331.127, 482.938 329.440, 492.795 327.752, 502.651 326.064, 512.508 324.377, 522.364 322.689, 532.221 321.001, 542.077 319.314, 551.934 317.626, 561.791 315.938, 571.647 314.251, 581.504 312.563, 591.360 310.875, 601.217 309.188, 611.073 307.500, 620.930 305.813, 630.786 304.125, 640.643 302.437, 650.500 300.750, 660.356 299.062, 670.213 297.374, 680.069 295.687, 689.926 293.999, 699.782 292.311, 709.639 290.624, 719.496 288.936, 729.352 287.248, 739.209 286.018, 746.397 " />
            <path fill="none" stroke-width="3.0" stroke-linecap="butt" stroke-opacity="1.0" stroke="rgb(0, 0, 0)" stroke-linejoin="round" d=" M 9233.880, 863.094 9232.416, 853.201 9230.952, 843.309 9229.487, 833.417 9228.023, 823.525 9226.559, 813.632 9225.095, 803.740 9223.631, 793.848 9222.166, 783.956 9220.702, 774.063 9219.238, 764.171 9217.773, 754.279 9216.310, 744.387 9214.846, 734.495 9213.381, 724.602 9211.917, 714.710 9210.453, 704.818 9208.988, 694.926 9207.524, 685.034 9206.060, 675.141 9204.596, 665.249 9203.132, 655.357 9201.667, 645.465 9200.203, 635.572 9198.739, 625.680 9197.274, 615.788 9195.811, 605.896 9194.347, 596.004 9192.882, 586.111 9191.418, 576.219 9189.954, 566.327 9188.489, 556.435 9187.025, 546.542 9185.561, 536.650 9183.966, 525.872 9183.148, 515.906 9182.331, 505.939 9181.514, 495.972 9180.696, 486.006 9179.879, 476.039 9179.062, 466.073 9178.244, 456.106 9177.427, 446.140 9176.608, 436.173 9175.791, 426.207 9174.974, 416.240 9174.156, 406.274 9173.339, 396.307 9172.521, 386.341 9171.704, 376.374 9170.887, 366.407 9170.069, 356.441 9169.252, 346.474 9168.435, 336.508 9167.617, 326.541 9166.800, 316.575 9165.982, 306.608 9165.165, 296.642 9164.348, 286.675 9163.530, 276.709 9162.713, 266.742 9161.896, 256.776 9161.078, 246.809 9160.261, 236.843 9159.443, 226.876 9158.626, 216.909 9157.809, 206.943 9156.990, 196.976 9156.173, 187.010 9155.355, 177.043 9154.538, 167.077 9153.721, 157.110 9152.903, 147.144 9152.086, 137.177 9151.269, 127.211 9150.451, 117.244 9149.634, 107.278 9148.816, 97.311 9147.999, 87.344 9147.182, 77.378 9146.364, 67.411 9145.547, 57.445 9144.729, 47.478 9143.912, 37.512 9142.775, 23.652 " />
            <path fill="none" stroke-width="3.0" stroke-linecap="butt" stroke-opacity="1.0" stroke="rgb(0, 0, 0)" stroke-linejoin="round" d=" M 9364.141, 1660.664 9362.271, 1650.841 9360.402, 1641.017 9358.533, 1631.193 9356.664, 1621.369 9354.795, 1611.546 9352.926, 1601.722 9351.057, 1591.898 9349.188, 1582.074 9347.318, 1572.251 9345.449, 1562.427 9343.580, 1552.603 9341.711, 1542.779 9339.842, 1532.956 9337.973, 1523.132 9336.104, 1513.308 9334.234, 1503.484 9332.365, 1493.660 9330.496, 1483.837 9328.627, 1474.013 9326.758, 1464.189 9324.889, 1454.365 9323.020, 1444.542 9321.150, 1434.718 9319.281, 1424.894 9317.412, 1415.070 9315.543, 1405.247 9313.674, 1395.423 9311.805, 1385.599 9309.936, 1375.775 9308.067, 1365.951 9306.198, 1356.128 9304.329, 1346.304 9302.460, 1336.480 9300.591, 1326.656 9298.722, 1316.833 9296.853, 1307.009 9294.983, 1297.185 9293.114, 1287.361 9291.245, 1277.538 9289.376, 1267.714 9287.507, 1257.890 9285.638, 1248.066 9283.769, 1238.242 9281.899, 1228.419 9280.030, 1218.595 9278.161, 1208.771 9276.292, 1198.947 9274.423, 1189.124 9272.554, 1179.300 9270.685, 1169.476 9268.815, 1159.652 9266.204, 1145.926 9265.102, 1135.987 9264.000, 1126.047 9262.898, 1116.108 9261.796, 1106.169 9260.694, 1096.230 9259.593, 1086.291 9258.491, 1076.352 9257.389, 1066.413 9256.287, 1056.474 9255.186, 1046.535 9254.083, 1036.595 9252.981, 1026.656 9251.880, 1016.717 9250.777, 1006.778 9249.676, 996.839 9248.574, 986.900 9247.473, 976.961 9246.370, 967.022 9245.269, 957.083 9244.167, 947.143 9243.394, 940.166 9239.644, 930.896 9235.894, 921.626 9232.143, 912.355 9228.555, 903.485 9229.862, 893.571 9231.169, 883.657 9232.477, 873.742 9233.783, 863.828 9233.880, 863.094 " />
            <path fill="none" stroke-width="3.0" stroke-linecap="butt" stroke-opacity="1.0" stroke="rgb(0, 0, 0)" stroke-linejoin="round" d=" M 7456.657, 23.647 7446.657, 23.647 7436.657, 23.647 7426.657, 23.647 7416.657, 23.647 7406.657, 23.647 7396.657, 23.647 7386.657, 23.646 7376.657, 23.646 7369.185, 23.646 7368.621, 33.631 7368.058, 43.615 7367.494, 53.599 7366.930, 63.583 7366.367, 73.567 7365.803, 83.551 7365.239, 93.535 7364.676, 103.519 7364.112, 113.503 7363.549, 123.487 7362.985, 133.472 7362.421, 143.456 7361.858, 153.440 7361.294, 163.424 7361.062, 167.531 7361.940, 177.493 7362.818, 187.454 7363.696, 197.416 7364.574, 207.377 7365.452, 217.339 7366.330, 227.300 7367.208, 237.261 7368.086, 247.223 7368.964, 257.184 7369.842, 267.145 7370.720, 277.107 7371.598, 287.068 7372.476, 297.030 7373.354, 306.991 7374.231, 316.952 7375.109, 326.914 7375.987, 336.875 7376.865, 346.837 7377.743, 356.798 7378.621, 366.759 7379.499, 376.721 7380.377, 386.682 7381.255, 396.643 7382.133, 406.605 7383.011, 416.566 7383.889, 426.528 7384.767, 436.489 7385.645, 446.450 7386.522, 456.412 7387.400, 466.373 7388.278, 476.334 7389.156, 486.296 7390.034, 496.257 7390.912, 506.219 7391.790, 516.180 7392.668, 526.141 7393.546, 536.103 7394.424, 546.064 7395.302, 556.026 7396.180, 565.987 7397.058, 575.948 7397.936, 585.910 7398.814, 595.871 7399.692, 605.833 7400.570, 615.794 7401.448, 625.755 7402.326, 635.717 7403.204, 645.678 7404.082, 655.640 7404.959, 665.601 7405.837, 675.562 7406.715, 685.524 7407.593, 695.485 7408.471, 705.446 7409.349, 715.408 7410.227, 725.369 7411.105, 735.331 7411.983, 745.292 7412.861, 755.253 7413.739, 765.215 7414.617, 775.176 7415.495, 785.137 7416.373, 795.099 7417.250, 805.060 7418.128, 815.022 7419.006, 824.983 7419.884, 834.944 7420.762, 844.906 7421.640, 854.867 7422.518, 864.829 7423.396, 874.790 7424.274, 884.751 7425.152, 894.713 7426.030, 904.674 7426.908, 914.635 7427.786, 924.597 7428.664, 934.558 7429.542, 944.520 7430.513, 955.536 7431.896, 965.440 7433.278, 975.344 7433.382, 976.093 7436.397, 985.627 7439.413, 995.162 7442.428, 1004.696 7445.443, 1014.231 7448.458, 1023.766 7451.474, 1033.300 7454.489, 1042.835 7457.504, 1052.369 7460.519, 1061.904 7463.534, 1071.439 7466.549, 1080.973 7469.564, 1090.508 7472.580, 1100.042 7475.595, 1109.577 7478.610, 1119.112 7481.625, 1128.646 7484.640, 1138.181 7487.655, 1147.716 7490.670, 1157.250 7493.686, 1166.785 7496.701, 1176.319 7499.716, 1185.854 7502.731, 1195.389 7505.746, 1204.923 7508.761, 1214.458 7511.776, 1223.992 7514.792, 1233.527 7517.807, 1243.062 7520.822, 1252.596 7523.837, 1262.131 7526.852, 1271.666 7529.867, 1281.200 7532.882, 1290.735 7535.897, 1300.269 7538.913, 1309.804 7541.928, 1319.339 7544.943, 1328.873 7547.958, 1338.408 7550.974, 1347.942 7553.989, 1357.477 7557.004, 1367.012 7560.019, 1376.546 7563.034, 1386.081 7566.049, 1395.615 7569.064, 1405.150 7572.080, 1414.685 7575.095, 1424.219 7578.110, 1433.754 7581.125, 1443.289 7584.140, 1452.823 7587.155, 1462.358 7590.170, 1471.892 7593.186, 1481.427 7596.201, 1490.962 7599.216, 1500.496 7602.231, 1510.031 7605.246, 1519.565 7608.261, 1529.100 7611.276, 1538.635 7614.292, 1548.169 7617.307, 1557.704 7621.742, 1571.731 7616.938, 1580.501 7612.134, 1589.271 7607.330, 1598.042 7602.526, 1606.812 7597.722, 1615.583 7595.956, 1618.807 7596.191, 1628.804 7596.426, 1638.801 7596.661, 1648.798 7596.896, 1658.796 7597.131, 1668.793 7597.366, 1678.790 7597.601, 1688.787 7597.836, 1698.785 7598.071, 1708.782 7598.306, 1718.779 7598.541, 1728.776 7598.776, 1738.774 7599.011, 1748.771 7599.246, 1758.768 7599.481, 1768.765 7599.716, 1778.762 7599.951, 1788.760 7600.187, 1798.757 7600.421, 1808.754 7600.656, 1818.751 7600.892, 1828.749 7601.126, 1838.746 7601.361, 1848.743 7601.597, 1858.740 7601.832, 1868.738 7602.066, 1878.735 7602.302, 1888.732 7602.537, 1898.729 7602.771, 1908.727 7603.007, 1918.724 7603.242, 1928.721 7603.477, 1938.718 7603.712, 1948.716 7603.947, 1958.713 7604.182, 1968.710 7604.417, 1978.707 7604.652, 1988.704 7604.887, 1998.702 7605.122, 2008.699 7605.357, 2018.696 7605.592, 2028.693 7605.827, 2038.691 7606.062, 2048.688 7606.297, 2058.685 7606.532, 2068.682 7606.767, 2078.680 7607.002, 2088.677 7607.237, 2098.674 7607.472, 2108.671 7607.707, 2118.669 7607.959, 2129.385 7615.215, 2129.385 7625.215, 2129.385 7635.215, 2129.385 7645.215, 2129.385 7655.215, 2129.385 7665.215, 2129.385 7675.215, 2129.385 7685.215, 2129.385 7695.215, 2129.385 7705.215, 2129.385 7715.215, 2129.385 7725.215, 2129.385 7735.215, 2129.385 7745.215, 2129.385 7755.215, 2129.385 7765.215, 2129.385 7775.215, 2129.385 7785.215, 2129.385 7795.215, 2129.385 7805.215, 2129.385 7815.215, 2129.385 7825.215, 2129.385 7835.215, 2129.385 7845.215, 2129.385 7855.215, 2129.385 7865.215, 2129.385 7875.215, 2129.385 7885.215, 2129.385 7895.215, 2129.385 7905.215, 2129.385 7915.215, 2129.385 7925.215, 2129.385 7935.215, 2129.385 7945.215, 2129.385 7955.215, 2129.385 7965.215, 2129.385 7975.215, 2129.385 7985.215, 2129.385 7995.215, 2129.385 8005.215, 2129.385 8015.215, 2129.385 8025.215, 2129.385 8035.215, 2129.385 8045.215, 2129.385 8055.215, 2129.385 8065.215, 2129.385 8075.215, 2129.385 8085.215, 2129.385 8095.215, 2129.385 8105.215, 2129.385 8115.215, 2129.385 8125.215, 2129.385 8135.215, 2129.385 8145.215, 2129.385 8155.215, 2129.385 8165.215, 2129.385 8175.215, 2129.385 8185.215, 2129.385 8195.215, 2129.385 8205.215, 2129.385 8215.215, 2129.385 8225.215, 2129.385 8235.215, 2129.385 8245.215, 2129.385 8255.215, 2129.385 8265.215, 2129.385 8275.215, 2129.385 8285.215, 2129.385 8295.215, 2129.385 8305.215, 2129.385 8315.215, 2129.385 8325.215, 2129.385 8335.215, 2129.385 8345.215, 2129.385 8355.215, 2129.385 8365.215, 2129.385 8375.215, 2129.385 8385.215, 2129.385 8395.215, 2129.385 8405.215, 2129.385 8415.215, 2129.385 8425.215, 2129.385 8435.215, 2129.385 8445.215, 2129.385 8455.215, 2129.385 8465.215, 2129.385 8475.215, 2129.385 8485.215, 2129.385 8495.215, 2129.385 8505.215, 2129.385 8515.215, 2129.385 8525.215, 2129.385 8535.215, 2129.385 8545.215, 2129.385 8555.215, 2129.385 8565.215, 2129.385 8575.215, 2129.385 8585.215, 2129.385 8595.215, 2129.385 8605.215, 2129.385 8615.215, 2129.385 8625.215, 2129.385 8635.215, 2129.385 8645.215, 2129.385 8655.215, 2129.385 8665.215, 2129.385 8675.215, 2129.385 8685.215, 2129.385 8695.215, 2129.385 8705.215, 2129.385 8715.215, 2129.385 8725.215, 2129.385 8735.215, 2129.385 8745.215, 2129.385 8755.215, 2129.385 8765.215, 2129.385 8775.215, 2129.385 8785.215, 2129.385 8795.215, 2129.385 8805.215, 2129.385 8815.215, 2129.385 8825.215, 2129.385 8835.215, 2129.385 8845.215, 2129.385 8855.215, 2129.385 8865.215, 2129.385 8875.215, 2129.385 8885.215, 2129.385 8895.215, 2129.385 8905.215, 2129.385 8915.215, 2129.385 8925.215, 2129.385 8935.215, 2129.385 8945.215, 2129.385 8955.215, 2129.385 8965.215, 2129.385 8980.051, 2129.385 8990.051, 2129.385 9000.051, 2129.385 9010.051, 2129.385 9020.051, 2129.385 9030.051, 2129.385 9040.051, 2129.385 9050.051, 2129.385 9060.051, 2129.385 9070.051, 2129.385 9080.051, 2129.385 9090.051, 2129.385 9100.051, 2129.385 9110.051, 2129.385 9120.051, 2129.385 9130.051, 2129.385 9140.051, 2129.385 9150.051, 2129.385 9160.051, 2129.385 9170.051, 2129.385 9180.051, 2129.385 9190.051, 2129.385 9200.051, 2129.385 9210.051, 2129.385 9213.541, 2129.385 9223.541, 2129.385 9233.541, 2129.385 9243.541, 2129.385 9253.541, 2129.385 9263.541, 2129.385 9273.541, 2129.385 9283.541, 2129.385 9293.541, 2129.385 9303.541, 2129.385 9313.541, 2129.385 9323.541, 2129.385 9333.541, 2129.385 9339.011, 2129.385 9337.182, 2119.553 9335.354, 2109.722 9333.524, 2099.890 9331.696, 2090.059 9329.867, 2080.228 9329.224, 2076.765 9330.060, 2066.800 9330.896, 2056.835 9331.732, 2046.870 9332.568, 2036.905 9333.404, 2026.940 9334.240, 2016.975 9335.077, 2007.010 9335.913, 1997.045 9336.749, 1987.080 9337.586, 1977.115 9338.422, 1967.150 9339.258, 1957.185 9340.094, 1947.220 9340.931, 1937.255 9341.767, 1927.290 9342.603, 1917.325 9343.439, 1907.360 9344.275, 1897.395 9345.111, 1887.430 9345.947, 1877.465 9346.784, 1867.500 9347.620, 1857.535 9348.456, 1847.570 9349.292, 1837.605 9350.129, 1827.640 9350.965, 1817.675 9351.801, 1807.711 9352.638, 1797.746 9353.474, 1787.781 9354.310, 1777.816 9355.146, 1767.851 9355.982, 1757.886 9356.818, 1747.921 9357.654, 1737.956 9358.491, 1727.991 9359.327, 1718.026 9360.163, 1708.061 9360.999, 1698.096 9361.836, 1688.131 9362.672, 1678.166 9363.508, 1668.201 9364.141, 1660.664 " />
            <path fill="none" stroke-width="3.0" stroke-linecap="butt" stroke-opacity="1.0" stroke="rgb(0, 0, 0)" stroke-linejoin="round" d=" M 7946.618, 647.198 7945.900, 649.748 7945.057, 652.261 7944.089, 654.727 7942.998, 657.142 7941.790, 659.501 7940.465, 661.796 7939.027, 664.021 7937.480, 666.173 7935.828, 668.245 7934.074, 670.232 7932.225, 672.129 7930.282, 673.931 7928.251, 675.634 7926.140, 677.234 7923.950, 678.728 7921.688, 680.109 7919.361, 681.376 7916.974, 682.526 7914.532, 683.555 7912.042, 684.462 7909.510, 685.243 7906.941, 685.896 7904.344, 686.422 7901.724, 686.817 7899.087, 687.080 7896.441, 687.213 7893.792, 687.213 7891.144, 687.080 7888.507, 686.817 7885.887, 686.422 7883.290, 685.896 7880.722, 685.243 7878.190, 684.462 7875.699, 683.555 7873.257, 682.526 7870.870, 681.376 7868.543, 680.109 " />
            <path fill="none" stroke-width="3.0" stroke-linecap="butt" stroke-opacity="1.0" stroke="rgb(0, 0, 0)" stroke-linejoin="round" d=" M 7948.195, 636.733 7947.998, 639.376 7947.668, 642.004 7947.208, 644.614 7946.618, 647.198 " />
            <path fill="none" stroke-width="3.0" stroke-linecap="butt" stroke-opacity="1.0" stroke="rgb(0, 0, 0)" stroke-linejoin="round" d=" M 7944.089, 613.440 7945.057, 615.906 7945.900, 618.419 7946.618, 620.970 7947.208, 623.553 7947.668, 626.163 7947.998, 628.792 7948.195, 631.435 7948.262, 634.083 7948.195, 636.733 " />
            <path fill="none" stroke-width="3.0" stroke-linecap="butt" stroke-opacity="1.0" stroke="rgb(0, 0, 0)" stroke-linejoin="round" d=" M 7942.998, 611.024 7944.089, 613.440 " />
            <path fill="none" stroke-width="3.0" stroke-linecap="butt" stroke-opacity="1.0" stroke="rgb(0, 0, 0)" stroke-linejoin="round" d=" M 9142.775, 23.652 9132.775, 23.671 9122.775, 23.690 9114.727, 23.706 9114.593, 23.705 9114.459, 23.705 9114.324, 23.704 9114.190, 23.704 9114.056, 23.704 9113.924, 23.704 9113.791, 23.704 9113.661, 23.703 9113.531, 23.703 9113.405, 23.703 9113.282, 23.703 9113.162, 23.703 9113.045, 23.702 9113.039, 23.654 " />
            <path fill="none" stroke-width="3.0" stroke-linecap="butt" stroke-opacity="1.0" stroke="rgb(0, 0, 0)" stroke-linejoin="round" d=" M 7941.790, 608.666 7942.998, 611.024 " />
            <path fill="none" stroke-width="3.0" stroke-linecap="butt" stroke-opacity="1.0" stroke="rgb(0, 0, 0)" stroke-linejoin="round" d=" M 7916.974, 585.640 7919.361, 586.791 7921.688, 588.058 7923.950, 589.439 7926.140, 590.932 7928.251, 592.533 7930.282, 594.236 7932.225, 596.038 7934.074, 597.935 7935.828, 599.922 7937.480, 601.994 7939.027, 604.146 7940.465, 606.371 7941.790, 608.666 " />
            <path fill="none" stroke-width="3.0" stroke-linecap="butt" stroke-opacity="1.0" stroke="rgb(0, 0, 0)" stroke-linejoin="round" d=" M 7842.234, 628.792 7842.563, 626.163 " />
            <path fill="none" stroke-width="3.0" stroke-linecap="butt" stroke-opacity="1.0" stroke="rgb(0, 0, 0)" stroke-linejoin="round" d=" M 7842.036, 631.435 7842.234, 628.792 " />
            <path fill="none" stroke-width="3.0" stroke-linecap="butt" stroke-opacity="1.0" stroke="rgb(0, 0, 0)" stroke-linejoin="round" d=" M 7852.751, 666.173 7851.205, 664.021 7849.767, 661.796 7848.442, 659.501 7847.233, 657.142 7846.144, 654.727 7845.175, 652.261 7844.331, 649.748 7843.614, 647.198 7843.023, 644.614 7842.563, 642.004 7842.234, 639.376 7842.036, 636.733 7841.970, 634.083 7842.036, 631.435 " />
            <path fill="none" stroke-width="3.0" stroke-linecap="butt" stroke-opacity="1.0" stroke="rgb(0, 0, 0)" stroke-linejoin="round" d=" M 7868.543, 680.109 7866.282, 678.728 7864.092, 677.234 7861.980, 675.634 7859.950, 673.931 7858.008, 672.129 7856.157, 670.232 7854.404, 668.245 7852.751, 666.173 " />
            <path fill="none" stroke-width="3.0" stroke-linecap="butt" stroke-opacity="1.0" stroke="rgb(0, 0, 0)" stroke-linejoin="round" d=" M 7885.887, 581.745 7888.507, 581.350 7891.144, 581.086 7893.792, 580.953 " />
            <path fill="none" stroke-width="3.0" stroke-linecap="butt" stroke-opacity="1.0" stroke="rgb(0, 0, 0)" stroke-linejoin="round" d=" M 7864.092, 590.932 7866.282, 589.439 7868.543, 588.058 7870.870, 586.791 7873.257, 585.640 7875.699, 584.611 7878.190, 583.705 7880.722, 582.924 7883.290, 582.270 7885.887, 581.745 " />
            <path fill="none" stroke-width="3.0" stroke-linecap="butt" stroke-opacity="1.0" stroke="rgb(0, 0, 0)" stroke-linejoin="round" d=" M 7842.563, 626.163 7843.023, 623.553 7843.614, 620.970 7844.331, 618.419 7845.175, 615.906 7846.144, 613.440 7847.233, 611.024 7848.442, 608.666 7849.767, 606.371 7851.205, 604.146 7852.751, 601.994 7854.404, 599.922 7856.157, 597.935 7858.008, 596.038 7859.950, 594.236 7861.980, 592.533 7864.092, 590.932 " />
            <path fill="none" stroke-width="3.0" stroke-linecap="butt" stroke-opacity="1.0" stroke="rgb(0, 0, 0)" stroke-linejoin="round" d=" M 9142.775, 23.652 9132.775, 23.652 9122.775, 23.652 9112.775, 23.652 9102.775, 23.652 9092.775, 23.652 9082.775, 23.652 9072.775, 23.652 9062.775, 23.652 9052.775, 23.652 9042.775, 23.652 9032.775, 23.652 9022.775, 23.652 9012.775, 23.652 9002.775, 23.652 8992.775, 23.652 8982.775, 23.652 8972.775, 23.652 8962.775, 23.651 8952.775, 23.651 8942.775, 23.651 8932.775, 23.651 8922.775, 23.651 8912.775, 23.651 8902.775, 23.651 8892.775, 23.651 8882.775, 23.651 8872.775, 23.651 8862.775, 23.651 8852.775, 23.651 8842.775, 23.651 8832.775, 23.651 8822.775, 23.651 8812.775, 23.651 8802.775, 23.651 8792.775, 23.651 8782.775, 23.651 8772.775, 23.651 8762.775, 23.651 8752.775, 23.651 8742.775, 23.651 8732.775, 23.651 8722.775, 23.651 8712.775, 23.651 8702.775, 23.651 8692.775, 23.651 8682.775, 23.651 8672.775, 23.651 8662.775, 23.651 8652.775, 23.650 8642.775, 23.650 8632.775, 23.650 8622.775, 23.650 8612.775, 23.650 8602.775, 23.650 8592.775, 23.650 8582.775, 23.650 8572.775, 23.650 8562.775, 23.650 8552.775, 23.650 8542.775, 23.650 8532.775, 23.650 8522.775, 23.650 8512.775, 23.650 8502.775, 23.650 8492.775, 23.650 8482.775, 23.650 8472.775, 23.650 8462.775, 23.650 8452.775, 23.650 8442.775, 23.650 8432.775, 23.650 8422.775, 23.650 8412.775, 23.650 8402.775, 23.650 8392.775, 23.650 8382.775, 23.650 8372.775, 23.650 8362.775, 23.650 8352.775, 23.650 8342.775, 23.649 8332.775, 23.649 8322.775, 23.649 8312.775, 23.649 8302.775, 23.649 8292.775, 23.649 8282.775, 23.649 8272.775, 23.649 8262.775, 23.649 8252.775, 23.649 8242.775, 23.649 8232.775, 23.649 8222.775, 23.649 8212.775, 23.649 8202.775, 23.649 8192.775, 23.649 8182.775, 23.649 8172.775, 23.649 8162.775, 23.649 8152.775, 23.649 8142.775, 23.649 8132.775, 23.649 8122.775, 23.649 8112.775, 23.649 8102.775, 23.649 8092.775, 23.649 8082.775, 23.649 8072.775, 23.649 8062.775, 23.649 8052.775, 23.649 8042.775, 23.649 8032.775, 23.648 8022.775, 23.648 8012.775, 23.648 8002.775, 23.648 7992.775, 23.648 7982.775, 23.648 7972.775, 23.648 7962.775, 23.648 7952.775, 23.648 7942.775, 23.648 7932.775, 23.648 7922.775, 23.648 7912.775, 23.648 7902.775, 23.648 7892.775, 23.648 7882.775, 23.648 7872.775, 23.648 7862.775, 23.648 7852.775, 23.648 7842.775, 23.648 7832.775, 23.648 7822.775, 23.648 7812.775, 23.648 7802.775, 23.648 7792.775, 23.648 7782.775, 23.648 7772.775, 23.648 7762.775, 23.648 7752.775, 23.648 7742.775, 23.648 7732.775, 23.648 7722.775, 23.647 7712.775, 23.647 7702.775, 23.647 7692.775, 23.647 7682.775, 23.647 7672.775, 23.647 7662.775, 23.647 7652.775, 23.647 7642.775, 23.647 7632.775, 23.647 7615.062, 23.647 7605.062, 23.647 7595.062, 23.647 7585.062, 23.647 7579.367, 23.647 7569.367, 23.654 7559.367, 23.661 7549.367, 23.668 7539.367, 23.675 7529.367, 23.682 7519.367, 23.689 7509.367, 23.696 7499.367, 23.702 7489.367, 23.709 7479.367, 23.716 7469.367, 23.723 7459.987, 23.730 7459.700, 23.739 7459.400, 23.739 " />
            <path fill="none" stroke-width="3.0" stroke-linecap="butt" stroke-opacity="1.0" stroke="rgb(0, 0, 0)" stroke-linejoin="round" d=" M 7912.042, 583.705 7914.532, 584.611 " />
            <path fill="none" stroke-width="3.0" stroke-linecap="butt" stroke-opacity="1.0" stroke="rgb(0, 0, 0)" stroke-linejoin="round" d=" M 7899.087, 581.086 7901.724, 581.350 7904.344, 581.745 7906.941, 582.270 7909.510, 582.924 7912.042, 583.705 " />
            <path fill="none" stroke-width="3.0" stroke-linecap="butt" stroke-opacity="1.0" stroke="rgb(0, 0, 0)" stroke-linejoin="round" d=" M 7459.400, 23.739 7459.078, 23.740 7458.734, 23.740 7458.370, 23.740 7457.986, 23.740 7457.584, 23.740 7457.165, 23.740 " />
            <path fill="none" stroke-width="3.0" stroke-linecap="butt" stroke-opacity="1.0" stroke="rgb(0, 0, 0)" stroke-linejoin="round" d=" M 7896.441, 580.953 7899.087, 581.086 " />
            <path fill="none" stroke-width="3.0" stroke-linecap="butt" stroke-opacity="1.0" stroke="rgb(0, 0, 0)" stroke-linejoin="round" d=" M 7893.792, 580.953 7896.441, 580.953 " />
            <path fill="none" stroke-width="3.0" stroke-linecap="butt" stroke-opacity="1.0" stroke="rgb(0, 0, 0)" stroke-linejoin="round" d=" M 7457.165, 23.740 7456.657, 23.647 " />
            <path fill="none" stroke-width="3.0" stroke-linecap="butt" stroke-opacity="1.0" stroke="rgb(0, 0, 0)" stroke-linejoin="round" d=" M 9113.039, 23.652 9103.039, 23.652 9093.039, 23.652 9083.039, 23.653 9073.039, 23.653 9063.039, 23.653 9053.039, 23.653 9043.039, 23.653 9033.039, 23.654 9023.039, 23.654 9013.039, 23.654 9003.039, 23.654 8993.039, 23.654 8983.039, 23.655 8973.039, 23.655 8963.039, 23.655 8953.039, 23.655 8943.039, 23.655 8933.039, 23.656 8923.039, 23.656 8913.039, 23.656 8903.039, 23.656 8893.039, 23.656 8883.039, 23.656 8873.039, 23.656 8863.039, 23.657 8853.039, 23.657 8843.039, 23.657 8833.039, 23.657 8823.039, 23.657 8813.039, 23.658 8803.039, 23.658 8793.039, 23.658 8783.039, 23.658 8773.039, 23.658 8763.039, 23.659 8753.039, 23.659 8743.039, 23.659 8733.039, 23.659 8723.039, 23.659 8713.039, 23.660 8703.039, 23.660 8693.039, 23.660 8683.039, 23.660 8673.039, 23.660 8663.039, 23.661 8653.039, 23.661 8643.039, 23.661 8633.039, 23.661 8623.039, 23.661 8613.039, 23.662 8603.039, 23.662 8593.039, 23.662 8583.039, 23.662 8573.039, 23.662 8563.039, 23.662 8553.039, 23.663 8543.039, 23.663 8533.039, 23.663 8523.039, 23.663 8513.039, 23.663 8503.039, 23.664 8493.039, 23.664 8483.039, 23.664 8473.039, 23.664 8463.039, 23.664 8453.039, 23.665 8443.039, 23.665 8433.039, 23.665 8423.039, 23.665 8413.039, 23.665 8403.039, 23.666 8393.039, 23.666 8383.039, 23.666 8373.039, 23.666 8363.039, 23.666 8353.039, 23.667 8343.039, 23.667 8333.039, 23.667 8323.039, 23.667 8313.039, 23.667 8303.039, 23.667 8293.039, 23.667 8283.039, 23.668 8273.039, 23.668 8263.039, 23.668 8253.039, 23.668 8243.039, 23.668 8233.039, 23.669 8223.039, 23.669 8213.039, 23.669 8203.039, 23.669 8193.039, 23.669 8183.039, 23.670 8173.039, 23.670 8163.039, 23.670 8153.039, 23.670 8143.039, 23.670 8133.039, 23.671 8123.039, 23.671 8113.039, 23.671 8103.039, 23.671 8093.039, 23.671 8083.039, 23.672 8073.039, 23.672 8063.039, 23.672 8053.039, 23.672 8043.039, 23.672 8033.039, 23.673 8023.039, 23.673 8013.039, 23.673 8003.039, 23.673 7993.039, 23.673 7983.039, 23.673 7973.039, 23.674 7963.039, 23.674 7953.039, 23.674 7943.039, 23.674 7933.039, 23.674 7923.039, 23.675 7913.039, 23.675 7903.039, 23.675 7893.039, 23.675 7883.039, 23.675 7873.039, 23.676 7863.039, 23.676 7853.039, 23.676 7843.039, 23.676 7833.039, 23.676 7823.039, 23.677 7813.039, 23.677 7803.039, 23.677 7793.039, 23.677 7783.039, 23.677 7773.039, 23.677 7763.039, 23.678 7753.039, 23.678 7743.039, 23.678 7733.039, 23.678 7723.039, 23.678 7713.039, 23.678 7703.039, 23.679 7693.039, 23.679 7683.039, 23.679 7673.039, 23.679 7663.039, 23.679 7653.039, 23.680 7643.039, 23.680 7633.039, 23.680 7623.039, 23.680 7613.039, 23.680 7603.039, 23.681 7580.175, 23.681 7579.367, 23.647 " />
            <path fill="none" stroke-width="3.0" stroke-linecap="butt" stroke-opacity="1.0" stroke="rgb(0, 0, 0)" stroke-linejoin="round" d=" M 7914.532, 584.611 7916.974, 585.640 " />
            <path fill="none" stroke-width="3.0" stroke-linecap="butt" stroke-opacity="1.0" stroke="rgb(0, 0, 0)" stroke-linejoin="round" d=" M 48.020, 2129.385 58.020, 2129.385 68.020, 2129.385 78.020, 2129.385 88.020, 2129.385 98.020, 2129.385 108.020, 2129.385 118.020, 2129.385 128.020, 2129.385 138.020, 2129.385 148.020, 2129.385 158.020, 2129.385 168.020, 2129.385 178.020, 2129.385 188.020, 2129.385 198.020, 2129.385 208.020, 2129.385 218.020, 2129.385 228.020, 2129.385 238.020, 2129.385 248.020, 2129.385 258.020, 2129.385 268.020, 2129.385 278.020, 2129.385 288.020, 2129.385 298.020, 2129.385 308.020, 2129.385 318.020, 2129.385 328.020, 2129.385 338.020, 2129.385 348.020, 2129.385 358.020, 2129.385 368.020, 2129.385 378.020, 2129.385 388.020, 2129.385 398.020, 2129.385 408.020, 2129.385 418.020, 2129.385 428.020, 2129.385 438.020, 2129.385 448.020, 2129.385 458.020, 2129.385 468.020, 2129.385 478.020, 2129.385 488.020, 2129.385 498.020, 2129.385 508.020, 2129.385 518.020, 2129.385 528.020, 2129.385 538.020, 2129.385 548.020, 2129.385 558.020, 2129.385 564.328, 2129.385 574.328, 2129.385 584.328, 2129.385 594.328, 2129.385 604.328, 2129.385 614.328, 2129.385 624.328, 2129.385 634.328, 2129.385 644.328, 2129.385 654.328, 2129.385 664.328, 2129.385 674.328, 2129.385 684.328, 2129.385 694.328, 2129.385 704.328, 2129.385 714.328, 2129.385 724.328, 2129.385 734.328, 2129.385 744.328, 2129.385 754.328, 2129.385 764.328, 2129.385 774.328, 2129.385 784.328, 2129.385 794.328, 2129.385 804.328, 2129.385 814.328, 2129.385 824.328, 2129.385 834.328, 2129.385 844.328, 2129.385 854.328, 2129.385 864.328, 2129.385 874.328, 2129.385 884.328, 2129.385 894.328, 2129.385 901.651, 2129.385 905.196, 2129.385 908.758, 2129.385 912.329, 2129.385 915.898, 2129.385 919.452, 2129.385 922.983, 2129.385 926.480, 2129.385 929.931, 2129.385 939.931, 2129.385 949.931, 2129.385 959.931, 2129.385 969.931, 2129.385 979.931, 2129.385 989.931, 2129.385 999.931, 2129.385 1009.931, 2129.385 1019.931, 2129.385 1029.931, 2129.385 1039.931, 2129.385 1049.931, 2129.385 1059.931, 2129.385 1069.931, 2129.385 1079.931, 2129.385 1089.931, 2129.385 1099.931, 2129.385 1109.931, 2129.385 1119.931, 2129.385 1129.931, 2129.385 1139.931, 2129.385 1149.931, 2129.385 1159.931, 2129.385 1169.931, 2129.385 1179.931, 2129.385 1189.931, 2129.385 1199.931, 2129.385 1206.190, 2129.385 1209.893, 2129.385 1213.578, 2129.385 1217.232, 2129.385 1220.844, 2129.385 1224.406, 2129.385 1227.904, 2129.385 1231.330, 2129.385 1234.672, 2129.385 1237.922, 2129.385 1241.070, 2129.385 1244.105, 2129.385 1247.021, 2129.385 1257.021, 2129.385 1267.021, 2129.385 1277.021, 2129.385 1287.021, 2129.385 1297.021, 2129.385 1307.021, 2129.385 1317.021, 2129.385 1327.021, 2129.385 1337.021, 2129.385 1347.021, 2129.385 1357.021, 2129.385 1367.021, 2129.385 1377.021, 2129.385 1387.021, 2129.385 1397.021, 2129.385 1407.021, 2129.385 1417.021, 2129.385 1427.021, 2129.385 1437.021, 2129.385 1447.021, 2129.385 1457.021, 2129.385 1467.021, 2129.385 1477.021, 2129.385 1487.021, 2129.385 1497.021, 2129.385 1507.021, 2129.385 1517.021, 2129.385 1527.021, 2129.385 1537.021, 2129.385 1547.021, 2129.385 1553.014, 2129.385 1556.777, 2129.385 1566.777, 2129.385 1576.777, 2129.385 1586.777, 2129.385 1596.777, 2129.385 1606.777, 2129.385 1616.777, 2129.385 1626.777, 2129.385 1636.777, 2129.385 1646.777, 2129.385 1656.777, 2129.385 1666.777, 2129.385 1676.777, 2129.385 1686.777, 2129.385 1696.777, 2129.385 1706.777, 2129.385 1716.777, 2129.385 1726.777, 2129.385 1736.777, 2129.385 1746.777, 2129.385 1756.777, 2129.385 1766.777, 2129.385 1776.777, 2129.385 1786.777, 2129.385 1796.777, 2129.385 1806.777, 2129.385 1816.777, 2129.385 1826.777, 2129.385 1836.777, 2129.385 1846.777, 2129.385 1856.777, 2129.385 1866.777, 2129.385 1876.777, 2129.385 1886.777, 2129.385 1896.777, 2129.385 1906.777, 2129.385 1916.777, 2129.385 1926.777, 2129.385 1936.777, 2129.385 1946.777, 2129.385 1956.777, 2129.385 1966.777, 2129.385 1976.777, 2129.385 1986.777, 2129.385 1996.777, 2129.385 2006.777, 2129.385 2016.777, 2129.385 2026.777, 2129.385 2036.777, 2129.385 2046.777, 2129.385 2056.777, 2129.385 2066.777, 2129.385 2076.777, 2129.385 2086.777, 2129.385 2096.777, 2129.385 2106.777, 2129.385 2116.777, 2129.385 2126.777, 2129.385 2136.777, 2129.385 2146.777, 2129.385 2156.777, 2129.385 2166.777, 2129.385 2176.777, 2129.385 2186.777, 2129.385 2196.777, 2129.385 2206.777, 2129.385 2216.777, 2129.385 2226.777, 2129.385 2236.777, 2129.385 2246.777, 2129.385 2256.777, 2129.385 2266.777, 2129.385 2276.777, 2129.385 2286.777, 2129.385 2296.777, 2129.385 2306.777, 2129.385 2316.777, 2129.385 2326.777, 2129.385 2336.777, 2129.385 2346.777, 2129.385 2356.777, 2129.385 2366.777, 2129.385 2376.777, 2129.385 2386.777, 2129.385 2396.777, 2129.385 2406.777, 2129.385 2416.777, 2129.385 2426.777, 2129.385 2436.777, 2129.385 2446.777, 2129.385 2456.777, 2129.385 2466.777, 2129.385 2476.777, 2129.385 2486.777, 2129.385 2496.777, 2129.385 2506.777, 2129.385 2516.777, 2129.385 2526.777, 2129.385 2536.777, 2129.385 2546.777, 2129.385 2556.777, 2129.385 2566.777, 2129.385 2576.777, 2129.385 2586.777, 2129.385 2596.777, 2129.385 2606.777, 2129.385 2616.777, 2129.385 2626.777, 2129.385 2636.777, 2129.385 2646.777, 2129.385 2656.777, 2129.385 2666.777, 2129.385 2676.777, 2129.385 2686.777, 2129.385 2696.777, 2129.385 2706.777, 2129.385 2716.777, 2129.385 2726.777, 2129.385 2736.777, 2129.385 2746.777, 2129.385 2756.777, 2129.385 2766.777, 2129.385 2776.777, 2129.385 2786.777, 2129.385 2796.777, 2129.385 2806.777, 2129.385 2824.181, 2129.385 2826.084, 2129.385 2828.070, 2129.385 2838.070, 2129.385 2848.070, 2129.385 2858.070, 2129.385 2868.070, 2129.385 2878.070, 2129.385 2888.070, 2129.385 2898.070, 2129.385 2908.070, 2129.385 2918.070, 2129.385 2928.070, 2129.385 2938.070, 2129.385 2948.070, 2129.385 2958.070, 2129.385 2968.070, 2129.385 2978.070, 2129.385 2988.070, 2129.385 2998.070, 2129.385 3008.070, 2129.385 3018.070, 2129.385 3028.070, 2129.385 3038.070, 2129.385 3048.070, 2129.385 3058.070, 2129.385 3068.070, 2129.385 3078.070, 2129.385 3088.070, 2129.385 3098.070, 2129.385 3108.070, 2129.385 3120.003, 2129.385 3130.003, 2129.385 3135.663, 2129.385 " />
            <path fill="none" stroke-width="3.0" stroke-linecap="butt" stroke-opacity="1.0" stroke="rgb(0, 0, 0)" stroke-linejoin="round" d=" M 2428.157, 1056.205 2425.965, 1046.449 2423.772, 1036.692 2421.579, 1026.935 2419.386, 1017.179 2417.194, 1007.422 2415.001, 997.666 2412.808, 987.909 2410.615, 978.152 2408.423, 968.396 2406.230, 958.639 2404.037, 948.882 2401.844, 939.126 2399.652, 929.369 2397.459, 919.612 2395.266, 909.856 2393.073, 900.099 2390.881, 890.343 2388.688, 880.586 2387.958, 877.337 2379.509, 871.988 2371.059, 866.640 2362.610, 861.291 2354.161, 855.942 2345.711, 850.593 2337.262, 845.245 2328.813, 839.896 2320.363, 834.547 2311.914, 829.198 2306.624, 825.849 " />
            <path fill="none" stroke-width="3.0" stroke-linecap="butt" stroke-opacity="1.0" stroke="rgb(0, 0, 0)" stroke-linejoin="round" d=" M 2631.377, 1451.037 2628.318, 1441.516 2625.260, 1431.995 2622.202, 1422.474 2619.143, 1412.953 2616.085, 1403.432 2613.027, 1393.912 2609.969, 1384.391 2606.910, 1374.870 2603.852, 1365.349 2600.794, 1355.828 2597.735, 1346.307 2594.677, 1336.786 2592.569, 1330.225 2587.424, 1321.650 2582.279, 1313.075 2577.135, 1304.500 2571.990, 1295.925 2566.844, 1287.350 2561.699, 1278.775 2556.554, 1270.200 2551.410, 1261.625 2546.265, 1253.050 2541.120, 1244.476 2535.975, 1235.901 2530.830, 1227.326 2525.685, 1218.751 2520.540, 1210.176 2515.395, 1201.601 2510.250, 1193.026 2505.105, 1184.451 2499.960, 1175.876 2494.815, 1167.301 2489.670, 1158.726 2484.525, 1150.151 2479.380, 1141.576 2474.235, 1133.002 2469.090, 1124.427 2463.945, 1115.852 2458.800, 1107.277 2453.655, 1098.702 2448.510, 1090.127 2443.365, 1081.552 2438.220, 1072.977 2433.075, 1064.402 2428.157, 1056.205 " />
            <path fill="none" stroke-width="3.0" stroke-linecap="butt" stroke-opacity="1.0" stroke="rgb(0, 0, 0)" stroke-linejoin="round" d=" M 1459.542, 1068.716 1457.023, 1071.298 1454.379, 1073.752 1451.616, 1076.070 1448.741, 1078.248 1445.761, 1080.279 1442.683, 1082.160 1439.516, 1083.885 1436.266, 1085.450 1432.942, 1086.851 1429.553, 1088.085 1426.106, 1089.148 1422.611, 1090.037 1419.076, 1090.753 1415.509, 1091.291 1411.920, 1091.650 1408.318, 1091.829 1404.711, 1091.829 1401.109, 1091.650 1397.520, 1091.291 1393.953, 1090.753 1390.418, 1090.037 1386.923, 1089.148 1383.476, 1088.085 1380.087, 1086.851 1376.763, 1085.450 1373.514, 1083.885 1370.346, 1082.160 1367.268, 1080.279 1364.288, 1078.248 1361.413, 1076.070 1358.650, 1073.752 1356.006, 1071.298 1353.487, 1068.716 1351.101, 1066.012 1348.852, 1063.191 1346.746, 1060.264 1344.790, 1057.234 1342.986, 1054.110 1341.341, 1050.900 1339.857, 1047.613 1338.540, 1044.255 1337.391, 1040.836 1336.414, 1037.364 1335.611, 1033.847 1334.985, 1030.295 1334.536, 1026.716 1334.267, 1023.120 1334.177, 1019.514 1334.267, 1015.908 1334.536, 1012.312 1334.985, 1008.733 1335.611, 1005.181 1336.414, 1001.665 1337.391, 998.192 1338.540, 994.773 1339.857, 991.416 1341.341, 988.128 1342.986, 984.918 1344.790, 981.794 1346.746, 978.765 1348.852, 975.837 1351.101, 973.016 1353.487, 970.312 1356.006, 967.730 1358.650, 965.276 1361.413, 962.958 1364.288, 960.781 1367.268, 958.749 1370.346, 956.868 1373.514, 955.143 1376.763, 953.578 1380.087, 952.177 1383.476, 950.943 1386.923, 949.880 1390.418, 948.991 1393.953, 948.276 1397.520, 947.738 1401.109, 947.379 1404.711, 947.199 1408.318, 947.199 1411.920, 947.379 1415.509, 947.738 1419.076, 948.276 1422.611, 948.991 1426.106, 949.880 1429.553, 950.943 1432.942, 952.177 1436.266, 953.578 1439.516, 955.143 1442.683, 956.868 1445.761, 958.749 1448.741, 960.781 1451.616, 962.958 1454.379, 965.276 1457.023, 967.730 1459.542, 970.312 1461.928, 973.016 1464.177, 975.837 1466.283, 978.765 1468.239, 981.794 1470.043, 984.918 1471.688, 988.128 1473.171, 991.416 1474.489, 994.773 1475.638, 998.192 1476.615, 1001.665 1477.418, 1005.181 1478.044, 1008.733 1478.492, 1012.312 1478.762, 1015.908 1478.852, 1019.514 1478.762, 1023.120 1478.492, 1026.716 1478.044, 1030.295 1477.418, 1033.847 1476.615, 1037.364 1475.638, 1040.836 1474.489, 1044.255 1473.171, 1047.613 1471.688, 1050.900 1470.043, 1054.110 1468.239, 1057.234 1466.283, 1060.264 1464.177, 1063.191 1461.928, 1066.012 1459.542, 1068.716 " />
            <path fill="none" stroke-width="3.0" stroke-linecap="butt" stroke-opacity="1.0" stroke="rgb(0, 0, 0)" stroke-linejoin="round" d=" M 1294.288, 23.628 1284.288, 23.629 1274.288, 23.630 1264.288, 23.631 1254.288, 23.632 1244.288, 23.632 1234.288, 23.633 1224.288, 23.634 1214.288, 23.635 1204.288, 23.636 1194.288, 23.637 1184.288, 23.638 1174.288, 23.638 1164.288, 23.639 1154.288, 23.640 1144.288, 23.641 1134.288, 23.642 1124.288, 23.643 1114.288, 23.644 1104.288, 23.645 1094.288, 23.645 1084.288, 23.646 1074.288, 23.647 1064.288, 23.648 1054.288, 23.649 1044.288, 23.650 1034.288, 23.651 1024.288, 23.651 1014.288, 23.652 1004.288, 23.653 994.288, 23.654 984.288, 23.655 974.288, 23.656 964.288, 23.656 954.288, 23.657 944.288, 23.658 934.288, 23.659 924.288, 23.660 914.288, 23.661 904.288, 23.662 894.288, 23.663 884.288, 23.664 874.288, 23.664 864.288, 23.665 854.288, 23.666 844.288, 23.667 834.288, 23.668 824.288, 23.669 814.288, 23.669 804.288, 23.670 794.288, 23.671 784.288, 23.672 774.288, 23.673 764.288, 23.674 754.288, 23.675 744.288, 23.676 734.288, 23.677 724.288, 23.677 714.288, 23.678 704.288, 23.679 694.288, 23.680 684.288, 23.681 674.288, 23.682 664.288, 23.682 654.288, 23.683 644.288, 23.684 634.288, 23.685 624.288, 23.686 614.288, 23.687 603.647, 23.688 599.786, 23.688 599.291, 23.715 598.921, 23.715 598.802, 23.716 598.297, 23.716 597.778, 23.716 597.245, 23.716 596.701, 23.716 " />
            <path fill="none" stroke-width="3.0" stroke-linecap="butt" stroke-opacity="1.0" stroke="rgb(0, 0, 0)" stroke-linejoin="round" d=" M 596.701, 23.716 596.072, 23.626 " />
            <path fill="none" stroke-width="3.0" stroke-linecap="butt" stroke-opacity="1.0" stroke="rgb(0, 0, 0)" stroke-linejoin="round" d=" M 1960.460, 23.630 1970.460, 23.630 1980.460, 23.630 1990.460, 23.630 2000.460, 23.630 2010.460, 23.630 2020.460, 23.630 2030.460, 23.630 2040.460, 23.630 2050.460, 23.630 2060.460, 23.630 2070.460, 23.630 2080.460, 23.630 2090.460, 23.630 2100.460, 23.630 2110.460, 23.630 2120.460, 23.630 2130.460, 23.630 2140.460, 23.630 2150.460, 23.630 2160.460, 23.630 2170.460, 23.630 2180.460, 23.631 2190.460, 23.631 2200.460, 23.631 2210.460, 23.631 2220.460, 23.631 2230.460, 23.631 2240.460, 23.631 2250.460, 23.631 2260.460, 23.631 2270.460, 23.631 2280.460, 23.631 2290.460, 23.631 2300.460, 23.631 2310.460, 23.631 2320.460, 23.631 2330.460, 23.631 2340.460, 23.631 2350.460, 23.631 2360.460, 23.631 2370.460, 23.631 2380.460, 23.631 2390.460, 23.632 2400.460, 23.632 2410.460, 23.632 2419.248, 23.632 2409.248, 23.632 2399.248, 23.632 2389.248, 23.632 2379.248, 23.631 2369.248, 23.631 2359.248, 23.631 2349.248, 23.631 2339.248, 23.631 2329.248, 23.631 2319.248, 23.631 2309.248, 23.631 2299.248, 23.631 2289.248, 23.631 2279.248, 23.631 2269.248, 23.631 2259.248, 23.631 2249.248, 23.631 2239.248, 23.631 2229.248, 23.631 2219.248, 23.631 2209.248, 23.631 2199.248, 23.631 2189.248, 23.631 2179.248, 23.631 2169.248, 23.630 2159.248, 23.630 2149.248, 23.630 2139.248, 23.630 2129.248, 23.630 2119.248, 23.630 2109.248, 23.630 2099.248, 23.630 2089.248, 23.630 2079.248, 23.630 2069.248, 23.630 2059.248, 23.630 2049.248, 23.630 2039.248, 23.630 2029.248, 23.630 2019.248, 23.630 2009.248, 23.630 1999.248, 23.630 1989.248, 23.630 1979.248, 23.630 1969.248, 23.630 1960.460, 23.630 1950.460, 23.629 1940.460, 23.629 1930.460, 23.629 1920.460, 23.629 1910.460, 23.629 1900.460, 23.629 1890.460, 23.629 1880.460, 23.629 1870.460, 23.629 1860.460, 23.629 1850.460, 23.629 1840.460, 23.629 1830.460, 23.629 1820.460, 23.629 1810.460, 23.629 1800.460, 23.629 1790.460, 23.629 1780.460, 23.629 1770.460, 23.629 1760.460, 23.629 1750.460, 23.629 1740.460, 23.629 1732.233, 23.629 1722.233, 23.629 1712.233, 23.629 1702.233, 23.629 1692.233, 23.629 1682.233, 23.629 1672.233, 23.629 1662.233, 23.629 1652.233, 23.629 1642.233, 23.629 1632.233, 23.629 1622.233, 23.629 1612.233, 23.629 1602.233, 23.629 1592.233, 23.629 1582.233, 23.629 1572.233, 23.629 1562.233, 23.629 1552.233, 23.628 1542.233, 23.628 1532.233, 23.628 1522.233, 23.628 1512.233, 23.628 1502.233, 23.628 1492.233, 23.628 1482.233, 23.628 1472.233, 23.628 1462.233, 23.628 1452.233, 23.628 1442.233, 23.628 1432.233, 23.628 1422.233, 23.628 1412.233, 23.628 1402.233, 23.628 1392.233, 23.628 1382.233, 23.628 1372.233, 23.628 1362.233, 23.628 1352.233, 23.628 1342.710, 23.628 1332.710, 23.628 1322.710, 23.628 1312.710, 23.628 1302.710, 23.628 1294.288, 23.628 " />
            <path fill="none" stroke-width="3.0" stroke-linecap="butt" stroke-opacity="1.0" stroke="rgb(0, 0, 0)" stroke-linejoin="round" d=" M 2419.248, 23.632 2409.248, 23.632 2399.248, 23.632 2389.248, 23.632 2379.248, 23.632 2369.248, 23.631 2359.248, 23.631 2349.248, 23.631 2339.248, 23.631 2329.248, 23.631 2319.248, 23.631 2309.248, 23.631 2299.248, 23.631 2289.248, 23.631 2279.248, 23.631 2269.248, 23.631 2259.248, 23.631 2249.248, 23.631 2239.248, 23.631 2229.248, 23.631 2219.248, 23.631 2209.248, 23.631 2199.248, 23.631 2189.248, 23.631 2179.248, 23.631 2169.248, 23.631 2159.248, 23.631 2149.248, 23.631 2139.248, 23.631 2129.248, 23.631 2119.248, 23.630 2109.248, 23.630 2099.248, 23.630 2089.248, 23.630 2079.248, 23.630 2069.248, 23.630 2058.158, 23.630 2048.158, 23.630 2038.158, 23.630 2028.158, 23.630 2018.158, 23.630 2008.158, 23.630 1998.158, 23.630 1988.158, 23.630 1978.158, 23.630 1968.158, 23.630 1960.460, 23.630 " />
            <path fill="none" stroke-width="3.0" stroke-linecap="butt" stroke-opacity="1.0" stroke="rgb(0, 0, 0)" stroke-linejoin="round" d=" M 2182.602, 637.139 2185.261, 627.499 2187.921, 617.859 2190.580, 608.219 2193.239, 598.579 2195.898, 588.939 2198.558, 579.299 2201.217, 569.659 2203.876, 560.019 2206.536, 550.379 2209.195, 540.739 2211.854, 531.099 2214.513, 521.459 2217.173, 511.819 2219.832, 502.179 2222.491, 492.540 2225.150, 482.900 2227.810, 473.260 2230.469, 463.620 2233.128, 453.980 2235.787, 444.340 2238.447, 434.700 2241.106, 425.060 2243.765, 415.420 2246.424, 405.780 2249.084, 396.140 2251.743, 386.500 2254.402, 376.860 2257.062, 367.220 2259.721, 357.580 2262.380, 347.941 2265.039, 338.301 2267.698, 328.661 2270.358, 319.021 2273.017, 309.381 2275.676, 299.741 2278.335, 290.101 2280.995, 280.461 2283.654, 270.821 2286.313, 261.181 2288.973, 251.541 2291.632, 241.901 2294.291, 232.261 2296.950, 222.621 2299.610, 212.981 2302.269, 203.341 2304.928, 193.702 2306.230, 188.981 2311.873, 180.726 2317.516, 172.470 2323.159, 164.214 2328.802, 155.958 2334.445, 147.702 2340.087, 139.447 2345.730, 131.191 2351.373, 122.935 2357.016, 114.679 2362.659, 106.423 2368.302, 98.168 2373.945, 89.912 2379.588, 81.656 2385.230, 73.400 2390.873, 65.145 2396.516, 56.889 2402.159, 48.633 2407.802, 40.377 2413.445, 32.121 2419.248, 23.632 " />
            <path fill="none" stroke-width="3.0" stroke-linecap="butt" stroke-opacity="1.0" stroke="rgb(0, 0, 0)" stroke-linejoin="round" d=" M 9142.775, 23.652 9132.775, 23.652 9122.775, 23.652 9112.775, 23.652 9102.775, 23.652 9092.775, 23.652 9082.775, 23.652 9072.775, 23.652 9062.775, 23.652 9052.775, 23.652 9042.775, 23.652 9032.775, 23.652 9022.775, 23.652 9012.775, 23.652 9002.775, 23.652 8992.775, 23.652 8982.775, 23.652 8972.775, 23.652 8962.775, 23.651 8952.775, 23.651 8942.775, 23.651 8932.775, 23.651 8922.775, 23.651 8912.775, 23.651 8902.775, 23.651 8892.775, 23.651 8882.775, 23.651 8872.775, 23.651 8862.775, 23.651 8852.775, 23.651 8842.775, 23.651 8832.775, 23.651 8822.775, 23.651 8812.775, 23.651 8802.775, 23.651 8792.775, 23.651 8782.775, 23.651 8772.775, 23.651 8762.775, 23.651 8752.775, 23.651 8742.775, 23.651 8732.775, 23.651 8722.775, 23.651 8712.775, 23.651 8702.775, 23.651 8692.775, 23.651 8682.775, 23.651 8672.775, 23.651 8662.775, 23.651 8652.775, 23.650 8642.775, 23.650 8632.775, 23.650 8622.775, 23.650 8612.775, 23.650 8602.775, 23.650 8592.775, 23.650 8582.775, 23.650 8572.775, 23.650 8562.775, 23.650 8552.775, 23.650 8542.775, 23.650 8532.775, 23.650 8522.775, 23.650 8512.775, 23.650 8502.775, 23.650 8492.775, 23.650 8482.775, 23.650 8472.775, 23.650 8462.775, 23.650 8452.775, 23.650 8442.775, 23.650 8432.775, 23.650 8422.775, 23.650 8412.775, 23.650 8402.775, 23.650 8392.775, 23.650 8382.775, 23.650 8372.775, 23.650 8362.775, 23.650 8352.775, 23.650 8342.775, 23.649 8332.775, 23.649 8322.775, 23.649 8312.775, 23.649 8302.775, 23.649 8292.775, 23.649 8282.775, 23.649 8272.775, 23.649 8262.775, 23.649 8252.775, 23.649 8242.775, 23.649 8232.775, 23.649 8222.775, 23.649 8212.775, 23.649 8202.775, 23.649 8192.775, 23.649 8182.775, 23.649 8172.775, 23.649 8162.775, 23.649 8152.775, 23.649 8142.775, 23.649 8132.775, 23.649 8122.775, 23.649 8112.775, 23.649 8102.775, 23.649 8092.775, 23.649 8082.775, 23.649 8072.775, 23.649 8062.775, 23.649 8052.775, 23.649 8042.775, 23.648 8032.775, 23.648 8022.775, 23.648 8012.775, 23.648 8002.775, 23.648 7992.775, 23.648 7982.775, 23.648 7972.775, 23.648 7962.775, 23.648 7952.775, 23.648 7942.775, 23.648 7932.775, 23.648 7922.775, 23.648 7912.775, 23.648 7902.775, 23.648 7892.775, 23.648 7882.775, 23.648 7872.775, 23.648 7862.775, 23.648 7852.775, 23.648 7842.775, 23.648 7832.775, 23.648 7822.775, 23.648 7812.775, 23.648 7802.775, 23.648 7792.775, 23.648 7782.775, 23.648 7772.775, 23.648 7762.775, 23.648 7752.775, 23.648 7742.775, 23.648 7732.775, 23.647 7722.775, 23.647 7712.775, 23.647 7702.775, 23.647 7692.775, 23.647 7682.775, 23.647 7672.775, 23.647 7662.775, 23.647 7652.775, 23.647 7642.775, 23.647 7632.775, 23.647 7622.775, 23.647 7612.775, 23.647 7602.775, 23.647 7592.775, 23.647 7582.775, 23.647 7572.775, 23.647 7562.775, 23.647 7552.775, 23.647 7542.775, 23.647 7532.775, 23.647 7522.775, 23.647 7512.775, 23.647 7502.775, 23.647 7492.775, 23.647 7482.775, 23.647 7472.775, 23.647 7462.775, 23.647 7452.775, 23.647 7442.775, 23.647 7432.775, 23.647 7422.775, 23.646 7412.775, 23.646 7402.775, 23.646 7392.775, 23.646 7369.185, 23.646 " />
            <path fill="none" stroke-width="3.0" stroke-linecap="butt" stroke-opacity="1.0" stroke="rgb(0, 0, 0)" stroke-linejoin="round" d=" M 437.660, 23.625 447.660, 23.625 457.660, 23.625 467.660, 23.625 477.660, 23.625 487.660, 23.625 497.660, 23.625 507.660, 23.625 517.660, 23.626 527.660, 23.626 537.660, 23.626 547.660, 23.626 557.660, 23.626 567.660, 23.626 577.660, 23.626 587.660, 23.626 597.991, 23.626 " />
            <path fill="none" stroke-width="3.0" stroke-linecap="butt" stroke-opacity="1.0" stroke="rgb(0, 0, 0)" stroke-linejoin="round" d=" M 2306.624, 825.849 2301.132, 817.493 2295.639, 809.136 2290.147, 800.779 2284.655, 792.422 2279.163, 784.065 2273.671, 775.708 2268.179, 767.352 2262.687, 758.995 2257.195, 750.638 2251.702, 742.281 2246.210, 733.924 2240.718, 725.568 2235.226, 717.211 2229.734, 708.854 2224.242, 700.497 2218.750, 692.140 2213.257, 683.783 2207.765, 675.427 2202.273, 667.070 2196.781, 658.713 2191.289, 650.356 2185.797, 641.999 2182.602, 637.139 " />
            <path fill="none" stroke-width="3.0" stroke-linecap="butt" stroke-opacity="1.0" stroke="rgb(0, 0, 0)" stroke-linejoin="round" d=" M 1342.710, 23.628 1332.710, 23.628 1322.710, 23.628 1312.710, 23.628 1302.710, 23.628 1292.710, 23.628 1282.710, 23.628 1272.710, 23.628 1262.710, 23.628 1252.710, 23.628 1242.710, 23.628 1232.710, 23.628 1222.710, 23.628 1212.710, 23.628 1202.710, 23.628 1192.710, 23.628 1182.710, 23.628 1172.710, 23.628 1162.710, 23.628 1152.710, 23.628 1142.710, 23.627 1132.710, 23.627 1122.710, 23.627 1112.710, 23.627 1102.710, 23.627 1092.710, 23.627 1082.710, 23.627 1072.710, 23.627 1062.710, 23.627 1052.710, 23.627 1042.710, 23.627 1032.710, 23.627 1022.710, 23.627 1012.710, 23.627 1002.710, 23.627 992.710, 23.627 982.710, 23.627 972.710, 23.627 962.710, 23.627 952.710, 23.627 942.710, 23.627 932.710, 23.627 922.710, 23.627 912.710, 23.627 902.710, 23.627 892.710, 23.627 882.710, 23.627 872.710, 23.627 862.710, 23.627 852.710, 23.627 842.710, 23.627 832.710, 23.626 822.710, 23.626 812.710, 23.626 802.710, 23.626 792.710, 23.626 782.710, 23.626 772.710, 23.626 762.710, 23.626 752.710, 23.626 742.710, 23.626 732.710, 23.626 722.710, 23.626 712.710, 23.626 702.710, 23.626 692.710, 23.626 682.710, 23.626 672.710, 23.626 662.710, 23.626 652.710, 23.626 642.710, 23.626 632.710, 23.626 622.710, 23.626 612.710, 23.626 602.710, 23.626 592.710, 23.626 582.710, 23.626 572.710, 23.626 562.710, 23.626 552.710, 23.626 542.710, 23.626 532.710, 23.625 522.710, 23.625 512.710, 23.625 502.710, 23.625 492.710, 23.625 482.710, 23.625 472.710, 23.625 462.710, 23.625 452.710, 23.625 437.660, 23.625 " />
            <path fill="none" stroke-width="3.0" stroke-linecap="butt" stroke-opacity="1.0" stroke="rgb(0, 0, 0)" stroke-linejoin="round" d=" M 3035.795, 1917.572 3029.245, 1910.016 3022.695, 1902.459 3016.145, 1894.903 3009.595, 1887.347 3003.045, 1879.791 2996.494, 1872.235 2989.944, 1864.679 2983.394, 1857.122 2976.844, 1849.566 2970.294, 1842.010 2963.744, 1834.454 2957.194, 1826.898 2950.644, 1819.341 2944.094, 1811.785 2937.543, 1804.229 2930.993, 1796.673 2924.443, 1789.117 2917.893, 1781.561 2911.343, 1774.004 2904.793, 1766.448 2898.243, 1758.892 2891.693, 1751.336 2885.142, 1743.780 2878.592, 1736.223 2872.042, 1728.667 2865.492, 1721.111 2858.942, 1713.555 2852.392, 1705.999 2845.842, 1698.442 2839.292, 1690.886 2832.741, 1683.330 2826.191, 1675.774 2819.641, 1668.218 2813.091, 1660.662 2806.541, 1653.105 2799.991, 1645.549 2793.441, 1637.993 2786.891, 1630.437 2780.341, 1622.881 2773.790, 1615.324 2767.240, 1607.768 2760.690, 1600.212 2754.140, 1592.656 2747.590, 1585.100 2741.040, 1577.544 2734.490, 1569.987 2727.939, 1562.431 2721.389, 1554.875 2714.839, 1547.319 2708.289, 1539.763 2701.739, 1532.206 2695.189, 1524.650 2688.639, 1517.094 2682.089, 1509.538 2675.539, 1501.982 2668.989, 1494.426 2662.438, 1486.869 2655.888, 1479.313 2649.338, 1471.757 2642.788, 1464.201 2636.238, 1456.645 2631.377, 1451.037 " />
            <path fill="none" stroke-width="3.0" stroke-linecap="butt" stroke-opacity="1.0" stroke="rgb(0, 0, 0)" stroke-linejoin="round" d=" M 3135.663, 2129.385 3131.398, 2120.340 3127.133, 2111.294 3122.869, 2102.249 3118.604, 2093.204 3114.339, 2084.159 3110.075, 2075.114 3105.810, 2066.069 3101.545, 2057.024 3097.281, 2047.979 3093.016, 2038.934 3088.752, 2029.889 3084.487, 2020.844 3080.222, 2011.799 3075.958, 2002.754 3071.693, 1993.709 3067.428, 1984.664 3063.164, 1975.619 3058.899, 1966.574 3054.635, 1957.529 3050.370, 1948.484 3046.105, 1939.439 3041.841, 1930.394 3037.576, 1921.349 3035.795, 1917.572 " />
            <path fill="none" stroke-width="3.0" stroke-linecap="butt" stroke-opacity="1.0" stroke="rgb(0, 0, 0)" stroke-linejoin="round" d=" M 9113.039, 23.654 9113.039, 23.653 9113.039, 23.652 " />
            <path fill="none" stroke-width="3.0" stroke-linecap="butt" stroke-opacity="1.0" stroke="rgb(0, 0, 0)" stroke-linejoin="round" d=" M 9142.775, 23.652 9132.775, 23.652 9122.775, 23.652 9113.039, 23.652 " />
            <path fill="none" stroke-width="3.0" stroke-linecap="butt" stroke-opacity="1.0" stroke="rgb(0, 0, 0)" stroke-linejoin="round" d=" M 9142.775, 23.652 9132.775, 23.652 9122.775, 23.652 9112.775, 23.652 9102.775, 23.652 9092.775, 23.652 9082.775, 23.652 9072.775, 23.652 9062.775, 23.652 9052.775, 23.652 9042.775, 23.652 9032.775, 23.652 9022.775, 23.652 9012.775, 23.652 9002.775, 23.652 8992.775, 23.652 8982.775, 23.652 8972.775, 23.652 8962.775, 23.651 8952.775, 23.651 8942.775, 23.651 8932.775, 23.651 8922.775, 23.651 8912.775, 23.651 8902.775, 23.651 8892.775, 23.651 8882.775, 23.651 8872.775, 23.651 8862.775, 23.651 8852.775, 23.651 8842.775, 23.651 8832.775, 23.651 8822.775, 23.651 8812.775, 23.651 8802.775, 23.651 8792.775, 23.651 8782.775, 23.651 8772.775, 23.651 8762.775, 23.651 8752.775, 23.651 8742.775, 23.651 8732.775, 23.651 8722.775, 23.651 8712.775, 23.651 8702.775, 23.651 8692.775, 23.651 8682.775, 23.651 8672.775, 23.651 8662.775, 23.651 8652.775, 23.650 8642.775, 23.650 8632.775, 23.650 8622.775, 23.650 8612.775, 23.650 8602.775, 23.650 8592.775, 23.650 8582.775, 23.650 8572.775, 23.650 8562.775, 23.650 8552.775, 23.650 8542.775, 23.650 8532.775, 23.650 8522.775, 23.650 8512.775, 23.650 8502.775, 23.650 8492.775, 23.650 8482.775, 23.650 8472.775, 23.650 8462.775, 23.650 8452.775, 23.650 8442.775, 23.650 8432.775, 23.650 8422.775, 23.650 8412.775, 23.650 8402.775, 23.650 8392.775, 23.650 8382.775, 23.650 8372.775, 23.650 8362.775, 23.650 8352.775, 23.650 8342.775, 23.649 8332.775, 23.649 8322.775, 23.649 8312.775, 23.649 8302.775, 23.649 8292.775, 23.649 8282.775, 23.649 8272.775, 23.649 8262.775, 23.649 8252.775, 23.649 8242.775, 23.649 8232.775, 23.649 8222.775, 23.649 8212.775, 23.649 8202.775, 23.649 8192.775, 23.649 8182.775, 23.649 8172.775, 23.649 8162.775, 23.649 8152.775, 23.649 8142.775, 23.649 8132.775, 23.649 8122.775, 23.649 8112.775, 23.649 8102.775, 23.649 8092.775, 23.649 8082.775, 23.649 8072.775, 23.649 8062.775, 23.649 8052.775, 23.649 8042.775, 23.649 8032.775, 23.648 8022.775, 23.648 8012.775, 23.648 8002.775, 23.648 7992.775, 23.648 7982.775, 23.648 7972.775, 23.648 7962.775, 23.648 7952.775, 23.648 7942.775, 23.648 7932.775, 23.648 7922.775, 23.648 7912.775, 23.648 7902.775, 23.648 7892.775, 23.648 7882.775, 23.648 7872.775, 23.648 7862.775, 23.648 7852.775, 23.648 7842.775, 23.648 7832.775, 23.648 7822.775, 23.648 7812.775, 23.648 7802.775, 23.648 7792.775, 23.648 7782.775, 23.648 7772.775, 23.648 7762.775, 23.648 7752.775, 23.648 7742.775, 23.648 7732.775, 23.648 7722.775, 23.647 7712.775, 23.647 7702.775, 23.647 7692.775, 23.647 7682.775, 23.647 7672.775, 23.647 7662.775, 23.647 7652.775, 23.647 7642.775, 23.647 7632.775, 23.647 7622.775, 23.647 7612.775, 23.647 7602.775, 23.647 7580.062, 23.647 " />
        </g>
    </g>
<g id="slice-labels"><text x="607.6275625" y="550.065" text-anchor="middle" dominant-baseline="middle" font-family="Arial, sans-serif" font-size="59.05099045283449" font-weight="bold" fill="black" stroke="none" stroke-width="7.086118854340138" paint-order="stroke fill">Slice28 (Front)</text><text x="1775.1626874999997" y="550.065" text-anchor="middle" dominant-baseline="middle" font-family="Arial, sans-serif" font-size="59.05099045283449" font-weight="bold" fill="black" stroke="none" stroke-width="7.086118854340138" paint-order="stroke fill">Slice28 (Front)</text><text x="2942.6978125" y="550.065" text-anchor="middle" dominant-baseline="middle" font-family="Arial, sans-serif" font-size="59.05099045283449" font-weight="bold" fill="black" stroke="none" stroke-width="7.086118854340138" paint-order="stroke fill">Slice28 (Front)</text><text x="4110.232937499999" y="550.065" text-anchor="middle" dominant-baseline="middle" font-family="Arial, sans-serif" font-size="59.05099045283449" font-weight="bold" fill="black" stroke="none" stroke-width="7.086118854340138" paint-order="stroke fill">Slice28 (Front)</text><text x="5277.768062499999" y="550.065" text-anchor="middle" dominant-baseline="middle" font-family="Arial, sans-serif" font-size="59.05099045283449" font-weight="bold" fill="black" stroke="none" stroke-width="7.086118854340138" paint-order="stroke fill">Slice28 (Front)</text><text x="6445.303187499999" y="550.065" text-anchor="middle" dominant-baseline="middle" font-family="Arial, sans-serif" font-size="59.05099045283449" font-weight="bold" fill="black" stroke="none" stroke-width="7.086118854340138" paint-order="stroke fill">Slice28 (Front)</text><text x="7612.838312499999" y="550.065" text-anchor="middle" dominant-baseline="middle" font-family="Arial, sans-serif" font-size="59.05099045283449" font-weight="bold" fill="black" stroke="none" stroke-width="7.086118854340138" paint-order="stroke fill">Slice28 (Front)</text><text x="8780.3734375" y="550.065" text-anchor="middle" dominant-baseline="middle" font-family="Arial, sans-serif" font-size="59.05099045283449" font-weight="bold" fill="black" stroke="none" stroke-width="7.086118854340138" paint-order="stroke fill">Slice28 (Front)</text><text x="607.6275625" y="1602.9450000000002" text-anchor="middle" dominant-baseline="middle" font-family="Arial, sans-serif" font-size="59.05099045283449" font-weight="bold" fill="black" stroke="none" stroke-width="7.086118854340138" paint-order="stroke fill">Slice28 (Front)</text><text x="1775.1626874999997" y="1602.9450000000002" text-anchor="middle" dominant-baseline="middle" font-family="Arial, sans-serif" font-size="59.05099045283449" font-weight="bold" fill="black" stroke="none" stroke-width="7.086118854340138" paint-order="stroke fill">Slice28 (Front)</text><text x="2942.6978125" y="1602.9450000000002" text-anchor="middle" dominant-baseline="middle" font-family="Arial, sans-serif" font-size="59.05099045283449" font-weight="bold" fill="black" stroke="none" stroke-width="7.086118854340138" paint-order="stroke fill">Slice28 (Front)</text><text x="4110.232937499999" y="1602.9450000000002" text-anchor="middle" dominant-baseline="middle" font-family="Arial, sans-serif" font-size="59.05099045283449" font-weight="bold" fill="black" stroke="none" stroke-width="7.086118854340138" paint-order="stroke fill">Slice28 (Front)</text><text x="5277.768062499999" y="1602.9450000000002" text-anchor="middle" dominant-baseline="middle" font-family="Arial, sans-serif" font-size="59.05099045283449" font-weight="bold" fill="black" stroke="none" stroke-width="7.086118854340138" paint-order="stroke fill">Slice28 (Front)</text><text x="6445.303187499999" y="1602.9450000000002" text-anchor="middle" dominant-baseline="middle" font-family="Arial, sans-serif" font-size="59.05099045283449" font-weight="bold" fill="black" stroke="none" stroke-width="7.086118854340138" paint-order="stroke fill">Slice28 (Front)</text><text x="7612.838312499999" y="1602.9450000000002" text-anchor="middle" dominant-baseline="middle" font-family="Arial, sans-serif" font-size="59.05099045283449" font-weight="bold" fill="black" stroke="none" stroke-width="7.086118854340138" paint-order="stroke fill">Slice28 (Front)</text><text x="8780.3734375" y="1602.9450000000002" text-anchor="middle" dominant-baseline="middle" font-family="Arial, sans-serif" font-size="59.05099045283449" font-weight="bold" fill="black" stroke="none" stroke-width="7.086118854340138" paint-order="stroke fill">Slice28 (Front)</text></g></svg>