<?xml version='1.0' encoding='utf-8'?>
<svg xmlns="http://www.w3.org/2000/svg" xmlns:inkscape="http://www.inkscape.org/namespaces/inkscape" version="1.1" width="211.25253969430923mm" height="120.67835712432861mm" viewBox="0.2384980877949836 0.005503608438765184 2494.52300382441 1424.9999927831223" preserveAspectRatio="none">
    <g id="ViewLayer_LineSet" inkscape:groupmode="lineset" inkscape:label="ViewLayer_LineSet">
        <g inkscape:groupmode="layer" id="strokes" inkscape:label="strokes">
            <path fill="none" stroke-width="3.0" stroke-linecap="butt" stroke-opacity="1.0" stroke="rgb(0, 0, 0)" stroke-linejoin="round" d=" M 1099.728, 1134.040 1097.209, 1131.459 1094.823, 1128.755 1092.575, 1125.935 1090.470, 1123.007 1088.513, 1119.978 1086.710, 1116.855 1085.065, 1113.646 1083.582, 1110.358 1082.264, 1107.002 1081.115, 1103.583 1080.139, 1100.112 1079.336, 1096.596 1078.710, 1093.044 1078.262, 1089.466 1077.992, 1085.870 1077.902, 1082.265 1077.992, 1078.660 1078.262, 1075.064 1078.710, 1071.485 1079.336, 1067.934 1080.139, 1064.418 1081.115, 1060.947 1082.264, 1057.528 1083.582, 1054.171 1085.065, 1050.884 1086.710, 1047.675 1088.513, 1044.552 1090.470, 1041.522 1092.575, 1038.594 1094.823, 1035.775 1097.209, 1033.071 1099.728, 1030.489 1102.371, 1028.037 1105.134, 1025.718 1108.008, 1023.541 1110.988, 1021.509 1114.065, 1019.629 1117.232, 1017.904 1120.481, 1016.340 1123.804, 1014.939 1127.193, 1013.705 1130.639, 1012.642 1134.134, 1011.753 1137.669, 1011.038 1141.235, 1010.501 1144.823, 1010.142 1148.425, 1009.962 1152.031, 1009.962 1155.633, 1010.142 1159.221, 1010.501 1162.787, 1011.038 1166.322, 1011.753 1169.817, 1012.642 1173.263, 1013.705 1176.651, 1014.939 1179.974, 1016.340 1183.224, 1017.904 1186.391, 1019.629 1189.468, 1021.509 1192.447, 1023.541 1195.322, 1025.718 1198.084, 1028.037 1200.728, 1030.489 1203.246, 1033.071 1205.632, 1035.775 1207.881, 1038.594 1209.986, 1041.522 1211.943, 1044.552 1213.746, 1047.675 1215.391, 1050.884 1216.874, 1054.171 1218.192, 1057.528 1219.340, 1060.947 1220.317, 1064.418 1221.119, 1067.934 1221.746, 1071.485 1222.194, 1075.064 1222.463, 1078.660 1222.553, 1082.265 1222.463, 1085.870 1222.194, 1089.466 1221.746, 1093.044 1221.119, 1096.596 1220.317, 1100.112 1219.340, 1103.583 1218.192, 1107.002 1216.874, 1110.358 1215.391, 1113.646 1213.746, 1116.855 1211.943, 1119.978 1209.986, 1123.007 1207.881, 1125.935 1205.632, 1128.755 1203.246, 1131.459 1200.728, 1134.040 1198.084, 1136.493 1195.322, 1138.811 1192.447, 1140.988 1189.468, 1143.020 1186.391, 1144.901 1183.224, 1146.625 1179.974, 1148.190 1176.651, 1149.591 1173.263, 1150.824 1169.817, 1151.887 1166.322, 1152.777 1162.787, 1153.492 1159.221, 1154.029 1155.633, 1154.388 1152.031, 1154.568 1148.425, 1154.568 1144.823, 1154.388 1141.235, 1154.029 1137.669, 1153.492 1134.134, 1152.777 1130.639, 1151.887 1127.193, 1150.824 1123.804, 1149.591 1120.481, 1148.190 1117.232, 1146.625 1114.065, 1144.901 1110.988, 1143.020 1108.008, 1140.988 1105.134, 1138.811 1102.371, 1136.493 1099.728, 1134.040 " />
            <path fill="none" stroke-width="3.0" stroke-linecap="butt" stroke-opacity="1.0" stroke="rgb(0, 0, 0)" stroke-linejoin="round" d=" M 23.855, 1401.389 33.855, 1401.364 36.077, 1401.359 36.343, 1401.360 36.614, 1401.360 36.887, 1401.361 37.163, 1401.361 37.440, 1401.362 37.716, 1401.362 37.991, 1401.363 38.262, 1401.363 38.529, 1401.364 38.789, 1401.364 39.041, 1401.364 39.167, 1401.389 " />
            <path fill="none" stroke-width="3.0" stroke-linecap="butt" stroke-opacity="1.0" stroke="rgb(0, 0, 0)" stroke-linejoin="round" d=" M 39.167, 1401.389 49.167, 1401.388 59.167, 1401.388 69.167, 1401.387 79.167, 1401.387 89.167, 1401.386 99.167, 1401.385 109.167, 1401.385 119.167, 1401.384 129.167, 1401.384 139.167, 1401.383 149.167, 1401.383 159.167, 1401.382 169.167, 1401.382 179.167, 1401.381 189.167, 1401.380 199.167, 1401.380 209.167, 1401.379 219.167, 1401.379 229.167, 1401.378 239.167, 1401.378 249.167, 1401.377 259.167, 1401.377 269.167, 1401.376 279.167, 1401.376 289.167, 1401.375 299.167, 1401.374 309.167, 1401.374 319.167, 1401.373 329.167, 1401.373 339.167, 1401.372 349.167, 1401.372 359.167, 1401.371 369.167, 1401.371 379.167, 1401.370 389.167, 1401.369 399.167, 1401.369 409.167, 1401.368 419.167, 1401.368 429.167, 1401.367 439.167, 1401.367 449.167, 1401.366 459.167, 1401.366 469.167, 1401.365 479.167, 1401.364 489.167, 1401.364 499.167, 1401.363 509.167, 1401.363 519.167, 1401.362 529.167, 1401.362 539.167, 1401.361 549.167, 1401.361 559.167, 1401.360 569.167, 1401.360 579.167, 1401.359 589.167, 1401.358 599.167, 1401.358 609.167, 1401.357 619.167, 1401.357 629.167, 1401.356 639.167, 1401.356 649.167, 1401.355 659.167, 1401.355 669.167, 1401.354 679.167, 1401.353 689.167, 1401.353 699.167, 1401.352 709.167, 1401.352 719.167, 1401.351 729.167, 1401.351 739.167, 1401.350 749.167, 1401.350 759.167, 1401.349 769.167, 1401.349 779.167, 1401.348 789.167, 1401.347 799.167, 1401.347 809.167, 1401.346 819.167, 1401.346 829.167, 1401.345 844.826, 1401.344 850.966, 1401.312 " />
            <path fill="none" stroke-width="3.0" stroke-linecap="butt" stroke-opacity="1.0" stroke="rgb(0, 0, 0)" stroke-linejoin="round" d=" M 850.966, 1401.312 856.770, 1401.312 862.416, 1401.312 867.887, 1401.312 873.164, 1401.313 878.229, 1401.313 883.066, 1401.313 887.567, 1401.389 " />
            <path fill="none" stroke-width="3.0" stroke-linecap="butt" stroke-opacity="1.0" stroke="rgb(0, 0, 0)" stroke-linejoin="round" d=" M 887.567, 1401.389 897.567, 1401.386 907.567, 1401.384 917.567, 1401.381 927.567, 1401.379 937.567, 1401.376 947.567, 1401.374 957.567, 1401.371 967.567, 1401.369 977.567, 1401.367 987.567, 1401.364 997.567, 1401.362 1007.567, 1401.359 1017.567, 1401.357 1027.567, 1401.354 1037.567, 1401.352 1047.567, 1401.349 1057.567, 1401.347 1067.567, 1401.344 1077.567, 1401.342 1087.567, 1401.339 1097.567, 1401.337 1107.567, 1401.334 1117.567, 1401.332 1127.567, 1401.330 1137.567, 1401.327 1147.567, 1401.325 1157.567, 1401.322 1165.673, 1401.320 1170.707, 1401.271 " />
            <path fill="none" stroke-width="3.0" stroke-linecap="butt" stroke-opacity="1.0" stroke="rgb(0, 0, 0)" stroke-linejoin="round" d=" M 1170.707, 1401.271 1175.672, 1401.271 1180.650, 1401.389 " />
            <path fill="none" stroke-width="3.0" stroke-linecap="butt" stroke-opacity="1.0" stroke="rgb(0, 0, 0)" stroke-linejoin="round" d=" M 650.032, 374.817 647.514, 372.235 645.128, 369.531 642.880, 366.712 640.774, 363.784 638.818, 360.754 637.015, 357.631 635.369, 354.422 633.886, 351.135 632.569, 347.778 631.420, 344.360 630.443, 340.888 629.641, 337.372 629.015, 333.821 628.566, 330.242 628.297, 326.646 628.207, 323.041 628.297, 319.436 628.566, 315.840 629.015, 312.262 629.641, 308.710 630.443, 305.194 631.420, 301.723 632.569, 298.304 633.886, 294.948 635.369, 291.660 637.015, 288.451 638.818, 285.328 640.774, 282.299 642.880, 279.370 645.128, 276.551 647.514, 273.847 650.032, 271.266 652.676, 268.813 655.438, 266.495 658.313, 264.317 661.293, 262.286 664.370, 260.405 667.537, 258.680 670.786, 257.116 674.109, 255.715 677.498, 254.482 680.944, 253.419 684.439, 252.529 687.973, 251.814 691.539, 251.277 695.128, 250.918 698.729, 250.738 702.336, 250.738 705.937, 250.918 709.526, 251.277 713.092, 251.814 716.626, 252.529 720.121, 253.419 723.567, 254.482 726.956, 255.715 730.279, 257.116 733.528, 258.680 736.695, 260.405 739.772, 262.286 742.752, 264.317 745.627, 266.495 748.389, 268.813 751.033, 271.266 753.551, 273.847 755.937, 276.551 758.185, 279.370 760.291, 282.299 762.247, 285.328 764.050, 288.451 765.696, 291.660 767.179, 294.948 768.496, 298.304 769.645, 301.723 770.621, 305.194 771.424, 308.710 772.050, 312.262 772.499, 315.840 772.768, 319.436 772.858, 323.041 772.768, 326.646 772.499, 330.242 772.050, 333.821 771.424, 337.372 770.621, 340.888 769.645, 344.360 768.496, 347.778 767.179, 351.135 765.696, 354.422 764.050, 357.631 762.247, 360.754 760.291, 363.784 758.185, 366.712 755.937, 369.531 753.551, 372.235 751.033, 374.817 748.389, 377.269 745.627, 379.588 742.752, 381.765 739.772, 383.797 736.695, 385.677 733.528, 387.401 730.279, 388.966 726.956, 390.367 723.567, 391.601 720.121, 392.664 716.626, 393.553 713.092, 394.268 709.526, 394.805 705.937, 395.164 702.336, 395.344 698.729, 395.344 695.128, 395.164 691.539, 394.805 687.973, 394.268 684.439, 393.553 680.944, 392.664 677.498, 391.601 674.109, 390.367 670.786, 388.966 667.537, 387.401 664.370, 385.677 661.293, 383.797 658.313, 381.765 655.438, 379.588 652.676, 377.269 650.032, 374.817 " />
            <path fill="none" stroke-width="3.0" stroke-linecap="butt" stroke-opacity="1.0" stroke="rgb(0, 0, 0)" stroke-linejoin="round" d=" M 1180.650, 1401.389 1190.650, 1401.388 1200.650, 1401.387 1210.650, 1401.386 1220.650, 1401.385 1230.650, 1401.383 1240.650, 1401.382 1250.650, 1401.381 1260.650, 1401.380 1270.650, 1401.379 1280.650, 1401.378 1290.650, 1401.377 1300.650, 1401.376 1310.650, 1401.375 1320.650, 1401.374 1330.650, 1401.373 1340.650, 1401.372 1350.650, 1401.371 1360.650, 1401.370 1370.650, 1401.369 1380.650, 1401.368 1390.650, 1401.367 1400.650, 1401.365 1410.650, 1401.364 1420.650, 1401.363 1430.650, 1401.362 1440.650, 1401.361 1450.650, 1401.360 1460.650, 1401.359 1470.650, 1401.358 1480.650, 1401.357 1490.650, 1401.356 1500.650, 1401.355 1512.810, 1401.354 1517.881, 1401.328 " />
            <path fill="none" stroke-width="3.0" stroke-linecap="butt" stroke-opacity="1.0" stroke="rgb(0, 0, 0)" stroke-linejoin="round" d=" M 1517.881, 1401.328 1523.224, 1401.328 1528.833, 1401.328 1534.685, 1401.327 1540.762, 1401.327 1547.142, 1401.389 " />
            <path fill="none" stroke-width="3.0" stroke-linecap="butt" stroke-opacity="1.0" stroke="rgb(0, 0, 0)" stroke-linejoin="round" d=" M 1125.986, 547.515 1123.659, 546.248 1121.398, 544.867 1119.209, 543.374 1117.097, 541.774 1115.068, 540.071 1113.125, 538.269 1111.276, 536.373 1109.522, 534.386 1107.870, 532.314 1106.324, 530.163 1104.886, 527.938 1103.562, 525.643 1102.353, 523.285 " />
            <path fill="none" stroke-width="3.0" stroke-linecap="butt" stroke-opacity="1.0" stroke="rgb(0, 0, 0)" stroke-linejoin="round" d=" M 1102.353, 523.285 1101.263, 520.870 1100.295, 518.404 1099.451, 515.893 1098.734, 513.342 1098.144, 510.759 1097.684, 508.150 1097.355, 505.521 " />
            <path fill="none" stroke-width="3.0" stroke-linecap="butt" stroke-opacity="1.0" stroke="rgb(0, 0, 0)" stroke-linejoin="round" d=" M 1138.404, 552.035 1135.836, 551.381 1133.304, 550.600 1130.815, 549.694 " />
            <path fill="none" stroke-width="3.0" stroke-linecap="butt" stroke-opacity="1.0" stroke="rgb(0, 0, 0)" stroke-linejoin="round" d=" M 1146.257, 553.219 1143.620, 552.955 1141.001, 552.560 1138.404, 552.035 " />
            <path fill="none" stroke-width="3.0" stroke-linecap="butt" stroke-opacity="1.0" stroke="rgb(0, 0, 0)" stroke-linejoin="round" d=" M 1156.835, 552.955 1154.199, 553.219 1151.553, 553.350 1148.903, 553.350 " />
            <path fill="none" stroke-width="3.0" stroke-linecap="butt" stroke-opacity="1.0" stroke="rgb(0, 0, 0)" stroke-linejoin="round" d=" M 1097.157, 497.581 1097.355, 494.939 " />
            <path fill="none" stroke-width="3.0" stroke-linecap="butt" stroke-opacity="1.0" stroke="rgb(0, 0, 0)" stroke-linejoin="round" d=" M 1097.355, 494.939 1097.684, 492.310 1098.144, 489.701 1098.734, 487.118 " />
            <path fill="none" stroke-width="3.0" stroke-linecap="butt" stroke-opacity="1.0" stroke="rgb(0, 0, 0)" stroke-linejoin="round" d=" M 1174.469, 547.515 1172.083, 548.665 1169.641, 549.694 1167.151, 550.600 1164.620, 551.381 1162.052, 552.035 1159.455, 552.560 1156.835, 552.955 " />
            <path fill="none" stroke-width="3.0" stroke-linecap="butt" stroke-opacity="1.0" stroke="rgb(0, 0, 0)" stroke-linejoin="round" d=" M 1098.734, 487.118 1099.451, 484.568 " />
            <path fill="none" stroke-width="3.0" stroke-linecap="butt" stroke-opacity="1.0" stroke="rgb(0, 0, 0)" stroke-linejoin="round" d=" M 1099.451, 484.568 1100.295, 482.056 " />
            <path fill="none" stroke-width="3.0" stroke-linecap="butt" stroke-opacity="1.0" stroke="rgb(0, 0, 0)" stroke-linejoin="round" d=" M 1100.295, 482.056 1101.263, 479.590 1102.353, 477.175 1103.562, 474.817 1104.886, 472.522 1106.324, 470.297 1107.870, 468.146 1109.522, 466.074 1111.276, 464.088 1113.125, 462.191 1115.068, 460.389 1117.097, 458.686 1119.209, 457.086 1121.398, 455.594 1123.659, 454.212 " />
            <path fill="none" stroke-width="3.0" stroke-linecap="butt" stroke-opacity="1.0" stroke="rgb(0, 0, 0)" stroke-linejoin="round" d=" M 1192.585, 532.314 1190.933, 534.386 1189.180, 536.373 1187.330, 538.269 " />
            <path fill="none" stroke-width="3.0" stroke-linecap="butt" stroke-opacity="1.0" stroke="rgb(0, 0, 0)" stroke-linejoin="round" d=" M 1123.659, 454.212 1125.986, 452.945 1128.373, 451.795 1130.815, 450.766 1133.304, 449.860 " />
            <path fill="none" stroke-width="3.0" stroke-linecap="butt" stroke-opacity="1.0" stroke="rgb(0, 0, 0)" stroke-linejoin="round" d=" M 1133.304, 449.860 1135.836, 449.079 " />
            <path fill="none" stroke-width="3.0" stroke-linecap="butt" stroke-opacity="1.0" stroke="rgb(0, 0, 0)" stroke-linejoin="round" d=" M 1135.836, 449.079 1138.404, 448.425 " />
            <path fill="none" stroke-width="3.0" stroke-linecap="butt" stroke-opacity="1.0" stroke="rgb(0, 0, 0)" stroke-linejoin="round" d=" M 1138.404, 448.425 1141.001, 447.900 " />
            <path fill="none" stroke-width="3.0" stroke-linecap="butt" stroke-opacity="1.0" stroke="rgb(0, 0, 0)" stroke-linejoin="round" d=" M 1141.001, 447.900 1143.620, 447.505 " />
            <path fill="none" stroke-width="3.0" stroke-linecap="butt" stroke-opacity="1.0" stroke="rgb(0, 0, 0)" stroke-linejoin="round" d=" M 1143.620, 447.505 1146.257, 447.242 " />
            <path fill="none" stroke-width="3.0" stroke-linecap="butt" stroke-opacity="1.0" stroke="rgb(0, 0, 0)" stroke-linejoin="round" d=" M 1146.257, 447.242 1148.903, 447.110 1151.553, 447.110 1154.199, 447.242 1156.835, 447.505 1159.455, 447.900 1162.052, 448.425 1164.620, 449.079 1167.151, 449.860 1169.641, 450.766 1172.083, 451.795 1174.469, 452.945 " />
            <path fill="none" stroke-width="3.0" stroke-linecap="butt" stroke-opacity="1.0" stroke="rgb(0, 0, 0)" stroke-linejoin="round" d=" M 1547.142, 1401.389 1557.142, 1401.387 1567.142, 1401.385 1577.142, 1401.383 1587.142, 1401.381 1597.142, 1401.379 1607.142, 1401.377 1617.142, 1401.375 1627.142, 1401.373 1637.142, 1401.372 1647.142, 1401.370 1657.142, 1401.368 1667.142, 1401.366 1677.142, 1401.364 1687.142, 1401.362 1697.142, 1401.360 1707.142, 1401.358 1717.142, 1401.356 1727.142, 1401.354 1729.015, 1401.354 1735.407, 1401.344 1742.016, 1401.344 1748.814, 1401.343 1755.777, 1401.343 1762.876, 1401.343 1770.084, 1401.342 1777.373, 1401.342 " />
            <path fill="none" stroke-width="3.0" stroke-linecap="butt" stroke-opacity="1.0" stroke="rgb(0, 0, 0)" stroke-linejoin="round" d=" M 1777.373, 1401.342 1784.825, 1401.389 1794.825, 1401.389 1804.825, 1401.389 1814.825, 1401.389 1824.825, 1401.389 1834.825, 1401.389 1844.825, 1401.389 1854.825, 1401.389 1864.825, 1401.389 1874.825, 1401.389 1884.825, 1401.389 1894.825, 1401.389 1904.825, 1401.389 1914.825, 1401.389 1924.825, 1401.389 1934.825, 1401.389 1944.825, 1401.389 1954.825, 1401.389 1964.825, 1401.389 1974.825, 1401.389 1984.825, 1401.389 1994.825, 1401.389 2004.825, 1401.389 2014.825, 1401.389 2024.825, 1401.389 2034.825, 1401.389 2044.825, 1401.389 2054.825, 1401.389 2064.825, 1401.389 2074.825, 1401.389 2084.825, 1401.389 2094.825, 1401.389 2104.825, 1401.389 2114.825, 1401.389 2124.825, 1401.389 2134.825, 1401.389 2144.825, 1401.389 2154.825, 1401.389 2164.825, 1401.389 2174.825, 1401.389 2184.825, 1401.389 2194.825, 1401.389 2204.825, 1401.389 2214.825, 1401.389 2224.825, 1401.389 2234.825, 1401.389 2244.825, 1401.389 2254.825, 1401.389 2264.825, 1401.389 2274.825, 1401.389 2284.825, 1401.389 2294.825, 1401.389 2304.825, 1401.389 2314.825, 1401.389 2324.825, 1401.389 2334.825, 1401.389 2344.825, 1401.389 2354.825, 1401.389 2364.825, 1401.389 2374.825, 1401.389 2384.825, 1401.389 2394.825, 1401.389 2404.825, 1401.389 2414.825, 1401.389 2424.825, 1401.389 2434.825, 1401.389 2444.825, 1401.389 2454.825, 1401.389 2471.145, 1401.389 " />
            <path fill="none" stroke-width="3.0" stroke-linecap="butt" stroke-opacity="1.0" stroke="rgb(0, 0, 0)" stroke-linejoin="round" d=" M 843.998, 23.622 833.998, 23.628 823.998, 23.634 813.998, 23.641 803.998, 23.647 793.998, 23.653 783.998, 23.660 773.998, 23.666 763.998, 23.672 753.998, 23.678 743.998, 23.685 733.998, 23.691 723.998, 23.697 713.998, 23.704 703.998, 23.710 697.937, 23.714 696.839, 23.737 " />
            <path fill="none" stroke-width="3.0" stroke-linecap="butt" stroke-opacity="1.0" stroke="rgb(0, 0, 0)" stroke-linejoin="round" d=" M 696.839, 23.737 695.673, 23.622 " />
            <path fill="none" stroke-width="3.0" stroke-linecap="butt" stroke-opacity="1.0" stroke="rgb(0, 0, 0)" stroke-linejoin="round" d=" M 695.673, 23.622 694.440, 23.622 693.120, 23.622 691.715, 23.622 690.229, 23.622 688.667, 23.622 687.032, 23.622 685.330, 23.622 683.566, 23.622 681.746, 23.622 679.875, 23.622 677.961, 23.622 676.009, 23.622 674.027, 23.622 672.020, 23.622 669.998, 23.622 667.965, 23.622 665.931, 23.622 663.901, 23.622 661.883, 23.622 659.884, 23.622 657.911, 23.622 655.970, 23.622 654.068, 23.622 652.211, 23.622 650.405, 23.622 648.656, 23.622 646.969, 23.622 645.348, 23.622 643.799, 23.622 642.325, 23.622 640.929, 23.622 639.617, 23.622 " />
            <path fill="none" stroke-width="3.0" stroke-linecap="butt" stroke-opacity="1.0" stroke="rgb(0, 0, 0)" stroke-linejoin="round" d=" M 639.617, 23.622 633.600, 23.622 632.922, 23.622 622.922, 23.622 617.344, 23.622 615.440, 23.622 605.440, 23.622 595.440, 23.622 585.440, 23.622 575.440, 23.622 565.440, 23.622 555.440, 23.622 545.440, 23.622 535.440, 23.622 525.440, 23.622 515.563, 23.622 " />
            <path fill="none" stroke-width="3.0" stroke-linecap="butt" stroke-opacity="1.0" stroke="rgb(0, 0, 0)" stroke-linejoin="round" d=" M 639.617, 23.622 638.392, 23.740 637.251, 23.740 636.200, 23.740 635.241, 23.740 634.374, 23.740 633.600, 23.622 " />
            <path fill="none" stroke-width="3.0" stroke-linecap="butt" stroke-opacity="1.0" stroke="rgb(0, 0, 0)" stroke-linejoin="round" d=" M 2243.720, 219.480 2240.163, 210.135 2236.605, 200.789 2233.047, 191.443 2229.490, 182.098 2225.932, 172.752 2222.374, 163.406 2218.816, 154.060 2215.259, 144.715 2211.701, 135.369 2208.143, 126.023 2204.585, 116.678 2201.028, 107.332 2197.470, 97.986 2193.912, 88.640 2190.354, 79.295 2186.797, 69.949 2183.239, 60.603 2179.681, 51.258 2176.123, 41.912 2172.566, 32.566 2169.161, 23.622 2159.161, 23.622 2149.161, 23.622 2139.161, 23.622 2129.161, 23.622 2119.161, 23.622 2109.161, 23.622 2099.161, 23.622 2089.161, 23.622 2079.161, 23.622 2069.161, 23.622 2059.161, 23.622 2049.161, 23.622 2043.771, 23.622 2042.294, 23.622 2040.788, 23.622 2039.258, 23.622 2037.711, 23.622 2036.150, 23.622 2034.583, 23.622 2033.014, 23.622 2031.451, 23.622 2029.899, 23.622 2028.363, 23.622 2026.852, 23.622 2025.369, 23.622 2023.922, 23.622 2022.516, 23.622 2021.156, 23.622 2019.848, 23.622 2018.597, 23.622 2017.407, 23.622 2016.283, 23.622 2006.283, 23.622 1996.283, 23.622 1986.283, 23.622 1976.283, 23.622 1966.283, 23.622 1956.283, 23.622 1946.283, 23.622 1936.283, 23.622 1926.283, 23.622 1916.283, 23.622 1906.283, 23.622 1896.283, 23.622 1886.283, 23.622 1876.283, 23.622 1866.283, 23.622 1856.283, 23.622 1849.876, 23.622 1847.580, 23.622 1845.325, 23.622 1843.116, 23.622 1840.962, 23.622 1838.868, 23.622 1836.841, 23.622 1834.886, 23.622 1833.010, 23.622 1831.217, 23.622 1829.511, 23.622 1827.897, 23.622 1826.379, 23.622 1824.961, 23.622 1814.961, 23.622 1804.961, 23.622 1794.961, 23.622 1784.961, 23.622 1774.961, 23.622 1764.961, 23.622 1754.961, 23.622 1744.961, 23.622 1734.961, 23.622 1724.961, 23.622 1714.961, 23.622 1704.961, 23.622 1694.961, 23.622 1684.961, 23.622 1674.961, 23.622 1664.961, 23.622 1654.961, 23.622 1644.961, 23.622 1634.961, 23.622 1624.961, 23.622 1614.961, 23.622 1604.961, 23.622 1594.961, 23.622 1584.961, 23.622 1574.961, 23.622 1564.961, 23.622 1554.961, 23.622 1544.961, 23.622 1534.961, 23.622 1524.961, 23.622 1514.961, 23.622 1504.961, 23.622 1493.620, 23.622 1492.007, 23.622 1490.417, 23.622 1488.857, 23.622 1487.330, 23.622 1477.330, 23.622 1467.330, 23.622 1457.330, 23.622 1447.330, 23.622 1437.330, 23.622 1427.330, 23.622 1417.330, 23.622 1407.330, 23.622 1397.330, 23.622 1387.330, 23.622 1377.330, 23.622 1367.330, 23.622 1357.330, 23.622 1347.330, 23.622 1337.330, 23.622 1327.330, 23.622 1317.330, 23.622 1307.330, 23.622 1297.330, 23.622 1287.330, 23.622 1277.330, 23.622 1267.330, 23.622 1257.330, 23.622 1247.330, 23.622 1237.330, 23.622 1227.330, 23.622 1217.330, 23.622 1207.330, 23.622 1197.330, 23.622 1187.330, 23.622 1177.330, 23.622 1167.330, 23.622 1157.330, 23.622 1147.330, 23.622 1137.330, 23.622 1127.330, 23.622 1117.330, 23.622 1107.330, 23.622 1097.330, 23.622 1087.330, 23.622 1077.330, 23.622 1067.330, 23.622 1057.330, 23.622 1047.330, 23.622 1037.330, 23.622 1027.330, 23.622 1017.330, 23.622 1007.330, 23.622 997.330, 23.622 987.330, 23.622 977.330, 23.622 967.330, 23.622 957.330, 23.622 943.552, 23.622 942.302, 23.622 941.008, 23.622 939.674, 23.622 929.674, 23.622 919.674, 23.622 909.674, 23.622 899.674, 23.622 889.674, 23.622 879.674, 23.622 869.674, 23.622 859.674, 23.622 849.674, 23.622 843.998, 23.622 " />
            <path fill="none" stroke-width="3.0" stroke-linecap="butt" stroke-opacity="1.0" stroke="rgb(0, 0, 0)" stroke-linejoin="round" d=" M 1830.857, 374.817 1828.339, 372.235 1825.953, 369.531 1823.704, 366.712 1821.599, 363.784 1819.643, 360.754 1817.840, 357.631 1816.194, 354.422 1814.711, 351.135 1813.394, 347.778 1812.245, 344.360 1811.268, 340.888 1810.466, 337.372 1809.840, 333.821 1809.391, 330.242 1809.122, 326.646 1809.032, 323.041 1809.122, 319.436 1809.391, 315.840 1809.840, 312.262 1810.466, 308.710 1811.268, 305.194 1812.245, 301.723 1813.394, 298.304 1814.711, 294.948 1816.194, 291.660 1817.840, 288.451 1819.643, 285.328 1821.599, 282.299 1823.704, 279.370 1825.953, 276.551 1828.339, 273.847 1830.857, 271.266 1833.501, 268.813 1836.263, 266.495 1839.138, 264.317 1842.117, 262.286 1845.195, 260.405 1848.362, 258.680 1851.611, 257.116 1854.934, 255.715 1858.323, 254.482 1861.769, 253.419 1865.263, 252.529 1868.798, 251.814 1872.364, 251.277 1875.953, 250.918 1879.554, 250.738 1883.161, 250.738 1886.762, 250.918 1890.350, 251.277 1893.917, 251.814 1897.451, 252.529 1900.946, 253.419 1904.392, 254.482 1907.781, 255.715 1911.104, 257.116 1914.353, 258.680 1917.520, 260.405 1920.597, 262.286 1923.577, 264.317 1926.452, 266.495 1929.214, 268.813 1931.858, 271.266 1934.376, 273.847 1936.762, 276.551 1939.010, 279.370 1941.115, 282.299 1943.072, 285.328 1944.875, 288.451 1946.520, 291.660 1948.004, 294.948 1949.321, 298.304 1950.469, 301.723 1951.446, 305.194 1952.249, 308.710 1952.875, 312.262 1953.323, 315.840 1953.593, 319.436 1953.683, 323.041 1953.593, 326.646 1953.323, 330.242 1952.875, 333.821 1952.249, 337.372 1951.446, 340.888 1950.469, 344.360 1949.321, 347.778 1948.004, 351.135 1946.520, 354.422 1944.875, 357.631 1943.072, 360.754 1941.115, 363.784 1939.010, 366.712 1936.762, 369.531 1934.376, 372.235 1931.858, 374.817 1929.214, 377.269 1926.452, 379.588 1923.577, 381.765 1920.597, 383.797 1917.520, 385.677 1914.353, 387.401 1911.104, 388.966 1907.781, 390.367 1904.392, 391.601 1900.946, 392.664 1897.451, 393.553 1893.917, 394.268 1890.350, 394.805 1886.762, 395.164 1883.161, 395.344 1879.554, 395.344 1875.953, 395.164 1872.364, 394.805 1868.798, 394.268 1865.263, 393.553 1861.769, 392.664 1858.323, 391.601 1854.934, 390.367 1851.611, 388.966 1848.362, 387.401 1845.195, 385.677 1842.117, 383.797 1839.138, 381.765 1836.263, 379.588 1833.501, 377.269 1830.857, 374.817 " />
            <path fill="none" stroke-width="3.0" stroke-linecap="butt" stroke-opacity="1.0" stroke="rgb(0, 0, 0)" stroke-linejoin="round" d=" M 1203.299, 502.879 1203.101, 505.521 1202.771, 508.150 1202.311, 510.759 1201.722, 513.342 " />
            <path fill="none" stroke-width="3.0" stroke-linecap="butt" stroke-opacity="1.0" stroke="rgb(0, 0, 0)" stroke-linejoin="round" d=" M 1201.004, 484.568 1201.722, 487.118 1202.311, 489.701 1202.771, 492.310 1203.101, 494.939 1203.299, 497.581 1203.365, 500.230 1203.299, 502.879 " />
            <path fill="none" stroke-width="3.0" stroke-linecap="butt" stroke-opacity="1.0" stroke="rgb(0, 0, 0)" stroke-linejoin="round" d=" M 1190.933, 466.074 1192.585, 468.146 1194.132, 470.297 1195.569, 472.522 1196.894, 474.817 1198.103, 477.175 1199.193, 479.590 1200.160, 482.056 1201.004, 484.568 " />
            <path fill="none" stroke-width="3.0" stroke-linecap="butt" stroke-opacity="1.0" stroke="rgb(0, 0, 0)" stroke-linejoin="round" d=" M 1181.246, 457.086 1183.358, 458.686 1185.388, 460.389 1187.330, 462.191 1189.180, 464.088 1190.933, 466.074 " />
            <path fill="none" stroke-width="3.0" stroke-linecap="butt" stroke-opacity="1.0" stroke="rgb(0, 0, 0)" stroke-linejoin="round" d=" M 1179.057, 455.594 1181.246, 457.086 " />
            <path fill="none" stroke-width="3.0" stroke-linecap="butt" stroke-opacity="1.0" stroke="rgb(0, 0, 0)" stroke-linejoin="round" d=" M 1176.796, 454.212 1179.057, 455.594 " />
            <path fill="none" stroke-width="3.0" stroke-linecap="butt" stroke-opacity="1.0" stroke="rgb(0, 0, 0)" stroke-linejoin="round" d=" M 1174.469, 452.945 1176.796, 454.212 " />
            <path fill="none" stroke-width="3.0" stroke-linecap="butt" stroke-opacity="1.0" stroke="rgb(0, 0, 0)" stroke-linejoin="round" d=" M 2410.360, 1192.193 2407.160, 1182.719 2403.959, 1173.245 2400.758, 1163.771 2397.558, 1154.297 2394.357, 1144.823 2391.156, 1135.349 2387.956, 1125.875 2384.755, 1116.401 2381.554, 1106.927 2378.354, 1097.453 2375.153, 1087.979 2371.952, 1078.505 2368.752, 1069.031 2365.551, 1059.557 2362.350, 1050.083 2359.150, 1040.609 2355.949, 1031.135 2352.749, 1021.661 2349.548, 1012.187 2346.347, 1002.713 2343.146, 993.240 2339.946, 983.766 2336.745, 974.292 2333.544, 964.818 2330.344, 955.344 2327.143, 945.870 2323.943, 936.396 2320.742, 926.922 2317.541, 917.448 2314.341, 907.974 2311.140, 898.500 2307.939, 889.026 2304.739, 879.552 2301.538, 870.078 2298.337, 860.604 2295.137, 851.130 2291.936, 841.656 2288.735, 832.182 2285.535, 822.708 2282.334, 813.234 2279.133, 803.760 2275.933, 794.286 2272.732, 784.812 2269.531, 775.339 2265.035, 762.029 2264.642, 752.037 2264.250, 742.044 2263.857, 732.052 2263.465, 722.060 2263.072, 712.068 2262.679, 702.075 2262.287, 692.083 2261.895, 682.091 2261.502, 672.098 2261.109, 662.106 2260.717, 652.114 2260.324, 642.121 2259.932, 632.129 2259.539, 622.137 2259.146, 612.145 2258.754, 602.152 2258.361, 592.160 2257.969, 582.168 2257.576, 572.175 2257.184, 562.183 2256.791, 552.191 2256.399, 542.199 2256.006, 532.206 2255.614, 522.214 2255.221, 512.222 2254.828, 502.229 2254.436, 492.237 2254.043, 482.245 2253.651, 472.253 2253.258, 462.260 2252.866, 452.268 2252.473, 442.276 2252.081, 432.283 2251.688, 422.291 2251.295, 412.299 2250.903, 402.306 2250.510, 392.314 2250.118, 382.322 2249.725, 372.330 2249.333, 362.337 2248.940, 352.345 2248.548, 342.353 2248.155, 332.360 2247.762, 322.368 2247.370, 312.376 2246.977, 302.384 2246.585, 292.391 2246.192, 282.399 2245.800, 272.407 2245.407, 262.414 2245.014, 252.422 2244.622, 242.430 2244.229, 232.438 2243.720, 219.480 " />
            <path fill="none" stroke-width="3.0" stroke-linecap="butt" stroke-opacity="1.0" stroke="rgb(0, 0, 0)" stroke-linejoin="round" d=" M 118.418, 1118.226 115.250, 1127.711 112.083, 1137.197 108.915, 1146.682 105.747, 1156.167 102.580, 1165.652 99.412, 1175.137 96.245, 1184.622 93.077, 1194.107 89.910, 1203.592 86.742, 1213.077 83.575, 1222.562 80.407, 1232.047 77.240, 1241.532 74.072, 1251.017 70.904, 1260.502 67.737, 1269.988 64.569, 1279.473 61.402, 1288.958 58.234, 1298.443 55.067, 1307.928 51.899, 1317.413 48.732, 1326.898 45.564, 1336.383 42.396, 1345.868 39.229, 1355.353 36.061, 1364.838 32.894, 1374.323 29.726, 1383.808 26.559, 1393.293 23.855, 1401.389 " />
            <path fill="none" stroke-width="3.0" stroke-linecap="butt" stroke-opacity="1.0" stroke="rgb(0, 0, 0)" stroke-linejoin="round" d=" M 168.877, 915.678 166.459, 925.382 164.042, 935.085 161.625, 944.789 159.207, 954.492 156.790, 964.196 154.373, 973.899 151.955, 983.602 149.538, 993.306 147.121, 1003.009 144.703, 1012.713 142.286, 1022.416 139.869, 1032.120 137.451, 1041.823 135.034, 1051.526 132.617, 1061.230 130.199, 1070.933 127.782, 1080.637 125.365, 1090.340 122.947, 1100.044 120.530, 1109.747 118.418, 1118.226 " />
            <path fill="none" stroke-width="3.0" stroke-linecap="butt" stroke-opacity="1.0" stroke="rgb(0, 0, 0)" stroke-linejoin="round" d=" M 228.263, 731.622 225.192, 741.139 222.121, 750.656 219.051, 760.173 215.980, 769.690 212.909, 779.207 209.839, 788.724 206.768, 798.240 203.697, 807.757 200.627, 817.274 197.556, 826.791 194.486, 836.308 191.415, 845.825 188.344, 855.342 185.274, 864.859 182.203, 874.376 179.132, 883.893 176.062, 893.409 172.991, 902.926 169.920, 912.443 168.877, 915.678 " />
            <path fill="none" stroke-width="3.0" stroke-linecap="butt" stroke-opacity="1.0" stroke="rgb(0, 0, 0)" stroke-linejoin="round" d=" M 515.563, 23.622 511.803, 32.888 508.043, 42.154 504.283, 51.420 500.523, 60.686 496.763, 69.953 493.003, 79.219 489.243, 88.485 485.482, 97.751 481.722, 107.017 477.962, 116.283 474.202, 125.549 470.442, 134.816 466.682, 144.082 462.922, 153.348 459.162, 162.614 455.401, 171.880 451.641, 181.146 447.881, 190.412 444.121, 199.679 440.361, 208.945 436.601, 218.211 432.841, 227.477 429.081, 236.743 425.320, 246.009 421.560, 255.275 417.800, 264.542 414.040, 273.808 410.280, 283.074 406.520, 292.340 402.760, 301.606 399.000, 310.872 395.239, 320.138 391.479, 329.405 387.719, 338.671 383.959, 347.937 380.199, 357.203 376.439, 366.469 372.679, 375.735 368.918, 385.001 365.158, 394.268 361.398, 403.534 357.638, 412.800 353.878, 422.066 350.118, 431.332 346.358, 440.598 342.598, 449.865 338.837, 459.131 335.077, 468.397 331.317, 477.663 327.557, 486.929 323.797, 496.195 320.037, 505.461 316.277, 514.728 312.517, 523.994 308.756, 533.260 304.996, 542.526 301.236, 551.792 297.476, 561.058 293.716, 570.324 289.956, 579.591 286.196, 588.857 282.436, 598.123 278.675, 607.389 274.915, 616.655 271.155, 625.921 267.395, 635.187 263.635, 644.454 259.875, 653.720 256.115, 662.986 252.355, 672.252 248.594, 681.518 244.834, 690.784 241.074, 700.050 237.314, 709.317 233.554, 718.583 228.263, 731.622 " />
            <path fill="none" stroke-width="3.0" stroke-linecap="butt" stroke-opacity="1.0" stroke="rgb(0, 0, 0)" stroke-linejoin="round" d=" M 1097.157, 502.879 1097.091, 500.230 " />
            <path fill="none" stroke-width="3.0" stroke-linecap="butt" stroke-opacity="1.0" stroke="rgb(0, 0, 0)" stroke-linejoin="round" d=" M 1097.091, 500.230 1097.157, 497.581 " />
            <path fill="none" stroke-width="3.0" stroke-linecap="butt" stroke-opacity="1.0" stroke="rgb(0, 0, 0)" stroke-linejoin="round" d=" M 1097.355, 505.521 1097.157, 502.879 " />
            <path fill="none" stroke-width="3.0" stroke-linecap="butt" stroke-opacity="1.0" stroke="rgb(0, 0, 0)" stroke-linejoin="round" d=" M 1128.373, 548.665 1125.986, 547.515 " />
            <path fill="none" stroke-width="3.0" stroke-linecap="butt" stroke-opacity="1.0" stroke="rgb(0, 0, 0)" stroke-linejoin="round" d=" M 1130.815, 549.694 1128.373, 548.665 " />
            <path fill="none" stroke-width="3.0" stroke-linecap="butt" stroke-opacity="1.0" stroke="rgb(0, 0, 0)" stroke-linejoin="round" d=" M 1148.903, 553.350 1146.257, 553.219 " />
            <path fill="none" stroke-width="3.0" stroke-linecap="butt" stroke-opacity="1.0" stroke="rgb(0, 0, 0)" stroke-linejoin="round" d=" M 1176.796, 546.248 1174.469, 547.515 " />
            <path fill="none" stroke-width="3.0" stroke-linecap="butt" stroke-opacity="1.0" stroke="rgb(0, 0, 0)" stroke-linejoin="round" d=" M 1179.057, 544.867 1176.796, 546.248 " />
            <path fill="none" stroke-width="3.0" stroke-linecap="butt" stroke-opacity="1.0" stroke="rgb(0, 0, 0)" stroke-linejoin="round" d=" M 1181.246, 543.374 1179.057, 544.867 " />
            <path fill="none" stroke-width="3.0" stroke-linecap="butt" stroke-opacity="1.0" stroke="rgb(0, 0, 0)" stroke-linejoin="round" d=" M 1183.358, 541.774 1181.246, 543.374 " />
            <path fill="none" stroke-width="3.0" stroke-linecap="butt" stroke-opacity="1.0" stroke="rgb(0, 0, 0)" stroke-linejoin="round" d=" M 1185.388, 540.071 1183.358, 541.774 " />
            <path fill="none" stroke-width="3.0" stroke-linecap="butt" stroke-opacity="1.0" stroke="rgb(0, 0, 0)" stroke-linejoin="round" d=" M 1187.330, 538.269 1185.388, 540.071 " />
            <path fill="none" stroke-width="3.0" stroke-linecap="butt" stroke-opacity="1.0" stroke="rgb(0, 0, 0)" stroke-linejoin="round" d=" M 1194.132, 530.163 1192.585, 532.314 " />
            <path fill="none" stroke-width="3.0" stroke-linecap="butt" stroke-opacity="1.0" stroke="rgb(0, 0, 0)" stroke-linejoin="round" d=" M 1195.569, 527.938 1194.132, 530.163 " />
            <path fill="none" stroke-width="3.0" stroke-linecap="butt" stroke-opacity="1.0" stroke="rgb(0, 0, 0)" stroke-linejoin="round" d=" M 1196.894, 525.643 1195.569, 527.938 " />
            <path fill="none" stroke-width="3.0" stroke-linecap="butt" stroke-opacity="1.0" stroke="rgb(0, 0, 0)" stroke-linejoin="round" d=" M 1198.103, 523.285 1196.894, 525.643 " />
            <path fill="none" stroke-width="3.0" stroke-linecap="butt" stroke-opacity="1.0" stroke="rgb(0, 0, 0)" stroke-linejoin="round" d=" M 1199.193, 520.870 1198.103, 523.285 " />
            <path fill="none" stroke-width="3.0" stroke-linecap="butt" stroke-opacity="1.0" stroke="rgb(0, 0, 0)" stroke-linejoin="round" d=" M 1200.160, 518.404 1199.193, 520.870 " />
            <path fill="none" stroke-width="3.0" stroke-linecap="butt" stroke-opacity="1.0" stroke="rgb(0, 0, 0)" stroke-linejoin="round" d=" M 1201.004, 515.893 1200.160, 518.404 " />
            <path fill="none" stroke-width="3.0" stroke-linecap="butt" stroke-opacity="1.0" stroke="rgb(0, 0, 0)" stroke-linejoin="round" d=" M 1201.722, 513.342 1201.004, 515.893 " />
            <path fill="none" stroke-width="3.0" stroke-linecap="butt" stroke-opacity="1.0" stroke="rgb(0, 0, 0)" stroke-linejoin="round" d=" M 1547.142, 1401.389 1557.142, 1401.389 1567.142, 1401.389 1577.142, 1401.389 1587.142, 1401.389 1597.142, 1401.389 1607.142, 1401.389 1617.142, 1401.389 1627.142, 1401.389 1637.142, 1401.389 1647.142, 1401.389 1657.142, 1401.389 1667.142, 1401.389 1677.142, 1401.389 1687.142, 1401.389 1697.142, 1401.389 1707.142, 1401.389 1717.142, 1401.389 1727.142, 1401.389 1737.142, 1401.389 1747.142, 1401.389 1757.142, 1401.389 1767.142, 1401.389 1777.142, 1401.389 1784.825, 1401.389 " />
            <path fill="none" stroke-width="3.0" stroke-linecap="butt" stroke-opacity="1.0" stroke="rgb(0, 0, 0)" stroke-linejoin="round" d=" M 2471.145, 1401.389 2468.354, 1391.786 2465.564, 1382.183 2462.774, 1372.580 2459.984, 1362.977 2457.194, 1353.375 2454.403, 1343.772 2451.613, 1334.169 2448.823, 1324.566 2446.033, 1314.963 2443.242, 1305.360 2440.452, 1295.757 2437.662, 1286.155 2434.872, 1276.552 2432.082, 1266.949 2429.291, 1257.346 2426.501, 1247.743 2423.711, 1238.140 2420.921, 1228.537 2418.130, 1218.935 2415.340, 1209.332 2412.550, 1199.729 2410.360, 1192.193 " />
        </g>
    </g>
<g id="slice-labels"><text x="431.7366666666667" y="368.06374999999997" text-anchor="middle" dominant-baseline="middle" font-family="Arial, sans-serif" font-size="59.04124097890308" font-weight="bold" fill="black" stroke="none" stroke-width="7.0849489174683695" paint-order="stroke fill">Slice51 (Front)</text><text x="1247.5" y="368.06374999999997" text-anchor="middle" dominant-baseline="middle" font-family="Arial, sans-serif" font-size="59.04124097890308" font-weight="bold" fill="black" stroke="none" stroke-width="7.0849489174683695" paint-order="stroke fill">Slice51 (Front)</text><text x="2063.2633333333333" y="368.06374999999997" text-anchor="middle" dominant-baseline="middle" font-family="Arial, sans-serif" font-size="59.04124097890308" font-weight="bold" fill="black" stroke="none" stroke-width="7.0849489174683695" paint-order="stroke fill">Slice51 (Front)</text><text x="431.7366666666667" y="1056.94725" text-anchor="middle" dominant-baseline="middle" font-family="Arial, sans-serif" font-size="59.04124097890308" font-weight="bold" fill="black" stroke="none" stroke-width="7.0849489174683695" paint-order="stroke fill">Slice51 (Front)</text><text x="1247.5" y="1056.94725" text-anchor="middle" dominant-baseline="middle" font-family="Arial, sans-serif" font-size="59.04124097890308" font-weight="bold" fill="black" stroke="none" stroke-width="7.0849489174683695" paint-order="stroke fill">Slice51 (Front)</text><text x="2063.2633333333333" y="1056.94725" text-anchor="middle" dominant-baseline="middle" font-family="Arial, sans-serif" font-size="59.04124097890308" font-weight="bold" fill="black" stroke="none" stroke-width="7.0849489174683695" paint-order="stroke fill">Slice51 (Front)</text></g></svg>