<?xml version='1.0' encoding='utf-8'?>
<svg xmlns="http://www.w3.org/2000/svg" xmlns:inkscape="http://www.inkscape.org/namespaces/inkscape" version="1.1" width="275.7626905068755mm" height="198.9526071548462mm" viewBox="-0.1247210782161261 0.0052789981979728395 3257.270442156432 2350.0004420036043" preserveAspectRatio="none">
    <g id="ViewLayer_LineSet" inkscape:groupmode="lineset" inkscape:label="ViewLayer_LineSet">
        <g inkscape:groupmode="layer" id="strokes" inkscape:label="strokes">
            <path fill="none" stroke-width="3.0" stroke-linecap="butt" stroke-opacity="1.0" stroke="rgb(0, 0, 0)" stroke-linejoin="round" d=" M 2278.145, 1601.825 2277.177, 1604.293 2276.086, 1606.708 2274.877, 1609.067 2273.552, 1611.362 2272.114, 1613.588 2270.567, 1615.740 2268.915, 1617.812 2267.161, 1619.799 " />
            <path fill="none" stroke-width="3.0" stroke-linecap="butt" stroke-opacity="1.0" stroke="rgb(0, 0, 0)" stroke-linejoin="round" d=" M 2265.311, 1621.696 2263.368, 1623.500 2261.338, 1625.203 2259.225, 1626.804 2257.035, 1628.296 2254.774, 1629.678 " />
            <path fill="none" stroke-width="3.0" stroke-linecap="butt" stroke-opacity="1.0" stroke="rgb(0, 0, 0)" stroke-linejoin="round" d=" M 3084.951, 1864.864 3084.373, 1854.881 3083.796, 1844.898 3083.218, 1834.914 3082.641, 1824.931 3082.063, 1814.948 3081.486, 1804.964 3080.908, 1794.981 3080.331, 1784.998 3079.753, 1775.015 3079.176, 1765.031 3078.598, 1755.048 3078.021, 1745.065 3077.443, 1735.081 3076.865, 1725.098 3076.288, 1715.115 3075.691, 1704.798 3071.471, 1695.732 3067.251, 1686.666 3063.031, 1677.600 3058.812, 1668.534 3054.592, 1659.469 3050.372, 1650.403 3046.152, 1641.337 3041.932, 1632.271 3037.712, 1623.205 3033.492, 1614.139 3029.272, 1605.073 3025.052, 1596.007 3020.832, 1586.941 3016.612, 1577.875 3012.392, 1568.809 3008.172, 1559.743 3003.952, 1550.677 2999.732, 1541.611 2995.512, 1532.545 2991.292, 1523.479 2987.072, 1514.413 2982.852, 1505.347 2978.632, 1496.281 2974.412, 1487.215 2971.288, 1480.502 2970.473, 1470.535 2969.659, 1460.568 2968.845, 1450.602 2968.031, 1440.635 2967.217, 1430.668 2966.403, 1420.701 2965.589, 1410.734 2964.775, 1400.768 2963.961, 1390.801 2963.147, 1380.834 2962.333, 1370.867 2961.519, 1360.900 2960.704, 1350.933 2959.890, 1340.967 2959.076, 1331.000 2958.262, 1321.033 2957.448, 1311.066 2956.634, 1301.099 2955.820, 1291.133 2955.006, 1281.166 2954.192, 1271.199 2953.378, 1261.232 2952.563, 1251.265 2951.750, 1241.299 2950.935, 1231.332 2950.121, 1221.365 2949.307, 1211.398 2948.493, 1201.431 2947.679, 1191.464 2946.865, 1181.498 2946.051, 1171.531 2945.237, 1161.564 2944.423, 1151.597 2943.609, 1141.630 2942.795, 1131.664 2941.980, 1121.697 2941.167, 1111.730 2940.352, 1101.763 2939.538, 1091.796 2938.724, 1081.830 2937.910, 1071.863 2937.096, 1061.896 2936.282, 1051.929 2935.468, 1041.962 2934.654, 1031.996 2933.840, 1022.029 2933.026, 1012.062 2932.211, 1002.095 2931.397, 992.128 2930.583, 982.161 2929.769, 972.195 2928.955, 962.228 2928.141, 952.261 2927.327, 942.294 2926.513, 932.328 2925.699, 922.361 2924.885, 912.394 2924.071, 902.427 2923.257, 892.460 2922.443, 882.494 2921.628, 872.527 2920.814, 862.560 2920.000, 852.593 2919.186, 842.626 2918.240, 831.043 2915.260, 821.497 2912.279, 811.952 2909.298, 802.406 2906.318, 792.861 2903.337, 783.315 2900.356, 773.770 2897.376, 764.224 2894.395, 754.679 2891.415, 745.133 2888.434, 735.588 2885.453, 726.042 2882.473, 716.497 2879.492, 706.951 2876.511, 697.406 2873.531, 687.860 2870.550, 678.315 2867.570, 668.770 2864.589, 659.224 2861.609, 649.679 2858.628, 640.133 2855.647, 630.588 2852.667, 621.042 2849.686, 611.497 2846.706, 601.951 2843.725, 592.406 2840.744, 582.860 2837.764, 573.315 2834.783, 563.769 2831.802, 554.224 2828.822, 544.678 2825.841, 535.133 2822.861, 525.588 2819.880, 516.042 2816.899, 506.497 2813.919, 496.951 2810.938, 487.406 2807.958, 477.860 2804.977, 468.315 2801.996, 458.769 2799.016, 449.224 2796.035, 439.678 2793.055, 430.133 2790.074, 420.587 2787.094, 411.042 2784.113, 401.496 2781.132, 391.951 2778.152, 382.406 2775.171, 372.860 2772.190, 363.315 2769.210, 353.769 2766.229, 344.224 2763.249, 334.678 2760.268, 325.133 2757.287, 315.587 2754.307, 306.042 2751.326, 296.496 2748.345, 286.951 2745.365, 277.405 2742.384, 267.860 2739.404, 258.314 2736.423, 248.769 2733.442, 239.223 2730.462, 229.678 2727.481, 220.133 2724.501, 210.587 2721.520, 201.042 2718.540, 191.496 2715.559, 181.951 2712.578, 172.405 2709.598, 162.860 2706.617, 153.314 2703.636, 143.769 2700.656, 134.223 2697.675, 124.678 2694.695, 115.132 2691.714, 105.587 2688.733, 96.042 2685.753, 86.496 2682.772, 76.950 2679.792, 67.405 2676.811, 57.860 2673.830, 48.314 2670.850, 38.769 2666.123, 23.629 2656.123, 23.629 2646.123, 23.629 2636.123, 23.629 2626.123, 23.629 2616.123, 23.629 2606.123, 23.629 2596.123, 23.629 2586.123, 23.629 2576.123, 23.629 2566.123, 23.629 2556.123, 23.629 2546.123, 23.629 2536.123, 23.629 2526.123, 23.629 2516.123, 23.629 2506.123, 23.629 2496.123, 23.629 2486.123, 23.629 2476.123, 23.629 2466.123, 23.629 2456.123, 23.629 2446.123, 23.629 2433.843, 23.629 2432.087, 23.629 2430.223, 23.629 2428.255, 23.629 2426.183, 23.629 2424.013, 23.629 2421.746, 23.629 2419.388, 23.629 2416.942, 23.629 2414.415, 23.629 2411.811, 23.629 2409.138, 23.629 2406.403, 23.629 2403.613, 23.629 2400.777, 23.629 2397.904, 23.629 2395.003, 23.629 2392.085, 23.629 2389.159, 23.629 2386.238, 23.629 2383.332, 23.629 2373.332, 23.629 2363.332, 23.629 2353.332, 23.629 2343.332, 23.629 2333.332, 23.629 2323.332, 23.629 2313.332, 23.629 2303.332, 23.629 2293.332, 23.629 2283.332, 23.629 2274.807, 23.629 " />
            <path fill="none" stroke-width="3.0" stroke-linecap="butt" stroke-opacity="1.0" stroke="rgb(0, 0, 0)" stroke-linejoin="round" d=" M 3140.013, 2326.381 3150.013, 2326.381 3160.013, 2326.381 3170.013, 2326.381 3180.013, 2326.382 3190.013, 2326.382 3200.013, 2326.382 3210.013, 2326.382 3220.013, 2326.382 3230.013, 2326.382 3233.522, 2326.382 " />
            <path fill="none" stroke-width="3.0" stroke-linecap="butt" stroke-opacity="1.0" stroke="rgb(0, 0, 0)" stroke-linejoin="round" d=" M 2250.058, 1632.096 2247.616, 1633.125 2245.125, 1634.032 2242.593, 1634.812 2240.025, 1635.466 2237.427, 1635.992 2234.806, 1636.387 2232.169, 1636.651 2229.522, 1636.783 2226.872, 1636.783 2224.225, 1636.651 2221.588, 1636.387 " />
            <path fill="none" stroke-width="3.0" stroke-linecap="butt" stroke-opacity="1.0" stroke="rgb(0, 0, 0)" stroke-linejoin="round" d=" M 3139.487, 2326.309 3140.010, 2326.381 3140.013, 2326.381 " />
            <path fill="none" stroke-width="3.0" stroke-linecap="butt" stroke-opacity="1.0" stroke="rgb(0, 0, 0)" stroke-linejoin="round" d=" M 3137.246, 2326.310 3137.570, 2326.310 3137.917, 2326.310 3138.282, 2326.309 3138.667, 2326.309 3139.068, 2326.309 3139.487, 2326.309 " />
            <path fill="none" stroke-width="3.0" stroke-linecap="butt" stroke-opacity="1.0" stroke="rgb(0, 0, 0)" stroke-linejoin="round" d=" M 2281.284, 1586.295 2281.086, 1588.938 2280.757, 1591.569 2280.296, 1594.178 " />
            <path fill="none" stroke-width="3.0" stroke-linecap="butt" stroke-opacity="1.0" stroke="rgb(0, 0, 0)" stroke-linejoin="round" d=" M 2279.707, 1570.530 2280.296, 1573.114 2280.757, 1575.724 2281.086, 1578.354 2281.284, 1580.997 2281.350, 1583.646 " />
            <path fill="none" stroke-width="3.0" stroke-linecap="butt" stroke-opacity="1.0" stroke="rgb(0, 0, 0)" stroke-linejoin="round" d=" M 2006.735, 2326.367 2007.495, 2326.367 2015.703, 2326.367 2025.703, 2326.367 2035.703, 2326.367 2045.703, 2326.366 2055.703, 2326.366 2065.703, 2326.366 2075.703, 2326.366 2085.703, 2326.366 2095.703, 2326.365 2105.703, 2326.365 2115.703, 2326.365 2125.703, 2326.365 2135.703, 2326.364 2145.703, 2326.364 2155.703, 2326.364 2165.703, 2326.364 2175.703, 2326.364 2185.703, 2326.363 2195.703, 2326.363 2205.703, 2326.363 2215.703, 2326.363 2225.703, 2326.363 2235.703, 2326.362 2245.703, 2326.362 2255.703, 2326.362 2265.703, 2326.362 2275.703, 2326.362 2285.703, 2326.361 2295.703, 2326.361 2305.703, 2326.361 2315.703, 2326.361 2325.703, 2326.360 2335.703, 2326.360 2345.703, 2326.360 2355.703, 2326.360 2365.703, 2326.360 2375.703, 2326.359 2385.703, 2326.359 2395.703, 2326.359 2405.703, 2326.359 2415.703, 2326.359 2425.703, 2326.358 2435.703, 2326.358 2445.703, 2326.358 2455.703, 2326.358 2465.703, 2326.358 2475.703, 2326.357 2485.703, 2326.357 2495.703, 2326.357 2505.703, 2326.357 2515.703, 2326.356 2525.703, 2326.356 2535.703, 2326.356 2545.703, 2326.356 2555.703, 2326.356 2565.703, 2326.355 2575.703, 2326.355 2585.703, 2326.355 2595.703, 2326.355 2605.703, 2326.355 2615.703, 2326.354 2625.703, 2326.354 2635.703, 2326.354 2645.703, 2326.354 2655.703, 2326.354 2665.703, 2326.353 2675.703, 2326.353 2685.703, 2326.353 2695.703, 2326.353 2705.703, 2326.352 2715.703, 2326.352 2725.703, 2326.352 2735.703, 2326.352 2745.703, 2326.352 2755.703, 2326.351 2765.703, 2326.351 2775.703, 2326.351 2785.703, 2326.351 2795.703, 2326.351 2805.703, 2326.350 2815.703, 2326.350 2825.703, 2326.350 2835.703, 2326.350 2845.703, 2326.350 2855.703, 2326.349 2865.703, 2326.349 2875.703, 2326.349 2885.703, 2326.349 2895.703, 2326.348 2905.703, 2326.348 2915.703, 2326.348 2925.703, 2326.348 2935.703, 2326.348 2945.703, 2326.347 2955.703, 2326.347 2965.703, 2326.347 2975.703, 2326.347 2985.703, 2326.347 2995.703, 2326.346 3005.703, 2326.346 3015.703, 2326.346 3025.703, 2326.346 3035.703, 2326.346 3045.703, 2326.345 3055.703, 2326.345 3065.703, 2326.345 3075.703, 2326.345 3085.703, 2326.344 3095.703, 2326.344 3105.703, 2326.344 3115.703, 2326.344 3125.703, 2326.344 3136.925, 2326.343 3137.246, 2326.310 " />
            <path fill="none" stroke-width="3.0" stroke-linecap="butt" stroke-opacity="1.0" stroke="rgb(0, 0, 0)" stroke-linejoin="round" d=" M 23.499, 2326.343 33.499, 2326.343 43.499, 2326.343 53.499, 2326.343 63.499, 2326.343 73.499, 2326.343 83.499, 2326.343 93.499, 2326.343 103.499, 2326.344 113.499, 2326.344 123.499, 2326.344 133.499, 2326.344 143.499, 2326.344 153.499, 2326.344 163.499, 2326.344 173.499, 2326.344 183.499, 2326.345 193.499, 2326.345 203.499, 2326.345 213.499, 2326.345 223.499, 2326.345 233.499, 2326.345 243.499, 2326.345 253.499, 2326.345 263.499, 2326.346 273.499, 2326.346 283.499, 2326.346 293.499, 2326.346 303.499, 2326.346 313.499, 2326.346 323.499, 2326.346 333.499, 2326.346 343.499, 2326.347 353.499, 2326.347 363.499, 2326.347 373.499, 2326.347 383.499, 2326.347 393.499, 2326.347 403.499, 2326.347 413.499, 2326.347 423.499, 2326.348 433.499, 2326.348 443.499, 2326.348 453.499, 2326.348 463.499, 2326.348 473.499, 2326.348 483.499, 2326.348 493.499, 2326.348 503.499, 2326.349 513.499, 2326.349 523.499, 2326.349 533.499, 2326.349 543.499, 2326.349 553.499, 2326.349 563.499, 2326.349 573.499, 2326.349 583.499, 2326.350 593.499, 2326.350 603.499, 2326.350 613.499, 2326.350 623.499, 2326.350 633.499, 2326.350 643.499, 2326.350 653.499, 2326.350 663.499, 2326.351 673.499, 2326.351 683.499, 2326.351 693.499, 2326.351 703.499, 2326.351 713.499, 2326.351 723.499, 2326.351 733.499, 2326.351 743.499, 2326.352 753.499, 2326.352 763.499, 2326.352 773.499, 2326.352 783.499, 2326.352 793.499, 2326.352 803.499, 2326.352 813.499, 2326.352 823.499, 2326.353 833.499, 2326.353 843.499, 2326.353 853.499, 2326.353 863.499, 2326.353 873.499, 2326.353 883.499, 2326.353 893.499, 2326.353 903.499, 2326.354 913.499, 2326.354 923.499, 2326.354 933.499, 2326.354 943.499, 2326.354 953.499, 2326.354 963.499, 2326.354 973.499, 2326.354 983.499, 2326.355 993.499, 2326.355 1003.499, 2326.355 1013.499, 2326.355 1023.499, 2326.355 1033.499, 2326.355 1043.499, 2326.355 1053.499, 2326.355 1063.499, 2326.356 1073.499, 2326.356 1083.499, 2326.356 1093.499, 2326.356 1103.499, 2326.356 1113.499, 2326.356 1123.499, 2326.356 1133.499, 2326.356 1143.499, 2326.357 1153.499, 2326.357 1163.499, 2326.357 1173.499, 2326.357 1183.499, 2326.357 1193.499, 2326.357 1203.499, 2326.357 1213.499, 2326.357 1223.499, 2326.358 1233.499, 2326.358 1243.499, 2326.358 1253.499, 2326.358 1263.499, 2326.358 1273.499, 2326.358 1283.499, 2326.358 1293.499, 2326.358 1303.499, 2326.359 1313.499, 2326.359 1323.499, 2326.359 1333.499, 2326.359 1343.499, 2326.359 1353.499, 2326.359 1363.499, 2326.359 1373.499, 2326.359 1383.499, 2326.360 1393.499, 2326.360 1403.499, 2326.360 1413.499, 2326.360 1423.499, 2326.360 1433.499, 2326.360 1443.499, 2326.360 1453.499, 2326.360 1463.499, 2326.361 1473.499, 2326.361 1483.499, 2326.361 1493.499, 2326.361 1503.499, 2326.361 1513.499, 2326.361 1523.499, 2326.361 1533.499, 2326.361 1543.499, 2326.362 1553.499, 2326.362 1563.499, 2326.362 1573.499, 2326.362 1583.499, 2326.362 1593.499, 2326.362 1603.499, 2326.362 1613.499, 2326.362 1623.499, 2326.363 1633.499, 2326.363 1643.499, 2326.363 1653.499, 2326.363 1663.499, 2326.363 1673.499, 2326.363 1683.499, 2326.363 1693.499, 2326.364 1703.499, 2326.364 1713.499, 2326.364 1723.499, 2326.364 1733.499, 2326.364 1743.499, 2326.364 1753.499, 2326.364 1763.499, 2326.364 1773.499, 2326.365 1783.499, 2326.365 1793.499, 2326.365 1803.499, 2326.365 1813.499, 2326.365 1823.499, 2326.365 1833.499, 2326.365 1843.499, 2326.365 1853.499, 2326.366 1863.499, 2326.366 1873.499, 2326.366 1883.499, 2326.366 1893.499, 2326.366 1903.499, 2326.366 1913.499, 2326.366 1923.499, 2326.366 1933.499, 2326.367 1943.499, 2326.367 1953.499, 2326.367 1963.499, 2326.367 1985.407, 2326.367 1987.155, 2326.367 1988.936, 2326.367 1990.745, 2326.367 1992.578, 2326.367 1994.429, 2326.367 1996.294, 2326.367 1998.168, 2326.367 2000.046, 2326.367 2001.922, 2326.367 2003.793, 2326.367 2005.652, 2326.367 2006.735, 2326.367 " />
            <path fill="none" stroke-width="3.0" stroke-linecap="butt" stroke-opacity="1.0" stroke="rgb(0, 0, 0)" stroke-linejoin="round" d=" M 2221.588, 1636.387 2218.967, 1635.992 2216.369, 1635.466 2213.801, 1634.812 " />
            <path fill="none" stroke-width="3.0" stroke-linecap="butt" stroke-opacity="1.0" stroke="rgb(0, 0, 0)" stroke-linejoin="round" d=" M 2278.989, 1567.978 2279.707, 1570.530 " />
            <path fill="none" stroke-width="3.0" stroke-linecap="butt" stroke-opacity="1.0" stroke="rgb(0, 0, 0)" stroke-linejoin="round" d=" M 2265.311, 1545.596 2267.161, 1547.492 2268.915, 1549.480 2270.567, 1551.552 2272.114, 1553.704 2273.552, 1555.930 2274.877, 1558.225 2276.086, 1560.584 2277.177, 1562.999 2278.145, 1565.467 2278.989, 1567.978 " />
            <path fill="none" stroke-width="3.0" stroke-linecap="butt" stroke-opacity="1.0" stroke="rgb(0, 0, 0)" stroke-linejoin="round" d=" M 2213.801, 1634.812 2211.268, 1634.032 2208.778, 1633.125 2206.336, 1632.096 2203.948, 1630.945 2201.620, 1629.678 " />
            <path fill="none" stroke-width="3.0" stroke-linecap="butt" stroke-opacity="1.0" stroke="rgb(0, 0, 0)" stroke-linejoin="round" d=" M 2263.368, 1543.792 2265.311, 1545.596 " />
            <path fill="none" stroke-width="3.0" stroke-linecap="butt" stroke-opacity="1.0" stroke="rgb(0, 0, 0)" stroke-linejoin="round" d=" M 2232.169, 1530.641 2234.806, 1530.905 2237.427, 1531.300 2240.025, 1531.826 2242.593, 1532.479 2245.125, 1533.260 2247.616, 1534.168 2250.058, 1535.197 " />
            <path fill="none" stroke-width="3.0" stroke-linecap="butt" stroke-opacity="1.0" stroke="rgb(0, 0, 0)" stroke-linejoin="round" d=" M 2250.058, 1535.197 2252.446, 1536.347 " />
            <path fill="none" stroke-width="3.0" stroke-linecap="butt" stroke-opacity="1.0" stroke="rgb(0, 0, 0)" stroke-linejoin="round" d=" M 2252.446, 1536.347 2254.774, 1537.614 " />
            <path fill="none" stroke-width="3.0" stroke-linecap="butt" stroke-opacity="1.0" stroke="rgb(0, 0, 0)" stroke-linejoin="round" d=" M 2254.774, 1537.614 2257.035, 1538.996 " />
            <path fill="none" stroke-width="3.0" stroke-linecap="butt" stroke-opacity="1.0" stroke="rgb(0, 0, 0)" stroke-linejoin="round" d=" M 2257.035, 1538.996 2259.225, 1540.488 2261.338, 1542.089 2263.368, 1543.792 " />
            <path fill="none" stroke-width="3.0" stroke-linecap="butt" stroke-opacity="1.0" stroke="rgb(0, 0, 0)" stroke-linejoin="round" d=" M 2175.637, 1591.569 2175.308, 1588.938 2175.110, 1586.295 2175.044, 1583.646 2175.110, 1580.997 2175.308, 1578.354 2175.637, 1575.724 2176.097, 1573.114 2176.687, 1570.530 2177.405, 1567.978 2178.249, 1565.467 2179.217, 1562.999 2180.307, 1560.584 2181.517, 1558.225 2182.842, 1555.930 2184.280, 1553.704 " />
            <path fill="none" stroke-width="3.0" stroke-linecap="butt" stroke-opacity="1.0" stroke="rgb(0, 0, 0)" stroke-linejoin="round" d=" M 1820.476, 1384.854 1817.957, 1387.436 1815.313, 1389.890 1812.550, 1392.209 1809.674, 1394.386 1806.693, 1396.419 1803.615, 1398.300 1800.447, 1400.025 1797.197, 1401.590 1793.873, 1402.991 1790.483, 1404.225 1787.036, 1405.289 1783.540, 1406.178 1780.005, 1406.894 1776.437, 1407.432 1772.848, 1407.791 1769.245, 1407.970 1765.638, 1407.970 1762.035, 1407.791 1758.446, 1407.432 1754.878, 1406.894 1751.343, 1406.178 1747.847, 1405.289 1744.400, 1404.225 1741.010, 1402.991 1737.686, 1401.590 1734.436, 1400.025 1731.268, 1398.300 1728.189, 1396.419 1725.209, 1394.386 1722.333, 1392.209 1719.570, 1389.890 1716.926, 1387.436 1714.407, 1384.854 1712.020, 1382.149 1709.771, 1379.328 1707.665, 1376.400 1705.708, 1373.370 1703.904, 1370.246 1702.259, 1367.036 1700.775, 1363.747 1699.457, 1360.390 1698.308, 1356.970 1697.331, 1353.497 1696.528, 1349.980 1695.902, 1346.428 1695.453, 1342.848 1695.184, 1339.252 1695.094, 1335.645 1695.184, 1332.039 1695.453, 1328.442 1695.902, 1324.862 1696.528, 1321.310 1697.331, 1317.793 1698.308, 1314.320 1699.457, 1310.901 1700.775, 1307.542 1702.259, 1304.254 1703.904, 1301.045 1705.708, 1297.920 1707.665, 1294.890 1709.771, 1291.961 1712.020, 1289.141 1714.407, 1286.436 1716.926, 1283.854 1719.570, 1281.400 1722.333, 1279.081 1725.209, 1276.903 1728.189, 1274.871 1731.268, 1272.990 1734.436, 1271.265 1737.686, 1269.700 1741.010, 1268.298 1744.400, 1267.065 1747.847, 1266.001 1751.343, 1265.111 1754.878, 1264.396 1758.446, 1263.859 1762.035, 1263.499 1765.638, 1263.320 1769.245, 1263.320 1772.848, 1263.499 1776.437, 1263.859 1780.005, 1264.396 1783.540, 1265.111 1787.036, 1266.001 1790.483, 1267.065 1793.873, 1268.298 1797.197, 1269.700 1800.447, 1271.265 1803.615, 1272.990 1806.693, 1274.871 1809.674, 1276.903 1812.550, 1279.081 1815.313, 1281.400 1817.957, 1283.854 1820.476, 1286.436 1822.863, 1289.141 1825.112, 1291.961 1827.218, 1294.890 1829.175, 1297.920 1830.979, 1301.045 1832.624, 1304.254 1834.108, 1307.542 1835.426, 1310.901 1836.575, 1314.320 1837.552, 1317.793 1838.355, 1321.310 1838.981, 1324.862 1839.430, 1328.442 1839.699, 1332.039 1839.789, 1335.645 1839.699, 1339.252 1839.430, 1342.848 1838.981, 1346.428 1838.355, 1349.980 1837.552, 1353.497 1836.575, 1356.970 1835.426, 1360.390 1834.108, 1363.747 1832.624, 1367.036 1830.979, 1370.246 1829.175, 1373.370 1827.218, 1376.400 1825.112, 1379.328 1822.863, 1382.149 1820.476, 1384.854 " />
            <path fill="none" stroke-width="3.0" stroke-linecap="butt" stroke-opacity="1.0" stroke="rgb(0, 0, 0)" stroke-linejoin="round" d=" M 2177.405, 1599.313 2176.687, 1596.762 2176.097, 1594.178 2175.637, 1591.569 " />
            <path fill="none" stroke-width="3.0" stroke-linecap="butt" stroke-opacity="1.0" stroke="rgb(0, 0, 0)" stroke-linejoin="round" d=" M 2184.280, 1553.704 2185.827, 1551.552 " />
            <path fill="none" stroke-width="3.0" stroke-linecap="butt" stroke-opacity="1.0" stroke="rgb(0, 0, 0)" stroke-linejoin="round" d=" M 2185.827, 1551.552 2187.479, 1549.480 " />
            <path fill="none" stroke-width="3.0" stroke-linecap="butt" stroke-opacity="1.0" stroke="rgb(0, 0, 0)" stroke-linejoin="round" d=" M 2184.280, 1613.588 2182.842, 1611.362 2181.517, 1609.067 2180.307, 1606.708 2179.217, 1604.293 2178.249, 1601.825 2177.405, 1599.313 " />
            <path fill="none" stroke-width="3.0" stroke-linecap="butt" stroke-opacity="1.0" stroke="rgb(0, 0, 0)" stroke-linejoin="round" d=" M 2187.479, 1549.480 2189.233, 1547.492 2191.083, 1545.596 2193.026, 1543.792 2195.056, 1542.089 2197.169, 1540.488 2199.359, 1538.996 " />
            <path fill="none" stroke-width="3.0" stroke-linecap="butt" stroke-opacity="1.0" stroke="rgb(0, 0, 0)" stroke-linejoin="round" d=" M 2199.359, 1538.996 2201.620, 1537.614 2203.948, 1536.347 2206.336, 1535.197 2208.778, 1534.168 2211.268, 1533.260 " />
            <path fill="none" stroke-width="3.0" stroke-linecap="butt" stroke-opacity="1.0" stroke="rgb(0, 0, 0)" stroke-linejoin="round" d=" M 2197.169, 1626.804 2195.056, 1625.203 2193.026, 1623.500 2191.083, 1621.696 2189.233, 1619.799 2187.479, 1617.812 " />
            <path fill="none" stroke-width="3.0" stroke-linecap="butt" stroke-opacity="1.0" stroke="rgb(0, 0, 0)" stroke-linejoin="round" d=" M 2211.268, 1533.260 2213.801, 1532.479 2216.369, 1531.826 2218.967, 1531.300 2221.588, 1530.905 2224.225, 1530.641 2226.872, 1530.509 " />
            <path fill="none" stroke-width="3.0" stroke-linecap="butt" stroke-opacity="1.0" stroke="rgb(0, 0, 0)" stroke-linejoin="round" d=" M 1667.374, 2326.363 1669.506, 2326.363 1671.667, 2326.363 1681.667, 2326.363 1691.667, 2326.363 1701.667, 2326.363 1711.667, 2326.363 1721.667, 2326.364 1730.430, 2326.364 " />
            <path fill="none" stroke-width="3.0" stroke-linecap="butt" stroke-opacity="1.0" stroke="rgb(0, 0, 0)" stroke-linejoin="round" d=" M 2226.872, 1530.509 2229.522, 1530.509 " />
            <path fill="none" stroke-width="3.0" stroke-linecap="butt" stroke-opacity="1.0" stroke="rgb(0, 0, 0)" stroke-linejoin="round" d=" M 2229.522, 1530.509 2232.169, 1530.641 " />
            <path fill="none" stroke-width="3.0" stroke-linecap="butt" stroke-opacity="1.0" stroke="rgb(0, 0, 0)" stroke-linejoin="round" d=" M 2274.807, 23.629 2272.026, 23.629 2268.553, 23.629 2265.104, 23.629 2255.104, 23.629 2245.104, 23.629 2235.104, 23.629 2225.104, 23.629 2215.104, 23.629 2205.104, 23.629 2195.104, 23.629 2185.104, 23.629 2175.104, 23.629 2165.104, 23.629 2155.104, 23.629 2145.104, 23.629 2135.104, 23.629 2125.104, 23.629 2115.104, 23.629 2105.104, 23.629 2095.104, 23.629 2085.104, 23.629 2075.104, 23.629 2065.104, 23.629 2055.104, 23.629 2045.104, 23.629 2035.104, 23.629 2025.104, 23.629 2015.104, 23.629 2005.104, 23.629 1995.104, 23.629 1985.104, 23.629 1975.104, 23.629 1965.104, 23.629 1953.438, 23.629 1950.417, 23.629 1949.494, 23.629 1946.399, 23.629 1945.461, 23.629 1942.980, 23.629 " />
            <path fill="none" stroke-width="3.0" stroke-linecap="butt" stroke-opacity="1.0" stroke="rgb(0, 0, 0)" stroke-linejoin="round" d=" M 48.290, 2326.343 58.290, 2326.343 68.290, 2326.343 78.290, 2326.343 88.290, 2326.343 98.290, 2326.343 108.290, 2326.343 118.290, 2326.343 128.290, 2326.344 138.290, 2326.344 148.290, 2326.344 158.290, 2326.344 168.290, 2326.344 178.290, 2326.344 188.290, 2326.344 198.290, 2326.344 208.290, 2326.345 218.290, 2326.345 228.290, 2326.345 238.290, 2326.345 248.290, 2326.345 258.290, 2326.345 268.290, 2326.345 278.290, 2326.345 288.290, 2326.346 298.290, 2326.346 308.290, 2326.346 318.290, 2326.346 328.290, 2326.346 338.290, 2326.346 348.290, 2326.346 358.290, 2326.346 368.290, 2326.347 378.290, 2326.347 388.290, 2326.347 398.290, 2326.347 408.290, 2326.347 418.290, 2326.347 428.290, 2326.347 438.290, 2326.347 448.290, 2326.348 458.290, 2326.348 468.290, 2326.348 478.290, 2326.348 488.290, 2326.348 498.290, 2326.348 508.290, 2326.348 518.290, 2326.348 528.290, 2326.349 538.290, 2326.349 548.290, 2326.349 558.290, 2326.349 568.290, 2326.349 578.290, 2326.349 588.290, 2326.349 598.290, 2326.349 608.330, 2326.350 618.330, 2326.350 628.330, 2326.350 638.330, 2326.350 648.330, 2326.350 658.330, 2326.350 668.330, 2326.350 678.330, 2326.350 688.330, 2326.351 698.330, 2326.351 708.330, 2326.351 718.330, 2326.351 728.330, 2326.351 738.330, 2326.351 748.330, 2326.351 758.330, 2326.351 768.330, 2326.352 778.330, 2326.352 788.330, 2326.352 798.330, 2326.352 808.330, 2326.352 818.330, 2326.352 828.330, 2326.352 838.330, 2326.352 848.330, 2326.353 858.330, 2326.353 868.330, 2326.353 878.330, 2326.353 888.330, 2326.353 898.330, 2326.353 908.330, 2326.353 918.330, 2326.353 928.330, 2326.354 938.330, 2326.354 948.330, 2326.354 958.330, 2326.354 968.330, 2326.354 978.330, 2326.354 988.330, 2326.354 998.330, 2326.354 1008.330, 2326.355 1017.297, 2326.355 1027.297, 2326.355 1037.297, 2326.355 1047.297, 2326.355 1057.297, 2326.355 1067.297, 2326.355 1077.297, 2326.355 1087.297, 2326.356 1097.297, 2326.356 1107.297, 2326.356 1117.297, 2326.356 1127.297, 2326.356 1137.297, 2326.356 1147.297, 2326.356 1157.297, 2326.357 1167.297, 2326.357 1177.297, 2326.357 1187.297, 2326.357 1197.297, 2326.357 1207.297, 2326.357 1217.297, 2326.357 1227.297, 2326.357 1237.297, 2326.358 1247.297, 2326.358 1257.297, 2326.358 1267.297, 2326.358 1277.297, 2326.358 1287.297, 2326.358 1297.297, 2326.358 1307.297, 2326.358 1317.297, 2326.359 1327.297, 2326.359 1337.297, 2326.359 1349.586, 2326.359 1359.586, 2326.359 1369.586, 2326.359 1379.586, 2326.359 1389.586, 2326.359 1399.586, 2326.360 1409.586, 2326.360 1419.586, 2326.360 1429.586, 2326.360 1439.586, 2326.360 1448.667, 2326.360 1458.667, 2326.360 1468.667, 2326.360 1478.667, 2326.361 1488.667, 2326.361 1498.667, 2326.361 1508.667, 2326.361 1518.667, 2326.361 1528.667, 2326.361 1538.667, 2326.361 1548.667, 2326.361 1558.667, 2326.362 1568.667, 2326.362 1578.667, 2326.362 1588.667, 2326.362 1598.667, 2326.362 1608.667, 2326.362 1618.667, 2326.362 1628.667, 2326.362 1638.667, 2326.363 1648.667, 2326.363 1658.667, 2326.363 1667.374, 2326.363 " />
            <path fill="none" stroke-width="3.0" stroke-linecap="butt" stroke-opacity="1.0" stroke="rgb(0, 0, 0)" stroke-linejoin="round" d=" M 356.248, 1672.322 353.368, 1681.898 350.488, 1691.474 347.607, 1701.050 344.727, 1710.627 341.847, 1720.203 338.967, 1729.779 336.087, 1739.356 333.207, 1748.932 330.327, 1758.508 327.447, 1768.084 324.567, 1777.661 321.687, 1787.237 318.807, 1796.813 315.926, 1806.390 313.046, 1815.966 310.166, 1825.542 307.286, 1835.118 304.406, 1844.695 301.457, 1854.499 295.509, 1862.537 289.560, 1870.575 283.612, 1878.614 277.663, 1886.652 271.714, 1894.690 265.766, 1902.729 259.817, 1910.767 253.869, 1918.805 247.920, 1926.843 241.971, 1934.882 236.023, 1942.920 230.074, 1950.958 224.126, 1958.997 218.177, 1967.035 212.229, 1975.073 206.280, 1983.112 200.331, 1991.150 194.383, 1999.188 188.434, 2007.226 182.486, 2015.265 176.537, 2023.303 170.588, 2031.341 164.640, 2039.380 158.691, 2047.418 152.743, 2055.456 146.794, 2063.494 140.845, 2071.533 134.897, 2079.571 128.948, 2087.609 123.000, 2095.648 117.051, 2103.686 111.102, 2111.724 105.154, 2119.763 99.205, 2127.801 93.257, 2135.839 87.308, 2143.877 80.275, 2153.381 77.156, 2162.882 74.038, 2172.383 70.919, 2181.884 67.800, 2191.385 64.681, 2200.887 61.562, 2210.388 58.443, 2219.889 55.324, 2229.390 52.206, 2238.891 49.087, 2248.393 45.968, 2257.894 42.849, 2267.395 39.730, 2276.896 36.611, 2286.397 33.492, 2295.899 30.374, 2305.400 27.255, 2314.901 24.136, 2324.402 23.499, 2326.343 " />
            <path fill="none" stroke-width="3.0" stroke-linecap="butt" stroke-opacity="1.0" stroke="rgb(0, 0, 0)" stroke-linejoin="round" d=" M 549.056, 1198.119 545.811, 1207.578 542.565, 1217.037 539.320, 1226.495 536.074, 1235.954 532.829, 1245.413 529.583, 1254.872 526.338, 1264.330 523.093, 1273.789 519.847, 1283.248 516.602, 1292.706 513.356, 1302.165 510.111, 1311.624 506.865, 1321.083 503.620, 1330.541 500.374, 1340.000 497.129, 1349.459 493.884, 1358.917 490.638, 1368.376 487.393, 1377.835 484.147, 1387.293 480.902, 1396.752 477.656, 1406.211 474.411, 1415.670 471.165, 1425.128 467.920, 1434.587 464.675, 1444.046 463.182, 1448.397 458.872, 1457.421 454.563, 1466.445 450.254, 1475.469 445.944, 1484.492 441.635, 1493.516 437.326, 1502.540 433.017, 1511.564 428.707, 1520.588 424.398, 1529.612 420.089, 1538.636 415.779, 1547.659 411.470, 1556.683 407.161, 1565.707 402.852, 1574.731 398.542, 1583.755 394.233, 1592.779 389.924, 1601.803 385.614, 1610.826 381.305, 1619.850 376.996, 1628.874 372.687, 1637.898 368.377, 1646.922 364.068, 1655.946 359.759, 1664.970 356.248, 1672.322 " />
            <path fill="none" stroke-width="3.0" stroke-linecap="butt" stroke-opacity="1.0" stroke="rgb(0, 0, 0)" stroke-linejoin="round" d=" M 1094.965, 23.629 1088.548, 31.299 1082.131, 38.968 1075.713, 46.637 1069.296, 54.306 1062.878, 61.975 1056.461, 69.645 1050.044, 77.314 1043.626, 84.983 1037.209, 92.652 1030.792, 100.322 1024.374, 107.991 1017.957, 115.660 1011.539, 123.329 1005.122, 130.999 998.704, 138.668 992.287, 146.337 985.870, 154.006 979.452, 161.675 973.035, 169.345 966.617, 177.014 960.200, 184.683 953.783, 192.352 947.365, 200.021 940.948, 207.691 934.531, 215.360 928.113, 223.029 921.696, 230.698 915.278, 238.368 908.861, 246.037 902.444, 253.706 896.026, 261.375 889.609, 269.045 883.191, 276.714 876.774, 284.383 870.357, 292.052 863.939, 299.721 857.522, 307.391 851.104, 315.060 844.687, 322.729 840.847, 327.318 836.698, 336.417 832.549, 345.516 828.400, 354.614 824.251, 363.713 820.102, 372.812 815.953, 381.910 811.804, 391.009 808.232, 398.842 804.908, 408.273 801.585, 417.705 798.261, 427.136 794.937, 436.568 791.614, 446.000 788.290, 455.431 784.966, 464.862 781.643, 474.294 778.319, 483.725 774.995, 493.157 771.672, 502.589 768.348, 512.020 765.024, 521.452 761.701, 530.883 758.377, 540.314 755.053, 549.746 751.730, 559.177 748.406, 568.609 745.082, 578.041 741.759, 587.472 738.435, 596.903 735.111, 606.335 731.788, 615.766 728.464, 625.198 725.140, 634.630 721.817, 644.061 718.493, 653.493 715.169, 662.924 711.846, 672.355 708.522, 681.787 705.198, 691.219 701.875, 700.650 698.551, 710.082 695.227, 719.513 691.904, 728.945 688.580, 738.376 685.256, 747.807 681.932, 757.239 678.609, 766.671 675.285, 776.102 671.961, 785.534 668.638, 794.965 665.314, 804.397 661.990, 813.828 658.667, 823.260 655.343, 832.691 652.019, 842.123 648.696, 851.554 645.372, 860.986 642.048, 870.417 638.725, 879.849 635.401, 889.280 632.720, 896.889 630.044, 906.524 627.368, 916.159 624.691, 925.795 622.015, 935.430 619.339, 945.065 616.663, 954.700 613.987, 964.336 611.311, 973.971 608.635, 983.606 605.959, 993.241 603.283, 1002.877 600.607, 1012.512 597.930, 1022.147 595.254, 1031.783 592.578, 1041.418 589.902, 1051.053 587.226, 1060.688 584.550, 1070.324 581.874, 1079.959 579.198, 1089.594 576.522, 1099.229 573.846, 1108.865 571.169, 1118.500 568.493, 1128.135 565.817, 1137.771 563.141, 1147.406 560.465, 1157.041 557.789, 1166.676 555.113, 1176.312 552.437, 1185.947 549.056, 1198.119 " />
            <path fill="none" stroke-width="3.0" stroke-linecap="butt" stroke-opacity="1.0" stroke="rgb(0, 0, 0)" stroke-linejoin="round" d=" M 1942.980, 23.629 1942.299, 23.629 1941.348, 23.629 1938.130, 23.629 1937.167, 23.629 1933.901, 23.629 1932.928, 23.629 1931.943, 23.629 1928.644, 23.629 1927.654, 23.629 1924.327, 23.629 1923.332, 23.629 1919.987, 23.629 1918.991, 23.629 1915.638, 23.629 1914.641, 23.629 1911.292, 23.629 1910.296, 23.629 1906.959, 23.629 1905.966, 23.629 1902.652, 23.629 1901.664, 23.629 1898.384, 23.629 1897.402, 23.629 1894.164, 23.629 1893.192, 23.629 1892.234, 23.629 1889.044, 23.629 1888.099, 23.629 1884.970, 23.629 1884.040, 23.629 1874.040, 23.629 1864.040, 23.629 1854.040, 23.629 1844.040, 23.629 1834.040, 23.629 1824.040, 23.629 1814.040, 23.629 1804.040, 23.629 1794.040, 23.629 1784.040, 23.629 1774.040, 23.629 1764.040, 23.629 1754.040, 23.629 1744.040, 23.629 1734.040, 23.629 1724.040, 23.629 1714.040, 23.629 1704.040, 23.629 1694.040, 23.629 1684.040, 23.629 1674.040, 23.629 1664.040, 23.629 1654.040, 23.629 1644.040, 23.629 1634.040, 23.629 1626.101, 23.629 1622.597, 23.629 1619.071, 23.629 1618.988, 23.629 " />
            <path fill="none" stroke-width="3.0" stroke-linecap="butt" stroke-opacity="1.0" stroke="rgb(0, 0, 0)" stroke-linejoin="round" d=" M 1618.988, 23.629 1615.535, 23.629 1612.001, 23.629 1608.482, 23.629 1604.990, 23.629 1601.536, 23.629 1598.131, 23.629 1588.131, 23.629 1578.131, 23.629 1568.131, 23.629 1558.131, 23.629 1548.131, 23.629 1538.131, 23.629 1528.131, 23.629 1518.131, 23.629 1508.131, 23.629 1498.131, 23.629 1488.131, 23.629 1478.131, 23.629 1468.131, 23.629 1458.131, 23.629 1448.131, 23.629 1438.131, 23.629 1428.131, 23.629 1418.131, 23.629 1408.131, 23.629 1398.131, 23.629 1388.131, 23.629 1378.131, 23.629 1368.131, 23.629 1358.131, 23.629 1348.131, 23.629 1338.131, 23.629 1328.131, 23.629 1318.131, 23.629 1308.131, 23.629 1298.131, 23.629 1288.131, 23.629 1278.131, 23.629 1268.131, 23.629 1258.131, 23.629 1248.131, 23.629 1238.131, 23.629 1228.131, 23.629 1218.131, 23.629 1208.131, 23.629 1198.131, 23.629 1188.131, 23.629 1178.131, 23.629 1168.131, 23.629 1154.484, 23.629 1153.817, 23.629 1153.155, 23.629 1152.500, 23.629 1151.854, 23.629 1151.219, 23.629 1150.598, 23.629 1149.991, 23.629 1149.401, 23.629 1148.829, 23.629 1148.275, 23.629 1147.742, 23.629 1147.229, 23.629 1146.738, 23.629 1146.268, 23.629 1145.821, 23.629 1145.397, 23.629 1144.995, 23.629 1134.995, 23.629 1124.995, 23.629 1114.995, 23.629 1104.995, 23.629 1094.965, 23.629 " />
            <path fill="none" stroke-width="3.0" stroke-linecap="butt" stroke-opacity="1.0" stroke="rgb(0, 0, 0)" stroke-linejoin="round" d=" M 23.499, 2326.343 33.499, 2326.343 43.499, 2326.343 53.499, 2326.343 63.499, 2326.343 73.499, 2326.343 83.499, 2326.343 93.499, 2326.343 103.499, 2326.344 113.499, 2326.344 123.499, 2326.344 133.499, 2326.344 143.499, 2326.344 153.499, 2326.344 163.499, 2326.344 173.499, 2326.344 183.499, 2326.345 193.499, 2326.345 203.499, 2326.345 213.499, 2326.345 223.499, 2326.345 233.499, 2326.345 243.499, 2326.345 253.499, 2326.345 263.499, 2326.346 273.499, 2326.346 283.499, 2326.346 293.499, 2326.346 303.499, 2326.346 313.499, 2326.346 323.499, 2326.346 333.499, 2326.346 343.499, 2326.347 353.499, 2326.347 363.499, 2326.347 373.499, 2326.347 383.499, 2326.347 393.499, 2326.347 403.499, 2326.347 413.499, 2326.347 423.499, 2326.348 433.499, 2326.348 443.499, 2326.348 453.499, 2326.348 463.499, 2326.348 473.499, 2326.348 483.499, 2326.348 493.499, 2326.348 503.499, 2326.349 513.499, 2326.349 523.499, 2326.349 533.499, 2326.349 543.499, 2326.349 553.499, 2326.349 563.499, 2326.349 573.499, 2326.349 583.499, 2326.350 593.499, 2326.350 603.499, 2326.350 613.499, 2326.350 623.499, 2326.350 633.499, 2326.350 643.499, 2326.350 653.499, 2326.350 663.499, 2326.351 673.499, 2326.351 683.499, 2326.351 693.499, 2326.351 703.499, 2326.351 713.499, 2326.351 723.499, 2326.351 733.499, 2326.351 743.499, 2326.352 753.499, 2326.352 763.499, 2326.352 773.499, 2326.352 783.499, 2326.352 793.499, 2326.352 803.499, 2326.352 813.499, 2326.352 823.499, 2326.353 833.499, 2326.353 843.499, 2326.353 853.499, 2326.353 863.499, 2326.353 873.499, 2326.353 883.499, 2326.353 893.499, 2326.353 903.499, 2326.354 913.499, 2326.354 923.499, 2326.354 933.499, 2326.354 943.499, 2326.354 953.499, 2326.354 963.499, 2326.354 973.499, 2326.354 983.499, 2326.354 993.499, 2326.355 1003.499, 2326.355 1013.499, 2326.355 1023.499, 2326.355 1033.499, 2326.355 1043.499, 2326.355 1053.499, 2326.355 1063.499, 2326.355 1073.499, 2326.356 1083.499, 2326.356 1093.499, 2326.356 1103.499, 2326.356 1113.499, 2326.356 1123.499, 2326.356 1133.499, 2326.356 1143.499, 2326.356 1153.499, 2326.357 1163.499, 2326.357 1173.499, 2326.357 1183.499, 2326.357 1193.499, 2326.357 1203.499, 2326.357 1213.499, 2326.357 1223.499, 2326.357 1233.499, 2326.358 1243.499, 2326.358 1253.499, 2326.358 1263.499, 2326.358 1273.499, 2326.358 1283.499, 2326.358 1293.499, 2326.358 1303.499, 2326.358 1313.499, 2326.359 1323.499, 2326.359 1333.499, 2326.359 1343.499, 2326.359 1353.499, 2326.359 1363.499, 2326.359 1373.499, 2326.359 1383.499, 2326.359 1393.499, 2326.360 1403.499, 2326.360 1413.499, 2326.360 1423.499, 2326.360 1433.499, 2326.360 1443.499, 2326.360 1453.499, 2326.360 1463.499, 2326.360 1473.499, 2326.361 1483.499, 2326.361 1493.499, 2326.361 1503.499, 2326.361 1513.499, 2326.361 1523.499, 2326.361 1533.499, 2326.361 1543.499, 2326.361 1553.499, 2326.362 1563.499, 2326.362 1573.499, 2326.362 1583.499, 2326.362 1593.499, 2326.362 1603.499, 2326.362 1613.499, 2326.362 1623.499, 2326.362 1633.499, 2326.363 1643.499, 2326.363 1660.982, 2326.363 1664.199, 2326.363 1666.752, 2326.363 " />
            <path fill="none" stroke-width="3.0" stroke-linecap="butt" stroke-opacity="1.0" stroke="rgb(0, 0, 0)" stroke-linejoin="round" d=" M 1975.128, 485.344 1972.609, 487.927 1969.965, 490.381 1967.201, 492.699 1964.326, 494.877 1961.345, 496.909 1958.267, 498.791 1955.099, 500.515 1951.849, 502.081 1948.525, 503.482 1945.135, 504.716 1941.688, 505.780 1938.192, 506.669 1934.656, 507.384 1931.089, 507.922 1927.500, 508.281 1923.897, 508.461 1920.290, 508.461 1916.687, 508.281 1913.098, 507.922 1909.530, 507.384 1905.995, 506.669 1902.499, 505.780 1899.052, 504.716 1895.662, 503.482 1892.338, 502.081 1889.088, 500.515 1885.920, 498.791 1882.841, 496.909 1879.861, 494.877 1876.985, 492.699 1874.222, 490.381 1871.578, 487.927 1869.059, 485.344 1866.672, 482.640 1864.423, 479.819 1862.317, 476.891 1860.360, 473.860 1858.556, 470.736 1856.911, 467.526 1855.427, 464.238 1854.109, 460.880 1852.960, 457.460 1851.983, 453.987 1851.180, 450.471 1850.554, 446.918 1850.105, 443.339 1849.836, 439.742 1849.746, 436.136 1849.836, 432.530 1850.105, 428.932 1850.554, 425.353 1851.180, 421.800 1851.983, 418.283 1852.960, 414.810 1854.109, 411.391 1855.427, 408.033 1856.911, 404.745 1858.556, 401.535 1860.360, 398.411 1862.317, 395.380 1864.423, 392.452 1866.672, 389.632 1869.059, 386.927 1871.578, 384.344 1874.222, 381.891 1876.985, 379.572 1879.861, 377.394 1882.841, 375.361 1885.920, 373.480 1889.088, 371.755 1892.338, 370.190 1895.662, 368.789 1899.052, 367.555 1902.499, 366.492 1905.995, 365.602 1909.530, 364.887 1913.098, 364.349 1916.687, 363.990 1920.290, 363.810 1923.897, 363.810 1927.500, 363.990 1931.089, 364.349 1934.656, 364.887 1938.192, 365.602 1941.688, 366.492 1945.135, 367.555 1948.525, 368.789 1951.849, 370.190 1955.099, 371.755 1958.267, 373.480 1961.345, 375.361 1964.326, 377.394 1967.201, 379.572 1969.965, 381.891 1972.609, 384.344 1975.128, 386.927 1977.515, 389.632 1979.764, 392.452 1981.870, 395.380 1983.827, 398.411 1985.631, 401.535 1987.276, 404.745 1988.760, 408.033 1990.078, 411.391 1991.227, 414.810 1992.204, 418.283 1993.007, 421.800 1993.633, 425.353 1994.082, 428.932 1994.351, 432.530 1994.441, 436.136 1994.351, 439.742 1994.082, 443.339 1993.633, 446.918 1993.007, 450.471 1992.204, 453.987 1991.227, 457.460 1990.078, 460.880 1988.760, 464.238 1987.276, 467.526 1985.631, 470.736 1983.827, 473.860 1981.870, 476.891 1979.764, 479.819 1977.515, 482.640 1975.128, 485.344 " />
            <path fill="none" stroke-width="3.0" stroke-linecap="butt" stroke-opacity="1.0" stroke="rgb(0, 0, 0)" stroke-linejoin="round" d=" M 1660.982, 2326.363 1650.982, 2326.363 1640.982, 2326.363 1630.982, 2326.363 1620.982, 2326.362 1610.982, 2326.362 1600.982, 2326.362 1590.982, 2326.362 1580.982, 2326.362 1570.982, 2326.362 1560.982, 2326.362 1550.982, 2326.362 1540.982, 2326.361 1530.982, 2326.361 1520.982, 2326.361 1510.982, 2326.361 1500.982, 2326.361 1490.982, 2326.361 1480.982, 2326.361 1470.982, 2326.361 1460.982, 2326.360 1450.982, 2326.360 1440.982, 2326.360 1430.982, 2326.360 1420.982, 2326.360 1410.982, 2326.360 1407.494, 2326.360 " />
            <path fill="none" stroke-width="3.0" stroke-linecap="butt" stroke-opacity="1.0" stroke="rgb(0, 0, 0)" stroke-linejoin="round" d=" M 3140.013, 2326.381 3150.013, 2326.381 3160.013, 2326.381 3170.013, 2326.381 3180.013, 2326.382 3190.013, 2326.382 3200.013, 2326.382 3210.013, 2326.382 3220.013, 2326.382 3230.013, 2326.382 3233.522, 2326.382 " />
            <path fill="none" stroke-width="3.0" stroke-linecap="butt" stroke-opacity="1.0" stroke="rgb(0, 0, 0)" stroke-linejoin="round" d=" M 23.499, 2326.343 33.499, 2326.343 43.499, 2326.343 48.290, 2326.343 " />
            <path fill="none" stroke-width="3.0" stroke-linecap="butt" stroke-opacity="1.0" stroke="rgb(0, 0, 0)" stroke-linejoin="round" d=" M 23.499, 2326.343 33.499, 2326.343 43.499, 2326.343 53.499, 2326.343 63.499, 2326.343 73.499, 2326.343 83.499, 2326.343 93.499, 2326.343 103.499, 2326.344 113.499, 2326.344 123.499, 2326.344 133.499, 2326.344 143.499, 2326.344 153.499, 2326.344 163.499, 2326.344 173.499, 2326.344 183.499, 2326.345 193.499, 2326.345 203.499, 2326.345 213.499, 2326.345 223.499, 2326.345 233.499, 2326.345 243.499, 2326.345 253.499, 2326.345 263.499, 2326.346 273.499, 2326.346 283.499, 2326.346 293.499, 2326.346 303.499, 2326.346 313.499, 2326.346 323.499, 2326.346 333.499, 2326.346 343.499, 2326.347 353.499, 2326.347 363.499, 2326.347 373.499, 2326.347 383.499, 2326.347 393.499, 2326.347 403.499, 2326.347 413.499, 2326.347 423.499, 2326.347 433.499, 2326.348 443.499, 2326.348 453.499, 2326.348 463.499, 2326.348 473.499, 2326.348 483.499, 2326.348 493.499, 2326.348 503.499, 2326.348 513.499, 2326.349 523.499, 2326.349 533.499, 2326.349 543.499, 2326.349 553.499, 2326.349 563.499, 2326.349 573.499, 2326.349 583.499, 2326.349 593.499, 2326.350 603.499, 2326.350 613.499, 2326.350 623.499, 2326.350 633.499, 2326.350 643.499, 2326.350 653.499, 2326.350 663.499, 2326.350 673.499, 2326.351 683.499, 2326.351 693.499, 2326.351 703.499, 2326.351 713.499, 2326.351 723.499, 2326.351 733.499, 2326.351 743.499, 2326.351 753.499, 2326.352 763.499, 2326.352 773.499, 2326.352 783.499, 2326.352 793.499, 2326.352 803.499, 2326.352 813.499, 2326.352 823.499, 2326.352 833.499, 2326.353 843.499, 2326.353 853.499, 2326.353 863.499, 2326.353 873.499, 2326.353 883.499, 2326.353 893.499, 2326.353 903.499, 2326.353 913.499, 2326.354 923.499, 2326.354 933.499, 2326.354 943.499, 2326.354 953.499, 2326.354 963.499, 2326.354 973.499, 2326.354 983.499, 2326.354 993.499, 2326.355 1003.499, 2326.355 1013.499, 2326.355 1023.499, 2326.355 1033.499, 2326.355 1043.499, 2326.355 1053.499, 2326.355 1063.499, 2326.355 1073.499, 2326.356 1083.499, 2326.356 1093.499, 2326.356 1103.499, 2326.356 1113.499, 2326.356 1123.499, 2326.356 1133.499, 2326.356 1143.499, 2326.356 1153.499, 2326.357 1163.499, 2326.357 1173.499, 2326.357 1183.499, 2326.357 1193.499, 2326.357 1203.499, 2326.357 1213.499, 2326.357 1223.499, 2326.357 1233.499, 2326.358 1243.499, 2326.358 1253.499, 2326.358 1263.499, 2326.358 1273.499, 2326.358 1283.499, 2326.358 1293.499, 2326.358 1303.499, 2326.358 1313.499, 2326.359 1323.499, 2326.359 1333.499, 2326.359 1343.499, 2326.359 1353.499, 2326.359 1363.499, 2326.359 1384.867, 2326.359 1394.867, 2326.360 1404.867, 2326.360 1414.867, 2326.360 1424.867, 2326.360 1434.867, 2326.360 1444.867, 2326.360 1454.867, 2326.360 1464.867, 2326.360 1474.867, 2326.361 1484.867, 2326.361 1494.867, 2326.361 1504.867, 2326.361 1514.867, 2326.361 1524.867, 2326.361 1534.867, 2326.361 1544.867, 2326.361 1554.867, 2326.362 1564.867, 2326.362 1574.867, 2326.362 1584.867, 2326.362 1594.867, 2326.362 1604.867, 2326.362 1614.867, 2326.362 1624.867, 2326.362 1634.867, 2326.363 1644.867, 2326.363 1654.867, 2326.363 1667.374, 2326.363 " />
            <path fill="none" stroke-width="3.0" stroke-linecap="butt" stroke-opacity="1.0" stroke="rgb(0, 0, 0)" stroke-linejoin="round" d=" M 1448.667, 2326.360 1438.667, 2326.360 1428.667, 2326.360 1418.667, 2326.360 1408.667, 2326.360 1398.667, 2326.360 1388.667, 2326.359 1378.667, 2326.359 1368.667, 2326.359 1358.667, 2326.359 1348.667, 2326.359 1338.667, 2326.359 1328.667, 2326.359 1318.667, 2326.359 1308.667, 2326.358 1298.667, 2326.358 1288.667, 2326.358 1278.667, 2326.358 1268.667, 2326.358 1258.667, 2326.358 1247.174, 2326.358 1237.174, 2326.358 1227.174, 2326.357 1217.174, 2326.357 1207.174, 2326.357 1197.174, 2326.357 1187.174, 2326.357 1177.174, 2326.357 1167.174, 2326.357 1157.174, 2326.357 1147.174, 2326.356 1137.174, 2326.356 1127.174, 2326.356 1117.174, 2326.356 1107.174, 2326.356 1097.174, 2326.356 1087.174, 2326.356 1077.174, 2326.356 1067.174, 2326.355 1057.174, 2326.355 1047.174, 2326.355 1037.174, 2326.355 1027.174, 2326.355 1017.174, 2326.355 1007.174, 2326.355 997.174, 2326.355 987.174, 2326.354 977.174, 2326.354 967.174, 2326.354 957.174, 2326.354 947.174, 2326.354 937.174, 2326.354 927.174, 2326.354 917.174, 2326.354 907.174, 2326.353 897.174, 2326.353 887.174, 2326.353 877.174, 2326.353 867.174, 2326.353 857.174, 2326.353 847.174, 2326.353 837.174, 2326.353 827.174, 2326.352 817.174, 2326.352 807.174, 2326.352 797.174, 2326.352 787.174, 2326.352 777.174, 2326.352 767.174, 2326.352 757.174, 2326.352 747.174, 2326.351 737.174, 2326.351 727.174, 2326.351 717.174, 2326.351 707.174, 2326.351 697.174, 2326.351 687.174, 2326.351 677.174, 2326.351 667.174, 2326.351 657.174, 2326.350 647.174, 2326.350 637.174, 2326.350 627.174, 2326.350 617.174, 2326.350 607.174, 2326.350 597.174, 2326.350 587.174, 2326.350 577.174, 2326.349 567.174, 2326.349 557.174, 2326.349 547.174, 2326.349 537.174, 2326.349 527.174, 2326.349 517.174, 2326.349 507.174, 2326.349 497.174, 2326.348 487.174, 2326.348 477.174, 2326.348 467.174, 2326.348 457.174, 2326.348 447.174, 2326.348 437.174, 2326.348 427.174, 2326.348 417.174, 2326.347 407.174, 2326.347 397.174, 2326.347 387.174, 2326.347 377.174, 2326.347 367.174, 2326.347 357.174, 2326.347 347.174, 2326.347 337.174, 2326.346 327.174, 2326.346 317.174, 2326.346 307.174, 2326.346 297.174, 2326.346 287.174, 2326.346 277.174, 2326.346 267.174, 2326.346 257.174, 2326.345 247.174, 2326.345 237.174, 2326.345 227.174, 2326.345 217.174, 2326.345 207.174, 2326.345 197.174, 2326.345 187.174, 2326.345 177.174, 2326.344 167.174, 2326.344 157.174, 2326.344 147.174, 2326.344 137.174, 2326.344 127.174, 2326.344 117.174, 2326.344 107.174, 2326.344 97.174, 2326.343 87.174, 2326.343 77.174, 2326.343 67.174, 2326.343 57.174, 2326.343 47.174, 2326.343 37.174, 2326.343 23.499, 2326.343 " />
            <path fill="none" stroke-width="3.0" stroke-linecap="butt" stroke-opacity="1.0" stroke="rgb(0, 0, 0)" stroke-linejoin="round" d=" M 1730.430, 2326.364 1740.430, 2326.364 1750.430, 2326.364 1760.430, 2326.364 1770.430, 2326.364 1780.430, 2326.364 1790.430, 2326.365 1800.430, 2326.365 1810.430, 2326.365 1820.430, 2326.365 1830.430, 2326.365 1840.430, 2326.365 1850.430, 2326.365 1860.430, 2326.365 1870.430, 2326.366 1880.430, 2326.366 1890.430, 2326.366 1900.430, 2326.366 1910.430, 2326.366 1920.430, 2326.366 1930.430, 2326.366 1940.430, 2326.367 1950.430, 2326.367 1961.443, 2326.367 1971.443, 2326.367 1981.443, 2326.367 1985.407, 2326.367 " />
            <path fill="none" stroke-width="3.0" stroke-linecap="butt" stroke-opacity="1.0" stroke="rgb(0, 0, 0)" stroke-linejoin="round" d=" M 23.499, 2326.343 33.499, 2326.343 43.499, 2326.343 53.499, 2326.343 63.499, 2326.343 73.499, 2326.343 83.499, 2326.343 93.499, 2326.343 103.499, 2326.344 113.499, 2326.344 123.499, 2326.344 133.499, 2326.344 143.499, 2326.344 153.499, 2326.344 163.499, 2326.344 173.499, 2326.344 183.499, 2326.345 193.499, 2326.345 203.499, 2326.345 213.499, 2326.345 223.499, 2326.345 233.499, 2326.345 243.499, 2326.345 253.499, 2326.345 263.499, 2326.346 273.499, 2326.346 283.499, 2326.346 293.499, 2326.346 303.499, 2326.346 313.499, 2326.346 323.499, 2326.346 333.499, 2326.346 343.499, 2326.347 353.499, 2326.347 363.499, 2326.347 373.499, 2326.347 383.499, 2326.347 393.499, 2326.347 403.499, 2326.347 413.499, 2326.347 423.499, 2326.348 433.499, 2326.348 443.499, 2326.348 453.499, 2326.348 463.499, 2326.348 473.499, 2326.348 483.499, 2326.348 493.499, 2326.348 503.499, 2326.349 513.499, 2326.349 523.499, 2326.349 533.499, 2326.349 543.499, 2326.349 553.499, 2326.349 563.499, 2326.349 573.499, 2326.349 583.499, 2326.350 593.499, 2326.350 603.499, 2326.350 613.499, 2326.350 623.499, 2326.350 633.499, 2326.350 643.499, 2326.350 653.499, 2326.350 663.499, 2326.351 673.499, 2326.351 683.499, 2326.351 693.499, 2326.351 703.499, 2326.351 713.499, 2326.351 723.499, 2326.351 733.499, 2326.351 743.499, 2326.352 753.499, 2326.352 763.499, 2326.352 773.499, 2326.352 783.499, 2326.352 793.499, 2326.352 803.499, 2326.352 813.499, 2326.352 823.499, 2326.353 833.499, 2326.353 843.499, 2326.353 853.499, 2326.353 863.499, 2326.353 873.499, 2326.353 883.499, 2326.353 893.499, 2326.353 903.499, 2326.354 913.499, 2326.354 923.499, 2326.354 933.499, 2326.354 943.499, 2326.354 953.499, 2326.354 963.499, 2326.354 973.499, 2326.354 983.499, 2326.355 993.499, 2326.355 1003.499, 2326.355 1013.499, 2326.355 1023.499, 2326.355 1033.499, 2326.355 1043.499, 2326.355 1053.499, 2326.355 1063.499, 2326.356 1073.499, 2326.356 1083.499, 2326.356 1093.499, 2326.356 1103.499, 2326.356 1113.499, 2326.356 1123.499, 2326.356 1133.499, 2326.356 1143.499, 2326.357 1153.499, 2326.357 1163.499, 2326.357 1173.499, 2326.357 1183.499, 2326.357 1193.499, 2326.357 1203.499, 2326.357 1213.499, 2326.357 1223.499, 2326.358 1233.499, 2326.358 1243.499, 2326.358 1253.499, 2326.358 1263.499, 2326.358 1273.499, 2326.358 1283.499, 2326.358 1293.499, 2326.358 1303.499, 2326.359 1313.499, 2326.359 1323.499, 2326.359 1333.499, 2326.359 1343.499, 2326.359 1353.499, 2326.359 1363.499, 2326.359 1373.499, 2326.359 1383.499, 2326.360 1393.499, 2326.360 1403.499, 2326.360 1413.499, 2326.360 1423.499, 2326.360 1433.499, 2326.360 1443.499, 2326.360 1453.499, 2326.360 1463.499, 2326.361 1473.499, 2326.361 1483.499, 2326.361 1493.499, 2326.361 1503.499, 2326.361 1513.499, 2326.361 1523.499, 2326.361 1533.499, 2326.361 1543.499, 2326.362 1553.499, 2326.362 1563.499, 2326.362 1573.499, 2326.362 1583.499, 2326.362 1593.499, 2326.362 1603.499, 2326.362 1613.499, 2326.362 1623.499, 2326.363 1633.499, 2326.363 1643.499, 2326.363 1653.499, 2326.363 1663.499, 2326.363 1673.499, 2326.363 1683.499, 2326.363 1693.499, 2326.363 1703.499, 2326.364 1713.499, 2326.364 1723.499, 2326.364 1733.499, 2326.364 1743.499, 2326.364 1753.499, 2326.364 1763.499, 2326.364 1773.499, 2326.364 1783.499, 2326.365 1793.499, 2326.365 1803.499, 2326.365 1813.499, 2326.365 1823.499, 2326.365 1833.499, 2326.365 1843.499, 2326.365 1853.499, 2326.365 1863.499, 2326.366 1873.499, 2326.366 1883.499, 2326.366 1893.499, 2326.366 1903.499, 2326.366 1913.499, 2326.366 1923.499, 2326.366 1933.499, 2326.366 1961.443, 2326.367 " />
            <path fill="none" stroke-width="3.0" stroke-linecap="butt" stroke-opacity="1.0" stroke="rgb(0, 0, 0)" stroke-linejoin="round" d=" M 2185.827, 1615.740 2184.280, 1613.588 " />
            <path fill="none" stroke-width="3.0" stroke-linecap="butt" stroke-opacity="1.0" stroke="rgb(0, 0, 0)" stroke-linejoin="round" d=" M 2187.479, 1617.812 2185.827, 1615.740 " />
            <path fill="none" stroke-width="3.0" stroke-linecap="butt" stroke-opacity="1.0" stroke="rgb(0, 0, 0)" stroke-linejoin="round" d=" M 2199.359, 1628.296 2197.169, 1626.804 " />
            <path fill="none" stroke-width="3.0" stroke-linecap="butt" stroke-opacity="1.0" stroke="rgb(0, 0, 0)" stroke-linejoin="round" d=" M 2201.620, 1629.678 2199.359, 1628.296 " />
            <path fill="none" stroke-width="3.0" stroke-linecap="butt" stroke-opacity="1.0" stroke="rgb(0, 0, 0)" stroke-linejoin="round" d=" M 2252.446, 1630.945 2250.058, 1632.096 " />
            <path fill="none" stroke-width="3.0" stroke-linecap="butt" stroke-opacity="1.0" stroke="rgb(0, 0, 0)" stroke-linejoin="round" d=" M 2254.774, 1629.678 2252.446, 1630.945 " />
            <path fill="none" stroke-width="3.0" stroke-linecap="butt" stroke-opacity="1.0" stroke="rgb(0, 0, 0)" stroke-linejoin="round" d=" M 2267.161, 1619.799 2265.311, 1621.696 " />
            <path fill="none" stroke-width="3.0" stroke-linecap="butt" stroke-opacity="1.0" stroke="rgb(0, 0, 0)" stroke-linejoin="round" d=" M 2278.989, 1599.313 2278.145, 1601.825 " />
            <path fill="none" stroke-width="3.0" stroke-linecap="butt" stroke-opacity="1.0" stroke="rgb(0, 0, 0)" stroke-linejoin="round" d=" M 2279.707, 1596.762 2278.989, 1599.313 " />
            <path fill="none" stroke-width="3.0" stroke-linecap="butt" stroke-opacity="1.0" stroke="rgb(0, 0, 0)" stroke-linejoin="round" d=" M 2280.296, 1594.178 2279.707, 1596.762 " />
            <path fill="none" stroke-width="3.0" stroke-linecap="butt" stroke-opacity="1.0" stroke="rgb(0, 0, 0)" stroke-linejoin="round" d=" M 2281.350, 1583.646 2281.284, 1586.295 " />
            <path fill="none" stroke-width="3.0" stroke-linecap="butt" stroke-opacity="1.0" stroke="rgb(0, 0, 0)" stroke-linejoin="round" d=" M 2006.735, 2326.367 2016.735, 2326.367 2026.735, 2326.367 2036.735, 2326.368 2046.735, 2326.368 2056.735, 2326.368 2066.735, 2326.368 2076.735, 2326.368 2086.735, 2326.368 2096.735, 2326.368 2106.735, 2326.368 2116.735, 2326.369 2126.735, 2326.369 2136.735, 2326.369 2146.735, 2326.369 2156.735, 2326.369 2166.735, 2326.369 2176.735, 2326.369 2186.735, 2326.369 2196.735, 2326.370 2206.735, 2326.370 2216.735, 2326.370 2226.735, 2326.370 2236.735, 2326.370 2246.735, 2326.370 2256.735, 2326.370 2266.735, 2326.370 2276.735, 2326.371 2286.735, 2326.371 2296.735, 2326.371 2306.735, 2326.371 2316.735, 2326.371 2326.735, 2326.371 2336.735, 2326.371 2346.735, 2326.371 2356.735, 2326.372 2366.735, 2326.372 2376.735, 2326.372 2386.735, 2326.372 2396.735, 2326.372 2406.735, 2326.372 2416.735, 2326.372 2426.735, 2326.372 2436.735, 2326.373 2446.735, 2326.373 2456.735, 2326.373 2466.735, 2326.373 2476.735, 2326.373 2486.735, 2326.373 2496.735, 2326.373 2506.735, 2326.373 2516.735, 2326.374 2526.735, 2326.374 2536.735, 2326.374 2546.735, 2326.374 2556.735, 2326.374 2566.735, 2326.374 2576.735, 2326.374 2586.735, 2326.374 2596.735, 2326.375 2606.735, 2326.375 2616.735, 2326.375 2626.735, 2326.375 2636.735, 2326.375 2646.735, 2326.375 2656.735, 2326.375 2666.735, 2326.375 2676.735, 2326.375 2686.735, 2326.376 2696.735, 2326.376 2706.735, 2326.376 2716.735, 2326.376 2726.735, 2326.376 2736.735, 2326.376 2746.735, 2326.376 2756.735, 2326.376 2766.735, 2326.377 2776.735, 2326.377 2786.735, 2326.377 2796.735, 2326.377 2806.735, 2326.377 2816.735, 2326.377 2826.735, 2326.377 2836.735, 2326.377 2846.735, 2326.378 2856.735, 2326.378 2866.735, 2326.378 2876.735, 2326.378 2886.735, 2326.378 2896.735, 2326.378 2906.735, 2326.378 2916.735, 2326.378 2926.735, 2326.379 2936.735, 2326.379 2946.735, 2326.379 2956.735, 2326.379 2966.735, 2326.379 2976.735, 2326.379 2986.735, 2326.379 2996.735, 2326.379 3006.735, 2326.380 3016.735, 2326.380 3026.735, 2326.380 3036.735, 2326.380 3046.735, 2326.380 3056.735, 2326.380 3066.735, 2326.380 3076.735, 2326.380 3086.735, 2326.381 3096.735, 2326.381 3106.735, 2326.381 3116.735, 2326.381 3126.735, 2326.381 3140.013, 2326.381 " />
            <path fill="none" stroke-width="3.0" stroke-linecap="butt" stroke-opacity="1.0" stroke="rgb(0, 0, 0)" stroke-linejoin="round" d=" M 23.499, 2326.343 33.499, 2326.343 43.499, 2326.343 53.499, 2326.343 63.499, 2326.343 73.499, 2326.343 83.499, 2326.343 93.499, 2326.343 103.499, 2326.344 113.499, 2326.344 123.499, 2326.344 133.499, 2326.344 143.499, 2326.344 153.499, 2326.344 163.499, 2326.344 173.499, 2326.344 183.499, 2326.345 193.499, 2326.345 203.499, 2326.345 213.499, 2326.345 223.499, 2326.345 233.499, 2326.345 243.499, 2326.345 253.499, 2326.345 263.499, 2326.346 273.499, 2326.346 283.499, 2326.346 293.499, 2326.346 303.499, 2326.346 313.499, 2326.346 323.499, 2326.346 333.499, 2326.346 343.499, 2326.347 353.499, 2326.347 363.499, 2326.347 373.499, 2326.347 383.499, 2326.347 393.499, 2326.347 403.499, 2326.347 413.499, 2326.347 423.499, 2326.347 433.499, 2326.348 443.499, 2326.348 453.499, 2326.348 463.499, 2326.348 473.499, 2326.348 483.499, 2326.348 493.499, 2326.348 503.499, 2326.348 513.499, 2326.349 523.499, 2326.349 533.499, 2326.349 543.499, 2326.349 553.499, 2326.349 563.499, 2326.349 573.499, 2326.349 583.499, 2326.349 593.499, 2326.350 603.499, 2326.350 613.499, 2326.350 623.499, 2326.350 633.499, 2326.350 643.499, 2326.350 653.499, 2326.350 663.499, 2326.350 673.499, 2326.351 683.499, 2326.351 693.499, 2326.351 703.499, 2326.351 713.499, 2326.351 723.499, 2326.351 733.499, 2326.351 743.499, 2326.351 753.499, 2326.352 763.499, 2326.352 773.499, 2326.352 783.499, 2326.352 793.499, 2326.352 803.499, 2326.352 813.499, 2326.352 823.499, 2326.352 833.499, 2326.353 843.499, 2326.353 853.499, 2326.353 863.499, 2326.353 873.499, 2326.353 883.499, 2326.353 893.499, 2326.353 903.499, 2326.353 913.499, 2326.354 923.499, 2326.354 933.499, 2326.354 943.499, 2326.354 953.499, 2326.354 963.499, 2326.354 973.499, 2326.354 983.499, 2326.354 993.499, 2326.355 1003.499, 2326.355 1013.499, 2326.355 1023.499, 2326.355 1033.499, 2326.355 1043.499, 2326.355 1053.499, 2326.355 1063.499, 2326.355 1073.499, 2326.356 1083.499, 2326.356 1093.499, 2326.356 1103.499, 2326.356 1113.499, 2326.356 1123.499, 2326.356 1133.499, 2326.356 1143.499, 2326.356 1153.499, 2326.357 1163.499, 2326.357 1173.499, 2326.357 1183.499, 2326.357 1193.499, 2326.357 1203.499, 2326.357 1213.499, 2326.357 1223.499, 2326.357 1233.499, 2326.358 1243.499, 2326.358 1253.499, 2326.358 1263.499, 2326.358 1273.499, 2326.358 1283.499, 2326.358 1293.499, 2326.358 1303.499, 2326.358 1313.499, 2326.359 1323.499, 2326.359 1333.499, 2326.359 1343.499, 2326.359 1353.499, 2326.359 1363.499, 2326.359 1373.499, 2326.359 1383.499, 2326.359 1393.499, 2326.360 1407.494, 2326.360 1417.494, 2326.360 1427.494, 2326.360 1437.494, 2326.360 1447.494, 2326.360 1457.494, 2326.360 1467.494, 2326.360 1477.494, 2326.361 1487.494, 2326.361 1497.494, 2326.361 1507.494, 2326.361 1517.494, 2326.361 1527.494, 2326.361 1537.494, 2326.361 1547.494, 2326.361 1557.494, 2326.362 1567.494, 2326.362 1577.494, 2326.362 1587.494, 2326.362 1597.494, 2326.362 1607.494, 2326.362 1617.494, 2326.362 1627.494, 2326.362 1637.494, 2326.363 1647.494, 2326.363 1657.494, 2326.363 1666.752, 2326.363 1676.752, 2326.363 1686.752, 2326.363 1696.752, 2326.363 1706.752, 2326.363 1716.752, 2326.364 1726.752, 2326.364 1730.430, 2326.364 " />
            <path fill="none" stroke-width="3.0" stroke-linecap="butt" stroke-opacity="1.0" stroke="rgb(0, 0, 0)" stroke-linejoin="round" d=" M 3233.522, 2326.382 3230.457, 2316.863 3227.393, 2307.344 3224.329, 2297.825 3221.264, 2288.306 3218.200, 2278.787 3215.136, 2269.268 3212.072, 2259.749 3209.007, 2250.231 3205.943, 2240.712 3202.878, 2231.193 3199.814, 2221.674 3196.750, 2212.155 3193.686, 2202.636 3190.621, 2193.117 3187.557, 2183.598 3184.493, 2174.079 3181.428, 2164.560 3178.364, 2155.041 3175.300, 2145.522 3172.235, 2136.003 3169.171, 2126.484 3166.107, 2116.966 3163.042, 2107.447 3159.978, 2097.928 3156.914, 2088.409 3153.849, 2078.890 3150.785, 2069.371 3147.721, 2059.852 3144.656, 2050.333 3141.592, 2040.814 3138.528, 2031.295 3135.464, 2021.776 3132.399, 2012.257 3129.335, 2002.738 3126.271, 1993.220 3123.206, 1983.701 3120.142, 1974.182 3117.078, 1964.663 3114.013, 1955.144 3110.949, 1945.625 3107.885, 1936.106 3104.820, 1926.587 3101.756, 1917.068 3098.692, 1907.549 3095.627, 1898.030 3092.563, 1888.511 3089.499, 1878.992 3084.951, 1864.864 " />
        </g>
    </g>
<g id="slice-labels"><text x="558.5028333333333" y="599.3172500000001" text-anchor="middle" dominant-baseline="middle" font-family="Arial, sans-serif" font-size="59.05930250450507" font-weight="bold" fill="black" stroke="none" stroke-width="7.087116300540609" paint-order="stroke fill">Slice44 (Back)</text><text x="1628.5105" y="599.3172500000001" text-anchor="middle" dominant-baseline="middle" font-family="Arial, sans-serif" font-size="59.05930250450507" font-weight="bold" fill="black" stroke="none" stroke-width="7.087116300540609" paint-order="stroke fill">Slice44 (Back)</text><text x="2698.5181666666667" y="599.3172500000001" text-anchor="middle" dominant-baseline="middle" font-family="Arial, sans-serif" font-size="59.05930250450507" font-weight="bold" fill="black" stroke="none" stroke-width="7.087116300540609" paint-order="stroke fill">Slice44 (Back)</text><text x="558.5028333333333" y="1750.69375" text-anchor="middle" dominant-baseline="middle" font-family="Arial, sans-serif" font-size="59.05930250450507" font-weight="bold" fill="black" stroke="none" stroke-width="7.087116300540609" paint-order="stroke fill">Slice44 (Back)</text><text x="1628.5105" y="1750.69375" text-anchor="middle" dominant-baseline="middle" font-family="Arial, sans-serif" font-size="59.05930250450507" font-weight="bold" fill="black" stroke="none" stroke-width="7.087116300540609" paint-order="stroke fill">Slice44 (Back)</text><text x="2698.5181666666667" y="1750.69375" text-anchor="middle" dominant-baseline="middle" font-family="Arial, sans-serif" font-size="59.05930250450507" font-weight="bold" fill="black" stroke="none" stroke-width="7.087116300540609" paint-order="stroke fill">Slice44 (Back)</text></g></svg>