<?xml version='1.0' encoding='utf-8'?>
<svg xmlns="http://www.w3.org/2000/svg" xmlns:inkscape="http://www.inkscape.org/namespaces/inkscape" version="1.1" width="297.000000mm" height="420.000000mm" viewBox="0 0 297.000000 420.000000"><svg inkscape:label="Slice5_back" data-source="Slice5_back.svg" x="10.000000" y="10.000000" width="229.588322" height="143.901698" viewBox="-0.12424258139520106 0.00476705098627761 2712.2694851627903 1699.9994658980274" preserveAspectRatio="none"><g id="ViewLayer_LineSet" inkscape:groupmode="lineset" inkscape:label="ViewLayer_LineSet">
        <g inkscape:groupmode="layer" id="strokes" inkscape:label="strokes">
            <path fill="none" stroke-width="3.0" stroke-linecap="butt" stroke-opacity="1.0" stroke="rgb(0, 0, 0)" stroke-linejoin="round" d=" M 969.518, 1317.741 966.998, 1320.324 964.353, 1322.777 961.589, 1325.097 958.714, 1327.276 955.733, 1329.308 952.654, 1331.188 949.486, 1332.914 946.235, 1334.480 942.911, 1335.882 939.520, 1337.115 936.073, 1338.179 932.576, 1339.069 929.040, 1339.783 925.472, 1340.321 921.882, 1340.680 918.279, 1340.861 914.671, 1340.861 911.068, 1340.680 907.478, 1340.321 903.910, 1339.783 900.374, 1339.069 896.877, 1338.179 893.430, 1337.115 890.039, 1335.882 886.715, 1334.480 883.464, 1332.914 880.296, 1331.188 877.217, 1329.308 874.236, 1327.276 871.360, 1325.097 868.596, 1322.777 865.952, 1320.324 863.432, 1317.741 861.045, 1315.036 858.796, 1312.215 856.690, 1309.285 854.732, 1306.255 852.928, 1303.130 851.282, 1299.920 849.798, 1296.631 848.480, 1293.272 847.331, 1289.853 846.354, 1286.380 845.551, 1282.862 844.925, 1279.310 844.476, 1275.729 844.206, 1272.132 844.116, 1268.525 844.206, 1264.918 844.476, 1261.320 844.925, 1257.740 845.551, 1254.187 846.354, 1250.669 847.331, 1247.197 848.480, 1243.776 849.798, 1240.418 851.282, 1237.130 852.928, 1233.919 854.732, 1230.795 856.690, 1227.764 858.796, 1224.834 861.045, 1222.014 863.432, 1219.308 865.952, 1216.725 868.596, 1214.272 871.360, 1211.953 874.236, 1209.774 877.217, 1207.742 880.296, 1205.861 883.464, 1204.134 886.715, 1202.569 890.039, 1201.169 893.430, 1199.934 896.877, 1198.871 900.374, 1197.981 903.910, 1197.265 907.478, 1196.728 911.068, 1196.369 914.671, 1196.189 918.279, 1196.189 921.882, 1196.369 925.472, 1196.728 929.040, 1197.265 932.576, 1197.981 936.073, 1198.871 939.520, 1199.934 942.911, 1201.169 946.235, 1202.569 949.486, 1204.134 952.654, 1205.861 955.733, 1207.742 958.714, 1209.774 961.589, 1211.953 964.353, 1214.272 966.998, 1216.725 969.518, 1219.308 971.905, 1222.014 974.154, 1224.834 976.260, 1227.764 978.218, 1230.795 980.022, 1233.919 981.668, 1237.130 983.152, 1240.418 984.470, 1243.776 985.619, 1247.197 986.596, 1250.669 987.399, 1254.187 988.025, 1257.740 988.474, 1261.320 988.744, 1264.918 988.833, 1268.525 988.744, 1272.132 988.474, 1275.729 988.025, 1279.310 987.399, 1282.862 986.596, 1286.380 985.619, 1289.853 984.470, 1293.272 983.152, 1296.631 981.668, 1299.920 980.022, 1303.130 978.218, 1306.255 976.260, 1309.285 974.154, 1312.215 971.905, 1315.036 969.518, 1317.741 " />
            <path fill="none" stroke-width="3.0" stroke-linecap="butt" stroke-opacity="1.0" stroke="rgb(0, 0, 0)" stroke-linejoin="round" d=" M 1216.665, 1676.371 1220.057, 1676.371 1223.510, 1676.371 1227.014, 1676.371 1230.558, 1676.371 1234.133, 1676.371 1237.729, 1676.371 1241.335, 1676.371 1244.943, 1676.371 1248.541, 1676.371 1252.119, 1676.371 1255.670, 1676.371 1259.182, 1676.371 1262.646, 1676.371 1266.054, 1676.371 1269.396, 1676.371 " />
            <path fill="none" stroke-width="3.0" stroke-linecap="butt" stroke-opacity="1.0" stroke="rgb(0, 0, 0)" stroke-linejoin="round" d=" M 2554.902, 1676.377 2557.423, 1666.701 2559.945, 1657.024 2562.467, 1647.347 2564.989, 1637.670 2567.511, 1627.993 2570.033, 1618.317 2572.555, 1608.640 2575.076, 1598.963 2577.598, 1589.286 2580.120, 1579.609 2582.642, 1569.933 2585.164, 1560.256 2587.686, 1550.579 2590.208, 1540.902 2592.729, 1531.226 2595.251, 1521.549 2597.773, 1511.872 2600.295, 1502.195 2602.817, 1492.518 2605.339, 1482.842 2607.861, 1473.165 2610.383, 1463.488 2612.904, 1453.811 2615.426, 1444.134 2617.948, 1434.458 2620.470, 1424.781 2622.992, 1415.104 2625.514, 1405.427 2628.035, 1395.751 2630.557, 1386.074 2633.079, 1376.397 2635.601, 1366.720 2638.123, 1357.043 2640.645, 1347.367 2643.167, 1337.690 2645.688, 1328.013 2648.210, 1318.336 2650.732, 1308.659 2653.254, 1298.983 2655.776, 1289.306 2658.298, 1279.629 2660.820, 1269.952 2663.342, 1260.275 2665.863, 1250.599 2668.385, 1240.922 2670.907, 1231.245 2673.429, 1221.568 2675.951, 1211.892 2678.473, 1202.215 2680.995, 1192.538 2683.516, 1182.861 2686.038, 1173.184 2688.518, 1163.669 " />
            <path fill="none" stroke-width="3.0" stroke-linecap="butt" stroke-opacity="1.0" stroke="rgb(0, 0, 0)" stroke-linejoin="round" d=" M 692.664, 1676.272 694.676, 1676.320 704.676, 1676.321 714.676, 1676.322 724.676, 1676.323 734.676, 1676.324 744.676, 1676.325 754.676, 1676.326 764.676, 1676.327 774.676, 1676.328 784.676, 1676.329 794.676, 1676.330 804.676, 1676.331 814.676, 1676.332 824.676, 1676.333 834.676, 1676.334 844.676, 1676.335 854.676, 1676.336 864.676, 1676.337 874.676, 1676.338 884.676, 1676.339 894.676, 1676.340 904.676, 1676.341 914.676, 1676.342 924.676, 1676.343 934.676, 1676.344 944.676, 1676.345 954.676, 1676.346 964.676, 1676.347 974.676, 1676.348 984.676, 1676.349 994.676, 1676.349 1004.676, 1676.350 1014.676, 1676.351 1024.676, 1676.352 1034.676, 1676.353 1044.676, 1676.354 1054.676, 1676.355 1064.676, 1676.356 1074.676, 1676.357 1084.676, 1676.358 1094.676, 1676.359 1104.676, 1676.360 1114.676, 1676.361 1124.676, 1676.362 1134.676, 1676.363 1144.676, 1676.364 1154.676, 1676.365 1164.676, 1676.366 1174.676, 1676.367 1184.676, 1676.368 1194.676, 1676.369 1204.676, 1676.370 1213.282, 1676.371 1216.665, 1676.371 " />
            <path fill="none" stroke-width="3.0" stroke-linecap="butt" stroke-opacity="1.0" stroke="rgb(0, 0, 0)" stroke-linejoin="round" d=" M 23.503, 1676.365 33.503, 1676.365 43.503, 1676.365 53.503, 1676.366 63.503, 1676.366 73.503, 1676.366 83.503, 1676.366 93.503, 1676.366 103.503, 1676.366 113.503, 1676.366 123.503, 1676.366 133.503, 1676.366 143.503, 1676.366 153.503, 1676.366 163.503, 1676.366 173.503, 1676.366 183.503, 1676.366 191.197, 1676.366 201.197, 1676.366 211.197, 1676.366 221.197, 1676.366 231.197, 1676.366 241.197, 1676.366 251.197, 1676.366 261.197, 1676.366 271.197, 1676.366 281.197, 1676.367 291.197, 1676.367 301.197, 1676.367 311.197, 1676.367 321.197, 1676.367 331.197, 1676.367 341.197, 1676.367 351.197, 1676.367 361.197, 1676.367 371.197, 1676.367 381.197, 1676.367 391.197, 1676.367 401.197, 1676.367 411.197, 1676.367 421.197, 1676.367 431.197, 1676.367 441.197, 1676.367 451.197, 1676.367 461.197, 1676.367 471.197, 1676.367 481.197, 1676.367 488.884, 1676.368 491.608, 1676.368 494.300, 1676.368 496.953, 1676.368 499.557, 1676.368 502.103, 1676.368 504.584, 1676.368 506.990, 1676.368 509.314, 1676.368 519.314, 1676.368 529.314, 1676.368 539.314, 1676.368 549.314, 1676.368 559.314, 1676.368 569.314, 1676.368 579.314, 1676.368 589.314, 1676.368 599.314, 1676.368 609.314, 1676.368 619.314, 1676.368 629.314, 1676.368 639.314, 1676.368 649.314, 1676.368 659.314, 1676.368 669.314, 1676.368 673.170, 1676.368 675.887, 1676.368 678.536, 1676.368 681.111, 1676.368 683.603, 1676.368 686.004, 1676.368 688.307, 1676.368 690.506, 1676.368 692.664, 1676.272 " />
            <path fill="none" stroke-width="3.0" stroke-linecap="butt" stroke-opacity="1.0" stroke="rgb(0, 0, 0)" stroke-linejoin="round" d=" M 1491.086, 359.349 1490.625, 361.959 1490.036, 364.544 1489.318, 367.095 1488.474, 369.608 1487.505, 372.075 1486.415, 374.492 1485.206, 376.850 1483.880, 379.146 1482.442, 381.373 1480.895, 383.525 1479.242, 385.597 1477.489, 387.585 1475.637, 389.482 1473.695, 391.285 1471.664, 392.988 1469.551, 394.590 " />
            <path fill="none" stroke-width="3.0" stroke-linecap="butt" stroke-opacity="1.0" stroke="rgb(0, 0, 0)" stroke-linejoin="round" d=" M 1465.099, 397.465 1462.771, 398.733 1460.383, 399.883 1457.940, 400.912 1455.450, 401.818 1452.917, 402.600 1450.348, 403.254 " />
            <path fill="none" stroke-width="3.0" stroke-linecap="butt" stroke-opacity="1.0" stroke="rgb(0, 0, 0)" stroke-linejoin="round" d=" M 1450.348, 403.254 1447.750, 403.779 1445.129, 404.174 1442.491, 404.438 1439.844, 404.571 1437.193, 404.571 " />
            <path fill="none" stroke-width="3.0" stroke-linecap="butt" stroke-opacity="1.0" stroke="rgb(0, 0, 0)" stroke-linejoin="round" d=" M 1490.625, 340.892 1491.086, 343.502 1491.416, 346.133 1491.614, 348.776 1491.680, 351.426 1491.614, 354.076 1491.416, 356.719 1491.086, 359.349 " />
            <path fill="none" stroke-width="3.0" stroke-linecap="butt" stroke-opacity="1.0" stroke="rgb(0, 0, 0)" stroke-linejoin="round" d=" M 2688.518, 1163.669 2686.988, 1153.787 2685.458, 1143.905 2683.928, 1134.022 2682.398, 1124.140 2680.869, 1114.258 2679.339, 1104.375 2677.809, 1094.493 2676.279, 1084.611 2674.749, 1074.729 2673.219, 1064.846 2671.689, 1054.964 2670.159, 1045.082 2668.629, 1035.200 2667.100, 1025.317 2665.570, 1015.435 2664.040, 1005.553 2662.510, 995.670 2660.980, 985.788 2659.450, 975.906 2657.920, 966.024 2656.390, 956.141 2654.860, 946.259 2653.331, 936.377 2651.801, 926.494 2650.271, 916.612 2648.741, 906.730 2647.211, 896.848 2645.681, 886.965 2644.151, 877.083 2642.621, 867.201 2641.092, 857.318 2639.562, 847.436 2638.032, 837.554 2636.502, 827.672 2634.972, 817.789 2633.442, 807.907 2631.912, 798.025 2630.382, 788.143 2628.852, 778.260 2627.323, 768.378 2625.792, 758.496 2624.263, 748.613 2622.733, 738.731 2621.203, 728.849 2619.673, 718.967 2618.143, 709.084 2616.613, 699.202 2615.083, 689.320 2613.553, 679.438 2612.024, 669.555 2610.494, 659.673 2608.964, 649.791 2607.434, 639.908 2605.904, 630.026 2604.374, 620.144 2602.844, 610.261 2601.314, 600.379 2599.784, 590.497 2598.255, 580.615 2596.725, 570.732 2595.195, 560.850 2593.665, 550.968 2592.135, 541.086 2590.605, 531.203 2589.075, 521.321 2587.545, 511.439 2586.015, 501.556 2583.714, 486.689 2584.828, 476.751 2585.943, 466.814 2587.057, 456.876 2588.172, 446.938 2589.286, 437.001 2590.401, 427.063 2591.515, 417.125 2592.630, 407.188 2593.744, 397.250 2594.858, 387.312 2595.973, 377.374 2597.087, 367.437 2598.202, 357.499 2599.316, 347.561 2600.431, 337.624 2601.545, 327.686 2602.660, 317.748 2603.774, 307.811 2604.889, 297.873 2606.003, 287.935 2607.118, 277.997 2608.232, 268.060 2609.346, 258.122 2610.461, 248.184 2611.575, 238.247 2612.690, 228.309 2613.804, 218.371 2614.919, 208.433 2616.033, 198.496 2617.148, 188.558 2618.262, 178.620 2619.377, 168.683 2620.491, 158.745 2621.605, 148.807 2622.720, 138.870 2623.834, 128.932 2624.949, 118.994 2626.063, 109.056 2627.178, 99.119 2628.292, 89.181 2628.943, 83.376 2632.775, 74.140 2636.606, 64.903 2640.437, 55.666 2644.269, 46.429 2648.100, 37.192 2651.931, 27.955 2653.724, 23.632 2643.724, 23.632 2633.724, 23.632 2623.724, 23.632 2613.724, 23.632 2603.724, 23.632 2593.724, 23.632 2583.724, 23.632 2573.724, 23.632 2563.724, 23.632 2553.724, 23.632 2543.724, 23.632 2533.724, 23.632 2523.724, 23.632 2513.724, 23.632 2503.724, 23.632 2493.724, 23.632 2483.724, 23.632 2473.724, 23.632 2463.724, 23.632 2453.724, 23.632 2443.724, 23.632 2433.724, 23.632 2423.724, 23.632 2413.724, 23.632 2403.724, 23.632 2393.724, 23.632 2383.724, 23.632 2373.724, 23.632 2363.724, 23.632 2353.724, 23.632 2343.724, 23.632 2333.724, 23.632 2323.724, 23.632 2313.724, 23.632 2303.724, 23.632 2293.724, 23.632 2283.724, 23.632 2273.724, 23.632 2263.724, 23.632 2253.724, 23.632 2243.724, 23.632 2233.724, 23.632 2223.724, 23.632 2213.724, 23.632 2203.724, 23.632 2193.724, 23.632 2183.724, 23.632 2173.724, 23.632 2163.724, 23.632 2153.724, 23.632 2143.724, 23.632 2133.724, 23.632 2123.724, 23.632 2113.724, 23.632 2103.724, 23.632 2093.724, 23.632 2083.724, 23.632 2073.724, 23.632 2063.724, 23.632 2053.724, 23.632 2042.426, 23.632 2039.611, 23.632 2036.890, 23.632 2034.271, 23.632 2031.764, 23.632 2021.764, 23.632 2011.764, 23.632 2001.764, 23.632 1991.764, 23.632 1981.764, 23.632 1971.764, 23.632 1961.764, 23.632 1951.764, 23.632 1941.764, 23.632 1931.764, 23.632 1921.764, 23.632 1911.764, 23.632 1901.764, 23.632 1891.764, 23.632 1881.764, 23.632 1871.764, 23.632 1861.764, 23.632 1851.764, 23.632 1841.764, 23.632 1831.764, 23.632 1821.764, 23.632 1811.764, 23.632 1801.764, 23.632 1799.178, 23.632 1796.524, 23.632 1793.959, 23.632 1791.493, 23.632 1789.129, 23.632 1779.129, 23.632 1769.129, 23.632 1759.129, 23.632 1749.129, 23.632 1739.129, 23.632 1729.129, 23.632 1719.129, 23.632 1709.129, 23.632 1699.129, 23.632 1689.129, 23.632 1679.129, 23.632 1669.129, 23.632 1659.129, 23.632 1649.129, 23.632 1639.129, 23.632 1629.129, 23.632 1619.129, 23.632 1609.129, 23.632 1599.129, 23.632 1589.129, 23.632 1579.129, 23.632 1569.129, 23.632 1559.129, 23.632 1549.129, 23.632 1539.129, 23.632 1529.129, 23.632 1519.129, 23.632 1509.129, 23.632 1499.129, 23.632 1489.129, 23.632 1479.129, 23.632 1469.129, 23.632 1459.129, 23.632 1449.129, 23.632 1439.129, 23.632 1429.129, 23.632 1419.129, 23.632 1409.129, 23.632 1399.129, 23.632 1389.129, 23.632 1379.129, 23.632 1369.129, 23.632 1359.129, 23.632 1349.129, 23.632 1339.129, 23.632 1329.129, 23.632 1319.129, 23.632 1309.129, 23.632 1299.129, 23.632 1289.129, 23.632 1279.129, 23.632 1269.129, 23.632 1259.129, 23.632 1249.129, 23.632 1239.129, 23.632 1229.129, 23.632 1215.853, 23.632 1213.908, 23.632 1211.866, 23.632 1209.733, 23.632 1207.515, 23.632 1205.217, 23.632 1202.847, 23.632 1192.847, 23.632 1182.847, 23.632 1172.847, 23.632 1162.847, 23.632 1152.847, 23.632 1142.847, 23.632 1138.539, 23.632 1136.137, 23.632 1133.656, 23.632 1131.104, 23.632 1128.488, 23.632 1125.816, 23.632 1123.094, 23.632 1120.331, 23.632 1110.331, 23.632 1100.331, 23.632 1090.331, 23.632 1080.331, 23.632 1070.331, 23.632 1060.331, 23.632 1050.331, 23.632 1040.331, 23.632 1030.331, 23.632 1020.331, 23.632 1010.331, 23.632 1000.331, 23.632 990.331, 23.632 980.331, 23.632 970.331, 23.632 960.331, 23.632 950.331, 23.632 940.331, 23.632 930.331, 23.632 920.331, 23.632 910.331, 23.632 900.331, 23.632 890.331, 23.632 880.331, 23.632 870.331, 23.632 860.331, 23.632 850.331, 23.632 840.331, 23.632 830.331, 23.632 820.331, 23.632 810.331, 23.632 800.331, 23.632 790.331, 23.632 780.331, 23.632 770.331, 23.632 760.331, 23.632 750.331, 23.632 740.331, 23.632 730.331, 23.632 720.331, 23.632 710.331, 23.632 700.331, 23.632 690.331, 23.632 680.331, 23.632 670.331, 23.632 660.331, 23.632 654.682, 23.632 652.333, 23.632 649.910, 23.632 647.422, 23.632 644.877, 23.632 642.284, 23.632 632.284, 23.632 622.284, 23.632 612.284, 23.632 602.284, 23.632 592.284, 23.632 582.284, 23.632 572.284, 23.632 562.284, 23.632 552.284, 23.632 542.284, 23.632 532.284, 23.632 522.284, 23.632 512.284, 23.632 502.284, 23.632 492.284, 23.632 482.284, 23.632 472.284, 23.632 462.284, 23.632 452.284, 23.632 442.284, 23.632 432.284, 23.632 422.284, 23.632 412.284, 23.632 401.546, 23.632 400.032, 23.632 398.496, 23.632 388.496, 23.632 378.496, 23.632 368.496, 23.632 358.496, 23.632 348.496, 23.632 338.496, 23.632 328.496, 23.632 318.496, 23.632 308.496, 23.632 298.496, 23.632 288.496, 23.632 281.002, 23.632 280.141, 23.632 279.250, 23.632 278.333, 23.632 277.393, 23.632 276.435, 23.632 275.462, 23.632 274.479, 23.632 273.488, 23.632 272.493, 23.632 271.496, 23.632 270.505, 23.632 260.505, 23.632 250.505, 23.632 240.505, 23.632 230.505, 23.632 220.505, 23.632 210.505, 23.632 200.505, 23.632 190.505, 23.632 180.505, 23.632 170.505, 23.632 162.173, 23.632 159.468, 33.259 156.763, 42.886 154.058, 52.513 151.353, 62.141 148.648, 71.768 145.943, 81.395 143.238, 91.022 140.533, 100.649 137.828, 110.277 135.123, 119.904 132.418, 129.531 129.713, 139.158 127.009, 148.785 124.304, 158.413 122.324, 165.458 121.246, 175.399 120.167, 185.341 119.089, 195.282 118.011, 205.224 116.932, 215.166 115.854, 225.108 114.775, 235.049 113.697, 244.991 112.619, 254.933 111.540, 264.874 110.462, 274.816 109.383, 284.758 108.305, 294.699 107.227, 304.641 106.148, 314.583 105.070, 324.524 103.991, 334.466 102.913, 344.408 101.835, 354.349 100.756, 364.291 99.678, 374.233 98.599, 384.174 97.521, 394.116 96.443, 404.058 95.364, 414.000 94.286, 423.941 93.207, 433.883 92.129, 443.825 91.437, 450.200 92.171, 460.173 92.904, 470.146 93.637, 480.120 94.371, 490.093 95.104, 500.066 95.837, 510.039 96.570, 520.012 97.304, 529.985 98.037, 539.958 98.770, 549.931 99.504, 559.904 100.237, 569.877 100.970, 579.850 101.703, 589.823 102.437, 599.797 103.170, 609.770 103.903, 619.743 104.637, 629.716 105.370, 639.689 106.103, 649.662 106.836, 659.635 107.570, 669.608 108.303, 679.581 109.036, 689.554 109.770, 699.527 110.503, 709.500 111.236, 719.473 111.969, 729.447 112.703, 739.420 113.436, 749.393 114.169, 759.366 114.903, 769.339 115.636, 779.312 116.369, 789.285 117.102, 799.258 117.836, 809.231 118.569, 819.204 119.302, 829.177 119.804, 836.002 " />
            <path fill="none" stroke-width="3.0" stroke-linecap="butt" stroke-opacity="1.0" stroke="rgb(0, 0, 0)" stroke-linejoin="round" d=" M 1490.036, 338.308 1490.625, 340.892 " />
            <path fill="none" stroke-width="3.0" stroke-linecap="butt" stroke-opacity="1.0" stroke="rgb(0, 0, 0)" stroke-linejoin="round" d=" M 1434.546, 404.438 1431.908, 404.174 1429.287, 403.779 1426.689, 403.254 1424.120, 402.600 1421.587, 401.818 1419.096, 400.912 1416.654, 399.883 1414.266, 398.733 1411.938, 397.465 1409.676, 396.082 1407.486, 394.590 " />
            <path fill="none" stroke-width="3.0" stroke-linecap="butt" stroke-opacity="1.0" stroke="rgb(0, 0, 0)" stroke-linejoin="round" d=" M 1489.318, 335.756 1490.036, 338.308 " />
            <path fill="none" stroke-width="3.0" stroke-linecap="butt" stroke-opacity="1.0" stroke="rgb(0, 0, 0)" stroke-linejoin="round" d=" M 1488.474, 333.244 1489.318, 335.756 " />
            <path fill="none" stroke-width="3.0" stroke-linecap="butt" stroke-opacity="1.0" stroke="rgb(0, 0, 0)" stroke-linejoin="round" d=" M 1483.880, 323.705 1485.206, 326.001 1486.415, 328.360 1487.505, 330.776 1488.474, 333.244 " />
            <path fill="none" stroke-width="3.0" stroke-linecap="butt" stroke-opacity="1.0" stroke="rgb(0, 0, 0)" stroke-linejoin="round" d=" M 1469.551, 308.262 1471.664, 309.863 1473.695, 311.567 1475.637, 313.369 1477.489, 315.267 1479.242, 317.255 1480.895, 319.327 1482.442, 321.479 1483.880, 323.705 " />
            <path fill="none" stroke-width="3.0" stroke-linecap="butt" stroke-opacity="1.0" stroke="rgb(0, 0, 0)" stroke-linejoin="round" d=" M 1455.450, 301.033 1457.940, 301.939 1460.383, 302.969 1462.771, 304.119 1465.099, 305.387 1467.361, 306.769 1469.551, 308.262 " />
            <path fill="none" stroke-width="3.0" stroke-linecap="butt" stroke-opacity="1.0" stroke="rgb(0, 0, 0)" stroke-linejoin="round" d=" M 1424.120, 300.252 1426.689, 299.597 1429.287, 299.072 1431.908, 298.677 1434.546, 298.413 1437.193, 298.281 1439.844, 298.281 1442.491, 298.413 1445.129, 298.677 1447.750, 299.072 1450.348, 299.597 1452.917, 300.252 1455.450, 301.033 " />
            <path fill="none" stroke-width="3.0" stroke-linecap="butt" stroke-opacity="1.0" stroke="rgb(0, 0, 0)" stroke-linejoin="round" d=" M 1401.399, 389.482 1399.548, 387.585 1397.794, 385.597 1396.142, 383.525 1394.594, 381.373 1393.156, 379.146 " />
            <path fill="none" stroke-width="3.0" stroke-linecap="butt" stroke-opacity="1.0" stroke="rgb(0, 0, 0)" stroke-linejoin="round" d=" M 1391.831, 376.850 1390.622, 374.492 1389.531, 372.075 1388.563, 369.608 1387.719, 367.095 1387.001, 364.544 1386.411, 361.959 1385.951, 359.349 1385.621, 356.719 " />
            <path fill="none" stroke-width="3.0" stroke-linecap="butt" stroke-opacity="1.0" stroke="rgb(0, 0, 0)" stroke-linejoin="round" d=" M 1385.423, 348.776 1385.621, 346.133 " />
            <path fill="none" stroke-width="3.0" stroke-linecap="butt" stroke-opacity="1.0" stroke="rgb(0, 0, 0)" stroke-linejoin="round" d=" M 1385.621, 346.133 1385.951, 343.502 " />
            <path fill="none" stroke-width="3.0" stroke-linecap="butt" stroke-opacity="1.0" stroke="rgb(0, 0, 0)" stroke-linejoin="round" d=" M 1385.951, 343.502 1386.411, 340.892 " />
            <path fill="none" stroke-width="3.0" stroke-linecap="butt" stroke-opacity="1.0" stroke="rgb(0, 0, 0)" stroke-linejoin="round" d=" M 1386.411, 340.892 1387.001, 338.308 1387.719, 335.756 1388.563, 333.244 1389.531, 330.776 " />
            <path fill="none" stroke-width="3.0" stroke-linecap="butt" stroke-opacity="1.0" stroke="rgb(0, 0, 0)" stroke-linejoin="round" d=" M 117.423, 950.607 116.233, 960.536 115.043, 970.465 113.854, 980.394 112.664, 990.323 111.474, 1000.252 110.284, 1010.181 109.095, 1020.110 107.905, 1030.039 106.715, 1039.968 105.526, 1049.897 104.336, 1059.826 103.146, 1069.755 101.957, 1079.684 100.767, 1089.613 99.577, 1099.542 98.388, 1109.471 97.198, 1119.400 96.008, 1129.329 94.819, 1139.258 93.629, 1149.187 92.439, 1159.116 91.250, 1169.045 90.060, 1178.974 88.870, 1188.903 87.681, 1198.832 86.491, 1208.761 85.301, 1218.690 84.112, 1228.619 82.922, 1238.548 81.732, 1248.477 80.542, 1258.405 79.353, 1268.334 78.163, 1278.263 76.973, 1288.192 75.784, 1298.121 74.594, 1308.050 73.404, 1317.979 72.215, 1327.908 71.025, 1337.837 69.835, 1347.766 68.646, 1357.695 67.456, 1367.624 66.266, 1377.553 65.077, 1387.482 63.887, 1397.411 62.697, 1407.340 61.508, 1417.269 60.318, 1427.198 59.128, 1437.127 57.939, 1447.056 56.749, 1456.985 55.559, 1466.914 54.369, 1476.843 53.180, 1486.772 51.990, 1496.701 50.800, 1506.630 49.611, 1516.559 48.421, 1526.488 47.231, 1536.417 46.042, 1546.346 44.852, 1556.275 43.662, 1566.204 42.473, 1576.133 41.283, 1586.062 39.807, 1598.378 37.761, 1608.166 35.714, 1617.954 33.668, 1627.743 31.622, 1637.531 29.575, 1647.320 27.529, 1657.108 25.482, 1666.896 23.503, 1676.365 " />
            <path fill="none" stroke-width="3.0" stroke-linecap="butt" stroke-opacity="1.0" stroke="rgb(0, 0, 0)" stroke-linejoin="round" d=" M 1389.531, 330.776 1390.622, 328.360 1391.831, 326.001 1393.156, 323.705 " />
            <path fill="none" stroke-width="3.0" stroke-linecap="butt" stroke-opacity="1.0" stroke="rgb(0, 0, 0)" stroke-linejoin="round" d=" M 1393.156, 323.705 1394.594, 321.479 " />
            <path fill="none" stroke-width="3.0" stroke-linecap="butt" stroke-opacity="1.0" stroke="rgb(0, 0, 0)" stroke-linejoin="round" d=" M 1394.594, 321.479 1396.142, 319.327 " />
            <path fill="none" stroke-width="3.0" stroke-linecap="butt" stroke-opacity="1.0" stroke="rgb(0, 0, 0)" stroke-linejoin="round" d=" M 1396.142, 319.327 1397.794, 317.255 1399.548, 315.267 1401.399, 313.369 1403.343, 311.567 " />
            <path fill="none" stroke-width="3.0" stroke-linecap="butt" stroke-opacity="1.0" stroke="rgb(0, 0, 0)" stroke-linejoin="round" d=" M 1403.343, 311.567 1405.373, 309.863 1407.486, 308.262 1409.676, 306.769 1411.938, 305.387 1414.266, 304.119 1416.654, 302.969 1419.096, 301.939 1421.587, 301.033 1424.120, 300.252 " />
            <path fill="none" stroke-width="3.0" stroke-linecap="butt" stroke-opacity="1.0" stroke="rgb(0, 0, 0)" stroke-linejoin="round" d=" M 1216.665, 1676.371 1214.749, 1676.371 1212.122, 1676.371 1206.852, 1676.371 1201.672, 1676.371 1191.672, 1676.371 1181.672, 1676.371 1171.672, 1676.371 1161.672, 1676.371 1151.672, 1676.371 1141.672, 1676.371 1131.672, 1676.371 1121.672, 1676.371 1111.672, 1676.371 1101.672, 1676.371 1091.672, 1676.371 1081.672, 1676.371 1071.672, 1676.370 1061.672, 1676.370 1051.672, 1676.370 1041.672, 1676.370 1031.672, 1676.370 1021.672, 1676.370 1011.672, 1676.370 1001.672, 1676.370 991.672, 1676.370 981.672, 1676.370 971.672, 1676.370 961.672, 1676.370 951.672, 1676.370 941.672, 1676.370 931.672, 1676.370 921.672, 1676.370 911.672, 1676.370 901.672, 1676.370 891.672, 1676.370 881.672, 1676.370 871.672, 1676.370 861.672, 1676.370 851.672, 1676.370 841.672, 1676.369 831.672, 1676.369 821.672, 1676.369 811.672, 1676.369 801.672, 1676.369 791.672, 1676.369 781.672, 1676.369 771.672, 1676.369 761.672, 1676.369 751.672, 1676.369 741.672, 1676.369 731.672, 1676.369 718.720, 1676.369 715.716, 1676.369 714.570, 1676.369 712.525, 1676.368 " />
            <path fill="none" stroke-width="3.0" stroke-linecap="butt" stroke-opacity="1.0" stroke="rgb(0, 0, 0)" stroke-linejoin="round" d=" M 1152.591, 678.878 1150.072, 681.460 1147.427, 683.914 1144.663, 686.234 1141.787, 688.412 1138.807, 690.445 1135.728, 692.326 1132.559, 694.051 1129.308, 695.617 1125.984, 697.018 1122.594, 698.252 1119.146, 699.315 1115.650, 700.205 1112.114, 700.921 1108.546, 701.458 1104.956, 701.818 1101.352, 701.997 1097.745, 701.997 1094.141, 701.818 1090.551, 701.458 1086.984, 700.921 1083.447, 700.205 1079.951, 699.315 1076.503, 698.252 1073.113, 697.018 1069.788, 695.617 1066.538, 694.051 1063.369, 692.326 1060.291, 690.445 1057.310, 688.412 1054.434, 686.234 1051.670, 683.914 1049.025, 681.460 1046.506, 678.878 1044.119, 676.172 1041.870, 673.351 1039.763, 670.423 1037.806, 667.391 1036.002, 664.267 1034.356, 661.056 1032.872, 657.769 1031.554, 654.410 1030.405, 650.990 1029.428, 647.516 1028.625, 643.999 1027.998, 640.446 1027.550, 636.866 1027.280, 633.268 1027.190, 629.661 1027.280, 626.055 1027.550, 622.456 1027.998, 618.877 1028.625, 615.324 1029.428, 611.807 1030.405, 608.333 1031.554, 604.913 1032.872, 601.555 1034.356, 598.266 1036.002, 595.056 1037.806, 591.931 1039.763, 588.900 1041.870, 585.971 1044.119, 583.150 1046.506, 580.446 1049.025, 577.863 1051.670, 575.408 1054.434, 573.089 1057.310, 570.911 1060.291, 568.879 1063.369, 566.997 1066.538, 565.272 1069.788, 563.707 1073.113, 562.305 1076.503, 561.071 1079.951, 560.008 1083.447, 559.117 1086.984, 558.402 1090.551, 557.864 1094.141, 557.505 1097.745, 557.325 1101.352, 557.325 1104.956, 557.505 1108.546, 557.864 1112.114, 558.402 1115.650, 559.117 1119.146, 560.008 1122.594, 561.071 1125.984, 562.305 1129.308, 563.707 1132.559, 565.272 1135.728, 566.997 1138.807, 568.879 1141.787, 570.911 1144.663, 573.089 1147.427, 575.408 1150.072, 577.863 1152.591, 580.446 1154.978, 583.150 1157.228, 585.971 1159.334, 588.900 1161.291, 591.931 1163.095, 595.056 1164.741, 598.266 1166.225, 601.555 1167.543, 604.913 1168.692, 608.333 1169.669, 611.807 1170.473, 615.324 1171.099, 618.877 1171.547, 622.456 1171.817, 626.055 1171.907, 629.661 1171.817, 633.268 1171.547, 636.866 1171.099, 640.446 1170.473, 643.999 1169.669, 647.516 1168.692, 650.990 1167.543, 654.410 1166.225, 657.769 1164.741, 661.056 1163.095, 664.267 1161.291, 667.391 1159.334, 670.423 1157.228, 673.351 1154.978, 676.172 1152.591, 678.878 " />
            <path fill="none" stroke-width="3.0" stroke-linecap="butt" stroke-opacity="1.0" stroke="rgb(0, 0, 0)" stroke-linejoin="round" d=" M 1216.665, 1676.371 1226.665, 1676.371 1236.665, 1676.371 1246.665, 1676.371 1256.665, 1676.371 1266.665, 1676.371 1276.665, 1676.371 1286.665, 1676.371 1296.665, 1676.371 1306.665, 1676.371 1316.665, 1676.372 1326.665, 1676.372 1336.665, 1676.372 1346.665, 1676.372 1356.665, 1676.372 1366.665, 1676.372 1376.665, 1676.372 1386.665, 1676.372 1396.665, 1676.372 1406.665, 1676.372 1416.665, 1676.372 1426.665, 1676.372 1436.665, 1676.372 1446.665, 1676.372 1456.665, 1676.372 1466.665, 1676.372 1476.665, 1676.372 1486.665, 1676.372 1496.665, 1676.372 1506.665, 1676.372 1516.665, 1676.372 1526.665, 1676.373 1536.665, 1676.373 1546.665, 1676.373 1556.665, 1676.373 1566.665, 1676.373 1576.665, 1676.373 1586.665, 1676.373 1596.665, 1676.373 1606.665, 1676.373 1616.665, 1676.373 1626.665, 1676.373 1636.665, 1676.373 1646.665, 1676.373 1656.665, 1676.373 1666.665, 1676.373 1676.665, 1676.373 1686.665, 1676.373 1696.665, 1676.373 1706.665, 1676.373 1716.665, 1676.373 1726.665, 1676.373 1736.665, 1676.374 1746.665, 1676.374 1756.665, 1676.374 1766.665, 1676.374 1776.665, 1676.374 1786.665, 1676.374 1796.665, 1676.374 1806.665, 1676.374 1816.665, 1676.374 1826.665, 1676.374 1836.665, 1676.374 1846.665, 1676.374 1856.665, 1676.374 1866.665, 1676.374 1876.665, 1676.374 1886.665, 1676.374 1896.665, 1676.374 1906.665, 1676.374 1916.665, 1676.374 1926.665, 1676.374 1936.665, 1676.374 1946.665, 1676.375 1956.665, 1676.375 1966.665, 1676.375 1976.665, 1676.375 1986.665, 1676.375 1996.665, 1676.375 2006.665, 1676.375 2016.665, 1676.375 2026.665, 1676.375 2036.665, 1676.375 2046.665, 1676.375 2056.665, 1676.375 2066.665, 1676.375 2076.665, 1676.375 2086.665, 1676.375 2096.665, 1676.375 2106.665, 1676.375 2116.665, 1676.375 2126.665, 1676.375 2136.665, 1676.375 2146.665, 1676.375 2156.665, 1676.375 2166.665, 1676.376 2176.665, 1676.376 2186.665, 1676.376 2196.665, 1676.376 2206.665, 1676.376 2216.665, 1676.376 2226.665, 1676.376 2236.665, 1676.376 2246.665, 1676.376 2256.665, 1676.376 2266.665, 1676.376 2276.665, 1676.376 2286.665, 1676.376 2296.665, 1676.376 2306.665, 1676.376 2316.665, 1676.376 2326.665, 1676.376 2336.665, 1676.376 2346.665, 1676.376 2356.665, 1676.376 2366.665, 1676.376 2376.665, 1676.377 2386.665, 1676.377 2396.665, 1676.377 2406.665, 1676.377 2416.665, 1676.377 2426.665, 1676.377 2436.665, 1676.377 2446.665, 1676.377 2456.665, 1676.377 2466.665, 1676.377 2476.665, 1676.377 2486.665, 1676.377 2496.665, 1676.377 2506.665, 1676.377 2516.665, 1676.377 2526.665, 1676.377 2536.665, 1676.377 2554.902, 1676.377 " />
            <path fill="none" stroke-width="3.0" stroke-linecap="butt" stroke-opacity="1.0" stroke="rgb(0, 0, 0)" stroke-linejoin="round" d=" M 715.716, 1676.369 725.716, 1676.369 735.716, 1676.369 745.716, 1676.369 755.716, 1676.369 765.716, 1676.369 775.716, 1676.369 785.716, 1676.369 795.716, 1676.369 805.716, 1676.369 815.716, 1676.369 825.716, 1676.369 835.716, 1676.369 845.716, 1676.370 855.716, 1676.370 865.716, 1676.370 875.716, 1676.370 885.716, 1676.370 895.716, 1676.370 905.716, 1676.370 915.716, 1676.370 925.716, 1676.370 935.716, 1676.370 945.716, 1676.370 955.716, 1676.370 965.716, 1676.370 975.716, 1676.370 985.716, 1676.370 995.716, 1676.370 1005.716, 1676.370 1015.716, 1676.370 1025.716, 1676.370 1035.716, 1676.370 1045.716, 1676.370 1055.716, 1676.370 1065.716, 1676.371 1075.716, 1676.371 1085.716, 1676.371 1095.716, 1676.371 1105.716, 1676.371 1115.716, 1676.371 1125.716, 1676.371 1135.716, 1676.371 1145.716, 1676.371 1155.716, 1676.371 1165.716, 1676.371 1175.716, 1676.371 1185.716, 1676.371 1195.716, 1676.371 1205.716, 1676.371 1215.716, 1676.371 1225.716, 1676.371 1235.716, 1676.371 1245.716, 1676.371 1255.716, 1676.371 1265.716, 1676.371 1275.716, 1676.372 1285.716, 1676.372 1295.716, 1676.372 1305.716, 1676.372 1315.716, 1676.372 1325.716, 1676.372 1335.716, 1676.372 1345.716, 1676.372 1355.716, 1676.372 1365.716, 1676.372 1375.716, 1676.372 1385.716, 1676.372 1395.716, 1676.372 1405.716, 1676.372 1415.716, 1676.372 1425.716, 1676.372 1435.716, 1676.372 1445.716, 1676.372 1455.716, 1676.372 1465.716, 1676.372 1475.716, 1676.372 1485.716, 1676.372 1495.716, 1676.373 1505.716, 1676.373 1515.716, 1676.373 1525.716, 1676.373 1535.716, 1676.373 1545.716, 1676.373 1555.716, 1676.373 1565.716, 1676.373 1575.716, 1676.373 1585.716, 1676.373 1595.716, 1676.373 1605.716, 1676.373 1615.716, 1676.373 1625.716, 1676.373 1635.716, 1676.373 1645.716, 1676.373 1655.716, 1676.373 1665.716, 1676.373 1675.716, 1676.373 1685.716, 1676.373 1695.716, 1676.373 1705.716, 1676.373 1715.716, 1676.374 1725.716, 1676.374 1735.716, 1676.374 1745.716, 1676.374 1755.716, 1676.374 1765.716, 1676.374 1775.716, 1676.374 1785.716, 1676.374 1795.716, 1676.374 1805.716, 1676.374 1815.716, 1676.374 1825.716, 1676.374 1835.716, 1676.374 1845.716, 1676.374 1855.716, 1676.374 1865.716, 1676.374 1875.716, 1676.374 1885.716, 1676.374 1895.716, 1676.374 1905.716, 1676.374 1915.716, 1676.374 1925.716, 1676.374 1935.716, 1676.375 1945.716, 1676.375 1955.716, 1676.375 1965.716, 1676.375 1975.716, 1676.375 1985.716, 1676.375 1995.716, 1676.375 2005.716, 1676.375 2015.716, 1676.375 2025.716, 1676.375 2035.716, 1676.375 2045.716, 1676.375 2055.716, 1676.375 2065.716, 1676.375 2075.716, 1676.375 2085.716, 1676.375 2095.716, 1676.375 2105.716, 1676.375 2115.716, 1676.375 2125.716, 1676.375 2135.716, 1676.375 2145.716, 1676.375 2155.716, 1676.376 2165.716, 1676.376 2175.716, 1676.376 2185.716, 1676.376 2195.716, 1676.376 2205.716, 1676.376 2215.716, 1676.376 2225.716, 1676.376 2235.716, 1676.376 2245.716, 1676.376 2255.716, 1676.376 2265.716, 1676.376 2275.716, 1676.376 2285.716, 1676.376 2295.716, 1676.376 2305.716, 1676.376 2315.716, 1676.376 2325.716, 1676.376 2335.716, 1676.376 2345.716, 1676.376 2355.716, 1676.376 2365.716, 1676.377 2375.716, 1676.377 2385.716, 1676.377 2395.716, 1676.377 2405.716, 1676.377 2415.716, 1676.377 2425.716, 1676.377 2435.716, 1676.377 2445.716, 1676.377 2455.716, 1676.377 2465.716, 1676.377 2475.716, 1676.377 2485.716, 1676.377 2495.716, 1676.377 2505.716, 1676.377 2515.716, 1676.377 2525.716, 1676.377 2535.716, 1676.377 2554.902, 1676.377 " />
            <path fill="none" stroke-width="3.0" stroke-linecap="butt" stroke-opacity="1.0" stroke="rgb(0, 0, 0)" stroke-linejoin="round" d=" M 119.804, 836.002 119.596, 845.999 119.389, 855.997 119.181, 865.995 118.973, 875.993 118.765, 885.991 118.558, 895.989 118.350, 905.986 118.142, 915.984 117.934, 925.982 117.727, 935.980 117.519, 945.978 117.423, 950.607 " />
            <path fill="none" stroke-width="3.0" stroke-linecap="butt" stroke-opacity="1.0" stroke="rgb(0, 0, 0)" stroke-linejoin="round" d=" M 1385.423, 354.076 1385.357, 351.426 " />
            <path fill="none" stroke-width="3.0" stroke-linecap="butt" stroke-opacity="1.0" stroke="rgb(0, 0, 0)" stroke-linejoin="round" d=" M 1385.357, 351.426 1385.423, 348.776 " />
            <path fill="none" stroke-width="3.0" stroke-linecap="butt" stroke-opacity="1.0" stroke="rgb(0, 0, 0)" stroke-linejoin="round" d=" M 1385.621, 356.719 1385.423, 354.076 " />
            <path fill="none" stroke-width="3.0" stroke-linecap="butt" stroke-opacity="1.0" stroke="rgb(0, 0, 0)" stroke-linejoin="round" d=" M 1393.156, 379.146 1391.831, 376.850 " />
            <path fill="none" stroke-width="3.0" stroke-linecap="butt" stroke-opacity="1.0" stroke="rgb(0, 0, 0)" stroke-linejoin="round" d=" M 1403.343, 391.285 1401.399, 389.482 " />
            <path fill="none" stroke-width="3.0" stroke-linecap="butt" stroke-opacity="1.0" stroke="rgb(0, 0, 0)" stroke-linejoin="round" d=" M 1405.373, 392.988 1403.343, 391.285 " />
            <path fill="none" stroke-width="3.0" stroke-linecap="butt" stroke-opacity="1.0" stroke="rgb(0, 0, 0)" stroke-linejoin="round" d=" M 1407.486, 394.590 1405.373, 392.988 " />
            <path fill="none" stroke-width="3.0" stroke-linecap="butt" stroke-opacity="1.0" stroke="rgb(0, 0, 0)" stroke-linejoin="round" d=" M 1437.193, 404.571 1434.546, 404.438 " />
            <path fill="none" stroke-width="3.0" stroke-linecap="butt" stroke-opacity="1.0" stroke="rgb(0, 0, 0)" stroke-linejoin="round" d=" M 1467.361, 396.082 1465.099, 397.465 " />
            <path fill="none" stroke-width="3.0" stroke-linecap="butt" stroke-opacity="1.0" stroke="rgb(0, 0, 0)" stroke-linejoin="round" d=" M 1469.551, 394.590 1467.361, 396.082 " />
            <path fill="none" stroke-width="3.0" stroke-linecap="butt" stroke-opacity="1.0" stroke="rgb(0, 0, 0)" stroke-linejoin="round" d=" M 23.503, 1676.365 33.503, 1676.365 43.503, 1676.366 53.503, 1676.366 63.503, 1676.366 73.503, 1676.366 83.503, 1676.366 93.503, 1676.366 103.503, 1676.366 113.503, 1676.366 123.503, 1676.366 133.503, 1676.366 143.503, 1676.366 153.503, 1676.366 163.503, 1676.366 173.503, 1676.366 183.503, 1676.366 193.503, 1676.366 203.503, 1676.366 213.503, 1676.366 223.503, 1676.366 233.503, 1676.366 243.503, 1676.366 253.503, 1676.366 263.503, 1676.367 273.503, 1676.367 283.503, 1676.367 293.503, 1676.367 303.503, 1676.367 313.503, 1676.367 323.503, 1676.367 333.503, 1676.367 343.503, 1676.367 353.503, 1676.367 363.503, 1676.367 373.503, 1676.367 383.503, 1676.367 393.503, 1676.367 403.503, 1676.367 413.503, 1676.367 423.503, 1676.367 433.503, 1676.367 443.503, 1676.367 453.503, 1676.367 463.503, 1676.367 473.503, 1676.368 483.503, 1676.368 493.503, 1676.368 503.503, 1676.368 513.503, 1676.368 523.503, 1676.368 533.503, 1676.368 543.503, 1676.368 553.503, 1676.368 563.503, 1676.368 573.503, 1676.368 583.503, 1676.368 593.503, 1676.368 603.503, 1676.368 613.503, 1676.368 623.503, 1676.368 633.503, 1676.368 643.503, 1676.368 653.503, 1676.368 663.503, 1676.368 673.503, 1676.368 683.503, 1676.369 693.503, 1676.369 703.503, 1676.369 714.570, 1676.369 724.570, 1676.369 734.570, 1676.369 744.570, 1676.369 754.570, 1676.369 764.570, 1676.369 774.570, 1676.369 784.570, 1676.369 794.570, 1676.369 804.570, 1676.369 814.570, 1676.369 824.570, 1676.369 834.570, 1676.369 844.570, 1676.369 854.570, 1676.369 864.570, 1676.369 874.570, 1676.369 884.570, 1676.369 894.570, 1676.370 904.570, 1676.370 914.570, 1676.370 924.570, 1676.370 934.570, 1676.370 944.570, 1676.370 954.570, 1676.370 964.570, 1676.370 974.570, 1676.370 984.570, 1676.370 994.570, 1676.370 1004.570, 1676.370 1014.570, 1676.370 1024.570, 1676.370 1034.570, 1676.370 1044.570, 1676.370 1054.570, 1676.370 1064.570, 1676.370 1074.570, 1676.370 1084.570, 1676.370 1094.570, 1676.370 1104.570, 1676.371 1114.570, 1676.371 1124.570, 1676.371 1134.570, 1676.371 1144.570, 1676.371 1154.570, 1676.371 1164.570, 1676.371 1174.570, 1676.371 1184.570, 1676.371 1194.570, 1676.371 1204.570, 1676.371 1214.749, 1676.371 1224.749, 1676.371 1234.749, 1676.371 1244.749, 1676.371 1254.749, 1676.371 1264.749, 1676.371 1274.749, 1676.371 1284.749, 1676.371 1294.749, 1676.371 1304.749, 1676.371 1314.749, 1676.372 1324.749, 1676.372 1334.749, 1676.372 1344.749, 1676.372 1354.749, 1676.372 1364.749, 1676.372 1374.749, 1676.372 1384.749, 1676.372 1394.749, 1676.372 1404.749, 1676.372 1414.749, 1676.372 1424.749, 1676.372 1434.749, 1676.372 1444.749, 1676.372 1454.749, 1676.372 1464.749, 1676.372 1474.749, 1676.372 1484.749, 1676.372 1494.749, 1676.372 1504.749, 1676.372 1514.749, 1676.372 1524.749, 1676.373 1534.749, 1676.373 1544.749, 1676.373 1554.749, 1676.373 1564.749, 1676.373 1574.749, 1676.373 1584.749, 1676.373 1594.749, 1676.373 1604.749, 1676.373 1614.749, 1676.373 1624.749, 1676.373 1634.749, 1676.373 1644.749, 1676.373 1654.749, 1676.373 1664.749, 1676.373 1674.749, 1676.373 1684.749, 1676.373 1694.749, 1676.373 1704.749, 1676.373 1714.749, 1676.373 1724.749, 1676.373 1734.749, 1676.374 1744.749, 1676.374 1754.749, 1676.374 1764.749, 1676.374 1774.749, 1676.374 1784.749, 1676.374 1794.749, 1676.374 1804.749, 1676.374 1814.749, 1676.374 1824.749, 1676.374 1834.749, 1676.374 1844.749, 1676.374 1854.749, 1676.374 1864.749, 1676.374 1874.749, 1676.374 1884.749, 1676.374 1894.749, 1676.374 1904.749, 1676.374 1914.749, 1676.374 1924.749, 1676.374 1934.749, 1676.374 1944.749, 1676.374 1954.749, 1676.375 1964.749, 1676.375 1974.749, 1676.375 1984.749, 1676.375 1994.749, 1676.375 2004.749, 1676.375 2014.749, 1676.375 2024.749, 1676.375 2034.749, 1676.375 2044.749, 1676.375 2054.749, 1676.375 2064.749, 1676.375 2074.749, 1676.375 2084.749, 1676.375 2094.749, 1676.375 2104.749, 1676.375 2114.749, 1676.375 2124.749, 1676.375 2134.749, 1676.375 2144.749, 1676.375 2154.749, 1676.375 2164.749, 1676.376 2174.749, 1676.376 2184.749, 1676.376 2194.749, 1676.376 2204.749, 1676.376 2214.749, 1676.376 2224.749, 1676.376 2234.749, 1676.376 2244.749, 1676.376 2254.749, 1676.376 2264.749, 1676.376 2274.749, 1676.376 2284.749, 1676.376 2294.749, 1676.376 2304.749, 1676.376 2314.749, 1676.376 2324.749, 1676.376 2334.749, 1676.376 2344.749, 1676.376 2354.749, 1676.376 2364.749, 1676.376 2374.749, 1676.377 2384.749, 1676.377 2394.749, 1676.377 2404.749, 1676.377 2414.749, 1676.377 2424.749, 1676.377 2434.749, 1676.377 2444.749, 1676.377 2454.749, 1676.377 2464.749, 1676.377 2474.749, 1676.377 2484.749, 1676.377 2494.749, 1676.377 2504.749, 1676.377 2514.749, 1676.377 2524.749, 1676.377 2534.749, 1676.377 2554.902, 1676.377 " />
            <path fill="none" stroke-width="3.0" stroke-linecap="butt" stroke-opacity="1.0" stroke="rgb(0, 0, 0)" stroke-linejoin="round" d=" M 1269.396, 1676.371 1279.396, 1676.371 1289.396, 1676.371 1299.396, 1676.371 1309.396, 1676.371 1319.396, 1676.371 1329.396, 1676.371 1339.396, 1676.371 1349.396, 1676.371 1359.396, 1676.371 1369.396, 1676.372 1379.396, 1676.372 1389.396, 1676.372 1399.396, 1676.372 1409.396, 1676.372 1419.396, 1676.372 1429.396, 1676.372 1439.396, 1676.372 1449.396, 1676.372 1459.396, 1676.372 1469.396, 1676.372 1479.396, 1676.372 1489.396, 1676.372 1499.396, 1676.372 1509.396, 1676.372 1519.396, 1676.372 1529.396, 1676.372 1539.396, 1676.372 1549.396, 1676.372 1559.396, 1676.372 1569.396, 1676.373 1579.396, 1676.373 1589.396, 1676.373 1599.396, 1676.373 1609.396, 1676.373 1619.396, 1676.373 1629.396, 1676.373 1639.396, 1676.373 1649.396, 1676.373 1659.396, 1676.373 1669.396, 1676.373 1679.396, 1676.373 1689.396, 1676.373 1699.396, 1676.373 1709.396, 1676.373 1719.396, 1676.373 1729.396, 1676.373 1739.396, 1676.373 1749.396, 1676.373 1759.396, 1676.373 1769.396, 1676.374 1779.396, 1676.374 1789.396, 1676.374 1799.396, 1676.374 1809.396, 1676.374 1819.396, 1676.374 1829.396, 1676.374 1839.396, 1676.374 1849.396, 1676.374 1859.396, 1676.374 1869.396, 1676.374 1879.396, 1676.374 1889.396, 1676.374 1899.396, 1676.374 1909.396, 1676.374 1919.396, 1676.374 1929.396, 1676.374 1939.396, 1676.374 1949.396, 1676.374 1959.396, 1676.374 1969.396, 1676.374 1979.396, 1676.375 1989.396, 1676.375 1999.396, 1676.375 2009.396, 1676.375 2019.396, 1676.375 2029.396, 1676.375 2039.396, 1676.375 2049.396, 1676.375 2059.396, 1676.375 2069.396, 1676.375 2079.396, 1676.375 2089.396, 1676.375 2099.396, 1676.375 2109.396, 1676.375 2119.396, 1676.375 2129.396, 1676.375 2139.396, 1676.375 2149.396, 1676.375 2159.396, 1676.375 2169.396, 1676.375 2179.396, 1676.376 2189.396, 1676.376 2199.396, 1676.376 2209.396, 1676.376 2219.396, 1676.376 2229.396, 1676.376 2239.396, 1676.376 2249.396, 1676.376 2259.396, 1676.376 2269.396, 1676.376 2279.396, 1676.376 2289.396, 1676.376 2299.396, 1676.376 2309.396, 1676.376 2319.396, 1676.376 2329.396, 1676.376 2339.396, 1676.376 2349.396, 1676.376 2359.396, 1676.376 2369.396, 1676.376 2379.396, 1676.377 2389.396, 1676.377 2399.396, 1676.377 2409.396, 1676.377 2419.396, 1676.377 2429.396, 1676.377 2439.396, 1676.377 2449.396, 1676.377 2459.396, 1676.377 2469.396, 1676.377 2479.396, 1676.377 2489.396, 1676.377 2499.396, 1676.377 2509.396, 1676.377 2519.396, 1676.377 2529.396, 1676.377 2539.396, 1676.377 2554.902, 1676.377 " />
        </g>
    </g>
<g id="slice-labels"><text x="467.6721666666666" y="436.81825" text-anchor="middle" dominant-baseline="middle" font-family="Arial, sans-serif" font-size="59.06808237253431" font-weight="bold" fill="black" stroke="none" stroke-width="7.088169884704117" paint-order="stroke fill">Slice5 (Back)</text><text x="1356.0104999999999" y="436.81825" text-anchor="middle" dominant-baseline="middle" font-family="Arial, sans-serif" font-size="59.06808237253431" font-weight="bold" fill="black" stroke="none" stroke-width="7.088169884704117" paint-order="stroke fill">Slice5 (Back)</text><text x="2244.3488333333335" y="436.81825" text-anchor="middle" dominant-baseline="middle" font-family="Arial, sans-serif" font-size="59.06808237253431" font-weight="bold" fill="black" stroke="none" stroke-width="7.088169884704117" paint-order="stroke fill">Slice5 (Back)</text><text x="467.6721666666666" y="1263.19075" text-anchor="middle" dominant-baseline="middle" font-family="Arial, sans-serif" font-size="59.06808237253431" font-weight="bold" fill="black" stroke="none" stroke-width="7.088169884704117" paint-order="stroke fill">Slice5 (Back)</text><text x="1356.0104999999999" y="1263.19075" text-anchor="middle" dominant-baseline="middle" font-family="Arial, sans-serif" font-size="59.06808237253431" font-weight="bold" fill="black" stroke="none" stroke-width="7.088169884704117" paint-order="stroke fill">Slice5 (Back)</text><text x="2244.3488333333335" y="1263.19075" text-anchor="middle" dominant-baseline="middle" font-family="Arial, sans-serif" font-size="59.06808237253431" font-weight="bold" fill="black" stroke="none" stroke-width="7.088169884704117" paint-order="stroke fill">Slice5 (Back)</text></g></svg><g inkscape:label="Slice5_front" data-source="Slice5_front.svg" transform="translate(153.901698 155.901698) rotate(90)"><svg inkscape:label="Slice5_front" data-source="Slice5_front.svg" x="0.000000" y="0.000000" width="229.588322" height="143.901698" viewBox="-0.13423371568804043 0.00476705098627761 2712.2684674313764 1699.9994658980274" preserveAspectRatio="none"><g id="ViewLayer_LineSet" inkscape:groupmode="lineset" inkscape:label="ViewLayer_LineSet">
        <g inkscape:groupmode="layer" id="strokes" inkscape:label="strokes">
            <path fill="none" stroke-width="3.0" stroke-linecap="butt" stroke-opacity="1.0" stroke="rgb(0, 0, 0)" stroke-linejoin="round" d=" M 1745.012, 1320.324 1742.493, 1317.741 1740.106, 1315.036 1737.856, 1312.215 1735.750, 1309.285 1733.793, 1306.255 1731.989, 1303.130 1730.343, 1299.920 1728.859, 1296.631 1727.541, 1293.272 1726.392, 1289.853 1725.415, 1286.380 1724.612, 1282.862 1723.985, 1279.310 1723.537, 1275.729 1723.267, 1272.132 1723.177, 1268.525 1723.267, 1264.918 1723.537, 1261.320 1723.985, 1257.740 1724.612, 1254.187 1725.415, 1250.669 1726.392, 1247.197 1727.541, 1243.776 1728.859, 1240.418 1730.343, 1237.130 1731.989, 1233.919 1733.793, 1230.795 1735.750, 1227.764 1737.856, 1224.834 1740.106, 1222.014 1742.493, 1219.308 1745.012, 1216.725 1747.657, 1214.272 1750.421, 1211.953 1753.297, 1209.774 1756.278, 1207.742 1759.357, 1205.861 1762.525, 1204.134 1765.776, 1202.569 1769.100, 1201.169 1772.490, 1199.934 1775.938, 1198.871 1779.434, 1197.981 1782.971, 1197.265 1786.538, 1196.728 1790.128, 1196.369 1793.732, 1196.189 1797.339, 1196.189 1800.943, 1196.369 1804.533, 1196.728 1808.100, 1197.265 1811.637, 1197.981 1815.133, 1198.871 1818.581, 1199.934 1821.971, 1201.169 1825.295, 1202.569 1828.547, 1204.134 1831.715, 1205.861 1834.793, 1207.742 1837.774, 1209.774 1840.650, 1211.953 1843.414, 1214.272 1846.059, 1216.725 1848.578, 1219.308 1850.965, 1222.014 1853.215, 1224.834 1855.321, 1227.764 1857.278, 1230.795 1859.082, 1233.919 1860.728, 1237.130 1862.212, 1240.418 1863.530, 1243.776 1864.679, 1247.197 1865.656, 1250.669 1866.459, 1254.187 1867.086, 1257.740 1867.534, 1261.320 1867.804, 1264.918 1867.894, 1268.525 1867.804, 1272.132 1867.534, 1275.729 1867.086, 1279.310 1866.459, 1282.862 1865.656, 1286.380 1864.679, 1289.853 1863.530, 1293.272 1862.212, 1296.631 1860.728, 1299.920 1859.082, 1303.130 1857.278, 1306.255 1855.321, 1309.285 1853.215, 1312.215 1850.965, 1315.036 1848.578, 1317.741 1846.059, 1320.324 1843.414, 1322.777 1840.650, 1325.097 1837.774, 1327.276 1834.793, 1329.308 1831.715, 1331.188 1828.547, 1332.914 1825.295, 1334.480 1821.971, 1335.882 1818.581, 1337.115 1815.133, 1338.179 1811.637, 1339.069 1808.100, 1339.783 1804.533, 1340.321 1800.943, 1340.680 1797.339, 1340.861 1793.732, 1340.861 1790.128, 1340.680 1786.538, 1340.321 1782.971, 1339.783 1779.434, 1339.069 1775.938, 1338.179 1772.490, 1337.115 1769.100, 1335.882 1765.776, 1334.480 1762.525, 1332.914 1759.357, 1331.188 1756.278, 1329.308 1753.297, 1327.276 1750.421, 1325.097 1747.657, 1322.777 1745.012, 1320.324 " />
            <path fill="none" stroke-width="3.0" stroke-linecap="butt" stroke-opacity="1.0" stroke="rgb(0, 0, 0)" stroke-linejoin="round" d=" M 2202.696, 1676.368 2192.696, 1676.368 2182.696, 1676.368 2172.696, 1676.368 2162.696, 1676.368 2152.696, 1676.368 2142.696, 1676.368 2132.696, 1676.368 2122.696, 1676.368 2112.696, 1676.368 2102.696, 1676.368 2092.696, 1676.368 2082.696, 1676.368 2072.696, 1676.368 2062.696, 1676.368 2052.696, 1676.368 2042.696, 1676.368 2038.841, 1676.368 2036.124, 1676.368 2033.474, 1676.368 2030.899, 1676.368 2028.408, 1676.368 2026.007, 1676.368 " />
            <path fill="none" stroke-width="3.0" stroke-linecap="butt" stroke-opacity="1.0" stroke="rgb(0, 0, 0)" stroke-linejoin="round" d=" M 2688.507, 1676.365 2678.507, 1676.365 2668.507, 1676.365 2658.507, 1676.366 2648.507, 1676.366 2638.507, 1676.366 2628.507, 1676.366 2618.507, 1676.366 2608.507, 1676.366 2598.507, 1676.366 2588.507, 1676.366 2578.507, 1676.366 2568.507, 1676.366 2558.507, 1676.366 2548.507, 1676.366 2538.507, 1676.366 2528.507, 1676.366 2520.813, 1676.366 2510.813, 1676.366 2500.813, 1676.366 2490.813, 1676.366 2480.813, 1676.366 2470.813, 1676.366 2460.813, 1676.366 2450.813, 1676.366 2440.813, 1676.366 2430.813, 1676.367 2420.813, 1676.367 2410.813, 1676.367 2400.813, 1676.367 2390.813, 1676.367 2380.813, 1676.367 2370.813, 1676.367 2360.813, 1676.367 2350.813, 1676.367 2340.813, 1676.367 2330.813, 1676.367 2320.813, 1676.367 2310.813, 1676.367 2300.813, 1676.367 2290.813, 1676.367 2280.813, 1676.367 2270.813, 1676.367 2260.813, 1676.367 2250.813, 1676.367 2240.813, 1676.367 2230.813, 1676.367 2223.126, 1676.368 2220.402, 1676.368 2217.710, 1676.368 2215.057, 1676.368 " />
            <path fill="none" stroke-width="3.0" stroke-linecap="butt" stroke-opacity="1.0" stroke="rgb(0, 0, 0)" stroke-linejoin="round" d=" M 2592.206, 836.002 2592.939, 826.029 2593.673, 816.055 2594.406, 806.082 2595.139, 796.109 2595.873, 786.136 2596.606, 776.163 2597.339, 766.190 2598.073, 756.217 2598.806, 746.244 2599.539, 736.271 2600.272, 726.298 2601.006, 716.325 2601.739, 706.352 2602.472, 696.378 2603.206, 686.405 2603.939, 676.432 2604.672, 666.459 2605.405, 656.486 2606.139, 646.513 2606.872, 636.540 2607.605, 626.567 2608.338, 616.594 2609.072, 606.621 2609.805, 596.648 2610.538, 586.675 2611.271, 576.702 2612.005, 566.728 2612.738, 556.755 2613.471, 546.782 2614.205, 536.809 2614.938, 526.836 2615.671, 516.863 2616.405, 506.890 2617.138, 496.917 2617.871, 486.944 2618.604, 476.971 2619.338, 466.998 2620.071, 457.025 2620.573, 450.200 2619.494, 440.259 2618.416, 430.317 2617.338, 420.375 2616.259, 410.434 2615.181, 400.492 2614.102, 390.550 2613.024, 380.609 2611.946, 370.667 2610.867, 360.725 2609.789, 350.783 2608.710, 340.842 2607.632, 330.900 2606.554, 320.958 2605.475, 311.017 2604.397, 301.075 2603.318, 291.133 2602.240, 281.192 2601.162, 271.250 2600.083, 261.308 2599.005, 251.367 2597.927, 241.425 2596.848, 231.483 2595.770, 221.542 2594.691, 211.600 2593.613, 201.658 2592.534, 191.717 2591.456, 181.775 2590.378, 171.833 2589.686, 165.458 " />
            <path fill="none" stroke-width="3.0" stroke-linecap="butt" stroke-opacity="1.0" stroke="rgb(0, 0, 0)" stroke-linejoin="round" d=" M 83.067, 83.376 84.182, 93.314 85.296, 103.252 86.411, 113.190 87.525, 123.127 88.640, 133.065 89.754, 143.003 90.868, 152.940 91.983, 162.878 93.097, 172.816 94.212, 182.754 95.326, 192.691 96.441, 202.629 97.555, 212.567 98.670, 222.504 99.784, 232.442 100.899, 242.380 102.013, 252.318 103.128, 262.255 104.242, 272.193 105.357, 282.131 106.471, 292.068 107.585, 302.006 108.700, 311.944 109.814, 321.881 110.929, 331.819 112.043, 341.757 113.158, 351.695 114.272, 361.632 115.387, 371.570 116.501, 381.508 117.616, 391.445 118.730, 401.383 119.845, 411.321 120.959, 421.258 122.073, 431.196 123.188, 441.134 124.302, 451.072 125.417, 461.009 126.531, 470.947 127.646, 480.885 128.297, 486.689 126.767, 496.571 125.237, 506.454 123.707, 516.336 122.177, 526.218 120.647, 536.101 119.117, 545.983 117.587, 555.865 116.058, 565.747 114.528, 575.630 112.998, 585.512 111.468, 595.394 109.938, 605.276 108.408, 615.159 106.878, 625.041 105.348, 634.923 103.819, 644.806 102.289, 654.688 100.759, 664.570 99.229, 674.453 97.699, 684.335 96.169, 694.217 94.639, 704.099 93.109, 713.982 91.579, 723.864 90.050, 733.746 88.520, 743.628 86.990, 753.511 85.460, 763.393 83.930, 773.275 82.400, 783.158 80.870, 793.040 79.340, 802.922 77.810, 812.804 76.281, 822.687 74.751, 832.569 73.221, 842.451 71.691, 852.334 70.161, 862.216 68.631, 872.098 67.101, 881.980 65.571, 891.863 64.041, 901.745 62.512, 911.627 60.982, 921.509 59.452, 931.392 57.922, 941.274 56.392, 951.156 54.862, 961.039 53.332, 970.921 51.802, 980.803 50.272, 990.685 48.743, 1000.568 47.213, 1010.450 45.683, 1020.332 44.153, 1030.215 42.623, 1040.097 41.093, 1049.979 39.563, 1059.861 38.033, 1069.744 36.503, 1079.626 34.974, 1089.508 33.444, 1099.391 31.914, 1109.273 30.384, 1119.155 28.854, 1129.037 27.324, 1138.920 25.794, 1148.802 23.493, 1163.669 " />
            <path fill="none" stroke-width="3.0" stroke-linecap="butt" stroke-opacity="1.0" stroke="rgb(0, 0, 0)" stroke-linejoin="round" d=" M 2589.686, 165.458 2586.981, 155.830 2584.276, 146.203 2581.571, 136.576 2578.866, 126.949 2576.161, 117.321 2573.456, 107.694 2570.751, 98.067 2568.046, 88.440 2565.341, 78.813 2562.636, 69.185 2559.931, 59.558 2557.226, 49.931 2554.521, 40.304 2551.816, 30.677 2549.837, 23.632 2539.837, 23.632 2529.837, 23.632 2519.837, 23.632 2509.837, 23.632 2499.837, 23.632 2489.837, 23.632 2479.837, 23.632 2469.837, 23.632 2459.837, 23.632 2449.837, 23.632 2442.328, 23.632 2441.693, 23.632 2441.058, 23.632 2440.427, 23.632 2439.799, 23.632 2439.178, 23.632 2438.566, 23.632 2437.965, 23.632 2437.377, 23.632 2436.803, 23.632 2436.248, 23.632 2426.248, 23.632 2416.248, 23.632 2406.248, 23.632 2396.248, 23.632 2386.248, 23.632 2376.248, 23.632 2366.248, 23.632 2356.248, 23.632 2346.248, 23.632 2336.248, 23.632 2326.248, 23.632 2316.629, 23.632 2315.066, 23.632 2313.514, 23.632 2311.978, 23.632 2310.464, 23.632 2300.464, 23.632 2290.464, 23.632 2280.464, 23.632 2270.464, 23.632 2260.464, 23.632 2250.464, 23.632 2240.464, 23.632 2230.464, 23.632 2220.464, 23.632 2210.464, 23.632 2200.464, 23.632 2190.464, 23.632 2180.464, 23.632 2170.464, 23.632 2160.464, 23.632 2150.464, 23.632 2140.464, 23.632 2130.464, 23.632 2120.464, 23.632 2110.464, 23.632 2100.464, 23.632 2090.464, 23.632 2080.464, 23.632 2069.727, 23.632 2067.133, 23.632 2064.588, 23.632 2062.100, 23.632 2059.677, 23.632 2057.329, 23.632 2047.329, 23.632 2037.329, 23.632 2027.329, 23.632 2017.329, 23.632 2007.329, 23.632 1997.329, 23.632 1987.329, 23.632 1977.329, 23.632 1967.329, 23.632 1957.329, 23.632 1947.329, 23.632 1937.329, 23.632 1927.329, 23.632 1917.329, 23.632 1907.329, 23.632 1897.329, 23.632 1887.329, 23.632 1877.329, 23.632 1867.329, 23.632 1857.329, 23.632 1847.329, 23.632 1837.329, 23.632 1827.329, 23.632 1817.329, 23.632 1807.329, 23.632 1797.329, 23.632 1787.329, 23.632 1777.329, 23.632 1767.329, 23.632 1757.329, 23.632 1747.329, 23.632 1737.329, 23.632 1727.329, 23.632 1717.329, 23.632 1707.329, 23.632 1697.329, 23.632 1687.329, 23.632 1677.329, 23.632 1667.329, 23.632 1657.329, 23.632 1647.329, 23.632 1637.329, 23.632 1627.329, 23.632 1617.329, 23.632 1607.329, 23.632 1597.329, 23.632 1591.679, 23.632 1588.917, 23.632 1586.195, 23.632 1583.522, 23.632 1580.907, 23.632 1578.354, 23.632 1575.874, 23.632 1573.472, 23.632 1563.472, 23.632 1553.472, 23.632 1543.472, 23.632 1533.472, 23.632 1523.472, 23.632 1513.472, 23.632 1509.164, 23.632 1506.793, 23.632 1504.496, 23.632 1502.278, 23.632 1500.145, 23.632 1498.103, 23.632 1496.158, 23.632 1486.158, 23.632 1476.158, 23.632 1466.158, 23.632 1456.158, 23.632 1446.158, 23.632 1436.158, 23.632 1426.158, 23.632 1416.158, 23.632 1406.158, 23.632 1396.158, 23.632 1386.158, 23.632 1376.158, 23.632 1366.158, 23.632 1356.158, 23.632 1346.158, 23.632 1336.158, 23.632 1326.158, 23.632 1316.158, 23.632 1306.158, 23.632 1296.158, 23.632 1286.158, 23.632 1276.158, 23.632 1266.158, 23.632 1256.158, 23.632 1246.158, 23.632 1236.158, 23.632 1226.158, 23.632 1216.158, 23.632 1206.158, 23.632 1196.158, 23.632 1186.158, 23.632 1176.158, 23.632 1166.158, 23.632 1156.158, 23.632 1146.158, 23.632 1136.158, 23.632 1126.158, 23.632 1116.158, 23.632 1106.158, 23.632 1096.158, 23.632 1086.158, 23.632 1076.158, 23.632 1066.158, 23.632 1056.158, 23.632 1046.158, 23.632 1036.158, 23.632 1026.158, 23.632 1016.158, 23.632 1006.158, 23.632 996.158, 23.632 986.158, 23.632 976.158, 23.632 966.158, 23.632 956.158, 23.632 946.158, 23.632 936.158, 23.632 922.882, 23.632 920.518, 23.632 918.051, 23.632 915.487, 23.632 912.833, 23.632 902.833, 23.632 892.833, 23.632 882.833, 23.632 872.833, 23.632 862.833, 23.632 852.833, 23.632 842.833, 23.632 832.833, 23.632 822.833, 23.632 812.833, 23.632 802.833, 23.632 792.833, 23.632 782.833, 23.632 772.833, 23.632 762.833, 23.632 752.833, 23.632 742.833, 23.632 732.833, 23.632 722.833, 23.632 712.833, 23.632 702.833, 23.632 692.833, 23.632 682.833, 23.632 680.247, 23.632 677.739, 23.632 675.120, 23.632 672.399, 23.632 669.584, 23.632 659.584, 23.632 649.584, 23.632 639.584, 23.632 629.584, 23.632 619.584, 23.632 609.584, 23.632 599.584, 23.632 589.584, 23.632 579.584, 23.632 569.584, 23.632 559.584, 23.632 549.584, 23.632 539.584, 23.632 529.584, 23.632 519.584, 23.632 509.584, 23.632 499.584, 23.632 489.584, 23.632 479.584, 23.632 469.584, 23.632 459.584, 23.632 449.584, 23.632 439.584, 23.632 429.584, 23.632 419.584, 23.632 409.584, 23.632 399.584, 23.632 389.584, 23.632 379.584, 23.632 369.584, 23.632 359.584, 23.632 349.584, 23.632 339.584, 23.632 329.584, 23.632 319.584, 23.632 309.584, 23.632 299.584, 23.632 289.584, 23.632 279.584, 23.632 269.584, 23.632 259.584, 23.632 249.584, 23.632 239.584, 23.632 229.584, 23.632 219.584, 23.632 209.584, 23.632 199.584, 23.632 189.584, 23.632 179.584, 23.632 169.584, 23.632 159.584, 23.632 149.584, 23.632 139.584, 23.632 129.584, 23.632 119.584, 23.632 109.584, 23.632 99.584, 23.632 89.584, 23.632 79.584, 23.632 69.584, 23.632 58.286, 23.632 62.118, 32.869 65.949, 42.106 69.780, 51.343 73.611, 60.579 77.443, 69.816 81.274, 79.053 83.067, 83.376 " />
            <path fill="none" stroke-width="3.0" stroke-linecap="butt" stroke-opacity="1.0" stroke="rgb(0, 0, 0)" stroke-linejoin="round" d=" M 157.109, 1676.377 167.109, 1676.377 177.109, 1676.377 187.109, 1676.377 197.109, 1676.377 207.109, 1676.377 217.109, 1676.377 227.109, 1676.377 237.109, 1676.377 247.109, 1676.377 257.109, 1676.377 267.109, 1676.377 277.109, 1676.377 287.109, 1676.377 297.109, 1676.377 307.109, 1676.377 317.109, 1676.377 327.109, 1676.377 337.109, 1676.376 347.109, 1676.376 357.109, 1676.376 367.109, 1676.376 377.109, 1676.376 387.109, 1676.376 397.109, 1676.376 407.109, 1676.376 417.109, 1676.376 427.109, 1676.376 437.109, 1676.376 447.109, 1676.376 457.109, 1676.376 467.109, 1676.376 477.109, 1676.376 487.109, 1676.376 497.109, 1676.376 507.109, 1676.376 517.109, 1676.376 527.109, 1676.376 537.109, 1676.375 547.109, 1676.375 557.109, 1676.375 567.109, 1676.375 577.109, 1676.375 587.109, 1676.375 597.109, 1676.375 607.109, 1676.375 617.109, 1676.375 627.109, 1676.375 637.109, 1676.375 647.109, 1676.375 657.109, 1676.375 667.109, 1676.375 677.109, 1676.375 687.109, 1676.375 697.109, 1676.375 707.109, 1676.375 717.109, 1676.375 727.109, 1676.375 737.109, 1676.374 747.109, 1676.374 757.109, 1676.374 767.109, 1676.374 777.109, 1676.374 787.109, 1676.374 797.109, 1676.374 807.109, 1676.374 817.109, 1676.374 827.109, 1676.374 837.109, 1676.374 847.109, 1676.374 857.109, 1676.374 867.109, 1676.374 877.109, 1676.374 887.109, 1676.374 897.109, 1676.374 907.109, 1676.374 917.109, 1676.374 927.109, 1676.374 937.109, 1676.373 947.109, 1676.373 957.109, 1676.373 967.109, 1676.373 977.109, 1676.373 987.109, 1676.373 997.109, 1676.373 1007.109, 1676.373 1017.109, 1676.373 1027.109, 1676.373 1037.109, 1676.373 1047.109, 1676.373 1057.109, 1676.373 1067.109, 1676.373 1077.109, 1676.373 1087.109, 1676.373 1097.109, 1676.373 1107.109, 1676.373 1117.109, 1676.373 1127.109, 1676.373 1137.109, 1676.373 1147.109, 1676.372 1157.109, 1676.372 1167.109, 1676.372 1177.109, 1676.372 1187.109, 1676.372 1197.109, 1676.372 1207.109, 1676.372 1217.109, 1676.372 1227.109, 1676.372 1237.109, 1676.372 1247.109, 1676.372 1257.109, 1676.372 1267.109, 1676.372 1277.109, 1676.372 1287.109, 1676.372 1297.109, 1676.372 1307.109, 1676.372 1317.109, 1676.372 1327.109, 1676.372 1337.109, 1676.372 1347.109, 1676.371 1357.109, 1676.371 1367.109, 1676.371 1377.109, 1676.371 1387.109, 1676.371 1397.109, 1676.371 1407.109, 1676.371 1417.109, 1676.371 1430.409, 1676.371 1432.601, 1676.371 1435.417, 1676.371 1440.533, 1676.371 1445.745, 1676.371 1451.039, 1676.371 1456.402, 1676.371 1461.816, 1676.371 1467.269, 1676.371 1472.743, 1676.371 1478.224, 1676.371 1483.695, 1676.371 1489.140, 1676.371 1494.543, 1676.371 1495.346, 1676.371 1497.261, 1676.371 1499.888, 1676.371 1505.159, 1676.371 1510.338, 1676.371 1520.338, 1676.371 1530.338, 1676.371 1540.338, 1676.371 1550.338, 1676.371 1560.338, 1676.371 1570.338, 1676.371 1580.338, 1676.371 1590.338, 1676.371 1600.338, 1676.371 1610.338, 1676.371 1620.338, 1676.371 1630.338, 1676.371 1640.338, 1676.370 1650.338, 1676.370 1660.338, 1676.370 1670.338, 1676.370 1680.338, 1676.370 1690.338, 1676.370 1700.338, 1676.370 1710.338, 1676.370 1720.338, 1676.370 1730.338, 1676.370 1740.338, 1676.370 1750.338, 1676.370 1760.338, 1676.370 1770.338, 1676.370 1780.338, 1676.370 1790.338, 1676.370 1800.338, 1676.370 1810.338, 1676.370 1820.338, 1676.370 1830.338, 1676.370 1840.338, 1676.370 1850.338, 1676.370 1860.338, 1676.370 1870.338, 1676.369 1880.338, 1676.369 1890.338, 1676.369 1900.338, 1676.369 1910.338, 1676.369 1920.338, 1676.369 1930.338, 1676.369 1940.338, 1676.369 1950.338, 1676.369 1960.338, 1676.369 1970.338, 1676.369 1980.338, 1676.369 1993.290, 1676.369 1996.294, 1676.369 1997.440, 1676.369 1999.486, 1676.368 " />
            <path fill="none" stroke-width="3.0" stroke-linecap="butt" stroke-opacity="1.0" stroke="rgb(0, 0, 0)" stroke-linejoin="round" d=" M 1999.486, 1676.368 2002.855, 1676.368 2006.393, 1676.368 2010.086, 1676.368 2013.923, 1676.368 2017.891, 1676.368 2021.979, 1676.368 2026.172, 1676.368 2036.172, 1676.368 2046.172, 1676.368 2056.172, 1676.368 2066.172, 1676.368 2076.172, 1676.368 2086.172, 1676.368 2096.172, 1676.368 2106.172, 1676.368 2116.172, 1676.368 2126.172, 1676.368 2136.172, 1676.368 2146.172, 1676.368 2156.172, 1676.368 2166.172, 1676.368 2176.172, 1676.368 2183.265, 1676.368 2186.932, 1676.368 2190.731, 1676.368 2194.644, 1676.368 2198.659, 1676.368 2202.761, 1676.368 2206.934, 1676.368 2211.162, 1676.368 2215.430, 1676.368 2225.430, 1676.367 2235.430, 1676.367 2245.430, 1676.367 2255.430, 1676.367 2265.430, 1676.367 2275.430, 1676.367 2285.430, 1676.367 2295.430, 1676.367 2305.430, 1676.367 2315.430, 1676.367 2325.430, 1676.367 2335.430, 1676.367 2345.430, 1676.367 2355.430, 1676.367 2365.430, 1676.367 2375.430, 1676.367 2385.430, 1676.367 2395.430, 1676.367 2405.430, 1676.367 2415.430, 1676.367 2425.430, 1676.367 2435.430, 1676.366 2445.430, 1676.366 2455.430, 1676.366 2465.430, 1676.366 2475.430, 1676.366 2485.430, 1676.366 2495.430, 1676.366 2505.430, 1676.366 2511.694, 1676.366 2514.142, 1676.366 2524.142, 1676.366 2534.142, 1676.366 2544.142, 1676.366 2554.142, 1676.366 2564.142, 1676.366 2574.142, 1676.366 2584.142, 1676.366 2594.142, 1676.366 2604.142, 1676.366 2614.142, 1676.366 2624.142, 1676.366 2634.142, 1676.366 2644.142, 1676.366 2654.142, 1676.366 2664.142, 1676.366 2674.142, 1676.365 2684.142, 1676.365 2688.507, 1676.365 " />
            <path fill="none" stroke-width="3.0" stroke-linecap="butt" stroke-opacity="1.0" stroke="rgb(0, 0, 0)" stroke-linejoin="round" d=" M 1240.347, 392.988 1238.316, 391.285 1236.373, 389.482 1234.522, 387.585 " />
            <path fill="none" stroke-width="3.0" stroke-linecap="butt" stroke-opacity="1.0" stroke="rgb(0, 0, 0)" stroke-linejoin="round" d=" M 1246.911, 397.465 1244.649, 396.082 1242.459, 394.590 1240.347, 392.988 " />
            <path fill="none" stroke-width="3.0" stroke-linecap="butt" stroke-opacity="1.0" stroke="rgb(0, 0, 0)" stroke-linejoin="round" d=" M 1231.116, 383.525 1229.568, 381.373 1228.130, 379.146 1226.805, 376.850 1225.596, 374.492 " />
            <path fill="none" stroke-width="3.0" stroke-linecap="butt" stroke-opacity="1.0" stroke="rgb(0, 0, 0)" stroke-linejoin="round" d=" M 1254.070, 400.912 1251.628, 399.883 1249.239, 398.733 1246.911, 397.465 " />
            <path fill="none" stroke-width="3.0" stroke-linecap="butt" stroke-opacity="1.0" stroke="rgb(0, 0, 0)" stroke-linejoin="round" d=" M 1224.505, 372.075 1223.537, 369.608 1222.693, 367.095 1221.975, 364.544 1221.385, 361.959 1220.925, 359.349 1220.595, 356.719 1220.397, 354.076 1220.331, 351.426 1220.397, 348.776 " />
            <path fill="none" stroke-width="3.0" stroke-linecap="butt" stroke-opacity="1.0" stroke="rgb(0, 0, 0)" stroke-linejoin="round" d=" M 1220.397, 348.776 1220.595, 346.133 " />
            <path fill="none" stroke-width="3.0" stroke-linecap="butt" stroke-opacity="1.0" stroke="rgb(0, 0, 0)" stroke-linejoin="round" d=" M 1220.595, 346.133 1220.925, 343.502 1221.385, 340.892 1221.975, 338.308 " />
            <path fill="none" stroke-width="3.0" stroke-linecap="butt" stroke-opacity="1.0" stroke="rgb(0, 0, 0)" stroke-linejoin="round" d=" M 1561.939, 681.460 1559.420, 678.878 1557.032, 676.172 1554.783, 673.351 1552.677, 670.423 1550.719, 667.391 1548.915, 664.267 1547.269, 661.056 1545.786, 657.769 1544.467, 654.410 1543.318, 650.990 1542.341, 647.516 1541.538, 643.999 1540.912, 640.446 1540.463, 636.866 1540.193, 633.268 1540.104, 629.661 1540.193, 626.055 1540.463, 622.456 1540.912, 618.877 1541.538, 615.324 1542.341, 611.807 1543.318, 608.333 1544.467, 604.913 1545.786, 601.555 1547.269, 598.266 1548.915, 595.056 1550.719, 591.931 1552.677, 588.900 1554.783, 585.971 1557.032, 583.150 1559.420, 580.446 1561.939, 577.863 1564.583, 575.408 1567.347, 573.089 1570.223, 570.911 1573.204, 568.879 1576.283, 566.997 1579.451, 565.272 1582.702, 563.707 1586.026, 562.305 1589.417, 561.071 1592.864, 560.008 1596.361, 559.117 1599.897, 558.402 1603.465, 557.864 1607.055, 557.505 1610.658, 557.325 1614.266, 557.325 1617.869, 557.505 1621.459, 557.864 1625.027, 558.402 1628.564, 559.117 1632.059, 560.008 1635.507, 561.071 1638.898, 562.305 1642.222, 563.707 1645.473, 565.272 1648.641, 566.997 1651.720, 568.879 1654.701, 570.911 1657.577, 573.089 1660.341, 575.408 1662.985, 577.863 1665.505, 580.446 1667.892, 583.150 1670.141, 585.971 1672.247, 588.900 1674.205, 591.931 1676.009, 595.056 1677.655, 598.266 1679.139, 601.555 1680.457, 604.913 1681.606, 608.333 1682.583, 611.807 1683.386, 615.324 1684.012, 618.877 1684.461, 622.456 1684.730, 626.055 1684.821, 629.661 1684.730, 633.268 1684.461, 636.866 1684.012, 640.446 1683.386, 643.999 1682.583, 647.516 1681.606, 650.990 1680.457, 654.410 1679.139, 657.769 1677.655, 661.056 1676.009, 664.267 1674.205, 667.391 1672.247, 670.423 1670.141, 673.351 1667.892, 676.172 1665.505, 678.878 1662.985, 681.460 1660.341, 683.914 1657.577, 686.234 1654.701, 688.412 1651.720, 690.445 1648.641, 692.326 1645.473, 694.051 1642.222, 695.617 1638.898, 697.018 1635.507, 698.252 1632.059, 699.315 1628.564, 700.205 1625.027, 700.921 1621.459, 701.458 1617.869, 701.818 1614.266, 701.997 1610.658, 701.997 1607.055, 701.818 1603.465, 701.458 1599.897, 700.921 1596.361, 700.205 1592.864, 699.315 1589.417, 698.252 1586.026, 697.018 1582.702, 695.617 1579.451, 694.051 1576.283, 692.326 1573.204, 690.445 1570.223, 688.412 1567.347, 686.234 1564.583, 683.914 1561.939, 681.460 " />
            <path fill="none" stroke-width="3.0" stroke-linecap="butt" stroke-opacity="1.0" stroke="rgb(0, 0, 0)" stroke-linejoin="round" d=" M 1269.519, 404.438 1266.882, 404.174 1264.261, 403.779 1261.663, 403.254 1259.094, 402.600 1256.561, 401.818 1254.070, 400.912 " />
            <path fill="none" stroke-width="3.0" stroke-linecap="butt" stroke-opacity="1.0" stroke="rgb(0, 0, 0)" stroke-linejoin="round" d=" M 1221.975, 338.308 1222.693, 335.756 " />
            <path fill="none" stroke-width="3.0" stroke-linecap="butt" stroke-opacity="1.0" stroke="rgb(0, 0, 0)" stroke-linejoin="round" d=" M 1222.693, 335.756 1223.537, 333.244 1224.505, 330.776 1225.596, 328.360 " />
            <path fill="none" stroke-width="3.0" stroke-linecap="butt" stroke-opacity="1.0" stroke="rgb(0, 0, 0)" stroke-linejoin="round" d=" M 1285.322, 403.254 1282.723, 403.779 1280.103, 404.174 1277.465, 404.438 1274.818, 404.571 1272.167, 404.571 1269.519, 404.438 " />
            <path fill="none" stroke-width="3.0" stroke-linecap="butt" stroke-opacity="1.0" stroke="rgb(0, 0, 0)" stroke-linejoin="round" d=" M 1225.596, 328.360 1226.805, 326.001 1228.130, 323.705 1229.568, 321.479 1231.116, 319.327 1232.768, 317.255 1234.522, 315.267 " />
            <path fill="none" stroke-width="3.0" stroke-linecap="butt" stroke-opacity="1.0" stroke="rgb(0, 0, 0)" stroke-linejoin="round" d=" M 1304.524, 394.590 1302.335, 396.082 1300.073, 397.465 1297.745, 398.733 1295.357, 399.883 1292.914, 400.912 1290.424, 401.818 1287.890, 402.600 1285.322, 403.254 " />
            <path fill="none" stroke-width="3.0" stroke-linecap="butt" stroke-opacity="1.0" stroke="rgb(0, 0, 0)" stroke-linejoin="round" d=" M 1234.522, 315.267 1236.373, 313.369 " />
            <path fill="none" stroke-width="3.0" stroke-linecap="butt" stroke-opacity="1.0" stroke="rgb(0, 0, 0)" stroke-linejoin="round" d=" M 1236.373, 313.369 1238.316, 311.567 1240.347, 309.863 1242.459, 308.262 1244.649, 306.769 1246.911, 305.387 1249.239, 304.119 1251.628, 302.969 1254.070, 301.939 1256.561, 301.033 " />
            <path fill="none" stroke-width="3.0" stroke-linecap="butt" stroke-opacity="1.0" stroke="rgb(0, 0, 0)" stroke-linejoin="round" d=" M 1310.611, 389.482 1308.668, 391.285 1306.638, 392.988 1304.524, 394.590 " />
            <path fill="none" stroke-width="3.0" stroke-linecap="butt" stroke-opacity="1.0" stroke="rgb(0, 0, 0)" stroke-linejoin="round" d=" M 1256.561, 301.033 1259.094, 300.252 1261.663, 299.597 1264.261, 299.072 1266.882, 298.677 1269.519, 298.413 " />
            <path fill="none" stroke-width="3.0" stroke-linecap="butt" stroke-opacity="1.0" stroke="rgb(0, 0, 0)" stroke-linejoin="round" d=" M 1315.869, 383.525 1314.216, 385.597 1312.462, 387.585 1310.611, 389.482 " />
            <path fill="none" stroke-width="3.0" stroke-linecap="butt" stroke-opacity="1.0" stroke="rgb(0, 0, 0)" stroke-linejoin="round" d=" M 1325.599, 361.959 1325.009, 364.544 1324.292, 367.095 1323.447, 369.608 1322.479, 372.075 1321.389, 374.492 1320.180, 376.850 1318.854, 379.146 1317.416, 381.373 1315.869, 383.525 " />
            <path fill="none" stroke-width="3.0" stroke-linecap="butt" stroke-opacity="1.0" stroke="rgb(0, 0, 0)" stroke-linejoin="round" d=" M 1326.060, 343.502 1326.389, 346.133 1326.587, 348.776 1326.653, 351.426 1326.587, 354.076 " />
            <path fill="none" stroke-width="3.0" stroke-linecap="butt" stroke-opacity="1.0" stroke="rgb(0, 0, 0)" stroke-linejoin="round" d=" M 1320.180, 326.001 1321.389, 328.360 1322.479, 330.776 1323.447, 333.244 1324.292, 335.756 1325.009, 338.308 1325.599, 340.892 1326.060, 343.502 " />
            <path fill="none" stroke-width="3.0" stroke-linecap="butt" stroke-opacity="1.0" stroke="rgb(0, 0, 0)" stroke-linejoin="round" d=" M 1314.216, 317.255 1315.869, 319.327 1317.416, 321.479 1318.854, 323.705 1320.180, 326.001 " />
            <path fill="none" stroke-width="3.0" stroke-linecap="butt" stroke-opacity="1.0" stroke="rgb(0, 0, 0)" stroke-linejoin="round" d=" M 1292.914, 301.939 1295.357, 302.969 1297.745, 304.119 1300.073, 305.387 1302.335, 306.769 1304.524, 308.262 1306.638, 309.863 1308.668, 311.567 1310.611, 313.369 1312.462, 315.267 1314.216, 317.255 " />
            <path fill="none" stroke-width="3.0" stroke-linecap="butt" stroke-opacity="1.0" stroke="rgb(0, 0, 0)" stroke-linejoin="round" d=" M 1274.818, 298.281 1277.465, 298.413 1280.103, 298.677 1282.723, 299.072 1285.322, 299.597 1287.890, 300.252 1290.424, 301.033 1292.914, 301.939 " />
            <path fill="none" stroke-width="3.0" stroke-linecap="butt" stroke-opacity="1.0" stroke="rgb(0, 0, 0)" stroke-linejoin="round" d=" M 1272.167, 298.281 1274.818, 298.281 " />
            <path fill="none" stroke-width="3.0" stroke-linecap="butt" stroke-opacity="1.0" stroke="rgb(0, 0, 0)" stroke-linejoin="round" d=" M 1269.519, 298.413 1272.167, 298.281 " />
            <path fill="none" stroke-width="3.0" stroke-linecap="butt" stroke-opacity="1.0" stroke="rgb(0, 0, 0)" stroke-linejoin="round" d=" M 23.493, 1163.669 26.014, 1173.346 28.536, 1183.023 31.058, 1192.700 33.580, 1202.376 36.102, 1212.053 38.624, 1221.730 41.146, 1231.407 43.667, 1241.083 46.189, 1250.760 48.711, 1260.437 51.233, 1270.114 53.755, 1279.791 56.277, 1289.467 58.799, 1299.144 61.320, 1308.821 63.842, 1318.498 66.364, 1328.175 68.886, 1337.851 71.408, 1347.528 73.930, 1357.205 76.452, 1366.882 78.973, 1376.559 81.495, 1386.235 84.017, 1395.912 86.539, 1405.589 89.061, 1415.266 91.583, 1424.942 94.105, 1434.619 96.626, 1444.296 99.148, 1453.973 101.670, 1463.650 104.192, 1473.326 106.714, 1483.003 109.236, 1492.680 111.758, 1502.357 114.280, 1512.034 116.801, 1521.710 119.323, 1531.387 121.845, 1541.064 124.367, 1550.741 126.889, 1560.418 129.411, 1570.094 131.933, 1579.771 134.454, 1589.448 136.976, 1599.125 139.498, 1608.801 142.020, 1618.478 144.542, 1628.155 147.064, 1637.832 149.586, 1647.509 152.107, 1657.185 154.629, 1666.862 157.109, 1676.377 " />
            <path fill="none" stroke-width="3.0" stroke-linecap="butt" stroke-opacity="1.0" stroke="rgb(0, 0, 0)" stroke-linejoin="round" d=" M 1225.596, 374.492 1224.505, 372.075 " />
            <path fill="none" stroke-width="3.0" stroke-linecap="butt" stroke-opacity="1.0" stroke="rgb(0, 0, 0)" stroke-linejoin="round" d=" M 1232.768, 385.597 1231.116, 383.525 " />
            <path fill="none" stroke-width="3.0" stroke-linecap="butt" stroke-opacity="1.0" stroke="rgb(0, 0, 0)" stroke-linejoin="round" d=" M 1234.522, 387.585 1232.768, 385.597 " />
            <path fill="none" stroke-width="3.0" stroke-linecap="butt" stroke-opacity="1.0" stroke="rgb(0, 0, 0)" stroke-linejoin="round" d=" M 1326.060, 359.349 1325.599, 361.959 " />
            <path fill="none" stroke-width="3.0" stroke-linecap="butt" stroke-opacity="1.0" stroke="rgb(0, 0, 0)" stroke-linejoin="round" d=" M 1326.389, 356.719 1326.060, 359.349 " />
            <path fill="none" stroke-width="3.0" stroke-linecap="butt" stroke-opacity="1.0" stroke="rgb(0, 0, 0)" stroke-linejoin="round" d=" M 1326.587, 354.076 1326.389, 356.719 " />
            <path fill="none" stroke-width="3.0" stroke-linecap="butt" stroke-opacity="1.0" stroke="rgb(0, 0, 0)" stroke-linejoin="round" d=" M 157.109, 1676.377 167.109, 1676.377 177.109, 1676.377 187.109, 1676.377 197.109, 1676.377 207.109, 1676.377 217.109, 1676.377 227.109, 1676.377 237.109, 1676.377 247.109, 1676.377 257.109, 1676.377 267.109, 1676.377 277.109, 1676.377 287.109, 1676.377 297.109, 1676.377 307.109, 1676.377 317.109, 1676.377 327.109, 1676.377 337.109, 1676.377 347.109, 1676.376 357.109, 1676.376 367.109, 1676.376 377.109, 1676.376 387.109, 1676.376 397.109, 1676.376 407.109, 1676.376 417.109, 1676.376 427.109, 1676.376 437.109, 1676.376 447.109, 1676.376 457.109, 1676.376 467.109, 1676.376 477.109, 1676.376 487.109, 1676.376 497.109, 1676.376 507.109, 1676.376 517.109, 1676.376 527.109, 1676.376 537.109, 1676.376 547.109, 1676.376 557.109, 1676.375 567.109, 1676.375 577.109, 1676.375 587.109, 1676.375 597.109, 1676.375 607.109, 1676.375 617.109, 1676.375 627.109, 1676.375 637.109, 1676.375 647.109, 1676.375 657.109, 1676.375 667.109, 1676.375 677.109, 1676.375 687.109, 1676.375 697.109, 1676.375 707.109, 1676.375 717.109, 1676.375 727.109, 1676.375 737.109, 1676.375 747.109, 1676.375 757.109, 1676.375 767.109, 1676.374 777.109, 1676.374 787.109, 1676.374 797.109, 1676.374 807.109, 1676.374 817.109, 1676.374 827.109, 1676.374 837.109, 1676.374 847.109, 1676.374 857.109, 1676.374 867.109, 1676.374 877.109, 1676.374 887.109, 1676.374 897.109, 1676.374 907.109, 1676.374 917.109, 1676.374 927.109, 1676.374 937.109, 1676.374 947.109, 1676.374 957.109, 1676.374 967.109, 1676.374 977.109, 1676.373 987.109, 1676.373 997.109, 1676.373 1007.109, 1676.373 1017.109, 1676.373 1027.109, 1676.373 1037.109, 1676.373 1047.109, 1676.373 1057.109, 1676.373 1067.109, 1676.373 1077.109, 1676.373 1087.109, 1676.373 1097.109, 1676.373 1107.109, 1676.373 1117.109, 1676.373 1127.109, 1676.373 1137.109, 1676.373 1147.109, 1676.373 1157.109, 1676.373 1167.109, 1676.373 1177.109, 1676.373 1187.109, 1676.373 1197.109, 1676.372 1207.109, 1676.372 1217.109, 1676.372 1227.109, 1676.372 1237.109, 1676.372 1247.109, 1676.372 1257.109, 1676.372 1267.109, 1676.372 1277.109, 1676.372 1287.109, 1676.372 1297.109, 1676.372 1307.109, 1676.372 1317.109, 1676.372 1327.109, 1676.372 1337.109, 1676.372 1347.109, 1676.372 1357.109, 1676.372 1367.109, 1676.372 1377.109, 1676.372 1387.109, 1676.372 1397.109, 1676.372 1407.109, 1676.371 1417.109, 1676.371 1427.109, 1676.371 1437.109, 1676.371 1447.109, 1676.371 1457.109, 1676.371 1467.109, 1676.371 1477.109, 1676.371 1495.346, 1676.371 " />
            <path fill="none" stroke-width="3.0" stroke-linecap="butt" stroke-opacity="1.0" stroke="rgb(0, 0, 0)" stroke-linejoin="round" d=" M 157.109, 1676.377 167.109, 1676.377 177.109, 1676.377 187.109, 1676.377 197.109, 1676.377 207.109, 1676.377 217.109, 1676.377 227.109, 1676.377 237.109, 1676.377 247.109, 1676.377 257.109, 1676.377 267.109, 1676.377 277.109, 1676.377 287.109, 1676.377 297.109, 1676.377 307.109, 1676.377 317.109, 1676.377 327.109, 1676.377 337.109, 1676.377 347.109, 1676.377 357.109, 1676.376 367.109, 1676.376 377.109, 1676.376 387.109, 1676.376 397.109, 1676.376 407.109, 1676.376 417.109, 1676.376 427.109, 1676.376 437.109, 1676.376 447.109, 1676.376 457.109, 1676.376 467.109, 1676.376 477.109, 1676.376 487.109, 1676.376 497.109, 1676.376 507.109, 1676.376 517.109, 1676.376 527.109, 1676.376 537.109, 1676.376 547.109, 1676.376 557.109, 1676.376 567.109, 1676.375 577.109, 1676.375 587.109, 1676.375 597.109, 1676.375 607.109, 1676.375 617.109, 1676.375 627.109, 1676.375 637.109, 1676.375 647.109, 1676.375 657.109, 1676.375 667.109, 1676.375 677.109, 1676.375 687.109, 1676.375 697.109, 1676.375 707.109, 1676.375 717.109, 1676.375 727.109, 1676.375 737.109, 1676.375 747.109, 1676.375 757.109, 1676.375 767.109, 1676.375 777.109, 1676.375 787.109, 1676.374 797.109, 1676.374 807.109, 1676.374 817.109, 1676.374 827.109, 1676.374 837.109, 1676.374 847.109, 1676.374 857.109, 1676.374 867.109, 1676.374 877.109, 1676.374 887.109, 1676.374 897.109, 1676.374 907.109, 1676.374 917.109, 1676.374 927.109, 1676.374 937.109, 1676.374 947.109, 1676.374 957.109, 1676.374 967.109, 1676.374 977.109, 1676.374 987.109, 1676.374 997.109, 1676.374 1007.109, 1676.373 1017.109, 1676.373 1027.109, 1676.373 1037.109, 1676.373 1047.109, 1676.373 1057.109, 1676.373 1067.109, 1676.373 1077.109, 1676.373 1087.109, 1676.373 1097.109, 1676.373 1107.109, 1676.373 1117.109, 1676.373 1127.109, 1676.373 1137.109, 1676.373 1147.109, 1676.373 1157.109, 1676.373 1167.109, 1676.373 1177.109, 1676.373 1187.109, 1676.373 1197.109, 1676.373 1207.109, 1676.373 1217.109, 1676.373 1227.109, 1676.372 1237.109, 1676.372 1247.109, 1676.372 1257.109, 1676.372 1267.109, 1676.372 1277.109, 1676.372 1287.109, 1676.372 1297.109, 1676.372 1307.109, 1676.372 1317.109, 1676.372 1327.109, 1676.372 1337.109, 1676.372 1347.109, 1676.372 1357.109, 1676.372 1367.109, 1676.372 1377.109, 1676.372 1387.109, 1676.372 1397.109, 1676.372 1407.109, 1676.372 1417.109, 1676.372 1427.109, 1676.372 1437.109, 1676.372 1447.109, 1676.371 1457.109, 1676.371 1467.109, 1676.371 1477.109, 1676.371 1487.109, 1676.371 1497.109, 1676.371 1507.109, 1676.371 1517.109, 1676.371 1527.109, 1676.371 1537.109, 1676.371 1547.109, 1676.371 1557.109, 1676.371 1567.109, 1676.371 1577.109, 1676.371 1587.109, 1676.371 1597.109, 1676.371 1607.109, 1676.371 1617.109, 1676.371 1627.109, 1676.371 1637.109, 1676.371 1647.109, 1676.371 1657.109, 1676.370 1667.109, 1676.370 1677.109, 1676.370 1687.109, 1676.370 1697.109, 1676.370 1707.109, 1676.370 1717.109, 1676.370 1727.109, 1676.370 1737.109, 1676.370 1747.109, 1676.370 1757.109, 1676.370 1767.109, 1676.370 1777.109, 1676.370 1787.109, 1676.370 1797.109, 1676.370 1807.109, 1676.370 1817.109, 1676.370 1827.109, 1676.370 1837.109, 1676.370 1847.109, 1676.370 1857.109, 1676.370 1867.109, 1676.370 1877.109, 1676.369 1887.109, 1676.369 1897.109, 1676.369 1907.109, 1676.369 1917.109, 1676.369 1927.109, 1676.369 1937.109, 1676.369 1947.109, 1676.369 1957.109, 1676.369 1967.109, 1676.369 1977.109, 1676.369 1996.294, 1676.369 " />
            <path fill="none" stroke-width="3.0" stroke-linecap="butt" stroke-opacity="1.0" stroke="rgb(0, 0, 0)" stroke-linejoin="round" d=" M 1432.601, 1676.371 1422.601, 1676.371 1412.601, 1676.371 1402.601, 1676.371 1392.601, 1676.371 1382.601, 1676.371 1372.601, 1676.371 1362.601, 1676.371 1352.601, 1676.371 1342.601, 1676.371 1332.601, 1676.372 1322.601, 1676.372 1312.601, 1676.372 1302.601, 1676.372 1292.601, 1676.372 1282.601, 1676.372 1272.601, 1676.372 1262.601, 1676.372 1252.601, 1676.372 1242.601, 1676.372 1232.601, 1676.372 1222.601, 1676.372 1212.601, 1676.372 1202.601, 1676.372 1192.601, 1676.372 1182.601, 1676.372 1172.601, 1676.372 1162.601, 1676.372 1152.601, 1676.372 1142.601, 1676.372 1132.601, 1676.373 1122.601, 1676.373 1112.601, 1676.373 1102.601, 1676.373 1092.601, 1676.373 1082.601, 1676.373 1072.601, 1676.373 1062.601, 1676.373 1052.601, 1676.373 1042.601, 1676.373 1032.601, 1676.373 1022.601, 1676.373 1012.601, 1676.373 1002.601, 1676.373 992.601, 1676.373 982.601, 1676.373 972.601, 1676.373 962.601, 1676.373 952.601, 1676.373 942.601, 1676.373 932.601, 1676.374 922.601, 1676.374 912.601, 1676.374 902.601, 1676.374 892.601, 1676.374 882.601, 1676.374 872.601, 1676.374 862.601, 1676.374 852.601, 1676.374 842.601, 1676.374 832.601, 1676.374 822.601, 1676.374 812.601, 1676.374 802.601, 1676.374 792.601, 1676.374 782.601, 1676.374 772.601, 1676.374 762.601, 1676.374 752.601, 1676.374 742.601, 1676.374 732.601, 1676.375 722.601, 1676.375 712.601, 1676.375 702.601, 1676.375 692.601, 1676.375 682.601, 1676.375 672.601, 1676.375 662.601, 1676.375 652.601, 1676.375 642.601, 1676.375 632.601, 1676.375 622.601, 1676.375 612.601, 1676.375 602.601, 1676.375 592.601, 1676.375 582.601, 1676.375 572.601, 1676.375 562.601, 1676.375 552.601, 1676.375 542.601, 1676.375 532.601, 1676.376 522.601, 1676.376 512.601, 1676.376 502.601, 1676.376 492.601, 1676.376 482.601, 1676.376 472.601, 1676.376 462.601, 1676.376 452.601, 1676.376 442.601, 1676.376 432.601, 1676.376 422.601, 1676.376 412.601, 1676.376 402.601, 1676.376 392.601, 1676.376 382.601, 1676.376 372.601, 1676.376 362.601, 1676.376 352.601, 1676.376 342.601, 1676.376 332.601, 1676.377 322.601, 1676.377 312.601, 1676.377 302.601, 1676.377 292.601, 1676.377 282.601, 1676.377 272.601, 1676.377 262.601, 1676.377 252.601, 1676.377 242.601, 1676.377 232.601, 1676.377 222.601, 1676.377 212.601, 1676.377 202.601, 1676.377 192.601, 1676.377 182.601, 1676.377 172.601, 1676.377 157.109, 1676.377 " />
            <path fill="none" stroke-width="3.0" stroke-linecap="butt" stroke-opacity="1.0" stroke="rgb(0, 0, 0)" stroke-linejoin="round" d=" M 2594.588, 950.607 2594.380, 940.609 2594.172, 930.611 2593.964, 920.614 2593.757, 910.616 2593.549, 900.618 2593.341, 890.620 2593.133, 880.622 2592.926, 870.624 2592.718, 860.626 2592.510, 850.629 2592.302, 840.631 2592.206, 836.002 " />
            <path fill="none" stroke-width="3.0" stroke-linecap="butt" stroke-opacity="1.0" stroke="rgb(0, 0, 0)" stroke-linejoin="round" d=" M 2672.203, 1598.378 2671.013, 1588.449 2669.823, 1578.520 2668.634, 1568.591 2667.444, 1558.662 2666.254, 1548.733 2665.065, 1538.804 2663.875, 1528.875 2662.686, 1518.946 2661.496, 1509.017 2660.306, 1499.088 2659.116, 1489.159 2657.927, 1479.230 2656.737, 1469.301 2655.547, 1459.372 2654.358, 1449.443 2653.168, 1439.514 2651.978, 1429.585 2650.789, 1419.656 2649.599, 1409.727 2648.409, 1399.798 2647.219, 1389.869 2646.030, 1379.940 2644.840, 1370.011 2643.651, 1360.082 2642.461, 1350.153 2641.271, 1340.224 2640.082, 1330.295 2638.892, 1320.366 2637.702, 1310.437 2636.512, 1300.508 2635.323, 1290.579 2634.133, 1280.650 2632.943, 1270.721 2631.754, 1260.792 2630.564, 1250.863 2629.374, 1240.934 2628.185, 1231.005 2626.995, 1221.076 2625.805, 1211.147 2624.616, 1201.218 2623.426, 1191.289 2622.236, 1181.360 2621.047, 1171.431 2619.857, 1161.502 2618.667, 1151.573 2617.478, 1141.644 2616.288, 1131.716 2615.098, 1121.787 2613.908, 1111.858 2612.719, 1101.929 2611.529, 1092.000 2610.339, 1082.071 2609.150, 1072.142 2607.960, 1062.213 2606.771, 1052.284 2605.581, 1042.355 2604.391, 1032.426 2603.201, 1022.497 2602.012, 1012.568 2600.822, 1002.639 2599.632, 992.710 2598.443, 982.781 2597.253, 972.852 2596.063, 962.923 2594.588, 950.607 " />
            <path fill="none" stroke-width="3.0" stroke-linecap="butt" stroke-opacity="1.0" stroke="rgb(0, 0, 0)" stroke-linejoin="round" d=" M 1997.440, 1676.369 2007.440, 1676.369 2017.440, 1676.369 2027.440, 1676.369 2037.440, 1676.368 2047.440, 1676.368 2057.440, 1676.368 2067.440, 1676.368 2077.440, 1676.368 2087.440, 1676.368 2097.440, 1676.368 2107.440, 1676.368 2117.440, 1676.368 2127.440, 1676.368 2137.440, 1676.368 2147.440, 1676.368 2157.440, 1676.368 2167.440, 1676.368 2177.440, 1676.368 2187.440, 1676.368 2197.440, 1676.368 2207.440, 1676.368 2217.440, 1676.368 2227.440, 1676.368 2237.440, 1676.368 2247.440, 1676.367 2257.440, 1676.367 2267.440, 1676.367 2277.440, 1676.367 2287.440, 1676.367 2297.440, 1676.367 2307.440, 1676.367 2317.440, 1676.367 2327.440, 1676.367 2337.440, 1676.367 2347.440, 1676.367 2357.440, 1676.367 2367.440, 1676.367 2377.440, 1676.367 2387.440, 1676.367 2397.440, 1676.367 2407.440, 1676.367 2417.440, 1676.367 2427.440, 1676.367 2437.440, 1676.367 2447.440, 1676.367 2457.440, 1676.367 2467.440, 1676.366 2477.440, 1676.366 2487.440, 1676.366 2497.440, 1676.366 2507.440, 1676.366 2517.440, 1676.366 2527.440, 1676.366 2537.440, 1676.366 2547.440, 1676.366 2557.440, 1676.366 2567.440, 1676.366 2577.440, 1676.366 2587.440, 1676.366 2597.440, 1676.366 2607.440, 1676.366 2617.440, 1676.366 2627.440, 1676.366 2637.440, 1676.366 2647.440, 1676.366 2657.440, 1676.366 2667.440, 1676.366 2677.440, 1676.365 2688.507, 1676.365 " />
            <path fill="none" stroke-width="3.0" stroke-linecap="butt" stroke-opacity="1.0" stroke="rgb(0, 0, 0)" stroke-linejoin="round" d=" M 157.109, 1676.377 167.109, 1676.377 177.109, 1676.377 187.109, 1676.377 197.109, 1676.377 207.109, 1676.377 217.109, 1676.377 227.109, 1676.377 237.109, 1676.377 247.109, 1676.377 257.109, 1676.377 267.109, 1676.377 277.109, 1676.377 287.109, 1676.377 297.109, 1676.377 307.109, 1676.377 317.109, 1676.377 327.109, 1676.377 337.109, 1676.377 347.109, 1676.376 357.109, 1676.376 367.109, 1676.376 377.109, 1676.376 387.109, 1676.376 397.109, 1676.376 407.109, 1676.376 417.109, 1676.376 427.109, 1676.376 437.109, 1676.376 447.109, 1676.376 457.109, 1676.376 467.109, 1676.376 477.109, 1676.376 487.109, 1676.376 497.109, 1676.376 507.109, 1676.376 517.109, 1676.376 527.109, 1676.376 537.109, 1676.376 547.109, 1676.376 557.109, 1676.375 567.109, 1676.375 577.109, 1676.375 587.109, 1676.375 597.109, 1676.375 607.109, 1676.375 617.109, 1676.375 627.109, 1676.375 637.109, 1676.375 647.109, 1676.375 657.109, 1676.375 667.109, 1676.375 677.109, 1676.375 687.109, 1676.375 697.109, 1676.375 707.109, 1676.375 717.109, 1676.375 727.109, 1676.375 737.109, 1676.375 747.109, 1676.375 757.109, 1676.375 767.109, 1676.374 777.109, 1676.374 787.109, 1676.374 797.109, 1676.374 807.109, 1676.374 817.109, 1676.374 827.109, 1676.374 837.109, 1676.374 847.109, 1676.374 857.109, 1676.374 867.109, 1676.374 877.109, 1676.374 887.109, 1676.374 897.109, 1676.374 907.109, 1676.374 917.109, 1676.374 927.109, 1676.374 937.109, 1676.374 947.109, 1676.374 957.109, 1676.374 967.109, 1676.374 977.109, 1676.374 987.109, 1676.373 997.109, 1676.373 1007.109, 1676.373 1017.109, 1676.373 1027.109, 1676.373 1037.109, 1676.373 1047.109, 1676.373 1057.109, 1676.373 1067.109, 1676.373 1077.109, 1676.373 1087.109, 1676.373 1097.109, 1676.373 1107.109, 1676.373 1117.109, 1676.373 1127.109, 1676.373 1137.109, 1676.373 1147.109, 1676.373 1157.109, 1676.373 1167.109, 1676.373 1177.109, 1676.373 1187.109, 1676.373 1197.109, 1676.372 1207.109, 1676.372 1217.109, 1676.372 1227.109, 1676.372 1237.109, 1676.372 1247.109, 1676.372 1257.109, 1676.372 1267.109, 1676.372 1277.109, 1676.372 1287.109, 1676.372 1297.109, 1676.372 1307.109, 1676.372 1317.109, 1676.372 1327.109, 1676.372 1337.109, 1676.372 1347.109, 1676.372 1357.109, 1676.372 1367.109, 1676.372 1377.109, 1676.372 1387.109, 1676.372 1397.109, 1676.372 1407.109, 1676.371 1417.109, 1676.371 1427.109, 1676.371 1437.109, 1676.371 1447.109, 1676.371 1457.109, 1676.371 1467.109, 1676.371 1477.109, 1676.371 1497.261, 1676.371 " />
            <path fill="none" stroke-width="3.0" stroke-linecap="butt" stroke-opacity="1.0" stroke="rgb(0, 0, 0)" stroke-linejoin="round" d=" M 2688.507, 1676.365 2686.461, 1666.577 2684.415, 1656.789 2682.368, 1647.000 2680.322, 1637.212 2678.275, 1627.424 2676.229, 1617.635 2674.183, 1607.847 2672.203, 1598.378 " />
        </g>
    </g>
<g id="slice-labels"><text x="467.662" y="436.81825" text-anchor="middle" dominant-baseline="middle" font-family="Arial, sans-serif" font-size="59.06808237253431" font-weight="bold" fill="black" stroke="none" stroke-width="7.088169884704117" paint-order="stroke fill">Slice5 (Front)</text><text x="1356.0" y="436.81825" text-anchor="middle" dominant-baseline="middle" font-family="Arial, sans-serif" font-size="59.06808237253431" font-weight="bold" fill="black" stroke="none" stroke-width="7.088169884704117" paint-order="stroke fill">Slice5 (Front)</text><text x="2244.338" y="436.81825" text-anchor="middle" dominant-baseline="middle" font-family="Arial, sans-serif" font-size="59.06808237253431" font-weight="bold" fill="black" stroke="none" stroke-width="7.088169884704117" paint-order="stroke fill">Slice5 (Front)</text><text x="467.662" y="1263.19075" text-anchor="middle" dominant-baseline="middle" font-family="Arial, sans-serif" font-size="59.06808237253431" font-weight="bold" fill="black" stroke="none" stroke-width="7.088169884704117" paint-order="stroke fill">Slice5 (Front)</text><text x="1356.0" y="1263.19075" text-anchor="middle" dominant-baseline="middle" font-family="Arial, sans-serif" font-size="59.06808237253431" font-weight="bold" fill="black" stroke="none" stroke-width="7.088169884704117" paint-order="stroke fill">Slice5 (Front)</text><text x="2244.338" y="1263.19075" text-anchor="middle" dominant-baseline="middle" font-family="Arial, sans-serif" font-size="59.06808237253431" font-weight="bold" fill="black" stroke="none" stroke-width="7.088169884704117" paint-order="stroke fill">Slice5 (Front)</text></g></svg></g></svg>