<?xml version='1.0' encoding='utf-8'?>
<svg xmlns="http://www.w3.org/2000/svg" xmlns:inkscape="http://www.inkscape.org/namespaces/inkscape" version="1.1" width="297.000000mm" height="420.000000mm" viewBox="0 0 297.000000 420.000000"><svg inkscape:label="Slice45_back" data-source="Slice45_back.svg" x="10.000000" y="10.000000" width="220.869060" height="173.284165" viewBox="-0.04893355261750898 0.004057182303405682 2609.1188671052346 2047.000885635393" preserveAspectRatio="none"><g id="ViewLayer_LineSet" inkscape:groupmode="lineset" inkscape:label="ViewLayer_LineSet">
        <g inkscape:groupmode="layer" id="strokes" inkscape:label="strokes">
            <path fill="none" stroke-width="3.0" stroke-linecap="butt" stroke-opacity="1.0" stroke="rgb(0, 0, 0)" stroke-linejoin="round" d=" M 2432.085, 1191.214 2430.586, 1181.327 2429.087, 1171.440 2427.589, 1161.553 2426.090, 1151.666 2424.591, 1141.779 2423.092, 1131.892 2421.593, 1122.005 2420.094, 1112.118 2418.595, 1102.231 2417.096, 1092.344 2415.598, 1082.457 2414.099, 1072.570 2412.600, 1062.683 2411.101, 1052.796 2409.602, 1042.909 2408.103, 1033.022 2406.676, 1023.606 2404.495, 1013.847 2402.315, 1004.088 2400.134, 994.328 2397.954, 984.569 2395.773, 974.810 2393.592, 965.050 2391.412, 955.291 2389.231, 945.531 2387.051, 935.772 2384.870, 926.013 2382.689, 916.253 2380.509, 906.494 2378.328, 896.735 2376.148, 886.975 2373.967, 877.216 2371.786, 867.457 2369.606, 857.697 2367.425, 847.938 2365.245, 838.179 2363.064, 828.419 2360.884, 818.660 2358.703, 808.901 2356.522, 799.141 2354.342, 789.382 2352.161, 779.622 2349.980, 769.863 2347.800, 760.104 2345.619, 750.344 2343.439, 740.585 2341.258, 730.826 2339.078, 721.066 2336.897, 711.307 2334.716, 701.548 2332.536, 691.788 2330.355, 682.029 2328.175, 672.270 2325.994, 662.510 2323.813, 652.751 2321.633, 642.991 2319.452, 633.232 2317.272, 623.473 2315.091, 613.713 2312.910, 603.954 2310.730, 594.195 2308.577, 584.560 2309.802, 574.635 2311.027, 564.711 2312.252, 554.786 2313.477, 544.861 2314.702, 534.937 2315.927, 525.012 2317.152, 515.087 2318.377, 505.162 2319.602, 495.238 2320.827, 485.313 2322.052, 475.388 2323.277, 465.464 2324.501, 455.539 2325.727, 445.614 2326.951, 435.690 2328.176, 425.765 2329.401, 415.840 2330.626, 405.916 2331.851, 395.991 2333.076, 386.066 2334.301, 376.141 2335.526, 366.217 2336.751, 356.292 2337.976, 346.367 2339.201, 336.443 2340.426, 326.518 2341.651, 316.593 2342.876, 306.669 2344.101, 296.744 2345.326, 286.819 2346.551, 276.895 2347.776, 266.970 2349.000, 257.045 2349.456, 253.353 2345.093, 244.355 2340.730, 235.357 2336.367, 226.359 2332.005, 217.360 2327.642, 208.362 2323.279, 199.364 2318.916, 190.366 2314.553, 181.368 2310.190, 172.370 2305.827, 163.372 2301.464, 154.374 2297.101, 145.376 2292.738, 136.378 2288.375, 127.380 2284.012, 118.382 2279.650, 109.384 2275.287, 100.386 2270.924, 91.388 2266.561, 82.390 2262.198, 73.392 2257.835, 64.394 2253.472, 55.396 2249.109, 46.397 2244.746, 37.399 2240.383, 28.401 2238.070, 23.630 2228.070, 23.630 2218.070, 23.630 2211.039, 23.630 2201.039, 23.631 2191.039, 23.631 2181.039, 23.631 2171.039, 23.631 2161.039, 23.631 2151.039, 23.631 2141.039, 23.631 2132.169, 23.631 2132.169, 23.631 2131.810, 23.726 2131.523, 23.726 2131.240, 23.726 2130.962, 23.726 2130.690, 23.726 2130.425, 23.726 " />
            <path fill="none" stroke-width="3.0" stroke-linecap="butt" stroke-opacity="1.0" stroke="rgb(0, 0, 0)" stroke-linejoin="round" d=" M 2130.425, 23.726 2130.132, 23.684 2120.132, 23.684 2110.132, 23.683 2100.132, 23.683 2090.132, 23.683 2080.132, 23.682 2070.132, 23.682 2060.132, 23.681 2050.132, 23.681 2040.132, 23.681 2030.132, 23.680 2020.132, 23.680 2010.132, 23.679 2000.132, 23.679 1990.132, 23.678 1980.132, 23.678 1970.132, 23.678 1960.132, 23.677 1950.132, 23.677 1940.132, 23.676 1930.132, 23.676 1920.132, 23.675 1910.132, 23.675 1900.132, 23.675 1890.132, 23.674 1880.132, 23.674 1870.132, 23.673 1860.132, 23.673 1850.132, 23.672 1840.132, 23.672 1830.132, 23.672 1820.132, 23.671 1810.132, 23.671 1800.132, 23.670 1790.132, 23.670 1780.132, 23.670 1770.132, 23.669 1760.132, 23.669 1750.132, 23.668 1740.132, 23.668 1730.132, 23.667 1720.132, 23.667 1710.132, 23.667 1700.132, 23.666 1690.132, 23.666 1680.132, 23.665 1670.132, 23.665 1660.132, 23.664 1650.132, 23.664 1640.132, 23.664 1630.132, 23.663 1620.132, 23.663 1610.132, 23.662 1600.132, 23.662 1590.132, 23.661 1580.132, 23.661 1570.132, 23.661 1560.132, 23.660 1550.132, 23.660 1540.132, 23.659 1530.132, 23.659 1520.132, 23.658 1510.132, 23.658 1500.132, 23.658 1490.132, 23.657 1480.132, 23.657 1470.132, 23.656 1460.132, 23.656 1450.132, 23.656 1440.132, 23.655 1430.132, 23.655 1420.132, 23.654 1410.132, 23.654 1400.132, 23.653 1390.132, 23.653 1380.132, 23.653 1370.132, 23.652 1360.132, 23.652 1350.132, 23.651 1340.132, 23.651 1330.132, 23.650 1320.132, 23.650 1310.132, 23.650 1300.132, 23.649 1290.132, 23.649 1280.132, 23.648 1270.132, 23.648 1260.132, 23.647 1250.132, 23.647 1240.132, 23.647 1230.132, 23.646 1220.132, 23.646 1210.132, 23.645 1200.132, 23.645 1190.132, 23.645 1180.132, 23.644 1170.132, 23.644 1160.132, 23.643 1150.132, 23.643 1140.132, 23.642 1130.132, 23.642 1120.132, 23.641 1110.132, 23.641 1100.132, 23.641 1090.132, 23.640 1080.132, 23.640 1059.441, 23.639 " />
            <path fill="none" stroke-width="3.0" stroke-linecap="butt" stroke-opacity="1.0" stroke="rgb(0, 0, 0)" stroke-linejoin="round" d=" M 1481.758, 893.339 1484.327, 893.992 1486.859, 894.774 1489.350, 895.681 1491.792, 896.710 1494.181, 897.860 1496.508, 899.127 " />
            <path fill="none" stroke-width="3.0" stroke-linecap="butt" stroke-opacity="1.0" stroke="rgb(0, 0, 0)" stroke-linejoin="round" d=" M 1473.902, 892.154 1476.539, 892.418 1479.160, 892.813 1481.758, 893.339 " />
            <path fill="none" stroke-width="3.0" stroke-linecap="butt" stroke-opacity="1.0" stroke="rgb(0, 0, 0)" stroke-linejoin="round" d=" M 1437.550, 1679.351 1435.031, 1676.768 1432.644, 1674.064 1430.395, 1671.242 1428.288, 1668.313 1426.331, 1665.283 1424.527, 1662.158 1422.881, 1658.948 1421.398, 1655.660 1420.080, 1652.301 1418.931, 1648.881 1417.954, 1645.409 1417.151, 1641.892 1416.524, 1638.338 1416.076, 1634.758 1415.806, 1631.162 1415.716, 1627.554 1415.806, 1623.948 1416.076, 1620.351 1416.524, 1616.771 1417.151, 1613.218 1417.954, 1609.701 1418.931, 1606.228 1420.080, 1602.808 1421.398, 1599.450 1422.881, 1596.161 1424.527, 1592.951 1426.331, 1589.826 1428.288, 1586.796 1430.395, 1583.866 1432.644, 1581.046 1435.031, 1578.341 1437.550, 1575.758 1440.195, 1573.305 1442.958, 1570.985 1445.834, 1568.807 1448.815, 1566.775 1451.893, 1564.894 1455.062, 1563.168 1458.312, 1561.603 1461.636, 1560.202 1465.027, 1558.968 1468.474, 1557.904 1471.970, 1557.014 1475.506, 1556.300 1479.074, 1555.762 1482.664, 1555.403 1486.267, 1555.223 1489.874, 1555.223 1493.478, 1555.403 1497.068, 1555.762 1500.635, 1556.300 1504.171, 1557.014 1507.667, 1557.904 1511.114, 1558.968 1514.505, 1560.202 1517.829, 1561.603 1521.079, 1563.168 1524.248, 1564.894 1527.326, 1566.775 1530.307, 1568.807 1533.183, 1570.985 1535.947, 1573.305 1538.591, 1575.758 1541.110, 1578.341 1543.497, 1581.046 1545.747, 1583.866 1547.853, 1586.796 1549.810, 1589.826 1551.614, 1592.951 1553.260, 1596.161 1554.743, 1599.450 1556.061, 1602.808 1557.210, 1606.228 1558.188, 1609.701 1558.990, 1613.218 1559.617, 1616.771 1560.065, 1620.351 1560.335, 1623.948 1560.425, 1627.554 1560.335, 1631.162 1560.065, 1634.758 1559.617, 1638.338 1558.990, 1641.892 1558.188, 1645.409 1557.210, 1648.881 1556.061, 1652.301 1554.743, 1655.660 1553.260, 1658.948 1551.614, 1662.158 1549.810, 1665.283 1547.853, 1668.313 1545.747, 1671.242 1543.497, 1674.064 1541.110, 1676.768 1538.591, 1679.351 1535.947, 1681.805 1533.183, 1684.123 1530.307, 1686.302 1527.326, 1688.335 1524.248, 1690.215 1521.079, 1691.941 1517.829, 1693.506 1514.505, 1694.908 1511.114, 1696.142 1507.667, 1697.205 1504.171, 1698.095 1500.635, 1698.810 1497.068, 1699.348 1493.478, 1699.707 1489.874, 1699.886 1486.267, 1699.886 1482.664, 1699.707 1479.074, 1699.348 1475.506, 1698.810 1471.970, 1698.095 1468.474, 1697.205 1465.027, 1696.142 1461.636, 1694.908 1458.312, 1693.506 1455.062, 1691.941 1451.893, 1690.215 1448.815, 1688.335 1445.834, 1686.302 1442.958, 1684.123 1440.195, 1681.805 1437.550, 1679.351 " />
            <path fill="none" stroke-width="3.0" stroke-linecap="butt" stroke-opacity="1.0" stroke="rgb(0, 0, 0)" stroke-linejoin="round" d=" M 23.577, 2023.379 33.577, 2023.378 43.577, 2023.378 53.577, 2023.378 63.577, 2023.378 73.577, 2023.378 83.577, 2023.378 93.577, 2023.377 103.577, 2023.377 113.577, 2023.377 123.577, 2023.377 133.577, 2023.377 143.577, 2023.377 153.577, 2023.376 163.577, 2023.376 173.577, 2023.376 183.577, 2023.376 193.577, 2023.376 203.577, 2023.375 213.577, 2023.375 223.577, 2023.375 233.577, 2023.375 243.577, 2023.375 253.577, 2023.375 263.577, 2023.374 273.577, 2023.374 283.577, 2023.374 293.577, 2023.374 303.577, 2023.374 313.577, 2023.374 323.577, 2023.373 333.577, 2023.373 343.577, 2023.373 353.577, 2023.373 363.577, 2023.373 373.577, 2023.372 383.577, 2023.372 393.577, 2023.372 403.577, 2023.372 413.577, 2023.372 423.577, 2023.372 433.577, 2023.371 443.577, 2023.371 453.577, 2023.371 462.769, 2023.371 465.806, 2023.371 466.723, 2023.371 468.732, 2023.371 471.538, 2023.371 474.212, 2023.371 476.744, 2023.371 486.744, 2023.371 489.944, 2023.371 499.944, 2023.370 509.944, 2023.370 519.944, 2023.370 529.944, 2023.370 539.944, 2023.370 549.944, 2023.370 559.944, 2023.369 569.944, 2023.369 579.944, 2023.369 589.944, 2023.369 599.944, 2023.369 609.944, 2023.368 619.944, 2023.368 629.944, 2023.368 639.944, 2023.368 649.944, 2023.368 659.944, 2023.368 669.944, 2023.367 679.944, 2023.367 689.944, 2023.367 699.944, 2023.367 709.944, 2023.367 719.944, 2023.366 729.944, 2023.366 739.944, 2023.366 749.944, 2023.366 759.944, 2023.366 769.944, 2023.366 779.944, 2023.365 789.944, 2023.365 799.944, 2023.365 809.944, 2023.365 819.944, 2023.365 829.944, 2023.365 839.944, 2023.364 849.944, 2023.364 859.944, 2023.364 869.944, 2023.364 879.944, 2023.364 889.944, 2023.363 899.944, 2023.363 909.944, 2023.363 919.944, 2023.363 929.944, 2023.363 939.944, 2023.363 949.944, 2023.362 959.944, 2023.362 969.944, 2023.362 979.944, 2023.362 989.944, 2023.362 999.944, 2023.361 1009.944, 2023.361 1019.944, 2023.361 1029.944, 2023.361 1039.944, 2023.361 1049.944, 2023.361 1059.944, 2023.360 1069.944, 2023.360 1079.944, 2023.360 1088.808, 2023.360 1098.808, 2023.360 1108.808, 2023.359 1118.808, 2023.359 1128.808, 2023.359 1138.808, 2023.359 1148.808, 2023.359 1158.808, 2023.359 1168.808, 2023.358 1178.808, 2023.358 1188.808, 2023.358 1198.808, 2023.358 1208.808, 2023.358 1218.808, 2023.357 1228.808, 2023.357 1239.101, 2023.357 1249.101, 2023.357 1259.101, 2023.357 1269.101, 2023.357 1279.101, 2023.356 1289.101, 2023.356 1299.101, 2023.356 1301.659, 2023.356 1311.659, 2023.356 1321.659, 2023.356 1331.659, 2023.355 1341.659, 2023.355 1351.659, 2023.355 1361.659, 2023.355 1371.659, 2023.355 1381.659, 2023.354 1391.659, 2023.354 1398.386, 2023.354 1408.386, 2023.354 1418.386, 2023.354 1428.386, 2023.354 1438.386, 2023.353 1446.964, 2023.353 " />
            <path fill="none" stroke-width="3.0" stroke-linecap="butt" stroke-opacity="1.0" stroke="rgb(0, 0, 0)" stroke-linejoin="round" d=" M 1446.964, 2023.353 1447.910, 2023.353 1450.013, 2023.353 1450.341, 2023.353 1451.477, 2023.353 1453.099, 2023.353 " />
            <path fill="none" stroke-width="3.0" stroke-linecap="butt" stroke-opacity="1.0" stroke="rgb(0, 0, 0)" stroke-linejoin="round" d=" M 464.206, 965.834 461.925, 975.570 459.643, 985.306 457.362, 995.043 455.081, 1004.779 452.800, 1014.515 450.519, 1024.252 448.238, 1033.988 445.956, 1043.724 443.675, 1053.461 441.394, 1063.197 439.113, 1072.933 436.832, 1082.670 434.551, 1092.406 432.269, 1102.142 429.988, 1111.879 427.707, 1121.615 425.426, 1131.351 423.145, 1141.088 420.864, 1150.824 418.582, 1160.560 416.301, 1170.297 414.020, 1180.033 411.739, 1189.769 409.458, 1199.506 407.177, 1209.242 404.895, 1218.978 402.614, 1228.715 400.333, 1238.451 398.052, 1248.187 395.771, 1257.924 393.490, 1267.660 391.208, 1277.396 390.295, 1281.296 386.064, 1290.357 381.833, 1299.418 377.602, 1308.479 373.372, 1317.540 369.141, 1326.601 364.910, 1335.662 360.679, 1344.723 356.448, 1353.784 352.218, 1362.845 347.987, 1371.906 343.756, 1380.967 339.525, 1390.028 335.295, 1399.089 331.064, 1408.150 326.833, 1417.210 322.602, 1426.271 318.372, 1435.332 314.141, 1444.393 309.910, 1453.454 305.679, 1462.515 301.449, 1471.576 297.218, 1480.637 292.987, 1489.698 290.038, 1496.014 287.158, 1505.590 284.279, 1515.167 281.399, 1524.743 278.520, 1534.320 275.640, 1543.896 272.761, 1553.473 269.881, 1563.049 267.002, 1572.626 264.122, 1582.202 261.243, 1591.779 258.363, 1601.355 255.484, 1610.931 252.604, 1620.508 249.725, 1630.084 246.845, 1639.661 243.966, 1649.237 241.086, 1658.814 238.207, 1668.390 235.327, 1677.967 232.448, 1687.543 229.568, 1697.120 226.689, 1706.696 223.809, 1716.272 222.707, 1719.938 " />
            <path fill="none" stroke-width="3.0" stroke-linecap="butt" stroke-opacity="1.0" stroke="rgb(0, 0, 0)" stroke-linejoin="round" d=" M 1453.099, 2023.353 1456.212, 2023.353 1459.345, 2023.353 1462.490, 2023.353 1465.637, 2023.353 1468.778, 2023.353 1471.905, 2023.353 1472.055, 2023.353 1475.009, 2023.353 1485.009, 2023.352 1493.433, 2023.352 1503.433, 2023.352 1513.433, 2023.352 1523.433, 2023.352 1533.433, 2023.352 1543.433, 2023.351 1553.433, 2023.351 1563.433, 2023.351 1573.433, 2023.351 1583.433, 2023.351 1593.433, 2023.351 1603.433, 2023.350 1613.433, 2023.350 1623.433, 2023.350 1633.433, 2023.350 1643.433, 2023.350 1653.433, 2023.350 1663.433, 2023.349 1673.433, 2023.349 1683.433, 2023.349 1693.433, 2023.349 1703.433, 2023.349 1713.433, 2023.348 1723.433, 2023.348 1733.433, 2023.348 1743.433, 2023.348 1753.433, 2023.348 1763.433, 2023.348 1773.433, 2023.347 1783.433, 2023.347 1793.433, 2023.347 1803.433, 2023.347 1813.433, 2023.347 1823.433, 2023.347 1833.433, 2023.346 1843.433, 2023.346 1853.433, 2023.346 1863.433, 2023.346 1873.433, 2023.346 1883.433, 2023.346 1893.433, 2023.345 1903.433, 2023.345 1913.433, 2023.345 1923.433, 2023.345 1933.433, 2023.345 1943.433, 2023.344 1953.433, 2023.344 1963.433, 2023.344 1973.433, 2023.344 1983.433, 2023.344 1993.433, 2023.344 2003.433, 2023.343 2013.433, 2023.343 2023.433, 2023.343 2033.433, 2023.343 2043.433, 2023.343 2053.433, 2023.343 2063.433, 2023.342 2073.433, 2023.342 2083.433, 2023.342 2093.433, 2023.342 2103.433, 2023.342 2113.433, 2023.342 2123.964, 2023.341 2133.964, 2023.341 2143.964, 2023.341 2153.964, 2023.341 2163.964, 2023.341 2173.964, 2023.341 2183.964, 2023.340 2193.964, 2023.340 2203.964, 2023.340 2213.964, 2023.340 2223.964, 2023.340 2233.964, 2023.339 2243.964, 2023.339 2253.964, 2023.339 2263.964, 2023.339 2273.964, 2023.339 2283.964, 2023.339 2293.964, 2023.338 2303.964, 2023.338 2313.964, 2023.338 2323.964, 2023.338 2333.964, 2023.338 2343.964, 2023.338 2353.964, 2023.337 2363.964, 2023.337 2370.022, 2023.337 2371.192, 2023.337 2371.351, 2023.337 " />
            <path fill="none" stroke-width="3.0" stroke-linecap="butt" stroke-opacity="1.0" stroke="rgb(0, 0, 0)" stroke-linejoin="round" d=" M 1436.785, 986.724 1434.755, 985.021 1432.812, 983.219 1430.961, 981.320 1429.208, 979.333 1427.555, 977.261 1426.008, 975.109 1424.570, 972.883 1423.244, 970.587 1422.035, 968.229 1420.945, 965.812 1419.977, 963.345 1419.132, 960.832 1418.415, 958.281 1417.825, 955.697 1417.365, 953.087 1417.035, 950.457 1416.837, 947.813 1416.771, 945.164 1416.837, 942.514 " />
            <path fill="none" stroke-width="3.0" stroke-linecap="butt" stroke-opacity="1.0" stroke="rgb(0, 0, 0)" stroke-linejoin="round" d=" M 1463.319, 997.910 1460.698, 997.514 1458.100, 996.990 1455.532, 996.336 1452.999, 995.554 1450.508, 994.648 1448.066, 993.618 1445.678, 992.468 1443.350, 991.200 1441.088, 989.818 1438.898, 988.326 " />
            <path fill="none" stroke-width="3.0" stroke-linecap="butt" stroke-opacity="1.0" stroke="rgb(0, 0, 0)" stroke-linejoin="round" d=" M 1471.254, 998.306 1468.604, 998.306 1465.957, 998.173 1463.319, 997.910 " />
            <path fill="none" stroke-width="3.0" stroke-linecap="butt" stroke-opacity="1.0" stroke="rgb(0, 0, 0)" stroke-linejoin="round" d=" M 1416.837, 942.514 1417.035, 939.872 " />
            <path fill="none" stroke-width="3.0" stroke-linecap="butt" stroke-opacity="1.0" stroke="rgb(0, 0, 0)" stroke-linejoin="round" d=" M 1486.859, 995.554 1484.327, 996.336 1481.758, 996.990 1479.160, 997.514 1476.539, 997.910 1473.902, 998.173 " />
            <path fill="none" stroke-width="3.0" stroke-linecap="butt" stroke-opacity="1.0" stroke="rgb(0, 0, 0)" stroke-linejoin="round" d=" M 1417.035, 939.872 1417.365, 937.241 " />
            <path fill="none" stroke-width="3.0" stroke-linecap="butt" stroke-opacity="1.0" stroke="rgb(0, 0, 0)" stroke-linejoin="round" d=" M 1417.365, 937.241 1417.825, 934.631 1418.415, 932.047 1419.132, 929.495 1419.977, 926.983 1420.945, 924.516 " />
            <path fill="none" stroke-width="3.0" stroke-linecap="butt" stroke-opacity="1.0" stroke="rgb(0, 0, 0)" stroke-linejoin="round" d=" M 1420.945, 924.516 1422.035, 922.099 1423.244, 919.741 1424.570, 917.445 " />
            <path fill="none" stroke-width="3.0" stroke-linecap="butt" stroke-opacity="1.0" stroke="rgb(0, 0, 0)" stroke-linejoin="round" d=" M 1424.570, 917.445 1426.008, 915.219 " />
            <path fill="none" stroke-width="3.0" stroke-linecap="butt" stroke-opacity="1.0" stroke="rgb(0, 0, 0)" stroke-linejoin="round" d=" M 2371.351, 2023.337 2372.461, 2023.336 2373.824, 2023.336 2375.277, 2023.336 2376.813, 2023.336 2378.425, 2023.336 2380.108, 2023.336 2390.108, 2023.336 2400.108, 2023.336 2410.108, 2023.336 2420.108, 2023.336 2430.108, 2023.336 2440.108, 2023.335 2450.108, 2023.335 2460.108, 2023.335 2470.108, 2023.335 2480.108, 2023.335 2490.108, 2023.335 2500.108, 2023.334 2510.108, 2023.334 2520.108, 2023.334 2530.108, 2023.334 2540.108, 2023.334 2550.108, 2023.333 2560.108, 2023.333 2570.108, 2023.333 2580.108, 2023.333 2585.444, 2023.333 " />
            <path fill="none" stroke-width="3.0" stroke-linecap="butt" stroke-opacity="1.0" stroke="rgb(0, 0, 0)" stroke-linejoin="round" d=" M 1426.008, 915.219 1427.555, 913.066 1429.208, 910.994 1430.961, 909.007 1432.812, 907.110 1434.755, 905.307 1436.785, 903.603 1438.898, 902.003 1441.088, 900.509 1443.350, 899.127 1445.678, 897.860 1448.066, 896.710 " />
            <path fill="none" stroke-width="3.0" stroke-linecap="butt" stroke-opacity="1.0" stroke="rgb(0, 0, 0)" stroke-linejoin="round" d=" M 1494.181, 992.468 1491.792, 993.618 1489.350, 994.648 1486.859, 995.554 " />
            <path fill="none" stroke-width="3.0" stroke-linecap="butt" stroke-opacity="1.0" stroke="rgb(0, 0, 0)" stroke-linejoin="round" d=" M 1510.651, 979.333 1508.897, 981.320 1507.046, 983.219 1505.103, 985.021 1503.073, 986.724 1500.960, 988.326 1498.770, 989.818 1496.508, 991.200 " />
            <path fill="none" stroke-width="3.0" stroke-linecap="butt" stroke-opacity="1.0" stroke="rgb(0, 0, 0)" stroke-linejoin="round" d=" M 1521.444, 958.281 1520.726, 960.832 1519.882, 963.345 1518.913, 965.812 1517.823, 968.229 1516.614, 970.587 " />
            <path fill="none" stroke-width="3.0" stroke-linecap="butt" stroke-opacity="1.0" stroke="rgb(0, 0, 0)" stroke-linejoin="round" d=" M 1522.823, 950.457 1522.494, 953.087 1522.034, 955.697 1521.444, 958.281 " />
            <path fill="none" stroke-width="3.0" stroke-linecap="butt" stroke-opacity="1.0" stroke="rgb(0, 0, 0)" stroke-linejoin="round" d=" M 1522.034, 934.631 1522.494, 937.241 1522.823, 939.872 1523.021, 942.514 1523.087, 945.164 " />
            <path fill="none" stroke-width="3.0" stroke-linecap="butt" stroke-opacity="1.0" stroke="rgb(0, 0, 0)" stroke-linejoin="round" d=" M 1448.066, 896.710 1450.508, 895.681 1452.999, 894.774 1455.532, 893.992 1458.100, 893.339 1460.698, 892.813 1463.319, 892.418 1465.957, 892.154 1468.604, 892.022 1471.254, 892.022 1473.902, 892.154 " />
            <path fill="none" stroke-width="3.0" stroke-linecap="butt" stroke-opacity="1.0" stroke="rgb(0, 0, 0)" stroke-linejoin="round" d=" M 1521.444, 932.047 1522.034, 934.631 " />
            <path fill="none" stroke-width="3.0" stroke-linecap="butt" stroke-opacity="1.0" stroke="rgb(0, 0, 0)" stroke-linejoin="round" d=" M 1513.851, 915.219 1515.289, 917.445 1516.614, 919.741 1517.823, 922.099 1518.913, 924.516 1519.882, 926.983 1520.726, 929.495 1521.444, 932.047 " />
            <path fill="none" stroke-width="3.0" stroke-linecap="butt" stroke-opacity="1.0" stroke="rgb(0, 0, 0)" stroke-linejoin="round" d=" M 1512.303, 913.066 1513.851, 915.219 " />
            <path fill="none" stroke-width="3.0" stroke-linecap="butt" stroke-opacity="1.0" stroke="rgb(0, 0, 0)" stroke-linejoin="round" d=" M 2548.747, 1860.414 2547.073, 1850.555 2545.400, 1840.696 2543.727, 1830.837 2542.053, 1820.978 2540.380, 1811.119 2538.706, 1801.260 2537.033, 1791.401 2535.360, 1781.542 2533.686, 1771.683 2532.013, 1761.824 2530.339, 1751.965 2528.666, 1742.107 2526.992, 1732.247 2525.319, 1722.389 2523.646, 1712.530 2521.972, 1702.671 2520.299, 1692.812 2518.625, 1682.953 2516.952, 1673.094 2515.278, 1663.235 2513.386, 1652.086 2512.808, 1642.103 2512.230, 1632.120 2511.653, 1622.137 2511.075, 1612.153 2510.497, 1602.170 2509.919, 1592.187 2509.342, 1582.203 2508.764, 1572.220 2508.186, 1562.237 2507.608, 1552.254 2507.030, 1542.270 2506.452, 1532.287 2505.875, 1522.304 2505.297, 1512.320 2504.719, 1502.337 2504.141, 1492.354 2503.563, 1482.370 2502.986, 1472.387 2502.408, 1462.404 2501.830, 1452.421 2501.252, 1442.437 2500.674, 1432.454 2500.096, 1422.471 2499.519, 1412.487 2499.182, 1406.666 2498.604, 1396.682 2498.025, 1386.699 2497.447, 1376.716 2496.869, 1366.732 2496.290, 1356.739 2492.674, 1347.415 2489.057, 1338.092 2485.441, 1328.769 2481.825, 1319.446 2478.208, 1310.123 2474.592, 1300.799 2470.976, 1291.476 2467.359, 1282.153 2463.743, 1272.830 2460.127, 1263.507 2456.510, 1254.184 2452.894, 1244.860 2449.278, 1235.537 2445.661, 1226.214 2442.045, 1216.891 2438.428, 1207.568 2434.812, 1198.244 2432.085, 1191.214 " />
            <path fill="none" stroke-width="3.0" stroke-linecap="butt" stroke-opacity="1.0" stroke="rgb(0, 0, 0)" stroke-linejoin="round" d=" M 1057.782, 23.755 1047.782, 23.750 1037.782, 23.746 1027.782, 23.741 1017.783, 23.737 1007.783, 23.732 997.783, 23.728 987.783, 23.723 977.783, 23.718 967.783, 23.714 957.783, 23.709 947.783, 23.705 937.783, 23.700 927.783, 23.695 917.783, 23.691 907.783, 23.686 897.783, 23.682 887.783, 23.677 877.783, 23.672 867.783, 23.668 857.783, 23.663 847.783, 23.659 837.783, 23.654 827.783, 23.650 817.783, 23.645 807.839, 23.640 " />
            <path fill="none" stroke-width="3.0" stroke-linecap="butt" stroke-opacity="1.0" stroke="rgb(0, 0, 0)" stroke-linejoin="round" d=" M 1059.441, 23.639 1059.358, 23.657 1058.945, 23.746 1058.385, 23.746 1057.782, 23.755 " />
            <path fill="none" stroke-width="3.0" stroke-linecap="butt" stroke-opacity="1.0" stroke="rgb(0, 0, 0)" stroke-linejoin="round" d=" M 1507.046, 907.110 1508.897, 909.007 1510.651, 910.994 1512.303, 913.066 " />
            <path fill="none" stroke-width="3.0" stroke-linecap="butt" stroke-opacity="1.0" stroke="rgb(0, 0, 0)" stroke-linejoin="round" d=" M 1496.508, 899.127 1498.770, 900.509 1500.960, 902.003 1503.073, 903.603 1505.103, 905.307 1507.046, 907.110 " />
            <path fill="none" stroke-width="3.0" stroke-linecap="butt" stroke-opacity="1.0" stroke="rgb(0, 0, 0)" stroke-linejoin="round" d=" M 489.944, 2023.371 488.257, 2023.371 483.154, 2023.371 473.154, 2023.371 463.154, 2023.371 453.154, 2023.371 443.154, 2023.372 433.154, 2023.372 423.154, 2023.372 413.154, 2023.372 403.154, 2023.372 393.154, 2023.372 383.154, 2023.373 373.154, 2023.373 363.154, 2023.373 353.154, 2023.373 343.154, 2023.373 333.154, 2023.373 323.154, 2023.374 313.154, 2023.374 303.154, 2023.374 293.154, 2023.374 283.154, 2023.374 273.154, 2023.374 263.154, 2023.375 253.154, 2023.375 243.154, 2023.375 233.154, 2023.375 223.154, 2023.375 213.154, 2023.375 203.154, 2023.376 193.154, 2023.376 183.154, 2023.376 173.154, 2023.376 163.154, 2023.376 153.154, 2023.376 143.154, 2023.377 133.154, 2023.377 123.154, 2023.377 113.154, 2023.377 103.154, 2023.377 93.154, 2023.377 83.154, 2023.378 73.154, 2023.378 63.154, 2023.378 53.154, 2023.378 43.154, 2023.378 33.154, 2023.378 23.577, 2023.379 " />
            <path fill="none" stroke-width="3.0" stroke-linecap="butt" stroke-opacity="1.0" stroke="rgb(0, 0, 0)" stroke-linejoin="round" d=" M 2585.444, 2023.333 2575.444, 2023.333 2565.444, 2023.333 2555.444, 2023.333 2545.444, 2023.334 2535.444, 2023.334 2525.444, 2023.334 2515.444, 2023.334 2505.444, 2023.334 2495.444, 2023.335 2485.444, 2023.335 2475.444, 2023.335 2465.444, 2023.335 2455.444, 2023.335 2445.444, 2023.336 2435.444, 2023.336 2425.444, 2023.336 2415.444, 2023.336 2405.444, 2023.336 2395.444, 2023.337 2385.444, 2023.337 2375.444, 2023.337 2371.351, 2023.337 " />
            <path fill="none" stroke-width="3.0" stroke-linecap="butt" stroke-opacity="1.0" stroke="rgb(0, 0, 0)" stroke-linejoin="round" d=" M 1880.207, 1244.985 1877.688, 1242.402 1875.301, 1239.697 1873.052, 1236.876 1870.946, 1233.947 1868.988, 1230.917 1867.184, 1227.793 1865.538, 1224.582 1864.055, 1221.293 1862.737, 1217.935 1861.588, 1214.515 1860.611, 1211.043 1859.808, 1207.525 1859.181, 1203.973 1858.733, 1200.393 1858.463, 1196.795 1858.373, 1193.189 1858.463, 1189.582 1858.733, 1185.984 1859.181, 1182.404 1859.808, 1178.852 1860.611, 1175.334 1861.588, 1171.862 1862.737, 1168.442 1864.055, 1165.083 1865.538, 1161.795 1867.184, 1158.584 1868.988, 1155.460 1870.946, 1152.430 1873.052, 1149.501 1875.301, 1146.680 1877.688, 1143.975 1880.207, 1141.392 1882.852, 1138.938 1885.615, 1136.620 1888.491, 1134.441 1891.472, 1132.409 1894.550, 1130.528 1897.719, 1128.803 1900.969, 1127.237 1904.294, 1125.836 1907.684, 1124.602 1911.131, 1123.538 1914.627, 1122.648 1918.163, 1121.934 1921.731, 1121.396 1925.321, 1121.036 1928.924, 1120.856 1932.531, 1120.856 1936.135, 1121.036 1939.724, 1121.396 1943.292, 1121.934 1946.828, 1122.648 1950.324, 1123.538 1953.772, 1124.602 1957.162, 1125.836 1960.486, 1127.237 1963.737, 1128.803 1966.905, 1130.528 1969.983, 1132.409 1972.964, 1134.441 1975.840, 1136.620 1978.604, 1138.938 1981.248, 1141.392 1983.767, 1143.975 1986.154, 1146.680 1988.404, 1149.501 1990.510, 1152.430 1992.467, 1155.460 1994.271, 1158.584 1995.917, 1161.795 1997.401, 1165.083 1998.719, 1168.442 1999.868, 1171.862 2000.845, 1175.334 2001.647, 1178.852 2002.274, 1182.404 2002.722, 1185.984 2002.992, 1189.582 2003.082, 1193.189 2002.992, 1196.795 2002.722, 1200.393 2002.274, 1203.973 2001.647, 1207.525 2000.845, 1211.043 1999.868, 1214.515 1998.719, 1217.935 1997.401, 1221.293 1995.917, 1224.582 1994.271, 1227.793 1992.467, 1230.917 1990.510, 1233.947 1988.404, 1236.876 1986.154, 1239.697 1983.767, 1242.402 1981.248, 1244.985 1978.604, 1247.439 1975.840, 1249.757 1972.964, 1251.936 1969.983, 1253.968 1966.905, 1255.849 1963.737, 1257.574 1960.486, 1259.139 1957.162, 1260.541 1953.772, 1261.775 1950.324, 1262.838 1946.828, 1263.729 1943.292, 1264.444 1939.724, 1264.981 1936.135, 1265.341 1932.531, 1265.521 1928.924, 1265.521 1925.321, 1265.341 1921.731, 1264.981 1918.163, 1264.444 1914.627, 1263.729 1911.131, 1262.838 1907.684, 1261.775 1904.294, 1260.541 1900.969, 1259.139 1897.719, 1257.574 1894.550, 1255.849 1891.472, 1253.968 1888.491, 1251.936 1885.615, 1249.757 1882.852, 1247.439 1880.207, 1244.985 " />
            <path fill="none" stroke-width="3.0" stroke-linecap="butt" stroke-opacity="1.0" stroke="rgb(0, 0, 0)" stroke-linejoin="round" d=" M 2211.039, 23.630 2201.039, 23.631 2191.039, 23.631 2181.039, 23.631 2171.039, 23.631 2161.039, 23.631 2151.039, 23.631 2141.039, 23.631 2131.039, 23.631 2121.039, 23.631 2111.039, 23.631 2101.039, 23.631 2091.039, 23.631 2081.039, 23.631 2071.039, 23.631 2061.039, 23.632 2051.039, 23.632 2041.039, 23.632 2031.039, 23.632 2021.039, 23.632 2011.039, 23.632 2001.039, 23.632 1991.039, 23.632 1981.039, 23.632 1971.039, 23.632 1961.039, 23.632 1951.039, 23.632 1941.039, 23.632 1931.039, 23.632 1921.039, 23.633 1911.039, 23.633 1901.039, 23.633 1891.039, 23.633 1881.039, 23.633 1871.039, 23.633 1861.039, 23.633 1851.039, 23.633 1841.039, 23.633 1831.039, 23.633 1821.039, 23.633 1811.039, 23.633 1801.039, 23.633 1791.039, 23.633 1781.039, 23.634 1771.039, 23.634 1761.039, 23.634 1751.039, 23.634 1741.039, 23.634 1731.039, 23.634 1721.039, 23.634 1711.039, 23.634 1701.039, 23.634 1691.039, 23.634 1681.039, 23.634 1671.039, 23.634 1661.039, 23.634 1651.039, 23.634 1641.039, 23.635 1631.039, 23.635 1621.039, 23.635 1611.039, 23.635 1601.039, 23.635 1591.039, 23.635 1581.039, 23.635 1571.039, 23.635 1561.039, 23.635 1551.039, 23.635 1541.039, 23.635 1531.039, 23.635 1521.039, 23.635 1511.039, 23.635 1501.039, 23.635 1491.039, 23.635 1481.039, 23.636 1471.039, 23.636 1461.039, 23.636 1451.039, 23.636 1441.039, 23.636 1431.039, 23.636 1421.039, 23.636 1411.039, 23.636 1401.039, 23.636 1391.039, 23.636 1381.039, 23.636 1371.039, 23.636 1361.039, 23.636 1351.039, 23.637 1341.039, 23.637 1331.039, 23.637 1321.039, 23.637 1311.039, 23.637 1301.039, 23.637 1291.039, 23.637 1281.039, 23.637 1271.039, 23.637 1261.039, 23.637 1251.039, 23.637 1241.039, 23.637 1231.039, 23.637 1221.039, 23.637 1211.039, 23.638 1201.039, 23.638 1191.039, 23.638 1181.039, 23.638 1171.039, 23.638 1161.039, 23.638 1151.039, 23.638 1141.039, 23.638 1131.039, 23.638 1121.039, 23.638 1111.039, 23.638 1101.039, 23.638 1091.039, 23.638 1081.039, 23.638 1071.039, 23.639 1061.039, 23.639 1051.039, 23.639 1041.039, 23.639 1031.039, 23.639 1021.039, 23.639 1011.039, 23.639 1001.039, 23.639 991.039, 23.639 981.039, 23.639 971.039, 23.639 961.039, 23.639 951.039, 23.639 941.039, 23.639 931.039, 23.640 921.039, 23.640 911.039, 23.640 901.039, 23.640 891.039, 23.640 881.039, 23.640 871.039, 23.640 861.039, 23.640 851.039, 23.640 841.039, 23.640 831.039, 23.640 807.839, 23.640 " />
            <path fill="none" stroke-width="3.0" stroke-linecap="butt" stroke-opacity="1.0" stroke="rgb(0, 0, 0)" stroke-linejoin="round" d=" M 2211.039, 23.630 2201.039, 23.631 2191.039, 23.631 2181.039, 23.631 2171.039, 23.631 2161.039, 23.631 2151.039, 23.631 2141.039, 23.631 2131.039, 23.631 2121.039, 23.631 2111.039, 23.631 2101.039, 23.631 2091.039, 23.631 2081.039, 23.631 2071.039, 23.631 2061.039, 23.632 2051.039, 23.632 2041.039, 23.632 2031.039, 23.632 2021.039, 23.632 2011.039, 23.632 2001.039, 23.632 1991.039, 23.632 1981.039, 23.632 1971.039, 23.632 1961.039, 23.632 1951.039, 23.632 1941.039, 23.632 1931.039, 23.632 1921.039, 23.633 1911.039, 23.633 1901.039, 23.633 1891.039, 23.633 1881.039, 23.633 1871.039, 23.633 1861.039, 23.633 1851.039, 23.633 1841.039, 23.633 1831.039, 23.633 1821.039, 23.633 1811.039, 23.633 1801.039, 23.633 1791.039, 23.633 1781.039, 23.634 1771.039, 23.634 1761.039, 23.634 1751.039, 23.634 1741.039, 23.634 1731.039, 23.634 1721.039, 23.634 1711.039, 23.634 1701.039, 23.634 1691.039, 23.634 1681.039, 23.634 1671.039, 23.634 1661.039, 23.634 1651.039, 23.634 1641.039, 23.635 1631.039, 23.635 1621.039, 23.635 1611.039, 23.635 1601.039, 23.635 1591.039, 23.635 1581.039, 23.635 1571.039, 23.635 1561.039, 23.635 1551.039, 23.635 1541.039, 23.635 1531.039, 23.635 1521.039, 23.635 1511.039, 23.635 1501.039, 23.635 1491.039, 23.635 1481.039, 23.636 1471.039, 23.636 1461.039, 23.636 1451.039, 23.636 1441.039, 23.636 1431.039, 23.636 1421.039, 23.636 1411.039, 23.636 1401.039, 23.636 1391.039, 23.636 1381.039, 23.636 1371.039, 23.636 1361.039, 23.636 1351.039, 23.637 1341.039, 23.637 1331.039, 23.637 1321.039, 23.637 1311.039, 23.637 1301.039, 23.637 1291.039, 23.637 1281.039, 23.637 1271.039, 23.637 1261.039, 23.637 1251.039, 23.637 1241.039, 23.637 1231.039, 23.637 1221.039, 23.637 1211.039, 23.638 1201.039, 23.638 1191.039, 23.638 1181.039, 23.638 1171.039, 23.638 1161.039, 23.638 1151.039, 23.638 1141.039, 23.638 1131.039, 23.638 1121.039, 23.638 1111.039, 23.638 1101.039, 23.638 1091.039, 23.638 1081.039, 23.638 1071.039, 23.639 1061.039, 23.639 1051.039, 23.639 1041.039, 23.639 1031.039, 23.639 1021.039, 23.639 1011.039, 23.639 1001.039, 23.639 991.039, 23.639 981.039, 23.639 971.039, 23.639 961.039, 23.639 951.039, 23.639 941.039, 23.639 931.039, 23.640 921.039, 23.640 911.039, 23.640 901.039, 23.640 891.039, 23.640 881.039, 23.640 871.039, 23.640 861.039, 23.640 851.039, 23.640 841.039, 23.640 831.039, 23.640 807.839, 23.640 " />
            <path fill="none" stroke-width="3.0" stroke-linecap="butt" stroke-opacity="1.0" stroke="rgb(0, 0, 0)" stroke-linejoin="round" d=" M 60.086, 1953.367 55.462, 1962.234 50.838, 1971.101 46.214, 1979.968 41.591, 1988.834 36.967, 1997.701 32.343, 2006.568 27.719, 2015.435 23.577, 2023.379 " />
            <path fill="none" stroke-width="3.0" stroke-linecap="butt" stroke-opacity="1.0" stroke="rgb(0, 0, 0)" stroke-linejoin="round" d=" M 222.707, 1719.938 216.991, 1728.143 211.275, 1736.348 205.559, 1744.553 199.842, 1752.758 194.126, 1760.964 188.410, 1769.169 182.694, 1777.374 176.977, 1785.579 171.261, 1793.784 165.545, 1801.989 159.829, 1810.195 154.112, 1818.400 148.396, 1826.605 142.680, 1834.810 136.964, 1843.015 131.248, 1851.220 125.531, 1859.426 119.815, 1867.631 114.099, 1875.836 108.383, 1884.041 102.666, 1892.246 96.950, 1900.451 91.234, 1908.657 85.518, 1916.862 79.801, 1925.067 74.085, 1933.272 68.369, 1941.477 62.653, 1949.682 60.086, 1953.367 " />
            <path fill="none" stroke-width="3.0" stroke-linecap="butt" stroke-opacity="1.0" stroke="rgb(0, 0, 0)" stroke-linejoin="round" d=" M 23.577, 2023.379 33.577, 2023.378 43.577, 2023.378 53.577, 2023.378 63.577, 2023.378 73.577, 2023.378 83.577, 2023.378 93.577, 2023.377 103.577, 2023.377 113.577, 2023.377 123.577, 2023.377 133.577, 2023.377 143.577, 2023.377 153.577, 2023.376 163.577, 2023.376 173.577, 2023.376 183.577, 2023.376 193.577, 2023.376 203.577, 2023.376 213.577, 2023.375 223.577, 2023.375 233.577, 2023.375 243.577, 2023.375 253.577, 2023.375 263.577, 2023.375 273.577, 2023.374 283.577, 2023.374 293.577, 2023.374 303.577, 2023.374 313.577, 2023.374 323.577, 2023.374 333.577, 2023.373 343.577, 2023.373 353.577, 2023.373 363.577, 2023.373 373.577, 2023.373 383.577, 2023.373 393.577, 2023.372 403.577, 2023.372 413.577, 2023.372 423.577, 2023.372 433.577, 2023.372 443.577, 2023.371 453.577, 2023.371 463.577, 2023.371 476.744, 2023.371 " />
            <path fill="none" stroke-width="3.0" stroke-linecap="butt" stroke-opacity="1.0" stroke="rgb(0, 0, 0)" stroke-linejoin="round" d=" M 23.577, 2023.379 33.577, 2023.378 43.577, 2023.378 53.577, 2023.378 63.577, 2023.378 73.577, 2023.378 83.577, 2023.378 93.577, 2023.377 103.577, 2023.377 113.577, 2023.377 123.577, 2023.377 133.577, 2023.377 143.577, 2023.377 153.577, 2023.376 163.577, 2023.376 173.577, 2023.376 183.577, 2023.376 193.577, 2023.376 203.577, 2023.376 213.577, 2023.375 223.577, 2023.375 233.577, 2023.375 243.577, 2023.375 253.577, 2023.375 263.577, 2023.375 273.577, 2023.374 283.577, 2023.374 293.577, 2023.374 303.577, 2023.374 313.577, 2023.374 323.577, 2023.374 333.577, 2023.373 343.577, 2023.373 353.577, 2023.373 363.577, 2023.373 373.577, 2023.373 383.577, 2023.373 393.577, 2023.372 403.577, 2023.372 413.577, 2023.372 423.577, 2023.372 433.577, 2023.372 443.577, 2023.372 453.577, 2023.371 463.577, 2023.371 473.577, 2023.371 483.577, 2023.371 488.257, 2023.371 " />
            <path fill="none" stroke-width="3.0" stroke-linecap="butt" stroke-opacity="1.0" stroke="rgb(0, 0, 0)" stroke-linejoin="round" d=" M 23.577, 2023.379 33.577, 2023.378 43.577, 2023.378 53.577, 2023.378 63.577, 2023.378 73.577, 2023.378 83.577, 2023.378 93.577, 2023.377 103.577, 2023.377 113.577, 2023.377 123.577, 2023.377 133.577, 2023.377 143.577, 2023.377 153.577, 2023.376 163.577, 2023.376 173.577, 2023.376 183.577, 2023.376 193.577, 2023.376 203.577, 2023.376 213.577, 2023.375 223.577, 2023.375 233.577, 2023.375 243.577, 2023.375 253.577, 2023.375 263.577, 2023.374 273.577, 2023.374 283.577, 2023.374 293.577, 2023.374 303.577, 2023.374 313.577, 2023.374 323.577, 2023.373 333.577, 2023.373 343.577, 2023.373 353.577, 2023.373 363.577, 2023.373 373.577, 2023.373 383.577, 2023.372 393.577, 2023.372 403.577, 2023.372 413.577, 2023.372 423.577, 2023.372 433.577, 2023.371 443.577, 2023.371 453.577, 2023.371 466.723, 2023.371 " />
            <path fill="none" stroke-width="3.0" stroke-linecap="butt" stroke-opacity="1.0" stroke="rgb(0, 0, 0)" stroke-linejoin="round" d=" M 557.764, 701.849 554.424, 711.275 551.083, 720.701 547.743, 730.126 544.402, 739.552 541.062, 748.977 537.721, 758.403 534.381, 767.828 531.040, 777.254 527.700, 786.679 524.359, 796.105 521.019, 805.531 517.678, 814.956 514.338, 824.382 510.997, 833.807 507.657, 843.233 504.316, 852.658 500.976, 862.084 497.635, 871.509 494.295, 880.935 490.954, 890.360 487.614, 899.786 484.273, 909.212 480.933, 918.637 477.592, 928.063 474.252, 937.488 470.911, 946.914 467.571, 956.339 464.206, 965.834 " />
            <path fill="none" stroke-width="3.0" stroke-linecap="butt" stroke-opacity="1.0" stroke="rgb(0, 0, 0)" stroke-linejoin="round" d=" M 805.334, 27.790 801.886, 37.177 798.438, 46.564 794.991, 55.951 791.543, 65.338 788.095, 74.725 784.648, 84.112 781.200, 93.499 777.753, 102.885 774.305, 112.272 770.857, 121.659 767.410, 131.046 763.962, 140.433 760.514, 149.820 757.067, 159.207 753.619, 168.594 750.172, 177.981 746.724, 187.368 743.276, 196.755 739.829, 206.141 736.381, 215.528 732.933, 224.915 729.486, 234.302 726.038, 243.689 722.591, 253.076 719.143, 262.463 715.695, 271.850 712.248, 281.237 708.800, 290.624 705.352, 300.010 701.905, 309.397 698.457, 318.784 695.009, 328.171 691.562, 337.558 688.114, 346.945 684.667, 356.332 681.219, 365.719 677.771, 375.106 674.324, 384.492 670.876, 393.879 667.428, 403.266 663.981, 412.653 660.533, 422.040 657.086, 431.427 653.638, 440.814 650.190, 450.201 646.743, 459.588 643.295, 468.975 639.847, 478.361 636.400, 487.748 632.952, 497.135 629.505, 506.522 626.057, 515.909 622.609, 525.296 619.162, 534.683 615.714, 544.070 612.266, 553.457 608.819, 562.844 605.371, 572.230 601.923, 581.617 598.476, 591.004 595.028, 600.391 591.581, 609.778 588.133, 619.165 584.685, 628.552 581.238, 637.939 577.790, 647.326 574.342, 656.713 570.895, 666.099 567.447, 675.486 564.000, 684.873 560.552, 694.260 557.764, 701.849 " />
            <path fill="none" stroke-width="3.0" stroke-linecap="butt" stroke-opacity="1.0" stroke="rgb(0, 0, 0)" stroke-linejoin="round" d=" M 807.839, 23.640 805.334, 27.790 " />
            <path fill="none" stroke-width="3.0" stroke-linecap="butt" stroke-opacity="1.0" stroke="rgb(0, 0, 0)" stroke-linejoin="round" d=" M 1059.441, 23.639 1049.441, 23.639 1039.441, 23.639 1029.441, 23.639 1019.441, 23.639 1009.441, 23.639 999.441, 23.639 989.441, 23.639 979.441, 23.639 969.441, 23.639 959.441, 23.640 949.441, 23.640 939.441, 23.640 929.441, 23.640 919.441, 23.640 909.441, 23.640 899.441, 23.640 889.441, 23.640 879.441, 23.640 869.441, 23.640 859.441, 23.640 849.441, 23.640 839.441, 23.640 829.441, 23.640 819.441, 23.640 807.839, 23.640 " />
            <path fill="none" stroke-width="3.0" stroke-linecap="butt" stroke-opacity="1.0" stroke="rgb(0, 0, 0)" stroke-linejoin="round" d=" M 1438.898, 988.326 1436.785, 986.724 " />
            <path fill="none" stroke-width="3.0" stroke-linecap="butt" stroke-opacity="1.0" stroke="rgb(0, 0, 0)" stroke-linejoin="round" d=" M 1301.659, 2023.356 1311.659, 2023.356 1321.659, 2023.356 1331.659, 2023.355 1341.659, 2023.355 1351.659, 2023.355 1361.659, 2023.355 1371.659, 2023.355 1381.659, 2023.355 1391.659, 2023.354 1401.659, 2023.354 1411.659, 2023.354 1421.659, 2023.354 1431.659, 2023.354 1441.659, 2023.353 1450.013, 2023.353 " />
            <path fill="none" stroke-width="3.0" stroke-linecap="butt" stroke-opacity="1.0" stroke="rgb(0, 0, 0)" stroke-linejoin="round" d=" M 1473.902, 998.173 1471.254, 998.306 " />
            <path fill="none" stroke-width="3.0" stroke-linecap="butt" stroke-opacity="1.0" stroke="rgb(0, 0, 0)" stroke-linejoin="round" d=" M 1496.508, 991.200 1494.181, 992.468 " />
            <path fill="none" stroke-width="3.0" stroke-linecap="butt" stroke-opacity="1.0" stroke="rgb(0, 0, 0)" stroke-linejoin="round" d=" M 1512.303, 977.261 1510.651, 979.333 " />
            <path fill="none" stroke-width="3.0" stroke-linecap="butt" stroke-opacity="1.0" stroke="rgb(0, 0, 0)" stroke-linejoin="round" d=" M 1513.851, 975.109 1512.303, 977.261 " />
            <path fill="none" stroke-width="3.0" stroke-linecap="butt" stroke-opacity="1.0" stroke="rgb(0, 0, 0)" stroke-linejoin="round" d=" M 1515.289, 972.883 1513.851, 975.109 " />
            <path fill="none" stroke-width="3.0" stroke-linecap="butt" stroke-opacity="1.0" stroke="rgb(0, 0, 0)" stroke-linejoin="round" d=" M 1516.614, 970.587 1515.289, 972.883 " />
            <path fill="none" stroke-width="3.0" stroke-linecap="butt" stroke-opacity="1.0" stroke="rgb(0, 0, 0)" stroke-linejoin="round" d=" M 1523.021, 947.813 1522.823, 950.457 " />
            <path fill="none" stroke-width="3.0" stroke-linecap="butt" stroke-opacity="1.0" stroke="rgb(0, 0, 0)" stroke-linejoin="round" d=" M 1523.087, 945.164 1523.021, 947.813 " />
            <path fill="none" stroke-width="3.0" stroke-linecap="butt" stroke-opacity="1.0" stroke="rgb(0, 0, 0)" stroke-linejoin="round" d=" M 1088.808, 2023.360 1098.808, 2023.360 1108.808, 2023.359 1118.808, 2023.359 1128.808, 2023.359 1138.808, 2023.359 1148.808, 2023.359 1158.808, 2023.359 1168.808, 2023.358 1178.808, 2023.358 1188.808, 2023.358 1198.808, 2023.358 1208.808, 2023.358 1218.808, 2023.358 1228.808, 2023.357 1238.808, 2023.357 1248.808, 2023.357 1258.808, 2023.357 1268.808, 2023.357 1278.808, 2023.356 1288.808, 2023.356 1298.808, 2023.356 1308.808, 2023.356 1318.808, 2023.356 1328.808, 2023.356 1338.808, 2023.355 1348.808, 2023.355 1358.808, 2023.355 1368.808, 2023.355 1378.808, 2023.355 1388.808, 2023.354 1398.808, 2023.354 1408.808, 2023.354 1418.808, 2023.354 1428.808, 2023.354 1438.808, 2023.354 1448.808, 2023.353 1458.808, 2023.353 1468.808, 2023.353 1478.808, 2023.353 1488.808, 2023.353 1498.808, 2023.353 1508.808, 2023.352 1518.808, 2023.352 1528.808, 2023.352 1538.808, 2023.352 1548.808, 2023.352 1558.808, 2023.351 1568.808, 2023.351 1578.808, 2023.351 1588.808, 2023.351 1598.808, 2023.351 1608.808, 2023.351 1618.808, 2023.350 1628.808, 2023.350 1638.808, 2023.350 1648.808, 2023.350 1658.808, 2023.350 1668.808, 2023.350 1678.808, 2023.349 1688.808, 2023.349 1698.808, 2023.349 1708.808, 2023.349 1718.808, 2023.349 1728.808, 2023.348 1738.808, 2023.348 1748.808, 2023.348 1758.808, 2023.348 1768.808, 2023.348 1778.808, 2023.348 1788.808, 2023.347 1798.808, 2023.347 1808.808, 2023.347 1818.808, 2023.347 1828.808, 2023.347 1838.808, 2023.347 1848.808, 2023.346 1858.808, 2023.346 1868.808, 2023.346 1878.808, 2023.346 1888.808, 2023.346 1898.808, 2023.345 1908.808, 2023.345 1918.808, 2023.345 1928.808, 2023.345 1938.808, 2023.345 1948.808, 2023.345 1958.808, 2023.344 1968.808, 2023.344 1978.808, 2023.344 1988.808, 2023.344 1998.808, 2023.344 2008.808, 2023.344 2018.808, 2023.343 2028.808, 2023.343 2038.808, 2023.343 2048.808, 2023.343 2058.808, 2023.343 2068.808, 2023.342 2078.808, 2023.342 2088.808, 2023.342 2098.808, 2023.342 2108.808, 2023.342 2118.808, 2023.342 2128.808, 2023.341 2138.808, 2023.341 2148.808, 2023.341 2158.808, 2023.341 2168.808, 2023.341 2178.808, 2023.341 2188.808, 2023.340 2198.808, 2023.340 2208.808, 2023.340 2218.808, 2023.340 2228.808, 2023.340 2238.808, 2023.339 2248.808, 2023.339 2258.808, 2023.339 2268.808, 2023.339 2278.808, 2023.339 2288.808, 2023.339 2298.808, 2023.338 2308.808, 2023.338 2318.808, 2023.338 2328.808, 2023.338 2338.808, 2023.338 2348.808, 2023.338 2371.192, 2023.337 " />
            <path fill="none" stroke-width="3.0" stroke-linecap="butt" stroke-opacity="1.0" stroke="rgb(0, 0, 0)" stroke-linejoin="round" d=" M 1472.055, 2023.353 1462.055, 2023.353 1452.055, 2023.353 1451.477, 2023.353 " />
            <path fill="none" stroke-width="3.0" stroke-linecap="butt" stroke-opacity="1.0" stroke="rgb(0, 0, 0)" stroke-linejoin="round" d=" M 2543.017, 1940.247 2543.732, 1930.273 2544.448, 1920.299 2545.164, 1910.324 2545.880, 1900.350 2546.596, 1890.376 2547.312, 1880.401 2548.028, 1870.427 2548.747, 1860.414 " />
            <path fill="none" stroke-width="3.0" stroke-linecap="butt" stroke-opacity="1.0" stroke="rgb(0, 0, 0)" stroke-linejoin="round" d=" M 2371.351, 2023.337 2381.351, 2023.337 2391.351, 2023.337 2401.351, 2023.336 2411.351, 2023.336 2421.351, 2023.336 2431.351, 2023.336 2441.351, 2023.336 2451.351, 2023.335 2461.351, 2023.335 2471.351, 2023.335 2481.351, 2023.335 2491.351, 2023.335 2501.351, 2023.335 2511.351, 2023.334 2521.351, 2023.334 2531.351, 2023.334 2541.351, 2023.334 2551.351, 2023.334 2561.351, 2023.333 2571.351, 2023.333 2581.351, 2023.333 2585.444, 2023.333 " />
            <path fill="none" stroke-width="3.0" stroke-linecap="butt" stroke-opacity="1.0" stroke="rgb(0, 0, 0)" stroke-linejoin="round" d=" M 2585.444, 2023.333 2580.896, 2014.427 2576.348, 2005.521 2571.800, 1996.615 2567.252, 1987.709 2562.705, 1978.803 2558.157, 1969.897 2553.609, 1960.991 2549.061, 1952.085 2544.513, 1943.179 2543.017, 1940.247 " />
        </g>
    </g>
<g id="slice-labels"><text x="450.55483333333325" y="523.56725" text-anchor="middle" dominant-baseline="middle" font-family="Arial, sans-serif" font-size="59.06485704424148" font-weight="bold" fill="black" stroke="none" stroke-width="7.087782845308978" paint-order="stroke fill">Slice45 (Back)</text><text x="1304.5104999999999" y="523.56725" text-anchor="middle" dominant-baseline="middle" font-family="Arial, sans-serif" font-size="59.06485704424148" font-weight="bold" fill="black" stroke="none" stroke-width="7.087782845308978" paint-order="stroke fill">Slice45 (Back)</text><text x="2158.4661666666666" y="523.56725" text-anchor="middle" dominant-baseline="middle" font-family="Arial, sans-serif" font-size="59.06485704424148" font-weight="bold" fill="black" stroke="none" stroke-width="7.087782845308978" paint-order="stroke fill">Slice45 (Back)</text><text x="450.55483333333325" y="1523.44175" text-anchor="middle" dominant-baseline="middle" font-family="Arial, sans-serif" font-size="59.06485704424148" font-weight="bold" fill="black" stroke="none" stroke-width="7.087782845308978" paint-order="stroke fill">Slice45 (Back)</text><text x="1304.5104999999999" y="1523.44175" text-anchor="middle" dominant-baseline="middle" font-family="Arial, sans-serif" font-size="59.06485704424148" font-weight="bold" fill="black" stroke="none" stroke-width="7.087782845308978" paint-order="stroke fill">Slice45 (Back)</text><text x="2158.4661666666666" y="1523.44175" text-anchor="middle" dominant-baseline="middle" font-family="Arial, sans-serif" font-size="59.06485704424148" font-weight="bold" fill="black" stroke="none" stroke-width="7.087782845308978" paint-order="stroke fill">Slice45 (Back)</text></g></svg><g inkscape:label="Slice45_front" data-source="Slice45_front.svg" transform="translate(183.284165 185.284165) rotate(90)"><svg inkscape:label="Slice45_front" data-source="Slice45_front.svg" x="0.000000" y="0.000000" width="220.869060" height="173.284165" viewBox="-0.0589243304629079 0.004057182303405682 2609.117848660926 2047.000885635393" preserveAspectRatio="none"><g id="ViewLayer_LineSet" inkscape:groupmode="lineset" inkscape:label="ViewLayer_LineSet">
        <g inkscape:groupmode="layer" id="strokes" inkscape:label="strokes">
            <path fill="none" stroke-width="3.0" stroke-linecap="butt" stroke-opacity="1.0" stroke="rgb(0, 0, 0)" stroke-linejoin="round" d=" M 1173.979, 1676.768 1171.460, 1679.351 1168.815, 1681.805 1166.052, 1684.123 1163.176, 1686.302 1160.195, 1688.335 1157.117, 1690.215 1153.949, 1691.941 1150.698, 1693.506 1147.374, 1694.908 1143.984, 1696.142 1140.536, 1697.205 1137.040, 1698.095 1133.504, 1698.810 1129.937, 1699.348 1126.347, 1699.707 1122.743, 1699.886 1119.136, 1699.886 1115.533, 1699.707 1111.943, 1699.348 1108.375, 1698.810 1104.839, 1698.095 1101.343, 1697.205 1097.896, 1696.142 1094.505, 1694.908 1091.181, 1693.506 1087.931, 1691.941 1084.762, 1690.215 1081.684, 1688.335 1078.703, 1686.302 1075.827, 1684.123 1073.064, 1681.805 1070.419, 1679.351 1067.900, 1676.768 1065.513, 1674.064 1063.264, 1671.242 1061.158, 1668.313 1059.200, 1665.283 1057.396, 1662.158 1055.751, 1658.948 1054.267, 1655.660 1052.949, 1652.301 1051.800, 1648.881 1050.823, 1645.409 1050.020, 1641.892 1049.393, 1638.338 1048.945, 1634.758 1048.675, 1631.162 1048.585, 1627.554 1048.675, 1623.948 1048.945, 1620.351 1049.393, 1616.771 1050.020, 1613.218 1050.823, 1609.701 1051.800, 1606.228 1052.949, 1602.808 1054.267, 1599.450 1055.751, 1596.161 1057.396, 1592.951 1059.200, 1589.826 1061.158, 1586.796 1063.264, 1583.866 1065.513, 1581.046 1067.900, 1578.341 1070.419, 1575.758 1073.064, 1573.305 1075.827, 1570.985 1078.703, 1568.807 1081.684, 1566.775 1084.762, 1564.894 1087.931, 1563.168 1091.181, 1561.603 1094.505, 1560.202 1097.896, 1558.968 1101.343, 1557.904 1104.839, 1557.014 1108.375, 1556.300 1111.943, 1555.762 1115.533, 1555.403 1119.136, 1555.223 1122.743, 1555.223 1126.347, 1555.403 1129.937, 1555.762 1133.504, 1556.300 1137.040, 1557.014 1140.536, 1557.904 1143.984, 1558.968 1147.374, 1560.202 1150.698, 1561.603 1153.949, 1563.168 1157.117, 1564.894 1160.195, 1566.775 1163.176, 1568.807 1166.052, 1570.985 1168.815, 1573.305 1171.460, 1575.758 1173.979, 1578.341 1176.366, 1581.046 1178.616, 1583.866 1180.722, 1586.796 1182.679, 1589.826 1184.483, 1592.951 1186.129, 1596.161 1187.613, 1599.450 1188.931, 1602.808 1190.080, 1606.228 1191.057, 1609.701 1191.859, 1613.218 1192.486, 1616.771 1192.934, 1620.351 1193.204, 1623.948 1193.294, 1627.554 1193.204, 1631.162 1192.934, 1634.758 1192.486, 1638.338 1191.859, 1641.892 1191.057, 1645.409 1190.080, 1648.881 1188.931, 1652.301 1187.613, 1655.660 1186.129, 1658.948 1184.483, 1662.158 1182.679, 1665.283 1180.722, 1668.313 1178.616, 1671.242 1176.366, 1674.064 1173.979, 1676.768 " />
            <path fill="none" stroke-width="3.0" stroke-linecap="butt" stroke-opacity="1.0" stroke="rgb(0, 0, 0)" stroke-linejoin="round" d=" M 176.925, 1191.214 173.309, 1200.537 169.692, 1209.861 166.076, 1219.184 162.460, 1228.507 158.843, 1237.830 155.227, 1247.153 151.610, 1256.477 147.994, 1265.800 144.378, 1275.123 140.761, 1284.446 137.145, 1293.769 133.529, 1303.093 129.912, 1312.416 126.296, 1321.739 122.680, 1331.062 119.063, 1340.385 115.447, 1349.709 112.720, 1356.739 112.142, 1366.722 111.564, 1376.705 110.985, 1386.688 110.407, 1396.672 109.828, 1406.666 " />
            <path fill="none" stroke-width="3.0" stroke-linecap="butt" stroke-opacity="1.0" stroke="rgb(0, 0, 0)" stroke-linejoin="round" d=" M 300.433, 584.560 298.253, 594.319 296.072, 604.079 293.891, 613.838 291.711, 623.597 289.530, 633.357 287.350, 643.116 285.169, 652.875 282.988, 662.635 280.808, 672.394 278.627, 682.154 276.447, 691.913 274.266, 701.672 272.085, 711.432 269.905, 721.191 267.724, 730.950 265.544, 740.710 263.363, 750.469 261.182, 760.228 259.002, 769.988 256.821, 779.747 254.641, 789.506 252.460, 799.266 250.279, 809.025 248.099, 818.785 245.918, 828.544 243.738, 838.303 241.557, 848.063 239.377, 857.822 237.196, 867.581 235.015, 877.341 232.835, 887.100 230.654, 896.859 228.474, 906.619 226.293, 916.378 224.112, 926.137 221.932, 935.897 219.751, 945.656 217.571, 955.416 215.390, 965.175 213.209, 974.934 211.029, 984.693 208.848, 994.453 206.668, 1004.212 204.487, 1013.972 202.334, 1023.606 200.835, 1033.493 199.337, 1043.380 197.838, 1053.267 196.339, 1063.154 194.840, 1073.042 193.341, 1082.929 191.842, 1092.816 190.343, 1102.703 188.844, 1112.590 187.346, 1122.477 185.847, 1132.364 184.348, 1142.251 182.849, 1152.138 181.350, 1162.025 179.851, 1171.912 178.352, 1181.799 176.925, 1191.214 " />
            <path fill="none" stroke-width="3.0" stroke-linecap="butt" stroke-opacity="1.0" stroke="rgb(0, 0, 0)" stroke-linejoin="round" d=" M 370.940, 23.630 366.577, 32.629 362.214, 41.627 357.851, 50.625 353.488, 59.623 349.126, 68.621 344.763, 77.619 340.400, 86.617 336.037, 95.615 331.674, 104.613 327.311, 113.611 322.948, 122.609 318.585, 131.607 314.222, 140.605 309.859, 149.603 305.496, 158.601 301.133, 167.599 296.771, 176.597 292.408, 185.595 288.045, 194.594 283.682, 203.592 279.319, 212.590 274.956, 221.588 270.593, 230.586 266.230, 239.584 261.867, 248.582 259.554, 253.353 260.779, 263.277 262.004, 273.202 263.229, 283.127 264.454, 293.051 265.679, 302.976 266.904, 312.901 268.129, 322.826 269.354, 332.750 270.579, 342.675 271.803, 352.600 273.028, 362.524 274.253, 372.449 275.478, 382.374 276.703, 392.298 277.928, 402.223 279.153, 412.148 280.378, 422.072 281.603, 431.997 282.828, 441.922 284.053, 451.847 285.278, 461.771 286.503, 471.696 287.728, 481.621 288.953, 491.545 290.178, 501.470 291.403, 511.395 292.628, 521.319 293.853, 531.244 295.078, 541.169 296.303, 551.093 297.527, 561.018 298.752, 570.943 299.977, 580.867 300.433, 584.560 " />
            <path fill="none" stroke-width="3.0" stroke-linecap="butt" stroke-opacity="1.0" stroke="rgb(0, 0, 0)" stroke-linejoin="round" d=" M 2548.925, 1953.367 2543.208, 1945.162 2537.492, 1936.957 2531.776, 1928.752 2526.060, 1920.546 2520.344, 1912.341 2514.627, 1904.136 2508.911, 1895.931 2503.195, 1887.726 2497.479, 1879.521 2491.762, 1871.316 2486.046, 1863.110 2480.330, 1854.905 2474.614, 1846.700 2468.897, 1838.495 2463.181, 1830.290 2457.465, 1822.085 2451.749, 1813.879 2446.032, 1805.674 2440.316, 1797.469 2434.600, 1789.264 2428.884, 1781.059 2423.167, 1772.854 2417.451, 1764.648 2411.735, 1756.443 2406.019, 1748.238 2400.302, 1740.033 2394.586, 1731.828 2388.870, 1723.623 2386.303, 1719.938 2383.423, 1710.361 2380.544, 1700.785 2377.664, 1691.208 2374.785, 1681.632 2371.906, 1672.056 2369.026, 1662.479 2366.146, 1652.903 2363.267, 1643.326 2360.387, 1633.750 2357.508, 1624.173 2354.628, 1614.597 2351.749, 1605.020 2348.869, 1595.444 2345.990, 1585.867 2343.110, 1576.291 2340.231, 1566.715 2337.351, 1557.138 2334.472, 1547.562 2331.593, 1537.985 2328.713, 1528.409 2325.833, 1518.832 2322.954, 1509.256 2320.074, 1499.679 2318.972, 1496.014 2314.741, 1486.953 2310.511, 1477.892 2306.280, 1468.831 2302.049, 1459.770 2297.818, 1450.709 2293.588, 1441.648 2289.357, 1432.587 2285.126, 1423.526 2280.896, 1414.466 2276.665, 1405.405 2272.434, 1396.344 2268.203, 1387.283 2263.972, 1378.222 2259.742, 1369.161 2255.511, 1360.100 2251.280, 1351.039 2247.049, 1341.978 2242.819, 1332.917 2238.588, 1323.856 2234.357, 1314.795 2230.126, 1305.734 2225.896, 1296.673 2221.665, 1287.612 2218.716, 1281.296 " />
            <path fill="none" stroke-width="3.0" stroke-linecap="butt" stroke-opacity="1.0" stroke="rgb(0, 0, 0)" stroke-linejoin="round" d=" M 2125.856, 2023.371 2135.856, 2023.371 2145.856, 2023.371 2155.856, 2023.371 2165.856, 2023.372 2175.856, 2023.372 2185.856, 2023.372 2195.856, 2023.372 2205.856, 2023.372 2215.856, 2023.372 2225.856, 2023.373 2235.856, 2023.373 2245.856, 2023.373 2255.856, 2023.373 2265.856, 2023.373 2275.856, 2023.373 2285.856, 2023.374 2295.856, 2023.374 2305.856, 2023.374 2315.856, 2023.374 2325.856, 2023.374 2335.856, 2023.374 2345.856, 2023.375 2355.856, 2023.375 2365.856, 2023.375 2375.856, 2023.375 2385.856, 2023.375 2395.856, 2023.375 2405.856, 2023.376 2415.856, 2023.376 2425.856, 2023.376 2435.856, 2023.376 2445.856, 2023.376 2455.856, 2023.376 2465.856, 2023.377 2475.856, 2023.377 2485.856, 2023.377 2495.856, 2023.377 2505.856, 2023.377 2515.856, 2023.377 2525.856, 2023.378 2535.856, 2023.378 2545.856, 2023.378 2555.856, 2023.378 2565.856, 2023.378 2575.856, 2023.378 2585.433, 2023.379 " />
            <path fill="none" stroke-width="3.0" stroke-linecap="butt" stroke-opacity="1.0" stroke="rgb(0, 0, 0)" stroke-linejoin="round" d=" M 2115.794, 2023.370 2115.814, 2023.370 2115.872, 2023.370 2116.446, 2023.370 2116.485, 2023.370 2116.530, 2023.370 2116.629, 2023.370 2116.701, 2023.370 2116.910, 2023.370 2117.730, 2023.370 2119.066, 2023.371 2120.753, 2023.371 2125.856, 2023.371 " />
            <path fill="none" stroke-width="3.0" stroke-linecap="butt" stroke-opacity="1.0" stroke="rgb(0, 0, 0)" stroke-linejoin="round" d=" M 1174.889, 2023.353 1184.889, 2023.353 1194.889, 2023.354 1204.889, 2023.354 1214.889, 2023.354 1224.889, 2023.354 1234.889, 2023.354 1244.889, 2023.355 1254.889, 2023.355 1264.889, 2023.355 1274.889, 2023.355 1284.889, 2023.355 1294.889, 2023.355 1304.889, 2023.356 1314.889, 2023.356 1324.889, 2023.356 1334.889, 2023.356 1344.889, 2023.356 1354.889, 2023.357 1364.889, 2023.357 1374.889, 2023.357 1384.889, 2023.357 1394.889, 2023.357 1404.889, 2023.358 1414.889, 2023.358 1424.889, 2023.358 1434.889, 2023.358 1444.889, 2023.358 1454.889, 2023.358 1464.889, 2023.359 1474.889, 2023.359 1484.889, 2023.359 1494.889, 2023.359 1504.889, 2023.359 1514.889, 2023.360 1524.889, 2023.360 1534.889, 2023.360 1544.889, 2023.360 1554.889, 2023.360 1564.889, 2023.360 1574.889, 2023.361 1584.889, 2023.361 1594.889, 2023.361 1604.889, 2023.361 1614.889, 2023.361 1624.889, 2023.362 1634.889, 2023.362 1644.889, 2023.362 1654.889, 2023.362 1664.889, 2023.362 1674.889, 2023.362 1684.889, 2023.363 1698.863, 2023.363 1708.863, 2023.363 1718.863, 2023.363 1720.741, 2023.363 1730.741, 2023.363 1740.741, 2023.364 1744.489, 2023.364 1754.489, 2023.364 1764.489, 2023.364 1774.489, 2023.364 1784.489, 2023.364 1792.765, 2023.365 1802.765, 2023.365 1812.765, 2023.365 1822.765, 2023.365 1824.708, 2023.365 1834.708, 2023.365 1844.708, 2023.366 1854.708, 2023.366 1864.708, 2023.366 1874.708, 2023.366 1884.708, 2023.366 1894.708, 2023.366 1903.882, 2023.367 1913.882, 2023.367 1923.882, 2023.367 1933.882, 2023.367 1943.882, 2023.367 1953.882, 2023.368 1963.882, 2023.368 1973.882, 2023.368 1983.882, 2023.368 1993.882, 2023.368 2003.882, 2023.368 2013.882, 2023.369 2023.882, 2023.369 2033.882, 2023.369 2043.882, 2023.369 2053.882, 2023.369 2063.882, 2023.370 2073.882, 2023.370 2083.882, 2023.370 2093.882, 2023.370 2102.001, 2023.370 2106.397, 2023.370 2107.952, 2023.370 2109.440, 2023.370 2109.955, 2023.370 2110.656, 2023.370 2110.971, 2023.370 2111.001, 2023.370 2111.246, 2023.370 2115.252, 2023.370 2115.656, 2023.370 2115.794, 2023.370 " />
            <path fill="none" stroke-width="3.0" stroke-linecap="butt" stroke-opacity="1.0" stroke="rgb(0, 0, 0)" stroke-linejoin="round" d=" M 1156.398, 2023.353 1156.465, 2023.353 1159.052, 2023.353 1160.861, 2023.353 1161.100, 2023.353 1162.872, 2023.353 1165.758, 2023.353 1170.358, 2023.353 1174.889, 2023.353 " />
            <path fill="none" stroke-width="3.0" stroke-linecap="butt" stroke-opacity="1.0" stroke="rgb(0, 0, 0)" stroke-linejoin="round" d=" M 250.748, 2023.297 253.318, 2023.298 255.751, 2023.298 258.033, 2023.298 260.157, 2023.317 270.157, 2023.318 280.157, 2023.318 290.157, 2023.318 300.157, 2023.319 310.157, 2023.319 320.157, 2023.320 330.157, 2023.320 340.157, 2023.321 350.157, 2023.321 360.157, 2023.321 370.157, 2023.322 380.157, 2023.322 390.157, 2023.323 400.157, 2023.323 410.157, 2023.323 420.157, 2023.324 430.157, 2023.324 440.157, 2023.325 450.157, 2023.325 460.157, 2023.325 470.157, 2023.326 480.157, 2023.326 490.157, 2023.327 500.157, 2023.327 510.157, 2023.327 520.157, 2023.328 530.157, 2023.328 540.157, 2023.329 550.157, 2023.329 560.157, 2023.330 570.157, 2023.330 580.157, 2023.330 590.157, 2023.331 600.157, 2023.331 610.157, 2023.332 620.157, 2023.332 630.157, 2023.332 640.157, 2023.333 650.157, 2023.333 660.157, 2023.334 670.157, 2023.334 680.157, 2023.334 690.157, 2023.335 700.157, 2023.335 710.157, 2023.336 720.157, 2023.336 730.157, 2023.336 740.157, 2023.337 750.157, 2023.337 760.157, 2023.338 770.157, 2023.338 780.157, 2023.339 790.157, 2023.339 800.157, 2023.339 810.157, 2023.340 820.157, 2023.340 830.157, 2023.341 840.157, 2023.341 850.157, 2023.341 860.157, 2023.342 870.157, 2023.342 880.157, 2023.343 890.157, 2023.343 900.157, 2023.343 910.157, 2023.344 920.157, 2023.344 930.157, 2023.345 940.157, 2023.345 950.157, 2023.346 960.157, 2023.346 970.157, 2023.346 980.157, 2023.347 990.157, 2023.347 1000.157, 2023.348 1010.157, 2023.348 1020.157, 2023.348 1030.157, 2023.349 1040.157, 2023.349 1050.157, 2023.350 1060.157, 2023.350 1070.157, 2023.350 1080.157, 2023.351 1090.157, 2023.351 1100.157, 2023.352 1112.724, 2023.352 1115.577, 2023.352 1123.357, 2023.353 1127.997, 2023.353 1132.687, 2023.353 1136.955, 2023.353 1137.411, 2023.353 1142.158, 2023.353 1146.914, 2023.353 1151.665, 2023.353 1156.398, 2023.353 " />
            <path fill="none" stroke-width="3.0" stroke-linecap="butt" stroke-opacity="1.0" stroke="rgb(0, 0, 0)" stroke-linejoin="round" d=" M 1188.065, 965.812 1186.975, 968.229 1185.766, 970.587 1184.441, 972.883 1183.003, 975.109 1181.455, 977.261 1179.803, 979.333 1178.049, 981.320 1176.198, 983.219 " />
            <path fill="none" stroke-width="3.0" stroke-linecap="butt" stroke-opacity="1.0" stroke="rgb(0, 0, 0)" stroke-linejoin="round" d=" M 1174.255, 985.021 1172.225, 986.724 1170.112, 988.326 1167.922, 989.818 1165.660, 991.200 1163.332, 992.468 1160.944, 993.618 1158.502, 994.648 1156.011, 995.554 " />
            <path fill="none" stroke-width="3.0" stroke-linecap="butt" stroke-opacity="1.0" stroke="rgb(0, 0, 0)" stroke-linejoin="round" d=" M 1190.596, 932.047 1191.186, 934.631 1191.646, 937.241 1191.975, 939.872 1192.174, 942.514 1192.239, 945.164 1192.174, 947.813 1191.975, 950.457 1191.646, 953.087 1191.186, 955.697 1190.596, 958.281 1189.878, 960.832 1189.034, 963.345 " />
            <path fill="none" stroke-width="3.0" stroke-linecap="butt" stroke-opacity="1.0" stroke="rgb(0, 0, 0)" stroke-linejoin="round" d=" M 1156.011, 995.554 1153.478, 996.336 1150.910, 996.990 1148.312, 997.514 1145.691, 997.910 1143.054, 998.173 " />
            <path fill="none" stroke-width="3.0" stroke-linecap="butt" stroke-opacity="1.0" stroke="rgb(0, 0, 0)" stroke-linejoin="round" d=" M 2218.716, 1281.296 2216.435, 1271.560 2214.153, 1261.824 2211.872, 1252.087 2209.591, 1242.351 2207.310, 1232.615 2205.029, 1222.878 2202.747, 1213.142 2200.466, 1203.406 2198.185, 1193.669 2195.904, 1183.933 2193.623, 1174.197 2191.342, 1164.460 2189.060, 1154.724 2186.779, 1144.988 2184.498, 1135.251 2182.217, 1125.515 2179.936, 1115.779 2177.655, 1106.042 2175.373, 1096.306 2173.092, 1086.570 2170.811, 1076.833 2168.530, 1067.097 2166.249, 1057.361 2163.968, 1047.624 2161.686, 1037.888 2159.405, 1028.152 2157.124, 1018.415 2154.843, 1008.679 2152.562, 998.943 2150.281, 989.206 2147.999, 979.470 2145.718, 969.734 2144.804, 965.834 2141.464, 956.408 2138.123, 946.983 2134.783, 937.557 2131.442, 928.131 2128.102, 918.706 2124.761, 909.280 2121.421, 899.855 2118.080, 890.429 2114.740, 881.004 2111.399, 871.578 2108.059, 862.153 2104.718, 852.727 2101.378, 843.301 2098.037, 833.876 2094.697, 824.450 2091.356, 815.025 2088.016, 805.599 2084.675, 796.174 2081.335, 786.748 2077.994, 777.323 2074.654, 767.897 2071.313, 758.471 2067.973, 749.046 2064.632, 739.620 2061.292, 730.195 2057.951, 720.769 2054.611, 711.344 2051.246, 701.849 2047.798, 692.463 2044.350, 683.076 2040.903, 673.689 2037.455, 664.302 2034.008, 654.915 2030.560, 645.528 2027.112, 636.141 2023.665, 626.754 2020.217, 617.367 2016.769, 607.981 2013.322, 598.594 2009.874, 589.207 2006.427, 579.820 2002.979, 570.433 1999.531, 561.046 1996.084, 551.659 1992.636, 542.272 1989.188, 532.885 1985.741, 523.499 1982.293, 514.112 1978.845, 504.725 1975.398, 495.338 1971.950, 485.951 1968.503, 476.564 1965.055, 467.177 1961.607, 457.790 1958.160, 448.403 1954.712, 439.016 1951.265, 429.630 1947.817, 420.243 1944.369, 410.856 1940.922, 401.469 1937.474, 392.082 1934.026, 382.695 1930.579, 373.308 1927.131, 363.921 1923.683, 354.534 1920.236, 345.147 1916.788, 335.760 1913.341, 326.374 1909.893, 316.987 1906.445, 307.600 1902.998, 298.213 1899.550, 288.826 1896.102, 279.439 1892.655, 270.052 1889.207, 260.665 1885.760, 251.278 1882.312, 241.892 1878.864, 232.505 1875.417, 223.118 1871.969, 213.731 1868.521, 204.344 1865.074, 194.957 1861.626, 185.570 1858.178, 176.183 1854.731, 166.796 1851.283, 157.409 1847.836, 148.023 1844.388, 138.636 1840.940, 129.249 1837.493, 119.862 1834.045, 110.475 1830.597, 101.088 1827.150, 91.701 1823.702, 82.314 1820.255, 72.927 1816.807, 63.541 1813.359, 54.154 1809.912, 44.767 1806.464, 35.380 1803.677, 27.790 1801.171, 23.640 " />
            <path fill="none" stroke-width="3.0" stroke-linecap="butt" stroke-opacity="1.0" stroke="rgb(0, 0, 0)" stroke-linejoin="round" d=" M 1140.406, 998.306 1137.756, 998.306 1135.108, 998.173 1132.471, 997.910 1129.850, 997.514 1127.252, 996.990 1124.684, 996.336 1122.151, 995.554 1119.660, 994.648 1117.218, 993.618 1114.830, 992.468 1112.502, 991.200 1110.240, 989.818 1108.050, 988.326 " />
            <path fill="none" stroke-width="3.0" stroke-linecap="butt" stroke-opacity="1.0" stroke="rgb(0, 0, 0)" stroke-linejoin="round" d=" M 1185.766, 919.741 1186.975, 922.099 1188.065, 924.516 1189.034, 926.983 1189.878, 929.495 1190.596, 932.047 " />
            <path fill="none" stroke-width="3.0" stroke-linecap="butt" stroke-opacity="1.0" stroke="rgb(0, 0, 0)" stroke-linejoin="round" d=" M 1184.441, 917.445 1185.766, 919.741 " />
            <path fill="none" stroke-width="3.0" stroke-linecap="butt" stroke-opacity="1.0" stroke="rgb(0, 0, 0)" stroke-linejoin="round" d=" M 1183.003, 915.219 1184.441, 917.445 " />
            <path fill="none" stroke-width="3.0" stroke-linecap="butt" stroke-opacity="1.0" stroke="rgb(0, 0, 0)" stroke-linejoin="round" d=" M 65.994, 1940.247 61.446, 1949.154 56.898, 1958.060 52.350, 1966.966 47.803, 1975.872 43.255, 1984.778 38.707, 1993.684 34.159, 2002.590 29.611, 2011.496 25.063, 2020.402 23.567, 2023.333 33.567, 2023.333 43.567, 2023.333 53.567, 2023.333 63.567, 2023.334 73.567, 2023.334 83.567, 2023.334 93.567, 2023.334 103.567, 2023.334 113.567, 2023.335 123.567, 2023.335 133.567, 2023.335 143.567, 2023.335 153.567, 2023.335 163.567, 2023.336 173.567, 2023.336 183.567, 2023.336 193.567, 2023.336 203.567, 2023.336 213.567, 2023.337 223.567, 2023.337 233.567, 2023.337 237.659, 2023.337 242.232, 2023.337 245.135, 2023.337 255.135, 2023.337 265.135, 2023.337 275.135, 2023.338 285.135, 2023.338 295.135, 2023.338 305.135, 2023.338 315.135, 2023.338 325.135, 2023.339 335.135, 2023.339 345.135, 2023.339 355.135, 2023.339 365.135, 2023.339 375.135, 2023.339 385.135, 2023.340 395.135, 2023.340 405.135, 2023.340 415.135, 2023.340 425.135, 2023.340 435.135, 2023.340 445.135, 2023.341 455.135, 2023.341 465.135, 2023.341 475.135, 2023.341 485.048, 2023.341 495.048, 2023.342 505.048, 2023.342 515.048, 2023.342 525.048, 2023.342 535.048, 2023.342 545.048, 2023.342 555.048, 2023.343 565.048, 2023.343 575.048, 2023.343 585.048, 2023.343 595.048, 2023.343 605.048, 2023.344 615.048, 2023.344 625.048, 2023.344 635.048, 2023.344 645.048, 2023.344 655.048, 2023.344 665.048, 2023.345 675.048, 2023.345 685.048, 2023.345 695.048, 2023.345 705.048, 2023.345 715.048, 2023.345 725.048, 2023.346 735.048, 2023.346 745.048, 2023.346 755.048, 2023.346 765.048, 2023.346 775.048, 2023.347 785.048, 2023.347 795.048, 2023.347 805.048, 2023.347 815.048, 2023.347 825.048, 2023.347 835.048, 2023.348 845.048, 2023.348 855.048, 2023.348 865.048, 2023.348 875.048, 2023.348 885.048, 2023.348 895.048, 2023.349 905.048, 2023.349 915.048, 2023.349 925.048, 2023.349 935.048, 2023.349 945.048, 2023.350 955.048, 2023.350 965.048, 2023.350 975.048, 2023.350 985.048, 2023.350 995.048, 2023.350 1005.048, 2023.351 1015.048, 2023.351 1025.048, 2023.351 1035.048, 2023.351 1045.048, 2023.351 1055.048, 2023.351 1065.048, 2023.352 1075.048, 2023.352 1085.048, 2023.352 1095.048, 2023.352 1105.048, 2023.352 1115.048, 2023.353 1125.048, 2023.353 1135.048, 2023.353 1145.048, 2023.353 1155.048, 2023.353 1165.048, 2023.353 1175.048, 2023.354 1185.048, 2023.354 1195.048, 2023.354 1205.048, 2023.354 1215.048, 2023.354 1225.048, 2023.355 1235.048, 2023.355 1245.048, 2023.355 1255.048, 2023.355 1265.048, 2023.355 1275.048, 2023.355 1285.048, 2023.356 1295.048, 2023.356 1305.048, 2023.356 1315.047, 2023.356 1325.047, 2023.356 1335.047, 2023.356 1345.047, 2023.357 1355.047, 2023.357 1369.903, 2023.357 1379.903, 2023.357 1389.903, 2023.357 1399.903, 2023.358 1409.903, 2023.358 1419.903, 2023.358 1429.903, 2023.358 1439.903, 2023.358 1449.903, 2023.358 1459.903, 2023.359 1469.903, 2023.359 1479.903, 2023.359 1489.903, 2023.359 1499.903, 2023.359 1509.903, 2023.360 1519.903, 2023.360 1529.903, 2023.360 1539.903, 2023.360 1549.903, 2023.360 1559.903, 2023.360 1569.903, 2023.361 1579.903, 2023.361 1589.903, 2023.361 1599.903, 2023.361 1609.903, 2023.361 1619.903, 2023.362 1629.903, 2023.362 1639.903, 2023.362 1649.903, 2023.362 1659.903, 2023.362 1669.903, 2023.362 1679.903, 2023.363 1689.903, 2023.363 1699.903, 2023.363 1709.903, 2023.363 1719.903, 2023.363 1729.903, 2023.363 1739.903, 2023.364 1749.903, 2023.364 1759.903, 2023.364 1769.903, 2023.364 1779.903, 2023.364 1789.903, 2023.365 1799.903, 2023.365 1809.903, 2023.365 1819.903, 2023.365 1824.708, 2023.365 " />
            <path fill="none" stroke-width="3.0" stroke-linecap="butt" stroke-opacity="1.0" stroke="rgb(0, 0, 0)" stroke-linejoin="round" d=" M 245.135, 2023.337 247.942, 2023.337 247.977, 2023.337 250.748, 2023.297 " />
            <path fill="none" stroke-width="3.0" stroke-linecap="butt" stroke-opacity="1.0" stroke="rgb(0, 0, 0)" stroke-linejoin="round" d=" M 1181.455, 913.066 1183.003, 915.219 " />
            <path fill="none" stroke-width="3.0" stroke-linecap="butt" stroke-opacity="1.0" stroke="rgb(0, 0, 0)" stroke-linejoin="round" d=" M 1179.803, 910.994 1181.455, 913.066 " />
            <path fill="none" stroke-width="3.0" stroke-linecap="butt" stroke-opacity="1.0" stroke="rgb(0, 0, 0)" stroke-linejoin="round" d=" M 1178.049, 909.007 1179.803, 910.994 " />
            <path fill="none" stroke-width="3.0" stroke-linecap="butt" stroke-opacity="1.0" stroke="rgb(0, 0, 0)" stroke-linejoin="round" d=" M 1119.660, 895.681 1122.151, 894.774 1124.684, 893.992 1127.252, 893.339 1129.850, 892.813 1132.471, 892.418 1135.108, 892.154 1137.756, 892.022 1140.406, 892.022 1143.054, 892.154 1145.691, 892.418 1148.312, 892.813 1150.910, 893.339 1153.478, 893.992 1156.011, 894.774 1158.502, 895.681 1160.944, 896.710 1163.332, 897.860 1165.660, 899.127 1167.922, 900.509 1170.112, 902.003 1172.225, 903.603 1174.255, 905.307 1176.198, 907.110 1178.049, 909.007 " />
            <path fill="none" stroke-width="3.0" stroke-linecap="butt" stroke-opacity="1.0" stroke="rgb(0, 0, 0)" stroke-linejoin="round" d=" M 731.322, 1242.402 728.803, 1244.985 726.159, 1247.439 723.395, 1249.757 720.519, 1251.936 717.538, 1253.968 714.460, 1255.849 711.292, 1257.574 708.041, 1259.139 704.717, 1260.541 701.326, 1261.775 697.879, 1262.838 694.383, 1263.729 690.847, 1264.444 687.279, 1264.981 683.690, 1265.341 680.086, 1265.521 676.479, 1265.521 672.876, 1265.341 669.286, 1264.981 665.718, 1264.444 662.182, 1263.729 658.686, 1262.838 655.239, 1261.775 651.849, 1260.541 648.524, 1259.139 645.274, 1257.574 642.105, 1255.849 639.027, 1253.968 636.046, 1251.936 633.170, 1249.757 630.407, 1247.439 627.762, 1244.985 625.243, 1242.402 622.856, 1239.697 620.607, 1236.876 618.501, 1233.947 616.543, 1230.917 614.739, 1227.793 613.094, 1224.582 611.610, 1221.293 610.292, 1217.935 609.143, 1214.515 608.166, 1211.043 607.363, 1207.525 606.736, 1203.973 606.288, 1200.393 606.018, 1196.795 605.928, 1193.189 606.018, 1189.582 606.288, 1185.984 606.736, 1182.404 607.363, 1178.852 608.166, 1175.334 609.143, 1171.862 610.292, 1168.442 611.610, 1165.083 613.094, 1161.795 614.739, 1158.584 616.543, 1155.460 618.501, 1152.430 620.607, 1149.501 622.856, 1146.680 625.243, 1143.975 627.762, 1141.392 630.407, 1138.938 633.170, 1136.620 636.046, 1134.441 639.027, 1132.409 642.105, 1130.528 645.274, 1128.803 648.524, 1127.237 651.849, 1125.836 655.239, 1124.602 658.686, 1123.538 662.182, 1122.648 665.718, 1121.934 669.286, 1121.396 672.876, 1121.036 676.479, 1120.856 680.086, 1120.856 683.690, 1121.036 687.279, 1121.396 690.847, 1121.934 694.383, 1122.648 697.879, 1123.538 701.326, 1124.602 704.717, 1125.836 708.041, 1127.237 711.292, 1128.803 714.460, 1130.528 717.538, 1132.409 720.519, 1134.441 723.395, 1136.620 726.159, 1138.938 728.803, 1141.392 731.322, 1143.975 733.709, 1146.680 735.959, 1149.501 738.065, 1152.430 740.022, 1155.460 741.826, 1158.584 743.472, 1161.795 744.955, 1165.083 746.273, 1168.442 747.422, 1171.862 748.400, 1175.334 749.202, 1178.852 749.829, 1182.404 750.277, 1185.984 750.547, 1189.582 750.637, 1193.189 750.547, 1196.795 750.277, 1200.393 749.829, 1203.973 749.202, 1207.525 748.400, 1211.043 747.422, 1214.515 746.273, 1217.935 744.955, 1221.293 743.472, 1224.582 741.826, 1227.793 740.022, 1230.917 738.065, 1233.947 735.959, 1236.876 733.709, 1239.697 731.322, 1242.402 " />
            <path fill="none" stroke-width="3.0" stroke-linecap="butt" stroke-opacity="1.0" stroke="rgb(0, 0, 0)" stroke-linejoin="round" d=" M 1103.907, 985.021 1101.964, 983.219 1100.113, 981.320 1098.359, 979.333 1096.707, 977.261 1095.159, 975.109 " />
            <path fill="none" stroke-width="3.0" stroke-linecap="butt" stroke-opacity="1.0" stroke="rgb(0, 0, 0)" stroke-linejoin="round" d=" M 1092.396, 970.587 1091.187, 968.229 1090.097, 965.812 1089.129, 963.345 1088.284, 960.832 " />
            <path fill="none" stroke-width="3.0" stroke-linecap="butt" stroke-opacity="1.0" stroke="rgb(0, 0, 0)" stroke-linejoin="round" d=" M 1087.567, 958.281 1086.977, 955.697 1086.517, 953.087 1086.187, 950.457 1085.989, 947.813 " />
            <path fill="none" stroke-width="3.0" stroke-linecap="butt" stroke-opacity="1.0" stroke="rgb(0, 0, 0)" stroke-linejoin="round" d=" M 1085.923, 945.164 1085.989, 942.514 1086.187, 939.872 1086.517, 937.241 1086.977, 934.631 " />
            <path fill="none" stroke-width="3.0" stroke-linecap="butt" stroke-opacity="1.0" stroke="rgb(0, 0, 0)" stroke-linejoin="round" d=" M 1086.977, 934.631 1087.567, 932.047 " />
            <path fill="none" stroke-width="3.0" stroke-linecap="butt" stroke-opacity="1.0" stroke="rgb(0, 0, 0)" stroke-linejoin="round" d=" M 1087.567, 932.047 1088.284, 929.495 " />
            <path fill="none" stroke-width="3.0" stroke-linecap="butt" stroke-opacity="1.0" stroke="rgb(0, 0, 0)" stroke-linejoin="round" d=" M 1088.284, 929.495 1089.129, 926.983 " />
            <path fill="none" stroke-width="3.0" stroke-linecap="butt" stroke-opacity="1.0" stroke="rgb(0, 0, 0)" stroke-linejoin="round" d=" M 1089.129, 926.983 1090.097, 924.516 1091.187, 922.099 1092.396, 919.741 1093.722, 917.445 " />
            <path fill="none" stroke-width="3.0" stroke-linecap="butt" stroke-opacity="1.0" stroke="rgb(0, 0, 0)" stroke-linejoin="round" d=" M 1801.171, 23.640 1791.171, 23.640 1781.171, 23.640 1771.171, 23.640 1761.171, 23.640 1751.171, 23.640 1741.171, 23.640 1731.171, 23.640 1721.171, 23.640 1711.171, 23.640 1701.171, 23.640 1691.171, 23.640 1681.171, 23.640 1671.171, 23.640 1661.171, 23.640 1651.171, 23.640 1641.171, 23.639 1631.171, 23.639 1621.171, 23.639 1611.171, 23.639 1601.171, 23.639 1591.171, 23.639 1581.171, 23.639 1571.171, 23.639 1561.171, 23.639 1551.249, 23.639 1550.676, 23.639 1550.116, 23.639 1549.570, 23.639 " />
            <path fill="none" stroke-width="3.0" stroke-linecap="butt" stroke-opacity="1.0" stroke="rgb(0, 0, 0)" stroke-linejoin="round" d=" M 1100.113, 909.007 1101.964, 907.110 1103.907, 905.307 1105.937, 903.603 1108.050, 902.003 " />
            <path fill="none" stroke-width="3.0" stroke-linecap="butt" stroke-opacity="1.0" stroke="rgb(0, 0, 0)" stroke-linejoin="round" d=" M 1108.050, 902.003 1110.240, 900.509 " />
            <path fill="none" stroke-width="3.0" stroke-linecap="butt" stroke-opacity="1.0" stroke="rgb(0, 0, 0)" stroke-linejoin="round" d=" M 1110.240, 900.509 1112.502, 899.127 1114.830, 897.860 1117.218, 896.710 1119.660, 895.681 " />
            <path fill="none" stroke-width="3.0" stroke-linecap="butt" stroke-opacity="1.0" stroke="rgb(0, 0, 0)" stroke-linejoin="round" d=" M 1093.722, 917.445 1095.159, 915.219 1096.707, 913.066 1098.359, 910.994 " />
            <path fill="none" stroke-width="3.0" stroke-linecap="butt" stroke-opacity="1.0" stroke="rgb(0, 0, 0)" stroke-linejoin="round" d=" M 1098.359, 910.994 1100.113, 909.007 " />
            <path fill="none" stroke-width="3.0" stroke-linecap="butt" stroke-opacity="1.0" stroke="rgb(0, 0, 0)" stroke-linejoin="round" d=" M 478.320, 23.726 478.048, 23.726 477.770, 23.726 477.487, 23.726 477.200, 23.726 " />
            <path fill="none" stroke-width="3.0" stroke-linecap="butt" stroke-opacity="1.0" stroke="rgb(0, 0, 0)" stroke-linejoin="round" d=" M 478.878, 23.684 478.585, 23.726 478.320, 23.726 " />
            <path fill="none" stroke-width="3.0" stroke-linecap="butt" stroke-opacity="1.0" stroke="rgb(0, 0, 0)" stroke-linejoin="round" d=" M 477.200, 23.726 476.841, 23.631 476.841, 23.631 466.841, 23.631 456.841, 23.631 446.841, 23.631 436.841, 23.631 426.841, 23.631 416.841, 23.631 406.841, 23.631 397.971, 23.630 " />
            <path fill="none" stroke-width="3.0" stroke-linecap="butt" stroke-opacity="1.0" stroke="rgb(0, 0, 0)" stroke-linejoin="round" d=" M 2120.753, 2023.371 2130.753, 2023.371 2140.753, 2023.371 2150.753, 2023.371 2160.753, 2023.372 2170.753, 2023.372 2180.753, 2023.372 2190.753, 2023.372 2200.753, 2023.372 2210.753, 2023.372 2220.753, 2023.373 2230.753, 2023.373 2240.753, 2023.373 2250.753, 2023.373 2260.753, 2023.373 2270.753, 2023.373 2280.753, 2023.374 2290.753, 2023.374 2300.753, 2023.374 2310.753, 2023.374 2320.753, 2023.374 2330.753, 2023.374 2340.753, 2023.375 2350.753, 2023.375 2360.753, 2023.375 2370.753, 2023.375 2380.753, 2023.375 2390.753, 2023.375 2400.753, 2023.376 2410.753, 2023.376 2420.753, 2023.376 2430.753, 2023.376 2440.753, 2023.376 2450.753, 2023.376 2460.753, 2023.377 2470.753, 2023.377 2480.753, 2023.377 2490.753, 2023.377 2500.753, 2023.377 2510.753, 2023.377 2520.753, 2023.378 2530.753, 2023.378 2540.753, 2023.378 2550.753, 2023.378 2560.753, 2023.378 2570.753, 2023.378 2580.753, 2023.379 2585.433, 2023.379 " />
            <path fill="none" stroke-width="3.0" stroke-linecap="butt" stroke-opacity="1.0" stroke="rgb(0, 0, 0)" stroke-linejoin="round" d=" M 2102.001, 2023.370 2112.001, 2023.370 2117.730, 2023.370 " />
            <path fill="none" stroke-width="3.0" stroke-linecap="butt" stroke-opacity="1.0" stroke="rgb(0, 0, 0)" stroke-linejoin="round" d=" M 1123.357, 2023.353 1133.357, 2023.353 1143.357, 2023.353 1153.357, 2023.353 1158.669, 2023.353 1160.861, 2023.353 " />
            <path fill="none" stroke-width="3.0" stroke-linecap="butt" stroke-opacity="1.0" stroke="rgb(0, 0, 0)" stroke-linejoin="round" d=" M 237.659, 2023.337 237.819, 2023.337 247.819, 2023.337 257.819, 2023.337 267.819, 2023.338 277.819, 2023.338 287.819, 2023.338 297.819, 2023.338 307.819, 2023.338 317.819, 2023.339 327.819, 2023.339 337.819, 2023.339 347.819, 2023.339 357.819, 2023.339 367.819, 2023.339 377.819, 2023.340 387.819, 2023.340 397.819, 2023.340 407.819, 2023.340 417.819, 2023.340 427.819, 2023.340 437.819, 2023.341 447.819, 2023.341 457.819, 2023.341 467.819, 2023.341 477.819, 2023.341 487.819, 2023.342 497.819, 2023.342 507.819, 2023.342 517.819, 2023.342 527.819, 2023.342 537.819, 2023.342 547.819, 2023.343 557.819, 2023.343 567.819, 2023.343 577.819, 2023.343 587.819, 2023.343 597.819, 2023.343 607.819, 2023.344 617.819, 2023.344 627.819, 2023.344 637.819, 2023.344 647.819, 2023.344 657.819, 2023.345 667.819, 2023.345 677.819, 2023.345 687.819, 2023.345 697.819, 2023.345 707.819, 2023.345 717.819, 2023.346 727.819, 2023.346 737.819, 2023.346 747.819, 2023.346 757.819, 2023.346 767.819, 2023.346 777.819, 2023.347 787.819, 2023.347 797.819, 2023.347 807.819, 2023.347 817.819, 2023.347 827.819, 2023.348 837.819, 2023.348 847.819, 2023.348 857.819, 2023.348 867.819, 2023.348 877.819, 2023.348 887.819, 2023.349 897.819, 2023.349 907.819, 2023.349 917.819, 2023.349 927.819, 2023.349 937.819, 2023.350 947.819, 2023.350 957.819, 2023.350 967.819, 2023.350 977.819, 2023.350 987.819, 2023.350 997.819, 2023.351 1007.819, 2023.351 1017.819, 2023.351 1027.819, 2023.351 1037.819, 2023.351 1047.819, 2023.351 1057.819, 2023.352 1067.819, 2023.352 1077.819, 2023.352 1087.819, 2023.352 1097.819, 2023.352 1107.819, 2023.353 1117.819, 2023.353 1127.819, 2023.353 1137.819, 2023.353 1147.819, 2023.353 1157.819, 2023.353 1167.819, 2023.354 1177.819, 2023.354 1187.819, 2023.354 1197.819, 2023.354 1207.819, 2023.354 1217.819, 2023.354 1227.819, 2023.355 1237.819, 2023.355 1247.819, 2023.355 1257.819, 2023.355 1267.819, 2023.355 1277.819, 2023.356 1287.819, 2023.356 1297.819, 2023.356 1307.819, 2023.356 1317.819, 2023.356 1327.819, 2023.356 1337.819, 2023.357 1347.819, 2023.357 1357.819, 2023.357 1367.819, 2023.357 1377.819, 2023.357 1387.819, 2023.357 1397.819, 2023.358 1407.819, 2023.358 1417.819, 2023.358 1427.819, 2023.358 1437.819, 2023.358 1447.819, 2023.359 1457.819, 2023.359 1467.819, 2023.359 1477.819, 2023.359 1487.819, 2023.359 1497.819, 2023.359 1520.198, 2023.360 1530.198, 2023.360 1540.198, 2023.360 1550.198, 2023.360 1560.198, 2023.361 1570.198, 2023.361 1580.198, 2023.361 1590.198, 2023.361 1600.198, 2023.361 1610.198, 2023.361 1620.198, 2023.362 1630.198, 2023.362 1640.198, 2023.362 1650.198, 2023.362 1660.198, 2023.362 1670.198, 2023.362 1680.198, 2023.363 1690.198, 2023.363 1700.198, 2023.363 1710.198, 2023.363 1720.198, 2023.363 1730.198, 2023.364 1740.198, 2023.364 1750.198, 2023.364 1760.198, 2023.364 1770.198, 2023.364 1780.198, 2023.364 1790.198, 2023.365 1800.198, 2023.365 1810.198, 2023.365 1820.198, 2023.365 1830.198, 2023.365 1840.198, 2023.365 1850.198, 2023.366 1860.198, 2023.366 1870.198, 2023.366 1880.198, 2023.366 1890.198, 2023.366 1903.882, 2023.367 " />
            <path fill="none" stroke-width="3.0" stroke-linecap="butt" stroke-opacity="1.0" stroke="rgb(0, 0, 0)" stroke-linejoin="round" d=" M 60.263, 1860.414 60.979, 1870.389 61.695, 1880.363 62.411, 1890.337 63.127, 1900.312 63.843, 1910.286 64.559, 1920.260 65.275, 1930.235 65.994, 1940.247 " />
            <path fill="none" stroke-width="3.0" stroke-linecap="butt" stroke-opacity="1.0" stroke="rgb(0, 0, 0)" stroke-linejoin="round" d=" M 95.624, 1652.086 93.951, 1661.945 92.277, 1671.804 90.604, 1681.663 88.930, 1691.522 87.257, 1701.381 85.584, 1711.240 83.910, 1721.099 82.237, 1730.958 80.563, 1740.817 78.890, 1750.676 77.216, 1760.535 75.543, 1770.394 73.870, 1780.253 72.196, 1790.112 70.523, 1799.971 68.849, 1809.830 67.176, 1819.689 65.502, 1829.548 63.829, 1839.407 62.156, 1849.266 60.263, 1860.414 " />
            <path fill="none" stroke-width="3.0" stroke-linecap="butt" stroke-opacity="1.0" stroke="rgb(0, 0, 0)" stroke-linejoin="round" d=" M 109.828, 1406.666 109.251, 1416.649 108.673, 1426.632 108.095, 1436.615 107.517, 1446.599 106.939, 1456.582 106.362, 1466.565 105.784, 1476.549 105.206, 1486.532 104.628, 1496.515 104.050, 1506.498 103.473, 1516.482 102.895, 1526.465 102.317, 1536.448 101.739, 1546.432 101.161, 1556.415 100.584, 1566.398 100.006, 1576.382 99.428, 1586.365 98.850, 1596.348 98.272, 1606.331 97.695, 1616.315 97.117, 1626.298 96.539, 1636.281 95.961, 1646.265 95.624, 1652.086 " />
            <path fill="none" stroke-width="3.0" stroke-linecap="butt" stroke-opacity="1.0" stroke="rgb(0, 0, 0)" stroke-linejoin="round" d=" M 397.971, 23.630 387.971, 23.630 377.971, 23.630 370.940, 23.630 " />
            <path fill="none" stroke-width="3.0" stroke-linecap="butt" stroke-opacity="1.0" stroke="rgb(0, 0, 0)" stroke-linejoin="round" d=" M 1085.989, 947.813 1085.923, 945.164 " />
            <path fill="none" stroke-width="3.0" stroke-linecap="butt" stroke-opacity="1.0" stroke="rgb(0, 0, 0)" stroke-linejoin="round" d=" M 1088.284, 960.832 1087.567, 958.281 " />
            <path fill="none" stroke-width="3.0" stroke-linecap="butt" stroke-opacity="1.0" stroke="rgb(0, 0, 0)" stroke-linejoin="round" d=" M 1093.722, 972.883 1092.396, 970.587 " />
            <path fill="none" stroke-width="3.0" stroke-linecap="butt" stroke-opacity="1.0" stroke="rgb(0, 0, 0)" stroke-linejoin="round" d=" M 1095.159, 975.109 1093.722, 972.883 " />
            <path fill="none" stroke-width="3.0" stroke-linecap="butt" stroke-opacity="1.0" stroke="rgb(0, 0, 0)" stroke-linejoin="round" d=" M 1105.937, 986.724 1103.907, 985.021 " />
            <path fill="none" stroke-width="3.0" stroke-linecap="butt" stroke-opacity="1.0" stroke="rgb(0, 0, 0)" stroke-linejoin="round" d=" M 1108.050, 988.326 1105.937, 986.724 " />
            <path fill="none" stroke-width="3.0" stroke-linecap="butt" stroke-opacity="1.0" stroke="rgb(0, 0, 0)" stroke-linejoin="round" d=" M 1143.054, 998.173 1140.406, 998.306 " />
            <path fill="none" stroke-width="3.0" stroke-linecap="butt" stroke-opacity="1.0" stroke="rgb(0, 0, 0)" stroke-linejoin="round" d=" M 1176.198, 983.219 1174.255, 985.021 " />
            <path fill="none" stroke-width="3.0" stroke-linecap="butt" stroke-opacity="1.0" stroke="rgb(0, 0, 0)" stroke-linejoin="round" d=" M 1189.034, 963.345 1188.065, 965.812 " />
            <path fill="none" stroke-width="3.0" stroke-linecap="butt" stroke-opacity="1.0" stroke="rgb(0, 0, 0)" stroke-linejoin="round" d=" M 1549.570, 23.639 1539.570, 23.639 1529.570, 23.640 1519.570, 23.640 1509.570, 23.641 1499.570, 23.641 1489.570, 23.641 1479.570, 23.642 1469.570, 23.642 1459.570, 23.643 1449.570, 23.643 1439.570, 23.644 1429.570, 23.644 1419.570, 23.644 1409.570, 23.645 1399.570, 23.645 1389.570, 23.646 1379.570, 23.646 1369.570, 23.647 1359.570, 23.647 1349.570, 23.647 1339.570, 23.648 1329.570, 23.648 1319.570, 23.649 1309.570, 23.649 1299.570, 23.650 1289.570, 23.650 1279.570, 23.650 1269.570, 23.651 1259.570, 23.651 1249.570, 23.652 1239.570, 23.652 1229.570, 23.652 1219.570, 23.653 1209.570, 23.653 1199.570, 23.654 1189.570, 23.654 1179.570, 23.655 1169.570, 23.655 1159.570, 23.656 1149.570, 23.656 1139.570, 23.656 1129.570, 23.657 1119.570, 23.657 1109.570, 23.658 1099.570, 23.658 1089.570, 23.658 1079.570, 23.659 1069.570, 23.659 1059.570, 23.660 1049.570, 23.660 1039.570, 23.661 1029.570, 23.661 1019.570, 23.661 1009.570, 23.662 999.570, 23.662 989.570, 23.663 979.570, 23.663 969.570, 23.664 959.570, 23.664 949.570, 23.664 939.570, 23.665 929.570, 23.665 919.570, 23.666 909.570, 23.666 899.570, 23.667 889.570, 23.667 879.570, 23.667 869.570, 23.668 859.570, 23.668 849.570, 23.669 839.570, 23.669 829.570, 23.669 819.570, 23.670 809.570, 23.670 799.570, 23.671 789.570, 23.671 779.570, 23.672 769.570, 23.672 759.570, 23.672 749.570, 23.673 739.570, 23.673 729.570, 23.674 719.570, 23.674 709.570, 23.675 699.570, 23.675 689.570, 23.675 679.570, 23.676 669.570, 23.676 659.570, 23.677 649.570, 23.677 639.570, 23.677 629.570, 23.678 619.570, 23.678 609.570, 23.679 599.570, 23.679 589.570, 23.680 579.570, 23.680 569.570, 23.681 559.570, 23.681 549.570, 23.681 539.570, 23.682 529.570, 23.682 519.570, 23.683 509.570, 23.683 499.570, 23.683 478.878, 23.684 " />
            <path fill="none" stroke-width="3.0" stroke-linecap="butt" stroke-opacity="1.0" stroke="rgb(0, 0, 0)" stroke-linejoin="round" d=" M 1801.171, 23.640 1791.171, 23.640 1781.171, 23.640 1771.171, 23.640 1761.171, 23.640 1751.171, 23.640 1741.171, 23.640 1731.171, 23.640 1721.171, 23.640 1711.171, 23.640 1701.171, 23.640 1691.171, 23.640 1681.171, 23.640 1671.171, 23.639 1661.171, 23.639 1651.171, 23.639 1641.171, 23.639 1631.171, 23.639 1621.171, 23.639 1611.171, 23.639 1601.171, 23.639 1591.171, 23.639 1581.171, 23.639 1571.171, 23.639 1561.171, 23.639 1551.171, 23.639 1541.171, 23.639 1531.171, 23.638 1521.171, 23.638 1511.171, 23.638 1501.171, 23.638 1491.171, 23.638 1481.171, 23.638 1471.171, 23.638 1461.171, 23.638 1451.171, 23.638 1441.171, 23.638 1431.171, 23.638 1421.171, 23.638 1411.171, 23.638 1401.171, 23.638 1391.171, 23.637 1381.171, 23.637 1371.171, 23.637 1361.171, 23.637 1351.171, 23.637 1341.171, 23.637 1331.171, 23.637 1321.171, 23.637 1311.171, 23.637 1301.171, 23.637 1291.171, 23.637 1281.171, 23.637 1271.171, 23.637 1261.171, 23.637 1251.171, 23.636 1241.171, 23.636 1231.171, 23.636 1221.171, 23.636 1211.171, 23.636 1201.171, 23.636 1191.171, 23.636 1181.171, 23.636 1171.171, 23.636 1161.171, 23.636 1151.171, 23.636 1141.171, 23.636 1131.171, 23.636 1121.171, 23.636 1111.171, 23.635 1101.171, 23.635 1091.171, 23.635 1081.171, 23.635 1071.171, 23.635 1061.171, 23.635 1051.171, 23.635 1041.171, 23.635 1031.171, 23.635 1021.171, 23.635 1011.171, 23.635 1001.171, 23.635 991.171, 23.635 981.171, 23.635 971.171, 23.635 961.171, 23.634 951.171, 23.634 941.171, 23.634 931.171, 23.634 921.171, 23.634 911.171, 23.634 901.171, 23.634 891.171, 23.634 881.171, 23.634 871.171, 23.634 861.171, 23.634 851.171, 23.634 841.171, 23.634 831.171, 23.634 821.171, 23.633 811.171, 23.633 801.171, 23.633 791.171, 23.633 781.171, 23.633 771.171, 23.633 761.171, 23.633 751.171, 23.633 741.171, 23.633 731.171, 23.633 721.171, 23.633 711.171, 23.633 701.171, 23.633 691.171, 23.633 681.171, 23.632 671.171, 23.632 661.171, 23.632 651.171, 23.632 641.171, 23.632 631.171, 23.632 621.171, 23.632 611.171, 23.632 601.171, 23.632 591.171, 23.632 581.171, 23.632 571.171, 23.632 561.171, 23.632 551.171, 23.632 541.171, 23.631 531.171, 23.631 521.171, 23.631 511.171, 23.631 501.171, 23.631 491.171, 23.631 481.171, 23.631 471.171, 23.631 461.171, 23.631 451.171, 23.631 441.171, 23.631 431.171, 23.631 421.171, 23.631 397.971, 23.630 " />
            <path fill="none" stroke-width="3.0" stroke-linecap="butt" stroke-opacity="1.0" stroke="rgb(0, 0, 0)" stroke-linejoin="round" d=" M 1801.171, 23.640 1791.171, 23.640 1781.171, 23.640 1771.171, 23.640 1761.171, 23.640 1751.171, 23.640 1741.171, 23.640 1731.171, 23.640 1721.171, 23.640 1711.171, 23.640 1701.171, 23.640 1691.171, 23.640 1681.171, 23.640 1671.171, 23.639 1661.171, 23.639 1651.171, 23.639 1641.171, 23.639 1631.171, 23.639 1621.171, 23.639 1611.171, 23.639 1601.171, 23.639 1591.171, 23.639 1581.171, 23.639 1571.171, 23.639 1561.171, 23.639 1551.171, 23.639 1541.171, 23.639 1531.171, 23.638 1521.171, 23.638 1511.171, 23.638 1501.171, 23.638 1491.171, 23.638 1481.171, 23.638 1471.171, 23.638 1461.171, 23.638 1451.171, 23.638 1441.171, 23.638 1431.171, 23.638 1421.171, 23.638 1411.171, 23.638 1401.171, 23.638 1391.171, 23.637 1381.171, 23.637 1371.171, 23.637 1361.171, 23.637 1351.171, 23.637 1341.171, 23.637 1331.171, 23.637 1321.171, 23.637 1311.171, 23.637 1301.171, 23.637 1291.171, 23.637 1281.171, 23.637 1271.171, 23.637 1261.171, 23.637 1251.171, 23.636 1241.171, 23.636 1231.171, 23.636 1221.171, 23.636 1211.171, 23.636 1201.171, 23.636 1191.171, 23.636 1181.171, 23.636 1171.171, 23.636 1161.171, 23.636 1151.171, 23.636 1141.171, 23.636 1131.171, 23.636 1121.171, 23.636 1111.171, 23.635 1101.171, 23.635 1091.171, 23.635 1081.171, 23.635 1071.171, 23.635 1061.171, 23.635 1051.171, 23.635 1041.171, 23.635 1031.171, 23.635 1021.171, 23.635 1011.171, 23.635 1001.171, 23.635 991.171, 23.635 981.171, 23.635 971.171, 23.635 961.171, 23.634 951.171, 23.634 941.171, 23.634 931.171, 23.634 921.171, 23.634 911.171, 23.634 901.171, 23.634 891.171, 23.634 881.171, 23.634 871.171, 23.634 861.171, 23.634 851.171, 23.634 841.171, 23.634 831.171, 23.634 821.171, 23.633 811.171, 23.633 801.171, 23.633 791.171, 23.633 781.171, 23.633 771.171, 23.633 761.171, 23.633 751.171, 23.633 741.171, 23.633 731.171, 23.633 721.171, 23.633 711.171, 23.633 701.171, 23.633 691.171, 23.633 681.171, 23.632 671.171, 23.632 661.171, 23.632 651.171, 23.632 641.171, 23.632 631.171, 23.632 621.171, 23.632 611.171, 23.632 601.171, 23.632 591.171, 23.632 581.171, 23.632 571.171, 23.632 561.171, 23.632 551.171, 23.632 541.171, 23.631 531.171, 23.631 521.171, 23.631 511.171, 23.631 501.171, 23.631 491.171, 23.631 481.171, 23.631 471.171, 23.631 461.171, 23.631 451.171, 23.631 441.171, 23.631 431.171, 23.631 421.171, 23.631 397.971, 23.630 " />
            <path fill="none" stroke-width="3.0" stroke-linecap="butt" stroke-opacity="1.0" stroke="rgb(0, 0, 0)" stroke-linejoin="round" d=" M 1520.198, 2023.360 1530.198, 2023.360 1540.198, 2023.360 1550.198, 2023.360 1560.198, 2023.361 1570.198, 2023.361 1580.198, 2023.361 1590.198, 2023.361 1600.198, 2023.361 1610.198, 2023.361 1620.198, 2023.362 1630.198, 2023.362 1640.198, 2023.362 1650.198, 2023.362 1660.198, 2023.362 1670.198, 2023.363 1680.198, 2023.363 1690.198, 2023.363 1700.198, 2023.363 1710.198, 2023.363 1720.198, 2023.363 1730.198, 2023.364 1740.198, 2023.364 1750.198, 2023.364 1760.198, 2023.364 1770.198, 2023.364 1780.198, 2023.365 1790.198, 2023.365 1800.198, 2023.365 1810.198, 2023.365 1820.198, 2023.365 1830.198, 2023.365 1840.198, 2023.366 1850.198, 2023.366 1860.198, 2023.366 1870.198, 2023.366 1880.198, 2023.366 1890.198, 2023.367 1900.198, 2023.367 1910.198, 2023.367 1920.198, 2023.367 1930.198, 2023.367 1940.198, 2023.367 1950.198, 2023.368 1960.198, 2023.368 1970.198, 2023.368 1980.198, 2023.368 1990.198, 2023.368 2000.198, 2023.369 2010.198, 2023.369 2020.198, 2023.369 2030.198, 2023.369 2040.198, 2023.369 2050.198, 2023.369 2060.198, 2023.370 2070.198, 2023.370 2080.198, 2023.370 2090.198, 2023.370 2100.198, 2023.370 2110.198, 2023.371 2119.066, 2023.371 " />
            <path fill="none" stroke-width="3.0" stroke-linecap="butt" stroke-opacity="1.0" stroke="rgb(0, 0, 0)" stroke-linejoin="round" d=" M 2115.872, 2023.370 2115.252, 2023.370 " />
            <path fill="none" stroke-width="3.0" stroke-linecap="butt" stroke-opacity="1.0" stroke="rgb(0, 0, 0)" stroke-linejoin="round" d=" M 2110.656, 2023.370 2116.530, 2023.370 " />
            <path fill="none" stroke-width="3.0" stroke-linecap="butt" stroke-opacity="1.0" stroke="rgb(0, 0, 0)" stroke-linejoin="round" d=" M 1161.100, 2023.353 1171.100, 2023.353 1181.100, 2023.354 1191.100, 2023.354 1201.100, 2023.354 1210.624, 2023.354 1220.624, 2023.354 1230.624, 2023.355 1240.624, 2023.355 1250.624, 2023.355 1260.624, 2023.355 1270.624, 2023.355 1280.624, 2023.355 1290.624, 2023.356 1300.624, 2023.356 1310.624, 2023.356 1320.624, 2023.356 1330.624, 2023.356 1340.624, 2023.357 1350.624, 2023.357 1360.624, 2023.357 1370.624, 2023.357 1380.624, 2023.357 1390.624, 2023.357 1400.624, 2023.358 1410.624, 2023.358 1420.624, 2023.358 1430.624, 2023.358 1440.624, 2023.358 1450.624, 2023.358 1460.624, 2023.359 1470.624, 2023.359 1480.624, 2023.359 1490.624, 2023.359 1500.624, 2023.359 1510.624, 2023.360 1520.624, 2023.360 1530.624, 2023.360 1540.624, 2023.360 1550.624, 2023.360 1560.624, 2023.360 1570.624, 2023.361 1580.624, 2023.361 1590.624, 2023.361 1600.624, 2023.361 1610.624, 2023.361 1620.624, 2023.361 1630.624, 2023.362 1640.624, 2023.362 1650.624, 2023.362 1660.624, 2023.362 1670.624, 2023.362 1680.624, 2023.363 1690.624, 2023.363 1700.624, 2023.363 1710.624, 2023.363 1720.624, 2023.363 1730.624, 2023.363 1744.489, 2023.364 " />
            <path fill="none" stroke-width="3.0" stroke-linecap="butt" stroke-opacity="1.0" stroke="rgb(0, 0, 0)" stroke-linejoin="round" d=" M 2111.246, 2023.370 2116.446, 2023.370 " />
            <path fill="none" stroke-width="3.0" stroke-linecap="butt" stroke-opacity="1.0" stroke="rgb(0, 0, 0)" stroke-linejoin="round" d=" M 1162.872, 2023.353 1172.872, 2023.353 1182.872, 2023.354 1192.872, 2023.354 1202.872, 2023.354 1212.872, 2023.354 1222.872, 2023.354 1232.872, 2023.355 1242.872, 2023.355 1252.872, 2023.355 1262.872, 2023.355 1272.872, 2023.355 1282.872, 2023.355 1292.872, 2023.356 1302.872, 2023.356 1312.872, 2023.356 1322.872, 2023.356 1332.872, 2023.356 1342.872, 2023.357 1352.872, 2023.357 1362.872, 2023.357 1372.872, 2023.357 1382.872, 2023.357 1392.872, 2023.357 1402.872, 2023.358 1412.872, 2023.358 1422.872, 2023.358 1432.872, 2023.358 1442.872, 2023.358 1452.872, 2023.358 1462.872, 2023.359 1472.872, 2023.359 1482.872, 2023.359 1492.872, 2023.359 1502.872, 2023.359 1512.872, 2023.360 1522.872, 2023.360 1532.872, 2023.360 1542.872, 2023.360 1552.872, 2023.360 1562.872, 2023.360 1572.872, 2023.361 1582.872, 2023.361 1592.872, 2023.361 1602.872, 2023.361 1612.872, 2023.361 1622.872, 2023.362 1632.872, 2023.362 1642.872, 2023.362 1652.872, 2023.362 1662.872, 2023.362 1672.872, 2023.362 1682.872, 2023.363 1692.872, 2023.363 1698.863, 2023.363 " />
            <path fill="none" stroke-width="3.0" stroke-linecap="butt" stroke-opacity="1.0" stroke="rgb(0, 0, 0)" stroke-linejoin="round" d=" M 2107.952, 2023.370 2116.910, 2023.370 " />
            <path fill="none" stroke-width="3.0" stroke-linecap="butt" stroke-opacity="1.0" stroke="rgb(0, 0, 0)" stroke-linejoin="round" d=" M 2109.440, 2023.370 2116.701, 2023.370 " />
            <path fill="none" stroke-width="3.0" stroke-linecap="butt" stroke-opacity="1.0" stroke="rgb(0, 0, 0)" stroke-linejoin="round" d=" M 2585.433, 2023.379 2580.810, 2014.512 2576.186, 2005.645 2571.562, 1996.778 2566.938, 1987.911 2562.314, 1979.044 2557.691, 1970.178 2553.067, 1961.311 2548.925, 1953.367 " />
        </g>
    </g>
<g id="slice-labels"><text x="450.54466666666667" y="523.56725" text-anchor="middle" dominant-baseline="middle" font-family="Arial, sans-serif" font-size="59.06485704424148" font-weight="bold" fill="black" stroke="none" stroke-width="7.087782845308978" paint-order="stroke fill">Slice45 (Front)</text><text x="1304.5" y="523.56725" text-anchor="middle" dominant-baseline="middle" font-family="Arial, sans-serif" font-size="59.06485704424148" font-weight="bold" fill="black" stroke="none" stroke-width="7.087782845308978" paint-order="stroke fill">Slice45 (Front)</text><text x="2158.4553333333333" y="523.56725" text-anchor="middle" dominant-baseline="middle" font-family="Arial, sans-serif" font-size="59.06485704424148" font-weight="bold" fill="black" stroke="none" stroke-width="7.087782845308978" paint-order="stroke fill">Slice45 (Front)</text><text x="450.54466666666667" y="1523.44175" text-anchor="middle" dominant-baseline="middle" font-family="Arial, sans-serif" font-size="59.06485704424148" font-weight="bold" fill="black" stroke="none" stroke-width="7.087782845308978" paint-order="stroke fill">Slice45 (Front)</text><text x="1304.5" y="1523.44175" text-anchor="middle" dominant-baseline="middle" font-family="Arial, sans-serif" font-size="59.06485704424148" font-weight="bold" fill="black" stroke="none" stroke-width="7.087782845308978" paint-order="stroke fill">Slice45 (Front)</text><text x="2158.4553333333333" y="1523.44175" text-anchor="middle" dominant-baseline="middle" font-family="Arial, sans-serif" font-size="59.06485704424148" font-weight="bold" fill="black" stroke="none" stroke-width="7.087782845308978" paint-order="stroke fill">Slice45 (Front)</text></g></svg></g></svg>