<?xml version='1.0' encoding='utf-8'?>
<svg xmlns="http://www.w3.org/2000/svg" xmlns:inkscape="http://www.inkscape.org/namespaces/inkscape" version="1.1" width="297.000000mm" height="420.000000mm" viewBox="0 0 297.000000 420.000000"><g inkscape:label="Slice39_front" data-source="Slice39_front.svg" transform="translate(195.565523 10.000000) rotate(90)"><svg inkscape:label="Slice39_front" data-source="Slice39_front.svg" x="0.000000" y="0.000000" width="382.570579" height="185.565523" viewBox="-0.06507943381499359 0.004920052892749993 4519.130158867629 2192.0001598942144" preserveAspectRatio="none"><g id="ViewLayer_LineSet" inkscape:groupmode="lineset" inkscape:label="ViewLayer_LineSet">
        <g inkscape:groupmode="layer" id="strokes" inkscape:label="strokes">
            <path fill="none" stroke-width="3.0" stroke-linecap="butt" stroke-opacity="1.0" stroke="rgb(0, 0, 0)" stroke-linejoin="round" d=" M 1626.676, 976.595 1624.157, 979.178 1621.512, 981.632 1618.749, 983.950 1615.873, 986.129 1612.892, 988.161 1609.814, 990.042 1606.646, 991.767 1603.395, 993.332 1600.071, 994.734 1596.681, 995.968 1593.234, 997.031 1589.738, 997.921 1586.202, 998.636 1582.634, 999.174 1579.045, 999.533 1575.442, 999.713 1571.834, 999.713 1568.231, 999.533 1564.641, 999.174 1561.074, 998.636 1557.538, 997.921 1554.042, 997.031 1550.595, 995.968 1547.205, 994.734 1543.880, 993.332 1540.630, 991.767 1537.462, 990.042 1534.384, 988.161 1531.403, 986.129 1528.527, 983.950 1525.764, 981.632 1523.119, 979.178 1520.600, 976.595 1518.213, 973.890 1515.964, 971.070 1513.858, 968.141 1511.901, 965.110 1510.097, 961.986 1508.451, 958.776 1506.967, 955.488 1505.650, 952.129 1504.500, 948.709 1503.523, 945.237 1502.721, 941.719 1502.094, 938.167 1501.646, 934.588 1501.376, 930.990 1501.286, 927.384 1501.376, 923.777 1501.646, 920.179 1502.094, 916.600 1502.721, 913.048 1503.523, 909.530 1504.500, 906.058 1505.650, 902.638 1506.967, 899.279 1508.451, 895.991 1510.097, 892.781 1511.901, 889.657 1513.858, 886.626 1515.964, 883.697 1518.213, 880.877 1520.600, 878.172 1523.119, 875.589 1525.764, 873.135 1528.527, 870.817 1531.403, 868.638 1534.384, 866.606 1537.462, 864.725 1540.630, 863.000 1543.880, 861.435 1547.205, 860.033 1550.595, 858.800 1554.042, 857.736 1557.538, 856.846 1561.074, 856.131 1564.641, 855.593 1568.231, 855.234 1571.834, 855.054 1575.442, 855.054 1579.045, 855.234 1582.634, 855.593 1586.202, 856.131 1589.738, 856.846 1593.234, 857.736 1596.681, 858.800 1600.071, 860.033 1603.395, 861.435 1606.646, 863.000 1609.814, 864.725 1612.892, 866.606 1615.873, 868.638 1618.749, 870.817 1621.512, 873.135 1624.157, 875.589 1626.676, 878.172 1629.063, 880.877 1631.312, 883.697 1633.418, 886.626 1635.375, 889.657 1637.179, 892.781 1638.825, 895.991 1640.308, 899.279 1641.626, 902.638 1642.775, 906.058 1643.752, 909.530 1644.555, 913.048 1645.182, 916.600 1645.630, 920.179 1645.900, 923.777 1645.990, 927.384 1645.900, 930.990 1645.630, 934.588 1645.182, 938.167 1644.555, 941.719 1643.752, 945.237 1642.775, 948.709 1641.626, 952.129 1640.308, 955.488 1638.825, 958.776 1637.179, 961.986 1635.375, 965.110 1633.418, 968.141 1631.312, 971.070 1629.063, 973.890 1626.676, 976.595 " />
            <path fill="none" stroke-width="3.0" stroke-linecap="butt" stroke-opacity="1.0" stroke="rgb(0, 0, 0)" stroke-linejoin="round" d=" M 417.114, 790.885 413.532, 800.221 409.950, 809.557 406.368, 818.894 402.787, 828.230 399.205, 837.567 395.623, 846.903 392.041, 856.240 388.459, 865.576 384.877, 874.913 381.295, 884.249 377.713, 893.586 374.131, 902.922 370.549, 912.259 366.967, 921.595 363.386, 930.932 359.804, 940.268 356.222, 949.605 352.640, 958.941 349.058, 968.278 345.476, 977.614 341.894, 986.951 338.312, 996.287 334.730, 1005.624 331.148, 1014.960 327.566, 1024.297 323.985, 1033.633 320.403, 1042.970 316.821, 1052.306 313.239, 1061.643 309.657, 1070.979 306.075, 1080.316 302.493, 1089.652 298.911, 1098.989 295.329, 1108.325 291.747, 1117.661 288.165, 1126.998 284.584, 1136.334 281.087, 1145.449 279.167, 1155.263 277.248, 1165.077 275.328, 1174.891 273.409, 1184.705 271.489, 1194.519 269.569, 1204.333 267.650, 1214.147 265.730, 1223.961 263.811, 1233.775 261.891, 1243.589 259.972, 1253.404 258.052, 1263.218 256.132, 1273.032 254.213, 1282.846 252.293, 1292.660 250.374, 1302.474 248.454, 1312.288 246.535, 1322.102 244.615, 1331.916 244.100, 1334.548 240.193, 1343.753 236.286, 1352.958 232.378, 1362.163 228.471, 1371.368 224.564, 1380.573 220.656, 1389.778 216.749, 1398.983 212.842, 1408.188 208.934, 1417.393 205.027, 1426.598 201.120, 1435.803 197.212, 1445.008 193.305, 1454.214 189.398, 1463.419 185.490, 1472.624 181.583, 1481.829 177.676, 1491.034 173.768, 1500.239 169.861, 1509.444 165.954, 1518.649 162.046, 1527.854 158.139, 1537.059 154.232, 1546.264 150.324, 1555.469 146.417, 1564.674 142.510, 1573.879 138.602, 1583.084 134.695, 1592.289 130.788, 1601.494 126.880, 1610.699 122.973, 1619.904 119.066, 1629.109 115.158, 1638.314 111.251, 1647.519 107.344, 1656.724 103.436, 1665.930 99.529, 1675.135 95.622, 1684.340 91.714, 1693.545 87.807, 1702.750 83.900, 1711.955 79.992, 1721.160 76.085, 1730.365 72.178, 1739.570 69.205, 1746.573 " />
            <path fill="none" stroke-width="3.0" stroke-linecap="butt" stroke-opacity="1.0" stroke="rgb(0, 0, 0)" stroke-linejoin="round" d=" M 603.831, 138.060 599.575, 147.109 595.319, 156.159 591.064, 165.208 586.808, 174.257 582.552, 183.306 578.296, 192.355 574.040, 201.404 569.784, 210.453 565.528, 219.503 561.272, 228.552 557.016, 237.601 552.760, 246.650 548.504, 255.699 544.248, 264.748 539.992, 273.797 535.736, 282.847 531.480, 291.896 527.224, 300.945 522.969, 309.994 518.713, 319.043 514.457, 328.092 510.201, 337.141 505.945, 346.191 501.689, 355.240 497.433, 364.289 493.177, 373.338 489.726, 380.676 487.320, 390.383 484.915, 400.089 482.509, 409.796 480.104, 419.502 477.699, 429.208 475.293, 438.915 472.888, 448.621 470.482, 458.328 468.077, 468.034 465.672, 477.740 463.266, 487.447 460.861, 497.153 458.456, 506.859 456.050, 516.566 453.645, 526.272 451.123, 536.446 449.799, 546.358 448.474, 556.270 447.149, 566.182 445.824, 576.094 444.499, 586.005 443.174, 595.917 441.849, 605.829 440.525, 615.741 439.200, 625.653 437.875, 635.565 436.550, 645.476 435.225, 655.388 433.900, 665.300 432.575, 675.212 431.251, 685.124 429.926, 695.036 428.601, 704.948 427.276, 714.859 425.951, 724.771 424.626, 734.683 423.301, 744.595 421.977, 754.507 420.652, 764.419 419.327, 774.331 418.002, 784.242 417.114, 790.885 " />
            <path fill="none" stroke-width="3.0" stroke-linecap="butt" stroke-opacity="1.0" stroke="rgb(0, 0, 0)" stroke-linejoin="round" d=" M 1417.686, 23.630 1407.686, 23.630 1397.686, 23.630 1387.686, 23.630 1377.686, 23.630 1367.686, 23.630 1357.686, 23.630 1347.686, 23.630 1337.686, 23.630 1327.686, 23.630 1317.686, 23.630 1307.686, 23.630 1297.686, 23.630 1287.686, 23.630 1277.686, 23.630 1267.686, 23.630 1257.686, 23.630 1247.686, 23.630 1237.686, 23.630 1227.686, 23.630 1217.686, 23.630 1207.686, 23.630 1197.686, 23.630 1187.686, 23.630 1177.686, 23.630 1169.433, 23.630 1167.810, 23.630 1166.092, 23.630 1164.285, 23.630 1162.393, 23.630 1160.422, 23.630 1158.378, 23.630 1156.267, 23.630 1154.096, 23.630 1151.872, 23.630 1149.601, 23.630 1147.290, 23.630 1144.948, 23.630 1142.697, 23.630 1132.697, 23.630 1122.697, 23.630 1112.697, 23.630 1102.697, 23.630 1092.697, 23.630 1082.697, 23.630 1072.697, 23.630 1062.697, 23.630 1052.697, 23.630 1042.697, 23.630 1032.697, 23.630 1022.697, 23.630 1012.697, 23.630 1002.697, 23.630 992.697, 23.630 982.697, 23.630 972.697, 23.630 962.697, 23.630 952.697, 23.630 942.697, 23.630 932.697, 23.630 922.697, 23.630 912.697, 23.630 902.697, 23.630 892.697, 23.630 882.697, 23.630 872.697, 23.630 862.697, 23.630 852.697, 23.630 842.697, 23.630 832.697, 23.630 822.697, 23.630 812.697, 23.630 802.697, 23.630 792.697, 23.630 782.697, 23.630 772.697, 23.630 762.697, 23.630 752.697, 23.630 742.697, 23.630 732.697, 23.630 722.697, 23.630 712.697, 23.630 702.697, 23.630 692.697, 23.630 682.697, 23.630 672.697, 23.630 662.697, 23.630 650.703, 23.630 646.912, 32.884 643.122, 42.137 639.332, 51.391 635.541, 60.645 631.751, 69.899 627.960, 79.153 624.170, 88.406 620.379, 97.660 616.589, 106.914 612.799, 116.168 609.008, 125.422 605.218, 134.676 603.831, 138.060 " />
            <path fill="none" stroke-width="3.0" stroke-linecap="butt" stroke-opacity="1.0" stroke="rgb(0, 0, 0)" stroke-linejoin="round" d=" M 4265.289, 732.796 4261.390, 723.587 4257.490, 714.379 4253.591, 705.170 4249.692, 695.962 4245.792, 686.753 4241.893, 677.545 4237.994, 668.336 4234.095, 659.128 4230.195, 649.920 4226.296, 640.711 4222.397, 631.503 4218.498, 622.294 4214.598, 613.086 4210.699, 603.877 4206.800, 594.669 4202.900, 585.460 4199.001, 576.252 4195.102, 567.043 4191.203, 557.835 4187.303, 548.626 4183.404, 539.418 4179.505, 530.210 4175.605, 521.001 4171.707, 511.793 4167.807, 502.584 4163.908, 493.376 4160.009, 484.167 4156.109, 474.959 4152.210, 465.750 4148.311, 456.542 4144.412, 447.333 4140.512, 438.125 4136.613, 428.917 4132.714, 419.708 4128.814, 410.500 4124.915, 401.291 4121.016, 392.083 4117.117, 382.874 4113.217, 373.666 4109.318, 364.457 4105.419, 355.249 4101.520, 346.040 4097.620, 336.832 4093.721, 327.624 4089.822, 318.415 4085.922, 309.207 4082.023, 299.998 4078.124, 290.790 4074.225, 281.581 4070.325, 272.373 4066.426, 263.164 4062.527, 253.956 4058.627, 244.747 4054.728, 235.539 4048.804, 221.547 4047.986, 211.581 4047.168, 201.615 4046.351, 191.648 4045.533, 181.681 4044.715, 171.715 4043.898, 161.748 4043.080, 151.782 4042.262, 141.815 4041.445, 131.849 4040.627, 121.882 4039.809, 111.916 4038.992, 101.949 4038.174, 91.983 4037.356, 82.016 4036.539, 72.050 4035.721, 62.083 4034.903, 52.117 4034.388, 45.834 4031.326, 36.314 4028.263, 26.795 4027.245, 23.630 " />
            <path fill="none" stroke-width="3.0" stroke-linecap="butt" stroke-opacity="1.0" stroke="rgb(0, 0, 0)" stroke-linejoin="round" d=" M 4265.417, 1454.245 4266.214, 1444.277 4267.012, 1434.309 4267.810, 1424.340 4268.608, 1414.372 4269.406, 1404.404 4270.204, 1394.436 4271.001, 1384.468 4271.800, 1374.500 4272.598, 1364.532 4273.396, 1354.564 4274.193, 1344.596 4274.991, 1334.627 4275.789, 1324.659 4276.587, 1314.691 4277.385, 1304.723 4278.183, 1294.755 4278.981, 1284.787 4279.779, 1274.819 4280.577, 1264.851 4281.375, 1254.882 4282.172, 1244.914 4282.970, 1234.946 4283.768, 1224.978 4284.566, 1215.010 4285.364, 1205.042 4286.162, 1195.074 4286.960, 1185.106 4287.758, 1175.138 4288.040, 1171.613 4287.595, 1161.623 4287.151, 1151.633 4286.707, 1141.642 4286.262, 1131.652 4285.817, 1121.662 4285.373, 1111.672 4284.929, 1101.682 4284.484, 1091.692 4284.040, 1081.702 4283.595, 1071.712 4283.151, 1061.722 4282.707, 1051.731 4282.262, 1041.741 4281.817, 1031.751 4281.373, 1021.761 4280.929, 1011.771 4280.484, 1001.781 4280.040, 991.791 4279.595, 981.801 4279.151, 971.810 4278.707, 961.820 4278.262, 951.830 4277.817, 941.840 4277.373, 931.850 4276.929, 921.860 4276.484, 911.870 4276.040, 901.880 4275.595, 891.890 4275.151, 881.899 4274.706, 871.909 4274.262, 861.919 4273.817, 851.929 4273.373, 841.939 4272.929, 831.949 4272.484, 821.959 4272.040, 811.969 4271.595, 801.978 4271.151, 791.988 4270.706, 781.998 4270.262, 772.008 4269.817, 762.018 4269.373, 752.028 4269.021, 744.107 " />
            <path fill="none" stroke-width="3.0" stroke-linecap="butt" stroke-opacity="1.0" stroke="rgb(0, 0, 0)" stroke-linejoin="round" d=" M 4495.440, 2168.380 4490.281, 2159.813 4485.123, 2151.247 4479.963, 2142.680 4474.805, 2134.113 4469.646, 2125.547 4464.487, 2116.980 4459.328, 2108.414 4454.169, 2099.847 4449.011, 2091.280 4443.852, 2082.714 4441.502, 2078.812 4438.789, 2069.187 4436.075, 2059.563 4433.362, 2049.938 4430.648, 2040.313 4427.935, 2030.688 4425.221, 2021.063 4422.507, 2011.439 4419.794, 2001.814 4417.081, 1992.189 4414.367, 1982.564 4411.653, 1972.939 4408.940, 1963.315 4406.226, 1953.690 4403.513, 1944.065 4400.799, 1934.440 4398.085, 1924.815 4395.372, 1915.191 4392.659, 1905.566 4389.945, 1895.941 4387.231, 1886.316 4384.518, 1876.691 4381.804, 1867.067 4379.091, 1857.442 4376.377, 1847.817 4373.664, 1838.192 4370.950, 1828.568 4368.237, 1818.943 4365.523, 1809.318 4362.810, 1799.693 4360.096, 1790.068 4357.382, 1780.444 4354.669, 1770.819 4351.956, 1761.194 4349.242, 1751.569 4346.528, 1741.944 4343.815, 1732.320 4341.101, 1722.695 4338.388, 1713.070 4335.674, 1703.445 4332.960, 1693.820 4330.247, 1684.196 4327.533, 1674.571 4324.820, 1664.946 4322.106, 1655.321 4319.393, 1645.696 4316.679, 1636.072 4313.966, 1626.447 4311.252, 1616.822 4308.539, 1607.197 4305.825, 1597.572 4303.111, 1587.948 4300.398, 1578.323 4297.685, 1568.698 4294.971, 1559.073 4292.257, 1549.448 4289.544, 1539.824 4286.830, 1530.199 4284.117, 1520.574 4281.403, 1510.949 4278.689, 1501.325 4275.976, 1491.700 4273.263, 1482.075 4270.549, 1472.450 4267.835, 1462.825 4265.417, 1454.245 " />
            <path fill="none" stroke-width="3.0" stroke-linecap="butt" stroke-opacity="1.0" stroke="rgb(0, 0, 0)" stroke-linejoin="round" d=" M 2669.849, 2168.380 2679.849, 2168.380 2689.849, 2168.380 2699.849, 2168.380 2709.849, 2168.380 2719.849, 2168.380 2729.849, 2168.380 2739.849, 2168.380 2749.849, 2168.380 2759.849, 2168.380 2769.849, 2168.380 2779.849, 2168.380 2789.849, 2168.380 2799.849, 2168.380 2809.849, 2168.380 2819.849, 2168.380 2829.849, 2168.380 2839.849, 2168.380 2849.849, 2168.380 2859.849, 2168.380 2869.849, 2168.380 2879.849, 2168.380 2889.849, 2168.380 2899.849, 2168.380 2909.849, 2168.380 2919.849, 2168.380 2929.849, 2168.380 2939.849, 2168.380 2949.849, 2168.380 2959.849, 2168.380 2969.849, 2168.380 2979.849, 2168.380 2989.849, 2168.380 2999.849, 2168.380 3009.849, 2168.380 3019.849, 2168.380 3029.849, 2168.380 3039.849, 2168.380 3049.849, 2168.380 3059.849, 2168.380 3069.849, 2168.380 3079.849, 2168.380 3089.849, 2168.380 3099.849, 2168.380 3109.849, 2168.380 3119.849, 2168.380 3129.849, 2168.380 3139.849, 2168.380 3149.849, 2168.380 3159.849, 2168.380 3169.849, 2168.380 3179.849, 2168.380 3189.849, 2168.380 3199.849, 2168.380 3209.849, 2168.380 3219.849, 2168.380 3229.849, 2168.380 3239.849, 2168.380 3249.849, 2168.380 3259.849, 2168.380 3269.849, 2168.380 3279.849, 2168.380 3289.849, 2168.380 3299.849, 2168.380 3309.849, 2168.380 3319.849, 2168.380 3329.849, 2168.380 3339.849, 2168.380 3349.849, 2168.380 3359.849, 2168.380 3369.849, 2168.380 3379.849, 2168.380 3389.849, 2168.380 3399.849, 2168.380 3409.849, 2168.380 3419.849, 2168.380 3429.849, 2168.380 3439.849, 2168.380 3449.849, 2168.380 3459.849, 2168.380 3469.849, 2168.380 3479.849, 2168.380 3489.849, 2168.380 3499.849, 2168.380 3509.849, 2168.380 3519.849, 2168.380 3529.849, 2168.380 3539.849, 2168.380 3549.849, 2168.380 3559.849, 2168.380 3569.849, 2168.380 3579.849, 2168.380 3589.849, 2168.380 3599.849, 2168.380 3609.849, 2168.380 3619.849, 2168.380 3629.849, 2168.380 3639.849, 2168.380 3649.849, 2168.380 3659.849, 2168.380 3669.849, 2168.380 3679.849, 2168.380 3689.849, 2168.380 3699.849, 2168.380 3709.849, 2168.380 3719.849, 2168.380 3729.849, 2168.380 3739.849, 2168.380 3749.849, 2168.380 3759.849, 2168.380 3769.849, 2168.380 3779.849, 2168.380 3789.849, 2168.380 3799.849, 2168.380 3809.849, 2168.380 3819.849, 2168.380 3829.849, 2168.380 3839.849, 2168.380 3849.849, 2168.380 3859.849, 2168.380 3869.849, 2168.380 3879.849, 2168.380 3889.849, 2168.380 3899.849, 2168.380 3909.849, 2168.380 3919.849, 2168.380 3929.849, 2168.380 3939.849, 2168.380 3949.849, 2168.380 3959.849, 2168.380 3969.849, 2168.380 3979.849, 2168.380 3989.849, 2168.380 3999.849, 2168.380 4009.849, 2168.380 4019.849, 2168.380 4029.849, 2168.380 4039.849, 2168.380 4049.849, 2168.380 4059.849, 2168.380 4069.849, 2168.380 4079.849, 2168.380 4089.849, 2168.380 4099.849, 2168.380 4109.849, 2168.380 4119.849, 2168.380 4129.849, 2168.380 4139.849, 2168.380 4149.849, 2168.380 4159.849, 2168.380 4169.849, 2168.380 4179.849, 2168.380 4189.849, 2168.380 4199.849, 2168.380 4209.849, 2168.380 4229.621, 2168.380 4239.621, 2168.380 4249.621, 2168.380 4252.122, 2168.380 4262.122, 2168.380 4272.122, 2168.380 4282.122, 2168.380 4292.122, 2168.380 4302.122, 2168.380 4312.122, 2168.380 4322.122, 2168.380 4332.122, 2168.380 4342.122, 2168.380 4352.122, 2168.380 4362.122, 2168.380 4372.122, 2168.380 4382.122, 2168.380 4392.122, 2168.380 4402.122, 2168.380 4412.122, 2168.380 4422.122, 2168.380 4432.122, 2168.380 4442.122, 2168.380 4452.122, 2168.380 4462.122, 2168.380 4472.122, 2168.380 4482.122, 2168.380 4492.122, 2168.380 4495.440, 2168.380 " />
            <path fill="none" stroke-width="3.0" stroke-linecap="butt" stroke-opacity="1.0" stroke="rgb(0, 0, 0)" stroke-linejoin="round" d=" M 2445.383, 1469.916 2450.703, 1478.383 2456.024, 1486.850 2461.344, 1495.318 2466.665, 1503.785 2471.985, 1512.252 2477.306, 1520.719 2482.626, 1529.186 2487.947, 1537.653 2493.267, 1546.120 2498.588, 1554.587 2499.868, 1556.625 2501.111, 1566.547 2502.353, 1576.470 2503.596, 1586.392 2504.839, 1596.315 2506.081, 1606.237 2507.324, 1616.160 2508.566, 1626.082 2509.809, 1636.005 2511.052, 1645.927 2512.294, 1655.850 2513.537, 1665.772 2514.780, 1675.695 2516.022, 1685.617 2517.265, 1695.540 2518.508, 1705.462 2519.750, 1715.385 2521.099, 1726.151 2525.348, 1735.203 2529.598, 1744.255 2533.848, 1753.307 2538.098, 1762.359 2542.347, 1771.411 2546.597, 1780.463 2550.847, 1789.515 2555.097, 1798.567 2559.347, 1807.619 2563.596, 1816.671 2567.846, 1825.723 2572.096, 1834.775 2576.346, 1843.827 2580.596, 1852.879 2584.845, 1861.931 2586.523, 1865.506 2589.176, 1875.147 2591.829, 1884.789 2594.481, 1894.431 2597.134, 1904.073 2599.787, 1913.714 2602.439, 1923.356 2605.092, 1932.998 2607.744, 1942.640 2610.397, 1952.281 2613.050, 1961.923 2615.702, 1971.565 2618.355, 1981.207 2621.007, 1990.848 2623.660, 2000.490 2626.313, 2010.132 2628.965, 2019.774 2631.618, 2029.416 2634.271, 2039.057 2636.923, 2048.699 2639.576, 2058.341 2642.228, 2067.983 2644.881, 2077.624 2647.533, 2087.266 2650.186, 2096.908 2652.839, 2106.550 2655.491, 2116.191 2658.144, 2125.833 2660.797, 2135.475 2663.449, 2145.117 2666.102, 2154.759 2668.754, 2164.400 2669.849, 2168.380 " />
            <path fill="none" stroke-width="3.0" stroke-linecap="butt" stroke-opacity="1.0" stroke="rgb(0, 0, 0)" stroke-linejoin="round" d=" M 3429.655, 750.667 3427.136, 753.249 3424.492, 755.703 3421.728, 758.021 3418.853, 760.201 3415.872, 762.232 3412.793, 764.113 3409.625, 765.838 3406.375, 767.404 3403.051, 768.805 3399.661, 770.039 3396.213, 771.103 3392.718, 771.993 3389.181, 772.707 3385.614, 773.245 3382.024, 773.604 3378.421, 773.785 3374.814, 773.785 3371.211, 773.604 3367.621, 773.245 3364.054, 772.707 3360.518, 771.993 3357.022, 771.103 3353.574, 770.039 3350.184, 768.805 3346.860, 767.404 3343.610, 765.838 3340.442, 764.113 3337.364, 762.232 3334.383, 760.201 3331.507, 758.021 3328.743, 755.703 3326.099, 753.249 3323.580, 750.667 3321.193, 747.962 3318.944, 745.142 3316.838, 742.212 3314.880, 739.182 3313.077, 736.058 3311.431, 732.847 3309.947, 729.559 3308.629, 726.201 3307.480, 722.781 3306.503, 719.309 3305.700, 715.791 3305.074, 712.239 3304.625, 708.659 3304.356, 705.061 3304.266, 701.455 3304.356, 697.849 3304.625, 694.251 3305.074, 690.671 3305.700, 687.119 3306.503, 683.601 3307.480, 680.129 3308.629, 676.710 3309.947, 673.351 3311.431, 670.063 3313.077, 666.852 3314.880, 663.728 3316.838, 660.698 3318.944, 657.769 3321.193, 654.948 3323.580, 652.243 3326.099, 649.660 3328.743, 647.207 3331.507, 644.888 3334.383, 642.710 3337.364, 640.678 3340.442, 638.797 3343.610, 637.071 3346.860, 635.506 3350.184, 634.104 3353.574, 632.871 3357.022, 631.808 3360.518, 630.917 3364.054, 630.202 3367.621, 629.665 3371.211, 629.306 3374.814, 629.126 3378.421, 629.126 3382.024, 629.306 3385.614, 629.665 3389.181, 630.202 3392.718, 630.917 3396.213, 631.808 3399.661, 632.871 3403.051, 634.104 3406.375, 635.506 3409.625, 637.071 3412.793, 638.797 3415.872, 640.678 3418.853, 642.710 3421.728, 644.888 3424.492, 647.207 3427.136, 649.660 3429.655, 652.243 3432.042, 654.948 3434.292, 657.769 3436.397, 660.698 3438.355, 663.728 3440.158, 666.852 3441.804, 670.063 3443.288, 673.351 3444.606, 676.710 3445.755, 680.129 3446.732, 683.601 3447.535, 687.119 3448.161, 690.671 3448.610, 694.251 3448.879, 697.849 3448.969, 701.455 3448.879, 705.061 3448.610, 708.659 3448.161, 712.239 3447.535, 715.791 3446.732, 719.309 3445.755, 722.781 3444.606, 726.201 3443.288, 729.559 3441.804, 732.847 3440.158, 736.058 3438.355, 739.182 3436.397, 742.212 3434.292, 745.142 3432.042, 747.962 3429.655, 750.667 " />
            <path fill="none" stroke-width="3.0" stroke-linecap="butt" stroke-opacity="1.0" stroke="rgb(0, 0, 0)" stroke-linejoin="round" d=" M 2387.060, 1331.220 2390.936, 1340.438 2394.812, 1349.656 2398.688, 1358.874 2402.565, 1368.092 2406.441, 1377.310 2410.317, 1386.529 2414.194, 1395.747 2418.070, 1404.965 2421.946, 1414.183 2425.823, 1423.401 2429.699, 1432.619 2433.575, 1441.837 2437.452, 1451.056 2441.328, 1460.274 2445.383, 1469.916 " />
            <path fill="none" stroke-width="3.0" stroke-linecap="butt" stroke-opacity="1.0" stroke="rgb(0, 0, 0)" stroke-linejoin="round" d=" M 1724.889, 1741.309 1723.236, 1743.381 1721.483, 1745.368 1719.632, 1747.266 1717.689, 1749.069 " />
            <path fill="none" stroke-width="3.0" stroke-linecap="butt" stroke-opacity="1.0" stroke="rgb(0, 0, 0)" stroke-linejoin="round" d=" M 1717.689, 1749.069 1715.659, 1750.773 1713.546, 1752.372 1711.356, 1753.866 1709.094, 1755.248 1706.767, 1756.515 1704.379, 1757.665 1701.937, 1758.695 " />
            <path fill="none" stroke-width="3.0" stroke-linecap="butt" stroke-opacity="1.0" stroke="rgb(0, 0, 0)" stroke-linejoin="round" d=" M 1735.673, 1709.213 1735.607, 1711.863 1735.409, 1714.506 1735.079, 1717.135 1734.619, 1719.746 1734.029, 1722.330 1733.311, 1724.881 1732.467, 1727.393 1731.499, 1729.861 1730.409, 1732.276 1729.199, 1734.635 " />
            <path fill="none" stroke-width="3.0" stroke-linecap="butt" stroke-opacity="1.0" stroke="rgb(0, 0, 0)" stroke-linejoin="round" d=" M 2056.538, 2168.380 2059.183, 2158.736 2061.828, 2149.092 2064.472, 2139.448 2067.117, 2129.804 2069.762, 2120.160 2072.407, 2110.516 2075.052, 2100.873 2077.697, 2091.229 2080.342, 2081.585 2082.986, 2071.941 2085.631, 2062.297 2088.276, 2052.653 2090.921, 2043.009 2093.566, 2033.365 2096.211, 2023.721 2098.855, 2014.078 2100.004, 2009.890 2102.124, 2000.117 2104.244, 1990.344 2106.365, 1980.572 2108.485, 1970.799 2110.605, 1961.026 2112.725, 1951.254 2114.845, 1941.481 2116.965, 1931.708 2119.085, 1921.936 2121.206, 1912.163 2123.326, 1902.390 2125.446, 1892.618 2127.566, 1882.845 2129.686, 1873.072 2131.806, 1863.300 2133.926, 1853.527 2136.046, 1843.754 2138.167, 1833.982 2140.287, 1824.209 2142.407, 1814.436 2144.527, 1804.664 2146.647, 1794.891 2148.767, 1785.118 2150.887, 1775.346 2153.008, 1765.573 2155.128, 1755.800 2157.248, 1746.028 2159.368, 1736.255 2161.488, 1726.482 2163.866, 1715.520 2164.536, 1705.542 2165.205, 1695.565 2165.874, 1685.587 2166.543, 1675.609 2167.213, 1665.632 2167.882, 1655.654 2168.551, 1645.677 2169.220, 1635.699 2169.890, 1625.722 2170.559, 1615.744 2171.228, 1605.766 2171.897, 1595.789 2172.567, 1585.811 2173.236, 1575.834 2173.905, 1565.856 2174.574, 1555.879 2175.244, 1545.901 2175.913, 1535.923 2176.582, 1525.946 2177.251, 1515.968 2177.921, 1505.991 2178.590, 1496.013 2179.259, 1486.036 2179.929, 1476.058 2180.228, 1471.595 " />
            <path fill="none" stroke-width="3.0" stroke-linecap="butt" stroke-opacity="1.0" stroke="rgb(0, 0, 0)" stroke-linejoin="round" d=" M 1701.937, 1758.695 1699.446, 1759.601 1696.913, 1760.383 1694.345, 1761.037 1691.747, 1761.562 1689.126, 1761.956 1686.489, 1762.221 1683.842, 1762.353 1681.191, 1762.353 1678.544, 1762.221 1675.907, 1761.956 1673.286, 1761.562 1670.688, 1761.037 1668.119, 1760.383 1665.587, 1759.601 1663.096, 1758.695 1660.654, 1757.665 " />
            <path fill="none" stroke-width="3.0" stroke-linecap="butt" stroke-opacity="1.0" stroke="rgb(0, 0, 0)" stroke-linejoin="round" d=" M 335.964, 2168.380 345.964, 2168.380 355.964, 2168.380 365.964, 2168.380 375.964, 2168.380 385.964, 2168.380 395.964, 2168.380 405.964, 2168.380 415.964, 2168.380 425.964, 2168.380 435.964, 2168.380 445.964, 2168.380 455.964, 2168.380 465.964, 2168.380 475.964, 2168.380 485.964, 2168.380 495.964, 2168.380 505.964, 2168.380 515.964, 2168.380 525.964, 2168.380 535.964, 2168.380 545.964, 2168.380 555.964, 2168.380 565.964, 2168.380 575.964, 2168.380 585.964, 2168.380 595.964, 2168.380 605.964, 2168.380 615.964, 2168.380 625.964, 2168.380 635.964, 2168.380 645.964, 2168.380 655.964, 2168.380 665.964, 2168.380 675.964, 2168.380 685.964, 2168.380 695.964, 2168.380 705.964, 2168.380 715.964, 2168.380 725.964, 2168.380 735.964, 2168.380 745.964, 2168.380 755.964, 2168.380 765.964, 2168.380 775.964, 2168.380 785.964, 2168.380 795.964, 2168.380 805.964, 2168.380 815.964, 2168.380 825.964, 2168.380 835.964, 2168.380 845.964, 2168.380 855.964, 2168.380 865.964, 2168.380 875.964, 2168.380 885.964, 2168.380 895.964, 2168.380 905.964, 2168.380 915.964, 2168.380 925.964, 2168.380 935.964, 2168.380 945.964, 2168.380 955.964, 2168.380 965.964, 2168.380 975.964, 2168.380 985.964, 2168.380 995.964, 2168.380 1005.964, 2168.380 1015.964, 2168.380 1025.964, 2168.380 1035.964, 2168.380 1045.964, 2168.380 1055.964, 2168.380 1065.964, 2168.380 1075.964, 2168.380 1085.964, 2168.380 1095.964, 2168.380 1105.964, 2168.380 1115.964, 2168.380 1125.964, 2168.380 1135.964, 2168.380 1145.964, 2168.380 1155.964, 2168.380 1165.964, 2168.380 1175.964, 2168.380 1185.964, 2168.380 1195.964, 2168.380 1205.964, 2168.380 1215.964, 2168.380 1225.964, 2168.380 1235.964, 2168.380 1245.964, 2168.380 1255.964, 2168.380 1265.964, 2168.380 1275.964, 2168.380 1285.964, 2168.380 1295.964, 2168.380 1305.964, 2168.380 1315.964, 2168.380 1325.964, 2168.380 1335.964, 2168.380 1345.964, 2168.380 1355.964, 2168.380 1365.964, 2168.380 1375.964, 2168.380 1385.964, 2168.380 1395.964, 2168.380 1405.964, 2168.380 1415.964, 2168.380 1425.964, 2168.380 1435.964, 2168.380 1445.964, 2168.380 1455.964, 2168.380 1465.964, 2168.380 1475.964, 2168.380 1485.964, 2168.380 1495.964, 2168.380 1505.964, 2168.380 1515.964, 2168.380 1525.964, 2168.380 1535.964, 2168.380 1545.964, 2168.380 1555.964, 2168.380 1565.964, 2168.380 1575.964, 2168.380 1585.964, 2168.380 1595.964, 2168.380 1605.964, 2168.380 1615.964, 2168.380 1625.964, 2168.380 1635.964, 2168.380 1645.964, 2168.380 1655.964, 2168.380 1665.964, 2168.380 1675.964, 2168.380 1685.964, 2168.380 1695.964, 2168.380 1705.964, 2168.380 1715.964, 2168.380 1725.964, 2168.380 1735.964, 2168.380 1745.964, 2168.380 1755.964, 2168.380 1765.964, 2168.380 1775.964, 2168.380 1785.964, 2168.380 1806.836, 2168.380 1816.836, 2168.380 1822.090, 2168.380 1832.090, 2168.380 1842.090, 2168.380 1852.090, 2168.380 1862.090, 2168.380 1872.090, 2168.380 1882.090, 2168.380 1892.090, 2168.380 1902.090, 2168.380 1912.090, 2168.380 1922.090, 2168.380 1932.090, 2168.380 1942.090, 2168.380 1952.090, 2168.380 1962.090, 2168.380 1972.090, 2168.380 1982.090, 2168.380 1992.090, 2168.380 2002.090, 2168.380 2012.090, 2168.380 2022.090, 2168.380 2032.090, 2168.380 2042.090, 2168.380 2052.090, 2168.380 2056.538, 2168.380 " />
            <path fill="none" stroke-width="3.0" stroke-linecap="butt" stroke-opacity="1.0" stroke="rgb(0, 0, 0)" stroke-linejoin="round" d=" M 1807.581, 2168.269 1808.425, 2168.269 1809.325, 2168.269 1810.277, 2168.269 1811.279, 2168.269 1812.329, 2168.269 1813.424, 2168.269 1814.560, 2168.269 1815.733, 2168.268 1816.942, 2168.268 1818.182, 2168.268 1819.450, 2168.268 1820.741, 2168.268 1822.090, 2168.380 " />
            <path fill="none" stroke-width="3.0" stroke-linecap="butt" stroke-opacity="1.0" stroke="rgb(0, 0, 0)" stroke-linejoin="round" d=" M 1733.311, 1693.545 1734.029, 1696.096 1734.619, 1698.680 1735.079, 1701.290 1735.409, 1703.920 1735.607, 1706.563 1735.673, 1709.213 " />
            <path fill="none" stroke-width="3.0" stroke-linecap="butt" stroke-opacity="1.0" stroke="rgb(0, 0, 0)" stroke-linejoin="round" d=" M 2180.228, 1471.595 2181.871, 1461.731 2183.514, 1451.867 2185.157, 1442.003 2186.800, 1432.139 2188.443, 1422.275 2190.086, 1412.411 2191.729, 1402.547 2193.372, 1392.683 2195.015, 1382.819 2196.658, 1372.955 2198.302, 1363.090 2199.945, 1353.226 2201.588, 1343.362 2203.231, 1333.498 2204.874, 1323.634 2206.517, 1313.770 2207.975, 1305.015 2211.994, 1295.858 2216.013, 1286.701 2220.032, 1277.544 2224.051, 1268.387 2228.070, 1259.230 2232.089, 1250.073 2236.108, 1240.917 2240.127, 1231.760 2244.146, 1222.603 2248.165, 1213.446 2252.184, 1204.289 2256.203, 1195.133 2260.222, 1185.976 2264.241, 1176.819 2268.393, 1167.359 2274.258, 1175.459 2280.124, 1183.558 2285.989, 1191.657 2291.854, 1199.756 2297.720, 1207.855 2303.585, 1215.955 2309.451, 1224.054 2315.316, 1232.153 2321.181, 1240.252 2327.047, 1248.352 2332.912, 1256.451 2338.778, 1264.550 2344.643, 1272.649 2350.508, 1280.748 2356.374, 1288.848 2362.239, 1296.947 2368.104, 1305.046 2373.970, 1313.145 2379.835, 1321.244 2385.701, 1329.344 2387.060, 1331.220 " />
            <path fill="none" stroke-width="3.0" stroke-linecap="butt" stroke-opacity="1.0" stroke="rgb(0, 0, 0)" stroke-linejoin="round" d=" M 1729.199, 1683.790 1730.409, 1686.149 1731.499, 1688.565 1732.467, 1691.032 1733.311, 1693.545 " />
            <path fill="none" stroke-width="3.0" stroke-linecap="butt" stroke-opacity="1.0" stroke="rgb(0, 0, 0)" stroke-linejoin="round" d=" M 1727.874, 1681.495 1729.199, 1683.790 " />
            <path fill="none" stroke-width="3.0" stroke-linecap="butt" stroke-opacity="1.0" stroke="rgb(0, 0, 0)" stroke-linejoin="round" d=" M 1658.266, 1756.515 1655.938, 1755.248 1653.676, 1753.866 1651.487, 1752.372 1649.374, 1750.773 1647.344, 1749.069 1645.401, 1747.266 1643.550, 1745.368 " />
            <path fill="none" stroke-width="3.0" stroke-linecap="butt" stroke-opacity="1.0" stroke="rgb(0, 0, 0)" stroke-linejoin="round" d=" M 1711.356, 1664.560 1713.546, 1666.053 1715.659, 1667.654 1717.689, 1669.357 1719.632, 1671.160 1721.483, 1673.057 1723.236, 1675.044 1724.889, 1677.116 1726.436, 1679.269 1727.874, 1681.495 " />
            <path fill="none" stroke-width="3.0" stroke-linecap="butt" stroke-opacity="1.0" stroke="rgb(0, 0, 0)" stroke-linejoin="round" d=" M 335.964, 2168.380 345.964, 2168.380 355.964, 2168.379 365.964, 2168.379 375.964, 2168.379 385.964, 2168.379 395.964, 2168.379 405.964, 2168.378 415.964, 2168.378 425.964, 2168.378 435.964, 2168.378 445.964, 2168.378 455.964, 2168.377 465.964, 2168.377 475.964, 2168.377 485.964, 2168.377 495.964, 2168.377 505.964, 2168.376 515.964, 2168.376 525.964, 2168.376 535.964, 2168.376 545.964, 2168.376 555.964, 2168.375 565.964, 2168.375 575.964, 2168.375 585.964, 2168.375 595.964, 2168.375 605.964, 2168.374 615.964, 2168.374 625.964, 2168.374 635.964, 2168.374 645.964, 2168.374 655.964, 2168.373 665.964, 2168.373 675.964, 2168.373 685.964, 2168.373 695.964, 2168.373 705.964, 2168.372 715.964, 2168.372 725.964, 2168.372 735.964, 2168.372 745.964, 2168.372 755.964, 2168.371 765.964, 2168.371 775.964, 2168.371 785.964, 2168.371 795.964, 2168.371 805.964, 2168.370 815.964, 2168.370 825.964, 2168.370 835.964, 2168.370 845.964, 2168.370 855.964, 2168.369 865.964, 2168.369 875.964, 2168.369 885.964, 2168.369 895.964, 2168.369 905.964, 2168.368 915.964, 2168.368 925.964, 2168.368 935.964, 2168.368 945.964, 2168.368 955.964, 2168.367 965.964, 2168.367 975.964, 2168.367 985.964, 2168.367 995.964, 2168.367 1005.964, 2168.366 1015.964, 2168.366 1025.964, 2168.366 1035.964, 2168.366 1045.964, 2168.366 1055.964, 2168.365 1065.964, 2168.365 1075.964, 2168.365 1085.964, 2168.365 1095.964, 2168.365 1105.964, 2168.364 1115.964, 2168.364 1125.964, 2168.364 1135.964, 2168.364 1145.964, 2168.364 1155.964, 2168.363 1165.964, 2168.363 1175.964, 2168.363 1185.964, 2168.363 1195.964, 2168.363 1205.964, 2168.362 1215.964, 2168.362 1225.964, 2168.362 1235.964, 2168.362 1245.964, 2168.362 1255.964, 2168.361 1265.964, 2168.361 1275.964, 2168.361 1285.964, 2168.361 1295.964, 2168.361 1305.964, 2168.360 1315.964, 2168.360 1325.964, 2168.360 1335.964, 2168.360 1345.964, 2168.360 1355.964, 2168.359 1365.964, 2168.359 1375.964, 2168.359 1385.964, 2168.359 1395.964, 2168.359 1405.964, 2168.358 1415.964, 2168.358 1425.964, 2168.358 1435.964, 2168.358 1445.964, 2168.358 1455.964, 2168.357 1465.964, 2168.357 1475.964, 2168.357 1485.964, 2168.357 1495.964, 2168.357 1505.964, 2168.356 1515.964, 2168.356 1525.964, 2168.356 1535.964, 2168.356 1545.964, 2168.356 1555.964, 2168.355 1565.964, 2168.355 1575.964, 2168.355 1585.964, 2168.355 1595.964, 2168.355 1605.964, 2168.354 1615.964, 2168.354 1625.964, 2168.354 1635.964, 2168.354 1645.964, 2168.354 1655.964, 2168.353 1665.964, 2168.353 1675.964, 2168.353 1685.964, 2168.353 1695.964, 2168.352 1705.964, 2168.352 1715.964, 2168.352 1725.964, 2168.352 1735.964, 2168.352 1745.964, 2168.351 1755.964, 2168.351 1765.964, 2168.351 1775.964, 2168.351 1785.964, 2168.351 1804.724, 2168.350 1805.400, 2168.269 1806.067, 2168.269 1806.794, 2168.269 1807.581, 2168.269 " />
            <path fill="none" stroke-width="3.0" stroke-linecap="butt" stroke-opacity="1.0" stroke="rgb(0, 0, 0)" stroke-linejoin="round" d=" M 1701.937, 1659.730 1704.379, 1660.761 1706.767, 1661.910 1709.094, 1663.178 1711.356, 1664.560 " />
            <path fill="none" stroke-width="3.0" stroke-linecap="butt" stroke-opacity="1.0" stroke="rgb(0, 0, 0)" stroke-linejoin="round" d=" M 4027.245, 23.630 4017.245, 23.630 4007.245, 23.630 3997.245, 23.630 3987.245, 23.630 3977.245, 23.630 3967.245, 23.630 3957.245, 23.630 3947.245, 23.630 3937.245, 23.630 3927.245, 23.630 3917.245, 23.630 3907.245, 23.630 3897.245, 23.630 3887.245, 23.630 3877.245, 23.630 3867.245, 23.630 3857.245, 23.630 3847.245, 23.630 3837.245, 23.630 3827.245, 23.630 3817.245, 23.630 3807.245, 23.630 3797.245, 23.630 3787.245, 23.630 3777.245, 23.630 3767.245, 23.630 3757.245, 23.630 3747.245, 23.630 3737.245, 23.630 3727.245, 23.630 3717.245, 23.630 3707.245, 23.630 3697.245, 23.630 3687.245, 23.630 3677.245, 23.630 3667.245, 23.630 3657.245, 23.630 3647.245, 23.630 3637.245, 23.630 3627.245, 23.630 3617.245, 23.630 3607.245, 23.630 3597.245, 23.630 3587.245, 23.630 3580.239, 23.630 3578.419, 23.630 3576.644, 23.630 3574.920, 23.630 3573.252, 23.630 3571.644, 23.630 3570.101, 23.630 3568.627, 23.630 3567.226, 23.630 3557.226, 23.630 3552.418, 23.630 " />
            <path fill="none" stroke-width="3.0" stroke-linecap="butt" stroke-opacity="1.0" stroke="rgb(0, 0, 0)" stroke-linejoin="round" d=" M 3552.418, 23.630 3542.418, 23.630 3532.418, 23.630 3522.418, 23.630 3512.418, 23.630 3503.562, 23.630 3501.990, 23.630 3500.497, 23.630 3499.088, 23.630 3497.765, 23.630 3496.533, 23.630 3486.533, 23.630 3478.611, 23.630 " />
            <path fill="none" stroke-width="3.0" stroke-linecap="butt" stroke-opacity="1.0" stroke="rgb(0, 0, 0)" stroke-linejoin="round" d=" M 1686.489, 1656.205 1689.126, 1656.469 1691.747, 1656.864 1694.345, 1657.389 1696.913, 1658.043 1699.446, 1658.824 1701.937, 1659.730 " />
            <path fill="none" stroke-width="3.0" stroke-linecap="butt" stroke-opacity="1.0" stroke="rgb(0, 0, 0)" stroke-linejoin="round" d=" M 1683.842, 1656.073 1686.489, 1656.205 " />
            <path fill="none" stroke-width="3.0" stroke-linecap="butt" stroke-opacity="1.0" stroke="rgb(0, 0, 0)" stroke-linejoin="round" d=" M 1681.191, 1656.073 1683.842, 1656.073 " />
            <path fill="none" stroke-width="3.0" stroke-linecap="butt" stroke-opacity="1.0" stroke="rgb(0, 0, 0)" stroke-linejoin="round" d=" M 1665.587, 1658.824 1668.119, 1658.043 1670.688, 1657.389 1673.286, 1656.864 1675.907, 1656.469 1678.544, 1656.205 1681.191, 1656.073 " />
            <path fill="none" stroke-width="3.0" stroke-linecap="butt" stroke-opacity="1.0" stroke="rgb(0, 0, 0)" stroke-linejoin="round" d=" M 1651.487, 1666.053 1653.676, 1664.560 1655.938, 1663.178 1658.266, 1661.910 1660.654, 1660.761 1663.096, 1659.730 1665.587, 1658.824 " />
            <path fill="none" stroke-width="3.0" stroke-linecap="butt" stroke-opacity="1.0" stroke="rgb(0, 0, 0)" stroke-linejoin="round" d=" M 1649.374, 1667.654 1651.487, 1666.053 " />
            <path fill="none" stroke-width="3.0" stroke-linecap="butt" stroke-opacity="1.0" stroke="rgb(0, 0, 0)" stroke-linejoin="round" d=" M 1647.344, 1669.357 1649.374, 1667.654 " />
            <path fill="none" stroke-width="3.0" stroke-linecap="butt" stroke-opacity="1.0" stroke="rgb(0, 0, 0)" stroke-linejoin="round" d=" M 1645.401, 1671.160 1647.344, 1669.357 " />
            <path fill="none" stroke-width="3.0" stroke-linecap="butt" stroke-opacity="1.0" stroke="rgb(0, 0, 0)" stroke-linejoin="round" d=" M 1643.550, 1673.057 1645.401, 1671.160 " />
            <path fill="none" stroke-width="3.0" stroke-linecap="butt" stroke-opacity="1.0" stroke="rgb(0, 0, 0)" stroke-linejoin="round" d=" M 1638.596, 1679.269 1640.144, 1677.116 1641.796, 1675.044 1643.550, 1673.057 " />
            <path fill="none" stroke-width="3.0" stroke-linecap="butt" stroke-opacity="1.0" stroke="rgb(0, 0, 0)" stroke-linejoin="round" d=" M 1637.158, 1681.495 1638.596, 1679.269 " />
            <path fill="none" stroke-width="3.0" stroke-linecap="butt" stroke-opacity="1.0" stroke="rgb(0, 0, 0)" stroke-linejoin="round" d=" M 1633.534, 1688.565 1634.624, 1686.149 1635.833, 1683.790 1637.158, 1681.495 " />
            <path fill="none" stroke-width="3.0" stroke-linecap="butt" stroke-opacity="1.0" stroke="rgb(0, 0, 0)" stroke-linejoin="round" d=" M 1631.004, 1696.096 1631.721, 1693.545 1632.566, 1691.032 1633.534, 1688.565 " />
            <path fill="none" stroke-width="3.0" stroke-linecap="butt" stroke-opacity="1.0" stroke="rgb(0, 0, 0)" stroke-linejoin="round" d=" M 1641.796, 1743.381 1640.144, 1741.309 1638.596, 1739.157 1637.158, 1736.930 1635.833, 1734.635 1634.624, 1732.276 1633.534, 1729.861 1632.566, 1727.393 1631.721, 1724.881 1631.004, 1722.330 1630.414, 1719.746 1629.954, 1717.135 1629.624, 1714.506 1629.426, 1711.863 1629.360, 1709.213 " />
            <path fill="none" stroke-width="3.0" stroke-linecap="butt" stroke-opacity="1.0" stroke="rgb(0, 0, 0)" stroke-linejoin="round" d=" M 23.560, 2168.380 33.560, 2168.380 43.560, 2168.380 53.560, 2168.380 63.560, 2168.380 73.560, 2168.380 83.560, 2168.380 93.560, 2168.380 103.560, 2168.380 113.560, 2168.380 123.560, 2168.380 133.560, 2168.380 143.560, 2168.380 153.560, 2168.380 163.560, 2168.380 173.560, 2168.380 183.560, 2168.380 193.560, 2168.380 203.560, 2168.380 213.560, 2168.380 223.560, 2168.380 233.560, 2168.380 243.560, 2168.380 253.560, 2168.380 263.560, 2168.380 273.560, 2168.380 283.560, 2168.380 293.560, 2168.380 303.560, 2168.380 313.560, 2168.380 324.906, 2168.380 326.511, 2168.380 328.116, 2168.380 329.715, 2168.380 331.304, 2168.380 332.878, 2168.380 334.433, 2168.380 335.964, 2168.380 " />
            <path fill="none" stroke-width="3.0" stroke-linecap="butt" stroke-opacity="1.0" stroke="rgb(0, 0, 0)" stroke-linejoin="round" d=" M 1629.624, 1703.920 1629.954, 1701.290 1630.414, 1698.680 1631.004, 1696.096 " />
            <path fill="none" stroke-width="3.0" stroke-linecap="butt" stroke-opacity="1.0" stroke="rgb(0, 0, 0)" stroke-linejoin="round" d=" M 1629.426, 1706.563 1629.624, 1703.920 " />
            <path fill="none" stroke-width="3.0" stroke-linecap="butt" stroke-opacity="1.0" stroke="rgb(0, 0, 0)" stroke-linejoin="round" d=" M 3478.611, 23.630 3468.611, 23.630 3458.611, 23.630 3448.611, 23.630 3438.611, 23.630 3428.611, 23.630 3418.611, 23.630 3408.611, 23.630 3398.611, 23.630 3388.611, 23.630 3378.611, 23.630 3368.611, 23.630 3358.611, 23.630 3348.611, 23.630 3338.611, 23.630 3328.611, 23.630 3318.611, 23.630 3308.611, 23.630 3298.611, 23.630 3288.611, 23.630 3278.611, 23.630 3268.611, 23.630 3258.611, 23.630 3248.611, 23.630 3238.611, 23.630 3228.611, 23.630 3218.611, 23.630 3208.611, 23.630 3198.611, 23.630 3188.611, 23.630 3178.611, 23.630 3168.611, 23.630 3158.611, 23.630 3148.611, 23.630 3138.611, 23.630 3128.611, 23.630 3118.611, 23.630 3108.611, 23.630 3098.611, 23.630 3088.611, 23.630 3078.611, 23.630 3068.611, 23.630 3058.611, 23.630 3048.611, 23.630 3038.611, 23.630 3028.611, 23.630 3018.611, 23.630 3008.611, 23.630 2998.611, 23.630 2988.611, 23.630 2978.611, 23.630 2968.611, 23.630 2958.611, 23.630 2948.611, 23.630 2938.611, 23.630 2928.611, 23.630 2918.611, 23.630 2908.611, 23.630 2898.611, 23.630 2888.611, 23.630 2878.611, 23.630 2868.611, 23.630 2858.611, 23.630 2848.611, 23.630 2838.611, 23.630 2828.611, 23.630 2818.611, 23.630 2808.611, 23.630 2798.611, 23.630 2788.611, 23.630 2778.611, 23.630 2768.611, 23.630 2758.611, 23.630 2748.611, 23.630 2738.611, 23.630 2728.611, 23.630 2718.611, 23.630 2708.611, 23.630 2698.611, 23.630 2688.611, 23.630 2678.611, 23.630 2668.611, 23.630 2658.611, 23.630 2648.611, 23.630 2638.611, 23.630 2628.611, 23.630 2618.611, 23.630 2608.611, 23.630 2598.611, 23.630 2588.611, 23.630 2578.611, 23.630 2561.648, 23.630 2557.999, 23.630 2547.999, 23.630 2537.999, 23.630 2527.999, 23.630 2517.999, 23.630 2507.999, 23.630 2497.999, 23.630 2487.999, 23.630 2477.999, 23.630 2467.999, 23.630 2457.999, 23.630 2447.999, 23.630 2437.999, 23.630 2427.999, 23.630 2417.999, 23.630 2407.999, 23.630 2397.999, 23.630 2387.999, 23.630 2377.999, 23.630 2367.999, 23.630 2357.999, 23.630 2347.999, 23.630 2337.999, 23.630 2327.999, 23.630 2317.999, 23.630 2307.999, 23.630 2297.999, 23.630 2287.999, 23.630 2277.999, 23.630 2267.999, 23.630 2257.999, 23.630 2247.999, 23.630 2237.999, 23.630 2227.999, 23.630 2217.999, 23.630 2207.999, 23.630 2197.999, 23.630 2187.999, 23.630 2177.999, 23.630 2167.999, 23.630 2157.999, 23.630 2147.999, 23.630 2137.999, 23.630 2127.999, 23.630 2117.999, 23.630 2107.999, 23.630 2097.999, 23.630 2087.999, 23.630 2077.999, 23.630 2067.999, 23.630 2057.999, 23.630 2047.999, 23.630 2037.999, 23.630 2027.999, 23.630 2017.999, 23.630 2007.999, 23.630 1997.999, 23.630 1987.999, 23.630 1977.999, 23.630 1967.999, 23.630 1957.999, 23.630 1947.999, 23.630 1937.999, 23.630 1927.999, 23.630 1917.999, 23.630 1907.999, 23.630 1897.999, 23.630 1887.999, 23.630 1877.999, 23.630 1867.999, 23.630 1857.999, 23.630 1847.999, 23.630 1837.999, 23.630 1827.999, 23.630 1817.999, 23.630 1807.999, 23.630 1797.999, 23.630 1787.999, 23.630 1777.999, 23.630 1767.999, 23.630 1757.999, 23.630 1747.999, 23.630 1737.999, 23.630 1727.999, 23.630 1717.999, 23.630 1707.999, 23.630 1697.999, 23.630 1687.999, 23.630 1677.999, 23.630 1667.999, 23.630 1657.999, 23.630 1647.999, 23.630 1637.999, 23.630 1627.999, 23.630 1617.999, 23.630 1607.999, 23.630 1597.999, 23.630 1587.999, 23.630 1577.999, 23.630 1567.999, 23.630 1557.999, 23.630 1547.999, 23.630 1537.999, 23.630 1527.999, 23.630 1517.999, 23.630 1507.999, 23.630 1497.999, 23.630 1487.999, 23.630 1477.999, 23.630 1467.999, 23.630 1457.999, 23.630 1447.999, 23.630 1435.307, 23.630 1432.906, 23.630 1430.395, 23.630 1427.781, 23.630 1417.686, 23.630 " />
            <path fill="none" stroke-width="3.0" stroke-linecap="butt" stroke-opacity="1.0" stroke="rgb(0, 0, 0)" stroke-linejoin="round" d=" M 69.205, 1746.573 68.129, 1756.515 67.053, 1766.457 65.977, 1776.399 64.902, 1786.341 63.826, 1796.283 62.750, 1806.225 61.674, 1816.167 60.598, 1826.109 59.522, 1836.051 58.447, 1845.993 57.371, 1855.935 56.295, 1865.877 55.219, 1875.819 54.143, 1885.761 53.067, 1895.703 51.991, 1905.645 50.916, 1915.587 49.840, 1925.529 48.764, 1935.471 47.688, 1945.413 46.612, 1955.355 45.536, 1965.296 44.461, 1975.238 43.385, 1985.180 42.309, 1995.122 41.233, 2005.064 40.157, 2015.006 39.081, 2024.948 38.005, 2034.890 36.930, 2044.832 35.854, 2054.774 34.778, 2064.716 33.702, 2074.658 32.626, 2084.600 31.550, 2094.542 30.475, 2104.484 29.399, 2114.426 28.323, 2124.368 27.247, 2134.310 26.171, 2144.252 25.095, 2154.194 24.020, 2164.136 23.560, 2168.380 " />
            <path fill="none" stroke-width="3.0" stroke-linecap="butt" stroke-opacity="1.0" stroke="rgb(0, 0, 0)" stroke-linejoin="round" d=" M 1629.360, 1709.213 1629.426, 1706.563 " />
            <path fill="none" stroke-width="3.0" stroke-linecap="butt" stroke-opacity="1.0" stroke="rgb(0, 0, 0)" stroke-linejoin="round" d=" M 1643.550, 1745.368 1641.796, 1743.381 " />
            <path fill="none" stroke-width="3.0" stroke-linecap="butt" stroke-opacity="1.0" stroke="rgb(0, 0, 0)" stroke-linejoin="round" d=" M 1660.654, 1757.665 1658.266, 1756.515 " />
            <path fill="none" stroke-width="3.0" stroke-linecap="butt" stroke-opacity="1.0" stroke="rgb(0, 0, 0)" stroke-linejoin="round" d=" M 1726.436, 1739.157 1724.889, 1741.309 " />
            <path fill="none" stroke-width="3.0" stroke-linecap="butt" stroke-opacity="1.0" stroke="rgb(0, 0, 0)" stroke-linejoin="round" d=" M 1727.874, 1736.930 1726.436, 1739.157 " />
            <path fill="none" stroke-width="3.0" stroke-linecap="butt" stroke-opacity="1.0" stroke="rgb(0, 0, 0)" stroke-linejoin="round" d=" M 1729.199, 1734.635 1727.874, 1736.930 " />
            <path fill="none" stroke-width="3.0" stroke-linecap="butt" stroke-opacity="1.0" stroke="rgb(0, 0, 0)" stroke-linejoin="round" d=" M 4269.021, 744.107 4265.888, 734.611 4265.289, 732.796 " />
        </g>
    </g>
<g id="slice-labels"><text x="582.5449999999998" y="559.8175" text-anchor="middle" dominant-baseline="middle" font-family="Arial, sans-serif" font-size="59.06269986776812" font-weight="bold" fill="black" stroke="none" stroke-width="7.087523984132174" paint-order="stroke fill">Slice39 (Front)</text><text x="1700.5149999999996" y="559.8175" text-anchor="middle" dominant-baseline="middle" font-family="Arial, sans-serif" font-size="59.06269986776812" font-weight="bold" fill="black" stroke="none" stroke-width="7.087523984132174" paint-order="stroke fill">Slice39 (Front)</text><text x="2818.484999999999" y="559.8175" text-anchor="middle" dominant-baseline="middle" font-family="Arial, sans-serif" font-size="59.06269986776812" font-weight="bold" fill="black" stroke="none" stroke-width="7.087523984132174" paint-order="stroke fill">Slice39 (Front)</text><text x="3936.4549999999995" y="559.8175" text-anchor="middle" dominant-baseline="middle" font-family="Arial, sans-serif" font-size="59.06269986776812" font-weight="bold" fill="black" stroke="none" stroke-width="7.087523984132174" paint-order="stroke fill">Slice39 (Front)</text><text x="582.5449999999998" y="1632.1925" text-anchor="middle" dominant-baseline="middle" font-family="Arial, sans-serif" font-size="59.06269986776812" font-weight="bold" fill="black" stroke="none" stroke-width="7.087523984132174" paint-order="stroke fill">Slice39 (Front)</text><text x="1700.5149999999996" y="1632.1925" text-anchor="middle" dominant-baseline="middle" font-family="Arial, sans-serif" font-size="59.06269986776812" font-weight="bold" fill="black" stroke="none" stroke-width="7.087523984132174" paint-order="stroke fill">Slice39 (Front)</text><text x="2818.484999999999" y="1632.1925" text-anchor="middle" dominant-baseline="middle" font-family="Arial, sans-serif" font-size="59.06269986776812" font-weight="bold" fill="black" stroke="none" stroke-width="7.087523984132174" paint-order="stroke fill">Slice39 (Front)</text><text x="3936.4549999999995" y="1632.1925" text-anchor="middle" dominant-baseline="middle" font-family="Arial, sans-serif" font-size="59.06269986776812" font-weight="bold" fill="black" stroke="none" stroke-width="7.087523984132174" paint-order="stroke fill">Slice39 (Front)</text></g></svg></g></svg>