<?xml version='1.0' encoding='utf-8'?>
<svg xmlns="http://www.w3.org/2000/svg" xmlns:inkscape="http://www.inkscape.org/namespaces/inkscape" version="1.1" width="297.000000mm" height="420.000000mm" viewBox="0 0 297.000000 420.000000"><g inkscape:label="Slice7_back" data-source="Slice7_back.svg" transform="translate(174.711050 10.000000) rotate(90)"><svg inkscape:label="Slice7_back" data-source="Slice7_back.svg" x="0.000000" y="0.000000" width="281.850926" height="164.711050" viewBox="0.38388237400787517 0.005880958047448814 3328.253235251984 1945.000238083905" preserveAspectRatio="none"><g id="ViewLayer_LineSet" inkscape:groupmode="lineset" inkscape:label="ViewLayer_LineSet">
        <g inkscape:groupmode="layer" id="strokes" inkscape:label="strokes">
            <path fill="none" stroke-width="3.0" stroke-linecap="butt" stroke-opacity="1.0" stroke="rgb(0, 0, 0)" stroke-linejoin="round" d=" M 175.589, 1733.616 176.996, 1743.517 178.404, 1753.417 179.812, 1763.317 181.219, 1773.218 182.627, 1783.118 184.035, 1793.019 185.442, 1802.919 186.850, 1812.820 188.258, 1822.720 189.665, 1832.620 191.073, 1842.521 192.481, 1852.421 193.888, 1862.322 195.296, 1872.222 196.704, 1882.123 198.111, 1892.023 199.519, 1901.923 200.927, 1911.824 202.283, 1921.365 " />
            <path fill="none" stroke-width="3.0" stroke-linecap="butt" stroke-opacity="1.0" stroke="rgb(0, 0, 0)" stroke-linejoin="round" d=" M 186.158, 876.296 181.727, 885.261 177.297, 894.226 172.866, 903.191 168.435, 912.156 164.004, 921.120 159.573, 930.085 155.143, 939.050 150.712, 948.015 146.281, 956.980 141.850, 965.945 137.419, 974.909 132.989, 983.874 128.558, 992.839 124.127, 1001.804 119.696, 1010.769 115.265, 1019.734 110.835, 1028.698 106.404, 1037.663 101.973, 1046.628 97.542, 1055.593 93.111, 1064.558 88.681, 1073.522 84.250, 1082.487 79.819, 1091.452 75.388, 1100.417 70.958, 1109.382 66.527, 1118.347 62.096, 1127.311 57.665, 1136.276 53.234, 1145.241 48.804, 1154.206 44.373, 1163.171 39.942, 1172.135 35.511, 1181.100 29.697, 1192.864 28.978, 1202.838 28.260, 1212.812 27.541, 1222.786 26.822, 1232.761 26.103, 1242.735 25.385, 1252.709 24.666, 1262.683 24.001, 1271.912 27.120, 1281.413 30.240, 1290.914 33.359, 1300.415 36.478, 1309.916 39.598, 1319.417 42.717, 1328.918 45.837, 1338.419 48.956, 1347.920 52.075, 1357.421 55.195, 1366.922 58.314, 1376.423 61.434, 1385.924 64.553, 1395.425 67.672, 1404.926 70.792, 1414.427 73.911, 1423.928 77.031, 1433.429 80.150, 1442.930 83.269, 1452.431 86.389, 1461.932 89.508, 1471.434 92.628, 1480.935 95.747, 1490.436 98.866, 1499.937 101.986, 1509.438 105.105, 1518.939 108.225, 1528.440 111.344, 1537.941 114.463, 1547.442 117.583, 1556.943 120.702, 1566.444 123.822, 1575.945 126.941, 1585.446 130.060, 1594.947 133.180, 1604.448 136.299, 1613.949 139.419, 1623.450 142.538, 1632.951 145.657, 1642.452 148.777, 1651.953 151.896, 1661.454 155.016, 1670.955 158.135, 1680.456 161.254, 1689.957 164.374, 1699.458 167.493, 1708.959 170.613, 1718.460 173.732, 1727.961 175.589, 1733.616 " />
            <path fill="none" stroke-width="3.0" stroke-linecap="butt" stroke-opacity="1.0" stroke="rgb(0, 0, 0)" stroke-linejoin="round" d=" M 202.283, 1921.365 212.283, 1921.365 222.283, 1921.365 232.283, 1921.365 242.283, 1921.365 252.283, 1921.365 262.283, 1921.365 272.283, 1921.365 282.283, 1921.365 292.283, 1921.366 302.283, 1921.366 312.283, 1921.366 322.283, 1921.366 332.283, 1921.366 342.283, 1921.366 352.283, 1921.366 362.283, 1921.366 372.283, 1921.366 382.283, 1921.366 392.283, 1921.367 402.283, 1921.367 412.283, 1921.367 422.283, 1921.367 432.283, 1921.367 442.283, 1921.367 452.283, 1921.367 462.283, 1921.367 472.283, 1921.367 482.283, 1921.368 492.283, 1921.368 502.283, 1921.368 512.283, 1921.368 522.283, 1921.368 532.283, 1921.368 543.529, 1921.368 547.294, 1921.368 549.933, 1921.368 552.526, 1921.368 555.068, 1921.368 557.549, 1921.368 559.960, 1921.368 562.294, 1921.368 564.544, 1921.368 566.700, 1921.368 568.758, 1921.368 570.710, 1921.368 572.551, 1921.368 574.273, 1921.368 584.273, 1921.368 594.273, 1921.368 604.273, 1921.368 614.273, 1921.368 624.273, 1921.369 634.273, 1921.369 644.273, 1921.369 654.273, 1921.369 664.273, 1921.369 674.273, 1921.369 682.414, 1921.369 692.414, 1921.369 702.414, 1921.369 712.414, 1921.369 722.414, 1921.369 732.242, 1921.369 742.242, 1921.370 747.652, 1921.370 750.263, 1921.370 752.744, 1921.370 755.086, 1921.370 765.086, 1921.370 775.086, 1921.370 785.086, 1921.370 795.086, 1921.370 805.086, 1921.370 815.086, 1921.370 825.086, 1921.370 835.086, 1921.370 845.086, 1921.370 855.086, 1921.371 865.086, 1921.371 875.086, 1921.371 885.086, 1921.371 895.086, 1921.371 905.086, 1921.371 915.086, 1921.371 925.086, 1921.371 935.086, 1921.371 945.086, 1921.371 955.086, 1921.371 965.086, 1921.372 975.086, 1921.372 985.086, 1921.372 995.086, 1921.372 1005.086, 1921.372 1015.086, 1921.372 1025.086, 1921.372 1035.086, 1921.372 1045.086, 1921.372 1055.086, 1921.372 1065.086, 1921.372 1075.086, 1921.373 1085.086, 1921.373 1095.086, 1921.373 1105.086, 1921.373 1115.086, 1921.373 1125.086, 1921.373 1135.086, 1921.373 1145.086, 1921.373 1155.086, 1921.373 1165.086, 1921.373 1175.086, 1921.374 1185.086, 1921.374 1195.086, 1921.374 1205.086, 1921.374 1215.086, 1921.374 1225.086, 1921.374 1235.086, 1921.374 1245.086, 1921.374 1255.086, 1921.374 1265.086, 1921.374 1275.086, 1921.374 1285.086, 1921.375 1295.086, 1921.375 1305.086, 1921.375 1315.086, 1921.375 1325.086, 1921.375 1336.867, 1921.375 1346.867, 1921.375 1356.867, 1921.375 1366.867, 1921.375 1376.867, 1921.375 1386.867, 1921.376 1396.867, 1921.376 1406.867, 1921.376 1416.867, 1921.376 1426.867, 1921.376 1436.867, 1921.376 1446.867, 1921.376 1456.867, 1921.376 1466.867, 1921.376 1476.867, 1921.376 1486.867, 1921.376 1496.867, 1921.377 1506.867, 1921.377 1516.867, 1921.377 1525.191, 1921.377 1535.191, 1921.377 1545.191, 1921.377 1555.191, 1921.377 1565.191, 1921.377 1575.191, 1921.377 1585.191, 1921.377 1595.191, 1921.377 1605.191, 1921.378 1615.191, 1921.378 1625.191, 1921.378 1635.191, 1921.378 1645.191, 1921.378 1655.191, 1921.378 1665.191, 1921.378 1675.191, 1921.378 1685.191, 1921.378 1695.191, 1921.378 1705.191, 1921.379 1715.191, 1921.379 1725.191, 1921.379 1729.318, 1921.379 1731.872, 1921.379 1734.253, 1921.379 " />
            <path fill="none" stroke-width="3.0" stroke-linecap="butt" stroke-opacity="1.0" stroke="rgb(0, 0, 0)" stroke-linejoin="round" d=" M 1729.318, 1921.379 1731.490, 1921.379 1733.954, 1921.379 1734.253, 1921.379 1734.824, 1921.379 1734.939, 1921.379 1735.633, 1921.379 1738.665, 1921.379 1748.665, 1921.380 1758.665, 1921.380 1768.665, 1921.380 1778.665, 1921.380 1788.665, 1921.380 1798.665, 1921.380 1808.665, 1921.380 1818.665, 1921.380 1828.665, 1921.380 1838.665, 1921.380 1848.665, 1921.380 1858.665, 1921.380 1868.665, 1921.381 1878.665, 1921.381 1888.665, 1921.381 1898.665, 1921.381 1908.665, 1921.381 1918.665, 1921.381 1928.665, 1921.381 1938.665, 1921.381 1948.665, 1921.381 1958.665, 1921.381 1968.665, 1921.381 1978.665, 1921.381 1988.665, 1921.382 1998.665, 1921.382 2008.665, 1921.382 2018.665, 1921.382 2028.665, 1921.382 2038.665, 1921.382 2048.665, 1921.382 2058.665, 1921.382 2068.665, 1921.382 2078.665, 1921.382 2088.665, 1921.382 2098.665, 1921.382 2108.665, 1921.383 2118.665, 1921.383 2128.665, 1921.383 2138.665, 1921.383 2148.665, 1921.383 2158.665, 1921.383 2168.665, 1921.383 2178.665, 1921.383 2188.665, 1921.383 2198.665, 1921.383 2208.665, 1921.383 2218.665, 1921.384 2228.665, 1921.384 2238.665, 1921.384 2248.665, 1921.384 2258.665, 1921.384 2268.665, 1921.384 2278.665, 1921.384 2288.665, 1921.384 2298.665, 1921.384 2308.665, 1921.384 2318.665, 1921.384 2328.665, 1921.384 2338.665, 1921.385 2348.665, 1921.385 2358.665, 1921.385 2368.665, 1921.385 2378.665, 1921.385 2388.665, 1921.385 2398.665, 1921.385 2408.665, 1921.385 2418.665, 1921.385 2428.665, 1921.385 2438.665, 1921.385 2448.665, 1921.385 2458.665, 1921.386 2468.665, 1921.386 2478.665, 1921.386 2488.665, 1921.386 2498.665, 1921.386 2508.665, 1921.386 2518.665, 1921.386 2528.665, 1921.386 2538.665, 1921.386 2548.665, 1921.386 2558.665, 1921.386 2568.665, 1921.386 2578.665, 1921.387 2588.665, 1921.387 2598.665, 1921.387 2608.665, 1921.387 2618.665, 1921.387 2628.665, 1921.387 2638.665, 1921.387 2648.665, 1921.387 2658.665, 1921.387 2668.665, 1921.387 2678.665, 1921.387 2688.665, 1921.388 2698.665, 1921.388 2708.665, 1921.388 2718.665, 1921.388 2728.665, 1921.388 2738.665, 1921.388 2748.665, 1921.388 2758.665, 1921.388 2768.665, 1921.388 2778.665, 1921.388 2788.665, 1921.388 2798.665, 1921.388 2815.258, 1921.389 " />
            <path fill="none" stroke-width="3.0" stroke-linecap="butt" stroke-opacity="1.0" stroke="rgb(0, 0, 0)" stroke-linejoin="round" d=" M 1738.665, 1921.379 1743.115, 1921.379 1743.437, 1921.379 1753.437, 1921.380 1763.437, 1921.380 1773.437, 1921.380 1783.437, 1921.380 1793.437, 1921.380 1803.437, 1921.380 1813.437, 1921.380 1823.437, 1921.380 1833.437, 1921.380 1843.437, 1921.380 1853.437, 1921.380 1863.437, 1921.380 1873.437, 1921.381 1883.437, 1921.381 1893.437, 1921.381 1903.437, 1921.381 1913.437, 1921.381 1923.437, 1921.381 1933.437, 1921.381 1943.437, 1921.381 1953.437, 1921.381 1963.437, 1921.381 1973.437, 1921.381 1983.437, 1921.381 1993.437, 1921.382 2003.437, 1921.382 2013.437, 1921.382 2023.437, 1921.382 2033.437, 1921.382 2043.437, 1921.382 2053.437, 1921.382 2063.437, 1921.382 2073.437, 1921.382 2083.437, 1921.382 2093.437, 1921.382 2103.437, 1921.382 2113.437, 1921.383 2123.437, 1921.383 2133.437, 1921.383 2143.437, 1921.383 2153.437, 1921.383 2163.437, 1921.383 2173.437, 1921.383 2183.437, 1921.383 2193.437, 1921.383 2203.437, 1921.383 2213.437, 1921.383 2223.437, 1921.383 2233.437, 1921.384 2243.437, 1921.384 2253.437, 1921.384 2263.437, 1921.384 2273.437, 1921.384 2283.437, 1921.384 2293.437, 1921.384 2303.437, 1921.384 2313.437, 1921.384 2323.437, 1921.384 2333.437, 1921.384 2343.437, 1921.384 2353.437, 1921.385 2363.437, 1921.385 2373.437, 1921.385 2383.437, 1921.385 2393.437, 1921.385 2403.437, 1921.385 2413.437, 1921.385 2423.437, 1921.385 2433.437, 1921.385 2443.437, 1921.385 2453.437, 1921.385 2460.851, 1921.385 2468.575, 1921.385 2478.575, 1921.386 2488.575, 1921.386 2498.575, 1921.386 2502.436, 1921.386 2505.223, 1921.386 2506.314, 1921.386 2506.701, 1921.386 2507.260, 1921.386 2507.849, 1921.386 2509.338, 1921.386 2510.048, 1921.386 2511.447, 1921.386 2513.582, 1921.386 2523.582, 1921.386 2533.582, 1921.386 2543.582, 1921.386 2553.582, 1921.386 2563.582, 1921.386 2573.582, 1921.386 2583.582, 1921.386 2593.582, 1921.386 2603.582, 1921.386 2613.582, 1921.387 2623.582, 1921.387 2633.582, 1921.387 2643.582, 1921.387 2653.582, 1921.387 2663.582, 1921.387 2673.582, 1921.387 2683.582, 1921.387 2689.307, 1921.387 2689.591, 1921.387 2689.889, 1921.387 2690.198, 1921.387 2690.518, 1921.387 2690.849, 1921.387 2691.188, 1921.387 " />
            <path fill="none" stroke-width="3.0" stroke-linecap="butt" stroke-opacity="1.0" stroke="rgb(0, 0, 0)" stroke-linejoin="round" d=" M 1807.447, 992.902 1805.120, 991.635 1802.859, 990.253 1800.670, 988.760 1798.557, 987.161 1796.528, 985.458 1794.585, 983.655 " />
            <path fill="none" stroke-width="3.0" stroke-linecap="butt" stroke-opacity="1.0" stroke="rgb(0, 0, 0)" stroke-linejoin="round" d=" M 1789.330, 977.701 1787.784, 975.549 1786.346, 973.323 1785.021, 971.029 " />
            <path fill="none" stroke-width="3.0" stroke-linecap="butt" stroke-opacity="1.0" stroke="rgb(0, 0, 0)" stroke-linejoin="round" d=" M 1782.723, 966.256 1781.755, 963.790 1780.911, 961.278 1780.193, 958.728 1779.604, 956.145 1779.144, 953.535 1778.814, 950.907 1778.616, 948.265 1778.550, 945.615 1778.616, 942.967 1778.814, 940.324 1779.144, 937.696 1779.604, 935.086 1780.193, 932.503 " />
            <path fill="none" stroke-width="3.0" stroke-linecap="butt" stroke-opacity="1.0" stroke="rgb(0, 0, 0)" stroke-linejoin="round" d=" M 1822.461, 997.947 1819.865, 997.421 1817.297, 996.768 1814.765, 995.987 " />
            <path fill="none" stroke-width="3.0" stroke-linecap="butt" stroke-opacity="1.0" stroke="rgb(0, 0, 0)" stroke-linejoin="round" d=" M 1843.513, 997.421 1840.916, 997.947 1838.296, 998.342 1835.660, 998.606 1833.014, 998.737 1830.364, 998.737 1827.718, 998.606 1825.081, 998.342 " />
            <path fill="none" stroke-width="3.0" stroke-linecap="butt" stroke-opacity="1.0" stroke="rgb(0, 0, 0)" stroke-linejoin="round" d=" M 1780.193, 932.503 1780.911, 929.953 1781.755, 927.441 1782.723, 924.974 " />
            <path fill="none" stroke-width="3.0" stroke-linecap="butt" stroke-opacity="1.0" stroke="rgb(0, 0, 0)" stroke-linejoin="round" d=" M 1866.850, 985.458 1864.820, 987.161 1862.708, 988.760 1860.519, 990.253 1858.258, 991.635 1855.931, 992.902 1853.544, 994.051 1851.102, 995.081 1848.612, 995.987 1846.081, 996.768 " />
            <path fill="none" stroke-width="3.0" stroke-linecap="butt" stroke-opacity="1.0" stroke="rgb(0, 0, 0)" stroke-linejoin="round" d=" M 2691.188, 1921.387 2691.536, 1921.387 2691.890, 1921.387 2692.251, 1921.387 2692.617, 1921.387 2692.987, 1921.387 2693.360, 1921.387 2693.735, 1921.387 2694.110, 1921.387 2694.486, 1921.387 2694.860, 1921.387 2704.860, 1921.387 2714.860, 1921.387 2724.860, 1921.388 2734.860, 1921.388 2744.860, 1921.388 2754.860, 1921.388 2764.860, 1921.388 2774.860, 1921.388 2784.860, 1921.388 2794.860, 1921.388 2804.860, 1921.388 2815.258, 1921.389 " />
            <path fill="none" stroke-width="3.0" stroke-linecap="butt" stroke-opacity="1.0" stroke="rgb(0, 0, 0)" stroke-linejoin="round" d=" M 1782.723, 924.974 1783.813, 922.559 1785.021, 920.202 1786.346, 917.907 1787.784, 915.681 1789.330, 913.530 1790.982, 911.458 1792.736, 909.472 " />
            <path fill="none" stroke-width="3.0" stroke-linecap="butt" stroke-opacity="1.0" stroke="rgb(0, 0, 0)" stroke-linejoin="round" d=" M 1792.736, 909.472 1794.585, 907.575 1796.528, 905.773 1798.557, 904.070 " />
            <path fill="none" stroke-width="3.0" stroke-linecap="butt" stroke-opacity="1.0" stroke="rgb(0, 0, 0)" stroke-linejoin="round" d=" M 1798.557, 904.070 1800.670, 902.470 " />
            <path fill="none" stroke-width="3.0" stroke-linecap="butt" stroke-opacity="1.0" stroke="rgb(0, 0, 0)" stroke-linejoin="round" d=" M 2685.535, 23.623 2675.535, 23.623 2665.535, 23.623 2655.535, 23.623 2645.535, 23.623 2635.535, 23.623 2625.535, 23.623 2615.535, 23.623 2605.535, 23.623 2595.535, 23.623 2585.535, 23.623 2575.535, 23.623 2565.535, 23.623 2555.535, 23.623 2545.535, 23.623 2535.535, 23.623 2525.535, 23.623 2515.535, 23.623 2505.535, 23.623 2495.535, 23.623 2485.535, 23.623 2475.535, 23.623 2465.535, 23.623 2455.535, 23.623 2445.535, 23.623 2435.535, 23.623 2425.535, 23.623 2415.535, 23.623 2405.535, 23.623 2395.535, 23.623 2385.535, 23.623 2375.535, 23.623 2365.535, 23.623 2355.535, 23.623 2345.535, 23.623 2335.535, 23.623 2325.535, 23.623 2315.535, 23.623 2305.535, 23.623 2295.535, 23.623 2285.535, 23.623 2275.535, 23.623 2265.535, 23.623 2255.535, 23.623 2245.535, 23.623 2235.535, 23.623 2225.535, 23.623 2215.535, 23.623 2205.535, 23.623 2195.535, 23.623 2185.535, 23.623 2175.535, 23.623 2165.535, 23.623 2155.535, 23.623 2145.535, 23.623 2135.535, 23.623 2125.535, 23.623 2115.535, 23.623 2105.535, 23.623 2095.535, 23.623 2085.535, 23.623 2075.535, 23.623 2065.535, 23.623 2055.535, 23.623 2045.535, 23.623 2035.535, 23.623 2025.535, 23.623 2015.535, 23.623 2005.535, 23.623 1995.535, 23.623 1985.535, 23.623 1975.535, 23.623 1965.535, 23.623 1955.535, 23.623 1945.535, 23.623 1935.535, 23.623 1925.535, 23.623 1915.535, 23.623 1905.535, 23.623 1895.535, 23.623 1885.535, 23.623 1875.535, 23.623 1865.535, 23.623 1855.535, 23.623 1845.535, 23.623 1835.535, 23.623 1825.535, 23.623 1815.535, 23.623 1805.535, 23.623 1795.535, 23.623 1785.535, 23.623 1775.535, 23.623 1765.535, 23.623 1755.535, 23.623 1745.535, 23.623 1735.535, 23.623 1725.535, 23.623 1715.535, 23.623 1705.535, 23.623 1695.535, 23.623 1685.535, 23.623 1675.535, 23.623 1665.535, 23.623 1655.535, 23.623 1640.070, 23.623 1630.070, 23.623 1620.070, 23.623 1618.498, 23.623 1615.117, 23.623 1611.643, 23.623 1608.088, 23.623 1598.088, 23.623 1588.088, 23.623 1578.088, 23.623 1568.088, 23.623 1558.088, 23.623 1548.088, 23.623 1538.088, 23.623 1528.088, 23.623 1518.088, 23.623 1508.088, 23.623 1498.088, 23.623 1488.088, 23.623 1478.088, 23.623 1468.088, 23.623 1458.088, 23.623 1448.088, 23.623 1438.088, 23.623 1428.088, 23.623 1418.088, 23.623 1408.088, 23.623 1398.088, 23.623 1388.088, 23.623 1378.088, 23.623 1368.088, 23.623 1358.088, 23.623 1348.088, 23.623 1338.088, 23.623 1328.088, 23.623 1318.088, 23.623 1308.088, 23.623 1298.088, 23.623 1288.088, 23.623 1278.088, 23.623 1268.088, 23.623 1258.088, 23.623 1248.088, 23.623 1238.088, 23.623 1228.088, 23.623 1218.088, 23.623 1208.088, 23.623 1202.494, 23.623 1199.311, 23.623 1196.042, 23.623 1192.697, 23.623 1189.284, 23.623 1179.284, 23.623 1169.284, 23.623 1159.284, 23.623 1149.284, 23.623 1139.284, 23.623 1129.284, 23.623 1119.284, 23.623 1109.284, 23.623 1099.284, 23.623 1089.284, 23.623 1079.284, 23.623 1069.284, 23.623 1059.284, 23.623 1049.284, 23.623 1039.284, 23.623 1029.284, 23.623 1019.284, 23.623 1009.284, 23.623 999.284, 23.623 989.284, 23.623 979.284, 23.623 969.284, 23.623 959.284, 23.623 949.284, 23.623 939.284, 23.623 929.284, 23.623 919.284, 23.623 909.284, 23.623 899.284, 23.623 889.284, 23.623 879.284, 23.623 869.284, 23.623 859.284, 23.623 849.284, 23.623 839.284, 23.623 829.284, 23.623 819.284, 23.623 809.284, 23.623 799.284, 23.623 789.284, 23.623 779.331, 23.623 778.158, 23.623 776.946, 23.623 775.698, 23.623 774.418, 23.623 764.418, 23.623 754.418, 23.623 744.418, 23.623 734.418, 23.623 724.418, 23.623 714.418, 23.623 704.418, 23.623 694.418, 23.623 684.418, 23.623 674.418, 23.623 664.418, 23.623 654.418, 23.623 644.418, 23.623 634.418, 23.623 624.418, 23.623 614.418, 23.623 604.418, 23.623 594.418, 23.623 584.418, 23.623 574.418, 23.623 564.418, 23.623 554.418, 23.623 544.418, 23.623 534.418, 23.623 524.418, 23.623 514.418, 23.623 504.418, 23.623 494.418, 23.623 484.418, 23.623 474.418, 23.623 464.418, 23.623 454.418, 23.623 444.418, 23.623 434.418, 23.623 424.418, 23.623 414.418, 23.623 404.418, 23.623 394.418, 23.623 384.418, 23.623 374.418, 23.623 364.418, 23.623 354.418, 23.623 344.418, 23.623 334.418, 23.623 324.418, 23.623 314.418, 23.623 304.418, 23.623 294.418, 23.623 284.418, 23.623 274.418, 23.623 266.228, 23.623 266.012, 23.623 265.788, 23.623 265.559, 23.623 255.559, 23.623 245.559, 23.623 235.559, 23.623 225.559, 23.623 215.559, 23.623 205.559, 23.623 195.559, 23.623 193.025, 23.623 " />
            <path fill="none" stroke-width="3.0" stroke-linecap="butt" stroke-opacity="1.0" stroke="rgb(0, 0, 0)" stroke-linejoin="round" d=" M 1800.670, 902.470 1802.859, 900.977 " />
            <path fill="none" stroke-width="3.0" stroke-linecap="butt" stroke-opacity="1.0" stroke="rgb(0, 0, 0)" stroke-linejoin="round" d=" M 1802.859, 900.977 1805.120, 899.596 1807.447, 898.329 1809.834, 897.179 1812.275, 896.150 1814.765, 895.244 1817.297, 894.463 1819.865, 893.809 1822.461, 893.284 1825.081, 892.890 1827.718, 892.626 1830.364, 892.493 " />
            <path fill="none" stroke-width="3.0" stroke-linecap="butt" stroke-opacity="1.0" stroke="rgb(0, 0, 0)" stroke-linejoin="round" d=" M 1883.774, 935.086 1884.234, 937.696 1884.563, 940.324 1884.761, 942.967 1884.827, 945.615 1884.761, 948.265 1884.563, 950.907 1884.234, 953.535 1883.774, 956.145 1883.184, 958.728 1882.467, 961.278 1881.623, 963.790 1880.655, 966.256 1879.565, 968.671 1878.356, 971.029 " />
            <path fill="none" stroke-width="3.0" stroke-linecap="butt" stroke-opacity="1.0" stroke="rgb(0, 0, 0)" stroke-linejoin="round" d=" M 2371.615, 702.178 2369.097, 699.596 2366.711, 696.893 2364.462, 694.073 2362.357, 691.145 2360.401, 688.116 2358.597, 684.992 2356.952, 681.783 2355.469, 678.495 2354.152, 675.139 2353.002, 671.720 2352.026, 668.248 2351.224, 664.733 2350.597, 661.181 2350.149, 657.603 2349.879, 654.007 2349.790, 650.401 2349.879, 646.797 2350.149, 643.200 2350.597, 639.621 2351.224, 636.070 2352.026, 632.554 2353.002, 629.082 2354.152, 625.663 2355.469, 622.307 2356.952, 619.020 2358.597, 615.810 2360.401, 612.687 2362.357, 609.657 2364.462, 606.730 2366.711, 603.911 2369.097, 601.206 2371.615, 598.625 2374.259, 596.172 2377.021, 593.853 2379.896, 591.676 2382.876, 589.644 2385.953, 587.764 2389.120, 586.039 2392.370, 584.474 2395.692, 583.074 2399.082, 581.840 2402.528, 580.777 2406.022, 579.888 2409.557, 579.172 2413.123, 578.635 2416.712, 578.276 2420.314, 578.096 2423.920, 578.096 2427.522, 578.276 2431.110, 578.635 2434.677, 579.172 2438.211, 579.888 2441.706, 580.777 2445.152, 581.840 2448.541, 583.074 2451.864, 584.474 2455.114, 586.039 2458.281, 587.764 2461.358, 589.644 2464.337, 591.676 2467.212, 593.853 2469.975, 596.172 2472.618, 598.625 2475.136, 601.206 2477.523, 603.911 2479.771, 606.730 2481.876, 609.657 2483.833, 612.687 2485.636, 615.810 2487.282, 619.020 2488.765, 622.307 2490.082, 625.663 2491.231, 629.082 2492.208, 632.554 2493.010, 636.070 2493.636, 639.621 2494.085, 643.200 2494.354, 646.797 2494.444, 650.401 2494.354, 654.007 2494.085, 657.603 2493.636, 661.181 2493.010, 664.733 2492.208, 668.248 2491.231, 671.720 2490.082, 675.139 2488.765, 678.495 2487.282, 681.783 2485.636, 684.992 2483.833, 688.116 2481.876, 691.145 2479.771, 694.073 2477.523, 696.893 2475.136, 699.596 2472.618, 702.178 2469.975, 704.631 2467.212, 706.949 2464.337, 709.126 2461.358, 711.158 2458.281, 713.039 2455.114, 714.763 2451.864, 716.328 2448.541, 717.729 2445.152, 718.962 2441.706, 720.025 2438.211, 720.916 2434.677, 721.630 2431.110, 722.168 2427.522, 722.527 2423.920, 722.707 2420.314, 722.707 2416.712, 722.527 2413.123, 722.168 2409.557, 721.630 2406.022, 720.916 2402.528, 720.025 2399.082, 718.962 2395.692, 717.729 2392.370, 716.328 2389.120, 714.763 2385.953, 713.039 2382.876, 711.158 2379.896, 709.126 2377.021, 706.949 2374.259, 704.631 2371.615, 702.178 " />
            <path fill="none" stroke-width="3.0" stroke-linecap="butt" stroke-opacity="1.0" stroke="rgb(0, 0, 0)" stroke-linejoin="round" d=" M 1883.184, 932.503 1883.774, 935.086 " />
            <path fill="none" stroke-width="3.0" stroke-linecap="butt" stroke-opacity="1.0" stroke="rgb(0, 0, 0)" stroke-linejoin="round" d=" M 1878.356, 920.202 1879.565, 922.559 1880.655, 924.974 1881.623, 927.441 1882.467, 929.953 1883.184, 932.503 " />
            <path fill="none" stroke-width="3.0" stroke-linecap="butt" stroke-opacity="1.0" stroke="rgb(0, 0, 0)" stroke-linejoin="round" d=" M 1877.031, 917.907 1878.356, 920.202 " />
            <path fill="none" stroke-width="3.0" stroke-linecap="butt" stroke-opacity="1.0" stroke="rgb(0, 0, 0)" stroke-linejoin="round" d=" M 1872.395, 911.458 1874.047, 913.530 1875.594, 915.681 1877.031, 917.907 " />
            <path fill="none" stroke-width="3.0" stroke-linecap="butt" stroke-opacity="1.0" stroke="rgb(0, 0, 0)" stroke-linejoin="round" d=" M 1864.820, 904.070 1866.850, 905.773 1868.792, 907.575 1870.642, 909.472 1872.395, 911.458 " />
            <path fill="none" stroke-width="3.0" stroke-linecap="butt" stroke-opacity="1.0" stroke="rgb(0, 0, 0)" stroke-linejoin="round" d=" M 1878.356, 971.029 1877.031, 973.323 1875.594, 975.549 1874.047, 977.701 " />
            <path fill="none" stroke-width="3.0" stroke-linecap="butt" stroke-opacity="1.0" stroke="rgb(0, 0, 0)" stroke-linejoin="round" d=" M 1830.364, 892.493 1833.014, 892.493 1835.660, 892.626 1838.296, 892.890 1840.916, 893.284 1843.513, 893.809 1846.081, 894.463 1848.612, 895.244 1851.102, 896.150 1853.544, 897.179 1855.931, 898.329 1858.258, 899.596 1860.519, 900.977 1862.708, 902.470 1864.820, 904.070 " />
            <path fill="none" stroke-width="3.0" stroke-linecap="butt" stroke-opacity="1.0" stroke="rgb(0, 0, 0)" stroke-linejoin="round" d=" M 1874.047, 977.701 1872.395, 979.772 1870.642, 981.759 1868.792, 983.655 " />
            <path fill="none" stroke-width="3.0" stroke-linecap="butt" stroke-opacity="1.0" stroke="rgb(0, 0, 0)" stroke-linejoin="round" d=" M 2815.258, 1921.389 2817.256, 1911.590 2819.253, 1901.792 2821.250, 1891.993 2823.248, 1882.195 2825.245, 1872.396 2827.242, 1862.598 2829.240, 1852.799 2831.237, 1843.001 2833.234, 1833.202 2835.232, 1823.404 2837.229, 1813.605 2839.226, 1803.807 2841.224, 1794.008 2843.221, 1784.210 2845.219, 1774.411 2847.216, 1764.613 2849.213, 1754.814 2851.210, 1745.016 2853.208, 1735.217 2855.205, 1725.419 2857.202, 1715.620 2859.200, 1705.822 2861.197, 1696.023 2863.195, 1686.225 2865.192, 1676.426 2867.189, 1666.628 2869.187, 1656.829 2871.184, 1647.031 2873.181, 1637.232 2875.179, 1627.434 2877.176, 1617.635 2879.173, 1607.837 2881.171, 1598.038 2883.168, 1588.240 2885.165, 1578.441 2887.163, 1568.643 2889.160, 1558.844 2891.157, 1549.046 2893.155, 1539.247 2895.152, 1529.449 2897.149, 1519.650 2899.147, 1509.852 2901.144, 1500.053 2903.141, 1490.255 2905.139, 1480.456 2907.136, 1470.658 2909.134, 1460.859 2911.131, 1451.061 2913.128, 1441.262 2915.125, 1431.464 2917.123, 1421.665 2919.120, 1411.867 2921.117, 1402.068 2923.115, 1392.270 2925.112, 1382.471 2927.110, 1372.673 2929.107, 1362.874 2931.104, 1353.076 2933.102, 1343.277 2935.099, 1333.479 2937.096, 1323.680 2939.094, 1313.882 2941.091, 1304.083 2943.088, 1294.285 2945.086, 1284.486 2947.083, 1274.688 2949.080, 1264.889 2951.078, 1255.091 2953.075, 1245.292 2955.072, 1235.494 2957.070, 1225.695 2959.067, 1215.897 2961.064, 1206.098 2963.062, 1196.300 2965.059, 1186.501 2967.056, 1176.703 2969.054, 1166.904 2971.051, 1157.106 2973.049, 1147.307 2975.441, 1135.570 " />
            <path fill="none" stroke-width="3.0" stroke-linecap="butt" stroke-opacity="1.0" stroke="rgb(0, 0, 0)" stroke-linejoin="round" d=" M 2975.441, 1135.570 2975.712, 1125.573 2975.984, 1115.577 2976.255, 1105.581 2976.527, 1095.584 2976.798, 1085.588 2977.069, 1075.592 2977.341, 1065.595 2977.535, 1058.455 2982.833, 1049.974 2988.131, 1041.493 2993.430, 1033.012 2998.728, 1024.531 3004.027, 1016.050 3009.325, 1007.569 3014.623, 999.088 3019.922, 990.607 3025.220, 982.126 3030.519, 973.645 3035.817, 965.164 3041.115, 956.683 3046.414, 948.202 3051.712, 939.721 3057.010, 931.240 3062.309, 922.759 3067.607, 914.278 3072.906, 905.797 3078.204, 897.316 3083.502, 888.835 3088.801, 880.354 3094.875, 870.631 3094.671, 860.633 3094.467, 850.635 3094.263, 840.637 3094.060, 830.639 3093.856, 820.641 3093.652, 810.644 3093.448, 800.646 3093.244, 790.648 3093.040, 780.650 3092.836, 770.652 3092.632, 760.654 3092.428, 750.656 3092.225, 740.658 3092.021, 730.660 3091.817, 720.662 3091.613, 710.664 3091.409, 700.667 3091.205, 690.669 3091.001, 680.671 3090.797, 670.673 3090.593, 660.675 3090.389, 650.677 3090.186, 640.679 3089.982, 630.681 3089.778, 620.683 3089.574, 610.685 3089.370, 600.687 3089.166, 590.689 3088.962, 580.691 3088.758, 570.693 3088.554, 560.696 3088.351, 550.698 3088.147, 540.700 3087.943, 530.702 3087.739, 520.704 3087.535, 510.706 3087.331, 500.708 3087.096, 489.171 " />
            <path fill="none" stroke-width="3.0" stroke-linecap="butt" stroke-opacity="1.0" stroke="rgb(0, 0, 0)" stroke-linejoin="round" d=" M 3087.096, 489.171 3091.335, 480.114 3095.575, 471.057 3099.814, 462.000 3104.054, 452.944 3108.293, 443.887 3112.533, 434.830 3116.772, 425.773 3121.012, 416.716 3125.251, 407.659 3129.491, 398.603 3133.730, 389.546 3137.970, 380.489 3142.210, 371.432 3146.449, 362.375 3150.689, 353.318 3154.928, 344.261 3159.168, 335.205 3163.407, 326.148 3167.647, 317.091 3171.886, 308.034 3176.126, 298.977 3180.365, 289.920 3184.605, 280.864 3188.844, 271.807 3193.084, 262.750 3197.323, 253.693 3201.563, 244.636 3205.802, 235.579 3210.042, 226.523 3214.281, 217.466 3218.521, 208.409 3222.760, 199.352 3227.000, 190.295 3231.240, 181.238 3235.479, 172.181 3239.719, 163.125 3243.958, 154.068 3248.198, 145.011 3252.437, 135.954 3256.677, 126.897 3260.916, 117.840 3265.156, 108.784 3269.395, 99.727 3273.635, 90.670 3277.874, 81.613 3282.114, 72.556 3286.353, 63.499 3290.593, 54.442 3294.832, 45.386 3299.072, 36.329 3305.020, 23.623 3295.020, 23.623 3285.020, 23.623 3275.020, 23.623 3265.020, 23.623 3255.020, 23.623 3245.020, 23.623 3235.020, 23.623 3232.930, 23.623 3232.212, 23.691 3231.610, 23.691 3231.030, 23.691 3230.475, 23.691 3229.945, 23.690 3229.443, 23.690 3228.972, 23.690 3228.719, 23.681 3228.522, 23.675 3221.802, 23.674 3211.802, 23.672 3201.802, 23.670 3191.802, 23.669 3181.802, 23.667 3171.802, 23.666 3161.802, 23.664 3151.802, 23.662 3141.802, 23.661 3131.802, 23.659 3121.802, 23.658 3111.802, 23.656 3101.802, 23.655 3091.802, 23.653 3088.095, 23.652 3078.095, 23.651 3068.095, 23.649 3058.095, 23.648 3048.095, 23.646 3038.095, 23.645 3028.095, 23.643 3018.095, 23.641 3008.095, 23.640 2998.095, 23.638 2988.095, 23.637 2978.095, 23.635 2968.095, 23.634 2958.095, 23.632 2948.095, 23.630 2938.095, 23.629 2928.095, 23.627 2918.095, 23.626 2908.095, 23.624 2899.571, 23.623 2897.769, 23.623 2896.057, 23.623 2894.438, 23.623 2892.919, 23.623 2891.502, 23.623 2882.589, 23.623 " />
            <path fill="none" stroke-width="3.0" stroke-linecap="butt" stroke-opacity="1.0" stroke="rgb(0, 0, 0)" stroke-linejoin="round" d=" M 2882.589, 23.623 2872.589, 23.623 2862.589, 23.623 2852.589, 23.623 2842.589, 23.623 2832.589, 23.623 2822.589, 23.623 2812.589, 23.623 2802.589, 23.623 2792.589, 23.623 2782.589, 23.623 2772.589, 23.623 2762.589, 23.623 2752.589, 23.623 2742.589, 23.623 2732.589, 23.623 2722.589, 23.623 2712.589, 23.623 2705.399, 23.623 2703.413, 23.623 2701.534, 23.623 2691.534, 23.623 2685.535, 23.623 " />
            <path fill="none" stroke-width="3.0" stroke-linecap="butt" stroke-opacity="1.0" stroke="rgb(0, 0, 0)" stroke-linejoin="round" d=" M 898.611, 1309.029 896.093, 1306.447 893.706, 1303.743 891.458, 1300.923 889.353, 1297.995 887.396, 1294.965 885.593, 1291.842 883.948, 1288.633 882.465, 1285.346 881.147, 1281.988 879.998, 1278.570 879.022, 1275.099 878.219, 1271.583 877.593, 1268.032 877.145, 1264.453 876.875, 1260.857 876.785, 1257.252 876.875, 1253.647 877.145, 1250.050 877.593, 1246.472 878.219, 1242.920 879.022, 1239.404 879.998, 1235.933 881.147, 1232.514 882.465, 1229.157 883.948, 1225.870 885.593, 1222.661 887.396, 1219.538 889.353, 1216.508 891.458, 1213.580 893.706, 1210.761 896.093, 1208.056 898.611, 1205.474 901.254, 1203.022 904.017, 1200.704 906.892, 1198.526 909.872, 1196.494 912.949, 1194.614 916.116, 1192.889 919.365, 1191.324 922.688, 1189.924 926.077, 1188.690 929.523, 1187.627 933.018, 1186.738 936.553, 1186.023 940.119, 1185.486 943.708, 1185.127 947.310, 1184.946 950.916, 1184.946 954.518, 1185.127 958.106, 1185.486 961.672, 1186.023 965.207, 1186.738 968.702, 1187.627 972.148, 1188.690 975.537, 1189.924 978.860, 1191.324 982.109, 1192.889 985.276, 1194.614 988.354, 1196.494 991.333, 1198.526 994.208, 1200.704 996.970, 1203.022 999.614, 1205.474 1002.132, 1208.056 1004.519, 1210.761 1006.767, 1213.580 1008.872, 1216.508 1010.829, 1219.538 1012.632, 1222.661 1014.278, 1225.870 1015.760, 1229.157 1017.078, 1232.514 1018.227, 1235.933 1019.203, 1239.404 1020.006, 1242.920 1020.632, 1246.472 1021.081, 1250.050 1021.350, 1253.647 1021.440, 1257.252 1021.350, 1260.857 1021.081, 1264.453 1020.632, 1268.032 1020.006, 1271.583 1019.203, 1275.099 1018.227, 1278.570 1017.078, 1281.988 1015.760, 1285.346 1014.278, 1288.633 1012.632, 1291.842 1010.829, 1294.965 1008.872, 1297.995 1006.767, 1300.923 1004.519, 1303.743 1002.132, 1306.447 999.614, 1309.029 996.970, 1311.481 994.208, 1313.799 991.333, 1315.977 988.354, 1318.008 985.276, 1319.888 982.109, 1321.613 978.860, 1323.178 975.537, 1324.579 972.148, 1325.813 968.702, 1326.875 965.207, 1327.766 961.672, 1328.479 958.106, 1329.017 954.518, 1329.376 950.916, 1329.556 947.310, 1329.556 943.708, 1329.376 940.119, 1329.017 936.553, 1328.479 933.018, 1327.766 929.523, 1326.875 926.077, 1325.813 922.688, 1324.579 919.365, 1323.178 916.116, 1321.613 912.949, 1319.888 909.872, 1318.008 906.892, 1315.977 904.017, 1313.799 901.254, 1311.481 898.611, 1309.029 " />
            <path fill="none" stroke-width="3.0" stroke-linecap="butt" stroke-opacity="1.0" stroke="rgb(0, 0, 0)" stroke-linejoin="round" d=" M 543.529, 1921.368 543.528, 1921.368 533.528, 1921.368 523.528, 1921.368 513.528, 1921.368 503.528, 1921.368 493.528, 1921.368 483.528, 1921.368 473.528, 1921.367 463.528, 1921.367 453.528, 1921.367 443.528, 1921.367 433.528, 1921.367 423.528, 1921.367 413.528, 1921.367 403.528, 1921.367 393.528, 1921.367 383.528, 1921.367 373.528, 1921.366 363.528, 1921.366 353.528, 1921.366 343.528, 1921.366 333.528, 1921.366 323.528, 1921.366 313.528, 1921.366 303.528, 1921.366 293.528, 1921.366 283.528, 1921.365 273.528, 1921.365 263.528, 1921.365 253.528, 1921.365 243.528, 1921.365 233.528, 1921.365 223.528, 1921.365 213.528, 1921.365 202.283, 1921.365 " />
            <path fill="none" stroke-width="3.0" stroke-linecap="butt" stroke-opacity="1.0" stroke="rgb(0, 0, 0)" stroke-linejoin="round" d=" M 2815.258, 1921.389 2805.258, 1921.388 2795.258, 1921.388 2785.258, 1921.388 2775.258, 1921.388 2765.258, 1921.388 2755.258, 1921.388 2745.258, 1921.388 2735.258, 1921.388 2725.258, 1921.388 2715.258, 1921.388 2705.258, 1921.388 2695.258, 1921.387 2685.258, 1921.387 2675.258, 1921.387 2665.258, 1921.387 2655.258, 1921.387 2645.258, 1921.387 2635.258, 1921.387 2625.258, 1921.387 2615.258, 1921.387 2605.258, 1921.387 2595.258, 1921.387 2585.258, 1921.386 2575.258, 1921.386 2565.258, 1921.386 2555.258, 1921.386 2545.258, 1921.386 2535.258, 1921.386 2525.258, 1921.386 2515.258, 1921.386 2506.314, 1921.386 " />
            <path fill="none" stroke-width="3.0" stroke-linecap="butt" stroke-opacity="1.0" stroke="rgb(0, 0, 0)" stroke-linejoin="round" d=" M 2502.436, 1921.386 2512.436, 1921.386 2522.436, 1921.386 2532.436, 1921.386 2542.436, 1921.386 2552.436, 1921.386 2562.436, 1921.386 2572.436, 1921.386 2582.436, 1921.386 2592.436, 1921.387 2602.436, 1921.387 2612.436, 1921.387 2622.436, 1921.387 2632.436, 1921.387 2642.436, 1921.387 2652.436, 1921.387 2662.436, 1921.387 2672.436, 1921.387 2682.436, 1921.387 2692.436, 1921.387 2702.436, 1921.388 2712.436, 1921.388 2722.436, 1921.388 2732.436, 1921.388 2742.436, 1921.388 2752.436, 1921.388 2762.436, 1921.388 2772.436, 1921.388 2782.436, 1921.388 2792.436, 1921.388 2802.436, 1921.388 2815.258, 1921.389 2805.258, 1921.388 2795.258, 1921.388 2785.258, 1921.388 2775.258, 1921.388 2765.258, 1921.388 2755.258, 1921.388 2745.258, 1921.388 2735.258, 1921.388 2725.258, 1921.388 2715.258, 1921.388 2705.258, 1921.388 2695.258, 1921.387 2685.258, 1921.387 2675.258, 1921.387 2665.258, 1921.387 2655.258, 1921.387 2645.258, 1921.387 2635.258, 1921.387 2625.258, 1921.387 2615.258, 1921.387 2605.258, 1921.387 2595.258, 1921.387 2585.258, 1921.386 2575.258, 1921.386 2565.258, 1921.386 2555.258, 1921.386 2545.258, 1921.386 2535.258, 1921.386 2525.258, 1921.386 2515.258, 1921.386 2510.048, 1921.386 " />
            <path fill="none" stroke-width="3.0" stroke-linecap="butt" stroke-opacity="1.0" stroke="rgb(0, 0, 0)" stroke-linejoin="round" d=" M 202.283, 1921.365 212.283, 1921.365 222.283, 1921.365 232.283, 1921.365 242.283, 1921.365 252.283, 1921.365 262.283, 1921.365 272.283, 1921.365 282.283, 1921.365 292.283, 1921.366 302.283, 1921.366 312.283, 1921.366 322.283, 1921.366 332.283, 1921.366 342.283, 1921.366 352.283, 1921.366 362.283, 1921.366 372.283, 1921.366 382.283, 1921.367 392.283, 1921.367 402.283, 1921.367 412.283, 1921.367 422.283, 1921.367 432.283, 1921.367 442.283, 1921.367 452.283, 1921.367 462.283, 1921.367 472.283, 1921.367 482.283, 1921.368 492.283, 1921.368 502.283, 1921.368 512.283, 1921.368 522.283, 1921.368 532.283, 1921.368 543.528, 1921.368 553.528, 1921.368 563.528, 1921.368 573.528, 1921.368 583.528, 1921.369 593.528, 1921.369 603.528, 1921.369 613.528, 1921.369 623.528, 1921.369 633.528, 1921.369 643.528, 1921.369 653.528, 1921.369 663.528, 1921.369 673.528, 1921.369 683.528, 1921.369 693.528, 1921.370 703.528, 1921.370 713.528, 1921.370 723.528, 1921.370 733.528, 1921.370 743.528, 1921.370 753.528, 1921.370 763.528, 1921.370 773.528, 1921.370 783.528, 1921.370 793.528, 1921.370 803.528, 1921.371 813.528, 1921.371 823.528, 1921.371 833.528, 1921.371 843.528, 1921.371 853.528, 1921.371 863.528, 1921.371 873.529, 1921.371 883.528, 1921.371 893.528, 1921.371 903.529, 1921.371 913.528, 1921.371 923.528, 1921.372 933.528, 1921.372 943.529, 1921.372 953.528, 1921.372 963.528, 1921.372 973.529, 1921.372 983.528, 1921.372 993.528, 1921.372 1003.528, 1921.372 1013.529, 1921.372 1023.528, 1921.372 1033.528, 1921.373 1043.528, 1921.373 1053.528, 1921.373 1063.528, 1921.373 1073.528, 1921.373 1083.528, 1921.373 1093.528, 1921.373 1103.528, 1921.373 1113.528, 1921.373 1123.528, 1921.373 1133.528, 1921.373 1143.528, 1921.374 1153.528, 1921.374 1163.528, 1921.374 1173.528, 1921.374 1183.528, 1921.374 1193.528, 1921.374 1203.528, 1921.374 1213.528, 1921.374 1223.528, 1921.374 1233.529, 1921.374 1243.528, 1921.374 1253.528, 1921.375 1263.529, 1921.375 1273.528, 1921.375 1283.528, 1921.375 1293.528, 1921.375 1303.528, 1921.375 1313.528, 1921.375 1323.528, 1921.375 1333.528, 1921.375 1343.529, 1921.375 1353.528, 1921.375 1363.528, 1921.376 1373.529, 1921.376 1383.528, 1921.376 1393.528, 1921.376 1403.529, 1921.376 1413.528, 1921.376 1423.528, 1921.376 1433.529, 1921.376 1443.528, 1921.376 1453.528, 1921.376 1463.528, 1921.376 1473.528, 1921.377 1483.529, 1921.377 1493.528, 1921.377 1503.528, 1921.377 1513.529, 1921.377 1523.528, 1921.377 1533.528, 1921.377 1543.529, 1921.377 1553.528, 1921.377 1563.528, 1921.377 1573.529, 1921.377 1583.528, 1921.378 1593.529, 1921.378 1603.528, 1921.378 1613.528, 1921.378 1623.529, 1921.378 1633.528, 1921.378 1643.528, 1921.378 1653.529, 1921.378 1663.528, 1921.378 1673.528, 1921.378 1683.529, 1921.378 1693.528, 1921.379 1703.529, 1921.379 1713.529, 1921.379 1733.743, 1921.379 1734.939, 1921.379 " />
            <path fill="none" stroke-width="3.0" stroke-linecap="butt" stroke-opacity="1.0" stroke="rgb(0, 0, 0)" stroke-linejoin="round" d=" M 547.294, 1921.368 557.294, 1921.368 567.294, 1921.368 577.294, 1921.368 587.294, 1921.369 597.294, 1921.369 607.294, 1921.369 617.294, 1921.369 627.294, 1921.369 637.294, 1921.369 647.294, 1921.369 657.294, 1921.369 667.294, 1921.369 677.294, 1921.369 687.294, 1921.369 697.294, 1921.370 707.294, 1921.370 717.294, 1921.370 727.294, 1921.370 737.294, 1921.370 747.294, 1921.370 757.294, 1921.370 767.294, 1921.370 777.294, 1921.370 787.294, 1921.370 797.294, 1921.370 807.294, 1921.371 817.294, 1921.371 827.294, 1921.371 837.294, 1921.371 847.294, 1921.371 857.294, 1921.371 867.294, 1921.371 877.294, 1921.371 887.294, 1921.371 897.294, 1921.371 907.294, 1921.371 917.294, 1921.372 927.294, 1921.372 937.294, 1921.372 947.294, 1921.372 957.294, 1921.372 967.294, 1921.372 977.294, 1921.372 987.294, 1921.372 997.294, 1921.372 1007.294, 1921.372 1017.294, 1921.372 1027.294, 1921.372 1037.294, 1921.373 1047.294, 1921.373 1057.294, 1921.373 1067.294, 1921.373 1077.294, 1921.373 1087.294, 1921.373 1097.294, 1921.373 1107.294, 1921.373 1117.294, 1921.373 1127.294, 1921.373 1137.294, 1921.373 1147.294, 1921.374 1157.294, 1921.374 1167.294, 1921.374 1177.294, 1921.374 1187.294, 1921.374 1197.294, 1921.374 1207.294, 1921.374 1217.294, 1921.374 1227.294, 1921.374 1237.294, 1921.374 1247.294, 1921.374 1257.294, 1921.375 1267.294, 1921.375 1277.294, 1921.375 1287.294, 1921.375 1297.294, 1921.375 1307.294, 1921.375 1317.294, 1921.375 1327.294, 1921.375 1337.294, 1921.375 1347.294, 1921.375 1357.294, 1921.375 1367.294, 1921.376 1377.294, 1921.376 1387.294, 1921.376 1397.294, 1921.376 1407.294, 1921.376 1417.294, 1921.376 1427.294, 1921.376 1437.294, 1921.376 1447.294, 1921.376 1457.294, 1921.376 1467.294, 1921.376 1477.294, 1921.377 1487.294, 1921.377 1497.294, 1921.377 1507.294, 1921.377 1517.294, 1921.377 1527.294, 1921.377 1537.294, 1921.377 1547.294, 1921.377 1557.294, 1921.377 1567.294, 1921.377 1577.294, 1921.377 1587.294, 1921.378 1597.294, 1921.378 1607.294, 1921.378 1617.294, 1921.378 1627.294, 1921.378 1637.294, 1921.378 1647.294, 1921.378 1657.294, 1921.378 1667.294, 1921.378 1677.294, 1921.378 1687.294, 1921.378 1697.294, 1921.379 1707.294, 1921.379 1717.294, 1921.379 1733.430, 1921.379 1734.824, 1921.379 " />
            <path fill="none" stroke-width="3.0" stroke-linecap="butt" stroke-opacity="1.0" stroke="rgb(0, 0, 0)" stroke-linejoin="round" d=" M 233.792, 307.554 232.957, 317.520 232.122, 327.485 231.288, 337.450 230.453, 347.415 229.619, 357.380 228.784, 367.345 227.949, 377.310 227.115, 387.275 226.280, 397.240 225.446, 407.206 224.611, 417.171 223.776, 427.136 222.942, 437.101 222.107, 447.066 221.273, 457.031 220.438, 466.996 219.603, 476.961 218.769, 486.926 217.934, 496.892 217.100, 506.857 216.265, 516.822 215.430, 526.787 214.596, 536.752 213.761, 546.717 212.927, 556.682 212.092, 566.647 211.257, 576.612 210.423, 586.578 209.588, 596.543 208.754, 606.508 207.919, 616.473 207.084, 626.438 206.250, 636.403 205.415, 646.368 204.581, 656.333 203.746, 666.298 202.911, 676.264 202.077, 686.229 201.242, 696.194 200.408, 706.159 199.573, 716.124 198.738, 726.089 197.904, 736.054 197.069, 746.019 196.235, 755.984 195.400, 765.950 194.565, 775.915 193.731, 785.880 192.896, 795.845 192.062, 805.810 191.227, 815.775 190.392, 825.740 189.558, 835.705 188.723, 845.670 187.889, 855.635 187.054, 865.601 186.158, 876.296 " />
            <path fill="none" stroke-width="3.0" stroke-linecap="butt" stroke-opacity="1.0" stroke="rgb(0, 0, 0)" stroke-linejoin="round" d=" M 193.025, 23.623 194.446, 33.521 195.867, 43.420 197.289, 53.318 198.710, 63.217 200.131, 73.115 201.552, 83.014 202.973, 92.912 204.395, 102.811 205.816, 112.709 207.237, 122.608 208.658, 132.506 210.080, 142.405 211.501, 152.303 212.922, 162.202 214.343, 172.100 215.764, 181.999 217.186, 191.897 218.607, 201.796 220.028, 211.694 221.449, 221.593 222.871, 231.491 224.292, 241.390 225.713, 251.288 227.134, 261.186 228.555, 271.085 229.977, 280.983 231.398, 290.882 232.819, 300.780 233.792, 307.554 " />
            <path fill="none" stroke-width="3.0" stroke-linecap="butt" stroke-opacity="1.0" stroke="rgb(0, 0, 0)" stroke-linejoin="round" d=" M 1733.743, 1921.379 1735.633, 1921.379 " />
            <path fill="none" stroke-width="3.0" stroke-linecap="butt" stroke-opacity="1.0" stroke="rgb(0, 0, 0)" stroke-linejoin="round" d=" M 1783.813, 968.671 1782.723, 966.256 " />
            <path fill="none" stroke-width="3.0" stroke-linecap="butt" stroke-opacity="1.0" stroke="rgb(0, 0, 0)" stroke-linejoin="round" d=" M 1785.021, 971.029 1783.813, 968.671 " />
            <path fill="none" stroke-width="3.0" stroke-linecap="butt" stroke-opacity="1.0" stroke="rgb(0, 0, 0)" stroke-linejoin="round" d=" M 1790.982, 979.772 1789.330, 977.701 " />
            <path fill="none" stroke-width="3.0" stroke-linecap="butt" stroke-opacity="1.0" stroke="rgb(0, 0, 0)" stroke-linejoin="round" d=" M 1792.736, 981.759 1790.982, 979.772 " />
            <path fill="none" stroke-width="3.0" stroke-linecap="butt" stroke-opacity="1.0" stroke="rgb(0, 0, 0)" stroke-linejoin="round" d=" M 1794.585, 983.655 1792.736, 981.759 " />
            <path fill="none" stroke-width="3.0" stroke-linecap="butt" stroke-opacity="1.0" stroke="rgb(0, 0, 0)" stroke-linejoin="round" d=" M 1809.834, 994.051 1807.447, 992.902 " />
            <path fill="none" stroke-width="3.0" stroke-linecap="butt" stroke-opacity="1.0" stroke="rgb(0, 0, 0)" stroke-linejoin="round" d=" M 1812.275, 995.081 1809.834, 994.051 " />
            <path fill="none" stroke-width="3.0" stroke-linecap="butt" stroke-opacity="1.0" stroke="rgb(0, 0, 0)" stroke-linejoin="round" d=" M 1814.765, 995.987 1812.275, 995.081 " />
            <path fill="none" stroke-width="3.0" stroke-linecap="butt" stroke-opacity="1.0" stroke="rgb(0, 0, 0)" stroke-linejoin="round" d=" M 1825.081, 998.342 1822.461, 997.947 " />
            <path fill="none" stroke-width="3.0" stroke-linecap="butt" stroke-opacity="1.0" stroke="rgb(0, 0, 0)" stroke-linejoin="round" d=" M 1846.081, 996.768 1843.513, 997.421 " />
            <path fill="none" stroke-width="3.0" stroke-linecap="butt" stroke-opacity="1.0" stroke="rgb(0, 0, 0)" stroke-linejoin="round" d=" M 1868.792, 983.655 1866.850, 985.458 " />
            <path fill="none" stroke-width="3.0" stroke-linecap="butt" stroke-opacity="1.0" stroke="rgb(0, 0, 0)" stroke-linejoin="round" d=" M 1743.115, 1921.379 1753.115, 1921.380 1763.115, 1921.380 1773.115, 1921.380 1783.115, 1921.380 1793.115, 1921.380 1803.115, 1921.380 1813.115, 1921.380 1823.115, 1921.380 1833.115, 1921.380 1843.115, 1921.380 1853.115, 1921.380 1863.115, 1921.380 1873.115, 1921.381 1883.115, 1921.381 1893.115, 1921.381 1903.115, 1921.381 1913.115, 1921.381 1923.115, 1921.381 1933.115, 1921.381 1943.115, 1921.381 1953.115, 1921.381 1963.115, 1921.381 1973.115, 1921.381 1983.115, 1921.381 1993.115, 1921.382 2003.115, 1921.382 2013.115, 1921.382 2023.115, 1921.382 2033.115, 1921.382 2043.115, 1921.382 2053.115, 1921.382 2063.115, 1921.382 2073.115, 1921.382 2083.115, 1921.382 2093.115, 1921.382 2103.115, 1921.383 2113.115, 1921.383 2123.115, 1921.383 2133.115, 1921.383 2143.115, 1921.383 2153.115, 1921.383 2163.115, 1921.383 2173.115, 1921.383 2183.115, 1921.383 2193.115, 1921.383 2203.115, 1921.383 2213.115, 1921.383 2223.115, 1921.384 2233.115, 1921.384 2243.115, 1921.384 2253.115, 1921.384 2263.115, 1921.384 2273.115, 1921.384 2283.115, 1921.384 2293.115, 1921.384 2303.115, 1921.384 2313.115, 1921.384 2323.115, 1921.384 2333.115, 1921.384 2343.115, 1921.385 2353.115, 1921.385 2363.115, 1921.385 2373.115, 1921.385 2383.115, 1921.385 2393.115, 1921.385 2403.115, 1921.385 2413.115, 1921.385 2423.115, 1921.385 2433.115, 1921.385 2443.115, 1921.385 2453.115, 1921.385 2463.115, 1921.386 2473.115, 1921.386 2483.115, 1921.386 2493.115, 1921.386 2503.115, 1921.386 2513.115, 1921.386 2523.115, 1921.386 2533.115, 1921.386 2543.115, 1921.386 2553.115, 1921.386 2563.115, 1921.386 2573.115, 1921.387 2583.115, 1921.387 2593.115, 1921.387 2603.115, 1921.387 2613.115, 1921.387 2623.115, 1921.387 2633.115, 1921.387 2643.115, 1921.387 2653.115, 1921.387 2663.115, 1921.387 2673.115, 1921.387 2683.115, 1921.387 2693.115, 1921.388 2703.115, 1921.388 2713.115, 1921.388 2723.115, 1921.388 2733.115, 1921.388 2743.115, 1921.388 2753.115, 1921.388 2763.115, 1921.388 2773.115, 1921.388 2783.115, 1921.388 2793.115, 1921.388 2803.115, 1921.388 2815.258, 1921.389 " />
            <path fill="none" stroke-width="3.0" stroke-linecap="butt" stroke-opacity="1.0" stroke="rgb(0, 0, 0)" stroke-linejoin="round" d=" M 2460.851, 1921.385 2470.851, 1921.385 2480.851, 1921.386 2490.851, 1921.386 2500.851, 1921.386 2510.851, 1921.386 2520.851, 1921.386 2530.851, 1921.386 2540.851, 1921.386 2550.851, 1921.386 2560.851, 1921.386 2570.851, 1921.386 2580.851, 1921.386 2590.851, 1921.387 2600.851, 1921.387 2610.851, 1921.387 2620.851, 1921.387 2630.851, 1921.387 2640.851, 1921.387 2650.851, 1921.387 2660.851, 1921.387 2670.851, 1921.387 2680.851, 1921.387 2690.851, 1921.387 2700.851, 1921.388 2710.851, 1921.388 2720.851, 1921.388 2730.851, 1921.388 2740.851, 1921.388 2750.851, 1921.388 2760.851, 1921.388 2770.851, 1921.388 2780.851, 1921.388 2790.851, 1921.388 2800.851, 1921.388 2810.851, 1921.389 2815.258, 1921.389 " />
            <path fill="none" stroke-width="3.0" stroke-linecap="butt" stroke-opacity="1.0" stroke="rgb(0, 0, 0)" stroke-linejoin="round" d=" M 2468.575, 1921.385 2478.575, 1921.386 2488.575, 1921.386 2498.575, 1921.386 2508.575, 1921.386 2518.575, 1921.386 2528.575, 1921.386 2538.575, 1921.386 2548.575, 1921.386 2558.575, 1921.386 2568.575, 1921.386 2578.575, 1921.386 2588.575, 1921.387 2598.575, 1921.387 2608.575, 1921.387 2618.575, 1921.387 2628.575, 1921.387 2638.575, 1921.387 2648.575, 1921.387 2658.575, 1921.387 2668.575, 1921.387 2678.575, 1921.387 2688.575, 1921.387 2698.575, 1921.388 2708.575, 1921.388 2718.575, 1921.388 2728.575, 1921.388 2738.575, 1921.388 2748.575, 1921.388 2758.575, 1921.388 2768.575, 1921.388 2778.575, 1921.388 2788.575, 1921.388 2798.575, 1921.388 2808.575, 1921.389 2815.258, 1921.389 " />
            <path fill="none" stroke-width="3.0" stroke-linecap="butt" stroke-opacity="1.0" stroke="rgb(0, 0, 0)" stroke-linejoin="round" d=" M 1336.867, 1921.375 1326.867, 1921.375 1316.867, 1921.375 1306.867, 1921.375 1296.867, 1921.375 1286.867, 1921.375 1276.867, 1921.374 1266.867, 1921.374 1256.867, 1921.374 1246.867, 1921.374 1236.867, 1921.374 1226.867, 1921.374 1216.867, 1921.374 1206.867, 1921.374 1196.867, 1921.374 1186.867, 1921.374 1176.867, 1921.374 1166.867, 1921.373 1156.867, 1921.373 1146.867, 1921.373 1136.867, 1921.373 1126.867, 1921.373 1116.867, 1921.373 1106.867, 1921.373 1096.867, 1921.373 1086.867, 1921.373 1076.867, 1921.373 1066.867, 1921.373 1056.867, 1921.372 1046.867, 1921.372 1036.867, 1921.372 1026.867, 1921.372 1016.867, 1921.372 1006.867, 1921.372 996.867, 1921.372 986.867, 1921.372 976.867, 1921.372 966.867, 1921.372 956.867, 1921.372 946.867, 1921.371 936.867, 1921.371 926.867, 1921.371 916.867, 1921.371 906.867, 1921.371 896.867, 1921.371 886.867, 1921.371 876.867, 1921.371 866.867, 1921.371 856.867, 1921.371 846.867, 1921.371 836.867, 1921.370 826.867, 1921.370 816.867, 1921.370 806.867, 1921.370 796.867, 1921.370 786.867, 1921.370 776.867, 1921.370 766.867, 1921.370 756.867, 1921.370 746.867, 1921.370 732.496, 1921.370 732.348, 1921.370 722.348, 1921.369 712.348, 1921.369 702.348, 1921.369 692.348, 1921.369 682.414, 1921.369 " />
            <path fill="none" stroke-width="3.0" stroke-linecap="butt" stroke-opacity="1.0" stroke="rgb(0, 0, 0)" stroke-linejoin="round" d=" M 2815.258, 1921.389 2805.258, 1921.388 2795.258, 1921.388 2785.258, 1921.388 2775.258, 1921.388 2765.258, 1921.388 2755.258, 1921.388 2745.258, 1921.388 2735.258, 1921.388 2725.258, 1921.388 2715.258, 1921.388 2705.258, 1921.388 2695.258, 1921.387 2685.258, 1921.387 2675.258, 1921.387 2665.258, 1921.387 2655.258, 1921.387 2645.258, 1921.387 2635.258, 1921.387 2625.258, 1921.387 2615.258, 1921.387 2605.258, 1921.387 2595.258, 1921.387 2585.258, 1921.386 2575.258, 1921.386 2565.258, 1921.386 2555.258, 1921.386 2545.258, 1921.386 2535.258, 1921.386 2525.258, 1921.386 2515.258, 1921.386 2507.849, 1921.386 " />
        </g>
    </g>
<g id="slice-labels"><text x="570.8374999999999" y="498.06449999999995" text-anchor="middle" dominant-baseline="middle" font-family="Arial, sans-serif" font-size="59.042797604881386" font-weight="bold" fill="black" stroke="none" stroke-width="7.085135712585767" paint-order="stroke fill">Slice7 (Back)</text><text x="1664.5104999999999" y="498.06449999999995" text-anchor="middle" dominant-baseline="middle" font-family="Arial, sans-serif" font-size="59.042797604881386" font-weight="bold" fill="black" stroke="none" stroke-width="7.085135712585767" paint-order="stroke fill">Slice7 (Back)</text><text x="2758.1835" y="498.06449999999995" text-anchor="middle" dominant-baseline="middle" font-family="Arial, sans-serif" font-size="59.042797604881386" font-weight="bold" fill="black" stroke="none" stroke-width="7.085135712585767" paint-order="stroke fill">Slice7 (Back)</text><text x="570.8374999999999" y="1446.9475" text-anchor="middle" dominant-baseline="middle" font-family="Arial, sans-serif" font-size="59.042797604881386" font-weight="bold" fill="black" stroke="none" stroke-width="7.085135712585767" paint-order="stroke fill">Slice7 (Back)</text><text x="1664.5104999999999" y="1446.9475" text-anchor="middle" dominant-baseline="middle" font-family="Arial, sans-serif" font-size="59.042797604881386" font-weight="bold" fill="black" stroke="none" stroke-width="7.085135712585767" paint-order="stroke fill">Slice7 (Back)</text><text x="2758.1835" y="1446.9475" text-anchor="middle" dominant-baseline="middle" font-family="Arial, sans-serif" font-size="59.042797604881386" font-weight="bold" fill="black" stroke="none" stroke-width="7.085135712585767" paint-order="stroke fill">Slice7 (Back)</text></g></svg></g></svg>