  0
SECTION
  2
HEADER
  9
$ACADVER
  1
AC1032
  9
$ACADMAINTVER
 90
       55
  9
$DWGCODEPAGE
  3
ANSI_1252
  9
$LASTSAVEDBY
  1
Thomas.Friedrich
  9
$REQUIREDVERSIONS
160
                 0
  9
$INSBASE
 10
0.0
 20
0.0
 30
0.0
  9
$EXTMIN
 10
0.0
 20
0.0
 30
0.0
  9
$EXTMAX
 10
900.0
 20
1600.0
 30
0.0
  9
$LIMMIN
 10
0.0
 20
0.0
  9
$LIMMAX
 10
900.0
 20
1600.0
  9
$ORTHOMODE
 70
     0
  9
$REGENMODE
 70
     1
  9
$FILLMODE
 70
     1
  9
$QTEXTMODE
 70
     0
  9
$MIRRTEXT
 70
     1
  9
$LTSCALE
 40
1.0
  9
$ATTMODE
 70
     1
  9
$TEXTSIZE
 40
3.5
  9
$TRACEWID
 40
1.0
  9
$TEXTSTYLE
  7
Standard
  9
$CLAYER
  8
0
  9
$CELTYPE
  6
ByLayer
  9
$CECOLOR
 62
   256
  9
$CELTSCALE
 40
1.0
  9
$DISPSILH
 70
     0
  9
$DIMSCALE
 40
1.0
  9
$DIMASZ
 40
3.556
  9
$DIMEXO
 40
1.0
  9
$DIMDLI
 40
3.75
  9
$DIMRND
 40
0.0
  9
$DIMDLE
 40
0.0
  9
$DIMEXE
 40
1.0
  9
$DIMTP
 40
0.0
  9
$DIMTM
 40
0.0
  9
$DIMTXT
 40
3.5
  9
$DIMCEN
 40
2.5
  9
$DIMTSZ
 40
0.0
  9
$DIMTOL
 70
     0
  9
$DIMLIM
 70
     0
  9
$DIMTIH
 70
     1
  9
$DIMTOH
 70
     1
  9
$DIMSE1
 70
     0
  9
$DIMSE2
 70
     0
  9
$DIMTAD
 70
     1
  9
$DIMZIN
 70
     0
  9
$DIMBLK
  1

  9
$DIMASO
 70
     1
  9
$DIMSHO
 70
     1
  9
$DIMPOST
  1

  9
$DIMAPOST
  1

  9
$DIMALT
 70
     0
  9
$DIMALTD
 70
     3
  9
$DIMALTF
 40
0.0393700787
  9
$DIMLFAC
 40
1.0
  9
$DIMTOFL
 70
     1
  9
$DIMTVP
 40
0.0
  9
$DIMTIX
 70
     0
  9
$DIMSOXD
 70
     0
  9
$DIMSAH
 70
     0
  9
$DIMBLK1
  1

  9
$DIMBLK2
  1

  9
$DIMSTYLE
  2
ISO-25
  9
$DIMCLRD
 70
     0
  9
$DIMCLRE
 70
     0
  9
$DIMCLRT
 70
     0
  9
$DIMTFAC
 40
1.0
  9
$DIMGAP
 40
1.524
  9
$DIMJUST
 70
     0
  9
$DIMSD1
 70
     0
  9
$DIMSD2
 70
     0
  9
$DIMTOLJ
 70
     0
  9
$DIMTZIN
 70
     0
  9
$DIMALTZ
 70
     0
  9
$DIMALTTZ
 70
     0
  9
$DIMUPT
 70
     0
  9
$DIMDEC
 70
     2
  9
$DIMTDEC
 70
     2
  9
$DIMALTU
 70
     2
  9
$DIMALTTD
 70
     3
  9
$DIMTXSTY
  7
Standard
  9
$DIMAUNIT
 70
     0
  9
$DIMADEC
 70
     2
  9
$DIMALTRND
 40
0.0
  9
$DIMAZIN
 70
     0
  9
$DIMDSEP
 70
    44
  9
$DIMATFIT
 70
     3
  9
$DIMFRAC
 70
     0
  9
$DIMLDRBLK
  1

  9
$DIMLUNIT
 70
     2
  9
$DIMLWD
 70
    -2
  9
$DIMLWE
 70
    -2
  9
$DIMTMOVE
 70
     0
  9
$DIMFXL
 40
1.0
  9
$DIMFXLON
 70
     0
  9
$DIMJOGANG
 40
0.7853981634
  9
$DIMTFILL
 70
     0
  9
$DIMTFILLCLR
 70
     0
  9
$DIMARCSYM
 70
     0
  9
$DIMLTYPE
  6

  9
$DIMLTEX1
  6

  9
$DIMLTEX2
  6

  9
$DIMTXTDIRECTION
 70
     0
  9
$LUNITS
 70
     2
  9
$LUPREC
 70
     2
  9
$SKETCHINC
 40
1.0
  9
$FILLETRAD
 40
10.0
  9
$AUNITS
 70
     0
  9
$AUPREC
 70
     2
  9
$MENU
  1
.
  9
$ELEVATION
 40
0.0
  9
$PELEVATION
 40
0.0
  9
$THICKNESS
 40
0.0
  9
$LIMCHECK
 70
     0
  9
$CHAMFERA
 40
0.0
  9
$CHAMFERB
 40
0.0
  9
$CHAMFERC
 40
0.0
  9
$CHAMFERD
 40
0.0
  9
$SKPOLY
 70
     0
  9
$TDCREATE
 40
2460388.27856691
  9
$TDUCREATE
 40
2460388.236900243
  9
$TDUPDATE
 40
2460388.278567014
  9
$TDUUPDATE
 40
2460388.236900347
  9
$TDINDWG
 40
0.0000000116
  9
$TDUSRTIMER
 40
0.0000000116
  9
$USRTIMER
 70
     1
  9
$ANGBASE
 50
0.0
  9
$ANGDIR
 70
     0
  9
$PDMODE
 70
     0
  9
$PDSIZE
 40
-1.0
  9
$PLINEWID
 40
0.0
  9
$SPLFRAME
 70
     0
  9
$SPLINETYPE
 70
     6
  9
$SPLINESEGS
 70
     8
  9
$HANDSEED
  5
167
  9
$SURFTAB1
 70
     6
  9
$SURFTAB2
 70
     6
  9
$SURFTYPE
 70
     6
  9
$SURFU
 70
     6
  9
$SURFV
 70
     6
  9
$UCSBASE
  2

  9
$UCSNAME
  2

  9
$UCSORG
 10
0.0
 20
0.0
 30
0.0
  9
$UCSXDIR
 10
1.0
 20
0.0
 30
0.0
  9
$UCSYDIR
 10
0.0
 20
1.0
 30
0.0
  9
$UCSORTHOREF
  2

  9
$UCSORTHOVIEW
 70
     0
  9
$UCSORGTOP
 10
0.0
 20
0.0
 30
0.0
  9
$UCSORGBOTTOM
 10
0.0
 20
0.0
 30
0.0
  9
$UCSORGLEFT
 10
0.0
 20
0.0
 30
0.0
  9
$UCSORGRIGHT
 10
0.0
 20
0.0
 30
0.0
  9
$UCSORGFRONT
 10
0.0
 20
0.0
 30
0.0
  9
$UCSORGBACK
 10
0.0
 20
0.0
 30
0.0
  9
$PUCSBASE
  2

  9
$PUCSNAME
  2

  9
$PUCSORG
 10
0.0
 20
0.0
 30
0.0
  9
$PUCSXDIR
 10
1.0
 20
0.0
 30
0.0
  9
$PUCSYDIR
 10
0.0
 20
1.0
 30
0.0
  9
$PUCSORTHOREF
  2

  9
$PUCSORTHOVIEW
 70
     0
  9
$PUCSORGTOP
 10
0.0
 20
0.0
 30
0.0
  9
$PUCSORGBOTTOM
 10
0.0
 20
0.0
 30
0.0
  9
$PUCSORGLEFT
 10
0.0
 20
0.0
 30
0.0
  9
$PUCSORGRIGHT
 10
0.0
 20
0.0
 30
0.0
  9
$PUCSORGFRONT
 10
0.0
 20
0.0
 30
0.0
  9
$PUCSORGBACK
 10
0.0
 20
0.0
 30
0.0
  9
$USERI1
 70
     0
  9
$USERI2
 70
     0
  9
$USERI3
 70
     0
  9
$USERI4
 70
     0
  9
$USERI5
 70
     0
  9
$USERR1
 40
0.0
  9
$USERR2
 40
0.0
  9
$USERR3
 40
0.0
  9
$USERR4
 40
0.0
  9
$USERR5
 40
0.0
  9
$WORLDVIEW
 70
     1
  9
$SHADEDGE
 70
     3
  9
$SHADEDIF
 70
    70
  9
$TILEMODE
 70
     1
  9
$MAXACTVP
 70
    64
  9
$PINSBASE
 10
0.0
 20
0.0
 30
0.0
  9
$PLIMCHECK
 70
     0
  9
$PEXTMIN
 10
1.0000000000E+20
 20
1.0000000000E+20
 30
1.0000000000E+20
  9
$PEXTMAX
 10
-1.0000000000E+20
 20
-1.0000000000E+20
 30
-1.0000000000E+20
  9
$PLIMMIN
 10
0.0
 20
0.0
  9
$PLIMMAX
 10
420.0
 20
297.0
  9
$UNITMODE
 70
     0
  9
$VISRETAIN
 70
     1
  9
$PLINEGEN
 70
     0
  9
$PSLTSCALE
 70
     1
  9
$TREEDEPTH
 70
  3020
  9
$CMLSTYLE
  2
Standard
  9
$CMLJUST
 70
     0
  9
$CMLSCALE
 40
20.0
  9
$PROXYGRAPHICS
 70
     1
  9
$MEASUREMENT
 70
     1
  9
$CELWEIGHT
370
    -1
  9
$ENDCAPS
280
     0
  9
$JOINSTYLE
280
     0
  9
$LWDISPLAY
290
     1
  9
$INSUNITS
 70
     4
  9
$HYPERLINKBASE
  1

  9
$STYLESHEET
  1

  9
$XEDIT
290
     1
  9
$CEPSNTYPE
380
     0
  9
$PSTYLEMODE
290
     1
  9
$FINGERPRINTGUID
  2
{cc507a00-0e8e-4865-a23a-af5579d8b8b5}
  9
$VERSIONGUID
  2
{FAEB1C32-E019-11D5-929B-00C0DF256EC4}
  9
$EXTNAMES
290
     1
  9
$PSVPSCALE
 40
0.0
  9
$OLESTARTUP
290
     0
  9
$SORTENTS
280
   127
  9
$INDEXCTL
280
     0
  9
$HIDETEXT
280
     1
  9
$XCLIPFRAME
280
     2
  9
$HALOGAP
280
     0
  9
$OBSCOLOR
 70
   257
  9
$OBSLTYPE
280
     0
  9
$INTERSECTIONDISPLAY
280
     0
  9
$INTERSECTIONCOLOR
 70
   257
  9
$DIMASSOC
280
     2
  9
$PROJECTNAME
  1

  9
$CAMERADISPLAY
290
     0
  9
$LENSLENGTH
 40
50.0
  9
$CAMERAHEIGHT
 40
0.0
  9
$STEPSPERSEC
 40
2.0
  9
$STEPSIZE
 40
6.0
  9
$3DDWFPREC
 40
2.0
  9
$PSOLWIDTH
 40
5.0
  9
$PSOLHEIGHT
 40
80.0
  9
$LOFTANG1
 40
1.5707963268
  9
$LOFTANG2
 40
1.5707963268
  9
$LOFTMAG1
 40
0.0
  9
$LOFTMAG2
 40
0.0
  9
$LOFTPARAM
 70
     7
  9
$LOFTNORMALS
280
     1
  9
$LATITUDE
 40
37.795
  9
$LONGITUDE
 40
-122.394
  9
$NORTHDIRECTION
 40
0.0
  9
$TIMEZONE
 70
 -8000
  9
$LIGHTGLYPHDISPLAY
280
     1
  9
$TILEMODELIGHTSYNCH
280
     1
  9
$CMATERIAL
347
44
  9
$SOLIDHIST
280
     0
  9
$SHOWHIST
280
     1
  9
$DWFFRAME
280
     2
  9
$DGNFRAME
280
     2
  9
$REALWORLDSCALE
290
     1
  9
$INTERFERECOLOR
 62
   256
  9
$CSHADOW
280
     0
  9
$SHADOWPLANELOCATION
 40
0.0
  0
ENDSEC
  0
SECTION
  2
CLASSES
  0
CLASS
  1
ACDBDICTIONARYWDFLT
  2
AcDbDictionaryWithDefault
  3
ObjectDBX Classes
 90
        0
 91
        3
280
     0
281
     0
  0
CLASS
  1
VISUALSTYLE
  2
AcDbVisualStyle
  3
ObjectDBX Classes
 90
     4095
 91
        3
280
     0
281
     0
  0
CLASS
  1
MATERIAL
  2
AcDbMaterial
  3
ObjectDBX Classes
 90
     1153
 91
        3
280
     0
281
     0
  0
CLASS
  1
SCALE
  2
AcDbScale
  3
ObjectDBX Classes
 90
     1153
 91
        3
280
     0
281
     0
  0
CLASS
  1
TABLESTYLE
  2
AcDbTableStyle
  3
ObjectDBX Classes
 90
     4095
 91
        3
280
     0
281
     0
  0
CLASS
  1
MLEADERSTYLE
  2
AcDbMLeaderStyle
  3
ACDB_MLEADERSTYLE_CLASS
 90
     4095
 91
        3
280
     0
281
     0
  0
CLASS
  1
SUN
  2
AcDbSun
  3
SCENEOE
 90
     1153
 91
        3
280
     0
281
     0
  0
CLASS
  1
DICTIONARYVAR
  2
AcDbDictionaryVar
  3
ObjectDBX Classes
 90
        0
 91
        3
280
     0
281
     0
  0
CLASS
  1
CELLSTYLEMAP
  2
AcDbCellStyleMap
  3
ObjectDBX Classes
 90
     1152
 91
        3
280
     0
281
     0
  0
ENDSEC
  0
SECTION
  2
TABLES
  0
TABLE
  2
VPORT
  5
8
330
0
100
AcDbSymbolTable
 70
     1
  0
VPORT
  5
29
330
8
100
AcDbSymbolTableRecord
100
AcDbViewportTableRecord
  2
*Active
 70
     0
 10
0.0
 20
0.0
 11
1.0
 21
1.0
 12
450.0
 22
800.0
 13
0.0
 23
0.0
 14
10.0
 24
10.0
 15
10.0
 25
10.0
 16
0.0
 26
0.0
 36
1.0
 17
0.0
 27
0.0
 37
0.0
 40
1600.0
 41
0.5625
 42
50.0
 43
0.0
 44
0.0
 50
0.0
 51
0.0
 71
     0
 72
  2000
 73
     1
 74
     3
 75
     0
 76
     0
 77
     0
 78
     0
281
     0
 65
     1
110
0.0
120
0.0
130
0.0
111
1.0
121
0.0
131
0.0
112
0.0
122
1.0
132
0.0
 79
     0
146
0.0
348
2F
 60
     3
 61
     5
292
     1
282
     1
141
0.0
142
0.0
 63
   250
361
6D
  0
ENDTAB
  0
TABLE
  2
LTYPE
  5
5
330
0
100
AcDbSymbolTable
 70
     8
  0
LTYPE
  5
14
330
5
100
AcDbSymbolTableRecord
100
AcDbLinetypeTableRecord
  2
ByBlock
 70
     0
  3

 72
    65
 73
     0
 40
0.0
  0
LTYPE
  5
15
330
5
100
AcDbSymbolTableRecord
100
AcDbLinetypeTableRecord
  2
ByLayer
 70
     0
  3

 72
    65
 73
     0
 40
0.0
  0
LTYPE
  5
16
330
5
100
AcDbSymbolTableRecord
100
AcDbLinetypeTableRecord
  2
Continuous
 70
     0
  3
Solid line
 72
    65
 73
     0
 40
0.0
  0
LTYPE
  5
6E
330
5
100
AcDbSymbolTableRecord
100
AcDbLinetypeTableRecord
  2
SLD-Durchgehend
 70
     0
  3
SolidWorks Line Style
 72
    65
 73
     0
 40
0.0
  0
LTYPE
  5
6F
330
5
100
AcDbSymbolTableRecord
100
AcDbLinetypeTableRecord
  2
SLD-Gestrichelt
 70
     0
  3
SolidWorks Line Style
 72
    65
 73
     2
 40
1.905
 49
1.27
 74
     0
 49
-0.635
 74
     0
  0
LTYPE
  5
70
330
5
100
AcDbSymbolTableRecord
100
AcDbLinetypeTableRecord
  2
SLD-Phantom
 70
     0
  3
SolidWorks Line Style
 72
    65
 73
     6
 40
12.7
 49
6.35
 74
     0
 49
-1.27
 74
     0
 49
1.27
 74
     0
 49
-1.27
 74
     0
 49
1.27
 74
     0
 49
-1.27
 74
     0
  0
LTYPE
  5
71
330
5
100
AcDbSymbolTableRecord
100
AcDbLinetypeTableRecord
  2
SLD-Kette
 70
     0
  3
SolidWorks Line Style
 72
    65
 73
     4
 40
10.16
 49
6.35
 74
     0
 49
-1.27
 74
     0
 49
1.27
 74
     0
 49
-1.27
 74
     0
  0
LTYPE
  5
72
330
5
100
AcDbSymbolTableRecord
100
AcDbLinetypeTableRecord
  2
SLD-Punktstrich
 70
     0
  3
SolidWorks Line Style
 72
    65
 73
     4
 40
19.05
 49
15.24
 74
     0
 49
-1.27
 74
     0
 49
1.27
 74
     0
 49
-1.27
 74
     0
  0
LTYPE
  5
73
330
5
100
AcDbSymbolTableRecord
100
AcDbLinetypeTableRecord
  2
SLD-Naht
 70
     0
  3
SolidWorks Line Style
 72
    65
 73
     2
 40
0.635
 49
0.0
 74
     0
 49
-0.635
 74
     0
  0
LTYPE
  5
74
330
5
100
AcDbSymbolTableRecord
100
AcDbLinetypeTableRecord
  2
SLD-Dicke-Dünne-Kette
 70
     0
  3
SolidWorks Line Style
 72
    65
 73
     4
 40
10.16
 49
6.35
 74
     0
 49
-1.27
 74
     0
 49
1.27
 74
     0
 49
-1.27
 74
     0
  0
ENDTAB
  0
TABLE
  2
LAYER
  5
2
330
0
100
AcDbSymbolTable
 70
     2
  0
LAYER
  5
10
330
2
100
AcDbSymbolTableRecord
100
AcDbLayerTableRecord
  2
0
 70
     0
 62
     7
  6
Continuous
370
    -3
390
F
347
46
348
0
  0
LAYER
  5
75
330
2
100
AcDbSymbolTableRecord
100
AcDbLayerTableRecord
  2
FORMAT
 70
     0
 62
     7
  6
SLD-Durchgehend
370
    -3
390
F
347
46
348
0
  0
ENDTAB
  0
TABLE
  2
STYLE
  5
3
330
0
100
AcDbSymbolTable
 70
     1
  0
STYLE
  5
11
330
3
100
AcDbSymbolTableRecord
100
AcDbTextStyleTableRecord
  2
Standard
 70
     0
 40
0.0
 41
1.0
 50
0.0
 71
     0
 42
3.5
  3
txt
  4

  0
ENDTAB
  0
TABLE
  2
VIEW
  5
6
330
0
100
AcDbSymbolTable
 70
     0
  0
ENDTAB
  0
TABLE
  2
UCS
  5
7
330
0
100
AcDbSymbolTable
 70
     0
  0
ENDTAB
  0
TABLE
  2
APPID
  5
9
330
0
100
AcDbSymbolTable
 70
     1
  0
APPID
  5
12
330
9
100
AcDbSymbolTableRecord
100
AcDbRegAppTableRecord
  2
ACAD
 70
     0
  0
ENDTAB
  0
TABLE
  2
DIMSTYLE
  5
A
330
0
100
AcDbSymbolTable
 70
     1
100
AcDbDimStyleTable
  0
DIMSTYLE
105
27
330
A
100
AcDbSymbolTableRecord
100
AcDbDimStyleTableRecord
  2
ISO-25
 70
     0
 41
2.5
 42
0.625
 43
3.75
 44
1.25
 73
     0
 74
     0
 77
     1
 78
     8
140
2.5
141
2.5
143
0.0393700787
147
0.625
171
     3
172
     1
178
     0
271
     2
272
     2
274
     3
278
    44
283
     0
284
     8
340
11
  0
ENDTAB
  0
TABLE
  2
BLOCK_RECORD
  5
1
330
0
100
AcDbSymbolTable
 70
     1
  0
BLOCK_RECORD
  5
1F
330
1
100
AcDbSymbolTableRecord
100
AcDbBlockTableRecord
  2
*Model_Space
340
22
 70
     0
280
     1
281
     0
  0
BLOCK_RECORD
  5
1B
330
1
100
AcDbSymbolTableRecord
100
AcDbBlockTableRecord
  2
*Paper_Space
340
1E
 70
     0
280
     1
281
     0
  0
BLOCK_RECORD
  5
23
330
1
100
AcDbSymbolTableRecord
100
AcDbBlockTableRecord
  2
*Paper_Space0
340
26
 70
     0
280
     1
281
     0
  0
ENDTAB
  0
ENDSEC
  0
SECTION
  2
BLOCKS
  0
BLOCK
  5
20
330
1F
100
AcDbEntity
  8
0
100
AcDbBlockBegin
  2
*Model_Space
 70
     0
 10
0.0
 20
0.0
 30
0.0
  3
*Model_Space
  1

  0
ENDBLK
  5
21
330
1F
100
AcDbEntity
  8
0
100
AcDbBlockEnd
  0
BLOCK
  5
1C
330
1B
100
AcDbEntity
 67
     1
  8
0
100
AcDbBlockBegin
  2
*Paper_Space
 70
     0
 10
0.0
 20
0.0
 30
0.0
  3
*Paper_Space
  1

  0
ENDBLK
  5
1D
330
1B
100
AcDbEntity
 67
     1
  8
0
100
AcDbBlockEnd
  0
BLOCK
  5
24
330
23
100
AcDbEntity
  8
0
100
AcDbBlockBegin
  2
*Paper_Space0
 70
     0
 10
0.0
 20
0.0
 30
0.0
  3
*Paper_Space0
  1

  0
ENDBLK
  5
25
330
23
100
AcDbEntity
  8
0
100
AcDbBlockEnd
  0
ENDSEC
  0
SECTION
  2
ENTITIES
  0
ARC
  5
76
330
1F
100
AcDbEntity
  8
0
  6
SLD-Durchgehend
 62
     2
420
 16776960
370
    25
100
AcDbCircle
 10
591.8326289257
 20
187.31273786
 30
0.0
 40
1.36044946048028
100
AcDbArc
 50
2.613738811
 51
92.5377181231
  0
ARC
  5
77
330
1F
100
AcDbEntity
  8
0
  6
SLD-Durchgehend
 62
     2
420
 16776960
370
    25
100
AcDbCircle
 10
591.703075698
 20
187.2727236618
 30
0.0
 40
1.400845461319959
100
AcDbArc
 50
87.1637363297
 51
175.2469191337
  0
LWPOLYLINE
  5
78
330
1F
100
AcDbEntity
  8
0
  6
SLD-Durchgehend
 62
     2
420
 16776960
370
    25
100
AcDbPolyline
 90
        3
 70
   128
 43
0.0
 10
591.0372159457
 20
186.329104717
 10
590.4717749745
 20
186.8227488342
 10
590.3070476765
 20
187.3888002298
  0
ARC
  5
79
330
1F
100
AcDbEntity
  8
0
  6
SLD-Durchgehend
 62
     2
420
 16776960
370
    25
100
AcDbCircle
 10
591.5488850534
 20
184.9204091517
 30
0.0
 40
1.498742296554676
100
AcDbArc
 50
109.9621310896
 51
178.5278877472
  0
ARC
  5
7A
330
1F
100
AcDbEntity
  8
0
  6
SLD-Durchgehend
 62
     2
420
 16776960
370
    25
100
AcDbCircle
 10
591.618439525
 20
184.9784634358
 30
0.0
 40
1.567924004140718
100
AcDbArc
 50
180.7144608599
 51
274.5325040743
  0
LWPOLYLINE
  5
7B
330
1F
100
AcDbEntity
  8
0
  6
SLD-Durchgehend
 62
     2
420
 16776960
370
    25
100
AcDbPolyline
 90
        3
 70
   128
 43
0.0
 10
593.0694675483
 20
183.9643210631
 10
592.3864810191
 20
183.5089090043
 10
591.7423441508
 20
183.415442858
  0
LWPOLYLINE
  5
7C
330
1F
100
AcDbEntity
  8
0
  6
SLD-Durchgehend
 62
     2
420
 16776960
370
    25
100
AcDbPolyline
 90
        3
 70
   128
 43
0.0
 10
593.4480733175
 20
184.9999781144
 10
593.3285675153
 20
184.384646256
 10
593.0694675483
 20
183.9643210631
  0
LWPOLYLINE
  5
7D
330
1F
100
AcDbEntity
  8
0
  6
SLD-Durchgehend
 62
     2
420
 16776960
370
    25
100
AcDbPolyline
 90
        4
 70
   128
 43
0.0
 10
592.4815268431
 20
186.329104717
 10
593.2325327743
 20
185.7232569057
 10
593.3953345871
 20
185.3780843526
 10
593.4480733175
 20
184.9999781144
  0
ARC
  5
7E
330
1F
100
AcDbEntity
  8
0
  6
SLD-Durchgehend
 62
     2
420
 16776960
370
    25
100
AcDbCircle
 10
592.0387245565
 20
187.3937900203
 30
0.0
 40
1.153095251956785
100
AcDbArc
 50
292.5824108542
 51
359.0552647839
  0
CIRCLE
  5
7F
330
1F
100
AcDbEntity
  8
0
  6
SLD-Durchgehend
 62
     7
370
    25
100
AcDbCircle
 10
450.8257297576
 20
1312.621164765
 30
0.0
 40
6.125
  0
CIRCLE
  5
80
330
1F
100
AcDbEntity
  8
0
  6
SLD-Durchgehend
 62
     7
370
    25
100
AcDbCircle
 10
603.7866990686
 20
662.5435089554
 30
0.0
 40
6.125
  0
CIRCLE
  5
81
330
1F
100
AcDbEntity
  8
0
  6
SLD-Durchgehend
 62
     7
370
    25
100
AcDbCircle
 10
466.6529083631
 20
1113.2656911745
 30
0.0
 40
6.124999999999943
  0
CIRCLE
  5
82
330
1F
100
AcDbEntity
  8
0
  6
SLD-Durchgehend
 62
     7
370
    25
100
AcDbCircle
 10
246.4669556125
 20
662.5435089554
 30
0.0
 40
6.125
  0
CIRCLE
  5
83
330
1F
100
AcDbEntity
  8
0
  6
SLD-Durchgehend
 62
     7
370
    25
100
AcDbCircle
 10
401.6633357012
 20
177.2175840948
 30
0.0
 40
6.124999999999943
  0
CIRCLE
  5
84
330
1F
100
AcDbEntity
  8
0
  6
SLD-Durchgehend
 62
     7
370
    25
100
AcDbCircle
 10
669.3577402418
 20
177.2175840948
 30
0.0
 40
6.124999999999886
  0
CIRCLE
  5
85
330
1F
100
AcDbEntity
  8
0
  6
SLD-Durchgehend
 62
     7
370
    25
100
AcDbCircle
 10
190.5948123592
 20
177.2175840948
 30
0.0
 40
6.125
  0
LINE
  5
86
330
1F
100
AcDbEntity
  8
0
  6
SLD-Durchgehend
 62
     7
370
    25
100
AcDbLine
 10
416.6077846437
 20
1422.9807752948
 30
0.0
 11
419.8278790237
 21
1434.5419949659
 31
0.0
  0
LINE
  5
87
330
1F
100
AcDbEntity
  8
0
  6
SLD-Durchgehend
 62
     7
370
    25
100
AcDbLine
 10
419.8278790237
 20
1434.5419949659
 30
0.0
 11
423.0904868514
 21
1455.6234609296
 31
0.0
  0
LINE
  5
88
330
1F
100
AcDbEntity
  8
0
  6
SLD-Durchgehend
 62
     7
370
    25
100
AcDbLine
 10
423.0904868514
 20
1455.6234609296
 30
0.0
 11
428.1935401204
 21
1464.9930013578
 31
0.0
  0
LINE
  5
89
330
1F
100
AcDbEntity
  8
0
  6
SLD-Durchgehend
 62
     7
370
    25
100
AcDbLine
 10
428.1935401204
 20
1464.9930013578
 30
0.0
 11
439.0688995461
 21
1466.2478505223
 31
0.0
  0
LINE
  5
8A
330
1F
100
AcDbEntity
  8
0
  6
SLD-Durchgehend
 62
     7
370
    25
100
AcDbLine
 10
439.0688995461
 20
1466.2478505223
 30
0.0
 11
449.5259759169
 21
1465.6204259401
 31
0.0
  0
LINE
  5
8B
330
1F
100
AcDbEntity
  8
0
  6
SLD-Durchgehend
 62
     7
370
    25
100
AcDbLine
 10
449.5259759169
 20
1465.6204259401
 30
0.0
 11
462.1581241729
 21
1461.4794236972
 31
0.0
  0
LINE
  5
8C
330
1F
100
AcDbEntity
  8
0
  6
SLD-Durchgehend
 62
     7
370
    25
100
AcDbLine
 10
462.1581241729
 20
1461.4794236972
 30
0.0
 11
475.9674484274
 21
1425.8537282725
 31
0.0
  0
LINE
  5
8D
330
1F
100
AcDbEntity
  8
0
  6
SLD-Durchgehend
 62
     7
370
    25
100
AcDbLine
 10
475.9674484274
 20
1425.8537282725
 30
0.0
 11
484.6818301096
 21
1391.4237045414
 31
0.0
  0
LINE
  5
8E
330
1F
100
AcDbEntity
  8
0
  6
SLD-Durchgehend
 62
     7
370
    25
100
AcDbLine
 10
484.6818301096
 20
1391.4237045414
 30
0.0
 11
486.7383643252
 21
1343.6968860749
 31
0.0
  0
LINE
  5
8F
330
1F
100
AcDbEntity
  8
0
  6
SLD-Durchgehend
 62
     7
370
    25
100
AcDbLine
 10
500.5830689539
 20
1301.9143862251
 30
0.0
 11
486.7383643252
 21
1343.6968860749
 31
0.0
  0
LINE
  5
90
330
1F
100
AcDbEntity
  8
0
  6
SLD-Durchgehend
 62
     7
370
    25
100
AcDbLine
 10
504.0543302161
 20
1286.5423848454
 30
0.0
 11
500.5830689539
 21
1301.9143862251
 31
0.0
  0
LINE
  5
91
330
1F
100
AcDbEntity
  8
0
  6
SLD-Durchgehend
 62
     7
370
    25
100
AcDbLine
 10
520.9851308929
 20
1228.6417844307
 30
0.0
 11
504.0543302161
 21
1286.5423848454
 31
0.0
  0
LINE
  5
92
330
1F
100
AcDbEntity
  8
0
  6
SLD-Durchgehend
 62
     7
370
    25
100
AcDbLine
 10
523.3017548185
 20
1221.5209842727
 30
0.0
 11
520.9851308929
 21
1228.6417844307
 31
0.0
  0
LINE
  5
93
330
1F
100
AcDbEntity
  8
0
  6
SLD-Durchgehend
 62
     7
370
    25
100
AcDbLine
 10
523.3017548185
 20
1221.5209842727
 30
0.0
 11
525.2322479353
 21
1215.587284248
 31
0.0
  0
LINE
  5
94
330
1F
100
AcDbEntity
  8
0
  6
SLD-Durchgehend
 62
     7
370
    25
100
AcDbLine
 10
526.2276693445
 20
1212.5272843122
 30
0.0
 11
525.2322479353
 21
1215.587284248
 31
0.0
  0
LINE
  5
95
330
1F
100
AcDbEntity
  8
0
  6
SLD-Durchgehend
 62
     7
370
    25
100
AcDbLine
 10
535.8720346558
 20
1191.7192838687
 30
0.0
 11
526.2276693445
 21
1212.5272843122
 31
0.0
  0
LINE
  5
96
330
1F
100
AcDbEntity
  8
0
  6
SLD-Durchgehend
 62
     7
370
    25
100
AcDbLine
 10
544.4031222925
 20
1150.7386823717
 30
0.0
 11
535.8720346558
 21
1191.7192838687
 31
0.0
  0
LINE
  5
97
330
1F
100
AcDbEntity
  8
0
  6
SLD-Durchgehend
 62
     7
370
    25
100
AcDbLine
 10
545.2158316237
 20
1137.1729811255
 30
0.0
 11
544.4031222925
 21
1150.7386823717
 31
0.0
  0
LINE
  5
98
330
1F
100
AcDbEntity
  8
0
  6
SLD-Durchgehend
 62
     7
370
    25
100
AcDbLine
 10
545.2158316237
 20
1137.1729811255
 30
0.0
 11
566.202936994
 21
1083.5968819979
 31
0.0
  0
LINE
  5
99
330
1F
100
AcDbEntity
  8
0
  6
SLD-Durchgehend
 62
     7
370
    25
100
AcDbLine
 10
584.3595608341
 20
1002.2017893914
 30
0.0
 11
566.202936994
 21
1083.5968819979
 31
0.0
  0
LINE
  5
9A
330
1F
100
AcDbEntity
  8
0
  6
SLD-Durchgehend
 62
     7
370
    25
100
AcDbLine
 10
586.0011263956
 20
993.089279306
 30
0.0
 11
584.3595608341
 21
1002.2017893914
 31
0.0
  0
LINE
  5
9B
330
1F
100
AcDbEntity
  8
0
  6
SLD-Durchgehend
 62
     7
370
    25
100
AcDbLine
 10
598.3824714289
 20
957.7003879073
 30
0.0
 11
586.0011263956
 21
993.089279306
 31
0.0
  0
LINE
  5
9C
330
1F
100
AcDbEntity
  8
0
  6
SLD-Durchgehend
 62
     7
370
    25
100
AcDbLine
 10
600.8241399397
 20
949.9180925612
 30
0.0
 11
598.3824714289
 21
957.7003879073
 31
0.0
  0
LINE
  5
9D
330
1F
100
AcDbEntity
  8
0
  6
SLD-Durchgehend
 62
     7
370
    25
100
AcDbLine
 10
610.026638137
 20
908.7223929887
 30
0.0
 11
600.8241399397
 21
949.9180925612
 31
0.0
  0
LINE
  5
9E
330
1F
100
AcDbEntity
  8
0
  6
SLD-Durchgehend
 62
     7
370
    25
100
AcDbLine
 10
614.5239516361
 20
886.2646860605
 30
0.0
 11
610.026638137
 21
908.7223929887
 31
0.0
  0
LINE
  5
9F
330
1F
100
AcDbEntity
  8
0
  6
SLD-Durchgehend
 62
     7
370
    25
100
AcDbLine
 10
634.5300658804
 20
850.99819727
 30
0.0
 11
614.5239516361
 21
886.2646860605
 31
0.0
  0
LINE
  5
A0
330
1F
100
AcDbEntity
  8
0
  6
SLD-Durchgehend
 62
     7
370
    25
100
AcDbLine
 10
635.1744397741
 20
844.4191945322
 30
0.0
 11
634.5300658804
 21
850.99819727
 31
0.0
  0
LINE
  5
A1
330
1F
100
AcDbEntity
  8
0
  6
SLD-Durchgehend
 62
     7
370
    25
100
AcDbLine
 10
636.6387649642
 20
817.5667954214
 30
0.0
 11
635.1744397741
 21
844.4191945322
 31
0.0
  0
LINE
  5
A2
330
1F
100
AcDbEntity
  8
0
  6
SLD-Durchgehend
 62
     7
370
    25
100
AcDbLine
 10
637.7592309577
 20
811.8679863935
 30
0.0
 11
636.6387649642
 21
817.5667954214
 31
0.0
  0
LINE
  5
A3
330
1F
100
AcDbEntity
  8
0
  6
SLD-Durchgehend
 62
     7
370
    25
100
AcDbLine
 10
644.7036310297
 20
790.3588963277
 30
0.0
 11
637.7592309577
 21
811.8679863935
 31
0.0
  0
LINE
  5
A4
330
1F
100
AcDbEntity
  8
0
  6
SLD-Durchgehend
 62
     7
370
    25
100
AcDbLine
 10
654.896132575
 20
753.6254001383
 30
0.0
 11
644.7036310297
 21
790.3588963277
 31
0.0
  0
LINE
  5
A5
330
1F
100
AcDbEntity
  8
0
  6
SLD-Durchgehend
 62
     7
370
    25
100
AcDbLine
 10
659.5689698323
 20
746.6612053637
 30
0.0
 11
654.896132575
 21
753.6254001383
 31
0.0
  0
LINE
  5
A6
330
1F
100
AcDbEntity
  8
0
  6
SLD-Durchgehend
 62
     7
370
    25
100
AcDbLine
 10
659.9010273082
 20
721.0750771289
 30
0.0
 11
659.5689698323
 21
746.6612053637
 31
0.0
  0
LINE
  5
A7
330
1F
100
AcDbEntity
  8
0
  6
SLD-Durchgehend
 62
     7
370
    25
100
AcDbLine
 10
663.9204248053
 20
698.5877049686
 30
0.0
 11
659.9010273082
 21
721.0750771289
 31
0.0
  0
LINE
  5
A8
330
1F
100
AcDbEntity
  8
0
  6
SLD-Durchgehend
 62
     7
370
    25
100
AcDbLine
 10
669.8802395923
 20
684.2353654631
 30
0.0
 11
663.9204248053
 21
698.5877049686
 31
0.0
  0
LINE
  5
A9
330
1F
100
AcDbEntity
  8
0
  6
SLD-Durchgehend
 62
     7
370
    25
100
AcDbLine
 10
682.4694558247
 20
637.8899050478
 30
0.0
 11
669.8802395923
 21
684.2353654631
 31
0.0
  0
LINE
  5
AA
330
1F
100
AcDbEntity
  8
0
  6
SLD-Durchgehend
 62
     7
370
    25
100
AcDbLine
 10
692.1984716521
 20
613.1920707947
 30
0.0
 11
682.4694558247
 21
637.8899050478
 31
0.0
  0
LINE
  5
AB
330
1F
100
AcDbEntity
  8
0
  6
SLD-Durchgehend
 62
     7
370
    25
100
AcDbLine
 10
694.1118522751
 20
593.6287892582
 30
0.0
 11
692.1984716521
 21
613.1920707947
 31
0.0
  0
LINE
  5
AC
330
1F
100
AcDbEntity
  8
0
  6
SLD-Durchgehend
 62
     7
370
    25
100
AcDbLine
 10
704.7039493186
 20
576.3298822166
 30
0.0
 11
694.1118522751
 21
593.6287892582
 31
0.0
  0
LINE
  5
AD
330
1F
100
AcDbEntity
  8
0
  6
SLD-Durchgehend
 62
     7
370
    25
100
AcDbLine
 10
706.0485406984
 20
571.0873974086
 30
0.0
 11
704.7039493186
 21
576.3298822166
 31
0.0
  0
LINE
  5
AE
330
1F
100
AcDbEntity
  8
0
  6
SLD-Durchgehend
 62
     7
370
    25
100
AcDbLine
 10
705.9540732964
 20
532.20470078
 30
0.0
 11
706.0485406984
 21
571.0873974086
 31
0.0
  0
LINE
  5
AF
330
1F
100
AcDbEntity
  8
0
  6
SLD-Durchgehend
 62
     7
370
    25
100
AcDbLine
 10
710.2569266422
 20
505.2892697579
 30
0.0
 11
705.9540732964
 21
532.20470078
 31
0.0
  0
LINE
  5
B0
330
1F
100
AcDbEntity
  8
0
  6
SLD-Durchgehend
 62
     7
370
    25
100
AcDbLine
 10
712.970463859
 20
481.2233103038
 30
0.0
 11
710.2569266422
 21
505.2892697579
 31
0.0
  0
LINE
  5
B1
330
1F
100
AcDbEntity
  8
0
  6
SLD-Durchgehend
 62
     7
370
    25
100
AcDbLine
 10
726.085232125
 20
439.9672878506
 30
0.0
 11
712.970463859
 21
481.2233103038
 31
0.0
  0
LINE
  5
B2
330
1F
100
AcDbEntity
  8
0
  6
SLD-Durchgehend
 62
     7
370
    25
100
AcDbLine
 10
737.0022519691
 20
376.4866960766
 30
0.0
 11
726.085232125
 21
439.9672878506
 31
0.0
  0
LINE
  5
B3
330
1F
100
AcDbEntity
  8
0
  6
SLD-Durchgehend
 62
     7
370
    25
100
AcDbLine
 10
740.5266746149
 20
367.5235582118
 30
0.0
 11
737.0022519691
 21
376.4866960766
 31
0.0
  0
LINE
  5
B4
330
1F
100
AcDbEntity
  8
0
  6
SLD-Durchgehend
 62
     7
370
    25
100
AcDbLine
 10
741.0963221656
 20
360.4018641239
 30
0.0
 11
740.5266746149
 21
367.5235582118
 31
0.0
  0
LINE
  5
B5
330
1F
100
AcDbEntity
  8
0
  6
SLD-Durchgehend
 62
     7
370
    25
100
AcDbLine
 10
743.1285246478
 20
351.5188706642
 30
0.0
 11
741.0963221656
 21
360.4018641239
 31
0.0
  0
LINE
  5
B6
330
1F
100
AcDbEntity
  8
0
  6
SLD-Durchgehend
 62
     7
370
    25
100
AcDbLine
 10
760.7163592447
 20
301.3960552931
 30
0.0
 11
743.1285246478
 21
351.5188706642
 31
0.0
  0
LINE
  5
B7
330
1F
100
AcDbEntity
  8
0
  6
SLD-Durchgehend
 62
     7
370
    25
100
AcDbLine
 10
761.3490387067
 20
300.803930831
 30
0.0
 11
760.7163592447
 21
301.3960552931
 31
0.0
  0
LINE
  5
B8
330
1F
100
AcDbEntity
  8
0
  6
SLD-Durchgehend
 62
     7
370
    25
100
AcDbLine
 10
761.5191444028
 20
299.932642055
 30
0.0
 11
761.3490387067
 21
300.803930831
 31
0.0
  0
LINE
  5
B9
330
1F
100
AcDbEntity
  8
0
  6
SLD-Durchgehend
 62
     7
370
    25
100
AcDbLine
 10
772.53964387
 20
261.182231975
 30
0.0
 11
761.5191444028
 21
299.932642055
 31
0.0
  0
LINE
  5
BA
330
1F
100
AcDbEntity
  8
0
  6
SLD-Durchgehend
 62
     7
370
    25
100
AcDbLine
 10
783.873371707
 20
243.8446474793
 30
0.0
 11
772.53964387
 21
261.182231975
 31
0.0
  0
LINE
  5
BB
330
1F
100
AcDbEntity
  8
0
  6
SLD-Durchgehend
 62
     7
370
    25
100
AcDbLine
 10
795.4437240232
 20
180.2678180456
 30
0.0
 11
783.873371707
 21
243.8446474793
 31
0.0
  0
LINE
  5
BC
330
1F
100
AcDbEntity
  8
0
  6
SLD-Durchgehend
 62
     7
370
    25
100
AcDbLine
 10
778.377954589
 20
171.9499660256
 30
0.0
 11
795.4437240232
 21
180.2678180456
 31
0.0
  0
LINE
  5
BD
330
1F
100
AcDbEntity
  8
0
  6
SLD-Durchgehend
 62
     7
370
    25
100
AcDbLine
 10
778.377954589
 20
171.9499660256
 30
0.0
 11
724.2118497945
 21
143.4549657754
 31
0.0
  0
LINE
  5
BE
330
1F
100
AcDbEntity
  8
0
  6
SLD-Durchgehend
 62
     7
370
    25
100
AcDbLine
 10
724.2118497945
 20
143.4549657754
 30
0.0
 11
675.1943218769
 21
141.1307383949
 31
0.0
  0
LINE
  5
BF
330
1F
100
AcDbEntity
  8
0
  6
SLD-Durchgehend
 62
     7
370
    25
100
AcDbLine
 10
675.1943218769
 20
141.1307383949
 30
0.0
 11
620.7125196374
 21
141.1307383949
 31
0.0
  0
LINE
  5
C0
330
1F
100
AcDbEntity
  8
0
  6
SLD-Durchgehend
 62
     7
370
    25
100
AcDbLine
 10
620.7125196374
 20
141.1307383949
 30
0.0
 11
596.4686469738
 21
142.4555401798
 31
0.0
  0
LINE
  5
C1
330
1F
100
AcDbEntity
  8
0
  6
SLD-Durchgehend
 62
     7
370
    25
100
AcDbLine
 10
596.4686469738
 20
142.4555401798
 30
0.0
 11
468.1110439299
 21
151.3319426998
 31
0.0
  0
LINE
  5
C2
330
1F
100
AcDbEntity
  8
0
  6
SLD-Durchgehend
 62
     7
370
    25
100
AcDbLine
 10
468.1110439299
 20
151.3319426998
 30
0.0
 11
375.5777427187
 21
143.4549657754
 31
0.0
  0
LINE
  5
C3
330
1F
100
AcDbEntity
  8
0
  6
SLD-Durchgehend
 62
     7
370
    25
100
AcDbLine
 10
375.5777427187
 20
143.4549657754
 30
0.0
 11
281.7978426412
 21
147.5022777196
 31
0.0
  0
LINE
  5
C4
330
1F
100
AcDbEntity
  8
0
  6
SLD-Durchgehend
 62
     7
370
    25
100
AcDbLine
 10
281.7978426412
 20
147.5022777196
 30
0.0
 11
184.7090342963
 21
152.8076770827
 31
0.0
  0
LINE
  5
C5
330
1F
100
AcDbEntity
  8
0
  6
SLD-Durchgehend
 62
     7
370
    25
100
AcDbLine
 10
184.7090342963
 20
152.8076770827
 30
0.0
 11
158.9898436531
 21
165.5132008322
 31
0.0
  0
LINE
  5
C6
330
1F
100
AcDbEntity
  8
0
  6
SLD-Durchgehend
 62
     7
370
    25
100
AcDbLine
 10
106.9041474925
 20
168.0358720547
 30
0.0
 11
158.9898436531
 21
165.5132008322
 31
0.0
  0
LINE
  5
C7
330
1F
100
AcDbEntity
  8
0
  6
SLD-Durchgehend
 62
     7
370
    25
100
AcDbLine
 10
106.3218533263
 20
170.2174735793
 30
0.0
 11
106.9041474925
 21
168.0358720547
 31
0.0
  0
LINE
  5
C8
330
1F
100
AcDbEntity
  8
0
  6
SLD-Durchgehend
 62
     7
370
    25
100
AcDbLine
 10
106.6701515776
 20
173.1020284415
 30
0.0
 11
106.3218533263
 21
170.2174735793
 31
0.0
  0
LINE
  5
C9
330
1F
100
AcDbEntity
  8
0
  6
SLD-Durchgehend
 62
     7
370
    25
100
AcDbLine
 10
100.7490544783
 20
213.5137987856
 30
0.0
 11
106.6701515776
 21
173.1020284415
 31
0.0
  0
LINE
  5
CA
330
1F
100
AcDbEntity
  8
0
  6
SLD-Durchgehend
 62
     7
370
    25
100
AcDbLine
 10
105.3156494365
 20
238.63729961
 30
0.0
 11
100.7490544783
 21
213.5137987856
 31
0.0
  0
LINE
  5
CB
330
1F
100
AcDbEntity
  8
0
  6
SLD-Durchgehend
 62
     7
370
    25
100
AcDbLine
 10
108.4062515956
 20
258.4003520729
 30
0.0
 11
105.3156494365
 21
238.63729961
 31
0.0
  0
LINE
  5
CC
330
1F
100
AcDbEntity
  8
0
  6
SLD-Durchgehend
 62
     7
370
    25
100
AcDbLine
 10
109.6383511294
 20
267.8233814957
 30
0.0
 11
108.4062515956
 21
258.4003520729
 31
0.0
  0
LINE
  5
CD
330
1F
100
AcDbEntity
  8
0
  6
SLD-Durchgehend
 62
     7
370
    25
100
AcDbLine
 10
107.8194513184
 20
294.6551275973
 30
0.0
 11
109.6383511294
 21
267.8233814957
 31
0.0
  0
LINE
  5
CE
330
1F
100
AcDbEntity
  8
0
  6
SLD-Durchgehend
 62
     7
370
    25
100
AcDbLine
 10
112.6110433804
 20
312.4273372418
 30
0.0
 11
107.8194513184
 21
294.6551275973
 31
0.0
  0
LINE
  5
CF
330
1F
100
AcDbEntity
  8
0
  6
SLD-Durchgehend
 62
     7
370
    25
100
AcDbLine
 10
113.3472427
 20
333.0175829654
 30
0.0
 11
112.6110433804
 21
312.4273372418
 31
0.0
  0
LINE
  5
D0
330
1F
100
AcDbEntity
  8
0
  6
SLD-Durchgehend
 62
     7
370
    25
100
AcDbLine
 10
111.0603510601
 20
350.5306912184
 30
0.0
 11
113.3472427
 21
333.0175829654
 31
0.0
  0
LINE
  5
D1
330
1F
100
AcDbEntity
  8
0
  6
SLD-Durchgehend
 62
     7
370
    25
100
AcDbLine
 10
118.3935507406
 20
362.8021729709
 30
0.0
 11
111.0603510601
 21
350.5306912184
 31
0.0
  0
LINE
  5
D2
330
1F
100
AcDbEntity
  8
0
  6
SLD-Durchgehend
 62
     7
370
    25
100
AcDbLine
 10
123.4578429925
 20
413.1868792304
 30
0.0
 11
118.3935507406
 21
362.8021729709
 31
0.0
  0
LINE
  5
D3
330
1F
100
AcDbEntity
  8
0
  6
SLD-Durchgehend
 62
     7
370
    25
100
AcDbLine
 10
131.2599464521
 20
432.5548959497
 30
0.0
 11
123.4578429925
 21
413.1868792304
 31
0.0
  0
LINE
  5
D4
330
1F
100
AcDbEntity
  8
0
  6
SLD-Durchgehend
 62
     7
370
    25
100
AcDbLine
 10
135.921049045
 20
449.3722928294
 30
0.0
 11
131.2599464521
 21
432.5548959497
 31
0.0
  0
LINE
  5
D5
330
1F
100
AcDbEntity
  8
0
  6
SLD-Durchgehend
 62
     7
370
    25
100
AcDbLine
 10
137.6985489595
 20
465.7459986929
 30
0.0
 11
135.921049045
 21
449.3722928294
 31
0.0
  0
LINE
  5
D6
330
1F
100
AcDbEntity
  8
0
  6
SLD-Durchgehend
 62
     7
370
    25
100
AcDbLine
 10
142.136451529
 20
487.0273960352
 30
0.0
 11
137.6985489595
 21
465.7459986929
 31
0.0
  0
LINE
  5
D7
330
1F
100
AcDbEntity
  8
0
  6
SLD-Durchgehend
 62
     7
370
    25
100
AcDbLine
 10
148.0413480865
 20
507.2881592036
 30
0.0
 11
142.136451529
 21
487.0273960352
 31
0.0
  0
LINE
  5
D8
330
1F
100
AcDbEntity
  8
0
  6
SLD-Durchgehend
 62
     7
370
    25
100
AcDbLine
 10
150.8439480532
 20
519.2590726145
 30
0.0
 11
148.0413480865
 21
507.2881592036
 31
0.0
  0
LINE
  5
D9
330
1F
100
AcDbEntity
  8
0
  6
SLD-Durchgehend
 62
     7
370
    25
100
AcDbLine
 10
150.7656543721
 20
534.8993016008
 30
0.0
 11
150.8439480532
 21
519.2590726145
 31
0.0
  0
LINE
  5
DA
330
1F
100
AcDbEntity
  8
0
  6
SLD-Durchgehend
 62
     7
370
    25
100
AcDbLine
 10
152.0481526126
 20
573.027761054
 30
0.0
 11
150.7656543721
 21
534.8993016008
 31
0.0
  0
LINE
  5
DB
330
1F
100
AcDbEntity
  8
0
  6
SLD-Durchgehend
 62
     7
370
    25
100
AcDbLine
 10
169.3749546277
 20
609.5335913426
 30
0.0
 11
152.0481526126
 21
573.027761054
 31
0.0
  0
LINE
  5
DC
330
1F
100
AcDbEntity
  8
0
  6
SLD-Durchgehend
 62
     7
370
    25
100
AcDbLine
 10
172.0272436009
 20
613.8301683188
 30
0.0
 11
169.3749546277
 21
609.5335913426
 31
0.0
  0
LINE
  5
DD
330
1F
100
AcDbEntity
  8
0
  6
SLD-Durchgehend
 62
     7
370
    25
100
AcDbLine
 10
172.066846417
 20
615.1666594268
 30
0.0
 11
172.0272436009
 21
613.8301683188
 31
0.0
  0
LINE
  5
DE
330
1F
100
AcDbEntity
  8
0
  6
SLD-Durchgehend
 62
     7
370
    25
100
AcDbLine
 10
173.6229433876
 20
634.4843042612
 30
0.0
 11
172.066846417
 21
615.1666594268
 31
0.0
  0
LINE
  5
DF
330
1F
100
AcDbEntity
  8
0
  6
SLD-Durchgehend
 62
     7
370
    25
100
AcDbLine
 10
174.5265527827
 20
656.4721954592
 30
0.0
 11
173.6229433876
 21
634.4843042612
 31
0.0
  0
LINE
  5
E0
330
1F
100
AcDbEntity
  8
0
  6
SLD-Durchgehend
 62
     7
370
    25
100
AcDbLine
 10
175.2582459913
 20
659.8256004578
 30
0.0
 11
174.5265527827
 21
656.4721954592
 31
0.0
  0
LINE
  5
E1
330
1F
100
AcDbEntity
  8
0
  6
SLD-Durchgehend
 62
     7
370
    25
100
AcDbLine
 10
176.1924459805
 20
662.4265921832
 30
0.0
 11
175.2582459913
 21
659.8256004578
 31
0.0
  0
LINE
  5
E2
330
1F
100
AcDbEntity
  8
0
  6
SLD-Durchgehend
 62
     7
370
    25
100
AcDbLine
 10
185.3067531454
 20
695.7535756358
 30
0.0
 11
176.1924459805
 21
662.4265921832
 31
0.0
  0
LINE
  5
E3
330
1F
100
AcDbEntity
  8
0
  6
SLD-Durchgehend
 62
     7
370
    25
100
AcDbLine
 10
194.8377548923
 20
729.9932075264
 30
0.0
 11
185.3067531454
 21
695.7535756358
 31
0.0
  0
LINE
  5
E4
330
1F
100
AcDbEntity
  8
0
  6
SLD-Durchgehend
 62
     7
370
    25
100
AcDbLine
 10
200.4825576409
 20
742.5229860074
 30
0.0
 11
194.8377548923
 21
729.9932075264
 31
0.0
  0
LINE
  5
E5
330
1F
100
AcDbEntity
  8
0
  6
SLD-Durchgehend
 62
     7
370
    25
100
AcDbLine
 10
215.3397425281
 20
772.3399770983
 30
0.0
 11
200.4825576409
 21
742.5229860074
 31
0.0
  0
LINE
  5
E6
330
1F
100
AcDbEntity
  8
0
  6
SLD-Durchgehend
 62
     7
370
    25
100
AcDbLine
 10
223.256148325
 20
803.1865877633
 30
0.0
 11
215.3397425281
 21
772.3399770983
 31
0.0
  0
LINE
  5
E7
330
1F
100
AcDbEntity
  8
0
  6
SLD-Durchgehend
 62
     7
370
    25
100
AcDbLine
 10
226.3611539473
 20
823.2160908701
 30
0.0
 11
223.256148325
 21
803.1865877633
 31
0.0
  0
LINE
  5
E8
330
1F
100
AcDbEntity
  8
0
  6
SLD-Durchgehend
 62
     7
370
    25
100
AcDbLine
 10
233.5503592357
 20
835.6342894562
 30
0.0
 11
226.3611539473
 21
823.2160908701
 31
0.0
  0
LINE
  5
E9
330
1F
100
AcDbEntity
  8
0
  6
SLD-Durchgehend
 62
     7
370
    25
100
AcDbLine
 10
232.2363450391
 20
870.6811857941
 30
0.0
 11
233.5503592357
 21
835.6342894562
 31
0.0
  0
LINE
  5
EA
330
1F
100
AcDbEntity
  8
0
  6
SLD-Durchgehend
 62
     7
370
    25
100
AcDbLine
 10
232.8114374746
 20
886.8694973708
 30
0.0
 11
232.2363450391
 21
870.6811857941
 31
0.0
  0
LINE
  5
EB
330
1F
100
AcDbEntity
  8
0
  6
SLD-Durchgehend
 62
     7
370
    25
100
AcDbLine
 10
234.3189462289
 20
892.1749872692
 30
0.0
 11
232.8114374746
 21
886.8694973708
 31
0.0
  0
LINE
  5
EC
330
1F
100
AcDbEntity
  8
0
  6
SLD-Durchgehend
 62
     7
370
    25
100
AcDbLine
 10
242.8554519277
 20
914.0908879757
 30
0.0
 11
234.3189462289
 21
892.1749872692
 31
0.0
  0
LINE
  5
ED
330
1F
100
AcDbEntity
  8
0
  6
SLD-Durchgehend
 62
     7
370
    25
100
AcDbLine
 10
244.8309525118
 20
932.7847851038
 30
0.0
 11
242.8554519277
 21
914.0908879757
 31
0.0
  0
LINE
  5
EE
330
1F
100
AcDbEntity
  8
0
  6
SLD-Durchgehend
 62
     7
370
    25
100
AcDbLine
 10
244.0794511897
 20
949.552695227
 30
0.0
 11
244.8309525118
 21
932.7847851038
 31
0.0
  0
LINE
  5
EF
330
1F
100
AcDbEntity
  8
0
  6
SLD-Durchgehend
 62
     7
370
    25
100
AcDbLine
 10
256.1880423886
 20
972.8095931534
 30
0.0
 11
244.0794511897
 21
949.552695227
 31
0.0
  0
LINE
  5
F0
330
1F
100
AcDbEntity
  8
0
  6
SLD-Durchgehend
 62
     7
370
    25
100
AcDbLine
 10
259.6071615082
 20
985.541878415
 30
0.0
 11
256.1880423886
 21
972.8095931534
 31
0.0
  0
LINE
  5
F1
330
1F
100
AcDbEntity
  8
0
  6
SLD-Durchgehend
 62
     7
370
    25
100
AcDbLine
 10
265.8576472864
 20
1038.619388414
 30
0.0
 11
259.6071615082
 21
985.541878415
 31
0.0
  0
LINE
  5
F2
330
1F
100
AcDbEntity
  8
0
  6
SLD-Durchgehend
 62
     7
370
    25
100
AcDbLine
 10
285.9465613228
 20
1074.6139896632
 30
0.0
 11
265.8576472864
 21
1038.619388414
 31
0.0
  0
LINE
  5
F3
330
1F
100
AcDbEntity
  8
0
  6
SLD-Durchgehend
 62
     7
370
    25
100
AcDbLine
 10
291.7983367312
 20
1085.8990890503
 30
0.0
 11
285.9465613228
 21
1074.6139896632
 31
0.0
  0
LINE
  5
F4
330
1F
100
AcDbEntity
  8
0
  6
SLD-Durchgehend
 62
     7
370
    25
100
AcDbLine
 10
302.4156465394
 20
1116.579181475
 30
0.0
 11
291.7983367312
 21
1085.8990890503
 31
0.0
  0
LINE
  5
F5
330
1F
100
AcDbEntity
  8
0
  6
SLD-Durchgehend
 62
     7
370
    25
100
AcDbLine
 10
302.8953596218
 20
1128.1999861423
 30
0.0
 11
302.4156465394
 21
1116.579181475
 31
0.0
  0
LINE
  5
F6
330
1F
100
AcDbEntity
  8
0
  6
SLD-Durchgehend
 62
     7
370
    25
100
AcDbLine
 10
305.3559377059
 20
1155.5725862805
 30
0.0
 11
302.8953596218
 21
1128.1999861423
 31
0.0
  0
LINE
  5
F7
330
1F
100
AcDbEntity
  8
0
  6
SLD-Durchgehend
 62
     7
370
    25
100
AcDbLine
 10
309.762351142
 20
1167.8629843119
 30
0.0
 11
305.3559377059
 21
1155.5725862805
 31
0.0
  0
LINE
  5
F8
330
1F
100
AcDbEntity
  8
0
  6
SLD-Durchgehend
 62
     7
370
    25
100
AcDbLine
 10
323.5143586264
 20
1195.1239844386
 30
0.0
 11
309.762351142
 21
1167.8629843119
 31
0.0
  0
LINE
  5
F9
330
1F
100
AcDbEntity
  8
0
  6
SLD-Durchgehend
 62
     7
370
    25
100
AcDbLine
 10
338.9457508189
 20
1212.1573842198
 30
0.0
 11
323.5143586264
 21
1195.1239844386
 31
0.0
  0
LINE
  5
FA
330
1F
100
AcDbEntity
  8
0
  6
SLD-Durchgehend
 62
     7
370
    25
100
AcDbLine
 10
350.7798447475
 20
1230.3058839005
 30
0.0
 11
338.9457508189
 21
1212.1573842198
 31
0.0
  0
LINE
  5
FB
330
1F
100
AcDbEntity
  8
0
  6
SLD-Durchgehend
 62
     7
370
    25
100
AcDbLine
 10
362.4582364423
 20
1251.2848848078
 30
0.0
 11
350.7798447475
 21
1230.3058839005
 31
0.0
  0
LINE
  5
FC
330
1F
100
AcDbEntity
  8
0
  6
SLD-Durchgehend
 62
     7
370
    25
100
AcDbLine
 10
363.2034613948
 20
1255.8658832286
 30
0.0
 11
362.4582364423
 21
1251.2848848078
 31
0.0
  0
LINE
  5
FD
330
1F
100
AcDbEntity
  8
0
  6
SLD-Durchgehend
 62
     7
370
    25
100
AcDbLine
 10
379.3818487984
 20
1289.9893855277
 30
0.0
 11
363.2034613948
 21
1255.8658832286
 31
0.0
  0
LINE
  5
FE
330
1F
100
AcDbEntity
  8
0
  6
SLD-Durchgehend
 62
     7
370
    25
100
AcDbLine
 10
388.0011542902
 20
1301.9881872062
 30
0.0
 11
379.3818487984
 21
1289.9893855277
 31
0.0
  0
LINE
  5
FF
330
1F
100
AcDbEntity
  8
0
  6
SLD-Durchgehend
 62
     7
370
    25
100
AcDbLine
 10
393.1986584527
 20
1324.630383176
 30
0.0
 11
388.0011542902
 21
1301.9881872062
 31
0.0
  0
LINE
  5
100
330
1F
100
AcDbEntity
  8
0
  6
SLD-Durchgehend
 62
     7
370
    25
100
AcDbLine
 10
399.6480568516
 20
1358.6413902761
 30
0.0
 11
393.1986584527
 21
1324.630383176
 31
0.0
  0
LINE
  5
101
330
1F
100
AcDbEntity
  8
0
  6
SLD-Durchgehend
 62
     7
370
    25
100
AcDbLine
 10
399.6480568516
 20
1358.6413902761
 30
0.0
 11
416.6077846437
 21
1422.9807752948
 31
0.0
  0
LINE
  5
102
330
1F
100
AcDbEntity
  8
0
  6
SLD-Durchgehend
 62
     7
370
    25
100
AcDbLine
 10
313.5891526207
 20
557.1279210575
 30
0.0
 11
294.805253969
 21
484.3795729402
 31
0.0
  0
LINE
  5
103
330
1F
100
AcDbEntity
  8
0
  6
SLD-Durchgehend
 62
     7
370
    25
100
AcDbLine
 10
294.805253969
 20
484.3795729402
 30
0.0
 11
289.0614374739
 21
455.2349043612
 31
0.0
  0
LINE
  5
104
330
1F
100
AcDbEntity
  8
0
  6
SLD-Durchgehend
 62
     7
370
    25
100
AcDbLine
 10
289.0614374739
 20
455.2349043612
 30
0.0
 11
285.030345546
 21
420.5470753432
 31
0.0
  0
LINE
  5
105
330
1F
100
AcDbEntity
  8
0
  6
SLD-Durchgehend
 62
     7
370
    25
100
AcDbLine
 10
285.030345546
 20
420.5470753432
 30
0.0
 11
271.5591385227
 21
386.5639699227
 31
0.0
  0
LINE
  5
106
330
1F
100
AcDbEntity
  8
0
  6
SLD-Durchgehend
 62
     7
370
    25
100
AcDbLine
 10
271.5591385227
 20
386.5639699227
 30
0.0
 11
265.7226517064
 21
367.069996667
 31
0.0
  0
LINE
  5
107
330
1F
100
AcDbEntity
  8
0
  6
SLD-Durchgehend
 62
     7
370
    25
100
AcDbLine
 10
265.7226517064
 20
367.069996667
 30
0.0
 11
263.7057378156
 21
354.0190649753
 31
0.0
  0
LINE
  5
108
330
1F
100
AcDbEntity
  8
0
  6
SLD-Durchgehend
 62
     7
370
    25
100
AcDbLine
 10
263.7057378156
 20
354.0190649753
 30
0.0
 11
289.9929418432
 21
330.1312578446
 31
0.0
  0
LINE
  5
109
330
1F
100
AcDbEntity
  8
0
  6
SLD-Durchgehend
 62
     7
370
    25
100
AcDbLine
 10
289.9929418432
 20
330.1312578446
 30
0.0
 11
298.7733408082
 21
330.9043777706
 31
0.0
  0
LINE
  5
10A
330
1F
100
AcDbEntity
  8
0
  6
SLD-Durchgehend
 62
     7
370
    25
100
AcDbLine
 10
298.7733408082
 20
330.9043777706
 30
0.0
 11
345.2070458995
 21
320.0963092571
 31
0.0
  0
LINE
  5
10B
330
1F
100
AcDbEntity
  8
0
  6
SLD-Durchgehend
 62
     7
370
    25
100
AcDbLine
 10
345.2070458995
 20
320.0963092571
 30
0.0
 11
353.577040063
 21
321.3913870577
 31
0.0
  0
LINE
  5
10C
330
1F
100
AcDbEntity
  8
0
  6
SLD-Durchgehend
 62
     7
370
    25
100
AcDbLine
 10
353.577040063
 20
321.3913870577
 30
0.0
 11
359.9112375844
 21
323.2921612979
 31
0.0
  0
LINE
  5
10D
330
1F
100
AcDbEntity
  8
0
  6
SLD-Durchgehend
 62
     7
370
    25
100
AcDbLine
 10
359.9112375844
 20
323.2921612979
 30
0.0
 11
397.5051596029
 21
326.3476801637
 31
0.0
  0
LINE
  5
10E
330
1F
100
AcDbEntity
  8
0
  6
SLD-Durchgehend
 62
     7
370
    25
100
AcDbLine
 10
397.5051596029
 20
326.3476801637
 30
0.0
 11
404.5260562765
 21
325.3927601099
 31
0.0
  0
LINE
  5
10F
330
1F
100
AcDbEntity
  8
0
  6
SLD-Durchgehend
 62
     7
370
    25
100
AcDbLine
 10
404.5260562765
 20
325.3927601099
 30
0.0
 11
441.0066469777
 21
326.0938895471
 31
0.0
  0
LINE
  5
110
330
1F
100
AcDbEntity
  8
0
  6
SLD-Durchgehend
 62
     7
370
    25
100
AcDbLine
 10
441.0066469777
 20
326.0938895471
 30
0.0
 11
446.8521460165
 21
324.6809018375
 31
0.0
  0
LINE
  5
111
330
1F
100
AcDbEntity
  8
0
  6
SLD-Durchgehend
 62
     7
370
    25
100
AcDbLine
 10
446.8521460165
 20
324.6809018375
 30
0.0
 11
463.2906540499
 21
326.3035846475
 31
0.0
  0
LINE
  5
112
330
1F
100
AcDbEntity
  8
0
  6
SLD-Durchgehend
 62
     7
370
    25
100
AcDbLine
 10
463.2906540499
 20
326.3035846475
 30
0.0
 11
503.9859338863
 21
321.2239635713
 31
0.0
  0
LINE
  5
113
330
1F
100
AcDbEntity
  8
0
  6
SLD-Durchgehend
 62
     7
370
    25
100
AcDbLine
 10
503.9859338863
 20
321.2239635713
 30
0.0
 11
527.9934748282
 21
320.9449601891
 31
0.0
  0
LINE
  5
114
330
1F
100
AcDbEntity
  8
0
  6
SLD-Durchgehend
 62
     7
370
    25
100
AcDbLine
 10
527.9934748282
 20
320.9449601891
 30
0.0
 11
539.5926340681
 21
320.5237997297
 31
0.0
  0
LINE
  5
115
330
1F
100
AcDbEntity
  8
0
  6
SLD-Durchgehend
 62
     7
370
    25
100
AcDbLine
 10
539.5926340681
 20
320.5237997297
 30
0.0
 11
557.7762409315
 21
318.3808756592
 31
0.0
  0
LINE
  5
116
330
1F
100
AcDbEntity
  8
0
  6
SLD-Durchgehend
 62
     7
370
    25
100
AcDbLine
 10
557.7762409315
 20
318.3808756592
 30
0.0
 11
572.3751290902
 21
316.0526109464
 31
0.0
  0
LINE
  5
117
330
1F
100
AcDbEntity
  8
0
  6
SLD-Durchgehend
 62
     7
370
    25
100
AcDbLine
 10
572.3751290902
 20
316.0526109464
 30
0.0
 11
581.1303421123
 21
319.2988885166
 31
0.0
  0
LINE
  5
118
330
1F
100
AcDbEntity
  8
0
  6
SLD-Durchgehend
 62
     7
370
    25
100
AcDbLine
 10
581.1303421123
 20
319.2988885166
 30
0.0
 11
586.1928506956
 21
340.1635778669
 31
0.0
  0
LINE
  5
119
330
1F
100
AcDbEntity
  8
0
  6
SLD-Durchgehend
 62
     7
370
    25
100
AcDbLine
 10
586.1928506956
 20
340.1635778669
 30
0.0
 11
576.6069575419
 21
367.1284688237
 31
0.0
  0
LINE
  5
11A
330
1F
100
AcDbEntity
  8
0
  6
SLD-Durchgehend
 62
     7
370
    25
100
AcDbLine
 10
576.6069575419
 20
367.1284688237
 30
0.0
 11
568.2765527827
 21
392.035086227
 31
0.0
  0
LINE
  5
11B
330
1F
100
AcDbEntity
  8
0
  6
SLD-Durchgehend
 62
     7
370
    25
100
AcDbLine
 10
568.2765527827
 20
392.035086227
 30
0.0
 11
568.4223576652
 21
403.1122875932
 31
0.0
  0
LINE
  5
11C
330
1F
100
AcDbEntity
  8
0
  6
SLD-Durchgehend
 62
     7
370
    25
100
AcDbLine
 10
568.4223576652
 20
403.1122875932
 30
0.0
 11
561.6057380308
 21
427.057708574
 31
0.0
  0
LINE
  5
11D
330
1F
100
AcDbEntity
  8
0
  6
SLD-Durchgehend
 62
     7
370
    25
100
AcDbLine
 10
561.6057380308
 20
427.057708574
 30
0.0
 11
551.3997717961
 21
451.1191619162
 31
0.0
  0
LINE
  5
11E
330
1F
100
AcDbEntity
  8
0
  6
SLD-Durchgehend
 62
     7
370
    25
100
AcDbLine
 10
551.3997717961
 20
451.1191619162
 30
0.0
 11
544.5651277168
 21
501.1573804148
 31
0.0
  0
LINE
  5
11F
330
1F
100
AcDbEntity
  8
0
  6
SLD-Durchgehend
 62
     7
370
    25
100
AcDbLine
 10
544.5651277168
 20
501.1573804148
 30
0.0
 11
524.680571185
 21
594.6151984454
 31
0.0
  0
LINE
  5
120
330
1F
100
AcDbEntity
  8
0
  6
SLD-Durchgehend
 62
     7
370
    25
100
AcDbLine
 10
524.680571185
 20
594.6151984454
 30
0.0
 11
524.037967549
 21
598.6750972988
 31
0.0
  0
LINE
  5
121
330
1F
100
AcDbEntity
  8
0
  6
SLD-Durchgehend
 62
     7
370
    25
100
AcDbLine
 10
524.037967549
 20
598.6750972988
 30
0.0
 11
520.3371628393
 21
612.3587084534
 31
0.0
  0
LINE
  5
122
330
1F
100
AcDbEntity
  8
0
  6
SLD-Durchgehend
 62
     7
370
    25
100
AcDbLine
 10
520.3371628393
 20
612.3587084534
 30
0.0
 11
514.0686257944
 21
659.170390439
 31
0.0
  0
LINE
  5
123
330
1F
100
AcDbEntity
  8
0
  6
SLD-Durchgehend
 62
     7
370
    25
100
AcDbLine
 10
514.0686257944
 20
659.170390439
 30
0.0
 11
507.9990550147
 21
691.4119911914
 31
0.0
  0
LINE
  5
124
330
1F
100
AcDbEntity
  8
0
  6
SLD-Durchgehend
 62
     7
370
    25
100
AcDbLine
 10
507.9990550147
 20
691.4119911914
 30
0.0
 11
504.8553451165
 21
704.8660588985
 31
0.0
  0
LINE
  5
125
330
1F
100
AcDbEntity
  8
0
  6
SLD-Durchgehend
 62
     7
370
    25
100
AcDbLine
 10
504.8553451165
 20
704.8660588985
 30
0.0
 11
492.1077712642
 21
753.3490789658
 31
0.0
  0
LINE
  5
126
330
1F
100
AcDbEntity
  8
0
  6
SLD-Durchgehend
 62
     7
370
    25
100
AcDbLine
 10
492.1077712642
 20
753.3490789658
 30
0.0
 11
491.7918606865
 21
754.0033770326
 31
0.0
  0
LINE
  5
127
330
1F
100
AcDbEntity
  8
0
  6
SLD-Durchgehend
 62
     7
370
    25
100
AcDbLine
 10
491.7918606865
 20
754.0033770326
 30
0.0
 11
479.0181621175
 21
784.2829955348
 31
0.0
  0
LINE
  5
128
330
1F
100
AcDbEntity
  8
0
  6
SLD-Durchgehend
 62
     7
370
    25
100
AcDbLine
 10
479.0181621175
 20
784.2829955348
 30
0.0
 11
467.4108489622
 21
830.8723760372
 31
0.0
  0
LINE
  5
129
330
1F
100
AcDbEntity
  8
0
  6
SLD-Durchgehend
 62
     7
370
    25
100
AcDbLine
 10
467.4108489622
 20
830.8723760372
 30
0.0
 11
455.184374677
 21
871.9690752749
 31
0.0
  0
LINE
  5
12A
330
1F
100
AcDbEntity
  8
0
  6
SLD-Durchgehend
 62
     7
370
    25
100
AcDbLine
 10
455.184374677
 20
871.9690752749
 30
0.0
 11
446.4777632821
 21
891.105778289
 31
0.0
  0
LINE
  5
12B
330
1F
100
AcDbEntity
  8
0
  6
SLD-Durchgehend
 62
     7
370
    25
100
AcDbLine
 10
446.4777632821
 20
891.105778289
 30
0.0
 11
438.9141484366
 21
909.0544772864
 31
0.0
  0
LINE
  5
12C
330
1F
100
AcDbEntity
  8
0
  6
SLD-Durchgehend
 62
     7
370
    25
100
AcDbLine
 10
438.9141484366
 20
909.0544772864
 30
0.0
 11
430.9842511285
 21
930.9766811852
 31
0.0
  0
LINE
  5
12D
330
1F
100
AcDbEntity
  8
0
  6
SLD-Durchgehend
 62
     7
370
    25
100
AcDbLine
 10
430.9842511285
 20
930.9766811852
 30
0.0
 11
418.0125489096
 21
962.2642900943
 31
0.0
  0
LINE
  5
12E
330
1F
100
AcDbEntity
  8
0
  6
SLD-Durchgehend
 62
     7
370
    25
100
AcDbLine
 10
418.0125489096
 20
962.2642900943
 30
0.0
 11
402.4506434069
 21
963.3838815214
 31
0.0
  0
LINE
  5
12F
330
1F
100
AcDbEntity
  8
0
  6
SLD-Durchgehend
 62
     7
370
    25
100
AcDbLine
 10
402.4506434069
 20
963.3838815214
 30
0.0
 11
398.4924539197
 21
925.3426743271
 31
0.0
  0
LINE
  5
130
330
1F
100
AcDbEntity
  8
0
  6
SLD-Durchgehend
 62
     7
370
    25
100
AcDbLine
 10
398.4924539197
 20
925.3426743271
 30
0.0
 11
392.1780511004
 21
912.9955811025
 31
0.0
  0
LINE
  5
131
330
1F
100
AcDbEntity
  8
0
  6
SLD-Durchgehend
 62
     7
370
    25
100
AcDbLine
 10
392.1780511004
 20
912.9955811025
 30
0.0
 11
392.2023519143
 21
899.0581793312
 31
0.0
  0
LINE
  5
132
330
1F
100
AcDbEntity
  8
0
  6
SLD-Durchgehend
 62
     7
370
    25
100
AcDbLine
 10
392.2023519143
 20
899.0581793312
 30
0.0
 11
396.673540698
 21
881.002379728
 31
0.0
  0
LINE
  5
133
330
1F
100
AcDbEntity
  8
0
  6
SLD-Durchgehend
 62
     7
370
    25
100
AcDbLine
 10
396.673540698
 20
881.002379728
 30
0.0
 11
391.4184495078
 21
862.986196351
 31
0.0
  0
LINE
  5
134
330
1F
100
AcDbEntity
  8
0
  6
SLD-Durchgehend
 62
     7
370
    25
100
AcDbLine
 10
391.4184495078
 20
862.986196351
 30
0.0
 11
394.5495530231
 21
831.7012859111
 31
0.0
  0
LINE
  5
135
330
1F
100
AcDbEntity
  8
0
  6
SLD-Durchgehend
 62
     7
370
    25
100
AcDbLine
 10
394.5495530231
 20
831.7012859111
 30
0.0
 11
389.9118527042
 21
804.7417861946
 31
0.0
  0
LINE
  5
136
330
1F
100
AcDbEntity
  8
0
  6
SLD-Durchgehend
 62
     7
370
    25
100
AcDbLine
 10
389.9118527042
 20
804.7417861946
 30
0.0
 11
371.3547482356
 21
764.7628975635
 31
0.0
  0
LINE
  5
137
330
1F
100
AcDbEntity
  8
0
  6
SLD-Durchgehend
 62
     7
370
    25
100
AcDbLine
 10
371.3547482356
 20
764.7628975635
 30
0.0
 11
368.2488574846
 21
749.3477059128
 31
0.0
  0
LINE
  5
138
330
1F
100
AcDbEntity
  8
0
  6
SLD-Durchgehend
 62
     7
370
    25
100
AcDbLine
 10
368.2488574846
 20
749.3477059128
 30
0.0
 11
363.670541273
 21
717.694689107
 31
0.0
  0
LINE
  5
139
330
1F
100
AcDbEntity
  8
0
  6
SLD-Durchgehend
 62
     7
370
    25
100
AcDbLine
 10
363.670541273
 20
717.694689107
 30
0.0
 11
344.325055109
 21
667.2586990124
 31
0.0
  0
LINE
  5
13A
330
1F
100
AcDbEntity
  8
0
  6
SLD-Durchgehend
 62
     7
370
    25
100
AcDbLine
 10
344.325055109
 20
667.2586990124
 30
0.0
 11
336.7920442684
 21
651.0784877067
 31
0.0
  0
LINE
  5
13B
330
1F
100
AcDbEntity
  8
0
  6
SLD-Durchgehend
 62
     7
370
    25
100
AcDbLine
 10
336.7920442684
 20
651.0784877067
 30
0.0
 11
323.872540818
 21
606.3961578131
 31
0.0
  0
LINE
  5
13C
330
1F
100
AcDbEntity
  8
0
  6
SLD-Durchgehend
 62
     7
370
    25
100
AcDbLine
 10
323.872540818
 20
606.3961578131
 30
0.0
 11
322.4901571138
 21
602.6440692667
 31
0.0
  0
LINE
  5
13D
330
1F
100
AcDbEntity
  8
0
  6
SLD-Durchgehend
 62
     7
370
    25
100
AcDbLine
 10
322.4901571138
 20
602.6440692667
 30
0.0
 11
322.2480609289
 21
601.8736851937
 31
0.0
  0
LINE
  5
13E
330
1F
100
AcDbEntity
  8
0
  6
SLD-Durchgehend
 62
     7
370
    25
100
AcDbLine
 10
322.2480609289
 20
601.8736851937
 30
0.0
 11
313.6872544154
 21
557.677371574
 31
0.0
  0
LINE
  5
13F
330
1F
100
AcDbEntity
  8
0
  6
SLD-Durchgehend
 62
     7
370
    25
100
AcDbLine
 10
313.6872544154
 20
557.677371574
 30
0.0
 11
313.5891526207
 21
557.1279210575
 31
0.0
  0
CIRCLE
  5
140
330
1F
100
AcDbEntity
  8
0
  6
SLD-Durchgehend
 62
     7
370
    25
100
AcDbCircle
 10
440.4092720867
 20
1372.621164765
 30
0.0
 40
4.500000000000057
  0
CIRCLE
  5
141
330
1F
100
AcDbEntity
  8
0
  6
SLD-Durchgehend
 62
     7
370
    25
100
AcDbCircle
 10
243.8017587089
 20
687.5435089554
 30
0.0
 40
4.500000000000028
  0
CIRCLE
  5
142
330
1F
100
AcDbEntity
  8
0
  6
SLD-Durchgehend
 62
     7
370
    25
100
AcDbCircle
 10
610.6566198477
 20
687.5435089554
 30
0.0
 40
4.5
  0
CIRCLE
  5
143
330
1F
100
AcDbEntity
  8
0
  6
SLD-Durchgehend
 62
     7
370
    25
100
AcDbCircle
 10
440.7379844992
 20
1210.4146975967
 30
0.0
 40
4.500000000000057
  0
LINE
  5
144
330
1F
100
AcDbEntity
  8
0
  6
SLD-Durchgehend
 62
     2
420
 16776960
370
    25
100
AcDbLine
 10
587.7429451124
 20
188.0308274734
 30
0.0
 11
586.9737143431
 21
188.0308274734
 31
0.0
  0
LINE
  5
145
330
1F
100
AcDbEntity
  8
0
  6
SLD-Durchgehend
 62
     2
420
 16776960
370
    25
100
AcDbLine
 10
587.7429451124
 20
183.5436479862
 30
0.0
 11
587.7429451124
 21
188.0308274734
 31
0.0
  0
LINE
  5
146
330
1F
100
AcDbEntity
  8
0
  6
SLD-Durchgehend
 62
     2
420
 16776960
370
    25
100
AcDbLine
 10
588.1916630611
 20
183.5436479862
 30
0.0
 11
587.7429451124
 21
183.5436479862
 31
0.0
  0
LINE
  5
147
330
1F
100
AcDbEntity
  8
0
  6
SLD-Durchgehend
 62
     2
420
 16776960
370
    25
100
AcDbLine
 10
588.1916630611
 20
188.5436479862
 30
0.0
 11
588.1916630611
 21
183.5436479862
 31
0.0
  0
LINE
  5
148
330
1F
100
AcDbEntity
  8
0
  6
SLD-Durchgehend
 62
     2
420
 16776960
370
    25
100
AcDbLine
 10
587.2671838944
 20
188.5436479862
 30
0.0
 11
588.1916630611
 21
188.5436479862
 31
0.0
  0
LINE
  5
149
330
1F
100
AcDbEntity
  8
0
  6
SLD-Durchgehend
 62
     2
420
 16776960
370
    25
100
AcDbLine
 10
586.9737143431
 20
188.0308274734
 30
0.0
 11
587.2671838944
 21
188.5436479862
 31
0.0
  0
CIRCLE
  5
14A
330
1F
100
AcDbEntity
  8
0
  6
SLD-Durchgehend
 62
     7
370
    25
100
AcDbCircle
 10
590.3125369724
 20
210.6996428118
 30
0.0
 40
6.124999999999886
  0
CIRCLE
  5
14B
330
1F
100
AcDbEntity
  8
0
  6
SLD-Durchgehend
 62
     7
370
    25
100
AcDbCircle
 10
650.3125369724
 20
210.6996428118
 30
0.0
 40
6.125
  0
CIRCLE
  5
14C
330
1F
100
AcDbEntity
  8
0
  6
SLD-Durchgehend
 62
     7
370
    25
100
AcDbCircle
 10
440.0330143838
 20
1421.7553030812
 30
0.0
 40
6.125
  0
CIRCLE
  5
14D
330
1F
100
AcDbEntity
  8
0
  6
SLD-Durchgehend
 62
     7
370
    25
100
AcDbCircle
 10
407.1743088578
 20
1242.2863649852
 30
0.0
 40
6.125
  0
CIRCLE
  5
14E
330
1F
100
AcDbEntity
  8
0
  6
SLD-Durchgehend
 62
     7
370
    25
100
AcDbCircle
 10
590.3125369724
 20
270.6996428118
 30
0.0
 40
6.124999999999886
  0
CIRCLE
  5
14F
330
1F
100
AcDbEntity
  8
0
  6
SLD-Durchgehend
 62
     7
370
    25
100
AcDbCircle
 10
200.3125369724
 20
270.6996428118
 30
0.0
 40
6.124999999999943
  0
CIRCLE
  5
150
330
1F
100
AcDbEntity
  8
0
  6
SLD-Durchgehend
 62
     7
370
    25
100
AcDbCircle
 10
140.3125369724
 20
270.6996428118
 30
0.0
 40
6.125000000000057
  0
CIRCLE
  5
151
330
1F
100
AcDbEntity
  8
0
  6
SLD-Durchgehend
 62
     7
370
    25
100
AcDbCircle
 10
140.3125369724
 20
210.6996428118
 30
0.0
 40
6.125
  0
CIRCLE
  5
152
330
1F
100
AcDbEntity
  8
0
  6
SLD-Durchgehend
 62
     7
370
    25
100
AcDbCircle
 10
200.3125369724
 20
210.6996428118
 30
0.0
 40
6.124999999999943
  0
CIRCLE
  5
153
330
1F
100
AcDbEntity
  8
0
  6
SLD-Durchgehend
 62
     7
370
    25
100
AcDbCircle
 10
650.3125369724
 20
270.6996428118
 30
0.0
 40
6.125
  0
ARC
  5
154
330
1F
100
AcDbEntity
  8
0
  6
SLD-Durchgehend
 62
     2
420
 16776960
370
    25
100
AcDbCircle
 10
591.6856068291
 20
184.8577431077
 30
0.0
 40
1.189375270231363
100
AcDbArc
 50
85.6220269506
 51
175.8464869652
  0
ARC
  5
155
330
1F
100
AcDbEntity
  8
0
  6
SLD-Durchgehend
 62
     2
420
 16776960
370
    25
100
AcDbCircle
 10
591.8382247128
 20
184.8787468979
 30
0.0
 40
1.166540616151134
100
AcDbArc
 50
5.5201733118
 51
93.0380713595
  0
ARC
  5
156
330
1F
100
AcDbEntity
  8
0
  6
SLD-Durchgehend
 62
     2
420
 16776960
370
    25
100
AcDbCircle
 10
591.8659511723
 20
185.0574016954
 30
0.0
 40
1.135349761479641
100
AcDbArc
 50
264.0039253421
 51
356.6452689507
  0
LWPOLYLINE
  5
157
330
1F
100
AcDbEntity
  8
0
  6
SLD-Durchgehend
 62
     2
420
 16776960
370
    25
100
AcDbPolyline
 90
        4
 70
   128
 43
0.0
 10
590.4993553688
 20
184.9438883708
 10
590.6348296562
 20
184.4656588528
 10
590.9887508852
 20
184.1153352395
 10
591.7473521637
 20
183.9282633708
  0
ARC
  5
158
330
1F
100
AcDbEntity
  8
0
  6
SLD-Durchgehend
 62
     2
420
 16776960
370
    25
100
AcDbCircle
 10
591.8216710095
 20
187.4802665553
 30
0.0
 40
0.9255114331005829
100
AcDbArc
 50
266.5130942727
 51
354.5152261366
  0
LWPOLYLINE
  5
159
330
1F
100
AcDbEntity
  8
0
  6
SLD-Durchgehend
 62
     2
420
 16776960
370
    25
100
AcDbPolyline
 90
        4
 70
   128
 43
0.0
 10
592.7429451124
 20
187.3918050375
 10
592.6254083743
 20
187.7598002269
 10
592.3421576942
 20
188.0261697292
 10
591.7473521637
 20
188.1590326016
  0
ARC
  5
15A
330
1F
100
AcDbEntity
  8
0
  6
SLD-Durchgehend
 62
     2
420
 16776960
370
    25
100
AcDbCircle
 10
591.7139994311
 20
187.5238053605
 30
0.0
 40
0.9687005059045924
100
AcDbArc
 50
188.4302329037
 51
273.040495763
  0
ARC
  5
15B
330
1F
100
AcDbEntity
  8
0
  6
SLD-Durchgehend
 62
     2
420
 16776960
370
    25
100
AcDbCircle
 10
591.6376667841
 20
187.2778247103
 30
0.0
 40
0.8880080124164661
100
AcDbArc
 50
82.90479341
 51
173.2766280092
  0
ENDSEC
  0
SECTION
  2
OBJECTS
  0
DICTIONARY
  5
C
330
0
100
AcDbDictionary
281
     1
  3
ACAD_DETAILVIEWSTYLE
350
163
  3
ACAD_GROUP
350
D
  3
ACAD_LAYOUT
350
1A
  3
ACAD_MATERIAL
350
43
  3
ACAD_MLEADERSTYLE
350
6B
  3
ACAD_MLINESTYLE
350
17
  3
ACAD_PLOTSETTINGS
350
19
  3
ACAD_PLOTSTYLENAME
350
E
  3
ACAD_SCALELIST
350
47
  3
ACAD_SECTIONVIEWSTYLE
350
164
  3
ACAD_TABLESTYLE
350
69
  3
ACAD_VISUALSTYLE
350
2A
  3
ACDB_RECOMPOSE_DATA
350
160
  3
AcDbVariableDictionary
350
15C
  0
SUN
  5
6D
330
29
100
AcDbSun
 90
        1
290
     0
 63
     7
421
 16777215
 40
1.0
291
     1
 91
  2455826
 92
 54000000
292
     0
 70
     2
 71
   256
280
     1
  0
DICTIONARY
  5
163
102
{ACAD_REACTORS
330
C
102
}
330
C
100
AcDbDictionary
281
     1
  0
DICTIONARY
  5
D
102
{ACAD_REACTORS
330
C
102
}
330
C
100
AcDbDictionary
281
     1
  0
DICTIONARY
  5
1A
102
{ACAD_REACTORS
330
C
102
}
330
C
100
AcDbDictionary
281
     1
  3
Layout1
350
1E
  3
Layout2
350
26
  3
Model
350
22
  0
DICTIONARY
  5
43
102
{ACAD_REACTORS
330
C
102
}
330
C
100
AcDbDictionary
281
     1
  3
ByBlock
350
45
  3
ByLayer
350
44
  3
Global
350
46
  0
DICTIONARY
  5
6B
102
{ACAD_REACTORS
330
C
102
}
330
C
100
AcDbDictionary
281
     1
  3
Standard
350
6C
  0
DICTIONARY
  5
17
102
{ACAD_REACTORS
330
C
102
}
330
C
100
AcDbDictionary
281
     1
  3
Standard
350
18
  0
DICTIONARY
  5
19
102
{ACAD_REACTORS
330
C
102
}
330
C
100
AcDbDictionary
281
     1
  0
ACDBDICTIONARYWDFLT
  5
E
102
{ACAD_REACTORS
330
C
102
}
330
C
100
AcDbDictionary
281
     1
  3
Normal
350
F
100
AcDbDictionaryWithDefault
340
F
  0
DICTIONARY
  5
47
102
{ACAD_REACTORS
330
C
102
}
330
C
100
AcDbDictionary
281
     1
  3
A0
350
48
  3
A1
350
49
  3
A2
350
4A
  3
A3
350
4B
  3
A4
350
4C
  3
A5
350
4D
  3
A6
350
4E
  3
A7
350
4F
  3
A8
350
50
  3
A9
350
51
  3
B0
350
52
  3
B1
350
53
  3
B2
350
54
  3
B3
350
55
  3
B4
350
56
  3
B5
350
57
  3
B6
350
58
  3
B7
350
59
  3
B8
350
5A
  3
B9
350
5B
  3
C0
350
5C
  3
C1
350
5D
  3
C2
350
5E
  3
C3
350
5F
  3
C4
350
60
  3
C5
350
61
  3
C6
350
62
  3
C7
350
63
  3
C8
350
64
  3
C9
350
65
  3
D0
350
66
  3
D1
350
67
  3
D2
350
68
  0
DICTIONARY
  5
164
102
{ACAD_REACTORS
330
C
102
}
330
C
100
AcDbDictionary
281
     1
  0
DICTIONARY
  5
69
102
{ACAD_REACTORS
330
C
102
}
330
C
100
AcDbDictionary
281
     1
  3
Standard
350
6A
  0
DICTIONARY
  5
2A
102
{ACAD_REACTORS
330
C
102
}
330
C
100
AcDbDictionary
281
     1
  3
2dWireframe
350
2F
  3
Basic
350
32
  3
Brighten
350
36
  3
ColorChange
350
3A
  3
Conceptual
350
34
  3
Dim
350
35
  3
EdgeColorOff
350
3D
  3
Facepattern
350
39
  3
Flat
350
2B
  3
FlatWithEdges
350
2C
  3
Gouraud
350
2D
  3
GouraudWithEdges
350
2E
  3
Hidden
350
31
  3
JitterOff
350
3B
  3
Linepattern
350
38
  3
OverhangOff
350
3C
  3
Realistic
350
33
  3
Shaded
350
42
  3
Shaded with edges
350
41
  3
Shades of Gray
350
3E
  3
Sketchy
350
3F
  3
Thicken
350
37
  3
Wireframe
350
30
  3
X-Ray
350
40
  0
XRECORD
  5
160
102
{ACAD_REACTORS
330
C
102
}
330
C
100
AcDbXrecord
280
     1
 90
        1
330
6A
  0
DICTIONARY
  5
15C
102
{ACAD_REACTORS
330
C
102
}
330
C
100
AcDbDictionary
281
     1
  3
CANNOSCALE
350
15D
  3
CENTEREXE
350
165
  3
CENTERLTYPEFILE
350
166
  3
CMLEADERSTYLE
350
162
  3
CTABLESTYLE
350
161
  0
LAYOUT
  5
1E
102
{ACAD_REACTORS
330
1A
102
}
330
1A
100
AcDbPlotSettings
  1

  2
none_device
  4

  6

 40
0.0
 41
0.0
 42
0.0
 43
0.0
 44
0.0
 45
0.0
 46
0.0
 47
0.0
 48
0.0
 49
0.0
140
0.0
141
0.0
142
1.0
143
1.0
 70
   688
 72
     1
 73
     0
 74
     5
  7

 75
    16
 76
     0
 77
     2
 78
   300
147
1.0
148
0.0
149
0.0
100
AcDbLayout
  1
Layout1
 70
     1
 71
     1
 10
0.0
 20
0.0
 11
420.0
 21
297.0
 12
0.0
 22
0.0
 32
0.0
 14
1.0000000000E+20
 24
1.0000000000E+20
 34
1.0000000000E+20
 15
-1.0000000000E+20
 25
-1.0000000000E+20
 35
-1.0000000000E+20
146
0.0
 13
0.0
 23
0.0
 33
0.0
 16
1.0
 26
0.0
 36
0.0
 17
0.0
 27
1.0
 37
0.0
 76
     0
330
1B
  0
LAYOUT
  5
26
102
{ACAD_REACTORS
330
1A
102
}
330
1A
100
AcDbPlotSettings
  1

  2
none_device
  4

  6

 40
0.0
 41
0.0
 42
0.0
 43
0.0
 44
0.0
 45
0.0
 46
0.0
 47
0.0
 48
0.0
 49
0.0
140
0.0
141
0.0
142
1.0
143
1.0
 70
   688
 72
     1
 73
     0
 74
     5
  7

 75
    16
 76
     0
 77
     2
 78
   300
147
1.0
148
0.0
149
0.0
100
AcDbLayout
  1
Layout2
 70
     1
 71
     2
 10
0.0
 20
0.0
 11
0.0
 21
0.0
 12
0.0
 22
0.0
 32
0.0
 14
0.0
 24
0.0
 34
0.0
 15
0.0
 25
0.0
 35
0.0
146
0.0
 13
0.0
 23
0.0
 33
0.0
 16
1.0
 26
0.0
 36
0.0
 17
0.0
 27
1.0
 37
0.0
 76
     0
330
23
  0
LAYOUT
  5
22
102
{ACAD_REACTORS
330
1A
102
}
330
1A
100
AcDbPlotSettings
  1

  2
none_device
  4
Letter_(8.50_x_11.00_Inches)
  6

 40
6.35
 41
6.35
 42
6.35000508
 43
6.35000508
 44
215.9
 45
279.4
 46
0.0
 47
0.0
 48
0.0
 49
0.0
140
0.0
141
0.0
142
1.0
143
1.0
 70
  1712
 72
     1
 73
     0
 74
     0
  7

 75
     0
 76
     0
 77
     2
 78
   300
147
1.0
148
0.0
149
0.0
100
AcDbLayout
  1
Model
 70
     1
 71
     0
 10
0.0
 20
0.0
 11
900.0
 21
1600.0
 12
0.0
 22
0.0
 32
0.0
 14
0.0
 24
0.0
 34
0.0
 15
900.0
 25
1600.0
 35
0.0
146
0.0
 13
0.0
 23
0.0
 33
0.0
 16
1.0
 26
0.0
 36
0.0
 17
0.0
 27
1.0
 37
0.0
 76
     0
330
1F
331
29
  0
MATERIAL
  5
45
102
{ACAD_REACTORS
330
43
102
}
330
43
100
AcDbMaterial
  1
ByBlock
 72
     1
 94
      127
  0
MATERIAL
  5
44
102
{ACAD_REACTORS
330
43
102
}
330
43
100
AcDbMaterial
  1
ByLayer
 72
     1
 94
      127
  0
MATERIAL
  5
46
102
{ACAD_REACTORS
330
43
102
}
330
43
100
AcDbMaterial
  1
Global
 72
     1
 94
      127
  0
MLEADERSTYLE
  5
6C
102
{ACAD_REACTORS
330
6B
102
}
330
6B
100
AcDbMLeaderStyle
179
     2
170
     2
171
     1
172
     0
 90
        2
 40
0.0
 41
0.0
173
     1
 91
-1056964608
340
14
 92
       -2
290
     1
 42
2.0
291
     1
 43
8.0
  3
Standard
341
0
 44
4.0
300

342
11
174
     1
178
     6
175
     1
176
     0
 93
-1056964608
 45
4.0
292
     0
297
     0
 46
4.0
343
0
 94
-1056964608
 47
1.0
 49
1.0
140
1.0
293
     1
141
0.0
294
     1
177
     0
142
1.0
295
     0
296
     0
143
3.75
271
     0
272
     9
273
     9
298
     0
  0
MLINESTYLE
  5
18
102
{ACAD_REACTORS
330
17
102
}
330
17
100
AcDbMlineStyle
  2
Standard
 70
     0
  3

 62
   256
 51
90.0
 52
90.0
 71
     2
 49
0.5
 62
   256
  6
BYLAYER
 49
-0.5
 62
   256
  6
BYLAYER
  0
ACDBPLACEHOLDER
  5
F
102
{ACAD_REACTORS
330
E
102
}
330
E
  0
SCALE
  5
48
102
{ACAD_REACTORS
330
47
102
}
330
47
100
AcDbScale
 70
     0
300
1:1
140
1.0
141
1.0
290
     1
  0
SCALE
  5
49
102
{ACAD_REACTORS
330
47
102
}
330
47
100
AcDbScale
 70
     0
300
1:2
140
1.0
141
2.0
290
     0
  0
SCALE
  5
4A
102
{ACAD_REACTORS
330
47
102
}
330
47
100
AcDbScale
 70
     0
300
1:4
140
1.0
141
4.0
290
     0
  0
SCALE
  5
4B
102
{ACAD_REACTORS
330
47
102
}
330
47
100
AcDbScale
 70
     0
300
1:5
140
1.0
141
5.0
290
     0
  0
SCALE
  5
4C
102
{ACAD_REACTORS
330
47
102
}
330
47
100
AcDbScale
 70
     0
300
1:8
140
1.0
141
8.0
290
     0
  0
SCALE
  5
4D
102
{ACAD_REACTORS
330
47
102
}
330
47
100
AcDbScale
 70
     0
300
1:10
140
1.0
141
10.0
290
     0
  0
SCALE
  5
4E
102
{ACAD_REACTORS
330
47
102
}
330
47
100
AcDbScale
 70
     0
300
1:16
140
1.0
141
16.0
290
     0
  0
SCALE
  5
4F
102
{ACAD_REACTORS
330
47
102
}
330
47
100
AcDbScale
 70
     0
300
1:20
140
1.0
141
20.0
290
     0
  0
SCALE
  5
50
102
{ACAD_REACTORS
330
47
102
}
330
47
100
AcDbScale
 70
     0
300
1:30
140
1.0
141
30.0
290
     0
  0
SCALE
  5
51
102
{ACAD_REACTORS
330
47
102
}
330
47
100
AcDbScale
 70
     0
300
1:40
140
1.0
141
40.0
290
     0
  0
SCALE
  5
52
102
{ACAD_REACTORS
330
47
102
}
330
47
100
AcDbScale
 70
     0
300
1:50
140
1.0
141
50.0
290
     0
  0
SCALE
  5
53
102
{ACAD_REACTORS
330
47
102
}
330
47
100
AcDbScale
 70
     0
300
1:100
140
1.0
141
100.0
290
     0
  0
SCALE
  5
54
102
{ACAD_REACTORS
330
47
102
}
330
47
100
AcDbScale
 70
     0
300
2:1
140
2.0
141
1.0
290
     0
  0
SCALE
  5
55
102
{ACAD_REACTORS
330
47
102
}
330
47
100
AcDbScale
 70
     0
300
4:1
140
4.0
141
1.0
290
     0
  0
SCALE
  5
56
102
{ACAD_REACTORS
330
47
102
}
330
47
100
AcDbScale
 70
     0
300
8:1
140
8.0
141
1.0
290
     0
  0
SCALE
  5
57
102
{ACAD_REACTORS
330
47
102
}
330
47
100
AcDbScale
 70
     0
300
10:1
140
10.0
141
1.0
290
     0
  0
SCALE
  5
58
102
{ACAD_REACTORS
330
47
102
}
330
47
100
AcDbScale
 70
     0
300
100:1
140
100.0
141
1.0
290
     0
  0
SCALE
  5
59
102
{ACAD_REACTORS
330
47
102
}
330
47
100
AcDbScale
 70
     0
300
1/128" = 1'-0"
140
0.0078125
141
12.0
290
     0
  0
SCALE
  5
5A
102
{ACAD_REACTORS
330
47
102
}
330
47
100
AcDbScale
 70
     0
300
1/64" = 1'-0"
140
0.015625
141
12.0
290
     0
  0
SCALE
  5
5B
102
{ACAD_REACTORS
330
47
102
}
330
47
100
AcDbScale
 70
     0
300
1/32" = 1'-0"
140
0.03125
141
12.0
290
     0
  0
SCALE
  5
5C
102
{ACAD_REACTORS
330
47
102
}
330
47
100
AcDbScale
 70
     0
300
1/16" = 1'-0"
140
0.0625
141
12.0
290
     0
  0
SCALE
  5
5D
102
{ACAD_REACTORS
330
47
102
}
330
47
100
AcDbScale
 70
     0
300
3/32" = 1'-0"
140
0.09375
141
12.0
290
     0
  0
SCALE
  5
5E
102
{ACAD_REACTORS
330
47
102
}
330
47
100
AcDbScale
 70
     0
300
1/8" = 1'-0"
140
0.125
141
12.0
290
     0
  0
SCALE
  5
5F
102
{ACAD_REACTORS
330
47
102
}
330
47
100
AcDbScale
 70
     0
300
3/16" = 1'-0"
140
0.1875
141
12.0
290
     0
  0
SCALE
  5
60
102
{ACAD_REACTORS
330
47
102
}
330
47
100
AcDbScale
 70
     0
300
1/4" = 1'-0"
140
0.25
141
12.0
290
     0
  0
SCALE
  5
61
102
{ACAD_REACTORS
330
47
102
}
330
47
100
AcDbScale
 70
     0
300
3/8" = 1'-0"
140
0.375
141
12.0
290
     0
  0
SCALE
  5
62
102
{ACAD_REACTORS
330
47
102
}
330
47
100
AcDbScale
 70
     0
300
1/2" = 1'-0"
140
0.5
141
12.0
290
     0
  0
SCALE
  5
63
102
{ACAD_REACTORS
330
47
102
}
330
47
100
AcDbScale
 70
     0
300
3/4" = 1'-0"
140
0.75
141
12.0
290
     0
  0
SCALE
  5
64
102
{ACAD_REACTORS
330
47
102
}
330
47
100
AcDbScale
 70
     0
300
1" = 1'-0"
140
1.0
141
12.0
290
     0
  0
SCALE
  5
65
102
{ACAD_REACTORS
330
47
102
}
330
47
100
AcDbScale
 70
     0
300
1-1/2" = 1'-0"
140
1.5
141
12.0
290
     0
  0
SCALE
  5
66
102
{ACAD_REACTORS
330
47
102
}
330
47
100
AcDbScale
 70
     0
300
3" = 1'-0"
140
3.0
141
12.0
290
     0
  0
SCALE
  5
67
102
{ACAD_REACTORS
330
47
102
}
330
47
100
AcDbScale
 70
     0
300
6" = 1'-0"
140
6.0
141
12.0
290
     0
  0
SCALE
  5
68
102
{ACAD_REACTORS
330
47
102
}
330
47
100
AcDbScale
 70
     0
300
1'-0" = 1'-0"
140
12.0
141
12.0
290
     0
  0
TABLESTYLE
  5
6A
102
{ACAD_REACTORS
330
69
102
}
102
{ACAD_XDICTIONARY
360
15E
102
}
330
69
100
AcDbTableStyle
  3
Standard
 70
     0
 71
     0
 40
0.06
 41
0.06
280
     0
281
     0
  7
Standard
140
4.5
170
     2
 62
     0
 63
   257
283
     0
 90
        4
 91
        0
  1

274
    -2
284
     1
 64
     0
275
    -2
285
     1
 65
     0
276
    -2
286
     1
 66
     0
277
    -2
287
     1
 67
     0
278
    -2
288
     1
 68
     0
279
    -2
289
     1
 69
     0
  7
Standard
140
6.0
170
     5
 62
     0
 63
   257
283
     0
 90
        4
 91
        0
  1

274
    -2
284
     1
 64
     0
275
    -2
285
     1
 65
     0
276
    -2
286
     1
 66
     0
277
    -2
287
     1
 67
     0
278
    -2
288
     1
 68
     0
279
    -2
289
     1
 69
     0
  7
Standard
140
4.5
170
     5
 62
     0
 63
   257
283
     0
 90
        4
 91
        0
  1

274
    -2
284
     1
 64
     0
275
    -2
285
     1
 65
     0
276
    -2
286
     1
 66
     0
277
    -2
287
     1
 67
     0
278
    -2
288
     1
 68
     0
279
    -2
289
     1
 69
     0
  0
VISUALSTYLE
  5
2F
102
{ACAD_REACTORS
330
2A
102
}
330
2A
100
AcDbVisualStyle
  2
2dWireframe
 70
     4
177
     3
291
     0
 70
    58
 90
        0
176
     1
 90
        2
176
     1
 90
        0
176
     1
 90
        0
176
     1
 40
0.6
176
     1
 40
30.0
176
     1
 62
     7
420
 16777215
176
     1
 90
        1
176
     1
 90
        4
176
     1
 62
     7
176
     1
 62
   257
176
     1
 90
        1
176
     1
 90
        1
176
     1
 40
1.0
176
     1
 90
        0
176
     1
 62
   257
176
     1
 40
1.0
176
     1
 90
        1
176
     1
 90
        6
176
     1
 90
        2
176
     1
 62
     7
176
     1
 90
        5
176
     1
 90
        0
176
     1
 90
        0
176
     1
290
     0
176
     1
 90
        1
176
     1
 40
0.0
176
     1
 90
        0
176
     1
290
     1
176
     1
290
     1
176
     1
290
     0
176
     1
290
     0
176
     1
290
     0
176
     1
290
     0
176
     1
290
     0
176
     1
290
     0
176
     1
290
     0
176
     1
 90
       50
176
     1
 40
0.0
176
     1
 40
1.0
176
     1
 90
        0
176
     1
 62
    18
420
        0
176
     1
 90
       50
176
     1
 90
        3
176
     1
 62
     5
420
      255
176
     1
290
     0
176
     1
 90
       50
176
     1
 90
       50
176
     1
 90
       50
176
     1
290
     0
176
     1
 90
       50
176
     1
 62
   256
176
     0
 40
1.0
176
     0
 90
        2
176
     1
  1
strokes_ogs.tif
176
     1
290
     0
176
     1
 40
1.0
176
     1
 40
1.0
176
     1
  0
VISUALSTYLE
  5
32
102
{ACAD_REACTORS
330
2A
102
}
330
2A
100
AcDbVisualStyle
  2
Basic
 70
     7
177
     3
291
     1
 70
    58
 90
        1
176
     1
 90
        0
176
     1
 90
        1
176
     1
 90
        0
176
     1
 40
0.6
176
     1
 40
30.0
176
     1
 62
     7
420
 16777215
176
     1
 90
        0
176
     1
 90
        4
176
     1
 62
     7
176
     1
 62
   257
176
     1
 90
        1
176
     1
 90
        1
176
     1
 40
1.0
176
     1
 90
        8
176
     1
 62
     7
176
     1
 40
1.0
176
     1
 90
        1
176
     1
 90
        6
176
     1
 90
        2
176
     1
 62
     7
176
     1
 90
        5
176
     1
 90
        0
176
     1
 90
        0
176
     1
290
     0
176
     1
 90
        1
176
     1
 40
0.0
176
     1
 90
        0
176
     1
290
     0
176
     1
290
     1
176
     1
290
     1
176
     1
290
     0
176
     1
290
     0
176
     1
290
     0
176
     1
290
     0
176
     1
290
     0
176
     1
290
     0
176
     1
 90
       50
176
     1
 40
0.0
176
     1
 40
1.0
176
     1
 90
        0
176
     1
 62
    18
420
        0
176
     1
 90
       50
176
     1
 90
        3
176
     1
 62
     5
420
      255
176
     1
290
     0
176
     1
 90
       50
176
     1
 90
       50
176
     1
 90
       50
176
     1
290
     0
176
     1
 90
       50
176
     1
 62
   256
176
     0
 40
1.0
176
     0
 90
        2
176
     1
  1
strokes_ogs.tif
176
     1
290
     0
176
     1
 40
1.0
176
     1
 40
1.0
176
     1
  0
VISUALSTYLE
  5
36
102
{ACAD_REACTORS
330
2A
102
}
330
2A
100
AcDbVisualStyle
  2
Brighten
 70
    12
177
     3
291
     1
 70
    58
 90
        2
176
     1
 90
        2
176
     1
 90
        0
176
     1
 90
        0
176
     1
 40
0.6
176
     1
 40
30.0
176
     1
 62
     7
420
 16777215
176
     1
 90
        1
176
     1
 90
        4
176
     1
 62
     7
176
     1
 62
   257
176
     1
 90
        1
176
     1
 90
        1
176
     1
 40
1.0
176
     1
 90
        8
176
     1
 62
     7
176
     1
 40
1.0
176
     1
 90
        1
176
     1
 90
        6
176
     1
 90
        2
176
     1
 62
     7
176
     1
 90
        5
176
     1
 90
        0
176
     1
 90
        0
176
     1
290
     0
176
     1
 90
        1
176
     1
 40
50.0
176
     1
 90
        0
176
     1
290
     0
176
     1
290
     1
176
     1
290
     1
176
     1
290
     0
176
     1
290
     0
176
     1
290
     0
176
     1
290
     0
176
     1
290
     0
176
     1
290
     0
176
     1
 90
       50
176
     1
 40
0.0
176
     1
 40
1.0
176
     1
 90
        0
176
     1
 62
    18
420
        0
176
     1
 90
       50
176
     1
 90
        3
176
     1
 62
     5
420
      255
176
     1
290
     0
176
     1
 90
       50
176
     1
 90
       50
176
     1
 90
       50
176
     1
290
     0
176
     1
 90
       50
176
     1
 62
   256
176
     0
 40
1.0
176
     0
 90
        2
176
     1
  1
strokes_ogs.tif
176
     1
290
     0
176
     1
 40
1.0
176
     1
 40
1.0
176
     1
  0
VISUALSTYLE
  5
3A
102
{ACAD_REACTORS
330
2A
102
}
330
2A
100
AcDbVisualStyle
  2
ColorChange
 70
    16
177
     3
291
     1
 70
    58
 90
        2
176
     1
 90
        2
176
     1
 90
        3
176
     1
 90
        0
176
     1
 40
0.6
176
     1
 40
30.0
176
     1
 62
     8
420
  8421504
176
     1
 90
        1
176
     1
 90
        4
176
     1
 62
     7
176
     1
 62
   257
176
     1
 90
        1
176
     1
 90
        1
176
     1
 40
1.0
176
     1
 90
        8
176
     1
 62
     8
420
  8421504
176
     1
 40
1.0
176
     1
 90
        1
176
     1
 90
        6
176
     1
 90
        2
176
     1
 62
     7
176
     1
 90
        5
176
     1
 90
        0
176
     1
 90
        0
176
     1
290
     0
176
     1
 90
        1
176
     1
 40
0.0
176
     1
 90
        0
176
     1
290
     0
176
     1
290
     1
176
     1
290
     1
176
     1
290
     0
176
     1
290
     0
176
     1
290
     0
176
     1
290
     0
176
     1
290
     0
176
     1
290
     0
176
     1
 90
       50
176
     1
 40
0.0
176
     1
 40
1.0
176
     1
 90
        0
176
     1
 62
    18
420
        0
176
     1
 90
       50
176
     1
 90
        3
176
     1
 62
     5
420
      255
176
     1
290
     0
176
     1
 90
       50
176
     1
 90
       50
176
     1
 90
       50
176
     1
290
     0
176
     1
 90
       50
176
     1
 62
   256
176
     0
 40
1.0
176
     0
 90
        2
176
     1
  1
strokes_ogs.tif
176
     1
290
     0
176
     1
 40
1.0
176
     1
 40
1.0
176
     1
  0
VISUALSTYLE
  5
34
102
{ACAD_REACTORS
330
2A
102
}
330
2A
100
AcDbVisualStyle
  2
Conceptual
 70
     9
177
     3
291
     0
 70
    58
 90
        3
176
     1
 90
        2
176
     1
 90
        0
176
     1
 90
        0
176
     1
 40
0.6
176
     1
 40
30.0
176
     1
 62
     7
420
 16777215
176
     1
 90
        2
176
     1
 90
        2
176
     1
 62
     7
176
     1
 62
   257
176
     1
 90
        1
176
     1
 90
        1
176
     1
 40
179.0
176
     1
 90
        8
176
     1
 62
     7
176
     1
 40
1.0
176
     1
 90
        1
176
     1
 90
        6
176
     1
 90
        2
176
     1
 62
     7
176
     1
 90
        3
176
     1
 90
        0
176
     1
 90
        0
176
     1
290
     0
176
     1
 90
        1
176
     1
 40
0.0
176
     1
 90
        0
176
     1
290
     0
176
     1
290
     1
176
     1
290
     1
176
     1
290
     0
176
     1
290
     0
176
     1
290
     0
176
     1
290
     0
176
     1
290
     0
176
     1
290
     0
176
     1
 90
       50
176
     1
 40
0.0
176
     1
 40
1.0
176
     1
 90
        0
176
     1
 62
    18
420
        0
176
     1
 90
       50
176
     1
 90
        3
176
     1
 62
     5
420
      255
176
     1
290
     0
176
     1
 90
       50
176
     1
 90
       50
176
     1
 90
       50
176
     1
290
     0
176
     1
 90
       50
176
     1
 62
   256
176
     0
 40
1.0
176
     0
 90
        2
176
     1
  1
strokes_ogs.tif
176
     1
290
     0
176
     1
 40
1.0
176
     1
 40
1.0
176
     1
  0
VISUALSTYLE
  5
35
102
{ACAD_REACTORS
330
2A
102
}
330
2A
100
AcDbVisualStyle
  2
Dim
 70
    11
177
     3
291
     1
 70
    58
 90
        2
176
     1
 90
        2
176
     1
 90
        0
176
     1
 90
        0
176
     1
 40
0.6
176
     1
 40
30.0
176
     1
 62
     7
420
 16777215
176
     1
 90
        1
176
     1
 90
        4
176
     1
 62
     7
176
     1
 62
   257
176
     1
 90
        1
176
     1
 90
        1
176
     1
 40
1.0
176
     1
 90
        8
176
     1
 62
     7
176
     1
 40
1.0
176
     1
 90
        1
176
     1
 90
        6
176
     1
 90
        2
176
     1
 62
     7
176
     1
 90
        5
176
     1
 90
        0
176
     1
 90
        0
176
     1
290
     0
176
     1
 90
        1
176
     1
 40
-50.0
176
     1
 90
        0
176
     1
290
     0
176
     1
290
     1
176
     1
290
     1
176
     1
290
     0
176
     1
290
     0
176
     1
290
     0
176
     1
290
     0
176
     1
290
     0
176
     1
290
     0
176
     1
 90
       50
176
     1
 40
0.0
176
     1
 40
1.0
176
     1
 90
        0
176
     1
 62
    18
420
        0
176
     1
 90
       50
176
     1
 90
        3
176
     1
 62
     5
420
      255
176
     1
290
     0
176
     1
 90
       50
176
     1
 90
       50
176
     1
 90
       50
176
     1
290
     0
176
     1
 90
       50
176
     1
 62
   256
176
     0
 40
1.0
176
     0
 90
        2
176
     1
  1
strokes_ogs.tif
176
     1
290
     0
176
     1
 40
1.0
176
     1
 40
1.0
176
     1
  0
VISUALSTYLE
  5
3D
102
{ACAD_REACTORS
330
2A
102
}
330
2A
100
AcDbVisualStyle
  2
EdgeColorOff
 70
    22
177
     3
291
     1
 70
    58
 90
        2
176
     0
 90
        2
176
     0
 90
        0
176
     0
 90
        0
176
     0
 40
0.6
176
     0
 40
30.0
176
     0
 62
     7
420
 16777215
176
     0
 90
        1
176
     0
 90
        4
176
     0
 62
     7
176
     0
 62
   257
176
     0
 90
        1
176
     0
 90
        1
176
     0
 40
1.0
176
     0
 90
        8
176
     2
 62
     7
176
     0
 40
1.0
176
     0
 90
        1
176
     0
 90
        6
176
     0
 90
        2
176
     0
 62
     7
176
     0
 90
        5
176
     0
 90
        0
176
     0
 90
        0
176
     0
290
     0
176
     0
 90
        1
176
     0
 40
0.0
176
     0
 90
        0
176
     0
290
     0
176
     0
290
     1
176
     0
290
     1
176
     0
290
     0
176
     0
290
     0
176
     0
290
     0
176
     0
290
     0
176
     0
290
     0
176
     0
290
     0
176
     0
 90
       50
176
     0
 40
0.0
176
     0
 40
1.0
176
     0
 90
        0
176
     0
 62
    18
420
        0
176
     0
 90
       50
176
     0
 90
        3
176
     0
 62
     5
420
      255
176
     0
290
     0
176
     0
 90
       50
176
     0
 90
       50
176
     0
 90
       50
176
     0
290
     0
176
     0
 90
       50
176
     0
 62
   256
176
     0
 40
1.0
176
     0
 90
        2
176
     0
  1
strokes_ogs.tif
176
     0
290
     0
176
     0
 40
1.0
176
     0
 40
1.0
176
     0
  0
VISUALSTYLE
  5
39
102
{ACAD_REACTORS
330
2A
102
}
330
2A
100
AcDbVisualStyle
  2
Facepattern
 70
    15
177
     3
291
     1
 70
    58
 90
        2
176
     1
 90
        2
176
     1
 90
        0
176
     1
 90
        0
176
     1
 40
0.6
176
     1
 40
30.0
176
     1
 62
     7
420
 16777215
176
     1
 90
        1
176
     1
 90
        4
176
     1
 62
     7
176
     1
 62
   257
176
     1
 90
        1
176
     1
 90
        1
176
     1
 40
1.0
176
     1
 90
        8
176
     1
 62
     7
176
     1
 40
1.0
176
     1
 90
        1
176
     1
 90
        6
176
     1
 90
        2
176
     1
 62
     7
176
     1
 90
        5
176
     1
 90
        0
176
     1
 90
        0
176
     1
290
     0
176
     1
 90
        1
176
     1
 40
0.0
176
     1
 90
        0
176
     1
290
     0
176
     1
290
     1
176
     1
290
     1
176
     1
290
     0
176
     1
290
     0
176
     1
290
     0
176
     1
290
     0
176
     1
290
     0
176
     1
290
     0
176
     1
 90
       50
176
     1
 40
0.0
176
     1
 40
1.0
176
     1
 90
        0
176
     1
 62
    18
420
        0
176
     1
 90
       50
176
     1
 90
        3
176
     1
 62
     5
420
      255
176
     1
290
     0
176
     1
 90
       50
176
     1
 90
       50
176
     1
 90
       50
176
     1
290
     0
176
     1
 90
       50
176
     1
 62
   256
176
     0
 40
1.0
176
     0
 90
        2
176
     1
  1
strokes_ogs.tif
176
     1
290
     0
176
     1
 40
1.0
176
     1
 40
1.0
176
     1
  0
VISUALSTYLE
  5
2B
102
{ACAD_REACTORS
330
2A
102
}
330
2A
100
AcDbVisualStyle
  2
Flat
 70
     0
177
     3
291
     1
 70
    58
 90
        2
176
     1
 90
        1
176
     1
 90
        1
176
     1
 90
        2
176
     1
 40
0.6
176
     1
 40
30.0
176
     1
 62
     7
420
 16777215
176
     1
 90
        0
176
     1
 90
        0
176
     1
 62
     7
176
     1
 62
   257
176
     1
 90
        1
176
     1
 90
        1
176
     1
 40
1.0
176
     1
 90
        8
176
     1
 62
     7
176
     1
 40
1.0
176
     1
 90
        1
176
     1
 90
        6
176
     1
 90
        2
176
     1
 62
     7
176
     1
 90
        5
176
     1
 90
        0
176
     1
 90
        0
176
     1
290
     0
176
     1
 90
       13
176
     1
 40
0.0
176
     1
 90
        0
176
     1
290
     0
176
     1
290
     1
176
     1
290
     1
176
     1
290
     0
176
     1
290
     0
176
     1
290
     0
176
     1
290
     0
176
     1
290
     0
176
     1
290
     0
176
     1
 90
       50
176
     1
 40
0.0
176
     1
 40
1.0
176
     1
 90
        0
176
     1
 62
    18
420
        0
176
     1
 90
       50
176
     1
 90
        3
176
     1
 62
     5
420
      255
176
     1
290
     0
176
     1
 90
       50
176
     1
 90
       50
176
     1
 90
       50
176
     1
290
     0
176
     1
 90
       50
176
     1
 62
   256
176
     0
 40
1.0
176
     0
 90
        2
176
     1
  1
strokes_ogs.tif
176
     1
290
     0
176
     1
 40
1.0
176
     1
 40
1.0
176
     1
  0
VISUALSTYLE
  5
2C
102
{ACAD_REACTORS
330
2A
102
}
330
2A
100
AcDbVisualStyle
  2
FlatWithEdges
 70
     1
177
     3
291
     1
 70
    58
 90
        2
176
     1
 90
        1
176
     1
 90
        1
176
     1
 90
        2
176
     1
 40
0.6
176
     1
 40
30.0
176
     1
 62
     7
420
 16777215
176
     1
 90
        1
176
     1
 90
        0
176
     1
 62
     7
176
     1
 62
   257
176
     1
 90
        1
176
     1
 90
        1
176
     1
 40
1.0
176
     1
 90
        0
176
     1
 62
   257
176
     1
 40
1.0
176
     1
 90
        1
176
     1
 90
        6
176
     1
 90
        2
176
     1
 62
     7
176
     1
 90
        5
176
     1
 90
        0
176
     1
 90
        0
176
     1
290
     0
176
     1
 90
       13
176
     1
 40
0.0
176
     1
 90
        0
176
     1
290
     0
176
     1
290
     1
176
     1
290
     1
176
     1
290
     0
176
     1
290
     0
176
     1
290
     0
176
     1
290
     0
176
     1
290
     0
176
     1
290
     0
176
     1
 90
       50
176
     1
 40
0.0
176
     1
 40
1.0
176
     1
 90
        0
176
     1
 62
    18
420
        0
176
     1
 90
       50
176
     1
 90
        3
176
     1
 62
     5
420
      255
176
     1
290
     0
176
     1
 90
       50
176
     1
 90
       50
176
     1
 90
       50
176
     1
290
     0
176
     1
 90
       50
176
     1
 62
   256
176
     0
 40
1.0
176
     0
 90
        2
176
     1
  1
strokes_ogs.tif
176
     1
290
     0
176
     1
 40
1.0
176
     1
 40
1.0
176
     1
  0
VISUALSTYLE
  5
2D
102
{ACAD_REACTORS
330
2A
102
}
330
2A
100
AcDbVisualStyle
  2
Gouraud
 70
     2
177
     3
291
     1
 70
    58
 90
        2
176
     1
 90
        2
176
     1
 90
        1
176
     1
 90
        2
176
     1
 40
0.6
176
     1
 40
30.0
176
     1
 62
     7
420
 16777215
176
     1
 90
        0
176
     1
 90
        0
176
     1
 62
     7
176
     1
 62
   257
176
     1
 90
        1
176
     1
 90
        1
176
     1
 40
1.0
176
     1
 90
        0
176
     1
 62
     7
176
     1
 40
1.0
176
     1
 90
        1
176
     1
 90
        6
176
     1
 90
        2
176
     1
 62
     7
176
     1
 90
        5
176
     1
 90
        0
176
     1
 90
        0
176
     1
290
     0
176
     1
 90
       13
176
     1
 40
0.0
176
     1
 90
        0
176
     1
290
     0
176
     1
290
     1
176
     1
290
     1
176
     1
290
     0
176
     1
290
     0
176
     1
290
     0
176
     1
290
     0
176
     1
290
     0
176
     1
290
     0
176
     1
 90
       50
176
     1
 40
0.0
176
     1
 40
1.0
176
     1
 90
        0
176
     1
 62
    18
420
        0
176
     1
 90
       50
176
     1
 90
        3
176
     1
 62
     5
420
      255
176
     1
290
     0
176
     1
 90
       50
176
     1
 90
       50
176
     1
 90
       50
176
     1
290
     0
176
     1
 90
       50
176
     1
 62
   256
176
     0
 40
1.0
176
     0
 90
        2
176
     1
  1
strokes_ogs.tif
176
     1
290
     0
176
     1
 40
1.0
176
     1
 40
1.0
176
     1
  0
VISUALSTYLE
  5
2E
102
{ACAD_REACTORS
330
2A
102
}
330
2A
100
AcDbVisualStyle
  2
GouraudWithEdges
 70
     3
177
     3
291
     1
 70
    58
 90
        2
176
     1
 90
        2
176
     1
 90
        1
176
     1
 90
        2
176
     1
 40
0.6
176
     1
 40
30.0
176
     1
 62
     7
420
 16777215
176
     1
 90
        1
176
     1
 90
        0
176
     1
 62
     7
176
     1
 62
   257
176
     1
 90
        1
176
     1
 90
        1
176
     1
 40
1.0
176
     1
 90
        0
176
     1
 62
   257
176
     1
 40
1.0
176
     1
 90
        1
176
     1
 90
        6
176
     1
 90
        2
176
     1
 62
     7
176
     1
 90
        5
176
     1
 90
        0
176
     1
 90
        0
176
     1
290
     0
176
     1
 90
       13
176
     1
 40
0.0
176
     1
 90
        0
176
     1
290
     0
176
     1
290
     1
176
     1
290
     1
176
     1
290
     0
176
     1
290
     0
176
     1
290
     0
176
     1
290
     0
176
     1
290
     0
176
     1
290
     0
176
     1
 90
       50
176
     1
 40
0.0
176
     1
 40
1.0
176
     1
 90
        0
176
     1
 62
    18
420
        0
176
     1
 90
       50
176
     1
 90
        3
176
     1
 62
     5
420
      255
176
     1
290
     0
176
     1
 90
       50
176
     1
 90
       50
176
     1
 90
       50
176
     1
290
     0
176
     1
 90
       50
176
     1
 62
   256
176
     0
 40
1.0
176
     0
 90
        2
176
     1
  1
strokes_ogs.tif
176
     1
290
     0
176
     1
 40
1.0
176
     1
 40
1.0
176
     1
  0
VISUALSTYLE
  5
31
102
{ACAD_REACTORS
330
2A
102
}
330
2A
100
AcDbVisualStyle
  2
Hidden
 70
     6
177
     3
291
     0
 70
    58
 90
        1
176
     1
 90
        2
176
     1
 90
        2
176
     1
 90
        0
176
     1
 40
0.6
176
     1
 40
30.0
176
     1
 62
     7
420
 16777215
176
     1
 90
        2
176
     1
 90
        2
176
     1
 62
     7
176
     1
 62
   257
176
     1
 90
        2
176
     1
 90
        1
176
     1
 40
40.0
176
     1
 90
        0
176
     1
 62
   257
176
     1
 40
1.0
176
     1
 90
        1
176
     1
 90
        6
176
     1
 90
        2
176
     1
 62
     7
176
     1
 90
        3
176
     1
 90
        0
176
     1
 90
        0
176
     1
290
     0
176
     1
 90
        1
176
     1
 40
0.0
176
     1
 90
        0
176
     1
290
     0
176
     1
290
     1
176
     1
290
     1
176
     1
290
     0
176
     1
290
     0
176
     1
290
     0
176
     1
290
     0
176
     1
290
     0
176
     1
290
     0
176
     1
 90
       50
176
     1
 40
0.0
176
     1
 40
1.0
176
     1
 90
        0
176
     1
 62
    18
420
        0
176
     1
 90
       50
176
     1
 90
        3
176
     1
 62
     5
420
      255
176
     1
290
     0
176
     1
 90
       50
176
     1
 90
       50
176
     1
 90
       50
176
     1
290
     0
176
     1
 90
       50
176
     1
 62
   256
176
     0
 40
1.0
176
     0
 90
        2
176
     1
  1
strokes_ogs.tif
176
     1
290
     0
176
     1
 40
1.0
176
     1
 40
1.0
176
     1
  0
VISUALSTYLE
  5
3B
102
{ACAD_REACTORS
330
2A
102
}
330
2A
100
AcDbVisualStyle
  2
JitterOff
 70
    20
177
     3
291
     1
 70
    58
 90
        2
176
     0
 90
        2
176
     0
 90
        0
176
     0
 90
        0
176
     0
 40
0.6
176
     0
 40
30.0
176
     0
 62
     7
420
 16777215
176
     0
 90
        1
176
     0
 90
        4
176
     0
 62
     7
176
     0
 62
   257
176
     0
 90
        1
176
     0
 90
        1
176
     0
 40
1.0
176
     0
 90
       10
176
     2
 62
     7
176
     0
 40
1.0
176
     0
 90
        1
176
     0
 90
        6
176
     0
 90
        2
176
     0
 62
     7
176
     0
 90
        5
176
     0
 90
        0
176
     0
 90
        0
176
     0
290
     0
176
     0
 90
        1
176
     0
 40
0.0
176
     0
 90
        0
176
     0
290
     0
176
     0
290
     1
176
     0
290
     1
176
     0
290
     0
176
     0
290
     0
176
     0
290
     0
176
     0
290
     0
176
     0
290
     0
176
     0
290
     0
176
     0
 90
       50
176
     0
 40
0.0
176
     0
 40
1.0
176
     0
 90
        0
176
     0
 62
    18
420
        0
176
     0
 90
       50
176
     0
 90
        3
176
     0
 62
     5
420
      255
176
     0
290
     0
176
     0
 90
       50
176
     0
 90
       50
176
     0
 90
       50
176
     0
290
     0
176
     0
 90
       50
176
     0
 62
   256
176
     0
 40
1.0
176
     0
 90
        2
176
     0
  1
strokes_ogs.tif
176
     0
290
     0
176
     0
 40
1.0
176
     0
 40
1.0
176
     0
  0
VISUALSTYLE
  5
38
102
{ACAD_REACTORS
330
2A
102
}
330
2A
100
AcDbVisualStyle
  2
Linepattern
 70
    14
177
     3
291
     1
 70
    58
 90
        2
176
     1
 90
        2
176
     1
 90
        0
176
     1
 90
        0
176
     1
 40
0.6
176
     1
 40
30.0
176
     1
 62
     7
420
 16777215
176
     1
 90
        1
176
     1
 90
        4
176
     1
 62
     7
176
     1
 62
   257
176
     1
 90
        7
176
     1
 90
        7
176
     1
 40
1.0
176
     1
 90
        8
176
     1
 62
     7
176
     1
 40
1.0
176
     1
 90
        1
176
     1
 90
        6
176
     1
 90
        2
176
     1
 62
     7
176
     1
 90
        5
176
     1
 90
        0
176
     1
 90
        0
176
     1
290
     0
176
     1
 90
        1
176
     1
 40
0.0
176
     1
 90
        0
176
     1
290
     0
176
     1
290
     1
176
     1
290
     1
176
     1
290
     0
176
     1
290
     0
176
     1
290
     0
176
     1
290
     0
176
     1
290
     0
176
     1
290
     0
176
     1
 90
       50
176
     1
 40
0.0
176
     1
 40
1.0
176
     1
 90
        0
176
     1
 62
    18
420
        0
176
     1
 90
       50
176
     1
 90
        3
176
     1
 62
     5
420
      255
176
     1
290
     0
176
     1
 90
       50
176
     1
 90
       50
176
     1
 90
       50
176
     1
290
     0
176
     1
 90
       50
176
     1
 62
   256
176
     0
 40
1.0
176
     0
 90
        2
176
     1
  1
strokes_ogs.tif
176
     1
290
     0
176
     1
 40
1.0
176
     1
 40
1.0
176
     1
  0
VISUALSTYLE
  5
3C
102
{ACAD_REACTORS
330
2A
102
}
330
2A
100
AcDbVisualStyle
  2
OverhangOff
 70
    21
177
     3
291
     1
 70
    58
 90
        2
176
     0
 90
        2
176
     0
 90
        0
176
     0
 90
        0
176
     0
 40
0.6
176
     0
 40
30.0
176
     0
 62
     7
420
 16777215
176
     0
 90
        1
176
     0
 90
        4
176
     0
 62
     7
176
     0
 62
   257
176
     0
 90
        1
176
     0
 90
        1
176
     0
 40
1.0
176
     0
 90
        9
176
     2
 62
     7
176
     0
 40
1.0
176
     0
 90
        1
176
     0
 90
        6
176
     0
 90
        2
176
     0
 62
     7
176
     0
 90
        5
176
     0
 90
        0
176
     0
 90
        0
176
     0
290
     0
176
     0
 90
        1
176
     0
 40
0.0
176
     0
 90
        0
176
     0
290
     0
176
     0
290
     1
176
     0
290
     1
176
     0
290
     0
176
     0
290
     0
176
     0
290
     0
176
     0
290
     0
176
     0
290
     0
176
     0
290
     0
176
     0
 90
       50
176
     0
 40
0.0
176
     0
 40
1.0
176
     0
 90
        0
176
     0
 62
    18
420
        0
176
     0
 90
       50
176
     0
 90
        3
176
     0
 62
     5
420
      255
176
     0
290
     0
176
     0
 90
       50
176
     0
 90
       50
176
     0
 90
       50
176
     0
290
     0
176
     0
 90
       50
176
     0
 62
   256
176
     0
 40
1.0
176
     0
 90
        2
176
     0
  1
strokes_ogs.tif
176
     0
290
     0
176
     0
 40
1.0
176
     0
 40
1.0
176
     0
  0
VISUALSTYLE
  5
33
102
{ACAD_REACTORS
330
2A
102
}
330
2A
100
AcDbVisualStyle
  2
Realistic
 70
     8
177
     3
291
     0
 70
    58
 90
        2
176
     1
 90
        3
176
     1
 90
        0
176
     1
 90
        2
176
     1
 40
0.6
176
     1
 40
30.0
176
     1
 62
     7
420
 16777215
176
     1
 90
        0
176
     1
 90
        0
176
     1
 62
     7
176
     1
 62
   257
176
     1
 90
        1
176
     1
 90
        1
176
     1
 40
1.0
176
     1
 90
        8
176
     1
 62
   257
176
     1
 40
1.0
176
     1
 90
        1
176
     1
 90
        6
176
     1
 90
        2
176
     1
 62
     7
176
     1
 90
        3
176
     1
 90
        0
176
     1
 90
        0
176
     1
290
     0
176
     1
 90
       13
176
     1
 40
0.0
176
     1
 90
        0
176
     1
290
     0
176
     1
290
     1
176
     1
290
     1
176
     1
290
     0
176
     1
290
     0
176
     1
290
     0
176
     1
290
     0
176
     1
290
     0
176
     1
290
     0
176
     1
 90
       50
176
     1
 40
0.0
176
     1
 40
1.0
176
     1
 90
        0
176
     1
 62
    18
420
        0
176
     1
 90
       50
176
     1
 90
        3
176
     1
 62
     5
420
      255
176
     1
290
     0
176
     1
 90
       50
176
     1
 90
       50
176
     1
 90
       50
176
     1
290
     0
176
     1
 90
       50
176
     1
 62
   256
176
     0
 40
1.0
176
     0
 90
        2
176
     1
  1
strokes_ogs.tif
176
     1
290
     0
176
     1
 40
1.0
176
     1
 40
1.0
176
     1
  0
VISUALSTYLE
  5
42
102
{ACAD_REACTORS
330
2A
102
}
330
2A
100
AcDbVisualStyle
  2
Shaded
 70
    27
177
     3
291
     0
 70
    58
 90
        2
176
     1
 90
        2
176
     1
 90
        1
176
     1
 90
        2
176
     1
 40
0.6
176
     1
 40
30.0
176
     1
 62
     7
420
 16777215
176
     1
 90
        0
176
     1
 90
        4
176
     1
 62
     7
176
     1
 62
   257
176
     1
 90
        1
176
     1
 90
        1
176
     1
 40
1.0
176
     1
 90
        8
176
     1
 62
   257
176
     1
 40
1.0
176
     1
 90
        1
176
     1
 90
        6
176
     1
 90
        2
176
     1
 62
     8
420
  7895160
176
     1
 90
        3
176
     1
 90
        0
176
     1
 90
        0
176
     1
290
     0
176
     1
 90
        5
176
     1
 40
0.0
176
     1
 90
        0
176
     1
290
     0
176
     1
290
     1
176
     1
290
     1
176
     1
290
     0
176
     1
290
     0
176
     1
290
     0
176
     1
290
     0
176
     1
290
     0
176
     1
290
     0
176
     1
 90
       50
176
     1
 40
0.0
176
     1
 40
1.0
176
     1
 90
        0
176
     1
 62
    18
420
        0
176
     1
 90
       50
176
     1
 90
        3
176
     1
 62
     5
420
      255
176
     1
290
     0
176
     1
 90
       50
176
     1
 90
       50
176
     1
 90
       50
176
     1
290
     0
176
     1
 90
       50
176
     1
 62
   256
176
     0
 40
1.0
176
     0
 90
        2
176
     1
  1
strokes_ogs.tif
176
     1
290
     0
176
     1
 40
1.0
176
     1
 40
1.0
176
     1
  0
VISUALSTYLE
  5
41
102
{ACAD_REACTORS
330
2A
102
}
330
2A
100
AcDbVisualStyle
  2
Shaded with edges
 70
    26
177
     3
291
     0
 70
    58
 90
        2
176
     1
 90
        2
176
     1
 90
        1
176
     1
 90
        2
176
     1
 40
0.6
176
     1
 40
30.0
176
     1
 62
     7
420
 16777215
176
     1
 90
        1
176
     1
 90
       10
176
     1
 62
     7
176
     1
 62
   257
176
     1
 90
        2
176
     1
 90
        1
176
     1
 40
1.0
176
     1
 90
        8
176
     1
 62
   257
176
     1
 40
1.0
176
     1
 90
        1
176
     1
 90
        6
176
     1
 90
        2
176
     1
 62
     7
176
     1
 90
        3
176
     1
 90
        0
176
     1
 90
        0
176
     1
290
     0
176
     1
 90
        5
176
     1
 40
0.0
176
     1
 90
        0
176
     1
290
     0
176
     1
290
     1
176
     1
290
     1
176
     1
290
     0
176
     1
290
     0
176
     1
290
     0
176
     1
290
     0
176
     1
290
     0
176
     1
290
     0
176
     1
 90
       50
176
     1
 40
0.0
176
     1
 40
1.0
176
     1
 90
        0
176
     1
 62
    18
420
        0
176
     1
 90
       50
176
     1
 90
        3
176
     1
 62
     5
420
      255
176
     1
290
     0
176
     1
 90
       50
176
     1
 90
       50
176
     1
 90
       50
176
     1
290
     0
176
     1
 90
       50
176
     1
 62
   256
176
     0
 40
1.0
176
     0
 90
        2
176
     1
  1
strokes_ogs.tif
176
     1
290
     0
176
     1
 40
1.0
176
     1
 40
1.0
176
     1
  0
VISUALSTYLE
  5
3E
102
{ACAD_REACTORS
330
2A
102
}
330
2A
100
AcDbVisualStyle
  2
Shades of Gray
 70
    23
177
     3
291
     0
 70
    58
 90
        2
176
     1
 90
        2
176
     1
 90
        3
176
     1
 90
        0
176
     1
 40
0.6
176
     1
 40
30.0
176
     1
 62
     7
420
 16777215
176
     1
 90
        2
176
     1
 90
        2
176
     1
 62
     7
176
     1
 62
     7
176
     1
 90
        1
176
     1
 90
        1
176
     1
 40
40.0
176
     1
 90
        8
176
     1
 62
     7
176
     1
 40
1.0
176
     1
 90
        1
176
     1
 90
        6
176
     1
 90
        2
176
     1
 62
     7
176
     1
 90
        3
176
     1
 90
        0
176
     1
 90
        0
176
     1
290
     0
176
     1
 90
        1
176
     1
 40
0.0
176
     1
 90
        0
176
     1
290
     0
176
     1
290
     1
176
     1
290
     1
176
     1
290
     0
176
     1
290
     0
176
     1
290
     0
176
     1
290
     0
176
     1
290
     0
176
     1
290
     0
176
     1
 90
       50
176
     1
 40
0.0
176
     1
 40
1.0
176
     1
 90
        0
176
     1
 62
    18
420
        0
176
     1
 90
       50
176
     1
 90
        3
176
     1
 62
     5
420
      255
176
     1
290
     0
176
     1
 90
       50
176
     1
 90
       50
176
     1
 90
       50
176
     1
290
     0
176
     1
 90
       50
176
     1
 62
   256
176
     0
 40
1.0
176
     0
 90
        2
176
     1
  1
strokes_ogs.tif
176
     1
290
     0
176
     1
 40
1.0
176
     1
 40
1.0
176
     1
  0
VISUALSTYLE
  5
3F
102
{ACAD_REACTORS
330
2A
102
}
330
2A
100
AcDbVisualStyle
  2
Sketchy
 70
    24
177
     3
291
     0
 70
    58
 90
        1
176
     1
 90
        2
176
     1
 90
        2
176
     1
 90
        0
176
     1
 40
0.6
176
     1
 40
30.0
176
     1
 62
     7
420
 16777215
176
     1
 90
        2
176
     1
 90
        2
176
     1
 62
     7
176
     1
 62
     7
176
     1
 90
        1
176
     1
 90
        1
176
     1
 40
40.0
176
     1
 90
       11
176
     1
 62
     7
176
     1
 40
1.0
176
     1
 90
        1
176
     1
 90
        6
176
     1
 90
        2
176
     1
 62
     7
176
     1
 90
        6
176
     1
 90
        0
176
     1
 90
        0
176
     1
290
     0
176
     1
 90
        1
176
     1
 40
0.0
176
     1
 90
        0
176
     1
290
     0
176
     1
290
     1
176
     1
290
     1
176
     1
290
     0
176
     1
290
     0
176
     1
290
     0
176
     1
290
     0
176
     1
290
     0
176
     1
290
     0
176
     1
 90
       50
176
     1
 40
0.0
176
     1
 40
1.0
176
     1
 90
        0
176
     1
 62
    18
420
        0
176
     1
 90
       50
176
     1
 90
        3
176
     1
 62
     5
420
      255
176
     1
290
     0
176
     1
 90
       50
176
     1
 90
       50
176
     1
 90
       50
176
     1
290
     0
176
     1
 90
       50
176
     1
 62
   256
176
     0
 40
1.0
176
     0
 90
        2
176
     1
  1
strokes_ogs.tif
176
     1
290
     0
176
     1
 40
1.0
176
     1
 40
1.0
176
     1
  0
VISUALSTYLE
  5
37
102
{ACAD_REACTORS
330
2A
102
}
330
2A
100
AcDbVisualStyle
  2
Thicken
 70
    13
177
     3
291
     1
 70
    58
 90
        2
176
     1
 90
        2
176
     1
 90
        0
176
     1
 90
        0
176
     1
 40
0.6
176
     1
 40
30.0
176
     1
 62
     7
420
 16777215
176
     1
 90
        1
176
     1
 90
        4
176
     1
 62
     7
176
     1
 62
   257
176
     1
 90
        1
176
     1
 90
        1
176
     1
 40
1.0
176
     1
 90
       12
176
     1
 62
     7
176
     1
 40
1.0
176
     1
 90
        1
176
     1
 90
        6
176
     1
 90
        2
176
     1
 62
     7
176
     1
 90
        5
176
     1
 90
        0
176
     1
 90
        0
176
     1
290
     0
176
     1
 90
        1
176
     1
 40
0.0
176
     1
 90
        0
176
     1
290
     0
176
     1
290
     1
176
     1
290
     1
176
     1
290
     0
176
     1
290
     0
176
     1
290
     0
176
     1
290
     0
176
     1
290
     0
176
     1
290
     0
176
     1
 90
       50
176
     1
 40
0.0
176
     1
 40
1.0
176
     1
 90
        0
176
     1
 62
    18
420
        0
176
     1
 90
       50
176
     1
 90
        3
176
     1
 62
     5
420
      255
176
     1
290
     0
176
     1
 90
       50
176
     1
 90
       50
176
     1
 90
       50
176
     1
290
     0
176
     1
 90
       50
176
     1
 62
   256
176
     0
 40
1.0
176
     0
 90
        2
176
     1
  1
strokes_ogs.tif
176
     1
290
     0
176
     1
 40
1.0
176
     1
 40
1.0
176
     1
  0
VISUALSTYLE
  5
30
102
{ACAD_REACTORS
330
2A
102
}
330
2A
100
AcDbVisualStyle
  2
Wireframe
 70
     5
177
     3
291
     0
 70
    58
 90
        0
176
     1
 90
        2
176
     1
 90
        0
176
     1
 90
        0
176
     1
 40
0.6
176
     1
 40
30.0
176
     1
 62
     7
420
 16777215
176
     1
 90
        1
176
     1
 90
        4
176
     1
 62
     7
176
     1
 62
   257
176
     1
 90
        1
176
     1
 90
        1
176
     1
 40
1.0
176
     1
 90
        0
176
     1
 62
   257
176
     1
 40
1.0
176
     1
 90
        1
176
     1
 90
        6
176
     1
 90
        2
176
     1
 62
     7
176
     1
 90
        3
176
     1
 90
        0
176
     1
 90
        0
176
     1
290
     0
176
     1
 90
        1
176
     1
 40
0.0
176
     1
 90
        0
176
     1
290
     0
176
     1
290
     1
176
     1
290
     1
176
     1
290
     0
176
     1
290
     0
176
     1
290
     0
176
     1
290
     0
176
     1
290
     0
176
     1
290
     0
176
     1
 90
       50
176
     1
 40
0.0
176
     1
 40
1.0
176
     1
 90
        0
176
     1
 62
    18
420
        0
176
     1
 90
       50
176
     1
 90
        3
176
     1
 62
     5
420
      255
176
     1
290
     0
176
     1
 90
       50
176
     1
 90
       50
176
     1
 90
       50
176
     1
290
     0
176
     1
 90
       50
176
     1
 62
   256
176
     0
 40
1.0
176
     0
 90
        2
176
     1
  1
strokes_ogs.tif
176
     1
290
     0
176
     1
 40
1.0
176
     1
 40
1.0
176
     1
  0
VISUALSTYLE
  5
40
102
{ACAD_REACTORS
330
2A
102
}
330
2A
100
AcDbVisualStyle
  2
X-Ray
 70
    25
177
     3
291
     0
 70
    58
 90
        2
176
     1
 90
        2
176
     1
 90
        1
176
     1
 90
        1
176
     1
 40
0.5
176
     1
 40
30.0
176
     1
 62
     7
420
 16777215
176
     1
 90
        1
176
     1
 90
        0
176
     1
 62
     7
176
     1
 62
   257
176
     1
 90
        1
176
     1
 90
        1
176
     1
 40
1.0
176
     1
 90
        8
176
     1
 62
     7
176
     1
 40
1.0
176
     1
 90
        1
176
     1
 90
        6
176
     1
 90
        2
176
     1
 62
     7
176
     1
 90
        3
176
     1
 90
        0
176
     1
 90
        0
176
     1
290
     0
176
     1
 90
       13
176
     1
 40
0.0
176
     1
 90
        0
176
     1
290
     0
176
     1
290
     1
176
     1
290
     1
176
     1
290
     0
176
     1
290
     0
176
     1
290
     0
176
     1
290
     0
176
     1
290
     0
176
     1
290
     0
176
     1
 90
       50
176
     1
 40
0.0
176
     1
 40
1.0
176
     1
 90
        0
176
     1
 62
    18
420
        0
176
     1
 90
       50
176
     1
 90
        3
176
     1
 62
     5
420
      255
176
     1
290
     0
176
     1
 90
       50
176
     1
 90
       50
176
     1
 90
       50
176
     1
290
     0
176
     1
 90
       50
176
     1
 62
   256
176
     0
 40
1.0
176
     0
 90
        2
176
     1
  1
strokes_ogs.tif
176
     1
290
     0
176
     1
 40
1.0
176
     1
 40
1.0
176
     1
  0
DICTIONARYVAR
  5
15D
102
{ACAD_REACTORS
330
15C
102
}
330
15C
100
DictionaryVariables
280
     0
  1
1:1
  0
DICTIONARYVAR
  5
165
102
{ACAD_REACTORS
330
15C
102
}
330
15C
100
DictionaryVariables
280
     0
  1
3.500000
  0
DICTIONARYVAR
  5
166
102
{ACAD_REACTORS
330
15C
102
}
330
15C
100
DictionaryVariables
280
     0
  1
acadiso.lin
  0
DICTIONARYVAR
  5
162
102
{ACAD_REACTORS
330
15C
102
}
330
15C
100
DictionaryVariables
280
     0
  1
Standard
  0
DICTIONARYVAR
  5
161
102
{ACAD_REACTORS
330
15C
102
}
330
15C
100
DictionaryVariables
280
     0
  1
Standard
  0
DICTIONARY
  5
15E
330
6A
100
AcDbDictionary
280
     1
281
     1
  3
ACAD_ROUNDTRIP_2008_TABLESTYLE_CELLSTYLEMAP
360
15F
  0
CELLSTYLEMAP
  5
15F
102
{ACAD_REACTORS
330
15E
102
}
330
15E
100
AcDbCellStyleMap
 90
        3
300
CELLSTYLE
  1
TABLEFORMAT_BEGIN
 90
        5
170
     1
 91
        0
 92
    32768
 62
   257
 93
        1
300
CONTENTFORMAT
  1
CONTENTFORMAT_BEGIN
 90
        0
 91
        0
 92
        4
 93
        0
300

 40
0.0
140
1.0
 94
        5
 62
     0
340
11
144
6.0
309
CONTENTFORMAT_END
171
     1
301
MARGIN
  1
CELLMARGIN_BEGIN
 40
1.5
 40
1.5
 40
1.5
 40
1.5
 40
1.5
 40
1.5
309
CELLMARGIN_END
 94
        6
 95
        1
302
GRIDFORMAT
  1
GRIDFORMAT_BEGIN
 90
        0
 91
        1
 62
     0
 92
       -2
340
14
 93
        0
 40
0.045
309
GRIDFORMAT_END
 95
        2
302
GRIDFORMAT
  1
GRIDFORMAT_BEGIN
 90
        0
 91
        1
 62
     0
 92
       -2
340
14
 93
        0
 40
0.045
309
GRIDFORMAT_END
 95
        4
302
GRIDFORMAT
  1
GRIDFORMAT_BEGIN
 90
        0
 91
        1
 62
     0
 92
       -2
340
14
 93
        0
 40
0.045
309
GRIDFORMAT_END
 95
        8
302
GRIDFORMAT
  1
GRIDFORMAT_BEGIN
 90
        0
 91
        1
 62
     0
 92
       -2
340
14
 93
        0
 40
0.045
309
GRIDFORMAT_END
 95
       16
302
GRIDFORMAT
  1
GRIDFORMAT_BEGIN
 90
        0
 91
        1
 62
     0
 92
       -2
340
14
 93
        0
 40
0.045
309
GRIDFORMAT_END
 95
       32
302
GRIDFORMAT
  1
GRIDFORMAT_BEGIN
 90
        0
 91
        1
 62
     0
 92
       -2
340
14
 93
        0
 40
0.045
309
GRIDFORMAT_END
309
TABLEFORMAT_END
  1
CELLSTYLE_BEGIN
 90
        1
 91
        1
300
_TITLE
309
CELLSTYLE_END
300
CELLSTYLE
  1
TABLEFORMAT_BEGIN
 90
        5
170
     1
 91
        0
 92
        0
 62
   257
 93
        1
300
CONTENTFORMAT
  1
CONTENTFORMAT_BEGIN
 90
        0
 91
        0
 92
        4
 93
        0
300

 40
0.0
140
1.0
 94
        5
 62
     0
340
11
144
4.5
309
CONTENTFORMAT_END
171
     1
301
MARGIN
  1
CELLMARGIN_BEGIN
 40
1.5
 40
1.5
 40
1.5
 40
1.5
 40
1.5
 40
1.5
309
CELLMARGIN_END
 94
        6
 95
        1
302
GRIDFORMAT
  1
GRIDFORMAT_BEGIN
 90
        0
 91
        1
 62
     0
 92
       -2
340
14
 93
        0
 40
0.045
309
GRIDFORMAT_END
 95
        2
302
GRIDFORMAT
  1
GRIDFORMAT_BEGIN
 90
        0
 91
        1
 62
     0
 92
       -2
340
14
 93
        0
 40
0.045
309
GRIDFORMAT_END
 95
        4
302
GRIDFORMAT
  1
GRIDFORMAT_BEGIN
 90
        0
 91
        1
 62
     0
 92
       -2
340
14
 93
        0
 40
0.045
309
GRIDFORMAT_END
 95
        8
302
GRIDFORMAT
  1
GRIDFORMAT_BEGIN
 90
        0
 91
        1
 62
     0
 92
       -2
340
14
 93
        0
 40
0.045
309
GRIDFORMAT_END
 95
       16
302
GRIDFORMAT
  1
GRIDFORMAT_BEGIN
 90
        0
 91
        1
 62
     0
 92
       -2
340
14
 93
        0
 40
0.045
309
GRIDFORMAT_END
 95
       32
302
GRIDFORMAT
  1
GRIDFORMAT_BEGIN
 90
        0
 91
        1
 62
     0
 92
       -2
340
14
 93
        0
 40
0.045
309
GRIDFORMAT_END
309
TABLEFORMAT_END
  1
CELLSTYLE_BEGIN
 90
        2
 91
        1
300
_HEADER
309
CELLSTYLE_END
300
CELLSTYLE
  1
TABLEFORMAT_BEGIN
 90
        5
170
     1
 91
        0
 92
        0
 62
   257
 93
        1
300
CONTENTFORMAT
  1
CONTENTFORMAT_BEGIN
 90
        0
 91
        0
 92
        4
 93
        0
300

 40
0.0
140
1.0
 94
        2
 62
     0
340
11
144
4.5
309
CONTENTFORMAT_END
171
     1
301
MARGIN
  1
CELLMARGIN_BEGIN
 40
1.5
 40
1.5
 40
1.5
 40
1.5
 40
1.5
 40
1.5
309
CELLMARGIN_END
 94
        6
 95
        1
302
GRIDFORMAT
  1
GRIDFORMAT_BEGIN
 90
        0
 91
        1
 62
     0
 92
       -2
340
14
 93
        0
 40
0.045
309
GRIDFORMAT_END
 95
        2
302
GRIDFORMAT
  1
GRIDFORMAT_BEGIN
 90
        0
 91
        1
 62
     0
 92
       -2
340
14
 93
        0
 40
0.045
309
GRIDFORMAT_END
 95
        4
302
GRIDFORMAT
  1
GRIDFORMAT_BEGIN
 90
        0
 91
        1
 62
     0
 92
       -2
340
14
 93
        0
 40
0.045
309
GRIDFORMAT_END
 95
        8
302
GRIDFORMAT
  1
GRIDFORMAT_BEGIN
 90
        0
 91
        1
 62
     0
 92
       -2
340
14
 93
        0
 40
0.045
309
GRIDFORMAT_END
 95
       16
302
GRIDFORMAT
  1
GRIDFORMAT_BEGIN
 90
        0
 91
        1
 62
     0
 92
       -2
340
14
 93
        0
 40
0.045
309
GRIDFORMAT_END
 95
       32
302
GRIDFORMAT
  1
GRIDFORMAT_BEGIN
 90
        0
 91
        1
 62
     0
 92
       -2
340
14
 93
        0
 40
0.045
309
GRIDFORMAT_END
309
TABLEFORMAT_END
  1
CELLSTYLE_BEGIN
 90
        3
 91
        2
300
_DATA
309
CELLSTYLE_END
  0
ENDSEC
  0
EOF
