  0
SECTION
  2
HEADER
  9
$ACADVER
  1
AC1032
  9
$ACADMAINTVER
 90
       55
  9
$DWGCODEPAGE
  3
ANSI_1252
  9
$LASTSAVEDBY
  1
Thomas.Friedrich
  9
$REQUIREDVERSIONS
160
                 0
  9
$INSBASE
 10
0.0
 20
0.0
 30
0.0
  9
$EXTMIN
 10
0.0
 20
0.0
 30
0.0
  9
$EXTMAX
 10
600.0
 20
2000.0
 30
0.0
  9
$LIMMIN
 10
0.0
 20
0.0
  9
$LIMMAX
 10
600.0
 20
2000.0
  9
$ORTHOMODE
 70
     0
  9
$REGENMODE
 70
     1
  9
$FILLMODE
 70
     1
  9
$QTEXTMODE
 70
     0
  9
$MIRRTEXT
 70
     1
  9
$LTSCALE
 40
1.0
  9
$ATTMODE
 70
     1
  9
$TEXTSIZE
 40
3.5
  9
$TRACEWID
 40
1.0
  9
$TEXTSTYLE
  7
Standard
  9
$CLAYER
  8
0
  9
$CELTYPE
  6
ByLayer
  9
$CECOLOR
 62
   256
  9
$CELTSCALE
 40
1.0
  9
$DISPSILH
 70
     0
  9
$DIMSCALE
 40
1.0
  9
$DIMASZ
 40
3.556
  9
$DIMEXO
 40
1.0
  9
$DIMDLI
 40
3.75
  9
$DIMRND
 40
0.0
  9
$DIMDLE
 40
0.0
  9
$DIMEXE
 40
1.0
  9
$DIMTP
 40
0.0
  9
$DIMTM
 40
0.0
  9
$DIMTXT
 40
3.5
  9
$DIMCEN
 40
2.5
  9
$DIMTSZ
 40
0.0
  9
$DIMTOL
 70
     0
  9
$DIMLIM
 70
     0
  9
$DIMTIH
 70
     1
  9
$DIMTOH
 70
     1
  9
$DIMSE1
 70
     0
  9
$DIMSE2
 70
     0
  9
$DIMTAD
 70
     1
  9
$DIMZIN
 70
     0
  9
$DIMBLK
  1

  9
$DIMASO
 70
     1
  9
$DIMSHO
 70
     1
  9
$DIMPOST
  1

  9
$DIMAPOST
  1

  9
$DIMALT
 70
     0
  9
$DIMALTD
 70
     3
  9
$DIMALTF
 40
0.0393700787
  9
$DIMLFAC
 40
1.0
  9
$DIMTOFL
 70
     1
  9
$DIMTVP
 40
0.0
  9
$DIMTIX
 70
     0
  9
$DIMSOXD
 70
     0
  9
$DIMSAH
 70
     0
  9
$DIMBLK1
  1

  9
$DIMBLK2
  1

  9
$DIMSTYLE
  2
ISO-25
  9
$DIMCLRD
 70
     0
  9
$DIMCLRE
 70
     0
  9
$DIMCLRT
 70
     0
  9
$DIMTFAC
 40
1.0
  9
$DIMGAP
 40
1.524
  9
$DIMJUST
 70
     0
  9
$DIMSD1
 70
     0
  9
$DIMSD2
 70
     0
  9
$DIMTOLJ
 70
     0
  9
$DIMTZIN
 70
     0
  9
$DIMALTZ
 70
     0
  9
$DIMALTTZ
 70
     0
  9
$DIMUPT
 70
     0
  9
$DIMDEC
 70
     2
  9
$DIMTDEC
 70
     2
  9
$DIMALTU
 70
     2
  9
$DIMALTTD
 70
     3
  9
$DIMTXSTY
  7
Standard
  9
$DIMAUNIT
 70
     0
  9
$DIMADEC
 70
     2
  9
$DIMALTRND
 40
0.0
  9
$DIMAZIN
 70
     0
  9
$DIMDSEP
 70
    44
  9
$DIMATFIT
 70
     3
  9
$DIMFRAC
 70
     0
  9
$DIMLDRBLK
  1

  9
$DIMLUNIT
 70
     2
  9
$DIMLWD
 70
    -2
  9
$DIMLWE
 70
    -2
  9
$DIMTMOVE
 70
     0
  9
$DIMFXL
 40
1.0
  9
$DIMFXLON
 70
     0
  9
$DIMJOGANG
 40
0.7853981634
  9
$DIMTFILL
 70
     0
  9
$DIMTFILLCLR
 70
     0
  9
$DIMARCSYM
 70
     0
  9
$DIMLTYPE
  6

  9
$DIMLTEX1
  6

  9
$DIMLTEX2
  6

  9
$DIMTXTDIRECTION
 70
     0
  9
$LUNITS
 70
     2
  9
$LUPREC
 70
     2
  9
$SKETCHINC
 40
1.0
  9
$FILLETRAD
 40
10.0
  9
$AUNITS
 70
     0
  9
$AUPREC
 70
     2
  9
$MENU
  1
.
  9
$ELEVATION
 40
0.0
  9
$PELEVATION
 40
0.0
  9
$THICKNESS
 40
0.0
  9
$LIMCHECK
 70
     0
  9
$CHAMFERA
 40
0.0
  9
$CHAMFERB
 40
0.0
  9
$CHAMFERC
 40
0.0
  9
$CHAMFERD
 40
0.0
  9
$SKPOLY
 70
     0
  9
$TDCREATE
 40
2460377.447686875
  9
$TDUCREATE
 40
2460377.406020208
  9
$TDUPDATE
 40
2460377.447686967
  9
$TDUUPDATE
 40
2460377.406020301
  9
$TDINDWG
 40
0.0000000116
  9
$TDUSRTIMER
 40
0.0000000116
  9
$USRTIMER
 70
     1
  9
$ANGBASE
 50
0.0
  9
$ANGDIR
 70
     0
  9
$PDMODE
 70
     0
  9
$PDSIZE
 40
-1.0
  9
$PLINEWID
 40
0.0
  9
$SPLFRAME
 70
     0
  9
$SPLINETYPE
 70
     6
  9
$SPLINESEGS
 70
     8
  9
$HANDSEED
  5
198
  9
$SURFTAB1
 70
     6
  9
$SURFTAB2
 70
     6
  9
$SURFTYPE
 70
     6
  9
$SURFU
 70
     6
  9
$SURFV
 70
     6
  9
$UCSBASE
  2

  9
$UCSNAME
  2

  9
$UCSORG
 10
0.0
 20
0.0
 30
0.0
  9
$UCSXDIR
 10
1.0
 20
0.0
 30
0.0
  9
$UCSYDIR
 10
0.0
 20
1.0
 30
0.0
  9
$UCSORTHOREF
  2

  9
$UCSORTHOVIEW
 70
     0
  9
$UCSORGTOP
 10
0.0
 20
0.0
 30
0.0
  9
$UCSORGBOTTOM
 10
0.0
 20
0.0
 30
0.0
  9
$UCSORGLEFT
 10
0.0
 20
0.0
 30
0.0
  9
$UCSORGRIGHT
 10
0.0
 20
0.0
 30
0.0
  9
$UCSORGFRONT
 10
0.0
 20
0.0
 30
0.0
  9
$UCSORGBACK
 10
0.0
 20
0.0
 30
0.0
  9
$PUCSBASE
  2

  9
$PUCSNAME
  2

  9
$PUCSORG
 10
0.0
 20
0.0
 30
0.0
  9
$PUCSXDIR
 10
1.0
 20
0.0
 30
0.0
  9
$PUCSYDIR
 10
0.0
 20
1.0
 30
0.0
  9
$PUCSORTHOREF
  2

  9
$PUCSORTHOVIEW
 70
     0
  9
$PUCSORGTOP
 10
0.0
 20
0.0
 30
0.0
  9
$PUCSORGBOTTOM
 10
0.0
 20
0.0
 30
0.0
  9
$PUCSORGLEFT
 10
0.0
 20
0.0
 30
0.0
  9
$PUCSORGRIGHT
 10
0.0
 20
0.0
 30
0.0
  9
$PUCSORGFRONT
 10
0.0
 20
0.0
 30
0.0
  9
$PUCSORGBACK
 10
0.0
 20
0.0
 30
0.0
  9
$USERI1
 70
     0
  9
$USERI2
 70
     0
  9
$USERI3
 70
     0
  9
$USERI4
 70
     0
  9
$USERI5
 70
     0
  9
$USERR1
 40
0.0
  9
$USERR2
 40
0.0
  9
$USERR3
 40
0.0
  9
$USERR4
 40
0.0
  9
$USERR5
 40
0.0
  9
$WORLDVIEW
 70
     1
  9
$SHADEDGE
 70
     3
  9
$SHADEDIF
 70
    70
  9
$TILEMODE
 70
     1
  9
$MAXACTVP
 70
    64
  9
$PINSBASE
 10
0.0
 20
0.0
 30
0.0
  9
$PLIMCHECK
 70
     0
  9
$PEXTMIN
 10
1.0000000000E+20
 20
1.0000000000E+20
 30
1.0000000000E+20
  9
$PEXTMAX
 10
-1.0000000000E+20
 20
-1.0000000000E+20
 30
-1.0000000000E+20
  9
$PLIMMIN
 10
0.0
 20
0.0
  9
$PLIMMAX
 10
420.0
 20
297.0
  9
$UNITMODE
 70
     0
  9
$VISRETAIN
 70
     1
  9
$PLINEGEN
 70
     0
  9
$PSLTSCALE
 70
     1
  9
$TREEDEPTH
 70
  3020
  9
$CMLSTYLE
  2
Standard
  9
$CMLJUST
 70
     0
  9
$CMLSCALE
 40
20.0
  9
$PROXYGRAPHICS
 70
     1
  9
$MEASUREMENT
 70
     1
  9
$CELWEIGHT
370
    -1
  9
$ENDCAPS
280
     0
  9
$JOINSTYLE
280
     0
  9
$LWDISPLAY
290
     1
  9
$INSUNITS
 70
     4
  9
$HYPERLINKBASE
  1

  9
$STYLESHEET
  1

  9
$XEDIT
290
     1
  9
$CEPSNTYPE
380
     0
  9
$PSTYLEMODE
290
     1
  9
$FINGERPRINTGUID
  2
{a06a2d5a-a8e0-4fe4-9f78-34c9e2018eb4}
  9
$VERSIONGUID
  2
{FAEB1C32-E019-11D5-929B-00C0DF256EC4}
  9
$EXTNAMES
290
     1
  9
$PSVPSCALE
 40
0.0
  9
$OLESTARTUP
290
     0
  9
$SORTENTS
280
   127
  9
$INDEXCTL
280
     0
  9
$HIDETEXT
280
     1
  9
$XCLIPFRAME
280
     2
  9
$HALOGAP
280
     0
  9
$OBSCOLOR
 70
   257
  9
$OBSLTYPE
280
     0
  9
$INTERSECTIONDISPLAY
280
     0
  9
$INTERSECTIONCOLOR
 70
   257
  9
$DIMASSOC
280
     2
  9
$PROJECTNAME
  1

  9
$CAMERADISPLAY
290
     0
  9
$LENSLENGTH
 40
50.0
  9
$CAMERAHEIGHT
 40
0.0
  9
$STEPSPERSEC
 40
2.0
  9
$STEPSIZE
 40
6.0
  9
$3DDWFPREC
 40
2.0
  9
$PSOLWIDTH
 40
5.0
  9
$PSOLHEIGHT
 40
80.0
  9
$LOFTANG1
 40
1.5707963268
  9
$LOFTANG2
 40
1.5707963268
  9
$LOFTMAG1
 40
0.0
  9
$LOFTMAG2
 40
0.0
  9
$LOFTPARAM
 70
     7
  9
$LOFTNORMALS
280
     1
  9
$LATITUDE
 40
37.795
  9
$LONGITUDE
 40
-122.394
  9
$NORTHDIRECTION
 40
0.0
  9
$TIMEZONE
 70
 -8000
  9
$LIGHTGLYPHDISPLAY
280
     1
  9
$TILEMODELIGHTSYNCH
280
     1
  9
$CMATERIAL
347
44
  9
$SOLIDHIST
280
     0
  9
$SHOWHIST
280
     1
  9
$DWFFRAME
280
     2
  9
$DGNFRAME
280
     2
  9
$REALWORLDSCALE
290
     1
  9
$INTERFERECOLOR
 62
   256
  9
$CSHADOW
280
     0
  9
$SHADOWPLANELOCATION
 40
0.0
  0
ENDSEC
  0
SECTION
  2
CLASSES
  0
CLASS
  1
ACDBDICTIONARYWDFLT
  2
AcDbDictionaryWithDefault
  3
ObjectDBX Classes
 90
        0
 91
        3
280
     0
281
     0
  0
CLASS
  1
VISUALSTYLE
  2
AcDbVisualStyle
  3
ObjectDBX Classes
 90
     4095
 91
        3
280
     0
281
     0
  0
CLASS
  1
MATERIAL
  2
AcDbMaterial
  3
ObjectDBX Classes
 90
     1153
 91
        3
280
     0
281
     0
  0
CLASS
  1
SCALE
  2
AcDbScale
  3
ObjectDBX Classes
 90
     1153
 91
        3
280
     0
281
     0
  0
CLASS
  1
TABLESTYLE
  2
AcDbTableStyle
  3
ObjectDBX Classes
 90
     4095
 91
        3
280
     0
281
     0
  0
CLASS
  1
MLEADERSTYLE
  2
AcDbMLeaderStyle
  3
ACDB_MLEADERSTYLE_CLASS
 90
     4095
 91
        3
280
     0
281
     0
  0
CLASS
  1
SUN
  2
AcDbSun
  3
SCENEOE
 90
     1153
 91
        3
280
     0
281
     0
  0
CLASS
  1
DICTIONARYVAR
  2
AcDbDictionaryVar
  3
ObjectDBX Classes
 90
        0
 91
        3
280
     0
281
     0
  0
CLASS
  1
CELLSTYLEMAP
  2
AcDbCellStyleMap
  3
ObjectDBX Classes
 90
     1152
 91
        3
280
     0
281
     0
  0
ENDSEC
  0
SECTION
  2
TABLES
  0
TABLE
  2
VPORT
  5
8
330
0
100
AcDbSymbolTable
 70
     1
  0
VPORT
  5
29
330
8
100
AcDbSymbolTableRecord
100
AcDbViewportTableRecord
  2
*Active
 70
     0
 10
0.0
 20
0.0
 11
1.0
 21
1.0
 12
300.0
 22
1000.0
 13
0.0
 23
0.0
 14
10.0
 24
10.0
 15
10.0
 25
10.0
 16
0.0
 26
0.0
 36
1.0
 17
0.0
 27
0.0
 37
0.0
 40
2000.0
 41
0.3
 42
50.0
 43
0.0
 44
0.0
 50
0.0
 51
0.0
 71
     0
 72
  2000
 73
     1
 74
     3
 75
     0
 76
     0
 77
     0
 78
     0
281
     0
 65
     1
110
0.0
120
0.0
130
0.0
111
1.0
121
0.0
131
0.0
112
0.0
122
1.0
132
0.0
 79
     0
146
0.0
348
2F
 60
     3
 61
     5
292
     1
282
     1
141
0.0
142
0.0
 63
   250
361
6D
  0
ENDTAB
  0
TABLE
  2
LTYPE
  5
5
330
0
100
AcDbSymbolTable
 70
     8
  0
LTYPE
  5
14
330
5
100
AcDbSymbolTableRecord
100
AcDbLinetypeTableRecord
  2
ByBlock
 70
     0
  3

 72
    65
 73
     0
 40
0.0
  0
LTYPE
  5
15
330
5
100
AcDbSymbolTableRecord
100
AcDbLinetypeTableRecord
  2
ByLayer
 70
     0
  3

 72
    65
 73
     0
 40
0.0
  0
LTYPE
  5
16
330
5
100
AcDbSymbolTableRecord
100
AcDbLinetypeTableRecord
  2
Continuous
 70
     0
  3
Solid line
 72
    65
 73
     0
 40
0.0
  0
LTYPE
  5
6E
330
5
100
AcDbSymbolTableRecord
100
AcDbLinetypeTableRecord
  2
SLD-Durchgehend
 70
     0
  3
SolidWorks Line Style
 72
    65
 73
     0
 40
0.0
  0
LTYPE
  5
6F
330
5
100
AcDbSymbolTableRecord
100
AcDbLinetypeTableRecord
  2
SLD-Gestrichelt
 70
     0
  3
SolidWorks Line Style
 72
    65
 73
     2
 40
1.905
 49
1.27
 74
     0
 49
-0.635
 74
     0
  0
LTYPE
  5
70
330
5
100
AcDbSymbolTableRecord
100
AcDbLinetypeTableRecord
  2
SLD-Phantom
 70
     0
  3
SolidWorks Line Style
 72
    65
 73
     6
 40
12.7
 49
6.35
 74
     0
 49
-1.27
 74
     0
 49
1.27
 74
     0
 49
-1.27
 74
     0
 49
1.27
 74
     0
 49
-1.27
 74
     0
  0
LTYPE
  5
71
330
5
100
AcDbSymbolTableRecord
100
AcDbLinetypeTableRecord
  2
SLD-Kette
 70
     0
  3
SolidWorks Line Style
 72
    65
 73
     4
 40
10.16
 49
6.35
 74
     0
 49
-1.27
 74
     0
 49
1.27
 74
     0
 49
-1.27
 74
     0
  0
LTYPE
  5
72
330
5
100
AcDbSymbolTableRecord
100
AcDbLinetypeTableRecord
  2
SLD-Punktstrich
 70
     0
  3
SolidWorks Line Style
 72
    65
 73
     4
 40
19.05
 49
15.24
 74
     0
 49
-1.27
 74
     0
 49
1.27
 74
     0
 49
-1.27
 74
     0
  0
LTYPE
  5
73
330
5
100
AcDbSymbolTableRecord
100
AcDbLinetypeTableRecord
  2
SLD-Naht
 70
     0
  3
SolidWorks Line Style
 72
    65
 73
     2
 40
0.635
 49
0.0
 74
     0
 49
-0.635
 74
     0
  0
LTYPE
  5
74
330
5
100
AcDbSymbolTableRecord
100
AcDbLinetypeTableRecord
  2
SLD-Dicke-Dünne-Kette
 70
     0
  3
SolidWorks Line Style
 72
    65
 73
     4
 40
10.16
 49
6.35
 74
     0
 49
-1.27
 74
     0
 49
1.27
 74
     0
 49
-1.27
 74
     0
  0
ENDTAB
  0
TABLE
  2
LAYER
  5
2
330
0
100
AcDbSymbolTable
 70
     2
  0
LAYER
  5
10
330
2
100
AcDbSymbolTableRecord
100
AcDbLayerTableRecord
  2
0
 70
     0
 62
     7
  6
Continuous
370
    -3
390
F
347
46
348
0
  0
LAYER
  5
75
330
2
100
AcDbSymbolTableRecord
100
AcDbLayerTableRecord
  2
FORMAT
 70
     0
 62
     7
  6
SLD-Durchgehend
370
    -3
390
F
347
46
348
0
  0
ENDTAB
  0
TABLE
  2
STYLE
  5
3
330
0
100
AcDbSymbolTable
 70
     1
  0
STYLE
  5
11
330
3
100
AcDbSymbolTableRecord
100
AcDbTextStyleTableRecord
  2
Standard
 70
     0
 40
0.0
 41
1.0
 50
0.0
 71
     0
 42
3.5
  3
txt
  4

  0
ENDTAB
  0
TABLE
  2
VIEW
  5
6
330
0
100
AcDbSymbolTable
 70
     0
  0
ENDTAB
  0
TABLE
  2
UCS
  5
7
330
0
100
AcDbSymbolTable
 70
     0
  0
ENDTAB
  0
TABLE
  2
APPID
  5
9
330
0
100
AcDbSymbolTable
 70
     1
  0
APPID
  5
12
330
9
100
AcDbSymbolTableRecord
100
AcDbRegAppTableRecord
  2
ACAD
 70
     0
  0
ENDTAB
  0
TABLE
  2
DIMSTYLE
  5
A
330
0
100
AcDbSymbolTable
 70
     1
100
AcDbDimStyleTable
  0
DIMSTYLE
105
27
330
A
100
AcDbSymbolTableRecord
100
AcDbDimStyleTableRecord
  2
ISO-25
 70
     0
 41
2.5
 42
0.625
 43
3.75
 44
1.25
 73
     0
 74
     0
 77
     1
 78
     8
140
2.5
141
2.5
143
0.0393700787
147
0.625
171
     3
172
     1
178
     0
271
     2
272
     2
274
     3
278
    44
283
     0
284
     8
340
11
  0
ENDTAB
  0
TABLE
  2
BLOCK_RECORD
  5
1
330
0
100
AcDbSymbolTable
 70
     1
  0
BLOCK_RECORD
  5
1F
330
1
100
AcDbSymbolTableRecord
100
AcDbBlockTableRecord
  2
*Model_Space
340
22
 70
     0
280
     1
281
     0
  0
BLOCK_RECORD
  5
1B
330
1
100
AcDbSymbolTableRecord
100
AcDbBlockTableRecord
  2
*Paper_Space
340
1E
 70
     0
280
     1
281
     0
  0
BLOCK_RECORD
  5
23
330
1
100
AcDbSymbolTableRecord
100
AcDbBlockTableRecord
  2
*Paper_Space0
340
26
 70
     0
280
     1
281
     0
  0
ENDTAB
  0
ENDSEC
  0
SECTION
  2
BLOCKS
  0
BLOCK
  5
20
330
1F
100
AcDbEntity
  8
0
100
AcDbBlockBegin
  2
*Model_Space
 70
     0
 10
0.0
 20
0.0
 30
0.0
  3
*Model_Space
  1

  0
ENDBLK
  5
21
330
1F
100
AcDbEntity
  8
0
100
AcDbBlockEnd
  0
BLOCK
  5
1C
330
1B
100
AcDbEntity
 67
     1
  8
0
100
AcDbBlockBegin
  2
*Paper_Space
 70
     0
 10
0.0
 20
0.0
 30
0.0
  3
*Paper_Space
  1

  0
ENDBLK
  5
1D
330
1B
100
AcDbEntity
 67
     1
  8
0
100
AcDbBlockEnd
  0
BLOCK
  5
24
330
23
100
AcDbEntity
  8
0
100
AcDbBlockBegin
  2
*Paper_Space0
 70
     0
 10
0.0
 20
0.0
 30
0.0
  3
*Paper_Space0
  1

  0
ENDBLK
  5
25
330
23
100
AcDbEntity
  8
0
100
AcDbBlockEnd
  0
ENDSEC
  0
SECTION
  2
ENTITIES
  0
LWPOLYLINE
  5
76
330
1F
100
AcDbEntity
  8
0
  6
SLD-Durchgehend
 62
     2
420
 16776960
370
    25
100
AcDbPolyline
 90
        3
 70
   128
 43
0.0
 10
165.8105590848
 20
169.1744740167
 10
165.1826471833
 20
169.0784964163
 10
164.7087962642
 20
168.9180637603
  0
ARC
  5
77
330
1F
100
AcDbEntity
  8
0
  6
SLD-Durchgehend
 62
     2
420
 16776960
370
    25
100
AcDbCircle
 10
165.9099606167
 20
168.0724184932
 30
0.0
 40
1.106529277271002
100
AcDbArc
 50
359.9114306381
 51
95.1539315381
  0
ARC
  5
78
330
1F
100
AcDbEntity
  8
0
  6
SLD-Durchgehend
 62
     2
420
 16776960
370
    25
100
AcDbCircle
 10
165.7667136784
 20
168.0524392243
 30
0.0
 40
1.249908409603296
100
AcDbArc
 50
269.1172907718
 51
0.8374697679
  0
ARC
  5
79
330
1F
100
AcDbEntity
  8
0
  6
SLD-Durchgehend
 62
     2
420
 16776960
370
    25
100
AcDbCircle
 10
165.715363151
 20
167.8894944714
 30
0.0
 40
1.08728912489843
100
AcDbArc
 50
190.0306970488
 51
271.6915221213
  0
LINE
  5
7A
330
1F
100
AcDbEntity
  8
0
  6
SLD-Durchgehend
 62
     2
420
 16776960
370
    25
100
AcDbLine
 10
164.1959757514
 20
167.7001150423
 30
0.0
 11
164.6446937001
 21
167.7001150423
 31
0.0
  0
ARC
  5
7B
330
1F
100
AcDbEntity
  8
0
  6
SLD-Durchgehend
 62
     2
420
 16776960
370
    25
100
AcDbCircle
 10
165.7231927834
 20
167.8219246517
 30
0.0
 40
1.532067049336963
100
AcDbArc
 50
184.5602119353
 51
269.9335694518
  0
ARC
  5
7C
330
1F
100
AcDbEntity
  8
0
  6
SLD-Durchgehend
 62
     2
420
 16776960
370
    25
100
AcDbCircle
 10
165.7698559486
 20
167.9857971351
 30
0.0
 40
1.696630127717489
100
AcDbArc
 50
268.3639594774
 51
2.2253633449
  0
ARC
  5
7D
330
1F
100
AcDbEntity
  8
0
  6
SLD-Durchgehend
 62
     2
420
 16776960
370
    25
100
AcDbCircle
 10
165.9142198421
 20
168.1342735588
 30
0.0
 40
1.553184399583392
100
AcDbArc
 50
356.9516584793
 51
90.8311785783
  0
LWPOLYLINE
  5
7E
330
1F
100
AcDbEntity
  8
0
  6
SLD-Durchgehend
 62
     2
420
 16776960
370
    25
100
AcDbPolyline
 90
        3
 70
   128
 43
0.0
 10
165.3027465848
 20
169.5901390808
 10
165.629265908
 20
169.6658847272
 10
165.8916888924
 20
169.6872945295
  0
LINE
  5
7F
330
1F
100
AcDbEntity
  8
0
  6
SLD-Durchgehend
 62
     2
420
 16776960
370
    25
100
AcDbLine
 10
165.5721776745
 20
170.9052432475
 30
0.0
 11
165.3027465848
 21
169.5901390808
 31
0.0
  0
LINE
  5
80
330
1F
100
AcDbEntity
  8
0
  6
SLD-Durchgehend
 62
     2
420
 16776960
370
    25
100
AcDbLine
 10
167.2728988283
 20
170.9052432475
 30
0.0
 11
165.5721776745
 21
170.9052432475
 31
0.0
  0
LINE
  5
81
330
1F
100
AcDbEntity
  8
0
  6
SLD-Durchgehend
 62
     2
420
 16776960
370
    25
100
AcDbLine
 10
167.2728988283
 20
171.4180637603
 30
0.0
 11
167.2728988283
 21
170.9052432475
 31
0.0
  0
LINE
  5
82
330
1F
100
AcDbEntity
  8
0
  6
SLD-Durchgehend
 62
     2
420
 16776960
370
    25
100
AcDbLine
 10
165.2216167771
 20
171.4180637603
 30
0.0
 11
167.2728988283
 21
171.4180637603
 31
0.0
  0
LINE
  5
83
330
1F
100
AcDbEntity
  8
0
  6
SLD-Durchgehend
 62
     2
420
 16776960
370
    25
100
AcDbLine
 10
164.7087962642
 20
168.9180637603
 30
0.0
 11
165.2216167771
 21
171.4180637603
 31
0.0
  0
LWPOLYLINE
  5
84
330
1F
100
AcDbEntity
  8
0
  6
SLD-Durchgehend
 62
     2
420
 16776960
370
    25
100
AcDbPolyline
 90
        5
 70
   128
 43
0.0
 10
169.649701713
 20
171.5462688885
 10
170.0849232431
 20
171.484078653
 10
170.4824357921
 20
171.2963044347
 10
171.0508333918
 20
170.6337868927
 10
171.3754629309
 20
168.9160605552
  0
LWPOLYLINE
  5
85
330
1F
100
AcDbEntity
  8
0
  6
SLD-Durchgehend
 62
     2
420
 16776960
370
    25
100
AcDbPolyline
 90
        7
 70
   128
 43
0.0
 10
167.9780270335
 20
168.9160605552
 10
168.0305162403
 20
169.7900217148
 10
168.2683347411
 20
170.6294164674
 10
168.5028132286
 20
170.9984535184
 10
168.8245949599
 20
171.2935234342
 10
169.217838626
 20
171.4830731416
 10
169.649701713
 20
171.5462688885
  0
LWPOLYLINE
  5
86
330
1F
100
AcDbEntity
  8
0
  6
SLD-Durchgehend
 62
     2
420
 16776960
370
    25
100
AcDbPolyline
 90
        6
 70
   128
 43
0.0
 10
169.649701713
 20
166.2898586321
 10
169.2182629162
 20
166.3524062846
 10
168.825248499
 20
166.5409709241
 10
168.2716236426
 20
167.2057993144
 10
168.0320054858
 20
168.0434201801
 10
167.9780270335
 20
168.9160605552
  0
LWPOLYLINE
  5
87
330
1F
100
AcDbEntity
  8
0
  6
SLD-Durchgehend
 62
     2
420
 16776960
370
    25
100
AcDbPolyline
 90
        6
 70
   128
 43
0.0
 10
171.3754629309
 20
168.9160605552
 10
171.3144273243
 20
168.037519057
 10
171.0513351052
 20
167.2002614976
 10
170.4814199971
 20
166.5405542325
 10
170.0844651878
 20
166.3524762247
 10
169.649701713
 20
166.2898586321
  0
CIRCLE
  5
88
330
1F
100
AcDbEntity
  8
0
  6
SLD-Durchgehend
 62
     7
370
    25
100
AcDbCircle
 10
457.0583410231
 20
1827.4065988814
 30
0.0
 40
4.5
  0
CIRCLE
  5
89
330
1F
100
AcDbEntity
  8
0
  6
SLD-Durchgehend
 62
     7
370
    25
100
AcDbCircle
 10
343.7948848267
 20
1827.4065988814
 30
0.0
 40
4.5
  0
CIRCLE
  5
8A
330
1F
100
AcDbEntity
  8
0
  6
SLD-Durchgehend
 62
     7
370
    25
100
AcDbCircle
 10
166.6000963201
 20
1827.4065988814
 30
0.0
 40
4.5
  0
CIRCLE
  5
8B
330
1F
100
AcDbEntity
  8
0
  6
SLD-Durchgehend
 62
     7
370
    25
100
AcDbCircle
 10
132.1957021422
 20
760.8283878315
 30
0.0
 40
4.5
  0
CIRCLE
  5
8C
330
1F
100
AcDbEntity
  8
0
  6
SLD-Durchgehend
 62
     7
370
    25
100
AcDbCircle
 10
231.0019293186
 20
760.8283878315
 30
0.0
 40
4.5
  0
LINE
  5
8D
330
1F
100
AcDbEntity
  8
0
  6
SLD-Durchgehend
 62
     7
370
    25
100
AcDbLine
 10
252.1004856529
 20
1189.9137445938
 30
0.0
 11
247.9940090601
 21
1165.4618038376
 31
0.0
  0
LINE
  5
8E
330
1F
100
AcDbEntity
  8
0
  6
SLD-Durchgehend
 62
     7
370
    25
100
AcDbLine
 10
254.1438740777
 20
1248.4580338289
 30
0.0
 11
252.1004856529
 21
1189.9137445938
 31
0.0
  0
LINE
  5
8F
330
1F
100
AcDbEntity
  8
0
  6
SLD-Durchgehend
 62
     7
370
    25
100
AcDbLine
 10
264.5536647905
 20
1295.2287220702
 30
0.0
 11
254.1438740777
 21
1248.4580338289
 31
0.0
  0
LINE
  5
90
330
1F
100
AcDbEntity
  8
0
  6
SLD-Durchgehend
 62
     7
370
    25
100
AcDbLine
 10
263.3972629154
 20
1342.8947517705
 30
0.0
 11
264.5536647905
 21
1295.2287220702
 31
0.0
  0
LINE
  5
91
330
1F
100
AcDbEntity
  8
0
  6
SLD-Durchgehend
 62
     7
370
    25
100
AcDbLine
 10
265.7100666655
 20
1361.6435543359
 30
0.0
 11
263.3972629154
 21
1342.8947517705
 31
0.0
  0
LINE
  5
92
330
1F
100
AcDbEntity
  8
0
  6
SLD-Durchgehend
 62
     7
370
    25
100
AcDbLine
 10
279.9935136501
 20
1393.5154853876
 30
0.0
 11
265.7100666655
 21
1361.6435543359
 31
0.0
  0
LINE
  5
93
330
1F
100
AcDbEntity
  8
0
  6
SLD-Durchgehend
 62
     7
370
    25
100
AcDbLine
 10
280.9277270601
 20
1396.9265041976
 30
0.0
 11
279.9935136501
 21
1393.5154853876
 31
0.0
  0
LINE
  5
94
330
1F
100
AcDbEntity
  8
0
  6
SLD-Durchgehend
 62
     7
370
    25
100
AcDbLine
 10
280.7261053701
 20
1425.1748053676
 30
0.0
 11
280.9277270601
 21
1396.9265041976
 31
0.0
  0
LINE
  5
95
330
1F
100
AcDbEntity
  8
0
  6
SLD-Durchgehend
 62
     7
370
    25
100
AcDbLine
 10
276.3170097801
 20
1454.6884922276
 30
0.0
 11
280.7261053701
 21
1425.1748053676
 31
0.0
  0
LINE
  5
96
330
1F
100
AcDbEntity
  8
0
  6
SLD-Durchgehend
 62
     7
370
    25
100
AcDbLine
 10
276.2396280501
 20
1488.4267924976
 30
0.0
 11
276.3170097801
 21
1454.6884922276
 31
0.0
  0
LINE
  5
97
330
1F
100
AcDbEntity
  8
0
  6
SLD-Durchgehend
 62
     7
370
    25
100
AcDbLine
 10
277.7516160801
 20
1491.7316226476
 30
0.0
 11
276.2396280501
 21
1488.4267924976
 31
0.0
  0
LINE
  5
98
330
1F
100
AcDbEntity
  8
0
  6
SLD-Durchgehend
 62
     7
370
    25
100
AcDbLine
 10
277.7822200401
 20
1534.9495736876
 30
0.0
 11
277.7516160801
 21
1491.7316226476
 31
0.0
  0
LINE
  5
99
330
1F
100
AcDbEntity
  8
0
  6
SLD-Durchgehend
 62
     7
370
    25
100
AcDbLine
 10
279.2519096901
 20
1584.4433037476
 30
0.0
 11
277.7822200401
 21
1534.9495736876
 31
0.0
  0
LINE
  5
9A
330
1F
100
AcDbEntity
  8
0
  6
SLD-Durchgehend
 62
     7
370
    25
100
AcDbLine
 10
285.0884232801
 20
1598.0368999676
 30
0.0
 11
279.2519096901
 21
1584.4433037476
 31
0.0
  0
LINE
  5
9B
330
1F
100
AcDbEntity
  8
0
  6
SLD-Durchgehend
 62
     7
370
    25
100
AcDbLine
 10
305.5526051901
 20
1667.4880890776
 30
0.0
 11
285.0884232801
 21
1598.0368999676
 31
0.0
  0
LINE
  5
9C
330
1F
100
AcDbEntity
  8
0
  6
SLD-Durchgehend
 62
     7
370
    25
100
AcDbLine
 10
313.3268270988
 20
1681.8529812827
 30
0.0
 11
305.5526051901
 21
1667.4880890776
 31
0.0
  0
LINE
  5
9D
330
1F
100
AcDbEntity
  8
0
  6
SLD-Durchgehend
 62
     7
370
    25
100
AcDbLine
 10
317.8916249766
 20
1695.6707028881
 30
0.0
 11
313.3268270988
 21
1681.8529812827
 31
0.0
  0
LINE
  5
9E
330
1F
100
AcDbEntity
  8
0
  6
SLD-Durchgehend
 62
     7
370
    25
100
AcDbLine
 10
319.412625243
 20
1719.2642180459
 30
0.0
 11
317.8916249766
 21
1695.6707028881
 31
0.0
  0
LINE
  5
9F
330
1F
100
AcDbEntity
  8
0
  6
SLD-Durchgehend
 62
     7
370
    25
100
AcDbLine
 10
323.8352123991
 20
1748.5124198927
 30
0.0
 11
319.412625243
 21
1719.2642180459
 31
0.0
  0
LINE
  5
A0
330
1F
100
AcDbEntity
  8
0
  6
SLD-Durchgehend
 62
     7
370
    25
100
AcDbLine
 10
328.6466125746
 20
1761.7513744364
 30
0.0
 11
323.8352123991
 21
1748.5124198927
 31
0.0
  0
LINE
  5
A1
330
1F
100
AcDbEntity
  8
0
  6
SLD-Durchgehend
 62
     7
370
    25
100
AcDbLine
 10
316.6244153277
 20
1765.4575972091
 30
0.0
 11
328.6466125746
 21
1761.7513744364
 31
0.0
  0
LINE
  5
A2
330
1F
100
AcDbEntity
  8
0
  6
SLD-Durchgehend
 62
     7
370
    25
100
AcDbLine
 10
301.8995169891
 20
1773.4801916615
 30
0.0
 11
316.6244153277
 21
1765.4575972091
 31
0.0
  0
LINE
  5
A3
330
1F
100
AcDbEntity
  8
0
  6
SLD-Durchgehend
 62
     7
370
    25
100
AcDbLine
 10
299.924928357
 20
1773.5395757684
 30
0.0
 11
301.8995169891
 21
1773.4801916615
 31
0.0
  0
LINE
  5
A4
330
1F
100
AcDbEntity
  8
0
  6
SLD-Durchgehend
 62
     7
370
    25
100
AcDbLine
 10
290.5613098638
 20
1775.1118866935
 30
0.0
 11
299.924928357
 21
1773.5395757684
 31
0.0
  0
LINE
  5
A5
330
1F
100
AcDbEntity
  8
0
  6
SLD-Durchgehend
 62
     7
370
    25
100
AcDbLine
 10
259.5059160486
 20
1783.9381782542
 30
0.0
 11
290.5613098638
 21
1775.1118866935
 31
0.0
  0
LINE
  5
A6
330
1F
100
AcDbEntity
  8
0
  6
SLD-Durchgehend
 62
     7
370
    25
100
AcDbLine
 10
244.8350105775
 20
1785.3422073854
 30
0.0
 11
259.5059160486
 21
1783.9381782542
 31
0.0
  0
LINE
  5
A7
330
1F
100
AcDbEntity
  8
0
  6
SLD-Durchgehend
 62
     7
370
    25
100
AcDbLine
 10
243.6452095101
 20
1759.7417024876
 30
0.0
 11
244.8350105775
 21
1785.3422073854
 31
0.0
  0
LINE
  5
A8
330
1F
100
AcDbEntity
  8
0
  6
SLD-Durchgehend
 62
     7
370
    25
100
AcDbLine
 10
237.4955211201
 20
1730.1749078876
 30
0.0
 11
243.6452095101
 21
1759.7417024876
 31
0.0
  0
LINE
  5
A9
330
1F
100
AcDbEntity
  8
0
  6
SLD-Durchgehend
 62
     7
370
    25
100
AcDbLine
 10
240.7067153601
 20
1684.6988050076
 30
0.0
 11
237.4955211201
 21
1730.1749078876
 31
0.0
  0
LINE
  5
AA
330
1F
100
AcDbEntity
  8
0
  6
SLD-Durchgehend
 62
     7
370
    25
100
AcDbLine
 10
248.2415232801
 20
1665.4784170676
 30
0.0
 11
240.7067153601
 21
1684.6988050076
 31
0.0
  0
LINE
  5
AB
330
1F
100
AcDbEntity
  8
0
  6
SLD-Durchgehend
 62
     7
370
    25
100
AcDbLine
 10
240.8588100501
 20
1615.3348951076
 30
0.0
 11
248.2415232801
 21
1665.4784170676
 31
0.0
  0
LINE
  5
AC
330
1F
100
AcDbEntity
  8
0
  6
SLD-Durchgehend
 62
     7
370
    25
100
AcDbLine
 10
241.8902132901
 20
1598.2322184176
 30
0.0
 11
240.8588100501
 21
1615.3348951076
 31
0.0
  0
LINE
  5
AD
330
1F
100
AcDbEntity
  8
0
  6
SLD-Durchgehend
 62
     7
370
    25
100
AcDbLine
 10
241.6085142801
 20
1571.6777054576
 30
0.0
 11
241.8902132901
 21
1598.2322184176
 31
0.0
  0
LINE
  5
AE
330
1F
100
AcDbEntity
  8
0
  6
SLD-Durchgehend
 62
     7
370
    25
100
AcDbLine
 10
239.0003208501
 20
1557.2263924976
 30
0.0
 11
241.6085142801
 21
1571.6777054576
 31
0.0
  0
LINE
  5
AF
330
1F
100
AcDbEntity
  8
0
  6
SLD-Durchgehend
 62
     7
370
    25
100
AcDbLine
 10
247.4990073501
 20
1531.4063219276
 30
0.0
 11
239.0003208501
 21
1557.2263924976
 31
0.0
  0
LINE
  5
B0
330
1F
100
AcDbEntity
  8
0
  6
SLD-Durchgehend
 62
     7
370
    25
100
AcDbLine
 10
250.8389208501
 20
1503.2885103176
 30
0.0
 11
247.4990073501
 21
1531.4063219276
 31
0.0
  0
LINE
  5
B1
330
1F
100
AcDbEntity
  8
0
  6
SLD-Durchgehend
 62
     7
370
    25
100
AcDbLine
 10
253.3994112201
 20
1454.6939103176
 30
0.0
 11
250.8389208501
 21
1503.2885103176
 31
0.0
  0
LINE
  5
B2
330
1F
100
AcDbEntity
  8
0
  6
SLD-Durchgehend
 62
     7
370
    25
100
AcDbLine
 10
247.1363190501
 20
1430.9302894376
 30
0.0
 11
253.3994112201
 21
1454.6939103176
 31
0.0
  0
LINE
  5
B3
330
1F
100
AcDbEntity
  8
0
  6
SLD-Durchgehend
 62
     7
370
    25
100
AcDbLine
 10
244.0538171601
 20
1362.8066060876
 30
0.0
 11
247.1363190501
 21
1430.9302894376
 31
0.0
  0
LINE
  5
B4
330
1F
100
AcDbEntity
  8
0
  6
SLD-Durchgehend
 62
     7
370
    25
100
AcDbLine
 10
237.0464120301
 20
1336.0874055476
 30
0.0
 11
244.0538171601
 21
1362.8066060876
 31
0.0
  0
LINE
  5
B5
330
1F
100
AcDbEntity
  8
0
  6
SLD-Durchgehend
 62
     7
370
    25
100
AcDbLine
 10
234.9845175201
 20
1282.4735073476
 30
0.0
 11
237.0464120301
 21
1336.0874055476
 31
0.0
  0
LINE
  5
B6
330
1F
100
AcDbEntity
  8
0
  6
SLD-Durchgehend
 62
     7
370
    25
100
AcDbLine
 10
232.6085229201
 20
1269.1157041076
 30
0.0
 11
234.9845175201
 21
1282.4735073476
 31
0.0
  0
LINE
  5
B7
330
1F
100
AcDbEntity
  8
0
  6
SLD-Durchgehend
 62
     7
370
    25
100
AcDbLine
 10
230.0615105901
 20
1261.0229028476
 30
0.0
 11
232.6085229201
 21
1269.1157041076
 31
0.0
  0
LINE
  5
B8
330
1F
100
AcDbEntity
  8
0
  6
SLD-Durchgehend
 62
     7
370
    25
100
AcDbLine
 10
233.0495182401
 20
1251.0985953776
 30
0.0
 11
230.0615105901
 21
1261.0229028476
 31
0.0
  0
LINE
  5
B9
330
1F
100
AcDbEntity
  8
0
  6
SLD-Durchgehend
 62
     7
370
    25
100
AcDbLine
 10
238.8293166201
 20
1213.6000929476
 30
0.0
 11
233.0495182401
 21
1251.0985953776
 31
0.0
  0
LINE
  5
BA
330
1F
100
AcDbEntity
  8
0
  6
SLD-Durchgehend
 62
     7
370
    25
100
AcDbLine
 10
233.0495182401
 20
1176.0614271846
 30
0.0
 11
238.8293166201
 21
1213.6000929476
 31
0.0
  0
LINE
  5
BB
330
1F
100
AcDbEntity
  8
0
  6
SLD-Durchgehend
 62
     7
370
    25
100
AcDbLine
 10
247.9940090601
 20
1165.4618038376
 30
0.0
 11
233.0495182401
 21
1176.0614271846
 31
0.0
  0
LINE
  5
BC
330
1F
100
AcDbEntity
  8
0
  6
SLD-Durchgehend
 62
     7
370
    25
100
AcDbLine
 10
81.984515895
 20
255.3332058923
 30
0.0
 11
91.1789138214
 21
296.7385737434
 31
0.0
  0
LINE
  5
BD
330
1F
100
AcDbEntity
  8
0
  6
SLD-Durchgehend
 62
     7
370
    25
100
AcDbLine
 10
91.1789138214
 20
296.7385737434
 30
0.0
 11
94.7024178103
 21
316.1389915481
 31
0.0
  0
LINE
  5
BE
330
1F
100
AcDbEntity
  8
0
  6
SLD-Durchgehend
 62
     7
370
    25
100
AcDbLine
 10
94.7024178103
 20
316.1389915481
 30
0.0
 11
102.6647162036
 21
343.3325140013
 31
0.0
  0
LINE
  5
BF
330
1F
100
AcDbEntity
  8
0
  6
SLD-Durchgehend
 62
     7
370
    25
100
AcDbLine
 10
102.6647162036
 20
343.3325140013
 30
0.0
 11
103.6448154942
 21
345.5761818425
 31
0.0
  0
LINE
  5
C0
330
1F
100
AcDbEntity
  8
0
  6
SLD-Durchgehend
 62
     7
370
    25
100
AcDbLine
 10
103.6448154942
 20
345.5761818425
 30
0.0
 11
102.6998196141
 21
361.6241065988
 31
0.0
  0
LINE
  5
C1
330
1F
100
AcDbEntity
  8
0
  6
SLD-Durchgehend
 62
     7
370
    25
100
AcDbLine
 10
102.6998196141
 20
361.6241065988
 30
0.0
 11
103.0373152689
 21
365.644416047
 31
0.0
  0
LINE
  5
C2
330
1F
100
AcDbEntity
  8
0
  6
SLD-Durchgehend
 62
     7
370
    25
100
AcDbLine
 10
103.0373152689
 20
365.644416047
 30
0.0
 11
102.0581145183
 21
393.0251030456
 31
0.0
  0
LINE
  5
C3
330
1F
100
AcDbEntity
  8
0
  6
SLD-Durchgehend
 62
     7
370
    25
100
AcDbLine
 10
102.0581145183
 20
393.0251030456
 30
0.0
 11
105.7805177168
 21
407.6699106227
 31
0.0
  0
LINE
  5
C4
330
1F
100
AcDbEntity
  8
0
  6
SLD-Durchgehend
 62
     7
370
    25
100
AcDbLine
 10
105.7805177168
 20
407.6699106227
 30
0.0
 11
98.5301178292
 21
440.0221793189
 31
0.0
  0
LINE
  5
C5
330
1F
100
AcDbEntity
  8
0
  6
SLD-Durchgehend
 62
     7
370
    25
100
AcDbLine
 10
98.5301178292
 20
440.0221793189
 30
0.0
 11
98.5427175061
 21
445.8461133965
 31
0.0
  0
LINE
  5
C6
330
1F
100
AcDbEntity
  8
0
  6
SLD-Durchgehend
 62
     7
370
    25
100
AcDbLine
 10
98.5427175061
 20
445.8461133965
 30
0.0
 11
103.2767158345
 21
462.5032751096
 31
0.0
  0
LINE
  5
C7
330
1F
100
AcDbEntity
  8
0
  6
SLD-Durchgehend
 62
     7
370
    25
100
AcDbLine
 10
103.2767158345
 20
462.5032751096
 30
0.0
 11
107.7497151093
 21
481.7101983557
 31
0.0
  0
LINE
  5
C8
330
1F
100
AcDbEntity
  8
0
  6
SLD-Durchgehend
 62
     7
370
    25
100
AcDbLine
 10
107.7497151093
 20
481.7101983557
 30
0.0
 11
106.9973152474
 21
502.358916236
 31
0.0
  0
LINE
  5
C9
330
1F
100
AcDbEntity
  8
0
  6
SLD-Durchgehend
 62
     7
370
    25
100
AcDbLine
 10
106.9973152474
 20
502.358916236
 30
0.0
 11
104.6510193841
 21
525.5203811657
 31
0.0
  0
LINE
  5
CA
330
1F
100
AcDbEntity
  8
0
  6
SLD-Durchgehend
 62
     7
370
    25
100
AcDbLine
 10
104.6510193841
 20
525.5203811657
 30
0.0
 11
105.7193164126
 21
529.2473105921
 31
0.0
  0
LINE
  5
CB
330
1F
100
AcDbEntity
  8
0
  6
SLD-Durchgehend
 62
     7
370
    25
100
AcDbLine
 10
105.7193164126
 20
529.2473105921
 30
0.0
 11
118.2347182527
 21
576.1688022149
 31
0.0
  0
LINE
  5
CC
330
1F
100
AcDbEntity
  8
0
  6
SLD-Durchgehend
 62
     7
370
    25
100
AcDbLine
 10
118.2347182527
 20
576.1688022149
 30
0.0
 11
119.2526165742
 21
582.5911907687
 31
0.0
  0
LINE
  5
CD
330
1F
100
AcDbEntity
  8
0
  6
SLD-Durchgehend
 62
     7
370
    25
100
AcDbLine
 10
119.2526165742
 20
582.5911907687
 30
0.0
 11
119.0771196378
 21
586.8562786115
 31
0.0
  0
LINE
  5
CE
330
1F
100
AcDbEntity
  8
0
  6
SLD-Durchgehend
 62
     7
370
    25
100
AcDbLine
 10
119.0771196378
 20
586.8562786115
 30
0.0
 11
96.2792147295
 21
634.4275890128
 31
0.0
  0
LINE
  5
CF
330
1F
100
AcDbEntity
  8
0
  6
SLD-Durchgehend
 62
     7
370
    25
100
AcDbLine
 10
96.2792147295
 20
634.4275890128
 30
0.0
 11
96.6311138467
 21
637.0403019917
 31
0.0
  0
LINE
  5
D0
330
1F
100
AcDbEntity
  8
0
  6
SLD-Durchgehend
 62
     7
370
    25
100
AcDbLine
 10
96.6311138467
 20
637.0403019917
 30
0.0
 11
88.5752197699
 21
663.9430998101
 31
0.0
  0
LINE
  5
D1
330
1F
100
AcDbEntity
  8
0
  6
SLD-Durchgehend
 62
     7
370
    25
100
AcDbLine
 10
88.5752197699
 20
663.9430998101
 30
0.0
 11
87.7103146509
 21
665.6018046872
 31
0.0
  0
LINE
  5
D2
330
1F
100
AcDbEntity
  8
0
  6
SLD-Durchgehend
 62
     7
370
    25
100
AcDbLine
 10
87.7103146509
 20
665.6018046872
 30
0.0
 11
87.5645164744
 21
666.7961118953
 31
0.0
  0
LINE
  5
D3
330
1F
100
AcDbEntity
  8
0
  6
SLD-Durchgehend
 62
     7
370
    25
100
AcDbLine
 10
87.5645164744
 20
666.7961118953
 30
0.0
 11
77.5268186227
 21
702.9698042408
 31
0.0
  0
LINE
  5
D4
330
1F
100
AcDbEntity
  8
0
  6
SLD-Durchgehend
 62
     7
370
    25
100
AcDbLine
 10
77.5268186227
 20
702.9698042408
 30
0.0
 11
77.8004173533
 21
715.0568036567
 31
0.0
  0
LINE
  5
D5
330
1F
100
AcDbEntity
  8
0
  6
SLD-Durchgehend
 62
     7
370
    25
100
AcDbLine
 10
77.8004173533
 20
715.0568036567
 30
0.0
 11
72.8468165145
 21
761.4751933346
 31
0.0
  0
LINE
  5
D6
330
1F
100
AcDbEntity
  8
0
  6
SLD-Durchgehend
 62
     7
370
    25
100
AcDbLine
 10
72.8468165145
 20
761.4751933346
 30
0.0
 11
75.9248156444
 21
798.7712023985
 31
0.0
  0
LINE
  5
D7
330
1F
100
AcDbEntity
  8
0
  6
SLD-Durchgehend
 62
     7
370
    25
100
AcDbLine
 10
75.9248156444
 20
798.7712023985
 30
0.0
 11
75.133718212
 21
802.2118864784
 31
0.0
  0
LINE
  5
D8
330
1F
100
AcDbEntity
  8
0
  6
SLD-Durchgehend
 62
     7
370
    25
100
AcDbLine
 10
75.133718212
 20
802.2118864784
 30
0.0
 11
75.6899144844
 21
804.7886042129
 31
0.0
  0
LINE
  5
D9
330
1F
100
AcDbEntity
  8
0
  6
SLD-Durchgehend
 62
     7
370
    25
100
AcDbLine
 10
75.6899144844
 20
804.7886042129
 30
0.0
 11
75.8834157483
 21
824.9693034425
 31
0.0
  0
LINE
  5
DA
330
1F
100
AcDbEntity
  8
0
  6
SLD-Durchgehend
 62
     7
370
    25
100
AcDbLine
 10
75.8834157483
 20
824.9693034425
 30
0.0
 11
70.0325154112
 21
843.3670981064
 31
0.0
  0
LINE
  5
DB
330
1F
100
AcDbEntity
  8
0
  6
SLD-Durchgehend
 62
     7
370
    25
100
AcDbLine
 10
70.0325154112
 20
843.3670981064
 30
0.0
 11
66.9734157965
 21
876.3538969886
 31
0.0
  0
LINE
  5
DC
330
1F
100
AcDbEntity
  8
0
  6
SLD-Durchgehend
 62
     7
370
    25
100
AcDbLine
 10
66.9734157965
 20
876.3538969886
 30
0.0
 11
65.8808179543
 21
895.1162038574
 31
0.0
  0
LINE
  5
DD
330
1F
100
AcDbEntity
  8
0
  6
SLD-Durchgehend
 62
     7
370
    25
100
AcDbLine
 10
65.8808179543
 20
895.1162038574
 30
0.0
 11
64.9394162343
 21
933.8962992863
 31
0.0
  0
LINE
  5
DE
330
1F
100
AcDbEntity
  8
0
  6
SLD-Durchgehend
 62
     7
370
    25
100
AcDbLine
 10
64.9394162343
 20
933.8962992863
 30
0.0
 11
68.5646161781
 21
966.7813955081
 31
0.0
  0
LINE
  5
DF
330
1F
100
AcDbEntity
  8
0
  6
SLD-Durchgehend
 62
     7
370
    25
100
AcDbLine
 10
68.5646161781
 20
966.7813955081
 30
0.0
 11
72.3464168952
 21
980.8933956754
 31
0.0
  0
LINE
  5
E0
330
1F
100
AcDbEntity
  8
0
  6
SLD-Durchgehend
 62
     7
370
    25
100
AcDbLine
 10
72.3464168952
 20
980.8933956754
 30
0.0
 11
69.5708167151
 21
990.7177975607
 31
0.0
  0
LINE
  5
E1
330
1F
100
AcDbEntity
  8
0
  6
SLD-Durchgehend
 62
     7
370
    25
100
AcDbLine
 10
69.5708167151
 20
990.7177975607
 30
0.0
 11
69.1280175344
 21
1005.0862973762
 31
0.0
  0
LINE
  5
E2
330
1F
100
AcDbEntity
  8
0
  6
SLD-Durchgehend
 62
     7
370
    25
100
AcDbLine
 10
69.1280175344
 20
1005.0862973762
 30
0.0
 11
70.4015169636
 21
1030.0216982347
 31
0.0
  0
LINE
  5
E3
330
1F
100
AcDbEntity
  8
0
  6
SLD-Durchgehend
 62
     7
370
    25
100
AcDbLine
 10
70.4015169636
 20
1030.0216982347
 30
0.0
 11
73.0403177784
 21
1051.1419987512
 31
0.0
  0
LINE
  5
E4
330
1F
100
AcDbEntity
  8
0
  6
SLD-Durchgehend
 62
     7
370
    25
100
AcDbLine
 10
73.0403177784
 20
1051.1419987512
 30
0.0
 11
82.6478194789
 21
1085.4445988518
 31
0.0
  0
LINE
  5
E5
330
1F
100
AcDbEntity
  8
0
  6
SLD-Durchgehend
 62
     7
370
    25
100
AcDbLine
 10
82.6478194789
 20
1085.4445988518
 30
0.0
 11
82.3301185266
 21
1094.135898186
 31
0.0
  0
LINE
  5
E6
330
1F
100
AcDbEntity
  8
0
  6
SLD-Durchgehend
 62
     7
370
    25
100
AcDbLine
 10
82.3301185266
 20
1094.135898186
 30
0.0
 11
86.6015162663
 21
1113.1411997807
 31
0.0
  0
LINE
  5
E7
330
1F
100
AcDbEntity
  8
0
  6
SLD-Durchgehend
 62
     7
370
    25
100
AcDbLine
 10
86.6015162663
 20
1113.1411997807
 30
0.0
 11
90.2564149694
 21
1143.8275953965
 31
0.0
  0
LINE
  5
E8
330
1F
100
AcDbEntity
  8
0
  6
SLD-Durchgehend
 62
     7
370
    25
100
AcDbLine
 10
90.2564149694
 20
1143.8275953965
 30
0.0
 11
95.158715208
 21
1157.3618008028
 31
0.0
  0
LINE
  5
E9
330
1F
100
AcDbEntity
  8
0
  6
SLD-Durchgehend
 62
     7
370
    25
100
AcDbLine
 10
95.158715208
 20
1157.3618008028
 30
0.0
 11
93.5909171001
 21
1176.0727970138
 31
0.0
  0
LINE
  5
EA
330
1F
100
AcDbEntity
  8
0
  6
SLD-Durchgehend
 62
     7
370
    25
100
AcDbLine
 10
93.5909171001
 20
1176.0727970138
 30
0.0
 11
95.8031159238
 21
1191.3421971929
 31
0.0
  0
LINE
  5
EB
330
1F
100
AcDbEntity
  8
0
  6
SLD-Durchgehend
 62
     7
370
    25
100
AcDbLine
 10
95.8031159238
 20
1191.3421971929
 30
0.0
 11
86.5997191862
 21
1248.7532047763
 31
0.0
  0
LINE
  5
EC
330
1F
100
AcDbEntity
  8
0
  6
SLD-Durchgehend
 62
     7
370
    25
100
AcDbLine
 10
86.5997191862
 20
1248.7532047763
 30
0.0
 11
83.6198184983
 21
1260.8617959752
 31
0.0
  0
LINE
  5
ED
330
1F
100
AcDbEntity
  8
0
  6
SLD-Durchgehend
 62
     7
370
    25
100
AcDbLine
 10
83.6198184983
 20
1260.8617959752
 30
0.0
 11
85.7627157465
 21
1273.4708069102
 31
0.0
  0
LINE
  5
EE
330
1F
100
AcDbEntity
  8
0
  6
SLD-Durchgehend
 62
     7
370
    25
100
AcDbLine
 10
85.7627157465
 20
1273.4708069102
 30
0.0
 11
89.339314063
 21
1299.975806309
 31
0.0
  0
LINE
  5
EF
330
1F
100
AcDbEntity
  8
0
  6
SLD-Durchgehend
 62
     7
370
    25
100
AcDbLine
 10
89.339314063
 20
1299.975806309
 30
0.0
 11
91.6370150045
 21
1347.5525079497
 31
0.0
  0
LINE
  5
F0
330
1F
100
AcDbEntity
  8
0
  6
SLD-Durchgehend
 62
     7
370
    25
100
AcDbLine
 10
91.6370150045
 20
1347.5525079497
 30
0.0
 11
92.2949139372
 21
1355.9648005499
 31
0.0
  0
LINE
  5
F1
330
1F
100
AcDbEntity
  8
0
  6
SLD-Durchgehend
 62
     7
370
    25
100
AcDbLine
 10
92.2949139372
 20
1355.9648005499
 30
0.0
 11
99.2420163349
 21
1384.020492269
 31
0.0
  0
LINE
  5
F2
330
1F
100
AcDbEntity
  8
0
  6
SLD-Durchgehend
 62
     7
370
    25
100
AcDbLine
 10
99.2420163349
 20
1384.020492269
 30
0.0
 11
99.260919203
 21
1385.4884116181
 31
0.0
  0
LINE
  5
F3
330
1F
100
AcDbEntity
  8
0
  6
SLD-Durchgehend
 62
     7
370
    25
100
AcDbLine
 10
99.260919203
 20
1385.4884116181
 30
0.0
 11
103.4783173696
 21
1444.0127102861
 31
0.0
  0
LINE
  5
F4
330
1F
100
AcDbEntity
  8
0
  6
SLD-Durchgehend
 62
     7
370
    25
100
AcDbLine
 10
103.4783173696
 20
1444.0127102861
 30
0.0
 11
107.7461142437
 21
1459.8571894898
 31
0.0
  0
LINE
  5
F5
330
1F
100
AcDbEntity
  8
0
  6
SLD-Durchgehend
 62
     7
370
    25
100
AcDbLine
 10
107.7461142437
 20
1459.8571894898
 30
0.0
 11
106.2422197656
 21
1493.2912735472
 31
0.0
  0
LINE
  5
F6
330
1F
100
AcDbEntity
  8
0
  6
SLD-Durchgehend
 62
     7
370
    25
100
AcDbLine
 10
106.2422197656
 20
1493.2912735472
 30
0.0
 11
104.5718137518
 21
1502.3281721603
 31
0.0
  0
LINE
  5
F7
330
1F
100
AcDbEntity
  8
0
  6
SLD-Durchgehend
 62
     7
370
    25
100
AcDbLine
 10
104.5718137518
 20
1502.3281721603
 30
0.0
 11
95.9750186996
 21
1534.0928225054
 31
0.0
  0
LINE
  5
F8
330
1F
100
AcDbEntity
  8
0
  6
SLD-Durchgehend
 62
     7
370
    25
100
AcDbLine
 10
95.9750186996
 20
1534.0928225054
 30
0.0
 11
93.9095165924
 21
1540.3603939547
 31
0.0
  0
LINE
  5
F9
330
1F
100
AcDbEntity
  8
0
  6
SLD-Durchgehend
 62
     7
370
    25
100
AcDbLine
 10
93.9095165924
 20
1540.3603939547
 30
0.0
 11
93.100414832
 21
1542.496988012
 31
0.0
  0
LINE
  5
FA
330
1F
100
AcDbEntity
  8
0
  6
SLD-Durchgehend
 62
     7
370
    25
100
AcDbLine
 10
93.100414832
 20
1542.496988012
 30
0.0
 11
92.4047168688
 21
1546.6531781687
 31
0.0
  0
LINE
  5
FB
330
1F
100
AcDbEntity
  8
0
  6
SLD-Durchgehend
 62
     7
370
    25
100
AcDbLine
 10
92.4047168688
 20
1546.6531781687
 30
0.0
 11
89.3474143342
 21
1588.5868875512
 31
0.0
  0
LINE
  5
FC
330
1F
100
AcDbEntity
  8
0
  6
SLD-Durchgehend
 62
     7
370
    25
100
AcDbLine
 10
89.3474143342
 20
1588.5868875512
 30
0.0
 11
90.2420182125
 21
1609.8808912763
 31
0.0
  0
LINE
  5
FD
330
1F
100
AcDbEntity
  8
0
  6
SLD-Durchgehend
 62
     7
370
    25
100
AcDbLine
 10
90.2420182125
 20
1609.8808912763
 30
0.0
 11
89.0063178138
 21
1620.405503942
 31
0.0
  0
LINE
  5
FE
330
1F
100
AcDbEntity
  8
0
  6
SLD-Durchgehend
 62
     7
370
    25
100
AcDbLine
 10
89.0063178138
 20
1620.405503942
 30
0.0
 11
98.5517163173
 21
1643.9485935704
 31
0.0
  0
LINE
  5
FF
330
1F
100
AcDbEntity
  8
0
  6
SLD-Durchgehend
 62
     7
370
    25
100
AcDbLine
 10
98.5517163173
 20
1643.9485935704
 30
0.0
 11
103.0940171675
 21
1670.5481140148
 31
0.0
  0
LINE
  5
100
330
1F
100
AcDbEntity
  8
0
  6
SLD-Durchgehend
 62
     7
370
    25
100
AcDbLine
 10
103.0940171675
 20
1670.5481140148
 30
0.0
 11
103.8977142767
 21
1696.2034968869
 31
0.0
  0
LINE
  5
101
330
1F
100
AcDbEntity
  8
0
  6
SLD-Durchgehend
 62
     7
370
    25
100
AcDbLine
 10
103.8977142767
 20
1696.2034968869
 30
0.0
 11
97.2935188905
 21
1721.2486772075
 31
0.0
  0
LINE
  5
102
330
1F
100
AcDbEntity
  8
0
  6
SLD-Durchgehend
 62
     7
370
    25
100
AcDbLine
 10
97.2935188905
 20
1721.2486772075
 30
0.0
 11
97.2755145625
 21
1743.7261788383
 31
0.0
  0
LINE
  5
103
330
1F
100
AcDbEntity
  8
0
  6
SLD-Durchgehend
 62
     7
370
    25
100
AcDbLine
 10
97.2755145625
 20
1743.7261788383
 30
0.0
 11
92.811514099
 21
1787.1700791848
 31
0.0
  0
LINE
  5
104
330
1F
100
AcDbEntity
  8
0
  6
SLD-Durchgehend
 62
     7
370
    25
100
AcDbLine
 10
92.811514099
 20
1787.1700791848
 30
0.0
 11
92.3741195695
 21
1789.1293792262
 31
0.0
  0
LINE
  5
105
330
1F
100
AcDbEntity
  8
0
  6
SLD-Durchgehend
 62
     7
370
    25
100
AcDbLine
 10
92.3741195695
 20
1789.1293792262
 30
0.0
 11
81.4445134596
 21
1845.1858846676
 31
0.0
  0
LINE
  5
106
330
1F
100
AcDbEntity
  8
0
  6
SLD-Durchgehend
 62
     7
370
    25
100
AcDbLine
 10
81.4445134596
 20
1845.1858846676
 30
0.0
 11
82.6523188845
 21
1853.385773135
 31
0.0
  0
LINE
  5
107
330
1F
100
AcDbEntity
  8
0
  6
SLD-Durchgehend
 62
     7
370
    25
100
AcDbLine
 10
82.6523188845
 20
1853.385773135
 30
0.0
 11
85.0553166465
 21
1861.3525776395
 31
0.0
  0
LINE
  5
108
330
1F
100
AcDbEntity
  8
0
  6
SLD-Durchgehend
 62
     7
370
    25
100
AcDbLine
 10
85.0553166465
 20
1861.3525776395
 30
0.0
 11
76.0796193377
 21
1898.6990122328
 31
0.0
  0
LINE
  5
109
330
1F
100
AcDbEntity
  8
0
  6
SLD-Durchgehend
 62
     7
370
    25
100
AcDbLine
 10
76.0796193377
 20
1898.6990122328
 30
0.0
 11
77.3819189862
 21
1909.3721119889
 31
0.0
  0
LINE
  5
10A
330
1F
100
AcDbEntity
  8
0
  6
SLD-Durchgehend
 62
     7
370
    25
100
AcDbLine
 10
77.3819189862
 20
1909.3721119889
 30
0.0
 11
77.4503153161
 21
1922.1835760609
 31
0.0
  0
LINE
  5
10B
330
1F
100
AcDbEntity
  8
0
  6
SLD-Durchgehend
 62
     7
370
    25
100
AcDbLine
 10
77.4503153161
 20
1922.1835760609
 30
0.0
 11
87.4970186845
 21
1935.6665043362
 31
0.0
  0
LINE
  5
10C
330
1F
100
AcDbEntity
  8
0
  6
SLD-Durchgehend
 62
     7
370
    25
100
AcDbLine
 10
87.4970186845
 20
1935.6665043362
 30
0.0
 11
133.9838181033
 21
1953.8879303471
 31
0.0
  0
LINE
  5
10D
330
1F
100
AcDbEntity
  8
0
  6
SLD-Durchgehend
 62
     7
370
    25
100
AcDbLine
 10
133.9838181033
 20
1953.8879303471
 30
0.0
 11
150.115414371
 21
1961.6585044397
 31
0.0
  0
LINE
  5
10E
330
1F
100
AcDbEntity
  8
0
  6
SLD-Durchgehend
 62
     7
370
    25
100
AcDbLine
 10
150.115414371
 20
1961.6585044397
 30
0.0
 11
166.8554161089
 21
1961.2543491851
 31
0.0
  0
LINE
  5
10F
330
1F
100
AcDbEntity
  8
0
  6
SLD-Durchgehend
 62
     7
370
    25
100
AcDbLine
 10
166.8554161089
 20
1961.2543491851
 30
0.0
 11
185.284713318
 21
1955.714943839
 31
0.0
  0
LINE
  5
110
330
1F
100
AcDbEntity
  8
0
  6
SLD-Durchgehend
 62
     7
370
    25
100
AcDbLine
 10
185.284713318
 20
1955.714943839
 30
0.0
 11
211.4648167389
 21
1956.4844159615
 31
0.0
  0
LINE
  5
111
330
1F
100
AcDbEntity
  8
0
  6
SLD-Durchgehend
 62
     7
370
    25
100
AcDbLine
 10
211.4648167389
 20
1956.4844159615
 30
0.0
 11
221.4710120454
 21
1950.6569413676
 31
0.0
  0
LINE
  5
112
330
1F
100
AcDbEntity
  8
0
  6
SLD-Durchgehend
 62
     7
370
    25
100
AcDbLine
 10
221.4710120454
 20
1950.6569413676
 30
0.0
 11
237.398317863
 21
1946.7148451342
 31
0.0
  0
LINE
  5
113
330
1F
100
AcDbEntity
  8
0
  6
SLD-Durchgehend
 62
     7
370
    25
100
AcDbLine
 10
237.398317863
 20
1946.7148451342
 30
0.0
 11
252.5669072169
 21
1945.9363607897
 31
0.0
  0
LINE
  5
114
330
1F
100
AcDbEntity
  8
0
  6
SLD-Durchgehend
 62
     7
370
    25
100
AcDbLine
 10
252.5669072169
 20
1945.9363607897
 30
0.0
 11
266.0930190582
 21
1943.4173373707
 31
0.0
  0
LINE
  5
115
330
1F
100
AcDbEntity
  8
0
  6
SLD-Durchgehend
 62
     7
370
    25
100
AcDbLine
 10
266.0930190582
 20
1943.4173373707
 30
0.0
 11
284.4260249631
 21
1928.4431008829
 31
0.0
  0
LINE
  5
116
330
1F
100
AcDbEntity
  8
0
  6
SLD-Durchgehend
 62
     7
370
    25
100
AcDbLine
 10
284.4260249631
 20
1928.4431008829
 30
0.0
 11
297.3041151063
 21
1921.8470124731
 31
0.0
  0
LINE
  5
117
330
1F
100
AcDbEntity
  8
0
  6
SLD-Durchgehend
 62
     7
370
    25
100
AcDbLine
 10
297.3041151063
 20
1921.8470124731
 30
0.0
 11
305.7146106261
 21
1921.9531743059
 31
0.0
  0
LINE
  5
118
330
1F
100
AcDbEntity
  8
0
  6
SLD-Durchgehend
 62
     7
370
    25
100
AcDbLine
 10
305.7146106261
 20
1921.9531743059
 30
0.0
 11
355.7703539878
 21
1932.5307580165
 31
0.0
  0
LINE
  5
119
330
1F
100
AcDbEntity
  8
0
  6
SLD-Durchgehend
 62
     7
370
    25
100
AcDbLine
 10
355.7703539878
 20
1932.5307580165
 30
0.0
 11
375.6620637012
 21
1934.5366447103
 31
0.0
  0
LINE
  5
11A
330
1F
100
AcDbEntity
  8
0
  6
SLD-Durchgehend
 62
     7
370
    25
100
AcDbLine
 10
375.6620637012
 20
1934.5366447103
 30
0.0
 11
440.1847523516
 21
1932.5307580165
 31
0.0
  0
LINE
  5
11B
330
1F
100
AcDbEntity
  8
0
  6
SLD-Durchgehend
 62
     7
370
    25
100
AcDbLine
 10
440.1847523516
 20
1932.5307580165
 30
0.0
 11
514.8845228747
 21
1910.5951992998
 31
0.0
  0
LINE
  5
11C
330
1F
100
AcDbEntity
  8
0
  6
SLD-Durchgehend
 62
     7
370
    25
100
AcDbLine
 10
514.8845228747
 20
1910.5951992998
 30
0.0
 11
540.1944116284
 21
1885.4622418034
 31
0.0
  0
LINE
  5
11D
330
1F
100
AcDbEntity
  8
0
  6
SLD-Durchgehend
 62
     7
370
    25
100
AcDbLine
 10
540.1944116284
 20
1885.4622418034
 30
0.0
 11
554.9167240362
 21
1864.3696980653
 31
0.0
  0
LINE
  5
11E
330
1F
100
AcDbEntity
  8
0
  6
SLD-Durchgehend
 62
     7
370
    25
100
AcDbLine
 10
554.9167240362
 20
1864.3696980653
 30
0.0
 11
551.094585238
 21
1831.2444951477
 31
0.0
  0
LINE
  5
11F
330
1F
100
AcDbEntity
  8
0
  6
SLD-Durchgehend
 62
     7
370
    25
100
AcDbLine
 10
551.094585238
 20
1831.2444951477
 30
0.0
 11
545.0074753002
 21
1792.5984250772
 31
0.0
  0
LINE
  5
120
330
1F
100
AcDbEntity
  8
0
  6
SLD-Durchgehend
 62
     7
370
    25
100
AcDbLine
 10
545.0074753002
 20
1792.5984250772
 30
0.0
 11
536.4296201958
 21
1750.6940214173
 31
0.0
  0
LINE
  5
121
330
1F
100
AcDbEntity
  8
0
  6
SLD-Durchgehend
 62
     7
370
    25
100
AcDbLine
 10
536.4296201958
 20
1750.6940214173
 30
0.0
 11
532.1231190456
 21
1740.5761925714
 31
0.0
  0
LINE
  5
122
330
1F
100
AcDbEntity
  8
0
  6
SLD-Durchgehend
 62
     7
370
    25
100
AcDbLine
 10
532.1231190456
 20
1740.5761925714
 30
0.0
 11
496.729708125
 21
1702.34151764
 31
0.0
  0
LINE
  5
123
330
1F
100
AcDbEntity
  8
0
  6
SLD-Durchgehend
 62
     7
370
    25
100
AcDbLine
 10
496.729708125
 20
1702.34151764
 30
0.0
 11
495.8585266371
 21
1697.1961824428
 31
0.0
  0
LINE
  5
124
330
1F
100
AcDbEntity
  8
0
  6
SLD-Durchgehend
 62
     7
370
    25
100
AcDbLine
 10
495.8585266371
 20
1697.1961824428
 30
0.0
 11
489.7772077812
 21
1684.579983188
 31
0.0
  0
LINE
  5
125
330
1F
100
AcDbEntity
  8
0
  6
SLD-Durchgehend
 62
     7
370
    25
100
AcDbLine
 10
489.7772077812
 20
1684.579983188
 30
0.0
 11
475.793028285
 21
1649.0911929143
 31
0.0
  0
LINE
  5
126
330
1F
100
AcDbEntity
  8
0
  6
SLD-Durchgehend
 62
     7
370
    25
100
AcDbLine
 10
475.793028285
 20
1649.0911929143
 30
0.0
 11
468.8045326968
 21
1627.701809837
 31
0.0
  0
LINE
  5
127
330
1F
100
AcDbEntity
  8
0
  6
SLD-Durchgehend
 62
     7
370
    25
100
AcDbLine
 10
468.8045326968
 20
1627.701809837
 30
0.0
 11
452.5541279808
 21
1609.6945850384
 31
0.0
  0
LINE
  5
128
330
1F
100
AcDbEntity
  8
0
  6
SLD-Durchgehend
 62
     7
370
    25
100
AcDbLine
 10
452.5541279808
 20
1609.6945850384
 30
0.0
 11
450.206926872
 21
1602.3326186669
 31
0.0
  0
LINE
  5
129
330
1F
100
AcDbEntity
  8
0
  6
SLD-Durchgehend
 62
     7
370
    25
100
AcDbLine
 10
450.206926872
 20
1602.3326186669
 30
0.0
 11
450.7325057283
 21
1583.6098877915
 31
0.0
  0
LINE
  5
12A
330
1F
100
AcDbEntity
  8
0
  6
SLD-Durchgehend
 62
     7
370
    25
100
AcDbLine
 10
450.7325057283
 20
1583.6098877915
 30
0.0
 11
445.8995137707
 21
1553.1323222651
 31
0.0
  0
LINE
  5
12B
330
1F
100
AcDbEntity
  8
0
  6
SLD-Durchgehend
 62
     7
370
    25
100
AcDbLine
 10
445.8995137707
 20
1553.1323222651
 30
0.0
 11
444.6215216412
 21
1547.475811673
 31
0.0
  0
LINE
  5
12C
330
1F
100
AcDbEntity
  8
0
  6
SLD-Durchgehend
 62
     7
370
    25
100
AcDbLine
 10
444.6215216412
 20
1547.475811673
 30
0.0
 11
444.8123071683
 21
1545.4562155736
 31
0.0
  0
LINE
  5
12D
330
1F
100
AcDbEntity
  8
0
  6
SLD-Durchgehend
 62
     7
370
    25
100
AcDbLine
 10
444.8123071683
 20
1545.4562155736
 30
0.0
 11
447.4358294505
 21
1508.1421820657
 31
0.0
  0
LINE
  5
12E
330
1F
100
AcDbEntity
  8
0
  6
SLD-Durchgehend
 62
     7
370
    25
100
AcDbLine
 10
447.4358294505
 20
1508.1421820657
 30
0.0
 11
449.9081287881
 21
1494.1273717418
 31
0.0
  0
LINE
  5
12F
330
1F
100
AcDbEntity
  8
0
  6
SLD-Durchgehend
 62
     7
370
    25
100
AcDbLine
 10
449.9081287881
 20
1494.1273717418
 30
0.0
 11
446.9723169108
 21
1447.5371061101
 31
0.0
  0
LINE
  5
130
330
1F
100
AcDbEntity
  8
0
  6
SLD-Durchgehend
 62
     7
370
    25
100
AcDbLine
 10
446.9723169108
 20
1447.5371061101
 30
0.0
 11
442.5281111499
 21
1432.570996715
 31
0.0
  0
LINE
  5
131
330
1F
100
AcDbEntity
  8
0
  6
SLD-Durchgehend
 62
     7
370
    25
100
AcDbLine
 10
442.5281111499
 20
1432.570996715
 30
0.0
 11
440.0468264121
 21
1399.5013980398
 31
0.0
  0
LINE
  5
132
330
1F
100
AcDbEntity
  8
0
  6
SLD-Durchgehend
 62
     7
370
    25
100
AcDbLine
 10
440.0468264121
 20
1399.5013980398
 30
0.0
 11
439.9118040102
 21
1386.4540873298
 31
0.0
  0
LINE
  5
133
330
1F
100
AcDbEntity
  8
0
  6
SLD-Durchgehend
 62
     7
370
    25
100
AcDbLine
 10
439.9118040102
 20
1386.4540873298
 30
0.0
 11
425.896108557
 21
1359.0797035226
 31
0.0
  0
LINE
  5
134
330
1F
100
AcDbEntity
  8
0
  6
SLD-Durchgehend
 62
     7
370
    25
100
AcDbLine
 10
425.896108557
 20
1359.0797035226
 30
0.0
 11
426.2210045358
 21
1352.3161916264
 31
0.0
  0
LINE
  5
135
330
1F
100
AcDbEntity
  8
0
  6
SLD-Durchgehend
 62
     7
370
    25
100
AcDbLine
 10
426.2210045358
 20
1352.3161916264
 30
0.0
 11
433.4039066328
 21
1303.0907092826
 31
0.0
  0
LINE
  5
136
330
1F
100
AcDbEntity
  8
0
  6
SLD-Durchgehend
 62
     7
370
    25
100
AcDbLine
 10
433.4039066328
 20
1303.0907092826
 30
0.0
 11
425.1779202714
 21
1253.0372021924
 31
0.0
  0
LINE
  5
137
330
1F
100
AcDbEntity
  8
0
  6
SLD-Durchgehend
 62
     7
370
    25
100
AcDbLine
 10
425.1779202714
 20
1253.0372021924
 30
0.0
 11
424.8260144484
 21
1249.5253993403
 31
0.0
  0
LINE
  5
138
330
1F
100
AcDbEntity
  8
0
  6
SLD-Durchgehend
 62
     7
370
    25
100
AcDbLine
 10
424.8260144484
 20
1249.5253993403
 30
0.0
 11
424.8098139066
 21
1248.0331925885
 31
0.0
  0
LINE
  5
139
330
1F
100
AcDbEntity
  8
0
  6
SLD-Durchgehend
 62
     7
370
    25
100
AcDbLine
 10
424.8098139066
 20
1248.0331925885
 30
0.0
 11
423.5552106396
 21
1207.2776032814
 31
0.0
  0
LINE
  5
13A
330
1F
100
AcDbEntity
  8
0
  6
SLD-Durchgehend
 62
     7
370
    25
100
AcDbLine
 10
423.5552106396
 20
1207.2776032814
 30
0.0
 11
417.9383162754
 21
1184.3572957646
 31
0.0
  0
LINE
  5
13B
330
1F
100
AcDbEntity
  8
0
  6
SLD-Durchgehend
 62
     7
370
    25
100
AcDbLine
 10
417.9383162754
 20
1184.3572957646
 30
0.0
 11
413.5985289114
 21
1150.6126990748
 31
0.0
  0
LINE
  5
13C
330
1F
100
AcDbEntity
  8
0
  6
SLD-Durchgehend
 62
     7
370
    25
100
AcDbLine
 10
413.5985289114
 20
1150.6126990748
 30
0.0
 11
416.1698285838
 21
1125.0824010206
 31
0.0
  0
LINE
  5
13D
330
1F
100
AcDbEntity
  8
0
  6
SLD-Durchgehend
 62
     7
370
    25
100
AcDbLine
 10
416.1698285838
 20
1125.0824010206
 30
0.0
 11
415.2842168109
 21
1098.4865015579
 31
0.0
  0
LINE
  5
13E
330
1F
100
AcDbEntity
  8
0
  6
SLD-Durchgehend
 62
     7
370
    25
100
AcDbLine
 10
415.2842168109
 20
1098.4865015579
 30
0.0
 11
389.4920144574
 21
1050.4210989197
 31
0.0
  0
LINE
  5
13F
330
1F
100
AcDbEntity
  8
0
  6
SLD-Durchgehend
 62
     7
370
    25
100
AcDbLine
 10
389.4920144574
 20
1050.4210989197
 30
0.0
 11
394.6472201841
 21
1008.6997995359
 31
0.0
  0
LINE
  5
140
330
1F
100
AcDbEntity
  8
0
  6
SLD-Durchgehend
 62
     7
370
    25
100
AcDbLine
 10
394.6472201841
 20
1008.6997995359
 30
0.0
 11
394.190922786
 21
1006.6099999678
 31
0.0
  0
LINE
  5
141
330
1F
100
AcDbEntity
  8
0
  6
SLD-Durchgehend
 62
     7
370
    25
100
AcDbLine
 10
394.190922786
 20
1006.6099999678
 30
0.0
 11
389.0330080287
 21
973.7338958514
 31
0.0
  0
LINE
  5
142
330
1F
100
AcDbEntity
  8
0
  6
SLD-Durchgehend
 62
     7
370
    25
100
AcDbLine
 10
389.0330080287
 20
973.7338958514
 30
0.0
 11
388.3301083338
 21
948.2701970471
 31
0.0
  0
LINE
  5
143
330
1F
100
AcDbEntity
  8
0
  6
SLD-Durchgehend
 62
     7
370
    25
100
AcDbLine
 10
388.3301083338
 20
948.2701970471
 30
0.0
 11
389.399317314
 21
934.1365983917
 31
0.0
  0
LINE
  5
144
330
1F
100
AcDbEntity
  8
0
  6
SLD-Durchgehend
 62
     7
370
    25
100
AcDbLine
 10
389.399317314
 20
934.1365983917
 30
0.0
 11
382.7402238147
 21
913.6705992953
 31
0.0
  0
LINE
  5
145
330
1F
100
AcDbEntity
  8
0
  6
SLD-Durchgehend
 62
     7
370
    25
100
AcDbLine
 10
382.7402238147
 20
913.6705992953
 30
0.0
 11
376.1504117745
 21
900.9148983494
 31
0.0
  0
LINE
  5
146
330
1F
100
AcDbEntity
  8
0
  6
SLD-Durchgehend
 62
     7
370
    25
100
AcDbLine
 10
376.1504117745
 20
900.9148983494
 30
0.0
 11
375.5555246373
 21
895.6354929341
 31
0.0
  0
LINE
  5
147
330
1F
100
AcDbEntity
  8
0
  6
SLD-Durchgehend
 62
     7
370
    25
100
AcDbLine
 10
375.5555246373
 20
895.6354929341
 30
0.0
 11
359.081906487
 21
860.7622964513
 31
0.0
  0
LINE
  5
148
330
1F
100
AcDbEntity
  8
0
  6
SLD-Durchgehend
 62
     7
370
    25
100
AcDbLine
 10
359.081906487
 20
860.7622964513
 30
0.0
 11
355.649322678
 21
852.5912014976
 31
0.0
  0
LINE
  5
149
330
1F
100
AcDbEntity
  8
0
  6
SLD-Durchgehend
 62
     7
370
    25
100
AcDbLine
 10
355.649322678
 20
852.5912014976
 30
0.0
 11
354.5675073159
 21
849.5617939367
 31
0.0
  0
LINE
  5
14A
330
1F
100
AcDbEntity
  8
0
  6
SLD-Durchgehend
 62
     7
370
    25
100
AcDbLine
 10
354.5675073159
 20
849.5617939367
 30
0.0
 11
342.1403233305
 21
806.1628876457
 31
0.0
  0
LINE
  5
14B
330
1F
100
AcDbEntity
  8
0
  6
SLD-Durchgehend
 62
     7
370
    25
100
AcDbLine
 10
342.1403233305
 20
806.1628876457
 30
0.0
 11
343.500203301
 21
770.7991956008
 31
0.0
  0
LINE
  5
14C
330
1F
100
AcDbEntity
  8
0
  6
SLD-Durchgehend
 62
     7
370
    25
100
AcDbLine
 10
343.500203301
 20
770.7991956008
 30
0.0
 11
342.5984178081
 21
746.2084887752
 31
0.0
  0
LINE
  5
14D
330
1F
100
AcDbEntity
  8
0
  6
SLD-Durchgehend
 62
     7
370
    25
100
AcDbLine
 10
342.5984178081
 20
746.2084887752
 30
0.0
 11
326.2121055618
 21
712.6438884269
 31
0.0
  0
LINE
  5
14E
330
1F
100
AcDbEntity
  8
0
  6
SLD-Durchgehend
 62
     7
370
    25
100
AcDbLine
 10
326.2121055618
 20
712.6438884269
 30
0.0
 11
314.8019079459
 21
687.8615109458
 31
0.0
  0
LINE
  5
14F
330
1F
100
AcDbEntity
  8
0
  6
SLD-Durchgehend
 62
     7
370
    25
100
AcDbLine
 10
314.8019079459
 20
687.8615109458
 30
0.0
 11
310.7078109285
 21
680.457192494
 31
0.0
  0
LINE
  5
150
330
1F
100
AcDbEntity
  8
0
  6
SLD-Durchgehend
 62
     7
370
    25
100
AcDbLine
 10
310.7078109285
 20
680.457192494
 30
0.0
 11
314.0639249577
 21
662.3177079686
 31
0.0
  0
LINE
  5
151
330
1F
100
AcDbEntity
  8
0
  6
SLD-Durchgehend
 62
     7
370
    25
100
AcDbLine
 10
314.0639249577
 20
662.3177079686
 30
0.0
 11
314.4329164518
 21
657.9203067554
 31
0.0
  0
LINE
  5
152
330
1F
100
AcDbEntity
  8
0
  6
SLD-Durchgehend
 62
     7
370
    25
100
AcDbLine
 10
314.4329164518
 20
657.9203067554
 30
0.0
 11
316.5074173707
 21
618.9286856189
 31
0.0
  0
LINE
  5
153
330
1F
100
AcDbEntity
  8
0
  6
SLD-Durchgehend
 62
     7
370
    25
100
AcDbLine
 10
316.5074173707
 20
618.9286856189
 30
0.0
 11
316.1942158236
 21
617.379790379
 31
0.0
  0
LINE
  5
154
330
1F
100
AcDbEntity
  8
0
  6
SLD-Durchgehend
 62
     7
370
    25
100
AcDbLine
 10
316.1942158236
 20
617.379790379
 30
0.0
 11
310.1201121111
 21
582.4031142722
 31
0.0
  0
LINE
  5
155
330
1F
100
AcDbEntity
  8
0
  6
SLD-Durchgehend
 62
     7
370
    25
100
AcDbLine
 10
310.1201121111
 20
582.4031142722
 30
0.0
 11
305.7002071638
 21
552.2612003816
 31
0.0
  0
LINE
  5
156
330
1F
100
AcDbEntity
  8
0
  6
SLD-Durchgehend
 62
     7
370
    25
100
AcDbLine
 10
305.7002071638
 20
552.2612003816
 30
0.0
 11
304.7300253411
 21
549.4963793288
 31
0.0
  0
LINE
  5
157
330
1F
100
AcDbEntity
  8
0
  6
SLD-Durchgehend
 62
     7
370
    25
100
AcDbLine
 10
304.7300253411
 20
549.4963793288
 30
0.0
 11
304.1576151153
 21
542.943474485
 31
0.0
  0
LINE
  5
158
330
1F
100
AcDbEntity
  8
0
  6
SLD-Durchgehend
 62
     7
370
    25
100
AcDbLine
 10
304.1576151153
 20
542.943474485
 30
0.0
 11
300.0464056032
 21
509.3896834382
 31
0.0
  0
LINE
  5
159
330
1F
100
AcDbEntity
  8
0
  6
SLD-Durchgehend
 62
     7
370
    25
100
AcDbLine
 10
300.0464056032
 20
509.3896834382
 30
0.0
 11
290.0474254383
 21
479.0875880255
 31
0.0
  0
LINE
  5
15A
330
1F
100
AcDbEntity
  8
0
  6
SLD-Durchgehend
 62
     7
370
    25
100
AcDbLine
 10
290.0474254383
 20
479.0875880255
 30
0.0
 11
285.5699066418
 21
463.092824651
 31
0.0
  0
LINE
  5
15B
330
1F
100
AcDbEntity
  8
0
  6
SLD-Durchgehend
 62
     7
370
    25
100
AcDbLine
 10
285.5699066418
 20
463.092824651
 30
0.0
 11
287.8577236428
 21
439.9880079758
 31
0.0
  0
LINE
  5
15C
330
1F
100
AcDbEntity
  8
0
  6
SLD-Durchgehend
 62
     7
370
    25
100
AcDbLine
 10
287.8577236428
 20
439.9880079758
 30
0.0
 11
293.318003823
 21
403.912404014
 31
0.0
  0
LINE
  5
15D
330
1F
100
AcDbEntity
  8
0
  6
SLD-Durchgehend
 62
     7
370
    25
100
AcDbLine
 10
293.318003823
 20
403.912404014
 30
0.0
 11
292.1768043531
 21
395.5414978994
 31
0.0
  0
LINE
  5
15E
330
1F
100
AcDbEntity
  8
0
  6
SLD-Durchgehend
 62
     7
370
    25
100
AcDbLine
 10
292.1768043531
 20
395.5414978994
 30
0.0
 11
293.0822108286
 21
378.0040888319
 31
0.0
  0
LINE
  5
15F
330
1F
100
AcDbEntity
  8
0
  6
SLD-Durchgehend
 62
     7
370
    25
100
AcDbLine
 10
293.0822108286
 20
378.0040888319
 30
0.0
 11
292.8680096163
 21
355.0972728263
 31
0.0
  0
LINE
  5
160
330
1F
100
AcDbEntity
  8
0
  6
SLD-Durchgehend
 62
     7
370
    25
100
AcDbLine
 10
292.8680096163
 20
355.0972728263
 30
0.0
 11
291.1121283075
 21
333.3199886807
 31
0.0
  0
LINE
  5
161
330
1F
100
AcDbEntity
  8
0
  6
SLD-Durchgehend
 62
     7
370
    25
100
AcDbLine
 10
291.1121283075
 20
333.3199886807
 30
0.0
 11
284.425113012
 21
316.1749867925
 31
0.0
  0
LINE
  5
162
330
1F
100
AcDbEntity
  8
0
  6
SLD-Durchgehend
 62
     7
370
    25
100
AcDbLine
 10
284.425113012
 20
316.1749867925
 30
0.0
 11
285.1973209878
 21
308.4745792874
 31
0.0
  0
LINE
  5
163
330
1F
100
AcDbEntity
  8
0
  6
SLD-Durchgehend
 62
     7
370
    25
100
AcDbLine
 10
285.1973209878
 20
308.4745792874
 30
0.0
 11
283.8428054349
 21
298.7528054252
 31
0.0
  0
LINE
  5
164
330
1F
100
AcDbEntity
  8
0
  6
SLD-Durchgehend
 62
     7
370
    25
100
AcDbLine
 10
283.8428054349
 20
298.7528054252
 30
0.0
 11
278.2367203731
 21
268.7207011709
 31
0.0
  0
LINE
  5
165
330
1F
100
AcDbEntity
  8
0
  6
SLD-Durchgehend
 62
     7
370
    25
100
AcDbLine
 10
278.2367203731
 20
268.7207011709
 30
0.0
 11
262.1006045835
 21
230.7973770635
 31
0.0
  0
LINE
  5
166
330
1F
100
AcDbEntity
  8
0
  6
SLD-Durchgehend
 62
     7
370
    25
100
AcDbLine
 10
262.1006045835
 20
230.7973770635
 30
0.0
 11
263.7035195127
 21
210.427716209
 31
0.0
  0
LINE
  5
167
330
1F
100
AcDbEntity
  8
0
  6
SLD-Durchgehend
 62
     7
370
    25
100
AcDbLine
 10
257.1940639246
 20
162.3955369828
 30
0.0
 11
263.7035195127
 21
210.427716209
 31
0.0
  0
LINE
  5
168
330
1F
100
AcDbEntity
  8
0
  6
SLD-Durchgehend
 62
     7
370
    25
100
AcDbLine
 10
249.422540441
 20
134.8573124648
 30
0.0
 11
257.1940639246
 21
162.3955369828
 31
0.0
  0
LINE
  5
169
330
1F
100
AcDbEntity
  8
0
  6
SLD-Durchgehend
 62
     7
370
    25
100
AcDbLine
 10
235.2310627752
 20
107.6569802721
 30
0.0
 11
249.422540441
 21
134.8573124648
 31
0.0
  0
LINE
  5
16A
330
1F
100
AcDbEntity
  8
0
  6
SLD-Durchgehend
 62
     7
370
    25
100
AcDbLine
 10
209.5595229759
 20
65.7787589564
 30
0.0
 11
235.2310627752
 21
107.6569802721
 31
0.0
  0
LINE
  5
16B
330
1F
100
AcDbEntity
  8
0
  6
SLD-Durchgehend
 62
     7
370
    25
100
AcDbLine
 10
209.5595229759
 20
65.7787589564
 30
0.0
 11
200.6873119968
 21
30.2629856603
 31
0.0
  0
LINE
  5
16C
330
1F
100
AcDbEntity
  8
0
  6
SLD-Durchgehend
 62
     7
370
    25
100
AcDbLine
 10
200.6873119968
 20
30.2629856603
 30
0.0
 11
184.7798142927
 21
25.5595712198
 31
0.0
  0
LINE
  5
16D
330
1F
100
AcDbEntity
  8
0
  6
SLD-Durchgehend
 62
     7
370
    25
100
AcDbLine
 10
184.7798142927
 20
25.5595712198
 30
0.0
 11
178.3601213595
 21
26.4893321525
 31
0.0
  0
LINE
  5
16E
330
1F
100
AcDbEntity
  8
0
  6
SLD-Durchgehend
 62
     7
370
    25
100
AcDbLine
 10
178.3601213595
 20
26.4893321525
 30
0.0
 11
166.473818232
 21
58.3771495352
 31
0.0
  0
LINE
  5
16F
330
1F
100
AcDbEntity
  8
0
  6
SLD-Durchgehend
 62
     7
370
    25
100
AcDbLine
 10
166.473818232
 20
58.3771495352
 30
0.0
 11
162.0782140983
 21
63.7763289944
 31
0.0
  0
LINE
  5
170
330
1F
100
AcDbEntity
  8
0
  6
SLD-Durchgehend
 62
     7
370
    25
100
AcDbLine
 10
162.0782140983
 20
63.7763289944
 30
0.0
 11
155.4308150307
 21
104.1944293508
 31
0.0
  0
LINE
  5
171
330
1F
100
AcDbEntity
  8
0
  6
SLD-Durchgehend
 62
     7
370
    25
100
AcDbLine
 10
155.4308150307
 20
104.1944293508
 30
0.0
 11
154.5443181294
 21
107.3561100494
 31
0.0
  0
LINE
  5
172
330
1F
100
AcDbEntity
  8
0
  6
SLD-Durchgehend
 62
     7
370
    25
100
AcDbLine
 10
154.5443181294
 20
107.3561100494
 30
0.0
 11
153.9323184984
 21
108.8357238302
 31
0.0
  0
LINE
  5
173
330
1F
100
AcDbEntity
  8
0
  6
SLD-Durchgehend
 62
     7
370
    25
100
AcDbLine
 10
153.9323184984
 20
108.8357238302
 30
0.0
 11
144.017009844
 21
131.3662795556
 31
0.0
  0
LINE
  5
174
330
1F
100
AcDbEntity
  8
0
  6
SLD-Durchgehend
 62
     7
370
    25
100
AcDbLine
 10
144.017009844
 20
131.3662795556
 30
0.0
 11
128.6594186325
 21
145.582684709
 31
0.0
  0
LINE
  5
175
330
1F
100
AcDbEntity
  8
0
  6
SLD-Durchgehend
 62
     7
370
    25
100
AcDbLine
 10
128.6594186325
 20
145.582684709
 30
0.0
 11
114.2414186496
 21
162.744799091
 31
0.0
  0
LINE
  5
176
330
1F
100
AcDbEntity
  8
0
  6
SLD-Durchgehend
 62
     7
370
    25
100
AcDbLine
 10
79.1153166787
 20
247.7722732556
 30
0.0
 11
114.2414186496
 21
162.744799091
 31
0.0
  0
LINE
  5
177
330
1F
100
AcDbEntity
  8
0
  6
SLD-Durchgehend
 62
     7
370
    25
100
AcDbLine
 10
79.1153166787
 20
247.7722732556
 30
0.0
 11
81.984515895
 21
255.3332058923
 31
0.0
  0
CIRCLE
  5
178
330
1F
100
AcDbEntity
  8
0
  6
SLD-Durchgehend
 62
     7
370
    25
100
AcDbCircle
 10
236.4942898365
 20
147.2816025227
 30
0.0
 40
4.5
  0
CIRCLE
  5
179
330
1F
100
AcDbEntity
  8
0
  6
SLD-Durchgehend
 62
     7
370
    25
100
AcDbCircle
 10
158.6863592776
 20
147.2816025227
 30
0.0
 40
4.5
  0
CIRCLE
  5
17A
330
1F
100
AcDbEntity
  8
0
  6
SLD-Durchgehend
 62
     7
370
    25
100
AcDbCircle
 10
157.840320668
 20
816.0738354535
 30
0.0
 40
6.125
  0
CIRCLE
  5
17B
330
1F
100
AcDbEntity
  8
0
  6
SLD-Durchgehend
 62
     7
370
    25
100
AcDbCircle
 10
290.3070477568
 20
816.0738354535
 30
0.0
 40
6.125
  0
CIRCLE
  5
17C
330
1F
100
AcDbEntity
  8
0
  6
SLD-Durchgehend
 62
     7
370
    25
100
AcDbCircle
 10
180.8428702081
 20
1057.88034805
 30
0.0
 40
6.124999999999972
  0
CIRCLE
  5
17D
330
1F
100
AcDbEntity
  8
0
  6
SLD-Durchgehend
 62
     7
370
    25
100
AcDbCircle
 10
316.00417303
 20
1057.88034805
 30
0.0
 40
6.125
  0
CIRCLE
  5
17E
330
1F
100
AcDbEntity
  8
0
  6
SLD-Durchgehend
 62
     7
370
    25
100
AcDbCircle
 10
506.8563278491
 20
1867.4065988814
 30
0.0
 40
6.125000000000114
  0
CIRCLE
  5
17F
330
1F
100
AcDbEntity
  8
0
  6
SLD-Durchgehend
 62
     7
370
    25
100
AcDbCircle
 10
348.9795740873
 20
1867.4065988814
 30
0.0
 40
6.125
  0
CIRCLE
  5
180
330
1F
100
AcDbEntity
  8
0
  6
SLD-Durchgehend
 62
     7
370
    25
100
AcDbCircle
 10
196.7818402449
 20
1867.4065988814
 30
0.0
 40
6.125
  0
CIRCLE
  5
181
330
1F
100
AcDbEntity
  8
0
  6
SLD-Durchgehend
 62
     7
370
    25
100
AcDbCircle
 10
355.0805134166
 20
1907.4065988814
 30
0.0
 40
6.125
  0
CIRCLE
  5
182
330
1F
100
AcDbEntity
  8
0
  6
SLD-Durchgehend
 62
     7
370
    25
100
AcDbCircle
 10
280.9161688695
 20
1094.3305918845
 30
0.0
 40
6.125
  0
CIRCLE
  5
183
330
1F
100
AcDbEntity
  8
0
  6
SLD-Durchgehend
 62
     7
370
    25
100
AcDbCircle
 10
219.5264122007
 20
876.7399015167
 30
0.0
 40
6.125
  0
CIRCLE
  5
184
330
1F
100
AcDbEntity
  8
0
  6
SLD-Durchgehend
 62
     7
370
    25
100
AcDbCircle
 10
180.9161688695
 20
1094.3305918845
 30
0.0
 40
6.124999999999972
  0
CIRCLE
  5
185
330
1F
100
AcDbEntity
  8
0
  6
SLD-Durchgehend
 62
     7
370
    25
100
AcDbCircle
 10
166.0217862321
 20
187.2816025227
 30
0.0
 40
6.125
  0
LWPOLYLINE
  5
186
330
1F
100
AcDbEntity
  8
0
  6
SLD-Durchgehend
 62
     2
420
 16776960
370
    25
100
AcDbPolyline
 90
        3
 70
   128
 43
0.0
 10
170.7374420976
 20
167.6610525423
 10
170.8954398549
 20
168.3571655457
 10
170.9267449822
 20
168.9180637603
  0
ARC
  5
187
330
1F
100
AcDbEntity
  8
0
  6
SLD-Durchgehend
 62
     2
420
 16776960
370
    25
100
AcDbCircle
 10
169.6275243394
 20
167.9486480089
 30
0.0
 40
1.146572536815155
100
AcDbArc
 50
271.8593311681
 51
345.4733323125
  0
LWPOLYLINE
  5
188
330
1F
100
AcDbEntity
  8
0
  6
SLD-Durchgehend
 62
     2
420
 16776960
370
    25
100
AcDbPolyline
 90
        5
 70
   128
 43
0.0
 10
168.4267449822
 20
168.9180637603
 10
168.6187282708
 20
167.5672716477
 10
169.0271364934
 20
167.0254558819
 10
169.3279632699
 20
166.8621139954
 10
169.6647257514
 20
166.8026791449
  0
LWPOLYLINE
  5
189
330
1F
100
AcDbEntity
  8
0
  6
SLD-Durchgehend
 62
     2
420
 16776960
370
    25
100
AcDbPolyline
 90
        6
 70
   128
 43
0.0
 10
169.6647257514
 20
171.0334483757
 10
169.3275355854
 20
170.9755689931
 10
169.026857989
 20
170.8115463268
 10
168.7870159964
 20
170.5677188765
 10
168.6189876743
 20
170.2691080774
 10
168.4267449822
 20
168.9180637603
  0
LWPOLYLINE
  5
18A
330
1F
100
AcDbEntity
  8
0
  6
SLD-Durchgehend
 62
     2
420
 16776960
370
    25
100
AcDbPolyline
 90
        5
 70
   128
 43
0.0
 10
170.9267449822
 20
168.9180637603
 10
170.7049268443
 20
170.2632428661
 10
170.3011898975
 20
170.8088100442
 10
170.0014394164
 20
170.9742250044
 10
169.6647257514
 20
171.0334483757
  0
CIRCLE
  5
18B
330
1F
100
AcDbEntity
  8
0
  6
SLD-Durchgehend
 62
     7
370
    25
100
AcDbCircle
 10
155.6469030459
 20
1907.4065988814
 30
0.0
 40
6.125
  0
CIRCLE
  5
18C
330
1F
100
AcDbEntity
  8
0
  6
SLD-Durchgehend
 62
     7
370
    25
100
AcDbCircle
 10
119.5264122007
 20
876.7399015167
 30
0.0
 40
6.125
  0
ENDSEC
  0
SECTION
  2
OBJECTS
  0
DICTIONARY
  5
C
330
0
100
AcDbDictionary
281
     1
  3
ACAD_DETAILVIEWSTYLE
350
194
  3
ACAD_GROUP
350
D
  3
ACAD_LAYOUT
350
1A
  3
ACAD_MATERIAL
350
43
  3
ACAD_MLEADERSTYLE
350
6B
  3
ACAD_MLINESTYLE
350
17
  3
ACAD_PLOTSETTINGS
350
19
  3
ACAD_PLOTSTYLENAME
350
E
  3
ACAD_SCALELIST
350
47
  3
ACAD_SECTIONVIEWSTYLE
350
195
  3
ACAD_TABLESTYLE
350
69
  3
ACAD_VISUALSTYLE
350
2A
  3
ACDB_RECOMPOSE_DATA
350
191
  3
AcDbVariableDictionary
350
18D
  0
SUN
  5
6D
330
29
100
AcDbSun
 90
        1
290
     0
 63
     7
421
 16777215
 40
1.0
291
     1
 91
  2455826
 92
 54000000
292
     0
 70
     2
 71
   256
280
     1
  0
DICTIONARY
  5
194
102
{ACAD_REACTORS
330
C
102
}
330
C
100
AcDbDictionary
281
     1
  0
DICTIONARY
  5
D
102
{ACAD_REACTORS
330
C
102
}
330
C
100
AcDbDictionary
281
     1
  0
DICTIONARY
  5
1A
102
{ACAD_REACTORS
330
C
102
}
330
C
100
AcDbDictionary
281
     1
  3
Layout1
350
1E
  3
Layout2
350
26
  3
Model
350
22
  0
DICTIONARY
  5
43
102
{ACAD_REACTORS
330
C
102
}
330
C
100
AcDbDictionary
281
     1
  3
ByBlock
350
45
  3
ByLayer
350
44
  3
Global
350
46
  0
DICTIONARY
  5
6B
102
{ACAD_REACTORS
330
C
102
}
330
C
100
AcDbDictionary
281
     1
  3
Standard
350
6C
  0
DICTIONARY
  5
17
102
{ACAD_REACTORS
330
C
102
}
330
C
100
AcDbDictionary
281
     1
  3
Standard
350
18
  0
DICTIONARY
  5
19
102
{ACAD_REACTORS
330
C
102
}
330
C
100
AcDbDictionary
281
     1
  0
ACDBDICTIONARYWDFLT
  5
E
102
{ACAD_REACTORS
330
C
102
}
330
C
100
AcDbDictionary
281
     1
  3
Normal
350
F
100
AcDbDictionaryWithDefault
340
F
  0
DICTIONARY
  5
47
102
{ACAD_REACTORS
330
C
102
}
330
C
100
AcDbDictionary
281
     1
  3
A0
350
48
  3
A1
350
49
  3
A2
350
4A
  3
A3
350
4B
  3
A4
350
4C
  3
A5
350
4D
  3
A6
350
4E
  3
A7
350
4F
  3
A8
350
50
  3
A9
350
51
  3
B0
350
52
  3
B1
350
53
  3
B2
350
54
  3
B3
350
55
  3
B4
350
56
  3
B5
350
57
  3
B6
350
58
  3
B7
350
59
  3
B8
350
5A
  3
B9
350
5B
  3
C0
350
5C
  3
C1
350
5D
  3
C2
350
5E
  3
C3
350
5F
  3
C4
350
60
  3
C5
350
61
  3
C6
350
62
  3
C7
350
63
  3
C8
350
64
  3
C9
350
65
  3
D0
350
66
  3
D1
350
67
  3
D2
350
68
  0
DICTIONARY
  5
195
102
{ACAD_REACTORS
330
C
102
}
330
C
100
AcDbDictionary
281
     1
  0
DICTIONARY
  5
69
102
{ACAD_REACTORS
330
C
102
}
330
C
100
AcDbDictionary
281
     1
  3
Standard
350
6A
  0
DICTIONARY
  5
2A
102
{ACAD_REACTORS
330
C
102
}
330
C
100
AcDbDictionary
281
     1
  3
2dWireframe
350
2F
  3
Basic
350
32
  3
Brighten
350
36
  3
ColorChange
350
3A
  3
Conceptual
350
34
  3
Dim
350
35
  3
EdgeColorOff
350
3D
  3
Facepattern
350
39
  3
Flat
350
2B
  3
FlatWithEdges
350
2C
  3
Gouraud
350
2D
  3
GouraudWithEdges
350
2E
  3
Hidden
350
31
  3
JitterOff
350
3B
  3
Linepattern
350
38
  3
OverhangOff
350
3C
  3
Realistic
350
33
  3
Shaded
350
42
  3
Shaded with edges
350
41
  3
Shades of Gray
350
3E
  3
Sketchy
350
3F
  3
Thicken
350
37
  3
Wireframe
350
30
  3
X-Ray
350
40
  0
XRECORD
  5
191
102
{ACAD_REACTORS
330
C
102
}
330
C
100
AcDbXrecord
280
     1
 90
        1
330
6A
  0
DICTIONARY
  5
18D
102
{ACAD_REACTORS
330
C
102
}
330
C
100
AcDbDictionary
281
     1
  3
CANNOSCALE
350
18E
  3
CENTEREXE
350
196
  3
CENTERLTYPEFILE
350
197
  3
CMLEADERSTYLE
350
193
  3
CTABLESTYLE
350
192
  0
LAYOUT
  5
1E
102
{ACAD_REACTORS
330
1A
102
}
330
1A
100
AcDbPlotSettings
  1

  2
none_device
  4

  6

 40
0.0
 41
0.0
 42
0.0
 43
0.0
 44
0.0
 45
0.0
 46
0.0
 47
0.0
 48
0.0
 49
0.0
140
0.0
141
0.0
142
1.0
143
1.0
 70
   688
 72
     1
 73
     0
 74
     5
  7

 75
    16
 76
     0
 77
     2
 78
   300
147
1.0
148
0.0
149
0.0
100
AcDbLayout
  1
Layout1
 70
     1
 71
     1
 10
0.0
 20
0.0
 11
420.0
 21
297.0
 12
0.0
 22
0.0
 32
0.0
 14
1.0000000000E+20
 24
1.0000000000E+20
 34
1.0000000000E+20
 15
-1.0000000000E+20
 25
-1.0000000000E+20
 35
-1.0000000000E+20
146
0.0
 13
0.0
 23
0.0
 33
0.0
 16
1.0
 26
0.0
 36
0.0
 17
0.0
 27
1.0
 37
0.0
 76
     0
330
1B
  0
LAYOUT
  5
26
102
{ACAD_REACTORS
330
1A
102
}
330
1A
100
AcDbPlotSettings
  1

  2
none_device
  4

  6

 40
0.0
 41
0.0
 42
0.0
 43
0.0
 44
0.0
 45
0.0
 46
0.0
 47
0.0
 48
0.0
 49
0.0
140
0.0
141
0.0
142
1.0
143
1.0
 70
   688
 72
     1
 73
     0
 74
     5
  7

 75
    16
 76
     0
 77
     2
 78
   300
147
1.0
148
0.0
149
0.0
100
AcDbLayout
  1
Layout2
 70
     1
 71
     2
 10
0.0
 20
0.0
 11
0.0
 21
0.0
 12
0.0
 22
0.0
 32
0.0
 14
0.0
 24
0.0
 34
0.0
 15
0.0
 25
0.0
 35
0.0
146
0.0
 13
0.0
 23
0.0
 33
0.0
 16
1.0
 26
0.0
 36
0.0
 17
0.0
 27
1.0
 37
0.0
 76
     0
330
23
  0
LAYOUT
  5
22
102
{ACAD_REACTORS
330
1A
102
}
330
1A
100
AcDbPlotSettings
  1

  2
none_device
  4
Letter_(8.50_x_11.00_Inches)
  6

 40
6.35
 41
6.35
 42
6.35000508
 43
6.35000508
 44
215.9
 45
279.4
 46
0.0
 47
0.0
 48
0.0
 49
0.0
140
0.0
141
0.0
142
1.0
143
1.0
 70
  1712
 72
     1
 73
     0
 74
     0
  7

 75
     0
 76
     0
 77
     2
 78
   300
147
1.0
148
0.0
149
0.0
100
AcDbLayout
  1
Model
 70
     1
 71
     0
 10
0.0
 20
0.0
 11
600.0
 21
2000.0
 12
0.0
 22
0.0
 32
0.0
 14
0.0
 24
0.0
 34
0.0
 15
600.0
 25
2000.0
 35
0.0
146
0.0
 13
0.0
 23
0.0
 33
0.0
 16
1.0
 26
0.0
 36
0.0
 17
0.0
 27
1.0
 37
0.0
 76
     0
330
1F
331
29
  0
MATERIAL
  5
45
102
{ACAD_REACTORS
330
43
102
}
330
43
100
AcDbMaterial
  1
ByBlock
 72
     1
 94
      127
  0
MATERIAL
  5
44
102
{ACAD_REACTORS
330
43
102
}
330
43
100
AcDbMaterial
  1
ByLayer
 72
     1
 94
      127
  0
MATERIAL
  5
46
102
{ACAD_REACTORS
330
43
102
}
330
43
100
AcDbMaterial
  1
Global
 72
     1
 94
      127
  0
MLEADERSTYLE
  5
6C
102
{ACAD_REACTORS
330
6B
102
}
330
6B
100
AcDbMLeaderStyle
179
     2
170
     2
171
     1
172
     0
 90
        2
 40
0.0
 41
0.0
173
     1
 91
-1056964608
340
14
 92
       -2
290
     1
 42
2.0
291
     1
 43
8.0
  3
Standard
341
0
 44
4.0
300

342
11
174
     1
178
     6
175
     1
176
     0
 93
-1056964608
 45
4.0
292
     0
297
     0
 46
4.0
343
0
 94
-1056964608
 47
1.0
 49
1.0
140
1.0
293
     1
141
0.0
294
     1
177
     0
142
1.0
295
     0
296
     0
143
3.75
271
     0
272
     9
273
     9
298
     0
  0
MLINESTYLE
  5
18
102
{ACAD_REACTORS
330
17
102
}
330
17
100
AcDbMlineStyle
  2
Standard
 70
     0
  3

 62
   256
 51
90.0
 52
90.0
 71
     2
 49
0.5
 62
   256
  6
BYLAYER
 49
-0.5
 62
   256
  6
BYLAYER
  0
ACDBPLACEHOLDER
  5
F
102
{ACAD_REACTORS
330
E
102
}
330
E
  0
SCALE
  5
48
102
{ACAD_REACTORS
330
47
102
}
330
47
100
AcDbScale
 70
     0
300
1:1
140
1.0
141
1.0
290
     1
  0
SCALE
  5
49
102
{ACAD_REACTORS
330
47
102
}
330
47
100
AcDbScale
 70
     0
300
1:2
140
1.0
141
2.0
290
     0
  0
SCALE
  5
4A
102
{ACAD_REACTORS
330
47
102
}
330
47
100
AcDbScale
 70
     0
300
1:4
140
1.0
141
4.0
290
     0
  0
SCALE
  5
4B
102
{ACAD_REACTORS
330
47
102
}
330
47
100
AcDbScale
 70
     0
300
1:5
140
1.0
141
5.0
290
     0
  0
SCALE
  5
4C
102
{ACAD_REACTORS
330
47
102
}
330
47
100
AcDbScale
 70
     0
300
1:8
140
1.0
141
8.0
290
     0
  0
SCALE
  5
4D
102
{ACAD_REACTORS
330
47
102
}
330
47
100
AcDbScale
 70
     0
300
1:10
140
1.0
141
10.0
290
     0
  0
SCALE
  5
4E
102
{ACAD_REACTORS
330
47
102
}
330
47
100
AcDbScale
 70
     0
300
1:16
140
1.0
141
16.0
290
     0
  0
SCALE
  5
4F
102
{ACAD_REACTORS
330
47
102
}
330
47
100
AcDbScale
 70
     0
300
1:20
140
1.0
141
20.0
290
     0
  0
SCALE
  5
50
102
{ACAD_REACTORS
330
47
102
}
330
47
100
AcDbScale
 70
     0
300
1:30
140
1.0
141
30.0
290
     0
  0
SCALE
  5
51
102
{ACAD_REACTORS
330
47
102
}
330
47
100
AcDbScale
 70
     0
300
1:40
140
1.0
141
40.0
290
     0
  0
SCALE
  5
52
102
{ACAD_REACTORS
330
47
102
}
330
47
100
AcDbScale
 70
     0
300
1:50
140
1.0
141
50.0
290
     0
  0
SCALE
  5
53
102
{ACAD_REACTORS
330
47
102
}
330
47
100
AcDbScale
 70
     0
300
1:100
140
1.0
141
100.0
290
     0
  0
SCALE
  5
54
102
{ACAD_REACTORS
330
47
102
}
330
47
100
AcDbScale
 70
     0
300
2:1
140
2.0
141
1.0
290
     0
  0
SCALE
  5
55
102
{ACAD_REACTORS
330
47
102
}
330
47
100
AcDbScale
 70
     0
300
4:1
140
4.0
141
1.0
290
     0
  0
SCALE
  5
56
102
{ACAD_REACTORS
330
47
102
}
330
47
100
AcDbScale
 70
     0
300
8:1
140
8.0
141
1.0
290
     0
  0
SCALE
  5
57
102
{ACAD_REACTORS
330
47
102
}
330
47
100
AcDbScale
 70
     0
300
10:1
140
10.0
141
1.0
290
     0
  0
SCALE
  5
58
102
{ACAD_REACTORS
330
47
102
}
330
47
100
AcDbScale
 70
     0
300
100:1
140
100.0
141
1.0
290
     0
  0
SCALE
  5
59
102
{ACAD_REACTORS
330
47
102
}
330
47
100
AcDbScale
 70
     0
300
1/128" = 1'-0"
140
0.0078125
141
12.0
290
     0
  0
SCALE
  5
5A
102
{ACAD_REACTORS
330
47
102
}
330
47
100
AcDbScale
 70
     0
300
1/64" = 1'-0"
140
0.015625
141
12.0
290
     0
  0
SCALE
  5
5B
102
{ACAD_REACTORS
330
47
102
}
330
47
100
AcDbScale
 70
     0
300
1/32" = 1'-0"
140
0.03125
141
12.0
290
     0
  0
SCALE
  5
5C
102
{ACAD_REACTORS
330
47
102
}
330
47
100
AcDbScale
 70
     0
300
1/16" = 1'-0"
140
0.0625
141
12.0
290
     0
  0
SCALE
  5
5D
102
{ACAD_REACTORS
330
47
102
}
330
47
100
AcDbScale
 70
     0
300
3/32" = 1'-0"
140
0.09375
141
12.0
290
     0
  0
SCALE
  5
5E
102
{ACAD_REACTORS
330
47
102
}
330
47
100
AcDbScale
 70
     0
300
1/8" = 1'-0"
140
0.125
141
12.0
290
     0
  0
SCALE
  5
5F
102
{ACAD_REACTORS
330
47
102
}
330
47
100
AcDbScale
 70
     0
300
3/16" = 1'-0"
140
0.1875
141
12.0
290
     0
  0
SCALE
  5
60
102
{ACAD_REACTORS
330
47
102
}
330
47
100
AcDbScale
 70
     0
300
1/4" = 1'-0"
140
0.25
141
12.0
290
     0
  0
SCALE
  5
61
102
{ACAD_REACTORS
330
47
102
}
330
47
100
AcDbScale
 70
     0
300
3/8" = 1'-0"
140
0.375
141
12.0
290
     0
  0
SCALE
  5
62
102
{ACAD_REACTORS
330
47
102
}
330
47
100
AcDbScale
 70
     0
300
1/2" = 1'-0"
140
0.5
141
12.0
290
     0
  0
SCALE
  5
63
102
{ACAD_REACTORS
330
47
102
}
330
47
100
AcDbScale
 70
     0
300
3/4" = 1'-0"
140
0.75
141
12.0
290
     0
  0
SCALE
  5
64
102
{ACAD_REACTORS
330
47
102
}
330
47
100
AcDbScale
 70
     0
300
1" = 1'-0"
140
1.0
141
12.0
290
     0
  0
SCALE
  5
65
102
{ACAD_REACTORS
330
47
102
}
330
47
100
AcDbScale
 70
     0
300
1-1/2" = 1'-0"
140
1.5
141
12.0
290
     0
  0
SCALE
  5
66
102
{ACAD_REACTORS
330
47
102
}
330
47
100
AcDbScale
 70
     0
300
3" = 1'-0"
140
3.0
141
12.0
290
     0
  0
SCALE
  5
67
102
{ACAD_REACTORS
330
47
102
}
330
47
100
AcDbScale
 70
     0
300
6" = 1'-0"
140
6.0
141
12.0
290
     0
  0
SCALE
  5
68
102
{ACAD_REACTORS
330
47
102
}
330
47
100
AcDbScale
 70
     0
300
1'-0" = 1'-0"
140
12.0
141
12.0
290
     0
  0
TABLESTYLE
  5
6A
102
{ACAD_REACTORS
330
69
102
}
102
{ACAD_XDICTIONARY
360
18F
102
}
330
69
100
AcDbTableStyle
  3
Standard
 70
     0
 71
     0
 40
0.06
 41
0.06
280
     0
281
     0
  7
Standard
140
4.5
170
     2
 62
     0
 63
   257
283
     0
 90
        4
 91
        0
  1

274
    -2
284
     1
 64
     0
275
    -2
285
     1
 65
     0
276
    -2
286
     1
 66
     0
277
    -2
287
     1
 67
     0
278
    -2
288
     1
 68
     0
279
    -2
289
     1
 69
     0
  7
Standard
140
6.0
170
     5
 62
     0
 63
   257
283
     0
 90
        4
 91
        0
  1

274
    -2
284
     1
 64
     0
275
    -2
285
     1
 65
     0
276
    -2
286
     1
 66
     0
277
    -2
287
     1
 67
     0
278
    -2
288
     1
 68
     0
279
    -2
289
     1
 69
     0
  7
Standard
140
4.5
170
     5
 62
     0
 63
   257
283
     0
 90
        4
 91
        0
  1

274
    -2
284
     1
 64
     0
275
    -2
285
     1
 65
     0
276
    -2
286
     1
 66
     0
277
    -2
287
     1
 67
     0
278
    -2
288
     1
 68
     0
279
    -2
289
     1
 69
     0
  0
VISUALSTYLE
  5
2F
102
{ACAD_REACTORS
330
2A
102
}
330
2A
100
AcDbVisualStyle
  2
2dWireframe
 70
     4
177
     3
291
     0
 70
    58
 90
        0
176
     1
 90
        2
176
     1
 90
        0
176
     1
 90
        0
176
     1
 40
0.6
176
     1
 40
30.0
176
     1
 62
     7
420
 16777215
176
     1
 90
        1
176
     1
 90
        4
176
     1
 62
     7
176
     1
 62
   257
176
     1
 90
        1
176
     1
 90
        1
176
     1
 40
1.0
176
     1
 90
        0
176
     1
 62
   257
176
     1
 40
1.0
176
     1
 90
        1
176
     1
 90
        6
176
     1
 90
        2
176
     1
 62
     7
176
     1
 90
        5
176
     1
 90
        0
176
     1
 90
        0
176
     1
290
     0
176
     1
 90
        1
176
     1
 40
0.0
176
     1
 90
        0
176
     1
290
     1
176
     1
290
     1
176
     1
290
     0
176
     1
290
     0
176
     1
290
     0
176
     1
290
     0
176
     1
290
     0
176
     1
290
     0
176
     1
290
     0
176
     1
 90
       50
176
     1
 40
0.0
176
     1
 40
1.0
176
     1
 90
        0
176
     1
 62
    18
420
        0
176
     1
 90
       50
176
     1
 90
        3
176
     1
 62
     5
420
      255
176
     1
290
     0
176
     1
 90
       50
176
     1
 90
       50
176
     1
 90
       50
176
     1
290
     0
176
     1
 90
       50
176
     1
 62
   256
176
     0
 40
1.0
176
     0
 90
        2
176
     1
  1
strokes_ogs.tif
176
     1
290
     0
176
     1
 40
1.0
176
     1
 40
1.0
176
     1
  0
VISUALSTYLE
  5
32
102
{ACAD_REACTORS
330
2A
102
}
330
2A
100
AcDbVisualStyle
  2
Basic
 70
     7
177
     3
291
     1
 70
    58
 90
        1
176
     1
 90
        0
176
     1
 90
        1
176
     1
 90
        0
176
     1
 40
0.6
176
     1
 40
30.0
176
     1
 62
     7
420
 16777215
176
     1
 90
        0
176
     1
 90
        4
176
     1
 62
     7
176
     1
 62
   257
176
     1
 90
        1
176
     1
 90
        1
176
     1
 40
1.0
176
     1
 90
        8
176
     1
 62
     7
176
     1
 40
1.0
176
     1
 90
        1
176
     1
 90
        6
176
     1
 90
        2
176
     1
 62
     7
176
     1
 90
        5
176
     1
 90
        0
176
     1
 90
        0
176
     1
290
     0
176
     1
 90
        1
176
     1
 40
0.0
176
     1
 90
        0
176
     1
290
     0
176
     1
290
     1
176
     1
290
     1
176
     1
290
     0
176
     1
290
     0
176
     1
290
     0
176
     1
290
     0
176
     1
290
     0
176
     1
290
     0
176
     1
 90
       50
176
     1
 40
0.0
176
     1
 40
1.0
176
     1
 90
        0
176
     1
 62
    18
420
        0
176
     1
 90
       50
176
     1
 90
        3
176
     1
 62
     5
420
      255
176
     1
290
     0
176
     1
 90
       50
176
     1
 90
       50
176
     1
 90
       50
176
     1
290
     0
176
     1
 90
       50
176
     1
 62
   256
176
     0
 40
1.0
176
     0
 90
        2
176
     1
  1
strokes_ogs.tif
176
     1
290
     0
176
     1
 40
1.0
176
     1
 40
1.0
176
     1
  0
VISUALSTYLE
  5
36
102
{ACAD_REACTORS
330
2A
102
}
330
2A
100
AcDbVisualStyle
  2
Brighten
 70
    12
177
     3
291
     1
 70
    58
 90
        2
176
     1
 90
        2
176
     1
 90
        0
176
     1
 90
        0
176
     1
 40
0.6
176
     1
 40
30.0
176
     1
 62
     7
420
 16777215
176
     1
 90
        1
176
     1
 90
        4
176
     1
 62
     7
176
     1
 62
   257
176
     1
 90
        1
176
     1
 90
        1
176
     1
 40
1.0
176
     1
 90
        8
176
     1
 62
     7
176
     1
 40
1.0
176
     1
 90
        1
176
     1
 90
        6
176
     1
 90
        2
176
     1
 62
     7
176
     1
 90
        5
176
     1
 90
        0
176
     1
 90
        0
176
     1
290
     0
176
     1
 90
        1
176
     1
 40
50.0
176
     1
 90
        0
176
     1
290
     0
176
     1
290
     1
176
     1
290
     1
176
     1
290
     0
176
     1
290
     0
176
     1
290
     0
176
     1
290
     0
176
     1
290
     0
176
     1
290
     0
176
     1
 90
       50
176
     1
 40
0.0
176
     1
 40
1.0
176
     1
 90
        0
176
     1
 62
    18
420
        0
176
     1
 90
       50
176
     1
 90
        3
176
     1
 62
     5
420
      255
176
     1
290
     0
176
     1
 90
       50
176
     1
 90
       50
176
     1
 90
       50
176
     1
290
     0
176
     1
 90
       50
176
     1
 62
   256
176
     0
 40
1.0
176
     0
 90
        2
176
     1
  1
strokes_ogs.tif
176
     1
290
     0
176
     1
 40
1.0
176
     1
 40
1.0
176
     1
  0
VISUALSTYLE
  5
3A
102
{ACAD_REACTORS
330
2A
102
}
330
2A
100
AcDbVisualStyle
  2
ColorChange
 70
    16
177
     3
291
     1
 70
    58
 90
        2
176
     1
 90
        2
176
     1
 90
        3
176
     1
 90
        0
176
     1
 40
0.6
176
     1
 40
30.0
176
     1
 62
     8
420
  8421504
176
     1
 90
        1
176
     1
 90
        4
176
     1
 62
     7
176
     1
 62
   257
176
     1
 90
        1
176
     1
 90
        1
176
     1
 40
1.0
176
     1
 90
        8
176
     1
 62
     8
420
  8421504
176
     1
 40
1.0
176
     1
 90
        1
176
     1
 90
        6
176
     1
 90
        2
176
     1
 62
     7
176
     1
 90
        5
176
     1
 90
        0
176
     1
 90
        0
176
     1
290
     0
176
     1
 90
        1
176
     1
 40
0.0
176
     1
 90
        0
176
     1
290
     0
176
     1
290
     1
176
     1
290
     1
176
     1
290
     0
176
     1
290
     0
176
     1
290
     0
176
     1
290
     0
176
     1
290
     0
176
     1
290
     0
176
     1
 90
       50
176
     1
 40
0.0
176
     1
 40
1.0
176
     1
 90
        0
176
     1
 62
    18
420
        0
176
     1
 90
       50
176
     1
 90
        3
176
     1
 62
     5
420
      255
176
     1
290
     0
176
     1
 90
       50
176
     1
 90
       50
176
     1
 90
       50
176
     1
290
     0
176
     1
 90
       50
176
     1
 62
   256
176
     0
 40
1.0
176
     0
 90
        2
176
     1
  1
strokes_ogs.tif
176
     1
290
     0
176
     1
 40
1.0
176
     1
 40
1.0
176
     1
  0
VISUALSTYLE
  5
34
102
{ACAD_REACTORS
330
2A
102
}
330
2A
100
AcDbVisualStyle
  2
Conceptual
 70
     9
177
     3
291
     0
 70
    58
 90
        3
176
     1
 90
        2
176
     1
 90
        0
176
     1
 90
        0
176
     1
 40
0.6
176
     1
 40
30.0
176
     1
 62
     7
420
 16777215
176
     1
 90
        2
176
     1
 90
        2
176
     1
 62
     7
176
     1
 62
   257
176
     1
 90
        1
176
     1
 90
        1
176
     1
 40
179.0
176
     1
 90
        8
176
     1
 62
     7
176
     1
 40
1.0
176
     1
 90
        1
176
     1
 90
        6
176
     1
 90
        2
176
     1
 62
     7
176
     1
 90
        3
176
     1
 90
        0
176
     1
 90
        0
176
     1
290
     0
176
     1
 90
        1
176
     1
 40
0.0
176
     1
 90
        0
176
     1
290
     0
176
     1
290
     1
176
     1
290
     1
176
     1
290
     0
176
     1
290
     0
176
     1
290
     0
176
     1
290
     0
176
     1
290
     0
176
     1
290
     0
176
     1
 90
       50
176
     1
 40
0.0
176
     1
 40
1.0
176
     1
 90
        0
176
     1
 62
    18
420
        0
176
     1
 90
       50
176
     1
 90
        3
176
     1
 62
     5
420
      255
176
     1
290
     0
176
     1
 90
       50
176
     1
 90
       50
176
     1
 90
       50
176
     1
290
     0
176
     1
 90
       50
176
     1
 62
   256
176
     0
 40
1.0
176
     0
 90
        2
176
     1
  1
strokes_ogs.tif
176
     1
290
     0
176
     1
 40
1.0
176
     1
 40
1.0
176
     1
  0
VISUALSTYLE
  5
35
102
{ACAD_REACTORS
330
2A
102
}
330
2A
100
AcDbVisualStyle
  2
Dim
 70
    11
177
     3
291
     1
 70
    58
 90
        2
176
     1
 90
        2
176
     1
 90
        0
176
     1
 90
        0
176
     1
 40
0.6
176
     1
 40
30.0
176
     1
 62
     7
420
 16777215
176
     1
 90
        1
176
     1
 90
        4
176
     1
 62
     7
176
     1
 62
   257
176
     1
 90
        1
176
     1
 90
        1
176
     1
 40
1.0
176
     1
 90
        8
176
     1
 62
     7
176
     1
 40
1.0
176
     1
 90
        1
176
     1
 90
        6
176
     1
 90
        2
176
     1
 62
     7
176
     1
 90
        5
176
     1
 90
        0
176
     1
 90
        0
176
     1
290
     0
176
     1
 90
        1
176
     1
 40
-50.0
176
     1
 90
        0
176
     1
290
     0
176
     1
290
     1
176
     1
290
     1
176
     1
290
     0
176
     1
290
     0
176
     1
290
     0
176
     1
290
     0
176
     1
290
     0
176
     1
290
     0
176
     1
 90
       50
176
     1
 40
0.0
176
     1
 40
1.0
176
     1
 90
        0
176
     1
 62
    18
420
        0
176
     1
 90
       50
176
     1
 90
        3
176
     1
 62
     5
420
      255
176
     1
290
     0
176
     1
 90
       50
176
     1
 90
       50
176
     1
 90
       50
176
     1
290
     0
176
     1
 90
       50
176
     1
 62
   256
176
     0
 40
1.0
176
     0
 90
        2
176
     1
  1
strokes_ogs.tif
176
     1
290
     0
176
     1
 40
1.0
176
     1
 40
1.0
176
     1
  0
VISUALSTYLE
  5
3D
102
{ACAD_REACTORS
330
2A
102
}
330
2A
100
AcDbVisualStyle
  2
EdgeColorOff
 70
    22
177
     3
291
     1
 70
    58
 90
        2
176
     0
 90
        2
176
     0
 90
        0
176
     0
 90
        0
176
     0
 40
0.6
176
     0
 40
30.0
176
     0
 62
     7
420
 16777215
176
     0
 90
        1
176
     0
 90
        4
176
     0
 62
     7
176
     0
 62
   257
176
     0
 90
        1
176
     0
 90
        1
176
     0
 40
1.0
176
     0
 90
        8
176
     2
 62
     7
176
     0
 40
1.0
176
     0
 90
        1
176
     0
 90
        6
176
     0
 90
        2
176
     0
 62
     7
176
     0
 90
        5
176
     0
 90
        0
176
     0
 90
        0
176
     0
290
     0
176
     0
 90
        1
176
     0
 40
0.0
176
     0
 90
        0
176
     0
290
     0
176
     0
290
     1
176
     0
290
     1
176
     0
290
     0
176
     0
290
     0
176
     0
290
     0
176
     0
290
     0
176
     0
290
     0
176
     0
290
     0
176
     0
 90
       50
176
     0
 40
0.0
176
     0
 40
1.0
176
     0
 90
        0
176
     0
 62
    18
420
        0
176
     0
 90
       50
176
     0
 90
        3
176
     0
 62
     5
420
      255
176
     0
290
     0
176
     0
 90
       50
176
     0
 90
       50
176
     0
 90
       50
176
     0
290
     0
176
     0
 90
       50
176
     0
 62
   256
176
     0
 40
1.0
176
     0
 90
        2
176
     0
  1
strokes_ogs.tif
176
     0
290
     0
176
     0
 40
1.0
176
     0
 40
1.0
176
     0
  0
VISUALSTYLE
  5
39
102
{ACAD_REACTORS
330
2A
102
}
330
2A
100
AcDbVisualStyle
  2
Facepattern
 70
    15
177
     3
291
     1
 70
    58
 90
        2
176
     1
 90
        2
176
     1
 90
        0
176
     1
 90
        0
176
     1
 40
0.6
176
     1
 40
30.0
176
     1
 62
     7
420
 16777215
176
     1
 90
        1
176
     1
 90
        4
176
     1
 62
     7
176
     1
 62
   257
176
     1
 90
        1
176
     1
 90
        1
176
     1
 40
1.0
176
     1
 90
        8
176
     1
 62
     7
176
     1
 40
1.0
176
     1
 90
        1
176
     1
 90
        6
176
     1
 90
        2
176
     1
 62
     7
176
     1
 90
        5
176
     1
 90
        0
176
     1
 90
        0
176
     1
290
     0
176
     1
 90
        1
176
     1
 40
0.0
176
     1
 90
        0
176
     1
290
     0
176
     1
290
     1
176
     1
290
     1
176
     1
290
     0
176
     1
290
     0
176
     1
290
     0
176
     1
290
     0
176
     1
290
     0
176
     1
290
     0
176
     1
 90
       50
176
     1
 40
0.0
176
     1
 40
1.0
176
     1
 90
        0
176
     1
 62
    18
420
        0
176
     1
 90
       50
176
     1
 90
        3
176
     1
 62
     5
420
      255
176
     1
290
     0
176
     1
 90
       50
176
     1
 90
       50
176
     1
 90
       50
176
     1
290
     0
176
     1
 90
       50
176
     1
 62
   256
176
     0
 40
1.0
176
     0
 90
        2
176
     1
  1
strokes_ogs.tif
176
     1
290
     0
176
     1
 40
1.0
176
     1
 40
1.0
176
     1
  0
VISUALSTYLE
  5
2B
102
{ACAD_REACTORS
330
2A
102
}
330
2A
100
AcDbVisualStyle
  2
Flat
 70
     0
177
     3
291
     1
 70
    58
 90
        2
176
     1
 90
        1
176
     1
 90
        1
176
     1
 90
        2
176
     1
 40
0.6
176
     1
 40
30.0
176
     1
 62
     7
420
 16777215
176
     1
 90
        0
176
     1
 90
        0
176
     1
 62
     7
176
     1
 62
   257
176
     1
 90
        1
176
     1
 90
        1
176
     1
 40
1.0
176
     1
 90
        8
176
     1
 62
     7
176
     1
 40
1.0
176
     1
 90
        1
176
     1
 90
        6
176
     1
 90
        2
176
     1
 62
     7
176
     1
 90
        5
176
     1
 90
        0
176
     1
 90
        0
176
     1
290
     0
176
     1
 90
       13
176
     1
 40
0.0
176
     1
 90
        0
176
     1
290
     0
176
     1
290
     1
176
     1
290
     1
176
     1
290
     0
176
     1
290
     0
176
     1
290
     0
176
     1
290
     0
176
     1
290
     0
176
     1
290
     0
176
     1
 90
       50
176
     1
 40
0.0
176
     1
 40
1.0
176
     1
 90
        0
176
     1
 62
    18
420
        0
176
     1
 90
       50
176
     1
 90
        3
176
     1
 62
     5
420
      255
176
     1
290
     0
176
     1
 90
       50
176
     1
 90
       50
176
     1
 90
       50
176
     1
290
     0
176
     1
 90
       50
176
     1
 62
   256
176
     0
 40
1.0
176
     0
 90
        2
176
     1
  1
strokes_ogs.tif
176
     1
290
     0
176
     1
 40
1.0
176
     1
 40
1.0
176
     1
  0
VISUALSTYLE
  5
2C
102
{ACAD_REACTORS
330
2A
102
}
330
2A
100
AcDbVisualStyle
  2
FlatWithEdges
 70
     1
177
     3
291
     1
 70
    58
 90
        2
176
     1
 90
        1
176
     1
 90
        1
176
     1
 90
        2
176
     1
 40
0.6
176
     1
 40
30.0
176
     1
 62
     7
420
 16777215
176
     1
 90
        1
176
     1
 90
        0
176
     1
 62
     7
176
     1
 62
   257
176
     1
 90
        1
176
     1
 90
        1
176
     1
 40
1.0
176
     1
 90
        0
176
     1
 62
   257
176
     1
 40
1.0
176
     1
 90
        1
176
     1
 90
        6
176
     1
 90
        2
176
     1
 62
     7
176
     1
 90
        5
176
     1
 90
        0
176
     1
 90
        0
176
     1
290
     0
176
     1
 90
       13
176
     1
 40
0.0
176
     1
 90
        0
176
     1
290
     0
176
     1
290
     1
176
     1
290
     1
176
     1
290
     0
176
     1
290
     0
176
     1
290
     0
176
     1
290
     0
176
     1
290
     0
176
     1
290
     0
176
     1
 90
       50
176
     1
 40
0.0
176
     1
 40
1.0
176
     1
 90
        0
176
     1
 62
    18
420
        0
176
     1
 90
       50
176
     1
 90
        3
176
     1
 62
     5
420
      255
176
     1
290
     0
176
     1
 90
       50
176
     1
 90
       50
176
     1
 90
       50
176
     1
290
     0
176
     1
 90
       50
176
     1
 62
   256
176
     0
 40
1.0
176
     0
 90
        2
176
     1
  1
strokes_ogs.tif
176
     1
290
     0
176
     1
 40
1.0
176
     1
 40
1.0
176
     1
  0
VISUALSTYLE
  5
2D
102
{ACAD_REACTORS
330
2A
102
}
330
2A
100
AcDbVisualStyle
  2
Gouraud
 70
     2
177
     3
291
     1
 70
    58
 90
        2
176
     1
 90
        2
176
     1
 90
        1
176
     1
 90
        2
176
     1
 40
0.6
176
     1
 40
30.0
176
     1
 62
     7
420
 16777215
176
     1
 90
        0
176
     1
 90
        0
176
     1
 62
     7
176
     1
 62
   257
176
     1
 90
        1
176
     1
 90
        1
176
     1
 40
1.0
176
     1
 90
        0
176
     1
 62
     7
176
     1
 40
1.0
176
     1
 90
        1
176
     1
 90
        6
176
     1
 90
        2
176
     1
 62
     7
176
     1
 90
        5
176
     1
 90
        0
176
     1
 90
        0
176
     1
290
     0
176
     1
 90
       13
176
     1
 40
0.0
176
     1
 90
        0
176
     1
290
     0
176
     1
290
     1
176
     1
290
     1
176
     1
290
     0
176
     1
290
     0
176
     1
290
     0
176
     1
290
     0
176
     1
290
     0
176
     1
290
     0
176
     1
 90
       50
176
     1
 40
0.0
176
     1
 40
1.0
176
     1
 90
        0
176
     1
 62
    18
420
        0
176
     1
 90
       50
176
     1
 90
        3
176
     1
 62
     5
420
      255
176
     1
290
     0
176
     1
 90
       50
176
     1
 90
       50
176
     1
 90
       50
176
     1
290
     0
176
     1
 90
       50
176
     1
 62
   256
176
     0
 40
1.0
176
     0
 90
        2
176
     1
  1
strokes_ogs.tif
176
     1
290
     0
176
     1
 40
1.0
176
     1
 40
1.0
176
     1
  0
VISUALSTYLE
  5
2E
102
{ACAD_REACTORS
330
2A
102
}
330
2A
100
AcDbVisualStyle
  2
GouraudWithEdges
 70
     3
177
     3
291
     1
 70
    58
 90
        2
176
     1
 90
        2
176
     1
 90
        1
176
     1
 90
        2
176
     1
 40
0.6
176
     1
 40
30.0
176
     1
 62
     7
420
 16777215
176
     1
 90
        1
176
     1
 90
        0
176
     1
 62
     7
176
     1
 62
   257
176
     1
 90
        1
176
     1
 90
        1
176
     1
 40
1.0
176
     1
 90
        0
176
     1
 62
   257
176
     1
 40
1.0
176
     1
 90
        1
176
     1
 90
        6
176
     1
 90
        2
176
     1
 62
     7
176
     1
 90
        5
176
     1
 90
        0
176
     1
 90
        0
176
     1
290
     0
176
     1
 90
       13
176
     1
 40
0.0
176
     1
 90
        0
176
     1
290
     0
176
     1
290
     1
176
     1
290
     1
176
     1
290
     0
176
     1
290
     0
176
     1
290
     0
176
     1
290
     0
176
     1
290
     0
176
     1
290
     0
176
     1
 90
       50
176
     1
 40
0.0
176
     1
 40
1.0
176
     1
 90
        0
176
     1
 62
    18
420
        0
176
     1
 90
       50
176
     1
 90
        3
176
     1
 62
     5
420
      255
176
     1
290
     0
176
     1
 90
       50
176
     1
 90
       50
176
     1
 90
       50
176
     1
290
     0
176
     1
 90
       50
176
     1
 62
   256
176
     0
 40
1.0
176
     0
 90
        2
176
     1
  1
strokes_ogs.tif
176
     1
290
     0
176
     1
 40
1.0
176
     1
 40
1.0
176
     1
  0
VISUALSTYLE
  5
31
102
{ACAD_REACTORS
330
2A
102
}
330
2A
100
AcDbVisualStyle
  2
Hidden
 70
     6
177
     3
291
     0
 70
    58
 90
        1
176
     1
 90
        2
176
     1
 90
        2
176
     1
 90
        0
176
     1
 40
0.6
176
     1
 40
30.0
176
     1
 62
     7
420
 16777215
176
     1
 90
        2
176
     1
 90
        2
176
     1
 62
     7
176
     1
 62
   257
176
     1
 90
        2
176
     1
 90
        1
176
     1
 40
40.0
176
     1
 90
        0
176
     1
 62
   257
176
     1
 40
1.0
176
     1
 90
        1
176
     1
 90
        6
176
     1
 90
        2
176
     1
 62
     7
176
     1
 90
        3
176
     1
 90
        0
176
     1
 90
        0
176
     1
290
     0
176
     1
 90
        1
176
     1
 40
0.0
176
     1
 90
        0
176
     1
290
     0
176
     1
290
     1
176
     1
290
     1
176
     1
290
     0
176
     1
290
     0
176
     1
290
     0
176
     1
290
     0
176
     1
290
     0
176
     1
290
     0
176
     1
 90
       50
176
     1
 40
0.0
176
     1
 40
1.0
176
     1
 90
        0
176
     1
 62
    18
420
        0
176
     1
 90
       50
176
     1
 90
        3
176
     1
 62
     5
420
      255
176
     1
290
     0
176
     1
 90
       50
176
     1
 90
       50
176
     1
 90
       50
176
     1
290
     0
176
     1
 90
       50
176
     1
 62
   256
176
     0
 40
1.0
176
     0
 90
        2
176
     1
  1
strokes_ogs.tif
176
     1
290
     0
176
     1
 40
1.0
176
     1
 40
1.0
176
     1
  0
VISUALSTYLE
  5
3B
102
{ACAD_REACTORS
330
2A
102
}
330
2A
100
AcDbVisualStyle
  2
JitterOff
 70
    20
177
     3
291
     1
 70
    58
 90
        2
176
     0
 90
        2
176
     0
 90
        0
176
     0
 90
        0
176
     0
 40
0.6
176
     0
 40
30.0
176
     0
 62
     7
420
 16777215
176
     0
 90
        1
176
     0
 90
        4
176
     0
 62
     7
176
     0
 62
   257
176
     0
 90
        1
176
     0
 90
        1
176
     0
 40
1.0
176
     0
 90
       10
176
     2
 62
     7
176
     0
 40
1.0
176
     0
 90
        1
176
     0
 90
        6
176
     0
 90
        2
176
     0
 62
     7
176
     0
 90
        5
176
     0
 90
        0
176
     0
 90
        0
176
     0
290
     0
176
     0
 90
        1
176
     0
 40
0.0
176
     0
 90
        0
176
     0
290
     0
176
     0
290
     1
176
     0
290
     1
176
     0
290
     0
176
     0
290
     0
176
     0
290
     0
176
     0
290
     0
176
     0
290
     0
176
     0
290
     0
176
     0
 90
       50
176
     0
 40
0.0
176
     0
 40
1.0
176
     0
 90
        0
176
     0
 62
    18
420
        0
176
     0
 90
       50
176
     0
 90
        3
176
     0
 62
     5
420
      255
176
     0
290
     0
176
     0
 90
       50
176
     0
 90
       50
176
     0
 90
       50
176
     0
290
     0
176
     0
 90
       50
176
     0
 62
   256
176
     0
 40
1.0
176
     0
 90
        2
176
     0
  1
strokes_ogs.tif
176
     0
290
     0
176
     0
 40
1.0
176
     0
 40
1.0
176
     0
  0
VISUALSTYLE
  5
38
102
{ACAD_REACTORS
330
2A
102
}
330
2A
100
AcDbVisualStyle
  2
Linepattern
 70
    14
177
     3
291
     1
 70
    58
 90
        2
176
     1
 90
        2
176
     1
 90
        0
176
     1
 90
        0
176
     1
 40
0.6
176
     1
 40
30.0
176
     1
 62
     7
420
 16777215
176
     1
 90
        1
176
     1
 90
        4
176
     1
 62
     7
176
     1
 62
   257
176
     1
 90
        7
176
     1
 90
        7
176
     1
 40
1.0
176
     1
 90
        8
176
     1
 62
     7
176
     1
 40
1.0
176
     1
 90
        1
176
     1
 90
        6
176
     1
 90
        2
176
     1
 62
     7
176
     1
 90
        5
176
     1
 90
        0
176
     1
 90
        0
176
     1
290
     0
176
     1
 90
        1
176
     1
 40
0.0
176
     1
 90
        0
176
     1
290
     0
176
     1
290
     1
176
     1
290
     1
176
     1
290
     0
176
     1
290
     0
176
     1
290
     0
176
     1
290
     0
176
     1
290
     0
176
     1
290
     0
176
     1
 90
       50
176
     1
 40
0.0
176
     1
 40
1.0
176
     1
 90
        0
176
     1
 62
    18
420
        0
176
     1
 90
       50
176
     1
 90
        3
176
     1
 62
     5
420
      255
176
     1
290
     0
176
     1
 90
       50
176
     1
 90
       50
176
     1
 90
       50
176
     1
290
     0
176
     1
 90
       50
176
     1
 62
   256
176
     0
 40
1.0
176
     0
 90
        2
176
     1
  1
strokes_ogs.tif
176
     1
290
     0
176
     1
 40
1.0
176
     1
 40
1.0
176
     1
  0
VISUALSTYLE
  5
3C
102
{ACAD_REACTORS
330
2A
102
}
330
2A
100
AcDbVisualStyle
  2
OverhangOff
 70
    21
177
     3
291
     1
 70
    58
 90
        2
176
     0
 90
        2
176
     0
 90
        0
176
     0
 90
        0
176
     0
 40
0.6
176
     0
 40
30.0
176
     0
 62
     7
420
 16777215
176
     0
 90
        1
176
     0
 90
        4
176
     0
 62
     7
176
     0
 62
   257
176
     0
 90
        1
176
     0
 90
        1
176
     0
 40
1.0
176
     0
 90
        9
176
     2
 62
     7
176
     0
 40
1.0
176
     0
 90
        1
176
     0
 90
        6
176
     0
 90
        2
176
     0
 62
     7
176
     0
 90
        5
176
     0
 90
        0
176
     0
 90
        0
176
     0
290
     0
176
     0
 90
        1
176
     0
 40
0.0
176
     0
 90
        0
176
     0
290
     0
176
     0
290
     1
176
     0
290
     1
176
     0
290
     0
176
     0
290
     0
176
     0
290
     0
176
     0
290
     0
176
     0
290
     0
176
     0
290
     0
176
     0
 90
       50
176
     0
 40
0.0
176
     0
 40
1.0
176
     0
 90
        0
176
     0
 62
    18
420
        0
176
     0
 90
       50
176
     0
 90
        3
176
     0
 62
     5
420
      255
176
     0
290
     0
176
     0
 90
       50
176
     0
 90
       50
176
     0
 90
       50
176
     0
290
     0
176
     0
 90
       50
176
     0
 62
   256
176
     0
 40
1.0
176
     0
 90
        2
176
     0
  1
strokes_ogs.tif
176
     0
290
     0
176
     0
 40
1.0
176
     0
 40
1.0
176
     0
  0
VISUALSTYLE
  5
33
102
{ACAD_REACTORS
330
2A
102
}
330
2A
100
AcDbVisualStyle
  2
Realistic
 70
     8
177
     3
291
     0
 70
    58
 90
        2
176
     1
 90
        3
176
     1
 90
        0
176
     1
 90
        2
176
     1
 40
0.6
176
     1
 40
30.0
176
     1
 62
     7
420
 16777215
176
     1
 90
        0
176
     1
 90
        0
176
     1
 62
     7
176
     1
 62
   257
176
     1
 90
        1
176
     1
 90
        1
176
     1
 40
1.0
176
     1
 90
        8
176
     1
 62
   257
176
     1
 40
1.0
176
     1
 90
        1
176
     1
 90
        6
176
     1
 90
        2
176
     1
 62
     7
176
     1
 90
        3
176
     1
 90
        0
176
     1
 90
        0
176
     1
290
     0
176
     1
 90
       13
176
     1
 40
0.0
176
     1
 90
        0
176
     1
290
     0
176
     1
290
     1
176
     1
290
     1
176
     1
290
     0
176
     1
290
     0
176
     1
290
     0
176
     1
290
     0
176
     1
290
     0
176
     1
290
     0
176
     1
 90
       50
176
     1
 40
0.0
176
     1
 40
1.0
176
     1
 90
        0
176
     1
 62
    18
420
        0
176
     1
 90
       50
176
     1
 90
        3
176
     1
 62
     5
420
      255
176
     1
290
     0
176
     1
 90
       50
176
     1
 90
       50
176
     1
 90
       50
176
     1
290
     0
176
     1
 90
       50
176
     1
 62
   256
176
     0
 40
1.0
176
     0
 90
        2
176
     1
  1
strokes_ogs.tif
176
     1
290
     0
176
     1
 40
1.0
176
     1
 40
1.0
176
     1
  0
VISUALSTYLE
  5
42
102
{ACAD_REACTORS
330
2A
102
}
330
2A
100
AcDbVisualStyle
  2
Shaded
 70
    27
177
     3
291
     0
 70
    58
 90
        2
176
     1
 90
        2
176
     1
 90
        1
176
     1
 90
        2
176
     1
 40
0.6
176
     1
 40
30.0
176
     1
 62
     7
420
 16777215
176
     1
 90
        0
176
     1
 90
        4
176
     1
 62
     7
176
     1
 62
   257
176
     1
 90
        1
176
     1
 90
        1
176
     1
 40
1.0
176
     1
 90
        8
176
     1
 62
   257
176
     1
 40
1.0
176
     1
 90
        1
176
     1
 90
        6
176
     1
 90
        2
176
     1
 62
     8
420
  7895160
176
     1
 90
        3
176
     1
 90
        0
176
     1
 90
        0
176
     1
290
     0
176
     1
 90
        5
176
     1
 40
0.0
176
     1
 90
        0
176
     1
290
     0
176
     1
290
     1
176
     1
290
     1
176
     1
290
     0
176
     1
290
     0
176
     1
290
     0
176
     1
290
     0
176
     1
290
     0
176
     1
290
     0
176
     1
 90
       50
176
     1
 40
0.0
176
     1
 40
1.0
176
     1
 90
        0
176
     1
 62
    18
420
        0
176
     1
 90
       50
176
     1
 90
        3
176
     1
 62
     5
420
      255
176
     1
290
     0
176
     1
 90
       50
176
     1
 90
       50
176
     1
 90
       50
176
     1
290
     0
176
     1
 90
       50
176
     1
 62
   256
176
     0
 40
1.0
176
     0
 90
        2
176
     1
  1
strokes_ogs.tif
176
     1
290
     0
176
     1
 40
1.0
176
     1
 40
1.0
176
     1
  0
VISUALSTYLE
  5
41
102
{ACAD_REACTORS
330
2A
102
}
330
2A
100
AcDbVisualStyle
  2
Shaded with edges
 70
    26
177
     3
291
     0
 70
    58
 90
        2
176
     1
 90
        2
176
     1
 90
        1
176
     1
 90
        2
176
     1
 40
0.6
176
     1
 40
30.0
176
     1
 62
     7
420
 16777215
176
     1
 90
        1
176
     1
 90
       10
176
     1
 62
     7
176
     1
 62
   257
176
     1
 90
        2
176
     1
 90
        1
176
     1
 40
1.0
176
     1
 90
        8
176
     1
 62
   257
176
     1
 40
1.0
176
     1
 90
        1
176
     1
 90
        6
176
     1
 90
        2
176
     1
 62
     7
176
     1
 90
        3
176
     1
 90
        0
176
     1
 90
        0
176
     1
290
     0
176
     1
 90
        5
176
     1
 40
0.0
176
     1
 90
        0
176
     1
290
     0
176
     1
290
     1
176
     1
290
     1
176
     1
290
     0
176
     1
290
     0
176
     1
290
     0
176
     1
290
     0
176
     1
290
     0
176
     1
290
     0
176
     1
 90
       50
176
     1
 40
0.0
176
     1
 40
1.0
176
     1
 90
        0
176
     1
 62
    18
420
        0
176
     1
 90
       50
176
     1
 90
        3
176
     1
 62
     5
420
      255
176
     1
290
     0
176
     1
 90
       50
176
     1
 90
       50
176
     1
 90
       50
176
     1
290
     0
176
     1
 90
       50
176
     1
 62
   256
176
     0
 40
1.0
176
     0
 90
        2
176
     1
  1
strokes_ogs.tif
176
     1
290
     0
176
     1
 40
1.0
176
     1
 40
1.0
176
     1
  0
VISUALSTYLE
  5
3E
102
{ACAD_REACTORS
330
2A
102
}
330
2A
100
AcDbVisualStyle
  2
Shades of Gray
 70
    23
177
     3
291
     0
 70
    58
 90
        2
176
     1
 90
        2
176
     1
 90
        3
176
     1
 90
        0
176
     1
 40
0.6
176
     1
 40
30.0
176
     1
 62
     7
420
 16777215
176
     1
 90
        2
176
     1
 90
        2
176
     1
 62
     7
176
     1
 62
     7
176
     1
 90
        1
176
     1
 90
        1
176
     1
 40
40.0
176
     1
 90
        8
176
     1
 62
     7
176
     1
 40
1.0
176
     1
 90
        1
176
     1
 90
        6
176
     1
 90
        2
176
     1
 62
     7
176
     1
 90
        3
176
     1
 90
        0
176
     1
 90
        0
176
     1
290
     0
176
     1
 90
        1
176
     1
 40
0.0
176
     1
 90
        0
176
     1
290
     0
176
     1
290
     1
176
     1
290
     1
176
     1
290
     0
176
     1
290
     0
176
     1
290
     0
176
     1
290
     0
176
     1
290
     0
176
     1
290
     0
176
     1
 90
       50
176
     1
 40
0.0
176
     1
 40
1.0
176
     1
 90
        0
176
     1
 62
    18
420
        0
176
     1
 90
       50
176
     1
 90
        3
176
     1
 62
     5
420
      255
176
     1
290
     0
176
     1
 90
       50
176
     1
 90
       50
176
     1
 90
       50
176
     1
290
     0
176
     1
 90
       50
176
     1
 62
   256
176
     0
 40
1.0
176
     0
 90
        2
176
     1
  1
strokes_ogs.tif
176
     1
290
     0
176
     1
 40
1.0
176
     1
 40
1.0
176
     1
  0
VISUALSTYLE
  5
3F
102
{ACAD_REACTORS
330
2A
102
}
330
2A
100
AcDbVisualStyle
  2
Sketchy
 70
    24
177
     3
291
     0
 70
    58
 90
        1
176
     1
 90
        2
176
     1
 90
        2
176
     1
 90
        0
176
     1
 40
0.6
176
     1
 40
30.0
176
     1
 62
     7
420
 16777215
176
     1
 90
        2
176
     1
 90
        2
176
     1
 62
     7
176
     1
 62
     7
176
     1
 90
        1
176
     1
 90
        1
176
     1
 40
40.0
176
     1
 90
       11
176
     1
 62
     7
176
     1
 40
1.0
176
     1
 90
        1
176
     1
 90
        6
176
     1
 90
        2
176
     1
 62
     7
176
     1
 90
        6
176
     1
 90
        0
176
     1
 90
        0
176
     1
290
     0
176
     1
 90
        1
176
     1
 40
0.0
176
     1
 90
        0
176
     1
290
     0
176
     1
290
     1
176
     1
290
     1
176
     1
290
     0
176
     1
290
     0
176
     1
290
     0
176
     1
290
     0
176
     1
290
     0
176
     1
290
     0
176
     1
 90
       50
176
     1
 40
0.0
176
     1
 40
1.0
176
     1
 90
        0
176
     1
 62
    18
420
        0
176
     1
 90
       50
176
     1
 90
        3
176
     1
 62
     5
420
      255
176
     1
290
     0
176
     1
 90
       50
176
     1
 90
       50
176
     1
 90
       50
176
     1
290
     0
176
     1
 90
       50
176
     1
 62
   256
176
     0
 40
1.0
176
     0
 90
        2
176
     1
  1
strokes_ogs.tif
176
     1
290
     0
176
     1
 40
1.0
176
     1
 40
1.0
176
     1
  0
VISUALSTYLE
  5
37
102
{ACAD_REACTORS
330
2A
102
}
330
2A
100
AcDbVisualStyle
  2
Thicken
 70
    13
177
     3
291
     1
 70
    58
 90
        2
176
     1
 90
        2
176
     1
 90
        0
176
     1
 90
        0
176
     1
 40
0.6
176
     1
 40
30.0
176
     1
 62
     7
420
 16777215
176
     1
 90
        1
176
     1
 90
        4
176
     1
 62
     7
176
     1
 62
   257
176
     1
 90
        1
176
     1
 90
        1
176
     1
 40
1.0
176
     1
 90
       12
176
     1
 62
     7
176
     1
 40
1.0
176
     1
 90
        1
176
     1
 90
        6
176
     1
 90
        2
176
     1
 62
     7
176
     1
 90
        5
176
     1
 90
        0
176
     1
 90
        0
176
     1
290
     0
176
     1
 90
        1
176
     1
 40
0.0
176
     1
 90
        0
176
     1
290
     0
176
     1
290
     1
176
     1
290
     1
176
     1
290
     0
176
     1
290
     0
176
     1
290
     0
176
     1
290
     0
176
     1
290
     0
176
     1
290
     0
176
     1
 90
       50
176
     1
 40
0.0
176
     1
 40
1.0
176
     1
 90
        0
176
     1
 62
    18
420
        0
176
     1
 90
       50
176
     1
 90
        3
176
     1
 62
     5
420
      255
176
     1
290
     0
176
     1
 90
       50
176
     1
 90
       50
176
     1
 90
       50
176
     1
290
     0
176
     1
 90
       50
176
     1
 62
   256
176
     0
 40
1.0
176
     0
 90
        2
176
     1
  1
strokes_ogs.tif
176
     1
290
     0
176
     1
 40
1.0
176
     1
 40
1.0
176
     1
  0
VISUALSTYLE
  5
30
102
{ACAD_REACTORS
330
2A
102
}
330
2A
100
AcDbVisualStyle
  2
Wireframe
 70
     5
177
     3
291
     0
 70
    58
 90
        0
176
     1
 90
        2
176
     1
 90
        0
176
     1
 90
        0
176
     1
 40
0.6
176
     1
 40
30.0
176
     1
 62
     7
420
 16777215
176
     1
 90
        1
176
     1
 90
        4
176
     1
 62
     7
176
     1
 62
   257
176
     1
 90
        1
176
     1
 90
        1
176
     1
 40
1.0
176
     1
 90
        0
176
     1
 62
   257
176
     1
 40
1.0
176
     1
 90
        1
176
     1
 90
        6
176
     1
 90
        2
176
     1
 62
     7
176
     1
 90
        3
176
     1
 90
        0
176
     1
 90
        0
176
     1
290
     0
176
     1
 90
        1
176
     1
 40
0.0
176
     1
 90
        0
176
     1
290
     0
176
     1
290
     1
176
     1
290
     1
176
     1
290
     0
176
     1
290
     0
176
     1
290
     0
176
     1
290
     0
176
     1
290
     0
176
     1
290
     0
176
     1
 90
       50
176
     1
 40
0.0
176
     1
 40
1.0
176
     1
 90
        0
176
     1
 62
    18
420
        0
176
     1
 90
       50
176
     1
 90
        3
176
     1
 62
     5
420
      255
176
     1
290
     0
176
     1
 90
       50
176
     1
 90
       50
176
     1
 90
       50
176
     1
290
     0
176
     1
 90
       50
176
     1
 62
   256
176
     0
 40
1.0
176
     0
 90
        2
176
     1
  1
strokes_ogs.tif
176
     1
290
     0
176
     1
 40
1.0
176
     1
 40
1.0
176
     1
  0
VISUALSTYLE
  5
40
102
{ACAD_REACTORS
330
2A
102
}
330
2A
100
AcDbVisualStyle
  2
X-Ray
 70
    25
177
     3
291
     0
 70
    58
 90
        2
176
     1
 90
        2
176
     1
 90
        1
176
     1
 90
        1
176
     1
 40
0.5
176
     1
 40
30.0
176
     1
 62
     7
420
 16777215
176
     1
 90
        1
176
     1
 90
        0
176
     1
 62
     7
176
     1
 62
   257
176
     1
 90
        1
176
     1
 90
        1
176
     1
 40
1.0
176
     1
 90
        8
176
     1
 62
     7
176
     1
 40
1.0
176
     1
 90
        1
176
     1
 90
        6
176
     1
 90
        2
176
     1
 62
     7
176
     1
 90
        3
176
     1
 90
        0
176
     1
 90
        0
176
     1
290
     0
176
     1
 90
       13
176
     1
 40
0.0
176
     1
 90
        0
176
     1
290
     0
176
     1
290
     1
176
     1
290
     1
176
     1
290
     0
176
     1
290
     0
176
     1
290
     0
176
     1
290
     0
176
     1
290
     0
176
     1
290
     0
176
     1
 90
       50
176
     1
 40
0.0
176
     1
 40
1.0
176
     1
 90
        0
176
     1
 62
    18
420
        0
176
     1
 90
       50
176
     1
 90
        3
176
     1
 62
     5
420
      255
176
     1
290
     0
176
     1
 90
       50
176
     1
 90
       50
176
     1
 90
       50
176
     1
290
     0
176
     1
 90
       50
176
     1
 62
   256
176
     0
 40
1.0
176
     0
 90
        2
176
     1
  1
strokes_ogs.tif
176
     1
290
     0
176
     1
 40
1.0
176
     1
 40
1.0
176
     1
  0
DICTIONARYVAR
  5
18E
102
{ACAD_REACTORS
330
18D
102
}
330
18D
100
DictionaryVariables
280
     0
  1
1:1
  0
DICTIONARYVAR
  5
196
102
{ACAD_REACTORS
330
18D
102
}
330
18D
100
DictionaryVariables
280
     0
  1
3.500000
  0
DICTIONARYVAR
  5
197
102
{ACAD_REACTORS
330
18D
102
}
330
18D
100
DictionaryVariables
280
     0
  1
acadiso.lin
  0
DICTIONARYVAR
  5
193
102
{ACAD_REACTORS
330
18D
102
}
330
18D
100
DictionaryVariables
280
     0
  1
Standard
  0
DICTIONARYVAR
  5
192
102
{ACAD_REACTORS
330
18D
102
}
330
18D
100
DictionaryVariables
280
     0
  1
Standard
  0
DICTIONARY
  5
18F
330
6A
100
AcDbDictionary
280
     1
281
     1
  3
ACAD_ROUNDTRIP_2008_TABLESTYLE_CELLSTYLEMAP
360
190
  0
CELLSTYLEMAP
  5
190
102
{ACAD_REACTORS
330
18F
102
}
330
18F
100
AcDbCellStyleMap
 90
        3
300
CELLSTYLE
  1
TABLEFORMAT_BEGIN
 90
        5
170
     1
 91
        0
 92
    32768
 62
   257
 93
        1
300
CONTENTFORMAT
  1
CONTENTFORMAT_BEGIN
 90
        0
 91
        0
 92
        4
 93
        0
300

 40
0.0
140
1.0
 94
        5
 62
     0
340
11
144
6.0
309
CONTENTFORMAT_END
171
     1
301
MARGIN
  1
CELLMARGIN_BEGIN
 40
1.5
 40
1.5
 40
1.5
 40
1.5
 40
1.5
 40
1.5
309
CELLMARGIN_END
 94
        6
 95
        1
302
GRIDFORMAT
  1
GRIDFORMAT_BEGIN
 90
        0
 91
        1
 62
     0
 92
       -2
340
14
 93
        0
 40
0.045
309
GRIDFORMAT_END
 95
        2
302
GRIDFORMAT
  1
GRIDFORMAT_BEGIN
 90
        0
 91
        1
 62
     0
 92
       -2
340
14
 93
        0
 40
0.045
309
GRIDFORMAT_END
 95
        4
302
GRIDFORMAT
  1
GRIDFORMAT_BEGIN
 90
        0
 91
        1
 62
     0
 92
       -2
340
14
 93
        0
 40
0.045
309
GRIDFORMAT_END
 95
        8
302
GRIDFORMAT
  1
GRIDFORMAT_BEGIN
 90
        0
 91
        1
 62
     0
 92
       -2
340
14
 93
        0
 40
0.045
309
GRIDFORMAT_END
 95
       16
302
GRIDFORMAT
  1
GRIDFORMAT_BEGIN
 90
        0
 91
        1
 62
     0
 92
       -2
340
14
 93
        0
 40
0.045
309
GRIDFORMAT_END
 95
       32
302
GRIDFORMAT
  1
GRIDFORMAT_BEGIN
 90
        0
 91
        1
 62
     0
 92
       -2
340
14
 93
        0
 40
0.045
309
GRIDFORMAT_END
309
TABLEFORMAT_END
  1
CELLSTYLE_BEGIN
 90
        1
 91
        1
300
_TITLE
309
CELLSTYLE_END
300
CELLSTYLE
  1
TABLEFORMAT_BEGIN
 90
        5
170
     1
 91
        0
 92
        0
 62
   257
 93
        1
300
CONTENTFORMAT
  1
CONTENTFORMAT_BEGIN
 90
        0
 91
        0
 92
        4
 93
        0
300

 40
0.0
140
1.0
 94
        5
 62
     0
340
11
144
4.5
309
CONTENTFORMAT_END
171
     1
301
MARGIN
  1
CELLMARGIN_BEGIN
 40
1.5
 40
1.5
 40
1.5
 40
1.5
 40
1.5
 40
1.5
309
CELLMARGIN_END
 94
        6
 95
        1
302
GRIDFORMAT
  1
GRIDFORMAT_BEGIN
 90
        0
 91
        1
 62
     0
 92
       -2
340
14
 93
        0
 40
0.045
309
GRIDFORMAT_END
 95
        2
302
GRIDFORMAT
  1
GRIDFORMAT_BEGIN
 90
        0
 91
        1
 62
     0
 92
       -2
340
14
 93
        0
 40
0.045
309
GRIDFORMAT_END
 95
        4
302
GRIDFORMAT
  1
GRIDFORMAT_BEGIN
 90
        0
 91
        1
 62
     0
 92
       -2
340
14
 93
        0
 40
0.045
309
GRIDFORMAT_END
 95
        8
302
GRIDFORMAT
  1
GRIDFORMAT_BEGIN
 90
        0
 91
        1
 62
     0
 92
       -2
340
14
 93
        0
 40
0.045
309
GRIDFORMAT_END
 95
       16
302
GRIDFORMAT
  1
GRIDFORMAT_BEGIN
 90
        0
 91
        1
 62
     0
 92
       -2
340
14
 93
        0
 40
0.045
309
GRIDFORMAT_END
 95
       32
302
GRIDFORMAT
  1
GRIDFORMAT_BEGIN
 90
        0
 91
        1
 62
     0
 92
       -2
340
14
 93
        0
 40
0.045
309
GRIDFORMAT_END
309
TABLEFORMAT_END
  1
CELLSTYLE_BEGIN
 90
        2
 91
        1
300
_HEADER
309
CELLSTYLE_END
300
CELLSTYLE
  1
TABLEFORMAT_BEGIN
 90
        5
170
     1
 91
        0
 92
        0
 62
   257
 93
        1
300
CONTENTFORMAT
  1
CONTENTFORMAT_BEGIN
 90
        0
 91
        0
 92
        4
 93
        0
300

 40
0.0
140
1.0
 94
        2
 62
     0
340
11
144
4.5
309
CONTENTFORMAT_END
171
     1
301
MARGIN
  1
CELLMARGIN_BEGIN
 40
1.5
 40
1.5
 40
1.5
 40
1.5
 40
1.5
 40
1.5
309
CELLMARGIN_END
 94
        6
 95
        1
302
GRIDFORMAT
  1
GRIDFORMAT_BEGIN
 90
        0
 91
        1
 62
     0
 92
       -2
340
14
 93
        0
 40
0.045
309
GRIDFORMAT_END
 95
        2
302
GRIDFORMAT
  1
GRIDFORMAT_BEGIN
 90
        0
 91
        1
 62
     0
 92
       -2
340
14
 93
        0
 40
0.045
309
GRIDFORMAT_END
 95
        4
302
GRIDFORMAT
  1
GRIDFORMAT_BEGIN
 90
        0
 91
        1
 62
     0
 92
       -2
340
14
 93
        0
 40
0.045
309
GRIDFORMAT_END
 95
        8
302
GRIDFORMAT
  1
GRIDFORMAT_BEGIN
 90
        0
 91
        1
 62
     0
 92
       -2
340
14
 93
        0
 40
0.045
309
GRIDFORMAT_END
 95
       16
302
GRIDFORMAT
  1
GRIDFORMAT_BEGIN
 90
        0
 91
        1
 62
     0
 92
       -2
340
14
 93
        0
 40
0.045
309
GRIDFORMAT_END
 95
       32
302
GRIDFORMAT
  1
GRIDFORMAT_BEGIN
 90
        0
 91
        1
 62
     0
 92
       -2
340
14
 93
        0
 40
0.045
309
GRIDFORMAT_END
309
TABLEFORMAT_END
  1
CELLSTYLE_BEGIN
 90
        3
 91
        2
300
_DATA
309
CELLSTYLE_END
  0
ENDSEC
  0
EOF
