  0
SECTION
  2
HEADER
  9
$ACADVER
  1
AC1032
  9
$ACADMAINTVER
 90
       55
  9
$DWGCODEPAGE
  3
ANSI_1252
  9
$LASTSAVEDBY
  1
Thomas.Friedrich
  9
$REQUIREDVERSIONS
160
                 0
  9
$INSBASE
 10
0.0
 20
0.0
 30
0.0
  9
$EXTMIN
 10
0.0
 20
0.0
 30
0.0
  9
$EXTMAX
 10
1000.0
 20
1900.0
 30
0.0
  9
$LIMMIN
 10
0.0
 20
0.0
  9
$LIMMAX
 10
1000.0
 20
1900.0
  9
$ORTHOMODE
 70
     0
  9
$REGENMODE
 70
     1
  9
$FILLMODE
 70
     1
  9
$QTEXTMODE
 70
     0
  9
$MIRRTEXT
 70
     1
  9
$LTSCALE
 40
1.0
  9
$ATTMODE
 70
     1
  9
$TEXTSIZE
 40
3.5
  9
$TRACEWID
 40
1.0
  9
$TEXTSTYLE
  7
Standard
  9
$CLAYER
  8
0
  9
$CELTYPE
  6
ByLayer
  9
$CECOLOR
 62
   256
  9
$CELTSCALE
 40
1.0
  9
$DISPSILH
 70
     0
  9
$DIMSCALE
 40
1.0
  9
$DIMASZ
 40
3.556
  9
$DIMEXO
 40
1.0
  9
$DIMDLI
 40
3.75
  9
$DIMRND
 40
0.0
  9
$DIMDLE
 40
0.0
  9
$DIMEXE
 40
1.0
  9
$DIMTP
 40
0.0
  9
$DIMTM
 40
0.0
  9
$DIMTXT
 40
3.5
  9
$DIMCEN
 40
2.5
  9
$DIMTSZ
 40
0.0
  9
$DIMTOL
 70
     0
  9
$DIMLIM
 70
     0
  9
$DIMTIH
 70
     1
  9
$DIMTOH
 70
     1
  9
$DIMSE1
 70
     0
  9
$DIMSE2
 70
     0
  9
$DIMTAD
 70
     1
  9
$DIMZIN
 70
     0
  9
$DIMBLK
  1

  9
$DIMASO
 70
     1
  9
$DIMSHO
 70
     1
  9
$DIMPOST
  1

  9
$DIMAPOST
  1

  9
$DIMALT
 70
     0
  9
$DIMALTD
 70
     3
  9
$DIMALTF
 40
0.0393700787
  9
$DIMLFAC
 40
1.0
  9
$DIMTOFL
 70
     1
  9
$DIMTVP
 40
0.0
  9
$DIMTIX
 70
     0
  9
$DIMSOXD
 70
     0
  9
$DIMSAH
 70
     0
  9
$DIMBLK1
  1

  9
$DIMBLK2
  1

  9
$DIMSTYLE
  2
ISO-25
  9
$DIMCLRD
 70
     0
  9
$DIMCLRE
 70
     0
  9
$DIMCLRT
 70
     0
  9
$DIMTFAC
 40
1.0
  9
$DIMGAP
 40
1.524
  9
$DIMJUST
 70
     0
  9
$DIMSD1
 70
     0
  9
$DIMSD2
 70
     0
  9
$DIMTOLJ
 70
     0
  9
$DIMTZIN
 70
     0
  9
$DIMALTZ
 70
     0
  9
$DIMALTTZ
 70
     0
  9
$DIMUPT
 70
     0
  9
$DIMDEC
 70
     2
  9
$DIMTDEC
 70
     2
  9
$DIMALTU
 70
     2
  9
$DIMALTTD
 70
     3
  9
$DIMTXSTY
  7
Standard
  9
$DIMAUNIT
 70
     0
  9
$DIMADEC
 70
     2
  9
$DIMALTRND
 40
0.0
  9
$DIMAZIN
 70
     0
  9
$DIMDSEP
 70
    44
  9
$DIMATFIT
 70
     3
  9
$DIMFRAC
 70
     0
  9
$DIMLDRBLK
  1

  9
$DIMLUNIT
 70
     2
  9
$DIMLWD
 70
    -2
  9
$DIMLWE
 70
    -2
  9
$DIMTMOVE
 70
     0
  9
$DIMFXL
 40
1.0
  9
$DIMFXLON
 70
     0
  9
$DIMJOGANG
 40
0.7853981634
  9
$DIMTFILL
 70
     0
  9
$DIMTFILLCLR
 70
     0
  9
$DIMARCSYM
 70
     0
  9
$DIMLTYPE
  6

  9
$DIMLTEX1
  6

  9
$DIMLTEX2
  6

  9
$DIMTXTDIRECTION
 70
     0
  9
$LUNITS
 70
     2
  9
$LUPREC
 70
     2
  9
$SKETCHINC
 40
1.0
  9
$FILLETRAD
 40
10.0
  9
$AUNITS
 70
     0
  9
$AUPREC
 70
     2
  9
$MENU
  1
.
  9
$ELEVATION
 40
0.0
  9
$PELEVATION
 40
0.0
  9
$THICKNESS
 40
0.0
  9
$LIMCHECK
 70
     0
  9
$CHAMFERA
 40
0.0
  9
$CHAMFERB
 40
0.0
  9
$CHAMFERC
 40
0.0
  9
$CHAMFERD
 40
0.0
  9
$SKPOLY
 70
     0
  9
$TDCREATE
 40
2460369.523255799
  9
$TDUCREATE
 40
2460369.481589132
  9
$TDUPDATE
 40
2460369.523255914
  9
$TDUUPDATE
 40
2460369.481589247
  9
$TDINDWG
 40
0.0000000116
  9
$TDUSRTIMER
 40
0.0000000116
  9
$USRTIMER
 70
     1
  9
$ANGBASE
 50
0.0
  9
$ANGDIR
 70
     0
  9
$PDMODE
 70
     0
  9
$PDSIZE
 40
-1.0
  9
$PLINEWID
 40
0.0
  9
$SPLFRAME
 70
     0
  9
$SPLINETYPE
 70
     6
  9
$SPLINESEGS
 70
     8
  9
$HANDSEED
  5
171
  9
$SURFTAB1
 70
     6
  9
$SURFTAB2
 70
     6
  9
$SURFTYPE
 70
     6
  9
$SURFU
 70
     6
  9
$SURFV
 70
     6
  9
$UCSBASE
  2

  9
$UCSNAME
  2

  9
$UCSORG
 10
0.0
 20
0.0
 30
0.0
  9
$UCSXDIR
 10
1.0
 20
0.0
 30
0.0
  9
$UCSYDIR
 10
0.0
 20
1.0
 30
0.0
  9
$UCSORTHOREF
  2

  9
$UCSORTHOVIEW
 70
     0
  9
$UCSORGTOP
 10
0.0
 20
0.0
 30
0.0
  9
$UCSORGBOTTOM
 10
0.0
 20
0.0
 30
0.0
  9
$UCSORGLEFT
 10
0.0
 20
0.0
 30
0.0
  9
$UCSORGRIGHT
 10
0.0
 20
0.0
 30
0.0
  9
$UCSORGFRONT
 10
0.0
 20
0.0
 30
0.0
  9
$UCSORGBACK
 10
0.0
 20
0.0
 30
0.0
  9
$PUCSBASE
  2

  9
$PUCSNAME
  2

  9
$PUCSORG
 10
0.0
 20
0.0
 30
0.0
  9
$PUCSXDIR
 10
1.0
 20
0.0
 30
0.0
  9
$PUCSYDIR
 10
0.0
 20
1.0
 30
0.0
  9
$PUCSORTHOREF
  2

  9
$PUCSORTHOVIEW
 70
     0
  9
$PUCSORGTOP
 10
0.0
 20
0.0
 30
0.0
  9
$PUCSORGBOTTOM
 10
0.0
 20
0.0
 30
0.0
  9
$PUCSORGLEFT
 10
0.0
 20
0.0
 30
0.0
  9
$PUCSORGRIGHT
 10
0.0
 20
0.0
 30
0.0
  9
$PUCSORGFRONT
 10
0.0
 20
0.0
 30
0.0
  9
$PUCSORGBACK
 10
0.0
 20
0.0
 30
0.0
  9
$USERI1
 70
     0
  9
$USERI2
 70
     0
  9
$USERI3
 70
     0
  9
$USERI4
 70
     0
  9
$USERI5
 70
     0
  9
$USERR1
 40
0.0
  9
$USERR2
 40
0.0
  9
$USERR3
 40
0.0
  9
$USERR4
 40
0.0
  9
$USERR5
 40
0.0
  9
$WORLDVIEW
 70
     1
  9
$SHADEDGE
 70
     3
  9
$SHADEDIF
 70
    70
  9
$TILEMODE
 70
     1
  9
$MAXACTVP
 70
    64
  9
$PINSBASE
 10
0.0
 20
0.0
 30
0.0
  9
$PLIMCHECK
 70
     0
  9
$PEXTMIN
 10
1.0000000000E+20
 20
1.0000000000E+20
 30
1.0000000000E+20
  9
$PEXTMAX
 10
-1.0000000000E+20
 20
-1.0000000000E+20
 30
-1.0000000000E+20
  9
$PLIMMIN
 10
0.0
 20
0.0
  9
$PLIMMAX
 10
420.0
 20
297.0
  9
$UNITMODE
 70
     0
  9
$VISRETAIN
 70
     1
  9
$PLINEGEN
 70
     0
  9
$PSLTSCALE
 70
     1
  9
$TREEDEPTH
 70
  3020
  9
$CMLSTYLE
  2
Standard
  9
$CMLJUST
 70
     0
  9
$CMLSCALE
 40
20.0
  9
$PROXYGRAPHICS
 70
     1
  9
$MEASUREMENT
 70
     1
  9
$CELWEIGHT
370
    -1
  9
$ENDCAPS
280
     0
  9
$JOINSTYLE
280
     0
  9
$LWDISPLAY
290
     1
  9
$INSUNITS
 70
     4
  9
$HYPERLINKBASE
  1

  9
$STYLESHEET
  1

  9
$XEDIT
290
     1
  9
$CEPSNTYPE
380
     0
  9
$PSTYLEMODE
290
     1
  9
$FINGERPRINTGUID
  2
{2f713f5a-a2c8-4193-802e-0f1b1cedf06f}
  9
$VERSIONGUID
  2
{FAEB1C32-E019-11D5-929B-00C0DF256EC4}
  9
$EXTNAMES
290
     1
  9
$PSVPSCALE
 40
0.0
  9
$OLESTARTUP
290
     0
  9
$SORTENTS
280
   127
  9
$INDEXCTL
280
     0
  9
$HIDETEXT
280
     1
  9
$XCLIPFRAME
280
     2
  9
$HALOGAP
280
     0
  9
$OBSCOLOR
 70
   257
  9
$OBSLTYPE
280
     0
  9
$INTERSECTIONDISPLAY
280
     0
  9
$INTERSECTIONCOLOR
 70
   257
  9
$DIMASSOC
280
     2
  9
$PROJECTNAME
  1

  9
$CAMERADISPLAY
290
     0
  9
$LENSLENGTH
 40
50.0
  9
$CAMERAHEIGHT
 40
0.0
  9
$STEPSPERSEC
 40
2.0
  9
$STEPSIZE
 40
6.0
  9
$3DDWFPREC
 40
2.0
  9
$PSOLWIDTH
 40
5.0
  9
$PSOLHEIGHT
 40
80.0
  9
$LOFTANG1
 40
1.5707963268
  9
$LOFTANG2
 40
1.5707963268
  9
$LOFTMAG1
 40
0.0
  9
$LOFTMAG2
 40
0.0
  9
$LOFTPARAM
 70
     7
  9
$LOFTNORMALS
280
     1
  9
$LATITUDE
 40
37.795
  9
$LONGITUDE
 40
-122.394
  9
$NORTHDIRECTION
 40
0.0
  9
$TIMEZONE
 70
 -8000
  9
$LIGHTGLYPHDISPLAY
280
     1
  9
$TILEMODELIGHTSYNCH
280
     1
  9
$CMATERIAL
347
44
  9
$SOLIDHIST
280
     0
  9
$SHOWHIST
280
     1
  9
$DWFFRAME
280
     2
  9
$DGNFRAME
280
     2
  9
$REALWORLDSCALE
290
     1
  9
$INTERFERECOLOR
 62
   256
  9
$CSHADOW
280
     0
  9
$SHADOWPLANELOCATION
 40
0.0
  0
ENDSEC
  0
SECTION
  2
CLASSES
  0
CLASS
  1
ACDBDICTIONARYWDFLT
  2
AcDbDictionaryWithDefault
  3
ObjectDBX Classes
 90
        0
 91
        3
280
     0
281
     0
  0
CLASS
  1
VISUALSTYLE
  2
AcDbVisualStyle
  3
ObjectDBX Classes
 90
     4095
 91
        3
280
     0
281
     0
  0
CLASS
  1
MATERIAL
  2
AcDbMaterial
  3
ObjectDBX Classes
 90
     1153
 91
        3
280
     0
281
     0
  0
CLASS
  1
SCALE
  2
AcDbScale
  3
ObjectDBX Classes
 90
     1153
 91
        3
280
     0
281
     0
  0
CLASS
  1
TABLESTYLE
  2
AcDbTableStyle
  3
ObjectDBX Classes
 90
     4095
 91
        3
280
     0
281
     0
  0
CLASS
  1
MLEADERSTYLE
  2
AcDbMLeaderStyle
  3
ACDB_MLEADERSTYLE_CLASS
 90
     4095
 91
        3
280
     0
281
     0
  0
CLASS
  1
SUN
  2
AcDbSun
  3
SCENEOE
 90
     1153
 91
        3
280
     0
281
     0
  0
CLASS
  1
DICTIONARYVAR
  2
AcDbDictionaryVar
  3
ObjectDBX Classes
 90
        0
 91
        3
280
     0
281
     0
  0
CLASS
  1
CELLSTYLEMAP
  2
AcDbCellStyleMap
  3
ObjectDBX Classes
 90
     1152
 91
        3
280
     0
281
     0
  0
ENDSEC
  0
SECTION
  2
TABLES
  0
TABLE
  2
VPORT
  5
8
330
0
100
AcDbSymbolTable
 70
     1
  0
VPORT
  5
29
330
8
100
AcDbSymbolTableRecord
100
AcDbViewportTableRecord
  2
*Active
 70
     0
 10
0.0
 20
0.0
 11
1.0
 21
1.0
 12
500.0
 22
950.0
 13
0.0
 23
0.0
 14
10.0
 24
10.0
 15
10.0
 25
10.0
 16
0.0
 26
0.0
 36
1.0
 17
0.0
 27
0.0
 37
0.0
 40
1900.0
 41
0.5263157895
 42
50.0
 43
0.0
 44
0.0
 50
0.0
 51
0.0
 71
     0
 72
  2000
 73
     1
 74
     3
 75
     0
 76
     0
 77
     0
 78
     0
281
     0
 65
     1
110
0.0
120
0.0
130
0.0
111
1.0
121
0.0
131
0.0
112
0.0
122
1.0
132
0.0
 79
     0
146
0.0
348
2F
 60
     3
 61
     5
292
     1
282
     1
141
0.0
142
0.0
 63
   250
361
6D
  0
ENDTAB
  0
TABLE
  2
LTYPE
  5
5
330
0
100
AcDbSymbolTable
 70
     8
  0
LTYPE
  5
14
330
5
100
AcDbSymbolTableRecord
100
AcDbLinetypeTableRecord
  2
ByBlock
 70
     0
  3

 72
    65
 73
     0
 40
0.0
  0
LTYPE
  5
15
330
5
100
AcDbSymbolTableRecord
100
AcDbLinetypeTableRecord
  2
ByLayer
 70
     0
  3

 72
    65
 73
     0
 40
0.0
  0
LTYPE
  5
16
330
5
100
AcDbSymbolTableRecord
100
AcDbLinetypeTableRecord
  2
Continuous
 70
     0
  3
Solid line
 72
    65
 73
     0
 40
0.0
  0
LTYPE
  5
6E
330
5
100
AcDbSymbolTableRecord
100
AcDbLinetypeTableRecord
  2
SLD-Durchgehend
 70
     0
  3
SolidWorks Line Style
 72
    65
 73
     0
 40
0.0
  0
LTYPE
  5
6F
330
5
100
AcDbSymbolTableRecord
100
AcDbLinetypeTableRecord
  2
SLD-Gestrichelt
 70
     0
  3
SolidWorks Line Style
 72
    65
 73
     2
 40
1.905
 49
1.27
 74
     0
 49
-0.635
 74
     0
  0
LTYPE
  5
70
330
5
100
AcDbSymbolTableRecord
100
AcDbLinetypeTableRecord
  2
SLD-Phantom
 70
     0
  3
SolidWorks Line Style
 72
    65
 73
     6
 40
12.7
 49
6.35
 74
     0
 49
-1.27
 74
     0
 49
1.27
 74
     0
 49
-1.27
 74
     0
 49
1.27
 74
     0
 49
-1.27
 74
     0
  0
LTYPE
  5
71
330
5
100
AcDbSymbolTableRecord
100
AcDbLinetypeTableRecord
  2
SLD-Kette
 70
     0
  3
SolidWorks Line Style
 72
    65
 73
     4
 40
10.16
 49
6.35
 74
     0
 49
-1.27
 74
     0
 49
1.27
 74
     0
 49
-1.27
 74
     0
  0
LTYPE
  5
72
330
5
100
AcDbSymbolTableRecord
100
AcDbLinetypeTableRecord
  2
SLD-Punktstrich
 70
     0
  3
SolidWorks Line Style
 72
    65
 73
     4
 40
19.05
 49
15.24
 74
     0
 49
-1.27
 74
     0
 49
1.27
 74
     0
 49
-1.27
 74
     0
  0
LTYPE
  5
73
330
5
100
AcDbSymbolTableRecord
100
AcDbLinetypeTableRecord
  2
SLD-Naht
 70
     0
  3
SolidWorks Line Style
 72
    65
 73
     2
 40
0.635
 49
0.0
 74
     0
 49
-0.635
 74
     0
  0
LTYPE
  5
74
330
5
100
AcDbSymbolTableRecord
100
AcDbLinetypeTableRecord
  2
SLD-Dicke-Dünne-Kette
 70
     0
  3
SolidWorks Line Style
 72
    65
 73
     4
 40
10.16
 49
6.35
 74
     0
 49
-1.27
 74
     0
 49
1.27
 74
     0
 49
-1.27
 74
     0
  0
ENDTAB
  0
TABLE
  2
LAYER
  5
2
330
0
100
AcDbSymbolTable
 70
     2
  0
LAYER
  5
10
330
2
100
AcDbSymbolTableRecord
100
AcDbLayerTableRecord
  2
0
 70
     0
 62
     7
  6
Continuous
370
    -3
390
F
347
46
348
0
  0
LAYER
  5
75
330
2
100
AcDbSymbolTableRecord
100
AcDbLayerTableRecord
  2
FORMAT
 70
     0
 62
     7
  6
SLD-Durchgehend
370
    -3
390
F
347
46
348
0
  0
ENDTAB
  0
TABLE
  2
STYLE
  5
3
330
0
100
AcDbSymbolTable
 70
     1
  0
STYLE
  5
11
330
3
100
AcDbSymbolTableRecord
100
AcDbTextStyleTableRecord
  2
Standard
 70
     0
 40
0.0
 41
1.0
 50
0.0
 71
     0
 42
3.5
  3
txt
  4

  0
ENDTAB
  0
TABLE
  2
VIEW
  5
6
330
0
100
AcDbSymbolTable
 70
     0
  0
ENDTAB
  0
TABLE
  2
UCS
  5
7
330
0
100
AcDbSymbolTable
 70
     0
  0
ENDTAB
  0
TABLE
  2
APPID
  5
9
330
0
100
AcDbSymbolTable
 70
     1
  0
APPID
  5
12
330
9
100
AcDbSymbolTableRecord
100
AcDbRegAppTableRecord
  2
ACAD
 70
     0
  0
ENDTAB
  0
TABLE
  2
DIMSTYLE
  5
A
330
0
100
AcDbSymbolTable
 70
     1
100
AcDbDimStyleTable
  0
DIMSTYLE
105
27
330
A
100
AcDbSymbolTableRecord
100
AcDbDimStyleTableRecord
  2
ISO-25
 70
     0
 41
2.5
 42
0.625
 43
3.75
 44
1.25
 73
     0
 74
     0
 77
     1
 78
     8
140
2.5
141
2.5
143
0.0393700787
147
0.625
171
     3
172
     1
178
     0
271
     2
272
     2
274
     3
278
    44
283
     0
284
     8
340
11
  0
ENDTAB
  0
TABLE
  2
BLOCK_RECORD
  5
1
330
0
100
AcDbSymbolTable
 70
     1
  0
BLOCK_RECORD
  5
1F
330
1
100
AcDbSymbolTableRecord
100
AcDbBlockTableRecord
  2
*Model_Space
340
22
 70
     0
280
     1
281
     0
  0
BLOCK_RECORD
  5
1B
330
1
100
AcDbSymbolTableRecord
100
AcDbBlockTableRecord
  2
*Paper_Space
340
1E
 70
     0
280
     1
281
     0
  0
BLOCK_RECORD
  5
23
330
1
100
AcDbSymbolTableRecord
100
AcDbBlockTableRecord
  2
*Paper_Space0
340
26
 70
     0
280
     1
281
     0
  0
ENDTAB
  0
ENDSEC
  0
SECTION
  2
BLOCKS
  0
BLOCK
  5
20
330
1F
100
AcDbEntity
  8
0
100
AcDbBlockBegin
  2
*Model_Space
 70
     0
 10
0.0
 20
0.0
 30
0.0
  3
*Model_Space
  1

  0
ENDBLK
  5
21
330
1F
100
AcDbEntity
  8
0
100
AcDbBlockEnd
  0
BLOCK
  5
1C
330
1B
100
AcDbEntity
 67
     1
  8
0
100
AcDbBlockBegin
  2
*Paper_Space
 70
     0
 10
0.0
 20
0.0
 30
0.0
  3
*Paper_Space
  1

  0
ENDBLK
  5
1D
330
1B
100
AcDbEntity
 67
     1
  8
0
100
AcDbBlockEnd
  0
BLOCK
  5
24
330
23
100
AcDbEntity
  8
0
100
AcDbBlockBegin
  2
*Paper_Space0
 70
     0
 10
0.0
 20
0.0
 30
0.0
  3
*Paper_Space0
  1

  0
ENDBLK
  5
25
330
23
100
AcDbEntity
  8
0
100
AcDbBlockEnd
  0
ENDSEC
  0
SECTION
  2
ENTITIES
  0
LWPOLYLINE
  5
76
330
1F
100
AcDbEntity
  8
0
  6
SLD-Durchgehend
 62
     2
420
 16776960
370
    25
100
AcDbPolyline
 90
        3
 70
   128
 43
0.0
 10
525.0476201817
 20
270.8253340752
 10
525.6897471675
 20
271.6115646165
 10
525.9390464638
 20
272.360790806
  0
LINE
  5
77
330
1F
100
AcDbEntity
  8
0
  6
SLD-Durchgehend
 62
     2
420
 16776960
370
    25
100
AcDbLine
 10
523.567251592
 20
269.2498132419
 30
0.0
 11
525.0476201817
 21
270.8253340752
 31
0.0
  0
LINE
  5
78
330
1F
100
AcDbEntity
  8
0
  6
SLD-Durchgehend
 62
     2
420
 16776960
370
    25
100
AcDbLine
 10
523.567251592
 20
268.7950856778
 30
0.0
 11
523.567251592
 21
269.2498132419
 31
0.0
  0
LINE
  5
79
330
1F
100
AcDbEntity
  8
0
  6
SLD-Durchgehend
 62
     2
420
 16776960
370
    25
100
AcDbLine
 10
526.9005849253
 20
268.7950856778
 30
0.0
 11
523.567251592
 21
268.7950856778
 31
0.0
  0
LINE
  5
7A
330
1F
100
AcDbEntity
  8
0
  6
SLD-Durchgehend
 62
     2
420
 16776960
370
    25
100
AcDbLine
 10
526.9005849253
 20
269.6284190111
 30
0.0
 11
526.9005849253
 21
268.7950856778
 31
0.0
  0
LINE
  5
7B
330
1F
100
AcDbEntity
  8
0
  6
SLD-Durchgehend
 62
     2
420
 16776960
370
    25
100
AcDbLine
 10
525.2178926176
 20
269.6284190111
 30
0.0
 11
526.9005849253
 21
269.6284190111
 31
0.0
  0
LINE
  5
7C
330
1F
100
AcDbEntity
  8
0
  6
SLD-Durchgehend
 62
     2
420
 16776960
370
    25
100
AcDbLine
 10
525.7397275535
 20
270.2263757419
 30
0.0
 11
525.2178926176
 21
269.6284190111
 31
0.0
  0
ARC
  5
7D
330
1F
100
AcDbEntity
  8
0
  6
SLD-Durchgehend
 62
     2
420
 16776960
370
    25
100
AcDbCircle
 10
523.4253162118
 20
272.753918475
 30
0.0
 40
3.427093830977078
100
AcDbArc
 50
312.479601964
 51
354.4738933756
  0
ARC
  5
7E
330
1F
100
AcDbEntity
  8
0
  6
SLD-Durchgehend
 62
     2
420
 16776960
370
    25
100
AcDbCircle
 10
525.3506432148
 20
272.4374610521
 30
0.0
 40
1.485901105251259
100
AcDbArc
 50
359.4767662921
 51
90.5614946611
  0
ARC
  5
7F
330
1F
100
AcDbEntity
  8
0
  6
SLD-Durchgehend
 62
     2
420
 16776960
370
    25
100
AcDbCircle
 10
525.3583283824
 20
272.2557031743
 30
0.0
 40
1.667736017274412
100
AcDbArc
 50
90.7643162028
 51
184.3771580186
  0
LINE
  5
80
330
1F
100
AcDbEntity
  8
0
  6
SLD-Durchgehend
 62
     2
420
 16776960
370
    25
100
AcDbLine
 10
524.5928926176
 20
272.1284190111
 30
0.0
 11
523.6954567202
 21
272.1284190111
 31
0.0
  0
LWPOLYLINE
  5
81
330
1F
100
AcDbEntity
  8
0
  6
SLD-Durchgehend
 62
     2
420
 16776960
370
    25
100
AcDbPolyline
 90
        4
 70
   128
 43
0.0
 10
525.2849999894
 20
273.0258549086
 10
524.9515226012
 20
272.9263315011
 10
524.7196935366
 20
272.6638344702
 10
524.5928926176
 20
272.1284190111
  0
ARC
  5
82
330
1F
100
AcDbEntity
  8
0
  6
SLD-Durchgehend
 62
     2
420
 16776960
370
    25
100
AcDbCircle
 10
525.303117348
 20
272.3895343953
 30
0.0
 40
0.6365783803091923
100
AcDbArc
 50
357.4120288455
 51
91.6308885129
  0
LWPOLYLINE
  5
83
330
1F
100
AcDbEntity
  8
0
  6
SLD-Durchgehend
 62
     2
420
 16776960
370
    25
100
AcDbPolyline
 90
        3
 70
   128
 43
0.0
 10
528.8937740279
 20
270.8253340752
 10
529.5359010136
 20
271.6115646165
 10
529.7852003099
 20
272.360790806
  0
LINE
  5
84
330
1F
100
AcDbEntity
  8
0
  6
SLD-Durchgehend
 62
     2
420
 16776960
370
    25
100
AcDbLine
 10
527.4134054381
 20
269.2498132419
 30
0.0
 11
528.8937740279
 21
270.8253340752
 31
0.0
  0
LINE
  5
85
330
1F
100
AcDbEntity
  8
0
  6
SLD-Durchgehend
 62
     2
420
 16776960
370
    25
100
AcDbLine
 10
527.4134054381
 20
268.7950856778
 30
0.0
 11
527.4134054381
 21
269.2498132419
 31
0.0
  0
LINE
  5
86
330
1F
100
AcDbEntity
  8
0
  6
SLD-Durchgehend
 62
     2
420
 16776960
370
    25
100
AcDbLine
 10
530.7467387715
 20
268.7950856778
 30
0.0
 11
527.4134054381
 21
268.7950856778
 31
0.0
  0
LINE
  5
87
330
1F
100
AcDbEntity
  8
0
  6
SLD-Durchgehend
 62
     2
420
 16776960
370
    25
100
AcDbLine
 10
530.7467387715
 20
269.6284190111
 30
0.0
 11
530.7467387715
 21
268.7950856778
 31
0.0
  0
LINE
  5
88
330
1F
100
AcDbEntity
  8
0
  6
SLD-Durchgehend
 62
     2
420
 16776960
370
    25
100
AcDbLine
 10
529.0640464638
 20
269.6284190111
 30
0.0
 11
530.7467387715
 21
269.6284190111
 31
0.0
  0
LINE
  5
89
330
1F
100
AcDbEntity
  8
0
  6
SLD-Durchgehend
 62
     2
420
 16776960
370
    25
100
AcDbLine
 10
529.5858813997
 20
270.2263757419
 30
0.0
 11
529.0640464638
 21
269.6284190111
 31
0.0
  0
ARC
  5
8A
330
1F
100
AcDbEntity
  8
0
  6
SLD-Durchgehend
 62
     2
420
 16776960
370
    25
100
AcDbCircle
 10
527.271470058
 20
272.753918475
 30
0.0
 40
3.427093830977776
100
AcDbArc
 50
312.479601964
 51
354.4738933756
  0
ARC
  5
8B
330
1F
100
AcDbEntity
  8
0
  6
SLD-Durchgehend
 62
     2
420
 16776960
370
    25
100
AcDbCircle
 10
529.1967970609
 20
272.4374610521
 30
0.0
 40
1.485901105251371
100
AcDbArc
 50
359.4767662921
 51
90.5614946611
  0
ARC
  5
8C
330
1F
100
AcDbEntity
  8
0
  6
SLD-Durchgehend
 62
     2
420
 16776960
370
    25
100
AcDbCircle
 10
529.2044822286
 20
272.2557031743
 30
0.0
 40
1.667736017274324
100
AcDbArc
 50
90.7643162028
 51
184.3771580186
  0
LINE
  5
8D
330
1F
100
AcDbEntity
  8
0
  6
SLD-Durchgehend
 62
     2
420
 16776960
370
    25
100
AcDbLine
 10
528.4390464638
 20
272.1284190111
 30
0.0
 11
527.5416105663
 21
272.1284190111
 31
0.0
  0
LWPOLYLINE
  5
8E
330
1F
100
AcDbEntity
  8
0
  6
SLD-Durchgehend
 62
     2
420
 16776960
370
    25
100
AcDbPolyline
 90
        4
 70
   128
 43
0.0
 10
529.1311538356
 20
273.0258549086
 10
528.7976764474
 20
272.9263315011
 10
528.5658473827
 20
272.6638344702
 10
528.4390464638
 20
272.1284190111
  0
ARC
  5
8F
330
1F
100
AcDbEntity
  8
0
  6
SLD-Durchgehend
 62
     2
420
 16776960
370
    25
100
AcDbCircle
 10
529.1492711941
 20
272.3895343953
 30
0.0
 40
0.6365783803092616
100
AcDbArc
 50
357.4120288455
 51
91.6308885129
  0
LINE
  5
90
330
1F
100
AcDbEntity
  8
0
  6
SLD-Durchgehend
 62
     7
370
    25
100
AcDbLine
 10
333.9661790727
 20
660.8640262287
 30
0.0
 11
328.6147966227
 21
694.0002509787
 31
0.0
  0
LINE
  5
91
330
1F
100
AcDbEntity
  8
0
  6
SLD-Durchgehend
 62
     7
370
    25
100
AcDbLine
 10
325.5916788027
 20
635.6568405387
 30
0.0
 11
333.9661790727
 21
660.8640262287
 31
0.0
  0
LINE
  5
92
330
1F
100
AcDbEntity
  8
0
  6
SLD-Durchgehend
 62
     7
370
    25
100
AcDbLine
 10
318.1747808727
 20
590.9862587187
 30
0.0
 11
325.5916788027
 21
635.6568405387
 31
0.0
  0
LINE
  5
93
330
1F
100
AcDbEntity
  8
0
  6
SLD-Durchgehend
 62
     7
370
    25
100
AcDbLine
 10
318.8218905927
 20
581.6523322587
 30
0.0
 11
318.1747808727
 21
590.9862587187
 31
0.0
  0
LINE
  5
94
330
1F
100
AcDbEntity
  8
0
  6
SLD-Durchgehend
 62
     7
370
    25
100
AcDbLine
 10
306.3190950927
 20
499.8045095787
 30
0.0
 11
318.8218905927
 21
581.6523322587
 31
0.0
  0
LINE
  5
95
330
1F
100
AcDbEntity
  8
0
  6
SLD-Durchgehend
 62
     7
370
    25
100
AcDbLine
 10
301.5472843827
 20
475.9995291087
 30
0.0
 11
306.3190950927
 21
499.8045095787
 31
0.0
  0
LINE
  5
96
330
1F
100
AcDbEntity
  8
0
  6
SLD-Durchgehend
 62
     7
370
    25
100
AcDbLine
 10
300.7570787127
 20
457.7475258687
 30
0.0
 11
301.5472843827
 21
475.9995291087
 31
0.0
  0
LINE
  5
97
330
1F
100
AcDbEntity
  8
0
  6
SLD-Durchgehend
 62
     7
370
    25
100
AcDbLine
 10
297.7375819527
 20
433.1982323487
 30
0.0
 11
300.7570787127
 21
457.7475258687
 31
0.0
  0
LINE
  5
98
330
1F
100
AcDbEntity
  8
0
  6
SLD-Durchgehend
 62
     7
370
    25
100
AcDbLine
 10
293.6020984227
 20
413.5260531387
 30
0.0
 11
297.7375819527
 21
433.1982323487
 31
0.0
  0
LINE
  5
99
330
1F
100
AcDbEntity
  8
0
  6
SLD-Durchgehend
 62
     7
370
    25
100
AcDbLine
 10
291.6040941027
 20
395.0886556587
 30
0.0
 11
293.6020984227
 21
413.5260531387
 31
0.0
  0
LINE
  5
9A
330
1F
100
AcDbEntity
  8
0
  6
SLD-Durchgehend
 62
     7
370
    25
100
AcDbLine
 10
289.1155942827
 20
385.9995612387
 30
0.0
 11
291.6040941027
 21
395.0886556587
 31
0.0
  0
LINE
  5
9B
330
1F
100
AcDbEntity
  8
0
  6
SLD-Durchgehend
 62
     7
370
    25
100
AcDbLine
 10
289.3432869927
 20
361.0317358587
 30
0.0
 11
289.1155942827
 21
385.9995612387
 31
0.0
  0
LINE
  5
9C
330
1F
100
AcDbEntity
  8
0
  6
SLD-Durchgehend
 62
     7
370
    25
100
AcDbLine
 10
349.7044964427
 20
354.7614285687
 30
0.0
 11
289.3432869927
 21
361.0317358587
 31
0.0
  0
LINE
  5
9D
330
1F
100
AcDbEntity
  8
0
  6
SLD-Durchgehend
 62
     7
370
    25
100
AcDbLine
 10
369.5296957227
 20
351.7059096687
 30
0.0
 11
349.7044964427
 21
354.7614285687
 31
0.0
  0
LINE
  5
9E
330
1F
100
AcDbEntity
  8
0
  6
SLD-Durchgehend
 62
     7
370
    25
100
AcDbLine
 10
396.7654897827
 20
350.3424354987
 30
0.0
 11
369.5296957227
 21
351.7059096687
 31
0.0
  0
LINE
  5
9F
330
1F
100
AcDbEntity
  8
0
  6
SLD-Durchgehend
 62
     7
370
    25
100
AcDbLine
 10
408.6346938327
 20
350.9787091287
 30
0.0
 11
396.7654897827
 21
350.3424354987
 31
0.0
  0
LINE
  5
A0
330
1F
100
AcDbEntity
  8
0
  6
SLD-Durchgehend
 62
     7
370
    25
100
AcDbLine
 10
430.3246988727
 20
350.3451177687
 30
0.0
 11
408.6346938327
 21
350.9787091287
 31
0.0
  0
LINE
  5
A1
330
1F
100
AcDbEntity
  8
0
  6
SLD-Durchgehend
 62
     7
370
    25
100
AcDbLine
 10
446.1754813227
 20
353.0532369387
 30
0.0
 11
430.3246988727
 21
350.3451177687
 31
0.0
  0
LINE
  5
A2
330
1F
100
AcDbEntity
  8
0
  6
SLD-Durchgehend
 62
     7
370
    25
100
AcDbLine
 10
460.6114788927
 20
352.6509591687
 30
0.0
 11
446.1754813227
 21
353.0532369387
 31
0.0
  0
LINE
  5
A3
330
1F
100
AcDbEntity
  8
0
  6
SLD-Durchgehend
 62
     7
370
    25
100
AcDbLine
 10
533.6105062527
 20
344.4446870787
 30
0.0
 11
460.6114788927
 21
352.6509591687
 31
0.0
  0
LINE
  5
A4
330
1F
100
AcDbEntity
  8
0
  6
SLD-Durchgehend
 62
     7
370
    25
100
AcDbLine
 10
562.7407982427
 20
338.8044306387
 30
0.0
 11
533.6105062527
 21
344.4446870787
 31
0.0
  0
LINE
  5
A5
330
1F
100
AcDbEntity
  8
0
  6
SLD-Durchgehend
 62
     7
370
    25
100
AcDbLine
 10
613.5818018427
 20
342.6987835587
 30
0.0
 11
562.7407982427
 21
338.8044306387
 31
0.0
  0
LINE
  5
A6
330
1F
100
AcDbEntity
  8
0
  6
SLD-Durchgehend
 62
     7
370
    25
100
AcDbLine
 10
622.9129924827
 20
340.8528873387
 30
0.0
 11
613.5818018427
 21
342.6987835587
 31
0.0
  0
LINE
  5
A7
330
1F
100
AcDbEntity
  8
0
  6
SLD-Durchgehend
 62
     7
370
    25
100
AcDbLine
 10
632.3323741227
 20
337.7118059787
 30
0.0
 11
622.9129924827
 21
340.8528873387
 31
0.0
  0
LINE
  5
A8
330
1F
100
AcDbEntity
  8
0
  6
SLD-Durchgehend
 62
     7
370
    25
100
AcDbLine
 10
641.9858052627
 20
342.4503037287
 30
0.0
 11
632.3323741227
 21
337.7118059787
 31
0.0
  0
LINE
  5
A9
330
1F
100
AcDbEntity
  8
0
  6
SLD-Durchgehend
 62
     7
370
    25
100
AcDbLine
 10
652.5922789827
 20
344.9361750087
 30
0.0
 11
641.9858052627
 21
342.4503037287
 31
0.0
  0
LINE
  5
AA
330
1F
100
AcDbEntity
  8
0
  6
SLD-Durchgehend
 62
     7
370
    25
100
AcDbLine
 10
662.7838685427
 20
349.2921361287
 30
0.0
 11
652.5922789827
 21
344.9361750087
 31
0.0
  0
LINE
  5
AB
330
1F
100
AcDbEntity
  8
0
  6
SLD-Durchgehend
 62
     7
370
    25
100
AcDbLine
 10
701.7933267927
 20
360.8130017487
 30
0.0
 11
662.7838685427
 21
349.2921361287
 31
0.0
  0
LINE
  5
AC
330
1F
100
AcDbEntity
  8
0
  6
SLD-Durchgehend
 62
     7
370
    25
100
AcDbLine
 10
685.5232610727
 20
420.9096381087
 30
0.0
 11
701.7933267927
 21
360.8130017487
 31
0.0
  0
LINE
  5
AD
330
1F
100
AcDbEntity
  8
0
  6
SLD-Durchgehend
 62
     7
370
    25
100
AcDbLine
 10
684.0275004027
 20
468.5556480087
 30
0.0
 11
685.5232610727
 21
420.9096381087
 31
0.0
  0
LINE
  5
AE
330
1F
100
AcDbEntity
  8
0
  6
SLD-Durchgehend
 62
     7
370
    25
100
AcDbLine
 10
679.5886590027
 20
476.1894294687
 30
0.0
 11
684.0275004027
 21
468.5556480087
 31
0.0
  0
LINE
  5
AF
330
1F
100
AcDbEntity
  8
0
  6
SLD-Durchgehend
 62
     7
370
    25
100
AcDbLine
 10
674.5243801527
 20
514.2423579087
 30
0.0
 11
679.5886590027
 21
476.1894294687
 31
0.0
  0
LINE
  5
B0
330
1F
100
AcDbEntity
  8
0
  6
SLD-Durchgehend
 62
     7
370
    25
100
AcDbLine
 10
677.0848705227
 20
530.3469309087
 30
0.0
 11
674.5243801527
 21
514.2423579087
 31
0.0
  0
LINE
  5
B1
330
1F
100
AcDbEntity
  8
0
  6
SLD-Durchgehend
 62
     7
370
    25
100
AcDbLine
 10
661.3465799727
 20
577.8642484587
 30
0.0
 11
677.0848705227
 21
530.3469309087
 31
0.0
  0
LINE
  5
B2
330
1F
100
AcDbEntity
  8
0
  6
SLD-Durchgehend
 62
     7
370
    25
100
AcDbLine
 10
658.5376634127
 20
596.5230354987
 30
0.0
 11
661.3465799727
 21
577.8642484587
 31
0.0
  0
LINE
  5
B3
330
1F
100
AcDbEntity
  8
0
  6
SLD-Durchgehend
 62
     7
370
    25
100
AcDbLine
 10
647.5766017527
 20
628.2957324387
 30
0.0
 11
658.5376634127
 21
596.5230354987
 31
0.0
  0
LINE
  5
B4
330
1F
100
AcDbEntity
  8
0
  6
SLD-Durchgehend
 62
     7
370
    25
100
AcDbLine
 10
642.1054854627
 20
648.8544354087
 30
0.0
 11
647.5766017527
 21
628.2957324387
 31
0.0
  0
LINE
  5
B5
330
1F
100
AcDbEntity
  8
0
  6
SLD-Durchgehend
 62
     7
370
    25
100
AcDbLine
 10
636.4300920804
 20
710.9661349677
 30
0.0
 11
642.1054854627
 21
648.8544354087
 31
0.0
  0
LINE
  5
B6
330
1F
100
AcDbEntity
  8
0
  6
SLD-Durchgehend
 62
     7
370
    25
100
AcDbLine
 10
636.1439004027
 20
711.7653259587
 30
0.0
 11
636.4300920804
 21
710.9661349677
 31
0.0
  0
LINE
  5
B7
330
1F
100
AcDbEntity
  8
0
  6
SLD-Durchgehend
 62
     7
370
    25
100
AcDbLine
 10
615.5203952727
 20
758.1207105687
 30
0.0
 11
636.1439004027
 21
711.7653259587
 31
0.0
  0
LINE
  5
B8
330
1F
100
AcDbEntity
  8
0
  6
SLD-Durchgehend
 62
     7
370
    25
100
AcDbLine
 10
604.6717717827
 20
787.1475228987
 30
0.0
 11
615.5203952727
 21
758.1207105687
 31
0.0
  0
LINE
  5
B9
330
1F
100
AcDbEntity
  8
0
  6
SLD-Durchgehend
 62
     7
370
    25
100
AcDbLine
 10
598.4158947327
 20
800.3559270387
 30
0.0
 11
604.6717717827
 21
787.1475228987
 31
0.0
  0
LINE
  5
BA
330
1F
100
AcDbEntity
  8
0
  6
SLD-Durchgehend
 62
     7
370
    25
100
AcDbLine
 10
591.4805068827
 20
831.8784275787
 30
0.0
 11
598.4158947327
 21
800.3559270387
 31
0.0
  0
LINE
  5
BB
330
1F
100
AcDbEntity
  8
0
  6
SLD-Durchgehend
 62
     7
370
    25
100
AcDbLine
 10
580.4203644027
 20
865.1775428787
 30
0.0
 11
591.4805068827
 21
831.8784275787
 31
0.0
  0
LINE
  5
BC
330
1F
100
AcDbEntity
  8
0
  6
SLD-Durchgehend
 62
     7
370
    25
100
AcDbLine
 10
578.3332838427
 20
876.8343427887
 30
0.0
 11
580.4203644027
 21
865.1775428787
 31
0.0
  0
LINE
  5
BD
330
1F
100
AcDbEntity
  8
0
  6
SLD-Durchgehend
 62
     7
370
    25
100
AcDbLine
 10
567.544098123
 20
899.0598240516
 30
0.0
 11
578.3332838427
 21
876.8343427887
 31
0.0
  0
LINE
  5
BE
330
1F
100
AcDbEntity
  8
0
  6
SLD-Durchgehend
 62
     7
370
    25
100
AcDbLine
 10
567.0454754673
 20
900.6609419013
 30
0.0
 11
567.544098123
 21
899.0598240516
 31
0.0
  0
LINE
  5
BF
330
1F
100
AcDbEntity
  8
0
  6
SLD-Durchgehend
 62
     7
370
    25
100
AcDbLine
 10
566.9525100187
 20
901.4568973527
 30
0.0
 11
567.0454754673
 21
900.6609419013
 31
0.0
  0
LINE
  5
C0
330
1F
100
AcDbEntity
  8
0
  6
SLD-Durchgehend
 62
     7
370
    25
100
AcDbLine
 10
566.0248949127
 20
902.6967385587
 30
0.0
 11
566.9525100187
 21
901.4568973527
 31
0.0
  0
LINE
  5
C1
330
1F
100
AcDbEntity
  8
0
  6
SLD-Durchgehend
 62
     7
370
    25
100
AcDbLine
 10
524.2369904127
 20
1046.8542345987
 30
0.0
 11
566.0248949127
 21
902.6967385587
 31
0.0
  0
LINE
  5
C2
330
1F
100
AcDbEntity
  8
0
  6
SLD-Durchgehend
 62
     7
370
    25
100
AcDbLine
 10
519.2771031927
 20
1072.0344373887
 30
0.0
 11
524.2369904127
 21
1046.8542345987
 31
0.0
  0
LINE
  5
C3
330
1F
100
AcDbEntity
  8
0
  6
SLD-Durchgehend
 62
     7
370
    25
100
AcDbLine
 10
520.0069859127
 20
1083.4554309087
 30
0.0
 11
519.2771031927
 21
1072.0344373887
 31
0.0
  0
LINE
  5
C4
330
1F
100
AcDbEntity
  8
0
  6
SLD-Durchgehend
 62
     7
370
    25
100
AcDbLine
 10
514.2910912227
 20
1089.8427361287
 30
0.0
 11
520.0069859127
 21
1083.4554309087
 31
0.0
  0
LINE
  5
C5
330
1F
100
AcDbEntity
  8
0
  6
SLD-Durchgehend
 62
     7
370
    25
100
AcDbLine
 10
501.9754602627
 20
1140.7800377487
 30
0.0
 11
514.2910912227
 21
1089.8427361287
 31
0.0
  0
LINE
  5
C6
330
1F
100
AcDbEntity
  8
0
  6
SLD-Durchgehend
 62
     7
370
    25
100
AcDbLine
 10
489.3448843827
 20
1186.8348338787
 30
0.0
 11
501.9754602627
 21
1140.7800377487
 31
0.0
  0
LINE
  5
C7
330
1F
100
AcDbEntity
  8
0
  6
SLD-Durchgehend
 62
     7
370
    25
100
AcDbLine
 10
483.9385702527
 20
1211.7549361287
 30
0.0
 11
489.3448843827
 21
1186.8348338787
 31
0.0
  0
LINE
  5
C8
330
1F
100
AcDbEntity
  8
0
  6
SLD-Durchgehend
 62
     7
370
    25
100
AcDbLine
 10
482.5534775427
 20
1232.4045341487
 30
0.0
 11
483.9385702527
 21
1211.7549361287
 31
0.0
  0
LINE
  5
C9
330
1F
100
AcDbEntity
  8
0
  6
SLD-Durchgehend
 62
     7
370
    25
100
AcDbLine
 10
480.2045061627
 20
1246.5066348687
 30
0.0
 11
482.5534775427
 21
1232.4045341487
 31
0.0
  0
LINE
  5
CA
330
1F
100
AcDbEntity
  8
0
  6
SLD-Durchgehend
 62
     7
370
    25
100
AcDbLine
 10
475.0898017527
 20
1258.1598351387
 30
0.0
 11
480.2045061627
 21
1246.5066348687
 31
0.0
  0
LINE
  5
CB
330
1F
100
AcDbEntity
  8
0
  6
SLD-Durchgehend
 62
     7
370
    25
100
AcDbLine
 10
465.0439902327
 20
1244.2881348687
 30
0.0
 11
475.0898017527
 21
1258.1598351387
 31
0.0
  0
LINE
  5
CC
330
1F
100
AcDbEntity
  8
0
  6
SLD-Durchgehend
 62
     7
370
    25
100
AcDbLine
 10
460.1065798827
 20
1232.5467347787
 30
0.0
 11
465.0439902327
 21
1244.2881348687
 31
0.0
  0
LINE
  5
CD
330
1F
100
AcDbEntity
  8
0
  6
SLD-Durchgehend
 62
     7
370
    25
100
AcDbLine
 10
455.4940923027
 20
1225.2063350487
 30
0.0
 11
460.1065798827
 21
1232.5467347787
 31
0.0
  0
LINE
  5
CE
330
1F
100
AcDbEntity
  8
0
  6
SLD-Durchgehend
 62
     7
370
    25
100
AcDbLine
 10
453.6967977027
 20
1210.8549343287
 30
0.0
 11
455.4940923027
 21
1225.2063350487
 31
0.0
  0
LINE
  5
CF
330
1F
100
AcDbEntity
  8
0
  6
SLD-Durchgehend
 62
     7
370
    25
100
AcDbLine
 10
448.1581970727
 20
1199.0577341487
 30
0.0
 11
453.6967977027
 21
1210.8549343287
 31
0.0
  0
LINE
  5
D0
330
1F
100
AcDbEntity
  8
0
  6
SLD-Durchgehend
 62
     7
370
    25
100
AcDbLine
 10
427.3474737627
 20
1123.4145381987
 30
0.0
 11
448.1581970727
 21
1199.0577341487
 31
0.0
  0
LINE
  5
D1
330
1F
100
AcDbEntity
  8
0
  6
SLD-Durchgehend
 62
     7
370
    25
100
AcDbLine
 10
424.5232953627
 20
1117.9083386487
 30
0.0
 11
427.3474737627
 21
1123.4145381987
 31
0.0
  0
LINE
  5
D2
330
1F
100
AcDbEntity
  8
0
  6
SLD-Durchgehend
 62
     7
370
    25
100
AcDbLine
 10
420.0781776327
 20
1102.2132316287
 30
0.0
 11
424.5232953627
 21
1117.9083386487
 31
0.0
  0
LINE
  5
D3
330
1F
100
AcDbEntity
  8
0
  6
SLD-Durchgehend
 62
     7
370
    25
100
AcDbLine
 10
418.5715808727
 20
1074.2961296487
 30
0.0
 11
420.0781776327
 21
1102.2132316287
 31
0.0
  0
LINE
  5
D4
330
1F
100
AcDbEntity
  8
0
  6
SLD-Durchgehend
 62
     7
370
    25
100
AcDbLine
 10
398.1145872627
 20
983.7453434187
 30
0.0
 11
418.5715808727
 21
1074.2961296487
 31
0.0
  0
LINE
  5
D5
330
1F
100
AcDbEntity
  8
0
  6
SLD-Durchgehend
 62
     7
370
    25
100
AcDbLine
 10
374.1142883148
 20
906.8178454059
 30
0.0
 11
398.1145872627
 21
983.7453434187
 31
0.0
  0
LINE
  5
D6
330
1F
100
AcDbEntity
  8
0
  6
SLD-Durchgehend
 62
     7
370
    25
100
AcDbLine
 10
373.6390312471
 20
905.9352604403
 30
0.0
 11
374.1142883148
 21
906.8178454059
 31
0.0
  0
LINE
  5
D7
330
1F
100
AcDbEntity
  8
0
  6
SLD-Durchgehend
 62
     7
370
    25
100
AcDbLine
 10
373.5472961727
 20
904.8963376587
 30
0.0
 11
373.6390312471
 21
905.9352604403
 31
0.0
  0
LINE
  5
D8
330
1F
100
AcDbEntity
  8
0
  6
SLD-Durchgehend
 62
     7
370
    25
100
AcDbLine
 10
366.0565837527
 20
888.3813330687
 30
0.0
 11
373.5472961727
 21
904.8963376587
 31
0.0
  0
LINE
  5
D9
330
1F
100
AcDbEntity
  8
0
  6
SLD-Durchgehend
 62
     7
370
    25
100
AcDbLine
 10
365.3509750227
 20
871.2534436887
 30
0.0
 11
366.0565837527
 21
888.3813330687
 31
0.0
  0
LINE
  5
DA
330
1F
100
AcDbEntity
  8
0
  6
SLD-Durchgehend
 62
     7
370
    25
100
AcDbLine
 10
361.5304901445
 20
849.0153291843
 30
0.0
 11
365.3509750227
 21
871.2534436887
 31
0.0
  0
LINE
  5
DB
330
1F
100
AcDbEntity
  8
0
  6
SLD-Durchgehend
 62
     7
370
    25
100
AcDbLine
 10
361.6195931127
 20
847.6347425187
 30
0.0
 11
361.5304901445
 21
849.0153291843
 31
0.0
  0
LINE
  5
DC
330
1F
100
AcDbEntity
  8
0
  6
SLD-Durchgehend
 62
     7
370
    25
100
AcDbLine
 10
356.0233786227
 20
781.9248327987
 30
0.0
 11
361.6195931127
 21
847.6347425187
 31
0.0
  0
LINE
  5
DD
330
1F
100
AcDbEntity
  8
0
  6
SLD-Durchgehend
 62
     7
370
    25
100
AcDbLine
 10
336.7660834827
 20
720.6015417087
 30
0.0
 11
356.0233786227
 21
781.9248327987
 31
0.0
  0
LINE
  5
DE
330
1F
100
AcDbEntity
  8
0
  6
SLD-Durchgehend
 62
     7
370
    25
100
AcDbLine
 10
331.6513790727
 20
708.8448294687
 30
0.0
 11
336.7660834827
 21
720.6015417087
 31
0.0
  0
LINE
  5
DF
330
1F
100
AcDbEntity
  8
0
  6
SLD-Durchgehend
 62
     7
370
    25
100
AcDbLine
 10
328.6147966227
 20
694.0002509787
 30
0.0
 11
331.6513790727
 21
708.8448294687
 31
0.0
  0
CIRCLE
  5
E0
330
1F
100
AcDbEntity
  8
0
  6
SLD-Durchgehend
 62
     7
370
    25
100
AcDbCircle
 10
480.1845845719
 20
1554.3400214154
 30
0.0
 40
6.125
  0
CIRCLE
  5
E1
330
1F
100
AcDbEntity
  8
0
  6
SLD-Durchgehend
 62
     7
370
    25
100
AcDbCircle
 10
533.904835982
 20
1278.4752296695
 30
0.0
 40
6.125
  0
CIRCLE
  5
E2
330
1F
100
AcDbEntity
  8
0
  6
SLD-Durchgehend
 62
     7
370
    25
100
AcDbCircle
 10
197.7305953594
 20
244.0917369686
 30
0.0
 40
6.124999999999972
  0
CIRCLE
  5
E3
330
1F
100
AcDbEntity
  8
0
  6
SLD-Durchgehend
 62
     7
370
    25
100
AcDbCircle
 10
487.619837766
 20
244.0917369686
 30
0.0
 40
6.125
  0
CIRCLE
  5
E4
330
1F
100
AcDbEntity
  8
0
  6
SLD-Durchgehend
 62
     7
370
    25
100
AcDbCircle
 10
811.7011446616
 20
244.0917369686
 30
0.0
 40
6.124999999999886
  0
CIRCLE
  5
E5
330
1F
100
AcDbEntity
  8
0
  6
SLD-Durchgehend
 62
     7
370
    25
100
AcDbCircle
 10
244.1483505417
 20
284.0917369686
 30
0.0
 40
4.5
  0
CIRCLE
  5
E6
330
1F
100
AcDbEntity
  8
0
  6
SLD-Durchgehend
 62
     7
370
    25
100
AcDbCircle
 10
527.3889507923
 20
284.0917369686
 30
0.0
 40
4.5
  0
CIRCLE
  5
E7
330
1F
100
AcDbEntity
  8
0
  6
SLD-Durchgehend
 62
     7
370
    25
100
AcDbCircle
 10
777.7049816568
 20
284.0917369686
 30
0.0
 40
4.499999999999886
  0
CIRCLE
  5
E8
330
1F
100
AcDbEntity
  8
0
  6
SLD-Durchgehend
 62
     7
370
    25
100
AcDbCircle
 10
524.6876537159
 20
1212.2888504705
 30
0.0
 40
4.499999999999886
  0
CIRCLE
  5
E9
330
1F
100
AcDbEntity
  8
0
  6
SLD-Durchgehend
 62
     7
370
    25
100
AcDbCircle
 10
469.5903337834
 20
1611.2721866953
 30
0.0
 40
4.5
  0
LINE
  5
EA
330
1F
100
AcDbEntity
  8
0
  6
SLD-Durchgehend
 62
     7
370
    25
100
AcDbLine
 10
558.0311074227
 20
1484.8068246087
 30
0.0
 11
568.3928027427
 21
1451.0109373887
 31
0.0
  0
LINE
  5
EB
330
1F
100
AcDbEntity
  8
0
  6
SLD-Durchgehend
 62
     7
370
    25
100
AcDbLine
 10
568.3928027427
 20
1451.0109373887
 30
0.0
 11
593.3335914027
 21
1400.6442287487
 31
0.0
  0
LINE
  5
EC
330
1F
100
AcDbEntity
  8
0
  6
SLD-Durchgehend
 62
     7
370
    25
100
AcDbLine
 10
593.3335914027
 20
1400.6442287487
 30
0.0
 11
616.0045876227
 21
1345.2960343287
 31
0.0
  0
LINE
  5
ED
330
1F
100
AcDbEntity
  8
0
  6
SLD-Durchgehend
 62
     7
370
    25
100
AcDbLine
 10
616.0045876227
 20
1345.2960343287
 30
0.0
 11
625.6642951827
 21
1324.7571327987
 31
0.0
  0
LINE
  5
EE
330
1F
100
AcDbEntity
  8
0
  6
SLD-Durchgehend
 62
     7
370
    25
100
AcDbLine
 10
625.6642951827
 20
1324.7571327987
 30
0.0
 11
628.9321913127
 21
1311.5703338787
 31
0.0
  0
LINE
  5
EF
330
1F
100
AcDbEntity
  8
0
  6
SLD-Durchgehend
 62
     7
370
    25
100
AcDbLine
 10
628.9321913127
 20
1311.5703338787
 30
0.0
 11
631.8112744827
 21
1290.0306363987
 31
0.0
  0
LINE
  5
F0
330
1F
100
AcDbEntity
  8
0
  6
SLD-Durchgehend
 62
     7
370
    25
100
AcDbLine
 10
631.8112744827
 20
1290.0306363987
 30
0.0
 11
643.3268024727
 21
1260.0147344187
 31
0.0
  0
LINE
  5
F1
330
1F
100
AcDbEntity
  8
0
  6
SLD-Durchgehend
 62
     7
370
    25
100
AcDbLine
 10
643.3268024727
 20
1260.0147344187
 30
0.0
 11
646.4579059827
 21
1244.0064346887
 31
0.0
  0
LINE
  5
F2
330
1F
100
AcDbEntity
  8
0
  6
SLD-Durchgehend
 62
     7
370
    25
100
AcDbLine
 10
646.4579059827
 20
1244.0064346887
 30
0.0
 11
661.2638070627
 21
1209.1260360387
 31
0.0
  0
LINE
  5
F3
330
1F
100
AcDbEntity
  8
0
  6
SLD-Durchgehend
 62
     7
370
    25
100
AcDbLine
 10
661.2638070627
 20
1209.1260360387
 30
0.0
 11
666.0814835727
 21
1164.6057316287
 31
0.0
  0
LINE
  5
F4
330
1F
100
AcDbEntity
  8
0
  6
SLD-Durchgehend
 62
     7
370
    25
100
AcDbLine
 10
666.0814835727
 20
1164.6057316287
 30
0.0
 11
682.9780592763
 21
1117.9299303912
 31
0.0
  0
LINE
  5
F5
330
1F
100
AcDbEntity
  8
0
  6
SLD-Durchgehend
 62
     7
370
    25
100
AcDbLine
 10
682.9780592763
 20
1117.9299303912
 30
0.0
 11
683.6081102127
 21
1116.4323324387
 31
0.0
  0
LINE
  5
F6
330
1F
100
AcDbEntity
  8
0
  6
SLD-Durchgehend
 62
     7
370
    25
100
AcDbLine
 10
683.6081102127
 20
1116.4323324387
 30
0.0
 11
681.9115593627
 21
1085.5101371187
 31
0.0
  0
LINE
  5
F7
330
1F
100
AcDbEntity
  8
0
  6
SLD-Durchgehend
 62
     7
370
    25
100
AcDbLine
 10
681.9115593627
 20
1085.5101371187
 30
0.0
 11
697.2655966128
 21
1014.5802328014
 31
0.0
  0
LINE
  5
F8
330
1F
100
AcDbEntity
  8
0
  6
SLD-Durchgehend
 62
     7
370
    25
100
AcDbLine
 10
697.2655966128
 20
1014.5802328014
 30
0.0
 11
697.4500789827
 21
1013.8332375687
 31
0.0
  0
LINE
  5
F9
330
1F
100
AcDbEntity
  8
0
  6
SLD-Durchgehend
 62
     7
370
    25
100
AcDbLine
 10
697.4500789827
 20
1013.8332375687
 30
0.0
 11
722.8048934727
 21
933.8286289287
 31
0.0
  0
LINE
  5
FA
330
1F
100
AcDbEntity
  8
0
  6
SLD-Durchgehend
 62
     7
370
    25
100
AcDbLine
 10
722.8048934727
 20
933.8286289287
 30
0.0
 11
725.1133635027
 21
929.9658456687
 31
0.0
  0
LINE
  5
FB
330
1F
100
AcDbEntity
  8
0
  6
SLD-Durchgehend
 62
     7
370
    25
100
AcDbLine
 10
725.1133635027
 20
929.9658456687
 30
0.0
 11
730.1596715127
 21
895.6974336087
 31
0.0
  0
LINE
  5
FC
330
1F
100
AcDbEntity
  8
0
  6
SLD-Durchgehend
 62
     7
370
    25
100
AcDbLine
 10
730.1596715127
 20
895.6974336087
 30
0.0
 11
740.8138885227
 21
870.3021445887
 31
0.0
  0
LINE
  5
FD
330
1F
100
AcDbEntity
  8
0
  6
SLD-Durchgehend
 62
     7
370
    25
100
AcDbLine
 10
740.8138885227
 20
870.3021445887
 30
0.0
 11
753.6379590027
 21
844.9347237087
 31
0.0
  0
LINE
  5
FE
330
1F
100
AcDbEntity
  8
0
  6
SLD-Durchgehend
 62
     7
370
    25
100
AcDbLine
 10
753.6379590027
 20
844.9347237087
 30
0.0
 11
771.5389682727
 21
804.2358228987
 31
0.0
  0
LINE
  5
FF
330
1F
100
AcDbEntity
  8
0
  6
SLD-Durchgehend
 62
     7
370
    25
100
AcDbLine
 10
771.5389682727
 20
804.2358228987
 30
0.0
 11
781.7251934727
 21
765.0102326187
 31
0.0
  0
LINE
  5
100
330
1F
100
AcDbEntity
  8
0
  6
SLD-Durchgehend
 62
     7
370
    25
100
AcDbLine
 10
781.7251934727
 20
765.0102326187
 30
0.0
 11
796.4077665627
 21
722.1162387387
 31
0.0
  0
LINE
  5
101
330
1F
100
AcDbEntity
  8
0
  6
SLD-Durchgehend
 62
     7
370
    25
100
AcDbLine
 10
796.4077665627
 20
722.1162387387
 30
0.0
 11
798.2698633227
 21
680.7639250587
 31
0.0
  0
LINE
  5
102
330
1F
100
AcDbEntity
  8
0
  6
SLD-Durchgehend
 62
     7
370
    25
100
AcDbLine
 10
798.2698633227
 20
680.7639250587
 30
0.0
 11
804.1261985127
 21
654.8853287487
 31
0.0
  0
LINE
  5
103
330
1F
100
AcDbEntity
  8
0
  6
SLD-Durchgehend
 62
     7
370
    25
100
AcDbLine
 10
804.1261985127
 20
654.8853287487
 30
0.0
 11
826.4713599927
 21
588.0630264087
 31
0.0
  0
LINE
  5
104
330
1F
100
AcDbEntity
  8
0
  6
SLD-Durchgehend
 62
     7
370
    25
100
AcDbLine
 10
826.4713599927
 20
588.0630264087
 30
0.0
 11
830.4232730427
 21
580.4724284787
 31
0.0
  0
LINE
  5
105
330
1F
100
AcDbEntity
  8
0
  6
SLD-Durchgehend
 62
     7
370
    25
100
AcDbLine
 10
830.4232730427
 20
580.4724284787
 30
0.0
 11
842.0386865427
 21
545.9799179487
 31
0.0
  0
LINE
  5
106
330
1F
100
AcDbEntity
  8
0
  6
SLD-Durchgehend
 62
     7
370
    25
100
AcDbLine
 10
842.0386865427
 20
545.9799179487
 30
0.0
 11
844.9276938327
 21
524.9028512487
 31
0.0
  0
LINE
  5
107
330
1F
100
AcDbEntity
  8
0
  6
SLD-Durchgehend
 62
     7
370
    25
100
AcDbLine
 10
844.9276938327
 20
524.9028512487
 30
0.0
 11
844.5991768227
 21
502.4298557487
 31
0.0
  0
LINE
  5
108
330
1F
100
AcDbEntity
  8
0
  6
SLD-Durchgehend
 62
     7
370
    25
100
AcDbLine
 10
844.5991768227
 20
502.4298557487
 30
0.0
 11
838.6843695327
 21
469.7112509787
 31
0.0
  0
LINE
  5
109
330
1F
100
AcDbEntity
  8
0
  6
SLD-Durchgehend
 62
     7
370
    25
100
AcDbLine
 10
838.6843695327
 20
469.7112509787
 30
0.0
 11
847.3900689927
 21
439.2264435087
 31
0.0
  0
LINE
  5
10A
330
1F
100
AcDbEntity
  8
0
  6
SLD-Durchgehend
 62
     7
370
    25
100
AcDbLine
 10
847.3900689927
 20
439.2264435087
 30
0.0
 11
866.0047605327
 21
384.5478424287
 31
0.0
  0
LINE
  5
10B
330
1F
100
AcDbEntity
  8
0
  6
SLD-Durchgehend
 62
     7
370
    25
100
AcDbLine
 10
866.0047605327
 20
384.5478424287
 30
0.0
 11
886.5031673727
 21
341.2694880687
 31
0.0
  0
LINE
  5
10C
330
1F
100
AcDbEntity
  8
0
  6
SLD-Durchgehend
 62
     7
370
    25
100
AcDbLine
 10
886.5031673727
 20
341.2694880687
 30
0.0
 11
893.4772863627
 21
316.3143226287
 31
0.0
  0
LINE
  5
10D
330
1F
100
AcDbEntity
  8
0
  6
SLD-Durchgehend
 62
     7
370
    25
100
AcDbLine
 10
893.4772863627
 20
316.3143226287
 30
0.0
 11
903.7345900527
 21
266.7567560187
 31
0.0
  0
LINE
  5
10E
330
1F
100
AcDbEntity
  8
0
  6
SLD-Durchgehend
 62
     7
370
    25
100
AcDbLine
 10
903.7345900527
 20
266.7567560187
 30
0.0
 11
907.1239903227
 21
225.4898974287
 31
0.0
  0
LINE
  5
10F
330
1F
100
AcDbEntity
  8
0
  6
SLD-Durchgehend
 62
     7
370
    25
100
AcDbLine
 10
907.1239903227
 20
225.4898974287
 30
0.0
 11
864.7718026527
 21
218.1279847287
 31
0.0
  0
LINE
  5
110
330
1F
100
AcDbEntity
  8
0
  6
SLD-Durchgehend
 62
     7
370
    25
100
AcDbLine
 10
802.6814483555
 20
191.1180023355
 30
0.0
 11
864.7718026527
 21
218.1279847287
 31
0.0
  0
LINE
  5
111
330
1F
100
AcDbEntity
  8
0
  6
SLD-Durchgehend
 62
     7
370
    25
100
AcDbLine
 10
757.035940608
 20
191.1180023355
 30
0.0
 11
802.6814483555
 21
191.1180023355
 31
0.0
  0
LINE
  5
112
330
1F
100
AcDbEntity
  8
0
  6
SLD-Durchgehend
 62
     7
370
    25
100
AcDbLine
 10
719.9145939458
 20
198.5422716679
 30
0.0
 11
757.035940608
 21
191.1180023355
 31
0.0
  0
LINE
  5
113
330
1F
100
AcDbEntity
  8
0
  6
SLD-Durchgehend
 62
     7
370
    25
100
AcDbLine
 10
666.1562099427
 20
194.2554661887
 30
0.0
 11
719.9145939458
 21
198.5422716679
 31
0.0
  0
LINE
  5
114
330
1F
100
AcDbEntity
  8
0
  6
SLD-Durchgehend
 62
     7
370
    25
100
AcDbLine
 10
666.1562099427
 20
194.2554661887
 30
0.0
 11
607.2421862727
 21
196.6035792387
 31
0.0
  0
LINE
  5
115
330
1F
100
AcDbEntity
  8
0
  6
SLD-Durchgehend
 62
     7
370
    25
100
AcDbLine
 10
607.2421862727
 20
196.6035792387
 30
0.0
 11
595.4818799727
 21
195.0536915787
 31
0.0
  0
LINE
  5
116
330
1F
100
AcDbEntity
  8
0
  6
SLD-Durchgehend
 62
     7
370
    25
100
AcDbLine
 10
595.4818799727
 20
195.0536915787
 30
0.0
 11
547.3633720527
 21
193.3238813187
 31
0.0
  0
LINE
  5
117
330
1F
100
AcDbEntity
  8
0
  6
SLD-Durchgehend
 62
     7
370
    25
100
AcDbLine
 10
547.3633720527
 20
193.3238813187
 30
0.0
 11
505.9723808727
 21
197.7069327087
 31
0.0
  0
LINE
  5
118
330
1F
100
AcDbEntity
  8
0
  6
SLD-Durchgehend
 62
     7
370
    25
100
AcDbLine
 10
505.9723808727
 20
197.7069327087
 30
0.0
 11
448.1122776327
 21
200.9424278487
 31
0.0
  0
LINE
  5
119
330
1F
100
AcDbEntity
  8
0
  6
SLD-Durchgehend
 62
     7
370
    25
100
AcDbLine
 10
448.1122776327
 20
200.9424278487
 30
0.0
 11
442.3270746627
 21
204.0033647487
 31
0.0
  0
LINE
  5
11A
330
1F
100
AcDbEntity
  8
0
  6
SLD-Durchgehend
 62
     7
370
    25
100
AcDbLine
 10
442.3270746627
 20
204.0033647487
 30
0.0
 11
427.6957853727
 21
202.7388641187
 31
0.0
  0
LINE
  5
11B
330
1F
100
AcDbEntity
  8
0
  6
SLD-Durchgehend
 62
     7
370
    25
100
AcDbLine
 10
427.6957853727
 20
202.7388641187
 30
0.0
 11
406.9444730427
 21
204.1670868087
 31
0.0
  0
LINE
  5
11C
330
1F
100
AcDbEntity
  8
0
  6
SLD-Durchgehend
 62
     7
370
    25
100
AcDbLine
 10
406.9444730427
 20
204.1670868087
 30
0.0
 11
395.8141907727
 21
203.6316105687
 31
0.0
  0
LINE
  5
11D
330
1F
100
AcDbEntity
  8
0
  6
SLD-Durchgehend
 62
     7
370
    25
100
AcDbLine
 10
395.8141907727
 20
203.6316105687
 30
0.0
 11
344.3854882527
 21
207.8274437787
 31
0.0
  0
LINE
  5
11E
330
1F
100
AcDbEntity
  8
0
  6
SLD-Durchgehend
 62
     7
370
    25
100
AcDbLine
 10
344.3854882527
 20
207.8274437787
 30
0.0
 11
333.3847834827
 21
210.5958053487
 31
0.0
  0
LINE
  5
11F
330
1F
100
AcDbEntity
  8
0
  6
SLD-Durchgehend
 62
     7
370
    25
100
AcDbLine
 10
333.3847834827
 20
210.5958053487
 30
0.0
 11
276.0511978827
 21
217.0875021987
 31
0.0
  0
LINE
  5
120
330
1F
100
AcDbEntity
  8
0
  6
SLD-Durchgehend
 62
     7
370
    25
100
AcDbLine
 10
276.0511978827
 20
217.0875021987
 30
0.0
 11
239.3860845627
 21
215.0283166887
 31
0.0
  0
LINE
  5
121
330
1F
100
AcDbEntity
  8
0
  6
SLD-Durchgehend
 62
     7
370
    25
100
AcDbLine
 10
239.3860845627
 20
215.0283166887
 30
0.0
 11
170.5864845627
 21
204.1491696087
 31
0.0
  0
LINE
  5
122
330
1F
100
AcDbEntity
  8
0
  6
SLD-Durchgehend
 62
     7
370
    25
100
AcDbLine
 10
170.5864845627
 20
204.1491696087
 30
0.0
 11
138.2305815027
 21
210.8847328887
 31
0.0
  0
LINE
  5
123
330
1F
100
AcDbEntity
  8
0
  6
SLD-Durchgehend
 62
     7
370
    25
100
AcDbLine
 10
138.2305815027
 20
210.8847328887
 30
0.0
 11
113.8477860927
 21
214.4955227187
 31
0.0
  0
LINE
  5
124
330
1F
100
AcDbEntity
  8
0
  6
SLD-Durchgehend
 62
     7
370
    25
100
AcDbLine
 10
113.8477860927
 20
214.4955227187
 30
0.0
 11
112.2709824927
 21
218.3457800487
 31
0.0
  0
LINE
  5
125
330
1F
100
AcDbEntity
  8
0
  6
SLD-Durchgehend
 62
     7
370
    25
100
AcDbLine
 10
112.2709824927
 20
218.3457800487
 30
0.0
 11
113.1367861827
 21
234.4224044487
 31
0.0
  0
LINE
  5
126
330
1F
100
AcDbEntity
  8
0
  6
SLD-Durchgehend
 62
     7
370
    25
100
AcDbLine
 10
113.1367861827
 20
234.4224044487
 30
0.0
 11
116.1940887027
 21
257.8449556587
 31
0.0
  0
LINE
  5
127
330
1F
100
AcDbEntity
  8
0
  6
SLD-Durchgehend
 62
     7
370
    25
100
AcDbLine
 10
116.1940887027
 20
257.8449556587
 30
0.0
 11
113.3176877127
 21
265.7838651987
 31
0.0
  0
LINE
  5
128
330
1F
100
AcDbEntity
  8
0
  6
SLD-Durchgehend
 62
     7
370
    25
100
AcDbLine
 10
113.3176877127
 20
265.7838651987
 30
0.0
 11
114.0061839327
 21
298.1289454887
 31
0.0
  0
LINE
  5
129
330
1F
100
AcDbEntity
  8
0
  6
SLD-Durchgehend
 62
     7
370
    25
100
AcDbLine
 10
114.0061839327
 20
298.1289454887
 30
0.0
 11
129.7120868127
 21
347.3679730287
 31
0.0
  0
LINE
  5
12A
330
1F
100
AcDbEntity
  8
0
  6
SLD-Durchgehend
 62
     7
370
    25
100
AcDbLine
 10
129.7120868127
 20
347.3679730287
 30
0.0
 11
133.3327873527
 21
351.8724211887
 31
0.0
  0
LINE
  5
12B
330
1F
100
AcDbEntity
  8
0
  6
SLD-Durchgehend
 62
     7
370
    25
100
AcDbLine
 10
133.3327873527
 20
351.8724211887
 30
0.0
 11
141.5560914927
 21
370.1433607887
 31
0.0
  0
LINE
  5
12C
330
1F
100
AcDbEntity
  8
0
  6
SLD-Durchgehend
 62
     7
370
    25
100
AcDbLine
 10
141.5560914927
 20
370.1433607887
 30
0.0
 11
139.7191806927
 21
394.8231169587
 31
0.0
  0
LINE
  5
12D
330
1F
100
AcDbEntity
  8
0
  6
SLD-Durchgehend
 62
     7
370
    25
100
AcDbLine
 10
139.7191806927
 20
394.8231169587
 30
0.0
 11
142.9168834827
 21
403.6548265887
 31
0.0
  0
LINE
  5
12E
330
1F
100
AcDbEntity
  8
0
  6
SLD-Durchgehend
 62
     7
370
    25
100
AcDbLine
 10
142.9168834827
 20
403.6548265887
 30
0.0
 11
151.7890810527
 21
444.3600306387
 31
0.0
  0
LINE
  5
12F
330
1F
100
AcDbEntity
  8
0
  6
SLD-Durchgehend
 62
     7
370
    25
100
AcDbLine
 10
151.7890810527
 20
444.3600306387
 30
0.0
 11
157.1494891527
 21
485.5530210987
 31
0.0
  0
LINE
  5
130
330
1F
100
AcDbEntity
  8
0
  6
SLD-Durchgehend
 62
     7
370
    25
100
AcDbLine
 10
157.1494891527
 20
485.5530210987
 30
0.0
 11
157.0315792527
 21
515.8596226287
 31
0.0
  0
LINE
  5
131
330
1F
100
AcDbEntity
  8
0
  6
SLD-Durchgehend
 62
     7
370
    25
100
AcDbLine
 10
157.0315792527
 20
515.8596226287
 30
0.0
 11
171.7528833927
 21
603.2118210087
 31
0.0
  0
LINE
  5
132
330
1F
100
AcDbEntity
  8
0
  6
SLD-Durchgehend
 62
     7
370
    25
100
AcDbLine
 10
171.7528833927
 20
603.2118210087
 30
0.0
 11
171.9364806027
 21
655.7070502587
 31
0.0
  0
LINE
  5
133
330
1F
100
AcDbEntity
  8
0
  6
SLD-Durchgehend
 62
     7
370
    25
100
AcDbLine
 10
171.9364806027
 20
655.7070502587
 30
0.0
 11
179.0635793427
 21
683.2578429687
 31
0.0
  0
LINE
  5
134
330
1F
100
AcDbEntity
  8
0
  6
SLD-Durchgehend
 62
     7
370
    25
100
AcDbLine
 10
179.0635793427
 20
683.2578429687
 30
0.0
 11
183.3322881627
 21
692.7411147987
 31
0.0
  0
LINE
  5
135
330
1F
100
AcDbEntity
  8
0
  6
SLD-Durchgehend
 62
     7
370
    25
100
AcDbLine
 10
183.3322881627
 20
692.7411147987
 30
0.0
 11
182.2009860927
 21
701.1219451287
 31
0.0
  0
LINE
  5
136
330
1F
100
AcDbEntity
  8
0
  6
SLD-Durchgehend
 62
     7
370
    25
100
AcDbLine
 10
182.2009860927
 20
701.1219451287
 30
0.0
 11
190.8976867227
 21
743.2815500787
 31
0.0
  0
LINE
  5
137
330
1F
100
AcDbEntity
  8
0
  6
SLD-Durchgehend
 62
     7
370
    25
100
AcDbLine
 10
190.8976867227
 20
743.2815500787
 30
0.0
 11
198.9265843827
 21
773.0283210087
 31
0.0
  0
LINE
  5
138
330
1F
100
AcDbEntity
  8
0
  6
SLD-Durchgehend
 62
     7
370
    25
100
AcDbLine
 10
198.9265843827
 20
773.0283210087
 30
0.0
 11
201.9892914927
 21
798.1410392787
 31
0.0
  0
LINE
  5
139
330
1F
100
AcDbEntity
  8
0
  6
SLD-Durchgehend
 62
     7
370
    25
100
AcDbLine
 10
201.9892914927
 20
798.1410392787
 30
0.0
 11
213.9916806927
 21
827.8392354087
 31
0.0
  0
LINE
  5
13A
330
1F
100
AcDbEntity
  8
0
  6
SLD-Durchgehend
 62
     7
370
    25
100
AcDbLine
 10
213.9916806927
 20
827.8392354087
 30
0.0
 11
218.4727802427
 21
850.2186218187
 31
0.0
  0
LINE
  5
13B
330
1F
100
AcDbEntity
  8
0
  6
SLD-Durchgehend
 62
     7
370
    25
100
AcDbLine
 10
218.4727802427
 20
850.2186218187
 30
0.0
 11
218.4196859127
 21
913.7379446787
 31
0.0
  0
LINE
  5
13C
330
1F
100
AcDbEntity
  8
0
  6
SLD-Durchgehend
 62
     7
370
    25
100
AcDbLine
 10
218.4196859127
 20
913.7379446787
 30
0.0
 11
232.5163840227
 21
968.1096473787
 31
0.0
  0
LINE
  5
13D
330
1F
100
AcDbEntity
  8
0
  6
SLD-Durchgehend
 62
     7
370
    25
100
AcDbLine
 10
232.5163840227
 20
968.1096473787
 30
0.0
 11
235.9795852827
 21
974.3970402687
 31
0.0
  0
LINE
  5
13E
330
1F
100
AcDbEntity
  8
0
  6
SLD-Durchgehend
 62
     7
370
    25
100
AcDbLine
 10
235.9795852827
 20
974.3970402687
 30
0.0
 11
244.9759824927
 21
1011.2583437787
 31
0.0
  0
LINE
  5
13F
330
1F
100
AcDbEntity
  8
0
  6
SLD-Durchgehend
 62
     7
370
    25
100
AcDbLine
 10
244.9759824927
 20
1011.2583437787
 30
0.0
 11
255.8587773627
 21
1041.5955358587
 31
0.0
  0
LINE
  5
140
330
1F
100
AcDbEntity
  8
0
  6
SLD-Durchgehend
 62
     7
370
    25
100
AcDbLine
 10
255.8587773627
 20
1041.5955358587
 30
0.0
 11
261.0499783527
 21
1090.8885293787
 31
0.0
  0
LINE
  5
141
330
1F
100
AcDbEntity
  8
0
  6
SLD-Durchgehend
 62
     7
370
    25
100
AcDbLine
 10
261.0499783527
 20
1090.8885293787
 30
0.0
 11
259.7953751127
 21
1103.6712401787
 31
0.0
  0
LINE
  5
142
330
1F
100
AcDbEntity
  8
0
  6
SLD-Durchgehend
 62
     7
370
    25
100
AcDbLine
 10
259.7953751127
 20
1103.6712401787
 30
0.0
 11
264.6967902327
 21
1115.2398356787
 31
0.0
  0
LINE
  5
143
330
1F
100
AcDbEntity
  8
0
  6
SLD-Durchgehend
 62
     7
370
    25
100
AcDbLine
 10
264.6967902327
 20
1115.2398356787
 30
0.0
 11
278.0905887027
 21
1159.3578354987
 31
0.0
  0
LINE
  5
144
330
1F
100
AcDbEntity
  8
0
  6
SLD-Durchgehend
 62
     7
370
    25
100
AcDbLine
 10
278.0905887027
 20
1159.3578354987
 30
0.0
 11
291.1234959027
 21
1181.0001374787
 31
0.0
  0
LINE
  5
145
330
1F
100
AcDbEntity
  8
0
  6
SLD-Durchgehend
 62
     7
370
    25
100
AcDbLine
 10
291.1234959027
 20
1181.0001374787
 30
0.0
 11
306.0301943727
 21
1233.8733352287
 31
0.0
  0
LINE
  5
146
330
1F
100
AcDbEntity
  8
0
  6
SLD-Durchgehend
 62
     7
370
    25
100
AcDbLine
 10
306.0301943727
 20
1233.8733352287
 30
0.0
 11
304.1149898727
 21
1257.7998348687
 31
0.0
  0
LINE
  5
147
330
1F
100
AcDbEntity
  8
0
  6
SLD-Durchgehend
 62
     7
370
    25
100
AcDbLine
 10
304.1149898727
 20
1257.7998348687
 30
0.0
 11
305.7250931109
 21
1293.9906363955
 31
0.0
  0
LINE
  5
148
330
1F
100
AcDbEntity
  8
0
  6
SLD-Durchgehend
 62
     7
370
    25
100
AcDbLine
 10
305.7250931109
 20
1293.9906363955
 30
0.0
 11
306.0409768227
 21
1294.9482353187
 31
0.0
  0
LINE
  5
149
330
1F
100
AcDbEntity
  8
0
  6
SLD-Durchgehend
 62
     7
370
    25
100
AcDbLine
 10
306.0409768227
 20
1294.9482353187
 30
0.0
 11
324.3676796127
 21
1338.2283331587
 31
0.0
  0
LINE
  5
14A
330
1F
100
AcDbEntity
  8
0
  6
SLD-Durchgehend
 62
     7
370
    25
100
AcDbLine
 10
324.3676796127
 20
1338.2283331587
 30
0.0
 11
325.5880846527
 21
1353.1035357687
 31
0.0
  0
LINE
  5
14B
330
1F
100
AcDbEntity
  8
0
  6
SLD-Durchgehend
 62
     7
370
    25
100
AcDbLine
 10
325.5880846527
 20
1353.1035357687
 30
0.0
 11
344.4484933827
 21
1411.7349350487
 31
0.0
  0
LINE
  5
14C
330
1F
100
AcDbEntity
  8
0
  6
SLD-Durchgehend
 62
     7
370
    25
100
AcDbLine
 10
344.4484933827
 20
1411.7349350487
 30
0.0
 11
351.8950833927
 21
1426.4337354987
 31
0.0
  0
LINE
  5
14D
330
1F
100
AcDbEntity
  8
0
  6
SLD-Durchgehend
 62
     7
370
    25
100
AcDbLine
 10
351.8950833927
 20
1426.4337354987
 30
0.0
 11
363.2818921227
 21
1466.7843380187
 31
0.0
  0
LINE
  5
14E
330
1F
100
AcDbEntity
  8
0
  6
SLD-Durchgehend
 62
     7
370
    25
100
AcDbLine
 10
363.2818921227
 20
1466.7843380187
 30
0.0
 11
367.1176924827
 21
1476.5448430587
 31
0.0
  0
LINE
  5
14F
330
1F
100
AcDbEntity
  8
0
  6
SLD-Durchgehend
 62
     7
370
    25
100
AcDbLine
 10
367.1176924827
 20
1476.5448430587
 30
0.0
 11
377.6764764627
 21
1529.4288316287
 31
0.0
  0
LINE
  5
150
330
1F
100
AcDbEntity
  8
0
  6
SLD-Durchgehend
 62
     7
370
    25
100
AcDbLine
 10
386.5520568784
 20
1588.6662669852
 30
0.0
 11
377.6764764627
 21
1529.4288316287
 31
0.0
  0
LINE
  5
151
330
1F
100
AcDbEntity
  8
0
  6
SLD-Durchgehend
 62
     7
370
    25
100
AcDbLine
 10
399.6395947326
 20
1619.5673980298
 30
0.0
 11
386.5520568784
 21
1588.6662669852
 31
0.0
  0
LINE
  5
152
330
1F
100
AcDbEntity
  8
0
  6
SLD-Durchgehend
 62
     7
370
    25
100
AcDbLine
 10
411.1983540667
 20
1641.6146612042
 30
0.0
 11
399.6395947326
 21
1619.5673980298
 31
0.0
  0
LINE
  5
153
330
1F
100
AcDbEntity
  8
0
  6
SLD-Durchgehend
 62
     7
370
    25
100
AcDbLine
 10
434.315872735
 20
1696.1976913931
 30
0.0
 11
411.1983540667
 21
1641.6146612042
 31
0.0
  0
LINE
  5
154
330
1F
100
AcDbEntity
  8
0
  6
SLD-Durchgehend
 62
     7
370
    25
100
AcDbLine
 10
449.9416029459
 20
1713.5358303943
 30
0.0
 11
434.315872735
 21
1696.1976913931
 31
0.0
  0
LINE
  5
155
330
1F
100
AcDbEntity
  8
0
  6
SLD-Durchgehend
 62
     7
370
    25
100
AcDbLine
 10
462.2539832127
 20
1721.7606255087
 30
0.0
 11
449.9416029459
 21
1713.5358303943
 31
0.0
  0
LINE
  5
156
330
1F
100
AcDbEntity
  8
0
  6
SLD-Durchgehend
 62
     7
370
    25
100
AcDbLine
 10
462.2539832127
 20
1721.7606255087
 30
0.0
 11
471.0154725927
 21
1722.0522353187
 31
0.0
  0
LINE
  5
157
330
1F
100
AcDbEntity
  8
0
  6
SLD-Durchgehend
 62
     7
370
    25
100
AcDbLine
 10
483.3335743556
 20
1716.9606479748
 30
0.0
 11
471.0154725927
 21
1722.0522353187
 31
0.0
  0
LINE
  5
158
330
1F
100
AcDbEntity
  8
0
  6
SLD-Durchgehend
 62
     7
370
    25
100
AcDbLine
 10
494.4642314922
 20
1702.8332754553
 30
0.0
 11
483.3335743556
 21
1716.9606479748
 31
0.0
  0
LINE
  5
159
330
1F
100
AcDbEntity
  8
0
  6
SLD-Durchgehend
 62
     7
370
    25
100
AcDbLine
 10
509.0197062092
 20
1678.4314501944
 30
0.0
 11
494.4642314922
 21
1702.8332754553
 31
0.0
  0
LINE
  5
15A
330
1F
100
AcDbEntity
  8
0
  6
SLD-Durchgehend
 62
     7
370
    25
100
AcDbLine
 10
518.4379545556
 20
1652.7453183408
 30
0.0
 11
509.0197062092
 21
1678.4314501944
 31
0.0
  0
LINE
  5
15B
330
1F
100
AcDbEntity
  8
0
  6
SLD-Durchgehend
 62
     7
370
    25
100
AcDbLine
 10
525.2827837527
 20
1615.3311351387
 30
0.0
 11
518.4379545556
 21
1652.7453183408
 31
0.0
  0
LINE
  5
15C
330
1F
100
AcDbEntity
  8
0
  6
SLD-Durchgehend
 62
     7
370
    25
100
AcDbLine
 10
525.2827837527
 20
1615.3311351387
 30
0.0
 11
529.9105599027
 21
1603.7040272187
 31
0.0
  0
LINE
  5
15D
330
1F
100
AcDbEntity
  8
0
  6
SLD-Durchgehend
 62
     7
370
    25
100
AcDbLine
 10
529.9105599027
 20
1603.7040272187
 30
0.0
 11
539.3092885227
 21
1573.1571265887
 31
0.0
  0
LINE
  5
15E
330
1F
100
AcDbEntity
  8
0
  6
SLD-Durchgehend
 62
     7
370
    25
100
AcDbLine
 10
539.3092885227
 20
1573.1571265887
 30
0.0
 11
546.6253890627
 21
1525.1736411687
 31
0.0
  0
LINE
  5
15F
330
1F
100
AcDbEntity
  8
0
  6
SLD-Durchgehend
 62
     7
370
    25
100
AcDbLine
 10
546.6253890627
 20
1525.1736411687
 30
0.0
 11
557.4298634127
 21
1486.9326362187
 31
0.0
  0
LINE
  5
160
330
1F
100
AcDbEntity
  8
0
  6
SLD-Durchgehend
 62
     7
370
    25
100
AcDbLine
 10
557.4298634127
 20
1486.9326362187
 30
0.0
 11
558.0311074227
 21
1484.8068246087
 31
0.0
  0
CIRCLE
  5
161
330
1F
100
AcDbEntity
  8
0
  6
SLD-Durchgehend
 62
     7
370
    25
100
AcDbCircle
 10
777.2089297072
 20
224.0917369686
 30
0.0
 40
6.124999999999886
  0
CIRCLE
  5
162
330
1F
100
AcDbEntity
  8
0
  6
SLD-Durchgehend
 62
     7
370
    25
100
AcDbCircle
 10
525.9702093062
 20
224.0917369686
 30
0.0
 40
6.124999999999886
  0
CIRCLE
  5
163
330
1F
100
AcDbEntity
  8
0
  6
SLD-Durchgehend
 62
     7
370
    25
100
AcDbCircle
 10
463.6343707091
 20
1649.4499870921
 30
0.0
 40
6.124999999999943
  0
CIRCLE
  5
164
330
1F
100
AcDbEntity
  8
0
  6
SLD-Durchgehend
 62
     7
370
    25
100
AcDbCircle
 10
381.2721535981
 20
1297.6013899779
 30
0.0
 40
6.125
  0
CIRCLE
  5
165
330
1F
100
AcDbEntity
  8
0
  6
SLD-Durchgehend
 62
     7
370
    25
100
AcDbCircle
 10
166.6777012572
 20
224.0917369686
 30
0.0
 40
6.125
  0
ENDSEC
  0
SECTION
  2
OBJECTS
  0
DICTIONARY
  5
C
330
0
100
AcDbDictionary
281
     1
  3
ACAD_DETAILVIEWSTYLE
350
16D
  3
ACAD_GROUP
350
D
  3
ACAD_LAYOUT
350
1A
  3
ACAD_MATERIAL
350
43
  3
ACAD_MLEADERSTYLE
350
6B
  3
ACAD_MLINESTYLE
350
17
  3
ACAD_PLOTSETTINGS
350
19
  3
ACAD_PLOTSTYLENAME
350
E
  3
ACAD_SCALELIST
350
47
  3
ACAD_SECTIONVIEWSTYLE
350
16E
  3
ACAD_TABLESTYLE
350
69
  3
ACAD_VISUALSTYLE
350
2A
  3
ACDB_RECOMPOSE_DATA
350
16A
  3
AcDbVariableDictionary
350
166
  0
SUN
  5
6D
330
29
100
AcDbSun
 90
        1
290
     0
 63
     7
421
 16777215
 40
1.0
291
     1
 91
  2455826
 92
 54000000
292
     0
 70
     2
 71
   256
280
     1
  0
DICTIONARY
  5
16D
102
{ACAD_REACTORS
330
C
102
}
330
C
100
AcDbDictionary
281
     1
  0
DICTIONARY
  5
D
102
{ACAD_REACTORS
330
C
102
}
330
C
100
AcDbDictionary
281
     1
  0
DICTIONARY
  5
1A
102
{ACAD_REACTORS
330
C
102
}
330
C
100
AcDbDictionary
281
     1
  3
Layout1
350
1E
  3
Layout2
350
26
  3
Model
350
22
  0
DICTIONARY
  5
43
102
{ACAD_REACTORS
330
C
102
}
330
C
100
AcDbDictionary
281
     1
  3
ByBlock
350
45
  3
ByLayer
350
44
  3
Global
350
46
  0
DICTIONARY
  5
6B
102
{ACAD_REACTORS
330
C
102
}
330
C
100
AcDbDictionary
281
     1
  3
Standard
350
6C
  0
DICTIONARY
  5
17
102
{ACAD_REACTORS
330
C
102
}
330
C
100
AcDbDictionary
281
     1
  3
Standard
350
18
  0
DICTIONARY
  5
19
102
{ACAD_REACTORS
330
C
102
}
330
C
100
AcDbDictionary
281
     1
  0
ACDBDICTIONARYWDFLT
  5
E
102
{ACAD_REACTORS
330
C
102
}
330
C
100
AcDbDictionary
281
     1
  3
Normal
350
F
100
AcDbDictionaryWithDefault
340
F
  0
DICTIONARY
  5
47
102
{ACAD_REACTORS
330
C
102
}
330
C
100
AcDbDictionary
281
     1
  3
A0
350
48
  3
A1
350
49
  3
A2
350
4A
  3
A3
350
4B
  3
A4
350
4C
  3
A5
350
4D
  3
A6
350
4E
  3
A7
350
4F
  3
A8
350
50
  3
A9
350
51
  3
B0
350
52
  3
B1
350
53
  3
B2
350
54
  3
B3
350
55
  3
B4
350
56
  3
B5
350
57
  3
B6
350
58
  3
B7
350
59
  3
B8
350
5A
  3
B9
350
5B
  3
C0
350
5C
  3
C1
350
5D
  3
C2
350
5E
  3
C3
350
5F
  3
C4
350
60
  3
C5
350
61
  3
C6
350
62
  3
C7
350
63
  3
C8
350
64
  3
C9
350
65
  3
D0
350
66
  3
D1
350
67
  3
D2
350
68
  0
DICTIONARY
  5
16E
102
{ACAD_REACTORS
330
C
102
}
330
C
100
AcDbDictionary
281
     1
  0
DICTIONARY
  5
69
102
{ACAD_REACTORS
330
C
102
}
330
C
100
AcDbDictionary
281
     1
  3
Standard
350
6A
  0
DICTIONARY
  5
2A
102
{ACAD_REACTORS
330
C
102
}
330
C
100
AcDbDictionary
281
     1
  3
2dWireframe
350
2F
  3
Basic
350
32
  3
Brighten
350
36
  3
ColorChange
350
3A
  3
Conceptual
350
34
  3
Dim
350
35
  3
EdgeColorOff
350
3D
  3
Facepattern
350
39
  3
Flat
350
2B
  3
FlatWithEdges
350
2C
  3
Gouraud
350
2D
  3
GouraudWithEdges
350
2E
  3
Hidden
350
31
  3
JitterOff
350
3B
  3
Linepattern
350
38
  3
OverhangOff
350
3C
  3
Realistic
350
33
  3
Shaded
350
42
  3
Shaded with edges
350
41
  3
Shades of Gray
350
3E
  3
Sketchy
350
3F
  3
Thicken
350
37
  3
Wireframe
350
30
  3
X-Ray
350
40
  0
XRECORD
  5
16A
102
{ACAD_REACTORS
330
C
102
}
330
C
100
AcDbXrecord
280
     1
 90
        1
330
6A
  0
DICTIONARY
  5
166
102
{ACAD_REACTORS
330
C
102
}
330
C
100
AcDbDictionary
281
     1
  3
CANNOSCALE
350
167
  3
CENTEREXE
350
16F
  3
CENTERLTYPEFILE
350
170
  3
CMLEADERSTYLE
350
16C
  3
CTABLESTYLE
350
16B
  0
LAYOUT
  5
1E
102
{ACAD_REACTORS
330
1A
102
}
330
1A
100
AcDbPlotSettings
  1

  2
none_device
  4

  6

 40
0.0
 41
0.0
 42
0.0
 43
0.0
 44
0.0
 45
0.0
 46
0.0
 47
0.0
 48
0.0
 49
0.0
140
0.0
141
0.0
142
1.0
143
1.0
 70
   688
 72
     1
 73
     0
 74
     5
  7

 75
    16
 76
     0
 77
     2
 78
   300
147
1.0
148
0.0
149
0.0
100
AcDbLayout
  1
Layout1
 70
     1
 71
     1
 10
0.0
 20
0.0
 11
420.0
 21
297.0
 12
0.0
 22
0.0
 32
0.0
 14
1.0000000000E+20
 24
1.0000000000E+20
 34
1.0000000000E+20
 15
-1.0000000000E+20
 25
-1.0000000000E+20
 35
-1.0000000000E+20
146
0.0
 13
0.0
 23
0.0
 33
0.0
 16
1.0
 26
0.0
 36
0.0
 17
0.0
 27
1.0
 37
0.0
 76
     0
330
1B
  0
LAYOUT
  5
26
102
{ACAD_REACTORS
330
1A
102
}
330
1A
100
AcDbPlotSettings
  1

  2
none_device
  4

  6

 40
0.0
 41
0.0
 42
0.0
 43
0.0
 44
0.0
 45
0.0
 46
0.0
 47
0.0
 48
0.0
 49
0.0
140
0.0
141
0.0
142
1.0
143
1.0
 70
   688
 72
     1
 73
     0
 74
     5
  7

 75
    16
 76
     0
 77
     2
 78
   300
147
1.0
148
0.0
149
0.0
100
AcDbLayout
  1
Layout2
 70
     1
 71
     2
 10
0.0
 20
0.0
 11
0.0
 21
0.0
 12
0.0
 22
0.0
 32
0.0
 14
0.0
 24
0.0
 34
0.0
 15
0.0
 25
0.0
 35
0.0
146
0.0
 13
0.0
 23
0.0
 33
0.0
 16
1.0
 26
0.0
 36
0.0
 17
0.0
 27
1.0
 37
0.0
 76
     0
330
23
  0
LAYOUT
  5
22
102
{ACAD_REACTORS
330
1A
102
}
330
1A
100
AcDbPlotSettings
  1

  2
none_device
  4
Letter_(8.50_x_11.00_Inches)
  6

 40
6.35
 41
6.35
 42
6.35000508
 43
6.35000508
 44
215.9
 45
279.4
 46
0.0
 47
0.0
 48
0.0
 49
0.0
140
0.0
141
0.0
142
1.0
143
1.0
 70
  1712
 72
     1
 73
     0
 74
     0
  7

 75
     0
 76
     0
 77
     2
 78
   300
147
1.0
148
0.0
149
0.0
100
AcDbLayout
  1
Model
 70
     1
 71
     0
 10
0.0
 20
0.0
 11
1000.0
 21
1900.0
 12
0.0
 22
0.0
 32
0.0
 14
0.0
 24
0.0
 34
0.0
 15
1000.0
 25
1900.0
 35
0.0
146
0.0
 13
0.0
 23
0.0
 33
0.0
 16
1.0
 26
0.0
 36
0.0
 17
0.0
 27
1.0
 37
0.0
 76
     0
330
1F
331
29
  0
MATERIAL
  5
45
102
{ACAD_REACTORS
330
43
102
}
330
43
100
AcDbMaterial
  1
ByBlock
 72
     1
 94
      127
  0
MATERIAL
  5
44
102
{ACAD_REACTORS
330
43
102
}
330
43
100
AcDbMaterial
  1
ByLayer
 72
     1
 94
      127
  0
MATERIAL
  5
46
102
{ACAD_REACTORS
330
43
102
}
330
43
100
AcDbMaterial
  1
Global
 72
     1
 94
      127
  0
MLEADERSTYLE
  5
6C
102
{ACAD_REACTORS
330
6B
102
}
330
6B
100
AcDbMLeaderStyle
179
     2
170
     2
171
     1
172
     0
 90
        2
 40
0.0
 41
0.0
173
     1
 91
-1056964608
340
14
 92
       -2
290
     1
 42
2.0
291
     1
 43
8.0
  3
Standard
341
0
 44
4.0
300

342
11
174
     1
178
     6
175
     1
176
     0
 93
-1056964608
 45
4.0
292
     0
297
     0
 46
4.0
343
0
 94
-1056964608
 47
1.0
 49
1.0
140
1.0
293
     1
141
0.0
294
     1
177
     0
142
1.0
295
     0
296
     0
143
3.75
271
     0
272
     9
273
     9
298
     0
  0
MLINESTYLE
  5
18
102
{ACAD_REACTORS
330
17
102
}
330
17
100
AcDbMlineStyle
  2
Standard
 70
     0
  3

 62
   256
 51
90.0
 52
90.0
 71
     2
 49
0.5
 62
   256
  6
BYLAYER
 49
-0.5
 62
   256
  6
BYLAYER
  0
ACDBPLACEHOLDER
  5
F
102
{ACAD_REACTORS
330
E
102
}
330
E
  0
SCALE
  5
48
102
{ACAD_REACTORS
330
47
102
}
330
47
100
AcDbScale
 70
     0
300
1:1
140
1.0
141
1.0
290
     1
  0
SCALE
  5
49
102
{ACAD_REACTORS
330
47
102
}
330
47
100
AcDbScale
 70
     0
300
1:2
140
1.0
141
2.0
290
     0
  0
SCALE
  5
4A
102
{ACAD_REACTORS
330
47
102
}
330
47
100
AcDbScale
 70
     0
300
1:4
140
1.0
141
4.0
290
     0
  0
SCALE
  5
4B
102
{ACAD_REACTORS
330
47
102
}
330
47
100
AcDbScale
 70
     0
300
1:5
140
1.0
141
5.0
290
     0
  0
SCALE
  5
4C
102
{ACAD_REACTORS
330
47
102
}
330
47
100
AcDbScale
 70
     0
300
1:8
140
1.0
141
8.0
290
     0
  0
SCALE
  5
4D
102
{ACAD_REACTORS
330
47
102
}
330
47
100
AcDbScale
 70
     0
300
1:10
140
1.0
141
10.0
290
     0
  0
SCALE
  5
4E
102
{ACAD_REACTORS
330
47
102
}
330
47
100
AcDbScale
 70
     0
300
1:16
140
1.0
141
16.0
290
     0
  0
SCALE
  5
4F
102
{ACAD_REACTORS
330
47
102
}
330
47
100
AcDbScale
 70
     0
300
1:20
140
1.0
141
20.0
290
     0
  0
SCALE
  5
50
102
{ACAD_REACTORS
330
47
102
}
330
47
100
AcDbScale
 70
     0
300
1:30
140
1.0
141
30.0
290
     0
  0
SCALE
  5
51
102
{ACAD_REACTORS
330
47
102
}
330
47
100
AcDbScale
 70
     0
300
1:40
140
1.0
141
40.0
290
     0
  0
SCALE
  5
52
102
{ACAD_REACTORS
330
47
102
}
330
47
100
AcDbScale
 70
     0
300
1:50
140
1.0
141
50.0
290
     0
  0
SCALE
  5
53
102
{ACAD_REACTORS
330
47
102
}
330
47
100
AcDbScale
 70
     0
300
1:100
140
1.0
141
100.0
290
     0
  0
SCALE
  5
54
102
{ACAD_REACTORS
330
47
102
}
330
47
100
AcDbScale
 70
     0
300
2:1
140
2.0
141
1.0
290
     0
  0
SCALE
  5
55
102
{ACAD_REACTORS
330
47
102
}
330
47
100
AcDbScale
 70
     0
300
4:1
140
4.0
141
1.0
290
     0
  0
SCALE
  5
56
102
{ACAD_REACTORS
330
47
102
}
330
47
100
AcDbScale
 70
     0
300
8:1
140
8.0
141
1.0
290
     0
  0
SCALE
  5
57
102
{ACAD_REACTORS
330
47
102
}
330
47
100
AcDbScale
 70
     0
300
10:1
140
10.0
141
1.0
290
     0
  0
SCALE
  5
58
102
{ACAD_REACTORS
330
47
102
}
330
47
100
AcDbScale
 70
     0
300
100:1
140
100.0
141
1.0
290
     0
  0
SCALE
  5
59
102
{ACAD_REACTORS
330
47
102
}
330
47
100
AcDbScale
 70
     0
300
1/128" = 1'-0"
140
0.0078125
141
12.0
290
     0
  0
SCALE
  5
5A
102
{ACAD_REACTORS
330
47
102
}
330
47
100
AcDbScale
 70
     0
300
1/64" = 1'-0"
140
0.015625
141
12.0
290
     0
  0
SCALE
  5
5B
102
{ACAD_REACTORS
330
47
102
}
330
47
100
AcDbScale
 70
     0
300
1/32" = 1'-0"
140
0.03125
141
12.0
290
     0
  0
SCALE
  5
5C
102
{ACAD_REACTORS
330
47
102
}
330
47
100
AcDbScale
 70
     0
300
1/16" = 1'-0"
140
0.0625
141
12.0
290
     0
  0
SCALE
  5
5D
102
{ACAD_REACTORS
330
47
102
}
330
47
100
AcDbScale
 70
     0
300
3/32" = 1'-0"
140
0.09375
141
12.0
290
     0
  0
SCALE
  5
5E
102
{ACAD_REACTORS
330
47
102
}
330
47
100
AcDbScale
 70
     0
300
1/8" = 1'-0"
140
0.125
141
12.0
290
     0
  0
SCALE
  5
5F
102
{ACAD_REACTORS
330
47
102
}
330
47
100
AcDbScale
 70
     0
300
3/16" = 1'-0"
140
0.1875
141
12.0
290
     0
  0
SCALE
  5
60
102
{ACAD_REACTORS
330
47
102
}
330
47
100
AcDbScale
 70
     0
300
1/4" = 1'-0"
140
0.25
141
12.0
290
     0
  0
SCALE
  5
61
102
{ACAD_REACTORS
330
47
102
}
330
47
100
AcDbScale
 70
     0
300
3/8" = 1'-0"
140
0.375
141
12.0
290
     0
  0
SCALE
  5
62
102
{ACAD_REACTORS
330
47
102
}
330
47
100
AcDbScale
 70
     0
300
1/2" = 1'-0"
140
0.5
141
12.0
290
     0
  0
SCALE
  5
63
102
{ACAD_REACTORS
330
47
102
}
330
47
100
AcDbScale
 70
     0
300
3/4" = 1'-0"
140
0.75
141
12.0
290
     0
  0
SCALE
  5
64
102
{ACAD_REACTORS
330
47
102
}
330
47
100
AcDbScale
 70
     0
300
1" = 1'-0"
140
1.0
141
12.0
290
     0
  0
SCALE
  5
65
102
{ACAD_REACTORS
330
47
102
}
330
47
100
AcDbScale
 70
     0
300
1-1/2" = 1'-0"
140
1.5
141
12.0
290
     0
  0
SCALE
  5
66
102
{ACAD_REACTORS
330
47
102
}
330
47
100
AcDbScale
 70
     0
300
3" = 1'-0"
140
3.0
141
12.0
290
     0
  0
SCALE
  5
67
102
{ACAD_REACTORS
330
47
102
}
330
47
100
AcDbScale
 70
     0
300
6" = 1'-0"
140
6.0
141
12.0
290
     0
  0
SCALE
  5
68
102
{ACAD_REACTORS
330
47
102
}
330
47
100
AcDbScale
 70
     0
300
1'-0" = 1'-0"
140
12.0
141
12.0
290
     0
  0
TABLESTYLE
  5
6A
102
{ACAD_REACTORS
330
69
102
}
102
{ACAD_XDICTIONARY
360
168
102
}
330
69
100
AcDbTableStyle
  3
Standard
 70
     0
 71
     0
 40
0.06
 41
0.06
280
     0
281
     0
  7
Standard
140
4.5
170
     2
 62
     0
 63
   257
283
     0
 90
        4
 91
        0
  1

274
    -2
284
     1
 64
     0
275
    -2
285
     1
 65
     0
276
    -2
286
     1
 66
     0
277
    -2
287
     1
 67
     0
278
    -2
288
     1
 68
     0
279
    -2
289
     1
 69
     0
  7
Standard
140
6.0
170
     5
 62
     0
 63
   257
283
     0
 90
        4
 91
        0
  1

274
    -2
284
     1
 64
     0
275
    -2
285
     1
 65
     0
276
    -2
286
     1
 66
     0
277
    -2
287
     1
 67
     0
278
    -2
288
     1
 68
     0
279
    -2
289
     1
 69
     0
  7
Standard
140
4.5
170
     5
 62
     0
 63
   257
283
     0
 90
        4
 91
        0
  1

274
    -2
284
     1
 64
     0
275
    -2
285
     1
 65
     0
276
    -2
286
     1
 66
     0
277
    -2
287
     1
 67
     0
278
    -2
288
     1
 68
     0
279
    -2
289
     1
 69
     0
  0
VISUALSTYLE
  5
2F
102
{ACAD_REACTORS
330
2A
102
}
330
2A
100
AcDbVisualStyle
  2
2dWireframe
 70
     4
177
     3
291
     0
 70
    58
 90
        0
176
     1
 90
        2
176
     1
 90
        0
176
     1
 90
        0
176
     1
 40
0.6
176
     1
 40
30.0
176
     1
 62
     7
420
 16777215
176
     1
 90
        1
176
     1
 90
        4
176
     1
 62
     7
176
     1
 62
   257
176
     1
 90
        1
176
     1
 90
        1
176
     1
 40
1.0
176
     1
 90
        0
176
     1
 62
   257
176
     1
 40
1.0
176
     1
 90
        1
176
     1
 90
        6
176
     1
 90
        2
176
     1
 62
     7
176
     1
 90
        5
176
     1
 90
        0
176
     1
 90
        0
176
     1
290
     0
176
     1
 90
        1
176
     1
 40
0.0
176
     1
 90
        0
176
     1
290
     1
176
     1
290
     1
176
     1
290
     0
176
     1
290
     0
176
     1
290
     0
176
     1
290
     0
176
     1
290
     0
176
     1
290
     0
176
     1
290
     0
176
     1
 90
       50
176
     1
 40
0.0
176
     1
 40
1.0
176
     1
 90
        0
176
     1
 62
    18
420
        0
176
     1
 90
       50
176
     1
 90
        3
176
     1
 62
     5
420
      255
176
     1
290
     0
176
     1
 90
       50
176
     1
 90
       50
176
     1
 90
       50
176
     1
290
     0
176
     1
 90
       50
176
     1
 62
   256
176
     0
 40
1.0
176
     0
 90
        2
176
     1
  1
strokes_ogs.tif
176
     1
290
     0
176
     1
 40
1.0
176
     1
 40
1.0
176
     1
  0
VISUALSTYLE
  5
32
102
{ACAD_REACTORS
330
2A
102
}
330
2A
100
AcDbVisualStyle
  2
Basic
 70
     7
177
     3
291
     1
 70
    58
 90
        1
176
     1
 90
        0
176
     1
 90
        1
176
     1
 90
        0
176
     1
 40
0.6
176
     1
 40
30.0
176
     1
 62
     7
420
 16777215
176
     1
 90
        0
176
     1
 90
        4
176
     1
 62
     7
176
     1
 62
   257
176
     1
 90
        1
176
     1
 90
        1
176
     1
 40
1.0
176
     1
 90
        8
176
     1
 62
     7
176
     1
 40
1.0
176
     1
 90
        1
176
     1
 90
        6
176
     1
 90
        2
176
     1
 62
     7
176
     1
 90
        5
176
     1
 90
        0
176
     1
 90
        0
176
     1
290
     0
176
     1
 90
        1
176
     1
 40
0.0
176
     1
 90
        0
176
     1
290
     0
176
     1
290
     1
176
     1
290
     1
176
     1
290
     0
176
     1
290
     0
176
     1
290
     0
176
     1
290
     0
176
     1
290
     0
176
     1
290
     0
176
     1
 90
       50
176
     1
 40
0.0
176
     1
 40
1.0
176
     1
 90
        0
176
     1
 62
    18
420
        0
176
     1
 90
       50
176
     1
 90
        3
176
     1
 62
     5
420
      255
176
     1
290
     0
176
     1
 90
       50
176
     1
 90
       50
176
     1
 90
       50
176
     1
290
     0
176
     1
 90
       50
176
     1
 62
   256
176
     0
 40
1.0
176
     0
 90
        2
176
     1
  1
strokes_ogs.tif
176
     1
290
     0
176
     1
 40
1.0
176
     1
 40
1.0
176
     1
  0
VISUALSTYLE
  5
36
102
{ACAD_REACTORS
330
2A
102
}
330
2A
100
AcDbVisualStyle
  2
Brighten
 70
    12
177
     3
291
     1
 70
    58
 90
        2
176
     1
 90
        2
176
     1
 90
        0
176
     1
 90
        0
176
     1
 40
0.6
176
     1
 40
30.0
176
     1
 62
     7
420
 16777215
176
     1
 90
        1
176
     1
 90
        4
176
     1
 62
     7
176
     1
 62
   257
176
     1
 90
        1
176
     1
 90
        1
176
     1
 40
1.0
176
     1
 90
        8
176
     1
 62
     7
176
     1
 40
1.0
176
     1
 90
        1
176
     1
 90
        6
176
     1
 90
        2
176
     1
 62
     7
176
     1
 90
        5
176
     1
 90
        0
176
     1
 90
        0
176
     1
290
     0
176
     1
 90
        1
176
     1
 40
50.0
176
     1
 90
        0
176
     1
290
     0
176
     1
290
     1
176
     1
290
     1
176
     1
290
     0
176
     1
290
     0
176
     1
290
     0
176
     1
290
     0
176
     1
290
     0
176
     1
290
     0
176
     1
 90
       50
176
     1
 40
0.0
176
     1
 40
1.0
176
     1
 90
        0
176
     1
 62
    18
420
        0
176
     1
 90
       50
176
     1
 90
        3
176
     1
 62
     5
420
      255
176
     1
290
     0
176
     1
 90
       50
176
     1
 90
       50
176
     1
 90
       50
176
     1
290
     0
176
     1
 90
       50
176
     1
 62
   256
176
     0
 40
1.0
176
     0
 90
        2
176
     1
  1
strokes_ogs.tif
176
     1
290
     0
176
     1
 40
1.0
176
     1
 40
1.0
176
     1
  0
VISUALSTYLE
  5
3A
102
{ACAD_REACTORS
330
2A
102
}
330
2A
100
AcDbVisualStyle
  2
ColorChange
 70
    16
177
     3
291
     1
 70
    58
 90
        2
176
     1
 90
        2
176
     1
 90
        3
176
     1
 90
        0
176
     1
 40
0.6
176
     1
 40
30.0
176
     1
 62
     8
420
  8421504
176
     1
 90
        1
176
     1
 90
        4
176
     1
 62
     7
176
     1
 62
   257
176
     1
 90
        1
176
     1
 90
        1
176
     1
 40
1.0
176
     1
 90
        8
176
     1
 62
     8
420
  8421504
176
     1
 40
1.0
176
     1
 90
        1
176
     1
 90
        6
176
     1
 90
        2
176
     1
 62
     7
176
     1
 90
        5
176
     1
 90
        0
176
     1
 90
        0
176
     1
290
     0
176
     1
 90
        1
176
     1
 40
0.0
176
     1
 90
        0
176
     1
290
     0
176
     1
290
     1
176
     1
290
     1
176
     1
290
     0
176
     1
290
     0
176
     1
290
     0
176
     1
290
     0
176
     1
290
     0
176
     1
290
     0
176
     1
 90
       50
176
     1
 40
0.0
176
     1
 40
1.0
176
     1
 90
        0
176
     1
 62
    18
420
        0
176
     1
 90
       50
176
     1
 90
        3
176
     1
 62
     5
420
      255
176
     1
290
     0
176
     1
 90
       50
176
     1
 90
       50
176
     1
 90
       50
176
     1
290
     0
176
     1
 90
       50
176
     1
 62
   256
176
     0
 40
1.0
176
     0
 90
        2
176
     1
  1
strokes_ogs.tif
176
     1
290
     0
176
     1
 40
1.0
176
     1
 40
1.0
176
     1
  0
VISUALSTYLE
  5
34
102
{ACAD_REACTORS
330
2A
102
}
330
2A
100
AcDbVisualStyle
  2
Conceptual
 70
     9
177
     3
291
     0
 70
    58
 90
        3
176
     1
 90
        2
176
     1
 90
        0
176
     1
 90
        0
176
     1
 40
0.6
176
     1
 40
30.0
176
     1
 62
     7
420
 16777215
176
     1
 90
        2
176
     1
 90
        2
176
     1
 62
     7
176
     1
 62
   257
176
     1
 90
        1
176
     1
 90
        1
176
     1
 40
179.0
176
     1
 90
        8
176
     1
 62
     7
176
     1
 40
1.0
176
     1
 90
        1
176
     1
 90
        6
176
     1
 90
        2
176
     1
 62
     7
176
     1
 90
        3
176
     1
 90
        0
176
     1
 90
        0
176
     1
290
     0
176
     1
 90
        1
176
     1
 40
0.0
176
     1
 90
        0
176
     1
290
     0
176
     1
290
     1
176
     1
290
     1
176
     1
290
     0
176
     1
290
     0
176
     1
290
     0
176
     1
290
     0
176
     1
290
     0
176
     1
290
     0
176
     1
 90
       50
176
     1
 40
0.0
176
     1
 40
1.0
176
     1
 90
        0
176
     1
 62
    18
420
        0
176
     1
 90
       50
176
     1
 90
        3
176
     1
 62
     5
420
      255
176
     1
290
     0
176
     1
 90
       50
176
     1
 90
       50
176
     1
 90
       50
176
     1
290
     0
176
     1
 90
       50
176
     1
 62
   256
176
     0
 40
1.0
176
     0
 90
        2
176
     1
  1
strokes_ogs.tif
176
     1
290
     0
176
     1
 40
1.0
176
     1
 40
1.0
176
     1
  0
VISUALSTYLE
  5
35
102
{ACAD_REACTORS
330
2A
102
}
330
2A
100
AcDbVisualStyle
  2
Dim
 70
    11
177
     3
291
     1
 70
    58
 90
        2
176
     1
 90
        2
176
     1
 90
        0
176
     1
 90
        0
176
     1
 40
0.6
176
     1
 40
30.0
176
     1
 62
     7
420
 16777215
176
     1
 90
        1
176
     1
 90
        4
176
     1
 62
     7
176
     1
 62
   257
176
     1
 90
        1
176
     1
 90
        1
176
     1
 40
1.0
176
     1
 90
        8
176
     1
 62
     7
176
     1
 40
1.0
176
     1
 90
        1
176
     1
 90
        6
176
     1
 90
        2
176
     1
 62
     7
176
     1
 90
        5
176
     1
 90
        0
176
     1
 90
        0
176
     1
290
     0
176
     1
 90
        1
176
     1
 40
-50.0
176
     1
 90
        0
176
     1
290
     0
176
     1
290
     1
176
     1
290
     1
176
     1
290
     0
176
     1
290
     0
176
     1
290
     0
176
     1
290
     0
176
     1
290
     0
176
     1
290
     0
176
     1
 90
       50
176
     1
 40
0.0
176
     1
 40
1.0
176
     1
 90
        0
176
     1
 62
    18
420
        0
176
     1
 90
       50
176
     1
 90
        3
176
     1
 62
     5
420
      255
176
     1
290
     0
176
     1
 90
       50
176
     1
 90
       50
176
     1
 90
       50
176
     1
290
     0
176
     1
 90
       50
176
     1
 62
   256
176
     0
 40
1.0
176
     0
 90
        2
176
     1
  1
strokes_ogs.tif
176
     1
290
     0
176
     1
 40
1.0
176
     1
 40
1.0
176
     1
  0
VISUALSTYLE
  5
3D
102
{ACAD_REACTORS
330
2A
102
}
330
2A
100
AcDbVisualStyle
  2
EdgeColorOff
 70
    22
177
     3
291
     1
 70
    58
 90
        2
176
     0
 90
        2
176
     0
 90
        0
176
     0
 90
        0
176
     0
 40
0.6
176
     0
 40
30.0
176
     0
 62
     7
420
 16777215
176
     0
 90
        1
176
     0
 90
        4
176
     0
 62
     7
176
     0
 62
   257
176
     0
 90
        1
176
     0
 90
        1
176
     0
 40
1.0
176
     0
 90
        8
176
     2
 62
     7
176
     0
 40
1.0
176
     0
 90
        1
176
     0
 90
        6
176
     0
 90
        2
176
     0
 62
     7
176
     0
 90
        5
176
     0
 90
        0
176
     0
 90
        0
176
     0
290
     0
176
     0
 90
        1
176
     0
 40
0.0
176
     0
 90
        0
176
     0
290
     0
176
     0
290
     1
176
     0
290
     1
176
     0
290
     0
176
     0
290
     0
176
     0
290
     0
176
     0
290
     0
176
     0
290
     0
176
     0
290
     0
176
     0
 90
       50
176
     0
 40
0.0
176
     0
 40
1.0
176
     0
 90
        0
176
     0
 62
    18
420
        0
176
     0
 90
       50
176
     0
 90
        3
176
     0
 62
     5
420
      255
176
     0
290
     0
176
     0
 90
       50
176
     0
 90
       50
176
     0
 90
       50
176
     0
290
     0
176
     0
 90
       50
176
     0
 62
   256
176
     0
 40
1.0
176
     0
 90
        2
176
     0
  1
strokes_ogs.tif
176
     0
290
     0
176
     0
 40
1.0
176
     0
 40
1.0
176
     0
  0
VISUALSTYLE
  5
39
102
{ACAD_REACTORS
330
2A
102
}
330
2A
100
AcDbVisualStyle
  2
Facepattern
 70
    15
177
     3
291
     1
 70
    58
 90
        2
176
     1
 90
        2
176
     1
 90
        0
176
     1
 90
        0
176
     1
 40
0.6
176
     1
 40
30.0
176
     1
 62
     7
420
 16777215
176
     1
 90
        1
176
     1
 90
        4
176
     1
 62
     7
176
     1
 62
   257
176
     1
 90
        1
176
     1
 90
        1
176
     1
 40
1.0
176
     1
 90
        8
176
     1
 62
     7
176
     1
 40
1.0
176
     1
 90
        1
176
     1
 90
        6
176
     1
 90
        2
176
     1
 62
     7
176
     1
 90
        5
176
     1
 90
        0
176
     1
 90
        0
176
     1
290
     0
176
     1
 90
        1
176
     1
 40
0.0
176
     1
 90
        0
176
     1
290
     0
176
     1
290
     1
176
     1
290
     1
176
     1
290
     0
176
     1
290
     0
176
     1
290
     0
176
     1
290
     0
176
     1
290
     0
176
     1
290
     0
176
     1
 90
       50
176
     1
 40
0.0
176
     1
 40
1.0
176
     1
 90
        0
176
     1
 62
    18
420
        0
176
     1
 90
       50
176
     1
 90
        3
176
     1
 62
     5
420
      255
176
     1
290
     0
176
     1
 90
       50
176
     1
 90
       50
176
     1
 90
       50
176
     1
290
     0
176
     1
 90
       50
176
     1
 62
   256
176
     0
 40
1.0
176
     0
 90
        2
176
     1
  1
strokes_ogs.tif
176
     1
290
     0
176
     1
 40
1.0
176
     1
 40
1.0
176
     1
  0
VISUALSTYLE
  5
2B
102
{ACAD_REACTORS
330
2A
102
}
330
2A
100
AcDbVisualStyle
  2
Flat
 70
     0
177
     3
291
     1
 70
    58
 90
        2
176
     1
 90
        1
176
     1
 90
        1
176
     1
 90
        2
176
     1
 40
0.6
176
     1
 40
30.0
176
     1
 62
     7
420
 16777215
176
     1
 90
        0
176
     1
 90
        0
176
     1
 62
     7
176
     1
 62
   257
176
     1
 90
        1
176
     1
 90
        1
176
     1
 40
1.0
176
     1
 90
        8
176
     1
 62
     7
176
     1
 40
1.0
176
     1
 90
        1
176
     1
 90
        6
176
     1
 90
        2
176
     1
 62
     7
176
     1
 90
        5
176
     1
 90
        0
176
     1
 90
        0
176
     1
290
     0
176
     1
 90
       13
176
     1
 40
0.0
176
     1
 90
        0
176
     1
290
     0
176
     1
290
     1
176
     1
290
     1
176
     1
290
     0
176
     1
290
     0
176
     1
290
     0
176
     1
290
     0
176
     1
290
     0
176
     1
290
     0
176
     1
 90
       50
176
     1
 40
0.0
176
     1
 40
1.0
176
     1
 90
        0
176
     1
 62
    18
420
        0
176
     1
 90
       50
176
     1
 90
        3
176
     1
 62
     5
420
      255
176
     1
290
     0
176
     1
 90
       50
176
     1
 90
       50
176
     1
 90
       50
176
     1
290
     0
176
     1
 90
       50
176
     1
 62
   256
176
     0
 40
1.0
176
     0
 90
        2
176
     1
  1
strokes_ogs.tif
176
     1
290
     0
176
     1
 40
1.0
176
     1
 40
1.0
176
     1
  0
VISUALSTYLE
  5
2C
102
{ACAD_REACTORS
330
2A
102
}
330
2A
100
AcDbVisualStyle
  2
FlatWithEdges
 70
     1
177
     3
291
     1
 70
    58
 90
        2
176
     1
 90
        1
176
     1
 90
        1
176
     1
 90
        2
176
     1
 40
0.6
176
     1
 40
30.0
176
     1
 62
     7
420
 16777215
176
     1
 90
        1
176
     1
 90
        0
176
     1
 62
     7
176
     1
 62
   257
176
     1
 90
        1
176
     1
 90
        1
176
     1
 40
1.0
176
     1
 90
        0
176
     1
 62
   257
176
     1
 40
1.0
176
     1
 90
        1
176
     1
 90
        6
176
     1
 90
        2
176
     1
 62
     7
176
     1
 90
        5
176
     1
 90
        0
176
     1
 90
        0
176
     1
290
     0
176
     1
 90
       13
176
     1
 40
0.0
176
     1
 90
        0
176
     1
290
     0
176
     1
290
     1
176
     1
290
     1
176
     1
290
     0
176
     1
290
     0
176
     1
290
     0
176
     1
290
     0
176
     1
290
     0
176
     1
290
     0
176
     1
 90
       50
176
     1
 40
0.0
176
     1
 40
1.0
176
     1
 90
        0
176
     1
 62
    18
420
        0
176
     1
 90
       50
176
     1
 90
        3
176
     1
 62
     5
420
      255
176
     1
290
     0
176
     1
 90
       50
176
     1
 90
       50
176
     1
 90
       50
176
     1
290
     0
176
     1
 90
       50
176
     1
 62
   256
176
     0
 40
1.0
176
     0
 90
        2
176
     1
  1
strokes_ogs.tif
176
     1
290
     0
176
     1
 40
1.0
176
     1
 40
1.0
176
     1
  0
VISUALSTYLE
  5
2D
102
{ACAD_REACTORS
330
2A
102
}
330
2A
100
AcDbVisualStyle
  2
Gouraud
 70
     2
177
     3
291
     1
 70
    58
 90
        2
176
     1
 90
        2
176
     1
 90
        1
176
     1
 90
        2
176
     1
 40
0.6
176
     1
 40
30.0
176
     1
 62
     7
420
 16777215
176
     1
 90
        0
176
     1
 90
        0
176
     1
 62
     7
176
     1
 62
   257
176
     1
 90
        1
176
     1
 90
        1
176
     1
 40
1.0
176
     1
 90
        0
176
     1
 62
     7
176
     1
 40
1.0
176
     1
 90
        1
176
     1
 90
        6
176
     1
 90
        2
176
     1
 62
     7
176
     1
 90
        5
176
     1
 90
        0
176
     1
 90
        0
176
     1
290
     0
176
     1
 90
       13
176
     1
 40
0.0
176
     1
 90
        0
176
     1
290
     0
176
     1
290
     1
176
     1
290
     1
176
     1
290
     0
176
     1
290
     0
176
     1
290
     0
176
     1
290
     0
176
     1
290
     0
176
     1
290
     0
176
     1
 90
       50
176
     1
 40
0.0
176
     1
 40
1.0
176
     1
 90
        0
176
     1
 62
    18
420
        0
176
     1
 90
       50
176
     1
 90
        3
176
     1
 62
     5
420
      255
176
     1
290
     0
176
     1
 90
       50
176
     1
 90
       50
176
     1
 90
       50
176
     1
290
     0
176
     1
 90
       50
176
     1
 62
   256
176
     0
 40
1.0
176
     0
 90
        2
176
     1
  1
strokes_ogs.tif
176
     1
290
     0
176
     1
 40
1.0
176
     1
 40
1.0
176
     1
  0
VISUALSTYLE
  5
2E
102
{ACAD_REACTORS
330
2A
102
}
330
2A
100
AcDbVisualStyle
  2
GouraudWithEdges
 70
     3
177
     3
291
     1
 70
    58
 90
        2
176
     1
 90
        2
176
     1
 90
        1
176
     1
 90
        2
176
     1
 40
0.6
176
     1
 40
30.0
176
     1
 62
     7
420
 16777215
176
     1
 90
        1
176
     1
 90
        0
176
     1
 62
     7
176
     1
 62
   257
176
     1
 90
        1
176
     1
 90
        1
176
     1
 40
1.0
176
     1
 90
        0
176
     1
 62
   257
176
     1
 40
1.0
176
     1
 90
        1
176
     1
 90
        6
176
     1
 90
        2
176
     1
 62
     7
176
     1
 90
        5
176
     1
 90
        0
176
     1
 90
        0
176
     1
290
     0
176
     1
 90
       13
176
     1
 40
0.0
176
     1
 90
        0
176
     1
290
     0
176
     1
290
     1
176
     1
290
     1
176
     1
290
     0
176
     1
290
     0
176
     1
290
     0
176
     1
290
     0
176
     1
290
     0
176
     1
290
     0
176
     1
 90
       50
176
     1
 40
0.0
176
     1
 40
1.0
176
     1
 90
        0
176
     1
 62
    18
420
        0
176
     1
 90
       50
176
     1
 90
        3
176
     1
 62
     5
420
      255
176
     1
290
     0
176
     1
 90
       50
176
     1
 90
       50
176
     1
 90
       50
176
     1
290
     0
176
     1
 90
       50
176
     1
 62
   256
176
     0
 40
1.0
176
     0
 90
        2
176
     1
  1
strokes_ogs.tif
176
     1
290
     0
176
     1
 40
1.0
176
     1
 40
1.0
176
     1
  0
VISUALSTYLE
  5
31
102
{ACAD_REACTORS
330
2A
102
}
330
2A
100
AcDbVisualStyle
  2
Hidden
 70
     6
177
     3
291
     0
 70
    58
 90
        1
176
     1
 90
        2
176
     1
 90
        2
176
     1
 90
        0
176
     1
 40
0.6
176
     1
 40
30.0
176
     1
 62
     7
420
 16777215
176
     1
 90
        2
176
     1
 90
        2
176
     1
 62
     7
176
     1
 62
   257
176
     1
 90
        2
176
     1
 90
        1
176
     1
 40
40.0
176
     1
 90
        0
176
     1
 62
   257
176
     1
 40
1.0
176
     1
 90
        1
176
     1
 90
        6
176
     1
 90
        2
176
     1
 62
     7
176
     1
 90
        3
176
     1
 90
        0
176
     1
 90
        0
176
     1
290
     0
176
     1
 90
        1
176
     1
 40
0.0
176
     1
 90
        0
176
     1
290
     0
176
     1
290
     1
176
     1
290
     1
176
     1
290
     0
176
     1
290
     0
176
     1
290
     0
176
     1
290
     0
176
     1
290
     0
176
     1
290
     0
176
     1
 90
       50
176
     1
 40
0.0
176
     1
 40
1.0
176
     1
 90
        0
176
     1
 62
    18
420
        0
176
     1
 90
       50
176
     1
 90
        3
176
     1
 62
     5
420
      255
176
     1
290
     0
176
     1
 90
       50
176
     1
 90
       50
176
     1
 90
       50
176
     1
290
     0
176
     1
 90
       50
176
     1
 62
   256
176
     0
 40
1.0
176
     0
 90
        2
176
     1
  1
strokes_ogs.tif
176
     1
290
     0
176
     1
 40
1.0
176
     1
 40
1.0
176
     1
  0
VISUALSTYLE
  5
3B
102
{ACAD_REACTORS
330
2A
102
}
330
2A
100
AcDbVisualStyle
  2
JitterOff
 70
    20
177
     3
291
     1
 70
    58
 90
        2
176
     0
 90
        2
176
     0
 90
        0
176
     0
 90
        0
176
     0
 40
0.6
176
     0
 40
30.0
176
     0
 62
     7
420
 16777215
176
     0
 90
        1
176
     0
 90
        4
176
     0
 62
     7
176
     0
 62
   257
176
     0
 90
        1
176
     0
 90
        1
176
     0
 40
1.0
176
     0
 90
       10
176
     2
 62
     7
176
     0
 40
1.0
176
     0
 90
        1
176
     0
 90
        6
176
     0
 90
        2
176
     0
 62
     7
176
     0
 90
        5
176
     0
 90
        0
176
     0
 90
        0
176
     0
290
     0
176
     0
 90
        1
176
     0
 40
0.0
176
     0
 90
        0
176
     0
290
     0
176
     0
290
     1
176
     0
290
     1
176
     0
290
     0
176
     0
290
     0
176
     0
290
     0
176
     0
290
     0
176
     0
290
     0
176
     0
290
     0
176
     0
 90
       50
176
     0
 40
0.0
176
     0
 40
1.0
176
     0
 90
        0
176
     0
 62
    18
420
        0
176
     0
 90
       50
176
     0
 90
        3
176
     0
 62
     5
420
      255
176
     0
290
     0
176
     0
 90
       50
176
     0
 90
       50
176
     0
 90
       50
176
     0
290
     0
176
     0
 90
       50
176
     0
 62
   256
176
     0
 40
1.0
176
     0
 90
        2
176
     0
  1
strokes_ogs.tif
176
     0
290
     0
176
     0
 40
1.0
176
     0
 40
1.0
176
     0
  0
VISUALSTYLE
  5
38
102
{ACAD_REACTORS
330
2A
102
}
330
2A
100
AcDbVisualStyle
  2
Linepattern
 70
    14
177
     3
291
     1
 70
    58
 90
        2
176
     1
 90
        2
176
     1
 90
        0
176
     1
 90
        0
176
     1
 40
0.6
176
     1
 40
30.0
176
     1
 62
     7
420
 16777215
176
     1
 90
        1
176
     1
 90
        4
176
     1
 62
     7
176
     1
 62
   257
176
     1
 90
        7
176
     1
 90
        7
176
     1
 40
1.0
176
     1
 90
        8
176
     1
 62
     7
176
     1
 40
1.0
176
     1
 90
        1
176
     1
 90
        6
176
     1
 90
        2
176
     1
 62
     7
176
     1
 90
        5
176
     1
 90
        0
176
     1
 90
        0
176
     1
290
     0
176
     1
 90
        1
176
     1
 40
0.0
176
     1
 90
        0
176
     1
290
     0
176
     1
290
     1
176
     1
290
     1
176
     1
290
     0
176
     1
290
     0
176
     1
290
     0
176
     1
290
     0
176
     1
290
     0
176
     1
290
     0
176
     1
 90
       50
176
     1
 40
0.0
176
     1
 40
1.0
176
     1
 90
        0
176
     1
 62
    18
420
        0
176
     1
 90
       50
176
     1
 90
        3
176
     1
 62
     5
420
      255
176
     1
290
     0
176
     1
 90
       50
176
     1
 90
       50
176
     1
 90
       50
176
     1
290
     0
176
     1
 90
       50
176
     1
 62
   256
176
     0
 40
1.0
176
     0
 90
        2
176
     1
  1
strokes_ogs.tif
176
     1
290
     0
176
     1
 40
1.0
176
     1
 40
1.0
176
     1
  0
VISUALSTYLE
  5
3C
102
{ACAD_REACTORS
330
2A
102
}
330
2A
100
AcDbVisualStyle
  2
OverhangOff
 70
    21
177
     3
291
     1
 70
    58
 90
        2
176
     0
 90
        2
176
     0
 90
        0
176
     0
 90
        0
176
     0
 40
0.6
176
     0
 40
30.0
176
     0
 62
     7
420
 16777215
176
     0
 90
        1
176
     0
 90
        4
176
     0
 62
     7
176
     0
 62
   257
176
     0
 90
        1
176
     0
 90
        1
176
     0
 40
1.0
176
     0
 90
        9
176
     2
 62
     7
176
     0
 40
1.0
176
     0
 90
        1
176
     0
 90
        6
176
     0
 90
        2
176
     0
 62
     7
176
     0
 90
        5
176
     0
 90
        0
176
     0
 90
        0
176
     0
290
     0
176
     0
 90
        1
176
     0
 40
0.0
176
     0
 90
        0
176
     0
290
     0
176
     0
290
     1
176
     0
290
     1
176
     0
290
     0
176
     0
290
     0
176
     0
290
     0
176
     0
290
     0
176
     0
290
     0
176
     0
290
     0
176
     0
 90
       50
176
     0
 40
0.0
176
     0
 40
1.0
176
     0
 90
        0
176
     0
 62
    18
420
        0
176
     0
 90
       50
176
     0
 90
        3
176
     0
 62
     5
420
      255
176
     0
290
     0
176
     0
 90
       50
176
     0
 90
       50
176
     0
 90
       50
176
     0
290
     0
176
     0
 90
       50
176
     0
 62
   256
176
     0
 40
1.0
176
     0
 90
        2
176
     0
  1
strokes_ogs.tif
176
     0
290
     0
176
     0
 40
1.0
176
     0
 40
1.0
176
     0
  0
VISUALSTYLE
  5
33
102
{ACAD_REACTORS
330
2A
102
}
330
2A
100
AcDbVisualStyle
  2
Realistic
 70
     8
177
     3
291
     0
 70
    58
 90
        2
176
     1
 90
        3
176
     1
 90
        0
176
     1
 90
        2
176
     1
 40
0.6
176
     1
 40
30.0
176
     1
 62
     7
420
 16777215
176
     1
 90
        0
176
     1
 90
        0
176
     1
 62
     7
176
     1
 62
   257
176
     1
 90
        1
176
     1
 90
        1
176
     1
 40
1.0
176
     1
 90
        8
176
     1
 62
   257
176
     1
 40
1.0
176
     1
 90
        1
176
     1
 90
        6
176
     1
 90
        2
176
     1
 62
     7
176
     1
 90
        3
176
     1
 90
        0
176
     1
 90
        0
176
     1
290
     0
176
     1
 90
       13
176
     1
 40
0.0
176
     1
 90
        0
176
     1
290
     0
176
     1
290
     1
176
     1
290
     1
176
     1
290
     0
176
     1
290
     0
176
     1
290
     0
176
     1
290
     0
176
     1
290
     0
176
     1
290
     0
176
     1
 90
       50
176
     1
 40
0.0
176
     1
 40
1.0
176
     1
 90
        0
176
     1
 62
    18
420
        0
176
     1
 90
       50
176
     1
 90
        3
176
     1
 62
     5
420
      255
176
     1
290
     0
176
     1
 90
       50
176
     1
 90
       50
176
     1
 90
       50
176
     1
290
     0
176
     1
 90
       50
176
     1
 62
   256
176
     0
 40
1.0
176
     0
 90
        2
176
     1
  1
strokes_ogs.tif
176
     1
290
     0
176
     1
 40
1.0
176
     1
 40
1.0
176
     1
  0
VISUALSTYLE
  5
42
102
{ACAD_REACTORS
330
2A
102
}
330
2A
100
AcDbVisualStyle
  2
Shaded
 70
    27
177
     3
291
     0
 70
    58
 90
        2
176
     1
 90
        2
176
     1
 90
        1
176
     1
 90
        2
176
     1
 40
0.6
176
     1
 40
30.0
176
     1
 62
     7
420
 16777215
176
     1
 90
        0
176
     1
 90
        4
176
     1
 62
     7
176
     1
 62
   257
176
     1
 90
        1
176
     1
 90
        1
176
     1
 40
1.0
176
     1
 90
        8
176
     1
 62
   257
176
     1
 40
1.0
176
     1
 90
        1
176
     1
 90
        6
176
     1
 90
        2
176
     1
 62
     8
420
  7895160
176
     1
 90
        3
176
     1
 90
        0
176
     1
 90
        0
176
     1
290
     0
176
     1
 90
        5
176
     1
 40
0.0
176
     1
 90
        0
176
     1
290
     0
176
     1
290
     1
176
     1
290
     1
176
     1
290
     0
176
     1
290
     0
176
     1
290
     0
176
     1
290
     0
176
     1
290
     0
176
     1
290
     0
176
     1
 90
       50
176
     1
 40
0.0
176
     1
 40
1.0
176
     1
 90
        0
176
     1
 62
    18
420
        0
176
     1
 90
       50
176
     1
 90
        3
176
     1
 62
     5
420
      255
176
     1
290
     0
176
     1
 90
       50
176
     1
 90
       50
176
     1
 90
       50
176
     1
290
     0
176
     1
 90
       50
176
     1
 62
   256
176
     0
 40
1.0
176
     0
 90
        2
176
     1
  1
strokes_ogs.tif
176
     1
290
     0
176
     1
 40
1.0
176
     1
 40
1.0
176
     1
  0
VISUALSTYLE
  5
41
102
{ACAD_REACTORS
330
2A
102
}
330
2A
100
AcDbVisualStyle
  2
Shaded with edges
 70
    26
177
     3
291
     0
 70
    58
 90
        2
176
     1
 90
        2
176
     1
 90
        1
176
     1
 90
        2
176
     1
 40
0.6
176
     1
 40
30.0
176
     1
 62
     7
420
 16777215
176
     1
 90
        1
176
     1
 90
       10
176
     1
 62
     7
176
     1
 62
   257
176
     1
 90
        2
176
     1
 90
        1
176
     1
 40
1.0
176
     1
 90
        8
176
     1
 62
   257
176
     1
 40
1.0
176
     1
 90
        1
176
     1
 90
        6
176
     1
 90
        2
176
     1
 62
     7
176
     1
 90
        3
176
     1
 90
        0
176
     1
 90
        0
176
     1
290
     0
176
     1
 90
        5
176
     1
 40
0.0
176
     1
 90
        0
176
     1
290
     0
176
     1
290
     1
176
     1
290
     1
176
     1
290
     0
176
     1
290
     0
176
     1
290
     0
176
     1
290
     0
176
     1
290
     0
176
     1
290
     0
176
     1
 90
       50
176
     1
 40
0.0
176
     1
 40
1.0
176
     1
 90
        0
176
     1
 62
    18
420
        0
176
     1
 90
       50
176
     1
 90
        3
176
     1
 62
     5
420
      255
176
     1
290
     0
176
     1
 90
       50
176
     1
 90
       50
176
     1
 90
       50
176
     1
290
     0
176
     1
 90
       50
176
     1
 62
   256
176
     0
 40
1.0
176
     0
 90
        2
176
     1
  1
strokes_ogs.tif
176
     1
290
     0
176
     1
 40
1.0
176
     1
 40
1.0
176
     1
  0
VISUALSTYLE
  5
3E
102
{ACAD_REACTORS
330
2A
102
}
330
2A
100
AcDbVisualStyle
  2
Shades of Gray
 70
    23
177
     3
291
     0
 70
    58
 90
        2
176
     1
 90
        2
176
     1
 90
        3
176
     1
 90
        0
176
     1
 40
0.6
176
     1
 40
30.0
176
     1
 62
     7
420
 16777215
176
     1
 90
        2
176
     1
 90
        2
176
     1
 62
     7
176
     1
 62
     7
176
     1
 90
        1
176
     1
 90
        1
176
     1
 40
40.0
176
     1
 90
        8
176
     1
 62
     7
176
     1
 40
1.0
176
     1
 90
        1
176
     1
 90
        6
176
     1
 90
        2
176
     1
 62
     7
176
     1
 90
        3
176
     1
 90
        0
176
     1
 90
        0
176
     1
290
     0
176
     1
 90
        1
176
     1
 40
0.0
176
     1
 90
        0
176
     1
290
     0
176
     1
290
     1
176
     1
290
     1
176
     1
290
     0
176
     1
290
     0
176
     1
290
     0
176
     1
290
     0
176
     1
290
     0
176
     1
290
     0
176
     1
 90
       50
176
     1
 40
0.0
176
     1
 40
1.0
176
     1
 90
        0
176
     1
 62
    18
420
        0
176
     1
 90
       50
176
     1
 90
        3
176
     1
 62
     5
420
      255
176
     1
290
     0
176
     1
 90
       50
176
     1
 90
       50
176
     1
 90
       50
176
     1
290
     0
176
     1
 90
       50
176
     1
 62
   256
176
     0
 40
1.0
176
     0
 90
        2
176
     1
  1
strokes_ogs.tif
176
     1
290
     0
176
     1
 40
1.0
176
     1
 40
1.0
176
     1
  0
VISUALSTYLE
  5
3F
102
{ACAD_REACTORS
330
2A
102
}
330
2A
100
AcDbVisualStyle
  2
Sketchy
 70
    24
177
     3
291
     0
 70
    58
 90
        1
176
     1
 90
        2
176
     1
 90
        2
176
     1
 90
        0
176
     1
 40
0.6
176
     1
 40
30.0
176
     1
 62
     7
420
 16777215
176
     1
 90
        2
176
     1
 90
        2
176
     1
 62
     7
176
     1
 62
     7
176
     1
 90
        1
176
     1
 90
        1
176
     1
 40
40.0
176
     1
 90
       11
176
     1
 62
     7
176
     1
 40
1.0
176
     1
 90
        1
176
     1
 90
        6
176
     1
 90
        2
176
     1
 62
     7
176
     1
 90
        6
176
     1
 90
        0
176
     1
 90
        0
176
     1
290
     0
176
     1
 90
        1
176
     1
 40
0.0
176
     1
 90
        0
176
     1
290
     0
176
     1
290
     1
176
     1
290
     1
176
     1
290
     0
176
     1
290
     0
176
     1
290
     0
176
     1
290
     0
176
     1
290
     0
176
     1
290
     0
176
     1
 90
       50
176
     1
 40
0.0
176
     1
 40
1.0
176
     1
 90
        0
176
     1
 62
    18
420
        0
176
     1
 90
       50
176
     1
 90
        3
176
     1
 62
     5
420
      255
176
     1
290
     0
176
     1
 90
       50
176
     1
 90
       50
176
     1
 90
       50
176
     1
290
     0
176
     1
 90
       50
176
     1
 62
   256
176
     0
 40
1.0
176
     0
 90
        2
176
     1
  1
strokes_ogs.tif
176
     1
290
     0
176
     1
 40
1.0
176
     1
 40
1.0
176
     1
  0
VISUALSTYLE
  5
37
102
{ACAD_REACTORS
330
2A
102
}
330
2A
100
AcDbVisualStyle
  2
Thicken
 70
    13
177
     3
291
     1
 70
    58
 90
        2
176
     1
 90
        2
176
     1
 90
        0
176
     1
 90
        0
176
     1
 40
0.6
176
     1
 40
30.0
176
     1
 62
     7
420
 16777215
176
     1
 90
        1
176
     1
 90
        4
176
     1
 62
     7
176
     1
 62
   257
176
     1
 90
        1
176
     1
 90
        1
176
     1
 40
1.0
176
     1
 90
       12
176
     1
 62
     7
176
     1
 40
1.0
176
     1
 90
        1
176
     1
 90
        6
176
     1
 90
        2
176
     1
 62
     7
176
     1
 90
        5
176
     1
 90
        0
176
     1
 90
        0
176
     1
290
     0
176
     1
 90
        1
176
     1
 40
0.0
176
     1
 90
        0
176
     1
290
     0
176
     1
290
     1
176
     1
290
     1
176
     1
290
     0
176
     1
290
     0
176
     1
290
     0
176
     1
290
     0
176
     1
290
     0
176
     1
290
     0
176
     1
 90
       50
176
     1
 40
0.0
176
     1
 40
1.0
176
     1
 90
        0
176
     1
 62
    18
420
        0
176
     1
 90
       50
176
     1
 90
        3
176
     1
 62
     5
420
      255
176
     1
290
     0
176
     1
 90
       50
176
     1
 90
       50
176
     1
 90
       50
176
     1
290
     0
176
     1
 90
       50
176
     1
 62
   256
176
     0
 40
1.0
176
     0
 90
        2
176
     1
  1
strokes_ogs.tif
176
     1
290
     0
176
     1
 40
1.0
176
     1
 40
1.0
176
     1
  0
VISUALSTYLE
  5
30
102
{ACAD_REACTORS
330
2A
102
}
330
2A
100
AcDbVisualStyle
  2
Wireframe
 70
     5
177
     3
291
     0
 70
    58
 90
        0
176
     1
 90
        2
176
     1
 90
        0
176
     1
 90
        0
176
     1
 40
0.6
176
     1
 40
30.0
176
     1
 62
     7
420
 16777215
176
     1
 90
        1
176
     1
 90
        4
176
     1
 62
     7
176
     1
 62
   257
176
     1
 90
        1
176
     1
 90
        1
176
     1
 40
1.0
176
     1
 90
        0
176
     1
 62
   257
176
     1
 40
1.0
176
     1
 90
        1
176
     1
 90
        6
176
     1
 90
        2
176
     1
 62
     7
176
     1
 90
        3
176
     1
 90
        0
176
     1
 90
        0
176
     1
290
     0
176
     1
 90
        1
176
     1
 40
0.0
176
     1
 90
        0
176
     1
290
     0
176
     1
290
     1
176
     1
290
     1
176
     1
290
     0
176
     1
290
     0
176
     1
290
     0
176
     1
290
     0
176
     1
290
     0
176
     1
290
     0
176
     1
 90
       50
176
     1
 40
0.0
176
     1
 40
1.0
176
     1
 90
        0
176
     1
 62
    18
420
        0
176
     1
 90
       50
176
     1
 90
        3
176
     1
 62
     5
420
      255
176
     1
290
     0
176
     1
 90
       50
176
     1
 90
       50
176
     1
 90
       50
176
     1
290
     0
176
     1
 90
       50
176
     1
 62
   256
176
     0
 40
1.0
176
     0
 90
        2
176
     1
  1
strokes_ogs.tif
176
     1
290
     0
176
     1
 40
1.0
176
     1
 40
1.0
176
     1
  0
VISUALSTYLE
  5
40
102
{ACAD_REACTORS
330
2A
102
}
330
2A
100
AcDbVisualStyle
  2
X-Ray
 70
    25
177
     3
291
     0
 70
    58
 90
        2
176
     1
 90
        2
176
     1
 90
        1
176
     1
 90
        1
176
     1
 40
0.5
176
     1
 40
30.0
176
     1
 62
     7
420
 16777215
176
     1
 90
        1
176
     1
 90
        0
176
     1
 62
     7
176
     1
 62
   257
176
     1
 90
        1
176
     1
 90
        1
176
     1
 40
1.0
176
     1
 90
        8
176
     1
 62
     7
176
     1
 40
1.0
176
     1
 90
        1
176
     1
 90
        6
176
     1
 90
        2
176
     1
 62
     7
176
     1
 90
        3
176
     1
 90
        0
176
     1
 90
        0
176
     1
290
     0
176
     1
 90
       13
176
     1
 40
0.0
176
     1
 90
        0
176
     1
290
     0
176
     1
290
     1
176
     1
290
     1
176
     1
290
     0
176
     1
290
     0
176
     1
290
     0
176
     1
290
     0
176
     1
290
     0
176
     1
290
     0
176
     1
 90
       50
176
     1
 40
0.0
176
     1
 40
1.0
176
     1
 90
        0
176
     1
 62
    18
420
        0
176
     1
 90
       50
176
     1
 90
        3
176
     1
 62
     5
420
      255
176
     1
290
     0
176
     1
 90
       50
176
     1
 90
       50
176
     1
 90
       50
176
     1
290
     0
176
     1
 90
       50
176
     1
 62
   256
176
     0
 40
1.0
176
     0
 90
        2
176
     1
  1
strokes_ogs.tif
176
     1
290
     0
176
     1
 40
1.0
176
     1
 40
1.0
176
     1
  0
DICTIONARYVAR
  5
167
102
{ACAD_REACTORS
330
166
102
}
330
166
100
DictionaryVariables
280
     0
  1
1:1
  0
DICTIONARYVAR
  5
16F
102
{ACAD_REACTORS
330
166
102
}
330
166
100
DictionaryVariables
280
     0
  1
3.500000
  0
DICTIONARYVAR
  5
170
102
{ACAD_REACTORS
330
166
102
}
330
166
100
DictionaryVariables
280
     0
  1
acadiso.lin
  0
DICTIONARYVAR
  5
16C
102
{ACAD_REACTORS
330
166
102
}
330
166
100
DictionaryVariables
280
     0
  1
Standard
  0
DICTIONARYVAR
  5
16B
102
{ACAD_REACTORS
330
166
102
}
330
166
100
DictionaryVariables
280
     0
  1
Standard
  0
DICTIONARY
  5
168
330
6A
100
AcDbDictionary
280
     1
281
     1
  3
ACAD_ROUNDTRIP_2008_TABLESTYLE_CELLSTYLEMAP
360
169
  0
CELLSTYLEMAP
  5
169
102
{ACAD_REACTORS
330
168
102
}
330
168
100
AcDbCellStyleMap
 90
        3
300
CELLSTYLE
  1
TABLEFORMAT_BEGIN
 90
        5
170
     1
 91
        0
 92
    32768
 62
   257
 93
        1
300
CONTENTFORMAT
  1
CONTENTFORMAT_BEGIN
 90
        0
 91
        0
 92
        4
 93
        0
300

 40
0.0
140
1.0
 94
        5
 62
     0
340
11
144
6.0
309
CONTENTFORMAT_END
171
     1
301
MARGIN
  1
CELLMARGIN_BEGIN
 40
1.5
 40
1.5
 40
1.5
 40
1.5
 40
1.5
 40
1.5
309
CELLMARGIN_END
 94
        6
 95
        1
302
GRIDFORMAT
  1
GRIDFORMAT_BEGIN
 90
        0
 91
        1
 62
     0
 92
       -2
340
14
 93
        0
 40
0.045
309
GRIDFORMAT_END
 95
        2
302
GRIDFORMAT
  1
GRIDFORMAT_BEGIN
 90
        0
 91
        1
 62
     0
 92
       -2
340
14
 93
        0
 40
0.045
309
GRIDFORMAT_END
 95
        4
302
GRIDFORMAT
  1
GRIDFORMAT_BEGIN
 90
        0
 91
        1
 62
     0
 92
       -2
340
14
 93
        0
 40
0.045
309
GRIDFORMAT_END
 95
        8
302
GRIDFORMAT
  1
GRIDFORMAT_BEGIN
 90
        0
 91
        1
 62
     0
 92
       -2
340
14
 93
        0
 40
0.045
309
GRIDFORMAT_END
 95
       16
302
GRIDFORMAT
  1
GRIDFORMAT_BEGIN
 90
        0
 91
        1
 62
     0
 92
       -2
340
14
 93
        0
 40
0.045
309
GRIDFORMAT_END
 95
       32
302
GRIDFORMAT
  1
GRIDFORMAT_BEGIN
 90
        0
 91
        1
 62
     0
 92
       -2
340
14
 93
        0
 40
0.045
309
GRIDFORMAT_END
309
TABLEFORMAT_END
  1
CELLSTYLE_BEGIN
 90
        1
 91
        1
300
_TITLE
309
CELLSTYLE_END
300
CELLSTYLE
  1
TABLEFORMAT_BEGIN
 90
        5
170
     1
 91
        0
 92
        0
 62
   257
 93
        1
300
CONTENTFORMAT
  1
CONTENTFORMAT_BEGIN
 90
        0
 91
        0
 92
        4
 93
        0
300

 40
0.0
140
1.0
 94
        5
 62
     0
340
11
144
4.5
309
CONTENTFORMAT_END
171
     1
301
MARGIN
  1
CELLMARGIN_BEGIN
 40
1.5
 40
1.5
 40
1.5
 40
1.5
 40
1.5
 40
1.5
309
CELLMARGIN_END
 94
        6
 95
        1
302
GRIDFORMAT
  1
GRIDFORMAT_BEGIN
 90
        0
 91
        1
 62
     0
 92
       -2
340
14
 93
        0
 40
0.045
309
GRIDFORMAT_END
 95
        2
302
GRIDFORMAT
  1
GRIDFORMAT_BEGIN
 90
        0
 91
        1
 62
     0
 92
       -2
340
14
 93
        0
 40
0.045
309
GRIDFORMAT_END
 95
        4
302
GRIDFORMAT
  1
GRIDFORMAT_BEGIN
 90
        0
 91
        1
 62
     0
 92
       -2
340
14
 93
        0
 40
0.045
309
GRIDFORMAT_END
 95
        8
302
GRIDFORMAT
  1
GRIDFORMAT_BEGIN
 90
        0
 91
        1
 62
     0
 92
       -2
340
14
 93
        0
 40
0.045
309
GRIDFORMAT_END
 95
       16
302
GRIDFORMAT
  1
GRIDFORMAT_BEGIN
 90
        0
 91
        1
 62
     0
 92
       -2
340
14
 93
        0
 40
0.045
309
GRIDFORMAT_END
 95
       32
302
GRIDFORMAT
  1
GRIDFORMAT_BEGIN
 90
        0
 91
        1
 62
     0
 92
       -2
340
14
 93
        0
 40
0.045
309
GRIDFORMAT_END
309
TABLEFORMAT_END
  1
CELLSTYLE_BEGIN
 90
        2
 91
        1
300
_HEADER
309
CELLSTYLE_END
300
CELLSTYLE
  1
TABLEFORMAT_BEGIN
 90
        5
170
     1
 91
        0
 92
        0
 62
   257
 93
        1
300
CONTENTFORMAT
  1
CONTENTFORMAT_BEGIN
 90
        0
 91
        0
 92
        4
 93
        0
300

 40
0.0
140
1.0
 94
        2
 62
     0
340
11
144
4.5
309
CONTENTFORMAT_END
171
     1
301
MARGIN
  1
CELLMARGIN_BEGIN
 40
1.5
 40
1.5
 40
1.5
 40
1.5
 40
1.5
 40
1.5
309
CELLMARGIN_END
 94
        6
 95
        1
302
GRIDFORMAT
  1
GRIDFORMAT_BEGIN
 90
        0
 91
        1
 62
     0
 92
       -2
340
14
 93
        0
 40
0.045
309
GRIDFORMAT_END
 95
        2
302
GRIDFORMAT
  1
GRIDFORMAT_BEGIN
 90
        0
 91
        1
 62
     0
 92
       -2
340
14
 93
        0
 40
0.045
309
GRIDFORMAT_END
 95
        4
302
GRIDFORMAT
  1
GRIDFORMAT_BEGIN
 90
        0
 91
        1
 62
     0
 92
       -2
340
14
 93
        0
 40
0.045
309
GRIDFORMAT_END
 95
        8
302
GRIDFORMAT
  1
GRIDFORMAT_BEGIN
 90
        0
 91
        1
 62
     0
 92
       -2
340
14
 93
        0
 40
0.045
309
GRIDFORMAT_END
 95
       16
302
GRIDFORMAT
  1
GRIDFORMAT_BEGIN
 90
        0
 91
        1
 62
     0
 92
       -2
340
14
 93
        0
 40
0.045
309
GRIDFORMAT_END
 95
       32
302
GRIDFORMAT
  1
GRIDFORMAT_BEGIN
 90
        0
 91
        1
 62
     0
 92
       -2
340
14
 93
        0
 40
0.045
309
GRIDFORMAT_END
309
TABLEFORMAT_END
  1
CELLSTYLE_BEGIN
 90
        3
 91
        2
300
_DATA
309
CELLSTYLE_END
  0
ENDSEC
  0
EOF
