  0
SECTION
  2
HEADER
  9
$ACADVER
  1
AC1032
  9
$ACADMAINTVER
 90
       55
  9
$DWGCODEPAGE
  3
ANSI_1252
  9
$LASTSAVEDBY
  1
Thomas.Friedrich
  9
$REQUIREDVERSIONS
160
                 0
  9
$INSBASE
 10
0.0
 20
0.0
 30
0.0
  9
$EXTMIN
 10
0.0
 20
0.0
 30
0.0
  9
$EXTMAX
 10
1000.0
 20
2100.0
 30
0.0
  9
$LIMMIN
 10
0.0
 20
0.0
  9
$LIMMAX
 10
1000.0
 20
2100.0
  9
$ORTHOMODE
 70
     0
  9
$REGENMODE
 70
     1
  9
$FILLMODE
 70
     1
  9
$QTEXTMODE
 70
     0
  9
$MIRRTEXT
 70
     1
  9
$LTSCALE
 40
1.0
  9
$ATTMODE
 70
     1
  9
$TEXTSIZE
 40
3.5
  9
$TRACEWID
 40
1.0
  9
$TEXTSTYLE
  7
Standard
  9
$CLAYER
  8
0
  9
$CELTYPE
  6
ByLayer
  9
$CECOLOR
 62
   256
  9
$CELTSCALE
 40
1.0
  9
$DISPSILH
 70
     0
  9
$DIMSCALE
 40
1.0
  9
$DIMASZ
 40
3.556
  9
$DIMEXO
 40
1.0
  9
$DIMDLI
 40
3.75
  9
$DIMRND
 40
0.0
  9
$DIMDLE
 40
0.0
  9
$DIMEXE
 40
1.0
  9
$DIMTP
 40
0.0
  9
$DIMTM
 40
0.0
  9
$DIMTXT
 40
3.5
  9
$DIMCEN
 40
2.5
  9
$DIMTSZ
 40
0.0
  9
$DIMTOL
 70
     0
  9
$DIMLIM
 70
     0
  9
$DIMTIH
 70
     1
  9
$DIMTOH
 70
     1
  9
$DIMSE1
 70
     0
  9
$DIMSE2
 70
     0
  9
$DIMTAD
 70
     1
  9
$DIMZIN
 70
     0
  9
$DIMBLK
  1

  9
$DIMASO
 70
     1
  9
$DIMSHO
 70
     1
  9
$DIMPOST
  1

  9
$DIMAPOST
  1

  9
$DIMALT
 70
     0
  9
$DIMALTD
 70
     3
  9
$DIMALTF
 40
0.0393700787
  9
$DIMLFAC
 40
1.0
  9
$DIMTOFL
 70
     1
  9
$DIMTVP
 40
0.0
  9
$DIMTIX
 70
     0
  9
$DIMSOXD
 70
     0
  9
$DIMSAH
 70
     0
  9
$DIMBLK1
  1

  9
$DIMBLK2
  1

  9
$DIMSTYLE
  2
ISO-25
  9
$DIMCLRD
 70
     0
  9
$DIMCLRE
 70
     0
  9
$DIMCLRT
 70
     0
  9
$DIMTFAC
 40
1.0
  9
$DIMGAP
 40
1.524
  9
$DIMJUST
 70
     0
  9
$DIMSD1
 70
     0
  9
$DIMSD2
 70
     0
  9
$DIMTOLJ
 70
     0
  9
$DIMTZIN
 70
     0
  9
$DIMALTZ
 70
     0
  9
$DIMALTTZ
 70
     0
  9
$DIMUPT
 70
     0
  9
$DIMDEC
 70
     2
  9
$DIMTDEC
 70
     2
  9
$DIMALTU
 70
     2
  9
$DIMALTTD
 70
     3
  9
$DIMTXSTY
  7
Standard
  9
$DIMAUNIT
 70
     0
  9
$DIMADEC
 70
     2
  9
$DIMALTRND
 40
0.0
  9
$DIMAZIN
 70
     0
  9
$DIMDSEP
 70
    44
  9
$DIMATFIT
 70
     3
  9
$DIMFRAC
 70
     0
  9
$DIMLDRBLK
  1

  9
$DIMLUNIT
 70
     2
  9
$DIMLWD
 70
    -2
  9
$DIMLWE
 70
    -2
  9
$DIMTMOVE
 70
     0
  9
$DIMFXL
 40
1.0
  9
$DIMFXLON
 70
     0
  9
$DIMJOGANG
 40
0.7853981634
  9
$DIMTFILL
 70
     0
  9
$DIMTFILLCLR
 70
     0
  9
$DIMARCSYM
 70
     0
  9
$DIMLTYPE
  6

  9
$DIMLTEX1
  6

  9
$DIMLTEX2
  6

  9
$DIMTXTDIRECTION
 70
     0
  9
$LUNITS
 70
     2
  9
$LUPREC
 70
     2
  9
$SKETCHINC
 40
1.0
  9
$FILLETRAD
 40
10.0
  9
$AUNITS
 70
     0
  9
$AUPREC
 70
     2
  9
$MENU
  1
.
  9
$ELEVATION
 40
0.0
  9
$PELEVATION
 40
0.0
  9
$THICKNESS
 40
0.0
  9
$LIMCHECK
 70
     0
  9
$CHAMFERA
 40
0.0
  9
$CHAMFERB
 40
0.0
  9
$CHAMFERC
 40
0.0
  9
$CHAMFERD
 40
0.0
  9
$SKPOLY
 70
     0
  9
$TDCREATE
 40
2460369.521775359
  9
$TDUCREATE
 40
2460369.480108692
  9
$TDUPDATE
 40
2460369.521775451
  9
$TDUUPDATE
 40
2460369.480108785
  9
$TDINDWG
 40
0.0000000116
  9
$TDUSRTIMER
 40
0.0000000116
  9
$USRTIMER
 70
     1
  9
$ANGBASE
 50
0.0
  9
$ANGDIR
 70
     0
  9
$PDMODE
 70
     0
  9
$PDSIZE
 40
-1.0
  9
$PLINEWID
 40
0.0
  9
$SPLFRAME
 70
     0
  9
$SPLINETYPE
 70
     6
  9
$SPLINESEGS
 70
     8
  9
$HANDSEED
  5
188
  9
$SURFTAB1
 70
     6
  9
$SURFTAB2
 70
     6
  9
$SURFTYPE
 70
     6
  9
$SURFU
 70
     6
  9
$SURFV
 70
     6
  9
$UCSBASE
  2

  9
$UCSNAME
  2

  9
$UCSORG
 10
0.0
 20
0.0
 30
0.0
  9
$UCSXDIR
 10
1.0
 20
0.0
 30
0.0
  9
$UCSYDIR
 10
0.0
 20
1.0
 30
0.0
  9
$UCSORTHOREF
  2

  9
$UCSORTHOVIEW
 70
     0
  9
$UCSORGTOP
 10
0.0
 20
0.0
 30
0.0
  9
$UCSORGBOTTOM
 10
0.0
 20
0.0
 30
0.0
  9
$UCSORGLEFT
 10
0.0
 20
0.0
 30
0.0
  9
$UCSORGRIGHT
 10
0.0
 20
0.0
 30
0.0
  9
$UCSORGFRONT
 10
0.0
 20
0.0
 30
0.0
  9
$UCSORGBACK
 10
0.0
 20
0.0
 30
0.0
  9
$PUCSBASE
  2

  9
$PUCSNAME
  2

  9
$PUCSORG
 10
0.0
 20
0.0
 30
0.0
  9
$PUCSXDIR
 10
1.0
 20
0.0
 30
0.0
  9
$PUCSYDIR
 10
0.0
 20
1.0
 30
0.0
  9
$PUCSORTHOREF
  2

  9
$PUCSORTHOVIEW
 70
     0
  9
$PUCSORGTOP
 10
0.0
 20
0.0
 30
0.0
  9
$PUCSORGBOTTOM
 10
0.0
 20
0.0
 30
0.0
  9
$PUCSORGLEFT
 10
0.0
 20
0.0
 30
0.0
  9
$PUCSORGRIGHT
 10
0.0
 20
0.0
 30
0.0
  9
$PUCSORGFRONT
 10
0.0
 20
0.0
 30
0.0
  9
$PUCSORGBACK
 10
0.0
 20
0.0
 30
0.0
  9
$USERI1
 70
     0
  9
$USERI2
 70
     0
  9
$USERI3
 70
     0
  9
$USERI4
 70
     0
  9
$USERI5
 70
     0
  9
$USERR1
 40
0.0
  9
$USERR2
 40
0.0
  9
$USERR3
 40
0.0
  9
$USERR4
 40
0.0
  9
$USERR5
 40
0.0
  9
$WORLDVIEW
 70
     1
  9
$SHADEDGE
 70
     3
  9
$SHADEDIF
 70
    70
  9
$TILEMODE
 70
     1
  9
$MAXACTVP
 70
    64
  9
$PINSBASE
 10
0.0
 20
0.0
 30
0.0
  9
$PLIMCHECK
 70
     0
  9
$PEXTMIN
 10
1.0000000000E+20
 20
1.0000000000E+20
 30
1.0000000000E+20
  9
$PEXTMAX
 10
-1.0000000000E+20
 20
-1.0000000000E+20
 30
-1.0000000000E+20
  9
$PLIMMIN
 10
0.0
 20
0.0
  9
$PLIMMAX
 10
420.0
 20
297.0
  9
$UNITMODE
 70
     0
  9
$VISRETAIN
 70
     1
  9
$PLINEGEN
 70
     0
  9
$PSLTSCALE
 70
     1
  9
$TREEDEPTH
 70
  3020
  9
$CMLSTYLE
  2
Standard
  9
$CMLJUST
 70
     0
  9
$CMLSCALE
 40
20.0
  9
$PROXYGRAPHICS
 70
     1
  9
$MEASUREMENT
 70
     1
  9
$CELWEIGHT
370
    -1
  9
$ENDCAPS
280
     0
  9
$JOINSTYLE
280
     0
  9
$LWDISPLAY
290
     1
  9
$INSUNITS
 70
     4
  9
$HYPERLINKBASE
  1

  9
$STYLESHEET
  1

  9
$XEDIT
290
     1
  9
$CEPSNTYPE
380
     0
  9
$PSTYLEMODE
290
     1
  9
$FINGERPRINTGUID
  2
{0f2e3c89-4542-465b-bccd-722f7c71505e}
  9
$VERSIONGUID
  2
{FAEB1C32-E019-11D5-929B-00C0DF256EC4}
  9
$EXTNAMES
290
     1
  9
$PSVPSCALE
 40
0.0
  9
$OLESTARTUP
290
     0
  9
$SORTENTS
280
   127
  9
$INDEXCTL
280
     0
  9
$HIDETEXT
280
     1
  9
$XCLIPFRAME
280
     2
  9
$HALOGAP
280
     0
  9
$OBSCOLOR
 70
   257
  9
$OBSLTYPE
280
     0
  9
$INTERSECTIONDISPLAY
280
     0
  9
$INTERSECTIONCOLOR
 70
   257
  9
$DIMASSOC
280
     2
  9
$PROJECTNAME
  1

  9
$CAMERADISPLAY
290
     0
  9
$LENSLENGTH
 40
50.0
  9
$CAMERAHEIGHT
 40
0.0
  9
$STEPSPERSEC
 40
2.0
  9
$STEPSIZE
 40
6.0
  9
$3DDWFPREC
 40
2.0
  9
$PSOLWIDTH
 40
5.0
  9
$PSOLHEIGHT
 40
80.0
  9
$LOFTANG1
 40
1.5707963268
  9
$LOFTANG2
 40
1.5707963268
  9
$LOFTMAG1
 40
0.0
  9
$LOFTMAG2
 40
0.0
  9
$LOFTPARAM
 70
     7
  9
$LOFTNORMALS
280
     1
  9
$LATITUDE
 40
37.795
  9
$LONGITUDE
 40
-122.394
  9
$NORTHDIRECTION
 40
0.0
  9
$TIMEZONE
 70
 -8000
  9
$LIGHTGLYPHDISPLAY
280
     1
  9
$TILEMODELIGHTSYNCH
280
     1
  9
$CMATERIAL
347
44
  9
$SOLIDHIST
280
     0
  9
$SHOWHIST
280
     1
  9
$DWFFRAME
280
     2
  9
$DGNFRAME
280
     2
  9
$REALWORLDSCALE
290
     1
  9
$INTERFERECOLOR
 62
   256
  9
$CSHADOW
280
     0
  9
$SHADOWPLANELOCATION
 40
0.0
  0
ENDSEC
  0
SECTION
  2
CLASSES
  0
CLASS
  1
ACDBDICTIONARYWDFLT
  2
AcDbDictionaryWithDefault
  3
ObjectDBX Classes
 90
        0
 91
        3
280
     0
281
     0
  0
CLASS
  1
VISUALSTYLE
  2
AcDbVisualStyle
  3
ObjectDBX Classes
 90
     4095
 91
        3
280
     0
281
     0
  0
CLASS
  1
MATERIAL
  2
AcDbMaterial
  3
ObjectDBX Classes
 90
     1153
 91
        3
280
     0
281
     0
  0
CLASS
  1
SCALE
  2
AcDbScale
  3
ObjectDBX Classes
 90
     1153
 91
        3
280
     0
281
     0
  0
CLASS
  1
TABLESTYLE
  2
AcDbTableStyle
  3
ObjectDBX Classes
 90
     4095
 91
        3
280
     0
281
     0
  0
CLASS
  1
MLEADERSTYLE
  2
AcDbMLeaderStyle
  3
ACDB_MLEADERSTYLE_CLASS
 90
     4095
 91
        3
280
     0
281
     0
  0
CLASS
  1
SUN
  2
AcDbSun
  3
SCENEOE
 90
     1153
 91
        3
280
     0
281
     0
  0
CLASS
  1
DICTIONARYVAR
  2
AcDbDictionaryVar
  3
ObjectDBX Classes
 90
        0
 91
        3
280
     0
281
     0
  0
CLASS
  1
CELLSTYLEMAP
  2
AcDbCellStyleMap
  3
ObjectDBX Classes
 90
     1152
 91
        3
280
     0
281
     0
  0
ENDSEC
  0
SECTION
  2
TABLES
  0
TABLE
  2
VPORT
  5
8
330
0
100
AcDbSymbolTable
 70
     1
  0
VPORT
  5
29
330
8
100
AcDbSymbolTableRecord
100
AcDbViewportTableRecord
  2
*Active
 70
     0
 10
0.0
 20
0.0
 11
1.0
 21
1.0
 12
500.0
 22
1050.0
 13
0.0
 23
0.0
 14
10.0
 24
10.0
 15
10.0
 25
10.0
 16
0.0
 26
0.0
 36
1.0
 17
0.0
 27
0.0
 37
0.0
 40
2100.0
 41
0.4761904762
 42
50.0
 43
0.0
 44
0.0
 50
0.0
 51
0.0
 71
     0
 72
  2000
 73
     1
 74
     3
 75
     0
 76
     0
 77
     0
 78
     0
281
     0
 65
     1
110
0.0
120
0.0
130
0.0
111
1.0
121
0.0
131
0.0
112
0.0
122
1.0
132
0.0
 79
     0
146
0.0
348
2F
 60
     3
 61
     5
292
     1
282
     1
141
0.0
142
0.0
 63
   250
361
6D
  0
ENDTAB
  0
TABLE
  2
LTYPE
  5
5
330
0
100
AcDbSymbolTable
 70
     8
  0
LTYPE
  5
14
330
5
100
AcDbSymbolTableRecord
100
AcDbLinetypeTableRecord
  2
ByBlock
 70
     0
  3

 72
    65
 73
     0
 40
0.0
  0
LTYPE
  5
15
330
5
100
AcDbSymbolTableRecord
100
AcDbLinetypeTableRecord
  2
ByLayer
 70
     0
  3

 72
    65
 73
     0
 40
0.0
  0
LTYPE
  5
16
330
5
100
AcDbSymbolTableRecord
100
AcDbLinetypeTableRecord
  2
Continuous
 70
     0
  3
Solid line
 72
    65
 73
     0
 40
0.0
  0
LTYPE
  5
6E
330
5
100
AcDbSymbolTableRecord
100
AcDbLinetypeTableRecord
  2
SLD-Durchgehend
 70
     0
  3
SolidWorks Line Style
 72
    65
 73
     0
 40
0.0
  0
LTYPE
  5
6F
330
5
100
AcDbSymbolTableRecord
100
AcDbLinetypeTableRecord
  2
SLD-Gestrichelt
 70
     0
  3
SolidWorks Line Style
 72
    65
 73
     2
 40
1.905
 49
1.27
 74
     0
 49
-0.635
 74
     0
  0
LTYPE
  5
70
330
5
100
AcDbSymbolTableRecord
100
AcDbLinetypeTableRecord
  2
SLD-Phantom
 70
     0
  3
SolidWorks Line Style
 72
    65
 73
     6
 40
12.7
 49
6.35
 74
     0
 49
-1.27
 74
     0
 49
1.27
 74
     0
 49
-1.27
 74
     0
 49
1.27
 74
     0
 49
-1.27
 74
     0
  0
LTYPE
  5
71
330
5
100
AcDbSymbolTableRecord
100
AcDbLinetypeTableRecord
  2
SLD-Kette
 70
     0
  3
SolidWorks Line Style
 72
    65
 73
     4
 40
10.16
 49
6.35
 74
     0
 49
-1.27
 74
     0
 49
1.27
 74
     0
 49
-1.27
 74
     0
  0
LTYPE
  5
72
330
5
100
AcDbSymbolTableRecord
100
AcDbLinetypeTableRecord
  2
SLD-Punktstrich
 70
     0
  3
SolidWorks Line Style
 72
    65
 73
     4
 40
19.05
 49
15.24
 74
     0
 49
-1.27
 74
     0
 49
1.27
 74
     0
 49
-1.27
 74
     0
  0
LTYPE
  5
73
330
5
100
AcDbSymbolTableRecord
100
AcDbLinetypeTableRecord
  2
SLD-Naht
 70
     0
  3
SolidWorks Line Style
 72
    65
 73
     2
 40
0.635
 49
0.0
 74
     0
 49
-0.635
 74
     0
  0
LTYPE
  5
74
330
5
100
AcDbSymbolTableRecord
100
AcDbLinetypeTableRecord
  2
SLD-Dicke-Dünne-Kette
 70
     0
  3
SolidWorks Line Style
 72
    65
 73
     4
 40
10.16
 49
6.35
 74
     0
 49
-1.27
 74
     0
 49
1.27
 74
     0
 49
-1.27
 74
     0
  0
ENDTAB
  0
TABLE
  2
LAYER
  5
2
330
0
100
AcDbSymbolTable
 70
     2
  0
LAYER
  5
10
330
2
100
AcDbSymbolTableRecord
100
AcDbLayerTableRecord
  2
0
 70
     0
 62
     7
  6
Continuous
370
    -3
390
F
347
46
348
0
  0
LAYER
  5
75
330
2
100
AcDbSymbolTableRecord
100
AcDbLayerTableRecord
  2
FORMAT
 70
     0
 62
     7
  6
SLD-Durchgehend
370
    -3
390
F
347
46
348
0
  0
ENDTAB
  0
TABLE
  2
STYLE
  5
3
330
0
100
AcDbSymbolTable
 70
     1
  0
STYLE
  5
11
330
3
100
AcDbSymbolTableRecord
100
AcDbTextStyleTableRecord
  2
Standard
 70
     0
 40
0.0
 41
1.0
 50
0.0
 71
     0
 42
3.5
  3
txt
  4

  0
ENDTAB
  0
TABLE
  2
VIEW
  5
6
330
0
100
AcDbSymbolTable
 70
     0
  0
ENDTAB
  0
TABLE
  2
UCS
  5
7
330
0
100
AcDbSymbolTable
 70
     0
  0
ENDTAB
  0
TABLE
  2
APPID
  5
9
330
0
100
AcDbSymbolTable
 70
     1
  0
APPID
  5
12
330
9
100
AcDbSymbolTableRecord
100
AcDbRegAppTableRecord
  2
ACAD
 70
     0
  0
ENDTAB
  0
TABLE
  2
DIMSTYLE
  5
A
330
0
100
AcDbSymbolTable
 70
     1
100
AcDbDimStyleTable
  0
DIMSTYLE
105
27
330
A
100
AcDbSymbolTableRecord
100
AcDbDimStyleTableRecord
  2
ISO-25
 70
     0
 41
2.5
 42
0.625
 43
3.75
 44
1.25
 73
     0
 74
     0
 77
     1
 78
     8
140
2.5
141
2.5
143
0.0393700787
147
0.625
171
     3
172
     1
178
     0
271
     2
272
     2
274
     3
278
    44
283
     0
284
     8
340
11
  0
ENDTAB
  0
TABLE
  2
BLOCK_RECORD
  5
1
330
0
100
AcDbSymbolTable
 70
     1
  0
BLOCK_RECORD
  5
1F
330
1
100
AcDbSymbolTableRecord
100
AcDbBlockTableRecord
  2
*Model_Space
340
22
 70
     0
280
     1
281
     0
  0
BLOCK_RECORD
  5
1B
330
1
100
AcDbSymbolTableRecord
100
AcDbBlockTableRecord
  2
*Paper_Space
340
1E
 70
     0
280
     1
281
     0
  0
BLOCK_RECORD
  5
23
330
1
100
AcDbSymbolTableRecord
100
AcDbBlockTableRecord
  2
*Paper_Space0
340
26
 70
     0
280
     1
281
     0
  0
ENDTAB
  0
ENDSEC
  0
SECTION
  2
BLOCKS
  0
BLOCK
  5
20
330
1F
100
AcDbEntity
  8
0
100
AcDbBlockBegin
  2
*Model_Space
 70
     0
 10
0.0
 20
0.0
 30
0.0
  3
*Model_Space
  1

  0
ENDBLK
  5
21
330
1F
100
AcDbEntity
  8
0
100
AcDbBlockEnd
  0
BLOCK
  5
1C
330
1B
100
AcDbEntity
 67
     1
  8
0
100
AcDbBlockBegin
  2
*Paper_Space
 70
     0
 10
0.0
 20
0.0
 30
0.0
  3
*Paper_Space
  1

  0
ENDBLK
  5
1D
330
1B
100
AcDbEntity
 67
     1
  8
0
100
AcDbBlockEnd
  0
BLOCK
  5
24
330
23
100
AcDbEntity
  8
0
100
AcDbBlockBegin
  2
*Paper_Space0
 70
     0
 10
0.0
 20
0.0
 30
0.0
  3
*Paper_Space0
  1

  0
ENDBLK
  5
25
330
23
100
AcDbEntity
  8
0
100
AcDbBlockEnd
  0
ENDSEC
  0
SECTION
  2
ENTITIES
  0
LWPOLYLINE
  5
76
330
1F
100
AcDbEntity
  8
0
  6
SLD-Durchgehend
 62
     2
420
 16776960
370
    25
100
AcDbPolyline
 90
        3
 70
   128
 43
0.0
 10
510.5198441391
 20
258.6578633797
 10
511.1619711249
 20
259.4440939209
 10
511.4112704212
 20
260.1933201104
  0
LINE
  5
77
330
1F
100
AcDbEntity
  8
0
  6
SLD-Durchgehend
 62
     2
420
 16776960
370
    25
100
AcDbLine
 10
509.0394755494
 20
257.0823425463
 30
0.0
 11
510.5198441391
 21
258.6578633797
 31
0.0
  0
LINE
  5
78
330
1F
100
AcDbEntity
  8
0
  6
SLD-Durchgehend
 62
     2
420
 16776960
370
    25
100
AcDbLine
 10
509.0394755494
 20
256.6276149822
 30
0.0
 11
509.0394755494
 21
257.0823425463
 31
0.0
  0
LINE
  5
79
330
1F
100
AcDbEntity
  8
0
  6
SLD-Durchgehend
 62
     2
420
 16776960
370
    25
100
AcDbLine
 10
512.3728088827
 20
256.6276149822
 30
0.0
 11
509.0394755494
 21
256.6276149822
 31
0.0
  0
LINE
  5
7A
330
1F
100
AcDbEntity
  8
0
  6
SLD-Durchgehend
 62
     2
420
 16776960
370
    25
100
AcDbLine
 10
512.3728088827
 20
257.4609483156
 30
0.0
 11
512.3728088827
 21
256.6276149822
 31
0.0
  0
LINE
  5
7B
330
1F
100
AcDbEntity
  8
0
  6
SLD-Durchgehend
 62
     2
420
 16776960
370
    25
100
AcDbLine
 10
510.690116575
 20
257.4609483156
 30
0.0
 11
512.3728088827
 21
257.4609483156
 31
0.0
  0
LINE
  5
7C
330
1F
100
AcDbEntity
  8
0
  6
SLD-Durchgehend
 62
     2
420
 16776960
370
    25
100
AcDbLine
 10
511.2119515109
 20
258.0589050463
 30
0.0
 11
510.690116575
 21
257.4609483156
 31
0.0
  0
ARC
  5
7D
330
1F
100
AcDbEntity
  8
0
  6
SLD-Durchgehend
 62
     2
420
 16776960
370
    25
100
AcDbCircle
 10
508.8975401692
 20
260.5864477795
 30
0.0
 40
3.427093830975779
100
AcDbArc
 50
312.479601964
 51
354.4738933756
  0
ARC
  5
7E
330
1F
100
AcDbEntity
  8
0
  6
SLD-Durchgehend
 62
     2
420
 16776960
370
    25
100
AcDbCircle
 10
510.8228671722
 20
260.2699903566
 30
0.0
 40
1.485901105251484
100
AcDbArc
 50
359.4767662921
 51
90.5614946611
  0
ARC
  5
7F
330
1F
100
AcDbEntity
  8
0
  6
SLD-Durchgehend
 62
     2
420
 16776960
370
    25
100
AcDbCircle
 10
510.8305523398
 20
260.0882324788
 30
0.0
 40
1.667736017275072
100
AcDbArc
 50
90.7643162028
 51
184.3771580186
  0
LINE
  5
80
330
1F
100
AcDbEntity
  8
0
  6
SLD-Durchgehend
 62
     2
420
 16776960
370
    25
100
AcDbLine
 10
510.065116575
 20
259.9609483156
 30
0.0
 11
509.1676806776
 21
259.9609483156
 31
0.0
  0
LWPOLYLINE
  5
81
330
1F
100
AcDbEntity
  8
0
  6
SLD-Durchgehend
 62
     2
420
 16776960
370
    25
100
AcDbPolyline
 90
        4
 70
   128
 43
0.0
 10
510.7572239468
 20
260.858384213
 10
510.4237465586
 20
260.7588608055
 10
510.191917494
 20
260.4963637746
 10
510.065116575
 20
259.9609483156
  0
ARC
  5
82
330
1F
100
AcDbEntity
  8
0
  6
SLD-Durchgehend
 62
     2
420
 16776960
370
    25
100
AcDbCircle
 10
510.7753413053
 20
260.2220636997
 30
0.0
 40
0.6365783803094256
100
AcDbArc
 50
357.4120288455
 51
91.6308885128
  0
LINE
  5
83
330
1F
100
AcDbEntity
  8
0
  6
SLD-Durchgehend
 62
     2
420
 16776960
370
    25
100
AcDbLine
 10
513.346366575
 20
256.9000508797
 30
0.0
 11
515.189315293
 21
260.7942816489
 31
0.0
  0
LINE
  5
84
330
1F
100
AcDbEntity
  8
0
  6
SLD-Durchgehend
 62
     2
420
 16776960
370
    25
100
AcDbLine
 10
514.1416390109
 20
256.499409854
 30
0.0
 11
513.346366575
 21
256.9000508797
 31
0.0
  0
LINE
  5
85
330
1F
100
AcDbEntity
  8
0
  6
SLD-Durchgehend
 62
     2
420
 16776960
370
    25
100
AcDbLine
 10
516.3471678571
 20
261.1618697899
 30
0.0
 11
514.1416390109
 21
256.499409854
 31
0.0
  0
LINE
  5
86
330
1F
100
AcDbEntity
  8
0
  6
SLD-Durchgehend
 62
     2
420
 16776960
370
    25
100
AcDbLine
 10
516.3471678571
 20
261.6276149822
 30
0.0
 11
516.3471678571
 21
261.1618697899
 31
0.0
  0
LINE
  5
87
330
1F
100
AcDbEntity
  8
0
  6
SLD-Durchgehend
 62
     2
420
 16776960
370
    25
100
AcDbLine
 10
513.1420396519
 20
261.6276149822
 30
0.0
 11
516.3471678571
 21
261.6276149822
 31
0.0
  0
LINE
  5
88
330
1F
100
AcDbEntity
  8
0
  6
SLD-Durchgehend
 62
     2
420
 16776960
370
    25
100
AcDbLine
 10
513.1420396519
 20
260.7942816489
 30
0.0
 11
513.1420396519
 21
261.6276149822
 31
0.0
  0
LINE
  5
89
330
1F
100
AcDbEntity
  8
0
  6
SLD-Durchgehend
 62
     2
420
 16776960
370
    25
100
AcDbLine
 10
515.189315293
 20
260.7942816489
 30
0.0
 11
513.1420396519
 21
260.7942816489
 31
0.0
  0
CIRCLE
  5
8A
330
1F
100
AcDbEntity
  8
0
  6
SLD-Durchgehend
 62
     7
370
    25
100
AcDbCircle
 10
809.2968109756
 20
205.1943375131
 30
0.0
 40
6.124999999999886
  0
CIRCLE
  5
8B
330
1F
100
AcDbEntity
  8
0
  6
SLD-Durchgehend
 62
     7
370
    25
100
AcDbCircle
 10
523.9654384132
 20
205.1943375131
 30
0.0
 40
6.125
  0
CIRCLE
  5
8C
330
1F
100
AcDbEntity
  8
0
  6
SLD-Durchgehend
 62
     7
370
    25
100
AcDbCircle
 10
174.0788262608
 20
205.1943375131
 30
0.0
 40
6.124999999999972
  0
CIRCLE
  5
8D
330
1F
100
AcDbEntity
  8
0
  6
SLD-Durchgehend
 62
     7
370
    25
100
AcDbCircle
 10
469.780965662
 20
1833.4897752064
 30
0.0
 40
4.5
  0
CIRCLE
  5
8E
330
1F
100
AcDbEntity
  8
0
  6
SLD-Durchgehend
 62
     7
370
    25
100
AcDbCircle
 10
464.0600165938
 20
245.1943375131
 30
0.0
 40
4.5
  0
CIRCLE
  5
8F
330
1F
100
AcDbEntity
  8
0
  6
SLD-Durchgehend
 62
     7
370
    25
100
AcDbCircle
 10
791.7634968698
 20
245.1943375131
 30
0.0
 40
4.5
  0
CIRCLE
  5
90
330
1F
100
AcDbEntity
  8
0
  6
SLD-Durchgehend
 62
     7
370
    25
100
AcDbCircle
 10
180.2703607618
 20
245.1943375131
 30
0.0
 40
4.5
  0
CIRCLE
  5
91
330
1F
100
AcDbEntity
  8
0
  6
SLD-Durchgehend
 62
     7
370
    25
100
AcDbCircle
 10
282.8892859226
 20
1159.4374964812
 30
0.0
 40
4.5
  0
LINE
  5
92
330
1F
100
AcDbEntity
  8
0
  6
SLD-Durchgehend
 62
     7
370
    25
100
AcDbLine
 10
323.8673704129
 20
861.3638549545
 30
0.0
 11
336.2072752729
 21
897.1523552245
 31
0.0
  0
LINE
  5
93
330
1F
100
AcDbEntity
  8
0
  6
SLD-Durchgehend
 62
     7
370
    25
100
AcDbLine
 10
323.0402844529
 20
828.9287328145
 30
0.0
 11
323.8673704129
 21
861.3638549545
 31
0.0
  0
LINE
  5
94
330
1F
100
AcDbEntity
  8
0
  6
SLD-Durchgehend
 62
     7
370
    25
100
AcDbLine
 10
316.6745709529
 20
775.5074440645
 30
0.0
 11
323.0402844529
 21
828.9287328145
 31
0.0
  0
LINE
  5
95
330
1F
100
AcDbEntity
  8
0
  6
SLD-Durchgehend
 62
     7
370
    25
100
AcDbLine
 10
306.2282787856
 20
751.3244330098
 30
0.0
 11
316.6745709529
 21
775.5074440645
 31
0.0
  0
LINE
  5
96
330
1F
100
AcDbEntity
  8
0
  6
SLD-Durchgehend
 62
     7
370
    25
100
AcDbLine
 10
306.3443916529
 20
749.8988389345
 30
0.0
 11
306.2282787856
 21
751.3244330098
 31
0.0
  0
LINE
  5
97
330
1F
100
AcDbEntity
  8
0
  6
SLD-Durchgehend
 62
     7
370
    25
100
AcDbLine
 10
304.0412860207
 20
722.6846634559
 30
0.0
 11
306.3443916529
 21
749.8988389345
 31
0.0
  0
LINE
  5
98
330
1F
100
AcDbEntity
  8
0
  6
SLD-Durchgehend
 62
     7
370
    25
100
AcDbLine
 10
303.8432853529
 20
721.4372216545
 30
0.0
 11
304.0412860207
 21
722.6846634559
 31
0.0
  0
LINE
  5
99
330
1F
100
AcDbEntity
  8
0
  6
SLD-Durchgehend
 62
     7
370
    25
100
AcDbLine
 10
302.8838859829
 20
648.6911534245
 30
0.0
 11
303.8432853529
 21
721.4372216545
 31
0.0
  0
LINE
  5
9A
330
1F
100
AcDbEntity
  8
0
  6
SLD-Durchgehend
 62
     7
370
    25
100
AcDbLine
 10
301.2044744629
 20
640.5119179645
 30
0.0
 11
302.8838859829
 21
648.6911534245
 31
0.0
  0
LINE
  5
9B
330
1F
100
AcDbEntity
  8
0
  6
SLD-Durchgehend
 62
     7
370
    25
100
AcDbLine
 10
301.2044744629
 20
640.5119179645
 30
0.0
 11
302.0315872429
 21
611.4824234545
 31
0.0
  0
LINE
  5
9C
330
1F
100
AcDbEntity
  8
0
  6
SLD-Durchgehend
 62
     7
370
    25
100
AcDbLine
 10
299.1776900329
 20
574.0955411845
 30
0.0
 11
302.0315872429
 21
611.4824234545
 31
0.0
  0
LINE
  5
9D
330
1F
100
AcDbEntity
  8
0
  6
SLD-Durchgehend
 62
     7
370
    25
100
AcDbLine
 10
281.5088795929
 20
495.5147563945
 30
0.0
 11
299.1776900329
 21
574.0955411845
 31
0.0
  0
LINE
  5
9E
330
1F
100
AcDbEntity
  8
0
  6
SLD-Durchgehend
 62
     7
370
    25
100
AcDbLine
 10
281.9606708629
 20
463.6619686345
 30
0.0
 11
281.5088795929
 21
495.5147563945
 31
0.0
  0
LINE
  5
9F
330
1F
100
AcDbEntity
  8
0
  6
SLD-Durchgehend
 62
     7
370
    25
100
AcDbLine
 10
280.3496824729
 20
456.6158591845
 30
0.0
 11
281.9606708629
 21
463.6619686345
 31
0.0
  0
LINE
  5
A0
330
1F
100
AcDbEntity
  8
0
  6
SLD-Durchgehend
 62
     7
370
    25
100
AcDbLine
 10
279.3686913829
 20
445.8662628745
 30
0.0
 11
280.3496824729
 21
456.6158591845
 31
0.0
  0
LINE
  5
A1
330
1F
100
AcDbEntity
  8
0
  6
SLD-Durchgehend
 62
     7
370
    25
100
AcDbLine
 10
270.1445745529
 20
412.1747671945
 30
0.0
 11
279.3686913829
 21
445.8662628745
 31
0.0
  0
LINE
  5
A2
330
1F
100
AcDbEntity
  8
0
  6
SLD-Durchgehend
 62
     7
370
    25
100
AcDbLine
 10
270.3227804929
 20
362.5298678245
 30
0.0
 11
270.1445745529
 21
412.1747671945
 31
0.0
  0
LINE
  5
A3
330
1F
100
AcDbEntity
  8
0
  6
SLD-Durchgehend
 62
     7
370
    25
100
AcDbLine
 10
268.1843894029
 20
356.0543178745
 30
0.0
 11
270.3227804929
 21
362.5298678245
 31
0.0
  0
LINE
  5
A4
330
1F
100
AcDbEntity
  8
0
  6
SLD-Durchgehend
 62
     7
370
    25
100
AcDbLine
 10
338.9036732029
 20
354.1679203045
 30
0.0
 11
268.1843894029
 21
356.0543178745
 31
0.0
  0
LINE
  5
A5
330
1F
100
AcDbEntity
  8
0
  6
SLD-Durchgehend
 62
     7
370
    25
100
AcDbLine
 10
350.9996848129
 20
352.5731324545
 30
0.0
 11
338.9036732029
 21
354.1679203045
 31
0.0
  0
LINE
  5
A6
330
1F
100
AcDbEntity
  8
0
  6
SLD-Durchgehend
 62
     7
370
    25
100
AcDbLine
 10
356.7227678929
 20
350.8991657545
 30
0.0
 11
350.9996848129
 21
352.5731324545
 31
0.0
  0
LINE
  5
A7
330
1F
100
AcDbEntity
  8
0
  6
SLD-Durchgehend
 62
     7
370
    25
100
AcDbLine
 10
412.0232927329
 20
358.4069370445
 30
0.0
 11
356.7227678929
 21
350.8991657545
 31
0.0
  0
LINE
  5
A8
330
1F
100
AcDbEntity
  8
0
  6
SLD-Durchgehend
 62
     7
370
    25
100
AcDbLine
 10
502.8314905729
 20
348.4835683645
 30
0.0
 11
412.0232927329
 21
358.4069370445
 31
0.0
  0
LINE
  5
A9
330
1F
100
AcDbEntity
  8
0
  6
SLD-Durchgehend
 62
     7
370
    25
100
AcDbLine
 10
540.8268051439
 20
341.6750489884
 30
0.0
 11
502.8314905729
 21
348.4835683645
 31
0.0
  0
LINE
  5
AA
330
1F
100
AcDbEntity
  8
0
  6
SLD-Durchgehend
 62
     7
370
    25
100
AcDbLine
 10
540.5774669929
 20
340.2728437945
 30
0.0
 11
540.8268051439
 21
341.6750489884
 31
0.0
  0
LINE
  5
AB
330
1F
100
AcDbEntity
  8
0
  6
SLD-Durchgehend
 62
     7
370
    25
100
AcDbLine
 10
559.2344837329
 20
342.4481152645
 30
0.0
 11
540.5774669929
 21
340.2728437945
 31
0.0
  0
LINE
  5
AC
330
1F
100
AcDbEntity
  8
0
  6
SLD-Durchgehend
 62
     7
370
    25
100
AcDbLine
 10
611.8052976829
 20
342.2105251645
 30
0.0
 11
559.2344837329
 21
342.4481152645
 31
0.0
  0
LINE
  5
AD
330
1F
100
AcDbEntity
  8
0
  6
SLD-Durchgehend
 62
     7
370
    25
100
AcDbLine
 10
619.7180824729
 20
337.9130362345
 30
0.0
 11
611.8052976829
 21
342.2105251645
 31
0.0
  0
LINE
  5
AE
330
1F
100
AcDbEntity
  8
0
  6
SLD-Durchgehend
 62
     7
370
    25
100
AcDbLine
 10
641.5889757229
 20
333.4436177845
 30
0.0
 11
619.7180824729
 21
337.9130362345
 31
0.0
  0
LINE
  5
AF
330
1F
100
AcDbEntity
  8
0
  6
SLD-Durchgehend
 62
     7
370
    25
100
AcDbLine
 10
662.9531996629
 20
360.4211687245
 30
0.0
 11
641.5889757229
 21
333.4436177845
 31
0.0
  0
LINE
  5
B0
330
1F
100
AcDbEntity
  8
0
  6
SLD-Durchgehend
 62
     7
370
    25
100
AcDbLine
 10
694.7123783329
 20
395.9648369545
 30
0.0
 11
662.9531996629
 21
360.4211687245
 31
0.0
  0
LINE
  5
B1
330
1F
100
AcDbEntity
  8
0
  6
SLD-Durchgehend
 62
     7
370
    25
100
AcDbLine
 10
715.7912688829
 20
414.4058286745
 30
0.0
 11
694.7123783329
 21
395.9648369545
 31
0.0
  0
LINE
  5
B2
330
1F
100
AcDbEntity
  8
0
  6
SLD-Durchgehend
 62
     7
370
    25
100
AcDbLine
 10
733.8749902129
 20
425.7557570245
 30
0.0
 11
715.7912688829
 21
414.4058286745
 31
0.0
  0
LINE
  5
B3
330
1F
100
AcDbEntity
  8
0
  6
SLD-Durchgehend
 62
     7
370
    25
100
AcDbLine
 10
739.1786831029
 20
489.9644612545
 30
0.0
 11
733.8749902129
 21
425.7557570245
 31
0.0
  0
LINE
  5
B4
330
1F
100
AcDbEntity
  8
0
  6
SLD-Durchgehend
 62
     7
370
    25
100
AcDbLine
 10
739.3478768029
 20
507.2669624245
 30
0.0
 11
739.1786831029
 21
489.9644612545
 31
0.0
  0
LINE
  5
B5
330
1F
100
AcDbEntity
  8
0
  6
SLD-Durchgehend
 62
     7
370
    25
100
AcDbLine
 10
743.8118772529
 20
515.1698230945
 30
0.0
 11
739.3478768029
 21
507.2669624245
 31
0.0
  0
LINE
  5
B6
330
1F
100
AcDbEntity
  8
0
  6
SLD-Durchgehend
 62
     7
370
    25
100
AcDbLine
 10
762.3410599729
 20
536.4206432545
 30
0.0
 11
743.8118772529
 21
515.1698230945
 31
0.0
  0
LINE
  5
B7
330
1F
100
AcDbEntity
  8
0
  6
SLD-Durchgehend
 62
     7
370
    25
100
AcDbLine
 10
751.8830733829
 20
578.9492665645
 30
0.0
 11
762.3410599729
 21
536.4206432545
 31
0.0
  0
LINE
  5
B8
330
1F
100
AcDbEntity
  8
0
  6
SLD-Durchgehend
 62
     7
370
    25
100
AcDbLine
 10
752.5472956129
 20
580.6916295745
 30
0.0
 11
751.8830733829
 21
578.9492665645
 31
0.0
  0
LINE
  5
B9
330
1F
100
AcDbEntity
  8
0
  6
SLD-Durchgehend
 62
     7
370
    25
100
AcDbLine
 10
738.1040828329
 20
623.5631464945
 30
0.0
 11
752.5472956129
 21
580.6916295745
 31
0.0
  0
LINE
  5
BA
330
1F
100
AcDbEntity
  8
0
  6
SLD-Durchgehend
 62
     7
370
    25
100
AcDbLine
 10
738.1679731129
 20
629.9540459545
 30
0.0
 11
738.1040828329
 21
623.5631464945
 31
0.0
  0
LINE
  5
BB
330
1F
100
AcDbEntity
  8
0
  6
SLD-Durchgehend
 62
     7
370
    25
100
AcDbLine
 10
727.0952777929
 20
675.1520572945
 30
0.0
 11
738.1679731129
 21
629.9540459545
 31
0.0
  0
LINE
  5
BC
330
1F
100
AcDbEntity
  8
0
  6
SLD-Durchgehend
 62
     7
370
    25
100
AcDbLine
 10
719.8880749039
 20
694.0223633461
 30
0.0
 11
727.0952777929
 21
675.1520572945
 31
0.0
  0
LINE
  5
BD
330
1F
100
AcDbEntity
  8
0
  6
SLD-Durchgehend
 62
     7
370
    25
100
AcDbLine
 10
719.6837978629
 20
695.3660428045
 30
0.0
 11
719.8880749039
 21
694.0223633461
 31
0.0
  0
LINE
  5
BE
330
1F
100
AcDbEntity
  8
0
  6
SLD-Durchgehend
 62
     7
370
    25
100
AcDbLine
 10
712.1282832829
 20
733.0742536945
 30
0.0
 11
719.6837978629
 21
695.3660428045
 31
0.0
  0
LINE
  5
BF
330
1F
100
AcDbEntity
  8
0
  6
SLD-Durchgehend
 62
     7
370
    25
100
AcDbLine
 10
703.4783738329
 20
750.2894221945
 30
0.0
 11
712.1282832829
 21
733.0742536945
 31
0.0
  0
LINE
  5
C0
330
1F
100
AcDbEntity
  8
0
  6
SLD-Durchgehend
 62
     7
370
    25
100
AcDbLine
 10
691.6775660929
 20
811.8548362345
 30
0.0
 11
703.4783738329
 21
750.2894221945
 31
0.0
  0
LINE
  5
C1
330
1F
100
AcDbEntity
  8
0
  6
SLD-Durchgehend
 62
     7
370
    25
100
AcDbLine
 10
672.9089694229
 20
865.9331320945
 30
0.0
 11
691.6775660929
 21
811.8548362345
 31
0.0
  0
LINE
  5
C2
330
1F
100
AcDbEntity
  8
0
  6
SLD-Durchgehend
 62
     7
370
    25
100
AcDbLine
 10
670.8947913829
 20
879.7319441545
 30
0.0
 11
672.9089694229
 21
865.9331320945
 31
0.0
  0
LINE
  5
C3
330
1F
100
AcDbEntity
  8
0
  6
SLD-Durchgehend
 62
     7
370
    25
100
AcDbLine
 10
658.8977533129
 20
918.2879476645
 30
0.0
 11
670.8947913829
 21
879.7319441545
 31
0.0
  0
LINE
  5
C4
330
1F
100
AcDbEntity
  8
0
  6
SLD-Durchgehend
 62
     7
370
    25
100
AcDbLine
 10
653.0090706829
 20
932.8571437945
 30
0.0
 11
658.8977533129
 21
918.2879476645
 31
0.0
  0
LINE
  5
C5
330
1F
100
AcDbEntity
  8
0
  6
SLD-Durchgehend
 62
     7
370
    25
100
AcDbLine
 10
642.4826877829
 20
968.5871451445
 30
0.0
 11
653.0090706829
 21
932.8571437945
 31
0.0
  0
LINE
  5
C6
330
1F
100
AcDbEntity
  8
0
  6
SLD-Durchgehend
 62
     7
370
    25
100
AcDbLine
 10
634.6355633929
 20
1015.2638449645
 30
0.0
 11
642.4826877829
 21
968.5871451445
 31
0.0
  0
LINE
  5
C7
330
1F
100
AcDbEntity
  8
0
  6
SLD-Durchgehend
 62
     7
370
    25
100
AcDbLine
 10
611.0745029929
 20
1070.6840365045
 30
0.0
 11
634.6355633929
 21
1015.2638449645
 31
0.0
  0
LINE
  5
C8
330
1F
100
AcDbEntity
  8
0
  6
SLD-Durchgehend
 62
     7
370
    25
100
AcDbLine
 10
596.0903959729
 20
1094.3288355145
 30
0.0
 11
611.0745029929
 21
1070.6840365045
 31
0.0
  0
LINE
  5
C9
330
1F
100
AcDbEntity
  8
0
  6
SLD-Durchgehend
 62
     7
370
    25
100
AcDbLine
 10
585.6170670829
 20
1137.0608440645
 30
0.0
 11
596.0903959729
 21
1094.3288355145
 31
0.0
  0
LINE
  5
CA
330
1F
100
AcDbEntity
  8
0
  6
SLD-Durchgehend
 62
     7
370
    25
100
AcDbLine
 10
578.6213831929
 20
1171.2806410045
 30
0.0
 11
585.6170670829
 21
1137.0608440645
 31
0.0
  0
LINE
  5
CB
330
1F
100
AcDbEntity
  8
0
  6
SLD-Durchgehend
 62
     7
370
    25
100
AcDbLine
 10
574.1825955229
 20
1203.5708417245
 30
0.0
 11
578.6213831929
 21
1171.2806410045
 31
0.0
  0
LINE
  5
CC
330
1F
100
AcDbEntity
  8
0
  6
SLD-Durchgehend
 62
     7
370
    25
100
AcDbLine
 10
566.8097930029
 20
1237.5494427145
 30
0.0
 11
574.1825955229
 21
1203.5708417245
 31
0.0
  0
LINE
  5
CD
330
1F
100
AcDbEntity
  8
0
  6
SLD-Durchgehend
 62
     7
370
    25
100
AcDbLine
 10
568.4198694229
 20
1247.5826411845
 30
0.0
 11
566.8097930029
 21
1237.5494427145
 31
0.0
  0
LINE
  5
CE
330
1F
100
AcDbEntity
  8
0
  6
SLD-Durchgehend
 62
     7
370
    25
100
AcDbLine
 10
562.3862939029
 20
1257.3782428045
 30
0.0
 11
568.4198694229
 21
1247.5826411845
 31
0.0
  0
LINE
  5
CF
330
1F
100
AcDbEntity
  8
0
  6
SLD-Durchgehend
 62
     7
370
    25
100
AcDbLine
 10
543.1235807629
 20
1342.9853423545
 30
0.0
 11
562.3862939029
 21
1257.3782428045
 31
0.0
  0
LINE
  5
D0
330
1F
100
AcDbEntity
  8
0
  6
SLD-Durchgehend
 62
     7
370
    25
100
AcDbLine
 10
519.1611008941
 20
1398.3623369743
 30
0.0
 11
543.1235807629
 21
1342.9853423545
 31
0.0
  0
LINE
  5
D1
330
1F
100
AcDbEntity
  8
0
  6
SLD-Durchgehend
 62
     7
370
    25
100
AcDbLine
 10
518.5535805829
 20
1399.2263435245
 30
0.0
 11
519.1611008941
 21
1398.3623369743
 31
0.0
  0
LINE
  5
D2
330
1F
100
AcDbEntity
  8
0
  6
SLD-Durchgehend
 62
     7
370
    25
100
AcDbLine
 10
487.0670752729
 20
1469.1149472145
 30
0.0
 11
518.5535805829
 21
1399.2263435245
 31
0.0
  0
LINE
  5
D3
330
1F
100
AcDbEntity
  8
0
  6
SLD-Durchgehend
 62
     7
370
    25
100
AcDbLine
 10
487.0670752729
 20
1469.1149472145
 30
0.0
 11
469.2524867029
 21
1455.4925440645
 31
0.0
  0
LINE
  5
D4
330
1F
100
AcDbEntity
  8
0
  6
SLD-Durchgehend
 62
     7
370
    25
100
AcDbLine
 10
445.1396690629
 20
1387.5992356945
 30
0.0
 11
469.2524867029
 21
1455.4925440645
 31
0.0
  0
LINE
  5
D5
330
1F
100
AcDbEntity
  8
0
  6
SLD-Durchgehend
 62
     7
370
    25
100
AcDbLine
 10
432.8942852629
 20
1364.0993430745
 30
0.0
 11
445.1396690629
 21
1387.5992356945
 31
0.0
  0
LINE
  5
D6
330
1F
100
AcDbEntity
  8
0
  6
SLD-Durchgehend
 62
     7
370
    25
100
AcDbLine
 10
408.7409662306
 20
1308.3911425579
 30
0.0
 11
432.8942852629
 21
1364.0993430745
 31
0.0
  0
LINE
  5
D7
330
1F
100
AcDbEntity
  8
0
  6
SLD-Durchgehend
 62
     7
370
    25
100
AcDbLine
 10
408.6689757229
 20
1307.0384442445
 30
0.0
 11
408.7409662306
 21
1308.3911425579
 31
0.0
  0
LINE
  5
D8
330
1F
100
AcDbEntity
  8
0
  6
SLD-Durchgehend
 62
     7
370
    25
100
AcDbLine
 10
384.7892688829
 20
1254.2147415445
 30
0.0
 11
408.6689757229
 21
1307.0384442445
 31
0.0
  0
LINE
  5
D9
330
1F
100
AcDbEntity
  8
0
  6
SLD-Durchgehend
 62
     7
370
    25
100
AcDbLine
 10
383.6525755429
 20
1229.1290414545
 30
0.0
 11
384.7892688829
 21
1254.2147415445
 31
0.0
  0
LINE
  5
DA
330
1F
100
AcDbEntity
  8
0
  6
SLD-Durchgehend
 62
     7
370
    25
100
AcDbLine
 10
384.2555897629
 20
1219.0400421745
 30
0.0
 11
383.6525755429
 21
1229.1290414545
 31
0.0
  0
LINE
  5
DB
330
1F
100
AcDbEntity
  8
0
  6
SLD-Durchgehend
 62
     7
370
    25
100
AcDbLine
 10
380.0228761729
 20
1173.4775411845
 30
0.0
 11
384.2555897629
 21
1219.0400421745
 31
0.0
  0
LINE
  5
DC
330
1F
100
AcDbEntity
  8
0
  6
SLD-Durchgehend
 62
     7
370
    25
100
AcDbLine
 10
375.7640915629
 20
1141.1720401945
 30
0.0
 11
380.0228761729
 21
1173.4775411845
 31
0.0
  0
LINE
  5
DD
330
1F
100
AcDbEntity
  8
0
  6
SLD-Durchgehend
 62
     7
370
    25
100
AcDbLine
 10
375.2636717629
 20
1109.3435398345
 30
0.0
 11
375.7640915629
 21
1141.1720401945
 31
0.0
  0
LINE
  5
DE
330
1F
100
AcDbEntity
  8
0
  6
SLD-Durchgehend
 62
     7
370
    25
100
AcDbLine
 10
373.6526833729
 20
1082.4209406445
 30
0.0
 11
375.2636717629
 21
1109.3435398345
 31
0.0
  0
LINE
  5
DF
330
1F
100
AcDbEntity
  8
0
  6
SLD-Durchgehend
 62
     7
370
    25
100
AcDbLine
 10
353.3189909329
 20
1019.7467415445
 30
0.0
 11
373.6526833729
 21
1082.4209406445
 31
0.0
  0
LINE
  5
E0
330
1F
100
AcDbEntity
  8
0
  6
SLD-Durchgehend
 62
     7
370
    25
100
AcDbLine
 10
350.3669785129
 20
1014.8822470345
 30
0.0
 11
353.3189909329
 21
1019.7467415445
 31
0.0
  0
LINE
  5
E1
330
1F
100
AcDbEntity
  8
0
  6
SLD-Durchgehend
 62
     7
370
    25
100
AcDbLine
 10
342.1661781529
 20
989.1017525245
 30
0.0
 11
350.3669785129
 21
1014.8822470345
 31
0.0
  0
LINE
  5
E2
330
1F
100
AcDbEntity
  8
0
  6
SLD-Durchgehend
 62
     7
370
    25
100
AcDbLine
 10
340.2410762629
 20
972.6335524345
 30
0.0
 11
342.1661781529
 21
989.1017525245
 31
0.0
  0
LINE
  5
E3
330
1F
100
AcDbEntity
  8
0
  6
SLD-Durchgehend
 62
     7
370
    25
100
AcDbLine
 10
340.6352804929
 20
967.0553356045
 30
0.0
 11
340.2410762629
 21
972.6335524345
 31
0.0
  0
LINE
  5
E4
330
1F
100
AcDbEntity
  8
0
  6
SLD-Durchgehend
 62
     7
370
    25
100
AcDbLine
 10
338.8010786929
 20
962.4905376745
 30
0.0
 11
340.6352804929
 21
967.0553356045
 31
0.0
  0
LINE
  5
E5
330
1F
100
AcDbEntity
  8
0
  6
SLD-Durchgehend
 62
     7
370
    25
100
AcDbLine
 10
338.7929784229
 20
956.8853377645
 30
0.0
 11
338.8010786929
 21
962.4905376745
 31
0.0
  0
LINE
  5
E6
330
1F
100
AcDbEntity
  8
0
  6
SLD-Durchgehend
 62
     7
370
    25
100
AcDbLine
 10
333.5612760829
 20
938.1941496445
 30
0.0
 11
338.7929784229
 21
956.8853377645
 31
0.0
  0
LINE
  5
E7
330
1F
100
AcDbEntity
  8
0
  6
SLD-Durchgehend
 62
     7
370
    25
100
AcDbLine
 10
333.5612760829
 20
938.1941496445
 30
0.0
 11
336.2072752729
 21
897.1523552245
 31
0.0
  0
LINE
  5
E8
330
1F
100
AcDbEntity
  8
0
  6
SLD-Durchgehend
 62
     7
370
    25
100
AcDbLine
 10
302.3159819329
 20
1511.0072433445
 30
0.0
 11
318.5177849929
 21
1559.9231450545
 31
0.0
  0
LINE
  5
E9
330
1F
100
AcDbEntity
  8
0
  6
SLD-Durchgehend
 62
     7
370
    25
100
AcDbLine
 10
318.5177849929
 20
1559.9231450545
 30
0.0
 11
321.8918697829
 21
1605.0446330845
 31
0.0
  0
LINE
  5
EA
330
1F
100
AcDbEntity
  8
0
  6
SLD-Durchgehend
 62
     7
370
    25
100
AcDbLine
 10
321.8918697829
 20
1605.0446330845
 30
0.0
 11
331.4399706829
 21
1630.4264306545
 31
0.0
  0
LINE
  5
EB
330
1F
100
AcDbEntity
  8
0
  6
SLD-Durchgehend
 62
     7
370
    25
100
AcDbLine
 10
331.4399706829
 20
1630.4264306545
 30
0.0
 11
348.6443834629
 21
1661.5898369545
 31
0.0
  0
LINE
  5
EC
330
1F
100
AcDbEntity
  8
0
  6
SLD-Durchgehend
 62
     7
370
    25
100
AcDbLine
 10
348.6443834629
 20
1661.5898369545
 30
0.0
 11
354.5420782429
 21
1679.1263340745
 31
0.0
  0
LINE
  5
ED
330
1F
100
AcDbEntity
  8
0
  6
SLD-Durchgehend
 62
     7
370
    25
100
AcDbLine
 10
354.5420782429
 20
1679.1263340745
 30
0.0
 11
355.3376750929
 21
1690.1450633245
 31
0.0
  0
LINE
  5
EE
330
1F
100
AcDbEntity
  8
0
  6
SLD-Durchgehend
 62
     7
370
    25
100
AcDbLine
 10
355.3376750929
 20
1690.1450633245
 30
0.0
 11
360.2786796829
 21
1708.5833191345
 31
0.0
  0
LINE
  5
EF
330
1F
100
AcDbEntity
  8
0
  6
SLD-Durchgehend
 62
     7
370
    25
100
AcDbLine
 10
360.2786796829
 20
1708.5833191345
 30
0.0
 11
369.6467774329
 21
1723.6205338945
 31
0.0
  0
LINE
  5
F0
330
1F
100
AcDbEntity
  8
0
  6
SLD-Durchgehend
 62
     7
370
    25
100
AcDbLine
 10
369.6467774329
 20
1723.6205338945
 30
0.0
 11
379.5962708629
 21
1751.3315617045
 31
0.0
  0
LINE
  5
F1
330
1F
100
AcDbEntity
  8
0
  6
SLD-Durchgehend
 62
     7
370
    25
100
AcDbLine
 10
379.5962708629
 20
1751.3315617045
 30
0.0
 11
382.7426897629
 21
1756.8395315545
 31
0.0
  0
LINE
  5
F2
330
1F
100
AcDbEntity
  8
0
  6
SLD-Durchgehend
 62
     7
370
    25
100
AcDbLine
 10
382.7426897629
 20
1756.8395315545
 30
0.0
 11
402.4301843629
 21
1775.2715646745
 31
0.0
  0
LINE
  5
F3
330
1F
100
AcDbEntity
  8
0
  6
SLD-Durchgehend
 62
     7
370
    25
100
AcDbLine
 10
402.4301843629
 20
1775.2715646745
 30
0.0
 11
416.6978733829
 21
1800.9116589145
 31
0.0
  0
LINE
  5
F4
330
1F
100
AcDbEntity
  8
0
  6
SLD-Durchgehend
 62
     7
370
    25
100
AcDbLine
 10
416.6978733829
 20
1800.9116589145
 30
0.0
 11
418.3547812129
 21
1813.8032673745
 31
0.0
  0
LINE
  5
F5
330
1F
100
AcDbEntity
  8
0
  6
SLD-Durchgehend
 62
     7
370
    25
100
AcDbLine
 10
418.3547812129
 20
1813.8032673745
 30
0.0
 11
424.2722706829
 21
1829.3066500945
 31
0.0
  0
LINE
  5
F6
330
1F
100
AcDbEntity
  8
0
  6
SLD-Durchgehend
 62
     7
370
    25
100
AcDbLine
 10
424.2722706829
 20
1829.3066500945
 30
0.0
 11
432.8907700149
 21
1867.2774667409
 31
0.0
  0
LINE
  5
F7
330
1F
100
AcDbEntity
  8
0
  6
SLD-Durchgehend
 62
     7
370
    25
100
AcDbLine
 10
432.8907700149
 20
1867.2774667409
 30
0.0
 11
435.3278802796
 21
1892.6261609109
 31
0.0
  0
LINE
  5
F8
330
1F
100
AcDbEntity
  8
0
  6
SLD-Durchgehend
 62
     7
370
    25
100
AcDbLine
 10
435.3278802796
 20
1892.6261609109
 30
0.0
 11
438.9220265031
 21
1913.0232291768
 31
0.0
  0
LINE
  5
F9
330
1F
100
AcDbEntity
  8
0
  6
SLD-Durchgehend
 62
     7
370
    25
100
AcDbLine
 10
438.9220265031
 20
1913.0232291768
 30
0.0
 11
446.1353351383
 21
1932.5182493428
 31
0.0
  0
LINE
  5
FA
330
1F
100
AcDbEntity
  8
0
  6
SLD-Durchgehend
 62
     7
370
    25
100
AcDbLine
 10
446.1353351383
 20
1932.5182493428
 30
0.0
 11
450.8219946549
 21
1936.443541748
 31
0.0
  0
LINE
  5
FB
330
1F
100
AcDbEntity
  8
0
  6
SLD-Durchgehend
 62
     7
370
    25
100
AcDbLine
 10
450.8219946549
 20
1936.443541748
 30
0.0
 11
473.296477036
 21
1940.1489415304
 31
0.0
  0
LINE
  5
FC
330
1F
100
AcDbEntity
  8
0
  6
SLD-Durchgehend
 62
     7
370
    25
100
AcDbLine
 10
473.296477036
 20
1940.1489415304
 30
0.0
 11
489.1593043646
 21
1931.2052040167
 31
0.0
  0
LINE
  5
FD
330
1F
100
AcDbEntity
  8
0
  6
SLD-Durchgehend
 62
     7
370
    25
100
AcDbLine
 10
489.1593043646
 20
1931.2052040167
 30
0.0
 11
496.0745226062
 21
1916.8841503095
 31
0.0
  0
LINE
  5
FE
330
1F
100
AcDbEntity
  8
0
  6
SLD-Durchgehend
 62
     7
370
    25
100
AcDbLine
 10
496.0745226062
 20
1916.8841503095
 30
0.0
 11
504.3471184079
 21
1880.4643526142
 31
0.0
  0
LINE
  5
FF
330
1F
100
AcDbEntity
  8
0
  6
SLD-Durchgehend
 62
     7
370
    25
100
AcDbLine
 10
504.3471184079
 20
1880.4643526142
 30
0.0
 11
504.3471184079
 21
1858.2288901189
 31
0.0
  0
LINE
  5
100
330
1F
100
AcDbEntity
  8
0
  6
SLD-Durchgehend
 62
     7
370
    25
100
AcDbLine
 10
504.3471184079
 20
1858.2288901189
 30
0.0
 11
520.1254355329
 21
1807.1135430745
 31
0.0
  0
LINE
  5
101
330
1F
100
AcDbEntity
  8
0
  6
SLD-Durchgehend
 62
     7
370
    25
100
AcDbLine
 10
520.1254355329
 20
1807.1135430745
 30
0.0
 11
537.1214943529
 21
1775.8178233645
 31
0.0
  0
LINE
  5
102
330
1F
100
AcDbEntity
  8
0
  6
SLD-Durchgehend
 62
     7
370
    25
100
AcDbLine
 10
537.1214943529
 20
1775.8178233645
 30
0.0
 11
549.7394638429
 21
1749.3110536945
 31
0.0
  0
LINE
  5
103
330
1F
100
AcDbEntity
  8
0
  6
SLD-Durchgehend
 62
     7
370
    25
100
AcDbLine
 10
549.7394638429
 20
1749.3110536945
 30
0.0
 11
564.3653886829
 21
1722.2327589145
 31
0.0
  0
LINE
  5
104
330
1F
100
AcDbEntity
  8
0
  6
SLD-Durchgehend
 62
     7
370
    25
100
AcDbLine
 10
564.3653886829
 20
1722.2327589145
 30
0.0
 11
593.2895796829
 21
1662.1631323645
 31
0.0
  0
LINE
  5
105
330
1F
100
AcDbEntity
  8
0
  6
SLD-Durchgehend
 62
     7
370
    25
100
AcDbLine
 10
593.2895796829
 20
1662.1631323645
 30
0.0
 11
608.8622705929
 21
1613.0645453245
 31
0.0
  0
LINE
  5
106
330
1F
100
AcDbEntity
  8
0
  6
SLD-Durchgehend
 62
     7
370
    25
100
AcDbLine
 10
608.8622705929
 20
1613.0645453245
 30
0.0
 11
610.7045726629
 21
1610.8388482945
 31
0.0
  0
LINE
  5
107
330
1F
100
AcDbEntity
  8
0
  6
SLD-Durchgehend
 62
     7
370
    25
100
AcDbLine
 10
610.7045726629
 20
1610.8388482945
 30
0.0
 11
621.4280979925
 21
1576.894447129
 31
0.0
  0
LINE
  5
108
330
1F
100
AcDbEntity
  8
0
  6
SLD-Durchgehend
 62
     7
370
    25
100
AcDbLine
 10
621.4280979925
 20
1576.894447129
 30
0.0
 11
620.1770620429
 21
1576.7810433445
 31
0.0
  0
LINE
  5
109
330
1F
100
AcDbEntity
  8
0
  6
SLD-Durchgehend
 62
     7
370
    25
100
AcDbLine
 10
620.1770620429
 20
1576.7810433445
 30
0.0
 11
622.4117713129
 21
1568.5334383945
 31
0.0
  0
LINE
  5
10A
330
1F
100
AcDbEntity
  8
0
  6
SLD-Durchgehend
 62
     7
370
    25
100
AcDbLine
 10
622.4117713129
 20
1568.5334383945
 30
0.0
 11
643.2467954329
 21
1521.9467401045
 31
0.0
  0
LINE
  5
10B
330
1F
100
AcDbEntity
  8
0
  6
SLD-Durchgehend
 62
     7
370
    25
100
AcDbLine
 10
643.2467954329
 20
1521.9467401045
 30
0.0
 11
649.6062056929
 21
1483.3988367745
 31
0.0
  0
LINE
  5
10C
330
1F
100
AcDbEntity
  8
0
  6
SLD-Durchgehend
 62
     7
370
    25
100
AcDbLine
 10
649.6062056929
 20
1483.3988367745
 30
0.0
 11
658.9652912929
 21
1470.6494390245
 31
0.0
  0
LINE
  5
10D
330
1F
100
AcDbEntity
  8
0
  6
SLD-Durchgehend
 62
     7
370
    25
100
AcDbLine
 10
658.9652912929
 20
1470.6494390245
 30
0.0
 11
661.3106685229
 21
1440.0710492845
 31
0.0
  0
LINE
  5
10E
330
1F
100
AcDbEntity
  8
0
  6
SLD-Durchgehend
 62
     7
370
    25
100
AcDbLine
 10
661.3106685229
 20
1440.0710492845
 30
0.0
 11
668.4080617729
 21
1435.0904419045
 31
0.0
  0
LINE
  5
10F
330
1F
100
AcDbEntity
  8
0
  6
SLD-Durchgehend
 62
     7
370
    25
100
AcDbLine
 10
668.4080617729
 20
1435.0904419045
 30
0.0
 11
678.9119678029
 21
1409.6825464945
 31
0.0
  0
LINE
  5
110
330
1F
100
AcDbEntity
  8
0
  6
SLD-Durchgehend
 62
     7
370
    25
100
AcDbLine
 10
678.9119678029
 20
1409.6825464945
 30
0.0
 11
691.8989556529
 21
1390.9355416345
 31
0.0
  0
LINE
  5
111
330
1F
100
AcDbEntity
  8
0
  6
SLD-Durchgehend
 62
     7
370
    25
100
AcDbLine
 10
691.8989556529
 20
1390.9355416345
 30
0.0
 11
716.2341015529
 21
1321.3214419045
 31
0.0
  0
LINE
  5
112
330
1F
100
AcDbEntity
  8
0
  6
SLD-Durchgehend
 62
     7
370
    25
100
AcDbLine
 10
716.2341015529
 20
1321.3214419045
 30
0.0
 11
724.4511025429
 21
1277.9351419945
 31
0.0
  0
LINE
  5
113
330
1F
100
AcDbEntity
  8
0
  6
SLD-Durchgehend
 62
     7
370
    25
100
AcDbLine
 10
724.4511025429
 20
1277.9351419945
 30
0.0
 11
730.4819958829
 21
1257.1334410045
 31
0.0
  0
LINE
  5
114
330
1F
100
AcDbEntity
  8
0
  6
SLD-Durchgehend
 62
     7
370
    25
100
AcDbLine
 10
730.4819958829
 20
1257.1334410045
 30
0.0
 11
728.4398691529
 21
1241.2286422645
 31
0.0
  0
LINE
  5
115
330
1F
100
AcDbEntity
  8
0
  6
SLD-Durchgehend
 62
     7
370
    25
100
AcDbLine
 10
728.4398691529
 20
1241.2286422645
 30
0.0
 11
733.2098561029
 21
1207.6046418145
 31
0.0
  0
LINE
  5
116
330
1F
100
AcDbEntity
  8
0
  6
SLD-Durchgehend
 62
     7
370
    25
100
AcDbLine
 10
733.2098561029
 20
1207.6046418145
 30
0.0
 11
738.4433822929
 21
1185.5762417245
 31
0.0
  0
LINE
  5
117
330
1F
100
AcDbEntity
  8
0
  6
SLD-Durchgehend
 62
     7
370
    25
100
AcDbLine
 10
738.4433822929
 20
1185.5762417245
 30
0.0
 11
739.2470794129
 21
1171.8827433445
 31
0.0
  0
LINE
  5
118
330
1F
100
AcDbEntity
  8
0
  6
SLD-Durchgehend
 62
     7
370
    25
100
AcDbLine
 10
739.2470794129
 20
1171.8827433445
 30
0.0
 11
752.9108958829
 21
1156.4810431645
 31
0.0
  0
LINE
  5
119
330
1F
100
AcDbEntity
  8
0
  6
SLD-Durchgehend
 62
     7
370
    25
100
AcDbLine
 10
752.9108958829
 20
1156.4810431645
 30
0.0
 11
759.9686997529
 21
1141.3592449645
 31
0.0
  0
LINE
  5
11A
330
1F
100
AcDbEntity
  8
0
  6
SLD-Durchgehend
 62
     7
370
    25
100
AcDbLine
 10
759.9686997529
 20
1141.3592449645
 30
0.0
 11
766.8285029029
 21
1117.8206413645
 31
0.0
  0
LINE
  5
11B
330
1F
100
AcDbEntity
  8
0
  6
SLD-Durchgehend
 62
     7
370
    25
100
AcDbLine
 10
766.8285029029
 20
1117.8206413645
 30
0.0
 11
776.1092679829
 21
1098.5588401045
 31
0.0
  0
LINE
  5
11C
330
1F
100
AcDbEntity
  8
0
  6
SLD-Durchgehend
 62
     7
370
    25
100
AcDbLine
 10
776.1092679829
 20
1098.5588401045
 30
0.0
 11
787.5995831929
 21
1029.0869444245
 31
0.0
  0
LINE
  5
11D
330
1F
100
AcDbEntity
  8
0
  6
SLD-Durchgehend
 62
     7
370
    25
100
AcDbLine
 10
787.5995831929
 20
1029.0869444245
 30
0.0
 11
789.7307591629
 21
1025.0720395645
 31
0.0
  0
LINE
  5
11E
330
1F
100
AcDbEntity
  8
0
  6
SLD-Durchgehend
 62
     7
370
    25
100
AcDbLine
 10
789.7307591629
 20
1025.0720395645
 30
0.0
 11
790.0106744629
 21
1021.0373401045
 31
0.0
  0
LINE
  5
11F
330
1F
100
AcDbEntity
  8
0
  6
SLD-Durchgehend
 62
     7
370
    25
100
AcDbLine
 10
790.0106744629
 20
1021.0373401045
 30
0.0
 11
818.7215762629
 21
941.4125322745
 31
0.0
  0
LINE
  5
120
330
1F
100
AcDbEntity
  8
0
  6
SLD-Durchgehend
 62
     7
370
    25
100
AcDbLine
 10
818.7215762629
 20
941.4125322745
 30
0.0
 11
855.0617533129
 21
820.0430302945
 31
0.0
  0
LINE
  5
121
330
1F
100
AcDbEntity
  8
0
  6
SLD-Durchgehend
 62
     7
370
    25
100
AcDbLine
 10
855.0617533129
 20
820.0430302945
 30
0.0
 11
855.5513637529
 21
814.6043419045
 31
0.0
  0
LINE
  5
122
330
1F
100
AcDbEntity
  8
0
  6
SLD-Durchgehend
 62
     7
370
    25
100
AcDbLine
 10
855.5513637529
 20
814.6043419045
 30
0.0
 11
860.3879767129
 21
803.3885508145
 31
0.0
  0
LINE
  5
123
330
1F
100
AcDbEntity
  8
0
  6
SLD-Durchgehend
 62
     7
370
    25
100
AcDbLine
 10
860.3879767129
 20
803.3885508145
 30
0.0
 11
863.9753776129
 21
785.5406491945
 31
0.0
  0
LINE
  5
124
330
1F
100
AcDbEntity
  8
0
  6
SLD-Durchgehend
 62
     7
370
    25
100
AcDbLine
 10
863.9753776129
 20
785.5406491945
 30
0.0
 11
872.6378934529
 21
757.4057518945
 31
0.0
  0
LINE
  5
125
330
1F
100
AcDbEntity
  8
0
  6
SLD-Durchgehend
 62
     7
370
    25
100
AcDbLine
 10
872.6378934529
 20
757.4057518945
 30
0.0
 11
879.5453863429
 21
730.7369230945
 31
0.0
  0
LINE
  5
126
330
1F
100
AcDbEntity
  8
0
  6
SLD-Durchgehend
 62
     7
370
    25
100
AcDbLine
 10
879.5453863429
 20
730.7369230945
 30
0.0
 11
882.3407845429
 21
697.3658441545
 31
0.0
  0
LINE
  5
127
330
1F
100
AcDbEntity
  8
0
  6
SLD-Durchgehend
 62
     7
370
    25
100
AcDbLine
 10
882.3407845429
 20
697.3658441545
 30
0.0
 11
882.1472900329
 21
673.8848208445
 31
0.0
  0
LINE
  5
128
330
1F
100
AcDbEntity
  8
0
  6
SLD-Durchgehend
 62
     7
370
    25
100
AcDbLine
 10
882.1472900329
 20
673.8848208445
 30
0.0
 11
895.8155589829
 21
616.8770431645
 31
0.0
  0
LINE
  5
129
330
1F
100
AcDbEntity
  8
0
  6
SLD-Durchgehend
 62
     7
370
    25
100
AcDbLine
 10
895.8155589829
 20
616.8770431645
 30
0.0
 11
927.4839180229
 21
516.6989504545
 31
0.0
  0
LINE
  5
12A
330
1F
100
AcDbEntity
  8
0
  6
SLD-Durchgehend
 62
     7
370
    25
100
AcDbLine
 10
927.4839180229
 20
516.6989504545
 30
0.0
 11
934.4760077629
 21
498.8852202145
 31
0.0
  0
LINE
  5
12B
330
1F
100
AcDbEntity
  8
0
  6
SLD-Durchgehend
 62
     7
370
    25
100
AcDbLine
 10
934.4760077629
 20
498.8852202145
 30
0.0
 11
938.5683076729
 21
477.2177456845
 31
0.0
  0
LINE
  5
12C
330
1F
100
AcDbEntity
  8
0
  6
SLD-Durchgehend
 62
     7
370
    25
100
AcDbLine
 10
938.5683076729
 20
477.2177456845
 30
0.0
 11
939.9101632129
 21
462.9977464045
 31
0.0
  0
LINE
  5
12D
330
1F
100
AcDbEntity
  8
0
  6
SLD-Durchgehend
 62
     7
370
    25
100
AcDbLine
 10
939.9101632129
 20
462.9977464045
 30
0.0
 11
918.3533566429
 21
403.0172228245
 31
0.0
  0
LINE
  5
12E
330
1F
100
AcDbEntity
  8
0
  6
SLD-Durchgehend
 62
     7
370
    25
100
AcDbLine
 10
918.3533566429
 20
403.0172228245
 30
0.0
 11
914.3276827429
 21
379.2590200345
 31
0.0
  0
LINE
  5
12F
330
1F
100
AcDbEntity
  8
0
  6
SLD-Durchgehend
 62
     7
370
    25
100
AcDbLine
 10
914.3276827429
 20
379.2590200345
 30
0.0
 11
917.2922747329
 21
359.8793625145
 31
0.0
  0
LINE
  5
130
330
1F
100
AcDbEntity
  8
0
  6
SLD-Durchgehend
 62
     7
370
    25
100
AcDbLine
 10
917.2922747329
 20
359.8793625145
 30
0.0
 11
914.6309869729
 21
350.9225546845
 31
0.0
  0
LINE
  5
131
330
1F
100
AcDbEntity
  8
0
  6
SLD-Durchgehend
 62
     7
370
    25
100
AcDbLine
 10
914.6309869729
 20
350.9225546845
 30
0.0
 11
877.1738844529
 21
314.6597861845
 31
0.0
  0
LINE
  5
132
330
1F
100
AcDbEntity
  8
0
  6
SLD-Durchgehend
 62
     7
370
    25
100
AcDbLine
 10
877.1738844529
 20
314.6597861845
 30
0.0
 11
865.9652548429
 21
269.5670246245
 31
0.0
  0
LINE
  5
133
330
1F
100
AcDbEntity
  8
0
  6
SLD-Durchgehend
 62
     7
370
    25
100
AcDbLine
 10
865.9652548429
 20
269.5670246245
 30
0.0
 11
857.5799720329
 21
231.7121504545
 31
0.0
  0
LINE
  5
134
330
1F
100
AcDbEntity
  8
0
  6
SLD-Durchgehend
 62
     7
370
    25
100
AcDbLine
 10
857.5799720329
 20
231.7121504545
 30
0.0
 11
856.4216868829
 21
219.1346286745
 31
0.0
  0
LINE
  5
135
330
1F
100
AcDbEntity
  8
0
  6
SLD-Durchgehend
 62
     7
370
    25
100
AcDbLine
 10
856.4216868829
 20
219.1346286745
 30
0.0
 11
840.001212582
 21
203.9708087669
 31
0.0
  0
LINE
  5
136
330
1F
100
AcDbEntity
  8
0
  6
SLD-Durchgehend
 62
     7
370
    25
100
AcDbLine
 10
840.001212582
 20
203.9708087669
 30
0.0
 11
836.0942401398
 21
184.9568762152
 31
0.0
  0
LINE
  5
137
330
1F
100
AcDbEntity
  8
0
  6
SLD-Durchgehend
 62
     7
370
    25
100
AcDbLine
 10
836.0942401398
 20
184.9568762152
 30
0.0
 11
790.5128949815
 21
180.5289741141
 31
0.0
  0
LINE
  5
138
330
1F
100
AcDbEntity
  8
0
  6
SLD-Durchgehend
 62
     7
370
    25
100
AcDbLine
 10
790.5128949815
 20
180.5289741141
 30
0.0
 11
757.954791297
 21
182.7429251646
 31
0.0
  0
LINE
  5
139
330
1F
100
AcDbEntity
  8
0
  6
SLD-Durchgehend
 62
     7
370
    25
100
AcDbLine
 10
757.954791297
 20
182.7429251646
 30
0.0
 11
706.6432198902
 21
181.6359496394
 31
0.0
  0
LINE
  5
13A
330
1F
100
AcDbEntity
  8
0
  6
SLD-Durchgehend
 62
     7
370
    25
100
AcDbLine
 10
706.6432198902
 20
181.6359496394
 30
0.0
 11
665.3048532229
 21
185.5070232745
 31
0.0
  0
LINE
  5
13B
330
1F
100
AcDbEntity
  8
0
  6
SLD-Durchgehend
 62
     7
370
    25
100
AcDbLine
 10
665.3048532229
 20
185.5070232745
 30
0.0
 11
656.8980055129
 21
183.9158295745
 31
0.0
  0
LINE
  5
13C
330
1F
100
AcDbEntity
  8
0
  6
SLD-Durchgehend
 62
     7
370
    25
100
AcDbLine
 10
656.8980055129
 20
183.9158295745
 30
0.0
 11
618.0692749129
 21
181.2284707045
 31
0.0
  0
LINE
  5
13D
330
1F
100
AcDbEntity
  8
0
  6
SLD-Durchgehend
 62
     7
370
    25
100
AcDbLine
 10
618.0692749129
 20
181.2284707045
 30
0.0
 11
577.2461298473
 21
175.1872742548
 31
0.0
  0
LINE
  5
13E
330
1F
100
AcDbEntity
  8
0
  6
SLD-Durchgehend
 62
     7
370
    25
100
AcDbLine
 10
577.2461298473
 20
175.1872742548
 30
0.0
 11
543.9496955566
 21
178.2078724796
 31
0.0
  0
LINE
  5
13F
330
1F
100
AcDbEntity
  8
0
  6
SLD-Durchgehend
 62
     7
370
    25
100
AcDbLine
 10
543.9496955566
 20
178.2078724796
 30
0.0
 11
504.3471184079
 21
176.6975733672
 31
0.0
  0
LINE
  5
140
330
1F
100
AcDbEntity
  8
0
  6
SLD-Durchgehend
 62
     7
370
    25
100
AcDbLine
 10
504.3471184079
 20
176.6975733672
 30
0.0
 11
448.8530612567
 21
185.5070232745
 31
0.0
  0
LINE
  5
141
330
1F
100
AcDbEntity
  8
0
  6
SLD-Durchgehend
 62
     7
370
    25
100
AcDbLine
 10
448.8530612567
 20
185.5070232745
 30
0.0
 11
425.646455539
 21
194.105702829
 31
0.0
  0
LINE
  5
142
330
1F
100
AcDbEntity
  8
0
  6
SLD-Durchgehend
 62
     7
370
    25
100
AcDbLine
 10
425.646455539
 20
194.105702829
 30
0.0
 11
368.445532079
 21
199.294877332
 31
0.0
  0
LINE
  5
143
330
1F
100
AcDbEntity
  8
0
  6
SLD-Durchgehend
 62
     7
370
    25
100
AcDbLine
 10
368.445532079
 20
199.294877332
 30
0.0
 11
356.0891764429
 21
202.1915245334
 31
0.0
  0
LINE
  5
144
330
1F
100
AcDbEntity
  8
0
  6
SLD-Durchgehend
 62
     7
370
    25
100
AcDbLine
 10
356.0891764429
 20
202.1915245334
 30
0.0
 11
304.2118120268
 21
195.316044249
 31
0.0
  0
LINE
  5
145
330
1F
100
AcDbEntity
  8
0
  6
SLD-Durchgehend
 62
     7
370
    25
100
AcDbLine
 10
304.2118120268
 20
195.316044249
 30
0.0
 11
270.0108498016
 21
185.5070232745
 31
0.0
  0
LINE
  5
146
330
1F
100
AcDbEntity
  8
0
  6
SLD-Durchgehend
 62
     7
370
    25
100
AcDbLine
 10
270.0108498016
 20
185.5070232745
 30
0.0
 11
242.6533256244
 21
189.8499160309
 31
0.0
  0
LINE
  5
147
330
1F
100
AcDbEntity
  8
0
  6
SLD-Durchgehend
 62
     7
370
    25
100
AcDbLine
 10
242.6533256244
 20
189.8499160309
 30
0.0
 11
175.5040909877
 21
185.5070232745
 31
0.0
  0
LINE
  5
148
330
1F
100
AcDbEntity
  8
0
  6
SLD-Durchgehend
 62
     7
370
    25
100
AcDbLine
 10
175.5040909877
 20
185.5070232745
 30
0.0
 11
143.849307355
 21
184.9568762152
 31
0.0
  0
LINE
  5
149
330
1F
100
AcDbEntity
  8
0
  6
SLD-Durchgehend
 62
     7
370
    25
100
AcDbLine
 10
143.849307355
 20
184.9568762152
 30
0.0
 11
122.2025821129
 21
197.4248289445
 31
0.0
  0
LINE
  5
14A
330
1F
100
AcDbEntity
  8
0
  6
SLD-Durchgehend
 62
     7
370
    25
100
AcDbLine
 10
122.2025821129
 20
197.4248289445
 30
0.0
 11
120.6896821129
 21
206.8388461345
 31
0.0
  0
LINE
  5
14B
330
1F
100
AcDbEntity
  8
0
  6
SLD-Durchgehend
 62
     7
370
    25
100
AcDbLine
 10
120.6896821129
 20
206.8388461345
 30
0.0
 11
124.8395824729
 21
271.0241078845
 31
0.0
  0
LINE
  5
14C
330
1F
100
AcDbEntity
  8
0
  6
SLD-Durchgehend
 62
     7
370
    25
100
AcDbLine
 10
124.8395824729
 20
271.0241078845
 30
0.0
 11
112.9154803129
 21
321.5609490145
 31
0.0
  0
LINE
  5
14D
330
1F
100
AcDbEntity
  8
0
  6
SLD-Durchgehend
 62
     7
370
    25
100
AcDbLine
 10
112.9154803129
 20
321.5609490145
 30
0.0
 11
111.9992779729
 21
329.6384214745
 31
0.0
  0
LINE
  5
14E
330
1F
100
AcDbEntity
  8
0
  6
SLD-Durchgehend
 62
     7
370
    25
100
AcDbLine
 10
111.9992779729
 20
329.6384214745
 30
0.0
 11
124.7837791429
 21
375.3512560345
 31
0.0
  0
LINE
  5
14F
330
1F
100
AcDbEntity
  8
0
  6
SLD-Durchgehend
 62
     7
370
    25
100
AcDbLine
 10
124.7837791429
 20
375.3512560345
 30
0.0
 11
124.7792797729
 21
427.5773524345
 31
0.0
  0
LINE
  5
150
330
1F
100
AcDbEntity
  8
0
  6
SLD-Durchgehend
 62
     7
370
    25
100
AcDbLine
 10
124.7792797729
 20
427.5773524345
 30
0.0
 11
136.3442810329
 21
476.4833568445
 31
0.0
  0
LINE
  5
151
330
1F
100
AcDbEntity
  8
0
  6
SLD-Durchgehend
 62
     7
370
    25
100
AcDbLine
 10
136.3442810329
 20
476.4833568445
 30
0.0
 11
136.1939768029
 21
531.2357186845
 31
0.0
  0
LINE
  5
152
330
1F
100
AcDbEntity
  8
0
  6
SLD-Durchgehend
 62
     7
370
    25
100
AcDbLine
 10
136.1939768029
 20
531.2357186845
 30
0.0
 11
150.8135782429
 21
588.8276277745
 31
0.0
  0
LINE
  5
153
330
1F
100
AcDbEntity
  8
0
  6
SLD-Durchgehend
 62
     7
370
    25
100
AcDbLine
 10
150.8135782429
 20
588.8276277745
 30
0.0
 11
143.2292836429
 21
607.8401445145
 31
0.0
  0
LINE
  5
154
330
1F
100
AcDbEntity
  8
0
  6
SLD-Durchgehend
 62
     7
370
    25
100
AcDbLine
 10
143.2292836429
 20
607.8401445145
 30
0.0
 11
141.9710727529
 21
634.4234644945
 31
0.0
  0
LINE
  5
155
330
1F
100
AcDbEntity
  8
0
  6
SLD-Durchgehend
 62
     7
370
    25
100
AcDbLine
 10
141.9710727529
 20
634.4234644945
 30
0.0
 11
152.3084806729
 21
663.5519324545
 31
0.0
  0
LINE
  5
156
330
1F
100
AcDbEntity
  8
0
  6
SLD-Durchgehend
 62
     7
370
    25
100
AcDbLine
 10
152.3084806729
 20
663.5519324545
 30
0.0
 11
157.5194763529
 21
689.6348594545
 31
0.0
  0
LINE
  5
157
330
1F
100
AcDbEntity
  8
0
  6
SLD-Durchgehend
 62
     7
370
    25
100
AcDbLine
 10
157.5194763529
 20
689.6348594545
 30
0.0
 11
158.3654852629
 21
701.6282498245
 31
0.0
  0
LINE
  5
158
330
1F
100
AcDbEntity
  8
0
  6
SLD-Durchgehend
 62
     7
370
    25
100
AcDbLine
 10
158.3654852629
 20
701.6282498245
 30
0.0
 11
157.6400818429
 21
706.9022237245
 31
0.0
  0
LINE
  5
159
330
1F
100
AcDbEntity
  8
0
  6
SLD-Durchgehend
 62
     7
370
    25
100
AcDbLine
 10
157.6400818429
 20
706.9022237245
 30
0.0
 11
163.7213739229
 21
765.2843384845
 31
0.0
  0
LINE
  5
15A
330
1F
100
AcDbEntity
  8
0
  6
SLD-Durchgehend
 62
     7
370
    25
100
AcDbLine
 10
163.7213739229
 20
765.2843384845
 30
0.0
 11
164.4206794129
 21
807.8381478445
 31
0.0
  0
LINE
  5
15B
330
1F
100
AcDbEntity
  8
0
  6
SLD-Durchgehend
 62
     7
370
    25
100
AcDbLine
 10
164.4206794129
 20
807.8381478445
 30
0.0
 11
162.9950853529
 21
815.6384407345
 31
0.0
  0
LINE
  5
15C
330
1F
100
AcDbEntity
  8
0
  6
SLD-Durchgehend
 62
     7
370
    25
100
AcDbLine
 10
162.9950853529
 20
815.6384407345
 30
0.0
 11
170.5433847229
 21
872.6660400145
 31
0.0
  0
LINE
  5
15D
330
1F
100
AcDbEntity
  8
0
  6
SLD-Durchgehend
 62
     7
370
    25
100
AcDbLine
 10
170.5433847229
 20
872.6660400145
 30
0.0
 11
176.5445726629
 21
892.6892399245
 31
0.0
  0
LINE
  5
15E
330
1F
100
AcDbEntity
  8
0
  6
SLD-Durchgehend
 62
     7
370
    25
100
AcDbLine
 10
176.5445726629
 20
892.6892399245
 30
0.0
 11
186.7667795929
 21
917.7434324545
 31
0.0
  0
LINE
  5
15F
330
1F
100
AcDbEntity
  8
0
  6
SLD-Durchgehend
 62
     7
370
    25
100
AcDbLine
 10
186.7667795929
 20
917.7434324545
 30
0.0
 11
184.9982785282
 21
969.1613524363
 31
0.0
  0
LINE
  5
160
330
1F
100
AcDbEntity
  8
0
  6
SLD-Durchgehend
 62
     7
370
    25
100
AcDbLine
 10
184.9982785282
 20
969.1613524363
 30
0.0
 11
184.9633561701
 21
970.4447914427
 31
0.0
  0
LINE
  5
161
330
1F
100
AcDbEntity
  8
0
  6
SLD-Durchgehend
 62
     7
370
    25
100
AcDbLine
 10
184.9633561701
 20
970.4447914427
 30
0.0
 11
185.0738766229
 21
971.6192482945
 31
0.0
  0
LINE
  5
162
330
1F
100
AcDbEntity
  8
0
  6
SLD-Durchgehend
 62
     7
370
    25
100
AcDbLine
 10
185.0738766229
 20
971.6192482945
 30
0.0
 11
197.6081745529
 21
1016.2403433445
 31
0.0
  0
LINE
  5
163
330
1F
100
AcDbEntity
  8
0
  6
SLD-Durchgehend
 62
     7
370
    25
100
AcDbLine
 10
197.6081745529
 20
1016.2403433445
 30
0.0
 11
207.2606804029
 21
1058.3621426245
 31
0.0
  0
LINE
  5
164
330
1F
100
AcDbEntity
  8
0
  6
SLD-Durchgehend
 62
     7
370
    25
100
AcDbLine
 10
207.2606804029
 20
1058.3621426245
 30
0.0
 11
205.8494763529
 21
1072.1861406445
 31
0.0
  0
LINE
  5
165
330
1F
100
AcDbEntity
  8
0
  6
SLD-Durchgehend
 62
     7
370
    25
100
AcDbLine
 10
205.8494763529
 20
1072.1861406445
 30
0.0
 11
218.3018731129
 21
1115.3555437045
 31
0.0
  0
LINE
  5
166
330
1F
100
AcDbEntity
  8
0
  6
SLD-Durchgehend
 62
     7
370
    25
100
AcDbLine
 10
218.3018731129
 20
1115.3555437045
 30
0.0
 11
221.0459741029
 21
1152.7352444245
 31
0.0
  0
LINE
  5
167
330
1F
100
AcDbEntity
  8
0
  6
SLD-Durchgehend
 62
     7
370
    25
100
AcDbLine
 10
221.0459741029
 20
1152.7352444245
 30
0.0
 11
226.6412767129
 21
1168.6562402845
 31
0.0
  0
LINE
  5
168
330
1F
100
AcDbEntity
  8
0
  6
SLD-Durchgehend
 62
     7
370
    25
100
AcDbLine
 10
226.6412767129
 20
1168.6562402845
 30
0.0
 11
230.0072746429
 21
1188.2672417245
 31
0.0
  0
LINE
  5
169
330
1F
100
AcDbEntity
  8
0
  6
SLD-Durchgehend
 62
     7
370
    25
100
AcDbLine
 10
230.0072746429
 20
1188.2672417245
 30
0.0
 11
225.9131776129
 21
1220.5358418145
 31
0.0
  0
LINE
  5
16A
330
1F
100
AcDbEntity
  8
0
  6
SLD-Durchgehend
 62
     7
370
    25
100
AcDbLine
 10
225.9131776129
 20
1220.5358418145
 30
0.0
 11
231.3842804929
 21
1250.9054421745
 31
0.0
  0
LINE
  5
16B
330
1F
100
AcDbEntity
  8
0
  6
SLD-Durchgehend
 62
     7
370
    25
100
AcDbLine
 10
231.3842804929
 20
1250.9054421745
 30
0.0
 11
231.2123777929
 21
1260.1403414545
 31
0.0
  0
LINE
  5
16C
330
1F
100
AcDbEntity
  8
0
  6
SLD-Durchgehend
 62
     7
370
    25
100
AcDbLine
 10
231.2123777929
 20
1260.1403414545
 30
0.0
 11
237.5429811229
 21
1282.4954404645
 31
0.0
  0
LINE
  5
16D
330
1F
100
AcDbEntity
  8
0
  6
SLD-Durchgehend
 62
     7
370
    25
100
AcDbLine
 10
237.5429811229
 20
1282.4954404645
 30
0.0
 11
245.2028738329
 21
1299.3992446945
 31
0.0
  0
LINE
  5
16E
330
1F
100
AcDbEntity
  8
0
  6
SLD-Durchgehend
 62
     7
370
    25
100
AcDbLine
 10
245.2028738329
 20
1299.3992446945
 30
0.0
 11
257.0589933112
 21
1344.9102961537
 31
0.0
  0
LINE
  5
16F
330
1F
100
AcDbEntity
  8
0
  6
SLD-Durchgehend
 62
     7
370
    25
100
AcDbLine
 10
257.0589933112
 20
1344.9102961537
 30
0.0
 11
257.1593838229
 21
1346.1335449645
 31
0.0
  0
LINE
  5
170
330
1F
100
AcDbEntity
  8
0
  6
SLD-Durchgehend
 62
     7
370
    25
100
AcDbLine
 10
257.1593838229
 20
1346.1335449645
 30
0.0
 11
261.0158907529
 21
1387.0214476645
 31
0.0
  0
LINE
  5
171
330
1F
100
AcDbEntity
  8
0
  6
SLD-Durchgehend
 62
     7
370
    25
100
AcDbLine
 10
261.0158907529
 20
1387.0214476645
 30
0.0
 11
274.2656813929
 21
1418.0327459545
 31
0.0
  0
LINE
  5
172
330
1F
100
AcDbEntity
  8
0
  6
SLD-Durchgehend
 62
     7
370
    25
100
AcDbLine
 10
274.2656813929
 20
1418.0327459545
 30
0.0
 11
283.9379685229
 21
1453.0760347045
 31
0.0
  0
LINE
  5
173
330
1F
100
AcDbEntity
  8
0
  6
SLD-Durchgehend
 62
     7
370
    25
100
AcDbLine
 10
283.9379685229
 20
1453.0760347045
 30
0.0
 11
286.5092681629
 21
1468.8206552245
 31
0.0
  0
LINE
  5
174
330
1F
100
AcDbEntity
  8
0
  6
SLD-Durchgehend
 62
     7
370
    25
100
AcDbLine
 10
286.5092681629
 20
1468.8206552245
 30
0.0
 11
302.8604703229
 21
1506.5702527045
 31
0.0
  0
LINE
  5
175
330
1F
100
AcDbEntity
  8
0
  6
SLD-Durchgehend
 62
     7
370
    25
100
AcDbLine
 10
302.8604703229
 20
1506.5702527045
 30
0.0
 11
302.3159819329
 21
1511.0072433445
 31
0.0
  0
CIRCLE
  5
176
330
1F
100
AcDbEntity
  8
0
  6
SLD-Durchgehend
 62
     7
370
    25
100
AcDbCircle
 10
623.9170062968
 20
1183.2900610245
 30
0.0
 40
6.124999999999886
  0
CIRCLE
  5
177
330
1F
100
AcDbEntity
  8
0
  6
SLD-Durchgehend
 62
     7
370
    25
100
AcDbCircle
 10
487.5498576057
 20
1779.0441480697
 30
0.0
 40
6.124999999999943
  0
CIRCLE
  5
178
330
1F
100
AcDbEntity
  8
0
  6
SLD-Durchgehend
 62
     7
370
    25
100
AcDbCircle
 10
761.8454473443
 20
285.1943375131
 30
0.0
 40
6.124999999999886
  0
CIRCLE
  5
179
330
1F
100
AcDbEntity
  8
0
  6
SLD-Durchgehend
 62
     7
370
    25
100
AcDbCircle
 10
699.2777383738
 20
1134.4374964812
 30
0.0
 40
6.125
  0
CIRCLE
  5
17A
330
1F
100
AcDbEntity
  8
0
  6
SLD-Durchgehend
 62
     7
370
    25
100
AcDbCircle
 10
512.6048655759
 20
285.1943375131
 30
0.0
 40
6.124999999999886
  0
CIRCLE
  5
17B
330
1F
100
AcDbEntity
  8
0
  6
SLD-Durchgehend
 62
     7
370
    25
100
AcDbCircle
 10
468.6251868697
 20
1890.9707750031
 30
0.0
 40
6.125
  0
CIRCLE
  5
17C
330
1F
100
AcDbEntity
  8
0
  6
SLD-Durchgehend
 62
     7
370
    25
100
AcDbCircle
 10
160.9876898994
 20
285.1943375131
 30
0.0
 40
6.125
  0
ENDSEC
  0
SECTION
  2
OBJECTS
  0
DICTIONARY
  5
C
330
0
100
AcDbDictionary
281
     1
  3
ACAD_DETAILVIEWSTYLE
350
184
  3
ACAD_GROUP
350
D
  3
ACAD_LAYOUT
350
1A
  3
ACAD_MATERIAL
350
43
  3
ACAD_MLEADERSTYLE
350
6B
  3
ACAD_MLINESTYLE
350
17
  3
ACAD_PLOTSETTINGS
350
19
  3
ACAD_PLOTSTYLENAME
350
E
  3
ACAD_SCALELIST
350
47
  3
ACAD_SECTIONVIEWSTYLE
350
185
  3
ACAD_TABLESTYLE
350
69
  3
ACAD_VISUALSTYLE
350
2A
  3
ACDB_RECOMPOSE_DATA
350
181
  3
AcDbVariableDictionary
350
17D
  0
SUN
  5
6D
330
29
100
AcDbSun
 90
        1
290
     0
 63
     7
421
 16777215
 40
1.0
291
     1
 91
  2455826
 92
 54000000
292
     0
 70
     2
 71
   256
280
     1
  0
DICTIONARY
  5
184
102
{ACAD_REACTORS
330
C
102
}
330
C
100
AcDbDictionary
281
     1
  0
DICTIONARY
  5
D
102
{ACAD_REACTORS
330
C
102
}
330
C
100
AcDbDictionary
281
     1
  0
DICTIONARY
  5
1A
102
{ACAD_REACTORS
330
C
102
}
330
C
100
AcDbDictionary
281
     1
  3
Layout1
350
1E
  3
Layout2
350
26
  3
Model
350
22
  0
DICTIONARY
  5
43
102
{ACAD_REACTORS
330
C
102
}
330
C
100
AcDbDictionary
281
     1
  3
ByBlock
350
45
  3
ByLayer
350
44
  3
Global
350
46
  0
DICTIONARY
  5
6B
102
{ACAD_REACTORS
330
C
102
}
330
C
100
AcDbDictionary
281
     1
  3
Standard
350
6C
  0
DICTIONARY
  5
17
102
{ACAD_REACTORS
330
C
102
}
330
C
100
AcDbDictionary
281
     1
  3
Standard
350
18
  0
DICTIONARY
  5
19
102
{ACAD_REACTORS
330
C
102
}
330
C
100
AcDbDictionary
281
     1
  0
ACDBDICTIONARYWDFLT
  5
E
102
{ACAD_REACTORS
330
C
102
}
330
C
100
AcDbDictionary
281
     1
  3
Normal
350
F
100
AcDbDictionaryWithDefault
340
F
  0
DICTIONARY
  5
47
102
{ACAD_REACTORS
330
C
102
}
330
C
100
AcDbDictionary
281
     1
  3
A0
350
48
  3
A1
350
49
  3
A2
350
4A
  3
A3
350
4B
  3
A4
350
4C
  3
A5
350
4D
  3
A6
350
4E
  3
A7
350
4F
  3
A8
350
50
  3
A9
350
51
  3
B0
350
52
  3
B1
350
53
  3
B2
350
54
  3
B3
350
55
  3
B4
350
56
  3
B5
350
57
  3
B6
350
58
  3
B7
350
59
  3
B8
350
5A
  3
B9
350
5B
  3
C0
350
5C
  3
C1
350
5D
  3
C2
350
5E
  3
C3
350
5F
  3
C4
350
60
  3
C5
350
61
  3
C6
350
62
  3
C7
350
63
  3
C8
350
64
  3
C9
350
65
  3
D0
350
66
  3
D1
350
67
  3
D2
350
68
  0
DICTIONARY
  5
185
102
{ACAD_REACTORS
330
C
102
}
330
C
100
AcDbDictionary
281
     1
  0
DICTIONARY
  5
69
102
{ACAD_REACTORS
330
C
102
}
330
C
100
AcDbDictionary
281
     1
  3
Standard
350
6A
  0
DICTIONARY
  5
2A
102
{ACAD_REACTORS
330
C
102
}
330
C
100
AcDbDictionary
281
     1
  3
2dWireframe
350
2F
  3
Basic
350
32
  3
Brighten
350
36
  3
ColorChange
350
3A
  3
Conceptual
350
34
  3
Dim
350
35
  3
EdgeColorOff
350
3D
  3
Facepattern
350
39
  3
Flat
350
2B
  3
FlatWithEdges
350
2C
  3
Gouraud
350
2D
  3
GouraudWithEdges
350
2E
  3
Hidden
350
31
  3
JitterOff
350
3B
  3
Linepattern
350
38
  3
OverhangOff
350
3C
  3
Realistic
350
33
  3
Shaded
350
42
  3
Shaded with edges
350
41
  3
Shades of Gray
350
3E
  3
Sketchy
350
3F
  3
Thicken
350
37
  3
Wireframe
350
30
  3
X-Ray
350
40
  0
XRECORD
  5
181
102
{ACAD_REACTORS
330
C
102
}
330
C
100
AcDbXrecord
280
     1
 90
        1
330
6A
  0
DICTIONARY
  5
17D
102
{ACAD_REACTORS
330
C
102
}
330
C
100
AcDbDictionary
281
     1
  3
CANNOSCALE
350
17E
  3
CENTEREXE
350
186
  3
CENTERLTYPEFILE
350
187
  3
CMLEADERSTYLE
350
183
  3
CTABLESTYLE
350
182
  0
LAYOUT
  5
1E
102
{ACAD_REACTORS
330
1A
102
}
330
1A
100
AcDbPlotSettings
  1

  2
none_device
  4

  6

 40
0.0
 41
0.0
 42
0.0
 43
0.0
 44
0.0
 45
0.0
 46
0.0
 47
0.0
 48
0.0
 49
0.0
140
0.0
141
0.0
142
1.0
143
1.0
 70
   688
 72
     1
 73
     0
 74
     5
  7

 75
    16
 76
     0
 77
     2
 78
   300
147
1.0
148
0.0
149
0.0
100
AcDbLayout
  1
Layout1
 70
     1
 71
     1
 10
0.0
 20
0.0
 11
420.0
 21
297.0
 12
0.0
 22
0.0
 32
0.0
 14
1.0000000000E+20
 24
1.0000000000E+20
 34
1.0000000000E+20
 15
-1.0000000000E+20
 25
-1.0000000000E+20
 35
-1.0000000000E+20
146
0.0
 13
0.0
 23
0.0
 33
0.0
 16
1.0
 26
0.0
 36
0.0
 17
0.0
 27
1.0
 37
0.0
 76
     0
330
1B
  0
LAYOUT
  5
26
102
{ACAD_REACTORS
330
1A
102
}
330
1A
100
AcDbPlotSettings
  1

  2
none_device
  4

  6

 40
0.0
 41
0.0
 42
0.0
 43
0.0
 44
0.0
 45
0.0
 46
0.0
 47
0.0
 48
0.0
 49
0.0
140
0.0
141
0.0
142
1.0
143
1.0
 70
   688
 72
     1
 73
     0
 74
     5
  7

 75
    16
 76
     0
 77
     2
 78
   300
147
1.0
148
0.0
149
0.0
100
AcDbLayout
  1
Layout2
 70
     1
 71
     2
 10
0.0
 20
0.0
 11
0.0
 21
0.0
 12
0.0
 22
0.0
 32
0.0
 14
0.0
 24
0.0
 34
0.0
 15
0.0
 25
0.0
 35
0.0
146
0.0
 13
0.0
 23
0.0
 33
0.0
 16
1.0
 26
0.0
 36
0.0
 17
0.0
 27
1.0
 37
0.0
 76
     0
330
23
  0
LAYOUT
  5
22
102
{ACAD_REACTORS
330
1A
102
}
330
1A
100
AcDbPlotSettings
  1

  2
none_device
  4
Letter_(8.50_x_11.00_Inches)
  6

 40
6.35
 41
6.35
 42
6.35000508
 43
6.35000508
 44
215.9
 45
279.4
 46
0.0
 47
0.0
 48
0.0
 49
0.0
140
0.0
141
0.0
142
1.0
143
1.0
 70
  1712
 72
     1
 73
     0
 74
     0
  7

 75
     0
 76
     0
 77
     2
 78
   300
147
1.0
148
0.0
149
0.0
100
AcDbLayout
  1
Model
 70
     1
 71
     0
 10
0.0
 20
0.0
 11
1000.0
 21
2100.0
 12
0.0
 22
0.0
 32
0.0
 14
0.0
 24
0.0
 34
0.0
 15
1000.0
 25
2100.0
 35
0.0
146
0.0
 13
0.0
 23
0.0
 33
0.0
 16
1.0
 26
0.0
 36
0.0
 17
0.0
 27
1.0
 37
0.0
 76
     0
330
1F
331
29
  0
MATERIAL
  5
45
102
{ACAD_REACTORS
330
43
102
}
330
43
100
AcDbMaterial
  1
ByBlock
 72
     1
 94
      127
  0
MATERIAL
  5
44
102
{ACAD_REACTORS
330
43
102
}
330
43
100
AcDbMaterial
  1
ByLayer
 72
     1
 94
      127
  0
MATERIAL
  5
46
102
{ACAD_REACTORS
330
43
102
}
330
43
100
AcDbMaterial
  1
Global
 72
     1
 94
      127
  0
MLEADERSTYLE
  5
6C
102
{ACAD_REACTORS
330
6B
102
}
330
6B
100
AcDbMLeaderStyle
179
     2
170
     2
171
     1
172
     0
 90
        2
 40
0.0
 41
0.0
173
     1
 91
-1056964608
340
14
 92
       -2
290
     1
 42
2.0
291
     1
 43
8.0
  3
Standard
341
0
 44
4.0
300

342
11
174
     1
178
     6
175
     1
176
     0
 93
-1056964608
 45
4.0
292
     0
297
     0
 46
4.0
343
0
 94
-1056964608
 47
1.0
 49
1.0
140
1.0
293
     1
141
0.0
294
     1
177
     0
142
1.0
295
     0
296
     0
143
3.75
271
     0
272
     9
273
     9
298
     0
  0
MLINESTYLE
  5
18
102
{ACAD_REACTORS
330
17
102
}
330
17
100
AcDbMlineStyle
  2
Standard
 70
     0
  3

 62
   256
 51
90.0
 52
90.0
 71
     2
 49
0.5
 62
   256
  6
BYLAYER
 49
-0.5
 62
   256
  6
BYLAYER
  0
ACDBPLACEHOLDER
  5
F
102
{ACAD_REACTORS
330
E
102
}
330
E
  0
SCALE
  5
48
102
{ACAD_REACTORS
330
47
102
}
330
47
100
AcDbScale
 70
     0
300
1:1
140
1.0
141
1.0
290
     1
  0
SCALE
  5
49
102
{ACAD_REACTORS
330
47
102
}
330
47
100
AcDbScale
 70
     0
300
1:2
140
1.0
141
2.0
290
     0
  0
SCALE
  5
4A
102
{ACAD_REACTORS
330
47
102
}
330
47
100
AcDbScale
 70
     0
300
1:4
140
1.0
141
4.0
290
     0
  0
SCALE
  5
4B
102
{ACAD_REACTORS
330
47
102
}
330
47
100
AcDbScale
 70
     0
300
1:5
140
1.0
141
5.0
290
     0
  0
SCALE
  5
4C
102
{ACAD_REACTORS
330
47
102
}
330
47
100
AcDbScale
 70
     0
300
1:8
140
1.0
141
8.0
290
     0
  0
SCALE
  5
4D
102
{ACAD_REACTORS
330
47
102
}
330
47
100
AcDbScale
 70
     0
300
1:10
140
1.0
141
10.0
290
     0
  0
SCALE
  5
4E
102
{ACAD_REACTORS
330
47
102
}
330
47
100
AcDbScale
 70
     0
300
1:16
140
1.0
141
16.0
290
     0
  0
SCALE
  5
4F
102
{ACAD_REACTORS
330
47
102
}
330
47
100
AcDbScale
 70
     0
300
1:20
140
1.0
141
20.0
290
     0
  0
SCALE
  5
50
102
{ACAD_REACTORS
330
47
102
}
330
47
100
AcDbScale
 70
     0
300
1:30
140
1.0
141
30.0
290
     0
  0
SCALE
  5
51
102
{ACAD_REACTORS
330
47
102
}
330
47
100
AcDbScale
 70
     0
300
1:40
140
1.0
141
40.0
290
     0
  0
SCALE
  5
52
102
{ACAD_REACTORS
330
47
102
}
330
47
100
AcDbScale
 70
     0
300
1:50
140
1.0
141
50.0
290
     0
  0
SCALE
  5
53
102
{ACAD_REACTORS
330
47
102
}
330
47
100
AcDbScale
 70
     0
300
1:100
140
1.0
141
100.0
290
     0
  0
SCALE
  5
54
102
{ACAD_REACTORS
330
47
102
}
330
47
100
AcDbScale
 70
     0
300
2:1
140
2.0
141
1.0
290
     0
  0
SCALE
  5
55
102
{ACAD_REACTORS
330
47
102
}
330
47
100
AcDbScale
 70
     0
300
4:1
140
4.0
141
1.0
290
     0
  0
SCALE
  5
56
102
{ACAD_REACTORS
330
47
102
}
330
47
100
AcDbScale
 70
     0
300
8:1
140
8.0
141
1.0
290
     0
  0
SCALE
  5
57
102
{ACAD_REACTORS
330
47
102
}
330
47
100
AcDbScale
 70
     0
300
10:1
140
10.0
141
1.0
290
     0
  0
SCALE
  5
58
102
{ACAD_REACTORS
330
47
102
}
330
47
100
AcDbScale
 70
     0
300
100:1
140
100.0
141
1.0
290
     0
  0
SCALE
  5
59
102
{ACAD_REACTORS
330
47
102
}
330
47
100
AcDbScale
 70
     0
300
1/128" = 1'-0"
140
0.0078125
141
12.0
290
     0
  0
SCALE
  5
5A
102
{ACAD_REACTORS
330
47
102
}
330
47
100
AcDbScale
 70
     0
300
1/64" = 1'-0"
140
0.015625
141
12.0
290
     0
  0
SCALE
  5
5B
102
{ACAD_REACTORS
330
47
102
}
330
47
100
AcDbScale
 70
     0
300
1/32" = 1'-0"
140
0.03125
141
12.0
290
     0
  0
SCALE
  5
5C
102
{ACAD_REACTORS
330
47
102
}
330
47
100
AcDbScale
 70
     0
300
1/16" = 1'-0"
140
0.0625
141
12.0
290
     0
  0
SCALE
  5
5D
102
{ACAD_REACTORS
330
47
102
}
330
47
100
AcDbScale
 70
     0
300
3/32" = 1'-0"
140
0.09375
141
12.0
290
     0
  0
SCALE
  5
5E
102
{ACAD_REACTORS
330
47
102
}
330
47
100
AcDbScale
 70
     0
300
1/8" = 1'-0"
140
0.125
141
12.0
290
     0
  0
SCALE
  5
5F
102
{ACAD_REACTORS
330
47
102
}
330
47
100
AcDbScale
 70
     0
300
3/16" = 1'-0"
140
0.1875
141
12.0
290
     0
  0
SCALE
  5
60
102
{ACAD_REACTORS
330
47
102
}
330
47
100
AcDbScale
 70
     0
300
1/4" = 1'-0"
140
0.25
141
12.0
290
     0
  0
SCALE
  5
61
102
{ACAD_REACTORS
330
47
102
}
330
47
100
AcDbScale
 70
     0
300
3/8" = 1'-0"
140
0.375
141
12.0
290
     0
  0
SCALE
  5
62
102
{ACAD_REACTORS
330
47
102
}
330
47
100
AcDbScale
 70
     0
300
1/2" = 1'-0"
140
0.5
141
12.0
290
     0
  0
SCALE
  5
63
102
{ACAD_REACTORS
330
47
102
}
330
47
100
AcDbScale
 70
     0
300
3/4" = 1'-0"
140
0.75
141
12.0
290
     0
  0
SCALE
  5
64
102
{ACAD_REACTORS
330
47
102
}
330
47
100
AcDbScale
 70
     0
300
1" = 1'-0"
140
1.0
141
12.0
290
     0
  0
SCALE
  5
65
102
{ACAD_REACTORS
330
47
102
}
330
47
100
AcDbScale
 70
     0
300
1-1/2" = 1'-0"
140
1.5
141
12.0
290
     0
  0
SCALE
  5
66
102
{ACAD_REACTORS
330
47
102
}
330
47
100
AcDbScale
 70
     0
300
3" = 1'-0"
140
3.0
141
12.0
290
     0
  0
SCALE
  5
67
102
{ACAD_REACTORS
330
47
102
}
330
47
100
AcDbScale
 70
     0
300
6" = 1'-0"
140
6.0
141
12.0
290
     0
  0
SCALE
  5
68
102
{ACAD_REACTORS
330
47
102
}
330
47
100
AcDbScale
 70
     0
300
1'-0" = 1'-0"
140
12.0
141
12.0
290
     0
  0
TABLESTYLE
  5
6A
102
{ACAD_REACTORS
330
69
102
}
102
{ACAD_XDICTIONARY
360
17F
102
}
330
69
100
AcDbTableStyle
  3
Standard
 70
     0
 71
     0
 40
0.06
 41
0.06
280
     0
281
     0
  7
Standard
140
4.5
170
     2
 62
     0
 63
   257
283
     0
 90
        4
 91
        0
  1

274
    -2
284
     1
 64
     0
275
    -2
285
     1
 65
     0
276
    -2
286
     1
 66
     0
277
    -2
287
     1
 67
     0
278
    -2
288
     1
 68
     0
279
    -2
289
     1
 69
     0
  7
Standard
140
6.0
170
     5
 62
     0
 63
   257
283
     0
 90
        4
 91
        0
  1

274
    -2
284
     1
 64
     0
275
    -2
285
     1
 65
     0
276
    -2
286
     1
 66
     0
277
    -2
287
     1
 67
     0
278
    -2
288
     1
 68
     0
279
    -2
289
     1
 69
     0
  7
Standard
140
4.5
170
     5
 62
     0
 63
   257
283
     0
 90
        4
 91
        0
  1

274
    -2
284
     1
 64
     0
275
    -2
285
     1
 65
     0
276
    -2
286
     1
 66
     0
277
    -2
287
     1
 67
     0
278
    -2
288
     1
 68
     0
279
    -2
289
     1
 69
     0
  0
VISUALSTYLE
  5
2F
102
{ACAD_REACTORS
330
2A
102
}
330
2A
100
AcDbVisualStyle
  2
2dWireframe
 70
     4
177
     3
291
     0
 70
    58
 90
        0
176
     1
 90
        2
176
     1
 90
        0
176
     1
 90
        0
176
     1
 40
0.6
176
     1
 40
30.0
176
     1
 62
     7
420
 16777215
176
     1
 90
        1
176
     1
 90
        4
176
     1
 62
     7
176
     1
 62
   257
176
     1
 90
        1
176
     1
 90
        1
176
     1
 40
1.0
176
     1
 90
        0
176
     1
 62
   257
176
     1
 40
1.0
176
     1
 90
        1
176
     1
 90
        6
176
     1
 90
        2
176
     1
 62
     7
176
     1
 90
        5
176
     1
 90
        0
176
     1
 90
        0
176
     1
290
     0
176
     1
 90
        1
176
     1
 40
0.0
176
     1
 90
        0
176
     1
290
     1
176
     1
290
     1
176
     1
290
     0
176
     1
290
     0
176
     1
290
     0
176
     1
290
     0
176
     1
290
     0
176
     1
290
     0
176
     1
290
     0
176
     1
 90
       50
176
     1
 40
0.0
176
     1
 40
1.0
176
     1
 90
        0
176
     1
 62
    18
420
        0
176
     1
 90
       50
176
     1
 90
        3
176
     1
 62
     5
420
      255
176
     1
290
     0
176
     1
 90
       50
176
     1
 90
       50
176
     1
 90
       50
176
     1
290
     0
176
     1
 90
       50
176
     1
 62
   256
176
     0
 40
1.0
176
     0
 90
        2
176
     1
  1
strokes_ogs.tif
176
     1
290
     0
176
     1
 40
1.0
176
     1
 40
1.0
176
     1
  0
VISUALSTYLE
  5
32
102
{ACAD_REACTORS
330
2A
102
}
330
2A
100
AcDbVisualStyle
  2
Basic
 70
     7
177
     3
291
     1
 70
    58
 90
        1
176
     1
 90
        0
176
     1
 90
        1
176
     1
 90
        0
176
     1
 40
0.6
176
     1
 40
30.0
176
     1
 62
     7
420
 16777215
176
     1
 90
        0
176
     1
 90
        4
176
     1
 62
     7
176
     1
 62
   257
176
     1
 90
        1
176
     1
 90
        1
176
     1
 40
1.0
176
     1
 90
        8
176
     1
 62
     7
176
     1
 40
1.0
176
     1
 90
        1
176
     1
 90
        6
176
     1
 90
        2
176
     1
 62
     7
176
     1
 90
        5
176
     1
 90
        0
176
     1
 90
        0
176
     1
290
     0
176
     1
 90
        1
176
     1
 40
0.0
176
     1
 90
        0
176
     1
290
     0
176
     1
290
     1
176
     1
290
     1
176
     1
290
     0
176
     1
290
     0
176
     1
290
     0
176
     1
290
     0
176
     1
290
     0
176
     1
290
     0
176
     1
 90
       50
176
     1
 40
0.0
176
     1
 40
1.0
176
     1
 90
        0
176
     1
 62
    18
420
        0
176
     1
 90
       50
176
     1
 90
        3
176
     1
 62
     5
420
      255
176
     1
290
     0
176
     1
 90
       50
176
     1
 90
       50
176
     1
 90
       50
176
     1
290
     0
176
     1
 90
       50
176
     1
 62
   256
176
     0
 40
1.0
176
     0
 90
        2
176
     1
  1
strokes_ogs.tif
176
     1
290
     0
176
     1
 40
1.0
176
     1
 40
1.0
176
     1
  0
VISUALSTYLE
  5
36
102
{ACAD_REACTORS
330
2A
102
}
330
2A
100
AcDbVisualStyle
  2
Brighten
 70
    12
177
     3
291
     1
 70
    58
 90
        2
176
     1
 90
        2
176
     1
 90
        0
176
     1
 90
        0
176
     1
 40
0.6
176
     1
 40
30.0
176
     1
 62
     7
420
 16777215
176
     1
 90
        1
176
     1
 90
        4
176
     1
 62
     7
176
     1
 62
   257
176
     1
 90
        1
176
     1
 90
        1
176
     1
 40
1.0
176
     1
 90
        8
176
     1
 62
     7
176
     1
 40
1.0
176
     1
 90
        1
176
     1
 90
        6
176
     1
 90
        2
176
     1
 62
     7
176
     1
 90
        5
176
     1
 90
        0
176
     1
 90
        0
176
     1
290
     0
176
     1
 90
        1
176
     1
 40
50.0
176
     1
 90
        0
176
     1
290
     0
176
     1
290
     1
176
     1
290
     1
176
     1
290
     0
176
     1
290
     0
176
     1
290
     0
176
     1
290
     0
176
     1
290
     0
176
     1
290
     0
176
     1
 90
       50
176
     1
 40
0.0
176
     1
 40
1.0
176
     1
 90
        0
176
     1
 62
    18
420
        0
176
     1
 90
       50
176
     1
 90
        3
176
     1
 62
     5
420
      255
176
     1
290
     0
176
     1
 90
       50
176
     1
 90
       50
176
     1
 90
       50
176
     1
290
     0
176
     1
 90
       50
176
     1
 62
   256
176
     0
 40
1.0
176
     0
 90
        2
176
     1
  1
strokes_ogs.tif
176
     1
290
     0
176
     1
 40
1.0
176
     1
 40
1.0
176
     1
  0
VISUALSTYLE
  5
3A
102
{ACAD_REACTORS
330
2A
102
}
330
2A
100
AcDbVisualStyle
  2
ColorChange
 70
    16
177
     3
291
     1
 70
    58
 90
        2
176
     1
 90
        2
176
     1
 90
        3
176
     1
 90
        0
176
     1
 40
0.6
176
     1
 40
30.0
176
     1
 62
     8
420
  8421504
176
     1
 90
        1
176
     1
 90
        4
176
     1
 62
     7
176
     1
 62
   257
176
     1
 90
        1
176
     1
 90
        1
176
     1
 40
1.0
176
     1
 90
        8
176
     1
 62
     8
420
  8421504
176
     1
 40
1.0
176
     1
 90
        1
176
     1
 90
        6
176
     1
 90
        2
176
     1
 62
     7
176
     1
 90
        5
176
     1
 90
        0
176
     1
 90
        0
176
     1
290
     0
176
     1
 90
        1
176
     1
 40
0.0
176
     1
 90
        0
176
     1
290
     0
176
     1
290
     1
176
     1
290
     1
176
     1
290
     0
176
     1
290
     0
176
     1
290
     0
176
     1
290
     0
176
     1
290
     0
176
     1
290
     0
176
     1
 90
       50
176
     1
 40
0.0
176
     1
 40
1.0
176
     1
 90
        0
176
     1
 62
    18
420
        0
176
     1
 90
       50
176
     1
 90
        3
176
     1
 62
     5
420
      255
176
     1
290
     0
176
     1
 90
       50
176
     1
 90
       50
176
     1
 90
       50
176
     1
290
     0
176
     1
 90
       50
176
     1
 62
   256
176
     0
 40
1.0
176
     0
 90
        2
176
     1
  1
strokes_ogs.tif
176
     1
290
     0
176
     1
 40
1.0
176
     1
 40
1.0
176
     1
  0
VISUALSTYLE
  5
34
102
{ACAD_REACTORS
330
2A
102
}
330
2A
100
AcDbVisualStyle
  2
Conceptual
 70
     9
177
     3
291
     0
 70
    58
 90
        3
176
     1
 90
        2
176
     1
 90
        0
176
     1
 90
        0
176
     1
 40
0.6
176
     1
 40
30.0
176
     1
 62
     7
420
 16777215
176
     1
 90
        2
176
     1
 90
        2
176
     1
 62
     7
176
     1
 62
   257
176
     1
 90
        1
176
     1
 90
        1
176
     1
 40
179.0
176
     1
 90
        8
176
     1
 62
     7
176
     1
 40
1.0
176
     1
 90
        1
176
     1
 90
        6
176
     1
 90
        2
176
     1
 62
     7
176
     1
 90
        3
176
     1
 90
        0
176
     1
 90
        0
176
     1
290
     0
176
     1
 90
        1
176
     1
 40
0.0
176
     1
 90
        0
176
     1
290
     0
176
     1
290
     1
176
     1
290
     1
176
     1
290
     0
176
     1
290
     0
176
     1
290
     0
176
     1
290
     0
176
     1
290
     0
176
     1
290
     0
176
     1
 90
       50
176
     1
 40
0.0
176
     1
 40
1.0
176
     1
 90
        0
176
     1
 62
    18
420
        0
176
     1
 90
       50
176
     1
 90
        3
176
     1
 62
     5
420
      255
176
     1
290
     0
176
     1
 90
       50
176
     1
 90
       50
176
     1
 90
       50
176
     1
290
     0
176
     1
 90
       50
176
     1
 62
   256
176
     0
 40
1.0
176
     0
 90
        2
176
     1
  1
strokes_ogs.tif
176
     1
290
     0
176
     1
 40
1.0
176
     1
 40
1.0
176
     1
  0
VISUALSTYLE
  5
35
102
{ACAD_REACTORS
330
2A
102
}
330
2A
100
AcDbVisualStyle
  2
Dim
 70
    11
177
     3
291
     1
 70
    58
 90
        2
176
     1
 90
        2
176
     1
 90
        0
176
     1
 90
        0
176
     1
 40
0.6
176
     1
 40
30.0
176
     1
 62
     7
420
 16777215
176
     1
 90
        1
176
     1
 90
        4
176
     1
 62
     7
176
     1
 62
   257
176
     1
 90
        1
176
     1
 90
        1
176
     1
 40
1.0
176
     1
 90
        8
176
     1
 62
     7
176
     1
 40
1.0
176
     1
 90
        1
176
     1
 90
        6
176
     1
 90
        2
176
     1
 62
     7
176
     1
 90
        5
176
     1
 90
        0
176
     1
 90
        0
176
     1
290
     0
176
     1
 90
        1
176
     1
 40
-50.0
176
     1
 90
        0
176
     1
290
     0
176
     1
290
     1
176
     1
290
     1
176
     1
290
     0
176
     1
290
     0
176
     1
290
     0
176
     1
290
     0
176
     1
290
     0
176
     1
290
     0
176
     1
 90
       50
176
     1
 40
0.0
176
     1
 40
1.0
176
     1
 90
        0
176
     1
 62
    18
420
        0
176
     1
 90
       50
176
     1
 90
        3
176
     1
 62
     5
420
      255
176
     1
290
     0
176
     1
 90
       50
176
     1
 90
       50
176
     1
 90
       50
176
     1
290
     0
176
     1
 90
       50
176
     1
 62
   256
176
     0
 40
1.0
176
     0
 90
        2
176
     1
  1
strokes_ogs.tif
176
     1
290
     0
176
     1
 40
1.0
176
     1
 40
1.0
176
     1
  0
VISUALSTYLE
  5
3D
102
{ACAD_REACTORS
330
2A
102
}
330
2A
100
AcDbVisualStyle
  2
EdgeColorOff
 70
    22
177
     3
291
     1
 70
    58
 90
        2
176
     0
 90
        2
176
     0
 90
        0
176
     0
 90
        0
176
     0
 40
0.6
176
     0
 40
30.0
176
     0
 62
     7
420
 16777215
176
     0
 90
        1
176
     0
 90
        4
176
     0
 62
     7
176
     0
 62
   257
176
     0
 90
        1
176
     0
 90
        1
176
     0
 40
1.0
176
     0
 90
        8
176
     2
 62
     7
176
     0
 40
1.0
176
     0
 90
        1
176
     0
 90
        6
176
     0
 90
        2
176
     0
 62
     7
176
     0
 90
        5
176
     0
 90
        0
176
     0
 90
        0
176
     0
290
     0
176
     0
 90
        1
176
     0
 40
0.0
176
     0
 90
        0
176
     0
290
     0
176
     0
290
     1
176
     0
290
     1
176
     0
290
     0
176
     0
290
     0
176
     0
290
     0
176
     0
290
     0
176
     0
290
     0
176
     0
290
     0
176
     0
 90
       50
176
     0
 40
0.0
176
     0
 40
1.0
176
     0
 90
        0
176
     0
 62
    18
420
        0
176
     0
 90
       50
176
     0
 90
        3
176
     0
 62
     5
420
      255
176
     0
290
     0
176
     0
 90
       50
176
     0
 90
       50
176
     0
 90
       50
176
     0
290
     0
176
     0
 90
       50
176
     0
 62
   256
176
     0
 40
1.0
176
     0
 90
        2
176
     0
  1
strokes_ogs.tif
176
     0
290
     0
176
     0
 40
1.0
176
     0
 40
1.0
176
     0
  0
VISUALSTYLE
  5
39
102
{ACAD_REACTORS
330
2A
102
}
330
2A
100
AcDbVisualStyle
  2
Facepattern
 70
    15
177
     3
291
     1
 70
    58
 90
        2
176
     1
 90
        2
176
     1
 90
        0
176
     1
 90
        0
176
     1
 40
0.6
176
     1
 40
30.0
176
     1
 62
     7
420
 16777215
176
     1
 90
        1
176
     1
 90
        4
176
     1
 62
     7
176
     1
 62
   257
176
     1
 90
        1
176
     1
 90
        1
176
     1
 40
1.0
176
     1
 90
        8
176
     1
 62
     7
176
     1
 40
1.0
176
     1
 90
        1
176
     1
 90
        6
176
     1
 90
        2
176
     1
 62
     7
176
     1
 90
        5
176
     1
 90
        0
176
     1
 90
        0
176
     1
290
     0
176
     1
 90
        1
176
     1
 40
0.0
176
     1
 90
        0
176
     1
290
     0
176
     1
290
     1
176
     1
290
     1
176
     1
290
     0
176
     1
290
     0
176
     1
290
     0
176
     1
290
     0
176
     1
290
     0
176
     1
290
     0
176
     1
 90
       50
176
     1
 40
0.0
176
     1
 40
1.0
176
     1
 90
        0
176
     1
 62
    18
420
        0
176
     1
 90
       50
176
     1
 90
        3
176
     1
 62
     5
420
      255
176
     1
290
     0
176
     1
 90
       50
176
     1
 90
       50
176
     1
 90
       50
176
     1
290
     0
176
     1
 90
       50
176
     1
 62
   256
176
     0
 40
1.0
176
     0
 90
        2
176
     1
  1
strokes_ogs.tif
176
     1
290
     0
176
     1
 40
1.0
176
     1
 40
1.0
176
     1
  0
VISUALSTYLE
  5
2B
102
{ACAD_REACTORS
330
2A
102
}
330
2A
100
AcDbVisualStyle
  2
Flat
 70
     0
177
     3
291
     1
 70
    58
 90
        2
176
     1
 90
        1
176
     1
 90
        1
176
     1
 90
        2
176
     1
 40
0.6
176
     1
 40
30.0
176
     1
 62
     7
420
 16777215
176
     1
 90
        0
176
     1
 90
        0
176
     1
 62
     7
176
     1
 62
   257
176
     1
 90
        1
176
     1
 90
        1
176
     1
 40
1.0
176
     1
 90
        8
176
     1
 62
     7
176
     1
 40
1.0
176
     1
 90
        1
176
     1
 90
        6
176
     1
 90
        2
176
     1
 62
     7
176
     1
 90
        5
176
     1
 90
        0
176
     1
 90
        0
176
     1
290
     0
176
     1
 90
       13
176
     1
 40
0.0
176
     1
 90
        0
176
     1
290
     0
176
     1
290
     1
176
     1
290
     1
176
     1
290
     0
176
     1
290
     0
176
     1
290
     0
176
     1
290
     0
176
     1
290
     0
176
     1
290
     0
176
     1
 90
       50
176
     1
 40
0.0
176
     1
 40
1.0
176
     1
 90
        0
176
     1
 62
    18
420
        0
176
     1
 90
       50
176
     1
 90
        3
176
     1
 62
     5
420
      255
176
     1
290
     0
176
     1
 90
       50
176
     1
 90
       50
176
     1
 90
       50
176
     1
290
     0
176
     1
 90
       50
176
     1
 62
   256
176
     0
 40
1.0
176
     0
 90
        2
176
     1
  1
strokes_ogs.tif
176
     1
290
     0
176
     1
 40
1.0
176
     1
 40
1.0
176
     1
  0
VISUALSTYLE
  5
2C
102
{ACAD_REACTORS
330
2A
102
}
330
2A
100
AcDbVisualStyle
  2
FlatWithEdges
 70
     1
177
     3
291
     1
 70
    58
 90
        2
176
     1
 90
        1
176
     1
 90
        1
176
     1
 90
        2
176
     1
 40
0.6
176
     1
 40
30.0
176
     1
 62
     7
420
 16777215
176
     1
 90
        1
176
     1
 90
        0
176
     1
 62
     7
176
     1
 62
   257
176
     1
 90
        1
176
     1
 90
        1
176
     1
 40
1.0
176
     1
 90
        0
176
     1
 62
   257
176
     1
 40
1.0
176
     1
 90
        1
176
     1
 90
        6
176
     1
 90
        2
176
     1
 62
     7
176
     1
 90
        5
176
     1
 90
        0
176
     1
 90
        0
176
     1
290
     0
176
     1
 90
       13
176
     1
 40
0.0
176
     1
 90
        0
176
     1
290
     0
176
     1
290
     1
176
     1
290
     1
176
     1
290
     0
176
     1
290
     0
176
     1
290
     0
176
     1
290
     0
176
     1
290
     0
176
     1
290
     0
176
     1
 90
       50
176
     1
 40
0.0
176
     1
 40
1.0
176
     1
 90
        0
176
     1
 62
    18
420
        0
176
     1
 90
       50
176
     1
 90
        3
176
     1
 62
     5
420
      255
176
     1
290
     0
176
     1
 90
       50
176
     1
 90
       50
176
     1
 90
       50
176
     1
290
     0
176
     1
 90
       50
176
     1
 62
   256
176
     0
 40
1.0
176
     0
 90
        2
176
     1
  1
strokes_ogs.tif
176
     1
290
     0
176
     1
 40
1.0
176
     1
 40
1.0
176
     1
  0
VISUALSTYLE
  5
2D
102
{ACAD_REACTORS
330
2A
102
}
330
2A
100
AcDbVisualStyle
  2
Gouraud
 70
     2
177
     3
291
     1
 70
    58
 90
        2
176
     1
 90
        2
176
     1
 90
        1
176
     1
 90
        2
176
     1
 40
0.6
176
     1
 40
30.0
176
     1
 62
     7
420
 16777215
176
     1
 90
        0
176
     1
 90
        0
176
     1
 62
     7
176
     1
 62
   257
176
     1
 90
        1
176
     1
 90
        1
176
     1
 40
1.0
176
     1
 90
        0
176
     1
 62
     7
176
     1
 40
1.0
176
     1
 90
        1
176
     1
 90
        6
176
     1
 90
        2
176
     1
 62
     7
176
     1
 90
        5
176
     1
 90
        0
176
     1
 90
        0
176
     1
290
     0
176
     1
 90
       13
176
     1
 40
0.0
176
     1
 90
        0
176
     1
290
     0
176
     1
290
     1
176
     1
290
     1
176
     1
290
     0
176
     1
290
     0
176
     1
290
     0
176
     1
290
     0
176
     1
290
     0
176
     1
290
     0
176
     1
 90
       50
176
     1
 40
0.0
176
     1
 40
1.0
176
     1
 90
        0
176
     1
 62
    18
420
        0
176
     1
 90
       50
176
     1
 90
        3
176
     1
 62
     5
420
      255
176
     1
290
     0
176
     1
 90
       50
176
     1
 90
       50
176
     1
 90
       50
176
     1
290
     0
176
     1
 90
       50
176
     1
 62
   256
176
     0
 40
1.0
176
     0
 90
        2
176
     1
  1
strokes_ogs.tif
176
     1
290
     0
176
     1
 40
1.0
176
     1
 40
1.0
176
     1
  0
VISUALSTYLE
  5
2E
102
{ACAD_REACTORS
330
2A
102
}
330
2A
100
AcDbVisualStyle
  2
GouraudWithEdges
 70
     3
177
     3
291
     1
 70
    58
 90
        2
176
     1
 90
        2
176
     1
 90
        1
176
     1
 90
        2
176
     1
 40
0.6
176
     1
 40
30.0
176
     1
 62
     7
420
 16777215
176
     1
 90
        1
176
     1
 90
        0
176
     1
 62
     7
176
     1
 62
   257
176
     1
 90
        1
176
     1
 90
        1
176
     1
 40
1.0
176
     1
 90
        0
176
     1
 62
   257
176
     1
 40
1.0
176
     1
 90
        1
176
     1
 90
        6
176
     1
 90
        2
176
     1
 62
     7
176
     1
 90
        5
176
     1
 90
        0
176
     1
 90
        0
176
     1
290
     0
176
     1
 90
       13
176
     1
 40
0.0
176
     1
 90
        0
176
     1
290
     0
176
     1
290
     1
176
     1
290
     1
176
     1
290
     0
176
     1
290
     0
176
     1
290
     0
176
     1
290
     0
176
     1
290
     0
176
     1
290
     0
176
     1
 90
       50
176
     1
 40
0.0
176
     1
 40
1.0
176
     1
 90
        0
176
     1
 62
    18
420
        0
176
     1
 90
       50
176
     1
 90
        3
176
     1
 62
     5
420
      255
176
     1
290
     0
176
     1
 90
       50
176
     1
 90
       50
176
     1
 90
       50
176
     1
290
     0
176
     1
 90
       50
176
     1
 62
   256
176
     0
 40
1.0
176
     0
 90
        2
176
     1
  1
strokes_ogs.tif
176
     1
290
     0
176
     1
 40
1.0
176
     1
 40
1.0
176
     1
  0
VISUALSTYLE
  5
31
102
{ACAD_REACTORS
330
2A
102
}
330
2A
100
AcDbVisualStyle
  2
Hidden
 70
     6
177
     3
291
     0
 70
    58
 90
        1
176
     1
 90
        2
176
     1
 90
        2
176
     1
 90
        0
176
     1
 40
0.6
176
     1
 40
30.0
176
     1
 62
     7
420
 16777215
176
     1
 90
        2
176
     1
 90
        2
176
     1
 62
     7
176
     1
 62
   257
176
     1
 90
        2
176
     1
 90
        1
176
     1
 40
40.0
176
     1
 90
        0
176
     1
 62
   257
176
     1
 40
1.0
176
     1
 90
        1
176
     1
 90
        6
176
     1
 90
        2
176
     1
 62
     7
176
     1
 90
        3
176
     1
 90
        0
176
     1
 90
        0
176
     1
290
     0
176
     1
 90
        1
176
     1
 40
0.0
176
     1
 90
        0
176
     1
290
     0
176
     1
290
     1
176
     1
290
     1
176
     1
290
     0
176
     1
290
     0
176
     1
290
     0
176
     1
290
     0
176
     1
290
     0
176
     1
290
     0
176
     1
 90
       50
176
     1
 40
0.0
176
     1
 40
1.0
176
     1
 90
        0
176
     1
 62
    18
420
        0
176
     1
 90
       50
176
     1
 90
        3
176
     1
 62
     5
420
      255
176
     1
290
     0
176
     1
 90
       50
176
     1
 90
       50
176
     1
 90
       50
176
     1
290
     0
176
     1
 90
       50
176
     1
 62
   256
176
     0
 40
1.0
176
     0
 90
        2
176
     1
  1
strokes_ogs.tif
176
     1
290
     0
176
     1
 40
1.0
176
     1
 40
1.0
176
     1
  0
VISUALSTYLE
  5
3B
102
{ACAD_REACTORS
330
2A
102
}
330
2A
100
AcDbVisualStyle
  2
JitterOff
 70
    20
177
     3
291
     1
 70
    58
 90
        2
176
     0
 90
        2
176
     0
 90
        0
176
     0
 90
        0
176
     0
 40
0.6
176
     0
 40
30.0
176
     0
 62
     7
420
 16777215
176
     0
 90
        1
176
     0
 90
        4
176
     0
 62
     7
176
     0
 62
   257
176
     0
 90
        1
176
     0
 90
        1
176
     0
 40
1.0
176
     0
 90
       10
176
     2
 62
     7
176
     0
 40
1.0
176
     0
 90
        1
176
     0
 90
        6
176
     0
 90
        2
176
     0
 62
     7
176
     0
 90
        5
176
     0
 90
        0
176
     0
 90
        0
176
     0
290
     0
176
     0
 90
        1
176
     0
 40
0.0
176
     0
 90
        0
176
     0
290
     0
176
     0
290
     1
176
     0
290
     1
176
     0
290
     0
176
     0
290
     0
176
     0
290
     0
176
     0
290
     0
176
     0
290
     0
176
     0
290
     0
176
     0
 90
       50
176
     0
 40
0.0
176
     0
 40
1.0
176
     0
 90
        0
176
     0
 62
    18
420
        0
176
     0
 90
       50
176
     0
 90
        3
176
     0
 62
     5
420
      255
176
     0
290
     0
176
     0
 90
       50
176
     0
 90
       50
176
     0
 90
       50
176
     0
290
     0
176
     0
 90
       50
176
     0
 62
   256
176
     0
 40
1.0
176
     0
 90
        2
176
     0
  1
strokes_ogs.tif
176
     0
290
     0
176
     0
 40
1.0
176
     0
 40
1.0
176
     0
  0
VISUALSTYLE
  5
38
102
{ACAD_REACTORS
330
2A
102
}
330
2A
100
AcDbVisualStyle
  2
Linepattern
 70
    14
177
     3
291
     1
 70
    58
 90
        2
176
     1
 90
        2
176
     1
 90
        0
176
     1
 90
        0
176
     1
 40
0.6
176
     1
 40
30.0
176
     1
 62
     7
420
 16777215
176
     1
 90
        1
176
     1
 90
        4
176
     1
 62
     7
176
     1
 62
   257
176
     1
 90
        7
176
     1
 90
        7
176
     1
 40
1.0
176
     1
 90
        8
176
     1
 62
     7
176
     1
 40
1.0
176
     1
 90
        1
176
     1
 90
        6
176
     1
 90
        2
176
     1
 62
     7
176
     1
 90
        5
176
     1
 90
        0
176
     1
 90
        0
176
     1
290
     0
176
     1
 90
        1
176
     1
 40
0.0
176
     1
 90
        0
176
     1
290
     0
176
     1
290
     1
176
     1
290
     1
176
     1
290
     0
176
     1
290
     0
176
     1
290
     0
176
     1
290
     0
176
     1
290
     0
176
     1
290
     0
176
     1
 90
       50
176
     1
 40
0.0
176
     1
 40
1.0
176
     1
 90
        0
176
     1
 62
    18
420
        0
176
     1
 90
       50
176
     1
 90
        3
176
     1
 62
     5
420
      255
176
     1
290
     0
176
     1
 90
       50
176
     1
 90
       50
176
     1
 90
       50
176
     1
290
     0
176
     1
 90
       50
176
     1
 62
   256
176
     0
 40
1.0
176
     0
 90
        2
176
     1
  1
strokes_ogs.tif
176
     1
290
     0
176
     1
 40
1.0
176
     1
 40
1.0
176
     1
  0
VISUALSTYLE
  5
3C
102
{ACAD_REACTORS
330
2A
102
}
330
2A
100
AcDbVisualStyle
  2
OverhangOff
 70
    21
177
     3
291
     1
 70
    58
 90
        2
176
     0
 90
        2
176
     0
 90
        0
176
     0
 90
        0
176
     0
 40
0.6
176
     0
 40
30.0
176
     0
 62
     7
420
 16777215
176
     0
 90
        1
176
     0
 90
        4
176
     0
 62
     7
176
     0
 62
   257
176
     0
 90
        1
176
     0
 90
        1
176
     0
 40
1.0
176
     0
 90
        9
176
     2
 62
     7
176
     0
 40
1.0
176
     0
 90
        1
176
     0
 90
        6
176
     0
 90
        2
176
     0
 62
     7
176
     0
 90
        5
176
     0
 90
        0
176
     0
 90
        0
176
     0
290
     0
176
     0
 90
        1
176
     0
 40
0.0
176
     0
 90
        0
176
     0
290
     0
176
     0
290
     1
176
     0
290
     1
176
     0
290
     0
176
     0
290
     0
176
     0
290
     0
176
     0
290
     0
176
     0
290
     0
176
     0
290
     0
176
     0
 90
       50
176
     0
 40
0.0
176
     0
 40
1.0
176
     0
 90
        0
176
     0
 62
    18
420
        0
176
     0
 90
       50
176
     0
 90
        3
176
     0
 62
     5
420
      255
176
     0
290
     0
176
     0
 90
       50
176
     0
 90
       50
176
     0
 90
       50
176
     0
290
     0
176
     0
 90
       50
176
     0
 62
   256
176
     0
 40
1.0
176
     0
 90
        2
176
     0
  1
strokes_ogs.tif
176
     0
290
     0
176
     0
 40
1.0
176
     0
 40
1.0
176
     0
  0
VISUALSTYLE
  5
33
102
{ACAD_REACTORS
330
2A
102
}
330
2A
100
AcDbVisualStyle
  2
Realistic
 70
     8
177
     3
291
     0
 70
    58
 90
        2
176
     1
 90
        3
176
     1
 90
        0
176
     1
 90
        2
176
     1
 40
0.6
176
     1
 40
30.0
176
     1
 62
     7
420
 16777215
176
     1
 90
        0
176
     1
 90
        0
176
     1
 62
     7
176
     1
 62
   257
176
     1
 90
        1
176
     1
 90
        1
176
     1
 40
1.0
176
     1
 90
        8
176
     1
 62
   257
176
     1
 40
1.0
176
     1
 90
        1
176
     1
 90
        6
176
     1
 90
        2
176
     1
 62
     7
176
     1
 90
        3
176
     1
 90
        0
176
     1
 90
        0
176
     1
290
     0
176
     1
 90
       13
176
     1
 40
0.0
176
     1
 90
        0
176
     1
290
     0
176
     1
290
     1
176
     1
290
     1
176
     1
290
     0
176
     1
290
     0
176
     1
290
     0
176
     1
290
     0
176
     1
290
     0
176
     1
290
     0
176
     1
 90
       50
176
     1
 40
0.0
176
     1
 40
1.0
176
     1
 90
        0
176
     1
 62
    18
420
        0
176
     1
 90
       50
176
     1
 90
        3
176
     1
 62
     5
420
      255
176
     1
290
     0
176
     1
 90
       50
176
     1
 90
       50
176
     1
 90
       50
176
     1
290
     0
176
     1
 90
       50
176
     1
 62
   256
176
     0
 40
1.0
176
     0
 90
        2
176
     1
  1
strokes_ogs.tif
176
     1
290
     0
176
     1
 40
1.0
176
     1
 40
1.0
176
     1
  0
VISUALSTYLE
  5
42
102
{ACAD_REACTORS
330
2A
102
}
330
2A
100
AcDbVisualStyle
  2
Shaded
 70
    27
177
     3
291
     0
 70
    58
 90
        2
176
     1
 90
        2
176
     1
 90
        1
176
     1
 90
        2
176
     1
 40
0.6
176
     1
 40
30.0
176
     1
 62
     7
420
 16777215
176
     1
 90
        0
176
     1
 90
        4
176
     1
 62
     7
176
     1
 62
   257
176
     1
 90
        1
176
     1
 90
        1
176
     1
 40
1.0
176
     1
 90
        8
176
     1
 62
   257
176
     1
 40
1.0
176
     1
 90
        1
176
     1
 90
        6
176
     1
 90
        2
176
     1
 62
     8
420
  7895160
176
     1
 90
        3
176
     1
 90
        0
176
     1
 90
        0
176
     1
290
     0
176
     1
 90
        5
176
     1
 40
0.0
176
     1
 90
        0
176
     1
290
     0
176
     1
290
     1
176
     1
290
     1
176
     1
290
     0
176
     1
290
     0
176
     1
290
     0
176
     1
290
     0
176
     1
290
     0
176
     1
290
     0
176
     1
 90
       50
176
     1
 40
0.0
176
     1
 40
1.0
176
     1
 90
        0
176
     1
 62
    18
420
        0
176
     1
 90
       50
176
     1
 90
        3
176
     1
 62
     5
420
      255
176
     1
290
     0
176
     1
 90
       50
176
     1
 90
       50
176
     1
 90
       50
176
     1
290
     0
176
     1
 90
       50
176
     1
 62
   256
176
     0
 40
1.0
176
     0
 90
        2
176
     1
  1
strokes_ogs.tif
176
     1
290
     0
176
     1
 40
1.0
176
     1
 40
1.0
176
     1
  0
VISUALSTYLE
  5
41
102
{ACAD_REACTORS
330
2A
102
}
330
2A
100
AcDbVisualStyle
  2
Shaded with edges
 70
    26
177
     3
291
     0
 70
    58
 90
        2
176
     1
 90
        2
176
     1
 90
        1
176
     1
 90
        2
176
     1
 40
0.6
176
     1
 40
30.0
176
     1
 62
     7
420
 16777215
176
     1
 90
        1
176
     1
 90
       10
176
     1
 62
     7
176
     1
 62
   257
176
     1
 90
        2
176
     1
 90
        1
176
     1
 40
1.0
176
     1
 90
        8
176
     1
 62
   257
176
     1
 40
1.0
176
     1
 90
        1
176
     1
 90
        6
176
     1
 90
        2
176
     1
 62
     7
176
     1
 90
        3
176
     1
 90
        0
176
     1
 90
        0
176
     1
290
     0
176
     1
 90
        5
176
     1
 40
0.0
176
     1
 90
        0
176
     1
290
     0
176
     1
290
     1
176
     1
290
     1
176
     1
290
     0
176
     1
290
     0
176
     1
290
     0
176
     1
290
     0
176
     1
290
     0
176
     1
290
     0
176
     1
 90
       50
176
     1
 40
0.0
176
     1
 40
1.0
176
     1
 90
        0
176
     1
 62
    18
420
        0
176
     1
 90
       50
176
     1
 90
        3
176
     1
 62
     5
420
      255
176
     1
290
     0
176
     1
 90
       50
176
     1
 90
       50
176
     1
 90
       50
176
     1
290
     0
176
     1
 90
       50
176
     1
 62
   256
176
     0
 40
1.0
176
     0
 90
        2
176
     1
  1
strokes_ogs.tif
176
     1
290
     0
176
     1
 40
1.0
176
     1
 40
1.0
176
     1
  0
VISUALSTYLE
  5
3E
102
{ACAD_REACTORS
330
2A
102
}
330
2A
100
AcDbVisualStyle
  2
Shades of Gray
 70
    23
177
     3
291
     0
 70
    58
 90
        2
176
     1
 90
        2
176
     1
 90
        3
176
     1
 90
        0
176
     1
 40
0.6
176
     1
 40
30.0
176
     1
 62
     7
420
 16777215
176
     1
 90
        2
176
     1
 90
        2
176
     1
 62
     7
176
     1
 62
     7
176
     1
 90
        1
176
     1
 90
        1
176
     1
 40
40.0
176
     1
 90
        8
176
     1
 62
     7
176
     1
 40
1.0
176
     1
 90
        1
176
     1
 90
        6
176
     1
 90
        2
176
     1
 62
     7
176
     1
 90
        3
176
     1
 90
        0
176
     1
 90
        0
176
     1
290
     0
176
     1
 90
        1
176
     1
 40
0.0
176
     1
 90
        0
176
     1
290
     0
176
     1
290
     1
176
     1
290
     1
176
     1
290
     0
176
     1
290
     0
176
     1
290
     0
176
     1
290
     0
176
     1
290
     0
176
     1
290
     0
176
     1
 90
       50
176
     1
 40
0.0
176
     1
 40
1.0
176
     1
 90
        0
176
     1
 62
    18
420
        0
176
     1
 90
       50
176
     1
 90
        3
176
     1
 62
     5
420
      255
176
     1
290
     0
176
     1
 90
       50
176
     1
 90
       50
176
     1
 90
       50
176
     1
290
     0
176
     1
 90
       50
176
     1
 62
   256
176
     0
 40
1.0
176
     0
 90
        2
176
     1
  1
strokes_ogs.tif
176
     1
290
     0
176
     1
 40
1.0
176
     1
 40
1.0
176
     1
  0
VISUALSTYLE
  5
3F
102
{ACAD_REACTORS
330
2A
102
}
330
2A
100
AcDbVisualStyle
  2
Sketchy
 70
    24
177
     3
291
     0
 70
    58
 90
        1
176
     1
 90
        2
176
     1
 90
        2
176
     1
 90
        0
176
     1
 40
0.6
176
     1
 40
30.0
176
     1
 62
     7
420
 16777215
176
     1
 90
        2
176
     1
 90
        2
176
     1
 62
     7
176
     1
 62
     7
176
     1
 90
        1
176
     1
 90
        1
176
     1
 40
40.0
176
     1
 90
       11
176
     1
 62
     7
176
     1
 40
1.0
176
     1
 90
        1
176
     1
 90
        6
176
     1
 90
        2
176
     1
 62
     7
176
     1
 90
        6
176
     1
 90
        0
176
     1
 90
        0
176
     1
290
     0
176
     1
 90
        1
176
     1
 40
0.0
176
     1
 90
        0
176
     1
290
     0
176
     1
290
     1
176
     1
290
     1
176
     1
290
     0
176
     1
290
     0
176
     1
290
     0
176
     1
290
     0
176
     1
290
     0
176
     1
290
     0
176
     1
 90
       50
176
     1
 40
0.0
176
     1
 40
1.0
176
     1
 90
        0
176
     1
 62
    18
420
        0
176
     1
 90
       50
176
     1
 90
        3
176
     1
 62
     5
420
      255
176
     1
290
     0
176
     1
 90
       50
176
     1
 90
       50
176
     1
 90
       50
176
     1
290
     0
176
     1
 90
       50
176
     1
 62
   256
176
     0
 40
1.0
176
     0
 90
        2
176
     1
  1
strokes_ogs.tif
176
     1
290
     0
176
     1
 40
1.0
176
     1
 40
1.0
176
     1
  0
VISUALSTYLE
  5
37
102
{ACAD_REACTORS
330
2A
102
}
330
2A
100
AcDbVisualStyle
  2
Thicken
 70
    13
177
     3
291
     1
 70
    58
 90
        2
176
     1
 90
        2
176
     1
 90
        0
176
     1
 90
        0
176
     1
 40
0.6
176
     1
 40
30.0
176
     1
 62
     7
420
 16777215
176
     1
 90
        1
176
     1
 90
        4
176
     1
 62
     7
176
     1
 62
   257
176
     1
 90
        1
176
     1
 90
        1
176
     1
 40
1.0
176
     1
 90
       12
176
     1
 62
     7
176
     1
 40
1.0
176
     1
 90
        1
176
     1
 90
        6
176
     1
 90
        2
176
     1
 62
     7
176
     1
 90
        5
176
     1
 90
        0
176
     1
 90
        0
176
     1
290
     0
176
     1
 90
        1
176
     1
 40
0.0
176
     1
 90
        0
176
     1
290
     0
176
     1
290
     1
176
     1
290
     1
176
     1
290
     0
176
     1
290
     0
176
     1
290
     0
176
     1
290
     0
176
     1
290
     0
176
     1
290
     0
176
     1
 90
       50
176
     1
 40
0.0
176
     1
 40
1.0
176
     1
 90
        0
176
     1
 62
    18
420
        0
176
     1
 90
       50
176
     1
 90
        3
176
     1
 62
     5
420
      255
176
     1
290
     0
176
     1
 90
       50
176
     1
 90
       50
176
     1
 90
       50
176
     1
290
     0
176
     1
 90
       50
176
     1
 62
   256
176
     0
 40
1.0
176
     0
 90
        2
176
     1
  1
strokes_ogs.tif
176
     1
290
     0
176
     1
 40
1.0
176
     1
 40
1.0
176
     1
  0
VISUALSTYLE
  5
30
102
{ACAD_REACTORS
330
2A
102
}
330
2A
100
AcDbVisualStyle
  2
Wireframe
 70
     5
177
     3
291
     0
 70
    58
 90
        0
176
     1
 90
        2
176
     1
 90
        0
176
     1
 90
        0
176
     1
 40
0.6
176
     1
 40
30.0
176
     1
 62
     7
420
 16777215
176
     1
 90
        1
176
     1
 90
        4
176
     1
 62
     7
176
     1
 62
   257
176
     1
 90
        1
176
     1
 90
        1
176
     1
 40
1.0
176
     1
 90
        0
176
     1
 62
   257
176
     1
 40
1.0
176
     1
 90
        1
176
     1
 90
        6
176
     1
 90
        2
176
     1
 62
     7
176
     1
 90
        3
176
     1
 90
        0
176
     1
 90
        0
176
     1
290
     0
176
     1
 90
        1
176
     1
 40
0.0
176
     1
 90
        0
176
     1
290
     0
176
     1
290
     1
176
     1
290
     1
176
     1
290
     0
176
     1
290
     0
176
     1
290
     0
176
     1
290
     0
176
     1
290
     0
176
     1
290
     0
176
     1
 90
       50
176
     1
 40
0.0
176
     1
 40
1.0
176
     1
 90
        0
176
     1
 62
    18
420
        0
176
     1
 90
       50
176
     1
 90
        3
176
     1
 62
     5
420
      255
176
     1
290
     0
176
     1
 90
       50
176
     1
 90
       50
176
     1
 90
       50
176
     1
290
     0
176
     1
 90
       50
176
     1
 62
   256
176
     0
 40
1.0
176
     0
 90
        2
176
     1
  1
strokes_ogs.tif
176
     1
290
     0
176
     1
 40
1.0
176
     1
 40
1.0
176
     1
  0
VISUALSTYLE
  5
40
102
{ACAD_REACTORS
330
2A
102
}
330
2A
100
AcDbVisualStyle
  2
X-Ray
 70
    25
177
     3
291
     0
 70
    58
 90
        2
176
     1
 90
        2
176
     1
 90
        1
176
     1
 90
        1
176
     1
 40
0.5
176
     1
 40
30.0
176
     1
 62
     7
420
 16777215
176
     1
 90
        1
176
     1
 90
        0
176
     1
 62
     7
176
     1
 62
   257
176
     1
 90
        1
176
     1
 90
        1
176
     1
 40
1.0
176
     1
 90
        8
176
     1
 62
     7
176
     1
 40
1.0
176
     1
 90
        1
176
     1
 90
        6
176
     1
 90
        2
176
     1
 62
     7
176
     1
 90
        3
176
     1
 90
        0
176
     1
 90
        0
176
     1
290
     0
176
     1
 90
       13
176
     1
 40
0.0
176
     1
 90
        0
176
     1
290
     0
176
     1
290
     1
176
     1
290
     1
176
     1
290
     0
176
     1
290
     0
176
     1
290
     0
176
     1
290
     0
176
     1
290
     0
176
     1
290
     0
176
     1
 90
       50
176
     1
 40
0.0
176
     1
 40
1.0
176
     1
 90
        0
176
     1
 62
    18
420
        0
176
     1
 90
       50
176
     1
 90
        3
176
     1
 62
     5
420
      255
176
     1
290
     0
176
     1
 90
       50
176
     1
 90
       50
176
     1
 90
       50
176
     1
290
     0
176
     1
 90
       50
176
     1
 62
   256
176
     0
 40
1.0
176
     0
 90
        2
176
     1
  1
strokes_ogs.tif
176
     1
290
     0
176
     1
 40
1.0
176
     1
 40
1.0
176
     1
  0
DICTIONARYVAR
  5
17E
102
{ACAD_REACTORS
330
17D
102
}
330
17D
100
DictionaryVariables
280
     0
  1
1:1
  0
DICTIONARYVAR
  5
186
102
{ACAD_REACTORS
330
17D
102
}
330
17D
100
DictionaryVariables
280
     0
  1
3.500000
  0
DICTIONARYVAR
  5
187
102
{ACAD_REACTORS
330
17D
102
}
330
17D
100
DictionaryVariables
280
     0
  1
acadiso.lin
  0
DICTIONARYVAR
  5
183
102
{ACAD_REACTORS
330
17D
102
}
330
17D
100
DictionaryVariables
280
     0
  1
Standard
  0
DICTIONARYVAR
  5
182
102
{ACAD_REACTORS
330
17D
102
}
330
17D
100
DictionaryVariables
280
     0
  1
Standard
  0
DICTIONARY
  5
17F
330
6A
100
AcDbDictionary
280
     1
281
     1
  3
ACAD_ROUNDTRIP_2008_TABLESTYLE_CELLSTYLEMAP
360
180
  0
CELLSTYLEMAP
  5
180
102
{ACAD_REACTORS
330
17F
102
}
330
17F
100
AcDbCellStyleMap
 90
        3
300
CELLSTYLE
  1
TABLEFORMAT_BEGIN
 90
        5
170
     1
 91
        0
 92
    32768
 62
   257
 93
        1
300
CONTENTFORMAT
  1
CONTENTFORMAT_BEGIN
 90
        0
 91
        0
 92
        4
 93
        0
300

 40
0.0
140
1.0
 94
        5
 62
     0
340
11
144
6.0
309
CONTENTFORMAT_END
171
     1
301
MARGIN
  1
CELLMARGIN_BEGIN
 40
1.5
 40
1.5
 40
1.5
 40
1.5
 40
1.5
 40
1.5
309
CELLMARGIN_END
 94
        6
 95
        1
302
GRIDFORMAT
  1
GRIDFORMAT_BEGIN
 90
        0
 91
        1
 62
     0
 92
       -2
340
14
 93
        0
 40
0.045
309
GRIDFORMAT_END
 95
        2
302
GRIDFORMAT
  1
GRIDFORMAT_BEGIN
 90
        0
 91
        1
 62
     0
 92
       -2
340
14
 93
        0
 40
0.045
309
GRIDFORMAT_END
 95
        4
302
GRIDFORMAT
  1
GRIDFORMAT_BEGIN
 90
        0
 91
        1
 62
     0
 92
       -2
340
14
 93
        0
 40
0.045
309
GRIDFORMAT_END
 95
        8
302
GRIDFORMAT
  1
GRIDFORMAT_BEGIN
 90
        0
 91
        1
 62
     0
 92
       -2
340
14
 93
        0
 40
0.045
309
GRIDFORMAT_END
 95
       16
302
GRIDFORMAT
  1
GRIDFORMAT_BEGIN
 90
        0
 91
        1
 62
     0
 92
       -2
340
14
 93
        0
 40
0.045
309
GRIDFORMAT_END
 95
       32
302
GRIDFORMAT
  1
GRIDFORMAT_BEGIN
 90
        0
 91
        1
 62
     0
 92
       -2
340
14
 93
        0
 40
0.045
309
GRIDFORMAT_END
309
TABLEFORMAT_END
  1
CELLSTYLE_BEGIN
 90
        1
 91
        1
300
_TITLE
309
CELLSTYLE_END
300
CELLSTYLE
  1
TABLEFORMAT_BEGIN
 90
        5
170
     1
 91
        0
 92
        0
 62
   257
 93
        1
300
CONTENTFORMAT
  1
CONTENTFORMAT_BEGIN
 90
        0
 91
        0
 92
        4
 93
        0
300

 40
0.0
140
1.0
 94
        5
 62
     0
340
11
144
4.5
309
CONTENTFORMAT_END
171
     1
301
MARGIN
  1
CELLMARGIN_BEGIN
 40
1.5
 40
1.5
 40
1.5
 40
1.5
 40
1.5
 40
1.5
309
CELLMARGIN_END
 94
        6
 95
        1
302
GRIDFORMAT
  1
GRIDFORMAT_BEGIN
 90
        0
 91
        1
 62
     0
 92
       -2
340
14
 93
        0
 40
0.045
309
GRIDFORMAT_END
 95
        2
302
GRIDFORMAT
  1
GRIDFORMAT_BEGIN
 90
        0
 91
        1
 62
     0
 92
       -2
340
14
 93
        0
 40
0.045
309
GRIDFORMAT_END
 95
        4
302
GRIDFORMAT
  1
GRIDFORMAT_BEGIN
 90
        0
 91
        1
 62
     0
 92
       -2
340
14
 93
        0
 40
0.045
309
GRIDFORMAT_END
 95
        8
302
GRIDFORMAT
  1
GRIDFORMAT_BEGIN
 90
        0
 91
        1
 62
     0
 92
       -2
340
14
 93
        0
 40
0.045
309
GRIDFORMAT_END
 95
       16
302
GRIDFORMAT
  1
GRIDFORMAT_BEGIN
 90
        0
 91
        1
 62
     0
 92
       -2
340
14
 93
        0
 40
0.045
309
GRIDFORMAT_END
 95
       32
302
GRIDFORMAT
  1
GRIDFORMAT_BEGIN
 90
        0
 91
        1
 62
     0
 92
       -2
340
14
 93
        0
 40
0.045
309
GRIDFORMAT_END
309
TABLEFORMAT_END
  1
CELLSTYLE_BEGIN
 90
        2
 91
        1
300
_HEADER
309
CELLSTYLE_END
300
CELLSTYLE
  1
TABLEFORMAT_BEGIN
 90
        5
170
     1
 91
        0
 92
        0
 62
   257
 93
        1
300
CONTENTFORMAT
  1
CONTENTFORMAT_BEGIN
 90
        0
 91
        0
 92
        4
 93
        0
300

 40
0.0
140
1.0
 94
        2
 62
     0
340
11
144
4.5
309
CONTENTFORMAT_END
171
     1
301
MARGIN
  1
CELLMARGIN_BEGIN
 40
1.5
 40
1.5
 40
1.5
 40
1.5
 40
1.5
 40
1.5
309
CELLMARGIN_END
 94
        6
 95
        1
302
GRIDFORMAT
  1
GRIDFORMAT_BEGIN
 90
        0
 91
        1
 62
     0
 92
       -2
340
14
 93
        0
 40
0.045
309
GRIDFORMAT_END
 95
        2
302
GRIDFORMAT
  1
GRIDFORMAT_BEGIN
 90
        0
 91
        1
 62
     0
 92
       -2
340
14
 93
        0
 40
0.045
309
GRIDFORMAT_END
 95
        4
302
GRIDFORMAT
  1
GRIDFORMAT_BEGIN
 90
        0
 91
        1
 62
     0
 92
       -2
340
14
 93
        0
 40
0.045
309
GRIDFORMAT_END
 95
        8
302
GRIDFORMAT
  1
GRIDFORMAT_BEGIN
 90
        0
 91
        1
 62
     0
 92
       -2
340
14
 93
        0
 40
0.045
309
GRIDFORMAT_END
 95
       16
302
GRIDFORMAT
  1
GRIDFORMAT_BEGIN
 90
        0
 91
        1
 62
     0
 92
       -2
340
14
 93
        0
 40
0.045
309
GRIDFORMAT_END
 95
       32
302
GRIDFORMAT
  1
GRIDFORMAT_BEGIN
 90
        0
 91
        1
 62
     0
 92
       -2
340
14
 93
        0
 40
0.045
309
GRIDFORMAT_END
309
TABLEFORMAT_END
  1
CELLSTYLE_BEGIN
 90
        3
 91
        2
300
_DATA
309
CELLSTYLE_END
  0
ENDSEC
  0
EOF
