  0
SECTION
  2
HEADER
  9
$ACADVER
  1
AC1032
  9
$ACADMAINTVER
 90
       55
  9
$DWGCODEPAGE
  3
ANSI_1252
  9
$LASTSAVEDBY
  1
Thomas.Friedrich
  9
$REQUIREDVERSIONS
160
                 0
  9
$INSBASE
 10
0.0
 20
0.0
 30
0.0
  9
$EXTMIN
 10
0.0
 20
0.0
 30
0.0
  9
$EXTMAX
 10
1000.0
 20
2000.0
 30
0.0
  9
$LIMMIN
 10
0.0
 20
0.0
  9
$LIMMAX
 10
1000.0
 20
2000.0
  9
$ORTHOMODE
 70
     0
  9
$REGENMODE
 70
     1
  9
$FILLMODE
 70
     1
  9
$QTEXTMODE
 70
     0
  9
$MIRRTEXT
 70
     1
  9
$LTSCALE
 40
1.0
  9
$ATTMODE
 70
     1
  9
$TEXTSIZE
 40
3.5
  9
$TRACEWID
 40
1.0
  9
$TEXTSTYLE
  7
Standard
  9
$CLAYER
  8
0
  9
$CELTYPE
  6
ByLayer
  9
$CECOLOR
 62
   256
  9
$CELTSCALE
 40
1.0
  9
$DISPSILH
 70
     0
  9
$DIMSCALE
 40
1.0
  9
$DIMASZ
 40
3.556
  9
$DIMEXO
 40
1.0
  9
$DIMDLI
 40
3.75
  9
$DIMRND
 40
0.0
  9
$DIMDLE
 40
0.0
  9
$DIMEXE
 40
1.0
  9
$DIMTP
 40
0.0
  9
$DIMTM
 40
0.0
  9
$DIMTXT
 40
3.5
  9
$DIMCEN
 40
2.5
  9
$DIMTSZ
 40
0.0
  9
$DIMTOL
 70
     0
  9
$DIMLIM
 70
     0
  9
$DIMTIH
 70
     1
  9
$DIMTOH
 70
     1
  9
$DIMSE1
 70
     0
  9
$DIMSE2
 70
     0
  9
$DIMTAD
 70
     1
  9
$DIMZIN
 70
     0
  9
$DIMBLK
  1

  9
$DIMASO
 70
     1
  9
$DIMSHO
 70
     1
  9
$DIMPOST
  1

  9
$DIMAPOST
  1

  9
$DIMALT
 70
     0
  9
$DIMALTD
 70
     3
  9
$DIMALTF
 40
0.0393700787
  9
$DIMLFAC
 40
1.0
  9
$DIMTOFL
 70
     1
  9
$DIMTVP
 40
0.0
  9
$DIMTIX
 70
     0
  9
$DIMSOXD
 70
     0
  9
$DIMSAH
 70
     0
  9
$DIMBLK1
  1

  9
$DIMBLK2
  1

  9
$DIMSTYLE
  2
ISO-25
  9
$DIMCLRD
 70
     0
  9
$DIMCLRE
 70
     0
  9
$DIMCLRT
 70
     0
  9
$DIMTFAC
 40
1.0
  9
$DIMGAP
 40
1.524
  9
$DIMJUST
 70
     0
  9
$DIMSD1
 70
     0
  9
$DIMSD2
 70
     0
  9
$DIMTOLJ
 70
     0
  9
$DIMTZIN
 70
     0
  9
$DIMALTZ
 70
     0
  9
$DIMALTTZ
 70
     0
  9
$DIMUPT
 70
     0
  9
$DIMDEC
 70
     2
  9
$DIMTDEC
 70
     2
  9
$DIMALTU
 70
     2
  9
$DIMALTTD
 70
     3
  9
$DIMTXSTY
  7
Standard
  9
$DIMAUNIT
 70
     0
  9
$DIMADEC
 70
     2
  9
$DIMALTRND
 40
0.0
  9
$DIMAZIN
 70
     0
  9
$DIMDSEP
 70
    44
  9
$DIMATFIT
 70
     3
  9
$DIMFRAC
 70
     0
  9
$DIMLDRBLK
  1

  9
$DIMLUNIT
 70
     2
  9
$DIMLWD
 70
    -2
  9
$DIMLWE
 70
    -2
  9
$DIMTMOVE
 70
     0
  9
$DIMFXL
 40
1.0
  9
$DIMFXLON
 70
     0
  9
$DIMJOGANG
 40
0.7853981634
  9
$DIMTFILL
 70
     0
  9
$DIMTFILLCLR
 70
     0
  9
$DIMARCSYM
 70
     0
  9
$DIMLTYPE
  6

  9
$DIMLTEX1
  6

  9
$DIMLTEX2
  6

  9
$DIMTXTDIRECTION
 70
     0
  9
$LUNITS
 70
     2
  9
$LUPREC
 70
     2
  9
$SKETCHINC
 40
1.0
  9
$FILLETRAD
 40
10.0
  9
$AUNITS
 70
     0
  9
$AUPREC
 70
     2
  9
$MENU
  1
.
  9
$ELEVATION
 40
0.0
  9
$PELEVATION
 40
0.0
  9
$THICKNESS
 40
0.0
  9
$LIMCHECK
 70
     0
  9
$CHAMFERA
 40
0.0
  9
$CHAMFERB
 40
0.0
  9
$CHAMFERC
 40
0.0
  9
$CHAMFERD
 40
0.0
  9
$SKPOLY
 70
     0
  9
$TDCREATE
 40
2460369.522693056
  9
$TDUCREATE
 40
2460369.481026389
  9
$TDUPDATE
 40
2460369.522693148
  9
$TDUUPDATE
 40
2460369.481026481
  9
$TDINDWG
 40
0.0000000116
  9
$TDUSRTIMER
 40
0.0000000116
  9
$USRTIMER
 70
     1
  9
$ANGBASE
 50
0.0
  9
$ANGDIR
 70
     0
  9
$PDMODE
 70
     0
  9
$PDSIZE
 40
-1.0
  9
$PLINEWID
 40
0.0
  9
$SPLFRAME
 70
     0
  9
$SPLINETYPE
 70
     6
  9
$SPLINESEGS
 70
     8
  9
$HANDSEED
  5
171
  9
$SURFTAB1
 70
     6
  9
$SURFTAB2
 70
     6
  9
$SURFTYPE
 70
     6
  9
$SURFU
 70
     6
  9
$SURFV
 70
     6
  9
$UCSBASE
  2

  9
$UCSNAME
  2

  9
$UCSORG
 10
0.0
 20
0.0
 30
0.0
  9
$UCSXDIR
 10
1.0
 20
0.0
 30
0.0
  9
$UCSYDIR
 10
0.0
 20
1.0
 30
0.0
  9
$UCSORTHOREF
  2

  9
$UCSORTHOVIEW
 70
     0
  9
$UCSORGTOP
 10
0.0
 20
0.0
 30
0.0
  9
$UCSORGBOTTOM
 10
0.0
 20
0.0
 30
0.0
  9
$UCSORGLEFT
 10
0.0
 20
0.0
 30
0.0
  9
$UCSORGRIGHT
 10
0.0
 20
0.0
 30
0.0
  9
$UCSORGFRONT
 10
0.0
 20
0.0
 30
0.0
  9
$UCSORGBACK
 10
0.0
 20
0.0
 30
0.0
  9
$PUCSBASE
  2

  9
$PUCSNAME
  2

  9
$PUCSORG
 10
0.0
 20
0.0
 30
0.0
  9
$PUCSXDIR
 10
1.0
 20
0.0
 30
0.0
  9
$PUCSYDIR
 10
0.0
 20
1.0
 30
0.0
  9
$PUCSORTHOREF
  2

  9
$PUCSORTHOVIEW
 70
     0
  9
$PUCSORGTOP
 10
0.0
 20
0.0
 30
0.0
  9
$PUCSORGBOTTOM
 10
0.0
 20
0.0
 30
0.0
  9
$PUCSORGLEFT
 10
0.0
 20
0.0
 30
0.0
  9
$PUCSORGRIGHT
 10
0.0
 20
0.0
 30
0.0
  9
$PUCSORGFRONT
 10
0.0
 20
0.0
 30
0.0
  9
$PUCSORGBACK
 10
0.0
 20
0.0
 30
0.0
  9
$USERI1
 70
     0
  9
$USERI2
 70
     0
  9
$USERI3
 70
     0
  9
$USERI4
 70
     0
  9
$USERI5
 70
     0
  9
$USERR1
 40
0.0
  9
$USERR2
 40
0.0
  9
$USERR3
 40
0.0
  9
$USERR4
 40
0.0
  9
$USERR5
 40
0.0
  9
$WORLDVIEW
 70
     1
  9
$SHADEDGE
 70
     3
  9
$SHADEDIF
 70
    70
  9
$TILEMODE
 70
     1
  9
$MAXACTVP
 70
    64
  9
$PINSBASE
 10
0.0
 20
0.0
 30
0.0
  9
$PLIMCHECK
 70
     0
  9
$PEXTMIN
 10
1.0000000000E+20
 20
1.0000000000E+20
 30
1.0000000000E+20
  9
$PEXTMAX
 10
-1.0000000000E+20
 20
-1.0000000000E+20
 30
-1.0000000000E+20
  9
$PLIMMIN
 10
0.0
 20
0.0
  9
$PLIMMAX
 10
420.0
 20
297.0
  9
$UNITMODE
 70
     0
  9
$VISRETAIN
 70
     1
  9
$PLINEGEN
 70
     0
  9
$PSLTSCALE
 70
     1
  9
$TREEDEPTH
 70
  3020
  9
$CMLSTYLE
  2
Standard
  9
$CMLJUST
 70
     0
  9
$CMLSCALE
 40
20.0
  9
$PROXYGRAPHICS
 70
     1
  9
$MEASUREMENT
 70
     1
  9
$CELWEIGHT
370
    -1
  9
$ENDCAPS
280
     0
  9
$JOINSTYLE
280
     0
  9
$LWDISPLAY
290
     1
  9
$INSUNITS
 70
     4
  9
$HYPERLINKBASE
  1

  9
$STYLESHEET
  1

  9
$XEDIT
290
     1
  9
$CEPSNTYPE
380
     0
  9
$PSTYLEMODE
290
     1
  9
$FINGERPRINTGUID
  2
{3b1826b8-956d-448d-b8ec-16681d475042}
  9
$VERSIONGUID
  2
{FAEB1C32-E019-11D5-929B-00C0DF256EC4}
  9
$EXTNAMES
290
     1
  9
$PSVPSCALE
 40
0.0
  9
$OLESTARTUP
290
     0
  9
$SORTENTS
280
   127
  9
$INDEXCTL
280
     0
  9
$HIDETEXT
280
     1
  9
$XCLIPFRAME
280
     2
  9
$HALOGAP
280
     0
  9
$OBSCOLOR
 70
   257
  9
$OBSLTYPE
280
     0
  9
$INTERSECTIONDISPLAY
280
     0
  9
$INTERSECTIONCOLOR
 70
   257
  9
$DIMASSOC
280
     2
  9
$PROJECTNAME
  1

  9
$CAMERADISPLAY
290
     0
  9
$LENSLENGTH
 40
50.0
  9
$CAMERAHEIGHT
 40
0.0
  9
$STEPSPERSEC
 40
2.0
  9
$STEPSIZE
 40
6.0
  9
$3DDWFPREC
 40
2.0
  9
$PSOLWIDTH
 40
5.0
  9
$PSOLHEIGHT
 40
80.0
  9
$LOFTANG1
 40
1.5707963268
  9
$LOFTANG2
 40
1.5707963268
  9
$LOFTMAG1
 40
0.0
  9
$LOFTMAG2
 40
0.0
  9
$LOFTPARAM
 70
     7
  9
$LOFTNORMALS
280
     1
  9
$LATITUDE
 40
37.795
  9
$LONGITUDE
 40
-122.394
  9
$NORTHDIRECTION
 40
0.0
  9
$TIMEZONE
 70
 -8000
  9
$LIGHTGLYPHDISPLAY
280
     1
  9
$TILEMODELIGHTSYNCH
280
     1
  9
$CMATERIAL
347
44
  9
$SOLIDHIST
280
     0
  9
$SHOWHIST
280
     1
  9
$DWFFRAME
280
     2
  9
$DGNFRAME
280
     2
  9
$REALWORLDSCALE
290
     1
  9
$INTERFERECOLOR
 62
   256
  9
$CSHADOW
280
     0
  9
$SHADOWPLANELOCATION
 40
0.0
  0
ENDSEC
  0
SECTION
  2
CLASSES
  0
CLASS
  1
ACDBDICTIONARYWDFLT
  2
AcDbDictionaryWithDefault
  3
ObjectDBX Classes
 90
        0
 91
        3
280
     0
281
     0
  0
CLASS
  1
VISUALSTYLE
  2
AcDbVisualStyle
  3
ObjectDBX Classes
 90
     4095
 91
        3
280
     0
281
     0
  0
CLASS
  1
MATERIAL
  2
AcDbMaterial
  3
ObjectDBX Classes
 90
     1153
 91
        3
280
     0
281
     0
  0
CLASS
  1
SCALE
  2
AcDbScale
  3
ObjectDBX Classes
 90
     1153
 91
        3
280
     0
281
     0
  0
CLASS
  1
TABLESTYLE
  2
AcDbTableStyle
  3
ObjectDBX Classes
 90
     4095
 91
        3
280
     0
281
     0
  0
CLASS
  1
MLEADERSTYLE
  2
AcDbMLeaderStyle
  3
ACDB_MLEADERSTYLE_CLASS
 90
     4095
 91
        3
280
     0
281
     0
  0
CLASS
  1
SUN
  2
AcDbSun
  3
SCENEOE
 90
     1153
 91
        3
280
     0
281
     0
  0
CLASS
  1
DICTIONARYVAR
  2
AcDbDictionaryVar
  3
ObjectDBX Classes
 90
        0
 91
        3
280
     0
281
     0
  0
CLASS
  1
CELLSTYLEMAP
  2
AcDbCellStyleMap
  3
ObjectDBX Classes
 90
     1152
 91
        3
280
     0
281
     0
  0
ENDSEC
  0
SECTION
  2
TABLES
  0
TABLE
  2
VPORT
  5
8
330
0
100
AcDbSymbolTable
 70
     1
  0
VPORT
  5
29
330
8
100
AcDbSymbolTableRecord
100
AcDbViewportTableRecord
  2
*Active
 70
     0
 10
0.0
 20
0.0
 11
1.0
 21
1.0
 12
500.0
 22
1000.0
 13
0.0
 23
0.0
 14
10.0
 24
10.0
 15
10.0
 25
10.0
 16
0.0
 26
0.0
 36
1.0
 17
0.0
 27
0.0
 37
0.0
 40
2000.0
 41
0.5
 42
50.0
 43
0.0
 44
0.0
 50
0.0
 51
0.0
 71
     0
 72
  2000
 73
     1
 74
     3
 75
     0
 76
     0
 77
     0
 78
     0
281
     0
 65
     1
110
0.0
120
0.0
130
0.0
111
1.0
121
0.0
131
0.0
112
0.0
122
1.0
132
0.0
 79
     0
146
0.0
348
2F
 60
     3
 61
     5
292
     1
282
     1
141
0.0
142
0.0
 63
   250
361
6D
  0
ENDTAB
  0
TABLE
  2
LTYPE
  5
5
330
0
100
AcDbSymbolTable
 70
     8
  0
LTYPE
  5
14
330
5
100
AcDbSymbolTableRecord
100
AcDbLinetypeTableRecord
  2
ByBlock
 70
     0
  3

 72
    65
 73
     0
 40
0.0
  0
LTYPE
  5
15
330
5
100
AcDbSymbolTableRecord
100
AcDbLinetypeTableRecord
  2
ByLayer
 70
     0
  3

 72
    65
 73
     0
 40
0.0
  0
LTYPE
  5
16
330
5
100
AcDbSymbolTableRecord
100
AcDbLinetypeTableRecord
  2
Continuous
 70
     0
  3
Solid line
 72
    65
 73
     0
 40
0.0
  0
LTYPE
  5
6E
330
5
100
AcDbSymbolTableRecord
100
AcDbLinetypeTableRecord
  2
SLD-Durchgehend
 70
     0
  3
SolidWorks Line Style
 72
    65
 73
     0
 40
0.0
  0
LTYPE
  5
6F
330
5
100
AcDbSymbolTableRecord
100
AcDbLinetypeTableRecord
  2
SLD-Gestrichelt
 70
     0
  3
SolidWorks Line Style
 72
    65
 73
     2
 40
1.905
 49
1.27
 74
     0
 49
-0.635
 74
     0
  0
LTYPE
  5
70
330
5
100
AcDbSymbolTableRecord
100
AcDbLinetypeTableRecord
  2
SLD-Phantom
 70
     0
  3
SolidWorks Line Style
 72
    65
 73
     6
 40
12.7
 49
6.35
 74
     0
 49
-1.27
 74
     0
 49
1.27
 74
     0
 49
-1.27
 74
     0
 49
1.27
 74
     0
 49
-1.27
 74
     0
  0
LTYPE
  5
71
330
5
100
AcDbSymbolTableRecord
100
AcDbLinetypeTableRecord
  2
SLD-Kette
 70
     0
  3
SolidWorks Line Style
 72
    65
 73
     4
 40
10.16
 49
6.35
 74
     0
 49
-1.27
 74
     0
 49
1.27
 74
     0
 49
-1.27
 74
     0
  0
LTYPE
  5
72
330
5
100
AcDbSymbolTableRecord
100
AcDbLinetypeTableRecord
  2
SLD-Punktstrich
 70
     0
  3
SolidWorks Line Style
 72
    65
 73
     4
 40
19.05
 49
15.24
 74
     0
 49
-1.27
 74
     0
 49
1.27
 74
     0
 49
-1.27
 74
     0
  0
LTYPE
  5
73
330
5
100
AcDbSymbolTableRecord
100
AcDbLinetypeTableRecord
  2
SLD-Naht
 70
     0
  3
SolidWorks Line Style
 72
    65
 73
     2
 40
0.635
 49
0.0
 74
     0
 49
-0.635
 74
     0
  0
LTYPE
  5
74
330
5
100
AcDbSymbolTableRecord
100
AcDbLinetypeTableRecord
  2
SLD-Dicke-Dünne-Kette
 70
     0
  3
SolidWorks Line Style
 72
    65
 73
     4
 40
10.16
 49
6.35
 74
     0
 49
-1.27
 74
     0
 49
1.27
 74
     0
 49
-1.27
 74
     0
  0
ENDTAB
  0
TABLE
  2
LAYER
  5
2
330
0
100
AcDbSymbolTable
 70
     2
  0
LAYER
  5
10
330
2
100
AcDbSymbolTableRecord
100
AcDbLayerTableRecord
  2
0
 70
     0
 62
     7
  6
Continuous
370
    -3
390
F
347
46
348
0
  0
LAYER
  5
75
330
2
100
AcDbSymbolTableRecord
100
AcDbLayerTableRecord
  2
FORMAT
 70
     0
 62
     7
  6
SLD-Durchgehend
370
    -3
390
F
347
46
348
0
  0
ENDTAB
  0
TABLE
  2
STYLE
  5
3
330
0
100
AcDbSymbolTable
 70
     1
  0
STYLE
  5
11
330
3
100
AcDbSymbolTableRecord
100
AcDbTextStyleTableRecord
  2
Standard
 70
     0
 40
0.0
 41
1.0
 50
0.0
 71
     0
 42
3.5
  3
txt
  4

  0
ENDTAB
  0
TABLE
  2
VIEW
  5
6
330
0
100
AcDbSymbolTable
 70
     0
  0
ENDTAB
  0
TABLE
  2
UCS
  5
7
330
0
100
AcDbSymbolTable
 70
     0
  0
ENDTAB
  0
TABLE
  2
APPID
  5
9
330
0
100
AcDbSymbolTable
 70
     1
  0
APPID
  5
12
330
9
100
AcDbSymbolTableRecord
100
AcDbRegAppTableRecord
  2
ACAD
 70
     0
  0
ENDTAB
  0
TABLE
  2
DIMSTYLE
  5
A
330
0
100
AcDbSymbolTable
 70
     1
100
AcDbDimStyleTable
  0
DIMSTYLE
105
27
330
A
100
AcDbSymbolTableRecord
100
AcDbDimStyleTableRecord
  2
ISO-25
 70
     0
 41
2.5
 42
0.625
 43
3.75
 44
1.25
 73
     0
 74
     0
 77
     1
 78
     8
140
2.5
141
2.5
143
0.0393700787
147
0.625
171
     3
172
     1
178
     0
271
     2
272
     2
274
     3
278
    44
283
     0
284
     8
340
11
  0
ENDTAB
  0
TABLE
  2
BLOCK_RECORD
  5
1
330
0
100
AcDbSymbolTable
 70
     1
  0
BLOCK_RECORD
  5
1F
330
1
100
AcDbSymbolTableRecord
100
AcDbBlockTableRecord
  2
*Model_Space
340
22
 70
     0
280
     1
281
     0
  0
BLOCK_RECORD
  5
1B
330
1
100
AcDbSymbolTableRecord
100
AcDbBlockTableRecord
  2
*Paper_Space
340
1E
 70
     0
280
     1
281
     0
  0
BLOCK_RECORD
  5
23
330
1
100
AcDbSymbolTableRecord
100
AcDbBlockTableRecord
  2
*Paper_Space0
340
26
 70
     0
280
     1
281
     0
  0
ENDTAB
  0
ENDSEC
  0
SECTION
  2
BLOCKS
  0
BLOCK
  5
20
330
1F
100
AcDbEntity
  8
0
100
AcDbBlockBegin
  2
*Model_Space
 70
     0
 10
0.0
 20
0.0
 30
0.0
  3
*Model_Space
  1

  0
ENDBLK
  5
21
330
1F
100
AcDbEntity
  8
0
100
AcDbBlockEnd
  0
BLOCK
  5
1C
330
1B
100
AcDbEntity
 67
     1
  8
0
100
AcDbBlockBegin
  2
*Paper_Space
 70
     0
 10
0.0
 20
0.0
 30
0.0
  3
*Paper_Space
  1

  0
ENDBLK
  5
1D
330
1B
100
AcDbEntity
 67
     1
  8
0
100
AcDbBlockEnd
  0
BLOCK
  5
24
330
23
100
AcDbEntity
  8
0
100
AcDbBlockBegin
  2
*Paper_Space0
 70
     0
 10
0.0
 20
0.0
 30
0.0
  3
*Paper_Space0
  1

  0
ENDBLK
  5
25
330
23
100
AcDbEntity
  8
0
100
AcDbBlockEnd
  0
ENDSEC
  0
SECTION
  2
ENTITIES
  0
ARC
  5
76
330
1F
100
AcDbEntity
  8
0
  6
SLD-Durchgehend
 62
     2
420
 16776960
370
    25
100
AcDbCircle
 10
508.4388365012
 20
274.8235749341
 30
0.0
 40
1.04646342041919
100
AcDbArc
 50
1.7590891458
 51
92.1229576212
  0
ARC
  5
77
330
1F
100
AcDbEntity
  8
0
  6
SLD-Durchgehend
 62
     2
420
 16776960
370
    25
100
AcDbCircle
 10
507.3270617162
 20
275.1290993111
 30
0.0
 40
2.174996961285182
100
AcDbArc
 50
303.8726559073
 51
352.778714929
  0
LINE
  5
78
330
1F
100
AcDbEntity
  8
0
  6
SLD-Durchgehend
 62
     2
420
 16776960
370
    25
100
AcDbLine
 10
506.6001913741
 20
271.253935479
 30
0.0
 11
508.5392939382
 21
273.3232463765
 31
0.0
  0
LINE
  5
79
330
1F
100
AcDbEntity
  8
0
  6
SLD-Durchgehend
 62
     2
420
 16776960
370
    25
100
AcDbLine
 10
509.9976272716
 20
271.253935479
 30
0.0
 11
506.6001913741
 21
271.253935479
 31
0.0
  0
LINE
  5
7A
330
1F
100
AcDbEntity
  8
0
  6
SLD-Durchgehend
 62
     2
420
 16776960
370
    25
100
AcDbLine
 10
509.9976272716
 20
271.7667559918
 30
0.0
 11
509.9976272716
 21
271.253935479
 31
0.0
  0
LINE
  5
7B
330
1F
100
AcDbEntity
  8
0
  6
SLD-Durchgehend
 62
     2
420
 16776960
370
    25
100
AcDbLine
 10
507.6709045152
 20
271.7667559918
 30
0.0
 11
509.9976272716
 21
271.7667559918
 31
0.0
  0
LINE
  5
7C
330
1F
100
AcDbEntity
  8
0
  6
SLD-Durchgehend
 62
     2
420
 16776960
370
    25
100
AcDbLine
 10
508.9219061177
 20
273.1018922098
 30
0.0
 11
507.6709045152
 21
271.7667559918
 31
0.0
  0
ARC
  5
7D
330
1F
100
AcDbEntity
  8
0
  6
SLD-Durchgehend
 62
     2
420
 16776960
370
    25
100
AcDbCircle
 10
507.311950933
 20
275.1919719873
 30
0.0
 40
2.638254948496065
100
AcDbArc
 50
307.6064880586
 51
353.5535346584
  0
ARC
  5
7E
330
1F
100
AcDbEntity
  8
0
  6
SLD-Durchgehend
 62
     2
420
 16776960
370
    25
100
AcDbCircle
 10
508.4674295893
 20
274.9165678985
 30
0.0
 40
1.466242737164303
100
AcDbArc
 50
359.1869646752
 51
91.7321992398
  0
ARC
  5
7F
330
1F
100
AcDbEntity
  8
0
  6
SLD-Durchgehend
 62
     2
420
 16776960
370
    25
100
AcDbCircle
 10
508.4161807315
 20
274.7579190253
 30
0.0
 40
1.624236354357486
100
AcDbArc
 50
89.7556348337
 51
181.4974428372
  0
LINE
  5
80
330
1F
100
AcDbEntity
  8
0
  6
SLD-Durchgehend
 62
     2
420
 16776960
370
    25
100
AcDbLine
 10
507.2412170152
 20
274.7154739406
 30
0.0
 11
506.7924990664
 21
274.7154739406
 31
0.0
  0
ARC
  5
81
330
1F
100
AcDbEntity
  8
0
  6
SLD-Durchgehend
 62
     2
420
 16776960
370
    25
100
AcDbCircle
 10
508.3898653779
 20
274.7207051596
 30
0.0
 40
1.148660274772138
100
AcDbArc
 50
89.4909224257
 51
180.2609368642
  0
CIRCLE
  5
82
330
1F
100
AcDbEntity
  8
0
  6
SLD-Durchgehend
 62
     7
370
    25
100
AcDbCircle
 10
456.2777995217
 20
1698.5116453371
 30
0.0
 40
4.5
  0
LINE
  5
83
330
1F
100
AcDbEntity
  8
0
  6
SLD-Durchgehend
 62
     7
370
    25
100
AcDbLine
 10
451.1306673502
 20
1800.8264390209
 30
0.0
 11
460.7410589531
 21
1799.280361311
 31
0.0
  0
LINE
  5
84
330
1F
100
AcDbEntity
  8
0
  6
SLD-Durchgehend
 62
     7
370
    25
100
AcDbLine
 10
460.7410589531
 20
1799.280361311
 30
0.0
 11
482.8427136317
 21
1790.5485333256
 31
0.0
  0
LINE
  5
85
330
1F
100
AcDbEntity
  8
0
  6
SLD-Durchgehend
 62
     7
370
    25
100
AcDbLine
 10
482.8427136317
 20
1790.5485333256
 30
0.0
 11
498.4974223141
 21
1773.6019312083
 31
0.0
  0
LINE
  5
86
330
1F
100
AcDbEntity
  8
0
  6
SLD-Durchgehend
 62
     7
370
    25
100
AcDbLine
 10
498.4974223141
 20
1773.6019312083
 30
0.0
 11
512.936231293
 21
1745.1802756393
 31
0.0
  0
LINE
  5
87
330
1F
100
AcDbEntity
  8
0
  6
SLD-Durchgehend
 62
     7
370
    25
100
AcDbLine
 10
512.936231293
 20
1745.1802756393
 30
0.0
 11
523.0217546602
 21
1701.6905455009
 31
0.0
  0
LINE
  5
88
330
1F
100
AcDbEntity
  8
0
  6
SLD-Durchgehend
 62
     7
370
    25
100
AcDbLine
 10
523.0217546602
 20
1701.6905455009
 30
0.0
 11
525.3941685202
 21
1695.3536657509
 31
0.0
  0
LINE
  5
89
330
1F
100
AcDbEntity
  8
0
  6
SLD-Durchgehend
 62
     7
370
    25
100
AcDbLine
 10
525.3941685202
 20
1695.3536657509
 30
0.0
 11
526.2257606002
 21
1688.9402357809
 31
0.0
  0
LINE
  5
8A
330
1F
100
AcDbEntity
  8
0
  6
SLD-Durchgehend
 62
     7
370
    25
100
AcDbLine
 10
526.2257606002
 20
1688.9402357809
 30
0.0
 11
534.1574818402
 21
1668.6497536909
 31
0.0
  0
LINE
  5
8B
330
1F
100
AcDbEntity
  8
0
  6
SLD-Durchgehend
 62
     7
370
    25
100
AcDbLine
 10
534.1574818402
 20
1668.6497536909
 30
0.0
 11
544.5677787802
 21
1628.1965432509
 31
0.0
  0
LINE
  5
8C
330
1F
100
AcDbEntity
  8
0
  6
SLD-Durchgehend
 62
     7
370
    25
100
AcDbLine
 10
547.6439506102
 20
1617.4865363209
 30
0.0
 11
544.5677787802
 21
1628.1965432509
 31
0.0
  0
LINE
  5
8D
330
1F
100
AcDbEntity
  8
0
  6
SLD-Durchgehend
 62
     7
370
    25
100
AcDbLine
 10
547.6439506102
 20
1617.4865363209
 30
0.0
 11
560.2610618602
 21
1574.2838470309
 31
0.0
  0
LINE
  5
8E
330
1F
100
AcDbEntity
  8
0
  6
SLD-Durchgehend
 62
     7
370
    25
100
AcDbLine
 10
560.2610618602
 20
1574.2838470309
 30
0.0
 11
568.2476610502
 21
1555.3208438809
 31
0.0
  0
LINE
  5
8F
330
1F
100
AcDbEntity
  8
0
  6
SLD-Durchgehend
 62
     7
370
    25
100
AcDbLine
 10
568.2476610502
 20
1555.3208438809
 30
0.0
 11
573.8843769802
 21
1538.8796536009
 31
0.0
  0
LINE
  5
90
330
1F
100
AcDbEntity
  8
0
  6
SLD-Durchgehend
 62
     7
370
    25
100
AcDbLine
 10
573.8843769802
 20
1538.8796536009
 30
0.0
 11
579.9701482702
 21
1507.1591524309
 31
0.0
  0
LINE
  5
91
330
1F
100
AcDbEntity
  8
0
  6
SLD-Durchgehend
 62
     7
370
    25
100
AcDbLine
 10
579.9701482702
 20
1507.1591524309
 30
0.0
 11
581.9834679802
 21
1489.3769381209
 31
0.0
  0
LINE
  5
92
330
1F
100
AcDbEntity
  8
0
  6
SLD-Durchgehend
 62
     7
370
    25
100
AcDbLine
 10
581.9834679802
 20
1489.3769381209
 30
0.0
 11
593.5691625802
 21
1474.0850476609
 31
0.0
  0
LINE
  5
93
330
1F
100
AcDbEntity
  8
0
  6
SLD-Durchgehend
 62
     7
370
    25
100
AcDbLine
 10
593.5691625802
 20
1474.0850476609
 30
0.0
 11
608.7008446702
 21
1445.5892456809
 31
0.0
  0
LINE
  5
94
330
1F
100
AcDbEntity
  8
0
  6
SLD-Durchgehend
 62
     7
370
    25
100
AcDbLine
 10
608.7008446702
 20
1445.5892456809
 30
0.0
 11
625.8125872402
 21
1391.0879386609
 31
0.0
  0
LINE
  5
95
330
1F
100
AcDbEntity
  8
0
  6
SLD-Durchgehend
 62
     7
370
    25
100
AcDbLine
 10
625.8125872402
 20
1391.0879386609
 30
0.0
 11
645.4667419702
 21
1346.5802406409
 31
0.0
  0
LINE
  5
96
330
1F
100
AcDbEntity
  8
0
  6
SLD-Durchgehend
 62
     7
370
    25
100
AcDbLine
 10
645.4667419702
 20
1346.5802406409
 30
0.0
 11
654.8915417002
 21
1306.9316392909
 31
0.0
  0
LINE
  5
97
330
1F
100
AcDbEntity
  8
0
  6
SLD-Durchgehend
 62
     7
370
    25
100
AcDbLine
 10
654.8915417002
 20
1306.9316392909
 30
0.0
 11
659.4374568202
 21
1273.0718417209
 31
0.0
  0
LINE
  5
98
330
1F
100
AcDbEntity
  8
0
  6
SLD-Durchgehend
 62
     7
370
    25
100
AcDbLine
 10
659.4374568202
 20
1273.0718417209
 30
0.0
 11
667.6031739202
 21
1233.6806418109
 31
0.0
  0
LINE
  5
99
330
1F
100
AcDbEntity
  8
0
  6
SLD-Durchgehend
 62
     7
370
    25
100
AcDbLine
 10
667.6031739202
 20
1233.6806418109
 30
0.0
 11
669.5363492602
 21
1215.4070435209
 31
0.0
  0
LINE
  5
9A
330
1F
100
AcDbEntity
  8
0
  6
SLD-Durchgehend
 62
     7
370
    25
100
AcDbLine
 10
669.5363492602
 20
1215.4070435209
 30
0.0
 11
682.6439828302
 21
1190.6507404609
 31
0.0
  0
LINE
  5
9B
330
1F
100
AcDbEntity
  8
0
  6
SLD-Durchgehend
 62
     7
370
    25
100
AcDbLine
 10
682.6439828302
 20
1190.6507404609
 30
0.0
 11
693.6437756302
 21
1165.1438412709
 31
0.0
  0
LINE
  5
9C
330
1F
100
AcDbEntity
  8
0
  6
SLD-Durchgehend
 62
     7
370
    25
100
AcDbLine
 10
693.6437756302
 20
1165.1438412709
 30
0.0
 11
695.7560688802
 21
1130.2886424409
 31
0.0
  0
LINE
  5
9D
330
1F
100
AcDbEntity
  8
0
  6
SLD-Durchgehend
 62
     7
370
    25
100
AcDbLine
 10
695.7560688802
 20
1130.2886424409
 30
0.0
 11
706.9664687902
 21
1108.6400372209
 31
0.0
  0
LINE
  5
9E
330
1F
100
AcDbEntity
  8
0
  6
SLD-Durchgehend
 62
     7
370
    25
100
AcDbLine
 10
706.9664687902
 20
1108.6400372209
 30
0.0
 11
716.8718666302
 21
1044.3854404609
 31
0.0
  0
LINE
  5
9F
330
1F
100
AcDbEntity
  8
0
  6
SLD-Durchgehend
 62
     7
370
    25
100
AcDbLine
 10
716.8718666302
 20
1044.3854404609
 30
0.0
 11
737.6164198702
 21
983.2808432509
 31
0.0
  0
LINE
  5
A0
330
1F
100
AcDbEntity
  8
0
  6
SLD-Durchgehend
 62
     7
370
    25
100
AcDbLine
 10
737.6164198702
 20
983.2808432509
 30
0.0
 11
760.5470806702
 21
936.2108377609
 31
0.0
  0
LINE
  5
A1
330
1F
100
AcDbEntity
  8
0
  6
SLD-Durchgehend
 62
     7
370
    25
100
AcDbLine
 10
760.5470806702
 20
936.2108377609
 30
0.0
 11
772.3451525902
 21
889.2677543209
 31
0.0
  0
LINE
  5
A2
330
1F
100
AcDbEntity
  8
0
  6
SLD-Durchgehend
 62
     7
370
    25
100
AcDbLine
 10
772.3451525902
 20
889.2677543209
 30
0.0
 11
778.0592769802
 21
870.9086505409
 31
0.0
  0
LINE
  5
A3
330
1F
100
AcDbEntity
  8
0
  6
SLD-Durchgehend
 62
     7
370
    25
100
AcDbLine
 10
778.0592769802
 20
870.9086505409
 30
0.0
 11
784.4645530402
 21
838.5878441509
 31
0.0
  0
LINE
  5
A4
330
1F
100
AcDbEntity
  8
0
  6
SLD-Durchgehend
 62
     7
370
    25
100
AcDbLine
 10
784.4645530402
 20
838.5878441509
 30
0.0
 11
789.9734885002
 21
818.7131313709
 31
0.0
  0
LINE
  5
A5
330
1F
100
AcDbEntity
  8
0
  6
SLD-Durchgehend
 62
     7
370
    25
100
AcDbLine
 10
789.9734885002
 20
818.7131313709
 30
0.0
 11
804.7433407102
 21
791.8103603509
 31
0.0
  0
LINE
  5
A6
330
1F
100
AcDbEntity
  8
0
  6
SLD-Durchgehend
 62
     7
370
    25
100
AcDbLine
 10
804.7433407102
 20
791.8103603509
 30
0.0
 11
817.3316449402
 21
762.9392234509
 31
0.0
  0
LINE
  5
A7
330
1F
100
AcDbEntity
  8
0
  6
SLD-Durchgehend
 62
     7
370
    25
100
AcDbLine
 10
817.3316449402
 20
762.9392234509
 30
0.0
 11
820.1288670802
 21
750.0935343409
 31
0.0
  0
LINE
  5
A8
330
1F
100
AcDbEntity
  8
0
  6
SLD-Durchgehend
 62
     7
370
    25
100
AcDbLine
 10
820.1288670802
 20
750.0935343409
 30
0.0
 11
817.3550874202
 21
719.6825412709
 31
0.0
  0
LINE
  5
A9
330
1F
100
AcDbEntity
  8
0
  6
SLD-Durchgehend
 62
     7
370
    25
100
AcDbLine
 10
817.3550874202
 20
719.6825412709
 30
0.0
 11
832.2905391802
 21
681.0644177809
 31
0.0
  0
LINE
  5
AA
330
1F
100
AcDbEntity
  8
0
  6
SLD-Durchgehend
 62
     7
370
    25
100
AcDbLine
 10
832.2905391802
 20
681.0644177809
 30
0.0
 11
833.6909741902
 21
674.1974262409
 31
0.0
  0
LINE
  5
AB
330
1F
100
AcDbEntity
  8
0
  6
SLD-Durchgehend
 62
     7
370
    25
100
AcDbLine
 10
833.6909741902
 20
674.1974262409
 30
0.0
 11
832.6388508802
 21
666.4151577409
 31
0.0
  0
LINE
  5
AC
330
1F
100
AcDbEntity
  8
0
  6
SLD-Durchgehend
 62
     7
370
    25
100
AcDbLine
 10
832.6388508802
 20
666.4151577409
 30
0.0
 11
837.5087768002
 21
644.6549323609
 31
0.0
  0
LINE
  5
AD
330
1F
100
AcDbEntity
  8
0
  6
SLD-Durchgehend
 62
     7
370
    25
100
AcDbLine
 10
837.5087768002
 20
644.6549323609
 30
0.0
 11
849.9665648302
 21
616.2023274109
 31
0.0
  0
LINE
  5
AE
330
1F
100
AcDbEntity
  8
0
  6
SLD-Durchgehend
 62
     7
370
    25
100
AcDbLine
 10
849.9665648302
 20
616.2023274109
 30
0.0
 11
861.0248834602
 21
567.6176516209
 31
0.0
  0
LINE
  5
AF
330
1F
100
AcDbEntity
  8
0
  6
SLD-Durchgehend
 62
     7
370
    25
100
AcDbLine
 10
861.0248834602
 20
567.6176516209
 30
0.0
 11
866.6561813002
 21
535.0520400109
 31
0.0
  0
LINE
  5
B0
330
1F
100
AcDbEntity
  8
0
  6
SLD-Durchgehend
 62
     7
370
    25
100
AcDbLine
 10
866.6561813002
 20
535.0520400109
 30
0.0
 11
866.7245776102
 21
521.2415603509
 31
0.0
  0
LINE
  5
B1
330
1F
100
AcDbEntity
  8
0
  6
SLD-Durchgehend
 62
     7
370
    25
100
AcDbLine
 10
866.7245776102
 20
521.2415603509
 30
0.0
 11
885.9215767102
 21
454.4435588209
 31
0.0
  0
LINE
  5
B2
330
1F
100
AcDbEntity
  8
0
  6
SLD-Durchgehend
 62
     7
370
    25
100
AcDbLine
 10
885.9215767102
 20
454.4435588209
 30
0.0
 11
887.1662825602
 21
422.4962500909
 31
0.0
  0
LINE
  5
B3
330
1F
100
AcDbEntity
  8
0
  6
SLD-Durchgehend
 62
     7
370
    25
100
AcDbLine
 10
887.1662825602
 20
422.4962500909
 30
0.0
 11
897.8159398102
 21
389.4203213809
 31
0.0
  0
LINE
  5
B4
330
1F
100
AcDbEntity
  8
0
  6
SLD-Durchgehend
 62
     7
370
    25
100
AcDbLine
 10
897.8159398102
 20
389.4203213809
 30
0.0
 11
902.2322506102
 21
379.3556538709
 31
0.0
  0
LINE
  5
B5
330
1F
100
AcDbEntity
  8
0
  6
SLD-Durchgehend
 62
     7
370
    25
100
AcDbLine
 10
902.2322506102
 20
379.3556538709
 30
0.0
 11
914.0915305402
 21
338.7854723209
 31
0.0
  0
LINE
  5
B6
330
1F
100
AcDbEntity
  8
0
  6
SLD-Durchgehend
 62
     7
370
    25
100
AcDbLine
 10
914.0915305402
 20
338.7854723209
 30
0.0
 11
913.7090474602
 21
290.9926918609
 31
0.0
  0
LINE
  5
B7
330
1F
100
AcDbEntity
  8
0
  6
SLD-Durchgehend
 62
     7
370
    25
100
AcDbLine
 10
913.7090474602
 20
290.9926918609
 30
0.0
 11
917.7734525002
 21
255.9682993309
 31
0.0
  0
LINE
  5
B8
330
1F
100
AcDbEntity
  8
0
  6
SLD-Durchgehend
 62
     7
370
    25
100
AcDbLine
 10
917.7734525002
 20
255.9682993309
 30
0.0
 11
912.0548755402
 21
247.5839284909
 31
0.0
  0
LINE
  5
B9
330
1F
100
AcDbEntity
  8
0
  6
SLD-Durchgehend
 62
     7
370
    25
100
AcDbLine
 10
912.0548755402
 20
247.5839284909
 30
0.0
 11
890.6843752702
 21
232.8643945609
 31
0.0
  0
LINE
  5
BA
330
1F
100
AcDbEntity
  8
0
  6
SLD-Durchgehend
 62
     7
370
    25
100
AcDbLine
 10
890.6843752702
 20
232.8643945609
 30
0.0
 11
845.9613768262
 21
191.7393638409
 31
0.0
  0
LINE
  5
BB
330
1F
100
AcDbEntity
  8
0
  6
SLD-Durchgehend
 62
     7
370
    25
100
AcDbLine
 10
845.9613768262
 20
191.7393638409
 30
0.0
 11
783.8169136474
 21
182.4199693067
 31
0.0
  0
LINE
  5
BC
330
1F
100
AcDbEntity
  8
0
  6
SLD-Durchgehend
 62
     7
370
    25
100
AcDbLine
 10
783.8169136474
 20
182.4199693067
 30
0.0
 11
712.5160189064
 21
191.7393638409
 31
0.0
  0
LINE
  5
BD
330
1F
100
AcDbEntity
  8
0
  6
SLD-Durchgehend
 62
     7
370
    25
100
AcDbLine
 10
712.5160189064
 20
191.7393638409
 30
0.0
 11
616.5650815702
 21
190.3565315509
 31
0.0
  0
LINE
  5
BE
330
1F
100
AcDbEntity
  8
0
  6
SLD-Durchgehend
 62
     7
370
    25
100
AcDbLine
 10
616.5650815702
 20
190.3565315509
 30
0.0
 11
589.4174785102
 21
193.1150225509
 31
0.0
  0
LINE
  5
BF
330
1F
100
AcDbEntity
  8
0
  6
SLD-Durchgehend
 62
     7
370
    25
100
AcDbLine
 10
589.4174785102
 20
193.1150225509
 30
0.0
 11
572.5595803102
 21
193.4678940109
 31
0.0
  0
LINE
  5
C0
330
1F
100
AcDbEntity
  8
0
  6
SLD-Durchgehend
 62
     7
370
    25
100
AcDbLine
 10
572.5595803102
 20
193.4678940109
 30
0.0
 11
543.2636119962
 21
190.3565315509
 31
0.0
  0
LINE
  5
C1
330
1F
100
AcDbEntity
  8
0
  6
SLD-Durchgehend
 62
     7
370
    25
100
AcDbLine
 10
543.2636119962
 20
190.3565315509
 30
0.0
 11
474.4003026194
 21
191.9122127809
 31
0.0
  0
LINE
  5
C2
330
1F
100
AcDbEntity
  8
0
  6
SLD-Durchgehend
 62
     7
370
    25
100
AcDbLine
 10
474.4003026194
 20
191.9122127809
 30
0.0
 11
406.0018856618
 21
195.8290425709
 31
0.0
  0
LINE
  5
C3
330
1F
100
AcDbEntity
  8
0
  6
SLD-Durchgehend
 62
     7
370
    25
100
AcDbLine
 10
406.0018856618
 20
195.8290425709
 30
0.0
 11
366.1274671702
 21
209.1395048209
 31
0.0
  0
LINE
  5
C4
330
1F
100
AcDbEntity
  8
0
  6
SLD-Durchgehend
 62
     7
370
    25
100
AcDbLine
 10
366.1274671702
 20
209.1395048209
 30
0.0
 11
333.1676513302
 21
216.2630228209
 31
0.0
  0
LINE
  5
C5
330
1F
100
AcDbEntity
  8
0
  6
SLD-Durchgehend
 62
     7
370
    25
100
AcDbLine
 10
333.1676513302
 20
216.2630228209
 30
0.0
 11
315.0128514202
 21
214.5269898709
 31
0.0
  0
LINE
  5
C6
330
1F
100
AcDbEntity
  8
0
  6
SLD-Durchgehend
 62
     7
370
    25
100
AcDbLine
 10
315.0128514202
 20
214.5269898709
 30
0.0
 11
297.5663692402
 21
215.4836801509
 31
0.0
  0
LINE
  5
C7
330
1F
100
AcDbEntity
  8
0
  6
SLD-Durchgehend
 62
     7
370
    25
100
AcDbLine
 10
297.5663692402
 20
215.4836801509
 30
0.0
 11
288.5285587102
 21
217.7624849209
 31
0.0
  0
LINE
  5
C8
330
1F
100
AcDbEntity
  8
0
  6
SLD-Durchgehend
 62
     7
370
    25
100
AcDbLine
 10
288.5285587102
 20
217.7624849209
 30
0.0
 11
191.0552406037
 21
186.9590180056
 31
0.0
  0
LINE
  5
C9
330
1F
100
AcDbEntity
  8
0
  6
SLD-Durchgehend
 62
     7
370
    25
100
AcDbLine
 10
191.0552406037
 20
186.9590180056
 30
0.0
 11
133.6367994355
 21
191.7393638409
 31
0.0
  0
LINE
  5
CA
330
1F
100
AcDbEntity
  8
0
  6
SLD-Durchgehend
 62
     7
370
    25
100
AcDbLine
 10
133.6367994355
 20
191.7393638409
 30
0.0
 11
117.1519110706
 21
195.9771264713
 31
0.0
  0
LINE
  5
CB
330
1F
100
AcDbEntity
  8
0
  6
SLD-Durchgehend
 62
     7
370
    25
100
AcDbLine
 10
117.1519110706
 20
195.9771264713
 30
0.0
 11
106.0742609602
 21
233.4107068909
 31
0.0
  0
LINE
  5
CC
330
1F
100
AcDbEntity
  8
0
  6
SLD-Durchgehend
 62
     7
370
    25
100
AcDbLine
 10
106.0742609602
 20
233.4107068909
 30
0.0
 11
105.3668618602
 21
239.5613340709
 31
0.0
  0
LINE
  5
CD
330
1F
100
AcDbEntity
  8
0
  6
SLD-Durchgehend
 62
     7
370
    25
100
AcDbLine
 10
105.3668618602
 20
239.5613340709
 30
0.0
 11
96.2399617702
 21
301.1645941009
 31
0.0
  0
LINE
  5
CE
330
1F
100
AcDbEntity
  8
0
  6
SLD-Durchgehend
 62
     7
370
    25
100
AcDbLine
 10
96.2399617702
 20
301.1645941009
 30
0.0
 11
115.4333599702
 21
354.8747567509
 31
0.0
  0
LINE
  5
CF
330
1F
100
AcDbEntity
  8
0
  6
SLD-Durchgehend
 62
     7
370
    25
100
AcDbLine
 10
115.4333599702
 20
354.8747567509
 30
0.0
 11
118.5311638402
 21
366.9824627809
 31
0.0
  0
LINE
  5
D0
330
1F
100
AcDbEntity
  8
0
  6
SLD-Durchgehend
 62
     7
370
    25
100
AcDbLine
 10
118.5311638402
 20
366.9824627809
 30
0.0
 11
117.6186417802
 21
390.7124738809
 31
0.0
  0
LINE
  5
D1
330
1F
100
AcDbEntity
  8
0
  6
SLD-Durchgehend
 62
     7
370
    25
100
AcDbLine
 10
117.6186417802
 20
390.7124738809
 30
0.0
 11
126.4322609602
 21
411.5126578309
 31
0.0
  0
LINE
  5
D2
330
1F
100
AcDbEntity
  8
0
  6
SLD-Durchgehend
 62
     7
370
    25
100
AcDbLine
 10
126.4322609602
 20
411.5126578309
 30
0.0
 11
125.5907580802
 21
453.8873223709
 31
0.0
  0
LINE
  5
D3
330
1F
100
AcDbEntity
  8
0
  6
SLD-Durchgehend
 62
     7
370
    25
100
AcDbLine
 10
125.5907580802
 20
453.8873223709
 30
0.0
 11
140.0366664502
 21
515.1179162509
 31
0.0
  0
LINE
  5
D4
330
1F
100
AcDbEntity
  8
0
  6
SLD-Durchgehend
 62
     7
370
    25
100
AcDbLine
 10
140.0366664502
 20
515.1179162509
 30
0.0
 11
139.6118581702
 21
543.2303635009
 31
0.0
  0
LINE
  5
D5
330
1F
100
AcDbEntity
  8
0
  6
SLD-Durchgehend
 62
     7
370
    25
100
AcDbLine
 10
139.6118581702
 20
543.2303635009
 30
0.0
 11
135.5663627602
 21
573.6575571109
 31
0.0
  0
LINE
  5
D6
330
1F
100
AcDbEntity
  8
0
  6
SLD-Durchgehend
 62
     7
370
    25
100
AcDbLine
 10
135.5663627602
 20
573.6575571109
 30
0.0
 11
140.7584623102
 21
598.7693635909
 31
0.0
  0
LINE
  5
D7
330
1F
100
AcDbEntity
  8
0
  6
SLD-Durchgehend
 62
     7
370
    25
100
AcDbLine
 10
140.7584623102
 20
598.7693635909
 30
0.0
 11
143.7086642002
 21
619.0292684509
 31
0.0
  0
LINE
  5
D8
330
1F
100
AcDbEntity
  8
0
  6
SLD-Durchgehend
 62
     7
370
    25
100
AcDbLine
 10
143.7086642002
 20
619.0292684509
 30
0.0
 11
147.0962674402
 21
661.3913266009
 31
0.0
  0
LINE
  5
D9
330
1F
100
AcDbEntity
  8
0
  6
SLD-Durchgehend
 62
     7
370
    25
100
AcDbLine
 10
147.0962674402
 20
661.3913266009
 30
0.0
 11
162.7400637502
 21
724.4615403709
 31
0.0
  0
LINE
  5
DA
330
1F
100
AcDbEntity
  8
0
  6
SLD-Durchgehend
 62
     7
370
    25
100
AcDbLine
 10
162.7400637502
 20
724.4615403709
 30
0.0
 11
165.5687615902
 21
762.5792173309
 31
0.0
  0
LINE
  5
DB
330
1F
100
AcDbEntity
  8
0
  6
SLD-Durchgehend
 62
     7
370
    25
100
AcDbLine
 10
165.5687615902
 20
762.5792173309
 30
0.0
 11
168.9185589802
 21
778.3040431609
 31
0.0
  0
LINE
  5
DC
330
1F
100
AcDbEntity
  8
0
  6
SLD-Durchgehend
 62
     7
370
    25
100
AcDbLine
 10
168.9185589802
 20
778.3040431609
 30
0.0
 11
175.4444674402
 21
833.9069334409
 31
0.0
  0
LINE
  5
DD
330
1F
100
AcDbEntity
  8
0
  6
SLD-Durchgehend
 62
     7
370
    25
100
AcDbLine
 10
175.4444674402
 20
833.9069334409
 30
0.0
 11
187.6556665402
 21
876.8189517109
 31
0.0
  0
LINE
  5
DE
330
1F
100
AcDbEntity
  8
0
  6
SLD-Durchgehend
 62
     7
370
    25
100
AcDbLine
 10
187.6556665402
 20
876.8189517109
 30
0.0
 11
194.3975597902
 21
953.1326530609
 31
0.0
  0
LINE
  5
DF
330
1F
100
AcDbEntity
  8
0
  6
SLD-Durchgehend
 62
     7
370
    25
100
AcDbLine
 10
194.3975597902
 20
953.1326530609
 30
0.0
 11
212.0393604202
 21
999.4106290309
 31
0.0
  0
LINE
  5
E0
330
1F
100
AcDbEntity
  8
0
  6
SLD-Durchgehend
 62
     7
370
    25
100
AcDbLine
 10
212.0393604202
 20
999.4106290309
 30
0.0
 11
212.1545613202
 21
1043.4827429809
 31
0.0
  0
LINE
  5
E1
330
1F
100
AcDbEntity
  8
0
  6
SLD-Durchgehend
 62
     7
370
    25
100
AcDbLine
 10
212.1545613202
 20
1043.4827429809
 30
0.0
 11
224.8526618602
 21
1067.4902437009
 31
0.0
  0
LINE
  5
E2
330
1F
100
AcDbEntity
  8
0
  6
SLD-Durchgehend
 62
     7
370
    25
100
AcDbLine
 10
224.8526618602
 20
1067.4902437009
 30
0.0
 11
231.4469666302
 21
1107.8210381209
 31
0.0
  0
LINE
  5
E3
330
1F
100
AcDbEntity
  8
0
  6
SLD-Durchgehend
 62
     7
370
    25
100
AcDbLine
 10
231.4469666302
 20
1107.8210381209
 30
0.0
 11
231.1310560102
 21
1137.0206450509
 31
0.0
  0
LINE
  5
E4
330
1F
100
AcDbEntity
  8
0
  6
SLD-Durchgehend
 62
     7
370
    25
100
AcDbLine
 10
231.1310560102
 20
1137.0206450509
 30
0.0
 11
240.0995582602
 21
1155.8576447809
 31
0.0
  0
LINE
  5
E5
330
1F
100
AcDbEntity
  8
0
  6
SLD-Durchgehend
 62
     7
370
    25
100
AcDbLine
 10
240.0995582602
 20
1155.8576447809
 30
0.0
 11
251.0021746402
 21
1192.4372425309
 31
0.0
  0
LINE
  5
E6
330
1F
100
AcDbEntity
  8
0
  6
SLD-Durchgehend
 62
     7
370
    25
100
AcDbLine
 10
251.0021746402
 20
1192.4372425309
 30
0.0
 11
253.7777514202
 21
1207.6292408209
 31
0.0
  0
LINE
  5
E7
330
1F
100
AcDbEntity
  8
0
  6
SLD-Durchgehend
 62
     7
370
    25
100
AcDbLine
 10
253.7777514202
 20
1207.6292408209
 30
0.0
 11
255.0854624002
 21
1255.9079419909
 31
0.0
  0
LINE
  5
E8
330
1F
100
AcDbEntity
  8
0
  6
SLD-Durchgehend
 62
     7
370
    25
100
AcDbLine
 10
255.0854624002
 20
1255.9079419909
 30
0.0
 11
258.1112624002
 21
1264.0340411809
 31
0.0
  0
LINE
  5
E9
330
1F
100
AcDbEntity
  8
0
  6
SLD-Durchgehend
 62
     7
370
    25
100
AcDbLine
 10
258.1112624002
 20
1264.0340411809
 30
0.0
 11
259.0643585302
 21
1279.4204426209
 31
0.0
  0
LINE
  5
EA
330
1F
100
AcDbEntity
  8
0
  6
SLD-Durchgehend
 62
     7
370
    25
100
AcDbLine
 10
259.0643585302
 20
1279.4204426209
 30
0.0
 11
274.2833733802
 21
1317.2717428009
 31
0.0
  0
LINE
  5
EB
330
1F
100
AcDbEntity
  8
0
  6
SLD-Durchgehend
 62
     7
370
    25
100
AcDbLine
 10
274.2833733802
 20
1317.2717428009
 30
0.0
 11
279.6149612302
 21
1356.4253425309
 31
0.0
  0
LINE
  5
EC
330
1F
100
AcDbEntity
  8
0
  6
SLD-Durchgehend
 62
     7
370
    25
100
AcDbLine
 10
279.6149612302
 20
1356.4253425309
 30
0.0
 11
283.9349538502
 21
1368.0650365909
 31
0.0
  0
LINE
  5
ED
330
1F
100
AcDbEntity
  8
0
  6
SLD-Durchgehend
 62
     7
370
    25
100
AcDbLine
 10
283.9349538502
 20
1368.0650365909
 30
0.0
 11
309.2069686102
 21
1411.5638418109
 31
0.0
  0
LINE
  5
EE
330
1F
100
AcDbEntity
  8
0
  6
SLD-Durchgehend
 62
     7
370
    25
100
AcDbLine
 10
309.2069686102
 20
1411.5638418109
 30
0.0
 11
319.8566526802
 21
1458.5663361409
 31
0.0
  0
LINE
  5
EF
330
1F
100
AcDbEntity
  8
0
  6
SLD-Durchgehend
 62
     7
370
    25
100
AcDbLine
 10
319.8566526802
 20
1458.5663361409
 30
0.0
 11
337.7783686102
 21
1524.2159364109
 31
0.0
  0
LINE
  5
F0
330
1F
100
AcDbEntity
  8
0
  6
SLD-Durchgehend
 62
     7
370
    25
100
AcDbLine
 10
337.7783686102
 20
1524.2159364109
 30
0.0
 11
339.6557540302
 21
1543.8215432509
 31
0.0
  0
LINE
  5
F1
330
1F
100
AcDbEntity
  8
0
  6
SLD-Durchgehend
 62
     7
370
    25
100
AcDbLine
 10
339.6557540302
 20
1543.8215432509
 30
0.0
 11
343.3277517802
 21
1560.8828333509
 31
0.0
  0
LINE
  5
F2
330
1F
100
AcDbEntity
  8
0
  6
SLD-Durchgehend
 62
     7
370
    25
100
AcDbLine
 10
343.3277517802
 20
1560.8828333509
 30
0.0
 11
358.6808503402
 21
1574.5628503609
 31
0.0
  0
LINE
  5
F3
330
1F
100
AcDbEntity
  8
0
  6
SLD-Durchgehend
 62
     7
370
    25
100
AcDbLine
 10
358.6808503402
 20
1574.5628503609
 30
0.0
 11
373.2347578102
 21
1590.5954329009
 31
0.0
  0
LINE
  5
F4
330
1F
100
AcDbEntity
  8
0
  6
SLD-Durchgehend
 62
     7
370
    25
100
AcDbLine
 10
373.2347578102
 20
1590.5954329009
 30
0.0
 11
376.1120707702
 21
1609.5269469409
 31
0.0
  0
LINE
  5
F5
330
1F
100
AcDbEntity
  8
0
  6
SLD-Durchgehend
 62
     7
370
    25
100
AcDbLine
 10
377.2793680702
 20
1617.2120390209
 30
0.0
 11
376.1120707702
 21
1609.5269469409
 31
0.0
  0
LINE
  5
F6
330
1F
100
AcDbEntity
  8
0
  6
SLD-Durchgehend
 62
     7
370
    25
100
AcDbLine
 10
377.2793680702
 20
1617.2120390209
 30
0.0
 11
379.6931684302
 21
1633.0988435209
 31
0.0
  0
LINE
  5
F7
330
1F
100
AcDbEntity
  8
0
  6
SLD-Durchgehend
 62
     7
370
    25
100
AcDbLine
 10
379.6931684302
 20
1633.0988435209
 30
0.0
 11
396.3206649202
 21
1678.4318504509
 31
0.0
  0
LINE
  5
F8
330
1F
100
AcDbEntity
  8
0
  6
SLD-Durchgehend
 62
     7
370
    25
100
AcDbLine
 10
396.3206649202
 20
1678.4318504509
 30
0.0
 11
400.4382043874
 21
1711.7513952992
 31
0.0
  0
LINE
  5
F9
330
1F
100
AcDbEntity
  8
0
  6
SLD-Durchgehend
 62
     7
370
    25
100
AcDbLine
 10
400.4382043874
 20
1711.7513952992
 30
0.0
 11
409.6389194075
 21
1749.6841677506
 31
0.0
  0
LINE
  5
FA
330
1F
100
AcDbEntity
  8
0
  6
SLD-Durchgehend
 62
     7
370
    25
100
AcDbLine
 10
409.6389194075
 20
1749.6841677506
 30
0.0
 11
418.6827021539
 21
1775.0646001927
 31
0.0
  0
LINE
  5
FB
330
1F
100
AcDbEntity
  8
0
  6
SLD-Durchgehend
 62
     7
370
    25
100
AcDbLine
 10
418.6827021539
 20
1775.0646001927
 30
0.0
 11
424.9599931033
 21
1786.3861427979
 31
0.0
  0
LINE
  5
FC
330
1F
100
AcDbEntity
  8
0
  6
SLD-Durchgehend
 62
     7
370
    25
100
AcDbLine
 10
424.9599931033
 20
1786.3861427979
 30
0.0
 11
441.5053461166
 21
1797.5885850167
 31
0.0
  0
LINE
  5
FD
330
1F
100
AcDbEntity
  8
0
  6
SLD-Durchgehend
 62
     7
370
    25
100
AcDbLine
 10
441.5053461166
 20
1797.5885850167
 30
0.0
 11
449.1632670802
 21
1800.4115549509
 31
0.0
  0
LINE
  5
FE
330
1F
100
AcDbEntity
  8
0
  6
SLD-Durchgehend
 62
     7
370
    25
100
AcDbLine
 10
449.1632670802
 20
1800.4115549509
 30
0.0
 11
451.1306673502
 21
1800.8264390209
 31
0.0
  0
LINE
  5
FF
330
1F
100
AcDbEntity
  8
0
  6
SLD-Durchgehend
 62
     7
370
    25
100
AcDbLine
 10
368.6213583502
 20
994.0871415409
 30
0.0
 11
386.6987497102
 21
1071.0416359609
 31
0.0
  0
LINE
  5
100
330
1F
100
AcDbEntity
  8
0
  6
SLD-Durchgehend
 62
     7
370
    25
100
AcDbLine
 10
364.9988741002
 20
983.5697440609
 30
0.0
 11
368.6213583502
 21
994.0871415409
 31
0.0
  0
LINE
  5
101
330
1F
100
AcDbEntity
  8
0
  6
SLD-Durchgehend
 62
     7
370
    25
100
AcDbLine
 10
362.3042732902
 20
971.0300413609
 30
0.0
 11
364.9988741002
 21
983.5697440609
 31
0.0
  0
LINE
  5
102
330
1F
100
AcDbEntity
  8
0
  6
SLD-Durchgehend
 62
     7
370
    25
100
AcDbLine
 10
353.1422496202
 20
943.4747425309
 30
0.0
 11
362.3042732902
 21
971.0300413609
 31
0.0
  0
LINE
  5
103
330
1F
100
AcDbEntity
  8
0
  6
SLD-Durchgehend
 62
     7
370
    25
100
AcDbLine
 10
351.2711674402
 20
925.7798341609
 30
0.0
 11
353.1422496202
 21
943.4747425309
 31
0.0
  0
LINE
  5
104
330
1F
100
AcDbEntity
  8
0
  6
SLD-Durchgehend
 62
     7
370
    25
100
AcDbLine
 10
343.3034509702
 20
899.2145387509
 30
0.0
 11
351.2711674402
 21
925.7798341609
 31
0.0
  0
LINE
  5
105
330
1F
100
AcDbEntity
  8
0
  6
SLD-Durchgehend
 62
     7
370
    25
100
AcDbLine
 10
335.6813640202
 20
880.0139455009
 30
0.0
 11
343.3034509702
 21
899.2145387509
 31
0.0
  0
LINE
  5
106
330
1F
100
AcDbEntity
  8
0
  6
SLD-Durchgehend
 62
     7
370
    25
100
AcDbLine
 10
333.1406683402
 20
847.5239453209
 30
0.0
 11
335.6813640202
 21
880.0139455009
 31
0.0
  0
LINE
  5
107
330
1F
100
AcDbEntity
  8
0
  6
SLD-Durchgehend
 62
     7
370
    25
100
AcDbLine
 10
335.7902616802
 20
824.9078539609
 30
0.0
 11
333.1406683402
 21
847.5239453209
 31
0.0
  0
LINE
  5
108
330
1F
100
AcDbEntity
  8
0
  6
SLD-Durchgehend
 62
     7
370
    25
100
AcDbLine
 10
325.6319583502
 20
783.8372257909
 30
0.0
 11
335.7902616802
 21
824.9078539609
 31
0.0
  0
LINE
  5
109
330
1F
100
AcDbEntity
  8
0
  6
SLD-Durchgehend
 62
     7
370
    25
100
AcDbLine
 10
319.1240609602
 20
765.2513412709
 30
0.0
 11
325.6319583502
 21
783.8372257909
 31
0.0
  0
LINE
  5
10A
330
1F
100
AcDbEntity
  8
0
  6
SLD-Durchgehend
 62
     7
370
    25
100
AcDbLine
 10
317.5094516002
 20
750.8378473909
 30
0.0
 11
319.1240609602
 21
765.2513412709
 31
0.0
  0
LINE
  5
10B
330
1F
100
AcDbEntity
  8
0
  6
SLD-Durchgehend
 62
     7
370
    25
100
AcDbLine
 10
297.5843669002
 20
649.3808237209
 30
0.0
 11
317.5094516002
 21
750.8378473909
 31
0.0
  0
LINE
  5
10C
330
1F
100
AcDbEntity
  8
0
  6
SLD-Durchgehend
 62
     7
370
    25
100
AcDbLine
 10
295.9418624902
 20
631.7930428009
 30
0.0
 11
297.5843669002
 21
649.3808237209
 31
0.0
  0
LINE
  5
10D
330
1F
100
AcDbEntity
  8
0
  6
SLD-Durchgehend
 62
     7
370
    25
100
AcDbLine
 10
293.0384516902
 20
613.0316344309
 30
0.0
 11
295.9418624902
 21
631.7930428009
 31
0.0
  0
LINE
  5
10E
330
1F
100
AcDbEntity
  8
0
  6
SLD-Durchgehend
 62
     7
370
    25
100
AcDbLine
 10
290.4500663602
 20
605.3024200309
 30
0.0
 11
293.0384516902
 21
613.0316344309
 31
0.0
  0
LINE
  5
10F
330
1F
100
AcDbEntity
  8
0
  6
SLD-Durchgehend
 62
     7
370
    25
100
AcDbLine
 10
286.1084551102
 20
575.2667216509
 30
0.0
 11
290.4500663602
 21
605.3024200309
 31
0.0
  0
LINE
  5
110
330
1F
100
AcDbEntity
  8
0
  6
SLD-Durchgehend
 62
     7
370
    25
100
AcDbLine
 10
288.1982714902
 20
564.3587676409
 30
0.0
 11
286.1084551102
 21
575.2667216509
 31
0.0
  0
LINE
  5
111
330
1F
100
AcDbEntity
  8
0
  6
SLD-Durchgehend
 62
     7
370
    25
100
AcDbLine
 10
286.2866610502
 20
555.2003649409
 30
0.0
 11
288.1982714902
 21
564.3587676409
 31
0.0
  0
LINE
  5
112
330
1F
100
AcDbEntity
  8
0
  6
SLD-Durchgehend
 62
     7
370
    25
100
AcDbLine
 10
290.3852642002
 20
511.6277185909
 30
0.0
 11
286.2866610502
 21
555.2003649409
 31
0.0
  0
LINE
  5
113
330
1F
100
AcDbEntity
  8
0
  6
SLD-Durchgehend
 62
     7
370
    25
100
AcDbLine
 10
287.2766644702
 20
482.7170459509
 30
0.0
 11
290.3852642002
 21
511.6277185909
 31
0.0
  0
LINE
  5
114
330
1F
100
AcDbEntity
  8
0
  6
SLD-Durchgehend
 62
     7
370
    25
100
AcDbLine
 10
279.6788514202
 20
450.7976320909
 30
0.0
 11
287.2766644702
 21
482.7170459509
 31
0.0
  0
LINE
  5
115
330
1F
100
AcDbEntity
  8
0
  6
SLD-Durchgehend
 62
     7
370
    25
100
AcDbLine
 10
277.2389531302
 20
427.4120418109
 30
0.0
 11
279.6788514202
 21
450.7976320909
 31
0.0
  0
LINE
  5
116
330
1F
100
AcDbEntity
  8
0
  6
SLD-Durchgehend
 62
     7
370
    25
100
AcDbLine
 10
266.6243524102
 20
362.9603294809
 30
0.0
 11
277.2389531302
 21
427.4120418109
 31
0.0
  0
LINE
  5
117
330
1F
100
AcDbEntity
  8
0
  6
SLD-Durchgehend
 62
     7
370
    25
100
AcDbLine
 10
283.6928577202
 20
365.1113537809
 30
0.0
 11
266.6243524102
 21
362.9603294809
 31
0.0
  0
LINE
  5
118
330
1F
100
AcDbEntity
  8
0
  6
SLD-Durchgehend
 62
     7
370
    25
100
AcDbLine
 10
328.8044750902
 20
361.8668464909
 30
0.0
 11
283.6928577202
 21
365.1113537809
 31
0.0
  0
LINE
  5
119
330
1F
100
AcDbEntity
  8
0
  6
SLD-Durchgehend
 62
     7
370
    25
100
AcDbLine
 10
333.9164705002
 20
363.5597495509
 30
0.0
 11
328.8044750902
 21
361.8668464909
 31
0.0
  0
LINE
  5
11A
330
1F
100
AcDbEntity
  8
0
  6
SLD-Durchgehend
 62
     7
370
    25
100
AcDbLine
 10
345.7235545702
 20
362.2547475709
 30
0.0
 11
333.9164705002
 21
363.5597495509
 31
0.0
  0
LINE
  5
11B
330
1F
100
AcDbEntity
  8
0
  6
SLD-Durchgehend
 62
     7
370
    25
100
AcDbLine
 10
366.5486544802
 20
357.9032389309
 30
0.0
 11
345.7235545702
 21
362.2547475709
 31
0.0
  0
LINE
  5
11C
330
1F
100
AcDbEntity
  8
0
  6
SLD-Durchgehend
 62
     7
370
    25
100
AcDbLine
 10
423.7904549302
 20
368.3873502709
 30
0.0
 11
366.5486544802
 21
357.9032389309
 31
0.0
  0
LINE
  5
11D
330
1F
100
AcDbEntity
  8
0
  6
SLD-Durchgehend
 62
     7
370
    25
100
AcDbLine
 10
436.4768743702
 20
368.4791354209
 30
0.0
 11
423.7904549302
 21
368.3873502709
 31
0.0
  0
LINE
  5
11E
330
1F
100
AcDbEntity
  8
0
  6
SLD-Durchgehend
 62
     7
370
    25
100
AcDbLine
 10
581.1833650102
 20
346.0097340709
 30
0.0
 11
436.4768743702
 21
368.4791354209
 31
0.0
  0
LINE
  5
11F
330
1F
100
AcDbEntity
  8
0
  6
SLD-Durchgehend
 62
     7
370
    25
100
AcDbLine
 10
607.0385724802
 20
343.8713697109
 30
0.0
 11
581.1833650102
 21
346.0097340709
 31
0.0
  0
LINE
  5
120
330
1F
100
AcDbEntity
  8
0
  6
SLD-Durchgehend
 62
     7
370
    25
100
AcDbLine
 10
607.0385724802
 20
343.8713697109
 30
0.0
 11
616.1744445802
 21
347.0609454109
 31
0.0
  0
LINE
  5
121
330
1F
100
AcDbEntity
  8
0
  6
SLD-Durchgehend
 62
     7
370
    25
100
AcDbLine
 10
637.6871556502
 20
356.1932233609
 30
0.0
 11
616.1744445802
 21
347.0609454109
 31
0.0
  0
LINE
  5
122
330
1F
100
AcDbEntity
  8
0
  6
SLD-Durchgehend
 62
     7
370
    25
100
AcDbLine
 10
675.6329566402
 20
362.6642671909
 30
0.0
 11
637.6871556502
 21
356.1932233609
 31
0.0
  0
LINE
  5
123
330
1F
100
AcDbEntity
  8
0
  6
SLD-Durchgehend
 62
     7
370
    25
100
AcDbLine
 10
687.4733537602
 20
362.0981601709
 30
0.0
 11
675.6329566402
 21
362.6642671909
 31
0.0
  0
LINE
  5
124
330
1F
100
AcDbEntity
  8
0
  6
SLD-Durchgehend
 62
     7
370
    25
100
AcDbLine
 10
696.6335804002
 20
365.4047338009
 30
0.0
 11
687.4733537602
 21
362.0981601709
 31
0.0
  0
LINE
  5
125
330
1F
100
AcDbEntity
  8
0
  6
SLD-Durchgehend
 62
     7
370
    25
100
AcDbLine
 10
731.8577439502
 20
371.1980370409
 30
0.0
 11
696.6335804002
 21
365.4047338009
 31
0.0
  0
LINE
  5
126
330
1F
100
AcDbEntity
  8
0
  6
SLD-Durchgehend
 62
     7
370
    25
100
AcDbLine
 10
710.1038486302
 20
439.3073168809
 30
0.0
 11
731.8577439502
 21
371.1980370409
 31
0.0
  0
LINE
  5
127
330
1F
100
AcDbEntity
  8
0
  6
SLD-Durchgehend
 62
     7
370
    25
100
AcDbLine
 10
706.2689871502
 20
454.5002607109
 30
0.0
 11
710.1038486302
 21
439.3073168809
 31
0.0
  0
LINE
  5
128
330
1F
100
AcDbEntity
  8
0
  6
SLD-Durchgehend
 62
     7
370
    25
100
AcDbLine
 10
714.4445747302
 20
511.4747254309
 30
0.0
 11
706.2689871502
 21
454.5002607109
 31
0.0
  0
LINE
  5
129
330
1F
100
AcDbEntity
  8
0
  6
SLD-Durchgehend
 62
     7
370
    25
100
AcDbLine
 10
710.9579713102
 20
520.3856674609
 30
0.0
 11
714.4445747302
 21
511.4747254309
 31
0.0
  0
LINE
  5
12A
330
1F
100
AcDbEntity
  8
0
  6
SLD-Durchgehend
 62
     7
370
    25
100
AcDbLine
 10
703.4834594302
 20
529.0958194009
 30
0.0
 11
710.9579713102
 21
520.3856674609
 31
0.0
  0
LINE
  5
12B
330
1F
100
AcDbEntity
  8
0
  6
SLD-Durchgehend
 62
     7
370
    25
100
AcDbLine
 10
693.1442410702
 20
563.4938625109
 30
0.0
 11
703.4834594302
 21
529.0958194009
 31
0.0
  0
LINE
  5
12C
330
1F
100
AcDbEntity
  8
0
  6
SLD-Durchgehend
 62
     7
370
    25
100
AcDbLine
 10
679.4651360302
 20
604.9523381209
 30
0.0
 11
693.1442410702
 21
563.4938625109
 31
0.0
  0
LINE
  5
12D
330
1F
100
AcDbEntity
  8
0
  6
SLD-Durchgehend
 62
     7
370
    25
100
AcDbLine
 10
666.9038683402
 20
661.0547629609
 30
0.0
 11
679.4651360302
 21
604.9523381209
 31
0.0
  0
LINE
  5
12E
330
1F
100
AcDbEntity
  8
0
  6
SLD-Durchgehend
 62
     7
370
    25
100
AcDbLine
 10
665.2604788702
 20
685.8497468509
 30
0.0
 11
666.9038683402
 21
661.0547629609
 31
0.0
  0
LINE
  5
12F
330
1F
100
AcDbEntity
  8
0
  6
SLD-Durchgehend
 62
     7
370
    25
100
AcDbLine
 10
665.5637831002
 20
703.4681586409
 30
0.0
 11
665.2604788702
 21
685.8497468509
 31
0.0
  0
LINE
  5
130
330
1F
100
AcDbEntity
  8
0
  6
SLD-Durchgehend
 62
     7
370
    25
100
AcDbLine
 10
652.4309367502
 20
732.3032466709
 30
0.0
 11
665.5637831002
 21
703.4681586409
 31
0.0
  0
LINE
  5
131
330
1F
100
AcDbEntity
  8
0
  6
SLD-Durchgehend
 62
     7
370
    25
100
AcDbLine
 10
648.4610528602
 20
749.6993569309
 30
0.0
 11
652.4309367502
 21
732.3032466709
 31
0.0
  0
LINE
  5
132
330
1F
100
AcDbEntity
  8
0
  6
SLD-Durchgehend
 62
     7
370
    25
100
AcDbLine
 10
607.3076516902
 20
851.4839319109
 30
0.0
 11
648.4610528602
 21
749.6993569309
 31
0.0
  0
LINE
  5
133
330
1F
100
AcDbEntity
  8
0
  6
SLD-Durchgehend
 62
     7
370
    25
100
AcDbLine
 10
605.1899403502
 20
872.4287388409
 30
0.0
 11
607.3076516902
 21
851.4839319109
 31
0.0
  0
LINE
  5
134
330
1F
100
AcDbEntity
  8
0
  6
SLD-Durchgehend
 62
     7
370
    25
100
AcDbLine
 10
587.4599487202
 20
915.5072419009
 30
0.0
 11
605.1899403502
 21
872.4287388409
 31
0.0
  0
LINE
  5
135
330
1F
100
AcDbEntity
  8
0
  6
SLD-Durchgehend
 62
     7
370
    25
100
AcDbLine
 10
578.4545392702
 20
944.7770355109
 30
0.0
 11
587.4599487202
 21
915.5072419009
 31
0.0
  0
LINE
  5
136
330
1F
100
AcDbEntity
  8
0
  6
SLD-Durchgehend
 62
     7
370
    25
100
AcDbLine
 10
570.4580695102
 20
975.5642352409
 30
0.0
 11
578.4545392702
 21
944.7770355109
 31
0.0
  0
LINE
  5
137
330
1F
100
AcDbEntity
  8
0
  6
SLD-Durchgehend
 62
     7
370
    25
100
AcDbLine
 10
550.3538400802
 20
1066.6829390209
 30
0.0
 11
570.4580695102
 21
975.5642352409
 31
0.0
  0
LINE
  5
138
330
1F
100
AcDbEntity
  8
0
  6
SLD-Durchgehend
 62
     7
370
    25
100
AcDbLine
 10
550.8884579902
 20
1087.0733467609
 30
0.0
 11
550.3538400802
 21
1066.6829390209
 31
0.0
  0
LINE
  5
139
330
1F
100
AcDbEntity
  8
0
  6
SLD-Durchgehend
 62
     7
370
    25
100
AcDbLine
 10
548.9930480902
 20
1103.4668473009
 30
0.0
 11
550.8884579902
 21
1087.0733467609
 31
0.0
  0
LINE
  5
13A
330
1F
100
AcDbEntity
  8
0
  6
SLD-Durchgehend
 62
     7
370
    25
100
AcDbLine
 10
533.8253707702
 20
1149.5171440609
 30
0.0
 11
548.9930480902
 21
1103.4668473009
 31
0.0
  0
LINE
  5
13B
330
1F
100
AcDbEntity
  8
0
  6
SLD-Durchgehend
 62
     7
370
    25
100
AcDbLine
 10
533.8253707702
 20
1149.5171440609
 30
0.0
 11
530.2091628502
 21
1150.6016416309
 31
0.0
  0
LINE
  5
13C
330
1F
100
AcDbEntity
  8
0
  6
SLD-Durchgehend
 62
     7
370
    25
100
AcDbLine
 10
526.0574788702
 20
1161.1721401909
 30
0.0
 11
530.2091628502
 21
1150.6016416309
 31
0.0
  0
LINE
  5
13D
330
1F
100
AcDbEntity
  8
0
  6
SLD-Durchgehend
 62
     7
370
    25
100
AcDbLine
 10
525.1934857102
 20
1167.4037431609
 30
0.0
 11
526.0574788702
 21
1161.1721401909
 31
0.0
  0
LINE
  5
13E
330
1F
100
AcDbEntity
  8
0
  6
SLD-Durchgehend
 62
     7
370
    25
100
AcDbLine
 10
521.0921735602
 20
1180.4303405509
 30
0.0
 11
525.1934857102
 21
1167.4037431609
 31
0.0
  0
LINE
  5
13F
330
1F
100
AcDbEntity
  8
0
  6
SLD-Durchgehend
 62
     7
370
    25
100
AcDbLine
 10
511.8032545702
 20
1235.6831421709
 30
0.0
 11
521.0921735602
 21
1180.4303405509
 31
0.0
  0
LINE
  5
140
330
1F
100
AcDbEntity
  8
0
  6
SLD-Durchgehend
 62
     7
370
    25
100
AcDbLine
 10
501.1544555602
 20
1262.4824419009
 30
0.0
 11
511.8032545702
 21
1235.6831421709
 31
0.0
  0
LINE
  5
141
330
1F
100
AcDbEntity
  8
0
  6
SLD-Durchgehend
 62
     7
370
    25
100
AcDbLine
 10
497.5058466502
 20
1284.8285404609
 30
0.0
 11
501.1544555602
 21
1262.4824419009
 31
0.0
  0
LINE
  5
142
330
1F
100
AcDbEntity
  8
0
  6
SLD-Durchgehend
 62
     7
370
    25
100
AcDbLine
 10
486.3674372902
 20
1306.5023449609
 30
0.0
 11
497.5058466502
 21
1284.8285404609
 31
0.0
  0
LINE
  5
143
330
1F
100
AcDbEntity
  8
0
  6
SLD-Durchgehend
 62
     7
370
    25
100
AcDbLine
 10
469.9397653702
 20
1349.7356449609
 30
0.0
 11
486.3674372902
 21
1306.5023449609
 31
0.0
  0
LINE
  5
144
330
1F
100
AcDbEntity
  8
0
  6
SLD-Durchgehend
 62
     7
370
    25
100
AcDbLine
 10
469.9397653702
 20
1349.7356449609
 30
0.0
 11
445.9565520502
 21
1341.3584423509
 31
0.0
  0
LINE
  5
145
330
1F
100
AcDbEntity
  8
0
  6
SLD-Durchgehend
 62
     7
370
    25
100
AcDbLine
 10
442.7283396202
 20
1309.0847659009
 30
0.0
 11
445.9565520502
 21
1341.3584423509
 31
0.0
  0
LINE
  5
146
330
1F
100
AcDbEntity
  8
0
  6
SLD-Durchgehend
 62
     7
370
    25
100
AcDbLine
 10
442.7283396202
 20
1309.0847659009
 30
0.0
 11
423.5935963102
 21
1260.4492103209
 31
0.0
  0
LINE
  5
147
330
1F
100
AcDbEntity
  8
0
  6
SLD-Durchgehend
 62
     7
370
    25
100
AcDbLine
 10
426.5399606002
 20
1206.5078428009
 30
0.0
 11
423.5935963102
 21
1260.4492103209
 31
0.0
  0
LINE
  5
148
330
1F
100
AcDbEntity
  8
0
  6
SLD-Durchgehend
 62
     7
370
    25
100
AcDbLine
 10
409.0034634802
 20
1145.2061435209
 30
0.0
 11
426.5399606002
 21
1206.5078428009
 31
0.0
  0
LINE
  5
149
330
1F
100
AcDbEntity
  8
0
  6
SLD-Durchgehend
 62
     7
370
    25
100
AcDbLine
 10
398.1953680702
 20
1122.8843374009
 30
0.0
 11
409.0034634802
 21
1145.2061435209
 31
0.0
  0
LINE
  5
14A
330
1F
100
AcDbEntity
  8
0
  6
SLD-Durchgehend
 62
     7
370
    25
100
AcDbLine
 10
398.1953680702
 20
1122.8843374009
 30
0.0
 11
386.6987497102
 21
1071.0416359609
 31
0.0
  0
CIRCLE
  5
14B
330
1F
100
AcDbEntity
  8
0
  6
SLD-Durchgehend
 62
     7
370
    25
100
AcDbCircle
 10
445.2391063993
 20
1638.6319960941
 30
0.0
 40
6.125
  0
CIRCLE
  5
14C
330
1F
100
AcDbEntity
  8
0
  6
SLD-Durchgehend
 62
     7
370
    25
100
AcDbCircle
 10
758.8136653974
 20
213.2737459706
 30
0.0
 40
6.125
  0
CIRCLE
  5
14D
330
1F
100
AcDbEntity
  8
0
  6
SLD-Durchgehend
 62
     7
370
    25
100
AcDbCircle
 10
148.2824369475
 20
213.2737459706
 30
0.0
 40
6.125
  0
CIRCLE
  5
14E
330
1F
100
AcDbEntity
  8
0
  6
SLD-Durchgehend
 62
     7
370
    25
100
AcDbCircle
 10
507.5749449965
 20
213.2737459706
 30
0.0
 40
6.124999999999943
  0
CIRCLE
  5
14F
330
1F
100
AcDbEntity
  8
0
  6
SLD-Durchgehend
 62
     7
370
    25
100
AcDbCircle
 10
362.8768892884
 20
1286.78339898
 30
0.0
 40
6.125
  0
CIRCLE
  5
150
330
1F
100
AcDbEntity
  8
0
  6
SLD-Durchgehend
 62
     7
370
    25
100
AcDbCircle
 10
553.9255783907
 20
1261.78339898
 30
0.0
 40
4.5
  0
CIRCLE
  5
151
330
1F
100
AcDbEntity
  8
0
  6
SLD-Durchgehend
 62
     7
370
    25
100
AcDbCircle
 10
180.0442742163
 20
253.2737459706
 30
0.0
 40
4.5
  0
CIRCLE
  5
152
330
1F
100
AcDbEntity
  8
0
  6
SLD-Durchgehend
 62
     7
370
    25
100
AcDbCircle
 10
465.4040518888
 20
253.2737459706
 30
0.0
 40
4.5
  0
CIRCLE
  5
153
330
1F
100
AcDbEntity
  8
0
  6
SLD-Durchgehend
 62
     7
370
    25
100
AcDbCircle
 10
814.3565058325
 20
253.2737459706
 30
0.0
 40
4.5
  0
LINE
  5
154
330
1F
100
AcDbEntity
  8
0
  6
SLD-Durchgehend
 62
     2
420
 16776960
370
    25
100
AcDbLine
 10
512.8181400921
 20
272.4077816329
 30
0.0
 11
510.4463452203
 21
272.4077816329
 31
0.0
  0
LINE
  5
155
330
1F
100
AcDbEntity
  8
0
  6
SLD-Durchgehend
 62
     2
420
 16776960
370
    25
100
AcDbLine
 10
512.8181400921
 20
271.253935479
 30
0.0
 11
512.8181400921
 21
272.4077816329
 31
0.0
  0
LINE
  5
156
330
1F
100
AcDbEntity
  8
0
  6
SLD-Durchgehend
 62
     2
420
 16776960
370
    25
100
AcDbLine
 10
513.2668580408
 20
271.253935479
 30
0.0
 11
512.8181400921
 21
271.253935479
 31
0.0
  0
LINE
  5
157
330
1F
100
AcDbEntity
  8
0
  6
SLD-Durchgehend
 62
     2
420
 16776960
370
    25
100
AcDbLine
 10
513.2668580408
 20
272.4077816329
 30
0.0
 11
513.2668580408
 21
271.253935479
 31
0.0
  0
LINE
  5
158
330
1F
100
AcDbEntity
  8
0
  6
SLD-Durchgehend
 62
     2
420
 16776960
370
    25
100
AcDbLine
 10
513.8437811177
 20
272.4077816329
 30
0.0
 11
513.2668580408
 21
272.4077816329
 31
0.0
  0
LINE
  5
159
330
1F
100
AcDbEntity
  8
0
  6
SLD-Durchgehend
 62
     2
420
 16776960
370
    25
100
AcDbLine
 10
513.8437811177
 20
272.9206021457
 30
0.0
 11
513.8437811177
 21
272.4077816329
 31
0.0
  0
LINE
  5
15A
330
1F
100
AcDbEntity
  8
0
  6
SLD-Durchgehend
 62
     2
420
 16776960
370
    25
100
AcDbLine
 10
513.2668580408
 20
272.9206021457
 30
0.0
 11
513.8437811177
 21
272.9206021457
 31
0.0
  0
LINE
  5
15B
330
1F
100
AcDbEntity
  8
0
  6
SLD-Durchgehend
 62
     2
420
 16776960
370
    25
100
AcDbLine
 10
513.2668580408
 20
276.3821406072
 30
0.0
 11
513.2668580408
 21
272.9206021457
 31
0.0
  0
LINE
  5
15C
330
1F
100
AcDbEntity
  8
0
  6
SLD-Durchgehend
 62
     2
420
 16776960
370
    25
100
AcDbLine
 10
513.1757122075
 20
276.3821406072
 30
0.0
 11
513.2668580408
 21
276.3821406072
 31
0.0
  0
LINE
  5
15D
330
1F
100
AcDbEntity
  8
0
  6
SLD-Durchgehend
 62
     2
420
 16776960
370
    25
100
AcDbLine
 10
510.4463452203
 20
272.4077816329
 30
0.0
 11
513.1757122075
 21
276.3821406072
 31
0.0
  0
CIRCLE
  5
15E
330
1F
100
AcDbEntity
  8
0
  6
SLD-Durchgehend
 62
     7
370
    25
100
AcDbCircle
 10
836.6876608297
 20
293.2737459721
 30
0.0
 40
6.124999999999886
  0
CIRCLE
  5
15F
330
1F
100
AcDbEntity
  8
0
  6
SLD-Durchgehend
 62
     7
370
    25
100
AcDbCircle
 10
510.1622127942
 20
293.2737459721
 30
0.0
 40
6.124999999999943
  0
LINE
  5
160
330
1F
100
AcDbEntity
  8
0
  6
SLD-Durchgehend
 62
     2
420
 16776960
370
    25
100
AcDbLine
 10
512.8181400921
 20
275.0920765047
 30
0.0
 11
511.3277554767
 21
272.9206021457
 31
0.0
  0
LINE
  5
161
330
1F
100
AcDbEntity
  8
0
  6
SLD-Durchgehend
 62
     2
420
 16776960
370
    25
100
AcDbLine
 10
512.8181400921
 20
272.9206021457
 30
0.0
 11
512.8181400921
 21
275.0920765047
 31
0.0
  0
LINE
  5
162
330
1F
100
AcDbEntity
  8
0
  6
SLD-Durchgehend
 62
     2
420
 16776960
370
    25
100
AcDbLine
 10
511.3277554767
 20
272.9206021457
 30
0.0
 11
512.8181400921
 21
272.9206021457
 31
0.0
  0
CIRCLE
  5
163
330
1F
100
AcDbEntity
  8
0
  6
SLD-Durchgehend
 62
     7
370
    25
100
AcDbCircle
 10
456.2111850184
 20
1749.0438979684
 30
0.0
 40
6.125
  0
CIRCLE
  5
164
330
1F
100
AcDbEntity
  8
0
  6
SLD-Durchgehend
 62
     7
370
    25
100
AcDbCircle
 10
344.4510523806
 20
1234.169606824
 30
0.0
 40
6.125
  0
CIRCLE
  5
165
330
1F
100
AcDbEntity
  8
0
  6
SLD-Durchgehend
 62
     7
370
    25
100
AcDbCircle
 10
187.0800554472
 20
293.2737459721
 30
0.0
 40
6.125
  0
ENDSEC
  0
SECTION
  2
OBJECTS
  0
DICTIONARY
  5
C
330
0
100
AcDbDictionary
281
     1
  3
ACAD_DETAILVIEWSTYLE
350
16D
  3
ACAD_GROUP
350
D
  3
ACAD_LAYOUT
350
1A
  3
ACAD_MATERIAL
350
43
  3
ACAD_MLEADERSTYLE
350
6B
  3
ACAD_MLINESTYLE
350
17
  3
ACAD_PLOTSETTINGS
350
19
  3
ACAD_PLOTSTYLENAME
350
E
  3
ACAD_SCALELIST
350
47
  3
ACAD_SECTIONVIEWSTYLE
350
16E
  3
ACAD_TABLESTYLE
350
69
  3
ACAD_VISUALSTYLE
350
2A
  3
ACDB_RECOMPOSE_DATA
350
16A
  3
AcDbVariableDictionary
350
166
  0
SUN
  5
6D
330
29
100
AcDbSun
 90
        1
290
     0
 63
     7
421
 16777215
 40
1.0
291
     1
 91
  2455826
 92
 54000000
292
     0
 70
     2
 71
   256
280
     1
  0
DICTIONARY
  5
16D
102
{ACAD_REACTORS
330
C
102
}
330
C
100
AcDbDictionary
281
     1
  0
DICTIONARY
  5
D
102
{ACAD_REACTORS
330
C
102
}
330
C
100
AcDbDictionary
281
     1
  0
DICTIONARY
  5
1A
102
{ACAD_REACTORS
330
C
102
}
330
C
100
AcDbDictionary
281
     1
  3
Layout1
350
1E
  3
Layout2
350
26
  3
Model
350
22
  0
DICTIONARY
  5
43
102
{ACAD_REACTORS
330
C
102
}
330
C
100
AcDbDictionary
281
     1
  3
ByBlock
350
45
  3
ByLayer
350
44
  3
Global
350
46
  0
DICTIONARY
  5
6B
102
{ACAD_REACTORS
330
C
102
}
330
C
100
AcDbDictionary
281
     1
  3
Standard
350
6C
  0
DICTIONARY
  5
17
102
{ACAD_REACTORS
330
C
102
}
330
C
100
AcDbDictionary
281
     1
  3
Standard
350
18
  0
DICTIONARY
  5
19
102
{ACAD_REACTORS
330
C
102
}
330
C
100
AcDbDictionary
281
     1
  0
ACDBDICTIONARYWDFLT
  5
E
102
{ACAD_REACTORS
330
C
102
}
330
C
100
AcDbDictionary
281
     1
  3
Normal
350
F
100
AcDbDictionaryWithDefault
340
F
  0
DICTIONARY
  5
47
102
{ACAD_REACTORS
330
C
102
}
330
C
100
AcDbDictionary
281
     1
  3
A0
350
48
  3
A1
350
49
  3
A2
350
4A
  3
A3
350
4B
  3
A4
350
4C
  3
A5
350
4D
  3
A6
350
4E
  3
A7
350
4F
  3
A8
350
50
  3
A9
350
51
  3
B0
350
52
  3
B1
350
53
  3
B2
350
54
  3
B3
350
55
  3
B4
350
56
  3
B5
350
57
  3
B6
350
58
  3
B7
350
59
  3
B8
350
5A
  3
B9
350
5B
  3
C0
350
5C
  3
C1
350
5D
  3
C2
350
5E
  3
C3
350
5F
  3
C4
350
60
  3
C5
350
61
  3
C6
350
62
  3
C7
350
63
  3
C8
350
64
  3
C9
350
65
  3
D0
350
66
  3
D1
350
67
  3
D2
350
68
  0
DICTIONARY
  5
16E
102
{ACAD_REACTORS
330
C
102
}
330
C
100
AcDbDictionary
281
     1
  0
DICTIONARY
  5
69
102
{ACAD_REACTORS
330
C
102
}
330
C
100
AcDbDictionary
281
     1
  3
Standard
350
6A
  0
DICTIONARY
  5
2A
102
{ACAD_REACTORS
330
C
102
}
330
C
100
AcDbDictionary
281
     1
  3
2dWireframe
350
2F
  3
Basic
350
32
  3
Brighten
350
36
  3
ColorChange
350
3A
  3
Conceptual
350
34
  3
Dim
350
35
  3
EdgeColorOff
350
3D
  3
Facepattern
350
39
  3
Flat
350
2B
  3
FlatWithEdges
350
2C
  3
Gouraud
350
2D
  3
GouraudWithEdges
350
2E
  3
Hidden
350
31
  3
JitterOff
350
3B
  3
Linepattern
350
38
  3
OverhangOff
350
3C
  3
Realistic
350
33
  3
Shaded
350
42
  3
Shaded with edges
350
41
  3
Shades of Gray
350
3E
  3
Sketchy
350
3F
  3
Thicken
350
37
  3
Wireframe
350
30
  3
X-Ray
350
40
  0
XRECORD
  5
16A
102
{ACAD_REACTORS
330
C
102
}
330
C
100
AcDbXrecord
280
     1
 90
        1
330
6A
  0
DICTIONARY
  5
166
102
{ACAD_REACTORS
330
C
102
}
330
C
100
AcDbDictionary
281
     1
  3
CANNOSCALE
350
167
  3
CENTEREXE
350
16F
  3
CENTERLTYPEFILE
350
170
  3
CMLEADERSTYLE
350
16C
  3
CTABLESTYLE
350
16B
  0
LAYOUT
  5
1E
102
{ACAD_REACTORS
330
1A
102
}
330
1A
100
AcDbPlotSettings
  1

  2
none_device
  4

  6

 40
0.0
 41
0.0
 42
0.0
 43
0.0
 44
0.0
 45
0.0
 46
0.0
 47
0.0
 48
0.0
 49
0.0
140
0.0
141
0.0
142
1.0
143
1.0
 70
   688
 72
     1
 73
     0
 74
     5
  7

 75
    16
 76
     0
 77
     2
 78
   300
147
1.0
148
0.0
149
0.0
100
AcDbLayout
  1
Layout1
 70
     1
 71
     1
 10
0.0
 20
0.0
 11
420.0
 21
297.0
 12
0.0
 22
0.0
 32
0.0
 14
1.0000000000E+20
 24
1.0000000000E+20
 34
1.0000000000E+20
 15
-1.0000000000E+20
 25
-1.0000000000E+20
 35
-1.0000000000E+20
146
0.0
 13
0.0
 23
0.0
 33
0.0
 16
1.0
 26
0.0
 36
0.0
 17
0.0
 27
1.0
 37
0.0
 76
     0
330
1B
  0
LAYOUT
  5
26
102
{ACAD_REACTORS
330
1A
102
}
330
1A
100
AcDbPlotSettings
  1

  2
none_device
  4

  6

 40
0.0
 41
0.0
 42
0.0
 43
0.0
 44
0.0
 45
0.0
 46
0.0
 47
0.0
 48
0.0
 49
0.0
140
0.0
141
0.0
142
1.0
143
1.0
 70
   688
 72
     1
 73
     0
 74
     5
  7

 75
    16
 76
     0
 77
     2
 78
   300
147
1.0
148
0.0
149
0.0
100
AcDbLayout
  1
Layout2
 70
     1
 71
     2
 10
0.0
 20
0.0
 11
0.0
 21
0.0
 12
0.0
 22
0.0
 32
0.0
 14
0.0
 24
0.0
 34
0.0
 15
0.0
 25
0.0
 35
0.0
146
0.0
 13
0.0
 23
0.0
 33
0.0
 16
1.0
 26
0.0
 36
0.0
 17
0.0
 27
1.0
 37
0.0
 76
     0
330
23
  0
LAYOUT
  5
22
102
{ACAD_REACTORS
330
1A
102
}
330
1A
100
AcDbPlotSettings
  1

  2
none_device
  4
Letter_(8.50_x_11.00_Inches)
  6

 40
6.35
 41
6.35
 42
6.35000508
 43
6.35000508
 44
215.9
 45
279.4
 46
0.0
 47
0.0
 48
0.0
 49
0.0
140
0.0
141
0.0
142
1.0
143
1.0
 70
  1712
 72
     1
 73
     0
 74
     0
  7

 75
     0
 76
     0
 77
     2
 78
   300
147
1.0
148
0.0
149
0.0
100
AcDbLayout
  1
Model
 70
     1
 71
     0
 10
0.0
 20
0.0
 11
1000.0
 21
2000.0
 12
0.0
 22
0.0
 32
0.0
 14
0.0
 24
0.0
 34
0.0
 15
1000.0
 25
2000.0
 35
0.0
146
0.0
 13
0.0
 23
0.0
 33
0.0
 16
1.0
 26
0.0
 36
0.0
 17
0.0
 27
1.0
 37
0.0
 76
     0
330
1F
331
29
  0
MATERIAL
  5
45
102
{ACAD_REACTORS
330
43
102
}
330
43
100
AcDbMaterial
  1
ByBlock
 72
     1
 94
      127
  0
MATERIAL
  5
44
102
{ACAD_REACTORS
330
43
102
}
330
43
100
AcDbMaterial
  1
ByLayer
 72
     1
 94
      127
  0
MATERIAL
  5
46
102
{ACAD_REACTORS
330
43
102
}
330
43
100
AcDbMaterial
  1
Global
 72
     1
 94
      127
  0
MLEADERSTYLE
  5
6C
102
{ACAD_REACTORS
330
6B
102
}
330
6B
100
AcDbMLeaderStyle
179
     2
170
     2
171
     1
172
     0
 90
        2
 40
0.0
 41
0.0
173
     1
 91
-1056964608
340
14
 92
       -2
290
     1
 42
2.0
291
     1
 43
8.0
  3
Standard
341
0
 44
4.0
300

342
11
174
     1
178
     6
175
     1
176
     0
 93
-1056964608
 45
4.0
292
     0
297
     0
 46
4.0
343
0
 94
-1056964608
 47
1.0
 49
1.0
140
1.0
293
     1
141
0.0
294
     1
177
     0
142
1.0
295
     0
296
     0
143
3.75
271
     0
272
     9
273
     9
298
     0
  0
MLINESTYLE
  5
18
102
{ACAD_REACTORS
330
17
102
}
330
17
100
AcDbMlineStyle
  2
Standard
 70
     0
  3

 62
   256
 51
90.0
 52
90.0
 71
     2
 49
0.5
 62
   256
  6
BYLAYER
 49
-0.5
 62
   256
  6
BYLAYER
  0
ACDBPLACEHOLDER
  5
F
102
{ACAD_REACTORS
330
E
102
}
330
E
  0
SCALE
  5
48
102
{ACAD_REACTORS
330
47
102
}
330
47
100
AcDbScale
 70
     0
300
1:1
140
1.0
141
1.0
290
     1
  0
SCALE
  5
49
102
{ACAD_REACTORS
330
47
102
}
330
47
100
AcDbScale
 70
     0
300
1:2
140
1.0
141
2.0
290
     0
  0
SCALE
  5
4A
102
{ACAD_REACTORS
330
47
102
}
330
47
100
AcDbScale
 70
     0
300
1:4
140
1.0
141
4.0
290
     0
  0
SCALE
  5
4B
102
{ACAD_REACTORS
330
47
102
}
330
47
100
AcDbScale
 70
     0
300
1:5
140
1.0
141
5.0
290
     0
  0
SCALE
  5
4C
102
{ACAD_REACTORS
330
47
102
}
330
47
100
AcDbScale
 70
     0
300
1:8
140
1.0
141
8.0
290
     0
  0
SCALE
  5
4D
102
{ACAD_REACTORS
330
47
102
}
330
47
100
AcDbScale
 70
     0
300
1:10
140
1.0
141
10.0
290
     0
  0
SCALE
  5
4E
102
{ACAD_REACTORS
330
47
102
}
330
47
100
AcDbScale
 70
     0
300
1:16
140
1.0
141
16.0
290
     0
  0
SCALE
  5
4F
102
{ACAD_REACTORS
330
47
102
}
330
47
100
AcDbScale
 70
     0
300
1:20
140
1.0
141
20.0
290
     0
  0
SCALE
  5
50
102
{ACAD_REACTORS
330
47
102
}
330
47
100
AcDbScale
 70
     0
300
1:30
140
1.0
141
30.0
290
     0
  0
SCALE
  5
51
102
{ACAD_REACTORS
330
47
102
}
330
47
100
AcDbScale
 70
     0
300
1:40
140
1.0
141
40.0
290
     0
  0
SCALE
  5
52
102
{ACAD_REACTORS
330
47
102
}
330
47
100
AcDbScale
 70
     0
300
1:50
140
1.0
141
50.0
290
     0
  0
SCALE
  5
53
102
{ACAD_REACTORS
330
47
102
}
330
47
100
AcDbScale
 70
     0
300
1:100
140
1.0
141
100.0
290
     0
  0
SCALE
  5
54
102
{ACAD_REACTORS
330
47
102
}
330
47
100
AcDbScale
 70
     0
300
2:1
140
2.0
141
1.0
290
     0
  0
SCALE
  5
55
102
{ACAD_REACTORS
330
47
102
}
330
47
100
AcDbScale
 70
     0
300
4:1
140
4.0
141
1.0
290
     0
  0
SCALE
  5
56
102
{ACAD_REACTORS
330
47
102
}
330
47
100
AcDbScale
 70
     0
300
8:1
140
8.0
141
1.0
290
     0
  0
SCALE
  5
57
102
{ACAD_REACTORS
330
47
102
}
330
47
100
AcDbScale
 70
     0
300
10:1
140
10.0
141
1.0
290
     0
  0
SCALE
  5
58
102
{ACAD_REACTORS
330
47
102
}
330
47
100
AcDbScale
 70
     0
300
100:1
140
100.0
141
1.0
290
     0
  0
SCALE
  5
59
102
{ACAD_REACTORS
330
47
102
}
330
47
100
AcDbScale
 70
     0
300
1/128" = 1'-0"
140
0.0078125
141
12.0
290
     0
  0
SCALE
  5
5A
102
{ACAD_REACTORS
330
47
102
}
330
47
100
AcDbScale
 70
     0
300
1/64" = 1'-0"
140
0.015625
141
12.0
290
     0
  0
SCALE
  5
5B
102
{ACAD_REACTORS
330
47
102
}
330
47
100
AcDbScale
 70
     0
300
1/32" = 1'-0"
140
0.03125
141
12.0
290
     0
  0
SCALE
  5
5C
102
{ACAD_REACTORS
330
47
102
}
330
47
100
AcDbScale
 70
     0
300
1/16" = 1'-0"
140
0.0625
141
12.0
290
     0
  0
SCALE
  5
5D
102
{ACAD_REACTORS
330
47
102
}
330
47
100
AcDbScale
 70
     0
300
3/32" = 1'-0"
140
0.09375
141
12.0
290
     0
  0
SCALE
  5
5E
102
{ACAD_REACTORS
330
47
102
}
330
47
100
AcDbScale
 70
     0
300
1/8" = 1'-0"
140
0.125
141
12.0
290
     0
  0
SCALE
  5
5F
102
{ACAD_REACTORS
330
47
102
}
330
47
100
AcDbScale
 70
     0
300
3/16" = 1'-0"
140
0.1875
141
12.0
290
     0
  0
SCALE
  5
60
102
{ACAD_REACTORS
330
47
102
}
330
47
100
AcDbScale
 70
     0
300
1/4" = 1'-0"
140
0.25
141
12.0
290
     0
  0
SCALE
  5
61
102
{ACAD_REACTORS
330
47
102
}
330
47
100
AcDbScale
 70
     0
300
3/8" = 1'-0"
140
0.375
141
12.0
290
     0
  0
SCALE
  5
62
102
{ACAD_REACTORS
330
47
102
}
330
47
100
AcDbScale
 70
     0
300
1/2" = 1'-0"
140
0.5
141
12.0
290
     0
  0
SCALE
  5
63
102
{ACAD_REACTORS
330
47
102
}
330
47
100
AcDbScale
 70
     0
300
3/4" = 1'-0"
140
0.75
141
12.0
290
     0
  0
SCALE
  5
64
102
{ACAD_REACTORS
330
47
102
}
330
47
100
AcDbScale
 70
     0
300
1" = 1'-0"
140
1.0
141
12.0
290
     0
  0
SCALE
  5
65
102
{ACAD_REACTORS
330
47
102
}
330
47
100
AcDbScale
 70
     0
300
1-1/2" = 1'-0"
140
1.5
141
12.0
290
     0
  0
SCALE
  5
66
102
{ACAD_REACTORS
330
47
102
}
330
47
100
AcDbScale
 70
     0
300
3" = 1'-0"
140
3.0
141
12.0
290
     0
  0
SCALE
  5
67
102
{ACAD_REACTORS
330
47
102
}
330
47
100
AcDbScale
 70
     0
300
6" = 1'-0"
140
6.0
141
12.0
290
     0
  0
SCALE
  5
68
102
{ACAD_REACTORS
330
47
102
}
330
47
100
AcDbScale
 70
     0
300
1'-0" = 1'-0"
140
12.0
141
12.0
290
     0
  0
TABLESTYLE
  5
6A
102
{ACAD_REACTORS
330
69
102
}
102
{ACAD_XDICTIONARY
360
168
102
}
330
69
100
AcDbTableStyle
  3
Standard
 70
     0
 71
     0
 40
0.06
 41
0.06
280
     0
281
     0
  7
Standard
140
4.5
170
     2
 62
     0
 63
   257
283
     0
 90
        4
 91
        0
  1

274
    -2
284
     1
 64
     0
275
    -2
285
     1
 65
     0
276
    -2
286
     1
 66
     0
277
    -2
287
     1
 67
     0
278
    -2
288
     1
 68
     0
279
    -2
289
     1
 69
     0
  7
Standard
140
6.0
170
     5
 62
     0
 63
   257
283
     0
 90
        4
 91
        0
  1

274
    -2
284
     1
 64
     0
275
    -2
285
     1
 65
     0
276
    -2
286
     1
 66
     0
277
    -2
287
     1
 67
     0
278
    -2
288
     1
 68
     0
279
    -2
289
     1
 69
     0
  7
Standard
140
4.5
170
     5
 62
     0
 63
   257
283
     0
 90
        4
 91
        0
  1

274
    -2
284
     1
 64
     0
275
    -2
285
     1
 65
     0
276
    -2
286
     1
 66
     0
277
    -2
287
     1
 67
     0
278
    -2
288
     1
 68
     0
279
    -2
289
     1
 69
     0
  0
VISUALSTYLE
  5
2F
102
{ACAD_REACTORS
330
2A
102
}
330
2A
100
AcDbVisualStyle
  2
2dWireframe
 70
     4
177
     3
291
     0
 70
    58
 90
        0
176
     1
 90
        2
176
     1
 90
        0
176
     1
 90
        0
176
     1
 40
0.6
176
     1
 40
30.0
176
     1
 62
     7
420
 16777215
176
     1
 90
        1
176
     1
 90
        4
176
     1
 62
     7
176
     1
 62
   257
176
     1
 90
        1
176
     1
 90
        1
176
     1
 40
1.0
176
     1
 90
        0
176
     1
 62
   257
176
     1
 40
1.0
176
     1
 90
        1
176
     1
 90
        6
176
     1
 90
        2
176
     1
 62
     7
176
     1
 90
        5
176
     1
 90
        0
176
     1
 90
        0
176
     1
290
     0
176
     1
 90
        1
176
     1
 40
0.0
176
     1
 90
        0
176
     1
290
     1
176
     1
290
     1
176
     1
290
     0
176
     1
290
     0
176
     1
290
     0
176
     1
290
     0
176
     1
290
     0
176
     1
290
     0
176
     1
290
     0
176
     1
 90
       50
176
     1
 40
0.0
176
     1
 40
1.0
176
     1
 90
        0
176
     1
 62
    18
420
        0
176
     1
 90
       50
176
     1
 90
        3
176
     1
 62
     5
420
      255
176
     1
290
     0
176
     1
 90
       50
176
     1
 90
       50
176
     1
 90
       50
176
     1
290
     0
176
     1
 90
       50
176
     1
 62
   256
176
     0
 40
1.0
176
     0
 90
        2
176
     1
  1
strokes_ogs.tif
176
     1
290
     0
176
     1
 40
1.0
176
     1
 40
1.0
176
     1
  0
VISUALSTYLE
  5
32
102
{ACAD_REACTORS
330
2A
102
}
330
2A
100
AcDbVisualStyle
  2
Basic
 70
     7
177
     3
291
     1
 70
    58
 90
        1
176
     1
 90
        0
176
     1
 90
        1
176
     1
 90
        0
176
     1
 40
0.6
176
     1
 40
30.0
176
     1
 62
     7
420
 16777215
176
     1
 90
        0
176
     1
 90
        4
176
     1
 62
     7
176
     1
 62
   257
176
     1
 90
        1
176
     1
 90
        1
176
     1
 40
1.0
176
     1
 90
        8
176
     1
 62
     7
176
     1
 40
1.0
176
     1
 90
        1
176
     1
 90
        6
176
     1
 90
        2
176
     1
 62
     7
176
     1
 90
        5
176
     1
 90
        0
176
     1
 90
        0
176
     1
290
     0
176
     1
 90
        1
176
     1
 40
0.0
176
     1
 90
        0
176
     1
290
     0
176
     1
290
     1
176
     1
290
     1
176
     1
290
     0
176
     1
290
     0
176
     1
290
     0
176
     1
290
     0
176
     1
290
     0
176
     1
290
     0
176
     1
 90
       50
176
     1
 40
0.0
176
     1
 40
1.0
176
     1
 90
        0
176
     1
 62
    18
420
        0
176
     1
 90
       50
176
     1
 90
        3
176
     1
 62
     5
420
      255
176
     1
290
     0
176
     1
 90
       50
176
     1
 90
       50
176
     1
 90
       50
176
     1
290
     0
176
     1
 90
       50
176
     1
 62
   256
176
     0
 40
1.0
176
     0
 90
        2
176
     1
  1
strokes_ogs.tif
176
     1
290
     0
176
     1
 40
1.0
176
     1
 40
1.0
176
     1
  0
VISUALSTYLE
  5
36
102
{ACAD_REACTORS
330
2A
102
}
330
2A
100
AcDbVisualStyle
  2
Brighten
 70
    12
177
     3
291
     1
 70
    58
 90
        2
176
     1
 90
        2
176
     1
 90
        0
176
     1
 90
        0
176
     1
 40
0.6
176
     1
 40
30.0
176
     1
 62
     7
420
 16777215
176
     1
 90
        1
176
     1
 90
        4
176
     1
 62
     7
176
     1
 62
   257
176
     1
 90
        1
176
     1
 90
        1
176
     1
 40
1.0
176
     1
 90
        8
176
     1
 62
     7
176
     1
 40
1.0
176
     1
 90
        1
176
     1
 90
        6
176
     1
 90
        2
176
     1
 62
     7
176
     1
 90
        5
176
     1
 90
        0
176
     1
 90
        0
176
     1
290
     0
176
     1
 90
        1
176
     1
 40
50.0
176
     1
 90
        0
176
     1
290
     0
176
     1
290
     1
176
     1
290
     1
176
     1
290
     0
176
     1
290
     0
176
     1
290
     0
176
     1
290
     0
176
     1
290
     0
176
     1
290
     0
176
     1
 90
       50
176
     1
 40
0.0
176
     1
 40
1.0
176
     1
 90
        0
176
     1
 62
    18
420
        0
176
     1
 90
       50
176
     1
 90
        3
176
     1
 62
     5
420
      255
176
     1
290
     0
176
     1
 90
       50
176
     1
 90
       50
176
     1
 90
       50
176
     1
290
     0
176
     1
 90
       50
176
     1
 62
   256
176
     0
 40
1.0
176
     0
 90
        2
176
     1
  1
strokes_ogs.tif
176
     1
290
     0
176
     1
 40
1.0
176
     1
 40
1.0
176
     1
  0
VISUALSTYLE
  5
3A
102
{ACAD_REACTORS
330
2A
102
}
330
2A
100
AcDbVisualStyle
  2
ColorChange
 70
    16
177
     3
291
     1
 70
    58
 90
        2
176
     1
 90
        2
176
     1
 90
        3
176
     1
 90
        0
176
     1
 40
0.6
176
     1
 40
30.0
176
     1
 62
     8
420
  8421504
176
     1
 90
        1
176
     1
 90
        4
176
     1
 62
     7
176
     1
 62
   257
176
     1
 90
        1
176
     1
 90
        1
176
     1
 40
1.0
176
     1
 90
        8
176
     1
 62
     8
420
  8421504
176
     1
 40
1.0
176
     1
 90
        1
176
     1
 90
        6
176
     1
 90
        2
176
     1
 62
     7
176
     1
 90
        5
176
     1
 90
        0
176
     1
 90
        0
176
     1
290
     0
176
     1
 90
        1
176
     1
 40
0.0
176
     1
 90
        0
176
     1
290
     0
176
     1
290
     1
176
     1
290
     1
176
     1
290
     0
176
     1
290
     0
176
     1
290
     0
176
     1
290
     0
176
     1
290
     0
176
     1
290
     0
176
     1
 90
       50
176
     1
 40
0.0
176
     1
 40
1.0
176
     1
 90
        0
176
     1
 62
    18
420
        0
176
     1
 90
       50
176
     1
 90
        3
176
     1
 62
     5
420
      255
176
     1
290
     0
176
     1
 90
       50
176
     1
 90
       50
176
     1
 90
       50
176
     1
290
     0
176
     1
 90
       50
176
     1
 62
   256
176
     0
 40
1.0
176
     0
 90
        2
176
     1
  1
strokes_ogs.tif
176
     1
290
     0
176
     1
 40
1.0
176
     1
 40
1.0
176
     1
  0
VISUALSTYLE
  5
34
102
{ACAD_REACTORS
330
2A
102
}
330
2A
100
AcDbVisualStyle
  2
Conceptual
 70
     9
177
     3
291
     0
 70
    58
 90
        3
176
     1
 90
        2
176
     1
 90
        0
176
     1
 90
        0
176
     1
 40
0.6
176
     1
 40
30.0
176
     1
 62
     7
420
 16777215
176
     1
 90
        2
176
     1
 90
        2
176
     1
 62
     7
176
     1
 62
   257
176
     1
 90
        1
176
     1
 90
        1
176
     1
 40
179.0
176
     1
 90
        8
176
     1
 62
     7
176
     1
 40
1.0
176
     1
 90
        1
176
     1
 90
        6
176
     1
 90
        2
176
     1
 62
     7
176
     1
 90
        3
176
     1
 90
        0
176
     1
 90
        0
176
     1
290
     0
176
     1
 90
        1
176
     1
 40
0.0
176
     1
 90
        0
176
     1
290
     0
176
     1
290
     1
176
     1
290
     1
176
     1
290
     0
176
     1
290
     0
176
     1
290
     0
176
     1
290
     0
176
     1
290
     0
176
     1
290
     0
176
     1
 90
       50
176
     1
 40
0.0
176
     1
 40
1.0
176
     1
 90
        0
176
     1
 62
    18
420
        0
176
     1
 90
       50
176
     1
 90
        3
176
     1
 62
     5
420
      255
176
     1
290
     0
176
     1
 90
       50
176
     1
 90
       50
176
     1
 90
       50
176
     1
290
     0
176
     1
 90
       50
176
     1
 62
   256
176
     0
 40
1.0
176
     0
 90
        2
176
     1
  1
strokes_ogs.tif
176
     1
290
     0
176
     1
 40
1.0
176
     1
 40
1.0
176
     1
  0
VISUALSTYLE
  5
35
102
{ACAD_REACTORS
330
2A
102
}
330
2A
100
AcDbVisualStyle
  2
Dim
 70
    11
177
     3
291
     1
 70
    58
 90
        2
176
     1
 90
        2
176
     1
 90
        0
176
     1
 90
        0
176
     1
 40
0.6
176
     1
 40
30.0
176
     1
 62
     7
420
 16777215
176
     1
 90
        1
176
     1
 90
        4
176
     1
 62
     7
176
     1
 62
   257
176
     1
 90
        1
176
     1
 90
        1
176
     1
 40
1.0
176
     1
 90
        8
176
     1
 62
     7
176
     1
 40
1.0
176
     1
 90
        1
176
     1
 90
        6
176
     1
 90
        2
176
     1
 62
     7
176
     1
 90
        5
176
     1
 90
        0
176
     1
 90
        0
176
     1
290
     0
176
     1
 90
        1
176
     1
 40
-50.0
176
     1
 90
        0
176
     1
290
     0
176
     1
290
     1
176
     1
290
     1
176
     1
290
     0
176
     1
290
     0
176
     1
290
     0
176
     1
290
     0
176
     1
290
     0
176
     1
290
     0
176
     1
 90
       50
176
     1
 40
0.0
176
     1
 40
1.0
176
     1
 90
        0
176
     1
 62
    18
420
        0
176
     1
 90
       50
176
     1
 90
        3
176
     1
 62
     5
420
      255
176
     1
290
     0
176
     1
 90
       50
176
     1
 90
       50
176
     1
 90
       50
176
     1
290
     0
176
     1
 90
       50
176
     1
 62
   256
176
     0
 40
1.0
176
     0
 90
        2
176
     1
  1
strokes_ogs.tif
176
     1
290
     0
176
     1
 40
1.0
176
     1
 40
1.0
176
     1
  0
VISUALSTYLE
  5
3D
102
{ACAD_REACTORS
330
2A
102
}
330
2A
100
AcDbVisualStyle
  2
EdgeColorOff
 70
    22
177
     3
291
     1
 70
    58
 90
        2
176
     0
 90
        2
176
     0
 90
        0
176
     0
 90
        0
176
     0
 40
0.6
176
     0
 40
30.0
176
     0
 62
     7
420
 16777215
176
     0
 90
        1
176
     0
 90
        4
176
     0
 62
     7
176
     0
 62
   257
176
     0
 90
        1
176
     0
 90
        1
176
     0
 40
1.0
176
     0
 90
        8
176
     2
 62
     7
176
     0
 40
1.0
176
     0
 90
        1
176
     0
 90
        6
176
     0
 90
        2
176
     0
 62
     7
176
     0
 90
        5
176
     0
 90
        0
176
     0
 90
        0
176
     0
290
     0
176
     0
 90
        1
176
     0
 40
0.0
176
     0
 90
        0
176
     0
290
     0
176
     0
290
     1
176
     0
290
     1
176
     0
290
     0
176
     0
290
     0
176
     0
290
     0
176
     0
290
     0
176
     0
290
     0
176
     0
290
     0
176
     0
 90
       50
176
     0
 40
0.0
176
     0
 40
1.0
176
     0
 90
        0
176
     0
 62
    18
420
        0
176
     0
 90
       50
176
     0
 90
        3
176
     0
 62
     5
420
      255
176
     0
290
     0
176
     0
 90
       50
176
     0
 90
       50
176
     0
 90
       50
176
     0
290
     0
176
     0
 90
       50
176
     0
 62
   256
176
     0
 40
1.0
176
     0
 90
        2
176
     0
  1
strokes_ogs.tif
176
     0
290
     0
176
     0
 40
1.0
176
     0
 40
1.0
176
     0
  0
VISUALSTYLE
  5
39
102
{ACAD_REACTORS
330
2A
102
}
330
2A
100
AcDbVisualStyle
  2
Facepattern
 70
    15
177
     3
291
     1
 70
    58
 90
        2
176
     1
 90
        2
176
     1
 90
        0
176
     1
 90
        0
176
     1
 40
0.6
176
     1
 40
30.0
176
     1
 62
     7
420
 16777215
176
     1
 90
        1
176
     1
 90
        4
176
     1
 62
     7
176
     1
 62
   257
176
     1
 90
        1
176
     1
 90
        1
176
     1
 40
1.0
176
     1
 90
        8
176
     1
 62
     7
176
     1
 40
1.0
176
     1
 90
        1
176
     1
 90
        6
176
     1
 90
        2
176
     1
 62
     7
176
     1
 90
        5
176
     1
 90
        0
176
     1
 90
        0
176
     1
290
     0
176
     1
 90
        1
176
     1
 40
0.0
176
     1
 90
        0
176
     1
290
     0
176
     1
290
     1
176
     1
290
     1
176
     1
290
     0
176
     1
290
     0
176
     1
290
     0
176
     1
290
     0
176
     1
290
     0
176
     1
290
     0
176
     1
 90
       50
176
     1
 40
0.0
176
     1
 40
1.0
176
     1
 90
        0
176
     1
 62
    18
420
        0
176
     1
 90
       50
176
     1
 90
        3
176
     1
 62
     5
420
      255
176
     1
290
     0
176
     1
 90
       50
176
     1
 90
       50
176
     1
 90
       50
176
     1
290
     0
176
     1
 90
       50
176
     1
 62
   256
176
     0
 40
1.0
176
     0
 90
        2
176
     1
  1
strokes_ogs.tif
176
     1
290
     0
176
     1
 40
1.0
176
     1
 40
1.0
176
     1
  0
VISUALSTYLE
  5
2B
102
{ACAD_REACTORS
330
2A
102
}
330
2A
100
AcDbVisualStyle
  2
Flat
 70
     0
177
     3
291
     1
 70
    58
 90
        2
176
     1
 90
        1
176
     1
 90
        1
176
     1
 90
        2
176
     1
 40
0.6
176
     1
 40
30.0
176
     1
 62
     7
420
 16777215
176
     1
 90
        0
176
     1
 90
        0
176
     1
 62
     7
176
     1
 62
   257
176
     1
 90
        1
176
     1
 90
        1
176
     1
 40
1.0
176
     1
 90
        8
176
     1
 62
     7
176
     1
 40
1.0
176
     1
 90
        1
176
     1
 90
        6
176
     1
 90
        2
176
     1
 62
     7
176
     1
 90
        5
176
     1
 90
        0
176
     1
 90
        0
176
     1
290
     0
176
     1
 90
       13
176
     1
 40
0.0
176
     1
 90
        0
176
     1
290
     0
176
     1
290
     1
176
     1
290
     1
176
     1
290
     0
176
     1
290
     0
176
     1
290
     0
176
     1
290
     0
176
     1
290
     0
176
     1
290
     0
176
     1
 90
       50
176
     1
 40
0.0
176
     1
 40
1.0
176
     1
 90
        0
176
     1
 62
    18
420
        0
176
     1
 90
       50
176
     1
 90
        3
176
     1
 62
     5
420
      255
176
     1
290
     0
176
     1
 90
       50
176
     1
 90
       50
176
     1
 90
       50
176
     1
290
     0
176
     1
 90
       50
176
     1
 62
   256
176
     0
 40
1.0
176
     0
 90
        2
176
     1
  1
strokes_ogs.tif
176
     1
290
     0
176
     1
 40
1.0
176
     1
 40
1.0
176
     1
  0
VISUALSTYLE
  5
2C
102
{ACAD_REACTORS
330
2A
102
}
330
2A
100
AcDbVisualStyle
  2
FlatWithEdges
 70
     1
177
     3
291
     1
 70
    58
 90
        2
176
     1
 90
        1
176
     1
 90
        1
176
     1
 90
        2
176
     1
 40
0.6
176
     1
 40
30.0
176
     1
 62
     7
420
 16777215
176
     1
 90
        1
176
     1
 90
        0
176
     1
 62
     7
176
     1
 62
   257
176
     1
 90
        1
176
     1
 90
        1
176
     1
 40
1.0
176
     1
 90
        0
176
     1
 62
   257
176
     1
 40
1.0
176
     1
 90
        1
176
     1
 90
        6
176
     1
 90
        2
176
     1
 62
     7
176
     1
 90
        5
176
     1
 90
        0
176
     1
 90
        0
176
     1
290
     0
176
     1
 90
       13
176
     1
 40
0.0
176
     1
 90
        0
176
     1
290
     0
176
     1
290
     1
176
     1
290
     1
176
     1
290
     0
176
     1
290
     0
176
     1
290
     0
176
     1
290
     0
176
     1
290
     0
176
     1
290
     0
176
     1
 90
       50
176
     1
 40
0.0
176
     1
 40
1.0
176
     1
 90
        0
176
     1
 62
    18
420
        0
176
     1
 90
       50
176
     1
 90
        3
176
     1
 62
     5
420
      255
176
     1
290
     0
176
     1
 90
       50
176
     1
 90
       50
176
     1
 90
       50
176
     1
290
     0
176
     1
 90
       50
176
     1
 62
   256
176
     0
 40
1.0
176
     0
 90
        2
176
     1
  1
strokes_ogs.tif
176
     1
290
     0
176
     1
 40
1.0
176
     1
 40
1.0
176
     1
  0
VISUALSTYLE
  5
2D
102
{ACAD_REACTORS
330
2A
102
}
330
2A
100
AcDbVisualStyle
  2
Gouraud
 70
     2
177
     3
291
     1
 70
    58
 90
        2
176
     1
 90
        2
176
     1
 90
        1
176
     1
 90
        2
176
     1
 40
0.6
176
     1
 40
30.0
176
     1
 62
     7
420
 16777215
176
     1
 90
        0
176
     1
 90
        0
176
     1
 62
     7
176
     1
 62
   257
176
     1
 90
        1
176
     1
 90
        1
176
     1
 40
1.0
176
     1
 90
        0
176
     1
 62
     7
176
     1
 40
1.0
176
     1
 90
        1
176
     1
 90
        6
176
     1
 90
        2
176
     1
 62
     7
176
     1
 90
        5
176
     1
 90
        0
176
     1
 90
        0
176
     1
290
     0
176
     1
 90
       13
176
     1
 40
0.0
176
     1
 90
        0
176
     1
290
     0
176
     1
290
     1
176
     1
290
     1
176
     1
290
     0
176
     1
290
     0
176
     1
290
     0
176
     1
290
     0
176
     1
290
     0
176
     1
290
     0
176
     1
 90
       50
176
     1
 40
0.0
176
     1
 40
1.0
176
     1
 90
        0
176
     1
 62
    18
420
        0
176
     1
 90
       50
176
     1
 90
        3
176
     1
 62
     5
420
      255
176
     1
290
     0
176
     1
 90
       50
176
     1
 90
       50
176
     1
 90
       50
176
     1
290
     0
176
     1
 90
       50
176
     1
 62
   256
176
     0
 40
1.0
176
     0
 90
        2
176
     1
  1
strokes_ogs.tif
176
     1
290
     0
176
     1
 40
1.0
176
     1
 40
1.0
176
     1
  0
VISUALSTYLE
  5
2E
102
{ACAD_REACTORS
330
2A
102
}
330
2A
100
AcDbVisualStyle
  2
GouraudWithEdges
 70
     3
177
     3
291
     1
 70
    58
 90
        2
176
     1
 90
        2
176
     1
 90
        1
176
     1
 90
        2
176
     1
 40
0.6
176
     1
 40
30.0
176
     1
 62
     7
420
 16777215
176
     1
 90
        1
176
     1
 90
        0
176
     1
 62
     7
176
     1
 62
   257
176
     1
 90
        1
176
     1
 90
        1
176
     1
 40
1.0
176
     1
 90
        0
176
     1
 62
   257
176
     1
 40
1.0
176
     1
 90
        1
176
     1
 90
        6
176
     1
 90
        2
176
     1
 62
     7
176
     1
 90
        5
176
     1
 90
        0
176
     1
 90
        0
176
     1
290
     0
176
     1
 90
       13
176
     1
 40
0.0
176
     1
 90
        0
176
     1
290
     0
176
     1
290
     1
176
     1
290
     1
176
     1
290
     0
176
     1
290
     0
176
     1
290
     0
176
     1
290
     0
176
     1
290
     0
176
     1
290
     0
176
     1
 90
       50
176
     1
 40
0.0
176
     1
 40
1.0
176
     1
 90
        0
176
     1
 62
    18
420
        0
176
     1
 90
       50
176
     1
 90
        3
176
     1
 62
     5
420
      255
176
     1
290
     0
176
     1
 90
       50
176
     1
 90
       50
176
     1
 90
       50
176
     1
290
     0
176
     1
 90
       50
176
     1
 62
   256
176
     0
 40
1.0
176
     0
 90
        2
176
     1
  1
strokes_ogs.tif
176
     1
290
     0
176
     1
 40
1.0
176
     1
 40
1.0
176
     1
  0
VISUALSTYLE
  5
31
102
{ACAD_REACTORS
330
2A
102
}
330
2A
100
AcDbVisualStyle
  2
Hidden
 70
     6
177
     3
291
     0
 70
    58
 90
        1
176
     1
 90
        2
176
     1
 90
        2
176
     1
 90
        0
176
     1
 40
0.6
176
     1
 40
30.0
176
     1
 62
     7
420
 16777215
176
     1
 90
        2
176
     1
 90
        2
176
     1
 62
     7
176
     1
 62
   257
176
     1
 90
        2
176
     1
 90
        1
176
     1
 40
40.0
176
     1
 90
        0
176
     1
 62
   257
176
     1
 40
1.0
176
     1
 90
        1
176
     1
 90
        6
176
     1
 90
        2
176
     1
 62
     7
176
     1
 90
        3
176
     1
 90
        0
176
     1
 90
        0
176
     1
290
     0
176
     1
 90
        1
176
     1
 40
0.0
176
     1
 90
        0
176
     1
290
     0
176
     1
290
     1
176
     1
290
     1
176
     1
290
     0
176
     1
290
     0
176
     1
290
     0
176
     1
290
     0
176
     1
290
     0
176
     1
290
     0
176
     1
 90
       50
176
     1
 40
0.0
176
     1
 40
1.0
176
     1
 90
        0
176
     1
 62
    18
420
        0
176
     1
 90
       50
176
     1
 90
        3
176
     1
 62
     5
420
      255
176
     1
290
     0
176
     1
 90
       50
176
     1
 90
       50
176
     1
 90
       50
176
     1
290
     0
176
     1
 90
       50
176
     1
 62
   256
176
     0
 40
1.0
176
     0
 90
        2
176
     1
  1
strokes_ogs.tif
176
     1
290
     0
176
     1
 40
1.0
176
     1
 40
1.0
176
     1
  0
VISUALSTYLE
  5
3B
102
{ACAD_REACTORS
330
2A
102
}
330
2A
100
AcDbVisualStyle
  2
JitterOff
 70
    20
177
     3
291
     1
 70
    58
 90
        2
176
     0
 90
        2
176
     0
 90
        0
176
     0
 90
        0
176
     0
 40
0.6
176
     0
 40
30.0
176
     0
 62
     7
420
 16777215
176
     0
 90
        1
176
     0
 90
        4
176
     0
 62
     7
176
     0
 62
   257
176
     0
 90
        1
176
     0
 90
        1
176
     0
 40
1.0
176
     0
 90
       10
176
     2
 62
     7
176
     0
 40
1.0
176
     0
 90
        1
176
     0
 90
        6
176
     0
 90
        2
176
     0
 62
     7
176
     0
 90
        5
176
     0
 90
        0
176
     0
 90
        0
176
     0
290
     0
176
     0
 90
        1
176
     0
 40
0.0
176
     0
 90
        0
176
     0
290
     0
176
     0
290
     1
176
     0
290
     1
176
     0
290
     0
176
     0
290
     0
176
     0
290
     0
176
     0
290
     0
176
     0
290
     0
176
     0
290
     0
176
     0
 90
       50
176
     0
 40
0.0
176
     0
 40
1.0
176
     0
 90
        0
176
     0
 62
    18
420
        0
176
     0
 90
       50
176
     0
 90
        3
176
     0
 62
     5
420
      255
176
     0
290
     0
176
     0
 90
       50
176
     0
 90
       50
176
     0
 90
       50
176
     0
290
     0
176
     0
 90
       50
176
     0
 62
   256
176
     0
 40
1.0
176
     0
 90
        2
176
     0
  1
strokes_ogs.tif
176
     0
290
     0
176
     0
 40
1.0
176
     0
 40
1.0
176
     0
  0
VISUALSTYLE
  5
38
102
{ACAD_REACTORS
330
2A
102
}
330
2A
100
AcDbVisualStyle
  2
Linepattern
 70
    14
177
     3
291
     1
 70
    58
 90
        2
176
     1
 90
        2
176
     1
 90
        0
176
     1
 90
        0
176
     1
 40
0.6
176
     1
 40
30.0
176
     1
 62
     7
420
 16777215
176
     1
 90
        1
176
     1
 90
        4
176
     1
 62
     7
176
     1
 62
   257
176
     1
 90
        7
176
     1
 90
        7
176
     1
 40
1.0
176
     1
 90
        8
176
     1
 62
     7
176
     1
 40
1.0
176
     1
 90
        1
176
     1
 90
        6
176
     1
 90
        2
176
     1
 62
     7
176
     1
 90
        5
176
     1
 90
        0
176
     1
 90
        0
176
     1
290
     0
176
     1
 90
        1
176
     1
 40
0.0
176
     1
 90
        0
176
     1
290
     0
176
     1
290
     1
176
     1
290
     1
176
     1
290
     0
176
     1
290
     0
176
     1
290
     0
176
     1
290
     0
176
     1
290
     0
176
     1
290
     0
176
     1
 90
       50
176
     1
 40
0.0
176
     1
 40
1.0
176
     1
 90
        0
176
     1
 62
    18
420
        0
176
     1
 90
       50
176
     1
 90
        3
176
     1
 62
     5
420
      255
176
     1
290
     0
176
     1
 90
       50
176
     1
 90
       50
176
     1
 90
       50
176
     1
290
     0
176
     1
 90
       50
176
     1
 62
   256
176
     0
 40
1.0
176
     0
 90
        2
176
     1
  1
strokes_ogs.tif
176
     1
290
     0
176
     1
 40
1.0
176
     1
 40
1.0
176
     1
  0
VISUALSTYLE
  5
3C
102
{ACAD_REACTORS
330
2A
102
}
330
2A
100
AcDbVisualStyle
  2
OverhangOff
 70
    21
177
     3
291
     1
 70
    58
 90
        2
176
     0
 90
        2
176
     0
 90
        0
176
     0
 90
        0
176
     0
 40
0.6
176
     0
 40
30.0
176
     0
 62
     7
420
 16777215
176
     0
 90
        1
176
     0
 90
        4
176
     0
 62
     7
176
     0
 62
   257
176
     0
 90
        1
176
     0
 90
        1
176
     0
 40
1.0
176
     0
 90
        9
176
     2
 62
     7
176
     0
 40
1.0
176
     0
 90
        1
176
     0
 90
        6
176
     0
 90
        2
176
     0
 62
     7
176
     0
 90
        5
176
     0
 90
        0
176
     0
 90
        0
176
     0
290
     0
176
     0
 90
        1
176
     0
 40
0.0
176
     0
 90
        0
176
     0
290
     0
176
     0
290
     1
176
     0
290
     1
176
     0
290
     0
176
     0
290
     0
176
     0
290
     0
176
     0
290
     0
176
     0
290
     0
176
     0
290
     0
176
     0
 90
       50
176
     0
 40
0.0
176
     0
 40
1.0
176
     0
 90
        0
176
     0
 62
    18
420
        0
176
     0
 90
       50
176
     0
 90
        3
176
     0
 62
     5
420
      255
176
     0
290
     0
176
     0
 90
       50
176
     0
 90
       50
176
     0
 90
       50
176
     0
290
     0
176
     0
 90
       50
176
     0
 62
   256
176
     0
 40
1.0
176
     0
 90
        2
176
     0
  1
strokes_ogs.tif
176
     0
290
     0
176
     0
 40
1.0
176
     0
 40
1.0
176
     0
  0
VISUALSTYLE
  5
33
102
{ACAD_REACTORS
330
2A
102
}
330
2A
100
AcDbVisualStyle
  2
Realistic
 70
     8
177
     3
291
     0
 70
    58
 90
        2
176
     1
 90
        3
176
     1
 90
        0
176
     1
 90
        2
176
     1
 40
0.6
176
     1
 40
30.0
176
     1
 62
     7
420
 16777215
176
     1
 90
        0
176
     1
 90
        0
176
     1
 62
     7
176
     1
 62
   257
176
     1
 90
        1
176
     1
 90
        1
176
     1
 40
1.0
176
     1
 90
        8
176
     1
 62
   257
176
     1
 40
1.0
176
     1
 90
        1
176
     1
 90
        6
176
     1
 90
        2
176
     1
 62
     7
176
     1
 90
        3
176
     1
 90
        0
176
     1
 90
        0
176
     1
290
     0
176
     1
 90
       13
176
     1
 40
0.0
176
     1
 90
        0
176
     1
290
     0
176
     1
290
     1
176
     1
290
     1
176
     1
290
     0
176
     1
290
     0
176
     1
290
     0
176
     1
290
     0
176
     1
290
     0
176
     1
290
     0
176
     1
 90
       50
176
     1
 40
0.0
176
     1
 40
1.0
176
     1
 90
        0
176
     1
 62
    18
420
        0
176
     1
 90
       50
176
     1
 90
        3
176
     1
 62
     5
420
      255
176
     1
290
     0
176
     1
 90
       50
176
     1
 90
       50
176
     1
 90
       50
176
     1
290
     0
176
     1
 90
       50
176
     1
 62
   256
176
     0
 40
1.0
176
     0
 90
        2
176
     1
  1
strokes_ogs.tif
176
     1
290
     0
176
     1
 40
1.0
176
     1
 40
1.0
176
     1
  0
VISUALSTYLE
  5
42
102
{ACAD_REACTORS
330
2A
102
}
330
2A
100
AcDbVisualStyle
  2
Shaded
 70
    27
177
     3
291
     0
 70
    58
 90
        2
176
     1
 90
        2
176
     1
 90
        1
176
     1
 90
        2
176
     1
 40
0.6
176
     1
 40
30.0
176
     1
 62
     7
420
 16777215
176
     1
 90
        0
176
     1
 90
        4
176
     1
 62
     7
176
     1
 62
   257
176
     1
 90
        1
176
     1
 90
        1
176
     1
 40
1.0
176
     1
 90
        8
176
     1
 62
   257
176
     1
 40
1.0
176
     1
 90
        1
176
     1
 90
        6
176
     1
 90
        2
176
     1
 62
     8
420
  7895160
176
     1
 90
        3
176
     1
 90
        0
176
     1
 90
        0
176
     1
290
     0
176
     1
 90
        5
176
     1
 40
0.0
176
     1
 90
        0
176
     1
290
     0
176
     1
290
     1
176
     1
290
     1
176
     1
290
     0
176
     1
290
     0
176
     1
290
     0
176
     1
290
     0
176
     1
290
     0
176
     1
290
     0
176
     1
 90
       50
176
     1
 40
0.0
176
     1
 40
1.0
176
     1
 90
        0
176
     1
 62
    18
420
        0
176
     1
 90
       50
176
     1
 90
        3
176
     1
 62
     5
420
      255
176
     1
290
     0
176
     1
 90
       50
176
     1
 90
       50
176
     1
 90
       50
176
     1
290
     0
176
     1
 90
       50
176
     1
 62
   256
176
     0
 40
1.0
176
     0
 90
        2
176
     1
  1
strokes_ogs.tif
176
     1
290
     0
176
     1
 40
1.0
176
     1
 40
1.0
176
     1
  0
VISUALSTYLE
  5
41
102
{ACAD_REACTORS
330
2A
102
}
330
2A
100
AcDbVisualStyle
  2
Shaded with edges
 70
    26
177
     3
291
     0
 70
    58
 90
        2
176
     1
 90
        2
176
     1
 90
        1
176
     1
 90
        2
176
     1
 40
0.6
176
     1
 40
30.0
176
     1
 62
     7
420
 16777215
176
     1
 90
        1
176
     1
 90
       10
176
     1
 62
     7
176
     1
 62
   257
176
     1
 90
        2
176
     1
 90
        1
176
     1
 40
1.0
176
     1
 90
        8
176
     1
 62
   257
176
     1
 40
1.0
176
     1
 90
        1
176
     1
 90
        6
176
     1
 90
        2
176
     1
 62
     7
176
     1
 90
        3
176
     1
 90
        0
176
     1
 90
        0
176
     1
290
     0
176
     1
 90
        5
176
     1
 40
0.0
176
     1
 90
        0
176
     1
290
     0
176
     1
290
     1
176
     1
290
     1
176
     1
290
     0
176
     1
290
     0
176
     1
290
     0
176
     1
290
     0
176
     1
290
     0
176
     1
290
     0
176
     1
 90
       50
176
     1
 40
0.0
176
     1
 40
1.0
176
     1
 90
        0
176
     1
 62
    18
420
        0
176
     1
 90
       50
176
     1
 90
        3
176
     1
 62
     5
420
      255
176
     1
290
     0
176
     1
 90
       50
176
     1
 90
       50
176
     1
 90
       50
176
     1
290
     0
176
     1
 90
       50
176
     1
 62
   256
176
     0
 40
1.0
176
     0
 90
        2
176
     1
  1
strokes_ogs.tif
176
     1
290
     0
176
     1
 40
1.0
176
     1
 40
1.0
176
     1
  0
VISUALSTYLE
  5
3E
102
{ACAD_REACTORS
330
2A
102
}
330
2A
100
AcDbVisualStyle
  2
Shades of Gray
 70
    23
177
     3
291
     0
 70
    58
 90
        2
176
     1
 90
        2
176
     1
 90
        3
176
     1
 90
        0
176
     1
 40
0.6
176
     1
 40
30.0
176
     1
 62
     7
420
 16777215
176
     1
 90
        2
176
     1
 90
        2
176
     1
 62
     7
176
     1
 62
     7
176
     1
 90
        1
176
     1
 90
        1
176
     1
 40
40.0
176
     1
 90
        8
176
     1
 62
     7
176
     1
 40
1.0
176
     1
 90
        1
176
     1
 90
        6
176
     1
 90
        2
176
     1
 62
     7
176
     1
 90
        3
176
     1
 90
        0
176
     1
 90
        0
176
     1
290
     0
176
     1
 90
        1
176
     1
 40
0.0
176
     1
 90
        0
176
     1
290
     0
176
     1
290
     1
176
     1
290
     1
176
     1
290
     0
176
     1
290
     0
176
     1
290
     0
176
     1
290
     0
176
     1
290
     0
176
     1
290
     0
176
     1
 90
       50
176
     1
 40
0.0
176
     1
 40
1.0
176
     1
 90
        0
176
     1
 62
    18
420
        0
176
     1
 90
       50
176
     1
 90
        3
176
     1
 62
     5
420
      255
176
     1
290
     0
176
     1
 90
       50
176
     1
 90
       50
176
     1
 90
       50
176
     1
290
     0
176
     1
 90
       50
176
     1
 62
   256
176
     0
 40
1.0
176
     0
 90
        2
176
     1
  1
strokes_ogs.tif
176
     1
290
     0
176
     1
 40
1.0
176
     1
 40
1.0
176
     1
  0
VISUALSTYLE
  5
3F
102
{ACAD_REACTORS
330
2A
102
}
330
2A
100
AcDbVisualStyle
  2
Sketchy
 70
    24
177
     3
291
     0
 70
    58
 90
        1
176
     1
 90
        2
176
     1
 90
        2
176
     1
 90
        0
176
     1
 40
0.6
176
     1
 40
30.0
176
     1
 62
     7
420
 16777215
176
     1
 90
        2
176
     1
 90
        2
176
     1
 62
     7
176
     1
 62
     7
176
     1
 90
        1
176
     1
 90
        1
176
     1
 40
40.0
176
     1
 90
       11
176
     1
 62
     7
176
     1
 40
1.0
176
     1
 90
        1
176
     1
 90
        6
176
     1
 90
        2
176
     1
 62
     7
176
     1
 90
        6
176
     1
 90
        0
176
     1
 90
        0
176
     1
290
     0
176
     1
 90
        1
176
     1
 40
0.0
176
     1
 90
        0
176
     1
290
     0
176
     1
290
     1
176
     1
290
     1
176
     1
290
     0
176
     1
290
     0
176
     1
290
     0
176
     1
290
     0
176
     1
290
     0
176
     1
290
     0
176
     1
 90
       50
176
     1
 40
0.0
176
     1
 40
1.0
176
     1
 90
        0
176
     1
 62
    18
420
        0
176
     1
 90
       50
176
     1
 90
        3
176
     1
 62
     5
420
      255
176
     1
290
     0
176
     1
 90
       50
176
     1
 90
       50
176
     1
 90
       50
176
     1
290
     0
176
     1
 90
       50
176
     1
 62
   256
176
     0
 40
1.0
176
     0
 90
        2
176
     1
  1
strokes_ogs.tif
176
     1
290
     0
176
     1
 40
1.0
176
     1
 40
1.0
176
     1
  0
VISUALSTYLE
  5
37
102
{ACAD_REACTORS
330
2A
102
}
330
2A
100
AcDbVisualStyle
  2
Thicken
 70
    13
177
     3
291
     1
 70
    58
 90
        2
176
     1
 90
        2
176
     1
 90
        0
176
     1
 90
        0
176
     1
 40
0.6
176
     1
 40
30.0
176
     1
 62
     7
420
 16777215
176
     1
 90
        1
176
     1
 90
        4
176
     1
 62
     7
176
     1
 62
   257
176
     1
 90
        1
176
     1
 90
        1
176
     1
 40
1.0
176
     1
 90
       12
176
     1
 62
     7
176
     1
 40
1.0
176
     1
 90
        1
176
     1
 90
        6
176
     1
 90
        2
176
     1
 62
     7
176
     1
 90
        5
176
     1
 90
        0
176
     1
 90
        0
176
     1
290
     0
176
     1
 90
        1
176
     1
 40
0.0
176
     1
 90
        0
176
     1
290
     0
176
     1
290
     1
176
     1
290
     1
176
     1
290
     0
176
     1
290
     0
176
     1
290
     0
176
     1
290
     0
176
     1
290
     0
176
     1
290
     0
176
     1
 90
       50
176
     1
 40
0.0
176
     1
 40
1.0
176
     1
 90
        0
176
     1
 62
    18
420
        0
176
     1
 90
       50
176
     1
 90
        3
176
     1
 62
     5
420
      255
176
     1
290
     0
176
     1
 90
       50
176
     1
 90
       50
176
     1
 90
       50
176
     1
290
     0
176
     1
 90
       50
176
     1
 62
   256
176
     0
 40
1.0
176
     0
 90
        2
176
     1
  1
strokes_ogs.tif
176
     1
290
     0
176
     1
 40
1.0
176
     1
 40
1.0
176
     1
  0
VISUALSTYLE
  5
30
102
{ACAD_REACTORS
330
2A
102
}
330
2A
100
AcDbVisualStyle
  2
Wireframe
 70
     5
177
     3
291
     0
 70
    58
 90
        0
176
     1
 90
        2
176
     1
 90
        0
176
     1
 90
        0
176
     1
 40
0.6
176
     1
 40
30.0
176
     1
 62
     7
420
 16777215
176
     1
 90
        1
176
     1
 90
        4
176
     1
 62
     7
176
     1
 62
   257
176
     1
 90
        1
176
     1
 90
        1
176
     1
 40
1.0
176
     1
 90
        0
176
     1
 62
   257
176
     1
 40
1.0
176
     1
 90
        1
176
     1
 90
        6
176
     1
 90
        2
176
     1
 62
     7
176
     1
 90
        3
176
     1
 90
        0
176
     1
 90
        0
176
     1
290
     0
176
     1
 90
        1
176
     1
 40
0.0
176
     1
 90
        0
176
     1
290
     0
176
     1
290
     1
176
     1
290
     1
176
     1
290
     0
176
     1
290
     0
176
     1
290
     0
176
     1
290
     0
176
     1
290
     0
176
     1
290
     0
176
     1
 90
       50
176
     1
 40
0.0
176
     1
 40
1.0
176
     1
 90
        0
176
     1
 62
    18
420
        0
176
     1
 90
       50
176
     1
 90
        3
176
     1
 62
     5
420
      255
176
     1
290
     0
176
     1
 90
       50
176
     1
 90
       50
176
     1
 90
       50
176
     1
290
     0
176
     1
 90
       50
176
     1
 62
   256
176
     0
 40
1.0
176
     0
 90
        2
176
     1
  1
strokes_ogs.tif
176
     1
290
     0
176
     1
 40
1.0
176
     1
 40
1.0
176
     1
  0
VISUALSTYLE
  5
40
102
{ACAD_REACTORS
330
2A
102
}
330
2A
100
AcDbVisualStyle
  2
X-Ray
 70
    25
177
     3
291
     0
 70
    58
 90
        2
176
     1
 90
        2
176
     1
 90
        1
176
     1
 90
        1
176
     1
 40
0.5
176
     1
 40
30.0
176
     1
 62
     7
420
 16777215
176
     1
 90
        1
176
     1
 90
        0
176
     1
 62
     7
176
     1
 62
   257
176
     1
 90
        1
176
     1
 90
        1
176
     1
 40
1.0
176
     1
 90
        8
176
     1
 62
     7
176
     1
 40
1.0
176
     1
 90
        1
176
     1
 90
        6
176
     1
 90
        2
176
     1
 62
     7
176
     1
 90
        3
176
     1
 90
        0
176
     1
 90
        0
176
     1
290
     0
176
     1
 90
       13
176
     1
 40
0.0
176
     1
 90
        0
176
     1
290
     0
176
     1
290
     1
176
     1
290
     1
176
     1
290
     0
176
     1
290
     0
176
     1
290
     0
176
     1
290
     0
176
     1
290
     0
176
     1
290
     0
176
     1
 90
       50
176
     1
 40
0.0
176
     1
 40
1.0
176
     1
 90
        0
176
     1
 62
    18
420
        0
176
     1
 90
       50
176
     1
 90
        3
176
     1
 62
     5
420
      255
176
     1
290
     0
176
     1
 90
       50
176
     1
 90
       50
176
     1
 90
       50
176
     1
290
     0
176
     1
 90
       50
176
     1
 62
   256
176
     0
 40
1.0
176
     0
 90
        2
176
     1
  1
strokes_ogs.tif
176
     1
290
     0
176
     1
 40
1.0
176
     1
 40
1.0
176
     1
  0
DICTIONARYVAR
  5
167
102
{ACAD_REACTORS
330
166
102
}
330
166
100
DictionaryVariables
280
     0
  1
1:1
  0
DICTIONARYVAR
  5
16F
102
{ACAD_REACTORS
330
166
102
}
330
166
100
DictionaryVariables
280
     0
  1
3.500000
  0
DICTIONARYVAR
  5
170
102
{ACAD_REACTORS
330
166
102
}
330
166
100
DictionaryVariables
280
     0
  1
acadiso.lin
  0
DICTIONARYVAR
  5
16C
102
{ACAD_REACTORS
330
166
102
}
330
166
100
DictionaryVariables
280
     0
  1
Standard
  0
DICTIONARYVAR
  5
16B
102
{ACAD_REACTORS
330
166
102
}
330
166
100
DictionaryVariables
280
     0
  1
Standard
  0
DICTIONARY
  5
168
330
6A
100
AcDbDictionary
280
     1
281
     1
  3
ACAD_ROUNDTRIP_2008_TABLESTYLE_CELLSTYLEMAP
360
169
  0
CELLSTYLEMAP
  5
169
102
{ACAD_REACTORS
330
168
102
}
330
168
100
AcDbCellStyleMap
 90
        3
300
CELLSTYLE
  1
TABLEFORMAT_BEGIN
 90
        5
170
     1
 91
        0
 92
    32768
 62
   257
 93
        1
300
CONTENTFORMAT
  1
CONTENTFORMAT_BEGIN
 90
        0
 91
        0
 92
        4
 93
        0
300

 40
0.0
140
1.0
 94
        5
 62
     0
340
11
144
6.0
309
CONTENTFORMAT_END
171
     1
301
MARGIN
  1
CELLMARGIN_BEGIN
 40
1.5
 40
1.5
 40
1.5
 40
1.5
 40
1.5
 40
1.5
309
CELLMARGIN_END
 94
        6
 95
        1
302
GRIDFORMAT
  1
GRIDFORMAT_BEGIN
 90
        0
 91
        1
 62
     0
 92
       -2
340
14
 93
        0
 40
0.045
309
GRIDFORMAT_END
 95
        2
302
GRIDFORMAT
  1
GRIDFORMAT_BEGIN
 90
        0
 91
        1
 62
     0
 92
       -2
340
14
 93
        0
 40
0.045
309
GRIDFORMAT_END
 95
        4
302
GRIDFORMAT
  1
GRIDFORMAT_BEGIN
 90
        0
 91
        1
 62
     0
 92
       -2
340
14
 93
        0
 40
0.045
309
GRIDFORMAT_END
 95
        8
302
GRIDFORMAT
  1
GRIDFORMAT_BEGIN
 90
        0
 91
        1
 62
     0
 92
       -2
340
14
 93
        0
 40
0.045
309
GRIDFORMAT_END
 95
       16
302
GRIDFORMAT
  1
GRIDFORMAT_BEGIN
 90
        0
 91
        1
 62
     0
 92
       -2
340
14
 93
        0
 40
0.045
309
GRIDFORMAT_END
 95
       32
302
GRIDFORMAT
  1
GRIDFORMAT_BEGIN
 90
        0
 91
        1
 62
     0
 92
       -2
340
14
 93
        0
 40
0.045
309
GRIDFORMAT_END
309
TABLEFORMAT_END
  1
CELLSTYLE_BEGIN
 90
        1
 91
        1
300
_TITLE
309
CELLSTYLE_END
300
CELLSTYLE
  1
TABLEFORMAT_BEGIN
 90
        5
170
     1
 91
        0
 92
        0
 62
   257
 93
        1
300
CONTENTFORMAT
  1
CONTENTFORMAT_BEGIN
 90
        0
 91
        0
 92
        4
 93
        0
300

 40
0.0
140
1.0
 94
        5
 62
     0
340
11
144
4.5
309
CONTENTFORMAT_END
171
     1
301
MARGIN
  1
CELLMARGIN_BEGIN
 40
1.5
 40
1.5
 40
1.5
 40
1.5
 40
1.5
 40
1.5
309
CELLMARGIN_END
 94
        6
 95
        1
302
GRIDFORMAT
  1
GRIDFORMAT_BEGIN
 90
        0
 91
        1
 62
     0
 92
       -2
340
14
 93
        0
 40
0.045
309
GRIDFORMAT_END
 95
        2
302
GRIDFORMAT
  1
GRIDFORMAT_BEGIN
 90
        0
 91
        1
 62
     0
 92
       -2
340
14
 93
        0
 40
0.045
309
GRIDFORMAT_END
 95
        4
302
GRIDFORMAT
  1
GRIDFORMAT_BEGIN
 90
        0
 91
        1
 62
     0
 92
       -2
340
14
 93
        0
 40
0.045
309
GRIDFORMAT_END
 95
        8
302
GRIDFORMAT
  1
GRIDFORMAT_BEGIN
 90
        0
 91
        1
 62
     0
 92
       -2
340
14
 93
        0
 40
0.045
309
GRIDFORMAT_END
 95
       16
302
GRIDFORMAT
  1
GRIDFORMAT_BEGIN
 90
        0
 91
        1
 62
     0
 92
       -2
340
14
 93
        0
 40
0.045
309
GRIDFORMAT_END
 95
       32
302
GRIDFORMAT
  1
GRIDFORMAT_BEGIN
 90
        0
 91
        1
 62
     0
 92
       -2
340
14
 93
        0
 40
0.045
309
GRIDFORMAT_END
309
TABLEFORMAT_END
  1
CELLSTYLE_BEGIN
 90
        2
 91
        1
300
_HEADER
309
CELLSTYLE_END
300
CELLSTYLE
  1
TABLEFORMAT_BEGIN
 90
        5
170
     1
 91
        0
 92
        0
 62
   257
 93
        1
300
CONTENTFORMAT
  1
CONTENTFORMAT_BEGIN
 90
        0
 91
        0
 92
        4
 93
        0
300

 40
0.0
140
1.0
 94
        2
 62
     0
340
11
144
4.5
309
CONTENTFORMAT_END
171
     1
301
MARGIN
  1
CELLMARGIN_BEGIN
 40
1.5
 40
1.5
 40
1.5
 40
1.5
 40
1.5
 40
1.5
309
CELLMARGIN_END
 94
        6
 95
        1
302
GRIDFORMAT
  1
GRIDFORMAT_BEGIN
 90
        0
 91
        1
 62
     0
 92
       -2
340
14
 93
        0
 40
0.045
309
GRIDFORMAT_END
 95
        2
302
GRIDFORMAT
  1
GRIDFORMAT_BEGIN
 90
        0
 91
        1
 62
     0
 92
       -2
340
14
 93
        0
 40
0.045
309
GRIDFORMAT_END
 95
        4
302
GRIDFORMAT
  1
GRIDFORMAT_BEGIN
 90
        0
 91
        1
 62
     0
 92
       -2
340
14
 93
        0
 40
0.045
309
GRIDFORMAT_END
 95
        8
302
GRIDFORMAT
  1
GRIDFORMAT_BEGIN
 90
        0
 91
        1
 62
     0
 92
       -2
340
14
 93
        0
 40
0.045
309
GRIDFORMAT_END
 95
       16
302
GRIDFORMAT
  1
GRIDFORMAT_BEGIN
 90
        0
 91
        1
 62
     0
 92
       -2
340
14
 93
        0
 40
0.045
309
GRIDFORMAT_END
 95
       32
302
GRIDFORMAT
  1
GRIDFORMAT_BEGIN
 90
        0
 91
        1
 62
     0
 92
       -2
340
14
 93
        0
 40
0.045
309
GRIDFORMAT_END
309
TABLEFORMAT_END
  1
CELLSTYLE_BEGIN
 90
        3
 91
        2
300
_DATA
309
CELLSTYLE_END
  0
ENDSEC
  0
EOF
