<?xml version='1.0' encoding='utf-8'?>
<svg xmlns="http://www.w3.org/2000/svg" xmlns:inkscape="http://www.inkscape.org/namespaces/inkscape" version="1.1" width="175.32455110549927mm" height="129.97745656967163mm" viewBox="-5927.819290653943 1171.7604154669673 13273.759581307886 344.9331690660656" preserveAspectRatio="none">
    <g id="ViewLayer_LineSet" inkscape:groupmode="lineset" inkscape:label="ViewLayer_LineSet">
        <g inkscape:groupmode="layer" id="strokes" inkscape:label="strokes">
            <path fill="none" stroke-width="3.0" stroke-linecap="butt" stroke-opacity="1.0" stroke="rgb(0, 0, 0)" stroke-linejoin="round" d=" M 952.002, 1511.366 954.565, 1511.366 954.080, 1511.366 952.453, 1511.367 952.222, 1511.367 952.006, 1511.367 950.684, 1511.367 950.581, 1511.367 " />
            <path fill="none" stroke-width="3.0" stroke-linecap="butt" stroke-opacity="1.0" stroke="rgb(0, 0, 0)" stroke-linejoin="round" d=" M 995.247, 1511.365 985.247, 1511.365 977.563, 1511.365 967.563, 1511.366 957.563, 1511.366 954.565, 1511.366 " />
            <path fill="none" stroke-width="3.0" stroke-linecap="butt" stroke-opacity="1.0" stroke="rgb(0, 0, 0)" stroke-linejoin="round" d=" M 1008.786, 1511.365 1008.527, 1511.365 1008.298, 1511.365 1006.865, 1511.365 1005.736, 1511.365 1005.277, 1511.365 " />
            <path fill="none" stroke-width="3.0" stroke-linecap="butt" stroke-opacity="1.0" stroke="rgb(0, 0, 0)" stroke-linejoin="round" d=" M 945.613, 1511.367 947.261, 1511.367 948.919, 1511.367 949.279, 1511.367 950.581, 1511.367 " />
            <path fill="none" stroke-width="3.0" stroke-linecap="butt" stroke-opacity="1.0" stroke="rgb(0, 0, 0)" stroke-linejoin="round" d=" M 950.581, 1511.367 950.712, 1511.367 951.706, 1511.366 952.002, 1511.366 952.243, 1511.366 962.243, 1511.366 972.243, 1511.365 982.243, 1511.365 989.531, 1511.365 993.596, 1511.365 995.312, 1511.365 997.020, 1511.365 998.717, 1511.365 1000.395, 1511.365 1002.052, 1511.365 1003.681, 1511.365 1003.716, 1511.365 1005.277, 1511.365 " />
            <path fill="none" stroke-width="3.0" stroke-linecap="butt" stroke-opacity="1.0" stroke="rgb(0, 0, 0)" stroke-linejoin="round" d=" M 1620.666, 1511.341 1630.666, 1511.340 1640.666, 1511.340 1650.666, 1511.340 1660.666, 1511.339 1670.666, 1511.339 1680.666, 1511.338 1690.666, 1511.338 1700.666, 1511.338 1710.666, 1511.337 1720.666, 1511.337 1730.666, 1511.337 1740.666, 1511.336 1750.666, 1511.336 1760.666, 1511.335 1770.666, 1511.335 1780.666, 1511.335 1790.666, 1511.334 1800.666, 1511.334 1810.666, 1511.334 1820.666, 1511.333 1830.666, 1511.333 1840.666, 1511.332 1850.666, 1511.332 1860.666, 1511.332 1870.666, 1511.331 1880.666, 1511.331 1890.666, 1511.331 1900.666, 1511.330 1910.666, 1511.330 1920.666, 1511.329 1930.666, 1511.329 1940.666, 1511.329 1950.666, 1511.328 1960.666, 1511.328 1970.666, 1511.327 1980.666, 1511.327 1990.666, 1511.327 2000.666, 1511.326 2010.666, 1511.326 2020.666, 1511.326 2030.666, 1511.325 2040.666, 1511.325 2047.149, 1511.325 " />
            <path fill="none" stroke-width="3.0" stroke-linecap="butt" stroke-opacity="1.0" stroke="rgb(0, 0, 0)" stroke-linejoin="round" d=" M 459.348, 1511.386 469.348, 1511.385 479.348, 1511.385 489.348, 1511.385 499.348, 1511.384 509.348, 1511.384 519.348, 1511.384 529.348, 1511.383 539.348, 1511.383 549.348, 1511.382 559.348, 1511.382 569.348, 1511.382 579.348, 1511.381 589.348, 1511.381 599.348, 1511.380 609.348, 1511.380 619.348, 1511.380 629.348, 1511.379 639.348, 1511.379 649.348, 1511.379 659.348, 1511.378 669.348, 1511.378 679.348, 1511.377 689.348, 1511.377 699.348, 1511.377 709.348, 1511.376 719.348, 1511.376 729.348, 1511.375 739.348, 1511.375 749.348, 1511.375 759.348, 1511.374 769.348, 1511.374 779.348, 1511.374 789.348, 1511.373 799.348, 1511.373 809.348, 1511.372 819.348, 1511.372 829.348, 1511.372 839.348, 1511.371 849.348, 1511.371 859.348, 1511.370 869.348, 1511.370 879.348, 1511.370 889.348, 1511.369 899.348, 1511.369 909.348, 1511.369 919.348, 1511.368 929.348, 1511.368 939.348, 1511.367 949.348, 1511.367 959.348, 1511.367 969.348, 1511.366 979.348, 1511.366 989.348, 1511.365 999.348, 1511.365 1008.298, 1511.365 " />
            <path fill="none" stroke-width="3.0" stroke-linecap="butt" stroke-opacity="1.0" stroke="rgb(0, 0, 0)" stroke-linejoin="round" d=" M 1136.123, 1347.875 1146.123, 1347.876 1156.123, 1347.878 1166.123, 1347.880 1176.123, 1347.881 1186.123, 1347.883 1196.123, 1347.884 1206.123, 1347.886 1216.123, 1347.887 1226.123, 1347.889 1236.123, 1347.891 1246.123, 1347.892 1256.123, 1347.894 1266.123, 1347.895 1276.123, 1347.897 1286.123, 1347.899 1296.123, 1347.900 1306.123, 1347.902 1316.123, 1347.903 1326.123, 1347.905 1336.123, 1347.907 1346.123, 1347.908 1356.123, 1347.910 1366.123, 1347.911 1376.123, 1347.913 1386.123, 1347.915 1396.123, 1347.916 1406.123, 1347.918 1416.123, 1347.919 1426.123, 1347.921 1436.123, 1347.922 1446.123, 1347.924 1456.123, 1347.926 1466.123, 1347.927 1476.123, 1347.929 1486.123, 1347.930 1496.123, 1347.932 1506.123, 1347.934 1516.123, 1347.935 1526.123, 1347.937 1536.123, 1347.938 1546.123, 1347.940 1556.123, 1347.942 1566.123, 1347.943 1576.123, 1347.945 1586.123, 1347.946 1596.123, 1347.948 1606.123, 1347.950 1616.123, 1347.951 1626.123, 1347.953 1636.123, 1347.954 1646.123, 1347.956 1656.123, 1347.957 1666.123, 1347.959 1676.123, 1347.961 1686.123, 1347.962 1696.123, 1347.964 1706.123, 1347.965 1716.123, 1347.967 1726.123, 1347.969 1736.123, 1347.970 1746.123, 1347.972 1756.123, 1347.973 1766.123, 1347.975 1776.123, 1347.977 1786.123, 1347.978 1796.123, 1347.980 1806.123, 1347.981 1816.123, 1347.983 1826.123, 1347.985 1836.123, 1347.986 1846.123, 1347.988 1856.123, 1347.989 1866.123, 1347.991 1876.123, 1347.992 1886.123, 1347.994 1896.123, 1347.996 1906.123, 1347.997 1916.123, 1347.999 1926.123, 1348.000 1936.123, 1348.002 1946.123, 1348.004 1956.123, 1348.005 1966.123, 1348.007 1976.123, 1348.008 1986.123, 1348.010 1996.123, 1348.012 2005.957, 1348.013 " />
            <path fill="none" stroke-width="3.0" stroke-linecap="butt" stroke-opacity="1.0" stroke="rgb(0, 0, 0)" stroke-linejoin="round" d=" M 1639.249, 1494.843 1629.249, 1494.826 1619.249, 1494.809 1609.249, 1494.792 1599.249, 1494.775 1589.249, 1494.757 1579.249, 1494.740 1569.249, 1494.723 1559.249, 1494.706 1549.249, 1494.689 1539.249, 1494.672 1529.249, 1494.654 1519.249, 1494.637 1509.249, 1494.620 1499.249, 1494.603 1489.249, 1494.586 1479.249, 1494.569 1469.249, 1494.552 1459.249, 1494.534 1449.249, 1494.517 1439.249, 1494.500 1429.249, 1494.483 1419.249, 1494.466 1409.249, 1494.449 1399.249, 1494.432 1389.249, 1494.414 1379.249, 1494.397 1369.249, 1494.380 1359.249, 1494.363 1349.249, 1494.346 1339.249, 1494.329 1329.249, 1494.311 1319.249, 1494.294 1309.249, 1494.277 1299.249, 1494.260 1289.249, 1494.243 1279.249, 1494.226 1269.249, 1494.209 1259.249, 1494.191 1249.249, 1494.174 1239.249, 1494.157 1229.249, 1494.140 1219.249, 1494.123 1209.249, 1494.106 1199.249, 1494.089 1189.249, 1494.071 1179.249, 1494.054 1172.164, 1494.042 " />
            <path fill="none" stroke-width="3.0" stroke-linecap="butt" stroke-opacity="1.0" stroke="rgb(0, 0, 0)" stroke-linejoin="round" d=" M 370.443, 1341.204 367.464, 1331.659 364.484, 1322.113 361.505, 1312.567 358.525, 1303.021 355.545, 1293.476 352.566, 1283.930 349.586, 1274.384 346.606, 1264.838 343.627, 1255.292 340.786, 1246.193 " />
            <path fill="none" stroke-width="3.0" stroke-linecap="butt" stroke-opacity="1.0" stroke="rgb(0, 0, 0)" stroke-linejoin="round" d=" M 319.210, 1177.068 322.189, 1186.613 323.642, 1191.268 323.646, 1191.280 326.625, 1200.825 329.605, 1210.371 332.585, 1219.917 335.564, 1229.463 338.544, 1239.009 339.587, 1242.351 340.786, 1246.193 343.766, 1255.739 346.746, 1265.285 349.725, 1274.830 352.705, 1284.376 355.685, 1293.922 358.664, 1303.468 361.644, 1313.013 364.624, 1322.559 367.603, 1332.105 370.443, 1341.204 " />
            <path fill="none" stroke-width="3.0" stroke-linecap="butt" stroke-opacity="1.0" stroke="rgb(0, 0, 0)" stroke-linejoin="round" d=" M 456.762, 1506.947 457.039, 1507.423 457.360, 1507.973 459.348, 1511.386 " />
            <path fill="none" stroke-width="3.0" stroke-linecap="butt" stroke-opacity="1.0" stroke="rgb(0, 0, 0)" stroke-linejoin="round" d=" M 436.078, 1471.436 426.078, 1471.515 416.078, 1471.594 406.079, 1471.673 396.079, 1471.752 386.079, 1471.831 376.080, 1471.910 366.080, 1471.988 356.080, 1472.067 346.080, 1472.146 336.081, 1472.225 326.081, 1472.304 316.081, 1472.383 306.082, 1472.462 296.082, 1472.541 286.082, 1472.620 276.083, 1472.699 266.083, 1472.778 256.083, 1472.857 246.084, 1472.936 236.084, 1473.014 226.084, 1473.093 216.085, 1473.172 206.085, 1473.251 196.085, 1473.330 186.085, 1473.409 176.086, 1473.488 166.086, 1473.567 156.086, 1473.646 146.087, 1473.725 136.087, 1473.804 126.087, 1473.883 116.088, 1473.962 106.088, 1474.040 96.088, 1474.119 86.089, 1474.198 76.089, 1474.277 66.089, 1474.356 56.090, 1474.435 46.090, 1474.514 36.090, 1474.593 26.090, 1474.672 16.091, 1474.751 6.091, 1474.830 -3.909, 1474.909 -13.908, 1474.988 -23.908, 1475.066 -33.908, 1475.145 -43.907, 1475.224 -53.907, 1475.303 -63.907, 1475.382 -73.906, 1475.461 -83.906, 1475.540 -93.906, 1475.619 -103.906, 1475.698 -113.905, 1475.777 -123.905, 1475.856 -133.905, 1475.935 -143.904, 1476.014 -153.904, 1476.092 -163.904, 1476.171 -173.903, 1476.250 -183.903, 1476.329 -193.903, 1476.408 -203.902, 1476.487 -213.902, 1476.566 -223.902, 1476.645 -233.901, 1476.724 -243.901, 1476.803 -252.155, 1476.868 " />
            <path fill="none" stroke-width="3.0" stroke-linecap="butt" stroke-opacity="1.0" stroke="rgb(0, 0, 0)" stroke-linejoin="round" d=" M 459.348, 1511.386 469.348, 1511.385 479.348, 1511.385 489.348, 1511.385 499.348, 1511.384 509.348, 1511.384 519.348, 1511.383 529.348, 1511.383 539.348, 1511.383 549.348, 1511.382 559.348, 1511.382 569.348, 1511.382 579.348, 1511.381 589.348, 1511.381 599.348, 1511.380 609.348, 1511.380 619.348, 1511.380 629.348, 1511.379 639.348, 1511.379 649.348, 1511.378 659.348, 1511.378 669.348, 1511.378 679.348, 1511.377 689.348, 1511.377 699.348, 1511.376 709.348, 1511.376 719.348, 1511.376 729.348, 1511.375 739.348, 1511.375 749.348, 1511.374 759.348, 1511.374 769.348, 1511.374 779.348, 1511.373 789.348, 1511.373 799.348, 1511.373 809.348, 1511.372 819.348, 1511.372 829.348, 1511.371 839.348, 1511.371 849.348, 1511.371 859.348, 1511.370 869.348, 1511.370 879.348, 1511.369 889.348, 1511.369 899.348, 1511.369 909.348, 1511.368 919.348, 1511.368 929.348, 1511.367 939.348, 1511.367 945.613, 1511.367 " />
            <path fill="none" stroke-width="3.0" stroke-linecap="butt" stroke-opacity="1.0" stroke="rgb(0, 0, 0)" stroke-linejoin="round" d=" M 459.348, 1511.386 469.348, 1511.385 479.348, 1511.385 489.348, 1511.385 499.348, 1511.384 509.348, 1511.384 519.348, 1511.384 529.348, 1511.383 539.348, 1511.383 549.348, 1511.382 559.348, 1511.382 569.348, 1511.382 579.348, 1511.381 589.348, 1511.381 599.348, 1511.380 609.348, 1511.380 619.348, 1511.380 629.348, 1511.379 639.348, 1511.379 649.348, 1511.378 659.348, 1511.378 669.348, 1511.378 679.348, 1511.377 689.348, 1511.377 699.348, 1511.377 709.348, 1511.376 719.348, 1511.376 729.348, 1511.375 739.348, 1511.375 749.348, 1511.375 759.348, 1511.374 769.348, 1511.374 779.348, 1511.373 789.348, 1511.373 799.348, 1511.373 809.348, 1511.372 819.348, 1511.372 829.348, 1511.372 839.348, 1511.371 849.348, 1511.371 859.348, 1511.370 869.348, 1511.370 879.348, 1511.370 889.348, 1511.369 899.348, 1511.369 909.348, 1511.368 919.348, 1511.368 929.348, 1511.368 939.348, 1511.367 950.581, 1511.367 " />
            <path fill="none" stroke-width="3.0" stroke-linecap="butt" stroke-opacity="1.0" stroke="rgb(0, 0, 0)" stroke-linejoin="round" d=" M 459.348, 1511.386 469.348, 1511.385 479.348, 1511.385 489.348, 1511.385 499.348, 1511.384 509.348, 1511.384 519.348, 1511.384 529.348, 1511.383 539.348, 1511.383 549.348, 1511.382 559.348, 1511.382 569.348, 1511.382 579.348, 1511.381 589.348, 1511.381 599.348, 1511.380 609.348, 1511.380 619.348, 1511.380 629.348, 1511.379 639.348, 1511.379 649.348, 1511.378 659.348, 1511.378 669.348, 1511.378 679.348, 1511.377 689.348, 1511.377 699.348, 1511.377 709.348, 1511.376 719.348, 1511.376 729.348, 1511.375 739.348, 1511.375 749.348, 1511.375 759.348, 1511.374 769.348, 1511.374 779.348, 1511.373 789.348, 1511.373 799.348, 1511.373 809.348, 1511.372 819.348, 1511.372 829.348, 1511.372 839.348, 1511.371 849.348, 1511.371 859.348, 1511.370 869.348, 1511.370 879.348, 1511.370 889.348, 1511.369 899.348, 1511.369 909.348, 1511.368 919.348, 1511.368 929.348, 1511.368 939.348, 1511.367 952.006, 1511.367 " />
            <path fill="none" stroke-width="3.0" stroke-linecap="butt" stroke-opacity="1.0" stroke="rgb(0, 0, 0)" stroke-linejoin="round" d=" M 459.348, 1511.386 469.348, 1511.385 479.348, 1511.385 489.348, 1511.385 499.348, 1511.384 509.348, 1511.384 519.348, 1511.384 529.348, 1511.383 539.348, 1511.383 549.348, 1511.382 559.348, 1511.382 569.348, 1511.382 579.348, 1511.381 589.348, 1511.381 599.348, 1511.380 609.348, 1511.380 619.348, 1511.380 629.348, 1511.379 639.348, 1511.379 649.348, 1511.378 659.348, 1511.378 669.348, 1511.378 679.348, 1511.377 689.348, 1511.377 699.348, 1511.377 709.348, 1511.376 719.348, 1511.376 729.348, 1511.375 739.348, 1511.375 749.348, 1511.375 759.348, 1511.374 769.348, 1511.374 779.348, 1511.373 789.348, 1511.373 799.348, 1511.373 809.348, 1511.372 819.348, 1511.372 829.348, 1511.372 839.348, 1511.371 849.348, 1511.371 859.348, 1511.370 869.348, 1511.370 879.348, 1511.370 889.348, 1511.369 899.348, 1511.369 909.348, 1511.368 919.348, 1511.368 929.348, 1511.368 939.348, 1511.367 950.684, 1511.367 952.222, 1511.367 962.222, 1511.366 972.222, 1511.366 982.222, 1511.366 992.222, 1511.365 1002.222, 1511.365 1005.277, 1511.365 " />
            <path fill="none" stroke-width="3.0" stroke-linecap="butt" stroke-opacity="1.0" stroke="rgb(0, 0, 0)" stroke-linejoin="round" d=" M 989.531, 1511.365 979.531, 1511.365 977.563, 1511.365 967.563, 1511.366 957.563, 1511.366 954.080, 1511.366 951.706, 1511.366 " />
            <path fill="none" stroke-width="3.0" stroke-linecap="butt" stroke-opacity="1.0" stroke="rgb(0, 0, 0)" stroke-linejoin="round" d=" M 1005.277, 1511.365 1008.786, 1511.365 1018.786, 1511.364 1028.786, 1511.364 1038.786, 1511.363 1048.786, 1511.363 1058.786, 1511.363 1068.786, 1511.362 1078.786, 1511.362 1088.786, 1511.361 1098.786, 1511.361 1108.786, 1511.361 1118.786, 1511.360 1128.786, 1511.360 1138.786, 1511.360 1148.786, 1511.359 1158.786, 1511.359 1168.786, 1511.358 1178.786, 1511.358 1188.786, 1511.358 1198.786, 1511.357 1208.786, 1511.357 1218.786, 1511.356 1228.786, 1511.356 1238.786, 1511.356 1248.786, 1511.355 1258.786, 1511.355 1268.786, 1511.354 1278.786, 1511.354 1288.786, 1511.354 1298.786, 1511.353 1308.786, 1511.353 1318.786, 1511.353 1328.786, 1511.352 1338.786, 1511.352 1348.786, 1511.351 1358.786, 1511.351 1368.786, 1511.351 1378.786, 1511.350 1388.786, 1511.350 1398.786, 1511.349 1408.786, 1511.349 1418.786, 1511.349 1428.786, 1511.348 1438.786, 1511.348 1448.786, 1511.347 1458.786, 1511.347 1468.786, 1511.347 1478.786, 1511.346 1488.786, 1511.346 1498.786, 1511.346 1508.786, 1511.345 1518.786, 1511.345 1528.786, 1511.344 1538.786, 1511.344 1548.786, 1511.344 1558.786, 1511.343 1568.786, 1511.343 1578.786, 1511.342 1588.786, 1511.342 1598.786, 1511.342 1608.786, 1511.341 1620.666, 1511.341 " />
            <path fill="none" stroke-width="3.0" stroke-linecap="butt" stroke-opacity="1.0" stroke="rgb(0, 0, 0)" stroke-linejoin="round" d=" M 949.279, 1511.367 939.279, 1511.367 929.279, 1511.368 919.279, 1511.368 909.279, 1511.368 899.279, 1511.369 889.279, 1511.369 879.279, 1511.370 869.279, 1511.370 859.279, 1511.370 849.279, 1511.371 839.279, 1511.371 829.279, 1511.371 819.279, 1511.372 809.279, 1511.372 799.279, 1511.373 789.279, 1511.373 779.279, 1511.373 769.279, 1511.374 759.279, 1511.374 749.279, 1511.375 739.279, 1511.375 729.279, 1511.375 719.279, 1511.376 709.279, 1511.376 699.279, 1511.377 689.279, 1511.377 679.279, 1511.377 669.279, 1511.378 659.279, 1511.378 649.279, 1511.378 639.279, 1511.379 629.279, 1511.379 619.279, 1511.380 609.279, 1511.380 599.279, 1511.380 589.279, 1511.381 579.279, 1511.381 569.279, 1511.382 559.279, 1511.382 549.279, 1511.382 539.279, 1511.383 529.279, 1511.383 519.279, 1511.384 509.279, 1511.384 499.279, 1511.384 489.279, 1511.385 479.279, 1511.385 469.279, 1511.385 459.348, 1511.386 " />
            <path fill="none" stroke-width="3.0" stroke-linecap="butt" stroke-opacity="1.0" stroke="rgb(0, 0, 0)" stroke-linejoin="round" d=" M 1003.716, 1511.365 993.716, 1511.365 983.716, 1511.365 973.716, 1511.366 963.716, 1511.366 953.716, 1511.367 952.453, 1511.367 950.712, 1511.367 " />
            <path fill="none" stroke-width="3.0" stroke-linecap="butt" stroke-opacity="1.0" stroke="rgb(0, 0, 0)" stroke-linejoin="round" d=" M 2004.428, 1341.204 2003.039, 1331.301 2001.649, 1321.398 2000.260, 1311.495 1998.871, 1301.592 1997.481, 1291.689 1996.092, 1281.786 1994.703, 1271.883 1993.313, 1261.980 1991.924, 1252.077 1991.240, 1247.203 1990.650, 1242.994 1989.260, 1233.091 1987.871, 1223.188 1986.481, 1213.285 1985.092, 1203.382 1983.703, 1193.479 1982.313, 1183.576 1981.400, 1177.068 " />
            <path fill="none" stroke-width="3.0" stroke-linecap="butt" stroke-opacity="1.0" stroke="rgb(0, 0, 0)" stroke-linejoin="round" d=" M 459.348, 1511.386 469.348, 1511.385 479.348, 1511.385 489.348, 1511.385 499.348, 1511.384 509.348, 1511.384 519.348, 1511.384 529.348, 1511.383 539.348, 1511.383 549.348, 1511.382 559.348, 1511.382 569.348, 1511.382 579.348, 1511.381 589.348, 1511.381 599.348, 1511.380 609.348, 1511.380 619.348, 1511.380 629.348, 1511.379 639.348, 1511.379 649.348, 1511.378 659.348, 1511.378 669.348, 1511.378 679.348, 1511.377 689.348, 1511.377 699.348, 1511.377 709.348, 1511.376 719.348, 1511.376 729.348, 1511.375 739.348, 1511.375 749.348, 1511.375 759.348, 1511.374 769.348, 1511.374 779.348, 1511.373 789.348, 1511.373 799.348, 1511.373 809.348, 1511.372 819.348, 1511.372 829.348, 1511.372 839.348, 1511.371 849.348, 1511.371 859.348, 1511.370 869.348, 1511.370 879.348, 1511.370 889.348, 1511.369 899.348, 1511.369 909.348, 1511.368 919.348, 1511.368 929.348, 1511.368 939.348, 1511.367 949.348, 1511.367 959.348, 1511.367 969.348, 1511.366 979.348, 1511.366 989.348, 1511.365 999.348, 1511.365 1006.865, 1511.365 1008.527, 1511.365 1018.527, 1511.364 1028.527, 1511.364 1038.527, 1511.363 1048.527, 1511.363 1058.527, 1511.363 1068.527, 1511.362 1078.527, 1511.362 1088.527, 1511.362 1098.527, 1511.361 1108.527, 1511.361 1118.527, 1511.360 1128.527, 1511.360 1138.527, 1511.360 1148.527, 1511.359 1158.527, 1511.359 1168.527, 1511.358 1178.527, 1511.358 1188.527, 1511.358 1198.527, 1511.357 1208.527, 1511.357 1218.527, 1511.357 1228.527, 1511.356 1238.527, 1511.356 1248.527, 1511.355 1258.527, 1511.355 1268.527, 1511.355 1278.527, 1511.354 1288.527, 1511.354 1298.527, 1511.353 1308.527, 1511.353 1318.527, 1511.353 1328.527, 1511.352 1338.527, 1511.352 1348.527, 1511.352 1358.527, 1511.351 1368.527, 1511.351 1378.527, 1511.350 1388.527, 1511.350 1398.527, 1511.350 1408.527, 1511.349 1418.527, 1511.349 1428.527, 1511.348 1438.527, 1511.348 1448.527, 1511.348 1458.527, 1511.347 1468.527, 1511.347 1478.527, 1511.347 1488.527, 1511.346 1498.527, 1511.346 1508.527, 1511.345 1518.527, 1511.345 1528.527, 1511.345 1538.527, 1511.344 1548.527, 1511.344 1558.527, 1511.343 1568.527, 1511.343 1578.527, 1511.343 1588.527, 1511.342 1598.527, 1511.342 1608.527, 1511.342 1618.527, 1511.341 1628.527, 1511.341 1638.527, 1511.340 1648.527, 1511.340 1658.527, 1511.340 1668.527, 1511.339 1678.527, 1511.339 1688.527, 1511.338 1698.527, 1511.338 1708.527, 1511.338 1718.527, 1511.337 1728.527, 1511.337 1738.527, 1511.336 1748.527, 1511.336 1758.527, 1511.336 1768.527, 1511.335 1778.527, 1511.335 1788.527, 1511.335 1798.527, 1511.334 1808.527, 1511.334 1818.527, 1511.333 1828.527, 1511.333 1838.527, 1511.333 1848.527, 1511.332 1858.527, 1511.332 1868.527, 1511.331 1878.527, 1511.331 1888.527, 1511.331 1898.527, 1511.330 1908.527, 1511.330 1918.527, 1511.330 1928.527, 1511.329 1938.527, 1511.329 1948.527, 1511.328 1958.527, 1511.328 1968.527, 1511.328 1978.527, 1511.327 1988.527, 1511.327 1998.527, 1511.326 2008.527, 1511.326 2018.527, 1511.326 2028.527, 1511.325 2047.149, 1511.325 " />
            <path fill="none" stroke-width="3.0" stroke-linecap="butt" stroke-opacity="1.0" stroke="rgb(0, 0, 0)" stroke-linejoin="round" d=" M 2047.149, 1511.325 2046.213, 1507.615 2046.165, 1507.423 2046.016, 1506.830 " />
            <path fill="none" stroke-width="3.0" stroke-linecap="butt" stroke-opacity="1.0" stroke="rgb(0, 0, 0)" stroke-linejoin="round" d=" M 451.518, 1497.943 441.518, 1497.931 431.518, 1497.919 421.518, 1497.906 411.518, 1497.894 401.518, 1497.882 393.970, 1497.872 383.970, 1497.860 373.970, 1497.848 363.970, 1497.835 353.970, 1497.823 343.970, 1497.811 333.970, 1497.798 323.970, 1497.786 313.970, 1497.774 309.289, 1497.768 299.289, 1497.756 289.289, 1497.743 279.289, 1497.731 269.289, 1497.719 259.289, 1497.706 249.289, 1497.694 239.289, 1497.682 229.289, 1497.669 219.289, 1497.657 209.289, 1497.645 199.289, 1497.632 189.289, 1497.620 179.289, 1497.608 169.289, 1497.595 159.289, 1497.583 149.289, 1497.571 139.289, 1497.558 129.289, 1497.546 119.289, 1497.534 109.289, 1497.521 99.289, 1497.509 89.289, 1497.497 79.289, 1497.484 69.289, 1497.472 59.289, 1497.460 49.289, 1497.447 39.289, 1497.435 29.289, 1497.423 19.289, 1497.410 9.289, 1497.398 -0.711, 1497.386 -10.711, 1497.373 -20.711, 1497.361 -30.711, 1497.349 -40.711, 1497.336 -50.711, 1497.324 -60.711, 1497.312 -70.711, 1497.299 -80.711, 1497.287 -90.711, 1497.275 -100.711, 1497.262 -110.711, 1497.250 -120.711, 1497.238 -130.710, 1497.225 -140.710, 1497.213 -150.710, 1497.201 -160.710, 1497.188 -170.710, 1497.176 -180.710, 1497.164 -190.710, 1497.152 -200.710, 1497.139 -210.710, 1497.127 -220.710, 1497.115 -230.710, 1497.102 -240.710, 1497.090 -250.710, 1497.078 -260.710, 1497.065 -270.710, 1497.053 -280.710, 1497.041 -290.710, 1497.028 -300.710, 1497.016 -310.710, 1497.004 -320.710, 1496.991 -330.710, 1496.979 -340.710, 1496.967 -350.710, 1496.954 -360.710, 1496.942 -370.710, 1496.930 -380.710, 1496.917 -390.710, 1496.905 -400.710, 1496.893 -410.710, 1496.880 -420.710, 1496.868 -430.710, 1496.856 -440.710, 1496.843 -450.710, 1496.831 -460.710, 1496.819 -470.710, 1496.806 -480.710, 1496.794 -490.710, 1496.782 -500.710, 1496.769 -510.710, 1496.757 -520.710, 1496.745 -531.829, 1496.731 " />
            <path fill="none" stroke-width="3.0" stroke-linecap="butt" stroke-opacity="1.0" stroke="rgb(0, 0, 0)" stroke-linejoin="round" d=" M 2044.269, 1499.907 2034.269, 1499.894 2024.269, 1499.882 2014.269, 1499.870 2004.269, 1499.857 1994.269, 1499.845 1984.269, 1499.833 1974.269, 1499.820 1964.269, 1499.808 1954.269, 1499.796 1944.269, 1499.783 1934.269, 1499.771 1924.269, 1499.759 1914.269, 1499.746 1904.269, 1499.734 1894.269, 1499.722 1884.269, 1499.709 1874.269, 1499.697 1864.269, 1499.685 1854.269, 1499.672 1844.269, 1499.660 1834.269, 1499.648 1824.269, 1499.635 1814.269, 1499.623 1804.269, 1499.611 1794.269, 1499.598 1784.269, 1499.586 1774.269, 1499.574 1764.269, 1499.561 1754.269, 1499.549 1744.269, 1499.537 1734.269, 1499.524 1724.269, 1499.512 1714.269, 1499.500 1704.269, 1499.487 1694.269, 1499.475 1684.269, 1499.463 1674.269, 1499.451 1664.269, 1499.438 1654.269, 1499.426 1644.270, 1499.414 1634.270, 1499.401 1624.270, 1499.389 1614.270, 1499.377 1604.270, 1499.364 1594.270, 1499.352 1584.270, 1499.340 1574.270, 1499.327 1564.270, 1499.315 1554.270, 1499.303 1544.270, 1499.290 1534.270, 1499.278 1524.270, 1499.266 1514.270, 1499.253 1504.270, 1499.241 1494.270, 1499.229 1484.270, 1499.216 1474.270, 1499.204 1464.270, 1499.192 1454.270, 1499.179 1444.270, 1499.167 1434.270, 1499.155 1424.270, 1499.142 1414.270, 1499.130 1404.270, 1499.118 1394.270, 1499.105 1384.270, 1499.093 1374.270, 1499.081 1364.270, 1499.068 1354.270, 1499.056 1344.270, 1499.044 1334.270, 1499.031 1324.270, 1499.019 1314.270, 1499.007 1304.270, 1498.994 1294.270, 1498.982 1284.270, 1498.970 1274.270, 1498.957 1264.270, 1498.945 1254.270, 1498.933 1244.270, 1498.920 1234.270, 1498.908 1224.270, 1498.896 1214.270, 1498.883 1204.270, 1498.871 1194.270, 1498.859 1184.270, 1498.846 1174.270, 1498.834 1164.270, 1498.822 1154.270, 1498.809 1144.270, 1498.797 1134.270, 1498.785 1124.270, 1498.773 1114.270, 1498.760 1104.270, 1498.748 1094.270, 1498.736 1084.270, 1498.723 1074.270, 1498.711 1064.270, 1498.699 1054.270, 1498.686 1044.270, 1498.674 1034.270, 1498.662 1024.270, 1498.649 1014.270, 1498.637 1004.270, 1498.625 994.270, 1498.612 984.270, 1498.600 974.270, 1498.588 964.270, 1498.575 954.270, 1498.563 944.270, 1498.551 934.270, 1498.538 924.270, 1498.526 914.270, 1498.514 904.270, 1498.501 894.270, 1498.489 884.270, 1498.477 874.270, 1498.464 864.270, 1498.452 854.270, 1498.440 844.270, 1498.427 834.270, 1498.415 824.270, 1498.403 814.270, 1498.390 804.270, 1498.378 794.270, 1498.366 784.270, 1498.353 774.270, 1498.341 764.270, 1498.329 754.270, 1498.316 744.270, 1498.304 734.270, 1498.292 724.270, 1498.279 714.270, 1498.267 704.270, 1498.255 694.270, 1498.242 684.270, 1498.230 674.270, 1498.218 664.270, 1498.205 654.270, 1498.193 644.270, 1498.181 634.270, 1498.168 624.270, 1498.156 614.270, 1498.144 604.270, 1498.132 594.270, 1498.119 584.270, 1498.107 574.270, 1498.095 564.270, 1498.082 554.270, 1498.070 544.270, 1498.058 534.270, 1498.045 524.270, 1498.033 514.270, 1498.021 504.270, 1498.008 494.270, 1497.996 484.270, 1497.984 474.270, 1497.971 451.518, 1497.943 " />
            <path fill="none" stroke-width="3.0" stroke-linecap="butt" stroke-opacity="1.0" stroke="rgb(0, 0, 0)" stroke-linejoin="round" d=" M 2005.957, 1348.013 2015.957, 1348.015 2025.957, 1348.016 2035.957, 1348.018 2045.957, 1348.019 2055.957, 1348.021 2065.957, 1348.023 2075.957, 1348.024 2085.957, 1348.026 2095.957, 1348.027 2105.957, 1348.029 2115.957, 1348.031 2125.957, 1348.032 2135.957, 1348.034 2145.957, 1348.035 2155.957, 1348.037 2165.957, 1348.039 2175.957, 1348.040 2185.957, 1348.042 2195.957, 1348.043 2205.957, 1348.045 2215.957, 1348.047 2225.957, 1348.048 2235.957, 1348.050 2245.957, 1348.051 2255.957, 1348.053 2265.957, 1348.054 2275.957, 1348.056 2285.957, 1348.058 2295.957, 1348.059 2305.957, 1348.061 2315.957, 1348.062 2325.957, 1348.064 2335.957, 1348.066 2345.957, 1348.067 2355.957, 1348.069 2365.957, 1348.070 2375.957, 1348.072 2385.957, 1348.074 2395.957, 1348.075 2405.957, 1348.077 2415.957, 1348.078 2425.957, 1348.080 2435.957, 1348.082 2445.957, 1348.083 2455.957, 1348.085 2465.957, 1348.086 2475.957, 1348.088 2485.957, 1348.089 2495.957, 1348.091 2505.957, 1348.093 2515.957, 1348.094 2525.957, 1348.096 2535.957, 1348.097 2545.957, 1348.099 2555.957, 1348.101 2565.957, 1348.102 2575.957, 1348.104 2585.957, 1348.105 2595.957, 1348.107 2605.957, 1348.109 2615.957, 1348.110 2625.957, 1348.112 2635.957, 1348.113 2645.957, 1348.115 2655.957, 1348.117 2665.957, 1348.118 2675.957, 1348.120 2685.957, 1348.121 2695.957, 1348.123 2705.957, 1348.124 2715.957, 1348.126 2725.957, 1348.128 2735.957, 1348.129 2745.957, 1348.131 2755.957, 1348.132 2765.957, 1348.134 2775.957, 1348.136 2785.957, 1348.137 2795.957, 1348.139 2805.957, 1348.140 2815.957, 1348.142 2825.957, 1348.144 2835.957, 1348.145 2845.957, 1348.147 2855.957, 1348.148 2865.957, 1348.150 2875.957, 1348.152 2885.957, 1348.153 2895.957, 1348.155 2911.566, 1348.157 " />
            <path fill="none" stroke-width="3.0" stroke-linecap="butt" stroke-opacity="1.0" stroke="rgb(0, 0, 0)" stroke-linejoin="round" d=" M 2046.213, 1507.615 2056.213, 1507.612 2066.213, 1507.610 2076.213, 1507.608 2086.213, 1507.606 2096.213, 1507.603 2106.213, 1507.601 2116.213, 1507.599 2126.213, 1507.597 2136.213, 1507.594 2146.213, 1507.592 2156.213, 1507.590 2166.213, 1507.588 2176.213, 1507.585 2186.213, 1507.583 2196.213, 1507.581 2206.213, 1507.579 2216.213, 1507.576 2226.213, 1507.574 2236.213, 1507.572 2246.213, 1507.569 2256.213, 1507.567 2266.213, 1507.565 2276.213, 1507.563 2286.213, 1507.560 2296.213, 1507.558 2306.213, 1507.556 2318.734, 1507.553 " />
            <path fill="none" stroke-width="3.0" stroke-linecap="butt" stroke-opacity="1.0" stroke="rgb(0, 0, 0)" stroke-linejoin="round" d=" M -3279.307, 1508.817 -3269.307, 1508.815 -3259.307, 1508.812 -3249.307, 1508.810 -3239.307, 1508.808 -3229.307, 1508.806 -3219.307, 1508.803 -3209.307, 1508.801 -3199.307, 1508.799 -3189.307, 1508.797 -3179.307, 1508.794 -3169.307, 1508.792 -3159.307, 1508.790 -3149.307, 1508.788 -3139.307, 1508.785 -3129.307, 1508.783 -3119.307, 1508.781 -3109.307, 1508.779 -3099.307, 1508.776 -3089.307, 1508.774 -3079.307, 1508.772 -3069.307, 1508.770 -3059.307, 1508.767 -3049.307, 1508.765 -3039.307, 1508.763 -3029.307, 1508.760 -3019.307, 1508.758 -3009.307, 1508.756 -2999.307, 1508.754 -2989.307, 1508.751 -2979.307, 1508.749 -2969.307, 1508.747 -2959.307, 1508.745 -2949.307, 1508.742 -2939.307, 1508.740 -2929.307, 1508.738 -2919.307, 1508.736 -2909.307, 1508.733 -2899.307, 1508.731 -2889.307, 1508.729 -2879.307, 1508.727 -2869.307, 1508.724 -2859.307, 1508.722 -2849.307, 1508.720 -2839.307, 1508.718 -2829.307, 1508.715 -2819.307, 1508.713 -2809.307, 1508.711 -2799.307, 1508.709 -2789.307, 1508.706 -2779.307, 1508.704 -2769.307, 1508.702 -2759.307, 1508.700 -2749.307, 1508.697 -2739.307, 1508.695 -2729.307, 1508.693 -2719.307, 1508.691 -2709.307, 1508.688 -2699.307, 1508.686 -2689.307, 1508.684 -2679.307, 1508.681 -2669.307, 1508.679 -2659.307, 1508.677 -2649.307, 1508.675 -2639.307, 1508.672 -2629.307, 1508.670 -2619.307, 1508.668 -2609.307, 1508.666 -2599.307, 1508.663 -2589.307, 1508.661 -2579.307, 1508.659 -2569.307, 1508.657 -2559.307, 1508.654 -2549.307, 1508.652 -2539.307, 1508.650 -2529.307, 1508.648 -2519.307, 1508.645 -2509.307, 1508.643 -2499.307, 1508.641 -2489.307, 1508.639 -2479.307, 1508.636 -2469.307, 1508.634 -2459.307, 1508.632 -2449.307, 1508.630 -2439.307, 1508.627 -2429.307, 1508.625 -2419.307, 1508.623 -2409.307, 1508.621 -2399.307, 1508.618 -2389.307, 1508.616 -2379.307, 1508.614 -2369.307, 1508.611 -2359.307, 1508.609 -2349.307, 1508.607 -2339.307, 1508.605 -2329.307, 1508.602 -2319.307, 1508.600 -2309.307, 1508.598 -2299.307, 1508.596 -2289.307, 1508.593 -2279.307, 1508.591 -2269.307, 1508.589 -2259.307, 1508.587 -2249.307, 1508.584 -2239.307, 1508.582 -2229.307, 1508.580 -2219.307, 1508.578 -2209.307, 1508.575 -2199.307, 1508.573 -2189.307, 1508.571 -2179.307, 1508.569 -2169.307, 1508.566 -2159.307, 1508.564 -2149.307, 1508.562 -2139.307, 1508.560 -2129.307, 1508.557 -2119.307, 1508.555 -2109.307, 1508.553 -2099.307, 1508.551 -2089.307, 1508.548 -2079.307, 1508.546 -2069.307, 1508.544 -2059.307, 1508.542 -2049.307, 1508.539 -2039.307, 1508.537 -2029.307, 1508.535 -2019.307, 1508.532 -2009.307, 1508.530 -1999.307, 1508.528 -1989.307, 1508.526 -1979.307, 1508.523 -1969.307, 1508.521 -1959.307, 1508.519 -1949.307, 1508.517 -1939.307, 1508.514 -1929.307, 1508.512 -1919.307, 1508.510 -1909.307, 1508.508 -1899.307, 1508.505 -1889.307, 1508.503 -1879.307, 1508.501 -1869.307, 1508.499 -1859.307, 1508.496 -1849.307, 1508.494 -1839.307, 1508.492 -1829.307, 1508.490 -1819.307, 1508.487 -1809.307, 1508.485 -1799.307, 1508.483 -1789.307, 1508.481 -1779.307, 1508.478 -1769.307, 1508.476 -1759.307, 1508.474 -1749.307, 1508.472 -1739.307, 1508.469 -1729.307, 1508.467 -1719.307, 1508.465 -1709.307, 1508.462 -1699.307, 1508.460 -1689.307, 1508.458 -1679.307, 1508.456 -1669.307, 1508.453 -1659.307, 1508.451 -1649.307, 1508.449 -1639.307, 1508.447 -1629.307, 1508.444 -1619.307, 1508.442 -1609.307, 1508.440 -1599.307, 1508.438 -1589.307, 1508.435 -1579.307, 1508.433 -1569.307, 1508.431 -1559.307, 1508.429 -1549.307, 1508.426 -1539.307, 1508.424 -1529.307, 1508.422 -1519.307, 1508.420 -1509.307, 1508.417 -1499.307, 1508.415 -1489.307, 1508.413 -1479.307, 1508.411 -1469.307, 1508.408 -1459.307, 1508.406 -1449.307, 1508.404 -1439.307, 1508.402 -1429.307, 1508.399 -1419.307, 1508.397 -1409.307, 1508.395 -1399.307, 1508.393 -1389.307, 1508.390 -1379.307, 1508.388 -1369.307, 1508.386 -1359.307, 1508.383 -1349.307, 1508.381 -1339.307, 1508.379 -1329.307, 1508.377 -1319.307, 1508.374 -1309.307, 1508.372 -1299.307, 1508.370 -1289.307, 1508.368 -1279.307, 1508.365 -1269.307, 1508.363 -1259.307, 1508.361 -1249.307, 1508.359 -1239.307, 1508.356 -1229.307, 1508.354 -1219.307, 1508.352 -1209.307, 1508.350 -1199.307, 1508.347 -1189.307, 1508.345 -1179.307, 1508.343 -1169.307, 1508.341 -1159.307, 1508.338 -1149.307, 1508.336 -1139.307, 1508.334 -1129.307, 1508.332 -1119.307, 1508.329 -1109.307, 1508.327 -1099.307, 1508.325 -1089.307, 1508.323 -1079.307, 1508.320 -1069.307, 1508.318 -1059.307, 1508.316 -1049.307, 1508.313 -1039.307, 1508.311 -1029.307, 1508.309 -1019.307, 1508.307 -1009.307, 1508.304 -999.307, 1508.302 -989.307, 1508.300 -979.307, 1508.298 -969.307, 1508.295 -959.307, 1508.293 -949.307, 1508.291 -939.307, 1508.289 -929.307, 1508.286 -919.307, 1508.284 -909.307, 1508.282 -899.307, 1508.280 -889.307, 1508.277 -879.307, 1508.275 -869.307, 1508.273 -859.307, 1508.271 -849.307, 1508.268 -839.307, 1508.266 -829.307, 1508.264 -819.307, 1508.262 -809.307, 1508.259 -799.307, 1508.257 -789.307, 1508.255 -779.307, 1508.253 -769.307, 1508.250 -759.307, 1508.248 -749.307, 1508.246 -739.307, 1508.243 -729.307, 1508.241 -719.307, 1508.239 -709.307, 1508.237 -699.307, 1508.234 -689.307, 1508.232 -679.307, 1508.230 -669.307, 1508.228 -659.307, 1508.225 -649.307, 1508.223 -639.307, 1508.221 -629.307, 1508.219 -619.307, 1508.216 -609.307, 1508.214 -599.307, 1508.212 -589.307, 1508.210 -579.307, 1508.207 -569.307, 1508.205 -559.307, 1508.203 -549.307, 1508.201 -539.307, 1508.198 -529.307, 1508.196 -519.307, 1508.194 -509.307, 1508.192 -499.307, 1508.189 -489.307, 1508.187 -479.307, 1508.185 -469.307, 1508.183 -459.307, 1508.180 -449.307, 1508.178 -439.307, 1508.176 -429.307, 1508.174 -419.307, 1508.171 -409.307, 1508.169 -399.307, 1508.167 -389.307, 1508.164 -379.307, 1508.162 -369.307, 1508.160 -359.307, 1508.158 -349.307, 1508.155 -339.307, 1508.153 -329.307, 1508.151 -319.307, 1508.149 -309.307, 1508.146 -299.307, 1508.144 -289.307, 1508.142 -279.307, 1508.140 -269.307, 1508.137 -259.307, 1508.135 -249.307, 1508.133 -239.307, 1508.131 -229.307, 1508.128 -219.307, 1508.126 -209.307, 1508.124 -199.307, 1508.122 -189.307, 1508.119 -179.307, 1508.117 -169.307, 1508.115 -159.307, 1508.113 -149.307, 1508.110 -139.307, 1508.108 -129.307, 1508.106 -119.307, 1508.104 -109.307, 1508.101 -99.307, 1508.099 -89.307, 1508.097 -79.307, 1508.094 -69.307, 1508.092 -59.307, 1508.090 -49.307, 1508.088 -39.307, 1508.085 -29.307, 1508.083 -19.307, 1508.081 -9.307, 1508.079 0.693, 1508.076 10.693, 1508.074 20.693, 1508.072 30.693, 1508.070 40.693, 1508.067 50.693, 1508.065 60.693, 1508.063 70.693, 1508.061 80.693, 1508.058 90.693, 1508.056 100.693, 1508.054 110.693, 1508.052 120.693, 1508.049 130.693, 1508.047 140.693, 1508.045 150.693, 1508.043 160.693, 1508.040 170.693, 1508.038 180.693, 1508.036 190.693, 1508.034 200.693, 1508.031 210.693, 1508.029 220.693, 1508.027 230.693, 1508.025 240.693, 1508.022 250.693, 1508.020 260.693, 1508.018 270.693, 1508.015 280.693, 1508.013 290.693, 1508.011 300.693, 1508.009 310.693, 1508.006 320.693, 1508.004 330.693, 1508.002 340.693, 1508.000 350.693, 1507.997 360.693, 1507.995 370.693, 1507.993 380.693, 1507.991 390.693, 1507.988 400.693, 1507.986 410.693, 1507.984 457.360, 1507.973 " />
            <path fill="none" stroke-width="3.0" stroke-linecap="butt" stroke-opacity="1.0" stroke="rgb(0, 0, 0)" stroke-linejoin="round" d=" M 456.762, 1506.947 446.762, 1506.947 436.762, 1506.948 426.762, 1506.949 416.762, 1506.950 406.762, 1506.950 396.762, 1506.951 386.762, 1506.952 376.762, 1506.952 366.762, 1506.953 356.762, 1506.954 346.762, 1506.955 336.762, 1506.955 326.762, 1506.956 316.762, 1506.957 306.762, 1506.958 296.762, 1506.958 286.762, 1506.959 276.762, 1506.960 266.762, 1506.961 256.762, 1506.961 246.762, 1506.962 236.762, 1506.963 226.762, 1506.963 216.762, 1506.964 206.762, 1506.965 196.762, 1506.966 186.762, 1506.966 176.762, 1506.967 166.762, 1506.968 156.762, 1506.969 146.762, 1506.969 136.762, 1506.970 126.762, 1506.971 116.762, 1506.972 106.762, 1506.972 96.762, 1506.973 86.762, 1506.974 76.762, 1506.975 66.762, 1506.975 56.762, 1506.976 46.762, 1506.977 36.762, 1506.977 26.762, 1506.978 16.762, 1506.979 6.762, 1506.980 -3.238, 1506.980 -13.238, 1506.981 -23.238, 1506.982 -33.238, 1506.983 -43.238, 1506.983 -53.238, 1506.984 -63.238, 1506.985 -73.238, 1506.986 -83.238, 1506.986 -93.238, 1506.987 -103.238, 1506.988 -113.238, 1506.988 -123.238, 1506.989 -133.238, 1506.990 -143.238, 1506.991 -153.238, 1506.991 -163.238, 1506.992 -173.238, 1506.993 -183.238, 1506.994 -193.238, 1506.994 -203.238, 1506.995 -213.238, 1506.996 -223.238, 1506.997 -233.238, 1506.997 -243.238, 1506.998 -253.238, 1506.999 -263.238, 1506.999 -273.238, 1507.000 -283.238, 1507.001 -293.238, 1507.002 -303.238, 1507.002 -313.238, 1507.003 -323.238, 1507.004 -333.238, 1507.005 -343.238, 1507.005 -353.238, 1507.006 -363.238, 1507.007 -373.238, 1507.008 -383.238, 1507.008 -393.238, 1507.009 -403.238, 1507.010 -413.238, 1507.010 -423.238, 1507.011 -433.238, 1507.012 -443.238, 1507.013 -453.238, 1507.013 -463.238, 1507.014 -473.238, 1507.015 -483.238, 1507.016 -493.238, 1507.016 -503.238, 1507.017 -513.238, 1507.018 -523.238, 1507.019 -533.238, 1507.019 -543.238, 1507.020 -553.238, 1507.021 -563.238, 1507.022 -573.238, 1507.022 -583.238, 1507.023 -593.238, 1507.024 -603.238, 1507.024 -613.238, 1507.025 -623.238, 1507.026 -633.238, 1507.027 -643.238, 1507.027 -653.238, 1507.028 -663.238, 1507.029 -673.238, 1507.030 -683.238, 1507.030 -693.238, 1507.031 -703.238, 1507.032 -713.238, 1507.033 -723.238, 1507.033 -733.238, 1507.034 -743.238, 1507.035 -753.238, 1507.035 -763.238, 1507.036 -773.238, 1507.037 -783.238, 1507.038 -793.238, 1507.038 -803.238, 1507.039 -813.238, 1507.040 -823.238, 1507.041 -833.238, 1507.041 -843.238, 1507.042 -853.238, 1507.043 -863.238, 1507.044 -873.238, 1507.044 -883.238, 1507.045 -893.238, 1507.046 -903.238, 1507.046 -913.238, 1507.047 -923.238, 1507.048 -933.238, 1507.049 -943.238, 1507.049 -953.238, 1507.050 -963.238, 1507.051 -973.238, 1507.052 -983.238, 1507.052 -993.238, 1507.053 -1003.238, 1507.054 -1013.238, 1507.055 -1023.238, 1507.055 -1033.238, 1507.056 -1043.238, 1507.057 -1053.238, 1507.058 -1063.238, 1507.058 -1073.238, 1507.059 -1083.238, 1507.060 -1093.238, 1507.060 -1103.238, 1507.061 -1113.238, 1507.062 -1123.238, 1507.063 -1133.238, 1507.063 -1143.238, 1507.064 -1153.238, 1507.065 -1163.238, 1507.066 -1173.238, 1507.066 -1183.238, 1507.067 -1193.238, 1507.068 -1203.238, 1507.069 -1213.238, 1507.069 -1223.238, 1507.070 -1233.238, 1507.071 -1243.238, 1507.071 -1253.238, 1507.072 -1263.238, 1507.073 -1273.238, 1507.074 -1283.238, 1507.074 -1293.238, 1507.075 -1303.238, 1507.076 -1313.238, 1507.077 -1323.238, 1507.077 -1333.238, 1507.078 -1343.238, 1507.079 -1353.238, 1507.080 -1363.238, 1507.080 -1373.238, 1507.081 -1383.238, 1507.082 -1393.238, 1507.082 -1403.238, 1507.083 -1413.238, 1507.084 -1423.238, 1507.085 -1433.238, 1507.085 -1443.238, 1507.086 -1453.238, 1507.087 -1463.238, 1507.088 -1473.238, 1507.088 -1483.238, 1507.089 -1493.238, 1507.090 -1503.238, 1507.091 -1513.238, 1507.091 -1523.238, 1507.092 -1533.238, 1507.093 -1543.238, 1507.093 -1553.238, 1507.094 -1563.238, 1507.095 -1573.238, 1507.096 -1583.238, 1507.096 -1593.238, 1507.097 -1603.238, 1507.098 -1613.238, 1507.099 -1623.238, 1507.099 -1633.238, 1507.100 -1643.238, 1507.101 -1653.238, 1507.102 -1663.238, 1507.102 -1673.238, 1507.103 -1683.238, 1507.104 -1693.238, 1507.105 -1703.238, 1507.105 -1713.238, 1507.106 -1723.238, 1507.107 -1733.238, 1507.107 -1743.238, 1507.108 -1753.238, 1507.109 -1763.238, 1507.110 -1773.238, 1507.110 -1783.238, 1507.111 -1793.238, 1507.112 -1803.238, 1507.113 -1813.238, 1507.113 -1823.238, 1507.114 -1833.238, 1507.115 -1843.238, 1507.116 -1853.238, 1507.116 -1863.238, 1507.117 -1873.238, 1507.118 -1883.238, 1507.118 -1893.238, 1507.119 -1903.238, 1507.120 -1913.238, 1507.121 -1923.238, 1507.121 -1933.238, 1507.122 -1943.238, 1507.123 -1953.238, 1507.124 -1963.238, 1507.124 -1973.238, 1507.125 -1983.238, 1507.126 -1993.238, 1507.127 -2003.238, 1507.127 -2013.238, 1507.128 -2023.238, 1507.129 -2033.238, 1507.129 -2043.238, 1507.130 -2053.238, 1507.131 -2063.238, 1507.132 -2073.238, 1507.132 -2083.238, 1507.133 -2093.238, 1507.134 -2103.238, 1507.135 -2113.238, 1507.135 -2123.238, 1507.136 -2133.238, 1507.137 -2143.238, 1507.138 -2153.238, 1507.138 -2163.238, 1507.139 -2173.238, 1507.140 -2183.238, 1507.141 -2193.238, 1507.141 -2203.238, 1507.142 -2213.238, 1507.143 -2223.238, 1507.143 -2233.238, 1507.144 -2243.238, 1507.145 -2253.238, 1507.146 -2263.238, 1507.146 -2273.238, 1507.147 -2283.238, 1507.148 -2293.238, 1507.149 -2303.238, 1507.149 -2313.238, 1507.150 -2323.238, 1507.151 -2333.238, 1507.152 -2343.238, 1507.152 -2353.238, 1507.153 -2363.238, 1507.154 -2373.238, 1507.154 -2383.238, 1507.155 -2393.238, 1507.156 -2403.238, 1507.157 -2413.238, 1507.157 -2423.238, 1507.158 -2433.238, 1507.159 -2443.238, 1507.160 -2453.238, 1507.160 -2463.238, 1507.161 -2473.238, 1507.162 -2483.238, 1507.163 -2493.238, 1507.163 -2503.238, 1507.164 -2513.238, 1507.165 -2523.238, 1507.165 -2533.238, 1507.166 -2543.238, 1507.167 -2553.238, 1507.168 -2563.238, 1507.168 -2573.238, 1507.169 -2583.238, 1507.170 -2593.238, 1507.171 -2603.238, 1507.171 -2613.238, 1507.172 -2623.238, 1507.173 -2633.238, 1507.174 -2643.238, 1507.174 -2653.238, 1507.175 -2663.238, 1507.176 -2673.238, 1507.176 -2683.238, 1507.177 -2693.238, 1507.178 -2703.238, 1507.179 -2713.238, 1507.179 -2723.238, 1507.180 -2733.238, 1507.181 -2743.238, 1507.182 -2753.238, 1507.182 -2763.238, 1507.183 -2773.238, 1507.184 -2783.238, 1507.185 -2793.238, 1507.185 -2803.238, 1507.186 -2813.238, 1507.187 -2823.238, 1507.188 -2833.238, 1507.188 -2843.238, 1507.189 -2853.238, 1507.190 -2863.238, 1507.190 -2873.238, 1507.191 -2883.238, 1507.192 -2893.238, 1507.193 -2903.238, 1507.193 -2913.238, 1507.194 -2923.238, 1507.195 -2933.238, 1507.196 -2943.238, 1507.196 -2953.238, 1507.197 -2963.238, 1507.198 -2973.238, 1507.199 -2983.238, 1507.199 -2993.238, 1507.200 -3003.238, 1507.201 -3013.238, 1507.201 -3052.587, 1507.204 " />
            <path fill="none" stroke-width="3.0" stroke-linecap="butt" stroke-opacity="1.0" stroke="rgb(0, 0, 0)" stroke-linejoin="round" d=" M 2309.029, 1506.811 2299.029, 1506.811 2289.029, 1506.812 2279.029, 1506.813 2269.029, 1506.813 2259.029, 1506.814 2249.029, 1506.815 2239.029, 1506.816 2229.029, 1506.816 2219.029, 1506.817 2209.029, 1506.818 2199.029, 1506.819 2189.029, 1506.819 2179.029, 1506.820 2169.029, 1506.821 2159.029, 1506.822 2149.029, 1506.822 2139.029, 1506.823 2129.029, 1506.824 2119.029, 1506.824 2109.029, 1506.825 2099.029, 1506.826 2089.029, 1506.827 2079.029, 1506.827 2069.029, 1506.828 2059.029, 1506.829 2049.029, 1506.830 2046.016, 1506.830 " />
            <path fill="none" stroke-width="3.0" stroke-linecap="butt" stroke-opacity="1.0" stroke="rgb(0, 0, 0)" stroke-linejoin="round" d=" M 370.443, 1341.204 360.443, 1341.204 350.443, 1341.204 340.443, 1341.204 330.443, 1341.204 320.443, 1341.204 310.443, 1341.204 300.443, 1341.204 290.443, 1341.204 280.443, 1341.204 270.443, 1341.204 260.443, 1341.204 250.443, 1341.204 240.443, 1341.204 230.443, 1341.204 220.443, 1341.204 210.443, 1341.204 200.443, 1341.204 190.443, 1341.204 180.443, 1341.204 170.443, 1341.204 160.443, 1341.204 150.443, 1341.204 140.443, 1341.204 130.443, 1341.204 120.443, 1341.204 110.443, 1341.204 100.443, 1341.204 90.443, 1341.204 80.443, 1341.204 70.443, 1341.204 60.443, 1341.204 50.443, 1341.204 40.443, 1341.204 30.443, 1341.204 20.443, 1341.204 10.443, 1341.204 0.443, 1341.204 -9.557, 1341.204 -19.557, 1341.204 -29.557, 1341.204 -39.557, 1341.204 -49.557, 1341.204 -59.557, 1341.204 -69.557, 1341.204 -79.557, 1341.204 -89.557, 1341.204 -99.557, 1341.204 -109.557, 1341.204 -119.557, 1341.204 -129.557, 1341.204 -139.557, 1341.204 -149.557, 1341.204 -159.557, 1341.204 -169.557, 1341.204 -179.557, 1341.204 -189.557, 1341.204 -199.557, 1341.204 -209.557, 1341.204 -219.557, 1341.204 -229.557, 1341.204 -239.557, 1341.204 -249.557, 1341.204 -259.557, 1341.204 -269.557, 1341.204 -279.557, 1341.204 -289.557, 1341.204 -299.557, 1341.204 -309.557, 1341.204 -319.557, 1341.204 -329.557, 1341.204 -339.557, 1341.204 -349.557, 1341.204 -359.557, 1341.204 -369.557, 1341.204 -379.557, 1341.204 -389.557, 1341.204 -399.557, 1341.204 -409.557, 1341.204 -419.557, 1341.204 -429.557, 1341.204 -439.557, 1341.204 -449.557, 1341.204 -459.557, 1341.204 -469.557, 1341.204 -479.557, 1341.204 -489.557, 1341.204 -499.557, 1341.204 -509.557, 1341.204 -519.557, 1341.204 -529.557, 1341.204 -539.557, 1341.204 -549.557, 1341.204 -559.557, 1341.204 -569.557, 1341.204 -579.557, 1341.204 -589.557, 1341.204 -599.557, 1341.204 -609.557, 1341.204 -619.557, 1341.204 -629.557, 1341.204 -639.557, 1341.204 -649.557, 1341.204 -659.557, 1341.204 -669.557, 1341.204 -679.557, 1341.204 -689.557, 1341.204 -699.557, 1341.204 -709.557, 1341.204 -719.557, 1341.204 -729.557, 1341.204 -739.557, 1341.204 -749.557, 1341.204 -759.557, 1341.204 -769.557, 1341.204 -779.557, 1341.204 -789.557, 1341.204 -799.557, 1341.204 -809.557, 1341.204 -819.557, 1341.204 -829.557, 1341.204 -839.557, 1341.204 -849.557, 1341.204 -859.557, 1341.204 -869.557, 1341.204 -879.557, 1341.204 -889.557, 1341.204 -899.557, 1341.204 -909.557, 1341.204 -919.557, 1341.204 -929.557, 1341.204 -939.557, 1341.204 -949.557, 1341.204 -959.557, 1341.204 -969.557, 1341.204 -979.557, 1341.204 -989.557, 1341.204 -999.557, 1341.204 -1009.557, 1341.204 -1019.557, 1341.204 -1029.557, 1341.204 -1039.557, 1341.204 -1049.557, 1341.204 -1059.557, 1341.204 -1069.557, 1341.204 -1079.557, 1341.204 -1089.557, 1341.204 -1099.557, 1341.204 -1109.557, 1341.204 -1119.557, 1341.204 -1129.557, 1341.204 -1139.557, 1341.204 -1149.557, 1341.204 -1159.557, 1341.204 -1169.557, 1341.204 -1179.557, 1341.204 -1189.557, 1341.204 -1199.557, 1341.204 -1209.557, 1341.204 -1219.557, 1341.204 -1229.557, 1341.204 -1239.557, 1341.204 -1249.557, 1341.204 -1259.557, 1341.204 -1269.557, 1341.204 -1279.557, 1341.204 -1289.557, 1341.204 -1299.557, 1341.204 -1309.557, 1341.204 -1319.557, 1341.204 -1329.557, 1341.204 -1339.557, 1341.204 -1349.557, 1341.204 -1359.557, 1341.204 -1369.557, 1341.204 -1379.557, 1341.204 -1389.557, 1341.204 -1399.557, 1341.204 -1409.557, 1341.204 -1419.557, 1341.204 -1429.557, 1341.204 -1439.557, 1341.204 -1449.557, 1341.204 -1459.557, 1341.204 -1469.557, 1341.204 -1479.557, 1341.204 -1489.557, 1341.204 -1499.557, 1341.204 -1509.557, 1341.204 -1519.557, 1341.204 -1529.557, 1341.204 -1539.557, 1341.204 -1549.557, 1341.204 -1559.557, 1341.204 -1569.557, 1341.204 -1579.557, 1341.204 -1589.557, 1341.204 -1599.557, 1341.204 -1609.557, 1341.204 -1619.557, 1341.204 -1629.557, 1341.204 -1639.557, 1341.204 -1649.557, 1341.204 -1659.557, 1341.204 -1669.557, 1341.204 -1679.557, 1341.204 -1689.557, 1341.204 -1699.557, 1341.204 -1709.557, 1341.204 -1719.557, 1341.204 -1729.557, 1341.204 -1739.557, 1341.204 -1749.557, 1341.204 -1759.557, 1341.204 -1769.557, 1341.204 -1779.557, 1341.204 -1789.557, 1341.204 -1799.557, 1341.204 -1809.557, 1341.204 -1819.557, 1341.204 -1829.557, 1341.204 -1839.557, 1341.204 -1849.557, 1341.204 -1859.557, 1341.204 -1869.557, 1341.204 -1879.557, 1341.204 -1889.557, 1341.204 -1899.557, 1341.204 -1909.557, 1341.204 -1919.557, 1341.204 -1929.557, 1341.204 -1939.557, 1341.204 -1949.557, 1341.204 -1959.557, 1341.204 -1969.557, 1341.204 -1979.557, 1341.204 -1989.557, 1341.204 -1999.557, 1341.204 -2009.557, 1341.204 -2019.557, 1341.204 -2029.557, 1341.204 -2039.557, 1341.204 -2049.557, 1341.204 -2059.556, 1341.204 -2069.556, 1341.204 -2079.557, 1341.204 -2089.557, 1341.204 -2099.557, 1341.204 -2109.557, 1341.204 -2119.557, 1341.204 -2129.557, 1341.204 -2139.557, 1341.204 -2149.557, 1341.204 -2159.557, 1341.204 -2169.557, 1341.204 -2179.557, 1341.204 -2189.557, 1341.204 -2199.557, 1341.204 -2209.556, 1341.204 -2219.557, 1341.204 -2229.557, 1341.204 -2239.557, 1341.204 -2249.557, 1341.204 -2259.557, 1341.204 -2269.557, 1341.204 -2279.557, 1341.204 -2289.557, 1341.204 -2299.557, 1341.204 -2309.557, 1341.204 -2319.557, 1341.204 -2329.557, 1341.204 -2339.557, 1341.204 -2349.556, 1341.204 -2359.557, 1341.204 -2369.557, 1341.204 -2379.557, 1341.204 -2389.557, 1341.204 -2399.557, 1341.204 -2409.557, 1341.204 -2419.557, 1341.204 -2429.557, 1341.204 -2439.557, 1341.204 -2449.557, 1341.204 -2459.557, 1341.204 -2469.557, 1341.204 -2479.557, 1341.204 -2489.556, 1341.204 -2499.557, 1341.204 -2509.557, 1341.204 -2519.557, 1341.204 -2529.557, 1341.204 -2539.557, 1341.204 -2549.557, 1341.204 -2559.557, 1341.204 -2569.557, 1341.204 -2579.557, 1341.204 -2589.557, 1341.204 -2599.557, 1341.204 -2609.557, 1341.204 -2619.557, 1341.204 -2629.556, 1341.204 -2639.557, 1341.204 -2649.557, 1341.204 -2659.557, 1341.204 -2669.557, 1341.204 -2679.557, 1341.204 -2689.557, 1341.204 -2699.557, 1341.204 -2709.557, 1341.204 -2719.557, 1341.204 -2729.557, 1341.204 -2739.557, 1341.204 -2749.557, 1341.204 -2759.557, 1341.204 -2769.556, 1341.204 -2779.556, 1341.204 -2789.556, 1341.204 -2799.556, 1341.204 -2809.556, 1341.204 -2819.556, 1341.204 -2829.556, 1341.204 -2839.556, 1341.204 -2849.557, 1341.204 -2859.557, 1341.204 -2869.557, 1341.204 -2879.557, 1341.204 -2889.557, 1341.204 -2899.557, 1341.204 -2909.557, 1341.204 -2919.557, 1341.204 -2929.557, 1341.204 -2939.557, 1341.204 -2949.557, 1341.204 -2959.557, 1341.204 -2969.557, 1341.204 -2979.557, 1341.204 -2989.557, 1341.204 -2999.557, 1341.204 -3009.557, 1341.204 -3019.557, 1341.204 -3029.557, 1341.204 -3039.557, 1341.204 -3049.557, 1341.204 -3059.556, 1341.204 -3069.556, 1341.204 -3079.556, 1341.204 -3089.556, 1341.204 -3099.556, 1341.204 -3109.556, 1341.204 -3119.556, 1341.204 -3129.557, 1341.204 -3139.557, 1341.204 -3149.557, 1341.204 -3159.557, 1341.204 -3169.557, 1341.204 -3179.557, 1341.204 -3189.557, 1341.204 -3199.557, 1341.204 -3209.557, 1341.204 -3219.557, 1341.204 -3229.557, 1341.204 -3239.557, 1341.204 -3249.557, 1341.204 -3259.557, 1341.204 -3269.557, 1341.204 -3279.557, 1341.204 -3289.557, 1341.204 -3299.557, 1341.204 -3309.557, 1341.204 -3319.557, 1341.204 -3329.557, 1341.204 -3339.556, 1341.204 -3349.556, 1341.204 -3359.556, 1341.204 -3369.556, 1341.204 -3379.556, 1341.204 -3389.556, 1341.204 -3399.556, 1341.204 -3409.557, 1341.204 -3419.557, 1341.204 -3429.557, 1341.204 -3439.557, 1341.204 -3449.557, 1341.204 -3459.557, 1341.204 -3469.557, 1341.204 -3479.557, 1341.204 -3489.557, 1341.204 -3499.557, 1341.204 -3509.557, 1341.204 -3519.557, 1341.204 -3529.557, 1341.204 -3539.557, 1341.204 -3549.557, 1341.204 -3559.557, 1341.204 -3569.557, 1341.204 -3579.557, 1341.204 -3589.557, 1341.204 -3599.557, 1341.204 -3609.557, 1341.204 -3619.557, 1341.204 -3629.556, 1341.204 -3639.556, 1341.204 -3649.556, 1341.204 -3659.556, 1341.204 -3669.556, 1341.204 -3679.556, 1341.204 -3689.557, 1341.204 -3699.557, 1341.204 -3709.557, 1341.204 -3719.557, 1341.204 -3729.557, 1341.204 -3739.557, 1341.204 -3749.557, 1341.204 -3759.557, 1341.204 -3769.557, 1341.204 -3779.557, 1341.204 -3789.557, 1341.204 -3799.557, 1341.204 -3809.557, 1341.204 -3819.557, 1341.204 -3829.557, 1341.204 -3839.557, 1341.204 -3849.557, 1341.204 -3859.557, 1341.204 -3869.557, 1341.204 -3879.557, 1341.204 -3889.557, 1341.204 -3899.557, 1341.204 -3909.556, 1341.204 -3919.556, 1341.204 -3929.556, 1341.204 -3939.556, 1341.204 -3949.556, 1341.204 -3959.556, 1341.204 -3969.557, 1341.204 -3979.557, 1341.204 -3989.557, 1341.204 -3999.557, 1341.204 -4009.557, 1341.204 -4019.557, 1341.204 -4029.557, 1341.204 -4039.557, 1341.204 -4049.557, 1341.204 -4059.557, 1341.204 -4069.557, 1341.204 -4079.557, 1341.204 -4089.557, 1341.204 -4099.557, 1341.204 -4109.557, 1341.204 -4119.557, 1341.204 -4129.557, 1341.204 -4139.557, 1341.204 -4149.557, 1341.204 -4159.557, 1341.204 -4169.557, 1341.204 -4179.557, 1341.204 -4189.557, 1341.204 -4199.557, 1341.204 -4209.557, 1341.204 -4219.557, 1341.204 -4229.557, 1341.204 -4239.557, 1341.204 -4249.557, 1341.204 -4259.557, 1341.204 -4269.557, 1341.204 -4279.557, 1341.204 -4289.557, 1341.204 -4299.557, 1341.204 -4309.557, 1341.204 -4319.557, 1341.204 -4329.557, 1341.204 -4339.557, 1341.204 -4349.557, 1341.204 -4359.557, 1341.204 -4369.557, 1341.204 -4379.557, 1341.204 -4389.557, 1341.204 -4399.557, 1341.204 -4409.557, 1341.204 -4419.557, 1341.204 -4429.557, 1341.204 -4439.557, 1341.204 -4449.557, 1341.204 -4459.557, 1341.204 -4469.557, 1341.204 -4479.557, 1341.204 -4489.557, 1341.204 -4499.557, 1341.204 -4509.557, 1341.204 -4519.557, 1341.204 -4529.557, 1341.204 -4539.557, 1341.204 -4549.557, 1341.204 -4559.557, 1341.204 -4569.557, 1341.204 -4579.557, 1341.204 -4589.557, 1341.204 -4599.557, 1341.204 -4609.557, 1341.204 -4619.557, 1341.204 -4629.557, 1341.204 -4639.557, 1341.204 -4649.557, 1341.204 -4659.557, 1341.204 -4669.557, 1341.204 -4679.557, 1341.204 -4689.557, 1341.204 -4699.557, 1341.204 -4709.557, 1341.204 -4719.557, 1341.204 -4729.557, 1341.204 -4739.557, 1341.204 -4749.557, 1341.204 -4759.557, 1341.204 -4769.557, 1341.204 -4779.557, 1341.204 -4789.557, 1341.204 -4799.557, 1341.204 -4809.557, 1341.204 -4819.557, 1341.204 -4829.557, 1341.204 -4839.557, 1341.204 -4849.557, 1341.204 -4859.557, 1341.204 -4869.557, 1341.204 -4879.557, 1341.204 -4889.557, 1341.204 -4899.557, 1341.204 -4909.557, 1341.204 -4919.557, 1341.204 -4929.557, 1341.204 -4939.557, 1341.204 -4949.557, 1341.204 -4959.557, 1341.204 -4969.557, 1341.204 -4979.557, 1341.204 -4989.557, 1341.204 -4999.557, 1341.204 -5009.557, 1341.204 -5019.557, 1341.204 -5029.557, 1341.204 -5039.557, 1341.204 -5049.557, 1341.204 -5059.557, 1341.204 -5069.557, 1341.204 -5079.557, 1341.204 -5089.557, 1341.204 -5099.557, 1341.204 -5109.557, 1341.204 -5119.557, 1341.204 -5129.557, 1341.204 -5139.557, 1341.204 -5149.557, 1341.204 -5159.557, 1341.204 -5169.557, 1341.204 -5179.557, 1341.204 -5189.557, 1341.204 -5199.557, 1341.204 -5209.557, 1341.204 -5219.557, 1341.204 -5229.557, 1341.204 -5239.557, 1341.204 -5249.557, 1341.204 -5259.557, 1341.204 -5269.557, 1341.204 -5279.557, 1341.204 -5289.557, 1341.204 -5299.557, 1341.204 -5309.557, 1341.204 -5319.557, 1341.204 -5329.557, 1341.204 -5339.557, 1341.204 -5349.557, 1341.204 -5359.557, 1341.204 -5369.557, 1341.204 -5379.557, 1341.204 -5389.557, 1341.204 -5399.557, 1341.204 -5409.557, 1341.204 -5419.557, 1341.204 -5429.557, 1341.204 -5439.557, 1341.204 -5449.557, 1341.204 -5459.557, 1341.204 -5469.557, 1341.204 -5479.557, 1341.204 -5489.557, 1341.204 -5499.557, 1341.204 -5509.557, 1341.204 -5519.557, 1341.204 -5529.557, 1341.204 -5539.557, 1341.204 -5549.557, 1341.204 -5559.557, 1341.204 -5569.557, 1341.204 -5579.557, 1341.204 -5589.557, 1341.204 -5599.557, 1341.204 -5609.557, 1341.204 -5619.557, 1341.204 -5629.557, 1341.204 -5639.557, 1341.204 -5649.557, 1341.204 -5659.557, 1341.204 -5669.557, 1341.204 -5679.557, 1341.204 -5689.557, 1341.204 -5699.557, 1341.204 -5709.557, 1341.204 -5776.400, 1341.204 " />
            <path fill="none" stroke-width="3.0" stroke-linecap="butt" stroke-opacity="1.0" stroke="rgb(0, 0, 0)" stroke-linejoin="round" d=" M 2004.428, 1341.204 1994.428, 1341.204 1984.428, 1341.204 1974.428, 1341.204 1964.428, 1341.204 1954.428, 1341.204 1944.428, 1341.204 1934.428, 1341.204 1924.428, 1341.204 1914.428, 1341.204 1904.428, 1341.204 1894.428, 1341.204 1884.428, 1341.204 1874.428, 1341.204 1864.428, 1341.204 1854.428, 1341.204 1844.428, 1341.204 1834.428, 1341.204 1824.428, 1341.204 1814.428, 1341.204 1804.428, 1341.204 1794.428, 1341.204 1784.428, 1341.204 1774.428, 1341.204 1764.428, 1341.204 1754.428, 1341.204 1744.428, 1341.204 1734.428, 1341.204 1724.428, 1341.204 1714.428, 1341.204 1704.428, 1341.204 1694.428, 1341.204 1684.428, 1341.204 1674.428, 1341.204 1664.428, 1341.204 1654.428, 1341.204 1644.428, 1341.204 1634.428, 1341.204 1624.428, 1341.204 1614.428, 1341.204 1604.428, 1341.204 1594.428, 1341.204 1584.428, 1341.204 1574.428, 1341.204 1564.428, 1341.204 1554.428, 1341.204 1544.428, 1341.204 1534.428, 1341.204 1524.428, 1341.204 1514.428, 1341.204 1504.428, 1341.204 1494.428, 1341.204 1484.428, 1341.204 1474.428, 1341.204 1464.428, 1341.204 1454.428, 1341.204 1444.428, 1341.204 1434.428, 1341.204 1424.428, 1341.204 1414.428, 1341.204 1404.428, 1341.204 1394.428, 1341.204 1384.428, 1341.204 1374.428, 1341.204 1364.428, 1341.204 1354.428, 1341.204 1344.428, 1341.204 1334.428, 1341.204 1324.428, 1341.204 1314.428, 1341.204 1304.428, 1341.204 1294.428, 1341.204 1284.428, 1341.204 1274.428, 1341.204 1264.428, 1341.204 1254.428, 1341.204 1244.428, 1341.204 1234.428, 1341.204 1224.428, 1341.204 1214.428, 1341.204 1204.428, 1341.204 1194.428, 1341.204 1184.428, 1341.204 1174.428, 1341.204 1164.428, 1341.204 1154.428, 1341.204 1144.428, 1341.204 1134.428, 1341.204 1124.428, 1341.204 1114.428, 1341.204 1104.428, 1341.204 1094.428, 1341.204 1084.428, 1341.204 1074.428, 1341.204 1064.428, 1341.204 1054.428, 1341.204 1044.428, 1341.204 1034.428, 1341.204 1024.428, 1341.204 1014.428, 1341.204 1004.428, 1341.204 994.428, 1341.204 984.428, 1341.204 974.428, 1341.204 964.428, 1341.204 954.428, 1341.204 944.428, 1341.204 934.428, 1341.204 924.428, 1341.204 914.428, 1341.204 904.428, 1341.204 894.428, 1341.204 884.428, 1341.204 874.428, 1341.204 864.428, 1341.204 854.428, 1341.204 844.428, 1341.204 834.428, 1341.204 824.428, 1341.204 814.428, 1341.204 804.428, 1341.204 794.428, 1341.204 784.428, 1341.204 774.428, 1341.204 764.428, 1341.204 754.428, 1341.204 744.428, 1341.204 734.428, 1341.204 724.428, 1341.204 714.428, 1341.204 704.428, 1341.204 694.428, 1341.204 684.428, 1341.204 674.428, 1341.204 664.428, 1341.204 654.428, 1341.204 644.428, 1341.204 634.428, 1341.204 624.428, 1341.204 614.428, 1341.204 604.428, 1341.204 594.428, 1341.204 584.428, 1341.204 574.428, 1341.204 564.428, 1341.204 554.428, 1341.204 544.428, 1341.204 534.428, 1341.204 524.428, 1341.204 514.428, 1341.204 504.428, 1341.204 494.428, 1341.204 484.428, 1341.204 474.428, 1341.204 464.428, 1341.204 454.428, 1341.204 444.428, 1341.204 434.428, 1341.204 424.428, 1341.204 414.428, 1341.204 404.428, 1341.204 394.428, 1341.204 370.443, 1341.204 " />
            <path fill="none" stroke-width="3.0" stroke-linecap="butt" stroke-opacity="1.0" stroke="rgb(0, 0, 0)" stroke-linejoin="round" d=" M 3080.034, 1341.204 3070.034, 1341.204 3060.034, 1341.204 3050.034, 1341.204 3040.034, 1341.204 3030.034, 1341.204 3020.034, 1341.204 3010.034, 1341.204 3000.034, 1341.204 2990.034, 1341.204 2980.034, 1341.204 2970.034, 1341.204 2960.034, 1341.204 2950.034, 1341.204 2940.034, 1341.204 2930.034, 1341.204 2920.034, 1341.204 2910.034, 1341.204 2900.034, 1341.204 2890.034, 1341.204 2880.034, 1341.204 2870.034, 1341.204 2860.034, 1341.204 2850.034, 1341.204 2840.034, 1341.204 2830.034, 1341.204 2820.034, 1341.204 2810.034, 1341.204 2800.034, 1341.204 2790.034, 1341.204 2780.034, 1341.204 2770.034, 1341.204 2760.034, 1341.204 2750.034, 1341.204 2740.034, 1341.204 2730.034, 1341.204 2720.034, 1341.204 2710.034, 1341.204 2700.034, 1341.204 2690.034, 1341.204 2680.034, 1341.204 2670.034, 1341.204 2660.034, 1341.204 2650.034, 1341.204 2640.034, 1341.204 2630.034, 1341.204 2620.034, 1341.204 2610.034, 1341.204 2600.034, 1341.204 2590.034, 1341.204 2580.034, 1341.204 2570.034, 1341.204 2560.034, 1341.204 2550.034, 1341.204 2540.034, 1341.204 2530.034, 1341.204 2520.034, 1341.204 2510.034, 1341.204 2500.034, 1341.204 2490.034, 1341.204 2480.034, 1341.204 2470.034, 1341.204 2460.034, 1341.204 2450.034, 1341.204 2440.034, 1341.204 2430.034, 1341.204 2420.034, 1341.204 2410.034, 1341.204 2400.034, 1341.204 2390.034, 1341.204 2380.034, 1341.204 2370.034, 1341.204 2360.034, 1341.204 2350.034, 1341.204 2340.034, 1341.204 2330.034, 1341.204 2320.034, 1341.204 2310.034, 1341.204 2300.034, 1341.204 2290.034, 1341.204 2280.034, 1341.204 2270.034, 1341.204 2260.034, 1341.204 2250.034, 1341.204 2240.034, 1341.204 2230.034, 1341.204 2220.034, 1341.204 2210.034, 1341.204 2200.034, 1341.204 2190.034, 1341.204 2180.034, 1341.204 2170.034, 1341.204 2160.034, 1341.204 2150.034, 1341.204 2140.034, 1341.204 2130.034, 1341.204 2120.034, 1341.204 2110.034, 1341.204 2100.034, 1341.204 2090.034, 1341.204 2080.034, 1341.204 2070.034, 1341.204 2060.034, 1341.204 2050.034, 1341.204 2040.034, 1341.204 2030.034, 1341.204 2020.034, 1341.204 2004.428, 1341.204 " />
            <path fill="none" stroke-width="3.0" stroke-linecap="butt" stroke-opacity="1.0" stroke="rgb(0, 0, 0)" stroke-linejoin="round" d=" M 1981.400, 1177.068 1991.400, 1177.068 2001.400, 1177.068 2011.400, 1177.068 2021.400, 1177.068 2031.400, 1177.068 2041.400, 1177.068 2051.400, 1177.068 2061.400, 1177.068 2071.400, 1177.068 2081.400, 1177.068 2091.400, 1177.068 2101.400, 1177.068 2111.400, 1177.068 2121.400, 1177.068 2131.400, 1177.068 2141.400, 1177.068 2151.400, 1177.068 2161.400, 1177.068 2171.400, 1177.068 2181.400, 1177.068 2191.400, 1177.068 2201.400, 1177.068 2211.400, 1177.068 2221.400, 1177.068 2231.400, 1177.068 2241.400, 1177.068 2251.400, 1177.068 2261.400, 1177.068 2271.400, 1177.068 2281.400, 1177.068 2291.400, 1177.068 2301.400, 1177.068 2311.400, 1177.068 2321.400, 1177.068 2331.400, 1177.068 2341.400, 1177.068 2351.400, 1177.068 2361.400, 1177.068 2371.400, 1177.068 2381.400, 1177.068 2391.400, 1177.068 2401.400, 1177.068 2411.400, 1177.068 2421.400, 1177.068 2431.400, 1177.068 2441.400, 1177.068 2451.400, 1177.068 2461.400, 1177.068 2471.400, 1177.068 2481.400, 1177.068 2491.400, 1177.068 2501.400, 1177.068 2511.400, 1177.068 2521.400, 1177.068 2531.400, 1177.068 2541.400, 1177.068 2551.400, 1177.068 2561.400, 1177.068 2571.400, 1177.068 2581.400, 1177.068 2591.400, 1177.068 2601.400, 1177.068 2611.400, 1177.068 2621.400, 1177.068 2631.400, 1177.068 2641.400, 1177.068 2651.400, 1177.068 2661.400, 1177.068 2671.400, 1177.068 2681.400, 1177.068 2691.400, 1177.068 2701.400, 1177.068 2711.400, 1177.068 2721.400, 1177.068 2731.400, 1177.068 2741.400, 1177.068 2751.400, 1177.068 2761.400, 1177.068 2771.400, 1177.068 2781.400, 1177.068 2791.400, 1177.068 2801.400, 1177.068 2811.400, 1177.068 2821.400, 1177.068 2831.400, 1177.068 2841.400, 1177.068 2851.400, 1177.068 2861.400, 1177.068 2871.400, 1177.068 2881.400, 1177.068 2891.400, 1177.068 2901.400, 1177.068 2911.400, 1177.068 2921.400, 1177.068 2931.400, 1177.068 2941.400, 1177.068 2951.400, 1177.068 2961.400, 1177.068 2971.400, 1177.068 2981.400, 1177.068 2991.400, 1177.068 3001.400, 1177.068 3011.400, 1177.068 3021.400, 1177.068 3031.400, 1177.068 3041.400, 1177.068 3051.400, 1177.068 3061.400, 1177.068 3071.400, 1177.068 3081.400, 1177.068 3091.400, 1177.068 3101.400, 1177.068 3111.400, 1177.068 3121.400, 1177.068 3131.400, 1177.068 3141.400, 1177.068 3151.400, 1177.068 3161.400, 1177.068 3171.400, 1177.068 3181.400, 1177.068 3191.400, 1177.068 3201.400, 1177.068 3211.400, 1177.068 3221.400, 1177.068 3231.400, 1177.068 3241.400, 1177.068 3251.400, 1177.068 3261.400, 1177.068 3271.400, 1177.068 3281.400, 1177.068 3291.400, 1177.068 3301.400, 1177.068 3311.400, 1177.068 3321.400, 1177.068 3331.400, 1177.068 3341.400, 1177.068 3351.400, 1177.068 3361.400, 1177.068 3371.400, 1177.068 3381.400, 1177.068 3391.400, 1177.068 3401.400, 1177.068 3411.400, 1177.068 3421.400, 1177.068 3431.400, 1177.068 3441.400, 1177.068 3451.400, 1177.068 3461.400, 1177.068 3471.400, 1177.068 3481.400, 1177.068 3491.400, 1177.068 3501.400, 1177.068 3511.400, 1177.068 3521.400, 1177.068 3531.400, 1177.068 3541.400, 1177.068 3551.400, 1177.068 3561.400, 1177.068 3571.400, 1177.068 3581.400, 1177.068 3591.400, 1177.068 3601.400, 1177.068 3611.400, 1177.068 3621.400, 1177.068 3631.400, 1177.068 3641.400, 1177.068 3651.400, 1177.068 3661.400, 1177.068 3671.400, 1177.068 3681.400, 1177.068 3691.400, 1177.068 3701.400, 1177.068 3711.400, 1177.068 3721.400, 1177.068 3731.400, 1177.068 3741.400, 1177.068 3751.400, 1177.068 3761.400, 1177.068 3771.400, 1177.068 3781.400, 1177.068 3791.400, 1177.068 3801.400, 1177.068 3811.400, 1177.068 3821.400, 1177.068 3831.400, 1177.068 3841.400, 1177.068 3851.400, 1177.068 3861.400, 1177.068 3871.400, 1177.068 3881.400, 1177.068 3891.400, 1177.068 3901.400, 1177.068 3911.400, 1177.068 3921.400, 1177.068 3931.400, 1177.068 3941.400, 1177.068 3951.400, 1177.068 3961.400, 1177.068 3971.400, 1177.068 3981.400, 1177.068 3991.400, 1177.068 4001.400, 1177.068 4011.400, 1177.068 4021.400, 1177.068 4031.400, 1177.068 4041.400, 1177.068 4051.400, 1177.068 4061.400, 1177.068 4071.400, 1177.068 4081.400, 1177.068 4091.400, 1177.068 4101.400, 1177.068 4111.400, 1177.068 4121.400, 1177.068 4131.400, 1177.068 4141.400, 1177.068 4151.400, 1177.068 4161.400, 1177.068 4171.400, 1177.068 4181.400, 1177.068 4191.400, 1177.068 4201.400, 1177.068 4211.400, 1177.068 4221.400, 1177.068 4231.400, 1177.068 4241.400, 1177.068 4251.400, 1177.068 4261.400, 1177.068 4271.400, 1177.068 4281.400, 1177.068 4291.400, 1177.068 4301.400, 1177.068 4311.400, 1177.068 4321.400, 1177.068 4331.400, 1177.068 4341.400, 1177.068 4351.400, 1177.068 4361.400, 1177.068 4371.400, 1177.068 4381.400, 1177.068 4391.400, 1177.068 4401.400, 1177.068 4411.400, 1177.068 4421.400, 1177.068 4431.400, 1177.068 4441.400, 1177.068 4451.400, 1177.068 4461.400, 1177.068 4471.400, 1177.068 4481.400, 1177.068 4491.400, 1177.068 4501.400, 1177.068 4511.400, 1177.068 4521.400, 1177.068 4531.400, 1177.068 4541.400, 1177.068 4551.400, 1177.068 4561.400, 1177.068 4571.400, 1177.068 4581.400, 1177.068 4591.400, 1177.068 4601.400, 1177.068 4611.400, 1177.068 4621.400, 1177.068 4631.400, 1177.068 4641.400, 1177.068 4651.400, 1177.068 4661.400, 1177.068 4671.400, 1177.068 4681.400, 1177.068 4691.400, 1177.068 4701.400, 1177.068 4711.400, 1177.068 4721.400, 1177.068 4731.400, 1177.068 4741.400, 1177.068 4751.400, 1177.068 4761.400, 1177.068 4771.400, 1177.068 4781.400, 1177.068 4791.400, 1177.068 4801.400, 1177.068 4811.400, 1177.068 4821.400, 1177.068 4831.400, 1177.068 4841.400, 1177.068 4851.400, 1177.068 4861.400, 1177.068 4871.400, 1177.068 4881.400, 1177.068 4891.400, 1177.068 4901.400, 1177.068 4911.400, 1177.068 4921.400, 1177.068 4931.400, 1177.068 4941.400, 1177.068 4951.400, 1177.068 4961.400, 1177.068 4971.400, 1177.068 4981.400, 1177.068 4991.400, 1177.068 5001.400, 1177.068 5011.400, 1177.068 5021.400, 1177.068 5031.400, 1177.068 5041.400, 1177.068 5051.400, 1177.068 5061.400, 1177.068 5071.400, 1177.068 5081.400, 1177.068 5091.400, 1177.068 5101.400, 1177.068 5111.400, 1177.068 5121.400, 1177.068 5131.400, 1177.068 5141.400, 1177.068 5151.400, 1177.068 5161.400, 1177.068 5171.400, 1177.068 5181.400, 1177.068 5191.400, 1177.068 5201.400, 1177.068 5211.400, 1177.068 5221.400, 1177.068 5231.400, 1177.068 5241.400, 1177.068 5251.400, 1177.068 5261.400, 1177.068 5271.400, 1177.068 5281.400, 1177.068 5291.400, 1177.068 5301.400, 1177.068 5311.400, 1177.068 5321.400, 1177.068 5331.400, 1177.068 5341.400, 1177.068 5351.400, 1177.068 5361.400, 1177.068 5371.400, 1177.068 5381.400, 1177.068 5391.400, 1177.068 5401.400, 1177.068 5411.400, 1177.068 5421.400, 1177.068 5431.400, 1177.068 5441.400, 1177.068 5451.400, 1177.068 5461.400, 1177.068 5471.400, 1177.068 5481.400, 1177.068 5491.400, 1177.068 5501.400, 1177.068 5511.400, 1177.068 5521.400, 1177.068 5531.400, 1177.068 5541.400, 1177.068 5551.400, 1177.068 5561.400, 1177.068 5571.400, 1177.068 5581.400, 1177.068 5591.400, 1177.068 5601.400, 1177.068 5611.400, 1177.068 5621.400, 1177.068 5631.400, 1177.068 5641.400, 1177.068 5651.400, 1177.068 5661.400, 1177.068 5671.400, 1177.068 5681.400, 1177.068 5691.400, 1177.068 5701.400, 1177.068 5711.400, 1177.068 5721.400, 1177.068 5731.400, 1177.068 5741.400, 1177.068 5751.400, 1177.068 5761.400, 1177.068 5771.400, 1177.068 5781.400, 1177.068 5791.400, 1177.068 5801.400, 1177.068 5811.400, 1177.068 5821.400, 1177.068 5831.400, 1177.068 5841.400, 1177.068 5851.400, 1177.068 5861.400, 1177.068 5871.400, 1177.068 5881.400, 1177.068 5891.400, 1177.068 5901.400, 1177.068 5911.400, 1177.068 5921.400, 1177.068 5931.400, 1177.068 5941.400, 1177.068 5951.400, 1177.068 5961.400, 1177.068 5971.400, 1177.068 5981.400, 1177.068 5991.400, 1177.068 6001.400, 1177.068 6011.400, 1177.068 6021.400, 1177.068 6031.400, 1177.068 6041.400, 1177.068 6051.400, 1177.068 6061.400, 1177.068 6071.400, 1177.068 6081.400, 1177.068 6091.400, 1177.068 6101.400, 1177.068 6111.400, 1177.068 6121.400, 1177.068 6131.400, 1177.068 6141.400, 1177.068 6151.400, 1177.068 6161.400, 1177.068 6171.400, 1177.068 6181.400, 1177.068 6191.400, 1177.068 6201.400, 1177.068 6211.400, 1177.068 6221.400, 1177.068 6231.400, 1177.068 6241.400, 1177.068 6251.400, 1177.068 6261.400, 1177.068 6271.400, 1177.068 6281.400, 1177.068 6291.400, 1177.068 6301.400, 1177.068 6311.400, 1177.068 6321.400, 1177.068 6331.400, 1177.068 6341.400, 1177.068 6351.400, 1177.068 6361.400, 1177.068 6371.400, 1177.068 6381.400, 1177.068 6391.400, 1177.068 6401.400, 1177.068 6411.400, 1177.068 6421.400, 1177.068 6431.400, 1177.068 6441.400, 1177.068 6451.400, 1177.068 6461.400, 1177.068 6471.400, 1177.068 6481.400, 1177.068 6491.400, 1177.068 6501.400, 1177.068 6511.400, 1177.068 6521.400, 1177.068 6531.400, 1177.068 6541.400, 1177.068 6551.400, 1177.068 6561.400, 1177.068 6571.400, 1177.068 6581.400, 1177.068 6591.400, 1177.068 6601.400, 1177.068 6611.400, 1177.068 6621.400, 1177.068 6631.400, 1177.068 6641.400, 1177.068 6651.400, 1177.068 6661.400, 1177.068 6671.400, 1177.068 6681.400, 1177.068 6691.400, 1177.068 6701.400, 1177.068 6711.400, 1177.068 6721.400, 1177.068 6731.400, 1177.068 6741.400, 1177.068 6751.400, 1177.068 6761.400, 1177.068 6771.400, 1177.068 6781.400, 1177.068 6791.400, 1177.068 6801.400, 1177.068 6811.400, 1177.068 6821.400, 1177.068 6831.400, 1177.068 6841.400, 1177.068 6851.400, 1177.068 6861.400, 1177.068 6871.400, 1177.068 6881.400, 1177.068 6891.400, 1177.068 6901.400, 1177.068 6911.400, 1177.068 6921.400, 1177.068 6931.400, 1177.068 6941.400, 1177.068 6951.400, 1177.068 6961.400, 1177.068 6971.400, 1177.068 6981.400, 1177.068 6991.400, 1177.068 7001.400, 1177.068 7011.400, 1177.068 7021.400, 1177.068 7031.400, 1177.068 7041.400, 1177.068 7051.400, 1177.068 7061.400, 1177.068 7071.400, 1177.068 7081.400, 1177.068 7091.400, 1177.068 7101.400, 1177.068 7111.400, 1177.068 7121.400, 1177.068 7131.400, 1177.068 7141.400, 1177.068 7194.521, 1177.068 " />
            <path fill="none" stroke-width="3.0" stroke-linecap="butt" stroke-opacity="1.0" stroke="rgb(0, 0, 0)" stroke-linejoin="round" d=" M 319.210, 1177.068 329.210, 1177.068 339.210, 1177.068 349.210, 1177.068 359.210, 1177.068 369.210, 1177.068 379.210, 1177.068 389.210, 1177.068 399.210, 1177.068 409.210, 1177.068 419.210, 1177.068 429.210, 1177.068 439.210, 1177.068 449.210, 1177.068 459.210, 1177.068 469.210, 1177.068 479.210, 1177.068 489.210, 1177.068 499.210, 1177.068 509.210, 1177.068 519.210, 1177.068 529.210, 1177.068 539.210, 1177.068 549.210, 1177.068 559.210, 1177.068 569.210, 1177.068 579.210, 1177.068 589.210, 1177.068 599.210, 1177.068 609.210, 1177.068 619.210, 1177.068 629.210, 1177.068 639.210, 1177.068 649.210, 1177.068 659.210, 1177.068 669.210, 1177.068 679.210, 1177.068 689.210, 1177.068 699.210, 1177.068 709.210, 1177.068 719.210, 1177.068 729.210, 1177.068 739.210, 1177.068 749.210, 1177.068 759.210, 1177.068 769.210, 1177.068 779.210, 1177.068 789.210, 1177.068 799.210, 1177.068 809.210, 1177.068 819.210, 1177.068 829.210, 1177.068 839.210, 1177.068 849.210, 1177.068 859.210, 1177.068 869.210, 1177.068 879.210, 1177.068 889.210, 1177.068 899.210, 1177.068 909.210, 1177.068 919.210, 1177.068 929.210, 1177.068 939.210, 1177.068 949.210, 1177.068 959.210, 1177.068 969.210, 1177.068 979.210, 1177.068 989.210, 1177.068 999.210, 1177.068 1009.210, 1177.068 1019.210, 1177.068 1029.210, 1177.068 1039.210, 1177.068 1049.210, 1177.068 1059.210, 1177.068 1069.210, 1177.068 1079.210, 1177.068 1089.210, 1177.068 1099.210, 1177.068 1109.210, 1177.068 1119.210, 1177.068 1129.210, 1177.068 1139.210, 1177.068 1149.210, 1177.068 1159.210, 1177.068 1169.210, 1177.068 1179.210, 1177.068 1189.210, 1177.068 1199.210, 1177.068 1209.210, 1177.068 1219.210, 1177.068 1229.210, 1177.068 1239.210, 1177.068 1249.210, 1177.068 1259.210, 1177.068 1269.210, 1177.068 1279.210, 1177.068 1289.210, 1177.068 1299.210, 1177.068 1309.210, 1177.068 1319.210, 1177.068 1329.210, 1177.068 1339.210, 1177.068 1349.210, 1177.068 1359.210, 1177.068 1369.210, 1177.068 1379.210, 1177.068 1389.210, 1177.068 1399.210, 1177.068 1409.210, 1177.068 1424.655, 1177.068 1434.655, 1177.068 1444.655, 1177.068 1454.655, 1177.068 1464.655, 1177.068 1474.655, 1177.068 1484.655, 1177.068 1494.655, 1177.068 1497.690, 1177.068 1507.690, 1177.068 1517.690, 1177.068 1527.690, 1177.068 1537.690, 1177.068 1547.690, 1177.068 1557.690, 1177.068 1567.690, 1177.068 1577.690, 1177.068 1587.690, 1177.068 1597.690, 1177.068 1607.690, 1177.068 1617.690, 1177.068 1627.690, 1177.068 1637.690, 1177.068 1647.690, 1177.068 1657.690, 1177.068 1667.690, 1177.068 1677.690, 1177.068 1687.690, 1177.068 1697.690, 1177.068 1707.690, 1177.068 1717.690, 1177.068 1727.690, 1177.068 1737.690, 1177.068 1747.690, 1177.068 1757.690, 1177.068 1767.690, 1177.068 1777.690, 1177.068 1787.690, 1177.068 1797.690, 1177.068 1807.690, 1177.068 1817.690, 1177.068 1827.690, 1177.068 1837.690, 1177.068 1847.690, 1177.068 1857.690, 1177.068 1867.690, 1177.068 1877.690, 1177.068 1887.690, 1177.068 1897.690, 1177.068 1907.690, 1177.068 1917.690, 1177.068 1927.690, 1177.068 1937.690, 1177.068 1947.690, 1177.068 1957.690, 1177.068 1967.690, 1177.068 1981.400, 1177.068 " />
            <path fill="none" stroke-width="3.0" stroke-linecap="butt" stroke-opacity="1.0" stroke="rgb(0, 0, 0)" stroke-linejoin="round" d=" M -5600.778, 1177.068 -5590.778, 1177.068 -5580.778, 1177.068 -5570.778, 1177.068 -5560.778, 1177.068 -5550.778, 1177.068 -5540.778, 1177.068 -5530.778, 1177.068 -5520.778, 1177.068 -5510.778, 1177.068 -5500.778, 1177.068 -5490.778, 1177.068 -5480.778, 1177.068 -5470.778, 1177.068 -5460.778, 1177.068 -5450.778, 1177.068 -5440.778, 1177.068 -5430.778, 1177.068 -5420.778, 1177.068 -5410.778, 1177.068 -5400.778, 1177.068 -5390.778, 1177.068 -5380.778, 1177.068 -5370.778, 1177.068 -5360.778, 1177.068 -5350.778, 1177.068 -5340.778, 1177.068 -5330.778, 1177.068 -5320.778, 1177.068 -5310.778, 1177.068 -5300.778, 1177.068 -5290.778, 1177.068 -5280.778, 1177.068 -5270.778, 1177.068 -5260.778, 1177.068 -5250.778, 1177.068 -5240.778, 1177.068 -5230.778, 1177.068 -5220.778, 1177.068 -5210.778, 1177.068 -5200.778, 1177.068 -5190.778, 1177.068 -5180.778, 1177.068 -5170.778, 1177.068 -5160.778, 1177.068 -5150.778, 1177.068 -5140.778, 1177.068 -5130.778, 1177.068 -5120.778, 1177.068 -5110.778, 1177.068 -5100.778, 1177.068 -5090.778, 1177.068 -5080.778, 1177.068 -5070.778, 1177.068 -5060.778, 1177.068 -5050.778, 1177.068 -5040.778, 1177.068 -5030.778, 1177.068 -5020.778, 1177.068 -5010.778, 1177.068 -5000.778, 1177.068 -4990.778, 1177.068 -4980.778, 1177.068 -4970.778, 1177.068 -4960.778, 1177.068 -4950.778, 1177.068 -4940.778, 1177.068 -4930.778, 1177.068 -4920.778, 1177.068 -4910.778, 1177.068 -4900.778, 1177.068 -4890.778, 1177.068 -4880.778, 1177.068 -4870.778, 1177.068 -4860.778, 1177.068 -4850.778, 1177.068 -4840.778, 1177.068 -4830.778, 1177.068 -4820.778, 1177.068 -4810.778, 1177.068 -4800.778, 1177.068 -4790.778, 1177.068 -4780.778, 1177.068 -4770.778, 1177.068 -4760.778, 1177.068 -4750.778, 1177.068 -4740.778, 1177.068 -4730.778, 1177.068 -4720.778, 1177.068 -4710.778, 1177.068 -4700.778, 1177.068 -4690.778, 1177.068 -4680.778, 1177.068 -4670.778, 1177.068 -4660.778, 1177.068 -4650.778, 1177.068 -4640.778, 1177.068 -4630.778, 1177.068 -4620.778, 1177.068 -4610.778, 1177.068 -4600.778, 1177.068 -4590.778, 1177.068 -4580.778, 1177.068 -4570.778, 1177.068 -4560.778, 1177.068 -4550.778, 1177.068 -4540.778, 1177.068 -4530.778, 1177.068 -4520.778, 1177.068 -4510.778, 1177.068 -4500.778, 1177.068 -4490.778, 1177.068 -4480.778, 1177.068 -4470.778, 1177.068 -4460.778, 1177.068 -4450.778, 1177.068 -4440.778, 1177.068 -4430.778, 1177.068 -4420.778, 1177.068 -4410.778, 1177.068 -4400.778, 1177.068 -4390.778, 1177.068 -4380.778, 1177.068 -4370.778, 1177.068 -4360.778, 1177.068 -4350.778, 1177.068 -4340.778, 1177.068 -4330.778, 1177.068 -4320.778, 1177.068 -4310.778, 1177.068 -4300.778, 1177.068 -4290.778, 1177.068 -4280.778, 1177.068 -4270.778, 1177.068 -4260.778, 1177.068 -4250.778, 1177.068 -4240.778, 1177.068 -4230.778, 1177.068 -4220.778, 1177.068 -4210.778, 1177.068 -4200.778, 1177.068 -4190.778, 1177.068 -4180.778, 1177.068 -4170.778, 1177.068 -4160.778, 1177.068 -4150.778, 1177.068 -4140.778, 1177.068 -4130.778, 1177.068 -4120.778, 1177.068 -4110.778, 1177.068 -4100.778, 1177.068 -4090.778, 1177.068 -4080.778, 1177.068 -4070.778, 1177.068 -4060.778, 1177.068 -4050.778, 1177.068 -4040.778, 1177.068 -4030.778, 1177.068 -4020.778, 1177.068 -4010.778, 1177.068 -4000.778, 1177.068 -3990.778, 1177.068 -3980.778, 1177.068 -3970.778, 1177.068 -3960.778, 1177.068 -3950.778, 1177.068 -3940.778, 1177.068 -3930.778, 1177.068 -3920.778, 1177.068 -3910.778, 1177.068 -3900.778, 1177.068 -3890.778, 1177.068 -3880.778, 1177.068 -3870.778, 1177.068 -3860.778, 1177.068 -3850.778, 1177.068 -3840.778, 1177.068 -3830.778, 1177.068 -3820.778, 1177.068 -3810.778, 1177.068 -3800.778, 1177.068 -3790.778, 1177.068 -3780.778, 1177.068 -3770.778, 1177.068 -3760.778, 1177.068 -3750.778, 1177.068 -3740.778, 1177.068 -3730.778, 1177.068 -3720.778, 1177.068 -3710.778, 1177.068 -3700.778, 1177.068 -3690.778, 1177.068 -3680.778, 1177.068 -3670.778, 1177.068 -3660.778, 1177.068 -3650.778, 1177.068 -3640.778, 1177.068 -3630.778, 1177.068 -3620.778, 1177.068 -3610.778, 1177.068 -3600.778, 1177.068 -3590.778, 1177.068 -3580.778, 1177.068 -3570.778, 1177.068 -3560.778, 1177.068 -3550.778, 1177.068 -3540.778, 1177.068 -3530.778, 1177.068 -3520.778, 1177.068 -3510.778, 1177.068 -3500.778, 1177.068 -3490.778, 1177.068 -3480.778, 1177.068 -3470.778, 1177.068 -3460.778, 1177.068 -3450.778, 1177.068 -3440.778, 1177.068 -3430.778, 1177.068 -3420.778, 1177.068 -3410.778, 1177.068 -3400.778, 1177.068 -3390.778, 1177.068 -3380.778, 1177.068 -3370.778, 1177.068 -3360.778, 1177.068 -3350.778, 1177.068 -3340.778, 1177.068 -3330.778, 1177.068 -3320.778, 1177.068 -3310.778, 1177.068 -3300.778, 1177.068 -3290.778, 1177.068 -3280.778, 1177.068 -3270.778, 1177.068 -3260.778, 1177.068 -3250.778, 1177.068 -3240.778, 1177.068 -3230.778, 1177.068 -3220.778, 1177.068 -3210.778, 1177.068 -3200.778, 1177.068 -3190.778, 1177.068 -3180.778, 1177.068 -3170.778, 1177.068 -3160.778, 1177.068 -3150.778, 1177.068 -3140.778, 1177.068 -3130.778, 1177.068 -3120.778, 1177.068 -3110.778, 1177.068 -3100.778, 1177.068 -3090.778, 1177.068 -3080.778, 1177.068 -3070.778, 1177.068 -3060.778, 1177.068 -3050.778, 1177.068 -3040.778, 1177.068 -3030.778, 1177.068 -3020.778, 1177.068 -3010.778, 1177.068 -3000.778, 1177.068 -2990.778, 1177.068 -2980.778, 1177.068 -2970.778, 1177.068 -2960.778, 1177.068 -2950.778, 1177.068 -2940.778, 1177.068 -2930.778, 1177.068 -2920.778, 1177.068 -2910.778, 1177.068 -2900.778, 1177.068 -2890.778, 1177.068 -2880.778, 1177.068 -2870.778, 1177.068 -2860.778, 1177.068 -2850.778, 1177.068 -2840.778, 1177.068 -2830.778, 1177.068 -2820.778, 1177.068 -2810.778, 1177.068 -2800.778, 1177.068 -2790.778, 1177.068 -2780.778, 1177.068 -2770.778, 1177.068 -2760.778, 1177.068 -2750.778, 1177.068 -2740.778, 1177.068 -2730.778, 1177.068 -2720.778, 1177.068 -2710.778, 1177.068 -2700.778, 1177.068 -2690.778, 1177.068 -2680.778, 1177.068 -2670.778, 1177.068 -2660.778, 1177.068 -2650.778, 1177.068 -2640.778, 1177.068 -2630.778, 1177.068 -2620.778, 1177.068 -2610.778, 1177.068 -2600.778, 1177.068 -2590.778, 1177.068 -2580.778, 1177.068 -2570.778, 1177.068 -2560.778, 1177.068 -2550.778, 1177.068 -2540.778, 1177.068 -2530.778, 1177.068 -2520.778, 1177.068 -2510.778, 1177.068 -2500.778, 1177.068 -2490.778, 1177.068 -2480.778, 1177.068 -2470.778, 1177.068 -2460.778, 1177.068 -2450.778, 1177.068 -2440.778, 1177.068 -2430.778, 1177.068 -2420.778, 1177.068 -2410.778, 1177.068 -2400.778, 1177.068 -2390.778, 1177.068 -2380.778, 1177.068 -2370.778, 1177.068 -2360.778, 1177.068 -2350.778, 1177.068 -2340.778, 1177.068 -2330.778, 1177.068 -2320.778, 1177.068 -2310.778, 1177.068 -2300.778, 1177.068 -2290.778, 1177.068 -2280.778, 1177.068 -2270.778, 1177.068 -2260.778, 1177.068 -2250.778, 1177.068 -2240.778, 1177.068 -2230.778, 1177.068 -2220.778, 1177.068 -2210.778, 1177.068 -2200.778, 1177.068 -2190.778, 1177.068 -2180.778, 1177.068 -2170.778, 1177.068 -2160.778, 1177.068 -2150.778, 1177.068 -2140.778, 1177.068 -2130.778, 1177.068 -2120.778, 1177.068 -2110.778, 1177.068 -2100.778, 1177.068 -2090.778, 1177.068 -2080.778, 1177.068 -2070.778, 1177.068 -2060.778, 1177.068 -2050.778, 1177.068 -2040.778, 1177.068 -2030.778, 1177.068 -2020.778, 1177.068 -2010.778, 1177.068 -2000.778, 1177.068 -1990.778, 1177.068 -1980.778, 1177.068 -1970.778, 1177.068 -1960.778, 1177.068 -1950.778, 1177.068 -1940.778, 1177.068 -1930.778, 1177.068 -1920.778, 1177.068 -1910.778, 1177.068 -1900.778, 1177.068 -1890.778, 1177.068 -1880.778, 1177.068 -1870.778, 1177.068 -1860.778, 1177.068 -1850.778, 1177.068 -1840.778, 1177.068 -1830.778, 1177.068 -1820.778, 1177.068 -1810.778, 1177.068 -1800.778, 1177.068 -1790.778, 1177.068 -1780.778, 1177.068 -1770.778, 1177.068 -1760.778, 1177.068 -1750.778, 1177.068 -1740.778, 1177.068 -1730.778, 1177.068 -1720.778, 1177.068 -1710.778, 1177.068 -1700.778, 1177.068 -1690.778, 1177.068 -1680.778, 1177.068 -1670.778, 1177.068 -1660.778, 1177.068 -1650.778, 1177.068 -1640.778, 1177.068 -1630.778, 1177.068 -1620.778, 1177.068 -1610.778, 1177.068 -1600.778, 1177.068 -1590.778, 1177.068 -1580.778, 1177.068 -1570.778, 1177.068 -1560.778, 1177.068 -1550.778, 1177.068 -1540.778, 1177.068 -1530.778, 1177.068 -1520.778, 1177.068 -1510.778, 1177.068 -1500.778, 1177.068 -1490.778, 1177.068 -1480.778, 1177.068 -1470.778, 1177.068 -1460.778, 1177.068 -1450.778, 1177.068 -1440.778, 1177.068 -1430.778, 1177.068 -1420.778, 1177.068 -1410.778, 1177.068 -1400.778, 1177.068 -1390.778, 1177.068 -1380.778, 1177.068 -1370.778, 1177.068 -1360.778, 1177.068 -1350.778, 1177.068 -1340.778, 1177.068 -1330.778, 1177.068 -1320.778, 1177.068 -1310.778, 1177.068 -1300.778, 1177.068 -1290.778, 1177.068 -1280.778, 1177.068 -1270.778, 1177.068 -1260.778, 1177.068 -1250.778, 1177.068 -1240.778, 1177.068 -1230.778, 1177.068 -1220.778, 1177.068 -1210.778, 1177.068 -1200.778, 1177.068 -1190.778, 1177.068 -1180.778, 1177.068 -1170.778, 1177.068 -1160.778, 1177.068 -1150.778, 1177.068 -1140.778, 1177.068 -1130.778, 1177.068 -1120.778, 1177.068 -1110.778, 1177.068 -1100.778, 1177.068 -1090.778, 1177.068 -1080.778, 1177.068 -1070.778, 1177.068 -1060.778, 1177.068 -1050.778, 1177.068 -1040.778, 1177.068 -1030.778, 1177.068 -1020.778, 1177.068 -1010.778, 1177.068 -1000.778, 1177.068 -990.778, 1177.068 -980.778, 1177.068 -970.778, 1177.068 -960.778, 1177.068 -950.778, 1177.068 -940.778, 1177.068 -930.778, 1177.068 -920.778, 1177.068 -910.778, 1177.068 -900.778, 1177.068 -890.778, 1177.068 -880.778, 1177.068 -870.778, 1177.068 -860.778, 1177.068 -850.778, 1177.068 -840.778, 1177.068 -830.778, 1177.068 -820.778, 1177.068 -810.778, 1177.068 -800.778, 1177.068 -790.778, 1177.068 -780.778, 1177.068 -770.778, 1177.068 -760.778, 1177.068 -750.778, 1177.068 -740.778, 1177.068 -730.778, 1177.068 -720.778, 1177.068 -710.778, 1177.068 -700.778, 1177.068 -690.778, 1177.068 -680.778, 1177.068 -670.778, 1177.068 -660.778, 1177.068 -650.778, 1177.068 -640.778, 1177.068 -630.778, 1177.068 -620.778, 1177.068 -610.778, 1177.068 -600.778, 1177.068 -590.778, 1177.068 -580.778, 1177.068 -570.778, 1177.068 -560.778, 1177.068 -550.778, 1177.068 -540.778, 1177.068 -530.778, 1177.068 -520.778, 1177.068 -510.778, 1177.068 -500.778, 1177.068 -490.778, 1177.068 -480.778, 1177.068 -470.778, 1177.068 -460.778, 1177.068 -450.778, 1177.068 -440.778, 1177.068 -430.778, 1177.068 -420.778, 1177.068 -410.778, 1177.068 -400.778, 1177.068 -390.778, 1177.068 -380.778, 1177.068 -370.778, 1177.068 -360.778, 1177.068 -350.778, 1177.068 -340.778, 1177.068 -330.778, 1177.068 -320.778, 1177.068 -310.778, 1177.068 -300.778, 1177.068 -290.778, 1177.068 -280.778, 1177.068 -270.778, 1177.068 -260.778, 1177.068 -250.778, 1177.068 -240.778, 1177.068 -230.778, 1177.068 -220.778, 1177.068 -210.778, 1177.068 -200.778, 1177.068 -190.778, 1177.068 -180.778, 1177.068 -170.778, 1177.068 -160.778, 1177.068 -150.778, 1177.068 -140.778, 1177.068 -130.778, 1177.068 -120.778, 1177.068 -110.778, 1177.068 -100.778, 1177.068 -90.778, 1177.068 -80.778, 1177.068 -70.778, 1177.068 -60.778, 1177.068 -50.778, 1177.068 -40.778, 1177.068 -30.778, 1177.068 -20.778, 1177.068 -10.778, 1177.068 -0.778, 1177.068 9.222, 1177.068 19.222, 1177.068 29.222, 1177.068 39.222, 1177.068 49.222, 1177.068 59.222, 1177.068 69.222, 1177.068 79.222, 1177.068 89.222, 1177.068 99.222, 1177.068 109.222, 1177.068 119.222, 1177.068 129.222, 1177.068 139.222, 1177.068 149.222, 1177.068 159.222, 1177.068 169.222, 1177.068 179.222, 1177.068 189.222, 1177.068 199.222, 1177.068 209.222, 1177.068 219.222, 1177.068 229.222, 1177.068 239.222, 1177.068 249.222, 1177.068 259.222, 1177.068 319.210, 1177.068 " />
        </g>
    </g>
<g id="slice-labels"><text x="-2533.66975" y="1260.6475" text-anchor="middle" dominant-baseline="middle" font-family="Arial, sans-serif" font-size="13.268961332581991" font-weight="bold" fill="black" stroke="none" stroke-width="1.592275359909839" paint-order="stroke fill">Platte 57 (Front)</text><text x="3951.7907499999983" y="1260.6475" text-anchor="middle" dominant-baseline="middle" font-family="Arial, sans-serif" font-size="13.268961332581991" font-weight="bold" fill="black" stroke="none" stroke-width="1.592275359909839" paint-order="stroke fill">Platte 57 (Front)</text><text x="-2533.66975" y="1427.8065" text-anchor="middle" dominant-baseline="middle" font-family="Arial, sans-serif" font-size="13.268961332581991" font-weight="bold" fill="black" stroke="none" stroke-width="1.592275359909839" paint-order="stroke fill">Platte 57 (Front)</text><text x="3951.7907499999983" y="1427.8065" text-anchor="middle" dominant-baseline="middle" font-family="Arial, sans-serif" font-size="13.268961332581991" font-weight="bold" fill="black" stroke="none" stroke-width="1.592275359909839" paint-order="stroke fill">Platte 57 (Front)</text></g></svg>