<?xml version='1.0' encoding='utf-8'?>
<svg xmlns="http://www.w3.org/2000/svg" xmlns:inkscape="http://www.inkscape.org/namespaces/inkscape" version="1.1" width="756.8719902038574mm" height="136.5271725654602mm" viewBox="-5769.4377430595505 635.0779688873937 17798.504486119098 1013.3750622252126" preserveAspectRatio="none">
    <g id="ViewLayer_LineSet" inkscape:groupmode="lineset" inkscape:label="ViewLayer_LineSet">
        <g inkscape:groupmode="layer" id="strokes" inkscape:label="strokes">
            <path fill="none" stroke-width="3.0" stroke-linecap="butt" stroke-opacity="1.0" stroke="rgb(0, 0, 0)" stroke-linejoin="round" d=" M 5345.033, 1603.851 5355.024, 1604.271 5365.015, 1604.691 5375.006, 1605.111 5384.997, 1605.531 5394.988, 1605.951 5404.979, 1606.371 5414.971, 1606.791 5424.962, 1607.211 5434.953, 1607.631 5444.944, 1608.050 5454.936, 1608.470 5464.927, 1608.890 5474.918, 1609.310 5484.909, 1609.730 5494.900, 1610.150 5504.892, 1610.570 5514.882, 1610.990 5524.874, 1611.410 5534.865, 1611.830 5544.856, 1612.250 5554.847, 1612.670 5564.838, 1613.090 5574.830, 1613.510 5584.821, 1613.930 5594.812, 1614.349 5604.803, 1614.769 5614.794, 1615.189 5624.786, 1615.609 5634.777, 1616.029 5644.768, 1616.449 5654.759, 1616.869 5664.750, 1617.289 5674.741, 1617.709 5684.732, 1618.129 5694.724, 1618.549 5704.715, 1618.969 5714.706, 1619.389 5724.697, 1619.809 5734.688, 1620.228 5744.680, 1620.648 5754.671, 1621.068 5764.662, 1621.488 5774.653, 1621.908 5784.645, 1622.328 5794.636, 1622.748 5804.627, 1623.168 5814.618, 1623.588 5824.609, 1624.008 5834.600, 1624.428 5844.591, 1624.848 5854.583, 1625.268 5864.574, 1625.688 5874.565, 1626.108 5884.556, 1626.527 5894.547, 1626.947 5904.539, 1627.367 5914.530, 1627.787 5924.521, 1628.207 5934.512, 1628.627 5944.503, 1629.047 5954.495, 1629.467 5967.538, 1630.015 " />
            <path fill="none" stroke-width="3.0" stroke-linecap="butt" stroke-opacity="1.0" stroke="rgb(0, 0, 0)" stroke-linejoin="round" d=" M 8114.056, 1610.573 8104.056, 1610.611 8094.056, 1610.648 8084.056, 1610.686 8074.056, 1610.724 8064.056, 1610.762 8054.056, 1610.800 8044.056, 1610.838 8034.056, 1610.876 8024.056, 1610.913 8014.057, 1610.951 8004.057, 1610.989 7994.057, 1611.027 7984.057, 1611.065 7974.057, 1611.103 7964.057, 1611.141 7954.057, 1611.178 7944.057, 1611.216 7934.057, 1611.254 7924.057, 1611.292 7914.057, 1611.330 7904.057, 1611.368 7894.057, 1611.406 7884.057, 1611.443 7874.058, 1611.481 7864.058, 1611.519 7854.058, 1611.557 7844.058, 1611.595 7834.058, 1611.633 7824.058, 1611.671 7814.058, 1611.708 7804.058, 1611.746 7794.058, 1611.784 7784.058, 1611.822 7774.058, 1611.860 7764.058, 1611.898 7754.058, 1611.936 7744.058, 1611.973 7734.059, 1612.011 7724.059, 1612.049 7714.059, 1612.087 7704.059, 1612.125 7694.059, 1612.163 7684.059, 1612.201 7674.059, 1612.238 7664.059, 1612.276 7654.059, 1612.314 7644.059, 1612.352 7634.059, 1612.390 7624.059, 1612.428 7614.059, 1612.465 7604.060, 1612.503 7594.060, 1612.541 7584.060, 1612.579 7574.060, 1612.617 7564.060, 1612.655 7554.060, 1612.693 7544.060, 1612.730 7534.060, 1612.768 7524.060, 1612.806 7514.060, 1612.844 7504.060, 1612.882 7494.060, 1612.920 7484.060, 1612.958 7474.060, 1612.995 7464.061, 1613.033 7454.061, 1613.071 7444.061, 1613.109 7434.061, 1613.147 7424.061, 1613.185 7414.061, 1613.223 7404.061, 1613.260 7394.061, 1613.298 7384.061, 1613.336 7374.061, 1613.374 7364.061, 1613.412 7354.061, 1613.450 7344.061, 1613.488 7334.061, 1613.525 7324.062, 1613.563 7314.062, 1613.601 7304.062, 1613.639 7294.062, 1613.677 7284.062, 1613.715 7274.062, 1613.753 7264.062, 1613.790 7254.062, 1613.828 7244.062, 1613.866 7234.062, 1613.904 7224.062, 1613.942 7214.062, 1613.980 7204.062, 1614.018 7194.062, 1614.055 7184.062, 1614.093 7174.062, 1614.131 7164.062, 1614.169 7154.062, 1614.207 7144.062, 1614.245 7134.062, 1614.283 7124.063, 1614.320 7114.063, 1614.358 7104.063, 1614.396 7094.063, 1614.434 7084.063, 1614.472 7074.063, 1614.510 7064.063, 1614.548 7054.063, 1614.585 7044.063, 1614.623 7034.063, 1614.661 7024.063, 1614.699 7014.063, 1614.737 7004.063, 1614.775 6994.063, 1614.813 6984.064, 1614.850 6974.064, 1614.888 6964.064, 1614.926 6954.064, 1614.964 6944.064, 1615.002 6934.064, 1615.040 6924.064, 1615.078 6914.064, 1615.115 6904.064, 1615.153 6894.064, 1615.191 6884.064, 1615.229 6874.064, 1615.267 6864.064, 1615.305 6854.065, 1615.343 6844.065, 1615.380 6834.065, 1615.418 6824.065, 1615.456 6814.065, 1615.494 6804.065, 1615.532 6794.065, 1615.570 6784.065, 1615.607 6774.065, 1615.645 6764.065, 1615.683 6754.065, 1615.721 6744.065, 1615.759 6734.065, 1615.797 6724.065, 1615.835 6714.066, 1615.872 6704.066, 1615.910 6694.066, 1615.948 6684.066, 1615.986 6674.066, 1616.024 6664.066, 1616.062 6654.066, 1616.100 6644.066, 1616.137 6634.066, 1616.175 6624.066, 1616.213 6614.066, 1616.251 6604.066, 1616.289 6594.066, 1616.327 6584.066, 1616.365 6574.067, 1616.402 6564.067, 1616.440 6554.067, 1616.478 6544.067, 1616.516 6534.067, 1616.554 6524.067, 1616.592 6514.067, 1616.630 6504.067, 1616.667 6494.067, 1616.705 6484.067, 1616.743 6474.067, 1616.781 6455.114, 1616.853 6445.115, 1616.736 6435.116, 1616.619 6425.116, 1616.501 6415.117, 1616.384 6405.118, 1616.267 6395.119, 1616.150 6385.119, 1616.033 6375.120, 1615.916 6365.121, 1615.799 6355.121, 1615.682 6345.122, 1615.565 6335.123, 1615.447 6325.123, 1615.330 6315.124, 1615.213 6305.125, 1615.096 6295.125, 1614.979 6285.126, 1614.862 6275.126, 1614.745 6265.127, 1614.628 6255.128, 1614.510 6245.129, 1614.393 6235.129, 1614.276 6225.130, 1614.159 6215.131, 1614.042 6205.131, 1613.925 6195.132, 1613.808 6185.133, 1613.691 6175.133, 1613.574 6165.134, 1613.456 6155.135, 1613.339 6145.136, 1613.222 6135.136, 1613.105 6125.137, 1612.988 6115.138, 1612.871 6105.138, 1612.754 6095.139, 1612.637 6085.140, 1612.520 6075.141, 1612.402 6065.141, 1612.285 6055.142, 1612.168 6045.143, 1612.051 6035.143, 1611.934 6025.144, 1611.817 6015.145, 1611.700 6005.145, 1611.583 5995.146, 1611.465 5985.146, 1611.348 5975.147, 1611.231 5965.148, 1611.114 5955.148, 1610.997 5945.149, 1610.880 5935.150, 1610.763 5925.151, 1610.646 5915.151, 1610.529 5905.152, 1610.411 5895.153, 1610.294 5885.153, 1610.177 5875.154, 1610.060 5865.155, 1609.943 5855.155, 1609.826 5845.156, 1609.709 5835.157, 1609.592 5825.158, 1609.475 5815.158, 1609.357 5805.159, 1609.240 5795.160, 1609.123 5785.160, 1609.006 5775.161, 1608.889 5765.162, 1608.772 5755.162, 1608.655 5745.163, 1608.538 5735.164, 1608.420 5725.165, 1608.303 5715.165, 1608.186 5705.166, 1608.069 5695.167, 1607.952 5685.167, 1607.835 5675.168, 1607.718 5665.168, 1607.601 5655.169, 1607.484 5645.170, 1607.366 5635.170, 1607.249 5625.171, 1607.132 5615.172, 1607.015 5605.172, 1606.898 5595.173, 1606.781 5585.174, 1606.664 5575.175, 1606.547 5565.175, 1606.430 5555.176, 1606.312 5545.177, 1606.195 5535.177, 1606.078 5525.178, 1605.961 5515.179, 1605.844 5505.180, 1605.727 5495.180, 1605.610 5485.181, 1605.493 5475.182, 1605.375 5465.182, 1605.258 5455.183, 1605.141 5445.184, 1605.024 5435.184, 1604.907 5425.185, 1604.790 5415.186, 1604.673 5405.187, 1604.556 5395.187, 1604.439 5385.188, 1604.321 5375.188, 1604.204 5365.189, 1604.087 5345.033, 1603.851 " />
            <path fill="none" stroke-width="3.0" stroke-linecap="butt" stroke-opacity="1.0" stroke="rgb(0, 0, 0)" stroke-linejoin="round" d=" M 3728.121, 1609.828 3718.128, 1609.437 3708.136, 1609.045 3698.144, 1608.653 3688.152, 1608.262 3678.159, 1607.870 3668.167, 1607.478 3658.175, 1607.087 3648.182, 1606.695 3638.190, 1606.303 3628.198, 1605.912 3618.205, 1605.520 3608.213, 1605.128 3598.220, 1604.736 3588.228, 1604.345 3578.236, 1603.953 3568.244, 1603.561 3558.251, 1603.170 3548.259, 1602.778 3538.267, 1602.386 3528.274, 1601.995 3518.282, 1601.603 3508.290, 1601.211 3498.297, 1600.820 3488.305, 1600.428 3478.313, 1600.036 3468.320, 1599.645 3458.328, 1599.253 3448.336, 1598.861 3438.343, 1598.470 3428.351, 1598.078 3418.359, 1597.686 3408.366, 1597.294 3398.374, 1596.903 3388.382, 1596.511 3378.389, 1596.119 3368.397, 1595.728 3358.405, 1595.336 3348.412, 1594.944 3338.420, 1594.553 3328.428, 1594.161 3318.436, 1593.769 3308.443, 1593.378 3298.451, 1592.986 3288.458, 1592.594 3278.466, 1592.203 3268.474, 1591.811 3255.285, 1591.294 3246.252, 1595.584 3237.219, 1599.874 3228.186, 1604.165 3219.153, 1608.455 3210.120, 1612.745 3201.087, 1617.035 3192.055, 1621.326 3183.022, 1625.616 3173.989, 1629.906 3168.515, 1632.506 " />
            <path fill="none" stroke-width="3.0" stroke-linecap="butt" stroke-opacity="1.0" stroke="rgb(0, 0, 0)" stroke-linejoin="round" d=" M 2550.050, 1583.660 2540.082, 1584.462 2530.114, 1585.264 2520.146, 1586.066 2510.179, 1586.869 2500.211, 1587.671 2490.243, 1588.473 2480.275, 1589.275 2470.308, 1590.077 2460.340, 1590.880 2450.372, 1591.682 2440.404, 1592.484 2430.437, 1593.286 2420.469, 1594.089 2410.501, 1594.891 2400.533, 1595.693 2390.565, 1596.495 2380.598, 1597.297 2370.630, 1598.100 2360.662, 1598.902 2350.694, 1599.704 2340.727, 1600.506 2330.759, 1601.309 2320.791, 1602.111 2310.823, 1602.913 2300.855, 1603.715 2290.888, 1604.517 2280.920, 1605.320 2270.952, 1606.122 2260.984, 1606.924 2251.017, 1607.726 2241.049, 1608.529 2231.081, 1609.331 2221.113, 1610.133 2211.146, 1610.935 2201.178, 1611.737 2191.210, 1612.540 2181.242, 1613.342 2171.274, 1614.144 2161.307, 1614.946 2151.339, 1615.749 2141.371, 1616.551 2131.403, 1617.353 2121.436, 1618.155 2111.468, 1618.957 2101.500, 1619.760 2091.532, 1620.562 2081.564, 1621.364 2071.597, 1622.166 2061.629, 1622.969 2051.661, 1623.771 2041.693, 1624.573 2031.726, 1625.375 2021.758, 1626.177 2011.790, 1626.980 2001.822, 1627.782 1991.855, 1628.584 1981.887, 1629.386 1971.919, 1630.189 1961.951, 1630.991 1951.984, 1631.793 1942.016, 1632.595 1929.426, 1633.608 " />
            <path fill="none" stroke-width="3.0" stroke-linecap="butt" stroke-opacity="1.0" stroke="rgb(0, 0, 0)" stroke-linejoin="round" d=" M 2550.050, 1583.660 2560.046, 1583.941 2570.042, 1584.222 2580.038, 1584.503 2590.034, 1584.785 2600.030, 1585.066 2610.026, 1585.347 2620.022, 1585.628 2630.018, 1585.909 2640.014, 1586.191 2650.010, 1586.472 2660.006, 1586.753 2670.002, 1587.034 2679.998, 1587.316 2689.994, 1587.597 2699.990, 1587.878 2709.987, 1588.159 2719.982, 1588.440 2729.979, 1588.722 2739.975, 1589.003 2749.971, 1589.284 2759.967, 1589.565 2769.963, 1589.847 2779.959, 1590.128 2789.955, 1590.409 2799.951, 1590.690 2809.947, 1590.971 2819.943, 1591.253 2829.939, 1591.534 2839.935, 1591.815 2849.931, 1592.096 2859.927, 1592.378 2869.923, 1592.659 2879.919, 1592.940 2889.915, 1593.221 2899.911, 1593.503 2909.907, 1593.784 2919.903, 1594.065 2929.899, 1594.346 2939.896, 1594.627 2949.892, 1594.909 2959.888, 1595.190 2969.884, 1595.471 2979.880, 1595.752 2991.363, 1596.075 3000.233, 1600.691 3009.104, 1605.307 3017.976, 1609.922 3026.847, 1614.538 3035.718, 1619.154 3044.589, 1623.769 3053.460, 1628.385 3061.563, 1632.601 " />
            <path fill="none" stroke-width="3.0" stroke-linecap="butt" stroke-opacity="1.0" stroke="rgb(0, 0, 0)" stroke-linejoin="round" d=" M 2482.650, 1633.116 2490.712, 1627.200 2498.774, 1621.284 2506.837, 1615.368 2514.899, 1609.452 2522.961, 1603.536 2531.024, 1597.620 2539.086, 1591.704 2547.148, 1585.789 2550.050, 1583.660 2559.728, 1586.175 2569.407, 1588.690 2579.085, 1591.206 2588.764, 1593.721 2598.442, 1596.236 2608.121, 1598.752 2617.799, 1601.267 2627.478, 1603.782 2637.156, 1606.298 2646.835, 1608.813 2656.513, 1611.328 2666.192, 1613.843 2675.870, 1616.359 2685.549, 1618.874 2695.227, 1621.389 2704.906, 1623.905 2714.584, 1626.420 2721.385, 1628.188 " />
            <path fill="none" stroke-width="3.0" stroke-linecap="butt" stroke-opacity="1.0" stroke="rgb(0, 0, 0)" stroke-linejoin="round" d=" M -5722.406, 974.313 -5712.406, 974.308 -5702.406, 974.303 -5692.406, 974.298 -5682.406, 974.293 -5672.406, 974.288 -5662.406, 974.283 -5652.406, 974.278 -5642.406, 974.273 -5632.406, 974.267 -5622.406, 974.262 -5612.406, 974.257 -5602.406, 974.252 -5592.406, 974.247 -5582.406, 974.242 -5572.406, 974.237 -5562.406, 974.232 -5552.406, 974.226 -5542.406, 974.221 -5532.406, 974.216 -5522.406, 974.211 -5512.406, 974.206 -5502.406, 974.201 -5492.406, 974.196 -5482.406, 974.191 -5472.406, 974.186 -5462.406, 974.180 -5452.406, 974.175 -5442.406, 974.170 -5432.406, 974.165 -5422.406, 974.160 -5412.406, 974.155 -5402.406, 974.150 -5392.406, 974.145 -5382.406, 974.139 -5372.406, 974.134 -5362.406, 974.129 -5352.406, 974.124 -5342.406, 974.119 -5332.406, 974.114 -5322.406, 974.109 -5312.406, 974.104 -5302.406, 974.099 -5292.406, 974.093 -5282.406, 974.088 -5272.406, 974.083 -5262.406, 974.078 -5252.406, 974.073 -5242.406, 974.068 -5232.406, 974.063 -5222.406, 974.058 -5212.406, 974.052 -5202.406, 974.047 -5192.406, 974.042 -5182.406, 974.037 -5172.406, 974.032 -5162.406, 974.027 -5152.406, 974.022 -5142.406, 974.017 -5132.406, 974.012 -5122.406, 974.006 -5112.406, 974.001 -5102.406, 973.996 -5092.406, 973.991 -5082.406, 973.986 -5072.406, 973.981 -5062.406, 973.976 -5052.406, 973.971 -5042.406, 973.966 -5032.406, 973.960 -5022.406, 973.955 -5012.406, 973.950 -5002.406, 973.945 -4992.406, 973.940 -4982.406, 973.935 -4972.406, 973.930 -4962.406, 973.925 -4952.406, 973.919 -4942.406, 973.914 -4932.406, 973.909 -4922.406, 973.904 -4912.406, 973.899 -4902.406, 973.894 -4892.406, 973.889 -4882.406, 973.884 -4872.406, 973.879 -4862.406, 973.873 -4852.406, 973.868 -4842.406, 973.863 -4832.406, 973.858 -4822.406, 973.853 -4812.406, 973.848 -4802.406, 973.843 -4792.406, 973.838 -4782.406, 973.832 -4772.406, 973.827 -4762.406, 973.822 -4752.406, 973.817 -4742.406, 973.812 -4732.406, 973.807 -4722.406, 973.802 -4712.406, 973.797 -4702.406, 973.792 -4692.406, 973.786 -4682.406, 973.781 -4672.406, 973.776 -4662.406, 973.771 -4652.406, 973.766 -4642.406, 973.761 -4632.406, 973.756 -4622.406, 973.751 -4612.406, 973.745 -4602.406, 973.740 -4592.406, 973.735 -4582.406, 973.730 -4572.406, 973.725 -4562.406, 973.720 -4552.406, 973.715 -4542.406, 973.710 -4532.406, 973.705 -4522.406, 973.699 -4512.406, 973.694 -4502.406, 973.689 -4492.406, 973.684 -4482.406, 973.679 -4472.406, 973.674 -4462.406, 973.669 -4452.406, 973.664 -4442.406, 973.659 -4432.406, 973.653 -4422.406, 973.648 -4412.406, 973.643 -4402.406, 973.638 -4392.406, 973.633 -4382.406, 973.628 -4372.406, 973.623 -4362.406, 973.618 -4352.406, 973.612 -4342.406, 973.607 -4332.406, 973.602 -4322.406, 973.597 -4312.406, 973.592 -4302.406, 973.587 -4292.406, 973.582 -4282.406, 973.577 -4272.406, 973.572 -4262.406, 973.566 -4252.406, 973.561 -4242.406, 973.556 -4232.406, 973.551 -4222.406, 973.546 -4212.406, 973.541 -4202.406, 973.536 -4192.406, 973.531 -4182.406, 973.525 -4172.406, 973.520 -4162.406, 973.515 -4152.406, 973.510 -4142.406, 973.505 -4132.406, 973.500 -4122.406, 973.495 -4112.406, 973.490 -4102.406, 973.485 -4092.406, 973.479 -4082.406, 973.474 -4072.406, 973.469 -4062.406, 973.464 -4052.406, 973.459 -4042.406, 973.454 -4032.406, 973.449 -4022.406, 973.444 -4012.406, 973.438 -4002.406, 973.433 -3992.406, 973.428 -3982.406, 973.423 -3972.406, 973.418 -3962.406, 973.413 -3952.406, 973.408 -3942.406, 973.403 -3932.406, 973.398 -3922.406, 973.392 -3912.406, 973.387 -3902.406, 973.382 -3892.406, 973.377 -3882.406, 973.372 -3872.406, 973.367 -3862.406, 973.362 -3852.406, 973.357 -3842.406, 973.352 -3832.406, 973.346 -3822.406, 973.341 -3812.406, 973.336 -3802.406, 973.331 -3792.406, 973.326 -3782.406, 973.321 -3772.406, 973.316 -3762.406, 973.311 -3752.406, 973.305 -3742.406, 973.300 -3732.406, 973.295 -3722.406, 973.290 -3712.406, 973.285 -3702.406, 973.280 -3692.406, 973.275 -3682.406, 973.270 -3672.406, 973.265 -3662.406, 973.259 -3652.406, 973.254 -3642.406, 973.249 -3632.406, 973.244 -3622.406, 973.239 -3612.406, 973.234 -3602.406, 973.229 -3592.406, 973.224 -3582.406, 973.218 -3572.406, 973.213 -3562.406, 973.208 -3552.406, 973.203 -3542.406, 973.198 -3532.406, 973.193 -3522.406, 973.188 -3512.406, 973.183 -3502.406, 973.178 -3492.406, 973.172 -3482.406, 973.167 -3472.406, 973.162 -3462.406, 973.157 -3452.406, 973.152 -3442.406, 973.147 -3432.406, 973.142 -3422.406, 973.137 -3412.406, 973.131 -3402.406, 973.126 -3392.406, 973.121 -3382.406, 973.116 -3372.406, 973.111 -3362.406, 973.106 -3352.406, 973.101 -3342.406, 973.096 -3332.406, 973.091 -3322.406, 973.085 -3312.406, 973.080 -3302.406, 973.075 -3292.406, 973.070 -3282.406, 973.065 -3272.406, 973.060 -3262.406, 973.055 -3252.406, 973.050 -3242.406, 973.044 -3232.406, 973.039 -3222.406, 973.034 -3212.406, 973.029 -3202.406, 973.024 -3192.406, 973.019 -3182.406, 973.014 -3172.406, 973.009 -3162.406, 973.004 -3152.406, 972.998 -3142.406, 972.993 -3132.406, 972.988 -3122.406, 972.983 -3112.406, 972.978 -3102.406, 972.973 -3092.406, 972.968 -3082.406, 972.963 -3072.406, 972.958 -3062.406, 972.952 -3052.406, 972.947 -3042.406, 972.942 -3032.406, 972.937 -3022.406, 972.932 -3012.406, 972.927 -3002.406, 972.922 -2992.406, 972.917 -2982.406, 972.911 -2972.406, 972.906 -2962.406, 972.901 -2952.406, 972.896 -2942.406, 972.891 -2932.406, 972.886 -2922.406, 972.881 -2912.406, 972.876 -2902.406, 972.871 -2892.406, 972.865 -2882.406, 972.860 -2872.406, 972.855 -2862.406, 972.850 -2852.406, 972.845 -2842.406, 972.840 -2832.406, 972.835 -2822.406, 972.830 -2812.406, 972.824 -2802.406, 972.819 -2792.406, 972.814 -2782.406, 972.809 -2772.406, 972.804 -2762.406, 972.799 -2752.406, 972.794 -2742.406, 972.789 -2732.406, 972.784 -2722.406, 972.778 -2712.406, 972.773 -2702.406, 972.768 -2692.406, 972.763 -2682.406, 972.758 -2672.406, 972.753 -2662.406, 972.748 -2652.406, 972.743 -2642.406, 972.737 -2632.406, 972.732 -2622.406, 972.727 -2612.406, 972.722 -2602.406, 972.717 -2592.406, 972.712 -2582.406, 972.707 -2572.406, 972.702 -2562.406, 972.697 -2552.406, 972.691 -2542.406, 972.686 -2532.406, 972.681 -2522.406, 972.676 -2512.406, 972.671 -2502.406, 972.666 -2492.406, 972.661 -2482.406, 972.656 -2472.406, 972.651 -2462.406, 972.645 -2452.406, 972.640 -2442.406, 972.635 -2432.406, 972.630 -2422.406, 972.625 -2412.406, 972.620 -2402.406, 972.615 -2392.406, 972.610 -2382.406, 972.604 -2372.406, 972.599 -2362.406, 972.594 -2352.406, 972.589 -2342.406, 972.584 -2332.406, 972.579 -2322.406, 972.574 -2312.406, 972.569 -2302.406, 972.564 -2292.406, 972.558 -2282.406, 972.553 -2272.406, 972.548 -2262.406, 972.543 -2252.406, 972.538 -2242.406, 972.533 -2232.406, 972.528 -2222.406, 972.523 -2212.406, 972.517 -2202.406, 972.512 -2192.406, 972.507 -2182.406, 972.502 -2172.406, 972.497 -2162.406, 972.492 -2152.406, 972.487 -2142.406, 972.482 -2132.406, 972.477 -2122.406, 972.471 -2112.406, 972.466 -2102.406, 972.461 -2092.406, 972.456 -2082.406, 972.451 -2072.406, 972.446 -2062.406, 972.441 -2052.406, 972.436 -2042.407, 972.430 -2032.406, 972.425 -2022.407, 972.420 -2012.406, 972.415 -2002.406, 972.410 -1992.406, 972.405 -1982.406, 972.400 -1972.407, 972.395 -1962.406, 972.390 -1952.407, 972.384 -1942.406, 972.379 -1932.406, 972.374 -1922.406, 972.369 -1912.406, 972.364 -1902.406, 972.359 -1892.406, 972.354 -1882.407, 972.349 -1872.406, 972.344 -1862.407, 972.338 -1852.406, 972.333 -1842.406, 972.328 -1832.406, 972.323 -1822.406, 972.318 -1812.407, 972.313 -1802.406, 972.308 -1792.407, 972.303 -1782.406, 972.297 -1772.406, 972.292 -1762.406, 972.287 -1752.406, 972.282 -1742.407, 972.277 -1732.406, 972.272 -1722.407, 972.267 -1712.406, 972.262 -1702.407, 972.257 -1692.406, 972.251 -1682.406, 972.246 -1672.407, 972.241 -1662.406, 972.236 -1652.407, 972.231 -1642.406, 972.226 -1632.407, 972.221 -1622.406, 972.216 -1612.406, 972.210 -1602.406, 972.205 -1592.406, 972.200 -1582.407, 972.195 -1572.406, 972.190 -1562.407, 972.185 -1552.406, 972.180 -1542.407, 972.175 -1532.406, 972.170 -1522.406, 972.164 -1512.407, 972.159 -1502.406, 972.154 -1492.407, 972.149 -1482.406, 972.144 -1472.407, 972.139 -1462.406, 972.134 -1452.406, 972.129 -1442.407, 972.123 -1432.406, 972.118 -1422.407, 972.113 -1412.406, 972.108 -1402.407, 972.103 -1392.406, 972.098 -1382.406, 972.093 -1372.407, 972.088 -1362.406, 972.083 -1352.407, 972.077 -1342.406, 972.072 -1332.407, 972.067 -1322.406, 972.062 -1312.407, 972.057 -1302.406, 972.052 -1292.406, 972.047 -1282.407, 972.042 -1272.406, 972.036 -1262.407, 972.031 -1252.406, 972.026 -1242.407, 972.021 -1232.406, 972.016 -1222.406, 972.011 -1212.407, 972.006 -1202.406, 972.001 -1192.407, 971.996 -1182.406, 971.990 -1172.407, 971.985 -1162.406, 971.980 -1152.407, 971.975 -1142.407, 971.970 -1132.406, 971.965 -1122.407, 971.960 -1112.406, 971.955 -1102.407, 971.950 -1092.406, 971.944 -1082.407, 971.939 -1072.407, 971.934 -1062.406, 971.929 -1052.407, 971.924 -1042.406, 971.919 -1032.407, 971.914 -1022.406, 971.909 -1012.407, 971.904 -1002.406, 971.898 -992.407, 971.893 -982.407, 971.888 -972.406, 971.883 -962.407, 971.878 -952.406, 971.873 -942.407, 971.868 -932.406, 971.863 -922.407, 971.857 -912.407, 971.852 -902.406, 971.847 -892.407, 971.842 -882.406, 971.837 -872.407, 971.832 -862.406, 971.827 -852.407, 971.822 -842.407, 971.816 -832.407, 971.811 -822.407, 971.806 -812.406, 971.801 -802.407, 971.796 -792.406, 971.791 -782.407, 971.786 -772.407, 971.781 -762.407, 971.776 -752.407, 971.770 -742.406, 971.765 -732.407, 971.760 -722.406, 971.755 -712.407, 971.750 -702.406, 971.745 -692.407, 971.740 -682.407, 971.735 -672.407, 971.729 -662.407, 971.724 -652.406, 971.719 -642.407, 971.714 -632.406, 971.709 -622.407, 971.704 -612.407, 971.699 -602.407, 971.694 -592.407, 971.689 -582.406, 971.683 -572.407, 971.678 -562.406, 971.673 -552.407, 971.668 -542.407, 971.663 -532.407, 971.658 -522.407, 971.653 -512.406, 971.648 -502.407, 971.643 -492.406, 971.637 -482.407, 971.632 -472.407, 971.627 -462.407, 971.622 -452.407, 971.617 -442.407, 971.612 -432.407, 971.607 -422.406, 971.602 -412.407, 971.596 -402.406, 971.591 -392.407, 971.586 -382.407, 971.581 -372.407, 971.576 -362.407, 971.571 -352.407, 971.566 -342.407, 971.561 -332.406, 971.556 -322.407, 971.550 -312.407, 971.545 -302.407, 971.540 -292.407, 971.535 -282.407, 971.530 -272.407, 971.525 -262.406, 971.520 -252.407, 971.515 -242.407, 971.509 -232.407, 971.504 -222.407, 971.499 -212.407, 971.494 -202.407, 971.489 -192.407, 971.484 -182.407, 971.479 -172.407, 971.474 -162.407, 971.469 -152.407, 971.463 -142.407, 971.458 -132.407, 971.453 -122.407, 971.448 -112.407, 971.443 -102.406, 971.438 -92.407, 971.433 -82.407, 971.428 -72.407, 971.422 -62.407, 971.417 -52.407, 971.412 -42.407, 971.407 -32.406, 971.402 -22.407, 971.397 -12.407, 971.392 -2.407, 971.387 7.593, 971.382 17.593, 971.376 27.593, 971.371 90.616, 971.339 " />
            <path fill="none" stroke-width="3.0" stroke-linecap="butt" stroke-opacity="1.0" stroke="rgb(0, 0, 0)" stroke-linejoin="round" d=" M 328.341, 917.816 318.341, 917.803 308.341, 917.789 298.341, 917.776 288.341, 917.763 278.341, 917.749 268.341, 917.736 258.341, 917.722 248.341, 917.709 238.341, 917.696 228.341, 917.682 218.341, 917.669 208.341, 917.656 198.341, 917.642 188.341, 917.629 178.341, 917.615 168.341, 917.602 158.341, 917.589 148.341, 917.575 138.341, 917.562 128.341, 917.548 118.341, 917.535 108.341, 917.522 102.042, 917.513 " />
            <path fill="none" stroke-width="3.0" stroke-linecap="butt" stroke-opacity="1.0" stroke="rgb(0, 0, 0)" stroke-linejoin="round" d=" M 1864.092, 886.330 1854.097, 886.652 1844.102, 886.975 1834.107, 887.297 1824.113, 887.620 1814.118, 887.942 1804.123, 888.264 1794.128, 888.587 1784.133, 888.909 1774.139, 889.232 1764.144, 889.554 1754.149, 889.877 1744.154, 890.199 1734.159, 890.522 1724.165, 890.844 1714.170, 891.167 1704.175, 891.489 1694.180, 891.811 1684.185, 892.134 1674.191, 892.456 1664.196, 892.779 1654.201, 893.101 1644.206, 893.424 1634.211, 893.746 1624.217, 894.069 1614.222, 894.391 1604.227, 894.714 1594.232, 895.036 1584.237, 895.358 1574.243, 895.681 1564.248, 896.003 1554.253, 896.326 1544.258, 896.648 1534.263, 896.971 1524.269, 897.293 1514.274, 897.616 1504.279, 897.938 1494.284, 898.261 1484.289, 898.583 1474.295, 898.905 1464.300, 899.228 1454.305, 899.550 1444.310, 899.873 1434.315, 900.195 1424.321, 900.518 1414.326, 900.840 1404.331, 901.163 1394.336, 901.485 1384.341, 901.808 1374.347, 902.130 1364.352, 902.452 1354.357, 902.775 1344.362, 903.097 1334.367, 903.420 1324.373, 903.742 1314.378, 904.065 1304.383, 904.387 1294.388, 904.710 1284.393, 905.032 1274.399, 905.355 1264.404, 905.677 1254.409, 906.000 1244.414, 906.322 1234.419, 906.644 1224.425, 906.967 1214.430, 907.289 1204.435, 907.612 1194.440, 907.934 1184.445, 908.257 1174.451, 908.579 1164.456, 908.902 1154.461, 909.224 1144.466, 909.547 1134.471, 909.869 1124.477, 910.191 1114.482, 910.514 1104.487, 910.836 1094.492, 911.159 1084.497, 911.481 1074.503, 911.804 1064.508, 912.126 1054.513, 912.449 1044.518, 912.771 1034.523, 913.094 1024.529, 913.416 1014.534, 913.738 1004.539, 914.061 994.544, 914.383 984.549, 914.706 974.555, 915.028 964.560, 915.351 954.565, 915.673 944.570, 915.996 931.902, 916.404 921.902, 916.428 911.902, 916.451 901.902, 916.474 891.902, 916.498 881.902, 916.521 871.902, 916.545 861.902, 916.568 851.902, 916.591 841.902, 916.615 831.902, 916.638 821.902, 916.662 811.902, 916.685 801.902, 916.708 791.902, 916.732 781.902, 916.755 771.902, 916.779 761.902, 916.802 751.902, 916.825 741.902, 916.849 731.902, 916.872 721.903, 916.896 711.903, 916.919 701.903, 916.942 691.903, 916.966 681.903, 916.989 671.903, 917.013 661.903, 917.036 651.903, 917.059 641.903, 917.083 631.903, 917.106 621.903, 917.130 611.903, 917.153 601.903, 917.176 591.903, 917.200 581.903, 917.223 571.903, 917.246 561.903, 917.270 551.903, 917.293 541.903, 917.317 531.903, 917.340 521.903, 917.363 511.903, 917.387 501.903, 917.410 491.903, 917.434 481.903, 917.457 471.903, 917.480 461.903, 917.504 451.903, 917.527 441.903, 917.551 431.903, 917.574 421.903, 917.597 411.903, 917.621 401.903, 917.644 391.903, 917.668 381.903, 917.691 371.903, 917.714 361.904, 917.738 351.904, 917.761 341.904, 917.785 328.341, 917.816 318.341, 917.788 308.341, 917.760 298.341, 917.732 288.341, 917.704 278.341, 917.676 268.341, 917.648 258.341, 917.620 248.341, 917.592 238.341, 917.564 228.341, 917.536 218.342, 917.508 208.342, 917.480 198.342, 917.452 188.342, 917.424 178.342, 917.396 168.342, 917.368 158.342, 917.340 148.342, 917.312 138.342, 917.284 128.342, 917.256 118.342, 917.228 108.342, 917.200 102.112, 917.183 " />
            <path fill="none" stroke-width="3.0" stroke-linecap="butt" stroke-opacity="1.0" stroke="rgb(0, 0, 0)" stroke-linejoin="round" d=" M 2027.149, 881.069 2017.151, 881.285 2007.154, 881.502 1997.156, 881.718 1987.158, 881.934 1977.161, 882.150 1967.163, 882.367 1957.165, 882.583 1947.168, 882.799 1937.170, 883.015 1927.172, 883.232 1917.175, 883.448 1907.177, 883.664 1897.179, 883.880 1887.182, 884.097 1877.184, 884.313 1867.186, 884.529 1864.490, 884.588 " />
            <path fill="none" stroke-width="3.0" stroke-linecap="butt" stroke-opacity="1.0" stroke="rgb(0, 0, 0)" stroke-linejoin="round" d=" M 2576.009, 873.973 2566.010, 874.102 2556.011, 874.231 2546.012, 874.361 2536.013, 874.490 2526.013, 874.619 2516.014, 874.748 2506.015, 874.878 2496.016, 875.007 2486.017, 875.136 2476.018, 875.266 2466.019, 875.395 2456.019, 875.524 2446.020, 875.653 2436.021, 875.783 2426.022, 875.912 2416.023, 876.041 2406.023, 876.171 2396.024, 876.300 2386.025, 876.429 2376.026, 876.558 2366.027, 876.688 2356.028, 876.817 2346.029, 876.946 2336.029, 877.076 2326.030, 877.205 2316.031, 877.334 2306.032, 877.463 2296.033, 877.593 2286.034, 877.722 2276.034, 877.851 2266.035, 877.980 2256.036, 878.110 2246.037, 878.239 2236.038, 878.368 2226.039, 878.498 2216.039, 878.627 2206.040, 878.756 2196.041, 878.885 2186.042, 879.015 2176.043, 879.144 2166.044, 879.273 2156.044, 879.403 2146.045, 879.532 2136.046, 879.661 2126.047, 879.790 2116.048, 879.920 2106.049, 880.049 2096.050, 880.178 2086.050, 880.307 2076.051, 880.437 2066.052, 880.566 2056.053, 880.695 2046.054, 880.825 2036.054, 880.954 2027.149, 881.069 2017.154, 881.391 2007.159, 881.714 1997.165, 882.036 1987.170, 882.359 1977.175, 882.681 1967.180, 883.004 1957.185, 883.326 1947.191, 883.649 1937.196, 883.971 1927.201, 884.294 1917.206, 884.616 1907.211, 884.939 1897.217, 885.261 1887.222, 885.583 1877.227, 885.906 1867.232, 886.228 1864.092, 886.330 " />
            <path fill="none" stroke-width="3.0" stroke-linecap="butt" stroke-opacity="1.0" stroke="rgb(0, 0, 0)" stroke-linejoin="round" d=" M 8529.409, 884.418 8539.402, 884.794 8549.396, 885.169 8559.388, 885.544 8569.381, 885.919 8579.374, 886.295 8589.367, 886.670 8599.359, 887.045 8609.353, 887.421 8619.346, 887.796 8629.339, 888.171 8639.017, 888.535 8648.979, 889.400 8658.941, 890.266 8668.903, 891.131 8678.866, 891.996 8688.829, 892.862 8698.791, 893.727 8700.013, 893.833 " />
            <path fill="none" stroke-width="3.0" stroke-linecap="butt" stroke-opacity="1.0" stroke="rgb(0, 0, 0)" stroke-linejoin="round" d=" M 832.390, 834.472 837.136, 825.670 838.947, 822.313 843.693, 813.511 847.920, 805.672 851.573, 798.898 856.319, 790.096 861.065, 781.294 865.811, 772.492 870.557, 763.690 875.303, 754.888 880.049, 746.086 884.796, 737.284 889.542, 728.482 894.288, 719.680 899.034, 710.878 903.780, 702.076 908.065, 694.129 912.812, 685.327 917.558, 676.526 922.304, 667.724 927.050, 658.922 931.902, 649.923 921.984, 651.199 912.065, 652.475 902.147, 653.750 892.229, 655.026 882.310, 656.302 872.392, 657.577 862.474, 658.853 852.555, 660.129 842.637, 661.404 832.719, 662.680 822.801, 663.956 812.882, 665.231 802.964, 666.507 793.046, 667.783 783.127, 669.058 773.209, 670.334 763.291, 671.610 753.372, 672.885 743.454, 674.161 733.536, 675.437 723.618, 676.712 718.456, 677.376 " />
            <path fill="none" stroke-width="3.0" stroke-linecap="butt" stroke-opacity="1.0" stroke="rgb(0, 0, 0)" stroke-linejoin="round" d=" M 8700.013, 893.833 8709.975, 894.699 8719.938, 895.564 8729.899, 896.429 8739.862, 897.295 8749.825, 898.160 8759.787, 899.026 8769.750, 899.891 8779.712, 900.756 8789.675, 901.622 8799.638, 902.487 8806.312, 903.067 8816.290, 902.419 8826.270, 901.771 8836.248, 901.122 8846.228, 900.474 8856.206, 899.826 8866.186, 899.178 8876.164, 898.530 8886.144, 897.882 8896.122, 897.234 8906.102, 896.586 8916.080, 895.937 8926.060, 895.289 8936.038, 894.641 8937.840, 894.524 " />
            <path fill="none" stroke-width="3.0" stroke-linecap="butt" stroke-opacity="1.0" stroke="rgb(0, 0, 0)" stroke-linejoin="round" d=" M 102.042, 917.513 92.042, 917.500 82.042, 917.486 72.042, 917.473 62.042, 917.460 52.042, 917.446 42.042, 917.433 32.042, 917.419 22.042, 917.406 12.042, 917.393 2.042, 917.379 -7.958, 917.366 -17.958, 917.352 -27.958, 917.339 -37.958, 917.326 -47.958, 917.312 -57.958, 917.299 -67.958, 917.285 -77.958, 917.272 -87.958, 917.259 -97.958, 917.245 -107.958, 917.232 -117.958, 917.218 -127.958, 917.205 -137.958, 917.192 -147.958, 917.178 -151.673, 917.173 " />
            <path fill="none" stroke-width="3.0" stroke-linecap="butt" stroke-opacity="1.0" stroke="rgb(0, 0, 0)" stroke-linejoin="round" d=" M 102.112, 917.183 92.112, 917.155 82.112, 917.127 72.112, 917.099 62.112, 917.070 52.112, 917.042 42.112, 917.014 32.112, 916.986 22.112, 916.958 12.112, 916.930 2.112, 916.902 -7.888, 916.874 -17.888, 916.846 -27.888, 916.818 -37.888, 916.790 -47.888, 916.762 -57.888, 916.734 -67.888, 916.706 -77.888, 916.678 -87.887, 916.650 -97.887, 916.622 -107.887, 916.594 -117.887, 916.566 -127.887, 916.538 -137.887, 916.510 -147.887, 916.482 -157.887, 916.454 -167.887, 916.426 -175.707, 916.404 " />
            <path fill="none" stroke-width="3.0" stroke-linecap="butt" stroke-opacity="1.0" stroke="rgb(0, 0, 0)" stroke-linejoin="round" d=" M 5132.164, 1630.759 5142.085, 1629.504 5152.006, 1628.250 5161.927, 1626.996 5171.848, 1625.742 5181.769, 1624.488 5191.690, 1623.234 5201.611, 1621.980 5211.532, 1620.726 5221.454, 1619.472 5231.375, 1618.218 5241.295, 1616.964 5251.217, 1615.710 5261.138, 1614.456 5271.059, 1613.202 5280.980, 1611.948 5290.901, 1610.694 5300.822, 1609.440 5310.743, 1608.185 5320.664, 1606.931 5330.585, 1605.677 5340.506, 1604.423 5345.033, 1603.851 5354.901, 1605.466 5364.770, 1607.081 5374.639, 1608.695 5384.508, 1610.310 5394.376, 1611.925 5404.245, 1613.539 5414.114, 1615.154 5423.983, 1616.769 5433.852, 1618.383 5443.720, 1619.998 5453.589, 1621.613 5463.458, 1623.227 5473.327, 1624.842 5483.195, 1626.457 5493.064, 1628.071 5502.933, 1629.686 5507.447, 1630.425 " />
            <path fill="none" stroke-width="3.0" stroke-linecap="butt" stroke-opacity="1.0" stroke="rgb(0, 0, 0)" stroke-linejoin="round" d=" M 8258.619, 1627.977 8248.690, 1626.781 8238.763, 1625.586 8228.834, 1624.391 8218.905, 1623.196 8208.978, 1622.000 8199.049, 1620.805 8189.121, 1619.610 8179.192, 1618.414 8169.264, 1617.219 8159.336, 1616.024 8149.408, 1614.829 8139.479, 1613.633 8129.551, 1612.438 8119.623, 1611.243 8114.056, 1610.573 8124.043, 1611.074 8134.031, 1611.576 8144.018, 1612.077 8154.005, 1612.579 8163.993, 1613.080 8173.980, 1613.581 8183.968, 1614.083 8193.955, 1614.584 8203.942, 1615.086 8213.930, 1615.587 8223.917, 1616.089 8233.904, 1616.590 8243.893, 1617.092 8253.880, 1617.593 8263.867, 1618.095 8273.854, 1618.596 8283.842, 1619.097 8293.829, 1619.599 8303.816, 1620.100 8313.804, 1620.602 8323.791, 1621.103 8333.779, 1621.605 8343.767, 1622.106 8353.754, 1622.608 8363.741, 1623.109 8373.729, 1623.611 8383.716, 1624.112 8393.703, 1624.613 8403.690, 1625.115 8413.679, 1625.616 8423.666, 1626.118 8433.653, 1626.619 8443.641, 1627.121 8453.628, 1627.622 8457.168, 1627.800 " />
            <path fill="none" stroke-width="3.0" stroke-linecap="butt" stroke-opacity="1.0" stroke="rgb(0, 0, 0)" stroke-linejoin="round" d=" M 8671.961, 966.948 8681.961, 966.943 8691.961, 966.938 8701.961, 966.933 8711.961, 966.928 8721.961, 966.923 8731.961, 966.918 8741.961, 966.912 8751.961, 966.907 8761.961, 966.902 8771.961, 966.897 8781.961, 966.892 8791.961, 966.887 8801.961, 966.882 8811.961, 966.877 8821.961, 966.872 8831.961, 966.866 8841.961, 966.861 8851.961, 966.856 8861.961, 966.851 8871.961, 966.846 8881.961, 966.841 8891.961, 966.836 8901.961, 966.831 8911.961, 966.826 8921.961, 966.820 8931.961, 966.815 8941.961, 966.810 8951.961, 966.805 8961.961, 966.800 8971.961, 966.795 8981.961, 966.790 8991.961, 966.785 9001.961, 966.779 9011.961, 966.774 9021.961, 966.769 9031.961, 966.764 9041.961, 966.759 9051.961, 966.754 9061.961, 966.749 9071.961, 966.744 9081.961, 966.739 9091.961, 966.733 9101.961, 966.728 9111.961, 966.723 9121.961, 966.718 9131.961, 966.713 9141.961, 966.708 9151.961, 966.703 9161.961, 966.698 9171.961, 966.692 9181.961, 966.687 9191.961, 966.682 9201.961, 966.677 9211.961, 966.672 9221.961, 966.667 9231.961, 966.662 9241.961, 966.657 9251.961, 966.651 9261.961, 966.646 9271.961, 966.641 9281.961, 966.636 9291.961, 966.631 9301.961, 966.626 9311.961, 966.621 9321.961, 966.616 9331.961, 966.611 9341.961, 966.605 9351.961, 966.600 9361.961, 966.595 9371.961, 966.590 9381.961, 966.585 9391.961, 966.580 9401.961, 966.575 9411.961, 966.570 9421.961, 966.565 9431.961, 966.559 9441.961, 966.554 9451.961, 966.549 9461.961, 966.544 9471.961, 966.539 9481.961, 966.534 9491.961, 966.529 9501.961, 966.524 9511.961, 966.518 9521.961, 966.513 9531.961, 966.508 9541.961, 966.503 9551.961, 966.498 9561.961, 966.493 9571.961, 966.488 9581.961, 966.483 9591.961, 966.478 9601.961, 966.472 9611.961, 966.467 9621.961, 966.462 9631.961, 966.457 9641.961, 966.452 9651.961, 966.447 9661.961, 966.442 9671.961, 966.437 9681.961, 966.432 9691.961, 966.426 9701.961, 966.421 9711.961, 966.416 9721.961, 966.411 9731.961, 966.406 9741.961, 966.401 9751.961, 966.396 9761.961, 966.391 9771.961, 966.385 9781.961, 966.380 9791.961, 966.375 9801.961, 966.370 9811.961, 966.365 9821.961, 966.360 9831.961, 966.355 9841.961, 966.350 9851.961, 966.345 9861.961, 966.339 9871.961, 966.334 9881.961, 966.329 9891.961, 966.324 9901.961, 966.319 9911.961, 966.314 9921.961, 966.309 9931.961, 966.304 9941.961, 966.298 9951.961, 966.293 9961.961, 966.288 9971.960, 966.283 9981.961, 966.278 9991.961, 966.273 10001.961, 966.268 10011.961, 966.263 10021.960, 966.258 10031.961, 966.252 10041.961, 966.247 10051.961, 966.242 10061.961, 966.237 10071.960, 966.232 10081.961, 966.227 10091.961, 966.222 10101.960, 966.217 10111.961, 966.211 10121.960, 966.206 10131.961, 966.201 10141.961, 966.196 10151.960, 966.191 10161.961, 966.186 10171.961, 966.181 10181.961, 966.176 10191.961, 966.171 10201.960, 966.165 10211.961, 966.160 10221.961, 966.155 10231.960, 966.150 10241.961, 966.145 10251.960, 966.140 10261.961, 966.135 10271.961, 966.130 10281.960, 966.125 10291.961, 966.119 10301.960, 966.114 10311.960, 966.109 10321.961, 966.104 10331.960, 966.099 10341.960, 966.094 10351.961, 966.089 10361.960, 966.084 10371.960, 966.078 10381.961, 966.073 10391.961, 966.068 10401.960, 966.063 10411.960, 966.058 10421.961, 966.053 10431.960, 966.048 10441.960, 966.043 10451.961, 966.038 10461.960, 966.032 10471.960, 966.027 10481.961, 966.022 10491.960, 966.017 10501.960, 966.012 10511.961, 966.007 10521.960, 966.002 10531.960, 965.997 10541.960, 965.991 10551.961, 965.986 10561.960, 965.981 10571.960, 965.976 10581.961, 965.971 10591.960, 965.966 10601.960, 965.961 10611.961, 965.956 10621.960, 965.951 10631.960, 965.945 10641.960, 965.940 10651.960, 965.935 10661.960, 965.930 10671.960, 965.925 10681.961, 965.920 10691.960, 965.915 10701.960, 965.910 10711.961, 965.904 10721.960, 965.899 10731.960, 965.894 10741.960, 965.889 10751.960, 965.884 10761.960, 965.879 10771.960, 965.874 10781.960, 965.869 10791.960, 965.864 10801.960, 965.858 10811.961, 965.853 10821.960, 965.848 10831.960, 965.843 10841.960, 965.838 10851.960, 965.833 10861.960, 965.828 10871.960, 965.823 10881.960, 965.818 10891.960, 965.812 10901.960, 965.807 10911.960, 965.802 10921.960, 965.797 10931.960, 965.792 10941.960, 965.787 10951.960, 965.782 10961.960, 965.777 10971.960, 965.771 10981.960, 965.766 10991.960, 965.761 11001.960, 965.756 11011.960, 965.751 11021.960, 965.746 11031.960, 965.741 11041.960, 965.736 11051.960, 965.731 11061.960, 965.725 11071.960, 965.720 11081.960, 965.715 11091.960, 965.710 11101.960, 965.705 11111.960, 965.700 11121.960, 965.695 11131.960, 965.690 11141.960, 965.684 11151.960, 965.679 11161.960, 965.674 11171.960, 965.669 11181.960, 965.664 11191.960, 965.659 11201.960, 965.654 11211.960, 965.649 11221.960, 965.644 11231.960, 965.638 11241.960, 965.633 11251.960, 965.628 11261.960, 965.623 11271.960, 965.618 11281.960, 965.613 11291.960, 965.608 11301.960, 965.603 11311.960, 965.597 11321.960, 965.592 11331.960, 965.587 11341.960, 965.582 11351.960, 965.577 11361.960, 965.572 11371.960, 965.567 11381.960, 965.562 11391.960, 965.557 11401.960, 965.551 11411.960, 965.546 11421.960, 965.541 11431.960, 965.536 11441.960, 965.531 11451.960, 965.526 11461.960, 965.521 11471.960, 965.516 11481.960, 965.510 11491.960, 965.505 11501.960, 965.500 11511.960, 965.495 11521.960, 965.490 11531.960, 965.485 11541.960, 965.480 11551.960, 965.475 11561.960, 965.470 11571.960, 965.464 11581.960, 965.459 11591.960, 965.454 11601.960, 965.449 11611.960, 965.444 11621.960, 965.439 11631.960, 965.434 11641.960, 965.429 11651.960, 965.424 11661.960, 965.418 11671.960, 965.413 11681.960, 965.408 11691.960, 965.403 11701.960, 965.398 11711.960, 965.393 11721.960, 965.388 11731.960, 965.383 11741.960, 965.377 11751.960, 965.372 11761.960, 965.367 11771.960, 965.362 11781.960, 965.357 11791.960, 965.352 11801.960, 965.347 11811.960, 965.342 11821.960, 965.337 11831.960, 965.331 11841.960, 965.326 11851.960, 965.321 11861.960, 965.316 11871.960, 965.311 11881.960, 965.306 11891.960, 965.301 11901.960, 965.296 11911.960, 965.290 11921.960, 965.285 11931.960, 965.280 11941.960, 965.275 11982.035, 965.255 " />
            <path fill="none" stroke-width="3.0" stroke-linecap="butt" stroke-opacity="1.0" stroke="rgb(0, 0, 0)" stroke-linejoin="round" d=" M 5845.140, 968.395 5855.140, 968.390 5865.140, 968.384 5875.140, 968.379 5885.140, 968.374 5895.140, 968.369 5905.140, 968.364 5915.140, 968.359 5925.140, 968.354 5935.140, 968.349 5945.140, 968.344 5955.140, 968.338 5965.140, 968.333 5975.140, 968.328 5985.140, 968.323 5995.140, 968.318 6005.140, 968.313 6015.140, 968.308 6025.140, 968.303 6035.140, 968.297 6045.140, 968.292 6055.140, 968.287 6065.140, 968.282 6075.140, 968.277 6085.140, 968.272 6095.140, 968.267 6105.140, 968.262 6115.140, 968.257 6125.140, 968.251 6135.140, 968.246 6145.140, 968.241 6155.140, 968.236 6165.140, 968.231 6175.140, 968.226 6185.140, 968.221 6195.140, 968.216 6205.140, 968.211 6215.140, 968.205 6225.140, 968.200 6235.140, 968.195 6245.140, 968.190 6255.140, 968.185 6265.140, 968.180 6275.140, 968.175 6285.140, 968.170 6295.140, 968.164 6305.140, 968.159 6315.140, 968.154 6325.140, 968.149 6335.140, 968.144 6345.140, 968.139 6355.140, 968.134 6365.140, 968.129 6375.140, 968.123 6385.140, 968.118 6395.140, 968.113 6405.140, 968.108 6415.140, 968.103 6425.140, 968.098 6435.140, 968.093 6445.140, 968.088 6455.140, 968.083 6465.140, 968.077 6475.140, 968.072 6485.140, 968.067 6495.140, 968.062 6505.140, 968.057 6515.140, 968.052 6525.140, 968.047 6535.140, 968.042 6545.140, 968.036 6555.140, 968.031 6565.140, 968.026 6575.140, 968.021 6585.140, 968.016 6595.140, 968.011 6605.140, 968.006 6615.140, 968.001 6625.140, 967.996 6635.140, 967.990 6645.140, 967.985 6659.864, 967.978 6669.864, 967.973 6679.864, 967.968 6689.864, 967.962 6699.864, 967.957 6709.864, 967.952 6719.864, 967.947 6729.864, 967.942 6739.864, 967.937 6749.864, 967.932 6759.864, 967.927 6769.864, 967.922 6779.864, 967.916 6789.864, 967.911 6799.864, 967.906 6803.471, 967.904 6813.471, 967.899 6823.471, 967.894 6833.471, 967.889 6843.471, 967.884 6853.471, 967.879 6863.471, 967.874 6873.471, 967.869 6883.471, 967.863 6893.471, 967.858 6903.471, 967.853 6913.471, 967.848 6923.471, 967.843 6933.471, 967.838 6943.471, 967.833 6953.471, 967.828 6963.471, 967.822 6973.471, 967.817 6983.471, 967.812 6993.471, 967.807 7003.471, 967.802 7013.471, 967.797 7023.471, 967.792 7033.471, 967.787 7043.471, 967.782 7053.471, 967.776 7063.471, 967.771 7073.471, 967.766 7083.471, 967.761 7093.471, 967.756 7103.471, 967.751 7113.471, 967.746 7123.471, 967.741 7133.471, 967.735 7143.471, 967.730 7153.471, 967.725 7163.471, 967.720 7173.471, 967.715 7183.471, 967.710 7193.471, 967.705 7203.471, 967.700 7213.471, 967.695 7223.471, 967.689 7233.471, 967.684 7243.471, 967.679 7253.471, 967.674 7263.471, 967.669 7273.471, 967.664 7283.471, 967.659 7293.471, 967.654 7303.471, 967.648 7313.471, 967.643 7323.471, 967.638 7333.471, 967.633 7343.471, 967.628 7353.471, 967.623 7363.471, 967.618 7373.471, 967.613 7383.471, 967.608 7393.471, 967.602 7403.471, 967.597 7413.471, 967.592 7423.471, 967.587 7433.471, 967.582 7443.471, 967.577 7453.471, 967.572 7463.471, 967.567 7473.471, 967.562 7483.471, 967.556 7493.471, 967.551 7503.471, 967.546 7513.471, 967.541 7523.471, 967.536 7533.471, 967.531 7543.471, 967.526 7553.471, 967.521 7563.471, 967.515 7573.471, 967.510 7583.471, 967.505 7593.471, 967.500 7603.471, 967.495 7613.471, 967.490 7623.471, 967.485 7633.471, 967.480 7643.471, 967.475 7653.471, 967.469 7663.471, 967.464 7673.471, 967.459 7683.471, 967.454 7693.471, 967.449 7703.471, 967.444 7713.471, 967.439 7723.471, 967.434 7733.471, 967.428 7743.471, 967.423 7753.471, 967.418 7763.471, 967.413 7773.471, 967.408 7783.471, 967.403 7793.471, 967.398 7803.471, 967.393 7813.471, 967.388 7823.471, 967.382 7833.471, 967.377 7843.471, 967.372 7853.471, 967.367 7863.471, 967.362 7873.471, 967.357 7883.471, 967.352 7893.471, 967.347 7903.471, 967.341 7913.471, 967.336 7923.471, 967.331 7933.471, 967.326 7943.471, 967.321 7953.471, 967.316 7963.471, 967.311 7973.471, 967.306 7983.471, 967.301 7993.471, 967.295 8003.471, 967.290 8013.471, 967.285 8023.471, 967.280 8033.471, 967.275 8043.471, 967.270 8053.471, 967.265 8063.471, 967.260 8073.471, 967.255 8083.471, 967.249 8093.471, 967.244 8103.471, 967.239 8113.471, 967.234 8123.471, 967.229 8133.471, 967.224 8143.471, 967.219 8153.471, 967.214 8163.471, 967.208 8173.471, 967.203 8183.471, 967.198 8193.471, 967.193 8203.471, 967.188 8213.471, 967.183 8223.471, 967.178 8233.471, 967.173 8243.471, 967.168 8253.471, 967.162 8263.471, 967.157 8273.471, 967.152 8283.471, 967.147 8293.471, 967.142 8303.471, 967.137 8313.471, 967.132 8323.471, 967.127 8333.471, 967.121 8343.471, 967.116 8353.471, 967.111 8363.471, 967.106 8373.471, 967.101 8383.471, 967.096 8393.471, 967.091 8403.471, 967.086 8413.471, 967.081 8423.471, 967.075 8433.471, 967.070 8443.471, 967.065 8453.471, 967.060 8463.471, 967.055 8473.471, 967.050 8483.471, 967.045 8493.471, 967.040 8503.471, 967.034 8513.471, 967.029 8523.471, 967.024 8533.471, 967.019 8543.471, 967.014 8553.471, 967.009 8563.471, 967.004 8573.471, 966.999 8583.471, 966.994 8593.471, 966.988 8603.471, 966.983 8613.471, 966.978 8623.471, 966.973 8633.471, 966.968 8643.471, 966.963 8671.961, 966.948 " />
            <path fill="none" stroke-width="3.0" stroke-linecap="butt" stroke-opacity="1.0" stroke="rgb(0, 0, 0)" stroke-linejoin="round" d=" M 1855.239, 970.436 1865.239, 970.431 1875.239, 970.426 1885.239, 970.421 1895.239, 970.416 1905.239, 970.411 1915.239, 970.406 1925.239, 970.400 1935.239, 970.395 1945.239, 970.390 1955.239, 970.385 1965.239, 970.380 1975.239, 970.375 1985.239, 970.370 1995.239, 970.365 2005.239, 970.359 2015.239, 970.354 2025.239, 970.349 2035.239, 970.344 2045.239, 970.339 2055.239, 970.334 2065.239, 970.329 2075.239, 970.324 2085.239, 970.318 2095.239, 970.313 2105.239, 970.308 2115.239, 970.303 2125.239, 970.298 2135.239, 970.293 2145.239, 970.288 2155.239, 970.283 2165.239, 970.278 2175.239, 970.272 2185.239, 970.267 2195.239, 970.262 2205.239, 970.257 2215.239, 970.252 2225.239, 970.247 2235.239, 970.242 2245.239, 970.237 2255.239, 970.232 2265.239, 970.226 2275.239, 970.221 2285.239, 970.216 2295.239, 970.211 2305.239, 970.206 2315.239, 970.201 2325.239, 970.196 2335.239, 970.191 2345.239, 970.185 2355.239, 970.180 2365.239, 970.175 2375.239, 970.170 2385.239, 970.165 2395.239, 970.160 2405.239, 970.155 2415.239, 970.150 2425.239, 970.145 2435.239, 970.139 2445.239, 970.134 2455.239, 970.129 2465.239, 970.124 2475.239, 970.119 2485.239, 970.114 2495.239, 970.109 2505.239, 970.104 2515.239, 970.099 2525.239, 970.093 2535.239, 970.088 2545.239, 970.083 2555.239, 970.078 2565.239, 970.073 2575.239, 970.068 2585.239, 970.063 2595.239, 970.058 2605.239, 970.052 2615.239, 970.047 2625.239, 970.042 2635.239, 970.037 2645.239, 970.032 2655.239, 970.027 2665.239, 970.022 2675.239, 970.017 2685.239, 970.011 2695.239, 970.006 2705.239, 970.001 2715.239, 969.996 2725.239, 969.991 2735.239, 969.986 2745.239, 969.981 2755.239, 969.976 2765.239, 969.971 2775.239, 969.965 2785.239, 969.960 2795.239, 969.955 2805.239, 969.950 2815.239, 969.945 2825.239, 969.940 2835.239, 969.935 2845.239, 969.930 2855.239, 969.924 2865.239, 969.919 2875.239, 969.914 2885.239, 969.909 2895.239, 969.904 2905.239, 969.899 2915.239, 969.894 2925.239, 969.889 2935.239, 969.884 2945.239, 969.878 2955.239, 969.873 2965.239, 969.868 2975.239, 969.863 2985.239, 969.858 2995.239, 969.853 3005.239, 969.848 3015.239, 969.843 3025.239, 969.838 3035.239, 969.832 3045.239, 969.827 3055.239, 969.822 3065.239, 969.817 3075.239, 969.812 3085.239, 969.807 3095.239, 969.802 3105.239, 969.797 3115.239, 969.792 3125.239, 969.786 3135.239, 969.781 3145.239, 969.776 3155.239, 969.771 3165.239, 969.766 3175.239, 969.761 3185.239, 969.756 3195.239, 969.751 3205.239, 969.745 3215.239, 969.740 3225.239, 969.735 3235.239, 969.730 3245.239, 969.725 3255.239, 969.720 3265.239, 969.715 3275.239, 969.710 3285.239, 969.705 3295.239, 969.699 3305.239, 969.694 3315.239, 969.689 3325.239, 969.684 3335.239, 969.679 3345.239, 969.674 3355.239, 969.669 3365.239, 969.664 3375.239, 969.658 3385.239, 969.653 3395.239, 969.648 3405.239, 969.643 3415.239, 969.638 3425.239, 969.633 3435.239, 969.628 3445.239, 969.623 3455.239, 969.617 3465.239, 969.612 3475.239, 969.607 3485.239, 969.602 3495.239, 969.597 3505.239, 969.592 3515.239, 969.587 3525.239, 969.582 3535.239, 969.577 3545.239, 969.571 3555.239, 969.566 3565.239, 969.561 3575.239, 969.556 3585.239, 969.551 3595.239, 969.546 3605.239, 969.541 3615.239, 969.536 3625.239, 969.531 3635.239, 969.525 3645.239, 969.520 3655.239, 969.515 3665.239, 969.510 3675.239, 969.505 3685.239, 969.500 3695.239, 969.495 3705.239, 969.490 3715.239, 969.484 3725.239, 969.479 3735.239, 969.474 3745.239, 969.469 3755.239, 969.464 3765.239, 969.459 3775.239, 969.454 3785.239, 969.449 3795.239, 969.444 3805.239, 969.438 3815.239, 969.433 3825.239, 969.428 3835.239, 969.423 3845.239, 969.418 3855.239, 969.413 3865.239, 969.408 3875.239, 969.403 3885.239, 969.398 3895.239, 969.392 3905.239, 969.387 3915.239, 969.382 3925.239, 969.377 3935.239, 969.372 3945.239, 969.367 3955.239, 969.362 3965.239, 969.357 3975.239, 969.351 3985.239, 969.346 3995.239, 969.341 4005.239, 969.336 4015.239, 969.331 4025.239, 969.326 4035.239, 969.321 4045.239, 969.316 4055.239, 969.311 4065.239, 969.305 4075.239, 969.300 4085.239, 969.295 4095.239, 969.290 4105.239, 969.285 4115.239, 969.280 4125.238, 969.275 4135.238, 969.270 4145.239, 969.264 4155.239, 969.259 4165.239, 969.254 4175.238, 969.249 4185.238, 969.244 4195.239, 969.239 4205.239, 969.234 4215.239, 969.229 4225.238, 969.224 4235.238, 969.218 4245.239, 969.213 4255.239, 969.208 4265.239, 969.203 4275.238, 969.198 4285.238, 969.193 4295.239, 969.188 4305.239, 969.183 4315.239, 969.177 4325.238, 969.172 4335.238, 969.167 4345.238, 969.162 4355.239, 969.157 4365.239, 969.152 4375.238, 969.147 4385.238, 969.142 4395.238, 969.137 4405.239, 969.131 4415.239, 969.126 4425.238, 969.121 4435.238, 969.116 4445.238, 969.111 4455.239, 969.106 4465.239, 969.101 4475.238, 969.096 4485.238, 969.091 4495.238, 969.085 4505.239, 969.080 4515.239, 969.075 4525.238, 969.070 4535.238, 969.065 4545.238, 969.060 4555.239, 969.055 4565.239, 969.050 4575.238, 969.044 4585.238, 969.039 4595.238, 969.034 4605.239, 969.029 4615.239, 969.024 4625.238, 969.019 4635.238, 969.014 4645.238, 969.009 4655.239, 969.004 4665.239, 968.998 4675.238, 968.993 4685.238, 968.988 4695.238, 968.983 4705.238, 968.978 4715.239, 968.973 4725.238, 968.968 4735.238, 968.963 4745.238, 968.957 4755.238, 968.952 4765.239, 968.947 4775.238, 968.942 4785.238, 968.937 4795.238, 968.932 4805.238, 968.927 4815.239, 968.922 4825.238, 968.917 4835.238, 968.911 4845.238, 968.906 4855.238, 968.901 4865.239, 968.896 4875.238, 968.891 4885.238, 968.886 4895.238, 968.881 4905.238, 968.876 4915.239, 968.870 4925.238, 968.865 4935.238, 968.860 4945.238, 968.855 4955.238, 968.850 4965.239, 968.845 4975.238, 968.840 4985.238, 968.835 4995.238, 968.830 5005.238, 968.824 5015.239, 968.819 5025.238, 968.814 5035.238, 968.809 5045.238, 968.804 5055.238, 968.799 5065.239, 968.794 5075.238, 968.789 5085.238, 968.784 5095.238, 968.778 5105.238, 968.773 5115.238, 968.768 5125.238, 968.763 5135.238, 968.758 5145.238, 968.753 5155.238, 968.748 5165.238, 968.743 5175.238, 968.737 5185.238, 968.732 5195.238, 968.727 5205.238, 968.722 5215.238, 968.717 5225.238, 968.712 5235.238, 968.707 5245.238, 968.702 5255.238, 968.697 5265.238, 968.691 5275.238, 968.686 5285.238, 968.681 5295.238, 968.676 5305.238, 968.671 5315.238, 968.666 5325.238, 968.661 5335.238, 968.656 5345.238, 968.650 5355.238, 968.645 5365.238, 968.640 5375.238, 968.635 5385.238, 968.630 5395.238, 968.625 5405.238, 968.620 5415.238, 968.615 5425.238, 968.610 5435.238, 968.604 5445.238, 968.599 5455.238, 968.594 5465.238, 968.589 5475.238, 968.584 5485.238, 968.579 5495.238, 968.574 5505.238, 968.569 5515.238, 968.563 5525.238, 968.558 5535.238, 968.553 5545.238, 968.548 5555.238, 968.543 5565.238, 968.538 5575.238, 968.533 5585.238, 968.528 5595.238, 968.523 5605.238, 968.517 5615.238, 968.512 5625.238, 968.507 5635.238, 968.502 5645.238, 968.497 5655.238, 968.492 5665.238, 968.487 5675.238, 968.482 5685.238, 968.477 5695.238, 968.471 5705.238, 968.466 5715.238, 968.461 5725.238, 968.456 5735.238, 968.451 5745.238, 968.446 5755.238, 968.441 5765.238, 968.436 5775.238, 968.430 5785.238, 968.425 5795.238, 968.420 5805.238, 968.415 5845.140, 968.395 " />
            <path fill="none" stroke-width="3.0" stroke-linecap="butt" stroke-opacity="1.0" stroke="rgb(0, 0, 0)" stroke-linejoin="round" d=" M 90.616, 971.339 100.616, 971.334 110.616, 971.329 120.616, 971.324 130.616, 971.319 140.616, 971.314 150.616, 971.308 160.616, 971.303 170.616, 971.298 180.616, 971.293 190.616, 971.288 200.616, 971.283 210.616, 971.278 220.616, 971.273 230.616, 971.267 240.616, 971.262 250.616, 971.257 260.616, 971.252 270.616, 971.247 280.616, 971.242 290.616, 971.237 300.616, 971.232 310.616, 971.227 320.616, 971.221 330.616, 971.216 340.616, 971.211 350.616, 971.206 360.616, 971.201 370.616, 971.196 380.616, 971.191 390.616, 971.186 400.616, 971.180 410.616, 971.175 420.616, 971.170 430.616, 971.165 440.616, 971.160 450.616, 971.155 460.616, 971.150 470.616, 971.145 480.616, 971.140 490.616, 971.134 500.616, 971.129 510.616, 971.124 520.616, 971.119 530.616, 971.114 540.616, 971.109 550.616, 971.104 560.616, 971.099 570.616, 971.094 580.616, 971.088 590.616, 971.083 600.616, 971.078 610.616, 971.073 620.616, 971.068 630.616, 971.063 640.616, 971.058 650.616, 971.053 660.616, 971.047 670.616, 971.042 680.616, 971.037 690.616, 971.032 700.616, 971.027 710.616, 971.022 720.616, 971.017 730.616, 971.012 740.616, 971.007 750.616, 971.001 760.616, 970.996 770.616, 970.991 780.616, 970.986 790.616, 970.981 800.616, 970.976 810.616, 970.971 820.616, 970.966 830.616, 970.960 840.616, 970.955 850.616, 970.950 860.616, 970.945 870.616, 970.940 880.616, 970.935 890.616, 970.930 900.616, 970.925 910.616, 970.919 920.616, 970.914 930.616, 970.909 940.616, 970.904 950.616, 970.899 960.616, 970.894 970.616, 970.889 980.616, 970.884 990.616, 970.879 1000.616, 970.873 1010.616, 970.868 1020.616, 970.863 1030.616, 970.858 1040.616, 970.853 1050.616, 970.848 1060.616, 970.843 1070.616, 970.838 1080.616, 970.833 1090.616, 970.827 1100.616, 970.822 1110.616, 970.817 1120.616, 970.812 1130.616, 970.807 1140.616, 970.802 1150.616, 970.797 1160.616, 970.792 1170.616, 970.786 1180.616, 970.781 1190.616, 970.776 1200.616, 970.771 1210.616, 970.766 1220.616, 970.761 1230.616, 970.756 1240.616, 970.751 1250.616, 970.746 1260.616, 970.740 1270.616, 970.735 1280.616, 970.730 1290.616, 970.725 1300.616, 970.720 1310.616, 970.715 1320.616, 970.710 1330.616, 970.705 1340.616, 970.700 1350.616, 970.694 1360.616, 970.689 1370.616, 970.684 1380.616, 970.679 1390.616, 970.674 1400.616, 970.669 1410.616, 970.664 1420.616, 970.659 1430.616, 970.653 1440.616, 970.648 1450.616, 970.643 1460.616, 970.638 1470.616, 970.633 1480.616, 970.628 1490.616, 970.623 1500.616, 970.618 1510.616, 970.613 1520.616, 970.607 1530.616, 970.602 1540.616, 970.597 1550.616, 970.592 1560.616, 970.587 1570.616, 970.582 1580.616, 970.577 1590.616, 970.572 1600.616, 970.566 1610.616, 970.561 1620.616, 970.556 1630.616, 970.551 1640.616, 970.546 1650.616, 970.541 1660.616, 970.536 1670.616, 970.531 1680.616, 970.526 1690.616, 970.520 1700.616, 970.515 1710.616, 970.510 1720.616, 970.505 1730.616, 970.500 1740.616, 970.495 1750.616, 970.490 1760.616, 970.485 1770.616, 970.479 1780.616, 970.474 1790.616, 970.469 1800.616, 970.464 1810.616, 970.459 1820.616, 970.454 1830.616, 970.449 1855.239, 970.436 " />
            <path fill="none" stroke-width="3.0" stroke-linecap="butt" stroke-opacity="1.0" stroke="rgb(0, 0, 0)" stroke-linejoin="round" d=" M 23.477, 1483.068 13.477, 1483.095 3.478, 1483.123 -6.522, 1483.150 -16.522, 1483.177 -26.522, 1483.204 -36.522, 1483.232 -46.522, 1483.259 -56.522, 1483.286 -66.522, 1483.314 -76.522, 1483.341 -86.522, 1483.368 -96.522, 1483.396 -106.522, 1483.423 -116.522, 1483.450 -126.522, 1483.477 -136.522, 1483.505 -146.522, 1483.532 -156.522, 1483.559 -166.522, 1483.587 -176.522, 1483.614 -186.522, 1483.641 -196.522, 1483.669 -206.522, 1483.696 -216.522, 1483.723 -226.522, 1483.750 -236.522, 1483.778 -246.522, 1483.805 -256.522, 1483.832 -266.521, 1483.860 -276.521, 1483.887 -286.521, 1483.914 -296.521, 1483.942 -306.521, 1483.969 -316.521, 1483.996 -326.521, 1484.023 -336.521, 1484.051 -346.521, 1484.078 -356.521, 1484.105 -366.521, 1484.133 -376.521, 1484.160 -386.521, 1484.187 -396.521, 1484.215 -406.521, 1484.242 -416.521, 1484.269 -426.521, 1484.296 -436.521, 1484.324 -446.521, 1484.351 -456.521, 1484.378 -466.521, 1484.406 -476.521, 1484.433 -486.521, 1484.460 -496.521, 1484.488 -506.521, 1484.515 -516.521, 1484.542 -526.521, 1484.569 -536.521, 1484.597 -546.520, 1484.624 -556.520, 1484.651 -566.520, 1484.679 -576.520, 1484.706 -586.520, 1484.733 -596.520, 1484.761 -606.520, 1484.788 -616.520, 1484.815 -626.520, 1484.842 -636.520, 1484.870 -646.520, 1484.897 -656.520, 1484.924 -666.520, 1484.952 -676.520, 1484.979 -686.520, 1485.006 -696.520, 1485.034 -706.520, 1485.061 -716.520, 1485.088 -726.520, 1485.115 -736.520, 1485.143 -746.520, 1485.170 -756.520, 1485.197 -766.520, 1485.225 -776.520, 1485.252 -786.520, 1485.279 -796.520, 1485.307 -806.520, 1485.334 -816.519, 1485.361 -826.519, 1485.388 -836.519, 1485.416 -846.519, 1485.443 -856.519, 1485.470 -866.519, 1485.498 -876.519, 1485.525 -886.519, 1485.552 -896.519, 1485.580 -906.519, 1485.607 -916.519, 1485.634 -926.519, 1485.661 -936.519, 1485.689 -946.519, 1485.716 -956.519, 1485.743 -966.519, 1485.771 -976.519, 1485.798 -986.519, 1485.825 -996.519, 1485.853 -1006.519, 1485.880 -1016.519, 1485.907 -1026.519, 1485.934 -1036.519, 1485.962 -1046.519, 1485.989 -1056.519, 1486.016 -1066.519, 1486.044 -1076.519, 1486.071 -1086.518, 1486.098 -1096.518, 1486.126 -1106.518, 1486.153 -1116.518, 1486.180 -1126.518, 1486.207 -1136.518, 1486.235 -1146.518, 1486.262 -1156.518, 1486.289 -1166.518, 1486.317 -1176.518, 1486.344 -1186.518, 1486.371 -1196.518, 1486.399 -1206.518, 1486.426 -1216.518, 1486.453 -1226.518, 1486.480 -1236.518, 1486.508 -1246.518, 1486.535 -1256.518, 1486.562 -1266.518, 1486.590 -1276.518, 1486.617 -1286.518, 1486.644 -1296.518, 1486.672 -1306.518, 1486.699 -1316.518, 1486.726 -1326.518, 1486.753 -1336.518, 1486.781 -1346.517, 1486.808 -1356.517, 1486.835 -1366.517, 1486.863 -1376.517, 1486.890 -1386.517, 1486.917 -1396.517, 1486.945 -1406.517, 1486.972 -1416.517, 1486.999 -1426.517, 1487.026 -1436.517, 1487.054 -1446.517, 1487.081 -1456.517, 1487.108 -1466.517, 1487.136 -1476.517, 1487.163 -1486.517, 1487.190 -1496.517, 1487.218 -1506.517, 1487.245 -1516.517, 1487.272 -1526.517, 1487.299 -1536.517, 1487.327 -1546.517, 1487.354 -1556.517, 1487.381 -1566.517, 1487.409 -1576.517, 1487.436 -1586.517, 1487.463 -1596.517, 1487.491 -1606.516, 1487.518 -1616.516, 1487.545 -1626.516, 1487.573 -1636.516, 1487.600 -1646.516, 1487.627 -1656.516, 1487.654 -1666.516, 1487.682 -1676.516, 1487.709 -1686.516, 1487.736 -1696.516, 1487.764 -1706.516, 1487.791 -1716.516, 1487.818 -1726.516, 1487.846 -1736.516, 1487.873 -1746.516, 1487.900 -1756.516, 1487.927 -1766.516, 1487.955 -1776.516, 1487.982 -1786.516, 1488.009 -1796.516, 1488.037 -1806.516, 1488.064 -1816.516, 1488.091 -1826.516, 1488.119 -1836.516, 1488.146 -1846.516, 1488.173 -1856.516, 1488.200 -1866.516, 1488.228 -1876.516, 1488.255 -1886.516, 1488.282 -1896.516, 1488.310 -1906.516, 1488.337 -1916.515, 1488.364 -1926.515, 1488.392 -1936.515, 1488.419 -1946.515, 1488.446 -1956.515, 1488.473 -1966.515, 1488.501 -1976.515, 1488.528 -1986.515, 1488.555 -1996.515, 1488.583 -2006.515, 1488.610 -2016.515, 1488.637 -2026.515, 1488.665 -2036.515, 1488.692 -2046.515, 1488.719 -2056.515, 1488.746 -2066.515, 1488.774 -2076.515, 1488.801 -2086.515, 1488.828 -2096.515, 1488.856 -2106.515, 1488.883 -2116.515, 1488.910 -2126.515, 1488.938 -2136.515, 1488.965 -2146.515, 1488.992 -2156.514, 1489.019 -2166.514, 1489.047 -2176.514, 1489.074 -2186.514, 1489.101 -2196.514, 1489.129 -2206.514, 1489.156 -2216.514, 1489.183 -2226.514, 1489.211 -2236.514, 1489.238 -2246.514, 1489.265 -2256.514, 1489.292 -2266.514, 1489.320 -2276.514, 1489.347 -2286.514, 1489.374 -2296.514, 1489.402 -2306.514, 1489.429 -2316.514, 1489.456 -2326.514, 1489.484 -2336.514, 1489.511 -2346.514, 1489.538 -2356.514, 1489.565 -2366.514, 1489.593 -2376.514, 1489.620 -2386.514, 1489.647 -2396.514, 1489.675 -2406.514, 1489.702 -2416.514, 1489.729 -2426.513, 1489.757 -2436.513, 1489.784 -2446.513, 1489.811 -2456.513, 1489.838 -2466.513, 1489.866 -2476.513, 1489.893 -2486.513, 1489.920 -2496.513, 1489.948 -2506.513, 1489.975 -2516.513, 1490.002 -2526.513, 1490.030 -2536.513, 1490.057 -2546.513, 1490.084 -2556.513, 1490.111 -2566.513, 1490.139 -2576.513, 1490.166 -2586.513, 1490.193 -2596.513, 1490.221 -2606.513, 1490.248 -2616.513, 1490.275 -2626.513, 1490.303 -2636.513, 1490.330 -2646.513, 1490.357 -2656.513, 1490.384 -2666.513, 1490.412 -2676.513, 1490.439 -2686.513, 1490.466 -2696.513, 1490.494 -2706.512, 1490.521 -2716.512, 1490.548 -2726.512, 1490.576 -2736.512, 1490.603 -2746.512, 1490.630 -2756.512, 1490.657 -2766.512, 1490.685 -2776.512, 1490.712 -2786.512, 1490.739 -2796.512, 1490.767 -2806.512, 1490.794 -2816.512, 1490.821 -2826.512, 1490.849 -2836.512, 1490.876 -2846.512, 1490.903 -2856.512, 1490.930 -2866.512, 1490.958 -2876.512, 1490.985 -2886.512, 1491.012 -2896.512, 1491.040 -2906.512, 1491.067 -2916.511, 1491.094 -2926.511, 1491.122 -2936.511, 1491.149 -2946.511, 1491.176 -2956.512, 1491.203 -2966.512, 1491.231 -2976.512, 1491.258 -2986.512, 1491.285 -2996.511, 1491.313 -3006.511, 1491.340 -3016.511, 1491.367 -3026.511, 1491.395 -3036.511, 1491.422 -3046.511, 1491.449 -3056.511, 1491.476 -3066.511, 1491.504 -3076.511, 1491.531 -3086.511, 1491.558 -3096.511, 1491.586 -3106.511, 1491.613 -3116.511, 1491.640 -3126.511, 1491.668 -3136.511, 1491.695 -3146.511, 1491.722 -3156.511, 1491.749 -3166.511, 1491.777 -3176.511, 1491.804 -3186.511, 1491.831 -3196.511, 1491.859 -3206.511, 1491.886 -3216.511, 1491.913 -3226.510, 1491.941 -3236.510, 1491.968 -3246.510, 1491.995 -3256.510, 1492.022 -3266.510, 1492.050 -3276.510, 1492.077 -3286.510, 1492.104 -3296.510, 1492.132 -3306.510, 1492.159 -3316.510, 1492.186 -3326.510, 1492.214 -3336.510, 1492.241 -3346.510, 1492.268 -3356.510, 1492.295 -3366.510, 1492.323 -3376.510, 1492.350 -3386.510, 1492.377 -3396.510, 1492.405 -3406.510, 1492.432 -3416.510, 1492.459 -3426.510, 1492.487 -3436.510, 1492.514 -3446.510, 1492.541 -3456.510, 1492.568 -3466.510, 1492.596 -3476.510, 1492.623 -3486.510, 1492.650 -3496.510, 1492.678 -3506.510, 1492.705 -3516.510, 1492.732 -3526.510, 1492.760 -3536.510, 1492.787 -3546.509, 1492.814 -3556.509, 1492.841 -3566.509, 1492.869 -3576.509, 1492.896 -3586.509, 1492.923 -3596.509, 1492.951 -3606.509, 1492.978 -3616.509, 1493.005 -3626.509, 1493.033 -3636.509, 1493.060 -3646.509, 1493.087 -3656.509, 1493.114 -3666.509, 1493.142 -3676.509, 1493.169 -3686.509, 1493.196 -3696.509, 1493.224 -3706.509, 1493.251 -3716.509, 1493.278 -3726.509, 1493.306 -3736.509, 1493.333 -3746.509, 1493.360 -3756.509, 1493.387 -3766.509, 1493.415 -3776.508, 1493.442 -3786.508, 1493.469 -3796.508, 1493.497 -3806.509, 1493.524 -3816.509, 1493.551 -3826.509, 1493.579 -3836.509, 1493.606 -3846.509, 1493.633 -3856.508, 1493.660 -3866.508, 1493.688 -3876.508, 1493.715 -3886.508, 1493.742 -3896.508, 1493.770 -3906.508, 1493.797 -3916.508, 1493.824 -3926.508, 1493.852 -3936.508, 1493.879 -3946.508, 1493.906 -3956.508, 1493.933 -3966.508, 1493.961 -3976.508, 1493.988 -3986.508, 1494.015 -3996.508, 1494.043 -4006.508, 1494.070 -4016.508, 1494.097 -4026.508, 1494.125 -4036.508, 1494.152 -4046.508, 1494.179 -4056.508, 1494.206 -4066.508, 1494.234 -4076.508, 1494.261 -4086.508, 1494.288 -4096.507, 1494.316 -4106.507, 1494.343 -4116.507, 1494.370 -4126.507, 1494.398 -4136.507, 1494.425 -4146.507, 1494.452 -4156.507, 1494.479 -4166.507, 1494.507 -4176.507, 1494.534 -4186.507, 1494.561 -4196.507, 1494.589 -4206.507, 1494.616 -4216.507, 1494.643 -4226.507, 1494.671 -4236.507, 1494.698 -4246.507, 1494.725 -4256.507, 1494.752 -4266.507, 1494.780 -4276.507, 1494.807 -4286.507, 1494.834 -4296.507, 1494.862 -4306.507, 1494.889 -4316.507, 1494.916 -4326.506, 1494.944 -4336.506, 1494.971 -4346.506, 1494.998 -4356.506, 1495.025 -4366.506, 1495.053 -4376.506, 1495.080 -4386.506, 1495.107 -4396.506, 1495.135 -4406.506, 1495.162 -4416.506, 1495.189 -4426.506, 1495.217 -4436.506, 1495.244 -4446.506, 1495.271 -4456.506, 1495.298 -4466.506, 1495.326 -4476.506, 1495.353 -4486.506, 1495.380 -4496.506, 1495.408 -4506.506, 1495.435 -4516.506, 1495.462 -4526.506, 1495.490 -4536.506, 1495.517 -4546.506, 1495.544 -4556.506, 1495.571 -4566.505, 1495.599 -4576.505, 1495.626 -4586.505, 1495.653 -4596.505, 1495.681 -4606.505, 1495.708 -4616.505, 1495.735 -4626.505, 1495.763 -4636.505, 1495.790 -4646.505, 1495.817 -4656.505, 1495.844 -4666.505, 1495.872 -4676.505, 1495.899 -4686.505, 1495.926 -4696.505, 1495.954 -4706.505, 1495.981 -4716.505, 1496.008 -4726.505, 1496.036 -4736.505, 1496.063 -4746.505, 1496.090 -4756.505, 1496.117 -4766.505, 1496.145 -4776.505, 1496.172 -4786.505, 1496.199 -4796.505, 1496.227 -4806.505, 1496.254 -4816.505, 1496.281 -4826.505, 1496.309 -4836.505, 1496.336 -4846.505, 1496.363 -4856.505, 1496.390 -4866.505, 1496.418 -4876.504, 1496.445 -4886.504, 1496.472 -4896.504, 1496.500 -4906.504, 1496.527 -4916.504, 1496.554 -4926.504, 1496.582 -4936.504, 1496.609 -4946.504, 1496.636 -4956.504, 1496.663 -4966.504, 1496.691 -4976.504, 1496.718 -4986.504, 1496.745 -4996.504, 1496.773 -5006.504, 1496.800 -5016.504, 1496.827 -5026.504, 1496.855 -5036.504, 1496.882 -5046.504, 1496.909 -5056.504, 1496.936 -5066.504, 1496.964 -5076.504, 1496.991 -5086.504, 1497.018 -5096.504, 1497.046 -5106.503, 1497.073 -5116.503, 1497.100 -5126.503, 1497.128 -5136.503, 1497.155 -5146.503, 1497.182 -5156.503, 1497.209 -5166.503, 1497.237 -5176.503, 1497.264 -5186.503, 1497.291 -5196.503, 1497.319 -5206.503, 1497.346 -5216.503, 1497.373 -5226.503, 1497.401 -5236.503, 1497.428 -5246.503, 1497.455 -5256.503, 1497.483 -5266.503, 1497.510 -5276.503, 1497.537 -5286.503, 1497.564 -5296.503, 1497.592 -5306.503, 1497.619 -5316.503, 1497.646 -5326.503, 1497.674 -5336.503, 1497.701 -5346.502, 1497.728 -5356.502, 1497.756 -5366.502, 1497.783 -5376.502, 1497.810 -5386.502, 1497.837 -5443.910, 1497.994 " />
            <path fill="none" stroke-width="3.0" stroke-linecap="butt" stroke-opacity="1.0" stroke="rgb(0, 0, 0)" stroke-linejoin="round" d=" M 1843.116, 1478.100 1833.116, 1478.128 1823.116, 1478.155 1813.116, 1478.182 1803.116, 1478.209 1793.116, 1478.237 1783.116, 1478.264 1773.116, 1478.291 1763.116, 1478.319 1753.116, 1478.346 1743.116, 1478.373 1733.116, 1478.401 1723.117, 1478.428 1713.117, 1478.455 1703.117, 1478.482 1693.117, 1478.510 1683.117, 1478.537 1673.117, 1478.564 1663.117, 1478.592 1653.117, 1478.619 1643.117, 1478.646 1633.117, 1478.674 1623.117, 1478.701 1613.117, 1478.728 1603.117, 1478.755 1593.117, 1478.783 1583.117, 1478.810 1573.117, 1478.837 1563.117, 1478.865 1553.117, 1478.892 1543.117, 1478.919 1533.117, 1478.947 1523.117, 1478.974 1513.117, 1479.001 1503.117, 1479.028 1493.117, 1479.056 1483.117, 1479.083 1473.117, 1479.110 1463.118, 1479.138 1453.118, 1479.165 1443.118, 1479.192 1433.118, 1479.220 1423.118, 1479.247 1413.118, 1479.274 1403.118, 1479.301 1393.118, 1479.329 1383.118, 1479.356 1373.118, 1479.383 1363.118, 1479.411 1353.118, 1479.438 1343.118, 1479.465 1333.118, 1479.493 1323.118, 1479.520 1313.118, 1479.547 1303.118, 1479.574 1293.118, 1479.602 1283.118, 1479.629 1273.118, 1479.656 1263.118, 1479.684 1253.118, 1479.711 1243.118, 1479.738 1233.118, 1479.766 1223.118, 1479.793 1213.118, 1479.820 1203.119, 1479.847 1193.119, 1479.875 1183.119, 1479.902 1173.119, 1479.929 1163.119, 1479.957 1153.119, 1479.984 1143.119, 1480.011 1133.119, 1480.039 1123.119, 1480.066 1113.119, 1480.093 1103.119, 1480.120 1093.119, 1480.148 1083.119, 1480.175 1073.119, 1480.202 1063.119, 1480.230 1053.119, 1480.257 1043.119, 1480.284 1033.119, 1480.312 1023.119, 1480.339 1013.119, 1480.366 1003.119, 1480.393 993.119, 1480.421 983.119, 1480.448 973.119, 1480.475 963.119, 1480.503 953.119, 1480.530 943.119, 1480.557 933.119, 1480.585 923.120, 1480.612 913.120, 1480.639 903.120, 1480.667 893.120, 1480.694 883.120, 1480.721 873.120, 1480.748 863.120, 1480.776 853.120, 1480.803 843.120, 1480.830 833.120, 1480.858 823.120, 1480.885 813.120, 1480.912 803.120, 1480.939 793.120, 1480.967 783.120, 1480.994 773.120, 1481.021 763.120, 1481.049 753.120, 1481.076 743.120, 1481.103 733.120, 1481.131 723.120, 1481.158 713.120, 1481.185 703.120, 1481.213 693.120, 1481.240 683.120, 1481.267 673.120, 1481.294 663.121, 1481.322 653.120, 1481.349 643.121, 1481.376 633.121, 1481.404 623.121, 1481.431 613.121, 1481.458 603.121, 1481.486 593.121, 1481.513 583.121, 1481.540 573.121, 1481.567 563.121, 1481.595 553.121, 1481.622 543.121, 1481.649 533.121, 1481.677 523.121, 1481.704 513.121, 1481.731 503.121, 1481.759 493.121, 1481.786 483.121, 1481.813 473.121, 1481.840 463.121, 1481.868 453.121, 1481.895 443.121, 1481.922 433.121, 1481.950 423.121, 1481.977 413.121, 1482.004 403.121, 1482.032 393.121, 1482.059 383.121, 1482.086 373.122, 1482.113 363.122, 1482.141 353.122, 1482.168 343.122, 1482.195 333.122, 1482.223 323.122, 1482.250 313.122, 1482.277 303.122, 1482.305 293.122, 1482.332 283.122, 1482.359 273.122, 1482.386 263.122, 1482.414 253.122, 1482.441 243.122, 1482.468 233.122, 1482.496 223.122, 1482.523 213.122, 1482.550 203.122, 1482.578 193.122, 1482.605 183.122, 1482.632 173.122, 1482.659 163.122, 1482.687 153.122, 1482.714 143.122, 1482.741 133.122, 1482.769 123.122, 1482.796 113.123, 1482.823 103.123, 1482.851 93.123, 1482.878 83.123, 1482.905 73.123, 1482.932 63.123, 1482.960 53.123, 1482.987 43.123, 1483.014 23.477, 1483.068 " />
            <path fill="none" stroke-width="3.0" stroke-linecap="butt" stroke-opacity="1.0" stroke="rgb(0, 0, 0)" stroke-linejoin="round" d=" M 5659.452, 1467.682 5649.452, 1467.709 5639.452, 1467.736 5629.452, 1467.763 5619.452, 1467.791 5609.452, 1467.818 5599.452, 1467.845 5589.452, 1467.873 5579.453, 1467.900 5569.453, 1467.927 5559.453, 1467.955 5549.453, 1467.982 5539.453, 1468.009 5529.453, 1468.036 5519.453, 1468.064 5509.453, 1468.091 5499.453, 1468.118 5489.453, 1468.146 5479.453, 1468.173 5469.453, 1468.200 5459.453, 1468.228 5449.453, 1468.255 5439.453, 1468.282 5429.453, 1468.309 5419.453, 1468.337 5409.453, 1468.364 5399.453, 1468.391 5389.453, 1468.419 5379.453, 1468.446 5369.453, 1468.473 5359.453, 1468.501 5349.453, 1468.528 5339.453, 1468.555 5329.453, 1468.582 5319.454, 1468.610 5309.454, 1468.637 5299.454, 1468.664 5289.454, 1468.692 5279.454, 1468.719 5269.454, 1468.746 5259.454, 1468.774 5249.454, 1468.801 5239.454, 1468.828 5229.454, 1468.855 5219.454, 1468.883 5209.454, 1468.910 5199.454, 1468.937 5189.454, 1468.965 5179.454, 1468.992 5169.454, 1469.019 5159.454, 1469.047 5149.454, 1469.074 5139.454, 1469.101 5129.454, 1469.128 5119.454, 1469.156 5109.454, 1469.183 5099.454, 1469.210 5089.454, 1469.238 5079.454, 1469.265 5069.454, 1469.292 5059.455, 1469.320 5049.455, 1469.347 5039.455, 1469.374 5029.455, 1469.401 5019.455, 1469.429 5009.455, 1469.456 4999.455, 1469.483 4989.455, 1469.511 4979.455, 1469.538 4969.455, 1469.565 4959.455, 1469.593 4949.455, 1469.620 4939.455, 1469.647 4929.455, 1469.674 4919.455, 1469.702 4909.455, 1469.729 4899.455, 1469.756 4889.455, 1469.784 4879.455, 1469.811 4869.455, 1469.838 4859.455, 1469.866 4849.455, 1469.893 4839.455, 1469.920 4829.455, 1469.947 4819.455, 1469.975 4809.455, 1470.002 4799.456, 1470.029 4789.456, 1470.057 4779.456, 1470.084 4769.456, 1470.111 4759.456, 1470.139 4749.456, 1470.166 4739.456, 1470.193 4729.456, 1470.220 4719.456, 1470.248 4709.456, 1470.275 4699.456, 1470.302 4689.456, 1470.330 4679.456, 1470.357 4669.456, 1470.384 4659.456, 1470.412 4649.456, 1470.439 4639.456, 1470.466 4629.456, 1470.493 4619.456, 1470.521 4609.456, 1470.548 4599.456, 1470.575 4589.456, 1470.603 4579.456, 1470.630 4569.456, 1470.657 4559.456, 1470.685 4549.456, 1470.712 4539.457, 1470.739 4529.457, 1470.766 4519.457, 1470.794 4509.457, 1470.821 4489.741, 1470.875 4479.741, 1470.902 4469.741, 1470.929 4459.741, 1470.957 4449.741, 1470.984 4439.741, 1471.011 4433.906, 1471.027 4423.906, 1471.055 4413.906, 1471.082 4403.906, 1471.109 4393.906, 1471.137 4383.906, 1471.164 4373.906, 1471.191 4363.906, 1471.218 4353.906, 1471.246 4343.906, 1471.273 4333.907, 1471.300 4323.907, 1471.328 4313.907, 1471.355 4303.907, 1471.382 4293.907, 1471.410 4283.907, 1471.437 4273.907, 1471.464 4263.907, 1471.491 4253.907, 1471.519 4243.907, 1471.546 4233.907, 1471.573 4223.907, 1471.601 4213.907, 1471.628 4203.907, 1471.655 4193.907, 1471.683 4183.907, 1471.710 4173.907, 1471.737 4163.907, 1471.764 4153.907, 1471.792 4143.907, 1471.819 4133.907, 1471.846 4123.907, 1471.874 4113.907, 1471.901 4103.907, 1471.928 4093.907, 1471.956 4083.907, 1471.983 4073.907, 1472.010 4063.907, 1472.037 4053.907, 1472.065 4043.907, 1472.092 4033.908, 1472.119 4023.908, 1472.147 4013.908, 1472.174 4003.908, 1472.201 3993.908, 1472.229 3983.908, 1472.256 3973.908, 1472.283 3963.908, 1472.310 3953.908, 1472.338 3943.908, 1472.365 3933.908, 1472.392 3923.908, 1472.420 3913.908, 1472.447 3903.908, 1472.474 3893.908, 1472.502 3883.908, 1472.529 3873.908, 1472.556 3863.908, 1472.583 3853.908, 1472.611 3843.908, 1472.638 3833.908, 1472.665 3823.908, 1472.693 3813.908, 1472.720 3803.908, 1472.747 3793.908, 1472.775 3783.908, 1472.802 3773.908, 1472.829 3763.909, 1472.856 3753.909, 1472.884 3743.909, 1472.911 3733.909, 1472.938 3723.909, 1472.966 3713.909, 1472.993 3703.909, 1473.020 3693.909, 1473.048 3683.909, 1473.075 3673.909, 1473.102 3663.909, 1473.129 3653.909, 1473.157 3643.909, 1473.184 3633.909, 1473.211 3623.909, 1473.239 3613.909, 1473.266 3603.909, 1473.293 3593.909, 1473.321 3583.909, 1473.348 3573.909, 1473.375 3563.909, 1473.402 3553.909, 1473.430 3543.909, 1473.457 3533.909, 1473.484 3523.909, 1473.512 3513.909, 1473.539 3503.909, 1473.566 3493.910, 1473.594 3483.910, 1473.621 3473.910, 1473.648 3463.910, 1473.675 3453.910, 1473.703 3443.910, 1473.730 3433.910, 1473.757 3423.910, 1473.785 3413.910, 1473.812 3403.910, 1473.839 3393.910, 1473.867 3383.910, 1473.894 3373.910, 1473.921 3363.910, 1473.948 3353.910, 1473.976 3343.910, 1474.003 3333.910, 1474.030 3323.910, 1474.058 3313.910, 1474.085 3303.910, 1474.112 3293.910, 1474.140 3283.910, 1474.167 3273.910, 1474.194 3263.910, 1474.221 3253.910, 1474.249 3243.910, 1474.276 3233.911, 1474.303 3223.911, 1474.331 3213.911, 1474.358 3203.911, 1474.385 3193.911, 1474.413 3179.380, 1474.452 3169.380, 1474.480 3159.380, 1474.507 3149.380, 1474.534 3139.380, 1474.561 3129.380, 1474.589 3119.380, 1474.616 3109.380, 1474.643 3099.380, 1474.671 3089.380, 1474.698 3079.380, 1474.725 3069.380, 1474.753 3059.380, 1474.780 3049.380, 1474.807 3039.380, 1474.834 3029.380, 1474.862 3019.380, 1474.889 3009.380, 1474.916 2999.381, 1474.944 2989.381, 1474.971 2979.381, 1474.998 2969.381, 1475.026 2959.381, 1475.053 2949.381, 1475.080 2939.381, 1475.107 2929.381, 1475.135 2919.381, 1475.162 2909.381, 1475.189 2899.381, 1475.217 2889.381, 1475.244 2879.381, 1475.271 2869.381, 1475.299 2859.381, 1475.326 2849.381, 1475.353 2839.381, 1475.380 2829.381, 1475.408 2819.381, 1475.435 2809.381, 1475.462 2799.381, 1475.490 2789.381, 1475.517 2779.381, 1475.544 2769.381, 1475.572 2759.381, 1475.599 2749.381, 1475.626 2739.381, 1475.653 2729.382, 1475.681 2719.382, 1475.708 2709.382, 1475.735 2699.382, 1475.763 2689.382, 1475.790 2679.382, 1475.817 2669.382, 1475.845 2659.382, 1475.872 2649.382, 1475.899 2639.382, 1475.926 2629.382, 1475.954 2619.382, 1475.981 2609.382, 1476.008 2599.382, 1476.036 2589.382, 1476.063 2579.382, 1476.090 2569.382, 1476.118 2559.382, 1476.145 2549.382, 1476.172 2539.382, 1476.199 2529.382, 1476.227 2519.382, 1476.254 2509.382, 1476.281 2499.382, 1476.309 2489.382, 1476.336 2479.382, 1476.363 2469.382, 1476.391 2459.383, 1476.418 2449.383, 1476.445 2439.383, 1476.472 2429.383, 1476.500 2419.383, 1476.527 2409.383, 1476.554 2399.383, 1476.582 2389.383, 1476.609 2379.383, 1476.636 2369.383, 1476.664 2359.383, 1476.691 2349.383, 1476.718 2339.383, 1476.745 2329.383, 1476.773 2319.383, 1476.800 2309.383, 1476.827 2299.383, 1476.855 2289.383, 1476.882 2279.383, 1476.909 2269.383, 1476.937 2259.383, 1476.964 2249.383, 1476.991 2239.383, 1477.018 2229.383, 1477.046 2219.383, 1477.073 2209.384, 1477.100 2199.384, 1477.128 2189.384, 1477.155 2179.384, 1477.182 2169.384, 1477.210 2159.384, 1477.237 2149.384, 1477.264 2139.384, 1477.291 2129.384, 1477.319 2119.384, 1477.346 2109.384, 1477.373 2099.384, 1477.401 2089.384, 1477.428 2079.384, 1477.455 2069.384, 1477.483 2059.384, 1477.510 2049.384, 1477.537 2039.384, 1477.564 2029.384, 1477.592 2019.384, 1477.619 2009.384, 1477.646 1999.384, 1477.674 1989.384, 1477.701 1979.384, 1477.728 1969.384, 1477.756 1959.384, 1477.783 1949.384, 1477.810 1939.384, 1477.837 1929.385, 1477.865 1919.385, 1477.892 1909.385, 1477.919 1899.385, 1477.947 1889.385, 1477.974 1879.385, 1478.001 1869.385, 1478.029 1859.385, 1478.056 1843.116, 1478.100 " />
            <path fill="none" stroke-width="3.0" stroke-linecap="butt" stroke-opacity="1.0" stroke="rgb(0, 0, 0)" stroke-linejoin="round" d=" M 8432.629, 1460.111 8422.629, 1460.138 8412.630, 1460.165 8402.630, 1460.193 8392.630, 1460.220 8382.630, 1460.247 8372.630, 1460.274 8362.630, 1460.302 8352.630, 1460.329 8342.630, 1460.356 8332.630, 1460.384 8322.630, 1460.411 8312.630, 1460.438 8302.630, 1460.466 8292.630, 1460.493 8282.630, 1460.520 8272.630, 1460.547 8262.630, 1460.575 8252.630, 1460.602 8242.630, 1460.629 8232.630, 1460.657 8222.630, 1460.684 8212.630, 1460.711 8202.630, 1460.739 8192.630, 1460.766 8182.630, 1460.793 8172.630, 1460.820 8162.630, 1460.848 8152.630, 1460.875 8142.630, 1460.902 8132.630, 1460.930 8122.630, 1460.957 8112.630, 1460.984 8102.630, 1461.012 8092.630, 1461.039 8082.631, 1461.066 8072.631, 1461.093 8062.631, 1461.121 8052.631, 1461.148 8042.631, 1461.175 8032.631, 1461.203 8022.631, 1461.230 8012.631, 1461.257 8002.631, 1461.285 7992.631, 1461.312 7982.631, 1461.339 7972.631, 1461.366 7962.631, 1461.394 7952.631, 1461.421 7942.631, 1461.448 7932.631, 1461.476 7922.631, 1461.503 7912.631, 1461.530 7902.631, 1461.558 7892.631, 1461.585 7882.631, 1461.612 7872.631, 1461.639 7862.631, 1461.667 7852.631, 1461.694 7842.631, 1461.721 7832.631, 1461.749 7822.631, 1461.776 7812.632, 1461.803 7802.632, 1461.831 7792.632, 1461.858 7782.632, 1461.885 7772.632, 1461.912 7762.632, 1461.940 7752.632, 1461.967 7742.632, 1461.994 7732.632, 1462.022 7722.632, 1462.049 7712.632, 1462.076 7702.632, 1462.104 7692.632, 1462.131 7682.632, 1462.158 7672.632, 1462.185 7662.632, 1462.213 7652.632, 1462.240 7642.632, 1462.267 7632.632, 1462.295 7622.632, 1462.322 7612.632, 1462.349 7602.632, 1462.377 7592.632, 1462.404 7582.632, 1462.431 7572.632, 1462.458 7562.633, 1462.486 7552.633, 1462.513 7542.633, 1462.540 7532.633, 1462.568 7522.633, 1462.595 7512.633, 1462.622 7502.633, 1462.650 7492.633, 1462.677 7482.633, 1462.704 7472.633, 1462.731 7462.633, 1462.759 7452.633, 1462.786 7442.633, 1462.813 7432.633, 1462.841 7422.633, 1462.868 7412.633, 1462.895 7402.633, 1462.923 7392.633, 1462.950 7382.633, 1462.977 7372.633, 1463.004 7362.633, 1463.032 7352.633, 1463.059 7342.633, 1463.086 7332.633, 1463.114 7322.633, 1463.141 7312.633, 1463.168 7302.633, 1463.196 7292.633, 1463.223 7282.634, 1463.250 7272.634, 1463.277 7262.634, 1463.305 7252.634, 1463.332 7242.634, 1463.359 7232.634, 1463.387 7222.634, 1463.414 7212.634, 1463.441 7202.634, 1463.469 7192.634, 1463.496 7182.634, 1463.523 7172.634, 1463.550 7162.634, 1463.578 7152.634, 1463.605 7142.634, 1463.632 7132.634, 1463.660 7122.634, 1463.687 7112.634, 1463.714 7102.634, 1463.742 7092.634, 1463.769 7082.634, 1463.796 7072.634, 1463.824 7062.634, 1463.851 7052.634, 1463.878 7042.634, 1463.905 7032.635, 1463.933 7022.635, 1463.960 7012.635, 1463.987 7002.635, 1464.015 6992.635, 1464.042 6982.635, 1464.069 6972.635, 1464.096 6962.635, 1464.124 6952.635, 1464.151 6942.635, 1464.178 6932.635, 1464.206 6922.635, 1464.233 6912.635, 1464.260 6902.635, 1464.288 6892.635, 1464.315 6882.635, 1464.342 6872.635, 1464.370 6862.635, 1464.397 6852.635, 1464.424 6842.635, 1464.451 6832.635, 1464.479 6822.635, 1464.506 6812.635, 1464.533 6802.635, 1464.561 6792.635, 1464.588 6782.635, 1464.615 6772.635, 1464.643 6762.635, 1464.670 6752.636, 1464.697 6742.636, 1464.724 6732.636, 1464.752 6722.636, 1464.779 6712.636, 1464.806 6702.636, 1464.834 6692.636, 1464.861 6682.636, 1464.888 6672.636, 1464.916 6662.636, 1464.943 6652.636, 1464.970 6642.636, 1464.997 6632.636, 1465.025 6622.636, 1465.052 6612.636, 1465.079 6602.636, 1465.107 6592.636, 1465.134 6582.636, 1465.161 6572.636, 1465.189 6562.636, 1465.216 6552.636, 1465.243 6542.636, 1465.270 6532.636, 1465.298 6522.636, 1465.325 6512.637, 1465.352 6502.637, 1465.380 6492.637, 1465.407 6482.637, 1465.434 6472.637, 1465.462 6462.637, 1465.489 6452.637, 1465.516 6442.637, 1465.543 6432.637, 1465.571 6422.637, 1465.598 6412.637, 1465.625 6402.637, 1465.653 6392.637, 1465.680 6382.637, 1465.707 6372.637, 1465.735 6362.637, 1465.762 6352.637, 1465.789 6342.637, 1465.816 6332.637, 1465.844 6322.637, 1465.871 6312.637, 1465.898 6302.637, 1465.926 6292.637, 1465.953 6282.637, 1465.980 6272.637, 1466.008 6262.637, 1466.035 6252.637, 1466.062 6242.638, 1466.089 6232.638, 1466.117 6222.638, 1466.144 6212.638, 1466.171 6202.638, 1466.199 6192.638, 1466.226 6182.638, 1466.253 6172.638, 1466.281 6162.638, 1466.308 6152.638, 1466.335 6142.638, 1466.362 6132.638, 1466.390 6122.638, 1466.417 6112.638, 1466.444 6102.638, 1466.472 6092.638, 1466.499 6082.638, 1466.526 6072.638, 1466.554 6062.638, 1466.581 6052.638, 1466.608 6042.638, 1466.635 6032.638, 1466.663 6022.638, 1466.690 6012.638, 1466.717 6002.638, 1466.745 5992.638, 1466.772 5982.638, 1466.799 5972.638, 1466.827 5962.639, 1466.854 5952.639, 1466.881 5942.639, 1466.908 5932.639, 1466.936 5922.639, 1466.963 5912.639, 1466.990 5902.639, 1467.018 5892.639, 1467.045 5882.639, 1467.072 5872.639, 1467.100 5862.639, 1467.127 5852.639, 1467.154 5842.639, 1467.181 5832.639, 1467.209 5822.639, 1467.236 5812.639, 1467.263 5802.639, 1467.291 5792.639, 1467.318 5782.639, 1467.345 5772.639, 1467.373 5762.639, 1467.400 5752.639, 1467.427 5742.639, 1467.454 5732.639, 1467.482 5722.639, 1467.509 5712.639, 1467.536 5702.640, 1467.564 5692.640, 1467.591 5659.452, 1467.682 " />
            <path fill="none" stroke-width="3.0" stroke-linecap="butt" stroke-opacity="1.0" stroke="rgb(0, 0, 0)" stroke-linejoin="round" d=" M 11955.304, 1450.494 11945.304, 1450.521 11935.304, 1450.548 11925.304, 1450.576 11915.304, 1450.603 11905.304, 1450.630 11895.304, 1450.657 11885.304, 1450.685 11875.304, 1450.712 11865.305, 1450.739 11855.305, 1450.767 11845.305, 1450.794 11835.305, 1450.821 11825.305, 1450.849 11815.305, 1450.876 11805.305, 1450.903 11795.305, 1450.930 11785.305, 1450.958 11775.305, 1450.985 11765.305, 1451.012 11755.305, 1451.040 11745.305, 1451.067 11735.305, 1451.094 11725.305, 1451.122 11715.305, 1451.149 11705.305, 1451.176 11695.305, 1451.203 11685.305, 1451.231 11675.305, 1451.258 11665.305, 1451.285 11655.305, 1451.313 11645.305, 1451.340 11635.305, 1451.367 11625.305, 1451.395 11615.305, 1451.422 11605.305, 1451.449 11595.306, 1451.476 11585.306, 1451.504 11575.306, 1451.531 11565.306, 1451.558 11555.306, 1451.586 11545.306, 1451.613 11535.306, 1451.640 11525.306, 1451.668 11515.306, 1451.695 11505.306, 1451.722 11495.306, 1451.749 11485.306, 1451.777 11475.306, 1451.804 11465.306, 1451.831 11455.306, 1451.859 11445.306, 1451.886 11435.306, 1451.913 11425.306, 1451.941 11415.306, 1451.968 11405.306, 1451.995 11395.306, 1452.022 11385.306, 1452.050 11375.306, 1452.077 11365.306, 1452.104 11355.306, 1452.132 11345.306, 1452.159 11335.307, 1452.186 11325.307, 1452.214 11315.307, 1452.241 11305.307, 1452.268 11295.307, 1452.295 11285.307, 1452.323 11275.307, 1452.350 11265.307, 1452.377 11255.307, 1452.405 11245.307, 1452.432 11235.307, 1452.459 11225.307, 1452.487 11215.307, 1452.514 11205.307, 1452.541 11195.307, 1452.568 11185.307, 1452.596 11175.307, 1452.623 11165.307, 1452.650 11155.307, 1452.678 11145.307, 1452.705 11135.307, 1452.732 11125.307, 1452.760 11115.307, 1452.787 11105.307, 1452.814 11095.307, 1452.841 11085.307, 1452.869 11075.308, 1452.896 11065.307, 1452.923 11055.308, 1452.951 11045.308, 1452.978 11035.308, 1453.005 11025.308, 1453.033 11015.308, 1453.060 11005.308, 1453.087 10995.308, 1453.114 10985.308, 1453.142 10975.308, 1453.169 10965.308, 1453.196 10955.308, 1453.224 10945.308, 1453.251 10935.308, 1453.278 10925.308, 1453.306 10915.308, 1453.333 10905.308, 1453.360 10895.308, 1453.387 10885.308, 1453.415 10875.308, 1453.442 10865.308, 1453.469 10855.308, 1453.497 10845.308, 1453.524 10835.308, 1453.551 10825.308, 1453.579 10815.308, 1453.606 10805.309, 1453.633 10795.309, 1453.660 10785.309, 1453.688 10775.309, 1453.715 10765.309, 1453.742 10755.309, 1453.770 10745.309, 1453.797 10735.309, 1453.824 10725.309, 1453.852 10715.309, 1453.879 10705.309, 1453.906 10695.309, 1453.933 10685.309, 1453.961 10675.309, 1453.988 10665.309, 1454.015 10655.309, 1454.043 10645.309, 1454.070 10635.309, 1454.097 10625.309, 1454.125 10615.309, 1454.152 10605.309, 1454.179 10595.309, 1454.206 10585.309, 1454.234 10575.309, 1454.261 10565.309, 1454.288 10555.309, 1454.316 10545.309, 1454.343 10535.310, 1454.370 10525.310, 1454.398 10515.310, 1454.425 10505.310, 1454.452 10495.310, 1454.479 10485.310, 1454.507 10475.310, 1454.534 10465.310, 1454.561 10455.310, 1454.589 10445.310, 1454.616 10435.310, 1454.643 10425.310, 1454.671 10415.310, 1454.698 10405.310, 1454.725 10395.310, 1454.752 10385.310, 1454.780 10375.310, 1454.807 10365.310, 1454.834 10355.310, 1454.862 10345.310, 1454.889 10335.310, 1454.916 10325.310, 1454.944 10315.310, 1454.971 10305.310, 1454.998 10295.310, 1455.025 10285.310, 1455.053 10275.310, 1455.080 10265.311, 1455.107 10255.311, 1455.135 10245.311, 1455.162 10235.311, 1455.189 10225.311, 1455.217 10215.311, 1455.244 10205.311, 1455.271 10195.311, 1455.298 10185.311, 1455.326 10175.311, 1455.353 10165.311, 1455.380 10155.311, 1455.408 10145.311, 1455.435 10135.311, 1455.462 10125.311, 1455.490 10115.311, 1455.517 10105.311, 1455.544 10095.311, 1455.571 10085.311, 1455.599 10075.311, 1455.626 10065.311, 1455.653 10055.311, 1455.681 10045.311, 1455.708 10035.311, 1455.735 10025.312, 1455.763 10015.311, 1455.790 10005.311, 1455.817 9995.312, 1455.844 9985.312, 1455.872 9975.312, 1455.899 9965.312, 1455.926 9955.312, 1455.954 9945.312, 1455.981 9935.312, 1456.008 9925.312, 1456.036 9915.312, 1456.063 9905.312, 1456.090 9895.312, 1456.117 9885.312, 1456.145 9875.312, 1456.172 9865.312, 1456.199 9855.312, 1456.227 9845.312, 1456.254 9835.312, 1456.281 9825.312, 1456.309 9815.312, 1456.336 9805.312, 1456.363 9795.312, 1456.390 9785.312, 1456.418 9775.312, 1456.445 9765.312, 1456.472 9755.312, 1456.500 9745.312, 1456.527 9735.312, 1456.554 9725.312, 1456.582 9715.312, 1456.609 9705.312, 1456.636 9695.312, 1456.663 9685.312, 1456.691 9675.312, 1456.718 9665.312, 1456.745 9655.312, 1456.773 9645.312, 1456.800 9635.312, 1456.827 9625.312, 1456.855 9615.312, 1456.882 9605.312, 1456.909 9595.312, 1456.936 9585.312, 1456.964 9575.312, 1456.991 9565.312, 1457.018 9555.312, 1457.046 9545.312, 1457.073 9535.312, 1457.100 9525.312, 1457.128 9515.312, 1457.155 9505.312, 1457.182 9495.312, 1457.209 9485.313, 1457.237 9475.313, 1457.264 9465.312, 1457.291 9455.313, 1457.319 9445.313, 1457.346 9435.313, 1457.373 9425.313, 1457.401 9415.313, 1457.428 9405.313, 1457.455 9395.313, 1457.482 9385.313, 1457.510 9375.313, 1457.537 9365.313, 1457.564 9355.313, 1457.592 9345.313, 1457.619 9335.313, 1457.646 9325.313, 1457.674 9315.313, 1457.701 9305.313, 1457.728 9295.313, 1457.755 9285.313, 1457.783 9275.313, 1457.810 9265.313, 1457.837 9255.313, 1457.865 9245.313, 1457.892 9235.313, 1457.919 9225.313, 1457.947 9215.314, 1457.974 9205.314, 1458.001 9195.313, 1458.029 9185.314, 1458.056 9175.314, 1458.083 9165.314, 1458.110 9155.314, 1458.138 9145.314, 1458.165 9135.314, 1458.192 9125.314, 1458.220 9115.314, 1458.247 9105.314, 1458.274 9095.314, 1458.301 9085.314, 1458.329 9075.314, 1458.356 9065.314, 1458.383 9055.314, 1458.411 9045.314, 1458.438 9035.314, 1458.465 9025.314, 1458.493 9015.314, 1458.520 9005.314, 1458.547 8995.314, 1458.575 8985.314, 1458.602 8975.314, 1458.629 8965.314, 1458.656 8955.314, 1458.684 8945.315, 1458.711 8935.315, 1458.738 8925.315, 1458.766 8915.315, 1458.793 8905.315, 1458.820 8895.315, 1458.848 8885.315, 1458.875 8875.315, 1458.902 8865.315, 1458.929 8855.315, 1458.957 8845.315, 1458.984 8835.315, 1459.011 8825.315, 1459.039 8815.315, 1459.066 8805.315, 1459.093 8795.315, 1459.121 8785.315, 1459.148 8775.315, 1459.175 8765.315, 1459.202 8755.315, 1459.230 8745.315, 1459.257 8735.315, 1459.284 8725.315, 1459.312 8715.315, 1459.339 8705.315, 1459.366 8695.315, 1459.394 8685.315, 1459.421 8675.316, 1459.448 8665.316, 1459.475 8655.316, 1459.503 8645.316, 1459.530 8635.316, 1459.557 8625.316, 1459.585 8615.316, 1459.612 8605.316, 1459.639 8595.316, 1459.667 8585.316, 1459.694 8575.316, 1459.721 8565.316, 1459.748 8555.316, 1459.776 8545.316, 1459.803 8535.316, 1459.830 8525.316, 1459.858 8515.316, 1459.885 8505.316, 1459.912 8495.316, 1459.940 8485.316, 1459.967 8475.316, 1459.994 8432.629, 1460.111 " />
        </g>
    </g>
<g id="slice-labels"><text x="-4615.8784375" y="895.84425" text-anchor="middle" dominant-baseline="middle" font-family="Arial, sans-serif" font-size="37.11257778151573" font-weight="bold" fill="black" stroke="none" stroke-width="4.453509333781888" paint-order="stroke fill">Platte 35 (Back)</text><text x="-2402.8233125" y="895.84425" text-anchor="middle" dominant-baseline="middle" font-family="Arial, sans-serif" font-size="37.11257778151573" font-weight="bold" fill="black" stroke="none" stroke-width="4.453509333781888" paint-order="stroke fill">Platte 35 (Back)</text><text x="-189.76818750000075" y="895.84425" text-anchor="middle" dominant-baseline="middle" font-family="Arial, sans-serif" font-size="37.11257778151573" font-weight="bold" fill="black" stroke="none" stroke-width="4.453509333781888" paint-order="stroke fill">Platte 35 (Back)</text><text x="2023.2869375" y="895.84425" text-anchor="middle" dominant-baseline="middle" font-family="Arial, sans-serif" font-size="37.11257778151573" font-weight="bold" fill="black" stroke="none" stroke-width="4.453509333781888" paint-order="stroke fill">Platte 35 (Back)</text><text x="4236.342062499999" y="895.84425" text-anchor="middle" dominant-baseline="middle" font-family="Arial, sans-serif" font-size="37.11257778151573" font-weight="bold" fill="black" stroke="none" stroke-width="4.453509333781888" paint-order="stroke fill">Platte 35 (Back)</text><text x="6449.3971875" y="895.84425" text-anchor="middle" dominant-baseline="middle" font-family="Arial, sans-serif" font-size="37.11257778151573" font-weight="bold" fill="black" stroke="none" stroke-width="4.453509333781888" paint-order="stroke fill">Platte 35 (Back)</text><text x="8662.452312499998" y="895.84425" text-anchor="middle" dominant-baseline="middle" font-family="Arial, sans-serif" font-size="37.11257778151573" font-weight="bold" fill="black" stroke="none" stroke-width="4.453509333781888" paint-order="stroke fill">Platte 35 (Back)</text><text x="10875.5074375" y="895.84425" text-anchor="middle" dominant-baseline="middle" font-family="Arial, sans-serif" font-size="37.11257778151573" font-weight="bold" fill="black" stroke="none" stroke-width="4.453509333781888" paint-order="stroke fill">Platte 35 (Back)</text><text x="-4615.8784375" y="1387.6867499999998" text-anchor="middle" dominant-baseline="middle" font-family="Arial, sans-serif" font-size="37.11257778151573" font-weight="bold" fill="black" stroke="none" stroke-width="4.453509333781888" paint-order="stroke fill">Platte 35 (Back)</text><text x="-2402.8233125" y="1387.6867499999998" text-anchor="middle" dominant-baseline="middle" font-family="Arial, sans-serif" font-size="37.11257778151573" font-weight="bold" fill="black" stroke="none" stroke-width="4.453509333781888" paint-order="stroke fill">Platte 35 (Back)</text><text x="-189.76818750000075" y="1387.6867499999998" text-anchor="middle" dominant-baseline="middle" font-family="Arial, sans-serif" font-size="37.11257778151573" font-weight="bold" fill="black" stroke="none" stroke-width="4.453509333781888" paint-order="stroke fill">Platte 35 (Back)</text><text x="2023.2869375" y="1387.6867499999998" text-anchor="middle" dominant-baseline="middle" font-family="Arial, sans-serif" font-size="37.11257778151573" font-weight="bold" fill="black" stroke="none" stroke-width="4.453509333781888" paint-order="stroke fill">Platte 35 (Back)</text><text x="4236.342062499999" y="1387.6867499999998" text-anchor="middle" dominant-baseline="middle" font-family="Arial, sans-serif" font-size="37.11257778151573" font-weight="bold" fill="black" stroke="none" stroke-width="4.453509333781888" paint-order="stroke fill">Platte 35 (Back)</text><text x="6449.3971875" y="1387.6867499999998" text-anchor="middle" dominant-baseline="middle" font-family="Arial, sans-serif" font-size="37.11257778151573" font-weight="bold" fill="black" stroke="none" stroke-width="4.453509333781888" paint-order="stroke fill">Platte 35 (Back)</text><text x="8662.452312499998" y="1387.6867499999998" text-anchor="middle" dominant-baseline="middle" font-family="Arial, sans-serif" font-size="37.11257778151573" font-weight="bold" fill="black" stroke="none" stroke-width="4.453509333781888" paint-order="stroke fill">Platte 35 (Back)</text><text x="10875.5074375" y="1387.6867499999998" text-anchor="middle" dominant-baseline="middle" font-family="Arial, sans-serif" font-size="37.11257778151573" font-weight="bold" fill="black" stroke="none" stroke-width="4.453509333781888" paint-order="stroke fill">Platte 35 (Back)</text></g></svg>