<?xml version='1.0' encoding='utf-8'?>
<svg xmlns="http://www.w3.org/2000/svg" xmlns:inkscape="http://www.inkscape.org/namespaces/inkscape" version="1.1" width="128.91494417190552mm" height="116.95485496520996mm" viewBox="-11263.210356017886 -9.682206038225543 18279.13071203577 1408.382412076451" preserveAspectRatio="none">
    <g id="ViewLayer_LineSet" inkscape:groupmode="lineset" inkscape:label="ViewLayer_LineSet">
        <g inkscape:groupmode="layer" id="strokes" inkscape:label="strokes">
            <path fill="none" stroke-width="3.0" stroke-linecap="butt" stroke-opacity="1.0" stroke="rgb(0, 0, 0)" stroke-linejoin="round" d=" M 535.889, 1357.309 530.506, 1348.881 525.122, 1340.454 519.739, 1332.027 514.355, 1323.600 508.972, 1315.172 503.589, 1306.745 498.205, 1298.318 492.822, 1289.890 487.439, 1281.463 482.495, 1273.725 479.527, 1269.078 474.144, 1260.651 468.760, 1252.224 463.377, 1243.796 457.993, 1235.369 452.610, 1226.942 447.227, 1218.515 441.843, 1210.087 437.668, 1203.552 " />
            <path fill="none" stroke-width="3.0" stroke-linecap="butt" stroke-opacity="1.0" stroke="rgb(0, 0, 0)" stroke-linejoin="round" d=" M 535.940, 1357.389 545.940, 1357.389 555.940, 1357.389 565.940, 1357.389 575.940, 1357.389 585.940, 1357.389 595.940, 1357.389 605.940, 1357.389 615.940, 1357.389 625.940, 1357.389 635.940, 1357.389 645.940, 1357.389 655.940, 1357.389 665.940, 1357.389 675.940, 1357.389 685.940, 1357.389 695.940, 1357.389 705.940, 1357.389 715.940, 1357.389 725.940, 1357.389 735.940, 1357.389 745.940, 1357.389 755.940, 1357.389 765.940, 1357.389 775.940, 1357.389 785.940, 1357.389 795.940, 1357.389 806.319, 1357.389 807.385, 1357.389 808.455, 1357.389 809.526, 1357.389 810.594, 1357.389 811.657, 1357.389 812.711, 1357.389 813.752, 1357.389 814.778, 1357.389 815.786, 1357.389 816.772, 1357.389 826.772, 1357.389 836.772, 1357.389 846.772, 1357.389 856.772, 1357.389 866.772, 1357.389 876.772, 1357.389 886.772, 1357.389 896.772, 1357.389 906.772, 1357.389 916.772, 1357.389 926.772, 1357.389 936.772, 1357.389 946.772, 1357.389 956.772, 1357.389 966.772, 1357.389 976.772, 1357.389 986.772, 1357.389 996.772, 1357.389 1006.772, 1357.389 1016.772, 1357.389 1026.772, 1357.389 1036.772, 1357.389 1046.772, 1357.389 1056.772, 1357.389 1066.772, 1357.389 1076.772, 1357.389 1086.772, 1357.389 1096.772, 1357.389 1106.772, 1357.389 1116.772, 1357.389 1126.772, 1357.389 1136.772, 1357.389 1146.772, 1357.389 1156.772, 1357.389 1166.772, 1357.389 1176.772, 1357.389 1186.772, 1357.389 1196.772, 1357.389 1206.772, 1357.389 1216.772, 1357.389 1226.772, 1357.389 1236.935, 1357.389 1246.935, 1357.389 1256.935, 1357.389 1266.935, 1357.389 1275.743, 1357.389 1285.743, 1357.389 1295.743, 1357.389 1305.743, 1357.389 1315.743, 1357.389 1325.743, 1357.389 1335.743, 1357.389 1345.743, 1357.389 1355.743, 1357.389 1365.743, 1357.389 1375.743, 1357.389 1385.743, 1357.389 1395.743, 1357.389 1405.743, 1357.389 1415.743, 1357.389 1425.743, 1357.389 1435.743, 1357.389 1445.743, 1357.389 1455.743, 1357.389 1465.712, 1357.389 1465.051, 1347.411 1464.389, 1337.433 1463.728, 1327.455 1463.066, 1317.477 1462.405, 1307.498 1461.743, 1297.520 1461.081, 1287.542 1460.420, 1277.564 1460.168, 1273.766 1459.883, 1269.460 1459.221, 1259.482 1458.559, 1249.504 1457.898, 1239.526 1457.578, 1234.707 1454.879, 1225.078 1452.180, 1215.449 1449.481, 1205.820 1448.846, 1203.552 " />
            <path fill="none" stroke-width="3.0" stroke-linecap="butt" stroke-opacity="1.0" stroke="rgb(0, 0, 0)" stroke-linejoin="round" d=" M 437.668, 1203.552 443.051, 1211.979 448.435, 1220.406 453.818, 1228.833 459.202, 1237.261 464.585, 1245.688 469.968, 1254.115 475.352, 1262.543 479.527, 1269.078 482.495, 1273.725 487.879, 1282.152 493.262, 1290.580 498.645, 1299.007 504.029, 1307.434 509.412, 1315.862 514.796, 1324.289 520.179, 1332.716 525.562, 1341.143 530.946, 1349.571 535.909, 1357.341 535.940, 1357.389 535.889, 1357.309 530.506, 1348.881 525.122, 1340.454 519.739, 1332.027 514.356, 1323.600 508.972, 1315.172 503.589, 1306.745 498.205, 1298.318 492.822, 1289.891 487.439, 1281.463 482.495, 1273.725 479.527, 1269.078 474.144, 1260.651 468.760, 1252.224 463.377, 1243.796 457.993, 1235.369 452.610, 1226.942 447.227, 1218.515 441.843, 1210.087 437.668, 1203.552 " />
            <path fill="none" stroke-width="3.0" stroke-linecap="butt" stroke-opacity="1.0" stroke="rgb(0, 0, 0)" stroke-linejoin="round" d=" M 535.889, 1357.309 535.889, 1357.309 535.909, 1357.341 " />
            <path fill="none" stroke-width="3.0" stroke-linecap="butt" stroke-opacity="1.0" stroke="rgb(0, 0, 0)" stroke-linejoin="round" d=" M 6732.336, 14.402 6722.336, 14.402 6712.336, 14.402 6702.336, 14.402 6692.336, 14.402 6682.336, 14.402 6672.336, 14.402 6662.336, 14.402 6652.336, 14.402 6642.336, 14.402 6632.336, 14.402 6622.336, 14.402 6612.336, 14.402 6602.336, 14.402 6592.336, 14.402 6582.336, 14.402 6572.336, 14.402 6562.336, 14.402 6552.336, 14.402 6542.336, 14.402 6532.336, 14.402 6522.336, 14.402 6512.336, 14.402 6502.336, 14.402 6492.336, 14.402 6482.336, 14.402 6472.336, 14.402 6462.336, 14.402 6452.336, 14.402 6442.336, 14.402 6432.336, 14.402 6422.336, 14.402 6412.336, 14.402 6402.336, 14.402 6392.336, 14.402 6382.336, 14.402 6372.336, 14.402 6362.336, 14.402 6352.336, 14.402 6342.336, 14.402 6332.336, 14.402 6322.336, 14.402 6312.336, 14.402 6302.336, 14.402 6292.336, 14.402 6282.336, 14.402 6272.336, 14.402 6262.336, 14.402 6252.336, 14.402 6242.336, 14.402 6232.336, 14.402 6222.336, 14.402 6212.336, 14.402 6202.336, 14.402 6192.336, 14.402 6182.336, 14.402 6172.336, 14.402 6162.336, 14.402 6152.336, 14.402 6142.336, 14.402 6132.336, 14.402 6122.336, 14.402 6112.336, 14.402 6102.336, 14.402 6092.336, 14.402 6082.336, 14.402 6072.336, 14.402 6062.336, 14.402 6052.336, 14.402 6042.336, 14.402 6032.336, 14.402 6022.336, 14.402 6012.336, 14.402 6002.336, 14.402 5992.336, 14.402 5982.336, 14.402 5972.336, 14.402 5962.336, 14.402 5952.336, 14.402 5942.336, 14.402 5932.336, 14.402 5922.336, 14.402 5912.336, 14.402 5902.336, 14.402 5892.336, 14.402 5882.336, 14.402 5872.336, 14.402 5862.336, 14.402 5852.336, 14.402 5842.336, 14.402 5832.336, 14.402 5822.336, 14.402 5812.336, 14.402 5802.336, 14.402 5792.336, 14.402 5782.336, 14.402 5772.336, 14.402 5762.336, 14.402 5752.336, 14.402 5742.336, 14.402 5732.336, 14.402 5722.336, 14.402 5712.336, 14.402 5702.336, 14.402 5692.336, 14.402 5682.336, 14.402 5672.336, 14.402 5662.336, 14.402 5652.336, 14.402 5642.336, 14.402 5632.336, 14.402 5622.336, 14.402 5612.336, 14.402 5602.336, 14.402 5592.336, 14.402 5582.336, 14.402 5572.336, 14.402 5562.336, 14.402 5552.336, 14.402 5542.336, 14.402 5532.336, 14.402 5522.336, 14.402 5512.336, 14.402 5502.336, 14.402 5492.336, 14.402 5482.336, 14.402 5472.336, 14.402 5462.336, 14.402 5452.336, 14.402 5442.336, 14.402 5432.336, 14.402 5422.336, 14.402 5412.336, 14.402 5402.336, 14.402 5392.336, 14.402 5382.336, 14.402 5372.336, 14.402 5362.336, 14.402 5352.336, 14.402 5342.336, 14.402 5332.336, 14.402 5322.336, 14.402 5312.336, 14.402 5302.336, 14.402 5292.336, 14.402 5282.336, 14.402 5272.336, 14.402 5262.336, 14.402 5252.336, 14.402 5242.336, 14.402 5232.336, 14.402 5222.336, 14.402 5212.336, 14.402 5202.336, 14.402 5192.336, 14.402 5182.336, 14.402 5172.336, 14.402 5162.336, 14.402 5152.336, 14.402 5142.336, 14.402 5132.336, 14.402 5122.336, 14.402 5112.336, 14.402 5102.336, 14.402 5092.336, 14.402 5082.336, 14.402 5072.336, 14.402 5062.336, 14.402 5052.336, 14.402 5042.336, 14.402 5032.336, 14.402 5022.336, 14.402 5012.336, 14.402 5002.336, 14.402 4992.336, 14.402 4982.336, 14.402 4972.336, 14.402 4962.336, 14.402 4952.336, 14.402 4942.336, 14.402 4932.336, 14.402 4922.336, 14.402 4912.336, 14.402 4902.336, 14.402 4892.336, 14.402 4882.336, 14.402 4872.336, 14.402 4862.336, 14.402 4852.336, 14.402 4842.336, 14.402 4832.336, 14.402 4822.336, 14.402 4812.336, 14.402 4802.336, 14.402 4792.336, 14.402 4782.336, 14.402 4772.336, 14.402 4762.336, 14.402 4752.336, 14.402 4742.336, 14.402 4732.336, 14.402 4722.336, 14.402 4712.336, 14.402 4702.336, 14.402 4692.336, 14.402 4682.336, 14.402 4672.336, 14.402 4662.336, 14.402 4652.336, 14.402 4642.336, 14.402 4632.336, 14.402 4622.336, 14.402 4612.336, 14.402 4602.336, 14.402 4592.336, 14.402 4582.336, 14.402 4572.336, 14.402 4562.336, 14.402 4552.336, 14.402 4542.336, 14.402 4532.336, 14.402 4522.336, 14.402 4512.336, 14.402 4502.336, 14.402 4492.336, 14.402 4482.336, 14.402 4472.336, 14.402 4462.336, 14.402 4452.336, 14.402 4442.336, 14.402 4432.336, 14.402 4422.336, 14.402 4412.336, 14.402 4402.336, 14.402 4392.336, 14.402 4382.336, 14.402 4372.336, 14.402 4362.336, 14.402 4352.336, 14.402 4342.336, 14.402 4332.336, 14.402 4322.336, 14.402 4312.336, 14.402 4302.336, 14.402 4292.336, 14.402 4282.336, 14.402 4272.336, 14.402 4262.336, 14.402 4252.336, 14.402 4242.336, 14.402 4232.336, 14.402 4222.336, 14.402 4212.336, 14.402 4202.336, 14.402 4192.336, 14.402 4182.336, 14.402 4172.336, 14.402 4162.336, 14.402 4152.336, 14.402 4142.336, 14.402 4132.336, 14.402 4122.336, 14.402 4112.336, 14.402 4102.336, 14.402 4092.336, 14.402 4082.336, 14.402 4072.336, 14.402 4062.336, 14.402 4052.336, 14.402 4042.336, 14.402 4032.336, 14.402 4022.336, 14.402 4012.336, 14.402 4002.336, 14.402 3992.336, 14.402 3982.336, 14.402 3972.336, 14.402 3962.336, 14.402 3952.336, 14.402 3942.336, 14.402 3932.336, 14.402 3922.336, 14.402 3912.336, 14.402 3902.336, 14.402 3892.336, 14.402 3882.336, 14.402 3872.336, 14.402 3862.336, 14.402 3852.336, 14.402 3842.336, 14.402 3832.336, 14.402 3822.336, 14.402 3812.336, 14.402 3802.336, 14.402 3792.336, 14.402 3782.336, 14.402 3772.336, 14.402 3762.336, 14.402 3752.336, 14.402 3742.336, 14.402 3732.336, 14.402 3722.336, 14.402 3712.336, 14.402 3702.336, 14.402 3692.336, 14.402 3682.336, 14.402 3672.336, 14.402 3662.336, 14.402 3652.336, 14.402 3642.336, 14.402 3632.336, 14.402 3622.336, 14.402 3612.336, 14.402 3602.336, 14.402 3592.336, 14.402 3582.336, 14.402 3572.336, 14.402 3562.336, 14.402 3552.336, 14.402 3542.336, 14.402 3532.336, 14.402 3522.336, 14.402 3512.336, 14.402 3502.336, 14.402 3492.336, 14.402 3482.336, 14.402 3472.336, 14.402 3462.336, 14.402 3452.336, 14.402 3442.336, 14.402 3432.336, 14.402 3422.336, 14.402 3412.336, 14.402 3402.336, 14.402 3392.336, 14.402 3382.336, 14.402 3372.336, 14.402 3362.336, 14.402 3352.336, 14.402 3342.336, 14.402 3332.336, 14.402 3322.336, 14.402 3312.336, 14.402 3302.336, 14.402 3292.336, 14.402 3282.336, 14.402 3272.336, 14.402 3262.336, 14.402 3252.336, 14.402 3242.336, 14.402 3232.336, 14.402 3222.336, 14.402 3212.336, 14.402 3202.336, 14.402 3192.336, 14.402 3182.336, 14.402 3172.336, 14.402 3162.336, 14.402 3152.336, 14.402 3142.336, 14.402 3132.336, 14.402 3122.336, 14.402 3112.336, 14.402 3102.336, 14.402 3092.336, 14.402 3082.336, 14.402 3072.336, 14.402 3062.336, 14.402 3052.336, 14.402 3042.336, 14.402 3032.336, 14.402 3022.336, 14.402 3012.336, 14.402 3002.336, 14.402 2992.336, 14.402 2982.336, 14.402 2972.336, 14.402 2962.336, 14.402 2952.336, 14.402 2942.336, 14.402 2932.336, 14.402 2922.336, 14.402 2912.336, 14.402 2902.336, 14.402 2892.336, 14.402 2882.336, 14.402 2872.336, 14.402 2862.336, 14.402 2852.336, 14.402 2842.336, 14.402 2832.336, 14.402 2822.336, 14.402 2812.336, 14.402 2802.336, 14.402 2792.336, 14.402 2782.336, 14.402 2772.336, 14.402 2762.336, 14.402 2752.336, 14.402 2742.336, 14.402 2732.336, 14.402 2722.336, 14.402 2712.336, 14.402 2702.336, 14.402 2692.336, 14.402 2682.336, 14.402 2672.336, 14.402 2662.336, 14.402 2652.336, 14.402 2642.336, 14.402 2632.336, 14.402 2622.336, 14.402 2612.336, 14.402 2602.336, 14.402 2592.336, 14.402 2582.336, 14.402 2572.336, 14.402 2562.336, 14.402 2552.336, 14.402 2542.336, 14.402 2532.336, 14.402 2522.336, 14.402 2512.336, 14.402 2502.336, 14.402 2492.336, 14.402 2482.336, 14.402 2472.336, 14.402 2462.336, 14.402 2452.336, 14.402 2442.336, 14.402 2432.336, 14.402 2422.336, 14.402 2412.336, 14.402 2402.336, 14.402 2392.336, 14.402 2382.336, 14.402 2372.336, 14.402 2362.336, 14.402 2352.336, 14.402 2342.336, 14.402 2332.336, 14.402 2322.336, 14.402 2312.336, 14.402 2302.337, 14.402 2292.336, 14.402 2282.337, 14.402 2272.336, 14.402 2262.337, 14.402 2252.336, 14.402 2242.337, 14.402 2232.336, 14.402 2222.337, 14.402 2212.336, 14.402 2202.337, 14.402 2192.336, 14.402 2182.336, 14.402 2172.336, 14.402 2162.336, 14.402 2152.336, 14.402 2142.336, 14.402 2132.336, 14.402 2122.336, 14.402 2112.336, 14.402 2102.336, 14.402 2092.336, 14.402 2082.336, 14.402 2072.336, 14.402 2062.336, 14.402 2052.336, 14.402 2042.336, 14.402 2032.336, 14.402 2022.336, 14.402 2012.336, 14.402 2002.336, 14.402 1992.336, 14.402 1982.336, 14.402 1972.336, 14.402 1962.336, 14.402 1952.336, 14.402 1942.336, 14.402 1932.336, 14.402 1922.336, 14.402 1912.336, 14.402 1902.336, 14.402 1892.336, 14.402 1882.336, 14.402 1872.336, 14.402 1862.336, 14.402 1852.336, 14.402 1842.336, 14.402 1832.336, 14.402 1822.336, 14.402 1812.336, 14.402 1802.336, 14.402 1792.336, 14.402 1782.336, 14.402 1772.336, 14.402 1762.336, 14.402 1752.336, 14.402 1742.336, 14.402 1732.337, 14.402 1722.336, 14.402 1712.337, 14.402 1702.336, 14.402 1692.337, 14.402 1682.336, 14.402 1672.337, 14.402 1662.336, 14.402 1652.337, 14.402 1642.336, 14.402 1632.337, 14.402 1622.336, 14.402 1612.337, 14.402 1602.336, 14.402 1592.337, 14.402 1582.336, 14.402 1572.337, 14.402 1562.336, 14.402 1552.337, 14.402 1542.336, 14.402 1532.337, 14.402 1522.336, 14.402 1512.337, 14.402 1502.336, 14.402 1492.337, 14.402 1482.336, 14.402 1472.337, 14.402 1462.336, 14.402 1452.337, 14.402 1442.336, 14.402 1432.337, 14.402 1422.336, 14.402 1412.337, 14.402 1402.336, 14.402 1392.337, 14.402 1382.336, 14.402 1372.337, 14.402 1362.336, 14.402 1352.337, 14.402 1342.336, 14.402 1332.337, 14.402 1322.336, 14.402 1312.337, 14.402 1302.336, 14.402 1292.337, 14.402 1282.336, 14.402 1272.337, 14.402 1262.336, 14.402 1252.337, 14.402 1242.336, 14.402 1232.337, 14.402 1222.336, 14.402 1212.337, 14.402 1202.336, 14.402 1192.337, 14.402 1182.336, 14.402 1172.337, 14.402 1162.336, 14.402 1152.337, 14.402 1142.336, 14.402 1132.337, 14.402 1122.336, 14.402 1112.337, 14.402 1102.336, 14.402 1092.337, 14.402 1082.336, 14.402 1072.337, 14.402 1062.336, 14.402 1052.337, 14.402 1042.336, 14.402 1032.337, 14.402 1022.336, 14.402 1012.337, 14.402 1002.336, 14.402 992.337, 14.402 982.336, 14.402 972.337, 14.402 962.336, 14.402 952.337, 14.402 942.336, 14.402 932.337, 14.402 922.336, 14.402 912.337, 14.402 902.336, 14.402 892.337, 14.402 882.336, 14.402 872.337, 14.402 862.336, 14.402 852.337, 14.402 842.336, 14.402 832.337, 14.402 822.336, 14.402 812.337, 14.402 802.336, 14.402 792.337, 14.402 782.336, 14.402 772.337, 14.402 762.336, 14.402 752.337, 14.402 742.336, 14.402 732.337, 14.402 722.336, 14.402 712.337, 14.402 702.336, 14.402 692.337, 14.402 682.336, 14.402 672.337, 14.402 662.336, 14.402 652.337, 14.402 642.336, 14.402 632.337, 14.402 622.336, 14.402 612.337, 14.402 602.336, 14.402 592.337, 14.402 582.336, 14.402 572.337, 14.402 562.336, 14.402 552.337, 14.402 542.336, 14.402 532.337, 14.402 522.336, 14.402 512.337, 14.402 502.336, 14.402 492.337, 14.402 482.336, 14.402 472.337, 14.402 462.336, 14.402 452.337, 14.402 442.336, 14.402 432.337, 14.402 422.336, 14.402 412.337, 14.402 402.336, 14.402 392.337, 14.402 382.336, 14.402 372.337, 14.402 362.336, 14.402 352.337, 14.402 342.336, 14.402 332.337, 14.402 322.336, 14.402 312.337, 14.402 302.336, 14.402 292.337, 14.402 282.336, 14.402 272.337, 14.402 262.336, 14.402 252.337, 14.402 242.336, 14.402 232.337, 14.402 222.336, 14.402 212.337, 14.402 202.336, 14.402 192.337, 14.402 182.336, 14.402 172.337, 14.402 162.336, 14.402 152.337, 14.402 142.336, 14.402 132.337, 14.402 122.336, 14.402 112.337, 14.402 102.336, 14.402 92.337, 14.402 82.336, 14.402 72.337, 14.402 62.336, 14.402 52.337, 14.402 42.336, 14.402 32.337, 14.402 22.336, 14.402 12.337, 14.402 2.336, 14.402 -7.663, 14.402 -17.664, 14.402 -27.663, 14.402 -37.664, 14.402 -47.663, 14.402 -57.664, 14.402 -67.663, 14.402 -77.664, 14.402 -87.664, 14.402 -97.664, 14.402 -107.664, 14.402 -117.664, 14.402 -127.664, 14.402 -137.664, 14.402 -147.664, 14.402 -157.664, 14.402 -167.664, 14.402 -177.664, 14.402 -187.664, 14.402 -197.664, 14.402 -207.664, 14.402 -217.664, 14.402 -227.664, 14.402 -237.664, 14.402 -247.664, 14.402 -257.664, 14.402 -267.664, 14.402 -277.664, 14.402 -287.664, 14.402 -297.664, 14.402 -307.664, 14.402 -317.663, 14.402 -327.664, 14.402 -337.663, 14.402 -347.664, 14.402 -357.663, 14.402 -367.664, 14.402 -377.663, 14.402 -387.664, 14.402 -397.663, 14.402 -407.664, 14.402 -417.663, 14.402 -427.664, 14.402 -437.663, 14.402 -447.664, 14.402 -457.663, 14.402 -467.664, 14.402 -477.663, 14.402 -487.664, 14.402 -497.663, 14.402 -507.664, 14.402 -517.663, 14.402 -527.664, 14.402 -537.663, 14.402 -547.664, 14.402 -557.663, 14.402 -567.664, 14.402 -577.663, 14.402 -587.664, 14.402 -597.663, 14.402 -607.664, 14.402 -617.663, 14.402 -627.664, 14.402 -637.663, 14.402 -647.664, 14.402 -657.663, 14.402 -667.664, 14.402 -677.663, 14.402 -687.664, 14.402 -697.663, 14.402 -707.664, 14.402 -717.663, 14.402 -727.664, 14.402 -737.663, 14.402 -747.664, 14.402 -757.663, 14.402 -767.664, 14.402 -777.663, 14.402 -787.664, 14.402 -797.663, 14.402 -807.664, 14.402 -817.663, 14.402 -827.664, 14.402 -837.663, 14.402 -847.664, 14.402 -857.663, 14.402 -867.664, 14.402 -877.663, 14.402 -887.664, 14.402 -897.663, 14.402 -907.664, 14.402 -917.663, 14.402 -927.664, 14.402 -937.663, 14.402 -947.664, 14.402 -957.663, 14.402 -967.664, 14.402 -977.663, 14.402 -987.664, 14.402 -997.663, 14.402 -1007.664, 14.402 -1017.663, 14.402 -1027.664, 14.402 -1037.663, 14.402 -1047.664, 14.402 -1057.663, 14.402 -1067.664, 14.402 -1077.663, 14.402 -1087.664, 14.402 -1097.663, 14.402 -1107.664, 14.402 -1117.663, 14.402 -1127.664, 14.402 -1137.663, 14.402 -1147.664, 14.402 -1157.663, 14.402 -1167.664, 14.402 -1177.663, 14.402 -1187.664, 14.402 -1197.663, 14.402 -1207.664, 14.402 -1217.663, 14.402 -1227.664, 14.402 -1237.663, 14.402 -1247.664, 14.402 -1257.663, 14.402 -1267.664, 14.402 -1277.663, 14.402 -1287.664, 14.402 -1297.663, 14.402 -1307.664, 14.402 -1317.663, 14.402 -1327.664, 14.402 -1337.663, 14.402 -1347.664, 14.402 -1357.663, 14.402 -1367.664, 14.402 -1377.663, 14.402 -1387.664, 14.402 -1397.663, 14.402 -1407.664, 14.402 -1417.663, 14.402 -1427.664, 14.402 -1437.663, 14.402 -1447.664, 14.402 -1457.663, 14.402 -1467.664, 14.402 -1477.663, 14.402 -1487.664, 14.402 -1497.663, 14.402 -1507.664, 14.402 -1517.663, 14.402 -1527.664, 14.402 -1537.663, 14.402 -1547.664, 14.402 -1557.663, 14.402 -1567.664, 14.402 -1577.663, 14.402 -1587.664, 14.402 -1597.663, 14.402 -1607.664, 14.402 -1617.663, 14.402 -1627.664, 14.402 -1637.663, 14.402 -1647.664, 14.402 -1657.663, 14.402 -1667.664, 14.402 -1677.663, 14.402 -1687.664, 14.402 -1697.663, 14.402 -1707.664, 14.402 -1717.663, 14.402 -1727.664, 14.402 -1737.663, 14.402 -1747.664, 14.402 -1757.663, 14.402 -1767.664, 14.402 -1777.663, 14.402 -1787.664, 14.402 -1797.663, 14.402 -1807.664, 14.402 -1817.663, 14.402 -1827.664, 14.402 -1837.663, 14.402 -1847.664, 14.402 -1857.663, 14.402 -1867.664, 14.402 -1877.663, 14.402 -1887.664, 14.402 -1897.663, 14.402 -1907.664, 14.402 -1917.663, 14.402 -1927.664, 14.402 -1937.663, 14.402 -1947.664, 14.402 -1957.663, 14.402 -1967.664, 14.402 -1977.663, 14.402 -1987.664, 14.402 -1997.663, 14.402 -2007.664, 14.402 -2017.663, 14.402 -2027.664, 14.402 -2037.663, 14.402 -2047.664, 14.402 -2057.663, 14.402 -2067.664, 14.402 -2077.663, 14.402 -2087.664, 14.402 -2097.663, 14.402 -2107.664, 14.402 -2117.663, 14.402 -2127.663, 14.402 -2137.664, 14.402 -2147.664, 14.402 -2157.663, 14.402 -2167.663, 14.402 -2177.664, 14.402 -2187.664, 14.402 -2197.663, 14.402 -2207.663, 14.402 -2217.664, 14.402 -2227.664, 14.402 -2237.663, 14.402 -2247.663, 14.402 -2257.664, 14.402 -2267.664, 14.402 -2277.663, 14.402 -2287.663, 14.402 -2297.664, 14.402 -2307.664, 14.402 -2317.663, 14.402 -2327.663, 14.402 -2337.664, 14.402 -2347.664, 14.402 -2357.663, 14.402 -2367.664, 14.402 -2377.664, 14.402 -2387.664, 14.402 -2397.663, 14.402 -2407.664, 14.402 -2417.664, 14.402 -2427.664, 14.402 -2437.663, 14.402 -2447.664, 14.402 -2457.664, 14.402 -2467.664, 14.402 -2477.663, 14.402 -2487.664, 14.402 -2497.664, 14.402 -2507.664, 14.402 -2517.663, 14.402 -2527.664, 14.402 -2537.664, 14.402 -2547.664, 14.402 -2557.663, 14.402 -2567.664, 14.402 -2577.664, 14.402 -2587.663, 14.402 -2597.663, 14.402 -2607.664, 14.402 -2617.664, 14.402 -2627.663, 14.402 -2637.663, 14.402 -2647.664, 14.402 -2657.664, 14.402 -2667.663, 14.402 -2677.663, 14.402 -2687.664, 14.402 -2697.664, 14.402 -2707.663, 14.402 -2717.663, 14.402 -2727.664, 14.402 -2737.664, 14.402 -2747.663, 14.402 -2757.663, 14.402 -2767.664, 14.402 -2777.664, 14.402 -2787.663, 14.402 -2797.663, 14.402 -2807.664, 14.402 -2817.664, 14.402 -2827.663, 14.402 -2837.663, 14.402 -2847.664, 14.402 -2857.664, 14.402 -2867.663, 14.402 -2877.663, 14.402 -2887.664, 14.402 -2897.664, 14.402 -2907.663, 14.402 -2917.663, 14.402 -2927.664, 14.402 -2937.664, 14.402 -2947.663, 14.402 -2957.663, 14.402 -2967.664, 14.402 -2977.664, 14.402 -2987.663, 14.402 -2997.663, 14.402 -3007.664, 14.402 -3017.664, 14.402 -3027.663, 14.402 -3037.663, 14.402 -3047.664, 14.402 -3057.664, 14.402 -3067.663, 14.402 -3077.663, 14.402 -3087.664, 14.402 -3097.664, 14.402 -3107.663, 14.402 -3117.663, 14.402 -3127.664, 14.402 -3137.664, 14.402 -3147.663, 14.402 -3157.663, 14.402 -3167.664, 14.402 -3177.664, 14.402 -3187.663, 14.402 -3197.663, 14.402 -3207.664, 14.402 -3217.664, 14.402 -3227.663, 14.402 -3237.663, 14.402 -3247.664, 14.402 -3257.664, 14.402 -3267.663, 14.402 -3277.663, 14.402 -3287.664, 14.402 -3297.664, 14.402 -3307.663, 14.402 -3317.663, 14.402 -3327.664, 14.402 -3337.664, 14.402 -3347.663, 14.402 -3357.663, 14.402 -3367.664, 14.402 -3377.664, 14.402 -3387.663, 14.402 -3397.663, 14.402 -3407.664, 14.402 -3417.664, 14.402 -3427.663, 14.402 -3437.663, 14.402 -3447.664, 14.402 -3457.664, 14.402 -3467.663, 14.402 -3477.663, 14.402 -3487.664, 14.402 -3497.664, 14.402 -3507.663, 14.402 -3517.663, 14.402 -3527.664, 14.402 -3537.664, 14.402 -3547.663, 14.402 -3557.663, 14.402 -3567.664, 14.402 -3577.664, 14.402 -3587.663, 14.402 -3597.663, 14.402 -3607.664, 14.402 -3617.664, 14.402 -3627.663, 14.402 -3637.663, 14.402 -3647.664, 14.402 -3657.664, 14.402 -3667.663, 14.402 -3677.663, 14.402 -3687.664, 14.402 -3697.664, 14.402 -3707.663, 14.402 -3717.663, 14.402 -3727.664, 14.402 -3737.664, 14.402 -3747.663, 14.402 -3757.663, 14.402 -3767.664, 14.402 -3777.664, 14.402 -3787.663, 14.402 -3797.663, 14.402 -3807.664, 14.402 -3817.664, 14.402 -3827.663, 14.402 -3837.663, 14.402 -3847.664, 14.402 -3857.664, 14.402 -3867.663, 14.402 -3877.663, 14.402 -3887.664, 14.402 -3897.664, 14.402 -3907.663, 14.402 -3917.663, 14.402 -3927.664, 14.402 -3937.664, 14.402 -3947.663, 14.402 -3957.663, 14.402 -3967.664, 14.402 -3977.664, 14.402 -3987.663, 14.402 -3997.663, 14.402 -4007.664, 14.402 -4017.664, 14.402 -4027.663, 14.402 -4037.663, 14.402 -4047.664, 14.402 -4057.664, 14.402 -4067.663, 14.402 -4077.663, 14.402 -4087.664, 14.402 -4097.664, 14.402 -4107.663, 14.402 -4117.663, 14.402 -4127.664, 14.402 -4137.664, 14.402 -4147.663, 14.402 -4157.663, 14.402 -4167.664, 14.402 -4177.664, 14.402 -4187.663, 14.402 -4197.663, 14.402 -4207.664, 14.402 -4217.664, 14.402 -4227.663, 14.402 -4237.663, 14.402 -4247.664, 14.402 -4257.664, 14.402 -4267.663, 14.402 -4277.663, 14.402 -4287.664, 14.402 -4297.664, 14.402 -4307.663, 14.402 -4317.663, 14.402 -4327.664, 14.402 -4337.664, 14.402 -4347.663, 14.402 -4357.663, 14.402 -4367.664, 14.402 -4377.664, 14.402 -4387.663, 14.402 -4397.663, 14.402 -4407.664, 14.402 -4417.664, 14.402 -4427.663, 14.402 -4437.663, 14.402 -4447.664, 14.402 -4457.664, 14.402 -4467.663, 14.402 -4477.663, 14.402 -4487.664, 14.402 -4497.664, 14.402 -4507.663, 14.402 -4517.663, 14.402 -4527.664, 14.402 -4537.664, 14.402 -4547.663, 14.402 -4557.663, 14.402 -4567.664, 14.402 -4577.664, 14.402 -4587.663, 14.402 -4597.663, 14.402 -4607.664, 14.402 -4617.664, 14.402 -4627.663, 14.402 -4637.664, 14.402 -4647.664, 14.402 -4657.664, 14.402 -4667.663, 14.402 -4677.664, 14.402 -4687.664, 14.402 -4697.664, 14.402 -4707.663, 14.402 -4717.664, 14.402 -4727.664, 14.402 -4737.664, 14.402 -4747.663, 14.402 -4757.664, 14.402 -4767.664, 14.402 -4777.664, 14.402 -4787.663, 14.402 -4797.664, 14.402 -4807.664, 14.402 -4817.664, 14.402 -4827.663, 14.402 -4837.664, 14.402 -4847.664, 14.402 -4857.664, 14.402 -4867.663, 14.402 -4877.664, 14.402 -4887.664, 14.402 -4897.664, 14.402 -4907.663, 14.402 -4917.664, 14.402 -4927.664, 14.402 -4937.664, 14.402 -4947.663, 14.402 -4957.664, 14.402 -4967.664, 14.402 -4977.664, 14.402 -4987.663, 14.402 -4997.664, 14.402 -5007.664, 14.402 -5017.664, 14.402 -5027.663, 14.402 -5037.664, 14.402 -5047.664, 14.402 -5057.664, 14.402 -5067.663, 14.402 -5077.664, 14.402 -5087.664, 14.402 -5097.664, 14.402 -5107.663, 14.402 -5117.664, 14.402 -5127.664, 14.402 -5137.664, 14.402 -5147.663, 14.402 -5157.664, 14.402 -5167.664, 14.402 -5177.664, 14.402 -5187.663, 14.402 -5197.664, 14.402 -5207.664, 14.402 -5217.664, 14.402 -5227.663, 14.402 -5237.664, 14.402 -5247.664, 14.402 -5257.664, 14.402 -5267.663, 14.402 -5277.664, 14.402 -5287.664, 14.402 -5297.664, 14.402 -5307.663, 14.402 -5317.664, 14.402 -5327.664, 14.402 -5337.664, 14.402 -5347.663, 14.402 -5357.664, 14.402 -5367.664, 14.402 -5377.664, 14.402 -5387.663, 14.402 -5397.664, 14.402 -5407.664, 14.402 -5417.663, 14.402 -5427.663, 14.402 -5437.664, 14.402 -5447.664, 14.402 -5457.663, 14.402 -5467.663, 14.402 -5477.664, 14.402 -5487.664, 14.402 -5497.663, 14.402 -5507.663, 14.402 -5517.664, 14.402 -5527.664, 14.402 -5537.663, 14.402 -5547.663, 14.402 -5557.664, 14.402 -5567.664, 14.402 -5577.663, 14.402 -5587.663, 14.402 -5597.664, 14.402 -5607.664, 14.402 -5617.663, 14.402 -5627.663, 14.402 -5637.664, 14.402 -5647.664, 14.402 -5657.663, 14.402 -5667.663, 14.402 -5677.664, 14.402 -5687.664, 14.402 -5697.663, 14.402 -5707.663, 14.402 -5717.664, 14.402 -5727.664, 14.402 -5737.663, 14.402 -5747.663, 14.402 -5757.664, 14.402 -5767.664, 14.402 -5777.663, 14.402 -5787.663, 14.402 -5797.664, 14.402 -5807.664, 14.402 -5817.663, 14.402 -5827.663, 14.402 -5837.664, 14.402 -5847.664, 14.402 -5857.663, 14.402 -5867.663, 14.402 -5877.664, 14.402 -5887.664, 14.402 -5897.663, 14.402 -5907.663, 14.402 -5917.664, 14.402 -5927.664, 14.402 -5937.663, 14.402 -5947.663, 14.402 -5957.664, 14.402 -5967.664, 14.402 -5977.663, 14.402 -5987.663, 14.402 -5997.664, 14.402 -6007.664, 14.402 -6017.663, 14.402 -6027.663, 14.402 -6037.664, 14.402 -6047.664, 14.402 -6057.663, 14.402 -6067.663, 14.402 -6077.664, 14.402 -6087.664, 14.402 -6097.663, 14.402 -6107.663, 14.402 -6117.664, 14.402 -6127.664, 14.402 -6137.663, 14.402 -6147.663, 14.402 -6157.664, 14.402 -6167.664, 14.402 -6177.663, 14.402 -6187.663, 14.402 -6197.664, 14.402 -6207.664, 14.402 -6217.663, 14.402 -6227.663, 14.402 -6237.664, 14.402 -6247.664, 14.402 -6257.663, 14.402 -6267.663, 14.402 -6277.664, 14.402 -6287.664, 14.402 -6297.663, 14.402 -6307.663, 14.402 -6317.664, 14.402 -6327.664, 14.402 -6337.663, 14.402 -6347.663, 14.402 -6357.664, 14.402 -6367.664, 14.402 -6377.663, 14.402 -6387.663, 14.402 -6397.664, 14.402 -6407.664, 14.402 -6417.663, 14.402 -6427.663, 14.402 -6437.664, 14.402 -6447.664, 14.402 -6457.663, 14.402 -6467.663, 14.402 -6477.664, 14.402 -6487.664, 14.402 -6497.663, 14.402 -6507.663, 14.402 -6517.664, 14.402 -6527.664, 14.402 -6537.663, 14.402 -6547.663, 14.402 -6557.664, 14.402 -6567.664, 14.402 -6577.663, 14.402 -6587.663, 14.402 -6597.664, 14.402 -6607.664, 14.402 -6617.663, 14.402 -6627.663, 14.402 -6637.664, 14.402 -6647.664, 14.402 -6657.663, 14.402 -6667.663, 14.402 -6677.664, 14.402 -6687.664, 14.402 -6697.663, 14.402 -6707.663, 14.402 -6717.664, 14.402 -6727.664, 14.402 -6737.663, 14.402 -6747.663, 14.402 -6757.664, 14.402 -6767.664, 14.402 -6777.663, 14.402 -6787.663, 14.402 -6797.664, 14.402 -6807.664, 14.402 -6817.663, 14.402 -6827.663, 14.402 -6837.664, 14.402 -6847.664, 14.402 -6857.663, 14.402 -6867.663, 14.402 -6877.664, 14.402 -6887.664, 14.402 -6897.663, 14.402 -6907.664, 14.402 -6917.664, 14.402 -6927.664, 14.402 -6937.663, 14.402 -6947.664, 14.402 -6957.664, 14.402 -6967.664, 14.402 -6977.663, 14.402 -6987.664, 14.402 -6997.664, 14.402 -7007.664, 14.402 -7017.663, 14.402 -7027.664, 14.402 -7037.664, 14.402 -7047.664, 14.402 -7057.663, 14.402 -7067.664, 14.402 -7077.664, 14.402 -7087.664, 14.402 -7097.663, 14.402 -7107.664, 14.402 -7117.664, 14.402 -7127.664, 14.402 -7137.663, 14.402 -7147.664, 14.402 -7157.664, 14.402 -7167.664, 14.402 -7177.663, 14.402 -7187.664, 14.402 -7197.664, 14.402 -7207.664, 14.402 -7217.663, 14.402 -7227.664, 14.402 -7237.664, 14.402 -7247.664, 14.402 -7257.663, 14.402 -7267.664, 14.402 -7277.664, 14.402 -7287.664, 14.402 -7297.663, 14.402 -7307.664, 14.402 -7317.664, 14.402 -7327.663, 14.402 -7337.663, 14.402 -7347.664, 14.402 -7357.664, 14.402 -7367.663, 14.402 -7377.663, 14.402 -7387.664, 14.402 -7397.664, 14.402 -7407.663, 14.402 -7417.663, 14.402 -7427.664, 14.402 -7437.664, 14.402 -7447.663, 14.402 -7457.663, 14.402 -7467.664, 14.402 -7477.664, 14.402 -7487.663, 14.402 -7497.663, 14.402 -7507.664, 14.402 -7517.664, 14.402 -7527.663, 14.402 -7537.663, 14.402 -7547.664, 14.402 -7557.664, 14.402 -7567.663, 14.402 -7577.663, 14.402 -7587.664, 14.402 -7597.664, 14.402 -7607.663, 14.402 -7617.663, 14.402 -7627.664, 14.402 -7637.664, 14.402 -7647.663, 14.402 -7657.663, 14.402 -7667.664, 14.402 -7677.664, 14.402 -7687.663, 14.402 -7697.663, 14.402 -7707.664, 14.402 -7717.664, 14.402 -7727.663, 14.402 -7737.663, 14.402 -7747.664, 14.402 -7757.664, 14.402 -7767.663, 14.402 -7777.663, 14.402 -7787.664, 14.402 -7797.664, 14.402 -7807.663, 14.402 -7817.663, 14.402 -7827.664, 14.402 -7837.664, 14.402 -7847.663, 14.402 -7857.663, 14.402 -7867.664, 14.402 -7877.664, 14.402 -7887.663, 14.402 -7897.663, 14.402 -7907.664, 14.402 -7917.664, 14.402 -7927.663, 14.402 -7937.663, 14.402 -7947.664, 14.402 -7957.664, 14.402 -7967.663, 14.402 -7977.663, 14.402 -7987.664, 14.402 -7997.664, 14.402 -8007.663, 14.402 -8017.663, 14.402 -8027.664, 14.402 -8037.664, 14.402 -8047.663, 14.402 -8057.663, 14.402 -8067.664, 14.402 -8077.664, 14.402 -8087.663, 14.402 -8097.663, 14.402 -8107.664, 14.402 -8117.664, 14.402 -8127.663, 14.402 -8137.663, 14.402 -8147.664, 14.402 -8157.664, 14.402 -8167.663, 14.402 -8177.663, 14.402 -8187.664, 14.402 -8197.663, 14.402 -8207.663, 14.402 -8217.663, 14.402 -8227.664, 14.402 -8237.663, 14.402 -8247.663, 14.402 -8257.663, 14.402 -8267.664, 14.402 -8277.663, 14.402 -8287.663, 14.402 -8297.663, 14.402 -8307.664, 14.402 -8317.663, 14.402 -8327.663, 14.402 -8337.663, 14.402 -8347.664, 14.402 -8357.663, 14.402 -8367.663, 14.402 -8377.663, 14.402 -8387.664, 14.402 -8397.663, 14.402 -8407.663, 14.402 -8417.663, 14.402 -8427.664, 14.402 -8437.663, 14.402 -8447.663, 14.402 -8457.663, 14.402 -8467.664, 14.402 -8477.663, 14.402 -8487.663, 14.402 -8497.663, 14.402 -8507.664, 14.402 -8517.663, 14.402 -8527.663, 14.402 -8537.663, 14.402 -8547.664, 14.402 -8557.663, 14.402 -8567.663, 14.402 -8577.663, 14.402 -8587.664, 14.402 -8597.663, 14.402 -8607.663, 14.402 -8617.663, 14.402 -8627.664, 14.402 -8637.663, 14.402 -8647.663, 14.402 -8657.663, 14.402 -8667.664, 14.402 -8677.663, 14.402 -8687.663, 14.402 -8697.663, 14.402 -8707.664, 14.402 -8717.663, 14.402 -8727.663, 14.402 -8737.663, 14.402 -8747.664, 14.402 -8757.663, 14.402 -8767.663, 14.402 -8777.663, 14.402 -8787.664, 14.402 -8797.663, 14.402 -8807.663, 14.402 -8817.663, 14.402 -8827.664, 14.402 -8837.663, 14.402 -8847.663, 14.402 -8857.663, 14.402 -8867.664, 14.402 -8877.663, 14.402 -8887.663, 14.402 -8897.663, 14.402 -8907.664, 14.402 -8917.663, 14.402 -8927.663, 14.402 -8937.663, 14.402 -8947.664, 14.402 -8957.663, 14.402 -8967.663, 14.402 -8977.663, 14.402 -8987.664, 14.402 -8997.663, 14.402 -9007.663, 14.402 -9017.663, 14.402 -9027.664, 14.402 -9037.663, 14.402 -9047.663, 14.402 -9057.663, 14.402 -9067.664, 14.402 -9077.663, 14.402 -9087.663, 14.402 -9097.663, 14.402 -9107.664, 14.402 -9117.663, 14.402 -9127.663, 14.402 -9137.663, 14.402 -9147.664, 14.402 -9157.663, 14.402 -9167.663, 14.402 -9177.664, 14.402 -9187.664, 14.402 -9197.663, 14.402 -9207.663, 14.402 -9217.664, 14.402 -9227.664, 14.402 -9237.663, 14.402 -9247.663, 14.402 -9257.664, 14.402 -9267.664, 14.402 -9277.663, 14.402 -9287.663, 14.402 -9297.664, 14.402 -9307.664, 14.402 -9317.663, 14.402 -9327.663, 14.402 -9337.664, 14.402 -9347.664, 14.402 -9357.663, 14.402 -9367.663, 14.402 -9377.664, 14.402 -9387.664, 14.402 -9397.663, 14.402 -9407.663, 14.402 -9417.664, 14.402 -9427.663, 14.402 -9437.663, 14.402 -9447.663, 14.402 -9457.664, 14.402 -9467.663, 14.402 -9477.663, 14.402 -9487.663, 14.402 -9497.664, 14.402 -9507.663, 14.402 -9517.663, 14.402 -9527.663, 14.402 -9537.664, 14.402 -9547.663, 14.402 -9557.663, 14.402 -9567.663, 14.402 -9577.664, 14.402 -9587.663, 14.402 -9597.663, 14.402 -9607.663, 14.402 -9617.664, 14.402 -9627.663, 14.402 -9637.663, 14.402 -9647.663, 14.402 -9657.664, 14.402 -9667.663, 14.402 -9677.663, 14.402 -9687.663, 14.402 -9697.664, 14.402 -9707.663, 14.402 -9717.663, 14.402 -9727.663, 14.402 -9737.664, 14.402 -9747.663, 14.402 -9757.663, 14.402 -9767.663, 14.402 -9777.664, 14.402 -9787.663, 14.402 -9797.663, 14.402 -9807.663, 14.402 -9817.664, 14.402 -9827.663, 14.402 -9837.663, 14.402 -9847.663, 14.402 -9857.664, 14.402 -9867.663, 14.402 -9877.663, 14.402 -9887.663, 14.402 -9897.664, 14.402 -9907.663, 14.402 -9917.663, 14.402 -9927.663, 14.402 -9937.664, 14.402 -9947.663, 14.402 -9957.663, 14.402 -9967.663, 14.402 -9977.664, 14.402 -9987.663, 14.402 -9997.663, 14.402 -10007.663, 14.402 -10017.664, 14.402 -10027.663, 14.402 -10037.663, 14.402 -10047.663, 14.402 -10057.664, 14.402 -10067.663, 14.402 -10077.663, 14.402 -10087.663, 14.402 -10097.664, 14.402 -10107.663, 14.402 -10117.663, 14.402 -10127.663, 14.402 -10137.664, 14.402 -10147.663, 14.402 -10157.663, 14.402 -10167.663, 14.402 -10177.664, 14.402 -10187.663, 14.402 -10197.663, 14.402 -10207.663, 14.402 -10217.664, 14.402 -10227.663, 14.402 -10237.663, 14.402 -10247.663, 14.402 -10257.664, 14.402 -10267.663, 14.402 -10277.663, 14.402 -10287.663, 14.402 -10297.664, 14.402 -10307.663, 14.402 -10317.663, 14.402 -10327.663, 14.402 -10337.664, 14.402 -10347.663, 14.402 -10357.663, 14.402 -10367.663, 14.402 -10377.664, 14.402 -10387.663, 14.402 -10397.663, 14.402 -10407.663, 14.402 -10417.664, 14.402 -10427.663, 14.402 -10437.663, 14.402 -10447.663, 14.402 -10457.664, 14.402 -10467.663, 14.402 -10477.663, 14.402 -10487.663, 14.402 -10497.664, 14.402 -10507.663, 14.402 -10517.663, 14.402 -10527.663, 14.402 -10537.664, 14.402 -10547.663, 14.402 -10557.663, 14.402 -10567.663, 14.402 -10577.664, 14.402 -10587.663, 14.402 -10597.663, 14.402 -10607.663, 14.402 -10617.664, 14.402 -10627.663, 14.402 -10637.663, 14.402 -10647.663, 14.402 -10657.664, 14.402 -10667.663, 14.402 -10677.663, 14.402 -10687.663, 14.402 -10697.664, 14.402 -10707.663, 14.402 -10717.663, 14.402 -10727.663, 14.402 -10737.664, 14.402 -10747.663, 14.402 -10757.663, 14.402 -10767.663, 14.402 -10777.664, 14.402 -10787.663, 14.402 -10797.663, 14.402 -10979.626, 14.402 " />
            <path fill="none" stroke-width="3.0" stroke-linecap="butt" stroke-opacity="1.0" stroke="rgb(0, 0, 0)" stroke-linejoin="round" d=" M 625.111, 1374.333 635.111, 1374.335 645.111, 1374.336 655.111, 1374.338 665.111, 1374.340 675.111, 1374.341 685.111, 1374.343 695.111, 1374.344 705.111, 1374.346 715.111, 1374.347 725.111, 1374.349 735.111, 1374.351 745.111, 1374.352 755.111, 1374.354 765.111, 1374.355 775.111, 1374.357 785.111, 1374.359 795.111, 1374.360 805.111, 1374.362 815.111, 1374.363 825.111, 1374.365 835.111, 1374.367 845.111, 1374.368 855.111, 1374.370 865.111, 1374.371 875.111, 1374.373 885.111, 1374.375 895.111, 1374.376 905.111, 1374.378 915.111, 1374.379 925.111, 1374.381 935.111, 1374.382 945.111, 1374.384 955.111, 1374.386 965.111, 1374.387 975.111, 1374.389 985.111, 1374.390 995.111, 1374.392 1005.111, 1374.394 1015.111, 1374.395 1025.111, 1374.397 1035.111, 1374.398 1045.111, 1374.400 1055.111, 1374.402 1065.111, 1374.403 1075.111, 1374.405 1085.111, 1374.406 1095.111, 1374.408 1105.111, 1374.410 1115.111, 1374.411 1125.111, 1374.413 1135.111, 1374.414 1145.111, 1374.416 1155.111, 1374.417 1165.111, 1374.419 1175.111, 1374.421 1185.111, 1374.422 1195.111, 1374.424 1205.111, 1374.425 1215.111, 1374.427 1225.111, 1374.429 1235.111, 1374.430 1245.111, 1374.432 1255.111, 1374.433 1265.111, 1374.435 1275.111, 1374.437 1285.111, 1374.438 1295.111, 1374.440 1305.111, 1374.441 1315.111, 1374.443 1325.111, 1374.445 1335.111, 1374.446 1345.111, 1374.448 1355.111, 1374.449 1365.111, 1374.451 1375.111, 1374.453 1385.111, 1374.454 1395.111, 1374.456 1405.111, 1374.457 1415.111, 1374.459 1425.111, 1374.460 1435.111, 1374.462 1445.111, 1374.464 1455.111, 1374.465 1465.111, 1374.467 1475.111, 1374.468 1485.111, 1374.470 1495.111, 1374.472 1505.111, 1374.473 1515.111, 1374.475 1525.111, 1374.476 1535.111, 1374.478 1545.111, 1374.480 1555.111, 1374.481 1565.111, 1374.483 1575.111, 1374.484 1585.111, 1374.486 1595.111, 1374.488 1605.111, 1374.489 1615.111, 1374.491 1625.111, 1374.492 1635.111, 1374.494 1645.111, 1374.495 1655.111, 1374.497 1665.111, 1374.499 1675.111, 1374.500 1685.111, 1374.502 1695.111, 1374.503 1705.111, 1374.505 1715.111, 1374.507 1725.111, 1374.508 1735.111, 1374.510 1745.111, 1374.511 1755.111, 1374.513 1765.111, 1374.515 1775.111, 1374.516 1785.111, 1374.518 1795.111, 1374.519 1805.111, 1374.521 1815.111, 1374.523 1825.111, 1374.524 1835.111, 1374.526 1845.111, 1374.527 1855.111, 1374.529 1865.111, 1374.530 1875.111, 1374.532 1885.111, 1374.534 1895.111, 1374.535 1905.111, 1374.537 1915.111, 1374.538 1925.111, 1374.540 1935.111, 1374.542 1945.111, 1374.543 1955.111, 1374.545 1965.111, 1374.546 1975.111, 1374.548 1985.111, 1374.550 1995.111, 1374.551 2005.111, 1374.553 2015.111, 1374.554 2025.111, 1374.556 2035.111, 1374.558 2045.111, 1374.559 2055.111, 1374.561 2065.111, 1374.562 2075.111, 1374.564 2085.111, 1374.565 2095.111, 1374.567 2105.111, 1374.569 2115.111, 1374.570 2125.111, 1374.572 2135.111, 1374.573 2145.111, 1374.575 2155.111, 1374.577 2165.111, 1374.578 2175.111, 1374.580 2185.111, 1374.581 2195.111, 1374.583 2205.111, 1374.585 2215.111, 1374.586 2225.111, 1374.588 2235.111, 1374.589 2245.111, 1374.591 2255.111, 1374.593 2265.111, 1374.594 2275.111, 1374.596 2285.111, 1374.597 2295.111, 1374.599 2305.111, 1374.600 2315.111, 1374.602 2325.111, 1374.604 2335.111, 1374.605 2345.111, 1374.607 2355.111, 1374.608 2365.111, 1374.610 2375.111, 1374.612 2400.288, 1374.616 " />
            <path fill="none" stroke-width="3.0" stroke-linecap="butt" stroke-opacity="1.0" stroke="rgb(0, 0, 0)" stroke-linejoin="round" d=" M 479.527, 1269.078 474.144, 1260.651 468.760, 1252.224 463.377, 1243.796 457.993, 1235.369 452.610, 1226.942 447.227, 1218.515 441.843, 1210.087 437.668, 1203.552 " />
            <path fill="none" stroke-width="3.0" stroke-linecap="butt" stroke-opacity="1.0" stroke="rgb(0, 0, 0)" stroke-linejoin="round" d=" M 535.889, 1357.309 530.506, 1348.881 525.122, 1340.454 519.739, 1332.027 514.356, 1323.600 508.972, 1315.172 503.589, 1306.745 498.205, 1298.318 492.822, 1289.891 487.439, 1281.463 482.495, 1273.725 " />
            <path fill="none" stroke-width="3.0" stroke-linecap="butt" stroke-opacity="1.0" stroke="rgb(0, 0, 0)" stroke-linejoin="round" d=" M 1448.846, 1203.552 1451.545, 1213.180 1454.243, 1222.809 1456.942, 1232.438 1457.578, 1234.707 " />
            <path fill="none" stroke-width="3.0" stroke-linecap="butt" stroke-opacity="1.0" stroke="rgb(0, 0, 0)" stroke-linejoin="round" d=" M 2568.731, 1367.664 2558.731, 1367.664 2548.731, 1367.664 2538.731, 1367.664 2528.731, 1367.664 2518.731, 1367.664 2508.731, 1367.664 2498.731, 1367.664 2488.731, 1367.664 2478.731, 1367.664 2468.731, 1367.664 2458.731, 1367.664 2448.731, 1367.664 2438.731, 1367.664 2428.731, 1367.664 2418.731, 1367.664 2408.731, 1367.664 2398.731, 1367.664 2388.731, 1367.664 2378.731, 1367.664 2368.731, 1367.664 2358.731, 1367.664 2348.731, 1367.664 2338.731, 1367.664 2328.731, 1367.664 2318.731, 1367.664 2308.731, 1367.664 2298.731, 1367.664 2288.731, 1367.664 2278.731, 1367.664 2268.731, 1367.664 2258.731, 1367.664 2248.731, 1367.664 2238.731, 1367.664 2228.731, 1367.664 2218.731, 1367.664 2208.731, 1367.664 2198.731, 1367.664 2188.731, 1367.664 2178.731, 1367.664 2168.731, 1367.664 2158.731, 1367.664 2148.731, 1367.664 2138.731, 1367.664 2128.731, 1367.664 2118.731, 1367.664 2108.731, 1367.664 2098.731, 1367.664 2088.731, 1367.664 2078.731, 1367.664 2068.731, 1367.664 2058.731, 1367.664 2048.731, 1367.664 2038.731, 1367.664 2028.731, 1367.664 2018.731, 1367.664 2008.731, 1367.664 1998.731, 1367.664 1988.731, 1367.664 1978.731, 1367.664 1968.731, 1367.664 1958.731, 1367.664 1948.731, 1367.664 1938.731, 1367.664 1928.731, 1367.664 1918.731, 1367.664 1908.731, 1367.664 1898.731, 1367.664 1888.731, 1367.664 1878.731, 1367.664 1868.731, 1367.664 1858.731, 1367.664 1848.731, 1367.664 1838.731, 1367.664 1828.731, 1367.664 1818.731, 1367.664 1808.731, 1367.664 1798.731, 1367.664 1788.731, 1367.664 1778.731, 1367.664 1768.731, 1367.664 1758.731, 1367.664 1748.731, 1367.664 1738.731, 1367.664 1728.731, 1367.664 1718.731, 1367.664 1708.731, 1367.664 1698.731, 1367.664 1688.731, 1367.664 1678.731, 1367.664 1668.731, 1367.664 1658.731, 1367.664 1648.731, 1367.664 1638.731, 1367.664 1628.731, 1367.664 1618.731, 1367.664 1608.731, 1367.664 1598.731, 1367.664 1588.731, 1367.664 1578.731, 1367.664 1568.731, 1367.664 1558.731, 1367.664 1548.731, 1367.664 1538.731, 1367.664 1528.731, 1367.664 1518.731, 1367.664 1508.731, 1367.664 1498.731, 1367.664 1488.731, 1367.664 1478.731, 1367.664 1468.731, 1367.664 1458.731, 1367.664 1448.731, 1367.664 1438.731, 1367.664 1428.731, 1367.664 1418.731, 1367.664 1408.731, 1367.664 1398.731, 1367.664 1388.731, 1367.664 1378.731, 1367.664 1368.731, 1367.664 1358.731, 1367.664 1348.731, 1367.664 1338.731, 1367.664 1328.731, 1367.664 1318.731, 1367.664 1308.731, 1367.664 1298.731, 1367.664 1288.731, 1367.664 1278.731, 1367.664 1268.731, 1367.664 1258.731, 1367.664 1248.731, 1367.664 1238.731, 1367.664 1228.731, 1367.664 1218.731, 1367.664 1208.731, 1367.664 1198.731, 1367.664 1188.731, 1367.664 1178.731, 1367.664 1168.731, 1367.664 1158.731, 1367.664 1148.731, 1367.664 1138.731, 1367.664 1128.731, 1367.664 1118.731, 1367.664 1108.731, 1367.664 1098.731, 1367.664 1088.731, 1367.664 1078.731, 1367.664 1068.731, 1367.664 1058.731, 1367.664 1048.731, 1367.664 1038.731, 1367.664 1028.731, 1367.664 1018.731, 1367.664 1008.731, 1367.664 998.731, 1367.664 988.731, 1367.664 978.731, 1367.664 968.731, 1367.664 958.731, 1367.664 948.731, 1367.664 938.731, 1367.664 928.731, 1367.664 918.731, 1367.664 908.731, 1367.664 898.731, 1367.664 888.731, 1367.664 878.731, 1367.664 868.731, 1367.664 858.731, 1367.664 848.731, 1367.664 838.731, 1367.664 828.731, 1367.664 818.731, 1367.664 808.731, 1367.664 798.731, 1367.664 788.731, 1367.664 778.731, 1367.664 768.731, 1367.664 758.731, 1367.664 748.731, 1367.664 738.731, 1367.664 728.731, 1367.664 718.731, 1367.664 708.731, 1367.664 698.731, 1367.664 688.731, 1367.664 678.731, 1367.664 668.731, 1367.664 658.731, 1367.664 648.731, 1367.664 638.731, 1367.664 628.731, 1367.664 618.731, 1367.664 608.731, 1367.664 598.731, 1367.664 588.731, 1367.664 578.731, 1367.664 568.731, 1367.664 558.731, 1367.664 548.731, 1367.664 538.731, 1367.664 528.731, 1367.664 518.731, 1367.664 508.731, 1367.664 498.731, 1367.664 488.731, 1367.664 478.731, 1367.664 468.731, 1367.664 458.731, 1367.664 448.731, 1367.664 438.731, 1367.664 428.731, 1367.664 418.731, 1367.664 408.731, 1367.664 398.731, 1367.664 388.731, 1367.664 378.731, 1367.664 368.731, 1367.664 358.731, 1367.664 348.731, 1367.664 338.731, 1367.664 328.731, 1367.664 318.731, 1367.664 308.731, 1367.664 298.731, 1367.664 288.731, 1367.664 278.731, 1367.664 268.731, 1367.664 258.731, 1367.664 248.731, 1367.664 238.731, 1367.664 228.731, 1367.664 218.731, 1367.664 208.731, 1367.664 198.731, 1367.664 188.731, 1367.664 178.731, 1367.664 168.731, 1367.664 158.731, 1367.664 148.731, 1367.664 138.731, 1367.664 128.731, 1367.664 118.731, 1367.664 108.731, 1367.664 98.731, 1367.664 88.731, 1367.664 78.731, 1367.664 68.731, 1367.664 58.731, 1367.664 48.731, 1367.664 38.731, 1367.664 28.731, 1367.664 18.731, 1367.664 8.731, 1367.664 -1.269, 1367.664 -11.269, 1367.664 -21.269, 1367.664 -31.269, 1367.664 -41.269, 1367.664 -51.269, 1367.664 -61.269, 1367.664 -71.269, 1367.664 -81.269, 1367.664 -91.269, 1367.664 -101.269, 1367.664 -111.269, 1367.664 -121.269, 1367.664 -131.269, 1367.664 -141.269, 1367.664 -151.269, 1367.664 -161.269, 1367.664 -171.269, 1367.664 -181.269, 1367.664 -191.269, 1367.664 -201.269, 1367.664 -211.269, 1367.664 -221.269, 1367.664 -231.269, 1367.664 -241.269, 1367.664 -251.269, 1367.664 -261.269, 1367.664 -271.269, 1367.664 -281.269, 1367.664 -291.269, 1367.664 -301.269, 1367.664 -311.269, 1367.664 -321.269, 1367.664 -331.269, 1367.664 -341.269, 1367.664 -351.269, 1367.664 -361.269, 1367.664 -371.269, 1367.664 -381.269, 1367.664 -391.269, 1367.664 -401.269, 1367.664 -411.269, 1367.664 -421.269, 1367.664 -431.269, 1367.664 -441.269, 1367.664 -451.269, 1367.664 -461.269, 1367.664 -471.269, 1367.664 -481.269, 1367.664 -491.269, 1367.664 -501.269, 1367.664 -511.269, 1367.664 -521.269, 1367.664 -531.269, 1367.664 -541.269, 1367.664 -551.269, 1367.664 -561.269, 1367.664 -571.269, 1367.664 -581.269, 1367.664 -591.269, 1367.664 -601.269, 1367.664 -611.269, 1367.664 -621.269, 1367.664 -631.269, 1367.664 -641.269, 1367.664 -651.269, 1367.664 -661.269, 1367.664 -671.269, 1367.664 -681.269, 1367.664 -691.269, 1367.664 -701.269, 1367.664 -711.269, 1367.664 -721.269, 1367.664 -731.269, 1367.664 -741.269, 1367.664 -751.269, 1367.664 -761.269, 1367.664 -771.269, 1367.664 -781.269, 1367.664 -791.269, 1367.664 -801.269, 1367.664 -811.269, 1367.664 -821.269, 1367.664 -831.269, 1367.664 -841.269, 1367.664 -851.269, 1367.664 -861.269, 1367.664 -871.269, 1367.664 -881.269, 1367.664 -891.269, 1367.664 -901.269, 1367.664 -911.269, 1367.664 -921.269, 1367.664 -931.269, 1367.664 -941.269, 1367.664 -951.269, 1367.664 -961.269, 1367.664 -971.269, 1367.664 -981.269, 1367.664 -991.269, 1367.664 -1001.269, 1367.664 -1011.269, 1367.664 -1021.269, 1367.664 -1031.269, 1367.664 -1041.269, 1367.664 -1051.269, 1367.664 -1061.269, 1367.664 -1071.269, 1367.664 -1081.269, 1367.664 -1091.269, 1367.664 -1101.269, 1367.664 -1111.269, 1367.664 -1121.269, 1367.664 -1131.269, 1367.664 -1141.269, 1367.664 -1151.269, 1367.664 -1161.269, 1367.664 -1171.269, 1367.664 -1181.269, 1367.664 -1191.269, 1367.664 -1201.269, 1367.664 -1211.269, 1367.664 -1221.269, 1367.664 -1231.269, 1367.664 -1241.269, 1367.664 -1251.269, 1367.664 -1261.269, 1367.664 -1271.269, 1367.664 -1281.269, 1367.664 -1291.269, 1367.664 -1301.269, 1367.664 -1311.269, 1367.664 -1321.269, 1367.664 -1331.269, 1367.664 -1341.269, 1367.664 -1351.269, 1367.664 -1361.269, 1367.664 -1371.269, 1367.664 -1381.269, 1367.664 -1391.269, 1367.664 -1401.269, 1367.664 -1411.269, 1367.664 -1421.269, 1367.664 -1431.269, 1367.664 -1441.269, 1367.664 -1451.269, 1367.664 -1461.269, 1367.664 -1471.269, 1367.664 -1481.269, 1367.664 -1491.269, 1367.664 -1501.269, 1367.664 -1511.269, 1367.664 -1521.269, 1367.664 -1531.269, 1367.664 -1541.269, 1367.664 -1551.269, 1367.664 -1561.269, 1367.664 -1571.269, 1367.664 -1581.269, 1367.664 -1591.269, 1367.664 -1601.269, 1367.664 -1611.269, 1367.664 -1621.269, 1367.664 -1631.269, 1367.664 -1641.269, 1367.664 -1651.269, 1367.664 -1661.269, 1367.664 -1671.269, 1367.664 -1681.269, 1367.664 -1691.269, 1367.664 -1701.269, 1367.664 -1711.269, 1367.664 -1721.269, 1367.664 -1731.269, 1367.664 -1741.269, 1367.664 -1751.269, 1367.664 -1761.269, 1367.664 -1771.269, 1367.664 -1781.269, 1367.664 -1791.269, 1367.664 -1801.269, 1367.664 -1811.269, 1367.664 -1821.269, 1367.664 -1831.269, 1367.664 -1841.269, 1367.664 -1851.269, 1367.664 -1861.269, 1367.664 -1871.269, 1367.664 -1881.269, 1367.664 -1891.269, 1367.664 -1901.269, 1367.664 -1911.269, 1367.664 -1921.269, 1367.664 -1931.269, 1367.664 -1941.269, 1367.664 -1951.269, 1367.664 -1961.269, 1367.664 -1971.269, 1367.664 -1981.269, 1367.664 -1991.269, 1367.664 -2001.269, 1367.664 -2011.269, 1367.664 -2021.269, 1367.664 -2031.269, 1367.664 -2041.269, 1367.664 -2051.269, 1367.664 -2061.269, 1367.664 -2071.269, 1367.664 -2081.269, 1367.664 -2091.269, 1367.664 -2101.269, 1367.664 -2111.269, 1367.664 -2121.269, 1367.664 -2131.269, 1367.664 -2141.269, 1367.664 -2151.269, 1367.664 -2161.269, 1367.664 -2171.269, 1367.664 -2181.269, 1367.664 -2191.269, 1367.664 -2201.269, 1367.664 -2211.269, 1367.664 -2221.269, 1367.664 -2231.269, 1367.664 -2241.269, 1367.664 -2251.269, 1367.664 -2261.269, 1367.664 -2271.269, 1367.664 -2281.269, 1367.664 -2291.269, 1367.664 -2301.269, 1367.664 -2311.269, 1367.664 -2321.269, 1367.664 -2331.269, 1367.664 -2341.269, 1367.664 -2351.269, 1367.664 -2361.269, 1367.664 -2371.269, 1367.664 -2381.269, 1367.664 -2391.269, 1367.664 -2401.269, 1367.664 -2411.269, 1367.664 -2421.269, 1367.664 -2431.269, 1367.664 -2441.269, 1367.664 -2451.269, 1367.664 -2461.269, 1367.664 -2471.269, 1367.664 -2481.269, 1367.664 -2491.269, 1367.664 -2501.269, 1367.664 -2511.269, 1367.664 -2521.269, 1367.664 -2531.269, 1367.664 -2541.269, 1367.664 -2551.269, 1367.664 -2561.269, 1367.664 -2571.269, 1367.664 -2581.269, 1367.664 -2591.269, 1367.664 -2601.269, 1367.664 -2611.269, 1367.664 -2621.269, 1367.664 -2631.269, 1367.664 -2641.269, 1367.664 -2651.269, 1367.664 -2661.269, 1367.664 -2671.269, 1367.664 -2681.269, 1367.664 -2691.269, 1367.664 -2701.269, 1367.664 -2711.269, 1367.664 -2721.269, 1367.664 -2731.269, 1367.664 -2741.269, 1367.664 -2751.269, 1367.664 -2761.269, 1367.664 -2771.269, 1367.664 -2781.269, 1367.664 -2791.269, 1367.664 -2801.269, 1367.664 -2811.269, 1367.664 -2821.269, 1367.664 -2831.269, 1367.664 -2841.269, 1367.664 -2851.269, 1367.664 -2861.269, 1367.664 -2871.269, 1367.664 -2881.269, 1367.664 -2891.269, 1367.664 -2901.269, 1367.664 -2911.269, 1367.664 -2921.269, 1367.664 -2931.269, 1367.664 -2941.269, 1367.664 -2951.269, 1367.664 -2961.269, 1367.664 -2971.269, 1367.664 -2981.269, 1367.664 -2991.269, 1367.664 -3001.269, 1367.664 -3011.269, 1367.664 -3021.269, 1367.664 -3031.269, 1367.664 -3041.269, 1367.664 -3051.269, 1367.664 -3061.269, 1367.664 -3071.269, 1367.664 -3081.269, 1367.664 -3091.269, 1367.664 -3101.269, 1367.664 -3111.269, 1367.664 -3121.269, 1367.664 -3131.269, 1367.664 -3141.269, 1367.664 -3151.269, 1367.664 -3161.269, 1367.664 -3171.269, 1367.664 -3181.269, 1367.664 -3191.269, 1367.664 -3201.269, 1367.664 -3211.269, 1367.664 -3221.269, 1367.664 -3231.269, 1367.664 -3241.269, 1367.664 -3251.269, 1367.664 -3261.269, 1367.664 -3271.269, 1367.664 -3281.269, 1367.664 -3291.269, 1367.664 -3301.269, 1367.664 -3311.269, 1367.664 -3321.269, 1367.664 -3331.269, 1367.664 -3341.269, 1367.664 -3351.269, 1367.664 -3361.269, 1367.664 -3371.269, 1367.664 -3381.269, 1367.664 -3391.269, 1367.664 -3401.269, 1367.664 -3411.269, 1367.664 -3421.269, 1367.664 -3431.269, 1367.664 -3441.269, 1367.664 -3451.269, 1367.664 -3461.269, 1367.664 -3471.269, 1367.664 -3481.269, 1367.664 -3491.269, 1367.664 -3501.269, 1367.664 -3511.269, 1367.664 -3521.269, 1367.664 -3531.269, 1367.664 -3541.269, 1367.664 -3551.269, 1367.664 -3561.269, 1367.664 -3571.269, 1367.664 -3581.269, 1367.664 -3591.269, 1367.664 -3601.269, 1367.664 -3611.269, 1367.664 -3621.269, 1367.664 -3631.269, 1367.664 -3641.269, 1367.664 -3651.269, 1367.664 -3661.269, 1367.664 -3671.269, 1367.664 -3681.269, 1367.664 -3691.269, 1367.664 -3701.269, 1367.664 -3711.269, 1367.664 -3721.269, 1367.664 -3731.269, 1367.664 -3741.269, 1367.664 -3751.269, 1367.664 -3761.269, 1367.664 -3771.269, 1367.664 -3781.269, 1367.664 -3791.269, 1367.664 -3801.269, 1367.664 -3811.269, 1367.664 -3821.269, 1367.664 -3831.269, 1367.664 -3841.269, 1367.664 -3851.269, 1367.664 -3861.269, 1367.664 -3871.269, 1367.664 -3881.269, 1367.664 -3891.269, 1367.664 -3901.269, 1367.664 -3911.269, 1367.664 -3921.269, 1367.664 -3931.269, 1367.664 -3941.269, 1367.664 -3951.269, 1367.664 -3961.269, 1367.664 -3971.269, 1367.664 -3981.269, 1367.664 -3991.269, 1367.664 -4001.269, 1367.664 -4011.269, 1367.664 -4021.269, 1367.664 -4031.269, 1367.664 -4041.269, 1367.664 -4051.269, 1367.664 -4061.269, 1367.664 -4071.269, 1367.664 -4081.269, 1367.664 -4091.269, 1367.664 -4101.269, 1367.664 -4111.269, 1367.664 -4121.269, 1367.664 -4131.269, 1367.664 -4141.269, 1367.664 -4151.269, 1367.664 -4161.269, 1367.664 -4171.269, 1367.664 -4181.269, 1367.664 -4191.269, 1367.664 -4201.269, 1367.664 -4211.269, 1367.664 -4221.269, 1367.664 -4231.269, 1367.664 -4241.269, 1367.664 -4251.269, 1367.664 -4261.269, 1367.664 -4271.269, 1367.664 -4281.269, 1367.664 -4291.269, 1367.664 -4301.269, 1367.664 -4311.269, 1367.664 -4321.269, 1367.664 -4331.269, 1367.664 -4341.269, 1367.664 -4351.269, 1367.664 -4361.269, 1367.664 -4371.269, 1367.664 -4381.269, 1367.664 -4391.269, 1367.664 -4401.269, 1367.664 -4411.269, 1367.664 -4421.269, 1367.664 -4431.269, 1367.664 -4441.269, 1367.664 -4451.269, 1367.664 -4461.269, 1367.664 -4471.269, 1367.664 -4481.269, 1367.664 -4491.269, 1367.664 -4501.269, 1367.664 -4511.269, 1367.664 -4521.269, 1367.664 -4531.269, 1367.664 -4541.269, 1367.664 -4551.269, 1367.664 -4561.269, 1367.664 -4571.269, 1367.664 -4581.269, 1367.664 -4591.269, 1367.664 -4601.269, 1367.664 -4611.269, 1367.664 -4621.269, 1367.664 -4631.269, 1367.664 -4641.269, 1367.664 -4651.269, 1367.664 -4661.269, 1367.664 -4671.269, 1367.664 -4681.269, 1367.664 -4691.269, 1367.664 -4701.269, 1367.664 -4711.269, 1367.664 -4721.269, 1367.664 -4731.269, 1367.664 -4741.269, 1367.664 -4751.269, 1367.664 -4761.269, 1367.664 -4771.269, 1367.664 -4781.269, 1367.664 -4791.269, 1367.664 -4801.269, 1367.664 -4811.269, 1367.664 -4821.269, 1367.664 -4831.269, 1367.664 -4841.269, 1367.664 -4851.269, 1367.664 -4861.269, 1367.664 -4871.269, 1367.664 -4881.269, 1367.664 -4891.269, 1367.664 -4901.269, 1367.664 -4911.269, 1367.664 -4921.269, 1367.664 -4931.269, 1367.664 -4941.269, 1367.664 -4951.269, 1367.664 -4961.269, 1367.664 -4971.269, 1367.664 -4981.269, 1367.664 -4991.269, 1367.664 -5001.269, 1367.664 -5011.269, 1367.664 -5021.269, 1367.664 -5031.269, 1367.664 -5041.269, 1367.664 -5051.269, 1367.664 -5061.269, 1367.664 -5071.269, 1367.664 -5081.269, 1367.664 -5091.269, 1367.664 -5101.269, 1367.664 -5111.269, 1367.664 -5121.269, 1367.664 -5131.269, 1367.664 -5141.269, 1367.664 -5151.269, 1367.664 -5161.269, 1367.664 -5171.269, 1367.664 -5181.269, 1367.664 -5191.269, 1367.664 -5201.269, 1367.664 -5211.269, 1367.664 -5221.269, 1367.664 -5231.269, 1367.664 -5241.269, 1367.664 -5251.269, 1367.664 -5261.269, 1367.664 -5271.269, 1367.664 -5281.269, 1367.664 -5291.269, 1367.664 -5301.269, 1367.664 -5311.269, 1367.664 -5321.269, 1367.664 -5331.269, 1367.664 -5341.269, 1367.664 -5351.269, 1367.664 -5361.269, 1367.664 -5371.269, 1367.664 -5381.269, 1367.664 -5391.269, 1367.664 -5401.269, 1367.664 -5411.269, 1367.664 -5421.269, 1367.664 -5431.269, 1367.664 -5441.269, 1367.664 -5451.269, 1367.664 -5461.269, 1367.664 -5471.269, 1367.664 -5481.269, 1367.664 -5491.269, 1367.664 -5501.269, 1367.664 -5511.269, 1367.664 -5521.269, 1367.664 -5531.269, 1367.664 -5541.269, 1367.664 -5551.269, 1367.664 -5561.269, 1367.664 -5571.269, 1367.664 -5581.269, 1367.664 -5591.269, 1367.664 -5601.269, 1367.664 -5611.269, 1367.664 -5621.269, 1367.664 -5631.269, 1367.664 -5641.269, 1367.664 -5651.269, 1367.664 -5661.269, 1367.664 -5671.269, 1367.664 -5681.269, 1367.664 -5691.269, 1367.664 -5701.269, 1367.664 -5711.269, 1367.664 -5721.269, 1367.664 -5731.269, 1367.664 -5741.269, 1367.664 -5751.269, 1367.664 -5761.269, 1367.664 -5771.269, 1367.664 -5781.269, 1367.664 -5791.269, 1367.664 -5801.269, 1367.664 -5811.269, 1367.664 -5821.269, 1367.664 -5831.269, 1367.664 -5841.269, 1367.664 -5851.269, 1367.664 -5861.269, 1367.664 -5871.269, 1367.664 -5881.269, 1367.664 -5891.269, 1367.664 -5901.269, 1367.664 -5911.269, 1367.664 -5921.269, 1367.664 -5931.269, 1367.664 -5941.269, 1367.664 -5951.269, 1367.664 -5961.269, 1367.664 -5971.269, 1367.664 -5981.269, 1367.664 -5991.269, 1367.664 -6001.269, 1367.664 -6011.269, 1367.664 -6021.269, 1367.664 -6031.269, 1367.664 -6041.269, 1367.664 -6051.269, 1367.664 -6061.269, 1367.664 -6071.269, 1367.664 -6081.269, 1367.664 -6091.269, 1367.664 -6101.269, 1367.664 -6111.269, 1367.664 -6121.269, 1367.664 -6131.269, 1367.664 -6141.269, 1367.664 -6151.269, 1367.664 -6161.269, 1367.664 -6171.269, 1367.664 -6181.269, 1367.664 -6191.269, 1367.664 -6286.379, 1367.664 " />
            <path fill="none" stroke-width="3.0" stroke-linecap="butt" stroke-opacity="1.0" stroke="rgb(0, 0, 0)" stroke-linejoin="round" d=" M 1448.846, 1203.552 1458.846, 1203.552 1468.846, 1203.552 1478.846, 1203.552 1488.846, 1203.552 1498.846, 1203.552 1508.846, 1203.552 1518.846, 1203.552 1528.846, 1203.552 1538.846, 1203.552 1548.846, 1203.552 1558.846, 1203.552 1568.846, 1203.552 1578.846, 1203.552 1588.846, 1203.552 1598.846, 1203.552 1608.846, 1203.552 1618.846, 1203.552 1628.846, 1203.552 1638.846, 1203.552 1648.846, 1203.552 1658.846, 1203.552 1668.846, 1203.552 1678.846, 1203.552 1688.846, 1203.552 1698.846, 1203.552 1708.846, 1203.552 1718.846, 1203.552 1728.846, 1203.552 1738.846, 1203.552 1748.846, 1203.552 1758.846, 1203.552 1768.846, 1203.552 1778.846, 1203.552 1788.846, 1203.552 1798.846, 1203.552 1808.846, 1203.552 1818.846, 1203.552 1828.846, 1203.552 1838.846, 1203.552 1848.846, 1203.552 1858.846, 1203.552 1868.846, 1203.552 1878.846, 1203.552 1888.846, 1203.552 1898.846, 1203.552 1908.846, 1203.552 1918.846, 1203.552 1928.846, 1203.552 1938.846, 1203.552 1948.846, 1203.552 1958.846, 1203.552 1968.846, 1203.552 1978.846, 1203.552 1988.846, 1203.552 1998.846, 1203.552 2008.846, 1203.552 2018.846, 1203.552 2028.846, 1203.552 2038.846, 1203.552 2048.845, 1203.552 2058.845, 1203.552 2068.846, 1203.552 2078.845, 1203.552 2088.845, 1203.552 2098.845, 1203.552 2108.846, 1203.552 2118.845, 1203.552 2128.845, 1203.552 2138.845, 1203.552 2148.845, 1203.552 2158.845, 1203.552 2168.846, 1203.552 2178.846, 1203.552 2188.846, 1203.552 2198.845, 1203.552 2208.845, 1203.552 2218.845, 1203.552 2228.845, 1203.552 2238.846, 1203.552 2248.846, 1203.552 2258.846, 1203.552 2268.846, 1203.552 2278.845, 1203.552 2288.845, 1203.552 2298.845, 1203.552 2308.845, 1203.552 2318.846, 1203.552 2328.846, 1203.552 2338.846, 1203.552 2348.846, 1203.552 2358.845, 1203.552 2368.845, 1203.552 2378.845, 1203.552 2388.846, 1203.552 2398.846, 1203.552 2408.846, 1203.552 2418.846, 1203.552 2428.846, 1203.552 2438.845, 1203.552 2448.845, 1203.552 2458.846, 1203.552 2468.846, 1203.552 2478.846, 1203.552 2488.846, 1203.552 2498.846, 1203.552 2508.846, 1203.552 2518.845, 1203.552 2528.845, 1203.552 2538.846, 1203.552 2548.846, 1203.552 2558.846, 1203.552 2568.846, 1203.552 2578.846, 1203.552 2588.846, 1203.552 2598.845, 1203.552 2608.846, 1203.552 2618.846, 1203.552 2628.846, 1203.552 2638.846, 1203.552 2648.846, 1203.552 2658.846, 1203.552 2668.846, 1203.552 2678.845, 1203.552 2688.846, 1203.552 2698.846, 1203.552 2708.846, 1203.552 2718.846, 1203.552 2728.846, 1203.552 2738.846, 1203.552 2748.846, 1203.552 2758.845, 1203.552 2768.846, 1203.552 2778.845, 1203.552 2788.846, 1203.552 2798.846, 1203.552 2808.846, 1203.552 2818.846, 1203.552 2828.846, 1203.552 2838.846, 1203.552 2848.845, 1203.552 2858.846, 1203.552 2868.845, 1203.552 2878.846, 1203.552 2888.846, 1203.552 2898.846, 1203.552 2908.846, 1203.552 2918.845, 1203.552 2928.846, 1203.552 2938.845, 1203.552 2948.846, 1203.552 2958.846, 1203.552 2968.846, 1203.552 2978.846, 1203.552 2988.846, 1203.552 2998.846, 1203.552 3008.845, 1203.552 3018.846, 1203.552 3028.846, 1203.552 3038.846, 1203.552 3048.846, 1203.552 3058.846, 1203.552 3068.846, 1203.552 3078.845, 1203.552 3088.846, 1203.552 3098.846, 1203.552 3108.846, 1203.552 3118.846, 1203.552 3128.846, 1203.552 3138.846, 1203.552 3148.845, 1203.552 3158.846, 1203.552 3168.845, 1203.552 3178.846, 1203.552 3188.846, 1203.552 3198.846, 1203.552 3208.846, 1203.552 3218.846, 1203.552 3228.846, 1203.552 3238.845, 1203.552 3248.846, 1203.552 3258.846, 1203.552 3268.846, 1203.552 3278.846, 1203.552 3288.846, 1203.552 3298.846, 1203.552 3308.845, 1203.552 3318.846, 1203.552 3328.846, 1203.552 3338.846, 1203.552 3348.846, 1203.552 3358.846, 1203.552 3368.846, 1203.552 3378.846, 1203.552 3388.846, 1203.552 3398.846, 1203.552 3408.846, 1203.552 3418.846, 1203.552 3428.846, 1203.552 3438.846, 1203.552 3448.846, 1203.552 3458.846, 1203.552 3468.846, 1203.552 3478.846, 1203.552 3488.846, 1203.552 3498.846, 1203.552 3508.846, 1203.552 3518.846, 1203.552 3528.846, 1203.552 3538.846, 1203.552 3548.846, 1203.552 3558.846, 1203.552 3568.846, 1203.552 3578.846, 1203.552 3588.846, 1203.552 3598.846, 1203.552 3608.846, 1203.552 3618.846, 1203.552 3628.846, 1203.552 3638.846, 1203.552 3648.846, 1203.552 3658.846, 1203.552 3668.846, 1203.552 3678.846, 1203.552 3688.846, 1203.552 3698.846, 1203.552 3708.846, 1203.552 3718.846, 1203.552 3728.846, 1203.552 3738.846, 1203.552 3748.846, 1203.552 3758.846, 1203.552 3768.846, 1203.552 3778.846, 1203.552 3788.846, 1203.552 3798.846, 1203.552 3808.846, 1203.552 3818.846, 1203.552 3828.846, 1203.552 3838.846, 1203.552 3848.846, 1203.552 3858.846, 1203.552 3868.846, 1203.552 3878.846, 1203.552 3888.846, 1203.552 3898.846, 1203.552 3908.846, 1203.552 3918.846, 1203.552 3928.846, 1203.552 3938.846, 1203.552 3948.846, 1203.552 3958.846, 1203.552 3968.846, 1203.552 3978.846, 1203.552 3988.846, 1203.552 3998.846, 1203.552 4008.846, 1203.552 4018.846, 1203.552 4028.846, 1203.552 4038.846, 1203.552 4048.846, 1203.552 4058.846, 1203.552 4068.846, 1203.552 4078.846, 1203.552 4088.846, 1203.552 4098.846, 1203.552 4108.846, 1203.552 4118.846, 1203.552 4128.846, 1203.552 4138.846, 1203.552 4148.846, 1203.552 4158.846, 1203.552 4168.846, 1203.552 4178.846, 1203.552 4188.846, 1203.552 4198.846, 1203.552 4208.846, 1203.552 4218.846, 1203.552 4228.846, 1203.552 4238.846, 1203.552 4248.846, 1203.552 4258.846, 1203.552 4268.846, 1203.552 4278.846, 1203.552 4288.846, 1203.552 4298.846, 1203.552 4308.846, 1203.552 4318.846, 1203.552 4328.846, 1203.552 4338.846, 1203.552 4348.846, 1203.552 4358.846, 1203.552 4368.846, 1203.552 4378.846, 1203.552 4388.846, 1203.552 4398.846, 1203.552 4408.846, 1203.552 4418.846, 1203.552 4428.846, 1203.552 4438.846, 1203.552 4448.846, 1203.552 4458.846, 1203.552 4468.846, 1203.552 4478.846, 1203.552 4488.846, 1203.552 4498.846, 1203.552 4508.846, 1203.552 4518.846, 1203.552 4528.846, 1203.552 4538.846, 1203.552 4548.846, 1203.552 4558.846, 1203.552 4568.846, 1203.552 4578.846, 1203.552 4588.846, 1203.552 4598.846, 1203.552 4608.846, 1203.552 4618.846, 1203.552 4628.846, 1203.552 4638.846, 1203.552 4648.846, 1203.552 4658.846, 1203.552 4668.846, 1203.552 4678.846, 1203.552 4688.846, 1203.552 4698.846, 1203.552 4708.846, 1203.552 4718.846, 1203.552 4728.846, 1203.552 4738.846, 1203.552 4748.846, 1203.552 4758.846, 1203.552 4768.846, 1203.552 4778.846, 1203.552 4788.846, 1203.552 4798.846, 1203.552 4808.846, 1203.552 4818.846, 1203.552 4828.846, 1203.552 4838.846, 1203.552 4848.846, 1203.552 4858.846, 1203.552 4868.846, 1203.552 4878.846, 1203.552 4888.846, 1203.552 4898.846, 1203.552 4908.846, 1203.552 4918.846, 1203.552 4928.846, 1203.552 4938.846, 1203.552 4948.846, 1203.552 4958.846, 1203.552 4968.846, 1203.552 4978.846, 1203.552 4988.846, 1203.552 4998.846, 1203.552 5008.846, 1203.552 5018.846, 1203.552 5028.846, 1203.552 5038.846, 1203.552 5048.846, 1203.552 5058.846, 1203.552 5068.846, 1203.552 5078.846, 1203.552 5088.846, 1203.552 5098.846, 1203.552 5108.846, 1203.552 5118.846, 1203.552 5128.846, 1203.552 5138.846, 1203.552 5148.846, 1203.552 5158.846, 1203.552 5168.846, 1203.552 5178.846, 1203.552 5188.846, 1203.552 5198.846, 1203.552 5208.846, 1203.552 5218.846, 1203.552 5228.846, 1203.552 5238.846, 1203.552 5248.846, 1203.552 5258.846, 1203.552 5268.846, 1203.552 5278.846, 1203.552 5288.846, 1203.552 5298.846, 1203.552 5308.846, 1203.552 5318.846, 1203.552 5328.846, 1203.552 5338.846, 1203.552 5348.846, 1203.552 5358.846, 1203.552 5368.846, 1203.552 5378.846, 1203.552 5388.846, 1203.552 5398.846, 1203.552 5408.846, 1203.552 5418.846, 1203.552 5428.846, 1203.552 5438.846, 1203.552 5448.846, 1203.552 5458.846, 1203.552 5468.846, 1203.552 5478.846, 1203.552 5488.846, 1203.552 5498.846, 1203.552 5508.846, 1203.552 5518.846, 1203.552 5528.846, 1203.552 5538.846, 1203.552 5548.846, 1203.552 5558.846, 1203.552 5568.846, 1203.552 5578.846, 1203.552 5588.846, 1203.552 5598.846, 1203.552 5608.846, 1203.552 5618.846, 1203.552 5628.846, 1203.552 5638.846, 1203.552 5648.846, 1203.552 5658.846, 1203.552 5668.846, 1203.552 5678.846, 1203.552 5688.846, 1203.552 5698.846, 1203.552 5708.846, 1203.552 5718.846, 1203.552 5728.846, 1203.552 5738.846, 1203.552 5748.846, 1203.552 5758.846, 1203.552 5768.846, 1203.552 5778.846, 1203.552 5788.846, 1203.552 5798.846, 1203.552 5808.846, 1203.552 5818.846, 1203.552 5828.846, 1203.552 5838.846, 1203.552 5848.846, 1203.552 5858.846, 1203.552 5868.846, 1203.552 5878.846, 1203.552 5888.846, 1203.552 5898.846, 1203.552 5908.846, 1203.552 5918.846, 1203.552 5928.846, 1203.552 5938.846, 1203.552 5948.846, 1203.552 5958.846, 1203.552 5968.846, 1203.552 5978.846, 1203.552 5988.846, 1203.552 5998.846, 1203.552 6008.846, 1203.552 6018.846, 1203.552 6028.846, 1203.552 6038.846, 1203.552 6048.846, 1203.552 6058.846, 1203.552 6068.846, 1203.552 6078.846, 1203.552 6088.846, 1203.552 6098.846, 1203.552 6108.846, 1203.552 6118.846, 1203.552 6128.846, 1203.552 6138.846, 1203.552 6148.846, 1203.552 6158.846, 1203.552 6168.846, 1203.552 6178.846, 1203.552 6188.846, 1203.552 6198.846, 1203.552 6208.846, 1203.552 6218.846, 1203.552 6228.846, 1203.552 6238.846, 1203.552 6248.846, 1203.552 6258.846, 1203.552 6268.846, 1203.552 6278.846, 1203.552 6288.846, 1203.552 6298.846, 1203.552 6308.846, 1203.552 6318.846, 1203.552 6328.846, 1203.552 6338.846, 1203.552 6348.846, 1203.552 6358.846, 1203.552 6368.846, 1203.552 6378.846, 1203.552 6388.846, 1203.552 6398.846, 1203.552 6408.846, 1203.552 6418.846, 1203.552 6428.846, 1203.552 6438.846, 1203.552 6448.846, 1203.552 6458.846, 1203.552 6468.846, 1203.552 6478.846, 1203.552 6488.846, 1203.552 6498.846, 1203.552 6508.846, 1203.552 6518.846, 1203.552 6528.846, 1203.552 6538.846, 1203.552 6548.846, 1203.552 6558.846, 1203.552 6568.846, 1203.552 6578.846, 1203.552 6588.846, 1203.552 6598.846, 1203.552 6608.846, 1203.552 6618.846, 1203.552 6628.846, 1203.552 6682.602, 1203.552 " />
            <path fill="none" stroke-width="3.0" stroke-linecap="butt" stroke-opacity="1.0" stroke="rgb(0, 0, 0)" stroke-linejoin="round" d=" M 437.668, 1203.552 447.668, 1203.552 457.668, 1203.552 467.668, 1203.552 477.668, 1203.552 487.668, 1203.552 497.668, 1203.552 507.668, 1203.552 517.668, 1203.552 527.668, 1203.552 537.668, 1203.552 547.668, 1203.552 557.668, 1203.552 567.668, 1203.552 577.668, 1203.552 587.668, 1203.552 597.668, 1203.552 607.668, 1203.552 617.668, 1203.552 627.668, 1203.552 637.668, 1203.552 647.668, 1203.552 657.668, 1203.552 667.668, 1203.552 677.668, 1203.552 687.668, 1203.552 697.668, 1203.552 707.668, 1203.552 717.668, 1203.552 727.668, 1203.552 737.668, 1203.552 747.668, 1203.552 757.668, 1203.552 767.668, 1203.552 777.668, 1203.552 787.668, 1203.552 797.668, 1203.552 807.668, 1203.552 817.668, 1203.552 827.668, 1203.552 837.668, 1203.552 847.668, 1203.552 857.668, 1203.552 867.668, 1203.552 877.668, 1203.552 887.668, 1203.552 897.668, 1203.552 907.668, 1203.552 913.600, 1203.552 923.600, 1203.552 933.600, 1203.552 943.600, 1203.552 953.600, 1203.552 963.600, 1203.552 973.600, 1203.552 983.600, 1203.552 986.623, 1203.552 996.623, 1203.552 1006.623, 1203.552 1016.623, 1203.552 1026.623, 1203.552 1036.623, 1203.552 1046.623, 1203.552 1056.623, 1203.552 1066.623, 1203.552 1076.623, 1203.552 1086.623, 1203.552 1096.623, 1203.552 1106.623, 1203.552 1116.623, 1203.552 1126.623, 1203.552 1136.623, 1203.552 1146.623, 1203.552 1156.623, 1203.552 1166.623, 1203.552 1176.623, 1203.552 1186.623, 1203.552 1196.623, 1203.552 1206.623, 1203.552 1216.623, 1203.552 1226.623, 1203.552 1236.623, 1203.552 1246.623, 1203.552 1256.623, 1203.552 1266.623, 1203.552 1276.623, 1203.552 1286.623, 1203.552 1296.623, 1203.552 1306.623, 1203.552 1316.623, 1203.552 1326.623, 1203.552 1336.623, 1203.552 1346.623, 1203.552 1356.623, 1203.552 1366.623, 1203.552 1376.623, 1203.552 1386.623, 1203.552 1396.623, 1203.552 1406.623, 1203.552 1416.623, 1203.552 1426.623, 1203.552 1436.623, 1203.552 1448.846, 1203.552 " />
            <path fill="none" stroke-width="3.0" stroke-linecap="butt" stroke-opacity="1.0" stroke="rgb(0, 0, 0)" stroke-linejoin="round" d=" M -6110.783, 1203.552 -6100.783, 1203.552 -6090.783, 1203.552 -6080.783, 1203.552 -6070.783, 1203.552 -6060.783, 1203.552 -6050.783, 1203.552 -6040.783, 1203.552 -6030.783, 1203.552 -6020.783, 1203.552 -6010.783, 1203.552 -6000.783, 1203.552 -5990.783, 1203.552 -5980.783, 1203.552 -5970.783, 1203.552 -5960.783, 1203.552 -5950.783, 1203.552 -5940.783, 1203.552 -5930.783, 1203.552 -5920.783, 1203.552 -5910.783, 1203.552 -5900.783, 1203.552 -5890.783, 1203.552 -5880.783, 1203.552 -5870.783, 1203.552 -5860.783, 1203.552 -5850.783, 1203.552 -5840.783, 1203.552 -5830.783, 1203.552 -5820.783, 1203.552 -5810.783, 1203.552 -5800.783, 1203.552 -5790.783, 1203.552 -5780.783, 1203.552 -5770.783, 1203.552 -5760.783, 1203.552 -5750.783, 1203.552 -5740.783, 1203.552 -5730.783, 1203.552 -5720.783, 1203.552 -5710.783, 1203.552 -5700.783, 1203.552 -5690.783, 1203.552 -5680.783, 1203.552 -5670.783, 1203.552 -5660.783, 1203.552 -5650.783, 1203.552 -5640.783, 1203.552 -5630.783, 1203.552 -5620.783, 1203.552 -5610.783, 1203.552 -5600.783, 1203.552 -5590.783, 1203.552 -5580.783, 1203.552 -5570.783, 1203.552 -5560.783, 1203.552 -5550.783, 1203.552 -5540.783, 1203.552 -5530.783, 1203.552 -5520.783, 1203.552 -5510.783, 1203.552 -5500.783, 1203.552 -5490.783, 1203.552 -5480.783, 1203.552 -5470.783, 1203.552 -5460.783, 1203.552 -5450.783, 1203.552 -5440.783, 1203.552 -5430.783, 1203.552 -5420.783, 1203.552 -5410.783, 1203.552 -5400.783, 1203.552 -5390.783, 1203.552 -5380.783, 1203.552 -5370.783, 1203.552 -5360.783, 1203.552 -5350.783, 1203.552 -5340.783, 1203.552 -5330.783, 1203.552 -5320.783, 1203.552 -5310.783, 1203.552 -5300.783, 1203.552 -5290.783, 1203.552 -5280.783, 1203.552 -5270.783, 1203.552 -5260.783, 1203.552 -5250.783, 1203.552 -5240.783, 1203.552 -5230.783, 1203.552 -5220.783, 1203.552 -5210.783, 1203.552 -5200.783, 1203.552 -5190.783, 1203.552 -5180.783, 1203.552 -5170.783, 1203.552 -5160.783, 1203.552 -5150.783, 1203.552 -5140.783, 1203.552 -5130.783, 1203.552 -5120.783, 1203.552 -5110.783, 1203.552 -5100.783, 1203.552 -5090.783, 1203.552 -5080.783, 1203.552 -5070.783, 1203.552 -5060.783, 1203.552 -5050.783, 1203.552 -5040.783, 1203.552 -5030.783, 1203.552 -5020.783, 1203.552 -5010.783, 1203.552 -5000.783, 1203.552 -4990.783, 1203.552 -4980.783, 1203.552 -4970.783, 1203.552 -4960.783, 1203.552 -4950.783, 1203.552 -4940.783, 1203.552 -4930.783, 1203.552 -4920.783, 1203.552 -4910.783, 1203.552 -4900.783, 1203.552 -4890.783, 1203.552 -4880.783, 1203.552 -4870.783, 1203.552 -4860.783, 1203.552 -4850.783, 1203.552 -4840.783, 1203.552 -4830.783, 1203.552 -4820.783, 1203.552 -4810.783, 1203.552 -4800.783, 1203.552 -4790.783, 1203.552 -4780.783, 1203.552 -4770.783, 1203.552 -4760.783, 1203.552 -4750.783, 1203.552 -4740.783, 1203.552 -4730.783, 1203.552 -4720.783, 1203.552 -4710.783, 1203.552 -4700.783, 1203.552 -4690.783, 1203.552 -4680.783, 1203.552 -4670.783, 1203.552 -4660.783, 1203.552 -4650.783, 1203.552 -4640.783, 1203.552 -4630.783, 1203.552 -4620.783, 1203.552 -4610.783, 1203.552 -4600.783, 1203.552 -4590.783, 1203.552 -4580.783, 1203.552 -4570.783, 1203.552 -4560.783, 1203.552 -4550.783, 1203.552 -4540.783, 1203.552 -4530.783, 1203.552 -4520.783, 1203.552 -4510.783, 1203.552 -4500.783, 1203.552 -4490.783, 1203.552 -4480.783, 1203.552 -4470.783, 1203.552 -4460.783, 1203.552 -4450.783, 1203.552 -4440.783, 1203.552 -4430.783, 1203.552 -4420.783, 1203.552 -4410.783, 1203.552 -4400.783, 1203.552 -4390.783, 1203.552 -4380.783, 1203.552 -4370.783, 1203.552 -4360.783, 1203.552 -4350.783, 1203.552 -4340.783, 1203.552 -4330.783, 1203.552 -4320.783, 1203.552 -4310.783, 1203.552 -4300.783, 1203.552 -4290.783, 1203.552 -4280.783, 1203.552 -4270.783, 1203.552 -4260.783, 1203.552 -4250.783, 1203.552 -4240.783, 1203.552 -4230.783, 1203.552 -4220.783, 1203.552 -4210.783, 1203.552 -4200.783, 1203.552 -4190.783, 1203.552 -4180.783, 1203.552 -4170.783, 1203.552 -4160.783, 1203.552 -4150.783, 1203.552 -4140.783, 1203.552 -4130.783, 1203.552 -4120.783, 1203.552 -4110.783, 1203.552 -4100.783, 1203.552 -4090.783, 1203.552 -4080.783, 1203.552 -4070.783, 1203.552 -4060.783, 1203.552 -4050.783, 1203.552 -4040.783, 1203.552 -4030.783, 1203.552 -4020.783, 1203.552 -4010.783, 1203.552 -4000.783, 1203.552 -3990.783, 1203.552 -3980.783, 1203.552 -3970.783, 1203.552 -3960.783, 1203.552 -3950.783, 1203.552 -3940.783, 1203.552 -3930.783, 1203.552 -3920.783, 1203.552 -3910.783, 1203.552 -3900.783, 1203.552 -3890.783, 1203.552 -3880.783, 1203.552 -3870.783, 1203.552 -3860.783, 1203.552 -3850.783, 1203.552 -3840.783, 1203.552 -3830.783, 1203.552 -3820.783, 1203.552 -3810.783, 1203.552 -3800.783, 1203.552 -3790.783, 1203.552 -3780.783, 1203.552 -3770.783, 1203.552 -3760.783, 1203.552 -3750.783, 1203.552 -3740.783, 1203.552 -3730.783, 1203.552 -3720.783, 1203.552 -3710.783, 1203.552 -3700.783, 1203.552 -3690.783, 1203.552 -3680.783, 1203.552 -3670.783, 1203.552 -3660.783, 1203.552 -3650.783, 1203.552 -3640.783, 1203.552 -3630.783, 1203.552 -3620.783, 1203.552 -3610.783, 1203.552 -3600.783, 1203.552 -3590.783, 1203.552 -3580.783, 1203.552 -3570.783, 1203.552 -3560.783, 1203.552 -3550.783, 1203.552 -3540.783, 1203.552 -3530.783, 1203.552 -3520.783, 1203.552 -3510.783, 1203.552 -3500.783, 1203.552 -3490.783, 1203.552 -3480.783, 1203.552 -3470.783, 1203.552 -3460.783, 1203.552 -3450.783, 1203.552 -3440.783, 1203.552 -3430.783, 1203.552 -3420.783, 1203.552 -3410.783, 1203.552 -3400.783, 1203.552 -3390.783, 1203.552 -3380.783, 1203.552 -3370.783, 1203.552 -3360.783, 1203.552 -3350.783, 1203.552 -3340.783, 1203.552 -3330.783, 1203.552 -3320.783, 1203.552 -3310.783, 1203.552 -3300.783, 1203.552 -3290.783, 1203.552 -3280.783, 1203.552 -3270.783, 1203.552 -3260.783, 1203.552 -3250.783, 1203.552 -3240.783, 1203.552 -3230.783, 1203.552 -3220.783, 1203.552 -3210.783, 1203.552 -3200.783, 1203.552 -3190.783, 1203.552 -3180.783, 1203.552 -3170.783, 1203.552 -3160.783, 1203.552 -3150.783, 1203.552 -3140.783, 1203.552 -3130.783, 1203.552 -3120.783, 1203.552 -3110.783, 1203.552 -3100.783, 1203.552 -3090.783, 1203.552 -3080.783, 1203.552 -3070.783, 1203.552 -3060.783, 1203.552 -3050.783, 1203.552 -3040.783, 1203.552 -3030.783, 1203.552 -3020.783, 1203.552 -3010.783, 1203.552 -3000.783, 1203.552 -2990.783, 1203.552 -2980.783, 1203.552 -2970.783, 1203.552 -2960.783, 1203.552 -2950.783, 1203.552 -2940.783, 1203.552 -2930.783, 1203.552 -2920.783, 1203.552 -2910.783, 1203.552 -2900.783, 1203.552 -2890.783, 1203.552 -2880.783, 1203.552 -2870.783, 1203.552 -2860.783, 1203.552 -2850.783, 1203.552 -2840.783, 1203.552 -2830.783, 1203.552 -2820.783, 1203.552 -2810.783, 1203.552 -2800.783, 1203.552 -2790.783, 1203.552 -2780.783, 1203.552 -2770.783, 1203.552 -2760.783, 1203.552 -2750.783, 1203.552 -2740.783, 1203.552 -2730.783, 1203.552 -2720.783, 1203.552 -2710.783, 1203.552 -2700.783, 1203.552 -2690.783, 1203.552 -2680.783, 1203.552 -2670.783, 1203.552 -2660.783, 1203.552 -2650.783, 1203.552 -2640.783, 1203.552 -2630.783, 1203.552 -2620.783, 1203.552 -2610.783, 1203.552 -2600.783, 1203.552 -2590.783, 1203.552 -2580.783, 1203.552 -2570.783, 1203.552 -2560.783, 1203.552 -2550.783, 1203.552 -2540.783, 1203.552 -2530.783, 1203.552 -2520.783, 1203.552 -2510.783, 1203.552 -2500.783, 1203.552 -2490.783, 1203.552 -2480.783, 1203.552 -2470.783, 1203.552 -2460.783, 1203.552 -2450.783, 1203.552 -2440.783, 1203.552 -2430.783, 1203.552 -2420.783, 1203.552 -2410.783, 1203.552 -2400.783, 1203.552 -2390.783, 1203.552 -2380.783, 1203.552 -2370.783, 1203.552 -2360.783, 1203.552 -2350.783, 1203.552 -2340.783, 1203.552 -2330.783, 1203.552 -2320.783, 1203.552 -2310.783, 1203.552 -2300.783, 1203.552 -2290.783, 1203.552 -2280.783, 1203.552 -2270.783, 1203.552 -2260.783, 1203.552 -2250.783, 1203.552 -2240.783, 1203.552 -2230.783, 1203.552 -2220.783, 1203.552 -2210.783, 1203.552 -2200.783, 1203.552 -2190.783, 1203.552 -2180.783, 1203.552 -2170.783, 1203.552 -2160.783, 1203.552 -2150.783, 1203.552 -2140.783, 1203.552 -2130.783, 1203.552 -2120.783, 1203.552 -2110.783, 1203.552 -2100.783, 1203.552 -2090.783, 1203.552 -2080.783, 1203.552 -2070.783, 1203.552 -2060.783, 1203.552 -2050.783, 1203.552 -2040.783, 1203.552 -2030.783, 1203.552 -2020.783, 1203.552 -2010.783, 1203.552 -2000.783, 1203.552 -1990.783, 1203.552 -1980.783, 1203.552 -1970.783, 1203.552 -1960.783, 1203.552 -1950.783, 1203.552 -1940.783, 1203.552 -1930.783, 1203.552 -1920.783, 1203.552 -1910.783, 1203.552 -1900.783, 1203.552 -1890.783, 1203.552 -1880.783, 1203.552 -1870.783, 1203.552 -1860.783, 1203.552 -1850.783, 1203.552 -1840.783, 1203.552 -1830.783, 1203.552 -1820.783, 1203.552 -1810.783, 1203.552 -1800.783, 1203.552 -1790.783, 1203.552 -1780.783, 1203.552 -1770.783, 1203.552 -1760.783, 1203.552 -1750.783, 1203.552 -1740.783, 1203.552 -1730.783, 1203.552 -1720.783, 1203.552 -1710.783, 1203.552 -1700.783, 1203.552 -1690.783, 1203.552 -1680.783, 1203.552 -1670.783, 1203.552 -1660.783, 1203.552 -1650.783, 1203.552 -1640.783, 1203.552 -1630.783, 1203.552 -1620.783, 1203.552 -1610.783, 1203.552 -1600.783, 1203.552 -1590.783, 1203.552 -1580.783, 1203.552 -1570.783, 1203.552 -1560.783, 1203.552 -1550.783, 1203.552 -1540.783, 1203.552 -1530.783, 1203.552 -1520.783, 1203.552 -1510.783, 1203.552 -1500.783, 1203.552 -1490.783, 1203.552 -1480.783, 1203.552 -1470.783, 1203.552 -1460.783, 1203.552 -1450.783, 1203.552 -1440.783, 1203.552 -1430.783, 1203.552 -1420.783, 1203.552 -1410.783, 1203.552 -1400.783, 1203.552 -1390.783, 1203.552 -1380.783, 1203.552 -1370.783, 1203.552 -1360.783, 1203.552 -1350.783, 1203.552 -1340.783, 1203.552 -1330.783, 1203.552 -1320.783, 1203.552 -1310.783, 1203.552 -1300.783, 1203.552 -1290.783, 1203.552 -1280.783, 1203.552 -1270.783, 1203.552 -1260.783, 1203.552 -1250.783, 1203.552 -1240.783, 1203.552 -1230.783, 1203.552 -1220.783, 1203.552 -1210.783, 1203.552 -1200.783, 1203.552 -1190.783, 1203.552 -1180.783, 1203.552 -1170.783, 1203.552 -1160.783, 1203.552 -1150.783, 1203.552 -1140.783, 1203.552 -1130.783, 1203.552 -1120.783, 1203.552 -1110.783, 1203.552 -1100.783, 1203.552 -1090.783, 1203.552 -1080.783, 1203.552 -1070.783, 1203.552 -1060.783, 1203.552 -1050.783, 1203.552 -1040.783, 1203.552 -1030.783, 1203.552 -1020.783, 1203.552 -1010.783, 1203.552 -1000.783, 1203.552 -990.783, 1203.552 -980.783, 1203.552 -970.783, 1203.552 -960.783, 1203.552 -950.783, 1203.552 -940.783, 1203.552 -930.783, 1203.552 -920.783, 1203.552 -910.783, 1203.552 -900.783, 1203.552 -890.783, 1203.552 -880.783, 1203.552 -870.783, 1203.552 -860.783, 1203.552 -850.783, 1203.552 -840.783, 1203.552 -830.783, 1203.552 -820.783, 1203.552 -810.783, 1203.552 -800.783, 1203.552 -790.783, 1203.552 -780.783, 1203.552 -770.783, 1203.552 -760.783, 1203.552 -750.783, 1203.552 -740.783, 1203.552 -730.783, 1203.552 -720.783, 1203.552 -710.783, 1203.552 -700.783, 1203.552 -690.783, 1203.552 -680.783, 1203.552 -670.783, 1203.552 -660.783, 1203.552 -650.783, 1203.552 -640.783, 1203.552 -630.783, 1203.552 -620.783, 1203.552 -610.783, 1203.552 -600.783, 1203.552 -590.783, 1203.552 -580.783, 1203.552 -570.783, 1203.552 -560.783, 1203.552 -550.783, 1203.552 -540.783, 1203.552 -530.783, 1203.552 -520.783, 1203.552 -510.783, 1203.552 -500.783, 1203.552 -490.783, 1203.552 -480.783, 1203.552 -470.783, 1203.552 -460.783, 1203.552 -450.783, 1203.552 -440.783, 1203.552 -430.783, 1203.552 -420.783, 1203.552 -410.783, 1203.552 -400.783, 1203.552 -390.783, 1203.552 -380.783, 1203.552 -370.783, 1203.552 -360.783, 1203.552 -350.783, 1203.552 -340.783, 1203.552 -330.783, 1203.552 -320.783, 1203.552 -310.783, 1203.552 -300.783, 1203.552 -290.783, 1203.552 -280.783, 1203.552 -270.783, 1203.552 -260.783, 1203.552 -250.783, 1203.552 -240.783, 1203.552 -230.783, 1203.552 -220.783, 1203.552 -210.783, 1203.552 -200.783, 1203.552 -190.783, 1203.552 -180.783, 1203.552 -170.783, 1203.552 -160.783, 1203.552 -150.783, 1203.552 -140.783, 1203.552 -130.783, 1203.552 -120.783, 1203.552 -110.783, 1203.552 -100.783, 1203.552 -90.783, 1203.552 -80.783, 1203.552 -70.783, 1203.552 -60.783, 1203.552 -50.783, 1203.552 -40.783, 1203.552 -30.783, 1203.552 -20.783, 1203.552 -10.783, 1203.552 -0.783, 1203.552 9.217, 1203.552 19.217, 1203.552 29.217, 1203.552 39.217, 1203.552 49.217, 1203.552 59.217, 1203.552 69.217, 1203.552 79.217, 1203.552 89.217, 1203.552 99.217, 1203.552 109.217, 1203.552 119.217, 1203.552 129.217, 1203.552 139.217, 1203.552 149.217, 1203.552 159.217, 1203.552 169.217, 1203.552 179.217, 1203.552 189.217, 1203.552 199.217, 1203.552 209.217, 1203.552 219.217, 1203.552 229.217, 1203.552 239.217, 1203.552 249.217, 1203.552 259.217, 1203.552 269.217, 1203.552 279.217, 1203.552 289.217, 1203.552 299.217, 1203.552 309.217, 1203.552 319.217, 1203.552 329.217, 1203.552 339.217, 1203.552 349.217, 1203.552 359.217, 1203.552 369.217, 1203.552 437.668, 1203.552 437.668, 1203.552 437.668, 1203.552 " />
        </g>
    </g>
<g id="slice-labels"><text x="-6551.6355" y="354.4555" text-anchor="middle" dominant-baseline="middle" font-family="Arial, sans-serif" font-size="60.21051509556385" font-weight="bold" fill="black" stroke="none" stroke-width="7.225261811467662" paint-order="stroke fill">Platte 58 (Front)</text><text x="2304.3454999999994" y="354.4555" text-anchor="middle" dominant-baseline="middle" font-family="Arial, sans-serif" font-size="60.21051509556385" font-weight="bold" fill="black" stroke="none" stroke-width="7.225261811467662" paint-order="stroke fill">Platte 58 (Front)</text><text x="-6551.6355" y="1034.5625" text-anchor="middle" dominant-baseline="middle" font-family="Arial, sans-serif" font-size="60.21051509556385" font-weight="bold" fill="black" stroke="none" stroke-width="7.225261811467662" paint-order="stroke fill">Platte 58 (Front)</text><text x="2304.3454999999994" y="1034.5625" text-anchor="middle" dominant-baseline="middle" font-family="Arial, sans-serif" font-size="60.21051509556385" font-weight="bold" fill="black" stroke="none" stroke-width="7.225261811467662" paint-order="stroke fill">Platte 58 (Front)</text></g></svg>