<?xml version='1.0' encoding='utf-8'?>
<svg xmlns="http://www.w3.org/2000/svg" xmlns:inkscape="http://www.inkscape.org/namespaces/inkscape" version="1.1" width="780.7693400382996mm" height="129.29581785202026mm" viewBox="-5930.13894942274 756.6649293927117 17789.028898845478 334.62214121457686" preserveAspectRatio="none">
    <g id="ViewLayer_LineSet" inkscape:groupmode="lineset" inkscape:label="ViewLayer_LineSet">
        <g inkscape:groupmode="layer" id="strokes" inkscape:label="strokes">
            <path fill="none" stroke-width="3.0" stroke-linecap="butt" stroke-opacity="1.0" stroke="rgb(0, 0, 0)" stroke-linejoin="round" d=" M -5884.571, 1086.111 -5874.571, 1086.106 -5864.571, 1086.101 -5854.571, 1086.095 -5844.571, 1086.090 -5834.571, 1086.085 -5824.571, 1086.080 -5814.571, 1086.075 -5804.571, 1086.070 -5794.571, 1086.065 -5784.571, 1086.060 -5774.571, 1086.054 -5764.571, 1086.049 -5754.571, 1086.044 -5744.571, 1086.039 -5734.571, 1086.034 -5724.571, 1086.029 -5714.571, 1086.024 -5704.571, 1086.019 -5694.571, 1086.014 -5684.571, 1086.008 -5674.571, 1086.003 -5664.571, 1085.998 -5654.571, 1085.993 -5644.571, 1085.988 -5634.571, 1085.983 -5624.571, 1085.978 -5614.571, 1085.973 -5604.571, 1085.967 -5594.571, 1085.962 -5584.571, 1085.957 -5574.571, 1085.952 -5564.571, 1085.947 -5554.571, 1085.942 -5544.571, 1085.937 -5534.571, 1085.932 -5524.571, 1085.927 -5514.571, 1085.921 -5504.571, 1085.916 -5494.571, 1085.911 -5484.571, 1085.906 -5474.571, 1085.901 -5464.571, 1085.896 -5454.571, 1085.891 -5444.571, 1085.886 -5434.571, 1085.880 -5424.571, 1085.875 -5414.571, 1085.870 -5404.571, 1085.865 -5394.571, 1085.860 -5384.571, 1085.855 -5374.571, 1085.850 -5364.571, 1085.845 -5354.571, 1085.840 -5344.571, 1085.834 -5334.571, 1085.829 -5324.571, 1085.824 -5314.571, 1085.819 -5304.571, 1085.814 -5294.571, 1085.809 -5284.571, 1085.804 -5274.571, 1085.799 -5264.571, 1085.794 -5254.571, 1085.788 -5244.571, 1085.783 -5234.571, 1085.778 -5224.571, 1085.773 -5214.571, 1085.768 -5204.571, 1085.763 -5194.571, 1085.758 -5184.571, 1085.753 -5174.571, 1085.747 -5164.571, 1085.742 -5154.571, 1085.737 -5144.571, 1085.732 -5134.571, 1085.727 -5124.571, 1085.722 -5114.571, 1085.717 -5104.571, 1085.712 -5094.571, 1085.707 -5084.571, 1085.701 -5074.571, 1085.696 -5064.571, 1085.691 -5054.571, 1085.686 -5044.571, 1085.681 -5034.571, 1085.676 -5024.571, 1085.671 -5014.571, 1085.666 -5004.571, 1085.660 -4994.571, 1085.655 -4984.571, 1085.650 -4974.571, 1085.645 -4964.571, 1085.640 -4954.571, 1085.635 -4944.571, 1085.630 -4934.571, 1085.625 -4924.571, 1085.620 -4914.571, 1085.614 -4904.571, 1085.609 -4894.571, 1085.604 -4884.571, 1085.599 -4874.571, 1085.594 -4864.571, 1085.589 -4854.571, 1085.584 -4844.571, 1085.579 -4834.571, 1085.574 -4824.571, 1085.568 -4814.571, 1085.563 -4804.571, 1085.558 -4794.571, 1085.553 -4784.571, 1085.548 -4774.571, 1085.543 -4764.571, 1085.538 -4754.571, 1085.533 -4744.571, 1085.527 -4734.571, 1085.522 -4724.571, 1085.517 -4714.571, 1085.512 -4704.571, 1085.507 -4694.571, 1085.502 -4684.571, 1085.497 -4674.571, 1085.492 -4664.571, 1085.487 -4654.571, 1085.481 -4644.571, 1085.476 -4634.571, 1085.471 -4624.571, 1085.466 -4614.571, 1085.461 -4604.571, 1085.456 -4594.571, 1085.451 -4584.571, 1085.446 -4574.571, 1085.440 -4564.571, 1085.435 -4554.571, 1085.430 -4544.571, 1085.425 -4534.571, 1085.420 -4524.571, 1085.415 -4514.571, 1085.410 -4504.571, 1085.405 -4494.571, 1085.400 -4484.571, 1085.394 -4474.571, 1085.389 -4464.571, 1085.384 -4454.571, 1085.379 -4444.571, 1085.374 -4434.571, 1085.369 -4424.571, 1085.364 -4414.571, 1085.359 -4404.571, 1085.353 -4394.571, 1085.348 -4384.571, 1085.343 -4374.571, 1085.338 -4364.571, 1085.333 -4354.571, 1085.328 -4344.571, 1085.323 -4334.571, 1085.318 -4324.571, 1085.313 -4314.571, 1085.307 -4304.571, 1085.302 -4294.571, 1085.297 -4284.571, 1085.292 -4274.571, 1085.287 -4264.571, 1085.282 -4254.571, 1085.277 -4244.571, 1085.272 -4234.571, 1085.267 -4224.571, 1085.261 -4214.571, 1085.256 -4204.571, 1085.251 -4194.571, 1085.246 -4184.571, 1085.241 -4174.571, 1085.236 -4164.571, 1085.231 -4154.571, 1085.226 -4144.571, 1085.220 -4134.571, 1085.215 -4124.571, 1085.210 -4114.571, 1085.205 -4104.571, 1085.200 -4094.571, 1085.195 -4084.571, 1085.190 -4074.571, 1085.185 -4064.571, 1085.180 -4054.571, 1085.174 -4044.571, 1085.169 -4034.571, 1085.164 -4024.571, 1085.159 -4014.571, 1085.154 -4004.571, 1085.149 -3994.571, 1085.144 -3984.571, 1085.139 -3974.571, 1085.133 -3964.571, 1085.128 -3954.571, 1085.123 -3944.571, 1085.118 -3934.571, 1085.113 -3924.571, 1085.108 -3914.571, 1085.103 -3904.571, 1085.098 -3894.571, 1085.093 -3884.571, 1085.087 -3874.571, 1085.082 -3864.571, 1085.077 -3854.571, 1085.072 -3844.571, 1085.067 -3834.571, 1085.062 -3824.571, 1085.057 -3814.571, 1085.052 -3804.571, 1085.046 -3794.571, 1085.041 -3784.571, 1085.036 -3774.571, 1085.031 -3764.571, 1085.026 -3754.571, 1085.021 -3744.571, 1085.016 -3734.571, 1085.011 -3724.571, 1085.006 -3714.571, 1085.000 -3704.571, 1084.995 -3694.571, 1084.990 -3684.571, 1084.985 -3674.571, 1084.980 -3664.571, 1084.975 -3654.571, 1084.970 -3644.571, 1084.965 -3634.571, 1084.960 -3624.571, 1084.954 -3614.571, 1084.949 -3604.571, 1084.944 -3594.571, 1084.939 -3584.571, 1084.934 -3574.571, 1084.929 -3564.571, 1084.924 -3554.571, 1084.919 -3544.571, 1084.913 -3534.571, 1084.908 -3524.571, 1084.903 -3514.571, 1084.898 -3504.571, 1084.893 -3494.571, 1084.888 -3484.571, 1084.883 -3474.571, 1084.878 -3464.571, 1084.873 -3454.571, 1084.867 -3444.571, 1084.862 -3434.571, 1084.857 -3424.571, 1084.852 -3414.571, 1084.847 -3404.571, 1084.842 -3394.571, 1084.837 -3384.571, 1084.832 -3374.571, 1084.826 -3364.571, 1084.821 -3354.571, 1084.816 -3344.571, 1084.811 -3334.571, 1084.806 -3324.571, 1084.801 -3314.571, 1084.796 -3304.571, 1084.791 -3294.571, 1084.786 -3284.571, 1084.780 -3274.571, 1084.775 -3264.571, 1084.770 -3254.571, 1084.765 -3244.571, 1084.760 -3234.571, 1084.755 -3224.571, 1084.750 -3214.571, 1084.745 -3204.571, 1084.739 -3194.571, 1084.734 -3184.571, 1084.729 -3174.571, 1084.724 -3164.571, 1084.719 -3154.571, 1084.714 -3144.571, 1084.709 -3134.571, 1084.704 -3124.571, 1084.699 -3114.571, 1084.693 -3104.571, 1084.688 -3094.571, 1084.683 -3084.571, 1084.678 -3074.571, 1084.673 -3064.571, 1084.668 -3054.571, 1084.663 -3044.571, 1084.658 -3034.571, 1084.652 -3024.571, 1084.647 -3014.571, 1084.642 -3004.571, 1084.637 -2994.571, 1084.632 -2984.571, 1084.627 -2974.571, 1084.622 -2964.571, 1084.617 -2954.571, 1084.612 -2944.571, 1084.606 -2934.571, 1084.601 -2924.571, 1084.596 -2914.571, 1084.591 -2904.571, 1084.586 -2894.571, 1084.581 -2884.571, 1084.576 -2874.571, 1084.571 -2864.571, 1084.566 -2854.571, 1084.560 -2844.571, 1084.555 -2834.571, 1084.550 -2824.571, 1084.545 -2814.572, 1084.540 -2804.572, 1084.535 -2794.572, 1084.530 -2784.572, 1084.525 -2774.572, 1084.519 -2764.572, 1084.514 -2754.572, 1084.509 -2744.572, 1084.504 -2734.572, 1084.499 -2724.572, 1084.494 -2714.572, 1084.489 -2704.572, 1084.484 -2694.571, 1084.479 -2684.571, 1084.473 -2674.571, 1084.468 -2664.571, 1084.463 -2654.571, 1084.458 -2644.571, 1084.453 -2634.571, 1084.448 -2624.571, 1084.443 -2614.571, 1084.438 -2604.571, 1084.432 -2594.571, 1084.427 -2584.571, 1084.422 -2574.571, 1084.417 -2564.571, 1084.412 -2554.571, 1084.407 -2544.571, 1084.402 -2534.571, 1084.397 -2524.571, 1084.392 -2514.571, 1084.386 -2504.571, 1084.381 -2494.572, 1084.376 -2484.572, 1084.371 -2474.572, 1084.366 -2464.572, 1084.361 -2454.572, 1084.356 -2444.572, 1084.351 -2434.572, 1084.345 -2424.572, 1084.340 -2414.572, 1084.335 -2404.572, 1084.330 -2394.572, 1084.325 -2384.572, 1084.320 -2374.572, 1084.315 -2364.572, 1084.310 -2354.572, 1084.305 -2344.572, 1084.299 -2334.572, 1084.294 -2324.571, 1084.289 -2314.571, 1084.284 -2304.571, 1084.279 -2294.571, 1084.274 -2284.571, 1084.269 -2274.571, 1084.264 -2264.571, 1084.259 -2254.571, 1084.253 -2244.571, 1084.248 -2234.571, 1084.243 -2224.571, 1084.238 -2214.571, 1084.233 -2204.571, 1084.228 -2194.571, 1084.223 -2184.571, 1084.218 -2174.572, 1084.212 -2164.572, 1084.207 -2154.572, 1084.202 -2144.572, 1084.197 -2134.572, 1084.192 -2124.572, 1084.187 -2114.572, 1084.182 -2104.572, 1084.177 -2094.572, 1084.172 -2084.572, 1084.166 -2074.572, 1084.161 -2064.572, 1084.156 -2054.572, 1084.151 -2044.572, 1084.146 -2034.572, 1084.141 -2024.572, 1084.136 -2014.572, 1084.131 -2004.572, 1084.125 -1994.572, 1084.120 -1984.572, 1084.115 -1974.572, 1084.110 -1964.572, 1084.105 -1954.572, 1084.100 -1944.571, 1084.095 -1934.571, 1084.090 -1924.571, 1084.085 -1914.571, 1084.079 -1904.571, 1084.074 -1894.571, 1084.069 -1884.571, 1084.064 -1874.571, 1084.059 -1864.571, 1084.054 -1854.571, 1084.049 -1844.571, 1084.044 -1834.571, 1084.039 -1824.571, 1084.033 -1814.571, 1084.028 -1804.572, 1084.023 -1794.572, 1084.018 -1784.572, 1084.013 -1774.572, 1084.008 -1764.572, 1084.003 -1754.572, 1083.998 -1744.572, 1083.992 -1734.572, 1083.987 -1724.572, 1083.982 -1714.572, 1083.977 -1704.572, 1083.972 -1694.572, 1083.967 -1684.572, 1083.962 -1674.572, 1083.957 -1664.572, 1083.952 -1654.572, 1083.946 -1644.572, 1083.941 -1634.572, 1083.936 -1624.572, 1083.931 -1614.572, 1083.926 -1604.572, 1083.921 -1594.572, 1083.916 -1584.572, 1083.911 -1574.571, 1083.905 -1564.571, 1083.900 -1554.571, 1083.895 -1544.571, 1083.890 -1534.571, 1083.885 -1524.571, 1083.880 -1514.571, 1083.875 -1504.571, 1083.870 -1494.571, 1083.865 -1484.572, 1083.859 -1474.572, 1083.854 -1464.572, 1083.849 -1454.572, 1083.844 -1444.572, 1083.839 -1434.572, 1083.834 -1424.572, 1083.829 -1414.572, 1083.824 -1404.572, 1083.818 -1394.572, 1083.813 -1384.572, 1083.808 -1374.572, 1083.803 -1364.572, 1083.798 -1354.572, 1083.793 -1344.572, 1083.788 -1334.572, 1083.783 -1324.572, 1083.778 -1314.572, 1083.772 -1304.572, 1083.767 -1294.572, 1083.762 -1284.572, 1083.757 -1274.572, 1083.752 -1264.572, 1083.747 -1254.572, 1083.742 -1244.572, 1083.737 -1234.572, 1083.732 -1224.572, 1083.726 -1214.572, 1083.721 -1204.571, 1083.716 -1194.571, 1083.711 -1184.571, 1083.706 -1174.571, 1083.701 -1164.572, 1083.696 -1154.572, 1083.691 -1144.572, 1083.685 -1134.572, 1083.680 -1124.572, 1083.675 -1114.572, 1083.670 -1104.572, 1083.665 -1094.572, 1083.660 -1084.572, 1083.655 -1074.572, 1083.650 -1064.572, 1083.645 -1054.572, 1083.639 -1044.572, 1083.634 -1034.572, 1083.629 -1024.572, 1083.624 -1014.572, 1083.619 -1004.572, 1083.614 -994.572, 1083.609 -984.572, 1083.604 -974.572, 1083.598 -964.572, 1083.593 -954.572, 1083.588 -944.572, 1083.583 -934.572, 1083.578 -924.572, 1083.573 -914.572, 1083.568 -904.572, 1083.563 -894.572, 1083.558 -884.572, 1083.552 -874.572, 1083.547 -864.572, 1083.542 -854.572, 1083.537 -844.572, 1083.532 -834.572, 1083.527 -824.572, 1083.522 -814.572, 1083.517 -804.572, 1083.511 -794.572, 1083.506 -784.572, 1083.501 -774.572, 1083.496 -764.572, 1083.491 -754.572, 1083.486 -744.572, 1083.481 -734.572, 1083.476 -724.572, 1083.471 -714.572, 1083.465 -704.572, 1083.460 -694.572, 1083.455 -684.572, 1083.450 -674.572, 1083.445 -664.572, 1083.440 -654.572, 1083.435 -644.572, 1083.430 -634.572, 1083.424 -624.572, 1083.419 -614.572, 1083.414 -604.572, 1083.409 -594.572, 1083.404 -584.572, 1083.399 -574.572, 1083.394 -564.572, 1083.389 -554.572, 1083.384 -544.572, 1083.378 -534.572, 1083.373 -524.572, 1083.368 -514.572, 1083.363 -504.572, 1083.358 -494.572, 1083.353 -484.572, 1083.348 -474.572, 1083.343 -464.572, 1083.338 -454.572, 1083.332 -444.572, 1083.327 -434.572, 1083.322 -424.572, 1083.317 -414.572, 1083.312 -404.572, 1083.307 -394.572, 1083.302 -384.572, 1083.297 -374.572, 1083.291 -364.572, 1083.286 -354.572, 1083.281 -344.572, 1083.276 -334.572, 1083.271 -324.572, 1083.266 -314.572, 1083.261 -304.572, 1083.256 -294.572, 1083.251 -284.572, 1083.245 -274.572, 1083.240 -264.572, 1083.235 -254.572, 1083.230 -244.572, 1083.225 -234.572, 1083.220 -224.572, 1083.215 -214.572, 1083.210 -204.572, 1083.204 -194.572, 1083.199 -184.572, 1083.194 -174.572, 1083.189 -164.572, 1083.184 -154.572, 1083.179 -144.572, 1083.174 -134.572, 1083.169 -124.572, 1083.164 -114.572, 1083.158 -104.572, 1083.153 -94.572, 1083.148 -84.572, 1083.143 -74.572, 1083.138 -64.572, 1083.133 -54.572, 1083.128 -44.572, 1083.123 -34.572, 1083.117 -24.572, 1083.112 35.818, 1083.081 " />
            <path fill="none" stroke-width="3.0" stroke-linecap="butt" stroke-opacity="1.0" stroke="rgb(0, 0, 0)" stroke-linejoin="round" d=" M 163.939, 1029.634 153.939, 1029.621 143.939, 1029.608 133.939, 1029.594 123.939, 1029.581 113.939, 1029.568 103.939, 1029.554 93.939, 1029.541 83.939, 1029.527 73.939, 1029.514 63.939, 1029.501 53.939, 1029.487 43.939, 1029.474 39.126, 1029.467 " />
            <path fill="none" stroke-width="3.0" stroke-linecap="butt" stroke-opacity="1.0" stroke="rgb(0, 0, 0)" stroke-linejoin="round" d=" M 163.939, 1029.634 153.939, 1029.606 143.939, 1029.578 133.939, 1029.550 123.939, 1029.522 113.939, 1029.494 103.939, 1029.466 93.939, 1029.438 83.939, 1029.410 73.939, 1029.382 63.939, 1029.354 53.939, 1029.326 43.939, 1029.298 39.137, 1029.285 " />
            <path fill="none" stroke-width="3.0" stroke-linecap="butt" stroke-opacity="1.0" stroke="rgb(0, 0, 0)" stroke-linejoin="round" d=" M 1862.118, 992.901 1852.121, 993.117 1842.123, 993.333 1832.125, 993.550 1829.624, 993.604 " />
            <path fill="none" stroke-width="3.0" stroke-linecap="butt" stroke-opacity="1.0" stroke="rgb(0, 0, 0)" stroke-linejoin="round" d=" M 1829.624, 993.604 1819.627, 993.820 1809.629, 994.036 1799.631, 994.253 1789.634, 994.469 1779.636, 994.685 1769.638, 994.901 1759.641, 995.118 1749.643, 995.334 1739.645, 995.550 1729.648, 995.766 1719.650, 995.983 1709.652, 996.199 1699.655, 996.415 1689.657, 996.631 1679.659, 996.848 1669.662, 997.064 1659.664, 997.280 1649.666, 997.496 1639.669, 997.713 1629.671, 997.929 1619.673, 998.145 1609.676, 998.362 1599.678, 998.578 1589.680, 998.794 1579.683, 999.010 1569.685, 999.227 1559.687, 999.443 1549.690, 999.659 1539.692, 999.875 1529.694, 1000.092 1519.697, 1000.308 1509.699, 1000.524 1499.701, 1000.740 1489.704, 1000.957 1479.706, 1001.173 1469.708, 1001.389 1459.711, 1001.605 1449.713, 1001.822 1439.715, 1002.038 1429.718, 1002.254 1419.720, 1002.470 1409.723, 1002.687 1399.725, 1002.903 1389.727, 1003.119 1379.729, 1003.336 1369.732, 1003.552 1359.734, 1003.768 1349.737, 1003.984 1339.739, 1004.201 1329.741, 1004.417 1319.744, 1004.633 1309.746, 1004.849 1299.748, 1005.066 1289.751, 1005.282 1279.753, 1005.498 1269.755, 1005.714 1259.758, 1005.931 1249.760, 1006.147 1239.762, 1006.363 1229.765, 1006.579 1219.767, 1006.796 1209.769, 1007.012 1199.772, 1007.228 1189.774, 1007.444 1179.776, 1007.661 1169.779, 1007.877 1159.781, 1008.093 1149.783, 1008.310 1139.786, 1008.526 1129.788, 1008.742 1119.790, 1008.958 1109.793, 1009.175 1099.795, 1009.391 1089.797, 1009.607 1079.800, 1009.823 1069.802, 1010.040 1059.804, 1010.256 1049.807, 1010.472 1039.809, 1010.688 1029.811, 1010.905 1019.814, 1011.121 1009.816, 1011.337 999.818, 1011.553 989.821, 1011.770 979.823, 1011.986 969.825, 1012.202 959.828, 1012.418 949.830, 1012.635 939.832, 1012.851 929.835, 1013.067 919.837, 1013.284 909.839, 1013.500 899.842, 1013.716 889.844, 1013.932 879.846, 1014.149 869.849, 1014.365 859.851, 1014.581 849.853, 1014.797 839.856, 1015.014 829.858, 1015.230 819.860, 1015.446 809.863, 1015.662 799.865, 1015.879 789.867, 1016.095 779.870, 1016.311 769.872, 1016.527 759.875, 1016.744 749.877, 1016.960 739.879, 1017.176 729.882, 1017.392 719.884, 1017.609 709.886, 1017.825 699.889, 1018.041 689.891, 1018.258 679.893, 1018.474 669.896, 1018.690 659.898, 1018.906 649.900, 1019.123 639.903, 1019.339 629.905, 1019.555 619.907, 1019.771 609.910, 1019.988 599.912, 1020.204 589.914, 1020.420 579.917, 1020.636 569.919, 1020.853 559.921, 1021.069 549.924, 1021.285 539.926, 1021.501 529.928, 1021.718 519.931, 1021.934 509.933, 1022.150 499.935, 1022.366 489.938, 1022.583 479.940, 1022.799 469.942, 1023.015 459.945, 1023.232 449.947, 1023.448 439.949, 1023.664 429.952, 1023.880 419.954, 1024.097 409.956, 1024.313 399.959, 1024.529 389.961, 1024.745 379.963, 1024.962 369.966, 1025.178 359.968, 1025.394 349.970, 1025.610 339.973, 1025.827 329.975, 1026.043 319.977, 1026.259 309.980, 1026.475 299.982, 1026.692 289.984, 1026.908 279.987, 1027.124 269.989, 1027.340 259.992, 1027.557 249.994, 1027.773 239.996, 1027.989 229.998, 1028.206 220.001, 1028.422 210.003, 1028.638 200.005, 1028.854 190.008, 1029.071 163.939, 1029.634 173.939, 1029.611 183.939, 1029.588 193.939, 1029.564 203.939, 1029.541 213.939, 1029.518 223.939, 1029.494 233.939, 1029.471 243.939, 1029.447 253.939, 1029.424 263.939, 1029.401 273.939, 1029.377 283.939, 1029.354 293.939, 1029.330 303.939, 1029.307 313.939, 1029.284 323.939, 1029.260 333.939, 1029.237 343.939, 1029.213 353.938, 1029.190 363.938, 1029.167 373.938, 1029.143 383.938, 1029.120 393.938, 1029.096 403.938, 1029.073 413.938, 1029.050 423.938, 1029.026 433.938, 1029.003 443.938, 1028.979 453.938, 1028.956 463.938, 1028.933 473.938, 1028.909 483.938, 1028.886 493.938, 1028.863 503.938, 1028.839 513.938, 1028.816 523.938, 1028.792 533.938, 1028.769 543.938, 1028.746 553.938, 1028.722 563.938, 1028.699 573.938, 1028.675 583.938, 1028.652 593.938, 1028.629 603.938, 1028.605 613.938, 1028.582 623.938, 1028.558 633.938, 1028.535 643.938, 1028.512 653.938, 1028.488 663.938, 1028.465 673.938, 1028.441 683.938, 1028.418 693.938, 1028.395 703.938, 1028.371 713.938, 1028.348 723.938, 1028.324 733.937, 1028.301 743.937, 1028.278 753.937, 1028.254 767.276, 1028.223 777.271, 1027.901 787.266, 1027.578 797.261, 1027.256 807.255, 1026.933 817.250, 1026.611 827.245, 1026.288 837.240, 1025.966 847.235, 1025.643 857.229, 1025.321 867.224, 1024.999 877.219, 1024.676 887.214, 1024.354 897.209, 1024.031 907.203, 1023.709 917.198, 1023.386 927.193, 1023.064 937.188, 1022.741 947.183, 1022.419 957.177, 1022.096 967.172, 1021.774 977.167, 1021.452 987.162, 1021.129 997.157, 1020.807 1007.151, 1020.484 1017.146, 1020.162 1027.141, 1019.839 1037.136, 1019.517 1047.131, 1019.194 1057.125, 1018.872 1067.120, 1018.549 1077.115, 1018.227 1087.110, 1017.904 1097.105, 1017.582 1107.099, 1017.260 1117.094, 1016.937 1127.089, 1016.615 1137.084, 1016.292 1147.079, 1015.970 1157.073, 1015.647 1167.068, 1015.325 1177.063, 1015.002 1187.058, 1014.680 1197.053, 1014.357 1207.047, 1014.035 1217.042, 1013.713 1227.037, 1013.390 1237.032, 1013.068 1247.027, 1012.745 1257.021, 1012.423 1267.016, 1012.100 1277.011, 1011.778 1287.006, 1011.455 1297.001, 1011.133 1306.995, 1010.810 1316.990, 1010.488 1326.985, 1010.166 1336.980, 1009.843 1346.975, 1009.521 1356.969, 1009.198 1366.964, 1008.876 1376.959, 1008.553 1386.954, 1008.231 1396.949, 1007.908 1406.943, 1007.586 1416.938, 1007.263 1426.933, 1006.941 1436.928, 1006.619 1446.923, 1006.296 1456.917, 1005.974 1466.912, 1005.651 1476.907, 1005.329 1486.902, 1005.006 1496.897, 1004.684 1506.891, 1004.361 1516.886, 1004.039 1526.881, 1003.716 1536.876, 1003.394 1546.871, 1003.072 1556.865, 1002.749 1566.860, 1002.427 1576.855, 1002.104 1586.850, 1001.782 1596.845, 1001.459 1606.839, 1001.137 1616.834, 1000.814 1626.829, 1000.492 1636.824, 1000.169 1646.819, 999.847 1656.813, 999.524 1666.808, 999.202 1676.803, 998.880 1686.798, 998.557 1696.793, 998.235 1706.787, 997.912 1716.782, 997.590 1726.777, 997.267 1736.772, 996.945 1746.767, 996.622 1756.761, 996.300 1766.756, 995.977 1776.751, 995.655 1786.746, 995.333 1796.741, 995.010 1806.735, 994.688 1816.730, 994.365 1829.530, 993.952 " />
            <path fill="none" stroke-width="3.0" stroke-linecap="butt" stroke-opacity="1.0" stroke="rgb(0, 0, 0)" stroke-linejoin="round" d=" M 2410.776, 985.807 2400.777, 985.937 2390.777, 986.066 2380.778, 986.195 2370.779, 986.324 2360.780, 986.454 2350.781, 986.583 2340.781, 986.712 2330.782, 986.841 2320.783, 986.971 2310.784, 987.100 2300.785, 987.229 2290.786, 987.359 2280.787, 987.488 2270.787, 987.617 2260.788, 987.746 2250.789, 987.876 2240.790, 988.005 2230.791, 988.134 2220.792, 988.264 2210.792, 988.393 2200.793, 988.522 2190.794, 988.651 2180.795, 988.781 2170.796, 988.910 2160.797, 989.039 2150.797, 989.169 2140.798, 989.298 2130.799, 989.427 2120.800, 989.556 2110.801, 989.686 2100.802, 989.815 2090.802, 989.944 2080.803, 990.073 2070.804, 990.203 2060.805, 990.332 2050.806, 990.461 2040.807, 990.591 2030.807, 990.720 2020.808, 990.849 2010.809, 990.978 2000.810, 991.108 1990.811, 991.237 1980.812, 991.366 1970.812, 991.496 1960.813, 991.625 1950.814, 991.754 1940.815, 991.883 1930.816, 992.013 1920.817, 992.142 1910.817, 992.271 1900.818, 992.401 1890.819, 992.530 1880.820, 992.659 1870.821, 992.788 1862.118, 992.901 1852.123, 993.223 1842.129, 993.546 1832.134, 993.868 1829.530, 993.952 " />
            <path fill="none" stroke-width="3.0" stroke-linecap="butt" stroke-opacity="1.0" stroke="rgb(0, 0, 0)" stroke-linejoin="round" d=" M 8361.974, 996.249 8371.967, 996.624 8381.959, 996.999 8391.952, 997.375 8401.945, 997.750 8411.938, 998.125 8421.932, 998.501 8431.924, 998.876 8441.917, 999.251 8451.910, 999.627 8461.903, 1000.002 8471.540, 1000.364 8481.502, 1001.229 8491.465, 1002.095 8501.428, 1002.960 8511.390, 1003.826 8521.353, 1004.691 8531.314, 1005.556 8541.277, 1006.422 8551.239, 1007.287 8561.202, 1008.152 8571.165, 1009.018 8581.127, 1009.883 8591.090, 1010.749 8601.052, 1011.614 8611.015, 1012.479 8620.978, 1013.345 8630.939, 1014.210 8638.773, 1014.891 8648.752, 1014.242 8658.731, 1013.594 8668.710, 1012.946 8678.689, 1012.298 8688.668, 1011.650 8698.647, 1011.002 8708.626, 1010.354 8718.605, 1009.706 8728.584, 1009.057 8738.563, 1008.409 8748.542, 1007.761 8758.521, 1007.113 8768.500, 1006.465 8770.253, 1006.351 " />
            <path fill="none" stroke-width="3.0" stroke-linecap="butt" stroke-opacity="1.0" stroke="rgb(0, 0, 0)" stroke-linejoin="round" d=" M 667.801, 946.321 672.547, 937.519 674.355, 934.167 679.102, 925.365 683.325, 917.532 686.977, 910.760 691.723, 901.958 696.469, 893.156 701.215, 884.354 705.961, 875.552 710.707, 866.750 715.453, 857.948 720.200, 849.146 724.946, 840.344 729.692, 831.543 734.438, 822.741 739.184, 813.939 743.448, 806.030 748.195, 797.228 752.941, 788.427 757.687, 779.625 762.433, 770.823 767.276, 761.841 757.358, 763.116 747.440, 764.392 737.521, 765.668 727.603, 766.943 717.685, 768.219 707.766, 769.495 697.848, 770.770 687.930, 772.046 678.011, 773.322 668.093, 774.597 658.175, 775.873 648.257, 777.149 638.338, 778.424 628.420, 779.700 618.502, 780.976 608.583, 782.251 598.665, 783.527 588.747, 784.803 578.828, 786.078 568.910, 787.354 558.992, 788.630 553.910, 789.283 " />
            <path fill="none" stroke-width="3.0" stroke-linecap="butt" stroke-opacity="1.0" stroke="rgb(0, 0, 0)" stroke-linejoin="round" d=" M 39.126, 1029.467 29.126, 1029.454 19.126, 1029.440 9.126, 1029.427 -0.874, 1029.414 -10.874, 1029.400 -20.874, 1029.387 -30.874, 1029.374 -40.874, 1029.360 -50.874, 1029.347 -60.874, 1029.333 -70.874, 1029.320 -80.874, 1029.307 -90.874, 1029.293 -100.874, 1029.280 -110.874, 1029.266 -120.874, 1029.253 -130.874, 1029.240 -140.874, 1029.226 -150.874, 1029.213 -160.874, 1029.199 -170.874, 1029.186 -180.874, 1029.173 -190.874, 1029.159 -200.874, 1029.146 -210.874, 1029.132 -220.874, 1029.119 -230.874, 1029.106 -240.874, 1029.092 -250.874, 1029.079 -260.874, 1029.065 -270.874, 1029.052 -280.874, 1029.039 -290.874, 1029.025 -300.874, 1029.012 -310.874, 1028.998 -315.898, 1028.992 " />
            <path fill="none" stroke-width="3.0" stroke-linecap="butt" stroke-opacity="1.0" stroke="rgb(0, 0, 0)" stroke-linejoin="round" d=" M 39.137, 1029.285 29.137, 1029.257 19.137, 1029.229 9.137, 1029.201 -0.863, 1029.173 -10.863, 1029.145 -20.863, 1029.117 -30.863, 1029.089 -40.863, 1029.061 -50.862, 1029.033 -60.862, 1029.005 -70.862, 1028.977 -80.862, 1028.949 -90.862, 1028.921 -100.862, 1028.893 -110.862, 1028.865 -120.862, 1028.837 -130.862, 1028.809 -140.862, 1028.781 -150.862, 1028.753 -160.862, 1028.725 -170.862, 1028.697 -180.862, 1028.669 -190.862, 1028.641 -200.862, 1028.613 -210.862, 1028.585 -220.862, 1028.557 -230.862, 1028.529 -240.862, 1028.501 -250.862, 1028.473 -260.862, 1028.445 -270.862, 1028.417 -280.862, 1028.389 -290.862, 1028.361 -300.862, 1028.332 -310.861, 1028.305 -320.861, 1028.276 -330.861, 1028.248 -339.923, 1028.223 " />
            <path fill="none" stroke-width="3.0" stroke-linecap="butt" stroke-opacity="1.0" stroke="rgb(0, 0, 0)" stroke-linejoin="round" d=" M 9056.303, 1078.466 9066.303, 1078.461 9076.303, 1078.456 9086.303, 1078.451 9096.303, 1078.445 9106.303, 1078.440 9116.303, 1078.435 9126.303, 1078.430 9136.303, 1078.425 9146.303, 1078.420 9156.303, 1078.415 9166.303, 1078.410 9176.303, 1078.405 9186.303, 1078.399 9196.303, 1078.394 9206.303, 1078.389 9216.303, 1078.384 9226.303, 1078.379 9236.303, 1078.374 9246.303, 1078.369 9256.303, 1078.364 9266.303, 1078.359 9276.303, 1078.353 9286.303, 1078.348 9296.303, 1078.343 9306.303, 1078.338 9316.303, 1078.333 9326.303, 1078.328 9336.303, 1078.323 9346.303, 1078.318 9356.303, 1078.312 9366.303, 1078.307 9376.303, 1078.302 9386.303, 1078.297 9396.303, 1078.292 9406.303, 1078.287 9416.303, 1078.282 9426.303, 1078.277 9436.303, 1078.272 9446.303, 1078.266 9456.303, 1078.261 9466.303, 1078.256 9476.303, 1078.251 9486.303, 1078.246 9496.303, 1078.241 9506.303, 1078.236 9516.303, 1078.231 9526.303, 1078.225 9536.303, 1078.220 9546.303, 1078.215 9556.303, 1078.210 9566.303, 1078.205 9576.303, 1078.200 9586.303, 1078.195 9596.303, 1078.190 9606.303, 1078.185 9616.303, 1078.179 9626.303, 1078.174 9636.303, 1078.169 9646.303, 1078.164 9656.303, 1078.159 9666.303, 1078.154 9676.303, 1078.149 9686.303, 1078.144 9696.303, 1078.139 9706.303, 1078.133 9716.303, 1078.128 9726.303, 1078.123 9736.303, 1078.118 9746.303, 1078.113 9756.303, 1078.108 9766.303, 1078.103 9776.303, 1078.098 9786.303, 1078.092 9796.303, 1078.087 9806.303, 1078.082 9816.303, 1078.077 9826.303, 1078.072 9836.303, 1078.067 9846.303, 1078.062 9856.303, 1078.057 9866.303, 1078.052 9876.303, 1078.046 9886.303, 1078.041 9896.303, 1078.036 9906.303, 1078.031 9916.303, 1078.026 9926.303, 1078.021 9936.303, 1078.016 9946.303, 1078.011 9956.303, 1078.005 9966.303, 1078.000 9976.303, 1077.995 9986.303, 1077.990 9996.303, 1077.985 10006.303, 1077.980 10016.303, 1077.975 10026.303, 1077.970 10036.303, 1077.965 10046.303, 1077.959 10056.303, 1077.954 10066.303, 1077.949 10076.303, 1077.944 10086.303, 1077.939 10096.303, 1077.934 10106.303, 1077.929 10116.303, 1077.924 10126.303, 1077.918 10136.303, 1077.913 10146.303, 1077.908 10156.303, 1077.903 10166.303, 1077.898 10176.303, 1077.893 10186.303, 1077.888 10196.303, 1077.883 10206.303, 1077.878 10216.303, 1077.872 10226.303, 1077.867 10236.303, 1077.862 10246.303, 1077.857 10256.303, 1077.852 10266.303, 1077.847 10276.303, 1077.842 10286.303, 1077.837 10296.303, 1077.832 10306.303, 1077.826 10316.303, 1077.821 10326.303, 1077.816 10336.303, 1077.811 10346.303, 1077.806 10356.303, 1077.801 10366.303, 1077.796 10376.303, 1077.791 10386.303, 1077.785 10396.303, 1077.780 10406.303, 1077.775 10416.303, 1077.770 10426.303, 1077.765 10436.303, 1077.760 10446.303, 1077.755 10456.303, 1077.750 10466.303, 1077.745 10476.303, 1077.739 10486.303, 1077.734 10496.303, 1077.729 10506.303, 1077.724 10516.303, 1077.719 10526.303, 1077.714 10536.303, 1077.709 10546.303, 1077.704 10556.303, 1077.698 10566.303, 1077.693 10576.303, 1077.688 10586.303, 1077.683 10596.303, 1077.678 10606.303, 1077.673 10616.303, 1077.668 10626.303, 1077.663 10636.303, 1077.658 10646.303, 1077.652 10656.303, 1077.647 10666.303, 1077.642 10676.303, 1077.637 10686.303, 1077.632 10696.303, 1077.627 10706.303, 1077.622 10716.303, 1077.617 10726.303, 1077.611 10736.303, 1077.606 10746.303, 1077.601 10756.303, 1077.596 10766.303, 1077.591 10776.303, 1077.586 10786.303, 1077.581 10796.303, 1077.576 10806.303, 1077.571 10816.303, 1077.565 10826.303, 1077.560 10836.303, 1077.555 10846.303, 1077.550 10856.303, 1077.545 10866.303, 1077.540 10876.303, 1077.535 10886.303, 1077.530 10896.303, 1077.525 10906.303, 1077.519 10916.303, 1077.514 10926.303, 1077.509 10936.303, 1077.504 10946.303, 1077.499 10956.303, 1077.494 10966.303, 1077.489 10976.303, 1077.484 10986.303, 1077.478 10996.303, 1077.473 11006.303, 1077.468 11016.303, 1077.463 11026.303, 1077.458 11036.303, 1077.453 11046.303, 1077.448 11056.303, 1077.443 11066.303, 1077.438 11076.303, 1077.432 11086.303, 1077.427 11096.303, 1077.422 11106.303, 1077.417 11116.303, 1077.412 11126.303, 1077.407 11136.303, 1077.402 11146.303, 1077.397 11156.303, 1077.391 11166.303, 1077.386 11176.303, 1077.381 11186.303, 1077.376 11196.303, 1077.371 11206.303, 1077.366 11216.303, 1077.361 11226.303, 1077.356 11236.303, 1077.351 11246.303, 1077.345 11256.303, 1077.340 11266.303, 1077.335 11276.303, 1077.330 11286.303, 1077.325 11296.303, 1077.320 11306.303, 1077.315 11316.303, 1077.310 11326.303, 1077.304 11336.303, 1077.299 11346.303, 1077.294 11356.303, 1077.289 11366.303, 1077.284 11376.303, 1077.279 11386.303, 1077.274 11396.303, 1077.269 11406.303, 1077.264 11416.303, 1077.258 11426.303, 1077.253 11436.303, 1077.248 11446.303, 1077.243 11456.303, 1077.238 11466.303, 1077.233 11476.303, 1077.228 11486.303, 1077.223 11496.303, 1077.217 11506.303, 1077.212 11516.303, 1077.207 11526.303, 1077.202 11536.303, 1077.197 11546.303, 1077.192 11556.303, 1077.187 11566.303, 1077.182 11576.303, 1077.177 11586.303, 1077.171 11596.303, 1077.166 11606.303, 1077.161 11616.303, 1077.156 11626.303, 1077.151 11636.303, 1077.146 11646.303, 1077.141 11656.303, 1077.136 11666.303, 1077.131 11676.303, 1077.125 11686.303, 1077.120 11696.303, 1077.115 11706.303, 1077.110 11716.303, 1077.105 11726.303, 1077.100 11736.303, 1077.095 11746.303, 1077.090 11756.303, 1077.084 11766.303, 1077.079 11776.303, 1077.074 11813.322, 1077.055 " />
            <path fill="none" stroke-width="3.0" stroke-linecap="butt" stroke-opacity="1.0" stroke="rgb(0, 0, 0)" stroke-linejoin="round" d=" M 6128.832, 1079.964 6138.832, 1079.959 6148.832, 1079.954 6158.832, 1079.949 6168.832, 1079.943 6178.832, 1079.938 6188.832, 1079.933 6198.832, 1079.928 6208.832, 1079.923 6218.832, 1079.918 6228.832, 1079.913 6238.832, 1079.908 6248.832, 1079.902 6258.832, 1079.897 6268.832, 1079.892 6278.832, 1079.887 6288.832, 1079.882 6298.832, 1079.877 6308.832, 1079.872 6318.832, 1079.867 6328.832, 1079.862 6338.832, 1079.856 6348.832, 1079.851 6358.832, 1079.846 6368.832, 1079.841 6378.832, 1079.836 6388.832, 1079.831 6398.832, 1079.826 6408.832, 1079.821 6418.832, 1079.815 6428.832, 1079.810 6438.832, 1079.805 6448.832, 1079.800 6458.832, 1079.795 6468.832, 1079.790 6478.832, 1079.785 6488.832, 1079.780 6498.832, 1079.775 6508.832, 1079.769 6518.832, 1079.764 6528.832, 1079.759 6538.832, 1079.754 6548.832, 1079.749 6558.832, 1079.744 6568.832, 1079.739 6578.832, 1079.734 6588.832, 1079.729 6598.832, 1079.723 6608.832, 1079.718 6618.832, 1079.713 6628.832, 1079.708 6638.832, 1079.703 6648.832, 1079.698 6658.832, 1079.693 6668.832, 1079.688 6678.832, 1079.682 6688.832, 1079.677 6698.832, 1079.672 6708.832, 1079.667 6718.832, 1079.662 6728.832, 1079.657 6738.832, 1079.652 6748.832, 1079.647 6758.832, 1079.642 6768.832, 1079.636 6778.832, 1079.631 6788.832, 1079.626 6798.832, 1079.621 6808.832, 1079.616 6818.832, 1079.611 6828.832, 1079.606 6838.832, 1079.601 6848.832, 1079.595 6858.832, 1079.590 6868.832, 1079.585 6878.832, 1079.580 6888.832, 1079.575 6898.832, 1079.570 6908.832, 1079.565 6918.832, 1079.560 6928.832, 1079.555 6938.832, 1079.549 6948.832, 1079.544 6958.832, 1079.539 6968.832, 1079.534 6978.832, 1079.529 6988.832, 1079.524 6998.832, 1079.519 7008.832, 1079.514 7018.832, 1079.508 7028.832, 1079.503 7038.832, 1079.498 7048.832, 1079.493 7058.832, 1079.488 7068.832, 1079.483 7078.832, 1079.478 7088.832, 1079.473 7098.832, 1079.468 7108.832, 1079.462 7118.832, 1079.457 7128.832, 1079.452 7138.832, 1079.447 7148.832, 1079.442 7158.832, 1079.437 7168.832, 1079.432 7178.832, 1079.427 7188.832, 1079.422 7198.832, 1079.416 7208.832, 1079.411 7218.832, 1079.406 7228.832, 1079.401 7238.832, 1079.396 7248.832, 1079.391 7258.832, 1079.386 7268.832, 1079.381 7278.832, 1079.375 7288.832, 1079.370 7298.832, 1079.365 7308.832, 1079.360 7318.832, 1079.355 7328.832, 1079.350 7338.832, 1079.345 7348.832, 1079.340 7358.832, 1079.335 7368.832, 1079.329 7378.832, 1079.324 7388.832, 1079.319 7398.832, 1079.314 7408.832, 1079.309 7418.832, 1079.304 7428.832, 1079.299 7438.832, 1079.294 7448.832, 1079.288 7458.832, 1079.283 7468.832, 1079.278 7478.832, 1079.273 7488.832, 1079.268 7498.832, 1079.263 7508.832, 1079.258 7518.832, 1079.253 7528.832, 1079.248 7538.832, 1079.242 7548.832, 1079.237 7558.832, 1079.232 7568.832, 1079.227 7578.832, 1079.222 7588.832, 1079.217 7598.832, 1079.212 7608.832, 1079.207 7618.832, 1079.201 7628.832, 1079.196 7638.832, 1079.191 7648.832, 1079.186 7658.832, 1079.181 7668.832, 1079.176 7678.832, 1079.171 7688.832, 1079.166 7698.832, 1079.161 7708.832, 1079.155 7718.832, 1079.150 7728.832, 1079.145 7738.832, 1079.140 7748.832, 1079.135 7758.832, 1079.130 7768.832, 1079.125 7778.832, 1079.120 7788.832, 1079.115 7798.832, 1079.109 7808.832, 1079.104 7818.832, 1079.099 7828.832, 1079.094 7838.832, 1079.089 7848.832, 1079.084 7858.832, 1079.079 7868.832, 1079.074 7878.832, 1079.068 7888.832, 1079.063 7898.832, 1079.058 7908.832, 1079.053 7918.832, 1079.048 7928.832, 1079.043 7938.832, 1079.038 7948.832, 1079.033 7958.832, 1079.028 7968.832, 1079.022 7978.832, 1079.017 7988.832, 1079.012 7998.832, 1079.007 8008.832, 1079.002 8018.832, 1078.997 8028.832, 1078.992 8038.832, 1078.987 8048.832, 1078.981 8058.832, 1078.976 8068.832, 1078.971 8078.832, 1078.966 8088.832, 1078.961 8098.832, 1078.956 8108.832, 1078.951 8118.832, 1078.946 8128.832, 1078.941 8138.832, 1078.935 8148.832, 1078.930 8158.832, 1078.925 8168.832, 1078.920 8178.832, 1078.915 8188.832, 1078.910 8198.832, 1078.905 8208.832, 1078.900 8218.831, 1078.894 8228.832, 1078.889 8238.831, 1078.884 8248.832, 1078.879 8258.832, 1078.874 8268.831, 1078.869 8278.832, 1078.864 8288.831, 1078.859 8298.832, 1078.854 8308.832, 1078.848 8318.832, 1078.843 8328.832, 1078.838 8338.831, 1078.833 8348.832, 1078.828 8358.831, 1078.823 8368.832, 1078.818 8378.832, 1078.813 8388.831, 1078.807 8398.832, 1078.802 8408.831, 1078.797 8418.832, 1078.792 8428.832, 1078.787 8438.831, 1078.782 8448.832, 1078.777 8458.831, 1078.772 8468.832, 1078.767 8478.831, 1078.761 8488.831, 1078.756 8498.832, 1078.751 8508.831, 1078.746 8518.832, 1078.741 8528.831, 1078.736 8538.832, 1078.731 8548.831, 1078.726 8558.831, 1078.721 8568.832, 1078.715 8578.831, 1078.710 8588.832, 1078.705 8598.831, 1078.700 8608.831, 1078.695 8618.832, 1078.690 8628.831, 1078.685 8638.832, 1078.680 8648.831, 1078.674 8658.831, 1078.669 8668.831, 1078.664 8678.831, 1078.659 8688.832, 1078.654 8698.831, 1078.649 8708.832, 1078.644 8718.831, 1078.639 8728.831, 1078.634 8738.832, 1078.628 8748.831, 1078.623 8758.832, 1078.618 8768.831, 1078.613 8778.831, 1078.608 8788.831, 1078.603 8798.831, 1078.598 8808.832, 1078.593 8818.831, 1078.587 8828.831, 1078.582 8838.831, 1078.577 8848.831, 1078.572 8858.831, 1078.567 8868.831, 1078.562 8878.832, 1078.557 8888.831, 1078.552 8898.831, 1078.547 8908.831, 1078.541 8918.831, 1078.536 8928.832, 1078.531 8938.831, 1078.526 8948.831, 1078.521 8958.831, 1078.516 8968.831, 1078.511 8978.831, 1078.506 8988.831, 1078.500 8998.831, 1078.495 9008.831, 1078.490 9018.831, 1078.485 9056.303, 1078.466 " />
            <path fill="none" stroke-width="3.0" stroke-linecap="butt" stroke-opacity="1.0" stroke="rgb(0, 0, 0)" stroke-linejoin="round" d=" M 1806.708, 1082.175 1816.708, 1082.170 1826.708, 1082.165 1836.708, 1082.160 1846.708, 1082.155 1856.708, 1082.150 1866.708, 1082.145 1876.708, 1082.140 1886.708, 1082.134 1896.708, 1082.129 1906.708, 1082.124 1916.708, 1082.119 1926.708, 1082.114 1936.708, 1082.109 1946.708, 1082.104 1956.708, 1082.099 1966.708, 1082.094 1976.708, 1082.088 1986.708, 1082.083 1996.708, 1082.078 2006.708, 1082.073 2016.708, 1082.068 2026.708, 1082.063 2036.708, 1082.058 2046.708, 1082.053 2056.708, 1082.047 2066.708, 1082.042 2076.708, 1082.037 2086.708, 1082.032 2096.708, 1082.027 2106.708, 1082.022 2116.708, 1082.017 2126.708, 1082.012 2136.708, 1082.007 2146.708, 1082.001 2156.708, 1081.996 2166.708, 1081.991 2176.708, 1081.986 2186.708, 1081.981 2196.708, 1081.976 2206.708, 1081.971 2216.708, 1081.966 2226.708, 1081.960 2236.708, 1081.955 2246.708, 1081.950 2256.708, 1081.945 2266.708, 1081.940 2276.708, 1081.935 2286.708, 1081.930 2296.708, 1081.925 2306.708, 1081.920 2316.708, 1081.914 2326.708, 1081.909 2336.708, 1081.904 2346.708, 1081.899 2356.708, 1081.894 2366.708, 1081.889 2376.708, 1081.884 2386.708, 1081.879 2396.708, 1081.873 2406.708, 1081.868 2416.708, 1081.863 2426.708, 1081.858 2436.708, 1081.853 2446.708, 1081.848 2456.708, 1081.843 2466.708, 1081.838 2476.708, 1081.833 2486.708, 1081.827 2496.708, 1081.822 2506.708, 1081.817 2516.708, 1081.812 2526.708, 1081.807 2536.708, 1081.802 2546.708, 1081.797 2556.708, 1081.792 2566.708, 1081.786 2576.708, 1081.781 2586.708, 1081.776 2596.708, 1081.771 2606.708, 1081.766 2616.708, 1081.761 2626.708, 1081.756 2636.708, 1081.751 2646.708, 1081.746 2656.708, 1081.740 2666.708, 1081.735 2676.708, 1081.730 2686.708, 1081.725 2696.708, 1081.720 2706.708, 1081.715 2716.708, 1081.710 2726.708, 1081.705 2736.708, 1081.700 2746.708, 1081.694 2756.708, 1081.689 2766.708, 1081.684 2776.708, 1081.679 2786.708, 1081.674 2796.708, 1081.669 2806.708, 1081.664 2816.708, 1081.659 2826.708, 1081.653 2836.708, 1081.648 2846.708, 1081.643 2856.708, 1081.638 2866.708, 1081.633 2876.708, 1081.628 2886.708, 1081.623 2896.708, 1081.618 2906.708, 1081.613 2916.708, 1081.607 2926.708, 1081.602 2936.708, 1081.597 2946.708, 1081.592 2956.708, 1081.587 2966.708, 1081.582 2976.708, 1081.577 2986.708, 1081.572 2996.708, 1081.566 3006.708, 1081.561 3016.708, 1081.556 3026.708, 1081.551 3036.708, 1081.546 3046.708, 1081.541 3056.708, 1081.536 3066.708, 1081.531 3076.708, 1081.526 3086.708, 1081.520 3096.708, 1081.515 3106.708, 1081.510 3116.708, 1081.505 3126.708, 1081.500 3136.708, 1081.495 3146.708, 1081.490 3156.708, 1081.485 3166.708, 1081.479 3176.708, 1081.474 3186.708, 1081.469 3196.708, 1081.464 3206.708, 1081.459 3216.708, 1081.454 3226.708, 1081.449 3236.708, 1081.444 3246.708, 1081.439 3256.708, 1081.433 3266.708, 1081.428 3276.708, 1081.423 3286.708, 1081.418 3296.708, 1081.413 3306.708, 1081.408 3316.708, 1081.403 3326.708, 1081.398 3336.708, 1081.393 3346.708, 1081.387 3356.708, 1081.382 3366.708, 1081.377 3376.708, 1081.372 3386.708, 1081.367 3396.708, 1081.362 3406.708, 1081.357 3416.708, 1081.352 3426.708, 1081.346 3436.708, 1081.341 3446.708, 1081.336 3456.708, 1081.331 3466.708, 1081.326 3476.708, 1081.321 3486.708, 1081.316 3496.708, 1081.311 3506.708, 1081.306 3516.708, 1081.300 3526.708, 1081.295 3536.708, 1081.290 3546.708, 1081.285 3556.708, 1081.280 3566.708, 1081.275 3576.708, 1081.270 3586.708, 1081.265 3596.708, 1081.259 3606.708, 1081.254 3616.708, 1081.249 3626.708, 1081.244 3636.708, 1081.239 3646.708, 1081.234 3656.708, 1081.229 3666.708, 1081.224 3676.708, 1081.219 3686.708, 1081.213 3696.708, 1081.208 3706.708, 1081.203 3716.708, 1081.198 3726.708, 1081.193 3736.708, 1081.188 3746.708, 1081.183 3756.708, 1081.178 3766.708, 1081.172 3776.708, 1081.167 3786.708, 1081.162 3796.708, 1081.157 3806.708, 1081.152 3816.708, 1081.147 3826.708, 1081.142 3836.708, 1081.137 3846.708, 1081.132 3856.708, 1081.126 3866.708, 1081.121 3876.708, 1081.116 3886.708, 1081.111 3896.708, 1081.106 3906.708, 1081.101 3916.708, 1081.096 3926.708, 1081.091 3936.708, 1081.086 3946.708, 1081.080 3956.708, 1081.075 3966.708, 1081.070 3976.708, 1081.065 3986.708, 1081.060 3996.708, 1081.055 4006.708, 1081.050 4016.708, 1081.045 4026.708, 1081.039 4036.708, 1081.034 4046.708, 1081.029 4056.708, 1081.024 4066.708, 1081.019 4076.708, 1081.014 4086.708, 1081.009 4096.708, 1081.004 4106.708, 1080.999 4116.708, 1080.993 4126.708, 1080.988 4136.708, 1080.983 4146.708, 1080.978 4156.708, 1080.973 4166.708, 1080.968 4176.708, 1080.963 4186.708, 1080.958 4196.708, 1080.952 4206.708, 1080.947 4216.708, 1080.942 4226.708, 1080.937 4236.708, 1080.932 4246.708, 1080.927 4256.708, 1080.922 4266.708, 1080.917 4276.708, 1080.912 4286.708, 1080.906 4296.708, 1080.901 4306.708, 1080.896 4316.708, 1080.891 4326.708, 1080.886 4336.708, 1080.881 4346.708, 1080.876 4356.708, 1080.871 4366.708, 1080.866 4376.708, 1080.860 4386.708, 1080.855 4396.708, 1080.850 4406.708, 1080.845 4416.708, 1080.840 4426.708, 1080.835 4436.708, 1080.830 4446.708, 1080.825 4456.708, 1080.819 4466.708, 1080.814 4476.708, 1080.809 4486.708, 1080.804 4496.708, 1080.799 4506.708, 1080.794 4516.708, 1080.789 4526.708, 1080.784 4536.708, 1080.779 4546.708, 1080.773 4556.708, 1080.768 4566.708, 1080.763 4576.708, 1080.758 4586.708, 1080.753 4596.708, 1080.748 4606.708, 1080.743 4616.708, 1080.738 4626.708, 1080.732 4636.708, 1080.727 4646.708, 1080.722 4656.708, 1080.717 4666.708, 1080.712 4676.708, 1080.707 4686.708, 1080.702 4696.708, 1080.697 4706.708, 1080.692 4716.708, 1080.686 4726.708, 1080.681 4736.708, 1080.676 4746.708, 1080.671 4756.708, 1080.666 4766.708, 1080.661 4776.708, 1080.656 4786.708, 1080.651 4796.708, 1080.645 4806.708, 1080.640 4816.708, 1080.635 4826.708, 1080.630 4836.708, 1080.625 4846.708, 1080.620 4856.708, 1080.615 4866.708, 1080.610 4876.708, 1080.605 4886.708, 1080.599 4896.708, 1080.594 4906.708, 1080.589 4916.708, 1080.584 4926.708, 1080.579 4936.708, 1080.574 4946.708, 1080.569 4956.708, 1080.564 4966.708, 1080.559 4976.708, 1080.553 4986.708, 1080.548 4996.708, 1080.543 5006.708, 1080.538 5016.708, 1080.533 5026.708, 1080.528 5036.708, 1080.523 5046.708, 1080.518 5056.708, 1080.512 5066.708, 1080.507 5076.708, 1080.502 5086.708, 1080.497 5096.708, 1080.492 5106.708, 1080.487 5116.708, 1080.482 5126.708, 1080.477 5136.708, 1080.471 5146.708, 1080.466 5156.708, 1080.461 5166.708, 1080.456 5176.708, 1080.451 5186.708, 1080.446 5196.708, 1080.441 5206.708, 1080.436 5216.708, 1080.431 5226.708, 1080.425 5236.708, 1080.420 5246.708, 1080.415 5256.708, 1080.410 5266.708, 1080.405 5276.708, 1080.400 5286.708, 1080.395 5296.708, 1080.390 5306.708, 1080.385 5316.708, 1080.379 5326.708, 1080.374 5336.708, 1080.369 5346.708, 1080.364 5356.708, 1080.359 5366.708, 1080.354 5376.708, 1080.349 5386.708, 1080.344 5396.708, 1080.338 5406.708, 1080.333 5416.708, 1080.328 5426.708, 1080.323 5436.708, 1080.318 5446.708, 1080.313 5456.708, 1080.308 5466.708, 1080.303 5476.708, 1080.298 5486.708, 1080.292 5496.708, 1080.287 5506.708, 1080.282 5516.708, 1080.277 5526.708, 1080.272 5536.708, 1080.267 5546.708, 1080.262 5556.708, 1080.257 5566.708, 1080.251 5576.708, 1080.246 5586.708, 1080.241 5596.708, 1080.236 5606.708, 1080.231 5616.708, 1080.226 5626.708, 1080.221 5636.708, 1080.216 5646.708, 1080.211 5656.708, 1080.205 5666.708, 1080.200 5676.708, 1080.195 5686.708, 1080.190 5696.708, 1080.185 5706.708, 1080.180 5716.708, 1080.175 5726.708, 1080.170 5736.708, 1080.165 5746.708, 1080.159 5756.708, 1080.154 5766.708, 1080.149 5776.708, 1080.144 5786.708, 1080.139 5796.708, 1080.134 5806.708, 1080.129 5816.708, 1080.124 5826.708, 1080.118 5836.708, 1080.113 5846.708, 1080.108 5856.708, 1080.103 5866.708, 1080.098 5876.708, 1080.093 5886.708, 1080.088 5896.708, 1080.083 5906.708, 1080.078 5916.708, 1080.072 5926.708, 1080.067 5936.708, 1080.062 5946.708, 1080.057 5956.708, 1080.052 5966.708, 1080.047 5976.708, 1080.042 5986.708, 1080.037 5996.708, 1080.031 6006.708, 1080.026 6016.708, 1080.021 6026.708, 1080.016 6036.708, 1080.011 6046.708, 1080.006 6056.708, 1080.001 6066.708, 1079.996 6076.708, 1079.991 6128.832, 1079.964 " />
            <path fill="none" stroke-width="3.0" stroke-linecap="butt" stroke-opacity="1.0" stroke="rgb(0, 0, 0)" stroke-linejoin="round" d=" M 35.818, 1083.081 45.818, 1083.076 55.818, 1083.071 65.818, 1083.066 75.818, 1083.061 85.818, 1083.056 95.818, 1083.051 105.818, 1083.046 115.818, 1083.041 125.818, 1083.035 135.818, 1083.030 145.818, 1083.025 155.818, 1083.020 165.818, 1083.015 175.818, 1083.010 185.818, 1083.005 195.818, 1083.000 205.818, 1082.995 215.818, 1082.989 225.818, 1082.984 235.818, 1082.979 245.818, 1082.974 255.818, 1082.969 265.818, 1082.964 275.818, 1082.959 285.818, 1082.954 295.818, 1082.948 305.818, 1082.943 315.818, 1082.938 325.818, 1082.933 335.818, 1082.928 345.818, 1082.923 355.818, 1082.918 365.818, 1082.913 375.818, 1082.908 385.818, 1082.902 395.818, 1082.897 405.818, 1082.892 415.818, 1082.887 425.818, 1082.882 435.818, 1082.877 445.818, 1082.872 455.818, 1082.867 465.818, 1082.861 475.818, 1082.856 485.818, 1082.851 495.818, 1082.846 505.818, 1082.841 515.818, 1082.836 525.818, 1082.831 535.818, 1082.826 545.818, 1082.821 555.818, 1082.815 565.818, 1082.810 575.818, 1082.805 585.818, 1082.800 595.818, 1082.795 605.818, 1082.790 615.818, 1082.785 625.818, 1082.780 635.818, 1082.774 645.818, 1082.769 655.818, 1082.764 665.818, 1082.759 675.818, 1082.754 685.818, 1082.749 695.818, 1082.744 705.818, 1082.739 715.818, 1082.734 725.818, 1082.728 735.818, 1082.723 745.818, 1082.718 755.818, 1082.713 765.818, 1082.708 775.818, 1082.703 785.818, 1082.698 795.818, 1082.693 805.818, 1082.688 815.818, 1082.682 825.818, 1082.677 835.818, 1082.672 845.818, 1082.667 855.818, 1082.662 865.818, 1082.657 875.818, 1082.652 885.818, 1082.647 895.818, 1082.641 905.818, 1082.636 915.818, 1082.631 925.818, 1082.626 935.818, 1082.621 945.818, 1082.616 955.818, 1082.611 965.818, 1082.606 975.818, 1082.600 985.818, 1082.595 995.818, 1082.590 1005.818, 1082.585 1015.818, 1082.580 1025.818, 1082.575 1035.818, 1082.570 1045.818, 1082.565 1055.818, 1082.560 1065.818, 1082.554 1075.818, 1082.549 1085.818, 1082.544 1095.818, 1082.539 1105.818, 1082.534 1115.818, 1082.529 1125.818, 1082.524 1135.818, 1082.519 1145.818, 1082.514 1155.818, 1082.508 1165.818, 1082.503 1175.818, 1082.498 1185.818, 1082.493 1195.818, 1082.488 1205.818, 1082.483 1215.818, 1082.478 1225.818, 1082.473 1235.818, 1082.467 1245.818, 1082.462 1255.818, 1082.457 1265.818, 1082.452 1275.818, 1082.447 1285.818, 1082.442 1295.818, 1082.437 1305.818, 1082.432 1315.818, 1082.427 1325.818, 1082.421 1335.818, 1082.416 1345.818, 1082.411 1355.818, 1082.406 1365.818, 1082.401 1375.818, 1082.396 1385.818, 1082.391 1395.818, 1082.386 1405.818, 1082.380 1415.818, 1082.375 1425.818, 1082.370 1435.818, 1082.365 1445.818, 1082.360 1455.818, 1082.355 1465.818, 1082.350 1475.818, 1082.345 1485.818, 1082.340 1495.818, 1082.334 1505.818, 1082.329 1515.818, 1082.324 1525.818, 1082.319 1535.818, 1082.314 1545.818, 1082.309 1555.818, 1082.304 1565.818, 1082.299 1575.818, 1082.294 1585.818, 1082.288 1595.818, 1082.283 1605.818, 1082.278 1615.818, 1082.273 1625.818, 1082.268 1635.818, 1082.263 1645.818, 1082.258 1655.818, 1082.253 1665.818, 1082.247 1675.818, 1082.242 1685.818, 1082.237 1695.818, 1082.232 1705.818, 1082.227 1715.818, 1082.222 1725.818, 1082.217 1735.818, 1082.212 1745.818, 1082.207 1755.818, 1082.201 1765.818, 1082.196 1775.818, 1082.191 1785.818, 1082.186 1806.708, 1082.175 " />
        </g>
    </g>
<g id="slice-labels"><text x="-4778.4526875" y="842.9085" text-anchor="middle" dominant-baseline="middle" font-family="Arial, sans-serif" font-size="12.94017651822094" font-weight="bold" fill="black" stroke="none" stroke-width="1.5528211821865128" paint-order="stroke fill">Platte 34 (Back)</text><text x="-2566.2160624999997" y="842.9085" text-anchor="middle" dominant-baseline="middle" font-family="Arial, sans-serif" font-size="12.94017651822094" font-weight="bold" fill="black" stroke="none" stroke-width="1.5528211821865128" paint-order="stroke fill">Platte 34 (Back)</text><text x="-353.97943750000013" y="842.9085" text-anchor="middle" dominant-baseline="middle" font-family="Arial, sans-serif" font-size="12.94017651822094" font-weight="bold" fill="black" stroke="none" stroke-width="1.5528211821865128" paint-order="stroke fill">Platte 34 (Back)</text><text x="1858.2571875000003" y="842.9085" text-anchor="middle" dominant-baseline="middle" font-family="Arial, sans-serif" font-size="12.94017651822094" font-weight="bold" fill="black" stroke="none" stroke-width="1.5528211821865128" paint-order="stroke fill">Platte 34 (Back)</text><text x="4070.493812500001" y="842.9085" text-anchor="middle" dominant-baseline="middle" font-family="Arial, sans-serif" font-size="12.94017651822094" font-weight="bold" fill="black" stroke="none" stroke-width="1.5528211821865128" paint-order="stroke fill">Platte 34 (Back)</text><text x="6282.7304375" y="842.9085" text-anchor="middle" dominant-baseline="middle" font-family="Arial, sans-serif" font-size="12.94017651822094" font-weight="bold" fill="black" stroke="none" stroke-width="1.5528211821865128" paint-order="stroke fill">Platte 34 (Back)</text><text x="8494.9670625" y="842.9085" text-anchor="middle" dominant-baseline="middle" font-family="Arial, sans-serif" font-size="12.94017651822094" font-weight="bold" fill="black" stroke="none" stroke-width="1.5528211821865128" paint-order="stroke fill">Platte 34 (Back)</text><text x="10707.203687500001" y="842.9085" text-anchor="middle" dominant-baseline="middle" font-family="Arial, sans-serif" font-size="12.94017651822094" font-weight="bold" fill="black" stroke="none" stroke-width="1.5528211821865128" paint-order="stroke fill">Platte 34 (Back)</text><text x="-4778.4526875" y="1005.0435000000001" text-anchor="middle" dominant-baseline="middle" font-family="Arial, sans-serif" font-size="12.94017651822094" font-weight="bold" fill="black" stroke="none" stroke-width="1.5528211821865128" paint-order="stroke fill">Platte 34 (Back)</text><text x="-2566.2160624999997" y="1005.0435000000001" text-anchor="middle" dominant-baseline="middle" font-family="Arial, sans-serif" font-size="12.94017651822094" font-weight="bold" fill="black" stroke="none" stroke-width="1.5528211821865128" paint-order="stroke fill">Platte 34 (Back)</text><text x="-353.97943750000013" y="1005.0435000000001" text-anchor="middle" dominant-baseline="middle" font-family="Arial, sans-serif" font-size="12.94017651822094" font-weight="bold" fill="black" stroke="none" stroke-width="1.5528211821865128" paint-order="stroke fill">Platte 34 (Back)</text><text x="1858.2571875000003" y="1005.0435000000001" text-anchor="middle" dominant-baseline="middle" font-family="Arial, sans-serif" font-size="12.94017651822094" font-weight="bold" fill="black" stroke="none" stroke-width="1.5528211821865128" paint-order="stroke fill">Platte 34 (Back)</text><text x="4070.493812500001" y="1005.0435000000001" text-anchor="middle" dominant-baseline="middle" font-family="Arial, sans-serif" font-size="12.94017651822094" font-weight="bold" fill="black" stroke="none" stroke-width="1.5528211821865128" paint-order="stroke fill">Platte 34 (Back)</text><text x="6282.7304375" y="1005.0435000000001" text-anchor="middle" dominant-baseline="middle" font-family="Arial, sans-serif" font-size="12.94017651822094" font-weight="bold" fill="black" stroke="none" stroke-width="1.5528211821865128" paint-order="stroke fill">Platte 34 (Back)</text><text x="8494.9670625" y="1005.0435000000001" text-anchor="middle" dominant-baseline="middle" font-family="Arial, sans-serif" font-size="12.94017651822094" font-weight="bold" fill="black" stroke="none" stroke-width="1.5528211821865128" paint-order="stroke fill">Platte 34 (Back)</text><text x="10707.203687500001" y="1005.0435000000001" text-anchor="middle" dominant-baseline="middle" font-family="Arial, sans-serif" font-size="12.94017651822094" font-weight="bold" fill="black" stroke="none" stroke-width="1.5528211821865128" paint-order="stroke fill">Platte 34 (Back)</text></g></svg>