<?xml version='1.0' encoding='utf-8'?>
<svg xmlns="http://www.w3.org/2000/svg" xmlns:inkscape="http://www.inkscape.org/namespaces/inkscape" version="1.1" width="91.25577592849731mm" height="104.70735216140747mm" viewBox="-11732.105996304967 0.005231530958123898 18533.180992609934 1237.0005369380835" preserveAspectRatio="none">
    <g id="ViewLayer_LineSet" inkscape:groupmode="lineset" inkscape:label="ViewLayer_LineSet">
        <g inkscape:groupmode="layer" id="strokes" inkscape:label="strokes">
            <path fill="none" stroke-width="3.0" stroke-linecap="butt" stroke-opacity="1.0" stroke="rgb(0, 0, 0)" stroke-linejoin="round" d=" M 676.617, 908.179 674.098, 910.762 671.453, 913.216 668.689, 915.535 665.813, 917.713 662.832, 919.746 659.754, 921.628 659.706, 921.653 656.585, 923.353 655.958, 923.655 653.334, 924.918 650.009, 926.320 647.040, 927.401 646.619, 927.554 646.074, 927.722 645.186, 927.996 644.953, 928.068 644.183, 928.305 643.172, 928.617 639.675, 929.507 636.139, 930.223 632.571, 930.761 628.981, 931.120 625.377, 931.299 621.769, 931.299 618.166, 931.120 614.576, 930.761 611.008, 930.223 607.472, 929.507 603.976, 928.617 602.973, 928.308 602.195, 928.068 601.973, 928.000 601.070, 927.721 600.528, 927.554 600.104, 927.400 597.137, 926.320 593.813, 924.918 591.190, 923.655 590.562, 923.353 587.432, 921.648 587.394, 921.628 584.315, 919.746 581.333, 917.713 578.458, 915.535 575.694, 913.216 573.049, 910.762 570.530, 908.179 568.142, 905.474 565.893, 902.653 563.787, 899.724 561.829, 896.693 560.025, 893.568 558.379, 890.358 556.896, 887.069 555.577, 883.711 554.428, 880.291 553.451, 876.817 552.648, 873.300 552.022, 869.746 551.573, 866.166 551.303, 862.569 551.213, 858.961 551.303, 855.355 551.573, 851.757 552.022, 848.177 552.648, 844.624 553.451, 841.106 554.428, 837.633 555.205, 835.322 555.289, 835.071 555.577, 834.213 556.896, 830.854 558.379, 827.566 560.025, 824.355 561.829, 821.230 563.787, 818.200 565.893, 815.270 568.142, 812.449 570.530, 809.745 573.049, 807.162 575.694, 804.707 578.458, 802.388 581.333, 800.210 584.315, 798.178 587.394, 796.296 590.562, 794.571 593.813, 793.005 597.137, 791.603 600.528, 790.370 603.976, 789.306 607.472, 788.416 611.008, 787.701 614.576, 787.163 618.166, 786.804 621.769, 786.624 625.377, 786.624 628.981, 786.804 632.571, 787.163 636.139, 787.701 639.675, 788.416 643.172, 789.306 646.619, 790.370 650.009, 791.603 653.334, 793.005 656.585, 794.571 659.754, 796.296 662.832, 798.178 665.813, 800.210 668.689, 802.388 671.453, 804.707 674.098, 807.162 676.617, 809.745 679.004, 812.449 681.254, 815.270 683.360, 818.200 685.318, 821.230 687.122, 824.355 688.768, 827.566 690.252, 830.854 691.570, 834.213 692.114, 835.833 692.220, 836.150 692.719, 837.633 693.696, 841.106 694.499, 844.624 695.125, 848.177 695.574, 851.757 695.844, 855.355 695.933, 858.961 695.844, 862.569 695.574, 866.166 695.125, 869.746 694.499, 873.300 693.696, 876.817 692.719, 880.291 691.570, 883.711 690.252, 887.069 688.768, 890.358 687.122, 893.568 685.318, 896.693 683.360, 899.724 681.254, 902.653 679.004, 905.474 676.617, 908.179 " />
            <path fill="none" stroke-width="3.0" stroke-linecap="butt" stroke-opacity="1.0" stroke="rgb(0, 0, 0)" stroke-linejoin="round" d=" M 561.232, 427.266 558.713, 429.849 556.068, 432.304 553.304, 434.623 550.429, 436.801 547.448, 438.834 544.369, 440.715 541.200, 442.440 537.949, 444.006 534.625, 445.408 531.234, 446.641 527.787, 447.705 524.290, 448.596 520.754, 449.310 517.186, 449.848 513.596, 450.207 509.993, 450.387 506.385, 450.387 502.781, 450.207 499.191, 449.848 495.624, 449.310 492.087, 448.596 488.591, 447.705 485.143, 446.641 481.752, 445.408 478.428, 444.006 475.178, 442.440 472.009, 440.715 468.930, 438.834 465.949, 436.801 463.073, 434.623 460.309, 432.304 457.664, 429.849 455.145, 427.266 452.758, 424.562 450.508, 421.741 448.402, 418.812 446.445, 415.781 444.641, 412.656 442.995, 409.446 441.511, 406.156 440.193, 402.798 439.043, 399.378 438.066, 395.905 437.263, 392.387 436.637, 388.834 436.188, 385.254 436.075, 383.740 435.918, 381.656 435.860, 379.300 435.829, 378.050 435.854, 377.046 435.918, 374.442 436.188, 370.845 436.637, 367.265 437.263, 363.712 438.066, 360.194 439.043, 356.721 440.193, 353.301 441.511, 349.942 442.995, 346.653 444.641, 343.443 446.445, 340.318 448.402, 337.287 450.508, 334.359 452.758, 331.538 455.145, 328.832 457.664, 326.250 460.309, 323.796 463.073, 321.476 465.949, 319.297 468.930, 317.265 472.009, 315.384 475.178, 313.658 478.428, 312.093 481.752, 310.692 485.143, 309.457 488.591, 308.394 492.087, 307.504 495.624, 306.789 499.191, 306.251 502.781, 305.891 506.385, 305.712 509.993, 305.712 513.596, 305.891 517.186, 306.251 520.754, 306.789 524.290, 307.504 527.787, 308.394 531.234, 309.457 534.625, 310.692 537.949, 312.093 541.200, 313.658 544.369, 315.384 547.448, 317.265 550.429, 319.297 553.304, 321.476 556.068, 323.796 558.713, 326.250 561.232, 328.832 563.620, 331.538 565.869, 334.359 567.975, 337.287 569.933, 340.318 571.737, 343.443 573.383, 346.653 574.867, 349.942 576.185, 353.301 577.334, 356.721 578.311, 360.194 579.114, 363.712 579.740, 367.265 580.189, 370.845 580.459, 374.442 580.530, 377.287 580.549, 378.050 580.499, 380.057 580.459, 381.656 580.302, 383.740 580.189, 385.254 579.740, 388.834 579.114, 392.387 578.311, 395.905 577.334, 399.378 576.185, 402.798 574.867, 406.156 573.383, 409.446 571.737, 412.656 569.933, 415.781 567.975, 418.812 565.869, 421.741 563.620, 424.562 561.232, 427.266 " />
            <path fill="none" stroke-width="3.0" stroke-linecap="butt" stroke-opacity="1.0" stroke="rgb(0, 0, 0)" stroke-linejoin="round" d=" M 864.261, 512.881 869.462, 504.340 874.663, 495.799 879.863, 487.258 885.064, 478.716 890.265, 470.175 895.466, 461.634 900.666, 453.093 905.867, 444.552 911.068, 436.010 916.269, 427.469 921.469, 418.928 926.670, 410.387 931.871, 401.846 937.072, 393.304 942.895, 383.740 944.346, 381.357 946.453, 377.897 951.654, 369.356 956.855, 360.815 962.055, 352.273 967.256, 343.732 972.457, 335.191 977.658, 326.650 982.858, 318.109 988.059, 309.567 993.260, 301.026 994.412, 299.134 999.613, 290.593 1004.814, 282.051 1009.849, 273.781 1013.210, 268.262 1013.320, 268.082 1018.520, 259.541 1022.339, 253.269 1021.798, 243.283 1021.256, 233.298 1020.715, 223.313 1020.173, 213.327 1019.631, 203.342 1019.090, 193.357 1018.548, 183.371 1018.007, 173.386 1017.465, 163.401 1016.924, 153.416 1016.382, 143.430 1015.841, 133.445 1015.299, 123.459 1014.757, 113.474 1014.216, 103.489 1013.674, 93.504 1013.133, 83.518 1012.591, 73.533 1012.050, 63.548 1011.508, 53.562 1011.316, 50.020 1010.916, 42.654 1010.375, 32.669 1010.273, 30.782 1010.251, 30.382 1009.885, 23.633 999.885, 23.633 989.885, 23.633 979.885, 23.633 969.885, 23.633 959.885, 23.633 949.885, 23.633 939.885, 23.633 929.885, 23.633 922.648, 23.633 912.648, 23.633 902.648, 23.633 892.648, 23.633 882.648, 23.633 872.648, 23.633 862.648, 23.633 852.648, 23.633 842.648, 23.633 832.648, 23.633 822.648, 23.633 812.648, 23.633 802.648, 23.633 792.648, 23.633 782.648, 23.633 772.648, 23.633 762.648, 23.633 752.648, 23.633 742.648, 23.633 732.648, 23.633 722.648, 23.633 712.648, 23.633 702.648, 23.633 692.648, 23.633 682.648, 23.633 672.648, 23.633 662.648, 23.633 653.330, 23.633 650.219, 23.633 647.035, 23.633 643.790, 23.633 640.494, 23.633 637.159, 23.633 633.796, 23.633 630.419, 23.633 627.040, 23.633 623.671, 23.633 620.325, 23.633 617.016, 23.633 613.754, 23.633 610.554, 23.633 607.427, 23.633 604.386, 23.633 601.440, 23.633 598.602, 23.633 595.881, 23.633 593.287, 23.633 590.828, 23.633 588.512, 23.633 586.347, 23.633 584.338, 23.633 574.338, 23.633 564.338, 23.633 554.338, 23.633 544.338, 23.633 534.338, 23.633 524.338, 23.633 514.338, 23.633 504.338, 23.633 494.338, 23.633 484.338, 23.633 474.338, 23.633 464.338, 23.633 454.338, 23.633 444.338, 23.633 434.338, 23.633 424.338, 23.633 414.338, 23.633 404.338, 23.633 394.338, 23.633 384.338, 23.633 374.338, 23.633 370.105, 23.633 " />
            <path fill="none" stroke-width="3.0" stroke-linecap="butt" stroke-opacity="1.0" stroke="rgb(0, 0, 0)" stroke-linejoin="round" d=" M 23.585, 341.968 24.638, 351.912 25.691, 361.857 26.743, 371.801 27.226, 376.366 27.311, 377.161 28.007, 383.740 29.060, 393.685 30.112, 403.629 31.165, 413.573 32.217, 423.518 33.270, 433.462 34.323, 443.407 35.375, 453.351 36.428, 463.296 37.480, 473.240 38.533, 483.185 39.586, 493.129 40.638, 503.073 41.691, 513.018 42.744, 522.962 43.796, 532.907 44.832, 542.690 45.884, 552.635 46.937, 562.579 47.990, 572.524 49.042, 582.468 50.095, 592.413 50.434, 595.615 51.486, 605.559 52.539, 615.504 53.592, 625.448 54.644, 635.393 54.751, 636.405 55.804, 646.350 56.857, 656.294 57.909, 666.239 58.962, 676.183 60.014, 686.128 61.067, 696.072 62.120, 706.017 63.172, 715.961 64.225, 725.905 65.278, 735.850 66.330, 745.794 67.383, 755.739 68.435, 765.683 69.488, 775.628 70.541, 785.572 71.593, 795.517 72.646, 805.461 73.698, 815.405 74.751, 825.350 75.497, 832.399 75.500, 832.422 76.552, 842.367 77.605, 852.311 78.657, 862.256 79.710, 872.200 80.763, 882.144 81.815, 892.089 82.868, 902.033 83.921, 911.978 84.946, 921.662 85.157, 923.655 85.552, 927.388 85.586, 927.712 85.621, 928.044 85.624, 928.073 85.636, 928.185 86.689, 938.130 87.445, 945.279 88.498, 955.224 88.542, 955.636 89.214, 961.989 89.323, 963.014 89.822, 967.731 90.204, 971.339 90.466, 973.819 90.997, 978.828 92.517, 979.952 100.558, 985.897 108.599, 991.842 116.640, 997.787 124.681, 1003.732 132.722, 1009.677 140.763, 1015.622 148.804, 1021.566 156.845, 1027.511 164.886, 1033.456 172.927, 1039.401 176.222, 1041.837 184.264, 1047.782 192.305, 1053.727 194.383, 1055.263 198.642, 1058.412 199.243, 1058.857 200.866, 1060.057 206.257, 1064.042 214.298, 1069.987 222.339, 1075.932 230.380, 1081.877 238.421, 1087.822 246.462, 1093.767 254.503, 1099.711 262.544, 1105.656 270.585, 1111.601 278.626, 1117.546 286.667, 1123.491 294.708, 1129.436 302.749, 1135.381 306.434, 1138.105 310.310, 1140.970 318.351, 1146.915 326.392, 1152.860 331.627, 1156.731 339.668, 1162.676 347.710, 1168.621 355.751, 1174.565 363.379, 1180.205 371.420, 1186.150 379.461, 1192.095 387.502, 1198.040 395.543, 1203.984 403.584, 1209.929 408.248, 1213.378 " />
            <path fill="none" stroke-width="3.0" stroke-linecap="butt" stroke-opacity="1.0" stroke="rgb(0, 0, 0)" stroke-linejoin="round" d=" M 408.248, 1213.378 418.248, 1213.378 428.248, 1213.378 438.248, 1213.378 448.248, 1213.378 458.248, 1213.378 468.248, 1213.378 478.248, 1213.378 488.248, 1213.378 498.248, 1213.378 508.248, 1213.378 518.248, 1213.378 528.248, 1213.378 538.248, 1213.378 548.248, 1213.378 558.248, 1213.378 568.248, 1213.378 573.247, 1213.378 583.247, 1213.378 593.247, 1213.378 603.247, 1213.378 613.247, 1213.378 623.247, 1213.378 633.247, 1213.378 643.247, 1213.378 646.307, 1213.378 656.307, 1213.378 666.307, 1213.378 676.307, 1213.378 686.307, 1213.378 696.307, 1213.378 706.307, 1213.378 716.307, 1213.378 717.103, 1213.378 719.395, 1213.378 721.842, 1213.378 724.433, 1213.378 727.160, 1213.378 730.015, 1213.378 732.987, 1213.378 736.066, 1213.378 739.239, 1213.378 742.496, 1213.378 745.825, 1213.378 749.211, 1213.378 752.643, 1213.378 756.107, 1213.378 759.591, 1213.378 763.082, 1213.378 766.565, 1213.378 770.030, 1213.378 773.462, 1213.378 783.462, 1213.378 793.462, 1213.378 803.462, 1213.378 813.462, 1213.378 823.462, 1213.378 833.462, 1213.378 843.462, 1213.378 853.462, 1213.378 863.462, 1213.378 873.462, 1213.378 884.342, 1213.378 887.744, 1213.378 891.137, 1213.378 894.509, 1213.378 897.848, 1213.378 901.140, 1213.378 904.378, 1213.378 907.549, 1213.378 910.643, 1213.378 913.653, 1213.378 916.569, 1213.378 919.384, 1213.378 929.384, 1213.378 939.384, 1213.378 949.384, 1213.378 959.384, 1213.378 969.384, 1213.378 979.384, 1213.378 989.384, 1213.378 999.384, 1213.378 1009.384, 1213.378 1019.384, 1213.378 1029.384, 1213.378 1039.384, 1213.378 1049.384, 1213.378 1054.415, 1213.378 " />
            <path fill="none" stroke-width="3.0" stroke-linecap="butt" stroke-opacity="1.0" stroke="rgb(0, 0, 0)" stroke-linejoin="round" d=" M 6394.894, 23.633 6384.894, 23.633 6374.894, 23.633 6364.894, 23.633 6354.894, 23.633 6344.894, 23.633 6334.894, 23.633 6324.894, 23.633 6314.894, 23.633 6304.894, 23.633 6294.894, 23.633 6284.894, 23.633 6274.894, 23.633 6264.894, 23.633 6254.894, 23.633 6244.894, 23.633 6234.894, 23.633 6224.894, 23.633 6214.894, 23.633 6204.894, 23.633 6194.894, 23.633 6184.894, 23.633 6174.894, 23.633 6164.894, 23.633 6154.894, 23.633 6144.894, 23.633 6134.894, 23.633 6124.894, 23.633 6114.894, 23.633 6104.894, 23.633 6094.894, 23.633 6084.894, 23.633 6074.894, 23.633 6064.894, 23.633 6054.894, 23.633 6044.894, 23.633 6034.894, 23.633 6024.894, 23.633 6014.894, 23.633 6004.894, 23.633 5994.894, 23.633 5984.894, 23.633 5974.894, 23.633 5964.894, 23.633 5954.894, 23.633 5944.894, 23.633 5934.894, 23.633 5924.894, 23.633 5914.894, 23.633 5904.894, 23.633 5894.894, 23.633 5884.894, 23.633 5874.894, 23.633 5864.894, 23.633 5854.894, 23.633 5844.894, 23.633 5834.894, 23.633 5824.894, 23.633 5814.894, 23.633 5804.894, 23.633 5794.894, 23.633 5784.894, 23.633 5774.894, 23.633 5764.894, 23.633 5754.894, 23.633 5744.894, 23.633 5734.894, 23.633 5724.894, 23.633 5714.894, 23.633 5704.894, 23.633 5694.894, 23.633 5684.894, 23.633 5674.894, 23.633 5664.894, 23.633 5654.894, 23.633 5644.894, 23.633 5634.894, 23.633 5624.894, 23.633 5614.894, 23.633 5604.894, 23.633 5594.894, 23.633 5584.894, 23.633 5574.894, 23.633 5564.894, 23.633 5554.894, 23.633 5544.894, 23.633 5534.894, 23.633 5524.894, 23.633 5514.894, 23.633 5504.894, 23.633 5494.894, 23.633 5484.894, 23.633 5474.894, 23.633 5464.894, 23.633 5454.894, 23.633 5444.894, 23.633 5434.894, 23.633 5424.894, 23.633 5414.894, 23.633 5404.894, 23.633 5394.894, 23.633 5384.894, 23.633 5374.894, 23.633 5364.894, 23.633 5354.894, 23.633 5344.894, 23.633 5334.894, 23.633 5324.894, 23.633 5314.894, 23.633 5304.894, 23.633 5294.894, 23.633 5284.894, 23.633 5274.894, 23.633 5264.894, 23.633 5254.894, 23.633 5244.894, 23.633 5234.894, 23.633 5224.894, 23.633 5214.894, 23.633 5204.894, 23.633 5194.894, 23.633 5184.894, 23.633 5174.894, 23.633 5164.894, 23.633 5154.894, 23.633 5144.894, 23.633 5134.894, 23.633 5124.894, 23.633 5114.894, 23.633 5104.894, 23.633 5094.894, 23.633 5084.894, 23.633 5074.894, 23.633 5064.894, 23.633 5054.894, 23.633 5044.894, 23.633 5034.894, 23.633 5024.894, 23.633 5014.894, 23.633 5004.894, 23.633 4994.894, 23.633 4984.894, 23.633 4974.894, 23.633 4964.894, 23.633 4954.894, 23.633 4944.894, 23.633 4934.894, 23.633 4924.894, 23.633 4914.894, 23.633 4904.894, 23.633 4894.894, 23.633 4884.894, 23.633 4874.894, 23.633 4864.894, 23.633 4854.894, 23.633 4844.894, 23.633 4834.894, 23.633 4824.894, 23.633 4814.894, 23.633 4804.894, 23.633 4794.894, 23.633 4784.894, 23.633 4774.894, 23.633 4764.894, 23.633 4754.894, 23.633 4744.894, 23.633 4734.894, 23.633 4724.894, 23.633 4714.894, 23.633 4704.894, 23.633 4694.894, 23.633 4684.894, 23.633 4674.894, 23.633 4664.894, 23.633 4654.894, 23.633 4644.894, 23.633 4634.894, 23.633 4624.894, 23.633 4614.894, 23.633 4604.894, 23.633 4594.894, 23.633 4584.894, 23.633 4574.894, 23.633 4564.894, 23.633 4554.894, 23.633 4544.894, 23.633 4534.894, 23.633 4524.894, 23.633 4514.894, 23.633 4504.894, 23.633 4494.894, 23.633 4484.894, 23.633 4474.894, 23.633 4464.894, 23.633 4454.894, 23.633 4444.894, 23.633 4434.894, 23.633 4424.894, 23.633 4414.894, 23.633 4404.894, 23.633 4394.894, 23.633 4384.894, 23.633 4374.894, 23.633 4364.894, 23.633 4354.894, 23.633 4344.894, 23.633 4334.894, 23.633 4324.894, 23.633 4314.894, 23.633 4304.894, 23.633 4294.894, 23.633 4284.894, 23.633 4274.894, 23.633 4264.894, 23.633 4254.894, 23.633 4244.894, 23.633 4234.894, 23.633 4224.894, 23.633 4214.894, 23.633 4204.894, 23.633 4194.894, 23.633 4184.894, 23.633 4174.894, 23.633 4164.894, 23.633 4154.894, 23.633 4144.894, 23.633 4134.894, 23.633 4124.894, 23.633 4114.894, 23.633 4104.894, 23.633 4094.894, 23.633 4084.894, 23.633 4074.894, 23.633 4064.894, 23.633 4054.894, 23.633 4044.894, 23.633 4034.894, 23.633 4024.894, 23.633 4014.894, 23.633 4004.894, 23.633 3994.894, 23.633 3984.894, 23.633 3974.894, 23.633 3964.894, 23.633 3954.894, 23.633 3944.894, 23.633 3934.894, 23.633 3924.894, 23.633 3914.894, 23.633 3904.894, 23.633 3894.894, 23.633 3884.894, 23.633 3874.894, 23.633 3864.894, 23.633 3854.894, 23.633 3844.894, 23.633 3834.894, 23.633 3824.894, 23.633 3814.894, 23.633 3804.894, 23.633 3794.894, 23.633 3784.894, 23.633 3774.894, 23.633 3764.894, 23.633 3754.894, 23.633 3744.894, 23.633 3734.894, 23.633 3724.894, 23.633 3714.894, 23.633 3704.894, 23.633 3694.894, 23.633 3684.894, 23.633 3674.894, 23.633 3664.894, 23.633 3654.894, 23.633 3644.894, 23.633 3634.894, 23.633 3624.894, 23.633 3614.894, 23.633 3604.894, 23.633 3594.894, 23.633 3584.894, 23.633 3574.894, 23.633 3564.894, 23.633 3554.894, 23.633 3544.894, 23.633 3534.894, 23.633 3524.894, 23.633 3514.894, 23.633 3504.894, 23.633 3494.894, 23.633 3484.894, 23.633 3474.894, 23.633 3464.894, 23.633 3454.894, 23.633 3444.894, 23.633 3434.894, 23.633 3424.894, 23.633 3414.894, 23.633 3404.894, 23.633 3394.894, 23.633 3384.894, 23.633 3374.894, 23.633 3364.894, 23.633 3354.894, 23.633 3344.894, 23.633 3334.894, 23.633 3324.894, 23.633 3314.894, 23.633 3304.894, 23.633 3294.894, 23.633 3284.894, 23.633 3274.894, 23.633 3264.894, 23.633 3254.894, 23.633 3244.894, 23.633 3234.894, 23.633 3224.894, 23.633 3214.894, 23.633 3204.894, 23.633 3194.894, 23.633 3184.894, 23.633 3174.894, 23.633 3164.894, 23.633 3154.894, 23.633 3144.894, 23.633 3134.894, 23.633 3124.894, 23.633 3114.894, 23.633 3104.894, 23.633 3094.894, 23.633 3084.894, 23.633 3074.894, 23.633 3064.894, 23.633 3054.894, 23.633 3044.894, 23.633 3034.894, 23.633 3024.894, 23.633 3014.894, 23.633 3004.894, 23.633 2994.894, 23.633 2984.894, 23.633 2974.894, 23.633 2964.894, 23.633 2954.894, 23.633 2944.894, 23.633 2934.894, 23.633 2924.894, 23.633 2914.894, 23.633 2904.894, 23.633 2894.894, 23.633 2884.894, 23.633 2874.894, 23.633 2864.894, 23.633 2854.894, 23.633 2844.894, 23.633 2834.894, 23.633 2824.894, 23.633 2814.894, 23.633 2804.894, 23.633 2794.894, 23.633 2784.894, 23.633 2774.894, 23.633 2764.894, 23.633 2754.894, 23.633 2744.894, 23.633 2734.894, 23.633 2724.894, 23.633 2714.894, 23.633 2704.894, 23.633 2694.894, 23.633 2684.894, 23.633 2674.894, 23.633 2664.894, 23.633 2654.894, 23.633 2644.894, 23.633 2634.894, 23.633 2624.894, 23.633 2614.894, 23.633 2604.894, 23.633 2594.894, 23.633 2584.894, 23.633 2574.894, 23.633 2564.894, 23.633 2554.894, 23.633 2544.894, 23.633 2534.894, 23.633 2524.894, 23.633 2514.894, 23.633 2504.894, 23.633 2494.894, 23.633 2484.894, 23.633 2474.894, 23.633 2464.894, 23.633 2454.894, 23.633 2444.894, 23.633 2434.894, 23.633 2424.894, 23.633 2414.894, 23.633 2404.894, 23.633 2394.894, 23.633 2384.894, 23.633 2374.894, 23.633 2364.894, 23.633 2354.894, 23.633 2344.894, 23.633 2334.894, 23.633 2324.894, 23.633 2314.894, 23.633 2304.894, 23.633 2294.894, 23.633 2284.894, 23.633 2274.894, 23.633 2264.894, 23.633 2254.894, 23.633 2244.894, 23.633 2234.894, 23.633 2224.894, 23.633 2214.894, 23.633 2204.894, 23.633 2194.894, 23.633 2184.894, 23.633 2174.894, 23.633 2164.894, 23.633 2154.894, 23.633 2144.894, 23.633 2134.894, 23.633 2124.894, 23.633 2114.894, 23.633 2104.894, 23.633 2094.894, 23.633 2084.894, 23.633 2074.894, 23.633 2064.894, 23.633 2054.894, 23.633 2044.893, 23.633 2034.894, 23.633 2024.894, 23.633 2014.894, 23.633 2004.894, 23.633 1994.894, 23.633 1984.894, 23.633 1974.894, 23.633 1964.894, 23.633 1954.893, 23.633 1944.893, 23.633 1934.893, 23.633 1924.893, 23.633 1914.893, 23.633 1904.893, 23.633 1894.894, 23.633 1884.894, 23.633 1874.894, 23.633 1864.894, 23.633 1854.894, 23.633 1844.894, 23.633 1834.894, 23.633 1824.894, 23.633 1814.894, 23.633 1804.894, 23.633 1794.894, 23.633 1784.894, 23.633 1774.894, 23.633 1764.894, 23.633 1754.894, 23.633 1744.894, 23.633 1734.894, 23.633 1724.894, 23.633 1714.894, 23.633 1704.893, 23.633 1694.893, 23.633 1684.893, 23.633 1674.893, 23.633 1664.893, 23.633 1654.893, 23.633 1644.893, 23.633 1634.893, 23.633 1624.893, 23.633 1614.893, 23.633 1604.894, 23.633 1594.894, 23.633 1584.894, 23.633 1574.894, 23.633 1564.894, 23.633 1554.894, 23.633 1544.894, 23.633 1534.894, 23.633 1524.894, 23.633 1514.894, 23.633 1504.894, 23.633 1494.894, 23.633 1484.894, 23.633 1474.894, 23.633 1464.894, 23.633 1454.894, 23.633 1444.894, 23.633 1434.894, 23.633 1424.893, 23.633 1414.893, 23.633 1404.893, 23.633 1394.893, 23.633 1384.893, 23.633 1374.893, 23.633 1364.893, 23.633 1354.893, 23.633 1344.893, 23.633 1334.893, 23.633 1324.894, 23.633 1314.894, 23.633 1304.894, 23.633 1294.894, 23.633 1284.894, 23.633 1274.894, 23.633 1264.894, 23.633 1254.894, 23.633 1244.894, 23.633 1234.894, 23.633 1224.894, 23.633 1214.894, 23.633 1204.894, 23.633 1194.894, 23.633 1184.894, 23.633 1174.894, 23.633 1164.894, 23.633 1154.894, 23.633 1144.894, 23.633 1134.893, 23.633 1124.893, 23.633 1114.893, 23.633 1104.893, 23.633 1094.893, 23.633 1084.893, 23.633 1074.893, 23.633 1064.893, 23.633 1054.893, 23.633 1044.894, 23.633 1034.894, 23.633 1024.894, 23.633 1014.894, 23.633 1004.894, 23.633 994.894, 23.633 984.894, 23.633 974.894, 23.633 964.894, 23.633 954.894, 23.633 944.894, 23.633 934.894, 23.633 924.894, 23.633 914.894, 23.633 904.894, 23.633 894.894, 23.633 884.894, 23.633 874.894, 23.633 864.894, 23.633 854.893, 23.633 844.893, 23.633 834.893, 23.633 824.893, 23.633 814.893, 23.633 804.893, 23.633 794.893, 23.633 784.893, 23.633 774.893, 23.633 764.893, 23.633 754.893, 23.633 744.894, 23.633 734.894, 23.633 724.894, 23.633 714.894, 23.633 704.894, 23.633 694.894, 23.633 684.894, 23.633 674.894, 23.633 664.894, 23.633 654.894, 23.633 644.894, 23.633 634.894, 23.633 624.894, 23.633 614.894, 23.633 604.894, 23.633 594.894, 23.633 584.894, 23.633 574.893, 23.633 564.893, 23.633 554.893, 23.633 544.893, 23.633 534.893, 23.633 524.893, 23.633 514.893, 23.633 504.893, 23.633 494.893, 23.633 484.893, 23.633 474.893, 23.633 464.894, 23.633 454.894, 23.633 444.894, 23.633 434.894, 23.633 424.894, 23.633 414.894, 23.633 404.894, 23.633 394.894, 23.633 384.894, 23.633 374.894, 23.633 364.894, 23.633 354.894, 23.633 344.894, 23.633 334.894, 23.633 324.894, 23.633 314.894, 23.633 304.894, 23.633 294.894, 23.633 284.893, 23.633 274.893, 23.633 264.893, 23.633 254.893, 23.633 244.893, 23.633 234.893, 23.633 224.893, 23.633 214.893, 23.633 204.893, 23.633 194.893, 23.633 184.894, 23.633 174.894, 23.633 164.894, 23.633 154.894, 23.633 144.894, 23.633 134.894, 23.633 124.894, 23.633 114.894, 23.633 104.894, 23.633 94.894, 23.633 84.894, 23.633 74.894, 23.633 64.894, 23.633 54.894, 23.633 44.894, 23.633 34.894, 23.633 24.894, 23.633 14.894, 23.633 4.893, 23.633 -5.107, 23.633 -15.107, 23.633 -25.107, 23.633 -35.107, 23.633 -45.107, 23.633 -55.107, 23.633 -65.107, 23.633 -75.107, 23.633 -85.107, 23.633 -95.106, 23.633 -105.106, 23.633 -115.106, 23.633 -125.106, 23.633 -135.106, 23.633 -145.106, 23.633 -155.106, 23.633 -165.106, 23.633 -175.106, 23.633 -185.106, 23.633 -195.106, 23.633 -205.106, 23.633 -215.106, 23.633 -225.106, 23.633 -235.106, 23.633 -245.106, 23.633 -255.106, 23.633 -265.106, 23.633 -275.107, 23.633 -285.107, 23.633 -295.107, 23.633 -305.107, 23.633 -315.107, 23.633 -325.107, 23.633 -335.107, 23.633 -345.107, 23.633 -355.107, 23.633 -365.107, 23.633 -375.107, 23.633 -385.106, 23.633 -395.106, 23.633 -405.106, 23.633 -415.106, 23.633 -425.106, 23.633 -435.106, 23.633 -445.106, 23.633 -455.106, 23.633 -465.106, 23.633 -475.106, 23.633 -485.106, 23.633 -495.106, 23.633 -505.106, 23.633 -515.106, 23.633 -525.106, 23.633 -535.106, 23.633 -545.106, 23.633 -555.106, 23.633 -565.107, 23.633 -575.107, 23.633 -585.107, 23.633 -595.107, 23.633 -605.107, 23.633 -615.107, 23.633 -625.107, 23.633 -635.107, 23.633 -645.107, 23.633 -655.107, 23.633 -665.107, 23.633 -675.107, 23.633 -685.106, 23.633 -695.106, 23.633 -705.106, 23.633 -715.106, 23.633 -725.106, 23.633 -735.106, 23.633 -745.106, 23.633 -755.106, 23.633 -765.106, 23.633 -775.106, 23.633 -785.106, 23.633 -795.106, 23.633 -805.106, 23.633 -815.106, 23.633 -825.106, 23.633 -835.106, 23.633 -845.107, 23.633 -855.107, 23.633 -865.107, 23.633 -875.107, 23.633 -885.107, 23.633 -895.107, 23.633 -905.107, 23.633 -915.107, 23.633 -925.107, 23.633 -935.107, 23.633 -945.107, 23.633 -955.107, 23.633 -965.106, 23.633 -975.106, 23.633 -985.106, 23.633 -995.106, 23.633 -1005.106, 23.633 -1015.106, 23.633 -1025.106, 23.633 -1035.106, 23.633 -1045.106, 23.633 -1055.106, 23.633 -1065.106, 23.633 -1075.106, 23.633 -1085.106, 23.633 -1095.106, 23.633 -1105.106, 23.633 -1115.106, 23.633 -1125.106, 23.633 -1135.107, 23.633 -1145.107, 23.633 -1155.107, 23.633 -1165.107, 23.633 -1175.107, 23.633 -1185.107, 23.633 -1195.107, 23.633 -1205.107, 23.633 -1215.107, 23.633 -1225.107, 23.633 -1235.106, 23.633 -1245.106, 23.633 -1255.106, 23.633 -1265.106, 23.633 -1275.106, 23.633 -1285.106, 23.633 -1295.106, 23.633 -1305.106, 23.633 -1315.106, 23.633 -1325.106, 23.633 -1335.106, 23.633 -1345.106, 23.633 -1355.106, 23.633 -1365.106, 23.633 -1375.106, 23.633 -1385.106, 23.633 -1395.106, 23.633 -1405.106, 23.633 -1415.107, 23.633 -1425.107, 23.633 -1435.107, 23.633 -1445.107, 23.633 -1455.107, 23.633 -1465.107, 23.633 -1475.107, 23.633 -1485.107, 23.633 -1495.107, 23.633 -1505.107, 23.633 -1515.106, 23.633 -1525.106, 23.633 -1535.106, 23.633 -1545.106, 23.633 -1555.106, 23.633 -1565.106, 23.633 -1575.106, 23.633 -1585.106, 23.633 -1595.106, 23.633 -1605.106, 23.633 -1615.106, 23.633 -1625.106, 23.633 -1635.106, 23.633 -1645.106, 23.633 -1655.106, 23.633 -1665.106, 23.633 -1675.106, 23.633 -1685.106, 23.633 -1695.107, 23.633 -1705.107, 23.633 -1715.107, 23.633 -1725.107, 23.633 -1735.107, 23.633 -1745.107, 23.633 -1755.107, 23.633 -1765.107, 23.633 -1775.107, 23.633 -1785.107, 23.633 -1795.107, 23.633 -1805.106, 23.633 -1815.106, 23.633 -1825.106, 23.633 -1835.106, 23.633 -1845.106, 23.633 -1855.106, 23.633 -1865.106, 23.633 -1875.106, 23.633 -1885.106, 23.633 -1895.106, 23.633 -1905.106, 23.633 -1915.106, 23.633 -1925.106, 23.633 -1935.106, 23.633 -1945.106, 23.633 -1955.106, 23.633 -1965.106, 23.633 -1975.106, 23.633 -1985.107, 23.633 -1995.107, 23.633 -2005.107, 23.633 -2015.107, 23.633 -2025.107, 23.633 -2035.107, 23.633 -2045.107, 23.633 -2055.106, 23.633 -2065.106, 23.633 -2075.106, 23.633 -2085.106, 23.633 -2095.106, 23.633 -2105.106, 23.633 -2115.106, 23.633 -2125.106, 23.633 -2135.106, 23.633 -2145.106, 23.633 -2155.106, 23.633 -2165.106, 23.633 -2175.106, 23.633 -2185.106, 23.633 -2195.106, 23.633 -2205.106, 23.633 -2215.106, 23.633 -2225.106, 23.633 -2235.106, 23.633 -2245.106, 23.633 -2255.106, 23.633 -2265.107, 23.633 -2275.107, 23.633 -2285.107, 23.633 -2295.107, 23.633 -2305.107, 23.633 -2315.107, 23.633 -2325.107, 23.633 -2335.106, 23.633 -2345.106, 23.633 -2355.106, 23.633 -2365.106, 23.633 -2375.106, 23.633 -2385.106, 23.633 -2395.106, 23.633 -2405.106, 23.633 -2415.106, 23.633 -2425.106, 23.633 -2435.106, 23.633 -2445.106, 23.633 -2455.106, 23.633 -2465.106, 23.633 -2475.106, 23.633 -2485.107, 23.633 -2495.106, 23.633 -2505.107, 23.633 -2515.106, 23.633 -2525.107, 23.633 -2535.106, 23.633 -2545.107, 23.633 -2555.106, 23.633 -2565.107, 23.633 -2575.106, 23.633 -2585.107, 23.633 -2595.106, 23.633 -2605.107, 23.633 -2615.106, 23.633 -2625.106, 23.633 -2635.106, 23.633 -2645.106, 23.633 -2655.106, 23.633 -2665.106, 23.633 -2675.106, 23.633 -2685.106, 23.633 -2695.107, 23.633 -2705.106, 23.633 -2715.107, 23.633 -2725.106, 23.633 -2735.107, 23.633 -2745.106, 23.633 -2755.107, 23.633 -2765.106, 23.633 -2775.107, 23.633 -2785.106, 23.633 -2795.107, 23.633 -2805.106, 23.633 -2815.107, 23.633 -2825.106, 23.633 -2835.107, 23.633 -2845.106, 23.633 -2855.107, 23.633 -2865.106, 23.633 -2875.107, 23.633 -2885.106, 23.633 -2895.107, 23.633 -2905.106, 23.633 -2915.106, 23.633 -2925.106, 23.633 -2935.106, 23.633 -2945.106, 23.633 -2955.106, 23.633 -2965.106, 23.633 -2975.106, 23.633 -2985.107, 23.633 -2995.106, 23.633 -3005.107, 23.633 -3015.106, 23.633 -3025.107, 23.633 -3035.106, 23.633 -3045.107, 23.633 -3055.106, 23.633 -3065.107, 23.633 -3075.106, 23.633 -3085.107, 23.633 -3095.106, 23.633 -3105.107, 23.633 -3115.106, 23.633 -3125.107, 23.633 -3135.106, 23.633 -3145.107, 23.633 -3155.106, 23.633 -3165.107, 23.633 -3175.106, 23.633 -3185.107, 23.633 -3195.106, 23.633 -3205.106, 23.633 -3215.106, 23.633 -3225.106, 23.633 -3235.106, 23.633 -3245.106, 23.633 -3255.107, 23.633 -3265.106, 23.633 -3275.107, 23.633 -3285.106, 23.633 -3295.107, 23.633 -3305.106, 23.633 -3315.107, 23.633 -3325.106, 23.633 -3335.107, 23.633 -3345.106, 23.633 -3355.107, 23.633 -3365.106, 23.633 -3375.107, 23.633 -3385.106, 23.633 -3395.107, 23.633 -3405.106, 23.633 -3415.107, 23.633 -3425.106, 23.633 -3435.107, 23.633 -3445.106, 23.633 -3455.107, 23.633 -3465.106, 23.633 -3475.106, 23.633 -3485.106, 23.633 -3495.106, 23.633 -3505.106, 23.633 -3515.106, 23.633 -3525.106, 23.633 -3535.106, 23.633 -3545.107, 23.633 -3555.106, 23.633 -3565.107, 23.633 -3575.106, 23.633 -3585.107, 23.633 -3595.106, 23.633 -3605.107, 23.633 -3615.106, 23.633 -3625.107, 23.633 -3635.106, 23.633 -3645.107, 23.633 -3655.106, 23.633 -3665.107, 23.633 -3675.106, 23.633 -3685.107, 23.633 -3695.106, 23.633 -3705.107, 23.633 -3715.106, 23.633 -3725.107, 23.633 -3735.106, 23.633 -3745.107, 23.633 -3755.106, 23.633 -3765.106, 23.633 -3775.106, 23.633 -3785.106, 23.633 -3795.106, 23.633 -3805.106, 23.633 -3815.106, 23.633 -3825.106, 23.633 -3835.107, 23.633 -3845.106, 23.633 -3855.107, 23.633 -3865.106, 23.633 -3875.107, 23.633 -3885.106, 23.633 -3895.107, 23.633 -3905.106, 23.633 -3915.107, 23.633 -3925.106, 23.633 -3935.107, 23.633 -3945.106, 23.633 -3955.107, 23.633 -3965.106, 23.633 -3975.107, 23.633 -3985.106, 23.633 -3995.107, 23.633 -4005.106, 23.633 -4015.107, 23.633 -4025.106, 23.633 -4035.107, 23.633 -4045.106, 23.633 -4055.106, 23.633 -4065.106, 23.633 -4075.106, 23.633 -4085.106, 23.633 -4095.106, 23.633 -4105.106, 23.633 -4115.106, 23.633 -4125.107, 23.633 -4135.106, 23.633 -4145.107, 23.633 -4155.106, 23.633 -4165.107, 23.633 -4175.106, 23.633 -4185.107, 23.633 -4195.106, 23.633 -4205.107, 23.633 -4215.106, 23.633 -4225.107, 23.633 -4235.106, 23.633 -4245.107, 23.633 -4255.106, 23.633 -4265.106, 23.633 -4275.106, 23.633 -4285.106, 23.633 -4295.106, 23.633 -4305.106, 23.633 -4315.106, 23.633 -4325.106, 23.633 -4335.106, 23.633 -4345.106, 23.633 -4355.106, 23.633 -4365.106, 23.633 -4375.106, 23.633 -4385.106, 23.633 -4395.107, 23.633 -4405.106, 23.633 -4415.107, 23.633 -4425.106, 23.633 -4435.107, 23.633 -4445.106, 23.633 -4455.107, 23.633 -4465.106, 23.633 -4475.107, 23.633 -4485.106, 23.633 -4495.107, 23.633 -4505.106, 23.633 -4515.107, 23.633 -4525.106, 23.633 -4535.107, 23.633 -4545.106, 23.633 -4555.106, 23.633 -4565.106, 23.633 -4575.106, 23.633 -4585.106, 23.633 -4595.106, 23.633 -4605.106, 23.633 -4615.106, 23.633 -4625.106, 23.633 -4635.106, 23.633 -4645.106, 23.633 -4655.106, 23.633 -4665.106, 23.633 -4675.106, 23.633 -4685.107, 23.633 -4695.106, 23.633 -4705.107, 23.633 -4715.106, 23.633 -4725.107, 23.633 -4735.106, 23.633 -4745.107, 23.633 -4755.106, 23.633 -4765.107, 23.633 -4775.106, 23.633 -4785.107, 23.633 -4795.106, 23.633 -4805.107, 23.633 -4815.106, 23.633 -4825.107, 23.633 -4835.106, 23.633 -4845.106, 23.633 -4855.106, 23.633 -4865.106, 23.633 -4875.106, 23.633 -4885.106, 23.633 -4895.106, 23.633 -4905.106, 23.633 -4915.106, 23.633 -4925.106, 23.633 -4935.106, 23.633 -4945.106, 23.633 -4955.106, 23.633 -4965.106, 23.633 -4975.107, 23.633 -4985.106, 23.633 -4995.107, 23.633 -5005.106, 23.633 -5015.107, 23.633 -5025.106, 23.633 -5035.107, 23.633 -5045.106, 23.633 -5055.107, 23.633 -5065.106, 23.633 -5075.107, 23.633 -5085.106, 23.633 -5095.107, 23.633 -5105.106, 23.633 -5115.106, 23.633 -5125.106, 23.633 -5135.106, 23.633 -5145.106, 23.633 -5155.106, 23.633 -5165.106, 23.633 -5175.106, 23.633 -5185.106, 23.633 -5195.106, 23.633 -5205.106, 23.633 -5215.106, 23.633 -5225.106, 23.633 -5235.106, 23.633 -5245.107, 23.633 -5255.106, 23.633 -5265.107, 23.633 -5275.106, 23.633 -5285.107, 23.633 -5295.106, 23.633 -5305.107, 23.633 -5315.106, 23.633 -5325.107, 23.633 -5335.106, 23.633 -5345.107, 23.633 -5355.106, 23.633 -5365.107, 23.633 -5375.106, 23.633 -5385.107, 23.633 -5395.106, 23.633 -5405.106, 23.633 -5415.106, 23.633 -5425.106, 23.633 -5435.106, 23.633 -5445.106, 23.633 -5455.106, 23.633 -5465.106, 23.633 -5475.106, 23.633 -5485.106, 23.633 -5495.106, 23.633 -5505.106, 23.633 -5515.106, 23.633 -5525.106, 23.633 -5535.107, 23.633 -5545.106, 23.633 -5555.107, 23.633 -5565.106, 23.633 -5575.107, 23.633 -5585.106, 23.633 -5595.107, 23.633 -5605.106, 23.633 -5615.107, 23.633 -5625.106, 23.633 -5635.107, 23.633 -5645.106, 23.633 -5655.107, 23.633 -5665.106, 23.633 -5675.107, 23.633 -5685.106, 23.633 -5695.106, 23.633 -5705.106, 23.633 -5715.106, 23.633 -5725.106, 23.633 -5735.106, 23.633 -5745.106, 23.633 -5755.106, 23.633 -5765.106, 23.633 -5775.106, 23.633 -5785.106, 23.633 -5795.106, 23.633 -5805.106, 23.633 -5815.106, 23.633 -5825.107, 23.633 -5835.106, 23.633 -5845.107, 23.633 -5855.106, 23.633 -5865.107, 23.633 -5875.106, 23.633 -5885.107, 23.633 -5895.106, 23.633 -5905.107, 23.633 -5915.106, 23.633 -5925.107, 23.633 -5935.106, 23.633 -5945.107, 23.633 -5955.106, 23.633 -5965.106, 23.633 -5975.106, 23.633 -5985.106, 23.633 -5995.106, 23.633 -6005.106, 23.633 -6015.106, 23.633 -6025.106, 23.633 -6035.106, 23.633 -6045.106, 23.633 -6055.106, 23.633 -6065.106, 23.633 -6075.106, 23.633 -6085.106, 23.633 -6095.107, 23.633 -6105.106, 23.633 -6115.107, 23.633 -6125.106, 23.633 -6135.107, 23.633 -6145.106, 23.633 -6155.107, 23.633 -6165.106, 23.633 -6175.107, 23.633 -6185.106, 23.633 -6195.107, 23.633 -6205.106, 23.633 -6215.107, 23.633 -6225.106, 23.633 -6235.107, 23.633 -6245.106, 23.633 -6255.106, 23.633 -6265.106, 23.633 -6275.106, 23.633 -6285.106, 23.633 -6295.106, 23.633 -6305.106, 23.633 -6315.106, 23.633 -6325.106, 23.633 -6335.106, 23.633 -6345.106, 23.633 -6355.106, 23.633 -6365.106, 23.633 -6375.106, 23.633 -6385.107, 23.633 -6395.106, 23.633 -6405.107, 23.633 -6415.106, 23.633 -6425.107, 23.633 -6435.106, 23.633 -6445.107, 23.633 -6455.106, 23.633 -6465.107, 23.633 -6475.106, 23.633 -6485.107, 23.633 -6495.106, 23.633 -6505.107, 23.633 -6515.106, 23.633 -6525.107, 23.633 -6535.106, 23.633 -6545.106, 23.633 -6555.106, 23.633 -6565.106, 23.633 -6575.106, 23.633 -6585.106, 23.633 -6595.106, 23.633 -6605.106, 23.633 -6615.106, 23.633 -6625.106, 23.633 -6635.106, 23.633 -6645.106, 23.633 -6655.106, 23.633 -6665.106, 23.633 -6675.107, 23.633 -6685.106, 23.633 -6695.107, 23.633 -6705.106, 23.633 -6715.107, 23.633 -6725.106, 23.633 -6735.107, 23.633 -6745.106, 23.633 -6755.107, 23.633 -6765.106, 23.633 -6775.107, 23.633 -6785.106, 23.633 -6795.107, 23.633 -6805.106, 23.633 -6815.107, 23.633 -6825.106, 23.633 -6835.106, 23.633 -6845.106, 23.633 -6855.106, 23.633 -6865.106, 23.633 -6875.106, 23.633 -6885.106, 23.633 -6895.106, 23.633 -6905.106, 23.633 -6915.106, 23.633 -6925.106, 23.633 -6935.106, 23.633 -6945.107, 23.633 -6955.106, 23.633 -6965.107, 23.633 -6975.106, 23.633 -6985.107, 23.633 -6995.106, 23.633 -7005.107, 23.633 -7015.106, 23.633 -7025.107, 23.633 -7035.106, 23.633 -7045.107, 23.633 -7055.106, 23.633 -7065.107, 23.633 -7075.106, 23.633 -7085.107, 23.633 -7095.106, 23.633 -7105.106, 23.633 -7115.106, 23.633 -7125.106, 23.633 -7135.106, 23.633 -7145.106, 23.633 -7155.106, 23.633 -7165.106, 23.633 -7175.106, 23.633 -7185.106, 23.633 -7195.106, 23.633 -7205.106, 23.633 -7215.106, 23.633 -7225.106, 23.633 -7235.107, 23.633 -7245.106, 23.633 -7255.107, 23.633 -7265.106, 23.633 -7275.107, 23.633 -7285.106, 23.633 -7295.107, 23.633 -7305.106, 23.633 -7315.107, 23.633 -7325.106, 23.633 -7335.107, 23.633 -7345.106, 23.633 -7355.107, 23.633 -7365.106, 23.633 -7375.107, 23.633 -7385.106, 23.633 -7395.106, 23.633 -7405.106, 23.633 -7415.106, 23.633 -7425.106, 23.633 -7435.106, 23.633 -7445.106, 23.633 -7455.106, 23.633 -7465.106, 23.633 -7475.106, 23.633 -7485.106, 23.633 -7495.106, 23.633 -7505.106, 23.633 -7515.106, 23.633 -7525.107, 23.633 -7535.106, 23.633 -7545.107, 23.633 -7555.106, 23.633 -7565.107, 23.633 -7575.106, 23.633 -7585.107, 23.633 -7595.106, 23.633 -7605.107, 23.633 -7615.106, 23.633 -7625.107, 23.633 -7635.106, 23.633 -7645.107, 23.633 -7655.106, 23.633 -7665.107, 23.633 -7675.106, 23.633 -7685.106, 23.633 -7695.106, 23.633 -7705.106, 23.633 -7715.106, 23.633 -7725.106, 23.633 -7735.106, 23.633 -7745.106, 23.633 -7755.106, 23.633 -7765.106, 23.633 -7775.106, 23.633 -7785.106, 23.633 -7795.106, 23.633 -7805.106, 23.633 -7815.107, 23.633 -7825.106, 23.633 -7835.107, 23.633 -7845.106, 23.633 -7855.107, 23.633 -7865.106, 23.633 -7875.107, 23.633 -7885.106, 23.633 -7895.107, 23.633 -7905.106, 23.633 -7915.107, 23.633 -7925.106, 23.633 -7935.107, 23.633 -7945.106, 23.633 -7955.106, 23.633 -7965.106, 23.633 -7975.106, 23.633 -7985.106, 23.633 -7995.106, 23.633 -8005.106, 23.633 -8015.106, 23.633 -8025.106, 23.633 -8035.106, 23.633 -8045.106, 23.633 -8055.106, 23.633 -8065.106, 23.633 -8075.106, 23.633 -8085.107, 23.633 -8095.106, 23.633 -8105.107, 23.633 -8115.106, 23.633 -8125.107, 23.633 -8135.106, 23.633 -8145.107, 23.633 -8155.106, 23.633 -8165.107, 23.633 -8175.106, 23.633 -8185.107, 23.633 -8195.106, 23.633 -8205.106, 23.633 -8215.106, 23.633 -8225.106, 23.633 -8235.106, 23.633 -8245.106, 23.633 -8255.106, 23.633 -8265.106, 23.633 -8275.106, 23.633 -8285.106, 23.633 -8295.106, 23.633 -8305.106, 23.633 -8315.106, 23.633 -8325.106, 23.633 -8335.106, 23.633 -8345.106, 23.633 -8355.105, 23.633 -8365.106, 23.633 -8375.107, 23.633 -8385.106, 23.633 -8395.106, 23.633 -8405.106, 23.633 -8415.106, 23.633 -8425.106, 23.633 -8435.106, 23.633 -8445.106, 23.633 -8455.106, 23.633 -8465.106, 23.633 -8475.106, 23.633 -8485.106, 23.633 -8495.106, 23.633 -8505.106, 23.633 -8515.106, 23.633 -8525.106, 23.633 -8535.106, 23.633 -8545.106, 23.633 -8555.106, 23.633 -8565.106, 23.633 -8575.106, 23.633 -8585.106, 23.633 -8595.106, 23.633 -8605.106, 23.633 -8615.106, 23.633 -8625.106, 23.633 -8635.106, 23.633 -8645.105, 23.633 -8655.106, 23.633 -8665.107, 23.633 -8675.106, 23.633 -8685.106, 23.633 -8695.106, 23.633 -8705.106, 23.633 -8715.106, 23.633 -8725.106, 23.633 -8735.106, 23.633 -8745.106, 23.633 -8755.106, 23.633 -8765.106, 23.633 -8775.106, 23.633 -8785.106, 23.633 -8795.106, 23.633 -8805.106, 23.633 -8815.106, 23.633 -8825.106, 23.633 -8835.106, 23.633 -8845.106, 23.633 -8855.106, 23.633 -8865.106, 23.633 -8875.106, 23.633 -8885.106, 23.633 -8895.106, 23.633 -8905.106, 23.633 -8915.106, 23.633 -8925.106, 23.633 -8935.107, 23.633 -8945.106, 23.633 -8955.107, 23.633 -8965.106, 23.633 -8975.106, 23.633 -8985.106, 23.633 -8995.106, 23.633 -9005.106, 23.633 -9015.106, 23.633 -9025.106, 23.633 -9035.106, 23.633 -9045.106, 23.633 -9055.106, 23.633 -9065.106, 23.633 -9075.106, 23.633 -9085.106, 23.633 -9095.106, 23.633 -9105.106, 23.633 -9115.106, 23.633 -9125.106, 23.633 -9135.106, 23.633 -9145.106, 23.633 -9155.106, 23.633 -9165.106, 23.633 -9175.106, 23.633 -9185.106, 23.633 -9195.106, 23.633 -9205.105, 23.633 -9215.106, 23.633 -9225.107, 23.633 -9235.106, 23.633 -9245.106, 23.633 -9255.106, 23.633 -9265.106, 23.633 -9275.106, 23.633 -9285.106, 23.633 -9295.106, 23.633 -9305.106, 23.633 -9315.106, 23.633 -9325.106, 23.633 -9335.106, 23.633 -9345.106, 23.633 -9355.106, 23.633 -9365.106, 23.633 -9375.106, 23.633 -9385.106, 23.633 -9395.106, 23.633 -9405.106, 23.633 -9415.106, 23.633 -9425.106, 23.633 -9435.106, 23.633 -9445.106, 23.633 -9455.106, 23.633 -9465.106, 23.633 -9475.106, 23.633 -9485.106, 23.633 -9495.105, 23.633 -9505.106, 23.633 -9515.107, 23.633 -9525.106, 23.633 -9535.106, 23.633 -9545.106, 23.633 -9555.106, 23.633 -9565.106, 23.633 -9575.106, 23.633 -9585.106, 23.633 -9595.106, 23.633 -9605.106, 23.633 -9615.106, 23.633 -9625.106, 23.633 -9635.106, 23.633 -9645.106, 23.633 -9655.106, 23.633 -9665.106, 23.633 -9675.106, 23.633 -9685.106, 23.633 -9695.106, 23.633 -9705.106, 23.633 -9715.106, 23.633 -9725.106, 23.633 -9735.106, 23.633 -9745.106, 23.633 -9755.106, 23.633 -9765.106, 23.633 -9775.106, 23.633 -9785.107, 23.633 -9795.106, 23.633 -9805.107, 23.633 -9815.106, 23.633 -9825.106, 23.633 -9835.106, 23.633 -9845.106, 23.633 -9855.106, 23.633 -9865.106, 23.633 -9875.106, 23.633 -9885.106, 23.633 -9895.106, 23.633 -9905.106, 23.633 -9915.106, 23.633 -9925.106, 23.633 -9935.106, 23.633 -9945.106, 23.633 -9955.106, 23.633 -9965.106, 23.633 -9975.106, 23.633 -9985.106, 23.633 -9995.106, 23.633 -10005.106, 23.633 -10015.106, 23.633 -10025.106, 23.633 -10035.106, 23.633 -10045.106, 23.633 -10055.105, 23.633 -10065.106, 23.633 -10075.107, 23.633 -10085.106, 23.633 -10095.107, 23.633 -10105.106, 23.633 -10115.106, 23.633 -10125.106, 23.633 -10135.106, 23.633 -10145.106, 23.633 -10155.106, 23.633 -10165.106, 23.633 -10175.106, 23.633 -10185.106, 23.633 -10195.106, 23.633 -10205.106, 23.633 -10215.106, 23.633 -10225.106, 23.633 -10235.106, 23.633 -10245.106, 23.633 -10255.106, 23.633 -10265.106, 23.633 -10275.106, 23.633 -10285.106, 23.633 -10295.106, 23.633 -10305.106, 23.633 -10315.106, 23.633 -10325.106, 23.633 -10335.106, 23.633 -10345.105, 23.633 -10355.106, 23.633 -10365.107, 23.633 -10375.106, 23.633 -10385.106, 23.633 -10395.106, 23.633 -10405.106, 23.633 -10415.106, 23.633 -10425.106, 23.633 -10435.106, 23.633 -10445.106, 23.633 -10455.106, 23.633 -10465.106, 23.633 -10475.106, 23.633 -10485.106, 23.633 -10495.106, 23.633 -10505.106, 23.633 -10515.106, 23.633 -10525.106, 23.633 -10535.106, 23.633 -10545.106, 23.633 -10555.106, 23.633 -10565.106, 23.633 -10575.106, 23.633 -10585.106, 23.633 -10595.106, 23.633 -10605.106, 23.633 -10615.106, 23.633 -10625.106, 23.633 -10635.107, 23.633 -10645.106, 23.633 -10655.107, 23.633 -10665.106, 23.633 -10675.106, 23.633 -10685.106, 23.633 -10695.106, 23.633 -10705.106, 23.633 -10715.106, 23.633 -10725.106, 23.633 -10735.106, 23.633 -10745.106, 23.633 -10755.106, 23.633 -10765.106, 23.633 -10775.106, 23.633 -10785.106, 23.633 -10795.106, 23.633 -10805.106, 23.633 -10815.106, 23.633 -10825.106, 23.633 -10835.106, 23.633 -10845.106, 23.633 -10855.106, 23.633 -10865.106, 23.633 -10875.106, 23.633 -10885.106, 23.633 -10895.106, 23.633 -10905.106, 23.633 -10915.106, 23.633 -10925.107, 23.633 -10935.106, 23.633 -10945.107, 23.633 -10955.106, 23.633 -10965.106, 23.633 -10975.106, 23.633 -10985.106, 23.633 -10995.106, 23.633 -11005.106, 23.633 -11015.106, 23.633 -11025.106, 23.633 -11035.106, 23.633 -11045.106, 23.633 -11055.106, 23.633 -11065.106, 23.633 -11075.106, 23.633 -11085.106, 23.633 -11095.106, 23.633 -11105.106, 23.633 -11115.106, 23.633 -11125.106, 23.633 -11135.106, 23.633 -11145.106, 23.633 -11325.925, 23.633 " />
            <path fill="none" stroke-width="3.0" stroke-linecap="butt" stroke-opacity="1.0" stroke="rgb(0, 0, 0)" stroke-linejoin="round" d=" M 27.311, 377.161 27.226, 376.366 26.174, 366.421 25.121, 356.477 24.069, 346.532 23.585, 341.968 " />
            <path fill="none" stroke-width="3.0" stroke-linecap="butt" stroke-opacity="1.0" stroke="rgb(0, 0, 0)" stroke-linejoin="round" d=" M 54.751, 636.405 53.699, 626.461 52.646, 616.517 51.594, 606.572 50.541, 596.628 50.434, 595.615 " />
            <path fill="none" stroke-width="3.0" stroke-linecap="butt" stroke-opacity="1.0" stroke="rgb(0, 0, 0)" stroke-linejoin="round" d=" M 85.621, 928.044 84.946, 921.662 " />
            <path fill="none" stroke-width="3.0" stroke-linecap="butt" stroke-opacity="1.0" stroke="rgb(0, 0, 0)" stroke-linejoin="round" d=" M 87.445, 945.279 86.393, 935.335 85.636, 928.185 85.624, 928.073 " />
            <path fill="none" stroke-width="3.0" stroke-linecap="butt" stroke-opacity="1.0" stroke="rgb(0, 0, 0)" stroke-linejoin="round" d=" M 89.214, 961.989 88.542, 955.636 " />
            <path fill="none" stroke-width="3.0" stroke-linecap="butt" stroke-opacity="1.0" stroke="rgb(0, 0, 0)" stroke-linejoin="round" d=" M 90.204, 971.339 89.822, 967.731 89.323, 963.014 " />
            <path fill="none" stroke-width="3.0" stroke-linecap="butt" stroke-opacity="1.0" stroke="rgb(0, 0, 0)" stroke-linejoin="round" d=" M 349.400, 42.654 356.765, 35.889 362.324, 30.781 362.755, 30.386 " />
            <path fill="none" stroke-width="3.0" stroke-linecap="butt" stroke-opacity="1.0" stroke="rgb(0, 0, 0)" stroke-linejoin="round" d=" M 97.953, 273.649 104.657, 267.490 104.704, 267.448 106.426, 265.866 " />
            <path fill="none" stroke-width="3.0" stroke-linecap="butt" stroke-opacity="1.0" stroke="rgb(0, 0, 0)" stroke-linejoin="round" d=" M 23.585, 341.968 30.950, 335.203 38.314, 328.437 45.678, 321.672 53.042, 314.907 60.407, 308.142 67.771, 301.376 70.201, 299.144 " />
            <path fill="none" stroke-width="3.0" stroke-linecap="butt" stroke-opacity="1.0" stroke="rgb(0, 0, 0)" stroke-linejoin="round" d=" M 370.105, 23.633 362.755, 30.386 362.324, 30.781 354.960, 37.547 349.400, 42.654 342.036, 49.419 341.382, 50.020 334.018, 56.785 326.654, 63.551 319.289, 70.316 311.925, 77.081 304.561, 83.846 297.197, 90.611 289.832, 97.377 282.468, 104.142 275.104, 110.907 267.740, 117.672 260.376, 124.438 253.011, 131.203 245.647, 137.968 238.283, 144.733 230.919, 151.499 223.554, 158.264 216.190, 165.029 208.826, 171.794 201.462, 178.559 194.098, 185.325 186.733, 192.090 179.369, 198.855 172.005, 205.620 164.641, 212.386 157.277, 219.151 149.912, 225.916 142.548, 232.681 135.184, 239.447 127.820, 246.212 120.455, 252.977 113.091, 259.742 106.791, 265.530 106.426, 265.866 104.704, 267.448 104.657, 267.490 97.953, 273.649 90.589, 280.414 83.224, 287.180 75.860, 293.945 70.201, 299.144 62.837, 305.909 55.472, 312.674 48.108, 319.440 40.744, 326.205 33.380, 332.970 26.015, 339.735 23.585, 341.968 " />
            <path fill="none" stroke-width="3.0" stroke-linecap="butt" stroke-opacity="1.0" stroke="rgb(0, 0, 0)" stroke-linejoin="round" d=" M 92.517, 979.952 90.997, 978.828 " />
            <path fill="none" stroke-width="3.0" stroke-linecap="butt" stroke-opacity="1.0" stroke="rgb(0, 0, 0)" stroke-linejoin="round" d=" M 199.243, 1058.857 198.642, 1058.412 " />
            <path fill="none" stroke-width="3.0" stroke-linecap="butt" stroke-opacity="1.0" stroke="rgb(0, 0, 0)" stroke-linejoin="round" d=" M 864.261, 512.881 868.666, 521.859 873.071, 530.836 877.476, 539.814 878.888, 542.690 883.293, 551.668 887.698, 560.645 892.103, 569.623 896.508, 578.600 900.913, 587.578 904.856, 595.615 " />
            <path fill="none" stroke-width="3.0" stroke-linecap="butt" stroke-opacity="1.0" stroke="rgb(0, 0, 0)" stroke-linejoin="round" d=" M 977.990, 744.663 973.585, 735.685 969.180, 726.708 964.775, 717.730 960.370, 708.753 955.965, 699.775 951.560, 690.797 947.155, 681.820 942.750, 672.842 938.345, 663.865 933.940, 654.887 929.535, 645.910 924.871, 636.405 920.466, 627.428 916.061, 618.450 911.656, 609.473 907.251, 600.495 904.856, 595.615 900.451, 586.637 896.046, 577.660 891.641, 568.682 887.236, 559.705 882.831, 550.727 878.888, 542.690 874.483, 533.713 870.078, 524.735 865.673, 515.758 864.261, 512.881 " />
            <path fill="none" stroke-width="3.0" stroke-linecap="butt" stroke-opacity="1.0" stroke="rgb(0, 0, 0)" stroke-linejoin="round" d=" M 1013.320, 268.082 1013.210, 268.262 1009.849, 273.781 1004.649, 282.322 999.448, 290.864 994.412, 299.134 989.211, 307.675 984.011, 316.216 978.810, 324.758 973.609, 333.299 968.408, 341.840 963.208, 350.381 958.007, 358.922 952.806, 367.464 947.605, 376.005 946.453, 377.897 944.346, 381.357 " />
            <path fill="none" stroke-width="3.0" stroke-linecap="butt" stroke-opacity="1.0" stroke="rgb(0, 0, 0)" stroke-linejoin="round" d=" M 1010.251, 30.382 1010.273, 30.782 1010.814, 40.767 1010.916, 42.654 1011.316, 50.020 1011.857, 60.005 1012.399, 69.991 1012.941, 79.976 1013.482, 89.961 1014.024, 99.947 1014.565, 109.932 1015.107, 119.917 1015.648, 129.903 1016.190, 139.888 1016.732, 149.873 1017.273, 159.859 1017.815, 169.844 1018.356, 179.829 1018.898, 189.815 1019.439, 199.800 1019.981, 209.785 1020.522, 219.771 1021.064, 229.756 1021.606, 239.741 1022.147, 249.727 1022.339, 253.269 " />
            <path fill="none" stroke-width="3.0" stroke-linecap="butt" stroke-opacity="1.0" stroke="rgb(0, 0, 0)" stroke-linejoin="round" d=" M 1045.017, 1155.741 1046.626, 1165.611 1048.235, 1175.481 1048.425, 1176.645 1050.034, 1186.514 1051.644, 1196.384 1053.253, 1206.254 1054.415, 1213.378 " />
            <path fill="none" stroke-width="3.0" stroke-linecap="butt" stroke-opacity="1.0" stroke="rgb(0, 0, 0)" stroke-linejoin="round" d=" M 1031.169, 1070.811 1032.778, 1080.680 1034.387, 1090.550 1035.997, 1100.420 1037.606, 1110.289 1039.215, 1120.159 1040.690, 1129.205 1042.281, 1138.961 " />
            <path fill="none" stroke-width="3.0" stroke-linecap="butt" stroke-opacity="1.0" stroke="rgb(0, 0, 0)" stroke-linejoin="round" d=" M 1029.382, 1059.851 1029.593, 1061.146 " />
            <path fill="none" stroke-width="3.0" stroke-linecap="butt" stroke-opacity="1.0" stroke="rgb(0, 0, 0)" stroke-linejoin="round" d=" M 1007.878, 927.965 1007.894, 928.064 1007.909, 928.159 " />
            <path fill="none" stroke-width="3.0" stroke-linecap="butt" stroke-opacity="1.0" stroke="rgb(0, 0, 0)" stroke-linejoin="round" d=" M 993.129, 837.509 993.203, 837.969 " />
            <path fill="none" stroke-width="3.0" stroke-linecap="butt" stroke-opacity="1.0" stroke="rgb(0, 0, 0)" stroke-linejoin="round" d=" M 1054.415, 1213.378 1052.805, 1203.508 1051.196, 1193.638 1049.587, 1183.769 1048.425, 1176.645 1046.816, 1166.775 1045.207, 1156.905 1045.017, 1155.741 1043.435, 1146.041 1042.465, 1140.092 1042.389, 1139.624 1042.281, 1138.961 1040.690, 1129.205 1039.081, 1119.335 1037.471, 1109.465 1035.862, 1099.596 1034.253, 1089.726 1032.644, 1079.856 1031.169, 1070.811 1030.290, 1065.420 1029.593, 1061.146 1029.382, 1059.851 1028.706, 1055.704 1028.075, 1051.836 1028.045, 1051.654 1026.443, 1041.825 1024.833, 1031.956 1023.224, 1022.086 1021.615, 1012.216 1020.006, 1002.347 1018.396, 992.477 1016.793, 982.646 1015.424, 974.248 1014.614, 969.277 1013.004, 959.407 1011.395, 949.537 1010.963, 946.889 1009.354, 937.019 1007.923, 928.246 1007.918, 928.211 1007.909, 928.159 1007.894, 928.064 1007.878, 927.965 1007.839, 927.728 1007.787, 927.409 1007.175, 923.655 1006.839, 921.597 1005.230, 911.728 1003.621, 901.858 1002.011, 891.988 1000.402, 882.119 998.793, 872.249 997.184, 862.379 995.574, 852.510 993.965, 842.640 993.203, 837.969 993.129, 837.509 991.519, 827.640 989.910, 817.770 988.301, 807.900 986.691, 798.031 985.082, 788.161 983.473, 778.291 981.864, 768.422 980.254, 758.552 978.645, 748.682 977.990, 744.663 " />
            <path fill="none" stroke-width="3.0" stroke-linecap="butt" stroke-opacity="1.0" stroke="rgb(0, 0, 0)" stroke-linejoin="round" d=" M 1054.415, 1213.378 1064.415, 1213.378 1074.415, 1213.378 1084.415, 1213.378 1094.415, 1213.378 1104.415, 1213.378 1114.415, 1213.378 1124.415, 1213.378 1134.415, 1213.378 1144.415, 1213.378 1154.415, 1213.378 1164.415, 1213.378 1174.415, 1213.378 1184.415, 1213.378 1194.415, 1213.378 1204.415, 1213.378 1214.415, 1213.378 1224.415, 1213.378 1234.415, 1213.378 1244.415, 1213.378 1254.415, 1213.378 1264.415, 1213.378 1274.415, 1213.378 1284.415, 1213.378 1294.415, 1213.378 1304.415, 1213.378 1314.415, 1213.378 1324.415, 1213.378 1334.415, 1213.378 1344.415, 1213.378 1354.415, 1213.378 1364.415, 1213.378 1374.415, 1213.378 1384.415, 1213.378 1394.415, 1213.378 1404.415, 1213.378 1414.415, 1213.378 1424.415, 1213.378 1434.415, 1213.378 1444.415, 1213.378 1454.415, 1213.378 1464.415, 1213.378 1474.415, 1213.378 1484.415, 1213.378 1494.415, 1213.378 1504.415, 1213.378 1514.415, 1213.378 1524.415, 1213.378 1534.415, 1213.378 1544.415, 1213.378 1554.415, 1213.378 1564.415, 1213.378 1574.415, 1213.378 1584.415, 1213.378 1594.415, 1213.378 1604.415, 1213.378 1614.415, 1213.378 1624.415, 1213.378 1634.415, 1213.378 1644.415, 1213.378 1654.415, 1213.378 1664.415, 1213.378 1674.415, 1213.378 1684.415, 1213.378 1694.415, 1213.378 1704.415, 1213.378 1714.415, 1213.378 1724.415, 1213.378 1734.415, 1213.378 1744.415, 1213.378 1754.415, 1213.378 1764.415, 1213.378 1774.415, 1213.378 1784.415, 1213.378 1794.415, 1213.378 1804.415, 1213.378 1814.415, 1213.378 1824.415, 1213.378 1834.415, 1213.378 1844.415, 1213.378 1854.415, 1213.378 1864.415, 1213.378 1874.415, 1213.378 1884.415, 1213.378 1894.415, 1213.378 1904.415, 1213.378 1914.415, 1213.378 1924.415, 1213.378 1934.415, 1213.378 1944.415, 1213.378 1954.415, 1213.378 1964.415, 1213.378 1974.415, 1213.378 1984.415, 1213.378 1994.415, 1213.378 2004.415, 1213.378 2014.415, 1213.378 2024.415, 1213.378 2034.415, 1213.378 2044.415, 1213.378 2054.415, 1213.378 2064.415, 1213.378 2074.415, 1213.378 2084.415, 1213.378 2094.415, 1213.378 2104.415, 1213.378 2114.415, 1213.378 2124.415, 1213.378 2134.415, 1213.378 2144.415, 1213.378 2154.415, 1213.378 2164.415, 1213.378 2174.415, 1213.378 2184.415, 1213.378 2194.415, 1213.378 2204.415, 1213.378 2214.415, 1213.378 2224.415, 1213.378 2234.415, 1213.378 2244.415, 1213.378 2254.415, 1213.378 2264.415, 1213.378 2274.415, 1213.378 2284.415, 1213.378 2294.415, 1213.378 2304.415, 1213.378 2314.415, 1213.378 2324.415, 1213.378 2334.415, 1213.378 2344.415, 1213.378 2354.415, 1213.378 2364.415, 1213.378 2374.415, 1213.378 2384.415, 1213.378 2394.415, 1213.378 2404.415, 1213.378 2414.415, 1213.378 2424.415, 1213.378 2434.415, 1213.378 2444.415, 1213.378 2454.415, 1213.378 2464.415, 1213.378 2474.415, 1213.378 2484.415, 1213.378 2494.415, 1213.378 2504.415, 1213.378 2514.415, 1213.378 2524.415, 1213.378 2534.415, 1213.378 2544.415, 1213.378 2554.415, 1213.378 2564.415, 1213.378 2574.415, 1213.378 2584.415, 1213.378 2594.415, 1213.378 2604.415, 1213.378 2614.415, 1213.378 2624.415, 1213.378 2634.415, 1213.378 2644.415, 1213.378 2654.415, 1213.378 2664.415, 1213.378 2674.415, 1213.378 2684.415, 1213.378 2694.415, 1213.378 2704.415, 1213.378 2714.415, 1213.378 2724.415, 1213.378 2734.415, 1213.378 2744.415, 1213.378 2754.415, 1213.378 2764.415, 1213.378 2774.415, 1213.378 2784.415, 1213.378 2794.415, 1213.378 2804.415, 1213.378 2814.415, 1213.378 2824.415, 1213.378 2834.415, 1213.378 2844.415, 1213.378 2854.415, 1213.378 2864.415, 1213.378 2874.415, 1213.378 2884.415, 1213.378 2894.415, 1213.378 2904.415, 1213.378 2914.415, 1213.378 2924.415, 1213.378 2934.415, 1213.378 2944.415, 1213.378 2954.415, 1213.378 2964.415, 1213.378 2974.415, 1213.378 2984.415, 1213.378 2994.415, 1213.378 3004.415, 1213.378 3014.415, 1213.378 3024.415, 1213.378 3034.415, 1213.378 3044.415, 1213.378 3054.415, 1213.378 3064.415, 1213.378 3074.415, 1213.378 3084.415, 1213.378 3094.415, 1213.378 3104.415, 1213.378 3114.415, 1213.378 3124.415, 1213.378 3134.415, 1213.378 3144.415, 1213.378 3154.415, 1213.378 3164.415, 1213.378 3174.415, 1213.378 3184.415, 1213.378 3194.415, 1213.378 3204.415, 1213.378 3214.415, 1213.378 3224.414, 1213.378 3234.415, 1213.378 3244.415, 1213.378 3254.415, 1213.378 3264.415, 1213.378 3274.415, 1213.378 3284.415, 1213.378 3294.414, 1213.378 3304.415, 1213.378 3314.415, 1213.378 3324.415, 1213.378 3334.415, 1213.378 3344.415, 1213.378 3354.415, 1213.378 3364.414, 1213.378 3374.415, 1213.378 3384.415, 1213.378 3394.415, 1213.378 3404.415, 1213.378 3414.415, 1213.378 3424.415, 1213.378 3434.414, 1213.378 3444.415, 1213.378 3454.415, 1213.378 3464.415, 1213.378 3474.415, 1213.378 3484.415, 1213.378 3494.415, 1213.378 3504.414, 1213.378 3514.415, 1213.378 3524.415, 1213.378 3534.415, 1213.378 3544.415, 1213.378 3554.415, 1213.378 3564.415, 1213.378 3574.415, 1213.378 3584.415, 1213.378 3594.415, 1213.378 3604.414, 1213.378 3614.415, 1213.378 3624.415, 1213.378 3634.415, 1213.378 3644.415, 1213.378 3654.415, 1213.378 3664.415, 1213.378 3674.414, 1213.378 3684.415, 1213.378 3694.415, 1213.378 3704.415, 1213.378 3714.414, 1213.378 3724.415, 1213.378 3734.415, 1213.378 3744.414, 1213.378 3754.415, 1213.378 3764.414, 1213.378 3774.415, 1213.378 3784.415, 1213.378 3794.414, 1213.378 3804.415, 1213.378 3814.415, 1213.378 3824.414, 1213.378 3834.415, 1213.378 3844.415, 1213.378 3854.414, 1213.378 3864.415, 1213.378 3874.415, 1213.378 3884.414, 1213.378 3894.415, 1213.378 3904.415, 1213.378 3914.414, 1213.378 3924.415, 1213.378 3934.414, 1213.378 3944.415, 1213.378 3954.415, 1213.378 3964.414, 1213.378 3974.415, 1213.378 3984.415, 1213.378 3994.414, 1213.378 4004.415, 1213.378 4014.415, 1213.378 4024.414, 1213.378 4034.415, 1213.378 4044.415, 1213.378 4054.414, 1213.378 4064.415, 1213.378 4074.414, 1213.378 4084.415, 1213.378 4094.415, 1213.378 4104.415, 1213.378 4114.415, 1213.378 4124.415, 1213.378 4134.415, 1213.378 4144.415, 1213.378 4154.415, 1213.378 4164.415, 1213.378 4174.415, 1213.378 4184.415, 1213.378 4194.415, 1213.378 4204.415, 1213.378 4214.415, 1213.378 4224.415, 1213.378 4234.415, 1213.378 4244.415, 1213.378 4254.415, 1213.378 4264.415, 1213.378 4274.415, 1213.378 4284.415, 1213.378 4294.415, 1213.378 4304.415, 1213.378 4314.415, 1213.378 4324.415, 1213.378 4334.415, 1213.378 4344.415, 1213.378 4354.414, 1213.378 4364.415, 1213.378 4374.415, 1213.378 4384.415, 1213.378 4394.415, 1213.378 4404.415, 1213.378 4414.415, 1213.378 4424.415, 1213.378 4434.415, 1213.378 4444.415, 1213.378 4454.415, 1213.378 4464.415, 1213.378 4474.415, 1213.378 4484.415, 1213.378 4494.414, 1213.378 4504.415, 1213.378 4514.415, 1213.378 4524.415, 1213.378 4534.415, 1213.378 4544.415, 1213.378 4554.415, 1213.378 4564.415, 1213.378 4574.415, 1213.378 4584.415, 1213.378 4594.415, 1213.378 4604.415, 1213.378 4614.415, 1213.378 4624.415, 1213.378 4634.415, 1213.378 4644.415, 1213.378 4654.415, 1213.378 4664.415, 1213.378 4674.415, 1213.378 4684.415, 1213.378 4694.415, 1213.378 4704.415, 1213.378 4714.415, 1213.378 4724.415, 1213.378 4734.415, 1213.378 4744.415, 1213.378 4754.415, 1213.378 4764.415, 1213.378 4774.415, 1213.378 4784.415, 1213.378 4794.415, 1213.378 4804.414, 1213.378 4814.415, 1213.378 4824.415, 1213.378 4834.415, 1213.378 4844.415, 1213.378 4854.415, 1213.378 4864.415, 1213.378 4874.415, 1213.378 4884.415, 1213.378 4894.415, 1213.378 4904.415, 1213.378 4914.415, 1213.378 4924.415, 1213.378 4934.415, 1213.378 4944.414, 1213.378 4954.415, 1213.378 4964.415, 1213.378 4974.415, 1213.378 4984.415, 1213.378 4994.415, 1213.378 5004.415, 1213.378 5014.415, 1213.378 5024.415, 1213.378 5034.415, 1213.378 5044.415, 1213.378 5054.415, 1213.378 5064.415, 1213.378 5074.415, 1213.378 5084.414, 1213.378 5094.415, 1213.378 5104.415, 1213.378 5114.414, 1213.378 5124.415, 1213.378 5134.415, 1213.378 5144.415, 1213.378 5154.415, 1213.378 5164.415, 1213.378 5174.415, 1213.378 5184.415, 1213.378 5194.415, 1213.378 5204.415, 1213.378 5214.415, 1213.378 5224.414, 1213.378 5234.415, 1213.378 5244.415, 1213.378 5254.414, 1213.378 5264.415, 1213.378 5274.415, 1213.378 5284.415, 1213.378 5294.415, 1213.378 5304.415, 1213.378 5314.415, 1213.378 5324.415, 1213.378 5334.415, 1213.378 5344.415, 1213.378 5354.415, 1213.378 5364.415, 1213.378 5374.415, 1213.378 5384.415, 1213.378 5394.414, 1213.378 5404.415, 1213.378 5414.415, 1213.378 5424.414, 1213.378 5434.415, 1213.378 5444.415, 1213.378 5454.415, 1213.378 5464.415, 1213.378 5474.415, 1213.378 5484.415, 1213.378 5494.415, 1213.378 5504.415, 1213.378 5514.415, 1213.378 5524.415, 1213.378 5534.414, 1213.378 5544.415, 1213.378 5554.415, 1213.378 5564.414, 1213.378 5574.415, 1213.378 5584.415, 1213.378 5594.415, 1213.378 5604.415, 1213.378 5614.415, 1213.378 5624.415, 1213.378 5634.415, 1213.378 5644.415, 1213.378 5654.415, 1213.378 5664.415, 1213.378 5674.414, 1213.378 5684.415, 1213.378 5694.415, 1213.378 5704.414, 1213.378 5714.415, 1213.378 5724.415, 1213.378 5734.414, 1213.378 5744.415, 1213.378 5754.415, 1213.378 5764.415, 1213.378 5774.415, 1213.378 5784.415, 1213.378 5794.415, 1213.378 5804.415, 1213.378 5814.414, 1213.378 5824.415, 1213.378 5834.415, 1213.378 5844.414, 1213.378 5854.415, 1213.378 5864.415, 1213.378 5874.414, 1213.378 5884.415, 1213.378 5894.415, 1213.378 5904.415, 1213.378 5914.415, 1213.378 5924.415, 1213.378 5934.415, 1213.378 5944.415, 1213.378 5954.414, 1213.378 5964.415, 1213.378 5974.415, 1213.378 5984.414, 1213.378 5994.415, 1213.378 6004.415, 1213.378 6014.414, 1213.378 6024.415, 1213.378 6034.415, 1213.378 6044.414, 1213.378 6054.415, 1213.378 6064.415, 1213.378 6074.415, 1213.378 6084.415, 1213.378 6094.415, 1213.378 6104.415, 1213.378 6114.415, 1213.378 6124.414, 1213.378 6134.415, 1213.378 6144.415, 1213.378 6154.414, 1213.378 6164.415, 1213.378 6174.415, 1213.378 6184.414, 1213.378 6194.415, 1213.378 6204.415, 1213.378 6214.415, 1213.378 6224.415, 1213.378 6234.415, 1213.378 6244.415, 1213.378 6254.415, 1213.378 6264.414, 1213.378 6274.415, 1213.378 6284.415, 1213.378 6345.135, 1213.378 " />
            <path fill="none" stroke-width="3.0" stroke-linecap="butt" stroke-opacity="1.0" stroke="rgb(0, 0, 0)" stroke-linejoin="round" d=" M -6454.647, 1213.378 -6444.647, 1213.378 -6434.647, 1213.378 -6424.647, 1213.378 -6414.647, 1213.378 -6404.647, 1213.378 -6394.647, 1213.378 -6384.647, 1213.378 -6374.647, 1213.378 -6364.647, 1213.378 -6354.647, 1213.378 -6344.647, 1213.378 -6334.647, 1213.378 -6324.647, 1213.378 -6314.647, 1213.378 -6304.647, 1213.378 -6294.647, 1213.378 -6284.647, 1213.378 -6274.647, 1213.378 -6264.647, 1213.378 -6254.647, 1213.378 -6244.647, 1213.378 -6234.647, 1213.378 -6224.647, 1213.378 -6214.647, 1213.378 -6204.647, 1213.378 -6194.647, 1213.378 -6184.647, 1213.378 -6174.647, 1213.378 -6164.647, 1213.378 -6154.647, 1213.378 -6144.647, 1213.378 -6134.647, 1213.378 -6124.647, 1213.378 -6114.647, 1213.378 -6104.647, 1213.378 -6094.647, 1213.378 -6084.647, 1213.378 -6074.647, 1213.378 -6064.647, 1213.378 -6054.647, 1213.378 -6044.647, 1213.378 -6034.647, 1213.378 -6024.647, 1213.378 -6014.647, 1213.378 -6004.647, 1213.378 -5994.647, 1213.378 -5984.647, 1213.378 -5974.647, 1213.378 -5964.647, 1213.378 -5954.647, 1213.378 -5944.647, 1213.378 -5934.647, 1213.378 -5924.647, 1213.378 -5914.647, 1213.378 -5904.647, 1213.378 -5894.647, 1213.378 -5884.647, 1213.378 -5874.647, 1213.378 -5864.647, 1213.378 -5854.647, 1213.378 -5844.647, 1213.378 -5834.647, 1213.378 -5824.647, 1213.378 -5814.647, 1213.378 -5804.647, 1213.378 -5794.647, 1213.378 -5784.647, 1213.378 -5774.647, 1213.378 -5764.647, 1213.378 -5754.647, 1213.378 -5744.647, 1213.378 -5734.647, 1213.378 -5724.647, 1213.378 -5714.647, 1213.378 -5704.647, 1213.378 -5694.647, 1213.378 -5684.647, 1213.378 -5674.647, 1213.378 -5664.647, 1213.378 -5654.647, 1213.378 -5644.647, 1213.378 -5634.647, 1213.378 -5624.647, 1213.378 -5614.647, 1213.378 -5604.647, 1213.378 -5594.647, 1213.378 -5584.647, 1213.378 -5574.647, 1213.378 -5564.647, 1213.378 -5554.647, 1213.378 -5544.647, 1213.378 -5534.647, 1213.378 -5524.647, 1213.378 -5514.647, 1213.378 -5504.647, 1213.378 -5494.647, 1213.378 -5484.647, 1213.378 -5474.647, 1213.378 -5464.647, 1213.378 -5454.647, 1213.378 -5444.647, 1213.378 -5434.647, 1213.378 -5424.647, 1213.378 -5414.647, 1213.378 -5404.647, 1213.378 -5394.647, 1213.378 -5384.647, 1213.378 -5374.647, 1213.378 -5364.647, 1213.378 -5354.647, 1213.378 -5344.647, 1213.378 -5334.647, 1213.378 -5324.647, 1213.378 -5314.647, 1213.378 -5304.647, 1213.378 -5294.647, 1213.378 -5284.647, 1213.378 -5274.647, 1213.378 -5264.647, 1213.378 -5254.647, 1213.378 -5244.647, 1213.378 -5234.647, 1213.378 -5224.647, 1213.378 -5214.647, 1213.378 -5204.647, 1213.378 -5194.647, 1213.378 -5184.647, 1213.378 -5174.647, 1213.378 -5164.647, 1213.378 -5154.647, 1213.378 -5144.647, 1213.378 -5134.647, 1213.378 -5124.647, 1213.378 -5114.647, 1213.378 -5104.647, 1213.378 -5094.647, 1213.378 -5084.647, 1213.378 -5074.647, 1213.378 -5064.647, 1213.378 -5054.647, 1213.378 -5044.647, 1213.378 -5034.647, 1213.378 -5024.647, 1213.378 -5014.647, 1213.378 -5004.647, 1213.378 -4994.647, 1213.378 -4984.647, 1213.378 -4974.647, 1213.378 -4964.647, 1213.378 -4954.647, 1213.378 -4944.647, 1213.378 -4934.647, 1213.378 -4924.647, 1213.378 -4914.647, 1213.378 -4904.647, 1213.378 -4894.647, 1213.378 -4884.647, 1213.378 -4874.647, 1213.378 -4864.647, 1213.378 -4854.647, 1213.378 -4844.647, 1213.378 -4834.647, 1213.378 -4824.647, 1213.378 -4814.647, 1213.378 -4804.647, 1213.378 -4794.647, 1213.378 -4784.647, 1213.378 -4774.647, 1213.378 -4764.647, 1213.378 -4754.647, 1213.378 -4744.647, 1213.378 -4734.647, 1213.378 -4724.647, 1213.378 -4714.647, 1213.378 -4704.647, 1213.378 -4694.647, 1213.378 -4684.647, 1213.378 -4674.648, 1213.378 -4664.647, 1213.378 -4654.648, 1213.378 -4644.647, 1213.378 -4634.648, 1213.378 -4624.647, 1213.378 -4614.648, 1213.378 -4604.647, 1213.378 -4594.648, 1213.378 -4584.647, 1213.378 -4574.647, 1213.378 -4564.647, 1213.378 -4554.647, 1213.378 -4544.647, 1213.378 -4534.647, 1213.378 -4524.647, 1213.378 -4514.647, 1213.378 -4504.648, 1213.378 -4494.647, 1213.378 -4484.648, 1213.378 -4474.647, 1213.378 -4464.648, 1213.378 -4454.647, 1213.378 -4444.648, 1213.378 -4434.647, 1213.378 -4424.648, 1213.378 -4414.647, 1213.378 -4404.647, 1213.378 -4394.647, 1213.378 -4384.647, 1213.378 -4374.647, 1213.378 -4364.647, 1213.378 -4354.648, 1213.378 -4344.647, 1213.378 -4334.648, 1213.378 -4324.647, 1213.378 -4314.648, 1213.378 -4304.647, 1213.378 -4294.648, 1213.378 -4284.647, 1213.378 -4274.648, 1213.378 -4264.647, 1213.378 -4254.648, 1213.378 -4244.647, 1213.378 -4234.647, 1213.378 -4224.647, 1213.378 -4214.647, 1213.378 -4204.647, 1213.378 -4194.647, 1213.378 -4184.648, 1213.378 -4174.647, 1213.378 -4164.648, 1213.378 -4154.647, 1213.378 -4144.648, 1213.378 -4134.647, 1213.378 -4124.648, 1213.378 -4114.647, 1213.378 -4104.648, 1213.378 -4094.648, 1213.378 -4084.648, 1213.378 -4074.648, 1213.378 -4064.648, 1213.378 -4054.648, 1213.378 -4044.648, 1213.378 -4034.648, 1213.378 -4024.648, 1213.378 -4014.648, 1213.378 -4004.648, 1213.378 -3994.648, 1213.378 -3984.648, 1213.378 -3974.648, 1213.378 -3964.648, 1213.378 -3954.648, 1213.378 -3944.648, 1213.378 -3934.648, 1213.378 -3924.648, 1213.378 -3914.648, 1213.378 -3904.648, 1213.378 -3894.648, 1213.378 -3884.648, 1213.378 -3874.648, 1213.378 -3864.648, 1213.378 -3854.648, 1213.378 -3844.648, 1213.378 -3834.648, 1213.378 -3824.648, 1213.378 -3814.648, 1213.378 -3804.648, 1213.378 -3794.648, 1213.378 -3784.648, 1213.378 -3774.648, 1213.378 -3764.648, 1213.378 -3754.648, 1213.378 -3744.648, 1213.378 -3734.648, 1213.378 -3724.648, 1213.378 -3714.648, 1213.378 -3704.648, 1213.378 -3694.648, 1213.378 -3684.648, 1213.378 -3674.648, 1213.378 -3664.648, 1213.378 -3654.648, 1213.378 -3644.648, 1213.378 -3634.648, 1213.378 -3624.648, 1213.378 -3614.648, 1213.378 -3604.648, 1213.378 -3594.648, 1213.378 -3584.648, 1213.378 -3574.648, 1213.378 -3564.648, 1213.378 -3554.648, 1213.378 -3544.648, 1213.378 -3534.648, 1213.378 -3524.648, 1213.378 -3514.648, 1213.378 -3504.648, 1213.378 -3494.648, 1213.378 -3484.648, 1213.378 -3474.648, 1213.378 -3464.648, 1213.378 -3454.648, 1213.378 -3444.648, 1213.378 -3434.648, 1213.378 -3424.648, 1213.378 -3414.648, 1213.378 -3404.648, 1213.378 -3394.648, 1213.378 -3384.648, 1213.378 -3374.648, 1213.378 -3364.648, 1213.378 -3354.648, 1213.378 -3344.648, 1213.378 -3334.648, 1213.378 -3324.648, 1213.378 -3314.648, 1213.378 -3304.648, 1213.378 -3294.648, 1213.378 -3284.648, 1213.378 -3274.648, 1213.378 -3264.648, 1213.378 -3254.648, 1213.378 -3244.648, 1213.378 -3234.648, 1213.378 -3224.648, 1213.378 -3214.648, 1213.378 -3204.648, 1213.378 -3194.648, 1213.378 -3184.648, 1213.378 -3174.648, 1213.378 -3164.648, 1213.378 -3154.648, 1213.378 -3144.648, 1213.378 -3134.648, 1213.378 -3124.648, 1213.378 -3114.648, 1213.378 -3104.648, 1213.378 -3094.648, 1213.378 -3084.648, 1213.378 -3074.648, 1213.378 -3064.648, 1213.378 -3054.648, 1213.378 -3044.648, 1213.378 -3034.648, 1213.378 -3024.648, 1213.378 -3014.648, 1213.378 -3004.648, 1213.378 -2994.647, 1213.378 -2984.648, 1213.378 -2974.648, 1213.378 -2964.648, 1213.378 -2954.647, 1213.378 -2944.648, 1213.378 -2934.648, 1213.378 -2924.648, 1213.378 -2914.648, 1213.378 -2904.648, 1213.378 -2894.648, 1213.378 -2884.648, 1213.378 -2874.648, 1213.378 -2864.648, 1213.378 -2854.648, 1213.378 -2844.647, 1213.378 -2834.648, 1213.378 -2824.648, 1213.378 -2814.648, 1213.378 -2804.647, 1213.378 -2794.648, 1213.378 -2784.648, 1213.378 -2774.648, 1213.378 -2764.648, 1213.378 -2754.648, 1213.378 -2744.648, 1213.378 -2734.648, 1213.378 -2724.648, 1213.378 -2714.648, 1213.378 -2704.648, 1213.378 -2694.647, 1213.378 -2684.648, 1213.378 -2674.648, 1213.378 -2664.648, 1213.378 -2654.647, 1213.378 -2644.648, 1213.378 -2634.648, 1213.378 -2624.648, 1213.378 -2614.648, 1213.378 -2604.648, 1213.378 -2594.648, 1213.378 -2584.648, 1213.378 -2574.648, 1213.378 -2564.648, 1213.378 -2554.648, 1213.378 -2544.648, 1213.378 -2534.648, 1213.378 -2524.648, 1213.378 -2514.648, 1213.378 -2504.647, 1213.378 -2494.648, 1213.378 -2484.648, 1213.378 -2474.648, 1213.378 -2464.647, 1213.378 -2454.648, 1213.378 -2444.648, 1213.378 -2434.648, 1213.378 -2424.648, 1213.378 -2414.648, 1213.378 -2404.648, 1213.378 -2394.648, 1213.378 -2384.648, 1213.378 -2374.648, 1213.378 -2364.648, 1213.378 -2354.647, 1213.378 -2344.648, 1213.378 -2334.648, 1213.378 -2324.648, 1213.378 -2314.647, 1213.378 -2304.648, 1213.378 -2294.648, 1213.378 -2284.648, 1213.378 -2274.648, 1213.378 -2264.648, 1213.378 -2254.648, 1213.378 -2244.648, 1213.378 -2234.648, 1213.378 -2224.648, 1213.378 -2214.648, 1213.378 -2204.648, 1213.378 -2194.648, 1213.378 -2184.648, 1213.378 -2174.648, 1213.378 -2164.647, 1213.378 -2154.648, 1213.378 -2144.648, 1213.378 -2134.648, 1213.378 -2124.648, 1213.378 -2114.648, 1213.378 -2104.648, 1213.378 -2094.648, 1213.378 -2084.648, 1213.378 -2074.648, 1213.378 -2064.648, 1213.378 -2054.648, 1213.378 -2044.648, 1213.378 -2034.648, 1213.378 -2024.648, 1213.378 -2014.648, 1213.378 -2004.648, 1213.378 -1994.648, 1213.378 -1984.648, 1213.378 -1974.648, 1213.378 -1964.648, 1213.378 -1954.648, 1213.378 -1944.648, 1213.378 -1934.648, 1213.378 -1924.648, 1213.378 -1914.648, 1213.378 -1904.648, 1213.378 -1894.648, 1213.378 -1884.648, 1213.378 -1874.648, 1213.378 -1864.648, 1213.378 -1854.648, 1213.378 -1844.648, 1213.378 -1834.648, 1213.378 -1824.648, 1213.378 -1814.648, 1213.378 -1804.648, 1213.378 -1794.648, 1213.378 -1784.648, 1213.378 -1774.648, 1213.378 -1764.648, 1213.378 -1754.648, 1213.378 -1744.648, 1213.378 -1734.648, 1213.378 -1724.648, 1213.378 -1714.648, 1213.378 -1704.648, 1213.378 -1694.648, 1213.378 -1684.648, 1213.378 -1674.648, 1213.378 -1664.648, 1213.378 -1654.648, 1213.378 -1644.648, 1213.378 -1634.648, 1213.378 -1624.648, 1213.378 -1614.648, 1213.378 -1604.648, 1213.378 -1594.648, 1213.378 -1584.648, 1213.378 -1574.648, 1213.378 -1564.648, 1213.378 -1554.648, 1213.378 -1544.648, 1213.378 -1534.648, 1213.378 -1524.648, 1213.378 -1514.648, 1213.378 -1504.648, 1213.378 -1494.648, 1213.378 -1484.648, 1213.378 -1474.648, 1213.378 -1464.648, 1213.378 -1454.648, 1213.378 -1444.648, 1213.378 -1434.648, 1213.378 -1424.648, 1213.378 -1414.648, 1213.378 -1404.648, 1213.378 -1394.648, 1213.378 -1384.648, 1213.378 -1374.648, 1213.378 -1364.648, 1213.378 -1354.648, 1213.378 -1344.648, 1213.378 -1334.648, 1213.378 -1324.648, 1213.378 -1314.648, 1213.378 -1304.648, 1213.378 -1294.648, 1213.378 -1284.648, 1213.378 -1274.648, 1213.378 -1264.648, 1213.378 -1254.648, 1213.378 -1244.648, 1213.378 -1234.648, 1213.378 -1224.648, 1213.378 -1214.648, 1213.378 -1204.648, 1213.378 -1194.648, 1213.378 -1184.648, 1213.378 -1174.648, 1213.378 -1164.648, 1213.378 -1154.648, 1213.378 -1144.648, 1213.378 -1134.648, 1213.378 -1124.648, 1213.378 -1114.648, 1213.378 -1104.648, 1213.378 -1094.648, 1213.378 -1084.648, 1213.378 -1074.648, 1213.378 -1064.648, 1213.378 -1054.648, 1213.378 -1044.648, 1213.378 -1034.648, 1213.378 -1024.648, 1213.378 -1014.648, 1213.378 -1004.648, 1213.378 -994.648, 1213.378 -984.648, 1213.378 -974.648, 1213.378 -964.648, 1213.378 -954.648, 1213.378 -944.648, 1213.378 -934.648, 1213.378 -924.648, 1213.378 -914.648, 1213.378 -904.648, 1213.378 -894.648, 1213.378 -884.648, 1213.378 -874.648, 1213.378 -864.648, 1213.378 -854.648, 1213.378 -844.648, 1213.378 -834.648, 1213.378 -824.648, 1213.378 -814.648, 1213.378 -804.648, 1213.378 -794.648, 1213.378 -784.648, 1213.378 -774.648, 1213.378 -764.648, 1213.378 -754.648, 1213.378 -744.648, 1213.378 -734.648, 1213.378 -724.648, 1213.378 -714.648, 1213.378 -704.648, 1213.378 -694.648, 1213.378 -684.648, 1213.378 -674.648, 1213.378 -664.648, 1213.378 -654.648, 1213.378 -644.648, 1213.378 -634.648, 1213.378 -624.648, 1213.378 -614.648, 1213.378 -604.648, 1213.378 -594.648, 1213.378 -584.648, 1213.378 -574.648, 1213.378 -564.648, 1213.378 -554.648, 1213.378 -544.648, 1213.378 -534.648, 1213.378 -524.648, 1213.378 -514.648, 1213.378 -504.648, 1213.378 -494.648, 1213.378 -484.648, 1213.378 -474.648, 1213.378 -464.648, 1213.378 -454.648, 1213.378 -444.648, 1213.378 -434.648, 1213.378 -424.648, 1213.378 -414.648, 1213.378 -404.648, 1213.378 -394.648, 1213.378 -384.648, 1213.378 -374.648, 1213.378 -364.648, 1213.378 -354.648, 1213.378 -344.648, 1213.378 -334.648, 1213.378 -324.648, 1213.378 -314.648, 1213.378 -304.648, 1213.378 -294.648, 1213.378 -284.648, 1213.378 -274.648, 1213.378 -264.648, 1213.378 -254.648, 1213.378 -244.648, 1213.378 -234.648, 1213.378 -224.648, 1213.378 -214.648, 1213.378 -204.648, 1213.378 -194.648, 1213.378 -184.648, 1213.378 -174.648, 1213.378 -164.648, 1213.378 -154.648, 1213.378 -144.648, 1213.378 -134.648, 1213.378 -124.648, 1213.378 -114.648, 1213.378 -104.648, 1213.378 -94.648, 1213.378 -84.648, 1213.378 -74.648, 1213.378 -64.648, 1213.378 -54.648, 1213.378 -44.648, 1213.378 -34.648, 1213.378 -24.648, 1213.378 -14.648, 1213.378 -4.648, 1213.378 5.352, 1213.378 15.352, 1213.378 25.352, 1213.378 35.352, 1213.378 45.352, 1213.378 55.352, 1213.378 65.352, 1213.378 75.352, 1213.378 85.352, 1213.378 95.352, 1213.378 105.352, 1213.378 115.352, 1213.378 125.352, 1213.378 135.352, 1213.378 145.352, 1213.378 155.352, 1213.378 165.352, 1213.378 175.352, 1213.378 185.352, 1213.378 195.352, 1213.378 205.352, 1213.378 215.352, 1213.378 225.352, 1213.378 235.352, 1213.378 245.352, 1213.378 255.352, 1213.378 265.352, 1213.378 275.352, 1213.378 285.352, 1213.378 295.352, 1213.378 305.352, 1213.378 315.352, 1213.378 325.352, 1213.378 335.352, 1213.378 408.248, 1213.378 " />
        </g>
    </g>
<g id="slice-labels"><text x="-2465.5154999999995" y="321.06924999999995" text-anchor="middle" dominant-baseline="middle" font-family="Arial, sans-serif" font-size="59.069421172604685" font-weight="bold" fill="black" stroke="none" stroke-width="7.088330540712562" paint-order="stroke fill">Platte 60 (Front)</text><text x="-2465.5154999999995" y="915.94175" text-anchor="middle" dominant-baseline="middle" font-family="Arial, sans-serif" font-size="59.069421172604685" font-weight="bold" fill="black" stroke="none" stroke-width="7.088330540712562" paint-order="stroke fill">Platte 60 (Front)</text></g></svg>